<?xml version="1.0" encoding="utf-8"?>
<!-- Generator: Adobe Illustrator 26.0.3, SVG Export Plug-In . SVG Version: 6.00 Build 0)  -->
<svg version="1.1" xmlns="http://www.w3.org/2000/svg" xmlns:xlink="http://www.w3.org/1999/xlink" x="0px" y="0px"
	 viewBox="0 0 200 200" enable-background="new 0 0 200 200" xml:space="preserve">
<g id="Layer_1">
	<g id="Layer_1_00000061442898653323928190000005571608892069918396_">
		<g id="Layer_1_00000098929087308412571940000004538787532203942811_">
		</g>
	</g>
</g>
<g id="Isolation_Mode">
	<g>
		<path fill="#1E8346" d="M144.197,168.561l9.029,3.571c0.321-0.229,0.609-0.43,0.784-0.784c0.2-0.405-0.082-0.721-0.218-1.098
			c-0.099-0.276,0.002-0.477,0.126-0.728c0.214-0.432,0.009-0.793-0.147-1.212c-0.177-0.476,0.156-0.591,0.469-0.91
			c0.232-0.236,0.178-0.477,0.064-0.768c-0.194-0.493-0.541-0.911-0.814-1.366c-0.258-0.43-0.182-0.637-0.007-1.081
			c0.133-0.338,0.295-1.165-0.201-1.298c-0.157-0.042-0.345-0.011-0.509-0.053c-0.177-0.046-0.351-0.11-0.478-0.244
			c-0.26-0.274-0.426-0.628-0.7-0.888c-0.232-0.221-0.396-0.578-0.679-0.721c-0.211-0.106-0.439-0.197-0.663-0.233
			c-0.218-0.035-0.432-0.032-0.648,0.003c-0.331,0.052-0.942,0.083-1.167-0.211c-0.086-0.112-0.078-0.271-0.163-0.376
			c-0.099-0.123-0.248-0.122-0.387-0.146c-0.449-0.078-0.724-0.449-1.052-0.744c-0.222-0.199-0.497-0.391-0.656-0.65
			c-0.071-0.116-0.1-0.248-0.174-0.363c-0.13-0.2-0.333-0.357-0.485-0.539c-0.153-0.183-0.279-0.422-0.401-0.628
			c-0.23-0.39-0.149-0.792-0.253-1.209c-0.085-0.342-0.261-0.553-0.489-0.812c-0.287-0.327-0.734-0.506-0.94-0.897
			c-0.169-0.321-0.212-0.374-0.567-0.451c-0.24-0.052-0.278-0.186-0.277-0.415c0.003-0.343,0.204-0.461,0.435-0.704
			c0.227-0.239,0.44-0.341,0.776-0.35c0.301-0.008,0.602-0.017,0.903-0.017c0.143,0,0.267-0.017,0.394,0.05
			c0.178,0.095,0.293,0.285,0.518,0.304c0.312,0.026,0.645-0.164,0.878-0.351c0.193-0.155,0.339-0.456,0.587-0.522
			c0.285-0.075,0.572-0.074,0.86-0.177c0.653-0.233,1.44-0.114,1.997,0.309c0.141,0.107,0.287,0.231,0.457,0.278
			c0.184,0.052,0.385-0.013,0.554,0.102c0.261,0.179,0.562,0.678,0.587,0.984c0.026,0.316-0.143,0.472-0.284,0.724
			c-0.088,0.155-0.141,0.28-0.12,0.461c0.025,0.215,0.142,0.204,0.315,0.286c0.44,0.207,0.727,0.528,1.069,0.869
			c0.284,0.283,0.609,0.628,1.021,0.671c0.201,0.021,0.408-0.056,0.615-0.033c0.202,0.022,0.393,0.122,0.594,0.158
			c0.364,0.065,0.614,0.228,0.742,0.571c0.102,0.274,0.506,0.759,0.843,0.645c0.296-0.101,0.079-0.564,0.431-0.668
			c0.456-0.134,0.847,0.366,1.217,0.537c0.235,0.109,0.504,0.121,0.748,0.199c0.281,0.09,0.465,0.095,0.706-0.073
			c0.192-0.134,0.268-0.366,0.49-0.311c0.189,0.048,0.408,0.205,0.56,0.316c0.533,0.386,0.987,0.801,1.4,1.31
			c0.096,0.118,0.19,0.237,0.31,0.333c0.082,0.066,0.265,0.101,0.273,0.221c0.007,0.108-0.192,0.252-0.263,0.309
			c-0.233,0.188-0.532,0.323-0.807,0.443c-0.277,0.121-0.525-0.007-0.634-0.289c-0.098-0.252,0.018-0.543-0.164-0.783
			c-0.218-0.286-0.998-0.401-1.089,0.07c-0.052,0.268,0.166,0.536,0.319,0.729c0.178,0.223,0.277,0.496,0.452,0.719
			c0.174,0.223,0.405,0.396,0.581,0.622c0.199,0.255,0.374,0.553,0.519,0.844c0.145,0.29,0.095,0.467,0.066,0.765
			c-0.026,0.265-0.181,0.655,0.068,0.817c0.279,0.181,0.629,0.555,0.852,0.807c0.263,0.296,0.427,0.673,0.687,0.977
			c0.376,0.44,0.511,0.915,0.771,1.427c0.136,0.269,0.339,0.498,0.37,0.804c0.03,0.296-0.004,0.638-0.115,0.913
			c-0.121,0.298-0.282,0.593-0.412,0.89c-0.121,0.276-0.237,0.602-0.528,0.719c-0.286,0.114-0.47,0.033-0.69,0.305
			c-0.283,0.349-0.451,0.857-0.885,1.045c0,0.322-0.035,0.675,0.074,0.984c0.264,0.75,0.846,1.521,1.559,1.886
			c0.752,0.386,1.374,1.012,2.174,1.351c0.816,0.346,1.511,0.613,2.176,1.243c0.302,0.286,0.63,0.641,0.994,0.844
			c0.515,0.287,1.107,0.426,1.561,0.828c0.307,0.273,0.62,0.6,0.897,0.908c0.264,0.295,0.417,0.675,0.654,0.986
			c0.511,0.672,0.933,1.374,1.338,2.113c0.256,0.467,0.566,0.809,0.665,1.343c0.084,0.454,0.184,0.796,0.445,1.174
			c0.292,0.422,0.531,0.727,0.608,1.236c0.07,0.467,0.331,0.819,0.451,1.265c0.198,0.735-0.67,0.838-0.602,1.49
			c0.024,0.231,0.049,0.475,0.105,0.701c0.048,0.193,0.04,0.443,0.116,0.639c0.061,0.158,0.174,0.346,0.332,0.198
			c0.082-0.077,0.159-0.506,0.185-0.61c0.111-0.456,0.433-0.806,0.44-1.279c0.003-0.238-0.067-0.454-0.028-0.689
			c0.047-0.278,0.123-0.476,0.076-0.766c-0.035-0.219-0.105-0.304-0.253-0.465c-0.199-0.217-0.212-0.414-0.286-0.697
			c-0.14-0.539-0.487-0.945-0.641-1.463c-0.179-0.601-0.092-1.275-0.095-1.902c-0.001-0.227,0.043-0.672-0.154-0.822
			c-0.141-0.107-0.342-0.105-0.495-0.235c-0.166-0.142-0.398-0.285-0.466-0.507c-0.074-0.24-0.012-0.634-0.012-0.884
			c0-0.244,0.048-0.57-0.018-0.81c-0.06-0.217-0.263-0.376-0.329-0.584c-0.065-0.207-0.007-0.463-0.132-0.653
			c-0.156-0.237-0.406-0.183-0.65-0.189c0-0.385-0.007-0.371-0.329-0.349c-0.319,0.021-0.581-0.026-0.836-0.22
			c-0.207-0.157-0.269-0.334-0.527-0.202c-0.135,0.069-0.337,0.371-0.498,0.322c-0.086-0.027-0.277-0.354-0.334-0.426
			c-0.133-0.166-0.305-0.311-0.427-0.481c-0.235-0.326-0.475-0.358-0.726-0.697c-0.177-0.238-0.177-0.559-0.49-0.666
			c-0.383-0.131-0.83,0.017-1.157-0.273c-0.567-0.502-0.242-1.21,0.382-1.529c0.373-0.19,0.863-0.064,1.256-0.188
			c0.492-0.156,0.72-0.604,1.077-0.934c0.289-0.269,0.671-0.386,0.942-0.647c0.306-0.297,0.405-0.75,0.644-1.099
			c0.514-0.75,1.654-0.817,2.071-1.654c0.094-0.188,0.107-0.455,0.393-0.43c0.14,0.012,0.285,0.155,0.421,0.207
			c0.323,0.124,0.665,0.076,0.993-0.01c0.772-0.204,1.869-0.322,2.403-0.99c0.346-0.434,0.54-0.955,0.704-1.474
			c0.145-0.462,0.385-0.915,0.601-1.348c0.372-0.745-0.137-1.696-0.053-2.484c0.074-0.693,1.148-1.068,0.702-1.751
			c-0.157-0.239-0.421-0.51-0.517-0.774c-0.132-0.364,0.213-0.689,0.293-1.03c0.104-0.442-0.137-0.837-0.271-1.246
			c-0.128-0.389-0.08-0.744-0.289-1.101c-0.235-0.402-0.595-0.615-0.899-0.95c-0.356-0.392-0.451-0.681-0.47-1.203
			c-0.016-0.427-0.25-0.866-0.689-1.007c-0.211-0.068-0.499,0.011-0.672-0.173c-0.232-0.247-0.098-0.698-0.171-1
			c-0.094-0.394-0.299-0.625-0.676-0.759c-0.27-0.096-0.942-0.21-1.056-0.539c-0.105-0.303,0.325-0.488,0.261-0.797
			c-0.035-0.169-0.152-0.202-0.102-0.41c0.041-0.168,0.166-0.354,0.334-0.426c0.303-0.13,1.096,0.017,1.322-0.221
			c0.161-0.17-0.077-0.63,0.049-0.894c0.166-0.346,0.595-0.447,0.868-0.712c0.145-0.14,0.258-0.38,0.183-0.591
			c-0.042-0.117-0.108-0.111-0.21-0.192c-0.152-0.12-0.381-0.205-0.443-0.374c-0.164-0.445,0.783-1.006,0.951-1.372
			c0.789-0.227,1.676,0.013,2.401-0.48c0.334-0.228,0.572-0.633,0.961-0.777c0.45-0.167,0.969-0.034,1.428-0.208
			c0.627-0.238,0.982-0.61,1.358-1.126c0.249-0.343,0.544-0.531,0.892-0.768c0.473-0.322,1.236-0.886,1.273-1.496
			c0.021-0.346-0.018-0.673-0.266-0.917c-0.253-0.249-0.558-0.333-0.85-0.517c-0.402-0.253-0.233-0.75-0.237-1.171
			c-0.002-0.322-0.099-0.482-0.417-0.595c-0.327-0.116-0.567-0.312-0.878-0.45c-0.604-0.268-1.503,0.038-2.068-0.367
			c-0.133-0.096-0.169-0.233-0.271-0.357c-0.123-0.149-0.292-0.25-0.426-0.387c-0.171-0.175-0.271-0.373-0.403-0.582
			c-0.334-0.53-0.877-0.624-1.427-0.886c-0.287-0.137-0.561-0.297-0.845-0.442c-0.307-0.157-0.72-0.275-1.001-0.463l-0.726-1.552
			l-2.053,0.726l-0.476-0.375v-22.456l5.057-1.54c-0.017-0.135-0.063-0.333-0.2-0.513c-0.331-0.433-0.828-0.285-1.127-0.701
			c-0.176-0.244-0.183-0.544-0.188-0.764c-0.011-0.458,0.163-0.53,0.087-0.776c-0.135-0.44-0.751-0.406-0.826-0.789
			c-0.042-0.216,0.149-0.248,0.3-0.738c0.145-0.469,0.04-0.666,0.213-0.839c0.176-0.175,0.446-0.134,0.701-0.125
			c1.352,0.045,1.918-0.83,2.541-0.451c0.315,0.192,0.341,0.519,0.589,0.513c0.324-0.008,0.422-0.572,0.73-0.563
			c0.307,0.009,0.56,0.579,0.584,0.634c0.125,0.288,0.074,0.426,0.2,0.501c0.214,0.127,0.477-0.203,0.751-0.083
			c0.216,0.094,0.155,0.341,0.351,0.434c0.339,0.16,0.814-0.438,1.018-0.301c0.192,0.129-0.132,0.721,0.117,0.935
			c0.17,0.147,0.406-0.06,0.651,0.1c0.209,0.136,0.127,0.345,0.334,0.668c0.243,0.377,0.694,0.618,0.835,0.517
			c0.138-0.099-0.05-0.507,0.05-0.551c0.067-0.029,0.2,0.131,0.434,0.417c0.202,0.247,0.303,0.37,0.317,0.451
			c0.063,0.344-0.316,0.548-0.217,0.801c0.057,0.146,0.193,0.103,0.367,0.301c0.219,0.249,0.097,0.426,0.267,0.617
			c0.237,0.267,0.79,0.277,1.152,0.083c0.238-0.128,0.241-0.263,0.384-0.267c0.37-0.01,0.492,0.903,0.901,0.935
			c0.278,0.021,0.308-0.394,0.768-0.501c0.35-0.081,0.518,0.116,0.901-0.017c0.079-0.028,0.269-0.094,0.417-0.267
			c0.198-0.232,0.121-0.423,0.267-1.268c0.048-0.273,0.062-0.29,0.067-0.417c0.017-0.419-0.13-0.527-0.05-0.768
			c0.1-0.303,0.427-0.426,0.451-0.434c0.193-0.069,0.358-0.034,0.517,0c0.408,0.087,0.684,0.334,0.784,0.434
			c0.144,0.144,0.134,0.188,0.334,0.384c0.208,0.204,0.342,0.335,0.434,0.3c0.145-0.055,0.201-0.525,0-0.851
			c-0.167-0.271-0.377-0.22-0.517-0.484c-0.159-0.299,0.052-0.475-0.067-0.734c-0.163-0.355-0.635-0.193-1.318-0.584
			c-0.356-0.204-0.571-0.445-0.935-0.851c-0.286-0.32-0.431-0.485-0.517-0.751c-0.142-0.436,0.048-0.577-0.083-0.851
			c-0.216-0.452-1.008-0.649-1.635-0.534c-0.642,0.118-0.751,0.496-1.168,0.417c-0.547-0.103-0.724-0.82-1.068-0.751
			c-0.238,0.048-0.217,0.405-0.501,0.484c-0.249,0.069-0.408-0.164-0.868-0.35c-0.463-0.188-0.522-0.039-0.951-0.184
			c-0.785-0.265-0.8-0.831-1.385-0.885c-0.408-0.038-0.519,0.228-0.935,0.15c-0.303-0.057-0.512-0.248-0.784-0.551
			c-0.692-0.77-1.135-1.263-1.419-2.136c-0.247-0.762-0.404-1.244-0.2-1.753c0.088-0.218,0.262-0.493,0.15-0.634
			c-0.081-0.103-0.293-0.107-0.434-0.034c-0.144,0.074-0.165,0.202-0.267,0.351c0,0-0.19,0.276-0.601,0.418
			c-0.643,0.221-1.576-0.841-1.827-1.127c-0.644-0.733-0.846-1.258-1.227-1.903c-0.704-1.191-1.417-1.775-2.053-2.428
			c-0.953-0.979-2.62-3.026-5.758-7.727c-0.319-0.757-0.239-1.113-0.1-1.298c0.109-0.145,0.271-0.208,0.276-0.363
			c0.007-0.214-0.292-0.386-0.476-0.488c-0.318-0.178-0.578-0.233-1.302-0.363c-0.899-0.162-0.953-0.159-1.039-0.138
			c-0.567,0.142-0.619,0.644-1.027,0.701c-0.429,0.06-0.809-0.434-1.277-1.014c-1.481-1.833-1.213-1.26-1.882-2.211
			c-1.156-1.646-1.047-2.07-2.003-3.004c-0.242-0.237-0.527-0.482-0.968-0.968c-0.57-0.629-0.933-1.147-1.102-1.385
			c0,0-1.126-1.59-2.604-3.388c-0.863-1.051-0.87-0.939-2.136-2.404c-0.078-0.09-1.165-1.35-2.303-2.804
			c-0.63-0.805-2.052-2.659-3.888-5.491c-1.724-2.658-3.535-5.45-5.408-9.463c-0.994-2.131-2.325-5.018-3.354-9.062
			c-0.399-1.566-0.69-3.058-0.901-4.456c-0.048-0.32-0.44-0.418-0.563-0.709c-0.154-0.365-0.294-0.731-0.47-1.094
			c-0.298-0.616-0.611-1.159-0.802-1.823c-0.092-0.32-0.138-0.66-0.302-0.959c-0.11-0.201-0.289-0.353-0.399-0.554
			c-0.121-0.221-0.219-0.451-0.35-0.671c-0.18-0.3-0.405-0.458-0.669-0.694c-0.273-0.243-0.427-0.562-0.711-0.795
			c-0.256-0.209-0.528-0.27-0.842-0.356c-0.347-0.095-0.581-0.28-0.899-0.432c0.257,0.166,0.299,0.511,0.45,0.764
			c0.126,0.211,0.332,0.337,0.376,0.547c0.024,0.114,0.023,0.359,0.001,0.474c-0.02,0.105-0.127,0.21-0.128,0.319
			c-0.001,0.224,0.319,0.462,0.443,0.662c0.278,0.448,0.207,0.944,0,1.425c-0.286,0.664-0.235,1.033,0.061,1.691
			c0.104,0.231,0.266,0.455,0.355,0.682c0.111,0.287-0.063,0.508-0.182,0.757c-0.128,0.268-0.25,0.435-0.495,0.616
			c-0.346,0.256-0.797,0.595-1.227,0.6c-0.752,0.008-1.436-0.176-2.183,0.017c-0.535,0.138-1.034,0.322-1.457,0.658
			c-0.292,0.231-0.706,0.189-1.042,0.359c-0.485,0.246-0.837,0.545-1.169,0.98c-0.28,0.366-0.322,0.632-0.795,0.659
			c-0.304,0.017-0.738,0.027-0.97,0.256c-0.514,0.113-0.785,0.671-1.171,0.951c-0.419,0.303-1.114,0.294-1.597,0.181
			c-0.467-0.109-0.797-0.197-1.257,0.029c-0.323,0.158-0.738,0.491-1.121,0.418c-0.295-0.056-0.23-0.234-0.381-0.449
			c-0.114-0.162-0.311-0.266-0.485-0.373c-0.158-0.097-0.335-0.212-0.519-0.253c-0.206-0.046-0.503,0.004-0.688-0.083
			c-0.382-0.178-0.338-0.762-0.572-1.054c-0.145-0.18-0.329-0.204-0.53-0.289c-0.178-0.075-0.287-0.182-0.434-0.301
			c-0.381-0.31-0.702-0.611-0.934-1.05c-0.311-0.589-0.64-0.998-1.281-1.209c-0.196,0.246,0.072,0.591,0.108,0.851
			c0.051,0.37-0.106,0.351-0.42,0.352c-0.638,0.001-1.213-0.082-1.657,0.471c-0.122,0.152-0.16,0.251-0.407,0.32
			c-0.257,0.071-0.604,0.102-0.848-0.008c-0.303-0.138-0.412-0.532-0.675-0.658c-0.218-0.104-0.707,0.304-0.983,0.378
			c-0.254,0.068-0.536,0.111-0.745-0.081c-0.203-0.187-0.152-0.441-0.276-0.647l-3.104-0.35c-0.049,0.062-0.303,0.251-0.381,0.262
			c-0.103,0.013-0.208-0.131-0.257-0.21c-0.14-0.221-0.179-0.482-0.392-0.657c-0.34-0.279-0.671-0.605-1.078-0.786
			c-0.226-0.1-0.453-0.168-0.25-0.442c0.183-0.247,0.423-0.362,0.66-0.541c0.266-0.201,0.46-0.373,0.297-0.721
			c-0.068-0.143-0.146-0.282-0.203-0.434c-0.148-0.399-0.155-0.823-0.397-1.203c-0.11-0.174-0.329-0.291-0.54-0.301
			c-0.181-0.008-0.31-0.027-0.468-0.126c-0.2-0.125-0.299-0.306-0.482-0.447c-0.24-0.185-0.605-0.291-0.904-0.302
			c-0.196-0.007-0.441,0.062-0.628-0.002c-0.181-0.061-0.346-0.259-0.438-0.418c-0.11-0.19-0.225-0.331-0.381-0.488
			c-0.166-0.167-0.294-0.416-0.491-0.545c-0.057-0.038-0.152-0.119-0.233-0.149c-0.068-0.025-0.128-0.038-0.203-0.04
			c-0.214-0.002-0.492,0.12-0.696,0.064c-0.201-0.055-0.24-0.325-0.318-0.489c-0.112-0.234-0.27-0.455-0.346-0.706
			c-0.061-0.2-0.055-0.466-0.266-0.568c-0.153-0.075-0.421-0.036-0.545-0.168c-0.113-0.12-0.037-0.435,0.036-0.562
			c0.113-0.198,0.342-0.35,0.395-0.58c0.053-0.234-0.011-0.4-0.179-0.563c-0.124-0.12-0.277-0.222-0.395-0.349
			c-0.077-0.082-0.129-0.214-0.24-0.259l-1.122,0.905l-1.318,0.133l-1.085,1.102l-1.719-0.117l-1.903-2.42l-4.556-1.836
			l-0.584-1.135l-1.568,0.734l-4.456-2.52l-12.943,7.894l-18.325-6.91l-6.584-3.48l-4.005-0.175l-5.182-2.027l-2.403-2.604
			l-2.729-0.526l-4.606,7.961c0.506,0,0.816,0.631,1.106,1.002c0.279,0.357,0.169,0.851,0.012,1.248
			c-0.212,0.536-0.79,0.943-1.379,0.954c-0.228,0.005-0.491,0.029-0.716-0.017c-0.258-0.053-0.201-0.186-0.249-0.418
			c-0.067-0.32-0.248-0.527-0.548-0.683c-0.272-0.142-0.467-0.143-0.765-0.173c-0.126,0.242,0.27,0.649,0.024,0.829
			c-0.078,0.057-0.26,0.026-0.365,0.076c-0.146,0.069-0.254,0.156-0.225,0.335c0.025,0.15,0.163,0.226,0.246,0.351
			c0.089,0.134,0.144,0.272,0.223,0.409c0.227,0.391,0.537,0.131,0.872,0.264c0.067,0.026,0.115,0.104,0.181,0.137
			c0.107,0.055,0.214,0.057,0.311,0.135c0.243,0.198,0.233,0.524,0.306,0.795c0.102,0.377,0.373,0.507,0.731,0.591
			c0.159,0.037,0.26,0.047,0.27,0.215c0.009,0.16-0.124,0.4-0.2,0.534c-0.126,0.221-0.453,0.375-0.542,0.597
			c-0.104,0.261,0.105,0.481,0.126,0.718c0.018,0.211-0.286,0.615-0.477,0.707c-0.186,0.089-0.484,0.017-0.642-0.096
			c-0.141-0.1-0.232-0.201-0.397-0.251c-0.278-0.083-0.563-0.084-0.842-0.164c-0.289-0.084-0.584-0.134-0.885-0.137
			c-0.199-0.002-0.401-0.01-0.596,0.036c-0.254,0.059-0.47,0.207-0.717,0.277c-0.352,0.1-0.472,0.159-0.521,0.534
			c-0.02,0.153-0.064,0.418,0.033,0.541c0.09,0.115,0.272,0.13,0.382,0.215c0.18,0.139,0.042,0.228-0.154,0.282
			c-0.156,0.043-0.303,0.003-0.457-0.028c-0.387-0.077-0.586-0.122-0.858-0.421c-0.078-0.086-0.412-0.376-0.396-0.503
			c0.012-0.106,0.263-0.266,0.317-0.384c0.128-0.278-0.113-0.488-0.351-0.604c-0.184-0.09-0.437-0.172-0.632-0.237
			c-0.171-0.057-0.416,0.039-0.587,0.093c-0.116,0.037-0.256,0.151-0.367,0.049c-0.202,0.078-0.556-0.194-0.695-0.027
			c-0.107,0.128-0.022,0.439-0.038,0.591c-0.027,0.25-0.167,0.416-0.325,0.599c-0.111,0.128-0.2,0.202-0.331,0.3
			c-0.111,0.083-0.247,0.259-0.367,0.317c-0.218,0.105-0.518,0.085-0.746,0.207C6.621,27.73,6.151,27.98,5.68,28.119
			c0.226,0.389,0.716,0.495,1.124,0.552c0.229,0.032,0.394,0.146,0.596,0.252c0.224,0.117,0.517,0.191,0.715,0.337
			c0.268,0.198,0.259,0.586,0.439,0.832c0.101,0.138,0.37,0.331,0.523,0.389c0.157,0.059,0.32,0.034,0.475,0.081
			c0.246,0.075,0.482,0.114,0.728,0.198c0.395,0.135,0.787,0.115,1.199,0.115c0.199,0,0.399,0.006,0.598,0
			c0.122-0.003,0.301-0.051,0.418-0.017c0.363,0.106,0.294,0.533,0.195,0.809c-0.056,0.154-0.195,0.237-0.263,0.372
			c-0.076,0.15,0.003,0.323,0.033,0.473c0.027,0.14,0.02,0.271,0.17,0.345c0.2,0.098,0.438-0.076,0.638-0.015
			c0.14,0.043,0.218,0.203,0.327,0.31c0.184,0.181,0.402,0.381,0.655,0.455c0.365,0.106,0.441-0.178,0.548-0.45
			c0.114-0.291,0.338-0.304,0.643-0.328c0.254-0.019,0.576-0.019,0.822,0.034c0.307,0.066,0.578,0.251,0.872,0.345
			c0.254,0.081,0.543,0.047,0.793,0.133c0.194,0.066,0.36,0.325,0.583,0.303c0.216,0.174,0.369,0.453,0.573,0.639
			c0.276,0.253,0.513,0.435,0.661,0.782c0.136,0.318,0.361,0.575,0.491,0.898c0.135,0.335,0.219,0.471-0.078,0.736
			c-0.248,0.22-0.313,0.622-0.166,0.923c0.213,0.435,0.481,0.675,0.458,1.195c-0.008,0.192-0.013,0.406-0.041,0.596
			c-0.03,0.204-0.121,0.379-0.131,0.591c-0.018,0.358,0.152,0.671,0.136,1.034c-0.004,0.106,0.011,0.186-0.001,0.292
			c-0.021,0.192-0.06,0.231-0.233,0.314c-0.173,0.083-0.321,0.206-0.501,0.275c-0.248,0.095-0.574,0.343-0.63,0.638
			c-0.036,0.189,0.151,0.299,0.115,0.499c-0.032,0.18-0.186,0.261-0.293,0.389c-0.098,0.116-0.157,0.235-0.18,0.389
			c-0.032,0.22,0.015,0.227,0.183,0.344c0.235-0.103,0.4-0.434,0.572-0.62c0.187-0.202,0.365-0.415,0.565-0.606
			c0.311-0.298,0.56-0.201,0.941-0.145c0.613,0.091,0.924,0.883,0.687,1.411c-0.159,0.354-0.477,0.508-0.695,0.804
			c-0.197,0.267-0.357,0.491-0.667,0.618c-0.305,0.125-0.549-0.096-0.847,0.127c-0.159,0.12-0.253,0.295-0.339,0.473
			c-0.111,0.232-0.265,0.429-0.41,0.639c-0.242,0.35-0.427,0.825-0.851,1.015c-0.325,0.145-0.626-0.083-0.871,0.235
			c-0.097,0.125-0.137,0.197-0.264,0.28c-0.154,0.1-0.336,0.137-0.501,0.207c-0.389,0.165-0.692,0.476-1.096,0.592
			c-0.253,0.072-0.567,0.281-0.841,0.138c-0.205-0.107-0.435-0.357-0.608-0.514c-0.269,0.15-0.171,0.449-0.359,0.631
			c-0.267,0.257-0.595,0.456-0.85,0.736c-0.126,0.138-0.199,0.178-0.137,0.363c0.045,0.135,0.127,0.238,0.153,0.381
			c0.049,0.265-0.078,0.54,0.019,0.789c0.159,0.41,0.667,0.425,0.959,0.69c0.366,0.333,0.498,0.928,0.414,1.396
			c-0.093,0.522-0.566,0.451-0.925,0.684c-0.248,0.16-0.168,0.539-0.167,0.79c0.001,0.195,0.003,0.242-0.129,0.381
			c-0.119,0.125-0.254,0.234-0.37,0.362c-0.258,0.287-0.39,0.774-0.883,0.468c-0.218-0.135-0.218-0.336-0.431-0.022
			c-0.134,0.199-0.23,0.41-0.391,0.585c-0.392,0.426-0.819,0.82-1.198,1.254c-0.132,0.151-0.325,0.313-0.516,0.377
			c-0.201,0.067-0.231,0.027-0.361,0.191c-0.123,0.156-0.144,0.286-0.145,0.489c0.341,0.28,0.759,0.451,1.131,0.7
			c0.339,0.227,0.517,0.615,0.539,1.022c0.012,0.232,0.019,0.464,0.016,0.696c-0.003,0.261-0.144,0.429-0.306,0.628
			c-0.155,0.191-0.383,0.302-0.412,0.557c-0.027,0.243,0.114,0.487,0.225,0.694c0.028,0.053,0.089,0.09,0.096,0.151
			c0.014,0.115-0.103,0.3-0.136,0.411c-0.077,0.26-0.163,0.445,0,0.693c0.252,0.383,0.404,0.765,0.524,1.205
			c0.094,0.345,0.198,0.733,0.227,1.089c0.031,0.374-0.053,0.873,0.097,1.21c0.091,0.206,0.166,0.398,0.322,0.566
			c0.177,0.191,0.401,0.32,0.606,0.473c0.199,0.149,0.259,0.282,0.314,0.517c0.041,0.172,0.138,0.343,0.179,0.503
			c0.064,0.249,0.232,0.584,0.342,0.8c0.19,0.371,0.386,0.745,0.536,1.14c0.143,0.376,0.044,0.705,0.102,1.091
			c0.035,0.23,0.143,0.492,0.121,0.724l2.47,2.854l0.384,0.818c0.081,0.129,0.288,0.182,0.392,0.296
			c0.156,0.171,0.314,0.351,0.489,0.502c0.18,0.157,0.396,0.275,0.559,0.446c0.134,0.141,0.195,0.305,0.291,0.47
			c0.348,0.602,0.954,0.979,1.283,1.607c0.098,0.187,0.157,0.368,0.23,0.559c0.05,0.131,0.165,0.241,0.244,0.368
			c0.073,0.117,0.181,0.196,0.25,0.316c0.125,0.216,0.105,0.509,0.183,0.745c0.068,0.208,0.267,0.373,0.301,0.598
			c0.02,0.129-0.025,0.256-0.034,0.383c-0.007,0.101,0.023,0.217,0.001,0.316c-0.036,0.163-0.178,0.275,0.061,0.336
			c0.18,0.046,0.477,0.007,0.65-0.046c0.154-0.047,0.252-0.13,0.419-0.101c0.111,0.019,0.253,0.065,0.357,0.114
			c0.2,0.095,0.438,0.271,0.567,0.459c0.179,0.26,0.246,0.561,0.634,0.593c0.343,0.029,0.737-0.044,1.068,0.065
			c0.124,0.041,0.36-0.022,0.496-0.017c0.197,0.007,0.258,0.009,0.406,0.152c0.266,0.254,0.543,0.45,0.925,0.482
			c0.19,0.016,0.385-0.004,0.576,0.001c0.096,0.002,0.156,0.011,0.245,0.037c0.186,0.055,0.226,0.16,0.392,0.268
			c0.386,0.249,0.796,0.175,1.216,0.211c0.347,0.03,0.475,0.303,0.783,0.406c0.313,0.104,0.607,0.271,0.933,0.349
			c0.183,0.043,0.375,0.009,0.557,0.047c0.188,0.039,0.335,0.137,0.514,0.182c0.351,0.088,0.657-0.109,0.931-0.317
			c0.163-0.124,0.254-0.208,0.47-0.214c0.156-0.005,0.313-0.001,0.469,0c0.359,0.002,0.571,0.227,0.849,0.426
			c0.26,0.186,0.409,0.353,0.755,0.325c0.311-0.025,0.621-0.052,0.931-0.084c0.349-0.036,0.553,0.016,0.857,0.181
			c0.181,0.098,0.39,0.135,0.561,0.249c0.118,0.079,0.225,0.166,0.35,0.237c0.313,0.181,0.634,0.368,0.956,0.53
			c0.421,0.212,0.747,0.558,1.144,0.814c0.344,0.222,0.742,0.31,1.087,0.494c0.29,0.155,0.557,0.377,0.845,0.542
			c0.277,0.159,0.475,0.389,0.715,0.591c0.133,0.112,0.242,0.197,0.341,0.333c0.178,0.244,0.128,0.477,0.044,0.748
			c-0.023,0.075-0.098,0.22-0.089,0.291c0.023,0.189,0.318,0.173,0.419,0.313c0.159,0.055,0.282,0.088,0.437,0.152
			c0.175,0.073,0.297,0.129,0.451,0.248c0.36,0.279,0.684,0.63,1.018,0.948c0.513,0.488,1.125,1.071,1.386,1.739
			c0.163,0.418,0.393,0.805,0.522,1.236c0.057,0.191,0.031,0.37,0.109,0.558c0.094,0.23,0.27,0.392,0.447,0.562
			c0.297,0.286,0.622,0.546,0.888,0.862c0.218,0.259,0.321,0.586,0.534,0.846c0.237,0.29,0.515,0.517,0.766,0.785
			c0.241,0.257,0.221,0.622,0.235,0.963c0.007,0.168-0.011,0.334,0.019,0.501c0.029,0.157,0.092,0.3,0.151,0.448
			c0.107,0.267,0.123,0.232,0.383,0.3c0.293,0.077,0.445,0.171,0.655,0.411c0.174,0.199,0.318,0.338,0.602,0.357
			c0.385,0.025,0.714-0.308,0.983-0.521c0.215-0.17,0.152-0.38,0.191-0.626c0.07-0.44,0.601-0.456,0.723-0.836
			c0.063-0.197,0.11-0.429,0.128-0.636c0.021-0.247,0.194-0.438,0.238-0.665c0.032-0.166-0.028-0.334,0.015-0.504
			c0.041-0.166,0.123-0.314,0.192-0.468c0.208-0.46,0.451-0.908,0.766-1.311c0.206-0.262,0.462-0.466,0.687-0.708
			c0.129-0.14,0.248-0.241,0.425-0.322c0.375-0.173,0.756-0.261,1.098-0.503c0.311-0.22,0.552-0.509,0.804-0.778
			c0.008-0.114,0.073-0.284,0.172-0.344c-0.183-0.322-0.59-0.633-0.976-0.607c-0.143-0.213,0.412-0.842,0.579-0.919
			c0.183-0.084,0.396-0.096,0.566-0.222c0.102-0.076,0.135-0.176,0.273-0.18c0.146-0.005,0.21,0.09,0.31,0.184
			c0.163,0.156,0.319,0.334,0.476,0.501c0.151,0.161,0.249,0.169,0.469,0.133c0.183-0.03,0.386-0.07,0.57-0.12
			c0.21-0.057,0.396-0.211,0.565-0.36c-0.076-0.334-0.837-0.691-0.34-1.038c0.188-0.132,0.427-0.095,0.621-0.164
			c0.327-0.116,0.438-0.468,0.636-0.721c0.142-0.182,0.367-0.301,0.555-0.429c0.193-0.132,0.216-0.186,0.313-0.391
			c0.173-0.361,0.616-0.465,0.89-0.754c0.178-0.188,0.249-0.305,0.28-0.533c0.033-0.245,0.133-0.17,0.355-0.209
			c0.513-0.092,0.898-0.475,1.281-0.795c-0.206-0.594-1.014-0.933-1.563-0.618c-0.104,0.059-0.186,0.168-0.289,0.221
			c-0.192,0.099-0.475,0.101-0.691,0.108c-0.093,0.003-0.237,0.023-0.324-0.007c-0.191-0.064-0.293-0.315-0.392-0.481
			c-0.066-0.111,0.318-0.409,0.382-0.476c0.137-0.143,0.239-0.24,0.271-0.441c0.018-0.112,0.106-0.284,0.067-0.395
			c-0.036-0.1-0.229-0.235-0.313-0.311c-0.12-0.109-0.235-0.216-0.343-0.337c-0.204-0.228-0.393-0.452-0.526-0.727
			c-0.085-0.175-0.129-0.354-0.03-0.538c0.124-0.23,0.407-0.299,0.601-0.448c0.183-0.141,0.226-0.302,0.167-0.538
			c-0.066-0.266-0.184-0.603-0.457-0.709c-0.389-0.15-0.694-0.47-1.104-0.567c-0.251-0.059-0.501-0.077-0.734-0.197
			c-0.148-0.077-0.284-0.195-0.418-0.302c-0.093,0.089-0.276,0.165-0.396,0.201c-0.155,0.047-0.253,0.069-0.383,0.165
			c-0.146,0.108-0.261,0.118-0.443,0.067c-0.193-0.054-0.374-0.157-0.565-0.217c-0.184-0.058-0.378-0.084-0.552-0.172
			c-0.412-0.21-0.706-0.641-1.04-0.95c-0.152-0.14-0.293-0.303-0.458-0.428c-0.222-0.168-0.488-0.256-0.733-0.382
			c-0.413-0.212-0.97,0.058-1.43-0.03c-0.126-0.024-0.24-0.061-0.37-0.043c-0.113,0.015-0.211,0.071-0.325,0.083
			c-0.223,0.022-0.377-0.088-0.572-0.167c-0.422-0.173-0.807-0.285-1.146-0.615c-0.127-0.123-0.31-0.364-0.498-0.33
			c-0.139,0.025-0.219,0.085-0.362,0.027c-0.127-0.052-0.25-0.125-0.364-0.202c-0.124-0.084-0.263-0.152-0.376-0.249
			c-0.118-0.102-0.204-0.239-0.309-0.353c-0.216-0.233-0.581-0.478-0.707-0.775c-0.085-0.202-0.389-0.387-0.454-0.601
			c-0.036-0.118-0.014-0.239,0.071-0.334c0.033-0.037,0.183-0.176,0.22-0.193c0.077-0.036,0.168,0.004,0.246,0.004
			c0.1-0.302-0.102-0.305-0.318-0.382c-0.2-0.071-0.429-0.231-0.583-0.373c-0.166-0.152-0.231-0.358-0.389-0.505
			c-0.163-0.152-0.252-0.309-0.32-0.522c-0.079-0.246-0.138-0.415-0.34-0.596c-0.093-0.084-0.182-0.183-0.31-0.206
			c-0.139-0.025-0.266-0.038-0.409-0.071c-0.377-0.088-0.642-0.294-0.949-0.526c-0.235-0.178-0.471-0.39-0.674-0.604
			c-0.161-0.169-0.206-0.372-0.209-0.6c-0.004-0.279,0.08-0.584,0.088-0.861c0.003-0.123-0.01-0.222-0.037-0.339
			c-0.049-0.211-0.169-0.348-0.253-0.543c-0.129-0.297-0.126-0.688-0.083-1.004c0.037-0.269,0.048-0.544,0.048-0.819
			c0-0.294,0.015-0.592,0.089-0.877c0.035-0.132,0.102-0.253,0.121-0.39c0.021-0.157-0.043-0.258-0.071-0.402
			c-0.022-0.116-0.019-0.311,0.012-0.425c0.034-0.126,0.142-0.226,0.18-0.351c0.03-0.097,0.02-0.199,0.019-0.301
			c-0.001-0.22-0.104-0.32-0.262-0.472c-0.124-0.12-0.229-0.228-0.338-0.364c-0.101-0.126-0.127-0.212-0.201-0.351
			c-0.089-0.167-0.241-0.209-0.403-0.288c-0.207-0.101-0.415-0.159-0.611-0.287c-0.282-0.185-0.617-0.4-0.851-0.638
			c0.171,0.016,0.341,0.022,0.514,0.013c0.175-0.009,0.349-0.057,0.513,0.015c0.24,0.105,0.438,0.296,0.667,0.418
			c0.235,0.126,0.368,0.218,0.524,0.44c0.253,0.359,0.815,0.634,0.874,1.092c0.027,0.215-0.002,0.452-0.001,0.669
			c0.002,0.263,0.088,0.492,0.169,0.738c0.075,0.225,0.194,0.423,0.345,0.606c0.157,0.192,0.164,0.422,0.299,0.625
			c0.082,0.123,0.201,0.255,0.331,0.329c0.126,0.072,0.226,0.048,0.364,0.062c0.307,0.029,0.543,0.142,0.811,0.292
			c0.22,0.124,0.377,0.134,0.629,0.133c0.261,0,0.431,0.027,0.676,0.117c0.256,0.094,0.472,0.207,0.707,0.346
			c0.168,0.099,0.367,0.168,0.567,0.152c0.233-0.019,0.363-0.189,0.545-0.31c0.214-0.142,0.446-0.263,0.695-0.327
			c0.22-0.057,0.439-0.053,0.664-0.063c0.269-0.011,0.447,0.098,0.693,0.187c0.202,0.072,0.242,0.144,0.288,0.355
			c0.06,0.274,0.246,0.484,0.43,0.695c0.144,0.166,0.424,0.35,0.507,0.558c0.038,0.095,0.005,0.19,0.054,0.282
			c0.102,0.191,0.493,0.293,0.693,0.25c0.145-0.031,0.255-0.15,0.389-0.205c0.167-0.069,0.322-0.08,0.496-0.009
			c0.253,0.101,0.561,0.136,0.824,0.194c0.284,0.062,0.396,0.199,0.597,0.401c0.242,0.242,0.494,0.454,0.691,0.743
			c0.121,0.178,0.197,0.492,0.392,0.607c0.102,0.06,0.234,0.049,0.346,0.073c0.176,0.038,0.347,0.113,0.518,0.168
			c0.271,0.088,0.512,0.146,0.746,0.309c0.142,0.099,0.297,0.193,0.364,0.361c0.037,0.093,0.035,0.203,0.071,0.299
			c0.058,0.155,0.149,0.3,0.216,0.451c0.073,0.164,0.124,0.428,0.228,0.571c0.189,0.257,0.589,0.082,0.826,0.299
			c0.364,0.334,0.676,0.724,0.907,1.155c0.142,0.265,0.351,0.455,0.636,0.552c0.428,0.147,0.924,0.085,1.239,0.472
			c0.183,0.225,0.332,0.428,0.612,0.536c0.17,0.066,0.35,0.099,0.516,0.176c0.195,0.09,0.408,0.173,0.573,0.311
			c0.245,0.204,0.503,0.405,0.813,0.503c0.259,0.082,0.458,0.054,0.702,0.204c0.06,0.036,0.161,0.09,0.209,0.141
			c0.073,0.077,0.062,0.171,0.126,0.264c-0.265,0.27-0.634,0.408-0.948,0.597c0.311-0.011,0.58-0.18,0.875-0.233
			c0.193-0.035,0.369-0.033,0.565-0.052c0.299-0.028,0.591-0.129,0.888-0.165c0.474-0.058,1.018-0.017,1.477,0.111
			c0.31,0.086,0.624,0.156,0.934,0.244c0.208,0.059,0.378,0.192,0.58,0.245c0.234,0.061,0.511,0.138,0.651,0.346
			c0.175,0.26,0.104,0.525,0.15,0.811c0.028,0.177,0.145,0.33,0.277,0.451c0.15,0.138,0.358,0.2,0.499,0.337
			c0.16,0.154,0.288,0.472,0.309,0.693c0.031,0.333-0.205,0.502-0.384,0.755c-0.185,0.263-0.257,0.451-0.167,0.771
			c0.107,0.377,0.454,0.697,0.755,0.94c0.194,0.157,0.431,0.256,0.616,0.419c0.215,0.189,0.239,0.43,0.248,0.703
			c0.004,0.106-0.017,0.147,0.044,0.228c0.074,0.097,0.352,0.22,0.454,0.286c0.236,0.152,0.513,0.292,0.653,0.553
			c0.133,0.249,0.348,0.467,0.508,0.693c0.141,0.198,0.342,0.339,0.492,0.532c0.196,0.253,0.247,0.487,0.373,0.77
			c0.099,0.221,0.231,0.428,0.392,0.61c0.374,0.422,0.684,0.925,0.82,1.484c0.047,0.194,0.054,0.393,0.094,0.587
			c0.037,0.175,0.18,0.418,0.144,0.602c-0.041,0.211-0.323,0.458-0.473,0.61c-0.21,0.212-0.383,0.45-0.586,0.661
			c-0.197,0.204-0.339,0.372-0.467,0.626c-0.105,0.209-0.186,0.429-0.349,0.598c-0.164,0.171-0.52,0.348-0.601,0.57
			c-0.086,0.237,0.086,0.591,0.187,0.803c0.175,0.367,0.028,0.809-0.067,1.196c-0.063,0.258,0.014,0.284,0.195,0.446
			c0.229,0.204,0.357,0.423,0.356,0.726c-0.001,0.224-0.046,0.434,0.105,0.605c0.178,0.2,0.486,0.305,0.712,0.442
			c0.202,0.123,0.444,0.113,0.659,0.184c0.216,0.071,0.502,0.389,0.633,0.564c0.233,0.311,0.093,0.754,0.093,1.102
			c0,0.503,0.74,0.772,1.109,0.951c0.202,0.098,0.355,0.228,0.536,0.355c0.308,0.217,0.617,0.381,0.885,0.652
			c0.192,0.194,0.316,0.409,0.472,0.628c0.183,0.256,0.444,0.375,0.696,0.544c0.136,0.091,0.269,0.195,0.403,0.29
			c0.232,0.164,0.378,0.397,0.63,0.538c0.56,0.314,1.265-0.004,1.749-0.328c0.281-0.188,0.463-0.33,0.813-0.317
			c0.384,0.015,0.763,0.126,1.149,0.147c0.806,0.042,1.31,0.676,2.039,0.905c0.33,0.104,0.566,0.275,0.925,0.284
			c0.399,0.009,0.818-0.012,1.206,0.083c0.587,0.144,1.09,0.447,1.695,0.542c0.562,0.088,1.13,0.127,1.659,0.344
			c0.622,0.255,1.113,0.731,1.824,0.699c0.376-0.017,0.708-0.223,1.081-0.271c0.223-0.029,0.508-0.064,0.734-0.028
			c0.479,0.077,0.847,0.461,1.35,0.517c0.514,0.057,1.032,0.051,1.507,0.29c0.266,0.134,0.489,0.302,0.738,0.46
			c0.238,0.151,0.5,0.294,0.694,0.503c0.478,0.514,0.999,0.97,1.35,1.586c0.205,0.36,0.377,0.617,0.316,1.068
			c-0.043,0.322-0.8,0.867-0.026,0.816c0.166-0.011,0.337-0.088,0.507-0.069c0.205,0.023,0.352,0.167,0.5,0.303
			c0.139,0.127,0.303,0.302,0.456,0.401c0.247,0.161,0.259-0.178,0.485-0.252c0.284-0.093,0.463,0.291,0.621,0.456
			c0.298,0.313,0.419,0.279,0.805,0.277c0.27-0.001,0.479-0.121,0.742-0.118c0.127,0.001,0.223,0.004,0.328,0.072
			c0.129,0.084,0.204,0.248,0.364,0.28c0.542,0.11,0.921,0.522,1.395,0.736c0.293,0.132,0.577,0.26,0.865,0.402
			c0.25,0.123,0.441,0.277,0.727,0.327c0.136,0.024,0.263,0.018,0.394,0.068c0.176,0.066,0.326,0.189,0.497,0.261
			c0.261,0.109,0.579,0.246,0.86,0.275c0.358,0.037,0.651,0.12,0.961,0.325c0.333,0.22,0.677,0.509,1.029,0.69
			c0.316,0.163,0.682,0.243,1.006,0.395c0.708,0.331,1.279,0.946,1.96,1.33c0.394,0.223,0.778,0.438,1.132,0.724
			c0.32,0.258,0.555,0.601,0.851,0.886c0.145,0.14,0.3,0.241,0.454,0.364c0.138,0.11,0.242,0.263,0.38,0.377
			c0.122,0.101,0.572,0.524,0.673,0.434c0.245,0.139,0.212,0.638,0.373,0.861c0.098,0.136,0.214,0.228,0.389,0.277
			c0.21,0.059,0.409-0.02,0.607,0.096c0.304,0.178,0.558,0.502,0.931,0.536c0.309,0.028,0.564,0.047,0.818,0.257
			c0.34,0.282,0.698,0.547,1.026,0.843c0.208,0.188,0.463,0.419,0.53,0.7c0.062,0.255,0.005,0.573,0.233,0.747
			c0.144,0.11,0.339,0.171,0.502,0.263c0.196,0.111,0.367,0.237,0.572,0.329c0.526,0.238,0.958,0.678,1.374,1.065
			c0.388,0.361,0.714,0.767,1.094,1.134c0.401,0.387,0.835,0.687,1.198,1.115c0.004-0.036,0.007-0.078,0.001-0.114
			c0.374,0.684,1.088,1.148,1.53,1.745c0.149,0.201,0.353,0.353,0.506,0.548c0.243,0.31,0.719,0.546,0.731,0.991
			c-0.297-0.153-0.508-0.466-0.776-0.657c-0.186,0.209-0.069,0.59-0.038,0.832c0.043,0.339,0.093,0.586,0.233,0.898
			c0.135,0.301,0.146,0.655,0.22,0.976c0.065,0.278,0.065,0.579-0.015,0.857c-0.065,0.227-0.228,0.406-0.238,0.643
			c-0.012,0.288,0.197,0.488,0.443,0.597c0.255,0.112,0.551,0.179,0.507,0.56c-0.023,0.196-0.247,0.323-0.202,0.538
			c0.056,0.273,0.373,0.108,0.425,0.336c0.063,0.276-0.364,0.539-0.272,0.799c0.039,0.11,0.245,0.165,0.338,0.225
			c0.138,0.089,0.275,0.171,0.414,0.257c0.328,0.201,0.527,0.583,0.881,0.74c0.138,0.061,0.303,0.109,0.42,0.214
			c0.169,0.151,0.574,0.277,0.809,0.231c0.141-0.028,0.257-0.185,0.393-0.241c0.143-0.059,0.298-0.107,0.446-0.142
			c0.272-0.065,0.5-0.12,0.474,0.254c-0.014,0.199-0.198,0.672-0.403,0.752c-0.101,0.04-0.28-0.108-0.391-0.15
			c-0.228-0.085-0.403-0.034-0.642-0.023c-0.343,0.017-0.647-0.085-0.992-0.088c-0.219-0.002-0.923-0.119-0.86,0.238
			c0.06,0.34,0.229,0.684,0.46,0.935c0.153,0.165,0.324,0.311,0.466,0.483c0.108,0.132,0.137,0.268,0.362,0.192
			c0.182-0.061,0.216-0.3,0.375-0.381c0.134-0.067,0.337-0.003,0.451,0.073c0.301,0.199,0.25,0.452-0.083,0.547
			c0.114,0.174,0.582,0.459,0.453,0.741c-0.07,0.152-0.634,0.125-0.761,0.048c-0.153-0.093-0.208-0.297-0.39-0.351
			c-0.163-0.049-0.475-0.031-0.599,0.084c-0.118,0.11-0.098,0.278-0.221,0.395c-0.148,0.142-0.35,0.234-0.513,0.354
			c-0.752,0.554-1.809,0.849-2.169,1.808c-0.078,0.207-0.045,0.404,0.067,0.59c0.059,0.097,0.191,0.296,0.299,0.339
			c0.078,0.118,0.18,0.134,0.309,0.107c0.128-0.026,0.221-0.116,0.328-0.187c0.262-0.172,0.449-0.405,0.664-0.631
			c0.098-0.103,0.19-0.254,0.311-0.331c0.114-0.073,0.27-0.067,0.398-0.056c0.184,0.016,0.34-0.06,0.519-0.084
			c0.11-0.014,0.224-0.017,0.335-0.017c0.157,0.001,0.293,0.053,0.438,0.112c0.162,0.065,0.266,0.156,0.398,0.259
			c0.028,0.022,0.055,0.023,0.049,0.068c-0.009,0.065-0.128,0.115-0.175,0.139c-0.152,0.078-0.321,0.1-0.485,0.144
			c-0.333,0.09-0.676,0.134-1.019,0.177c-0.069,0.008-0.131,0.013-0.198-0.005c-0.086-0.023-0.156-0.057-0.248-0.06
			c-0.205-0.006-0.344,0.165-0.494,0.279c-0.207,0.159-0.483,0.195-0.664,0.394c-0.138,0.152-0.265,0.314-0.401,0.468
			c-0.112,0.127-0.226,0.214-0.285,0.382c-0.019,0.055-0.05,0.114-0.044,0.173c0.014,0.142-0.04,0.205-0.011,0.348
			c0.032,0.158,0.15,0.272,0.192,0.421c0.09,0.319-0.307,0.399-0.415,0.656c-0.141,0.336-0.002,0.641,0.014,0.977
			c0.014,0.308-0.07,0.524-0.287,0.745c-0.203,0.207-0.422,0.322-0.719,0.331c-0.237,0.007-0.418-0.149-0.66-0.109
			c-0.466,0.076-0.714,0.541-1.114,0.744c-0.542,0.275-0.922,0.665-1.032,1.292c-0.05,0.285-0.162,0.548-0.348,0.769
			c-0.096,0.115-0.217,0.205-0.258,0.354c-0.052,0.188-0.025,0.372-0.119,0.557c-0.089,0.177-0.228,0.317-0.302,0.506
			c-0.085,0.218-0.101,0.452-0.103,0.684c-0.002,0.305,0.04,0.706,0.169,0.988c0.178,0.391,0.551,0.532,0.949,0.553
			c0.157,0.008,0.354-0.031,0.495,0.055c0.099,0.059,0.166,0.181,0.242,0.266c0.748,0.827,1.483,1.538,2.278,2.279
			c0.247,0.231,0.422,0.518,0.654,0.76c0.31,0.323,0.72,0.539,1.051,0.842c0.345,0.316,0.604,0.72,0.955,1.028
			c0.28,0.245,0.676,0.404,0.87,0.735c0.137,0.234,0.252,0.505,0.35,0.756c0.166,0.424,0.348,0.611,0.78,0.779
			c0.191,0.074,0.353,0.133,0.56,0.132c0.074-0.001,0.161-0.013,0.234,0.003c0.157,0.037,0.308,0.18,0.463,0.239
			c0.192,0.073,0.403,0.131,0.6,0.191c0.156,0.047,0.314,0.076,0.48,0.084c0.279,0.014,0.446-0.106,0.705-0.148
			c0.13-0.021,0.246,0.007,0.373-0.035c0.116-0.038,0.226-0.116,0.337-0.167c0.25-0.115,0.464-0.242,0.742-0.268
			c0.471-0.044,0.95,0.209,1.408,0.319C143.399,168.154,143.79,168.396,144.197,168.561z"/>
		<path fill="#1E8346" d="M63.02,92.441c0.115-0.004,0.239,0.017,0.355,0.026c0.063,0.005,0.114,0.014,0.144,0.082
			c0.023,0.053,0.013,0.119,0.015,0.175c0.002,0.045,0.005,0.071-0.018,0.111c-0.015,0.026-0.065,0.098-0.092,0.109
			c-0.06,0.025-0.146-0.049-0.211-0.05c-0.034-0.001-0.078,0.002-0.11-0.015c-0.029-0.015-0.053-0.054-0.077-0.077
			c-0.062-0.062-0.19-0.168-0.168-0.268C62.871,92.475,62.93,92.418,63.02,92.441z"/>
		<path fill="#1E8346" d="M62.793,82.069c0.033,0.078,0.075,0.16,0.108,0.234c0.012,0.026,0.041,0.051,0.05,0.076
			c0.016,0.046,0.004,0.108,0.004,0.157c0,0.07-0.013,0.151,0.015,0.215c0.018,0.044,0.057,0.08,0.075,0.127
			c0.019,0.049,0.028,0.101,0.043,0.151c0.04,0.137-0.01,0.309-0.107,0.417c-0.076,0.085-0.274,0.067-0.382,0.05
			c-0.058-0.009-0.097-0.032-0.158-0.025c-0.084,0.01-0.157,0.038-0.247,0.026c-0.14-0.019-0.26-0.131-0.355-0.228
			c-0.159-0.159-0.163-0.304,0.005-0.458c0.078-0.071,0.151-0.107,0.258-0.11c0.1-0.003,0.173-0.003,0.251-0.076
			c0.061-0.057,0.127-0.152,0.157-0.23c0.024-0.063,0.012-0.151,0.058-0.202C62.621,82.133,62.717,82.145,62.793,82.069z"/>
		<path fill="#1E8346" d="M57.461,79.935c0.18,0.001,0.369,0.026,0.548,0.017c0.081-0.004,0.155-0.047,0.237-0.03
			c0.121,0.025,0.174,0.153,0.272,0.214c0.079,0.049,0.167,0.101,0.261,0.117c0.06,0.01,0.12-0.019,0.177-0.016
			c0.067,0.003,0.13,0.044,0.184,0.077c0.047,0.028,0.138,0.058,0.173,0.106c0.075,0.103-0.056,0.203-0.129,0.255
			c-0.112,0.08-0.256-0.006-0.384-0.006c-0.142-0.001-0.369,0.068-0.51,0c-0.08-0.039-0.135-0.125-0.211-0.17
			c-0.089-0.053-0.217-0.103-0.319-0.133c-0.067-0.02-0.116-0.036-0.186-0.041c-0.078-0.005-0.142-0.045-0.206-0.091
			c-0.079-0.057-0.152-0.136-0.221-0.206c-0.028-0.028-0.106-0.072-0.107-0.116C57.18,79.932,57.315,79.935,57.461,79.935z"/>
		<path fill="#1E8346" d="M53.343,79.841c0.097,0.118,0.238,0.182,0.384,0.223c0.06,0.018,0.12,0.004,0.173,0.032
			c0.052,0.028,0.081,0.088,0.133,0.118c0.075,0.043,0.119-0.013,0.195-0.011c0.065,0.002,0.126,0.039,0.173,0.081
			c0.055,0.048,0.163,0.146,0.115,0.23c-0.073,0.13-0.285,0.127-0.41,0.118c-0.182-0.014-0.363-0.046-0.545-0.046
			c-0.117,0-0.213-0.005-0.28-0.105c-0.03-0.045-0.067-0.089-0.106-0.126c-0.059-0.057-0.135-0.062-0.209-0.09
			c-0.058-0.022-0.114-0.048-0.102-0.118c0.013-0.076,0.124-0.168,0.183-0.212c0.055-0.041,0.103-0.052,0.171-0.059
			C53.247,79.874,53.29,79.878,53.343,79.841z"/>
		<path fill="#1E8346" d="M46.064,72.869c0.096,0.231,0.273,0.417,0.373,0.647c0.051,0.118,0.09,0.228,0.157,0.341
			c0.081,0.137,0.198,0.234,0.293,0.361c0.179,0.24,0.339,0.598,0.627,0.728c0.133,0.06,0.289,0.052,0.428,0.076
			c0.145,0.025,0.274,0.107,0.4,0.188c0.151,0.096,0.272,0.233,0.457,0.268c0.175,0.032,0.372,0.007,0.546-0.026
			c0.163-0.031,0.25-0.102,0.386-0.186c0.14-0.087,0.316-0.057,0.469-0.122c0.304-0.129,0.53-0.385,0.844-0.507
			c0.172-0.067,0.52-0.069,0.581-0.273c0.154-0.514-0.453-0.292-0.696-0.293c-0.152-0.001-0.327-0.053-0.406-0.202
			c-0.092-0.173,0.073-0.248,0.215-0.326c-0.042-0.285-0.429-0.39-0.66-0.449c-0.187-0.048-0.368-0.128-0.554-0.173
			c-0.18-0.044-0.35-0.009-0.525-0.092c-0.197-0.093-0.344-0.242-0.551-0.315c-0.346-0.122-0.76-0.248-1.129-0.127
			c-0.149,0.049-0.327,0.126-0.466,0.202c-0.09,0.049-0.167,0.12-0.262,0.162C46.458,72.807,46.312,72.798,46.064,72.869z"/>
		<path fill="#1E8346" d="M54.795,79.202c0.119,0.069,0.188,0.135,0.323,0.17c0.096,0.025,0.193,0.051,0.288,0.079
			c0.1,0.03,0.173,0.094,0.266,0.142c0.032,0.017,0.1,0.031,0.081,0.08c-0.011,0.027-0.108,0.056-0.133,0.064
			c-0.065,0.024-0.097,0.012-0.165,0.003c-0.145-0.02-0.294-0.004-0.437-0.035c-0.134-0.029-0.266-0.151-0.368-0.241
			c-0.072-0.063-0.182-0.16-0.162-0.269c0.018-0.095,0.138-0.212,0.235-0.172C54.779,79.047,54.834,79.087,54.795,79.202z"/>
		<path fill="#1E8346" d="M120.571,152.802c-0.138,0.055-0.275,0.128-0.399,0.209c-0.101,0.068-0.219,0.107-0.308,0.195
			c-0.035,0.034-0.06,0.071-0.092,0.11c-0.038,0.048-0.068,0.068-0.046,0.122c0.051,0.122,0.284,0.194,0.395,0.229
			c0.162,0.052,0.203-0.019,0.314-0.13c0.095-0.094,0.205-0.202,0.282-0.31c0.064-0.09,0.084-0.149,0.006-0.232
			C120.663,152.93,120.58,152.873,120.571,152.802z"/>
	</g>
</g>
</svg>
