<?xml version="1.0" encoding="utf-8"?>
<!-- Generator: Adobe Illustrator 26.0.3, SVG Export Plug-In . SVG Version: 6.00 Build 0)  -->
<svg version="1.1" id="Isolation_Mode" xmlns="http://www.w3.org/2000/svg" xmlns:xlink="http://www.w3.org/1999/xlink" x="0px"
	 y="0px" viewBox="0 0 200 200" enable-background="new 0 0 200 200" xml:space="preserve">
<path fill="#1E8346" d="M60.282,5.922c0.245-0.068,0.435-0.295,0.687-0.37c0.321-0.096,0.648-0.04,0.971-0.134
	c0.629-0.183,1.414-0.3,2.103-0.252c0.742,0.051,1.355,0.488,2.082,0.569c0.604,0.067,1.547,0.13,2.138-0.026
	c0.357-0.095,0.681-0.287,1.048-0.361c0.317-0.064,0.652-0.037,0.974-0.039c0.443-0.001,1.658-0.067,1.925,0.229
	c0.113,0.125,0.09,0.307,0.202,0.435c0.161,0.185,0.523,0.3,0.737,0.413c0.486,0.255,0.956,0.453,1.438,0.73
	c0.54,0.311,0.624,0.591,0.8,1.19c0.185,0.632,0.616,0.785,1.039,1.222c0.473,0.489,0.606,0.895,1.263,1.229
	c0.712,0.362,0.839,0.918,0.722,1.718c-0.044,0.298-0.27,0.618-0.175,0.932c0.096,0.315,0.459,0.474,0.67,0.688
	c0.513,0.522,0.323,1.333,1.026,1.709c0.449,0.24,0.625,0.219,0.829,0.78c0.103,0.284,0.145,0.604,0.249,0.883
	c0.224,0.603,0.574,1.299,1.083,1.706c0.233,0.187,0.524,0.497,0.796,0.614c0.138,0.059,0.401-0.019,0.509,0.046
	c0.19,0.114,0.154,0.311,0.238,0.519c0.132,0.324,0.298,0.56,0.397,0.903c0.075,0.262,0.168,0.462,0.298,0.703
	c0.335,0.623,0.571,1.184,1.229,1.516c0.139,0.07,0.189,0.031,0.302,0.158c0.142,0.159,0.097,0.424,0.216,0.586
	c0.245,0.334,0.641,0.309,0.989,0.44c0.322,0.122,0.62,0.413,0.932,0.022c0.194-0.243,0.233-0.649,0.44-0.921
	c0.225,0.22,0.115,0.48,0.218,0.726c0.101,0.244,0.24,0.299,0.496,0.406c0.593,0.249,0.667-0.095,0.769-0.619
	c0.428,0.009,0.404,0.446,0.676,0.648c0.399,0.294,0.88-0.004,1.184-0.283c0.131,0.084,0.161,0.243,0.24,0.377
	c0.247-0.075,0.506-0.055,0.661-0.274c0.191-0.27,0.132-0.61,0.408-0.906c0.348-0.371,0.736-0.5,1.212-0.424
	c0.431,0.069,0.793,0.261,1.218,0.098c0.589-0.224,1.027-0.878,1.54-1.227c0.206,0.173,0.165,0.348,0.235,0.573
	c0.108,0.345,0,0.277,0.366,0.463c0.211,0.107,0.468,0.306,0.695,0.377c0.159,0.049,0.328,0.011,0.479,0.076
	c0.564,0.243,0.986,0.964,1.324,1.441c0.045,0.063,0.101,0.046,0.162,0.09c0.17,0.122,0.188-0.006,0.368-0.038
	c0.182-0.033,0.429,0.082,0.637,0.075c0.469-0.016,0.939-0.137,1.405-0.198c0.864-0.114,1.693-0.182,2.4-0.74
	c0.179-0.141,0.444-0.753,0.712-0.674c0.234,0.069,0.185,0.491,0.295,0.652c0.083,0.12,0.292,0.393,0.424,0.449
	c0.183,0.077,0.247-0.058,0.373-0.153c0.37-0.28,0.729-0.019,1.132-0.056c0.285-0.027,0.099-0.214,0.276-0.376
	c0.156-0.142,0.35-0.026,0.455,0.14c0.085,0.134,0.058,0.264,0.195,0.358c0.194,0.133,0.402,0.063,0.595-0.022
	c0.133,0.24,0.059,0.556,0.035,0.816c-0.021,0.228-0.018,0.455-0.018,0.685c-0.001,0.222-0.021,0.36,0.172,0.449
	c0.235,0.109,0.52,0.113,0.762,0.219c0.152,0.067,0.358,0.137,0.494,0.218c0.194,0.115,0.096,0.363,0.232,0.53
	c0.313,0.384,1.077-0.013,1.472,0.116c0.101,0.398,0.154,0.54,0.577,0.684c0.388,0.132,0.838,0.15,1.246,0.167
	c0.21,0.009,0.423-0.023,0.63-0.054c0.243-0.037,0.489-0.017,0.687-0.132c0.118-0.068,0.325-0.247,0.37-0.381
	c0.04-0.119-0.019-0.249,0.019-0.37c0.108-0.338,0.449-0.385,0.721-0.242c0.268,0.141,0.322,0.319,0.51,0.534
	c0.196,0.225,0.405,0.142,0.639,0.044c0.357-0.15,0.495-0.077,0.706,0.233c0.175,0.26,0.191,0.651,0.554,0.658
	c0.267,0.005,0.263-0.229,0.541-0.253c0.231-0.02,0.431,0.116,0.652,0.149c0.314,0.046,0.699,0.044,0.994,0.158
	c0.316,0.122,0.464,0.328,0.606,0.625c0.078,0.163,0.123,0.337,0.197,0.5c0.054,0.119,0.172,0.219,0.166,0.361
	c-0.017,0.365-0.488,0.291-0.666,0.492c-0.169,0.192-0.165,0.681-0.147,0.932c0.01,0.133,0.064,0.293,0.015,0.421
	c-0.046,0.121-0.175,0.208-0.255,0.306c0.068,0.17,0.2,0.347,0.291,0.507c0.103,0.179-0.01,0.312,0,0.516
	c0.011,0.222-0.091,0.305-0.181,0.484c-0.104,0.207-0.006,0.294,0.187,0.405c0.253,0.146,0.316,0.289,0.451,0.543
	c0.121,0.228,0.337,0.344,0.487,0.548c0.104,0.141,0.188,0.311,0.232,0.478c0.022,0.083,0.018,0.179,0.059,0.255
	c0.115,0.214,0.36,0.189,0.574,0.215c0.213,0.025,0.384,0.074,0.564,0.192c0.168,0.11,0.362,0.286,0.409,0.483
	c0.063,0.265-0.02,0.553-0.023,0.821c-0.003,0.402-0.02,0.787,0.104,1.169c0.074,0.229,0.118,0.484,0.279,0.672
	c0.135,0.158,0.293,0.284,0.375,0.486c0.213,0.525,0.295,1.14,0.457,1.693c0.164,0.56,0.449,1.087,0.677,1.623
	c0.074,0.173,0.124,0.186,0.27,0.289c0.213,0.15,0.275,0.306,0.436,0.522c0.446,0.6,0.844,1.105,1.488,1.522
	c0.214,0.139,0.521,0.226,0.67,0.441c0.143,0.207,0.101,0.434,0.197,0.659c0.175,0.413,0.673,0.732,1.093,0.824
	c0.356,0.078,0.511-0.066,0.832-0.138c0.718-0.161,1.259,0.108,1.903,0.317c0.241,0.078,0.538,0.214,0.806,0.144
	c0.233-0.062,0.203-0.281,0.551-0.109c0.13,0.064,0.223,0.238,0.333,0.326c0.17,0.136,0.376,0.167,0.546,0.277
	c0.477,0.309,0.449,0.796,0.466,1.307c0.018,0.524,0.162,1.025,0.18,1.552c0.009,0.286,0.16,0.7,0.041,0.983
	c-0.214,0.51-0.809,0.884-1.049,1.406c-0.212,0.463-0.328,1.004-0.498,1.484c-0.151,0.424-0.308,0.873-0.298,1.327
	c0.015,0.689,0.739,1.053,1.293,1.312c0.744,0.347,0.998,0.224,1.683-0.219c0.278-0.18,0.656-0.487,1.012-0.416
	c0.399,0.08,0.685,0.556,1.08,0.687c0.628,0.208,0.927-0.396,1.427-0.389c0.008,0.372,0.35,0.255,0.6,0.324
	c0.267,0.073,0.286,0.086,0.413,0.344c0.267,0.541,0.03,1.355,0.03,1.955c0,0.546-0.187,0.971-0.162,1.517
	c0.012,0.255,0.176,0.732,0.118,0.96c-0.125,0.489-0.845,0.484-1,0.876c-0.149,0.377,0.22,0.969,0.465,1.211
	c0.226,0.224,0.624,0.465,0.942,0.521c0.222,0.04,0.463-0.075,0.646,0.069c0.232,0.182,0.33,0.601,0.596,0.808
	c0.186,0.144,0.57,0.155,0.634,0.318c0.091,0.236-0.179,0.338-0.265,0.502c-0.096,0.181-0.093,0.342-0.099,0.539
	c-0.032,0.949,0.866,1.275,1.288,1.984c0.19,0.32,0.356,0.657,0.335,1.05c-0.015,0.28-0.06,0.288-0.207,0.46
	c-0.059,0.069-0.273,0.17-0.269,0.298c0.005,0.147,0.525,0.526,0.651,0.694c0.163,0.218,0.351,0.418,0.519,0.63
	c0.18,0.228,0.348,0.478,0.351,0.773c0.004,0.456-0.268,0.593-0.469,0.92c-0.24,0.391,0.066,0.862,0.145,1.267
	c0.07,0.36-0.031,0.608-0.037,0.925c-0.011,0.584,0.573,0.407,0.957,0.58c0.523,0.236,0.839,0.639,0.27,1.054
	c-0.118,0.351-0.198,0.658-0.177,1.046c0.045,0.838,0.278,0.962,0.951,1.368c0.084,0.051,0.43,0.247,0.413,0.37
	c-0.034,0.242-0.429,0.131-0.6,0.137c-0.324,0.013-0.769,0.043-1.021,0.253c-0.488,0.407-0.703,1.109-0.612,1.728
	c0.061,0.411,0.419,0.431,0.56,0.761c0.162,0.382-0.269,0.552-0.396,0.879c-0.123,0.318,0.134,0.883-0.024,1.143
	c-0.152,0.249-0.671,0.237-0.894,0.464c-0.218,0.222-0.389,0.533-0.32,0.865c0.08,0.387,0.472,0.504,0.076,0.885
	c-0.369,0.356-1.016,0.45-1.441,0.699c-0.859,0.505-0.655,1.276-0.803,2.1c-0.06,0.335-0.084,0.655-0.117,0.999
	c-0.051,0.53-0.243,0.791-0.521,1.24c-0.443,0.715-0.688,2.097,0.313,2.451c1.151,0.406,1.979-0.573,3.085-0.406
	c0.17,0.406-0.114,0.543-0.3,0.827c-0.149,0.227-0.177,0.122-0.112,0.391c0.047,0.196,0.321,0.408,0.405,0.595
	c0.227,0.508,0.005,0.779-0.359,1.106c-0.311,0.28-0.536,0.593-0.81,0.903c-0.031,0.203,0.066,0.195,0.142,0.355
	c0.113,0.238,0.167,0.476,0.183,0.748c0.011,0.201,0.024,0.441-0.007,0.639c-0.016,0.104-0.15,0.295-0.127,0.398
	c0.116,0.536,0.948,0.288,1.162,0.583c0.298,0.413-0.53,0.7-0.275,1.172c0.092,0.17,0.279,0.202,0.348,0.4
	c0.088,0.253-0.02,0.494-0.092,0.716c-0.133,0.403-0.049,0.622-0.067,1.048c-0.037,0.859-1.235,0.352-1.727,0.781
	c-0.16,0.14-0.277,0.266-0.261,0.485c0.01,0.145,0.186,0.193,0.136,0.344c-0.18,0.548-0.994,0.117-0.928,0.957
	c0.029,0.367,0.195,0.61,0.574,0.75c0.541,0.201,0.655-0.249,1.085-0.258c0.262-0.006,0.513,0.305,0.789,0.367
	c0.436,0.098,0.72-0.073,1.113-0.221c0.574-0.216,1.432-0.245,1.778,0.397c0.284,0.528-0.253,0.572-0.433,0.935
	c-0.193,0.391,0.274,1.088,0.44,1.454c0.104,0.229,0.589,0.688,0.274,0.935c-0.22,0.173-0.437,0.003-0.674,0.294
	c-0.191,0.235-0.209,0.49-0.256,0.781c-0.349,0.068-0.669-0.347-0.866-0.593c-0.154,0.107-0.309,0.237-0.439,0.372
	c-0.055,0.057-0.085,0.241-0.125,0.265c-0.356,0.209-0.786-0.082-1.134-0.125c-0.633-0.079-1.012,0.636-1.041,1.205
	c-0.02,0.374,0.294,0.858,0.366,1.252c0.08,0.43-0.007,0.754-0.032,1.18c-0.034,0.581,0.504,0.905,1.065,0.983
	c0.22,0.031,0.41-0.059,0.624,0.005c0.214,0.063,0.413,0.249,0.58,0.39c0.294,0.249,0.459,0.481,0.423,0.908
	c-0.035,0.414-0.313,0.508-0.687,0.647c-0.664-0.169-1.038,0.411-1.577,0.757c-0.516,0.331-1.057,0.772-1.127,1.419
	c-0.071,0.655,0.054,1.31,0.111,1.955c0.028,0.304,0.069,0.591,0.105,0.89c0.048,0.4,0.219,0.773,0.254,1.179
	c0.042,0.501-0.125,1.166,0.159,1.565c0.335,0.47,0.6,0.628,0.597,1.272c-0.003,0.615-0.009,1.041,0.158,1.61
	c0.155,0.529,0.009,0.886-0.05,1.402c-0.075,0.648,0.01,1.043,0.503,1.46c0.535,0.452,0.456,1.129,0.867,1.633
	c0.426,0.524-0.077,1.179,0.28,1.714c0.262,0.394,0.422,0.677,0.605,1.101c0.161,0.373,0.514,0.592,0.734,0.913
	c0.304,0.443,0.163,1.087,0.401,1.592c0.267,0.567,0.185,0.966-0.187,1.532c-0.321,0.487-0.636,0.839-0.723,1.431
	c-0.103,0.702-0.021,1.405-0.17,2.101c-0.151,0.701-0.347,1.394-0.507,2.092c-0.348,0.309-0.303,0.904-0.359,1.315
	c-0.081,0.601-0.205,1.122-0.183,1.738c0.015,0.433,0.373,0.676,0.396,1.02c0.039,0.612-0.8,0.401-0.901,1.002
	c-0.1,0.593,0.036,1.137-0.16,1.745c-0.026,0.083-0.187,0.098-0.172,0.207c0.028,0.218,0.353,0.308,0.51,0.366
	c0.392,0.144,0.8,0.188,0.632,0.725c-0.06,0.192-0.229,0.354-0.306,0.544c-0.095,0.235-0.072,0.439-0.115,0.678
	c-0.031,0.171-0.18,0.371-0.059,0.544c0.181,0.259,1.413,0.062,1.048,0.764c-0.115,0.22-0.624,0.27-0.645,0.567
	c-0.013,0.186,0.236,0.301,0.384,0.41c-0.143,0.495-0.729,0.319-1.101,0.409c-0.478,0.116-0.915,0.423-1.228,0.756
	c-0.392,0.419-1.688,0.304-1.403,1.147c0.075,0.22,0.437,0.549,0.425,0.795c-0.012,0.242-0.297,0.322-0.41,0.5
	c-0.099,0.154-0.095,0.268-0.104,0.453c-0.039,0.763,0.076,1.383-0.345,2.055c-0.228,0.363-0.561,0.6-0.667,1.031
	c-0.084,0.342-0.215,0.619-0.323,0.952c-0.196,0.604,0.214,1.387,0.072,2.021c-0.066,0.295-0.225,0.507-0.254,0.827
	c-0.026,0.285-0.082,0.71-0.063,0.988c0.025,0.345,0.227,0.635,0.208,1.003c-0.015,0.293-0.107,0.606-0.214,0.881
	c-0.119,0.306-0.309,0.593-0.455,0.875c-0.172,0.335-0.038,0.864-0.276,1.135c-0.358,0.406-1.283,0.25-1.753,0.543
	c-0.899,0.56-1.338,1.629-2.261,2.126c-0.462,0.249-0.963,0.415-1.428,0.669c-0.392,0.215-0.699,0.408-1.166,0.432
	c-0.399,0.02-0.931,0.089-1.318,0.018c-0.411-0.075-0.744-0.371-1.169-0.415c-0.43-0.044-1.104-0.045-1.518,0.092
	c-0.593,0.195-1.219,0.718-1.777,1.013c-0.366,0.193-0.739,0.401-1.149,0.156c-0.495-0.296-0.542-0.902-0.819-1.35
	c-0.399-0.646-1.212-0.453-1.895-0.453c-0.814,0-1.626-0.009-2.439-0.037c-0.819-0.028-1.299,0.34-1.974,0.788
	c-0.743,0.493-1.728,1.459-1.79,2.386c-0.061,0.911,0.228,1.979-0.253,2.814c-0.248,0.43-0.523,0.811-0.746,1.266
	c-0.086,0.176-0.147,0.446-0.262,0.596c-0.262,0.341-0.728,0.275-1.093,0.397c-1.055,0.351-2.099,0.818-3.109,1.284
	c-1.054,0.486-2.316,1.314-2.507,2.545c-0.071,0.464,0.199,0.723,0.444,1.047c0.21,0.278,0.215,0.593,0.28,0.903
	c0.027,0.133-0.072,0.126-0.063,0.261c-0.618,0.055-1.021,0.319-1.593,0.542c-0.317,0.124-0.647,0.133-0.977,0.178
	c-0.066,0.009-0.142,0.05-0.202,0.056c-0.332,0.033-0.285-0.056-0.516-0.165c-0.314-0.148-0.543-0.17-0.936-0.151
	c-0.205,0.01-0.74-0.028-0.899,0.078c-0.354,0.238,0.015,0.82-0.48,1.041c-0.545,0.243-1.211-0.345-1.747-0.321
	c-0.633,0.029-1.215,0.295-1.857,0.321c-1.151,0.044-2.436,0.313-3.567,0.069c-0.57-0.124-1.353-0.173-1.852-0.478
	c-0.31-0.189-0.47-0.549-0.719-0.8c-0.171-0.172-0.432-0.305-0.532-0.538c0.107-0.233,0.324-0.328,0.499-0.496
	c0.188-0.18,0.31-0.396,0.457-0.609c0.176-0.256,0.394-0.503,0.532-0.783c0.136-0.275,0.145-0.584,0.249-0.87
	c0.179-0.496,0.48-0.838,0.552-1.381c0.075-0.574,0.179-1.132,0.334-1.689c0.175-0.629,0.256-1.349,0.308-1.994
	c0.076-0.957-0.958-1.165-1.671-1.428c-0.605-0.223-1.127-0.578-1.602-1.023c-0.273-0.256-0.579-0.539-0.825-0.823
	c-0.381-0.441-0.449-0.977-0.609-1.522c-0.356-1.203-0.849-2.337-1.034-3.584c-0.052-0.348,0.003-0.697-0.082-1.041
	c-0.114-0.464-0.409-0.723-0.692-1.088c-0.324-0.416-0.384-0.765-0.483-1.267c-0.098-0.499-0.056-1.082-0.08-1.586
	c-0.033-0.692,0.092-1.313,0.116-1.997c0.025-0.698,0.056-1.337,0.408-1.935c0.354-0.6,0.288-1.161,0.422-1.814
	c0.229-1.12,0.012-2.273,0-3.415c-0.01-0.913-0.135-1.831-0.512-2.673c-0.217-0.484-0.51-0.877-0.973-1.156
	c-0.611-0.369-1.185-0.807-1.797-1.181c-0.282-0.172-0.693-0.231-0.944-0.432c-0.352-0.28-0.587-0.773-0.929-1.076
	c-0.313-0.278-0.83-0.386-1.075-0.741c-0.226-0.328-0.392-0.905-0.434-1.305c-0.072-0.693-0.168-1.673,0.075-2.324
	c0.431-1.154,1.522-1.955,0.877-3.281c-0.264-0.544-0.777-0.851-1.226-1.241c-0.564-0.489-0.763-1.018-1.055-1.681
	c-0.395-0.895-0.722-1.804-0.877-2.774c-0.053-0.331,0.102-0.757,0.186-1.083c0.075-0.29,0.079-0.623,0.178-0.919
	c0.186-0.557,0.613-1.007,0.962-1.46c0.479-0.622,0.455-1.154,0.277-1.933c-0.117-0.515-0.248-0.941-0.44-1.43
	c-0.376-0.959-0.488-1.971-0.117-2.961c0.182-0.485,0.204-0.983,0.181-1.514c-0.03-0.7-0.224-0.713-0.706-1.132
	c-0.303-0.263-0.379-0.66-0.582-0.999c-0.242-0.404-0.627-0.8-1.019-1.064c-0.282-0.19-0.37-0.648-0.571-0.924
	c-0.41-0.565-0.775-1.145-1.195-1.712c-0.46-0.62-0.964-0.961-1.225-1.749c-0.257-0.777-0.415-1.576-0.703-2.336
	c-0.336-0.89-0.883-1.442-1.572-2.104c-0.338-0.325-0.622-0.592-0.747-1.054c-0.126-0.465-0.289-0.692-0.688-0.994
	c-0.38-0.288-0.741-0.597-1.118-0.891c-0.324-0.253-0.527-0.613-0.839-0.886c-0.337-0.295-0.76-0.434-1.091-0.756
	c-0.346-0.337-0.491-0.779-0.738-1.191c-0.488-0.813-1.216-1.483-1.727-2.277c-0.21-0.326-0.409-0.857-0.284-1.254
	c0.114-0.361,0.531-0.654,0.727-0.982c0.442-0.738-0.098-1.093-0.127-1.873c-0.022-0.603-0.312-0.952-0.288-1.559
	c0.03-0.76,0.38-1.501-0.088-2.2c-0.385-0.575-0.607-1.078-1.241-1.442c-0.738-0.424-1.35-1.1-1.874-1.78
	c-0.404-0.524-0.324-0.99-0.294-1.619c0.02-0.414,0.094-0.791,0.018-1.203c-0.105-0.571-0.395-0.771-0.804-1.148
	c-1.328-1.225-2.969-2.129-4.187-3.496c-0.225-0.253-0.569-0.597-0.683-0.909c-0.18-0.493,0.083-1,0.331-1.421
	c0.432-0.735,1.002-1.374,1.071-2.261c-0.17-0.327-0.675-0.601-0.876-0.907c-0.211-0.32-0.348-0.669-0.579-0.98
	c-0.643-0.864-1.373-1.586-2.143-2.35c-0.328-0.325-0.472-0.747-0.732-1.122c-0.123-0.177-0.245-0.318-0.33-0.519
	c-0.186-0.435-0.131-0.926-0.244-1.391c-0.106-0.438-0.289-0.703-0.288-1.164c0.001-0.463,0.015-0.877-0.086-1.324
	c-0.216-0.957-0.685-1.687-1.148-2.547c-0.377-0.699-1.051-1.149-1.291-1.922c-0.17-0.55-0.443-1.078-0.47-1.661
	c-0.026-0.569-0.017-1.035-0.267-1.548c-0.389-0.8-1.081-1.46-1.373-2.306c-0.245-0.711,0.03-1.613,0.35-2.256
	c0.29-0.583,1.178-1.6,0.678-2.305c-0.623-0.879-1.046-2.366-1.299-3.383c-0.222-0.894-0.255-1.799-0.523-2.683
	c-0.298-0.981-1.155-1.807-1.289-2.842c-0.064-0.497-0.034-0.838-0.4-1.221c-0.396-0.415-0.67-0.813-0.968-1.297
	c-0.311-0.504-0.585-1.006-0.569-1.623c0.012-0.435,0.319-1.189,0.685-1.481c0.409-0.326,0.846-0.855,1.178-1.259
	c0.185-0.224,0.399-0.39,0.622-0.56c0.586-0.448,0.953-0.611,1.673-0.824c0.62-0.184,1.284-0.369,1.803-0.773
	c0.632-0.492,1.09-1.291,1.516-1.954c0.24-0.374,0.456-0.755,0.601-1.18c0.195-0.576,0.005-1.037-0.001-1.625
	c-0.008-0.892,0.689-1.518,0.722-2.38c0.035-0.918,0.733-1.652,0.83-2.537c0.044-0.4,0.105-0.857,0.072-1.258
	c-0.039-0.483-0.344-0.924-0.577-1.345c-0.686-1.24-1.938-2.234-3.206-2.818c-0.479-0.221-1.003-0.444-1.52-0.161
	c-0.277,0.151-0.406,0.521-0.681,0.663c-0.172,0.088-0.488,0.127-0.688,0.15c-0.498,0.055-2.08,0.512-2.306-0.058
	c-0.125-0.317-0.051-0.953-0.034-1.281c0.015-0.305-0.125-0.81-0.041-1.084c0.284-0.929,1.832-0.455,2.527-0.555
	c0.445-0.063,0.848-0.315,1.291-0.426c0.464-0.117,0.938-0.226,1.401-0.333c0.898-0.208,0.964-0.984,1.196-1.758
	c0.29-0.97,0.103-1.83,0.149-2.83c0.024-0.55,0.094-0.934-0.218-1.415c-0.315-0.484-0.767-1.023-0.902-1.594
	c-0.112-0.473-0.055-1.051-0.102-1.537c-0.057-0.588-0.008-1.159-0.002-1.744c0.013-1.354-0.568-2.623-0.107-3.934
	c0.245-0.695,0.457-1.38,0.606-2.103c0.203-0.978,0.903-1.722,1.547-2.435c0.36-0.397,0.744-0.903,1.177-1.215
	c0.294-0.211,0.533-0.153,0.913-0.191C59.082,5.726,59.703,5.771,60.282,5.922z"/>
</svg>
