<?xml version="1.0" encoding="utf-8"?>
<!-- Generator: Adobe Illustrator 26.0.3, SVG Export Plug-In . SVG Version: 6.00 Build 0)  -->
<svg version="1.1" xmlns="http://www.w3.org/2000/svg" xmlns:xlink="http://www.w3.org/1999/xlink" x="0px" y="0px"
	 viewBox="0 0 200 200" enable-background="new 0 0 200 200" xml:space="preserve">
<g id="Layer_1">
	<g id="Layer_1_00000061442898653323928190000005571608892069918396_">
		<g id="Layer_1_00000098929087308412571940000004538787532203942811_">
		</g>
	</g>
</g>
<g id="Isolation_Mode">
	<g>
		<path fill="#1E8346" d="M189.339,86.586c0.097-0.373,0.532-0.267,0.798-0.404c-0.076-0.329-0.439-0.382-0.539-0.686
			c-0.136-0.412,0.19-0.523,0.353-0.746c0.406-0.555-0.016-0.899-0.306-1.41c-0.278-0.491-0.805-0.636-1.325-0.711
			c-0.456-0.066-1.348,0.123-1.665-0.217c0.058-0.025,0.117-0.046,0.178-0.061c-0.22-0.32-0.795-0.161-1.129-0.337
			c-0.286-0.151-0.525-0.436-0.702-0.7c-0.19-0.284-0.294-0.554-0.567-0.782c-0.212-0.177-0.449-0.25-0.514-0.534
			c-0.082,0.17-0.182,0.34-0.283,0.501c-0.279-0.06-0.328-0.226-0.446-0.448c-0.257-0.485-0.007-0.281-0.49-0.255
			c-0.466,0.025-0.412-0.06-0.641-0.422c-0.141-0.224-0.307-0.337-0.441-0.539c0.474-0.483,0.464-0.682,0.028-1.101
			c-0.349-0.335-0.269-0.745-0.615-1.113c-0.217-0.231-1.048-0.46-0.591-0.81c0.547-0.418,1.17,0.312,1.448-0.543
			c0.103-0.318,0.006-0.372,0.339-0.626c0.259-0.196,0.545-0.314,0.844-0.432c0.312-0.122,0.684-0.142,0.98-0.272
			c0.229-0.1,0.249-0.262,0.449-0.386c0.591-0.367,1.596,1.581,1.535,0.012c-0.032-0.822-0.473-1.467-0.216-2.315
			c0.274-0.905,0.952-1.637,0.983-2.604c0.014-0.438,0.01-0.973-0.114-1.382c-0.115-0.377-0.424-0.541-0.586-0.868
			c-0.208-0.421,0.136-1.056,0.16-1.585c0.013-0.283,0.046-0.623,0-0.9c-0.084-0.519-0.122-0.241-0.402-0.305
			c-0.409-0.092-0.323-0.052-0.364-0.498c-0.027-0.298-0.013-0.597-0.143-0.863c-0.107,0.049-0.275,0.041-0.386,0.073
			c-0.032-0.338,0.044-0.603-0.366-0.715c-0.018-0.369,0.049-0.713,0.049-1.086c-0.399-0.489-1.059-0.741-1.448-1.258
			c-0.257-0.341-0.399-0.921-0.505-1.335c-0.147-0.576-0.077-1.205-0.05-1.791c0.03-0.635,0-0.765,0.509-1.122
			c0.417-0.293,0.328-0.406,0.182-0.845c-0.096-0.289-0.16-0.632-0.352-0.876c-0.167-0.211-0.435-0.318-0.623-0.5
			c-0.239-0.231-0.2-0.442-0.293-0.726c-0.072-0.219-0.283-0.371-0.331-0.598c-0.052-0.249,0.079-0.514,0.103-0.755
			c-1.136-0.532-3.06-0.359-4.267-0.644c-0.909-0.214-1.364,0.434-0.962,1.267c0.156,0.323,0.187,0.367,0.53,0.561
			c0.19,0.108,0.707,0.23,0.829,0.376c0.248,0.298-0.037,1.484-0.282,1.734c-0.506-0.922-1.521-1.219-2.593-1.001
			c-0.647,0.132-0.854,0.354-1.511-0.05c-0.326-0.2-0.711-0.617-0.669-1.044c0.328-0.142,0.683,0.117,1.023,0.135
			c0.35,0.019,0.658-0.098,0.983-0.175c0.454-0.108,0.995-0.18,1.108-0.732c0.048-0.235-0.027-1.009-0.169-1.204
			c-0.238-0.328-0.835-0.212-1.207-0.338c-0.54-0.184-1.084-0.157-1.675-0.243c-0.295-0.043-0.33-0.136-0.511-0.209
			c-0.279-0.111-0.513-0.151-0.875-0.159c-0.97-0.022-0.537,0.018-0.748,0.637c-0.123,0.362-0.554,0.545-0.906,0.65
			c-0.635,0.19-3.031,0.103-2.892,1.272c-0.482-0.126-0.716-0.617-1.271-0.664c-0.68-0.058-1.573,0.074-2.191,0.362
			c-0.65,0.303-1.632,1.026-2.289,0.457c-0.361-0.313-0.603-0.949-0.81-1.388c-0.285-0.603-0.421-0.662-0.932-1.108
			c-0.278-0.243-0.587-0.484-0.845-0.735c-0.296-0.289-0.303-0.971-0.61-1.194c-0.38-0.276-0.892-0.034-1.224,0.182
			c-0.361,0.235-0.098,0.274-0.654,0.309c-0.685,0.044-2.104,0.722-2.57-0.275c-0.269-0.576,0.193-1.225,0.392-1.724
			c0.221-0.555,0.194-0.735-0.455-0.829c-0.812-0.118-2.429-0.209-2.991,0.449c-0.115,0.134-0.137,0.321-0.265,0.457
			c-0.085,0.09-0.257,0.083-0.336,0.192c-0.141,0.193-0.138,0.355-0.115,0.606c-0.587,0-1.153,0.126-1.734,0.165
			c-0.492,0.034-0.799-0.164-1.246-0.246c-0.325-0.06-1.081-0.092-1.133,0.343c-0.034,0.284,0.266,0.431,0.23,0.727
			c-0.447,0.141,0.039,0.396,0.157,0.553c0.191,0.255,0.203,0.428,0.208,0.755c0.008,0.538,0.245,0.737,0.351,1.202
			c0.085,0.371,0.022,0.303-0.264,0.328c-0.795,0.069-1.464-0.538-1.622-1.258c-0.064-0.29,0.073-0.63,0.001-0.918
			c-0.047-0.19-0.262-0.346-0.3-0.491c-0.084-0.318,0.053-0.5,0.433-0.49c0.061-0.796-0.345-1.374-0.925-1.861
			c-0.421-0.352-0.917-0.609-1.332-0.961c-0.297-0.252-0.49-0.55-0.685-0.867c-0.111-0.18-0.078-0.347-0.303-0.442
			c-0.303,0.485-0.596,0.751-1.202,0.515c-0.618-0.24-1.48-0.798-1.827-1.364c-0.141,0.711-1.041,0.229-1.455-0.005
			c-0.331-0.188-0.572-0.362-1.003-0.194c-0.223,0.087-0.291,0.277-0.501,0.325c-0.266,0.061-0.81-0.041-1.036-0.217
			c-0.319-0.249-0.252-0.731-0.5-1.002c-0.307-0.336-1.321-0.266-1.827-0.496c-0.389-0.177-0.915-0.62-1.204-0.925
			c-0.342-0.361-0.379-0.856-0.799-1.149c-0.775-0.54-1.391-1.301-2.285-1.721c-0.607-0.285-1.15-0.61-1.815-0.702
			c-0.596-0.083-1.202-0.049-1.798-0.157c-1.334-0.241-2.581-0.525-3.798-1.12c-1.608-0.785-3.446-0.989-5.193-1.214
			c-0.786-0.101-1.423,0.019-2.123,0.303c-0.439,0.178-1.417,0.496-1.885,0.327c-0.442,0.086-0.764,0.362-1.203,0.406
			c-0.899,0.088-1.819,0.029-2.719,0.152c-0.587,0.081-1.155,0.344-1.725,0.5c-0.434,0.118-0.861,0.262-0.985,0.744
			c-0.455,0.105-0.514-0.328-0.835-0.498c-0.341-0.181-0.585-0.025-0.919,0.073c-0.838,0.246-1.789,0.067-2.657,0.116
			c0.215,0.202,0.549,0.863,0.006,0.904c-0.207,0.016-0.652-0.599-0.904-0.7c-1.376-0.548-2.901,0.008-4.294-0.473
			c-0.956-0.33-2.296-0.288-3.3-0.143c-1.001,0.145-1.65,0.939-2.508,1.406c-1.038,0.565-1.729,1.474-2.864,1.887
			c-1.176,0.428-2.322,0.922-3.487,1.393c-0.669,0.271-1.354,0.586-1.976,0.949c-0.44,0.257-0.804,0.422-1.339,0.352
			c-0.402-0.052-0.797-0.368-1.158-0.401c-0.283-0.026-0.613,0.119-0.903,0.138c-0.603,0.039-1.087-0.183-1.639,0.09
			c-0.429,0.212-1.016,0.542-1.02,1.082c0.256,0.295,1.016,0.319,1.396,0.358c0.612,0.063,1.249,0.073,1.852,0.152
			c0.012,0.804-0.825,1.013-1.451,1.206c-0.296,0.092-0.563,0.393-0.873,0.469c-0.233,0.057-0.401-0.044-0.622-0.068
			c-0.79-0.087-1.152,0.565-1.494,1.181c-0.54,0.971-1.093,1.747-1.107,2.889c-0.013,1.007-0.049,2.273,0.269,3.245
			c0.318,0.972,1.298,1.315,1.992,1.944c0.466,0.423,0.749,1.22,1.239,1.573c0.308,0.221,0.888,0.137,1.276,0.213
			c0.475,0.093,0.84,0.386,1.321,0.456c0.731,0.107,1.575,0.005,2.312-0.001c1.049-0.008,2.138-0.219,3.178-0.362
			c0.78-0.108,1.412,0.078,2.171,0.048c0.65-0.025,1.414-0.069,1.571-0.789c0.1-0.46-0.159-0.882,0.359-1.103
			c0.5-0.213,0.707,0.255,1.041,0.585c0.271,0.269,0.62,0.518,0.922,0.736c0.511,0.368,1.236,0.481,1.832,0.687
			c0.509,0.175,1.135,0.228,1.678,0.153c0.435-0.06,0.632-0.212,0.941-0.543c0.336-0.36,0.299-0.38,0.754-0.368
			c0.344,0.01,0.588,0.032,0.898,0.143c0.385,0.138,0.78,0.278,1.177,0.407c0.513,0.166,0.927,0.533,1.392,0.807
			c0.715,0.422,1.433,0.649,2.24,0.838c0.52,0.123,1.06,0.321,1.516,0.61c0.367,0.233,0.443,0.652,0.743,0.893
			c0.323,0.259,0.901,0.236,1.283,0.494c0.336,0.227,0.603,0.417,0.973,0.586c0.851,0.387,1.625,0.743,2.433,1.218
			c0.405,0.239,0.854,0.607,1.299,0.756c0.336,0.113,0.734,0.018,1.049,0.201c0.441,0.257,0.755,0.8,1.191,1.095
			c0.45,0.305,1.045,0.449,1.567,0.566c1.133,0.253,1.885,1.037,2.408,2.079c0.362,0.723,0.803,1.769,1.552,2.204
			c0.415,0.24,1.357,0.312,1.848,0.19c0.288-0.071,0.393-0.3,0.642-0.412c0.551-0.248,1.122,0.191,1.711-0.159
			c0.012,0.56-0.148,1.107-0.133,1.651c0.013,0.467,0.35,0.769,0.442,1.214c0.19,0.929-0.466,1.215-0.957,0.43
			c-0.139-0.222-0.142-0.459-0.441-0.519c-0.255-0.051-0.725,0.153-0.805,0.404c-0.099,0.315,0.156,0.502,0.357,0.635
			c0.266,0.175,0.23-0.011,0.426,0.221c0.078,0.092,0.097,0.433,0.167,0.544c-0.05,0.649-1.07,1.475-1.679,1.633
			c-0.31-0.373-0.509-0.697-0.983-0.499c-0.325,0.136-0.707,0.578-0.806,0.903c-0.104,0.342,0.018,0.758,0.215,1.029
			c0.104,0.144,0.248,0.173,0.336,0.321c0.117,0.199,0.011,0.556,0.155,0.749c0.414,0.556,1.882-0.028,2.044,0.563
			c0.159,0.582-0.931,0.812-0.07,1.407c0.274,0.189,0.975,0.126,0.459,0.688c-0.534,0.583-0.533-0.052-0.795-0.258
			c-0.376-0.295-0.468,0.146-0.687,0.427c-0.402,0.515-0.535,0.185-1.081,0.157c-0.732-0.037-0.732,0.346-0.759,0.935
			c-0.022,0.494-0.101,0.908-0.215,1.381c-0.076,0.314-0.187,0.581,0,0.888c0.15-0.093,0.613-0.472,0.818-0.312
			c0.332,0.261-0.366,0.637-0.51,0.735c-0.232,0.158-0.51,0.504-0.773,0.605c-0.315,0.121-0.608-0.063-0.767,0.347
			c-0.085,0.22-0.009,0.603,0.173,0.703c0.083,0.045,0.363-0.152,0.619,0c0.685,0.405,0.654,1.549,1.038,2.193
			c0.304,0.509,0.595,1.274,1.008,1.7c0.29,0.299,0.738,0.379,1.131,0.517c0.601,0.212,2.073,1.318,1.69,2.149
			c-0.212,0.46-0.982,0.716-1.334,1.017c-0.322,0.275-0.255,0.378-0.691,0.444c-0.306,0.046-0.645-0.003-0.941-0.053
			c-0.501-0.084-0.901-0.362-1.389-0.398c-0.449-0.032-0.651,0.131-1.031,0.354c-0.383,0.225-0.697,0.494-1.17,0.458
			c-0.465,0.281-0.81,0.031-0.904,0.742c-0.076,0.575,0.042,1.17,0.093,1.734c0.069,0.761,0.291,0.779,1.019,1.086
			c0.795,0.334,1.612,0.668,2.384,1.014c0.712,0.32,1.155,1.235,1.656,1.8c0.428,0.483,0.8,0.99,1.075,1.574
			c0.336,0.714,0.608,1.288,1.393,1.556c0.411,0.14,0.797,0.132,1.185,0.346c0.797,0.441,1.354,1.17,2.049,1.738
			c0.452,0.369,0.943,0.752,1.307,1.21c0.42,0.529,0.602,1.212,0.952,1.79c0.258,0.426,0.463,0.322,0.84,0.602
			c0.332,0.246,0.575,0.711,0.904,0.993c0.369,0.316,0.619,0.555,0.813,1.007c0.135,0.314,0.248,0.595,0.434,0.869
			c0.239,0.352,0.359,0.728,0.578,1.093c0.179,0.298,0.379,0.355,0.637,0.571c0.246,0.205,0.322,0.453,0.512,0.746
			c0.335,0.516,0.732,0.634,1.285,0.808c0.671,0.21,1.44,0.011,2.111,0.24c0.35,0.119,0.732,0.357,1.051,0.541
			c0.485,0.279,0.628,0.688,0.881,1.177c0.241,0.467,0.524,1.128,0.997,1.404c0.51,0.296,1.346,0.265,1.954,0.358
			c1.23,0.189,2.286,0.859,3.417,1.371c0.762,0.345,1.487,0.688,2.185,1.134c1.167,0.746-0.635,1.62-1.061,2.209
			c-0.52,0.718-0.381,2.007-0.14,2.831c0.118,0.405,0.265,0.721,0.282,1.144c0.023,0.603,0.057,0.548-0.335,0.851
			c-0.449,0.346-0.348,0.415-0.386,0.941c-0.019,0.263-0.073,0.74-0.244,0.951c-0.521,0.642-1.573,0.35-2.114-0.04
			c-0.539-0.389-0.98-0.598-1.668-0.448c-0.34,0.074-0.618,0.288-0.93,0.349c-0.659,0.129-1.519-0.084-2.168-0.169
			c-0.594-0.078-1.161-0.101-1.759-0.101c-0.768,0-1.635,0.15-2.392,0.001c-0.513-0.101-0.86-0.398-1.287-0.658
			c-0.752-0.457-1.603-0.527-2.468-0.461c-0.782,0.06-1.941,0.479-2.557,0.981c-0.384,0.313-0.555,0.777-0.936,1.119
			c-0.206,0.186-0.516,0.39-0.688,0.607c-0.268,0.337-0.17,0.577-0.223,0.97c-0.054,0.403-0.197,0.632-0.396,0.978
			c-0.352,0.613-0.507,1.361-0.787,2.007c-0.428,0.99-1.064,1.475-1.975,1.986c-0.39,0.218-0.83,0.551-1.237,0.63
			c-0.359,0.07-0.671-0.083-1.005-0.093c-0.262-0.008-0.391,0.037-0.643,0.003c-0.949-0.129-1.828,0.017-2.748-0.242
			c-0.497-0.14-0.814-0.5-1.272-0.678c-0.363-0.141-0.887-0.089-1.305-0.067c-0.787,0.041-1.778,0.317-2.466,0.726
			c-0.515,0.307-0.612,0.668-1.263,0.318c-0.595-0.319-0.304-0.533-0.412-1.039c-0.094-0.439-0.491-0.521-0.919-0.616
			c-1.196-0.266-2.307-0.537-3.544-0.657c-1.431-0.139-2.841-0.268-4.296-0.271c-0.614-0.001-1.517-0.08-1.905,0.426
			c-0.214,0.279-0.177,0.625-0.515,0.785c-0.25,0.119-1.079,0.193-1.379,0.19c-0.4-0.005-0.641-0.216-0.897-0.49
			c-0.447-0.477-0.762-1.016-1.307-1.405c-1.084-0.774-2.687-1.637-3.994-1.307c-0.55,0.139-0.985,0.115-1.483,0.418
			c-0.457,0.278-0.736,0.498-1.311,0.488c-0.746-0.013-1.525-0.17-2.273-0.239c-0.938-0.087-1.834-0.245-2.683-0.664
			c-0.722-0.357-1.419-0.776-2.22-0.904c-0.801-0.128-1.539-0.238-2.297-0.54c-0.46-0.183-0.876-0.402-1.381-0.445
			c-1.65-0.141-3.296-0.24-4.954-0.312c-0.75-0.033-1.557-0.061-2.293,0.061c-0.272,0.045-0.495,0.146-0.787,0.11
			c-0.179-0.022-0.412-0.151-0.584-0.141c-0.405,0.022-0.733,0.48-1.071,0.696c-0.328,0.21-0.633,0.371-1.006,0.48
			c-0.432,0.127-0.754,0.34-1.158,0.452c-0.71,0.195-1.617,0.02-2.339-0.003c-0.33-0.01-0.718-0.043-1.032,0.067
			c-0.194,0.068-0.324,0.277-0.532,0.298c-0.41,0.04-1.24-0.603-1.3-1c-0.089-0.584,0.887-1.26,0.494-1.833
			c-0.593-0.863-2.508,0.192-3.302-0.371c0.339-0.773,1.527-0.282,2.091-0.629c0.006-0.418-0.524-0.554-0.052-0.77
			c0.483-0.222,1.077,0.233,1.003,0.721c0.407-0.014,0.795,0.12,1.134-0.051c0.23-0.116,0.161-0.23,0.528-0.261
			c0.298-0.026,0.534,0.012,0.804,0.127c0.485,0.207,0.758,0.463,1.354,0.413c0.457-0.037,1.001-0.003,1.384-0.269
			c0.441-0.306,1.289-1.186,1.102-1.807c-0.175-0.583-1.157-0.25-1.666-0.223c-0.533,0.028-1.044,0.066-1.559,0.135
			c-0.476,0.064-0.947-0.029-1.367,0.213c-0.125,0.072-0.04,0.084-0.233,0.148c-0.499,0.673-1.196,0.271-1.839,0.063
			c-0.815-0.264-1.666-0.198-2.441,0.139c-0.522,0.227-1.698,0.957-0.896,1.508c-0.151,0.261-0.379,0.203-0.63,0.228
			c-0.463,0.045-0.736,0.192-1.176,0.311c-0.337,0.091-0.723-0.048-1.046,0.045c-0.274,0.078-0.422,0.285-0.714,0.317
			c-0.826,0.09-1.291-0.882-1.908-1.226c-0.342-0.191-0.692-0.141-1.055-0.252c-0.419-0.127-0.567-0.496-0.948-0.645
			c-0.603-0.236-1.555,0.002-2.187,0.009c-0.674,0.008-1.968,0.244-2.525-0.136c-0.441-0.302-0.218-1.228-0.635-1.394
			c-0.245-0.097-0.507,0.248-0.717,0.263c-0.222,0.016-0.422-0.126-0.612-0.23c-0.521-0.285-0.909-0.613-1.535-0.627
			c-0.687-0.015-1.361,0.124-2.055,0.084c-0.511-0.03-0.932-0.13-1.429-0.134c-0.525-0.004-0.928-0.355-1.391-0.567
			c-0.505-0.231-1.021-0.405-1.572-0.452c-0.552-0.047-0.941-0.051-1.361-0.421c-0.169-0.149-0.295-0.334-0.474-0.456
			c-0.138-0.095-0.384-0.142-0.492-0.266c-0.241-0.278-0.228-0.69-0.523-0.974c-0.786-0.758-2.267-1.297-3.321-1.41
			c-0.645-0.068-1.177,0.029-1.781-0.188c-0.703-0.252-1.029-0.107-1.758,0.046c-0.957,0.201-2.272,0.047-3.116,0.622
			c-0.329,0.224-0.605,0.908-1.072,0.82c-0.275-0.052-0.388-0.456-0.64-0.547c-0.338-0.123-0.685,0.143-1.008,0.194
			c-0.352,0.056-0.635,0.073-0.981,0.174c-0.499,0.145-0.957,0.296-1.425,0.548c-0.319,0.172-0.762,0.509-1.134,0.544
			c-0.342,0.032-0.634-0.313-0.897-0.313c-0.348,0-0.593,0.423-0.849,0.629c-0.308,0.247-0.619,0.426-0.999,0.537
			c-0.315,0.092-0.674,0.029-0.927,0.237c-0.396,0.325-0.612,1.205-0.251,1.589c0.309,0.329,0.644,0.121,0.635,0.666
			c-0.004,0.258-0.151,0.452-0.247,0.679c-0.371,0.885-1.209,1.893-1.288,2.87c-0.054,0.673-0.374,1.156-0.912,1.534
			c-0.614,0.43-0.624,0.658-0.387,1.452c0.165,0.553,0.336,0.918,0.078,1.484c-0.17,0.373-0.5,0.622-0.672,0.995
			c-0.303,0.657-0.524,2.117,0.073,2.731c0.282,0.29,0.689,0.286,0.886,0.743c0.154,0.357,0.077,0.817,0.077,1.196
			c0,0.74-0.09,1.776,0.304,2.448c0.566,0.966,2.301,0.258,2.818,1.392c0.129,0.283,0.068,0.612,0.244,0.841
			c0.2,0.261,0.675,0.396,0.94,0.604c0.719,0.564,1.34,0.855,2.262,0.973c0.604,0.077,0.963,0.267,1.491,0.517
			c0.546,0.258,1.16,0.095,1.737-0.065c0.72-0.199,0.907-0.466,1.368-0.97c0.429-0.47,1.076-0.608,1.691-0.684
			c1.655-0.203,3.6,0.715,4.772,1.875c0.584,0.578,1.023,0.938,1.768,1.265c0.808,0.355,1.716,0.395,2.521,0.766
			c0.697,0.321,0.781,0.718,1.178,1.262c0.062,0.085,0.036,0.179,0.114,0.25c0.12,0.11,0.794,0.061,0.94,0.098
			c0.281,0.071,0.5,0.206,0.704,0.394c0.61,0.561,1.212,1.187,1.792,1.762c0.618,0.611,1.668,0.621,2.03,1.395
			c0.128,0.274,0.151,0.569,0.198,0.862c0.369,0.081,0.891-0.052,1.196,0.208c0.289,0.246,0.375,0.804,0.595,1.126
			c0.469,0.684,1.339,0.624,1.739,1.344c0.44,0.793,0.219,1.567,1.039,2.116c0.491,0.329,0.537,0.411,0.644,0.991
			c0.1,0.542,0.28,0.875,0.539,1.354c0.526,0.973,0.461,1.923,1.639,2.376c0.835,0.321,1.966,0.083,2.858,0.082
			c0.801-0.001,2.037,0.299,2.801,0.016c0.586-0.217,0.717-0.556,0.816-1.099c1.234-0.172-0.286-1.323-0.641-1.739
			c-0.212-0.248-0.457-0.404-0.689-0.628c-0.235-0.227-0.347-0.531-0.597-0.734c-0.234-0.19-0.526-0.22-0.745-0.456
			c-0.18-0.193-0.269-0.524-0.416-0.747c-0.216-0.323-0.538-0.559-0.495-0.972c0.03-0.286,0.27-0.571,0.44-0.797
			c0.281-0.374,0.528-0.788,0.825-1.144c0.332-0.398,0.677-0.381,1.099-0.649c0.415-0.264,0.709-0.675,1.145-0.927
			c0.463-0.268,0.973-0.311,1.47-0.49c0.788-0.283,1.209-0.865,1.791-1.424c0.641-0.615,1.448-0.64,2.139-1.102
			c0.66-0.442-0.253-1.706,1.046-1.368c0.388,0.101,0.666,0.59,1.066,0.603c0.313,0.011,0.446-0.257,0.677-0.413
			c0.051,0.469-0.227,0.713-0.311,1.126c0.405,0.199,1.208-0.1,1.584-0.318c0.538-0.311,0.87-0.447,1.534-0.297
			c-0.195,0.177-0.159,0.429,0.067,0.593c0.233,0.169,1.166,0.053,1.391-0.115c0.21-0.157,0.199-0.559,0.539-0.55
			c0.584,0.015,0.322,0.789,1.099,0.377c0.243-0.129,0.552-0.413,0.634-0.674c0.153-0.486-0.373-1.499,0.181-1.845
			c0.298-0.186,0.948,0.004,1.181,0.212c0.326,0.292,0.259,0.745,0.523,1.05c0.407,0.47,1.812,0.537,2.053-0.124
			c0.117-0.32,0.009-0.427,0.251-0.68c0.169-0.176,0.408-0.274,0.638-0.33c0.717-0.176,1.536-0.114,2.274-0.257
			c0.529-0.102,1.06-0.191,1.592-0.282c0.432-0.073,1.037-0.07,1.421-0.309c0.241-0.149,0.321-0.507,0.564-0.655
			c0.611-0.37,1.178,0.527,1.547,0.938c0.485,0.542,0.909,0.483,1.565,0.529c-0.538,0.23-0.554,0.336-0.873,0.728
			c-0.193,0.237-0.491,0.324-0.669,0.595c-0.203,0.309-0.34,1.126,0.195,1.243c0.351,0.077,0.324-0.264,0.541-0.327
			c0.199-0.057,0.66,0.137,0.906,0.143c0.641,0.017,0.917-0.292,1.447-0.462c0.816-0.261,2.707-0.926,3.106,0.264
			c0.129,0.384-0.075,0.335,0.323,0.423c0.319,0.071,0.728-0.097,1.071-0.045c0.442,0.067,0.623,0.326,1.098,0.362
			c0.982,0.073,1.955,0.082,2.917,0.179c0.814,0,1.483-0.004,2.229,0.359c0.757,0.368,1.51,0.782,2.323,0.996
			c0.768,0.202,1.587,0.241,2.383,0.27c0.876,0.031,1.733,0.217,2.605,0.271c0.552,0.035,0.839-0.126,1.299-0.262
			c0.438-0.129,0.705,0.039,1.133,0.262c0.74,0.386,1.65,0.59,2.464,0.811c0.586,0.158,1.195,0.204,1.77,0.404
			c0.514,0.179,1,0.439,1.518,0.598c1.265,0.388,2.486,0.305,3.778,0.393c0.522,0.036,0.915,0.26,1.417,0.366
			c0.509,0.108,0.946,0.032,1.428-0.086c0.547-0.134,1.154-0.048,1.542-0.502c0.192-0.225,0.148-0.375,0.468-0.489
			c0.198-0.07,0.517-0.005,0.695,0.037c0.227,0.053,1.49,0.538,1.256-0.221c-0.206-0.087-0.62-0.194-0.72-0.419
			c-0.064-0.146,0.047-0.721,0.16-0.797c0.274-0.186,1.518-0.053,1.783,0.175c0.507,0.438,1.726-0.183,2.238-0.334
			c0.716-0.211,1.457-0.274,2.189-0.408c0.638-0.116,1.29-0.346,1.929-0.121c0.556,0.196,0.874,0.57,1.491,0.66
			c0.483,0.071,0.949,0.048,1.421,0.2c0.404,0.13,0.749,0.339,1.189,0.393c0.387,0.047,0.861,0.062,1.199-0.17
			c0.787-0.54,0.702-1.248,0.155-1.844c-0.27-0.295-0.725-0.779-0.678-1.179c0.058-0.488,0.607-0.997,1.06-0.809
			c0.752,0.312,0.735,1.538,1.776,1.548c0.668,0.006,0.604-0.981,1.36-1.117c0.948-0.17,2.053,0.014,3.004-0.029
			c1.645-0.074,3.244-0.422,4.897-0.329c0.816,0.046,1.726-0.064,2.531,0.064c0.422,0.067,0.788,0.352,1.222,0.367
			c0.381,0.013,0.8-0.174,1.177-0.229c1.078-0.159,2.268,0.003,3.293,0.285c0.984,0.271,2.206,0.038,3.182-0.24
			c1.083-0.308,2.145-0.321,3.269-0.27c0.6,0.028,1.366-0.075,1.95-0.315c1.01-0.414,2.926-0.212,3.775,0.445
			c0.623,0.483,1.417,1.508,2.291,1.286c0.239-0.061,0.154-0.247,0.475-0.225c0.195,0.013,0.3,0.089,0.427,0.214
			c0.096,0.094,0.021,0.248,0.111,0.329c0.158,0.144,0.409,0.148,0.601,0.201c0.675,0.187,1.282,0.412,1.986,0.467
			c0.314,0.024,0.739-0.02,1.042,0.099c0.277,0.11,0.416,0.359,0.655,0.517c0.261,0.173,0.492,0.199,0.732,0.434
			c0.18,0.176,0.285,0.448,0.505,0.58c0.406,0.244,0.756,0.281,1.152,0.591c0.421,0.331,0.898,0.646,1.281,1.016
			c0.386,0.372,0.563,0.835,0.848,1.268c0.494,0.751,1.399,1.065,2.04,1.676c0.488,0.465,0.309,0.778,0.516,1.336
			c0.128,0.345,0.463,0.581,0.718,0.841c0.607,0.618,1.042,0.888,1.813,1.276c0.515,0.259,0.791,0.779,1.261,1.045
			c0.821-0.492,1.026-1.47,1.161-2.381c0.101-0.683,0.587-1.854-0.435-2.016c-0.037-0.605,0.046-1.211,0.015-1.813
			c-0.009-0.177,0.029-0.723-0.091-0.892c-0.073-0.102-0.267-0.051-0.331-0.114c-0.104-0.103-0.154-0.211-0.235-0.345
			c-0.221-0.368-0.386-0.66-0.627-1.011c-0.186-0.271-0.066-0.25-0.423-0.366c-0.213-0.069-0.336,0.028-0.525-0.111
			c-0.54-0.395-0.149-1.29,0.203-1.713c0.463-0.556,0.376-1.33,0.835-1.833c0.185-0.202,0.497-0.363,0.576-0.666
			c0.073-0.284,0.022-0.569,0.054-0.859l3.697-6.492l-6.087-2.345c-0.243-0.488-0.053-0.934-0.652-1.244
			c-0.559-0.29-1.416-0.008-1.873-0.533c-0.528-0.606-0.201-1.594-0.927-2.156c-0.561-0.435-1.403-0.638-2.062-0.896
			c-0.673-0.264-1.348-0.362-1.745-0.995c-0.208-0.332-0.573-0.831-0.496-1.248c0.143-0.772,1.702-0.573,2.304-0.599
			c0.009-0.457-0.022-0.989-0.314-1.344c-0.346-0.419-0.852-0.802-1.241-1.194c-0.487-0.492-0.962-0.971-1.419-1.487
			c-0.343-0.387-0.695-0.948-1.13-1.243c-0.266-0.18-0.831-0.177-0.953,0.2c-0.119,0.366,0.441,0.808,0.63,1.013
			c0.553,0.599,1.015,1.176,1.574,1.775c0.318,0.341,0.603,0.628,1.001,0.868c0.219,0.132,0.842,0.344,0.85,0.601
			c-0.904,0.042-1.81,0.02-2.635,0.346c-0.374,0.148-1.141,0.174-1.476-0.101c-0.296-0.243-0.168-0.849-0.482-1.095
			c0.022-0.822-0.112-1.333-0.882-1.703c-0.376-0.181-0.779-0.234-1.184-0.282c-0.308-0.037-0.266,0.013-0.465-0.137
			c-0.167-0.126-0.129-0.302-0.354-0.399c-0.848-0.365-2.108,0.492-2.804-0.46c-0.271-0.371-0.467-1.065-0.539-1.499
			c-0.095-0.574,0.13-1.096,0.104-1.669c-0.029-0.614-0.542-1.063-0.45-1.683c0.093-0.638,0.709-0.978,1.275-1.135
			c1.354-0.378,1.266,0.447,1.665,1.263c0.415,0.85,1.604,0.92,2.423,0.843c-0.353-0.453-1.981-0.115-1.262-0.992
			c0.397-0.484,0.996-0.316,1.474-0.574c0.427-0.23,0.32-0.503,0.467-0.892c0.292-0.772,0.566-0.343,1.038-0.019
			c0.378,0.26,0.831,0.223,1.233,0.479c0.314,0.2,0.356,0.364,0.788,0.283c0.402-0.075,0.535-0.381,0.914-0.525
			c0.882-0.334,1.471,0.723,2.044,1.217c0.55-0.62,1.271-0.4,1.885-0.126c0.583,0.26,1.392,0.108,2.051-0.04
			c0.662-0.148,0.553-0.494,0.599-1.11c0.062-0.839,0.303-1.632,0.307-2.48c0.279-0.123,0.631-0.099,0.929-0.134
			c0.132-0.542,0.097-1.076,0.502-1.496c0.52-0.539,1.251-0.4,1.917-0.608c0.598-0.187,0.852-0.319,0.98-0.907
			c0.144-0.663,0.205-1.398,0.269-2.072c0.092-0.976,0.603-1.925,0.544-2.901c-0.049-0.806-0.227-1.562-0.227-2.407
			c0-0.48-0.046-0.994,0.026-1.46c0.058-0.372,0.149-0.69,0.109-1.082c-0.726,0.633-0.722-0.49-0.886-0.839
			c-0.339-0.722-1.396-0.337-1.707-1.146c-0.21-0.545-0.072-1.17-0.289-1.747c-0.212-0.566-0.349-1.254-0.977-1.364
			c-0.746-0.132-1.229-0.052-1.96-0.39c-0.301-0.139-0.59-0.341-0.921-0.378c-0.434-0.049-0.629,0.178-0.984,0.384
			c-0.14,0.081-0.214,0.206-0.397,0.192c-0.085-0.007-0.218-0.265-0.266-0.248c-0.38,0.137-0.062,0.261-0.224,0.614
			c-0.17,0.371-1.053,0.415-1.464,0.412c-0.074-0.41,0.059-0.904,0.24-1.263c0.124-0.244,0.358-0.329,0.508-0.533
			c0.162-0.219,0.146-0.489,0.357-0.685c0.056,0.211,0.21,0.372,0.434,0.364c0.153-0.216,0.174-0.416,0.266-0.656
			c0.12-0.315,0.128-0.237,0.315-0.451c0.32-0.368,0.66-0.671,1.206-0.597c0.043,0.164,0.116,0.325,0.212,0.46
			c0.572-0.282,1.453-0.754,1.982-0.339c0.319,0.25,0.3,0.509,0.556,0.055c0.147-0.261,0.051-0.873,0.513-0.821
			c0.081-0.271-0.226-0.455-0.207-0.626c0.019-0.168,0.359-0.427,0.492-0.51c0.341-0.211,0.588,0.033,0.87-0.115
			c0.358-0.188,0.084-0.47,0.209-0.735c0.24-0.509,0.952-0.28,1.387-0.394c0.384-0.101,0.848-0.558,1.117-0.864
			c0.152-0.173,0.215-0.287,0.362-0.403c0.084-0.066,0.203-0.018,0.308-0.141c0.331-0.389-0.126-0.85,0.205-1.217
			c0.234-0.261,0.501-0.147,0.495-0.548c-0.004-0.229-0.309-0.388-0.314-0.573c-0.014-0.541,0.595-0.467,0.908-0.393
			c0.723,0.171,0.526-0.112,0.668-0.631c0.665,0.235,1.345,0.236,1.663-0.463c0.171-0.378,0.281-0.56,0.173-0.902
			c-0.054-0.172-0.346-0.251-0.163-0.5c0.096-0.13,0.347-0.108,0.488-0.094c-0.123-0.154-0.04-0.275-0.046-0.406
			c-0.003-0.059,0.005-0.395,0.01-0.419c0.11-0.5,0.325-0.142,0.519-0.432C189.827,87.088,189.26,86.891,189.339,86.586z"/>
		<path fill="#1E8346" d="M110.657,109.194c-0.48-0.207-0.987-0.5-1.501-0.615c-1.133-0.255-2.082-0.168-3.176-0.681
			c-0.922-0.433-2.022-0.895-2.847-1.498c-0.724-0.528-1.449-1.272-2.268-1.626c-0.47-0.203-0.983-0.121-1.437-0.388
			c-0.225-0.133-0.365-0.366-0.555-0.488c-0.607-0.391-1.438-0.551-2.145-0.623c-1.422-0.145-2.433-0.236-3.679-0.866
			c-0.765-0.387-1.513-0.755-2.264-1.174c-0.721-0.402-1.4-0.637-2.227-0.614c-0.837,0.023-2.587-0.053-3.217,0.643
			c-1.212,0.364-2.431,1.135-2.369,2.452c0.063,1.339,1.128,1.551,1.943,2.526c0.609,0.729,1.279,2.105,2.172,2.48
			c0.587,0.247,1.44,0.067,1.242,1.008c0.659,0.193,1.059-0.258,1.673-0.157c0.79,0.131,1.563,0.775,2.366,0.981
			c2.007,0.514,3.758,1.678,5.437,2.913c1.09,0.801,2.006,1.651,3.303,1.991c2.171,0.569,4.467,0.381,6.579,1.193
			c0.983,0.378,1.787,0.262,2.816,0.373c0.37,0.04,1.494,0.22,1.788,0.449c0.469,0.365,0.308,1.537,1.11,1.718
			c0.461,0.104,0.959-0.266,0.951-0.703c-0.007-0.361-0.458-0.582-0.476-0.936c-0.061-1.159,1.533-0.7,1.204-1.942
			c-0.279-1.053-0.659-2.204-1.175-3.155c-0.355-0.655-1.748-1.8-1.3-2.471C112.068,109.579,111.275,109.46,110.657,109.194z"/>
		<path fill="#1E8346" d="M52.134,125.943c0.461,0.172,0.929,0.278,1.385,0.469c0.561,0.236,1.088,0.18,1.678,0.002
			c0.69-0.208,3.052-1.476,1.955-2.437c-0.63-0.552-1.681-0.452-2.232-1.017c-0.282-0.288-0.815-0.357-1.208-0.374
			c-0.587-0.025-0.887,0.257-1.367,0.53c-0.383,0.218-1.261,0.625-1.268,1.138c-0.047,0.332-0.08,0.838,0.113,1.156
			C51.37,125.707,51.819,125.826,52.134,125.943z"/>
		<path fill="#1E8346" d="M63.578,159.487c-0.694,0.026-1.093,0.603-1.693,0.878c-0.49,0.223-1.015,0.133-1.497-0.065
			c-0.379-0.156-0.725-0.322-1.062-0.549c-0.369-0.249-0.662-0.561-0.99-0.848c-0.112,0.096-2.268-0.318-1.533,0.577
			c0.289,0.352,0.763,0.645,1.103,0.953c0.52,0.471,0.98,1.254,1.656,1.516c0.968,0.376,2.112,0.305,3.129,0.481
			c0.719,0.124,2.277,0.269,2.612-0.64c0.165-0.447-0.068-0.976-0.247-1.384C64.794,159.812,64.213,159.463,63.578,159.487z"/>
		<path fill="#1E8346" d="M76.742,150.36c-0.082,0.047-0.091,0.223-0.17,0.271c-0.116,0.071-0.184-0.023-0.293-0.069
			c-0.431-0.049-1.011-0.147-1.047,0.371c-0.025,0.362,0.332,0.34,0.591,0.339c0.261-0.001,0.376,0.119,0.609,0.193
			c0.191,0.06,0.531,0.06,0.715-0.007c0.355-0.128,0.14-0.445,0.058-0.68C77.149,150.617,76.987,150.219,76.742,150.36z"/>
		<path fill="#1E8346" d="M104.967,26.545c0.315,0.244,0.558,0.212,0.943,0.31c0.952,0.242,1.719,0.722,2.712,0.847
			c0.661,0.084,1.204,0.463,1.833,0.592c0.652,0.134,1.351,0.01,2.011,0.066c0.543,0.046,1.004,0.338,1.524,0.44
			c0.608,0.119,1.241,0.082,1.856,0.215c0.43,0.092,0.736,0.254,1.12,0.438c0.335,0.162,0.729,0.213,1.092,0.296
			c0.834,0.19,1.694,0.141,2.543,0.232c0.651,0.069,1.149,0.379,1.737,0.621c0.884,0.363,1.932,0.2,2.855,0.163
			c0.715-0.028,1.359,0.133,1.092-0.782c-0.159-0.543-0.896-1.041-1.309-1.384c-0.645-0.536-1.616-0.873-2.373-1.226
			c-0.65-0.304-1.397-0.263-2.051-0.57c-1.04-0.489-2.083-0.992-3.165-1.386c-0.507-0.184-0.99-0.433-1.502-0.583
			c-0.701-0.205-1.348-0.086-2.061-0.058c-1.262,0.049-2.439-0.317-3.708-0.169c-0.557,0.065-1.101,0.201-1.658,0.268
			c-0.503,0.061-1.046,0.042-1.54,0.142c-0.523,0.106-0.903,0.458-1.392,0.602c-0.654,0.346-0.905,0.22-1.216,0.333
			C104.503,26.155,104.736,26.366,104.967,26.545z"/>
	</g>
</g>
</svg>
