<?xml version="1.0" encoding="utf-8"?>
<!-- Generator: Adobe Illustrator 26.0.3, SVG Export Plug-In . SVG Version: 6.00 Build 0)  -->
<svg version="1.1" id="Isolation_Mode" xmlns="http://www.w3.org/2000/svg" xmlns:xlink="http://www.w3.org/1999/xlink" x="0px"
	 y="0px" viewBox="0 0 200 200" enable-background="new 0 0 200 200" xml:space="preserve">
<g>
	<path fill="#1E8346" d="M15.346,14.106c-0.088,0.329,0.073,0.555-0.108,0.748c-0.067,0.072-0.089,0.057-0.639,0.233
		c-0.318,0.102-0.53,0.206-0.722,0.482c-0.119,0.171-0.154,0.425-0.28,0.581c-0.337,0.415-1.372,0.256-1.869,0.383
		c-0.6,0.153-0.463,1.047-0.348,1.513c0.161,0.649-0.161,0.89-0.598,1.333c-0.475,0.482-1.098,0.606-1.098,1.401
		c0,0.249,0.085,0.535,0.002,0.776c-0.087,0.252-0.343,0.39-0.53,0.556c-0.554,0.491-0.619,1.14-0.619,1.841
		c0,0.483,0.139,0.693,0.387,1.097c0.198,0.323,0.295,0.689,0.194,1.062c-0.184,0.684-0.341,1.365-0.341,2.093
		c0,0.741,0.228,1.548,0.048,2.268c-0.109,0.435-0.45,0.739-0.475,1.19c-0.018,0.322,0.037,0.586,0.181,0.874
		c0.271,0.543,0.755,0.541,1.208,0.855c0.322,0.224,0.651,0.486,0.956,0.74c0.442,0.369,0.811,0.825,1.323,1.083
		c0.407,0.205,0.76,0.426,1.136,0.685c0.42,0.29,0.914,0.619,1.084,1.131c0.051,0.154,0.045,0.316,0.085,0.478
		c0.085,0.343,0.348,0.573,0.596,0.817c0.322,0.316,0.469,0.632,0.775,0.963c0.314,0.34,0.823,0.718,1.004,1.148
		c0.168,0.399,0.313,0.834,0.524,1.216c0.159,0.289,0.349,0.563,0.447,0.879c0.085,0.27,0.092,0.595,0.104,0.88
		c0.013,0.304-0.076,0.476-0.148,0.749c-0.185,0.701,0.617,1.278,1.12,1.651c0.494,0.365,1.232,0.753,1.54,1.273
		c0.199,0.336,0.488,0.655,0.705,0.948c0.251,0.339,0.681,0.607,1.008,0.873c0.728,0.59,1.369,1.333,2.017,1.992
		c0.257,0.262,0.46,0.53,0.69,0.819c0.301,0.379,0.745,0.538,1.13,0.819c0.886,0.646,1.674,1.464,2.517,2.173
		c0.506,0.426,0.927,0.76,1.545,1.005c0.496,0.197,0.994,0.287,1.5,0.425c0.828,0.225,1.639,0.568,2.463,0.817
		c0.821,0.247,1.658,0.683,2.412,1.096c0.45,0.246,0.811,0.585,1.218,0.897c0.439,0.337,0.914,0.632,1.325,1.001
		c0.617,0.555,1.218,0.928,2.026,1.151c0.91,0.25,1.844,0.25,2.597,0.873c0.352,0.291,0.645,0.664,1.011,0.931
		c0.353,0.26,0.648,0.446,0.94,0.803c0.177,0.217,0.285,0.453,0.456,0.671c0.213,0.271,0.532,0.461,0.677,0.783
		c0.223,0.495,0.371,1.205,0.532,1.678c0.213,0.626,0.786,1.24,1.339,1.581c0.294,0.181,0.564,0.362,0.748,0.667
		c0.19,0.316,0.135,0.62,0.208,0.968c0.115,0.555,0.41,1.275,0.803,1.694c0.53,0.565,1.494,0.254,2.168,0.21
		c0.637-0.04,1.136,0.192,1.719,0.402c0.651,0.234,1.187,0.596,1.747,0.975c0.443,0.299,1.068,0.669,1.42,1.066
		c0.308,0.347,0.155,0.895,0.531,1.202c0.505,0.413,1.31-0.003,1.88,0.313c0.213,0.118,0.318,0.32,0.512,0.459
		c0.367,0.263,0.836,0.36,1.248,0.519c0.714,0.274,1.612,0.341,2.384,0.142c0.426-0.109,0.829-0.208,1.271-0.235
		c0.389-0.024,0.421,0.05,0.582,0.393c0.129,0.275,0.304,0.613,0.586,0.761c0.536,0.284,0.742-0.148,1.177-0.357
		c0.436-0.21,0.93-0.189,1.395-0.259c0.485-0.073,0.967-0.18,1.464-0.183c0.877-0.006,1.761,0.136,2.646,0.145
		c0.684,0.007,1.495-0.049,1.964,0.537c0.239,0.3,0.329,0.694,0.558,1.006c0.283,0.384,0.69,0.827,1.176,0.942
		c0.755,0.18,1.897-1.236,2.52-0.841c0.249,0.158,0.297,0.621,0.579,0.825c0.335,0.242,0.81,0.357,1.18,0.567
		c0.474-0.281,0.498-0.91,0.793-1.327c0.295-0.417,0.925-0.689,1.368-0.911c0.405-0.203,0.847-0.446,1.292-0.542
		c0.578-0.125,1.159-0.025,1.737-0.089c0.149,0.324,0.107,0.647,0.465,0.809c0.242,0.109,0.625,0.132,0.892,0.155
		c0.237,0.021,0.411-0.122,0.588-0.278c0.158-0.14,0.189-0.328,0.325-0.48c0.148-0.167,0.447-0.224,0.664-0.213
		c0.133,0.007,0.266,0.049,0.401,0.038c0.198-0.016,0.378-0.13,0.572-0.18c0.362-0.092,0.688,0.167,1.036,0.067
		c0.289-0.083,0.55-0.301,0.855-0.37c0.649-0.146,1.278-0.078,1.824,0.312c0.237,0.17,0.504,0.294,0.743,0.458
		c0.21,0.145,0.49,0.38,0.379,0.645c-0.109,0.259-0.418,0.498-0.276,0.81c0.065,0.145,0.23,0.23,0.327,0.351
		c0.099,0.123,0.167,0.235,0.287,0.346c0.609,0.564,1.134,1.21,1.667,1.842c0.478,0.567,1.099,1.33,1.803,1.617
		c0.241,0.098,0.578,0.109,0.841,0.115c0.522,0.012,1.046,0.001,1.568,0c0.285-0.001,0.478,0.018,0.746,0.125
		c0.269,0.107,0.498,0.285,0.751,0.426c0.239,0.132,0.413,0.318,0.635,0.467c0.141,0.094,0.317,0.132,0.453,0.228
		c0.77,0,1.415-0.049,2.153,0.154c0.655,0.18,0.987,0.421,1.445,0.915c0.425,0.458,0.933,0.918,1.437,1.289
		c0.448,0.33,0.864,0.24,1.383,0.339c0.372,0.07,0.705,0.24,1.04,0.419c0.722,0.386,1.444,0.79,2.193,1.124
		c0.458,0.204,0.905,0.416,1.357,0.638c0.415,0.203,0.857,0.309,1.275,0.501c0.775,0.357,1.815,0.814,2.407,1.444
		c0.33,0.351,0.634,0.751,0.95,1.11c0.403,0.458,0.837,0.758,1.092,1.303c0.365,0.782,0.644,1.59,1.015,2.357
		c0.142,0.293,0.317,0.499,0.506,0.77c0.253,0.362,0.293,0.606,0.294,1.043c0.112,0.18,0.2,0.361,0.196,0.574
		c-0.003,0.161-0.105,0.307-0.064,0.466c0.052,0.203,0.23,0.365,0.284,0.576c0.043,0.17,0.042,0.37,0.079,0.548
		c0.053,0.252,0.17,0.447,0.27,0.684c0.114,0.271,0.209,0.525,0.373,0.772c0.136,0.204,0.367,0.365,0.481,0.575
		c0.095,0.175,0.029,0.389,0.071,0.576c0.071,0.322-0.262,0.417-0.459,0.663c-0.134,0.167-0.214,0.365-0.286,0.565
		c-0.083,0.233-0.19,0.402-0.365,0.595c-0.204,0.224-0.381,0.452-0.568,0.687c0.158,0.183,0.345,0.236,0.361,0.514
		c0.014,0.25-0.034,0.542,0.316,0.516c0.414-0.03,0.647-0.239,0.795-0.641c0.059-0.158,0.182-0.32,0.223-0.478
		c0.027-0.104-0.002-0.233,0.016-0.342c0.267,0.137,0.332,0.332,0.484,0.577c0.138,0.222,0.313,0.397,0.531,0.538
		c0.259-0.17,0.467-0.46,0.688-0.67c0.298-0.283,0.611-0.545,0.912-0.824c0.34-0.315,0.64-0.39,1.091-0.419
		c0.157-0.01,0.317,0.008,0.475,0.001c0.232-0.011,0.352-0.107,0.551-0.232c0.289-0.182,0.799-0.579,1.14-0.41
		c0.168,0.083,0.377,0.235,0.452,0.414c0.06,0.143,0.008,0.296,0.071,0.434c0.098,0.217,0.354,0.421,0.494,0.614
		c0.115,0.156,0.236,0.304,0.321,0.479c0.085,0.175,0.146,0.367,0.248,0.535c0.107,0.177,0.29,0.29,0.423,0.445
		c0.337,0.393,0.719,0.646,0.316,1.14c-0.324,0.399-1.019,0.627-1.054,1.208c-0.019,0.31,0.088,0.578,0.072,0.894
		c-0.018,0.35-0.287,0.654-0.605,0.782c-0.163-0.124-0.254-0.302-0.462-0.377c-0.198-0.071-0.418-0.013-0.62-0.051
		c-0.415-0.08-0.749-0.155-1.164-0.035c-0.192,0.055-0.244,0.098-0.383-0.017c-0.152-0.124-0.277-0.374-0.386-0.539
		c-0.208-0.315-0.336-0.641-0.506-0.978c-0.163-0.323-0.347-0.784-0.717-0.932c-0.353-0.141-0.883,0.014-1.23,0.061
		c-0.222,0.03-0.43,0.032-0.636-0.048c-0.098-0.038-0.423-0.218-0.521-0.202c-0.383,0.06-0.234,0.821-0.289,1.061
		c-0.11,0.483-0.336,0.86-0.527,1.304c-0.131,0.306-0.106,0.557-0.287,0.858c-0.144,0.239-0.282,0.475-0.354,0.747
		c-0.305,0.223-0.515,0.6-0.733,0.895c-0.24,0.324-0.574,0.6-0.89,0.848c-0.546,0.43-1.379,0.726-1.351,1.555
		c0.013,0.404,0.362,0.602,0.505,0.945c0.136,0.326,0.278,0.473,0.648,0.547c0.361,0.072,0.604,0.181,0.869,0.462
		c0.12,0.129,0.224,0.275,0.336,0.411c0.143,0.172,0.171,0.327,0.276,0.509c0.17,0.296,0.322,0.601,0.398,0.941
		c0.049,0.221,0.084,0.439,0.193,0.64c0.07,0.128,0.217,0.248,0.213,0.402c-0.006,0.189,0.048,0.419,0.033,0.606
		c-0.016,0.198-0.073,0.378-0.049,0.584c0.016,0.133,0.108,0.3,0.067,0.437c-0.048,0.16-0.294,0.347-0.389,0.507
		c-0.131,0.218-0.282,0.503-0.135,0.737c0.066,0.105,0.177,0.183,0.244,0.289c0.114,0.178,0.159,0.391,0.25,0.581
		c0.076,0.157,0.162,0.294,0.229,0.449c0.063,0.144,0.114,0.25,0.24,0.34c0.263,0.188,0.565,0.128,0.845,0.242
		c0.152,0.062,0.28,0.155,0.445,0.176c0.199,0.026,0.365-0.046,0.552-0.087c0.449-0.1,0.623-0.431,0.949-0.731
		c0.242-0.223,0.961-0.48,0.971-0.837c0.005-0.175-0.136-0.187-0.189-0.315c-0.066-0.16,0.011-0.413,0.049-0.566
		c0.088-0.363,0.09-0.566-0.04-0.902c-0.144-0.371-0.075-0.746-0.226-1.119c-0.075-0.186-0.216-0.352-0.266-0.545
		c-0.053-0.206,0.017-0.414,0.068-0.617c0.093-0.375,0.151-0.782,0.278-1.145c0.141-0.403,0.547-0.549,0.435-1.034
		c-0.035-0.149-0.129-0.332-0.045-0.483c0.071-0.129,0.327-0.278,0.458-0.368c0.233-0.163,0.424-0.367,0.652-0.534
		c0.094-0.069,0.264-0.196,0.387-0.122c0.176,0.107,0.129,0.375,0.19,0.533c0.049,0.128,0.153,0.213,0.239,0.316
		c0.235,0.28,0.445,0.387,0.788,0.524c0.208,0.083,0.321,0.21,0.443,0.403c0.125,0.199,0.293,0.381,0.358,0.613
		c0.248,0.166,0.261,0.447,0.412,0.692c0.105,0.172,0.265,0.498,0.436,0.608c0.402,0.262,0.872-0.085,1.215-0.305
		c0.251-0.161,0.461-0.381,0.628-0.632c0.187-0.281,0.136-0.616,0.213-0.929c0.105-0.431,0.425-0.619,0.761-0.89
		c0.29-0.235,0.546-0.512,0.85-0.724c0.305-0.214,0.607-0.384,0.952-0.527c0.292-0.121,0.619-0.107,0.927-0.14
		c0.247-0.027,0.463-0.061,0.695,0.055c0.166,0.084,0.365,0.339,0.425,0.508c0.096,0.273-0.057,0.571,0.172,0.791
		c0.133,0.129,0.316,0.21,0.487,0.275c0.142,0.054,0.294,0.155,0.438,0.193c0.312,0.081,0.736-0.177,0.976-0.358
		c0.319-0.241,0.754-0.452,0.897-0.859c0.184-0.524-0.224-0.734-0.603-1.001c-0.469-0.331-0.78-0.683-0.934-1.239
		c-0.093-0.337-0.04-0.489,0.137-0.79c0.149-0.255,0.284-0.532,0.472-0.763c0.434-0.534,1.218-0.684,1.607-1.28
		c0.298-0.456,0.885-0.803,1.224-1.231c0.337-0.425,0.327-0.941,0.137-1.437c-0.103-0.269-0.149-0.529-0.21-0.811
		c-0.069-0.322-0.21-0.614-0.345-0.909c-0.151-0.329-0.288-0.559-0.566-0.801c-0.321-0.277-0.666-0.577-0.936-0.905
		c-0.236-0.286-0.409-0.624-0.536-0.961c-0.031-0.083-0.076-0.152-0.112-0.232c-0.038-0.086-0.032-0.179-0.063-0.263
		c-0.095-0.263-0.55-0.428-0.799-0.532c-0.301-0.126-0.613-0.127-0.93-0.168c-0.3-0.039-0.61-0.33-0.823-0.549
		c-0.364-0.373-0.792-0.762-1.212-1.082c-0.236-0.18-0.638-0.53-0.925-0.332c-0.322,0.221-0.454,0.769-0.471,1.117
		c-0.033,0.639-0.647,1.11-1.054,1.545c-0.402,0.43-0.864,0.665-1.409,0.326c-0.365-0.227-0.744-0.466-0.993-0.822
		c-0.192-0.273-0.271-0.643-0.369-0.96c-0.131-0.42-0.388-0.739-0.555-1.14c-0.142-0.341-0.222-0.875-0.625-1.033
		c-0.076-0.175-0.322-0.284-0.498-0.336c-0.249-0.073-0.447-0.172-0.651-0.359c-0.171-0.157-0.317-0.332-0.445-0.525
		c-0.201-0.302-0.466-0.544-0.696-0.824c-0.31-0.378-0.363-0.914-0.803-1.183c-0.198-0.121-0.449-0.138-0.679-0.17
		c-0.434-0.059-0.862-0.072-1.302-0.075c-0.209-0.001-0.415-0.039-0.534-0.227c-0.126-0.198-0.066-0.429-0.125-0.64
		c-0.079-0.281-0.319-0.477-0.482-0.705c-0.152-0.213-0.31-0.454-0.412-0.694c-0.183-0.427-0.356-0.889-0.596-1.286
		c-0.148-0.245-0.485-0.316-0.723-0.468c-0.319-0.204-0.646-0.379-0.977-0.559c-0.282-0.153-0.513-0.29-0.72-0.541
		c-0.264-0.321-0.469-0.679-0.747-0.992c-0.079-0.09-0.163-0.234-0.256-0.305c-0.105-0.08-0.285-0.126-0.409-0.171
		c-0.425-0.151-0.894-0.013-1.3-0.177c-0.273-0.11-0.499-0.328-0.716-0.529c-0.208-0.192-0.38-0.419-0.582-0.615
		c-0.22-0.213-0.485-0.384-0.729-0.565c-0.403-0.298-0.762-0.636-1.185-0.909c-0.411-0.265-0.816-0.659-1.098-1.068
		c-0.379-0.551-0.354-2.228-1.352-2.014c-0.298,0.064-0.563,0.299-0.871,0.344c-0.197,0.029-0.432-0.044-0.608-0.129
		c-0.257-0.123-0.49-0.293-0.692-0.501c-0.239-0.247-0.565-0.523-0.711-0.84c-0.088-0.19-0.09-0.43-0.106-0.636
		c-0.017-0.222-0.07-0.436-0.092-0.655c-0.062-0.633,0.553-0.954,0.571-1.55c-0.262-0.269-0.546-0.591-0.62-0.974
		c-0.067-0.35,0.012-0.71,0.016-1.059c0.002-0.183-0.061-0.348-0.007-0.525c0.064-0.208,0.323-0.304,0.378-0.484
		c0.057-0.185-0.222-0.313-0.365-0.44c-0.205-0.183-0.418-0.37-0.601-0.576c-0.316-0.357-0.331-0.576-0.314-1.031
		c0.007-0.192,0-0.385,0-0.576c0-0.2,0.06-0.441-0.019-0.626c-0.187-0.432-0.637-0.354-0.995-0.491
		c-0.349-0.132-0.667-0.331-0.982-0.52c-0.157-0.094-0.334-0.157-0.49-0.254c-0.337-0.211-0.518-0.497-0.768-0.785
		c-0.191-0.22-0.473-0.416-0.544-0.711c-0.049-0.205-0.012-0.456-0.012-0.667c0-0.736-0.083-1.551,0.375-2.175
		c0.207-0.281,0.255-0.53,0.023-0.806c-0.222-0.264-0.598-0.424-0.885-0.587c-0.129,0.26,0.037,0.626-0.016,0.907
		c-0.062,0.327-0.375,0.55-0.651,0.711c-0.27-0.194-0.341-0.599-0.559-0.841c-0.164-0.181-0.346-0.313-0.498-0.515
		c-0.203-0.271-0.524-1.147,0.134-1.089c0.317,0.028,0.594,0.349,0.869,0.487c0.292,0.146,0.648,0.168,0.366-0.252
		c-0.353-0.527-0.767-1.037-1.053-1.609c-0.144-0.288-0.197-0.56-0.406-0.823c-0.165-0.208-0.396-0.402-0.493-0.653
		c-0.096-0.248-0.42-0.305-0.621-0.473c-0.248-0.207-0.469-0.541-0.644-0.813c-0.147-0.228-0.231-0.488-0.373-0.72
		c-0.15-0.245-0.315-0.52-0.388-0.801c-0.08-0.309-0.091-0.623-0.204-0.932c-0.128-0.351-0.379-0.631-0.6-0.932
		c-0.314-0.427-0.241-0.705-0.231-1.216c0.007-0.365-0.172-0.603-0.357-0.9c-0.109-0.175-0.234-0.366-0.304-0.561
		c-0.057-0.158-0.043-0.318-0.069-0.481c-0.053-0.333-0.234-0.518-0.427-0.786c-0.154-0.054-0.235-0.316-0.346-0.432
		c-0.189-0.199-0.422-0.363-0.616-0.558c-0.213-0.214-0.347-0.46-0.496-0.717c-0.233-0.401-0.515-0.596-0.713-0.785
		c-0.621-0.595-3.136-3.176-5.056-5.608c-0.974-1.234-1.558-1.983-2.136-3.151c-0.463-0.935-0.411-1.106-0.837-1.709
		c-0.81-1.146-1.558-1.32-1.905-2.403c-0.167-0.521-0.051-0.661-0.285-1.068c-0.326-0.568-0.735-0.616-1.513-1.157
		c-0.261-0.181-1.111-0.8-1.78-1.762c-0.616-0.887-0.4-1.09-0.872-1.478c-0.797-0.654-1.519-0.163-2.172-0.837
		c-0.153-0.157-0.333-0.574-0.694-1.406c-0.373-0.86-0.351-0.969-0.552-1.14c-0.508-0.43-0.94,0.012-1.709-0.391
		c-0.255-0.135-0.574-0.464-1.21-1.122c-0.436-0.451-0.446-0.507-0.623-0.606c-0.558-0.31-0.87,0.017-1.585-0.142
		c-0.776-0.173-1.321-0.762-1.62-1.086c-0.486-0.526-0.445-0.755-0.837-0.979c-0.52-0.297-0.962-0.106-1.495-0.124
		c-0.589-0.02-1.024-0.285-2.723-1.851c-2.443-2.252-2.095-2.213-2.777-2.599c-1.039-0.588-1.804-0.653-2.492-1.567
		c-0.287-0.381-0.259-0.509-0.677-1.068c-0.641-0.859-0.91-0.83-1.513-1.566c-0.751-0.919-0.532-1.208-1.246-1.905
		c-0.269-0.263-0.716-0.699-1.406-0.89c-0.861-0.238-1.123,0.176-2.029,0c-0.412-0.08-0.493-0.192-1.745-0.926
		c-1.648-0.967-1.496-0.766-2.047-1.157c-1.347-0.956-1.423-1.565-2.136-1.602c-0.558-0.029-0.618,0.338-1.816,0.819
		c-0.948,0.38-1.562,0.627-2.154,0.427c-0.74-0.249-0.531-0.887-1.691-2.207c-0.912-1.038-1.35-0.997-1.744-1.869
		c-0.124-0.275-0.265-0.688-0.623-1.264c-0.295-0.476-0.448-0.716-0.712-0.836c-0.52-0.238-1.011,0.183-1.744,0.445
		c-1.37,0.489-1.789-0.22-3.347,0.036c-0.625,0.103-0.634,0.229-2.902,1.371c-1.831,0.921-2.747,1.383-3.115,1.442
		c-2.176,0.349-3.099-1.122-4.415-0.428c-1.098,0.58-1.277,2.039-2.083,1.976c-0.506-0.039-0.659-0.633-1.086-0.57
		c-0.531,0.079-0.412,1.017-1.211,1.709c-0.711,0.617-1.22,0.23-1.798,0.873c-0.518,0.576-0.188,0.975-0.783,1.566
		C15.906,13.624,15.469,13.65,15.346,14.106z"/>
	<path fill="#1E8346" d="M170.379,130.101c0.491,0.566,0.888,1.147,1.31,1.77c0.233,0.344,0.471,0.58,0.792,0.826
		c0.321,0.247,0.277,0.602,0.539,0.928c0.58,0.722,1.305,0.553,2.11,0.588c0.375,0.016,0.739,0.167,1.112,0.242
		c0.382,0.077,0.788,0.059,1.175,0.1c0.297,0.032,0.598,0.029,0.898,0.032c0.537,0.003,0.784,0.016,1.197,0.38
		c0.561,0.496,1.094,1.068,1.176,1.843c0.032,0.296-0.05,0.537,0.244,0.752c0.301,0.22,0.671,0.068,0.932,0.389
		c0.463,0.57,0.321,1.439,0.792,1.994c0.356,0.42,0.846,0.73,1.203,1.145c0.326,0.378,0.657,0.749,1.008,1.111
		c0.46,0.475,1.538,0.995,1.478,1.785c-0.045,0.603-0.351,0.859-0.347,1.467c0.002,0.355,0.047,0.795,0.248,1.077
		c0.313,0.439,0.549,0.645,0.394,1.228c-0.151,0.568-0.477,1.058-0.482,1.662c-0.003,0.493,0.083,0.979,0.162,1.464
		c0.086,0.529,0.491,0.964,0.535,1.493c0.019,0.229-0.008,0.377,0.095,0.592c0.124,0.258,0.337,0.428,0.514,0.645
		c0.393,0.481,0.201,0.837,0.217,1.401c0.017,0.595-0.038,1.083-0.075,1.673c-0.036,0.579-0.232,1.34-0.099,1.909
		c0.142,0.605,0.609,1.059,0.72,1.69c0.078,0.445-0.08,0.868-0.093,1.308c-0.016,0.58,0.217,0.929,0.47,1.432
		c0.203,0.404,0.401,0.836,0.205,1.265c-0.202,0.444-0.598,0.871-0.648,1.372c-0.049,0.491,0.313,0.902,0.456,1.342
		c0.202,0.619-0.151,0.89-0.569,1.282c-0.269,0.253-0.217,0.302,0.027,0.594c0.169,0.202,0.353,0.434,0.486,0.66
		c-0.16,0.317-0.455,0.466-0.555,0.812c-0.068,0.233-0.102,0.483-0.138,0.722c-0.081,0.535-0.08,1.085-0.133,1.625
		c-0.045,0.462,0.038,0.915-0.299,1.253c-0.408,0.409-0.874,0.801-1.23,1.254c-0.399,0.51-0.539,0.999-0.555,1.646
		c-0.011,0.449,0.11,0.837,0.135,1.274c0.033,0.577-0.279,0.971-0.593,1.424c-0.369,0.532-0.477,0.885-0.477,1.526
		c0,0.427-0.392,0.699-0.641,1.04c-0.277,0.38-0.625,0.702-0.785,1.142c-0.337,0.927-1.114,1.657-1.771,2.372
		c-0.342,0.372-0.687,0.784-1.19,0.931c-0.516,0.151-0.997-0.03-1.495-0.119c-0.503-0.09-0.964-0.196-1.472-0.101
		c-0.609,0.114-1.137,0.406-1.783,0.398c-0.264-0.003-0.522-0.085-0.786-0.085c-0.373,0-0.822,0.118-1.175,0.248
		c-0.252,0.093-0.485,0.252-0.745,0.326c-0.303,0.086-0.612,0.11-0.915,0.215c-0.476,0.165-0.89,0.449-1.369,0.603
		c-0.461,0.148-0.94,0.226-1.382,0.421c-0.249,0.109-0.474,0.282-0.727,0.384c-0.263,0.105-0.54,0.14-0.799,0.274
		c-0.52,0.271-0.981,0.639-1.546,0.817c-0.458,0.145-0.952,0.254-1.426,0.319c-0.465,0.063-0.863,0.284-1.292,0.464
		c-0.521,0.219-1.174,0.371-1.551,0.829c-0.387,0.47-0.764,0.881-1.247,1.287c-0.489,0.411-1.043,0.867-1.708,0.892
		c-0.762,0.028-1.521,0.354-2.284,0.32c-0.24-0.011-0.419-0.251-0.668-0.294c-0.303-0.053-0.713-0.073-1.017-0.005
		c-0.471,0.105-0.954,0.515-1.474,0.324c-0.363-0.133-0.659-0.539-0.954-0.768c-0.755-0.586-1.63-0.987-2.36-1.609
		c-0.363-0.309-0.648-0.691-0.943-1.061c-0.328-0.412-0.799-0.643-1.137-1.045c-0.582-0.692-0.934-1.478-1.664-2.047
		c-0.376-0.293-0.78-0.572-1.112-0.911c-0.359-0.368-0.624-0.823-0.997-1.175c-0.592-0.556-1.504-1.107-1.533-2.014
		c-0.011-0.329,0.127-0.662,0.085-0.996c-0.049-0.381-0.295-0.64-0.485-0.959c-0.275-0.459-0.481-0.855-0.91-1.2
		c-0.296-0.239-0.49-0.453-0.679-0.77c-0.268-0.448-0.714-0.801-0.886-1.298c-0.129-0.375,0.004-0.643-0.006-1.019
		c-0.012-0.458,0.056-1.145-0.212-1.52c-0.252-0.352-0.637-0.813-0.993-1.062c-0.378-0.264-0.993-0.449-1.239-0.888
		c-0.141-0.252-0.182-0.587-0.322-0.863c-0.156-0.308-0.319-0.52-0.117-0.833c0.227-0.354,0.582-0.685,0.871-0.99
		c0.2-0.211,0.68-0.529,0.704-0.84c0.021-0.281,0.411-0.516,0.454-0.789c0.023-0.147,0.019-0.323,0.027-0.473
		c0.022-0.428,0.044-0.816,0-1.247c-0.081-0.797-0.52-1.52-0.457-2.357c0.077-1.023,1.11-1.464,1.395-2.365
		c0.093-0.291,0.146-1.033,0.022-1.32c-0.182-0.42-0.643-0.77-0.721-1.249c-0.093-0.578-0.025-1.226-0.215-1.789
		c-0.185-0.549-0.158-1.14-0.26-1.722c-0.063-0.358-0.174-0.751-0.083-1.113c0.1-0.399,0.316-0.75,0.484-1.116
		c0.183-0.397,0.365-0.765,0.39-1.211c0.023-0.405-0.171-0.694-0.21-1.078c-0.098-0.967,0.613-1.547,0.931-2.39
		c0.121-0.32,0.174-0.663,0.28-0.988c0.105-0.323,0.228-0.667,0.207-1.012c-0.016-0.254-0.098-0.487-0.107-0.742
		c-0.016-0.424,0.163-0.66,0.413-0.982c0.318-0.409,0.67-0.856,0.844-1.351c0.105-0.301,0.183-0.597,0.318-0.888
		c0.137-0.296,0.368-0.543,0.528-0.832c0.15-0.27,0.244-0.571,0.433-0.817c0.21-0.273,0.437-0.563,0.714-0.765
		c0.25-0.182,0.567-0.376,0.756-0.615c0.015-0.23,0.182-0.439,0.251-0.66c0.049-0.157,0.066-0.339,0.08-0.504
		c0.039-0.442,0.035-0.89,0.263-1.289c0.193-0.338,0.483-0.582,0.395-1c-0.097-0.46-0.196-0.666,0.052-1.142
		c0.396-0.758,1.189-1.238,1.683-1.932c0.259-0.364,0.308-0.823,0.537-1.19c0.229-0.366,0.696-0.485,0.958-0.821
		c0.192-0.245,0.371-0.594,0.427-0.898c0.065-0.352-0.104-0.491-0.188-0.812c-0.105-0.395,0.028-0.455,0.344-0.598
		c0.348-0.157,0.584-0.439,0.893-0.638c0.596-0.385,1.416-0.656,2.126-0.613c0.991,0.06,1.876,0.831,2.889,0.529
		c1.038-0.31,2.02-1.079,3.097-1.23c0.591-0.083,1.2,0.096,1.78-0.043c0.316-0.076,0.614-0.196,0.95-0.165
		c0.391,0.035,0.695,0.264,1.061,0.35c0.767,0.18,1.697,0.068,2.346-0.203c0.291-0.122,0.615-0.182,0.928-0.197
		c0.189-0.01,0.389,0.024,0.577,0.002c0.213-0.024,0.433-0.131,0.652-0.112c0.734,0.063,1.459,0.66,2.013,1.082
		C169.217,129.206,170.038,129.707,170.379,130.101z"/>
</g>
</svg>
