<?xml version="1.0" encoding="utf-8"?>
<!-- Generator: Adobe Illustrator 26.0.3, SVG Export Plug-In . SVG Version: 6.00 Build 0)  -->
<svg version="1.1" xmlns="http://www.w3.org/2000/svg" xmlns:xlink="http://www.w3.org/1999/xlink" x="0px" y="0px"
	 viewBox="0 0 200 200" enable-background="new 0 0 200 200" xml:space="preserve">
<g id="Layer_1">
	<g id="Layer_1_00000061442898653323928190000005571608892069918396_">
		<g id="Layer_1_00000098929087308412571940000004538787532203942811_">
		</g>
	</g>
</g>
<g id="Isolation_Mode">
	<g>
		<path fill="#1E8346" d="M189.219,8.174l-5.265,0.878l0.22-1.133h-2.633v0.567l-2.176-1.435l-0.247,1.001l-2.331,1.001
			l-1.728-1.344l-0.74,0.713c-0.075,0.456,0.005,0.845-0.574,0.826c0.084,0.111,0.134,0.303,0.188,0.423
			c0.068,0.149,0.177,0.276,0.164,0.449c-0.165,0.006-0.331,0.015-0.492,0.022c-0.084,0.119-0.083,0.399-0.107,0.548
			c-0.38,0.046-0.714-0.088-0.771,0.409c-0.033,0.286-0.114,0.627-0.112,0.906c-0.141,0.045-0.329-0.051-0.473-0.077
			c-0.181-0.032-0.392-0.059-0.571-0.08c-0.11-0.012-0.205-0.061-0.304,0.008c-0.161,0.113-0.059,0.385-0.151,0.486
			c-0.111,0.122-0.234,0.04-0.359,0.12c-0.162,0.103-0.199,0.275-0.224,0.449c-0.049,0.342-0.18,0.697-0.158,1.048
			c-0.398-0.291-0.033-0.697-0.751-0.368c-0.492,0.225-0.698,0.366-1.2,0.157c-0.233-0.097-0.815-0.192-1.003-0.006
			c-0.15,0.148-0.03,0.317-0.129,0.468c-0.085,0.13-0.263,0.137-0.401,0.158c0.056,0.224,0.342,0.845,0.077,1.058
			c-0.172,0.138-0.464-0.094-0.609-0.161c-0.274-0.125-0.599-0.192-0.897-0.21c-0.121,0.325-0.131,0.411-0.464,0.566
			c-0.262,0.121-0.313,0.204-0.162,0.483c-0.253,0.132-0.367-0.165-0.539-0.251c-0.181-0.091-0.558-0.072-0.706,0.077
			c-0.138,0.139-0.097,0.392-0.247,0.531c-0.159,0.147-0.338,0.127-0.54,0.057c0.071,0.063,0.122,0.147,0.145,0.238
			c-0.331,0.338-1.009,0.091-1.436,0.36c-0.34,0.215-0.876,0.856-1.291,0.86c-0.112-0.155-0.186-0.43-0.337-0.547
			c-0.184-0.142-0.217-0.018-0.405,0.136c-0.367,0.301-0.517,0.173-0.735-0.241c-0.368,0.093-0.742,0.454-1.099,0.619
			c-0.006,0.231,0.298,0.42,0.329,0.681c-0.062-0.026-0.13-0.011-0.192,0c-0.375,0.066-0.826-0.138-1.213-0.137
			c-0.592,0.001-1.148,0.093-1.732,0.164c-0.322,0.039-0.816,0.204-1.13,0.067c-0.344-0.15-0.12-0.642-0.23-0.919
			c-0.216,0.161-0.766,0.589-1.069,0.528c-0.149-0.03-0.452-0.349-0.543-0.47c-0.189-0.251-0.197-0.474-0.5-0.604
			c-0.205-0.088-0.475-0.11-0.681-0.154c-0.058,0.721,0.611,1.493,0.818,2.156l-4.086,0.85l-1.536-0.905v-1.042l-1.673,1.179
			l0.521,2.304l-1.015,0.768l-0.987-0.878l-1.59-0.082l0.164-0.576l-0.85-0.823l-2.057,3.154l-1.975,0.247l-0.247,0.85l-1.344-0.822
			l-0.878,0.219l-0.521-0.631l0.494-0.685l-4.004-0.027l-0.192-0.604h-1.39l-0.384-0.685l-1.207,1.061v-1.079l-1.426-0.896v-1.444
			h-1.243l0.768-0.658l-1.353-1.042v-0.914l-1.39-0.677l-3.071,0.622l-1.353,2.212l-2.121,0.804l-1.81,1.7l0.311,0.64l-1.225,1.426
			l1.134,0.494l-0.659,1.152h0.75l-0.804,1.353l-1.773,1.152l-1.444-1.408l-1.152,0.64c0.072,0.334,0.039,0.596,0.055,0.932
			c0.014,0.303,0.154,0.554,0.183,0.822c0.07,0.662-0.161,1.399-0.685,1.829c-0.156,0.128-0.307,0.245-0.48,0.349
			c-0.098,0.06-0.281,0.157-0.339,0.242c-0.124,0.181-0.032,0.514-0.014,0.721c0.022,0.246,0.061,0.539-0.023,0.772
			c-0.109,0.303-0.381,0.597-0.588,0.842c-0.223,0.264-0.541,0.532-0.613,0.885c-0.027,0.132-0.028,0.25-0.073,0.379
			c-0.045,0.13-0.218,0.33-0.214,0.455c0.273,0.076,0.713-0.151,0.844,0.165c0.127,0.305,0.053,0.69,0.302,0.949
			c0,0.136-0.027,0.311,0,0.447c0.031,0.157,0.18,0.374,0.276,0.502c0.193,0.26,0.448,0.334,0.715,0.476
			c0.131,0.07,0.325,0.168,0.355,0.333c0.029,0.159-0.186,0.316-0.275,0.426c-0.138,0.171-0.28,0.336-0.424,0.5
			c-0.238,0.27-0.265,0.614-0.405,0.935c-0.103,0.236-0.377,0.308-0.622,0.272c-0.237-0.035-0.491-0.15-0.725-0.215
			c-0.29-0.081-0.582-0.156-0.876-0.226c-0.268-0.064-0.566-0.114-0.823-0.007c-0.274,0.114-0.552,0.136-0.852,0.147
			c-0.203,0.008-0.419-0.01-0.598,0.097c-0.118,0.071-0.185,0.167-0.326,0.196c-0.274,0.056-0.49-0.024-0.758,0.093
			c-0.371,0.161-0.792,0.484-1.01,0.825c-0.139,0.218-0.366,0.433-0.627,0.498c-0.199,0.05-0.516-0.142-0.622,0.075
			c-0.086,0.178-0.015,0.456,0.045,0.628c0.078,0.226,0.143,0.445,0.06,0.69c-0.046,0.133-0.137,0.256-0.215,0.372
			c-0.076,0.112-0.127,0.243-0.201,0.352c-0.091,0.133-0.126,0.206-0.175,0.354c-0.052,0.157-0.166,0.272-0.254,0.41
			c-0.076,0.118-0.186,0.247-0.242,0.374c-0.019,0.042-0.011,0.089-0.033,0.136c-0.046,0.096-0.15,0.162-0.217,0.243
			c-0.19,0.232-0.334,0.523-0.559,0.727c-0.268,0.243-0.616,0.103-0.911,0.001c-0.183-0.063-0.252-0.038-0.427,0.09
			c-0.161,0.118-0.371,0.297-0.449,0.481c-0.285,0.121-0.507,0.497-0.711,0.718c-0.038,0.041-0.211,0.271-0.275,0.282
			c-0.11,0.019-0.418-0.369-0.506-0.454c-0.213,0.079-0.334,0.351-0.346,0.553c-0.012,0.208-0.126,0.375-0.23,0.553
			c-0.081,0.141-0.178,0.254-0.341,0.305c-0.217,0.066-0.316-0.042-0.481-0.162c-0.159-0.115-0.321-0.183-0.499-0.261
			c-0.15-0.066-0.276-0.166-0.447-0.125c-0.124,0.03-0.249,0.144-0.349,0.226c-0.409,0.333-0.822,0.671-1.221,1.024
			c-0.178,0.157-0.308,0.355-0.474,0.525c-0.162,0.166-0.359,0.323-0.497,0.505c-0.12,0.157-0.405-0.001-0.583,0.013
			c-0.165,0.013-0.352,0.02-0.515,0.041c-0.137,0.018-0.277,0.087-0.397,0.151c-0.055,0.029-0.134,0.062-0.177,0.108
			c-0.112,0.118-0.069,0.298-0.097,0.449c-0.067,0.359-0.453,0.138-0.671,0.045c-0.375-0.161-0.744-0.161-1.071,0.116
			c-0.177,0.15-0.314,0.338-0.5,0.478c-0.156,0.118-0.322,0.229-0.464,0.365c-0.25,0.24-0.437,0.489-0.448,0.844
			c-0.009,0.267,0.108,0.568,0.05,0.83c-0.084,0.379-0.455,0.656-0.584,1.011c-0.065,0.178-0.123,0.542-0.028,0.717
			c0.106,0.193,0.351,0.277,0.534,0.372c0.223,0.115,0.353,0.28,0.37,0.538c0.019,0.283-0.097,0.473-0.233,0.71
			c-0.198,0.347-0.479-0.113-0.704-0.204c-0.343-0.138-0.769-0.015-1.099,0.079c-0.262,0.075-0.642,0.15-0.916,0.082
			c-0.276-0.069-0.557-0.508-0.648-0.756c-0.059-0.162-0.04-0.324-0.068-0.493c-0.029-0.179-0.058-0.353-0.099-0.531
			c-0.066-0.282-0.182-0.411-0.381-0.623c-0.152-0.163-0.308-0.368-0.485-0.504c-0.233-0.178-0.658-0.462-0.96-0.331
			c-0.383,0.166-0.495,0.69-0.906,0.825l-0.315-0.699l-5.21-3.099l1.385-2.879l-0.398-0.754c-0.191,0.229-0.706,0.16-0.979,0.27
			c-0.334,0.133-0.679,0.277-0.974,0.474c-0.691,0.46-1.556,0.599-2.355,0.791c-0.377,0.091-0.721,0.251-0.949,0.581
			c-0.112,0.164-0.295,0.484-0.26,0.692c0.041,0.241,0.269,0.475,0.198,0.734c-0.077,0.282-0.575,0.309-0.811,0.384
			c-0.186,0.059-0.497,0.105-0.65,0.231c-0.11,0.091-0.119,0.19-0.129,0.356c-0.016,0.271-0.036,0.54-0.036,0.812l-1.536,1.298
			v0.768l-2.834,2.212v1.481l-2.084,2.176l-2.742,0.201l-1.499-1.335l-1.334,0.932l-2.048-1.408c-0.273-0.103-0.75,0.09-0.993,0.176
			c-0.192,0.068-0.378,0.163-0.576,0.209c-0.22,0.051-0.463,0.016-0.673,0.099c-0.162,0.064-0.298,0.196-0.464,0.261
			c-0.106,0.041-0.222,0.067-0.331,0.098c-0.225,0.064-0.455,0.118-0.687,0.147c-0.492,0.061-1.017,0.138-1.506,0.072
			c-0.196-0.026-0.384-0.063-0.58-0.102c-0.16-0.032-0.597,0.001-0.661-0.159c-0.096-0.025-0.184-0.132-0.277-0.177
			c-0.119-0.057-0.267-0.124-0.392-0.165c-0.207-0.067-0.399-0.036-0.586,0.07c-0.202,0.114-0.379,0.273-0.577,0.394
			c-0.226,0.138-0.484,0.261-0.656,0.472c-0.075,0.092-0.162,0.2-0.196,0.315c-0.036,0.12,0.01,0.159,0.055,0.268
			c0.093,0.226-0.046,0.52-0.065,0.759c-0.019,0.249-0.004,0.509,0.007,0.758c0.005,0.103,0.048,0.212,0.024,0.315
			c-0.025,0.108-0.122,0.24-0.187,0.327c-0.094,0.126-0.239,0.235-0.319,0.369c-0.065,0.11-0.107,0.247-0.162,0.367
			c-0.062,0.135-0.175,0.262-0.196,0.409c-0.011,0.074-0.027,0.253,0.001,0.323c0.047,0.118,0.064,0.147,0.193,0.217
			c0.096,0.053,0.187,0.1,0.272,0.173c0.159,0.134,0.308,0.29,0.496,0.38c0.314,0.15,0.631,0.294,0.537,0.702
			c-0.023,0.101-0.093,0.188-0.126,0.287c-0.037,0.11-0.079,0.208-0.131,0.315c-0.039,0.081-0.071,0.164-0.106,0.246
			c-0.043,0.099-0.122,0.168-0.176,0.26c-0.052,0.087-0.083,0.183-0.106,0.281c-0.022,0.089-0.068,0.155-0.1,0.242
			c-0.042,0.117-0.062,0.291-0.031,0.415c0.046,0.186,0.263,0.306,0.413,0.404c0.089,0.058,0.216,0.148,0.283,0.233
			c0.018,0.024,0.032,0.075,0.058,0.107c0.033,0.042,0.073,0.076,0.088,0.128l0.978,4.781l-0.914,1.536l1.682,1.792v2.559
			l-1.956,1.573l-3.236-2.066l-3.327,2.066c0.215,0.352,0.192,1.012,0.202,1.41c0.017,0.695-0.558,1.003-0.76,1.626
			c-0.061,0.187-0.139,0.581-0.1,0.775c0.061,0.301,0.41,0.518,0.604,0.729c0.204,0.222,0.117,0.319-0.084,0.544
			c-0.084,0.095-0.18,0.173-0.27,0.261c-0.081,0.08-0.337,0.267-0.363,0.384c-0.042,0.187,0.309,0.428,0.359,0.653
			c0.046,0.212,0.056,0.341,0.174,0.51c-0.052,0.347-0.436,0.587-0.682,0.81c-0.175,0.158-0.492,0.283-0.612,0.473
			c-0.114,0.18-0.114,0.482-0.113,0.685c0.001,0.21-0.043,0.403-0.073,0.61l-3.583,2.267l-0.585-0.841l-9.781,0.64
			c-0.023,0.128-0.132,0.226-0.151,0.357c-0.026,0.174,0.002,0.249-0.129,0.391c-0.215,0.234-0.561,0.34-0.842,0.472
			c-0.285,0.133-0.55,0.237-0.79,0.449c-0.16,0.141-0.196,0.16-0.391,0.179c-0.061,0.006-0.115,0.003-0.171,0.039
			c-0.06,0.038-0.062,0.09-0.117,0.14c0.063,0.16,0.184,0.304,0.349,0.328c0.23,0.034,0.472-0.043,0.706-0.024
			c0.22,0.018,0.425,0.082,0.642,0.019c0.175-0.05,0.462-0.197,0.651-0.116c0.145,0.062,0.125,0.276-0.006,0.337
			c-0.104,0.049-0.274,0.011-0.385,0.016c-0.18,0.008-0.359,0.046-0.539,0.055c-0.466,0.023-0.839,0.301-1.29,0.344
			c-0.315,0.03-0.622-0.074-0.936,0c-0.271,0.064-0.504,0.225-0.78,0.118c-0.124-0.048-0.235-0.124-0.362-0.169
			c-0.164-0.057-0.346-0.074-0.521-0.103c-0.134-0.023-0.242-0.036-0.364-0.096c-0.13-0.063-0.149-0.134-0.244-0.236
			c-0.071-0.076-0.223-0.189-0.324-0.232c-0.138-0.058-0.303-0.051-0.404-0.166c-0.149-0.17-0.174-0.48-0.184-0.694
			c-0.01-0.23,0.063-0.531-0.04-0.743c-0.069-0.142-0.203-0.234-0.318-0.335c-0.237-0.207-0.407-0.459-0.621-0.685
			c-0.19-0.202-0.405-0.37-0.586-0.583c-0.226-0.265-0.442-0.575-0.637-0.865c-0.059-0.088-0.093-0.176-0.146-0.266
			c-0.08-0.136-0.232-0.222-0.37-0.293c-0.142-0.073-0.366-0.156-0.523-0.186c-0.302-0.056-0.652,0.049-0.955,0.046
			c-0.282-0.003-0.599,0.255-0.821,0.433c-0.152,0.123-0.289,0.23-0.36,0.407c-0.091,0.227-0.15,0.463-0.217,0.698
			c-0.156-0.006-0.27,0.186-0.406,0.246c-0.084,0.037-0.186,0.05-0.27,0.094c-0.106,0.056-0.191,0.153-0.286,0.232
			c-0.178,0.149-0.32,0.276-0.443,0.471c-0.113,0.181-0.273,0.326-0.445,0.448c-0.315,0.224-0.606,0.355-0.605,0.792
			c0.001,0.243,0.002,0.485,0.014,0.726c0.017,0.345-0.104,0.689-0.069,1.034c0.02,0.199,0.096,0.394,0.133,0.591
			c0.029,0.155,0.005,0.313,0.104,0.446c0.097,0.129,0.244,0.238,0.396,0.291c0.168,0.058,0.376,0.005,0.517,0.127
			c0.157,0.134,0.212,0.354,0.314,0.524c0.118,0.198,0.311,0.473,0.49,0.615c0.444,0.353,1.038,0.564,1.583,0.695
			c0.225,0.054,0.419,0.133,0.63,0.235c0.3,0.146,0.513,0.398,0.814,0.541c0.227,0.108,0.5,0.271,0.656,0.475
			c0.303,0.398,0.824,0.414,1.283,0.538c0.573,0.155,0.767,0.693,1.125,1.097c0.24,0.271,0.4,0.591,0.666,0.841
			c0.258,0.242,0.549,0.447,0.817,0.675c0.272,0.232,0.581,0.414,0.792,0.705c0.151,0.208,0.298,0.391,0.486,0.568
			c0.774,0.725,1.534,1.535,2.167,2.391c0.4,0.541,0.928,0.948,1.45,1.359c0.423,0.333,0.784,0.766,1.215,1.084
			c0.198,0.146,0.456,0.246,0.671,0.369c0.37,0.211,0.601,0.649,1.017,0.722c0.392,0.069,0.823,0.273,1.147,0.503
			c0.29,0.206,0.244,0.636,0.566,0.8c0.249,0.127,0.544-0.002,0.816,0.036c0.172,0.024,0.325,0.158,0.474,0.24
			c0.183,0.1,0.279,0.252,0.378,0.432c0.086,0.155,0.057,0.31,0.019,0.471c-0.012,0.048-0.034,0.132-0.025,0.182
			c0.017,0.094,0.118,0.167,0.161,0.251c0.178,0.339-0.168,0.472-0.374,0.678c-0.111,0.111-0.352,0.348-0.264,0.521
			c0.041,0.082,0.192,0.176,0.256,0.246c0.043,0.048,0.086,0.096,0.131,0.141c0.106,0.105,0.148,0.164,0.316,0.165
			c0.187,0.001,0.338-0.01,0.486,0.12c0.175,0.154,0.259,0.311,0.504,0.369c0.186,0.044,0.376,0.093,0.522,0.226
			c0.209,0.19,0.355,0.434,0.593,0.595c0.19,0.129,0.39,0.181,0.619,0.18c0.206-0.001,0.291,0.093,0.435,0.222
			c0.076,0.068,0.186,0.142,0.288,0.161c0.095,0.017,0.144-0.012,0.229,0.037c0.1,0.057,0.156,0.164,0.246,0.234
			c0.095,0.074,0.19,0.146,0.268,0.241c0.055,0.068,0.081,0.147,0.121,0.224c0.039,0.076,0.121,0.147,0.144,0.225
			c0.111,0.363,0.401,0.475,0.731,0.68c0.192,0.119,0.377,0.259,0.579,0.366c0.247,0.131,0.5,0.204,0.696,0.403
			c0.601,0.611,1.474,0.766,2.127,1.308c0.296,0.245,0.658,0.403,0.936,0.665c0.17,0.16,0.23,0.229,0.452,0.308
			c0.301,0.107,0.56,0.229,0.808,0.429c0.453,0.365,0.897,0.71,1.428,0.963c0.226,0.108,0.489,0.229,0.73,0.285
			c0.209,0.049,0.381,0.102,0.563,0.208c0.631,0.363,1.354,0.602,2.103,0.602c0.078,0.151,0.01,0.473-0.001,0.659
			c-0.017,0.29-0.045,0.57-0.044,0.864c0,0.31-0.075,0.634,0.078,0.913c0.093,0.169,0.237,0.289,0.335,0.455
			c0.089,0.151,0.129,0.325,0.208,0.48c0.178,0.351,0.465,0.612,0.628,0.973c0.073,0.162,0.122,0.338,0.218,0.489
			c0.121,0.189,0.244,0.362,0.337,0.568c0.152,0.335,0.219,0.701,0.407,1.019c0.117,0.197,0.267,0.349,0.417,0.521
			c0.174,0.199,0.184,0.303,0.237,0.543c0.042,0.189,0.136,0.368,0.198,0.551c0.057,0.17,0.091,0.35,0.171,0.512
			c0.114,0.231,0.343,0.482,0.515,0.671c0.126,0.137,0.247,0.305,0.378,0.435c-0.024,0.268,0.079,0.69,0.205,0.933
			c0.136,0.262,0.419,0.377,0.624,0.58c0.327,0.324,0.652,0.653,0.983,0.973c0.356,0.345,0.374,0.508,0.511,0.965
			c0.137,0.456,0.517,0.623,0.841,0.927c0.29,0.273,0.393,0.681,0.657,0.999c0.445,0.536,0.759,1.099,1.201,1.637
			c0.552,0.674,1.075,1.378,1.533,2.119c0.308,0.498,0.775,0.901,1.193,1.301c0.322,0.309,0.685,0.768,1.065,0.999
			c0.29,0.177,0.535,0.328,0.82,0.538c0.312,0.23,0.59,0.31,0.944,0.43c0.791,0.267,1.259,1.049,1.854,1.566
			c0.279,0.242,0.616,0.442,0.876,0.69c0.31,0.295,0.572,0.613,0.929,0.864c0.363,0.254,0.759,0.468,1.089,0.763
			c0.212,0.189,0.359,0.539,0.594,0.664c0.118,0.063,0.413,0.045,0.537,0.09c0.158,0.056,0.341,0.126,0.491,0.191
			c0.352,0.155,0.55,0.541,0.892,0.689c0.452,0.196,0.773,0.383,1.118,0.751c0.109,0.115,0.239,0.252,0.381,0.326
			c0.118,0.061,0.217,0.033,0.286,0.148c0.193,0.317,0.105,0.773,0.307,1.094c0.242,0.385,0.683,0.585,0.999,0.899
			c0.198,0.197,0.442,0.327,0.642,0.521c0.177,0.17,0.345,0.313,0.55,0.462c0.562,0.408,1.04,0.919,1.566,1.365
			c0.239,0.203,0.524,0.353,0.773,0.54c0.229,0.173,0.484,0.194,0.743,0.31c0.517,0.231,0.781,0.781,1.246,1.079
			c0.164,0.105,0.234,0.071,0.392,0.188c0.231,0.171,0.396,0.417,0.622,0.603c0.316,0.26,0.656,0.289,0.931,0.614
			c0.401,0.473,0.923,0.892,1.388,1.32c0.254,0.234,0.538,0.443,0.781,0.687c0.208,0.209,0.333,0.478,0.535,0.688
			c0.526,0.547,1.322,0.979,1.686,1.665c0.126,0.237,0.137,0.567,0.322,0.767c0.217,0.235,0.585,0.336,0.81,0.578
			c0.178,0.192,0.274,0.469,0.399,0.701c0.189,0.353,0.395,0.713,0.557,1.08c0.225,0.513,0.219,1.012,0.68,1.424
			c0.43,0.385,1.014,0.9,1.578,1.047c0.332,0.086,0.742,0.021,1.054,0.163c0.196,0.09,0.321,0.28,0.525,0.358l3.428-5.869
			l2.304,0.247l1.015,1.316l4.333,2.084l2.605-0.027l5.32,2.688l12.688,4.827l9.361-5.668l2.889,1.792l1.243-0.549l0.475,1.024
			l2.935,0.987l1.728,1.797l1.207,0.233c0.407-0.279,0.849-0.343,1.278-0.563c0.431-0.221,0.677-0.674,1.094-0.904l1.426,2.962
			l3.88,1.837l0.439,1.399l-0.85,0.795l1.261,1.508l2.866-0.11c0.217,0.218,0.275,0.549,0.357,0.836
			c0.304,0.045,0.4-0.463,0.733-0.368c0.415,0.119,0.639,0.613,1.036,0.78l2.262-1.536l3.661,3.442l2.921-0.411l2.884-2.153
			l4.827-1.097v-3.638l-1.006-2.157c-0.367-0.311-0.56-0.207-1.041-0.292c-0.527-0.093-0.859-0.629-1.026-1.109
			c-0.206-0.592-0.697-0.963-1.101-1.432c-0.384-0.445-0.486-0.918-0.745-1.411c-0.222-0.422-0.473-0.788-0.746-1.183
			c-0.487-0.705-0.669-1.273-0.611-2.1c0.019-0.267,0.049-0.603,0.001-0.865c-0.165-0.895-0.611-1.742-0.78-2.647
			c-0.139-0.747-0.429-1.455-0.561-2.21c-0.143-0.817-0.153-1.568-0.191-2.394c-0.014-0.299-0.125-0.575-0.161-0.871
			c-0.054-0.454,0.036-0.915,0.155-1.35c0.174-0.638,0.615-1.189,1.048-1.681c0.179-0.203,0.226-0.677,0.492-0.784
			c0.375-0.15,0.721,0.026,1.094-0.255c0.68-0.514,1.08-1.276,1.293-2.085c0.107-0.408,0.194-0.836,0.423-1.194
			c0.321-0.5,0.794-0.933,1.197-1.365c0.337-0.362,0.666-0.759,1.116-0.991c0.341-0.175,0.669-0.321,0.993-0.54
			c0.479-0.323,1.461-0.796,1.071-1.536c-0.221-0.039-0.213-0.04-0.222-0.208c-0.02-0.383,0.19-0.724,0.121-1.126
			c-0.061-0.355-0.351-0.526-0.48-0.846c-0.114-0.281-0.14-0.588-0.16-0.887c-0.027-0.411-0.172-0.797-0.191-1.196
			c-0.033-0.678-0.04-1.192-0.262-1.837c-0.06-0.173-0.126-0.328-0.205-0.493c-0.126-0.265-0.335-0.424-0.424-0.681
			c-0.1-0.288-0.243-0.582-0.304-0.881c-0.045-0.221-0.035-0.452-0.12-0.666c-0.155-0.393-0.651-0.686-1.057-0.801
			c-0.706-0.199-0.246,0.892-0.235,1.25c0.018,0.539-0.463,1.759-1.158,1.631c-0.175-0.032-0.324-0.184-0.451-0.297
			c-0.197-0.176-0.405-0.331-0.61-0.502c-0.199-0.166-0.261-0.543-0.411-0.741c-0.127-0.166-0.286-0.271-0.441-0.398
			c-0.291-0.239-0.992-0.594-0.828-1.024c0.099-0.259,0.428-0.518,0.601-0.748c0.231-0.308,0.511-0.584,0.803-0.834
			c0.378-0.324,0.61-0.665,0.869-1.083c0.104-0.168,0.194-0.324,0.251-0.518c0.075-0.259,0.168-0.4,0.264-0.619
			c0.149-0.339,0.139-0.903,0.209-1.284c0.067-0.366,0.034-0.761,0.169-1.113c0.138-0.36,0.405-0.791,0.683-1.065
			c0.641-0.631,1.427,1.19,2.22-0.035c0.027-0.825,0.394-1.654,0.28-2.47c-0.065-0.468-0.161-0.931-0.222-1.396
			c-0.018-0.141-0.079-0.32,0.014-0.448c0.113-0.156,0.276-0.098,0.367-0.286c0.143-0.295-0.058-0.797-0.084-1.112
			c-0.021-0.252-0.118-0.712-0.018-0.945c0.039-0.09,0.17-0.207,0.226-0.304c0.089-0.152,0.186-0.34,0.232-0.519
			c0.079-0.306-0.062-0.673,0.027-0.973c0.051-0.171,0.126-0.124,0.229-0.28c0.081-0.124,0.046-0.302,0.046-0.447
			c-0.001-0.34-0.086-0.889,0.192-1.132c0.165-0.145,0.42-0.373,0.453-0.596c0.025-0.173-0.015-0.531-0.251-0.526
			c-0.199,0.004-0.159,0.219-0.175,0.354c-0.016,0.139-0.079,0.255-0.191,0.345c-0.124,0.099-0.273,0.125-0.339,0.292
			c-0.056,0.142,0.016,0.419-0.107,0.52c-0.239,0.197-0.407-0.305-0.42-0.461c-0.022-0.28,0.009-0.566-0.003-0.846
			c-0.005-0.132,0.003-0.265-0.07-0.376c-0.068-0.102-0.353-0.357-0.493-0.357c-0.129,0-0.172,0.182-0.296,0.218
			c-0.138,0.04-0.25-0.08-0.309-0.205c-0.033-0.07-0.02-0.142-0.049-0.214c-0.045-0.111-0.156-0.188-0.244-0.26
			c-0.14-0.114-0.294-0.206-0.429-0.326c-0.104-0.093-0.453-0.31-0.493-0.429c-0.048-0.138,0.096-0.164,0.167-0.23
			c0.089-0.083,0.079-0.085,0.08-0.221c-0.105-0.038-0.107-0.18-0.11-0.271c-0.009-0.27,0.007-0.533,0.052-0.797
			c0.048-0.275,0.016-0.56,0.052-0.836c0.038-0.29,0.116-0.56,0.115-0.855c-0.001-0.232-0.02-0.454-0.041-0.686
			c-0.013-0.143,0.04-0.407-0.08-0.502c-0.161-0.128-0.534-0.036-0.724-0.016c-0.301,0.033-0.79-0.056-0.853-0.389
			c-0.042-0.22-0.048-0.471-0.03-0.694c0.019-0.226,0.142-0.385,0.206-0.591c0.067-0.216,0.133-0.44,0.175-0.662
			c0.044-0.237-0.01-0.482-0.01-0.722c0.334,0,0.655,0.041,0.976-0.04c0.359-0.09,0.621,0.003,0.975-0.015
			c0.28-0.015,0.64-0.212,0.912-0.317c0.287-0.111,0.552-0.31,0.814-0.467c0.46-0.276,0.847-0.596,1.262-0.939
			c0.404-0.333,0.83-0.603,1.168-1.012c0.203-0.246,0.23-0.324,0.256-0.645c0.017-0.213,0.104-0.331,0.137-0.534
			c0.029-0.181,0.033-0.486,0-0.67c-0.033-0.186-0.134-0.312-0.172-0.512c-0.089-0.465-0.021-0.947-0.046-1.42
			c-0.021-0.385-0.186-0.476-0.384-0.763c-0.116-0.167-0.159-0.392-0.303-0.56c-0.231-0.268-0.581-0.333-0.879-0.487
			c-0.546-0.283-0.47-0.67-0.284-1.196c0.06-0.169,0.066-0.363,0.211-0.475c0.167-0.13,0.426-0.122,0.608-0.262
			c0.378-0.292,0.54-0.517,1.032-0.543c0.883-0.046,1.589,0.015,2.011,0.887c0.162,0.335,0.444,0.808,0.404,1.193
			c-0.034,0.33-0.382,0.502-0.565,0.758c-0.289,0.405-0.301,0.945-0.315,1.43c-0.017,0.548,0.202,1.041,0.22,1.581
			c0.012,0.367-0.025,0.723-0.007,1.09c0.025,0.509-0.075,0.961-0.186,1.457c-0.069,0.312-0.236,0.492-0.353,0.774
			c-0.182,0.436-0.068,0.785-0.609,0.946c-0.635,0.189-1.374,0.717-1.546,1.407c-0.058,0.232,0.03,0.478-0.047,0.708
			c-0.089,0.268-0.241,0.405-0.267,0.702c-0.033,0.372-0.109,0.883,0.094,1.217c0.057,0.094,0.173,0.142,0.222,0.231
			c0.069,0.124,0.019,0.271,0.08,0.388c0.131,0.247,0.564,0.385,0.759,0.602c0.298,0.33,0.486,0.65,0.273,1.075
			c-0.131,0.261-0.266,0.372-0.5,0.528c-0.159,0.106-0.491,0.229-0.568,0.414c-0.054,0.13,0.006,0.525,0.049,0.626
			c0.433,0.028,0.795,0.082,1.231,0.039c0.265-0.026,0.507-0.067,0.778-0.066c0.131,0,0.294,0.03,0.407-0.031
			c0.154-0.084,0.235-0.333,0.381-0.436c0.31-0.218,0.792-0.094,1.166-0.081c0.233,0.008,0.792,0.103,0.992,0.022
			c0.292-0.119,0.15-0.42,0.2-0.667c0.05-0.248,0.191-0.408,0.214-0.676c0.041-0.478,0.102-0.943,0.115-1.428
			c0.006-0.233,0.111-0.595,0.057-0.805c-0.097-0.384-0.631-0.7-0.853-1.029c-0.222-0.328-0.529-0.61-0.574-1.015
			c-0.02-0.179,0.041-0.395-0.021-0.571c-0.055-0.156-0.138-0.169-0.232-0.325c-0.132-0.218-0.068-0.465-0.076-0.712
			c-0.011-0.34-0.156-0.531-0.221-0.853c-0.067-0.335,0.01-0.678-0.066-1.012c-0.067-0.29-0.151-0.512-0.152-0.815
			c-0.002-0.354-0.059-0.726-0.029-1.079c0.028-0.333,0.216-0.493,0.356-0.779c0.177-0.36,0.21-0.776,0.246-1.168
			c0.05-0.55,0.075-1.158,0.002-1.707c-0.053-0.396-0.132-0.777-0.137-1.184c-0.002-0.199-0.057-0.473,0.127-0.596
			c0.181-0.121,0.329,0.046,0.448-0.19c0.077-0.153-0.024-0.524-0.026-0.707c-0.003-0.209,0.002-0.412,0.027-0.616
			c0.044-0.362,0.217-0.639,0.22-1.038c0.002-0.336,0.208-0.961-0.065-1.231c-0.298-0.296-1.204,0.24-1.08-0.36
			c0.046-0.223,0.125-0.18,0.269-0.299c0.063-0.052,0.159-0.137,0.176-0.217c0.012-0.053-0.027-0.199-0.027-0.265
			c0.001-0.136,0.019-0.288-0.032-0.416c-0.044-0.108-0.138-0.198-0.202-0.291c-0.081-0.117-0.124-0.23-0.176-0.363
			c0.195-0.214,0.626-0.207,0.835-0.04l-0.137-2.221l-0.274-0.082l0.055-2.002l-0.494-0.082v-2.468l-0.494-0.247v-2.029
			l-0.411-0.329l-0.082-6.253c-0.031-0.09-0.048-0.184-0.124-0.256c-0.129-0.122-0.293-0.243-0.375-0.404
			c-0.07-0.138-0.132-0.276-0.123-0.433c0.011-0.181,0.132-0.349,0.193-0.519c0.07-0.196,0.015-0.408,0.018-0.613
			c0.002-0.203,0.102-0.365,0.101-0.565c-0.002-0.285-0.097-0.525-0.128-0.803c-0.019-0.172-0.06-0.259,0.041-0.39
			c0.096-0.124,0.255-0.178,0.32-0.331c0.12-0.283,0.151-0.547,0.063-0.843c-0.106-0.357,0.146-0.461,0.306-0.749
			c0.152-0.273,0.162-0.54,0.189-0.84c0.023-0.264,0.243-0.381,0.365-0.618c0.094-0.183,0.077-0.452,0.244-0.558
			c0.165-0.105,0.189-0.106,0.235-0.319c0.049-0.23,0.057-0.445,0.186-0.649c0.097-0.154,0.342-0.258,0.226-0.461
			c-0.069-0.12-0.229-0.177-0.296-0.289c-0.109-0.184-0.006-0.388-0.023-0.579c-0.106-0.092-0.195-0.206-0.295-0.305
			c-0.067-0.067-0.155-0.133-0.199-0.218c-0.077-0.152-0.018-0.317-0.052-0.474c-0.089-0.026-0.169-0.097-0.25-0.142
			c-0.105-0.058-0.221-0.1-0.315-0.175c-0.208-0.167-0.389-0.407-0.526-0.634c-0.114-0.189-0.292-0.319-0.446-0.475
			c-0.155-0.158-0.308-0.311-0.471-0.461c-0.135-0.124-0.293-0.293-0.363-0.467c-0.055-0.137,0.058-0.193,0.149-0.29
			c0.117-0.123,0.164-0.286,0.327-0.362c0.109-0.05,0.235-0.037,0.342-0.085c0.117-0.054,0.102-0.151,0.167-0.237
			c0.091-0.119,0.241-0.162,0.345-0.259c0.105-0.098,0.116-0.256,0.219-0.361c0.09-0.09,0.213-0.143,0.305-0.229
			c0.053-0.048,0.155-0.143,0.121-0.222c-0.022-0.052-0.134-0.13-0.175-0.182c-0.039-0.049-0.136-0.148-0.089-0.218
			c0.031-0.046,0.031-0.015,0.081-0.032c0.121-0.043,0.177-0.107,0.272-0.191c0.093-0.083,0.211-0.229,0.324-0.276
			c0.093-0.039,0.279-0.031,0.381-0.015c0.211,0.034,0.249,0.301,0.383,0.431c0.02,0.203-0.098,0.286-0.229,0.41
			c-0.163,0.154-0.087,0.312-0.082,0.518c0.005,0.198-0.038,0.392-0.046,0.589c-0.007,0.17,0.04,0.405-0.067,0.55
			c-0.051,0.068-0.131,0.101-0.174,0.176c-0.034,0.059-0.046,0.149-0.061,0.216c-0.048,0.215,0.008,0.392,0.026,0.604
			c0.035,0.416-0.31,0.76-0.243,1.169c0.061,0.377,0.452,1.042,0.908,0.91c0.086-0.116,0.165-0.263,0.154-0.438
			c-0.013-0.221-0.102-0.437-0.138-0.655c-0.084-0.512,0.024-1.038,0.344-1.454c0.147-0.191,0.198-0.292,0.189-0.532
			c-0.007-0.19-0.038-0.378-0.028-0.57c0.016-0.309,0.295-0.703,0.165-1c-0.14-0.32,0.154-0.475,0.284-0.709
			c0.128-0.23,0.179-0.581,0.107-0.836c-0.078-0.274-0.193-0.576-0.006-0.845c0.089-0.128,0.231-0.209,0.299-0.355
			c0.059-0.127,0.043-0.256,0.043-0.395c0-0.283-0.043-0.557-0.041-0.838c0.003-0.333,0.173-0.413,0.344-0.665
			c0.078-0.115,0.084-0.262,0.124-0.391c0.037-0.119,0.093-0.23,0.12-0.35c0.053-0.233,0.138-0.423,0.264-0.629
			c0.077-0.126,0.174-0.286,0.283-0.388c0.062-0.057,0.166-0.086,0.211-0.157c0.084-0.129-0.024-0.442-0.016-0.586
			c0.02-0.351,0.064-0.703,0.082-1.052c0.016-0.3,0.053-0.716-0.082-0.99c-0.098-0.2-0.217-0.27-0.439-0.242
			c-0.24,0.03-0.461,0.018-0.702,0.015c-0.076-0.001-0.2,0.032-0.269,0.017c-0.094-0.021-0.24-0.15-0.32-0.211
			c-0.187-0.143-0.093-0.339-0.149-0.54c-0.054-0.194-0.271-0.205-0.35-0.369c-0.081-0.169,0.081-0.318,0.048-0.486
			c-0.038-0.192-0.306-0.279-0.357-0.476c-0.058-0.22,0.193-0.445,0.362-0.536c0.291-0.159,0.857-0.127,1.035,0.199
			c0.08,0.147,0.047,0.337,0.098,0.494c0.045,0.139,0.065,0.242,0.069,0.39c0.002,0.058-0.011,0.127,0.017,0.181
			c0.098,0.196,0.398,0.234,0.513,0.442c0.078,0.141,0.065,0.319,0.154,0.456c0.186,0.285,0.665,0.151,0.921,0.063
			c0.213-0.408,0.384-0.721,0.494-1.174c0.092-0.379,0.147-0.801,0.306-1.159c0.184-0.414,0.465-0.739,0.792-1.042
			c0.493-0.456,0.902-0.963,1.395-1.413c0.443-0.404,0.958-0.7,1.332-1.175c0.336-0.428,0.603-0.912,0.959-1.316
			c0.327-0.372,0.612-0.667,0.782-1.14c0.124-0.345,0.163-0.7,0.342-1.019c0.229-0.41,0.573-0.72,0.77-1.151
			c0.171-0.374,0.38-0.702,0.573-1.063c0.044-0.083,0.012-0.198,0.004-0.29c-0.012-0.148-0.122-0.226-0.213-0.331
			c-0.135-0.156-0.275-0.361-0.456-0.467c-0.255,0.159-0.491,0.34-0.675,0.581c-0.151-0.049-0.276-0.179-0.426-0.234
			c-0.115-0.042-0.213-0.053-0.32-0.124c-0.279-0.185-0.559-0.454-0.745-0.734c-0.091-0.138-0.149-0.168-0.275-0.266
			c-0.079-0.061-0.175-0.156-0.185-0.26c-0.012-0.137,0.124-0.26,0.176-0.383c0.054-0.126,0.082-0.251,0.085-0.385
			c0.018-0.743-0.003-1.484,0.028-2.223c0.011-0.259,0.061-0.506,0.193-0.73c0.194-0.331,0.581-0.477,0.752-0.833
			c0.326,0.158,0.315,0.551,0.487,0.826c0.104,0.167,0.15,0.298,0.158,0.497c0.008,0.198,0.006,0.243,0.168,0.356
			c0.168,0.117,0.384,0.263,0.487,0.447c0.077,0.138,0.06,0.307,0.141,0.452c0.092,0.163,0.189,0.289,0.21,0.479
			c0.018,0.157-0.017,0.324,0.027,0.475c0.053,0.183,0.231,0.238,0.311,0.392c0.072,0.138,0.045,0.345,0.021,0.491
			c-0.026,0.159-0.021,0.325-0.062,0.48c-0.039,0.15-0.137,0.267-0.193,0.412c-0.058,0.151-0.08,0.235-0.01,0.37
			c0.069,0.134,0.141,0.205,0.254,0.296c0.111,0.089,0.217,0.217,0.372,0.116c0.12-0.078,0.165-0.312,0.129-0.441
			c0.06-0.234,0.219-0.343,0.367-0.519c0.194-0.232,0.606-0.503,0.66-0.803c0.051-0.291-0.117-0.452,0.074-0.72
			c0.17-0.238,0.45-0.38,0.608-0.634c0.184-0.297-0.202-0.582-0.254-0.869c-0.029-0.159-0.011-0.33,0.009-0.486
			c0.024-0.185-0.016-0.352-0.073-0.531c-0.17-0.53-0.127-1.144-0.071-1.692c0.026-0.251-0.02-0.387-0.188-0.573
			c-0.106-0.117-0.165-0.175-0.176-0.328c-0.008-0.1,0.068-0.202,0.068-0.302c-0.05-0.055-0.021-0.115-0.042-0.185
			c-0.03-0.098-0.104-0.187-0.148-0.28c-0.078-0.166-0.135-0.337-0.139-0.522c-0.003-0.115,0.021-0.252-0.002-0.365
			c-0.037-0.18-0.143-0.36-0.222-0.523c-0.095-0.196-0.083-0.319-0.105-0.526c-0.014-0.13-0.079-0.258-0.127-0.379
			c-0.057-0.144-0.148-0.266-0.162-0.423c-0.014-0.15,0.019-0.306,0.001-0.455c-0.029-0.235-0.227-0.426-0.296-0.659
			c-0.036-0.12-0.091-0.234-0.103-0.361c-0.013-0.151,0.02-0.321-0.018-0.47c-0.079-0.308-0.485-0.487-0.613-0.78
			c-0.136-0.309-0.135-0.423-0.017-0.722c0.088-0.223-0.089-0.338-0.107-0.551c-0.025-0.281-0.128-0.495-0.12-0.779
			c0.004-0.128,0.056-0.546-0.021-0.671c-0.047-0.075-0.19-0.151-0.252-0.214c-0.104-0.106-0.14-0.194-0.156-0.341
			c-0.021-0.197,0.028-0.404-0.093-0.572c-0.091-0.127-0.213-0.235-0.307-0.362c-0.16-0.216-0.215-0.454-0.227-0.726
			c-0.017-0.388,0.203-0.659,0.254-1.029c0.035-0.253,0.013-0.53-0.101-0.76c-0.129-0.26-0.344-0.438-0.358-0.74
			c-0.01-0.212-0.055-0.441-0.122-0.643c-0.064-0.192-0.028-0.449-0.153-0.606c-0.122-0.153-0.25-0.163-0.44-0.163
			c-0.3,0-0.607,0.018-0.904,0.052c-0.12,0.014-0.242,0.018-0.363,0.016c-0.101-0.001-0.275-0.05-0.367-0.016
			c-0.292,0.108,0.146,0.39,0.253,0.496c0.116,0.115,0.22,0.233,0.324,0.356c0.033,0.039,0.167,0.131,0.168,0.177
			c0.001,0.148-0.467,0.324-0.589,0.303c-0.132-0.022-0.261-0.204-0.312-0.318c-0.05-0.113-0.064-0.239-0.133-0.345
			c-0.074-0.114-0.187-0.208-0.289-0.298c-0.146-0.129-0.325-0.235-0.451-0.385c-0.105-0.126-0.211-0.288-0.302-0.422
			c-0.095-0.141-0.048-0.32-0.141-0.454c-0.064-0.091-0.119-0.111-0.166-0.22c-0.037-0.084-0.083-0.118-0.112-0.205
			c-0.086-0.257-0.078-0.355-0.334-0.495c-0.178-0.098-0.473-0.093-0.606-0.254c0.138-0.188,0.336-0.301,0.503-0.459
			c0.228-0.215,0.577-0.431,0.734-0.703c0.054-0.092,0.047-0.165,0.062-0.272c0.037-0.27,0.151-0.622,0.303-0.851
			c0.187-0.282,0.486-0.498,0.691-0.774c0.168-0.227,0.435-0.524,0.755-0.499c0.215,0.017,0.368,0.306,0.507,0.456
			c0.187,0.202,0.349,0.427,0.533,0.631c0.199,0.22,0.429,0.418,0.619,0.645c0.167,0.199,0.352,0.377,0.511,0.584
			c0.069,0.091,0.123,0.233,0.246,0.231c0.096-0.001,0.286-0.119,0.316-0.213c0.048-0.149-0.062-0.333-0.004-0.498
			c0.07-0.2,0.273-0.329,0.341-0.539c0.061-0.189,0.107-0.386,0.116-0.584c0.012-0.272,0.072-0.386,0.274-0.583
			c0.061-0.059,0.158-0.119,0.195-0.198c0.02-0.043,0.005-0.094,0.023-0.139c0.054-0.132,0.191-0.183,0.309-0.26
			c0.23-0.15,0.363-0.326,0.449-0.577c0.086-0.249,0.334-0.423,0.525-0.596c0.267-0.241,0.541-0.479,0.819-0.711
			c0.215-0.179,0.413-0.389,0.645-0.546c0.244-0.167,0.484-0.293,0.747-0.425c0.233-0.117,0.492-0.304,0.616-0.539
			C189.331,8.473,189.213,8.347,189.219,8.174z M123.44,170.307c-0.122,0.373-0.475,0.389-0.811,0.545
			c-0.381,0.178-0.699,0.418-1.099,0.559c-0.542,0.19-1.07,0.162-1.625,0.246c-0.456,0.069-0.646,0.31-1.041,0.478
			c-0.311,0.132-0.639,0.069-0.954-0.03c-0.611-0.19-1.181-0.534-1.8-0.719c-0.526-0.158-1.006-0.338-1.517-0.53
			c-0.691-0.26-1.377-0.351-2.091-0.514c-0.501-0.114-0.98-0.12-1.504-0.146c-0.582-0.029-1.193-0.301-1.767-0.446
			c-0.609-0.154-1.172-0.29-1.811-0.285c-0.717,0.006-1.6,0.427-2.246,0.047c-0.354-0.208-0.592-0.598-0.932-0.84
			c-0.34-0.243-0.677-0.452-0.975-0.746c-0.613-0.605-1.366-0.852-2.221-0.91c-0.794-0.054-1.599-0.054-2.363-0.286
			c-0.603-0.184-1.183-0.433-1.782-0.588c-0.664-0.171-1.319-0.407-1.916-0.751c-0.48-0.277-0.877-0.648-1.34-0.938
			c-0.405-0.254-0.859-0.462-1.331-0.576c-0.629-0.151-1.22-0.461-1.859-0.591l-4.863-4.314c0.109-0.617-0.036-1.021-0.421-1.476
			c-0.395-0.466-0.821-0.933-1.192-1.418c-0.779-1.016-1.1-2.274-1.46-3.465c-0.19-0.63-0.283-1.134-0.645-1.689
			c-0.327-0.501-0.759-0.986-0.963-1.56c-0.16-0.451-0.224-1.052-0.301-1.534c-0.079-0.498,0.078-0.965,0.046-1.464
			c-0.045-0.703-0.549-1.243-1.06-1.691c-0.24-0.211-0.523-0.328-0.766-0.547c-0.236-0.212-0.401-0.462-0.631-0.677
			c0.159-0.396,0.535-0.596,0.858-0.842c0.374-0.284,0.313-0.344,0.132-0.774c-0.167-0.398-0.141-0.839-0.289-1.256
			c-0.249-0.703-0.366-1.852-0.79-2.416c-0.242-0.322-0.233-0.526-0.271-0.935c-0.046-0.504-0.226-0.698-0.477-1.114
			c-0.215-0.357-0.201-0.734-0.182-1.183c0.011-0.259-0.009-0.62,0.075-0.857c0.1-0.283,0.425-0.446,0.552-0.709
			c0.171-0.355,0.003-0.79,0.114-1.171c0.126-0.433,0.529-0.715,0.715-1.136c0.194-0.439,0.124-0.824,0.194-1.283
			c0.08-0.529,0.153-0.716,0.629-0.659c0.591,0.071,1.105-0.357,1.605-0.582c0.531-0.239,1.154-0.037,1.671-0.296
			c0.397-0.198,0.491-0.497,1.001-0.365c0.394,0.102,0.824,0.421,1.194,0.598c0.474,0.226,0.905,0.518,1.379,0.743
			c0.258,0.123,0.548,0.224,0.774,0.407c0.177,0.144,0.305,0.333,0.498,0.455c0.218,0.138,0.515,0.155,0.763,0.212
			c0.328,0.076,0.653,0.214,0.986,0.255c0.553,0.069,1.178-0.086,1.721,0.023c0.577,0.116,0.91,0.655,1.33,1.013
			c0.217,0.185,0.419,0.292,0.576,0.524c0.176,0.261,0.286,0.537,0.49,0.777c0.211,0.249,0.464,0.446,0.682,0.671
			c0.224,0.23,0.305,0.527,0.485,0.793c0.2,0.296,0.503,0.5,0.731,0.776c0.228,0.275,0.328,0.63,0.469,0.951
			c0.132,0.3,0.304,0.622,0.615,0.76c0.335,0.149,0.782,0.041,1.139,0.09c0.516,0.071,0.959,0.405,1.491,0.472
			c0.465,0.059,0.971-0.111,1.396,0.117c1.429,0.77,2.19,2.421,3.398,3.415c0.251,0.207,0.695,0.581,0.994,0.695
			c0.314,0.119,0.584,0.175,0.89,0.351c0.298,0.171,0.458,0.377,0.679,0.634c0.261,0.302,0.497,0.418,0.854,0.566
			c0.766,0.319,1.338,0.773,1.842,1.407c0.188,0.237,0.441,0.464,0.556,0.75c0.081,0.202,0.051,0.44,0.151,0.646
			c0.15,0.31,0.471,0.624,0.682,0.886c1.022,1.267,1.931,2.504,2.682,3.904c0.433,0.808,0.978,0.935,1.743,1.356
			c0.802,0.442,1.494,1.125,2.129,1.784c0.328,0.341,0.675,0.678,1.003,1.011c0.26,0.265,0.744,0.685,0.892,1.03
			c0.14,0.327,0.011,0.695,0.113,1.033c0.166,0.546,0.515,1.06,0.683,1.614c0.125,0.412,0.111,0.699,0.4,1.015
			c0.262,0.288,0.597,0.508,0.958,0.653c0.704,0.285,1.191,0.687,1.573,1.366c0.141,0.252,0.236,0.559,0.334,0.836
			c0.12,0.34,0.323,0.625,0.457,0.957c0.245,0.605,0.054,1.127,0.043,1.726c-0.014,0.762,0.092,1.519,0.109,2.279
			c0.013,0.554,0.006,0.987,0.11,1.531C123.808,169.36,123.568,169.916,123.44,170.307z"/>
		<path fill="#1E8346" d="M167.134,133.976c0.001-0.473-0.081-0.929-0.082-1.406c-0.45-0.053-0.757,0.565-0.907,0.838
			c-0.185,0.335-0.3,0.588-0.3,0.971c0,0.402,0.09,0.8,0.056,1.2c-0.037,0.431-0.36,0.831-0.14,1.266
			c0.138,0.271,1.228,1.553,1.263,0.764c0.015-0.351-0.093-0.703-0.082-1.062c0.013-0.44,0.05-0.88,0.09-1.318
			C167.069,134.81,167.133,134.397,167.134,133.976z"/>
		<path fill="#1E8346" d="M169.92,118.382c-0.097,0.002-0.167,0.08-0.215,0.145c-0.083,0.111-0.03,0.222,0.06,0.307
			c0.107,0.101,0.238-0.012,0.284-0.12c0.037-0.086,0.066-0.138,0.014-0.218C170.032,118.445,169.979,118.398,169.92,118.382z"/>
		<path fill="#1E8346" d="M174.766,94.57c-0.04-0.028-0.09-0.072-0.136-0.088c-0.081,0.01-0.136,0.035-0.179,0.087
			c-0.06,0.074-0.025,0.143,0.035,0.2c0.072,0.067,0.173,0.181,0.283,0.168c0.128-0.014,0.075-0.144,0.069-0.228
			C174.835,94.639,174.827,94.613,174.766,94.57z"/>
		<path fill="#1E8346" d="M96.397,155.631c0.095-0.478,0.02-0.788-0.246-1.188c-0.222-0.335-0.267-0.597-0.639-0.805
			c-0.286-0.16-0.511-0.243-0.832-0.28c-0.265-0.031-0.607-0.091-0.841-0.227c-0.11-0.064-0.176-0.174-0.277-0.246
			c-0.117-0.083-0.222-0.09-0.363-0.144c-0.345-0.131-0.378-0.355-0.346-0.692c0.031-0.335,0.01-0.659-0.019-0.994
			c0.044-0.263-0.099-0.53-0.203-0.643c-0.102-0.112-0.254-0.148-0.381-0.232c-0.128-0.084-0.222-0.221-0.35-0.297
			c-0.165-0.098-0.388-0.101-0.569-0.145c-0.264-0.064-0.403-0.145-0.621-0.302c-0.187-0.134-0.449-0.336-0.687-0.341
			c-0.205-0.004-0.428,0.119-0.59,0.232c-0.448,0.313-0.737,0.732-1.3,0.849c-0.42,0.087-0.86,0.36-1.069,0.756
			c-0.09,0.169-0.171,0.391-0.194,0.582c-0.02,0.164,0.027,0.325-0.024,0.489c-0.121,0.394-0.639,0.499-0.479,0.955
			c0.166,0.472,0.827,1.159,1.365,1.079c0.637-0.095,1.247-0.127,1.892-0.147c0.322-0.01,0.63-0.112,0.943-0.162
			c0.292-0.047,0.795-0.115,1.08,0.023c0.39,0.189,0.605,0.675,0.719,1.064c0.12,0.407,0.24,0.9,0.529,1.225
			c0.157,0.176,0.32,0.338,0.5,0.488c0.18,0.15,0.317,0.362,0.561,0.379c0.277,0.019,0.531-0.115,0.815-0.058
			c0.225,0.045,0.388,0.185,0.594,0.26c0.294,0.106,0.997-0.149,1.09-0.479c0.036-0.127-0.071-0.312-0.091-0.433
			C96.335,156.014,96.361,155.81,96.397,155.631z"/>
		<path fill="#1E8346" d="M114.219,165.575c-0.375-0.39-0.791,0.33-0.932,0.491c-0.118,0.134-0.367,0.279-0.208,0.467
			c0.151,0.177,0.435,0.25,0.653,0.249c0.157-0.001,0.26-0.055,0.408-0.082c0.116-0.021,0.253,0,0.372-0.001
			c0.129-0.001,0.244,0.015,0.282-0.123c0.05-0.18-0.119-0.357-0.221-0.478C114.435,165.936,114.351,165.746,114.219,165.575z"/>
		<path fill="#1E8346" d="M82.793,142.613c-0.141-0.161-0.227-0.107-0.43-0.132c-0.321-0.039-0.599-0.205-0.932-0.217
			c-0.338-0.012-0.677-0.001-1.067-0.028c-0.026,0.187,0.05,0.393,0.042,0.588c-0.012,0.275-0.007,0.524,0.038,0.795
			c0.036,0.218-0.029,0.532,0.086,0.726c0.093,0.156,0.329,0.287,0.502,0.329c0.225,0.056,0.374-0.072,0.573-0.146
			c0.152-0.056,0.299-0.138,0.458-0.171c0.16-0.033,0.321-0.01,0.482-0.034c0.198-0.03,0.457-0.098,0.562-0.289
			c0.125-0.229,0.077-0.714,0.014-0.962C83.077,142.9,82.909,142.745,82.793,142.613z"/>
	</g>
</g>
</svg>
