<?xml version="1.0" encoding="utf-8"?>
<svg width="600" height="400" xmlns="http://www.w3.org/2000/svg">
  <path fill="#000f5d" d="M0 0h600v400H0Z"/>
  <path d="M360 55.54h12.76l4.21-12.47 3.9 12.51h12.85l-10 8.09 3.61 11.85-10.53-7.13-10.44 7.17 3.56-12zm56 50.1h12.8l4.2-12.48 3.9 12.5h12.85l-10 8.1 3.61 11.84-10.53-7.12-10.43 7.18 3.55-12zm29.81 72.1h12.77l4.2-12.47 3.9 12.5h12.85l-10 8.1 3.61 11.84-10.53-7.12-10.43 7.18 3.55-12zm-60.7 24.2h12.77l4.2-12.46L406 202h12.85l-10 8.1 3.61 11.84-10.46-7.15-10.48 7.21 3.55-12zm49.14 55.59H447l4.21-12.47 3.9 12.51H468l-10 8.09 3.61 11.85-10.53-7.12-10.43 7.17 3.55-12zm-44.96 61.69h12.76l4.21-12.46 3.89 12.5H423l-10 8.1 3.62 11.84-10.53-7.12-10.44 7.17 3.56-12zm-34.35-47.81h12.76l4.21-12.47 3.9 12.51h12.85l-10 8.09 3.61 11.84-10.53-7.11-10.43 7.17 3.55-12zm-32.6 86.12h12.77l4.2-12.47 3.9 12.51h12.86l-10 8.09 3.61 11.84-10.53-7.11-10.43 7.17 3.55-12zm-80.73 0h12.76l4.21-12.47 3.89 12.51h12.86l-10 8.09 3.67 11.83-10.53-7.11-10.47 7.17 3.56-12zm-28.8-86.12h12.76l4.21-12.47 3.9 12.51h12.85l-10 8.09 3.61 11.84-10.53-7.11-10.44 7.17 3.56-12zm-38.28 47.81h12.76l4.21-12.46 3.89 12.5h12.86l-10 8.1 3.61 11.84-10.53-7.12-10.44 7.17 3.56-12zm-44.12-61.69h12.76l4.21-12.47 3.9 12.51h12.85l-10 8.09 3.61 11.85-10.53-7.12-10.44 7.17 3.56-12zm-9.94-79.79h12.76l4.21-12.47 3.89 12.5h12.86l-10 8.1 3.61 11.84-10.52-7.12-10.44 7.18 3.55-12zm61.85 24.2h12.76l4.21-12.46 3.9 12.5H216l-10 8.1 3.61 11.84-10.53-7.12-10.36 7.2 3.56-12zm-31.43-96.3h12.76l4.21-12.47 3.9 12.5h12.85l-10 8.1 3.61 11.84-10.53-7.12-10.43 7.18 3.55-12zm56.43-50.1h12.76l4.21-12.47 3.89 12.51H241l-10 8.09 3.61 11.85-10.53-7.12-10.44 7.17 3.56-12zm76.45-20.93h12.77l4.2-12.46 3.9 12.5h12.86l-10 8.1 3.61 11.84-10.52-7.12-10.44 7.17 3.55-12zm83 44.31-37.72 53.74-2.34-1.66 37.73-53.72z" fill="#d59f0f"/>
  <path d="m420.75 116.55-87.65 33.71-1-2.68 87.64-33.71zm20.11 64.68-106.59-12.77.34-2.86 106.6 12.78zM284 298h12.76l4.21-12.47 3.9 12.5h12.85l-10 8.1 3.61 11.84-10.53-7.17-10.44 7.2 3.56-12zm-4-205h15.78L301 77.56 305.8 93h15.87l-12.31 10 4.46 14.62-13-8.77-12.91 8.85 4.39-14.84zm-.34 86.17-.08-.1c-12.21-16.13.21-22 .46-33.46 8.08 15-3.76 19.66 10.31 33.57z" fill="#d59f0f"/>
  <path d="M293.14 179.18c-4.3-6.05-7.32-15.7-6-22 1.32-6.3 5.65-12.51 5-17.28 2.28 5.37 5.1 5.38 4.43 9.33 3.42-10.19 4.87-18 15.52-18.52-11.24 16.36 11.57 30.34-5 48.49z" fill="#d59f0f"/>
  <path d="M 310.69 179.2 C 325.9 160.85 306.55 151.45 324.19 143.2 C 324.83 148.62 320.51 148.62 322.42 155.26 C 322.774 157.713 322.428 160.216 321.42 162.48 C 323.22 160.28 326.71 156.13 328.92 154.48 C 323.68 162.38 333.55 169.3 320.92 179.13 L 310.43 179.13 M 311.86 225.27 C 312.66 204.82 317.04 198.59 325.33 190.04 L 276.61 190.04 C 284.87 198.6 289.24 204.83 290 225.28 C 297.293 225.247 304.58 225.243 311.86 225.27 Z M 300.86 275.19 L 307.23 295.19 L 310.74 235.92 L 291.07 235.92 L 294.44 295.21 L 300.86 275.19 Z M 300.76 364.76 C 303.57 362.16 304.37 353.67 304.37 353.67 L 306.12 319 L 300.81 315.27 L 295.49 319 L 297.18 353.65 C 297.18 353.65 297.94 362.11 300.75 364.74 L 300.76 364.76 Z M 329.24 186.37 L 272.64 186.31 L 272.64 180.93 L 329.25 180.99 L 329.24 186.37 Z M 315.46 234.12 L 285.6 234.12 L 285.6 227.4 L 315.46 227.4 L 315.46 234.12 Z M 160.47 181.23 L 267.05 168.46 L 266.72 165.6 L 160.11 178.38 L 160.47 181.23 Z M 180.72 116.55 L 268.37 150.26 L 269.37 147.58 L 181.73 113.87 L 180.72 116.55 Z M 235 78.92 L 272.72 132.66 L 275.06 131 L 237.32 77.28 L 235 78.92 Z M 299.11 114.18 L 299.11 125.65 L 302 125.65 L 302 114.17 L 299.11 114.18 Z" fill="#d59f0f"/>
</svg>