<?xml version="1.0" encoding="utf-8"?>
<!-- Generator: Adobe Illustrator 26.0.3, SVG Export Plug-In . SVG Version: 6.00 Build 0)  -->
<svg version="1.1" id="Isolation_Mode" xmlns="http://www.w3.org/2000/svg" xmlns:xlink="http://www.w3.org/1999/xlink" x="0px"
	 y="0px" viewBox="0 0 200 200" enable-background="new 0 0 200 200" xml:space="preserve">
<g>
	<path fill="#1E8346" d="M196.555,114.461c0.03-0.41,0.535-0.447,0.458-0.867c-0.062-0.34-0.474-0.588-0.558-0.967
		c-0.098-0.445-0.064-0.764-0.203-1.169c-0.173-0.503-0.253-1.068-0.31-1.595c-0.073-0.674-0.064-2.166-0.99-2.274
		c-0.299-0.035-0.608,0.218-0.899,0.206c-0.331-0.014-0.829-0.27-1.151-0.39c0.007-0.283-0.085-0.586-0.163-0.857
		c-0.394-0.088-0.873-0.004-1.185-0.105c-0.332-0.108-0.69-0.238-1.027-0.356c0.022-0.433-0.032-0.884-0.032-1.322
		c-0.244-0.279-0.564-0.956-0.668-1.358c-0.173-0.664-0.582-1.178-0.779-1.804c-0.01-0.031-0.017-0.06-0.024-0.088
		c-0.117-0.498,0.229-0.606,0.335-1.043c0.104-0.431-0.119-0.546,0.524-0.575c0.015-0.116-0.023-0.273-0.081-0.373
		c-1.716,0.366-0.131-1.933-0.944-2.393c-0.036,0.071-0.128,0.121-0.161,0.171c-0.169-0.114-0.269-0.279-0.429-0.4
		c-0.493,0.17-0.167,0.762-0.1,1.1c-0.592,0.013-1.118,0.019-1.643-0.28c-0.439-0.25-0.956-0.949-1.502-0.954
		c-0.131-0.776-1.689-0.112-2.267-0.518c-0.191-0.134-0.64-0.671-0.627-0.109c0.007,0.273,0.598,0.337,0.218,0.723
		c0.045-0.045-0.461,0.114-0.44,0.109c-0.277,0.055-0.162,0.115-0.453,0.022c-0.352-0.113-0.651-0.493-0.784-0.813
		c-0.145-0.349-0.108-0.999-0.42-1.249c-0.338-0.27-1.517-0.184-1.891-0.271c0.049-0.277,0.056-0.747-0.163-0.874
		c-0.116-0.067-0.494-0.01-0.633-0.036c-0.029,0.423-0.176,0.794-0.708,0.4c-0.373-0.276-0.276-0.317-0.737-0.365
		c-0.374-0.039-0.768-0.332-0.809-0.755c-0.027-0.287,0.183-0.442,0.084-0.7c-0.125-0.325-0.2-0.293-0.113-0.676
		c-0.294-0.053-0.593-0.067-0.89-0.106c0.031-0.188,0.032-0.382-0.009-0.568c-0.312,0.057-0.531-0.294-0.803-0.258
		c-0.125,0.017-0.555,0.299-0.647,0.383c-0.218,0.198-0.196,0.4-0.129,0.731c0.036,0.179,0.088,0.427,0.301,0.446
		c0.096-0.21,0.089-0.433,0.391-0.407c0.205,0.017,0.315,0.17,0.364,0.326c0.087,0.274,0.028,0.838-0.015,1.111
		c-0.229-0.333-1.015,0.055-0.967-0.454c-0.411-0.042-0.427,0.263-0.643,0.507c-0.29,0.329-0.648-0.066-0.992,0.168
		c-0.114,0.077-0.057,0.202-0.121,0.296c-0.11,0.165-0.275,0.257-0.429,0.388c-0.137,0.117-0.256,0.278-0.404,0.324
		c-0.115,0.036-0.419-0.028-0.543-0.028c-0.193,0.001-0.351-0.017-0.528,0.053c-0.125,0.048-0.178,0.192-0.327,0.18
		c-0.208-0.017-0.254-0.27-0.353-0.416c-0.168-0.247-0.57-0.295-0.676-0.542c-0.082-0.193,0.069-0.491,0.023-0.699
		c-0.207-0.069-0.435-0.136-0.645-0.19c-0.198-0.051-0.541-0.029-0.698-0.107c-0.244-0.121-0.352-0.593-0.421-0.871
		c-0.048-0.193,0.003-0.468-0.072-0.649c-0.043-0.103-0.184-0.169-0.222-0.273c-0.067-0.181,0.021-0.322-0.003-0.515
		c-0.077-0.637-0.941-1.194-1.37-1.6c-0.35-0.331-1.022-0.814-1.199-0.102c-0.892,0.101-0.543-0.83-1.035-1.259
		c-0.266-0.233-1.724-0.806-0.99-1.295c0.186-0.124,0.386-0.044,0.599-0.044c0.488,0,0.885-0.183,1.321-0.378
		c0.31-0.14,0.757-0.219,1.007-0.471c0.252-0.254,0.259-0.698,0.454-0.985c0.369,0.077,0.999,0.293,1.271-0.095
		c0.178-0.255,0.091-0.849,0.057-1.148c-0.049-0.432-0.293-0.412-0.642-0.705c-0.353-0.297-0.435-0.558-0.324-1.024
		c0.13-0.543,0.585-0.772,0.791-1.252c-0.23-0.009-0.683,0.091-0.863-0.066c-0.107-0.094-0.089-0.326-0.167-0.447
		c-0.159-0.249-0.187-0.171-0.473-0.239c-0.241-0.057-0.396-0.201-0.608-0.313c-0.057,0.672,0.248,1.032-0.3,1.591
		c-0.195,0.199-0.4,0.337-0.652,0.459c-0.379,0.183-0.737,0.68-1.189,0.528c-0.092-0.148-0.198-0.161-0.339-0.264
		c-0.313-0.227-0.29-0.331-0.611-0.136c-0.232,0.141-0.194,0.181-0.48,0.203c-0.209,0.016-0.424-0.003-0.633-0.001
		c-0.588,0.005-1.566-0.117-2.107,0.117c-0.41,0.177-0.203,0.378-0.29,0.713c-0.197-0.004-0.395-0.014-0.59-0.036
		c-0.106-0.369-0.277-0.747-0.47-1.078c-0.075,0.117-0.142,0.239-0.201,0.365c-0.33-0.376-0.842-0.74-1.364-0.443
		c0.007,0.247,0.026,0.498,0.002,0.744c-0.399-0.067-0.39,0.135-0.558-0.244c-0.125-0.281-0.12-0.745,0.267-0.711
		c0.057-0.221,0.092-0.589,0.034-0.81c-0.068-0.263-0.219-0.271-0.473-0.426c0.256-0.174,0.479-0.463,0.47-0.782
		c-0.453,0.003-0.975,0.297-1.435,0.396c-0.582,0.125-0.892-0.093-1.424-0.449c-0.632-0.423-1.212-1.188-1.449-1.91
		c-0.127-0.388-0.044-0.622-0.501-0.576c-0.412,0.041-0.766,0.298-1.187,0.33c-0.089-0.521-0.429-0.4-0.877-0.359
		c0.04-0.268,0.214-0.595,0.113-0.862c-0.621,0.033-1.487,0.168-2.067-0.092c-0.353-0.159-0.635-0.723-1.018-0.776
		c-0.328-0.045-0.393,0.216-0.602,0.322c-0.319,0.162-0.409,0.019-0.632-0.111c-0.581-0.338-1.217-1.362-1.944-1.12
		c-0.776,0.258-0.692,1.082-0.946,1.786c0.394,0.286,1.036,0.513,1.361,0.853c0.286,0.299,0.194,0.827,0.394,1.185
		c0.286,0.509,0.476,0.814,0.524,1.422c0.038,0.47,0.142,0.517,0.536,0.578c0.414,0.064,0.395,0.331,0.731,0.512
		c0.368,0.198,0.559,0.316,0.766,0.702c0.151,0.282,0.225,0.415,0.163,0.716c-0.071,0.349-0.364,0.546-0.463,0.865
		c-0.148,0.478,0.485,0.789,0.777,1.101c-0.199,0.329-0.477,0.495-0.852,0.532c-0.108-0.389-0.342-0.838-0.606-1.13
		c-0.34,0.122-0.421,0.215-0.621,0.515c-0.215,0.324-0.249,0.32-0.663,0.337c-0.51,0.022-0.833-0.046-1.093,0.401
		c-0.097,0.167-0.139,0.411-0.277,0.544c-0.122,0.117-0.307,0.161-0.465,0.247c-0.122-0.182-0.295-0.378-0.496-0.468
		c-0.266,0.161-0.4,0.71-0.643,0.808c-0.27,0.109-0.25-0.217-0.484,0.012c-0.163,0.16-0.177,0.543-0.247,0.759
		c-0.086,0.265-0.189,0.513-0.298,0.768c-0.084,0.197-0.147,0.463-0.27,0.635c-0.202,0.283-0.615,0.289-0.953,0.41
		c-0.5,0.179-0.808,0.55-0.457,1.092c-0.093,0.081-0.193,0.101-0.305,0.157c-0.197,0.098-0.273,0.22-0.418,0.332
		c-0.271,0.208-0.49,0.102-0.812-0.026c-0.38-0.152-0.759-0.248-1.138-0.372c-0.163-0.054-0.142,0.008-0.265-0.096
		c-0.138-0.117-0.223-0.483-0.289-0.65c-0.188-0.477-0.407-0.416-0.847-0.641c-0.491-0.251-0.136-0.328-0.18-0.687
		c-0.041-0.336-0.547-0.547-0.726-0.822c-0.018-0.994,0.368-2.48-0.698-3.037c-0.16-0.083-0.359-0.005-0.499-0.173
		c-0.065-0.077-0.127-0.353-0.155-0.447c-0.035-0.118-0.034-0.301-0.126-0.378c-0.211-0.179-0.446,0.001-0.648-0.263
		c-0.217-0.283-0.409-0.674-0.6-0.983c-0.22-0.354-0.505-0.646-0.735-0.988c-0.266-0.397-0.232-0.545-0.724-0.546
		c-0.389-0.001-0.744-0.168-1.032-0.434c-0.435-0.401-0.242-1.257-0.354-1.806c-0.266-0.052-0.255-0.2-0.579-0.198
		c-0.368,0.003-0.815,0.031-1.151,0.172c-0.268,0.112-0.269,0.2-0.57,0.151c-0.458-0.075-0.467-0.226-0.494-0.651
		c-0.025-0.401-0.357-0.259-0.495-0.566c-0.156-0.348,0.054-0.645-0.424-0.621c-0.241,0.012-0.453,0.089-0.668-0.094
		c-0.289-0.247-0.322-0.527-0.358-0.871c-0.048-0.456-0.11-0.605,0.242-0.95c0.216-0.211,0.343-0.299,0.656-0.343
		c0.106-0.015,0.429,0.049,0.521-0.018c0.245-0.18-0.064-0.41,0.231-0.563c0.089-0.046,0.211,0.019,0.269,0.001
		c0.266-0.08,0.238-0.13,0.427-0.403c0.161,0.042,0.282,0.14,0.453,0.11c0.004-0.096,0.009-0.264,0.068-0.344
		c0.054-0.074,0.226-0.099,0.237-0.117c0.107-0.183-0.008-0.436,0.16-0.597c0.366,0.151,0.527,0.408,0.981,0.371
		c0.436-0.035,0.598-0.312,0.857-0.669c0.137-0.189,0.278-0.361,0.269-0.601c-0.005-0.127-0.138-0.265-0.135-0.375
		c0.007-0.287,0.507-0.596,0.78-0.573c0.034-0.282-0.047-0.618,0.041-0.888c0.466-0.107,0.694-0.231,0.959-0.647
		c-0.063-0.223-0.021-0.427-0.188-0.634c-0.281-0.348-0.776-0.473-1.093-0.774c-0.159-0.151-0.247-0.348-0.37-0.525
		c-0.162-0.234-0.365-0.772-0.568-0.925c-0.12-0.091-0.371-0.07-0.462-0.164c-0.091-0.094-0.11-0.334-0.176-0.453
		c-0.525-0.958-0.893,0.169-1.62-0.116c-0.368-0.145-0.192-0.399-0.46-0.566c-0.185-0.115-0.877,0.029-1.052,0.066
		c-0.125,0.48-0.107,1.274-0.51,1.623c-0.274,0.237-0.783,0.19-1.114,0.289c-0.176-0.386-0.093-0.732-0.492-0.963
		c-0.495-0.286-1.089-0.323-1.589-0.593c-0.51,0.397-0.791,0.963-1.108,1.509c-0.193,0.333-0.165,0.524-0.207,0.897
		c-0.192,0.036-0.375-0.025-0.55-0.093c-0.047,0.098-0.084,0.293-0.168,0.372c-0.205,0.196-0.117,0.08-0.321,0.011
		c-0.26-0.089-0.581-0.287-0.832-0.425c0.243-0.199,0.658-0.485,0.836-0.752c-0.19-0.278-0.418-0.474-0.493-0.812
		c-0.081-0.366-0.029-0.727-0.154-1.089c-0.124-0.36-0.308-0.735-0.711-0.847c-0.202-0.056-0.547-0.056-0.749-0.005
		c-0.291,0.073-0.365,0.289-0.609,0.43c-0.605-0.339-1.018,0.86-1.707,0.34c-0.339-0.255-0.227-1.085-0.422-1.473
		c-0.138-0.275-0.354-0.509-0.466-0.8c-0.087-0.226-0.063-0.484-0.145-0.711c-0.154-0.426-0.65-0.817-1.127-0.623
		c-0.237,0.097-0.306,0.413-0.56,0.516c-0.191,0.077-0.431,0.007-0.64,0.083c-0.293,0.107-0.319,0.153-0.636,0.118
		c-0.206-0.023-0.45-0.017-0.642-0.108c-0.287-0.136-0.386-0.414-0.61-0.621c-0.184-0.17-0.311-0.228-0.578-0.294
		c-0.364-0.089-0.755-0.117-1.113-0.217c-0.295-0.082-0.329-0.214-0.519-0.381c-0.171-0.149-0.206-0.174-0.477-0.182
		c-0.343-0.009-0.687,0.008-1.029-0.007c-0.232-0.011-0.663,0.055-0.878-0.033c-0.248-0.102-0.255-0.357-0.428-0.568
		c-0.308,0.197-0.47,0.122-0.774-0.019c-0.215-0.099-0.457-0.197-0.633-0.366c-0.114-0.109-0.141-0.229-0.273-0.277
		c-0.854-0.305-1.179,0.84-1.583,1.283c-0.155-0.078-0.404-0.106-0.487-0.261c-0.045-0.082,0.019-0.235-0.004-0.327
		c-0.057-0.223-0.196-0.348-0.163-0.604c0.057-0.447,0.188-0.762,0.084-1.242c-0.093-0.43-0.471-0.83-0.852-1.052
		c-0.375-0.22-0.818-0.164-1.106-0.577c-0.239-0.342-0.449-0.638-0.758-0.956c-0.033-0.575-0.318-1.241-0.139-1.823
		c0.124-0.404,0.522-0.682,0.724-1.051c-0.281-0.123-0.431-0.187-0.551-0.451c-0.122-0.268-0.105-0.597-0.221-0.865
		c-0.309-0.009-0.618-0.042-0.916-0.126c-0.037-0.21,0.021-0.448-0.09-0.638c-0.25,0.149-0.553,0.101-0.81,0.241
		c-0.281,0.153-0.334,0.352-0.492,0.61c-0.578-0.21-0.453-0.377-0.34-0.802c0.078-0.294,0.136-0.705,0.09-0.998
		c-0.298,0.044-0.631,0.068-0.891,0.239c-0.371,0.244-0.335,0.592-0.412,1.001c-0.231-0.018-0.747,0.102-0.921-0.033
		c-0.313-0.244,0.051-0.516,0.042-0.773c-0.525,0.027-0.768-0.18-1.204-0.443c-0.046,0.828-0.834-0.2-1.028-0.217
		c-0.212-0.019-0.408,0.238-0.554,0.369c-0.172,0.154-0.382,0.231-0.538,0.358c-0.266,0.217-0.351,0.7-0.175,1.004
		c0.323,0.557,0.475,0.345,0.819,0.045c0.141,0.25,0.244,0.251,0.235,0.555c-0.004,0.153-0.107,0.308-0.129,0.453
		c-0.043,0.278,0.082,0.624,0.002,0.887c-0.13,0.428-0.653,0.518-0.727,0.979c-0.082,0.508,0.458,0.455,0.517,0.752
		c0.048,0.242-0.344,0.498-0.355,0.766c-0.013,0.34,0.335,0.703,0.05,0.959c-0.238,0.213-1.067,0.162-1.345,0.095
		c-0.48-0.115-0.904-0.411-1.375-0.546c-0.071,0.131-0.123,0.275-0.167,0.417c-0.218-0.145-0.42-0.294-0.629-0.45
		c-0.377,0.556-1.101-0.019-1.502,0.31c-0.221,0.181-0.271,1.004-0.306,1.244c-0.043,0.295-0.001,0.611-0.037,0.893
		c-0.52,0.02-0.992,0.055-1.48-0.096c-0.38-0.117-0.757,0.042-1.107-0.053c-0.019-0.827-0.399-0.402-1.016-0.579
		c-0.227-0.065-0.387-0.274-0.633-0.325c-0.129-0.027-0.269,0.018-0.401-0.003c-0.223-0.034-0.569-0.124-0.808-0.185
		c0.247-0.717,0.285-1.453,0.742-2.086c0.346-0.478,0.371-0.947,0.334-1.558c-0.395,0.145-2.521,1.175-2.452,0.359
		c0.02-0.233,0.358-0.637,0.459-0.871c0.104-0.242,0.19-0.66,0.407-0.798c0.024-0.261,0.077-1.031-0.055-1.254
		c-0.107-0.18-0.397-0.22-0.531-0.399c-0.121-0.161-0.126-0.391-0.231-0.557c-0.257,0.149-0.607,0.173-0.898,0.209
		c0.068-0.685-0.458-0.711-1.012-0.795c0.095-0.264,0.257-0.685,0.131-0.954c-0.177,0.002-0.354-0.002-0.53,0.004
		c0.082,0.269,0.083,0.554,0.068,0.833c-0.246-0.035-0.39-0.092-0.584-0.191c-0.262-0.133-0.537-0.293-0.839-0.121
		c-0.303,0.173-0.423,0.468-0.806,0.533c-0.29,0.049-0.54-0.058-0.714-0.298c-0.202-0.279-0.254-0.651-0.657-0.755
		c-0.28-0.072-0.597,0.212-0.831,0.147c-0.33-0.092-0.449-0.751-0.832-0.772c-0.322-0.017-0.417,0.462-0.602,0.668
		c-0.118-0.009-0.241-0.018-0.357-0.047c0.069,0.306,0.359,0.631,0.297,0.96c-0.061,0.325-0.419,0.434-0.731,0.531
		c0.04,0.2,0.262,0.276,0.315,0.453c0.048,0.158-0.037,0.097-0.038,0.218c-0.003,0.307-0.116,0.354,0.173,0.548
		c0.117,0.079,0.465,0.133,0.604,0.126c0.076-0.004,0.14-0.129,0.23-0.139c0.177-0.018,0.802-0.034,0.767,0.245
		c-0.049,0.381-0.6,0.332-0.383,0.863c0.164,0.403,0.703,0.647,1.088,0.765c0.316,0.098,0.99-0.098,1.226,0.077
		c0.262,0.194,0.206,0.732,0.029,0.925c-0.205,0.223-0.208,0.12-0.284,0.386c-0.048,0.167,0.041,0.363-0.075,0.522
		c-0.216,0.299-0.785,0.077-1.115-0.03c-0.028,0.1-0.094,0.193-0.1,0.299c-0.206,0.036-0.378,0.12-0.576,0.193
		c-0.418,0.154-0.663,0.118-1.076-0.019c-0.491-0.163-0.514-0.431-0.879-0.07c-0.25,0.247-0.391,0.201-0.734,0.326
		c0.037,0.318,0.026,0.767-0.193,1.022c-0.234,0.272-0.522,0.186-0.85,0.23c-0.316,0.042-0.635,0.302-0.91,0.478
		c-0.32,0.205-0.718,0.416-0.977,0.697c-0.19,0.206-0.642,0.062-0.898,0.152c-0.2,0.07-0.249,0.169-0.332,0.34
		c-0.053,0.109-0.123,0.348-0.243,0.397c-0.095,0.039-0.2-0.04-0.309-0.047c-0.294-0.02-0.359,0.243-0.648,0.319
		c-0.225,0.059-0.137-0.01-0.322-0.045c-0.217-0.042-0.369,0.066-0.564-0.049c-0.223-0.132-0.332-0.321-0.618-0.362
		c-0.14-0.02-0.388,0.044-0.511,0.119c-0.29,0.177-0.484,0.623-0.697,0.878c-0.264,0.318-0.479,0.141-0.884,0.182
		c-0.411,0.042-0.488,0.449-0.605,0.794c-0.125,0.366,0.038,0.366,0.132,0.659c0.061,0.19-0.064,0.556-0.191,0.698
		c-0.221,0.245-0.58,0.068-0.818-0.04c-0.064,0.231-0.022,0.519-0.171,0.725c-0.172,0.238-0.779,0.233-1.053,0.061
		c-0.217-0.136-0.388-0.379-0.615-0.512c-0.201-0.118-0.343-0.062-0.552,0.017c-0.272,0.102-0.619,0.376-0.91,0.369
		c-0.21-0.005-0.332-0.229-0.519-0.245c-0.33-0.027-0.352,0.374-0.505,0.556c-0.201,0.239-0.45,0.251-0.635,0.083
		c-0.157-0.141-0.308-0.41-0.491-0.504c-0.212-0.109-0.462-0.008-0.691,0.088c-0.292,0.123-0.418,0.203-0.564,0.453
		c-0.156,0.266-0.351,0.343-0.675,0.382c-0.356,0.043-2.338-0.249-2.079,0.582c0.108,0.347,0.561,0.873,0.308,1.259
		c-0.126,0.193-0.547,0.252-0.659,0.48c-0.029,0.058-0.038,0.126-0.016,0.211c0.078,0.311,0.395,0.35,0.083,0.672
		c-0.229,0.236-0.508,0.412-0.733,0.657c-0.158,0.173-0.323,0.329-0.498,0.485c-0.139,0.123-0.351,0.435-0.496,0.506
		c-0.212,0.104-0.59-0.147-0.757-0.266c-0.505-0.36-0.698-1.053-0.997-1.578c-0.075-0.132-0.224-0.346-0.404-0.312
		c-0.26,0.05-0.182,0.424-0.198,0.608c-0.041,0.48-0.302,0.647-0.647,0.909c-0.099,0.075-0.189,0.181-0.296,0.242
		c-0.181,0.103-0.443,0.133-0.551,0.308c-0.147,0.239-0.078,0.831-0.044,1.096c-0.089,0.015-0.177-0.035-0.262-0.001
		c-0.136,0.053-0.298,0.269-0.461,0.266c-0.277-0.005-0.326-0.536-0.355-0.767c-0.287-0.089-1.151-0.18-1.353,0.068
		c-0.145,0.177-0.151,0.356-0.115,0.55c0.049,0.262,0.087,0.513-0.288,0.488c-0.129,0.293,0.119,0.546,0.047,0.859
		c-0.06,0.259-0.255,0.431-0.395,0.646c-0.116,0.179-0.211,0.37-0.325,0.548c-0.17,0.265-0.159,0.392-0.155,0.701
		c-0.431,0.014-0.941,0.111-1.356-0.004c-0.05-0.014-0.177-0.042-0.214-0.093c-0.071-0.101,0.043-0.305-0.089-0.386
		c-0.145-0.089-0.413,0.03-0.52,0.106c-0.224,0.156-0.38,0.345-0.654,0.43c-0.264,0.082-0.908,0.199-1.168,0.061
		c-0.131-0.069-0.266-0.287-0.414-0.331c-0.489-0.146-0.396,0.169-0.301,0.452c0.118,0.35,0.069,0.638-0.004,1
		c-0.109,0.532-0.159,1.136-0.457,1.61c-0.157,0.249-0.453,0.537-0.66,0.75c-0.145,0.149-0.307,0.244-0.501,0.309
		c-0.227,0.076-1.002,0.009-0.84,0.431c-0.408-0.079-0.654-0.158-0.919-0.443c-0.217-0.234-0.422-0.487-0.664-0.695
		c-0.547-0.469-1.163-0.884-1.78-1.254c-0.605,0.323-0.356,0.626-0.502,1.133c-0.006,0.02,0.026,0.01,0.011,0.035
		c-0.315-0.054-0.283-0.483-0.496-0.61c-0.253-0.151-0.752,0.255-0.982,0.362c-0.131,0.061-0.313,0.086-0.428,0.171
		c-0.151,0.112-0.146,0.372-0.239,0.548c-0.181,0.341-0.596,0.425-0.844,0.69c0.07,0.185,0.09,0.35,0.074,0.539
		c-0.289-0.117-0.681-0.55-0.892-0.787c-0.1,0.046-0.145,0.173-0.243,0.214s-0.296,0.008-0.398,0.003
		c-0.291-0.014-0.524-0.192-0.801-0.221c-0.379-0.04-0.294,0.264-0.567,0.436c-0.309,0.195-0.852,0.137-1.203,0.136
		c-0.366-0.001-0.761-0.035-1.115,0.077c-0.245,0.077-0.2,0.11-0.351,0.35c-0.121,0.193-0.232,0.266-0.39,0.42
		c-0.218,0.214-0.364,0.418-0.356,0.736c0.006,0.212,0.111,0.521,0.067,0.717c-0.059,0.267-0.207,0.145-0.372,0.025
		c-0.201-0.147-0.196-0.149-0.377-0.009c-0.139,0.107-0.339,0.198-0.455,0.337c-0.152,0.184-0.222,0.46-0.323,0.67
		c-0.238,0.5-0.932-0.098-0.978,0.52c-0.015,0.201,0.046,0.411,0.045,0.614c-0.002,0.382-0.074,0.51-0.43,0.637
		c-0.308,0.109-0.48,0.176-0.689,0.462c-0.159,0.217-0.554,0.69-0.484,0.985c0.058,0.242,0.453,0.392,0.421,0.657
		c-0.044,0.377-0.487-0.043-0.661-0.109c-0.093,0.307,0.044,0.648-0.044,0.955c-0.07,0.248-0.381,0.282-0.307,0.62
		c0.06,0.274,0.414,0.406,0.33,0.731c-0.046,0.174-0.215,0.18-0.286,0.33c-0.09,0.193,0.054,0.323,0.192,0.45
		c-0.11,0.277-1.068,0.006-1.201-0.18c-0.148-0.207-0.009-0.444-0.199-0.664c-0.053-0.062-0.139-0.078-0.162-0.177
		c-0.037-0.159,0.089-0.277,0.247-0.236c-0.031-0.208-0.14-0.29-0.082-0.463c0.042-0.126,0.177-0.148,0.132-0.319
		c-0.087-0.33-0.563-0.634-0.814-0.811c-0.169-0.12-0.772-0.41-0.548-0.715c0.177-0.24,0.473,0.058,0.649,0.117
		c0.018-0.211-0.009-0.509-0.101-0.704C8.87,81.5,8.87,81.52,8.625,81.519c-0.343-0.002-1.029,0.095-1.241-0.168
		c-0.205-0.254-0.13-0.754-0.13-1.052c0-0.095,0.031-0.261,0.001-0.354c-0.066-0.209-0.127-0.169-0.383-0.171
		c-0.075-0.142-0.118-0.307-0.14-0.465c-0.446-0.026-0.905,0.049-1.349,0.085c-0.117,0.01-0.262,0.057-0.376,0.033
		c-0.11-0.023-0.207-0.104-0.326-0.123c-0.145,0.261,0.022,0.312,0.155,0.459c0.208,0.232,0.101,0.585,0.199,0.848
		c0.095,0.256,0.548,0.412,0.406,0.687c-0.14,0.271-0.855,0.397-1.135,0.569c0.049,0.16,0.239,0.3,0.096,0.466
		c-0.025-0.003-0.05-0.007-0.074-0.013c0.107,0.355,0.404,0.754,0.728,0.954c0.169,0.104,0.31,0.072,0.491,0.102
		c0.245,0.041,0.528,0.331,0.718,0.536c0.451,0.489,0.894,1.066,1.135,1.697c0.037,0.098,0.044,0.21,0.079,0.304
		c0.032,0.085,0.113,0.174,0.139,0.25c0.103,0.311-0.328,0.483-0.434,0.772c-0.162,0.443-0.022,1.108,0.115,1.545
		c0.041,0.129,0.08,0.257,0.133,0.382c0.148,0.351,0.184,0.183,0.47,0.281c0.208,0.072,0.211,0.341,0.396,0.421
		c0.034,0.015,0.153-0.007,0.21,0.01c0.225,0.067,0.434,0.375,0.626,0.505c0.231,0.156,0.286,0.117,0.101,0.381
		c-0.075,0.106-0.216,0.215-0.267,0.34c-0.037,0.091,0.002,0.194-0.047,0.289c0.397,0,1.011-0.174,1.38-0.014
		c0.16,0.069,0.309,0.195,0.381,0.35c0.092,0.196-0.021,0.425,0.119,0.601c0.539-0.188,0.68,0.028,0.933,0.456
		c0.203,0.344,0.272,0.357,0.664,0.405c0.154,0.019,0.441,0.006,0.571,0.132c0.09,0.087,0.055,0.222,0.123,0.306
		c0.163,0.203,0.48,0.144,0.714,0.172c0.055,0.25-0.063,0.552,0.17,0.741c0.277,0.224,0.361-0.077,0.555-0.199
		c0.317-0.2,0.383,0.226,0.601,0.347c0.156,0.087,0.347-0.006,0.437,0.172c0.062,0.122,0.041,0.512-0.017,0.637
		c-0.069,0.148-0.233,0.139-0.328,0.262c-0.163,0.209-0.062,0.602,0.062,0.798c0.354,0.559,0.77,0.17,1.254,0.361
		c0.382,0.151,0.706,0.705,0.719,1.096c0.017,0.49-0.481,0.742-0.706,1.133c-0.192,0.333-0.193,0.852-0.534,1.004
		c-0.204,0.091-0.217,0.052-0.276,0.274c-0.058,0.216,0.013,0.578-0.127,0.754c-0.264-0.108-0.361-0.008-0.456,0.24
		c-0.053,0.141-0.033,0.302-0.091,0.443c-0.046,0.111-0.156,0.198-0.195,0.295c-0.162,0.405,0.165,0.901,0.002,1.277
		c-0.111,0.254-0.445,0.323-0.669,0.433c-0.202,0.099-0.384,0.217-0.593,0.312c-0.275,0.125-0.364,0.122-0.395,0.407
		c-0.027,0.241-0.075,0.588,0.008,0.824c0.069,0.195,0.217,0.23,0.369,0.338c0.311,0.22,0.259,0.543,0.431,0.858
		c0.16,0.293,0.589,0.616,0.873,0.737c0.119,0.051,0.228,0.066,0.335,0.14c0.16,0.11,0.182,0.222,0.407,0.272
		c0.226,0.051,0.489-0.034,0.68,0.097c0.34,0.233,0.303,0.765,0.304,1.117c0.001,0.159-0.027,0.242-0.067,0.373
		c-0.03,0.098-0.077,0.174-0.064,0.29c0.016,0.136,0.095,0.259,0.108,0.4c0.01,0.108-0.023,0.232,0.003,0.338
		c0.02,0.081,0.085,0.219,0.152,0.275c0.17,0.142,0.401-0.015,0.55,0.076c0.209,0.128,0.235,0.605,0.327,0.818
		c0.135,0.313,0.29,0.326,0.274,0.645c-0.012,0.262-0.033,0.52-0.033,0.784c0,0.214-0.026,0.383,0.097,0.565
		c0.128,0.192,0.251,0.302,0.346,0.504c0.12,0.256,0.389,0.85,0.772,0.749c0.242-0.063,0.304-0.379,0.573-0.097
		c0.248,0.261,0.243,0.724,0.275,1.056c0.026,0.269,0.097,0.706-0.032,0.932c-0.042,0.075-0.134,0.11-0.169,0.205
		c-0.063,0.172,0.013,0.374,0.093,0.527c0.127,0.245,0.271,0.459,0.327,0.737c0.05,0.251,0.096,0.375,0.258,0.569
		c0.27,0.324,0.582,0.322,0.985,0.43c0.349,0.094,0.373,0.366,0.659,0.567c0.308,0.217,0.686,0.367,0.959,0.642
		c0.181,0.183,0.201,0.496,0.214,0.751c0.007,0.135-0.029,0.31,0.046,0.432c0.071,0.115,0.24,0.182,0.333,0.29
		c0.194,0.225,0.098,0.508,0.271,0.741c0.289,0.391,1.139,0.233,1.567,0.287c0.251,0.031,0.511,0.071,0.746,0.171
		c0.168,0.071,0.342,0.224,0.52,0.266c-0.093-0.185-0.114-0.526-0.016-0.714c0.441,0.037,0.838-0.095,1.278,0.011
		c0.271,0.065,0.459,0.122,0.719,0.228c0.24,0.097,0.301,0.22,0.453,0.427c0.158,0.215,0.301,0.427,0.446,0.651
		c0.087,0.134,0.128,0.325,0.235,0.438c0.173,0.183,0.789,0.198,1.026,0.165c0.13,0.328,0.036,0.819,0.036,1.176
		c0,0.148-0.034,0.335,0.055,0.461c0.138,0.194,0.392,0.093,0.6,0.164c0.287,0.097,0.201,0.308,0.259,0.598
		c0.136,0.046,0.261,0.056,0.384,0.124c0.12,0.067,0.212,0.21,0.343,0.236c0.022,0.185,0.016,0.43,0.103,0.601
		c0.158,0.31,0.623,0.235,0.674,0.58c0.036,0.242-0.104,0.455,0.065,0.671c0.145,0.187,0.423,0.297,0.602,0.462
		c0.187,0.172,0.357,0.349,0.567,0.494c0.155,0.108,0.256,0.172,0.345,0.332c0.202,0.366,0.131,0.88,0.131,1.29
		c0.392,0.37,0.887,0.794,1.389,1c0.71,0.292,1.188-0.384,1.831,0.058c0.613,0.422,1.179,1.012,1.687,1.553
		c0.273,0.291,0.574,0.567,0.814,0.887c0.232,0.311,0.224,0.431,0.658,0.413c0.015,0.277-0.079,0.439-0.036,0.681
		c0.036,0.205,0.198,0.391,0.23,0.597c0.067,0.432,0.041,1.201-0.05,1.64c0.298,0.156,0.636,0.279,0.887,0.488
		c0.291,0.243,0.503,0.582,0.831,0.811c0.098,0.068,0.196,0.131,0.295,0.191c0.317,0.19,0.644,0.336,1.008,0.432
		c-0.092-0.334-0.025-0.705-0.074-1.052c-0.006-0.044-0.014-0.087-0.024-0.13c0.116-0.04,0.23-0.066,0.343-0.082
		c0.67-0.099,1.295,0.149,1.991,0.067c0.099,0.238,0.142,0.546,0.293,0.765c0.167,0.242,0.465,0.311,0.665,0.492
		c0.33,0.298,0.584,0.805,0.685,1.23c0.053,0.221,0.058,0.595,0.211,0.758c0.165,0.176,0.329,0.129,0.482,0.329
		c0.046,0.06-0.022,0.178,0.049,0.254c0.135,0.145,0.683,0.076,0.857,0.075c0.393-0.003,0.963-0.047,1.302-0.228
		c0.116,0.231,0.05,0.546,0.094,0.803c0.049,0.281,0.174,0.543,0.268,0.812c0.206,0.588,0.198,0.394,0.721,0.647
		c0.283,0.137,0.103-0.024,0.231,0.263c0.077,0.172,0.095,0.298,0.223,0.468c0.1,0.133,0.284,0.353,0.338,0.506
		c0.146,0.415-0.51,0.927-0.142,1.267c0.206,0.19,0.954,0.117,1.216,0.162c0.301,0.052,0.589,0.147,0.823,0.334
		c0.294,0.235,0.562,0.54,0.839,0.794c0.338,0.311,0.61,0.752,0.952,1.033c0.585,0.481,1.474,0.116,1.956,0.797
		c0.14,0.198,0.204,0.452,0.373,0.624c0.255,0.261,0.633,0.246,0.884,0.467c0.173,0.153,0.3,0.586,0.117,0.786
		c-0.199,0.218-0.671,0.014-0.872,0.172c-0.093,0.073-0.01,0.222-0.081,0.302c-0.061,0.068-0.315,0.145-0.333,0.212
		c-0.023,0.086,0.334,0.481,0.383,0.599c0.145,0.012,0.289-0.009,0.438-0.021c0.151,0.293,0.002,1.482,0.671,1.048
		c0.074,0.163,0.093,0.352,0.087,0.53c0.22,0.029,0.492-0.149,0.65-0.13c0.273,0.032,0.142,0.391,0.499,0.334
		c0.446-0.071,1.226-0.838,1.486-0.006c0.453,0.014,0.933-0.18,1.379-0.079c0.431,0.097,0.639,0.582,1.075,0.536
		c0.277-0.029,0.536-0.205,0.85-0.127c0.272,0.068,0.196,0.162,0.389,0.331c0.172,0.15,0.417,0.128,0.635,0.216
		c0.192,0.077,0.34,0.207,0.541,0.286c0.014,0.109,0.089,0.202,0.205,0.239c0.333,0.106,0.391-0.225,0.457-0.443
		c0.086-0.284-0.091-0.237,0.266-0.299c0.269-0.046,0.55,0.047,0.82,0.034c-0.04-0.248-0.09-0.502-0.113-0.753
		c0.305-0.107,0.733,0.084,1.019-0.032c0.253-0.103,0.493-0.584,0.609-0.822c0.119-0.242,0.236-0.464,0.226-0.738
		c-0.009-0.234-0.223-0.592-0.097-0.814c0.463-0.817,0.979,0.857,1.221,1.011c0.363,0.23,0.932,0.008,1.324,0.161
		c0.239,0.093,0.519,0.308,0.686,0.506c0.425-0.279,1.089-0.543,1.435-0.929c0.277,0.186,0.335,0.754,0.459,1.061
		c0.468-0.22,0.535-0.635,0.772,0.037c0.168,0.479,0.091,0.894,0.686,0.836c0.271-0.026,0.769-0.009,0.974-0.208
		c0.262-0.252,0.191-0.638,0.147-0.937c-0.059-0.39,0.001-0.72,0.062-1.105c0.061-0.383-0.143-0.471-0.195-0.804
		c-0.054-0.343,0.26-0.879,0.362-1.196c0.163-0.507,0.249-0.832,0.727-1.105c0.433-0.247,1.491-0.782,1.517-1.321
		c0.008-0.184-0.115-0.29-0.13-0.472c-0.031-0.377,0.261-0.561,0.298-0.93c0.03-0.304-0.16-0.549,0.262-0.628
		c0.261-0.049,0.421,0.139,0.637,0.238c0.19,0.087,0.267,0.115,0.474,0.078c0.093-0.017,0.376-0.246,0.485-0.19
		c0.151,0.077,0.117,0.357,0.246,0.447c0.238,0.166,0.702-0.098,0.959,0.01c0.291,0.122,0.615,0.581,1.013,0.531
		c0.187-0.024,0.522-0.483,0.563-0.692c0.073-0.376-0.268-0.392-0.427-0.684c-0.157-0.289-0.043-0.747,0.095-1.028
		c0.124-0.253,0.032-1.149,0.364-1.208c0.106-0.235-0.156-0.57-0.168-0.834c-0.014-0.307,0.134-0.349,0.233-0.531
		c0.272-0.502,0.161-1.139,0.129-1.702c-0.045-0.797-0.194-1.597-0.196-2.388c-0.001-0.34,0.009-0.582,0.244-0.838
		c0.17-0.186,0.401-0.252,0.415-0.532c0.012-0.24-0.444-0.609-0.158-0.763c0.117-0.063,0.247,0.086,0.348,0.08
		c0.262-0.015,0.347-0.225,0.564-0.387c0.173,0.166,0.212,0.326,0.435,0.411c0.216,0.083,0.46-0.001,0.68-0.003
		c0.149,0.42-0.055,0.543,0.43,0.703c0.281,0.093,0.75,0.262,1.034,0.147c0.269-0.109,0.357-0.38,0.724-0.289
		c0.107,0.026,0.24,0.085,0.291,0.169c0.103,0.171-0.031,0.429,0.028,0.603c0.064,0.187,0.23,0.252,0.325,0.421
		c0.244,0.433-0.062,0.762-0.114,1.184c0.384-0.004,0.527-0.332,0.821-0.001c0.319-0.351,0.357-0.501,0.907-0.535
		c0.417-0.025,0.86-0.009,1.277,0.01c0.028-0.173-0.042-0.398,0.019-0.565c0.026-0.072,0.11-0.068,0.135-0.121
		c0.088-0.186,0.189-0.701,0.347-0.801c0.212-0.135,0.25,0.123,0.367,0.312c0.179,0.288,0.472,0.506,0.842,0.385
		c0.42-0.137,0.433-0.422,0.943-0.262c0.499,0.157,0.739,0.615,1.145,0.918c0.289,0.216,0.663,0.31,0.995,0.433
		c0.377,0.14,0.733,0.044,1.085,0.122c0.833,0.184,0.771,1.154,1.416,1.531c0.382,0.223,0.903,0.517,1.328,0.63
		c0.428,0.113,0.924-0.088,1.318,0.119c0.202,0.106,0.341,0.248,0.576,0.326c0.304,0.101,0.378,0.096,0.611,0.311
		c0.296,0.274,0.484,0.812,0.813,1.016c0.342,0.213,0.761-0.032,1.137,0.021c0.61,0.088,0.808,0.261,1.263-0.208
		c0.098-0.101,0.186-0.3,0.304-0.373c0.226-0.14,0.697-0.078,0.956-0.078c0.348,0,0.826-0.257,1.045,0.08
		c0.171,0.263-0.111,0.399-0.011,0.604c0.136,0.281,0.733,0.38,0.725-0.038c0.284,0.279,0.141,0.551,0.479,0.736
		c0.239,0.131,0.588,0.057,0.796,0.197c0.217,0.146,0.1,0.288,0.179,0.496c0.128,0.338,0.326,0.243,0.421-0.098
		c0.576,0.107,0.694,0.413,0.238,0.875c0.412,0.404,0.879,0.719,1.253,1.167c0.547,0.655,1.646,1.069,2.482,1.261
		c0.966,0.221,1.922,0.038,2.871,0.218c0.633,0.12,1.337,0.284,1.977,0.313c0.44,0.02,0.855-0.123,1.251,0.051
		c0.27,0.118,0.259,0.248,0.595,0.254c0.424,0.007,0.292-0.101,0.578-0.34c0.169-0.141,0.089-0.215,0.377-0.147
		c0.222,0.053,0.377,0.221,0.305,0.442c0.699,0.153,1.05-0.397,1.524-0.793c0.475-0.397,0.577-0.551,0.712-1.164
		c0.139-0.63,0.616-1.583,1.434-1.33c0.319,0.098,0.335,0.266,0.694,0.243c0.296-0.019,0.62-0.225,0.813-0.443
		c0.574,0.448,0.897,1.101,1.659,1.273c0.459,0.103,0.788-0.187,1.22-0.148c1.095,0.098,1.238,1.569,0.884,2.364
		c0.305,0.144,0.629,0.242,0.916,0.144c0.162-0.056,0.265-0.335,0.517-0.315c0.115,0.009,0.343,0.161,0.456,0.218
		c0.144,0.072,0.218-0.006,0.349,0.093c0.103,0.079,0.125,0.295,0.233,0.39c0.24,0.211,0.636,0.178,0.916,0.311
		c0.084,0.04,0.093,0.247,0.189,0.257c0.214,0.024,0.207-0.23,0.356-0.296c0.258-0.114,0.619-0.029,0.897-0.012
		c0.347,0.022,0.493,0.022,0.767-0.104c0.197-0.091,0.428-0.447,0.584-0.004c0.57-0.154,0.578,0.041,0.711,0.546
		c0.091,0.346,0.248,0.746-0.052,1.054c0.252,0.418,0.517,0.119,0.438,0.698c-0.05,0.369-0.195,0.472,0.003,0.839
		c-0.034,0.275-0.368,0.908-0.08,1.138c0.234-0.13,0.61-0.026,0.807-0.171c0.172-0.126,0.22-0.466,0.272-0.685
		c0.105-0.443,0.011-1.207,0.26-1.594c0.276-0.428,0.5-0.483,0.629-1.028c0.14-0.593,0.455-0.96,0.758-1.481
		c0.288-0.493,0.4-1.04,0.801-1.436c0.322-0.318,0.874-0.496,1.085-0.886c0.149-0.276,0.111-0.435,0.34-0.673
		c0.298-0.31,0.337-0.198,0.395-0.676c0.094-0.766,0.667-0.728,1.175-1.21c0.457-0.433,0.74-1.213,1.465-1.308
		c0.698-0.092,1.467,0.814,2.096,0.507c0.167,0.201,0.628,1.037,0.968,0.587c0.489,0.301,0.592,1.1,1.162,1.389
		c0.387,0.196,0.136-0.005,0.548-0.085c0.241-0.048,0.437,0.081,0.645,0.202c0.255-0.464,0.322-0.743,0.858-0.536
		c0.057-0.147,0.089-0.311,0.128-0.47c0.36,0.142,0.344-0.151,0.633-0.242c0.212-0.067,0.514,0.047,0.709,0.174
		c0.323,0.209,0.436,0.631,0.803,0.794c0.046-0.093,0.159-0.154,0.194-0.266c0.148,0.366,0.271,0.663,0.722,0.561
		c0.4-0.091,0.357-0.272,0.397-0.69c0.411,0.098,0.796,0.292,1.228,0.316c0.032-0.147,0.02-0.411,0.116-0.532
		c0.185-0.233,0.406-0.035,0.609-0.175c0.394-0.272,0.101-0.543,0.689-0.698c0.354-0.093,0.661-0.061,0.974-0.171
		c0.124-0.044,0.161-0.15,0.276-0.207c0.367-0.182,0.694-0.326,0.999-0.619c0.753-0.724,0.966-1.762,2.102-1.943
		c0.584-0.093,1.335,0.064,1.862-0.027c0.269-0.047,0.68-0.382,0.876-0.638c0.635-0.832,0.402-2.071,0.794-3.008
		c0.288-0.687,0.77-0.926,1.504-0.939c0.151-0.003,0.352,0.001,0.481,0.019c0.33,0.047,0.52,0.232,0.882,0.401
		c0.292-0.297,0.248-0.361,0.618-0.486c0.347-0.117,0.686-0.014,0.967-0.329c0.268-0.3,0.363-0.783,0.473-1.14
		c0.07-0.229,0.039-0.358,0.19-0.571c0.123-0.175,0.423-0.266,0.481-0.484c0.067-0.248-0.16-0.432-0.184-0.654
		c-0.041-0.372,0.067-0.342,0.362-0.615c-0.066-0.524-0.57-0.666-0.281-1.281c0.144-0.305,0.515-0.391,0.63-0.676
		c0.204-0.504-0.075-1.072,0.176-1.596c0.188-0.392,0.446-0.727,0.387-1.18c-0.532,0.022-0.353-0.823-0.131-1.086
		c0.565-0.665,1.129-0.489,0.997-1.595c0.993-0.286,2.031-0.455,3.013-0.754c0.467-0.142,0.91-0.402,1.37-0.573
		c0.357-0.133,0.795-0.219,1.082-0.484c0.216-0.199,0.345-0.514,0.522-0.738c0.048-0.061,0.188,0.001,0.258-0.122
		c0.066-0.118-0.037-0.311-0.001-0.437c0.072-0.257,0.222-0.394,0.225-0.719c0.002-0.292-0.079-0.567-0.092-0.854
		c0.334-0.084,0.752-0.026,1.102-0.026c0.119-0.436,0.542-0.335,0.759-0.638c0.096-0.135,0.2-0.448,0.274-0.591
		c0.33-0.637,0.816-1.042,1.361-1.537c0.365-0.332,0.387-0.378,0.265-0.872c-0.069-0.28-0.218-0.559,0.047-0.819
		c0.202-0.198,0.328-0.08,0.559-0.15c0.181-0.055,0.336-0.161,0.516-0.243c0.246-0.113,0.792-0.371,0.699,0.192
		c0.266,0.034,0.618,0.207,0.879,0.171c0.381-0.053,0.642-0.362,1.139-0.343c0.4,0.016,1.038,0.14,1.37,0.359
		c0.341,0.225,0.314,0.421,0.78,0.302c0.323-0.082,0.573-0.337,0.833-0.535c0.304-0.231,0.487-0.455,0.864-0.52
		c0.393-0.068,0.854,0.047,1.216-0.09C196.858,114.758,196.718,114.602,196.555,114.461z"/>
</g>
</svg>
