<?xml version="1.0" encoding="UTF-8"?>
<svg baseProfile="full" version="1.1" viewBox="0 0 17669 22088" xmlns="http://www.w3.org/2000/svg">
<defs>
<style type="text/css">polyline,line,rect,path,polygon,.polygon{fill:none;stroke:#000;stroke-width:1px;stroke-linejoin:round;}.country {
    fill: grey;
    opacity: 0.40;
    stroke: black;
    stroke-opacity: 0.5;
}
.federal_state {
    fill: red;
    stroke: black;
    stroke-opacity: 0.5;

}</style>
</defs>
<g transform="scale(1 -1) translate(6614.1 -632611)" fill_rule="evenodd">
<g class="NAME">
<polygon class="federal_state" points="5620 632524 5747.5 632491 5838.6 632373 6007.6 632343 5896.1 632129 5904.1 632006 5862.5 632003 5873.2 631838 6253 631781 6441.2 631463 6527.1 631428 6565.9 631472 6815.1 631489 6859.4 631451 6920.2 631166 6881.6 631122 6923.1 631125 6931.6 631001 6851.6 630954 6904.7 630792 6863.2 630789 6872.1 630666 7008.8 630509 7136.3 630477 7187.4 630356 7228.9 630359 7410.8 630164 7437.5 629833 7565 629801 7677.6 629934 7919.2 629874 7966.2 629715 8012.6 629714 7907.1 629579 7922.5 629413 7969.5 629334 8013.3 629335 8024.3 629250 8179.2 629122 8199.9 628954 8073.7 628870 8261.6 628787 8307.9 628746 8315.9 628663 8183 628323 8190.9 628240 8234.3 628200 8034.5 628109 8039.8 628067 8124.4 628070 8087.9 628026 7721 628058 7713.3 628141 7485.7 628255 7532.3 628215 7446.2 628211 7333.6 627997 7168.2 627905 7174.2 627822 7094.5 627735 7100.4 627652 7146.1 627613 7063.3 627567 7071.9 627443 7114.8 627445 7123.2 627321 7212.1 627284 7169 627282 7217.6 627201 7306.6 627164 7314.8 627040 7061.9 626945 7064.6 626903 7150.5 626907 7155.8 626825 7120.5 626698 6994.4 626651 7042.3 626570 7125.6 626615 7175.9 626493 7390.7 626502 7399.7 626335 7356.9 626334 7529.6 626298 7527.6 626340 7570.1 626342 7573.9 626259 7701.6 626222 7704.6 626139 7746.2 626140 7751 626015 7794 625975 7800.3 625809 7760.4 625766 8012.3 625693 7978.8 625483 8063.3 625445 8108 625364 8117.6 625114 8036.2 625069 8041 624944 7915 624981 7833.6 624935 7830.4 625019 7702.8 625097 7496.7 625047 7499.8 624964 7418.3 624920 7419.9 624878 7503 624881 7547.6 624799 7507.7 624756 7590.8 624759 7678.6 624637 7517.1 624506 7478.7 624421 7352.3 624458 7266 624539 7306.1 624582 7178.1 624662 7139.6 624577 6892.6 624487 6895.8 624403 6855.6 624360 6812.2 624401 6563.9 624311 6609.4 624229 6406.4 624057 6451.7 623975 6411.4 623933 6456.5 623851 6626.8 623771 6758.3 623606 6716.5 623605 6677.8 623521 6687 623270 6731.9 623187 6691.6 623145 6688.6 623228 6557 623393 6434.7 623308 6348.1 623390 6264.4 623388 6304.8 623431 6219.5 623471 6137.4 623427 6142 623303 6059.9 623259 6104.7 623176 6024.1 623091 6065.9 623092 6070.3 622967 5817.9 623004 5699.7 622793 5616 622792 5621.8 622625 5878.9 622461 6054 622255 6226 622132 6233.9 621923 6280.5 621798 6367.3 621716 7077.4 621773 7526.5 622044 7898.6 622106 8222.7 622333 8347.1 622341 8509.9 622433 9010.3 622381 9572.7 621798 9662 621639 9713.2 621395 9804.3 621195 9809.1 621072 9696 620777 9787.1 620577 9954.8 620547 10043 620429 9968.1 620219 9973.1 620096 10147 619902 10289 619501 10704 619528 10709 619406 10548 619272 10433 619018 9984 618823 9863.2 618733 9825.2 618649 9832.1 618485 10067 617845 10195 617772 10243 617612 10331 617495 10337 617373 10295 617370 10258 617285 10265 617122 10458 616481 10634 616249 10475 616115 10480 615992 10523 615955 10853 615979 10939 615904 10869 615613 10874 615491 10633 615350 10641 615187 10723 615193 10799 615321 10880 615368 10925 615290 10855 614999 10541 614688 10546 614565 10714 614496 10845 614343 10769 614214 10569 614115 10534 613989 10457 613901 10141 613671 10105 613585 10112 613462 10232 613513 10236 613431 10164 613260 10085 613212 10092 613089 9982.3 612873 10033 612711 9996.8 612626 10007 612461 9946.9 612083 9606.3 611602 9476.6 611012 9089 610613 9004.2 610606 8941.4 610682 8806.6 610614 8736.9 610692 7987.2 610823 7815.5 610932 7689 611080 7293.3 611244 7139.5 611245 7058 611380 6848.4 611552 6691.3 611391 6469.3 611443 6342.5 611293 6255.1 611314 6194.4 611405 5845.5 611629 5688.8 611555 5602.8 611432 5352.9 611403 5339.9 611516 5085.7 611534 5095.4 611461 4905.7 611417 4643.3 611506 4583.8 611719 4381.2 611825 4152.9 611788 3879 611978 3779.8 612218 3572.4 612414 3673.4 612570 3582.9 612770 3331.3 612719 3276.2 612774 3189.2 612724 3248.2 612940 2580.5 612787 2490.6 612946 2486.8 613027 2187.4 613255 2183.5 613337 2260 613465 2132.7 613539 2171.9 613582 2128.8 613621 2248.5 613710 2242.8 613833 2325.3 613837 2286 613794 2327.2 613796 2372.4 613717 2411.7 613760 2408 613842 2488.8 613887 2524.6 614011 2479.4 614091 2689 614060 2810.3 614147 2848.2 614230 2804.6 614269 2798.8 614392 2920.2 614478 2918.3 614519 2874.6 614559 2876.5 614518 2794.9 614474 2791.1 614556 2914.4 614601 2908.5 614724 2990.2 614768 2898.7 614928 2942.5 614889 2982.4 614931 2894.8 615010 2976.4 615054 2974.4 615095 2686.1 615002 2721.7 615127 2596.9 615121 2634.5 615205 2385.4 615194 2215.6 615267 2255.1 615310 2130.7 615304 2128.7 615345 2209.5 615390 2166 615429 2205.4 615472 2161.9 615511 2157.8 615593 1985.6 615708 1902.8 615703 1857.1 615783 1894.3 615868 1848.6 615947 2134.9 616045 2251.1 616215 2249 616256 2207.4 616254 2203.2 616336 2076.4 616371 2107.3 616579 2065.7 616577 2179.7 616788 2225.7 616708 2265.1 616751 2217.1 616873 2256.6 616916 2046.5 616947 2033.4 617194 1943.6 617313 1976.5 617480 1934.8 617478 1858.2 617350 1774.9 617345 1737.6 617261 1571.2 617252 1564.5 617375 1398 617366 1308.1 617484 1266.4 617482 1299.1 617649 1088.6 617678 1051.5 617593 843.25 617580 753.09 617699 674.36 617611 630.45 617650 623.52 617773 537.94 617809 533.3 617891 230.13 618077 193.12 617992 112.09 617946 26.425 617981 -49.91 617853 -91.601 617850 -17.556 618019 -140.34 617970 -142.63 618011 -302.38 617877 -346.49 617915 -351.22 617997 -434.63 617992 -474.03 617948 -430 617910 -422.81 617787 -508.61 617822 -798.39 617762 -877.07 617674 -963.08 617710 -1081 617579 -1154.7 617409 -1243.2 617486 -1282.5 617442 -1329.3 617521 -1808 617118 -1894.3 617154 -2101 617099 -2213.6 616885 -2255.5 616882 -2263.3 617005 -2470.4 616950 -2475.7 617032 -2517.7 617029 -2512.4 616947 -2551.8 616903 -2638.4 616938 -2761.9 616888 -2756.6 616806 -2840.8 616800 -2793.4 616721 -2832.9 616676 -2959.3 616667 -3048.7 616743 -3146.1 616943 -3225 616854 -3353.8 616886 -3435.3 616838 -3432.6 616797 -3516.7 616790 -3521.9 616873 -3563.9 616869 -3642.7 616780 -3729.2 616814 -3778.9 616934 -3865.4 616968 -3862.8 616927 -3907.3 616965 -3985.9 616875 -3988.5 616916 -4161.3 616984 -4242.5 616936 -4245.1 616977 -4499.4 616997 -4489 617115 -4601.9 617287 -4560.5 617324 -4558.2 617283 -4474.2 617289 -4486.9 617537 -4404.8 617543 -4289.7 617719 -4209.3 617767 -4177.3 617936 -4064.9 618153 -4069.6 618235 -4152.2 618228 -4156.9 618310 -3972.3 618457 -3884.3 618624 -3681.4 618720 -3582.4 618855 -3625.4 618965 -3599.4 619003 -3485.9 618949 -3619 619067 -3527.7 619069 -3588.8 619220 -3466.2 619388 -3500.5 619568 -3472.5 619626 -3549.9 619682 -3395.1 619887 -3422.9 619937 -3539 619815 -3584.5 619893 -3709.6 619923 -3798.3 620039 -3880.2 620032 -3972.6 619941 -4279.6 620020 -4488.7 620347 -4580.1 620401 -4728.3 620370 -4817.8 620207 -4946.7 620198 -4913.1 620366 -5006.2 620484 -4963.1 620487 -4965.5 620528 -5053.9 620564 -5130.6 620517 -5136.6 620600 -5176.2 620638 -5342.2 620674 -5438 620836 -5482.4 620836 -5468.3 620909 -5524.5 621027 -5498.2 621113 -5568.3 621178 -5557.1 621372 -5602.9 621496 -5751.6 621547 -5806 621716 -5890.1 621596 -5964.2 621650 -5962.5 621609 -5917.7 621609 -5914.4 621527 -6004.1 621527 -6007.5 621608 -6052.3 621608 -6062.2 621854 -6017.4 621854 -6155.3 621935 -6156.9 621976 -6246.7 621975 -6163.4 622139 -6301.3 622220 -6213.2 622262 -6214.9 622303 -6259.7 622302 -6307.8 622384 -6311 622466 -6266.2 622466 -6360.7 622588 -6365.5 622711 -6410.3 622710 -6408.8 622669 -6455.2 622710 -6457.2 622762 -6367.1 622752 -6325.5 622834 -6328.8 622916 -6370.4 622833 -6416.8 622874 -6418.4 622915 -6373.5 622915 -6380 623079 -6290.6 623080 -6338.6 623161 -6249.3 623162 -6250.9 623203 -6295.5 623203 -6254.2 623285 -6298.8 623284 -6303.7 623407 -6216.4 623449 -6219.8 623531 -6077.2 623567 -6049.5 623703 -6178.7 623761 -6096.7 623973 -6018.7 623943 -6022 624010 -5786.2 624143 -5917.9 624665 -5763 624744 -5684.5 624869 -5163.9 624982 -5135.3 625273 -5050.8 625319 -5056.9 625442 -4970.3 625447 -4976.4 625571 -4689.7 625616 -4583 625505 -4401.3 625582 -4121 625605 -4125 625687 -4167.5 625686 -4308.8 625969 -4228.1 626053 -4310.8 626010 -4363.6 626214 -4408.2 626254 -4156.2 626303 -4109.4 626222 -4149.7 626179 -4147.5 626138 -4105.2 626139 -4145.4 626097 -4103 626098 -4100.9 626057 -3933.5 626103 -3929.2 626020 -3844.4 626023 -3876.2 625816 -3833.7 625817 -3914.6 625733 -3789.2 625777 -3659.6 625739 -3621.4 625822 -3496.1 625867 -3540.7 625907 -3500.5 625949 -3413.3 625910 -3460.1 625991 -3337.3 626077 -3122.6 626041 -2919.4 626212 -2794.3 626256 -2786.9 626132 -2614.1 626094 -2644.7 625885 -2552.4 625763 -2388.6 625890 -2395.8 626014 -2312.9 626057 -2174.7 625893 -2087.1 625677 -1953 625771 -1489.4 625938 -1486.7 625897 -1357.4 625897 -1325 625987 -1455.4 626066 -1556.5 626278 -1525 626409 -1484.3 626412 -1500 626586 -1460.1 626590 -1584.2 626622 -1595.6 626752 -1635.9 626749 -1632.3 626706 -1765 626787 -1768.3 626830 -1611.1 626926 -1658.3 627009 -1617 627011 -1619.8 627053 -1661.1 627051 -1668.7 627177 -1790.7 627130 -1754 627215 -1671 627218 -1592.9 627306 -1390.9 627398 -1296.2 627194 -951.64 626961 -954.05 627003 -871.6 627007 -835.09 627092 -672.71 627143 -677.44 627226 -638.56 627270 -689.16 627434 -609.14 627479 -611.43 627521 -739.9 627598 -703.31 627683 -788.23 627720 -792.92 627804 -671.54 627851 -625.61 627770 -465.34 627862 -520.76 628109 -481.87 628153 -319.07 628203 -273.05 628122 -149.04 628129 -71.066 628216 52.78 628223 401.28 628660 486.32 628624 534.73 628502 661.18 628469 782.78 628518 812.49 628727 895.09 628732 1067.7 628619 1141 628790 1267.6 628757 1262.8 628839 1301.7 628883 1384.6 628889 1411.5 629139 1491.9 629186 1533.3 629189 1550.2 628900 1713.5 628952 1842.8 628878 2047.7 628933 2206.3 629068 2250.2 629029 2247.7 629070 2328.3 629117 2413.8 629082 2492 629170 2575.1 629175 2562.6 629381 2643.2 629428 2638.2 629510 2679.6 629513 2677.2 629555 2633.2 629593 2625.6 629717 2542.6 629711 2693.5 629970 2696 629928 2864.7 629898 2862.1 629939 2945.2 629945 2991.8 629865 3116.5 629874 3152.9 629959 3402.3 629976 3524.5 630025 3560.9 630110 3730 630080 3685.8 630119 3722.2 630204 3724.8 630163 3925 630300 4141.1 630191 4221.8 630238 4211.1 630402 4244.7 630529 4408.6 630581 4411.3 630540 4661.2 630557 4700.1 630601 4689.2 630766 4819.6 630692 4814.1 630774 4853 630818 4797.8 631022 4839.4 631024 4664.8 631137 4792.4 631104 4953.5 631197 5073 631288 5067.6 631371 5184.5 631503 5187.1 631461 5359.1 631390 5398 631434 5312.1 631470 5431.6 631560 5345.6 631596 5298.6 631676 5373.8 631805 5324.1 631925 5321.5 631967 5363.1 631969 5357.8 632052 5271.9 632087 5266.6 632170 5180.7 632205 5178.1 632247 5505.7 632351 5539.4 632477" fill="red" stroke="#000" stroke-opacity=".5"/>
</g>
</g>
</svg>
