<?xml version="1.0" encoding="utf-8"?>
<!-- Generator: Adobe Illustrator 26.0.3, SVG Export Plug-In . SVG Version: 6.00 Build 0)  -->
<svg version="1.1" id="Layer_1" xmlns="http://www.w3.org/2000/svg" xmlns:xlink="http://www.w3.org/1999/xlink" x="0px" y="0px"
	 viewBox="0 0 200 200" style="enable-background:new 0 0 200 200;" xml:space="preserve">
<style type="text/css">
	.st0{fill:#1E8346;}
</style>
<g id="Isolation_Mode">
	<g>
		<g>
			<path class="st0" d="M95.7,37.6c-0.6,0.5-0.3,1.1,0.4,1.2c0.3-0.2,0.3-0.6,0.5-1C96.6,36.7,96.3,38.2,95.7,37.6z"/>
			<path class="st0" d="M94.5,33.1c0,0.6,0.9,1.1,0.7,0.3c0.6,0.1,0.6,0.6,0.8,1c0.6-0.9-0.9-1.2-1.2-1.9c0.3-0.2,0.3-0.5,0.1-0.6
				c-0.1,0.4-0.5,0.7-0.9,0.6C94.1,32.8,94.3,33,94.5,33.1z"/>
			<path class="st0" d="M96.8,35.9c0,0.2,0.1,0.4,0.3,0.5c0.2-0.2,0-0.6,0-0.9c-0.1-0.3,0.3-0.6,0.3-0.8c0-0.2-0.3-0.2-0.3-0.3
				c0-0.2-0.1-0.4-0.2-0.2c-0.2,0.3,0.4,1.4-0.3,1C96.2,35.5,96.7,35.7,96.8,35.9z"/>
			<path class="st0" d="M98.3,36.8c-0.2,0.1-0.4,0.5-0.2,0.7c0.5-1,0.3-0.3,0.8-0.1c0.6-0.1,0.5-0.7,0-0.9c-0.1-0.1-0.5-0.8-0.8-0.5
				C98.4,36.2,98.7,36.6,98.3,36.8z"/>
			<path class="st0" d="M98.3,34.8c0.1-0.3,0.5-0.4,0.7-0.5c0.1,0,0.2,0.2,0.4,0.1c0.3-0.3,0.5-0.7,1-0.8c0.5,0.1,0.4-0.7,0-0.7
				c-0.2,0.4-0.7,0.6-1.2,0.8c-0.2-0.2,0-0.3,0.2-0.5c0.2-0.6-0.8,0-0.7,0.4c-0.1,0.7-1.2,0.8-0.9,1.7
				C98.2,35.2,98.2,34.9,98.3,34.8z"/>
			<path class="st0" d="M90.6,41.7c0.5,0,0.2,0.7,0.7,0.8c0.2,0.2,0.1,0.8,0.5,0.8c0.3-0.3,0.7-0.4,0.9-0.7c0-0.4-0.4-0.7-0.2-1.2
				c-0.2-0.4-0.8-0.4-1.1-0.6c-0.1-0.2-0.3-0.4-0.5-0.3C90.6,40.7,89.9,41.4,90.6,41.7z"/>
			<path class="st0" d="M93.8,42.1c-1-0.1-0.3,1.3,0,0.4C93.7,42.3,93.8,42.2,93.8,42.1z"/>
			<path class="st0" d="M93.9,36.1c0.6,1,1.2,0.2,1.2-0.7c-0.4,0.4-0.8-0.3-1.2-0.2C93.5,35.4,93.5,35.9,93.9,36.1z"/>
			<path class="st0" d="M96.1,41.9c-0.2,0-0.3-0.1-0.3-0.3c-0.2,0.1-0.4,0.1-0.5,0.3c-0.1,0.1,0.1,0.3-0.1,0.4
				c-0.2,0.1-0.6-0.1-0.6,0.2c0,0.2,0.3,0.3,0,0.5c0.3,0.4-0.1,1.1,0.4,1.4c0.6,0.3,1-0.6,0.4-0.9c-0.1-0.5,0.4-0.8,0.4-1.3
				C95.9,42,96.2,42,96.1,41.9z"/>
			<path class="st0" d="M91.1,39.5c0.2,0.6,0.5,0.7,0.8,0.1c0.5,0,0.4,0.6,0.6,0.9c0.9,0.6,1.7-0.6,2.4-0.7c0.1,0.5,0.3,0.9,0.5,1.3
				c0.2-0.2,0.5-0.2,0.8,0c0.3,0.1,0.4-0.2,0.5-0.4c0.1-0.2,0.2-0.1,0.4-0.1c0.5,0,0.4-0.6,0.3-0.9c-0.2,0.1-0.5,0.2-0.6,0.4
				c-0.1,0.2,0,0.4-0.3,0.4c-0.6-0.2,0.2-0.7,0.1-1.1c-0.4,0-0.9,0.8-1.1,0.2c0-0.2,0.1-0.9-0.3-0.6c-0.3,0.6-0.5,0-0.9,0
				c-0.3,0-0.5,0.2-0.8,0c0.2-0.3,0.6-0.3,0.8-0.6c0.1-0.3,0.1-0.7,0.1-1c-0.2-0.2-0.5-0.5-0.7-0.7c-0.3-0.1-0.6,0.1-0.8-0.3
				c-0.1-0.2-0.3-0.5-0.6-0.2c-0.3,0.2-0.6,0.1-0.9,0.3C90.7,37.1,91.1,38.5,91.1,39.5z"/>
			<path class="st0" d="M104.2,16.6c0.3-0.2,0.5-0.8-0.1-0.8C103.6,15.9,103.6,16.8,104.2,16.6z"/>
			<path class="st0" d="M115.6,11.2c-0.4,0-1.5,1.1-0.6,1.2C115.2,12.2,116.1,11.5,115.6,11.2z"/>
			<path class="st0" d="M115.5,5.2c0.3,0.2,0.5,0,0.8-0.1c0.4,0,0.3-0.6,0.3-0.9c0-0.3,0.2-0.5,0.4-0.7c0-0.2-0.3-0.3-0.2-0.6
				c0.2,0,0.3,0.1,0.5,0.2c0.1-0.3-0.1-0.5-0.1-0.7c0-0.1,0.1-0.3-0.1-0.3c-0.2,0-0.3-0.1-0.5-0.1c-0.1,0.1-0.1,0.3-0.3,0.5
				c-0.2-0.2,0-0.7-0.2-0.7c-0.3,0.5-0.6,1.3-0.6,1.9C115.3,4,115,4.8,115.5,5.2z"/>
			<path class="st0" d="M116.9,7.2c0.3,0,0.6-0.5,0.4-0.8c-0.1,0-0.1,0.1-0.2,0.2c-0.2-0.1-0.3-0.5-0.5-0.6c-0.4,0.2-0.4,0.1-0.9,0
				c-0.2,0.4,0,1.4,0.5,1.4c0.3,0-0.1-0.4-0.1-0.5C116.2,6.7,116.8,7.2,116.9,7.2z"/>
			<path class="st0" d="M107.7,12.5c0.2,0.1,0.4-0.1,0.5-0.3C108.1,11.6,107,12,107.7,12.5z"/>
			<path class="st0" d="M63.7,71.1c1-0.2,0.1-1.2,0.2-1.8c0-0.4,0.6-0.7,0.4-1.2C63.4,68.6,62.8,70.5,63.7,71.1z"/>
			<path class="st0" d="M108.3,28.4c-0.1,0.2,0,0.5,0.3,0.3c0.2-0.2,0.3-0.5,0.2-0.8C108.6,28.1,108.4,28.3,108.3,28.4z"/>
			<path class="st0" d="M108.9,9.2c0.3-0.1,0.6-0.2,0.9-0.2c0.2,0.2,0,0.4-0.1,0.5c0.1,0.2,0.4,0.1,0.5-0.1c0.3,0.2,0.2,0.7,0.5,0.9
				c0,0.2,0.4,0.4,0.3,0.7c-0.1,0.3-0.4,0-0.5,0.1c-0.2,0.3-0.1,0.9,0.3,0.8c0.4,0,0.2-0.6,0.5-0.8c0.6,0.6-0.3,1.2,0,1.9
				c-0.2-0.2-0.3-0.5-0.4-0.7c-0.2,0-0.4,0-0.5-0.3c-0.4,0.3-0.1,0.3,0,0.6c0.1,0.3-0.3-0.1-0.4-0.1c-0.2,0-0.4,0.3-0.5,0.3
				c-1.4-0.2-1.6,0.3-1.4,1.5c1-0.4,0,0.7,0.9,0.3c0.2-0.2,0.3-0.2,0.4,0c0.1,0,0.2-0.2,0.3-0.1c0.1,0.1-0.2,0.3-0.2,0.4
				c0,0.5,0.6,0.7,0.9,0.9c0-0.1,0-0.3,0-0.5c0.4,0.1,0.4-0.1,0.5-0.4c0.4-0.2,0.4-0.4,0.2-0.8c0.3-0.6,0.4,0.7,0.4,0.9
				c0.2,0.3,0.5,0.3,0.4,0.7c0,0.4,0.3,0.5,0.2,0.8c-0.2,1.2-0.5,2.3-0.7,3.5c-0.2,0.1-0.3,0.3-0.2,0.5c-0.2,0.3-0.2,0.5,0.1,0.6
				c0.4-0.2,0.4,1.1,0.8,0.5c-0.3-0.5,0.1-1.1,0.2-1.6c0-0.2-0.4-0.9,0-0.9c0.2,0,0.5,0.4,0.6,0.1c0-0.4-0.7-1,0.1-1
				c-0.6-1.1,0.8-2.1,0.3-3.2c-0.4-0.5-0.6-1,0.2-1.3c0.2-0.4,0-0.9,0.5-1c0.5-0.4-0.7-0.6-0.7-0.8c-0.2-0.3,0.4-0.1,0.5-0.2
				c0.4-0.4,0.6-0.7,0-0.9c1.4-1.3,0.6-1.4-0.4-0.2c-0.3-0.3-0.9-0.4-0.2-0.6c-0.1-0.4-0.5-1.7-1.1-1.3c-0.4,0.2,0.3,1.5-0.4,1
				c-0.2-0.4,0-0.9,0-1.3c0-0.3-0.4-0.5-0.1-0.7c0.3-0.1,0.4-0.5,0.1-0.7c0.1-0.4,0.2-0.9,0.2-1.3c-0.4,0.6-0.8,0.4-1.4,0.3
				c0.1,0.7-0.6,1.1-0.6,1.8c-0.2-0.1-0.2-0.6-0.5-0.2C109.3,8.3,108,9.3,108.9,9.2z"/>
			<path class="st0" d="M113.1,7.4c0.2,0.4,0,2,0.8,1.6c0-0.7,0.7,0.6,0.8-0.7c0.1-0.2-0.2-0.5,0-0.7c0.2-0.3,0.3-0.6,0.1-0.9
				c-0.3-0.9,0.9-1.9-0.3-2.7c-0.6,0.1-0.9,0.8-1,1.3C112.9,6,113,6.7,113.1,7.4z"/>
			<path class="st0" d="M114.2,15.5c-0.1-0.1-0.2-0.2-0.2-0.3c-0.5-0.1-0.1,1.2,0,1.5C114.7,17.1,114.5,15.9,114.2,15.5z"/>
			<path class="st0" d="M67.5,87.5c-0.9-0.8-2-1-3.1-1.4c-0.4-1-1.4-3.3-2.6-1.7c-0.1,0.5-0.9,0.1-0.9,0.7c0.1,0,0.2,0,0.3,0
				c-0.2,0.6-1.2,0.9,0.2,1c1.4,0.1,1,1.6,2.7,0.6c0,0.9-1,0.6-1.4,1c-0.1,0.3-0.2,0.6-0.4,0.8c-0.2,0.2-0.5,0.2-0.3,0.5
				c0.6,0.6,1.5-0.3,2.1-0.5c-0.2,1-1.7,1-2.5,1c0.3,0.4,0,0.5-0.3,0.2c-0.1-0.3-0.5-0.4-0.8-0.3c-1,0.5,0.7,2.1,1,1
				c0.9-0.2,2,0.1,2.6-0.6c0.4-0.1,0.7-0.3,0.9-0.6c0.6-0.1,0.6,0.2,0.2,0.6C66.6,90.2,67.9,88.7,67.5,87.5z"/>
			<path class="st0" d="M142.8,154.1c-1-3.8-5.3-5.9-9-5.5c-2.4-1.1-4.1,0.3-4.9,2.6c-0.5,0-1.2,0-1.7-0.2c-0.3-0.3-0.2-0.8-0.6-1.1
				c-0.2-0.1-0.5-0.1-0.5-0.4c0.1-1.6,2.3-2,2.7-3.5c-0.1-2.2-1-5.1-2.5-6.7c-0.9-0.2-1.4-0.8-2.1-1.2c-0.5-0.6-1.5-0.8-1.6-1.6
				c-0.5-0.8-1.5-0.2-2.2-0.3c-0.8,0.9-1.4-0.6-2.4,0c0.3-0.6,0.9-0.4,1.4-0.2c1.1,0.5,2.2-1,3.2-0.3c0.4,0.6,0.9,1.1,1.6,1.5
				c0.9,0,1.7-0.1,2.4,0.6c-0.3-2.1-5.7-7.1-2.6-8.6c0.6-0.5-0.4-0.7-0.6-0.8c-0.8-0.2-0.7-0.9-1.2-1.4c-1-0.4-1.4-1.5-1.5-2.5
				c-1.6-2-3.5-3.2-6.1-3.7c-0.4-0.4-0.8-0.7-1.4-0.6c-0.3-0.1-0.3-0.5-0.2-0.8c0.3-1-1.2-0.8-1.2-1.7c-0.2-1.2-0.5-2.4-0.6-3.6
				c-0.8-0.5-0.6-1.7-1.2-2.4c-0.3-0.7,0.2-1.4-0.2-2c-0.2-0.5-0.6-0.8-0.6-1.3c0.4-0.6-0.5-0.7-0.4-1.2c0.7-1.1,0.1-2.4-0.2-3.5
				c-0.1-0.8-0.8-0.8-1.5-0.9c0-0.4-0.2-0.4-0.5-0.5c-0.8-1.3-1.9-2.5-2.5-3.9c-0.3-1.3-1.4-1.2-2.5-1.5c-0.8-0.5-1.5-1.1-2.5-1.2
				c-0.5-0.9-1.3-1.2-2.4-0.9c-1.3,0.5-2.2,3.3-3.8,1.5c-0.7-0.2-1.5,0.1-1.9-0.5c-0.6-0.3-1.5,0.3-2.1-0.1
				c-0.4-0.3-0.9-0.1-1.3-0.2c-0.2-0.1-0.1-0.3-0.4-0.3c0-0.1,0-0.2,0-0.3c0.5,0.1,1,0.1,1.6,0c0.4,0.2,0.9,0.5,1.4,0.4
				c1.8,0,2.9-1.2,4-2.5c0.4-0.8,1.1-0.9,1.9-0.5c1-0.1,2.1-0.7,2.8-1.5c-0.4-0.1-0.8-0.2-0.9-0.6c-0.3-0.5-0.9-0.2-1.3-0.5
				c0-0.4-0.4-0.2-0.7-0.4c1-1,0.6-1.8-0.8-1.6c-1.2,0.5-2.3,1.6-3.6,1.7c1.4-1.4,3-2.3,5-2.2c0.9,0.4,1.7-1.3,2.6-1.7
				c0.5-0.4,0.5-0.9,0.6-1.5c0.1-0.3,0.6-0.5,0.6-0.9c0-0.2-0.1-0.4,0-0.6c0.9-1.2,2.6-2.3,2.5-3.9c0-1.2,1.2-2.2,1.4-3.3
				c0.1-0.6-0.3-1.2,0.1-1.8c0.2-1.9,2-3,2.8-4.8c-0.1-2.4-1.6-5.5-4.3-3.9c-0.6,0-0.9-0.8-1.4,0c-1.3,0.2-2.9-0.1-4.3-0.4
				c-0.6-0.4-1.2-0.3-1.7,0.2c-1.7,0.9-3.3-1.3-5.1-0.6c-0.5,0.2-0.5,0.2-0.7,0.6c-0.7,0.9-2.4-0.1-2.9,1.3c-0.6,0.5-2.1,0.5-2.7,0
				c0-0.5,0.6-0.7,0.7-1.2c-0.5-0.3-0.9,0.4-1.4,0.3c-0.7-0.5-1.6,0.2-2.2,0.6c0.1-0.8,1-1.3,1.8-1.2c0.5-0.2,0.9-0.6,1.4-0.9
				c0.2,0.2-0.1,0.6,0.1,0.7c0.4,0.3,0.7,0.1,0.8-0.3c0-0.6,2.3-2.7,1.2-2.7c-0.4,0.3-0.4,0.8-0.9,0.4c-0.5-0.5-0.9,0.5-1.5,0.3
				c-0.3-0.5-0.7,0-1-0.4c-0.2-0.4-0.5-0.6-1-0.4c0.6-0.4,1.4,0.4,2-0.1c0.9-0.1,0.3-1.4,0.9-1.9c0.3-0.3,0.8-0.4,1.2-0.6
				c0.5-0.2,0.1-1,0.6-1.1c2.5-0.5,3.1-4,5.6-4.7c1-1,1.9-2,2-3.4c-0.2,0.1-0.6-0.1-0.8-0.2c-0.2-0.6,2.2-3.5,0.6-3
				c-0.9-0.1-1.6-0.3-2.5-0.2c-0.3,0-0.3-0.2-0.5-0.3c-0.2,0-0.4,0.4-0.3,0.6c0.2,0.1,0.4,0.2,0.4,0.5c-0.2,0-0.4-0.2-0.7-0.2
				c-0.4,0.2-1.1,0.5-1.2-0.2c-1.2-0.3-1.8,1.3-3,1.3c-0.7,0.1-1.6,0.2-1.6-0.6c-0.2,0.2-0.4,0.4-0.6,0.7c-1-0.7-0.7,0.6-1.6,0.3
				c0,0.1,0,0.2,0,0.3c-0.2,0-0.3-0.3-0.5-0.2c-0.2,0.2-0.6,0.1-0.8,0c-0.1,0.4-0.2,0.6-0.6,0.8c0,0.3-0.1,0.4-0.3,0.6
				c-0.3-0.2-0.1-0.5,0-0.8c0.5-0.9-0.4-1.3-1.2-1.4c-0.4,0.4-0.1,1-0.7,1.2c-0.4,0.3-0.5,1-1,1.2c-0.2-0.7,1.1-1.5,0.5-2.1
				c-0.5-0.1-1-1.5-0.9-0.3c-0.4-0.2-0.6-0.5-1-0.7c-0.5,0-0.9,0-1.3-0.3c-0.4,0.4-0.1,1.2-0.6,1.6c-0.8,0.4-0.7,1.4,0,1.8
				c-0.7,0-0.7,0.6-0.3,1c-0.2-0.1-0.4-0.2-0.6-0.2c0,0.6-0.5,1.2-0.2,1.7c0.4,0.4,0.4,1,1,1.3c-0.4-0.3-0.7-0.2-1,0.2
				c-1.1-0.5-0.6,0.3-1.4,0.2c-0.2-0.1-0.7-0.8-1-0.4c-0.3,0.3,0.4,0.8,0.6,1c0.8,1,0.8,3.8-0.8,1.8c-0.6,0.6,0.1,1.1,0.4,1.6
				c0.3,1.1,2.4,1.7,2.5,3.1c-0.6-0.7-1-1.3-2-1.1c-0.2-0.1-0.7-0.2-0.7,0.1c0.4,0.4,1.4,0.6,1.4,1.3c-1.2-0.1-1.4-1.8-2.2-0.2
				c-0.8,0.2-0.6-1.3-1.3-1.1c-1.7,0.9,1.1,1.3-0.1,2.9c-0.8-0.1-0.1-1.3-0.7-1.7c-1.2-0.9-2.2,1.5-1.1,2.1c0.3,0.3,0.9,0.2,1,0.6
				c0,0.3-0.2,0.2-0.4,0.2c-0.5,0.1-1,0.9-0.7,1.4c0.8,0.3,0.8,1.3,1.6,1.5c0.3,0,1.4-0.1,1,0.4c-1.3,1-1.8-0.7-3-0.7
				c-0.3,0.5-0.4,1.6,0,2.1c0.2,0.2,0.4,0.2,0.3,0.6c-0.4,2.3,0.7,1.3,1.8,0.8c-0.2,0.6,0.4,0.5,0.8,0.5c-0.4,0.6-1,0.2-1.5,0.8
				c-1,0.7,0.6,0.5,1,0.8c0.8-0.1,1.5,0.3,1.7,1c-0.4,0-0.4-0.1-0.7-0.4c-0.5-0.4-1.7-0.1-1.2,0.7c0,0.4-0.8,0.7-0.4,1.1
				c0.7,0.1,1.3,0.4,1.6,1.1c-0.3,0.2-0.7-0.3-0.9-0.5c-1.3-0.9-2.8,2.1-0.7,1.5c0,0.6,0.4,0.8,0.9,1c-0.9,0.6-1.3-0.8-2-0.6
				c-1,0.3-0.7,1.8-1.2,2.6c0.4,0.1,1.5-0.5,1.5,0c-0.2,0.4,0.2,0.4,0.3,0.6c-0.4,0.2-1.4,0-1.6,0.5c-0.3,0.4,0.2,0.7-0.2,1.1
				c-0.6-0.6-1.1-0.4-1.7-0.1c-0.8-0.1-1.7,0.2-1.3,1.2c0.2,0.3,0.7,0.3,1,0.1c1,0.4,1.9,0.3,3,0.4c-0.3,0-0.6,0.4-0.7,0.7
				c-0.1-0.1-0.2-0.3-0.4-0.4c-0.3,0.1-1,0.2-0.7,0.8c0.8,1.9,4.6,3,4.8,0.2c1.9-0.9,2.6-2.3,3.8-3.7c-0.1,0.7-0.9,1.2-1,2
				c1.2,0.1-0.1,0.6-0.5,0.8c-0.3,0.3-0.3,0.8-0.7,1.1c-0.4,0.6-1.3,1.4-1.1,2.1c0.1,0.3,0.2,0.5,0,0.8c-0.2,0.2-0.6,0.7-0.6,1
				c-0.2,1.4-1.7,1.2-0.6,2.7c0.3,0.9-1.3,2.7,0.6,1.3c0,0.4-0.5,0.6-0.3,1c0.1,0.5-0.3,0.6-0.6,0.9c-0.3,0.6-0.8,1.2-0.8,1.9
				c0.3,0.4,0,0.7,0.2,1.2c1.9-1.3,0.3,0.2,0.1,0.9c-0.3,0.8,0.4,1,0.9,1.4c0.1,0.8-0.8,1-0.9,1.7c-0.2,1.1-0.7,2.1-0.4,3.3
				c0.3,1.1-1.3,1.2-0.9,2.3c-0.2,1.4,0.4,1.4,1.5,0.9c0.8,0.1,1.2-0.8,1.3-1.4c-0.4-0.6-0.7-0.7-0.2-1.4c0.5-1.2,0.8-2.5,0.8-3.9
				c0-1.2,2.2-1.4,1.2-2.6c-0.3-0.7-1.5-2.6-0.7-3.1c0.9-0.7,1.2-2,2-2.8c1.2-0.5,1.4-1.9,2.7-2c-0.5,0.7-1.3,0.9-1.6,1.8
				c-0.6,0.4-0.9,0.8-1.3,1.4c-1.2,1.3-1.8,3.7,0.2,4.5c0.3-0.3-0.3-0.8-0.2-1.2c0.1-0.3,0.2-0.7,0.4-1c0.2,0.3,1.4,1.8,0.9,0.4
				c-0.2-0.3-0.3-0.4-0.2-0.7c1.1,0.2,0.4,1.4,0.9,1.9c0.8,0.4,1.1-1.2,1.1-1.7c0-0.8,0.7-0.1,1.1-0.5c0.2-0.4-0.7-1.1,0-1.5
				c0.1,0.8,0.5,1.1,1.1,1.4c0.2,0.3,0.2,0.6,0.6,0.8c0.2,0.1,1.3,0,0.9,0.5c-1.3,0.1-3.5-1.5-3.5,0.9c0.1,1.3,0.6,1.9,0.1,3.2
				c0.6,1.3,2.6,1.6,2.4,3.2c1.1,1.2-0.5,1.5-1.2,2.2c0,0.7-0.5,1-0.6,1.6c0,0.4,0.1,1-0.1,1.4c-1,1-2.4,2.7-1.9,4.1
				c0.4,0.4,0.7,2.3-0.3,1.4c-0.5-0.4,0-1.4-0.5-1.6c-2.3,1,0.8,4,1.5,5.2c-0.2,0.8-0.1,1.4,0.9,1.5c0.2-1.8-2.3-3.1,0.7-4
				c0.4,0.7,1.4,0.6,1.8,1.4c1,1,3,3,2.7,0.2c0.4-0.8-1.3-1.3-0.2-2.2c0.4,0.6,1.1,1.4,1.8,0.6c0,0.6,0.3,1.5,1,1.6
				c0.5-0.1-0.1-1.4,0.7-1.1c0,0.3-0.2,0.6-0.1,1c0.7,0,1.5-0.3,2-0.7c0.2-0.3-0.2-0.8,0.3-1.1c0.6,0.9,1.1-0.3,1.9-0.1
				c0.7,0.1,0.7-0.7,1.1-1.1c0.3,0.5-0.7,1.9,0,1.8c0.2,0,0.3-0.3,0.4-0.4c0.4-0.3,1.1-0.2,1.4-0.7c-0.8,1.2-0.5,2.9-1.8,3.8
				c-0.7,0.8-0.2,1.8-0.6,2.6c-0.1,0.3-0.3,0.5-0.2,0.8c0.6,0.5,1,1.5,1.6,2c0.7,0.7,0.2,1.7,1,2.5c0.6,1.1,1,0.2,1.5-0.4
				c0.6,1.2-2,2.8,0.3,3.4c0.7-0.5,0.7-2.6,1.6-2.5c0.3,0.2,0.1,0.6,0.5,0.8c0.4-0.4,0.6-0.8,1.2-1c0,0.3-0.1,0.4,0.3,0.7
				c1,1-0.9,1.6-0.8,2.5c0.3,0.4,0.7,1,0,1.3c-1.2,0.4-1.8,0.4-1.5,1.8c0,1.4-0.2,1.4,1.1,2c-0.8,0.7-1.4,1.9-1.6,2.9
				c1,1.3,1.3,4.3,3.5,3.6c0,0.2,0.1,0.4,0,0.6c-2.1,0.5-2.1-0.7-3-2.3c-2.9,1.1-0.6,1.6-0.5,3.3c-0.9-0.3-1.9-1.7-2.5-1.9
				c-2.1,0.5-2.9,1.8-5.2,0.4c0.1,0.7,0.3,0.9-0.6,0.9c-0.9,0.1-1.3,1-2.3,1c0.2-0.7,1.8-1.7,0-1.5c-0.2,0.1-0.4,0.5-0.6,0.1
				c-0.2-0.3-0.2-0.6-0.3-0.9c-0.2-0.2-0.3-0.1-0.5-0.4c-0.3-1.4-2-0.6-2.8-0.3c-0.1,0.4,0.1,0.8-0.1,1.1c0.1,0.3,0.2,0.7-0.2,0.9
				c-0.1-0.4-0.9-0.7-1.1-0.1c0.3,0.4,0.9,0.2,0.9,0.8c0.8-0.3,0.9,0.5,1,1.1c0.2,0.5,1,0.1,0.9,0.7c0.5,0.1,1.1,0.1,1.4-0.4
				c-0.7,1-0.9,2.2-1.9,3c-1.2,1.1-2.8,1.9-3.2,3.6c0.4-0.2,0.7-0.3,1.1-0.4c0.3,0.3,0.5-0.1,0.7-0.3c0.3,0.2,0.5,0.5,1,0.6
				c-0.7-2.4,4-3,3.3-0.3c-0.3,1,1.1,1.1,1,1.9c-0.3,0.5-0.5,1-0.4,1.6c0.1,0.9,1.1,1.4,0.5,2.3c-0.5,1.4-0.9,3-2.3,3.8
				c-1,0-1.6,0.8-2.3,1.4c-0.6,0.5-1.6-0.2-1.9,0.6c-0.3-0.3-0.6,0.3-0.8,0.6c-0.2,0.2-0.6,0.5-0.6,0.8c-0.5-0.1-0.7-0.4-0.9,0.2
				c-0.3,0.1-0.6-0.1-0.6-0.3c-0.2,0-0.7-0.1-0.8,0.2c0.4,0.9-0.8,0.9-1.3,1.1c-0.3,0.5-1.1,0.6-1,1.2c0.7,0.2,1.4,0.1,2.1,0.2
				c0.4,0.7-0.2,1.6-1,1.7c-0.2,0.4-0.4,0.2-0.6,0.5c0.6,0.2,0.7,0.2,0.8,0.8c0-1.1,1.3-0.5,2-0.3c0,0.4-0.5,0.1-0.7,0.1
				c-0.2,0.1-0.4,0.3-0.6,0.1c0,0.1,0,0.2,0,0.2c0.8,0.1,0.3,1.1,1.1,1.2c0.4,0.1,0.8,0.1,1.1-0.2c0.5-0.7,1.7-0.1,1.9-1.2
				c0.7-1.6,2.7-0.1,3.5-1.6c-0.4,3.3,1.5,0.7,2.7,1.9c-0.2,0.5-0.6,0.5-1,0.5c-0.9-0.1-1.4,1.3-0.3,1.5c0.6,0.3,0.9-0.1,1.3-0.4
				c0.4-0.1,0.9,0.4,1.1,0c0.9-2.1,2.4,1,3.1,1.7c0.7,0.2,0.9,0.9,1.5,1.1c1-0.1,2.2,0.2,3.1,0c1-0.3,0.8-1.4,1.7-1.9
				c0.8-0.7,1.8,0,2.6-0.6c1.1-1.2,3.3-2.3,3.7-3.9c0.2,0,0.5,0,0.7,0.1c-0.3,0.8-1.3,1.2-1.9,1.9c-0.7,0.8-0.7,2-1.7,2.6
				c-1.3,0.4-1.8,1.7-2.7,2.6c-0.5,0.6,0,1.2-0.3,1.9c-0.3,0.7-1.4,0.1-2,0.4c-0.6,0.4-1.6,0.3-2.2-0.2c-0.8-0.3-1.6-0.2-2.3-0.1
				c-1.3-0.8-3-0.1-4.4,0c-1.7,0.1-1.1,1.8-1.8,2.9c-1.9,2.7-2.6-3.6-3.2,4.4c0,0,0,0,0,0c-0.7,0.4-0.9,1.1-1.7,1.4
				c-0.4,1.1-1.2,2.1-2.5,2c-0.6,0.6-0.1,1.9-1,2.2c-0.6,0.1-0.6,0.7-0.9,1.1c-0.7,0.4-0.8,1.3-1.6,1.5c-0.6,0-0.8,0.5-1.1,0.8
				c-0.6-0.3-1-0.3-1.6,0.2c-0.3,0.2-0.9,0.2-0.9,0.6c0,0.6-0.4,1.9,0.7,1.5c0.4-0.1,0.7,0,0.9-0.5c0.1-0.9,1.2-0.5,1.7-0.1
				c0.5,0.1,1,0.4,1.2,0.9c0,0.4-0.1,0.9,0.4,1c0.2,0.1,0.2,0.2,0.3-0.1c0.2-0.3,0.5-0.4,0.8-0.5c0.6-0.3,0.4-1.1,0.3-1.6
				c0.4-0.4,0.2-0.9,0.5-1.4c0.2,0.2,0,0.5,0.1,0.7c0.2,0.2,0.3-0.2,0.4-0.3c0.2-0.5,0.7-0.9,1.1-1c0.4,0,0.9,0.4,1.1-0.2
				c0.1-0.2-0.2-0.7,0.1-0.7c-0.3-1.3,1.2-0.3,1.9-0.7c1.2,0.2,2.6-1.2,3.4,0.2c0.2-0.2,0.5-0.4,0.5-0.7c0.5-0.3,0.6,0.4,0.6,0.7
				c0.3,0.1,0.5,0.1,0.8,0.1c0,0.1,0,0.3,0.1,0.4c2.2-0.9,0.9,0.9,2.3,0.9c0,0.3,0.3,0.4,0.4,0.2c0.5,0.5,0.6,0.1,1.1,0
				c-0.2-1.7,1.3-1.5,1.7-2.7c-0.7,0-0.6-0.7-0.4-1.1c-0.2-1.4,0.7-2.3,2-2.5c0.8-1.4,2.5-0.9,3.7-1.7c2-0.2,4.9,1.3,5.2,3.4
				c1.1-0.4-0.4-1,0.1-1.7c1.3-0.8,2.9,0.3,4.2,0.5c0.2-0.2,0.4-0.4,0.8-0.3c0.3-0.5,0.2-0.8,0-1.2c-0.3,0.3-0.7-0.3-1-0.4
				c-0.2-0.6,1-0.1,1.2,0c0.5-0.1,1.1-0.5,1.6-0.3c0.5-0.5,1.4-0.3,2-0.1c0.5-0.7,3-0.6,2.3-1.8c-0.2-0.4-0.9-0.7-0.6-1.2
				c0.6,0.2,0.7,1.1,1.3,1.3c0.4,0.2,1.2,0.4,1.4,0.8c0.9,0-0.1-0.9,0.7-1c0.1,0.1-0.1,1.4,0.5,0.8c0.1-0.6,0.7-1.3,0.6-0.2
				c0,0.1-0.3,0.5,0,0.4c0.3,0,0.3-0.8,0.7-0.4c0.2,0.2,0.2,0.4,0,0.5c-0.2,0.6,0.8,0.6,1.1,0.4c0.1,0.1,0.1,0.2,0.2,0.3
				c1.5-1.4,4.7-1.7,6.7-1.5c1.3,0.2,3,1.9,4.2,0.8c1.1-1.7,3.2-1,4.5-2.2c0.5-1.1,1.7,0,2.5-0.5c0.3-1.2,0.1-2.1,1.6-2.3
				c1.1-0.2,2.2-1,2.9-1.8c0.3-0.6-0.1-1.4-0.4-1.9c2.5-2.3-3.3-0.6-4.3-0.7c-0.1-1-1.3-1.5-2-0.8c-0.4-0.4-0.5,0-0.8,0.3
				c-0.3-0.3-0.2-0.2-0.5,0c-0.3,0.1-0.9-0.2-1.1-0.4c0.3-0.3,0.7-0.1,1-0.5c0.4-0.2,0.9,0.1,0.8-0.5c-0.3-0.2-0.8,0-1-0.2
				c-1.2-0.6-1.8,1-2.9,0.4c0.9-0.2,1.3-1,2.2-0.9c0.3,0,0.6,0,0.7-0.3c0.6-0.4,1.4,0,2-0.1c0.6-0.2,1.4-1,1.4-1.6
				c0-0.4,0.1-1.7-0.7-1.6c-0.3-0.4-0.1-0.4,0.3-0.5c0.5-0.2,0.7-0.6,1.2-0.7c0.2,0.1,0.3,0.2,0.2,0.4c0.7,0.6,3.2-1.6,1.7-1.7
				c0.2-0.4,0.4-0.7,0.5-1.1c0.9,0.4,1-0.9,1.6-1.4C142.3,162.3,143.1,157.1,142.8,154.1z"/>
			<path class="st0" d="M114,186c-0.3-1.6-2.4-0.7-3.5-0.2c-0.6,0-1,0.2-1.3,0.7c1.5-0.9,3.2,3,4.1,0.6c0.4-0.3,0.8-0.2,1-0.7
				C114.2,186.2,114.1,186.1,114,186z"/>
			<path class="st0" d="M74,98.8c-0.6-0.4-1-0.8-1.5-1.4c-0.4,0.2-0.1,0.7,0.2,1c0.3,0.7,0.3,1.6,0.9,2.1c0.1,0.2,0.6,0.6,0.5,0.1
				c-0.3-0.3,0.1-0.5,0-0.8C73.9,99.5,74.2,99.1,74,98.8z"/>
			<path class="st0" d="M51.8,72.1c0.3-0.3,0.2-0.5-0.1-0.7c-0.1-0.9-0.7-1.3-1.6-1.4c-0.2,0-0.2,0-0.3,0.2c0,1.3-0.1,2.7-0.1,4.1
				c0.1,0.8,0.4,1.5,1.3,1.3c0.2-0.1,0.9,0.2,0.8-0.2c-0.7-0.4-0.2-1.1-0.5-1.7c-0.1-0.1-0.3-0.2-0.2-0.4
				C51.8,73.1,51.4,72.5,51.8,72.1z"/>
			<path class="st0" d="M48.4,78.8c0.5,1.1,0.3-0.6,0.8-0.5c0.6,0.2,0.5-0.5,1-0.5c0.1-0.1,0-0.2-0.1-0.3c-0.1-0.2,0-0.3-0.3-0.4
				c0-0.9-0.4-1-0.5,0c-0.6,0-0.5,0.3-0.5,0.8c-0.2,0.1-0.4,0.2-0.3,0.5C48.4,78.5,48.2,78.6,48.4,78.8z"/>
			<path class="st0" d="M67.6,127.2c1.3,0.3,1.9-3.1,0.1-2.3c-0.3-0.1,0.1-0.6,0.2-0.7c0.1-0.6,0-1.2-0.4-1.8
				c-1-2.1,1.1-0.7,1.4,0.2c0.1,0.6-0.1,1.2-0.3,1.7c0.2,0.3,0.5,0.8,0.6,1.1c0.3,0.2,0.2-0.5,0.2-0.6c0.3-0.6,0.4-1.3,0.6-2
				c-0.7-1-0.5-2.7-1.8-3.3c-0.6,0.3-1,0-1.6,0.1c-0.4,0.2-0.7,1-1.2,0.7c-0.4-1.4,1.8-1.3,1.9-2.5c0.3-0.8-0.7-2.2-0.8-1
				c-0.3-0.1-0.2-0.5-0.2-0.8c-0.7-1.1-1.8-1.9-1.7-3.4c-1.7,0.5,0.1-2-1-2.5c-0.3-0.1-0.4-0.4-0.6-0.6c-0.5,0.5-1.1,0.5-1.6,0
				c-0.4-0.4-1.1,0.1-1.4-0.3c-0.6-0.4-0.8,0.7-1.4,0.7c-0.6,0-1.1,0.2-1.4,0.6c-0.8,0.1-1.7,0-2.5-0.3c-0.6,2.8-1.2,2.6-3.9,2.5
				c-0.7,0.5-1.1,1.2-0.5,2c-0.9,0.1-0.5,1-0.7,1.6c-0.3,0.5-0.9,0.7-0.8,1.4c0,0.5-0.1,0.4-0.6,0.4c-0.6,0-1,0.7-1.6,0.7
				c-1.3-0.8-0.6,0.1-1.6,0.1c0,0.6,0.3,0.9,0.7,1.3c0.3-0.5,0.5-0.2,0.7,0c0.3,0.2,0.5-0.3,0.7-0.1c0.5,0.3-0.6,0.6-0.7,0.6
				c-0.6,0.7-0.9,1.6-1.9,0.9c-1-0.3-0.5,0.7-1,1c-0.4,0.1-0.6,0.4-1.1,0.4l0,0l0,0l0,0c0.4,0.8,1,1.5,1.7,2.1
				c0.3,0.4,0.5,0.8,1,0.8c0.6,0.2,0.2,0.6,0.4,1.2c0.3,0.9,0.7,0.3,1.3,0.3c0.8,0.3,1.3,1.3,2.2,1.6c0.4,0,0.6-0.5,1-0.5
				c-0.1,1,1.4,1.1,0.7,0.1c0.2-0.1,0.3-0.2,0.5-0.3c0.1,0.2,0.1,0.4,0.1,0.6c0.7-0.4,0.1-1.5,1.2-1.5c0.9-0.5-0.7-1.4-0.1-1.9
				c0.3-0.1,0.6-0.2,0.7-0.6c0.9-1.8,1.8-0.2,2.6,0.6c0.2,0.3,0.1,0.6,0,1c0.1,0.5,0.9,1.9,1.5,1.4c1.3,0.2,0.1,1.9,1,2.6
				c0.5-0.4,1.6-0.5,2.2-0.4c0.2-0.4,0.2-1.1,0.8-0.5c0.7-0.7,1.4,0.2,1.9,0.7c1,1,2.8-0.8,2.7-1.9
				C64.9,127.3,66.8,126.5,67.6,127.2z"/>
			<path class="st0" d="M72.2,101.5c-0.3-0.4-0.1-0.4-0.7-0.6c-0.9,0.5-1.6,1.7-0.9,2.6c0.2,0.2,0.2,0.2,0.1,0.5
				c0,0.3-0.1,0.7,0.2,0.9c0.1,0.3,0.1,0.7,0.5,0.8c0.8,0.6,2.5,0.1,1.7-1c-0.5-0.5,0.4-0.7-0.1-1.1
				C72.4,102.9,73.5,101.9,72.2,101.5z"/>
			<path class="st0" d="M75.2,100.3c0.3-0.1,0.2-0.5,0.1-0.7C75.1,99.8,74.6,100.5,75.2,100.3z"/>
			<path class="st0" d="M62.4,65.7c-0.8-0.1-0.3-1.6-1.2-1.6c-0.5,0.1-0.6,1-1.3,1c-0.2,0.7,0.9,1.5,0.3,2c-0.1,0.4,0.5,0.9-0.2,1
				c-0.1-0.1-0.1-0.2-0.3-0.2c-0.3-0.3-0.6-0.6-1-0.8c-0.2-0.4-0.1-0.9-0.5-1.1c-0.4-0.2-0.6,0.5-0.6,0.8c0.1,0.5,0.9,0.6,1,1.1
				c-0.9-0.2-0.6,0.7-0.3,1.1c-0.6,0.3-0.7-0.9-1-1.2c-0.3-0.2-0.6,0.6-0.4,0.9c-0.6,0.1-0.7,0.7-0.1,0.8c0,0.9,0.9,1.5,1.7,1.6
				c0.1-0.7-0.1-1.4,0.8-0.7c0.3,0.5,1,0.3,1.2,0.8c-0.4-0.2-0.6-0.1-1,0.2c-0.4,0.3,0.1,0.7,0.2,1.1c0.6,0.4,0.8,1.7,1.6,1.2
				c0.2,0.2-0.3,0.5-0.2,0.7c0.7-0.1,1.2-0.4,1.8-0.6c0.3,0,0.2,0.1,0.2,0.4c-0.2,1.5,1-0.2,0.8-0.8c0.3,0.9,0.7,0.6,1.3,0.8
				c-0.3,0.4-1.1,0.4-1,1.1c0.1,0.6-0.7,1-0.3,1.6c1,0.1,1.2-1.1,2-1.5c0.5-0.1,0.1-0.5,0.2-0.9c0.7-0.4,1.8-1.3,0.7-2.1
				c-1-0.3-1.3,0.9-2.4,0c1.3-0.9-1.2-1.8-0.3-0.3c-0.4,0.1-0.5,0-0.5-0.4c-0.9-0.2-0.8-1.1-1-1.9c-0.3,0-0.6,0.3-0.7-0.2
				C63.4,68.8,62.8,66.9,62.4,65.7z"/>
			<path class="st0" d="M80.8,123.9c-2,0.5-2.8,2.6-3.7,4.1c0.1,0.8-0.3,1.5-0.6,2.2c0.2,0,0.4-0.1,0.5-0.1c0.1-0.8,0.5,0.3,0.8-0.1
				c0.8-0.6,4.7-3.8,2.7-4.5C80.9,125.1,81,124.5,80.8,123.9z"/>
			<path class="st0" d="M52.8,56.5c0.4,0.3,0.1,0.9,0.8,0.6c-0.3,0.4,0.1,0.6,0,1c-0.7-0.1-0.6,0.8-0.2,1c0.7,0.3,1.8,0.2,2.1,1.1
				c-0.6-0.3-1.4,0-0.8,0.7c-0.2,0.1-0.4,0.1-0.6,0.1c-0.3,0.2-0.4,1-1,0.7c-1.1-0.7,0.8,1.5,1.2,1.6c0.1-0.3,0.4-0.2,0.4-0.5
				c0.1-0.3,0.3,0,0.4-0.2c0-0.4,0.4-0.5,0.8-0.6c0.1-0.1,0.1-0.4,0.2-0.5c0.7,0.4,0.4-0.3,0.1-0.6c-0.1-0.2-0.4-0.3-0.2-0.5
				c0.6-0.3,1.6,1.1,1.3-0.4c0.1-0.3,0.5,0,0.6-0.3c0.2,0,0.5,0.5,0.7,0.1c0.2-0.2,0.1-0.1,0.3-0.1c0.5-0.4,0.6-1.2-0.2-1.4
				c0.1-0.8,2,0.7,1.5-0.7c0.1-0.9,0-1-0.8-1.4c0.3-0.2,0-0.2,0-0.5c0.9,0.3,0.8-0.5,0.8-1.1c0.6,0,1.2,0.3,1.5,0.2
				c0.3-0.3,1-0.9,0.7-1.4c-0.7-0.5-0.9,2.3-1.9,0.3c0.1-0.5,1-0.2,0.7-1c0.4-0.2,0.8-0.6,1.1-0.9c0.3-0.2-0.2-0.4-0.3-0.6
				c-0.1-0.4,0.3-0.8,0.3-1.2c-0.1-0.3-0.2-0.5-0.2-0.9c-0.1-0.4-0.6-0.3-0.8-0.7c-0.6,0.8-1.5,1.3-2.2,2c-0.5,0.4-0.8,1.2-1.5,1.1
				c-0.7,0.1-1.1,0.8-1.7,1.1c-0.5,0.8,0.5,1.3,0.8,1.9c-0.2,0.3-0.8-0.1-0.7-0.5c-0.3-0.2-0.9-1.4-1-0.5c0.1,0.2,0.5,0.2,0.4,0.5
				c0.2,0.4,0,0.6-0.3,0.9c-0.1-0.2-0.5-0.4-0.4-0.6c0.1-0.3-0.2-0.3-0.4-0.4c-0.5-0.4-1-0.2-0.9,0.5c0.1,0.3-0.2,0.4-0.4,0.5
				C53.1,55.6,52.3,56.2,52.8,56.5z"/>
			<path class="st0" d="M58.4,76.6c0.2-0.1,1.3-0.3,0.5-0.5C58.5,75.9,57.4,76.6,58.4,76.6z"/>
			<path class="st0" d="M60.8,102.9c0.5,1.1,1.6-0.6,2.4-0.7c0.8-0.6,0.8-1.7,0.1-2.4C63,98.9,63,97.9,62.9,97
				c-0.9,0.2-1.8,1.1-2.1,2c-0.3-0.5,0-0.8,0.1-1.2c-0.2-0.1-0.5,0.5-0.6,0.5c-0.5,0-0.8,0.2-0.7,0.7c-0.1,0.3-0.3,0.4-0.1,0.7
				c0.2,0.5-1.3,2.6,0.2,1.6c0.5-0.5,0.7-1.5,1.4-1.7c1.1,0.1-0.1,0.8-0.2,1.1C62.1,101.7,61.2,101.9,60.8,102.9z"/>
			<path class="st0" d="M57.2,85.1c-0.7,0.7,0.6,0,1,0.1c0.6-0.1,1.5-1.4,1.2-1.8C58.3,83.2,58.1,84.9,57.2,85.1z"/>
			<path class="st0" d="M64.9,98.3c1.1-1.7,4.4-7.9,0.1-3.3c-0.5,0.2-1,0.9-0.9,1.4c0.4,0,0.7,0,1.1,0c-0.1,0.4-1,0.3-1.3,0.4
				c-0.9,0.6-0.9,2.9,0.6,2.7C64.6,99.1,64.7,98.7,64.9,98.3z"/>
			<path class="st0" d="M62.6,78.5c-0.2,0.2-0.1,0.4-0.2,0.6c-0.2,0.1-0.3,0.4,0,0.5C63.1,80.1,63.5,78.6,62.6,78.5z"/>
			<path class="st0" d="M54.2,87.3c0.6,0.5,0.8,0.7,1.1-0.2c0.7-0.2,0.7-1.1,1.5-0.9c-0.1-0.3-0.3-0.6-0.6-0.3
				c-0.6-0.1-1,0.6-1.6,0.2C54,86.2,54.2,86.8,54.2,87.3z"/>
			<path class="st0" d="M48.9,66.3c0.4,0.2,0.4,0.6,0.9,0.2c0.7,0.3,0.9,0.8,1.2,1.3c0.2,0.1,0.5,0.1,0.4,0.4
				c-0.2,0.3-0.7-0.2-1-0.1c-1.5,1,0.7,2,1.7,1.9c0.4-0.3-0.1-0.9-0.3-1.1c0.6-0.5,0.8-1.1,0.9-1.9c0-0.4,0.8-1-0.1-0.9
				c-0.1-0.2-0.2-0.4-0.4-0.5c-0.2-0.1-0.1-0.5,0.1-0.3c0.2,0.2,0.5,0,0.7,0.2c0.1,0.1,0.1,0.3,0.3,0.2c0.4-0.4,0.1-1-0.4-0.7
				c-0.1-0.3-0.1-0.3-0.3-0.1c-0.2,0-0.1-0.5-0.2-0.6c-0.2-0.1-0.5-0.1-0.7,0.2c-0.2,0.1-0.2,0.2-0.3,0.4c-0.5,0.1-0.8,0-0.6-0.5
				c-0.7,0.6-0.5,1.2-1.4,0.3c-0.5,0.1-0.2,0.9-0.6,1.1C48.3,66.1,48.8,66.3,48.9,66.3z"/>
			<path class="st0" d="M59.9,77.6c0.3,0.1,0.5,0.2,0.5,0.5c1.2,1.6,2.1-1.5,0.5-1.9C60.4,76.5,59.2,77,59.9,77.6z"/>
			<path class="st0" d="M62.6,94.4c0.2-0.2,0.3-0.6,0.3-0.9c-0.6,0.1-2.3,2.6-1,2.2C62.3,95.4,62.1,94.7,62.6,94.4z"/>
		</g>
	</g>
</g>
<g id="Layer_1_00000150797812917553790020000003809835560240908715_">
</g>
</svg>
