<?xml version="1.0" encoding="utf-8"?>
<!-- Generator: Adobe Illustrator 26.0.3, SVG Export Plug-In . SVG Version: 6.00 Build 0)  -->
<svg version="1.1" id="Isolation_Mode" xmlns="http://www.w3.org/2000/svg" xmlns:xlink="http://www.w3.org/1999/xlink" x="0px"
	 y="0px" viewBox="0 0 200 200" style="enable-background:new 0 0 200 200;" xml:space="preserve">
<style type="text/css">
	.st0{fill:#1E8346;}
</style>
<g>
	<g>
		<path class="st0" d="M21,57.8L21,57.8L21,57.8z"/>
		<path class="st0" d="M196.7,70.5c0.8-3.9-6.5-0.3-5.6-3.1c0.5-1.5-1.4,0-2.2-0.3c-1-0.4-2-1-2.9-1.7c-0.5-0.5,0.1-1.6-0.9-1.7
			c-0.9-0.3-1.9-0.3-2.5-1.1c-2.6-1.3,1.5-1,0.9-2.4c-0.1-0.2-0.1-0.4-0.3-0.5c-1.6-0.2-1-2.2-0.6-3.3c0.9,0.8,2.8,0.9,3.2-0.4
			c-0.3-0.5-1-1.1-1.7-1c-0.6,0.1-0.7-0.8-0.9-1.2c-1-0.1-0.9,1.6-2.4,1c-0.7-0.3-0.1-1.2-1-1.4c-0.3-0.1-0.8-0.1-0.5-0.6
			c0.3-0.7,0.5-0.9,1.1-1c0.3-0.1,0.5-0.6,0.2-0.9c-0.2,0-0.7,0.3-0.8,0.2c-0.2-0.7,0.9-0.2,1.2-0.5c-0.2-0.3-0.4-0.7-0.6-1
			c1.2-0.1,1.5-0.1,0.9-1.3c-0.1-0.6-0.9-0.4-1.2-0.9c-0.1-1.2,1.2,0.5,1.5-0.3c0.7-1.6-1.4-0.6-2-0.4c0-0.2,0.1-0.5,0-0.7
			c1.7,0.1,3.1-0.2,1.8-1.9c-0.5,0.3-1.1,1-1.7,0.9c-0.8-0.1-2.7-1.6-1-1.7c0.5,0.3,1.3,0.7,1.6,0c0.5-0.7-0.8-3.1-1.4-1.5
			c-0.1,0.2-0.1,0.5-0.4,0.4c-1.9,0.1,0-1.5-0.6-2.4c0.7,0.3,2.5-0.4,1.2-1c-0.2-0.1-0.6-0.3-0.5-0.6c0-0.5,1.6-0.8,0.9-1.3
			c-0.3-0.1-0.7,0.1-1,0.1c0.2,0.5-0.5,0.3-0.8,0.4c-0.2,0.2-0.4,0.3-0.5-0.1c-0.4-0.7-0.8,0.9-0.6,1.4c-1,0.3-1.4-0.7-2.1-1
			c-0.5-0.1-1.1-0.3-1.2-0.8c-0.5,0.1-1.1,0.6-1.6,0.1c0,0.4,0.3,1.1-0.3,1.2c-0.3,0.1,0,0.5,0.2,0.8c-0.2,0.1-0.7,0.3-0.8-0.1
			c-0.1,0-0.1,0.3-0.1,0.5c0.1,0.5-0.4,0.7-0.7,1c0,0.4-0.5,0.5-0.4,0.9c-0.1,0.5-1.1,0.3-0.7,1.1c-0.4-0.2-0.7-0.2-0.6,0.4
			c-0.7-0.1-0.8,0.9-1.4,0.5c-0.6-1.1-0.8,0.1-0.9,0.7c-0.3,0.1-0.9-0.2-1.1,0.2c-0.2,0-0.2,1-0.2,1.4c-1.3,0.4-1.4-0.4-1.7-1.4
			c-0.2-0.2-0.5-0.1-0.7-0.4c0,0.1,0,0.2,0,0.3c-0.5,0-0.6,0.4-0.7,0.8c-0.8-0.8-1.8-0.3-2.8-0.4c-0.6-0.3-0.8-1.2-1.6-1.2
			c-0.7-0.3-0.9-0.2-1.3,0.4c-0.2-0.5-0.7-0.8-1.3-0.6c-0.3,0.6-0.7,1-1.4,1.1c-0.7-0.2-1.5-0.2-2.1-0.7c-0.4-0.5-0.8-0.9-1.5-0.6
			c-2.2,0.6-1.4-0.9-3.6,1.1c-0.1-0.4-0.3-0.7-0.7-0.9c-0.4-0.3-0.1-1.3-0.7-0.9c-1.1,0.7-0.9-1.1-1.8-0.2c-0.4-1.4-2.3-0.7-3.3-1.3
			c-0.6-0.9-0.6-2.4-1.6-3.2c-0.9-1.3-2.2-1.3-3.6-1.5c-0.7,0-1.5-0.7-2.1-0.4c-0.5,0.2,0.9,1-0.5,0.8c-0.1-0.5-0.3-0.7-0.6-0.1
			c-0.1,0-0.3,0-0.4,0c-0.1-1.2-0.7-0.3-1.3-0.6c-0.2-0.8,1.5-0.1,1.4-0.8c-0.4-0.1-0.8-0.5-0.5-0.9c0.1-0.2,0.2-0.5-0.2-0.5
			c-0.3,0.5-0.4,1.1-0.9,0.2c-0.4-0.6,0.2,1.5-0.8,1c0-0.2,0.3-1.2-0.2-0.9c-0.1,0.1-0.2,0.2-0.4,0.1c-0.2-0.3,0.2-0.5-0.3-0.6
			c-1.5-0.6-1-0.8,0.1-1c-0.2-0.7-2.3,0.1-0.7-1.5c-0.4-0.3-1-0.3-1.1-0.9c-0.1-0.5-0.5-0.3-0.8-0.2c0-0.3,0.5-0.7,0.4-0.8
			c-0.4-0.1-0.4-0.1-0.4-0.6c-0.3,0-0.7,0-1,0c0-0.4-0.1-0.7-0.2-1c1,0.1,0.2-0.4,0.2-0.8c0.1-0.2-0.6-0.4-0.7-0.6
			c-0.1-0.1,0-0.4-0.2-0.5c-0.3-0.2-1,0.3-0.9-0.3c-0.6,0.2-1-0.7-1.4-0.2c-0.5-1.2-2.1-1.8-3.3-1.8c-0.3-0.6,0-1-0.9-0.9
			c-0.7-0.5-1.5-1.2-2.3-1.7c-0.2-1.4,0-3.2-1.2-4c-0.1-0.1-0.2-0.1-0.2-0.3c-0.2,0-0.2,0.2-0.4,0.2c-0.6-0.1-0.9-1.4-1.4-0.5
			c-0.3-0.2-0.4-0.5-0.7-0.1c0.2-0.8-0.6-0.3-0.7-1c-0.2,0.1-0.3,0.3-0.5,0.4c-0.9-0.6-0.7-2.4-1.9-2.6c0-0.1,0-0.3,0-0.4
			c-1-0.1-2-0.5-3-0.7c-0.2-0.3-1-0.6-1.2-0.2c-0.2-0.3-0.4-0.2-0.7-0.3c0.1-0.4,0-0.6-0.4-0.7c-0.3-0.1-0.5-0.2-0.5-0.5
			c-0.5,0-0.6-0.5-1.1-0.4c-0.4-0.2-0.3-0.7-0.9-0.6c-0.6-0.1-1-0.5-1.6-0.6c0.4-0.5-0.7-0.6-0.6,0c-0.6-0.2-0.4,0.2-0.6,0.6
			c-0.8-0.1-0.7,1.2-1.5,0.6c-0.8-0.5-0.5,1.4-1.4,1c-0.2,0.5,0.3,0.7,0.5,1.1c0.2,0.6,0.1,1.5,0.2,2.1c0,0.6,0.6,0.8,1,1.2
			c0.7,1.2-0.7,1.2-1.6,1.1c-0.3-0.2-0.2-0.5-0.6-0.2c-0.3-0.5-0.9,0.1-1.3,0c0-0.5-0.6-0.3-0.9-0.6c-0.6-0.7-1.3-0.2-2,0.1
			c-3.2,0.1,0.6,1-1.2,2.4c-0.3,0.5-0.7-0.1-0.9,0.3c-0.6,1.7-1.3,0.4-2,1.4c-0.5,0.5-1.4,1.1-2.1,0.8c-1.1,0-1.9,1.4-3.1,1.1
			c-0.7-0.2-0.1,1.1-0.4,1.5c-0.1,0.3-1.1,1.3-1.6,0.9c0.1-0.5-0.2-0.5-0.5-0.2c-0.4-1-2.6-0.5-2.8,0.4c0,0.3,0.3,0.3,0.2,0.7
			c-0.2,0.8-1.8,0.7-1.3,1.8c-0.2,0.1-0.5,0.2-0.7,0.3c1.2,0.4-0.2,2.1,1.2,2.4c0,0.2-0.2,0.3-0.2,0.5c0.3,0,0.8-0.1,1,0.1
			c0.3,0.2,0.3,0.9,0.7,0.4c0.1,0.2,0.3,0.4,0.5,0.3c0,0.7,1.2,0.2,1.4,1.2c-0.3,0.2-0.3,0.4-0.4,0.7c-0.2,0.4-0.5,0.6-0.1,1
			c-0.2,0.1-0.4,0.3-0.5,0.5c0.6,0.9,0.6,2.7,0.1,3.7c-1.3,0.6-0.4,0.7-0.3,1.7c-1.8,0.3,2.1,1.6-0.4,1.8c-0.8-0.1-1,1-1.7,0.8
			c0.2-0.6-0.5-0.7-0.9-0.9c-0.7-0.6-1.2-0.5-1.3,0.4c-1.2-1.3-0.5,0.4-1.5,0.5c-0.7-0.4-0.8-0.5-1.3,0.3c-0.2,0.3,0.2,0.7,0,1
			c-0.5,0.5-1.9,0-2.5,0.3c-0.3,0.3-0.5,0.8-1,0.5c-0.5,0.1-1,0.9-1.7,0.9c-1,0.2-2.6,2.2-0.9,2.2c0.3,0.2,0.1,1.4,0.7,0.6
			c0.1,0.4,0.3,0.7,0.5,1c-0.2-0.8,0.1-1.9,1-1.8c0.2,0.1,0.3,0.8,0.2,1c-0.2,0.3-0.6,0.4-0.4,0.9l-1.3,0.3l1.4,1
			c-0.3,0-0.2,0.2-0.2,0.4c-0.7,0.2-1.5-0.1-1.4,1c-0.1,0.4-1.2,0.3-0.6,0.7c0.6,0.3,0.5,1,0.5,1.6c-0.3,1.9,1.4,2.7,2.7,3.6
			c-0.6,0.6-1.4,0.5-0.7,1.6c-0.2-0.2-0.4-0.4-0.6-0.7c0.1,0.3,0.2,0.6,0.4,0.9c-0.9,0.1-1.6-0.7-2.5-0.7c-0.6,0.3-1.5,0.9-1.6,1.7
			c-0.6,0.1-1,0-1.2-0.4c-0.3,0.7-1,0.8-1.4,0.2c-0.1-1.2-2.2-1-2-2.5c-0.4-0.1-0.8,0-0.9-0.4c-0.4,0.1-0.7,0.1-1,0.4
			c-0.2-0.3-0.3-0.5-0.8-0.4c-0.7,0-1.2-0.7-1.7-1.1c-0.3-0.5-0.7-0.6-1.1-0.2c-0.5,0.6,0.4,1.7-0.4,2.2c-0.9,0.2-2.6,1.5-2.9,0
			c-0.3-0.9-0.6-1.7-1.6-1.6c-0.6-0.3-1.7-2.2-2-0.7c-0.6,0-0.6-1.3-0.3-1.7c0.3-0.3-0.2-1-0.4-1.3c-0.7-0.2-1.5-0.3-1.7-1.2
			c-0.3-0.1-1-0.6-1.1-0.9c-0.2-0.6,0.8-1.4,0-1.8c-0.2,0.4-0.6,0.2-0.9-0.1c0.3,0.8-0.3,1.7-0.8,2.4c-0.5,0.7-1.6,0.3-1.6,1.4
			c0,2.9-0.4,3.6-3.1,4.2c-0.5,0.9-1.7,0.7-2.3,1.5c-0.2-0.7-0.4-0.3-0.8-0.6c-0.4-0.5-0.9-0.1-1.2,0c-0.4-0.1-0.3-0.7-0.5-0.9
			c-1-0.5-1.3,0.8-1.2,1.5c-1-0.5-1.8-0.5-2.9-0.2c-1.4,0.5-4.1-2.9-3.9-1.5c-0.6-0.6-1.6,0.2-0.8,0.7c0.5,0.2,0.5,0.6,0.8,1
			c-0.8-0.2-0.2,0.6-0.8,1c-0.8-0.4-2-0.3-2.5,0.5c-0.3,0.7-1.4,0.7-2,0.1c-0.9,0-1.1,0-1.1-1c-0.8-1-2.2,0.1-3.2,0.1
			c-0.3-0.2-0.5,0.2-0.7,0.3c-1.6,0.8-6.1-4.6-6.2-1.6c0.2,0.2,0.7,0.2,0.6,0.6c-0.1,0.7,0.8,1.6,0.2,2.3c0.1,0.4,0.5,0.5,0.6,0.8
			c0.1,0.3-0.1,0.7,0.2,1c0.3,0.3-0.2,1,0.4,1.2c-1.3,1.3,0.9,2,2,1.9c-0.7,0.7-2.6,0.9-0.4,1.3c-0.2,0.6-1.5,1.4-0.4,1.9
			c0.8,0.3,0,1.3,0.3,1.9c-1.1-0.1,0,0.8,0.2,1.2c-0.5,0.4,0.3,1,0.3,1.5c-0.3,0.3-0.1,0.8,0.3,1c0,0.4-0.6,0.8,0.1,1
			C9.5,74.9,9,76,9.1,76.4c2.1-0.2,1,2,2.4,1.9c0.3,0.9,0.9,1.7,1.8,1.9c0.2,0.9,1.1,1.5,1.2,2.4c1.2,1.8-1.3,2,1.3,2.3
			c0.2,0.9-0.9,0.4-1.4,0.3c0,0.6,0.8,0.7,1.1,1c0.5,0.7,0.4,1.8,1.3,2.2c1.6-0.3,0.7,1,1.1,1.8c0.6,0.4,0.3-0.3,0.3-0.7
			c0.2-1.2,0.6-0.7,1.4-0.6c0.4-0.2,1.2-0.2,1.3-0.7c0.1-0.8-1-1-0.7-1.9c0.2-0.3,0.7-0.3,0.6-0.7c-0.2-0.4-0.2-0.4,0.1-0.8
			c0.1-0.3-0.2-0.3,0.1-0.5c0.5-0.2,0.8-0.4,0.7-1c0.6-0.1,1-0.9,0.7-1.4c0.6-0.2,0.1-1,0.6-1.2c0.9-1-0.6-0.9-0.9-1.4
			c0.1-0.4,0.2-0.8,0.1-1.2c0.9,0,0.2,1.6,1.2,1.2c-0.1,0.6,0.6,1.1,0.6,1.6c-0.9,0.2-0.9,0.1-0.8,1.2c0.5-0.7,1.5-1.4,2.3-0.5
			c1.5-1.1,0.5-3,0.1-4.3c0.9,0.8-0.2-1.1,0.3-1.1c0.6,0.7,1.6-1.4,1.3-2c1.3,1.4,2.1-7.6,3-8.5c1-3.2,1.9-1.7,4.3-1.1
			c1.8,0.1,2.6,2.7,4.5,2.3c0.2,0.8,0.5,1.6,1.3,1.8c1.5,1.9,3.3,3.9,5.5,5.1c0.6,0.4,1.2,0.8,1.9,0.9c0.3,0.1,0.3,0.2,0.3,0.5
			c0.1,1.1,1.2,2.1,1.2,3.2c0.1,1.1,0.6,1.9,1.2,2.8c0,1.2,0.2,2.5-0.4,3.5c-0.9,1.3-0.2,3.1-0.8,4.3c0.4,1.1,0.6,2.2,0.5,3.3
			c-0.2,1.6,1.4,3,2.1,4.4c0.4,0.8,0.4,1.8,1.1,2.5c1.1,0.4,1.9,1.2,2.7,2.1c3.6,4.6,7.9,8.3,12.8,11.3c0.5,0.4,1.4,0.1,1.9,0.5
			c0.3,0.3,0.4,1-0.2,1c-1.2-0.3-2.4-1.1-3.6-0.5c-0.9-0.2-1.4-0.9-2.2-1.3c-0.3-0.2-0.4-0.3-0.5-0.6c-0.3-0.7-1.2-1-1.9-1.2
			c-0.7,0-0.3-0.8-0.7-1.1c-0.7-0.4-1.2-1.3-2-1.3c-0.2-0.9-1.2-1.3-1.7-2c-0.3-1-1.2-1-1.9-1.6c-1.2-1.4-0.9-0.6-0.8,0.7
			c-1.3-1.4-2.4-2.9-3.8-4.2c-0.3-0.1-0.7-0.6-0.1-0.6c0.5-0.1,0.7,0.5,1.1,0.7c0.5,0.5,1.3,0.6,1.5,1.3c0.4,0.3,1.2-0.4,1.3,0.5
			c1.6,1.2,0.1-0.2,0-1.1c-0.4-0.5-1.3-0.4-1.8-0.7c-0.8-0.5-1.1-1.4-1.2-2.3C51,98,50.4,97,49.3,97.2c0,0.5,0.3,0.9,0.3,1.4
			c-1.5-1.3-2.4-3.2-3.6-4.7c-0.3-0.3-0.7-1.4-1.3-0.9c0.9,2.4,2.9,4.4,4.6,6.3c-0.5,1.2,1.3,1.5,1.2,2.7c-0.4,0-0.4,0.3-0.2,0.6
			c0.6,1.6,2.9,0.8,3.4,2.5c0.7,0.5,0.7,1.3,1.1,1.9c0.2,0.2,0.6,0.2,0.6-0.2c0.4-0.6,1.6,0.3,1.7,0.9c-1.2-0.1-0.7,0.6-0.5,1.3
			c-0.4,0.4-0.1,0.9,0.2,1.2c0.6,0.2,1,0.7,1.4,1.1c0.2,0.1,1,0.2,0.8-0.3c-0.4-0.5-1.3-0.6-1.4-1.3c0.8,0.2,1.6,0.8,2.4,0.8
			c0.5,0.3,0.4,0.2,0.2-0.2c0.4-0.1,0.7-0.2,0.2-0.5c-0.4-0.3-0.5-0.8-0.8-1.1c1,0.5,1.7,1.5,2.6,2.1c0.4,0.3,1.4,1.2,0.3,1.2
			c-0.3,0.3,0.8,1.4,0,1.6c-0.9,0.1-2.1-2.6-2.5-1.9c0,0.1,0,0.3-0.1,0.2c-0.4-0.2-0.4,0.6,0,0.7c0.5,0.2,0.2,1-0.3,0.9
			c-0.4,0-0.5-0.2-0.6-0.5c-0.1-0.9-1.8-1.6-2-0.4c0.3,0.8,0.8,1.5,1.5,1.8c0.1,0.5-0.1,1-0.5,1.3c0.2,1.1,1.5,1.6,2.1,2.3
			c-0.4,0.3-0.3,0.7,0.1,1c0.3,0.6,0.5,1.4,1.3,1.3c0.8,0.4,0.4,1.8,1.4,2c0.4,0.2,0.2,0.7,0.7,0.7c1.3,0.4,1.7,2.4,2.9,3.1
			c1,0.7,0.9,1.9,2.1,2.3c0.5,0.4,1.3,0.3,1.7,0.9c-0.1,0.8,0.8,0.7,0.9,1.2c0,0.3,0.2,0.3,0.4,0.3c0.4,0,0.3,0.5,0.7,0.4
			c1.4-0.3,1,0.8,2.1,1.1c-0.6,0-1.2,0-1.9,0c-0.2-0.2-0.3,0-0.5-0.1c-0.1-0.1-0.1-0.2-0.2-0.3c-0.6,0,0.5,1.6,0.8,1.5
			c0.6,0.3,0.9,1.8,1.9,1.3c-0.3-0.6-1.2-1.9,0.3-1.1c0.4,0.8,1.1,1.1,1.9,1.5c0.3,0.2,0.9,0.5,1.2,0.4c0.3-0.1,0.6-0.3,0.8,0
			c0.9,0.4,1.4,1.5,2.5,1.2c-0.5,1.8,2.8,1.9,2.8,3.6c-1.4,0.5-1.3,1.3-1,2.7c0.2,0.3-0.3,0.6,0,0.9c0.1,0.1,0.3,0.2,0.3,0.3
			c-0.3,0.1-0.1,0.3,0,0.4c0.4,0.8,1.7,0.9,1.8,1.6c-1.1-0.2-1.4-0.2-0.6,0.9c0.1,0.1,0.2-0.1,0.3-0.1c0.3-0.1,0.7,0.2,1-0.1
			c0.3,0.2,0.6,0.4,1.1,0.4c-0.3,0.3-0.1,0.7,0.3,0.8c0.3-0.1,0.6-0.5,1-0.3c0.3,0.3,1.4,0.6,1.2-0.1c0.4-0.1,1.1,0.1,1.4-0.1
			c0.2-0.1,0.7-0.7,0.1-0.7c-0.3-0.2-1-0.1-1.2-0.5c0.8-0.2,1.6,0.4,2.4,0.1c0.4-0.2,1-0.5,1.5-0.2c0.3,1.1-0.5,1-1.3,0.9
			c-0.9,0,1,0.9,1.4,0.4c0.3-0.3,6.5,0.7,3.8-0.3c-1.3-0.3-2.3-1.2-3.7-1.1c-0.1-0.4,0.6-0.4,0.9-0.4c0.9-0.4,1.2-1.4,2.4-1.1
			c0.9,0.1,2.1,0.1,2.8,0.6c-0.1,0.4-1.7,0.6-1.8,1.1c1.3,0.7,2.9,0.3,4.3,0.4c0.4,0.5,0.6,0.9,1.2,1.4c1.1,0.6,2.4,2,3.7,1.4
			c0.7-0.6,0.5,0.9,1,1c1.8,0.8,3.9,0.4,5.8,1c2.4,2.5,4.5,5.2,6.7,7.8c1.8,2,4.7,2.8,6.8,4.4c0.9,0.8,1.9,2.3,2.9,3.1
			c0.3,0.7,0.5,0.1,0.8-0.3c0.3,0.4,0.1,0.8,0.1,1.2c0.5,0,1-0.2,1.1,0.4c0.1,0.4,0.5,0.5,0.4,1c-0.1,0.3-0.2,0.3,0.2,0.6
			c0.7,2.1,3.5,2.8,5.1,1c0.6-0.4,1.7-0.1,2.2-0.4c0.1-1.3-1.1-2.5-1.7-4.1c-1.3-2.6-4.6-4-7.2-5.1c-0.1-1.5-0.3-3.3-2.2-3.3
			c-1,0.2-0.9-0.8-1.2-1.5c-1.2-1.4-1.5-3.4-2.3-5.1c1.7-1.9,1.3-3.4-1.1-4.3c-2.9,0.8-3.2-1.4-5.4-2.6c-2-1.4-3.6-3.3-4.8-5.4
			c-0.6-0.3-1.2-0.6-1.3-1.3c-1.2-0.5-1.6-1.8-2.6-2.4c-2,0-2.1-2.5-2.4-4c-0.7-0.9-1.9-1.4-2.9-2c-0.6-1.2-1.2-2.3-2.7-2.7
			c0.6-1-0.9-1.9-1.1-2.9c-0.5-0.7-1.5-0.2-2.2-0.5c0.2-4.4-1.5-0.8-2.4-2.8c0-0.7-1-0.4-1-1.1c0.1-1.6-1.9-1.7-2.5-2.9v-14.2h-3.9
			c-0.2-0.5-0.8-1.2-1.1-1.4c-0.5-0.4-1.2-0.2-1.7-0.7c-0.8-0.4-0.6-1.2-1.2-1.8c2.5-0.5,0.4-0.3,1.2-1.5c0.2-1.7-2.6-2.2-3.2-3.8
			c0.1-0.2,0.4-0.3,0.5-0.5c-0.4,0-0.8,0-1.2-0.1c-0.2-0.8-1.4-2.2-1.7-0.9c-0.9-0.8-0.5,0.9-1.8,0.4c-0.1-0.8-1.3-0.8-1.5-1.6
			c-0.2-1.1-1.2-1.6-1.8-2.4c0.4-1.5,1.5-0.5,2.2-1.6c-1.3-0.7-0.9-2-1.3-3.1c-0.4-0.9-0.1-1.6,0-2.5c0.4-0.2,0.9,0.1,1.2-0.3
			c0.1-0.4,0.2-1.1-0.4-1.3c-0.9-0.9,0-2.1-1-2.9c0.4-0.3,1.1-0.4,1-1.1c-0.1-0.5,0.4-0.8,0.6-1.3c-0.2-1.5-1.2-2.1,0-3.7
			c0.5,0.1,0.5-0.1,0.6-0.5c0.2-0.2,0.4,0,0.6,0.1c0.1-0.3,0.2-0.5,0.3-0.8c0.5-0.1,2.1,0.7,1.7,0c0.4-0.2,0.8,0.1,1.1-0.3
			c-0.4,1.5,1.6,0.6,1.6-0.2c0.3,0.4,0.8,0.5,1.3,0.7c0.2,0.2,0,0.8,0.4,0.8c0.6,0.2-0.5,1,0.7,0.7c0.3,1.4,1.3,2.5,1.7,3.9
			c0.8,0.5,1.8,0.7,2.5,1.3c-0.2,0.9,0.3,2,1.3,1.8c0.4,0.7,1.2,0.8,1.9,0.8c0,0.3,0.2,0.3,0.3,0.5c0,0.3,0.2,0.4,0.5,0.3
			c0.6-0.5,1.8,0.1,1.7-0.7c-0.1-0.8,0.5-1.2,1-1.7c0.2-0.9,0.8-2,0.3-2.8c1-0.6,3-1.3,2.6-2.8c-0.2-1,0.8-2.2,1.7-2.5
			c0.9,0.4,1.3,0,2.2-0.3c0.8,1,2.2,1.1,3.3,1.7c1.1-0.7,2.2-0.3,3.2,0.3c2.2,1.1,0.7-1.2,1.6-1.3c0,0.8,0.1,1,0.5,0.2
			c0.4-0.4,0.9-0.3,0.1-0.6c0.1-0.2,0.7-0.5,0.1-0.6c0.3-0.1,0.5-0.1,0.5-0.6c1.4,0.6,0.5-0.7,1.5-1c0.5,0.5,0.9,1,0.1,1.4
			c0,0.6,0.3,1.1,0.9,0.6c1.2,0.7-0.3-0.6,0.2-1c0.7,0.2,0.6,1.8,1.2,1.3c0-0.2,0-0.6,0.3-0.5c0.5,0.3-0.2,0.8-0.1,1.1
			c0.3,0,0.6-0.4,0.9-0.5c0.2,1.9,6.5,5,7.3,2.8h1.7c0.8,1.8,3.2,1.7,4.3,0.2c0.2,0.5,0,1-0.1,1.3c0.6,0.6,1-0.4,1.5-0.3
			c0.3,0.2-0.6,1.2,0.1,1.1c1.6,0,0.8,0.6,1.8-0.8c0.5,0,0.1,1.3,0.4,1c0.2-0.4,0.6-0.4,0.9-0.1c1.7,0.7,1.5-2.5,4-0.1
			c0.8,0.3,1.1,1.3,2,1.3c1.1,0.1,1.6,1.3,2.4,1.7c1.1-0.3,2.8-0.8,2.8-2.2c0-0.3-0.1-0.7,0.3-0.8c1.2,0.2,1.9-3.2,2.8-1.2
			c0.2,0.6,0.4,0.3,0.5-0.1c0.5-0.3,1.3-0.2,1.2,0.6c0,0.3-0.1,0.6-0.3,0.8c0.6,0.5,1.1,1.4,2,1.1c0.8-0.2,1.4,0.9,2.2,0.1
			c0.2-0.2,0.7-0.8,0.5-1.1c-0.1-0.2-0.6-0.4-0.4-0.7c0.6-0.1,2.2-1.4,2.3-0.2c-0.1,0.9,1.2,0.2,1.4,1c1,1,2.9-0.9,3.8,0.3
			c0.4,1.1,1.2,1.9,2.4,1.8c0.4-0.1,0.5,0.3,0.7,0.5c-0.1-0.7,0.7-1.3,0.1-1.8c0.6-0.7,1.5,1.6,1.5,0.3c-1-0.9,0.2-0.6,0.7-0.1
			c0.4,0.4,0.6-0.4,0.8-0.5c0.9,0.2-0.5,0.9-0.5,1.3c0.6,0.1,1.1,0.4,1.5,0.8c0.2-0.6-0.3-2,0.7-2c0.5,0.6,0,1-0.2,1.5
			c1.3,1.4,1.9,0.6,1.9,3c3.8-0.8,0.8,1,2.3,2.2c-1.1,1.2-1.8-1.4-1.1,1.6c-0.4,0.1,0.2,0.4,0.4,0.5c1.2,0.5,1.5,1.8,2.8,2.1
			c1.7,0.5,3.2,0.2,4.8,0c-0.1-0.5-0.4-1-0.6-1.5c-0.6-1,0.2-1.5,1.2-1.6c0.4,0.5,0.6,1.5,1.4,0.8c0.3-0.4,0.1-1.2,0.8-1.2
			c1.5-0.1,1.9-1.2,1.2-2.3c-0.3-0.2-0.5,0.3-0.8,0.4c-0.6,0-1.4,0-1.8-0.3c1.2-0.4,1.5-1.4,1.1-2.5c0.1-0.7,0.8-0.5-0.1-1.2
			c0.3-0.4,0.7-0.8,0.2-1.2c-0.1-0.4,0.1-0.7-0.4-0.9c-0.7-0.3,0-1.1,0-1.7c0.3,0.4,1.1,0.4,1.6,0.6c0.6,0.2,0.9-0.8,1.3-1.1
			c1.2-1.4-0.1-0.9-0.2-1.7c0.5-0.8,1.4,0.5,1.8,0.8c0.4,0.4,0.9,0,1.3,0.2c1,0.5,0.8-0.4,0.4-1c0.4,0,0-0.4-0.1-0.5
			c1.4-0.3,1.5,0,1.5,1.4c1-0.2,0.6,1,1.3,0c0.2,0.5,2.2,0.7,2.4,0C196.8,71.1,196.5,70.7,196.7,70.5z M21,57.8
			C21,57.8,21,57.8,21,57.8L21,57.8C21,57.8,21,57.8,21,57.8z"/>
		<path class="st0" d="M38.2,102.9c0.4-0.3,0.1-0.5-0.2-0.8c-0.3-0.7-0.8-1-1.4-1.4c-2.3-1.7-3-4.3-2.9-7.1c0.7,0.6,2.6,4.2,3.4,3.1
			c0.5,0.4,0.9-0.3,1-0.7c-0.2,0-0.5-0.1-0.7-0.2c-0.5-0.6,0.1-1.6-0.7-2.2c-0.2-0.8-1.3-1.8-0.5-2.5c0.5-1-1.2-1.6-0.9-2.5
			c1.3,0.2,0-2.7-0.1-3.7c-0.1-0.7,0.5-1.3,0.6-1.9c0.1-0.5-0.2-1.8,0.5-1.8c0,0,0,0,0,0c-0.1-1.1-0.3-1.2-1.4-1.1
			c-1.1-1.2-1.8-2.7-2-4.4c-0.7-1.2-0.5-2.4-0.3-3.7c-0.3-0.7-1.3-0.4-1.8-0.8c-0.1,0.1-0.1,0.3-0.2,0.4c-0.2,1.2-1.8,2-0.5,3.2
			c0.5,1.8,2.8,1.5,2.1,3.8c-0.5,1.1,1.5,1.4,1.4,2.6c-1.2,0,0.8,1.9-0.2,2.2c-1.3,0.6-1.8-1-2.3-1.9c-0.5,0.6-0.6,1.1-0.3,1.9
			c0.9,1.4-0.2,3.5,1.5,4.2c0.5,0.5,0.3,1.4,0.3,2c0,0.6,1,0.9,0.8,1.4c-0.3,0.4-0.3,0.8,0.2,1.1c0.2,0.9-1.1,1.2-1.4,0.3
			c-0.7-1.3-0.5,0.8-0.4,1.4c0.1,1.8,1.9,2.6,1.1,4.4c-0.5,0.7,0.2,1.9,0.9,1.3c0.2-0.2,0.4-0.7,0.7-0.2c0.8,1.2,1.7,2.2,2.7,3.2
			C37.6,103.3,37.9,103.2,38.2,102.9z"/>
		<path class="st0" d="M12.6,82.8c0.1,0.2,0.5,0.4,0.3,0.7c-0.2,0.4,0.1,0.5,0.4,0.3C13.7,83.3,13.3,82.5,12.6,82.8z"/>
		<path class="st0" d="M12.6,82.3c-0.3-0.4-0.3,0.2-0.2,0.3C12.5,82.6,12.7,82.4,12.6,82.3z"/>
		<path class="st0" d="M37.7,81c1.9,1.9,0.7-1.9-0.7-0.7C36.4,80.3,37.6,80.8,37.7,81z"/>
		<path class="st0" d="M45.9,85.2c-0.4-0.8-1.6-0.5-1,0.3c0.2,0.5,0.8,0.2,1.2,0.3c0.1-0.1,0.1-0.4,0-0.5
			C46,85.4,45.9,85.3,45.9,85.2z"/>
		<path class="st0" d="M47.5,86.2c-0.4-0.1-0.7,0-0.4,0.4c0.3,0.1,0.4,0.3,0.6,0.5C47.9,86.8,48.4,86.1,47.5,86.2z"/>
		<path class="st0" d="M47.8,84c0.2-0.7-2.7-2.3-2-1.1c0.1,0.6,0.2,0.7,0.8,0.9C47.1,84.2,48.4,85.2,47.8,84z"/>
		<path class="st0" d="M40.4,78.6c0.7-0.1,0.8,0.6,0.8,1.2c-0.8,0.1,0.3,1.1,0.7,1.1c0.3,0.2,0.7-0.3,1,0.2c0.6,0.6,2,1.7,2.6,0.8
			c-0.7-1.5-0.1-1.1,1.1-0.9c1.1,0.2,0.8-1.5,0.1-1.8c-3-0.8-0.5-3.6-3.4-2.9c-1.1-0.6-1.1-2.5-0.7-3.6c-0.9-0.3-0.9-1.2-2-0.3
			c-0.1-0.5-0.1-0.9,0.2-1.1c1.4,1.1-0.9-2.9-1.2-3.1c-0.7,0-1.4,0-0.9,0.8c-1.2-0.8,0.1,0.4-0.2,1c-0.1,0.8,0.4,1.9-0.4,2.4
			c-0.1,0.4,0.4,1-0.1,1.3c-1.1,0.1-2.2-1.1-1.8,0.9c-2.7,0.1,0,3.3,1.4,3.5c0.6,0.2,1.3,0.5,1.9,0.1C39.7,78.1,40.1,78.5,40.4,78.6
			z"/>
		<path class="st0" d="M44.9,90.2c0-0.1,0.1-0.2,0.2-0.2c0.3,0.1,0.2,0.6,0.6,0.5c1.4,0.3,1.7,2.7,3.3,2.3c-0.4-2.1-2.8-3.5-4-5.1
			c0.4-0.3,0.4-1.1,0.2-1.5c-0.1-0.1-0.7-0.1-0.9,0c0,0.1,0.1,0.5,0,0.6c-0.3,0.1-0.7-0.4-1-0.3c-0.7,0.8,1.3,1.1,1.1,2
			c-0.6-0.3-0.7,0.2-0.8,0.7C40.6,87.3,43.8,92,44.9,90.2z"/>
		<path class="st0" d="M47.2,92c-0.2-0.3-0.7-0.9-1.2-0.7c0.7,0.6,1,1.6,1.7,2.1C48,93.2,47.3,92.3,47.2,92z"/>
		<path class="st0" d="M30.9,90.3c0.2-0.2,0.1-0.7,0.3-0.9C31.6,88.1,30.2,89.9,30.9,90.3z"/>
		<path class="st0" d="M29.7,94.9c0.6,0.1,0.4-1.4-0.1-0.8c-0.4,0.2-0.6,0.6-1,0.7c-0.1,0.3,0.3,0.8,0.3,1.1c0,0.1-0.1,0.1-0.1,0.1
			c-0.3,0-0.5,0.4-0.2,0.6c0.6,0.1,1.1,0.4,1.5,0.8C30.5,96.6,28.2,95.2,29.7,94.9z"/>
		<path class="st0" d="M31.2,101.7c-0.3,0.1-0.4-0.4-0.6-0.4c-0.6,0.1,0.1,0.9,0.3,0.9C31.1,102.2,31.6,101.6,31.2,101.7z"/>
		<path class="st0" d="M39.2,104c-0.3-0.5-1.1-0.3-1.1,0.2c0.3,0.6,0.8,0.2,1.3,0.4C39.8,104.7,39.3,104.1,39.2,104z"/>
		<path class="st0" d="M42.1,110.3c-0.4-0.6-1.2-0.6-1.6-1.2c-0.2-0.4-0.5-0.6-0.6,0C40,109.9,43.6,112,42.1,110.3z"/>
		<path class="st0" d="M44.4,108.5c0-0.5-0.9-0.5-0.7-1.1c0.3-0.8-0.5-2-1.1-1.2c-0.6,0.7,0.6,0.8,0.6,1.4c-0.1,0.6,0.5,0.6,0.8,1
			C44.1,109,44.6,109.1,44.4,108.5z"/>
		<path class="st0" d="M46.8,109.3c1.7,0.2,0-1.4-0.1-2c0.1-0.3,0.5-0.5,0.5-0.8c-0.2-0.4-0.6-0.9-1.1-0.6l0,0
			c-0.4,0.5-0.1,1.1-0.2,1.6c-0.1,0.4-1,0.5-0.5,0.9C46,108.5,46.2,109.2,46.8,109.3z"/>
		<path class="st0" d="M48.4,107.5c0.1,0.1,0.3,0.5,0.5,0.4C49,107.5,48.2,106.9,48.4,107.5z"/>
		<path class="st0" d="M48.5,103c0.1,0.2,0.3,0.4,0.6,0.5C49.2,103.1,48.1,102.1,48.5,103z"/>
		<path class="st0" d="M52.2,106.2c-0.7-0.8-1.7-1.2-2.2-2.1c-1.1-0.3,0.6,1.4,0.9,1.7C51.1,106,52.4,106.6,52.2,106.2z"/>
		<path class="st0" d="M55.5,111.8c0.8-0.8,1.1-0.5,1.8,0.1c0.8-0.1-0.9-1.4-1.2-1.1c-0.3-0.1-0.5-0.7-0.9-0.4
			C53,109,53.9,111.9,55.5,111.8z"/>
		<path class="st0" d="M44.1,111.8c-0.1-0.4-1.2-0.4-0.7,0c0.2,0.2,0.3,0.5,0.6,0.3C44.5,112.4,44.4,111.9,44.1,111.8z"/>
		<path class="st0" d="M45.9,111.9c-0.1-0.2-0.3-0.5-0.5-0.3c-0.4,0.1,0.3,0.3,0.2,0.5c-0.4-0.1-0.6-0.1-0.6,0.4
			c0.2,0.2,0.5,0.4,0.8,0.6c-0.1-0.7,0-0.6,0.6-0.4C46.4,112.3,46,112.1,45.9,111.9z"/>
		<path class="st0" d="M47.7,115.5c0.7,0.1,0-0.7-0.1-1c0.8,0,1.3,1,2.2,1.1c0.5,0,0.6-0.6,0.3-1c-0.4-0.2-0.7,0.4-1.1-0.1
			c-0.7-0.6-1.6-0.9-2-1.8C45.9,112.5,47.6,115,47.7,115.5z"/>
		<path class="st0" d="M50.3,116.4c0.2,0.2,0.9,0.9,0.9,0.4C51.2,116.4,50,115.5,50.3,116.4z"/>
		<path class="st0" d="M50.2,116.8c-0.7,0.4,0.9,1.4,1.2,1.2C51.2,117.4,50.5,117.2,50.2,116.8z"/>
		<path class="st0" d="M55.1,118c-0.1-0.4-0.7-1-1.1-0.6C54.2,117.7,55.1,118.9,55.1,118z"/>
		<path class="st0" d="M53.7,117.6c-0.3-0.3-0.8,0-0.9-0.5c-0.3-0.4-0.8-1.2-1.2-1.4c-0.6,0.5,0.4,1,0.6,1.4
			c0.4,0.4,0.6,1.1,1.1,1.3c0.4,0,0.5,0.5,0.7,0.6C54.6,118.7,54,117.9,53.7,117.6z"/>
		<path class="st0" d="M60.6,129c-1.6-0.8-2.6-2.2-3.8-3.4c-1.8-0.9-2.5-2.8-3.2-4.5c-0.8-0.4-2-0.4-2.1-1.6c-1-0.6-1.6-1.8-2.5-2.5
			c-0.8,0.1,1,1.1,0.4,1.4c-0.4-0.1-0.7-1.1-0.8-0.2c-0.2-0.3-1.3-0.7-0.7,0c0.5,0.2,1,0.9,1.5,0.6c0.9,0.4,1.5,1.5,2.2,2.2
			c0.7,0.6,1.5,1,2,1.9c1.5,2.7,3.5,6.6,6.3,7.7c0.1-0.5-0.5-0.5-0.7-0.7c-0.1-0.3-0.3-0.8-0.5-0.3c-0.3-0.2-0.4-0.6-0.4-1
			c-0.1-0.2-0.7-0.3-0.4-0.6C58.6,127.9,59.9,130.7,60.6,129C60.6,129,60.6,129,60.6,129z"/>
		<path class="st0" d="M59.8,127.6c0.1,0.1,0.2,0.3,0.3,0.4c0-0.3-0.2-0.7-0.4-0.9C59.5,127.2,59.7,127.5,59.8,127.6z"/>
		<path class="st0" d="M55.2,123.1c0,0-0.1-0.1-0.2-0.1c-0.1,0.6,0.3,1.3,1,1.3C56,123.8,55.5,123.5,55.2,123.1z"/>
		<path class="st0" d="M56,122.5c0.9,0.4,1.2,1.7,2.2,2c0.1-0.9-0.4-1.4-1.1-1.9c-0.4-0.5-0.6-1.1-1.2-1.5
			C55.3,120.6,55.5,122.4,56,122.5z"/>
		<path class="st0" d="M67.2,128.6c-0.9-0.6-1.3-1.6-1.8-2.5c-0.7,0-0.9-0.6-1.5-1c-0.5-0.3-1-0.6-1.4-1c-0.3-0.2-0.8,0-1-0.3
			c0-1.4-2-2-2.1-3.3c-1.4-0.7-2.6-1.9-3.9-2.9c-0.8,0.6,0.7,2.3,1.6,2.4c0.4,0.5,0.8,1.1,1.3,1.6c0.3,0.4,1.2,1.9,1.4,1
			c0.2-0.1,0.3,0.4,0.4,0.1c0.6,0.3,0.7,1.3,1.4,1.5c0.4,0.1,0.4,0.5,0.6,0.8c0.4,0.5,0.9,0.9,1.1,1.5c0.8,1.1,1.8,0.7,1.6,2.3
			c1.2-0.4,1.3,0.2,2.2,0.8c0.3-0.2,0.4-0.1,0.8,0C67.9,129.3,67.5,128.9,67.2,128.6z"/>
		<path class="st0" d="M65.9,134.9c-1.4-1.4-2.9-2.9-4.5-4.1c0.7-0.1-0.8-1.1-0.9-0.2c1.5,2,3.3,4,5.9,4.7
			C66.3,135.2,66.1,135,65.9,134.9z"/>
		<path class="st0" d="M62.5,129.9c-0.3-0.4-0.6-0.6-0.9-0.2c1.1,0.8,2.1,1.8,3.2,2.5c0-0.6-0.2-1-0.8-1.3c-0.3-0.2-0.2-0.4-0.1-0.6
			c-0.1-0.3-0.7-0.4-0.4,0.1C63,130.3,62.8,130.2,62.5,129.9z"/>
		<path class="st0" d="M61.3,132.3c-0.5-0.3-0.2,0.4,0.1,0.6C61.4,132.7,61.7,132.4,61.3,132.3z"/>
		<path class="st0" d="M79.1,136.6c-0.7-0.2-0.3,0-0.1,0.4C79.1,137,79.4,136.7,79.1,136.6z"/>
		<path class="st0" d="M78.3,137.2c-0.4-0.7-1-0.6-0.4,0.2c0.1,0.2,0.2,0.3,0.4,0.5C78.4,137.6,78.5,137.4,78.3,137.2z"/>
		<path class="st0" d="M77.9,138.3c-0.2-0.1-0.4-0.2-0.5-0.4c-0.8-0.1,0.3,1.1,0.6,1C78.5,139,78.2,138.3,77.9,138.3z"/>
		<path class="st0" d="M75.4,137.8c0.4,0.4,0.3,1.2,0.9,1.4c0.4,0.3,0.4-0.4,0.6-0.7c-0.4,0-0.5-0.4-0.8-0.6
			C75.8,137.5,74.7,137.1,75.4,137.8z"/>
		<path class="st0" d="M74.7,138.1c-0.2-0.2-0.6-0.7-0.7-0.1l0,0C74.5,138.9,76.6,139.7,74.7,138.1z"/>
		<path class="st0" d="M76.5,140.8c-0.4-0.3-1.1-0.1-1.4-0.6c-0.2-0.2-0.3-0.7-0.6-0.4c-0.4,0-0.7-0.6-1.2-0.6
			c-0.1-0.1-0.7,0-0.5,0.3c0.9,0.6,1.8,1.1,2.6,1.8c0-0.6,0.3-0.4,0.7-0.2C76.6,141.3,77,141.1,76.5,140.8z"/>
		<path class="st0" d="M80.3,137.8c0,0.2-0.3,0.3-0.3,0.5c0.5,0.4,0.9,0.9,1.3,1.4C81.5,138.9,81.1,138.2,80.3,137.8z"/>
		<path class="st0" d="M69.6,131.1c0-0.2-0.2-0.1-0.3,0C68.7,131.2,70.1,132.2,69.6,131.1z"/>
		<path class="st0" d="M70.9,131c-0.2-0.3-0.4-0.2-0.2,0.1C70.9,131.5,71.3,131.3,70.9,131z"/>
		<path class="st0" d="M87.7,149.5c0.3,0,0.5,0,0.7,0.2c0-0.2,0.1-0.6-0.1-0.7C88.1,149.2,86.9,149,87.7,149.5z"/>
		<path class="st0" d="M89.3,150.2c0.4,0,0.9,0.1,1.2-0.3c0.2-0.2,0.3,0.3,0.5,0.1c0.7-0.5-0.1-1.1-0.7-1.1c-0.1,0-0.5,0.4-0.7,0.5
			C89.5,149.6,88.9,149.9,89.3,150.2z"/>
		<path class="st0" d="M96.5,154c0.6,0,0.9,0.7,1.4,0.8c0.3-0.5-0.1-1-0.4-1.4c-0.1-0.4-0.3-0.9-0.7-1.1c-0.6-0.7-1.3-0.6-2-0.9
			c-0.2-0.4-0.6-0.6-1.1-0.5c-0.5,0-1,0-1.6,0.1c0,0.6-0.2,1.4,0.7,1.3C94.4,152.2,95.2,153.9,96.5,154z"/>
		<path class="st0" d="M99.6,154.1c0,0.2-0.1,0.6-0.3,0.4c-0.2-0.2-0.3,0.2-0.3,0.3c-0.1,0.6,0.9,0.3,1.3,0.5
			c2.2,3.1,6.7,2.4,10.1,2.3c0.8-0.1,1.5-0.1,2.3-0.1c0.4-0.2,0.6-0.7,1-0.8c0.5,0.2,0.3-0.3,0.5-0.5c1.3-1.5-0.6-1.4-1.4-2.2
			c-0.3,0.5-0.9,0.3-1.3,0.1c1-0.3,0.6-0.6-0.2-0.6c-0.5-0.3-1.4-0.6-1.8-0.1c-2.8-1.5-6.2-0.8-9-1.5c-1.5-0.2-0.3,0.9,0,1.6
			C100.2,153.7,99.7,153.8,99.6,154.1z"/>
		<path class="st0" d="M77.3,167.8c-0.8,0.2-0.6,0.8,0.2,0.5C78,168,78.1,167.7,77.3,167.8z"/>
		<path class="st0" d="M85.7,169.7c-0.7-0.5,0,3.1,0.5,0.4C86.2,169.9,86,169.8,85.7,169.7z"/>
		<path class="st0" d="M93.8,165.9c-0.4-0.3-1-0.3-1.4,0c-0.2,0.6-0.9,0.8-0.6,0c-0.6-0.1-1.4-0.4-1.9,0c-0.5,0.2-1.2,0-1.7,0.3
			c-1.2,0.2-1.4,1.6,0,0.9c0.6,0.8-0.2,1.2-0.5,1.6c0.4,0.4,1.7,0,2.3-0.1c0.9-0.5,2.7,0.3,3-0.8c-0.1-0.6,0.5-0.5,0.8-0.8
			C94,166.7,94.1,166.2,93.8,165.9z"/>
		<path class="st0" d="M98.2,161.8c-0.4,0-0.9,0.2-1.2-0.3c-0.1-0.4-0.8-0.1-0.6,0.2c0.4,0.4,1.5,0.6,1.9,0.5
			C98.5,162.2,98.5,161.8,98.2,161.8z"/>
		<path class="st0" d="M107,163.8c4.3-0.5,8.5,0.8,12.9,0.4c1.3-0.3,3.4,0.3,4.1-0.8c-0.7-0.6-1.9-0.2-2.7-0.3
			c-2.5-0.1-4.9-0.5-7.3-1c-1.9-0.5-4.9,0.9-6.1-0.9c-0.2-0.4-0.4-0.7-0.8-0.8c-0.1-0.3,0.2-0.4,0.2-0.7c-0.9,0.1-2.1-0.3-2.7,0.1
			c-0.6,0-0.5-0.6-0.3-1c-0.3,0-1.1-0.2-1,0.4c-1.2-0.8-0.6,1,0.4,0.4c0.1,0.7,0.4,1.2,1,1.5c-0.3,0.3-1,0.2-1.3-0.1
			c-0.7-1-2.4-1.3-3.3-0.6c-0.4,0.1-0.9-0.1-1.2,0.4c-0.4-0.1-1.1-0.7-1.3-0.1c0.8,0.5,1.8,0.7,2.5,1.4
			C102.3,162.4,104.5,163.5,107,163.8z"/>
		<path class="st0" d="M109.2,165c-0.3-0.2-0.6-0.1-0.9,0.1c-0.4-0.4-0.9-0.2-1.3,0.1C106.6,165.8,110.2,165.8,109.2,165z"/>
		<path class="st0" d="M123.7,172.4c-0.8,0.1-0.5-1.5-1.3-1.2c-0.1-0.8-0.9-0.4-1.4-0.6c-1.6-0.3-3.2-0.5-4.8-0.4
			c-0.8-0.1-1.4,0.4-2,0.7c-1.1,0.3-2.1-0.6-3.3-0.6c-0.6-0.1-1.3-0.2-1.8-0.6c-0.1-0.2-0.3-0.1-0.5,0c-0.2,0.1-0.4-0.1-0.5-0.3
			c-0.5-0.2-1.2-0.2-1.5,0.2c-0.4-0.2-0.7,0.2-0.2,0.5c0.1-0.1,0.1-0.2,0.3-0.2c0.7,0.1,1,0.8,1.8,0.8c-0.5,0.5-1.5-0.1-1.9,0.6
			c-0.2,0.2-0.6,0.7-0.3,1c0.3,0.3,0.8,0.4,0.9,0.1c0.3,0,0.7,0.1,1,0.1c1.6,0.7,3.2,0.6,4.8,0.8c0.2,0.7,0.9,0.3,1.4,0.3
			c1.1-0.3,2-1.6,3.3-1.2C118.4,172.9,126,173.9,123.7,172.4z"/>
		<path class="st0" d="M166.8,194.8c0.4-1.5-2.2-1.9-2.5-3.2c0-0.3,0.4-0.6,0.3-1c-0.6,0-0.3-0.6-0.3-0.9c0.4-1.5-1-2.1-1.9-2.9
			c-0.2-0.2-0.3-0.7-0.6-0.7c-1.2,0.1-2.7-0.5-3.5,0.5c-0.8-0.6-1.7-3.2-3-2.4c-0.4-0.6-0.4-1.3-1.3-1.3c-0.1,0-0.4,0.2-0.5-0.1
			c0.5-1.5-1.3-0.9-1.5-2.2c-0.8-0.8-1.7,0-1.9-1.6c-0.3-0.2-0.8,0-1-0.5c-0.5-0.8-1.5-1-2.4-1c0.5-1.7-0.1-0.6-0.8-1.5
			c-0.4-0.7-0.5-1.5-0.6-2.2c-1-0.7-1.6-1.4-2.1,0.2c-0.6-1-3.3-2.4-4-0.7c-1.1,0.8-0.3,0.6,0,1.2c-0.2,0.2-1.2,0.3-1.2-0.2
			c-0.7-0.7-1.8-1.2-2.8-1.5c-0.5-0.2-0.2,0.4-0.3,0.5c-0.7,0-1.6-0.2-2.3-0.7c-0.4-0.1-0.4-0.5-0.4-0.9c0-0.5-0.6-0.4-0.9-0.7
			c-2.6-1.5-5.4-2.6-8.4-3c-1-0.1-2.1,0.3-3,0c-0.6-0.2-1.2-1.1-1.9-0.9c0,0.2,0.4,0.4,0.3,0.7c0,0.3,0.1,0.3,0.4,0.2
			c-0.5,1.5,0.2,0.5,0.8,1.4c0.8,0.7,2.3,0.4,3.3,0.8c0.8,0.3,1.4-0.3,2-0.2c0.8,1.4,2.7,1.3,3.9,2.1c0.4,0.4,0.6,0.9,1.2,0.8
			c1.1-0.3,1.6,0.6,2.5,0.9c0,0.3-0.5,0.2-0.5,0.6c0.6,1.3,2.7,1.7,4.1,1.9c1.2-0.1,2.3,1.3,3.5,1.2c0.6-0.1,0.9,0.6,1.5,0.6
			c0.7-0.2,0.9,0.6,0.8,1.1c1,1.1,0.6-1.3,0-1.6c2.1,1.4,0.8-0.4,2,0.3c0.3,0.3,0.6,0.1,0.9,0c0.3-0.1,0.2,0.1,0.3,0.3
			c0.1,0.4,0.5,0.5,0.9,0.7c-0.1,1.4,1.9,1.5,2.6,2.4c0.7,0.6,2,1.6,3,1.4c0.3,0.4,0.7,0.9,1,1.2c-2.2-0.2,0.6,1.2,1.4,0.9
			c0.6,0.2,1,0.8,1.6,0.9c0.5,0.1,1.3-0.1,1.6,0.5c0.3,0.8-0.6,1.8,0.4,2.4c1.9,2,4.4,2.9,6.5,4.7
			C165.2,193.4,167.6,197.1,166.8,194.8z"/>
		<path class="st0" d="M115.7,179.4c-0.7-0.2-1.4-0.2-2.1-0.2c-0.2-0.4-0.5-0.2-0.6,0.1c-0.3-0.5-1.1,0.3-0.8,0.7
			c0.2,0.3-0.3,1.2,0.4,1.1c0.5,0.2,1.4-0.7,1.5,0.1c0,0.2,0.2,0.1,0.3,0.2C115.1,181.4,116.7,179.7,115.7,179.4z"/>
		<path class="st0" d="M141.1,181.5c-1.3-0.8-2.8-0.6-4.1-1.1c-2.2-0.8-4.5-1.8-6.9-1.9c1.2-1.2-1.5-0.1-1.5,0.6
			c0.2,0.4,1,0.8,1.5,0.7c0.3-0.2,0.5-0.2,0.7,0c0.3,0.2,0.7,0.1,1,0.2c0.3,0.3,0.4,1,0.7,0.3c1.5,0.4,2.9,1.1,4.5,1.3
			c1.5,0,2.9,0.4,3.9,1.4c0.1-0.2,0-0.3,0.2-0.5C142.4,183.5,142.1,181.7,141.1,181.5z"/>
		<path class="st0" d="M147.3,181.3c-0.3-0.6-1.2-0.6-1.6-1c-0.1-0.4-1.1-0.5-0.6,0c0.4,0.4,0.3,1.3,1,1.3c0.5-0.1,1.1,1.1,1.4,0.5
			C147.5,181.8,147.5,181.6,147.3,181.3z"/>
		<path class="st0" d="M144.8,180.6c-0.1-0.1-0.5-0.3-0.5-0.1c0.2,0.2,0.3,0.5,0.5,0.7C145,181.1,145,180.7,144.8,180.6z"/>
		<path class="st0" d="M149.2,183.2c-0.4-0.3-1-1.2-1.2-0.3C148.1,183.3,149.6,183.5,149.2,183.2z"/>
		<path class="st0" d="M150.7,183.4c-0.1-0.1-1-0.2-0.8,0.1C150.2,183.8,151.4,184.2,150.7,183.4z"/>
	</g>
</g>
</svg>
