<?xml version="1.0" encoding="utf-8"?>
<!-- Generator: Adobe Illustrator 26.0.3, SVG Export Plug-In . SVG Version: 6.00 Build 0)  -->
<svg version="1.1" id="Isolation_Mode" xmlns="http://www.w3.org/2000/svg" xmlns:xlink="http://www.w3.org/1999/xlink" x="0px"
	 y="0px" viewBox="0 0 200 200" style="enable-background:new 0 0 200 200;" xml:space="preserve">
<style type="text/css">
	.st0{fill:#1E8346;}
</style>
<g>
	<g>
		<path class="st0" d="M41.4,128.5c0.8,0.1,1-0.9,1.6-1.1c1.1-0.3,2.8-1.2,3.7-0.2c1.2,0.8,1.3,2,1.4,3.2c0.4,0.4,0.7,0.8,0.8,1.3
			c0.7,2,2.7,1,4.2,1.7c0.8,0.6,1.4,1.3,2.4,1.7c0.7,0.3,1.1,1,1.6,1.4c1.5,0.1,4.1,0,4.8-1.5c0.2-0.4,0.3-0.8,0.6-1
			c0.3-0.1,1.5-0.2,1.2-0.7c-2.3,0.4-4.4-0.6-6.2-1.9c-1-1-1.2-2.5-2.6-3c-1.8-0.9-7.1-2.5-7-4.6c-0.4-0.8-4.5,0.9-5.2,1.4
			C40.5,125.8,41.4,126.8,41.4,128.5z"/>
		<path class="st0" d="M79.6,45c0.4-0.9,1.2-1.3,2-1.5c0.7-0.9,1.9-1.8,1.8-3c0.2-0.4,0.8-0.6,1-1.1c0.1-1,0-2.2,0.4-3.1
			c-0.5-2.9-2.5-5-4.3-1.5c-1.2,1.9-3.1,3.6-3.7,5.8C75.8,43.2,76.1,48.8,79.6,45z"/>
		<path class="st0" d="M59.6,131.5c0.6,0.3,1.6,0.4,2.1,0c-1.1-0.7-2.2-1.2-3.7-1.2C58.4,130.9,59,131.4,59.6,131.5z"/>
		<path class="st0" d="M75.3,48.3c0.9-0.9,1.3-2.4-0.6-2.3C74.5,46.8,73.8,48.7,75.3,48.3z"/>
		<path class="st0" d="M57.2,155C57.2,155,57.2,155,57.2,155C57.2,155,57.1,155,57.2,155L57.2,155z"/>
		<path class="st0" d="M46.8,129.8c-0.2,0.1-0.5,0.1-0.6,0.3c0.3,0.5,0.7,2.3,1.4,1.7c0.1-0.7-0.8-1.4-0.6-2.2
			C46.9,129.5,46.8,129.7,46.8,129.8z"/>
		<path class="st0" d="M44.2,127.5c-0.3,0.5-0.8,0.7-0.9,1.2c0.6-0.3,1.3-0.2,1.9-0.3C44.8,128.1,44.6,127.9,44.2,127.5z"/>
		<path class="st0" d="M35.5,135.4c1-0.1,2-0.1,2.6-1c0.4-0.5,0.5-0.7,1.1-0.5c0.5,0.2,0.4,0.6,0.8,0.9c0.4,0.4,1,0.1,1.5,0.4
			c0.8,0.7,0.8,2.5,1.9,2.8c1.4-0.5,1.5,0.5,2.3,1.1c1,0.3,2-0.2,2.7-0.8c0.4-0.2,0.7,0,1.2,0c0.9-0.2,1.9-1.5,1.6-2.5
			c-1.9-1.7-4.7-0.9-5.1-4.3c-1.2-1.1-1.8,1.3-3.7-0.8c-0.9-0.3-1.8,0.4-2.7,0.2c-0.6-0.1-0.9-0.5-1.5-0.4c-1.1,0.1-1.8,0.8-2.9,0.7
			C33.5,131.9,33.1,135.9,35.5,135.4z"/>
		<path class="st0" d="M135.7,14.1c1.1-2.3,3.9-1.4,5.8-2.2c1.2-1.6,3.2-1.6,4.8-2.2c-2-0.7-4,0.5-6.1,0.6c-2.1,0.7-6-0.4-5.4,3.1
			C135.2,13.6,135.4,14,135.7,14.1z"/>
		<path class="st0" d="M149.4,8.8c0.1,0.3,0.3,0.5,0.3,0.9c0.6-0.7,1.2-1.6,2.2-1.2c-0.5-0.4-0.5-1-0.8-1.4
			c-0.9-0.6-1.4,0.4-2.3,0.8C149.2,7.9,149.3,8.5,149.4,8.8z"/>
		<path class="st0" d="M132.6,13c1.3-0.8-1.6-1.8-1.6-0.4C130.7,13.8,132.1,13.4,132.6,13z"/>
		<path class="st0" d="M116.6,15.9c1-0.1,1.6-1.2,2.6-1.1c0.9,0.1,1.9,0.2,2.8,0.1c2.3-0.2,4.4-1.7,6.8-1.4c-2.1-2-7.8,1.2-10.7,0
			C114.7,11,111.5,16,116.6,15.9z"/>
		<path class="st0" d="M83.4,30.9c0.7-1.1,2.5,0,2.9-1.6c0.2-0.5,0.3-1.1,0.9-1.2c0.8-0.4,0.2-1.7,1.3-1.9c1.2-0.2,2.2-1,3.4-1.3
			c0.3,0,0.4-0.1,0.3-0.4c-0.2-0.7-1.1-0.5-1.7-0.4c-2.7,1.7-5.6,3.5-7.9,5.8C81.7,30.4,82.6,31.9,83.4,30.9z"/>
		<path class="st0" d="M94.1,25.7c1.8-0.4,0.9-1.5-0.5-1.3C93.1,25.3,93.1,26.2,94.1,25.7z"/>
		<path class="st0" d="M96.8,21.3c0.8-0.2,0.5-0.9,1.1-1.1c0.7-0.4,1.5-0.4,2.3-0.3c0.3,0,0.5-0.3,0.7-0.5c1.1-0.2,1.8-0.2,2.4-1.4
			c0.5-0.9,2,0,2.9-0.6c0.7-0.5,2,0.1,1.8-1.1c1,0.3,1.2-0.6,2-0.7c0.4,0,1.6,0.2,1.4-0.4c-0.9-2.7-12.1,2.9-15.1,2.8
			C94.5,19.7,93.9,22.2,96.8,21.3z"/>
		<path class="st0" d="M155.4,8.4c1.1-0.4-0.7-0.9-1.2-0.9c-0.1,0-0.2,0.1-0.3,0.2C154.3,8.1,154.8,8.5,155.4,8.4z"/>
		<path class="st0" d="M32.4,154.4c0.6,0,1.9,0.7,2-0.2c-0.2,0-0.3-0.3-0.5-0.4c-0.6-0.7-1.9,0-2.4-0.9c-0.6-0.2-1.4,0.6-0.9,1.1
			C31.1,154.5,31.8,154.3,32.4,154.4z"/>
		<path class="st0" d="M55,155c-1.4,0.6-2.7,1.3-4.4,1c-2.8,0.6-1.4-3.7-4.8-2.4c0,3.9-1.2,1.2-3.8,3.8c-2,1.2-4-1-6.2-0.6
			c-0.6-0.1-0.8-0.5-1.2-0.9c-0.8-0.6-1.9-0.2-2.8-0.6c-1.4-0.5-2.5-1.2-3.5-2.1c-0.9-0.2-1.9,0.1-2.6,0.5c-1.7,0.6-3.4,0.7-4.9,1.8
			c0.4,0.7,0.9,1.7,0.8,2.6c-0.2,0.5-0.9,0.8-0.9,1.3c0,0.2,0.3,0.3,0.3,0.6c0,0.1-0.2,0.3-0.2,0.5c0.5,0.4,0.5,1,0.5,1.6
			c0.2,0.5,0.7,0.9,1,1.1c0.2,0,0.3-0.3,0.6-0.2c0.4,2.2,3,0.8,4.5,0.9l-0.4-2.7c0.5,0,0.5-0.1,0.9,0.3c0-0.2,0.1-0.4,0.2-0.5
			c0.3,0.2,0.5-0.3,0.8-0.3c0.3,0,0.5,0.3,0.8,0.2l0.3-1.1l1.6,1c0.8,0,2.7,0.9,3.4,1.2c0,0.1,0,0.1,0,0.2c0.6,0.1,1.3,0.1,1.9,0.2
			c0.4,0.5,0.8,0.7,1.4,0.9c-0.1,1-0.4,2.4,0.5,3.1c0.1-0.1,0.2-0.1,0.2-0.2c0.5,0.4,0.8,0.1,1.4,0c0.8,0.2,1.2-0.4,1.9-0.7
			c0,0.4,0,0.8-0.5,1.1c0.1,0.1,0.3,0.2,0.4,0.3c0.3-0.1,0.6-0.1,0.9-0.1c0.1-0.4,0.2-0.6,0.2-0.9c0.2,0,0.4-0.1,0.5-0.2
			c0.5,0.6,1.2,0.6,1.5-0.1c0.2-0.3,0.3-0.1,0.5-0.2c0.3-0.2,0.2-0.5,0.4-0.7c0.5-0.8,2.5-0.5,3.2-0.6l4.4-3.2l2.6-3.6l0.1,0.1
			C56.8,156.1,55.8,155.5,55,155z"/>
		<path class="st0" d="M50.2,155.1c0.2,0,0.4,0,0.6,0c-0.2-0.5-0.8-0.7-1.3-0.9C49.6,154.5,49.7,155.2,50.2,155.1z"/>
		<path class="st0" d="M179.8,37.6c-1.8-0.9-0.7-4.1,0.9-4.6c-0.8-1,0.2-3.1-0.3-4.5c-1.9-0.2-4.8,0.1-5.8-1.8
			c-0.1-1,0.8-1.7,0.7-2.7c-2.1,0.8-9.1-2.1-8.3-5c-0.2-1.3-1.1-2-0.4-3.2c0.6-1.7-2.5-3.1-3.7-2.3c-3-1.6-6.2,0.4-9,1.5
			c-3.1,1-6.6,0.8-9.6,2.1c-2.9,2.1-2.1-1.5-5.7-0.1c0.1,0.4,1.6,1.3,0.6,1.4c-0.4-0.1-0.6-0.5-0.9-0.8c-0.3-0.5-1.4,0.2-1,0.7
			c0.5,0.2,1.2,0.4,0.5,0.9c0.3,0.2,1.2,0,1.4,0.3c-0.1,0.1-0.4,0.2-0.1,0.4c0.3,0.2,0.5-0.3,0.8-0.1c0.1,0.2-0.2,0.3-0.2,0.4
			c0,0.2,0.4,0.2,0.5,0.4c-0.7,0.3-1.9-0.3-1.9,0.8c-0.1-0.3-0.3-0.6-0.4-0.8c-1.1-0.2-0.3,0.7-0.3,1.3c-1.8-1-0.5-3.4-1.2-5
			c-2.5,0.2-5,0.7-7.5,0.7c-0.1-0.8-2,0.4-2.4,0.5c-0.9,0.2-1.9,0-2.6,0.7c-5.6,3-11.5,4.9-15.6,9.9c-2.4,1.9-3,4.9-3,7.7
			c-0.1,0.5-0.4,0.5-0.7,0.9c-0.7,0.7-0.2,2-0.5,3c-0.1-0.1-0.2-0.1-0.3-0.2c0,0.6,0.2,1.8,0.6,2.1c0,0.3,0.1,0.7,0.3,0.9
			c-0.2,0.4,0.2,0.5,0.3,0.8c0.3,0.7-0.4,1.2-0.3,1.9c0.7,1.5,0.4,2.8,0.3,4.3c1.7,3.4-4.5,1-0.7,5.1c1,1.4,2.2,0.1,3.5,0.6
			c1.2,0.4,2.2,1.2,3.5,1.1c0.7-0.1,0.6,0,0.9-0.6c0.3-0.8,1.2-0.1,1.8-0.5c1.3-0.9,0.7-0.5,1.6,0.4c2.3-0.2,2,1.1,0,1
			c-1.5,2.5-3.5,4.7-3,7.8c-0.6,2.5,0.9,4.2,2.1,6.3c1.6,2.2,4.8,0.4,7,1c0.9-0.3,1.1-0.1,1,0.9c0.1,1.9,1.6,3.1,1.5,5.2
			c-1.6,10.3-11,7.9-14,17.1c-1.9,0.3-3.5,3.2-5.6,1.3c-1.8-2-3.7-0.6-4.5-3.5c-1.7-2.3-5.7,1.3-6.4-2c5.6-2.1,8.1,4.7,13,5.1
			c2.9-0.9,3.9-2.5,4.2-5.4c-0.8-2.2,1.8-1.7,3.1-2.3c1.3-3,5.6-2.7,7.4-5.2c2-2.6,3.4-7.1,0.1-9.2c-2.4-0.1-5-0.5-6.9-1.9
			c-0.7,0.7-2,0.8-2.9,1.2c-1.5,0.6-2.3,2.1-3.9,2.6c-2.9,2.5-0.1,2.9-5.2,5.3c-2.1,1.6-3.9,3.3-6.3,4.4c-0.7,0.4-2.9,1.3-3,2.3
			c0.2,1,0.7,2.2,0.3,3.3c-1.3-0.7-2.6-1-4.1-0.5c-0.1-0.8-0.6-1.4-1.3-0.6c0.1-0.2,0.2-0.4,0.2-0.7c-0.3-0.3-1.6-0.3-1.3-1
			c0.3-0.8,1.4,0.1,1.7-0.3c-0.3-2.1,2.8-2.3,3-4.1c-0.4,0.1-0.8,0.1-1.3,0c-0.2-0.8,0.1-1.4-0.8-1.8c2.2-0.5,0.1-1.8,2-2.8
			c-2-2.6-5.6-10.6,0.7-9.2c1.8,2.1,2.7,0.7,4.7-0.6c1.2-0.8,0.9-2.1,2-3c1.8-0.9,1-3.1-0.2-4.2c-2.7-1.6-4.7,3.7-5.8-1.4
			c-0.3-0.1-0.6-0.1-0.9,0c1.7-4.2-0.6-7.9-2.7-11.4c-3.9-0.5-3.6,3.5-6.9,3.4c-0.8-0.1-2.7-1.4-3.1-2.1c-0.6-1,0.5-2.1,0.1-3.2
			c-4.7,0-3.5,5.2-4,8.4c-4.8,11.7-3.2,25.4-9.5,36.3C65,96,63,99.6,61,103c-2.7,3.7-6.3,6.3-8.6,10.1c-0.5,0.6-2,1.4-0.7,2
			c0.7,0.4,0.9-0.1,1,0.9c-1.1-0.8-2.2-0.4-2.3,1c-0.3-0.2-0.4-0.6-0.4-1c-0.2,0-0.9,0.1-0.9-0.2c0.3,0,0.6,0,0.9-0.2
			c0-0.8-1-0.7-1.5-1c-3.6-1-3.4,1.8-2.4,4.2c0.9,0.2,2.5-0.4,2.9,0.6c-1.9,2.6,0.4,2.2,1,4.5c0.9,2,3.9,0.5,4.4,2.7
			c1.3-0.1,2.9,0.7,2.8,2.1c5.4,2.1,12,7.7,17.1,2c0.7,1.2,1,0.7,1.8,0.1c1,0,1.9,0.4,2.2,1.3c-4.7-0.8-8.7,4-13.1,1.7
			c-0.6,0-1,0-1.3,0.4c-0.5,0.5-0.9,0.9-1,1.7c-1.1,1.6-3.2,1.4-4.7,2.2c-0.4,0-0.7,0-0.8,0.3c-0.6-0.8-1.6-0.4-2.4-0.2
			c0.2-0.7-0.6-0.7-1-0.8c-4-2.5-3.1,3.8,0.3,1.9c0.2,1.1-3,1-3.4,0.4c-1.5-0.9-3.2,0.9-4.6,1.4c0,1.1,1.5,1,1.6,2
			c1,0.3,1.6,0.8,2,1.8c0.7,1.1,2.2,0.3,3.3,0.6c1,0.3,2.1,1.7,2.9,0.4c0.1,0.2,0,0.4,0.1,0.6c0.2,0.3,0.8,0.2,0.6,0.6
			c-1.4,0.5,0.8,1.8,0.9,0.4c0.8,0.3,0.4,1.4,0.7,2c0.3,1.1-1.1,1.2-1.6,0.4c-0.6-0.5-0.4,0.4-0.5,0.8c-0.3,0.7-0.9,0.1-1.4,0
			c-0.9-0.2-1.4,1-2.2,0.7c-1.9-1-3.4-2.4-3.5-4.7c-1.1-0.6-2.5-1.8-3.9-1.9c-0.3,0-0.8,0.2-1,0c-0.2-0.1-0.2-0.7-0.3-0.9
			c-0.8,0.1-1.8,0-2.5-0.1c3-1.6-0.8-4.7-3-3.9c-2.3,1.2-4.5-0.2-6.7,0.9c-1.4,0.2-2.9-0.7-4.1,0.2c-1.1,0.6-1.8,1.8-3,2.3
			c-1.1,0.3-2.3,1.5-1,2.4c3.1,1.1,3.8,6.1,7.5,5.1c0.5-0.1,1.1-0.2,1.5-0.6c0.4-0.4,0.5-0.7,1.3-0.6c-0.7,0.8,0.3,1.3,1,1.5
			c0.6,0.4,0.5,1.5,1,1.7c1.3-0.1,2.4,0.4,3.2,1.4c0.5,0.3,1.3,0.3,1.9,0.3c0.3-0.1,0.3-0.5,0.7-0.6c1.5,0.9,2.2-2.7,2.1-3.6
			c0.9,0.1,1.5-0.4,2.3-0.8c6.6,7.8,9.4,1.6,11,5.5c1.2,0.1,2.6-0.2,3.7,0.1c-0.3,2,4.1,1.9,4.1,0.2c-0.1-1.6-2.6-2.4-1.7-4
			c0.3-0.1,0.4-0.4,0.2-0.6c-3.1-0.5,5-2.4,5.7-2.5c0.4,1.2-0.7,2.5,0.1,3.8c2.5-1.8,3.2,1,5.3,0c-0.1-1.3,0.2-1.3,1.1-1.8
			c0.8-1.3,2.1-2.9,3.5-3.4c0,0.1,0,0.1,0,0.2c2.8,0,0.7,1.2,2.8,1.5c-0.1,0.5,0.3,1.3-0.3,1.5c-0.2,0.1-0.4,0.3-0.5,0.5
			c-0.2,0.6,0.5,1.3,0.2,1.9c-0.7-0.2-2.6-1.7-2.7-0.3c0.1,0.5,0.3,1,0.8,1c0.7-0.1,1.7-0.1,2.3-0.4c0.4,0,0.6,0.5,1,0.4
			c0.9-1.1,2.1-0.3,2.1,0.9c0.2,0.3,3.4-3.2,3.6-3.3c-0.1-1.2,0.4-2.3,1.5-2.9l0.3,1.2h1.3l1,2.6l-1.4,2.5l2.5,3l0.1,2.3l1.3,0.3
			l1.4-0.8l1.6,1l-0.6,2.5l0.6,0.6l1-0.5l3.1,0.3l0.3-0.9l3.1,0.9l0.8-1.4l1.2-0.1l0.7-1l1.4,0.3l1.5,1.8l0.2,3.1l3.7,1.6
			c0.5,1.3,0.6,0.9,1.9,0.9c1,0.9,2.3-0.9,3.3,0.3c0,0.3-0.5,1.2,0,1.2c0,0.3,0,0.5,0,0.8c0.8-0.2,0.8-1.3,1.7-0.5
			c0.1-0.2,0.3-0.5,0.6-0.6c0,0.7,0.4,1.1,1,1.4c-0.5,0.7-1.4,1.4-1.9,2c0.3,0.2,1.2,0.9,0.7,1.4c-0.2,0.3-1.1-0.1-1.3,0.3
			c-0.1,0.3,0.3,0.6,0.2,0.9c-0.2,0.3-0.3,0.6-0.2,1c-0.3,0-0.7-0.1-1,0c-0.2,1-0.9,1.7,0.1,2.4c-0.2,1.7-1.2,2.7-2.2,3.9
			c0.3,0.5,0.6,0.4,1.3,0.3c0.6,0.7,0.2,1.3-0.5,1.7c-0.6,0.6-0.5,2.1-1.7,1.7c-0.3,0.6-0.4,1.8-1.2,1.8c-0.4,0.2-1.1,0.3-1,0.9
			c0.1,0.5-0.3,0.9-0.3,1.4c0.2,0.5,0.3,1.2,0.7,1.6c0.4,0.2,1.1,0.1,1.5,0.6c0.3,0.4,0,0.5,0,0.9c0.4,1,0.1,1.8-0.3,2.7
			c0.8,0.2,1.3-0.8,2-0.1c0.5,0.1,0.5-0.3,0.7-0.7c0.3-0.5,0.6-0.5,1-0.8c0.1,0.7,0.1,1.2,1,0.8c0,1,1.5,1,1.9,0.3
			c0.1,0.2,0.1,0.5,0.1,0.7c0.5-0.3,1.1-0.8,1.6-1c-0.1,2.2,2.2,0.3,3.3,0.6c0.6,0.4,1.5,0.5,2.2,0.4c1.7-2.2-2.1-1.9-1.7-3.4
			c3.6,0.7,0-2.5,3.1-3.5c0.3,0.2,0.5,0.4,0.8,0.7c0.4-0.4,0.3-1.2,0.6-1.6c-0.9-1.3-0.6-1.7,0.2-3.1c-0.4-0.4-1,0-1.4-0.3
			c-0.4-0.5-1.2-0.5-1.7-0.9c-0.1-0.4,0.1-1.2-0.5-1.3c0.4-0.5,0.7-0.9,0.7-1.6c-0.7-0.1-2.1,0-2.6-0.4c-0.5-0.4-3.7,1.8-2.4,0
			c0.2-0.9-0.2-1.2-0.8-1.7c-0.3-0.9-0.3-1.8-0.8-2.7c0.8,0.2,1.6,0,1.9-0.8c0.5,0.4,1.1,1.5,1.2,2.1c0.6,0.1,1,0,0.9-0.7
			c0-1.1,1-1.8,1.6-2.7c0.3-0.4,0.6-0.4,1.1-0.4c0.9-0.1,0.9-1.3,1.7-1.7c0.7-0.1,0.7-0.5,1-1c1-0.6,2.8-0.4,3.3-1.6
			c-0.4-0.4-0.9-0.6-1.4-0.9c0.6-0.3,1.2-0.6,1.8-0.9c-0.2-0.3-0.6-0.4-0.8-0.6c-3,1.8-4,3-4-1.6c0.4-0.7,0.9-0.3,0.6-1.1
			c-0.2-0.6-0.6-0.7,0-1.1c1.5-1,2.4-2.5,3-4.1c0.3-1.9,4.5-2.3,2.6-4.6c0.1-0.3,0.3-0.6,0.3-0.9c-1.7,0,0.1-2.7-0.1-3.7
			c-0.1-1.6,0-3.6-1.2-4.8c-1.6-0.9-1.3-3.2-3-4.1c-2.4-1.6,0.1-2.7-0.2-4.6c-1-0.6-2.2-0.6-3.3-1.2c-0.5-0.7-0.8-2.3,0.1-2.8
			c-0.9-0.9-1.8-1.8-3.1-1.5c-1.5-0.4,1-1.5,1.2-2.1c-0.1-0.1-0.3-0.1-0.5-0.2c0.1-0.3,0.3-0.5,0.3-0.7c-1.1,0.1-0.3-0.9-0.9-1.3
			c-0.1-0.1-0.8-0.5-0.8-0.7c0-0.3,0.4-0.1,0.2-0.4c-0.1-0.1-0.2-0.1-0.2-0.2c0-0.7,0.6-1,1.2-0.7c1.1,0.3,1.9-0.8,2.9-1.2
			c0-0.4,0.4-0.7,0.7-0.9c1.1,1.1,2.7,1,4.2,1.4c0.1-0.5,0.4-1.6-0.4-1.5c-0.6-0.3-0.4-1-0.9-1.4c-0.3-0.2-0.7-0.2-1.1-0.4
			c0.5-0.8,1.1-0.3,1.8-0.7c2.3,0.2,0.9,2.9,4.7,2.3c2.1-1,0.9,1.3,2.4,1.3c0.5,0.1,1.4-0.3,1.6,0.3c0.2,0.9,1.1,0.9,1.8,1.2
			c0-0.6,0.3-1.2,0.2-1.8c-0.3-0.5-0.8-0.8-0.6-1.5c0.3,0.1,0.4,0.3,0.7,0.2c0.5,0.1,0.5,1.1,1.1,0.8c0.6-0.7,0.9,0.1,1.5,0.4
			c0.9-0.8,2-1.4,2.9-2.2c1.2,0.4,1-0.2,2-0.6c0.6-0.1,0.9-0.1,1.4-0.3c1.7-0.9,2.8-1.9,4.1,0.2c1.1-0.3,2.1-1.4,2.8-2.2
			c0.3-0.6-0.1-1.6,0.5-2c1.3,0,1.6-1.2,1.1-2.2c-2.1-0.7-3.1-3.6-5.6-3.1c-1.4-3.4,3.1-1.5,2.1-3.4c0.8-0.3,0.5-1.3,0.6-2
			c7.7,0.5,2.8-2.8,6.5-3.7c3.5-0.4,1-3.8,4.8-3.5c3-1.9-0.8-2,0-4.9c1.2-2.5,2.3-4.1,1.2-7l-1.1-0.1l-2-4.4l-1.2,1.9l-0.9,0.4
			l-3.4-1.1v-0.6H162l-3-1.7c0.7-1.5-0.1-3.3-0.9-4.6c0.9,0.1,1.7,0.3,2.2-0.7c2.7,0.6-0.4-1.2-0.6-2c0.2-1.2-0.7-2.7,0.7-3.3
			c0.6-0.4,1.7-1,2.4-0.9c0.5,0.3,1.1,0.4,1.7,0.3c1.6-0.2,2.9-0.4,4,0.9c2-1,2.6-1.3,4.4,0.2c0.2-0.3,0.7-0.6,0.7-1
			c0.1-1.3,0.5-12,1.5-12.8c-0.2-0.7-0.4-1.3,0.2-1.9C179.7,49.9,181.3,44,179.8,37.6z M107.3,52.7c-0.1,0.3-0.5,0.4-0.5,0.8
			c-0.1-0.3-1.3-0.2-0.7-0.7c0.5,0.4,0.5-0.3,0.8-0.5C107.2,52.2,107.4,52.4,107.3,52.7z M109.5,45.7c0.4-0.3,0.8-0.1,1.2,0
			c-0.4,0.5-1-0.1-1.1,1C108.9,47,109,46,109.5,45.7z M111.9,49.5c-0.9,0.4-1.4,1.3-2.3,1.7c-0.4,0.2-0.5,0.2-0.5,0.6
			c0.1,0.3-0.6,0.8-0.8,0.4c0.4-0.5,0.3-1.1,0.5-1.7c0.9-0.3,1.4-1.5,2.3-1.9c1.2,0.2,1.9-1,3-0.8c0.5,0.2,0.1,0.8-0.1,1
			C113.6,49.5,112.5,49,111.9,49.5z M115.9,50.9c-1.1,2.3-4.4,0.4-0.9-0.9C115.7,50,115.9,50.4,115.9,50.9z M117.3,47.7
			c0,0.7,0.4,2.2-0.4,2.1C116.9,48.6,116.2,48.5,117.3,47.7z M117.6,53.5c-0.1,0.6-0.3,1.2-0.8,1.5c0-0.8,0.1-1.7,0.5-2.4
			C117.8,52.8,117.7,53.3,117.6,53.5z M121.7,43.7c-0.3,0.5-0.6-1-0.6-1.2C121.6,42.9,122,43.3,121.7,43.7z M119.4,44
			c-0.4,0.4-0.8,0.2-0.9-0.3c-0.2-0.8,1.3-1,1.6-1.8c0.5,0.7,0,1.1,0.5,1.7C120.1,44.4,119.8,45.8,119.4,44z M123.3,53.1
			c-0.7,0.7-3.2,1.1-3.7,0.2c0.4-0.8,0.8-1.5,1.6-2.1C122.6,51.7,123.7,50.9,123.3,53.1z M133.2,34.6c-0.2,1.2-1.8-0.7-0.6-0.6
			C133,34.2,133.2,34.5,133.2,34.6z M131.3,31.3c0.1-0.1,0.4-0.1,0.5-0.1c0.2,0.2,0.7,0.1,0.8,0.4c0.1,0.5-0.2,2-0.9,1.1
			c-0.4-0.1-0.5-0.3-0.3-0.7C131.5,31.7,131.2,31.6,131.3,31.3z M126.8,43.1c0.8,0.9-0.3,0.2-0.3,0.9
			C125.8,44,126.3,43.1,126.8,43.1z M124.9,39.3c-0.1,0.1-0.7,0.4-0.7,0c0.3-0.2,0.6-0.5,0.8-0.7C125.2,38.9,125.1,39.2,124.9,39.3z
			 M130.2,70.4c-0.5,0.8-1.2,0.7-2,0.7c-0.8,0.7-1.8,0.6-2.8,0.2c1.4-0.2,3.3-1,3.9-2.4c0.8,0.1,1.2,0.6,1.6,1.3
			C130.6,70.3,130.4,70.3,130.2,70.4z M132.8,67.2c-1-0.1-1.6-0.2-2.6-0.7c0-1,0.8-0.6,1.4-1c0.2-0.4,0.6-0.6,1-0.3
			c1.3,0.1,0.9,0.9,0,1.3c0.6-0.1,1.2-0.1,1.8-0.1C134.6,67.3,133.3,67.3,132.8,67.2z"/>
	</g>
</g>
</svg>
