<?xml version="1.0" encoding="utf-8"?>
<!-- Generator: Adobe Illustrator 26.0.3, SVG Export Plug-In . SVG Version: 6.00 Build 0)  -->
<svg version="1.1" xmlns="http://www.w3.org/2000/svg" xmlns:xlink="http://www.w3.org/1999/xlink" x="0px" y="0px"
	 viewBox="0 0 200 200" enable-background="new 0 0 200 200" xml:space="preserve">
<g id="Isolation_Mode">
	<g>
		<path fill="#1E8346" d="M9.447,111.66c0.226,0.054,0.299,0.008,0.446,0.168c0.137,0.15,0.131,0.323,0.294,0.451
			c0.19,0.149,0.44,0.171,0.64,0.303c0.646,0.426-0.192,0.584-0.186,1.063c0.005,0.396,0.737,1.682,1.1,1.891
			c0.225,0.13,0.698,0.095,0.852,0.299c0.044,0.058,0.062,0.15,0.063,0.26c0.004,0.394-0.216,1.025-0.324,1.216
			c0.142,0.124,0.268,0.255,0.382,0.412c0.327,0.449,0.312,1.053,0.407,1.602c0.13,0.751,0.255,1.028,0.819,1.562
			c0.234,0.222,0.421,0.493,0.641,0.689c0.4,0.357,1.112,0.195,1.663,0.303c0.029,0.229-0.034,0.533-0.008,0.726
			c0.04,0.302,0.272,0.407,0.462,0.633c0.208,0.249,0.368,0.425,0.341,0.755c-0.031,0.385-0.308,0.433-0.646,0.607
			c0.043,0.135,0.09,0.374,0.175,0.497c0.136,0.197,0.305,0.103,0.249,0.404c-0.043,0.232-0.426,0.302-0.42,0.477
			c0.003,0.108,0.334,0.282,0.4,0.359c-0.203,0.325-0.5,0.573-0.702,0.906c0.308,0.216,0.618,0.099,0.857,0.43
			c0.212-0.254,0.422-0.5,0.737-0.614c0.118,0.134,0.199,0.403,0.36,0.495c0.165,0.094,0.441-0.055,0.597,0.036
			c0.14,0.081,0.439,0.563,0.528,0.722c0.669-0.149,0.952-0.64,1.655-0.581c0.396,0.033,0.886,0.35,1.113-0.119
			c0.175,0.245,0.128,0.58,0.264,0.83c0.169,0.31,0.217,0.225,0.623,0.258c0.611,0.049,1.334,0.083,1.927,0.257
			c0.545,0.159,0.537,0.54,0.896,0.951c0.38,0.435,0.779,0.958,1.364,1.093c0.434,0.633,0.784,1.234,1.109,1.926
			c0.422,0.896,0.578,1.501,1.485,1.991c0.411,0.222,0.91,0.136,1.312,0.288c0.178,0.068,0.785,0.434,0.855,0.629
			c0.08,0.221-0.131,0.467-0.101,0.702c0.032,0.247,0.213,0.484,0.372,0.665c0.473,0.539,0.721,0.183,1.33,0.138
			c0.07-0.005,0.176-0.107,0.273-0.087c0.289,0.06,0.607,0.501,0.85,0.69c0.291,0.227,0.627,0.429,0.905,0.67
			c0.566,0.491,1.124,1.377,1.739,1.737c0.37,0.217,0.825,0.155,1.189,0.284c0.304,0.108,0.489,0.4,0.783,0.504
			c0.755,0.267,1.921-0.102,2.712-0.093c0.942,0.011,1.957,0.351,2.723-0.212c0.2-0.147,0.441-0.413,0.701-0.465
			c0.465-0.093,0.394,0.192,0.905,0.365c0.594,0.202,0.969-0.152,1.515-0.265c1.455-0.3,2.791,0.579,4.174,0.779
			c1.325,0.191,2.947,0.099,4.31,0.105c1.168,0.005,2.177-0.238,3.253-0.718c0.461-0.205,1.086-0.694,1.564-0.737
			c0.521-0.048,0.954,0.595,1.416,0.677c0.306,0.054,0.631-0.086,0.968-0.179c0.795-0.221,1.452-0.497,2.303-0.361
			c0.841,0.135,1.375,0.282,2.206-0.02c1.143-0.416,1.845-1,2.431-2.07c0.307-0.561,0.333-0.505,0.985-0.605
			c0.979-0.15,1.855-0.08,2.843-0.123c-0.002-0.112,0.066-0.246,0.105-0.35c-0.129-0.172-0.483-0.271-0.69-0.343
			c-0.212-0.075-0.296-0.072-0.422-0.218c-0.152-0.175-0.162-0.435-0.297-0.62c-0.194-0.266-0.515-0.285-0.787-0.424
			c-0.246-0.125-0.831-0.356-0.981-0.602c-0.19-0.312-0.135-1.077-0.122-1.422c0.029-0.831,0.729-1.392,0.666-2.224
			c-0.038-0.494-0.415-0.637-0.579-1.051c-0.171-0.428,0.251-0.857,0.651-0.919c0.384-0.06,0.585,0.057,0.909-0.241
			c0.126-0.116,0.213-0.237,0.271-0.365c0.122-0.269,0.116-0.57,0.075-0.926c-0.016-0.14,0.073-0.307,0.103-0.433
			c0.04-0.17,0.002-0.414-0.003-0.587c0.343-0.014,0.376,0.013,0.567-0.156c0.018-0.016,0.036-0.032,0.057-0.051
			c0.158-0.146,0.267-0.186,0.474-0.123c0.014,0.004,0.027,0.008,0.042,0.013c0.237,0.083,0.338,0.305,0.588,0.25
			c0.345-0.076,0.376-0.465,0.598-0.642c0.485,0.257,0.725,0.18,1.259,0.072c0.29-0.058,0.596-0.029,0.891-0.029
			c0.211,0,0.653-0.097,0.791,0.073c0.299-0.21,0.544-0.538,0.836-0.767c0.305-0.239,0.497-0.396,0.683-0.013
			c0.049,0.101,0.043,0.193,0.127,0.263c0.127,0.106,0.35,0.016,0.466,0.107c0.051,0.041,0.071,0.095,0.088,0.149
			c0.026,0.083,0.046,0.164,0.165,0.189c0.104,0.021,0.386-0.23,0.476-0.287c0.195-0.122,0.333-0.203,0.569-0.274
			c0.432-0.131,0.414-0.082,0.767,0.123c0.129,0.075,0.277,0.136,0.426,0.054c0.096-0.053,0.129-0.232,0.24-0.293
			c0.199-0.108,0.374,0,0.555,0.061c0.344,0.114,0.677,0.315,1.02,0.398c0.423,0.102,0.857-0.222,1.282-0.111
			c0.308,0.081,0.32,0.34,0.554,0.464c0.399,0.212,0.378-0.5,0.525-0.739c0.168-0.275,0.628-0.105,0.884-0.36
			c0.311-0.309,0.581-0.487,1.021-0.598c0.292-0.073,1.171-0.271,1.457-0.141c0.114,0.052,0.153,0.214,0.266,0.261
			c0.184,0.077,0.251-0.084,0.43-0.114c0.332-0.056,0.318,0.258,0.611,0.289c0.183,0.02,0.536-0.116,0.699-0.214
			c0.317-0.191,0.74-0.806,1.041-0.379c0.231,0.329,0.175,0.669,0.701,0.621c0.073-0.273,0.278-0.477,0.401-0.726
			c0.17-0.343,0.18-0.669,0.179-1.046c-0.001-0.516-0.006-0.908,0.292-1.347c0.224-0.331,0.273-0.551,0.27-0.957
			c-0.004-0.488,0.214-0.491,0.394-0.83c0.168-0.316-0.027-0.77,0.301-0.939c0.212-0.109,0.504-0.127,0.727-0.211
			c0.278-0.105,0.514-0.284,0.744-0.472c0.404-0.33,0.928-0.618,1.263-1.002c0.142-0.163,0.212-0.376,0.375-0.524
			c0.316,0.23,0.869,0.918,1.228,0.399c0.431,0.28,0.706,0.951,0.817,1.451c0.084,0.38,0.336,0.542,0.77,0.469
			c0.271-0.046,0.313-0.264,0.453-0.457c0.149-0.203,0.396-0.298,0.668-0.238c0.416,0.092,0.593,0.655,0.945,0.893
			c0.288,0.195,0.713,0.083,0.747,0.54c0.015,0.201-0.077,0.22-0.189,0.394c-0.106,0.164-0.144,0.313-0.125,0.525
			c0.036,0.41,0.372,0.475,0.758,0.359c0.161-0.048,0.299-0.162,0.465-0.205c0.43-0.111,0.937-0.05,1.382-0.116
			c0.465-0.069,1.025,0.013,1.506,0.173c0.171,0.407-0.52,0.917-0.512,1.369c0.004,0.214-0.039,0.246,0.245,0.302
			c0.239,0.047,0.589,0.037,0.788-0.117c0.255-0.199,0.217-0.568,0.421-0.79c0.179-0.195,0.477-0.16,0.686-0.296
			c0.362-0.235,0.453-0.616,0.871-0.778c0.279-0.108,0.591-0.438,0.875-0.48c0.236-0.034,0.504,0.208,0.672,0.345
			c0.066,0.054,0.182,0.183,0.273,0.194c0.223,0.026,0.773-0.627,0.902-0.795c0.087-0.113,0.155-0.224,0.194-0.362
			c0.018-0.064-0.09-0.06-0.042-0.174c0.078-0.185,0.476-0.334,0.644-0.439c0.278-0.173,0.745-0.628,0.832-0.949
			c0.105-0.389,0.034-1.093-0.03-1.481c0.284,0,0.592,0.002,0.871,0.051c0.352,0.061,0.753,0.406,1.105,0.383
			c0.191-0.013,0.758-0.352,0.727-0.615c-0.007-0.06-0.045-0.116-0.125-0.163c0.244-0.112,0.601-0.083,0.874-0.094
			c0.152-0.235-0.347-0.468-0.184-0.712c0.095-0.142,0.551-0.096,0.69-0.036c0.222,0.097,0.363,0.341,0.567,0.47
			c0.309,0.195,0.62,0.278,0.982,0.205c0.861-0.174,0.369-0.514,0.498-1.077c0.364,0.09,0.62-0.48,0.844-0.677
			c0.166-0.146,0.427-0.195,0.58-0.336c0.11-0.101,0.116-0.237,0.168-0.376c0.174-0.459,0.347-0.94,0.575-1.375
			c0.248-0.474,0.54-0.75,0.972-1.038c-0.063-0.214-0.279-0.378-0.284-0.61c-0.005-0.256,0.127-0.238,0.286-0.4
			c0.308-0.315,0.123-0.98,0.175-1.404c0.059-0.479,0.439-0.626,0.664-1.006c0.161-0.272,0.322-0.597,0.534-0.833
			c0.173-0.193,0.176-0.147,0.452-0.133c0.027-0.146-0.009-0.295-0.041-0.439c0.161-0.096,0.439-0.26,0.537-0.423
			c0.117-0.195,0.11-0.426,0.329-0.573c0.205-0.138,0.361-0.126,0.443-0.382c0.073-0.229,0.029-0.571,0.014-0.813
			c-0.014-0.237-0.278-1.523,0.312-1.379c0.168,0.041,0.296,0.329,0.487,0.398c0.137,0.049,0.035,0.094,0.206,0.019
			c0.166-0.073,0.287-0.548,0.346-0.721c0.395,0.001,0.698,0.138,1.028,0.255c0.287,0.102,0.523-0.109,0.766-0.283
			c0.214-0.154,0.492-0.441,0.757-0.489c0.201-0.036,0.378,0.105,0.574,0.057c0.257-0.063,0.448-0.361,0.74-0.411
			c0.181-0.031,0.35,0.068,0.527,0.048c0.204-0.022,0.262-0.171,0.407-0.28c0.315-0.239,0.387-0.069,0.773,0.009
			c0.043,0.009,0.081,0.095,0.124,0.094c0.088-0.003,0.197-0.16,0.278-0.205c0.596-0.334,1.375-0.232,2.018-0.398
			c0.451-0.116,0.847-0.194,1.311-0.256c0.046,0.095,0.088,0.191,0.129,0.288c0.036-0.033,0.065-0.071,0.089-0.114
			c0.153,0.12,0.063,0.368,0.171,0.51c0.098,0.128,0.301,0.12,0.403,0.219c0.076,0.074,0.074,0.127,0.126,0.22
			c0.285,0.506,0.514,0.234,1.015,0.127c0.186-0.039,0.795-0.13,0.902-0.008c0.216,0.244-0.033,0.83,0.504,0.761
			c0.04,0.08,0.067,0.246,0.133,0.304c0.08,0.069,0.25,0.021,0.344,0.078c0.191,0.116,0.155,0.287,0.185,0.493
			c0.37-0.101,0.384,0.064,0.627,0.301c0.106-0.123,0.265-0.159,0.392-0.253c0.127-0.093,0.211-0.226,0.336-0.32
			c0.543-0.407,1.35,0.07,1.873,0.308c0.288,0.131,0.644,0.178,0.911,0.329c0.231,0.13,0.199,0.264,0.289,0.499
			c0.184,0.483,0.439,0.987,0.898,0.605c0.316-0.263,0.701-0.606,0.939-0.942c0.162-0.229,0.289-0.445,0.535-0.616
			c0.142,0.07,0.202,0.236,0.315,0.339c0.343-0.169,0.66-0.502,0.989-0.719c0.129-0.085,0.293-0.183,0.435-0.238
			c0.314-0.121,0.416-0.109,0.66,0.067c0.428,0.309,1.73,0.989,2.074,0.363c0.081-0.147,0.167-0.308,0.235-0.46
			c0.104-0.232,0.073-0.612,0.273-0.786c0.347-0.301,1.127-0.115,1.544-0.227c0.151-0.041,0.249-0.078,0.388-0.14
			c0.348-0.156,0.254-0.065,0.585,0.024c0.53,0.143,0.493-0.716,0.874-0.934c0.224-0.128,0.667-0.149,0.871,0.012
			c0.209,0.165,0.23,0.442,0.462,0.601c0.18,0.124,0.424,0.17,0.62,0.278c0.169,0.093,0.392,0.096,0.531,0.192
			c0.169,0.592,0.455,1.12,0.703,1.661c0.084,0.184,0.253,0.683,0.48,0.738c0.145,0.036,0.359-0.156,0.524-0.153
			c0.224,0.002,0.377,0.153,0.533,0.288c0.371-0.153,0.54-0.591,1.033-0.335c0.219,0.113,0.219,0.297,0.249,0.547
			c0.07,0.585,0,1.21,0.168,1.779c0.172,0.583,0.618,1.061,0.976,1.533c0.305,0.403,0.36,0.728,0.415,1.192
			c0.01,0.084,0.042,0.279,0.057,0.403c0.034,0.295,0.093,0.347,0.373,0.434c0.352,0.109,0.373,0.113,0.564,0.405
			c0.11,0.168,0.258,0.338,0.352,0.531c0.117,0.242,0.252,0.56,0.433,0.777c0.437,0.524,1.239,0.771,1.887,0.812
			c0.18,0.011,0.367,0.027,0.548,0.008c0.124-0.013,0.207-0.105,0.348-0.049c0.144,0.058,0.179,0.22,0.374,0.281
			c0.197,0.062,0.422,0.041,0.625,0.076c-0.066-0.353-0.076-1.043,0.03-1.4c0.059-0.198,0.283-0.362,0.545-0.261
			c0.165,0.063,0.167,0.247,0.263,0.407c0.141,0.235,0.211,0.232,0.492,0.236c0.491,0.006,0.326-0.151,0.666-0.446
			c0.226-0.196,0.776-0.251,0.964,0.031c0.274-0.52,1.317-0.992,1.898-0.728c0.185,0.084,0.14,0.174,0.354,0.133
			c0.316-0.061,0.608-0.422,0.843-0.619c0.57-0.475,0.594,0.598,1.179,0.487c0.19-0.036,0.348-0.444,0.555-0.425
			c0.224,0.021,0.234,0.393,0.303,0.553c0.544-0.339,0.987-0.06,1.539-0.235c0.018-0.186-0.049-0.427,0.074-0.587
			c0.15-0.198,0.68-0.107,0.668-0.458c-0.005-0.128-0.248-0.309-0.311-0.43c-0.072-0.137-0.12-0.292-0.148-0.445
			c-0.108-0.59-0.021-1.246-0.021-1.846c0-1.008,0.178-1.972,0.281-2.972c0.105-1.017,0.072-2.232,0.664-3.127
			c0.296-0.448,0.462-0.901,0.731-1.36c0.223-0.381,0.271-0.356,0.704-0.453c0.267-0.06,0.48-0.161,0.735-0.264
			c0.098-0.188,0.332-0.308,0.412-0.51c0.085-0.215,0.005-0.485,0.147-0.698c0.151-0.227,0.495-0.321,0.702-0.488
			c0.273-0.22,0.499-0.506,0.756-0.748c0.265-0.248,0.426-0.331,0.806-0.349c0.399-0.019,0.504,0.051,0.675-0.348
			c0.164-0.383,0.201-0.845,0.318-1.245c0.12-0.413,0.262-0.815,0.398-1.224c-0.198-0.105-0.393-0.232-0.602-0.321
			c-0.015-0.31-0.123-0.721-0.002-1.022c0.157-0.391,0.595-0.855,0.884-1.15c0.168-0.171,0.314-0.268,0.375-0.478
			c0.087-0.3-0.138-0.632-0.199-0.912c-0.134-0.612-0.139-1.538,0.022-2.149c0.209-0.796,0.755-0.825,1.402-1.163
			c-0.111-0.284-0.103-0.775-0.062-1.101c0.025-0.201,0.191-0.368,0.217-0.549c0.032-0.222-0.12-0.366-0.089-0.569
			c0.048-0.317,0.544-0.516,0.749-0.75c0.278-0.316,0.626-0.8,0.768-1.204c0.087-0.246,0.002-0.494,0.05-0.743
			c0.11-0.571,1.385-0.737,1.871-0.558c0.102-0.127,0.437-0.452,0.451-0.605c0.021-0.237-0.309-0.342-0.278-0.595
			c0.033-0.27,0.434-0.355,0.521-0.688c0.125-0.483,0.103-1.035,0.165-1.533c0.042-0.342,0.166-0.83,0.021-1.163
			c-0.156-0.36-0.497-0.241-0.883-0.159c-0.671,0.142-0.682,0.453-1.384,0.161c-0.306-0.128-0.523-0.495-0.824-0.603
			c-0.206-0.074-0.508,0.105-0.781,0.151c-0.389,0.065-0.63,0.143-0.962-0.104c-0.122-0.091-0.211-0.197-0.282-0.311
			c-0.249-0.404-0.249-0.918-0.538-1.314c-0.32-0.44-1.196-0.572-1.694-0.494c0.007,0.53-1.277,0.17-1.586,0.05
			c-0.153-0.059-0.269-0.213-0.425-0.275c-0.472-0.189-1.386-0.05-1.868-0.05c0.158-0.313,0.482-0.432,0.563-0.817
			c0.082-0.387-0.164-1.023-0.58-0.938c-0.152,0.031-0.394,0.317-0.577,0.372c-0.359,0.108-0.414-0.147-0.76-0.312
			c-0.272-0.129-0.591-0.094-0.796-0.34c-0.141-0.17-0.171-0.411-0.238-0.619c-0.663,0.359-1.866-0.315-2.492-0.542
			c-0.377-0.136-0.873-0.223-0.944-0.647c-0.081-0.483,0.28-1.146,0.322-1.639c-0.232-0.02-0.479-0.026-0.703-0.096
			c-0.004-0.422,0.324-0.751,0.182-1.163c-0.132-0.384-0.545-0.783-0.803-1.092c-0.407-0.487-0.656-0.937-0.896-1.525
			c-0.187-0.459-0.154-0.507-0.655-0.516c-0.601-0.011-1.365-0.327-1.85-0.699c-0.197-0.151-0.411-0.542-0.608-0.631
			c-0.17-0.077-0.316,0.074-0.48,0.032c-0.182-0.047-0.205-0.203-0.307-0.372c-0.415-0.693-1.213-0.337-1.728,0.136
			c-0.258,0.237-0.249,0.265-0.305,0.578c-0.041,0.229-0.028,0.534-0.282,0.634c-0.529-0.564-0.688-1.326-1.367-1.777
			c-0.242-0.16-0.431-0.22-0.499-0.506c-0.026-0.109,0.037-0.245,0.01-0.352c-0.044-0.176-0.183-0.295-0.272-0.447
			c-0.25-0.004-0.631-0.078-0.866-0.002c-0.172,0.056-0.121,0.079-0.266,0.145c-0.075,0.034-0.072,0.142-0.148,0.172
			c-0.129,0.05-0.558-0.242-0.646-0.334c-0.366-0.38-0.57-0.991-0.893-1.425c-0.399,0.175-0.656,0.529-1.103,0.596
			c-0.094,0.014-0.344,0.033-0.44-0.003c-0.171-0.065-0.249-0.327-0.375-0.377c-0.274-0.108-0.351,0.14-0.585,0.309
			c-0.298,0.215-0.688,0.123-1.091,0.139c-0.027,0.199-0.099,0.552-0.228,0.69c-0.217-0.196-0.404-0.639-0.72-0.485
			c-0.183,0.09-0.194,0.504-0.346,0.627c-0.118,0.095-0.21,0.074-0.363,0.106c-0.306,0.065-1.128,0.232-1.408,0.03
			c-0.338-0.245-0.29-0.875-0.764-1.038c-0.318-0.109-0.626,0.066-0.932-0.143c-0.36-0.247-0.385-0.542-0.873-0.577
			c-0.409-0.029-0.796,0.02-1.186-0.147c-0.374-0.16-0.7-0.414-1.082-0.565c-0.119,0.189-0.201,0.507-0.332,0.669
			c-0.332,0.411-1.036,0.326-1.241,0.745c-0.214,0.438,0.265,1.481-0.566,1.444c-0.664,0.2-0.79,0.216-1.223-0.253
			c-0.329-0.355-0.941-1.207-1.535-1.18c-0.208,0.009-0.313,0.176-0.487,0.25c-0.421,0.177-0.986-0.063-1.356,0.221
			c-0.222,0.17-0.551,0.7-0.397,0.861c0.128,0.133,0.33,0.124,0.482,0.309c0.22,0.268,0.435,0.392,0.719,0.607
			c0.395,0.3,0.541,0.797,0.162,1.191c-0.533,0.555-1.146-0.293-1.799-0.049c-0.334,0.125-0.686,0.544-0.934,0.782
			c-0.267,0.256-0.414,0.415-0.475,0.75c-0.076,0.419,0.093,0.854-0.271,1.042c-0.265,0.138-0.534,0.134-0.809,0.29
			c-0.381,0.217-1.209,0.542-1.602,0.335c-0.259-0.137-0.578-0.704-0.342-0.964c-0.229-0.011-0.456,0.003-0.685,0.003
			c-0.063-0.365,0.177-0.574,0.001-0.926c-0.129-0.257-0.48-0.564-0.795-0.443c-0.285,0.109-0.23,0.51-0.405,0.682
			c-0.417,0.409-0.834,0.016-0.892-0.4c-0.225-0.026-0.451-0.022-0.673-0.079c-0.01-0.28,0.233-0.461,0.253-0.736
			c-0.614-0.222-0.654-0.146-0.659-0.827c-0.17-0.005-0.452,0.068-0.607,0.004c-0.251-0.102-0.131-0.104-0.209-0.296
			c-0.033-0.081,0.026-0.19-0.003-0.275c-0.035-0.105-0.177-0.115-0.215-0.2c-0.129-0.293,0.016-0.377-0.029-0.627
			c-0.079-0.439-0.573-0.663-0.947-0.752c-0.295-0.071-0.735-0.152-1.028-0.029c-0.48,0.202-0.817,0.896-1.263,1.193
			c-0.236-0.415-1.006-1.634-1.386-0.862c-0.16,0.326-0.619,2.35-1.394,1.74c-0.217-0.17-0.495-0.236-0.735-0.356
			c-0.487-0.245-0.794-0.634-1.208-0.955c-0.474-0.367-1.187-0.463-1.753-0.537c-0.192-0.025-0.4-0.122-0.544,0.018
			c-0.251,0.245,0.057,0.53,0.053,0.777c-0.217-0.077-0.361-0.259-0.572-0.345c-0.374,0.321-0.669,0.925-1.33,0.687
			c-0.341-0.122-0.235-0.468-0.249-0.788c-0.359,0.247-0.476,0.376-0.943,0.375c-0.304-0.001-0.523-0.001-0.567,0.387
			c-0.016,0.143,0.072,0.154,0.079,0.276c0.014,0.252-0.042,0.515-0.102,0.761c-0.111,0.458-0.237,0.971-0.441,1.399
			c-0.318-0.156-0.628-0.242-0.995-0.204c-0.502,0.053-0.957-0.119-1.45-0.098c-0.525,0.022-0.93,0.319-1.291,0.671
			c-0.284,0.277-0.316,0.456-0.752,0.453c0.141,0.691-0.058,0.802-0.588,1.23c-0.154-0.208-0.055-0.469-0.12-0.694
			c-0.608,0.186-0.549,0.551-0.596,1.07c-0.06,0.664-0.227,1.215-0.717,1.684c-0.196,0.188-0.248,0.202-0.299,0.45
			c-0.065,0.317,0.061,0.658,0.034,0.975c-0.019,0.224-0.072,0.257-0.135,0.448c-0.1,0.3-0.101,0.609-0.167,0.917
			c-0.1,0.468-0.074,1.531-0.75,0.976c-0.164-0.134-0.212-0.354-0.415-0.458c-0.251-0.129-0.578-0.182-0.837-0.309
			c-0.599-0.294-0.376-0.538-0.606-1.109c-0.26,0.058-0.315-0.09-0.476-0.228c-0.255-0.217-0.281-0.176-0.625-0.266
			c-0.676-0.177-1.525-0.197-2.227,0.031c-0.567,0.184-0.245,0.394-0.374,0.88c-0.118,0.448-0.39,0.229-0.694,0.473
			c-0.289,0.232-0.149,0.372-0.59,0.43c-0.432,0.056-0.717,0.064-0.999-0.24c-0.217-0.234-0.187-0.392-0.492-0.258
			c-0.316,0.138-0.245,0.318-0.663,0.207c-0.672-0.178-0.999-0.697-0.882-1.397c0.047-0.281,0.092-0.285,0.317-0.454
			c0.311-0.233,0.404-0.374,0.508-0.785c0.088-0.349,0.077-0.544,0.356-0.768c0.215-0.173,0.52-0.267,0.771-0.372
			c0.051-0.671-0.579-0.768-0.742-1.273c-0.068-0.21,0.017-0.392,0.047-0.59c0.062-0.412,0.045-0.788-0.06-1.196
			c-0.125-0.484-0.095-0.396,0.09-0.842c0.169-0.407-0.04-0.694-0.125-1.108c-0.108-0.526,0.114-1.339-0.385-1.664
			c-0.802-0.522-1.208,0.37-1.691,0.793c-0.274,0.24-0.421,0.376-0.749,0.237c-0.256-0.108-0.376-0.356-0.608-0.491
			c-0.327-0.192-0.765-0.195-1.129-0.226c-0.349-0.03-0.731,0.095-0.747-0.302c-0.013-0.332,0.41-0.492,0.551-0.737
			c0.262-0.457-0.092-0.592-0.462-0.815c0.053-0.205,0.148-0.4,0.249-0.586c-0.275-0.003-0.423,0.077-0.636,0.146
			c-0.267,0.087-0.201-0.03-0.42-0.147c-0.149-0.08-0.233-0.054-0.4-0.101c-0.247-0.07-0.364-0.202-0.542-0.421
			c-0.541-0.666-0.712-1.564-1.112-2.315c-0.178-0.334-0.506-0.702-0.617-1.06c-0.091-0.292-0.044-0.703-0.06-1.009
			c-0.013-0.261-0.04-0.535-0.104-0.788c-0.125-0.496-0.475-0.442-0.92-0.633c-0.431-0.186-0.645-0.469-0.706-0.931
			c-0.037-0.28,0.069-0.426-0.206-0.601c-0.392-0.25-0.644-0.167-0.787,0.17c-0.159,0.376-0.032,0.529-0.481,0.679
			c-0.389,0.13-0.556,0.035-0.733,0.434c-0.067,0.151-0.047,0.448-0.179,0.563c-0.144,0.125-0.394,0.072-0.586,0.131
			c-0.474,0.145-0.526,0.678-0.63,1.142c-0.056,0.249-0.015,0.609-0.22,0.793c-0.295,0.264-1.306,0.098-1.685,0.067
			c-0.449-0.037-1.012-0.119-1.407,0.152c-0.235,0.161-0.833,0.665-0.92,0.922c-0.051,0.151,0.057,0.326,0.042,0.474
			c-0.02,0.205-0.144,0.367-0.236,0.542c-0.282,0.543-0.308,0.914-0.226,1.547c0.027,0.204,0.203,0.563,0.038,0.747
			c-0.143,0.159-0.478-0.026-0.631,0.011c-0.379,0.091-0.312,0.343-0.312,0.71c0,0.223,0.116,0.952-0.111,1.066
			c-0.134,0.068-0.415-0.098-0.58-0.073c-0.309,0.048-0.403,0.333-0.751,0.256c-0.361-0.08-0.249-0.264-0.616-0.127
			c-0.312,0.116-0.245,0.236-0.596,0.131c-0.566-0.169-1.016-1.005-1.702-0.582c-0.525,0.324-0.418,1.121-1.182,1.241
			c-0.529,0.083-1.407-0.099-1.546-0.644c-0.146-0.573,0.277-0.916,0.279-1.472c0.003-0.672-0.413-0.667-0.699-1.143
			c-0.138-0.231-0.102-0.196,0.039-0.523c0.174-0.404,0.057-0.72,0.205-1.125c0.212-0.579-0.228-1.025-0.725-1.35
			c-0.292-0.191-0.581-0.095-0.92-0.038c-0.509,0.086-0.976,0.095-1.494,0.094c-0.686,0-1.639-0.202-2.245,0.134
			c-0.583,0.323-1.392,1.343-2.093,0.988c-0.083-0.042-0.121-0.17-0.203-0.217c-0.228-0.132-0.417-0.114-0.67-0.112
			c-0.332,0.004-1.337,0.187-1.402-0.239c-0.366-0.01-0.581,0.292-0.9,0.363c-0.316,0.071-0.805,0.014-1.023-0.248
			c-0.156-0.187-0.039-0.245-0.275-0.348c-0.186-0.081-0.567,0.065-0.743,0.112c-0.583,0.156-0.944,0.227-1.127,0.773
			c-0.135,0.404-0.049,0.756-0.13,1.154c-0.055,0.267-0.039,0.234-0.25,0.497c-0.31,0.388-0.573,0.784-0.859,1.184
			c-0.435,0.607-1.017,1.111-1.45,1.713c-0.075,0.104-0.185,0.066-0.306,0.144c-0.295,0.189-0.16,0.116-0.499,0.032
			c-0.514-0.127-0.712-0.19-0.727,0.411c-0.008,0.306,0.162,0.638,0.136,0.915c-0.034,0.354-0.342,0.314-0.528,0.546
			c-0.017,0.021-0.034,0.044-0.049,0.071c0.415,0.506-0.053,0.704-0.402,1.029c-0.159,0.147-0.258,0.368-0.412,0.494
			c-0.245,0.2-0.644,0.28-0.938,0.411c-0.158,0.07-0.315,0.146-0.472,0.224c-0.254,0.126-0.506,0.26-0.754,0.395
			c-0.532,0.29-1.1,0.329-1.708,0.382c-0.537,0.047-1.112,0.066-1.607,0.306c-0.437,0.212-0.295,0.585-0.514,0.939
			c-0.303,0.491-1.037,0.782-1.245,1.342c-0.084,0.225-0.212,1.118,0.191,0.997c0.162,0.501-0.377,1.027-0.552,1.458
			c-0.141,0.347-0.048,0.598-0.032,0.966c0.017,0.392,0.011,0.787-0.248,1.099c-0.202,0.242-0.339,0.334-0.435,0.65
			c-0.1,0.331-0.084,0.471,0.009,0.806c0.119,0.428,0.023,0.523-0.076,0.885c-0.102,0.373,0.096,0.795-0.069,1.168
			c-0.131,0.296-0.458,0.404-0.571,0.71c-0.074,0.201-0.012,0.414-0.074,0.612c-0.083,0.269-0.319,0.499-0.535,0.717
			c-0.09,0.091-0.178,0.18-0.249,0.269c-0.301,0.376-0.711,0.303-1.063,0.522c-0.138,0.087-0.148,0.319-0.343,0.338
			c-0.099,0.009-0.32-0.207-0.397-0.253c-0.064-0.038-0.127-0.082-0.193-0.12c-0.12-0.07-0.249-0.121-0.405-0.084
			c-0.2,0.047-0.247,0.26-0.394,0.316c-0.423,0.161-1.041-0.111-1.481-0.007c-0.434,0.102-0.581,0.452-0.759,0.814
			c-0.33,0.667-0.413,1.505-0.547,2.233c-0.089,0.482-0.138,1.009-0.318,1.469c-0.077,0.198-0.255,0.362-0.298,0.56
			c-0.327,0.009-0.616-0.149-0.978-0.136c-0.485,0.017-0.956,0.151-1.434,0.232c-0.489,0.083-0.536,0.119-0.823,0.507
			c-0.414,0.561-1.035,0.881-1.531,1.36c-0.342,0.331-0.612,0.813-1.042,1.034c-0.38,0.195-0.945,0.231-1.371,0.301
			c-0.178,0.029-0.515,0.003-0.681,0.111c-0.159,0.104-0.191,0.344-0.382,0.441c-0.403,0.206-0.469-0.012-0.736,0.41
			c-0.223,0.352-0.301,0.365-0.736,0.341c-0.436-0.024-0.679-0.195-0.95,0.232c-0.236,0.372-0.276,0.487-0.749,0.295
			c-0.557-0.225-0.927-0.57-1.383-0.925c-0.392-0.305-0.86-0.321-1.321-0.076c-0.415,0.219-0.644,0.758-1.118,0.908
			c-0.261,0.083-0.261,0.006-0.537-0.036c-0.209-0.032-0.36,0.05-0.564,0.088c-0.486,0.09-0.991-0.191-1.385-0.539
			c-0.215-0.19-0.14-0.403-0.259-0.573c-0.15-0.213-0.223-0.179-0.477-0.31c-0.272-0.139-0.401-0.369-0.61-0.559
			c-0.334-0.305-0.809-0.299-1.235-0.423c-0.451-0.131-0.801-0.371-1.222-0.571c-0.314-0.149-0.343-0.171-0.598,0.027
			c-0.187,0.145-0.312,0.409-0.492,0.572c-0.187,0.169-0.376,0.257-0.579,0.398c-0.733,0.511-1.278,1.244-2.001,1.764
			c0.022,0.778-0.146,1.469-0.794,1.899c-1.16,0.77-1.346,2.096-2.104,3.197c-0.122,0.178-0.317,0.313-0.371,0.49
			c-0.07,0.227,0.059,0.472-0.005,0.7c-0.13,0.471-0.655,0.612-0.849,1.035c-0.17,0.37-0.082,0.841-0.099,1.242
			c-0.027,0.627-0.851,0.883-0.851,1.447c0,0.939-0.103,1.824,0.096,2.722c0.083,0.377,0.287,0.791,0.278,1.177
			c-0.005,0.201-0.044,0.515-0.2,0.666c-0.2,0.194-0.38,0.05-0.61,0.134c-0.27,0.099-0.129,0.216-0.197,0.39
			c-0.011,0.027-0.138,0.256-0.135,0.242c-0.049,0.225,0.045,0.494-0.175,0.638c-0.107,0.07-0.352,0.069-0.48,0.057
			c-0.12,0.265-0.16,0.597-0.282,0.842c-0.099,0.199-0.383,0.414-0.53,0.586c-0.174,0.205-0.57,0.489-0.278,0.749
			c-0.111,0.204-0.302,0.1-0.35,0.342c-0.043,0.217,0.278,0.59,0.343,0.781c0.154,0.451,0.119,0.462-0.229,0.804
			c-0.205,0.202-0.257,0.284-0.179,0.595c0.079,0.315,0.024,0.63-0.005,0.948c-0.128,0.01-0.262,0.003-0.391,0.008
			c-0.053,0.245,0.089,0.873,0.223,1.105C9.101,111.514,9.216,111.604,9.447,111.66z"/>
	</g>
</g>
<g id="Layer_1">
</g>
</svg>
