<?xml version="1.0" encoding="utf-8"?>
<!-- Generator: Adobe Illustrator 26.0.3, SVG Export Plug-In . SVG Version: 6.00 Build 0)  -->
<svg version="1.1" xmlns="http://www.w3.org/2000/svg" xmlns:xlink="http://www.w3.org/1999/xlink" x="0px" y="0px"
	 viewBox="0 0 200 200" enable-background="new 0 0 200 200" xml:space="preserve">
<g id="Layer_1">
	<g id="Layer_1_00000061442898653323928190000005571608892069918396_">
		<g id="Layer_1_00000098929087308412571940000004538787532203942811_">
		</g>
	</g>
</g>
<g id="Isolation_Mode">
	<path fill="#1E8346" d="M186.42,102.53c-0.172-0.275-0.448-0.397-0.75-0.503c-0.505-0.178-1.074-0.264-1.614-0.272
		c-0.518-0.007-0.913-0.055-1.277-0.439c-0.23-0.243-0.451-0.507-0.666-0.765c-0.071-0.086-0.128-0.203-0.233-0.249
		c-0.256-0.111-0.436,0.112-0.679,0.118c-0.367,0.009-0.594-0.545-0.729-0.861c-0.25,0.139-0.408,0.344-0.627,0.512
		c-0.516-0.268-0.679-1.237-1.403-0.665c-0.2-0.191-0.202-0.514-0.344-0.739c-0.192-0.305-0.413-0.601-0.549-0.896
		c-0.111-0.241-0.112-0.542-0.125-0.801c-0.024-0.46,0.062-0.886-0.513-0.935c-0.213-0.018-0.48-0.075-0.685-0.019
		c-0.121,0.032-0.176,0.114-0.266,0.161c-0.253,0.129-0.402,0.114-0.533-0.167c-0.117,0.082-0.314,0.192-0.465,0.127
		c-0.163-0.07-0.148-0.278-0.263-0.38c-0.105-0.093-0.295-0.064-0.415-0.134c-0.147-0.087-0.289-0.287-0.413-0.41
		c-0.317-0.315-0.473-0.682-0.737-1.02c-0.322-0.413-0.792-0.463-0.779-1.071c0.012-0.562-0.904-0.565-1.043-1.098
		c-0.17-0.651,0.48-1.19,0.085-1.826c-0.192-0.308-0.552-0.57-0.401-0.91c0.146-0.329,0.289-0.578,0.034-0.924
		c-0.364-0.496-0.789-0.747-0.852-1.395c-0.051-0.521-0.267-1.032-0.538-1.481c-0.073-0.121-0.107-0.202-0.229-0.275
		c-0.191-0.114-0.337-0.051-0.32-0.296c0.016-0.238,0.292-0.306,0.157-0.563c-0.098-0.186-0.332-0.301-0.437-0.487
		c-0.172-0.305,0.007-0.466,0.055-0.785c-0.153-0.046-0.321-0.059-0.48-0.068c0.038-0.275,0.161-0.46,0.058-0.722
		c-0.087-0.223-0.256-0.391-0.374-0.592c-0.104-0.179-0.145-0.381,0.069-0.515c0.176-0.11,0.486-0.017,0.549-0.278
		c-0.237-0.09-0.558-0.084-0.78-0.221c-0.092-0.057-0.12-0.149-0.199-0.198c-0.103-0.065-0.242-0.083-0.356-0.132
		c-0.201-0.085-0.236-0.337-0.42-0.457c-0.154-0.1-0.351-0.087-0.558-0.087c-0.136,0.001-0.392,0.029-0.502-0.069
		c-0.184-0.163-0.085-0.316-0.37-0.418c-0.262-0.094-0.318-0.043-0.472-0.269c-0.09-0.133-0.23-0.238-0.294-0.391
		c-0.065-0.154-0.063-0.259-0.168-0.398c-0.108-0.143-0.286-0.278-0.283-0.478c0.004-0.277,0.073-1.04-0.386-1.019
		c-0.136,0.006-0.133,0.087-0.221,0.168c-0.093,0.084-0.175,0.091-0.292,0.098c-0.392,0.026-0.462-0.237-0.626-0.529
		c-0.142-0.252-0.325-0.59-0.538-0.786c-0.211-0.195-0.643-0.254-0.929-0.299c-0.286-0.045-0.785-0.22-0.943-0.508
		c-0.156-0.285,0.171-0.533,0.295-0.755c-0.257-0.384-1.063-0.134-1.413-0.377c-0.145-0.101-0.253-0.256-0.403-0.357
		c-0.13-0.088-0.368-0.301-0.525-0.289c-0.409,0.032-0.467,0.609-0.785,0.745c-0.218,0.093-0.377-0.017-0.569,0.146
		c-0.142,0.12-0.213,0.29-0.416,0.304c-0.315,0.022-0.436-0.418-0.507-0.651c-0.046-0.15-0.04-0.257-0.204-0.3
		c-0.146-0.038-0.323,0.019-0.474,0.001c-0.305-0.037-0.356-0.299-0.535-0.506c-0.152-0.176-0.244-0.35-0.31-0.569l-10.338-8.96
		c0-0.314,0.063-0.65,0.011-0.958c-0.052-0.306-0.424-0.652-0.161-0.913c0.11-0.108,0.246-0.142,0.186-0.307
		c-0.079-0.216-0.314-0.122-0.449-0.247c-0.126-0.118-0.058-0.381-0.066-0.532c-0.008-0.15-0.011-0.169-0.135-0.237
		c-0.138-0.076-0.259-0.124-0.384-0.228c-0.232-0.192-0.045-0.354-0.127-0.602c-0.049-0.149-0.223-0.313-0.308-0.448
		c-0.087-0.138-0.182-0.315-0.231-0.471c-0.055-0.174-0.054-0.265-0.193-0.41c-0.168-0.176-0.448-0.263-0.656-0.395
		c-0.524-0.333-1.246-0.443-1.599-0.952c-0.209-0.302-0.216-0.9-0.596-0.974c-0.615-0.119-1.308,0.024-1.935-0.044
		c-0.411-0.044-0.872-0.128-1.213-0.379c-0.178-0.131-0.287-0.222-0.54-0.257c-0.283-0.039-0.451-0.001-0.683-0.181
		c-0.369-0.286-0.758-0.373-1.217-0.222c-0.24,0.079-0.51,0.278-0.772,0.29c-0.179,0.008-0.328-0.182-0.515-0.174
		c-0.124,0.005-0.241,0.082-0.345,0.139c-0.23,0.126-0.539,0.444-0.801,0.321c-0.243-0.114-0.489-0.703-0.594-0.932
		c-0.112-0.243-0.158-0.499-0.295-0.731c-0.144-0.244-0.367-0.39-0.568-0.601c-0.148-0.156-0.232-0.342-0.48-0.347
		c-0.508-0.01-0.63,0.916-1.213,0.523c-0.462-0.311-0.095-0.806-0.167-1.243c-0.219-0.049-0.556-0.029-0.671-0.264
		c-0.068-0.139,0.022-0.366,0.032-0.504c0.021-0.282,0.001-0.421-0.254-0.558c-0.335-0.18-0.506-0.172-0.563-0.583
		c-0.034-0.249-0.011-0.432-0.219-0.602c-0.126-0.103-0.275-0.151-0.377-0.289c-0.085-0.116-0.087-0.259-0.15-0.379
		c-0.144-0.274-0.342-0.323-0.633-0.211c-0.445,0.172-0.447,0.705-0.584,1.113c-0.118,0.349-0.584,0.408-0.653,0.696
		c-0.068,0.283,0.192,0.413-0.139,0.566c-0.203,0.094-0.336,0.039-0.519-0.061c-0.222-0.121-0.405-0.275-0.578-0.458
		c-0.126-0.132-0.261-0.36-0.465-0.337c-0.143,0.016-0.246,0.259-0.392,0.161c-0.076-0.051-0.082-0.307-0.134-0.393
		c-0.114-0.187-0.201-0.171-0.412-0.223c-0.229-0.056-0.408-0.147-0.566-0.328c-0.185-0.212-0.316-0.47-0.458-0.71
		c-0.202-0.042-0.378-0.155-0.577-0.2c-0.242-0.055-0.508-0.014-0.757-0.051c-0.322-0.047-0.796,0.039-0.973-0.283
		c-0.066-0.12-0.13-0.223-0.215-0.331c-0.061-0.078-0.152-0.17-0.182-0.266c-0.076-0.239-0.028-0.55-0.014-0.795
		c0.018-0.322,0.016-0.563-0.223-0.797c-0.213-0.209-0.639-0.046-0.787-0.336c-0.136-0.268,0.144-0.275,0.28-0.442
		c0.081-0.098,0.055-0.189-0.019-0.292c-0.145-0.2-0.409-0.29-0.521-0.532c0.135-0.179,0.177-0.364-0.005-0.519
		c-0.157-0.135-0.329,0.015-0.506,0.04c-0.218,0.03-0.32-0.025-0.472-0.195c-0.068-0.076-0.119-0.177-0.205-0.23
		c-0.085-0.052-0.208-0.069-0.3-0.115c-0.161-0.082-0.201-0.104-0.122-0.273c0.055-0.118,0.12-0.231,0.17-0.351
		c0.128-0.309,0.113-0.702,0.113-1.035c-0.107-0.146-0.244-0.374-0.287-0.545c-0.131-0.075-0.271-0.174-0.371-0.284
		c-0.073-0.081-0.292-0.304-0.289-0.399c0.008-0.202,0.252-0.265,0.197-0.497c-0.01-0.042-0.084-0.202-0.125-0.223
		c-0.025-0.013-0.101,0.016-0.126,0.009c-0.165-0.042-0.315-0.144-0.394-0.31c-0.067-0.14-0.013-0.355-0.158-0.449
		c-0.175,0.195-0.347,0.181-0.603,0.229c-0.096,0.018-0.21,0.073-0.304,0.017c-0.138-0.083-0.186-0.319-0.293-0.436
		c-0.051,0.068-0.43,0.045-0.517-0.02c-0.058-0.044-0.105-0.146-0.139-0.207c-0.089-0.156-0.125-0.304-0.072-0.478
		c0.066-0.217,0.243-0.384,0.305-0.601c0.059-0.205-0.042-0.307-0.158-0.477c-0.113-0.164-0.215-0.264-0.408-0.319
		c-0.191-0.055-0.36-0.104-0.52-0.232c-0.115-0.093-0.123-0.125-0.256-0.155c-0.109-0.025-0.209-0.005-0.318,0
		c-0.182,0.009-0.332,0.035-0.442-0.117c-0.174-0.24-0.047-0.505-0.144-0.742c-0.09-0.219-0.036-0.094-0.216-0.185
		c-0.149-0.076-0.277-0.034-0.397-0.212c-0.118-0.175-0.104-0.46-0.152-0.658c-0.341-0.005-0.494,0.01-0.726-0.262
		c-0.183-0.215-0.328-0.465-0.499-0.689c-0.26-0.341-0.504-0.7-0.656-1.1c-0.099-0.261-0.176-0.542-0.312-0.787
		c-0.296,0.099-0.593,0.569-0.848,0.765c-0.357-0.31-0.722-0.416-1.124-0.092c-0.394,0.318-0.782,0.792-0.657,1.317
		c0.105,0.443,0.604,0.977,0.293,1.405c-0.15,0.207-0.476,0.302-0.576,0.563c-0.084,0.221,0.036,0.534-0.061,0.777
		c-0.147-0.023-0.375,0.014-0.502-0.07c-0.077-0.051-0.082-0.21-0.175-0.245c-0.226-0.084-0.472,0.385-0.761,0.361
		c-0.103-0.133-0.2-0.298-0.346-0.39c-0.253,0.262-0.235,0.608-0.266,0.948c-0.042,0.455-0.057,0.425-0.417,0.517
		c-0.575,0.147-0.2,0.813-0.968,0.594c0.066,0.168,0.333,0.449,0.203,0.637c-0.09,0.13-0.934,0.053-1.138,0.085
		c-0.465,0.075-0.549,0.16-0.675,0.589c-0.083,0.284-0.186,0.634-0.507,0.636c-0.511,0.003-0.763-0.34-1.127,0.201
		c-0.152,0.227-0.284,0.692-0.505,0.86c-0.291,0.221-0.817-0.112-1.17-0.011c-0.235,0.067-0.442,0.356-0.594,0.551
		c-0.423-0.095-0.766-0.483-1.183-0.524c-0.421-0.041-0.729,0.219-0.81-0.312c-0.111-0.73,0.083-1.441-0.099-2.183
		c-0.061-0.248-0.169-0.447-0.169-0.715c0.001-0.253,0.073-0.477,0.031-0.728c-0.058-0.345-0.151-0.567-0.116-0.924
		c0.026-0.27,0.132-0.547,0.117-0.822c-0.03-0.549-0.199-1.005,0.033-1.551c0.1-0.234,0.219-0.451,0.312-0.684
		c0.041-0.1,0.201-0.297,0.202-0.39c0.002-0.191-0.346-0.614-0.439-0.789c-0.19-0.359-0.239-0.632-0.336-1.018
		c-0.045-0.18-0.141-0.309-0.209-0.476c-0.056-0.139-0.066-0.35-0.152-0.475c-0.25-0.364-0.8-0.354-1.139-0.548
		c-0.429-0.244-0.32-0.605-0.32-1.039c-0.218-0.14-0.428-0.168-0.637,0.013c-0.109,0.095-0.213,0.274-0.382,0.179
		c-0.263-0.146-0.122-0.709-0.416-0.816c-0.204-0.074-0.459,0.135-0.586,0.26c-0.097-0.262-0.045-0.551-0.15-0.811
		c-0.078-0.193-0.215-0.289-0.393-0.394c-0.116-0.068-0.234-0.084-0.262-0.235c-0.042-0.225,0.201-0.366,0.293-0.541
		c0.174-0.33-0.179-0.219-0.363-0.414c-0.164-0.173-0.253-0.388-0.383-0.586c-0.077-0.118-0.144-0.216-0.158-0.358
		c-0.014-0.146,0.044-0.332-0.004-0.471c-0.078-0.228-0.407-0.256-0.486-0.489c-0.096-0.286,0.272-0.345,0.393-0.553
		c-0.068-0.215-0.477-0.266-0.66-0.286c-0.253-0.027-0.504-0.059-0.754-0.093c-0.241-0.033-0.379-0.259-0.497-0.469
		c-0.12-0.214,0.061-0.23,0.024-0.432c-0.022-0.12-0.102-0.192-0.213-0.215c-0.16-0.035-0.308,0.019-0.414,0.132
		c-0.075,0.08-0.142,0.251-0.274,0.159c-0.185-0.128-0.089-0.585-0.148-0.776c-0.121-0.392-0.451-0.077-0.719-0.127
		c-0.028-0.042-0.014-0.045-0.016-0.099c-0.005-0.158,0.066-0.305,0.062-0.454c-0.002-0.1-0.093-0.237-0.135-0.327
		c-0.061-0.13-0.085-0.262-0.134-0.392c-0.036-0.094,0.055-0.072-0.065-0.128c-0.068-0.032-0.144,0-0.208,0.017
		c-0.203,0.051-0.405,0.07-0.614,0.113c-0.153,0.032-0.362,0.085-0.509,0.008c-0.11-0.058-0.212-0.255-0.285-0.355
		c-0.106-0.145-0.242-0.273-0.333-0.428c-0.079-0.133-0.12-0.275-0.247-0.378c0.012,0.244-0.678,0.238-0.835,0.111
		c-0.224-0.181-0.368-0.623-0.505-0.883c-0.151-0.287-0.461-0.587-0.458-0.917c0.001-0.152,0.027-0.279-0.012-0.43
		c-0.025-0.093-0.09-0.155-0.113-0.239c-0.215-0.047-0.415-0.039-0.623-0.117c-0.134-0.05-0.299-0.063-0.422-0.136
		c-0.313-0.186-0.166-0.376-0.04-0.597c0.167-0.294,0.078-0.441-0.114-0.689c-0.118-0.153-0.294-0.501-0.516-0.413
		c-0.217,0.087-0.34,0.356-0.575,0.397c-0.322,0.057-0.373-0.11-0.484-0.353c-0.084-0.185-0.103-0.375-0.171-0.565
		c-0.032-0.093-0.041-0.174-0.111-0.257c-0.123-0.146-0.289-0.171-0.487-0.159c-0.151,0.01-0.312-0.039-0.461-0.065
		c-0.133-0.024-0.32-0.023-0.431-0.109c-0.156-0.121-0.154-0.401-0.099-0.585c0.07-0.232,0.305-0.322,0.353-0.555
		c0.049-0.238,0.006-0.388-0.195-0.52c-0.062,0.063-0.183,0.189-0.27,0.211c-0.151,0.039-0.168-0.062-0.259-0.13
		c-0.189-0.142-0.485-0.4-0.551-0.649c-0.033-0.124,0.024-0.298-0.125-0.342c-0.136-0.041-0.378,0.109-0.507,0.149
		c-0.163,0.05-0.758,0.296-0.835,0.07c-0.05-0.145,0.178-0.4,0.255-0.507c0.104-0.144,0.221-0.157,0.193-0.375
		c-0.023-0.182-0.127-0.373-0.316-0.378c-0.193-0.004-0.294,0.204-0.476,0.103c-0.16-0.089-0.364-0.39-0.232-0.566
		c0.102-0.136,0.334-0.172,0.447-0.291c-0.144-0.237-0.455-0.224-0.561-0.503c-0.026-0.069-0.005-0.135-0.069-0.193
		c-0.076-0.069-0.229-0.063-0.326-0.09c-0.247-0.069-0.443-0.191-0.259-0.436c0.086-0.115,0.213-0.199,0.314-0.299
		c-0.122-0.293-0.665-0.403-0.898-0.29c-0.09,0.044-0.247,0.027-0.359,0.086c-0.049,0.025-0.163,0.159-0.201,0.168
		c-0.135,0.031-0.386-0.461-0.408-0.568c-0.038-0.19-0.026-0.305-0.242-0.366c-0.104-0.029-0.206-0.021-0.31-0.061
		c-0.138-0.054-0.278-0.147-0.408-0.219c-0.165-0.092-0.341-0.191-0.473-0.329c-0.084-0.088-0.119-0.153-0.255-0.167
		c-0.246-0.025-0.335,0.333-0.536,0.108c-0.297-0.334-0.224-0.885-0.262-1.308c-0.526,0.22-0.554-0.549-0.809-0.772
		c-0.096-0.084-0.162-0.039-0.277-0.064c-0.144-0.031-0.124-0.113-0.199-0.223c-0.088-0.131-0.146-0.133-0.291-0.16
		c-0.085-0.016-0.283-0.035-0.289-0.148c-0.274-0.112-0.522-0.071-0.784,0.038c-0.08,0.033-0.127,0.064-0.213,0.049
		c-0.157-0.028-0.144-0.174-0.229-0.233c-0.167-0.116-0.499,0.147-0.577,0.269c-0.113,0.176-0.083,0.436-0.335,0.477
		c-0.241,0.04-0.323-0.134-0.431-0.297c-0.081-0.122-0.114-0.145-0.266-0.152C61.672,2.932,61.49,3.02,61.293,3.1
		c-0.172,0.07-0.342,0.069-0.525,0.042c-0.358-0.051-0.678-0.33-1-0.487c-0.322-0.157-0.798-0.181-1.127-0.019
		c-0.297,0.146-0.387,0.522-0.755,0.554c-0.215,0.019-0.647-0.016-0.698-0.247c-0.049-0.222,0.018-0.394-0.289-0.278
		c-0.195,0.074-0.433,0.251-0.552,0.421c-0.013,0.278-0.025,0.556-0.029,0.834c-0.301-0.055-0.509-0.28-0.789-0.338
		c0.1,0.385,0.49,0.733,0.226,1.138c-0.27,0.414-0.545-0.162-0.875,0.276c-0.537,0.713-1.295,1.828-0.996,2.76
		c0.058,0.18,0.298,0.457,0.262,0.655c-0.027,0.154-0.302,0.356-0.413,0.452c-0.256,0.222-0.593,0.326-0.82,0.582
		c-0.25,0.283-0.093,0.459-0.216,0.744c-0.158,0.366-0.933,0.242-1.253,0.234c-0.288-0.008-0.474,0.006-0.591-0.293
		c-0.077-0.197,0.088-0.392-0.218-0.462c-0.167,0.336-0.333,0.992-0.841,0.708c-0.448-0.25-0.461-1.059-0.963-1.21
		c-0.285,0.363-0.6,1.083-1.214,1.028c-0.26-0.023-0.3-0.391-0.509-0.386c-0.083,0.002-0.351,0.359-0.405,0.413
		c-0.25,0.254-0.929,1.177-1.172,0.488c-0.079-0.225,0.184-0.604-0.001-0.751c-0.043-0.034-0.325-0.012-0.389-0.018
		c-0.256-0.022-0.558,0.002-0.809-0.045c-0.343-0.063-0.316-0.322-0.568-0.438c-0.15-0.069-0.566-0.07-0.711,0.038
		c-0.172,0.127-0.114,0.376-0.233,0.532c-0.109,0.143-0.405,0.247-0.577,0.252c-0.523,0.016-1.213-0.52-1.52-0.903
		c-0.412-0.514-0.11-1.015-0.091-1.61c0.011-0.342-0.018-0.349-0.327-0.444c-0.345-0.106-0.667-0.174-0.945-0.416
		c-0.293-0.257-0.317-0.687-0.7-0.719c-0.953-0.082-0.838,0.939-0.508,1.556c0.224,0.419,0.602,0.755,0.624,1.257
		c0.023,0.518-0.221,0.994-0.406,1.457c-0.205,0.512-0.109,1.072-0.353,1.568c-0.241,0.488-0.563,0.956-1.002,1.281
		c-1.169,0.864-2.787,1.341-3.372,2.713c-0.131,0.308,0.22,0.55-0.086,0.799c-0.27,0.22-1.11-0.069-1.275,0.184
		c-0.125,0.192,0.175,0.486,0.105,0.691c-0.076,0.222-0.616,0.551-0.816,0.489c0.051-0.197-0.036-0.4-0.158-0.551
		c-0.408,0.267-0.685,0.72-0.902,1.15c-0.08,0.158-0.275,0.417-0.287,0.593c-0.017,0.24,0.213,0.482,0.277,0.702
		c0.143,0.493-0.527,0.648-0.397,1.231c0.078,0.348,0.351,0.341,0.642,0.499c0.378,0.204,0.429,0.337,0.589,0.719
		c0.263,0.625,0.361,1.074,0.394,1.745c0.012,0.248,0.051,0.451,0.179,0.657c0.201,0.322,0.487,0.498,0.503,0.923
		c0.181,0.218,0.126,0.451,0.186,0.704c0.041,0.177,0.192,0.312,0.234,0.484c0.069,0.288-0.101,0.634-0.102,0.927
		c-0.001,0.229-0.045,0.784,0.157,0.944c0.074,0.059,0.226,0.025,0.306,0.013c0.127-0.019,0.194-0.095,0.294-0.124
		c0.118-0.034,0.156-0.081,0.175,0.12c0.027,0.273-0.225,0.28-0.322,0.457c-0.054,0.099-0.009,0.287-0.016,0.397
		c-0.009,0.14-0.05,0.23-0.116,0.346c-0.14,0.244-0.181,0.388-0.172,0.661c0.008,0.242-0.169,0.439-0.116,0.666
		c0.057,0.241,0.364,0.256,0.103,0.52c-0.153,0.155-0.27,0.304-0.227,0.538c0.026,0.143,0.09,0.228,0.082,0.378
		c-0.009,0.166-0.06,0.371,0.083,0.497c0.138,0.12,0.322,0.066,0.481,0.052c0.215-0.02,0.335-0.014,0.334,0.24
		c-0.001,0.204-0.14,0.515-0.226,0.702c-0.241,0-0.78-0.068-0.654,0.366c0.088,0.302,0.365,0.264,0.608,0.324
		c0.164,0.04,0.263,0.159,0.409,0.228c0.125,0.06,0.275,0.074,0.412,0.07c0.129-0.004,0.378-0.06,0.487,0.01
		c0.105,0.069,0.053,0.225,0.152,0.298c0.087,0.065,0.271-0.023,0.354-0.068c0.128-0.07,0.118-0.125,0.239-0.03
		c0.198,0.155,0.155,0.575,0.076,0.791c-0.049,0.136-0.12,0.158-0.132,0.31c-0.019,0.244,0.04,0.49,0.027,0.737
		c-0.255-0.151-0.397-0.436-0.527-0.692c-0.077-0.151-0.186-0.408-0.337-0.49c-0.117-0.063-0.269-0.025-0.391-0.056
		c-0.116-0.03-0.19-0.12-0.285-0.204c-0.169-0.149-0.115-0.151-0.408-0.137c-0.183,0.009-0.328-0.015-0.489,0.022
		c-0.155,0.035-0.354-0.022-0.511-0.033c-0.511-0.034-0.981-0.223-1.493-0.269c-0.181-0.016-0.332,0-0.495,0.076
		c-0.167,0.079-0.261,0.169-0.361,0.312c-0.07,0.1-0.133,0.286-0.146,0.407c-0.023,0.199,0.106,0.219,0.273,0.179
		c0.127-0.03,0.175-0.132,0.272-0.179c0.135-0.066,0.372,0.012,0.496,0.061c0.005,0.114-0.071,0.179-0.157,0.247
		c-0.127,0.099-0.19,0.119-0.206,0.297c-0.015,0.174,0.01,0.27,0.161,0.356c0.096,0.055,0.276,0.094,0.287,0.229
		c0.015,0.182-0.247,0.082-0.306,0.231c-0.037,0.092-0.004,0.302,0.001,0.402c0.008,0.156,0.016,0.332,0.075,0.478
		c0.019,0.048,0.016,0.112,0.03,0.166c0.031,0.114,0.095,0.196,0.149,0.298c0.102,0.193,0.037,0.289-0.113,0.405
		c-0.141,0.108-0.195,0.339-0.07,0.48c0.171,0.195,0.365,0.213,0.607,0.219c-0.028,0.108-0.123,0.289-0.238,0.316
		c-0.097,0.024-0.202-0.057-0.287-0.088c-0.322-0.12-0.317,0.093-0.318,0.354c0,0.104-0.032,0.273,0.06,0.346
		c0.095,0.075,0.284,0.089,0.394,0.138c0.12,0.053,0.315,0.179,0.178,0.312c-0.127,0.124-0.326,0.085-0.417,0.277
		c-0.067,0.141-0.071,0.372-0.247,0.188c-0.1-0.105-0.202-0.301-0.358-0.335c-0.113-0.024-0.167,0.124-0.245,0.174
		c-0.205,0.133-0.155,0.289-0.148,0.505c0.003,0.098,0.015,0.244-0.114,0.277c-0.085,0.022-0.145-0.077-0.226-0.072
		c-0.148,0.01-0.196,0.234-0.208,0.355c-0.02,0.207-0.007,0.393,0.117,0.558c0.141,0.188,0.44,0.321,0.302,0.574
		c-0.102,0.187-0.255,0.257-0.32,0.474c-0.074,0.248-0.129,0.592,0.178,0.714c0.137-0.114,0.254-0.262,0.419-0.339
		c0.079,0.097,0.119,0.216,0.184,0.322c0.086-0.119,0.195-0.621,0.381-0.617c0.074,0.001,0.132,0.13,0.179,0.171
		c0.136,0.116,0.288,0.136,0.451,0.183c0.318,0.092,0.539,0.383,0.875,0.419c0.333,0.036,0.712-0.053,0.973-0.259
		c-0.029,0.257-0.395,0.46-0.602,0.559c-0.272,0.129-0.447,0.031-0.702-0.079c-0.149-0.065-0.424-0.231-0.491-0.013
		c-0.093,0.301,0.323,0.408,0.417,0.606c0.104,0.219-0.032,0.423,0.25,0.576c0.161,0.087,0.342,0.152,0.513,0.229
		c0.198,0.089,0.312,0.169,0.451,0.334c0.071,0.084,0.333,0.312,0.168,0.421c-0.058,0.038-0.209-0.02-0.272-0.027
		c-0.13-0.015-0.262-0.018-0.392-0.029c-0.314-0.027-0.44-0.199-0.663-0.384c-0.208-0.172-0.299-0.026-0.517-0.051
		c0.008-0.183,0.026-0.393-0.086-0.542c-0.05-0.066-0.175-0.177-0.261-0.192c-0.075-0.013-0.058,0.036-0.114,0.039
		c-0.403,0.028-0.309-0.461-0.495-0.707c-0.119-0.156-0.18-0.118-0.266,0.031c-0.068,0.117-0.185,0.292-0.134,0.434
		c0.057,0.16,0.566,0.526,0.07,0.53c-0.173,0.001-0.371-0.024-0.537,0.025c0.259,0.428-0.001,0.769-0.293,1.077
		c-0.401,0.424-0.565,0.796-1.179,0.898c-0.458,0.076-0.572,0.36-0.819,0.728c-0.25,0.373-0.622,0.858-0.728,1.302
		c-0.183,0.76,0.621,1.456,0.185,2.133c-0.345,0.535-1.259,0.808-1.799,1.109c-0.297,0.166-0.61,0.381-0.828,0.644
		c-0.179,0.216-0.418,0.852-0.527,1.074c-0.816,1.658,1.769,1.885,2.421,3.002c0.326,0.558,0.525,1.084,0.508,1.739
		c-0.014,0.543-0.153,1.04-0.231,1.57c-0.159,1.087-0.477,2.084-0.909,3.096c-0.152,0.357-0.395,0.741-0.484,1.113
		c-0.09,0.378,0.024,0.763-0.104,1.139c-0.132,0.389-0.379,0.713-0.505,1.112c-0.102,0.32-0.159,0.748-0.319,1.034
		c-0.41,0.732-0.966,0.781-1.715,0.898c-0.738,0.115-1.387,0.259-2.012,0.674c-0.372,0.247-0.639,0.587-0.622,1.032
		c0.016,0.411,0.005,0.906,0.268,1.248c0.25,0.325,0.548,0.486,0.718,0.869c0.114,0.259,0.222,0.505,0.286,0.783
		c0.171,0.739,0.494,1.396,0.7,2.121c0.182,0.644-0.05,1.159-0.144,1.771c-0.065,0.419-0.302,0.772-0.376,1.176
		c-0.077,0.419-0.046,0.968,0.129,1.351c0.132,0.288,0.298,0.547,0.333,0.866c0.029,0.261-0.009,0.526,0.023,0.787
		c0.04,0.335,0.282,0.631,0.401,0.966c0.119,0.335,0.286,0.667,0.446,0.986c0.212,0.423,0.496,0.72,0.573,1.197
		c0.065,0.406,0.065,0.81,0.065,1.225c0,0.667-0.029,1.356-0.297,1.972c-0.296,0.681-1.356,0.819-1.357,1.566
		c0,0.848-0.422,1.446-0.99,2.025c-0.637,0.65-0.784,1.197-0.793,2.135c-0.008,0.857,0.081,1.711,0.436,2.497
		c0.278,0.616,0.62,1.188,0.847,1.826c0.407,1.145,0.643,2.254,0.587,3.48c-0.051,1.118-0.369,2.363-0.129,3.481
		c0.2,0.934,0.713,1.404,0.709,2.448c-0.002,0.475-0.064,0.954-0.032,1.43c0.026,0.386,0.17,0.759,0.213,1.144
		c0.038,0.332,0.009,0.665,0.026,1c0.047,0.912,0.044,1.812,0.025,2.726c-0.008,0.364-0.031,0.744-0.114,1.1
		c-0.081,0.349-0.227,0.676-0.113,1.038c0.332,0.02,0.65-0.446,0.831-0.68c0.357-0.464,0.25-1.133,0.268-1.676
		c0.169,0.176,0.206,0.436,0.349,0.632c0.004-0.426-0.019-0.84-0.061-1.264c0.092,0.068,0.187,0.135,0.29,0.174
		c0.086-0.475-0.82-1.144-0.351-1.654c0.149,0.125,0.34,0.209,0.476,0.344c0.18,0.18,0.265,0.446,0.429,0.64
		c0.019-0.005,0.036-0.014,0.05-0.027c-0.019-0.25,0.092-0.477,0.216-0.69c1.176,0.445-1.309,3.551-1.227,4.16
		c0.699-0.015-0.178,0.748-0.318,0.94c-0.311,0.427-0.536,0.804-0.934,1.166c-0.421,0.383-0.83,0.809-1.326,1.097
		c-0.286,0.166-0.604,0.206-0.931,0.262c-0.434,0.074-0.936,0.174-1.37,0.023c-0.244-0.085-0.46-0.345-0.732-0.271
		c-0.165,0.045-0.267,0.236-0.404,0.327c-0.316,0.212-0.635,0.117-0.974,0.022c-0.475-0.133-0.733-0.017-1.194,0.161
		c-0.428,0.165-0.899,0.658-0.951,1.143c-0.035,0.324,0.105,0.647,0.116,0.971c0.011,0.334,0.066,0.632-0.087,0.929
		c-0.164,0.317,0.021,0.997,0.058,1.364c0.054,0.538,0.058,1.068,0.058,1.613c0,0.649,0.073,1.516-0.203,2.113
		c-0.197,0.426-0.9,0.736-1.275,0.973c-0.296,0.187-0.458,0.267-0.545,0.604c-0.074,0.288-0.137,0.683-0.094,0.983
		c0.067,0.465,0.466,0.8,0.871,0.411c0.011,0.51-0.666,0.718-0.607,1.263c0.051,0.471,0.59,0.595,0.513,1.114
		c-0.031,0.21-0.134,0.418-0.251,0.595c-0.192,0.293-0.248,0.115-0.515,0.219c-0.276,0.107-0.467,0.686-0.506,0.942
		c-0.044,0.298-0.114,1.087,0.045,1.333c0.005,1.343,0.273,2.633,0.216,3.979c-0.041,0.975-0.737,1.774-0.491,2.767
		c0.102,0.415,0.47,0.639,0.582,1.013c0.114,0.379-0.017,0.964-0.046,1.354c-0.062,0.82-0.42,1.957-0.054,2.728
		c0.159,0.335,0.454,0.517,0.447,0.916c-0.005,0.278-0.181,0.496-0.273,0.739c-0.15,0.398-0.179,0.844,0.021,1.248
		c0.223,0.449,0.647,0.83,0.896,1.261c0.177,0.307,0.239,0.585,0.576,0.809c0.453,0.302,0.922,0.399,1.342,0.778
		c0.47,0.424,0.73,0.837,1.093,1.33c0.233,0.316,0.388,0.65,0.608,0.986c0.232,0.355,0.573,0.616,0.899,0.871
		c0.354,0.277,0.567,0.681,0.777,1.072c0.121,0.226,0.286,0.529,0.327,0.785c0.036,0.223-0.026,0.433,0.041,0.649
		c0.045,0.144,0.185,0.26,0.219,0.391c0.044,0.174-0.032,0.4-0.034,0.578c-0.329,0.093,0.09,0.836,0.167,1.034
		c0.772,0.201,1.669,0.107,2.435,0.234c0.749,0.124,1.739,0.475,2.199,1.104c0.218,0.299,0.242,0.618,0.278,0.983
		c0.012,0.12-0.002,0.344,0.075,0.447c0.146,0.197,0.507,0.09,0.704,0.242c0.082,0.063,0.107,0.188,0.179,0.26
		c0.189,0.188,0.467,0.225,0.717,0.333c0.286,0.124,0.462,0.274,0.671,0.504c0.37,0.406,0.685,0.858,1.049,1.266
		c0.341,0.382,0.527,0.713,0.741,1.168c0.313,0.666,0.921,1.082,1.222,1.74c0.202,0.443,0.208,0.909,0.208,1.387
		c0,0.282-0.062,0.656-0.003,0.93c0.038,0.178,0.154,0.359,0.305,0.478c0.394,0.312,1.048,0.494,1.499,0.734
		c-0.14,0.236-0.467,0.411-0.322,0.73c0.434,0.273,1.163,0.246,1.594,0.059c0.216-0.094,0.332-0.257,0.588-0.262
		c0.218-0.004,0.303,0.177,0.47,0.19c0.18,0.014,0.514-0.317,0.711-0.393c0.423-0.163,0.911,0.025,1.333-0.144
		c0.922-0.37,1.798-0.852,2.712-1.247c0.465-0.201,0.845-0.271,1.344-0.196c0.347,0.052,0.88,0.188,1.108,0.476
		c0.192,0.241,0.068,0.8,0.376,0.882c0.288,0.077,1.043-0.452,1.261-0.598c0.448-0.301,0.946-0.677,1.52-0.652
		c0.226,0.01,0.443,0.061,0.614,0.203c0.144,0.12,0.152,0.249,0.342,0.293c0.213,0.05,0.449-0.144,0.633-0.207
		c0.272-0.094,0.654-0.25,0.941-0.307c0.233-0.046,0.602-0.074,0.791,0.035c0.268,0.155,0.422,0.511,0.723,0.624
		c0.663,0.248,1.47-0.152,2.127-0.235c0.752-0.096,1.59-0.114,2.333-0.005c0.268,0.039,0.431,0.106,0.67,0.215
		c0.364,0.167,0.734,0.17,1.126,0.222c0.504,0.067,1.011,0.382,1.359,0.758c0.51,0.55,0.727,1.426,1.16,2.013
		c0.588,0.796,1.565,0.79,2.255,1.427c0.75,0.693,1.446,1.435,2.161,2.154c0.406,0.409,0.997,0.731,1.284,1.217
		c0.137,0.232,0.145,0.549,0.334,0.759c0.24,0.265,0.75,0.422,1.077,0.57c0.236,0.107,0.478,0.203,0.715,0.307
		c0.431,0.189,0.679,0.457,1.066,0.628c0.378,0.167,0.858,0.166,1.259,0.238c0.723,0.13,1.433,0.316,2.156,0.472
		c0.275,0.274,1.136,0.343,1.565,0.49c0.516,0.176,1.016,0.336,1.519,0.553c0.568,0.246,1.072,0.576,1.589,0.914
		c0.628,0.41,1.004,0.237,1.692,0.001c0.957-0.328,1.773-0.171,2.632,0.265c0.352,0.179,0.623,0.278,1.017,0.312
		c0.533,0.046,0.891-0.102,1.205,0.345c0.201,0.286,0.277,0.444-0.038,0.65c-0.061,0.039-0.277,0.019-0.367,0.058
		c-0.294,0.127-0.466,0.322-0.671,0.562c-0.304,0.356-1.057,0.9-0.449,1.23c0.355,0.193,0.605,0.088,0.911,0.425
		c0.296,0.327,0.341,0.531,0.812,0.646c0.49,0.119,0.62-0.013,0.854,0.457c0.157,0.315,0.2,0.606,0.52,0.827
		c0.468,0.325,0.425-0.027,0.837-0.121c0.475-0.108,0.828,0.528,1.255,0.398c0.504-0.154,0.088-0.801,0.478-1.129
		c0.406-0.34,1.287-0.104,1.446,0.407c0.171,0.55-0.5,0.484-0.417,1.013c0.413,0.218,0.87,0.026,1.241,0.313
		c0.161,0.125,0.17,0.387,0.401,0.395c0.204,0.007,0.368-0.363,0.493-0.466c0.76-0.621,1.848-0.698,2.792-0.714
		c0.376-0.007,0.784-0.093,1.101-0.301c0.251-0.164,0.451-0.452,0.648-0.677c0.358-0.409,0.795-0.735,1.25-1.066
		c0.467-0.339,0.981-0.624,1.478-0.923c0.636-0.383,1.282-0.859,1.967-1.112c0.645-0.238,1.333-0.458,1.947-0.776
		c0.266-0.138,0.477-0.305,0.769-0.376c0.691-0.167,0.704,0.481,1.219,0.473c0.892-0.013,1.902-1.111,2.778-0.571
		c0.385,0.237,0.376,0.568,0.913,0.505c0.501-0.059,0.962-0.452,1.503-0.306c0.237,0.064,0.371,0.318,0.568,0.394
		c0.277,0.107,0.589-0.022,0.871,0.08c0.254,0.093,0.395,0.277,0.654,0.352c0.331,0.095,0.793,0.042,1.135,0.041
		c0.888-0.001,1.734-0.045,2.614-0.13c0.314-0.03,1.296-0.222,1.16,0.389c0.778,0.026,1.358,0.097,1.947,0.609
		c0.244,0.212,0.54,0.445,0.695,0.726c0.125,0.227,0.089,0.499,0.19,0.712c0.128,0.268,0.507,0.304,0.631,0.518
		c0.139,0.239-0.091,0.635,0.044,0.886c0.121,0.224,0.449,0.234,0.604,0.385c0.201,0.196,0.078,0.456,0.542,0.386
		c0.663-0.101,1.411-0.289,1.979-0.525c0.742-0.307,1.408-0.407,2.24-0.478c0.518-0.045,1.013-0.082,1.532-0.085
		c0.523-0.003,0.72,0.136,1.037,0.541c0.245,0.314,0.338,0.708,0.747,0.854c0.474,0.168,0.967-0.053,1.41,0.178
		c0.394,0.206,0.987,0.745,1.147,1.168c0.178,0.468-0.467,0.814-0.197,1.249c0.675-0.261,1.252-0.983,1.867-1.379
		c0.807-0.519,1.642-1.002,2.482-1.47c0.984-0.548,1.979-1.031,2.981-1.509c1.062-0.507,1.915-1.32,3.118-1.51
		c0.038,0.2,0.013,0.405-0.041,0.602c1.721-1.483,3.684-2.447,5.723-3.459c1.153-0.571,2.209-1.262,3.338-1.868
		c0.753-0.405,1.553-0.684,2.321-1.037c0.746-0.343,0.352-0.523,0.006-1.013c-0.333-0.473-0.376-1.177-0.798-1.57
		c-0.142,0.36-0.145,0.727-0.216,1.087c-0.262-0.013-0.816-0.336-0.935-0.58c-0.134-0.277-0.004-0.256,0.054-0.494
		c0.049-0.2,0.103-0.526,0.169-0.724c0.269,0.163,0.48-0.113,0.659-0.293c0.41-0.411,0.399-0.273,0.97-0.342
		c0.441-0.053,0.521-0.184,0.622-0.656c0.037-0.171-0.03-0.449,0.085-0.594c0.13-0.164,0.583-0.183,0.769-0.366
		c1.071,0.357,0.281,1.087,0.093,1.684c-0.19,0.603-0.039,1.335,0.103,1.966c0.087,0.387,0.225,0.835,0.651,0.932
		c0.328,0.075,0.719-0.164,1.113-0.207c0.293-0.032,0.669-0.088,0.95-0.002c0.241,0.073,0.31,0.297,0.603,0.281
		c0.239-0.54-0.197-1.272,0.125-1.853c0.133-0.239,0.392-0.409,0.549-0.634c0.24-0.344,0.32-0.764,0.526-1.12
		c0.254-0.438,0.733-0.742,1.149-1.041c0.682-0.491,1.274-1.169,2.043-1.521c0.548-0.251,1.239-0.56,1.698-0.893
		c0.521-0.378,1.066-0.802,1.557-1.231c0.477-0.417,0.946-0.875,1.507-1.18c0.669-0.364,1.428-0.447,1.979-0.991
		c0.215-0.212,0.338-0.45,0.61-0.557c0.284-0.112,0.54,0.042,0.749-0.236c0.198-0.262,0.146-0.645,0.306-0.926
		c0.236-0.417,0.448-0.391,0.058-0.773c-0.36-0.352-0.82-0.397-0.936-0.93c-0.116-0.534,0.146-1.061,0.386-1.513
		c0.705-1.326,1.627-2.317,2.568-3.471c0.485-0.593,0.822-1.24,1.375-1.778c0.45-0.438,0.832-0.939,1.27-1.39
		c0.519-0.535,1.077-1.069,1.623-1.576c0.483-0.449,1.123-0.545,1.258-1.26c0.227-1.206-0.023-2.481,0.523-3.64
		c0.108-0.229,0.316-0.345,0.478-0.535c0.231-0.27,0.174-0.578,0.174-0.921c0-0.673,0.057-1.237,0.349-1.852
		c0.298-0.629,0.727-1.15,1.113-1.722c0.209-0.31,0.376-0.653,0.596-0.955c0.267-0.366,0.597-0.691,0.882-1.044
		c0.48-0.596,1.053-1.093,1.554-1.669l-1.713,0.029c-0.012-0.198-0.225-0.361-0.288-0.557c-0.075-0.232-0.084-0.528-0.086-0.775
		c-0.007-0.71-0.287-0.834-1.018-0.872c-0.388-0.02-0.774,0.039-1.161,0.058c-0.206,0.01-0.583,0.105-0.78,0.007
		c-0.339-0.17-0.08-0.44-0.005-0.712c0.085-0.309-0.145-0.404-0.212-0.687c-0.102-0.434,0.159-0.729,0.191-1.115
		c0.026-0.317-0.235-0.468-0.35-0.712c-0.4-0.848-0.04-2.021-0.15-2.942c-0.072-0.601-0.489-0.589-0.84-1.043
		c-0.414-0.536-0.673-1.272-0.811-1.943c-0.144-0.7-0.194-1.343-0.186-2.06c0.004-0.388,0.012-0.765,0.199-1.11
		c0.105-0.192,0.394-0.405,0.344-0.639c-0.017-0.077-0.228-0.136-0.278-0.218c-0.098-0.157-0.131-0.355-0.192-0.531
		c-0.058-0.167-0.135-0.291-0.163-0.472c-0.056-0.361,0.004-0.723,0.143-1.042c0.162-0.373,0.329-0.556,0.338-0.975
		c0.013-0.612-0.288-0.6-0.753-0.905c-1.007-0.662-1.861-1.558-1.857-2.799c0.004-1.124,0.672-0.936,1.479-0.617
		c-0.165-0.345-0.295-0.642-0.477-0.969c-0.192-0.345-0.487-0.789-0.411-1.205c0.109-0.598,0.644-0.753,1.051-1.089
		c0.331-0.273,0.162-0.396,0.063-0.76c-0.068-0.251-0.158-0.613-0.093-0.876c0.201-0.81,1.045,0.083,1.258,0.418
		c0.002-0.42,0.078-0.977,0.337-1.319c0.28-0.371,0.755-0.504,1.078-0.798c0.204-0.186,0.197-0.501,0.293-0.753
		c0.075-0.195,0.152-0.267,0.298-0.43c0.289-0.321,0.265-0.563,0.391-0.934c0.117-0.345,0.563-0.481,0.891-0.545
		c0.709-0.139,1.426-0.254,2.143-0.318c0.521-0.047,1.045-0.05,1.567-0.064c0.277-0.007,0.747,0.072,0.963-0.148
		c-0.215-0.068-0.436-0.02-0.652-0.083c-0.225-0.066-0.512-0.214-0.711-0.317c0.469-0.585,2.145-0.606,1.23-1.651
		c0.846-0.2,1.309-0.655,1.534-1.5c0.158-0.593-0.282-1.082-0.285-1.695c-0.001-0.209,0.059-0.399,0.059-0.605
		c0-0.159-0.04-0.321-0.023-0.484c0.05-0.489,0.379-0.552,0.818-0.701c0.477-0.162,0.669-0.525,1.009-0.879
		c0.358-0.374,0.875-0.414,1.326-0.629c0.312-0.148,0.495-0.272,0.522-0.635c0.035-0.467-0.098-0.924-0.087-1.389
		C186.239,103.024,186.595,102.81,186.42,102.53z"/>
</g>
<g id="c">
</g>
</svg>
