<?xml version="1.0" encoding="utf-8"?>
<!-- Generator: Adobe Illustrator 26.0.3, SVG Export Plug-In . SVG Version: 6.00 Build 0)  -->
<svg version="1.1" id="Isolation_Mode" xmlns="http://www.w3.org/2000/svg" xmlns:xlink="http://www.w3.org/1999/xlink" x="0px"
	 y="0px" viewBox="0 0 200 200" enable-background="new 0 0 200 200" xml:space="preserve">
<g>
	<path fill="#1E8346" d="M195.65,72.332c-0.942-4.313,0.402-8.792,0.349-13.019c-0.242-0.256-0.737,0.05-0.936-0.164
		c-0.399-0.43,0.238-1.278,0.363-1.652c0.385-2.845,1.262-7.882-1.49-9.651c-1.165-0.412-1.555,0.193-2.074-1.015
		c-0.362,0.373-0.937,0.757-0.276,1.158c-1.092,0.432-2.203-0.449-3.295-0.496c-0.686-0.66-0.767-1.838-1.15-2.702
		c-0.221-0.644,0.323-1.256,0.554-1.846c0.063-1.219-0.311-2.885-1.044-3.909c-0.553-1.003,0.98-1.196,1.023-2.089
		c-0.2-0.921,0.578-1.441,0.496-2.333c-0.984-1.761,0.309-1.472,0.601-3.031c-0.472-0.5-0.498-1.202-0.473-1.834
		c-0.243-0.715-0.948-1.227-1.071-2.012c-0.639,0.816-1.798,0.851-2.731,0.723c-1.094,5.526-4.381,11.128-8.977,14.573
		c-0.324,0.089-0.48-0.241-0.776-0.203c-0.467,0.329-1.048,0.301-1.601,0.402c-0.994,0.455-1.275,1.693-2.128,2.307
		c-1.246,1.753-4.802,2.569-3.926,5.184c-0.972,0.399-2.098,0.584-3.155,0.52c0.035-0.754,0.24-1.489,0.093-2.241
		c0.368-0.035,0.6-0.171,0.542-0.558c-1.883,0.72-2.011,3.58-3.33,4.987c-1.142,0.653-1.216,1.935-2.178,2.786
		c-0.991,1.645-3.54,2.511-3.285,4.562c-0.485,0.022-0.68-0.248-1.116,0.261c0.146-1.197-0.599-1.605-1.498-2.218
		c0.198,0.67,0,1.468,0.749,1.846c0.196,0.139,0.234,0.023,0.241,0.304c-0.029,0.73-0.985,0.407-1.175-0.026
		c-0.368,0.486,0.299,1.894-0.548,2.274c-0.077-0.115-0.103-0.085-0.213-0.12c-1.033,2.6-2.748,5.341-4.972,7.121
		c-1.166,0.94-1.779,3.432-3.448,3.124c-0.569,0.132-0.081,0.812-0.293,1.164c-4.408,1.5-7.39,5.81-11.757,6.762
		c-0.003,0.412-0.348,0.867-0.153,1.254c0.857,0.102,1.21,2.011,0.156,2.014c0.048-0.844-0.17-1.471-1.061-1.607
		c-0.176-0.227,0.505-0.755-0.03-0.858c-0.861,0.536-0.806,2.273-1.877,2.787c-0.445,0.454-0.947,0.886-1.216,1.489
		c0.219,0.13,0.684,0.147,0.923,0.137c0.098,0.229,0.149,0.731,0.012,0.936c-0.277,0.207-0.389,0.418-0.073,0.644
		c-0.286,0.243-0.802,0.343-0.69,0.853c0.296,0.048,0.647-0.422,0.899-0.308c0.304,0.28,0.009,1.071-0.418,1.05
		c-0.244-0.003-0.753,0.02-0.824,0.325c0.215,0.068,0.475-0.019,0.699,0.035c-0.124,0.868-1.173,0.676-1.66,1.136
		c-0.642,0.936,0.627,0.744,1.122,0.475c-0.001,0.598,0.048,1.45-0.449,1.892c-0.489,0.206-0.738,0.494-0.503,1.02
		c-0.094,1.847-2.734,1.208-3.913,0.982c-0.686-0.731-1.312-1.691-1.371-2.685c-0.375-0.415-1.401,0.784-1.561,1.047
		c-0.254,0.589-1.179,0.69-1.428,1.214c1.004,0.597,2.404,0.507,3.148,1.599c1.328,0.057,2.688,0.296,4.061,0.24
		c-0.748,2.587-2.256,0.031-3.704,0.412c0.2,0.316,0.593,0.444,0.792,0.746c-0.191,0.108-0.519,0.088-0.731,0.079
		c0.05,0.697-0.203,0.565-0.748,0.648c0.035,0.165,0.122,0.305,0.2,0.452c-0.424,0.046-0.81-0.437-1.135-0.641
		c-0.365-0.172-0.753-0.367-0.713-0.811c-1.099-0.279-0.306-0.841,0.366-0.415c0.311,0.176,0.666,0.983,0.968,0.403
		c0.338-0.747-1.14-1.677-1.576-0.959c-0.262,0.063-0.397-0.268-0.465-0.444c-0.245-0.574-0.915-0.698-1.344-1.105
		c-0.852-1.124-0.591-0.127-0.697,0.59c-0.526,0.564-0.886,1.722-1.789,1.6c-1.284,0.169-0.304,0.723,0.452,0.586
		c1.408,0.752,3.211,2.327,4.852,1.97c0.865,0.483,0.586,2.64-0.186,0.849c-1.253-0.548-2.846-0.648-3.888-1.646
		c-0.314-0.265-0.674-0.603-1.117-0.58c-0.159,0.891,0.122,1.366,1.085,1.367c1.052,0.34,1.971,1.083,3.024,1.408
		c1.476,0.132,0.74,1.336,0.311,2.185c-0.204,0.302-0.594,0.286-0.683,0.701c-0.868,0.639-1.578,0.813,0.071,0.85
		c-0.148,0.436-1.131,0.527-1.144,1.079c0.006,0.249,0.167,0.248-0.15,0.378c-0.423,0.173-0.957,0.429-1.416,0.292
		c-0.403-0.3-0.684-0.609-1.205-0.326c0.174,0.645-0.167,1.012-0.817,0.867c0.012-0.065-0.006-0.141-0.001-0.206
		c-0.977-0.36-1.959,0.611-2.94-0.064c-1.308-0.513-2.665-1.672-3.16-2.985c-0.021-0.222,0.048-0.587-0.3-0.398
		c-1.231,1.074-2.59,1.364-0.599,2.815c0.475,0.177,1.154,0.272,0.962,0.973c-0.464-0.119-0.706-0.618-1.241-0.517
		c-0.243,0.595,0.521,1.036,0.837,1.366c0.292,0.993,0.954,0.807,1.783,0.74c-0.275,0.798-1.542,0.89-1.979,1.627
		c-0.689,0.841-1.881,0.555-2.812,0.624c-0.165-0.462-0.699-0.4-1.11-0.381c-0.11,0.43,1.941,1.287,0.466,1.199
		c-0.939-0.298-2.435,0.362-2.486,1.397c-0.601,0.437-1.429,0.719-2.155,0.915c0.155-0.684-0.646-1.599-0.621-0.464
		c0.159,1.603-2.683,0.463-3.582,1.232c-0.62,0.675-1.201-0.071-1.894-0.095c-0.919,0.218-1.725,0.198-2.496-0.383
		c-1.053,1.294-3.317,0.898-4.832,0.898c-0.562-0.104-0.601-0.699-0.904-1.09c-0.607-0.457-1.382-0.946-2.095-1.246
		c-0.402-0.118-1.17,0.203-1.465-0.133c-0.718,0.021-0.781-0.858-1.447-0.943c-0.654,0.238-1.134,0.891-1.962,0.643
		c-0.786-0.081-1.526,0.619-2.243,0.108c-0.239-0.182-0.214-0.251-0.377,0.061c-0.566,1.324-1.774,1.023-2.816,0.519
		c-1.489,0.123-1.16-1.873-2.188-2.364c-0.238-0.013-0.572,0.101-0.632-0.213c-0.404-0.47-1.052-0.5-1.627-0.471
		c-0.453,0.443,0.064,0.932-0.262,1.32c-0.77,0.141-1.44,0.041-2.173,0.506c-0.486,0.177-1.273,0.515-1.323-0.242
		c-0.801-0.413-1.816-0.553-2.497-1.131c-0.569,0.414-1.623,1.408-2.237,0.517c-1-0.356-2.638,1.265-3.31,0.248
		c-0.118-0.354-0.312-0.252-0.59-0.114c-0.978,0.463-2.394,0.618-3.147-0.258c-0.736,0.16-1.515-0.089-2.299-0.096
		c-0.686,0.17-1.017-0.247-1.432-0.69c-0.65,0.372-0.595-1.121-1.117-1.195c-0.953-0.744-2.305,0.212-2.43,1.242
		c0.031,0.336,0.262,1.004,0.097,1.309c-1.105,0.691-2.361,1.133-3.608,1.44c-0.848,0.47-0.672,1.784-1.799,1.878
		c-3.004,0.531-4.703,3.831-7.841,3.49c-0.642,1.856-5.2-0.545-5.012,1.035c-1.128-0.105-2.307-0.633-2.996-1.58
		c-0.425,0.509-1.666,0.098-2.293,0.051c-0.246-0.289-0.456-0.515-0.867-0.366c-0.513,0.002-0.969,0.229-0.747,0.816
		c-5.876,0.52-5.395-3.275-6.228-7.652c-0.003-1.208,0.961-2.312,0.425-3.481c0.422-1.206,0.09-2.089-1.264-2.247
		c-0.408,0.315-0.558,1.039-1.067,1.261c-0.307,0.349,0.13,1.083,0.104,1.5c0.044,0.628-0.762,0.523-1.083,0.268
		c-0.178-0.831-0.255-2.168-0.961-2.769c-0.371,0.503,0.088,0.986,0.003,1.499c-0.176,1.534-1.553,2.283-1.371,0.191
		c0.006-0.636-0.492-1.196-0.194-1.927c-0.005-0.459,0.086-0.924,0.169-1.347c-0.069-0.282-0.378-0.311-0.368-0.671
		c0.374-1.092-0.74-0.74-0.982-1.527c-0.641-0.743-0.837,0.538-0.289,0.896c-0.038,0.624-0.024,1.126,0.22,1.746
		c-0.202,1.35-0.373,6.335-0.28,7.861l39.144,51.022l100.825,13.147l2.98-3.139l0.612-3.7l-0.435-2.594
		c0.381-0.867,0.105-2.591-0.145-3.463c0,0,0.097-4.011,0.097-4.011c0.284-0.451,0.734-1.149,0.462-1.705
		c-0.296-0.751,0.23-1.564,0.429-2.279c1.761-2.808,4.967-8.733,6.422-11.728l0.515,0.408c0.695-0.416,1.129-2.336,1.31-3.05
		c1.189-1.767,3.67-5.506,4.854-7.303c-0.018-0.716,0.11-3.947-0.236-4.554l-1.267-1.16c0.027-1.252,0.103-4.446-0.516-5.563
		c-0.695-0.491-1.097-1.86-1.246-2.642c3.089-1.53,7.902-4.975,11.491-4.704l0.859,1.375l1.353,0.43
		c1.302-1.116,5.559-1.958,7.21-2.273c-0.289-1.236-1.563-3.508-2.292-4.546l0.451-0.451l-0.322-1.45l-0.483,0.032l0.096-0.387
		l-3.673,0.354c-0.564,0.313-1.127,0.52-1.792,0.264c-0.616-0.358-1.023-0.991-1.83-0.941c-0.343-0.034-0.449-0.02-0.533-0.342
		c-0.442-1.344,1.609-1.038,1.732-2.327c0.198-0.696,0.887-1.003,1.326-1.485c0,0,0-3.512,0-3.512h-0.226
		c0.118-1.004-1.941-4.29-2.401-5.155c0,0,0-1.901,0-1.901l1.998-1.949l-0.902-0.886l1.616-1.439l-0.15-4.832
		c-0.68-0.508-0.636-4.952-0.725-5.713l1.482-2.32h2.416l1.901-1.723l1.777,0.435l1.504,1.095l-0.086,0.945l0.752-0.064
		c-0.275,0.608-0.864,2.026-0.687,2.706l0.687,0.73l-3.2-1.052l-0.021,0.773l4.06,5.842l1.31,0.215l3.372-2.019l0.279-2.921
		c0.775-0.089,2.252-0.486,2.878-0.967v-0.43c1.477,0.11,2.214-1.003,2.749-2.19l-1.037-1.681l2.11-0.403
		C195.639,74.723,195.758,73.035,195.65,72.332z"/>
	<path fill="#1E8346" d="M45.239,104.007c-0.545,1.258,0.955,1.921,1.288,3.007c0.805,0.061,0.809-0.545,0.844-1.118
		c0.47-0.356,1.28-0.189,1.41-0.959c0.703-1.585-0.366-4.109-2.259-2.782C45.453,101.774,45.336,103.257,45.239,104.007z"/>
	<path fill="#1E8346" d="M9.878,105.048c0.54,1.241,0.291-1.378-0.224-1.158C9.577,104.29,9.76,104.672,9.878,105.048z"/>
	<path fill="#1E8346" d="M6.316,99.982c-0.876-0.467-0.904-0.552-1.345,0.355c0.187,0.267,0.444-0.181,0.699-0.076
		c0.126,0.006,0.225,0.215,0.345,0.141c0.049-0.061-0.082-0.147-0.048-0.203c0.119-0.055,0.405,0.363,0.382-0.018
		C6.346,100.121,6.356,100.033,6.316,99.982z"/>
	<path fill="#1E8346" d="M23.535,108.77c0.731-0.052,1.181-1.684,0.41-1.885C23.354,106.892,22.909,108.626,23.535,108.77z"/>
	<path fill="#1E8346" d="M23.338,110.406c-0.046-0.361,0.314-1.6-0.288-1.427C22.961,109.333,22.67,110.731,23.338,110.406z"/>
	<path fill="#1E8346" d="M40.704,113.171c0.052,0.087,0.104,0.181,0.169,0.257c0.159-0.378,0.19-1.034-0.392-0.743
		c-0.016,0.034-0.012,0.072-0.01,0.104C40.567,112.89,40.633,113.051,40.704,113.171z"/>
	<path fill="#1E8346" d="M66.04,103.246c-0.625,0.058,0.043,0.86,0.425,0.88C66.863,104.131,66.713,102.757,66.04,103.246z"/>
	<path fill="#1E8346" d="M70.238,105.034c0.135,0.401,0.534,0.265,0.831,0.427c0.267,0.085-0.036-0.478-0.073-0.605
		C71.021,104.432,69.774,104.346,70.238,105.034z"/>
	<path fill="#1E8346" d="M71.869,105.745c1.771,2,1.338-1.914,3.464,0.306c0.111,0.178,0.325,0.648,0.57,0.359
		c0.191-0.295-0.226-0.612-0.087-0.93c0.042-0.428,0.407-0.866,0.409-1.245c-0.806-0.042-1.601-0.044-2.335,0.373
		C73.293,104.765,70.93,104.791,71.869,105.745z"/>
	<path fill="#1E8346" d="M73.607,111.971c-0.254-0.01-0.348,0.114-0.564,0.303c-0.156,0.798,0.666,0.814,1.216,0.861
		C74.313,112.731,74.039,112.119,73.607,111.971z"/>
	<path fill="#1E8346" d="M78.345,109.44c0.352,0.178,0.923,0.038,1.269-0.113c-0.016-0.178-0.096-0.934-0.275-0.991
		c-0.49,0-1.272-0.045-1.521,0.492C77.973,109.035,78.146,109.267,78.345,109.44z"/>
	<path fill="#1E8346" d="M83.916,109.494c0.423,0.69,0.352-0.084,0.17-0.402C83.843,109.135,83.649,109.304,83.916,109.494z"/>
	<path fill="#1E8346" d="M88.203,111.333c1.028-0.508,1.711-0.619,2.593,0.237c0.778,0.739,1.838,0.463,2.695,0.971
		c0.15-0.338,0.305-0.507,0.714-0.405c1.445,0.31,1.198-1.207,1.848-1.949c0.234-0.152,0.557,0.263,0.709,0.393
		c0.631,0.426,0.803,0.818-0.124,0.714c0.567,0.445,1.23,0.6,1.89,0.792c-0.053-0.181-0.229-0.302-0.303-0.467
		c0.946,0.307,3.159,0.73,2.39-0.926c0.192-0.442,0.655-0.554,0.136-1.02c-0.813-1.735-3.379-0.373-3.981-2.483
		c-0.377-0.315-0.133-0.871,0.343-0.634c0.097,0.031,0.284,0.079,0.233-0.081c-0.999-0.8-1.234-0.089-1.908,0.524
		c0.558,1.361-0.838,1.028-0.776,1.903c0.919,1.141-0.172,0.998-0.462,0.075c-0.476-0.717,1.427-1.544,0.658-1.826
		c-0.647,0.062-1.18,1.028-1.891,0.626c-1.378-0.884-2.459,0.806-3.382,1.605C88.687,109.801,86.293,110.19,88.203,111.333z"/>
	<path fill="#1E8346" d="M103.361,110.306c1.011,0.595,2.162,0.672,1.866-0.828c0.457,0.904,0.952,0.578,0.717-0.254
		c-0.251-0.127-1.746-0.622-0.913-0.036c-0.556,0.405-0.953-0.184-1.473,0.008C102.971,109.358,102.594,110.176,103.361,110.306z"/>
	<path fill="#1E8346" d="M105.544,108.538c0.343,0.347,0.832,0.568,0.865,1.093c0.328-0.012,0.997-0.175,1.203-0.423
		c-0.352-0.626-1.333-0.573-1.574-1.291C105.585,107.958,104.805,107.981,105.544,108.538z"/>
	<path fill="#1E8346" d="M109.375,104.696c0.729,0.185,0.909,0.985,1.319,1.518c0.538,0.741,1.184,0.083,1.811,0.006
		c0.562,0.06,1.081,0.359,1.635,0.371c-0.124-0.598,0.23-0.953,0.471-1.404c-1.034-0.624-1.249-1.864-1.872-2.811
		c-0.344-0.365-0.797-0.449-0.871-1.024c1.171-3.289-0.866-0.024-1.978,0.495c3.511,0.361,2.037,0.478,3.535,3.317
		c-0.286-0.35-0.554-0.699-1.022-0.78c-0.522-0.514-0.724-1.652-1.562-1.79C110.07,102.742,107.986,104.104,109.375,104.696z"/>
	<path fill="#1E8346" d="M113.706,102.17c-0.108,0.686,0.194,1.294,0.605,1.886c0.123,0.199,0.212,0.326,0.346,0.102
		c0.284-0.529,0.436-1.253,1.136-1.376c0.117-0.039,0.346-0.066,0.302-0.225c-0.796-0.504-1.249-1.931-2.22-1.867
		c-0.23,0.319-0.031,1.444-0.635,0.934c-0.105,0.01-0.147,0.027-0.183,0.044C113.11,101.952,113.563,101.967,113.706,102.17z"/>
	<path fill="#1E8346" d="M115.547,96.769c0.248-0.117,0.915-0.729,0.719-1.051C115.885,95.779,115.252,96.371,115.547,96.769z"/>
	<path fill="#1E8346" d="M113.772,98.53c0.182-0.161,0.246-0.428,0.002-0.592C113.598,98.219,113.422,99.017,113.772,98.53z"/>
	<path fill="#1E8346" d="M123.162,94.18c-0.134,0.121-0.315,0.256-0.43,0.397C122.343,95.519,123.981,94.537,123.162,94.18z"/>
	<path fill="#1E8346" d="M124.463,93.595c1.261-0.343-1.24-0.63-1.598-0.607C122.887,93.497,123.979,93.613,124.463,93.595z"/>
	<path fill="#1E8346" d="M126.116,89.498c-0.804,0.201-0.754,1.068-0.579,1.737c0.228-0.332,0.846-0.363,0.934-0.738
		C126.468,90.361,126.337,89.504,126.116,89.498z"/>
	<path fill="#1E8346" d="M123.308,91.431c0.282-0.064,0.766,0.133,0.896-0.197c0.082-0.344,0.072-1.077-0.482-0.93
		c-0.677,0.069-0.862,0.913-1.491,1.19C122.588,91.509,122.949,91.443,123.308,91.431z"/>
	<path fill="#1E8346" d="M124.7,89.935c0.34-0.017,0.417-0.351,0.618-0.566c0.23-0.43,0.929-0.397,1.141-0.772
		C126.191,87.871,123.805,89.971,124.7,89.935z"/>
	<path fill="#1E8346" d="M137.769,77.22c0.494-0.266,0.961-0.671,0.007-0.732C137.698,76.714,137.665,77.001,137.769,77.22z"/>
	<path fill="#1E8346" d="M139.947,74.595c0.282,0.205,0.216-0.538,0.258-0.738c-0.099-0.49,0.649-0.534,0.85-0.875
		C140.492,72.527,139.391,74.003,139.947,74.595z"/>
	<path fill="#1E8346" d="M141.505,74.875c0.612,0.823,0.04-1.346-0.313-0.53C141.241,74.584,141.395,74.687,141.505,74.875z"/>
	<path fill="#1E8346" d="M143.638,72.827c-0.047,0.109-0.189,0.159-0.212,0.267c0.242,0.062,1.019-0.452,0.553-0.606
		C143.84,72.573,143.734,72.696,143.638,72.827z"/>
	<path fill="#1E8346" d="M146.651,69.54c0.157-0.125,0.317-0.093,0.502-0.076c0.12-0.147,0.021-0.438-0.123-0.58
		C146.51,68.749,145.772,69.658,146.651,69.54z"/>
	<path fill="#1E8346" d="M110.469,64.751c0.906,1.447,1.94-0.791,0.681-1.236C110.273,63.661,109.801,63.911,110.469,64.751z"/>
	<path fill="#1E8346" d="M164.516,50.862c0.184,0.28,0.322,0.032,0.299-0.191c0.057-0.224,0.04-0.295-0.194-0.191
		C164.549,50.604,164.335,50.751,164.516,50.862z"/>
	<path fill="#1E8346" d="M165.281,48.661c0.882-0.343,1.198-0.213,0.433,0.529c-0.209,1.395,1.936-1.336,1.828-1.832
		c-0.616-0.154-1.417-0.133-1.862,0.386C165.483,47.957,164.55,49.007,165.281,48.661z"/>
	<path fill="#1E8346" d="M35.527,97.478c0.171,0.651-0.296,1.502,0.011,2.108c0.273,0.205,0.238-0.451,0.25-0.574
		c-0.183-1.152,0.659-1.974,0.995-2.907c-0.198-0.777-1.26-2.215-1.894-1.055c-0.324,0.148-0.535,0.749-0.346,1.06
		C34.672,96.754,35.409,96.931,35.527,97.478z"/>
	<path fill="#1E8346" d="M65.31,79.8c0.091,0.399,0.353,0.726,0.634,1.007c0.073-0.898,1.11-2.122-0.659-1.846
		C65.306,79.239,65.264,79.528,65.31,79.8z"/>
	<path fill="#1E8346" d="M56.923,77.626c0.053,0.082,0.05,0.188,0.084,0.265c0.393-0.217-0.044-0.65-0.287-0.785
		C56.617,77.317,56.879,77.428,56.923,77.626z"/>
	<path fill="#1E8346" d="M45.461,83.894c0.343,0.311,0.276-0.605,0.135-0.684c-0.107,0.106-0.253,0.215-0.413,0.208
		C44.944,83.617,45.287,83.818,45.461,83.894z"/>
	<path fill="#1E8346" d="M57.677,68.058c0.032,0.076,0.059,0.22,0.13,0.271c0.324-0.195,0.507-1.02-0.031-1.06
		C57.427,67.365,57.698,67.795,57.677,68.058z"/>
	<path fill="#1E8346" d="M12.573,92.843c0.496-0.328-0.142-1.321-0.489-0.846C12.142,92.357,11.873,93.152,12.573,92.843z"/>
	<path fill="#1E8346" d="M142.727,36.884c1.969,1.249,1.156-3.106-0.216-1.072C141.73,35.965,142.213,36.7,142.727,36.884z"/>
	<path fill="#1E8346" d="M153.704,19.834c0.965,0.003,0.867-1.155,0.139-1.535C153.255,18.817,152.361,19.574,153.704,19.834z"/>
</g>
</svg>
