<?xml version="1.0" encoding="utf-8"?>
<!-- Generator: Adobe Illustrator 26.0.3, SVG Export Plug-In . SVG Version: 6.00 Build 0)  -->
<svg version="1.1" xmlns="http://www.w3.org/2000/svg" xmlns:xlink="http://www.w3.org/1999/xlink" x="0px" y="0px"
	 viewBox="0 0 200 200" enable-background="new 0 0 200 200" xml:space="preserve">
<g id="Layer_1">
	<g id="Layer_1_00000128480095285341338950000008464522443776971395_">
	</g>
</g>
<g id="Isolation_Mode">
	<path fill="#1E8346" d="M18.399,138.256c0.504,0.097,1.118,0.226,1.51,0.58c0.382,0.346,0.493,0.547,1.049,0.631
		c0.604,0.091,0.925,0.585,1.142,1.138c0.205,0.523,0.226,1.222,0.316,1.782c0.071,0.438,0.056,0.88,0.125,1.317
		c0.079,0.503,0.183,1.131,0.054,1.633c-0.093,0.359-0.546,0.582-0.563,0.899c-0.026,0.48,0.085,0.671,0.073,1.174L9.121,162.227
		l20.981,8.363c2.607,0,5.062-0.242,7.657-0.39c3.15-0.179,6.331-0.777,9.462-0.292c1.433,0.222,2.72,0.567,4.023,1.165
		c0.249,0.114,1.002,0.701,1.225,0.687c0.315-0.021,0.496-0.564,0.666-0.826c0.536-0.827,1.233-0.901,2.145-1.165
		c0.907-0.263,1.601-0.878,2.591-0.943c2.585-0.17,4.939,0.138,7.445,0.691c1.268,0.279,2.259,0.066,3.395-0.538
		c1.393-0.74,2.912-1.02,4.413-1.508c1.356-0.44,2.921-0.529,4.218-1.081c1.093-0.464,1.939-1.3,3.207-1.278
		c0.349,0.006,0.674-0.076,1.027-0.098c0.467-0.028,0.569-0.201,0.842-0.538c0.322-0.398,0.85-0.729,1.016-1.223
		c0.202-0.599-0.454-0.772-0.891-1.114c-0.591-0.462-0.686-0.776-0.402-1.506c0.303-0.778,0.759-1.521,1.097-2.271
		c0.355-0.785,0.599-2.352,0.244-3.181c-0.119-0.278-0.406-0.428-0.541-0.697c-0.126-0.252-0.081-0.486-0.095-0.767
		c-0.026-0.524-0.112-1.056,0.037-1.565c0.208-0.709,0.461-1.244,0.539-2.019c0.074-0.739,0.262-1.525,0.583-2.19
		c0.494-1.022,1.681-0.603,2.552-0.866c0.547-0.165,0.972-0.865,1.194-1.372c0.199-0.455,0.38-0.88,0.719-1.274
		c0.162-0.189,0.327-0.337,0.539-0.459c0.361-0.209,1.017-0.108,1.176-0.409c0.118-0.223-0.073-0.52,0.131-0.76
		c0.209-0.247,0.649-0.193,0.955-0.275c0.654-0.176,1.302-0.352,1.943-0.56c0.077,0.608-0.546,1.055,0.013,1.62
		c0.547,0.553,1.089,0.084,1.767,0.099c0.604,0.014,1.185,0.244,1.799,0.13c0.631-0.117,1.423-0.274,2.027-0.516
		c0.227-0.091,0.412-0.291,0.634-0.364c0.423-0.139,0.821,0.085,1.226-0.084c0.453-0.189,1.163-0.585,1.559-0.876
		c0.353-0.26,0.72-0.912,0.49-1.374c-0.315-0.63-1.393-0.253-1.868,0.001c-0.484-0.48-0.645-1.081-0.662-1.736
		c0.63,0.35,1.635,0.345,2.181-0.112c0.562-0.471,0.879-1.317,1.577-1.569c0.726-0.262,1.338,0.018,2.043-0.447
		c0.436-0.287,0.994-0.877,1.058-1.411c1.093,0.093,1.184-1.652,2.403-0.733c0.212,0.16,0.299,0.336,0.531,0.455
		c0.382,0.195,0.863,0.129,1.273,0.174c0.402,0.044,0.839,0.171,1.169,0.393c0.402,0.27,0.887,0.177,0.984-0.32
		c0.117-0.602-0.326-0.55-0.73-0.764c0.245-0.293,0.56-0.304,0.884-0.458c0.134-0.064,0.259-0.262,0.427-0.271
		c0.426-0.023,0.606,0.546,0.974,0.693c0.012,0.435-0.047,0.88,0.164,1.267c0.198,0.364,0.547,0.617,0.791,0.95
		c0.297,0.405,0.579,0.834,0.892,1.229c0.561,0.708,1.122,0.219,1.769-0.253c0.48-0.35,1.041-0.527,1.525-0.837
		c0.472-0.302,0.842-0.956,1.112-1.423c0.443-0.768,0.717-1.602,1.339-2.258c0.414-0.437,1.21-0.569,1.313-1.133
		c0.133-0.728-0.498-1.672-0.711-2.355c-0.315-1.011-0.26-2.03-0.321-3.071c-0.044-0.747-0.283-1.505-0.336-2.226
		c-0.032-0.447,0.471-1.483,0.851-1.774c0.53-0.406,1.062-0.402,1.363-1.089c0.208-0.475,0.46-1.128,0.379-1.654
		c-0.125-0.806-1.037-0.796-0.289-1.487c0.357-0.33,1.2-0.739,1.221-1.264c0.015-0.371-0.429-0.727-0.499-1.102
		c-0.05-0.269-0.012-0.611,0.107-0.855c0.161-0.332,0.906-1.203,1.309-1.165c0.327,0.031,0.492,0.517,0.821,0.489
		c0.311-0.027,0.565-0.477,0.794-0.66c0.364-0.291,0.783-0.516,1.278-0.451c0.356,0.047,0.55,0.254,0.927,0.184
		c0.491-0.091,1.133,0.157,1.564-0.135c0.419-0.283,0.394-0.816,0.632-1.204c0.318-0.521,0.827-0.295,1.326-0.518
		c0.296-0.132,0.496-0.37,0.725-0.588c0.618-0.592,1.419-1.446,1.282-2.434c-0.134-0.963-1.535-1.43-1.423-2.358
		c0.078-0.645,0.327-1.409,0.05-2.053c-0.251-0.585-1.068-0.989-1.635-1.14c-0.302-0.081-0.821-0.041-1.012-0.282
		c-0.242-0.306-0.209-0.83-0.454-1.181c-0.225-0.322-0.664-0.527-0.866-0.827c-0.205-0.305-0.126-0.62-0.042-1.024
		c0.142-0.68,0.375-1.155,1.053-1.22c0.619-0.059,1.334,0.017,1.897,0.27c0.833,0.375,1.353,0.449,2.239,0.566
		c0.649,0.086,1.178,0.499,1.821,0.576c0.52,0.062,0.985-0.046,1.493-0.09c1.294-0.11,3.115,0.234,4.277-0.431
		c0.368-0.21,0.626-0.59,0.982-0.816c0.509-0.323,1.124-0.446,1.559-0.887c0.779-0.791,0.234-2.049,0.698-2.994
		c0.156-0.317,0.525-0.745,0.504-1.127c-0.032-0.563-0.678-0.668-1.128-0.883c-1.129-0.54-1.161-1.061-1.164-2.254
		c0.265-0.417,1.01-0.794,1.221-1.218c0.296-0.596-0.453-1.023,0.264-1.516c0.33-0.226,0.832-0.28,1.142-0.564
		c0.279-0.255,0.375-0.578,0.54-0.912c0.417-0.845,0.732-1.659,1.668-2.005c0.737-0.272,1.202-0.334,1.621-1.034
		c0.175-0.292,0.405-0.592,0.528-0.91c0.112-0.288-0.01-0.658,0.102-0.914c0.187-0.429,0.516-0.251,0.876-0.45
		c0.394-0.217,0.428-0.582,0.451-1.014c0.05-0.898-0.771-1.096-0.97-1.947c-0.23-0.98,1.023-1.414,0.679-2.443
		c-0.081-0.241-0.325-0.402-0.43-0.644c-0.167-0.386-0.135-0.825-0.333-1.197c0.078-0.003,0.178-0.048,0.238-0.052
		c-0.292-0.31-0.699-0.4-0.839-0.821c-0.085-0.256,0.094-0.568,0.043-0.799c-0.064-0.289-0.16-0.303-0.347-0.541
		c-0.421-0.537-0.5-1.259-0.815-1.88c-0.143-0.282-0.293-0.48-0.403-0.764c-0.163-0.424-0.117-0.834-0.497-1.137
		c-0.639-0.511-1.877-0.245-2.393-1.006c-0.362-0.533,0.163-1.177,0.586-1.38c0.692-0.333,1.403-0.629,1.813-1.3
		c0.19-0.312,0.267-0.665,0.529-0.928c0.306-0.307,0.8-0.422,1.181-0.597c0.49-0.225,0.713-0.67,0.879-1.197
		c0.161-0.512,0.713-1.12,0.735-1.64c0.917,0.11,1.547,1.727,2.335,0.577c0.21-0.306,0.077-0.497,0.159-0.847
		c0.088-0.372,0.242-0.441,0.619-0.617c0.398-0.186,0.896-0.26,1.259-0.499c0.268-0.177,0.433-0.504,0.638-0.77
		c0.275-0.356,0.412-0.614,0.597-1.024c0.303-0.675,0.663-0.816,1.278-0.567c0.137-0.176,0.263-0.612,0.462-0.747
		c0.351-0.237,1.228-0.143,1.676-0.228c0.813-0.153,1.501-0.431,2.178-0.915c1.191-0.852,2.66-0.529,4.037-0.574
		c1.277-0.041,2.323-0.929,3.661-1.018c1.391-0.092,2.761-0.304,4.157-0.35c0.71-0.023,1.429-0.054,2.137-0.123
		c0.827-0.081,1.594-0.344,2.433-0.323c0.804,0.02,1.158,0.246,1.825,0.732c0.486,0.354,1.193,1.032,1.834,0.715
		c0.353-0.174,0.491-0.8,0.783-1.031c0.335-0.265,0.834-0.23,1.243-0.325c0.604-0.14,1.047-0.441,1.488-0.88
		c0.294-0.292,0.564-0.86,0.989-0.973c0.582-0.154,1.588,1.016,1.794-0.216c-0.474-0.255-1.789-0.631-2.049-1.094
		c-0.253-0.452,0.078-1.102,0.317-1.474c0.642-0.998,1.476-0.702,2.23-1.241c0.55-0.393,0.402-0.695,1.074-0.27
		c0.211,0.133,0.183,0.425,0.429,0.539c0.266,0.124,0.735-0.029,1.044,0.045c0.747-1.59-1.449-2.51-2.652-2.544
		c-1.176-0.033-2.211-0.32-3.352-0.145c-0.578,0.089-1.437-0.109-1.907,0.186c-0.378,0.236-0.424,0.788-0.784,1.043
		c-0.458,0.324-1.175,0.179-1.727,0.292c-0.556,0.115-1.068,0.294-1.578,0.53c-0.651,0.302-4.199,2.4-4.111,0.487
		c0.041-0.883,0.808-0.813,1.339-1.143c0.506-0.314,0.865-1.216,0.521-1.784c-0.251-0.414-0.894-0.325-1.316-0.279
		c-0.687,0.075-1.299,0.168-2.033-0.119c-0.347-0.136-0.55-0.547-1.035-0.391c-0.256,0.083-0.267,0.402-0.479,0.519
		c-0.523,0.287-1.061,0.278-1.592,0.546c-0.559,0.282-1.179,0.562-1.731,0.844c-0.599,0.306-0.887,0.961-1.477,1.301
		c-1.19,0.687-2.391,1.046-3.244,2.241c-0.76,1.064-0.871,2.724-2.346,2.757c-1.609,0.035-3.415,0.633-4.565,1.798
		c-0.823,0.835-1.904,0.82-2.766,1.543c-0.796,0.669-1.302,1.195-2.281,1.586c-0.603,0.241-1.954,0.725-2.538,0.221
		c-0.663-0.572-0.042-2.032-0.602-2.843c-0.735-1.064-1.478-1.426-1.553-2.783c-0.041-0.752,0.342-1.332,0.465-2.05
		c0.15-0.876,0.163-1.739,0.207-2.623c0.05-1.021,0.375-1.97,0.507-2.981c0.118-0.901,0.046-1.792,0.142-2.685
		c0.103-0.96,0.912-1.918,0.451-2.887c-0.979-2.06-2.841,1.389-3.893-0.245c-0.087,0.035-0.175,0.069-0.263,0.102
		c-0.169-0.143-0.219-0.361-0.178-0.594c0.192-1.072,1.013-1.897,1.321-2.934c0.354-1.194,0.11-1.793-0.301-2.921
		c-1.346,0.053-1.438-0.758-2.358-1.462c-0.476-0.364-1.167-0.13-1.59-0.467c-0.338-0.269-0.305-0.833-0.736-1.106
		c-0.387,0.213-0.512,0.687-0.732,1.037c-0.469-0.008-0.93-0.272-1.248-0.604c-0.544,0.521-1.055,0.476-1.645,0.898
		c-0.468,0.335-0.546,1.248-1.218,1.009c-0.359,0.381-0.381,1.271-0.704,1.764c-0.428,0.655-0.778,1.338-1.192,2.003
		c-0.764,1.227-2.069,2.168-3.092,3.191c-0.311,0.311-0.309-0.022-0.443,0.474c-0.068,0.25,0.008,0.854,0.186,1.051
		c0.666,0.738,1.234,0.021,1.208,1.408c-0.018,0.953-0.458,1.872-1.062,2.622c-0.186,0.23-0.639,0.849-0.978,0.851
		c-0.279,0.002-0.829-0.665-1.176-0.824c-0.416-0.191-1.218-0.761-1.601-0.806c-0.28-0.033-0.661,0.321-0.918,0.388
		c-0.342,0.089-0.676,0.047-1.037,0.077c-0.956,0.081-1.182,0.345-2.099,0.092c-0.935-0.258-1.195,0.235-1.478,1.073
		c-0.178,0.528-0.204,0.873-0.576,1.276c-0.12,0.129-0.388,0.059-0.503,0.214c-0.131,0.179-0.135,0.715-0.179,0.941
		c-0.15,0.769-0.283,2.575,1.048,2.35c-0.138,0.466-1.817,1.745-2.369,1.618c-0.627-0.143-1.245-1.251-1.594-1.774
		c-0.405-0.607-0.929-1.18-1.565-1.549c-1.538-0.894-2.758-0.557-3.884,0.583c-0.435,0.44-0.872,0.883-1.374,1.188
		c-0.715,0.434-1.587,0.358-2.276,0.738c-0.533,0.294-0.205,0.988-0.371,1.452c-0.174,0.487-0.432,0.65-0.896,0.969
		c-0.642,0.441-0.416,0.246-1.093-0.016c-0.716-0.277-1.226-0.124-1.819,0.33c-0.76,0.581-0.863,0.748-1.489,0.011
		c-0.396-0.466-0.831-0.783-1.286-1.205c-0.541-0.501-0.462-0.839-0.692-1.467c-0.227-0.622-0.949-1.239-1.519-1.541
		c-0.485-0.257-2.324-0.875-2.725-0.7c-0.633,0.275-0.908,1.282-1.535,1.517c-1.329,0.499-1.91-1.032-2.496-1.825
		c-0.608-0.823-1.194-1.518-2.23-1.766c-1.199-0.287-2.311,0.646-3.596,0.449c-0.617-0.094-1.187-0.268-1.845-0.246
		c-0.819,0.027-1.132,0.35-1.823,0.581c-0.833,0.279-0.978-0.291-1.541-0.643c-0.574-0.36-1.213-0.287-1.761-0.681
		c-0.559-0.402-0.67-0.683-1.359-0.903c-0.573-0.183-1.104-0.403-1.669-0.59c-1.665-0.551-2.92-0.283-3.504,1.461
		c-0.39,1.165-0.209,2.675-1.718,3.054c-1.547,0.388-3.06-0.368-4.489-0.443c-0.965-0.05-2.128,0.197-2.78,1.026
		c-0.84,1.068-2.408,0.135-2.421,1.911c-0.005,0.618,0.157,1.293,0.149,1.845c-0.015,0.937-0.634,0.901-1.101,1.592
		c-0.381,0.563-0.451,1.548-0.735,2.204c-0.336,0.778-0.297,1.439-0.293,2.298c0.008,1.887-1.274,4.74-3.215,5.129
		c-1.123,0.225-3.37,0.576-4.007,1.525c-0.477,0.711,0.086,1.845-0.468,2.422c-0.733-0.265-0.986-1.118-1.902-0.962
		c-0.678,0.116-1.243,0.829-1.872,1.059c-0.707,0.258-1.465,0.198-2.193,0.327c-0.584,0.103-0.868,0.394-1.374,0.635
		c-0.658,0.313-1.493,0.332-2.204,0.429c-0.639,0.087-1.61-0.034-2.168,0.316c-1.28,0.804,0.703,2.029,1.233,2.673
		c-0.716,0.502-2.374,0.313-2.226,1.593c0.042,0.368,0.331,0.572,0.402,0.964c0.134,0.733-0.413,1.336-0.694,1.989
		c-0.644-0.381-1.251-0.161-1.708,0.316c-0.586,0.611-1.335,0.748-2.044,1.127c-0.385,0.206-0.399,0.348-0.643,0.656
		c-0.29,0.366-0.552,0.41-1.021,0.47c-1.047,0.135-1.284-0.413-2.19-0.747c-0.735-0.27-0.81,0.3-1.222,0.785
		c-0.386,0.455-0.96,0.802-1.37,1.244c-0.34-0.852,0.356-2.17-0.385-2.808c-0.326-0.281-0.824-0.3-1.174-0.549
		c-0.296-0.21-0.585-0.575-0.791-0.878c-0.398-0.583-0.461-0.92-1.277-1.049c-0.974-0.155-2.124,0.099-3.092,0.221
		c-0.36,0.045-0.866,0.172-1.228,0.102c-0.455-0.087-0.774-0.53-1.202-0.726c-0.857-0.394-1.304-0.539-1.862-1.327
		c-0.387-0.546-0.695-1.128-1.096-1.663c-0.129,0.043-0.782,0.337-0.895,0.496c-0.177,0.25-0.075,0.54-0.1,0.839
		c-0.067,0.785-0.464,1.483-0.979,2.048c-0.57,0.624-0.356,0.792-0.486,1.578c-0.112,0.676-0.425,0.473-1.024,0.623
		c-0.152,0.544-0.395,1.521-0.243,2.09c0.129,0.484,0.503,0.564,0.306,1.146c-0.198,0.586-0.349,1.33-0.637,1.88
		c-0.126,0.24-0.358,0.424-0.44,0.68c-0.112,0.347-0.02,0.888-0.019,1.248c0,0.265,0.045,0.697-0.125,0.933
		c-0.212,0.296-0.752,0.137-0.975,0.387c-0.407,0.458,0.24,1.245-0.022,1.763c-0.16,0.317-0.528,0.156-0.774,0.351
		c-0.183,0.145-0.127,0.394-0.291,0.542c-0.447,0.399-1.665,0.574-2.231,0.565c0.297,0.674,1.085,1.025,1.35,1.671
		c0.082,0.199,0.027,0.44,0.082,0.653c0.066,0.254,0.236,0.472,0.347,0.705c0.158,0.334,0.586,1.078-0.015,1.081
		c-0.214,0.001-0.592-0.387-0.765-0.482c-0.307-0.168-0.602-0.201-0.944-0.199c-0.375,0.002-1.053-0.03-1.307,0.295
		c-0.223,0.285-0.161,0.635-0.502,0.928c-0.267,0.231-0.561,0.353-0.797,0.62c-0.224,0.253-0.344,0.606-0.625,0.8
		c-0.213,0.147-0.757,0.238-0.826,0.556c-0.075,0.347,0.364,0.878,0.525,1.153c0.464,0.791,1.111,2.05,0.867,3.017
		c-0.128,0.506-0.439,0.902-0.458,1.464c-0.017,0.485,0.132,0.928,0.332,1.367c0.183,0.402,0.419,0.762,0.608,1.166
		c0.171,0.366,0.242,0.749,0.428,1.107c0.505-0.054,0.892-0.215,1.348-0.403c0.533,0.126,1.081,0.373,1.637,0.5
		c0.251,0.057,0.852,0.148,0.583,0.504c-0.212,0.281-0.894-0.011-1.125,0.314c-0.227,0.319,0.173,0.753-0.094,1.13
		c-0.245,0.345-0.907,0.795-1.225,1.082c-0.613,0.553-1.294,0.882-1.784,1.581c-0.432,0.616-0.871,0.876-0.753,1.653
		c0.14,0.929,0.485,1.847,0.536,2.78c0.044,0.798-0.116,1.643,0.031,2.433c0.11,0.592,0.347,1.158,0.551,1.729
		c0.228,0.638,0.379,1.91,0.932,2.347c0.343,1.099,0.679,2.231,0.736,3.387c0.026,0.545-0.12,1.179-0.005,1.711
		c0.082,0.38,0.394,0.557,0.347,0.974c-0.077,0.674-0.778,1.627-1.098,2.251c-0.332,0.648-0.312,1.245-0.262,2.005
		c0.072,1.088,0.284,2.145,0.283,3.241c-0.001,0.775-0.034,1.545-0.049,2.317c-0.022,1.114,0.774,1.254,1.718,1.58
		c0.705,0.243,2.086,0.881,2.928,0.775c0.1-0.458-0.725-0.893-0.576-1.466c0.039-0.15,0.197-0.218,0.26-0.347
		c0.044-0.09,0.024-0.261,0.07-0.336c0.196-0.315,0.412-0.145,0.699-0.344c0.438-0.303,0.214-0.578,0.83-0.588
		c0.244-0.004,0.352,0.029,0.57,0.082c0.103,0.025,0.185,0.096,0.295,0.105c0.163,0.014,0.352-0.134,0.491-0.111
		c0.393,0.064,0.495,0.636,0.493,0.97c-0.005,0.648,0.093,0.376,0.662,0.531C18.794,136.123,18.514,137.657,18.399,138.256z"/>
</g>
</svg>
