<?xml version="1.0" encoding="utf-8"?>
<!-- Generator: Adobe Illustrator 26.0.3, SVG Export Plug-In . SVG Version: 6.00 Build 0)  -->
<svg version="1.1" id="Layer_1" xmlns="http://www.w3.org/2000/svg" xmlns:xlink="http://www.w3.org/1999/xlink" x="0px" y="0px"
	 viewBox="0 0 200 200" style="enable-background:new 0 0 200 200;" xml:space="preserve">
<style type="text/css">
	.st0{fill:#1E8346;}
</style>
<g id="Layer_1_00000023985601322884334010000015501784715751217815_">
	<g id="Layer_1_00000128480095285341338950000008464522443776971395_">
	</g>
</g>
<g id="Isolation_Mode">
	<g>
		<path class="st0" d="M188.6,164.5c-0.1-0.8-0.8-1.1-1.3-1.5c-1.2-1.1-1.7-2.6-2.2-4.1c-0.4-1.1-1.2-2.2-1.2-3.4
			c-0.4-0.5-0.9-1.2-1.4-1.6c-0.3-0.3-0.8-0.4-1.2-0.7c-0.6-0.4-1.1-0.7-1.7-1c-0.7-0.3-1.3-1-1.8-1.6c-0.5-0.7,0.1-2,0.4-2.6
			c0.2-0.4,0.6-0.7,0.9-1.1c0.3-0.3,0.7-0.6,1-0.8c0.6-0.3,1.2-0.7,1.8-0.9c0.8-0.3,2.1-0.6,2.6-1.3c0.3-0.5,0.6-1.1,0.8-1.6
			c0.3-0.5,0.6-0.8,1.1-1.1c0.2-0.1,0.4-0.2,0.7-0.3c0.2,0,0.3,0.1,0.5,0.1c0.1-0.5,0-1-0.1-1.5c-0.2-0.5-0.4-0.8-0.4-1.4
			c-0.4-0.2-0.9-0.3-1.3-0.5c-0.4-0.2-0.6-0.3-1-0.4c-1.2-0.2-2.3-0.1-3.5-0.1c-0.2,0-0.4,0-0.6,0c-0.4,0-1.1,0.2-1.4,0
			c-0.2-0.1-0.3-0.4-0.4-0.6c-0.3-0.6-0.3-1.1-0.5-1.7c-0.1-0.2-0.2-0.6-0.4-0.7c-0.2-0.2-0.8-0.3-1-0.4c-0.6-0.2-1.3-0.2-1.9-0.4
			c-0.7-0.2-1.7-0.1-2.4,0c-0.7,0.1-1.3,0.4-1.7,1c-0.5,0.5-0.8,0.8-1.5,1.2c-0.4,0.2-0.7,0.6-1.1,0.7c-0.9,0-2.2-0.6-3,0
			c-0.2,0.2-1.1,0.9-1.4,0.8c-0.3-0.2-0.3-1.1-0.3-1.4c-0.1-0.6,0-1.1-0.1-1.7c0-0.2-0.1-0.4-0.2-0.6c-0.1-0.3-0.5-0.4-0.5-0.7
			c-0.1-0.1-0.2-0.2-0.3-0.3c-0.2-0.1-0.4-0.2-0.6-0.3c-0.4-0.2-0.7-0.5-0.9-0.8c-0.3-0.3-0.6-0.6-0.8-0.9c-0.2-0.2-0.3-0.6-0.5-0.8
			c-0.5-0.3-1.2,0.5-1.7,0.3c-0.3-0.1-0.3-0.7-0.4-1c0-0.4,0-0.8-0.1-1.1c-0.2-0.5-0.4-1-0.5-1.6c-0.2-0.9-0.6-1.8-1.3-2.5
			c-0.4-0.3-0.8-0.8-1.2-1c-0.6-0.3-1.5-0.6-2.2-0.7c-0.5-0.1-1,0-1.4,0c-0.6,0-0.9-0.1-1.3-0.4c-0.3-0.2-0.5-0.6-0.8-0.7
			c-0.3-0.2-0.9-0.1-1.2-0.2c-0.4,0-0.6,0-0.9-0.3c-0.3-0.2-0.5-0.4-0.8-0.6c-0.7-0.4-1.5-0.3-2-1c-0.2-0.3-0.4-0.6-0.5-0.9
			c-0.2-0.5-0.2-1-0.5-1.5c-0.3-0.6-0.7-1.3-0.9-1.9c-0.2-0.4-0.5-0.9-0.2-1.4c0.2-0.3,0.6-0.4,0.7-0.6c0.1-0.2,0-0.5,0-0.6
			c0-0.4-0.1-0.9-0.3-1.3c-0.2-0.4-0.2-0.7,0-1.1c0.3-0.9,0.8-1.6,1.2-2.5c0.3-0.7,0.8-1.1,1.3-1.6c0.8-0.9,1.9-1.3,2.4-2.4
			c0.2-0.4,0.2-0.9,0.4-1.3c0.1-0.4,0.4-0.8,0.5-1.2c0.1-0.7-0.4-1.7,0-2.3c0.2-0.3,0.6-0.2,0.9-0.5c0.2-0.2,0.3-0.3,0.5-0.4
			c0.5-0.2,1.1-0.1,1.5-0.6c0.3-0.3,0.1-0.8,0.2-1.2c0-0.4,0.2-0.7,0.4-1.1c0.2-0.4,0.2-0.6,0.2-1c0.1-0.8,0.4-1.6,0.5-2.5
			c0-0.3,0-0.6,0-0.9c0-0.4,0-0.8-0.1-1.1c-0.1-0.2-0.2-0.3-0.3-0.5c-0.1-0.2-0.2-0.5-0.3-0.7c-0.4-0.7-0.1-1.7,0.1-2.4h-0.1
			c-0.4-0.2-0.9-0.3-1.3-0.5c-0.4-0.2-0.5-0.9-0.8-1c-0.8-0.4-1.9,1.2-2.5,0.1c-0.3-0.4-0.4-0.8-0.8-1.1c-0.4-0.3-1-0.2-1.5-0.3
			c-0.8-0.2-1.9-0.7-2.6-1.2c-0.2-0.2-0.3-0.4-0.5-0.6c-0.5-0.4-1.2-0.5-1.8-0.8c-0.4-0.2-0.9-0.6-1.3-0.6c-0.6-0.1-1.1-0.1-1.6-0.2
			c-0.6-0.1-1-0.4-1.6-0.5c-0.5-0.1-0.9-0.2-1.3-0.4c-0.2-0.1-0.5-0.1-0.7-0.3c-0.3-0.2-0.3-0.7-0.4-1c-0.2-0.5-0.8-0.9-1.3-1.1
			c-0.3-0.2-0.8-0.3-0.8-0.7c0-0.2,0.1-0.4,0.1-0.7c0-0.9-0.8-0.4-1.3-0.2c-0.8,0.2-0.9-0.2-1.4-0.7c-0.4-0.3-0.7-0.7-1.1-1
			c-0.5-0.4-1-0.8-1.5-1.3c-0.3-0.3-0.4-1-0.8-1.2c-0.7-0.4-1.3-0.8-1.7-1.1c-0.9-0.7-1.4-1.1-1.7-1.9c-0.1-0.3-0.3-0.9-0.1-1.5
			c0.3-0.5,0.7-0.5,0.8-0.9c0.1-0.5-0.4-0.7-0.3-1.2c0.1-0.5,0.7-0.6,0.7-1c0-0.2-0.2-0.5-0.7-1c-0.5-0.6-0.8-0.8-1-0.9
			c-0.5,0-0.6,0.4-1.1,0.4c-0.5,0-0.8-0.5-0.9-0.6c-0.2-0.3-0.2-0.7-0.2-1.2c0-0.5,0.1-0.5,0-0.7c-0.1-0.4-0.5-0.5-1-1
			c-0.2-0.2-0.7-0.8-0.6-1.4c0.1-0.6,0.7-0.5,0.9-1.2c0.1-0.3,0-0.4,0-1.2c0.1-0.6,0.1-0.6,0.2-0.7c0.3-0.2,0.8,0.3,1.1,0
			c0.1-0.1,0.1-0.2,0.1-0.4c0.1-0.6-0.3-0.8-0.2-1.2c0-0.2,0.2-0.3,0.3-0.4c1.3-1,2.3-1.3,2.3-1.3c1.2-0.4,1.3-0.1,2.1-0.5
			c0.7-0.3,0.7-0.5,1.4-0.9c1.2-0.7,1.5-0.3,2.3-0.8c0.7-0.4,1.2-1.5,2-3.5c0.4-1,0.4-1.2,0.8-1.9c0.2-0.3,0.3-0.5,0.4-0.9
			c0-0.2,0.2-0.8-0.2-1.4c-0.3-0.4-0.6-0.6-0.8-0.7c-0.6-0.3-0.9,0-1.5-0.1c-0.7-0.1-0.7-0.6-2.3-2c-0.6-0.5-0.8-0.7-1.2-0.7
			c-0.6,0-0.8,0.4-1.2,0.3c-0.4-0.1-0.6-0.6-0.6-1c-0.1-0.5,0.2-0.8,0-1.2c-0.1-0.2-0.1-0.1-0.4-0.4c-0.5-0.6-0.4-1-0.7-1
			c-0.2,0-0.4,0.1-0.7,0.4c-0.3,0.3-0.4,0.4-0.5,0.5c-0.4,0.1-0.8-0.8-0.9-0.9c-0.1-0.3-0.5-1.1-0.2-1.9c0.1-0.1,0.2-0.5,0.5-0.7
			c0.4-0.4,0.8-0.3,0.9-0.6c0.1-0.4-0.3-1-0.8-1.1c-0.2,0-0.3,0.1-0.8,0.2c-0.5,0.1-0.6,0-0.7,0.1c-0.2,0.2,0,0.6-0.2,0.8
			c-0.2,0.2-0.5-0.1-1,0c-0.6,0.2-0.6,0.7-1,0.7c-0.4,0-0.5-0.4-1.1-0.7c-0.7-0.3-1.1,0-1.5-0.4c-0.4-0.3-0.1-0.7-0.5-1.4
			c-0.2-0.4-0.8-1.1-1.2-1c-0.4,0.1-0.3,1-1,1.3c-0.3,0.2-0.4,0-0.9,0.2c-0.6,0.2-0.7,0.6-0.9,0.5c-0.5-0.1-0.3-1.3-1.1-1.7
			c-0.2-0.1-0.3-0.1-0.8-0.3c-0.4-0.1-0.4-0.2-0.6-0.2c-0.3,0-0.5,0.3-0.7,0.2c-0.2-0.1-0.2-0.3-0.2-0.4c-0.2-0.9-0.1-1.6-0.2-2.3
			c-0.1-0.5-0.2-1-0.5-1.2c-0.4-0.2-1,0.1-1.3,0.4c-0.4,0.4-0.3,0.7-0.8,0.9c-0.1,0-0.3,0.2-0.6,0.1c-0.4-0.1-0.3-0.5-0.9-1.8
			c-0.2-0.6-0.4-0.9-0.3-1.2c0.1-0.2,0.3-0.3,0.3-0.4c0.8-0.4,1.7,0.9,2.8,0.6c0.4-0.1,0.4-0.4,1.1-0.5c0.6-0.2,0.7,0,1-0.2
			c0.6-0.3,0.8-1.2,0.8-1.8c0-0.2,0-0.9-0.5-1.4c-0.6-0.7-1.2-0.2-1.9-0.9c-0.1-0.1,0-0.1-1-1.6c-0.3-0.4-0.5-0.8-0.9-0.8
			c-0.2,0-0.3,0-0.5,0.1c-0.6,0.3-0.6,0.8-1.1,1c-0.2,0.1-0.5,0.1-1.1,0c-0.5-0.1-0.9-0.1-1.1-0.4c-0.1-0.1-0.1-0.2-0.1-0.6
			c-0.1-0.9-0.3-0.9-0.2-1.3c0.1-0.4,0.3-0.3,0.7-1c0.3-0.5,0.5-0.8,0.4-1.1c-0.1-0.5-0.8-0.4-1.5-1.1C98.3,10,98.1,9.3,98.1,9
			c-0.1-0.6-0.1-1,0-1.3c-1,0.5-1.8,1-2.3,1.2c-1.6,0.8-2,1.2-2.9,1.2c-0.7,0-1.2-0.2-1.6-0.4c-1.3-0.5-1.2-1.1-2.4-1.6
			c-0.7-0.3-0.6-0.1-2-0.4c-0.2-0.1-0.5-0.1-0.9,0c-0.3,0.1-0.4,0.4-0.4,0.4c-0.1,0.3,0,0.6,0,0.9c0.2,0.8-0.2,1-0.1,1.6
			c0.2,1.2,1.7,1.9,1.8,2c0.9,0.4,1.6,0.3,1.7,0.6c0.1,0.2-0.2,0.6-0.5,0.7c-0.5,0.3-1.1,0-2.9-0.4c-0.9-0.2-1.4-0.3-1.7-0.3
			c-1.1,0.2-1.9,0.7-1.9,0.7c-0.1,0.1-0.4,0.3-0.8,0.3c-0.1,0-0.4,0-0.5-0.1c-0.1-0.1,0-0.3,0-0.9c0-0.4,0-0.6,0-0.7
			c-0.2-0.2-0.8,0.6-1.6,0.5c-0.5-0.1-0.5-0.5-1.2-0.7c-0.2-0.1-0.4-0.1-0.9-0.1c-1.2,0-1.8,0-2,0.2c-0.7,0.5-0.7,1.8-0.8,2.2
			c0,0.4,0,0.9-0.3,1.1c-0.2,0.1-0.4,0.2-0.5,0.1c-0.1-0.1,0-0.4,0-0.8c0.1-0.5,0.2-1.2,0-1.3c-0.2-0.1-0.6,0.2-0.9,0.4
			c-0.7,0.7-0.5,1.5-0.9,1.7c-0.4,0.1-0.8-0.1-1.1-0.4c-0.3-0.4-0.3-0.9-0.3-1c0.1-0.7,0.7-0.8,0.7-1.4c0-0.5-0.4-1-0.8-1
			c-0.4,0-0.8,0.5-1.1,1c-0.5,0.8-0.4,1.2-0.8,1.7c-0.5,0.6-1.2,0.8-1.4,0.8c-1.2,0.3-2.2-0.2-2.6-0.4c-1.2-0.6-1.2-1.2-2.8-2.4
			c-1.3-0.9-1.6-0.8-1.8-0.7c-0.6,0.3-0.3,1.5-1,1.8c-0.3,0.1-0.4,0-1.3-0.1c-1-0.1-1.1,0.1-1.5,0c-1-0.3-0.8-1.1-1.8-1.5
			c-0.9-0.3-1.3,0.3-2-0.1c-0.5-0.3-0.5-0.8-1.2-1c-0.2-0.1-0.5-0.2-0.7,0c-0.3,0.3,0.4,1.1,0.2,2.2c-0.1,0.5-0.4,1.1-1,1.3
			c-0.6,0.2-0.8-0.3-1.8-0.3c-0.8,0-1.2,0.4-1.6,0.2c-0.2-0.1-0.2-0.3-0.4-0.4c-0.4-0.3-1,0-1.5,0.2c-0.7,0.3-0.6,0.4-1.1,0.6
			c-0.9,0.3-1.2-0.1-1.7,0.2c-0.5,0.3-0.3,0.7-0.9,1c-0.4,0.2-0.8,0.3-1.5,0.3c-0.8,0.1-1.2,0.1-1.7-0.1c-0.5-0.3-0.5-0.6-0.9-0.7
			c-0.5,0-0.6,0.4-1.4,0.6c-0.4,0.1-0.6,0.1-0.8,0.1c-1.7,0-3.8,1.1-4.2,1.2c-1.2,0.6-1.8,0.9-2.4,1.5c-0.8,0.8-1,1.5-1.6,1.5
			c-0.4,0-0.4-0.2-1.6-0.7c-0.7-0.3-0.9-0.2-1.3-0.5C22,19,22,18.7,21.6,18.5c-1.2-0.5-2.4,1.4-3.6,0.9c-0.8-0.3-0.7-1.2-1.7-1.5
			c-0.4-0.1-0.6,0-1.2,0.1c-2.5,0.6-2.7,0.2-3.8,0.7c-0.5,0.2-1.2,0.6-2,1.4c-0.4,0.4-0.7,0.5-1.1,1c-0.2,0.3-0.5,0.7-0.4,1.1
			c0.1,0.6,0.6,1.2,0.8,1.7c0.3,0.7,0.5,1.2,0.5,1.9c0,0.5,0.2,1.1,0.5,1.5c0.4,0.5,1.1,0.6,1.6,0.9c0.2,0.1,0.3,0.2,0.5,0.3
			c0.2,0.1,0.5,0,0.7,0.1c0.3,0.1,0.6,0.4,0.9,0.6c0.9,0.6,2.1,0.6,2.9,1.2c0.3,0.2,0.6,0.5,0.9,0.7c0.6,0.4,1.3,0.7,1.7,1.2
			c0.4,0.4,0.9,1.1,1,1.6c0.2,0.5,0.1,1.1,0.3,1.7c0.1,0.5,0.3,1,0.2,1.5c-0.1,0.5-0.2,0.9-0.2,1.4c0.1,0.6,0.2,1.2,0.4,1.8
			c0.1,0.4,0.2,0.7,0.4,1c0.5,0.6,0.5,1,0.8,1.7c0.3,0.8,0.7,1.5,1,2.3c0.3,1,0.5,1.9,0.8,2.9c0.2,0.8,0.4,1.7,0.7,2.5
			c0.2,0.4,0.4,0.8,0.9,1c0-0.3,0-0.5,0.2-0.8c0.2-0.2,0.4-0.3,0.6-0.5c0.2-0.3,0.7-1,0.7-0.3c0,1-0.5,1.6-1.1,2.3
			c-0.1,0.2-0.3,0.2-0.4,0.5c-0.1,0.2,0,0.5,0,0.8c0,0.4-0.1,0.7-0.4,0.9c-0.4,0.3-0.8,0.3-1.1,0.7c-0.2,0.4-0.4,1-0.5,1.5
			c-0.1,0.5-0.1,0.7-0.5,1.1c-0.3,0.4-0.5,0.8-0.7,1.3c-0.2,0.4-0.2,0.8-0.5,1.2c-0.2,0.3-0.5,0.5-0.8,0.8c-0.3,0.3-0.5,1.1-1,1.1
			c-0.4,0-0.5-0.6-0.9-0.6c-0.6,0.1-0.6,1.3-0.3,1.7c0.1,0.2,0.6,0.3,0.5,0.6c-0.1,0.2-0.3,0.2-0.5,0.1c-0.3-0.1-0.9-0.6-1.1,0
			c-0.2,0.5,0.8,0.5,0.5,1c-0.5,0.1-0.9-0.5-1.3-0.2c-0.2,0.2-0.2,0.4-0.4,0.6c-0.4,0.3-0.8,0.2-1.2,0.4c-0.7,0.2-0.9,0.8-1.4,1.3
			c-0.4,0.5-0.7,0.7-0.7,1.4c0,0.8,0.3,1,0.9,1.4c1.4,0.8,2.5,1.7,2.6,3.3c0,0.8,0.1,1.1-0.3,1.8c-0.4,0.6-0.8,1.1-0.8,1.8
			c-0.1,0.8,0,1.4,0.4,2.1c0.4,0.7,1,1.1,1.3,1.8c0.4,1.1,0.2,2.3,1.2,3.2c0.4,0.4,1.5,0.5,1.8,0.9c0.2,0.3,0.1,0.9,0.1,1.3
			c0.1,0.5,0.3,0.7-0.3,0.8c-0.7,0.2-0.9-0.3-0.9,0.6c0,0.4,0.1,1.1,0.4,1.5c0.4,0.4,1,0.4,1.3,0.9c0.2,0.4,0,0.8,0.2,1.1
			c0.2,0.4,0.5,0.6,0.4,1.1c-0.7,0-1.5-0.5-2.1-0.2c-0.5,0.2-0.6,0.5-0.8,1c-0.4,1.1-0.2,2.4,0.8,3.2c0.5,0.4,1.2,0.7,1.8,1.1
			c0.4,0.3,0.7,0.6,1.1,0.9c0.5,0.4,1.1,0.5,1.8,0.6c0.8,0.1,1.1,0.3,1.8,0.6c0.5,0.2,1.1,0.1,1.6,0.5c0.4,0.2,0.8,0.6,1.1,1
			c0.3,0.3,0.3,0.6,0.7,0.8c0.5,0.2,0.9,0.2,1.3,0.6c0.7,0.5,0.8,0.6,1.6,0.8c0.4,0.1,0.7,0.3,1.1,0.5c0.7,0.3,2.9,0.3,3.5,0
			c0.4-0.2,0.5-0.3,1-0.4c0.3,0,0.7,0,1,0c0.6,0,1.2,0.1,1.7,0.1c0.8,0,1.5-0.2,2.3-0.4c1.1-0.2,2,0,3.1,0.2c0.7,0.1,1.3,0,2,0.2
			c0.5,0.2,0.6,0.3,1,0.1c0.5-0.3,0.4-0.4,1.1-0.5c0.9,0,1.1-0.1,1.8-0.5c0.7-0.4,1.7-0.6,2.5-0.3c0.8,0.3,1.5,0.8,2.3,1
			c0.8,0.1,1.4,0.2,2,0.8c0.5,0.6,0.8,1,1.5,1.4c0.5,0.3,0.9,0.4,1.2,0.9c0.2,0.2,0.3,0.6,0.5,0.7c0.3,0.2,0.9,0.1,1.2,0.2
			c0.3,0.1,0.6,0.3,0.9,0.5c0.7,0.3,1.4,0.3,1.7,1c0.5,1,0.8,2.1,1.7,2.8c0.4,0.4,1.3,0.9,1.5,1.3c0.2,0.4,0.2,1,0.4,1.5
			c0.4,0.8,0.9,1.7,1.4,2.4c0.5,0.6,0.7,0.9,1,1.7c0.2,0.5,0.4,0.6,0.8,0.9c0.1,0.1,0.4,0.4,0.5,0.5c0.1,0.1,0.1,0.2,0.3,0.2
			c0.4,0.2,1-0.1,1.4,0c0.6,0.2,1,0.9,1.5,1.2c0.6,0.4,2-0.3,2.2,0.6c0,0.2-0.3,0.5-0.2,0.7c0.1,0.4,0.2,0.3,0.6,0.5
			c0.6,0.4,1,1.1,1.6,1.5c0.7,0.5,0.8,0.9,1.1,1.7c0.7,1.5,2,0.9,3.3,0.5c0.9-0.3,1.7-0.6,2.5-0.9c1-0.5,2.2-0.6,3.1,0.1
			c1.2,0.9,2.3,0.6,3.5,0c0.6-0.3,1.3-0.2,1.8-0.6c0.4-0.2,0.7-0.7,1-1.1c0.6-0.7,1.8-1.6,2.5-2.2c1.1-0.8,2.8,0.7,3.5,1.4
			c1.1,1.1,2,2.6,2.6,4.1c0.5,1.2,1.8,2.2,1.7,3.6c-0.1,1.2-0.2,2.3-0.3,3.5c0,0.5-0.2,1.8,0.1,2.2c0.2,0.3,1.1,0.5,1.5,0.6
			c1.6,0.2,1.6-1.6,2.8-1.9c0.5-0.1,1.6-0.1,2.1,0.1c0.5,0.2,0.4,0.3,0.6,0.8c0.3,1.2,0.4,1.7,1.4,2.5c0.5,0.4,0.7,0.8,1.1,1.3
			c0.4,0.4,0.6,0.4,1.2,0.4c1.3,0,2,0.6,3.1,1.1c0.7,0.3,1.2,0.2,1.7,0.9c0.3,0.4,0.3,0.8,0.8,1c0.5,0.3,1.2,0.3,1.7,0
			c1-0.5,1.6-1.8,2.4-2.6c0.6-0.7,1.6-0.7,2.2-1.4c0.3-0.3,0.5-0.9,0.8-1.1c0.5-0.3,0.5,0.1,0.9,0.1c0.5,0.1,0.8-0.1,1.3-0.3
			c0.7-0.2,1.4-0.3,2-0.8c0.6-0.5,0.7-1.1,1.5-1.3c1.1-0.2,1.8-0.3,3,0.1c0.8,0.2,1.9,0.4,2.5,1c0.6,0.6,0.5,1.2,1.4,1.1
			c1,0.4,1.1,1.5,1.3,2.4c0.1,0.6,0.3,1.2,0.4,1.8c0.1,0.8-0.4,1.2-0.6,2c1.3,0.8,2,1.8,0.8,2.9c-1,0.9-2,2.1-2.2,3.5
			c-0.1,0.9-0.2,2.4,0.7,2.9c0.9,0.4,2.1,0.2,3.1,0.5c0.6,0.2,0.9,0.4,1.3,0.9c0.3,0.4,0.7,0.9,1.1,1.3c0.4,0.3,1,0.4,1.6,0.5
			c1.1,0.2,1.6,1,2.5,1.5c1,0.5,1.9-0.1,2.3,1.3c0.2,0.8,0.1,1.4-0.2,2.1c-0.4,0.9-1.3,3.9-0.5,4.7c0,0.7,0.6,1,0.9,1.5
			c0.3,0.5,0.2,0.9,0.2,1.5c0,1,0.7,1.7,0.8,2.7c0.2,2.1,2.4,2.7,3,4.6c0.2,0.8,0.1,1.8,0.6,2.4c0.2,0.3,0.7,0.5,0.8,0.8
			c0.2,0.4,0.1,1.1,0.1,1.6c0.1,1.1,0,2.1,0.6,3c0.4,0.7,0.8,1.5,1.1,2.3c0.3,0.8,0.4,1.6,0.7,2.5c0.3,0.9,0.1,2,0.5,2.8
			c0.3,0,0.7,0.1,1,0c0.3-0.1,0.3-0.3,0.5-0.4c0.5-0.4,1.5,0,2-0.4c0.2-0.1,0.3-0.4,0.5-0.5c0.3-0.2,0.6-0.2,0.9-0.3
			c0.5-0.2,0.8-0.7,1.2-1.1c0.2-0.2,0.4-0.5,0.7-0.6c0.4-0.2,0.9-0.2,1.2-0.4c0.3-0.2,0.5-0.4,0.9-0.5c0.3-0.1,0.7-0.1,1-0.1
			c0.6-0.1,1-0.7,1.7-0.8c0.6-0.1,1.1,0.3,1.6,0.5c0.4,0.2,1.1,0.3,1.5,0.6c0.1,0.1,0.3,0.4,0.4,0.4c0.2,0.1,0.5,0,0.7,0
			c0.4,0,0.8-0.1,1.2-0.2c0.2-0.1,0.4-0.1,0.5-0.1c0.5,0.1,0.8,0.7,1.3,0.7c0.3,0,0.5-0.2,0.7-0.2c0.2,0,0.4,0.2,0.5,0.3
			c0.4,0.3,0.7,0.6,1.1,1.1c0.3,0.4,0.5,0.7,1.1,0.5l0.1,0c0-0.3-0.1-0.5-0.1-0.8c0-0.3,0-0.5,0-0.8c-0.1-0.6,0-1.3-0.2-1.9
			c-0.2-0.6-0.4-1.3-0.6-1.9c-0.2-0.5-0.5-0.9-0.5-1.5c0-0.5,0.2-0.9,0.4-1.3c0.7-1.1,1.9-2.2,1.8-3.5c0-0.4-0.2-0.7-0.3-1.1
			c-0.2-0.4-0.1-0.9-0.2-1.3c-0.3-0.7-0.6-1.4-0.9-2.1c-0.2-0.4-0.4-0.7-0.6-1.1c-0.1-0.3-0.4-0.6-0.4-0.9c-0.2-0.5-0.3-1.1-0.5-1.6
			c-0.2-0.5-0.6-0.9-1.1-1.2c-0.5-0.5-1.2-0.9-1.5-1.6c-0.2-0.3-0.3-1,0.1-1.1c0.3-0.2,0.9,0,1.3,0c0.5,0,1.1,0,1.6,0
			c0.6,0,1.2,0,1.9-0.1c0.5-0.1,1.2-0.1,1.7-0.4C188.1,166.3,188.8,165.2,188.6,164.5z M50.6,13.5c0.3-0.5,0.1-1,0.1-1.6
			c0.1,0.3,0.3,0.5,0.4,0.8c0.1,0.3,0.2,0.6,0.2,0.9c0,0.3-0.4,0.5-0.6,0.6c-0.1,0-0.3,0.1-0.4,0C50.2,13.9,50.5,13.6,50.6,13.5z"/>
		<path class="st0" d="M127.2,55.4c-0.2-0.1-0.3,0-0.5,0c-0.1,0-0.2-0.1-0.4-0.1c-0.5,0.1-1,0.3-1.4,0.6c-0.2,0.2-0.3,0.5-0.5,0.7
			c-0.3,0.3-0.5,0.5-0.5,0.9c0,0.3,0,0.6-0.1,0.8c0,0.3-0.1,0.5-0.2,0.8c0,0.5,0.3,1.3,0.6,1.7c0.2,0.3,0.7,1,1.1,1.1
			c0.2,0,0.4-0.1,0.5-0.3c0.2-0.4,0.3-0.8,0.4-1.2c0.2-0.5,0.4-0.6,0.9-0.9c0.4-0.2,0.9-0.4,1.2-0.7c0.3-0.4,0.5-0.7,0.5-1.2
			c0-0.5-0.3-1.1-0.5-1.5C128.1,55.9,127.7,55.5,127.2,55.4z"/>
	</g>
</g>
</svg>
