<?xml version="1.0" encoding="utf-8"?>
<!-- Generator: Adobe Illustrator 26.0.3, SVG Export Plug-In . SVG Version: 6.00 Build 0)  -->
<svg version="1.1" id="Layer_1" xmlns="http://www.w3.org/2000/svg" xmlns:xlink="http://www.w3.org/1999/xlink" x="0px" y="0px"
	 viewBox="0 0 200 200" enable-background="new 0 0 200 200" xml:space="preserve">
<g id="Layer_1_00000049194939783189158720000006307407037836686221_">
	<g id="Layer_1_00000128480095285341338950000008464522443776971395_">
	</g>
</g>
<g id="Isolation_Mode">
	<g>
		<path fill="#1E8346" d="M71.776,54.473c-0.953-0.769,0.231-1.701,0.901-2.179c0.427-0.423,0.38-1.613,1.206-1.97
			c-0.673-0.223-1.563-1.062-1.133-1.776c-0.131-0.139-0.464-0.253-0.651-0.378c-0.034-0.391-0.519-2.091-0.81-0.971
			c-0.15,0.403-0.761,0.326-0.545-0.106c0.807-0.892-0.126-0.391-0.413-0.914c-0.068-0.186,0.012-0.445-0.17-0.579
			c-0.418,0.424-0.772,0.382-1.171-0.057c-0.197-0.11-0.493-0.03-0.572-0.288c-1.351-0.154-2.328-1.05-3.419-1.822
			c-0.415-0.184,0.052-0.854-0.464-0.832c-0.391,0.125-0.467-0.081-0.505-0.41c-0.331-0.949-1.15,0.242-1.649-0.5
			c0.524-0.45-0.117-0.76-0.532-0.886c-0.41,1.155-0.885-0.817-0.971-1.266c-0.301-0.504-1.377-1.616-0.575-2.103
			c0.22-0.054,0.325,0.098,0.484,0.234c1.225,0.888,0.318-1.411-0.41-1.495c-0.194,0.39-0.982,0.416-1.133,0.037
			c0.44-0.215,0.112-1.144-0.354-0.664c-0.436,0.226-0.28,0.773-0.597,1.078c-0.87,0.474-1.54-1.913-1.215-2.444
			c0.391-0.418-0.31-0.979-0.492-1.4c-0.306-0.911,0.171-3.107,1.03-3.407c0.553,0.632,0.976-0.012,1.489-0.31
			c0.324-0.132,0.676-0.023,1.007-0.076c0.41-0.067,0.398-0.391,0.598-0.658c0.405-0.28,0.737-0.613,1.08-0.972
			c1.914-0.541,2.484-2.424,2.966-4.082c1.002,1.001,1.405,1.724,2.971,1.234c1.235,0.68,0.34,3.862,2.325,3.265
			c0.621-0.093,0.704-0.757,1.202-0.931c0.324,0.197,0.559,0.089,0.899-0.055c0.585,0.011,1.039,0.502,1.632,0.549
			c-0.156-0.883,0.406-1.741,1.351-1.671c-0.052,0.995,0.181,1.431,0.792,2.101c-0.124,0.268-0.66-0.005-0.568,0.477
			c0.068,0.36,0.504,0.434,0.69,0.708c0.194,0.286-0.002,0.597,0.306,0.845c0.44,0.305,1.113,0.319,1.203,0.963
			c0.318,0.427,0.807,0.608,0.928,1.169c2.598-1.491,1.24,1.304,2.291,2.277c0.584,0.612,1.498,0.785,2.145,1.223
			c0.198,1.512,0.327,3.346,2.244,3.69c-0.299-0.837,2.094-2.372,1.864-0.954c-0.436,1.303,1.301,1.405,1.384,2.397
			c-0.429,0.748-0.423,1.166,0.48,1.429c0.639,0.746,0.233,1.86,1.639,2.052c-0.074,0.746-0.388,1.482-0.561,2.199
			c0.37,0.037,0.724-0.161,1.081-0.236c0.341,0.674-0.013,1.639,0.491,2.286c1.263,0.906,2.374,2.262,3.782,2.909
			c0.89,0.188,1.907-0.26,2.561,0.404c0.509,0.075,0.991-0.388,1.064,0.375c0.082,0.889,0.807,2.386,1.879,1.964
			c0.481-0.413,1.129-0.239,1.669-0.309c0.428-0.273,0.201-1.241,0.947-0.737c0.574,0.576,1.327,0.412,2.054,0.303
			c0.83-0.136,0.607,0.71,1.223,1.008c0.83,0.534,2.212,0.89,2.439-0.414c0.596-0.823,1.612,0.012,2.311-0.422
			c0.52-0.49,1.357-1.246,0.974-2.004c-0.238-0.349,0.009-0.432-0.001-0.757c-0.624-0.484-0.152-0.85,0.443-0.692
			c0.265-0.058,0.417-0.375,0.622-0.526c1.477-0.56,0.706-0.748,0.353-1.752c2.492,0.037,0.995-3.302,2.975-3.661
			c0.753-0.466,0.414-1.415,0.691-2.118c0.077-0.377,0.003-0.375,0.414-0.473c1.422-0.519,2.776-0.972,4.28-1.151
			c0.947-0.179,1.569-0.599,2.204-1.271c0.993-0.669,2.413-0.64,3.039-1.781c1.477-1.028,1.525-2.765,2.794-3.904
			c0.471-2.34,3.037-2.24,3.726-4.495c0.659-0.694,0.372-1.881,1.255-2.318c5.112,4.181,8.622,10.242,12.577,15.533
			c5.524,6.98,5.8,9.612,7.92,17.798c0.813,3.618,4.302,5.553,6.232,8.382c1.154,1.466,5.001,0.943,4.586,3.709
			c-1.263,3.134,0.761,7.37,4.512,6.754c1.303,1.539,1.847,1.701,3.923,1.388c2.232,0.799,4.344-0.074,6.474-0.707
			c1.049-0.155,2.312,0.133,3.239-0.419c0.19,0.075,0.142,0.355,0.127,0.541c-0.224,0.89,0.792,1.149,1.068,1.871
			c0.748,1.474,2.196,1.221,3.544,1.482c1.364,1.217,1.991,3.132,3.656,4c2.292,2.234,1.113,5.565,1.896,8.361
			c-1.428-2.606,0.315-3.422-3.802-4.731c-1.452-0.733-5.012-2.326-6.249-0.862c-0.908-0.234-1.856-0.239-2.474,0.624
			c-0.512,0.1-1.226,0.024-1.74,0.011c-0.497-1.113-1.887-2.02-3.132-1.412c-0.67,0.354,0.241,0.636,0.176,1.032
			c-1.055,0.698,0.358,2.059-1.232,1.388c-0.77-0.19-1.067,0.625-1.616,0.953c-0.516,0.129-0.914,0.383-1.418,0.535
			c-0.52,0.272-1.462-0.036-1.627,0.611c-0.256,0.398-0.842,0.278-0.719,0.909c-0.498-0.002-0.513,0.424-0.894,0.566
			c-0.275,0.103-0.562-0.385-0.717-0.085c-0.24,0.275-0.743,0.127-0.973,0.49c-2.295,1.448-4.9,1.595-2.825,4.845
			c-3.771-0.008-2.197,3.176-0.334,4.836c-0.463,1.028-1.815,1.194-2.392,2.149c-0.436,0.867,0.423,1.552,0.429,2.389
			c-0.068,0.464,0.157,0.772,0.356,1.167c0.058,0.442-0.58,0.576-0.788,0.923c-0.486,0.397-0.049,1.098-0.571,1.474
			c-1.05,1.295,0.301,3.231,0.746,4.57c0.114,0.949-1.761,1.236-2.206,2.062c-1.399,2.57-3.581,7.27-0.386,9.203
			c0.091,0.146,0.375,0.94,0.557,0.764c0.27,0.909,2.084,1.442,1.791,2.354c-0.217,0.305-0.321,0.481-0.324,0.866
			c-0.368,1.476,2.708,2.923,1.747,3.689c-0.515-0.341-1.067-0.798-1.672-0.799c-0.226,0.035-1.068,0.771-0.996,0.237
			c0.119-0.382,1.117-0.681,0.367-1.024c-0.663-0.393-0.923-1.506-1.891-1.457c-3.223-0.201-1.934,4.025-2.523,6.07
			c0.223,1.675-0.571,3.099-0.844,4.645c-0.023,0.372-0.628,1.34-0.364,0.554c0.19-0.694-0.321-1.154-0.904-0.726
			c-0.338-0.253,0.085-0.676,0.398-0.721c0.094-0.049,0.309-0.221,0.219-0.339c-0.17-0.223-0.559,0.322-0.72,0.316
			c-0.457-0.207,0.539-0.562,0.542-0.784c-1.357,0.019-2.381,2.078-3.781,1.239c-0.514-0.515,0.961-0.535,0.31-0.981
			c-0.018-0.096,0.055-0.151,0.109-0.22c0.76-0.657-0.422-0.352-0.549-0.77c-0.127-0.458,0.504-1.005,0.016-1.367
			c-0.494-0.351-0.839-0.187-1.32,0.107c-0.195,0.037-0.39-0.048-0.491,0.148c0.068,0.604-0.624,0.533-1.076,0.51
			c-0.744-0.473-0.728,0.716-1.31,0.856c-0.602,0.652-1.233,1.901-0.9,2.844c0.478,0.678,0.238,1.693-0.683,1.779
			c-0.08,0.351,0.405,0.158,0.547,0.331c0.78,0.834,0.919,1.955,0.22,2.884c-0.771,1.461-0.869,5.236-3.265,4.252
			c-0.008-0.033-0.006-0.093,0.004-0.125c0.701-0.222,1.012-1.059,1.725-1.243c-0.102-0.414-0.829-0.25-1.139-0.453
			c1.577-0.276,2.551-1.815,1.722-3.441c-2.157-0.547-2.031,2.893-2.663,4.274c-0.283,0.358-0.216,0.528,0.041,0.84
			c0.009,0.179-0.132,0.138-0.022,0.355c0.704,1.354,0.198,3.48,1.679,4.51c0.089,4.3-0.112,8.583,0.166,12.902
			c-2.411-1.362-3.863,1.56-6.072,1.788c-1.075,0.535-2.313-0.155-3.392-0.364c-0.951-0.56-0.692-1.838-1.391-2.6
			c-0.478-1.143-2.068-1.558-2.252-2.815c0.025-0.725-1.053-1.017-0.853-1.846c-0.141-3.029-3.808,0.564-5.264-1.192
			c-0.43-1.267-1.733-1.812-2.429-2.77c-0.091-0.484,0.287-0.933,0.164-1.424c-1.031-1.4-3.266-2.144-4.932-2.736
			c-0.51-0.885-1.318-1.346-2.184-1.858c-1.097-0.472-2.073-4.424-0.366-4.189c0.345,0.076,0.687,0.306,0.878-0.14
			c1.393-2.633,5.83,0.394,8.41-3.316c2.377-1.004,0.766-3.355-0.048-4.936c-1.254-0.91-2.437-1.532-3.287-2.888
			c-4.46-1.959-2.551-5.604,1.228-6.589c0.773-0.025,1.445-0.465,2.013-0.943c0.663-0.522,1.758-0.18,2.383-0.706
			c-1.728-3.127-4.816-5.353-6.901-8.262c-1.91-2.187-3.491-5.504-6.491-6.19c-1.822,3.526-3.044,1.772-5.751,2.27
			c-1.108,0.57-1.766,1.59-2.515,2.518c-0.425,0.332-1.007,0.116-1.454,0.359c-0.638,0.348-0.919,0.932-1.687,1.076
			c-0.95,0.414-1.749,1.266-2.464,2.032c-1.694,1.508-4.107,1.272-6.064,2.277c-1.241,0.712-1.497,2.098-2.74,2.808
			c-0.622,0.568-0.509,1.308-1.383,1.672c-0.88,0.262-1.542,0.85-2.207,1.446c-0.774,0.549-2.037,0.329-2.705,0.874
			c-0.76,1.027-1.96,1.786-2.761,2.793c-0.009,0.772-0.245,1.48-0.801,2.027c-2.848,5.049-3.289-1.114-6.3,1.981
			c-1.561,1.465-3.295,2.858-3.596,5.066c-2.399,1.845-4.027,4.627-6.465,6.555c-1.582,1.454,0.252-2.721-0.804-3.183
			c-0.232-0.26-0.478-0.395-0.415-0.774c0.331-0.555,0.53-1.116,0.617-1.75c0.382-0.29,0.656-0.622,0.485-1.136
			c-0.207-1.069,1.509-1.264-0.266-2.019c-0.488-0.521,0.077-1.276-0.633-1.73c-0.364-0.383-1.084-1.025-0.671-1.614
			c-0.434-0.239-0.971-0.283-1.406-0.485c0.123-0.771-1.309-1.358-0.163-1.869c1.039-0.429,1.188,0.958,1.999,1.019
			c0.005-0.029-0.389-1.926,0.378-1.245c0.296,0.499-0.024,1.404,0.405,1.917c0.352-0.402,0.503-0.929,1.048-1.173
			c0.495-0.337,0.813-0.417,0.449-0.958c0.458-0.39,1.281-0.165,1.672-0.782c-1.082-0.398-2.312-0.647-3.046-1.609
			c-0.476-0.848,0.147-1.929-0.588-2.673c-0.247-0.523-0.462-0.84-1.001-0.354c-1.793,0.93-4.361-4.332-2.604-4.986
			c3.019,0.913,1.692-1.292,3.28-0.863c0.295,0.129,1.259,0.969,1.192,0.121c-0.054-0.69-1.497-1.137-1.024-1.829
			c0.36-0.526,1.198-0.876,1.801-0.922c0.054-1.114-1.346-1.714-2.291-1.976c-0.576,0.513-1.505,0.822-2.215,0.281
			c-0.483-0.412,0.322-2.284-0.714-1.798c-0.201,0.118-0.156,0.345-0.491,0.177c-0.768-1.854-3.206-0.067-4.477,0.257
			c-1.236,0.536-1.434-0.247-2.363,1.049c-0.552-1.075-0.276-2.455-1.367-3.235c-0.289-0.252-0.909-1.5-1.363-1.375
			c-0.494,0.576-0.963,0.124-0.969-0.322c1.114-0.588-2.076-2.849-2.399-3.699c-0.539-0.718-1.438-0.471-2.205-0.772
			c-1.293-0.626-3.623-1.31-3.794-2.88c0.195-0.772-0.35-1.3-0.53-1.917c0.074-0.354,0.374-0.397,0.288-0.849
			c-0.304-1.228-1.788-0.739-2.614-1.243c-0.928-1.011-2.284-0.828-3.324-1.368c-1.929-1.82,1.616-2.03,2.784-2.399
			c1.285,0.196,1.687,0.368,3.035,0.45c0.971,0.482,0.997,2.25,1.946,0.606c0.995-0.75,2.343-2.009,2.094-3.304
			c0.051-0.799,0.966-0.609,1.43-1.01c0.525-1.976,1.971-3.854-0.132-5.499c1.051-1.049-0.428-2.164-1.611-2.097
			c-1.522-0.451-2.813-1.354-4.318-1.852c-1.128-0.82-1.866-1.671-3.35-1.791c-0.9-0.526-1.096-1.509-1.932-2.086
			c-0.447-0.401-0.801-0.384-1.373-0.509c-1.114-0.224-1.242-1.585-1.942-2.248c-1.125-0.099-2.154-1.399-2.18-2.531
			c0.261-0.38,0.094-0.793,0.31-1.18c0.301-0.411,0.818-0.637,0.139-1.216c-2.584-0.892-0.846-0.818-2.021-2.176
			c-0.436-0.619-0.239-0.824,0.088-1.435c0.19-0.355,0.06-1.277,0.716-0.865c0.605-0.13,0.248-1.006,0.652-1.351
			c0.508-0.433,1.086-0.224,1.66-0.555c2.043-0.837,5.171-3.05,4.018-5.625c-0.182,0.021-0.477,0.156-0.656,0.213
			c-0.482-1.027-1.636-1.465-2.53-2.085c-0.584-0.514-0.3-1.762-1.128-2.03c-0.178,0.093-0.329,0.239-0.467,0.383
			c-0.426-0.336-0.644-0.829-0.727-1.342c0.754-0.3,0.762-0.846,0.178-1.351c-1.918,0.863-3.019,1.741-4.213-0.608
			c-1.506-0.455-0.765,2.511-2.367-0.059c-0.232-0.777-1.121-0.608-1.555-1.006c-0.1-0.514-0.142-2.072-1.037-1.406
			c-0.317,0.283-0.353,0.703-0.446,1.072c-0.43,0.462-1.064-0.177-1.54,0.294c-0.416-0.037-0.062-0.509,0.026-0.716
			c0.116-0.701,0.308-1.63,1.111-1.815c0.659,0.141,1.253,0.121,1.872-0.222c0.522-0.161,1.037,0.18,1.264-0.475
			c0.739-1.992-1.804-1.637-2.328-3.205c-1.202,1.348-2.091-0.255-3.333,0.377c0.045-0.33,0.281-1.231,0.766-1.13
			c1.746-0.64-2.454-3.136,0.448-4.023c1.065,0.079,1.177-0.514,0.594-1.273c1.315-0.39,2.878-0.792,3.465-2.273
			c0.046-0.154,0.376-0.45,0.549-0.462c0.261,0.067,0.476,0.329,0.581-0.119c0.546,0.365,0.664,1.32,1.142,0.157
			c-0.017-0.441-0.267-0.925,0.325-1.037c0.477-0.514,1.712-1.245,2.411-0.916c1.112,0.084,1.172,1.391,2.089,1.766
			c1.023,0.61,1.486-0.435,2.276-0.852c1.197,0.376,2.066,1.368,3.387,1.358c0.878,0.234,0.158,1.591,1.172,1.509
			c1.179,0.019,2.141,0.899,3.262,0.982c0.502-0.239,2.191,0.245,1.808,0.928c-3.474,2.075,0.022,3.359,1.744,5.081
			c1.339,0.256,2.493,0.668,3.475,1.629c1.567,0.447,3.339,0.607,4.927,0.279c0.384-0.072,0.953-0.122,0.843,0.449
			c1.308,0.566,1.019-1.746,2.407-0.885c0.303,0.275,0.702,0.262,1.09,0.256c0.275,0.057,0.576,0.04,0.846,0.057
			c0.172,0.243,0.275,0.725,0.659,0.375c1.077-0.854,1.676,0.853,2.379,1.415c0.463,0.401,1.039,0.537,1.31,1.149
			c0.532,2.145,2.748-0.144,3.145,2.228c0.109,0.362,0.197,0.906,0.735,0.784c4.223-5.368,3.057,0.25,5.645-2.542
			C71.567,56.276,70.883,55.192,71.776,54.473z"/>
		<path fill="#1E8346" d="M151.737,149.072c1.839-0.222,3.17-1.988,4.392-3.236c0.404,1.704-0.02,3.455-1.554,4.393
			c-0.769-0.151-1.491,0.365-2.234,0.31C151.854,150.143,151.023,149.821,151.737,149.072z"/>
		<path fill="#1E8346" d="M5.99,114.868c1.473-0.157,2.864-0.527,4.225-1.024c0.806,1.639,1.795,0.781,3.078,0.342
			c1.387,0.139,1.754-1.54,2.936-1.9c2.021,0.389,2.427,2.945,3.397,4.417c0.83,0.476,0.317,0.964,0.459,1.674
			c0.222,0.703-0.626,1.406-0.173,2.12c0.592,1.056,1.549,0.602,2.009-0.268c0.6-0.381,2.368-0.217,2.229,0.797
			c-0.37,1.046,0.492,1.688,1.26,2.203c3.968,0.617,3.067,3.732,6.614,0.133c0.969-0.816,2.113-1.257,3.358-0.943
			c0.841,0.022,1.297-0.79,1.999-1.123c1.151-0.457,2.372,0.404,3.348,0.923c1.392,1.467,0.21,3.383,0.92,5.046
			c0.307,0.72-0.615,0.993-0.9,1.604c-0.291,0.623-0.566,1.787-0.098,2.387c0.636,0.794,1.857,0.098,2.559,0.727
			c0.373,0.386,0.432,0.913,1.057,1.01c0.451,0.07,0.656,0.061,0.972,0.455c0.427,0.812,1.384,0.985,2.144,1.384
			c1.389,0.269-0.776,2.661-0.104,3.989c0.082,0.794,0.526,1.478,0.816,2.198c0.078,1.94-0.383,1.832,1.381,3.049
			c1.137,3.307,2.135,6.74,2.115,10.308c-0.617-0.455-1.18-1.041-1.918-1.325c-0.267-0.418-0.529-0.879-1.03-0.457
			c-1.588,0.414-2.892-1.548-4.449-0.643c-1.131,0.295-1.727-0.82-2.643-1.141c-1.499-0.018-2.94-0.694-4.382-0.942
			c-0.87-0.262-1.395-1.028-2.402-0.993c-1.277,0.163-1.935-0.607-2.857-1.273c-0.312-0.117-0.388-0.003-0.661,0.108
			c-0.995-0.013-2.359-0.575-3.099-1.288c-0.31-0.476,0.06-0.932,0.095-1.416c-1.039-1.485-2.436-2.962-3.27-4.711
			c-0.232-2.17-2.454-1.582-3.805-2.53c-0.445-0.574-1.322-0.363-1.709-0.968c-0.157-0.54-0.537-0.881-0.91-1.259
			c-1.041-3.407-3.791-5.91-6.361-7.964c0.604-0.993-0.946-0.8-0.672-1.942c-0.323-0.774,0.071-1.627-0.767-2.064
			c-0.375-0.913-0.01-1.929-0.56-2.782c0.085-0.737-0.121-0.73-0.647-0.991c0.199-1.011-0.834-0.495-1.429-0.545
			c-1.786-0.482,0.507-1.349-0.361-2.017C7.269,116.488,6.579,115.672,5.99,114.868z"/>
	</g>
</g>
</svg>
