<?xml version="1.0" encoding="utf-8"?>
<!-- Generator: Adobe Illustrator 26.0.3, SVG Export Plug-In . SVG Version: 6.00 Build 0)  -->
<svg version="1.1" id="Layer_1" xmlns="http://www.w3.org/2000/svg" xmlns:xlink="http://www.w3.org/1999/xlink" x="0px" y="0px"
	 viewBox="0 0 200 200" enable-background="new 0 0 200 200" xml:space="preserve">
<g id="Layer_1_00000168117734292814264830000005243781006169313200_">
	<g id="Layer_1_00000128480095285341338950000008464522443776971395_">
	</g>
</g>
<g id="Isolation_Mode">
	<g>
		<path fill="#1E8346" d="M113.352,101.508c-0.793,0.236-2.509-0.897-2.702,0.5c-0.096,0.611-0.093,1.051-0.586,1.446
			c-0.81,0.406-1.514,1.009-1.252,2.008c0.558,1.924-0.396,4.216,0.887,5.884c2.11,1.907,0.091,3.222,0.554,5.406
			c-0.145,2.22,1.104,4.61,0.621,6.731c-0.961,4.229,1.555,2.103,3.06,4.996c1.906,1.394,1.668,4.22,3.769,5.229
			c1.405,0.732,2.327,1.963,3.749,2.663c1.368,0.966,1.878,3.084,3.493,3.737c0.66-2.469,3.824-3.922,3.909-6.258
			c-0.1-0.645-0.563-0.999-0.757-1.606c-0.145-1.701,1.984-2.218,3.308-2.101c0.758-0.705,0.929-0.335,1.579,0.209
			c0.224-0.309,0.425-0.7,0.746-0.915c0.376,0.399,0.396,0.777,0.454,1.307c0.089,0.819,1.015,0.836,1.584,1.274
			c1.205,0.928,1.965,2.219,3.044,3.252c1.798,1.218,2.519,3.081,2.87,5.167c1.743,1.482,1.127,3.536,1.598,5.565
			c0.367,1.793,1.65,0.895,1.267-0.431c-0.232-0.39-0.813-0.265-0.577-0.928c0.364-0.895,1.6-0.734,1.962-1.645
			c0.149-0.277,0.343-0.797,0.667-0.86c0.275,1.519-1.288,1.812-2.069,2.595c-0.17,0.497,0.769,0.79,0.641,1.432
			c-1.672,2.164-0.049,3.401,0.85,5.423c0.3,0.814-0.226,2.476,0.406,3.096c2.09,3.778,0.26,6.389-0.331,10
			c0.509,0.65,0.697,1.244-0.043,1.79c-0.413,0.727-0.047,1.684-0.7,2.331c-0.253,0.306-0.407,0.353-0.174,0.717
			c0.446,0.451,1.045,0.875,1.75,0.72c3.19,0.575,1.773-3.093,3.212-4.685c-0.255,1.653,0.1,3.535-0.654,5.053
			c-1.06,0.601-0.384,1.67,0.221,2.42c0.851,0.982,1.623,1.909,1.56,3.173c-0.011,2.956,0.587,5.83,3.018,7.731
			c2.301,3.399,3.124,8.418,6.577,10.896c0.392-3.786-3.753-6.441-3.026-10.215c0.046-1.224-0.781-2.374-1.936-2.696
			c-0.608-0.367-0.018-0.559-0.221-1.053c-0.244-0.595-0.69-0.261-0.667-1.082c0.019-0.687,0.404-0.796,0.774-1.299
			c0.826-1.127-0.809-2.856,0.332-3.515c1.724-0.329,1.803-1.506,1.594-2.995c1.373,0.153,1.827,0.359,2.414-1.057
			c1.138-1.177,2.174,0.864,2.356,1.807c0.014,1.514,0.793,1.455,2.065,1.406c2.09-2.409,2.027,2.422,2.662,3.692
			c0.627-0.12,1.862-0.596,2.395-1.013c-1.621-3.432-1.425-6.639-2.017-10.423c-0.433-0.504-0.026-2.387-0.069-3.09
			c-0.418-1.963,0.229-3.719,0.808-5.518c-0.429-1.866-0.753-3.848-1.019-5.781c-0.222-0.609-0.926-1.242-0.781-1.943
			c0.34-0.034,0.685,0.1,0.997,0.226c0.092-4.571-1.665-9.084-2.419-13.58c0.155-1.81,0.522-4.114-0.696-5.646
			c-2.055-1.699-0.427-4.967-3.165-6.295c-1.057-1.698,0.844-3.573-0.988-5.31c0.571-1.769-1.951-5.417,1.268-4.509
			c0.302-1.281-0.891-2.271-0.762-3.527c-0.996-0.593-1.114-2.007-1.576-3.024c0.256-2.621-0.75-4.909-1.164-7.433
			c-0.048-0.464-0.322-1.995-1.13-1.386c-0.395,0.635-0.066,1.822-0.721,2.356c-1.524-1.733-2.69-1.893-3.909,0.374
			c-0.883-0.082-1.961-0.364-2.564-1.07c-0.453-0.53-0.053-1.574-0.738-1.856c-2.698-0.014,1.76,6.908-0.527,8.577
			c-0.026,1.085-0.894,1.201-1.778,1.379c-0.979,0.329-1.036,0.981-1.639,1.701c-1.069,1.278-1.691,1.237-1.97,2.28
			c-0.072,0.269-0.013,0.289,0.469,2.305c0.553,2.319,0.483,2.326,0.703,2.725c0.531,0.957,1.192,1.556,0.099,2.054
			c-0.52,0.158-0.99,0.271-1.04,0.873c-0.608,0.615-1.286,0.886-1.646,1.685c-0.592,0.82-2.09,0.226-2.342,1.11
			c-0.745,0.34-0.72-0.237-1.213-0.52c-1.316-0.149-1.83-0.329-1.481-1.856c0.052-1.358-0.795-2.304-1.417-3.289
			c0.285-1.299-0.513-2.039-1.283-2.984c-0.034-0.738-0.724-1.4-1.426-0.755c-1.304,1.605-0.018,3.751,0.339,5.394
			c-1.765,3.232-2.705-3.612-2.261-4.858c-1.077-1.941-0.307-3.405-1.488-5.564c-0.53-1.217-0.402-2.499-1.787-3.111
			c-0.58-0.652-0.421-1.555-0.956-2.268c-0.717-0.533-1.564-2.943,0.069-2.226c1.4-1.352-3.66-1.467,0.588-3.063
			c0.519-0.887,0.363-1.997,1.026-2.847c0.268-0.945-0.646-1.648-0.139-2.631c0.663-1.015,1.136-2.557,2.629-2.33
			c3.892,0.403,0.11-4.222,2.297-3.921c1.587,0.015,2.989,1.336,4.544,1.503c0.432,0.006,0.46-0.245,0.684-0.574
			c1.898-0.526,1.609-3.013,1.661-4.484c0.969-1.468,0.374,3.215,2.892,2.64c0.064-0.916,0.042-1.889-0.128-2.774
			c0.802-0.128,2.436,1.455,2.966,0.392c1.285,5.692,1.872,0.422,2.416-1.807c-0.172-1.383-0.842-3.151,1.401-2.156
			c-0.073-3.548,3.578,0.967,4.853-2.552c0.962-0.249,0.58-1.301,0.355-2.011c-0.472-1.694,0.294-1.91,1.495-0.942
			c1.704-0.268,0.163-3.802,0.911-5.095c0.272-0.989,0.798-0.86,1.398-1.499c0.605-0.645,0.412-2.451,0.079-3.213
			c-1.042-1.114-2.23-2.286,0.129-2.646c1.231,0.102,2.006,1.655,2.965,2.17c1.058-0.505,1.817-1.029,3.091-1.354
			c-0.123-2.113-0.128-2.12-2.02-3.092c-0.268-1.572-1.52-2.06-2.565-3.077c-0.765-0.525-2.197-0.087-2.961-0.554
			c-0.445-0.272-0.705-1.576-1.329-1.556c-0.473,0.015-0.185,0.614-0.915,0.485c-1.215-0.858-2.714-2.922-4.54-2.128
			c-0.525,0.271-0.402,0.648-1.185,0.645c-1.952,0.095-5.565-1.349-6.601,0.87c-0.448,0.011-0.649-0.327-1.081-0.314
			c-0.922,0.295-2.733,1.906-3.113,0.114c-0.039-0.55,0.46-0.556-0.293-0.743c-1.266-0.125-2.326,1.438-3.683,0.918
			c-1.248-1.357-3.578-0.511-5.06-1.545c-0.727-1.23-2.287-0.267-3.449-0.313c-2.979,0.015-5.991,0.755-8.94,1.145
			c-1.727-0.594-2.382-1.773-3.877,0.184c-0.605-0.672-1.515-0.445-1.99-1.203c-2.18,0.307-4.57,0.118-6.375,1.688
			c-0.648-0.058-2.283-0.396-2.331-1.21c-1.669-0.889-3.565-0.779-5.392-0.985c-2.903-0.145-5.091-2.895-7.997-2.737
			c-1.692,1.166-2.249-0.483-2.179-1.913c-0.373-3.726,2.904-8.247,0.146-11.355c-3.031,0.832-0.606,5.273-0.851,7.487
			c-1.137,1.77-2.51,3.864-2.817,5.966c0.291,0.578,0.421,1.171,0.349,1.831c0.035,1.014,0.865,2.141,0.334,3.122
			c-0.199,0.368-0.409,0.49-0.422,0.958c1.193,3.087-3.67,4.925-2.017,8.163c0.971,1.404,2.588,2.461,2.958,4.303
			c0.962,1.728,2.452,2.9,2.251,5.12c-0.071,3.342-0.837,6.473-0.421,9.853c-0.22,1.916-1.583,4.33-0.843,6.141
			c-1.068,2.501-0.356,5.535,0.358,8.088c1.574,1.501,3.78,1.929,5.624,2.871c0.424,0.522,0.771,1.134,1.324,1.547
			c1.815,0.964,1.808,3.361,3.357,4.412c2.018,0.442,4.012,1.658,5.611,2.986c0.818,1.006,1.816-0.095,2.617-0.471
			c1.615,0.394,2.309,3.698,4.15,1.008c-0.457-1.527,0.762-3.48-0.262-4.885c-0.049-0.539,0.786-0.76,1.106-1.168
			c0.417-0.532,0.551-1.22,0.842-1.814c0.313-0.641,0.309-0.187,0.779-0.237c0.472-0.05,0.801-0.708,0.985-1.07
			c2.328-2.037-0.299-3.799,0.936-5.443c0.335,0.784,0.079,2.278,0.746,2.891c0.885,0.679-0.681,1.195-0.57,1.951
			c0.055,0.663,0.754,0.086,1.002,0.44C114.107,100.526,113.671,101.38,113.352,101.508z"/>
		<path fill="#1E8346" d="M145.931,156.789c-0.982,1.615-0.851,3.37-0.8,5.228C146.326,162.324,147.517,157.205,145.931,156.789z"/>
		<path fill="#1E8346" d="M133.558,135.047c-1.869,1.629,0.074,6.723,2.576,6.455C138.826,140.726,135.414,134.852,133.558,135.047z
			"/>
		<path fill="#1E8346" d="M132.168,132.537c-0.215-0.626-1.072-1.282-1.613-1.617c-0.842,0.41-1.882,1.183-0.941,2.131
			C130.22,133.792,132.416,134.153,132.168,132.537z"/>
		<path fill="#1E8346" d="M131.182,135.002c-1.478,1-2.783,2.346-2.967,4.166c-1.089,0.704-1.88,1.472-0.151,1.977
			c0.933-0.029,0.841-0.951,1.243-1.459C130.882,139.228,132.821,136.236,131.182,135.002z"/>
		<path fill="#1E8346" d="M132.437,141.323c-0.459,0.427-1.804,1.406-0.441,1.828C132.837,143.315,133.581,141.762,132.437,141.323z
			"/>
		<path fill="#1E8346" d="M123.068,141.861c-0.401,3.11-0.196,6.411-2.114,9.1c-0.627,0.472-1.202,1.763-0.473,2.331
			c0.943,0.123,1.471-0.975,1.907-1.644c0.471-0.742,1.269-0.845,1.958-1.277C127.114,148.166,127.268,142.399,123.068,141.861z"/>
		<path fill="#1E8346" d="M120.333,144.103c-0.673,1.028-4.161,10.596-0.754,5.817C120.723,148.387,121.531,145.849,120.333,144.103
			z"/>
		<path fill="#1E8346" d="M118.529,139.317c1.8-1.232,4.355,1.541,2.758,3.163C119.564,143.412,117.972,141.007,118.529,139.317z"/>
		<path fill="#1E8346" d="M116.445,136.157c0.493,2.914,1.508,2.754,4.046,2.388c0.819-0.659-0.774-1.09-1.289-1.074
			C118.165,137.316,117.748,136.358,116.445,136.157z"/>
		<path fill="#1E8346" d="M66.684,162.281c0.092-0.732-0.939-1.137-1.36-1.546c-0.545-0.529-0.16-1.34-0.607-1.933
			c-0.307-0.407-0.442-0.619-0.47-1.146c-0.015-0.288,0.077-0.95-0.251-1.076c-0.82-0.395,0.176,2.718-0.036,3.314
			C63.833,160.663,66.475,164.239,66.684,162.281z"/>
		<path fill="#1E8346" d="M54.796,82.989c-0.719-5.185-7.756-1.846-10.537-4.689c-0.282-0.425-0.368-1.006-0.707-1.367
			c-0.463-0.33-0.866-0.522-0.888-1.134c-0.589-1.141-2.425-0.13-3.147,0.433c-1.46-0.843-0.399-3.335-1.034-4.737
			c-0.838-1.911-6.808-0.163-3.178-3.384c-0.082-1.694,1.898-2.275,2.337-3.912c1.011-1.035,1.186-1.377,0.161-2.445
			c-0.437-0.879,2.19-1.512,2.482-0.661c0.347,0.913,2.974,3.002,3.235,1.355c-0.395-0.497-0.638-1.115,0.037-1.499
			c1.102-0.347,1.799-0.778,2.312-1.843c0.289-0.38,1.02-0.548,0.978-1.127c-0.168-0.622-0.931-0.913-0.475-1.625
			c0.369-1.023,0.311-2.23,0.338-3.266c1.205-2.221,3.16,1.368,4.839-0.195c3.035-1.794,4.059,1.595,5.907,0.158
			c0.871-1.541,1.78,0.849,3.089,0.365c1.241-0.292,0.659-1.886,1.26-2.678c1.132-0.057,1.686-1.161,0.436-1.395
			c-0.746-0.125-1.241-0.015-1.809-0.584c-0.608-0.556-1.535-0.47-2.017-1.23c-0.438-0.737-1.087-1.499-0.82-2.417
			c0.535-1.085-0.242-1.892-1.034-2.539c-1.756-0.628-2.764,3.273-5.209,0.218c-2.265,0.145-2.927-2.232-4.71-2.921
			c-0.055-2.655-0.22-1.984-2.129-3.374c-0.63-1.267-2.376-1.257-2.91-2.648c-0.243-0.404-0.38-1.029-0.978-0.92
			c-0.65,0.319-1.258,0.678-2.019,0.533c-0.571,0.506-1.209,0.221-1.713-0.218c-0.566-0.599-0.327-1.779-0.568-2.513
			c-0.134-0.409-0.524-0.738-0.373-1.191c0.167-0.502,0.811-0.735,1-1.228c0.172-0.448,0.112-1.173,0.491-1.526
			c0.363-0.339,1.094-0.208,1.299-0.735c-0.559-3.377-0.458-4.915,3.276-5.943c1.228-0.471,1.851-0.518,1.928-2.023
			c0.064-1.249,0.973-1.26,1.707-2.034c0.662-1.207,0.776-1.14,2.009-0.736c1.582-0.774,0.142-2.828-0.634-3.701
			c-0.438-0.346-1.164-0.275-1.696-0.373c-0.742-0.34-1.259-0.144-1.693,0.552c-1.346-1.229,1.235-4.466,2.047-5.672
			c0.163,1.041-0.237,3.412,1.392,3.364c0.49,0.3,0.853,0.768,1.492,0.855c0.444,0.374,0.54,0.95,1.24,0.84
			c0.312,0.503,0.786,0.792,1.394,0.525c0.798,1.363,2.349,2.515,2.718,4.012c-2.286,3.645,0.119,2.393,2.268,1.208
			c0.985-0.075,0.933,1.128,1.155,1.755c0.222,0.627,1.714,1.382,1.667,0.317c-0.602-2.477,1.462-0.621,2.461-0.07
			c3.185,0.447,3.908-0.663,1.201-2.731c-0.687-0.7-2.228-0.933-2.53-1.942c-0.294-1.554,0.682-2.449,2.066-1.512
			c1.025,1.614,3.926,1.206,3.442,3.572c-0.059,1.196,0.609,2.02,1.039,3.07c0.417,1.021-0.159,2.24,0.967,2.876
			c1.571,0.422,2.662,1.251,3.318,2.78c0.878,1.069,2.651,1.536,3.764,0.627c0.389-0.006,0.526,0.247,0.798,0.48
			c0.598,0.649,1.567,0.341,2.295,0.455c0.734,1.282,2.367,1.451,2.107-0.443c0.754-1.258,2.582-1.579,0.366-2.871
			c-0.664-0.98-0.138-1.735,0.827-2.132c0.131-1.766,1.579-1.437,2.125-0.063c-0.115,0.835,1.415,1.042,1.535,1.952
			c0.681,0.888,0.925,1.911,1.269,2.957c0.784,0.907,0.633,1.645-0.391,2.348c-2.514,2.092-1.128,5.789-2.839,7.997
			c-0.552,1.405,0.222,4.103-1.238,4.829c-3.121,0.185-2.176-4.314-3.984-5.988c-0.667-0.98-1.676-1.455-2.6-2.135
			c-1.181-1.153-2.162-2.811-4.085-2.354c-4.655-0.113-2.672-9.087-7.076-9.833c0.133,2.515,2.586,8.805,5.033,9.71
			c3.524,2.052,9.098,3.221,9.039,8.267c-0.003,0.593,0.478,1.004,0.74,1.523c0.278,1.031,0.67,2.003,1.93,1.794
			c1.863-0.271,1.146,1.794,0.692,2.832c-0.567,1.145-0.66,2.416-0.986,3.623c-1.32,2.371,0.59,5.886-0.6,8.291
			c-0.579,1.009-0.46,1.795-0.408,2.939c-0.623,5.167,2.899,9.581,3.356,14.521c0.16,1.79,1.655,2.854,1.878,4.635
			c0.32,2.497-0.895,4.839-1.534,7.142c-0.594,0.748-1.071,1.176-1.125,2.182c-0.084,2.965-0.727,6.21,1.617,8.569
			c-0.002,0.454,0.082,0.53-0.374,0.628c-5.629,0.235-9.191-5.333-14.912-5.119c-3.05,0.28-3.911-2.792-5.356-4.766
			C59.524,84.627,58.11,90.014,54.796,82.989z"/>
		<path fill="#1E8346" d="M77.241,156.514c-0.2,0.561-0.742,0.54-1.243,0.791c1.44,0.787,0.055,1.094-0.131,2.039
			c1.513,1.449-0.881,4.628-2.522,3.319c-1.168-1.966,0.336-3.592,0.546-5.514c-0.54-1.294-1.289-2.709-0.54-4.136
			c0.118-0.349,1.116-1.072,0.607-1.31c-0.869,0.902-1.05,1.904-1.525,2.941c-0.417-0.786-1.252-1.35-1.253-2.314
			c-0.042-0.317,0.438-0.52,0.168-0.817c-0.196-0.204-0.752-0.083-0.86-0.392c0.263-0.772,0.957-1.673,1.694-2.074
			c0.808,0.02,0.191-0.762-0.106-1.075c-0.354-0.794-1.536-0.281-1.96-0.899c-0.564-0.819,0.826-1.432,0.724-2.05
			c-0.878-0.25-0.891,1.632-1.363,2.106c-0.027,0.263-0.273,0.673-0.021,0.881c1.923-1.299,3.177,0.457,1.229,1.968
			c-0.258,0.7-1.257,1.786-1.724,0.676c-0.031-0.179-0.048-0.617-0.35-0.43c-0.599,0.963,1.188,1.868,0.909,2.857
			c-0.041,0.526-0.822,0.733-0.66,1.277c0.958,0.803,0.096,0.629-0.327,1.243c-0.057,0.197-0.089,0.668,0.202,0.66
			c2.577,0.646,1.192,2.63,2.084,4.44c0.17,1.22-0.472,2.473-0.166,3.563c-0.41,0.792-1.27,0.851-2.086,0.772
			c1.578-2.067-0.933-4.105-0.375-6.405c-0.255,0.541-0.512,1.288-1.034,1.631c-1.12-1.343-2.495-2.63-2.053-4.569
			c0.07,0.018,0.168-0.023,0.24,0.001c0.404-2.296-3.082-4.328-0.14-5.99c-0.919-0.768-0.59-2.704-1.641-3.559
			c-0.566-0.254-1.618-0.541-0.607-1.1c0.426-0.536-0.435-0.913-0.661-1.296c-0.387-0.821-0.325-2.003-0.247-2.862
			c0.904-1.005,0.347-2.262-0.341-3.215c-2.039-2.18,0.004-1.81-0.513-2.989c-1.179-0.49-0.34-1.354-0.058-2.193
			c0.263-1.145-1.984-2.033-0.42-2.869c0.588-0.293,0.89-0.176,0.934-0.945c0.478-2.41-1.673-1.602-1.916-3.594
			c-0.142-1.175-1.362-0.017-1.042-1.62c-0.288-0.787-0.103-1.145,0.319-1.869c0.118-0.541-0.143-0.985-0.129-1.514
			c0.03-1.204,1.495-1.221,1.958-2.104c-0.126-1.058,1.4-1.079,1.459-2.073c-0.563-0.021-1.297,0.213-1.818,0.411
			c-0.884-1.635-2.512-1.324-3.79-0.408c-0.749-0.881-2.298-0.743-2.469-2.141c-0.108-0.742,0.591-0.774,0.798-1.414
			c-0.024-0.723,0.736-0.87,0.71-1.513c-0.096-0.511-0.447-0.653-0.287-1.209c0.135-0.581,0.508-0.997,1.103-0.984
			c0.479-0.376,0.651-1.71,0.093-2.066c-0.613-0.272-0.756,0.554-1.195,0.765c-0.571,0.275-0.642-0.365-1.03-0.724
			c-0.491-0.453-1.041-0.844-1.491-1.338c-0.626-0.473-0.298-1.309-0.628-1.865c-0.43-0.371-1.233,0.124-1.628-0.413
			c-0.035-0.574-0.552-0.707-0.827-1.109c0.012-0.555,0.33-1.107,0.277-1.685c0.216-0.662,0.838-0.792,0.588-1.634
			c-0.982-1.084,0.483-1.542,0.01-2.758c-0.217-0.727,0.87-0.469,1.345-0.493c0.834-0.043,0.99-0.783,1.654-1.121
			c0.854-0.435,1.239-0.687,1.304-1.727c1.381-2.675-2.437-5.294-0.047-5.939c0.788-0.051,1.199,0.562,1.707,1.033
			c1.726,2.189,4.936-2.006,6.209,1.156c0.379,5.538,6.55,4.07,10.172,5.746c3.365,3.002,8.299,3.509,12.532,3.989
			c1.763,1.05,1.906,3.697,3.251,5.204c1.114,1.677,4.362,0.291,5.436,2.225c0.736,0.667,1.098,1.849,2.177,1.924
			c1.239,0.091,2.133,0.783,3.195,1.347c2.058,1.382,3.33,3.9,6.051,4.289c0.759,0.156,1.899,0.345,2.334,1.063
			c0.145,0.816,0.84,0.95,1.448,1.254c0.429,0.525-1.295,1.79-1.676,2.127c-0.806,0.975-1.842,2.277-1.639,3.586
			c0.04,0.354,0.129,0.268-0.27,0.5c-3.238,2.238,4.314,3.079-0.891,5.62c-0.421-1.293-0.491,0.395-0.315,0.847
			c0.121,0.813-0.678,1.139-0.634,1.842c0.305,0.511,1.134,0.274,1.347,1.007c1.68,0.832,0.881,2.702,0.953,4.217
			c-0.304,1.108,0.884,0.874,1.453,1.416c2.059,1.305,1.609,1.855,1.006,3.762c0.577-0.246,0.943-0.717,1.353-1.128
			c0.186,0.265,0.109,0.94,0.28,1.056c-0.399,4.915-3.795,8.81-7.172,12.104c-0.376,1.153-1.818,2.583-1.419,0.31
			c0.267-0.496,0.99-0.565,0.981-1.225c-2.175,1.371-2.844,4.827-3.898,7.222c-0.244,0.896-0.273,1.248-1.297,1.361
			c-1.171,0.184-3.274,0.199-3.366-1.348c0.074-0.468,0.87-0.687,0.719-1.277c-0.793,0.054-1.177,1.236-1.973,0.593
			c-0.537-0.433-0.496-1.719-0.204-2.293c1.447-1.561,1.911-4.208,3.965-5.175c3.543-0.531,1.027-4.711,1.537-7.046
			c0.735,0.293,1.668-0.656,0.478-0.602c-3.183,0.843,0.893,5.395-1.733,7.124c-2.316,0.47-2.92,2.813-4.141,4.453
			c-1.139,0.409-1.827-1.294-0.721-1.762c0.566-0.467,0.383-1.281,0.469-1.974c0-1.502,2.131-1.511,0.088-2.744
			c0.997-0.489,1.404-1.361,1.802-2.396c0.095-0.151,0.685-0.932,0.176-1.051c-0.468-0.109-0.668,1.314-0.749,1.572
			c-0.255,0.808-0.49,0.986-1.236,1.314c-1.303,0.392-0.109,1.089,0.282,1.554c0.017,0.371-0.683,0.411-0.827,0.684
			c-0.331,0.628,0.223,1.588-0.167,2.248c-0.504,0.456-1.244,0.932-1.282,1.686c0.269,0.616,0.852,2.358-0.506,1.93
			c-2.168-2.804-0.49-6.463-1.937-9.591c-0.867-3.128,3.478-4.895,2.786-7.672c-0.561,0.339-0.366,1.268-0.658,1.784
			c-1.881,1.817-3.514,4.276-3.554,7.002c0.084,0.916,0.761,0.939,1.142,1.636c0.998,1.132-2.199,4.882-1.125,1.937
			c-1.697,0.968,0.401,1.648,0.754,2.642c0.24,1.248-0.169,2.618,0.051,3.893c0.1,0.699-0.191,0.673-0.675,1.115
			c-0.369,0.729-1.295,0.72-2.027,0.704c-0.243-0.086-0.101-0.562-0.211-0.798c-0.31-0.619-1.453-1.051-1.103-1.871
			c-1.249,1.149,2.237,3.525-1.468,2.805c-0.987-1.576,0.918-3.205,0.673-4.892c0.387-0.88-0.48-1.643,0.235-2.423
			c0.32-2.008-0.545-4.152,0.63-6.037c-1.869,1.907-0.304,4.175-1.048,6.274c-0.536,1.219,0.006,2.405-0.68,3.632
			c0.067,0.793-0.272,1.346-0.958,1.657c-0.623,1.562,1.685,2.612,1.803,3.787c-1.719,1.031-2.298,0.224-2.832-1.436
			c-0.54-0.693-1.345-1.14-1.449-2.086c-0.394-1.292,0.185-2.101,0.338-3.205c-0.129-0.674-0.225-0.832,0.089-1.522
			c0.37-0.812,1.558-2.471,1.068-3.34c-1.167-1.329-1.888-1.583-0.191-2.859c0.285-0.788-0.296-1.254,0.454-1.862
			c0.495-0.402,1.305-1.364,0.789-2.055c-0.925,0.995-1.777,2.095-1.919,3.491c-0.655,0.967-1.188,1.814-0.258,2.856
			c0.756,1.567-0.743,3.089-0.858,4.686c-1.721,0.551-0.313-1.975-0.454-2.771c0-1.1-0.49-1.789-1.01-2.725
			c-0.617-3.114,1.464-2.346-1.399-5.779c-0.538,1.303,1.86,2.027,0.618,4.32c-0.162,0.776,0.446,1.445,0.581,2.139
			c0.002,0.529-0.449,0.925-0.294,1.501c0.561,0.898,0.648,1.941,0.428,2.984C76.624,154.741,77.285,155.557,77.241,156.514z"/>
		<path fill="#1E8346" d="M107.107,122.777c0.883,0.86,2.503,1.871,1.793,3.305c-0.237,0.342-0.026,0.422-0.356,0.223
			c-0.981-0.882-3.118-2.501-2.423-3.945C106.794,121.683,106.659,122.573,107.107,122.777z"/>
		<path fill="#1E8346" d="M111.188,137.423c0.327,2.37,0.103,4.96,0.223,7.386c-0.173,1.934-1.856,3.356-1.569,5.412
			c-0.069,1.655-0.557,3.435-1.422,4.849c-0.581,0.733-1.554,0.833-1.719,1.937c-0.006,1.653,2.188,0.539,2.417-0.478
			c0.151-0.432-0.063-0.866,0.22-1.266c3.021-1.714,4.894-1.559,5.853-5.514c1.069-1.666,1.251-3.805,0.792-5.691
			c-0.292-1.197,1.257-2.368,0.504-3.35c-4.596-3.076-1.035-3.68-3.991-6.685c-1.167-1.455-1.23-4.794-3.4-4.826
			c-0.936-0.07-2.295,0.552-2.244,1.607c0.68,3.864-1.61,4.518,2.509,6.646c0.45,0.195,0.593,1.859,1.047,1.213
			C110.582,138.357,110.616,137.314,111.188,137.423z"/>
		<path fill="#1E8346" d="M83.036,88.649c0.121,1.028-0.196,1.908-0.617,2.824c-0.32,2.009,0.704,4.145,2.268,5.447
			C84.204,94.116,84.187,91.267,83.036,88.649z"/>
		<path fill="#1E8346" d="M83.618,69.059c-0.095,1.199,0.028,2.292,0.596,3.362c0.253,0.834-0.375,3.201,0.975,3.27
			C85.936,73.099,86.269,70.992,83.618,69.059z"/>
		<path fill="#1E8346" d="M81.467,64.98c0.288,0.885,2.118,1.367,2.039,2.464C82.232,67.886,81.046,66.56,81.467,64.98z"/>
		<path fill="#1E8346" d="M81.825,56.373c0.924-0.201,1.733,0.659,1.033,1.453C82.109,58.467,81.088,57.518,81.825,56.373z"/>
		<path fill="#1E8346" d="M84.112,41.176c-0.549-0.215-1.692,0.043-1.477,0.852c0.068,0.258,0.51,0.468,0.36,0.754
			c-0.401,0.177-1.302,1.112-0.182,0.828c0.816-0.097-0.11,1.878,0.872,1.865c0.868-0.604-0.214-1.935,0.258-2.752
			C84.14,42.313,84.202,42.119,84.112,41.176z"/>
		<path fill="#1E8346" d="M81.713,53.817c0.663-0.095,0.844,1.227,0.418,1.512C81.27,55.447,81.309,54.523,81.713,53.817z"/>
		<path fill="#1E8346" d="M81.108,53.616c-1.069,0.366,0.026-1.027,0.471-1.075c0.986-0.098,0.131,0.934-0.303,1.109
			C81.216,53.636,81.155,53.649,81.108,53.616z"/>
		<path fill="#1E8346" d="M88.034,100.081c-0.233,1.1,0.557,1.968,1.345,2.596c0.458,0.657,1.081,1.715,1.958,0.903
			c0.302-0.282,0.253-0.141,0.612-0.17C92.743,101.849,89.479,100.538,88.034,100.081z"/>
		<path fill="#1E8346" d="M104.274,109.158c-2.172,1.172,0.002,2.212,1.44,2.328c1.532,0.547,2.64,1.791,3.871,2.788
			c0.348-0.656-0.451-1.504-0.635-2.118C108.441,107.238,107.96,114.441,104.274,109.158z"/>
		<path fill="#1E8346" d="M72.949,158.022c-0.637,0.27-1.539,1.334-0.862,1.969c0.451,0.338,0.533-0.53,0.649-0.802
			C72.875,158.864,73.342,158.448,72.949,158.022z"/>
		<path fill="#1E8346" d="M71.336,159.389c0.673-2.128,2.516-1.961,0.491-4.488c-0.299-0.866-1.056-1.702-1.092-2.599
			c0.34-0.677-0.794-0.521-1.169-0.769c-0.367,0.978,1.023,1.371-0.096,2.502c-0.05,0.868,0.954,0.474,0.002,1.542
			c-0.028,0.839,1.124,1.059,1.604,1.545C71.621,157.769,70.215,159.025,71.336,159.389z"/>
		<path fill="#1E8346" d="M115.021,157.147c0.933,0.529,1.494,0.604,0.161,1.295C113.957,158.927,114.546,157.759,115.021,157.147z"
			/>
		<path fill="#1E8346" d="M113.475,156.812c-0.457,0.224-1.168,1.041-0.718,1.556C113.365,158.326,113.91,157.425,113.475,156.812z"
			/>
		<path fill="#1E8346" d="M112.018,155.22c-0.692-0.242-1.822-0.444-1.68,0.627C108.37,159.399,111.297,157.231,112.018,155.22z"/>
		<path fill="#1E8346" d="M106.862,158.717c-0.575-0.099-1.298,0.601-0.93,1.141C106.501,160.425,107.512,158.908,106.862,158.717z"
			/>
		<path fill="#1E8346" d="M108.14,149.034c-1.293,1.1-3.008,2.67-2.011,4.532c0.211,0.434,0.007,1.797,0.585,1.69
			C107.668,153.63,111.426,150.323,108.14,149.034z"/>
		<path fill="#1E8346" d="M105.249,152.665c1.296,3.54,0.338,4.411-2.958,5.917c-0.483,0.292-1.007,0.802-1.145-0.002
			C101.141,155.883,102.919,154.063,105.249,152.665z"/>
		<path fill="#1E8346" d="M156.69,123.044c-0.867-0.546-1.104,0.587-1.362,1.17c-0.621,0.473-0.3,1.027-0.055,1.63
			c-0.174,1.294,0.729,2.17,1.442,3.142c1.329,3.643,1.919,1.52,1.397-0.964C157.107,126.372,157.266,124.852,156.69,123.044z"/>
		<path fill="#1E8346" d="M152.521,126.799c0,1.235,0.485,1.763,1.363,2.554c1.739,1.899,3.122,4.618,2.716,7.22
			c0.086,0.551,0.536,0.506,0.982,0.795c1.418,0.916-0.728,1.115-1.389,1.266c-0.054-0.684-0.272-1.153-0.809-1.6
			c-1.149-1.275-0.066-3.167-0.592-4.562c-1.232-1.361-2.571-2.947-2.843-4.874C151.826,126.947,151.724,125.695,152.521,126.799z"
			/>
		<path fill="#1E8346" d="M107.737,126.541c-0.918,0.324-2.269,1.591-1.853,2.692c0.388,0.421,1.602-0.034,1.973-0.246
			c0.609-0.36,1.342-0.133,1.997-0.367C109.943,127.337,108.894,126.815,107.737,126.541z"/>
		<path fill="#1E8346" d="M111.883,130.676c0.668,0.81,2.084,1.057,2.152,2.243c0.042,0.4,0.018,1.258-0.554,0.74
			C113.03,132.817,111.147,131.696,111.883,130.676z"/>
		<path fill="#1E8346" d="M108.409,118.819c-1.163,0.198-2.405,1.794-1.635,2.891C107.312,121.332,109.684,119.16,108.409,118.819z"
			/>
		<path fill="#1E8346" d="M109.126,119.604c-0.37,0.87-1.182,1.558-1.481,2.428C109.198,125.418,110.192,121.352,109.126,119.604z"
			/>
		<path fill="#1E8346" d="M78.822,159.389c-0.617-0.25-0.323,0.568-0.112,0.802c-0.102,0.88-1.178,2.769,0.485,2.832
			c1.302,0.103,0.43-0.492,0.462-1.187C80.313,160.965,79.62,160.034,78.822,159.389z"/>
	</g>
</g>
</svg>
