<?xml version="1.0" encoding="utf-8"?>
<!-- Generator: Adobe Illustrator 26.0.3, SVG Export Plug-In . SVG Version: 6.00 Build 0)  -->
<svg version="1.1" id="Isolation_Mode" xmlns="http://www.w3.org/2000/svg" xmlns:xlink="http://www.w3.org/1999/xlink" x="0px"
	 y="0px" viewBox="0 0 200 200" enable-background="new 0 0 200 200" xml:space="preserve">
<g>
	<path fill="#1E8346" d="M122.662,64.122c-1.062-0.851-1.978,1.821-2.969,0.66c-0.225-0.448,0.397-0.748,0.358-1.164
		c-0.06-0.218-0.069-0.087-0.239-0.073c-0.736,0.116-0.229-1.181-0.618-1.476c-0.391-0.125-0.117,0.566-0.084,0.676
		c0.11,0.364-0.05,0.541-0.176,0.869c-0.641-0.239-0.087-1.557-1.012-1.312c-1.16,0.073-0.456,1.324-0.831,1.856
		c-1.263,0.772-2.468,1.651-3.646,2.529c-2.677,0.867,0.053-1.079,0.812-1.516c0.154-0.5-0.136-1.488,0.736-1.245
		c-0.15,1.068,0.596,0.473,1.209,0.264c0.585-0.161,0.186-0.894,0.252-1.344c-4.232,2.192,0.625-3.037-0.934-4.307
		c-0.675,1.886-3.188,1.31-4.748,1.322c-0.171-0.61-0.096-1.339,0.6-1.572c-0.17-0.121-0.252-0.347-0.452-0.443
		c-0.443,0.494-0.696,1.199-1.191,1.626c-0.182-0.254-0.592-0.317-0.783-0.605c0.866,0.119,1.215-0.746,1.559-1.367
		c-0.741-0.008-1.102-0.125-1.309-0.901c-1.609,0.408-0.132-1.496-1.171-2.215c-0.966-0.607-3.477-0.442-4.4,0.25
		c-0.868,1.626-3.974,2.857-3.291,4.804c-1.378,1.112,0.791,1.338,0.69,2.458c0.697,0.777,0.018,1.901,0.618,2.689
		c0.357,0.284,0.212,0.886,0.388,1.204c0.186,0.173,0.57-0.061,0.796,0.04c0.722,0.854,1.874,1.083,2.69,1.773
		c0.805,0.581,0.009,0.839,0.035,1.523c0.675,3.644,4.163,6.627,4.256,10.413c0.016,0.537,1.408,1.192,1.321,0.388
		c0.112-0.316,0.297-0.106,0.547-0.193c0.456-0.158,0.231-0.63,0.308-0.949c0.714-0.845-0.186-0.812-0.536-1.459
		c0.447-0.847-0.311-1.625-0.474-2.455c0.001-0.207,0.239-0.676-0.011-0.853c-1.153,0.135-0.123-0.579-0.532-1.129
		c-1.863-1.226,1.06-2.571,2.142-3.074c0.203,0.41,0.4,0.975,0.745,1.273c0.885-0.347,2.03-0.923,2.773-1.543
		c-0.251-0.618-0.742-1.186-0.915-1.869c-1.022-0.914,2.229-2.241,3.067-1.797c0.568,0.059,1.159-0.02,1.638-0.304
		C120.71,65.534,124.016,65.648,122.662,64.122z M109.393,60.099c0.762-0.409,0.858,0.35,0.744,0.9
		C109.733,61.54,109.228,60.506,109.393,60.099z M108.432,66.796c-0.38-0.621,0.232-1.675,1.01-1.365
		c0.473,0.182,0.135-0.496,0.59-0.533c0.191,0.238,0.397,0.467,0.583,0.702c-0.237,0.308-0.698,0.339-1.044,0.429
		C109.153,66.188,108.823,66.709,108.432,66.796z M111.771,67.61c-0.904,0.137-1.536,0.876-2.369,1.15
		c-0.32-0.39-0.459-0.948-0.718-1.392c-0.108-0.182-0.268-0.21-0.026-0.376c0.543-0.323,1.087-0.775,1.596-0.187
		c0.891-0.114,1.345-0.225,2.035,0.521C112.109,67.345,111.936,67.537,111.771,67.61z"/>
	<path fill="#1E8346" d="M99.261,52.799c-0.31-0.492-1.699-0.833-2.281-0.827c-0.267,0.498-0.061,1.424-0.003,1.977
		c0.12,0.408,0.589,0.728,0.29,1.194c-0.5-0.525-1.173-1.007-1.117-1.827c-0.104-1.41-0.791-0.373-1.112,0.284
		c0.454,0.102,0.295,0.468-0.075,0.577c-0.907,0.589-0.239,2.478-0.727,3.507c0.906,0.44,1.502-0.55,2.317-0.727
		c0.491-0.088,1.128,0.835,1.57,0.14c1.176-0.776,0.648-2.356,0.289-3.439C98.463,53.143,99.367,53.49,99.261,52.799z"/>
	<path fill="#1E8346" d="M132.154,40.819c0.626,0,1.238-0.03,1.846-0.082c-0.011-0.582-0.282-1.344-1.037-1.163
		c-0.753-0.112-1.078,0.081-0.822,0.856c-0.5,0-0.731,0.195-1.087,0.433C131.375,40.773,131.805,40.838,132.154,40.819z"/>
	<path fill="#1E8346" d="M130.791,41.027c0.096-0.056,0.182-0.111,0.262-0.164C130.972,40.894,130.899,40.946,130.791,41.027z"/>
	<path fill="#1E8346" d="M69.761,31.902c0.268,0.617,0.29,2.726,0.311,3.408h4.463l-1.072-2.762l-1.419,0.409l-1.055-0.409
		l-0.709,0.184c-0.1-0.624-0.637-1.749-0.986-2.273l0.51-0.442L69,29.203l-0.173-1.799l-3.754,1.471v3.494L69,30.622L69.761,31.902z
		"/>
	<path fill="#1E8346" d="M49.055,51.043c0.097,0.237,0.067,0.526,0.304,0.678c0.331-1.041,0.858-2.156,0.007-3.212
		C48.209,48.589,48.655,50.407,49.055,51.043z"/>
	<path fill="#1E8346" d="M111.838,80.63c-0.279-0.015-0.602,0.008-0.871-0.058c0.009-0.068,0.001-0.191-0.052-0.234l-0.363-0.039
		c-0.001,1.04,1.808,1.477,2.009,0.338C112.32,80.631,112.078,80.643,111.838,80.63z"/>
	<path fill="#1E8346" d="M130.289,40.586h-8.822c0-0.58,0.005-1.141,0.04-1.717c1.339-0.295,4.017,0.665,4.008-1.5
		c-0.757-1.137-1.971-1.733-2.962-2.583c-0.453-0.893-1.507-0.968-2.332-0.697c0,0.288,0.004,0.576,0.002,0.864
		c-2.012,0.311-0.771-1.774-0.527-2.776c-0.424-0.32-0.392-0.735-0.333-1.241c1.225-0.078,2.613,0.292,3.809,0.003
		c-0.011-0.958,0.311-1.958,0.151-2.944c-0.823-0.011-1.69-0.217-2.506-0.064c-0.209,0.709-0.353,1.776-0.18,2.518
		c-0.335,0.071-0.728,0.052-1.066,0.031c0.127-1.429,0.456-2.893,0.557-4.32c0.074-0.129,0.566-0.044,0.742-0.056
		c0.201-0.601-0.373-0.563-0.798-0.521c-0.146-0.751,0.835-0.35,1.281-0.435c-0.182,1.03,0.15,1.673,1.22,1.14
		c0.9-0.474,2.066-0.174,2.942-0.648c0.275-0.46,1.003-0.926,0.41-1.446c-0.773-0.876-1.6-2.282-2.948-1.953
		c0.302,1.639-1.497,2.806-2.98,2.616c-0.005-0.526-0.758-0.927-0.475-1.376c0.399-0.646,1.705-1.647,1.282-0.102
		c1.173-0.013,1.794,0.247,1.552-1.243c-0.638-0.204-2.551,0.336-1.444-0.804c0.186-0.247,0.188-0.513,0.551-0.52
		c1.795,0.696,1.8-1.053,2.855-1.961c0.382-0.951-0.785-1.636-0.612-2.562c-0.208-0.737-1.125-0.779-1.679-1.223
		c-0.628,0.054-0.881-0.35-1.273-0.732c-0.408-0.225-0.955-0.143-1.28,0.171c-0.957-0.009-1.102,0.744-0.961,1.558
		c0.104,0.559-0.156,0.88-0.551,1.173c-0.379,0.758,0.669,0.249,0.917,0.047c0.401,0.736-0.39,1.539-0.423,2.122
		c0.765,0.411,0.354,1.373-0.511,1.05c-0.671-0.429-1.473-0.86-1.408,0.331c-1.142,0.45-2.772-1.179-3.603-1.972l0.848-1.86
		c0.588-0.349,0.552-1.302,0.618-1.95c0.07-0.685,0.611-0.771,0.829-1.345c0.217-0.57,0.21-0.427,0.771-0.66
		c-0.104-0.533-0.01-0.54,0.225-0.991c0.538-0.732-1.542-2.121-0.501-2.561c0.661,0.109,0.725,0.526,0.515,1.09
		c0.2,0.776,1.043,0.093,0.935-0.456c0.1-0.626,1.039-0.892,0.831-1.539c-0.211-0.625-0.83,0.083-1.077-0.261
		c-0.139-0.221,0.063-0.913,0.327-0.958c0.472,0.048,0.904,0.855,1.481,0.533c1.108-1.082-0.248-2.065-0.917-2.932
		c-0.596-1.018-1.457-0.992-2.504-1.047c-0.089,3.842-1.86,0.544-3.334,2.143c-0.857-0.333-1.254-0.919-1.117-1.843
		c-1.756,0.045-3.343,1.86-0.526,1.96c1.302,0.038,1.484,1.686,2.721,1.538c-0.681,1.56,1.63,0.289,2.016,1.13
		c0.289,1.188-2.441,0.187-3.22,0.625c-0.149-2.544-1.369-2.975-3.713-3.135l-3.148,4.982l8.373,5.294
		c-0.147,1.074-0.723,0.297-1.198,0.91c-0.373,0.305,0.053,0.571,0.067,0.905c-0.086,0.741-0.758,1.04-1.276,0.463
		c-0.633-0.135-1.331-0.066-1.983-0.103c-0.033-0.277-0.075-0.535-0.163-0.806c-0.157-0.045-0.157,0.11-0.274,0.134
		c-0.225-0.038-0.54-0.263-0.589-0.504c0.093-0.488,0.199-1.537-0.62-1.103c-0.31,0.289,0.07,1.773-0.64,0.763
		c-0.045-0.154,0.025-0.361-0.197-0.294c-0.435,0.235-0.483,0.673-0.007,0.855c0.141,0.198-0.101,0.545-0.06,0.785
		c0.012,0.563,0.595-0.05,0.646,0.364c-0.135,0.374-0.804,0.29-1.055,0.487c-0.132,0.179,0.084,0.272,0.134,0.427
		c0.021,0.322-0.387,0.525-0.323,0.9c-2.277-0.892-0.789,1.671-2.587,0.731c-0.785-0.117-1.207-1.007-2.034-0.827
		c-0.293,0.176-0.46,0.007-0.689-0.159c-0.269-0.082-0.779,0.015-1.012,0.085c-1.025,0.026-1.992-1.887-1.918-2.834
		c-0.106-0.425-0.487-0.4-0.887-0.412c-0.929-0.075-1.811-0.27-2.641-0.699c-1.97-0.437-1.043,1.734,0.517,1.457
		c0.209,0.95-0.792,1.082-1.242,1.637c-0.026,0.5,0.21,0.987-0.353,1.318c-0.984,1.985,1.605,2.846,2.422,4.166
		c-0.909-0.109-0.736,0.261-0.445,0.909c-0.017,0.541-0.751,0.49-1.007,0.156c-0.154-0.201-0.307-0.837-0.593-0.902
		c-0.831,0.148,0.433,1.171,0.588,1.543c-1.63,0.364-1.036-1.311-1.322-2.275c-1.964-3.376-3.746-0.251-2.025,2.292
		c0.355,1.525-0.812,1.294-1.854,1.37c-0.483,0.165-0.227,0.634-0.451,0.996c-0.253,0.41-0.738,0.756-1.017,1.139
		c0.816,2.263,3.232,2.171,5.246,2.173c-0.852,0.804-1.243,1.709-0.096,2.432c-1.467,0.069,0.236,0.762-0.538,1.126
		c-1.865,0.324,0.164,1.297-2.053,1.56c-0.421-0.072-0.874,0.34-1.213,0.118c0.202-1.1,2.441-0.401,1.961-2.588
		c0.184-4.636-4.34-0.904-0.712-0.712c0.085,0.354-0.138,0.789-0.1,1.163c-0.194,0-0.401,0.004-0.594,0.026
		c-0.091-0.18-0.021-0.436-0.085-0.629c-0.164,0.004-0.386,0.153-0.535,0.228c0.066,0.582,0.079,1.192,0.045,1.776
		c-0.593-0.464-0.152-2.202-1.459-2.517c-0.219,0.063-0.8,1.131-0.885,0.446c0.184-0.514-0.319-1.188,0.327-1.378
		c-0.093-0.462-0.91-1.425-1.402-1.532c-0.103,0.059,0.231,3.342-0.177,2.941c-0.106,0.144-0.685,0.012-0.88-0.018
		c0.768-0.472,0.821-1.725-0.122-2.059c-0.154,0.346,0.501,1.08-0.05,1.04c-0.94,0.19-0.171-0.482-0.412-0.988
		c-0.234,0.07-0.483,0.493-0.674,0.655c-0.123,0.394,0.203,0.622,0.347,0.937c-0.829,0.209-0.888-0.999-1.286-1.482
		c-0.102-0.675-0.932-0.392-0.95,0.168c-0.09,0.099-0.444,0.152-0.413-0.02c0.025-0.143,0.264-0.257,0.113-0.435
		c-0.162-0.191-0.81,0.06-0.905,0.256c-0.156,0.32,0.405,0.254,0.374,0.561c-1.749,0.879-3.822,1.303-4.091,3.721
		c-0.636-0.52-1.329-0.874-2.153-0.541c-3.403,0.395-6.918,0.001-10.329,0.722c-0.521,0.283-1.384,0.022-1.991,0.136
		c-0.427,0.08-1.089,0.314-0.954-0.408c0.283-0.782,1.131-1.392,0.917-2.396c-1.547-0.416-4.738,2.967-4.771,0.1
		c0.649-0.874,1.841-0.079,2.625-0.433c1.101-1.669,5.542-2.601,3.991-5.043c-0.413,0.136-0.745,0.63-1.239,0.628
		c0.122-0.991,1.313-1.262,1.711-2.139c0.388-0.274,0.525-0.877,0.209-1.268c-0.792-0.496-1.645,0.687-2.437,0.864
		c-1.629-0.49-4.73,1.386-3.145,3.112c0.244,0.126,1.185,0.722,0.514,0.888c-6.125-0.414-9.168,3.646-9.064,9.526
		c-0.133,0.909-1.295,3.034,0.52,2.81c0.075-0.462,0.269-0.581,0.688-0.626c1.197-0.484,1.887-1.653,3.143-2.05
		c1.756-1.176,3.172-3.396,5.403-3.767c0.651,1.393-2.641,1.113-3.003,2.186c-0.085,0.673,0.119,1.405-0.736,1.678
		c-0.783,0.091-1.494,2.145-2.065,1.113c-1.116,0.082-1.887,1.075-2.09,2.124c0.137,0.787,0.686,1.413,0.818,2.209
		c0.117,0.688-0.085,1.63,0.57,2.131c0.464,0.296,1.099-0.484,1.558-0.162c0.322,0.319,0.463,1.64,0.115,1.917
		c-0.339,0.191-0.488,0.039-0.492,0.6c0.336,1.792-0.102,3.65,0.105,5.443c-0.572-0.367-0.871-0.119-0.644,0.453
		c-0.17,0.575-0.708,1.2-0.702,1.912l-9.133,1.289l-0.198-1.111c-1.684-0.706-3.052,0.4-4.316-0.992
		c0.014,0.367,0.02,0.738,0.004,1.104c-0.724-0.828-2.385-2.334-2.589-0.328c-5.677-3.894-14.021-3.627-20.446-3.849
		c-0.232-1.261-0.803-0.178-1.675-0.397c-0.276-0.005-0.4-0.09-0.565-0.306c-0.588-1.59-1.196,0.136-2.277-1.019
		c-1.304,1.168,1.099,2.441,2.043,1.841c0.922-0.123,1.157,0.929,1.957,1.061l0.455-0.494c3.458,0.222,15.964-0.271,19.919,3.743
		v0.536c-0.406,0.469-1.696,1.999-2.372,2.004c-1.307,0.476-1.589,1.584-2.181,2.675c-1.355,0.836-0.693,3.326,0.025,4.393
		c1.1,0.94,0.365,2.243,0.534,3.41c1.888,1.24-0.048,2.49,1.03,3.652c4.23,2.509,6.93-1.999,11.361,1.276
		c1.875,0.077-0.758-2.338,0.334-3.441c0.981-1.445,0.519-1.606-0.892-2.247c-1.883-1.94,0.511-4.807-0.559-6.913
		c0.25-1.331,1.375-2.423,0.641-3.879l9.079-1.322c-0.239,1.28-1.638,3.04-0.259,4.159c0.761,0.967,0.152,2.522,0.593,3.623
		c-1.125,1.351,0.975-0.073,0.731,1.523c0.438,0.818,0.015,0.999-0.743,1.211c-0.832,0.231-1.304,1.468-0.696,2.109
		c0.557-0.543,1.76-1.034,2.224-0.154c-0.49,0.43-0.257,1.201-0.183,1.757c0.183,0.187,0.747,0.134,0.984,0.126
		c0.255,1.528,1.199,3.141,1.878,4.541c-0.528,0.567,0.165,1.434,0.424,2.039c0.395,1.821,2.823,0.516,2.947,2.524
		c-1.427,0.194,0.797,1.842,0.913,2.066c-0.046,0.489,0.092,0.874,0.399,1.251c0.219,0.76-0.094,1.798-0.026,2.599
		c-0.144,1.516,0.936,2.64,1.051,3.977c-0.143,0.705-0.532,1.25-0.532,2.008c0.001,0.557,0,1.154,0.001,1.732
		c0.249,1.36,1.495,2.078,1.038,3.662c-1.071,2.524,1.644,1.906,0.193,4.943c-0.39,1.216-1.435,2.036-2.002,3.164
		c-0.469,1.308-0.755,2.653-1.945,3.466c-0.119,0.315,0.645,1.031,0.008,1.194c0.851,2.299,0.552,4.725-1.611,6.201
		c-0.726,1.451-1.381,2.912-2.538,4.117c-0.396,0.898-0.337,1.938-1.562,2.088c0.041,0.57,0.788,1.083,0.574,1.762
		c-0.192,0.608-0.454,0.171,0.023,1.007c0.618,1.084,0.478,2.356,0.49,3.586c-0.189,0.683,0.295,1.055,0.568,1.617
		c-0.094,1.513,1.095,2.661,1.041,4.171c-0.057,0.611,0.747,0.489,1.105,0.988c0.448,0.624,0.538,1.32,1.132,1.864
		c1.146,1.759,5.376,2.832,5.451,4.561c0.916-0.194,1.349,0.424,1.769,1.108c3.073,2.097,4.319,6.274,7.715,7.831
		c-0.053-0.385-0.16-0.874,0.16-1.171c2.004,2.146,1.938,5.279,3.581,7.652c2.162,3.345,4.819,6.468,6.401,10.084
		c0.435,6.6,1.914,13.084,5.478,18.682c-0.444-3.411,1.72-6.226,4.387-8.103c1.11-0.626,2.176,0.518,3.302,0.667
		c0.292-0.763,1.142-2.636-0.038-2.928c-0.321,0.387,0.317,1.572-0.48,1.56c-0.412-0.028-0.163-0.4,0.007-0.565
		c0.168-0.346-0.167-0.467-0.269-0.751c-0.207-0.58,0.743-0.24,0.626-0.724c-0.1-0.413-0.717-0.465-1.019-0.606
		c0.731-0.154,0.795-0.179,0.653-1.005c-0.194-0.335-0.411-1.603,0.337-1.201c0.465,1.064,1.013,2.26,2.215,2.689
		c0.45,0.239,0.985,0.459,1.496,0.45c0.503,1.002,0.939,1.34,0.951-0.12c0.75-0.503,1.184,0.012,1.867,0.243
		c0.543-0.062,0.024-0.774-0.013-1.071c0.134-0.326,0.504-0.734,0.888-0.711c0.276,0.021,0.607,0.175,0.735-0.125
		c0.277-0.73-0.954-0.647-0.607-1.419c-0.009-0.483,0.586-0.417,0.835-0.685c0.274-0.514-0.278-0.792-0.713-0.73
		c-0.149-0.323-0.429-0.799-0.116-1.117c0.211-0.301,0.202-0.934-0.317-0.839c-0.233,0.118-0.451,0.199-0.642-0.063
		c-1.001-0.879-2.612-1.232-3.907-0.891c-0.762,0.646-1.892,0.35-0.709-0.518c0.198-0.223,0.334-0.11,0.321-0.422
		c0.026-1.446,1.566,0.424,1.906-0.497c0.095-0.169,0.152-0.327,0.36-0.306c0.807,0.316,1.167-0.471,0.315-0.794
		c-0.383-0.57-0.742-1.313-0.484-1.993c0.491,0.184,0.966-0.209,0.561-0.661c-0.097-0.316,0.171-0.704,0.315-0.958
		c0.184-0.317,0.753-0.149,0.632-0.691c-0.048-0.435-0.971,0.004-0.95-0.319c-0.254-1.541-0.659-2.444-0.139-3.943
		c-0.367-3.304,0.673-6.695,0.674-10.091c-1.918-0.253-0.48-2.228-0.221-3.383c0.097-2.011,1.477-3.717,1.773-5.503
		c-2.138-2.003,1.698-5.358-0.151-6.873c-0.002-0.353-0.001-0.711,0-1.065c0.139,0.032,0.322-0.042,0.461-0.011
		c-0.136-1.702-1.267-4.887,1.658-4.141c0.057-0.163,0.075-0.361,0.04-0.516c-1.026,0.116-2.172,0.068-1.342-1.245
		c0.82-2.611,0.702-5.455,1.316-7.945c-0.391-3.561,1.366-0.421,1.187-3.686c0.422-0.004,0.829,0.034,1.247,0.056
		c0.198-0.439,0.402-1.118,0.363-1.613c-0.241-0.004-0.831-0.31-1.055-0.445c0.257-0.57,1.603,0.222,1.414-0.676
		c-2.25,0.343-1.568-1.221-1.623-2.731c2.603,0.27,1.526-0.705,1.251-2.424c-0.238-0.014-0.5,0.027-0.703-0.048
		c4.548-4.589-1.502-2.506-1.931-6.114c3.114-1.114-1.029-0.626-0.363-5.666c0.099-1.027,1.328-1.182,1.905-1.653
		c-0.416-0.513-0.803-0.962-0.504-1.701h1.998v-5.618h-1.907l-0.299-0.299h-0.908V86.17h3.088v-1.453h-3.529
		c-0.142-1.193,0.689-2.292,1.654-2.9c0.633-0.233,1.014,0.886,1.622,0.837c-1-1.031-0.336-0.956,0.421-1.661
		c-0.138-0.793-0.65-1.448-0.536-2.296c-0.229,0.15-0.393,0.345-0.693,0.362c-0.296-0.255-0.366-0.546,0.02-0.754
		c-1.072-1.128-2.095-2.49-2.201-4.047c-0.343-1.191-1.061-2.231-1.403-3.434c-0.029-0.957,0.63-2.072-0.687-2.516
		c-0.885-1.428-2.076-0.583-3.32-0.4c0.052-0.349,0.269-0.816,0.181-1.148c-3.167,0.486-1.919-2.006-3.95-3.449
		c-0.731-0.016-1.285-0.556-1.564-1.166c-0.539-0.549-1.579-0.693-2.145-1.224c0.171-0.064,0.36-0.171,0.399-0.359
		c-0.468-0.235-0.387-1.025-0.806-1.26c-0.702,0.063-1.01-0.422-1.255-1.017c-0.393-0.577-1.446-0.376-1.588-1.306
		c-0.002-0.533-0.225-0.862-0.631-1.174c-0.094-0.434-0.169-0.987,0.27-1.192c0.634-0.493-0.005-3.266-0.756-3.446
		c-0.489,0.027-0.605,0.16-0.677-0.386c2.067-0.186-0.891-1.334,3.158-1.073c1.204-0.504,3.062-0.531,3.814,0.701
		c1.166,0.283,2.137,1.479,3.46,1.105c1.75-0.335,2.99-2.469,4.838-1.592c0.296-0.067,0.281-0.425,0.507-0.571
		c0.235-0.152,0.578,0.027,0.831,0l2.569-2.724c0.351-0.302-0.33-0.647-0.285-0.954c0.175-0.299,0.276-0.602,0.207-0.975
		l3.772-3.494l5.501-0.104c-0.147,0.615,0.205,0.824,0.76,0.803c0.118,0.5,0.06,1.167,0.03,1.685
		c-0.323,0.047-0.255-0.275-0.39-0.453c-1.332-0.83-0.903,1.201-0.346,1.755c0.032,0.877,1.651,1.257,1.122,2.057l0.381,1.245
		l0.553,0.173l0.865,2.076l-0.381,1.211l1.764,3.46l1.73-0.692l-0.38-0.554l1.142-0.796l-0.9-0.554l0.519-0.553l-1.695-3.321
		l0.45-0.277l0.242,0.45l0.692-0.277l2.179,4.186l2.422-1.349l-0.934-1.834l1.418-0.934l-1.384-2.629l-0.034-3.252l4.221,0.139
		l3.598,6.85l-0.45,0.242l0.381,0.588L133.784,51l3.253,5.605l1.453-1.695C138.128,54.456,130.814,40.274,130.289,40.586z
		 M60.148,28.582c0.321-0.429,0.853-0.084,1.258-0.053c-1.079,2.611,1.656,0.809-0.215,2.709c-0.011,0.471-0.164,0.988-0.551,1.309
		c-0.269-0.159,0.107-0.855,0.075-1.078C60.333,30.707,59.673,29.429,60.148,28.582z M52.259,36.772l-0.091-0.156l1.505-0.636
		l0.104,0.143L52.259,36.772z M53.148,38.435l-0.091-0.156l1.505-0.636l0.104,0.143L53.148,38.435z M55.481,37.507l0.735,1.479
		l-0.259,0.112l-0.753-1.514l-0.268,0.121l-0.095-0.182l0.277-0.13l-0.692-1.548l-0.251,0.112l-0.078-0.147l0.225-0.117
		l-0.091-2.089h0.324l0.112,1.886l0.701-0.372l0.147,0.234l-0.795,0.389l0.709,1.47l0.77-0.424l0.156,0.225L55.481,37.507z
		 M65.011,74.42c-1.01,0.239-1.504-0.469-1.067-1.367c0.186-0.142,0.319,0.071,0.487,0.016c0.24-0.079,0.168-0.579,0.684-0.516
		C65.192,73.195,65.135,73.81,65.011,74.42z M87.761,37.264c-0.861,0.238-0.445-1.148-0.58-1.66
		c0.221-0.017,0.333-0.003,0.449,0.003C87.641,36.098,88.014,36.832,87.761,37.264z M105.552,80.468
		c0.569,0.255,1.29,0.511,0.485,0.973C105.64,81.778,105.482,80.746,105.552,80.468z M98.754,173.613
		c0.813-0.275,1.19,0.091,1.167-0.939c1.052-0.664,2.655-1.077,3.675-0.087c0.799,0.561-0.81,1.068-0.308,1.688
		c0.401,0.368,1.1-0.647,1.36-0.256c0.276,0.58-0.428,0.439-0.763,0.597c-1.254,0.759,0.098,0.707,0.714,0.776
		c0.078,0.192,0.194,0.633-0.096,0.678c-1.78-0.175-0.556,0.504-0.354,1.25c-0.453,0.903-1.062-1.168-1.646-0.436
		c-0.133,0.179,0.003,0.407,0.087,0.57c0.377,0.329,0.471,1.121-0.222,0.762c-0.312-0.279-0.113-1.392-0.764-0.94
		c-0.423,0.292,0.016,1.015-0.445,1.199C98.864,178.555,98.415,175.325,98.754,173.613z M107.887,27.439
		c0.71-0.001,4.17,0.137,2.249,0.998c-0.227,0.149-0.413,0.021-0.617-0.115c-0.614-0.452-0.912-0.148-1.164,0.433
		C107.7,29.095,107.847,27.902,107.887,27.439z M93.945,26.873c0.459,0.212,0.951,0.496,1.331,0.82L93.945,26.873z M95.75,33.335
		c-0.135,1.213-1.174,1.551-2.04,2.155c-1.077,0.27-1.098-0.683-0.14-0.998c0.158-0.256,0.259-0.518,0.526-0.691
		c-0.006-0.257,0.076-0.497,0.353-0.295c0.761,0.416,0.723-1.031,1.372-0.853C96.006,32.792,95.818,33.183,95.75,33.335z
		 M99.963,32.606c-0.057-0.445,0.03-0.546-0.497-0.562c0.644,0.71-0.37,1.434-0.644,0.474c0.135-0.191,0.388-0.244,0.337-0.543
		c-0.398-0.126-0.471,0.178-0.731,0.333c-0.506,0.089-0.236-0.411-0.202-0.669c-0.298-0.98-1.337-0.495-1.764,0.209
		c-0.481-0.357,0.502-0.884,0.617-1.144c0.133-0.301-0.418-0.5-0.594-0.748c-0.406-0.727-0.56-1.489-1.313-1.985
		c0.397-1.446,1.958,1.758,2.729,1.981c0.599,0.592,1.307,0.932,2.113,0.513c0.793,0.1,0.536-0.996,0.628-1.528
		c1.221,0.277,0.246,1.664,0.905,2.437C102.324,32.394,100.419,34.291,99.963,32.606z M101.903,33.079l-0.41-0.351L101.903,33.079z
		 M102.034,42.161c-0.603,0.138-1.092,0.194-1.222-0.641c0.411,0,0.834,0.027,1.243-0.004
		C102.115,41.67,102.072,41.992,102.034,42.161z M114.91,37.009c-0.174,0.369-0.575,0.255-0.915,0.309
		c0.058,0.309-0.034,0.595-0.154,0.862c0.208-0.019,0.51,0.008,0.706,0.057c0.028,0.151,0.041,0.288,0.034,0.446
		c-0.53,0.051-1.089-0.077-0.915,0.672c-0.087,0.683,0.097,0.882,0.777,0.803c-0.008,0.174,0.059,0.338,0.103,0.496
		c-0.409,0.016-0.833,0.039-1.241,0.017c-0.024-0.134-0.002-0.29-0.002-0.43h-3.373v1.453l-1.574,1.453
		c-1.067,0.246-1.812-0.519-2.716-0.931c-0.55-0.337-0.079-1.153-0.363-1.635c-0.686-0.468-1.766-0.368-2.385,0.181
		c-0.483-0.268-0.642-0.018-0.934,0.342c-0.082-0.76-0.332-2.114-1.148-1.009c-0.333-0.474-0.01-1.327,0.064-1.845
		c-0.125-1.041-1.393-1.266-0.051-2.127c0.431-0.194,0.785-1.255,0.019-0.577c-0.227,0.08-0.129-0.041-0.174-0.175
		c-0.144-0.353-0.465-0.714-0.161-1.084c0.248-0.241,0.333,0.124,0.624,0.052c0.271-0.067,0.635-0.49,0.715-0.747
		c-0.152-0.758,0.874-1.004,1.021-0.249c0.49,2.553,3.085,2.15,4.169,0.208c0.191-0.124,0.359-0.066,0.231-0.296
		c-0.751-0.733,0.436-2.683,0.849-3.537c0.23,0.313,0.053,1.05,0.133,1.43c0.087,0.695,1.618,1.063,0.925,1.828
		c-0.396,0.209-0.399,0.638-0.282,1.019c0.531,0.276,1.051,0.719,1.674,0.606c0.217-0.001,0.197-0.021,0.284,0.116
		c0.286,0.611-0.297,2.012,0.718,2.047c0.966-0.363,0.038-1.555,0.922-1.86c0.161-0.116,0.677-0.555,0.317-0.72
		c-0.665,0.038-1.101,1.237-1.599,0.11c1.192-0.489,2.322-2.117,2.251,0.202c0.367,1.116,1.124-0.184,0.692,1.732
		c0.395-0.055,0.811-0.045,1.208-0.015C115.29,36.483,115.066,36.767,114.91,37.009z M120.711,20.828
		c-0.052,0.746-1.425,0.434-1.338-0.261C119.483,19.113,120.545,20.087,120.711,20.828z M119.275,15.358
		c0.061-0.209,0.265-0.371,0.307-0.578c0.108,0.409-0.218,0.586-0.027,0.86c0.323,0.21,0.68,0.411,1.033,0.576
		c0.158-0.308-0.117-1.462,0.474-0.873c0.213,0.326-0.17,1.007,0.334,1.175c0.926-0.41,1.457-0.119,2.049,0.696
		c0.027,0.602,0.112,1.476-0.167,2.004c-0.189,0.054-0.956-0.078-0.703-0.387c0.12-0.101,0.271-0.13,0.225-0.332
		c0.038-0.373,0.125-0.799-0.402-0.722C123.932,15.939,118.675,17.444,119.275,15.358z M117.698,21.923
		c-0.314-0.201-0.879-0.196-0.917-0.656c0.092-0.021,0.189-0.014,0.335-0.038c0.964,0.145,1.69,0.616,2.426,1.295
		C119.841,23.565,118.096,22.074,117.698,21.923z M118.879,31.893c-0.049,0.233-0.182,0.394-0.104,0.654
		c-0.211-0.517-0.191-1.123-0.595-1.579C118.981,30.583,118.947,31.355,118.879,31.893z M118.289,30.257
		c-0.184-0.812,0.263-1.473-0.239-2.23c0.502,0.182,0.903,0.144,1.269,0.191c0.017,0.732-0.273,1.383-0.208,2.116
		C118.838,30.347,118.537,30.378,118.289,30.257z"/>
	<path fill="#1E8346" d="M90.097,189.491c0.013,0.3,0.067,0.57,0.209,0.743C90.239,189.989,90.174,189.737,90.097,189.491z"/>
	<path fill="#1E8346" d="M37.385,51.992c0.684,0.288,1.111,0.894,1.879,0.616c0.228,0.324,0.069,0.89,0.478,1.141
		c0.554-0.485,0.942-1.144,1.838-0.973c-0.342-1.796-3.18-1.021-4.203-2.259C36.991,51.106,36.836,51.665,37.385,51.992z"/>
	<path fill="#1E8346" d="M10.885,57.141c-0.667,0.134-1.039,0.675-1.097,1.327C10.327,58.489,11.925,57.791,10.885,57.141z"/>
	<path fill="#1E8346" d="M105.48,169.446c-0.834-0.516-1.568,0.657-1.416,1.447c0.305,1.942,3.21,0.86,2.726-0.803
		c-0.734-0.866-0.749,1.695-1.59,1.008c-0.626-0.489-0.178-0.781,0.058-1.291C105.452,169.797,105.606,169.641,105.48,169.446z"/>
	<path fill="#1E8346" d="M106.689,174.329c0.526,0.181,1.814-0.205,1.374-0.862c-0.353-0.21-0.606,0.376-1.013,0.286
		c-0.637-0.14-0.64-1.029-0.074-1.227c0.438-0.21,1.334,0.116,1.188-0.668C106.477,171.266,104.82,173.4,106.689,174.329z"/>
	<path fill="#1E8346" d="M108.328,176.897c-1.023,0.329-2.301-0.646-0.949-1.199c0.156-0.004,1.342,0.489,0.941-0.208
		c-2.583-2.074-3.172,3.108,0.09,2.004C109.04,177.525,108.845,176.837,108.328,176.897z"/>
	<path fill="#1E8346" d="M106.82,177.975c-2.002-1.081-2.933,1.89-0.752,2.422c0.61-0.299-0.005-0.643-0.37-0.78
		c-0.532-0.518,0.224-1.423,0.809-0.958c0.324,0.255,0.726,0.683,1.319,0.515C107.496,178.774,107.225,178.295,106.82,177.975z"/>
	<path fill="#1E8346" d="M103.493,179.616c-2.588,0.373,0.427,4.228-0.052,2.108c-1.291-1.226,0.313-2.098,0.795-0.439
		C105.234,181.423,104.599,179.318,103.493,179.616z"/>
	<path fill="#1E8346" d="M101.248,180.097c-1.166-0.733-2.477,0.491-1.926,1.707c0.749,0.491,0.627-0.486,0.609-0.943
		c0.091-0.227,0.448-0.409,0.682-0.311c0.641,0.715,0.403,1.039,0.078,1.729C100.839,183.911,102.729,180.348,101.248,180.097z"/>
	<path fill="#1E8346" d="M100.419,174.686c0.362-0.025,0.462-0.117,0.579,0.104c0.758,1.861,0.922-1.526-0.786-0.468
		C99.534,174.996,100.358,176.249,100.419,174.686z"/>
	<path fill="#1E8346" d="M172.377,138.677c0.502-0.078,0.541,0.667,1.031,0.643c0.065-0.231-0.003-0.487-0.227-0.617
		c-0.013-0.154,0.065-0.407,0.209-0.499c0.241,0.147,0.412,0.393,0.575,0.607c0.155-0.076,0.216-0.352,0.33-0.463
		c0.037,0.682,0.624,0.613,0.428-0.052c0.729,0.11,1.511-0.388,0.498-0.81c-0.103-0.433,0.298-1.181-0.33-1.356
		c-0.404-0.02-0.306-0.316-0.696-0.466C173.551,136.663,170.474,137.106,172.377,138.677z"/>
	<path fill="#1E8346" d="M176.8,138.804c0.251,0.337,0.786,1.241,0.518,0.041c-0.027-0.184,0.065-0.315,0.247-0.205
		c0.484,0.303,0.193,0.842-0.119,1.141c-0.288,1.125,1.264-0.469,1.669-0.485c1.525-0.234,2.963-0.478,2.337-2.432
		c-1.004-0.325-2.26-1.918-2.956-0.423c-0.297,0.87-0.684,0.453-1.259,0.184C176.183,136.696,175.937,138.278,176.8,138.804z"/>
	<path fill="#1E8346" d="M191.834,141.474c-0.142-0.184-0.658-0.086-0.484,0.201C191.096,142.492,192.273,142.054,191.834,141.474z"
		/>
	<path fill="#1E8346" d="M175.797,175.858c-0.589-0.416-0.128-1.092-0.263-1.635c-0.317-0.475-0.783-0.847-0.937-1.437
		c-0.067-1.049-1.241-0.226-1.636-0.954c-0.655-1.309-1.052-2.733-2.097-3.821c-0.008-0.89-0.061-2.191,0.552-2.858
		c0.523-0.373,1.76-0.184,2.022-0.762c0.029-0.219,0.064-0.484,0.364-0.381c0.018,1.166,2.945,0.079,2.23-0.652
		c0.607-1.317,2.413-1.871,3.735-2.257c0.705,0.152,1.366,0.559,2.048,0.727c0.382-0.428,0.848-0.398,1.353-0.472
		c0.494-0.366-0.011-1.378-0.54-1.458c-0.184-0.109-0.146-0.175-0.195-0.348c-0.151-0.305-0.685-0.141-0.989-0.232
		c-0.719,0.055-1.226-0.737-1.062-1.395c0.51-0.359-0.019-1.147-0.539-0.969c0.544,1.04-0.946,1.653-1.613,0.997
		c-0.218-0.635-0.141-1.733,0.483-2.12c0.12-0.063,0.49-0.101,0.538-0.229c-0.93-2.049,2.701-0.339,2.053-2.63
		c-0.07-0.408,0.58-0.779,0.78-1.125c0.097-0.575,0.667-0.854,0.841-1.346c-0.029-0.505-0.113-1.156,0.145-1.609
		c0.82-0.558-0.596-1.573,0.271-2.256c0.674-0.626,1.688-0.879,0.679-1.748c0.014-0.402,0.95-0.67,0.318-1.015
		c-0.071,0.273-0.344,0.328-0.551,0.472c-0.505,0.262,0.075,1.759-0.894,1.101c-0.544,0.462-0.43,1.173-1.493,1.08
		c-1.061-0.088-1.323,0.734-2.084,1.153c0.731,0.192,0.728,1.354,0.12,1.664c-0.779,0.141-0.803-0.864-1.463-1.064
		c-0.5,0.663-1.365,0.13-2.023,0.075c-1.048,0.029-1.551,1.101-1.788,1.966c-0.712,0.4-0.749,1.193-1.329,1.688
		c-1.523,2.355-3.654,4.152-5.002,6.646c-1.19,0.65-0.488,2.022-1.036,3.039c-0.346,0.896-1.775,1.629-0.848,2.613
		c0.787,2.13-0.418,4.266-1.288,6.1c0.194,2.534,4.448,2.794,3.774,5.786c0.14,1.528-0.387,2.892-0.69,4.315
		c0.427,1.649,0.91,3.251,0.544,5.045c-0.668,1.64-1.543,3.068-2.601,4.507c-0.394,1.604-0.403,4.218,1.425,4.916
		c0.455,0.231,0.855,1.191,1.467,0.958c-0.006-0.045-0.003-0.089,0.009-0.132c1.424,0.406,2.279,1.972,3.961,1.143
		c-1.582-0.688-4.557-2.314-1.969-3.876c0.687-0.274,0.793-1.075,0.959-1.693c0.155-0.374,0.583-0.397,0.442-0.835
		c-1.533-2.503,2.261-3.165,3.825-4.068c-0.003-0.445,0.378-0.669,0.424-1.079c-0.001-0.178-0.063-0.834-0.33-0.663
		c-0.105,0.067-0.014,0.232-0.226,0.211c-0.396-0.04-0.103-1.258-0.705-0.974c-1.259-0.101-2.272,1.526-3.62,1.264
		c-1.042-0.547,0.064-1.978,0.523-2.599c0.289-0.225,1.307-0.329,1.22-0.827c-0.265-0.493-1.106-0.658-1.003-1.345
		c0.093-0.942,0.084-1.521,1.087-1.911c0.553-0.252,0.121-0.758,0.234-1.201c0.479-1.26,2.037-0.443,2.841-0.016
		C176.421,176.79,176.352,176.137,175.797,175.858z"/>
	<path fill="#1E8346" d="M179.544,163.706c-0.29-0.116-0.457-0.217-0.846-0.064c0.241,0.332,0.3,0.75,0.497,1.101
		C179.602,164.547,180.299,163.901,179.544,163.706z"/>
	<path fill="#1E8346" d="M177.649,168.108c-0.663-0.457-0.266-1.322-1.375-1.533c-0.143,0.137-0.216,0.266-0.363,0.343
		c0.099,2.423-2.079-0.081,0.164,3.371C176.114,169.404,178.635,169.013,177.649,168.108z"/>
	<path fill="#1E8346" d="M189.019,173.938c-0.177-0.32-0.628-0.215-0.853-0.484c-0.029-1.004-1.072-0.422-1.708-0.433
		c-0.728-0.02-1.072-0.866-1.851-0.668c-0.85,0.018-1.825,0.318-2.603-0.164c-0.936-0.561,0.594-0.958,0.557-1.603
		c-0.268-0.857-1.001-1.629-1.966-1.357c-0.591,0.779-1.173,0.917-2.158,0.776c-0.442,0.923,1.308,1.391,0.434,2.698
		c-0.826,1.62,2.416,1.6,1.512,3.012c-0.255,0.393-0.989,0.923-0.481,1.382c2.518,5.799,0.759,0.404,6.327,1.703
		c-0.162,0.226-0.26,0.724-0.139,0.98c0.494,0.072,1.019-0.407,1.489-0.536c1.48,0.167,2.209-0.893,1.014-1.903
		C189.65,176.042,190.633,175.524,189.019,173.938z"/>
	<path fill="#1E8346" d="M190.242,161.741c-0.228-0.874-1.449-0.529-1.457-1.508c-0.062-0.361-0.058-0.541-0.459-0.468
		c-0.659,0.12-0.252,0.194-0.243,0.506c-0.494,0.044-0.153,0.359-0.098,0.606c0.101,0.842-0.525,1.767-1.434,1.396
		c-0.378-0.344-0.607-0.021-0.941,0.214c-0.6,0.485-0.644,1.393-1.05,1.949c-0.171,0.269-0.054,0.381,0.034,0.728
		c-0.063,0.464,0.092,0.778,0.512,1.018c0.555,0.248,0.58,0.657,0.562,1.194c0.358,0.312,0.357,1.122,0.794,1.313
		c0.081-0.452,0.32-0.858,0.354-1.339c0.254-0.818,0.974-0.514,1.64-0.726c0.459-0.261,1.014-0.303,1.476-0.509
		c0.513-0.622,0.609-1.501,0.569-2.263C191.5,162.869,191.095,162.615,190.242,161.741z"/>
	<path fill="#1E8346" d="M183.863,155.335c-0.077,0.033-0.148,0.141-0.147,0.263c0.248,0.568,0.354,0.554,0.912,0.331
		C185.505,155.727,184.174,155.254,183.863,155.335z"/>
	<path fill="#1E8346" d="M94.691,27.275c-0.22-0.159-0.504-0.282-0.746-0.402l1.332,0.82C95.133,27.546,94.868,27.403,94.691,27.275
		z"/>
</g>
</svg>
