<?xml version="1.0" encoding="utf-8"?>
<!-- Generator: Adobe Illustrator 26.0.3, SVG Export Plug-In . SVG Version: 6.00 Build 0)  -->
<svg version="1.1" id="Isolation_Mode" xmlns="http://www.w3.org/2000/svg" xmlns:xlink="http://www.w3.org/1999/xlink" x="0px"
	 y="0px" viewBox="0 0 200 200" enable-background="new 0 0 200 200" xml:space="preserve">
<g>
	<path fill="#1E8346" d="M144.435,44.002c-0.241-0.663-0.487-1.086-0.496-1.775c-0.433,0.908-0.999,1.785-1.621,2.573
		c-0.386,0.489-1.217,1.366-1.83,1.564c-0.507,0.165-1.006-0.156-1.485,0.184c-0.308,0.219-0.402,0.648-0.597,0.966
		c-0.185,0.301-0.375,0.699-0.635,0.964c-0.386,0.392-0.9,0.542-1.37,0.869c-0.553,0.383-1.367,1.039-1.629,1.663
		c-0.241,0.573-0.006,1.031,0.014,1.581c-0.72-0.369-1.739-1.229-1.801-2.053c-0.09-1.192,0.764-2.438-1.234-1.715
		c-1.277,0.462-1.813,1.777-2.67,2.708c-0.81,0.881-2.395,1.842-3.587,2.049c0.873-0.851,2.009-1.015,2.981-1.625
		c0.848-0.531,0.886-1.556,1.524-2.268c0.554-0.619,1.236-1.373,2.084-1.508c1.253-0.199,1.47,0.584,1.131,1.651
		c0.733,0.499,1.819-0.103,2.346-0.628c0.804-0.803,1.409-1.481,2.372-2.101c1.2-0.771,3.008-1.591,3.922-2.717
		c0.573-0.706,0.479-1.568,0.906-2.337c0.519-0.935,1.233-1.688,1.815-2.57c0.387-0.587,0.572-1.123,1.061-1.621
		c0.292-0.298,0.62-0.526,0.933-0.794c0.766-0.653,1.055-1.222,1.498-2.093c-0.423-0.13-0.905-0.006-1.335-0.13
		c0.139-0.682,0.488-1.114,0.262-1.79c-0.18-0.538-0.998-1.258-0.473-1.83c0.868-0.948,2.894-0.304,3.876-0.172
		c0.223-0.712,0.149-1.508,0.35-2.191c0.165-0.564,0.641-1.027,1.078-1.436c0.835-0.782,2.033-1.384,2.695-2.291
		c-1.195,0.001-2.782,0.836-3.99,0.412c-0.47-0.164-1.198-0.918-1.096-1.459l-7.009,2.221l-19.154,7.773
		c-0.398,0.038-0.861,0.15-1.296,0.208c-0.722,0.097-0.641,0.069-0.992,0.554c-0.302,0.418-0.188,0.658-0.889,0.558
		c-0.312-0.044-0.611-0.442-0.888-0.412c-0.626,0.068-1.741,1.701-2.251,2.125c-0.509,0.423-2.439,2.39-3.191,1.735
		c-0.24,0.385-0.352,0.866-0.555,1.27c-0.478,0.087-0.708,0.513-1.052,0.805c-0.464,0.395-0.965,0.719-1.46,1.083
		c-0.927,0.682-1.918,1.331-2.832,2.042c-2.62,2.038-5.18,4.156-8.149,5.783c-2.177,1.193-4.161,2.672-6.29,3.963
		c-1.332,0.808-2.023,1.61-2.947,2.819c-0.991,1.296-2.041,2.204-3.285,3.249c-1.059,0.89-2.516,1.549-3.481,2.598
		c-1.074,1.167-0.844,2.648-2.453,3.383c-0.902,0.411-1.822,0.418-2.611,1.06c-0.585,0.476-0.994,1.193-1.596,1.598
		c-1.193,0.8-2.091,2.131-3.183,3.046c-1.306,1.096-2.793,2.101-4.204,3.03c-2.883,1.897-5.672,3.667-8.853,5.032
		c-1.682,0.722-3.214,1.645-4.858,2.355c-1.943,0.84-4.09,1.218-6.075,1.937c-4.003,1.449-7.997,2.982-11.99,4.41
		c-4.682,1.674-9.459,2.38-14.412,3.23c-0.403,0.069-1.138-0.098-1.538-0.059c-0.604,0.058-1.2,0.146-1.806,0.175
		c-2.221,0.105-4.443,0.144-6.667,0.254c-3.145,0.156-6.392,0.289-9.594,0.289L4.323,93.1l12.422,1.284l-0.173,1.978l3.921,3.748
		l1.353,2.498l2.151-0.729l3.331,2.151l2.152-0.729l2.787,2.209l2.591,4.904v1.665l1.897,1.897l2.915,6.94l-1.203,4.117l3.886,2.637
		l-1.434,4.349l-1.11,8.328l0.925,0.879c1.378,0,2.799-0.303,4.154-0.139c0.513,0.063,1.015,0.337,1.508,0.436
		c0.719,0.144,0.58,0.095,1.03-0.468c0.997-1.248,2.842-0.882,4.346-0.801c1.322,0.071,2.567,0.938,3.757,1.522
		c0.263-0.47,0.898-1.183,0.27-1.661c0.826-0.492,1.778-0.842,2.463-1.441c0.536-0.468,0.386-0.839,1.08-0.297
		c0.255,0.199,0.803,0.832,0.948,1.141c0.437,0.928-0.014,2.273-0.183,3.232c-0.156,0.889,0.261,1.573,0.983,2.155v2.637
		l2.776,5.205l2.082,4.649l1.249,0.902l2.29-0.555l2.151,2.221l1.943,0.555l0.624,2.36l-0.902,0.902l0.902,0.278l1.041,1.11
		l-0.486,1.943l2.707,1.388l1.319,1.457l0.416,2.013l4.233,0.694l2.29,2.151l-0.347,1.388l-2.012,2.776l5.413-0.416l7.356-3.331
		l3.678-2.706l8.189-10.41l2.498-1.319v-1.249l2.013-2.29v-1.735c-0.893-0.038-1.357,0.571-2.082,0
		c-0.09-0.071-0.069-0.234-0.069-0.347l1.735-3.817l3.331-3.886l4.372-7.703v-1.666l-1.458,0.555l-1.179,1.318l-2.984,2.082
		l-0.625-0.971l8.397-11.867l1.111-4.164l0.555-8.883l-5.552,0.763l-2.29-1.249l-1.596-7.079l0.069-9.438l-0.416-7.773l-1.318-0.833
		v-4.164l-1.319-1.804v-3.123l0.486-2.637c-0.525-0.226-0.425-0.707-0.968-0.59c-0.259,0.055-0.611,0.441-0.751,0.642
		c-0.382-1.359-0.645-1.753-2.024-2.354c-0.012-0.562-0.11-0.968,0.303-1.341c0.624-0.564,0.957-0.251,1.011-1.248
		c0.044-0.814-0.174-0.94-0.711-1.477c-0.606-0.607-0.628-1.028-0.468-1.946c1.667,1.03,2.691-0.338,4.262-0.88
		c1.331-0.459,2.878-0.919,4.274-1.006l1.735-2.776l-0.208-3.262c1.127,0,1.488-0.847,2.235-1.594
		c0.561-0.562,1.423-0.827,2.148-1.145c0.711-0.312,1.295-0.577,1.952-0.991c1.074-0.677,1.884-0.161,2.961,0.295
		c0.398,0.169,0.957,0.423,1.398,0.313c0.358-0.09,0.662-0.484,1.022-0.646c1.089-0.494,2.395-0.067,3.5,0.09
		c0.844,0.121,1.816,0.255,2.671,0.298c0.835,0.043,0.857-0.332,1.233-1.061c0.451-0.874,0.873-1.74,1.388-2.577
		c0.552-0.898,0.121-0.584-0.113-1.495c-0.166-0.645,0.007-0.684,0.605-1.202c0.452-0.392,0.493-0.282,0.583-0.889
		c0.115-0.773-0.217-1.808-0.508-2.5c1.442-0.735,2.524-1.74,3.772-2.719C144.079,45.916,144.988,45.518,144.435,44.002z"/>
	<path fill="#1E8346" d="M194.739,128.612c-0.076-0.509-0.528-0.421-1.039-0.619c-0.823-0.32-0.71-0.21-1.16-0.955
		c-0.593-0.983-1.022-2.112-1.544-3.13c-0.418-0.815-0.434-2.195-1.637-1.826c-0.302-1.504-1.879-0.991-2.978-1.911
		c-0.787-0.658-1.575-1.701-2.141-2.552c-0.727-1.095-1.399-2.166-2.14-3.247c-0.572-0.834-1.061-1.475-0.637-2.299
		c0.417-0.812,0.77-0.838,0.845-1.852c0.109-1.47-0.772-2.414-0.932-3.745c-0.111-0.917,0.579-1.993,0.684-2.914
		c-1.238,0.031-1.161,0.159-1.393-0.873c-0.196-0.876-0.319-1.737-0.104-2.616c0.065-0.269,0.286-0.278,0.342-0.644
		c0.078-0.502-0.137-0.838-0.01-1.286c0.062-0.219,0.387-0.427,0.484-0.666c0.102-0.251,0-0.612,0.066-0.876
		c0.262-1.044,0.713-1.159,1.396-1.858c1.135-1.162,0.693-2.027,0.433-3.459c-0.242-1.332,0.723-2.031,0.416-3.333
		c-0.324-1.374,0.03-2.52-1.008-3.522c-0.974-0.94-2.146-1.393-3.154-2.235c-1.039-0.867,0.78-2.419,1.062-3.424
		c0.319-1.141-0.502-1.387-1.562-1.891c-0.883-0.42-2.071-0.561-1.76-1.666c0.386-1.372,2.238-1.779,2.076-3.34
		c-0.079-0.753-0.67-1.535-1.321-1.997c-0.244-0.173-0.737-0.133-0.953-0.338c-0.278-0.264-0.404-1.155-0.424-1.579
		c-2.781-1.218-0.51-5.351-0.726-7.694c-0.698-0.637-1.404-1.467-2.221-2.108c-0.818-0.642-1.658-1.253-2.49-1.891
		c-1.112-0.853-5.082-3.523-2.912-5.23c-0.462-0.333-1.033-0.08-1.532-0.302c-0.486-0.216-0.566-0.436-0.928-0.837
		c-0.497-0.551-1.05-1.075-1.483-1.661c-0.389-0.063-1.126,0.856-1.016,1.228c0.144,0.489,0.882,0.342,1.239,0.394
		c0.705,0.102,0.096,0.605-0.371,0.646c-0.44,0.039-0.67-0.425-1.094-0.323c-0.024,0.425,0.119,1.277-0.267,1.6
		c-0.437,0.365-1.197-0.064-1.547-0.356c-0.614,0.372-0.398,1.605-0.215,2.201c-0.478-0.422-0.203-0.922-0.499-1.38
		c-0.244-0.378-0.548-0.211-0.955-0.261c-0.4-0.049-0.991-0.557-1.373-0.421c-0.768,0.273,0.133,0.954,0.04,1.364
		c-0.184,0.807-1.471,0.218-1.953,0.561c-0.365,0.26-0.672,0.893-0.935,1.246c-0.201,0.269-0.611,0.79-0.627,1.118
		c0.433,0.065,1.239-0.139,1.619,0.118c0.348,0.236,0.56,0.825,0.925,1.088c0.413,0.298,0.663,0.132,0.875,0.648
		c0.188,0.457,0.236,1.009,0.236,1.525c-0.322-0.544-0.494-1.358-1.07-1.609c-0.583-0.254-0.953-0.248-1.406-0.714
		c-0.443-0.455-1.214-0.253-1.578-0.808c-0.591-0.898,0.295-1.266,0.314-2.069c-0.422,0.167-0.71,0.415-1.169,0.493
		c-0.324,0.054-0.936-0.097-1.234,0.084c-0.394,0.239-0.151,0.297,0.143,0.703c-0.293,0.07-1.234,0.097-1.379,0.459
		c-0.197,0.492,0.619,0.605-0.294,0.842c-0.253,0.066-1.687,0.557-0.937,1.014c-0.027,0.347-0.261,0.664-0.278,1.017
		c-0.016,0.349,0.054,0.669,0.095,1.008c0.064,0.529,0.267,1.137,0.508,1.583c0.346,0.642,2.037,2.423,2.851,1.828
		c-0.022,0.559-0.766,0.74-1.222,0.673c-0.492-0.073-0.611-0.348-0.89-0.737c-0.192-0.267-0.45-0.78-0.714-0.967
		c-0.306-0.216-0.993-0.101-1.367-0.101c-0.071,0.982-0.494,1.701-1.418,2.151c-0.508,0.248-1.135,0.183-1.587,0.529
		c-0.603,0.461-0.243,1.013-0.197,1.666c0.024,0.337,0.081,0.838-0.072,1.151c-0.258,0.527-0.808,0.298-1.159,0.597
		c-0.577,0.494,0.494,2.257,0.976,2.651c0.307-0.772,0.873-0.491,1.328-0.229c0.187,0.107,0.456,0.164,0.513,0.335
		c0.129,0.387-0.395,0.534-0.605,0.689c-0.608,0.447-0.289,0.636,0.094,1.242c0.135,0.214,0.299,0.381,0.167,0.598
		c-0.096,0.157-0.459,0.115-0.533,0.251c-0.137,0.25,0.21,0.556,0.138,0.767c-0.106,0.308-0.591,0.209-0.8,0.408
		c-0.613,0.582,0.604,1.19,0.82,1.731c0.165,0.413-0.08,0.316-0.078,0.642c0.002,0.445,0.369,1.028,0.561,1.432
		c0.15,0.317,0.295,0.547,0.361,0.874c0.084,0.417,0.023,0.679,0.424,1.017c-0.51,0.019-1.272-0.209-1.339,0.452
		c-0.033,0.325,0.176,0.466,0.339,0.675c0.163,0.21,0.265,0.475,0.421,0.681c0.227,0.302,1.218,0.36,1.227,0.838
		c0.007,0.406-0.707,0.441-0.739,0.921c-1.714,1.263,0.46,2.079-0.707,3.56c1.148,0.772,1.562,2.553,2.438,3.603
		c1.033-0.356,0.833,1.114,0.999,1.625c0.232,0.709,0.885,0.982,0.562,1.876c0.631,0.253,0.57,0.828,0.549,1.413
		c-0.031,0.908-0.012,1.074,0.5,1.953c0.711,1.218,1.94,2.249,1.347,3.589c-0.335,0.756-0.443,0.999-0.363,1.893
		c0.047,0.525-0.258,0.383,0.049,0.801c0.058,0.079,0.552,0.204,0.675,0.289c0.568,0.396,0.923,1.096,1.145,1.737
		c0.282,0.817-0.149,1.548-0.019,2.415c0.043,0.284,1.203,4.393-0.086,3.589c-0.016,0.481,0.017,0.813,0.136,1.181
		c0.098,0.303,0.4,0.398,0.381,0.772c-0.137-0.06-0.374-0.037-0.508-0.085c-0.545,1.045,0.79,2.122,1.251,3.1
		c0.91,1.93-0.503,3.08-1.533,4.717c0.823,0.733,2.984,0.708,2.667,2.256c1.534,0.136,4.921,0.662,5.465-1.394
		c1.072,0.637,2.407,1.367,3.605,1.73c0.783,0.237,1.776-0.084,2.54,0.272c0.797,0.371,1.18,0.916,2.183,1.071
		c1.233,0.192,2.074-0.114,3.237-0.451c0.846-0.245,2.539-0.604,2.958,0.26c0.365,0.751-0.385,1.787-0.095,2.581
		c0.564,1.547,3.851,1.322,4.621,0.172c0.696,0.945,2.156,0.868,3.313,0.946c0.124,1.757-1.228,1.624,0.645,2.995
		c0.945,0.692,1.841,1.48,2.787,2.152c0.674,0.479,1.5,0.845,2.334,0.295c0.352-0.232,0.701-0.937,1.119-1.248
		c0.644-0.479,1.167-0.791,1.693-1.44c0.535-0.661,0.59-0.83,0.697-1.709C194.285,130.113,194.79,128.948,194.739,128.612z"/>
	<path fill="#1E8346" d="M148.123,58.486c-0.248-0.116-0.563-0.059-0.815-0.179c-0.229-0.11-0.437-0.274-0.825-0.425
		c0.01,0.367-0.001,0.746,0.057,1.108c0.043,0.271,0.126,0.532,0.17,0.801c0.045,0.283,0.042,0.483,0.211,0.74
		c0.122,0.186,0.391,0.441,0.592,0.546c0.24,0.124,0.162-0.196,0.411-0.245c0.236-0.047,0.514,0.058,0.737-0.034
		c0.252-0.104,0.198-0.397,0.199-0.649c0-0.429-0.129-0.772-0.307-1.16C148.464,58.795,148.325,58.58,148.123,58.486z"/>
	<path fill="#1E8346" d="M159.488,45.204c-0.421,0.03-0.896,0.052-1.307,0.144c-0.385,0.086-0.594,0.352-0.869,0.607
		c-0.21,0.195-0.429,0.382-0.632,0.585c-0.173,0.172-0.299,0.423-0.493,0.571c-0.208,0.159-0.651,0.274-0.576,0.627
		c0.083,0.393,0.621,0.662,0.76,1.067c0.123,0.36,0.173,0.865,0.443,1.156c0.217,0.235,0.649,0.234,0.939,0.359
		c0.348,0.151,0.688,0.402,1,0.617c0.25,0.173,0.465,0.436,0.783,0.49c0.521,0.089,0.874-0.427,1.352-0.513
		c0.361-0.065,0.612,0.106,0.885,0.298c0.145,0.102,0.464,0.237,0.657,0.167c0.353-0.126,0.188-0.759,0.154-1.024
		c-0.025-0.197-0.023-0.366,0.065-0.541c0.138-0.273,0.16-0.436,0.22-0.742c0.114-0.582,0.353-1.104,0.354-1.717
		c-0.398,0.312-0.74,0.696-1.137,0.999c-0.069-0.589,0.592-1.05,0.508-1.833c-0.118-0.128-0.167-0.283-0.317-0.389
		c-0.228-0.16-0.514-0.272-0.76-0.404c-0.236-0.126-0.469-0.282-0.679-0.446c-0.138-0.108-0.23-0.271-0.407-0.289
		c-0.13-0.013-0.322,0.125-0.457,0.157C159.811,45.192,159.654,45.193,159.488,45.204z"/>
	<path fill="#1E8346" d="M153.162,28.179c-0.207-0.192-0.488-0.549-0.884-0.035c0,0.36-0.06,0.778,0,1.13
		c0.081,0.475,0.524,0.752,0.919,0.987c0.961,0.571,1.421,1.528,2.639,1.527c0.737-0.001,1.485,0,2.223-0.034
		c0.346-0.016,1.784,0.08,1.917-0.139c0.149-0.245-0.492-1.256-0.601-1.448c-0.149-0.263-0.354-0.905-0.639-1.05
		c-0.216-0.11-0.813-0.003-1.073-0.002c-0.689,0.004-1.376,0.069-2.071,0.07c-0.632,0.001-0.867-0.13-1.408-0.418
		C153.817,28.571,153.472,28.465,153.162,28.179z"/>
	<path fill="#1E8346" d="M156.754,25.199c0.366-0.068,0.794-0.045,1.12-0.223c0.313-0.17,0.686-0.131,1.028-0.185
		c0.176-0.028,0.668-0.135,0.744-0.333c0.097-0.252-0.437-0.115-0.543-0.108c-0.304,0.022-0.655-0.036-0.939,0.089
		c-0.207,0.092-0.418,0.147-0.635,0.2c-0.207,0.051-0.377,0.133-0.574,0.208c-0.219,0.085-0.452,0.187-0.683,0.209
		c-0.168,0.016-0.346,0-0.514,0C155.721,25.516,156.527,25.241,156.754,25.199z"/>
</g>
</svg>
