<?xml version="1.0" encoding="utf-8"?>
<!-- Generator: Adobe Illustrator 26.0.3, SVG Export Plug-In . SVG Version: 6.00 Build 0)  -->
<svg version="1.1" id="Layer_1" xmlns="http://www.w3.org/2000/svg" xmlns:xlink="http://www.w3.org/1999/xlink" x="0px" y="0px"
	 viewBox="0 0 200 200" enable-background="new 0 0 200 200" xml:space="preserve">
<g id="Layer_1_00000039839195490594465200000012898777745692609423_">
	<g id="Layer_1_00000128480095285341338950000008464522443776971395_">
	</g>
</g>
<g id="Isolation_Mode">
	<path fill="#1E8346" d="M159.202,60.461c1.425,1.772-1.612,1.895,1.747,2.93c0.9,1.288,1.616-0.267,2.302,2.068
		c0.27,0.195,0.65,0.043,0.921-0.152c1.089-1.179,1.829,0.661,2.986,0.655c-0.237,0.119-0.311,0.425-0.294,0.69
		c0.406,2.325-1.109,0.305-1.514,1.576c-0.401-0.737-1.362-0.589-1.213,0.342c-0.291,0.002-0.58-0.118-0.786-0.323
		c-0.587,0.667,0.841,1.806,1.059,2.579c2.914-1.155,3.314,0.637,3.805,3.133c-0.519,0.649-0.592,1.36-0.315,2.076
		c-0.31,0.676-0.884,1.353-0.602,2.18c-0.801,0.405-1.869,0.732-1.953,1.764c-1.802,0.603-2.163,2.687-0.54,3.778
		c-0.617,0.865-1.519,1.679-0.254,2.473c0.22,1.002,0.335,2.331,1.794,1.844c0.579,0.527,0.458,1.497,1.006,2.003
		c0.817,0.182,1.123,0.862,1.371,1.608c0.57-0.357,1.316-0.192,1.724-0.776c0.333-0.61,1.681-0.373,1.742,0.299
		c-0.031,0.421-0.443,1.064,0.252,1.104c0.85,0.554,1.854-0.627,2.551,0.158c0.261,0.348,0.873,0.314,1.256,0.212
		c1.292-1.174,2.544,0.856,3.409-1.048c0.214,0.103,0.468,0.284,0.724,0.209c0.075,0.087,0.145,0.188,0.179,0.293
		c0.363,0.354,0.822,0.69,1.217,0.205c0.634,0.003,1.222,0.202,1.856-0.009c0.613,0.08,0.977,0.816,1.591,0.927
		c0.422,0.083,0.909-0.016,1.201-0.316c0.481,0.03,1.008,0.016,1.268-0.5c0.21-0.495,0.902-0.12,1.304-0.438
		c0.394,0.89,0.025,2.548,1.433,2.685c0.097,1.237-0.259,1.354,0.835,2.228c0.248,0.606-0.227,1.224-0.354,1.778
		c-0.134,0.905,0.605,1.621,0.898,2.388c-0.309,2.098,3.948,2.199,2.949,4.03c-0.983,0.325-1.791,0.186-2.647-0.322
		c-0.674,0.201-1.919,0.234-1.8,1.182c0.241,0.362,0.709,0.406,1.075,0.481c0.141,0.198,0.152,0.51,0.442,0.646
		c0.674,0.508,0.186,1.571-0.27,2.013c0.314,1.44-1.257,1.41-1.773,2.403c0.029,0.847,0.416,1.875,0.057,2.719
		c-0.473,0.505-0.547,1.168-0.357,1.816c0.574,1.487,0.927,3.211,2.762,3.552c0.405,0.145,0.445,0.156,0.444,0.629
		c-0.319,1.058,0.808,0.946,1.153,1.664c0.273,0.663,0.263,1.452,0.796,1.919c0.465,0.285,0.432,0.789,0.078,1.148
		c-0.231,1.217,0.126,2.641-0.077,3.893c-0.353,0.235-0.721,0.49-0.769,0.987c-0.173,0.914-1.481,1.305-2.255,1.662
		c-1.532,0.162-3.849-0.16-4.946-1.274c0.131-0.926-0.985-0.978-1.551-1.488c-1.581-0.85-3.032-1.773-4.864-1.187l-1.888,3.125
		l-5.448,3.092c-0.614,0.198-1.328-0.102-1.871,0.401l-3.61-0.885c-2.376,1.242-5.689,2.444-8.252,1.386
		c-1.502-0.197-2.284-1.731-3.647-2.372l-2.039,2.707l-2.189,0.836c-1.992-0.106-3.699-1.429-5.549-1.972c0,0-4.847,0-4.847,0
		c-0.2,0.094-0.297,0.292-0.559,0.218c-2.395-1.59-3.345-0.165-4.918,1.615c-0.783,0.589-1.754-0.124-2.533-0.237
		c-2.796-0.065-14.186,1.093-17.373,1.187l-1.354-1.028l-1.88,0.501l-0.652-1.078c-4.248,0.062-8.992-4.603-12.091-6.877
		l-3.56,0.234l-0.618,1.755c-2.511,1.863-2.558,1.328-5.284,0.869c-2.037,0.335-3.746,1.981-3.666,4.118
		c0.301,0.563,0.815,0.908,0.343,1.598c-1.456,0.348-8.507,2.98-9.91,2.239c-2.335,0.871-6.19,0.937-8.473-0.133l0.067,1.938
		l-2.691-0.648l-3.159,0.448l-0.067-1.454l-0.384-0.351l-1.504,0.719l-1.404-0.852l-0.501,0.251c-1.6-1.272-0.968,1.402-2.234,0.926
		c-0.329-0.194-0.519-0.544-0.912-0.337c-0.375,0.287-0.858-0.113-0.734-0.541c0.406-0.842,1.956-1.364,1.432-2.561
		c-0.266-0.535-0.892-0.657-1.416-0.48c-1.056-0.198-2.184-0.717-3.056-1.351c-0.187-1.344-2.07-0.096-3.047-0.535
		c-0.865,0.632-2.162,0.865-3.076,0.118c-0.646-0.451-0.1-2.086-1.149-1.971c-1.033,0.52-2.653-0.082-3.091-1.221
		c-1.104,0.141-2.053,0.885-3.213,0.806c-0.881-0.232-1.418,0.557-2.147,0.904c-1.668,1.169-0.746,1.472-3.037,0.748
		c-1.066,0.314-2.008,0.737-3.034,0.067c-0.93,0.09-2.358,1.124-2.95,0c-1.101-0.472-1.361-1.303-1.111-2.445
		c0.094-0.399-0.268-0.495-0.481-0.726c-0.16-0.361,0.044-0.771-0.004-1.158c-0.504-0.29-1.146-0.407-1.451-0.952
		c-0.418,0.122-0.865,0.189-1.292,0.29c0.073-2.559-0.759-0.816-1.661-2.358c-2.044,1.273-1.751,1.612-3.95,0.158
		c0.09-0.743,0.539-1.496,0.266-2.301l-1.655-1.42c-0.487,0.687-1.701,2.409-2.557,2.657c0.004-0.432-0.497-3.044-0.177-3.358
		c0.581-2.2,0.271-4.372-0.259-6.585c-1.329,0.27-2.478-0.641-3.366-1.537c-0.19-0.38-0.54-0.366-0.872-0.184
		c-0.68,0.489-1.245-0.143-1.961-0.111c-0.438-0.019-0.836-0.523-0.348-0.776c0.247-0.076,0.35,0.103,0.406-0.25
		c-0.009-0.498-0.009-1.007,0.379-1.386c0.273-0.395,0.751-0.205,1.134-0.336c0.822-1.14,1.063-2.692,0.937-4.091
		c0.509-0.249,1.543-0.286,1.653-1.003c1.232-0.1,2.568,0.47,3.543-0.504c0.402-0.081,0.831-0.085,0.907-0.568
		c0.321-0.506,0.24-1.066-0.105-1.502c0.235-0.68,0.781-2.014,1.571-2.129c0.794,0.283,1.203,2.525,2.188,1.693
		c1.054-0.837,2.238-0.911,0.813-2.3c-0.813-0.271-0.772-0.605-0.647-1.345c0.031-1.318-1.414-2.018,0.084-3.037
		c0.355-0.259,0.049-0.554-0.106-0.835c0.371-1.197,1.291-2.367,0.46-3.764c0.191-1.186,1.005-0.194,1.399-0.915
		c0.464-0.549-0.333-0.932-0.297-1.509c0.153-0.75,1.215-0.708,1.652-1.253c0.243-0.246,0.012-0.421,0.019-0.723
		c0.15-0.44,0.058-0.791-0.05-1.217c0.273-0.651,1.25-1.008,1.712-1.604c1.249-0.471,3.245,0.46,3.562-1.596
		c-0.007-0.407,0.205-0.698,0.595-0.755c0.004-0.657,0.613-0.958,1.186-1.154c0.503-0.25,1.578-0.616,1.131-1.389
		c-0.103-0.743,0.718-1.049,0.722-1.722c0.002-0.203,0.017-0.675,0.18-0.757c0.57-0.007,1.303-0.075,1.598-0.72
		c-0.63-1.047,0.038-2.942,0.478-4.03c0.14-0.541,0.909-0.273,1.278-0.717c0.807-0.044,0.181-1.012,0.657-1.347
		c0.36,0.056,0.649-0.152,0.747-0.525c0.926-1.71,3.157-1.396,4.651-2.169c0.368-0.749,1.293-0.968,1.423-1.792
		c0.164-0.551,0.273-1.298,0.915-1.473c0.482-0.247,0.021-0.976,0.677-1.21c0.638-0.163,0.984-0.431,1.084-1.094
		c0.135-0.504,0.605-0.889,0.685-1.363c-0.478-2.686,1.473-1.507,1.012-2.799c-1.22-0.703,0.768-1.217,0.792-2.169
		c0.955-0.832,1.248-2.786,2.808-1.85c0.247-0.545,1.033-0.779,1.019-1.416c0.063-0.674,0.625-0.633,1.09-0.545
		c0.853-0.833,1.19-2.202,2.119-2.894c0.635-0.112,1.179-0.357,1.82-0.393c0.945,0.447,1.552,0.017,2.125-0.715
		c0.704-0.14,1.459,0.205,2.084,0.473c0.225,0.278,0.529,0.202,0.677-0.112c0.264-0.565,0.829-1.145,1.433-0.637
		c0.546,0.134,1.266-0.863,1.587-1.279c-0.523-0.691-0.98-1.146,0.173-1.47c0.32-0.239,0.125-0.838,0.486-1.041
		c0.313,0,0.445,0.45,0.79,0.377c1.522-0.438,0.772-2.833,2.16-3.666c0.767-0.921,1.801-1.059,2.928-0.843
		c1.424-0.594,2.923-0.297,4.393-0.2c0.784-1.119,2.144-1.456,3.432-1.838c1.182-0.555,1.882,0.882,2.985,0.729
		c0.518-0.343,1.034-0.665,1.684-0.311c1.44,0.67,2.042,2.172,3.626,0.689c0.279-0.83,0.573-2.052,1.709-2.133
		c1.827,0.064,3.203,1.9,2.285,3.596c-0.297,1,0.45,1.477,1.305,1.686c0.731,0.456,2.22,1.223,2.931,0.363
		c0.614-0.745,0.371-2.088,1.531-2.277c1.076-0.336,1.437,0.134,1.475,1.198c1.831,1.756,1.968-1.625,3.969,0.304
		c1.861,3.587,6.177,0.449,8.048,4.384c-0.183,0.498-0.497,0.62-0.99,0.822c-1.191,0.37-1.536,1.611-2.205,2.522
		c-0.848,0.881-2.312,0.806-3.288,1.628c1.884,3.21-2.115,2.246-2.524,4.554c2.641,0.742,1.41,1.346,4.043-0.133
		c0.637,0.1,1.007,0.736,1.645,0.843c1.142-0.041,1.587,1.111,2.285,1.815c0.789-0.511,1.429-1.703,2.537-1.528
		c1.284,0.015,2.298-1.098,3.192-1.869c0.356-0.14,0.796-0.147,0.906,0.272c0.229,0.278,0.619,0.195,0.933,0.262
		c0.52,0.43,1.125,0.75,1.769,1.045c0.541,0.563,1.22-0.223,1.601,0.494c0.805,0.221,1.643-0.506,2.465,0.127
		c0.392-0.014,0.736-0.257,1.153-0.177c0.307,0.093,0.321-0.165,0.474-0.323c0.737-0.016,1.533,0.532,2.227,0.775
		c0.17,0.161,0.09,0.347,0.083,0.529c0.261,0.333,1.062,0.156,1.357-0.057c0.051-0.419,0.494-1.05,0.872-0.488
		c0.564,0.178,0.703,0.41,0.829,0.967c0.464,0.251,1.685,1.701,2.062,1.238c0.297-0.928,1.965-1.941,2.519-0.714
		c0.22,0.491,0.837,0.367,1.179,0.585c0.187,0.258,0.404,0.55,0.734,0.657c0.767,0.464,0.276-0.925,1.116-0.288
		c0.309,0.316,0.7,0.023,1.029,0.155c0.353,0.338,0.75,0.353,1.172,0.14c0.469-0.034,0.918,0.285,1.371,0.317
		c0.388-0.12,0.718-0.521,1.066-0.752c1.277,1.403,2.887,1.58,2.815-0.734c0.327-0.722,1.283-0.87,1.488-1.75
		c0.503-0.478-0.134-1.39,0.617-1.649c0.531-0.515,0.695,0.251,1.201,0.323c0.626,0.275,1.072-0.448,1.644-0.143
		c0.484,0.347,1.168,0.24,1.649-0.058c0.261,0.252,0.302,0.631,0.531,0.895c0.274,0.316,0.803,0.036,1.123,0.292
		c0.505,0.569,0.994,1.114,1.84,0.959c0.241,1.034,1.789,0.425,1.921,1.297c0.029,0.239,0.128,0.442,0.364,0.533
		c0.164-0.638,0.882-0.454,1.35-0.314C158.22,59.236,158.39,60.222,159.202,60.461z"/>
</g>
</svg>
