<?xml version="1.0" encoding="utf-8"?>
<!-- Generator: Adobe Illustrator 26.0.3, SVG Export Plug-In . SVG Version: 6.00 Build 0)  -->
<svg version="1.1" id="Layer_1" xmlns="http://www.w3.org/2000/svg" xmlns:xlink="http://www.w3.org/1999/xlink" x="0px" y="0px"
	 viewBox="0 0 200 200" enable-background="new 0 0 200 200" xml:space="preserve">
<g id="Layer_1_00000034049226174973982280000007955528447080325276_">
	<g id="Layer_1_00000128480095285341338950000008464522443776971395_">
	</g>
</g>
<g id="Isolation_Mode">
	<path fill="#1E8346" d="M123.724,83.18c-0.382-0.003-0.661-0.132-1.017-0.186c-0.216,0.563-0.659,0.964-1.085,1.375
		c-0.789-0.143-1.426-0.883-2.186-0.247c-1.621,0.019-2.384,1.344-3.413,2.305c-1.011-0.607-2.093-1.282-3.157-1.847
		c-0.757-0.098-1.657,0.517-2.411,0.304c-0.387-0.545-1.275-1.495-0.993-2.17c1.104-0.974,2.559-2.012,2.139-3.676
		c-0.305-0.212-0.409-0.768-0.717-1.001c-0.579-0.497-1.441-0.208-1.935-0.795c-0.414-1.403-1.365-0.214-2.063-1.032
		c-0.984,0.155-0.752-0.555-1.075-1.231c-0.688-0.878-1.949-0.675-2.807-1.165c-0.65-0.53-0.452-0.621-1.367-0.621
		c-4.923,1.102-8.092-2.725-11.464-5.606c-0.822-1.648-0.618-3.605-3.125-3.584c-0.103-0.231-0.254-0.535-0.344-0.714
		c-1.155-0.655-2.05-1.455-3.429-0.88c-0.384-1.258-1.303-0.495-2.303-0.308c-0.977-0.016-1.886,0.236-1.571,1.412
		c-1.975-1.845-6.034-1.604-6.444-4.619c-1.33,0.172-2.144,0.114-2.789,1.419c-0.705-0.237-1.015,0.093-1.677,0.272
		c-0.713,0.031-0.735-0.384-1.214-0.533c-0.431-0.134-1.724,0.009-2.053,0.329c-1.326-0.19-2.377,0.566-3.444,1.098
		c-0.455-2.269-2.772,0.249-2.833-1.248c-0.809-0.062-1.173-0.172-1.486-0.899c-1.043,0.154-0.808,1.046-1.39,1.631
		c-1.616,0.411-2.394-0.632-3.548-1.461c-0.408,1.12-1.272,1.501-1.438,0.019c-1.603,0.699-1.721,1.419-3.041-0.393
		c-0.548-1.446-2.699-0.688-2.875-2.342c-0.378-0.092-0.773,0.116-1.032,0.353c-0.395-1.188-0.187-2.221-1.615-2.737
		c-0.688,0.886-1.139,1.296-2.274,1.606c-0.046-0.337-0.051-0.663-0.171-0.981c-1.149,0.029-1.282,0.151-1.709-1.006
		c-0.885-0.107-1.81,0.072-2.199-0.867c-0.416,0.028-0.835,0-1.246,0.042c0.274,1.735-2.132-0.702-2.394-0.863
		c-1.089-0.669-2.35,1.108-2.514-0.818c-0.364-0.084-0.666-0.282-1.004-0.442c0.203-1.285-0.386-1.656-1.616-1.438
		c-1.011,0.075-1.751-0.521-2.312-1.234c-0.701-0.378-1.539,0-2.205-0.568c-1.463-1.847-3.198,1.855-4.904,0.417
		c-1.293-1.49-3.133-0.836-4.806-1.46c-1.948-1.503-4.289-0.142-6.458,0.137c0.049,2.756-3.373,4.385-2.596,7.253
		c1.874-0.323,3.073,1.031,4.606,1.84c3.853,0.557,1.232,6.213,4.845,7.15c1.569-0.765,1.231-1.395,2.9,0.033
		c2.142,0.849,2.134-0.249,3.455,2.095c0.505,0.3,0.981,0.026,1.424-0.173c1.162-0.454,2.164,0.711,3.317,0.764
		c2.971-0.383,5.179,0.717,6.281,3.575c4.76-1.902,2.776,5.407,5.333,7.223c0.902,0.575,2.242-0.227,3.265,0.301
		c2.033,0.757,4.289,0.983,5.461,2.999c0.557,1.789,0.704,3.683,1.938,5.198c0.237,2.199,0.207,4.613,0.595,6.755
		c2.277,1.873,2.781,4.836,2.363,7.716c0.081,0.718,0.285,0.211,0.652,0.772c0.215,0.328,0.052,1.083,0.203,1.482
		c3.25,4.354,4.132,10.599,2.185,15.704c-1.111,2.07-3.916,2.978-4.664,5.235c0.14,0.917-0.507,1.597-0.702,2.413
		c1.651,0.235,3.003,2.657,4.707,1.184c0.274,0.297,0.211,0.706,0.226,1.082c1.233-0.188,2.188,0.221,2.895,1.245
		c1.261-1.019,2.616-2.562,4.034-3.282c1.021,0.064,1.917,1.667,2.985,0.615c1.078-0.026,3.214-0.64,3.716,0.613
		c0.807,0.026,1.683-0.319,2.47,0.066c1.033,0.869,2.201,0.809,3.429,0.996c0.888,0.628,2.006,1.297,3.038,0.572
		c0.354-0.654-0.535-0.727,0.401-1.194c0.607-0.304,0.922-0.52,1.205-1.154c-0.137-2.802,2.926-4.46,5.295-2.998
		c0.638,0.414,1.13,0.553,1.91,0.318c0.209,1.075-0.706,2.062-0.647,3.088c0.278,0.749,1.774,1.578,1.671,0.106
		c0.286-0.078,0.582-0.124,0.873-0.179c-0.054,1.469,1.682,0.913,2.446,1.747c0.789,0.873,0.392,3.206,2.029,2.899
		c1.637,1.056,2.558,2.619,4.667,2.831c0.247,0.862-1.622,1.087-2.112,1.544c-0.938,0.874,1.078,0.396,1.519,0.222
		c0.135,0.225,0.151,0.512,0.179,0.779c2.106-0.345,0.98,0.94,0.959,2.15c2.369-0.733,6.485-1.451,6.717,2.125
		c0.853-0.402,2.828-1.503,3.573-0.556c1.097,0.743,2.68-0.317,3.717,0.896c1.061,0.483,1.511-0.73,2.315-1.282
		c0.708-0.486,4.146-1.47,4.417-0.569c0.986-0.729,2.043-1.29,3.227-1.644c0.195,0.157,0.245,0.432,0.323,0.66
		c1.982,0.455,2.138-0.542,2.352-2.154c0.646,0.435,1.524,0.332,2.185,0.576c0.841,1.555,1.446,1.011,2.944,1.06
		c0.012-0.362,0.016-0.731-0.01-1.092c1.909,1.133,3.826,3.138,4.989,0.1c0.367,0.219,0.396,1.013,0.384,1.416
		c0.364-0.245,1.102-1.247,1.514-0.523c0.31-1.636,0.838-1.479,2.374-1.38c0.086,0.359,0.215,0.714,0.391,1.03
		c0.253-0.084,0.487-0.246,0.695-0.418c0.106,0.263,0.142,0.544,0.217,0.817c0.551-0.482,0.504-0.556,1.233-0.616
		c0.308-0.025,0.685,0.074,0.606-0.388c0.738,0.633,1.571,1.131,2.597,0.882c-1.028-1.505-3.26-0.779-1.901-3.596
		c0.827,0.306,0.471,1.04,1.52,1.046c0.857-0.246,1.35,0.391,1.954,0.87c1.13-1.17,2.592-2.04,3.552-3.385
		c0.262-0.162,0.5-0.022,0.768-0.155c0.687-0.7,1.195-1.814,1.958-2.489c0.428-0.431,0.471-0.101,0.944-0.192
		c0.63-0.122,1.753-1.048,1.764-1.739c0.005-0.279,0.651-0.391,0.93-0.487c0.627-0.254,0.774,0.286,1.302,0.489
		c0.954,0.135,1.094,1.1,2.124,1.026c0.87-0.033,0.903-0.944,1.827-0.861c0.362,0.99,1.219,1.425,2.191,1.575
		c0.771,1.094,0.78,1.446,2.337,1.4c0.586,0.124,0.393,0.259,0.801,0.669c0.608,0.611,1.913,0.284,2.724,0.305
		c-0.257,0.897-2.228,1.553-1.446,2.529c0.968,0.795,1.863,1.581,2.748,2.394c0.605,0.186,1.264,0.013,1.846,0.282
		c2.444,2.272,4.257,0.226,6.405,1.485c1.11-2.313,3.004,0.087,4.714-0.218c0.502-0.946,2.711,2.215,2.92,2.83
		c4.86,0.24,1.376,1.376,3.752,1.819c0.349-0.711,1.088-2.058,1.959-1.925c2.975,1.686,2.328-2.492,2.755-4.217
		c0.211-0.462,0.15-0.128,0.441-0.424c0.36-0.366,0.145-0.771,0.422-1.144c0.297-0.399,1.099-0.629,1.461-0.947
		c-1.01-0.504-1.222-0.376-1.938-1.322c1.197-0.338-0.494-1.233-0.935-1.353c-0.815-2.504-4.392-1.198-5.697-3.061
		c0.077-1.694-1.973-1.74-3.049-2.407c-0.07-0.644-0.565-1.119-0.938-1.61c-0.26-0.612,0.155-1.27,0.828-1.089
		c0.09-0.372,0.097-0.879,0.009-1.255c-0.93,0.012-1.722,0.052-2.127-0.959c-0.434,0.152-0.607,0.778-0.705,1.188
		c-0.538-0.323-0.912-0.502-0.523-1.104c-0.4-0.174-0.275-0.348-0.292-0.709c-0.447-1.625-1.053-2.787-0.175-4.477
		c2.162,1.179,3.517-0.911,4.852-2.309c0.762-0.411,1.06-1.134,1.124-1.962c0.488-0.849,0.304-1.584-0.343-2.281
		c-0.503,0.105-1.083,0.067-1.603,0.047c-0.007-0.101-0.1-0.233-0.114-0.324c-0.224,0.141-0.362,0.406-0.535,0.612
		c-2.251-0.708,0.024-1.506-1.969-2.273c0.659-2.297-1.73,0.26-2.578-0.172c-0.534-1.133-0.73-0.347-1.39,0.165
		c-0.495-0.495-0.672-1.316-0.885-1.959c-0.481,0.259-0.817,0.788-1.429,0.721c-0.073-0.276-0.036-0.605-0.134-0.895
		c-0.769-0.135-1.352,0.044-1.748,0.751c-1.833-1.067-0.445-3.345-3.257-2.952c-0.871-0.055-1.139-0.794-1.834,0.098
		c-0.24-0.812-0.464-1.175-1.441-1.166c0.161-0.256,0.341-0.499,0.47-0.775c-1.107-1.076-2.823-1.423-3.948-2.5
		c0.542-0.894,1.14-1.735,1.39-2.753c0.266-0.188,1.297-0.011,1.683-0.103c1.797-0.338,0.554-2.003,0.577-3.111
		c0.772-1.35,1.607-2.793,1.069-4.459c-0.58-0.229-1.624,0.445-2.052,0.107c-0.364-0.288-0.015-0.588-0.531-0.765
		c-1.742,0.049-2.474,0.055-3.308-1.682c-2.345,1.518-4.01-1.039-6.082,1.056c-0.74-1.164-0.191-1.625-1.704-2.021
		c-0.118-0.776-0.207-1.359-1.245-1.283c-0.122-0.334-0.121-0.742-0.138-1.102c-0.423-1.126-2.014-1.42-2.109-2.602
		c-0.572-0.427-1.761-0.206-2.477-0.149c-0.589,0.181-0.784,0.643-1.363,0.201c-0.812-0.62-0.941-1.685-2.106-1.726
		c-1.691-0.25-2.434-0.117-2.537,1.749c-0.057,0.539-0.565,0.59-0.878,0.899c-0.189,0.323,0.017,1.142-0.003,1.529
		c-0.066,1.274-1.33,0.761-1.839-0.056c-0.96-1.121,0.042-2.889-1.447-3.539c-1.177-1.414-2.731-0.562-4.186-0.713
		c-0.486-0.614-0.659-1.06-1.199-0.192c-1.267,0.235-1.01,1.452-0.532,2.337c-0.858-0.351-2.165-1.273-2.986-0.601
		c-0.779,0.295-1.35-0.358-2.204-0.371c-0.94,0.062-1.637,1.06-2.393,1.572C123.581,81.847,123.95,82.543,123.724,83.18
		L123.724,83.18z"/>
</g>
</svg>
