<?xml version="1.0" encoding="utf-8"?>
<!-- Generator: Adobe Illustrator 26.0.3, SVG Export Plug-In . SVG Version: 6.00 Build 0)  -->
<svg version="1.1" xmlns="http://www.w3.org/2000/svg" xmlns:xlink="http://www.w3.org/1999/xlink" x="0px" y="0px"
	 viewBox="0 0 200 200" enable-background="new 0 0 200 200" xml:space="preserve">
<g id="Layer_1">
	<g id="Layer_1_00000107551159852787612550000017757744099325915571_">
		<g id="Layer_1_00000128480095285341338950000008464522443776971395_">
		</g>
	</g>
</g>
<g id="Isolation_Mode_00000063621668281934077600000006196874878142535819_">
	<path fill="#1E8346" d="M129.576,5.341c-0.434-0.29-1.281,0.136-1.734-0.08l-0.127,0.231c-0.207-0.123-0.358-0.366-0.563-0.513
		c-0.237-0.171-0.725-0.34-0.898-0.578c-0.251-0.347,0.007-1.13-0.507-1.307c-0.547-0.189-0.598,0.827-0.789,1.137
		c-0.293,0.476-0.563,1.05-0.661,1.605c0.307,0.41-0.04,1.241-0.114,1.706c-0.081,0.508-0.093,0.956-0.276,1.438
		c-0.185,0.487-0.276,0.933-0.281,1.457c-0.002,0.184-0.095,0.49-0.037,0.659c0.041,0.121,0.27,0.267,0.378,0.386
		c-0.417,0.537-0.732,0.556-1.294,0.673c-0.013,0.416-0.035,0.871,0.012,1.285c-0.271,0.255-1.014,0.069-1.363,0.07
		c-0.392,0.001-0.789,0.015-1.179-0.006c-0.165,0.351-0.553,0.865-0.874,1.084c-0.277,0.189-0.938,0.154-1.299,0.193
		c-0.127,0.014-0.364,0.001-0.462,0.067c-0.093,0.064-0.023,0.223-0.163,0.29c-0.185,0.088-0.404-0.09-0.578-0.112
		c-0.279-0.034-0.485,0.044-0.751-0.096c-0.38-0.2-1.114-0.913-1.183-1.349c-0.029-0.187,0.09-0.383,0.04-0.571
		c-0.115-0.426-0.745-0.422-1.09-0.272c-0.226-0.339-0.343-0.258-0.704-0.11c-0.314,0.129-0.609,0.272-0.941,0.344
		c-0.362,0.078-0.737,0.132-1.104,0.186c-0.448,0.066-0.888-0.338-1.301-0.063c0.182,0.742-0.658,0.073-0.952-0.003
		c-0.264-0.069-0.415-0.057-0.607,0.102c-0.071,0.059-0.164,0.289-0.263,0.311c-0.285,0.062-0.137-0.139-0.309-0.205
		c-0.272-0.104-0.636-0.037-0.927-0.036c-0.435,0.002-0.869,0-1.303,0c0,0.385-0.053,0.771-0.053,1.156
		c0,0.491-0.094,0.949-0.195,1.427c-0.06,0.286-0.137,0.569-0.189,0.856c-0.073,0.401-0.091,0.76-0.299,1.121
		c-0.233,0.403-0.464,0.808-0.632,1.243c-0.14,0.366-0.136,0.849-0.114,1.24c0.033,0.577,0.161,1.132,0.236,1.701
		c0.039,0.29,0.079,0.615,0.151,0.897c0.169,0.661-0.219,1.468-0.44,2.101c-0.222,0.638-0.625,1.659-1.21,2.038
		c-0.994,0.643-1.866,0.019-2.912-0.01c-1.033-0.029-0.805,0.7-0.805,1.486c0,1.028-0.323,2.089-0.378,3.122
		c-0.026,0.491-0.043,0.909-0.268,1.343c-0.185,0.359-0.44,0.547-0.497,0.96c-0.081,0.587,0.045,1.034-0.197,1.597
		c-0.247,0.575-0.229,1.075-0.226,1.699c0.008,1.956-0.539,3.939-0.977,5.821c-0.289,1.239-0.203,2.52-0.62,3.741
		c-0.387,1.131-0.846,2.107-1.039,3.292c-0.131,0.802-0.173,1.413-0.49,2.099c-0.418,0.901-0.319,1.871-0.488,2.828
		c-0.415,2.345-1.275,4.54-2.02,6.792c-0.179,0.54-0.472,0.999-0.794,1.464c-0.402,0.581-0.629,1.257-0.891,1.912
		c-0.286,0.716-0.459,1.607-0.591,2.373c-0.214,1.247-0.572,2.303-0.905,3.507c-0.219,0.794-0.688,1.443-1.029,2.185
		c-0.363,0.79-0.617,1.603-0.989,2.392c-0.408,0.867-0.493,1.78-0.866,2.651c-0.309,0.721-0.704,1.353-0.957,2.105
		c-0.235,0.697-0.524,1.225-0.99,1.823c-0.606,0.778-1.067,1.598-1.554,2.45c-0.303,0.529-0.458,1.106-0.814,1.621
		c-0.301,0.433-0.627,0.883-0.958,1.289c-0.21,0.258-0.477,0.469-0.684,0.718c-0.363,0.437-0.452,0.857-0.66,1.342l-0.225,0.525
		c0.455,0.548,0.905,1.062,1.521,1.416c0.582,0.334,1.326,0.955,1.713,1.515c-0.255,0.363-0.424,0.825-0.781,1.108
		c-0.413,0.327-0.999,0.429-1.447,0.709c-1.078,0.673-2.043,1.583-2.878,2.538c-0.684,0.784-1.42,1.538-2.166,2.257
		c-0.522,0.502-1.11,1.194-1.287,1.922c-0.271,1.113,0.207,2.359,0.004,3.494c-0.089,0.493-0.488,0.785-0.873,1.091
		c-0.479,0.381-0.948,0.74-1.41,1.162c-0.333,0.304-0.641,0.562-0.93,0.912c-0.335,0.406-0.642,0.888-1.238,0.851l5.9,17.979
		l4.19,9.134l0.989,4.191l-0.094,3.437l1.648,1.648l-0.659,2.778l0.142,1.46l3.013,2.26l7.251,21.658l3.084,9.11l0.353,3.39
		l0.659,1.766l0.141,1.883l-0.471,0.565c0,1.203,0.276,2.102,0.662,3.241c0.245,0.724,0.784,1.624,0.832,2.358
		c0.616-0.638,0.759-1.547,1.359-2.184c0.184-0.195,0.532-0.624,0.757-0.731c0.287-0.135,0.781-0.048,1.098-0.048l0.094-1.648
		l1.836-3.861l-0.047-1.177l-0.377-0.847l0.894-4.19l0.659-0.565l0.612-2.966l1.036-1.883l-0.33-1.836l0.33-1.13l-0.447-0.094
		l0.753-0.918l0.259-1.154c0.187-0.001,0.373,0.004,0.559-0.003c-0.108-0.279-0.208-0.531-0.333-0.784
		c-0.185-0.376-0.261-0.077-0.048-0.499c0.16-0.316,0.426-0.597,0.572-0.945c0.127-0.302,0.221-0.841,0.497-1.044
		c0.212-0.156,0.502-0.043,0.66-0.192c0.124-0.116,0.162-0.651,0.212-0.82c0.243-0.832,0.275-1.492,0.239-2.352
		c-0.033-0.799-0.157-1.206-0.476-1.927c-0.205-0.466-0.058-1.158,0.075-1.719c0.197-0.822,0.227-1.776-0.037-2.597
		c-0.212-0.658-0.441-0.953-0.167-1.633c0.26-0.646,0.628-1.286,1.063-1.818c0.332-0.407,0.83-0.787,1.091-1.234
		c-0.162-0.292-0.155-0.729-0.234-1.054c-0.115-0.478-0.325-0.914-0.527-1.364c-0.491-1.093-0.239-2.001-0.228-3.157
		c0.003-0.271,0.115-0.632,0.316-0.818c0.252-0.233,0.481-0.278,0.592-0.624c0.128-0.401,0.16-0.87,0.235-1.283
		c0.236-1.306-0.008-2.708,0.428-3.973c0.293-0.847,0.938-1.685,1.454-2.425c0.423-0.608,1.09-1.178,1.342-1.888
		c0.075-0.214,0.115-0.449,0.161-0.674c0.045-0.223,0.186-0.354,0.226-0.58c0.037-0.207,0.098-0.407,0.272-0.526
		c0.147-0.101,0.324-0.047,0.318-0.269c-0.004-0.131-0.174-0.269-0.208-0.407c-0.065-0.262,0.003-0.57,0.084-0.823
		c0.133-0.417,0.03-0.991,0.477-1.177c0.454-0.189,0.562-0.278,0.564-0.81c0.001-0.207-0.063-0.408,0.124-0.534
		c0.17-0.114,0.387-0.051,0.553-0.223c0.377-0.393,0.519-1.211,0.41-1.707c-0.206-0.932-0.503-1.688-0.101-2.618
		c0.222-0.513,0.487-1.015,0.75-1.505c0.198-0.368,0.531-0.507,0.753-0.848c0.426-0.204,0.962,0.061,1.369-0.23
		c0.517-0.369,0.709-1.42,0.642-1.992c-0.098,0.046-0.204,0.019-0.303,0.05c-0.087,0.027-0.164,0.09-0.254,0.119
		c-0.259,0.083-0.559,0.077-0.831,0.076c-0.093,0-0.377,0.043-0.465-0.002c-0.165-0.085-0.079-0.388-0.122-0.528
		c-0.048-0.156-0.262-0.458-0.144-0.628c0.111-0.16,0.367-0.125,0.528-0.121c0.468,0.011,0.931,0.011,1.396-0.038
		c0.124-0.013,0.369-0.127,0.41-0.25c-0.053-0.035-0.16-0.011-0.223-0.015c-0.077-0.005-0.143-0.025-0.215-0.04
		c-0.21-0.043-0.434-0.067-0.645-0.09c-0.19-0.02-0.347-0.003-0.482-0.158c-0.06-0.069-0.24-0.321-0.194-0.39
		c0.035-0.052,0.16-0.057,0.215-0.062c0.148-0.014,0.301,0.005,0.449-0.002c0.174-0.008,0.346-0.015,0.519-0.036
		c0.138-0.016,0.325-0.003,0.449-0.072c-0.038-0.133,0.062-0.254,0.033-0.386c-0.052,0.003-0.074-0.001-0.126-0.001
		c-0.57,0-1.152,0.036-1.718,0.021c-0.046-0.104-0.071-0.225-0.035-0.334c0.313-0.08,0.713,0.014,1.04-0.015
		c0.244-0.022,0.724,0.019,0.933-0.075c-0.024-0.201-0.001-0.408-0.01-0.611c-0.312-0.123-0.774,0.103-1.081-0.045
		c0-0.268-0.006-0.387,0.123-0.617c0.165-0.296,0.23-0.476,0.248-0.81c0.032-0.589-0.049-0.994-0.244-1.535
		c-0.145-0.402-0.29-0.92-0.316-1.347c-0.026-0.425-0.063-0.822-0.266-1.212c-0.232-0.445-0.584-0.731-0.738-1.234
		c-0.162-0.53-0.168-1.12-0.172-1.67c-0.002-0.265-0.157-0.77,0.045-1.001c0.125-0.142,0.449-0.131,0.645-0.132
		c0.217-0.001,0.825,0.122,0.955-0.07c0.084-0.123-0.108-0.655-0.115-0.766c-0.146-0.222-0.061-0.643,0.005-0.886
		c0.097-0.361,0.261-0.76,0.447-1.086c0.137-0.241,0.293-0.467,0.353-0.744c0.052-0.241,0.126-0.433,0.218-0.659
		c0.039-0.096,0.138-0.281,0.082-0.388c-0.046-0.089-0.2-0.18-0.281-0.155c-0.147,0.046-0.32,0.357-0.514,0.208
		c-0.008-0.122-0.03-0.283,0-0.401c0.065-0.259,0.454-0.321,0.475-0.566c0.012-0.147-0.227-0.358-0.267-0.501
		c-0.076-0.273,0.061-0.636,0.083-0.909c0.016-0.197,0.04-0.423-0.003-0.62c-0.055-0.253-0.059-0.153-0.19-0.26
		c-0.134-0.109-0.506-0.243-0.529-0.443c-0.017-0.155,0.161-0.28,0.145-0.462c-0.012-0.127-0.097-0.277-0.167-0.379
		c-0.145-0.21-0.322-0.304-0.393-0.561c-0.073-0.264-0.063-0.51,0.023-0.775c0.146-0.448,0.391-0.848,0.449-1.325l0.06-1.238
		c-0.121,0.11-0.402,0.241-0.562,0.31c-0.187,0.08-0.395,0.093-0.564,0.213c-0.162,0.115-0.306,0.286-0.466,0.412
		c-0.409,0.322-0.838,0.544-1.278,0.826c-0.591,0.378-0.973,1.042-1.564,1.434c-0.596,0.395-1.067,0.914-1.539,1.444
		c-0.405,0.456-0.968,0.705-1.488,0.997c-0.264,0.148-0.455,0.302-0.761,0.355c-0.369,0.064-0.702,0.075-1.076,0.097
		c-0.337,0.02-0.7,0.009-1.02,0.115c-0.336,0.112-0.603,0.363-0.942,0.444c-0.913,0.22-1.863-0.04-2.778-0.04
		c-0.861,0-1.722,0-2.583,0c-0.49,0.333-1.223,0.172-1.8,0.264c-0.632,0.101-1.495,0.352-2.131,0.259
		c-0.55-0.08-0.905-0.757-1.196-1.214c-0.351-0.55-0.595-0.938-0.413-1.626c0.197-0.745,0.622-1.533,0.961-2.226
		c0.408-0.836,1.163-1.61,1.435-2.503c0.341-1.114,0.33-2.462,0.409-3.616c0.088-1.298,0.804-2.542,1.643-3.537
		c1.014-1.202,2.595-1.485,3.777-2.44c0.55-0.445,0.978-1.131,1.554-1.518c0.214-0.144,0.459-0.183,0.655-0.343
		c0.304-0.248,0.478-0.622,0.8-0.868c0.177-0.135,0.359-0.227,0.542-0.316c0.314-0.152,0.51-0.017,0.832-0.095
		c0.226-0.055,0.353-0.222,0.617-0.249c0.325-0.032,0.562,0.076,0.887,0.116c0.343,0.042,0.509,0.104,0.672-0.197
		c0.136-0.253,0.119-0.577,0.145-0.855c0.088-0.944,0.004-1.743-0.948-2.186c-0.636-0.296-1.332-0.1-2.002-0.161
		c-0.637-0.058-1.331-0.187-1.938-0.361c-0.776-0.223-1.472-0.787-2.287-0.869c-0.616-0.062-0.818,0.373-1.308,0.699
		c-0.609,0.406-1.19,0.506-1.935,0.43c-0.631-0.065-1.024-0.115-1.261-0.786c-0.11-0.31-0.2-0.925,0.01-1.206
		c0.417-0.559,1.442-0.352,2.029-0.597c0.571-0.238,0.621-0.739,0.647-1.353c0.032-0.742-0.203-1.013-0.685-1.549
		c-0.489-0.545-0.809-1.131-0.855-1.871c-0.072-1.16,0.561-2.357,0.654-3.508c0.099-1.228-0.642-2.183-0.687-3.442
		c-0.023-0.653,0.231-1.304,0.133-1.951c-0.101-0.67-0.564-1.118-0.935-1.665c-1.038-1.531,0.864-1.809,1.737-2.795
		c0.741-0.837,1.112-1.781,0.612-2.722c-0.569-1.07-0.636-2.033-0.293-3.214c1.54,0.244,1.23-1.648,1.297-2.537
		c0.056-0.745,0.404-1.164,0.655-1.853c0.194-0.53,0.136-1.144,0.326-1.636c0.091-0.235,0.442-0.294,0.655-0.446
		c0.163-0.116,0.294-0.292,0.464-0.407c0.578-0.39,1.235-0.694,1.861-0.988c0.61-0.287,1.147-0.693,1.708-1.063
		c0.439-0.289,0.723-0.608,1.036-1.031c0.261-0.354,0.642-0.615,0.878-0.98c0.218,0.127,0.504,0.418,0.689,0.597
		c0.175,0.169,0.247,0.449,0.427,0.609c0.228,0.203,0.701,0.48,0.994,0.619c0.316,0.15,0.608,0.025,0.937,0.013
		c0.372-0.014,0.672,0.087,1.043,0.07c0.467-0.02,0.93-0.011,1.395-0.036c0.875-0.046,1.643,0.171,2.248,0.851
		c0.513,0.577,0.729,1.123,0.886,1.915c0.131,0.655-0.374,1.281-0.158,1.902c0.246,0.703,0.567,0.666,1.241,0.666
		c0.322,0,0.679-0.037,0.999,0c0.361,0.041,0.664,0.243,1.009,0.36c0.526,0.179,1.05,0.395,1.548,0.576
		c0.373,0.135,0.717,0.312,1.144,0.275l0.057-0.098c-0.217-0.149-0.269-0.164-0.272-0.412c0.208-0.043,0.433-0.038,0.407-0.314
		c-0.018-0.186-0.186-0.32-0.195-0.519c-0.008-0.18,0.151-0.262,0.125-0.441c-0.026-0.176-0.145-0.17-0.05-0.348
		c0.246-0.46,0.794-0.872,0.72-1.43c-0.127-0.063-0.428-0.478-0.475-0.628c-0.058-0.182,0.122-0.424,0.245-0.56
		c0.205-0.226,0.565-0.361,0.338-0.707c-0.142-0.216-0.433-0.255-0.662-0.312c0.019-0.144,0.051-0.274-0.034-0.403
		c-0.073-0.11-0.223-0.13-0.182-0.289c0.078-0.301,0.652-0.248,0.593-0.628c-0.124-0.038-0.369-0.111-0.408-0.251
		c-0.016-0.058,0.045-0.27,0.055-0.339c0.013-0.09,0.018-0.254,0.102-0.297c0.071-0.036,0.135,0.027,0.213-0.024
		c0.04-0.027,0.065-0.115,0.104-0.15c0.061-0.055,0.149-0.058,0.208-0.126c0.053-0.062,0.118-0.196,0.095-0.278
		c-0.044-0.16-0.308-0.198-0.218-0.399c0.029-0.066,0.105-0.05,0.133-0.096c0.039-0.065,0.024-0.116,0.034-0.185
		c0.04-0.262,0.02-0.528,0.058-0.791c0.019-0.123,0.086-0.371,0.028-0.488c-0.066-0.131-0.241-0.092-0.329-0.193
		c-0.094-0.109,0.095-0.6,0.067-0.781c-0.041-0.268-0.384-0.447-0.514-0.681c0.133-0.177,0.641-0.135,0.32-0.396
		c-0.171-0.14-0.177-0.106-0.177-0.335c0-0.159-0.047-0.373,0.16-0.372c0.205,0.001,0.189,0.211,0.284,0.317
		c0.197,0.221,0.613,0.001,0.756-0.189c0.094-0.124,0.103-0.373,0.281-0.375c0.099-0.001,0.156,0.165,0.249,0.045
		c0.046-0.059,0.003-0.383-0.008-0.447c-0.022-0.134-0.149-0.321-0.099-0.459c0.09-0.248,0.566-0.372,0.782-0.481l0.458-0.283
		c-0.099-0.248-0.27-0.384-0.492-0.529c-0.262-0.171-0.526-0.395-0.792-0.54c-0.007-0.26,0.232-0.452,0.378-0.642
		c0.132-0.172,0.243-0.359,0.369-0.536c0.198-0.278,0.453-0.559,0.711-0.785c0.262-0.229,0.574-0.539,0.911-0.583l0.087,0.151
		c0.149-0.567,0.071-1.207,0.071-1.797c0-0.516-0.014-1.097-0.262-1.567c-0.32-0.607-0.299-1.282-0.345-1.942
		c-0.046-0.648-0.287-0.879-0.713-1.316c-0.343-0.351-0.746-0.868-0.417-1.365c0.185-0.28,0.344-0.335,0.385-0.721
		c0.034-0.323,0-0.669,0-0.995c0-0.74,0.131-1.444,0.131-2.177v-0.049c-0.133-0.378-0.553-0.438-0.832-0.702
		c-0.249-0.236-0.678-0.477-0.839-0.773c-0.182-0.334,0.409-0.737,0.579-1.017c0.184-0.304,0.609-0.573,0.675-0.921
		c0.189,0.092,0.338,0.347,0.482,0.506l0.078-0.148c0.193-0.578,0.439-1.132,0.559-1.737c0.115-0.582,0.149-1.156,0.28-1.732
		c0.096-0.422,0.162-0.826,0.308-1.236c0.134-0.378,0.294-0.655,0.346-1.057c0.07-0.541,0.007-1.351,0.033-1.898
		c0.023-0.495-0.031-0.998,0.059-1.472C129.946,6.371,130.024,5.641,129.576,5.341z"/>
</g>
</svg>
