<?xml version="1.0" encoding="utf-8"?>
<!-- Generator: Adobe Illustrator 26.0.3, SVG Export Plug-In . SVG Version: 6.00 Build 0)  -->
<svg version="1.1" id="Layer_1" xmlns="http://www.w3.org/2000/svg" xmlns:xlink="http://www.w3.org/1999/xlink" x="0px" y="0px"
	 viewBox="0 0 200 200" enable-background="new 0 0 200 200" xml:space="preserve">
<g id="Layer_1_00000056429755810252841540000006915561870835935659_">
	<g id="Layer_1_00000128480095285341338950000008464522443776971395_">
	</g>
</g>
<g id="Isolation_Mode">
	<path fill="#1E8346" d="M82.918,33.535c1.549,1.039,1.192,3.072,1.96,4.629c0.193,0.629-0.127,0.942-0.652,1.187
		c-0.168,0.206-0.165,0.541-0.332,0.738c-0.254,0.3-0.695,0.063-0.928,0.384c-0.779-0.401-0.919-1.56-1.32-2.238
		c-0.459,0.505-1.079,0.425-1.659,0.433c-0.757,0.968,0.477,2.702,1.226,3.47c0.652,0.789,0.257,1.806,0.507,2.687
		c0.138,0.279,0.64,0.513,0.601,0.866c-0.041,0.373-0.359,0.156-0.543,0.388c-0.171,0.215-0.012,0.191,0.024,0.399
		c0.089,0.518-0.17,1.082,0.518,1.215c2.145-1.691,1.546,0.676,3.19,1.349c0.591,0.737,1.289,0.92,2.198,0.899
		c0.971,0.408,1.616,1.304,2.744,1.389c0.083,0.479-0.285,0.744-0.433,1.109c1.351,1.182,4.245,0.978,5,2.909
		c-0.96-0.296-1.087,0.593-1.663,1.128c-0.371,0.373-0.822,0.264-1.125,0.706c-0.187,0.475-0.491,0.793-0.972,0.95
		c-0.154,0.638-0.176,1.328-0.515,1.905c-0.342,0.626,0.261,1.148,0.04,1.853c-0.376-0.018-0.09,0.354-0.24,0.532
		c-0.158,0.187-0.586-0.001-0.734,0.153c-0.11,0.509,0.042,0.718-0.43,1.139c-0.246,0.848,0.956,1.041,1.413,1.436
		c0.348,0.481,0.615,0.69,1.093,1.087c0.036-1.381,0.852-0.64,1.383,0.003c1.29,0.888,3.001,1.209,3.721,2.715
		c1.065,0.104,1.893,1.615,3.036,1.829c1.038-0.817,2.221,0.731,3.201,1.157c0.872-0.71,1.926-0.104,1.934,1.044
		c1.106,0.584,2.495,0.033,3.338,1.21c0.451-0.173,0.182-0.531,0.436-0.798c0.889-0.352,1.775,0.315,2.563,0.666
		c0.087-0.12,0.093-0.28,0.1-0.417c0.658,0.127,1.036,0.046,1.413-0.493c0.501,1.049,3.77,0.836,3.185,2.044
		c0.105,1.356,1.765,1.515,2.66,2.193c0.657-0.099,0.457,0.666,1.088,0.681c0.976,0.107,2.681-1.681,2.443,0.34
		c0.186,0.695,0.937,0.998,1.489,0.431c0.464-0.178,0.862,0.104,1.234,0.29c0.395,0.017,0.758-0.138,1.161-0.1
		c0.729,0.017,0.976,0.801,1.619,1.059c0.925,0.499,1.621-0.293,2.328-0.719c0.237,0.376,0.237,0.903,0.755,0.96
		c0.336,0.037,0.178-0.07,0.476,0.199c0.309,0.378,0.566-0.087,0.882-0.185c0.476-0.192,0.863,0.335,1.296,0.131
		c0.31-0.345,0.749-0.007,1.128-0.427c0.633-0.31,0.922,1.008,1.419,0.131c0.953-1.473,0.644-3.433-0.439-4.694
		c0.02-1.158,0.574-2.402,0.837-3.568c0.508-0.549,0.105-0.983-0.029-1.539c1.504-0.216,3.605-2.191,4.226,0.353
		c-0.168,1.608-1.029,2.577,0.459,3.935c-0.601-0.145-1.131,0.609-0.71,1.067c0.218,0.238,0.365,0.213,0.45,0.522
		c-0.031,0.362,0.24,0.506,0.535,0.658c1.001,0.78,2.35,0.336,3.383,0.994c0.674,0.724,1.596,0.303,2.455,0.352
		c0.463-0.133,0.969-0.014,1.164-0.526c0.376-0.174,0.737-0.34,1.06-0.621c1.223,0.148,2.343,1.325,3.756,0.957
		c0.473-0.755,1.162,0.059,1.765-0.321c0.727-0.398,2.038,0.376,2.824-0.424c0.701-0.859,1.77,1.304,1.411-0.988
		c-0.415-0.329-0.356-1.532,0.164-1.754c-0.401-0.338-0.4-1.102-0.875-1.279c-1.17,0.136-3.301-0.443-1.802-1.794
		c0.715,0.369,1.374-0.019,2.005-0.294c0.784-0.386,1.501-0.206,2.271,0.05c0.625-0.201,1.33-0.852,1.638-1.448
		c-0.173-0.572-0.071-0.923,0.533-1.119c1.731-0.145,2.176-2.162,3.703-2.847c1.909-0.859,4.903-0.931,5.335-3.449
		c0.601-0.451,1.454-0.276,2.053-0.799c2.854,1.346,3.807,1.386,6.559-0.201c1.046-0.716,2.303-0.273,2.452,1.009
		c-0.089,0.368-0.01,0.628,0.418,0.588c0.688,0.155,0.946,0.75,1.251,1.307c1.204,0.879-0.952,1.656-0.223,2.46
		c1.483-2.001,0.917,0.467,1.705-0.242c0.478,0.641,1.187,1.845,2.117,1.145c0.159,0.468,0.422,0.729,0.897,0.864
		c0.336,0.198,0.153,0.286,0.188,0.664c0.041,0.444,0.472,0.764,0.211,1.222c-0.157,0.275-0.188,0.14-0.431,0.173
		c-0.557,0.125-0.948,0.634-1.312,1.053c-0.339-0.465-1.003,0.636-1.001,0.986c-0.057,1.111,0.771,1.818,1.248,2.689
		c0.394,1.01-1.24,0.221-1.504-0.06c-0.026-0.832-0.846-1.373-1.66-1.069c-0.986,0.829-2.791,0.217-3.449,1.561
		c-0.539,0.526-1.225,0.574-1.368,1.448c-1.221,0.08-1.772,1.276-2.85,1.534c-1.394,0.609-0.46,1.963-0.692,3.039
		c0.092,0.848-0.595,1.449-0.474,2.265c0.115,0.702-0.207,0.886-0.511,1.443c-0.397,0.894-1.613,0.934-1.844,1.997
		c-0.657,0.841,0.792,0.852,0.391,1.768c-0.866,2.466-2.579,4.627-3.202,7.241c-0.092,0.468-1.354-0.352-1.626-0.385
		c-0.366,0.058-0.599-0.101-0.843-0.339c-0.422-0.069-0.772,0.364-1.32,0.244c-1.292-1.99-0.707,1.164-0.447,1.9
		c-0.199,1.097,0.264,4.649-1.546,3.935c-0.664,1.724,0.966,4.18-0.49,5.453c-0.453,0.348-0.41,0.556-0.438,1.126
		c-0.063-0.081-0.143-0.16-0.193-0.251c0.067,0.244-0.103,0.434-0.358,0.41c0.034-0.603-0.626-1.542-1.272-1.025
		c-0.155,0.378-0.046,0.785-0.424,1.058c-0.164-0.329-0.697-0.932-0.181-1.162c0.273-0.47-0.229-1.08-0.365-1.521
		c-0.128-1.083,0.095-2-0.247-3.06c-0.3-0.233-0.625-0.385-0.549-0.817c-0.235-0.647-0.426-1.192,0.197-1.678
		c0.059-0.944-0.371-1.991-1.018-2.678c-0.022,0.123-0.106,0.209-0.227,0.237c-0.359-0.797-0.924,0.198-1.335-0.334
		c-0.362,0.55,0.03,1.369-0.48,1.915c-0.24,0.344-0.499,0.438-0.499,0.876c0.489,2.329-1.795,2.665-1.656,0.127
		c-0.205,0-0.409,0-0.611,0.042c-0.066,0.435-0.04,0.819-0.177,1.255c-0.416-1.47-0.919-2.937-1.241-4.374
		c0.52-0.073,0.274-0.596,0.38-0.921c0.113-0.345,0.467-0.237,0.41-0.682c0.401,0.031,0.396-0.028,0.413-0.322
		c-0.127-1.11,1.756,0.063,1.806-1.084c0.093,0.185,0.263,0.347,0.481,0.317c-0.105-0.82,0.558-0.035,0.765,0.107
		c0.133-0.509,0.231-1.01,0.391-1.512c0.67,0.068,1.266-0.164,1.192-0.918c0.753-0.751,0.873-1.887,0.22-2.715
		c0.513-0.225,0.982,0.916,1.506,0.33c-0.092-1.677-3.074-1.965-4.461-1.649c-0.485,0.176-0.321,0.3-0.766-0.09
		c-0.224,0.432-0.925-0.013-1.206-0.125c-1.194-0.31-2.454,0.447-3.688,0.318c-0.152-0.37-0.593-0.036-0.845,0.037
		c-1.495,0.217-2.681-1.126-4.144-1.227c0.074-0.778,0.614-2.266,0.031-2.963c0.414-1.095,0.062-2.494-1.171-2.618
		c-0.209,0.409,0.174,1.101-0.373,1.382c-0.563-0.399-1.406-0.031-1.88-0.63c-0.532-0.506-0.758-1.038-0.829-1.744
		c-0.215-0.32-1.401-0.876-0.93-0.044c0.826,1.262-1.32,0.629-1.268-0.152c-0.282-0.705-1.368-0.727-1.729-1.456
		c-1.048,1.373,0.518,0.346,0.489,1.281c-0.612,0.859-1.833,1.247-2.072,2.423c-0.394,0.505-0.419,2.072,0.529,1.534
		c0.67,0.284,1.217,0.847,1.381,1.572c0.44,0.521,1.49,0.603,1.918,0.064c-0.041,0.808,0.254,1.499,1.109,1.61
		c-0.109,0.254-0.336,0.473-0.344,0.818c-0.311-0.104-0.548-0.254-0.823-0.015c-0.431-0.391-0.873-0.342-1.313-0.026
		c-0.314,0.031-0.494-0.513-0.708-0.066c-0.19,0.501,0.007,1.15-0.517,1.491c-0.138,0.334-0.619,0.655-0.552,0.055
		c-0.897-0.197-0.591,0.366-0.731,0.889c-0.348,0.479-1.028,0.71-0.379,1.304c0.728,1.446,2.65,1.184,3.657,2.187
		c-0.157,0.761,0.241,1.582,0.109,2.285c-0.287,0.438-0.86,0.179-0.943,0.75c-0.33,1.313,1.143,1.394,1.167,2.382
		c-0.173,0.412-0.339,1.097,0.32,1.063c0.34,0.107,1.23,0.355,0.61,0.727c-0.518,0.442-0.33,1.022,0.023,1.486
		c-0.256,2.08,0.661,4.038,0.747,6.152c-0.583,0.629,0.427,1.259,0.278,1.901c-0.847,0.116-1.562-0.325-2.258-0.668
		c-0.087-0.321,0.064-0.792-0.157-1.091c-0.263,1.036-0.576,0.206-1.069,0.582c-0.267,0.314-0.228,1.67-0.819,0.85
		c-1.774,2.397-0.141-2.823-2.114-1.384c-0.595,0.57-0.972,1.31-1.936,1.434c-9.495,2.65-1.526,4.471-4.813,6.802
		c-0.721,0.496,0.557,0.925-0.915,1.605c-2.136,2.182-2.672,2.837-5.806,3.254c-3.471,2.032-5.852,5.073-8.477,8.03
		c-0.564,1.734-2.415,1.893-3.704,2.803c-0.591,0.853-1.023,1.608-1.955,2.116c-1.66,2.456-6.815,2.229-5.621,6.025
		c-1.585,3.794-6.254,0.08-6.801,4.075c-0.505,0.663-0.681,2.056-1.695,1.862c-0.575-0.139-0.241-0.616-0.642-0.83
		c-2.504-0.305-3.823,2.742-3.947,4.854c-0.171,1.096,0.3,1.985,0.868,2.848c-0.801,2.015-0.074,4.071,0.283,6.134
		c-0.951-0.339-0.666-0.629-0.451-1.33c-0.98-0.623-0.749,0.788-0.475,1.332c-0.053,0.71,0.542,0.666,1.027,0.852
		c0.822,3.201-1.213,6.607-2.69,9.461c-0.619,2.784,0.765,5.848,0.367,8.642c0.016,2.123-3.586-0.3-3.829,1.708
		c0.101,0.338,0.544,0.416,0.281,0.77c-0.87,0.698-2.552,2.265-1.838,3.529c0.408,1.045,2.389,0.101,2.235,1.129
		c-2.749-0.971-7.443,0.39-7.05,3.932c-0.153,1.058-0.887,1.784-1.923,1.818c-0.345,0.498-0.855,0.381-1.331,0.759
		c-1.673,0.188-3.008-1.195-4.181-2.223c-0.48-0.91-0.71-1.865-1.579-2.503c-2.218-2.819-2.132-6.762-3.395-9.948
		c-0.967-0.802-1.07-2.024-1.189-3.212c-0.34-1.618-1.702-2.734-2.517-4.126c-2.927-3.258-3.605-7.931-4.476-12.17
		c-1.473-1.528-0.781-4.091-2.608-5.456c-0.569-0.914-1.532-1.714-1.335-2.869c-1.464-2.486-2.979-4.996-3.5-7.909
		c-0.755-4.434-1.604-8.994-2.901-13.22c-0.251-0.739,0.855-1.041,0.62-1.953c-0.506-0.103-0.445,0.719-0.873,0.194
		c-0.476-0.891,0.211-1.851-0.119-2.837c-1.276-2.436-0.121-4.961,0.674-7.361c-0.496-2.04-2.365-3.596-1.605-5.882
		c0.175-0.515-0.17-0.656-0.432-0.992c-0.14-0.537,0.425-0.92,0.511-1.385c-1.245,1.275-0.697-0.99-0.326-1.579
		c0.193-0.334,0.682,0.086,0.963-0.111c0.169-0.205,0.393-0.184,0.629-0.198c0.011-0.056,0.003-0.117-0.023-0.163
		c-0.682,0.391-1.398-0.615-1.937,0.067c-0.504,0.135-0.64-1.17-0.99-0.393c0.243,0.84-0.437,1.244-0.772,1.945
		c0.232,0.652,0.231,1.408,0.527,2.014c0.14,0.944-0.758,1.681-1.056,2.496c-0.689,1.282-2.412,1.035-3.438,1.936
		c-0.215,0.446-0.576,0.582-1.078,0.59c-3.115,2.015-6.801-0.066-8.625-2.939c-0.759-1.011-6.381-5.431-5.132-6.519
		c1.688,0.075,3.623,0.686,5.068-0.66c0.432-0.38,0.944-0.498,1.47-0.566c0.715-0.741,1.347-1.792,1.843-2.728
		c-2.161,0.86-4.72,2.432-7.041,1.062c-1.254-0.594-2.486-1.342-3.556-2.241c-0.637-0.671-0.227-1.722-1.123-2.31
		c0.556-0.489,0.963-1.142,1.568-1.605c0.241-0.056,0.427-0.146,0.471-0.418c-1.043,0.05-2.004,1.005-2.623,1.782
		c-1.428,0.765-0.877-2.203,0.158-2.325c0.729-0.164,1.538,0.039,2.253-0.083c0.257-0.642,0.051-1.438,0.159-2.079
		c0.465-0.162,0.483,0.239,0.591,0.597c0.22-0.18,0.293-0.52,0.536-0.674c0.157,0.169,0.216,0.462,0.344,0.662
		c0.122-0.187,0.294-0.583,0.567-0.341c0.23,0.106,0.369,0.346,0.591,0.131c0.558-0.63,1.5-0.283,2.249-0.418
		c0.397,1.141,1.67,0.797,2.627,0.856c-0.582-1.366,2.306-1.298,3.135-1.544c-0.658,1.024,0.809,1.466,1.558,1.001
		c0.248-0.697,1.137-0.558,1.489-1.078c-0.215-0.101-0.518-0.103-0.749-0.141c-0.504-1.83,1.512-0.811,0.126-2.602
		c-0.59-0.248-0.554-1.351-0.754-1.828c-0.412-0.799-1.399-1.252-1.203-2.311c0.026-0.528,0.147-0.979-0.099-1.473
		c-1.685,0.74-3.115-0.458-3.4-2.146c0.148-1.027,1.073-1.723,0.636-2.863c-0.666-1.365-2.669,0.213-4.003-1.795
		c-0.262-2.614,2.046-3.82,3.337-5.638c0.536-1.16,1.467-3.251,3.089-2.576c0.847,0.391,0.455,1.689,1.355,1.894
		c1.17-0.028,2.143-0.991,3.38-0.9c0.998-0.025,1.944-0.117,2.794-0.622c0.276-1.036,0.92-1.782,1.677-2.534
		c0.633-1.008,0.588-2.63,1.869-3.095c0.922-0.681,2.192-0.983,2.908-1.889c0.7-1.915,2.07-3.473,2.412-5.474
		c0.495-0.975,3.351-0.802,3.236-2.392c-0.142-0.47-0.452-0.715-0.077-1.12c0.278-0.239,0.287-0.719,0.649-0.822
		c1.238-0.951,1.632-2.7,3.122-3.432c-0.342-0.676-0.72-1.678-0.06-2.327c0.533-0.24,0.245-0.588,0.123-1.013
		c0.106-0.352-0.061-0.607-0.276-0.88c-0.505-0.941,0.654-1.952,1.56-2.048c0.333-0.869,1.242-0.4,1.928-0.814
		c1.21-0.205,1.678-2.277,0.202-2.34c-0.392-0.071-0.466-0.779-0.844-0.409c-2.395,0.063-2.57-0.054-2-2.45
		c-0.686,0.602-1.637,0.449-2.475,0.269c-0.854-0.48-1.51-1.64-2.66-1.325c-0.142-0.096-0.198-0.279-0.347-0.169
		c-0.566-1.144-1.348-0.147-0.958-1.798c-0.338-0.314-0.697-0.686-0.384-1.2c0.071-1.679-0.11-3.582-0.647-5.234
		c-0.527-1.116-1.376-3.737,0.801-3.244c0.326-0.135,0.376-0.705,0.551-0.979c0.355-0.746,1.135-0.734,1.701-1.204
		c0.788-1.212,0.551-2.341-1.008-2.648c-0.367-0.075-0.728,0.055-0.801-0.404c-0.099-0.624,1.172-1.133,0.259-1.644
		c-0.642-0.438-1.605,0.161-2.088-0.506c-0.419-0.495-1.175-0.795-1.37-1.436c-0.115-0.38-0.081-1.101-0.706-1.017
		c-0.489,0.564-1.306,0.139-1.941,0.294c-0.419,0.145-0.453,0.32-0.699-0.23c-0.306-0.881-0.494-1.995,0.218-2.716
		c0.897-0.894,2.324-1.447,2.527-2.819c0.699-1.362,5.083,0.214,4.674-1c-0.348-0.069-0.804-0.494-0.962-0.806
		c0.487-0.234,1.126-0.233,1.547,0.138c0.598,0.244,0.63-0.079,1.167-0.226c0.742,0.084,1.094-0.312,1.6-0.726
		c0.449,0.183,0.71-0.001,1.036-0.341c0.522-0.233,0.979,0.106,1.509-0.005c0.238,0.074,0.249,0.393,0.483,0.423
		c0.289,0.037,0.717-0.291,1.085-0.246c0.709,0.416,0.922,0.346,1.677,0.437c0.513,0.369-0.033,1.597,0.778,1.758
		c2.305-1.283,3.473,3.239,5.574,3.596c1.895,0.116,2.078,1.094,2.246,2.697c0.638,1.333,4.79,0.397,3.302,2.602
		c0.275,1.2,2.807,0.111,3.72,0.164c0.284-0.233,0.343-0.702,0.731-0.933c1.777-0.638,3.358-1.776,5.071-2.41
		c0.761,0.102,1.545-0.097,2.25-0.216c0.44,0.196,0.789,0.914,1.371,0.666c1.165,1.208,0.265,1.678,2.446,2.232
		c0.104,0.574,1.11,1.514,1.089,0.327c1.252-0.227,2.126,0.528,0.879,1.424c-0.093,1.64-0.734,3.218-1.432,4.687
		c-3.287,0.68,0.962,1.575-3.074,1.937c0.351,1.208-0.248,1.909-0.93,2.81c-0.135,0.364,0.041,0.369-0.35,0.505
		c-0.77,0.309-1.876-0.475-2.556-0.151c-0.704,0.512,1.21,1.963,0.793,2.882C83.007,31.8,83.036,32.767,82.918,33.535z"/>
</g>
</svg>
