<?xml version="1.0" encoding="utf-8"?>
<!-- Generator: Adobe Illustrator 26.0.3, SVG Export Plug-In . SVG Version: 6.00 Build 0)  -->
<svg version="1.1" xmlns="http://www.w3.org/2000/svg" xmlns:xlink="http://www.w3.org/1999/xlink" x="0px" y="0px"
	 viewBox="0 0 200 200" enable-background="new 0 0 200 200" xml:space="preserve">
<g id="Layer_1">
	<g id="Layer_1_00000107551159852787612550000017757744099325915571_">
		<g id="Layer_1_00000128480095285341338950000008464522443776971395_">
		</g>
	</g>
</g>
<g id="Isolation_Mode_00000063621668281934077600000006196874878142535819_">
	<path fill="#1E8346" d="M179.622,135.988c0.083-0.335,0.366-0.576,0.332-0.95c-0.037-0.4-0.318-0.728-0.578-1.003
		c-0.342-0.361-0.45-0.612-0.474-1.086c-0.023-0.469-0.156-0.608-0.567-0.85c-0.496-0.292-1.093-0.774-1.262-1.384
		c-0.117-0.424-0.001-0.781-0.335-1.112c-0.189-0.187-0.369-0.381-0.506-0.613c-0.167-0.283-0.21-0.75-0.425-0.99
		c-0.131-0.147-0.476-0.299-0.659-0.38c-0.441-0.197-0.861-0.178-1.172-0.607c-0.237-0.328-0.165-0.773,0.023-1.101
		c0.13-0.226,0.325-0.334,0.258-0.624c-0.027-0.116-0.119-0.272-0.197-0.374c-0.166-0.219-0.723-0.444-0.733-0.737
		c-0.003-0.106,0.103-0.201,0.137-0.293c0.108-0.29,0.002-0.382-0.139-0.605c-0.259-0.013-0.499,0.155-0.743,0.073
		c-0.145-0.211-0.444-0.382-0.529-0.623c-0.084-0.24,0.061-0.47,0.143-0.704c0.213-0.607,0.139-0.947-0.209-1.448
		c-0.222-0.318-0.468-0.586-0.827-0.735c-0.335-0.138-0.72-0.151-1.049-0.305c-0.166-0.078-0.276-0.168-0.459-0.229
		c-0.618-0.206-1.07,0.057-1.302,0.664c-0.246-0.007-0.466,0.084-0.717,0.081c-0.325-0.004-0.714-0.055-1.024-0.135
		c-0.49-0.127-0.898-0.63-1.288-0.939c-0.595-0.471-1.222-0.906-1.815-1.38c-0.474-0.38-1.015-0.746-1.471-1.142
		c-0.608-0.527-1.121-1.015-1.544-1.705c-0.118-0.191-0.227-0.424-0.382-0.583c-0.26-0.267-0.612-0.447-0.878-0.71
		c-0.141-0.139-0.253-0.298-0.372-0.452c-0.181-0.236-0.293-0.217-0.578-0.324c-0.453-0.171-0.893-0.42-1.326-0.635
		c-0.605-0.301-1.33-0.759-1.753-1.304c-0.429-0.129-0.732-0.58-1.085-0.833c-0.522-0.372-1.142-0.584-1.739-0.796
		c-0.534-0.189-1.044-0.5-1.618-0.513c-0.671-0.015-1.337,0.074-2.003,0.151c-0.506,0.059-0.846-0.004-1.285-0.216
		c-0.259-0.125-0.667-0.233-0.791-0.529c-0.108-0.257,0.093-0.488,0.344-0.568c0.15-0.047,0.26-0.017,0.378-0.095
		c0.246-0.162,0.518-0.653,0.622-0.923c-0.156-0.025-0.329-0.118-0.478-0.165c-0.461-0.144-1.049-0.352-1.522-0.387
		c-0.565-1.098,0.807-0.612,1.352-0.481c0.271-0.442,0.492-0.757,0.874-1.101c0.149-0.134,0.518-0.459,0.581-0.657
		c0.1-0.31-0.124-0.208-0.257-0.406c-0.113-0.167-0.063-0.359-0.033-0.559c0.02-0.128,0.126-0.331,0.11-0.456
		c-0.026-0.199-0.227-0.294-0.412-0.45c-0.277-0.235-0.495-0.462-0.737-0.733c-0.352-0.394-0.782-0.706-1.057-1.173
		c-0.104-0.176-0.108-0.37-0.166-0.558c-0.066-0.214-0.356-0.351-0.362-0.569c-0.017-0.674,0.093-2.275-1-2.119
		c-0.439,0.063-0.637,0.506-1.079,0.4c-0.184-0.044-0.357-0.139-0.546-0.162c-0.27-0.034-0.595,0.063-0.793-0.165
		c0.177-0.307,0.459-0.544,0.738-0.75c0.215-0.159,0.603-0.494,0.542-0.806c-0.033-0.167-0.221-0.227-0.342-0.337
		c-0.259-0.237-0.338-0.538-0.416-0.866c-0.398,0.007-0.964-0.122-1.33,0.107c-0.091,0.057-0.136,0.205-0.208,0.263
		c-0.257,0.211-0.843,0.174-1.187,0.153c-0.07-0.413,0.362-0.714,0.028-1.062c-0.375-0.39-0.808-0.759-1.239-1.101
		c-0.331-0.262-0.639-0.543-0.781-0.958c-0.1-0.292-0.055-0.652-0.173-0.949c-0.14-0.351-0.107-0.513-0.326-0.844
		c-0.33-0.5-0.533-1.021-0.78-1.565c-0.313-0.69-0.873-1.378-1.669-1.495c-0.343-0.051-0.679,0.053-1.033-0.012
		c-0.277-0.051-0.414-0.061-0.302-0.373c0.056-0.158,0.201-0.318,0.293-0.454c0.314-0.467,0.625-0.741,0.646-1.325
		c0.016-0.435-0.014-0.661,0.399-0.865c0.598-0.296,1.191-0.635,1.513-1.237c0.272-0.509-0.104-0.619-0.108-1.149
		c-0.002-0.382,0.109-0.546,0.226-0.896c0.216-0.646,0.201-1.583-0.199-2.135c-0.143-0.197-0.371-0.648-0.628-0.7
		c-0.253-0.051-0.548,0.34-0.772,0.077c-0.081-0.095-0.09-0.318-0.14-0.442c-0.115-0.283-0.265-0.556-0.391-0.836
		c-0.126-0.281-0.471-0.834-0.234-1.129c0.081-0.101,0.332-0.141,0.456-0.158c0.301-0.041,0.377,0.042,0.564-0.165
		c0.458-0.508,0.389-0.981,0.297-1.564c-0.066-0.423,0.176-1.042,0.628-1.141c0.642,1.239,2.246,0.763,3.375,0.973
		c-0.089-0.282-0.051-0.557-0.041-0.86c0.014-0.439-0.072-0.659-0.217-1.055c-0.167-0.457-0.316-0.964-0.562-1.385
		c-0.181-0.311-0.501-0.581-0.378-0.971c0.088-0.278,0.354-0.479,0.478-0.743c0.295-0.629,0.233-1.411,1.044-1.505
		c0.349-0.041,0.396-0.161,0.556-0.499c0.174-0.368,0.185-0.852,0.403-1.185c0.206,0.018,0.362,0.014,0.553,0.073
		c0.174,0.054,0.405,0.279,0.572,0.269c0.127-0.326,0.132-0.676,0.269-1c0.113-0.267,0.291-0.44,0.216-0.743
		c-0.06-0.243-0.205-0.469-0.254-0.712c-0.056-0.283,0.11-0.502,0.133-0.768c0.294-0.089,0.582-0.207,0.654-0.533
		c0.069-0.311-0.053-0.578,0.066-0.898c0.238,0.035,0.722,0.027,0.906,0.177c0.067,0.054,0.109,0.2,0.159,0.27
		c0.071,0.098,0.173,0.172,0.227,0.28c0.171,0.014,0.459-0.01,0.618,0.075c0.105,0.056,0.163,0.213,0.257,0.287
		c0.143,0.112,0.068,0.083,0.18,0.04c0.065-0.025,0.165-0.253,0.215-0.316c0.078-0.099,0.158-0.205,0.252-0.289
		c0.271-0.244,0.428-0.074,0.765-0.103c0.287-0.024,0.619-0.206,0.866-0.36c0.286-0.178,0.492-0.275,0.368-0.605
		c-0.097-0.259-0.282-0.458-0.273-0.749c0.013-0.388,0.393-0.628,0.539-0.967c0.064-0.148,0.116-0.289-0.029-0.403
		c-0.093-0.072-0.327-0.088-0.447-0.139c-0.218-0.091-0.493-0.214-0.653-0.4c-0.165-0.191-0.098-0.393,0.016-0.58
		c0.135-0.222,0.6-0.686,0.554-0.975c-0.021-0.133-0.181-0.218-0.267-0.307c-0.109-0.113-0.202-0.253-0.318-0.36
		c-0.492-0.458-1.11-0.901-1.457-1.524c-0.239-0.428-0.478-0.859-0.684-1.303c-0.154-0.331-0.557-0.827-0.439-1.21
		c0.064-0.207,0.29-0.323,0.231-0.564c-0.025-0.102-0.115-0.163-0.172-0.229c-0.207-0.241-0.443-0.435-0.579-0.738
		c0.326-0.169,0.675-0.091,1.029-0.08c0.062-0.252,0.042-0.638-0.069-0.873c-0.101-0.213-0.359-0.368-0.463-0.583
		c-0.102-0.211-0.035-0.389,0.124-0.557c0.168-0.178,0.391-0.383,0.576-0.548c0.305-0.272,0.491-0.423,0.897-0.284
		c0.151,0.051,0.285,0.179,0.425,0.217c0.283,0.077,0.738,0.017,1.019-0.094c0.44-0.175,0.808-0.671,1.286-0.664
		c0.326,0.005,0.527,0.117,0.804-0.111c0.254-0.208,0.427-0.472,0.737-0.618c0.169-0.08,0.417-0.075,0.541-0.241
		c0.288-0.383,0.171-1.096,0.083-1.497c-0.132-0.119-0.478-0.044-0.681-0.006c-0.475,0.088-0.686,0.537-1.112,0.681
		c-0.187,0.063-0.305-0.006-0.483,0.012c-0.277,0.029-0.51,0.147-0.798,0.093c-0.669-0.125-0.627-0.8-1.133-1.091
		c-0.475-0.274-0.998-0.047-1.449,0.137c-0.54,0.22-1.178,0.346-1.682,0.193c-0.36-0.109-0.489-0.144-0.808-0.004
		c-0.244,0.107-0.485,0.376-0.735,0.454c-0.506,0.159-0.538-0.183-0.934-0.264c-0.455-0.093-0.869,0.307-1.016,0.709
		c-0.244-0.178-0.231-0.643-0.312-0.924c-0.115-0.396-0.278-0.818-0.459-1.189c-0.236-0.486-0.735-0.884-1.09-1.279
		c-0.285-0.317-0.751-0.683-1.082-0.929c-0.726-0.542-1.887-0.611-2.707-0.274c-0.613,0.253-0.912,0.944-1.652,0.486
		c-0.889-0.55-0.144-1.648,0.036-2.337c0.144-0.553,0.019-0.68-0.318-1.102c-0.226-0.283-0.687-0.85-0.736-1.231
		c-0.041-0.32,0.207-0.522,0.243-0.813c0.076-0.615-0.379-0.949-0.828-1.253c0.399-0.205,0.435-0.652,0.071-0.874
		c-0.393-0.239-0.486-0.096-0.328-0.611c0.217-0.707,0.308-1.479-0.128-2.175c-0.211-0.336-0.51-0.386-0.89-0.409
		c-0.136-0.008-0.284,0.021-0.416,0.059c-0.222,0.062-0.351,0.206-0.539,0.315c-0.174,0.1-0.464,0.195-0.662,0.204
		c-0.107,0.005-0.214,0.007-0.314-0.028c-0.291-0.103-0.557-0.396-0.681-0.67c-0.151-0.333-0.136-0.709-0.229-1.051
		c-0.048-0.179-0.174-0.587-0.323-0.691c-0.176-0.123-0.524-0.087-0.63-0.309c-0.023-0.049-0.026-0.153-0.041-0.211
		c-0.052-0.202-0.082-0.436-0.07-0.649c0.145-0.033,0.371-0.03,0.334-0.222c0.084-0.235-0.041-0.517,0.029-0.754
		c0.102-0.347,0.515-0.59,0.706-0.888c0.41-0.639-0.073-1.346-0.424-1.894c-0.162-0.252-0.242-0.571-0.527-0.667
		c-0.524-0.176-0.733,0.015-1-0.523c-0.119-0.239-0.098-0.262-0.382-0.277c-0.55-0.028-1.199,0.174-1.722,0.021
		c-0.038-0.602,0.194-1.202,0.659-1.573c0.601-0.481,0.582-0.973,0.548-1.723c-0.01-0.228-0.269-0.405-0.38-0.595
		c-0.172-0.294-0.133-0.48-0.04-0.798c0.084-0.287,0.294-0.67,0.055-0.915c-0.119-0.122-0.33-0.107-0.463-0.198
		c-0.104-0.071-0.143-0.194-0.254-0.262c-0.354-0.219-0.793,0.061-1.022-0.407c-0.158-0.324-0.112-0.618-0.343-0.895
		c-0.16-0.193-0.347-0.355-0.338-0.626c0.013-0.379,0.528-0.542,0.259-0.979c-0.177-0.286-1.124-0.224-1.411-0.23
		c-0.566-0.013-1.166-0.366-1.734-0.247c-0.629,0.132-1.015,0.762-1.38,1.229c-0.392,0.502-0.742,0.816-1.309,1.105
		c-0.722,0.368-1.495,0.601-2.113,1.153c0.174,0.01,0.373,0.35,0.305,0.528c-0.105,0.274-0.71,0.423-0.937,0.595
		c-0.288,0.218-0.375,0.52-0.738,0.309c-0.181-0.105-0.365-0.284-0.525-0.419c-0.219-0.186-0.496-0.421-0.605-0.697
		c-0.059-0.15-0.038-0.296-0.074-0.457c-0.102-0.447-0.697-0.783-0.699-1.239c-0.002-0.556,0.377-1.171,0.816-1.461
		c0.223-0.147,0.664-0.211,0.815-0.403c0.248-0.315,0.059-0.951,0.022-1.306c-0.039-0.371-0.24-0.759-0.484-1.049
		c-0.21-0.249-0.488-0.272-0.801-0.415c-0.372-0.17-0.708-0.46-1.113-0.503c-0.277-0.03-0.553,0.017-0.832-0.023
		c-0.539-0.077-1.007-0.255-1.519,0.004c-0.462,0.234-0.696,0.273-0.882,0.741c-0.202,0.51-0.485,0.983-0.718,1.482
		c-0.403-0.066-1.061-0.209-1.397,0.059c-0.192,0.154-0.224,0.416-0.461,0.551c-0.14-0.167-0.255-0.359-0.328-0.569
		c-0.119-0.345-0.117-0.352-0.529-0.36c-0.274-0.005-0.558-0.049-0.828-0.013c-0.62,0.083-1.746,0.5-2.304,0.169
		c-0.404-0.24-0.715-0.656-1.206-0.67c-0.575-0.017-0.794,0.634-1.332,0.078c-0.082-0.085-0.117-0.215-0.188-0.31
		c-0.162-0.217-0.34-0.22-0.588-0.316c-0.227-0.089-0.574-0.236-0.755-0.389c-0.042-0.036-0.089-0.133-0.123-0.157
		c-0.237-0.166-0.869-0.601-1.133-0.5c-0.06,0.023-0.135,0.147-0.165,0.19c-0.183,0.255-0.284,0.424-0.611,0.538
		c-0.43-0.447-0.692-1.227-1.289-1.489c-0.155-0.069-0.441-0.056-0.61-0.079c-0.169-0.023-0.368-0.035-0.526-0.096
		c-0.159-0.061-0.259-0.216-0.405-0.284c-0.737-0.336-1.722,0.258-2.277,0.657c-0.308,0.221-0.62,0.519-0.966,0.662
		c-0.296,0.122-0.665,0.024-0.959-0.079c-0.298-0.104-0.588-0.184-0.886-0.287c-0.252-0.088-0.663-0.126-0.756-0.42
		c-0.038-0.12,0.023-0.282-0.039-0.402c-0.122-0.234-0.069-0.08-0.243-0.151c-0.119-0.049-0.443-0.164-0.569-0.078
		c-0.11,0.075-0.122,0.244-0.172,0.357c-0.135,0.302-0.374,0.618-0.601,0.852c-0.264,0.273-0.654,0.236-0.958,0.444
		c0.208,0.11,0.047,0.435-0.083,0.535c-0.087,0.067-0.221,0.074-0.307,0.134c-0.351,0.244-0.246,0.48-0.305,0.857
		c-0.436,0.086-0.852,0.75-1.067,1.1c-0.144,0.235-0.16,0.474-0.229,0.745c-0.091,0.358-0.303,0.395-0.64,0.413
		c-0.647,0.036-1.458-0.111-2.031,0.224c-0.272,0.159-0.49,0.444-0.79,0.566c-0.209,0.084-0.233,0.034-0.399-0.046
		c-0.158-0.076-0.41-0.269-0.539,0.005c0.146,0.348,0.336,0.708,0.284,1.107l-9.987,11.01l-8.148,1.753l-2.2,3.954l-0.55,6.91
		l2.132,4.847l0.241,5.157l-2.201,3.232c0,0.616,0.062,1.22,0.069,1.832c0.009,0.765-0.213,1.586-0.498,2.293
		c-0.268,0.666-0.495,1.149-0.499,1.902c-0.003,0.571-0.311,1.537-0.138,2.053l0.344,8.32l-1.444,1.788l-3.232,6.876l-6.876,2.063
		L9.729,99.572l5.466,19.355l-1.856,0.481l1.032,3.954l3.988-0.997l0.859,2.647l-1.788,1.581l21.951,4.521l20.473,12.944
		l11.964,5.363l49.3,41.771l32.179,2.682l2.682-0.825l5.569-6.807c0.218-0.611,0.523-1.169,0.683-1.81
		c0.18-0.719,0.577-1.306,0.968-1.93c0.213-0.341,0.498-0.756,0.657-1.101c0.185-0.404,0.046-0.876,0.201-1.295
		c0.204-0.554,0.538-1.067,0.762-1.617c0.299-0.731,0.608-1.469,0.884-2.207c0.435-1.163,0.76-2.497,1.925-3.179
		c0.61-0.357,1.336-0.299,1.944-0.633c0.416-0.228,1.11-0.568,1.362-0.977h6.463l5.501,2.51l0.86-0.756l2.338,0.034
		c0.871,0,1.979-0.057,2.607,0.539c0.218,0.207,0.381,0.486,0.603,0.702c0.52,0.507,1.285,0.982,1.983,1.212
		c0.626,0.206,1.415,0.115,2.078,0.092c0.4-0.013,2.247,0.078,1.427-0.546c-0.412-0.313-1.248-0.217-1.735-0.386
		c-0.244-0.084-0.472-0.241-0.701-0.364c-0.62-0.333-1.134-0.718-1.259-1.469c-0.045-0.273,0.108-0.698-0.01-0.952
		c-0.127-0.275-0.557-0.431-0.738-0.693c-0.214-0.311-0.225-0.088-0.188-0.549c0.026-0.317,0.379-0.623,0.369-0.919
		c-0.024-0.684-1.332-1.688-1.735-2.206c-0.461-0.591-1.384-2.205-2.169-0.814c-0.171-0.234-0.316-0.481-0.43-0.747
		c-0.385-0.897,0.029-1.463-0.91-1.858c-0.365-0.154-0.773-0.279-1.107-0.492c-0.34-0.217-0.572-0.532-0.974-0.641v-11.036h-6.498
		v-8.922L179.622,135.988z"/>
</g>
</svg>
