<?xml version="1.0" encoding="utf-8"?>
<!-- Generator: Adobe Illustrator 26.0.3, SVG Export Plug-In . SVG Version: 6.00 Build 0)  -->
<svg version="1.1" xmlns="http://www.w3.org/2000/svg" xmlns:xlink="http://www.w3.org/1999/xlink" x="0px" y="0px"
	 viewBox="0 0 200 200" enable-background="new 0 0 200 200" xml:space="preserve">
<g id="Layer_1">
	<g id="Layer_1_00000128480095285341338950000008464522443776971395_">
	</g>
</g>
<g id="Isolation_Mode">
	<g>
		<path fill="#1E8346" d="M191.719,160.619c-0.118-0.541-0.655-0.278-0.863-0.687c-0.762,0.162-1.631-0.001-2.324,0.413
			c-0.477,0.114-1.131,0.064-1.535-0.226c-0.282-0.295,0.453-0.556,0.099-0.907c-0.526-0.403,0.15-1.002,0.23-1.468
			c0.414-3.07-1.11-5.874-0.329-8.905c-3.249,0.682-1.879-0.754-4.249-1.844c-2.94-0.18-5.486-2.039-7.132-4.426
			c-0.367-0.693-0.403-1.829-1.324-1.916c0.333-0.178,0.342-0.501-0.019-0.653c0.072-0.457-0.062-0.54-0.498-0.528
			c-0.145-0.273-0.019-0.498,0.008-0.76c-0.123-0.218-0.395-0.336-0.551-0.542c-0.456-0.376,0.316-1.052-0.172-1.48
			c-1.303-0.443-3.509-4.147-4.544-5.265l8.831-10.701c0.253-0.479-0.348-0.906-0.067-1.374c0.343-0.138,0.337-0.442,0.339-0.77
			c0.383-1.131-0.729-2.025-0.482-3.178l-0.65-0.913l-8.167-1.23c-0.381-1.287-0.462-3.937-0.316-5.269
			c0.185-0.197,0.214-0.376,0.034-0.583c-0.128-0.661,0.502-1.346,0.545-2.035c0,0-0.615-3.46-0.615-3.46
			c-0.934-1.696-1.41-5.264-2.103-7.005c-0.382-1.561,1.883-2.448,2.552-3.627c-0.001-0.277-0.197-0.712,0.147-0.888
			c0.24,0.065,0.613,0.161,0.579-0.248c-1.063-0.779-3.102,0.228-3.757-1.422c-0.409-1.029,0.728-1.837,0.124-2.826
			c-0.723-3.347-0.376-2.37,1.141-4.884h2.248c-0.539-0.417-0.549-1.287-1.045-1.766c-0.531-0.548-1.154-0.808,0.094-0.851
			c1.085,0.11,0.602-1.107,1.505-1.009c0.23-0.052,0.301-0.087,0.307-0.323c-0.103-0.594,0.175-1.045,0.492-1.488
			c-0.084-0.56,0.359-0.976,0.127-1.455c0.306-0.82,0.53-1.666,0.68-2.591c-0.184-0.429-0.707-0.409-0.282-0.875
			c-0.369-1.065-0.047-0.769,0.705-1.041c-0.271-1.597,1.792-3.045,0.335-4.513c0.247-1.363,0.955-2.957-0.888-3.472
			c-0.088-0.161,0.059-0.134,0.176-0.165c0.414-0.056,0.133-0.534,0.203-0.782c0.113-0.136,0.268-0.292,0.34-0.469
			c0.435-0.519-0.064-0.566,0.203-1.116c-0.264-0.507-0.278-1.082-0.646-1.545c-0.026-0.567-0.282-0.909,0.121-1.384
			c-0.166-0.852,0.372-1.758-0.212-2.625c-2.489,0.076-4.997,0.293-7.5,0.123c-0.923-1.16-1.665-2.503-2.551-3.705
			c-0.244-0.804-0.785-1.45-1.682-1.213c-0.435-0.278-0.846-0.638-1.301-0.905c-0.583,0.048-1.093-0.4-1.607-0.024
			c-0.592,0.103-0.476-0.584-0.859-0.82c-0.295-0.124-0.506-0.313-0.396-0.657c-0.26-0.426-0.534-0.802-0.998-0.947
			c-0.088-0.513-0.128-1.089,0.271-1.469c-0.226-0.063-0.336-0.073-0.289-0.328c0.135-0.979-1.012-0.537-1.559-0.522
			c-0.861-0.459-1.519-1.264-2.449-1.66c-0.507-0.089-1.065-0.095-1.426-0.541c0.085,0.443-0.167,0.766-0.605,0.47
			c-0.075,0.076-0.077,0.179-0.1,0.27c-1.231-0.008-1.596-1.713-2.524-0.146c-0.325,0.27-1.028,0.296-1.175-0.149
			c-0.313-0.309-0.84-0.048-1.178-0.28c-0.27-0.282-0.015-0.752-0.243-1.061c-0.26-0.436-0.8-0.085-1.109-0.44
			c-0.805,0.105-1.365-0.401-1.982-0.826c-0.378,0.157-0.631,0.118-0.866-0.262c-0.321-0.098-0.516-0.051-0.781-0.33
			c-0.427,0.112-0.787-0.116-1.188-0.197c-0.742,0.331-2.547-0.148-2.106-1.221c0.321-0.795-0.734-1.076-0.776-1.8
			c0.079-0.399-0.318-0.421-0.408-0.725c-0.043-0.172,0.009-0.296-0.173-0.323c-1.035-0.338-1.06,1.265-2.004,0.989
			c-0.694-0.587-1.753-0.173-2.423-1.005c-0.352-0.268-0.634,0.223-1.03,0.133c-0.226,0.005-0.311,0.378-0.525,0.285
			c-0.578-0.843-2.138,0.006-2.675,0.624c-0.125,0.46,0.492,0.845,0.044,1.346c-0.429,0.014-0.924,0.235-1.277-0.099
			c-0.052-0.115-0.304-0.082-0.445-0.063c-0.496,0.005-0.975,0.106-1.449,0.224c-0.228,0.034-0.125,0.003-0.307-0.154
			c-0.246-0.212-0.581,0.046-0.861-0.101c-0.316-0.316-0.481-0.494-0.93-0.316c-0.249-0.076-0.206-0.193-0.476-0.057
			c-0.48,0.263-1.09-0.025-1.549,0.31c-0.2,0.142-0.314,0.299-0.589,0.24c-0.37-0.322-0.571-0.21-0.748,0.213
			c-0.498,0.507-1.295,0.527-1.874,0.915c-0.3,0.591-0.829,0.368-1.342,0.629c-0.599,0.632-1.018,1.504-1.773,1.995
			c-0.547,0.125-0.941,0.454-1.081,1.026c0.234,1.575,0.228,1.995-1.269,2.983c-1.115-0.572-1.772,0.649-2.713,1.061
			c-0.5,0.097-0.98-0.045-1.329,0.389c-1.089-0.071-2.191-0.227-3.264-0.41c0.19,1.586,0.956,3.056,1.029,4.672
			c0.079,0.03,0.134,0.078,0.204,0.112c0.352,1.364-0.133,2.224-1.619,2.026c-1.311-0.312-3.176,0.501-4.119-0.473
			c0.203-0.341,0.764,0.041,1.048-0.125c0-0.268,0.263-0.242,0.477-0.232c0.508,0.022,5.511-0.704,3.351-0.844
			c-6.207,0.779-12.319,2.082-18.138,4.249c-2.571,0.491-4.76-1.179-7.137-1.572c-0.654-0.053-1.491,0.039-2.003-0.421
			c-1.136-0.288-2.299-1.002-3.16-1.738c-1.632-0.963-3.511-1.969-4.595-3.565c-0.58-0.949-0.404-2.629-1.75-2.837
			c-0.356-0.075-1.31,0.024-1.492-0.407c-0.071-0.167,0.012-0.245-0.264-0.217c-3.628,0.564-8.356-0.645-9.323-4.665
			c-0.778-0.988,0.013-8.38-1.683-7.149c-1.488,1.478-2.088-0.828-2.979-1.672c-0.047-0.581-0.606-0.326-1.011-0.375
			c-0.475,0.069-0.525-0.377-0.828-0.614c-0.284-0.265-0.051-0.716-0.409-0.973c-0.345-0.345-0.9-0.233-1.214-0.551
			c-0.328-0.593-1.217-0.538-0.931-1.464c0.647,0.13,0.452-0.609,0.91-0.681c0.512-0.132,1.083-0.092,1.566-0.283
			c0.474-0.378,0.914-0.767,0.438-1.349c-0.175-0.524-0.855-0.475-1.056-1.036c-1.9-1.46,0.504-1.965,1.509-2.629
			c-1.146-1.361-2.338-2.721-3.456-4.103c-0.692,0.896-1.872,0.192-2.53,1.304c-1.233,0.209-1.784,1.745-3.156,1.584
			c-0.659,0.632-0.932,1.907-2.072,1.96c-0.607,0.223-1.271,0.786-1.249,1.442c-0.179,0.274-0.836,0.869-1.113,0.696
			c-0.117-0.275-0.586-0.14-0.828-0.086c-0.547,0.382-0.818,1.007-1.012,1.586c-0.156,0.117-0.501,0.027-0.595,0.197
			c-0.101,0.234-0.228,0.444-0.393,0.643c-0.363,0.247-0.848,1.267-1.274,0.948c-0.281-0.038-0.631-0.301-0.853-0.009
			c-0.68-0.993-1.755,0.196-2.558,0.464c-0.6-0.315-1.174-0.248-1.789-0.425c-0.41-0.042-0.568,0.199-0.871-0.172
			c-0.232-0.284-0.535-0.546-0.908-0.63c-0.675-0.064-1.335,0.314-1.847-0.273c-0.497,0.108-1.05-0.05-1.466-0.338
			c-0.142-0.228,0.252-0.501,0.163-0.74c-0.535,0.053-0.702-0.297-0.815-0.748c-0.269-0.199-0.749-0.343-0.837-0.704
			c-0.149-0.123-0.509-0.084-0.533-0.341c-0.354,0.122-0.471-0.351-0.821-0.095c-0.09-0.215,0.004-0.887-0.257-0.965
			c0.007-0.644-0.652-1.258-1.205-1.564c-0.326-0.127-0.17-0.485-0.426-0.619c-0.298-0.817-0.268-1.784-1.305-2.001
			c-0.273-0.907-1.661-0.933-1.915-1.95c-0.462,0.315-1.449,0.79-1.377,1.393c0.107,0.243,0.179,0.401,0.012,0.632
			c-0.146,0.202-0.393,0.334-0.49,0.574c-0.102,0.369,0.321,0.746-0.029,1.071c0.001,0.27,0.284,0.516-0.041,0.774
			c-0.618,0.105-1.229,0.916-1.71,0.157c-0.264-0.203-0.465-0.006-0.716,0.111c-0.382,0.152-0.741-0.505-1.094-0.032
			c0.189,0.12,0.014,0.182-0.079,0.268c0.128,0.416,0.422,0.885,0.597,1.287c-0.006,0.151-0.199,0.213-0.189,0.346
			c0.195,0.324,0.209,0.66,0.648,0.864c0.3,0.199,1.048,0.888,0.507,1.15c-0.354,0.212,0.106,0.388,0.037,0.701
			c-0.263,0.274-0.467,0.541-0.244,0.935c0.306,0.286,0.447,0.84,0.674,1.243c0.116,0.004,0.254-0.011,0.336,0.083
			c-0.011,0.003-0.02,0.007-0.029,0.014c0.051,0.128,0.174,0.292,0.267,0.396c-0.439,0.767-0.733,1.74,0.099,2.338
			c-0.267,0.699,0.273,1.498-0.115,2.07c-0.074,0.234,0.126,0.419,0.082,0.628c-0.189,0.372,0.136,0.274,0.407,0.433
			c0.254,0.261,0.554-0.165,0.819-0.075c0.206,0.064,0.439,0.278,0.617,0.405c-0.067,0.5-0.62,0.717-0.918,1.026
			c-0.344,0.464,0.277,1.494-0.629,1.49c0.176,0.234,0.205,0.406-0.126,0.449c-0.365,0.781-1.077,1.624-1.032,2.568
			c0.226,0.567,1.107-0.291,1.498,0.3c0.132,0.228,0.034,0.512,0.378,0.562c0.257,0.088,0.237,0.46,0.514,0.473
			c0.705-0.25,1.381,0.265,1.352,0.995c-0.856,0.549,0.023,0.721-0.21,1.26c0.228,0.546-0.163,0.794-0.002,1.222
			c-0.383,0.698,0.342,0.416,0.492,1.046c0.162,0.308,0.457,0.09,0.671,0.305c0.166,0.271,0.295,0.544,0.593,0.703
			c0.559,0.407-0.09,0.72-0.101,1.188c0.108,0.885-0.321,2.28,0.839,2.134c0.484,0.329,0.372,0.587,0.245,1.055
			c0.717,0.742-0.351,1.28-0.31,2.048c1.017,0.141,2.144,0.522,2.075,1.758c-0.247,0.392-0.737,1.004-0.517,1.483
			c0.773,0.099,0.445,1.527,1.447,1.139c0.921-0.416,1.388,0.552,0.993,1.269c-0.002,0.186,0.42,0.484,0.179,0.592
			c0.713,0.584,0.217,1.495,0.928,2.141c-0.509,0.74-0.308,2.172,0.577,0.948c0.078,0.019,0.142,0.083,0.196,0.144
			c1.335-0.595,2.303,1.288,2.935,2.193c0.323-0.508,0.84,0.208,1.191-0.423c0.233,0.127,0.687,0.413,0.828,0.053
			c0.957-0.103,1.07-0.631,1.889,0.319c0.028-0.034,0.071-0.045,0.089-0.097c0.215,0.184,0.321,0.185,0.504-0.011
			c0.293,0.078,0.361-0.209,0.621-0.204c0.256,0.046,0.567,0.647,0.286,0.8c-0.423-0.056-0.475,0.707-0.994,0.414
			c-0.448,0.262-0.899,0.689-1.446,0.409c-0.208-0.103-0.296-0.185-0.492-0.019c-0.699,0.502-0.049,0.797-0.039,1.389
			c-0.126,0.006-0.257,0.006-0.384-0.002c0.045,0.149,0.328,0.435,0.314,0.601c-0.535,0.453,0.08,1.25,0.335,1.753
			c0.577,0.58,1.229,0.874,0.654,1.67c0.288,0.126,0.813,0.181,0.698,0.624c-0.912,0.323,0.08,0.8-0.413,1.096
			c-0.194,0.243-0.371,0.165-0.605,0.061c-0.183,0.01-0.173,0.316-0.278,0.454c-0.365-0.374-0.463-0.16-0.853-0.332
			c-0.145-0.124-0.188-0.27-0.414-0.235c0.025,0.395-0.103,0.699-0.555,0.706c0.005,0.243,0.266,0.497,0.231,0.736
			c-0.041,0.275-0.585,0.459-0.293,0.817c-0.248-0.003-0.478-0.116-0.726-0.115c0.11,0.342,0.097,0.839-0.273,1.002
			c-0.703-0.332-0.648,0.584-0.826,1.023c-0.094,0.166-0.157,0.227-0.012,0.386c0.588,0.431,0.919,1.297,0.61,2
			c-0.514-0.608-1.399,0.122-1.795-0.63c-0.83-0.056,0.402,1.245-0.468,1.28c-0.946-0.036-0.263,1.245-0.028,1.622
			c0.097-0.032,0.198-0.15,0.261-0.232c0.932,0.649,0.162,1.711,0.526,2.401c0.128,0.475-0.584,0.442-0.845,0.695
			c-0.31,0.411-0.138,1.05-0.687,1.345c-0.194,0.565,0.634,0.246,0.88,0.386c0.299,0.313,0.279,0.914,0.645,1.235
			c0.412,0.479,0.674,0.917,0.883,1.487c0.364,0.502,1.26,0.632,0.788,1.346c0.337-0.535,1.143-0.438,1.68-0.393
			c-0.527,0.434,0.89,0.66-0.161,1.042c-0.914,0.51,0.435,0.877,0.813,0.342c0.681,0.554,0.577,1.609,1.192,2.204
			c0.187,0.204,0.446,0.348,0.627,0.549c0.139,0.261-0.171,0.563,0.072,0.794c0.149,0.332-0.548,0.829-0.848,0.877
			c-0.247-0.174-0.859,0.061-0.517,0.364c0.283,0.156,0.677,0.009,0.972,0.139c0.515,0.494-1.221,0.763-0.161,1.237
			c0.884,0.396,1.744-0.327,2.653,0.331c2.734,1.26,4.493,3.69,6.988,5.364c1.171,0.452,1.834-0.989,2.768,0.572
			c0.705,0.342-0.392,1.149,0.69,1.211c0.288-0.024,0.223,0.2,0.09,0.347c-0.024,0.492,0.973,0.802,0.204,1.176
			c-0.242,0.675,0.466,0.687,0.886,0.826c0.686,0.79,0.864,1.908,1.761,2.542c1.067,1.651-0.515,3.57-1.121,5.285
			c-0.076,0.327,0.026,4.237-0.012,4.674l3.307-0.04l0.013,5.73c0.674,0.492,1.537,0.558,1.49,1.616
			c0.097,0.291,0.272,0.273,0.498,0.107c0.654-0.198,1.04,0.843,1.382,1.27c0.52,0.439,0.115,0.655-0.028,1.075
			c0.484,0.456,0.547,0.672,0.719,1.295c0.475,0.3,1.658,1.212,2.039,0.565c-0.028-0.368,0.147-0.479,0.374-0.691
			c0.39-0.221,1.056-0.167,1.436,0.044c1.045,0.191,0.616-0.976,0.863-1.491c0.208-0.736-0.415-1.151-0.777-1.649
			c-0.013-0.559,0.288-1.341,0.935-1.378c0.217,0.178,0.498,0.252,0.686-0.014c0.123-0.201,0.384-0.065,0.563-0.125
			c0.119-0.069,0.107-0.288,0.244-0.351c0.288,0.101,0.665-0.247,0.822-0.002c-0.06,0.094-0.197,0.14-0.298,0.18
			c0.066,0.564,0.578-0.133,0.731,0.266c-0.751,0.541,0.203,1.302-0.086,1.958c-0.149,0.189-0.144,0.389,0.027,0.554
			c0.146,0.2-0.064,0.521,0.142,0.671c0.666-0.438,1.442-0.148,2.196-0.22c1.153,0.245-0.228,1.136,0.484,1.667
			c1.747-0.056,3.836-3.938,5.53-1.751c0,0.663,0.812,1.264,0.374,1.891c0.25,1.095,1.296,2.188,1.865,3.269
			c0.991,0.539,1.525,1.388,2.215,2.212c0.979-0.319,0.59,1.716,1.058,2.184c0.137,0.293-0.011,0.519-0.267,0.61
			c-0.055,0.081-0.091,0.518-0.098,0.64c0.035,1.349,1.754,0.161,2.332,1.098c0.481,0.373,0.095,0.883-0.252,0.365
			c-0.11,0.326-0.007,0.23-0.274,0.411c-0.602,0.472-0.19,1.961,0.58,2.043c0.72-0.185,1.196,0.135,1.409,0.843
			c0.541,1.902,0.415,4.16,2.239,5.508c0.302,0.294,0.061,0.673-0.036,1.002c-0.103,0.463,0.232,0.878,0.363,1.308
			c0.166-2.066,0.632,1.309,1.12,1.164c0.209-0.501,0.444,0.26,0.685,0.357c0.224,0.109,0.456-0.034,0.656,0.177
			c0.147,0.422,0.583,0.494,0.953,0.325c0.253,0.351,0.584,0.199,0.951,0.106c0.582-0.249,1.113,0.054,1.686,0.015
			c1.322-0.527,1.876,0.987,2.722,1.603c1.631,0.116,2.85,0.868,3.625,2.307c0.389,0.242,0.76-0.018,0.601,0.71
			c-0.29,0.015-0.601,0.018-0.877,0.12c2.118,2.663,5.683,3.448,8.667,4.677c-0.25,1.42,1.136,2.05,2.218,2.561
			c1.875,0.261,4.024-0.042,5.887,0.08c1.468,2.872,1.471-0.086,2.907,2.325c0.541-0.349,1.138,0.099,1.635-0.025
			c0.681-0.433,1.535-1.307,2.489-1.491c0.196-0.114,0.131-0.385,0.302-0.518c0.396-0.103,0.715-0.368,1.102-0.362
			c0.313-0.353,0.827-0.929,1.353-0.542c0.7,0.318,1.874,0.012,1.944-0.853c0.104-0.116,0.183-0.007,0.212-0.189
			c-0.094-0.94,0.985-1.477,1.778-1.13c0.197-0.533,0.973-0.254,1.415-0.387c0.566-0.529,1.23-0.625,1.671-1.162
			c0.335-0.424,0.824-0.274,1.239-0.137c0.975-0.724,2.032-0.397,3.152-0.255c1.439-0.086,2.55,0.107,3.273,1.418
			c1.61,0.255,0.466,0.363,0.579,1.278c1.526,1.19,1.486,3.528,1.228,5.267c-0.048,0.599,0.618,0.731,0.547,1.353
			c-0.004,0.662,1.005,0.863,0.896,1.486c-0.423,0.678-0.371,1.411,0.288,1.862c0.643,0.922,0.34,2.416,1.905,2.388
			c1.225,0.582,3.095-0.739,3.259,1.106c2.032-1.304,1.639,0.168,3.079,0.908c0.656-0.231,1.473-0.391,2.213-0.596
			c0.327-0.125,0.653,0.505,1.071,0.272c0.211-0.392,0.543-0.122,0.9-0.275c0.584,0.681,1.791,0.22,2.542,0.579
			c0.164,0.248,0.399,0.215,0.648,0.279c0.737,0.781,1.446,1.678,2.638,1.238c0.179-0.198,1.026-0.206,0.666-0.527
			c-0.002-0.418,0.35-0.11,0.392,0.118c0.243,0.08,1.038,0.129,1.054-0.226c0.473,0.188,1.062-0.058,1.395,0.482
			c0.645,0.741,1.666,0.225,2.511,0.306c0.454-0.04,0.641,0.387,0.938,0.609c0.68,0.149,1.372-0.566,2.061-0.242
			c1.225,1.115,0.749-0.256,1.78-0.158c0.286,0.059,0.17,0.42,0.37,0.556c0.441,0.156,0.987,0.141,1.422,0.372
			c0.07-0.271-0.235-0.338-0.392-0.456c-0.362-0.379,0.327-0.852,0.672-0.929c1.036-0.403,1.057,0.758,1.423,1.371
			c1.324,0.697,2.97,0.552,4.4,1.13c0.803,0.034,0.866,0.877,1.637,0.96c0.503,0.096,1.651,0.914,1.656,0.065
			c0.066-0.066,0.221,0.033,0.286-0.013c0.536-0.959-0.006-1.325,1.374-0.842c0.766-1.407-0.228-6.14,1.708-5.747
			c0.068-0.147,0.112-0.252,0.29-0.29c0.67-0.389-0.516-1.179,0.352-1.376c0.569-0.259-0.734-0.442-0.378-1.042
			c0.126-0.264,0.338-0.445,0.158-0.731c0.192-0.732,0.111-1.91,0.801-2.343c0.657,0.138,0.774-0.55,1.233-0.74
			c0.468,0.046,1.25,1.191,1.614,0.331c0.026-0.291,0.181-0.264,0.449-0.292c-0.033-0.17-0.174-0.287,0.034-0.435
			c0.198-0.197-0.163-0.385-0.155-0.597c0.111-0.489,0.77,0.048,0.486-0.838c0.139-0.419,0.754-0.695,1.147-0.472
			c0.424-0.385,1.184-0.629,1.781-0.292c0.187-0.498,0.598-0.359,0.988-0.318c0.295-0.23,0.445-0.619,0.924-0.566
			c0.941-0.227,2.028,0.325,2.675,0.068c0.509,0.002,1.181,0.235,0.972-0.521c0.203-0.24-0.215-0.591,0.103-0.773
			c0.201-0.25-0.199-0.483-0.057-0.726c1.187-0.205-0.216-2.92,1.27-3.124C191.951,161.057,191.812,160.816,191.719,160.619z"/>
		<path fill="#1E8346" d="M126.037,161.64c-0.168,0.136-0.154,0.265-0.154,0.456C126.582,162.724,126.944,161.19,126.037,161.64z"/>
		<path fill="#1E8346" d="M125.189,163.854c-0.165,0.053-0.409,0.297-0.448,0.452C125.104,165.097,126.325,163.722,125.189,163.854z
			"/>
		<path fill="#1E8346" d="M123.982,162.768c-1.031-0.281-2.14,0.354-2.982,0.855c-0.569,0.223-0.983-0.368-1.502-0.373
			c-0.427,0.062-0.001,0.475,0.07,0.663c-0.052,0.327,0.343,0.484,0.302,0.787c-0.26,0.564-1.035,0.245-1.466,0.454
			c-0.685,0.818-1.908,0.489-2.696,1.155c-0.301,0.248-0.665-0.007-1.02,0.012c0.234,0.246,0.003,0.57,0.095,0.828
			c-0.053,0.824,0.393,0.118,0.722,0.052c0.527,0.17,0.888-0.318,1.415-0.15c0.738-0.284,1.366-1.053,2.18-1.072
			c0.373,0.092,0.659-0.129,0.894-0.391c0.46-0.529,0.759,0.383,1.151,0.349c0.552-0.605,1.361-1.007,1.899-1.626
			c0.085-0.363,0.279-0.777,0.697-0.818C124.4,163.563,124.612,163.069,123.982,162.768z"/>
		<path fill="#1E8346" d="M120.539,166.28c-0.01,0.003-0.031,0.008-0.04,0.013c-0.463,0.772,0.654,0.54,0.222-0.184
			C120.647,166.151,120.62,166.255,120.539,166.28z"/>
		<path fill="#1E8346" d="M118.235,164.885c0.217,0.089,0.355-0.183,0.546-0.225c0.439,0.136,0.234-0.438-0.111-0.41
			c0.111-0.317,0.341-0.442,0.209-0.881C118.361,163.659,118.199,164.339,118.235,164.885z"/>
		<path fill="#1E8346" d="M112.525,174.417c-0.262,0.051-0.276,0.405-0.027,0.472C112.742,174.89,112.656,174.537,112.525,174.417z"
			/>
		<path fill="#1E8346" d="M107.834,174.201c-0.003-0.06-0.028-0.113-0.076-0.185c-0.303,0.143-0.751,0.411-0.131,0.468
			C107.939,174.571,107.86,174.438,107.834,174.201z"/>
		<path fill="#1E8346" d="M115.099,170.43c-0.273-0.106-0.349,0.197-0.056,0.238C115.21,170.693,115.364,170.378,115.099,170.43z"/>
		<path fill="#1E8346" d="M107.551,170.659c0.169-0.191,0.285-0.702-0.117-0.723C107.05,170.075,107.154,170.583,107.551,170.659z"
			/>
		<path fill="#1E8346" d="M102.843,167.489c-0.257-0.211-0.846-0.674-1.082-0.253C100.352,167.909,103.944,168.91,102.843,167.489z"
			/>
		<path fill="#1E8346" d="M96.502,164.652c-0.552-0.379-1.252-0.135-1.848-0.47c-0.741-0.035,0.303,0.73,0.625,0.696
			C95.551,164.967,97.059,165.107,96.502,164.652z"/>
		<path fill="#1E8346" d="M99.285,166.034c-0.166-0.158-0.401-0.148-0.613-0.132C98.337,166.383,99.794,166.557,99.285,166.034z"/>
		<path fill="#1E8346" d="M78.285,153.169c-0.097-0.069-0.317-0.124-0.326-0.273C77.342,152.925,78.583,153.896,78.285,153.169z"/>
		<path fill="#1E8346" d="M79.044,153.474c-0.095-0.08-0.207-0.091-0.312-0.142C78.366,153.488,79.431,153.829,79.044,153.474z"/>
		<path fill="#1E8346" d="M56.339,126.095c-0.046-0.41-0.482-0.642-0.856-0.633c-0.181,0.102-0.281,0.294-0.512,0.171
			c-0.299,0.182-0.752-0.192-0.894,0.079c0.016,0.391,0.732,0.164,0.653,0.649c0.228,0.566,1.144,0.593,1.565,1.105
			c-0.013-0.308,0.218-0.363,0.443-0.449C56.94,126.638,56.393,126.415,56.339,126.095z"/>
	</g>
</g>
</svg>
