<?xml version="1.0" encoding="utf-8"?>
<!-- Generator: Adobe Illustrator 26.0.3, SVG Export Plug-In . SVG Version: 6.00 Build 0)  -->
<svg version="1.1" xmlns="http://www.w3.org/2000/svg" xmlns:xlink="http://www.w3.org/1999/xlink" x="0px" y="0px"
	 viewBox="0 0 200 200" enable-background="new 0 0 200 200" xml:space="preserve">
<g id="Layer_1">
	<g id="Layer_1_00000107551159852787612550000017757744099325915571_">
		<g id="Layer_1_00000128480095285341338950000008464522443776971395_">
		</g>
	</g>
</g>
<g id="Isolation_Mode_00000063621668281934077600000006196874878142535819_">
	<path fill="#1E8346" d="M19.538,177.02c0.032-0.556-0.812-0.658-0.825-1.204c-0.014-0.571-0.088-1.186,0.188-1.702
		c0.353-0.66,0.709-1.315,1.053-1.977c0.263-0.506,0.451-1.133,0.316-1.702c-0.089-0.376-0.354-0.668-0.286-1.062
		c0.113-0.653,0.309-1.294,0.48-1.936c0.118-0.442,0.174-0.889,0.29-1.326c0.076-0.287,0.231-0.429,0.404-0.66
		c0.155-0.209,0.173-0.507,0.259-0.752c0.106-0.304,0.164-0.54,0.217-0.86c0.087-0.526,0.295-0.898,0.56-1.349
		c0.108-0.183,0.183-0.392,0.295-0.576c0.06-0.1,0.232-0.228,0.265-0.325c0.035-0.105-0.02-0.351-0.039-0.456
		c-0.044-0.228-0.073-0.402-0.062-0.64c0.009-0.208,0.038-0.428-0.007-0.634c-0.035-0.16-0.16-0.289-0.17-0.444
		c-0.009-0.158,0.113-0.307,0.157-0.451c0.055-0.181,0.026-0.343-0.006-0.524c-0.024-0.137-0.044-0.221,0.013-0.354
		c0.048-0.114,0.189-0.185,0.235-0.292c0.086-0.2-0.134-0.347-0.026-0.557c0.083-0.158,0.261-0.25,0.367-0.392
		c0.089-0.118,0.095-0.221,0.24-0.286c0.144-0.064,0.59,0.025,0.464-0.288c-0.031-0.076-0.132-0.107-0.175-0.17
		c-0.036-0.052-0.088-0.172-0.1-0.235c-0.154-0.056-0.287,0.024-0.28-0.175c0.005-0.147,0.149-0.373,0.211-0.506
		c0.212-0.453,0.4-0.91,0.683-1.326c0.125-0.185,0.237-0.275,0.45-0.279c0.077-0.001,0.303,0.041,0.372,0.002
		c0.124-0.07,0.074-0.406,0.109-0.542c0.044-0.173,0.086-0.259,0.036-0.418c-0.029-0.096-0.085-0.158-0.07-0.292
		c0.018-0.157,0.084-0.317,0.142-0.463c0.114-0.293,0.299-0.709,0.25-1.013c-0.012-0.075-0.069-0.117-0.061-0.193
		c0.009-0.1,0.065-0.077,0.084-0.146c0.03-0.11,0.007-0.204-0.059-0.298c-0.068-0.095-0.196-0.139-0.218-0.259
		c-0.02-0.107,0.064-0.176,0.07-0.279c0.013-0.214-0.215-0.313-0.282-0.489c-0.072-0.19,0.019-0.383,0.007-0.576
		c-0.022-0.337,0.166-0.648,0.188-0.98c0.019-0.285-0.066-0.626-0.106-0.91c-0.058-0.419-0.276-0.843-0.087-1.245
		c0.153-0.325,0.075-0.642,0.004-0.993c-0.056-0.275-0.062-0.598,0.055-0.858c0.096-0.213,0.356-0.492,0.323-0.736
		c0.295-0.258,0.616-0.648,0.82-0.979c0.118-0.191,0.295-0.54,0.477-0.679c0.053-0.36-0.263-0.813-0.387-1.135
		c-0.131-0.34-0.263-0.662-0.466-0.977c-0.381-0.593-0.509-1.315-0.307-1.986c0.197-0.652,0.571-1.288,0.851-1.898
		c0.136-0.296,0.328-0.43,0.347-0.772c0.017-0.3,0.039-0.598,0.039-0.902c0-0.137-0.037-0.344,0.004-0.475
		c0.05-0.158,0.216-0.245,0.29-0.387c0.157-0.303,0.045-0.727,0.015-1.051c-0.043-0.454-0.032-0.717,0.206-1.109
		c0.218-0.358,0.296-0.778,0.54-1.121c0.234-0.329,0.434-0.755,0.712-1.048c0.106-0.111,0.251-0.176,0.375-0.27
		c0.13-0.099,0.309-0.31,0.435-0.415c0.011-0.453,0.122-0.842,0.245-1.263c0.03-0.102,0.109-0.167,0.168-0.258
		c0.071-0.109,0.115-0.23,0.158-0.35c0.058-0.162,0.169-0.677,0.444-0.535c0.327-0.228,0.04-0.462,0.119-0.741
		c0.059-0.204,0.117-0.348,0.116-0.568c0-0.199-0.037-0.442-0.004-0.637c0.04-0.234,0.157-0.089,0.312-0.163
		c0.137-0.065,0.139-0.309,0.152-0.434c0.021-0.204,0.116-0.381,0.222-0.557c0.097-0.162,0.181-0.522,0.336-0.634
		c0.16,0.032,0.314,0.072,0.443-0.031c0.138-0.11,0.185-0.338,0.193-0.511c0.02-0.462-0.36-0.776-0.399-1.223
		c-0.065-0.737,0.156-1.482,0.463-2.148c0.149-0.322,0.407-0.575,0.572-0.887c0.141-0.267,0.231-0.552,0.51-0.709
		c0.264-0.149,0.558-0.068,0.84-0.172c0.202-0.075,0.279-0.218,0.377-0.393c0.129-0.231,0.385-0.304,0.532-0.507
		c0.006-0.238,0.075-0.473,0.077-0.715c0.003-0.305-0.012-0.611,0.018-0.916c0.033-0.347,0.021-0.697,0.021-1.046
		c0-0.299,0.102-0.599,0.103-0.893c0.001-0.282,0.049-0.534,0.144-0.799c0.096-0.269,0.311-0.47,0.402-0.741
		c0.07-0.209,0.054-0.437,0.159-0.631c0.098-0.181,0.17-0.351,0.228-0.55c0.07-0.243,0.123-0.51,0.168-0.759
		c0.025-0.14,0.064-0.278,0.091-0.418c0.026-0.134,0.004-0.3,0.098-0.411c0.209-0.004,0.251,0.135,0.245,0.325
		c-0.004,0.141-0.015,0.261-0.052,0.393c-0.032,0.115-0.028,0.208-0.056,0.326c-0.04,0.174-0.077,0.381-0.133,0.55
		c-0.042,0.127-0.185,0.414-0.086,0.542c0.071,0.091,0.572,0.043,0.692,0.047c0.15,0.006,0.39,0.041,0.514-0.052
		c0.311-0.234,0.029-0.764,0.378-1.005c0.126-0.087,0.315-0.132,0.428-0.229c0.104-0.09,0.061-0.171-0.011-0.273
		c-0.169-0.24-0.691-1.192-0.138-1.301c0.167-0.033,0.313,0.018,0.471-0.066c0.209-0.111,0.352-0.303,0.389-0.534
		c0.068-0.423,0.054-1.109-0.385-1.321c-0.141-0.068-0.291-0.117-0.262-0.309c0.017-0.114,0.175-0.254,0.121-0.373
		c-0.115-0.249-0.676,0.026-0.841,0.039c-0.125,0.01-0.229,0.004-0.309-0.077c-0.033-0.033-0.034-0.091-0.07-0.121
		c-0.078-0.065-0.209-0.058-0.3-0.1c-0.174-0.08-0.256-0.269-0.421-0.354c-0.213-0.109-0.314-0.2-0.481-0.368
		c-0.144-0.146-0.272-0.274-0.379-0.451c-0.043-0.072-0.084-0.131-0.159-0.154c-0.089-0.027-0.169,0.017-0.253-0.065
		c-0.216-0.208-0.52,0.023-0.729-0.287c0.334-0.548,0.611-1.186,1.114-1.6c0.292-0.24,0.701-0.414,0.934-0.71
		c0.145-0.184,0.326-0.742,0.067-0.915c-0.354-0.236-1.295,0.767-1.559,1.289c-0.114,0.224-0.548,0.994-0.802,1.01
		c0.018-0.487,0.412-1.071,0.667-1.486c0.27-0.441,0.521-0.679,0.958-0.955c0.479-0.302,0.564-0.512,0.64-1.059
		c0.079-0.574,0.459-0.615,0.801-0.965c0.262-0.267,0.414-0.744,0.854-0.328c0.328,0.309,0.29,0.852,0.163,1.242
		c-0.146,0.448-0.784,1.7,0.179,1.646c0.637-0.035,0.586-0.926,0.984-1.203c0.127-0.384,0.069-0.892,0.069-1.297
		c0-0.499,0.099-0.935,0.143-1.415c0.479-0.114,0.298-0.724,0.302-1.061c0.004-0.319,0.149-0.442,0.252-0.725
		c0.087-0.239,0.056-0.482,0.093-0.727c0.117-0.77,0.094-1.369-0.258-2.121c-0.291-0.622-0.189-1.485-0.189-2.173
		c0-0.618,0-1.325,0.137-1.921c0.091-0.393,0.236-1.055,0.481-1.344c0-1.22-0.001-2.302,0.377-3.45
		c0.203-0.617,0.624-1.461,0.016-1.964c-0.259-0.214-0.643-0.249-0.921-0.426c-0.293-0.185-0.265-0.346-0.262-0.729
		c0.004-0.413,0.04-0.596-0.138-0.948c-0.084-0.165-0.222-0.38-0.204-0.574c0.017-0.179,0.104-0.145,0.154-0.307
		c0.074-0.239,0.11-0.64,0.016-0.889c-0.045-0.119-0.634-0.814-0.074-0.753c0.036-0.64-0.301-1.037-0.441-1.635
		c-0.084-0.359-0.226-0.789-0.135-1.166c0.069-0.288,0.29-0.301,0.434-0.501c0.191-0.265,0.094-0.974,0.078-1.307
		c-0.014-0.311-0.118-0.532-0.086-0.846c0.03-0.287,0.074-0.341-0.086-0.589c-0.259-0.402-0.307-0.495-0.309-0.996
		c-0.002-0.485-0.453-0.794-0.22-1.261c0.076-0.152,0.194-0.17,0.248-0.351c0.044-0.145-0.026-0.308,0.017-0.455
		c0.164-0.548,0.593-0.535,0.469-1.143c-0.031-0.149-0.037-0.324-0.091-0.469c-0.044-0.118-0.156-0.164-0.176-0.291
		c-0.057-0.356,0.368-0.542,0.455-0.849c0.065-0.228-0.054-0.428,0.069-0.654c0.167-0.305,0.272-0.218,0.21-0.611
		c-0.065-0.415-0.262-0.843,0.023-1.237c0.116-0.161,0.448-0.284,0.519-0.471c0.063-0.166-0.035-0.399-0.044-0.586
		c-0.019-0.404,0.11-0.663-0.06-1.041c-0.128-0.284-0.224-0.255-0.059-0.561c0.056-0.103,0.146-0.019,0.19-0.151
		c0.033-0.097-0.055-0.138-0.063-0.207c-0.038-0.359-0.484-0.91-0.362-1.185c0.028-0.063,0.221-0.016,0.28-0.117
		c0.075-0.128-0.032-0.329-0.071-0.456c-0.055-0.177-0.154-0.422-0.269-0.55c0.411-0.187,0.197-0.539,0.087-0.832
		c-0.091-0.243-0.163-0.481-0.147-0.751c0.008-0.123,0.078-0.245,0.095-0.35c0.032-0.191-0.035-0.262-0.063-0.441
		c-0.036-0.236-0.093-0.732,0.269-0.631c0.067-0.313-0.057-0.535-0.217-0.792c-0.143-0.23-0.37-0.375-0.262-0.666
		c0.111,0.033,0.215,0.132,0.335,0.099c0.006-0.116-0.068-0.212-0.06-0.338c0.005-0.08,0.042-0.153,0.017-0.236
		c-0.041-0.134-0.179-0.193-0.081-0.34c0.044-0.066,0.132-0.103,0.194-0.138c-0.06-0.134-0.145-0.185-0.05-0.323
		c0.081-0.119,0.153-0.056,0.245-0.133c0.097-0.082,0.043-0.186,0.021-0.274c-0.034-0.131-0.033-0.247,0.015-0.376
		c0.434-0.119,0.103-0.473-0.079-0.62c0.125-0.215,0.151-0.497,0.277-0.71c0.057-0.097,0.108-0.109,0.187-0.182
		c0.095-0.089,0.021-0.184,0.039-0.32c0.029-0.221-0.136-0.385-0.327-0.426c-0.16-0.035-0.327-0.024-0.42-0.187
		c-0.082-0.144-0.175-0.449-0.116-0.596c0.021-0.053,0.06-0.161,0.113-0.195c0.06-0.038,0.139,0.001,0.204-0.027
		c0.218-0.092,0-0.227-0.082-0.333c-0.153-0.198-0.037-0.334,0.123-0.469c0.131-0.111,0.165-0.235,0.254-0.377
		c0.113-0.182,0.203-0.244,0.099-0.454c-0.084-0.167-0.109-0.196,0.042-0.302c0.095-0.066,0.129-0.089,0.138-0.208
		c0.024-0.301-0.025-0.645-0.052-0.947c-0.024-0.274-0.131-0.201-0.341-0.32c-0.158-0.09-0.065-0.219,0.076-0.302
		c0.101-0.059,0.109-0.009,0.114-0.145c0.004-0.098-0.007-0.205-0.044-0.294c-0.063-0.151-0.299-0.298-0.29-0.468
		c0.008-0.151,0.108-0.21,0.028-0.368c-0.05-0.099-0.158-0.136-0.13-0.265c0.022,0,0.044-0.005,0.065-0.005
		c0.014-0.267,0.06-0.421,0.311-0.221c0.126,0.101,0.172,0.176,0.354,0.109c0.049-0.018,0.064-0.07,0.111-0.093
		c0.063-0.03,0.111-0.004,0.18-0.051c0.092-0.063,0.121-0.237,0.227-0.28c0.129-0.053,0.269,0.101,0.377-0.046
		c0.03-0.04,0.085-0.282,0.075-0.327c-0.037-0.156-0.282-0.176-0.24-0.36c0.09-0.018,0.176-0.043,0.269-0.036
		c0.064-0.125,0.089-0.275,0.214-0.357c0.142-0.093,0.324-0.005,0.464-0.082c0.158-0.087,0.118-0.262,0.343-0.214
		c0.129,0.027,0.254,0.167,0.345,0.277c0.224-0.044,0.404-0.227,0.603-0.328c0.161,0.165,0.168,0.248,0.373,0.102
		c0.133-0.094,0.155-0.098,0.128-0.245c-0.022-0.12-0.065-0.18-0.061-0.322c0.003-0.104-0.016-0.305,0.065-0.377
		c0.099-0.09,0.404-0.052,0.52-0.072c0.316-0.055,0.356-0.195,0.571-0.38c0.106-0.092,0.259-0.177,0.321,0.005
		c0.064-0.1,0.18-0.179,0.27-0.255c0.088-0.075,0.029-0.074,0.151-0.118c0.054-0.02,0.126-0.005,0.181-0.02
		c0.099-0.028,0.182-0.076,0.253-0.163c0.058-0.072,0.183-0.41,0.291-0.184c0.288-0.176,0.443-0.629,0.78-0.702
		c0.122-0.027,0.258-0.043,0.382-0.064c0.136-0.023,0.258,0.03,0.388,0.015c0.212-0.025,0.307-0.357,0.519-0.292
		c0.235,0.071,0.145,0.295,0.017,0.407c0.089,0.228,0.239,0.413,0.413,0.171c0.077,0.078,0.12,0.187,0.232,0.227
		c0.11-0.002,0.219,0.018,0.328,0.025c0.047,0.002,0.107-0.006,0.149,0.02c0.075,0.046,0.133,0.178,0.197,0.24
		c0.107,0.104,0.142,0.083,0.242-0.002c0.11-0.095,0.24-0.088,0.351-0.008c0.082,0.06,0.184,0.153,0.28,0.088
		c0.067-0.045,0.093-0.103,0.181-0.131c0.073-0.024,0.144-0.014,0.223-0.011c0.225,0.01,0.34,0.03,0.477,0.226
		c0.077,0.11,0.145,0.247,0.189,0.373c0.146,0,0.315,0.019,0.455-0.025c0.127-0.04,0.162-0.12,0.265-0.179
		c0.088-0.05,0.209-0.063,0.305-0.028c0.072,0.027,0.129,0.128,0.216,0.126c0.05-0.001,0.128-0.091,0.186-0.103
		c0.086-0.017,0.154,0.026,0.232,0.041c0.155,0.03,0.253,0.053,0.316,0.229c0.016-0.012,0.002-0.003,0.018-0.019
		c0.028,0.167,0.081,0.325,0.091,0.494c0.015,0.242,0.042,0.413,0.292,0.508c0.155,0.059,0.335,0.023,0.492,0.095
		c0.114,0.051,0.388,0.382,0.338,0.501c-0.036,0.086-0.459,0.051-0.539,0.072c-0.026,0.23,0.309,0.575,0.491,0.672
		c0.217,0.116,0.437,0.094,0.682,0.094c0.301,0,0.64-0.019,0.932,0.03c0.1,0.017,0.239,0.044,0.327,0.089
		c0.097,0.051,0.176,0.182,0.283,0.222v2.201c0.02,0.075,0.111,0.056,0.163,0.089c0.06,0.039,0.1,0.132,0.131,0.192
		c0.076,0.145,0.132,0.276,0.264,0.379c0.087,0.068,0.193,0.105,0.276,0.179c0.074,0.066,0.144,0.141,0.216,0.208
		c0.19,0.177,0.285,0.433,0.388,0.666c0.056,0.127,0.098,0.256,0.156,0.382c0.044,0.095,0.078,0.224,0.142,0.302
		c0.087,0.106,0.077,0.152,0.077,0.28c0,0.102-0.004,0.202-0.009,0.303c-0.01,0.234,0.042,0.461,0.043,0.692
		c0,0.103,0.01,0.209,0.018,0.312c0.009,0.127,0.03,0.147,0.165,0.13c0.209-0.026,0.382-0.188,0.569-0.267
		c0.175-0.074,0.367-0.107,0.538-0.189c0.079-0.038,0.198-0.111,0.291-0.103h1.391l0.413,0.524l1.039-0.73l0.305,0.004l1.314,1.34
		l2.887,1.959l3.098,3.398l3.321,0.352l0.632,0.464l7.397,1.194l0.464,0.541l0.49-0.344l4.261,0.79l1.272-1.409l72.075-46.047
		l11.019,38.997l-3.776,1.031l2.229,7.72l8.132-2.255L181,58.46l-11.393,10.348l-74.92,21.957l27.829,32.024l0.4,0.661l9.137,11.075
		l-12.398,7.329l-6.263,14.443l-27.974,5.705l-9.296,15.877l-16.445,13.669L18,184.073c0.22-0.313,0.216-0.854,0.215-1.235
		c0-0.181,0.011-0.333,0.141-0.471c0.129-0.136,0.362-0.223,0.409-0.417c0.054-0.222-0.173-0.509-0.227-0.717
		c-0.063-0.247,0.023-0.534-0.059-0.777c-0.042-0.122-0.158-0.23-0.157-0.37c0.002-0.228,0.176-0.181,0.319-0.307
		c0.209-0.184,0.095-0.65,0.09-0.906c-0.009-0.448,0.297-0.668,0.563-0.963C19.488,177.695,19.522,177.302,19.538,177.02z"/>
</g>
</svg>
