<?xml version="1.0" encoding="utf-8"?>
<!-- Generator: Adobe Illustrator 26.0.3, SVG Export Plug-In . SVG Version: 6.00 Build 0)  -->
<svg version="1.1" xmlns="http://www.w3.org/2000/svg" xmlns:xlink="http://www.w3.org/1999/xlink" x="0px" y="0px"
	 viewBox="0 0 200 200" enable-background="new 0 0 200 200" xml:space="preserve">
<g id="Layer_1">
	<g id="Layer_1_00000075879624959596184900000007102216081240906125_">
		<g id="Layer_1_00000107551159852787612550000017757744099325915571_">
			<g id="Layer_1_00000128480095285341338950000008464522443776971395_">
			</g>
		</g>
	</g>
</g>
<g id="Isolation_Mode">
	<g>
		<path fill="#1E8346" d="M193.795,80.313c-0.664-0.509-1.26-1.267-1.376-2.124c0.924,0.139,0.574-0.762,0.575-1.342
			c-0.195-0.482-1.216-1.151-0.438-1.502c0.037-0.426-0.534-0.631-0.832-0.765c-0.165-0.303-0.28-0.533-0.721-0.486
			c-0.617,0.001-0.649-0.629-0.991-0.932c-0.307-0.158-0.422-0.498-0.398-0.843c0.036-0.514-0.876-0.503-1.24-0.443
			c-0.705-0.072-1.395-0.158-2.082-0.341c-0.571-0.014-1.016-0.465-1.587-0.556c-0.147,0.013-0.887,0.289-0.662,0.496
			c-0.84-0.158-2.404,0.237-2.705-0.76c-1.221-0.533-1.619-1.934-2.602-2.724c-1.864-0.374-3.979-2.876-2.388-4.736
			c-0.891,0.019-1.738,0.86-2.615,1.03c-0.328,0.018-0.195-0.242-0.4-0.387c-0.17-0.12-0.534,0.024-0.737-0.035
			c-0.388-0.263-0.679,0.152-1.08,0.039c-0.4-0.124-0.792-0.665-1.189-0.506c-0.35,0.051-0.459-0.32-0.813-0.221
			c-0.134,0.037-0.334,0.201-0.471,0.082c-0.076-0.499-0.495-0.24-0.861-0.337c-0.164-0.074-0.18-0.179-0.344-0.098
			c-0.669,0.597-1.073-0.546-1.575-0.75c-0.34,0.112-0.725,0.195-0.837-0.233c-0.23-0.124-0.647-0.041-0.705-0.379
			c-0.696-1.333-1.768,0.771-2.621-0.196c-0.354,1.546-2.105,0.309-3.057,0.172c-0.387-0.002-0.505,0.471-0.91,0.506
			c-0.374,0.033-0.525-0.142-0.889,0.059c-0.337,0.185-0.414,0.176-0.739-0.038c-0.48-0.453-1.035-0.228-1.496,0.118
			c-0.334,0.016-0.496-0.337-0.669-0.541c-0.698-0.043-1.341-0.22-2.034-0.4c-0.47-0.914-1.248-0.176-2.022-0.291
			c-0.68-0.535-1.842,0.183-2.27-0.68c-0.575-0.201-1.273,0.532-1.804-0.063c-0.437,0.423-1.143,0.269-1.637,0.691
			c-0.546,0.337-0.731-0.158-1.242-0.13c-0.445,0.025-0.988,0.157-1.358-0.184c-0.251-0.682-1.135-0.4-1.174-1.162
			c-2.175-0.754-1.116,0.712-2.048,0.452c-1.101-1.377-0.78-0.67-2.04-0.527c-0.29,0.337-0.374-0.224-0.777,0.005
			c-0.515-0.14-0.277-0.437-0.63,0.084c-0.398,0.683-1.444-0.018-1.418,1.04c-0.445,0.507-1.001,0.375-1.573,0.3
			c-0.786,0.195-1.517,0.094-2.269-0.215c-0.601-0.037-0.499,0.659-0.944,0.823c-0.505,0.083-0.955,0.25-1.477,0.294
			c-1.99,1.011-0.909-1.066-2.004-0.985c-0.545,0.003-1.219,0.24-1.47-0.417c-0.871,0.322-1.839,0.162-2.678,0.552
			c-0.505-0.192-1.109-0.47-1.592-0.699c-0.136-0.674-0.872,0.234-1.268-0.081c-2.172-0.177-0.691,3.748-3.258,3.124
			c-1.114-0.103-2.14-0.68-3.3-0.733c-0.637,0.205-1.254,0.129-1.873-0.151c-0.898-0.264-1.929-0.554-2.829-0.219
			c-0.284-0.009-0.381-0.296-0.584-0.411c-1.376-0.552-2.69-1.32-4.071-1.812c-0.881-0.517-1.582-1.545-2.749-1.206
			c-0.846,0.553-1.158-0.18-1.611-0.767c-0.984-0.383-1.437-1.558-2.215-2.238c-0.527-0.191-1.129-0.279-1.589-0.586
			c-0.14-0.004-0.157,0.265-0.444,0.135c-0.328-0.342-0.803-0.659-1.055-1.024c-0.524-0.299-1.173-0.457-1.541-0.932
			c-0.089-0.491-0.41-0.527-0.811-0.399c-0.301-0.034-0.633-0.323-0.936-0.306c0.122,1.119,0.697,1.678-0.975,1.561
			c-1.899,0.186-1.41,0.843-2.981-0.608c-0.376,1.123-0.959,3.46-2.544,2.152c-1.283,1.399-5.186,1.27-4.936,3.513
			c0.078,0.791-0.651,1.016-0.817,1.669c1.04,2.859-1.326,5.282-1.286,8.178c-0.356,1.488,1.706,2.202,1.393,3.466
			c-0.414,0.453-0.983-0.201-1.364-0.28c-3.232,0.411-1.209-1.618-2.475-2.038c-2.07-0.375-4.077-0.584-6.185-0.562
			c-0.499-0.337-0.853-0.454-1.473-0.388c-0.648-0.267-0.65-1.126-1.251-1.435c-0.149-0.455-0.464-0.673-0.943-0.695
			c-1.086-0.465-2.429-1.542-3.597-0.615c-0.66-0.682-1.443-0.915-2.214-1.439c-0.255-0.294-0.223-0.249-0.629-0.299
			c-0.772-0.08-1.883-0.804-2.443-0.01c-0.549-0.467-1.401,0.723-2.017-0.441c-0.406-0.479-0.73-0.287-1.296-0.376
			c-0.867-0.597-1.92-1.056-2.949-1.386c-0.389,0.01-0.808,0.359-1.158,0.507c-0.571,0.241-1.329-0.144-1.816,0.2
			c-0.689,0.811-1.512,0.914-2.26,0.127c-0.21,0.47-0.428,0.049-0.767,0.238c-0.186,0.104-0.114,0.254-0.359,0.288
			c-0.818-0.168-1.65-0.992-1.756,0.473c-0.085-0.087-0.188-0.147-0.303-0.175c-0.397,0.71-0.936,0.075-1.472-0.059
			c0.456,1.014-0.514,2.025-1.429,2.387c0.036,0.701,0.086,1.476-0.444,2.019c0.006-0.147,0.005-0.295,0.02-0.442
			c-0.953-0.002-1.9,0.027-2.771,0.387c-0.271,1.019,1.183,1.188,1.422,2.112c0.53,1.13-1.314,0.261-1.685,0.098
			c-0.202,0.511-0.299,1.13-0.666,1.55c-0.403,0.208-0.168,0.512,0.136,0.646c-0.459,0.05-0.345,0.378-0.631,0.637
			c-0.375,0.153-0.598,0.341-0.64,0.757c-0.239,0.583,0.05,2.388,0.937,1.613c0.986,1.377,1.183-1.063,2.204-0.44
			c0.323,0.331,0.723,0.436,1.146,0.161c0.312,0.387,0.821,0.875,1.333,0.953c-0.001,0.643,0.261,0.314,0.673,0.266
			c0.14,0.223,0.144,0.542,0.428,0.649c-0.254,0.48-0.473,1.019-0.813,1.468c-0.326,0.343-0.817-0.269-1.169,0.219
			c-0.172-0.071-0.358,0.27-0.527,0.349c-0.44-0.077-0.368,0.111-0.442,0.438c-0.586,0.205-0.955,0.584-1.485,0.955
			c-0.135,0.847-1.662,0.587-2.085,0.096c-0.637,0.005-0.653,0.441-0.808,0.995c-0.155,0.51,0.322,0.739,0.201,1.305
			c-0.236,1.023-0.97,0.673-1.657,0.556c-0.163,0.082-0.11,0.27-0.237,0.41c-1.038-0.832-1.832,1.35-2.581,1.749
			c-0.056,0.139,0.064,0.358-0.069,0.485c-1.247,0.013-1.497,1.216-1.77,2.21c-0.579-0.061-0.833,0.67-1.427,0.756
			c-0.46,0.246-0.467,0.916-1.003,1.065c-0.791,0.082-1.244,1.025-2.027,0.621c-0.726-0.066-0.305,0.845-0.621,1.183
			c-0.397,0.148-0.213,0.386-0.347,0.712c-0.39,0.599,0.96,1.184,1.418,0.841c0.168-0.148,0.297-0.514,0.577-0.54
			c0.299,0.16,0.512,0.533,0.909,0.588c0.334,0.014,0.284,0.227,0.402,0.449c0.495,0.187,0.875,0.286,1.195,0.785
			c0.289,0.212,0.461,0.495,0.609,0.806c0.268,0.344,0.667,0.077,0.993-0.013c0.586,0.027,0.624-0.456,0.67-0.922
			c0.255,0.162,0.334-0.113,0.543-0.163c0.257,0.056,0.511-0.158,0.807-0.082c0.266-0.286,0.703-0.434,1.075-0.264
			c0.161,0.336,0.041,0.732,0.347,1.025c1.854,1.246-0.159,3.577,0.961,5.155c0.608-2.296,1.855-0.273,2.678,0.67
			c0.558,0.51,1.283-0.685,1.777-0.278c0.494,0.226,1.014,1.114,1.576,0.768c0.198-0.238,0.136-0.657,0.525-0.648
			c0.261-0.209,0.466-0.579,0.808-0.243c0.319,0.36,0.367-0.072,0.621,0.104c0.665,0.136,0.233,0.928,0.755,1.163
			c0.153,0.156,0.167,0.247,0.295-0.003c0.142-0.588,0.578-0.993,1.188-0.764c0.317,0.319,0.002,1.049,0.497,1.266
			c0.227-0.348,0.415-0.76,0.788-1.018c-0.204-0.339-0.511-0.721-0.077-1.018c0.356-0.422-0.399-0.741-0.147-1.265
			c0-0.662-0.469-1.138,0.603-1.157c0.299,0.307,0.522,0.238,0.903,0.137c0.669,0.604,1.631-0.772,2.02-1.341
			c0.354-0.289,0.265-0.601,0.152-0.945c0.061-0.169,0.366-0.144,0.406-0.371c0.013-0.406-0.138-1.658-0.76-1.34
			c-0.169,0.055-0.417,0.039-0.333-0.196c0.16-0.447,0.886-0.021,0.975-0.409c-0.438-0.696,1.764-1.549,0.984-0.469
			c0.341,0.024,0.329,0.229,0.16,0.464c0.211,0.701-0.558,0.962-0.778,1.552c-0.278,0.241,0.384,0.979,0.458,0.546
			c0.017-0.629,0.355-0.684,0.629-0.095c0.234-0.238,0.322-0.606,0.548-0.828c0.083,0.628,0.339,1.157,0.836,1.587
			c0.227,0.553,0.284,0.874,0.879,0.395c0.271,0.217,0.154,0.483,0.092,0.75c0.105,0.271,0.372,0.472,0.373,0.777
			c0.003,0.57-0.327,0.823-0.045,1.4c-0.824,0.891-0.263,2.191,1.007,1.983c0.693-0.272,1.174,0.776,1.913,0.567
			c0.542-0.648,2.212-1.623,1.903,0.058c0.006,0.707,0.867,1.524,0.345,2.192c-0.314,0.159-0.255,0.518-0.741,0.389
			c0.091,0.121,0.181,0.237,0.22,0.385c1.251,0.013,2.15-0.883,3.072-1.41c0.463,1.13,1.944,0.122,2.484,1.328
			c0.104,0.201-0.227,0.657,0.159,0.601c0.097-0.07,0.199-0.08,0.306-0.03c0.051,0.093,0.124,0.162,0.218,0.208
			c0.074-0.034,0.148-0.034,0.221,0c0.117,0.514,0.687,0.91,0.649,1.429c-0.028,0.221-0.151,0.444,0.024,0.63
			c1.498,0.852,3.25,0.544,4.788,0.357c0.845,1.027,1.748,1.006,2.765,0.25c0.675,0.121,1.398-0.005,2.08,0.172
			c0.531,2.363-2.624,1.162-3.466,2.483c-0.405,0.325-1.506,0.186-1.371,0.909c-0.095,0.867-1.424-0.033-1.642,0.669
			c0.515,0.698-0.636,1.154-0.148,2.069c-0.134,0.097-0.303-0.178-0.412-0.222c-0.247-0.099-0.293,0.172-0.503,0.153
			c-0.129-0.153-0.128-0.367-0.262-0.519c-1.232,0.393,1.055,3.148-2.121,1.37c-0.551,0.09-0.871-0.302-1.23-0.644
			c-0.678,1.144-1.165-1.937-1.975-0.929c-0.132,0.241-0.436,0.032-0.609,0.147c0.521,0.664,2.369,1.24,0.565,1.767
			c-0.209,0.31,0.217,0.258,0.359,0.275c0.524,0.04,0.397,0.56,0.562,0.94c-0.064,0.556-0.85,0.807-0.392,1.49
			c-0.27,0.497-1.03-0.013-1.193-0.42c-0.231-0.533-0.66-0.229-1.053-0.329c-0.193-0.197-0.463-0.425-0.607-0.637
			c0.04-0.154,0.113-0.383-0.146-0.369c-0.301-0.018-0.639,0.057-0.822-0.24c-0.465-0.098-0.368,0.671-0.753,0.826
			c-0.174,0.115-0.606,0.318-0.775,0.102c-0.188,0.208-0.5,1.204-0.685,1.552c-0.799,0.458-2.735,1.733-0.787,2.118
			c0.976-0.147,0.295,0.819-0.246,0.48c-0.269-0.226-0.429,0.25-0.531,0.438c-0.233,0.518-0.432,0.13-0.669-0.113
			c-0.437-0.304-1.288-0.324-1.643,0.099c0.317,0.322,0.726,0.921-0.015,1.014c-0.709,0.237-1.503,0.617-1.921,1.261
			c-0.074-0.185-0.097-0.448-0.126-0.647c-0.386-0.008-0.749-0.128-0.931-0.492c1.227,0.282,0.253-0.41,0.563-0.851
			c-0.023-0.297-0.446-0.339-0.388-0.688c-0.312-0.01-0.669,0.023-0.953,0.147c0.186,0.455,0.113,0.881-0.127,1.218
			c-0.516-0.194-1.395-0.224-1.74-0.702c-0.008-0.256,0.122-0.569-0.145-0.743c-0.902-0.062-1.59-0.581-2.382-0.852
			c-0.014-0.035-0.015-0.071-0.003-0.108c-0.2-0.189-0.764-0.063-1.004,0.123c-0.495-0.649-0.312-1.152-1.076-0.397
			c-0.251-0.97-2.126-0.22-2.587,0.292c-0.382,0.48-0.864,0.745-1.466,0.575c-0.352,0.22-0.511,0.233-0.876,0.022
			c0.087,0.768,1.018,1.918,0.12,2.661c-0.642,0.436-2.612,0.603-2.474-0.475c-0.239,0.077-0.432,0.271-0.441,0.525
			c0.442,1.953-2.813,0.816-2.493,2.458c0.047,0.531,0.576,1.469-0.279,1.587c-0.217,0.168-0.08,0.636-0.477,0.711
			c-0.56,0.144-1.271-0.5-1.677,0.145c-0.121,0.125-0.234,0.605-0.454,0.383c-0.056-0.79,2.577-1.267,1.059-2.213
			c-0.47-0.949-1.497-0.148-2.268-0.634c-0.223-0.893-0.989,0.073-1.092-0.629c-0.577-1.548-2.468-0.278-3.363-1.44
			c-2.833-3.223-5.129,0.091-8.017,0.893c-0.045,0.156-0.004,0.309-0.039,0.466c-0.525-0.316-0.895-0.754-1.572-0.545
			c-0.275,0.085-0.409,0.399-0.677,0.234c-0.536-0.624-0.596-0.299-0.811,0.273c-0.815,1.078,0.474,3.074-0.23,3.802
			c-0.344-0.007-0.501,0.084-0.761,0.255c-0.152-0.151-0.026-0.394-0.13-0.572c-0.177,0.052-0.271,0.303-0.431,0.316
			c-0.039-0.939,0.028-1.764-1.143-1.753c-0.148-0.126-0.189-0.452-0.444-0.421c0.292,0.872,0.496,1.67-0.17,2.444
			c-0.038-0.052-0.117-0.087-0.155-0.141c-0.305,0.274-0.064,0.739-0.489,0.926c-0.248,0.11-0.552,0.138-0.784,0.277
			c0.26,0.366,0.122,0.818,0.158,1.216c0.444,0.241,0.407,0.71,0.389,1.209c0.097,0.604,1.411,1.01,0.652,1.675
			c-0.049,0.473,0.035,0.952,0.409,1.277c0.115,0.3-0.201,0.611,0.225,0.729c0.206,0.223-0.06,0.71-0.184,0.929
			c-0.146,0.255,0.261,0.934,0.555,0.682c0.706-1.541,0.263-0.464,1.25-0.123c0.247-0.031,0.237-0.341,0.467-0.129
			c0.19,0.315,0.349-0.054,0.555-0.125c0.178,0.077,0.37-0.124,0.502-0.012c0.165-0.036,0.276-0.286,0.4-0.395
			c0.534,0.365,0.264-0.419,0.644-0.455c0.206-0.782,0.759,0.098,1.231,0.029c0.64-0.762,1.19-0.258,2.209,0.064
			c0.236,0.278,0.562,0.308,0.824,0.53c0.177,0.196,0.385,0.568,0.693,0.402c0.407-0.219-0.016-1.048,0.662-0.952
			c0.234,0.108,0.405,0.262,0.681,0.163c0.57,0.074,0.722,1.27,1.285,0.271c0.095-0.448,0.411-0.146,0.68-0.259
			c0.371-0.673,0.947-0.426,1.25,0.12c0.463,0.499,0.725-0.559,1.097-0.264c0.173,0.17,0.273,0.272,0.54,0.244
			c0.01,0.191-0.097,0.347-0.134,0.526c0.707,0.448,1.673,0.459,1.694-0.57c0.382-0.045,0.516-0.472,0.766-0.726
			c0.405,0.519,0.962,0.729,1.056-0.152c0.171,0.033,0.328,0.305,0.461,0.424c0.196-0.408,0.419-0.474,0.854-0.449
			c0.201-0.081,0.121-0.394,0.344-0.42c0.326,0.058,0.398,0.56,0.729,0.622c0.417,0.297,0.822,0.098,1.257,0.263
			c0.518,0.36,0.627,0.937,0.84,1.458c0.793,0.373,1.528,1.056,0.991,1.925c0.065,0.225,0.278,0.934,0.598,0.725
			c0.337,0.102,0.724,0.389,1.126,0.215c0.47-0.626,0.49-0.642,1.069-0.063c0.332-0.18,0.388-0.509,0.396-0.836
			c0.096-0.37,0.431,0.025,0.594,0.154c0.331,0.422,0.775,0.153,1.146,0.332c0.953-0.081,0.766-1.324,0.811-1.993
			c0.072-0.105,0.021-0.017,0.115-0.07c0.235,0.062,0.232-0.189,0.248-0.366c1.055,0.118,2.092,0.388,2.831-0.54
			c0.175,0.205,0.356,0.404,0.525,0.614c0.497-0.239,0.703-0.761,0.705-1.281c0.462-0.078,1.05,0.09,1.451-0.157
			c0.053-0.797,0.427-0.414,1.069-0.625c-0.401-0.747,0.387-0.304,0.65,0.013c1.475,0.478,0.342,1.37,0.369,2.303
			c0.146,0.658,0.309,0.97,0.898,1.244c0.252-0.331,0.513-0.407,0.69,0.002c0.83,0.091,1.652-0.495,2.542-0.226
			c1.577,2.805-1.812,1.39,0.382,4.207c0.259,0.004,0.655-0.702,0.898-0.27c0.617,0.102,1.24-0.207,1.349-0.801
			c0.295-0.044,0.322-0.311,0.554-0.458c0.25-0.158,0.397-0.317,0.742-0.291c0.437-0.464,1.172-0.505,1.191,0.305
			c0.039,1.195,0.265,1.73,1.567,1.542c0.39,0.143,0.16,0.748,0.685,0.779c0.27,0.294-0.065,1.116,0.511,1.149
			c0.321-0.065,0.059-0.487,0.249-0.647c0.938-0.378,0.757-1.52,1.127-2.293c0.366-0.031,0.411-0.591,0.85-0.41
			c0.567-0.161,1.295-0.273,1.874-0.321c0.174-0.671,0.504-0.752,1.195-0.697c0.384-0.082,0.211,0.491,0.489,0.594
			c0.419-0.014,0.628-0.434,0.721-0.78c0.307-0.48,0.95,0.143,1.365-0.187c0.429,0.434,0.997,0.555,1.578,0.646
			c0.066,0.751,0.529,0.526,0.881,0.075c0.865,1.161,1.539-1.055,2.005,0.12c0.195,0.469,0.792-0.219,1.149-0.11
			c0.658,0.502,1.108-0.407,1.759-0.245c0.582,0.467,1.171,0.615,1.843,0.302c0.493,0.143,0.431-0.582,0.905-0.58
			c0.476,0.008,0.859-0.048,1.299-0.175c0.586-0.347-0.218-0.764,0.571-1.074c0.219-0.579,0.95-0.051,1.22-0.59
			c0.359-0.023,0.677-0.01,1.021-0.129c0.36-0.026,0.651,0.435,0.994,0.316c0.162-0.101,0.334-0.126,0.522-0.085
			c0.351,0.002,0.598-0.424,0.981-0.215c1.113,0.608,2.59,0.079,3.708-0.267c0.209-0.192-0.008-0.414,0.032-0.669
			c0.048-0.311,0.461-0.356,0.15-0.687c0.478-0.305,0.487-0.454,0.58-0.994c0.71-0.189,0.543-0.739,0.413-1.323
			c0.193-0.465-0.424-1.494-0.464-2.08c-0.318-0.146-0.711-0.044-0.903-0.439c-0.799,0.355-0.469-1.322-0.291-1.627
			c0.156-0.315,0.58-0.251,0.61-0.588c0.178-0.203,0.335-0.008,0.49-0.366c0.307-0.462,0.075-0.731,0.076-1.164
			c0.248-0.882,2.003-1.754,0.447-2.311c0.185-0.195,0.835-0.776,1.046-0.399c0.061-0.194,0.014-0.615,0.327-0.563
			c-0.041-0.723,0.591-0.727,0.904-0.143c0.282-0.219,0.54-0.132,0.756-0.439c0.116-0.205,0.277-0.438,0.513-0.246
			c0.308-0.207,0.65-0.489,1.085-0.465c0.408,0.175,0.515,0.14,0.827-0.16c0.361,0.571,0.359,0.949,1.002,0.516
			c0.207,0.103,0.346,0.31,0.591,0.368c0.507,0.046,0.754-0.565,1.1-0.85c0.213-0.352,0.708-0.374,0.912-0.729
			c0.487-0.995,1.658-1.314,2.073-2.434c1.222-1.185,1.398,1.526,2.107-1.635c0.078-0.172,0.27-0.04,0.397-0.025
			c0.242,0.001,0.377-0.257,0.611-0.097c0.651-0.24,1.266,0.176,1.802,0.573c0.163-0.413,0.856-0.017,0.922-0.54
			c-0.465-0.377-1.013-0.718-1.288-1.336c-0.25-0.409-0.869-0.559-0.913-1.085c0.839,0.116,0.063-1.397,0.87-1.51
			c0.462,0.145,0.978,0.479,1.418,0.702c0.247,0.703,1.112,1.105,1.686,0.535c0.242,0.553,0.901,0.301,1.259,0.666
			c0.419-0.275,0.756-0.778,1.268-0.337c0.469,0.136,1.226,0.341,1.349-0.281c0.173-0.046,0.238-0.2,0.313-0.334
			c0.245-0.211,0.508,0.06,0.673-0.317c0.04-0.363,0.385-0.492,0.552-0.803c1.768-0.544,2.678-2.776,4.662-3.027
			c0.012,0.1-0.055,0.201-0.096,0.289c0.934,0.236,0.372,1.542,0.567,2.285c0.31,0.411,0.179,1.646,0.999,1.082
			c0.131,0.286,0.213,0.53,0.536,0.625c-0.006,0.773-0.887,1.371-0.884,2.212c0.007,0.306,0.353,1.207,0.503,1.48
			c-0.152,1.194,0.206,0.737,0.728,0.148c0.477,0.526,1.089-0.334,1.537-0.476c0.244,0.547,1.149,0.04,1.398,0.674
			c0.537,0.373,0.382-0.515,0.366-0.8c0-0.431,0.546-0.531,0.621-0.893c0.018-0.158-0.069-0.147,0.132-0.274
			c0.481-0.307,0.389,0.21,0.621,0.507c0.637,0.689,0.79-0.756,1.503-0.399c0.909,0.378,1.848,0.003,2.395-0.762
			c0.468-0.28,1.033-1.167,0.834,0.071c0.158,0.067,0.335,0.035,0.501,0.025c0.455,0.454-0.058,1.179,0.56,1.515
			c0.13-0.288,0.118-0.64,0.35-0.912c0.313-0.524,0.258,0.138,0.543,0.112c0.226-0.208,0.506-0.293,0.804-0.372
			c0.217-0.332,0.503-0.598,0.837-0.8c0.332,0.037,0.341-0.242,0.449-0.485c0.568-0.294,0.416-0.945,0.407-1.478
			c0.122-0.683,0.659-1.169,1.08-1.666c0.039-0.556,0.461-0.603,0.87-0.745c0.056-0.572,0.336-1.702,0.266-1.994
			c-0.404-0.447-0.559-1.731,0.262-1.589c0.427-0.189,0.254-0.827,0.708-0.905c0.076-0.279-0.023-0.368,0.171-0.619
			c-0.057-0.395-0.087-0.689,0.165-1.024c0.041-0.327-0.151-0.656,0.082-0.905c0.064-0.383,0.135-0.655,0.593-0.608
			c0.288-0.083,0.36-0.52,0.604-0.551c0.171-0.022,0.438,0.209,0.583,0.015c-0.036-0.623,0.3-1.142,1.019-0.95
			c0.78,0.003,1.213-1.733,1.972-0.925c1.943-0.414,1.131,0.633,2.733,1.053c0.389-0.702,0.965-0.38,1.482-0.074
			c0.017,0.053,0.023,0.109,0.018,0.166c0.239,0.142,0.786,0.257,0.886-0.093c0.283-0.225,0.608-0.636,1.014-0.578
			c0.063,0.081,0.141,0.142,0.234,0.183c0.282-0.176,0.395-0.239,0.612,0.059c0.534,0.128,0.776-0.087,0.872,0.569
			c0.573,0.104,1.267-0.195,1.712,0.196c0.36-0.032,0.723-0.342,1.099-0.351c0.182-0.069,0.379-0.123,0.479,0.074
			c0.353,0.158,0.999-0.22,1.191-0.54c0.49,0.292,0.825,0.475,1.03-0.189c0.179-0.345,0.937-0.192,0.507-0.723
			c-1.045-1.56,1.383-3.116,2.77-2.704c0.782-0.099,1.376-0.807,2.175-0.881c0.93-0.186,0.362-1.458,0.569-2.106
			c0.107-0.421,0.445-0.557,0.197-0.984c-0.179-0.637,0.95-0.842,1.378-1.025c0.572,0.309,1.218,0.091,1.728,0.483
			c0.118-0.445,0.613-0.098,0.883-0.249c0.234-0.136,0.176-0.424,0.461-0.496c0.767,0.001,1.514-0.359,2.19-0.692
			c0.151-0.323,0.345-0.755,0.742-0.891c0.208,0.587,0.73,0.042,1.169,0.293c0.356-0.009,0.176-0.718,0.621-0.825
			c0.217-0.106,0.579-0.287,0.268-0.513c-0.027-0.41,0.31-0.662,0.666-0.558c0.431-0.178,0.829-0.396,1.295-0.191
			c0.212-0.178,0.372-0.376,0.67-0.429c0.19-0.12,0.122-0.296,0.387-0.331c0.326-0.043,0.149,0.002,0.319-0.289
			c0.141-0.242,0.483-0.18,0.615-0.408c0.006-0.266,0.104-0.416,0.393-0.432c0.283-0.103,0.511-0.522,0.804-0.517
			c0.228,0.328,0.619,0.024,0.714-0.249c0.26-0.341,0.756-0.246,1.096-0.458c0.25-0.156,0.337-0.644,0.648-0.666
			c0.349,0.11,0.492-0.236,0.848-0.094c0.254,0.088,0.564,0.101,0.695-0.176c0.227-0.14,0.405-0.205,0.507-0.478
			c0.381-0.116,0.35-0.518,0.713-0.688c0.318-0.403,0.601-0.729,1.019-0.212c0.561-0.656,1.114-1.151,1.948-1.363
			c0.643,0.328,1.402,0.527,2.164,0.253c0.228-0.19,0.462-0.395,0.548-0.694c0.297-0.827,1.311-0.496,1.975-0.728
			c0.734,0.287,1.102-0.005,1.23-0.79c0.184-0.223,0.309-0.395,0.332-0.688c0.357-0.366,0.538-0.561,0.481-1.087
			C188.488,79.966,194.613,82.519,193.795,80.313z M29.588,131.481c-0.474,0.187-0.644,0.819-1.258,0.669
			c0.238,0.486-0.444,1.325-0.62,0.584c-0.276-0.145-0.283-0.263-0.164-0.505c-0.204-0.839-2.101-0.706-1.332-1.742
			c0.619,0.338,1.225,0.449,1.936,0.329c0.527,0.026,1.19,0.337,1.678,0.136C29.848,131.086,29.692,131.398,29.588,131.481z
			 M34.897,122.173c0.048-0.019,0.065-0.059,0.095-0.092c-0.007,0.264,0.049,0.543-0.026,0.797
			c-0.098-0.145-0.267-0.245-0.333-0.406C34.722,122.379,34.838,122.287,34.897,122.173z M37.983,129.778
			c-0.007,0.435-0.369,0.138-0.469,0.609c-0.332,0.162-1.084,0.438-1.01-0.222c-0.118-0.77-0.658,0.035-0.641,0.411
			c-0.202-0.24-0.397-0.353-0.715-0.351c0.03-0.221,0.29-0.162,0.407-0.266c0.045-0.187-0.056-0.413,0.05-0.59
			c0.143-0.261,0.832-0.235,0.703-0.676c-0.203-0.031-0.473-0.248-0.419-0.49c0.062-0.274,0.327,0.085,0.368-0.139
			c0.016-0.091-0.006-0.516-0.099-0.574c-2.69,0.308-1.257-2.024-1.887-3.569c1.792-0.283,1.537,2.419,1.988,3.672
			c0.146,0.191,0.25-0.094,0.404-0.152c0.417,0.002,0.742-0.144,1.129-0.273c-0.118,0.691-0.379,0.852-1.017,0.879
			c0.635,0.335-0.043,0.587,0.022,0.925C37.195,129.065,38.178,129.252,37.983,129.778z M48.995,128.651
			c-0.003,0.776-0.77,0.549-1.097,0.085c-0.196,0.223-0.336,0.579-0.645,0.666c-0.029-0.103-0.033-0.33-0.014-0.425
			c-0.196-0.025-0.409,0.031-0.609,0.024c-0.016-0.527,0.465-0.415,0.815-0.467c0.307-0.14,0.572-0.646,0.324-0.925
			c0.653,0.114,0.603,0.865,1.327,0.703C49.07,128.427,49.036,128.54,48.995,128.651z"/>
	</g>
</g>
<g id="Icon">
</g>
</svg>
