<?xml version="1.0" encoding="utf-8"?>
<!-- Generator: Adobe Illustrator 26.0.3, SVG Export Plug-In . SVG Version: 6.00 Build 0)  -->
<svg version="1.1" id="Layer_1" xmlns="http://www.w3.org/2000/svg" xmlns:xlink="http://www.w3.org/1999/xlink" x="0px" y="0px"
	 viewBox="0 0 200 200" enable-background="new 0 0 200 200" xml:space="preserve">
<g id="Layer_1_00000033347070029610803930000007927865551573535884_">
	<g id="Layer_1_00000128480095285341338950000008464522443776971395_">
	</g>
</g>
<g id="Isolation_Mode">
	<g>
		<path fill="#1E8346" d="M193.551,97.461c0.8-0.779-0.373-1.144-0.482-1.885c0.551-1.937-0.026-4.136-1.691-5.39
			c-0.329-0.468-0.681-1.05-0.412-1.608c0.414-0.685-0.579-1.218-0.421-1.939c0.628-0.704,0.791-1.008,0.188-1.881l4.922-12.966
			l-0.496-5.951l-1.578-3.652c-0.08-0.564,0.05-1.236-0.308-1.764c-0.435-2.311-2.177-3.421-3.901-4.649
			c-0.005-0.431,0.267-0.955,0.231-1.419c0.228-0.238,0.388-0.474,0.046-0.697c-0.698-0.662,0.643-1.33,0.388-2.024
			c-0.519-0.398-0.791-0.793-0.604-1.485c0.675-2.759-4.006-0.265-3.447-2.95c1.847-2.875-1.89-1.718-0.41-3.76
			c0.357-0.34,0.473-0.721,0.465-1.185c0.577-0.728,1.514-1.773,1.47-2.748c-0.214-0.418,0.153-0.65,0.178-1.063
			c0.095-0.718-0.378-1.429-0.523-2.059c0.305-0.954,0.791-1.644,1.657-2.129c0.237-0.373,0.019-0.878,0.429-1.171
			c1.089,0.993,1.402-0.04,1.482-1.083c0.258-0.679,0.644-1.643,0.403-2.325c0.639-0.752,1.305-1.458,0.761-2.485
			c-0.143-0.27-0.393-0.399-0.176-0.686c1.514-1.018,1.272-0.886,1.242-2.612c-0.454-0.576,0.175-0.55,0.033-1.043
			c-0.626-0.018-1.228,0.124-1.081,0.901c-0.078,0.55-0.551,0.649-0.862,1.032c-0.826,0.698-1.538,0.958-1.773,2.219
			c0.106,0.455,0.013,0.827-0.214,1.205c-0.012,0.134,0.243,0.329,0.148,0.481c-0.682,0.447-2.004-0.345-2.754-0.488
			c-0.373-1.406-2.549-2.606-3.231-0.761c-0.061,0.336,0.203,0.727-0.324,0.917c-1.153-0.064,0.072,2.384-1.402,2.344
			c-0.871-0.378-1.249-0.323-1.225,0.708c-0.167,0.765-0.966,0.875-1.251,1.611c-0.266-0.234-0.399-0.018-0.611,0.025
			c-0.291,0.06-0.321-0.099-0.561,0.152c-0.298,0.804-1.791,0.779-1.982-0.084c0.163-0.646-0.775-1.424-1.295-1.027
			c0.082,0.645,0.368,0.896-0.445,1.236c-1.052,0.305-0.421,2.2-1.63,1.931c-0.649-0.14-0.266,0.641-0.118,0.922
			c-0.004,0.078-0.356,0.552-0.429,0.589c-0.863,0.301-2.599-1.721-2.642,0.065c-0.536-0.063-1.28-0.464-1.376,0.424
			c-0.431,0.912-0.73-0.281-1.116-0.459c-0.485-0.089-0.736-0.363-0.844-0.839c-0.664-0.229-1.001-1.048-1.195-1.679
			c-0.791-0.166-0.527-1.349-1.202-1.774c-0.518-0.41-0.533,0.295-0.983,0.322c-0.619-0.244-1.429-0.332-1.753-0.989
			c-0.27-0.146-0.605,0.241-0.815,0.119c-0.226-0.76-0.982-1.015-0.779-1.971c-0.204-0.007-0.545,0.039-0.51-0.273
			c-0.387-0.01-0.904,0.099-1.239,0.029c0.603-0.709-0.405-3.235-1.272-3.217c-0.748,0.087-2.623,1.218-2.12,2.067
			c0.242,0.314,0.256,0.362,0.146,0.76c-0.596-0.324-1.933-0.616-1.321,0.475c0.112,0.896-0.679,2.026-1.66,1.807
			c-1.254-0.185-2.273,1.403-3.256-0.05c-0.282-0.642-0.692-0.704-1.309-0.83c-0.338-0.23-0.644-0.308-0.716,0.278
			c0.662,1.259-0.297,2.246-0.343,3.517c0.024,0.046,0.023,0.089-0.005,0.13c-1.671-0.287-1.566,1.727-3.049,0.121
			c-0.227,0.129-0.465,0.238-0.68,0.387c-0.671-1.098-1.724-0.453-1.724,0.676c-0.875-1.161-1.088,0.719-2.298-0.75
			c-0.986-0.773-0.622,1.094-0.479,1.534c1.154,0.348,1.057,1.473,1.011,2.489c-0.115,1.945,2.116,1.415,2.923,2.582
			c0.225,2.05,0.798,3.278,2.548,4.472c-0.177,0.763-0.557,1.305-1.349,1.435c-0.381,0.556-0.973,0.922-1.497,1.292
			c-0.508,0.745,0.086,2.012-0.311,2.769c-1.085,0.093-2.324-0.693-3.45-0.59c-1.383-0.012-2.906,0.302-3.993-0.744
			c-1.471-1.628-4.413-2.515-3.772-5.102c-0.65-0.123-1.664-0.15-1.954-0.843c-0.356,0.8-1.335,1.145-1.335-0.027
			c-0.367-0.094-0.735-0.19-1.108-0.251c-0.559,1.235-1.074,0.503-1.075-0.574c-0.698,0.55-0.594-0.651-1.188-0.584
			c-0.342,0.959-1.049-0.269-1.494-0.552c-1.313,0.617-2.733,2.216-4.167,2.008c-0.47-0.18-0.651-0.223-1.075,0.042
			c-1.126,0.715-1.913-0.339-2.542-1.144c-0.593-0.231-0.553-0.55-0.62-1.064c-2.487,0.453-1.842-3.644-4.031-4.042v-2.256
			c-0.242-0.6-1.402-0.68-1.301,0.191c0.469,0.896-0.665,1.586-0.873,2.431c0.025,1.845-2.934,2.467-4.077,1.195
			c-0.577-0.75-0.495-1.987-1.238-2.646c-0.865-0.891,0.665-2.374-0.958-3.122c-0.365-0.154-0.454,0.13-0.744,0.177
			c-0.358,0.058-0.605-0.469-0.845-0.628c-0.867-0.015-1.388-0.474-2.117-0.547c-0.296,0.221-0.549,0.558-0.983,0.42
			c-0.018-0.149-0.056-0.301-0.116-0.442c-0.533,0.07-0.967-0.21-1.144-0.726c-1.02-0.091-1.435,1.634-2.329,0.99
			c-0.456,0.199-0.503,0.053-0.556-0.397c-1.016-1.18-1.786,2.678-2.602-0.311c-0.782,0.838-1.951,1.122-2.492,2.106
			c-1.508,2.053-2.875-1.482-4.315,0.985c-0.289-0.633-0.741-0.565-1.339-0.494c-0.648-0.02-0.934-0.597-1.596-0.567
			c-0.68,0.304-1.381,0.735-1.977-0.002c-0.647-0.753-1.496-1.561-2.415-0.801c-0.924,2.372-1.811,0.042-3.04,0.704
			c-0.228,0.441-0.665,0.8-1.204,0.534c-0.221-0.141-0.112-0.532-0.371-0.643c-0.525-0.224-0.737,0.401-0.928,0.689
			c-1.065,0.72-2.782,0.538-4.089,0.479c-1.085-0.2-2.033,0.979-3.041,0.279c-0.214-0.282-0.465,0.026-0.74-0.008
			c-0.221-0.159-0.536-0.387-0.678-0.597c0.108-0.549-0.589-0.606-0.907-0.332c-0.824,0.746-1.737,0.107-2.56-0.267
			c-0.395-0.037-0.897,0.115-1.053-0.355c-2.245,0.657,0.004-2.432-1.941-1.984c-0.345-0.063-0.416-0.099-0.831,0.061
			c-0.973,0.373-0.091,0.569-0.51,1.02c-1.223,0.668-1.739-1.517-3.362-0.456c-0.515-0.041-0.747,0.493-1.171,0.615
			c-0.721-0.025-1.085,0.526-1.545,0.961c-0.542,0.726-1.062-0.031-1.442-0.408c-0.562-0.099-0.641,0.772-0.888,0.985
			c-0.23,0.199-0.74,0.076-0.947,0.265c-1.55,0.117-4.033-0.33-5.354,0.586c-0.668,0.557-0.999,0.361-1.769,0.207
			c-0.621-0.124-0.802,0.578-1.399,0.531c-0.276-0.021-0.116-0.256-0.438-0.019c-0.517,1.217-0.662-0.053-1.541,0.675
			c-0.882,0.634-1.521,0.772-1.896,1.987c-0.539,0.707-1.264,0.687-1.832,1.343c-0.62-0.046-1.029,0.588-1.596,0.419
			c-0.496,0.865,0.505,1.723-0.508,2.34c-0.078,1.35-1.417,2.341-0.776,3.768c0.243,1.2-1.085,0.683-1.644,1.144
			c-0.908,1.096-2.278,1.944-2.886,3.255c-0.157,1.376-0.379,2.646-1.541,3.553c-0.211,0.233-0.481,0.455-0.439,0.796
			c0.038,0.313,0.395,0.417,0.242,0.712c-0.248,0.479-1.073,0.042-1.33,0.428c-0.213,0.321,0.148,0.472-0.334,0.636
			c-1.053,0.027-1.711,0.962-2.707,1.305c-3.187,2.063-2.329,2.15,0.296,3.85c-2.193-0.128-1.821,2.186-4.346,1.367
			c-0.659-0.248-1.362,0.798-2.114,0.397c-0.28-0.147-0.439-0.23-0.766-0.138c-0.494,0.22-0.91-0.199-1.374,0.106
			c-1.965-0.155-1.96,0.881-0.635,2.006c0.343,0.516-0.18,1.042-0.167,1.565c0.214,1.177,0.389,2.425-0.188,3.537
			c-0.365,0.665,0.088,1.148,0.299,1.759c0.19,0.628-0.575,1.274-0.065,1.815c1.464,2.289,1.603,5.609,3.947,7.332
			c0.432,0.699,0.573,1.654,1.287,2.151c1.556,0.105,0.202,0.772-0.423,1.096c0.522,0.622,0.125,0.742,0.036,1.282
			c-0.093,0.564,0.202,0.85,0.406,1.326c0.352,0.803-0.114,1.658,0.049,2.471c0.339,0.75,1.267,2.007,0.891,2.873
			c-1.07,0.604-1.706,1.679-0.804,2.785c-0.059,0.862,0.539,1.324,1.363,1.417c1.254-0.312,1.814,0.42,2.512,1.275
			c0.401,0.205,1.042,0.083,1.054,0.707c0.014,0.38,0.26,0.525,0.568,0.636c0.927,0.831,0.937,2.503,2.376,2.713
			c0.191,0.468,0.299,1.238,0.709,1.571c0.907,0.224,1.946,1.602,1.244,2.469c-2.41,0.077-1.864,2.499-2.352,4.159
			c0.29,1.796-1.109,3.624,0.006,5.237c0.586,0.965,1.853,1.958,2.089,3.068c0.252,1.181-0.043,2.094,0.628,3.21
			c1.43,2.44,1.535,5.374,3.865,7.315c0.678,1.559-0.108,3.547,0.694,5.029c0.689,0.481,0.267,1.348,0.753,1.853
			c0.229,0.191,0.571,0.348,0.476,0.692c-0.167,1.825,1.742,0.617,2.671,0.481c0.038-0.245,0.159-0.697,0.367-0.859
			c0.47,0.549-0.065,1.429,0.433,1.877c0.324,0.105,0.342,0.327,0.466,0.588c0.179,0.209,0.572,0.367,0.542,0.708
			c0.247,0.416,0.189,0.673,0.601,1.127c0.134,0.634-0.566,0.59-0.751,1.007c0.79,0.711,0.027,1.869,0.964,2.53
			c0.234,0.422-0.075,0.674,0.543,0.457c0.528-0.186,0.791,0.147,0.995,0.675c0.157,0.408-0.038,0.357-0.429,0.451
			c-0.723,0.102-1.16,0.644-1.748,1.001c-0.454,0.28-0.241,0.791-0.626,1.152c0.131,0.648-0.246,0.736-0.628,1.061
			c0.062,0.847,0.897-0.194,1.176,0.359c0.841,1.81,2.048,3.915,0.686,5.69c0.484,1.666,0.672,3.746-0.282,5.328
			c-2.227,1.45,1.325,0.051,1.301,1.584c0.468,0.285,0.612-0.105,1.027-0.002c0.28,0.07,0.928,0.678,0.773-0.159
			c1.415-0.051,1.852-2.178,3.324-1.867c1.269,0.272,2.686,0.69,2.757,2.171c0.493-0.193,0.941-0.473,1.482-0.463
			c0.317-0.301,0.618-0.578,1.042-0.579c0.483-0.733-0.452-1.406-0.442-2.167c-0.116-1.649,1.552-2.71,1.556-4.236
			c0.091-0.275,0.831-1.331-0.108-1.182c1.492-3.543,4.222-3.219,5.201,0.458c1.144,0.001,2.43,0.227,2.175,1.636
			c0.543,0.929,0.038,2.128,0.983,3.041c3.279,5.262-0.562,3.825-0.434,7.992c-0.485,0.031-0.968,0.001-1.448,0.172
			c-0.328-0.118-0.685-0.188-1.025,0.011c-0.121-0.187-0.292-0.113-0.469-0.016c-1.456,0.543-1.855,2.45-2.876,3.408
			c-0.826,0.686,0.004,1.245,0.718,1.326c0.907,0.402,0.96,1.678,1.588,2.288c0.472-0.318,0.889-0.856,1.243-0.126
			c0.101-0.101,0.204-0.218,0.336-0.284c0.231,0.592-0.389,1.241-0.06,1.863c0.368,0.849,1.807,0.569,2.235-0.02
			c0.849-0.443,2.841,0.769,1.837-1.095c0.685,0.004,1.366,0.106,1.997,0.351c1.063,0.522,2.534-2.75,2.943-3.579
			c-0.389-0.692-0.619-1.491,0.104-2.085c0.023,0.348-0.088,0.678-0.081,1.017c1.428-0.189,1.393,1.399,2.224,2.152
			c1.984,0.898,4.557,2.236,6.806,1.494c0.924-0.586,1.683-0.21,2.282,0.476c0.229-0.09,0.33-0.413,0.543-0.534
			c0.37-0.019,0.914-0.069,0.495-0.594c1.899-0.243,2.682,1.507,2.892,3.006c0.816,0.21,2.048-0.36,2.714,0.477
			c0.741,0.968,1.939,0.921,2.642,1.899c0.83-0.361,1.675-0.413,2.019,0.613c0.55-0.168,0.269-0.642,0.574-1.043
			c0.352-0.541,1.04-0.609,1.522-0.911c-0.002-2.237,0.927-0.669,1.206-2.168c0.093-0.936,1.786,0.044,2.226-0.687
			c1.086-0.45,2.263,0.206,3.217,0.669c1.359,0.113,2.764,0.02,4.135-0.013c2.102-0.584,2.426-3.692,4.385-4.78
			c1.159-1.206,3.331-1.336,4.278-2.685c0.23-1.467-1.762-1.538-1.433-3.435c-0.076-0.99-1.493-2.163-0.645-3.035
			c0.282-0.486,0.331-1.163,0.97-1.352c0.386-0.114,0.272,0.012,0.551-0.268c0.233-0.235,0.19-0.388,0.605-0.405
			c0.969-0.039,0.156,0.573,0.371,1.055c0.878,0.718,2.44,0.135,3.37,0.828c1.336,0.892,3,0.516,4.317,1.569
			c0.501,0.185,0.419,0.115,0.701-0.329c0.275-0.433,0.716-0.31,0.999-0.674c0.333-0.427,0.013-0.835,0.6-1.143
			c0.975-0.246,0.887-1.182,1.417-1.848c0.396,0.211,0.734,0.919,1.127,0.457c0.703-0.24,0.791,0.45,1.404,0.491
			c0.478,0.032,0.883-0.143,1.34-0.271c1.527-0.393,3.07-0.787,4.603-1.136c1.265-0.875,2.382-1.759,4.045-1.612
			c0.494,1.829,1.606,3.485,2.925,4.754c0.047,0.464-0.632,0.809-0.469,1.376c0.954,0.4,1.991,0.9,3.086,0.853
			c-0.395-1.907,1.402-0.742,0.45-2.826c2.99,3.028,3.258,4.214,7.984,3.798c0.236,0.226,0.419,0.732,0.763,0.788
			c0.66-2.997-2.501-3.16-1.438-5.316c-0.037-0.303-0.288-0.549-0.348-0.853c-0.198-0.723,0.384-1.092,0.894-0.519
			c0.407,0.111,0.408-0.53,0.835-0.259c1.677,0.548-0.823-4.065-1.411-4.505c-0.875,0.396-1.597,1.806-2.071,0.25
			c-0.943-0.291-1.607-1.11-2.476-1.598c-0.355-0.513-0.157-1.34-0.515-1.829c-1.487,0.033-2.615-0.621-3.459-1.758
			c-0.214-0.311,0.161-1.227-0.13-1.439c-1.305-0.364-1.507-0.92-0.938-2.158c0.193-0.477,0.252-0.971-0.25-1.206
			c0.147-0.616-0.046-1.354,0.507-1.801c1.363-1.215-0.467-0.802-0.325-1.788c0.109-1.163,0.379-2.745-0.776-3.563
			c-1.259,0.658-1.974-0.789-1.701-1.852c0.973,0.441,1.435-1.986,2.568-2.169c0.895,0.328,1.821,1.737,2.806,1.081
			c0.42-0.284,0.926-0.566,0.59-1.102c-0.063-0.517,1.22-0.716,1.322-1.365c-0.025-3.464,2.23-2.062,4.066-0.992
			c0.947,0.676,1.821-0.955,2.522-0.067c0.34,0.502,0.627,0.528,1.253,0.577c0.992-0.046,1.497,0.745,2.043,1.444
			c0.299,1.239,1.875,0.013,2.706-0.107c0.679-0.264,1.171-0.092,1.687,0.4c1.149,0.856,1.858-0.067,0.912-1.16
			c-1.881-2.445,0.894-2.887,0.128-5.181c0.234-0.852,1.635,0.001,0.553-1.346c-0.358-0.589-0.947-1.301-1.022-1.997
			c0.043-0.308,0.207-0.091,0.358-0.317c0.156-0.233-0.079-0.541-0.06-0.783c0.289-1.396,1.247,0.263,1.923,0.181
			c0.47-0.243,0.893-0.492,1.479-0.356c0.635,0.973,2.479,0.252,3.508,0.479c0.021,0.106,0.079,0.169,0.156,0.239
			c0.055-0.109,0.061-0.242,0.117-0.361c0.628,0.584,0.787,0.209,0.548-0.478c0.36-0.055,0.51,0.209,0.744,0.417
			c0.563,0.435,1.751,0.132,2.101-0.449c0.386-0.344,0.669-0.653,0.574-1.186c0.294-0.822,1.129-1.802,1.843-2.296
			c0.838-0.513,1.448,0.257,2.202,0.311c1.78,0.178,3.473,0.54,4.88-0.978c0.245-0.833,1.258-0.954,1.795-1.363
			c0.463-0.523,0.124-1.242,1.093-1.286c0.051-0.185-0.02-0.382-0.127-0.541c0.147-0.177,0.25-0.072,0.416-0.09
			c0.768,0.085,0.664-1.196,1.378-1.398c1.025-0.15,0.552-1.667,1.554-1.997c1.077-0.735,2.456-0.544,3.351-1.6
			c0.227-0.073,0.355,0.104,0.479,0.12c0.634,0.127,0.858-0.649,1.457-0.308c0.3,0.098,0.28,0.2,0.661,0.093
			c1.722-0.739,1.805,2.325,2.846,3.042c0.829,0.504,0.798-0.949,1.083-1.397c0.407-0.295,0.731-0.439,0.922-0.952
			c0.771-0.506,2.06-0.765,2.67-1.533c0.324-0.441,0.33-1.359,0.235-1.847c-0.053-1.206,1.058-2.217,1.02-3.465
			c-0.421-0.697-0.61-1.238,0.048-1.877c0.361-0.716,0.15-1.736,0.15-2.524C193.725,98.86,193.354,98.082,193.551,97.461z"/>
		<path fill="#1E8346" d="M50.738,176.404c-0.105,0.334,0.038,1.194,0.537,1.005C51.752,176.987,51.461,176.387,50.738,176.404z"/>
		<path fill="#1E8346" d="M58.375,176.728c-0.241-0.513-0.921-0.763-1.46-0.751c-0.423,0.312,0.155,1.41-0.7,1.465
			c0.329,0.471,0.933,1.203,1.588,1.255C58.404,178.253,58.545,177.449,58.375,176.728z"/>
		<path fill="#1E8346" d="M41.908,173.611c-0.41,0.629-1.223-0.438-0.81-0.752c0.917-0.316-0.426-1.014-0.968-0.648
			c-0.698,1.678,0.85,1.213,1.017,2.689C41.383,175.025,42.231,173.77,41.908,173.611z"/>
		<path fill="#1E8346" d="M41.031,169.151c-0.635,0.153-0.827-0.843-1.51-0.621c-0.14,0.036-0.117,0.122-0.242-0.046
			c-0.357-0.648,0.072-1.868-0.946-2.019c-0.378,0.474-0.981,0.319-1.51,0.456c0.001,0.421-0.316,0.702-0.19,1.095
			c0.467,0.21,0.556,0.736,0.935,1.026c1.511,0.326,1.463,0.207,1.687,1.849C39.687,170.091,40.948,170.131,41.031,169.151z"/>
		<path fill="#1E8346" d="M32.239,141.291c-0.041-0.339-0.45-0.496-0.711-0.631c-0.421-0.539-0.289-0.564-0.957-1.39
			c-2.436,0.057,0.244,2.402-0.045,3.607C31.016,142.337,32.161,142.097,32.239,141.291z"/>
		<path fill="#1E8346" d="M31.013,145.131c0.202-1.912-0.953-2.523-2.065-0.898c-0.156,0.581,0.259,1.086,0.384,1.618
			c0.159,1.196-0.527,3.384,1.088,3.771C31.017,148.271,31.908,146.534,31.013,145.131z"/>
	</g>
</g>
</svg>
