<?xml version="1.0" encoding="utf-8"?>
<!-- Generator: Adobe Illustrator 26.0.3, SVG Export Plug-In . SVG Version: 6.00 Build 0)  -->
<svg version="1.1" xmlns="http://www.w3.org/2000/svg" xmlns:xlink="http://www.w3.org/1999/xlink" x="0px" y="0px"
	 viewBox="0 0 200 200" enable-background="new 0 0 200 200" xml:space="preserve">
<g id="Layer_1">
	<g id="Layer_1_00000107551159852787612550000017757744099325915571_">
		<g id="Layer_1_00000128480095285341338950000008464522443776971395_">
		</g>
	</g>
</g>
<g id="Isolation_Mode_00000063621668281934077600000006196874878142535819_">
	<g>
		<path fill="#1E8346" d="M184.058,31.61c-0.156-0.18-0.294-0.38-0.409-0.59c-0.213-0.389-0.197-0.713,0.02-1.074
			c0.311-0.519,0.202-0.614-0.033-1.147c-0.163-0.371-0.478-0.656-0.757-0.952c-0.256-0.272-0.416-0.573-0.803-0.597
			c-0.463-0.03-1.328,0.055-1.224-0.678c0.048-0.34,0.652-0.735,0.503-1.104c-0.066-0.164-0.399-0.271-0.528-0.392
			c-0.257-0.24-0.218-0.495-0.218-0.834c0-0.343,0.066-0.41-0.171-0.631c-0.341-0.318-0.659-0.881-0.686-1.355
			c-0.021-0.375,0.331-0.622,0.272-0.992c-0.058-0.36-0.521-0.785-0.906-0.756c-0.563,0.044-0.732,0.775-0.631,1.226
			c0.064,0.285,0.255,0.754,0.11,1.049c-0.102,0.206-0.474,0.162-0.679,0.145c-0.681-0.055-0.843-0.945-0.528-1.429
			c0.265-0.407-0.003-0.698-0.471-0.698c-0.32,0-0.433,0.358-0.764,0.194c-0.285-0.142-0.391-0.552-0.56-0.805
			c-0.337-0.505-0.911-0.767-1.244-1.291c-0.12-0.189-0.285-0.371-0.384-0.572c-0.076-0.155-0.104-0.336-0.186-0.489
			c-0.112-0.211-0.212-0.267-0.439-0.357c-0.289-0.115-0.461-0.185-0.617-0.463c-0.128-0.227-0.234-0.535-0.27-0.791
			c-0.067-0.487,0.071-1.113,0.044-1.603c-0.014-0.246,0.202-0.288,0.169-0.536c-0.039-0.285-0.224-0.458-0.18-0.772
			c0.039-0.281,0.176-0.548,0.229-0.825c0.084-0.435,0.078-0.859,0.215-1.288c0.069-0.218,0.365-0.787,0.148-0.994
			c-0.141-0.135-0.696-0.08-0.886-0.097c-0.279-0.025-0.549-0.042-0.826-0.095c-0.289-0.055-0.49-0.17-0.752-0.272
			c-0.413-0.161-0.496,0.199-0.824,0.382c-0.281,0.157-0.656-0.032-0.899-0.214c-0.186-0.139-0.311-0.426-0.13-0.633
			c0.182-0.208,0.572-0.108,0.755-0.308c0.312-0.342-0.495-0.302-0.332-0.778c0.119-0.345,0.679-0.6,0.384-1.018
			c-0.309-0.437-1.011-0.345-1.409-0.152c-0.411,0.2-0.399,0.68-0.88,0.74c-0.393,0.048-0.844-0.053-1.215-0.16
			c-0.365-0.105-0.881-0.158-1.123-0.485c-0.209-0.282-0.046-0.918-0.393-1.039c-0.444-0.155-2.19,0.558-1.597,1.158
			c0.203,0.205,0.501,0.02,0.696,0.129c0.28,0.156-0.033,0.329-0.208,0.345c-0.384,0.036-1.036-0.238-1.202,0.254
			c-0.097,0.285,0.033,0.818,0.141,1.087c0.067,0.167,0.406,0.598,0.01,0.491c-0.18-0.049-0.308-0.119-0.446,0.01
			c-0.197,0.185-0.097,0.572-0.115,0.804c-0.026,0.327-0.137,0.644-0.179,0.971c-0.053,0.417-0.124,0.461-0.427,0.754
			c-0.45,0.433-0.071,1.406-0.181,1.98c-0.055,0.29-0.234,0.395-0.44,0.563c-0.252,0.206-0.343,0.421-0.44,0.727
			c-0.19,0.598-0.741,1.323-0.432,1.969c0.092,0.193,0.921,0.898,0.85,1.06c-0.133,0.3-0.623-0.261-0.482,0.367
			c0.033,0.147,0.436,0.931-0.067,0.697c-0.113-0.053-0.13-0.276-0.275-0.31c-0.197-0.047-0.479,0.301-0.418,0.459
			c0.107,0.276,0.552,0.15,0.39,0.546c-0.161,0.396-0.135,0.389,0.288,0.485c0.011,0.114,0.007,0.23,0.001,0.343
			c-0.205,0.066-0.283,0.27-0.538,0.252c-0.069,0.208-0.004,0.428-0.155,0.604c-0.139,0.163-0.276,0.039-0.334,0.348
			c-0.104,0.557,0.501,0.904,0.32,1.443c-0.106,0.316-0.346,0.542-0.372,0.897c-0.021,0.293,0.116,0.573,0.183,0.849
			c0.121,0.497-0.066,1.022-0.442,1.368c-0.403,0.369-0.783,0.588-1.308,0.443c-0.256-0.071-0.277-0.042-0.515,0.02
			c-0.134,0.035-0.337,0.07-0.462-0.008c-0.267-0.168-0.395-0.982-0.677-1.014c-0.214-0.024-0.533,0.37-0.582,0.537
			c0.083,0.058,0.295,0.062,0.341,0.122c0.088,0.113-0.114,0.687-0.161,0.778c-0.208,0.401-0.507,0.224-0.714,0.492
			c-0.198,0.257-0.11,0.632-0.274,0.906c-0.049,0.082-0.095,0.151-0.162,0.224c-0.067,0.073-0.154,0.197-0.22,0.26
			c-0.121,0.115-0.269,0.14-0.437,0.032c-0.254-0.164-0.141-0.398-0.258-0.618c-0.051-0.096-0.19-0.3-0.27-0.356
			c-0.09-0.062-0.259-0.037-0.347-0.102c-0.189-0.14,0.088-0.427-0.01-0.609c-0.091-0.168-0.409-0.171-0.578-0.249
			c-0.157-0.074-0.486-0.186-0.613-0.312c-0.113-0.112-0.095-0.229-0.177-0.358c-0.162,0.128-0.17,0.214-0.398,0.197
			c-0.179-0.013-0.273-0.111-0.397-0.211c-0.194-0.155-0.317-0.418-0.55-0.216c-0.216,0.187-0.097,0.536-0.268,0.705
			c-0.115,0.114-0.473,0.109-0.636,0.097c-0.381-0.027-0.334,0.209-0.522,0.487c-0.292-0.235-0.248-0.68-0.744-0.271
			c-0.192,0.158-0.261,0.391-0.162,0.624c0.065,0.152,0.243,0.22,0.16,0.412c-0.068,0.156-0.441,0.219-0.588,0.261
			c-0.141,0.041-0.035,0.061-0.213,0.006c-0.079-0.024-0.199-0.156-0.288-0.131c-0.133,0.038-0.111,0.333-0.256,0.376
			c-0.111,0.033-0.171-0.088-0.255-0.115c-0.412-0.13-0.617,0.378-0.597,0.743c0.025,0.442,1.211,1.478,0.074,1.442
			c-0.193-0.006-0.73-0.132-0.886,0.051c-0.208,0.244,0.239,0.463,0.323,0.657c-0.52,0.147-0.22,0.818,0.215,0.831
			c0.062,0.437-0.462,0.515-0.772,0.488c-0.203-0.017-0.421-0.135-0.539,0.082c-0.094,0.172,0.04,0.665,0.216,0.699
			c0.396,0.077,0.644,0.095,0.659,0.518c0.01,0.273,0.03,0.278,0.245,0.45c0.086,0.069,0.248,0.135,0.206,0.252
			c-0.088,0.245-0.818,0.195-1.001,0.36c-0.129,0.117-0.121,0.276-0.266,0.361c-0.115,0.068-0.256-0.007-0.352,0.115
			c-0.086,0.109,0.031,0.32-0.002,0.453c-0.04,0.159-0.107,0.213-0.273,0.296c-0.26,0.129-0.378,0.12-0.536,0.353
			c-0.258,0.38-0.534,0.572-1.008,0.43c-0.282-0.085-0.484-0.324-0.765-0.411c0.028,0.179,0.061,0.362,0.064,0.543
			c-0.358,0.125-0.989,0.048-0.922,0.617c0.013,0.114,0.103,0.169,0.065,0.276c-0.027,0.077-0.22,0.23-0.285,0.299
			c-0.368,0.39-0.659,0.447-1.175,0.417c-0.224-0.013-0.477-0.098-0.665,0.021c-0.249,0.157-0.379,0.577-0.317,0.852
			c0.098,0.436,0.439,0.548,0.321,1.002c-0.075,0.288-0.17,0.449-0.425,0.591c-0.209,0.117-0.815,0.482-1.055,0.359
			c-0.332-0.169-0.065-0.52-0.53-0.507c-0.516,0.014-1.022,0.169-1.509-0.073c-0.42-0.209-0.477-0.438-0.962-0.229
			c-0.353,0.152-0.599,0.331-0.909,0.028c-0.135-0.132-0.302-0.488-0.52-0.482c-0.24,0.006-0.635,0.529-0.784,0.664
			c-0.224,0.203-0.349,0.376-0.678,0.353c-0.527-0.037-0.95-0.321-1.494-0.24c-0.5,0.074-0.858,0.364-1.193,0.709
			c-0.34,0.348-0.64,0.125-1.083,0.12c-0.452-0.004-0.87,0.089-1.31-0.016c-0.344-0.082-0.474-0.201-0.743-0.397
			c-0.241-0.176-0.462-0.244-0.746-0.244h-8.474c-0.625,0.051-2.362,0.403-1.929,1.319c0.188,0.399,0.603,0.739,0.936,1.025
			c0.133,0.114,0.746,0.533,0.725,0.684l-0.049,4.371c0.089,0.265-0.03,0.6,0.158,0.851c0.122,0.164,0.308,0.201,0.491,0.261
			c0.316,0.104,0.387,0.214,0.403,0.568c0.017,0.377,0.112,0.619,0.207,0.983c0.075,0.287,0.111,0.554,0.307,0.791
			c0.157,0.188,0.368,0.34,0.54,0.514c0.346,0.35,0.529,0.769,1.032,0.872c0.635,0.13,1.015,0.342,1.255,0.97
			c0.105,0.274,0.132,0.643,0.304,0.887c0.092,0.131,0.287,0.16,0.374,0.252c0.14,0.147,0.062,0.012,0.075,0.237
			c0.006,0.111-0.055,0.231,0.003,0.336c0.074,0.134,0.223,0.124,0.326,0.222c0.238,0.229,0.054,0.746-0.103,1.016
			c-0.116,0.199-0.322,0.364-0.415,0.579c-0.071,0.165,0.117,0.673-0.171,0.647c-0.405,0.406-0.725,0.943-0.977,1.461
			c-0.294,0.603,0.009,1.277-0.33,1.868c-0.278,0.485-0.61,0.987-1.119,1.249c-0.152,0.078-0.331,0.082-0.472,0.154
			c-0.175,0.09-0.298,0.322-0.423,0.471c-0.156,0.186-0.264,0.283-0.484,0.384c-0.117,0.053-0.277,0.054-0.376,0.102
			c-0.243,0.116-0.591,0.813-0.678,0.194c-0.031-0.223,0.158-0.864-0.308-0.757c-0.121,0.028-0.16,0.266-0.28,0.273
			c-0.13,0.007-0.164-0.207-0.217-0.302c-0.181,0.036-0.554,0.095-0.713-0.005c-0.225-0.142-0.066-0.473-0.179-0.718
			c-0.355,0.105-0.219-0.161-0.406-0.317c-0.14-0.117-0.308-0.072-0.441-0.245c-0.019-0.025-0.123-0.305-0.155-0.313
			c-0.169-0.047-0.273,0.255-0.373,0.368c-0.193,0.221-0.155,0.153-0.314,0.022c-0.249-0.205-0.893-0.838-1.184-0.742
			c-0.307,0.101-0.448,0.557-0.758,0.634c-0.309,0.076-0.356-0.261-0.526-0.412c-0.543,0.221,0.211,1.426-0.585,1.289
			c-0.279-0.049-0.333-0.225-0.546-0.376c-0.273-0.194-0.268,0.082-0.516,0.289c-0.046-0.107-0.119-0.199-0.218-0.256
			c-0.069,0.071-0.159,0.221-0.265,0.231c-0.265,0.023-0.47-0.413-0.666-0.52c-0.304-0.167-0.967-0.059-1.293-0.022
			c-0.206,0.023-0.397,0.089-0.606,0.101c-0.267,0.015-0.54-0.042-0.796,0.071c-0.181,0.08-0.287,0.325-0.456,0.383
			c-0.239,0.082-0.621-0.147-0.807-0.286c-0.273-0.203-0.362-0.62-0.751-0.538c-0.339,0.071-0.418,0.24-0.732,0.029
			c-0.217-0.146-0.564-0.147-0.666-0.42c-0.091-0.243,0.048-0.787-0.192-0.932c-0.333,0.562-0.801-0.108-1.216-0.137
			c-0.198-0.014-0.408,0.243-0.562,0.173c-0.158-0.073-0.084-0.479-0.165-0.593c-0.107,0.172-0.179,0.352-0.227,0.539
			c-0.036,0.138-0.015,0.375-0.171,0.441c-0.224,0.095-0.497-0.166-0.771-0.037c-0.119,0.056-0.081,0.165-0.256,0.136
			c-0.096-0.015-0.138-0.08-0.193-0.151c-0.145-0.19-0.148-0.454-0.148-0.68c-0.255-0.038-0.626-0.068-0.883-0.022
			c-0.325,0.057-0.259,0.225-0.396,0.467c-0.27-0.013-0.485-0.138-0.721-0.249c-0.266-0.125-0.774-0.417-1.081-0.385
			c-0.228,0.024-0.47,0.313-0.652,0.028c-0.088-0.138-0.041-0.292,0.049-0.393c0.099-0.112,0.483-0.116,0.457-0.324
			c-0.01-0.081-0.303-0.278-0.376-0.286c-0.208-0.024-0.236,0.167-0.416,0.227c-0.346,0.115-0.236-0.123-0.327-0.313
			c-0.144-0.299-0.7-0.521-1.043-0.584c-0.7-0.128-1.689,0.059-2.322-0.333c-0.115-0.071-0.269-0.165-0.235-0.332
			c0.032-0.153,0.052-0.034,0.125-0.138c0.075-0.107,0.252-0.327,0.369-0.408c0.098-0.067,0.282-0.075,0.358-0.16
			c0.053-0.06,0.019-0.083,0.053-0.158c0.108-0.242,0.057-0.299,0.352-0.377c0.242-0.064,0.988-0.096,0.64-0.468
			c-0.155-0.166-0.333-0.116-0.559-0.115c-0.366,0.002-0.732,0.137-0.894-0.266c-0.046-0.114-0.013-0.417-0.098-0.492
			c-0.136-0.119-0.114,0.012-0.203,0.026c-0.197,0.029-0.494,0.179-0.523-0.155c-0.018-0.202,0.097-0.197,0.222-0.32
			c0.234-0.231,0.164-0.371-0.158-0.43c-0.18-0.033-0.308,0.028-0.464-0.071c-0.161-0.102-0.206-0.309-0.302-0.455
			c-0.111-0.169-0.071-0.155-0.252-0.235c-0.155-0.068-0.509-0.012-0.609-0.177c-0.127-0.206,0.166-0.615,0.37-0.674
			c0.216-0.062,0.89,0.112,0.905-0.254c0.012-0.314-0.352-0.172-0.517-0.237c-0.273-0.108-0.222-0.483-0.249-0.742
			c-0.036-0.346-0.007-0.552-0.292-0.749c-0.387-0.266-0.855-0.191-1.243-0.44c-0.362-0.232-0.401-0.503-0.853-0.507
			c-0.375-0.004-0.567-0.006-0.513-0.387c0.032-0.228,0.137-0.686-0.17-0.79c-0.173-0.059-0.638,0.177-0.781,0.276
			c-0.572,0.398-1.005,1.067-1.336,1.657c-0.181,0.321-0.365,1.364-0.874,0.801c-0.209-0.231-0.425-0.854-0.643-0.233
			c-0.134,0.382,0.16,1.022-0.083,1.352c-0.359,0.487-0.42-0.263-0.525-0.435c-0.313-0.512-1.068-1.5-1.811-1.163
			c-0.062,0.478,0.402,0.474,0.511,0.82c0.065,0.206-0.12,0.817-0.318,0.935c-0.173,0.103-0.185,0.248-0.265,0.413
			c-0.113,0.235-0.32,0.386-0.536,0.529c-0.293,0.193-0.573,0.359-0.926,0.378c-0.407,0.022-0.78-0.378-0.812,0.175
			c-0.018,0.315-0.067,0.261-0.244,0.499c-0.126,0.169-0.141,0.4-0.286,0.558c-0.158,0.171-0.59,0.186-0.7,0.354
			c-0.119,0.182,0.128,0.4,0.219,0.599c0.205,0.451,0.403,0.993,0.176,1.478c-0.115,0.245-0.354,0.396-0.461,0.655
			c-0.083,0.201-0.105,0.439-0.144,0.653c-0.1,0.549-0.116,0.846-0.495,1.26c-0.136,0.149-0.204,0.294-0.291,0.471
			c-0.124,0.25-0.302,0.456-0.46,0.684c-0.135,0.196-0.184,0.289-0.067,0.482c0.076,0.126,0.292,0.196,0.29,0.356
			c-0.001,0.092-0.178,0.265-0.221,0.359c-0.06,0.132-0.108,0.383-0.099,0.531c0.011,0.199-0.066,0.408,0.015,0.603
			c0.085,0.204,0.322,0.316,0.384,0.521c0.052,0.171,0.017,0.524-0.106,0.661c-0.185,0.207-0.668,0.08-0.914,0.043
			c-0.053-0.242,0.517-0.378,0.378-0.694c-0.102-0.232-0.484-0.13-0.644-0.05c-0.324,0.162-0.676,0.38-0.986,0.582
			c-0.251,0.164-0.282,0.373-0.27,0.673c-0.138,0.077-0.334,0.163-0.489,0.205c-0.097,0.026-0.136-0.02-0.213,0.056
			c-0.074,0.072-0.056,0.184-0.083,0.273c-0.05,0.162-0.143,0.36-0.233,0.502c-0.205,0.325-0.517,0.581-0.774,0.861
			c-0.273,0.298-0.238,0.508-0.242,0.902c-0.002,0.216,0.003,0.392-0.182,0.504c-0.257,0.155-0.591,0.171-0.809,0.403
			c-0.163,0.173-0.166,0.383-0.198,0.604c-0.027,0.181-0.133,0.385-0.111,0.569c-0.051,0.062-0.047,0.164-0.1,0.218
			c-0.103,0.107-0.299,0.083-0.361,0.243c-0.09,0.233,0.103,0.521-0.106,0.729c-0.212,0.212-0.677,0.217-0.947,0.316
			c-0.401,0.147-0.592,0.527-0.908,0.786c-0.581,0.477-0.949,1.161-1.659,1.472c-0.372,0.163-1.119-0.055-1.081,0.516
			c0.01,0.151,0.054,0.292,0.139,0.414c0.052,0.075,0.181,0.149,0.206,0.232c0.048,0.163-0.132,0.575-0.225,0.713
			c-0.139,0.207-0.393,0.196-0.45,0.479c-0.037,0.183,0.041,0.389-0.038,0.568c-0.137,0.312-0.631,0.068-0.805,0.367
			c-0.192,0.329,0.278,0.577,0.182,0.842c-0.055,0.151-0.422,0.26-0.565,0.328c-0.364,0.174-0.094,0.561-0.211,0.891
			c-0.064,0.18-0.825,0.326-1.073,0.407c-0.391,0.128-0.606,0.197-0.855,0.514c-0.151,0.192-0.323,0.345-0.422,0.573
			C58.26,82.17,58.24,82.3,58.157,82.4c-0.067,0.081-0.188,0.16-0.269,0.236c-0.242,0.23-0.373,0.279-0.67,0.021
			c-0.238-0.205-0.134-0.627-0.339-0.806c-0.028,0.073-0.098,0.123-0.145,0.179c-0.435-0.368-0.314,0.028-0.557,0.22
			c-0.252,0.199-0.603,0.253-0.857,0.475c-0.059,0.052-0.101,0.124-0.159,0.174c-0.155,0.131-0.298,0.188-0.495,0.231
			c-0.203,0.044-0.536,0.111-0.7-0.031c-0.216-0.188-0.143-0.665-0.572-0.533c-0.292,0.089-0.284,0.458-0.532,0.614
			c-0.261,0.163-0.594,0.058-0.874,0.047c-0.496-0.019-0.637,0.6-0.933,0.939c-0.343,0.393-1.18,0.77-0.551,1.271
			c0.321,0.256,0.979,0.809,0.439,1.221c-0.227,0.174-0.718,0.066-1.003,0.126c-0.284,0.06-0.774,0.283-1.069,0.174
			c-0.136-0.05-0.218-0.218-0.338-0.299c-0.554-0.374-0.773,0.247-0.907,0.69c-0.155,0.511-0.004,0.79-0.615,0.926
			c-0.273,0.061-0.536,0.049-0.815,0.072c-0.497,0.041-0.723,0.265-0.948,0.705c-0.153,0.299-0.122,0.976-0.445,1.128
			c-0.187,0.088-0.579-0.087-0.728,0.057c-0.168,0.162,0.029,0.639-0.035,0.862c-0.05,0.173-0.24,0.424-0.421,0.472
			c-0.28,0.074-0.497-0.244-0.68-0.398c-0.144-0.121-0.395-0.445-0.58-0.455c-0.119-0.006-0.384,0.174-0.475,0.233
			c-0.301,0.195-0.416,0.327-0.788,0.176c-0.217-0.088-0.428-0.515-0.618-0.542c-0.278-0.04-0.172,0.483-0.182,0.651
			c-0.016,0.282-0.128,0.387-0.351,0.558c-0.219,0.167-0.492,0.352-0.749,0.463c-0.487,0.211-1.019,0.136-1.517,0.27
			c-0.556,0.15-0.883,0.727-1.333,1.046c-0.89,0.632-2.008,0.902-2.937,1.467c-0.048,0.092-0.097,0.257,0.005,0.32
			c0.141,0.089,0.321-0.181,0.409-0.223c0.452-0.214,0.428,0.417,0.414,0.744c-0.016,0.343,0.039,0.788-0.223,1.057
			c-0.138,0.141-0.569,0.398-0.753,0.422c-0.229,0.029-0.463-0.099-0.69-0.124c-0.269-0.03-0.578-0.054-0.849-0.048
			c-0.229,0.005-0.296,0.08-0.492,0.179c-0.402,0.203-0.732,0.183-0.873-0.285c-0.021-0.069-0.036-0.494-0.107-0.528
			c-0.157-0.075-0.307,0.173-0.362,0.273c-0.129,0.235-0.17,0.509-0.311,0.739c-0.182,0.297-0.399,0.495-0.545,0.82
			c-0.245,0.542-0.792,0.787-1.285,1.073c-0.287,0.166-0.524,0.384-0.815,0.541c-0.261,0.141-0.511,0.299-0.747,0.48
			c-0.47,0.361-0.444,0.915-0.738,1.391c-0.395,0.64-1.22,0.754-1.86,1.044c-0.652,0.295-1.244,0.694-1.607,1.31
			c-0.312,0.528-0.347,1.007-0.852,1.402c-0.365,0.285-0.657,0.484-1.1,0.573c-0.25,0.254-0.121,0.747-0.146,1.071
			c-0.03,0.378-0.184,0.249-0.462,0.384c-0.288,0.141-0.254,0.371-0.307,0.656c-0.05,0.266-0.172,0.476-0.329,0.692
			c-0.33,0.454-0.626,0.494-1.154,0.446c-0.371-0.034-1.004-0.12-1.303,0.159c-0.239,0.222-0.28,0.723-0.279,1.062
			c0.002,0.657,0.154,1.306,0.146,1.952c-0.002,0.176-0.009,0.366-0.101,0.513c-0.161,0.257-0.234,0.266-0.218,0.611
			c0.026,0.566,0.282,1.444-0.369,1.734c-0.285,0.127-0.48,0.109-0.655,0.399c-0.126,0.209-0.407,0.641-0.363,0.869
			c0.345,0.014,0.643-0.084,0.88,0.196c0.192,0.226,0.294,0.528,0.472,0.769c0.227,0.307,0.57,0.525,0.782,0.844
			c0.155,0.233,0.253,0.502,0.415,0.734c0.08,0.114,0.15,0.245,0.285,0.313c0.217,0.11,0.124,0.043,0.259-0.02
			c0.252-0.117,0.309-0.3,0.6-0.272c0.404,0.039,0.826,0.105,1.237,0.16c0.238,0.032,0.441,0.081,0.627,0.237
			c0.126,0.106,0.216,0.258,0.421,0.215c0.184,0.253,0.38,0.171,0.596,0.006c0.134-0.103,0.476-0.637,0.552-0.339
			c0.14,0.552-0.796,1.024-0.733,1.602c0.045,0.417,0.346,0.393,0.641,0.331c0.369-0.079,0.453,0.12,0.435,0.504
			c-0.022,0.471-0.618,0.686-0.081,0.997c0.188,0.109,0.453,0.157,0.593,0.322c0.166,0.197,0.14,0.473,0.191,0.707
			c0.133-0.009,0.277-0.046,0.384-0.129c0.418,0.136,0.16,0.769-0.008,1c-0.108,0.15-0.197,0.197-0.229,0.397
			c-0.032,0.203,0.021,0.346-0.092,0.538c-0.232,0.392-0.354,0.453-0.174,0.902c0.104,0.258-0.012,0.474,0.064,0.73
			c0.174,0.018,0.355-0.021,0.525-0.051c-0.007-0.386-0.05-0.487,0.352-0.559c0.323-0.058,0.495-0.088,0.707-0.351
			c0.165-0.206,0.391-0.55,0.66-0.644c0.273-0.095,0.635,0.045,0.92,0.012c-0.078-0.329-0.429-0.637-0.149-0.92
			c0.119-0.12,0.434-0.202,0.442-0.408c0.005-0.146-0.177-0.19-0.213-0.296c-0.021-0.061,0-0.306-0.007-0.399
			c-0.017-0.203-0.006-0.44,0.026-0.641c0.042-0.263,0.032-0.175,0.257-0.331c0.288-0.199,0.174-0.296,0.085-0.615
			c0.207,0.343,0.447,0.276,0.783,0.148c0.441-0.168,0.231,0.129,0.364,0.435c0.105,0.241,0.415,0.221,0.647,0.254
			c0.376,0.055,0.344,0.105,0.499,0.398c0.265,0.501,1.17,0.146,1.39,0.596c0.171,0.35,0.011,0.96,0.363,1.197
			c0.094,0.064,0.249,0.075,0.355,0.122c0.1,0.044,0.229,0.167,0.335,0.189c0.167,0.035,0.156,0.058,0.242-0.074
			c0.17-0.259-0.066-0.432,0.241-0.671c0.104,0.248,0.281,0.453,0.343,0.703c0.048,0.191,0.01,0.378,0.172,0.537
			c0.206,0.202,0.305,0.05,0.535-0.054c0.204-0.093,0.513-0.247,0.625,0.042c0.335,0.221,0.914,0.449,1.072,0.856
			c0.117,0.301-0.014,0.602,0.183,0.898c0.053,0.08,0.176,0.14,0.239,0.236c0.069,0.103,0.091,0.325,0.175,0.398
			c0.363,0.313,0.826-0.215,1.153-0.234c0.181-0.01,0.345,0.194,0.525,0.186c0.138-0.006,0.188-0.089,0.317-0.14
			c0.281-0.113,0.46-0.265,0.652-0.461c0.154-0.157,0.026-0.123,0.276-0.265c0.125-0.071,0.273-0.092,0.397-0.17
			c0.312-0.195,0.649-0.583,0.768-0.924c0.04,0.259-0.144,0.342-0.236,0.54c-0.126,0.272-0.111,0.613-0.094,0.905
			c0.542,0.154,0.712,0.116,0.956,0.695c0.148,0.351,0.196,1.528,0.616,1.552c0.309,0.018,0.663-0.506,0.963-0.563
			c0.145-0.027,0.306,0.1,0.461,0.039c0.362-0.142,0.509-0.666,0.907-0.848c0.434-0.198,0.514-0.476,0.873-0.736
			c0.229-0.166,0.914-0.486,1.186-0.366c0.083,0.037,0.345,0.346,0.298,0.455c-0.057,0.133-0.232,0.079-0.335,0.108
			c-0.261,0.074-0.733,0.148-0.915,0.371c-0.132,0.162-0.217,0.627-0.283,0.837c-0.081,0.256,0.009,0.593-0.033,0.867
			c-0.085,0.554-0.152,0.888-0.596,1.282c-0.411,0.365-0.974,0.468-0.764,1.124c0.043,0.135,0.212,0.17,0.244,0.315
			c0.039,0.177-0.054,0.231-0.048,0.371c0.012,0.263-0.018,0.543,0.048,0.804c0.187,0.74,0.547,0.496,1.159,0.564
			c0.025,0.485-0.025,1.215,0.151,1.666c0.119,0.303,0.591,0.53,0.534,0.963c-0.053,0.409-0.588,0.377-0.731,0.648
			c-0.216,0.408,0.414,0.643,0.323,0.934c-0.044,0.141-0.32,0.119-0.409,0.215c-0.091,0.099-0.067,0.268-0.154,0.382
			c-0.216,0.282-0.481,0.303-0.734,0.521c-0.306,0.264-0.176,0.427-0.293,0.721c-0.136,0.343-0.17,0.268-0.511,0.473
			c-0.433,0.26-0.899,0.916-0.954,1.409c-0.05,0.449,0.058,0.914-0.023,1.36c-0.082,0.451-0.32,0.652-0.575,1.012
			c-0.377,0.531-0.297,1.133-0.777,1.653c-0.482,0.523-0.944,0.884-1.067,1.6c-0.201,1.171-1.067,2.061-1.196,3.276
			c-0.06,0.559-0.369,0.469-0.835,0.518c0.028,0.235,0.305,0.486,0.4,0.709c0.104,0.243,0.186,0.491,0.147,0.754
			c-0.078,0.519-0.399,1.035-0.008,1.523c0.11,0.137,0.282,0.199,0.408,0.316c0.117,0.11,0.142,0.291,0.246,0.396
			c0.175,0.178,0.497,0.057,0.666-0.092c0.052,0.302,0.124,0.917,0.345,1.133c0.118-0.192,0.285-0.34,0.396-0.533
			c0.136-0.237,0.252-0.5,0.374-0.744c0.223,0.039,0.451,0.153,0.657,0.245c-0.094,0.255-0.295,0.15-0.38,0.418
			c-0.097,0.31-0.107,0.419-0.286,0.672c-0.194,0.273-0.193,0.393,0.036,0.619c0.292,0.288,0.685,0.526,1.019,0.759
			c0.292,0.204,0.547,0.115,0.827-0.083c0.126-0.089,0.218-0.225,0.348-0.308c0.248-0.157,0.567-0.18,0.846-0.251
			c0.382-0.098,0.797-0.027,1.162-0.159c0.254-0.091,0.408-0.299,0.63-0.441c0.196-0.126,0.402-0.368,0.604-0.392
			c0.317-0.039,0.457,0.257,0.632,0.459c0.233,0.269,0.423,0.27,0.777,0.24c0.322-0.028,0.447,0.057,0.756,0.152
			c0.449,0.138,0.851,0.063,1.248,0.384c0.156,0.126,0.283,0.29,0.369,0.469c0.157,0.328,0.137,0.762,0.365,1.049
			c0.124,0.156,0.861,0.372,0.749,0.582c-0.098,0.185-0.713-0.007-0.863-0.007c-0.148-0.187-0.329-0.334-0.461-0.539
			c-0.1-0.157-0.151-0.401-0.306-0.519c-0.475-0.363-0.631,0.204-1.044,0.215c-0.395,0.011-1.008-0.439-1.359-0.615
			c-0.314-0.158-0.786-0.474-1.144-0.403c-0.027,0.209,0.068,0.433,0.151,0.629c-0.392,0.171-1.006,0.065-1.438,0.061
			c-0.153-0.001-0.368-0.053-0.511-0.029c-0.256,0.041-0.267,0.155-0.457,0.326c-0.223,0.201-0.13,0.147-0.352,0.175
			c-0.279,0.035-0.139-0.304-0.401,0.082c-0.181,0.266-0.435,0.927-0.451,1.249c-0.143-0.156-0.197-0.346-0.356-0.486
			c-0.268-0.237-0.364-0.321-0.553-0.639c-0.621,0.712-1.519,0.752-2.39,0.592c-0.047,0.27-0.035,0.567-0.098,0.844
			c-0.89,0.261-0.728-1.399-1.19-1.492c-0.651-0.13-0.017,1.489,0.049,1.65c0.191,0.469,0.678,1.966-0.218,1.654
			c-0.226-0.078-0.524-0.402-0.749-0.298c-0.299,0.138-0.443,0.999-0.538,1.285c-0.253-0.006-0.758-0.185-0.878-0.446
			c-0.11-0.241,0.163-0.463,0.109-0.788c-0.343-0.061-0.744,0.112-1.096-0.051c-0.481-0.222-0.361-0.352-0.878-0.067
			c0.058,0.201,0.205,0.22,0.333,0.365c0.258,0.293,0.163,0.46,0.281,0.796c0.145,0.412,0.614,0.636,0.674,1.106
			c0.073,0.584-0.32,1.202-0.736,1.563c-0.198,0.172-0.414,0.304-0.541,0.533c-0.103,0.186-0.044,0.362-0.229,0.494
			c-0.211-0.35-0.06-0.955-0.512-0.406c-0.322,0.392-0.47,0.95-0.675,1.408c-0.251,0.56-0.565,1.011-0.975,1.458
			c-0.386,0.421-0.66,0.609-0.511,1.172c0.071,0.27,0.069,0.378,0.24,0.619c0.199,0.281,0.123,0.546,0.039,0.866
			c-0.075,0.29-0.149,0.535-0.083,0.832c0.083,0.374,0.254,0.528,0.481,0.807c0.137,0.169,0.234,0.278,0.367,0.43
			c0.124,0.141,0.362,0.164,0.531,0.183c0.437,0.048,0.669-0.146,1.093-0.21c0.122-0.018,0.413-0.003,0.336,0.184
			c-0.047,0.115-0.326,0.137-0.44,0.154c-0.145,0.021-0.262,0.005-0.362,0.137c-0.058,0.077-0.146,0.254-0.168,0.34
			c-0.03,0.12,0.021,0.213-0.055,0.325c-0.115,0.171-0.406,0.228-0.558,0.08c-0.156-0.151-0.171-0.341-0.175-0.534
			c-0.325-0.144-0.624-0.158-0.916-0.399c-0.162-0.134-0.201-0.481-0.354-0.566c-0.367,0.481-0.817,0.937-1.161,1.428
			c-0.118,0.169-0.212,0.603-0.406,0.694c-0.327,0.154-0.489-0.272-0.779-0.265c-0.482,0.012-0.852,1.101-1.308,1.365
			c-0.404,0.235-1.613-0.083-1.822,0.296c0.782,0.773,1.416,1.256,2.615,1.318c0.734,0.038,1.598-0.143,2.325-0.245
			c0.376-0.053,0.583-0.154,0.861-0.391c0.218-0.187,0.286-0.397,0.565-0.36c0.31,0.041,0.774,0.62,1.025,0.772
			c0.254,0.155,0.555,0.234,0.822,0.37c0.483,0.247,0.83,0.422,1.282,0.669c0.397-0.43,0.463,0.008,0.83,0.045
			c0.325,0.033,0.785-0.348,1.077-0.461c0.378-0.146,0.743-0.32,1.136-0.354c0.462-0.04,0.826-0.081,1.276-0.143
			c0.58-0.081,0.845,0.481,1.349,0.458c0.409-0.018,0.585-0.195,0.928,0.078c0.178,0.142,0.311,0.315,0.285,0.556
			c-0.33,0.029-0.52-0.175-0.731,0.228c-0.172,0.33-0.074,0.843-0.068,1.212c-0.225,0.055-0.646,0.091-0.817-0.123
			c-0.141-0.178-0.026-0.448-0.126-0.656c-0.255-0.527-0.845-0.424-1.286-0.263c-0.598,0.219-1.224,0.171-1.257,0.953
			c-0.026,0.604,0.141,1.052,0.737,1.186c-0.012,0.165-0.026,0.353,0.069,0.482c0.265-0.133,0.59-0.414,0.886-0.369
			c0.005,0.448-0.203,1.175-0.747,1.061c-0.332-0.07-0.357-0.195-0.7-0.2c-0.34-0.005-0.672,0.104-1.014,0.021
			c-0.041-0.2-0.045-0.417-0.11-0.602c-0.263-0.037-0.408,0.124-0.624,0.234c-0.287,0.147-0.618,0.233-0.927,0.32
			c-0.611,0.171-1.121,0.568-1.002,1.327c0.339,0.151,0.485-0.221,0.756-0.302c0.046,0.961,0.229,1.015,1.14,1.101
			c0.394,0.037,0.289,0.013,0.511,0.332c0.107,0.153,0.265,0.346,0.434,0.433c0.258,0.132,0.968,0.361,1.207,0.299
			c0.06-0.016,0.116-0.199,0.196-0.223c0.141-0.043,0.295,0.077,0.426,0.102c0.311,0.057,0.681,0.1,0.984,0.011
			c0.745-0.22,0.803-1.269,1.298-1.772c-0.012,0.961,0.584,0.904,1.328,0.751c0.525,0.785-0.349,1.705-0.939,2.064
			c-0.184,0.112-0.883,0.323-0.634,0.679c0.123,0.174,0.42,0.019,0.599,0.068c0.223,0.061,0.328,0.234,0.524,0.333
			c0.018-0.174-0.004-0.478,0.13-0.612c0.162-0.162,0.696-0.098,0.676,0.134c-0.014,0.165-0.005,0.34,0.039,0.5
			c0.355,0.019,0.929-0.655,1.124-0.904c0.341-0.432,0.579-0.642,0.05-0.967c0.288-0.695,0.619-0.152,1.065-0.023
			c0.199,0.057,0.368-0.046,0.573,0.043c0.224,0.097,0.323,0.465,0.612,0.442c0.281-0.023,0.262-0.203,0.16-0.412
			c-0.052-0.107-0.201-0.118-0.253-0.211c-0.049-0.089,0.016-0.28-0.051-0.336c-0.266-0.224-1.467,0.129-1.026-0.652
			c0.192,0.124,0.563,0.227,0.779,0.107c0.339-0.188,0.121-0.47,0.223-0.798c0.071-0.227,0.237-0.496,0.539-0.341
			c0.336,0.172,0.163,0.715,0.226,1.01c0.271-0.198,0.328-0.011,0.577,0.086c0.097,0.038,0.488,0.071,0.556,0.115
			c0.633,0.405-0.775,0.65-0.796,0.895c-0.024,0.285,0.23,0.181,0.259,0.383c0.021,0.146-0.144,0.283-0.113,0.457
			c0.023,0.131,0.285,0.293,0.401,0.375c0.23,0.162,0.212,0.298,0.521,0.192c-0.077,0.316-0.464,0.822-0.799,0.486
			c-0.158-0.159,0.033-0.321-0.186-0.458c-0.073-0.046-0.59-0.166-0.719-0.171c-0.589-0.022-0.83,0.213-1.053,0.787
			c-0.057,0.148-0.057,0.571-0.228,0.648c-0.123,0.056-0.291-0.108-0.402-0.111c-0.248-0.008-0.445,0.078-0.396,0.434
			c0.241,0.054,0.479,0.167,0.756,0.041c0.348-0.158,0.403-0.602,0.932-0.474c0.019,0.186-0.003,0.56-0.176,0.686
			c-0.129,0.093-0.272,0.072-0.426,0.131c-0.24,0.092-0.385,0.346-0.609,0.463c-0.285,0.149-0.334-0.041-0.578,0.005
			c-0.306,0.059-1.115,0.894-1.173,1.157c-0.048,0.219,0.094,0.401,0.184,0.587c0.077,0.16,0.176,0.498,0.284,0.63
			c0.149-0.307,0.376-0.511,0.512-0.831c0.054-0.128,0.158-0.525,0.273-0.608c0.242-0.174,0.782-0.015,1.078-0.143
			c0.248-0.107,0.249-0.29,0.629-0.185c0.528,0.145,1.006,0.517,1.33-0.224c0.234-0.535,0.22-1.219,0.729-1.646
			c0.11,0.283,0.503,1.005,0.877,0.913c0.108-0.215-0.255-1.089,0.469-0.826c0.302,0.11,0.207,0.425,0.325,0.563
			c0.16,0.187,0.385,0.126,0.65,0.125c0.681-0.001,0.584-0.267,0.406-0.843c-0.071-0.228-0.16-0.37-0.027-0.589
			c0.075-0.123,0.404-0.189,0.451-0.306c0.087-0.214-0.134-0.368-0.188-0.577c-0.094-0.36,0.059-0.43,0.206-0.682
			c0.082-0.142,0.16-0.076,0.187-0.231c0.016-0.089-0.118-0.235-0.108-0.35c0.015-0.181,0.167-0.266,0.218-0.433
			c0.116-0.382-0.454-0.943-0.216-1.202c0.291-0.318,0.526,0.481,0.706,0.68c0.357,0.395,0.652,0.363,1.092,0.101
			c0.412-0.246,1.203-0.618,0.853-1.213c-0.466,0.636-1.242,0.274-1.178-0.432c0.204-0.165,0.679-0.48,0.611-0.806
			c-0.299-0.009-0.576-0.048-0.865-0.078c0.275-0.225,0.217-0.622-0.187-0.581c0.006,0.658-0.703,0.718-1.084,0.429
			c-0.533-0.403-1.133-0.83-1.449-1.458c-0.122-0.241-0.209-0.664,0.238-0.71c0.279-0.028,0.285,0.395,0.528,0.449
			c0.186,0.041,0.349-0.26,0.523-0.259c0.092,0.001,0.325,0.196,0.439,0.232c0.275,0.087,0.654-0.009,0.875,0.167
			c0.224,0.178,0.269,0.518,0.508,0.706c0.273,0.214,0.477,0.247,0.663-0.067c0.083-0.14,0.001-0.261,0.143-0.372
			c0.081-0.063,0.43-0.057,0.536-0.071c0.447-0.062,0.378-0.012,0.575,0.314c0.114,0.189,0.313,0.336,0.504,0.419
			c0.27,0.116,0.562,0.045,0.591,0.404c0.033,0.411-0.384,0.627-0.152,1.107c0.2,0.416,0.558,0.255,0.843,0.495
			c0.322,0.272,0.427,0.896,0.695,1.237c0.273,0.348,0.715,0.485,0.874,0.924c0.11,0.302-0.038,0.818,0.305,0.98
			c0.306,0.144,0.662-0.234,0.968-0.127c0.112,0.039,0.231,0.267,0.352,0.339c0.179,0.106,0.418,0.134,0.618,0.169
			c0.051-0.472-0.275-0.863-0.404-1.279c-0.135-0.435,0.286-0.943,0.805-0.645c0.358,0.205,0.458,0.788,0.732,1.075
			c0.432,0.452,0.735-0.147,1.081-0.415c0.062,0.328-0.056,0.701-0.009,1.047c0.042,0.312,0.187,0.646,0.33,0.926
			c0.253,0.497,0.676,0.601,0.725,1.162c0.052,0.603,0.134,0.817,0.721,0.999c0.432,0.134,0.832,0.3,1.196-0.033
			c0.073-0.535,0.189-0.986-0.002-1.526c-0.144-0.406-0.749-1.299-0.108-1.575c0.126-0.054,0.314-0.029,0.457-0.055
			c0.208-0.038,0.38-0.139,0.581-0.19c0.185-0.046,0.182-0.146,0.197-0.293c0.022-0.217-0.103-0.257,0.173-0.317
			c0.305-0.067,0.531-0.04,0.69,0.193c0.119,0.174,0.159,0.341,0.357,0.455c0.249,0.142,0.344,0.043,0.525-0.148
			c0.208-0.219,0.462-0.453,0.717-0.62c0.499-0.328,1.147-0.619,1.741-0.661c0.262-0.019,0.467,0.031,0.667-0.119
			c0.155-0.116,0.316-0.394,0.359-0.587c0.336,0.162,0.03,0.784,0.019,1.034c-0.011,0.255,0.13,0.495,0.251,0.715
			c0.244,0.446,0.772,0.666,1.134,1.016c0.146,0.142,0.246,0.319,0.397,0.455c0.25,0.226,0.582,0.259,0.874,0.412
			c0.485,0.254,0.96,0.558,1.522,0.589c0.729,0.041,1.425-0.149,2.081-0.444c0.679-0.305,1.149-0.586,1.245-1.37
			c0.097-0.788,0.053-1.631,0.019-2.425c-0.017-0.392-0.236-0.719-0.29-1.106c-0.049-0.349,0.069-0.433,0.394-0.509
			c0.422-0.098,0.85-0.113,1.234-0.336c0.427-0.248,0.937-0.583,1.25-0.966c0.331-0.405,0.872-0.766,1.288-1.087
			c0.561-0.432,0.763-0.759,0.859-1.466c0.097-0.712,0.199-1.06,0.839-1.423c0.49-0.278,1.035-0.536,1.382-1.012
			c0.41-0.561,0.551-1.326,0.902-1.929c0.198-0.341,0.235-0.541,0.576-0.753c0.45-0.279,0.47-0.643,0.735-1.066
			c0.258-0.413,0.497-0.296,0.891-0.449c0.588-0.228,0.97-0.852,1.37-1.305c0.101-0.114,0.346-0.482,0.507-0.523
			c0.175-0.044,0.36,0.149,0.531,0.183c0.617,0.124,1.151-0.466,1.719-0.621c0.806-0.22,1.79,0.119,2.61,0.192
			c1.072,0.095,1.825-0.538,2.929-0.202c0.551,0.168,1.029,0.436,1.602,0.544c0.296,0.056,0.391,0.19,0.659,0.267
			c0.375,0.108,0.739-0.305,1.037-0.473c0.264-0.149,0.546-0.31,0.759-0.512c0.689,0,1.396-0.184,2.082-0.183
			c0.431,0,0.851,0.039,1.279,0.037c0.396-0.002,0.897,0.131,1.289,0.037c0.429-0.102,0.584-0.564,0.917-0.147
			c0.229,0.286,0.324,0.645,0.67,0.862c0.292,0.183,0.819,0.19,1.154,0.088c0.339-0.102,0.542-0.595,0.887-0.622
			c0.132-0.01,0.234,0.095,0.354,0.131c0.273,0.082,0.531,0.098,0.814,0.123c0.273,0.024,0.514,0.067,0.777,0.141
			c0.727,0.204,1.516,0.341,2.271,0.378c0.735,0.036,1.136-0.411,1.751-0.743c0.558-0.301,1.107-0.593,1.64-0.934
			c0.54-0.345,0.917-0.638,1.293-1.166c0.376-0.529,0.813-1.008,1.284-1.446c0.643-0.597,0.758-1.134,0.876-2.012
			c0.121-0.895,0.111-1.772,0.111-2.678c0-0.391-0.059-0.609,0.228-0.888c0.236-0.229,0.48-0.19,0.733-0.316
			c0.564-0.281,0.467-1.617,0.398-2.177c-0.066-0.535-0.435-0.814-0.828-1.121c-0.331-0.258-0.608-0.588-0.969-0.806
			c-0.826-0.501-1.604-0.059-2.386,0.336c-1.408-1.02-1.434-4-3.512-4.219c-0.201-0.236-0.762-0.324-1.053-0.44
			c-0.325-0.13-0.612-0.278-0.887-0.493c-0.32-0.252-0.684-0.522-0.932-0.847c-0.245-0.321-0.289-0.659-0.4-1.034
			c-0.546,0.04-0.851-0.272-1.131-0.666c-0.306-0.431-0.678-0.709-1.027-1.09c-0.291-0.318-0.32-0.719-0.53-1.089
			c-0.228-0.401-0.596-0.771-0.89-1.12c-0.279-0.331-0.531-0.684-0.652-1.136c-0.114-0.423-0.187-0.987-0.609-1.231
			c-0.202-0.117-0.544-0.133-0.757-0.195c-0.243-0.07-0.496-0.139-0.818-0.11c-0.356,0.031-0.425,0.241-0.689,0.334
			c-0.368,0.129-0.804-0.165-1.035-0.405c-0.26-0.27-0.45-0.606-0.706-0.889c-0.102-0.112-0.157-0.292-0.332-0.324
			c-0.197-0.036-0.129,0.09-0.299,0.144c-0.376,0.121-0.735,0.004-1.127,0.041c-0.433,0.041-0.419,0.243-0.639,0.627
			c-0.2-0.217-0.203-0.518-0.406-0.742c-0.163-0.18-0.36-0.23-0.445-0.485c-0.066-0.198,0.047-0.454-0.039-0.645
			c-0.108-0.238-0.523-0.49-0.744-0.586c-0.042,0.359,0.517,1.861-0.335,1.358c-0.291-0.172-0.526-0.472-0.835-0.655
			c-0.272-0.162-0.535-0.288-0.756-0.501c-0.328-0.315-0.726-0.986-0.824-1.425c-0.074-0.328-0.128-1.266,0.086-1.56
			c0.159-0.219,0.558-0.329,0.789-0.515c0.24-0.193,0.205-0.349,0.099-0.646c-0.084-0.235-0.129-0.444-0.115-0.706
			c0.375-0.013,0.394,0.465,0.584,0.62c0.147-0.302,0.248-0.452,0.615-0.5c0.114-0.014,0.315-0.053,0.424-0.006
			c0.062,0.027,0.121,0.169,0.206,0.181c0.142,0.02,0.139-0.076,0.164-0.185c0.027-0.117,0.105-0.319,0.107-0.439
			c0.002-0.158-0.112-0.246-0.216-0.359c-0.183-0.197-0.337-0.421-0.515-0.617c-0.237,0.146-0.155,0.6-0.545,0.604
			c-0.138,0.002-0.263-0.102-0.388-0.127c-0.172-0.034-0.163,0.05-0.329,0.103c-0.206,0.066-0.639-0.096-0.66-0.341
			c-0.011-0.124,0.038-0.151,0.125-0.217c0.031-0.024,0.088-0.007,0.127-0.039c0.064-0.052,0.077-0.16,0.142-0.219
			c0.269-0.244,0.6-0.216,0.908-0.11c0.25,0.086,0.685,0.071,0.713-0.275c0.02-0.245-0.478-0.353-0.321-0.597
			c0.099-0.154,0.37,0.004,0.528-0.038c0.063-0.016,0.163-0.116,0.222-0.148c0.129-0.071,0.26-0.112,0.398-0.161
			c0.223-0.08,0.558-0.281,0.745-0.043c0.083,0.106,0.083,0.24,0.075,0.367c-0.002,0.032-0.071,0.253-0.058,0.279
			c0.056,0.108,0.375,0.057,0.479,0.013c-0.026,0.232,0.196,0.38,0.264,0.599c0.093,0.303,0.135,0.607,0.125,0.93
			c-0.549-0.076-0.381,0.673-0.467,0.968c-0.067,0.23-0.359,0.447-0.337,0.684c0.028,0.293,0.404,0.228,0.641,0.285
			c0.202,0.049,0.557,0.192,0.756,0.041c0.32-0.243,0-0.652-0.105-0.914c-0.144-0.36-0.147-0.592-0.076-0.97
			c0.064-0.342-0.054-0.547-0.141-0.863c-0.121-0.44-0.266-0.806-0.468-1.22c-0.218-0.449-0.47-1.063-0.436-1.572
			c-0.369-0.026-0.246-1.279-0.22-1.612c0.049-0.631,0.24-0.986,0.684-1.422c0.337-0.331,0.655-0.609,0.733-1.091
			c0.062-0.382-0.142-1.285-0.353-1.616c-0.298-0.469-1.076-0.316-1.312-0.726c-0.191-0.332-0.069-1.664,0.002-2.056
			c0.133-0.73,0.587-0.699,1.026-1.135c0.442-0.439,0.194-1.03,0.497-1.503c0.085-0.133,0.282-0.216,0.374-0.33
			c0.075-0.094,0.113-0.284,0.207-0.38c0.273-0.278,0.372-0.179,0.728-0.371c0.287-0.155,0.565-0.683,0.967-0.582
			c0.414,0.104,0.297,0.617,0.445,0.933c0.704-0.248,0.58-1.355,1.341-1.654c0.51-0.201,1.705,0.106,2.087-0.351
			c0.258-0.307-0.276-0.51-0.149-0.876c0.147-0.423,0.452,0.052,0.781,0.134c0.289,0.072,0.909,0.028,1.199-0.038
			c0.575-0.132,0.495-0.517,0.805-0.93c-0.162-0.65-0.672-1.827,0.144-2.248c0.42-0.217,0.76,0.004,1.102-0.292
			c0.215-0.187,0.396-0.531,0.549-0.781c0.226-0.368,0.371-0.509,0.659-0.767c0.228-0.204,0.392-0.679,0.71-0.689
			c0.136-0.004,0.7,0.283,0.845,0.33c0.144,0.048,0.191,0.203,0.374,0.201c0.274-0.002,0.392-0.236,0.636-0.252
			c0.391-0.026,1.024,0.211,1.427,0.298c0.8,0.172,0.439,0.203,0.546,0.872c0.334,0.029,0.497-0.605,0.894-0.678
			c0.645-0.118,1.067,0.511,1.296-0.438c0.096-0.399-0.025-0.896,0.421-1.103c0.158-0.073,0.681-0.076,0.802,0.034
			c0.189,0.172,0.125,0.638,0.311,0.869c0.238,0.295,0.734,0.544,1.109,0.54c0.169-0.505,0.014-0.973,0.323-1.464
			c0.393-0.625,0.845-0.751,1.552-0.897c0.313-0.064,0.747,0.013,1.029-0.124c0.358-0.173,0.391-0.515,0.607-0.806
			c0.433-0.584,1.072-0.087,1.642-0.529c0.672-0.521,0.84-1.214,1.727-1.526c0.611-0.215,1.11,0.334,1.584-0.178
			c0.274-0.297,0.597-0.972,0.589-1.38c-0.006-0.28-0.038-0.443-0.222-0.704c-0.266-0.376-0.216-0.17-0.56-0.348
			c-0.553-0.286-0.539-0.988-0.257-1.564c0.101-0.206,0.308-0.598,0.579-0.588c0.105,0.004,0.305,0.293,0.439,0.33
			c0.261-0.768,1.022-0.799,1.702-1.035c0.297-0.103,1.782-0.295,1.91-0.614c0.356-0.124,0.548-0.233,0.924-0.336
			c0.547-0.151,0.844-0.37,1.172-0.814c0.27-0.366,0.672-0.635,1.004-0.943c0.251-0.233,0.654-0.502,0.783-0.813
			c0.091-0.22,0.273-0.278,0.502-0.381c0.239-0.108,0.444-0.011,0.689-0.091c0.514-0.166,0.655-0.907,1.247-0.944
			c0.546-0.034,0.728,0.422,1.322-0.023c0.493-0.37,0.574-0.849,0.743-1.37c0.166-0.511,0.631-0.771,0.844-1.279
			c0.217-0.518,0.162-1.233,0.456-1.698c0.299-0.471,0.638-0.642,0.741-1.266c0.092-0.559,0.051-1.085,0.349-1.595
			c0.968-1.656,1.536,0.154,2.595,0.366c0.403-0.575,0.405-1.343,0.792-1.954c0.444-0.703,0.836-0.544,1.463-0.857
			c0.753-0.376,1.165-0.996,2.05-1.228c0.32-0.084,0.741-0.046,1.033-0.158c0.253-0.096,0.329-0.277,0.557-0.442
			c0.131-0.094,0.283-0.016,0.416-0.132c0.158-0.139,0.2-0.39,0.33-0.557c0.237-0.303,0.556-0.48,0.94-0.532
			c0.383-0.052,0.446,0.141,0.792,0.165c0.316,0.022,0.594-0.199,0.97-0.211c0.361-0.012,0.778-0.048,1.13,0.045
			c0.502,0.132,0.469,0.352,0.746-0.21c0.197-0.401,0.192-0.789,0.22-1.216c0.026-0.405,0.143-0.366,0.256-0.636
			c0.439-1.057,0.218-1.713-0.335-2.667c-0.145-0.25-0.365-0.541-0.413-0.815c-0.084-0.47,0.128-1.266,0.2-1.728
			c0.055-0.36-0.054-0.774,0.096-1.11c0.213-0.478,0.257-0.388,0.025-0.852c-0.209-0.418-0.254-0.597-0.222-1.041
			c0.023-0.326-0.006-0.762,0.013-1.159c0.022-0.434-0.071-0.936-0.011-1.358c0.068-0.469,0.543-0.443,0.582-0.842
			c0.031-0.313-0.415-0.542-0.339-0.853c0.068-0.277,0.157-0.133,0.345-0.301c0.3-0.267,0.653-0.746,0.193-1.139
			c0.549-0.355,0.464-0.352,0.628-0.964c0.614,0.027,0.435-1.053,0.45-1.415c0.401,0.104,0.561-0.492,0.38-0.766
			c-0.179-0.272-0.777-0.214-1.016-0.405c-0.477-0.382-0.768-0.815-1.319-1.129c-0.461-0.263-0.737-0.564-1.09-0.965
			c-0.277-0.315-0.822-0.617-0.793-1.061c0.01-0.167,0.191-0.362,0.221-0.548c0.038-0.232-0.041-0.459-0.063-0.685
			c-0.038-0.38-0.202-1.079-0.082-1.447c0.11-0.337,0.473-0.541,0.587-0.919c0.131-0.433,0.254-0.77,0.293-1.231
			c0.052-0.597,0.419-1.189,0.631-1.737c0.117-0.303,0.568-0.278,0.807-0.444c0.363-0.253,0.319-0.363,0.369-0.751
			c0.064-0.492,0.067-1.074,0.191-1.542c0.124-0.467,0.484-0.864,0.93-1.075c0.642-0.304,0.743,0.145,1.265,0.406
			c0.2-0.205,0.178-0.618,0.306-0.887c0.529,0.046,0.362-0.35,0.478-0.633c0.098-0.24,0.211-0.359,0.295-0.61
			c0.106-0.319,0.094-0.62,0.23-0.954c0.159-0.388,0.156-0.608,0.135-1.035c-0.052-1.101,0.309-1.254,1.297-0.982
			c0.817,0.225,0.481-0.746,0.828-1.26c0.093-0.138,0.289-0.201,0.245-0.398c-0.037-0.162-0.344-0.197-0.135-0.423
			c0.14-0.15,0.394-0.031,0.478-0.246c0.102-0.261-0.196-0.328-0.307-0.493c-0.179-0.266-0.066-0.353,0.173-0.345
			c0.319,0.011,0.273,0.008,0.304-0.329c0.013-0.138,0.089-0.555,0.344-0.456c0.218,0.084,0.083,0.574,0.29,0.66
			c0.296,0.123,0.234-0.388,0.22-0.529c-0.03-0.3,0.016-0.182,0.164-0.425c0.064-0.106,0.05-0.174,0.058-0.314
			c0.303,0.066,0.146-0.574,0.295-0.729c0.247-0.257,0.258,0.388,0.529,0.388c0.025-0.549,0.024-1.457,0.616-1.746
			c0.19-0.092,0.486-0.108,0.689-0.063c0.36,0.081,0.449,0.455,0.761,0.608c0.249,0.122,0.499,0.135,0.516-0.201
			c0.016-0.314-0.426-0.378-0.359-0.674c0.055-0.242,0.379-0.336,0.568-0.366c0.302-0.048,0.59-0.234,0.705-0.489
			c-0.139-0.083-0.244-0.341-0.215-0.494c0.034-0.184,0.065-0.347,0.196-0.487c0.191-0.204,0.471-0.339,0.533-0.636
			c0.037-0.178,0.024-0.287,0.138-0.438c0.085-0.112,0.178-0.23,0.271-0.336c0.147-0.169,0.366-0.247,0.517-0.41
			c0.105-0.114,0.177-0.261,0.276-0.382c0.167-0.205,0.332-0.436,0.448-0.675c0.064-0.132,0.084-0.216,0.224-0.291
			c0.126-0.067,0.426-0.215,0.519-0.045c0.047,0.087,0.011,0.266,0.017,0.356c0.01,0.128,0.045,0.222,0.085,0.341
			c0.108,0.329-0.346,0.831,0.016,1.057c0.149,0.092,0.378,0.129,0.408-0.094c0.023-0.178-0.079-0.327,0.043-0.481
			c0.069-0.088,0.155-0.117,0.236-0.181c0.144-0.114,0.258-0.159,0.368-0.339c0.171-0.282,0.087-0.672,0.218-0.98
			c0.089-0.209,0.194-0.384,0.444-0.343c0.112,0.019,0.186,0.14,0.286,0.149c0.194,0.016,0.304-0.169,0.341-0.334
			c0.073-0.322-0.033-0.376-0.259-0.477c-0.246-0.11-0.329-0.073-0.342-0.326c-0.008-0.146,0.152-0.382,0.236-0.5
			c0.209-0.291,0.241-0.275,0.223-0.637c-0.008-0.162-0.052-0.382,0.121-0.472c0.089,0.069,0.131,0.184,0.222,0.252
			c0.156,0.117,0.35,0.079,0.537,0.11c0.175,0.03,0.486,0.291,0.631,0.232c0.168-0.068,0.276-0.568,0.389-0.713
			c0.145-0.187,0.187-0.172,0.44-0.166c0.168,0.004,0.52-0.018,0.666,0.077c0.095,0.062,0.102,0.181,0.156,0.261
			c0.141,0.212,0.35,0.272,0.603,0.321c0.435,0.084,0.975,0.022,1.239,0.426c0.15,0.229,0.544,0.809,0.438,1.09
			c-0.082,0.216-0.686,0.366-0.307,0.512c0.293,0.113,0.397-0.221,0.602-0.35c0.347-0.22,0.786-0.172,1.16-0.323
			c0.328-0.133,0.604-0.366,0.935-0.508C184.461,31.918,184.197,31.771,184.058,31.61z"/>
		<path fill="#1E8346" d="M24.1,185.081c0.133-0.015,0.26-0.06,0.366-0.143c0.155-0.122,0.166-0.281,0.244-0.449
			c0.069-0.148,0.164-0.309,0.258-0.441c0.106-0.149,0.261-0.19,0.436-0.224c0.235-0.045,0.31-0.263,0.265-0.506
			c-0.067-0.362-0.543-0.572-0.859-0.593c-0.301-0.02-0.615-0.005-0.911,0.057c-0.198,0.041-0.318,0.171-0.504,0.224
			c-0.169,0.047-0.399,0.113-0.566,0.03c-0.094-0.046-0.208-0.175-0.396-0.016c-0.043,0.281-0.121,0.451,0.034,0.709
			c0.079,0.131,0.204,0.254,0.257,0.401c0.037,0.102,0.015,0.196,0.026,0.304C22.805,184.976,23.689,185.129,24.1,185.081z"/>
		<path fill="#1E8346" d="M25.336,187.648c-0.012-0.07-0.151-0.206-0.204-0.253c-0.151-0.131-0.488-0.3-0.585-0.034
			c-0.068,0.187-0.146,0.606-0.442,0.58c-0.218-0.025-0.545,0.139-0.403,0.389c0.054,0.094,0.188,0.188,0.265,0.263
			c0.109,0.107,0.23,0.231,0.359,0.314c0.194,0.124,0.566,0.011,0.696-0.167c0.162-0.223-0.011-0.529,0.036-0.769
			C25.086,187.821,25.364,187.809,25.336,187.648z"/>
		<path fill="#1E8346" d="M26.093,189.638c-0.094,0.014-0.206,0.022-0.297,0.05c-0.082,0.026-0.149,0.094-0.226,0.122
			c-0.252,0.056-0.453,0.506-0.195,0.66c0.135,0.081,0.226-0.035,0.321-0.117c0.107-0.092,0.192-0.149,0.333-0.189
			c0.164-0.046,0.816-0.15,0.594-0.409C26.475,189.583,26.297,189.609,26.093,189.638z"/>
		<path fill="#1E8346" d="M33.438,187.672c-0.245,0.069-0.113,0.256-0.2,0.429c-0.11,0.219-0.3,0.055-0.525,0.048
			c-0.215,0.197-0.396,0.397-0.203,0.68c0.135,0.197,0.558,0.184,0.757,0.075c0.169-0.093,0.311-0.245,0.469-0.35
			c0.15-0.1,0.141-0.196,0.164-0.37c0.018-0.131,0.075-0.367-0.034-0.472C33.764,187.612,33.557,187.639,33.438,187.672z"/>
		<path fill="#1E8346" d="M37.397,188.289c-0.236,0.077-0.501,0.17-0.697,0.325c-0.112,0.088-0.231,0.171-0.339,0.266
			c-0.11,0.096-0.133,0.179-0.173,0.313c-0.059,0.196-0.143,0.475,0.115,0.571c0.079,0.03,0.213,0.04,0.281-0.02
			c0.057-0.05,0.047-0.163,0.173-0.218c0.252-0.073,0.327-0.415,0.566-0.522c0.147-0.066,0.428-0.071,0.506-0.233
			c0.056-0.116,0.039-0.284-0.009-0.402C37.737,188.166,37.582,188.228,37.397,188.289z"/>
		<path fill="#1E8346" d="M41.308,189.965c-0.091,0.145-0.329,0.213-0.476,0.28c-0.192,0.087-0.341,0.174-0.465,0.345
			c-0.048,0.066-0.093,0.128-0.166,0.168c-0.079,0.043-0.194,0.055-0.265,0.109c-0.106,0.081-0.016,0.127-0.002,0.223
			c-0.144,0.015-0.245-0.076-0.383-0.072c-0.291,0.009-0.24,0.155-0.314,0.383c-0.038,0.116-0.108,0.178-0.188,0.268
			c-0.112,0.124-0.216,0.255-0.322,0.384c-0.056,0.069-0.108,0.13-0.179,0.184c-0.054,0.041-0.11,0.07-0.136,0.137
			c-0.092,0.234,0.201,0.304,0.365,0.311c0.13,0.006,0.238-0.035,0.358-0.083c0.196-0.077,0.385-0.145,0.562-0.263
			c0.324-0.214,0.534-0.562,0.821-0.824c0.234-0.214,0.459-0.414,0.661-0.659c0.163-0.198,0.349-0.394,0.393-0.659
			C41.598,190.043,41.55,189.953,41.308,189.965z"/>
		<path fill="#1E8346" d="M41.876,189.261c0.238-0.28,0.531-0.516,0.705-0.846c0.034-0.065,0.102-0.269,0.037-0.324
			c-0.069-0.059-0.145,0.035-0.224,0.021c-0.025,0.067-0.09,0.129-0.142,0.179c-0.064,0.061-0.124,0.126-0.185,0.192
			c-0.103,0.113-0.213,0.223-0.333,0.319c-0.105,0.084-0.203,0.172-0.244,0.304c-0.025,0.081-0.032,0.303,0.055,0.352
			C41.641,189.51,41.826,189.319,41.876,189.261z"/>
		<path fill="#1E8346" d="M27.384,163.811c-0.166,0.118-0.304,0.115-0.507,0.083c-0.459,0.379-0.519,0.806-0.03,1.05
			c0.502,0.251,0.345-0.24,0.654-0.318c0.137-0.035,0.449,0.082,0.577,0.124c0.292,0.095,0.6,0.221,0.876,0.352
			c0.215,0.102,0.531,0.289,0.78,0.149c0.212-0.119,0.132-0.5,0.11-0.699c-0.027-0.245-0.101-0.51-0.298-0.667
			c-0.2-0.159-0.591-0.253-0.836-0.324c-0.24-0.069-0.623-0.12-0.877-0.047C27.651,163.565,27.531,163.706,27.384,163.811z"/>
		<path fill="#1E8346" d="M28.965,128.168c-0.042,0.061-0.067,0.137-0.128,0.183c-0.09,0.068-0.22,0.055-0.325,0.072
			c-0.231,0.039-0.508,0.181-0.587,0.42c-0.016,0.048-0.039,0.158-0.006,0.197c0.051,0.061,0.307,0.063,0.371,0.06
			c0.095-0.005,0.243-0.128,0.317-0.072c0.118,0.089-0.021,0.22-0.066,0.293c-0.171,0.277,0.333,0.316,0.295,0.614
			c-0.027,0.208-0.215,0.208-0.382,0.193c-0.139-0.012-0.213-0.018-0.297,0.104c-0.126,0.181-0.261,0.542-0.001,0.677
			c0.104,0.054,0.283,0.009,0.39-0.002c0.14-0.015,0.271-0.034,0.399-0.092c0.186-0.084,0.316-0.225,0.452-0.375
			c0.137-0.151,0.293-0.286,0.429-0.439c0.167-0.189,0.324-0.373,0.517-0.537c0.137-0.116,0.285-0.21,0.424-0.323
			c0.101-0.082,0.361-0.391,0.11-0.419c-0.098-0.011-0.219,0.028-0.295-0.053c-0.083-0.088-0.111-0.259-0.161-0.368
			c-0.057-0.123-0.184-0.277-0.205-0.409c-0.011-0.071,0.012-0.168,0.021-0.239c0.008-0.06,0.022-0.181,0.081-0.217
			c0.025-0.015,0.072-0.003,0.099-0.007c0.078-0.011,0.155-0.035,0.231-0.058c0.145-0.045,0.275-0.082,0.212-0.264
			c-0.13-0.374-0.801-0.421-1.114-0.309c-0.135,0.048-0.18,0.185-0.25,0.296c-0.067,0.106-0.187,0.186-0.222,0.31
			c-0.058,0.204,0.067,0.402,0.056,0.603C29.147,127.989,29.039,128.059,28.965,128.168z"/>
		<path fill="#1E8346" d="M24.427,130.747c0.159,0.067,0.228-0.068,0.285-0.2c0.027-0.063,0.034-0.14,0.076-0.193
			c0.021-0.027,0.063-0.033,0.085-0.06c0.208-0.261-0.137-0.484-0.39-0.703c-0.028,0.256-0.343,0.356-0.342,0.632
			C24.142,130.407,24.244,130.669,24.427,130.747z"/>
		<path fill="#1E8346" d="M21.922,129.121c-0.1,0.1-0.291,0.543,0.013,0.443c0.168-0.056,0.311-0.33,0.508-0.293
			c0.151,0.027,0.207,0.166,0.392,0.139c0.167-0.024,0.118-0.192,0.235-0.253c0.094-0.049,0.178,0.091,0.228,0.157
			c0.065,0.086,0.152,0.218,0.264,0.233c0.17,0.021,0.435-0.127,0.532-0.261c0.156-0.216,0.476-0.408,0.484-0.7
			c0.008-0.284-0.272-0.292-0.478-0.347c-0.101-0.027-0.272-0.086-0.349,0c-0.027,0.03-0.036,0.107-0.059,0.145
			c-0.116,0.192-0.311,0.024-0.47-0.021c-0.203-0.058-0.401,0.026-0.547,0.158c-0.088,0.08-0.17,0.259-0.085,0.367
			C22.442,128.735,22.034,129.01,21.922,129.121z"/>
		<path fill="#1E8346" d="M22.615,133.131c0.093-0.124,0.135-0.199,0.013-0.307c-0.079-0.07-0.176-0.137-0.349-0.129
			c-0.121,0-0.533-0.063-0.522,0.14c0.005,0.101,0.103,0.222,0.138,0.318c0.029,0.082,0.049,0.252,0.128,0.297
			C22.17,133.534,22.539,133.234,22.615,133.131z"/>
		<path fill="#1E8346" d="M26.505,132.819c0.112,0.146,0.145-0.071,0.223-0.114c0.139-0.078,0.302,0.027,0.32-0.197
			c0.013-0.165-0.25-0.349-0.456-0.335c0.087,0.041-0.049,0.234-0.077,0.289C26.47,132.55,26.435,132.729,26.505,132.819z"/>
	</g>
</g>
</svg>
