<?xml version="1.0" encoding="utf-8"?>
<!-- Generator: Adobe Illustrator 26.0.3, SVG Export Plug-In . SVG Version: 6.00 Build 0)  -->
<svg version="1.1" id="Layer_1" xmlns="http://www.w3.org/2000/svg" xmlns:xlink="http://www.w3.org/1999/xlink" x="0px" y="0px"
	 viewBox="0 0 200 200" enable-background="new 0 0 200 200" xml:space="preserve">
<g id="Layer_1_00000005224415263413307750000009989354628370930860_">
	<g id="Layer_1_00000107551159852787612550000017757744099325915571_">
		<g id="Layer_1_00000128480095285341338950000008464522443776971395_">
		</g>
	</g>
</g>
<g id="Isolation_Mode_00000063621668281934077600000006196874878142535819_">
	<g>
		<path fill="#1E8346" d="M27.591,77.2v0.003c0.01-0.001,0.019-0.001,0.028-0.002C27.609,77.201,27.6,77.2,27.591,77.2z"/>
		<path fill="#1E8346" d="M193.904,94.691c-0.379-0.161-0.885-0.007-1.215-0.182c-0.131-0.419-0.577-0.521-0.347-1.032
			c-0.07-0.146-0.36-0.164-0.484-0.292c-0.164-0.123,0.065-0.326-0.029-0.451c-0.137-0.09-0.023-0.187-0.06-0.296
			c-0.321-0.285-0.994,0.169-1.132-0.358c0.235-0.155,0.417-0.387,0.57-0.595c0.115,0.038,0.241,0.002,0.312-0.129
			c-0.081-0.234-0.078-0.412,0.009-0.655c-0.315,0.113-0.478-0.294-0.857-0.104c0.139,0.361,0.024,0.687-0.357,0.831
			c-0.203,0.242-0.38,0.657-0.736,0.686c-0.501-0.108-0.472,0.582-0.662,0.908c-0.207-0.016-0.223-0.234-0.357-0.353
			c-0.389-0.195-1.08,0.591-0.882-0.264c-0.292-0.161-0.523,0.233-0.725-0.103c-0.294-0.092-0.646,0.341-0.773-0.139
			c-0.051-0.344-0.511,0.128-0.768-0.115c-0.397-0.388-0.508,0.323-0.892,0.056c0.014-0.176-0.099-0.159-0.215-0.226
			c-0.091-0.27,0.051-0.619-0.086-0.873c-0.396-0.187-0.284-0.703-0.623-0.96c-0.107-0.081-0.32-0.017-0.366-0.159
			c-0.216-0.596,0.505-0.651,0.185-1.104c-0.121-0.097-0.348-0.024-0.355-0.227c-0.12,0.044-0.171,0.01-0.285-0.058
			c-0.241,0.191-0.235-0.317-0.437-0.29c-0.429,0.06-0.596-0.9-1.042-0.397c-0.166-0.112-0.329-0.283-0.519-0.36
			c-0.24,0.619-0.613-0.001-0.861-0.25c-0.039-0.403,0.012-0.896-0.279-1.258c0.465-0.789-0.347-0.47-0.211-1.129
			c-0.297,0.018-0.307-0.216-0.402-0.424c-0.305-0.248-0.775-0.5-0.455-0.905c-0.429-0.222-0.675-0.749-1.22-0.79
			c-0.114-0.012-0.137-0.222-0.204-0.299c-0.1-0.1-0.22,0.026-0.311-0.121c-0.125,0.224-0.292-0.134-0.42,0.072
			c-0.057-0.177-0.138-0.294-0.34-0.289c0.125-0.289-0.208-0.224-0.317-0.066c-0.048-0.034-0.068-0.116-0.091-0.164
			c-0.243-0.05-0.452,0.005-0.633,0.164c-0.106-0.008-0.148-0.173-0.299-0.126c-0.175,0.002-0.092,0.235-0.152,0.33
			c-0.237,0.194-0.539,0.292-0.653,0.594c-0.184-0.049-0.229-0.202-0.467-0.087c-0.248-0.374-1.044-0.193-0.603,0.295
			c-0.128,0.277-1.08,1.146-1.297,0.712c-0.214,0.045-0.341-0.053-0.498-0.175c-0.044,0.084-0.143,0.136-0.188,0.225
			c-0.249-0.382-0.349,0.237-0.652,0.12c-0.523-0.076-1.158-0.82-1.68-0.252c-0.118-0.357-0.186-0.529-0.316-0.047
			c-0.276,0.244-0.955,0.28-1.341,0.159c0.009-0.355,0.219-0.659-0.138-0.886c0.107-0.291-0.012-0.439-0.044-0.721
			c-0.574-0.086-1.051,0.278-1.617,0.274c-0.075-0.651,0.553-1.062,0.497-1.691c0.013-0.352-0.254-0.353-0.403-0.103
			c-0.251-0.04-0.877-0.247-0.651-0.554c-0.524,0.074-1.141-0.739-1.425-0.115v0.439c-0.009,0.015-0.011,0.032-0.005,0.051h-0.853
			c-0.072,0.132-0.119,0.721,0.165,0.738v0.967c-0.155,0.125-0.382,0.067-0.469,0.314c-0.165,0.125-0.432,0.03-0.612,0.095
			c-0.046,0.104-0.085,0.147-0.211,0.138c-0.154,0.083-0.034,0.409-0.155,0.523c-0.158,0.027-0.384,0.048-0.46-0.125
			c0.05,0.256,0.013,0.538,0.013,0.798c-2.461-5.67-6.796-14.009-10.063-19.221c-1.515-1.427-4.66-4.183-6.274-5.495
			c-0.125-0.236-0.825-1.315-0.32-1.301c0.196,0.03,0.565,0.212,0.655-0.068c0.049,0.1,0.014,0.459,0.192,0.316
			c0.12-0.178,0.437-0.154,0.446-0.39c-0.032-0.184,0.253-0.217,0.296-0.4c0.018-0.248,0.033-0.423,0.252-0.585
			c-0.033-0.163,0.004-0.525-0.252-0.49c-0.069,0.008-0.199,0.045-0.207-0.062c0.113-0.288,0.902-0.135,0.728-0.575
			c-0.196-0.314-0.48,0.198-0.718,0.199c-0.379-0.084-0.314,0.363-0.543,0.55c-0.56,0.152-1.252,0.325-1.835-0.072
			c-0.093,0.138-0.151,0.273-0.295,0.37c-0.021,0.161,0.271,0.26,0.015,0.412c0,0-2.728,1.253-2.728,1.253
			c-0.332-0.074-0.565-0.103-0.853,0.133c-0.51,0.142,0.238,0.524,0,0.821c-0.328,0.15-1.47,1.193-1.76,1.463
			c-0.133-0.172-1.192-0.381-1.2-0.185c-0.05,0.186-0.112,0.375-0.148,0.561l-0.42-0.089l-0.153,0.706l-0.82-0.178l-0.184,0.75
			c0.081,0.079,0.209,0.104,0.286,0.178l-0.407,0.896l-0.452-0.28c0.058-0.162,0.044-0.224-0.096-0.294
			c0.123-0.287-0.273-0.528-0.554-0.594c-0.001,0.109,0.047,0.295-0.025,0.385c-0.157,0.012-0.323-0.05-0.458-0.126
			c0.295-0.588-0.187-0.519-0.651-0.601c-0.207,0.049-0.305,0.396-0.425,0.566c-0.164-0.171-0.529-0.425-0.729-0.195
			c-0.083,0.119-0.003,0.371-0.202,0.384c-0.305-0.125-0.56,1.356-1.168,0.711c0.438-0.673-0.165-0.559-0.622-0.807
			c0.052-0.194,0.243-0.324,0.25-0.539c-0.152-0.036-0.125-0.2-0.104-0.322c0.404,0.126,0.395-0.654,0.357-0.907
			c0.155-0.038,0.293-0.166,0.458-0.16c-0.21-0.865,0.731-0.262,1.143-0.349c0.221-0.463,0.254-1.036,0.396-1.532
			c-0.13-0.014-0.294,0.021-0.414-0.045c0.006-0.019-0.004-0.044,0.004-0.064c-0.081-0.026-0.14-0.056-0.225-0.035
			c0.236,0.411-0.231,0.545-0.544,0.514c-0.148,0.101,0.17,0.376,0.088,0.455c-0.191,0.032-0.44-0.125-0.599-0.237
			c0.037,0.352-0.286,0.221-0.535,0.263c-0.391-0.386-1.129-0.097-1.099-0.788c-0.339-0.008-0.388-0.127-0.306-0.451
			c-0.261-0.059-0.734,0.145-0.756-0.18c-0.31-0.005-0.644-0.008-0.951-0.08c-0.025,0.107-0.15,0.086-0.215,0.101
			c-0.029,0.17-0.262,0.553-0.075,0.644c0.393-0.351,0.938,0.195,0.73,0.666c-0.792-0.16-0.74-0.332-1.081,0.49
			c-0.834-0.31-0.081-0.754-0.298-1.238c-0.11-0.048-0.071-0.117-0.029-0.196c0.015-0.095-0.031-0.042-0.107-0.078
			c-0.172-0.148,0.086-0.202,0.192-0.136c0.006-0.049-0.042-0.107-0.011-0.149c0.131-0.003,0.254,0.091,0.373,0.108
			c0.073-0.169-0.018-0.277-0.141-0.336c-0.48-0.09-1.062-0.204-0.632-0.767c-0.075-0.003-0.151-0.012-0.226-0.014
			c0.271-0.681-0.597-1.052-1.168-0.921c0.01,0.094,0.035,0.179,0.013,0.274c0.24-0.095,0.597,0.299,0.33,0.461
			c-0.283,0.388,0.201,0.553,0.463,0.708c0.09,0.404-0.32,0.676-0.489,0.194c0.119-0.186-0.046-0.141-0.161-0.223
			c-0.235-0.567-0.845-0.247-1.282-0.533c-0.706,0.17,0.314,1.179-0.643,1.209c-0.144,0.073-0.205-0.06-0.261-0.14
			c-0.173-0.011-0.346,0.106-0.521,0.103V57.85c-0.164-0.054-0.525,0.091-0.503-0.173c-0.485-0.101-0.526,0.487-0.94,0.673
			c-0.149-0.134-0.311-0.3-0.185-0.5c-0.158-0.021-0.051-0.218-0.206-0.218c-0.117,0.006-0.219-0.089-0.072-0.153v-0.528h-0.351
			v-0.496l0.49,0.006c0,0.029,0,0.059,0.001,0.088c0.111,0.042,0.308,0.166,0.413,0.052v-0.282c0.035,0,0.138,0,0.153-0.023v-0.407
			c-0.047,0-0.081,0.004-0.121-0.025v-0.382c-0.042-0.004-0.083-0.022-0.127-0.019l-0.019-0.802
			c0.221-0.199,0.134-0.434,0.573-0.349v-0.503h-0.243c0.051-0.204-0.196-0.11-0.159-0.305h-0.452
			c-0.161-0.354-0.516-0.662-0.442-1.105c-0.126-0.211-0.405-0.401-0.178-0.675c0.137-0.149,0.135-0.296,0.051-0.473
			c0.078-0.234,0.172-0.715-0.219-0.667c0.286-0.614-0.554-1.001-0.654-1.664c0.013,0.003,0.029-0.002,0.041,0
			c-0.312-0.555-1.224,0.656-1.652-0.103c-0.276,0.29-0.213,0.705-0.707,0.81c-0.284,0.5-0.855,0.239-1.116-0.156
			c-0.713,0.091-0.735-0.884-1.385-1.053c-0.486-0.421-0.996,0.074-1.479-0.058c-0.006-0.068-0.067-0.079-0.126-0.078
			c0.015-0.709-0.65,0.254-1.01,0.187c-0.095-0.498-0.495-0.861-0.996-0.825c-0.136-0.325-0.293,0.122-0.283,0.284
			c-0.11,0.307,0.134,0.216,0.302,0.266c0.07,0.185,0.068,0.411,0.085,0.614c-0.469-0.035-1.275-1.328-1.375-0.215
			c-0.046,0.195-0.183,0.332-0.345,0.421c-0.079,0.155,0.184,0.222,0.078,0.39c-0.072,0.205-0.173,0.128-0.279-0.001
			c-0.264-0.041-0.517,0.232-0.795,0.116c-0.327-0.229-0.24,0.393-0.525-0.003c-0.148-0.063-0.231,0.076-0.334,0.089
			c-0.062-0.008-0.263-0.156-0.27,0.015c0.048,0.127,0.323,0.199,0.109,0.315c0.041,0.153,0.203,0.256,0.314,0.34
			c0.349,0.45,0.141,0.214-0.114,0.523c0.001,0.15-0.003,0.282-0.14,0.388c0.093,0.458-0.938,0.331-1.236,0.196
			c-0.431-0.251-0.689,0.161-0.76,0.542c-0.565,0.692-1.576,0.27-2.282,0.329c-0.026,0.536-0.813,0.15-1.02,0.583
			c-1.68,0.163-3.392,0.752-5.074,1.311c-0.081-0.22,0.054-0.486,0.062-0.72c-0.949-0.18-0.6,1.256-1.435,0.657
			c-0.284-0.031-0.599-0.068-0.875-0.088c-0.285,0.183,0.321,0.398-0.004,0.596c-0.489-0.221-0.68-0.079-1.206,0.306
			c-0.02,0.179,0.044,0.37-0.046,0.54c-0.076,0.298,0.455,0.902,0.006,1c-0.586,0.132-0.749-0.312-1.147-0.642
			c-0.471,0.101-1.194,0.888-1.563,0.183c-0.043,0.042-0.041,0.11-0.074,0.16c-0.234-0.038-0.335,0.258-0.618,0.14
			c-0.096,0.169-0.108,0.304-0.354,0.132c-0.384-0.134-0.806,0.155-1.143,0.265c-0.301-0.119-0.388-0.013-0.562,0.198
			c-0.075-0.29-0.302,0.017-0.165,0.158c0.344,0.725-0.705,0.599-0.841,0.039c-0.633-0.186-1.208,0.572-1.8,0.47
			c-0.156-0.07-0.106-0.011-0.221,0.054c-0.087,0.049-0.103-0.023-0.186-0.065c-0.133,0-0.284,0.059-0.423,0.029
			c-0.077,0.086-0.145,0.124-0.271,0.078c-0.407-0.121,0.081,0.586-0.48,0.653c-0.616-0.055-1.141-0.084-1.715,0.077
			c-0.192,0.17-0.627,0.106-0.574,0.444c0.231,0.37-0.16,0.599-0.175,0.911c-0.011,0.327-0.232-0.021-0.367-0.044
			c-0.237,0.066-0.231-0.206-0.285-0.373c-0.213-0.387,0.413-0.134,0.381-0.461c-0.238-0.233-0.596,0.022-0.875,0.008
			c-0.243-0.08-0.43-0.035-0.635,0.06c-0.293-0.25-0.364-0.169-0.685-0.049c-0.015,0.218,0.129,0.427,0.137,0.656
			c-0.38-0.007-0.992,0.075-0.754-0.491c-0.053-0.001-0.104,0.002-0.157,0.008c-0.032-0.054-0.041-0.125-0.085-0.171
			c-0.114,0.295-0.394,0.443-0.468,0.045c-0.117-0.105-0.267,0.2-0.349,0.016c-0.246,0.289-0.249,0.795-0.449,0.128
			c-0.295-0.146-0.515-0.23-0.379-0.604c-0.267-0.169-0.874,0.047-1.055,0.33c-0.111,0.169,0.173,0.358,0.126,0.564
			c0.088,0.491-0.62,0.536-0.476,0.007c-0.286-0.105-1.19,0.21-0.696,0.498c0.249,0.122,0.531-0.05,0.604,0.294
			c0.841,0.719,0.107,0.45-0.156,1.118c-0.098,0.023-0.152,0.049-0.254,0.036c-0.127,0.129,0.049,0.624-0.22,0.551
			c-0.108,0.014-0.095-0.1-0.092-0.174c-0.145,0.004-0.301,0.016-0.444,0.038c-0.042,0.096-0.04,0.227-0.047,0.331
			c0.323,0.064,0.796-0.109,1.049,0.101c0.031,0.197,0.196,0.294,0.38,0.336c0.225-0.001,0.59,0.161,0.737-0.041
			c0.149-0.314,0.594-0.179,0.876-0.15c0.23,0.28,0.267,0.669-0.15,0.704c0.103,0.344-0.808,0.535-0.768,0.133
			c-0.475-0.5-0.611,0.014-0.653,0.445c-0.305,0.16-0.358,0.595-0.214,0.908c0.162,0.356,0.582,0.201,0.89,0.26
			c0.328,0.012,0.433,0.382,0.684,0.489c0.513,0.212,0.607-0.577,0.995-0.221c0.246,0.723,1.009,0.691,1.61,0.89
			c0.42,0.2,0.51,1.082,0.064,1.248c-0.369,0.313-0.732,0.027-0.989-0.25c-0.387,0.018-0.775-0.027-1.039,0.353
			c-0.581-0.614-0.611-0.823-1.209-0.273c-0.649,0.033-0.325-0.624-1.127-0.057c-0.118,0.455-0.531-0.15-0.556,0.297
			c0.31,0.143,0.248,0.373-0.059,0.49c-0.233,0.134-0.244,0.539-0.599,0.448c0.105,0.239-0.195,0.523-0.446,0.54h-0.305v0.801
			c0.119,0.238,0.371,0.332,0.599,0.168c-0.02,0.046-0.002,0.831-0.008,0.883c0.671,0.046,0.715,0.12,0.662,0.778
			c0.034,0,0.063-0.005,0.091,0.011c0.051,0.227,0.456,0.574,0.052,0.671c-0.293,0.315-0.512,0.838-1.018,0.789
			c-0.214,0.062-0.277,0.444-0.442,0.527c0,0-0.913,0-0.913,0c-0.524,0.733-1.35,1.442-2.318,1.247
			c-0.148,0.283,0.25,0.53,0.282,0.827c-0.098,0.151,0.348,0.058,0.394,0.082c-0.009,0.031,0.017,0.058,0.032,0.083
			c0.047-0.094,0.062-0.202,0.009-0.3c0.468,0.345,1.033,0.8,1.66,0.769c0.087,0.207-0.147,0.212-0.261,0.317
			c-0.139,0.176-0.225,0.404-0.467,0.477c0.299,0.712,1.983,0.486,2.672,0.528c-0.161,0.309-0.058,0.63,0.067,0.94
			c0.116,0.019,0.219,0.002,0.225,0.166c0.397-0.042,0.596,0.26,0.953,0.086c0.208,0.191,0.479,0.114,0.729,0.151
			c0.123,0.194,0.325,0.18,0.522,0.202c0.175,0.045,0.184,0.235,0.208,0.384c0.084,0.391,0.582,0.456,0.778,0.783
			c-0.889-0.059-0.667,1.238-0.824,1.852c0.073,0.1,0.24,0.072,0.338,0.18c0.039-0.036,0.052-0.111,0.1-0.136
			c0.396,0.498-0.113,0.564-0.532,0.464c-0.109,0.324-0.125,0.669-0.225,0.993l-2.887,1.024l-2.302-0.102l-0.763-0.916l0.127-0.229
			l-0.674-0.159l-0.273,0.553l0.102,0.757C67.255,84.533,66.8,85,66.69,85.351l-0.924,0.025c-0.1,0.145-0.325,0.165-0.454,0.262
			c0.185-0.399-0.353-0.268-0.241-0.647c1.035,0.24,0.25-0.113,0.078-0.397c-0.086-0.144-0.276,0.046-0.403,0.024
			c-0.208-0.041-0.391-0.244-0.567-0.018c-0.378-0.712-1.59,0.08-1.91-0.655c-0.017-0.157-0.6-0.397-0.239-0.431
			c-0.023-0.303-0.446-0.222-0.643-0.227c-0.073-0.164,0.014-0.219,0.134-0.282c0.069-0.322-0.285-0.161-0.459-0.097
			c-0.081-0.245-0.119-0.741,0.109-0.834c-0.017-0.443-0.441-0.894-0.926-0.71c-0.318,0.034-0.296-0.473-0.346-0.691
			c-0.152-0.073-0.444,0.292-0.617,0.362c0.037,0.197-0.162,0.26-0.199,0.426c-0.1,0.023-0.278-0.056-0.358-0.11
			c-0.036-0.084-0.022-0.351-0.173-0.272c-0.165,0.143-0.474,0.357-0.605,0.076c-0.072-0.096-0.083-0.09-0.176-0.012
			c-0.21,0.211-0.269-0.173-0.401-0.245c-0.396,0.127-0.148,1.278-0.217,1.619c-0.399-0.014-1.094-0.335-1.157,0.335
			c-0.298-0.134-0.644-0.213-0.9-0.456c0.084-0.354-0.019-0.404-0.096-0.715c-0.104,0.005-0.184,0.029-0.27,0.081
			c0.038-0.204-0.107-0.873-0.402-0.606c-0.067,0.259-0.47,0.228-0.664,0.353c-0.155-0.074-0.317-0.34-0.45-0.064
			c-0.232,0.199-0.592-0.509-0.894-0.063c0.057,0.413,0.465,0.926-0.277,0.669c-0.153,0.046-0.206-0.103-0.253-0.219
			c-0.112-0.214-0.36-0.222-0.368-0.492c-0.457,0.112-0.25,0.493-0.267,0.844c-0.76-0.131,0.092,0.994-1.281,0.214
			c-0.242,0.897-0.201,1.834-1.237,2.165c-0.182,0.28-0.857,0.135-0.797,0.693c-0.594-0.09-0.439-0.361-0.998-0.53
			c0.07-0.361-0.305-0.354-0.57-0.466c0.013,0.101-0.079,0.155-0.098,0.236c-0.585-0.308-0.764-1.135-1.483-1.224
			c0.164-0.262,0.599-0.674-0.006-0.778c-0.271,0.209-0.478,0.154-0.794,0.01c0.025-0.181-0.047-0.272-0.218-0.315
			c-0.242-0.098-0.268-0.437-0.515-0.495c-0.259,0.089-0.498-0.026-0.725,0.09c-0.239,0.295,0.283,0.397-0.104,0.717
			c0.532-0.024,0.951,0.183,0.538,0.725c-0.013,0.508,0.229,0.999,0.26,1.508c-0.214,0.21-0.4,0.69-0.711,0.449
			c-0.047,0.18-0.254,0.206-0.315,0.019c-0.65-0.6-0.241-1.553,0.197-2.166c-0.141-0.13-0.306,0.009-0.45-0.021
			c-0.135-0.28-0.542-0.212-0.726-0.441c0.031-0.379-0.406-0.264-0.42-0.577c-0.259-0.247-0.133-0.669-0.407-0.901
			c-0.542-0.371-0.706-0.618-1.41-0.649c-0.21-0.064-0.595-0.06-0.637-0.346c-0.012-0.24-0.362-0.259-0.284-0.534
			c0.104-0.502-0.275-1.036-0.815-0.889c0.082-0.316-0.564-0.702-0.709-0.364c-0.161-0.088-0.268-0.234-0.486-0.152
			c0.002-0.032,0.002-0.07-0.009-0.102c-0.148,0.012-0.101,0.254-0.251,0.281c-0.255-0.102-0.361-0.071-0.584,0.114
			c-0.376,0.036-0.717-0.348-1.088-0.2c-0.259,0.139-0.531,0.152-0.754,0.34c-0.02-0.045-0.013-0.09-0.015-0.138
			c-0.06-0.024-0.134,0.016-0.191,0.037c-0.249-0.477-0.458-1.046-0.791-1.536c-0.124-0.521-0.013-1.134-0.536-0.413
			c-0.467-0.284-0.448,0.626-0.837,0.438c-0.313,0.023-0.523-0.151-0.859-0.086c-0.511,0.251-0.784,0.86-0.456,1.366
			c-0.247-0.01-0.282,0.277-0.507,0.288c-0.461,0.044,0-0.544-0.455-0.63c-0.203-0.203-0.216,0.438-0.503,0.458
			c-0.277,0.088-1.024,0.075-0.96-0.33c-0.107-0.031-0.22-0.078-0.16-0.228c0.188-0.041,0.397-0.05,0.592-0.043v-0.575
			c-0.421,0.147-0.486-0.671-0.857-0.204c-0.642-0.238-1.384,0.295-1.516-0.602c-0.124-0.102-0.278-0.104-0.422-0.143
			c-0.322,0.297,0.398,0.718,0.187,0.889c0.102,0.457-0.165,0.589-0.572,0.548c0.027-0.164,0.257-0.197,0.197-0.401
			c0.005-0.003-0.441,0-0.452-0.001c-0.402-0.489,0.013,0.455-0.442,0.233c-0.028,0.312,0.122,0.636,0.079,0.945
			c-0.188-0.021-0.348,0.037-0.309,0.253c-0.076,0.183-0.388,0.023-0.564,0.068c0.019,0.06,0.083,0.112,0.125,0.163
			c-0.333,0.111-0.234,0.346-0.098,0.602c-0.666,0.491-1.752,0.364-2.275,1.039c-0.29,0.583-0.757,0.603-1.341,0.562
			c-0.283-0.011-0.474,0.223-0.646-0.12c-0.264,0.291-0.345,0.654-0.519,1.019c0.289,0.128,0.632,0.742,0.35,1.029
			c-0.514-0.031-0.819,0.428-1.267,0.462c-0.709,0.566-1.524,2.026-2.475,0.891c-0.526,0.233,0.406,0.334,0.255,0.722
			c0.332,0.725,0.04,1.567,0.355,2.281c0.249,0.369,0.405,0.68,0.123,1.073c0.474-0.094,0.379,0.401,0.633,0.631
			c-0.532,0.532-2.045,1.592-2.68,1.126c-0.114-0.183-0.109,0.006-0.253,0.049c-0.275-0.256-0.241-0.713-0.559-0.986
			c-0.145-0.276,0.018-0.821-0.442-0.841c-0.413-0.482-0.564-1.383-1.279-1.7c-0.406-0.584-1.099-1.482-1.537-0.325
			c-0.074,0.504-1.133,0.357-0.49,1.006c-0.136,0.109-0.256,0.218-0.39,0.323c0.91,0.638,0.047,1.269-0.356,1.941L6.91,90.191
			l-0.585,3.782c1.479,0.536,1.547,2.319-0.031,2.766l-0.35,1.037c0.183,0.062,0.092,0.156,0.117,0.287
			C6.029,98.075,6,98.061,5.966,98.072c0.007,0.25-0.067,0.288-0.283,0.321l-0.689,1.906l0.653,0.352l0.199-0.017
			c0.07,0.285,1.803,0.755,2.035,0.856c-0.142,0.37,0.058,0.732-0.077,1.117c0.101,0.189,0.588,0.002,0.495,0.335
			c-0.289-0.039-0.381,0.367-0.727,0.406l0.61,0.998l-0.273,0.191c0.159,0.363,0.89,0.82,1.221,1.005
			c-0.013-0.338,0.199-0.682,0.127-1.043c0.681,0.462,2.042,0.747,2.823,0.446c0.736,0.199,1.6,1.869,1.94,2.468l0.344-0.006
			c0.382,1.347,1.696,3.233,2.323,4.427l-0.432,0.449l-0.84,0.06l-0.365-0.56c-0.374-0.07-0.767,0.172-0.765,0.573
			c-0.224,0.242,0.151,0.25,0.339,0.224c-0.247,0.832,0.224,0.498,0.724,0.638c0.423,0.151,0.237,0.251,0.442,0.5
			c0.599,0.056,0.912,0.742,1.591,0.693c-0.019-0.075-0.282-0.425-0.105-0.381c0.081,0.239,0.261,0.178,0.431,0.27
			c0.289-0.19-0.169-0.24-0.181-0.398c0.547,0.126,0.665,0.61,0.745,1.092c0.539,0.257,0.134-0.636-0.106-0.747
			c0.026-0.183,0.006-0.3-0.135-0.416c0.462-0.202,0.229,0.547,0.498,0.722c0.222,0.025,0.968,0.755,0.907,0.408
			c-0.023-0.139-0.284-0.258-0.155-0.405c0.58,0.579,0.051-0.282,0.539-0.098c0.152-0.316,0.359,0.035,0.58,0.019
			c0.071-0.051-0.144-0.216-0.167-0.244c0.058-0.029,0.14-0.031,0.204-0.042c-0.722-0.422,0.064-0.362,0.292-0.617
			c0.018-0.386,0.216-0.72,0.638-0.58c0.301-0.203,0.372-0.749,0.758-0.927c0.16,1.505,0.339,0.229,0.706-0.307
			c0.032,0.035,0.057,0.076,0.085,0.115c0.357-0.015,0.316-0.425,0.525-0.614c0.134,0.045,0.022,0.318,0.103,0.431
			c0.052-0.049,0.107-0.095,0.161-0.144c0.128,1.113,0.546-1.468,0.737-0.285c0.337-0.055,0.452-0.607,0.794-0.737
			c0.324-0.063,0.713,0.326,1.014,0.091c0.408-0.687,1.124-0.389,1.75-0.311c0.17,0.131,0.634,0.035,0.507,0.346
			c0.622,0.015-0.115,0.585-0.241,0.817c0.253,0.187,0.541-0.27,0.801,0.055c0.32,0.044,0.116,0.384,0.311,0.514
			c0.374-0.257-0.238-0.609-0.156-0.89c0.92-0.005,2.891,1.583,3.04,0.133c0.183,0.292,0.303,0.054,0.517-0.057
			c0.277-0.041,1.077-0.235,0.662,0.32c0.196,0.091,0.283,0.195,0.243,0.418c0.362-0.151,0.181,0.256,0.305,0.451
			c0.071,0.149,0.284,0.1,0.401,0.235c0.164,0.052,0.457-0.279,0.548-0.018c0.623,0.15-0.233,1.2,0.494,1.478
			c-0.203,0.368-0.543,0.628-0.577,1.054c0.037,0.122,0.167,0.269-0.029,0.302c-0.232,0.074-0.188,0.303-0.258,0.451
			c-0.479,0.148-0.203,0.88,0.229,0.981c-0.068,0.105-0.065,0.173-0.21,0.155c-0.215,0.212,0.342,0.616,0.373,0.181
			c-0.357-0.307,0.305-0.335,0.48-0.332c0.099,0.385-0.467,0.73-0.235,1.183c-0.203,0.341-0.433,0.774-0.235,1.199
			c0.253,0.369-0.261,0.25-0.344,0.499c-0.046-0.053-0.105-0.096-0.157-0.143c0.264-0.375-0.458-0.401-0.692-0.25
			c0.215,0.231,0.131,0.499,0.197,0.781c0.039,0.07,0.153,0.204,0.037,0.276c-0.337,0.098-0.273-0.283-0.502-0.415
			c-0.186-0.356-0.923,0.203-0.85,0.507c0.752,0.533-1.09,0.278-1.341,0.265c-0.314,0.198-0.568-0.112-0.936-0.071
			c-0.397,0.044-0.74-0.062-1.065-0.179c-0.256,0.384-0.783,0.803-1.291,0.702c-0.235-0.355-0.711,0.463-0.83,0.708
			c-0.492,0.318-0.029,0.975-0.433,1.24c-0.503,0.36-1.061,0.597-1.169,1.26c-0.11,0.144-0.362-0.084-0.4,0.121
			c0.11,0.331,0.457,0.117,0.666,0.061c0.646,0.252,1.171,0.965,1.27,1.645c0.474-0.235,1.29-0.125,1.431,0.476
			c-0.458-0.092-0.845-0.011-1.274-0.244c-0.34,0.132-0.607,0.649-1.028,0.396c-0.329-0.283-0.547-0.548-0.912-0.77
			c-0.335-0.25-0.652-0.012-1.003-0.048c-0.299-0.14-0.631-0.122-0.971-0.16c-1.089-0.346-1.28,0.989-0.918,1.745
			c0.828,0.877,2.88,0.028,2.798,1.76c0.004,0.211-0.079,0.51,0.195,0.555c0.638,0.645,0.594,1.814,1.233,2.539
			c1.076,0.465,0.664,1.434,0.54,2.395c-0.467,1.368,1.748-0.428,1.738,0.823c1.007,0.826,0.527,2.166,2.176,1.415
			c0.276,0.038,0.48,0.264,0.62,0.487c0.511-0.031,1.007-0.409,1.581,0.109c0.127,0.374,0.696,0.282,0.568,0.847
			c-0.375,1.041-0.644,2.183-1.414,3.054c-0.26,0.841,0.549,1.637,0.043,2.541c2.219-2.49,4.961-3.436,8.178-3.854
			c0.717,0.543,3.01,2.178,3.447,2.951v0.445c0.475,0.57,2.047,4.092,2.806,3.426c0.287,0.22,0.65-0.112,0.953-0.097
			c0.28,0.212,0.577-0.351,1.093-0.171v-23.381l11.99-3.866l0.169,0.085c0.221-0.557,0.011-1.764,0.797-1.834
			c0.099-0.108,0.074-0.301,0.212-0.396c0.235-0.233,0.697,0.269,0.777-0.135c0.232,0.144,0.37-0.164,0.609-0.086
			c0.255,0.147,0.299-0.091,0.409-0.269c1.028-0.558-0.281,1.276-0.143,1.698c-0.317-0.812-0.435-0.936-0.701-0.039
			c-0.088-0.005-0.05-0.244-0.099-0.302c-0.95,0.106-0.196,1.514-1.181,1.813l3.002,1.721c-0.164-0.809-0.446-3.924,0.954-3.197
			c-0.171-0.638,0.216-1.253,0.368-1.89c0.255-0.825-0.861-1.248-0.881-2.02c0.117-0.274,0.291,0.062,0.46,0.047
			c0.259-0.075,0.548-0.163,0.767,0.061c0.207,0.433,0.37,1.184-0.082,1.515c-0.144,0.646,0.925-0.239,1.241-0.113
			c0.556,0.178,1.169-0.427,1.757-0.023c0.424,0.036,2.257,0.158,1.012,0.652c-0.528,0.143-0.527,0.67-0.828,1.047
			c-0.485,0.172-1.153-0.63-1.63-0.283c-0.334,0.155-0.561-0.175-0.887-0.178c-0.18-0.134,0.265-0.454,0.117-0.63
			c-0.164-0.044-0.265,0.202-0.426,0.192c-0.092-0.025-0.11-0.191-0.245-0.112c-0.011,0.113,0.075,0.288-0.134,0.176
			c-0.351-0.052-0.373,0.556-0.3,0.771c0.611-0.412,1.045-0.064,0.709,0.596c-0.522,0.056-0.729,0.888-0.458,1.26
			c0.344,0.033,0.846-0.126,0.851,0.395c0.215,0.663,0.281,1.342,0.036,2.013c0.131,0.45,0.289,0.88,0.263,1.366l5.155,4.172
			c-0.396,0.679,3.832,4.978,4.156,5.479c1.351,0.07,4.685-0.624,6.027-0.934c1.912,0.3,3.835,0.444,5.773,0.51l1.764-1.051
			l0.348,0.136l0.822,1.382l1.645,1.195l1.401,2.872l1.177-0.496l-0.034,3.712l-0.407-0.11v2.645l2.476,0.399
			c0.104,1.157,0.5,3.443,0.805,4.562c0.318-0.02,3.294,0.182,3.502-0.024c0.912-0.371,1.396-0.048,2.179-0.027
			c0.081-0.214-0.176-0.389-0.1-0.566c0.436-0.195,0.741-0.018,0.84,0.439c0.422-0.328,0.752-0.3,1.026,0.187
			c0.085,0.047,0.405-0.01,0.245,0.175c0.294,0.109,0.109,0.232-0.098,0.313c-0.049,0.065-0.031,0.245-0.144,0.24
			c-0.093,0-0.05-0.322-0.183-0.145c0.055,0.292-0.473-0.056-0.74-0.055c0.033,0.052,0.03,0.127,0.016,0.185
			c-0.084,0.003-0.186-0.019-0.265,0.013c0.159,0.138,0.076,0.277,0.15,0.448c-0.184,0.113-0.159,0.376-0.286,0.526
			c-0.171,0.041-0.391-0.026-0.439,0.223c0.889,0.258,1.395,1.351,2.384,1.369c0.158,0.195,0.671,0.205,0.845-0.032
			c0.032-0.175-0.063-0.146,0.065-0.356c-0.351-0.198-0.329-0.685-0.398-1.041c0.114-0.212,0.202-0.674-0.171-0.659
			c-0.021-0.287-0.113-0.01-0.216-0.104c-0.062-0.057,0.026-0.117,0.059-0.165c0.077-0.419,0.329-0.009,0.516-0.246
			c0.062,0.256,0.318,0.164,0.168,0.412c0.095,0.157,0.46-0.051,0.463-0.209c-0.282-0.626,0.832-1.178,1.267-1.4
			c0.074-0.088,0.052-0.186,0.003-0.277c-0.098-0.174,0.066-0.338,0.038-0.534c0.171-0.165,0.376-0.332,0.568-0.465
			c0.405-0.267,0.998-0.003,1.392-0.272c-0.234-0.217-0.173-0.723,0.228-0.544c0.227-0.098,0.442-0.414,0.589-0.652
			c0.445,0.045,0.732-0.419,1.166-0.261c0.371,0,0.396-0.635,0.765-0.478c0.051-0.26,0.341-0.271,0.513-0.376
			c0.153-0.309,0.445-0.557,0.678-0.838c-0.007-0.479,0.424-0.589,0.81-0.775c0.253,0.101,0.258,0.403,0.406,0.57
			c0.563,0.216,0.337-0.767,0.829-1.039c0.072-0.352,0.802-0.012,0.86-0.451c-0.417-0.247-0.181-0.636,0.05-0.926
			c-0.03-0.48,0.253-0.623,0.678-0.47c-0.147-0.586-0.906-0.678,0.245-0.794c0.221-0.036,0.109-0.273,0.158-0.423
			c0.21-0.184,0.494-0.346,0.471-0.659c0.291,0.209,0.398-0.018,0.618-0.128c0.244,0.079,0.462-0.111,0.664-0.001
			c0.19,0.199,0.365,0.003,0.499-0.135c0.561-0.039,1.075-0.214,1.587,0.191c0.289-0.023,0.349,0.3,0.618,0.258
			c0.518-0.328,1.245,0.067,1.774,0.424c0.812-0.358,1.213,0.824,1.946,0.87c0.616,0.095,1.67-0.292,1.71,0.591
			c0.168,0.045,1.16,0.303,0.818-0.069c-0.501-0.65-0.225-1.43,0.084-2.092c0.12-0.322-0.177-0.742-0.021-1.001
			c0.19-0.157,0.101-0.39,0.119-0.59c0.638-0.51,1.798-0.196,2.001-1.127c0.17,0.211,0.343,0.264,0.587,0.153
			c0.391,0.069,0.588-0.034,0.557-0.455c0.469,0.143,0.814,0.572,1.31,0.711c0.506-0.015,0.535,0.553,0.885,0.714
			c0.265,0.378,0.75,0.097,1.085,0.327c0.613,0.564,1.397,0.781,2.202,0.898c1.097-0.052,1.62,0.885,1.949-0.557
			c0.071-0.075,0.21-0.095,0.302-0.107c0.267-0.133,0.362,0.171,0.623,0.212c0.309,0.018,0.662-0.181,0.971-0.037
			c0.359-0.069,0.319,0.179,0.526,0.366c0.222,0,0.442-0.115,0.665-0.155c0.341-0.434,1.077,0.176,1.397-0.404
			c0.118-0.01,0.115,0.02,0.197-0.082c0.244-0.18,0.518,0.034,0.816-0.141c0.219,0.34,0.36-0.047,0.703,0.094
			c0.013,0.129,0.082,0.239,0.238,0.255c0.147,0.139,0.293,0.146,0.526,0.132c0.266,0.217,0.605-0.488,0.848-0.106
			c0.052-0.012,0.142-0.068,0.185-0.104c0.26,0.345,0.778,0.233,1.145,0.213c0.297,0.326,0.321-0.011,0.816,0.333
			c0.179-0.079,0.312-0.113,0.457,0.052c0.212-0.008,0.368-0.11,0.598-0.122c0.252-0.127,0.46,0.084,0.704,0.086
			c0.117-0.151,0.23-0.226,0.426-0.155c0.332-0.165,0.454-0.002,0.709,0.19c0.181-0.038,0.264,0.068,0.368,0.192
			c0.844-0.017,1.597,0.469,2.429,0.123c-0.257,0.741,0.29,1.151,0.874,1.341c0.147,0.263,0.254,0.455,0.508,0.608
			c0.341,0.641,0.923-0.22,1.258,0.232c0.289,0.046,0.716-0.038,0.953,0.122c0.033,0.296,0.176,0.586,0.521,0.579
			c0.046,0.08,0.295,0.228,0.27,0.316c-0.035,0.127-0.185,0.002-0.046,0.237c0.135,0.315,0.387,0.159,0.647,0.196
			c0.242-0.136,0.082-0.316-0.029-0.424c0.168-0.213,0.1-0.205-0.091-0.371c0.001-0.217-0.095-0.406-0.114-0.63
			c-0.006-0.211,0.288-0.272,0.257-0.475c-0.228-0.088-0.403-0.358-0.423-0.61c-0.045-0.202,0.016-0.342,0.192-0.434
			c0.189-0.238-0.007-1.282,0.546-0.847c0.117-0.029,0.201-0.183,0.334-0.029c-0.01-0.153,0.478-0.34,0.572-0.236
			c0.488-0.337,0.146-0.395-0.251-0.565c-0.616-0.213-0.442-0.878,0.181-0.773c0.252-0.104,0.35-0.571,0.694-0.494
			c0.109,0.175,0.234,0.086,0.392,0.027c0.121,0.104,0.24-0.056,0.268-0.182c-0.224-0.06-0.094-0.44-0.229-0.585
			c0.125-0.256-0.164-0.274-0.355-0.358c0.152-0.25,0.135-0.588,0.342-0.798c-0.491-1.02-1.405-2.863-1.449-3.892
			c-0.413-0.78-0.052-1.821-0.453-2.69c0.887-1.531-0.742-1.214-0.893-2.351c-0.166,0.217-0.453,0.162-0.661,0.305
			c-0.04-0.163-0.173-0.297-0.296-0.412c0.102-0.161-0.044-0.409-0.28-0.302c0.072-0.226,0.311-0.42,0.535-0.492
			c0.144-0.114,0.199-0.295,0.396-0.162c0.072-0.123-0.01-0.484,0.215-0.256c0.012-0.039,0.013-0.079,0.016-0.12
			c0.359,0.4,0.519-0.023,0.916-0.092c0.038,0.064,0.054,0.145,0.1,0.202c0.049-0.025,0.091-0.079,0.145-0.088
			c0.273-0.638,0.496-0.358,1.026-0.369c0.257-0.084,0.447-0.48,0.751-0.297c0.296,0.145,0.562,0.267,0.778-0.054
			c0.263-0.014,0.8,0.075,0.763-0.363c0.065-0.009,0.177,0.089,0.237,0.12c0.11-0.257,0.269-0.372,0.507-0.224
			c0.212-0.202,0.521-0.019,0.662-0.307c0.489,0.465,0.743-0.676,1.209-0.453c0.034-0.046,0.102-0.188,0.161-0.095
			c0.383-0.291,0.835,0.571,0.963,0.864c0.195,0.012,0.405-0.084,0.586-0.097c0.109,0.067,0.091,0.286,0.298,0.253
			c0.321-0.007,0.605-0.445,0.912-0.115c1.397,0.873,1.814-0.705,0.903-1.501c-0.527-0.16-1.474-0.515-0.975-1.201
			c0.134-0.67,0.205-1.36,0.23-2.053c0.169-0.052,0.301-0.232,0.523-0.219c0.06-0.799,1.043-2.898,1.386-3.637
			c0.062-0.515,0.296-1.568,0.598-1.997c0.073-0.245,0.304-1.56,0.559-1.692c0.219-0.353-0.086-1.16,0.476-1.118
			c0.496-0.037,0.664,0.56,1.203,0.352c0.096,0.093,0.1,0.363,0.229,0.407c0.182-0.219,0.655,0.286,0.724,0.406
			c0.214,0.132,0.601-0.015,0.635,0.326c0.151-0.197,0.513-0.14,0.586,0.097c0.171,0.017,0.214,0.078,0.342,0.168
			c0.136-0.123,0.113-0.059,0.275-0.085c0.144-0.106,0.2-0.046,0.315,0.073c0.312,0.177,0.556-0.005,0.773-0.179
			c0.364-0.07,0.775,0.09,1.144-0.038c0.172,0.089,0.305,0.351,0.535,0.062c0.51-0.21,0.986-0.013,1.349,0.357
			c0.275,0.464,0.376,0.841,0.714,0.191c0.434,0.003,0.247-0.384,0.699-0.457c0.159-0.101,0.204-0.556,0.455-0.411
			c0.036-0.054,0.053-0.116,0.077-0.175c0.18,0.016,0.18,0.345,0.355,0.091c0.188,0.184,0.302,0.006,0.529-0.037
			c0.116,0.042,0.314,0.083,0.439,0.039c0.271-0.228-0.048-0.639,0.285-0.805c0.226-0.234,0.508-0.672,0.249-0.948
			c0.137-0.44,0.127-0.857-0.223-1.219c0.072-1.462-0.532-2.992-0.373-4.428c-0.016-0.448,0.434-0.381,0.434-0.746
			c0.36-0.313,0.145-1.094,0.837-1.235c0.672-0.376,1.825,0.334,2.203-0.459c0.118-0.042,0.435-0.118,0.5,0.015
			c0.294,0.028,0.542-0.347,0.824-0.395c0.29-0.758,0.301-0.558,0.804-1.161c0.123-0.306-0.105-0.628,0.256-0.849
			c-0.088-0.545-0.988-1.179,0.105-1.584c0.104-0.512,0.401-0.713,0.95-0.624c0.212,0.116,0.446-0.186,0.724-0.016
			C194.001,96.008,194.047,94.764,193.904,94.691z"/>
		<path fill="#1E8346" d="M21.973,124.539c-0.471-0.015-0.872-1.079-0.338-1.282c-0.648-0.004-0.36,1.245,0.152,1.362
			c0.137-0.041,0.304,0.146,0.386,0.072C22.25,124.522,22.119,124.445,21.973,124.539z"/>
		<path fill="#1E8346" d="M22.838,123.229c-0.123-0.151-0.52,0.25-0.45,0.382c0.074,0.066,0.134,0.129,0.129,0.241
			c0.219,0.072,0.254,0.001,0.24-0.192C22.788,123.516,23.023,123.363,22.838,123.229z"/>
		<path fill="#1E8346" d="M22.547,123.975c-0.082,0.051-0.139,0.171-0.102,0.266C22.605,124.201,22.831,123.754,22.547,123.975z"/>
		<path fill="#1E8346" d="M22.882,124.897c0.003,0.054,0.028,0.08,0.05,0.127c0.089-0.063,0.046-0.262-0.011-0.351
			C22.829,124.709,22.892,124.822,22.882,124.897z"/>
		<path fill="#1E8346" d="M23.929,124.915c0.06,0.041,0.3-0.174,0.16-0.188c-0.124,0.013-0.078-0.143-0.198-0.157
			C23.918,124.676,23.888,124.825,23.929,124.915z"/>
		<path fill="#1E8346" d="M24.581,124.047c-0.057-0.002-0.086,0.017-0.095,0.069C24.49,124.337,24.768,124.073,24.581,124.047z"/>
		<path fill="#1E8346" d="M33.733,116.924c-0.051,0.034-0.13,0.055-0.099,0.135C33.684,117.186,33.812,117.005,33.733,116.924z"/>
		<path fill="#1E8346" d="M34.167,116.64c0.003-0.041,0.006-0.124-0.051-0.126C33.968,116.669,34.142,117.022,34.167,116.64z"/>
		<path fill="#1E8346" d="M35.107,114.364c0.068-0.095,0.22-0.297,0.017-0.329C34.905,114.151,34.736,114.684,35.107,114.364z"/>
		<path fill="#1E8346" d="M33.118,111.687c0.205-0.073-0.002-0.332-0.105-0.203C33.012,111.549,32.992,111.754,33.118,111.687z"/>
		<path fill="#1E8346" d="M20.165,114.59c-0.07-0.055-0.222-0.103-0.219,0.048c0.14,0.288,0.206,0.611,0.36,0.897
			C20.64,115.322,20.489,114.764,20.165,114.59z"/>
		<path fill="#1E8346" d="M20.618,113.835c-0.053,0.12-0.174,0.238,0.027,0.276C20.705,114.026,20.789,113.854,20.618,113.835z"/>
		<path fill="#1E8346" d="M17.822,114.649c-0.027-0.019-0.061-0.024-0.111-0.03c0.078,0.123,0.109,0.305,0.257,0.368
			C18.01,114.877,17.903,114.725,17.822,114.649z"/>
		<path fill="#1E8346" d="M18.924,115.287c-0.021-0.037-0.057-0.104-0.126-0.096C18.806,115.286,19.043,115.61,18.924,115.287z"/>
	</g>
</g>
</svg>
