<?xml version="1.0" encoding="utf-8"?>
<!-- Generator: Adobe Illustrator 26.0.3, SVG Export Plug-In . SVG Version: 6.00 Build 0)  -->
<svg version="1.1" xmlns="http://www.w3.org/2000/svg" xmlns:xlink="http://www.w3.org/1999/xlink" x="0px" y="0px"
	 viewBox="0 0 200 200" enable-background="new 0 0 200 200" xml:space="preserve">
<g id="Layer_1">
	<g id="Layer_1_00000107551159852787612550000017757744099325915571_">
		<g id="Layer_1_00000128480095285341338950000008464522443776971395_">
		</g>
	</g>
</g>
<g id="Isolation_Mode_00000063621668281934077600000006196874878142535819_">
	<path fill="#1E8346" d="M156.056,15.753c0.327,0.281,0.142,1.145-0.096,1.472c-0.389,0.535-0.879,0.407-1.465,0.272
		c-0.269-0.062-0.483-0.135-0.7-0.281c-0.321-0.215-0.421-0.61-0.698-0.847c-0.259-0.221-1.643-0.733-1.961-0.577
		c-0.329,0.162-0.246,0.856-0.26,1.171c-0.031,0.713-0.166,1.379-0.263,2.083c-0.039,0.279-0.133,0.728-0.093,1.003
		c0.061,0.421,0.422,0.807,0.582,1.204c0.312,0.772-0.128,0.913-0.705,1.416c-0.4,0.349-0.826,0.769-1.312,1
		c-1.248,0.591-2.68,0.749-3.904,1.433c-0.581,0.325-0.883,0.324-0.88,1.006c0.002,0.476-0.106,1.371,0.248,1.764
		c0.352,0.39,1.681,0.398,2.219,0.462c0.811,0.097,1.251-0.234,1.971-0.617c0.28,0.198,0.389,0.593,0.743,0.621
		c0.18,0.014,0.489-0.259,0.657-0.328c0.347-0.142,0.83-0.295,1.207-0.272c0.383,0.023,0.653,0.218,0.998,0.355
		c0.397,0.159,0.53,0.16,1.043,0.055c0.428-0.088,0.826-0.294,1.254-0.385c0.443,0.923-0.002,2.208,1.022,2.703
		c0.362,0.175,0.469,0.267,0.656,0.715c0.182,0.435,0.35,1.055,0.608,1.463c0.638,0.085,1.39,0.134,1.983,0.455
		c0.487,0.263,0.825,0.659,1.322,0.849c0.93,0.355,0.691,0.166,1.117,1.095c0.246,0.537,0.702,0.835,1.134,1.337
		c0.052-0.147,0.238-0.315,0.281-0.449c0.387,0.49,0.679,0.825,1.17,1.193c0.554,0.414,1.288,0.788,1.514,1.532
		c0.378,1.245-0.178,2.159-1.007,2.879c-0.411,0.357-1.507,1.195-1.476,1.792c0.015,0.29,0.462,0.64,0.624,0.897
		c0.485,0.768,0.517,1.662,0.912,2.477c0.476,0.982,1.144,1.306,1.507,2.292c0.327,0.894,0.761,1.144,1.741,1.325
		c0.723,0.134,1.462,0.154,1.743,1.043c0.352,1.114-0.57,1.214-1.073,1.739c-0.793,0.828,0.099,1.106,0.18,1.915
		c0.079,0.786-0.703,1.458-0.701,2.355c0.002,0.775-0.128,1.311,0.388,1.906c0.463,0.534,1.227,0.715,1.758,1.182
		c0.531,0.468,2.065,2.12,1.516,2.917c-0.486,0.706-2.19,0.633-2.843,1.349c-0.746,0.819-0.087,2.046-0.948,2.7
		c-0.331,0.251-0.857,0.061-1.01,0.569c-0.084,0.28,0.274,0.657,0.219,1.015c-0.12,0.786-1.028,1.522-1.69,1.775
		c-1.027,0.393-1.593,0.889-2.374,1.772c-0.545,0.615-1.851,1.672-2.072,2.389c-0.33,1.069,0.683,1.755,0.462,2.711
		c-0.107,0.465-0.53,0.735-0.762,1.135c-0.291,0.501-0.273,0.674-0.317,1.301c-0.405,0.027-0.886-0.191-1.228-0.01
		c-0.447,0.236-0.395,0.957-1.037,1.147c-0.876-1.079-1.634-0.51-2.914-0.922c-0.702-0.226-1.421-0.742-2.21-0.742v1.663
		c-0.661-0.038-1.238-1.131-1.9-0.367c-0.596,0.686,0.645,0.991-0.103,1.546c-0.738,0.548-1.595-0.351-1.393,1.09
		c0.117,0.832,1.11,1.002,0.858,1.907c-1.472,0.556-2.4-0.108-3.035,1.591c-0.322,0.862-0.286,0.714-0.934,0.74
		c-0.209,0.008-0.318-0.362-0.616-0.222c-0.228,0.108-0.012,0.441-0.122,0.594c-0.659,0.917-1.641,0.755-2.138,1.824
		c-0.369,0.794-0.467,2.157-1.236,2.534c-0.847,0.415-0.833-0.2-1.136,0.784c-0.105,0.342-0.377,0.849-0.349,1.215
		c-0.829,0.47-1.789,0.027-1.958,1.052c-0.165,1,0.433,0.946,1.126,1.302c1.201,0.616,2.024,1.228,2.922,2.289
		c1.117,1.32,2.029,1.034,3.593,1.369c1.128,0.242,0.719,0.213,1.448,1.029c0.375,0.42,1.121,0.703,1.429,1.056
		c0.705,0.808,0.308,2.219,0.055,3.369c-1.238,0.442-2.807-0.133-4.073-0.237c-0.718-0.059-1.248,0.011-1.929-0.262
		c-0.633-0.254-1.032-0.855-1.622-1.16c-1.032-0.533-2.242-0.622-3.342-1.223c-0.995-0.544-3.02-0.739-2.938,1.081
		c-0.669,0.477-0.087,1.562-0.952,1.885c-0.661,0.248-1.648-0.538-2.127-0.892c-0.467-0.344-0.97-1.039-1.54-1.185
		c-0.407-0.105-0.968,0.123-1.392,0.241c-0.915,0.255-1.823,0.659-2.773,0.804c-0.796,0.122-1.271-0.402-2.056-0.108
		c-0.947,0.354-1.557,1.084-2.428,1.541c-1.01,0.53-1.958,0.556-3.004,0.929c-1.106,0.395-1.329,1.247-1.849,2.2
		c-0.847,1.555-1.584,3.228-3.237,4.055c-1.12-1.612-2.543,2.691-2.769,3.337c-0.275,0-0.979-0.241-1.215-0.068
		c-0.327,0.24-0.291,1.72-0.308,2.145c-0.044,1.042,0.712,1.898,0.331,2.796c-0.216,0.51-0.522,0.845-1.076,0.999
		c-0.331,0.092-0.881-0.066-1.165,0.09c-0.662,0.362-1.327,2.698-1.305,3.257c0.03,0.762,0.336,2.464,0.93,3.003
		c0.582,0.528,1.507,0.121,2.139-0.212c0.386-0.203,0.45-0.328,0.797-0.266c0.398,0.071,0.927,0.53,1.284,0.756
		c0.616,0.389,1.196,0.787,1.836,1.136c0.718,0.391,1.391,0.792,2.025,1.261c0.389,0.288,0.837,0.781,1.3,0.908
		c0.021,0.473,0.123,1.169,0.204,1.621c0.059,0.328,0.382,0.516,0.591,0.735c-0.212,0.404-0.503,0.311-0.707,0.495
		c-0.31,0.28-0.51,0.766-0.769,1.125c-0.621,0.861-1.462,2.84-2.422,3.266c-0.522-0.498-1.258-1.652-2.053-1.376
		c-0.465,0.161-0.513,0.791-1.101,0.607c-0.698-1.249-0.971-0.456-1.437,0.459c-0.477,0.935-0.628,0.688-1.574,0.696
		c-0.546,0.005-1.408,0.169-1.377,0.919c0.014,0.341,0.311,0.511,0.506,0.742c0.23,0.273,0.352,0.441,0.483,0.856
		c0.299,0.949,0.723,2.879,0.152,3.782c-0.135,0.214-0.394,0.332-0.53,0.537c-0.186,0.28-0.07,0.557-0.422,0.731
		c-0.667,0.33-0.681-0.411-1.295,0.322c-0.389,0.464-0.708,0.98-1.372,1.126c-0.183,0.04-0.571-0.107-0.719,0.018
		c-0.144,0.121-0.042,0.491-0.13,0.657c-0.453,0.856-2.334,1.479-3.146,1.936c-1.567,0.884-3.613,2.051-4.264,3.845
		c-0.497,1.37,0.069,2.895-0.712,4.215c-0.589,0.995-2.551,1.93-3.688,2.217c-0.76,0.191-1.794,0.037-2.494,0.362
		c-0.338,0.157-0.541,0.639-0.841,0.855c-0.476-0.529-0.954-1.225-1.504-1.645c-1.105,0.742-1.191,1.658-1.304,2.84
		c-0.092,0.968-1.592,1.897-2.612,1.804c-0.627-0.49-1.051,0.477-1.402,0.949c-0.205,0.276-0.557,1.034-0.906,1.151
		c-0.408,0.137-1.047-0.478-1.452-0.534c-1.297-0.179-3.196,2.206-1.77,3.259c-0.029,0.151-0.139,0.404-0.242,0.517
		c-1.545-0.777-2.494-1.263-3.24-2.853c-0.402-0.855-0.394-2.047-1.517-2.288c-0.545,0.925-0.848,2.011-1.286,2.991
		c-0.205,0.458-0.552,0.813-0.778,1.173c-0.162,0.259-0.166,0.362-0.2,0.802c-0.049,0.632-0.221,0.754-0.516,1.203
		c-0.28,0.429-0.387,0.653-0.409,1.269c-0.041,1.123,0.117,2.22,0.14,3.327c0.018,0.923-0.414,1.726-0.63,2.601
		c-0.279,1.126-0.41,2.461-0.506,3.62c-0.049,0.587,0.347,0.836,0.227,1.354c-0.139,0.6-0.906,1.016-1.076,1.625
		c-0.533,0.133-1.118,0.227-1.669,0.215c-0.042,0.895,0.151,1.79,0.04,2.681c-1.038-0.024-2.05-0.21-3.096-0.206
		c-0.528,0.002-1.515-0.26-1.984-0.009c-0.509,0.272-0.563,1.056-0.804,1.511c-0.51,0.966-1.13,1.824-2.262,1.832
		c-0.559,0.004-3.706-0.475-3.6,0.382c-1.027,0.04-2.325,0.187-3.187-0.48c-0.498-0.386-0.848-1.141-1.201-1.659
		c-0.482-0.706-0.762-1.036-0.756-1.841c0.008-1.161-0.473-1.041-1.548-0.911c-0.22,0.027-0.747,0.14-0.943,0.046
		c-0.174-0.085-0.121-0.494-0.322-0.562c-0.356-0.121-0.911,0.332-1.246,0.457c-1.736,0.648-3.835,1.286-5.665,0.793
		c-0.302-0.081-0.6-0.218-0.914-0.29c-0.429-0.099-0.076-0.385-0.502,0.046c-0.652,0.66-0.27,1.288-1.354,1.34
		c-0.887,0.043-1.174-0.454-1.945-0.64c-0.819-0.197-1.032,0.158-1.619,0.566c-0.504-0.987-1.088-0.971-2.184-0.971
		c-0.687,0-2.334,0.474-2.889,0.065c-0.006-0.448,0.34-1.118,0.538-1.517c0.354-0.713,0.694-1.019,1.423-1.326
		c0.591-0.249,1.182-0.519,1.732-0.848c0.804-0.481,1.157-1.346,1.535-2.155c0.231-0.494,0.453-1.004,0.747-1.467
		c0.357-0.563,0.892-0.993,1.32-1.503c1.308-1.558,2.49-3.345,2.892-5.387c0.304-1.545,0.863-4.075-0.593-5.153
		c-0.665-0.492-1.272-0.601-0.375-1.407c0.89-0.8,1.199-1.751,1.758-2.818c0.344-0.656,0.79-1.121,1.277-1.653
		c0.509-0.558,0.859-1.32,1.185-2.018c0.702-1.504,0.091-3.292,0.388-4.889c0.257-1.376,1.199-2.404,1.489-3.761
		c0.204-0.954,0.176-1.893,0.572-2.816c0.384-0.895,0.935-1.877,1.601-2.579c1.229-1.296,2.736-2.201,3.883-3.601
		c0.626-0.764,1.182-1.614,1.839-2.344c0.586-0.651,1.147-1.051,1.377-1.932c-0.38-0.665-0.139-1.608,0.063-2.254
		c0.316-1.009,0.178-2.027,0.686-3.053c0.46-0.93,1.147-1.526,1.538-2.518c0.375-0.952,1.353-1.573,1.536-2.591
		c0.121-0.671,0.03-1.432,0.03-2.11c0-0.451-0.181-1.292,0.035-1.673c0.103-0.181,0.416-0.249,0.578-0.385
		c0.386-0.322,0.692-0.73,0.809-1.21c0.177-0.721-0.153-1.553,0.021-2.273c0.342-1.419,2.217-1.8,2.489-3.295
		c0.275-1.509,0.039-2.675,0.73-4.1c0.866-1.785,2.221-3.499,2.46-5.479c0.259-2.14,0.373-4.27,0.255-6.412
		c-0.041-0.746,0.359-1.184,0.191-1.928c-0.186-0.826-0.885-1.429-1.133-2.218c-0.696-2.217,1.396-2.291,2.97-2.174
		c0.529,0.04,1.055,0.145,1.586,0.197c0.453,0.044,0.762-0.144,1.185-0.146c1.268-0.007,2.079,1.292,3.352,0.37
		c0.667-0.483,1.426-0.916,1.709-1.717c0.325-0.918,0.435-1.952,0.508-2.914c0.073-0.957,0.304-1.551,0.99-2.23
		c0.526-0.52,0.809-1.486,1.336-1.899c0.486-0.381,1.063-0.163,1.606-0.685c0.531-0.509,1.44-1.555,1.165-2.389
		c-0.253-0.768-1.349-0.57-1.727-1.391c-0.537-1.165,0.067-2.112,0.757-2.949c1.062-1.288,1.144-3.667,1.309-5.357
		c0.126-1.295,0.004-2.674-0.288-3.921c-0.261-1.113-1.056-1.73-1.316-2.842c-0.291-1.248-0.091-2.733,0.098-3.978
		c0.201-1.325,0.961-2.281,1.599-3.398c0.319-0.559,0.516-1.111,0.624-1.745c0.089-0.525,0.394-0.91,0.456-1.385
		c0.074-0.567-0.274-1.322-0.327-1.916c-0.062-0.702-0.401-1.216-0.149-1.938c0.24-0.688,0.753-0.911,1.142-1.439
		c0.576-0.782,0.588-1.811,1.36-2.517c1.266-1.157,3.131,1.921,4.047-0.845c0.228-0.687,0.553-1.045,0.588-1.763
		c0.026-0.53,0.016-1.076,0.065-1.582c0.102-1.043,0.343-1.77,0.537-2.73c0.201-0.998,1.66-1.221,2.502-1.484
		c1.569-0.49,2.947-0.926,4.167-2.127c0.413-0.407,1.214-1.142,1.22-1.771c0.007-0.687-0.619-1.231-0.659-1.977
		c-0.039-0.724-0.107-1.725,0.459-2.274c0.596-0.577,1.723-0.357,2.496-0.357c0.919,0,1.702,0.029,2.544-0.359
		c0.498-0.23,0.949-0.602,1.489-0.742c0.452-0.116,0.876-0.048,1.305-0.217c0.793-0.313,1.513-1.01,2.057-1.649
		c0.263-0.308,0.437-0.657,0.688-0.968c0.255-0.315,0.532-0.389,0.796-0.658c0.859-0.878,1.046-1.717,2.361-2.161
		c1.25-0.422,1.711-0.603,2.266-1.885c0.617-1.427,0.846-3.002,0.846-4.537c0-1.043,0.143-2.489-0.196-3.477
		c-0.243-0.708-0.654-1.453-0.938-2.144c-0.233-0.565-0.485-1.175-0.477-1.796c0.007-0.542,0.408-1.877,1.175-1.572
		c0.239,0.095,0.246,0.42,0.418,0.565c0.199,0.168,0.257,0.132,0.603,0.135c0.637,0.005,0.866-0.061,1.211,0.46
		c0.188,0.284,0.359,0.515,0.632,0.719c0.601,0.448,1.791,0.922,2.553,0.789c0.422-0.074,0.626-0.384,0.949-0.621
		c0.348-0.256,0.772-0.366,1.162-0.534c0.241,0.275,0.375,0.652,0.652,0.898c0.126-0.117,0.257-0.341,0.44-0.366
		c0.243-0.032,0.64,0.627,0.928,0.579c0.541-0.088,0.661-0.963,1.345-1.013c0.541-0.039,0.994,0.395,1.475,0.124
		c0.425-0.239,0.335-0.499,0.921-0.477c0.594,0.022,1.23,0.303,1.804,0.459c0.874,0.238,1.75,0.883,2.688,0.778
		c0.442-0.049,0.886-0.308,1.278-0.521c0.332-0.18,0.604-0.517,0.993-0.48c0.784,0.074,1.314,0.923,2.056,1.049
		c1.025,0.174,0.951-0.721,1.858-0.89c0.57-0.106,1.209,0.606,1.817,0.71c0.378,0.065,0.729,0.053,1.099-0.039
		c0.309-0.077,0.567-0.281,0.862-0.37c0.304-0.091,0.563-0.037,0.873-0.077c0.717-0.091,1.421-0.853,1.74-1.52
		c0.289-0.606,0.109-1.275,0.043-1.921c-0.113-1.103,0.168-1.658,1.093-2.299c0.846-0.586,1.551-1.436,2.636-0.859
		c0.849,0.453,0.569,1.453,0.611,2.264c0.048,0.924,0.496,1.855,1.081,2.555c0.44,0.527,0.944,0.955,1.425,1.439
		c0.27,0.272,0.389,0.491,0.774,0.512c0.556,0.03,0.863-0.757,1.306-0.713c0.293,0.029,0.758,0.724,0.967,0.887
		c0.952,0.741,1.872,0.948,2.949,0.4c0.435-0.222,1.043-0.806,1.52-0.817C156.406,13.497,156.056,14.912,156.056,15.753z"/>
</g>
</svg>
