<?xml version="1.0" encoding="utf-8"?>
<!-- Generator: Adobe Illustrator 26.0.3, SVG Export Plug-In . SVG Version: 6.00 Build 0)  -->
<svg version="1.1" xmlns="http://www.w3.org/2000/svg" xmlns:xlink="http://www.w3.org/1999/xlink" x="0px" y="0px"
	 viewBox="0 0 200 200" enable-background="new 0 0 200 200" xml:space="preserve">
<g id="Layer_1">
	<g id="Layer_1_00000107551159852787612550000017757744099325915571_">
		<g id="Layer_1_00000128480095285341338950000008464522443776971395_">
		</g>
	</g>
</g>
<g id="Isolation_Mode_00000063621668281934077600000006196874878142535819_">
	<path fill="#1E8346" d="M181.588,91.799c0.157-0.052,0.392-0.057,0.557-0.022c0.193,0.042,0.367,0.066,0.568,0.07
		c0.065,0.002,0.148,0.013,0.208-0.019c0.063-0.035,0.107-0.111,0.167-0.152c0.044-0.03,0.118-0.08,0.17-0.095
		c0.079-0.022,0.094,0.016,0.16,0.033c0.085,0.022,0.042,0.033,0.131-0.03c0.088-0.061,0.174-0.096,0.284-0.061
		c0.119,0.038,0.199,0.155,0.299,0.223c0.173,0.118,0.411,0.063,0.613,0.071c0.074,0.003,0.169-0.009,0.242,0.004
		c0.059,0.01,0.112,0.063,0.169,0.083l0.815,0.077l1.145,1.927l2.137,0.939l0.097,1.065l1.274,0.54
		c-0.022,0.073-0.094,0.132-0.117,0.209c-0.023,0.076-0.024,0.163-0.022,0.242c0.038,0.004,0.083-0.016,0.117,0.007
		c0.03,0.02,0.048,0.196,0.07,0.239c0.038,0.077,0.117,0.187,0.203,0.218c0.057,0.021,0.107-0.006,0.161,0.018
		c0.04,0.018,0.071,0.085,0.096,0.117c0.062,0.081,0.133,0.16,0.209,0.228c0.061,0.055,0.126,0.11,0.187,0.163
		c0.041,0.035,0.047,0.054,0.102,0.075c0.019,0.007,0.07,0.007,0.089,0.02c0.095,0.064,0.086,0.355,0.096,0.468
		c0.088,0.018,0.195-0.022,0.276,0.013c0.085,0.037,0.185,0.145,0.266,0.198c0.162,0.105,0.301,0.201,0.385,0.376
		c0.085,0.178,0.181,0.352,0.26,0.533c0.047,0.106,0.079,0.209,0.15,0.302c0.033,0.044,0.078,0.081,0.1,0.13
		c-0.023,0.094-0.092,0.176-0.098,0.273c-0.007,0.106,0.083,0.2,0.13,0.289c0.052,0.1,0.081,0.222,0.157,0.307
		c0.03,0.033,0.125,0.064,0.136,0.104c0.011,0.038-0.04,0.091-0.053,0.125c-0.019,0.048-0.026,0.087,0.007,0.129
		c0.075,0.098,0.208,0.1,0.303,0.161s0.071,0.178,0.071,0.283c0,0.13,0.046,0.229,0.074,0.353c0.031,0.136,0.024,0.294-0.011,0.429
		c-0.016,0.064-0.071,0.103-0.098,0.16c-0.019,0.039-0.015,0.097-0.014,0.14c0.002,0.102,0.061,0.115,0.088,0.2
		c0.03,0.095-0.03,0.174-0.066,0.254c-0.026,0.056-0.041,0.22-0.091,0.244c-0.056,0.027-0.186-0.055-0.239-0.073
		c-0.082-0.027-0.228-0.064-0.289,0.007c-0.07,0.081-0.075,0.201-0.139,0.288c-0.083,0.111-0.206,0.185-0.313,0.27
		c-0.073,0.058-0.173,0.137-0.268,0.156c-0.032-0.146-0.062-0.354-0.263-0.309c-0.144,0.033-0.249,0.164-0.383,0.053
		c-0.082-0.068-0.106-0.132-0.231-0.134c-0.101-0.002-0.182,0.076-0.283,0.059c-0.087-0.014-0.117-0.109-0.203-0.113
		c-0.088-0.004-0.16,0.089-0.226,0.134c-0.062,0.042-0.161,0.101-0.234,0.123c-0.064,0.019-0.106-0.003-0.165-0.022
		c-0.063-0.021-0.145-0.038-0.212-0.029c-0.024,0.003-0.055,0.022-0.08,0.018c-0.022-0.004-0.065-0.049-0.08-0.062
		c-0.056-0.046-0.113-0.115-0.178-0.149c-0.105-0.054-0.249-0.027-0.364-0.039c-0.128-0.013-0.267-0.033-0.392-0.065
		c-0.125-0.032-0.17-0.11-0.253-0.2c-0.053-0.058-0.108-0.113-0.15-0.179c-0.017-0.026-0.03-0.065-0.054-0.082
		c-0.066-0.049-0.06-0.106-0.111-0.17c-0.025-0.032-0.051-0.094-0.089-0.112c-0.111-0.051-0.204,0.049-0.28,0.103
		c-0.126,0.09-0.241,0.056-0.326-0.086c-0.052-0.087-0.028-0.183-0.033-0.286c-0.076-0.015-0.283-0.011-0.349,0.038
		c-0.09,0.067-0.135,0.224-0.22,0.316c-0.046,0.049-0.092,0.089-0.108,0.155c-0.012,0.049,0.023,0.116-0.017,0.148
		c-0.051,0.04-0.222,0-0.281-0.005c-0.145-0.014-0.345-0.007-0.474-0.081c-0.113-0.065-0.084-0.139-0.222-0.08
		c-0.137,0.058-0.172,0.119-0.331,0.118c-0.109-0.001-0.218,0.004-0.326,0.001c-0.189-0.006-0.316-0.044-0.479-0.124
		c-0.132-0.065-0.265-0.129-0.408-0.159c-0.381-0.078-0.633,0.138-0.921,0.356c-0.173,0.131-0.407,0.094-0.592,0.23
		c-0.123,0.09-0.204,0.234-0.352,0.289c-0.076,0.028-0.232-0.007-0.286,0.034c-0.097,0.075,0.022,0.128-0.153,0.147
		c-0.08,0.009-0.184-0.025-0.256,0.013c-0.108,0.056-0.065,0.181-0.137,0.259c-0.065,0.071-0.146,0.043-0.229,0.043
		c0.002,0.104,0.054,0.248-0.03,0.32c-0.084,0.072-0.234,0.021-0.333,0.021c-0.203-0.001-0.424,0.257-0.597,0.156
		c-0.167-0.098-0.321-0.292-0.385-0.475c-0.064-0.185-0.095-0.328-0.298-0.248c-0.114,0.045-0.221,0.142-0.354,0.099
		c-0.052-0.017-0.086-0.055-0.143-0.062c-0.159-0.02-0.309,0.064-0.355,0.217c-0.051,0.171,0.057,0.345-0.021,0.513
		c-0.065,0.139-0.194,0.242-0.252,0.387c-0.077,0.193-0.06,0.43-0.068,0.634c-0.003,0.085,0.008,0.24-0.076,0.296
		c-0.088,0.058-0.306,0.012-0.407,0.012c-0.263,0-0.525-0.008-0.788-0.008c-0.213,0-0.431,0.01-0.642-0.028
		c-0.255-0.045-0.508-0.098-0.762-0.145c-0.165-0.03-0.393-0.072-0.549,0.004c-0.095,0.046-0.144,0.144-0.215,0.215
		c-0.071,0.071-0.168,0.192-0.259,0.23c-0.113,0.047-0.288,0.014-0.409,0.027c-0.27,0.031-0.48,0.127-0.588,0.386
		c-0.075,0.181-0.147,0.287-0.295,0.413c-0.156,0.134-0.187,0.334-0.345,0.462c-0.119,0.096-0.23,0.222-0.337,0.331
		c-0.113,0.114-0.165,0.272-0.251,0.406c-0.237,0.368-0.568,0.748-0.68,1.182c-0.039,0.15-0.092,0.444-0.031,0.59
		c0.038,0.092,0.142,0.147,0.179,0.232c0.047,0.11-0.001,0.27-0.012,0.384c-0.009,0.094,0.004,0.246-0.045,0.327
		c-0.061,0.098-0.199,0.106-0.281,0.181c-0.085,0.078-0.106,0.202-0.165,0.295c-0.126,0.194-0.314,0.264-0.537,0.233
		c-0.146-0.021-0.335-0.073-0.431,0.056c-0.067,0.09-0.03,0.108-0.141,0.142c-0.214,0.066-0.368,0.159-0.536,0.312
		c-0.22,0.201-0.382,0.437-0.59,0.649c-0.121,0.124-0.225,0.265-0.357,0.378c-0.112,0.096-0.304,0.194-0.362,0.328
		c-0.124,0.057-0.288,0.048-0.42,0.095c-0.126,0.045-0.249,0.097-0.377,0.137c-0.199,0.063-0.406,0.091-0.602,0.163
		c-0.14,0.052-0.285,0.123-0.434,0.137c-0.146,0.015-0.312-0.002-0.457-0.009c-0.325-0.016-0.649-0.054-0.975-0.056
		c-0.385-0.002-0.861-0.052-1.219,0.121c-0.045-0.04-0.125-0.056-0.181-0.079c-0.106-0.044-0.216-0.082-0.319-0.129
		c-0.136-0.061-0.278-0.12-0.415-0.177c-0.099-0.041-0.215-0.06-0.318-0.015c-0.191,0.084-0.386,0.16-0.577,0.248
		c-0.098,0.045-0.2,0.079-0.293,0.134c-0.039,0.023-0.122,0.056-0.145,0.089c-0.066,0.094-0.025,0.324-0.033,0.436
		c-0.013,0.177-0.093,0.343-0.184,0.492c-0.103,0.169-0.187,0.356-0.304,0.515c-0.124,0.167-0.282,0.322-0.431,0.467
		c-0.188,0.182-0.385,0.354-0.573,0.536c-0.079,0.076-0.163,0.156-0.26,0.209c-0.097,0.053-0.284,0.084-0.334,0.186
		c-0.045,0.093-0.055,0.199-0.098,0.288c-0.046,0.095-0.14,0.173-0.214,0.245c-0.126,0.122-0.233,0.289-0.407,0.349
		c-0.232,0.081-0.502,0.018-0.738,0.082c-0.114,0.031-0.164,0.043-0.224,0.138c-0.047,0.075-0.078,0.153-0.137,0.221
		c-0.104,0.119-0.198,0.146-0.329,0.202c-0.126,0.054-0.233,0.164-0.337,0.252c-0.209,0.178-0.479,0.611-0.765,0.625
		c-0.12,0.006-0.26-0.023-0.376-0.049c-0.136-0.029-0.171-0.127-0.285-0.181c-0.082-0.039-0.219-0.022-0.308-0.039
		c-0.064-0.013-0.126-0.032-0.189-0.044c-0.207-0.039-0.439-0.037-0.651-0.037c-0.618,0.001-1.268-0.08-1.869-0.239
		c-0.296-0.079-0.586-0.209-0.874-0.305c-0.226-0.075-0.471,0.031-0.67-0.091c-0.137-0.083-0.278-0.166-0.417-0.247
		c-0.128-0.075-0.308-0.137-0.418-0.236c-0.099-0.089-0.168-0.252-0.24-0.364c-0.082-0.129-0.164-0.269-0.259-0.388
		c-0.09-0.113-0.201-0.225-0.302-0.33c-0.034-0.036-0.114-0.162-0.16-0.178c-0.078-0.027-0.09,0.048-0.14,0.077
		c-0.088,0.05-0.206,0.018-0.316,0.011c-0.311-0.02-0.623-0.021-0.934-0.035c-0.18-0.008-0.405-0.014-0.569-0.09
		c-0.165-0.076-0.207-0.088-0.396-0.08c-0.194,0.008-0.242,0.035-0.389,0.153c-0.345,0.276-0.991,0.353-1.138,0.772
		c-0.024,0.068-0.095,0.126-0.133,0.191c-0.062,0.106-0.107,0.22-0.147,0.336c-0.057,0.166-0.143,0.294-0.223,0.449
		c-0.082,0.16-0.138,0.336-0.202,0.503c-0.122,0.317-0.243,0.638-0.403,0.938c-0.07,0.133-0.097,0.212-0.097,0.358
		c0,0.115,0.015,0.326,0.011,0.44c-0.006,0.178-0.101,0.186-0.199,0.307c-0.055,0.067-0.055,0.171-0.086,0.25
		c-0.03,0.078-0.074,0.122-0.124,0.185c-0.214,0.263-0.298,0.621-0.407,0.937c-0.042,0.121-0.058,0.286-0.002,0.407
		c0.049,0.107,0.155,0.122,0.26,0.162c0.268,0.105,0.269,0.371,0.324,0.625c0.048,0.228,0.112,0.474,0.267,0.643
		c0.316,0.345,0.36,0.851,0.764,1.109c0.438,0.281,0.892,0.523,1.146,0.995c0.088,0.162,0.193,0.32,0.27,0.488
		c0.092,0.199,0.104,0.328,0.088,0.548c-0.015,0.209,0.037,0.433-0.089,0.61c-0.085,0.119-0.183,0.153-0.309,0.228l-0.581,0.054
		l-1.365,1.43c-0.244,0-0.623-0.069-0.838,0.063c-0.118,0.073-0.183,0.208-0.283,0.297c-0.103,0.092-0.158,0.1-0.274,0.123
		c-0.217,0.043-0.445,0.201-0.647,0.297c-0.266,0.126-0.592,0.143-0.829,0.317l-0.409,0.333l-1.882,2.226l-0.312,0.807l-0.968,0.817
		l-0.14,0.398l-0.624,0.398l-1.151,0.489l-0.188,0.231l-1.226,0.08l-1.226,0.597l-0.951,0.742l-1.387,0.242l-1.57-0.177
		l-1.086,0.494l-0.258-0.14l-0.484-0.022l-1-0.258l-1.451,0.043l-0.247-0.161l-1.398,0.269l-0.446,0.21l-2.054-0.043l-0.661-0.42
		l-1.046,0.406l-0.193,0.395l-1.129,0.331l-0.871,0.121l-1.468,0.371l-5.54,2.5l-2.484,1.516l-0.484,0.041l-1.266,1.298
		l-0.476-0.597c-0.031,0.003-0.054,0.016-0.083,0.024c-0.107,0.029-0.22,0.034-0.332,0.041c-0.201,0.012-0.405,0.02-0.606,0.016
		c-0.442-0.009-0.881-0.122-1.322-0.122v-1.734l-2.516,0.613h-1.441l-2.344-0.57l-4.312-2.172l-0.925-0.097l-0.623,0.15
		l-2.231-0.677l-1.578-2.183l-1.347-0.201l-4.169-1.145l-3.221-0.117l-0.291,0.375l-1.722-0.073l-2.726,0.653l-7.65-0.686
		l-6.15-1.15l-0.957,0.333h-1.548l-2.072,0.245l-0.133-1.403l-2.625-2.661l-0.202-0.341l-0.129-1.172l-0.699-1.387l-0.645-2.086
		l-0.602-1.258l-1.172-0.215l0.258-1.57c0.225-0.05,0.531-0.634,0.193-0.634l-2.419,0.387c-0.177-0.26-0.334-0.41-0.654-0.487
		c-0.133-0.032-0.302-0.013-0.413-0.103c-0.125-0.102-0.077-0.124-0.257-0.111c-0.144,0.01-0.234,0.049-0.327-0.057
		c-0.079-0.09-0.145-0.202-0.203-0.305c-0.133-0.236-0.294-0.47-0.485-0.662c-0.104-0.105-0.256-0.144-0.382-0.221
		c-0.153-0.093-0.325-0.201-0.495-0.25c-0.116-0.034-0.301-0.045-0.419-0.03c-0.082,0.011-0.121,0.057-0.164-0.002
		c-0.105-0.143-0.002-0.4-0.089-0.541c-0.046-0.073-0.177-0.104-0.241-0.171c-0.081-0.086-0.144-0.156-0.237-0.231
		c-0.082-0.066-0.103-0.169-0.172-0.237l-2.914-1.699c-0.039-0.077-0.024-0.152-0.083-0.215c-0.064-0.069-0.177-0.115-0.261-0.157
		c-0.126-0.062-0.248-0.111-0.369-0.181c-0.082-0.047-0.164-0.068-0.25-0.105c-0.079-0.034-0.189-0.124-0.278-0.118
		c-0.028,0.002-0.053,0.037-0.087,0.045c-0.023,0.006-0.07,0.001-0.094,0c-0.132-0.004-0.25-0.022-0.374-0.063
		c-0.177-0.059-0.376-0.219-0.559-0.24c-0.01,0.048-0.015,0.103-0.042,0.142c-0.192-0.064-0.415-0.066-0.599-0.173
		c-0.068-0.04-0.123-0.12-0.194-0.149c-0.06-0.025-0.13-0.012-0.197-0.012c-0.203,0-0.411-0.014-0.613,0
		c-0.082,0.006-0.161,0.017-0.227,0.067c-0.034,0.025-0.069,0.115-0.104,0.128c-0.098,0.037-0.294-0.137-0.325-0.21
		c-0.053-0.127-0.031-0.202-0.186-0.221c-0.175-0.022-0.364,0.08-0.534,0.019c-0.059-0.021-0.072-0.06-0.142-0.062
		c-0.063-0.002-0.129,0.028-0.19,0.046c-0.147,0.043-0.291,0.09-0.442,0.116c-0.184,0.032-0.363,0.069-0.546,0.106
		c-0.166,0.033-0.347,0.143-0.517,0.152c-0.11,0.006-0.186-0.1-0.289-0.12c-0.178-0.034-0.375,0.052-0.553,0.023
		c-0.101-0.017-0.15-0.085-0.249-0.097c-0.11-0.013-0.177,0.035-0.272,0.052c-0.26,0.048-0.451-0.164-0.664-0.264
		c-0.123-0.057-0.23-0.142-0.35-0.197c-0.109-0.049-0.225-0.032-0.345-0.032c-0.391,0-0.78-0.035-1.17-0.032
		c-0.223,0.001-0.384,0.119-0.591,0.162c-0.181,0.039-0.451,0.018-0.625-0.046c-0.104-0.039-0.286-0.168-0.346,0.002
		c-0.103-0.091-0.212-0.191-0.298-0.304c-0.118-0.155-0.273-0.232-0.445-0.329c-0.073-0.041-0.028-0.045-0.102-0.025
		c-0.031,0.008-0.109,0.073-0.133,0.099c-0.068,0.072-0.06,0.189-0.182,0.179c-0.115-0.009-0.159-0.14-0.251-0.171
		c-0.131-0.044-0.303,0.032-0.446-0.009c-0.198-0.058-0.407-0.236-0.47-0.428c-0.053-0.165-0.163-0.218-0.337-0.229
		c-0.275-0.018-0.564-0.013-0.831,0.049c-0.109,0.025-0.412,0.21-0.525,0.143c-0.131-0.078-0.002-0.307,0.035-0.397
		c0.041-0.102,0.075-0.213,0.003-0.316c-0.098-0.141-0.33-0.264-0.484-0.128c-0.042-0.206,0.007-0.418-0.072-0.616
		c-0.074-0.184-0.063-0.383-0.114-0.575l-0.602-0.441l-0.043-0.581l0.312-1.484l0.763-1.322l1.021-1.194l-0.054-0.849l-0.699-1.559
		l0.495-0.419l0.57-1.806c-0.084-0.016-0.258-0.013-0.306-0.096c-0.058-0.099,0.026-0.287,0.042-0.387
		c0.015-0.091,0.006-0.186,0.016-0.278c0.012-0.111,0.066-0.199,0.093-0.304c0.036-0.135-0.036-0.378-0.125-0.481
		c-0.048-0.055-0.146-0.063-0.188-0.126c-0.037-0.055-0.023-0.139-0.046-0.2c-0.041-0.111-0.167-0.131-0.221-0.231
		c-0.052-0.096-0.003-0.229,0.004-0.328c0.009-0.126-0.022-0.228-0.093-0.327c-0.14-0.196-0.052-0.422-0.225-0.614
		c-0.095-0.105-0.202-0.139-0.342-0.145c-0.109-0.005-0.292,0.012-0.39-0.033c-0.115-0.053-0.197-0.237-0.265-0.334
		c-0.135-0.194-0.297-0.396-0.417-0.598c-0.05-0.084-0.045-0.184-0.092-0.27c-0.032-0.058-0.085-0.096-0.133-0.139
		c-0.104-0.092-0.135-0.222-0.225-0.325c-0.046-0.052-0.041-0.175-0.062-0.243c-0.038-0.119-0.079-0.224-0.134-0.337
		c-0.068-0.141-0.104-0.306-0.188-0.439c-0.05-0.078-0.193-0.12-0.159-0.226c0.011-0.033,0.057-0.034,0.074-0.065
		c0.022-0.042,0.002-0.072,0.017-0.118c0.029-0.086,0.114-0.14,0.109-0.24c-0.01-0.21-0.137-0.272-0.302-0.315
		c-0.001-0.088,0.003-0.176-0.003-0.264c-0.007-0.124,0.008-0.282-0.018-0.402c-0.035-0.157-0.219-0.316-0.314-0.442
		c-0.137-0.181-0.23-0.368-0.317-0.579c-0.027-0.065-0.061-0.122-0.068-0.19c-0.016-0.143,0.069-0.18,0.142-0.272
		c-0.079-0.126-0.1-0.167-0.246-0.209c-0.151-0.042-0.379-0.049-0.425-0.222c-0.189-0.019-0.222-0.002-0.375-0.102
		c-0.049-0.032-0.091-0.044-0.146-0.059c-0.136-0.037-0.232-0.069-0.31-0.197c-0.086-0.143-0.173-0.236-0.209-0.403
		c-0.034-0.157,0-0.334,0-0.494c0-0.116-0.054-0.226-0.153-0.255c-0.088-0.026-0.419-0.09-0.503-0.024
		c-0.121,0.094,0.071,0.352-0.117,0.424c-0.076,0.029-0.161-0.018-0.236-0.03c-0.142-0.022-0.305-0.016-0.448-0.007
		c-0.149,0.009-0.366,0.166-0.479,0.028c-0.121-0.148,0.066-0.413-0.067-0.542c-0.14-0.137-0.427,0.06-0.534-0.142
		c-0.031-0.058-0.008-0.14-0.029-0.203c-0.027-0.079-0.081-0.122-0.146-0.174c-0.109-0.087-0.194-0.149-0.148-0.301
		c0.024-0.078,0.062-0.104,0.049-0.194c-0.02-0.14-0.087-0.155-0.22-0.16c-0.135-0.005-0.27-0.01-0.404-0.011
		c-0.156-0.001-0.326,0.016-0.48-0.019c-0.094-0.022-0.111-0.063-0.195-0.002c-0.082,0.06-0.072,0.14-0.18,0.162
		c-0.086,0.018-0.136-0.023-0.212,0.018c-0.094,0.05-0.06,0.135-0.128,0.197c-0.044,0.041-0.11,0.014-0.165,0.02
		c-0.048,0.006-0.09,0.037-0.13,0.042c-0.137,0.017-0.287-0.1-0.435-0.122c-0.164-0.024-0.518,0.093-0.655-0.022
		c-0.071-0.059-0.139-0.189-0.202-0.264c-0.083-0.099-0.15-0.205-0.221-0.314c-0.05-0.078-0.11-0.231-0.181-0.292
		c-0.082-0.072-0.247-0.054-0.349-0.051c-0.177,0.005-0.396,0.031-0.554-0.058c-0.057-0.032-0.125-0.092-0.182-0.131
		c-0.108-0.073-0.223-0.158-0.252-0.282c-0.022-0.09,0.026-0.136-0.09-0.141c-0.091-0.004-0.103,0.084-0.193,0.072
		c-0.074-0.01-0.188-0.121-0.221-0.182c-0.034-0.062-0.03-0.116-0.075-0.17c-0.047-0.056-0.137-0.065-0.164-0.147
		c-0.019-0.056,0.013-0.13,0.001-0.189c-0.019-0.088-0.104-0.135-0.132-0.22c-0.047-0.143,0.095-0.298,0.11-0.444
		c0.021-0.195-0.162-0.222-0.226-0.376c-0.102-0.075-0.162-0.222-0.282-0.275c-0.162-0.071-0.353-0.089-0.519-0.16
		c-0.132-0.056-0.36-0.14-0.41-0.281c-0.057-0.161-0.012-0.222-0.185-0.314c-0.118-0.063-0.209-0.149-0.345-0.168
		c-0.165-0.024-0.378,0.008-0.522-0.078c-0.068-0.041-0.101-0.127-0.171-0.158c-0.05-0.022-0.127,0.015-0.169-0.012
		c-0.088-0.057-0.048-0.149-0.172-0.179c-0.185-0.045-0.311-0.019-0.455-0.163c-0.057-0.056-0.226-0.183-0.222-0.269
		c0.003-0.061,0.104-0.128,0.151-0.159c0.042-0.028,0.136-0.054,0.162-0.095c0.029-0.045,0.002-0.119-0.001-0.172
		c-0.01-0.199,0.135-0.272,0.258-0.41c0.034-0.038,0.124-0.13,0.082-0.191c-0.021-0.03-0.079-0.006-0.11-0.023
		c-0.03-0.017-0.043-0.044-0.064-0.07c-0.091-0.111-0.132-0.267-0.243-0.362c-0.138-0.118-0.341-0.073-0.393,0.096
		c-0.148-0.031-0.234-0.199-0.334-0.293c-0.1-0.093-0.282-0.217-0.399-0.276c-0.01-0.146-0.022-0.193-0.104-0.3
		c-0.069-0.091-0.146-0.162-0.221-0.247c-0.087-0.099-0.064-0.168-0.032-0.241c0.02-0.046,0.035-0.117,0.064-0.159
		c0.058-0.084,0.131-0.053,0.198-0.115c0.04-0.037,0.027-0.101,0.071-0.132c0.065-0.046,0.16-0.002,0.235-0.019
		c0.096-0.021,0.079-0.049,0.131-0.119c0.03-0.04,0.08-0.061,0.1-0.109c0.045-0.107-0.044-0.143-0.077-0.221
		c-0.029-0.071-0.004-0.148-0.033-0.215c-0.032-0.073-0.115-0.098-0.159-0.155c-0.074-0.095-0.038-0.19-0.018-0.296
		c0.018-0.099,0.015-0.162,0.064-0.252c0.023-0.043,0.101-0.124,0.09-0.179c-0.018-0.091-0.417-0.287-0.27-0.453
		c0.042-0.048,0.253-0.05,0.322-0.057c0.193-0.019,0.39-0.008,0.582-0.038c0.134-0.021,0.177-0.138,0.249-0.25
		c0.106-0.167,0.164-0.324,0.291-0.473c0.083,0.027,0.116,0.058,0.199,0.042c0.101-0.02,0.186-0.12,0.25-0.196
		c0.131-0.155,0.118-0.269,0.089-0.464c-0.015-0.104-0.009-0.132-0.066-0.214c-0.058-0.083-0.114-0.117-0.122-0.223
		c-0.017-0.229,0.2-0.214,0.304-0.353c0.046-0.062,0.035-0.107,0.032-0.183c-0.004-0.082-0.008-0.11,0.037-0.183
		c0.07-0.112,0.123-0.133,0.254-0.126c0.118,0.006,0.301,0.038,0.411-0.002c0.083-0.031,0.152-0.109,0.21-0.173
		c0.088,0.03,0.145,0.106,0.24,0.121c0.11-0.149,0.121-0.118,0.255-0.01c0.098,0.078,0.236,0.09,0.361,0.08
		c0.121-0.01,0.264-0.113,0.371-0.17c0.208-0.11,0.341-0.08,0.553,0.045c0.151,0.088,0.287,0.233,0.464,0.273
		c0.1,0.023,0.073-0.033,0.151-0.045c0.064-0.009,0.103,0.032,0.171,0.056c0.099,0.035,0.273,0.12,0.38,0.099
		c0.115-0.023,0.107-0.14,0.143-0.222c0.049-0.109,0.039-0.087,0.019-0.187c-0.008-0.041-0.021-0.034-0.022-0.088
		c-0.002-0.056,0.031-0.133,0.034-0.196c0.005-0.129-0.03-0.311,0.151-0.284c0.209,0.032,0.179,0.182,0.25,0.328
		c0.026,0.054,0.078,0.089,0.101,0.143c0.029,0.068,0.011,0.158,0.041,0.223c0.076,0.165,0.135,0.03,0.229-0.031
		c0.159-0.102,0.415-0.066,0.602-0.121c0.21-0.062,0.467-0.21,0.611-0.38c0.22-0.259-0.049-0.328-0.104-0.594
		c-0.055-0.269,0.145-0.493,0.377-0.334c0.163,0.112,0.354,0.163,0.463,0.336c0.057,0.09,0.08,0.143,0.213,0.097
		c0.156-0.054,0.05-0.132,0.135-0.217c0.04-0.04,0.085,0,0.133-0.021c0.064-0.029,0.061-0.056,0.091-0.111
		c0.076-0.139,0.071-0.296,0.233-0.361c0.222-0.088,0.459-0.104,0.678-0.14c0.189-0.031,0.392-0.054,0.537-0.192
		c0.145-0.138,0.248-0.346,0.237-0.555c-0.01-0.172-0.03-0.177-0.205-0.179c-0.107-0.002-0.232-0.068-0.279-0.169
		c-0.062-0.133,0.093-0.143,0.086-0.255c-0.007-0.126-0.167-0.169-0.203-0.281c-0.034-0.106,0.061-0.187,0.054-0.286
		c-0.008-0.092-0.082-0.151-0.062-0.254c0.134-0.011,0.286-0.146,0.426-0.184c0.121-0.033,0.254-0.047,0.379-0.061
		c0.285-0.032,0.574-0.037,0.855-0.096c0.21-0.044,0.536-0.115,0.671-0.302c0.024-0.034,0.079-0.145,0.084-0.189
		c0.012-0.125-0.139-0.233-0.116-0.37c0.103-0.026,0.259-0.161,0.35-0.225c0.073-0.051,0.146-0.098,0.223-0.144
		c0.235-0.143,0.544-0.127,0.812-0.192c0.271-0.066,0.331-0.2,0.515-0.366c0.079-0.071,0.176-0.115,0.238-0.204
		c0.095-0.138,0.04-0.196,0.244-0.215c0.17-0.016,0.325,0.024,0.421-0.129c0.094-0.15,0.167-0.193,0.352-0.236
		c0.256-0.06,0.362,0.062,0.582,0.185c0.076,0.043,0.207,0.118,0.287,0.084c0.034-0.014,0.062-0.08,0.089-0.103
		c0.044-0.036,0.127-0.053,0.156-0.107c0.045-0.082-0.028-0.195-0.057-0.282c-0.04-0.122-0.109-0.31-0.076-0.44
		c0.02-0.08,0.026-0.068,0.085-0.09c0.026-0.01,0.062,0.009,0.089,0.001c0.035-0.01,0.051-0.042,0.083-0.056
		c0.08-0.036,0.121-0.06,0.204,0.005c0.128-0.096,0.141-0.204,0.322-0.185c0.089,0.009,0.2,0.038,0.291-0.001
		c0.139-0.058,0.095-0.239,0.098-0.366c0.004-0.154,0.025-0.211,0.154-0.285c0.249-0.142,0.553-0.113,0.83-0.113
		c0.162,0,0.33,0.005,0.492-0.011c0.156-0.015,0.283-0.115,0.423-0.181c0.142-0.067,0.373-0.24,0.527-0.238
		c0.071,0.001,0.171,0.063,0.234,0.091c0.109,0.049,0.191,0.068,0.314,0.065c0.035-0.091-0.015-0.183,0.052-0.258
		c0.1-0.112,0.117-0.042,0.124-0.209c0.004-0.087,0.007-0.221,0.064-0.291c0.052-0.064,0.144-0.08,0.217-0.116
		c0.143-0.071,0.238-0.186,0.398-0.229c0.104-0.028,0.431,0.009,0.471-0.107c0.044-0.131,0.055-0.267,0.086-0.399
		c0.041-0.173,0.166-0.257,0.268-0.396c0.047-0.063,0.074-0.159,0.131-0.214c0.07-0.066,0.201-0.091,0.289-0.128
		c0.17-0.071,0.336-0.147,0.515-0.188c0.254-0.058,0.501,0.125,0.746,0.174c0.135,0.027,0.267,0.037,0.399,0.065
		c0.1,0.021,0.215,0.051,0.317,0.054c0.235,0.007,0.451-0.143,0.667-0.216c0.167-0.056,0.351-0.092,0.455-0.247
		c0.145-0.216-0.043-0.428,0.072-0.641c0.047-0.086,0.071-0.106,0.065-0.209c-0.006-0.101-0.066-0.211-0.053-0.31
		c0.103-0.031,0.274-0.035,0.35,0.033c0.084,0.077,0.149,0.24,0.203,0.341c0.077,0.144,0.172,0.265,0.307,0.359
		c0.174,0.121,0.371,0.036,0.556,0.001c0.113-0.022,0.275,0.09,0.328,0.199c0.053,0.11-0.023,0.291-0.033,0.408
		c-0.017,0.202,0.085,0.247,0.296,0.238c0.169-0.007,0.405-0.044,0.538-0.161c0.167-0.147,0.066-0.404,0.177-0.584
		c0.099-0.161,0.257-0.273,0.444-0.238c0.133,0.025,0.228,0.135,0.353,0.171c0.156,0.045,0.345-0.008,0.479,0.083
		c0.108,0.074,0.143,0.195,0.151,0.319c0.018,0.257-0.144,0.404-0.268,0.608c0.072,0.04,0.019,0.105-0.035,0.139
		c-0.078,0.049-0.133-0.009-0.191-0.053c-0.217-0.163-0.405-0.049-0.568,0.166c-0.225,0.3-0.325,0.666-0.671,0.855
		c-0.458,0.251-0.93,0.15-1.421,0.242c-0.167,0.031-0.209,0.116-0.287,0.258c-0.098,0.177-0.199,0.205-0.395,0.259
		c-0.389,0.108-0.78,0.114-0.904,0.581c-0.107,0.405,0.267,0.547,0.491,0.818c0.047,0.057,0.164,0.184,0.156,0.267
		c-0.008,0.083-0.148,0.105-0.185,0.161c-0.082,0.126,0.041,0.224,0.066,0.361c0.035,0.187-0.023,0.362,0.066,0.543
		c0.069,0.14,0.132,0.294,0.215,0.424c0.23,0.359,0.553,0.641,0.751,1.022c0.079,0.152,0.135,0.269,0.311,0.317
		c0.285,0.078,0.701,0.027,0.992-0.009c0.413-0.051,0.925-0.225,1.224-0.515c0.137-0.133,0.336-0.195,0.443-0.357
		c0.071-0.108,0.089-0.244,0.154-0.355c0.073-0.126,0.161-0.222,0.217-0.36c0.077-0.191,0.101-0.424,0.276-0.556
		c0.178-0.135,0.493-0.274,0.713-0.305c0.049-0.007,0.092-0.026,0.136,0.002c0.083,0.051,0.043,0.201,0.108,0.254
		c0.082,0.067,0.307-0.037,0.386-0.07c0.244-0.103,0.7-0.344,0.364-0.66c-0.215-0.202-0.366,0.342-0.619,0.132
		c-0.13-0.108-0.162-0.327-0.264-0.455c-0.05-0.063-0.008-0.044-0.086-0.082c-0.075-0.036-0.155-0.009-0.228-0.076
		c-0.189-0.174-0.093-0.51-0.261-0.697c-0.085-0.095-0.228-0.087-0.324-0.162c-0.091-0.071-0.119-0.167-0.146-0.276
		c-0.053-0.212-0.072-0.435-0.093-0.652c-0.014-0.142,0.002-0.332,0.08-0.461c0.131,0.02,0.213,0.21,0.343,0.212
		c0.091,0.001,0.121-0.088,0.207-0.115c0.111-0.034,0.307,0.001,0.422,0.001c0.277,0,0.498-0.002,0.752-0.141
		c0.228-0.125,0.326-0.213,0.569-0.139c0.139,0.042,0.265,0.106,0.387,0.155c0.181,0.072,0.408,0.045,0.605,0.044
		c0.205-0.001,0.188,0.087,0.364,0.145c0.358,0.118,0.762-0.088,1.136-0.097c0.175-0.004,0.336,0.058,0.506,0.048
		c0.105-0.006,0.163-0.055,0.26-0.077c0.151-0.034,0.325,0.034,0.476,0.042c0.246,0.012,0.491,0.033,0.734,0.052
		c0.242,0.019,0.337,0.053,0.441,0.269c0.078,0.164,0.163,0.336,0.225,0.508c0.205,0.568,0.213,1.21,0.24,1.821
		c0.014,0.31-0.108,0.741,0.113,0.967c0.113,0.115,0.224,0.094,0.389,0.125c0.159,0.03,0.311,0.07,0.368,0.235
		c0.035,0.101-0.039,0.239,0.015,0.333c0.051,0.09,0.215,0.147,0.281,0.23c0.105,0.131,0.182,0.302,0.257,0.447
		c0.135,0.264,0.314,0.139,0.568,0.089c0.364-0.071,0.751-0.195,1.124-0.106c0.234,0.056,0.466,0.043,0.589,0.266
		c0.079,0.144,0.089,0.422,0.23,0.527c0.108,0.08,0.4,0.119,0.53,0.128c0.289,0.018,0.58,0.016,0.87,0.033
		c0.278,0.016,0.64-0.093,0.908-0.002c0.248,0.084,0.376,0.384,0.627,0.49c0.077-0.132,0.197-0.398,0.355-0.44
		c0.25-0.067,0.48-0.021,0.741-0.047c0.119-0.012,0.31-0.107,0.418-0.066c0.024-0.182-0.126-0.277-0.128-0.423
		c-0.003-0.199,0.23-0.274,0.38-0.295c0.174-0.024,0.353-0.04,0.413,0.118c0.051,0.134-0.001,0.19,0.113,0.298
		c0.044,0.042,0.098,0.067,0.144,0.102c0.108,0.082,0.059,0.09,0.179,0.054c0.204-0.061,0.316-0.311,0.559-0.241
		c0.137,0.04,0.199,0.132,0.37,0.145c0.232,0.018,0.421,0.042,0.644,0.084c0.215,0.041,0.459,0.11,0.535,0.348
		c0.032,0.1,0,0.18,0.069,0.273c0.092,0.125,0.315,0.232,0.453,0.311c0.178-0.13,0.317-0.354,0.499-0.491
		c0.179-0.136,0.213-0.057,0.285,0.135c0.029,0.077,0.09,0.277,0.164,0.317c0.108,0.059,0.129-0.023,0.222-0.092
		c0.09-0.067,0.194-0.105,0.286-0.167c0.093-0.062,0.137-0.137,0.221-0.208c0.055,0.062,0.088,0.168,0.166,0.203
		c0.103,0.047,0.281,0.012,0.396,0.011c0.195-0.001,0.272,0.088,0.474,0.097c0.119,0.005,0.535-0.055,0.623,0.038
		c0.025,0.027,0.012,0.184,0.015,0.221c0.01,0.131,0.025,0.263,0.071,0.386c0.223-0.024,0.451,0.099,0.673,0.114
		c0.027,0.131-0.025,0.134,0.053,0.249c0.077,0.114,0.21,0.165,0.317,0.24c0.198,0.138,0.264,0.121,0.517,0.122
		c0.127,0,0.24,0.028,0.333-0.057c0.068-0.063,0.058-0.183,0.146-0.218c0.048-0.019,0.177,0.015,0.231,0.017
		c0.179,0.008,0.202-0.019,0.344-0.114c0.412-0.275,0.898-0.572,0.67-1.114c-0.038-0.09-0.093-0.063-0.052-0.163
		c0.012-0.029,0.192-0.107,0.202-0.111c0.216-0.086,0.411-0.183,0.612-0.273c0.11-0.049,0.166-0.039,0.257-0.112
		c0.072-0.058,0.132-0.204,0.245-0.096c0.047,0.046,0.015,0.133,0.029,0.186c0.026,0.095,0.039,0.127,0.111,0.208
		c0.13,0.147,0.309,0.327,0.516,0.298c0.031-0.092,0.02-0.153-0.008-0.243c-0.057-0.186-0.186-0.269,0.036-0.306
		c0.156-0.026,0.281,0.03,0.432-0.097c0.129-0.109,0.138-0.267,0.285-0.337c0.22-0.104,0.22-0.206,0.31-0.388
		c0.338,0.044,0.246-0.4,0.256-0.599c0.12-0.009,0.33-0.045,0.37-0.18c0.045-0.149-0.118-0.308-0.035-0.474
		c0.066-0.132,0.23-0.247,0.306-0.391c0.114-0.215,0.221-0.413,0.349-0.612c0.149-0.233-0.004-0.406-0.078-0.648
		c-0.036-0.119-0.01-0.254,0.028-0.368c0.052-0.156,0.235-0.332,0.249-0.481c0.017-0.185-0.201-0.422-0.321-0.563
		c-0.145-0.171-0.395-0.226-0.596-0.334c-0.374-0.2-0.728-0.479-0.887-0.897c-0.071-0.184-0.079-0.416-0.13-0.612
		c-0.057-0.223-0.141-0.45-0.177-0.677c0.111-0.039,0.455-0.32,0.44-0.478c-0.011-0.117-0.219-0.144-0.291-0.187
		c-0.095-0.055-0.137-0.141-0.214-0.21c-0.074-0.066-0.132-0.072-0.219-0.134c-0.124-0.087-0.142-0.258-0.196-0.395
		c-0.076-0.192-0.31-0.406-0.256-0.62c0.034-0.134,0.156-0.257,0.216-0.38c0.092-0.191,0.092-0.409,0.134-0.613
		c0.053-0.261,0.185-0.502,0.274-0.754c0.081-0.229,0.078-0.497,0.08-0.742c0.003-0.314,0.109-0.536,0.23-0.821
		c0.139-0.326,0.233-0.705,0.597-0.832c0.138-0.048,0.27-0.006,0.415,0.004c0.098,0.007,0.289,0.07,0.378,0.031
		c0.154-0.068,0.115-0.351,0.106-0.498c-0.008-0.149-0.165-0.243-0.129-0.372c0.017-0.061,0.158-0.124,0.145-0.198
		c-0.009-0.051-0.059-0.057-0.076-0.101c-0.053-0.137,0.122-0.218,0.188-0.314c0.079-0.115,0.112-0.268,0.181-0.389
		c0.066-0.118,0.168-0.244,0.265-0.332c0.026-0.024,0.064-0.009,0.092-0.043c0.025-0.031,0.031-0.107,0.039-0.146
		c0.01-0.047,0.005-0.106,0.041-0.143c0.005-0.005,0.093-0.008,0.076-0.002c0.113-0.038,0.246-0.022,0.36-0.059
		c0.041-0.014,0.06-0.023,0.1-0.046c0.161-0.094,0.248-0.23,0.318-0.399c0.057-0.139,0.078-0.116,0.234-0.137
		c0.097-0.013,0.194-0.024,0.29-0.035c0.522-0.063,0.806-0.444,1.011-0.958c0.187-0.47,0.23-0.984,0.386-1.462
		c0.084-0.257,0.042-0.933,0.528-0.817c0.2,0.048,0.151,0.284,0.213,0.452c0.087,0.238,0.224,0.228,0.437,0.324
		c0.12,0.054,0.197,0.166,0.318,0.23c0.159,0.084,0.254-0.022,0.398,0.019c0.152,0.043,0.401,0.41,0.575,0.178
		c0.142,0.168-0.013,0.211,0.021,0.352c0.026,0.112,0.263,0.288,0.392,0.297c0.102,0.007,0.144-0.052,0.248-0.068
		c0.149-0.021,0.336,0.051,0.497,0.044c0.077-0.003,0.152-0.005,0.216-0.02c0.033-0.008,0.004-0.096,0.07-0.092
		c0.115,0.007,0.273,0.201,0.358,0.28c0.145,0.134,0.25,0.273,0.25,0.5c0.099-0.113,0.253-0.309,0.348-0.092
		c0.223-0.117,0.114-0.15,0.36-0.19c0.106-0.017,0.203,0.005,0.304-0.049c0.118,0.136,0.03,0.305,0.072,0.458
		c0.033,0.121,0.087,0.127,0.16,0.242c0.079,0.124,0.077,0.18,0.074,0.336c0.292,0.002,0.34,1.052,0.772,0.469
		c0.193,0.197,0.476,0.27,0.747,0.26c0.023-0.113,0.05-0.23,0.11-0.328c0.389,0.224,1.172,0.364,1.598,0.174
		c0.059,0.349,0.37,0.095,0.541,0.05c0.186-0.049,0.4,0.003,0.555,0.071c0.121,0.053,0.037,0.079,0.218,0.094
		c0.222,0.019,0.15,0,0.311,0.087c0.217,0.119,0.342,0.338,0.59,0.44c0.181,0.074,0.357,0.096,0.509,0.236
		c0.035,0.032-0.017,0.096,0.023,0.132c0.088,0.079,0.387,0.208,0.5,0.215c0.142,0.008,0.281-0.141,0.396,0.026
		c0.048,0.07-0.019,0.178,0.013,0.251c0.059,0.137,0.207,0.172,0.348,0.174c0.041-0.096,0.083-0.188,0.162-0.258
		c0.087,0.183,0.022,0.537,0.222,0.653c0.219,0.128,0.338-0.184,0.525-0.186c0.219-0.003,0.604,0.5,0.802,0.624
		c0.15,0.095,0.273,0.116,0.453,0.111c0.086-0.375,0.307-0.339,0.63-0.347c0.02,0.07,0.033,0.145,0.037,0.219
		c0.233-0.038,0.466-0.039,0.401,0.268c0.209,0.039,0.433,0.005,0.643-0.003c0.234-0.008,0.269,0.05,0.495,0.183
		c0.151,0.09,0.294,0.164,0.471,0.172c0.064,0.003,0.141-0.072,0.187-0.065c0.138,0.02,0.198,0.186,0.32,0.219
		c0.118,0.032,0.121-0.035,0.213-0.028c0.159,0.012,0.354,0.117,0.467,0.231c0.153,0.155,0.409,0.491,0.419,0.718
		c0.009,0.177-0.198,0.069-0.257,0.188c-0.044,0.088-0.034,0.215-0.033,0.312c0.002,0.177,0.114,0.265,0.206,0.41
		c0.04,0.064,0.082,0.128,0.043,0.188c0,0-0.071,0.029-0.087,0.043c-0.035,0.031-0.037,0.05-0.055,0.093
		c-0.057,0.134-0.037,0.317-0.02,0.458c0.014,0.115,0.033,0.146,0.148,0.17c0.038,0.093-0.04,0.186,0.003,0.277
		c0.054,0.117,0.195,0.202,0.256,0.325c0.078,0.156,0.2,0.379,0.196,0.559c-0.004,0.167-0.127,0.235-0.064,0.411
		c0.033,0.09,0.06,0.152,0.042,0.248c-0.012,0.068-0.062,0.121-0.081,0.185c-0.042,0.142-0.094,0.425-0.049,0.574
		c0.052,0.174,0.295,0.291,0.427,0.404c0.123,0.106,0.221,0.256,0.218,0.423c-0.002,0.133-0.128,0.391-0.037,0.516
		c0.093,0.129,0.384,0.029,0.482,0.133c0.039,0.041,0.028,0.084,0.027,0.146c0.065,0.013,0.13,0.022,0.195,0.033
		c0.085,0.186,0.045,0.275,0.23,0.365c0.074,0.036,0.155,0.053,0.224,0.088c0.193,0.099,0.241,0.348,0.207,0.556
		c0.149,0.103,0.267,0.06,0.315,0.237c0.061,0.223,0.121,0.445,0.181,0.669c0.031,0.114,0.075,0.23,0.173,0.302
		c0.164,0.121,0.17-0.098,0.327-0.085c0.102,0.008,0.13,0.099,0.172,0.162c0.058,0.088,0.129,0.14,0.224,0.186
		c0.067,0.033,0.149,0.044,0.204,0.101c0.057,0.059,0.077,0.147,0.121,0.215c0.06,0.092,0.085,0.098,0.197,0.117
		c0.095,0.016,0.158,0.039,0.249,0.076c0.222,0.092,0.486,0.055,0.722,0.067c0.212,0.01,0.471,0.09,0.641-0.057
		c0.152-0.133,0.294-0.155,0.501-0.084c0.069,0.1,0.11,0.2,0.174,0.3c0.027,0.043,0.07,0.113,0.052,0.168
		c-0.02,0.059-0.142,0.092-0.154,0.152c-0.012,0.057,0.112,0.207,0.126,0.274c0.014,0.071-0.03,0.24,0.009,0.294
		c0.084,0.12,0.534,0.041,0.668,0.006c0.101-0.027,0.175-0.08,0.278-0.095c0.087-0.012,0.163,0.005,0.245,0.024
		c0.098,0.022,0.227,0.031,0.301,0.093c0.055,0.047,0.074,0.125,0.133,0.169c0.073,0.053,0.176,0.003,0.236,0.035
		c0.067,0.036,0.066,0.128,0.126,0.169c0.066,0.046,0.201,0.041,0.278,0.056c0.113,0.022,0.158,0.086,0.253,0.126
		c0.162,0.068,0.15-0.248,0.345-0.256c0.063-0.002,0.146,0.057,0.209,0.036c0.104-0.034,0.253-0.284,0.313-0.367
		c0.162,0.112,0.217,0.113,0.416,0.127c0.085,0.006,0.171,0.023,0.235,0.07c0.088,0.065,0.106,0.116,0.22,0.147
		c0.285,0.079,0.546,0.083,0.838,0.085c0.103,0,0.174,0.01,0.258-0.055c0.122-0.095,0.212-0.231,0.34-0.321
		c0.063-0.044,0.164-0.061,0.206-0.126c0.051-0.078,0.005-0.197,0.05-0.279c0.068-0.122,0.196-0.095,0.301-0.149
		c0.204-0.106,0.199-0.383,0.376-0.5c0.099-0.066,0.289-0.052,0.404-0.065c0.268-0.028,0.521,0.079,0.782,0.004
		c0.107-0.031,0.191-0.084,0.282-0.147c0.131-0.092,0.136-0.182,0.226-0.299c0.295,0.069,0.628,0.239,0.893,0.002
		c0.247,0.007,0.135-0.183,0.247-0.334c0.138-0.186,0.431-0.01,0.61,0.012c0.132,0.017,0.243-0.001,0.372-0.024
		c0.202-0.037,0.409,0.028,0.599-0.051c0.189-0.079,0.381-0.207,0.54-0.333c0.073-0.057,0.075-0.135,0.138-0.197
		c0.081-0.079,0.273-0.1,0.388-0.114c0.176-0.022,0.292,0.062,0.429,0.16c0.113,0.081,0.203,0.086,0.345,0.065
		c0.135-0.02,0.274-0.103,0.416-0.075c0.154,0.031,0.297,0.14,0.452,0.18c0.422,0.111,0.843-0.114,1.264-0.053
		c0.142,0.02,0.152,0.06,0.247,0.146c0.081,0.073,0.137,0.087,0.247,0.103c0.211,0.031,0.43,0.02,0.635,0.067
		c0.16,0.037,0.212,0.058,0.272,0.23c0.049,0.141,0.077,0.292,0.12,0.434c0.165,0.005,0.292-0.02,0.457-0.011
		c0.157,0.009,0.318,0.118,0.435,0.218c0.095,0.081,0.107,0.09,0.245,0.094c0.144,0.005,0.298-0.017,0.438-0.051
		c0.193-0.047,0.373-0.076,0.566-0.105c0.068-0.01,0.11-0.024,0.173-0.053c0.058-0.026,0.109-0.068,0.163-0.096
		c0.105-0.055,0.185-0.042,0.322-0.016c0.331,0.061,0.662,0.135,0.993,0.195c0.244,0.044,0.481,0.137,0.696,0.267
		c0.296,0.18,0.478,0.447,0.727,0.674c0.05,0.045,0.14,0.078,0.174,0.135c0.06,0.102-0.009,0.295,0.01,0.414
		c0.016,0.1,0.079,0.209,0.116,0.305c0.041,0.106,0.088,0.277,0.179,0.348c0.16-0.112,0.086,0.155,0.112,0.212
		c0.042,0.092,0.229,0.084,0.31,0.145c0.103,0.076,0.143,0.217,0.234,0.306c0.104,0.103,0.357,0.212,0.511,0.2
		c0.102-0.096,0.271-0.124,0.4-0.095c0.151,0.035,0.372,0.13,0.482,0.245c0.249-0.126,0.527,0.044,0.782,0.02
		c0-0.2,0.292,0.011,0.357,0.034c0.081,0.028,0.122-0.038,0.172-0.034c0.066,0.005,0.105,0.104,0.208,0.094
		c0.159-0.015,0.283-0.218,0.46-0.114c0.188,0.111,0.33,0.491,0.518,0.183c0.055,0.153,0.103,0.139,0.257,0.139
		c0.101,0,0.376-0.048,0.452,0c0.037,0.023,0.144,0.241,0.139,0.281c-0.01,0.087-0.191,0.188-0.24,0.275
		c-0.028,0.049-0.043,0.067-0.041,0.123c0.001,0.032,0.031,0.049,0.036,0.078c0.013,0.068-0.004,0.139,0.006,0.207
		c0.024,0.163,0.175,0.115,0.249,0.237c0.087,0.143-0.08,0.192-0.125,0.283c-0.062,0.125,0.079,0.298,0.061,0.435
		c-0.024,0.183-0.27,0.345-0.103,0.557c0.098,0.125,0.313,0.018,0.396-0.092c0.082,0.141-0.024,0.315,0.018,0.466
		c0.068,0.246,0.476,0.314,0.694,0.438c0.103,0.059,0.211,0.146,0.324,0.18c0.136,0.041,0.313,0.022,0.456,0.027
		c0.222,0.007,0.173,0.238,0.323,0.345c0.028,0.02,0.08,0.013,0.105,0.041c0.044,0.05,0.02,0.158,0.023,0.215
		c0.009,0.18,0.036,0.296,0.123,0.449c0.031,0.055,0.058,0.149,0.117,0.176c0.052,0.024,0.137-0.023,0.191,0.001
		c0.113,0.05,0.103,0.272,0.139,0.382c0.047,0.141,0.193,0.322,0.318,0.409c0.125,0.087,0.168-0.014,0.298-0.039
		c0.109-0.021,0.229,0.039,0.338,0.032c0.078-0.005,0.136-0.052,0.205-0.08c0.126-0.05,0.145,0,0.268,0.036
		c0.162,0.048,0.408,0.032,0.575,0.023c0.105-0.006,0.169-0.068,0.263-0.077c0.056-0.005,0.117,0.019,0.173,0.022
		c0.161,0.009,0.32-0.069,0.476-0.05c0.169,0.02,0.329,0.116,0.497,0.15c0.19,0.039,0.269,0.061,0.438-0.038
		c0.383-0.226,0.601-0.068,1.016-0.013c0.368,0.049,0.677,0.253,0.977,0.461c0.12,0.082,0.136,0.149,0.203,0.269
		c0.068,0.12,0.205,0.172,0.318,0.243c0.314,0,0.663-0.025,0.972,0.032c0.143,0.027,0.273,0.089,0.412,0.129
		c0.194,0.057,0.409,0.086,0.611,0.086c0.203-0.001,0.405-0.014,0.608-0.011c0.178,0.003,0.309,0.077,0.473,0.135
		c0.332,0.117,0.713,0.215,1.07,0.176c0.221-0.024,0.416-0.242,0.591-0.38c0.15-0.118,0.202-0.337,0.349-0.447
		c0.121,0.137,0.175,0.328,0.31,0.45c0.19,0.172,0.532,0.182,0.778,0.21c0.262,0.03,0.502,0.125,0.769,0.126
		c0.282,0.001,0.461-0.062,0.71-0.183c0.543-0.264,1.104-0.491,1.66-0.729c0.429-0.184,0.91-0.368,1.301-0.625
		c0.184-0.121,0.275-0.197,0.515-0.1c0.137,0.055,0.238,0.15,0.386,0.194c0.085,0.026,0.148,0.05,0.238,0.045
		c0.178-0.008,0.319-0.197,0.484-0.266c0.177-0.075,0.334-0.239,0.532-0.225c0.199,0.016,0.383,0.05,0.584,0.05
		c0.161,0,0.32-0.011,0.48-0.011c0.271,0,0.436-0.071,0.679-0.193c0.542-0.273,1.111-0.468,1.654-0.736
		c0.336-0.166,0.731-0.263,1.095-0.341c0.298-0.063,0.615-0.031,0.92-0.031c0.087,0,0.17-0.015,0.237,0.028
		c0.058,0.037,0.121,0.193,0.217,0.15c0.116-0.051,0.026-0.182,0.173-0.147c0.096,0.023,0.137,0.126,0.223,0.001
		c0.168,0.081,0.456-0.073,0.588-0.184c0.179-0.151,0.295-0.411,0.546-0.462c0.133-0.027,0.296,0.024,0.405-0.074
		c0.092-0.083,0.142-0.231,0.192-0.34c0.146-0.316,0.306-0.619,0.466-0.928c0.144-0.277,0.272-0.618,0.483-0.852
		c0.239-0.267,0.626-0.442,0.93-0.621c0.117-0.068,0.229-0.143,0.347-0.207c0.155-0.084,0.159-0.164,0.212-0.331
		c0.048-0.152,0.084-0.185,0.246-0.22c0.184-0.039,0.371-0.06,0.555-0.099c0.175-0.037,0.247-0.065,0.355-0.213
		c0.113-0.153,0.239-0.292,0.362-0.438c0.224-0.266,0.578-0.294,0.871-0.46c0.07-0.268,0.616-0.456,0.835-0.576
		c0.323-0.177,0.588-0.41,0.896-0.603c0.23-0.145,0.601-0.378,0.871-0.43c0.278-0.053,0.484,0.19,0.718,0.318
		c0.377,0.206,0.53,0.122,0.919,0.042c0.392-0.08,0.781,0.082,1.158,0.162c0.388,0.083,0.711,0.221,1.031,0.46
		c0.244,0.182,0.306,0.498,0.514,0.735c0.129,0.148,0.301,0.194,0.45,0.315c0.149,0.121,0.255,0.291,0.377,0.437
		c0.258,0.308,0.548,0.529,0.951,0.601c0.039,0.109-0.025,0.249,0.08,0.344c0.07,0.063,0.206,0.082,0.296,0.086
		c0.103,0.004,0.163-0.095,0.25-0.055c0.061,0.028,0.164,0.116,0.239,0.092c0.047-0.015,0.079-0.07,0.13-0.085
		c0.085-0.025,0.19,0.04,0.263,0.078c0.103,0.053,0.218,0.1,0.329,0.135c0.202,0.063,0.452,0.047,0.659,0.016
		c0.216-0.033,0.317-0.234,0.507-0.315c0.296-0.126,0.612-0.325,0.887-0.467c0.349-0.18,0.597-0.388,0.994-0.48
		c0.167-0.039,0.334-0.084,0.491-0.034c0.237,0.077,0.441,0.25,0.67,0.351c0.463,0.203,1.088,0.163,1.512,0.452
		c0.273,0.186,0.381,0.627,0.57,0.887l-4.008,8.734l0.25,0.516l-1.634,2.589l0.129,2.36l-1.677,0.914
		c-0.015,0.083,0.027,0.127,0.038,0.207c0.01,0.079-0.028,0.148-0.022,0.223l0.231,1.667l2.064,2.021h0.157l0.98-1.191l0.826-0.532
		l1.101,0.371l1.15-0.401l1.344-0.065l1.22,0.581l1.736,1.575l0.667-0.984c0.212,0,0.256,0.049,0.301,0.242
		c0.048,0.21,0.063,0.284,0.304,0.3c0.007,0.123,0.009,0.254-0.003,0.377c0.318,0.016,0.34-0.061,0.56-0.245
		c0.198-0.164,0.423-0.296,0.608-0.477c0.251-0.245,0.497-0.652,0.599-0.993c0.057-0.191-0.009-0.252-0.161-0.342
		c-0.196-0.116-0.099-0.207-0.205-0.375c-0.077-0.121-0.242-0.18-0.288-0.332C181.302,92.011,181.423,91.853,181.588,91.799z"/>
</g>
</svg>
