<?xml version="1.0" encoding="utf-8"?>
<!-- Generator: Adobe Illustrator 26.0.3, SVG Export Plug-In . SVG Version: 6.00 Build 0)  -->
<svg version="1.1" xmlns="http://www.w3.org/2000/svg" xmlns:xlink="http://www.w3.org/1999/xlink" x="0px" y="0px"
	 viewBox="0 0 200 200" enable-background="new 0 0 200 200" xml:space="preserve">
<g id="Isolation_Mode">
</g>
<g id="Layer_1">
	<g>
		<path fill-rule="evenodd" clip-rule="evenodd" fill="#1E8346" d="M95.387,12.618c-1.123,0.539-0.874-1.001-1.178,1.603
			c-0.463,3.97-3.043,2.275-2.687,5.697c0.699,6.728,0.109,4.222,3.79,8.269c-0.057,3.189-0.211,3.095,1.171,5.357
			c0.77,1.261,0.436,0.966,0.913,2.54c0.803,2.651,0.778,0.099,2.271,4.215l1.208,1.841c1.339,2.14-0.922,2.238,2.695,2.896
			c1.455,0.265-0.526-0.215,0.789,0.152c0.11,0.03,0.25,0.114,0.335,0.143c0.083,0.028,0.206,0.114,0.309,0.17
			c2.268-0.883,2.817-1.203,3.012-4.308c0.073-1.168-0.157-0.836,0.214-2.172c-1.348-0.63-0.217-0.146-0.819-0.494
			c-2.946-1.7-1.074,0.431-4.036-2.74l-0.94-0.781l0.402-6.157c-5.272-3.591-2.435,0.232-4.274-2.952
			c-4.983-8.631-0.431-5.017,2.52-9.679c1.986-3.137,0.356-3.089,0.526-7.019c-5.299,2.206-4.562,0.832-4.594,3.37L95.387,12.618
			L95.387,12.618z M93.803,79.488c-0.548-1.605,0.525-1.16-1.261-0.802C93.437,79.882,92.349,78.902,93.803,79.488L93.803,79.488z
			 M106.351,112.13l-0.1-0.554l0.661-0.113l0.05-1.445c-1.603-0.034-1.177-0.074-2.271,0.407
			C105.033,112.107,104.683,111.966,106.351,112.13L106.351,112.13z M104.589,71.742l3.476-1.49
			c-0.773-0.877,0.274-0.571-2.34-1.298L104.589,71.742L104.589,71.742z M92.376,66.466l-0.232-1.153l-1.685,0.196
			c0.169,2.593,0.189,1.913,1.41,3.099c1.065,0.738,1.292,0.702,2.231,0.086l1.285-1.635c-0.727-1.078-0.179-0.566-1.269-1.26
			L92.376,66.466L92.376,66.466z M104.861,100.325c-2.743,1.233-0.932,0.995-2.558,2.253c0.341,0.926,0.463,1.694,0.841,2.389
			l1.514,0.349l0.103,1.25l1.777,1.366c1.32,0.335,0.82-0.607,1.171,1.358l1.458,0.107c1.821-0.283,1.864-0.69,3.792-0.653
			l-0.099-0.763l2.289-0.399l-0.078-0.415l0.981-0.218c-0.051-1.954,0.095-1.535,0.628-3.421l-4.23,0.402l-4.249-0.25
			c-0.318-2.867-0.784-1.566,0.07-3.579c-1.153-0.348-0.481,0.008-0.904-0.864l0.077-0.344
			C105.724,99.201,105.379,98.907,104.861,100.325L104.861,100.325z M94.322,101.667l3.398-0.022
			c0.294-2.625-1.018-2.993-3.454-2.854l0.255,1.966c-0.759-0.687-0.441,0.091-0.676-1.484c-0.066-0.447,0.014-1.479-0.032-2.15
			l-0.178,0.24l0.04-2.046c-0.248-4.56-1.326-7.271-0.094-11.731l1.641-0.704c-0.714-2.042-1.893-1.21-2.714-0.017
			c-2.734,0.034-3.177-0.741-5.397,0.477c-0.156,2.546,0.594,1.568,0.052,3.756c-1.243,5.029-1.972,1.881-0.347,5.218l-0.372,1.493
			c-0.166,1.671-0.599,3.658-0.334,5.221l0.49,0.772c0.09,0.273,0.128,1.057,0.162,1.419c0.381,0.945,0.524,1.193,1.024,1.817
			l0.356,0.13c0.405,1.263-0.286,0.225,1.053,1.388c0.923,0.801-0.022,0.291,1.377,0.854l0.021-0.405
			c1.79-0.319,0.874-0.163,1.276-0.666l1.477-0.456l0.252-0.504C93.866,102.789,94.09,102.246,94.322,101.667L94.322,101.667z
			 M85.103,24.036c-0.486,4.708-2.829,2.465-2.257,4.999c0.204,0.905,0.124,0.425,0.485,0.938l0.862-0.026
			c0.689-1.457-0.024-2.607,1.47-3.82c1.282-1.042,2.363-0.252,1.435-2.567L85.103,24.036L85.103,24.036z M95.698,10.259
			c0.783-2.377,0.273-2.158-1.887-3.753l-0.812-0.659c-0.76,0-0.537,0.173-0.537-0.646c-1.725,1.475-1.132,0.334-2.643,1.454
			c0.458,2.17-0.001,0.92,1.823,2.017C94.654,10.482,93.251,10.276,95.698,10.259L95.698,10.259z M92.402,55.905
			c-0.493-0.333,0.007-0.26-0.908-0.463c-0.34-0.076-0.94-0.087-1.285-0.115c-0.182,0.981-0.037,1.939-0.136,2.537
			c-0.17,1.029-0.596,1.374-1.227,2.193c0.689,1.762,1.485,3.867,3.677,3.507c1.806-0.294,1.059-0.443,3.082-0.285
			c0.685-2.13,0.194-0.789,2.894-2.757l1.098-0.896c-0.001-2.348-0.356-1.75,0.45-3.363c-1.606-0.857-0.006-0.279-1.315-0.921
			c-0.536-0.263-1.115-0.327-1.589-0.319C93.048,55.085,93.617,54.67,92.402,55.905L92.402,55.905z M92.376,127.992l1.718,0.037
			c1.606-0.847,2.758-1.526,2.565-3.759l-0.942-6.072c0.378-0.442,0.175-0.199-0.317-0.484l-3.685,0.427l-1.377,1.549
			c-0.052,0.049-0.163,0.149-0.24,0.227C90.797,123.435,90.404,126.33,92.376,127.992L92.376,127.992z M108.616,56.926
			c2.379,1.445,2.532-0.44,5.351-0.958c-1.32-4.367-1.2-4.933-3.666-4.981c-0.191-1.787,0.092-0.146-0.986-1.697l0.118-1.573
			l-1.659-0.019l-1.957,0.467c-0.904,3.073-1.401,3.485-2.936,4.42c4.717,2.928,3.664-1.152,4.894,3.033
			c0.038,0.128,0.298,0.652,0.331,0.706C108.52,56.989,108.526,56.83,108.616,56.926L108.616,56.926z M103.577,90.202
			c0.448,1.039,0.572,2.699,0.308,4.307l1.008,0.953c0.891,0.633-0.206,0.265,1.262,0.519l3.058-3.604
			c1.068-1.348,0.86-3.824,0.819-3.879c-1.257-0.844-2.977-0.928-4.483-1.283C105.159,88.183,104.444,89.102,103.577,90.202
			L103.577,90.202z M91.08,109.012c-1.116,0.643-0.52,0.023-1.189,0.663c-0.438,0.419-0.169,0.191-0.362,0.623l-0.525,1.439
			l1.294,1.181c0.412,0.307,0.614-0.517,0.967,3.14c0.935-0.083,1.691-0.116,2.631-0.262c4.414-0.683,2.098-2.918,2.103-5.524
			c-2.973-0.29-0.967-0.394-2.867-1.46C92.431,108.418,90.503,107.903,91.08,109.012L91.08,109.012z M101.205,146.441
			c0.806,2.706,0.626,0.443,1.409,2.457c0.467,1.2-0.194,3.524,3.969,2.996c0.959-0.122,0.53,0.038,1.508-0.297
			c3.624-1.242,1.978-4.489,1.962-7.567l1.762-1.118c-0.988-0.612-3.813-0.07-5.045,0.929c-0.489,0.396-0.405,0.518-0.871,0.784
			L101.205,146.441L101.205,146.441z M105.495,113.954c-1.301,1.758-0.997,7.164-1.04,10.702c0.377,0.168,0.058,0.116,0.649,0.189
			c0.021,0.002,0.742,0.01,0.745,0.01c0.884-0.018,1.121-0.144,2.257-0.184c0.427-2.846,4.689-3.072,3.466-7.768
			c-0.335-0.844-0.775-1.472-1.635-2.044c-0.974-0.648-1.908-0.538-2.921-1.444C106.052,113.988,106.321,114.146,105.495,113.954
			L105.495,113.954z M90.104,43.691l1.004,3.302l-2.178,1.044c-0.264,2.989-0.001,0.504,0.84,2.951
			c0.835,2.433-0.362-0.932,0.219,1.035c0.389,1.317-0.528-1.228,0.219,0.681l0.352,0.647c1.347,0.309,1.102-0.026,1.412-0.133
			l4.875-2.09c-0.244-1.682-0.013-1.039,0.023-2.054l-1.445-5.858c-0.885-3.036-0.194-5.322-2.073-7.078
			c-0.497,0.897-0.128,2.601-1.193,3.913c-2.926,3.604-0.38,0.387-1.732,3.019L90.104,43.691L90.104,43.691z M105.332,73.493
			c0.182,6.513-4.913,9.672,4.7,13.283c2.117-3.436,1.613-3.476,2.994-5.173c1.155-1.42,0.772-2.415,0.279-4.145
			c-0.829-2.91-3.607-5.009-4.135-5.071C106.357,72.914,109.859,73.547,105.332,73.493L105.332,73.493z M93.443,131.817
			l-1.499,2.229c0.414,1.055,0.811,1.515,1.451,2.237l-0.634,1.341c-0.292,0.615-0.301,0.692-0.588,1.243
			c1.082,1.454,0.314,0.246,0.986,0.936c0.066,0.068,0.17,0.143,0.234,0.217c0.065,0.075,0.146,0.172,0.204,0.25l0.499,0.917
			c2.874,0.152,4.729-0.061,6.662-1.268c1.056-0.659,1.637-0.621,2.622-1.662l1.932-1.974c-0.638-2.692-1.079-0.062-0.604-2.964
			l-3.735-2.158c-0.7-0.453-0.175-0.463-1.428-0.689C96.166,129.865,94.819,131.906,93.443,131.817L93.443,131.817z M99.218,174.613
			l0.076,1.722c2.282,1.592,1.488,2.162-2.59,4.319c-4.488,2.373-3.026,4.46-2.202,6.498c0.563,1.391,0.014,1.325,0.401,2.173
			c0.137,0.301,2.877,3.16,3.368,3.827c2.658,0.24,3.623,0.043,4.868-1.791c9.079-1.089,5.855-5.46,5.38-6.632
			c-0.921-2.268,0.317-0.909-1.75-2.986c-2.855-2.87-1.905-2.179-1.975-6.749c-1.055-1.01-1.741-1.904-3.807-1.877
			c-0.257,0.41-0.261,0.486-0.625,0.771L99.218,174.613L99.218,174.613z"/>
	</g>
</g>
</svg>
