<?xml version="1.0" encoding="utf-8"?>
<!-- Generator: Adobe Illustrator 26.0.3, SVG Export Plug-In . SVG Version: 6.00 Build 0)  -->
<svg version="1.1" id="Layer_1" xmlns="http://www.w3.org/2000/svg" xmlns:xlink="http://www.w3.org/1999/xlink" x="0px" y="0px"
	 viewBox="0 0 200 200" enable-background="new 0 0 200 200" xml:space="preserve">
<g id="Layer_1_00000071535367866838226500000003485095414761140124_">
	<g id="Layer_1_00000107551159852787612550000017757744099325915571_">
		<g id="Layer_1_00000128480095285341338950000008464522443776971395_">
		</g>
	</g>
</g>
<g id="Isolation_Mode_00000063621668281934077600000006196874878142535819_">
	<g>
		<path fill="#1E8346" d="M49.596,124.749c0.403-0.289-0.134-0.415-0.191-0.718c0.003-0.155,0.135-0.286,0.139-0.424
			c-0.098-0.119-0.211-0.215-0.215-0.391c-0.391-0.536-0.48-1.278-0.89-1.848c-0.612-0.304-0.222-0.877-0.469-1.367
			c-0.42-0.83-1.303-1.592-1.371-2.517c0.053-0.002,0.106-0.002,0.159,0.004c-0.154-0.784-0.85-1.148-1.225-1.843
			c-0.23-0.444-0.06-0.91-0.38-1.335c-0.098-0.217-0.378-0.286-0.458-0.489c-0.029-0.095-0.013-0.187-0.157-0.17
			c-0.056,0.331-0.595-0.128-0.729-0.157c-0.176-0.038-0.335,0.082-0.479-0.039c-1.104-1.054-2.124-2.205-1.703-3.844
			c0.145-1.514-0.417-3.041,0.296-4.388c-0.579-0.803-2.074-2.021-1.075-2.986c0.205-0.4-0.056-1.386,0.689-1.235
			c-0.098-0.525-0.734-1.331-0.185-1.883c0.008-0.173,0.207-0.177,0.265-0.279c-0.021-0.238-0.002-0.494,0.225-0.612
			c0.536-0.735-0.302-1.285-0.267-2.09c0.241-0.519,0.448-0.856,0.103-1.407c0.062-0.683-0.176-1.333-0.221-2.04
			c-1.505-2.192-2.183-5.003-4.218-6.705c-0.945-0.307-1.652-0.904-2.443-1.533c-0.82-0.606-1.3-1.423-2.263-1.862
			c-0.964-1.21-0.814-3.337-2.751-3.43c-0.281,0.008-0.506,0.192-0.767-0.015c-0.266-0.112-0.477-0.264-0.503,0.143
			c0.456,1.415-2.001,1.74-1.348,3.108c0.079,0.47-0.642,0.295-0.605,0.738c-0.282,0.172-0.582,0.244-0.531,0.653
			c-0.497,0.158-0.366-0.795-0.92-0.431c-0.27,0.288-0.238,0.302-0.453-0.07c-0.287-0.085-0.065-0.688-0.249-0.807
			c-0.428,0.075-0.237-0.442-0.624-0.383c-0.016-0.071-0.025-0.158-0.068-0.216c-0.433,0.155-0.814,0.619-1.28,0.572
			c-0.46-0.081-0.632,0.111-0.794,0.502c-0.458,0.398-1.086-0.199-1.154,0.734c0.134,0.33,0.145,0.52-0.244,0.616
			c-0.031,0.23-0.167,0.318-0.392,0.357c-0.199,0.024-0.273,0.371-0.455,0.343c-0.048-0.459-0.369-0.726-0.598-1.098
			c-0.066-0.21-0.263-0.02-0.4-0.171c-0.113-0.285-0.495-0.331-0.358-0.687c0.236-0.246,0.095-0.649,0.358-0.896
			c0.136-0.158,0.365-0.059,0.524-0.068c0.169-0.383,0.488-0.419,0.269-0.834c0.101-0.275-0.192-0.452-0.044-0.738
			c0.054-0.151,0.184-0.244,0.068-0.373c-0.569-0.145-0.626-0.352-0.12-0.66c0.271-0.011,0.188-0.184,0.098-0.36
			c0.094-0.471-0.37-0.399-0.681-0.329c-0.333,0.167-0.542-0.192-0.812-0.16c-0.107,0.37-0.261,0.222-0.522,0.321
			c-0.061-0.084-0.164-0.148-0.208-0.24c-0.049,0.083-0.124,0.172-0.131,0.274c-0.4,0.011-0.224-0.638-0.249-0.823
			c-0.335-0.325-0.099-0.847-0.333-1.187c-0.171-0.236-0.404-0.04-0.578-0.208c-0.08-0.113-0.013-0.281-0.116-0.38
			c-0.084,0.082-0.142,0.234-0.188,0.34c-0.305-0.121-0.363,0.268-0.671,0.185c-0.01-0.037-0.031-0.079-0.023-0.12
			c-0.343,0.06-0.543-0.227-0.839-0.297c-0.335,0.045-0.563-0.126-0.812-0.285c-0.705,0.196-1.075-0.387-1.551-0.794
			c0.179-0.21,0.032-0.309,0.071-0.498c0.017-0.226-0.282-0.252-0.263-0.517c-0.139,0.051-0.191,0.051-0.319-0.044
			c-0.145,0.006-0.151,0.285-0.319,0.119c-0.683-0.885-0.419,0.927-0.463,1.282c-0.051-0.014-0.114-0.041-0.176-0.037
			c0.015,0.553-0.05,1.066-0.312,1.542c0.13,0.421,0.325,0.863,0.476,1.289c1.177,1.513,2.041,3.367,1.777,5.367
			c-0.359,0.829-0.133,1.505,0.159,2.284c0.001,0.453-0.277,0.888,0.018,1.291c0.41,0.307,0.231,0.808,0.44,1.191
			c0.213,0.722-0.819,1.046-0.464,1.7c0.115,0.434,0.543,0.626,0.509,1.1c0.081,0.355,0.444,0.019,0.592,0.305
			c-0.344,0.424,0.226,0.559,0.528,0.358c0.135,0.282-0.046,0.894,0.454,0.855c0.196-0.005,0.264-0.007,0.257,0.195
			c-0.465-0.071-0.375,0.312-0.315,0.625c0.005,0.436,0.368,0.229,0.633,0.202c-0.075,0.332-0.955,0.701-0.53,1.099
			c0.277,0.177,0.462,0,0.52-0.283c0.304,0.039-0.131,0.567-0.199,0.647c-0.215,0.637-0.359,1.214-0.606,1.855
			c-0.281,0.343,0.772,0.949,0.237,0.983c0.272,0.196,0.105,0.592,0.364,0.752c0.517-0.089,0.681-0.011,1.037,0.466
			c0.453,0.148,0.138,0.859,0.414,0.97c0.111-0.01,0.481-0.447,0.551-0.223c-0.076,0.499-0.731,0.427-1.078,0.343
			c-0.499,0.239-0.162,1.558,0.499,1.4c0.091-0.013,0.514-0.174,0.523,0.027c-0.622,0.62,0.191,0.722,0.597,0.937
			c0.28,0.198,0.225,0.762,0.608,0.785c0.296,0.011,0.543,0.246,0.735,0.452c0.349,0.323,0.337,0.795,0.451,1.211
			c0.182,0.591,0.812,0.816,1.019,1.362c0.549,0.249,1.183,0.8,1.137,1.518c0.017,0.265-0.112,0.657,0.114,0.851
			c0.185,0.032,0.341,0.165,0.419,0.342c0.338,0.766-0.667,1.088-0.734,1.755c0.221,0.15-0.043,0.534,0.254,0.601
			c0.349,0,0.566,0.319,0.942,0.257c0.017,0.053,0.02,0.166,0.09,0.158c0.374,1.225,1.594,1.301,2.617,1.733
			c0.354,0.255,1.069-0.127,1.023,0.573c-0.017,0.34,0.387,0.502,0.503,0.787c0.061,0.179,0.045,0.489,0.293,0.494
			c0.792-0.215,0.692,0.388,1.242,0.572c0.713-0.006,0.61,0.754,1.183,1.004c0.254,0.625,1.104,0.578,1.672,0.859
			c1.493,0.4,2.552,1.321,3.54,2.483c0.25,0.811,1.001,0.17,1.574,0.587c0.243,0.186,0.618,0.219,0.546,0.57
			c0.428,0.601,1.338,0.394,1.891,0.884c0.535,0.811,1.573,0.807,2.314,1.35c0.54,0.532,1,1.495,0.976,2.201
			c0.363,0.003,0.372,0.601,0.79,0.594c-0.003-0.748,0.532-0.727,1.104-0.792c0.439-0.528,0.495-1.191,1.386-0.991
			c0.407-0.512,0.861,0.102,1.34,0.155c0.662,0.099,2.018-0.505,1.809,0.642c0.377,0.259,1.789,0.393,1.731-0.297
			c-0.072-0.18,0.07-0.266,0.162-0.392C49.883,125.081,49.574,124.956,49.596,124.749z"/>
		<path fill="#1E8346" d="M7.553,77.822c0.148-0.386-0.043-0.541-0.346-0.807c-0.141-0.101-0.313-0.529-0.48-0.266
			c0.529,0.164-0.132,0.29-0.449,0.448c-0.374-0.057-0.631-0.174-1.013-0.079c-0.379-0.205-0.315,0.5-0.123,0.633
			c0.199,0.021,0.338,0.1,0.537,0.101c0.093,0.287,0.029,0.659,0.135,0.947c0.196-0.129,0.405-0.261,0.624-0.38
			c0.058-0.157,0.083-0.311,0.3-0.249c0.19-0.063,0.233,0.114,0.334,0.21C7.268,78.309,7.713,78.083,7.553,77.822z"/>
		<path fill="#1E8346" d="M6.804,78.663c0.252-0.552-0.435,0.247-0.501,0.384c-0.123,0.128,0.048,0.352,0.099,0.477
			c0.123-0.043,0.233,0.128,0.301-0.014C6.911,79.245,6.607,78.928,6.804,78.663z"/>
		<path fill="#1E8346" d="M5.886,79.102c-0.046,0.082-0.116,0.435,0.061,0.245C6.123,79.249,6.114,79.097,5.886,79.102z"/>
		<path fill="#1E8346" d="M7.605,78.182c-0.143,0.047-0.008,0.209,0.085,0.18C7.835,78.285,7.762,78.14,7.605,78.182z"/>
		<path fill="#1E8346" d="M6.974,78.692c-0.287,0.137-0.271,0.538,0.092,0.423C7.184,79.055,7.145,78.731,6.974,78.692z"/>
		<path fill="#1E8346" d="M20.423,110.107c0.249-0.051,0.542-0.419,0.115-0.415C20.275,109.788,19.917,110.461,20.423,110.107z"/>
		<path fill="#1E8346" d="M20.451,110.147c-0.136,0.016-0.428,0.451-0.399,0.547C20.233,110.786,20.873,109.965,20.451,110.147z"/>
		<path fill="#1E8346" d="M20.446,110.617c-0.15,0.1-0.214,0.669,0.046,0.522C20.611,111.036,20.69,110.611,20.446,110.617z"/>
		<path fill="#1E8346" d="M20.962,110.558c0.077-0.231,0.436-0.213,0.353-0.516c0.138-0.344-0.214-0.662-0.352-0.229
			C20.711,110.159,20.428,111.762,20.962,110.558z"/>
		<path fill="#1E8346" d="M48.363,112.902c0.421,0.336,1.108-0.249,0.608-0.589c0.049-0.279-0.087-1.072-0.485-1.01
			c-0.248,0.211,0.132,0.437,0.002,0.648C48.15,112.165,48.033,112.624,48.363,112.902z"/>
		<path fill="#1E8346" d="M52.142,115.502c-0.074-0.075-0.127-0.143-0.26-0.112c-0.256,0.211,0.307,0.586,0.321,0.164
			C52.222,115.506,52.178,115.514,52.142,115.502z"/>
		<path fill="#1E8346" d="M50.192,114.197c-0.04-0.044-0.085-0.098-0.157-0.059C49.852,114.426,50.522,114.539,50.192,114.197z"/>
		<path fill="#1E8346" d="M47.984,117.113c0.479,0.303,0.35-0.465-0.099-0.281C47.851,116.933,47.901,117.052,47.984,117.113z"/>
		<path fill="#1E8346" d="M47.627,117.777c0.084,0.037,0.022,0.146,0.077,0.195c0.04-0.011,0.123-0.068,0.097-0.123
			C47.743,117.626,47.319,117.554,47.627,117.777z"/>
		<path fill="#1E8346" d="M46.786,115.693c0.298,0.306,0.102-0.253-0.039-0.117C46.771,115.61,46.763,115.658,46.786,115.693z"/>
		<path fill="#1E8346" d="M46.082,113.352c0.018,0.041,0.096,0.037,0.135,0.035C46.229,113.181,45.962,113.04,46.082,113.352z"/>
		<path fill="#1E8346" d="M45.901,113.329c0.022,0.014,0.034-0.019,0.028-0.037c0.076-0.009,0.018-0.166-0.058-0.14
			C45.876,113.212,45.864,113.28,45.901,113.329z"/>
		<path fill="#1E8346" d="M37.334,83.674c0.245,0.122,0.603-0.412,0.156-0.417C37.4,82.669,37.105,83.45,37.334,83.674z"/>
		<path fill="#1E8346" d="M34.956,82.374c0.22,0.018,0.282-0.447,0.031-0.34C34.913,82.11,34.752,82.339,34.956,82.374z"/>
		<path fill="#1E8346" d="M34.679,82.278c0.145-0.001,0.075-0.321-0.017-0.314C34.671,82.065,34.626,82.19,34.679,82.278z"/>
		<path fill="#1E8346" d="M193.88,88.307c0.292-0.959-0.488-1.819-1.442-1.869c-0.222,1.764-3.914-0.937-4.519-1.571
			c-0.736-0.188-0.318,1.094-0.904,0.997c-0.054-0.091,0.196-0.427,0.227-0.504c0.049-0.256,0.026-0.585,0.363-0.602
			c-0.534-0.795-1.664-1.228-2.489-1.74c-0.034,0.119,0.032,0.273-0.046,0.378c-0.129-0.088-0.334-0.157-0.216-0.325
			c-0.447,0.02-0.788-0.228-1.172-0.381c-0.259-0.031-0.545,0.259-0.263,0.442c-0.379,0.093,0.072,0.461-0.137,0.624
			c-0.457-0.014-0.128,0.297-0.112,0.549c-0.12,0.024-0.172,0.113-0.133,0.23c-0.154-0.117-0.231-0.269-0.344-0.418
			c-0.223,0.23-0.383-0.202-0.632,0.021c-0.199,0.31-0.72,0.135-0.816,0.456c-0.184-0.195,0.004-0.499-0.032-0.729
			c-0.262,0.045-0.438-0.289-0.244-0.453c0.243-0.089,0.39,0.274,0.589,0.311c0.721-0.026,0.035-0.455-0.304-0.49
			c0.179-0.099,0.44-0.166,0.641-0.119c0.07,0.125,0.132,0.196,0.282,0.1c1.051-0.258,0.995-0.728,0.062-1.194
			c0.217-0.256,0.31-0.582-0.091-0.649c-0.048-0.199,0.083-0.504-0.256-0.368c-0.137-1.096-0.955,0.752-1.319,0.761
			c-0.295,0.233-1.189-0.175-1.067,0.346c-0.529,0.237-1.531,0.015-2.207,0.181c0.37-0.279,1.585-0.294,1.295-1.011
			c-0.131-0.17-0.438-0.118-0.439-0.371c0.933-0.464-0.87-1.276,0.019-1.744c0.279-0.384,0.964,0.043,0.937-0.556
			c0.211-0.406-0.135-0.8,0.105-1.195c0.065-0.442-0.629-0.872-0.993-1.064c-0.605,0.285-0.815-0.76-1.07-1.087
			c-0.142,0.255-0.407,0.498-0.438,0.795c-0.314-0.298-0.742-0.134-0.955-0.607c-0.27-0.081-0.705-0.073-0.888-0.292
			c-0.025-0.228-0.131-0.446-0.102-0.667c0.291-0.46-0.495-0.576-0.421-1.069c-0.145-0.179,0.098-0.345,0.195-0.464
			c0.17-0.214-0.03-0.447,0.04-0.703c-0.48,0.046-0.893-1.078-1.216-0.577c-0.215-0.061-0.578,0.038-0.595,0.311
			c0.282,0.212-0.071,0.284-0.265,0.155c-0.102,0.348,0.169,0.54,0.171,0.858c-0.084,0.236-0.325,0.233-0.34,0.509
			c-0.282,0.258-0.433,0.507-0.308,0.873c-0.296,0.347-0.763,0.462-1.067,0.803c-0.165,0.108-0.199,0.076-0.269,0.283
			c-0.131,0.314-0.909,0.596-0.936,0.062c0.022-0.896,1.393-1.45,0.873-2.397c0.256-0.295-0.231-0.217-0.363-0.135
			c-0.071-0.034-0.053-0.133-0.046-0.201c0.212-0.03,0.358-0.094,0.567,0.002c-0.079-0.583-0.432-1.017-0.887-1.369
			c-0.521-0.287-0.533,1.382-1.133,1.468c-0.078,0.188,0.242,0.325,0.051,0.447c-0.064,0.081-0.07,0.178-0.128,0.262
			c-0.266,0.155,0.251,0.654-0.072,0.941c-0.52,0.407-0.779,0.934-1.191,1.414c-0.147,0.247,0.019,0.55-0.278,0.721
			c-0.554,0.496-1.529,0.666-1.604,1.501c0.164,0.217-0.187,0.205-0.283,0.078c-0.693,0.437-1.022,1.243-1.642,1.785
			c-0.114,0.08-0.299,0.299-0.086,0.387c0.269-0.032,0.282,0.114,0.122,0.296c-0.112,0.223-0.052,0.484-0.28,0.647
			c-0.097,0.09-0.54,0.298-0.387,0.471c-0.329,0.355,0.173,0.794-0.28,1.059c-0.276,0.47-0.913,0.571-1.142,1.044
			c-0.104,0.811-0.177,1.607-1.075,1.852c-0.517-0.086-1.77,0.131-1.745-0.625c0.197-0.93-0.528,0.711-0.835,0.754
			c-0.495,0.308-0.804,0.825-1.337,1.098c-0.2,0.309-0.118,0.746-0.305,1.068c0.871-0.04,1.234,0.914,2.104,0.932
			c0.181,0.254-0.167,0.554-0.093,0.857c-0.134,0.918-1.489,1.002-1.649,1.873c-0.385,0.237-0.69,0.187-1.084,0.011
			c-0.273,0.011-0.419-0.087-0.389-0.346c-0.414-0.306-0.416,0.408-0.82,0.431c0.195,0.408,0.515,0.675,0.806,1.007
			c-0.022,0.323,0.111,0.59,0.195,0.871c-0.108,0.18,0.158,0.222,0.099,0.383c-0.034,0.11-0.031,0.157,0.048,0.232
			c0.476,0.407-0.211,1.112,0.131,1.786c-0.168,0.639,1.161,0.877,0.576,1.467c-0.291,0.313-0.434-0.126-0.55-0.332
			c-0.135-0.066-0.281,0.178-0.387,0.025c-0.008-0.418-0.538-0.061-0.765-0.307c-0.229-0.252-0.505,0.266-0.68-0.074
			c0.275-1.282-0.994-2.728-0.413-3.928c-0.1-0.133-0.181-0.295-0.304-0.402c-0.134-0.224,0.179-0.43,0.031-0.647
			c-0.371,0.142-0.281,0.611-0.526,0.842c-0.316,0.114-0.898-0.164-1.115,0.185c-0.059,0.453-0.383,0.489-0.696,0.666
			c0.462,0.675,0.097,3.127,0.944,2.891c0.122,0.606-0.404,1.047-0.529,1.57c0.121-0.001,0.202-0.03,0.292-0.122
			c-0.02,0.326-0.784,1.044-0.407,1.146c-0.083,0.434-1.932,2.119-1.833,1.127c-0.551-0.094-0.64-0.604-0.881-1.022
			c-0.627-0.065-0.596-0.837-0.761-1.339c-0.241,0.255-0.403,0.263-0.711,0.192c-0.088,0.061-0.176,0.121-0.29,0.082
			c-0.36,0.002-0.244-0.353-0.198-0.581c0.009-0.299-0.19-0.529-0.142-0.843c-0.143-0.724-0.62-1.035-1.233-1.26
			c-0.334-0.744-1.343-0.501-2.042-0.595c-0.06,0.357,0.173,0.742,0.237,1.084c-0.483,2.876-2.822,5.361-5.274,6.888
			c-0.345,0.471-0.432,1.117-0.872,1.567c-0.212,0.312-0.707,0.425-0.606,0.875c-0.588,0.558-1.11,1.172-1.602,1.792
			c-0.202,0.122-0.457,0.259-0.607,0.447c0.131,1.847-2.721,1.774-4.097,2.234c-3.085,0.91-6.653,1.794-9.757,2.027
			c-0.331,0.701-1.185,0.767-1.7,1.259c-0.452,0.675-0.773,1.606-0.087,2.207c-0.303-0.174-0.315,0.351-0.338,0.534
			c-0.25-0.848-0.342-1.763-0.166-2.679c0.008-0.475-0.719-1.416-0.824-0.445c-0.504,0.785,0.232,1.755,0.027,2.556
			c-0.278,0.485,0.294,0.554,0.374,0.921c-0.035,0.156,0.098,0.266,0.089,0.389c-0.103-0.079-0.241-0.26-0.389-0.153
			c0.086-0.088,0.124-0.309-0.073-0.228c-0.028-0.208-0.408-0.303-0.585-0.236c-0.009-0.066,0.013-0.127,0.014-0.194
			c-0.746,0.392-0.488,1.197-0.529,1.871c0.038-0.011,0.325-0.217,0.276-0.012c-0.182,0.102-0.168,0.407-0.401,0.494
			c-0.457,0.326,0.169,0.545,0.491,0.406c0.427-0.166,1.021,0.497,1.133-0.064c0.139,1.125-0.975-0.236-1.194,0.622
			c-0.342-0.192-0.167,0.494-0.395,0.652c-0.007-0.011-0.007-0.022-0.002-0.035c0.099,0.83-0.998,1.562-0.665,2.264
			c-0.466,0.413,0.157,0.792,0.458,1.005c0.02,0.183,0.016,0.388,0.175,0.527c-0.266,0.045-0.305-0.244-0.349-0.417
			c-0.919-0.45-1.689,0.552-1.304,1.42c0.395,0.381,0.669,0.915,1.277,1.074c0.161,0.165,0.346,0.316,0.528,0.082
			c0.307-0.167,0.758-0.115,1.022,0.09c0.055,0.424,0.232,0.606,0.663,0.446c-0.751,0.605-0.805-0.361-1.383-0.393
			c-0.544,0.483-1.206-0.024-1.762-0.291c-0.251-0.166-0.245-0.543-0.454-0.69c-0.622-0.259-1.35-0.5-1.972-0.801
			c-0.496,0.235-0.075,1.151-0.858,1.216c0.681-0.55,0.397-1.088-0.405-1.145c-0.331-0.362-0.752-0.258-1.153-0.168
			c-0.221-0.21-0.392-0.685-0.779-0.326c-0.028-0.208,0.494-0.214,0.215-0.335c-0.099-0.253,0.714-0.811,0.174-0.75
			c-0.167,0.16-0.463-0.148-0.56,0.15c-0.071,0.125-0.108,0.435-0.319,0.284c-0.177-0.127-0.468-0.079-0.501-0.348
			c-0.027-0.261-0.145-0.503-0.213-0.745c-0.119,0.171-0.316,0.497-0.193,0.695c0.041,0.253-0.21,0.42-0.086,0.689
			c-0.082-0.075-0.197-0.1-0.259-0.212c0.248-0.381-0.42-0.385-0.607-0.194c-0.053,0.149-0.148,0.115-0.14-0.034
			c-0.692,0.073-1.392-0.001-2.137,0.149c-0.006-0.034-0.017-0.067-0.033-0.098c-0.408-0.057-0.454,0.279-0.581-0.148
			c-0.271-0.029-0.398-0.15-0.374-0.416c-0.145-0.095-0.177-0.262-0.284-0.369c-1.694-0.242-2.039-1.356-1.895-2.797
			c-0.274,0.496-0.009,1.246-0.884,1.1c0.022,0.257,0.118,0.246-0.142,0.407c0.011,0.724,0.318,0.739,0.431,1.257
			c0.358-0.079,0.641-0.087,0.91,0.188c-0.44,1.065,0.055,2.066,1.043,2.632c0.177,0.168,0.056,0.536,0.427,0.337
			c-0.242,0.884,0.787,0.222,1.12,0.633c0.273,0.09,0.137,0.743,0.321,1.05c0.309-0.043,0.478,0.238,0.766,0.286
			c0.06,0.166,0.054,0.335-0.018,0.481c0.015,0.163,0.199,0.013,0.289,0.04c0.186,0.297,0.612,0.029,0.883,0.274
			c0.317,0.115,0.197,0.396,0.296,0.631c0.217,0.029,0.335,0.045,0.349,0.303c0.216,0.3,0.383,0.547,0.264,0.936
			c0.196-0.255,0.44,0.119,0.571-0.168c0.128,0.438,0.625-0.095,0.694,0.361c-0.055,0.244,0.126,0.184,0.27,0.23
			c0.114,0.715,1.365,1.114,1.876,0.654c-0.013-0.545,0.134-0.028,0.373,0.017c0.178,0.041,0.301-0.072,0.4-0.201
			c0.203-0.09,0.462,0.063,0.519-0.276c0.227,0.299,0.537,0.25,0.408-0.147c0.093-0.131,0.307-0.055,0.444-0.081
			c0.161-0.196,0.394-0.375,0.453-0.65c0.912-0.256,2.079-0.156,2.974-0.617c0.747-0.093,1.351,0.762,2.146,0.638
			c0.284-0.138,0.516-0.426,0.71,0.026c0.039,0.336,0.373,0.926,0.493,0.294c0.038-0.031,0.117,0.01,0.138,0.046
			c0.311-0.324,1.033-0.886,1.355-0.331c0.137,0.166,0.327-0.077,0.483,0.003c0.118,0.126,0.265,0.109,0.385,0.221
			c0.479,0.182,0.649-0.423,0.777-0.729c0.166-0.029,0.238-0.038,0.3-0.206c0.101-0.067,0.144-0.02,0.16-0.165
			c0.374-0.511,1.425-0.219,2.035-0.367c0.185-0.033,0.14-0.331,0.045-0.424c0.069-0.173,0.296-0.309,0.132-0.546
			c-0.047-0.16,0.075-0.089,0.137-0.191c0.072-0.118-0.064-0.318-0.02-0.448c0.246-0.158,0.476-0.325,0.464-0.685
			c-0.238-0.53-0.257-0.734,0.437-0.844c0.379-0.184,0.623-0.44,1.074-0.426c0.648-0.199,1.12-0.905,1.866-0.599
			c0.474-0.016,0.905,0.218,1.349,0.133c0.267-0.088,0.472,0.06,0.763,0.033c0.519,0.561,0.863-0.783,1.382-0.061
			c0.142-0.164,0.23-0.171,0.384-0.041c0.119-0.091,0.249-0.184,0.373-0.003c0.571,0.069,0.521,0.162,0.345,0.623
			c-0.181,0.128-0.176,0.386-0.499,0.446c-0.481,0.348,0.022,0.718,0.413,0.355c0.113-0.086,0.247,0.01,0.361-0.063
			c0.085-0.055,0.124-0.24,0.263-0.172c0.297,0.475,0.741,0.758,1.294,0.427c0.312,0.242,0.899,0.033,1.132,0.434
			c0.159,0.271,0.461,0.394,0.745,0.595c0.528-0.209,1.42-0.671,1.527,0.271c0.118,0.055,0.344,0.094,0.238,0.302
			c0.545,0.428,0.782-0.437,1.345-0.435c0.322-0.077,0.758-0.303,0.581-0.684c-0.023-0.295,0.531-0.28,0.651-0.51
			c0.469-0.136,0.757-0.529,1.324-0.454c0.412-0.174,0.908-0.188,1.307-0.028c0.125,0.123,0.292,0.352,0.47,0.4
			c0.275-0.242,0.361-0.459,0.815-0.353c0.12-0.441,0.87-0.178,0.882-0.648c0.633-0.18,1.766,1.439,1.947,0.379
			c0.46-0.325-0.024-0.981,0.578-1.037c0.555-0.415,0.823-1.16,0.516-1.76c0.078-0.187,0.142-0.338-0.063-0.456
			c0.303,0.032,0.244-0.311,0.248-0.492c0.256-0.029,0.449,0.064,0.716,0.067c0.185-0.695,1.146,0.003,0.518-0.989
			c1.025-1.67-1.069,0.133-0.333-1.391c-0.435-0.233-0.36-1.592,0.141-1.519c0.407-0.141,0.614,0.162,0.96-0.141
			c0.296-0.028,0.583-0.175,0.236-0.44c0.02-0.321,0.16-0.597,0.45-0.328c0.178-0.027,0.207-0.39,0.408-0.363
			c0.047-0.259,0.417,0.001,0.501-0.214c0.171-0.244,0.341-0.549,0.673-0.596c1.164,0.103,0.546-1.274-0.192-1.266
			c-0.014,0.079-0.057,0.154-0.098,0.228c-0.828,0.006,0.002-0.557-0.221-0.956c-0.059-0.106-0.171-0.038-0.127-0.229
			c0.106-0.248,0.459-0.296,0.389-0.613c0.176-0.12,0.152-0.332-0.125-0.32c-0.118-0.017-0.396-0.263-0.136-0.33
			c0.417-0.134,0.375-0.396,0.443-0.745c0.495-0.364,1.137-0.514,1.248-1.286c0.287,0.109,0.316,0.543,0.515,0.719
			c0.209,0.019,0.678,0.005,0.786-0.263c0.17-0.352,0.493-0.058,0.706-0.319c0.39-0.237,0.163-0.635,0.374-0.934
			c0.419-0.197,0.26-0.475-0.112-0.602c-0.078-0.267,0.181-0.388-0.085-0.649c0.092-0.335,0.65-2.658,1.013-1.467
			c0.583-0.317-0.242-0.895-0.045-1.417c-0.188-0.287-0.376-0.459-0.339-0.853c-0.308-0.787,0.751-1.654,0.185-2.265
			c-0.584-0.284-0.073-0.522,0.287-0.68c0.292-0.513,0.422-1.13,0.573-1.71c0.07-0.21-0.007-0.788,0.352-0.565
			c0.176-0.151,0.26-0.43,0.449-0.546c0.227-0.062,0.498,0.353,0.592-0.003c0-0.143-0.009-0.207,0.138-0.271
			c0.025-0.148,0.079-0.211,0.205-0.282c0.071-0.268-0.041-0.911,0.408-0.904c0.156,0.046,0.07,0.32,0.214,0.407
			c0.271,0.039,0.515-0.066,0.793,0.067c-0.005,0.026,0.011,0.071,0.004,0.1c0.239,0.115,0.462,0.8,0.787,0.381
			c0.178-0.473,0.657-0.278,0.75-0.854c0.4,0.058,0.692,0.151,1.098,0.227c0.3-0.09,0.635-0.423,0.857-0.063
			c0.084,0.132,0.253,0.081,0.338,0.283c0.298,0.047,0.063,0.534,0.403,0.384c0.279-0.269,0.409-0.411,0.771-0.21
			c0.016-0.315,0.042-0.567,0.281-0.813c0.162,0.153,0.177,0.339,0.418,0.376c0.117,0.128,0.048,0.34,0.282,0.303
			c0.237-0.227,0.508,0.012,0.799-0.083c0.159-0.063,0.168-0.348,0.28-0.372c0.261-0.054,0.225,0.733,0.586,0.3
			c0.286,0.318,0.521,0.131,0.798-0.071c0.392-0.297,0.645,0.391,0.999,0.134c0.136,0.494,0.287,0.231,0.534,0.009
			c0.307-0.038,0.662,0.156,0.947-0.071c0.374,0.48,0.581-0.336,0.998-0.247c0.236,0.464,0.48,0.787,1.051,0.816
			c0.461,0.294,0.658,0.825,1.145,1.09c0.34,0.26,0.779-0.162,1.057,0.123c0.038,0.075,0.155,0.111,0.227,0.063
			c0.108-0.187-0.21-0.441,0.009-0.656c0.122-0.113,0.492-0.414,0.187-0.503c-0.243-0.261-0.059-0.664-0.358-0.919
			c-0.122-0.37,0.377,0.011,0.466-0.228c0.467-0.195,0.977,0.869,1.615,0.736c0.444,0.645,0.971,0.816,1.705,0.953
			c0.622-0.038,1.06-0.735,1.717-0.726c0.518,0.171,1.04-0.408,1.615-0.193c0.284,0.04,0.085-0.074,0.181-0.219
			c0.086-0.129,0.253,0.046,0.344,0.086c0.486,0.03,0.919-0.337,1.454-0.224c0.014-0.058,0.028-0.118,0.039-0.177
			c0.309-0.019,0.403-0.265,0.32-0.505c0.626,0.544,0.564-0.605-0.039-0.691c0.028-0.195,0.046-0.369-0.079-0.54
			c-0.296,0.162-0.489,0.441-0.715,0.675c-0.15-0.079-0.511-0.2-0.472-0.407c0.13-0.094,0.517,0.201,0.479-0.097
			c-0.182-0.163-0.778-0.994-0.869-0.377c-0.226-0.329-0.474-0.537-0.889-0.548c-0.137-0.102-0.159-0.271-0.398-0.291
			c-0.499-0.399-0.657-1.123-0.997-1.649c-0.189-0.068-0.457-0.16-0.325-0.426c0.077-0.116,0.147,0.011,0.245-0.015
			c0.119-0.032,0.079-0.185,0.117-0.28c0.051-0.11,0.196-0.074,0.185-0.222c0.149-0.299,0.628-0.509,0.906-0.333
			c0.338,0.135,0.658,0.18,0.947-0.132c-0.256,0.041-0.555-0.327-0.488,0.104c-0.381,0.034-0.13-0.519,0.138-0.507
			c1.025-0.324,0.842,1.287,1.738,0.86c0.405-0.54,1.471,0.096,2.104-0.236C190.01,90.444,194.449,90.343,193.88,88.307z"/>
		<path fill="#1E8346" d="M154.944,88.259c0.165-0.01,0.332,0.014,0.494,0.019c-0.302-0.773,0.055-1.621-0.766-0.475
			c0.026,0.206-0.315,0.344-0.375,0.514C154.509,88.331,154.732,88.271,154.944,88.259z"/>
		<path fill="#1E8346" d="M171.042,69.641c0.102-0.435,0.327-0.383,0.909-0.433c-0.127-0.213-0.139-0.716,0.202-0.447
			c0.073,0.103,0.086,0.025,0.191,0.028c0.009-0.177-0.015-0.391-0.053-0.564c-0.142-0.391-0.567,0.849-0.99,0.423
			c-0.375,0.102-0.452,0.683-0.511,1.025C170.854,69.677,170.985,69.683,171.042,69.641z"/>
		<path fill="#1E8346" d="M172.824,68.958c0.097,0.144-0.129,0.11-0.106,0.251c-0.035,0.168-0.097,0.588,0.101,0.651
			c-0.004,0.202-0.189,0.547,0.104,0.661c0.191-0.025,0.082-0.337,0.3-0.39c0.38-0.397,0.941-0.235,1.273-0.595
			c0.023,0.09-0.038,0.182-0.016,0.273c0.164-0.065,0.252-0.25,0.403-0.302c0.213,0.057,0.384,0.036,0.372-0.24
			c-0.703,0.36-0.539-0.605-0.211-0.885c-0.018-0.239-0.187-0.248-0.366-0.178c-0.171-0.148-0.427-0.182-0.632-0.069
			c-0.029-0.03-0.051-0.065-0.09-0.079C173.835,68.365,172.23,68.611,172.824,68.958z"/>
		<path fill="#1E8346" d="M173.391,70.185c-0.108,0.234,0.314,0.19,0.21-0.057c-0.007-0.001-0.018-0.003-0.051-0.011
			C173.504,70.15,173.436,70.148,173.391,70.185z"/>
		<path fill="#1E8346" d="M173.99,69.862c-0.05,0.002-0.09,0.025-0.145,0.032C173.478,70.451,174.421,69.849,173.99,69.862z"/>
		<path fill="#1E8346" d="M175.039,70.886c-0.082-0.01-0.161-0.02-0.267-0.02c-0.121,0.081-0.054,0.168,0.045,0.215
			c0.018,0.112,0.044,0.234,0.163,0.296C175.313,71.435,175.807,70.891,175.039,70.886z"/>
		<path fill="#1E8346" d="M175.357,74.913c0.246,0.138,0.597,0.319,0.87,0.319c0.172-0.253,0.497-0.138,0.693-0.325
			c0.313-0.278-0.025-1.063-0.419-0.927c-0.344-0.055-0.859,0.285-0.259,0.45C176.547,75.012,175.304,74.355,175.357,74.913z"/>
		<path fill="#1E8346" d="M174.731,73.254c-0.155,0.019-0.142,0.124,0.004,0.113c0.041-0.062,0.263-0.134,0.164-0.217
			C174.848,73.191,174.789,73.221,174.731,73.254z"/>
		<path fill="#1E8346" d="M185.62,93.067c0.449-0.026-0.354-0.411-0.402-0.208C185.308,92.98,185.461,93.084,185.62,93.067z"/>
		<path fill="#1E8346" d="M185.008,94.196c-0.243,0.164,0.473,0.181,0.612,0.218c0.245,0.013,0.369,0.306,0.577,0.296
			c0.281-0.141,0.627,0.314,0.805-0.045c0.095,0.03,0.078,0.171,0.122,0.248c0.106-0.044,0.075-0.188,0.123-0.263
			c0.361-0.08,0.005-0.336-0.209-0.328c-0.104-0.002-0.203,0.031-0.279-0.057c-0.089,0.021-0.147,0.2-0.226,0.017
			c-0.264-0.367-0.484-0.579-0.682-0.09C185.569,94.293,185.254,94.082,185.008,94.196z"/>
		<path fill="#1E8346" d="M186.331,93.673c-0.027-0.124-0.187-0.052-0.239,0.01C186.049,93.814,186.352,93.808,186.331,93.673z"/>
		<path fill="#1E8346" d="M188.874,96.153c-0.469-0.088-0.552-0.452-1.01-0.277c-0.003,0.259,0.386,0.416,0.174,0.672
			C188.233,96.284,189.079,96.521,188.874,96.153z"/>
		<path fill="#1E8346" d="M189.275,94.617c-0.077-0.08-0.193-0.177-0.309-0.115c-0.104,0.028-0.319,0.126-0.328,0.241
			c0.166,0.057,0.606-0.196,0.633,0.106C189.073,95.184,189.736,94.769,189.275,94.617z"/>
		<path fill="#1E8346" d="M180.655,98.924c-0.816-0.117-1.08-1.154-1.985-0.845c-1.528,1.075,1.584,0.934,2.125,0.916
			C180.803,98.944,180.682,98.933,180.655,98.924z"/>
	</g>
</g>
</svg>
