<?xml version="1.0" encoding="utf-8"?>
<!-- Generator: Adobe Illustrator 26.0.3, SVG Export Plug-In . SVG Version: 6.00 Build 0)  -->
<svg version="1.1" id="Isolation_Mode" xmlns="http://www.w3.org/2000/svg" xmlns:xlink="http://www.w3.org/1999/xlink" x="0px"
	 y="0px" viewBox="0 0 200 200" enable-background="new 0 0 200 200" xml:space="preserve">
<path fill="#1E8346" d="M101.984,4.742c0.493-0.29,0.921-1.372,0.302-1.731c-0.407-0.001-0.249,0.732-0.535,0.962
	C101.306,4.38,101.274,5.06,101.984,4.742z"/>
<path fill="#1E8346" d="M103.415,9.013c0.464-0.362,0.202-1.226,1.023-1.43c-0.412-0.544-0.727-0.237-0.845,0.295
	c-0.343,0.302-0.648,0.623-0.562,1.125C103.136,9.125,103.27,9.089,103.415,9.013z"/>
<path fill="#1E8346" d="M102.264,9.059c-0.268,0.315-0.164,0.78-0.098,1.138C102.725,10.187,102.866,9.243,102.264,9.059z"/>
<path fill="#1E8346" d="M102.658,19.126c0.727,0.646,1.478,1.185,1.15-0.319c-0.081-0.166-0.125-0.109-0.255-0.051
	C103.321,18.938,102.616,18.712,102.658,19.126z"/>
<path fill="#1E8346" d="M96.818,21.695c0.758,1.412,2.17,1.189,1.631-0.57c-0.199-0.272-0.607-0.091-0.891-0.116
	c-0.358-0.076-0.814-0.209-0.99,0.248C96.655,21.406,96.767,21.526,96.818,21.695z"/>
<path fill="#1E8346" d="M95.077,25.43c0.672,0.182,0.084-1.457-0.236-1.719C94.426,24.269,94.339,25.058,95.077,25.43z"/>
<path fill="#1E8346" d="M96.152,27.788c0.6,0.104,2.42-0.233,1.222-0.905c-0.611-0.169-1.143,0.501-1.73,0.246
	C95.079,27.282,95.799,27.926,96.152,27.788z"/>
<path fill="#1E8346" d="M102.022,27.141c-0.356,0.183-0.044,0.727,0.219,0.85c0.713-0.207,0.977-1.2,1.607-1.621
	c0.199-1.412-2.219-0.468-1.458,0.522C102.326,27.071,102.126,27.095,102.022,27.141z"/>
<path fill="#1E8346" d="M105.288,31.755c-0.005,0.037-0.022,0.109,0.012,0.136c0.611-0.273,0.739-1.173,0-0.799
	C105.458,31.264,105.301,31.553,105.288,31.755z"/>
<path fill="#1E8346" d="M101.539,87.329c0.324-0.388,0.202,0.381,0.45,0.412c0.441-0.035,0.693,0.041,0.988,0.371
	c0.316,0.027,0.54,0.194,0.637,0.502c0.348,0.548,1.159,0.424,1.669,0.693c0.484,0.402,0.646,1.095,1.047,1.575
	c0.015,0.373,0.447,0.239,0.756,0.286c0.233,0.282,0.645,0.274,0.775,0.704c0.284,0.304,1.024,0.079,0.982,0.632
	c0.584,0.799,1.752,1.849,1.04,2.952c0.339,0.196,0.476,0.474,0.642,0.804c0.431,0.274,1.152-0.177,1.501-0.484
	c-0.23-1.05-0.155-2.531-1.03-3.415c0.364-0.192,0.181-0.453-0.134-0.63c-0.293-0.219-1.908-1.944-0.839-2.028
	c0.466-1.075-0.794-1.647-1.017-2.541c0.527,0.308,1.03,0.258,1.504-0.022c0.15,0.074,0.087,0.319,0.166,0.437
	c0.159,0.238,0.588,0.175,0.723,0.426c0.006,0.724,0.642,0.68,1.192,0.765c0.528,0.231,0.984,0.753,1.207,1.272
	c-0.498,2.144,2.936,2.277,4.253,3.38c-0.383,1.378,1.464,1.741,1.248,2.893c-1.063,3.366,0.832,1.165,1.868,2.034
	c0.469,0.739,1.321,1.028,2.004,1.6c0.166-0.067,0.26-0.232,0.364-0.369c1.636,1.997,2.138-1.517,2.898-0.702
	c0.37,0.078,0.784,0.05,1.164,0.036c0.115,0.244-0.071,0.691-0.272,0.869c-0.365,0.201-0.667-0.082-0.835,0.389
	c-1.814-0.559-1.03,2.301,0.004,2.751c0.517,1.115,2.279,1.71,1.947-0.074c0.655-0.616,0.466-1.877,0.517-2.716
	c-0.165-0.263-0.391-0.62-0.178-0.92c0.46-0.127,0.021-0.56,0.358-0.722c0.717-1.191-0.518-1.095-0.812-0.041
	c-0.808-0.313-1.121-1.384-2.053-1.347c-0.659-1.023-0.926,0.986-1.596,0.697c-0.497-0.263,0.125-0.713-0.187-1.006
	c-0.864-0.956,0.54-1.247,1.279-1.087c0.668-0.041-0.195-0.756,0.477-0.995c0.111-0.102,0.022-0.428-0.144-0.29
	c-0.521-0.26-1.07-0.224-0.581,0.483c0.076,0.428-0.329,0.655-0.481,0.166c-0.529-0.561-1.035-1.076-1.247-1.842
	c-0.141-0.494-0.678-0.433-0.98-0.734c-0.374-0.648-1.431-1.101-0.774-1.891c0.275-1.028,1.404-0.87,2.2-0.579
	c0.927,0.423,1.734-0.38,2.711-0.154c-0.003-1.58-1.822-0.937-2.528-1.952c-0.387-0.571-0.875-0.025-1.403-0.148
	c-0.71-0.476-1.536-0.418-2.166-0.932c-0.091,0.159-0.07,0.342-0.136,0.511c-0.5-0.151-0.297-0.871-0.69-1.212
	c-0.061,0.037-0.106,0.009-0.185,0.029c0.218-0.529-0.451-0.886-0.76-0.386c-0.451-0.344-0.441,0.455-0.584,0.706
	c-0.09,0.144-0.27,0.21-0.151,0.44c1.919,1.238,0.528,3.408-1.562,2.584c-1.593-1.207,0.82-1.786-0.467-3.15
	c-0.324-0.374-0.193-0.381-0.196-0.782c-0.002-0.288-0.095-0.265-0.317-0.4c-0.901-0.55-1.156-1.966-2.313-1.999
	c-0.361-0.102-0.198-0.362-0.425-0.531c-0.42-0.113-1.795-0.725-1.319,0.276c-1.662-0.633-2.409-0.883-3.566,0.791
	c0.076,0.556-0.156,1.957-0.887,1.089c-0.027,0.042-0.091,0.091-0.111,0.129c-0.207-0.231,0.186-1.192-0.231-1.234
	c-0.36,0.221-0.344,0.758-0.933,0.998c0.782,0.868,2.847,2.621,0.132,1.968c2.388,2.77-6.434-1.151-5.049-3.101
	c-0.247-0.259-0.332-0.564-0.334-0.934c-0.715-0.678-1.805-3.68-0.915-4.249c0.281-0.312,0.64-0.118,0.966-0.255
	c-0.225-0.861-1.764-1.19-1.456-2.072c-0.244-0.195-0.313-0.45-0.257-0.779c-0.502-1.005-1.053-2.011-1.219-3.15
	c-0.662-0.199-1.109-0.988-1.167-1.657c-0.005-0.802,0.843-0.344,1.095-1.078c0.339-0.906,0.575-1.855,1.413-2.494
	c0.101-0.096,0.429-0.421,0.209-0.529c-0.499-0.246,0.996-0.871,0.105-1.081c-0.905,0.233-0.85-0.844-0.822-1.479
	c0.504-0.865,1.658-1.27,2.27-2.087c0.696,0.137,1.052-0.546,1.542-0.859c0.524-0.037,1.032,0.085,1.443-0.334
	c0.243-0.273,0.831-0.281,0.764-0.718c0.02-0.343,0.418-0.526,0.723-0.466c-0.272,0.447-0.47,0.886-0.831,1.286
	c-0.193,0.4-0.753,0.902-0.677,1.298c0.782-0.669,2.827-2.35,2.377-3.212c-0.336-0.449,0.614-0.865,0.277-1.226
	c-0.386-0.135-0.002-0.502,0.072-0.736c1.001-1.664,2.752-3.852,2.735-6.024c0.171-0.704,0.961-1.41,0.582-2.195
	c-2.2,0.992,0.126-3.406-2.338-2.448c-0.242,0.016-0.299-0.302-0.527-0.191c-1.741-2.913-0.998-5.997-1.052-9.129
	c1.57-1.493,2.598-2.373,0.848-4.366c0.151-0.726-0.731-1.029-1.13-0.528c-0.377,0.51-0.187,1.352-0.808,1.581
	c-3.16,4.538-10.247-5.788-13.167-2.37c-0.73,0.34-1.102-1.13-1.744-0.851c-0.182,0.429-0.644,0.38-0.203,0.883
	c-0.535,0.958-2.613-0.446-2.613,1.11c0.72,1.075,0.259,1.938-0.299,2.943c-0.394,0.455-0.2,1.051-0.515,1.541
	c-0.16,0.207-0.361,0.204-0.333,0.516c0.053,0.441,0.263,0.782-0.011,1.194c-0.12,0.226-0.518,0.329-0.433,0.655
	c0.215,0.293,0.278,0.781,0.152,1.125c-0.608,0.228-0.147,0.76-0.277,1.208c-2.32,1.367,0.381,2.571,0.306,4.112
	c-0.716,1.643,0.056,3.513-0.289,5.315c0.022,0.932-1.498,1.119-0.983,1.936c0.316,0.969-0.824,1.817-0.342,2.727
	c-0.122,0.551-0.21,0.912,0.162,1.4c-0.096,0.806,0.06,1.644,0.509,2.385c1.788,1.248-1.283,3.276-2.57,2.356
	c-0.326-0.266-0.333-0.709-0.419-1.086c-0.353-0.627-1.309-0.556-1.854-1.06c-0.579-0.271-0.112-0.762,0.301-0.188
	c0.599,0.587,0.41-0.615,0.442-0.938c-0.194-0.489-0.897,0.729-0.907-0.116c-0.015-0.878-1.009-0.18-1.426,0.009
	c-0.304,0.496-1.259,6.422,0.121,4.618c0.366-0.172,0.952,0.745,1.087,1.061c0.098,0.439-0.422,0.565-0.21,1.003
	c0.039,0.308-0.141,0.398-0.153,0.625c-0.015,0.289,0.428,0.33,0.502,0.568c0.156,0.455-0.208,0.996,0.084,1.42
	c0.328,0.521,0.401,1.252-0.369,1.19c0.315,0.405-0.065,0.339-0.106,0.675c0.474,0.716,1.296,1.383,1.477,2.311
	c-0.053,0.054-0.111,0.101-0.176,0.142c0.989,1.456,0.364,3.577,1.03,5.198c0.099-0.049,0.212-0.041,0.314-0.007
	c0.466,0.855,1.166-0.149,1.053-0.76c-0.122-0.192-0.029-0.425,0.227-0.354c1.375,1.337-0.025,0.849,0.306,2.162
	c1.432,1.644,1.496,0.135,1.482,2.755c0.526,0.027,0.931,0.33,1.258,0.739c-0.016-0.529,0.835-0.055,1.104-0.375
	c1.161-1.523-1.342-3.543,0.061-4.924c0.089,0.428,0.358,0.649,0.628,0.996c0.168-0.07,0.352-0.162,0.491-0.281
	c1.539,0.368,4.616,1.911,3.024,3.778c-1.218,0.181-1.798,1.453-2.628,2.174c-0.737-0.071-1.084,0.44-1.505,0.889
	c0.049,0.176,0.319,0.455-0.037,0.485c0.364,0.668,0.329,1.428,0.406,2.175c-0.645,0.483,0.555,4.269,0.509,1.781
	c0.174,0.007,0.348-0.022,0.523-0.017c-0.283-1.514,1.885-1.004,2.309-0.217c-0.231,0.483,0.108,0.836-0.055,1.269
	c-0.188,0.278-0.415,0.539-0.105,0.852c0.541-0.115,0.602-0.599,0.88-1.005c0.265,0.034,0.526,0.077,0.786,0.136
	c0.216,0.517,0.087,0.983-0.02,1.502c0.834,0.372,2.052-0.541,2.538,0.448c0.56,0.505,0.832-0.442,1.23-0.63
	c0.366-0.173,0.898,0.122,1.077-0.409c-0.68-1.904,1.278-2.326,2.694-2.834c0.74-0.861,0.824-0.433,0.714,0.43
	C101.364,87.87,101.568,87.648,101.539,87.329z"/>
<path fill="#1E8346" d="M101.98,92.754c-0.414,0.34-0.006,1.073-0.111,1.569c0.473,0.872,1.469,0.906,1.964,1.675
	c0.579,0.29,1.123-0.453,0.734-0.931c1.076-0.346,1.422-2.502-0.016-2.404c-0.436-1.369-0.403-0.132-1.317-0.493
	C101.787,91.134,102.683,91.934,101.98,92.754z"/>
<path fill="#1E8346" d="M89.582,99.046c0.172,0.906-0.047,1.841,0.339,2.687c0.762-0.017,1.296,0.887,1.498,1.58
	c-0.017,0.338-0.288,0.622,0.093,0.871c0.451,0.781,0.87,1.923,1.844,2.176c0.161-0.017,0.313,0.071,0.286,0.264
	c-0.256,0.24,0.026,0.503,0.064,0.794c0.286,0.139,0.697,0.064,1.02,0.089c0.546,0.57,0.588,0.159,0.769-0.372
	c0.208-0.208,0.588-0.117,0.744-0.393c0.107-0.094,0.188-0.356,0.286-0.109c0.41,1.285,0.326-0.156,0.372-0.622
	c0.154,0.073,0.424,0.155,0.595,0.123c0.041-0.368-0.338-0.517-0.3-0.905c0.146-0.362,0.3-0.585,0.131-0.973
	c1.495-0.359,1.999-1.976,0.671-2.951c-0.092-0.716,0.234-1.912,0.029-2.681c0.028-0.86,1.621-2.075-0.231-1.88
	c-0.518-0.114-0.059-0.65-0.192-0.916c-1.16-0.622-1.986-1.715-3.047-2.45c-0.378,0.411-1.052,0.038-1.539,0.196
	c-0.515-0.218-0.939-0.804-1.122-1.301c-2.513,1.495-7.178-1.582-7.607,1.031c0.221,0.165,0.353,0.381,0.538,0.577
	c0.396,0.118,1.265-1.101,1.26-0.007c0.014,1.077,0.642,2.043,1.787,1.976c0.729,0.662,1.132,1.588,1.615,2.421
	C89.459,98.481,89.544,98.835,89.582,99.046z"/>
<path fill="#1E8346" d="M128.501,91.445c0.498,0.118,0.636,0.8,1.229,0.748c-0.359-0.649,1.158-1.358,1.322-0.509
	c0.853-0.275-0.428-0.863,1.007-1.287c-0.061-0.304-0.374-0.653-0.196-1.018c0.259-0.237,0.382-0.42,0.186-0.75
	c0.064-0.625-0.114-0.906-0.642-1.209c-0.132-0.224,0.062-0.703-0.324-0.747c-0.281,0.018,0.033,0.339-0.031,0.468
	c-0.984,0.285-0.672-2.85-1.807-1.542c-0.013,0.258-0.323,0.248-0.481,0.131c-0.088,1.286,0.465,2.669-0.264,3.865
	C127.686,90.307,127.066,90.947,128.501,91.445z"/>
<path fill="#1E8346" d="M103.267,128.094c-0.357,0.391-0.33,0.887,0.18,1.12c0.941-0.107,1.007-1.673,1.845-2.023
	c1.605-0.773,3.362-1.137,5.172-1.341c0.581-0.258,0.58-1.148,1.395-1.03c0.802,0.023,1.192-0.895,1.238-1.58
	c-0.569-0.88,0.411-1.244,1.159-1.144c0.374,0,0.107-0.247,0.332-0.429c0.122-0.098,0.401-0.049,0.547-0.059
	c1.026-0.19-0.17-1.93,1.486-1.227c1.09-0.246-0.725-1.317,0.751-2.618c-0.104-0.489-0.13-0.798,0.209-1.201
	c-0.82-0.169,0.161-0.778-0.127-1.152c-0.4-0.443-0.838,0.625-1.27,0.763c-0.484,0.409-1.072,0.073-1.58,0.361
	c0.317-0.951-0.215-0.603-0.686-1.294c-0.318-0.415-1.182-0.237-1.633-0.182c-0.207,0.167-0.18,0.524-0.474,0.627
	c-0.375-0.123-0.735,0.649-1.001,0.068c-0.225-0.502-1.043-0.159-1.348-0.599c0.355-0.594-0.706-0.845-0.88-1.351
	c-0.103-0.146-0.147-0.519-0.379-0.353c-1.14,0.213-1.662-1.414-2.879-1.115c-0.898,0.189-1.45-1.914-2.181-1.009
	c-0.075,0.239-0.339,0.126-0.484,0.222c-0.096,0.581-0.03,1.059-0.484,1.563c0.137,0.285,0.63-0.058,0.907,0.013
	c0.609,0.162,1.133,0.407,1.789,0.335c0.296,1.763-0.105,3.58-0.651,5.162c0.35,0.633,0.099,1.207,0.114,1.915
	c0.203,0.871,0.415,1.824-0.483,2.39c-0.293,0.648-0.72,1.382-0.697,2.106C103.802,125.94,103.903,127.098,103.267,128.094z"/>
<path fill="#1E8346" d="M80.037,57.753c0.648,0.477,0.108-0.997-0.35-0.509C79.551,57.452,79.883,57.654,80.037,57.753z"/>
<path fill="#1E8346" d="M102.823,78.172c0.355,1.817,2.148-0.405,1.371-1.412c-0.128-0.259-0.504-0.588-0.46-0.911
	c0.084-0.263,0.562-0.14,0.447-0.538c-0.47-0.916,0.281-0.323,0.344-0.842c-0.044-0.197-0.241-0.125-0.353-0.216
	c-0.48-0.994-1.257-0.154-2.082-0.241c-0.22,0.319-0.914,1.47-0.096,1.315C102.473,76.107,103.565,77.258,102.823,78.172z"/>
<path fill="#1E8346" d="M108.683,77.745c-0.067-0.031-0.119-0.08-0.214-0.148c-0.177,0.165-0.474,0.207-0.664,0.374
	C107.373,78.814,109.829,78.064,108.683,77.745z"/>
<path fill="#1E8346" d="M106.559,77.484c0.686,0.128,0.506-0.736-0.132-0.681c0.128-0.66-0.879-0.494-1.292-0.339
	C105.211,77.133,106.191,77.007,106.559,77.484z"/>
<path fill="#1E8346" d="M104.166,75.909c0.174,0.22,0.338,0.511,0.703,0.467C104.899,76.01,104.493,75.727,104.166,75.909z"/>
<path fill="#1E8346" d="M101.729,82.821c-0.217,0.141-0.127,0.29-0.014,0.466C101.965,83.809,102.574,82.435,101.729,82.821z"/>
<path fill="#1E8346" d="M103.094,84.325c0.618,0.898,1.825,1.675,2.814,1.992c0.707-0.302-2.318-2.118-2.691-2.729
	C102.954,83.812,102.884,84.037,103.094,84.325z"/>
<path fill="#1E8346" d="M114.653,81.128c0.409,0.134,0.629-0.464,0.394-0.721C114.933,80.552,114.189,81.126,114.653,81.128z"/>
<path fill="#1E8346" d="M114.982,81.277c-0.046-0.002-0.129-0.014-0.167,0.014C114.903,81.789,115.611,81.546,114.982,81.277z"/>
<path fill="#1E8346" d="M125.388,87.642c0.112-0.222,0.071-1.095-0.312-0.872C125.105,87.069,124.929,87.698,125.388,87.642z"/>
<path fill="#1E8346" d="M122.702,87.295c0.055,0.53,0.653,0.052,0.798-0.154c-0.154-0.096-0.429-0.171-0.596-0.266
	c-0.068,0.099-0.171,0.046-0.25,0.074C122.668,87.063,122.67,87.182,122.702,87.295z"/>
<path fill="#1E8346" d="M83.71,89.146c-0.332-0.407-1.749-1.615-2.116-0.903c0.092,0.632,0.476,0.947,1.046,1.165
	c0.393,0.238,1.385,1.514,1.457,0.49c-0.223,0.007-0.524-0.165-0.176-0.271C84.007,89.448,83.848,89.248,83.71,89.146z"/>
<path fill="#1E8346" d="M84.175,88.436c-0.482-0.065-0.371,0.77,0.061,0.706C84.691,88.987,84.747,88.507,84.175,88.436z"/>
<path fill="#1E8346" d="M84.583,90.51c0.195,0.354,1.595,0.673,0.83,0.091C85.15,90.85,84.419,90.011,84.583,90.51z"/>
<path fill="#1E8346" d="M90.606,90.635c0.189,0.381,1.367,0.333,0.771-0.102c-0.096-0.051-0.677,0.048-0.673-0.11
	C90.489,90.407,90.377,90.568,90.606,90.635z"/>
<path fill="#1E8346" d="M93.417,91.785c-0.001-0.122-0.091-0.149-0.212-0.146C92.886,91.662,93.396,92.463,93.417,91.785z"/>
<path fill="#1E8346" d="M124.997,93.867c-0.563-0.448-0.105,0.68,0.19,0.332C125.337,94.047,125.192,93.866,124.997,93.867z"/>
<path fill="#1E8346" d="M126.511,94.969c-0.065,0.004-0.19,0.003-0.237,0.083c0.197,0.429,0.505,0.614,0.969,0.604
	c0.411,0.335,0.641-0.023,0.86-0.358c0.245-0.192-0.234-0.162-0.334-0.242C127.364,95.022,126.952,95.064,126.511,94.969z"/>
<path fill="#1E8346" d="M129.522,95.883c-0.492-0.316-0.821-0.248-1.329-0.011C128.406,96.081,130.504,96.836,129.522,95.883z"/>
<path fill="#1E8346" d="M100.547,99.711c0.266,0.086,0.294-0.661,0.023-0.653c-0.013,0.168-0.371,0.137-0.314,0.302
	C100.357,99.477,100.406,99.632,100.547,99.711z"/>
<path fill="#1E8346" d="M104.895,99.441c0.454-0.42-0.223-0.894-0.383-0.345C104.644,99.197,104.676,99.783,104.895,99.441z"/>
<path fill="#1E8346" d="M104.374,100.694c-0.315,0.258,0.36,0.477,0.451,0.166C105.048,100.42,104.56,100.472,104.374,100.694z"/>
<path fill="#1E8346" d="M119.499,101.17c-0.758-0.601-0.457-1.886-1.732-1.864c-0.9-0.615-1.133-2.756-2.432-2.557
	c-0.069,0.326-0.735,0.086-0.519,0.469c0.417,0.185-0.06,0.956,0.44,0.911c0.14,0.181,0.313,0.322,0.584,0.285
	c0.879-0.108,0.666,1.057,1.399,1.296c0.408,0.048,0.495,0.446,0.805,0.623c0.97,0.035,1.049,1.188,1.707,1.715
	C120.068,101.742,119.717,101.411,119.499,101.17z"/>
<path fill="#1E8346" d="M79.164,107.017c-0.026,0.166-0.03,0.277-0.172,0.363c-0.083,0.113,0.097,0.302,0.105,0.453
	c0.006,0.124-0.065,0.337,0.041,0.422c0.148-0.194,0.338-0.175,0.321,0.086c0.308,0.32,0.441,0.539,0.458,0.985
	c0.242,0.271,0.48,0.439,0.519,0.831c0.189,0.214,0.588,0.414,0.87,0.28c0.164-0.181,0.337-0.137,0.298,0.13
	c0.804,0.398,0.171-1.152,1.667-0.042c0.423-0.401,1.563,0.448,1.269-0.587c0.206-0.897-0.173-1.163-0.988-1.311
	c-0.051-0.223,0.121-0.382-0.208-0.474c-0.584,1.732-1.979-0.972-3.032-1.015c-0.422-0.08-0.325-0.607-0.688-0.738
	C78.934,106.093,79.274,106.767,79.164,107.017z"/>
<path fill="#1E8346" d="M79.076,108.713c-0.261,0.66,0.515,0.017,0.109-0.277C79.206,108.55,79.154,108.634,79.076,108.713z"/>
<path fill="#1E8346" d="M83.691,112.175c0.514-2.71-1.414-1.265-0.062,0.274C83.718,112.393,83.691,112.268,83.691,112.175z"/>
<path fill="#1E8346" d="M82.988,110.587c-0.005-0.105-0.106-0.146-0.214-0.14c-0.065,0.134-0.325,0.051-0.391,0.17
	C82.433,110.812,82.994,110.839,82.988,110.587z"/>
<path fill="#1E8346" d="M81.281,112.447c0.428-0.677-0.064-0.506-0.525-0.897c0.394-0.365-0.152-0.484-0.464-0.365
	c-0.16-0.188-1.479-0.962-0.927-0.132c-0.101,0.023-0.2-0.136-0.288-0.173c-0.083,0.209,0.362,1.113,0.543,1.307
	c-0.136,0.296,0.086,0.739,0.194,1.045c0.257,0.066,0.33-0.22,0.434-0.376c0.217-0.195,0.448,0.1,0.235,0.289
	c-1.503,1.825,0.876,1.252,0.854-0.263C81.12,112.776,81.22,112.641,81.281,112.447z"/>
<path fill="#1E8346" d="M80.913,110.825c-0.084-0.106-0.249-0.047-0.374-0.062C80.239,111.061,80.864,110.973,80.913,110.825z"/>
<path fill="#1E8346" d="M81.95,112.486c0.066-0.252-0.075-0.366-0.298-0.388C81.39,112.24,81.901,112.723,81.95,112.486z"/>
<path fill="#1E8346" d="M82.703,113.089c-0.069,0.035-0.147,0.069-0.224,0.079c-0.241,0.227,0.222,0.314,0.341,0.186
	C82.949,113.2,82.938,112.864,82.703,113.089z"/>
<path fill="#1E8346" d="M77.877,117.42c0.185,0.065,0.825-0.552,0.677,0.007c-0.241,0.688,0.614,0.18,0.535-0.26
	c0.273-0.376-0.022-1.456-0.517-0.985c0.393,0.37-0.754,0.765-0.99,0.39C77.277,116.693,77.66,117.319,77.877,117.42z"/>
<path fill="#1E8346" d="M93.628,108.511c0.603,0.287-0.422-2.039-0.708-1.639c-0.298,0.327-0.345,0.874,0.184,0.976
	C93.3,108.04,93.326,108.426,93.628,108.511z"/>
<path fill="#1E8346" d="M96.633,110.033c-0.036,0.161,0.068,0.29,0.141,0.418c1.068-0.414,0.102-0.746,0.146-1.444
	c0.012-0.408-0.575-0.08-0.523,0.188C96.668,109.485,96.731,109.593,96.633,110.033z"/>
<path fill="#1E8346" d="M98.542,110.856c0.206,0.185,0.051,0.538,0.245,0.756C99.37,111.875,99.034,110.357,98.542,110.856z"/>
<path fill="#1E8346" d="M98.355,112.034c-0.294-0.18-0.674-0.165-1.044-0.168C97.242,112.468,98.912,112.721,98.355,112.034z"/>
<path fill="#1E8346" d="M95.895,111.954c-0.029-0.024-0.061-0.046-0.088-0.071c-0.366-0.059-0.196,0.247,0.024,0.319
	C96.183,112.243,96.221,112.071,95.895,111.954z"/>
<path fill="#1E8346" d="M107.305,104.58c0.821,0.043,0.384-1.553-0.14-1.588c-0.181,0.248-0.554,0.555-0.263,0.81
	C106.997,104.065,106.897,104.537,107.305,104.58z"/>
<path fill="#1E8346" d="M109.746,105.833c0.793,0.033,0.844,1.316,1.717,1.142c1.58-1.603,0.093-2.905-1.8-2.624
	C108.467,104.672,108.629,105.805,109.746,105.833z"/>
<path fill="#1E8346" d="M105.769,102.717c0.055-0.823-0.775-0.079-1.001,0.17c-0.306,0.158-0.64,0.136-0.878,0.418
	c-0.265,0.313,0.068,0.594,0.112,0.931c0.267,0.986-1.015,1.289-0.928,2.275c-0.115,0.584,0.602,0.688,0.91,0.916
	c0.746,0.974-1.644-0.338,0.015,1.828c0.783-1.478,1.091-3.23,1.379-4.992C105.995,103.741,105.108,103.173,105.769,102.717z"/>
<path fill="#1E8346" d="M103.315,109.271c-0.189-0.056-0.412,0.079-0.567,0.16c0.182,0.124,0.589,0.657,0.759,0.487
	C103.556,109.697,103.582,109.361,103.315,109.271z"/>
<path fill="#1E8346" d="M122.399,102.729c3.572,7.393,3.062,0.453,0.258-0.549C122.762,102.461,122.62,102.599,122.399,102.729z"/>
<path fill="#1E8346" d="M131.883,102.683c0.066-0.239-0.21-0.861-0.486-0.562C131.447,102.292,131.69,103.092,131.883,102.683z"/>
<path fill="#1E8346" d="M131.633,103.002c-0.072,0.086-0.164,0.267-0.026,0.347C131.798,103.341,131.926,103.013,131.633,103.002z"
	/>
<path fill="#1E8346" d="M132.949,103.693c-0.006,0.164,0.147,0.105,0.229,0.178c0.253,0.042-0.127-0.482-0.277-0.475
	C132.895,103.492,132.964,103.588,132.949,103.693z"/>
<path fill="#1E8346" d="M130.263,105.03c-0.048-0.05-0.1-0.095-0.174-0.089c-0.029,0.377,0.06,0.831,0.403,1.045
	C130.668,105.672,130.538,105.256,130.263,105.03z"/>
<path fill="#1E8346" d="M129.237,104.956c-0.11-0.117-0.224-0.265-0.393-0.285C128.612,105.657,130.03,106.334,129.237,104.956z"/>
<path fill="#1E8346" d="M139.344,102.948c0.655,0.257,0.619-0.798,0.042-0.739C139.224,102.44,139.065,102.737,139.344,102.948z"/>
<path fill="#1E8346" d="M119.491,115.117c-0.028,0.066-0.094,0.127-0.098,0.208C119.411,115.662,120.131,114.905,119.491,115.117z"
	/>
<path fill="#1E8346" d="M129.509,109.366c-0.16,0.092-0.378,0.041-0.478,0.209C129.113,110.513,130.359,109.157,129.509,109.366z"/>
<path fill="#1E8346" d="M131.928,110.551c0.083,0.074,0.124,0.201,0.192,0.291C132.45,110.894,132.211,110.185,131.928,110.551z"/>
<path fill="#1E8346" d="M131.097,110.895c-0.362-0.229-1.028,0.656-0.316,0.62C130.941,111.387,131.427,111.057,131.097,110.895z"/>
<path fill="#1E8346" d="M132.083,111.562c0.501,0.161,0.753,0.093,0.39-0.43C132.355,111.27,131.912,111.299,132.083,111.562z"/>
<path fill="#1E8346" d="M136.972,114.572c0.489,0.767,1.353-0.644-0.094-0.61C136.911,114.148,136.938,114.376,136.972,114.572z"/>
<path fill="#1E8346" d="M135.624,114.054c-0.091,0.217,1.13,0.924,0.504,0.996c-0.205,0.502,0.489,0.474,0.747,0.696
	c0.106,0.108,0.085-0.086,0.08-0.145c0.085-0.47,0.108-0.59-0.415-0.643c-0.045-0.315,0.039-0.533-0.332-0.667
	c-0.207-0.197,0.118-0.44,0.04-0.683c-0.164-0.007-0.226,0.085-0.363,0.001C135.597,113.565,135.765,113.923,135.624,114.054z"/>
<path fill="#1E8346" d="M118.014,116.676c0.769,0.211,0.203-1.057-0.129-0.291C117.741,116.511,117.875,116.643,118.014,116.676z"/>
<path fill="#1E8346" d="M117.687,115.829c-0.01,0.11-0.048,0.233-0.136,0.296C117.527,116.566,118.121,115.846,117.687,115.829z"/>
<path fill="#1E8346" d="M118.603,116.653c-0.174,0.143-0.219,0.475,0.076,0.481C119.012,117.084,118.753,116.788,118.603,116.653z"
	/>
<path fill="#1E8346" d="M117.662,118.916c0.346-0.075-0.062-0.409-0.252-0.295C117.344,118.95,117.331,119.406,117.662,118.916z"/>
<path fill="#1E8346" d="M117.369,120.517c-0.132,0.006-0.4,0.045-0.494,0.157C116.974,121.141,117.567,120.848,117.369,120.517z"/>
<path fill="#1E8346" d="M93.089,123.631c-0.32-0.171-0.484,0.258-0.719,0.386C92.163,125.103,93.676,124.272,93.089,123.631z"/>
<path fill="#1E8346" d="M92.03,120.305c-0.254-0.079-0.537,0.203-0.232,0.356C91.935,120.7,92.294,120.274,92.03,120.305z"/>
<path fill="#1E8346" d="M104.909,92.437c0.335,0.07-0.004-0.321-0.176-0.318c-0.036,0.106,0.018,0.211,0.019,0.316
	C104.806,92.438,104.857,92.431,104.909,92.437z"/>
<path fill="#1E8346" d="M124.557,119.686c-0.165-0.288-0.094-0.975-0.487-0.999c-0.206,0.263-0.348,0.577-0.452,0.891
	c0.243,0.282,0.34,0.648,0.387,1.016c0.254,0.093,0.831-0.108,1.004-0.364C124.942,120.009,124.636,119.911,124.557,119.686z"/>
<path fill="#1E8346" d="M119.82,104.828c-0.327,0.512-0.56-0.12-0.131-0.295c0.189-0.209-0.11-0.345-0.002-0.584
	c0.029-0.747-0.953-0.247-1.272-0.695c0.098,0.552-0.145,1.488,0.388,1.817c0.261,0.231-0.029,0.461-0.14,0.702
	c0.075,0.741-0.639,1.261-0.541,1.94c0.146,0.132,0.348-0.123,0.468-0.153c0.504,0.039,0.417,0.998-0.108,1.032
	c-0.683-0.097-0.389,0.8-0.447,1.203c-1.286,2.031-0.51,2.055,0.767,0.439c0.17-0.031,0.334-0.065,0.307-0.284
	c2.561-3.063,2.157-2.534,4.412,0.095c0.63,0.582,0.815,1.342,1.841,1.246c1.145,0.301,1.808,2.002,2.776,2.161
	c-0.033-0.538-0.027-1.263-0.237-1.794c-0.321-0.366-0.818-1.156,0.068-0.828c-0.682-1.016-1.362-2.027-2.088-3.009
	c-0.043,0.05-0.087,0.101-0.138,0.144c-0.278-0.125-0.501-0.481-0.769-0.566c-0.086,0.178-0.127,0.395-0.201,0.583
	c-0.393-1.57-2.19-1.739-2.709-3.166C121.16,104.778,120.338,103.284,119.82,104.828z"/>
<path fill="#1E8346" d="M131.98,103.79c-0.598,0.396-1.648-0.789-1.659-0.015c0.348,1.163,0.843,2.087,1.089,3.264
	c0.493,1.816,2.013,2.421,3.565,2.9c0.428,0.371,0.418,1.071,1.065,1.198c-0.092,0.387,0.173,0.437,0.513,0.444
	c0.01,0.063,0.01,0.158-0.041,0.199c0.205,0.552,0.729,1.186,1.195,1.547c1.1-0.346,2.381-0.661,0.968,0.807
	c-0.151,0.22-0.017,0.413,0.009,0.646c0.013,0.247-0.365,0.327-0.346,0.624c-0.251-0.049-0.588-0.113-0.84-0.059
	c-0.022,0.115,0.027,0.238,0.025,0.356c-1.352,0.496-0.093,1.189,0.727,1.074c0.768-0.127,0.635,1.173,0.464,1.654
	c-0.15,0.831,0.966,0.464,1.448,0.482c1.067-0.176,0.813,1.594,1.262,2.243c0.423-0.022,0.6-0.712,1.042-0.384
	c0.278,0.332,0.9-0.032,1.051,0.372c0.53,0.18,0.719-0.682,1.214,0.003c0.213-0.403,0.53-1.141,0.865-0.332
	c0.267,0.17,0.674-0.154,0.908-0.292c0.192,0.292,0.193,0.69,0.47,0.947c-0.134,0.029-0.118,0.254-0.046,0.342
	c0.089-0.004,0.177-0.013,0.265-0.028c1.597,1.114-0.748-2.671-1.356-2.217c0.767,0.638-1.883,0.647,0.289-1.145
	c0.292-0.842-0.894-1.106-1.273-1.618c0.448-0.618-0.715-0.802-0.427-1.462c-0.702-0.485,0.24-1.096-0.083-1.665
	c-0.235-0.332-0.065-0.576-0.014-0.912c-1.184-1.949,0.166-1.807,0.319-3.293c-0.041-0.309-0.317-0.213-0.463-0.405
	c-0.144-0.3,0.444-0.722,0.688-0.781c-0.228-1.212-1.368-1.384-2.312-1.525c-0.29,0.013-0.062-0.098-0.008-0.188
	c0.024-0.251-0.444-0.491-0.101-0.782c0.805-0.61-0.121-0.292-0.104-0.791c-0.42-1.46-2.129-1.438-3.225-1.814
	c-0.019-0.249-0.289-1.295-0.36-0.433c0.104,0.296,0.332,1.128-0.245,0.879c-0.181-0.53-1.005,0.223-1.415,0.301
	c-1.425,0.072-2.829,0.438-4.317,0.061C132.519,103.786,132.232,103.272,131.98,103.79z"/>
<path fill="#1E8346" d="M130.923,112.53c-0.495,0.11-0.266,0.664,0.131,0.692C131.506,113.221,131.4,112.441,130.923,112.53z"/>
<path fill="#1E8346" d="M131.631,115.02c0.144,0.601,0.558,1.159,0.983,1.603c3.572,0.937,0.86-4.088-1.262-2.532
	C131.352,114.406,131.492,114.746,131.631,115.02z"/>
<path fill="#1E8346" d="M139.146,130.037c0.368,0.778,0.924,1.529,1.087,2.37c0.013,0.356-0.05,0.93,0.431,0.964
	c0.846,0.185,0.616,1.97,1.657,1.666c-0.277-0.588-0.316-1.153-0.689-1.693c-0.102-0.284,0.174-0.815-0.279-0.851
	c-0.327-0.011-0.738,0.101-0.892-0.27c0.204-0.203-0.341-1.512,0.244-1.415c0.464,0.384,1.374,0.567,1.145-0.355
	c0.239-1.186-0.509-0.671-0.81-1.415c0.314-0.647-0.511-1.159,0.022-1.679c0.169-0.309-0.372-0.637-0.547-0.804
	c-0.27-0.256-0.433-0.766-0.807-0.869c-1.172-0.149-0.721-1.518-0.516-2.282c0.494-1.135-0.127-2.28-0.104-3.348
	c0.229-0.699-0.665-0.822-0.688-1.451c0.378-1.767-0.246-1.104-1.497-1.496c-0.579,0.945-2.031,2.315-3.057,1.104
	c-0.336-0.508-0.354-1.344-1.142-1.296c-0.088,0.177-0.032,0.438-0.034,0.625c-0.7-0.459-1.089-1.861-1.916-1.899
	c-0.516,0.46,0.102,1.344,0.457,1.729c-0.551,0.821,0.82,1.31,0.653,2.172c-0.32,0.429,0.164,0.923,0.052,1.38
	c-0.623,0.459,0.145,0.996,0.1,1.522c-0.779,0.867-0.163,0.52,0.273,0.983c1.842,1.635,0.77-1.796,2.027-1.159
	c4.755,4.847-0.446,5.737,2.066,7.921c0.246,0.717-0.641,1.534-0.184,2.073c1.208-0.032,2.078,1.48,3.067,1.529
	C139.249,133.342,137.914,128.654,139.146,130.037z"/>
<path fill="#1E8346" d="M124.235,131.87c0.141-0.09,0.234-0.215,0.236-0.377c0.121-0.283,0.578-0.11,0.827-0.156
	c0.385-0.072,0.533-0.433,0.749-0.706c0.081,0.939,0.316,0.852,0.932,0.25c0.71-0.54,0.698-0.605-0.137-0.765
	c1.229-1.388,0.406-3.584,0.623-5.232c0.484-0.93,0.233-2.352,0.216-3.353c-0.207-0.045-0.49,0.046-0.593-0.237
	c1.199-1.248,1.361-3.984-0.494-1.31c-0.021,0.365,0.105,0.696-0.007,1.078c-0.001-0.012-0.007-0.02-0.018-0.024
	c-0.088,0.383-0.477,0.634-0.425,1.009c0.315,1.7-1.265,3.289-2.072,4.686c-0.476,1.02-0.37,2.574-1.537,3.166
	c-0.187,1.815-1.965,3.087-2.553,4.735c0.206,1.865-1.244,4.053-0.878,6.161c2.065-0.036,2.331-4.254,3.686-5.591
	c0.31-0.61-0.283-1.679,0.427-2.035C123.764,132.895,123.571,132.127,124.235,131.87z"/>
<path fill="#1E8346" d="M124.129,139.509c0.798,0.219,1.211-0.605,1.702-0.97c2.678,0.791,5.44,0.542,7.17-1.647
	c0.706,1.193,1.954-0.533,0.653-0.871c-0.095-0.032-0.316-0.098-0.282-0.246c0.6-0.193,0.83-0.387,0.226-0.914
	c-0.297-0.411,0.34-0.578,0.221-0.958c-0.281-1.013-0.989-0.393-1.553-0.836c-0.5-0.067-0.387-0.965-0.889-0.584
	c-0.626-0.498-1.593-0.33-2.362-0.278c0.046,0.765-0.681,0.737-1.067,1.147c-0.287,1.708-2.609,1.257-3.195,2.942
	c-0.322,1.597,1.083,0.223,0.663,1.924C125.087,138.306,123.301,139.239,124.129,139.509z"/>
<path fill="#1E8346" d="M134.437,132.373c-0.129-0.239-0.422,0.16-0.566,0.217c-0.143,0.048-0.624-0.004-0.499,0.263
	c-0.022,0.218,0.155,0.408,0.334,0.484c0.019-0.359,0.237-0.344,0.498-0.457C134.252,132.698,134.412,132.553,134.437,132.373z"/>
<path fill="#1E8346" d="M130.498,127.175c0.497,0.037,0.937-0.437,1.306-0.661c2.143,0.945,1.306-2.062-0.047-0.359
	C131.178,124.672,130.483,126.599,130.498,127.175z"/>
<path fill="#1E8346" d="M109.584,128.124c0.026,0.324,0.324,0.713,0.474,0.995c1.919,0.472,3.482-5.086,1.094-3.4
	c-0.179,0.626-0.946,0.719-1.196,1.34C109.836,127.537,110.13,127.888,109.584,128.124z"/>
<path fill="#1E8346" d="M150.175,136.054c0.209-0.014,0.435,0.029,0.172,0.216c-0.133,0.278,0.509,0.924,0.794,0.699
	c1.051,0.503,1.89-0.976,0.459-1.193c0.651-0.525-0.082-1.738-0.345-2.357c-0.345,0.067-0.471,0.517-0.397,0.872
	c-0.476,0.225-0.932,1.199-0.408,1.52C150.465,135.989,149.919,135.798,150.175,136.054z"/>
<path fill="#1E8346" d="M149.432,138.556c0.438,1.574,1.089-0.069,0.969-0.838c0.229-0.191,0.79-0.001,0.89-0.345
	c-0.318-0.147-0.865-0.096-1.12,0.013c-0.244-0.986-0.943-0.182-0.605,0.517C149.488,138.164,149.256,138.265,149.432,138.556z"/>
<path fill="#1E8346" d="M147.345,124.949c-0.028-1.645-1.763,0.363,0.069,0.71c0.207,0.345,0.729,0.414,0.963,0.044
	C148.47,125.083,147.334,125.469,147.345,124.949z"/>
<path fill="#1E8346" d="M133.531,125.183c1.089-1.374-0.987-0.463-0.382,0.29C133.333,125.472,133.451,125.331,133.531,125.183z"/>
<path fill="#1E8346" d="M148.506,122.917c0.152-0.208-0.167-0.664-0.382-0.752c-0.012,0.022-0.028,0.039-0.064,0.082
	C148.212,122.462,148.302,122.733,148.506,122.917z"/>
<path fill="#1E8346" d="M146.499,122.359c0.214-0.321-0.258-0.113-0.391-0.214C145.996,122.353,146.403,122.546,146.499,122.359z"/>
<path fill="#1E8346" d="M144.659,128.862c0.107-0.156-0.138-0.284-0.306-0.239C144.43,128.906,144.452,129.301,144.659,128.862z"/>
<path fill="#1E8346" d="M147.11,135.629c0.342-0.332-0.156-0.59-0.386-0.761c-0.054-0.76,0.64-1.523,0.11-2.231
	c-0.298-0.276-0.42-0.659-0.23-1.02c-0.189-0.577-0.275-1.143,0.08-1.694c0.375-0.711-0.469-2.13-0.692-0.735
	c-0.196,1.166-0.876-0.094-0.601,0.9c-0.948,0.268-0.469,0.182-0.522,1.052c0.63,0.735-0.19,0.615-0.323,1.288
	c-0.604,1.43,1.542,0.175,0.987,1.935c0.225,0.057,0.863,0.478,0.672,0.701C144.761,135.302,146.135,137.283,147.11,135.629z"/>
<path fill="#1E8346" d="M157.186,165.927c-0.01-0.645-0.278-1.53,0.328-1.897c0.087-1.032-0.613-1.986-0.401-3.005
	c-0.718-0.6-1.773-1.155-2.62-2.146c0.293-0.388,0.836-0.658,1.087-1.057c-0.476-0.302,0.128-1.185,0.194-1.605
	c0.074-0.391-0.122-0.781-0.002-1.158c0.098-0.186,0.41-0.173,0.384-0.441c-0.549-0.158-2.08,1.819-1.573,0.152
	c0.724-1.019-0.291-0.482-0.193-1.133c2.022-2.161-0.649-2.806-2.431-2.318c0.157-0.515-0.358-0.768-0.305-1.208
	c0.604-0.373,1.408-0.548,1.57-1.299c0.24-0.243,0.706-0.095,0.763-0.511c2.032-2.098-2.896-2.799-1.119-5.739
	c-0.301-1.155-2.035,2.231-2.562-1.136c-0.076-0.359-0.586-0.105-0.798-0.43c-0.363-0.436,0.752-0.232,0.562-0.772
	c-0.13-0.023-0.243,0.036-0.343,0.112c-0.17-0.217-0.219-0.488-0.553-0.455c-0.21-0.72-1.015-0.198-1.396-0.624
	c-0.126-0.371-0.483-0.625-0.889-0.534c-0.607,0.107-1.14-0.342-1.118-0.958c0.04-0.396,0.907-0.724,0.459-1.148
	c-0.056,0.084-0.114,0.189-0.163,0.26c-0.062,0.013-0.124,0.022-0.185,0.034c0.001,0.065,0.004,0.138-0.002,0.202
	c-0.079,0.008-0.161-0.002-0.236-0.029c-0.122-0.448-0.78-0.146-0.982-0.495c-0.179-0.387-0.538-0.301-0.882-0.29
	c-0.933,2.315,0.705,5.01,1.259,7.317c-0.045,0.185-0.169,0.051-0.282,0.113c-0.211,0.116,0.069,0.489,0.139,0.627
	c0.377,2.311-2.966,2.199-3.596,0.344c-0.985,1.024,0.353,4.993-2.359,1.961c-3.4-2.865-2.313,0.685-2.95,2.751
	c-0.155,0.857,0.625,2.086-0.453,2.684c-1.04-0.416-2.157-1.034-2.939-1.841c-3.562,0.752-0.731,6.068-5.038,5.17
	c-0.641,0.077-1.201,0.508-1.641,0.932c-0.541,0.093-1.006,0.392-1.211,0.928c-0.914,1.72-2.296,0.309-0.528-0.355
	c2.01-0.461,2.088-4.299,0.614-5.124c-0.015-0.257,0.108-0.467-0.206-0.632c-0.357-0.92-1.226-1.084-2.043-1.242
	c-0.255,0.076-0.187,0.508-0.225,0.712c-0.18,0.051-0.19-0.259-0.317-0.346c-0.638-0.135-0.644-0.138-0.524-0.738
	c-0.094-0.138-0.304,0.03-0.413,0.035c-0.283-0.045-0.402-0.374-0.727-0.412c-0.35-0.158-0.447,0.215-0.104,0.308
	c0.685,1.294-0.753-0.193-0.759,1.915c-2.65-0.355-3.718,0.168-4.385,2.82c1.23,1.644-2.561,2.593-3.371,1.661
	c-1.139,1.636-4.805,0.493-5.032,2.87c-0.589,0.509-1.778,1.174-1.621,2.12c0.692,0.301,0.231,1.071,0.34,1.634
	c0.302,0.146,0.218,0.375-0.034,0.482c-0.648,0.616-0.473,0.914-0.621,1.698c-0.447,0.325-0.475,0.846,0.05,1.084
	c0.048,0.128-0.111,0.216-0.196,0.243c-1.083,0.049-1.745,1.223-1.764,2.218c-0.609,1.807,3.254,3.592,3.302,1.326
	c0.71-1.154,0.823-2.554,1.384-3.75c0.462-0.047,1.002-0.333,0.98-0.894c-1.099-0.241,0.117-1.295,0.575-1.605
	c0.058,0.063,0.097,0.144,0.16,0.203c0.629-0.329,0.48-0.783-0.153-0.892c0.593-0.572,0.899-1.463,1.649-1.848
	c0.418-0.439,0.54-0.612,1.131-0.367c0.228-0.246,0.518-0.06,0.683,0.183c0.318,0.191,1.2-0.3,0.838,0.447
	c-0.314,0.677-0.072,1.339,0.279,1.918c0.074,0.513-0.765,0.354-0.584,0.926c0.083-0.008,0.158-0.043,0.238-0.034
	c0.236,0.792-0.923,2.126,0.444,2.352c0.353-0.317,0.689-0.768,1.233-0.774c0.007-0.117-0.096-0.169-0.093-0.279
	c0.13,0.021,0.255,0.06,0.388,0.057c-1.458-2.348-0.518,1.228-1.424-0.803c0.752-1.544,0.392-1.582,1.662-0.319
	c0.39-0.507,0.816-4.042,1.751-2.704c-0.217,0.545,0.636,0.715,0.459,1.198c-1.273,0.111-0.864,0.673-0.149,1.314
	c0.344-0.336,0.704-0.841,1.286-0.576c0.342,0.207-0.051,0.674,0.359,0.911c0.578,0.599,2.261,1.626,1.445-0.071
	c-0.333-0.126-0.549-0.277-0.512-0.664c0.003-0.324-0.649-0.496-0.523-0.764c0.195-0.147,0.396,0.249,0.53-0.084
	c0.001-0.609,0.877-0.321,0.969-0.937c0.539-0.827-0.455-1.083-0.52-1.776c2.81-0.68,2.567-0.275,4.655,1.402
	c1.865-0.274,3.159,1.188,3.678,2.803c-0.131,0.999,2.173,0.355,0.752,1.479c-0.2,3.065-2.927,1.066-2.784,5.255
	c-0.173,0.341-0.302,0.847-0.037,1.209c0.272,0.327,0.572-0.399,0.749,0.054c-0.062,0.537-0.244,1.004,0.119,1.522
	c0.223,0.848-0.314,1.628,0.021,2.497c0.481,1.032,1.46,1.789,1.804,2.871c3.291,0.966,6.706,4.52,10.263,3.654
	c0.028-0.979,0.65-1.888,1.222-2.633c1.155-0.475,1.471,1.703,0.749,2.199c-0.269,0.156-0.311,0.056-0.335,0.386
	c0.001,0.447-0.788,0.586-0.413,1.064c0.496,0.132,0.446,0.708,0.905,0.874c0.436,0.406,0.159,1.233,0.574,1.584
	c1.285,0.711,1.834-1.11,2.31-1.981c3.745-2.925,1.695-5.751,0.878-9.177c-0.332-0.142-0.492,0.144-0.754-0.149
	c-0.197-0.252-1.051-1.39-1.091-0.561c-1.807-1.474,0.779-3.149,0.644-4.707c3.417-1.472,0.799-3.175,3.944-4.377
	c0.57,0.029,0.209,0.938,0.299,1.304c0.171,0.526,0.515,0.999,0.47,1.584c0.295,0.393,0.812,0.612,0.986,1.13
	c0.281,0.41-0.325,1.112,0.096,1.447c0.236-0.028,0.364,0.096,0.511,0.271c1.307,0.514,0.435,2.995,0.674,4.214
	c0.402,0.937,1.152,1.691,1.314,2.765c0.457-1.644,0.02-3.562,0.72-5.232c0.075-0.717-0.647-1.111-0.856-1.721
	c0.221-0.649,0.127-1.407,0.973-0.57c0.316,0.358,0.022,1.443,0.876,1.263c0.048-0.525,0.049-1.281-0.494-1.447
	c0.392-1.018,2.155-0.219,2.046-1.729C156.174,167.91,158.196,166.07,157.186,165.927z"/>
<path fill="#1E8346" d="M135.822,142.961c-2.395-0.757-0.967,2.295,0.634,1.872C136.818,144.201,136.388,143.34,135.822,142.961z"/>
<path fill="#1E8346" d="M108.667,137.82c0.913,1.017,1.544,2.513,2.658,3.466c3.434,0.144,2.238,1.438,3.678,3.642
	c2.851,2.077,5.703-3.017,2.894-4.737c-0.256-0.102-0.198-0.129-0.228-0.401c0.018-0.493-0.94-0.334-0.272-0.883
	c-0.388-0.32-0.372-0.566-0.008-0.887c0.399-0.919-0.455-1.984,0.133-2.914c1.194-1.986,1.623-4.206,2.226-6.329
	c1.038-0.713,3.055-3.858,1.923-4.835c0.066-1.504-1.665-0.878-2.558-1.306c-1.374-1.252-2.228,0.68-3.624,0.814
	c-0.791,0.295-0.406,0.975-0.382,1.545c-0.08,1.065-0.598,2.652-1.858,2.78c0.43,0.577,0.717,1.725,0.747,2.439
	c-0.275,0.722-0.36,1.539-0.025,2.242c0.103,0.928-1.281,0.825-1.862,1.326c0.045,0.176-0.05,0.376-0.193,0.472
	c-0.646,0.012-2.773-0.378-2.84,0.452c0.018,0.597-0.644,0.867-0.572,1.486c-0.074,0.347,0.205,0.852-0.109,1.08
	C108.489,137.465,108.691,137.574,108.667,137.82z"/>
<path fill="#1E8346" d="M122.29,142.902c-0.532,0.354-2.221,0.352-0.894,1.172c0.659,0.72,1.339,0.627,2.148,0.329
	c0.571-0.346-0.416-0.62-0.17-0.879c0.452-0.396-0.372-1.319-0.79-1.219C122.449,142.448,122.609,142.94,122.29,142.902z"/>
<path fill="#1E8346" d="M79.915,128.07c0.085-0.45,0.82-0.007,0.677-0.648c0.132-1.07-1.17-0.162-1.624-0.896
	c-0.337-0.286-0.334,0.039-0.372,0.312c0.033,0.405-0.439,0.537-0.744,0.66c-0.325,0.267,0.23,0.392,0.091,0.819
	c0.033,0.559,0.661,0.531,1.035,0.369c-0.013-0.2,0.144-0.265,0.34-0.272C79.952,128.582,79.338,127.628,79.915,128.07z"/>
<path fill="#1E8346" d="M77.161,127.647c-0.82-0.373-0.294-1.668-1.347-1.475c0.286-0.653,0.092-1.378,0.017-2.009
	c-0.128-0.078-0.359,0.111-0.483,0.108c-0.258-0.007-0.212-0.267-0.377-0.437c-0.176-0.18-0.287-0.125-0.207-0.395
	c0.205-1.013-0.402-1.129,0.847-1.246c0.011-1.102,0.62,0.169,0.897-0.125c0.097-0.407-0.448-0.995-0.869-0.953
	c-1.765,0.435,0.634-2.043-0.248-2.839c-0.737,0.092-0.119-0.725-0.728-0.802c-0.372,0.559-0.892,1.087-0.733,1.876
	c-0.365,0.451-0.459,1.053-0.002,1.476c0.023,2.264-1.457-0.779-0.9,1.311c-0.069-0.074-0.143-0.165-0.22-0.229
	c-0.094,0.113-0.105,0.285-0.222,0.373c-0.106-0.122-0.24-0.284-0.402-0.318c-0.021,0.209,0.01,0.744,0.292,0.781
	c0.015-0.055,0.046-0.111,0.056-0.168c0.422,0.323,0.626,0.595,0.715,1.14c0.733-0.121,1.681,1.674,0.92,1.846
	c-0.307-0.869-1.094-1.284-1.876-1.722c-0.187-0.305,0.306-0.706-0.129-0.919c-0.07,0.047-0.087,0.125-0.074,0.206
	c-0.854-0.582-0.217,0.257-0.194,0.573c-0.17,0.237-0.147,0.389,0.104,0.525c0.148,0.2-0.19,0.431-0.037,0.652
	c1.901,0,0.589,2.707-0.306,3.473c-1.859,2.379-0.848-0.244-1.649,0.275c0.455,1.04-2.195,0.621-0.956,1.477
	c-0.312,0.348-0.787,0.439-0.702,1.002c-0.036,0.914-2.298,0.14-1.531,1.305c-0.066,0.392,0.219,0.867-0.114,1.189
	c-0.568-0.148-0.371-0.516-0.291-0.897c-0.466-0.607-0.541,1.457-1.291,1.215c-0.415,0.255,0.061,0.967-0.463,1.147
	c-0.512,1.094-1.683,1.822-2.522,2.712c-0.052,0.591-0.606,0.169-0.833,0.503c-0.004,1.067-0.864,1.534-1.603,1.954
	c-0.086,0.285,0.076,0.6-0.209,0.817c-0.162,0.123-0.497,0.063-0.588,0.286c0.18,0.787-0.643,0.3-0.836,1.04
	c-0.173,0.237-0.677,0.67-0.901,0.353c-0.899-0.104-1.705,0.734-2.374,1.243c-0.224,0.346-0.103,1.356-0.803,1.025
	c-0.664-0.528-2.845,3.087-3.438,3.687c-1.668,0.852-2.028,2.835-2.539,4.449c-0.14,0.232-0.169,0.715,0.21,0.7
	c0.682-0.88,1.956-2.201,3.143-2.065c0.35,0.276,0.508-0.506,0.697-0.702c0.235-0.243-0.083-0.79,0.087-1.083
	c0.242-0.417,0.798-0.107,1.142-0.121c1.032-0.015,1.533-0.746,2.198-1.319c1.227-0.98,2.618-1.55,2.974-3.266
	c0.294-1.778,1.757-1.149,3.144-1.597c0.705-1.124,2.222-1.928,2.649-3.295c0.867-0.56,1.421-1.701,1.956-2.515
	c-0.299-0.24-1.024-0.74-0.404-1.05c1.458,1.624-0.515-2.029,0.852-1.972c1.303-0.929,3.171-0.413,4.514-1.305
	c0.85-2.276,1.498-4.081,4.421-3.866C75.72,128.899,78.068,128.088,77.161,127.647z"/>
<path fill="#1E8346" d="M75.766,120.602c0.36-0.095,0.94-0.584,0.255-0.674C75.64,119.87,75.268,120.671,75.766,120.602z"/>
<path fill="#1E8346" d="M76.961,119.037c0.233-0.209,0.335-0.886-0.188-0.49C76.591,118.726,76.784,118.994,76.961,119.037z"/>
<path fill="#1E8346" d="M77.299,121.592c-0.305,0.084-0.076,0.417,0.156,0.289C77.607,121.777,77.426,121.612,77.299,121.592z"/>
<path fill="#1E8346" d="M76.974,121.47c0.005,0.082-0.151,0.257-0.033,0.318C77.093,121.868,77.119,121.49,76.974,121.47z"/>
<path fill="#1E8346" d="M127.833,130.792c-0.152,0.189-1.222,1.203-0.457,1.026C127.584,131.651,128.483,130.669,127.833,130.792z"
	/>
<path fill="#1E8346" d="M128.751,131.668c-0.73,0.75,2.528-0.454,1.926-0.836C130.121,131.337,129.022,130.841,128.751,131.668z"/>
<path fill="#1E8346" d="M147.448,136.892c0.235-0.198-0.05-0.655-0.311-0.732C146.974,136.459,146.98,136.963,147.448,136.892z"/>
<path fill="#1E8346" d="M144.933,135.082c-0.166,0.225,0.158,0.63,0.391,0.681c0.167-0.214-0.427-0.439-0.214-0.654
	C145.023,135.086,144.973,135.06,144.933,135.082z"/>
<path fill="#1E8346" d="M146.463,137.384c-0.018-0.03-0.038-0.05-0.087-0.103c-0.2,0.182-0.032,0.467,0.113,0.642
	C146.575,137.78,146.482,137.545,146.463,137.384z"/>
<path fill="#1E8346" d="M149.839,135.375c0.114-0.086,0.23-0.243,0.074-0.367C149.822,135.066,149.566,135.445,149.839,135.375z"/>
<path fill="#1E8346" d="M46.68,156.912c-0.027-0.681-1.054-1.017-0.88-0.138c0.041,0.091,0.116,0.343-0.058,0.373
	c-0.594,0.296-0.483,0.53-0.38,1.007c-0.376,0.257-0.307,0.546,0.004,0.843C46.307,161.741,47.134,158.054,46.68,156.912z"/>
<path fill="#1E8346" d="M49.524,153.877c-0.786-0.212-0.766,1.354-0.362,1.675C49.991,155.947,50.18,154.09,49.524,153.877z"/>
<path fill="#1E8346" d="M47.978,155.639c-0.183-0.549-1.063,0.373-0.302,0.313C48.011,156.073,48.626,155.789,47.978,155.639z"/>
<path fill="#1E8346" d="M48.529,153.896c-0.517,0.065-1.231,0.824-0.293,0.789C48.572,154.624,49.116,153.977,48.529,153.896z"/>
<path fill="#1E8346" d="M107.358,173.597c-0.468-0.161-0.92-0.293-1.44-0.358c-0.306-0.096-0.086-0.531-0.477-0.529
	c-0.396-0.048-0.576-0.464-1.012-0.314c-0.646,0.151-1.04,1.074-1.749,0.954c-0.575-0.535-1.477,0.529-0.795,0.856
	c0.563-0.078,0.728,0.264,0.713,0.76c0.477,0.468,0.766,1.277,1.42,1.515c0.781-0.24,2.447-0.23,2.264-1.419
	c-0.001-0.272,0.111-0.756,0.43-0.775C107.168,174.423,108.241,174.001,107.358,173.597z"/>
<path fill="#1E8346" d="M103.64,177.464c-0.272,0.025-0.092,0.403,0.087,0.367C104.068,177.757,103.909,177.493,103.64,177.464z"/>
<path fill="#1E8346" d="M99.522,173.301c-0.081-0.059-0.184-0.196-0.295-0.189c-0.002,0.312,0.137,0.64,0.344,0.883
	C99.761,173.793,99.891,173.412,99.522,173.301z"/>
<path fill="#1E8346" d="M87.508,177.44c0.165-0.58,0.386-1.426-0.371-0.569c-0.332,0.54,0.07,1.381-0.846,1.099
	C86.723,178.728,87.666,178.314,87.508,177.44z"/>
<path fill="#1E8346" d="M88.274,177.434c-0.222,0.178-0.524,0.653-0.087,0.756C88.361,178.032,88.811,177.415,88.274,177.434z"/>
<path fill="#1E8346" d="M88.916,176.027c-0.128,0.116-0.348,0.202-0.389,0.378C88.754,176.731,89.455,176.1,88.916,176.027z"/>
<path fill="#1E8346" d="M85.842,179.079c-0.046,0.168-0.499,0.4-0.053,0.395C86.247,179.817,86.237,179.195,85.842,179.079z"/>
<path fill="#1E8346" d="M82.153,182.039c0.051-0.124-0.089-0.587-0.283-0.427C81.972,181.724,81.942,182.135,82.153,182.039z"/>
<path fill="#1E8346" d="M80.602,182.75c0.274-0.13-0.031-0.274-0.204-0.158C80.381,182.746,80.455,182.914,80.602,182.75z"/>
<path fill="#1E8346" d="M74.763,194.295c-0.096-0.237-0.267-0.4-0.517-0.473c0.388,0.966,0.06,2.132,0.278,3.177
	C75.273,196.326,75.181,195.126,74.763,194.295z"/>
<path fill="#1E8346" d="M73.798,195.58c-0.046,0.04-0.097,0.174-0.131,0.187c0.077,0.228,0.218,0.272,0.166,0.511
	c-0.002,0.039-0.079,0.521,0.062,0.364c-0.04-0.406,0.239-0.852,0.124-1.22C73.965,195.486,73.864,195.523,73.798,195.58z"/>
<path fill="#1E8346" d="M79.115,195.03c-0.153-0.05-0.323-0.035-0.461-0.123C78.115,195.193,79.518,195.57,79.115,195.03z"/>
<path fill="#1E8346" d="M78.738,194.468c0.636-0.069,0.213-0.832-0.281-0.792C78.161,193.813,78.324,194.693,78.738,194.468z"/>
<path fill="#1E8346" d="M80.848,192.651c-0.001,0.09-0.127,0.181-0.2,0.237c-0.154,0.091,0.03,0.69,0.201,0.503
	C80.828,193.17,81.411,192.517,80.848,192.651z"/>
<path fill="#1E8346" d="M83.298,189.229c-0.098-1.373-1.596,0.831-2.271,0.832c-0.315,0.056-0.714,0.021-0.84,0.385
	c-0.457,0.682-1.503,0.504-2.012,1.155c-0.476,0.293-0.924,1.585,0.003,0.915c0.594-0.382,1.437-0.33,2.095-0.601
	c0.427-0.289,0.458-0.96,0.894-1.145c0.792,0.318,0.47,0.515,1.045-0.244c0.16,0.177,0.296,0.376,0.539,0.449
	C83.088,192.592,84.074,189.465,83.298,189.229z"/>
<path fill="#1E8346" d="M84.871,190.983c-0.328-0.015-0.769,0.21-0.765,0.571c-0.382,0.355,0.274,0.377,0.312-0.005
	c0.037-0.183-0.018-0.233,0.228-0.234C84.948,191.442,85.268,191.1,84.871,190.983z"/>
<path fill="#1E8346" d="M84.392,190.554c0.202-0.235-0.288-0.588-0.498-0.614C83.49,190.509,83.722,191.128,84.392,190.554z"/>
<path fill="#1E8346" d="M84.729,190.568c0.254,0.003,0.22-0.493,0.271-0.711C84.779,189.973,84.321,190.426,84.729,190.568z"/>
<path fill="#1E8346" d="M84.506,188.351c-0.095,0.004-0.191,0.001-0.286,0.001C84.07,188.867,84.916,188.405,84.506,188.351z"/>
<path fill="#1E8346" d="M87.701,187.798c-0.035-0.033-0.067-0.038-0.117-0.029C87.057,188.116,88.203,188.02,87.701,187.798z"/>
<path fill="#1E8346" d="M89.84,186.166c-0.271,0.038-0.462,0.36-0.407,0.615C89.71,187.568,90.646,186.145,89.84,186.166z"/>
<path fill="#1E8346" d="M91.077,186.222c-0.176-0.039-0.241-0.166-0.358-0.313c-0.845,0.082-0.193,1.808,0.269,1.035
	C91.043,186.681,91.545,186.423,91.077,186.222z"/>
<path fill="#1E8346" d="M92.974,184.74c-0.962-0.013,0.061,0.712,0.049,0.253C93.05,184.909,93.219,184.78,92.974,184.74z"/>
<path fill="#1E8346" d="M91.345,183.986c-0.111-0.031-0.131-0.001-0.217,0.056c0.037,0.791-0.72,0.301-1.058,0.693
	C89.611,185.813,92.503,184.433,91.345,183.986z"/>
<path fill="#1E8346" d="M94.385,182.97c-0.573-0.333-0.649,0.796-0.093,0.779C94.782,183.684,94.977,183.043,94.385,182.97z"/>
<path fill="#1E8346" d="M96.779,181.033c-0.728,0.031-1.339-0.257-1.987,0.081c-0.332-1.295-1.962-1.408-2.768-0.507
	c-1.528-0.166-1.298,2.648,0.144,1.611c0.455-0.51,0.755,0.389,1.169,0.203c0.129-0.268,0.54-0.082,0.753-0.289
	c1.168-1.16,0.848,0.696,1.644,0.586C96.441,182.53,98.5,181.374,96.779,181.033z"/>
<path fill="#1E8346" d="M97.221,180.424c-0.233-0.043-0.336,0.169-0.379,0.36C97.173,181.035,97.776,180.775,97.221,180.424z"/>
<path fill="#1E8346" d="M98.812,180.881c-0.009-0.045-0.025-0.105-0.129-0.122C98.17,181.238,98.749,181.32,98.812,180.881z"/>
<path fill="#1E8346" d="M99.167,181.409c-0.167,0.072-0.19,0.276-0.359,0.353C99.033,181.876,99.509,181.632,99.167,181.409z"/>
<path fill="#1E8346" d="M100.408,180.638c-0.145,0.097-0.225,0.279-0.306,0.425C99.882,181.666,101.544,180.754,100.408,180.638z"/>
<path fill="#1E8346" d="M103.198,180.513c-1.437,0.94-1.556-0.956-2.052-0.249c0.496,0.598,1.307,1.379,1.992,0.566
	C103.265,180.77,103.469,180.52,103.198,180.513z"/>
<path fill="#1E8346" d="M101.99,179.199c-0.004-0.066-0.059-0.13-0.116-0.137c-0.62,0.213,0.041,0.76,0.437,0.707
	C102.555,179.369,101.701,179.688,101.99,179.199z"/>
<path fill="#1E8346" d="M103.581,172.829c0.234-0.167,0.538-0.765,0.011-0.506C103.393,172.421,103.217,172.959,103.581,172.829z"/>
<path fill="#1E8346" d="M106.467,170.221c0.175-0.262,0.384-0.302,0.691-0.298c0.434-0.248-0.214-0.574-0.467-0.39
	c-0.084,0.101-0.163,0.284-0.325,0.288C106.349,169.987,106.124,170.368,106.467,170.221z"/>
<path fill="#1E8346" d="M148.107,168.752c0.22-0.741-0.273-1.536-1.08-1.492c-0.172,0.559-0.6,1.211,0.171,1.518
	c0.381,0.543,0.049,1.345,0.503,1.899C148.473,170.364,147.983,169.377,148.107,168.752z"/>
<path fill="#1E8346" d="M146.82,170.059c-0.287,0.53,0.846,0.442,0.303-0.197C147.015,169.904,146.901,169.976,146.82,170.059z"/>
<path fill="#1E8346" d="M63.502,168.678c-0.314-0.034-0.447,0.53-0.785,0.141c0.149,0.294-0.488,0.389-0.379,0.714
	c0.442,0.113,0.864,0.391,1.348,0.382C63.274,169.437,64.011,169.001,63.502,168.678z"/>
<path fill="#1E8346" d="M145.366,110.151c0.205,0.664,0.395-0.368-0.055-0.516C145.37,109.8,145.349,109.978,145.366,110.151z"/>
<path fill="#1E8346" d="M144.471,187.242c-0.279,0.202-0.299,0.716-0.158,1.034c0.452,0.006,0.582-0.755,0.347-1.071
	C144.601,187.205,144.531,187.229,144.471,187.242z"/>
<path fill="#1E8346" d="M143.848,187.879c-0.437-0.326-0.784,0.146-1.031,0.461C143.226,188.71,144.166,188.626,143.848,187.879z"/>
<path fill="#1E8346" d="M122.176,122.788c-0.079-0.044-0.177-0.119-0.209-0.205c-0.599,0.201,0.941,0.762,0.548,0.126
	C122.437,122.849,122.305,122.859,122.176,122.788z"/>
</svg>
