<?xml version="1.0" encoding="utf-8"?>
<!-- Generator: Adobe Illustrator 26.0.3, SVG Export Plug-In . SVG Version: 6.00 Build 0)  -->
<svg version="1.1" xmlns="http://www.w3.org/2000/svg" xmlns:xlink="http://www.w3.org/1999/xlink" x="0px" y="0px"
	 viewBox="0 0 200 200" enable-background="new 0 0 200 200" xml:space="preserve">
<g id="Layer_1">
	<g id="Layer_1_00000107551159852787612550000017757744099325915571_">
		<g id="Layer_1_00000128480095285341338950000008464522443776971395_">
		</g>
	</g>
</g>
<g id="Isolation_Mode_00000063621668281934077600000006196874878142535819_">
	<path fill="#1E8346" d="M195.397,34.347c-0.155,0.055-0.273,0.189-0.43,0.237c-0.324,0.1-0.639-0.194-0.977-0.214
		c-0.336-0.02-0.637,0.231-0.973,0.237c-0.665,0.012-1.033-0.882-1.692-0.973c-0.402-0.056-0.816,0.209-1.204,0.09
		c-0.141-0.044-0.262-0.135-0.38-0.224c-0.308-0.234-0.627-0.484-0.786-0.837c-0.429-0.048-0.859,0.071-1.291,0.075
		c-0.432,0.004-0.92-0.156-1.087-0.554c-0.066-0.157-0.106-0.37-0.273-0.404c-0.052-0.011-0.106,0-0.159,0.012
		c-0.207,0.045-0.414,0.089-0.621,0.134c-0.296-0.544-0.643-1.176-1.225-1.387c-0.209-0.076-0.442-0.099-0.625-0.225
		c-0.223-0.152-0.331-0.452-0.259-0.712c0.022-0.079,0.06-0.162,0.034-0.24c-0.017-0.053-0.062-0.094-0.08-0.148
		c-0.041-0.126,0.08-0.241,0.132-0.364c0.072-0.169-0.01-0.388-0.175-0.469c-0.165-0.081-0.388-0.011-0.478,0.149
		c-0.041,0.073-0.058,0.163-0.12,0.22c-0.113,0.106-0.296,0.042-0.435-0.026c-0.156,0.157-0.317,0.317-0.515,0.415
		c-0.199,0.098-0.446,0.126-0.638,0.016c-0.011,0.19-0.156,0.365-0.341,0.411c-0.229,0.057-0.458-0.067-0.682-0.139
		c-0.155-0.05-0.317-0.074-0.479-0.074c-0.19,0.001-0.435,0.111-0.394,0.296c-0.252,0.151-0.63-0.005-0.701-0.291
		c-0.042-0.168,0.012-0.343,0.041-0.514c0.105-0.606-0.108-1.259-0.551-1.686c-0.054-0.052-0.112-0.101-0.181-0.13
		c-0.153-0.063-0.326-0.015-0.491-0.013c-0.301,0.004-0.593-0.154-0.779-0.39c-0.187-0.236-0.273-0.542-0.271-0.843
		c0.002-0.365,0.198-0.784,0.56-0.83c0.159-0.229,0.057-0.541,0.143-0.806c0.011-0.033,0.027-0.067,0.058-0.081
		c0.052-0.022,0.105,0.023,0.155,0.047c0.099,0.047,0.232,0.003,0.284-0.094c0.06-0.114,0.008-0.254-0.056-0.366
		c-0.098-0.168-0.224-0.319-0.372-0.445c-0.103-0.087-0.22-0.168-0.278-0.29c-0.07-0.149-0.034-0.327,0.027-0.48
		c0.129-0.319,0.359-0.584,0.585-0.844c-0.129-0.494-0.371-0.954-0.707-1.339c-0.204-0.233-0.45-0.455-0.522-0.756
		c-0.038-0.157-0.023-0.323-0.051-0.482c-0.068-0.378-0.365-0.666-0.647-0.926c-0.372-0.343-0.747-0.687-1.179-0.95
		c-0.675-0.411-1.479-0.606-2.268-0.55c-0.057,0.004-0.114,0.009-0.167,0.028c-0.2,0.07-0.291,0.296-0.358,0.496
		c-0.042-0.066-0.135-0.078-0.212-0.062c-0.077,0.016-0.149,0.053-0.227,0.06c-0.13,0.012-0.257-0.063-0.34-0.165
		c-0.083-0.101-0.131-0.226-0.178-0.349c-0.146-0.386-0.04-0.861-0.043-1.275c0-0.104-0.003-0.214-0.056-0.304
		c-0.099-0.165-0.358-0.24-0.358-0.432c0-0.09,0.062-0.176,0.044-0.264c-0.014-0.068-0.073-0.116-0.13-0.156
		c-0.47-0.325-1.086-0.429-1.636-0.277c-0.043,0.012-0.087,0.026-0.132,0.02c-0.058-0.006-0.108-0.043-0.154-0.079
		c-0.105-0.081-0.214-0.166-0.275-0.284c-0.083-0.161-0.09-0.394-0.26-0.459c-0.065-0.026-0.138-0.016-0.207-0.005
		c-0.189,0.03-0.377,0.065-0.564,0.106c-0.64-0.056-1.2,0.199-1.779,0.477c-0.04,0.019-0.084,0.043-0.095,0.086
		c-0.023,0.087,0.106,0.168,0.07,0.251c-0.205,0.037-0.473,0.044-0.56-0.146c-0.027-0.058-0.029-0.124-0.034-0.188
		c-0.019-0.284-0.084-0.566-0.191-0.83c-0.061-0.15-0.181-0.318-0.34-0.291c-0.106,0.019-0.175,0.119-0.248,0.198
		c-0.221,0.238-0.648,0.306-0.859,0.06c-0.088-0.102-0.125-0.237-0.192-0.353c-0.067-0.117-0.19-0.223-0.322-0.197
		c-0.078,0.015-0.139,0.073-0.198,0.126c-0.125,0.112-0.261,0.211-0.412,0.282c-0.363,0.17-0.795,0.169-1.14,0.374
		c-0.022,0.013-0.044,0.028-0.053,0.051c-0.009,0.023-0.002,0.049,0.005,0.072c0.062,0.22,0.123,0.439,0.185,0.659
		c-0.368-0.225-0.741-0.451-1.152-0.582c-0.049-0.016-0.105-0.029-0.15-0.005c-0.098,0.051-0.055,0.198-0.084,0.304
		c-0.046,0.17-0.264,0.207-0.434,0.251c-0.332,0.085-0.623,0.321-0.774,0.629c-0.215,0.129-0.441,0.264-0.687,0.313
		c-0.245,0.05-0.525,0.005-0.697-0.178c-0.015-0.016-0.03-0.033-0.051-0.038c-0.035-0.007-0.065,0.025-0.087,0.054
		c-0.228,0.304-0.433,0.625-0.611,0.961c-0.021,0.039-0.042,0.079-0.079,0.103c-0.037,0.024-0.084,0.026-0.128,0.028
		c-0.44,0.017-0.899,0.032-1.303-0.146c-0.314-0.138-0.584-0.387-0.922-0.444c0.026-0.167,0.003-0.342-0.067-0.497
		c-0.133-0.296-0.791-0.086-0.896,0.221c-1.006-0.378-2.166-0.327-3.135,0.137c-0.815-0.093-1.643-0.065-2.448,0.084
		c-0.853-0.157-1.755-0.301-2.572-0.007c-0.418,0.151-0.913,0.403-1.263,0.129c-0.434,0.431-1.12,0.435-1.732,0.433
		c-0.917-0.003-1.835,0.043-2.747,0.137c-0.116,0.012-0.238,0.027-0.336,0.09c-0.135,0.088-0.199,0.251-0.309,0.368
		c-0.171,0.182-0.433,0.24-0.677,0.288c-0.599,0.119-1.198,0.237-1.797,0.356c-0.456,0.091-0.973,0.225-1.184,0.64
		c-0.034,0.136,0.133,0.238,0.169,0.374c0.041,0.157-0.109,0.305-0.265,0.349c-0.156,0.044-0.324,0.025-0.482,0.063
		c-0.338,0.081-0.578,0.453-0.512,0.794c-0.803,0.094-1.559,0.535-2.035,1.188l-0.991-0.05c0.049,0.191-0.143,0.38-0.104,0.573
		c0.029,0.14,0.172,0.238,0.193,0.379c0.032,0.204-0.199,0.363-0.217,0.568c-0.579-0.317-1.123-0.695-1.622-1.127
		c-0.096,0.032-0.154,0.132-0.18,0.229c-0.026,0.098-0.031,0.201-0.064,0.296c-0.036,0.102-0.104,0.19-0.171,0.275
		c-0.137,0.175-0.274,0.351-0.43,0.509c-0.067,0.068-0.142,0.144-0.139,0.24c0.003,0.155,0.213,0.274,0.162,0.42
		c-0.024,0.069-0.099,0.106-0.17,0.125c-0.164,0.043-0.336,0.026-0.505,0.029c-0.03,0-0.064,0.003-0.082,0.027
		s-0.013,0.057-0.013,0.087c0.001,0.11-0.073,0.209-0.162,0.274c-0.089,0.066-0.193,0.107-0.286,0.166
		c-0.265,0.165-0.435,0.472-0.437,0.784c-0.288,0.139-0.599,0.282-0.887,0.421c0.085,0.207-0.062,0.475-0.283,0.514
		c-0.066,0.011-0.135,0.006-0.198,0.027c-0.068,0.023-0.122,0.075-0.173,0.125c-0.183,0.178-0.366,0.357-0.548,0.535
		c-0.072,0.07-0.144,0.193-0.067,0.258c-0.337,0.085-0.611,0.495-0.422,0.787c0.071,0.11,0.189,0.178,0.302,0.242
		c0.276,0.156,0.553,0.313,0.829,0.469c0.047,0.135,0.095,0.27,0.142,0.404c0.214-0.122,0.523-0.227,0.673-0.032
		c0.165,0.214-0.053,0.584,0.139,0.774c0.041,0.041,0.096,0.065,0.147,0.092c0.447,0.237,0.702,0.716,0.929,1.168
		c0.03,0.06,0.061,0.127,0.044,0.191c-0.012,0.044-0.045,0.079-0.068,0.118c-0.138,0.235,0.097,0.513,0.324,0.663
		c0.227,0.151,0.504,0.343,0.471,0.614c-0.042,0.338-0.548,0.479-0.564,0.819c-0.009,0.193,0.15,0.35,0.309,0.459
		c0.249,0.171,0.53,0.297,0.824,0.367l-0.075,1.153l0.629,0.642l-1.244,1.914l0.232,0.437l1.271,0.847l-0.177,0.374
		c-0.137,0.289-0.312,0.61-0.622,0.688c-0.084,0.021-0.175,0.023-0.254,0.058c-0.072,0.031-0.129,0.087-0.185,0.143
		c-0.179,0.176-0.373,0.396-0.332,0.644c0.032,0.192,0.202,0.382,0.115,0.555c-0.074,0.147-0.283,0.165-0.393,0.288
		c-0.107,0.12-0.091,0.301-0.131,0.457c-0.077,0.303-0.368,0.504-0.663,0.608c-0.294,0.105-0.611,0.142-0.897,0.268
		c-0.547,0.241-0.928,0.82-0.931,1.419c-0.001,0.048,0.001,0.099-0.026,0.139c-0.022,0.033-0.059,0.052-0.093,0.072
		c-0.216,0.124-0.379,0.313-0.478,0.542c-0.18,0.005-0.369,0.012-0.523,0.105c-0.077,0.046-0.14,0.112-0.206,0.173
		c-0.243,0.228-0.531,0.419-0.711,0.7c-0.028,0.044-0.054,0.091-0.06,0.142c-0.008,0.067,0.019,0.134,0.053,0.192
		c0.076,0.132,0.193,0.251,0.202,0.402c0.005,0.077-0.021,0.153-0.059,0.22c-0.214,0.379-0.767,0.442-1.009,0.804
		c-0.134,0.2-0.176,0.496-0.161,0.735c0.219,0.313,0.438,0.627,0.657,0.941c0.193-0.164,0.544-0.053,0.607,0.193
		c0.033,0.129-0.004,0.268,0.022,0.399c0.05,0.251,0.366,0.409,0.597,0.298c-0.145,0.428-0.29,0.856-0.436,1.284
		c-0.033,0.099-0.067,0.198-0.078,0.301c-0.009,0.087-0.003,0.176,0.006,0.264c0.04,0.401,0.107,0.85-0.139,1.169
		c-0.169,0.219-0.475,0.36-0.51,0.635c-0.024,0.191,0.075,0.447-0.094,0.54c-0.101,0.056-0.24-0.001-0.336,0.062
		c-0.078,0.051-0.098,0.159-0.169,0.22c-0.112,0.096-0.28,0.03-0.427,0.031c-0.493,0.004-0.716,0.768-1.209,0.772
		c-0.151,0.001-0.292-0.074-0.442-0.084c-0.118-0.008-0.234,0.024-0.348,0.054c-0.877,0.225-1.784,0.305-2.685,0.384
		c-0.277,0.024-0.56,0.048-0.832-0.012c-0.298-0.067-0.564-0.231-0.856-0.321c-0.876-0.27-1.92,0.136-2.693-0.356
		c-0.103-0.065-0.199-0.146-0.316-0.176c-0.097-0.025-0.198-0.014-0.298-0.015c-0.436-0.005-0.829-0.244-1.229-0.42
		c-0.057-0.025-0.121-0.05-0.181-0.031c-0.067,0.021-0.107,0.088-0.164,0.127c-0.18,0.122-0.442-0.07-0.637,0.026
		c-0.17,0.083-0.178,0.316-0.19,0.505c-0.012,0.189-0.118,0.426-0.305,0.401c-0.065,0.183,0.087,0.294,0.171,0.47
		c0.097,0.2,0.241,0.377,0.417,0.514c0.054,0.042,0.114,0.084,0.137,0.148c0.033,0.092-0.023,0.195-0.004,0.291
		c0.035,0.176,0.275,0.215,0.391,0.353c0.123,0.147,0.077,0.365,0.09,0.557c0.028,0.413,0.404,0.772,0.818,0.781
		c0.122,0.003,0.25-0.02,0.36,0.031c0.069,0.032,0.124,0.09,0.194,0.118c0.084,0.034,0.178,0.023,0.268,0.01
		c0.089-0.012,0.183-0.026,0.268,0.006c0.085,0.032,0.178,0.129,0.172,0.219c-0.009,0.147-0.018,0.297,0.017,0.44
		c0.035,0.144,0.121,0.281,0.255,0.343c0.085,0.039,0.187,0.048,0.253,0.113c0.073,0.073,0.075,0.19,0.064,0.292
		c-0.016,0.157-0.049,0.312-0.098,0.461c-0.045,0.137-0.103,0.271-0.12,0.413c-0.017,0.143,0.016,0.301,0.126,0.394
		c0.087,0.074,0.218,0.105,0.266,0.209c0.044,0.095-0.042,0.217-0.021,0.319c0.118,0.124,0.333,0.131,0.425,0.274
		c0.043,0.068,0.051,0.158,0.108,0.216c0.048,0.049,0.12,0.063,0.185,0.085c0.235,0.08,0.413,0.305,0.437,0.552
		c0.015,0.158-0.025,0.329,0.05,0.469c0.032,0.06,0.084,0.11,0.105,0.174c0.026,0.08-0.003,0.175-0.069,0.226
		c-0.033,0.026-0.073,0.041-0.11,0.06c-0.094,0.048-0.173,0.12-0.25,0.192c-0.195,0.18-0.389,0.36-0.584,0.54
		c-0.152,0.14-0.304,0.281-0.438,0.438c-0.068,0.08-0.132,0.165-0.212,0.234c-0.169,0.147-0.405,0.218-0.621,0.279
		c-0.155-0.048-0.31-0.096-0.465-0.144c-0.018-0.006-0.038-0.012-0.056-0.005c-0.02,0.007-0.031,0.028-0.041,0.046
		c-0.132,0.254-0.264,0.508-0.396,0.762c-0.047,0.091-0.099,0.187-0.187,0.239c-0.081,0.048-0.18,0.053-0.275,0.056
		c-0.126,0.004-0.252,0.007-0.378,0.011c-0.099,0.003-0.213,0.014-0.269,0.095c-0.026,0.038-0.035,0.086-0.054,0.128
		c-0.051,0.115-0.176,0.179-0.298,0.212c-0.35,0.094-0.747-0.01-1.004-0.265c-0.063-0.062-0.127-0.137-0.214-0.144
		c-0.035-0.003-0.07,0.006-0.104,0.016c-0.117,0.032-0.233,0.069-0.347,0.112c-0.08,0.03-0.161,0.064-0.217,0.128
		c-0.056,0.063-0.079,0.163-0.03,0.232l-1.644-0.164l-0.918,1.011l-0.015,1.58c-0.067,0.1,0.019,0.236,0.123,0.297
		c0.104,0.06,0.23,0.088,0.314,0.174c-0.194,0.095-0.388,0.191-0.582,0.286c-0.104,0.051-0.213,0.106-0.279,0.202
		c-0.094,0.136-0.089,0.336-0.219,0.44c-0.137,0.11-0.365,0.056-0.488,0.182c-0.079,0.081-0.084,0.207-0.083,0.321
		c0.001,0.149,0.016,0.324,0.144,0.401c0.116,0.07,0.312,0.05,0.343,0.182c0.009,0.039-0.002,0.08-0.01,0.119
		c-0.056,0.27,0.044,0.566,0.252,0.747c-0.047,0.102-0.195,0.087-0.297,0.134c-0.108,0.05-0.162,0.169-0.204,0.28
		c-0.108,0.285-0.188,0.569-0.259,0.866l-1.242,0.474l-0.457,0.984l0.475,1.294l-0.055,2.989l0.564,2.709
		c-0.242-0.068-0.487,0.087-0.68,0.248c-0.488,0.405-0.9,0.904-1.217,1.453l-0.055,0.492h-0.274l-0.055,0.583l-1.26,1.112
		l-0.621-0.292l-0.11,0.529l-0.84,0.036l-0.183,0.219l-0.731-0.419l-0.036-0.547l-0.621-0.383L95.8,84.52
		c-0.031-0.091,0.012-0.194-0.02-0.284c-0.04-0.112-0.178-0.155-0.297-0.151c-0.119,0.004-0.238,0.039-0.356,0.019
		c-0.377-0.065-0.467-0.617-0.823-0.756c-0.466,0.257-0.931,0.514-1.397,0.77c-0.05,0.027-0.105,0.062-0.116,0.117
		c-0.019,0.095,0.098,0.157,0.194,0.173c0.392,0.065,0.79-0.064,1.188-0.056c0.032,0.001,0.067,0.003,0.091,0.025
		c0.026,0.024,0.031,0.064,0.03,0.1c-0.001,0.183-0.099,0.392-0.28,0.417c-0.185,0.026-0.329-0.146-0.488-0.244
		c-0.136-0.084-0.296-0.117-0.453-0.148c-0.528-0.106-1.061-0.212-1.6-0.207c-0.124,0.001-0.249,0.008-0.37-0.016
		c-0.122-0.024-0.241-0.086-0.306-0.191c-0.077-0.125-0.096-0.243-0.078-0.389l-0.699-0.123l-0.301-0.274l-1.137,1.845l-0.808,0.601
		l-1.699,0.424l-1.572,1.338c-0.282,0.085-0.613-0.041-0.767-0.291c-0.031,0.139-0.185,0.217-0.326,0.222
		c-0.142,0.004-0.279-0.045-0.419-0.07c0.163,0.281,0.279,0.589,0.342,0.907c0.036,0.181,0.062,0.381,0.197,0.507
		c0.062,0.057,0.144,0.097,0.179,0.173c0.018,0.039,0.023,0.087,0.056,0.114c0.025,0.02,0.058,0.022,0.09,0.023
		c0.2,0.006,0.402-0.031,0.587-0.108c0.227-0.094,0.471-0.25,0.699-0.157c0.141,0.058,0.231,0.204,0.263,0.354
		c0.031,0.15,0.013,0.304-0.005,0.456c-0.008,0.065-0.016,0.132-0.047,0.19c-0.068,0.129-0.226,0.181-0.371,0.195
		c-0.145,0.014-0.296,0.002-0.433,0.052c-0.164,0.059-0.284,0.198-0.408,0.32c-0.124,0.123-0.272,0.208-0.437,0.263
		c-0.603,0.2-1.206,0.401-1.809,0.601c-0.256,0.085-0.513,0.17-0.776,0.231c-0.502,0.116-1.019,0.142-1.534,0.168
		c-0.004-0.15-0.176-0.24-0.326-0.248c-0.15-0.009-0.304,0.031-0.45-0.009c-0.268-0.072-0.461-0.395-0.734-0.348
		c-0.15,0.026-0.253,0.157-0.367,0.258c-0.113,0.101-0.292,0.176-0.41,0.081c-0.091-0.072-0.109-0.219-0.214-0.267
		c-0.072-0.032-0.178-0.018-0.207-0.091c-0.015-0.039,0.004-0.083,0.023-0.121c0.063-0.124,0.125-0.248,0.188-0.373
		c0.019-0.037,0.038-0.077,0.037-0.118c-0.002-0.076-0.07-0.132-0.139-0.166c-0.193-0.094-0.424-0.08-0.63-0.02
		c-0.206,0.06-0.396,0.164-0.593,0.25c-0.227,0.099-0.465,0.175-0.707,0.225c-0.146,0.03-0.309,0.061-0.394,0.182
		c-0.058,0.083-0.066,0.19-0.096,0.287c-0.116,0.379-0.68,0.615-1.002,0.384l-0.529,1.777l-1.165,1.189l-2.096,0.546l-0.916,3.388
		c-0.077,0.271-0.153,0.542-0.23,0.813c-0.059,0.21-0.119,0.423-0.118,0.64c0.001,0.218,0.072,0.445,0.236,0.589
		c0.112,0.099,0.257,0.151,0.38,0.235c0.123,0.085,0.228,0.228,0.194,0.373c-0.028,0.119-0.144,0.234-0.09,0.343
		c0.014,0.028,0.037,0.05,0.06,0.07c0.098,0.086,0.216,0.187,0.203,0.317c-0.009,0.092-0.084,0.164-0.117,0.25
		c-0.031,0.08-0.024,0.17-0.042,0.254c-0.021,0.102-0.077,0.193-0.117,0.289c-0.04,0.096-0.077,0.221-0.035,0.316
		c-0.092,0.586-0.186,1.173-0.358,1.741s-0.445,1.143-0.831,1.594l1.598,1.303l-1.416,1.549l-12.905,4.018l-1.004,0.019
		l-5.025-0.652c-0.036,0.158-0.221,0.235-0.383,0.241c-0.163,0.006-0.329-0.033-0.486,0.008c-0.132,0.034-0.25,0.125-0.315,0.245
		c-0.081-0.082-0.215-0.068-0.329-0.05c-0.166,0.028-0.334,0.056-0.486,0.129c-0.083,0.04-0.161,0.092-0.25,0.116
		c-0.094,0.025-0.194,0.014-0.292,0.012c-0.25-0.007-0.485,0.139-0.736,0.139l-0.356,0.478l-0.616,0.027l-0.384,0.615l0.269,0.351
		l-0.438,0.401l-0.822-0.401l-5.352-1.039l-2.612,0.237v0.273l-1.954-0.055l-8.055,0.747L8,109.084l3.215,4.119l1.79,1.877
		l0.253,0.067c0.152,0.182,0.314,0.416,0.228,0.637c-0.039,0.1-0.122,0.176-0.168,0.272c-0.085,0.182-0.019,0.402,0.094,0.569
		c0.113,0.166,0.267,0.301,0.385,0.464c0.174,0.243,0.259,0.55,0.233,0.848c-0.011,0.123-0.033,0.264,0.05,0.355
		c0.123,0.133,0.36,0.04,0.511,0.139c0.226,0.147,0.092,0.582,0.332,0.704c0.054,0.028,0.12,0.034,0.162,0.078
		c0.075,0.081,0.004,0.215-0.086,0.278s-0.205,0.104-0.255,0.203c0.171,0.001,0.362,0.059,0.533,0.06l1.449,2.939l2.879,2.803
		l1.256,0.638l4.212,1.238l0.947,0.599l0.251,0.619l0.947,0.928l2.183-0.406l-0.367,3.267l0.74,3.268
		c0.064,1.135,0.127,2.27,0.191,3.405c0.012,0.208,0.022,0.421-0.044,0.618c-0.067,0.197-0.205,0.36-0.32,0.534
		s-0.28,0.422-0.18,0.605c0.111,0.205,0.341,0.486,0.366,0.715c0.041,0.368-0.212,0.488-0.491,0.604
		c0.252,0.553,1.142,0.662,1.669,0.615c0.26-0.023,0.544-0.144,0.782-0.254c0.277-0.128,0.304-0.172,0.614-0.172
		c0.239,0,0.482,0.013,0.721,0.001c0.234-0.012,0.378-0.122,0.586-0.175c0.302-0.078,0.355-0.018,0.546,0.166
		c0.186,0.179,0.371,0.214,0.579,0.333c0.137,0.078,0.183,0.257,0.25,0.418c0.059,0.143,0.188,0.307,0.224,0.453
		c0.057,0.234-0.044,0.219-0.207,0.257c-0.264,0.062-0.457,0.191-0.523,0.473c-0.11,0.468-0.113,1.018-0.09,1.504
		c0.012,0.269,0.175,1.425-0.098,1.537c-0.113,0.046-0.345,0.005-0.446,0.132c-0.118,0.147,0.014,0.413,0.002,0.585
		c-0.016,0.223-0.075,0.418-0.055,0.654c0.018,0.216,0.18,0.897-0.013,1.048c-0.096,0.075-0.418,0.041-0.541,0.051
		c-0.226,0.02-0.552-0.038-0.745,0.071c-0.229,0.13-0.221,0.266-0.535,0.158c-0.306-0.106-0.478-0.166-0.803-0.166
		c-0.506,0-1.115,0.092-1.604-0.036c-0.212-0.056-0.248-0.135-0.447-0.041c-0.105,0.05-0.175,0.124-0.249,0.212
		c-0.097,0.115-0.132,0.2-0.279,0.233c-0.207,0.048-0.462-0.007-0.675,0.014c-0.278,0.027-0.403,0.171-0.644,0.294
		c-0.481,0.248-0.921,0.161-1.454,0.212c-0.344,0.033-0.536,0.325-0.878,0.349c-0.352,0.025-0.525,0.08-0.806,0.337
		c-0.122,0.111-0.134,0.223-0.189,0.363c-0.097,0.246-0.204,0.313-0.41,0.466c0.042,0.192,0.015,0.455,0.105,0.632
		c0.166,0.327,0.059,0.223-0.145,0.422c-0.184,0.179-0.006,0.464-0.345,0.472c-0.058,0.171-0.237,0.611-0.191,0.763
		c-0.394-0.057-0.789-0.116-1.179-0.194c0.034,0.007-0.202-0.019-0.245-0.065c-0.029-0.031-0.025-0.084-0.039-0.121
		c-0.053-0.132-0.024-0.189-0.121-0.29c-0.08-0.083-0.145-0.094-0.255-0.128c-0.255-0.08-0.265-0.066-0.432,0.118
		c-0.216,0.237-0.488,0.425-0.719,0.641c-0.163,0.152-0.196,0.202-0.437,0.202c-0.212-0.001-0.244-0.033-0.322,0.149
		c-0.035,0.082-0.034,0.184-0.055,0.269c-0.062,0.25-0.153,0.485-0.204,0.739c-0.089,0.442-0.294,0.857-0.295,1.317
		c-0.001,0.482-0.336,0.967-0.186,1.438c0.058,0.183,0.244,0.406,0.439,0.458c0.068,0.018,0.164-0.039,0.209,0.028
		c0.057,0.084-0.097,0.311-0.157,0.346c-0.117,0.069-0.291-0.041-0.384,0.125c-0.106,0.189,0.077,0.264,0.154,0.382
		c0.137,0.211,0.05,0.639-0.014,0.862c-0.08,0.284-0.28,0.483-0.571,0.496c-0.27,0.013-0.406-0.127-0.653-0.152
		c-0.092,0.177-0.155,0.366-0.274,0.529c-0.132,0.18-0.298,0.349-0.374,0.561l-0.174,4.176l-0.435,1.639
		c0.173,0,0.332,0.006,0.479-0.047c0.086-0.031,0.043-0.074,0.13,0.007c0.048,0.044,0.054,0.115,0.126,0.172
		c0.258,0.206,0.754,0.312,0.758,0.709c0.004,0.312-0.396,0.687-0.072,0.933c0.197,0.149,0.543,0.064,0.775,0.039
		c0.365-0.04,0.475-0.074,0.531-0.445c0.031-0.198,0.066-0.371,0.241-0.483c0.277-0.177,0.689-0.14,1-0.131
		c0.253,0.008,0.505,0.025,0.756,0.044c0.135,0.01,0.311,0.047,0.438-0.008c-0.002-0.239-0.171-0.339-0.219-0.547
		c-0.039-0.17,0.09-0.33,0.195-0.447c0.337-0.37,0.96-0.346,1.426-0.347c0.259,0,0.351,0.062,0.575,0.173
		c0.16,0.079,0.33,0.138,0.445,0.282c0.125,0.157,0.13,0.365,0.125,0.559c-0.005,0.234-0.105,0.226-0.286,0.275
		c-0.193,0.052-0.187,0.241,0.012,0.262c0.187,0.02,0.388,0,0.575,0c0.103,0,0.204,0.023,0.286-0.051
		c-0.203-0.298-0.388-0.396-0.267-0.778c0.115-0.364,0.442-0.496,0.784-0.581c0.149-0.037,0.347-0.057,0.478-0.128
		c0.113-0.061,0.138-0.156,0.196-0.268c0.053-0.103,0.102-0.214,0.212-0.269c0.272-0.135,0.721-0.086,1.023-0.086
		c0.833,0.001,1.653,0.166,2.485,0.231c0.763,0.06,1.496,0.408,2.268,0.406c0.277,0,0.408-0.056,0.653-0.19
		c0.193-0.107,0.401-0.186,0.62-0.231c0.535-0.11,1.051-0.077,1.559,0.102c0.3,0.106,0.682,0.093,0.998,0.115
		c0.305,0.021,0.532,0.129,0.828,0.204c0.17,0.043,0.596,0.16,0.744,0.052c0.162-0.119,0.018-0.28-0.06-0.407
		c-0.354-0.579,0.164-0.996,0.69-1.2c0.394-0.153,0.738-0.378,1.174-0.416c0.534-0.046,1.041,0.043,1.562,0.129
		c0.096,0.015,0.157,0.052,0.245,0.08c0.138,0.043,0.292,0.056,0.435,0.076c0.318,0.045,0.638,0.06,0.958,0.108
		c0.411,0.061,0.806,0.142,1.231,0.142c0.568,0,1.149-0.012,1.712,0.043c0.635,0.062,1.157,0.494,1.72,0.747
		c0.208,0.093,0.383,0.268,0.609,0.312c0.284,0.055,0.502-0.159,0.767-0.218c0.383-0.085,0.756-0.12,1.104,0.086
		c0.241,0.142,0.426,0.328,0.345,0.644c-0.037,0.143-0.161,0.233-0.169,0.39c-0.011,0.203,0.108,0.237,0.29,0.165
		c0.106-0.041,0.181-0.145,0.286-0.181c0.071-0.024,0.18-0.014,0.254-0.017c0.139-0.005,0.232-0.002,0.357-0.066
		c-0.144-0.252-0.688-0.632-0.642-0.962c0.039-0.277,0.618-0.39,0.828-0.47c0.358-0.138,0.719-0.22,1.102-0.241
		c0.728-0.041,1.538,0.025,2.266,0.06c0.592,0.028,1.207,0.118,1.807,0.027c0.232-0.035,0.408-0.067,0.564-0.261
		c0.199-0.247,0.202-0.514,0.55-0.608c0.478-0.129,1.138-0.12,1.636-0.148c0.586-0.033,1.14,0.093,1.702,0.233
		c0.41,0.103,0.691,0.279,1.113,0.167c0.341-0.09,0.779-0.096,1.077-0.287c0.348-0.223,0.434-0.372,0.877-0.408
		c0.323-0.026,0.644-0.022,0.967-0.022c0.519,0,0.979-0.007,1.467-0.173c0.606-0.207,1.115-0.247,1.755-0.261
		c0.497-0.011,1.254-0.227,1.73-0.081c0.229,0.071,0.436,0.282,0.672,0.369c0.244,0.09,0.517,0.133,0.761,0.226
		c0.49,0.186,0.671,0.779,1.044,1.145c0.434,0.425,1.255,0.716,1.47,1.308c0.085,0.233,0.122,0.653,0.036,0.88
		c-0.06,0.157-0.203,0.218-0.288,0.348c-0.146,0.224-0.132,0.363-0.122,0.649c0.011,0.316,0.121,0.741,0.062,1.052
		c-0.026,0.137-0.177,0.219-0.209,0.33c-0.055,0.192,0.006,0.155,0.06,0.333c0.095,0.314,0.096,0.364-0.037,0.634
		c-0.077,0.157-0.173,0.233-0.131,0.429c0.664,0.093,1.223-0.025,1.87-0.109c0.309-0.04,0.619-0.002,0.874,0.157
		c0.145,0.09,0.23,0.202,0.411,0.249c0.212,0.055,0.429-0.015,0.63,0.066c0.258,0.103,0.374,0.444,0.585,0.565
		c0.25,0.143,0.458,0.101,0.405-0.249c0.294-0.086,0.632-0.069,0.937-0.131c-0.039,0.091-0.125,0.198-0.124,0.306
		c0.001,0.086,0.095,0.087,0.096,0.129c0.001,0.053-0.024,0.153-0.021,0.195c0.003,0.048-0.084,0.08-0.079,0.132
		c0.004,0.058,0.074,0.107,0.08,0.147c0.017,0.115,0.096,0.109,0.07,0.247c-0.016,0.085-0.154,0.207-0.176,0.349
		c-0.051,0.337,0.158,0.571,0.493,0.348c0.138,0.185,0.134,0.801,0.496,0.706c-0.528,0.097-0.398,0.621,0.068,0.623
		c0.032,0.257-0.225,0.434-0.061,0.661c0.115,0.16,0.429,0.221,0.603,0.18c0.004,0.075-0.002,0.178-0.033,0.25
		c-0.046,0.105-0.046,0.348,0,0.45c0.11,0.244,0.152,0.077,0.368,0.04c0.127-0.022,0.218-0.108,0.266,0.146
		c0.029,0.156-0.118,0.249-0.027,0.46c-0.201,0.133-0.477,0.039-0.65,0.236c-0.113,0.128-0.153,0.409-0.117,0.57
		c0.08,0.354,0.443,0.479,0.742,0.599c-0.605,0.029-0.259,0.609-0.148,0.941c0.065,0.196,0.048,0.455,0.152,0.635
		c0.082,0.142,0.261,0.214,0.371,0.323c0.039,0.038,0.142,0.084,0.161,0.137c0.046,0.13-0.083,0.162-0.079,0.272
		c0.011,0.265,0.164,0.357,0.366,0.378c0.128,0.013,0.203-0.184,0.293-0.012c0.04,0.076-0.083,0.234-0.084,0.315
		c-0.008,0.376,0.237,0.41,0.592,0.394c-0.076,0.255-0.239,0.313-0.034,0.496c0.105,0.093,0.332,0.147,0.467,0.218
		c0.266,0.142,0.523,0.348,0.784,0.48c0.046-0.145-0.02-0.299,0.141-0.377c0.343,0.232-0.106,0.755,0.386,0.897
		c0.28,0.081,0.574,0.074,0.603-0.256c0.229-0.045,0.345,0.165,0.543,0.201c0.217,0.038,0.164,0.004,0.324-0.147
		c0.166-0.158,0.285-0.316,0.347-0.545c0.039-0.144,0.016-0.306,0.057-0.448c0.085-0.294,0.205-0.231,0.425-0.383
		c0.081-0.056,0.248-0.332,0.356-0.274c0.189,0.102-0.077,0.48-0.135,0.59c-0.088,0.167-0.195,0.356-0.125,0.545
		c0.099,0.267,0.315,0.181,0.49,0.289c0.359,0.223,0.311,0.955,0.787,0.951c0.53-0.004,0.437-0.567,0.436-0.924
		c0-0.187-0.066-0.613,0.204-0.663c0.227-0.042,0.116,0.398,0.269,0.527c0.143,0.12,0.377,0.06,0.531,0.062
		c0.142,0.002,0.315,0.05,0.457,0.043c0.275-0.014,0.376-0.254,0.556-0.428c0.136-0.132,0.336-0.287,0.509-0.363
		c0.056-0.024,0.15,0.067,0.186,0.05c0.079-0.036,0.11-0.128,0.179-0.168c0.077-0.043,0.191-0.078,0.259-0.119
		c0.181-0.109,0.061-0.024,0.227-0.15c-0.006-0.13,0.164-0.205,0.274-0.218h4.425l0.193-4.002c0.161,0,0.242-0.096,0.407-0.097
		c0.244-0.001,0.195,0.103,0.269,0.309c0.06,0.167,0.146,0.333,0.194,0.503c0.038,0.135,0.054,0.28,0.158,0.384
		c0.271-0.195,0.105-0.49,0.253-0.721c0.07-0.108,0.453-0.436,0.606-0.416c0.303,0.042,0.438,1.299,0.887,0.848
		c0.244-0.244-0.101-0.511-0.069-0.799c0.138-0.027,0.279-0.013,0.411-0.05c0.159-0.044,0.342-0.115,0.511-0.132
		c0.146-0.015,0.268,0.027,0.373,0.132c0.149,0.149,0.053,0.282,0.115,0.452c0.099,0.274,0.519,0.334,0.762,0.243
		c0.184-0.069,0.361-0.152,0.551-0.207c0.198-0.057,0.454-0.201,0.658-0.179l2.338,0.039l0.753-0.29l1.546,1.508h3.323
		c0.069-0.145,0.34-0.256,0.302-0.442c-0.207-0.012-0.401,0.008-0.596-0.042c-0.417-0.106-0.035-0.197,0.106-0.343
		c0.153-0.158-0.039-0.315,0.149-0.464c0.19-0.151,0.499-0.146,0.728-0.177c0.177-0.024,0.366-0.03,0.54-0.058
		c0.166-0.027,0.293-0.131,0.447-0.199c0.288-0.127,0.584-0.226,0.888-0.296c0.43-0.099,0.896,0.017,1.293-0.183
		c0.318-0.16,0.593-0.38,0.942-0.46c0.22-0.05,0.399-0.097,0.608-0.189c0.229-0.101,0.755-0.368,0.909-0.07
		c0.144,0.277-0.218,0.575-0.388,0.722c0.042,0.245,0.23,0.382,0.233,0.652c0.002,0.196-0.086,0.36-0.097,0.544
		c0.368,0.134,0.726,0.204,1.106,0.31c0.19,0.053,0.373,0.152,0.575,0.154c0.17,0.002,0.327-0.046,0.49-0.077
		c0.299-0.058,0.593-0.131,0.89-0.173c0.208-0.03,0.648-0.004,0.61-0.325c-0.028-0.235-0.237-0.112-0.092-0.358
		c0.138-0.234,0.438-0.46,0.646-0.63c0.106-0.087,0.283-0.269,0.44-0.204c0.195,0.081,0.144,0.262,0.42,0.179
		c0.219-0.065,0.295-0.287,0.475-0.419c0.132-0.096,0.278-0.09,0.411-0.163c0.143-0.079,0.184-0.258,0.03-0.391
		c-0.14-0.121-0.421-0.069-0.591-0.069c-0.178,0-0.29-0.036-0.449-0.077c-0.238-0.061-0.516,0.01-0.741-0.097
		c-0.218-0.104-0.284-0.366-0.437-0.541c-0.188-0.218-0.463-0.357-0.661-0.559c0.126-0.139,0.316-0.205,0.494-0.239
		c0.224-0.043,0.248-0.004,0.319,0.213c0.085,0.262,0.148,0.51,0.365,0.7c0.122,0.106,0.379,0.225,0.521,0.103
		c0.248-0.214-0.003-0.653-0.079-0.854c-0.064-0.169-0.053-0.61,0.007-0.784c0.078-0.226,0.409-0.399,0.596-0.555
		c0.165-0.137,0.349-0.269,0.508-0.404l-0.425-0.599l-1.333-2.552l-0.502-2.591l-1.584-1.605l-0.135-0.638l-0.85-0.831l0.135-3.519
		c-0.161-0.25-0.374-0.466-0.696-0.425c-0.262,0.033-0.474,0.241-0.734,0.306c-0.424,0.107-0.913,0.103-1.352,0.119
		c-0.294,0.011-0.5,0.035-0.768-0.09c-0.296-0.138-0.633-0.317-0.972-0.274c-0.049-0.174-0.014-0.469-0.192-0.584l-0.831-0.812
		l-0.908-1.469l-0.097-1.817l0.599-0.87l0.367-1.102l0.019-3.809l-1.352-0.696c-0.455,0-0.862,0.123-1.308,0.216
		c-0.316,0.066-0.646,0.083-0.963-0.003c-0.213-0.058-0.483-0.062-0.682-0.169c-0.241-0.129-0.394-0.364-0.609-0.534
		c-0.221-0.175-0.483-0.312-0.733-0.442c-0.238-0.125-0.469-0.248-0.71-0.366c-0.304-0.149-0.881-0.204-1.048-0.503
		c-0.251-0.45-0.31-0.985-0.188-1.466l0.425-2.475l0.541-1.469l3.381-3.132l0.483-0.754l1.121-0.966l1.179-3.055l1.275-1.412
		l0.695-0.425l0.657-0.735c0.353,0,0.638-0.083,0.965-0.245c0.185-0.092,0.276-0.144,0.464-0.102
		c0.167,0.038,0.344,0.117,0.508,0.174c0.142,0.05,0.338,0.046,0.458,0.135l1.024,1.083l0.077,1.276l0.831,1.315
		c0.275,0,0.559,0.072,0.845,0.111c0.248,0.033,0.467,0.101,0.72,0.102l0.85-0.309l2.724-1.334l1.758-0.425l3.42-0.135l2.474-1.044
		l0.309-2.107l1.005-1.257l1.468-1.276l0.676-0.909l0.986-3.403l1.256-1.527l3.671-2.05l2.338-1.005l0.58-1.547l1.063-1.276
		l2.164-4.408l1.171-4.497l4.524-1.599l1.941-1.599l-0.274-1.107l-0.765-1.052l0.951-0.998l-0.472-0.041l0.096-0.567l0.315,0.321
		c0.045-0.294,0.269-0.539,0.487-0.742c0.025-0.023,0.053-0.048,0.087-0.049c0.023-0.001,0.046,0.009,0.068,0.003
		c0.02-0.005,0.035-0.02,0.049-0.036c0.047-0.051,0.094-0.102,0.142-0.154c0.087,0.068,0.196,0.14,0.3,0.104
		c0.046-0.016,0.083-0.052,0.118-0.087c0.046-0.046,0.092-0.092,0.138-0.137c0.02-0.02,0.041-0.046,0.03-0.072
		c-0.006-0.015-0.022-0.023-0.034-0.034c-0.055-0.051-0.02-0.143,0.025-0.204c0.045-0.06,0.1-0.132,0.074-0.202
		c-0.024-0.064,0.017-0.171,0.054-0.229c0.037-0.057,0.111-0.098,0.175-0.075c0.017-0.074,0.034-0.148,0.051-0.223
		c0.005-0.019,0.01-0.04,0.026-0.051c0.017-0.012,0.039-0.011,0.06-0.012c0.121-0.001,0.23-0.072,0.325-0.147
		c0.25-0.196,0.464-0.436,0.629-0.706c0.094-0.154,0.191-0.332,0.366-0.379c0.072-0.019,0.149-0.013,0.223-0.026
		c0.074-0.013,0.151-0.058,0.166-0.131c0.017-0.086-0.055-0.16-0.114-0.226c-0.059-0.065-0.109-0.168-0.052-0.234
		c0.037-0.043,0.101-0.046,0.156-0.061c0.221-0.059,0.316-0.318,0.346-0.545c0.017-0.133,0.039-0.291,0.159-0.351
		c0.04-0.02,0.085-0.025,0.129-0.029c0.167-0.019,0.334-0.037,0.502-0.055c-0.128-0.098-0.231-0.271-0.226-0.432
		c0.001-0.036,0.007-0.075,0.032-0.101c0.021-0.022,0.052-0.032,0.081-0.04c0.174-0.051,0.348-0.102,0.522-0.153
		c0.042-0.073-0.068-0.149-0.067-0.233c0.001-0.099,0.134-0.124,0.225-0.162c0.103-0.043,0.175-0.134,0.244-0.221
		c0.069-0.087,0.144-0.177,0.247-0.216c0.104-0.039,0.244-0.005,0.282,0.099c0.13-0.061,0.254-0.134,0.37-0.217
		c0.038-0.027,0.077-0.058,0.096-0.101c0.02-0.048,0.013-0.102,0.01-0.153c-0.012-0.224,0.083-0.452,0.251-0.601
		c0.018-0.016,0.039-0.032,0.063-0.034c0.039-0.003,0.07,0.031,0.101,0.055c0.126,0.099,0.308,0.063,0.463,0.021
		c0.122-0.033,0.243-0.065,0.365-0.098c0.108-0.029,0.22-0.06,0.304-0.134c0.186-0.165,0.155-0.467,0.051-0.694
		c-0.019-0.042-0.041-0.084-0.071-0.12c-0.074-0.089-0.199-0.134-0.313-0.112c-0.114,0.022-0.212,0.111-0.247,0.221
		c-0.041-0.09-0.118-0.162-0.211-0.196c-0.13,0.1-0.208,0.266-0.201,0.43c0.002,0.04,0.003,0.09-0.032,0.11
		c-0.023,0.014-0.053,0.007-0.079,0.007c-0.079,0.001-0.15,0.068-0.228,0.054c-0.091-0.016-0.127-0.128-0.129-0.22
		c-0.002-0.092,0.008-0.196-0.054-0.265c-0.042-0.047-0.108-0.064-0.165-0.092c-0.258-0.128-0.318-0.475-0.273-0.76
		c0.045-0.285,0.161-0.566,0.127-0.852c-0.017-0.144-0.061-0.32,0.052-0.411c0.08-0.064,0.144-0.159,0.096-0.25
		c-0.018-0.033-0.047-0.061-0.058-0.097c-0.016-0.051,0.008-0.105,0.031-0.153c0.096-0.2,0.191-0.4,0.286-0.599
		c0.127-0.265,0.289-0.56,0.575-0.626c0.138-0.032,0.308-0.015,0.391-0.13c0.07-0.098,0.031-0.232-0.011-0.345
		c-0.073-0.196-0.16-0.409-0.346-0.503c-0.077-0.039-0.166-0.054-0.237-0.103c-0.071-0.049-0.117-0.154-0.063-0.221
		c0.025-0.031,0.065-0.046,0.101-0.063c0.274-0.133,0.36-0.543,0.164-0.775c-0.163-0.193-0.46-0.252-0.585-0.471
		c-0.062-0.11-0.069-0.242-0.099-0.365c-0.045-0.189-0.146-0.364-0.285-0.5c-0.061-0.06-0.131-0.113-0.179-0.185
		c-0.048-0.071-0.073-0.167-0.034-0.243c0.056-0.11,0.22-0.147,0.244-0.267c0.136-0.673,0.406-1.356,0.821-1.902
		c0.045-0.06,0.098-0.12,0.17-0.141c0.105-0.032,0.234,0.023,0.322-0.042c0.084-0.062,0.078-0.194,0.147-0.272
		c0.104-0.116,0.297-0.047,0.45-0.084c0.228-0.055,0.327-0.337,0.539-0.439c0.134-0.064,0.291-0.046,0.44-0.05
		c0.149-0.004,0.317-0.045,0.387-0.176c0.047-0.088,0.038-0.196,0.072-0.289c0.031-0.087,0.098-0.156,0.162-0.222
		c0.228-0.234,0.463-0.473,0.758-0.613c0.168-0.079,0.377-0.12,0.531-0.018c0.069,0.046,0.118,0.115,0.184,0.164
		c0.192,0.146,0.47,0.094,0.687-0.012c0.217-0.106,0.416-0.259,0.653-0.307c0.106-0.022,0.218-0.021,0.32-0.06
		c0.07-0.027,0.135-0.073,0.211-0.08c0.187-0.018,0.377,0.206,0.531,0.099c0.093-0.065,0.086-0.201,0.084-0.315
		c-0.002-0.114,0.043-0.259,0.157-0.264c0.112-0.005,0.17,0.129,0.263,0.191c0.126,0.085,0.309,0.017,0.4-0.105
		c0.091-0.122,0.115-0.281,0.135-0.431c0.013-0.096,0.044-0.186,0.131-0.23c0.05-0.026,0.108-0.033,0.163-0.044
		c0.187-0.038,0.358-0.128,0.527-0.217c0.031-0.016,0.062-0.033,0.082-0.061c0.042-0.059,0.017-0.143-0.029-0.199
		c-0.046-0.056-0.11-0.095-0.157-0.149c-0.03-0.035-0.054-0.079-0.046-0.125c0.007-0.041,0.039-0.072,0.072-0.098
		c0.079-0.06,0.172-0.1,0.246-0.166c0.074-0.066,0.127-0.173,0.086-0.264c-0.071-0.163-0.354-0.132-0.423-0.294
		c-0.034-0.081,0.002-0.173-0.009-0.26c-0.009-0.077-0.054-0.144-0.098-0.208c-0.097-0.141-0.193-0.282-0.29-0.423
		c-0.107-0.156-0.218-0.316-0.375-0.422c-0.187-0.126-0.417-0.162-0.637-0.21c-0.027-0.006-0.056-0.013-0.076-0.032
		c-0.071-0.065,0.002-0.218-0.082-0.265c-0.171,0.045-0.342,0.09-0.513,0.135c-0.025,0.007-0.051,0.013-0.075,0.003
		c-0.019-0.008-0.033-0.026-0.045-0.043c-0.15-0.224-0.156-0.549-0.378-0.701c-0.069-0.047-0.151-0.071-0.229-0.098
		c-0.217-0.075-0.422-0.184-0.605-0.322c-0.085,0.281-0.341,0.486-0.62,0.576c-0.149,0.048-0.341,0.054-0.433-0.073
		c-0.021-0.029-0.035-0.062-0.06-0.086c-0.082-0.076-0.214-0.01-0.324-0.028c-0.116-0.019-0.19-0.127-0.279-0.204
		c-0.238-0.205-0.645-0.164-0.837,0.083c-0.385-0.061-0.734-0.153-1.119-0.215c-0.031-0.005-0.064-0.011-0.089-0.03
		c-0.019-0.015-0.032-0.036-0.042-0.058c-0.077-0.166-0.011-0.376-0.102-0.536c-0.03-0.053-0.075-0.095-0.109-0.145
		c-0.129-0.185-0.106-0.449-0.249-0.623c-0.053-0.064-0.131-0.128-0.118-0.21c0.005-0.033,0.025-0.061,0.045-0.087
		c0.127-0.169,0.284-0.315,0.462-0.43c0.023-0.015,0.048-0.03,0.062-0.053c0.048-0.078-0.037-0.167-0.104-0.23
		c-0.254-0.235-0.344-0.63-0.219-0.952c0.153-0.392,0.308-0.801,0.401-1.212c-0.223,0.024-0.438,0.115-0.611,0.26
		c-0.041,0.034-0.082,0.079-0.078,0.132c0.003,0.03,0.02,0.056,0.032,0.083c0.062,0.133,0.016,0.288-0.03,0.427
		c-0.017,0.051-0.036,0.104-0.072,0.144c-0.076,0.081-0.203,0.081-0.313,0.074c-0.333-0.019-0.666-0.038-1-0.057
		c-0.037-0.002-0.074-0.005-0.108-0.019c-0.035-0.015-0.063-0.042-0.089-0.069c-0.286-0.282-0.587-0.591-0.661-0.986
		c-0.067-0.36-0.181-0.832-0.519-0.974c-0.231-0.097-0.562-0.041-0.675-0.265c-0.032-0.063-0.036-0.136-0.037-0.206
		c-0.003-0.345,0.054-0.73-0.162-0.999c-0.355-0.444-1.176-0.233-1.516-0.689c-0.087-0.118-0.127-0.262-0.178-0.4
		c-0.228-0.62-0.724-1.135-1.335-1.387c-0.087-0.036-0.181-0.07-0.243-0.142c-0.087-0.102-0.084-0.258-0.025-0.379
		c0.058-0.12,0.162-0.212,0.266-0.297c0.504-0.408,1.114-0.745,1.387-1.334c0.112-0.241,0.158-0.509,0.176-0.774
		c0.027-0.381-0.001-0.773-0.141-1.128c-0.14-0.356-0.402-0.673-0.753-0.826c-0.243-0.105-0.521-0.132-0.737-0.283
		c-0.32-0.224-0.413-0.649-0.481-1.034c-0.07-0.393-0.128-0.836,0.108-1.158c-0.078-0.437,0.416-0.804,0.838-0.942
		c0.422-0.138,0.89-0.147,1.275-0.368c0.755-0.431,0.855-1.621,0.257-2.253c-0.598-0.632-1.678-0.659-2.388-0.157
		c-0.102,0.072-0.2,0.155-0.319,0.194c-0.388,0.128-0.778-0.303-0.767-0.712c0.012-0.409,0.283-0.76,0.555-1.065
		c0.336-0.377,0.72-0.858,0.537-1.328c-0.185-0.473-0.897-0.742-0.787-1.238c-0.667,0.327-1.5,0.286-2.133-0.103
		c-0.059-0.396,0.321-0.715,0.683-0.889c0.361-0.174,0.782-0.327,0.953-0.69c0.126-0.269,0.079-0.592,0.197-0.865
		c0.138-0.32,0.495-0.556,0.493-0.905c-0.001-0.174-0.097-0.337-0.105-0.511c-0.024-0.504,0.641-0.74,1.14-0.664
		c0.499,0.076,1.025,0.297,1.485,0.09c0.391-0.176,0.595-0.605,0.913-0.892c0.478-0.431,1.168-0.508,1.809-0.564
		c0.553-0.049,1.138-0.092,1.637,0.153c0.404,0.199,0.702,0.564,1.087,0.798c0.947,0.575,2.204,0.246,3.228,0.669
		c0.246,0.101,0.479,0.247,0.743,0.278c0.261,0.031,0.52-0.053,0.778-0.102c0.594-0.113,1.221-0.041,1.774,0.204
		c-0.072,0.229,0.146,0.453,0.372,0.536c0.226,0.083,0.48,0.093,0.683,0.221c0.163,0.102,0.275,0.27,0.435,0.377
		c0.206,0.137,0.466,0.158,0.713,0.175c1.086,0.073,2.172,0.146,3.258,0.219c0.185,0.012,0.375,0.024,0.553-0.026
		c0.198-0.056,0.365-0.185,0.528-0.311c0.811-0.628,1.621-1.256,2.432-1.884c0.469,0.5,1.301,0.608,1.935,0.348
		c0.141-0.058,0.282-0.142,0.352-0.278c0.047-0.09,0.058-0.194,0.102-0.286c0.155-0.324,0.596-0.339,0.946-0.416
		c0.297-0.066,0.576-0.209,0.802-0.413c0.146-0.131,0.27-0.288,0.435-0.394c0.165-0.106,0.39-0.151,0.554-0.043
		c0.093,0.062,0.154,0.165,0.25,0.221c0.08,0.047,0.176,0.056,0.269,0.065c0.31,0.028,0.621,0.056,0.931,0.084
		c0.261,0.023,0.603-0.006,0.672-0.258c0.022-0.078,0.009-0.162,0.029-0.241c0.058-0.226,0.343-0.302,0.491-0.482
		c0.182-0.222,0.125-0.545,0.123-0.832c-0.002-0.287,0.145-0.645,0.432-0.635c0.12,0.004,0.24,0.075,0.352,0.035
		c0.166-0.059,0.177-0.304,0.32-0.405c0.13-0.092,0.308-0.031,0.454,0.031c0.348,0.149,0.695,0.298,1.043,0.448
		c0.169-0.262,0.228-0.594,0.159-0.899c0.376-0.344,0.759-0.758,1.009-1.203c0.049-0.088,0.098-0.18,0.181-0.237
		c0.172-0.119,0.407-0.041,0.615-0.069c0.409-0.056,0.626-0.495,0.828-0.855c0.174-0.31,0.385-0.6,0.627-0.86
		c0.191-0.206,0.407-0.397,0.664-0.51c0.344-0.15,0.765-0.165,1.022-0.439c0.132-0.141,0.198-0.33,0.304-0.492
		c0.565-0.864,2.027-0.703,2.608-1.556C195.931,34.414,195.636,34.262,195.397,34.347z"/>
</g>
</svg>
