<?xml version="1.0" encoding="utf-8"?>
<!-- Generator: Adobe Illustrator 26.0.3, SVG Export Plug-In . SVG Version: 6.00 Build 0)  -->
<svg version="1.1" xmlns="http://www.w3.org/2000/svg" xmlns:xlink="http://www.w3.org/1999/xlink" x="0px" y="0px"
	 viewBox="0 0 200 200" enable-background="new 0 0 200 200" xml:space="preserve">
<g id="Layer_1">
	<g id="Layer_1_00000075879624959596184900000007102216081240906125_">
		<g id="Layer_1_00000107551159852787612550000017757744099325915571_">
			<g id="Layer_1_00000128480095285341338950000008464522443776971395_">
			</g>
		</g>
	</g>
</g>
<g id="Isolation_Mode">
</g>
<g id="Icon">
	<g>
		<path fill-rule="evenodd" clip-rule="evenodd" fill="#1E8346" d="M174.596,99.753c0-0.736,0-1.471,0-2.207
			c0.105,0.052,0.21,0.105,0.315,0.158c-0.003,1.582,0.474,5.044,0.474,5.044c0,0.105,0,0.21,0,0.315
			c-0.518,0.547,0.109,1.892-0.631,3.153c-0.053,0-0.105,0-0.158,0c0-0.841,0-1.681,0-2.522c-0.474,0-0.947,0-1.421,0
			c0-0.525,0-1.051,0-1.576c-0.789,0-1.578,0-2.368,0c0,0.578,0,1.156,0,1.734c-1.683,0-3.366,0-5.05,0
			c-0.006,0.535-2.52,2.189-4.261,2.207c-0.657-1.224-4.642-1.868-6.313-0.788c0.128-0.981,0.046-1.306-0.315-2.049
			c-9.847,0.808-14.483,1.922-21.148,4.887c-2.324,1.034-4.392,0.118-6.312,0.946c-1.105,0.42-2.21,0.841-3.314,1.261
			c-0.842,0.053-1.683,0.105-2.525,0.158c-1.438,0.963-3.961,2.706-4.735,2.995c-2.152,0.804-6.442,2.437-6.628,4.256
			c-3.465-1.593-2.817-3.954-4.261-6.62c0-0.052,0-0.105,0-0.158c1.678,0.036,3.549,0.154,4.261-0.788
			c-1.057-0.257-2.847-1.985-2.525-3.626c-0.899,0.625-0.561,1.082-1.735,0.946c0.263,0.525,0.526,1.051,0.789,1.577
			c-0.738,0.335-0.805,0.661-1.421,1.103c0.158,1.943,0.315,3.888,0.473,5.832c1.155,0.223,2.364,2.929,2.683,2.837
			c-0.511,1.147-1.565,1.129-2.052,1.577c-3.226,2.967-2.954,0.809-6.312,0.158c-0.053,1.734-0.105,3.468-0.158,5.202
			c-0.158-0.052-0.315-0.105-0.473-0.158c-0.631-0.631-1.263-1.261-1.894-1.892c0.053,0.105,0.105,0.21,0.158,0.316
			c-0.158-0.053-0.316-0.105-0.474-0.158c0.158,0.526,0.316,1.052,0.474,1.577c-2.074-1.029-0.89-2.064-4.262-2.049
			c0.053,0.158,0.105,0.315,0.158,0.473c-0.01,0.771,1.934,2.242,2.841,3.784c-1,0.367-1.999,0.735-2.999,1.103
			c-0.293-0.442-3.787-3.783-3.787-3.783c-1.209-0.603-4.274,0.225-4.734-0.473c-0.46-0.105-0.421-0.315-0.79-0.946
			c-1.004,0.471-2.537,0.7-2.998,1.734c-2.558-0.701-0.716-3.323-5.681-3.31c-0.357-2.34-4.133-1.923-4.892-3.468
			c-0.851,0.402-3.453,4.681-3.788,5.832c-0.053-0.105-0.105-0.21-0.158-0.315c-1.484-0.235-8.979-5.16-10.101-6.463
			c0-0.053,0-0.105,0-0.158c0.7-0.579,1.191-2.31,2.052-2.522c1.343-1.376,3.505,1.77,3.787,2.364
			c0.541-0.179,1.484-0.573,1.578-0.315c0.316,0.368,0.631,0.736,0.947,1.103c0.775-0.316,0.668-0.122,1.578-0.158
			c0.211-0.525,0.421-1.051,0.631-1.576c-1.114-0.198-3.394-1.599-4.261-2.68c0.39-0.462,0.716-1.106,0.631-1.419
			c-0.091-0.637-3.826-5.609-4.419-5.833c-0.105-0.053-0.21-0.105-0.315-0.158c0,0.105,0,0.21,0,0.315
			c0.274,2.184,1.706,2.345,1.894,4.414c-3.067,0.039-9.903-2.258-11.679-1.419c0.057-3.943,1.022-5.944,2.052-7.567
			c-0.263-0.052-0.526-0.104-0.789-0.157c-0.21,0.053-0.421,0.105-0.631,0.157c-0.784,1.714-1.461,3.896-2.052,7.094
			c-0.053-0.105-0.105-0.211-0.158-0.316c-1.218-0.568-2.616-1.531-3.472-2.364c-0.337-0.328-2.515,1.044-1.894,0
			c-1.949,0.54-0.68,1.663-1.894,2.364c-0.353,0.359-0.815,0.344-1.578,0.316c-0.004-0.762,0.149-0.661-0.158-0.946
			c-0.593-0.515-1.8-1.231-2.525-1.261c-0.003,0.483,0.152,0.221-0.158,0.631c0-0.263,0-0.525,0-0.788
			c-0.21,0.053-0.421,0.105-0.631,0.158c0.053,0.105,0.105,0.21,0.158,0.315c-0.313,0.233-0.413,2.263-0.473,2.207
			c-0.482,0.841-2.517,0.965-3.788,0.946c-0.005-1.581,0.032-3.393-0.947-4.099c-0.375,0.328,0.025,0.137-0.473,0.158
			c0.158,1.524,0.316,3.048,0.473,4.572c-0.21,0.052-0.421,0.105-0.631,0.158c-0.263,0.052-0.526,0.105-0.789,0.158
			c-0.495-1.048-2.408-3.53-3.156-3.941c-0.158,0.105-0.316,0.21-0.474,0.315c0.269,2.579,0.252,2.712,1.736,4.098
			c-0.947,0.893-1.894,1.787-2.841,2.68c-0.368-0.315-0.737-0.631-1.105-0.946c-0.647,0.575-0.958,1.18-1.578,0.631
			c-0.925-0.385-2.422-2.369-2.052-3.153c0.105-0.052,0.21-0.105,0.316-0.158c0-0.053,0-0.105,0-0.157
			c-0.421-0.368-0.842-0.736-1.263-1.104c-0.066,0.54,0.019,0.29-0.631,0.316c-0.319-0.442-0.384-0.457-0.474-0.789
			c0.674-0.145,2.381-2.122,3.157-3.153c-0.105-0.21-0.211-0.42-0.316-0.631c-1.307,0.517-1.844,1.506-3.156,2.522
			c-0.377-0.782-0.74-0.801-1.42-1.261c0.158-0.21,0.316-0.421,0.473-0.631c0.775-0.303,1.704-1.352,1.894-2.207
			c-0.368-0.262-0.737-0.525-1.105-0.788c-0.944,0.749-1.146,1.746-2.525,2.364c-0.011-0.572-0.913-3.144-1.105-2.995
			c-0.053-0.053-0.105-0.106-0.158-0.158c-0.629,0.56-0.852,0.727-1.42,1.104c0.966,3.295,0.445,4.723,1.736,6.148
			c0.09,0.099,0.688,0.409,0.316,0.473c0.075,0.075,0.615,0.578,0.316,0.63c0.008,0.007,0.315,0.473,0.315,0.473
			c0.105,0.158,0.211,0.315,0.316,0.473c0.368,0.788,0.737,1.576,1.105,2.364c0.528,0.632,2.43,3.812,1.578,4.256
			c-0.821,0.926-3.173-0.049-4.419,0.158c-4.048,0.672-5.105-0.297-6.628-1.891c-0.158-0.315-0.316-0.63-0.474-0.946
			c-0.26-0.286-0.942-0.753-0.789-1.261c-0.263,0.105-0.526,0.21-0.789,0.315c0.112-0.968-0.024-1.527-0.157-2.522
			C7.257,108,8.237,98.419,10.94,93.605c-0.21-0.368-0.421-0.736-0.631-1.104c0.114-0.007,1.036-0.214,1.105-0.946
			c-0.607-0.778-0.634-1.074-0.947-2.05c0.673-0.041,1.668-1.134,2.367-0.158c-0.245,0.096-0.479,0.289-0.158,0.788
			c0.765,1.111,3.877,1.879,4.892,2.68c-0.505,1.194,0.325,1.684,0.158,2.679c0.789-0.105,1.578-0.21,2.367-0.315
			c0.105-0.211,0.211-0.421,0.315-0.631c-0.052-0.105-0.105-0.21-0.158-0.315c-0.105-0.106-0.211-0.211-0.316-0.315
			c-0.49,0.201-0.957,0.567-1.105,0.157c-0.581-0.507-0.16-1.564-0.474-1.891c-1.31-0.005-3.78-4.169-4.419-5.36
			c1.983-0.258,2.224-2.039,4.577-2.364c0.025,0.126,0.001,0.316,0.158,0.158c-0.077,1.073,0.115,1.172,0.631,1.576
			c0.112-0.421,0.185-0.812,0.473-0.63c-0.741-1.633-1.218-2.029-1.578-3.31c0.568-0.057,0.719-1.191,1.578-1.892
			c1.256,0.778,5.252,0.132,5.682,0c0.158,0.841,0.315,1.681,0.473,2.522c0.759,0.017,1.4,0.31,1.105-0.315
			c0.362-0.281,0.212-0.168,0.315-0.946c0.158,0.105,0.316,0.21,0.473,0.315c0-0.21,0-0.42,0-0.63c-0.105,0-0.21,0-0.315,0
			c-0.537-1.019-0.919-1.125-1.578-2.207c0.421-0.157,0.842-0.315,1.263-0.473c-0.053-0.315-0.105-0.63-0.158-0.946
			c1.055,0.184,1.643,0.345,2.209-0.315c0-0.105,0-0.21,0-0.315c0-0.053,0-0.105,0-0.158c-1.642,0.319-0.864,0.304-2.367,0
			c0-0.315,0-0.631,0-0.946c-1.064,0.098-5.495,0.914-6.471-0.315c0.106,0.052,0.211,0.105,0.316,0.158
			c0.095-0.675,0.431-0.852,1.105-0.946c-0.336-1.661,1.169-6.451,1.42-7.094c-0.316-0.263-0.631-0.525-0.947-0.788
			c0.158-0.191,1.179-1.433,1.578-1.576c0.078-0.113,1.19-0.343,1.578-0.315c0.155-3.152,1.992-6.751,3.472-8.039
			c0.178,0.199,0.781,0.428,0.947,0c0.158,0.263,0.315,0.525,0.473,0.788c-0.158,0.315-0.316,0.631-0.473,0.946
			c-0.666-0.502-0.414-0.545-1.263-0.63c-0.137,0.411,0.064,0.551-0.316,0.316c0.052,0.315,0.105,0.63,0.158,0.946
			c0.815,0.37,1.813,0.896,2.683,1.104c-0.053-0.105-0.106-0.21-0.158-0.316c-0.052-0.368-0.105-0.736-0.158-1.103
			c0.105,0.052,0.21,0.105,0.316,0.158c0.622,0.059-0.052,0.135,0.631,0.315c0.052-0.105,0.105-0.21,0.158-0.315
			c-0.272-1.006,0.005-0.783,0.473-1.103c0.258,0.401,2.044,0.867,2.525,1.103c0.053-0.263,0.105-0.525,0.158-0.788
			c-0.105,0-0.211,0-0.316,0c-0.021-0.361-0.538-0.209-0.316-0.946c-1.159,0.257-2.921-0.089-3.472-0.63
			c-0.052-0.21-0.105-0.42-0.158-0.631c3.128,0.416,5.835-2.226,8.206-3.783c0.473-0.683,0.947-1.366,1.42-2.049
			c0.368-0.105,0.737-0.21,1.105-0.315c0.421-0.263,0.842-0.525,1.263-0.788c0.677-0.52,3.219-1.657,3.945-1.104
			c0.488,0.039,0.43,0.05,0.631,0.473c1.656-1.731,5.664,2.744,5.997,3.31c-0.61,0.345-0.157,0.21-0.474,0.631
			c0.053,0.105,0.105,0.21,0.158,0.315c1.879,0.022,2.135,0.232,2.841-0.473c0.947,0.473,1.894,0.946,2.841,1.419
			c0.502-0.914,4.477-0.185,5.681-1.103c0-0.052,0-0.105,0-0.157c0,0,1.865-4.156,2.525-4.414c0.07,0.631-0.157,0.331,0.316,0.788
			c1.262-0.63,2.525-1.261,3.787-1.891c0.07-0.475,5.155-4.276,5.523-4.414c0.368-0.105,0.737-0.21,1.105-0.315
			c1.255-0.773,3.398-2.526,4.103-2.049c1.595-0.615,4.787-1.094,5.839,0c0.424,0.077,0.13-0.138,0.473,0.315
			c-0.158,0.158-0.315,0.315-0.473,0.473c-0.39,0.178-0.178-0.078-0.316,0.473c0.609,0.068,0.32-0.252,0.631,0.473
			c-0.483,0.318-0.132,0.435,0,1.104c0.158-0.053,0.316-0.105,0.474-0.158c0.14-0.653,1.282-1.72,1.104-2.364
			c1.247,0.556,1.973,0.576,2.841,1.419c-0.352,0.533-0.474,0.863-0.473,1.576c0.21,0.053,0.421,0.105,0.631,0.158
			c-0.052-0.105-0.105-0.21-0.158-0.315c0.799-0.426,0.275-0.92,1.262-1.261c0.126,0.253,6.515,4.406,6.944,4.572
			c-0.238,1.208-0.721,1.681-1.894,2.049c-0.022-0.378,0.112-0.254-0.631-0.473c0.13,0.377,0.037,1.062,0.473,0.788
			c0.438,0.792,1.809,0.035,2.683-0.315c0.936,0.924,0.74,1.104,1.104,2.207c-0.639,0.63-0.583,0.826-0.947,1.419
			c0.608-0.212,0.913-0.344,0.789-0.63c0.684,0.63,1.368,1.261,2.052,1.892c-0.315,1.841-1.207,3.709-2.683,4.414
			c-0.731,1.042-0.436,2.331-1.262,3.941c-1.195,2.326-5.341,4.401-8.996,5.36c0.263,0.63,0.526,1.261,0.789,1.892
			c0.473-0.389,0.406-0.351,0.474-0.788c0.378-0.148,0.491-0.556,0.631-1.261c3.828-0.101,5.897-0.648,7.26-1.891
			c2.928-2.672,1.882-8.598,8.206-6.621c-0.468-0.811-1.38-1.101-1.578-1.891c1.052-0.683,2.105-1.366,3.156-2.049
			c0.819,1.678,3.606,1.597,4.577,2.995c-0.105,0-0.21,0-0.315,0c-0.579,1.051-1.158,2.102-1.736,3.153c0,0.053,0,0.105,0,0.158
			c0.21,0,0.42,0,0.631,0c0.737-1.453,1.143-1.627,1.737-2.995c0.21,0.105,0.42,0.21,0.631,0.316
			c0.893,1.764,6.425,2.061,9.942,1.734c0.327,5.452,2.483,5.189,5.05,7.882c0.105,0.368,0.21,0.736,0.315,1.103
			c-0.521,0.101-2.185,0.744-2.525,2.049c0.053,0,0.106,0,0.158,0c1.615-0.991,2.315-1.951,4.734-2.207
			c1.186,2.544,5.873,7.932,8.522,7.409c0.999,0.105,1.999,0.21,2.999,0.316c1.618-0.539,5.505-1.72,5.997-2.995
			c-0.324-0.14-0.409-0.067-0.158-0.315c0.588-1.243,1.474-1.815,4.103-1.576c0.315,0.105,0.631,0.21,0.947,0.315
			c5.49-2.315,7.106,6.693,9.311,9.616c0.593-0.213,1.576-0.732,1.736-0.63c1.393,0.018,8.643,3.73,9.942,5.359
			c-0.106,0-0.211,0-0.315,0c-0.352,0.22-1.486-0.36-2.052-0.63c-0.002,0.691-0.412,0.807-0.789,1.419
			c0.746,0.701-2.039,6.026-2.683,6.463c-0.356,0.36-1.113,0.388-1.42,0.315c0.178,0.682,0.113,0.405,0.473,0.788
			c0.605-0.179,0.248-0.311,0.789,0c-0.57,0.294-0.351,0.226-0.631,0.789c-0.42-0.158-0.841-0.316-1.262-0.473
			c-0.474,1.208-0.947,2.417-1.42,3.626c-0.774,0.687-3.664,0.986-3.314,1.576c-0.467,0.304-0.003,0.04-0.315,0.473
			c0.21,0.053,0.421,0.105,0.631,0.158C167.794,100.078,168.452,99.727,174.596,99.753z"/>
		<path fill-rule="evenodd" clip-rule="evenodd" fill="#1E8346" d="M88.27,40.483c0.052,0.105,0.105,0.21,0.158,0.315
			C88.376,40.693,88.323,40.588,88.27,40.483z"/>
		<path fill-rule="evenodd" clip-rule="evenodd" fill="#1E8346" d="M66.176,46c0.298,0.396-0.122,0.18,0.316,0.473
			c-0.105,0.21-0.21,0.42-0.316,0.631c-0.053,0-0.105,0-0.158,0c-0.084-0.491,0.215-0.142-0.158-0.473
			C65.966,46.42,66.071,46.21,66.176,46z"/>
		<path fill-rule="evenodd" clip-rule="evenodd" fill="#1E8346" d="M66.334,47.103c0.105,0,0.211,0,0.316,0c0,0.052,0,0.105,0,0.158
			c-0.106,0.105-0.211,0.21-0.316,0.315c-0.052,0-0.105,0-0.158,0C66.229,47.419,66.281,47.261,66.334,47.103z"/>
		<path fill-rule="evenodd" clip-rule="evenodd" fill="#1E8346" d="M66.492,47.576c0.105,0.105,0.211,0.21,0.316,0.315
			c-0.158,0.053-0.316,0.105-0.474,0.158C66.386,47.891,66.439,47.734,66.492,47.576z"/>
		<path fill-rule="evenodd" clip-rule="evenodd" fill="#1E8346" d="M47.712,47.891c0.105,0,0.211,0,0.316,0
			C47.922,47.891,47.817,47.891,47.712,47.891z"/>
		<path fill-rule="evenodd" clip-rule="evenodd" fill="#1E8346" d="M102.316,47.891c1.571,1.475,1.06,2.636,3.156,3.468
			c-0.226,0.734-0.253,0.883-0.158,1.734c-0.263-0.263-0.526-0.526-0.789-0.788C102.935,51.211,102.144,48.676,102.316,47.891z"/>
		<path fill-rule="evenodd" clip-rule="evenodd" fill="#1E8346" d="M53.235,53.251c-0.217,0.628-0.134,1.727,0,2.365
			c-0.307,0.024-0.553-0.103-0.315,0.158c-0.523,0.335,0.166,0.663,0.474,1.103c-0.662,2.477-1.822,6.006-3.945,6.148
			c-0.421-0.053-0.842-0.105-1.263-0.158c-0.105,0.368-0.211,0.736-0.316,1.104c0,0-2.654,0.478-2.209-0.158
			c-0.27-0.099-0.793-1.161-1.263-0.946c-0.534,0.072-2.12,0.619-2.367,1.261c0.731,0.402,0.285,0.542,0.316,1.104
			c-0.912,0.05-1.196,0.171-1.894,0.788c0,0.052,0,0.105,0,0.158c0.526,0.21,1.052,0.42,1.578,0.631
			c0.106-0.052,0.211-0.105,0.316-0.158c-0.269-1.116,0.865-2.315,1.42-2.838c0.343,0.292,0.029,0.12,0.789,0.158
			c-0.053,0.42-0.106,0.841-0.158,1.261c1.783-0.602,2.849-0.384,4.419,0.158c-0.346,3.09-1.496,4.593-1.894,6.463
			c0.21,0,0.421,0,0.631,0c0.166-0.326,0.405-0.281,1.105-0.631c-0.023-0.623,0.294-2.368,0.631-2.68
			c0.053-0.263,0.105-0.525,0.158-0.788c0.21,0,0.421,0,0.631,0c0.04,0.982,1.671,4.203,2.367,4.414
			c-0.053-0.105-0.105-0.21-0.158-0.315c0.591-0.41,0.357-0.989,0.631-2.049c-1.161-0.385-2.468-3.897-2.84-5.202
			c0-0.053,0-0.105,0-0.158c0.805-0.009,0.567,0.074,1.105-0.158c-0.116-1.054,1.897-2.639,3.63-1.892
			c0.052-0.158,0.105-0.315,0.158-0.473c-0.388-0.308-0.064-0.089-0.473-0.158c-0.307-0.479-0.052-0.165-0.473-0.315
			c0.407-1.453,2.275-2.923,3.156-3.941c0.343-0.396-1.359-3.622-1.42-3.941C54.919,53.461,54.077,53.356,53.235,53.251z"/>
		<path fill-rule="evenodd" clip-rule="evenodd" fill="#1E8346" d="M184.222,55.773c5.266,1.026,9.041,3.581,11.836,8.197
			c0.626,1.034-1.586,7.434-1.578,8.512c-2.19,0.392-5.638,1.294-8.838,1.576c-0.24,0.837-0.811,0.832-1.578,1.419
			c-4.453,3.404-4.112-4.033-7.259-6.305c-0.112-0.002-0.587-0.27-0.315-0.631c-1.026-1.439-3.079-0.421-3.156-2.207
			c0.405-0.068,1.122-0.316,0.946-0.946c0.095-2.475-0.491-5.265-1.262-6.778c3.56,0.02,6.659-1.124,5.997-2.68
			c1.656,0.737,2.041,0.824,4.261,1.103C183.591,56.614,183.907,56.193,184.222,55.773z"/>
		<path fill-rule="evenodd" clip-rule="evenodd" fill="#1E8346" d="M53.393,56.404c0.052,0.105,0.105,0.21,0.158,0.315
			C53.498,56.614,53.445,56.509,53.393,56.404z"/>
		<path fill-rule="evenodd" clip-rule="evenodd" fill="#1E8346" d="M30.352,56.719c0.105,0.158,0.211,0.315,0.316,0.473
			C30.562,57.034,30.457,56.877,30.352,56.719z"/>
		<path fill-rule="evenodd" clip-rule="evenodd" fill="#1E8346" d="M134.352,57.665c2.73,0.442,3.7,0.945,5.839,2.995
			c0.756-0.326,2.616,0.57,3.314,1.103c4.939-0.792,10.639-0.702,14.677,0.631c-0.186,1.002-0.197,2.072-0.316,2.838
			c0.423,0.072,0.238-0.097,0.631,0.315c0,0.053,0,0.105,0,0.158c-2.809,0.091-5.923,0.777-7.733,0.631
			c0.052,0.368,0.105,0.736,0.158,1.103c-0.106,0-0.211,0-0.316,0c-0.158,0.158-0.316,0.315-0.473,0.473
			c0,0-4.999,1.043-5.208,1.419c-1.258-0.635-0.763-1.585-2.368-2.68c-0.203-0.139-6.786-3.783-6.786-3.783
			c-0.878,0.197-3.63-1.734-3.63-1.734c-0.247-0.152-0.847-0.882-0.947-2.049C132.672,59.088,133.475,58.699,134.352,57.665z"/>
		<path fill-rule="evenodd" clip-rule="evenodd" fill="#1E8346" d="M108.944,59.083c0.442,1.351,0.753,1.766,1.421,2.68
			c0.631,0.105,1.263,0.21,1.894,0.315c-0.053-0.105-0.106-0.21-0.158-0.315c-0.164-1.286-2.043-1.513-2.683-2.68
			C109.26,59.083,109.102,59.083,108.944,59.083z"/>
		<path fill-rule="evenodd" clip-rule="evenodd" fill="#1E8346" d="M169.072,59.556c2.964,0.393,2.637,3.128,3.945,4.256
			c0.208,0.581-0.243,0.599-0.473,0.473c-1.279,1.417-4.622-1.174-4.734-2.049C168.024,62.206,169.039,60.51,169.072,59.556z"/>
		<path fill-rule="evenodd" clip-rule="evenodd" fill="#1E8346" d="M127.251,62.394c0.105,0,0.21,0,0.315,0
			C127.291,62.548,127.531,62.537,127.251,62.394z"/>
		<path fill-rule="evenodd" clip-rule="evenodd" fill="#1E8346" d="M127.566,62.551c-0.067,0.146,0.127,0.107-0.158,0.315
			C127.462,62.761,127.514,62.657,127.566,62.551z"/>
		<path fill-rule="evenodd" clip-rule="evenodd" fill="#1E8346" d="M127.882,63.024c0.105,0.158,0.21,0.315,0.315,0.473
			c-0.158-0.052-0.315-0.105-0.474-0.158C127.776,63.235,127.829,63.129,127.882,63.024z"/>
		<path fill-rule="evenodd" clip-rule="evenodd" fill="#1E8346" d="M128.355,63.497c1.262,0.893,2.525,1.786,3.788,2.68
			c-0.016,0.122,0.396,0.683-0.316,0.946c-0.086-0.385-3.258-3.131-3.787-3.31C128.145,63.707,128.25,63.602,128.355,63.497z"/>
		<path fill-rule="evenodd" clip-rule="evenodd" fill="#1E8346" d="M138.456,65.074c1.194,0.308,2.362,2.84,2.999,2.68
			C140.612,68.638,138.582,65.605,138.456,65.074z"/>
		<path fill-rule="evenodd" clip-rule="evenodd" fill="#1E8346" d="M129.618,65.704c0.106,0.105,0.211,0.211,0.316,0.316
			C129.829,65.915,129.723,65.809,129.618,65.704z"/>
		<path fill-rule="evenodd" clip-rule="evenodd" fill="#1E8346" d="M49.763,67.28c0.052,0.105,0.105,0.21,0.158,0.316
			c-0.105,0-0.21,0-0.316,0C49.658,67.49,49.711,67.385,49.763,67.28z"/>
		<path fill-rule="evenodd" clip-rule="evenodd" fill="#1E8346" d="M147.609,75.004c0.052,0.105,0.105,0.21,0.157,0.315
			C147.714,75.215,147.662,75.11,147.609,75.004z"/>
		<path fill-rule="evenodd" clip-rule="evenodd" fill="#1E8346" d="M147.767,75.477c0.105,0,0.211,0,0.316,0
			C147.977,75.477,147.872,75.477,147.767,75.477z"/>
		<path fill-rule="evenodd" clip-rule="evenodd" fill="#1E8346" d="M20.252,76.108c0.105,0.105,0.21,0.21,0.316,0.315
			C20.462,76.318,20.357,76.213,20.252,76.108z"/>
		<path fill-rule="evenodd" clip-rule="evenodd" fill="#1E8346" d="M22.461,76.423c0.105,0,0.211,0,0.315,0
			C22.672,76.423,22.566,76.423,22.461,76.423z"/>
		<path fill-rule="evenodd" clip-rule="evenodd" fill="#1E8346" d="M19.778,77.054c0.479,0.139,0.042,0.226-0.158,0.473
			C19.673,77.369,19.726,77.211,19.778,77.054z"/>
		<path fill-rule="evenodd" clip-rule="evenodd" fill="#1E8346" d="M26.88,77.054c0.105,0,0.21,0,0.315,0
			C27.09,77.054,26.985,77.054,26.88,77.054z"/>
		<path fill-rule="evenodd" clip-rule="evenodd" fill="#1E8346" d="M19.463,77.684c0.105,0,0.21,0,0.315,0
			C19.673,77.684,19.568,77.684,19.463,77.684z"/>
		<path fill-rule="evenodd" clip-rule="evenodd" fill="#1E8346" d="M19.463,78c0.052,0.105,0.105,0.21,0.158,0.315
			C19.568,78.21,19.515,78.105,19.463,78z"/>
		<path fill-rule="evenodd" clip-rule="evenodd" fill="#1E8346" d="M19.305,78.315c-0.111,0.149,0.026,0.246-0.316,0.158
			C19.094,78.42,19.2,78.368,19.305,78.315z"/>
		<path fill-rule="evenodd" clip-rule="evenodd" fill="#1E8346" d="M18.831,78.788c0.158,0,0.316,0,0.473,0
			C19.147,78.788,18.989,78.788,18.831,78.788z"/>
		<path fill-rule="evenodd" clip-rule="evenodd" fill="#1E8346" d="M18.674,79.103c0.158,0,0.316,0,0.473,0
			C18.989,79.103,18.831,79.103,18.674,79.103z"/>
		<path fill-rule="evenodd" clip-rule="evenodd" fill="#1E8346" d="M18.516,79.418c0.158,0,0.316,0,0.473,0
			c0.083,0.658-0.098,0.273,0.316,0.788c-0.391,0.619-0.533,0.688-1.42,1.103c-0.316-0.158-0.631-0.315-0.947-0.473
			c0.157-0.21,0.315-0.42,0.473-0.631c0.623-0.066,0.24,0.07,0.316-0.631C18.531,79.596,18.307,79.568,18.516,79.418z"/>
		<path fill-rule="evenodd" clip-rule="evenodd" fill="#1E8346" d="M16.78,80.995c0.158,0.105,0.315,0.21,0.474,0.315
			C17.095,81.205,16.938,81.1,16.78,80.995z"/>
		<path fill-rule="evenodd" clip-rule="evenodd" fill="#1E8346" d="M16.622,81.152c0.158,0.158,0.316,0.315,0.473,0.473
			C16.938,81.467,16.78,81.31,16.622,81.152z"/>
		<path fill-rule="evenodd" clip-rule="evenodd" fill="#1E8346" d="M16.464,81.467c0.158,0.158,0.316,0.315,0.474,0.473
			C16.78,81.783,16.622,81.625,16.464,81.467z"/>
		<path fill-rule="evenodd" clip-rule="evenodd" fill="#1E8346" d="M16.148,82.098c0.158,0.158,0.316,0.315,0.474,0.473
			C16.464,82.413,16.306,82.256,16.148,82.098z"/>
		<path fill-rule="evenodd" clip-rule="evenodd" fill="#1E8346" d="M15.991,82.413c0.158,0.105,0.316,0.21,0.473,0.315
			C16.306,82.623,16.148,82.518,15.991,82.413z"/>
		<path fill-rule="evenodd" clip-rule="evenodd" fill="#1E8346" d="M15.833,82.728c0.158,0.105,0.315,0.211,0.474,0.315
			C16.148,82.939,15.991,82.833,15.833,82.728z"/>
		<path fill-rule="evenodd" clip-rule="evenodd" fill="#1E8346" d="M15.675,83.044c0.158,0.105,0.316,0.21,0.473,0.315
			C15.991,83.254,15.833,83.149,15.675,83.044z"/>
		<path fill-rule="evenodd" clip-rule="evenodd" fill="#1E8346" d="M15.517,83.359c0.158,0.105,0.315,0.21,0.473,0.315
			C15.833,83.569,15.675,83.464,15.517,83.359z"/>
		<path fill-rule="evenodd" clip-rule="evenodd" fill="#1E8346" d="M15.359,83.674c0.158,0.105,0.316,0.21,0.473,0.315
			C15.675,83.884,15.517,83.779,15.359,83.674z"/>
		<path fill-rule="evenodd" clip-rule="evenodd" fill="#1E8346" d="M15.202,83.832c0.158,0.158,0.316,0.315,0.473,0.473
			c-0.21,0.262-0.421,0.525-0.631,0.788c-0.105-0.105-0.211-0.211-0.316-0.315C15.178,84.583,15.19,84.243,15.202,83.832z"/>
		<path fill-rule="evenodd" clip-rule="evenodd" fill="#1E8346" d="M14.57,85.093c0.105,0,0.211,0,0.316,0
			C14.781,85.093,14.675,85.093,14.57,85.093z"/>
		<path fill-rule="evenodd" clip-rule="evenodd" fill="#1E8346" d="M14.412,85.408c0.158,0,0.316,0,0.473,0
			C14.728,85.408,14.57,85.408,14.412,85.408z"/>
		<path fill-rule="evenodd" clip-rule="evenodd" fill="#1E8346" d="M5.575,85.566c0.105,0.105,0.211,0.21,0.316,0.315
			c-0.052,0.105-0.105,0.21-0.158,0.315c-0.105-0.053-0.211-0.105-0.316-0.158C5.47,85.881,5.522,85.724,5.575,85.566z"/>
		<path fill-rule="evenodd" clip-rule="evenodd" fill="#1E8346" d="M14.255,85.724c0.158,0,0.316,0,0.473,0c0,0.052,0,0.105,0,0.158
			C14.236,85.796,14.586,86.097,14.255,85.724z"/>
		<path fill-rule="evenodd" clip-rule="evenodd" fill="#1E8346" d="M6.206,86.039c0.105,0.105,0.21,0.21,0.316,0.315
			c-0.052,0.105-0.105,0.21-0.158,0.316c-0.105-0.105-0.211-0.211-0.316-0.316C6.101,86.249,6.154,86.144,6.206,86.039z"/>
		<path fill-rule="evenodd" clip-rule="evenodd" fill="#1E8346" d="M13.781,86.039c0.158,0,0.315,0,0.473,0
			c-0.105,0.158-0.211,0.315-0.315,0.473c-0.105-0.053-0.211-0.105-0.316-0.158C13.676,86.249,13.729,86.144,13.781,86.039z"/>
		<path fill-rule="evenodd" clip-rule="evenodd" fill="#1E8346" d="M13.308,86.354c0.402,0.256,0.114,1.152-0.158,1.577
			c-0.105-0.105-0.211-0.21-0.316-0.315C12.992,87.195,13.15,86.775,13.308,86.354z"/>
		<path fill-rule="evenodd" clip-rule="evenodd" fill="#1E8346" d="M6.837,86.512c0.105,0.105,0.21,0.21,0.316,0.315
			c-0.053,0.105-0.106,0.21-0.158,0.315c-0.105-0.105-0.21-0.21-0.315-0.315C6.732,86.722,6.785,86.617,6.837,86.512z"/>
		<path fill-rule="evenodd" clip-rule="evenodd" fill="#1E8346" d="M176.805,86.512c0.105,0.105,0.211,0.21,0.315,0.315
			C177.016,86.722,176.91,86.617,176.805,86.512z"/>
		<path fill-rule="evenodd" clip-rule="evenodd" fill="#1E8346" d="M177.121,86.827c0.105,0.105,0.21,0.21,0.316,0.315
			C177.331,87.037,177.226,86.932,177.121,86.827z"/>
		<path fill-rule="evenodd" clip-rule="evenodd" fill="#1E8346" d="M177.594,86.985c0.335,0.369,0.07-0.018,0.158,0.473
			c-0.105-0.052-0.211-0.105-0.315-0.158c0-0.052,0-0.105,0-0.158C177.489,87.09,177.541,87.037,177.594,86.985z"/>
		<path fill-rule="evenodd" clip-rule="evenodd" fill="#1E8346" d="M7.311,87.142c0.158,0,0.315,0,0.474,0
			c-0.053,0.158-0.106,0.315-0.158,0.473C7.521,87.457,7.416,87.3,7.311,87.142z"/>
		<path fill-rule="evenodd" clip-rule="evenodd" fill="#1E8346" d="M177.91,87.142c0.158,0.053,0.316,0.105,0.474,0.158
			c-0.053,0.158-0.105,0.315-0.158,0.473c-0.105-0.052-0.211-0.105-0.316-0.158C177.91,87.457,177.91,87.3,177.91,87.142z"/>
		<path fill-rule="evenodd" clip-rule="evenodd" fill="#1E8346" d="M7.942,87.615c0.158,0,0.316,0,0.474,0
			c-0.053,0.158-0.106,0.315-0.158,0.473C8.153,87.93,8.047,87.773,7.942,87.615z"/>
		<path fill-rule="evenodd" clip-rule="evenodd" fill="#1E8346" d="M178.383,87.615c0.105,0.105,0.21,0.21,0.316,0.315
			C178.594,87.825,178.489,87.72,178.383,87.615z"/>
		<path fill-rule="evenodd" clip-rule="evenodd" fill="#1E8346" d="M12.676,87.93c0.158,0.105,0.316,0.21,0.473,0.315
			c0,0.053,0,0.105,0,0.158c-0.053,0-0.105,0-0.158,0C12.887,88.246,12.782,88.088,12.676,87.93z"/>
		<path fill-rule="evenodd" clip-rule="evenodd" fill="#1E8346" d="M8.573,88.088c0.478,0.25,0.306-0.13,0.631,0.473
			C8.727,88.311,8.898,88.691,8.573,88.088z"/>
		<path fill-rule="evenodd" clip-rule="evenodd" fill="#1E8346" d="M12.519,88.403c0.158,0.105,0.315,0.21,0.473,0.315
			c0,0.053,0,0.105,0,0.158c-0.053,0-0.105,0-0.158,0C12.729,88.718,12.624,88.561,12.519,88.403z"/>
		<path fill-rule="evenodd" clip-rule="evenodd" fill="#1E8346" d="M9.205,88.561c0.478,0.25,0.306-0.13,0.631,0.473
			C9.358,88.784,9.529,89.164,9.205,88.561z"/>
		<path fill-rule="evenodd" clip-rule="evenodd" fill="#1E8346" d="M9.836,89.034c0.478,0.25,0.306-0.129,0.631,0.473
			C9.989,89.256,10.161,89.637,9.836,89.034z"/>
		<path fill-rule="evenodd" clip-rule="evenodd" fill="#1E8346" d="M17.095,92.187c0.053,0.105,0.106,0.21,0.158,0.315
			C17.201,92.397,17.148,92.292,17.095,92.187z"/>
		<path fill-rule="evenodd" clip-rule="evenodd" fill="#1E8346" d="M154.869,105.113c0.052,0.105,0.105,0.21,0.158,0.315
			C154.974,105.323,154.921,105.217,154.869,105.113z"/>
		<path fill-rule="evenodd" clip-rule="evenodd" fill="#1E8346" d="M42.346,106.846c0.837,0.938,0.151,4.343,0.474,5.675
			c2.639-0.869,3.504,0.079,4.419,0.788c-0.053,0.105-0.105,0.21-0.158,0.315c-0.428,0.125-0.307-0.131-0.316,0.316
			c0.053,0.473,0.105,0.946,0.158,1.418c0.774-0.03,1.093-0.43,1.263,0c0.847,0.577,1.736,2.995,1.736,2.995
			c0.676,0.473,3.883,0.862,4.419,1.103c0.105,0.526,0.211,1.051,0.315,1.576c-0.521,0.295-1.712,2.157-2.367,1.734
			c-0.796,0.215-3.386-0.887-4.577-1.26c-0.473,0.473-0.947,0.945-1.42,1.418c0.769,0.998,2.135,1.104,1.736,2.207
			c-0.631,0.262-1.263,0.526-1.894,0.788c-0.794-1.475-2.717-1.088-4.103-2.995c-0.515,0.248-1.55-0.015-1.262,0.315
			c-0.553,0.304-0.57,1.176-0.158,0.788c1.104,0.788,2.21,1.576,3.314,2.364c0,0.053,0,0.105,0,0.158
			c-2.136,1.508-4.072,2.072-6.471,4.098c-0.158-0.052-0.315-0.105-0.473-0.158c-0.032-0.924-1.546-4.284-2.052-4.413
			c-0.669-0.018-0.763,0.625-1.578,0.473c0.292,1.006,1.956,4.77,1.105,5.517c-0.12,0.263-0.888,0.919-0.947,0.788
			c-0.21,0-0.421,0-0.631,0c0.002-1.087-0.932-3.495-1.736-4.571c-0.105,0-0.211,0-0.316,0c-0.421,0.315-0.842,0.631-1.263,0.946
			c0.141,2.545,1.157,3.232,1.42,5.36c-1.074,0.193-2.948,1.69-3.945,1.261c-2.643-1.137-6.934-7.549-7.26-11.822
			c2.486-1.298,10.496-11.567,14.835-9.616c0-0.262,0-0.526,0-0.788c0.994-0.003,1.071-0.026,1.736-0.158
			c-0.545,1.939-3.854,4.421-4.734,6.463c0.526,0.262,1.052,0.525,1.578,0.788c0.983-0.734,2.258-0.828,2.841-1.734
			c-0.105-0.316-0.21-0.631-0.316-0.946c1.411-0.669,1.375-2.2,2.999-1.891c-0.105-0.368-0.211-0.735-0.316-1.103
			c0.416,0.103,1.528,0.284,1.263-0.315c-0.074-0.534-0.42-0.64-0.158-1.104c0.278-0.629,1.976-1.336,2.841-0.946
			C42.346,110.735,42.346,108.79,42.346,106.846z"/>
		<path fill-rule="evenodd" clip-rule="evenodd" fill="#1E8346" d="M37.296,109.842c-0.421,0-0.841,0-1.263,0
			c-0.05-1.499-0.678-1.129-0.158-2.365C36.71,107.984,37.347,108.131,37.296,109.842z"/>
		<path fill-rule="evenodd" clip-rule="evenodd" fill="#1E8346" d="M106.735,108.58c0.053,0.105,0.105,0.21,0.158,0.315
			C106.84,108.79,106.788,108.686,106.735,108.58z"/>
		<path fill-rule="evenodd" clip-rule="evenodd" fill="#1E8346" d="M47.238,113.782c0.105,0,0.21,0,0.316,0
			C47.449,113.782,47.343,113.782,47.238,113.782z"/>
		<path fill-rule="evenodd" clip-rule="evenodd" fill="#1E8346" d="M3.681,114.098c0.053,0.158,0.105,0.315,0.158,0.473
			c-0.105-0.052-0.211-0.105-0.316-0.158C3.576,114.308,3.629,114.202,3.681,114.098z"/>
		<path fill-rule="evenodd" clip-rule="evenodd" fill="#1E8346" d="M3.208,114.413c0.053,0.158,0.105,0.315,0.158,0.473
			c-0.105-0.053-0.21-0.105-0.315-0.158C3.102,114.623,3.155,114.518,3.208,114.413z"/>
		<path fill-rule="evenodd" clip-rule="evenodd" fill="#1E8346" d="M2.734,114.728c0.105,0.105,0.211,0.21,0.316,0.315
			c-0.053,0.052-0.105,0.105-0.158,0.158c-0.105-0.052-0.211-0.105-0.316-0.158c0-0.052,0-0.105,0-0.157
			C2.629,114.833,2.682,114.781,2.734,114.728z"/>
		<path fill-rule="evenodd" clip-rule="evenodd" fill="#1E8346" d="M1.787,115.358c0.105,0.105,0.211,0.211,0.316,0.316
			C1.998,115.569,1.892,115.463,1.787,115.358z"/>
		<path fill-rule="evenodd" clip-rule="evenodd" fill="#1E8346" d="M99.949,125.762c0.053,0.105,0.105,0.21,0.158,0.315
			C100.054,125.973,100.002,125.868,99.949,125.762z"/>
		<path fill-rule="evenodd" clip-rule="evenodd" fill="#1E8346" d="M81.8,126.393c2.225,0.227,3.979,0.971,5.208,0.315
			c0,0.262,0,0.526,0,0.789c1.271-0.125,8.179,2.986,8.68,2.837c0-0.053,0-0.105,0-0.158c0-0.262,0-0.525,0-0.788
			c-0.316,0-0.631,0-0.947,0c0.371-0.297,0.672-0.319,1.42-0.315c0.124,0.797,1.458,0.583,2.84,0.631
			c-0.465,1.546-1.361,2.917-2.84,3.94c0.021-0.93,0.132-1.084-0.473-1.576c0.166,0.9,0.14,1.88-0.158,2.207
			c-0.025,0.352,0.063,0.19-0.158,0.316c-0.121,0.015-2.053-0.486-1.736,0.631c-0.401,0.158-0.223,0.159-0.473,0.631
			c-0.158,0-0.316,0-0.473,0c-0.822-1.922-2.44-1.982-3.946-3.625c0.175-0.448,0.137-0.23,0.158-0.631
			C86.397,131.143,83.535,128.752,81.8,126.393z"/>
		<path fill-rule="evenodd" clip-rule="evenodd" fill="#1E8346" d="M37.138,130.649c0.105,0,0.21,0,0.315,0
			C37.348,130.649,37.243,130.649,37.138,130.649z"/>
		<path fill-rule="evenodd" clip-rule="evenodd" fill="#1E8346" d="M62.546,134.117c3.521,0.678,6.285,3.726,7.575,6.305
			c-0.631-0.053-1.263-0.105-1.894-0.158c-0.105-0.473-0.21-0.946-0.316-1.418c-0.578-0.158-1.157-0.316-1.736-0.473
			c0,0.052,0,0.105,0,0.157c0,0.158,0,0.316,0,0.473c0.444,0.044,0.117-0.084,0.316,0.315c0.053,0.105,0.105,0.21,0.158,0.315
			c-1.384,0.199-1.871,1.197-4.261,0.315c0.105-1.066,0.34-1.264,0.789-1.734c0.857,0.144,0.37,0.173,1.42,0.158
			c-0.053-0.158-0.105-0.315-0.158-0.473c-0.572-0.221-1.638-0.605-1.42-1.103C62.461,136.383,62.522,135.777,62.546,134.117z"/>
		<path fill-rule="evenodd" clip-rule="evenodd" fill="#1E8346" d="M60.968,135.693c0.954,0.143,1.155,1.558,1.105,1.734
			c-0.158,0.42-0.315,0.841-0.473,1.261c-0.21-0.158-0.421-0.315-0.631-0.472c-0.328-0.689-0.565-0.123-0.789-1.104
			C60.442,136.639,60.705,136.166,60.968,135.693z"/>
		<path fill-rule="evenodd" clip-rule="evenodd" fill="#1E8346" d="M56.549,135.851c0.789,0.158,1.578,0.315,2.367,0.473
			c0,0.263,0,0.526,0,0.788c-0.105,0.158-0.21,0.315-0.315,0.473c-1.157,0.262-2.315,0.525-3.472,0.788
			c-0.316-0.263-0.631-0.526-0.947-0.788c0.053-0.21,0.106-0.421,0.158-0.631C55.076,136.587,55.813,136.218,56.549,135.851z"/>
		<path fill-rule="evenodd" clip-rule="evenodd" fill="#1E8346" d="M62.231,137.27c0.052,0.105,0.105,0.21,0.158,0.315
			C62.336,137.48,62.283,137.375,62.231,137.27z"/>
		<path fill-rule="evenodd" clip-rule="evenodd" fill="#1E8346" d="M93.952,137.27c0.413,0.28,0.215,0.01,0.158,0.473
			c-0.052,0-0.105,0-0.158,0C93.952,137.585,93.952,137.427,93.952,137.27z"/>
		<path fill-rule="evenodd" clip-rule="evenodd" fill="#1E8346" d="M94.425,137.585c0.172,0.243,0.984,1.476,0.79,1.891
			c-0.526-0.381-0.78-0.612-0.79-1.103C94.057,137.894,94.205,138.16,94.425,137.585z"/>
		<path fill-rule="evenodd" clip-rule="evenodd" fill="#1E8346" d="M100.738,138.531c0.158,0,0.315,0,0.473,0
			c-0.287,0.962-0.601,0.841-1.263,1.261C100.194,138.839,100.778,138.868,100.738,138.531z"/>
		<path fill-rule="evenodd" clip-rule="evenodd" fill="#1E8346" d="M102.632,138.531c0.105,0,0.21,0,0.315,0
			c-0.053,0.158-0.106,0.316-0.158,0.473c-0.052,0-0.105,0-0.158,0c-0.053-0.053-0.106-0.105-0.158-0.158c0-0.053,0-0.106,0-0.158
			C102.526,138.636,102.579,138.583,102.632,138.531z"/>
		<path fill-rule="evenodd" clip-rule="evenodd" fill="#1E8346" d="M57.338,138.846c1.147,0.426,1.268,1.33,2.841,1.418
			c-0.371,0.584-1.62,1.257-2.841,0.788C57.338,140.317,57.338,139.581,57.338,138.846z"/>
		<path fill-rule="evenodd" clip-rule="evenodd" fill="#1E8346" d="M102.316,138.846c0.105,0.105,0.21,0.21,0.316,0.315
			c-0.21,0.052-0.421,0.105-0.631,0.158C102.106,139.161,102.211,139.004,102.316,138.846z"/>
		<path fill-rule="evenodd" clip-rule="evenodd" fill="#1E8346" d="M66.65,139.161c0.053,0.105,0.105,0.21,0.158,0.315
			C66.755,139.371,66.702,139.266,66.65,139.161z"/>
		<path fill-rule="evenodd" clip-rule="evenodd" fill="#1E8346" d="M100.107,140.422c0.368,0,0.737,0,1.105,0
			c0.856,1.222,1.434,1.338,2.367,2.522c-0.842,0.627-0.578,0.142-0.473,1.262c-0.211,0-0.421,0-0.631,0
			C101.389,142.247,100.798,142.435,100.107,140.422z"/>
		<path fill-rule="evenodd" clip-rule="evenodd" fill="#1E8346" d="M103.105,140.738c0.105,0,0.21,0,0.315,0
			c-0.052,0.21-0.105,0.42-0.158,0.631c-0.106-0.053-0.211-0.105-0.316-0.158C103,141.053,103.052,140.895,103.105,140.738z"/>
		<path fill-rule="evenodd" clip-rule="evenodd" fill="#1E8346" d="M103.421,141.053c0.916,0.287,0.957,0.16,1.578,1.103
			c0,0.106,0,0.211,0,0.315c-0.158,0.053-0.315,0.105-0.473,0.158c0.052-0.105,0.105-0.21,0.158-0.316
			c-0.656-0.073-1.083-0.533-1.42-0.946C103.316,141.263,103.368,141.157,103.421,141.053z"/>
		<path fill-rule="evenodd" clip-rule="evenodd" fill="#1E8346" d="M97.581,141.526c0.729,0.353,0.769,0.533,1.578,0.473
			c0.004,0.26,1.136,2.112,1.263,2.049c-0.156,0.954,0.101,1.22-0.631,1.576c0.052-0.105,0.106-0.211,0.158-0.316
			c-1.306-0.216-1.343-2.497-2.999-2.837C97.161,142.156,97.371,141.841,97.581,141.526z"/>
		<path fill-rule="evenodd" clip-rule="evenodd" fill="#1E8346" d="M100.107,142.944c0.105,0.106,0.21,0.211,0.315,0.316
			C100.317,143.155,100.212,143.05,100.107,142.944z"/>
		<path fill-rule="evenodd" clip-rule="evenodd" fill="#1E8346" d="M92.374,144.206c0.211,0,0.421,0,0.631,0c0,0.105,0,0.21,0,0.315
			c-0.263,0.158-0.525,0.315-0.789,0.473C92.268,144.731,92.321,144.468,92.374,144.206z"/>
		<path fill-rule="evenodd" clip-rule="evenodd" fill="#1E8346" d="M93.163,145.151c0.263,0,0.526,0,0.789,0
			c-0.158,0.315-0.316,0.631-0.474,0.946c-0.105-0.105-0.21-0.21-0.315-0.315C93.163,145.572,93.163,145.361,93.163,145.151z"/>
		<path fill-rule="evenodd" clip-rule="evenodd" fill="#1E8346" d="M100.265,145.467c0.052,0.105,0.105,0.21,0.158,0.315
			C100.369,145.677,100.317,145.572,100.265,145.467z"/>
		<path fill-rule="evenodd" clip-rule="evenodd" fill="#1E8346" d="M46.449,145.782c0.316,0,0.631,0,0.947,0
			c0.263,0.473,0.526,0.946,0.789,1.419c0.848-0.284,2.043-0.676,1.736,0c0.105,0,0.21,0,0.315,0
			c-0.137,0.411,0.064,0.55-0.315,0.315c0,0.105,0,0.21,0,0.315c-0.105-0.053-0.21-0.105-0.316-0.158
			c0.105,0.315,0.211,0.631,0.316,0.946c0.421,0,0.842,0,1.263,0c0.021,0.675,0.401,0.726,0,1.262
			c-0.981-0.325-7.35-0.16-10.574-0.158c0.163-0.325,0.025-0.894,0.631-0.631c0.266-0.595,0.675-0.127,1.105-0.473
			c0.461-0.252,0.89-1.157,0.789-1.891C44.847,146.703,46.249,146.548,46.449,145.782z"/>
		<path fill-rule="evenodd" clip-rule="evenodd" fill="#1E8346" d="M69.806,146.728c0.316,0,0.631,0,0.947,0
			c0.636,1.398,0.836,1.387,0.79,4.256c-1.215,0.732-1.481,1.017-2.525,1.419c0.131,0.634,0.181,1.232-0.473,1.576
			c0.105-0.053,0.211-0.105,0.316-0.158c-0.132-0.39-0.13-1.637-0.631-1.419c-0.21-0.42-2.486-1.885-2.999-1.734
			c-0.579-0.022-0.665,0.248-1.105,0c0.334-0.631,0.362-0.262,0.158-0.788c-0.422,0.267-0.167,0.235-0.473-0.158
			c-0.316-0.263-0.631-0.525-0.947-0.788c0-0.053,0-0.105,0-0.158C64.436,147.51,67.328,148.548,69.806,146.728z"/>
		<path fill-rule="evenodd" clip-rule="evenodd" fill="#1E8346" d="M76.276,146.885c1.126,0.929,3.165,4.032,3.63,3.783
			c-0.76,0.749-3.736-0.875-4.103-2.365C76.093,148.082,76.136,147.598,76.276,146.885z"/>
		<path fill-rule="evenodd" clip-rule="evenodd" fill="#1E8346" d="M63.809,150.669c0.186,0.427,0.058,0.596-0.158,1.103
			c-0.105-0.105-0.21-0.21-0.315-0.315C63.493,151.194,63.651,150.931,63.809,150.669z"/>
		<path fill-rule="evenodd" clip-rule="evenodd" fill="#1E8346" d="M63.02,151.772c0.053,0.158,0.105,0.315,0.158,0.473
			c-0.053,0-0.105,0-0.158,0C63.02,152.087,63.02,151.929,63.02,151.772z"/>
		<path fill-rule="evenodd" clip-rule="evenodd" fill="#1E8346" d="M62.704,152.087c0.623,0.763,0.281,1.312,1.105,1.735
			c-0.053,0.21-0.105,0.42-0.158,0.63c-0.42-0.387-0.241-0.215-0.315-0.63c-0.304-0.041-0.843-0.809-0.947-1.261
			C62.856,152.257,62.391,152.52,62.704,152.087z"/>
		<path fill-rule="evenodd" clip-rule="evenodd" fill="#1E8346" d="M68.543,154.137c0.105,0,0.211,0,0.316,0
			C68.754,154.137,68.649,154.137,68.543,154.137z"/>
		<path fill-rule="evenodd" clip-rule="evenodd" fill="#1E8346" d="M63.809,154.294c0.105,0,0.211,0,0.316,0
			c-0.053,0.158-0.105,0.315-0.158,0.473C63.914,154.609,63.861,154.452,63.809,154.294z"/>
		<path fill-rule="evenodd" clip-rule="evenodd" fill="#1E8346" d="M68.228,154.294c0.105,0,0.21,0,0.315,0
			C68.268,154.448,68.509,154.438,68.228,154.294z"/>
		<path fill-rule="evenodd" clip-rule="evenodd" fill="#1E8346" d="M48.027,154.609c0.956,0.172,1.314,0.498,1.894,1.576
			c0,0.052,0,0.105,0,0.158c-0.21-0.053-0.421-0.105-0.631-0.158c0,0.21,0,0.421,0,0.631c0.801,0.11,0.473,0.159,0.789,0.788
			c-1.968-0.081-2.764,0.172-3.946,1.419c0.015-1.677-0.093-1.563-0.316-2.364c1.173-0.146,1.512-0.243,2.209-0.788
			C48.027,155.451,48.027,155.03,48.027,154.609z"/>
		<path fill-rule="evenodd" clip-rule="evenodd" fill="#1E8346" d="M67.912,154.609c0.105,0,0.211,0,0.316,0
			c-0.21,0.21-0.421,0.421-0.631,0.631C67.701,155.03,67.807,154.82,67.912,154.609z"/>
		<path fill-rule="evenodd" clip-rule="evenodd" fill="#1E8346" d="M67.281,155.082c0.105,0.158,0.21,0.315,0.315,0.473
			C67.491,155.398,67.386,155.24,67.281,155.082z"/>
		<path fill-rule="evenodd" clip-rule="evenodd" fill="#1E8346" d="M64.756,155.24c1.27,0.175,1.148,0.174,2.525,0.158
			c-0.106,0.105-0.211,0.21-0.316,0.315c-0.365,0.369-0.951,0.352-1.736,0.315C65.071,155.766,64.913,155.503,64.756,155.24z"/>
	</g>
</g>
</svg>
