<?xml version="1.0" encoding="utf-8"?>
<!-- Generator: Adobe Illustrator 26.0.3, SVG Export Plug-In . SVG Version: 6.00 Build 0)  -->
<svg version="1.1" id="Isolation_Mode" xmlns="http://www.w3.org/2000/svg" xmlns:xlink="http://www.w3.org/1999/xlink" x="0px"
	 y="0px" viewBox="0 0 200 200" enable-background="new 0 0 200 200" xml:space="preserve">
<g>
	<path fill="#1E8346" d="M150.883,69.058c0.372-1.15-0.273-2.238-1.472-2.486c-0.497,0.103-0.963,0.359-1.209-0.299
		c-0.404-0.777-1.475-2.361-0.02-2.581c0.124-0.03,0.23-0.162,0.189-0.296c-1.79-0.743-5.361-0.306-5.172-2.975
		c-0.335-0.799-1.524-1.111-1.737-2.014c-0.229-0.604-0.76-1.078-1.27-1.456c-1.057-0.935,0.292-2.37-0.318-3.438
		c-0.162-0.397-0.02-0.701,0.12-1.067c-0.207-0.67-0.37-1.388-0.304-2.117c0.334-1.16,1.083-2.152,0.872-3.471
		c0.471-2.514-2.148-3.832-3.985-4.851c0,0-1.694-2.423-1.694-2.423l-0.821-0.344c-0.3-1.06-1.409-2.745-2.237-3.467
		c-1.141-1.492-0.837-3.702-3.117-2.184c-0.223-1.257-1.608-0.372-2.282-1.006c-0.692-0.855-1.866-0.642-2.787-0.853
		c-0.622-0.401-1.908-0.283-2.228,0.463c-0.533,0.374-0.051,0.773,0.277,1.073c-0.449,0.466-1.435,0.381-1.679,1.081
		c0.058,0.685-0.452,1.045-0.961,1.405c0.159,0.791-0.255,2.527-1.278,1.654c-0.148-0.111-0.313-0.182-0.464-0.031
		c-0.882,0.352-1.796,0.562-2.32,1.39c-0.566,0.196-1.161,0.403-0.77,1.048c-2.804,0.104,0.678-2.403-2.921-2.056
		c-0.357-0.212-1.711-1.25-2.158-1.138c-0.52-0.415-1.401-1.371-1.614-2.012l-0.953-0.119l-2.29,2.488l-1.443-0.622
		c-0.589,0.425-0.311,2.695-1.219,2.081c-0.483,0.125-0.973,0.289-1.085,0.836c-0.114-0.04-0.187-0.147-0.301-0.189
		c-0.271,0.334-0.278,0.756-0.099,1.094c-0.418,0.13-0.816,0.241-1.031,0.703c-0.023-0.098,0.001-0.2-0.018-0.296
		c-0.277,0.268-0.621,0.212-0.942,0.264c-0.139,0.11,0.295,0.143,0.179,0.373c-0.127,0.145-0.317,0.279-0.463,0.086
		c-0.316,0.053-0.56,0.378-0.858,0.524c-0.304,0.123-0.007,0.413-0.336,0.533c-0.594,0.406-0.677,1.173-1.454,1.25
		c-0.179,0.19-0.055,0.603-0.267,0.749c-0.289-0.012-0.755-0.18-0.737-0.531c-0.32,0.067-0.445-0.116-0.544-0.383
		c-0.34-0.454-1.431-0.294-0.913-1.053c0.264-0.715,0.448-1.3,0.026-1.97c0.279-0.162,0.27-0.388,0.294-0.688
		c0.901-0.71-0.573-0.95,1.284-1.686c0.217-0.178,0.169-0.418,0.17-0.681c0.002-0.349,0.451-0.442,0.636-0.699
		c0.305-0.423-0.182-0.851-0.081-1.301c0.047-0.284,0.295-0.536,0.292-0.818c-0.333-0.088-0.529-0.476-0.487-0.818
		c0.02-0.282,0.545-0.733,0.224-0.924c-1.803-0.604-1.638-1.495-0.324-2.548c0.516-0.138,0.537-0.542,0.515-1.011
		c0.749-0.114,1.377-0.941,0.607-1.5c-0.12-0.19,0.165-0.369,0.234-0.538v-1.608c0.356-0.344,0.599-0.711,0.559-1.201
		c0.078-0.212,0.313-0.167,0.46-0.306c0.123-0.164,0.076-0.424,0.251-0.584c-1.299-0.836-1.29-1.654-1.362-3.079
		c-0.085-0.206-0.18-0.398-0.078-0.611c-0.03-0.346-0.625-0.54-0.56-0.927c0.252-0.286,0.281-0.664,0.34-1.028
		c0.308-0.032,0.69,0.16,0.663-0.31c0.413-0.697,0.026-1.436-0.822-1.386l-0.149,0.338l-0.978,0.015l-1.151-0.739h-1.638
		l-1.564,1.891c-0.164-0.534-1.063-0.749-1.599-0.821c-0.501-0.031-0.519,0.457-0.78,0.711c-0.748-0.342-1.357-0.629-1.281-1.528
		c-0.499-0.272-0.644-0.8-0.478-1.316c-0.388-0.525-0.428-0.689,0.035-1.174c-0.021-0.824,0.5-0.735,1.012-1.248l0.622-3.693
		c-0.327-0.136-0.394,0.222-0.566,0.362c-0.316-0.306-0.933-0.637-0.902-1.12c-1.03-0.607-1.421-3.791-2.861-1.556
		c0.15,0.585-0.731,0.356-0.649,0.884c0.075,0.326-0.069,0.48-0.39,0.371c-0.345,0.028-0.562-0.107-0.576-0.462
		c-0.161-0.51-0.033-1.287-0.589-1.555c-0.565-0.053-0.817-0.458-1.158-0.788c-0.358,0.16-1.017,0.098-1.245,0.414
		c-0.095,0.396-0.461,0.721-0.532,1.137C77.862,6.519,77.338,6.12,77.032,6.3c-0.068,0.152-0.114,0.314-0.323,0.324
		c-0.301,0.046-0.51-0.285-0.786-0.315c-0.708,0.299-1.476-0.526-2.196-0.667C73.572,6.131,74.064,6.3,74.339,6.57
		c0.27,0.347,0.098,0.899,0.314,1.265c0.539,0.191,0.352,1.029-0.184,0.972c-0.734,1.912-3.092,0.04-4.52,0.42
		c-0.311,0.337-0.887,0.185-1.109,0.576c-0.389,0.44-0.1,0.912-0.351,1.353c0.091,0.516-0.301,0.874-0.095,1.405
		c0.025,0.664-0.612,1.107-0.589,1.77c-0.266-0.183-0.462-0.408-0.832-0.296c-0.404-0.106-0.739-0.418-1.064-0.677
		c-0.491,0.407-0.791,1.264-1.533,0.572c-0.443,0.295-0.867,0.704-1.431,0.754c-0.238,0.042-0.24,0.361-0.28,0.556
		c-0.353-0.03-0.592-0.422-0.834-0.639c-0.472,0.735-1.324-0.24-1.731,0.426c-0.474,0.136-1.073,0.056-1.569,0.106
		c-0.264-0.639-1.021-1.759-1.801-1.205c-0.506-1.323-0.999,0.203-0.854,0.877c0.288,0.507-0.042,1.186-0.651,0.908
		c-0.073,1.095-1.648,0.199-1.552,1.372l0.388,0.467l-1.246,1.32c0.009,0.463,0.721,0.965,0.515,1.403
		c-0.236-0.069-0.453,0.169-0.525,0.385l0.705,0.625l-0.096,1.644l-0.827,0.291l-0.033,0.344l-0.404,0.033l-0.02,0.854l-0.774,0.457
		l0.854,0.814c-0.001,1.014,1.344,4.556-0.58,4.032c-0.33-0.024-0.892-0.086-0.929,0.334c-0.035,0.387-0.612,0.295-0.903,0.342
		c-0.161,0.734-0.513,0.361-0.936,0.206c-0.517,0.344-0.769-0.365-0.827-0.782c-0.385,0.161-0.656,0.029-0.611-0.381
		c-0.216,0.294-0.373,0.483-0.021,0.797c0.441,0.657,0.607,1.439,1.175,1.996c0.009,0.498,0.242,1.528,0.886,1.423
		c0.254-0.145,0.251-0.71,0.499-0.759c0.605,0.036,1.258,0.641,0.683,1.171c-0.15,0.62,0.808,0.966,0.847,1.547
		c0.003,0.223-0.156,0.684,0.032,0.832c0.442,0.099,0.606,0.828,0.631,1.242c-0.129,0.435-0.702,0.66-0.753,1.154
		c0.052,0.86,1.048,1.164,1.316,1.923c0.01,0.797,0.747,1.199,1.206,1.77c0.478,0.431,0.634,1.03,1.324,1.212
		c0.89,0.292,0.6,1.735,1.56,1.581c-0.097,0.713,0.355,1.25,0.871,1.688c0.609,0.18,0.781,0.388,0.948,0.964
		c0.136,0.064,0.343,0.091,0.243,0.301c-0.051,0.176,0.209,0.188,0.184,0.379c-0.067,0.412,0.478,0.217,0.23,0.648
		c0.248,0.516,0.778,0.392,1.227,0.363c0.277,0.072,0.374,0.425,0.66,0.475c-0.039,0.232-0.009,0.284,0.174,0.394
		c0.007,0.475,0.401,0.934,0.749,1.219c0.309,0.4-0.561,0.395-0.449,0.777c0.176,0.064,0.391,0.155,0.519,0.3
		c-0.129,0.261-0.566,0.313-0.578,0.615c0.027,0.192-0.069,0.319-0.249,0.315c-0.253,0.175,0.136,0.357,0.292,0.382
		c0.091,0.118,0.077,0.244,0.23,0.264c-0.061,0.478,0.093,0.733,0.588,0.795c0.533,0.377,0.058,1.104,0.646,1.475
		c0.486,0.327,0.562,0.817,0.428,1.344c0.483,0.362,0.057,2.916,0.973,1.451c0.138-0.399,0.391-0.502,0.774-0.536
		c0.199-0.29,0.407-0.649,0.596-0.935c1.304-0.27,1.518,1.811,0.571,2.362c-0.58,0.51,0.229,1.678-1.051,1.709
		c-0.406-0.418-1.656-0.645-1.527,0.248c-0.247,0.149-0.446,0.81-0.785,0.591c-0.076-0.116-0.014-0.399-0.252-0.349
		c-0.41,0.217-0.344,0.676,0.074,0.861c0.533,0.501-0.575,1.348,0.209,1.683c0.041,0.097-0.76,2.417-0.766,2.514
		c0.008,1.35,0.996,3.443,0.036,4.431c-0.189-0.389-0.736-0.898-1.039-0.365c-0.059-0.069-0.108-0.159-0.178-0.215
		c-0.216,0.391-1.073,0.414-0.791,1.063c0.256-0.012,0.383,0.305,0.252,0.533c-0.442,0.104-0.997-0.416-1.395-0.642
		c0.096,0.716-0.565,1.154-1.211,1.084c0.24,0.846-0.566,1.612,0.237,2.334c0.235,0.261-0.222,0.609-0.157,0.903
		c0,0,0.496,0.804,0.496,0.804l-0.169,0.248l0.308,0.546l-0.149,0.407c0.404,0.838,1.689,2.25,2.383,2.869
		c0.197,0.369,0.041,1.163,0.668,0.827l1.059,2.144c0.063-0.021,0.128-0.052,0.189-0.081c0.106,0.249,0.045,0.483,0.178,0.733
		l1.191,0.665l0.079,0.248l2.373,1.787c0.734-0.076,0.91,0.344,0.951,0.972c0.512,0.213,0.426,0.851,0.624,1.288
		c0.258,0.26,0.658,0.465,0.847,0.751c-0.228,1.365,1.279,2.168,0.806,3.603c0.383,1.175,0.639,2.42,0.265,3.733
		c0.046,0.171,0.422,0.547,0.115,0.717c-0.141,0.275,0.223,0.433,0.038,0.742c-1.416-0.589-0.677,0.349-0.895,1.157
		c-0.828,0.648,0.53,0.915,0.795,1.46c0.127,0.436-0.444,0.608-0.251,0.98c0.148,0.808,0.666,1.406,0.741,2.239
		c0.318,0.363,0.794,0.058,0.741,0.831c0.527,0.308,0.879,0.815,1.538,0.812c0.393,0.278,0.1,1.265-0.009,1.679
		c-0.255,0.277,0.003,0.618,0.235,0.808c0.216,0.189,0.167,0.254,0.048,0.5c-0.217,0.526,0.319,0.908,0.49,1.351
		c-0.286,0.482,0.26,0.851,0.185,1.299c-0.043,0.131-0.232,0.385-0.171,0.505c0.379,0.012,0.747-0.098,1.119-0.121
		c-0.215,0.725-0.898,1.736,0.323,1.93v1.483c0.244,0.196,0.409,0.765,0.799,0.557c0.237,0.979-0.826,1.866-1.287,2.624
		c-1.041-0.244-1.23,0.223-1.006,1.214c-0.217,0.684-1.173,0.724-0.967,1.503c0.171,0.719-0.976,0.751-0.991,1.356
		c0.178,0.71-1.014,1.234-0.963,2.137c-0.438,1.009-1.691,1.418-2.109,2.403c-1.45-0.782-0.338,1.638-1.441,1.761
		c-0.215-0.015-0.393-0.261-0.533,0.057c-0.365,0.491-1,0.646-1.387,1.251c-0.599,0.526-0.478,1.096,0.015,1.565
		c0.002,0.197-0.107,0.399,0.068,0.569c0.328,0.336-0.144,0.539-0.063,0.888c0.031,0.125,0.056,0.121-0.012,0.23
		c-1.155,1.475-0.917,3.621-2.075,5.106c-0.24,1.103-1.874,2.223-1.215,3.184c0.008,0.211-0.233,0.109-0.344,0.254
		c-0.069,0.089-0.143,0.459-0.108,0.559c0.736-0.232,0.668,0.236,0.291,0.7c-0.392-0.004-0.569-0.193-0.394,0.381
		c0.035-0.009,0.083,0.009,0.119,0.003c0.144,0.135,0.054,0.213-0.028,0.342c-0.287-0.077-0.597,0.152-0.382,0.425
		c0.259,0.13,0.701,0.037,0.899,0.32c-0.352,0.044-0.518,0.324-0.506,0.648c-0.419-0.401-0.416,0.054-0.373,0.403
		c-0.158-0.243-0.05-0.7-0.231-0.908c-0.495,0.538-0.113,1.478-0.596,1.968c-0.247,0.287-0.12,0.748-0.32,1.088
		c-0.048,0.124-0.321,0.488-0.132,0.596c-0.142,0.188-0.461,0.423-0.103,0.596c0.064,0.058,0.061,0.012,0.052,0.105
		c-0.139,0.356-0.343,0.038-0.48-0.036c-0.148,0.28-0.3,0.902,0.117,0.963c0.089,0.307,0.089,0.782,0.597,0.716
		c0.026,0.433-0.628-0.016-0.729,0.391c-0.201,0.553,0.14,0.605,0.55,0.386c-0.679,1.585-0.831-0.402-1.512,0.255
		c0.004,1.22,0.384,2.374-0.238,3.532c-0.287,1.794-0.243,3.336,0.359,5.09c0.348,0.601-0.047,1.786,0.978,1.505
		c-0.046,0.222,0.026,0.295,0.237,0.296c0.232,0.119,0.085,0.488,0.381,0.596c0.097-0.079,0.165-0.177,0.245-0.269
		c0.083,0.067,0.204,0.164,0.313,0.167c0.211-0.908,0.456-1.123,0.385-2.128c-0.137-0.01-0.289,0.065-0.369-0.094
		c0.367-0.082,0.717-0.277,0.915-0.588c-0.006,0.104-0.033,0.276,0.014,0.364c0.309,0.016,0.591-0.114,0.722-0.386
		c0.33-0.241,0.862-0.189,1.252-0.263c-0.102,0.425-1.069,1.362-0.127,1.355c0.095-0.261,0.399-0.278,0.616-0.411
		c0.163,0.212-0.062,1.172,0.341,0.949c0.246,0.327,0.185,0.73,0.186,1.12c0.101,0.155,0.17,0.429,0.013,0.575
		c-0.242,1.068,2.032,1.515,2.144,0.288c0.171,0.141-0.03,0.387,0.061,0.544c0.559,0.186,0.373,0.169,0.296,0.69
		c0.055,0.522,0.749,0.854,1.219,0.861c0.299-0.108,0.279-0.64,0.663-0.568c-0.058,0.24-0.289,0.436-0.4,0.625
		c0.165,0.486-0.046,1.031-0.586,1.131c0.065,0.44,0.086,0.97,0.218,1.381c0.91,0.452,1.054-0.439,1.135-1.16
		c0.279,0.166,0.146,0.357,0.117,0.611c0.354,0.159,0.489,0.567,0.754,0.823c0.186,0.144,0.523-0.031,0.675,0.145
		c0.153,0.26-0.487,0.693,0.048,0.653c0.432,0.007,0.23,0.572,0.579,0.805c0.263,0.294-0.222,0.504-0.162,0.688
		c0.935,0.113,0.551,1.185,0.754,1.849c0.272,0.53,1.094,0.825,1.639,0.846c0.17-0.446-0.095-1.012,0.299-1.422
		c-0.081,1.155,0.406,2.133,0.888,3.125c0.31,0.005,0.849,0.128,0.735-0.363c0.37,0.11,0.359,0.459,0.584,0.72
		c1.442,0.142-0.092,0.622-0.132,1.328c0.06,0.233,0.075,0.511,0.155,0.734c0.211,0.102,0.289,0.245,0.077,0.397
		c-0.391,1.239,1.429,1.019,1.527,2.041c0.521-0.16,0.555,0.864,1.074,0.514c0.039,0.468,0.125,0.521,0.532,0.751
		c0.186,0.283-0.049,0.733,0.193,0.976c0.147-0.069,0.269-0.211,0.413-0.268c0.154,0.493,0.37,1.095,0.998,1.166
		c0.033-0.128,0.08-0.252,0.133-0.377c0.287,0.356,0.402,1.469,0.528,1.517c0.512-0.426,0.364-1.199,0.44-1.776
		c0.074,0.016,0.131,0.07,0.204,0.078c0.126-0.64-0.346-1.542,0.294-1.981c0.346,0.438,0.637,0.317,1.106,0.169
		c-0.033,0.357,0.219,0.49,0.52,0.575c0.156,0.454-0.199,0.57-0.165,0.852c0.38,0.787,1.177,1.153,1.984,0.884
		c1.407,0.444,2.012,1.497,3.352,0.295c0.098,1.055,1.135,0.36,1.009,1.756c-0.011,0.296,0.55,0.544,0.242,0.78
		c-0.127,0.09-0.156,0.119-0.128,0.287c0.016,0.45,0.548,0.962,0.528,0.205c0.434,0.556,0.936,0.396,1.245-0.182
		c0.404,0.534,0.937,0.335,1.469,0.239c0.382,0.008,0.42,0.597,0.408,0.861c-0.167,0.221-0.579,0.15-0.694,0.463
		c-0.135,0.306,0.311,0.509,0.548,0.603c0.528,0.27-0.42,0.805,0.123,1.3c0.261,0.344-0.21,0.889-0.385,1.169
		c-0.329,0.075-0.873-0.243-0.908,0.327c-0.909,1.49,1.068,1.927,1.415,3.188c0.129,0.397,0.399,0.038,0.569-0.113
		c0.745-0.465,1.181-1.138,1.14-2.031c0.342-0.075,0.83,0.016,1.086-0.257c0.216-0.288,0.293-0.577,0.674-0.678
		c0.647,0.001,1.215-0.09,1.8-0.414c0.512-0.339,0.897-0.243,0.953,0.427h0.437c-0.028,0.489-0.05,1.191,0.442,1.482
		c0.503-0.854,1.18-0.297,1.609,0.273c-0.031-0.227-0.029-0.533,0.165-0.69c0.151-0.09,0.352,0.106,0.417-0.097
		c-0.176-0.634,0.847-0.511,0.785-0.977c-0.418-2.02,2.553-2.528,1.969-4.636c-2.825-1.37-4.602-4.084-6.174-6.652
		c-0.503-1.475-1.953-1.234-3.109-1.7c-0.015,0.118-0.067,0.229-0.07,0.349c-0.413,0.005-0.751,0.082-0.946-0.322
		c-1.322,1.044-3.747,0.834-4.899-0.398c-0.218-0.349-0.545-0.22-0.888-0.269c-1.642-0.723-2.039-2.926-3.316-3.78
		c-1.787-3.537-2.399-7.499-2.991-11.378c-0.544-1.467-0.328-3.437-1.916-4.308c0.135,3.467-1.454-1.005-2.38-1.631
		c-0.72-2.81-0.091-6.162-1.646-8.59c-0.775-0.267-1.825-0.303-2.459,0.284c-0.218,0.198-0.499,0.325-0.774,0.156
		c-0.233-0.143-0.355-0.227-0.561,0.018c-0.242,1.043-0.782,1.046-1.672,0.903c-0.381,0.171-0.54-0.305-0.911-0.287
		c-0.311-0.256-0.546,0.237-0.83-0.063c-0.768-0.845-0.146-1.735,0.708-2.176c-0.684-0.688-1.258-1.452-1.223-2.456
		c-0.338-0.42-0.707-0.843-0.697-1.44c-0.004-0.527-0.391-1.368,0.126-1.704c0.141-0.413-0.139-0.878-0.045-1.338
		c0-0.273-0.166-0.62,0.028-0.829c0.097-0.105,0.265-0.141,0.208-0.352c-0.777-0.621-0.198-1.534,0.165-2.248
		c1.364-0.265-1.637-1.379-0.21-1.97c0.442,0.101,0.812,0.234,1.297,0.099c0.231-0.567-0.137-0.813-0.427-1.237
		c-0.08-0.429,0.316-0.573,0.072-1.082c0.039,0.009,0.094-0.012,0.134-0.001c0.167-0.536,0.496-1.049,0.644-1.586
		c0.463-0.205,0.851-0.438,1.048-0.938c0.437-0.41,0.351-2.323,1.271-1.567c0.339-0.195,0.246-0.594,0.088-0.863
		c-0.272-0.827-0.058-1.77-0.187-2.658c-0.088-0.838,1.178-0.364,1.054-1.047c-0.711-1.234,0.664-2.468,0.812-3.735
		c0.337-1.541,1.791-2.351,2.359-3.635c-0.284-0.284,0.156-0.415,0.028-0.75c-0.49-0.954,0.514-1.784,1.118-2.418
		c0.164-0.449,0.717-0.524,0.66-1.042c0.615-0.976,0.827-0.783,0.042-1.812c0.696-2.358-0.923-4.8,0.311-7.149
		c0.447-0.898,0.448-1.92,1.176-2.711c0.198-0.292-0.08-0.397-0.275-0.576c-0.275-0.246,0.079-0.794-0.119-1.085
		c-0.511-0.381-1.941-1.09-1.212-1.834c0.228-0.15,0.409-0.314,0.495-0.573c0.343-0.157,0.512-0.355,0.584-0.73
		c0.649-0.552,1.882-0.371,2.594-0.83c0.226-0.212-0.014-0.641,0.313-0.721c0.478,1.319,2.417,0.052,3.477,0.314
		c0.437,0.084,0.185-0.582,0.561-0.52c0.472,0.495,1.151,0.64,1.828,0.579c0.864,0.292,1.891,0.255,2.773,0.466
		c0.009,1.145,0.597,1.223-0.76,1.574c-0.362,0.291,0.172,0.97,0.192,1.324c0.083,0.649-0.307,1.214-0.601,1.724
		c-0.087,0.615,0.137,1.211-0.055,1.833c-0.148,0.553-0.278,0.914,0.186,1.353c0.667,1.586-0.739,0.886-0.738,2.146
		c0.183,0.09,0.302,0.278,0.199,0.499c1.642-0.105,0.458,0.729,1.458,0.729c-0.216-1.097,1.736-1.186,2.344-0.837
		c0.034,0.089,0.048,0.285,0.218,0.214c0.802-0.738,2.32,0.28,3.171,0.724c0.125-0.967,1.214-0.425,1.868-0.468
		c0.097-0.596,0.693-0.057,1.02-0.299c0.38-0.822,1.231-0.842,1.96-0.423c0.679,0.092,0.613,0.963,1.116,1.202
		c0.047,0.109,0.005,0.094-0.033,0.17c-0.1,0.207,0.449,0.483,0.631,0.538c-0.163-0.341,0.038-0.997,0.103-0.261
		c0.124,0.339,0.484,0.178,0.721,0.329c0.182,0.117,0.226,0.37,0.394,0.499c0.093-0.211,0.053-0.4-0.029-0.607
		c0.26,0.035,0.546,0.148,0.802,0.158c-0.405,0.415-0.709,0.577-0.007,0.916c0.53,0.652,1.139,1.311,1.738,1.863
		c0.412,0.057,0.199-0.679,0.513-0.385c0.077,0.057,0.267,0.228,0.372,0.202c0.131-0.116,0.278-0.578,0.53-0.306
		c-0.05,0.48-0.717,0.695-1.09,0.906c0.216,1.883,0.765,0.439,1.596,1.364c0.234,0.139,0.621,0.024,0.855,0.116
		c0.102,0.319,0.415,0.3,0.675,0.398c0.222,0.328,0.295,0.813,0.735,0.984c-0.448-0.769-0.389-2.861,0.766-1.357
		c-0.337,0.539,1.302,1.126,1.505,1.691c0.351,0.584,0.027,1.35,0.471,1.835c0.806,0.857,1.232,1.859,1.396,2.971v-1.51
		c-0.84-0.803-1.225-1.958-1.546-3.058c-0.084-0.85-0.735-1.412-0.969-2.177c0.004-0.661,0.228-1.344,0.221-2.012
		c-0.036-0.278,0.021-0.534,0.3-0.653c1.124-0.582-0.606-0.954-0.348-1.695c-0.874-0.002-0.697-1.483-1.655-1.642
		c-0.394-0.191-1.178-0.1-1.138-0.715c-0.146-0.591,0.636-0.935,0.382-1.551c-0.451-0.38-0.345-0.597-0.377-1.122
		c-0.103-0.397-0.402-1.02,0.173-1.124c0.221-0.192-0.232-0.258-0.39-0.394c-0.794-0.991-1.419-2.271-1.643-3.526
		c0.076-1.244,0.182-2.196-0.153-3.218c0.32-0.557,0.763-0.162,1.247-0.143c0.937,0.299,1.409-0.485,2.201-0.571
		c0.093-0.367-0.705-0.432-0.74-0.74c0.491-0.642,1.458-1.217,2.232-1.37c-0.474-0.486,0.374-0.792,0.482-1.25
		c-0.179-1.134,1.216-1.459,1.746-2.08c-0.319-0.566,0.297-1.207,0.425-1.792c-0.085-0.197,0.122-0.477,0.375-0.459
		c0.68-0.086,0.986-0.694,1.395-1.143c0.226-0.201,0.532-0.114,0.799-0.206c0.339-0.156,0.377-0.495,0.824-0.315
		c0.335,0.142,0.543-0.069,0.785-0.239c0.511-0.063,1.097,0.011,1.625-0.078c0.404,0.064,0.314-0.546,0.663-0.221
		c0.598,0.025,1.243-0.902,1.99-0.609c0.246,0.109,0.115,0.342,0.454,0.232c0.021-0.152,0.151-0.358,0.218-0.495
		c0.151,0.129,0.398,0.11,0.583,0.117c0.073,0.248-0.141,0.667,0.243,0.716c0.49,0.209,0.993,0.372,1.453,0.06
		c0.369,0.315,0.832,0.479,1.355,0.44c-0.004-0.046,0.033-0.083,0.008-0.144c0.683-0.287,1.396,0.476,2.031-0.182
		c0.166-0.404,0.256,0.028,0.381,0.186c0.185-0.033,0.43-0.02,0.397-0.277c0.344-0.244,1.055,0.093,1.293-0.498
		c0.712,0.544,2.091,0.925,2.85,0.449c0.751,0.645,1.261-0.088,1.799-0.62c0.516,1.041,0.624-0.641,0.942,0.264
		c0.545-0.076,1.132-0.774,1.457-0.017c0.591-0.026,1.586-0.034,1.992,0.523c-0.685,1.313,1.491,2.699,1.961,0.966
		c0.008-0.493,0.241-0.916,0.764-0.586c0.366,0.035,0.298-0.607,0.739-0.271c0.255,0.05,0.28-0.391,0.499-0.481
		c0.415-0.078,0.964,0.055,1.12-0.49c0.118,0.03,0.177,0.15,0.269,0.219c0.22-0.704,0.618-1.189,1.144-1.656
		c0.059-0.333,0.272-0.658,0.284-0.986c-0.398-0.367-0.588-1.255-0.021-1.535c-0.666-0.261-0.464-1.251,0.199-1.383
		c-0.096-0.057-0.143-0.143-0.192-0.238c0.164-0.136,0.353-0.234,0.54-0.333c-0.298-0.109-0.605-0.624-0.273-0.851
		c0.359,0.245,0.465-0.087,0.745-0.331c-0.663-0.091-0.678-0.632-0.912-1.125c-0.161-0.102-0.496,0.05-0.527-0.209
		c-0.051-0.137-0.056-0.16-0.163-0.241c-0.808-0.523,0.156-1.587,0.628-2.023c0.506-0.018,0.518-0.362,0.459-0.779
		c-0.504-0.104-1.113,0.142-1.46-0.395c0.144-0.191,0.279-0.479,0.54-0.496C150.899,71.459,150.232,69.882,150.883,69.058z"/>
	<path fill="#1E8346" d="M76.408,182.85c-0.105-0.227-0.202-0.547-0.525-0.499c0.094,0.391-0.468,0.36-0.376,0.754
		c0.108,0.319-0.32,0.539-0.098,0.823C76.853,185.953,76.407,183.521,76.408,182.85z"/>
	<path fill="#1E8346" d="M70.613,183.889c-0.29-0.048-0.547,0.141-0.605,0.404C70.361,184.469,71.258,184.313,70.613,183.889z"/>
	<path fill="#1E8346" d="M71.268,183.969c-0.047,0.218,0.472,1.145,0.565,0.596C71.89,184.234,71.644,183.843,71.268,183.969z"/>
	<path fill="#1E8346" d="M75.198,177.259c-0.101-0.173-0.416-0.122-0.259,0.093C75.114,177.395,75.654,177.57,75.198,177.259z"/>
	<path fill="#1E8346" d="M73.049,175.236c-0.179-0.067-0.387-0.045-0.59,0.022c-0.038,0.886,0.175,0.762,0.648,0.242
		C73.554,175.53,73.333,175.278,73.049,175.236z"/>
	<path fill="#1E8346" d="M69.216,170.065c-0.261-0.135-0.659-0.228-0.933-0.035c-0.197,0.958-0.02,1.847,0.669,2.575
		c0.371,0.053,0.198-0.671-0.008-0.816c-0.37-0.233-0.003-0.839,0.342-0.744C69.504,170.796,69.356,170.33,69.216,170.065z"/>
	<path fill="#1E8346" d="M68.245,167.778c-0.017-0.143-0.1-0.33-0.268-0.349C67.742,167.658,68.124,168.303,68.245,167.778z"/>
	<path fill="#1E8346" d="M67.512,167.022c-0.031,0.002-0.063,0.007-0.126,0.035c0.094,0.203,0.13,0.45,0.265,0.635
		C67.676,167.448,68,166.926,67.512,167.022z"/>
	<path fill="#1E8346" d="M67.575,168.033c-0.055-0.186-0.335-0.274-0.476-0.156c0.087,0.293,0.282,0.545,0.467,0.784
		C67.659,168.513,67.589,168.221,67.575,168.033z"/>
	<path fill="#1E8346" d="M63.049,163.853c-0.162,0.242-0.406,0.421-0.61,0.625c0.742,0.88,0.828-0.219,0.809-0.844
		C63.192,163.714,63.105,163.765,63.049,163.853z"/>
	<path fill="#1E8346" d="M62.906,165.553c-0.118-0.278-0.701-0.982-0.964-0.619c0.118,0.435,0.452,0.659,0.69,0.997
		c-0.211,0.302-0.173,0.785-0.149,1.228C63.093,167.544,63.028,165.94,62.906,165.553z"/>
	<path fill="#1E8346" d="M60.203,164.714c-0.112-0.212-0.338-0.244-0.523-0.311c-0.229-0.287-0.116-1.016-0.752-0.776
		c0.394,0.749-0.398,1.345-0.027,2.065c-0.22,1.043-0.163,2.141,0.18,3.207c0.684,0.428,0.377-1.522,1.076-0.651
		c0.053,0.052,0.198,0.145,0.244,0.043c-0.06-0.297-0.157-0.589,0.153-0.818c0.309-0.309-0.153-0.613-0.223-0.933
		c-0.125-0.637,0.739-1.105,0.365-1.776C60.508,164.874,60.342,164.872,60.203,164.714z"/>
	<path fill="#1E8346" d="M58.852,150.592c-0.467,0.588-0.475,1.483-0.413,2.221c0.654,0.258,1.423-0.701,0.737-1.145
		c-0.111-0.175-0.328-0.264-0.436-0.428C58.672,151.044,58.979,150.854,58.852,150.592z"/>
	<path fill="#1E8346" d="M53.918,147.458c-0.14-0.114-0.297-0.002-0.393,0.114C53.556,148.065,54.525,147.879,53.918,147.458z"/>
	<path fill="#1E8346" d="M60.536,144.033c0.005-0.15-0.024-0.268-0.139-0.384C59.946,143.826,60.254,144.161,60.536,144.033z"/>
	<path fill="#1E8346" d="M61.124,142.644c0.029-0.084,0.144-0.183,0.007-0.229c-0.247,0.062-0.326,0.283-0.219,0.503
		C61.039,142.895,61.066,142.742,61.124,142.644z"/>
	<path fill="#1E8346" d="M76.325,146.417c-0.138,0.066-0.106,0.348-0.072,0.459c0.178-0.052,0.571-0.308,0.388-0.534
		C76.529,146.351,76.425,146.365,76.325,146.417z"/>
	<path fill="#1E8346" d="M81.322,143.967c-0.093-0.306-0.373-0.843-0.729-0.803c-0.171,0.284-0.756,0.093-0.769,0.537
		C79.936,144.413,81.633,145.257,81.322,143.967z"/>
	<path fill="#1E8346" d="M81.493,146.118c-0.039-0.088-0.213-0.138-0.251-0.23c-0.716,0.707-1.194-0.392-1.946,0.172
		c0.145,0.396,0.233,0.699,0.07,1.075c0.171,1.567,0.845,0.756,1.728,0.327c0.31,0,0.103-0.281,0.026-0.429
		C81.033,146.679,81.483,146.43,81.493,146.118z"/>
	<path fill="#1E8346" d="M78.212,139.056c-0.075,0.016-0.102,0.086-0.167,0.159C78.461,140.219,78.748,139.345,78.212,139.056z"/>
	<path fill="#1E8346" d="M110.626,114.983c-0.409-0.538-1.335-2.159-2.065-1.51c0.581,0.479,0.106,1.734,0.814,2.004
		c0.329,0.012,0.771,0.198,0.735-0.279c0.202,0.112,0.376,0.277,0.57,0.395C110.73,115.398,110.66,115.177,110.626,114.983z"/>
	<path fill="#1E8346" d="M112.855,119.017c-0.614,0.037-0.242-0.457-0.525-0.703c-0.097,0.126-0.152,0.341-0.305,0.395
		c0.05,0.147,0.24,0.297-0.045,0.356c0.002,0.297,0.103,0.64,0.074,0.954c-0.04,0.268,0.423,0.333,0.607,0.428
		C113.014,120.297,112.892,119.347,112.855,119.017z"/>
	<path fill="#1E8346" d="M111.537,117.33c-0.151-0.023-0.752,0.115-0.396,0.206c0.069,0.109,0.193,0.038,0.287,0.141
		C111.54,117.697,111.799,117.237,111.537,117.33z"/>
</g>
</svg>
