<?xml version="1.0" encoding="utf-8"?>
<!-- Generator: Adobe Illustrator 26.0.3, SVG Export Plug-In . SVG Version: 6.00 Build 0)  -->
<svg version="1.1" xmlns="http://www.w3.org/2000/svg" xmlns:xlink="http://www.w3.org/1999/xlink" x="0px" y="0px"
	 viewBox="0 0 200 200" enable-background="new 0 0 200 200" xml:space="preserve">
<g id="Layer_1">
</g>
<g id="c">
</g>
<g id="Isolation_Mode">
	<g>
		<path fill="#1E8346" d="M192.693,144.91c-0.256-0.592-0.388-1.078-0.903-1.491c-0.276-0.222-0.447-0.486-0.593-0.824
			c-0.261,0.058-0.614,0.504-0.91,0.404c-0.175-0.059-0.165-0.347-0.274-0.498c-0.343-0.476-1.012-0.816-1.465-1.173
			c-0.374-0.295-0.636-0.65-0.775-1.104c-0.108-0.355-0.079-0.759-0.211-1.103c-0.105-0.274-0.39-0.518-0.388-0.833
			c0.001-0.306,0.29-0.697,0.49-0.902c0.133-0.135,0.256-0.182,0.331-0.36c0.114-0.272-0.011-0.353,0.248-0.583
			c0.255-0.227,0.364-0.261,0.444-0.631c0.095-0.436,0.071-0.374,0.502-0.537c1.128-0.426-0.183-1.663-0.801-1.93
			c-0.066-0.029-0.805-0.587-0.83-0.705c-0.093-0.438,0.259-0.923,0.582-1.257c-0.33-0.645-0.422-0.572-0.507-1.236
			c-0.062-0.481-0.117-0.974-0.139-1.458c-0.044-0.981-0.145-1.629-1.237-1.882c-0.511-1.147-0.915-2.102-1.206-3.344
			c-0.096-0.41-0.236-0.779-0.393-1.172c-0.302-0.758-0.379-0.579-1.104-0.836c-0.926-0.329-1.201-0.929-1.206-1.84
			c-0.005-1.054-0.32-1.777-0.597-2.763c-0.109-0.386-0.228-0.831-0.035-1.196c0.135-0.256,0.653-0.386,0.636-0.744
			c-0.022-0.469-1.623-0.73-2.111-0.825c-1.025-0.2-2.038-0.212-2.935-0.805c-0.617-0.408-1.231-0.897-1.825-1.337
			c-0.754-0.558-1.421-1.208-2.206-1.704c-0.645-0.407-1.833-0.52-2.148-1.383c-0.529,0.133-0.781-0.431-1.274-0.563
			c-0.421-0.112-0.903-0.104-1.287,0.108c-0.369,0.204-0.31,0.394-0.364,0.769c-0.241,0.082-0.495,0.025-0.743,0.054
			c-0.425,0.05-0.359,0.123-0.358,0.492c0,0.177-0.044,0.425-0.005,0.596c0.076,0.334,0.428,0.448,0.537,0.729
			c0.048,0.125,0.009,0.441-0.111,0.502c-0.188,0.094-0.374-0.186-0.533-0.243c-0.547-0.198-0.703,0.345-1.121,0.432
			c-0.301,0.063-0.812-0.281-1.129-0.33c-0.345-0.053-0.873,0.035-1.174-0.136c-0.481-0.274-0.361-1.383-1.071-1.333
			c-0.478,0.034-0.511,0.252-0.968-0.127c-0.166-0.138-0.477-0.368-0.573-0.566c-0.104-0.214,0.016-0.483,0.038-0.692
			c0.029-0.28-0.041-0.375-0.128-0.617c-0.159-0.442-0.126-0.618-0.523-0.939c-0.322-0.26-0.562-0.479-0.684-0.894
			c-0.161-0.547-0.222-1.484,0.186-1.93c-0.139-0.503-0.557-1.297-0.812-1.749c-0.065-0.115-0.141-0.322-0.236-0.403
			c-0.15-0.127-0.419-0.096-0.498-0.304c-0.118-0.309,0.289-0.875,0.35-1.187c0.082-0.42,0.176-0.513,0.536-0.718
			c-0.007-0.049-0.024-0.214-0.043-0.259c0.349-0.617,0.668-0.653,1.254-0.436c0.425,0.157,0.685,0.297,1.102,0.532
			c1.055-0.875,0.444-2.104,0.048-3.148c-0.373-0.982-1.074-0.237-1.801-0.25c-0.749-0.013-1.162-1.309-1.134-1.984
			c0.024-0.562,0.062-0.677-0.273-1.06c-0.193-0.221-0.276-0.369-0.551-0.559c0.306-0.437-0.335-0.55-0.504-0.925
			c-0.148-0.33-0.174-0.561-0.365-0.835c-0.129-0.186-0.213-0.21-0.288-0.502c-0.23-0.902-0.122-0.66-1.039-0.661
			c-0.335-0.001-0.395,0.026-0.568-0.295c-0.093-0.172-0.066-0.398-0.148-0.561c-0.081-0.161-0.207-0.261-0.325-0.411
			c0.266-0.263,0.235-0.563,0.234-0.915c-0.001-0.199-0.031-0.431-0.01-0.625c0.009-0.082,0.101-0.352,0.101-0.352
			c-0.031-0.568-0.86-0.874-1.298-1.229c0.594-0.129,1.472-0.329,1.886-0.811c0.412-0.481,0.485-1.001,0.485-1.605
			c-0.295-0.47-0.539,0.173-0.809,0.215c-0.274,0.043-0.8-0.325-1.021-0.463c-0.352-0.218-0.229-0.132-0.572-0.003
			c-0.184,0.069-0.326,0.009-0.496,0.013c-0.349,0.008-0.618,0.319-0.993,0.403c-0.237,0.053-0.492,0.114-0.735,0.129
			c-0.16,0.01-0.393-0.069-0.536-0.013c-0.291,0.114-0.327,0.639-0.608,0.687c0.097,0.355,0.195,0.945-0.216,1.182
			c-0.217,0.125-0.629,0.045-0.872,0.135c-0.308,0.114-0.526,0.117-0.923,0.124c-0.513,0.009-0.361,0.258-0.677,0.596
			c-0.21,0.224-0.352,0.163-0.685,0.139c-0.343-0.024-0.29,0.076-0.585,0.179c-0.223,0.078-0.611,0.025-0.839-0.02
			c-0.33-0.065-0.404-0.243-0.66-0.395c-0.246-0.147-0.498-0.098-0.778-0.078c-0.208,0.015-0.398,0-0.591,0.094
			c-0.156,0.076-0.223,0.23-0.355,0.312c-0.17,0.106-0.277,0.117-0.506,0.078c-0.288-0.048-0.507-0.114-0.806-0.115
			c-0.435-0.002-0.621,0.09-0.984,0.233c-0.241,0.095-0.113,0.173-0.348-0.038c-0.205-0.184-0.199-0.461-0.506-0.527
			c-0.458-0.099-0.808,0.304-1.121,0.517c-0.329,0.224-0.792-0.018-1.018-0.353c-0.413,0.12-0.851,0.476-1.257,0.53
			c-0.198-0.38-0.084-0.62-0.574-0.737c-0.207-0.05-0.43,0.008-0.637-0.054c-0.242-0.074-0.407-0.275-0.624-0.4
			c-0.107-0.062-0.404-0.281-0.512-0.286c-0.173-0.008-0.339,0.157-0.511,0.19c-0.277,0.053-1.072-0.06-1.268-0.242
			c-0.262,0.236-0.232,0.576-0.433,0.829c-0.15,0.188-0.575,0.431-0.779,0.511c-0.103-0.191-0.233-0.743-0.366-0.851
			c-0.187-0.153-1.02,0.056-1.263,0.113c-0.266,0.062-0.324,0.065-0.451,0.291c-0.113,0.201-0.026,0.501-0.185,0.652
			c-0.201,0.192-1.137-0.022-1.444,0.065c-0.368,0.104-0.654,0.24-1.051,0.285c-0.193,0.022-0.421,0.011-0.606,0.087
			c-0.258,0.107-0.243,0.244-0.404,0.445c-0.445,0.557-0.697,1.369-0.88,2.151c-0.041,0.174-0.059,0.506-0.162,0.642
			c-0.16,0.214-0.531,0.222-0.73,0.393c-0.31,0.268-0.236,0.651-0.158,1.031c-0.853,0.432-0.81-1.359-0.873-1.71
			c-0.337,0.03-0.535-0.23-0.653-0.507c-0.176-0.415-0.062-0.486-0.585-0.488c-0.378-0.002-0.844,0.066-1.209-0.032
			c-0.323-0.087-0.345-0.223-0.495-0.513c-0.153-0.296-0.241-0.547-0.311-0.874c-0.064-0.295-0.007-0.676-0.103-0.957
			c-0.125-0.366-0.57-0.726-0.985-0.66c-0.291,0.393-0.827,0.467-1.277,0.464c-0.054,0.139-0.056,0.284-0.081,0.432
			c-0.384-0.071-0.535,0.295-0.54,0.598c-0.197,0.038-0.403-0.002-0.585,0.049c-0.032,0.2,0.044,0.676-0.155,0.828
			c-0.2,0.153-0.738,0.008-0.97,0.005c-0.334-0.005-0.761-0.065-1.089,0.017c-0.326,0.081-0.565,0.581-0.892,0.514
			c-0.387-0.08-0.699-1.054-0.797-1.336c-0.071-0.206-0.127-0.46-0.07-0.678c0.025-0.096,0.107-0.146,0.137-0.229
			c0.058-0.159,0.026-0.337,0.075-0.48c0.148-0.43,0.676-0.373,0.763-0.923c0.072-0.457-0.01-1.152-0.211-1.55
			c-0.308-0.609-0.34-0.721-1.067-0.666c-0.929,0.071-1.96,0.144-2.851,0.409c-0.033-0.141-0.081-0.278-0.123-0.416
			c-0.475-0.058-0.545,0.141-0.793,0.466c-0.146-0.107-0.263-0.269-0.431-0.379c-0.098-0.064-0.313-0.108-0.392-0.205
			c-0.187-0.231-0.242-0.85-0.331-1.128c-0.284-0.884,0.828-1.476,0.412-2.414c-0.264-0.596-0.726-0.544-1.177-0.878
			c-0.223-0.166-0.354-0.565-0.695-0.422c-0.253,0.106-0.137,0.292-0.051,0.54c-0.43,0.135-0.879,0.136-1.296,0.259
			c0.081,1.21-1.83,0.303-2.206,0.889c-0.093,0.145-0.105,0.553-0.186,0.736c-0.052,0.116-0.114,0.234-0.19,0.336
			c-0.398,0.534-0.685,0.47-1.114,0.041c-0.392-0.393-0.333-0.333-0.727,0.018c-0.509,0.454-0.942,0.561-1.615,0.479
			c-0.366-0.045-1.403-0.198-1.729-0.022c-0.247,0.133-0.083,0.577-0.511,0.525c-0.031,0.461,0.014,0.924-0.04,1.385
			c-0.057,0.493-0.225,0.868-0.408,1.322c-0.323-0.01-0.736,0.111-0.968-0.175c-0.675,0.988-1.469-1.022-2.071-0.359
			c-0.191,0.21-0.097,0.58-0.309,0.784c-0.221,0.212-0.192,0.12-0.393,0.036c-0.045-0.019-0.036-0.127-0.068-0.151
			c-0.164-0.121-0.455-0.156-0.653-0.177c-0.152,0.298-0.581,0.632-0.9,0.7c-0.146,0.031-0.558,0.061-0.704,0.032
			c-0.419-0.081-0.464-0.422-0.948-0.332c-0.154-0.318-0.49-0.884-0.415-1.222c0.091-0.405,0.198-0.528,0.116-0.979
			c-0.077-0.419-0.235-0.713-0.6-0.952c-0.389-0.255-0.797-0.369-1.082-0.773c-0.241-0.341-0.21-0.83-0.455-1.204
			c-0.172-0.263-0.391-0.509-0.659-0.668c-0.388-0.231-0.843-0.238-1.28-0.266c-0.542-0.035-0.671-0.025-0.931-0.54
			c-0.221,0.024-0.42-0.035-0.567-0.202c-0.006,0.154,0.014,0.301-0.017,0.452c-0.327,0.092-0.819-0.074-1.096,0.125
			c-0.209,0.15-0.172,0.496-0.393,0.58c-0.115-0.326-0.32-0.491-0.649-0.618c-0.168,0.215-0.26,0.599-0.482,0.722
			c-0.401,0.224-0.783-0.308-0.986-0.557c-0.297,0.122-0.365,0.464-0.553,0.709c-0.105,0.136,0.008,0.111-0.151,0.217
			c-0.093,0.062-0.257,0.004-0.352,0.074c-0.219,0.161-0.028,0.273-0.108,0.433c-0.071,0.144-0.294,0.269-0.446,0.356
			c-0.426,0.247-1.121,0.187-1.508-0.186c-0.139-0.134-0.078-0.424-0.183-0.586c-0.112-0.173-0.375-0.26-0.539-0.442
			c-0.245,0.125-0.287,0.422-0.504,0.558c-0.204,0.128-0.763,0.099-1.001,0.007c-0.41-0.159-0.695-0.573-0.944-0.912
			c-0.2,0.048-0.43,0.25-0.585,0.385c-0.373,0.322-0.281,0.314-0.762,0.256c-0.373-0.045-0.402,0.074-0.59,0.348
			c-0.174,0.255-0.409,0.534-0.732,0.612c-0.535,0.129-0.328-0.383-0.374-0.738c-0.32-0.133-0.724,0.054-1.068-0.013
			c-0.385-0.075-0.253-0.32-0.489-0.457c-0.604-0.351-0.558,0.938-0.773,1.153c-0.445,0.446-0.785,0.07-1.206-0.166
			c-0.537-0.301-0.94-0.764-1.504-1.03c-0.312-0.146-0.629-0.348-0.971-0.383c-0.138-0.014-0.379,0.081-0.493,0.051
			c-0.05-0.013-0.135-0.093-0.16-0.099c-0.233-0.052-0.198-0.158-0.477,0.017c-0.199,0.125-0.285,0.284-0.521,0.331
			c-0.489,0.099-0.66-0.278-1.011-0.401c-0.353-0.124-0.765,0.14-0.958,0.403c-0.159,0.216-0.263,0.678-0.514,0.791
			c-0.135,0.06-0.373-0.085-0.483,0.031c-0.076,0.08-0.014,0.409-0.018,0.524c-0.422,0.053-0.845-0.167-1.253-0.063
			c-0.233,0.059-0.216,0.332-0.395,0.396c-0.205,0.073-0.181-0.066-0.33-0.183c-0.371-0.29-0.375,0.02-0.756-0.014
			c-0.295-0.027-0.559-0.395-0.695-0.633c-0.323,0.355-0.63,0.992-1.059,1.192c-0.469-0.363-0.647-0.811-0.369-1.318
			c0.23-0.42,0.404-0.848,0.149-1.28c-0.129-0.218-0.166-0.147-0.207-0.411c-0.037-0.238-0.029-0.273-0.134-0.463
			c-0.245-0.445-0.425-0.772-0.427-1.313c-0.276-0.311,0.118-0.58,0.258-0.849c0.075-0.143,0.124-0.071,0.127-0.235
			c0.004-0.16-0.197-0.4-0.279-0.522c-0.282-0.416-0.664-0.817-0.863-1.283c-0.164-0.385-0.072-0.779-0.106-1.199
			c-0.5-0.006-0.424-0.048-0.454-0.513c-0.017-0.262-0.063-0.539-0.133-0.792c-0.049-0.175-0.251-0.474-0.173-0.655
			c0.105-0.243,0.773-0.373,0.998-0.524c0.474-0.316,0.475-0.721,0.757-1.167c0.095,0.059,0.181,0.021,0.274,0.049
			c0.078-0.214,0.251-0.364,0.336-0.579c0.103-0.26,0.086-0.529,0.085-0.803c-0.003-0.392-0.029-0.777-0.171-1.142
			c-0.114-0.292-0.275-0.559-0.058-0.852c0.131,0.14,0.313,0.246,0.426,0.411c0.145,0.211,0.184,0.471,0.305,0.696
			c0.082-0.149,0.122-0.318,0.159-0.482c1.337,0.397,1.02,1.306,1.021,2.39c0.315-0.006,0.651-0.09,0.886-0.297
			c0.049,0.194,0.05,0.392,0.108,0.586c0.374,0.092,0.571-0.29,0.856-0.246c0.194,0.03,0.111,0.165,0.317,0.105
			c0.161-0.047,0.203-0.259,0.407-0.294c0.027-0.635-0.307-1.208-0.461-1.809c-0.145-0.564-0.189-1.185-0.074-1.768
			c0.089-0.455,0.156-0.967,0.274-1.405c0.033-0.124,0.12-0.164,0.147-0.319c0.041-0.226-0.08-0.473,0.012-0.697
			c0.276,0.006,0.472,0.01,0.718,0.146c0.104,0.058,0.241,0.231,0.318,0.266c0.202,0.091,0.412,0.034,0.65-0.002
			c0.96-0.141,1.68-0.011,2.306,0.74c0.017-0.267-0.049-0.65,0.167-0.864c0.26-0.256,0.814-0.144,1.134-0.254
			c0.431-0.148,0.752-0.527,1.155-0.738c0.448-0.235,0.848-0.499,1.301-0.718c0.309-0.149,0.673-0.142,1.003-0.218
			c0.313-0.071,0.599-0.226,0.89-0.354c0.421-0.185,0.862-0.373,1.251-0.623c0.278-0.179,0.48-0.278,0.831-0.253
			c0.397,0.028,0.79,0.141,1.151,0.3c0.456,0.2,0.834,0.415,1.177,0.773c0.204,0.214,0.361,0.3,0.63,0.451
			c0.353,0.198,0.663,0.429,0.995,0.65c0.19,0.126,0.539,0.193,0.674,0.375c0.571,0,1.138-0.025,1.709-0.041
			c0.537-0.015,0.967,0.315,1.349,0.671c0.209,0.194,0.33,0.419,0.459,0.67c0.069,0.136,0.097,0.306,0.241,0.386
			c0.212,0.117,0.287-0.061,0.5-0.104c0.193-0.039,0.408-0.029,0.569,0.081c0.255,0.174,0.304,0.495,0.584,0.63
			c0.308,0.148,0.633,0.127,0.967,0.127c0.435,0,0.922-0.066,1.347,0.054c0.249,0.07,0.19,0.089,0.281,0.309
			c0.094,0.228,0.194,0.339,0.4,0.471c0.391,0.252,0.716,0.494,0.447,0.981c-0.231,0.417-0.772,0.462-1.111,0.758
			c-0.177,0.155-0.24,0.383-0.399,0.547c-0.125,0.128-0.413,0.159-0.501,0.311c-0.057,0.099-0.001,0.425,0.119,0.456
			c0.074,0.019,0.295-0.177,0.334-0.22c0.105-0.112,0.15-0.289,0.267-0.392c0.09-0.08,0.23-0.126,0.335-0.195
			c0.291-0.192,0.416-0.154,0.769-0.154c0.995-0.005,1.333,0.042,1.82-0.872c0.089,0.015,0.184-0.003,0.269,0.008
			c0.083-0.67-0.012-1.371-0.047-2.038c-0.052-1,0.42-1.273,1.359-1.463c0.826-0.167,1.522-0.124,2.047-0.947
			c0.296-0.461-0.118-1.969,0.825-1.593c-0.042,0.175,0.03,0.385,0.005,0.559c0.528,0.063,1.17,0.282,1.673,0.271
			c0.564-0.012,1.154-0.368,1.738-0.403c0.231-0.529,0.358-1.168,0.453-1.728c-0.647,0.003-1.297,0-1.945,0
			c-0.823,0-1.347,0.154-2.108,0.467c-0.494,0.204-0.998,0.518-1.531,0.592c-0.331,0.045-0.704-0.009-1.038,0.007
			c-0.643,0.03-1.347,0.088-1.979,0.206c-0.361-0.535-0.947-1.07-1.204-1.656c-0.338-0.771-0.086-1.707-0.437-2.497
			c-0.114-0.257,0.312-0.448,0.4-0.664c-0.237-0.14-0.344-0.265-0.427-0.528c-0.736,0.004-1.728,0.138-2.382-0.225
			c-0.303-0.168-0.545-0.489-0.855-0.63c-0.37-0.168-0.842-0.069-1.19-0.294c-0.545-0.353-0.774-1.137-1.051-1.685
			c-0.223-0.441-0.12-0.493,0.259-0.743c0.331-0.217,0.713-0.264,1.076-0.409c0.328-0.131,0.643-0.31,0.958-0.47
			c0.246-0.125,0.499-0.286,0.771-0.328c0.182-0.028,0.313,0.029,0.463-0.053c0.581-0.316,0.371-0.804,0.576-1.262
			c0.234-0.523,1.082-0.11,1.542-0.231c0.432-0.114,0.6-0.806,0.818-1.168c0.264-0.439,0.499-0.935,0.936-1.225
			c0.419-0.278,0.877-0.543,1.306-0.811c0.217-0.135,0.376-0.154,0.578-0.201c0.198-0.047,0.127,0.097,0.265-0.094
			c0.212-0.294-0.076-0.611,0.227-0.866c0.239-0.202,0.535-0.182,0.746-0.442c0.149-0.184,0.272-0.451,0.396-0.646
			c0.17-0.268,0.138-0.254-0.155-0.533c-0.397-0.379-0.837-0.675-1.361-0.873c-0.457-0.173-1.041-0.281-1.355-0.667
			c0.001-0.382,0.031-0.795,0.101-1.169c0.121,0.137,0.229,0.296,0.345,0.438c0.072,0.089,0.208,0.347,0.325,0.385
			c0.219,0.072,0.457-0.187,0.634-0.266c-0.187-0.389-0.423-0.722-0.788-0.965c-0.336-0.224-0.902-0.441-1.092-0.834
			c-0.049-0.103-0.025-0.226-0.058-0.331c-0.04-0.126-0.07-0.139-0.183-0.233c-0.492-0.41-0.905-0.978-1.183-1.553
			c-0.201-0.416-0.296-0.965-0.586-1.325c-0.239-0.297-0.773-0.068-0.994-0.43c-0.173-0.283-0.222-0.647-0.376-0.943
			c-0.324-0.623-0.88-1.016-1.603-0.863c-0.379,0.08-0.72,0.287-1.011,0.536c-0.19,0.162-0.626,0.462-0.593,0.711
			c0.05,0.382,0.648,2.078-0.244,1.912c0.507,1.063,0.106,1.727-0.967,2.089c-0.545,0.183-0.897,0.033-1.21,0.517
			c-0.131,0.202-0.165,0.46-0.334,0.628c-0.24,0.24-0.787,0.469-1.095,0.538c-0.302,0.068-0.243,0.016-0.461-0.052
			c-0.136-0.042-0.157-0.139-0.326-0.176c-0.209-0.046-0.538,0.039-0.744,0.1c-0.723,0.215-0.715,0.863-1.063,1.457
			c-0.511,0.872-1.789,1.163-2.627,1.58c-0.031-0.082-0.176-0.17-0.208-0.248c-0.313,0.134-0.506,0.443-0.779,0.562
			c-0.175,0.076-0.488,0.033-0.681,0.026c-0.755-0.029-0.998,0.042-1.67,0.397c-0.287,0.151-0.527,0.143-0.725,0.178
			c-0.209,0.038-0.345,0.02-0.576,0.248c-0.426,0.42-0.59,1.041-0.916,1.532c-0.166,0.249-0.033,0.212-0.339,0.329
			c-0.216,0.083-0.628,0.149-0.857,0.179c-0.313,0.041-0.847,0.064-1.085-0.13c-0.336-0.274-0.247-0.795-0.464-1.124
			c-0.236-0.359-0.796-0.457-1.153-0.686c-0.8-0.514-0.396-1.633-1.284-2.068c-0.512-0.251-1.007-0.416-1.489-0.706
			c-0.331-0.199-0.761-0.377-1.145-0.434c-0.314-0.047-1.013-0.104-1.286,0.062c-0.333,0.203-0.675,0.879-0.619,1.24
			c0.069,0.439,0.216,0.409-0.081,0.828c-0.235,0.332-0.3,0.381-0.344,0.819c-0.084,0.847-0.136,1.573,0.144,2.372
			c0.23,0.658-0.109,0.897-0.1,1.496h-1.276c-0.547,0.004-0.467,0.018-0.811,0.319c-0.252,0.22-0.6,0.338-0.846,0.56
			c-0.454,0.41,0.116,0.684,0.486,1.035c0.284,0.269,0.769,0.676,0.764,1.073c-0.005,0.366-0.473,1.031,0.186,1.105
			c0.045,0.221-0.027,0.537,0.046,0.742c0.049,0.136,0.215,0.209,0.257,0.331c0.077,0.22-0.004,0.328,0.023,0.534
			c0.035,0.265,0.207,0.339,0.294,0.562c0.056,0.143-0.03,0.318,0.042,0.476c0.045,0.099,0.246,0.19,0.315,0.264
			c0.32,0.347,0.368,0.364,0.28,0.807c-0.064,0.326-0.313,1.036-0.499,1.279c-0.399,0.522-0.789-0.048-1.331-0.068
			c0.005,0.356,0.12,0.669,0.418,0.874c0.221,0.152,0.779,0.127,0.823,0.45c0.028,0.199-0.335,0.535-0.359,0.78
			c-0.047,0.466,0.453,0.805,0.132,1.239c-0.879-0.419-1.796-0.644-2.775-0.725c-1.238-0.104-2.556-0.58-3.782-0.504
			c-0.625,0.039-1.269,0.115-1.888,0.217c-0.595,0.098-1.448,0.159-1.976,0.474c-0.343,0.205-0.329,0.569-0.627,0.771
			c-0.328,0.222-0.912,0.128-1.284,0.333c-0.183-0.274-0.302-0.592-0.467-0.88c-0.7,0.572-1.782,0.658-2.611,0.917
			c-0.721,0.225-1.411,0.437-2.149,0.596c-0.475,0.102-0.704,0.082-0.79,0.518c-0.182,0.931,0.881,0.939,1.495,0.991
			c0.363,0.031,1.052,0.364,1.388,0.307c0.218-0.037,0.135-0.173,0.284-0.215c0.393-0.111,0.854-0.077,1.28-0.06
			c1.976,0.079,3.552-1.421,5.516-1.418c0.182,0,0.609,0.095,0.761-0.003c0.361-0.231,0.148-0.714,0.8-0.607
			c0.623,0.102,0.509,0.838,0.325,1.293c-0.091,0.224-0.291,0.627-0.452,0.805c-0.24,0.265-0.354,0.147-0.632,0.272
			c-0.307,0.138-0.274,0.07-0.292,0.522c-0.011,0.264-0.005,0.534,0.005,0.798c-0.285-0.474-0.362-0.484-0.888-0.483
			c-0.553,0-0.761-0.015-1.016,0.481c0.036-1.051-0.273-0.691-1.137-0.82c0.024,0.292,0.295,0.454,0.396,0.672
			c0.091,0.196,0.109,0.444,0.214,0.66c0.34,0.702,0.609,1.455,0.887,2.186c0.296,0.781,0.823,1.266,0.227,2.015
			c-0.179,0.225-0.374,0.531-0.622,0.699c-0.308,0.208-0.539,0.193-0.929,0.172c0.009-0.566,0.075-1.219-0.042-1.763
			c-0.113-0.528-0.395-1.36-0.703-1.759c-0.51,0.458,0.163,1.284,0.219,1.792c0.033,0.301,0.016,0.642,0,0.945
			c-0.024,0.451-0.154,0.55-0.44,0.879c-0.745-0.491-0.539,0.613-0.656,1.026c-0.227-0.527-0.525-0.959-0.575-1.547
			c-0.003,0.337-0.203,0.141-0.278,0.265c-0.047,0.076-0.071,0.169-0.119,0.253c-0.065,0.114,0.068,0.275-0.051,0.383
			c-0.083,0.075-0.421,0.011-0.515,0.02c-0.309,0.03-0.505,0.105-0.746,0.282c-0.202,0.148-0.173,0.295-0.41,0.281
			c-0.351-0.02-0.613-0.523-1.047-0.525c-0.02,0.856,0.21,1.833,0.013,2.676c-0.143,0.613-1.024,1.204-0.804,1.871
			c0.114,0.346,0.533,0.377,0.614,0.736c0.05,0.222-0.051,0.424-0.089,0.631c-0.151,0.831-0.401,0.993-1.046,1.524
			c-0.267,0.219-0.518,0.402-0.671,0.716c-0.18,0.371-0.026,0.442-0.017,0.782c0.014,0.49,0.05,1.007-0.602,0.968
			c-0.319-0.019-0.347-0.229-0.566-0.275c-0.292-0.062-0.68,0.252-0.992,0.277c-0.743,0.059-1.622-0.484-2.164,0.22
			c-0.6-0.493-1.473-0.557-2.09-0.922c-0.539-0.027-1.058,0.065-1.594,0.085c-0.499,0.018-0.618-0.143-1.024-0.227
			c-0.432-0.089-0.876,0.242-1.332,0.14c-0.367-0.082-0.504-0.316-0.753-0.571c-0.359,0.351-0.79,0.107-1.156-0.048
			c-0.307-0.13-0.587-0.233-0.851-0.433c-0.108-0.082-0.241-0.282-0.364-0.322c-0.443-0.144-1.06,0.082-1.558-0.068
			c-0.385-0.116-0.655-0.412-0.987-0.588c-0.478-0.253-1.12-0.11-1.635-0.48c-0.296-0.213-0.343-0.491-0.718-0.397
			c-0.396,0.099-0.321,0.285-0.759,0.186c-0.286-0.064-0.781-0.423-1.058-0.366c-0.267,0.054-0.254,0.384-0.468,0.514
			c-0.229,0.139-0.524-0.03-0.741,0.099c-0.111,0.066-0.406,0.514-0.478,0.636c-0.201,0.347-0.017,0.429-0.525,0.47
			c-0.297,0.024-0.592-0.015-0.885,0.042c-0.668,0.131-1.225,0.616-1.893,0.708c-0.55,0.076-1.046-0.177-1.145,0.474
			c-0.066,0.431,0.125,0.631,0.294,0.935c-0.369,0.132-1.383-0.146-1.484,0.251c-0.074,0.29,0.299,0.597,0.487,0.759
			c0.482,0.416,0.735,0.796,0.791,1.469c0.052,0.625,0.206,0.838,0.494,1.334c0.34,0.586,0.421,1.34,0.045,1.871
			c-0.184,0.261-0.088,0.715-0.299,0.956c-0.19,0.217-0.534,0.225-0.791,0.232c-0.343,0.009-0.726-0.06-1.059,0.023
			c-0.341,0.086-0.637,0.403-1.053,0.376c0.059,0.298,0.36,0.462,0.428,0.742c0.074,0.303-0.139,0.496-0.28,0.724
			c-0.566,0.918,0.817,0.842,1.386,0.949c0.091,0.473,0.535,0.423,0.956,0.486c0.272,0.041,0.686,0.035,0.911,0.201
			c0.126,0.093,0.185,0.264,0.313,0.359c0.45,0.334,1.254,0.072,1.799,0c0.478-0.063,0.885,0.296,1.095,0.726
			c0.259,0.53,0.437,0.686,1.077,0.698c0.018,0.469,0.004,0.944,0.004,1.415c0,0.252-0.025,0.532,0.049,0.772
			c0.065,0.211,0.347,0.365,0.347,0.548c0,0.277-0.047,0.635,0.033,0.902c0.081,0.27,0.334,0.443,0.623,0.577
			c0.332,0.155,0.762,0.14,1.113-0.006c0.129-0.054,0.214-0.161,0.324-0.225c0.247-0.143,0.45-0.137,0.771-0.126
			c0.469,0.015,0.769,0.199,1.203,0.298c0.433,0.099,0.57-0.168,0.908-0.34c0.367-0.187,0.759-0.151,1.158-0.155
			c0.255-0.003,0.58,0.036,0.817-0.057c0.137-0.054,0.204-0.191,0.348-0.234c0.114,0.223,0.214,0.419,0.417,0.523
			c0.402,0.206,0.935-0.076,1.308-0.206c0.668-0.232,1.075-0.091,1.496,0.531c0.171,0.252,0.301,0.605,0.398,0.889
			c0.147,0.432,0.07,0.517,0.5,0.684c0.66,0.256,1,0.505,1.248,1.171c-0.223-0.064-0.337,0.107-0.391,0.292
			c-0.019,0.065,0.034,0.169,0.004,0.229c-0.031,0.061-0.131,0.15-0.142,0.173c-0.074,0.157-0.171,0.066-0.068,0.336
			c0.082,0.212,0.23,0.243,0.357,0.419c0.2,0.28,0.14,0.411-0.088,0.603c-0.117,0.098-0.37,0.15-0.459,0.256
			c-0.101,0.121-0.028,0.288-0.165,0.395c-0.146,0.114-0.43-0.017-0.591,0.035c-0.118,0.038-0.181,0.129-0.274,0.183
			c-0.35,0.206-0.664,0.109-1.06,0.149c-0.401,0.04-0.699,0.358-0.376,0.66c0.169,0.158,0.359,0.13,0.512,0.332
			c0.319,0.421,0.538,1.06,0.8,1.516c-0.211,0.08-0.515,0.018-0.757,0.033c-0.383,0.024-0.56,0.279-0.881,0.344
			c-0.165,0.782,0.653,1.596,0.682,2.366c0.012,0.33-0.146,0.395-0.239,0.644c-0.148,0.397-0.087,0.903-0.13,1.323
			c-0.727,0.065,0.121,1.719,0.148,2.091c0.628-0.03,0.862,0.393,0.525,0.916c0.268,0.484,0.468,0.625,0.043,1.098
			c-0.515,0.572-0.937,0.841-0.907,1.662c0.201,0.037,0.559,0.108,0.766,0.051c0.276-0.077,0.105-0.11,0.315-0.285
			c0.192-0.16,0.534-0.226,0.773-0.087c0.239,0.138,0.274,0.406,0.404,0.628c0.177,0.301,0.342,0.412,0.625,0.574
			c0.332,0.19,0.405,0.401,0.614,0.687c0.075,0.103,0.115,0.149,0.194,0.231c0.029,0.03,0.136,0.029,0.177,0.062
			c0.059,0.046,0.06,0.167,0.122,0.213c0.234,0.176,0.401,0.171,0.686,0.187c0.343,0.019,0.5,0.106,0.799,0.239
			c0.013,0.615,0.065,1.155,0.232,1.741c0.22,0.056,0.255,0.233,0.264,0.439c0.546,0.136,1.157-0.536,1.436,0.105
			c0.172,0.394,0.086,0.688,0.419,0.944c0.24,0.185,0.242-0.044,0.29,0.338c0.02,0.157-0.014,0.306-0.033,0.458
			c-0.067,0.523-0.241,1.043-0.364,1.553c-0.111,0.458-0.136,0.919-0.237,1.375c-0.022,0.098-0.055,0.365-0.106,0.444
			c-0.148,0.231-0.305,0.137-0.494,0.231c-0.776,0.387-1.408,1.629-1.739,2.395c-0.171,0.397-0.383,1.721,0.232,1.822
			c-0.237,1.051-1.091-0.04-1.537-0.213c-0.32-0.124-0.57-0.124-0.933-0.124c-0.298,0-1.356-0.214-1.356,0.231
			c0,1.026-0.264,1.774-0.75,2.671c-0.721,1.333-1.489,2.638-2.227,3.967c-0.15,0.27-0.249,0.782-0.48,0.989
			c-0.093,0.083-0.299,0.056-0.424,0.169c-0.086,0.077-0.161,0.236-0.211,0.322c-0.573,0.968-1.225,1.888-1.924,2.782
			c-0.598,0.764-0.679,1.474-0.926,2.377c-0.123,0.449-0.28,0.892-0.417,1.337c-0.152,0.496-0.155,0.712,0.041,1.226
			c0.347,0.907,0.648,2.052,0.619,3.036c-0.014,0.475-0.526,1.219-0.659,1.683c-0.171,0.597-0.334,1.256-0.669,1.808
			c-0.204,0.336-0.189,0.543-0.19,0.963c-0.001,0.378,0.051,0.745,0.069,1.121c0.048,1.006,0.403,1.609,1.548,1.72
			c0.165,0.016,0.789-0.12,0.958,0.03c0.142,0.125,0.05,0.4,0.065,0.57c0.031,0.372,0.258,0.631,0.53,0.9
			c0.163,0.161,0.391,0.273,0.539,0.451c0.175,0.209,0.084,0.284,0.186,0.559c0.153,0.411,0.693,0.498,1.01,0.779
			c0.489,0.434,0.632,1.292,1.497,0.801c0.299-0.17,0.554-0.404,0.86-0.569c0.26-0.141,0.493-0.246,0.707-0.433
			c0.561-0.488,0.863-1.174,1.495-1.598c0.246-0.165,0.51-0.285,0.806-0.247c0.302,0.039,0.392,0.251,0.642,0.378
			c0.995,0.505,0.999-0.606,1.035-1.274c0.024-0.449,0.109-1.434,0.451-1.737c0.188-0.167,0.492-0.093,0.712-0.015
			c0.42,0.149,0.857,0.527,1.357,0.382c0.737-0.214-0.031-0.716,0.038-1.124c0.04-0.239,0.291-0.325,0.44-0.494
			c0.162-0.183,0.184-0.341,0.373-0.508c0.416-0.365,1.045-0.48,1.514-0.794c0.481-0.322,0.596-1.01,1.098-0.323
			c0.499,0.683,1.434,0.387,2.131,0.081c0.343-0.151,0.468-0.445,0.601-0.795c0.163-0.429,0.296-0.776,0.575-1.163
			c0.359-0.498,0.593-0.548,1.176-0.63c0.198-0.028,0.51-0.038,0.658-0.171c0.179-0.161,0.121-0.393,0.383-0.486
			c0.301-0.106,0.635,0.155,0.925,0.201c0.472,0.076,0.376-0.211,0.734-0.43c0.246-0.151,0.571-0.09,0.849-0.1
			c0.168-0.006,0.214,0.055,0.343-0.027c0.118-0.075,0.157-0.315,0.302-0.399c0.487-0.286,1.13,0.119,1.575,0.263
			c0.059,0.019,0.236,0.115,0.287,0.12c0.084,0.008,0.258-0.069,0.312-0.053c0.256,0.077,0.39,0.313,0.527,0.527
			c0.23,0.361,0.299,0.682,0.587,0.988c0.345,0.368,0.846,0.52,1.162,0.919c0.315,0.397,0.458,0.917,0.733,1.349
			c0.369,0.58,0.888,1.027,1.435,1.453c0.643,0.501,1.441,0.945,1.809,1.723c0.376-0.082,0.458-0.413,0.788-0.492
			c0.265-0.063,0.746,0.115,0.978-0.061c0.205-0.156,0.32-0.603,0.492-0.827c0.211-0.275,0.562-0.631,0.876-0.798
			c0.17-0.091,0.36-0.039,0.54-0.106c0.268-0.1,0.513-0.411,0.663-0.649c0.277-0.438,0.498-0.904,0.794-1.331
			c-0.282-0.102-0.949,0.052-1.091-0.217c-0.071-0.135,0.086-0.485,0.068-0.649c-0.025-0.226-0.125-0.407-0.165-0.632
			c-0.048-0.276-0.074-0.473-0.234-0.72c-0.02-0.031,0.026-0.096,0.006-0.127c-0.03-0.047-0.124-0.054-0.153-0.102
			c-0.07-0.112-0.177-0.156-0.224-0.309c-0.077-0.252,0.073-0.436,0.107-0.669c0.014-0.095,0.092-0.167,0.067-0.264
			c-0.084-0.331-0.501-0.319-0.388-0.75c0.231-0.116,0.048-0.598,0.029-0.822c-0.046-0.544,0.091-0.68,0.389-1.131
			c0.217-0.329,0.436-0.551,0.701-0.825c0.225-0.232,0.517-0.41,0.722-0.642c0.196-0.222,0.288-0.422,0.547-0.636
			c0.234-0.193,0.52-0.468,0.602-0.772c0.089-0.331-0.05-0.573,0.211-0.895c0.217-0.268,0.538-0.477,0.786-0.718
			c0.261-0.025,0.547-0.177,0.827-0.205c0.345-0.034,0.655-0.075,1.016,0.012c0.757,0.182,1.456,0.59,2.313,0.384
			c0.517-0.124,0.927-0.464,1.482-0.322c0.321,0.082,0.521,0.331,0.786,0.526c0.581,0.428,0.439-0.213,0.812-0.556
			c0.341-0.313,1.15-0.509,1.607-0.557c0.539-0.056,0.927,0.527,0.993,1.022c0.017,0.122,0.014,0.514,0.137,0.607
			c0.213,0.162,0.984-0.019,1.247-0.023c0.005,0.14,0,0.28-0.006,0.42c0.222,0.022,0.413,0.021,0.625,0.09
			c0.196,0.064,0.336,0.207,0.519,0.255c0.134,0.035,0.195-0.052,0.336-0.008c0.17,0.053,0.387,0.276,0.544,0.368
			c0.349,0.204,0.733,0.408,1.154,0.227c0.211-0.091,0.387-0.531,0.581-0.154c0.199-0.417,0.197-0.914,0.387-1.336
			c0.203,0.233,0.624,0.229,0.912,0.132c-0.16-0.091-0.26-0.364-0.231-0.553c0.068,0.025,0.125,0,0.195,0.046
			c0.098-0.185-0.029-0.501,0.078-0.65c0.062-0.087,0.55-0.253,0.663-0.29c0.085,0.213,0.377,0.132,0.574,0.14
			c0.012-0.321-0.006-0.637-0.002-0.952c0.003-0.236,0.047-0.288,0.159-0.585c0.123-0.322,0.175-0.677,0.401-0.943
			c0.142-0.167,0.276-0.091,0.209-0.454c-0.054-0.292-0.134-0.476-0.148-0.78c-0.013-0.264-0.194-0.499-0.212-0.776
			c-0.017-0.255,0.1-0.336-0.005-0.607c-0.13-0.335-0.273-0.502-0.264-0.88c0.024-0.975-1.363-0.628-1.934-1.096
			c-0.267-0.218-0.322-0.897-0.4-1.23c-0.147-0.628-0.197-1.32,0.097-1.897c0.415,0.215,0.551,0.461,1.05,0.254
			c0.238-0.099,0.244-0.19,0.555-0.159c0.206,0.021,0.382,0.072,0.595,0.066c0.025-0.415-0.081-0.668-0.224-1.042
			c0.326-0.002,0.482,0.231,0.72-0.13c0.104-0.158,0.071-0.28,0.229-0.413c0.163-0.137,0.384-0.151,0.569-0.257
			c0.333-0.19,0.448-0.509,0.641-0.84c0.091-0.156,0.247-0.316,0.318-0.481c0.068-0.158,0.039-0.273,0.161-0.421
			c0.28-0.34,0.812-0.475,1.124-0.821c0.12-0.133,0.197-0.327,0.325-0.44c0.213-0.188,0.557-0.22,0.815-0.319
			c0.407-0.157,0.824-0.297,0.9-0.761c0.037-0.23-0.046-0.486,0.003-0.712c0.063-0.291,0.277-0.535,0.392-0.814
			c0.254-0.62,0.449-1.275,0.698-1.902c0.266-0.666,0.659-0.849,1.222-1.24c0.437-0.303,0.111-1.053,0.165-1.535
			c0.076-0.677,0.683-0.352,1.096-0.578c0.205-0.112,0.621-0.287,0.721-0.51c0.152-0.339-0.201-0.343-0.266-0.608
			c-0.102-0.417,0.303-0.763,0.66-0.764c0.304-0.001,0.668,0.027,0.948-0.136c0.345-0.201,0.36-0.885,0.636-1.015
			c0.167-0.079,0.395,0.133,0.541,0.182c0.415,0.138,0.707,0.151,1.057-0.118c0.111,0.148,0.155,0.367,0.315,0.446
			c0.337-0.353,0.33-0.89,0.928-1.009c0.543-0.108,0.237,0.668,0.543,1.007c0.198,0.219,0.324,0.195,0.557,0.122
			c-0.007,0.003,0.165-0.13,0.178-0.137c0.077-0.045,0.165,0.054,0.254-0.014c0.064-0.049,0.2-0.512,0.199-0.573
			c-0.004-0.261-0.248-0.29-0.283-0.562c0.148,0.028,0.383,0.117,0.532,0.052c0.356-0.157,0.228-0.576,0.729-0.327
			c0.214,0.106,0.452,0.382,0.602,0.564c0.194,0.237,0.158,0.335,0.216,0.638c0.038,0.199,0.377,1.33,0.576,1.383
			c0.157,0.042,0.153-0.103,0.246-0.198c0.306-0.312,0.577-0.257,0.963-0.423c0.061,0.191,0.078,0.392,0.099,0.593
			c0.459,0.045,0.76,0.11,1.131,0.384c0.311,0.23,0.409,0.616,0.649,0.967c0.285,0.418,0.762,0.946,1.193,1.225
			c0.544,0.352,1.34,0.204,1.941,0.433c0.529,0.202,0.186,0.53,0.513,0.91c0.141,0.164,0.362,0.176,0.535,0.311
			c0.285,0.223,0.4,0.427,0.4,0.761c0,0.317,0.035,0.879-0.059,1.142c-0.05,0.141-0.174,0.249-0.17,0.495
			c0.005,0.319,0.093,0.65,0.132,0.969c-0.187,0.051-0.506-0.079-0.658,0.052c-0.082,0.071-0.118,0.607-0.165,0.755
			c-0.087,0.276-0.186,0.467-0.296,0.7c-0.115,0.244-0.101,0.481-0.1,0.768c0.002,0.534-0.36,0.962-0.863,1.071
			c0.109,0.32,0.315,0.559,0.074,0.884c-0.217,0.293-0.371,0.357-0.416,0.768c-0.041,0.379-0.015,0.73-0.107,1.089
			c-0.056,0.219-0.012,0.593-0.249,0.652c0.19,0.344,0.411,0.452,0.775,0.438c-0.001-0.08,0.07-0.187,0.064-0.269
			c0.457,0.294,0.605,0.864,0.974,1.245c0.341-0.118,0.589-0.408,0.958-0.501c0.373-0.093,0.722-0.008,1.079-0.181
			c0.753-0.364,1.382-0.943,2.101-1.367c0.118,0.113,0.223,0.298,0.368,0.379c0.278,0.154,0.743,0.076,1.057,0.104
			c0.716,0.063,0.788,0.093,0.557,0.702c-0.208,0.55-0.008,0.587,0.178,1.074c0.124,0.325-0.106,0.68-0.083,1.073
			c0.02,0.335,0.241,0.729,0.115,1.062c-0.184,0.488-0.911,0.704-1.219,1.107c-0.333,0.436-0.121,0.399,0.075,0.821
			c0.145,0.314,0.151,0.7,0.027,1.03c-0.22,0.587-0.753,0.996-0.707,1.676c0.024,0.355,0.135,0.726-0.006,1.086
			c-0.107,0.274-0.344,0.494-0.396,0.792c-0.043,0.248-0.007,0.514-0.031,0.765c-0.031,0.315-0.111,0.605-0.108,0.927
			c0.003,0.32,0.113,0.514,0.239,0.816c0.114,0.274,0.194,0.569,0.262,0.852c0.11,0.456,0,0.373-0.23,0.658
			c-0.186,0.23-0.164,0.526-0.164,0.802c0.001,0.403-0.024,0.592-0.172,0.956c-0.32-0.026-0.485,0.072-0.373,0.427
			c0.108,0.344,0.25,0.467,0.249,0.88c-0.001,0.399,0.037,0.665,0.181,0.993c0.193,0.441,0.065,0.521-0.052,0.992
			c-0.118,0.474-0.02,0.991-0.129,1.477c-0.05,0.224-0.104,0.378-0.289,0.515c-0.135,0.1-0.387,0.085-0.464,0.297
			c-0.063,0.173,0.082,0.447,0.094,0.631c0.024,0.359-0.149,0.403-0.301,0.686c-0.213,0.398-0.076,1.005-0.161,1.455
			c-0.12,0.645-0.459,1.339-0.398,2.01c0.041,0.453,0.546,0.853,0.825,1.219c0.308,0.405,0.215,0.894,0.139,1.412
			c-0.026,0.176-0.096,0.352-0.073,0.535c0.033,0.268,0.234,0.459,0.363,0.693c0.24,0.432,0.566,0.778,0.757,1.24
			c0.261,0.633,0.127,0.933,0.722,1.305c0.241,1.338,0.456,2.438,1.196,3.612c0.174,0.276,0.426,0.728,0.692,0.932
			c0.232,0.178,0.563,0.196,0.818,0.37c0.604,0.412,1.053,0.349,1.752,0.287c0.845-0.075,1.673-0.122,2.506-0.281
			c0.893-0.17,1.185-1.074,1.845-1.627c0.298-0.25,0.668-0.339,0.985-0.56c0.336-0.233,0.617-0.564,0.929-0.833
			c0.906-0.783,1.578-1.752,2.841-1.836c0.336-0.022,0.332,0.007,0.433-0.237c0.109-0.262,0.065-0.458,0.308-0.695
			c0.34-0.331,0.837-0.363,1.209-0.63c0.235-0.169,0.386-0.419,0.563-0.643c0.169-0.215,0.275-0.289,0.489-0.406
			c0.047-0.026,0.134,0.005,0.195-0.031c0.143-0.084,0.153-0.21,0.266-0.313c0.386-0.353,0.974-0.227,1.327-0.644
			c0.376-0.444,0.612-0.756,1.221-0.728c0.441,0.021,0.535,0.019,0.86-0.213c0.186-0.133,0.391-0.256,0.639-0.282
			c0.663-0.071,1.114,0.479,1.767,0.433c0.318-0.022,0.687-0.185,1.004-0.257c0.368-0.083,0.715-0.201,1.073-0.307
			c0.311-0.092,0.415-0.254,0.685-0.396c0.432-0.227,0.599,0.009,0.971,0.097c0.329,0.079,0.68,0.037,0.832-0.268
			c0.072-0.144,0.069-0.339,0.14-0.495c0.11-0.239,0.291-0.436,0.427-0.658c0.61-1.001,1.126-2.028,1.553-3.12
			c0.178-0.455,0.465-1.034,0.78-1.411c0.372-0.447,0.69-0.286,1.207-0.406c1.049-0.244,1.582-1.438,2.577-1.85
			c0.503-0.208,1.053-0.243,1.564-0.434c0.615-0.229,1.271-0.505,1.907-0.662c-0.088-0.297-0.087-0.955,0.183-1.125
			c0.053-0.033,0.179,0.026,0.239,0.006c0.191-0.063,0.315-0.197,0.402-0.333c0.118-0.186,0.139-0.436,0.286-0.61
			c0.351-0.415,1.111-0.16,1.606-0.346c0.494-0.186,1.04-0.812,1.468-1.164c0.612-0.503,1.369-0.537,2.149-0.483
			c0.011,0.201,0.001,0.408,0.008,0.61c0.24,0.018,0.797-0.342,1.063-0.459c0.392-0.172,0.682-0.327,1.126-0.352
			c0.844-0.047,1.616-0.115,2.304,0.385c0.438,0.319,0.797,0.341,1.308,0.437c0.4,0.075,0.685,0.275,1.042,0.065
			c0.214-0.126,0.349-0.323,0.596-0.412c0.269-0.097,0.583-0.081,0.867-0.081c0.435,0.001,0.767-0.001,1.114,0.29
			c0.4,0.335,0.411,0.672,0.411,1.177c0,0.72,0.074,1.47,0.031,2.183c-0.494,0.082-0.579,0.546-0.913,0.77
			c-0.204,0.137-0.577,0.154-0.821,0.223c-0.391,0.11-0.428,0.081-0.788-0.096c-0.579-0.284-0.675-0.24-0.678,0.388
			c-0.001,0.166,0.048,0.167-0.027,0.321c-0.129,0.265-0.472,0.263-0.547,0.591c0.403,0.278,0.37,0.719,0.941,0.691
			c0.46-0.022,0.707-0.54,1.193-0.362c0.288,0.106,0.457,0.421,0.768,0.491c0.248,0.056,0.261-0.058,0.485-0.094
			c0.225-0.036,0.392,0.037,0.604,0.093c1.072,0.286,1.369-0.5,2.14-1.041c0.29-0.203,0.59-0.518,0.96-0.465
			c0.307,0.044,0.561,0.319,0.853,0.369c0.136-0.18,0.142-0.597,0.352-0.689c0.126-0.055,0.345,0.082,0.466,0.109
			c0.657,0.144,0.54-0.107,0.975-0.466c0.239,0.096,0.402,0.267,0.633,0.073c0.11-0.092,0.105-0.426,0.287-0.497
			c0.143-0.056,0.539,0.069,0.711,0.065c0.325-0.009,0.634-0.066,0.917-0.241c0.278-0.172,0.379-0.387,0.698-0.419
			c0.246-0.024,0.444,0.117,0.681,0.125c0.672,0.024,0.953-0.73,1.231-1.211c0.074,0.026,0.158,0.006,0.23,0.027
			c-0.2-0.24-0.808-0.99-0.022-1.073c0.212-0.022,0.342,0.205,0.541,0.263c0.309,0.089,0.619-0.068,0.931-0.046
			c0.336,0.024,0.544-0.098,0.804-0.266c0.226-0.147,0.719-0.451,0.979-0.127c0.087,0.108,0.014,0.334,0.067,0.458
			c0.096,0.224,0.244,0.247,0.459,0.321c0.455,0.156,0.365-0.104,0.502-0.517c0.486,0.071,1.051,0.36,1.084-0.332
			c0.254,0.105,0.276,0.383,0.476,0.545c0.16,0.129,0.15,0.127,0.348,0.127c0.229,0,0.428-0.238,0.541-0.254
			c0.588-0.083,0.56,0.611,0.899,0.898c0.315,0.267,0.442,0.074,0.69-0.097c0.353-0.243,0.501-0.177,0.876-0.1
			c0.59,0.12,1.023-0.409,1.506-0.691c0.152,0.202,0.225,0.491,0.412,0.665c0.232,0.217,0.625,0.308,0.92,0.397
			c0.494,0.149,0.919,0.384,1.396,0.597c0.601,0.269,0.586,0.581,0.879,1.114c0.117,0.212,0.339,0.573,0.583,0.543
			c0.244-0.031,0.348-0.267,0.636-0.279c0.363-0.015,0.717,0.16,1.058,0.262c0.348,0.105,0.675,0.21,1.045,0.206
			c0.414-0.004,0.707-0.212,1.078-0.384c0.421-0.195,0.8-0.287,1.269-0.325c0.326-0.026,0.575,0.009,0.85-0.187
			c0.625-0.445-0.447-1.072-0.139-1.7c0.172-0.351,0.627-0.548,0.77-0.905C193.101,145.571,192.828,145.222,192.693,144.91z"/>
		<path fill="#1E8346" d="M85.693,71.76c0.166-0.023,0.299-0.104,0.45-0.18c0.121-0.06,0.236-0.115,0.327-0.217
			c0.077-0.086,0.112-0.218,0.198-0.296c0.123-0.111,0.243-0.042,0.373-0.152c0.249-0.21,0.245-0.466,0.249-0.755
			c-0.101,0.071-0.227,0.298-0.383,0.218c-0.162-0.083-0.086-0.276-0.301-0.273c-0.135,0.002-0.26,0.122-0.382,0.164
			c-0.212,0.073-0.469,0.059-0.687,0.029c-0.418-0.058-0.799-0.225-1.219-0.264c-0.491-0.045-1.066-0.135-1.498-0.369
			c-0.148-0.08-0.389-0.214-0.561-0.122c-0.072,0.039-0.241,0.254-0.201,0.475c0.038,0.144,0.119,0.275,0.158,0.42
			c0.024,0.088,0.024,0.192,0.075,0.27c0.182,0.279,0.46,0.148,0.72,0.209c0.212,0.05,0.494,0.258,0.676,0.378
			c0.186,0.123,0.337,0.284,0.382,0.507c0.026,0.127-0.022,0.214-0.047,0.32c-0.03,0.129-0.047,0.082,0.034,0.218
			c0.066,0.111,0.137,0.204,0.186,0.325c0.047,0.118,0.057,0.27,0.175,0.338c0.194,0.111,0.453-0.087,0.607-0.18
			c0.243-0.148,0.27-0.169,0.27-0.451c0-0.129-0.077-0.429-0.001-0.535C85.374,71.723,85.577,71.776,85.693,71.76z"/>
	</g>
</g>
</svg>
