<?xml version="1.0" encoding="utf-8"?>
<!-- Generator: Adobe Illustrator 26.0.3, SVG Export Plug-In . SVG Version: 6.00 Build 0)  -->
<svg version="1.1" id="Isolation_Mode" xmlns="http://www.w3.org/2000/svg" xmlns:xlink="http://www.w3.org/1999/xlink" x="0px"
	 y="0px" viewBox="0 0 200 200" enable-background="new 0 0 200 200" xml:space="preserve">
<g>
	<path fill="#1E8346" d="M194.038,117.96c0.119-1.706,0.02-4.522,2.303-4.802c-0.292-1.267-1.519-1.504-2.564-1.966
		c-0.714-0.129-1.586,0.231-2.149-0.393c-0.674-0.384-1.251-0.872-1.429-1.651c-0.662-0.362-1.881,0.155-2.174-0.827
		c-0.232-0.125-0.554-0.105-0.645-0.354c-0.135-0.369-0.674-0.108-0.969-0.243c-0.369-0.169-0.59-0.635-0.968-0.762
		c-0.253-0.086-0.395-0.085-0.572,0.104c-0.664,0.785-1.963,0.119-2.833,0.001c-3.782-0.88-6.15-4.441-9.312-6.316
		c-3.121-1.647-6.304-3.596-8.613-6.315c-1.725,1.224-3.23-0.055-4.607-1.134c-1.264-1.424-3.675-1.9-4.256-3.759
		c0,0-16.503-12.008-16.503-12.008c-0.229-0.217-0.499-0.491-0.575-0.813c0.171-0.764-0.045-1.404-0.614-1.904
		c0.414-0.814,0.026-1.625-0.11-2.464c0.141-0.768,0.2-1.408-0.4-1.989c-0.08-0.756-0.022-1.663-0.851-2.103
		c-0.336-0.212-0.861-0.06-1.218-0.239c-0.452-0.397-0.775-1.021-1.258-1.385c-0.229-0.818,0.136-2.098-1.012-2.363
		c-0.018-0.808,0.028-1.707-0.629-2.276c-0.316-1.334,0.251-2.926-0.704-4.083c-0.52-0.144-0.59-0.569-0.668-1.018
		c-1.943-1.34-3.776-3.055-6.289-3.548c-1.941,6.555-4.956-1.06-5.684,1.204c-2.759-1.86-6.68,1.292-8.252-0.724
		c-1.572-0.994-3.288-1.61-4.604-2.995c0.671-4.102,2.744-1.475-0.296-5.841c0.599-0.051,0.184-1.287,1.045-0.899
		c0.271,0.122,0.636,0.085,0.677,0.296c0.377-0.171,0.502,0.464,0.764,0.603c0.176,0.093,0.825,0.052,0.99-0.044
		c-0.041-0.784-0.664-1.28-1.401-1.338c-0.804-0.516-1.065-1.642-2.262-1.579c0.046-1.838-1.206,0.528-1.314-1.595
		c0.421-0.128,0.552,0.463,0.937,0.349c0.364-0.108,0.754-1.135,0.713-1.459c-0.124-0.643-0.739-0.941-1.135-1.39
		c1.239-0.234,0.585-1.945-0.292-2.176c-0.131-0.223-0.358-0.399-0.58-0.519c-0.175-0.254-0.053-0.66-0.355-0.954
		c-0.48,0.082-0.732,0.359-0.965,0.736c-0.224,0.363-0.162,0.374-0.491,0.284c-0.597-0.353-1.239-0.424-1.879-0.147
		c-0.737-0.36-1.506,0.213-2.312-0.092c-0.587-0.111-0.684-0.808-1.316-0.824c-1.512-0.087-1.74-1.935-2.395-3.012
		c-0.53-0.725-1.786-0.059-2.548-0.359c0,0-5.393-5.168-5.393-5.168c-0.136,0.567,0.042,1.005,0.263,1.513
		c-0.886,0.162-0.53,0.636-0.734,1.277c-1.518,0.353-2.822-0.474-4.222-0.741c-0.441,0.495-1.489,0.53-1.506,1.31
		c-0.05,0.56,0.782,0.558,1.155,0.763c1.219,0.495,1.379,2.113,1.937,3.174c0.57,1.29,3.625,2.423,0.122,2.022
		c0.208-1.975-1.672-4.376-3.597-2.788c0.283-1.275-0.911-0.537-1.088-1.62c-0.479,0.669-1.481,1.016-1.303,2.027
		c-0.742-0.567-1.179-0.178-0.432,0.484c0.578,0.789-0.054,1.85-0.149,2.695c-0.3,1.01-0.27,0.809-0.959,0.372
		c-0.202,0.082-0.098,0.812-0.077,0.993c-0.694-0.04-1.367,0.161-1.951,0.501c-0.539,0.013-1.017,0.016-1.22,0.6
		c-0.26,0.38-0.071,0.935-0.146,1.374c0.169,0.429,0.701,0.054,0.972,0.405c0.248-0.558,0.697-0.427,0.574,0.18
		c-0.434,0.403-1.004,0.851-0.534,1.513c0.245,0.424,0.701,0.197,1.129,0.297c0.266,0.063,0.226,0.084,0.375,0.328
		c0.316,0.586,1.552,0.762,0.973,1.621c-0.777,1.528,0.356,2.821-2.267,2.346c-0.377,0.219-0.652,0.413-0.448,0.862
		c-0.056,0.433-0.974,0.737-1.329,0.792c-0.054-0.086-0.055-0.2-0.045-0.305c-0.634,0.313-1.292,0.506-2.03,0.368
		c-0.438-0.016-0.326,0.43-0.715,0.516c-0.596-0.09-0.866-0.768-1.495-0.935c-0.482-0.444,0.055-1.42-0.607-1.671
		c-0.337-0.346,0.07-0.89-0.474-1.049c-1.043-0.909-1.178,0.448-1.445,1.203c-1.112-1.011,0.151-2.805-0.093-4.032
		c-0.949,0.102-1.162,0.941-1.008,1.774c-0.411,1.627-0.019,2.915,0.728,4.316c-0.077,1.496,0.12,2.731,0.989,3.954
		c0.268-0.241,1.052-0.414,0.792,0.226c-0.239,0.515-1.092,0.143-1.355,0.559c-0.223,0.352,0.306,1.533-0.452,1.438
		c-4.826-1.048-9.942-0.971-14.886-1.548c-1.659-0.491-1.183,1.038-2.062,0.814c-0.514-0.24-0.296-0.787-0.882-0.415
		c-0.343,0.515-1.283,0.199-1.554,0.696c-0.33-0.152-0.423-0.343-0.681-0.549c-0.171,0.469-0.682,0.85-1.19,0.651
		c-0.136-0.414-0.522-0.689-0.968-0.749c-2.046-3.165-4.461-6.342-6.215-9.85c0.625-3.054-8.056-7.987-9.936-9.924l-9.088,1.723
		l-7.789,3.108l-7.19,6.497c0.858,0.362,1.981,1.494,2.049,2.506C4,47.886,3.463,48.372,3.676,48.94
		c1.212,1.489,3.252,2.421,3.287,4.674c0.197,1.406,0.029,3.2,1.087,4.229c0.363-0.023-0.135-1.256-0.164-1.393
		c-0.044-1.621-0.562-3.118-0.96-4.654c-0.182-0.663,1.337-5.776,0.308-5.194c-0.276,0.41-0.549,1.741-1.296,0.968
		c-0.27-0.494,0.254-0.79,0.146-1.318c-0.355-1.505,1.344-2.466,1.747-3.896c1.286-2.051,2.888-4.629,5.663-3.792
		c2.121-1.034,4.814-0.942,7.099-0.683c1.999,0.488,1.026,2.577,1.253,4.008c1.047,1.469,1.744,3.089,1.551,4.95
		c-0.058,0.816-0.048,1.581,0.746,1.984c0.278,0.553,0.245,1.102,0.951,1.281c0.887,0.503,1.302,1.646,2.188,2.107
		c0.892,0.135,1.67,0.478,2.453,0.935c0.713,0.215,0.662,0.97,1.125,1.492c0.37,0.417,0.989,0.492,1.193,0.994
		c0.198,0.487,0.095,0.348,0.599,0.469c0.794,0.353,0.873,1.448,1.284,2.141c-0.299-0.115-0.503-0.442-0.825-0.562
		c2.108,3.37-3.532,6.673-5.253,3.116c-1.563,1.328,1.189,1.118-0.159,2.448c1.704-0.497,4.944-1.141,1.872,1.063
		c-1.569,0.238-3.289,0.519-4.862,0.172c0.206-0.659-0.2-0.914-0.8-0.714c0.54,0.863-1.144,1.256-1.48,0.835
		c-0.68,0.622-4.435,1.854-3.392-0.312c-0.007-0.536-0.613-0.847-0.746-1.365c-0.239-0.625,0.059-1.541-0.4-2.042
		c-1.244,0.478,0.003,3.199-2.022,2.553c-1-0.392-1.836-0.628-2.679,0.236c-1.315,0.78-5.645,0.313-3.608-1.811
		c0.104,0.31,0.061,0.661-0.209,0.864c2.073-0.733-0.576-3.247-0.359-4.676c0.08-0.405-0.38-1.292-0.757-0.858
		c-0.169,0.555,0.363,1.134,0.326,1.724c0.173,1.752-1.664,3.523-1.229,5.265c0.456,1.34-1.503,2.425-1.469,3.951
		c-0.129,1.169-0.344,2.322-0.527,3.492c-0.034,0.886,0.883,1.39,0.755,2.325c-0.473,0.779-0.079,1.953,0.426,2.62
		c0.389,0.025,0.506,0.302,0.623,0.63c0.37,0.301,0.942,0.623,1.349,0.874c-0.178-0.403-1.092-2.086-0.046-1.682
		c0.509,0.672,0.733,0.28,1.367,0.102c0.459,0.015,0.272,0.258,0.504,0.432c0.292,0.202,0.65-0.08,0.76-0.31
		c0.88-0.219,1.711,0.685,2.535,0.473c0.625-0.376,0.953-1.31,1.806-0.91c0.711,0.876,1.525,0.304,2.388,0.188
		c0.926,0.76,3.202,0.886,3.187,2.346c-0.637-0.346-1.324-0.46-2.058-0.532c-0.591-0.183-1.129-0.741-1.649-0.147
		c-0.931,0.168-1.459,0.781-1.784,1.656c-0.221,0.301-0.564,0.651-0.238,1c0.151,0.682,0.122,1.303,0.664,1.846
		c0.365,0.769,0.144,1.7,0.474,2.423c0.858,0.076,0.113,0.833-0.26,1.028c-0.089-0.241,0.148-0.44,0.235-0.654
		c-0.663-0.046-0.464-0.786-0.933-0.975c-0.92-0.138-1.925,0.291-2.851,0.273c-0.093-0.335,0.235-0.753,0.211-1.123
		c-0.724,0.745-1.113,1.93-1.794,2.758c-0.451,0.63,0.018,0.867,0.311,1.476c0.366,0.544,0.128,1.341,0.456,1.836
		c0.129-0.709,0.716-1.377,0.206-2.024c0.621-0.007,1.277-0.176,1.795,0.29c0.46,0.187,0.863-0.316,1.312-0.116
		c0.11,0.221,0.453,0.22,0.674,0.229c-0.23,0.238-0.04,0.453,0.246,0.35c0.625-0.763,1.145-0.042,0.967,0.683
		c0.298,0.499,0.001,0.968,0.469,1.385c0.15-0.062,0.315-0.222,0.495-0.241c-0.018,0.476-0.165,0.97,0.368,1.228
		c0.168-0.176,0.284-1.334,0.825-0.912c0.273,0.213,0.007,0.335-0.016,0.501c-0.049,0.292,0.215,0.417,0.161,0.716
		c-0.439,0.239-0.342,0.71,0.01,1.004c0.124,0.252,0.04,0.55,0.291,0.752c0.629-0.997,0.44,0.114,1.129,0.379
		c0.952-0.014,0.681,0.617,1.225,1.079c0.563-0.427,0.546,0.166,1.127,0.119c-0.009,0.664,0.352,1.721-0.473,1.95
		c-0.381,1.494-1.436,2.914-1.618,4.449c-0.95,1.313,0.415,3.132,0.412,4.493c0.119,1.47-0.257,2.862-0.684,4.25
		c-1.211,4.25,1.013,8.025,1.212,12.133c0.207,1.447,3.143,0.438,4.258,1.108c1.033-0.547,2.254-0.589,3.282-1.335
		c3.024-2.516,1.27,0.866,4.003-1.926c0.748-0.393,0.975-1.383,0.287-1.929c0.388-0.893,0.269-2.136,1.406-2.526
		c1.39-0.634,1.989-1.973,3.141-2.888c0.619-0.274,1.118-0.029,1.42-0.751c1.066-0.755,2.554-0.548,3.21-1.832
		c1.535,0.33,3.467-1.143,5.115-0.501c0.491,0.325,1.006,0.281,1.549,0.282c0.661,0.405,2.077,0.41,2.819,0.225
		c0.734,0.267,1.968,0.351,2.648-0.072c0.32-0.584-0.525-1.14-0.234-1.695c0.834-1.338,2.765-1.596,3.971-0.854
		c0.721-0.235,1.177-0.813,2.003-0.75c0.685,1.073,1.828,1.188,2.942,1.34c0.669,1.328,1.932-0.631,2.43-1.261
		c1.237-0.188,1.109-0.086,1.294,0.944c0.66,0.654,0.504,1.599,1.385,2.145c0.518,0.791-0.73,1.972,0.4,2.46
		c0.912,0.38,1.64,0.809,2.62,0.389c1.24-0.085,2.669,0.215,3.496,1.101c1.744-0.142,3.077,1.48,4.867,1.56
		c0.454,0.393,0.287,1.226,0.526,1.696c0.697,0.335,1.593,0.148,2.148,0.813c0.492,0.048,1.038-0.211,1.535-0.176
		c0.617-2.368,2.463,1.233,3.429-0.196c0.582,0.679,0.985-0.164,0.854-0.742c2.089,0.605,3.962,2.05,5.734,3.132
		c0.815-0.173,1.864-0.572,2.01,0.616c-0.142,0.555,0.843,0.794,0.142,1.068c-0.871,1.311,0.778,1.817,1.062,2.765
		c0.326,0.337,0.039,0.742,0.394,1.025c0.166,0.128,0.479,0.157,0.608,0.322c-0.049,0.77,0.602,1.261,1.356,0.933
		c0.498-0.548,0.948-0.196,1.344,0.25c1.078-0.788,1.894,1.581,3.229,1.158c1.059,0.246,1.112,1.35,1.613,2.128
		c1.233,1.58,2.831,2.954,3.497,4.881c3.545,0.348,7.122-0.149,10.679-0.137c1.166,1.591-0.232,3.582,0.326,5.219
		c-0.288,0.691,0.374,0.897,0.543,1.501c0.28,0.678,0.35,1.335,0.255,2.067c0.335,0.424-0.702,0.99-0.673,1.535
		c0.145,0.711-0.47,0.823-0.756,1.317c1.898,0.176,2.144,2.378,1.886,3.914c-0.718,0.59-0.184,0.842,0.096,1.477
		c0.21,0.797,1.261-0.149,1.59,0.421c0.324,0.336,0.09,0.929,0.588,1.011c1.184,0.351,1.751,1.886,2.982,1.859
		c1.536,0.245,2.857,0.603,4.221-0.369c1.218-0.216,1.952,0.741,2.526,1.624c1.556,0.811,2.409,1.904,2.397,3.706
		c1.023-0.617,2.292-3.45,3.424-1.518c0.477,0.01,0.674-0.231,0.822,0.396c0.419-0.465,1.054-0.617,1.599-0.852
		c0.176-0.599,0.72-0.626,1.255-0.775c0.896-0.645,1.508-1.881,2.777-1.813c0.514,0.142,0.953,0.06,0.985-0.558
		c0.133-0.511,0.767-1.586,0.01-1.814c-0.045-0.404-0.412-1.283,0.255-1.318c0.348-0.373,2.068-0.447,1.522-1.102
		c-0.724-0.655-1.423-1.31-1.95-2.14c0.463-0.931,1.524-0.523,2.354-0.606c1.259-0.103,2.532-0.478,3.691-0.858
		c0.261-0.888,0.991-0.942,1.822-0.915c1.843,0.079,3.584-1.759,5.277-0.68c0.444-0.266,0.041-1.263,0.15-1.767
		c0.688-0.404,1.598-1.225,2.365-0.673c0.197-0.066,0.402-0.206,0.603-0.001c0.007-1.17,1.054-1.187,1.905-1.42
		c2.429-1.332,3.241-4.182,2.617-6.767c1.181-2.367,3.243-5.375,1.805-8.141c1.847-0.632,3.339-2.518,5.451-2.267
		c0.343,0.114,0.706,0.121,0.935-0.156c1.324,0.676,2.914,0.264,4.368,0.178c0.752-0.06,0.944-1.301,1.472-1.568
		c-0.019-1.018-0.12-3.809,1.502-3.359c0.931,0.951,2.028,0.97,3.24,1.216c0.566,0.344,1.42,0.075,1.643,0.832
		c0.391,0.087,0.639,0.338,0.772,0.712c0.287,0.234,0.868,0.103,1.219,0.243c0.756,0.918,1.607,0.036,2.52,0.149
		c0.327,0.315,0.683,0.271,1.052,0.013c0.191-0.096,0.217-0.087,0.137-0.274c-1.142-1.142,1.64-1.193,0.074-2.384
		C194.092,119.542,193.678,118.706,194.038,117.96z"/>
	<path fill="#1E8346" d="M9.985,80.179c-1.524-1.291-0.43,0.992,0.514,1.042C10.647,80.758,10.392,80.381,9.985,80.179z"/>
	<path fill="#1E8346" d="M12.967,83.311c0.331-0.414,0.66-0.881,0.967-1.243c-0.237-0.275-0.723-0.048-0.78,0.284
		C13.245,82.612,12.592,83.419,12.967,83.311z"/>
	<path fill="#1E8346" d="M10.322,93.938c-0.013-0.274-0.032-0.681-0.223-0.895c-0.001,0.134-0.06,0.252-0.173,0.27
		c0.123,1.39-0.344,3.443,0.502,4.579C10.428,96.563,10.328,95.265,10.322,93.938z"/>
</g>
</svg>
