<?xml version="1.0" encoding="utf-8"?>
<!-- Generator: Adobe Illustrator 26.0.3, SVG Export Plug-In . SVG Version: 6.00 Build 0)  -->
<svg version="1.1" id="Isolation_Mode" xmlns="http://www.w3.org/2000/svg" xmlns:xlink="http://www.w3.org/1999/xlink" x="0px"
	 y="0px" viewBox="0 0 200 200" enable-background="new 0 0 200 200" xml:space="preserve">
<g>
	<path fill="#1E8346" d="M194.186,120.444c-0.138-0.23-0.374-0.287-0.587-0.422c-0.294-0.173-0.119-0.658-0.58-0.599
		c-0.479,0.038-0.4-0.469-0.721-0.655c-0.438-0.023-0.399-0.417-0.095-0.616c-0.342-0.348,0.141-0.773-0.053-1.226
		c0.211-0.477-0.367-0.524-0.316-0.954c0.324-0.533,0.9-0.531,0.262-1.143c-0.26-0.707-0.927-0.232-1.477-0.325
		c0.173-0.531-0.589-0.354-0.511-0.831c0.273-0.455-0.48-0.374-0.724-0.539c-1.672,0.599-0.733-1.087-0.364-1.858
		c0.428-0.253,0.107-0.985,0.747-0.965c0.002-0.149-0.098-0.274-0.075-0.428c0.646,0.025,0.357-1.025,0.416-1.389
		c0.499-0.584,1.789-1.168,0.47-1.672c-0.303,0.103-0.619,0.292-0.894,0.061c-0.628,0.054-0.589-0.186-0.414-0.665
		c-0.105-0.796,0.245-1.711,0.059-2.578c-0.11-0.155-0.419-0.134-0.47-0.334c0.153-0.326-0.004-0.598-0.214-0.864
		c0.405-0.262,0.237-0.857,0.616-1.188c-0.127-0.272-0.242-0.639-0.611-0.567c-0.118-0.334-0.42-0.486-0.37-0.879
		c-0.108-0.069-0.383-0.178-0.154-0.311c-0.447-0.528-0.126-0.72,0.117-1.173c-0.008-0.174-0.175-0.324-0.171-0.49
		c0.831-0.471-0.419-1.486-0.926-1.713c0.016-0.252,0.136-0.504-0.117-0.693c0.272-0.193,0.052-0.359-0.102-0.512
		c0.014-0.42-0.165-0.667-0.472-0.931c0.265-0.42,0.49-0.664,1.042-0.436c0.045,0.109-0.02,0.134-0.047,0.234
		c0.327-0.107,0.724-0.456,1.064-0.28c0.229,0.112,0.439,0.414,0.678,0.431c0.328-0.216,0.689-0.472,1.101-0.438v-0.57
		c-0.274-0.388,0.394-0.564,0.142-1.015c-0.347-0.562,0.44-0.755,0.532-1.289c0.095-0.224-0.021-0.442-0.097-0.634
		c0.327-0.394,0.915-0.904,1.369-1.255c0.157,0.572,0.629,0.797,1.119,1.035c0.229,0.296,0.513,0.69,0.926,0.675
		c-0.134-0.62-0.644-0.974-0.907-1.513c-0.154-0.132-0.396-0.072-0.357-0.349c-0.219-0.058-0.637-0.166-0.709-0.43
		c-0.292-0.079-0.222-0.382-0.391-0.546c-0.347-0.239-0.346-0.771-0.705-1.061c-0.711-0.496-1.437-1.043-2.26-1.309
		c-1.335,0.154-2.791,0.499-4.143,0.155c-0.58-0.429-1.245-0.506-1.848-0.802c-0.482-0.309-0.332-0.951,0.262-0.879
		c-0.165-0.266-0.397-0.519-0.549-0.791c0.076-0.021,0.181-0.011,0.267-0.011l-0.031-0.493c-0.928-0.357-0.782-1.264-0.585-2.003
		c-0.054-0.387-0.57-0.519-0.771-0.848c0.848-0.55,1.366-1.198,1.34-2.217c0.108,0.036,0.126,0.182,0.265,0.179
		c0.034-0.331,0.469-0.524,0.345-0.82c0.109-0.636-0.047-1.519-0.595-1.933v-1.219c-0.532-0.709-1.429-0.874-2.157-1.295
		c0.166-1.854-0.395-2.797-2.316-1.897c-0.079-0.318-0.286-0.203-0.538-0.231c0.152-0.287,0.563-0.948-0.095-0.789
		c-0.11,0.033-0.329,0.103-0.363-0.07c0.249-0.068,1.204-0.56,0.48-0.701c-0.605-0.139-0.549-0.955-1.269-0.907
		c-0.559-0.061-0.501-0.754-0.876-1.015c-0.346-0.183-0.81-0.241-0.617-0.751c-0.271,0.066-0.419,0.271-0.512,0.532
		c-0.832-0.24-0.272-0.993-0.313-1.524c-0.52,0.258-0.775-0.384-1.311-0.234c-0.463-0.027-0.803,0.312-1.132,0.528v0.74
		c-0.195,0.152-0.43,0.327-0.586,0.508v0.416c-1.114-0.039-2.051-0.787-3.164-0.8c-0.247-0.444-1.245-0.278-1.598,0.082
		c-0.26-0.138-0.541-0.275-0.775-0.451c-0.497,0.386-1.027,0.814-1.475,1.262c-0.22-0.438-0.615-0.551-1.082-0.559
		c0.006-0.09,0.008-0.229-0.027-0.303c-0.456,0.284-0.819-0.112-1.283-0.218c-0.583-0.371-1.243,1.311-1.838,1.546
		c-2.053,0.998-3.514,2.866-5.906,3.094c-0.802,0.65-1.406,1.602-2.608,1.602c-1.772-0.477-2.371,1.609-3.941,1.588
		c-0.522,0.081-0.851-0.297-1.265-0.49c-1.117,0.049-2.039-0.136-3.017-0.698c-0.911,0.355-1.574-0.221-2.078-0.941
		c-0.88-0.646-1.498,0.027-2.353,0.325c-0.499,0.11-0.903-0.51-1.375-0.23c-1.291,0.682-2.849,0.315-4.001,1.341
		c-0.292,0.169-0.546,0.414-0.876,0.163c-0.444-0.257-0.758,0.171-1.111,0.377c-0.669,0.348-1.569,0.438-2.208-0.001
		c-1.488-0.274-3.249-0.309-4.603-1.012c-1.521-0.39-0.266-1.333-1.231-1.466c-1.014-0.38-0.921,0.878-1.638,1.154
		c-0.819,0.59-1.047-0.692-1.751-0.908c-1.069-0.823-2.816-0.238-3.719-1.266c0.134-1.72-2.735-2.469-4.057-2.356
		c-0.404,0.901-1.366,2.28-2.464,1.433c-0.474-0.238-0.23-0.922-0.856-0.938c-0.712-0.313-1.265-1.181-1.674-1.79
		c0.215-1.279,0.082-2.527-1.119-3.273c-1.62-1.033-3.649,2.187-5.424,0.746c-0.509-0.522-1.404-0.338-1.968-0.892
		c-0.86-1.007-3.165-3.382-0.916-4.02c0.025-0.231-0.337-0.17-0.439-0.146c-0.311,0.072-0.571,0.129-0.845-0.086
		c-0.31-0.239-0.107-0.689-0.586-0.716c-1.049-0.43-0.49,2.562-3.712,1.917c-2.701-0.027-5.334-0.313-8.033-0.375
		c-1.82,0.258-3.881-0.924-5.534-0.196c-2.575,1.543-5.742,1.661-8.292,3.106c-0.457,0.456-1.2,0.361-1.801,0.68
		c-0.612,0.451-0.9,1.332-1.633,1.624c-0.282,0.122-0.901,0.34-0.899,0.731c-1.708,0.11-2.799,1.678-4.276,2.347
		c-0.55,0.027-1.016,0.169-1.418,0.479c-0.204,0.108-0.703,0.498-0.248,0.652c-0.162,2.129-2.051,2.415-3.829,2.674
		c-2.718,0.351-5.348-1.411-7.877-1.562c-2.57,2.31-8.13-0.785-11.402-0.487c-2.555-0.665-5.209-1.717-7.613-3.057
		c-1.938-1.021-2.482-2.394-3.136-4.059c-0.484-0.549-0.96-1.856,0.233-1.655c-0.03-0.503-0.345-1.659-1.022-1.223
		c-0.245-0.15-0.405,0.05-0.599-0.179c-0.252-0.192-0.299-0.182-0.53,0.039c-0.053-0.022-0.119-0.065-0.158-0.112
		c-0.316,0.139,0.062,0.407,0.058,0.613c-0.382,0.05-0.639-0.212-0.945-0.372c-0.345-0.214-0.441,0.167-0.683,0.299
		c-0.204,0.062-0.457-0.056-0.52,0.219c-0.224,0.063-0.519,0.083-0.52,0.396c-0.273-0.115-0.329-0.469-0.539-0.619
		c-0.59,0.332-1.24-0.826-1.411-1.315c-0.538-0.322-1.42-1.22-1.741-0.136c-0.106-0.205-0.472,0.021-0.669-0.081
		c-0.359-0.517-1.082-0.214-1.189,0.336c-0.076,0.148-0.194,0.192-0.316,0.232c-0.044,0.413-0.414,0.441-0.76,0.471
		c-0.522,0.04-0.707,0.545-1.133,0.02c-0.557,1.083-1.92-0.504-2.26,0.939c0.292,0.391-0.076,0.866-0.299,1.258H9.767
		c-1.087,1.182-0.107,1.801,1.048,2.121c0.118,0.476,0.593,0.741,1.074,0.818c0.256,0.762-0.071,1.744,0.28,2.497
		c0.596,0.896-0.069,1.554-0.965,1.092c-0.269,0.194-0.184,0.632-0.656,0.546c0.078,0.595-0.844,0.595-1.237,0.591
		c0.087,0.552-0.345,1.036-0.058,1.507c-0.24,0.333-0.415,0.424,0.093,0.467c-0.421,0.427-0.17,0.887,0.227,1.201
		c-0.343,0.337-0.379,0.651,0,0.986c-0.451-0.073-0.778,0.071-0.725,0.557c-0.046-0.066-0.101-0.131-0.169-0.176
		c-0.035,0.218-0.157,0.547-0.369,0.303c-0.197,0.003,0.022,0.45-0.257,0.381c0.129,0.166,0.212,0.309,0.16,0.511
		C6.8,75.094,7.988,76.23,6.292,76.236c0.339,0.517,0.095,1.258,0.699,1.616c0.66,0.291,1.734,0.269,2.406,0.123
		c0.493-0.042,0.933,0.05,1.373-0.127c0.349,0.122,0.718,0.285,0.981-0.098c0.377-0.584,1.252-0.105,1.774-0.375
		c0.471-0.318,0.837,0.348,0.797,0.748c-0.165,0.326-0.581,0.41-0.892,0.517c-0.328,0.213-0.507,0.592-0.957,0.553
		c-1.636,0.366-2.848,1.868-4.481,2.357c1.328,1.302,0.414,2.177-0.328,3.555c0.493,0.505,1.361-0.521,1.745-0.896
		c0.561-0.216,0.121-0.692,0.347-1.065c0.854-0.72,2.146-1.249,2.623-2.31c0.53-1.408,2.199-1.973,3.56-2.3
		c0.688-1.042,2.295-0.952,3.113-2.018c0.521-1.228,1.676-1.904,1.915-3.334c0.753-0.393,1.911-0.968,2.753-0.608
		c0.584,0.395,1.191,0.473,1.858,0.523c1.852-3.443,5.387,0.297,6.028-0.618c0.096-0.306-0.613-0.923-0.242-1.058
		c0.913,0.502,0.259,2.388,1.886,1.624c0.443-0.157-0.216-0.505,0.012-0.795c0.089-0.871,0.395,0.483,0.539,0.69
		c0.516,0.645,1.103-0.028,1.605-0.288c0.284-0.078,0.641-0.061,0.748,0.259c0.933,0.558,1.559,1.453,2.685,1.725
		c-0.056,0.174-0.144,0.302-0.171,0.489c0.644-0.07,0.936,0.247,0.999,0.832c0.361,0.142,0.848-0.346,1.245-0.302
		c0.574,0.318,1.183-0.069,1.77,0.18c0.41-0.048,0.749,0.033,1.101,0.209c0.446,0.161,1.539-0.627,1.568,0.105
		c-0.063,0.441-0.495,0.248-0.772,0.179c-1.341,0.108-2.617,0.395-3.964,0.298c-0.679,0.074-1.305-0.092-1.827,0.439
		c-0.97,0.139-2.045,0.063-2.983,0.397c-0.389,0.821-2.027,0.684-1.941,1.58c0.477,0.117,0.872,0.15,1.158,0.61
		c0.512,0.372,1.076-0.156,1.62-0.065c0.587-0.002,1.072,0.789,0.238,0.854c-0.262,0.466-0.292,0.807-0.973,0.59
		c-0.507-0.125-1.086-0.017-1.526-0.325c-0.75-0.391-1.387,0.427-2.135,0.323c-1.074-0.442-2.162-0.426-3.306-0.436
		c-1.288-0.448-2.942,1.045-3.886,0.121c3.228-1.627-0.747-1.678-2.114-1.542c-0.357,0.66,0.806,0.991,1.075,1.521
		c0.161-0.095,0.573-0.043,0.64,0.179c-0.527,0.722-1.487,1.22-2.378,0.755c-0.893,0.282-3.043,0.027-3.183-1.104
		c0.039,0.013,0.075-0.008,0.107-0.006c0.024-0.321-0.15-0.647-0.398-0.853c-0.586,0.382-0.827,0.536-1.522,0.284
		c-0.409,0.114-0.673,0.484-0.984,0.738c-3.392-0.328-3.124,0.147-5.337,2.593c-0.897-0.101-0.941,0.353-1.012,1.117
		c-0.135,0.207-0.399,0.297-0.458,0.566c-0.268,1.361-1.203,0.404-1.783,0.937c-0.337,0.436,0.078,1.14-0.194,1.655
		c-0.171,0.214-0.227,0.396-0.006,0.593c0.22,0.359-0.056,0.669-0.137,0.97c0.042,0.344,0.307,0.538,0.228,0.924
		c-0.004,0.709-0.747,1.052-0.725,1.73c-0.087,0.423-0.525,0.991,0.181,1.094c2.123,0.053,4.19-1.056,6.393-1.289
		c0.375-0.197,0.674-0.045,1.055-0.049c0.352-0.115,0.816-0.582,0.864,0.058c0.014,0.46-0.159,1.243-0.778,1.044
		c-0.115,0.061-0.059,0.207-0.111,0.297c-0.107,0.188-0.603,0.075-0.528,0.422c0.176,0.508-0.364,0.579-0.672,0.811
		c-0.156,0.14-0.237,0.368-0.406,0.503c-0.304,0.008-1.066,0.244-0.705,0.666c1.008,0.2,1.009,0.137,1.358,1.123
		c0.661,0.581,2.044,1.348,0.476,1.823c-0.101,0.459-0.226,1.34,0.424,1.443c0.177,0.387,0.593-0.095,0.891-0.065
		c0.329-0.043,0.791,0.507,0.952,0.025c0.387,0.155,0.07,0.26,0.112,0.481c0.663,0.501-0.884,0.035-0.799,0.989
		c-0.181-0.002-0.183-0.108-0.315-0.194c-0.104,0.07-0.168,0.104-0.3,0.098c-0.173,0.313,0.476,0.604,0.118,0.83
		c-0.172,0.551-0.28,0.183-0.649,0.138c-0.319-0.217-0.615,0.175-0.977,0.123c-0.179,0.255-0.335,0.844-0.165,1.149
		c0.127,0.16,0.344,0.135,0.204,0.396c0.354,0.123,0.96,0.226,0.924,0.684c-0.034,0.438,0.595,0.383,0.474,0.83
		c0.251,0.487,0.53,1.182,1.117,0.564c2.358-0.586,1.745,1.024-0.289,0.652c-0.939,0.325-2.041,1.086-2.471-0.272
		c-0.1-0.101-0.047-0.096-0.167-0.023c-0.71,0.39-0.035,1.028-0.203,1.506c-0.658,0.049-0.501-0.741-0.528-1.148
		c-0.314-0.236-0.559-0.367-0.374-0.816c0.792-0.142,0.112-0.864-0.237-1.119c-0.085-1.014-1.784-2.423-2.311-0.946
		c-0.189,0.788,0.488,1.255,0.777,1.889c0.238,0.192,0.815,0.289,0.872,0.639c0.066,0.541-0.494-0.128-0.536,0.36
		c-0.199,1.338-0.966,1.341-1.543,0.234c-0.159,0.317,0.019,0.807-0.276,1.084c-0.111,0.105-0.609-0.004-0.455,0.248
		c0.332,0.196,0.657,0.207,0.886,0.567c0.496-0.064,0.691,0.091,1.016,0.444c0.037-0.044,0.053-0.107,0.046-0.172
		c0.639,0.216,0.82,0.926,1.397,1.137c0.183,0.072,0.504,0.448,0.559,0.021c0.041-0.322-0.022-0.686,0.206-0.963
		c0.485-0.32,1.357-0.404,1.333,0.366c0.928,0.004,0.636,1.099,1.008,1.694c0.853-0.845,1.796-0.016,2.554,0.497
		c0.43,0.231,1.023-0.088,1.282,0.436c0.199,0.297,0.001,0.527-0.068,0.793c0.165,0.328-0.097,0.564-0.059,0.852
		c0.892,1.308-1.192,2.03-2.237,1.923c-0.047,0.114-0.016,0.282,0.013,0.402c0.507,0.056,2.34,0.489,1.561,1.119
		c0.263,0.758,0.585,1.689,0.124,2.514c0.333,0,0.541,0.374,0.864,0.159c0.314-0.063,0.359-0.557,0.726-0.274
		c0.07-0.411,0.367-0.41,0.704-0.533c0.246,0.452-0.515,0.528-0.403,1.021c0.048,0.532,0.862,0.461,1.016-0.019
		c0.159,0.273,0.103,0.484-0.119,0.689c-0.298,0.418,0.286,0.207,0.428,0.069c-0.048,0.565,0.468,0.375,0.559-0.028
		c0.735-0.341,0.374,0.607,0.013,0.815c-0.556,0.257-0.199,0.767-0.11,1.124c-0.427,0.674-1.394,0.203-1.796-0.258
		c-0.164-0.095-0.34,0.093-0.479-0.088c-0.37-0.038-0.355,0.55-0.766,0.521c-0.245,0.14-0.076,0.324-0.111,0.505
		c-0.281,0.377,0.097,0.557,0.1,0.941c0.538,0.721,0.945-0.804,1.654-0.41c0.945,0.906,2.199,0.288,3.33,0.393
		c0.556-0.031,1.354-0.73,1.885-0.281c0.529-0.367,1.01,0.118,1.585-0.014c0.44-0.038,3.08-0.595,1.557-0.003
		c-0.302,0.15-0.441,0.407-0.557,0.704c-0.107,0.837-2.274-0.182-1.517,0.971c0.374,0.431-0.964,0.223-0.108,0.676
		c0.606,1.096-1.994-0.203-2.414,0.416c-0.32,0.177-0.775,0.137-1.086-0.006c-0.758-0.098-1.303,0.768-2.32,0.54
		c-0.53-0.036-0.21,0.759-0.82,0.556c-0.019,0.505,1.186,0.935,1.462,0.408c0.458-0.236,1.146,0.027,1.561,0.155
		c0.185-2.04,1.629-0.754,2.777-1.173c0.345-0.009,0.687-0.1,1.011-0.132c0.202,0.005,0.163-0.182,0.263-0.306
		c0.347-0.357,0.61,0.122,0.421,0.447c-0.201-0.24-0.41,0.042-0.138,0.167c0.272,0.204-0.231,0.617-0.253,0.169
		c-0.286,0.41-0.853,0.206-1.157,0.631c0.174,0.024,0.725,0.155,0.764-0.108c0.156,0.295,0.732,0.472,0.354,0.818
		c-0.263,0.423-0.706,0.046-1.066,0.162c-0.223,0.107-0.024,0.369,0.062,0.517c0.14,0.281,0.297-0.085,0.574,0.034
		c0.163-0.336,0.483-0.274,0.814-0.382c0.175-0.286,0.331-0.584,0.401-0.924c0.068-0.245,1.682-0.472,1.027-1.261
		c-0.308-0.246-0.277-0.772,0.067-0.976c0.452,0.136,0.87,0.852,1.395,0.746c0.154-0.217,0.305-0.69-0.079-0.731
		c-0.183-0.23,0.294-0.126,0.386-0.195c0.069-0.046,0.087-0.166,0.187-0.163c0.365,0.109-0.241,0.547,0.055,0.728
		c0.246,0.019,0.354,0.017,0.396,0.303c0.332,0.23,0.459-0.195,0.476-0.444c0.238,0.062,0.59,0.346,0.693,0.578
		c0.048,0.227-0.231,0.9,0.101,1.019c0.56-0.214,1.607-0.117,1.763,0.611c0.306,0.109,0.093,0.781,0.494,0.72
		c0.19-0.304,0.774-0.642,0.112-0.767c-0.042-0.434,0.369-0.472,0.529-0.797c0.095-0.193,0.115-0.357,0.353-0.35
		c0.352,0.043,0.451,0.497,0.747,0.665c0.282,0.208,1.117,0.202,0.765,0.74c-0.674,0.158-1.344,0.809-0.211,0.909
		c0.637,0.003,0.386,0.63,0.214,0.963c-0.024,0.223,0.171,0.193,0.248,0.38c0.128,0.31-0.316,0.637-0.124,0.927
		c0.286,0.326,0.599,0.538,1.029,0.648c0.477,0.374,0.769,1.075,1.439,1.145c-0.009-0.282,0.449-0.378,0.492-0.086
		c-0.047,0.357,0.342,0.283,0.585,0.367c0.557,0.127,1.177,0.17,1.724,0.217c0.191,0.198-0.163,0.268-0.001,0.433
		c0.102,0.138,0.313,0.242,0.435,0.35c0.535-0.913,0.882,0.35,1.353-0.323c0.207-0.278,0.573-0.063,0.749-0.338
		c0.081-0.132,0.12-0.306,0.248-0.409c0.116-0.094,0.178-0.056,0.314-0.035c0.526,0.125,0.812-0.508,1.333-0.378
		c0.357,0.135,0.566-0.102,0.667-0.424c0.333-0.422,1.368-0.502,1.73-0.08c0.197,0.311,0.686,0.085,0.786,0.399
		c0.022,0.082-0.019,0.696,0.232,0.48c0.003-0.316,0.448-0.413,0.564-0.655c0.076-0.159-0.117-0.375-0.044-0.486
		c0.066-0.102,0.378-0.023,0.433-0.187c-0.205-0.536-0.663-1.069-0.053-1.555c1.174-1.619-0.252-3.869,1.436-5.252
		c1.198,0.469,2.679,0.104,3.997,0.266c0.865,0.483,1.984,0.129,2.801,0.659c1.08,0.694,2.296,1.089,3.288,1.969
		c1.064,0.195,1.887,0.956,3.017,1.174c1.287,0.358,1.763,1.834,2.592,2.728c1.109,2.097,3.44,3.488,5.794,3.852
		c0.641-0.975,1.852-1.298,2.846-0.689c0.199-0.65,0.71-0.708,1.331-0.606c0.626,0.186,1.223-0.613,1.664-0.048
		c0.154,0.08,0.22-0.03,0.353-0.121c0.438-0.374,0.908-0.065,1.368,0.065c0.353-0.065,0.429-0.688,0.914-0.698
		c-0.022,1.019,1.181-0.498,1.589-0.646c0.336-1.312,1.195-1.138,1.556,0.074c0.083-0.269,0.233-0.811,0.615-0.755
		c0.247,0.123,0.373-0.263,0.511-0.415c-0.602-1.27,4.97-5.943,6.293-5.999c1.096-0.282,1.545,0.945,2.414,1.144
		c1.312,0.26,2.269,1.394,3.518,1.82c-0.243-0.545-1.159-0.705-1.255-1.267c0.247-0.618,0.718,0.035,0.853,0.361
		c0.279,0.317,1.076,0.3,0.748,0.856c-0.154,0.547,0.492,0.277,0.651,0.021c0.46-0.232,1.201-0.077,1.687,0.106
		c0.158-0.278,0.457-0.436,0.67-0.638c0.153-0.217-0.056-0.5,0.152-0.7c0.096-0.092,0.586-0.306,0.432-0.438
		c-0.26-0.008-0.395-0.025-0.524-0.283c-0.058,0.041-0.127,0.078-0.199,0.082c-0.011-0.547,0.675-0.481,1.037-0.516
		c1.607,0.355,1.975-2.671,3.44-1.842c1.446,0.725,1.595,2.614,1.087,3.917c-0.777,0.538-1.547,0.959-2.089,1.736
		c-0.701,0.018-0.833,0.725-1.157,1.178c-0.365,0.045-0.519,0.448-0.706,0.72c0.005,0.301,0.376,0.444,0.516,0.693
		c0.511,1.247,2.158,2.711,0.756,3.918c0.232,0.536,1.128-0.541,1.073,0.267c-0.633,0.767,1.001,0.123,1.108,0.971
		c0.997,1.215-0.207-1.926,1.657-1.551c0.005-0.188-0.05-0.415,0.003-0.595c1.106,0.92,1.017-1.48,0.8-1.955
		c0.187-0.209,0.396-0.386,0.073-0.6c0.322-0.171,0.594,0.246,0.896,0.243c-0.033-0.924,1.023-0.501,1.511-0.212
		c0.048-0.515,0.592-0.089,0.721-0.467c-0.072-0.155-0.198-0.196-0.089-0.383c0.057-0.25-0.074-0.084-0.197-0.229
		c-0.092-0.108,0.04-0.352-0.095-0.449c-0.812,0.237-0.389,0.027-0.477-0.632c-0.585-0.387-0.633-1.432-0.341-2.032
		c0.212-0.473-0.253-1.137,0.177-1.475c0.439-0.287,0.345-0.615,0.263-1.007c0.114-0.291,0.473-0.413,0.536-0.729
		c0.164-0.872,1.35,0.245,1.868,0.288c0.356,0.081,0.765-0.078,1.101,0.09c0.266,0.216,0.314,0.579,0.726,0.619
		c-0.152,0.427-0.346,0.862,0.238,1.054c0.274,0.107,0.387-0.343,0.764-0.404c0.177,0.421,0.48,0.071,0.725-0.028
		c0.863,0.131,1.746,0.408,2.59,0.588c0.325-0.784,1.496-1.229,2.262-1.559c0.878,0.15,1.644-0.272,2.33-0.786
		c0.554-0.04,0.901-0.069,1.234-0.563c0.504-0.198,0.967-0.409,1.43-0.684c2.146-0.297,3.873,1.26,5.38,2.572
		c1.338-0.002,3.359-0.113,4.562,0.509c1.225,0.062,2.422-0.549,3.699-0.458c0.96-0.208,1.75-0.86,2.787-0.606
		c1.236-0.483,2.23-1.248,3.489-1.544c0.721-0.696,1.705-0.94,2.336-1.754c1.452,0.158,2.49-1.272,3.832-1.309
		c0.431,0.433,0.941-0.437,1.528-0.049c2.323,0.591,4.841,1.052,7.118,0.073c1.841-0.161,4.548-0.496,5.321-2.422
		c0.239-0.161,0.154,0.221,0.18,0.329c0.149,0.394,0.552-0.06,0.763,0.105c0.047,0.441,0.904,0.619,0.353,1.093
		c-0.102,1.994,1.511,0.264,2.571,0.591c0.182-0.709,0.362-0.824,0.678-1.371c0.06-0.312,0.541-0.2,0.345-0.617
		c0.201-0.103,0.344-0.106,0.513-0.285c0.178-0.287,0.585-0.983,0.862-0.424c0.285,0.43,0.879,0.481,1.331,0.634
		c0.142-0.157,0.128-0.123,0.334-0.155c0.299-0.201,0.504-0.585,0.962-0.568c0.851-0.195,1.531,0.524,2.275,0.865
		c0.126-0.271,0.157-0.423,0.496-0.363c0.083,0.556,0.82,0.387,1.11,0.778c0.123,0.184,0.044,0.24,0.289,0.33
		c0.175,0.064,0.176,0.082,0.3-0.039c0.281-0.431,0.754,0.09,0.998,0.308c0.614-0.107,1.675-0.521,1.986,0.277
		c0.181-0.288,0.39-0.352,0.725-0.31c0.291-0.136,0.555-0.488,0.543-0.792c0.401-0.026,0.524-0.7,1.007-0.492
		c0.724,0.181,1.551,0.249,2.096,0.995c-0.042,0.334,0.03,0.659,0.033,0.993c-1.397-0.055-0.469,2.409,0.397,2.501
		c-0.041-0.396,0.585-0.418,0.495-0.777c-0.29-0.536,1.084-0.352,1.35-0.845c0.28-0.416,0.71-0.424,0.949-0.934
		c0.48-0.444,1.317-0.043,1.853,0.141C193.196,120.732,194.624,121.238,194.186,120.444z"/>
	<path fill="#1E8346" d="M22.738,77.888c1.608-0.616-0.895-0.95-1.42-0.45C21.162,78.347,22.237,78.372,22.738,77.888z"/>
	<path fill="#1E8346" d="M21.24,78.832c-0.699,0.224-0.562,1.234,0.103,0.548C21.228,79.172,21.693,78.968,21.24,78.832z"/>
	<path fill="#1E8346" d="M22.447,79.533c0.111-0.35-0.679-0.657-0.417-0.012c-0.223,0.137-0.288,0.24,0.046,0.266
		c0.142,0.032,0.198,0.172,0.38,0.107C22.461,79.725,22.118,79.576,22.447,79.533z"/>
	<path fill="#1E8346" d="M5.848,83.968c-0.392-0.389,0.15-1.494-0.951-1.159c-0.593,0.335-2.337,0.482-2.251,1.37
		c0.57,0.413,1.085,0.409,1.766,0.201C4.792,84.123,5.75,84.379,5.848,83.968z"/>
	<path fill="#1E8346" d="M6.746,88.359c0.158-0.665-0.668-0.65-1.064-0.42C5.868,88.141,6.621,88.973,6.746,88.359z"/>
	<path fill="#1E8346" d="M12.283,94.493c0.137-0.026,0.386,0.076,0.45-0.03c-0.005-0.128-0.221-0.352-0.35-0.273
		C12.156,94.181,11.824,94.533,12.283,94.493z"/>
	<path fill="#1E8346" d="M13.268,105.707c0.338-0.071,0.024-0.837-0.173-1.038C12.857,104.861,12.798,105.769,13.268,105.707z"/>
</g>
</svg>
