<?xml version="1.0" encoding="utf-8"?>
<!-- Generator: Adobe Illustrator 26.0.3, SVG Export Plug-In . SVG Version: 6.00 Build 0)  -->
<svg version="1.1" xmlns="http://www.w3.org/2000/svg" xmlns:xlink="http://www.w3.org/1999/xlink" x="0px" y="0px"
	 viewBox="0 0 200 200" enable-background="new 0 0 200 200" xml:space="preserve">
<g id="Layer_1">
</g>
<g id="c">
</g>
<g id="Isolation_Mode">
	<path fill="#1E8346" d="M149.335,20.93c0.025,0.709-1.151,0.896-2.999,2.207c-2.873,2.037-4.271,4.592-4.81,5.602
		c-0.436,0.817-0.779,1.461-1.018,2.433c-0.529,2.145-0.108,4.089,0.17,5.376c0.348,1.611,0.616,1.693,0.736,2.999
		c0.094,1.028-0.016,1.586,0.283,2.603c0.269,0.914,0.471,0.847,0.792,1.754c0.155,0.437,0.912,2.576-0.056,3.961
		c-0.364,0.52-0.598,0.4-0.849,0.905c-0.499,1.004,0.304,1.719-0.056,2.603c-0.381,0.934-1.459,0.574-2.263,1.584
		c-0.808,1.016,0.036,1.688-0.622,3.452c-0.65,1.741-1.925,2.302-1.641,3.395c0.13,0.499,0.452,0.597,0.453,1.132
		c0.001,0.431-0.208,0.717-0.906,1.698c-0.981,1.38-0.888,1.265-0.962,1.358c-1.404,1.764-1.93,1.644-2.603,2.66
		c-1.164,1.759-0.045,2.81-1.358,4.583c-0.601,0.812-1.062,0.897-1.301,1.698c-0.29,0.97,0.253,1.289,0.339,2.716
		c0.045,0.741-0.086,0.921-0.736,3.904c-0.203,0.93-0.378,1.775-0.453,2.15c-0.576,2.887-0.345,3.704-0.679,5.659
		c-0.365,2.138-0.751,1.803-1.924,5.602c-0.579,1.875-0.887,3.261-1.358,5.376c-0.801,3.598-0.571,3.35-1.301,6.733
		c-0.886,4.102-1.419,5.369-2.094,9.337c-0.173,1.019-0.168,1.111-0.283,1.584c-0.91,3.749-2.713,4.029-2.772,6.394
		c-0.023,0.924,0.23,1.751,0.113,3.678c-0.028,0.458-0.069,0.859-0.283,1.301c-0.504,1.043-1.527,1.411-2.037,1.698
		c-1.546,0.867-1.01,2.449-2.49,5.828c-1.417,3.235-3.859,6.241-5.447,6.936c-0.138,0.061-0.397,0.159-0.607,0.42
		c-0.666,0.829,0.207,2.004-0.056,3.282c-0.186,0.903-0.853,1.443-1.754,2.15c-4.414,3.468-5.46,3.941-6.564,5.149
		c-0.488,0.534-1.181,2.231-2.546,5.602c-1.421,3.509-0.89,2.449-3.452,9.393c-0.643,1.743-0.832,3.621-1.32,5.413
		c-0.19,0.699-0.433,1.536-0.038,2.301c0.293,0.567,0.775,0.781,0.754,1.283c-0.018,0.456-0.431,0.642-0.754,1.056
		c-0.55,0.704-0.212,1.256-0.283,3.244c-0.077,2.155-0.529,3.042-0.113,4.074c0.051,0.127,0.203,0.475,0.321,0.981
		c0,0,0.155,0.669,0.151,1.32c-0.008,1.297-1.343,1.991-1.962,3.471c-0.825,1.975,0.322,3.688-0.302,3.999
		c-0.513,0.255-1.152-0.975-3.319-1.811c-0.573-0.221-2.027-0.764-2.679-0.151c-0.29,0.273-0.305,0.666-0.528,0.679
		c-0.302,0.017-0.611-0.685-0.755-1.207c-0.332-1.207,0.179-1.608-0.151-2.452c-0.357-0.912-1.085-0.778-1.207-1.471
		c-0.158-0.897,1.024-1.323,1.283-2.754c0.105-0.58,0.007-1.048-0.151-1.66c-0.843-3.26-1.924-5.621-1.924-5.621
		c-2.301-5.024-1.5-5.25-3.037-7.243c-0.857-1.111-1.797-1.873-3.678-3.395c-2.342-1.896-2.85-1.846-4.697-3.565
		c-0.447-0.416-0.953-0.918-1.811-1.415c-1.263-0.731-2.246-0.848-2.829-1.018c-2.237-0.655-3.374-3.513-4.697-6.96
		c-0.822-2.141-0.863-2.767-2.15-7.469c-1.425-5.207-2.15-7.828-2.773-8.714c-2.074-2.953-4.721-3.961-4.64-6.451
		c0.025-0.767,0.319-2.009-0.396-2.66c-0.575-0.523-1.4-0.297-1.528-0.679c-0.156-0.468,1.042-0.919,1.698-1.98
		c0.715-1.158,0.124-1.976,0.113-4.301c-0.002-0.395,0.01-3.031,1.188-5.771c0.795-1.85,1.233-1.463,1.981-3.225
		c0.188-0.442,1.881-4.438,0.226-6.338c-0.617-0.708-1.426-0.81-1.471-1.471c-0.047-0.689,0.805-0.947,1.132-1.924
		c0.294-0.881-0.13-1.476-0.34-2.433c-0.413-1.884,0.629-2.314,1.415-6.281c0.454-2.296,0.162-2.439,0.679-3.621
		c0.14-0.32,0.485-1.049,2.433-3.452c1.498-1.847,1.556-1.739,2.15-2.546c1.493-2.029,1.03-2.58,2.433-5.093
		c1.632-2.922,2.698-2.964,3.225-5.149c0.457-1.896-0.289-2.099,0.283-3.452c0.905-2.141,2.881-1.889,4.301-4.357
		c0.752-1.308,0.159-1.312,1.018-3.055c1.031-2.09,2.06-2.441,3.225-4.64c0.648-1.224,0.4-1.247,1.075-2.772
		c1.193-2.694,2.303-3.378,4.018-5.998c1.8-2.751,1.038-2.703,2.716-5.263c1.084-1.654,2.402-3.027,5.036-5.771
		c2.374-2.474,2.891-2.787,3.961-4.301c0.646-0.914,1.61-2.297,2.377-4.3c1.028-2.688,0.561-3.517,1.754-5.715
		c0.449-0.828,0.411-0.518,2.037-2.886c2.087-3.04,1.865-3.135,2.603-3.791c0.847-0.752,1.156-0.641,4.753-2.207
		c2.672-1.162,2.292-1.133,3.621-1.641c2.509-0.96,5.089-1.535,5.828-1.698c2.366-0.52,3.486-0.575,4.187-1.584
		c0.418-0.602,0.18-0.813,0.736-1.924c0.462-0.924,0.723-0.972,2.037-2.66c1.134-1.457,1.177-1.726,1.811-2.15
		c0.573-0.384,1.066-0.517,2.018-0.773c1.218-0.328,2.93-0.614,3.018-0.34c0.038,0.119-0.257,0.266-1.434,1.056
		c-1.594,1.071-1.746,1.269-1.848,1.433c-0.705,1.135-0.174,2.508-0.151,2.565c0.128,0.316,0.501,1.239,1.207,1.358
		c1.07,0.181,2.207-1.6,2.414-1.924c0.711-1.114,0.709-1.9,1.396-2.112c0.4-0.124,0.868-0.002,1.17,0.226
		c0.426,0.322,0.314,0.7,0.679,1.32c0.301,0.51,0.679,0.769,1.433,1.283c1.086,0.741,1.411,0.608,1.698,1.094
		c0.419,0.711-0.095,1.306,0.302,1.735c0.414,0.448,1.153-0.001,2.263,0.076c1.552,0.107,1.585,1.085,3.169,1.509
		c2.137,0.572,3.488-0.831,4.527,0.075c0.371,0.324,0.501,0.767,0.717,1.509c0.365,1.25,0.042,1.712,0.226,2.452
		C146.253,19.682,149.294,19.793,149.335,20.93z"/>
</g>
</svg>
