<?xml version="1.0" encoding="utf-8"?>
<!-- Generator: Adobe Illustrator 26.0.3, SVG Export Plug-In . SVG Version: 6.00 Build 0)  -->
<svg version="1.1" id="Isolation_Mode" xmlns="http://www.w3.org/2000/svg" xmlns:xlink="http://www.w3.org/1999/xlink" x="0px"
	 y="0px" viewBox="0 0 200 200" enable-background="new 0 0 200 200" xml:space="preserve">
<g>
	<path fill="#1E8346" d="M194.633,106.913c-0.438-0.671-1.615-0.194-2.158,0.187c-0.535,0.482-0.732-0.359-0.937-0.716
		c-1.034,0.09-2.34,0.392-3.252-0.246c0.121-0.141,0.227-0.208,0.174-0.413c-0.268-0.24-0.31-0.912-0.755-0.828
		c0.004-0.026-0.009-0.061-0.003-0.087c-0.09,0.044-0.198,0.053-0.299,0.073c0.349-1.098-1.074-0.671-1.457-1.286
		c-0.193-0.118-0.262-0.037-0.332,0.129c-0.389,0.304-1.533,1.153-1.916,0.586c0.876-0.225,0.497-1.717,0.243-2.305
		c-0.627-0.347-0.903,0.489-1.358,0.589c-0.379-0.481-0.994-0.303-1.511-0.514c-0.707-0.384-0.18-0.965-0.115-1.514
		c0.127-0.553-0.249-1.019-0.26-1.542c-0.67,0.602-0.936-0.741-1.024-1.217c-0.335,0.008-0.439,0.214-0.433,0.51
		c-0.111-0.027-0.244-0.237-0.318-0.326c-0.039,0.168,0.045,0.39-0.036,0.544c-0.646-0.348-0.04-0.751,0.156-1.12
		c-0.03-0.223-0.08-0.423,0.098-0.607c-0.077-0.004-0.154-0.001-0.231-0.002c0.061-0.172,0.301-0.185,0.1-0.373
		c-0.41,0.078-0.854,0.278-0.837,0.741c-0.177,0.024-0.317,0.068-0.485,0.138c-0.068,0.395,0.41-0.085,0.478,0.134
		c0.122,0.405,0.384,0.881-0.07,1.175c0.205,0.201-0.032,0.502-0.139,0.727c-0.076-0.015-0.151-0.042-0.227-0.057
		c-0.179,0.303-0.449,0.548-0.646,0.83c-0.198-0.062-0.342-0.221-0.564-0.228c-0.016,0.083-0.05,0.166-0.104,0.232
		c-0.119-0.053-0.103-0.22-0.214-0.293c-0.341,0.221-0.57,0.264-0.371,0.689c-0.187,0.275,0.007,0.391,0.124,0.614
		c-0.153,0.403-0.269,0.428-0.041,0.859c-0.085,0.301-0.347,0.589-0.576,0.788c-0.072-0.91-0.443-1.388-0.988-0.345
		c-0.467,0.001-0.241-0.796-0.782-0.864c-0.042,0.055-0.077,0.115-0.126,0.165c-0.364-0.509-0.849,0.277-1.104,0.57l-0.872-0.743
		l-0.857,0.4l-1.236-1.247l-0.633,0.268c-0.041,0.161-0.036,0.343-0.14,0.479c-0.397-0.886,0.236-1.982-0.195-2.841
		c-0.407-0.34-0.447-0.929-0.866-1.229c-0.595,0.003-1.229,0.351-1.504,0.915c-0.197,0.071-0.674,0.395-0.784,0.171
		c-0.452-0.836-1.559-0.943-2.003-1.76c-0.314,0.495-1.161,0.558-1.416,0.011c-0.074-0.543,0.548-0.76,0.397-1.311
		c0.381,0.04,0.793,0.098,1.005-0.298c0.265-0.274,0.702-0.07,0.873-0.445c0.16-0.439,0.93-0.87,1.361-0.891
		c0.036-0.626,0.16-1.346,0.911-1.375c0.222-0.082,0.186-0.27,0.186-0.48c0.183-0.218,0.424-0.396,0.446-0.756
		c0.047,0.045,0.059,0.143,0.071,0.214c0.197-0.487,0.651-0.786,1.139-0.428c0.017-0.106,0.054-0.209,0.064-0.316
		c1.654,0.637,0.581-0.941,1.266-1.758c0.395,0.279,0.952,0.391,1.447,0.29c-0.002-0.124-0.022-0.271,0.01-0.389
		c0.842-0.12,1.211-1.31,2.16-1.214c0.648-0.041,1.191-1.498,0.049-1.342c-0.09-0.341-0.633-1.014-1.017-0.719
		c-0.382-0.065-0.878-0.501-1.091,0.061c-0.129,0.475-0.622-0.007-0.901,0.272c-0.341,0.323-0.5,0.799-1.034,0.843
		c-0.373-0.049-0.719-0.057-1.066,0.138c0.254,0.229,0.036,0.396-0.185,0.526c-0.734,0.43-0.591,1.454-1.055,2.077
		c-0.285,0.247-0.846-0.156-0.886-0.469c0.082-0.459-0.414-0.834-0.799-0.976c-0.094,0.188-0.153,0.52-0.39,0.359
		c-1,0.198-1.289,0.656-1.346,1.582c-0.397,0.374-0.907,0.364-1.08,0.968c-0.583,0.051-0.302,0.846-0.742,1.092
		c-0.407-0.014-0.664,0.175-0.849,0.505c-0.29,0.022-0.192,0.266-0.314,0.47c-0.165-0.079-0.289-0.268-0.456-0.356
		c-0.111,0.391-0.582,0.433-0.543,0.987c-0.403,0.165-0.723,0.59-1.174,0.234c-0.503-0.12-1.181,0.182-1.475,0.602
		c-1.331-0.164-1.565,1.048-2.342,1.756c-0.143-0.094-0.382-0.09-0.455-0.276c-0.179,0.338-1.104,0.958-0.302,1.173
		c0.127-0.034,0.2-0.138,0.188,0.107c-0.543,1.132-2.439,0.081-3.359,0.82c0.03,0.187,0.123,0.345,0.158,0.529
		c-0.3-0.03-0.498,0.132-0.614,0.374c-0.276,0.121-0.658-0.049-0.916,0.216c0.4,0.378,0.149,0.772-0.123,1.069
		c0.285,0.254,0.118,0.504,0.111,0.854c-0.095-0.01-0.226-0.134-0.258-0.195c-0.397,1.098-3.527,2.058-2.993,3.246
		c0.909,0.55-0.756,0.798-0.93,1.09c-0.561-0.437,0.323-0.401,0.204-0.674c-0.081-0.188-0.39-0.064-0.532-0.033
		c-0.043-0.007-0.086-0.019-0.129-0.028c0.004-0.175,0.01-0.352,0.008-0.525c-0.228,0.249-0.599,0.447-0.866,0.18
		c-0.196,0.185-0.265,0.556-0.555,0.695c-0.167,0.086-0.053,0.24,0.044,0.33c0.12-0.078,0.245-0.137,0.358-0.226
		c0.035,0.072,0.007,0.155,0.032,0.229c0.144,0.058,0.29,0.039,0.437,0.064c0.785,0.525,0.051,1.188,0.061,1.819
		c0.242,0.385,0.328,1.168,0.27,1.642c0.392-0.119,0.931,0.241,0.591,0.628c-0.211,0.327,0.157,0.573,0.188,0.872
		c-0.201,0.218-0.696,0.734-1.026,0.461c-0.304-0.301-0.665,0.033-0.969-0.15c-0.234-0.097-0.455-0.267-0.618-0.459
		c-2.142-0.149-3.123-2.801-5.295-3.075c0.356-0.99,1.554,0.048,1.494-1.484c0.494-0.06-0.122-0.445,0.04-0.717
		c0.202-0.303-0.135-0.409-0.241-0.607c0.226-0.111,0.465-0.087,0.71-0.116c0.109-0.431-0.106-0.665-0.483-0.834
		c-0.226,0.263-0.185,0.695-0.601,0.639c-0.68,0.768-0.287-0.744-0.471-1.024l-0.139-0.639h-0.836l-0.3,0.225l-1.372-0.675
		c-0.982,0.134-3.198,0.503-4.106,0.858c0,0-7.282-0.268-7.282-0.268c-0.659-2.673-1.661-8.119-1.915-10.848l-5.938-0.9V84.26
		l1.022,0.215l0.114-8.918L114.07,76.8c-0.917-1.671-2.649-5.193-3.449-6.938c0,0-3.912-2.798-3.912-2.798l-1.951-3.301
		l-0.793-0.311l-4.352,2.465c-3.43-0.037-10.347-0.547-13.685-1.208c-3.192,0.74-11.058,2.41-14.28,2.291l-9.057-10.408l-0.5-0.572
		l-0.357-2.115l-12.199-9.897c-0.244,1.372-0.398,2.633-0.533,4.02c-0.506,1.285-0.989,2.646-0.911,4.022
		c0.666,0.836,1.513,2.145,0.503,3.09c-0.469,0.069-0.735,0.307-1.121,0.532c-0.638-0.143-1.266-0.1-1.935-0.28
		c-0.657,0.003-0.95-0.888-1.429-1.283c-1.972-0.93-3.401-2.828-3.773-5.018c0.939-2.982,3.03-5.762,2.681-9.111l-6.982-4.023
		c-1.285,1.337-1.598,3.315-0.887,4.981c0.248,1.423-1.212,2.532-0.824,3.881c0.2-0.082,0.398,0.097,0.509,0.252
		c0.083-0.49,0.543-0.625,0.896-0.794c0.209-0.209,0.081-0.486,0.472-0.566c-0.134,0.435-0.275,0.379,0.089,0.722
		c0.099,0.42-0.221,0.914-0.669,0.848c-0.673,0.566,0.364,2.192-0.505,2.86c-2.103-1.136-0.336,3.382-2.343,4.509
		c-1.566,1.89-3.645,0.108-2.444-1.862c1.233-0.704-0.148-2.289-0.441-3.23c-0.437-1.977,0.826-3.938,1.565-5.681
		c0.361-1.232,0.257-2.827,1.409-3.652c0.935-0.719,0.547-1.986,1.072-2.882c0.091-0.126,0.305-0.662-0.016-0.662L5.352,43.968
		V99.66c2.02,0.151,9.703,0.457,11.484,1.207c0.414-0.291,0.353-0.738,0.208-1.13c0.25-0.204,1.724-0.383,1.009-0.91
		c-0.201,0.007-0.154,0.386-0.452,0.275l-0.7-1.007c0.057-1.066-0.087-2.683-0.701-3.601c0,0,0-3.287,0-3.287l0.772-0.443
		c0.449-1.998,1.474-8.403,4.424-5.93c1.181,0.262,2.171,1.353,1.987,2.628c0.452,0.138,0.733-0.263,1.152-0.327
		c0.44,0.038,0.863,0.011,1.259-0.089c-0.015-0.233-0.324-1.001,0.137-0.782c0.106,0.031,0.185,0.053,0.273,0.119
		c0.201-0.793,0.95-1.697,0.661-2.537c-0.033-0.266-0.479-0.376-0.394-0.607c0.2-0.191,0.403-0.373,0.592-0.086
		c0.088-0.185,0.216-0.38,0.167-0.585c-0.015-0.208,0.114-0.045,0.216-0.15c0.066-0.068,0.003-0.271,0.037-0.369
		c0.273,0.305,0.513-0.244,0.576-0.477c0.017,0.135,0.035,0.311,0.072,0.445l0.829,0.172v0.757l0.643-0.357l1.515,0.357
		c0.498,0.496,0.688,1.763,0.686,2.429l0.529-0.2l0.786,0.257l-0.014-0.657l-0.815-0.686l-0.329-0.057
		c0.157-0.319-1.072-2.43-1.201-2.729l-1.515-0.629l-0.057-0.558l1.429-0.814c0.801,0.393,2.444,0.659,3.33,0.586
		c0.372-0.284-0.026-0.738,0.177-1.012c0.103-0.068,0.5,0.086,0.414-0.167c-0.305-0.245-0.259-0.722-0.247-1.093
		c0.962,0.643,4.126,5.009,5.633,4.141c0.372-0.206,0.636,0.001,0.81,0.351c0.2,0.384,0.573,0.766,0.714,1.155
		c-0.255,0.245,0.046,0.554,0.235,0.792c0.58,0.415,1.225,0.593,1.574,1.165c0.584,0.164,1.228,0.019,1.825,0.014
		c0.204-0.186,0.334,0.111,0.535,0.138c0.33-0.051,0.668-0.245,1.022-0.231c0.706,0.386,0.715,0.499,1.312-0.17
		c0.167-0.006,0.425-0.047,0.582,0.028c-0.197,0.529,0.13,0.403,0.465,0.602c0.082,0.126-0.082,0.121-0.097,0.2
		c0.047,0.262,0.29,0.19,0.456,0.186c0.036,0.216,0.236,0.327,0.419,0.433c-0.005,0.285-0.074,0.579,0.284,0.624
		c-0.116,0.364-0.4,0.252-0.629,0.134c-0.274,0.116-0.389,0.387-0.146,0.606c1.132-0.164,0.794,1.357,0.462,1.983
		c-0.293,0.047-1.336-0.732-0.96,0.086c0.314,0.504,1.132,0.001,1.048,0.803c0.91,0.079,1.254,0.813,1.734,1.373
		c0.564,0.112,1.499,0.485,1.533,1.132c-0.206,0.169-0.35,0.012-0.315,0.387c-0.03-0.291-0.426-0.395-0.593-0.163
		c-0.261-0.143-0.369-0.551-0.598-0.735c-0.02,0.082-0.054,0.164-0.096,0.238c-0.075-0.059-0.116-0.155-0.122-0.256
		c-0.319,0.06-0.871-0.289-0.987,0.064c0.023,0.344-0.355,0.575-0.209,0.875c0.349,0.604,1.367,1.144,1.26,1.942
		c-0.939,1.26-1.704,2.213,0.011,3.27c0.513,0.755,1.394,0.957,2.178,1.273c0.396,0.381,0.742,0.799,1.218,1.095
		c0.052-0.302-0.281-0.676-0.048-0.928c0.155,0.125,0.256,0.455,0.506,0.278c0.06,0.228-0.175,0.452-0.179,0.683
		c0.765,0.163,1.247-0.312,1.889-0.598c1.228,0.075,2.766-0.142,3.842,0.497c-0.036-0.191-0.085-0.452-0.052-0.642
		c0.08,0.041,0.217,0.169,0.258,0.253c0.063-0.047,0.136-0.097,0.177-0.162c0.126,0.191,0.115,0.415,0.232,0.609
		c0.016-0.031,0.063-0.053,0.077-0.093c0.543,0.97,2.077,1.551,3.01,0.822c0.787-0.418,0.095-1.987,1.225-1.849
		c0.588,0.185,1.197,0.449,1.786,0.62c0.102,0.494,0.585,0.387,0.877,0.657c0.413,0.993,2.063,1.131,2.091,2.311
		c1.23,0.634,0.804,2.166,0.882,3.263c0.408,0.584,0.528,1.201,0.72,1.856c0.882,0.46,0.561,1.262,0.767,2.032
		c0.407,1.016,1.47,1.026,2.175,1.683c0.277,0.337,0.108,0.785,0.275,1.151c0.517,0.451,0.579,0.964,0.494,1.613
		c0.412,0.901,0.116,1.543,0.278,2.339c0.329,0.487,0.387,1.084,0.387,1.668l13.755,10.096l0.057,0.643
		c0.778,0.553,4.673,3.436,5.431,3.816l1.515-0.515c1.332,1.44,3.844,3.26,5.381,4.395c0.625,0.013,1.565,0.662,1.994,1.079
		l0.415,0.014c0.924,1.179,4.543,3.669,5.802,4.545c0,0,3.044,0.525,3.044,0.525c0.076-0.123,0.118-0.285,0.175-0.416
		c0.767-0.254,1.036,0.522,1.589,0.757c0.347,0.024,0.971,0.059,1.109,0.42c0.088,0.353,0.673,0.214,0.857,0.627
		c0.217-0.274,0.524-0.101,0.811-0.069c0.232,0.889,1.229,1.571,1.995,1.887c0.522-0.113,0.956-0.614,1.442-0.108
		c0.749,0.372,1.577,0.679,1.625,1.629c-0.591-0.2-0.936,0.409-1.169,0.823c-0.817,0.758-0.502,1.693-0.666,2.64
		c-0.341,0.97-0.133,1.925,0.462,2.696c-0.124,0.371-0.858,0.691-0.854,1.098c0.118,0.174,0.386,0.621,0.66,0.423
		c0.204-0.188,0.42-0.073,0.537,0.142c0.476,0.379,0.862-0.084,1.307-0.233c0.98,0.295,1.853-0.442,2.721-0.29
		c0.262,0.213,0.465,0.115,0.77,0.116c0.352,0.317,0.807,0.623,0.825,1.138c0.032,0.211,0.099,0.434,0.306,0.532
		c0.651,0.052,1.076,0.532,1.383,1.075c0.494-0.576,1.179-0.534,1.834-0.684c0.639-0.812,0.928-0.692,1.487,0.063
		c0.8-0.414,1.822,0.064,2.362,0.773l0.643-1.801c-0.285-1.179-0.381-2.334,0.172-3.459c0.255-0.352,1.264-1.971,1.658-2.144
		c0.411-1.071,1.047-2.071,1.354-3.177h0.976c-0.004-0.01-0.004-0.019,0-0.028c0.88,0.849,0.569-0.05,0.673-0.651
		c-0.044-0.496,0.582-0.657,0.79-1.081c0.417-0.58,0.365-1.393,0.507-2.074c-0.405,0.063-0.153-0.41-0.258-0.597
		c-0.227-0.106-0.378,0.23-0.584,0.072c-0.435-0.146-0.249-0.785-0.319-1.093c-0.452,0.086-0.795-0.038-0.936-0.49
		c-0.217-0.296-0.666-0.389-0.815-0.744c-0.321,0.023-0.53,0.176-0.804,0.292c-0.104-0.623,0.674-1.023,0.541-1.648
		c-0.157-0.319-0.624-0.495-0.627-0.902c-0.007-0.336,0.244-0.627,0.343-0.937c0.099-0.408-0.382-0.702-0.312-1.131
		c0.248-0.046,0.534-0.143,0.755-0.259c-0.113-0.346-0.295-0.751-0.614-0.941c-0.368-0.488,1.684-0.298,1.321-1.133
		c-0.145-0.274,0.103-0.316,0.162-0.566c-0.092-0.734-0.945-0.209-0.841-1.197c-0.297-0.545-0.871-0.047-1.227-0.216
		c-0.262-0.244-0.588-0.199-0.95-0.175c-0.431-0.025-0.648,0.492-1.069,0.355c-0.287-0.118-0.74-0.233-0.967,0.043
		c-1.464,0.315-0.378-2.051-1.264-2.09c-0.086-0.898-0.949-0.539-1.552-0.665c-0.159-0.272-0.5-0.108-0.732-0.226
		c-0.225-0.575-1.319,0.152-0.718-0.729c-0.124-0.128,0-0.39,0.021-0.563c0.989-0.134,1.401-0.238,1.33-1.357
		c-0.446-0.38-0.088-0.991-0.524-1.368c-0.515-0.398-0.411-0.45,0.14-0.625c-0.009-0.164,0.007-0.341,0.014-0.508
		c0.663-0.216,1.343-0.349,2.029-0.459c0.053-0.174,0.132-0.393,0.261-0.528c0.298,0.126,0.353-0.179,0.525-0.3
		c0.285,0.301,0.662,0.496,0.957,0.081c1.513,0.907,3.573,1.542,5.389,1.389c0.355,0.001,0.677,0.534,1.013,0.403
		c0.464-0.37,1.101,0.13,1.658,0.012c0.562,0.005-0.008-0.612,0.29-0.918c0.254-0.375,0.765-0.465,0.853-0.967
		c0.088-0.258-0.013-0.469-0.196-0.629c-0.128-0.247,0.21-0.527,0.284-0.744v-1.372c-0.017,0.035,0.27,0.188,0.346,0.219
		c0.258,0.062,0.433-0.286,0.866-0.293c0.034-0.136,0.01-0.317,0.232-0.328c0.071,0.222,0.191,0.433,0.3,0.639
		c-0.044-0.299-0.009-0.502,0.314-0.437c0.41-0.418-0.004-1.118,0.012-1.638c0.29,0.483,0.382,1.04,0.348,1.594
		c1.821-0.1-0.01-1.966,0.024-2.966c0.277-0.132,0.43,0.197,0.458,0.408c0.157-0.449,0.637-0.448,0.886-0.07
		c0.013-0.161-0.046-0.308-0.086-0.459c0.607,0.037,0.661-0.642,0.626-1.088c-1.261,0.181-2.255,0.999-3.587,0.887
		c-0.535,0.417-1.203-0.302-1.879-0.172v-0.493c0.879-0.282,1.789-0.539,2.671-0.805c0.074,0.146,0.129,0.302,0.216,0.441
		c1.584-1.404,3.686-0.576,5.602-0.351c0.071-0.179-0.115-0.323-0.056-0.499c0.055-0.164,0.158-0.223-0.028-0.351
		c-0.281-0.194-0.466-0.291-0.426-0.671c0.789,0.467,0.518-0.075,0.982-0.63c-0.618-0.332-0.356-0.969-0.752-1.469
		c0.021-0.698-0.024-1.007-0.668-1.469c0.138-0.6,0.993-0.582,1.462-0.547c0.007-1.29-0.282-3.991,1.789-2.716
		c0.473,0.042,0.575,0.501,0.827,0.817c0.386,0.303,0.993,0.457,0.915,1.081c1.224,0.819,1.042-1.331,1.925-0.896
		c0.805-0.754,2.844-0.192,3.074-1.715c0.187-0.309,0.603-0.18,0.83-0.014c0.59-0.148,1.119-1.043,1.919-1.162
		c0.345-0.41-0.004-1.198,0.195-1.646c0.256-0.264,0.87-0.74,1.156-0.332c0.095,0.325,0.438,1.184,0.71,0.494
		c0.497,0.094,0.862,0.591,1.07,1.026c-2.123-2.153-0.16,1.286,0.814,1.717c-0.201,0.394-0.441,0.006-0.553-0.217
		c-0.011,0.206-0.046,0.414-0.031,0.621c0.681,0.223,1.924,0.74,0.851,1.426c-0.211,0.063-0.35,0.194-0.285,0.432
		c-0.775,0.007-1.154,0.829-1.544,1.341c-0.658,0.025-0.934,0.372-1.181,0.931c-1.096,0.528-2.519,0.79-0.669,1.794
		c0.84,0.585,1.988-0.177,1.68,1.344c0.075,2.777,3.069,0.672,4.615,0.895c-0.413-1.208-0.191-0.876,0.86-0.953
		c0.609-0.58,1.029-0.972,1.962-0.784c0.043,0.106,0.037,0.227,0.048,0.336c0.358-0.345,0.547-0.282,0.666,0.181
		c0.142,0.137,0.317,0.008,0.473-0.06c0.311-0.135,0.501,0.219,0.748,0.358c0.28,0.158,0.639-0.003,0.935,0.094
		c-0.183,0.955,0.697,0.875,1.358,1.097v-0.911c0.224,0.042,0.508-0.128,0.648,0.1c0.113,0.315,0.497,1.041-0.152,0.869
		c0.243,0.246,0.508,0.489,0.723,0.769c0.2-0.682,0.834-0.764,1.425-0.903c0.017-0.297-0.514-0.464,0.04-0.681
		c0.13-0.17,0.264-0.147,0.374,0.034c0.68,0.779,0.772-0.534,1.346-0.133c0.101-0.046,0.222-0.127,0.291-0.215
		c-2.094-0.87,0.57-0.949,0.494-2.233c-0.086-0.037-0.063-0.212-0.042-0.29c0.185,0,0.573,0.082,0.706-0.072
		c0.111-0.129,0.152-0.546,0.363-0.42c0.15,0.143,0.429,0.011,0.589,0.092c-0.008,0.246,0.122,0.494,0.35,0.63
		c0.346,0.028,0.424-0.203,0.727,0.214c0.111,0.202,0.945,0.48,0.793,0.071c-0.076-0.281,0.231-0.519,0.236-0.811
		c0.115-0.598-0.556-0.333-0.593-0.673c1.047-0.634,0.145-0.615-0.276-1.179c0.811-0.479,0.897,0.144,1.325,0.764
		c0.091-0.062,0.203-0.211,0.258-0.306c0.095,0.062,0.165,0.196,0.216,0.294c0.619-0.028,1.278,0.966,1.772,0.252
		c0.098-0.226-0.135-0.399-0.122-0.618c0.059-0.401,0.473-0.453,0.455,0.009c0.184-0.261,0.348-0.157,0.571-0.01
		c0.048-0.325-0.152-0.782,0.287-0.977c-0.779-0.69,0.157-0.491,0.679-0.426c-0.033-0.93,0.992-0.557,1.423-1.284
		C193.382,107.623,194.686,107.974,194.633,106.913z"/>
	<path fill="#1E8346" d="M167.886,120.918c-0.055-0.083-0.05-0.185-0.099-0.267c-0.576,0.537-1.389-0.438-2.07-0.068
		c-0.042,0.328,0.147,0.561,0.471,0.579c0.416,0.097,0.474,0.566,0.602,0.888c0.323,0.105,0.286-0.206,0.363-0.424
		c0.057-0.203,0.333-0.028,0.432-0.174c0.088-0.284,0.602-0.249,0.451-0.62C167.989,120.871,167.937,120.882,167.886,120.918z"/>
	<path fill="#1E8346" d="M173.165,119.591c-0.226-0.01-0.455-0.001-0.681-0.001c0.093-0.274,0.362-0.399,0.096-0.684
		c0.358,0.082,0.553-0.218,0.599-0.536c-1.983,0.945-0.517-2.492-2.215-2.01c0.393,0.968-0.485,2.264,1.173,2.269
		c0.115,0.064,0.1,0.193,0.077,0.316c-0.633-0.065,0.479,0.622-0.362,0.761c0.067,0.316-0.109,0.474-0.348,0.598
		c0.155,0.126,0.324,0.291,0.529,0.339c-0.255-0.198-0.016-0.523,0.219-0.578c0.063,0.132,0.09,0.286,0.141,0.424
		c0.365,0.065,0.696-0.13,0.928-0.404C173.548,119.812,173.007,119.839,173.165,119.591z"/>
	<path fill="#1E8346" d="M180.019,119.016c-0.181-0.162-0.184-0.307-0.475-0.437c0.221,0.654-0.604,0.52-0.717,0.977
		c0.539-0.002,0.251,0.669,0.755-0.131c0.458,0.04,0.911,0.561,0.765-0.339C180.214,119.072,180.122,119.104,180.019,119.016z"/>
</g>
</svg>
