<?xml version="1.0" encoding="utf-8"?>
<!-- Generator: Adobe Illustrator 26.0.3, SVG Export Plug-In . SVG Version: 6.00 Build 0)  -->
<svg version="1.1" id="Isolation_Mode" xmlns="http://www.w3.org/2000/svg" xmlns:xlink="http://www.w3.org/1999/xlink" x="0px"
	 y="0px" viewBox="0 0 200 200" enable-background="new 0 0 200 200" xml:space="preserve">
<path fill="#1E8346" d="M175.374,37.205l14.125,31.548l-0.498,1.057h1.058l5.601,12.445l-11.449,3.796
	c-0.186,0.239-0.454,0.331-0.72,0.454c-0.361,0.167-0.703,0.42-0.974,0.71c-0.336,0.36-0.66,0.71-1.008,1.048
	c-0.331,0.322-0.473,0.817-0.801,1.152c0.067,0.247-0.649,0.489-0.799,0.671c-0.17,0.206-0.25,0.478-0.282,0.735
	c-0.65,0.411-0.509,1.794-0.754,2.463c-0.149,0.408-0.466,0.651-0.653,1.042c-0.261,0.548,0.008,0.634,0.136,1.182
	c0.088,0.375-0.051,0.801,0.004,1.182c0.055,0.388,0.236,0.791,0.314,1.187c0.198,1,0.145,1.928,0.436,2.898
	c0.482,1.611-2.607,2.015-3.633,2.294c-0.736,0.2-1.952,0.119-2.555,0.556c-0.332,0.241-0.293,0.777-0.558,1.016
	c-0.423,0.383-1.412,0.234-1.968,0.421c-0.715,0.24-1.451,0.595-1.681,1.334c-0.239,0.768-0.075,0.807-1.108,0.897
	c-1.211,0.106-2.43,0.098-3.376,0.918c-2.104,1.822-5.235,1.826-7.812,2.524c-1.673,0.453-3.284,1.082-4.966,1.513
	c-0.711,0.182-1.446,0.302-2.183,0.401c-0.597,0.08-1.508-0.035-1.896,0.53c-0.663,0.963-2.214,0.957-3.171,1.493
	c-0.882,0.494-1.565,1.342-2.489,1.723c-0.47,0.194-1.473,0.542-1.963,0.457c-0.377-0.066-0.574-0.444-0.904-0.599
	c-0.564-0.266-0.918-0.104-1.446,0.104c-0.68,0.268-1.42,0.379-2.119,0.611c-0.849,0.282-1.498,0.45-2.379,0.533
	c-0.788,0.075-1.209,0.451-1.87,0.753c-0.567,0.259-1.211,0.359-1.76,0.719c-0.36,0.236-0.642,0.557-0.985,0.815
	c-0.941,0.708-2.145,1.03-3.212,1.516c-1.4,0.637-2.859,1.445-3.852,2.664c-0.528,0.648-0.573,1.192-0.792,1.958
	c-0.181,0.632-0.482,0.637-1.048,0.982c-0.717,0.437-1.099,0.786-1.46,1.531c-0.322,0.663-0.733,0.928-1.287,1.411
	c-0.635,0.554-1.265,1.201-2.107,1.364c-0.853,0.165-1.873-0.017-2.674,0.325c-0.145,0.566-0.738,0.578-1.182,0.497
	c-0.602-0.11-1.135-0.219-1.78-0.19c-0.645,0.029-1.144,0.329-1.77,0.434c-0.278,0.046-0.55,0.081-0.831,0.059
	c-0.687-0.055-0.709-0.349-1.178-0.665c-0.523-0.352-1.271-0.343-1.865-0.481c-0.776-0.18-1.086-0.328-1.73,0.183
	c-0.657,0.521-1.311,1.03-1.942,1.575c-0.602,0.52-1.171,0.625-1.902,0.845c-0.244,0.074-0.456,0.111-0.641,0.29
	c-0.666,0.645-0.92,1.465-1.675,1.993c-0.535,0.374-1.138,0.663-1.653,1.067c-0.649,0.508-1.144,1.075-1.9,1.419
	c-0.787,0.358-1.647,0.385-2.49,0.55c-0.883,0.172-1.764,0.359-2.643,0.586c-0.935,0.242-1.926,0.403-2.827,0.73
	c-0.924,0.335-1.728,0.908-2.628,1.31c-1.803,0.805-3.442,0.849-5.353,0.928c-0.993,0.041-1.957,0.128-2.959,0.128
	c-0.992,0-1.935-0.263-2.912-0.249c-2.214,0.033-4.35,0.588-6.481,1.098c-1.006,0.24-2.46,0.169-3.291,0.769
	c-0.301,0.217-0.507,0.553-0.835,0.759c-0.578,0.364-1.189,0.593-1.713,1.049c-0.803,0.698-0.852,1.532-1.471,2.306
	c-0.863,1.079-1.369,1.327-2.747,1.421c-1.155,0.079-2.733,0.39-3.465,1.408c-0.597,0.83-0.201,1.809-1.057,2.577
	c-0.315,0.283-0.124,0.558-0.092,0.942c0.034,0.41-0.417,0.887-0.57,0.31c-0.108-0.407,0.03-0.759-0.371-1.04
	c-0.43-0.302-1.26-0.278-1.558,0.208c-0.163,0.266-0.066,0.448-0.116,0.742c-0.067,0.395-0.406,0.555-0.785,0.621
	c-0.473,0.084-0.655,0.008-0.945-0.315c-0.334-0.373-0.841-0.355-1.322-0.286c-0.408,0.058-0.554,0.08-0.862-0.213
	c-0.398-0.379-0.754-0.665-1.335-0.712c-1.373-0.112-2.072,1.049-2.92,1.922c-0.183,0.188-0.388,0.495-0.622,0.62
	c-0.354,0.189-0.87,0.013-1.25,0.209c-0.208,0.107-0.263,0.279-0.419,0.414c-0.268,0.231-0.713,0.344-1.051,0.411
	c-0.34,0.066-0.79,0.125-1.128,0.089c-0.234-0.025-0.298-0.171-0.529-0.305c-0.536-0.31-0.866-0.049-1.301,0.243
	c-0.73,0.491-2.77,1.009-3.523,0.229c-0.089-0.093-0.077-0.253-0.166-0.35c-0.108-0.116-0.357-0.223-0.499-0.295
	c-0.355-0.18-0.737-0.287-1.077-0.501c-0.65-0.409-1.375-0.41-2.097-0.71c-0.815-0.339-1.762-0.939-2.53-0.25
	c-0.401,0.359-1.585,1.418-1.868,0.465c-0.255-0.861,0.417-1.476,0.458-2.257c0.021-0.398-0.344-0.88-0.561-1.186
	c-0.385-0.543-0.624-1.015-0.932-1.613c-0.359-0.696-0.646-1.374-1.123-2.004c-0.474-0.627-0.946-1.279-1.302-1.979
	c-0.311-0.611-0.642-1.298-0.69-1.992c-0.05-0.728,0.168-1.441,0.127-2.159c-0.031-0.545,0.116-1.1,0.168-1.645
	c0.047-0.495,0.086-0.872,0.267-1.337c0.446-1.148,0.333-2.333-0.115-3.461c-0.273-0.69-0.334-1.432-0.609-2.124
	c-0.318-0.799-0.809-1.57-1.214-2.326c-1.061-1.98-2.064-3.838-2.273-6.115c-0.071-0.778-0.225-1.463-0.54-2.18
	c-0.103-0.235-0.416-0.719-0.403-0.978c0.009-0.165,0.201-0.427,0.237-0.622c0.042-0.222,0.026-0.447,0.049-0.671
	c0.039-0.374,0.116-0.645-0.007-1.026c-0.292-0.901-0.455-1.815-0.797-2.694c-0.377-0.967-0.063-2.101-0.324-3.108
	c-0.193-0.747-0.276-0.888-0.811-1.384c-0.529-0.49-0.598-0.897-0.598-1.588c0-0.743-0.151-1.337-0.712-1.888
	c-0.363-0.357-0.999-0.658-1.48-0.821c-0.571-0.193-0.949-0.088-1.367,0.289c-0.319,0.288-0.335,0.411-0.705,0.124
	c-0.193-0.15-0.316-0.327-0.425-0.546c-0.062-0.125-0.109-0.308-0.102-0.448c0.364-0.124,0.807,0.049,1.186-0.008
	c0.385-0.057,0.594-0.422,0.43-0.758c-0.058-0.118-0.233-0.395-0.112-0.536c0.151-0.177,0.484,0.115,0.598,0.203
	c0.31,0.24,0.561,0.525,0.846,0.785c0.231,0.211,0.389,0.201,0.574-0.058c0.262-0.369,0.153-0.851,0.124-1.277
	c-0.024-0.348-0.09-0.668-0.207-0.996c-0.085-0.24-0.208-0.483-0.204-0.744c-0.405-0.35,0.023-1.087-0.158-1.533
	c-0.205-0.505-0.686-0.662-0.797-1.246c-0.104-0.551-0.024-1.153-0.124-1.711c-0.074-0.412-0.322-0.857-0.158-1.245
	c0.18-0.426,0.767-0.815,1.032-1.216c0.364-0.552,0.635-1.146,0.884-1.76c0.581-1.434,0.475-3.106,0.42-4.648
	c-0.031-0.863-0.326-1.634-0.439-2.486c-0.124-0.939-0.761-1.723-0.729-2.677c0.513,0.13,2.508,0.523,3.001-0.011
	c0.286-0.31,0.399-1.28,0.53-1.719c0.958-0.167,1.819-0.657,2.74-0.946c0.297-0.093,0.345-0.023,0.406-0.312
	c0.059-0.278,0.08-0.561,0.092-0.848c0.008-0.207-0.02-0.413-0.021-0.621c-0.001-0.139-0.057-0.454,0.005-0.586
	c0.099-0.212,0.447-0.09,0.624-0.008c0.279,0.13,0.698,0.375,1.014,0.391c0.438,0.022,0.237-0.541,0.037-0.724
	c-0.126-0.115-0.286-0.206-0.331-0.365c-0.086-0.301,0.164-0.568,0.373-0.729c0.284-0.22,0.484-0.477,0.478-0.848
	c-0.007-0.39-0.232-0.627-0.545-0.839c-0.192-0.13-0.376-0.278-0.577-0.392c-0.156-0.089-0.399-0.134-0.54-0.24
	c-0.153-0.114-0.215-0.319-0.35-0.455c-0.194-0.195-0.065-0.564,0.006-0.823c0.83-0.247,0.206-0.997,0.617-1.514
	c0.184-0.231,0.365-0.063,0.584-0.175c0.268-0.137,0.377-0.531,0.326-0.812c-0.059-0.323-0.371-0.676-0.724-0.66
	c-0.322,0.014-0.268,0.382-0.436-0.124c-0.099-0.295-0.129-1.014,0.011-1.297c0.165-0.334,0.635-0.458,0.781-0.826
	c0.227-0.573-0.111-0.86,0.558-1.212c0.452-0.239,1.104-0.658,1.638-0.646c0.04-0.644-1.422-0.737-1.577-1.423
	c-0.082-0.365,0.076-0.749,0.172-1.087c0.091-0.322,0.105-0.738,0.266-1.032c0.34-0.624,1.257-1.026,1.917-1.063
	c0.408-0.023,0.898-0.132,1.284-0.123c0.726,0.017,1.457,0.763,1.937,1.236c0.457,0.451,0.848,0.893,1.232,1.401
	c0.253,0.335,0.474,0.818,0.864,1c0.694,0.325,1.69-0.235,2.419,0.011c0.524,0.177,0.767,0.662,1.365,0.79
	c0.307,0.066,1.154,0.223,1.479,0.041c0.447-0.25,0.498-0.989,0.974-1.243c0.291-0.155,0.665-0.092,0.949,0.015
	c0.204,0.077,0.329,0.245,0.577,0.273c0.419,0.047,0.433-0.177,0.795-0.371c0.809-0.432,2.112-0.358,2.994-0.381
	c0.975-0.026,1.926-0.092,2.889-0.206c0.306-0.036,0.629-0.078,0.92,0.003c0.216,0.06,0.399,0.266,0.649,0.316
	c0.829,0.165,1.276-0.012,1.957-0.358h10.309l3.982,1.991l16.988,1.742l6.782-0.809l4.48,6.222h3.547l5.289-3.298l2.386-6.347
	l10.205-13.523l17.091-8.712l31.776-3.319L175.374,37.205z"/>
</svg>
