<?xml version="1.0" encoding="utf-8"?>
<!-- Generator: Adobe Illustrator 26.0.3, SVG Export Plug-In . SVG Version: 6.00 Build 0)  -->
<svg version="1.1" id="Isolation_Mode" xmlns="http://www.w3.org/2000/svg" xmlns:xlink="http://www.w3.org/1999/xlink" x="0px"
	 y="0px" viewBox="0 0 200 200" enable-background="new 0 0 200 200" xml:space="preserve">
<path fill="#1E8346" d="M192.577,60.448l-0.636-0.075c-0.41-1.32-1.691-4.112-2.319-5.367c0,0,0-4.221,0-4.221L98.1,49.957
	l-4.235,3.057l-4.011,1.655l-1.823,1.964c-0.326,1.261-17.898,8.948-19.298,9.705c-2.983-0.284-14.206-2.025-16.96-0.898
	c-6.26-2.923-5.907-2.558-12.388-0.655l-2.702-0.729c-0.23,0.235-11.644,5.514-11.079,6.105c-2.512-0.018-5.167-0.089-7.568,0.684
	c-0.721,0.177-1.398-0.304-2.034-0.581c-1.439,0.201-2.847,0.817-4.276,0.877c-2.555-1.364-4.365-0.859-6.626,0.584
	c2.505,0.439,6.202,0.585,7.367,3.367c0.093,0.393,1.643,0.123,2.013,0.251c0.41,0.141,1.209,1.577,1.634,1.232
	c2.108,1.568,3.1,5.215,6.228,4.841c0.705-0.289,1.55-0.381,2.303-0.378c0.322-0.285,0.032-0.945,0.147-1.343
	c0.397,0.139,0.22,0.855,0.878,0.669c1.123-0.128,2.374,1.194,3.383,0.13c0.522-1.149,1.504-1.053,2.534-1.284
	c0.376-0.691,0.917-1.181,1.523-1.673c0.299-1.654,2.723-1.079,3.11-2.548c-0.022-0.152-0.299-0.39-0.415-0.521
	c-0.269-0.425-0.796-0.01-1.041-0.465c1.148-0.359,1.406,0.775,2.342,0.947c1.318-0.155,2.618-0.259,3.946-0.311
	c0.095-0.497-0.178-0.849-0.373-1.266c0.306,0.186,0.449,0.591,0.756,0.789c0.838-2.812,3.113-3.317,5.813-3.333
	c2.016,1.076,4.15,1.539,6.339,2.056c1.394,0.96,1.933,2.986,3.907,3.041c1.616,0.539,2.22,2.653,3.885,3.286
	c0.024,0.202-0.028,0.259-0.242,0.172c-1.19-0.735-2.335-1.489-3.191-2.621c-0.326-0.42-0.834-0.523-1.333-0.564
	c-1.321-0.294-2.162-1.627-2.86-2.684c-1.398-0.839-3.274-0.371-4.715-1.222c-1.704-1.056-4.988-1.139-6.058,0.8
	c-1.714,4.984-5.618-0.908-10.068,8.404c-0.082-0.107-0.138-0.106-0.144-0.249c-0.978,0.002-1.141,1.066-2.064,1.116
	c-2.144-0.094-1.501,2.429-2.225,3.702c-0.551,0.51-0.729,0.981-0.21,1.606c0.422,1.135,1.591,3.069-0.056,3.758
	c0.918,1.739,2.853,1.111,4.004,2.042c0.247,0.698,1.08,0.662,1.484,1.239c0.932,3.651,3.646,4.209,7.02,4.437
	c2.169,0.696,1.678,3.21,3.903,0.242c2.82-2.91,5.168,0.694,8.624-2.797c0.668-0.564,0.02-1.11-0.339-1.623
	c-0.62-0.954-0.999-1.85-2.143-1.853c-0.855-0.433-0.263-2.066-0.089-2.822c0.262,1.145-0.416,2.755,1.285,2.656
	c0.677,0.584,1.176,1.8,2.105,2.023c0.803-0.375,1.408-1.313,2.116-1.822c0.751-0.142,1.612-0.099,1.994-0.893
	c1.07-0.085,2.361,0.284,3.3-0.442c1.746-0.548,3.084,0.714,2.755,2.468c0.421,0.798,1.263-0.559,1.929-0.181
	c0.17,0.065,0.407,0.326,0.604,0.22c0.758-0.594-0.463-2.267,1.304-2.149l-0.055,0.053c0.026-0.011,0.049-0.024,0.072-0.038
	c0.155,0.188-0.401,0.284-0.506,0.328c-0.937,0.455,0.562,1.545-0.633,2.174c-0.327,0.5-0.865-0.455-1.351-0.21
	c-1.9,1.435-1.7-0.645-2.253-1.778c-0.978-0.927-1.796,0.309-2.595,0.779c-2.728,0.447-3.586,3.363-5.144,5.299
	c-2.063,1.403-2.51,3.879-3.114,6.045c-1.408,1.101-1.098,3.445-0.45,4.844c0.818-1.525,2.532-1.285,3.926-1.484
	c0.533-0.164,0.779,0.279,1.216,0.349c1.703-0.665,1.768-2.458,2.81-3.701c2.416-1.433,0.652-2.643,1.917-3.958
	c2.246-0.465,3.065,2.327,5.671,0.665c-0.463,0.227-1.089,0.454-1.557,0.755c-1.431,0.569-3.651-2.808-4.419-0.448
	c0.694,1.989-1.089,2.453-1.681,4.022c-2.359,6.39,4.724,1.224,6.957,0.182c1.288-0.109,3.015,0.351,4.141-0.418
	c0.918-1.133,2.023-1.717,3.27-2.403c0.565-0.793,1.012-1.667,1.753-2.345c1.265-0.956,3.048-1.099,3.82-2.687
	c0.462-0.724,0.649-1.133,1.574-1.177c1.533,0.288,2.651-0.194,3.619-1.339c1.888-0.481,4.647-0.669,6.151,0.833
	c0.449,0.487,0.869,1.049,1.502,1.281c2.065,0.851,4.436,0.689,6.572,1.109c2.24,0.158,2.531-2.57,3.728-3.849
	c2.478-1.626,6.769-3.197,8.325,0.398c-1.511-0.076-0.974,1.957-1.456,2.83c-0.956,2.193-2.96,4.427-1.174,6.745
	c3.29-0.242,3.669,5.078,6.544,3.154c0.005,0.019,0.011,0.038,0.014,0.057l0.162,0.042c-1.397,1.384-3.459,0.242-4.166-1.282
	c-0.278-0.902-1.3-0.581-2.024-0.774c-1.288,0.111-1.966-0.564-1.817-1.838c0.036-0.987-0.572-1.75-0.751-2.681
	c-0.214-1.916,2.472-2.753,2.011-4.696c-1.005-3.174-3.162,0.45-4.343,1.486c-0.52,0.595-1.322,0.39-1.954,0.722
	c-0.649,0.367-1.081,1.062-1.732,1.408c-1.333,0.293-2.871-0.428-4.122,0.293c-0.324,0.197-0.576,0.229-0.916,0.049
	c-0.746-0.539-1.305,0.35-2.093,0.279c-1.767,0.314-3.08-1.309-4.677-1.215c-1.59-0.017-2.974,0.935-4.595,0.792
	c-2.149,0.305-1.339,2.199,0.455,2.197c-0.543,0.539-1.42-0.299-1.976,0.121c-1.154,1.425-2.801,2.384-3.861,3.903
	c-0.273,1.231-0.922,2.318-1.721,3.301c-0.181,0.23-0.535,0.439-0.291,0.776c0.854,0.58,1.072-1.429,1.78-1.779
	c-0.61,0.628-0.41,1.607-1.019,2.171c-0.578,0.827,0.399,2.665,1.449,2.064c0.637-0.484,0.449-1.907,1.47-1.877
	c0.129,0,0.763-0.057,0.707,0.204c-0.233,0.009-0.466,0.052-0.699,0.067c0.021,0.417,0.195,0.774,0.391,1.123
	c0.28,0.672-0.922,1.414-0.17,1.93c0.721,0.081,1.515,0.429,2.211,0.119c0.569-0.477,1.043-1.141,1.293-0.025
	c0.137,0.286,0.459,0.425,0.452,0.776c-0.414-0.031-0.774-0.985-1.196-0.597c-0.234,0.215-0.801,1.381-0.127,1.377
	c-0.017,0.377-0.452,0.237-0.665,0.362c-0.607,0.641-0.768,2.265,0.256,2.537c0.665,0.53,0.25,1.943,1.272,2.096
	c-0.342-1.214-0.23-1.622,0.792-0.638c0.393-0.344-0.181-1.19-0.093-1.695c-0.012-0.372,0.266-0.581,0.126-0.96
	c0.061,0.003,0.122,0.002,0.182,0.002c0.1,0.2-0.147,0.396-0.072,0.611c0.153,0.188,0.38,0.324,0.583,0.482
	c0.394,0.112,0.119,0.655,0.514,0.641c0.755-0.045,2.009,0.322,1.61-1.01c-0.598-0.157-0.367-0.572-0.669-0.978
	c0.544,0.172,0.842,0.786,1.475,0.83c0.685,0.227,0.546-0.485,0.058-0.639c-0.337-0.109-0.268-0.398-0.183-0.655
	c-0.302-0.533-0.632-1.216-1.171-1.541c0.602-0.844,0.077-0.701-0.554-0.926c0.941-0.034-0.196-0.749,0.709-0.837
	c-0.002,0.268-0.004,0.574,0.346,0.614c0.09-0.191,0.252-0.486,0.48-0.535c0.017,0.542-0.591,0.963-0.212,1.476
	c0.445,0.438,2.297,3.874,2.078,1.482c-0.019-0.244,0.189-0.245,0.255-0.441c-0.111-0.361-0.383-0.795-0.634-1.094
	c-0.166-0.11-0.615-0.165-0.429-0.465c1.411,0.645,0.933,1.103,1.01-0.543c-0.279-0.086-0.819-0.129-0.809-0.541
	c1.61,0.355,0.72-1.612-0.347-1.156c-0.108-0.584,0.593-0.462,0.865-0.551c0.366,0.568,0.891,1.145,0.987,1.835
	c-0.16,0.416-0.154,0.775,0.119,1.152c-0.009,0.466,0.014,1.55,0.594,0.703c0.1-0.39,0.036-0.784,0.198-1.191
	c-0.098-0.291,0.016-0.577,0.31-0.263c0.542,0.107,0.876,0.903,1.413,0.549c0.303-0.458-0.005-1.08-0.335-1.434
	c0.109-0.361-0.31-0.318-0.425-0.529c-0.048-0.233,0.38-0.164,0.498-0.27c0.312-0.504,1.058-0.475,1.501-0.879
	c-0.476,0.682-1.674,0.736-0.742,1.752c1.005,0.806,0.587-0.484,1.205-0.71c-0.64,1.257,1.152,1.156,1.41,0.168
	c0.064-0.236-0.078-0.283-0.177-0.455c-0.17-0.272,0.232-0.148,0.346-0.203c0.101-0.069,0.065-0.266,0.121-0.364
	c0.141-0.167,0.402-0.034,0.524-0.279c0.203-0.311,0.296-0.596,0.503-0.891c0.055-0.233,0.024-0.797,0.325-0.794
	c0.362,0.517-0.399,1.315,0.015,1.74c-0.281-0.044-0.642-0.111-0.614,0.313c0.423,0.324-0.123,0.254-0.281,0.437
	c-0.319,0.296-0.131,0.57-0.025,0.872c-0.711-0.107-0.23,0.781-0.458,0.866c-0.337-0.054-0.424,0.21-0.646,0.32
	c-1.45-0.805-3.261,1.271-1.02,1.034c0.298-0.198,0.527,0.081,0.792-0.111c0.354-0.277,0.827-0.043,1.121-0.366
	c0.498,0.004,1.162-0.104,1.206-0.728c1.221,0.305,0.304-0.832,0.842-1.337c0.026,0.468-0.175,1.396,0.611,1.099
	c0.138,0.108,0.271,0.42,0.495,0.219c0.145-0.249,0.389-0.544,0.5-0.798c-0.083-0.212-0.46-0.343-0.404-0.64
	c0.357-0.066,0.344,0.305,0.567,0.417c0.622,0.135,1.204-0.161,1.046-0.873c0.079,0.627,0.733,0.46,0.967,0.034
	c-0.392,0.667-0.885,1.267-1.737,1.316c0.086,0.346-0.567,0.567-0.292,0.884c0.459,0.106,0.977,0.307,1.355-0.094
	c0.043,0.137-0.023,0.3,0.028,0.44c0.223-0.014,0.572-0.177,0.496,0.162c0.406,0.353,0.829,0.591,1.248,0.074
	c-0.737,0.898,1.046,1.367,1.416,0.492c-0.678,0.847-0.27,1.676,0.785,1.036c-0.326,0.23-0.111,0.576,0.217,0.64
	c-1.061-0.11-0.387,0.964,0.142,1.267c1.012,0.706,2.131,0.4,3.188,0.163c-0.326,0.289-0.22,0.672-0.258,1.046
	c-0.131-0.227-0.062-0.592-0.329-0.714c-0.416,0.17-0.898,0.116-1.322,0.186c-0.168,0.17-0.161,0.477-0.284,0.687
	c-0.281,0.066-0.357,0.277-0.514,0.473c-0.197,0.065-0.107-0.326-0.084-0.397c0.607-0.784-0.429-0.806-0.859-1.185
	c-0.16,0.457-0.026,1.043-0.243,1.525c-0.099-0.335,0.206-1.586-0.452-1.133c-0.213,0.27-0.372,1.098-0.802,1.121
	c0.164-0.439,0.427-0.708,0.437-1.015c-0.474-0.018-1.394,0.369-1.27,1.006c-0.057,1.262,0.467,1.599-1.051,1.095
	c0.16-0.267,0.616,0.007,0.822-0.037c0.021-0.741,0.573-1.767-0.622-1.543c-0.897,1.2-0.591-0.722,0.816-0.233
	c0.175-0.221,0.481-0.195,0.715-0.282c0.181-0.355,0.56-0.302,0.813-0.245c1.139-1.24-1.158-2.474-2.036-3.168
	c-0.439,0.441,0.031,1.195-0.354,1.492c-0.204,0.034-0.224,0.269-0.323,0.406c-0.353,0.187-0.151-0.428,0.028-0.513
	c0.021-0.515,0.184-1.168-0.07-1.641c-0.432-0.359-1.068,0.2-1.353-0.309c-0.541,0.148-2.065-1.102-1.314,0.327
	c-0.442,0.207-0.71-0.462-1.025-0.505c-0.278,0.209-0.8,0.385-0.9,0.725c0.182,0.279,0.553,0.294,0.819,0.424
	c-0.142,0.902,0.955,0.726,1.571,0.802c-0.691,0.547-2.385-0.244-1.002,1.227c-0.7-0.207-0.499,0.219-0.586,0.729
	c-0.113-0.101-0.146-0.256-0.262-0.354c-0.062,0.05-0.209,0.142-0.282,0.141c0.084-0.481,0.476-1.122-0.304-1.169
	c-0.025-0.114,0.226-0.133,0.304-0.157c0.38-0.044,0.218-0.555,0.095-0.73c-0.599,0.033-0.807-0.753-1.367-0.685
	c-0.028,0.237,0.219,0.46,0.167,0.668c-0.723,0.104-0.485-1.31-1.302-0.615c-0.123,0.076-0.26,0.097-0.392,0.13
	c-0.165,0.198,0.334,0.411,0.046,0.554c-0.381,0.136-0.33-0.43-0.561-0.538c-0.175-0.051-0.407,0.006-0.434,0.194
	c-0.486,0.098-0.866-0.697-1.377-0.25c0.305,0.359,0.582,0.681,0.607,1.162c0.717,0.065,1.527-0.158,1.942,0.595
	c0.161,0.05,0.506-0.073,0.463,0.244c-0.583,0.244-0.696-0.392-1.141-0.55c-0.256,0.022-1.079,0.332-0.689,0.672
	c0.204,0.128,0.549,0.086,0.486,0.441c0.274,0.646,1.614,0.165,2.117,0.799c-0.397,0.196-0.386,0.538-0.453,0.927
	c-0.208-1.414-1.163-1.215-1.33,0.054c-0.298-1.183,0.098-0.978-1.154-1.556c-0.097-0.135-0.018-0.358-0.117-0.487
	c-0.268-0.18-0.616-0.3-0.374-0.673c-0.029-0.553-0.561,0.017-0.451-0.769c-0.363-0.195-0.91-0.059-1.083,0.353
	c-0.024,0.088-0.133,0.161-0.22,0.151c-0.217,0.166-0.066,0.73-0.484,0.605c-1.89,0.596-0.795,1.812,0.537,0.645
	c-0.046,0.575,0.448,0.6,0.805,0.313c-0.175,0.365-0.098,0.723,0.391,0.683c0.007,0.352-0.064,0.159-0.284,0.279
	c-0.179,0.098-0.03,0.469-0.29,0.43c-0.049-0.834-0.73-0.954-1.219-0.429c-0.226,0-0.352-0.184-0.394,0.163
	c-0.021,0.17,0.059,0.479-0.225,0.387c-0.291-0.232-0.702-0.763-1.12-0.711c-0.596,0.808,1.123,0.766-0.18,1.364
	c-0.234,0.288,0.175,0.726-0.045,1.053c-0.644,0.57-0.852-0.197-0.43-0.659c-0.426,0.071-0.784-0.114-1.157-0.239
	c-0.419-0.001-0.269,0.544-0.609,0.611c-0.298,0.058-0.562-0.452-0.873-0.31c-0.43,0.32,0.078,0.801,0.109,1.159
	c-0.15,0.336-0.287,0.757,0.117,0.975c0.218,0.149,0.801,0.342,0.724,0.706c-0.034,0.162-0.324,0.149-0.136,0.379
	c-0.486-0.504-0.971-0.791-1.575-1.15c-0.31-0.983-0.409-1.492-1.037-0.335c-0.064,0.337,0.317,0.465,0.254,0.787
	c-0.549,0.591-1.665,0.528-2.279,1.259c-0.164-0.23-0.204-0.662-0.473-0.782c-0.157,0.3-0.381,0.508-0.635,0.718
	c-0.3,0.575,0.554,1.67,1.137,1.77c-0.347,0.735-1.367,0.859-1.623,1.657c0.272,1.803-2.096,3.658-1.206,5.416
	c0.806,0.699,2.146,0.337,2.446-0.65c1.122-0.578,2.641-1.247,3.074-2.514c1.147,0.157,2.171-0.662,3.138-1.263
	c1.419-1.767,0.199-3.144,3.164-3.975c-2.432,1.56-1.783,1.498-2.442,4.132c-0.308,1.538,2.528,2.035,3.045,0.665
	c0.67-2.287,3.866-3.043,4.583-5.185c0.79-0.952,1.482-0.429,1.208-2.064c0.182-0.567,0.555-0.011,0.869-0.034
	c0.805-0.35-0.542-1.06,0.039-1.624c0.276,0.34-0.017,0.974,0.551,1.027c0.528,0.143,0.885-0.186,0.831-0.709
	c0.499,0.023-0.035,0.574,0.155,0.828c0.081,0.151,0.269,0.176,0.291,0.329c0.001,0.394-0.383-0.017-0.542-0.038
	c-0.129-0.002-0.413,0.161-0.511,0.239c-0.377,0.298,0.27,0.398,0.209,0.694c-0.397,0.081-1.426-0.679-1.084,0.208
	c-0.439,0.633-1.894,0.549-1.888,1.589c-0.343,1.086-1.391,1.314-2.223,1.863c-1.049,1.053-1.705,2.314-2.52,3.536
	c-1.594,1.641-3.341-1.19-4.908,0.631c-0.61,0.439-0.696,1.199-0.983,1.818c-0.71,0.771-2.699,2.234-1.537,3.337
	c0.286,0.51,1.131,0.647,1.366,1.311c0.476,0.807-0.109,0.674-0.614,0.354c-0.034,0.756,1.175,1.141,1.185,1.883
	c-1.758-1.081-1.299,1.476-0.646,2.372c0.537,1.067,1.882,1.361,2.771,2.026c1.031,1.728,3.099,2.467,3.652,0.011
	c-0.291-0.133-0.435-0.401-0.216-0.682c2.235-0.032-1.417,2.491,1.102,3.167c0.794,0.389,1.368-0.301,2.118-0.123
	c0.983,0.83,1.825-0.049,2.277-0.962c0.604-0.577-0.489-1.28-0.608-1.93c-0.605-0.8-0.13-2.105-1.069-2.655
	c1.341-2.461,2.444-1.321,4.678-0.767c-5.527-0.662-2.625,1.826-1.896,5.211c0.233,1.114-1.087,1.833-1.068,2.877
	c0.3,0.628-1.09,1.074,0.162,1.332c-0.376,0.843-1.405,0.461-2.059,0.826c-0.314,1.003-1.676,1.039-2.153,1.849
	c0.595,1.545,2.435,1.377,3.721,1.948c0.939,0.269,1.046-0.768,1.319-1.403c0.54-1.13,1.943-1.531,2.582-2.589
	c0.43-1.51,3.041-1.83,2.888-3.764c0.373,0.066,0.471-0.308,0.616-0.557c0.716,0.828,2.485-0.085,2.475-1.102
	c0.665-0.192,0.17-1.547,0.557-2.104c0.277,5.159,2.894-2.279,4.187-2.985c0.231-0.692-0.73-0.829-0.624-1.485
	c0.8,0.131,1.385,2.141,2.149,0.982c-0.142-0.297-0.503-0.4-0.355-0.796c-0.001-0.216-0.059-0.255-0.212-0.392
	c-0.061-0.181,0.167-0.213,0.084-0.345c-0.284-0.33-0.961-0.294-0.999-0.84c0.406-0.018,0.706,0.303,1.098,0.295
	c0.059-0.318-0.054-0.617-0.132-0.899c0.008-0.142,0.263-0.277,0.126-0.435c-0.352-0.039-0.762-0.151-1.134-0.079
	c0.031-0.234,0.141-0.422-0.038-0.612c0.352-0.022,0.77,0.374,1.138,0.175c0.188-0.288-0.005-0.886-0.318-1.007
	c-0.084-0.125,0.061-0.12,0.131-0.212c0.226-0.811-0.767-0.714,0.539-0.989c0.005,0.401-0.1,0.797-0.073,1.199
	c0.319-0.335,0.693-0.226,1.056-0.043c-0.241,0.138-0.69,0.075-0.883,0.376c-0.16,0.45,0.195,0.75,0.62,0.479
	c-0.81,0.829-0.438,1.76-0.539,2.76c0.323,1.832,1.47-1.944,1.587-2.314c0.028,1.02-0.068,2.243-0.784,2.999
	c-0.242,0.346,0.033,0.514,0.334,0.356c0.533-0.214,0.479-0.836,0.746-1.223c0.187-0.355,0.738-0.559,0.614-1.007
	c-0.058-0.26,0.04-0.142,0.199-0.268c0.172-0.137,0.257-0.534,0.249-0.737c0.534,1.08-1.833,3.669-0.331,3.15
	c-0.178,0.311,0.153,0.713,0.303,0.955c-0.348-0.452-0.889-0.455-1.258-0.025c-0.064,0.386,1.069,0.93,0.938,1.377
	c-0.764-0.111-0.698-1.17-1.422-1.344c-1.178,0.135-2.466,0.536-3.222,1.578c-0.192,0.633,0.362,1.039,0.8,0.477
	c-0.42,0.818,0.517,0.551,0.828,0.122c-0.106,0.327,0.112,0.681,0.428,0.355c0.107-0.125,0.374-0.831,0.64-0.521
	c-0.084,1.145,1.122,0.388,1.826,0.507c-0.662,0.399-1.422,0.912-0.328,1.447c-0.021,0.223-0.213,0.188-0.37,0.221
	c-0.276,0.057-0.155,0.432-0.431,0.502c-0.395-0.432,0.292-1.441-0.45-1.701c-1.025-0.137-0.855,0.415-0.544,1.072
	c-0.48-0.005-0.653-1.057-1.162-0.444c-0.017,0.166-0.418,0.226-0.449,0.095c0.347-0.593-0.678-0.986-1.142-0.949
	c-0.545,0.169-0.831,1.138-0.697,1.662c0.468,0.256,0.646,0.075,0.462,0.745c0.507,0.791,1.101-0.602,1.426-0.921
	c0.275-0.101,1.215,0.079,1.113,0.511c-0.305-0.241-1.263,0.062-1.056,0.495c0.855,0.153,1.213,0.506,0.059,0.523
	c0.022,0.22,0.3,0.322,0.253,0.572c-0.293,0.015-0.433-0.198-0.573-0.419c-0.142-0.516-1.172-0.249-0.874,0.264
	c0.607,0.796,2.53,1.111,2.825-0.099c0.551,0.843-0.238,0.775-0.591,1.111c0.022,0.239,0.329,0.305,0.293,0.572
	c-0.477-0.255-1.006-0.066-1.477-0.125c-0.722-0.515-1.276-1.189-1.822-1.863c-0.875-1.829-2.729,1.992-3.554,2.469
	c-0.502-0.552-0.715,0.346-0.935,0.671c-0.356,0.468-0.091,0.925,0.112,1.347c-2.341-0.017-1.364,2.306-1.384,3.743
	c-0.429,0.785-0.297,1.664-0.811,2.407c-0.001,0.411,0.329,1.415,0.869,1.015c0.517,3.667,4.072,0.17,5.617-0.882
	c1.029-0.385,2.515-2.137,3.162-3.016c0,0,6.788-12.145,6.788-12.145c2.193-5.4,5.482-15.279,10.518-18.755
	c2.013-0.303,7.387,0.23,9.453,0.453c2.105-1.746,9.3-5.459,11.809-6.76c0,0,3.156-4.404,3.156-4.404
	c0.657,1.44,1.856,0.138,2.982,0.267c1.295-0.141,2.151,1.411,3.486,0.82c1.07-0.366,1.845-0.443,2.314,0.714
	c0.76,0.47,1.438,1.151,2.453,1.228c0.601-0.4,1.119-1.313,1.992-1.271c0.464,0.185,0.458-0.388,0.825-0.399
	c0.908,0.224,1.818,0.51,2.733,0.736c1.098-0.051,2.168-0.615,3.256-0.794c0.553-0.423,0.421-1.444,1.069-1.877
	c0.798,0.898,1.849,1.145,2.92,1.548c0.231-0.616,0.144-1.629,0.839-1.887c0.077-0.067,0.256-0.388,0.285-0.477
	c0.117-0.366,0.029-0.654,0.24-1.006c0.204-0.339,0.531-0.44,0.095-0.787c-0.746,1.162-1.185-0.897-0.212-1.236
	c0.207,0.174,0.251,0.407,0.533,0.269c0.385-0.46,1.154,0.144,1.129,0.643c-0.42,0.541-0.214,1.178,0.358,1.52
	c3.311-1.283,0.384,0.41,2.183,1.204c1.635,0.708,3.023-1.028,4.586-0.943c0.112-1.343-0.512-2.897,0.475-3.971
	c-0.661-4.91-0.657-10.122,0.342-15.062c-0.497-1.066-1.579-0.684-2.56-0.967c-1.094-0.35-2.272-0.874-3.09-1.682
	c-0.189-0.415-0.318-0.999-0.922-0.759c0.494-0.254,0.45-0.869-0.091-1.037c-0.124-0.647-0.191-1.026-0.875-1.327
	c-0.953-0.383-2.72,0.012-3.182-1.111c-0.087-0.51,0.031-1.229-0.614-1.379c-1.04-0.605-2.39-0.727-3.514-0.395
	c-0.874-0.36-0.373-1.607-1.047-2.132c-0.001-0.436-0.062-0.893-0.013-1.326c1.569,0.127,1.804-0.815,2.271-2.035
	c1.485-0.395,5.467,0.01,3.482-2.555c0.006-0.134,0.176-0.294,0.271-0.357c2.497-1.261,1.063,1.316,2.394,1.099
	c0.437-0.651,0.448-1.608,1.054-2.142c0.397-0.305,0.365,0.295,0.376,0.569c0.13,0.628-0.103,1.06-0.525,1.469
	c-0.107,0.893,1.314,0.891,1.821,0.568c0.341-0.35,0.25-1.289,0.78-1.385c1.143,0.012,1.335,1.543,2.296,1.683
	c1.339,0.011,1.091-2.081,1.748-2.823c0.566-0.005,0.339-0.794,0.688-1.123c0.618,0.443,1.787-0.124,1.609-0.92
	c-0.66-1.068-0.318-1.203,0.318-2.093c0.324-1.237-1.929-2.486-0.291-3.532C196.218,64.92,193.819,62.944,192.577,60.448z"/>
<path fill="#1E8346" d="M31.153,100.737c-0.671-0.32-0.448,0.383-0.857,0.47c-0.381-0.219-0.938,0.367-1.349,0.533
	c-0.415,0.355,0.32,0.569,0.157,0.92c-0.116,0.303-0.151,0.399,0.235,0.462c0.209-1.65,1.111,0.315,1.628-0.66
	c0.924-0.538,1.851,0.828,2.743,0.682c0.288-0.373,0.698-0.17,1.081-0.041c1.192,0.009,1.763-1.22,2.582-1.809
	c2.638-0.99-0.017-1.074-1.09-1.404c-0.785-0.45-1.347-1.21-1.961-1.858c-1.291-0.751-1.847-2.033-2.371-3.37
	c-0.389-0.732-1.513,0.184-1.061,0.83c0.316,0.484,0.276,0.827,0.248,1.355c0.31,0.199,0.42,0.465,0.399,0.861
	c0.032,0.275,0.251,0.671-0.109,0.806c-0.601-0.091-0.829,0.607-0.422,1.003C31.667,99.753,32.222,100.69,31.153,100.737z"/>
<path fill="#1E8346" d="M49.338,104.986c0.586-0.704,2.038-1.411,0.433-2.016C49.27,103.203,48.114,105.649,49.338,104.986z"/>
<path fill="#1E8346" d="M47.884,99.773c-1.778,0.558-3.534,1.907-5.483,1.491c-3.279-1.27-4.055,0.557-2.804,3.446
	c0.834,1.426,2.534,1.621,3.85,2.331c0.34,0.218,0.278,0.184,0.154,0.464c-0.096,0.217-0.195,0.664,0.1,0.804
	c2.344-0.854,3.641,0.999,3.818-2.77c0.737-2.299,2.606-4.062,3.267-6.435c-0.625-0.298-1.466,0.365-2.16,0.194
	c-0.286-0.039-0.655-0.353-0.928-0.188c0.338,0.292,0.698,0.304,1.14,0.243C48.766,99.831,48.212,99.708,47.884,99.773z"/>
<path fill="#1E8346" d="M73.111,112.563c0.496-0.168,0.837-1.15-0.018-1.14C72.521,111.342,72.802,112.388,73.111,112.563z"/>
<path fill="#1E8346" d="M30.978,125.013c0.405-0.265,1.235,0.246,1.424-0.264c0.187-0.857,0.783-1.497,1.092-2.315
	c0.161-0.389,0.277-0.481,0.577-0.756c0.292-0.514-0.125-1.559-0.084-2.219c-0.309-0.684-1.217-0.448-1.635-0.899
	c-1.789,0.762-3.52,4.79-5.581,2.458c-0.35-0.273-0.382,0.089-0.729,0.071c-1.969-1.263-2.972,2.863-1.108,3.682
	c0.634-0.32,1.204-0.602,1.944-0.258C29.594,123.335,28.992,126.344,30.978,125.013z"/>
<path fill="#1E8346" d="M33.66,128.127c1.116,0.62,3.788-0.808,3.709-2.074c-0.487-0.176-0.52-0.471-0.567-0.954
	c-0.103-0.243-0.353-0.446-0.207-0.71c0.305-0.479,1.125,0.124,1.171,0.539c-0.193,1.39,0.873,0.436,1.046-0.278
	c-0.034-0.361-0.032-0.633,0.234-0.91c0.263-0.802-0.263-1.641-0.97-0.85c-1.201,0.586-2.834-0.086-3.735,1.171
	c-1.147,0.586-1.281,2.04-2.388,2.603c-0.941,0.403-2.289,0.844-1.201,1.971C31.659,128.35,32.677,127.973,33.66,128.127z"/>
<path fill="#1E8346" d="M29.941,128.41c-0.007,0.672-0.093,1.381,0.325,1.948C30.813,130.19,30.792,128.326,29.941,128.41z"/>
<path fill="#1E8346" d="M44.404,131.294c1.307,0.346,0.777-0.844,0.55-1.579c-0.341-0.944-1.543,0.115-1.805-0.807
	c-1.124,0.772-2.23,1.516-3.53,1.998c-0.366,0.466,0.047,0.676,0.291,0.939c0.053,0.897,0.944,1.161,1.228,0.225
	c0.595,0.832,2.52-0.496,2.276-1.367C43.664,130.939,44.06,131.224,44.404,131.294z"/>
<path fill="#1E8346" d="M23.575,137.25c-0.978,0.102-1.58-0.498-2.166-1.238c-0.238,0.225-0.919,0.124-1.285,0.391
	c-0.002,0.662-0.077,1.306-0.15,1.96c0.994,0.1,1.421-1.202,2.448-0.681C22.804,138.027,24.014,137.95,23.575,137.25z"/>
<path fill="#1E8346" d="M25.69,137.343c-2.301-0.884-0.325,1.882,0.907,0.068C26.307,137.334,25.982,137.408,25.69,137.343z"/>
<path fill="#1E8346" d="M36.576,141.971c1.211,0.551,1.17-0.436,1.785-1.098c2.403-0.348,0.904-2.853-0.416-3.634
	c-2.684,1.914-0.39-0.957-2.705-0.695c0.117,0.923-1.267,1.108-1.825,1.514c-0.343,0.25-0.313,0.78-0.45,1.148
	c-0.795,1.098-1.205,1.319,0.318,1.877C33.784,143.675,34.898,141.169,36.576,141.971z"/>
<path fill="#1E8346" d="M38.722,134.33c-0.358-0.301-0.797-0.082-0.698,0.353c0.424-0.027,0.798,0.011,1.085,0.334
	C39.968,135.138,39.088,134.368,38.722,134.33z"/>
<path fill="#1E8346" d="M42.086,137.436c0.429,0.415,0.684,0.117,0.931-0.229c1.019-0.259,1.684-1.193,2.435-1.793
	c1.511,2.266,3.948-2.242,0.484-1.7c-0.556-0.018-0.614,0.106-0.906,0.512c-0.726,1.637-1.876,0.589-3.365,0.327
	c1.286,1.174-1.531,1.254,0.2,2.064C42.04,136.964,41.691,137.116,42.086,137.436z"/>
<path fill="#1E8346" d="M48.341,131.663c-0.059-0.013-0.115-0.038-0.168-0.056c-0.824,0.78,0.106,0.972,0.736,0.539
	C49.654,131.556,48.908,131.214,48.341,131.663z"/>
<path fill="#1E8346" d="M48.312,122.546c-0.2,1.598,2.546,0.474,2.828-0.318c0.208-0.416,1.366-0.323,0.83-0.951
	c-0.244-0.22-0.592-0.002-0.836-0.205c-0.483-0.559-0.861-1.122-1.29-1.76C49.222,120.31,48.081,121.228,48.312,122.546z"/>
<path fill="#1E8346" d="M52.14,117.631c-0.806,0.148-1.364,1.093-1.713,1.756c0.919,1.795,2.822,1.045,2.75,3.387
	c1.295,0.779,1.588-0.425,1.144-1.443c-0.151-0.747,0.534-1.336,0.516-1.981c-0.197-0.108-0.412-0.217-0.509-0.44
	c-0.638,0.218-1.173,1.164-1.51-0.099c-0.226-0.137-0.617-0.2-0.578-0.58C52.239,118.056,52.385,117.662,52.14,117.631z"/>
<path fill="#1E8346" d="M51.189,129.032c1.249,0.025,2.85-0.968,3.651-1.893c-0.672-1.091,0.391-2.869-0.518-3.636
	c-1.206,0.239-1.16,0.612-1.661-0.691c-0.717-1.352-2.187,0.287-0.462,0.596c0.277,0.801-0.886,0.365-1.308,0.663
	c-1.064,0.542-2.298-0.288-3.254,0.008c-0.494,0.778-0.916,1.635-1.617,2.265c-0.44,0.514-1.392,0.324-1.609,1.004
	c0.137,0.007,0.274-0.001,0.41,0.003c0.052,0.615,0.729,0.446,1.076,0.806c0.734,0.725,1.394,1.021,2.437,0.665
	c0.339-0.263,0.125-1.116,0.784-0.982c0.501,0.492,0.933,1.334,0.951-0.005c0.486-0.626,1.444,0.167,1.332,0.779
	C51.332,128.79,50.983,128.82,51.189,129.032z"/>
<path fill="#1E8346" d="M79.585,120.292c0.197,1.105,1.649,0.858,2.274,0.321c-0.418-2.099-2.035-1.523,0.04-3.866
	c0.171-0.241,0.148-0.889-0.292-0.777c-0.353,0.546-0.863,0.837-1.479,1.1c-1.355,0.57-1.594-0.145-2.402,1.478l0.149-0.281
	c-1.308,1.064-0.284,2.84-2.562,1.55c-1.726,0.098-1.784,2.943-3.734,2.879c1.202,0.781,3.042,0.194,4.24,1.232
	c0.73,0.519,1.8-0.698,0.858-1.099c0.103,1.589-2.296-0.18-0.37-0.316c0.291-0.079,0.197-0.305,0.221-0.523
	c0.04-0.373,0.416-0.113,0.693-0.113c1.199,0.022,1.708-0.833,1.953-1.821C79.299,120.163,79.473,120.151,79.585,120.292z"/>
<path fill="#1E8346" d="M70.152,126.089c0.022-0.532-0.162-0.423-0.392-0.777c-0.051-0.216,0.344-1.275-0.134-1.134
	c-0.459,0.382-1.128,0.364-1.492,0.878c0.084,2.155-1.797,0.808-2.731,2.032c-0.464,0.862,1.098,0.927,1.315,1.259
	c0.039,0.295,0.375,0.315,0.603,0.253c0.725-0.362,1.384-0.109,2.026-0.595C69.836,127.161,71.84,127.088,70.152,126.089z"/>
<path fill="#1E8346" d="M57.013,134.187c0.212-0.369,0.391,0.003,0.652-0.001c0.529-0.452,1.104-1.327,0.921-2.038
	c-1.389-0.191-2.019,2.005-3.147,2.53c-0.981,1.322,2.137,0.794,1.174-0.145C56.739,134.412,56.889,134.331,57.013,134.187z"/>
<path fill="#1E8346" d="M62.89,132.177c-0.627,0.194-1.335,0.508-1.9,0.72c-0.521,0.68-2.404,3.527-0.799,3.617
	c0.502,0.86,0.918-0.154,1.344-0.526c0.092-0.288,0.331-0.496,0.373-0.793c-0.12-0.222-0.24-0.449-0.202-0.718
	C61.76,133.564,62.767,133.074,62.89,132.177z"/>
<path fill="#1E8346" d="M46.055,147.82c-0.261-0.073-0.638,0.019-0.568-0.384c-0.036-0.466-0.525-0.702-0.566-1.158
	c-0.213-1.192,1.86-2.276-0.16-2.889c-0.685-0.455-1.325-0.113-2.06-0.126c-0.179-0.225-0.714-0.482-0.944-0.19
	c0.072,0.447-0.304,0.71-0.351,1.134c-0.094,0.235-0.672,0.172-0.897,0.279c-0.452,0.74-1.116,0.802-1.945,0.726
	c-0.031,1.437-0.257,3.607-2.083,3.816c-0.71,0.197-1.933-0.076-2.226,0.809c0.014,1.784,2.596,2.815,3.718,3.987
	c1.203,0.135,2.585,0.848,2.65-0.919c0.056,0.423,0.238,0.958,0.771,0.81c1.504,0.605,3.388,0.781,4.283-0.877
	c-0.489-0.561-0.252-1.274,0.417-1.602C46.618,150.395,46.52,148.745,46.055,147.82z"/>
<path fill="#1E8346" d="M50.903,147.504c-0.359-1.066-1.437-2.219-0.963-3.414c0.377-0.334,0.288-0.873-0.203-1.051
	c-0.544-0.173-0.913,0.398-1.452,0.153c-0.5,0.244-0.931,0.269-1.488,0.375c-0.626,0.573-0.817,1.573-1.288,2.281
	c0.141,1.233,1.552,2.827,2.548,1.381c-0.473,1.125-1.604,2.341-0.437,3.563C48.712,152.062,50.699,148.487,50.903,147.504z"/>
<path fill="#1E8346" d="M56.119,151.111c-1.601,0.028-0.577-2.645-0.91-3.53c-0.742-0.529-0.767-1.316-0.953-2.113
	c-0.792-0.874-1.442-1.855-2.596-2.333c-0.16,0.274-0.268,0.587-0.42,0.86c-0.123,0.381,0.474,0.545,0.376,0.858
	c-1.247,0.182,0.008,1.838,0.114,2.569c0.409-0.755,0.979-1.121,1.866-1.083c-0.03,0.399-0.81,0.318-1.046,0.641
	c-0.539,1.075-1.621,2.107-1.867,3.314c0.425,0.39,1.002-0.23,1.272-0.515c0.38-0.031,1.12-0.227,1.448,0.017
	c0.188,0.308-0.314,0.423-0.495,0.474c-0.643,0.087-1.043,0.665-1.594,0.97c-1.934,0.267-0.69,1.025,0.499,1.025
	c0.931,0.783,2.261-0.071,3.36,0.45C56.353,153.14,56.295,151.92,56.119,151.111z"/>
<path fill="#1E8346" d="M72.648,152.3c-0.403-0.275-0.907-0.361-1.377-0.216c-0.81,0.318-0.22,1.842,0.497,1.838
	c0.269-0.044,0.272-0.343,0.425-0.521C72.419,153.078,73.38,152.583,72.648,152.3z"/>
<path fill="#1E8346" d="M66.797,154.299c0.22,0.4,0.29,0.929,0.644,1.244C67.695,155.198,67.435,154.128,66.797,154.299z"/>
<path fill="#1E8346" d="M69.419,156.613c-0.799,0.106-0.147,1.349,0.408,1.362C70.164,157.676,69.889,156.722,69.419,156.613z"/>
<path fill="#1E8346" d="M57.868,137.17c-1.6,1.381-1.824,3.195-2.946,4.829c-0.123,0.629,2.464,2.062,3.078,1.653
	c0.527-0.227,1.035-0.622,1.287-1.129c0.355-0.82-0.761-1.6-1.174-0.69c0.347,0.864-0.188,1.338-0.978,0.814
	c0.581-0.315,0.266-0.683,0.134-1.175c0.103-0.723,0.809-1.227,1.108-1.882c0.302-0.811,1.538-0.78,1.624-1.764
	C60.145,136.884,58.429,136.596,57.868,137.17z"/>
<path fill="#1E8346" d="M58.374,140.462c-0.125,0.23-0.295,0.468-0.347,0.73C59.66,141.81,59.375,139.086,58.374,140.462z"/>
<path fill="#1E8346" d="M70.158,136.57c-0.844,0.761-2.193-0.095-3.062,0.632c-0.713,0.741-1.423,1.569-2.429,1.797
	c-0.612,0.343-0.307,0.885-0.964,1.332c-0.771,0.556,0.376,1.521-0.401,2.189c-0.374,0.25-1.18,0.579-0.544,1.084
	c0.736,0.43,0.402,2.803,1.507,1.363c0.471-0.082,1.329,0.357,1.663-0.126c-0.06-0.947,0.25-1.758,0.445-2.651
	c-0.731-0.043-0.083-0.538-0.59-0.693c0.645-0.72,0.9,0.973,1.687,0.667c0.621-0.165,0.681-1.182,1.451-1.084
	c0.65,0.393,0.77,0.136,0.787-0.531c0.323-0.555,0.133-1.108,0.067-1.685C70.016,138.063,70.424,137.421,70.158,136.57z"/>
</svg>
