<?xml version="1.0" encoding="utf-8"?>
<!-- Generator: Adobe Illustrator 26.0.3, SVG Export Plug-In . SVG Version: 6.00 Build 0)  -->
<svg version="1.1" id="Isolation_Mode" xmlns="http://www.w3.org/2000/svg" xmlns:xlink="http://www.w3.org/1999/xlink" x="0px"
	 y="0px" viewBox="0 0 200 200" enable-background="new 0 0 200 200" xml:space="preserve">
<g>
	<path fill="#1E8346" d="M191.246,99.494c-0.225-0.409-0.128-0.45,0.008-0.843c0.088-0.253,0.124-0.96-0.124-1.138
		c-0.28-0.201-0.746,0.243-1.001-0.009c-0.247-0.244-0.673-0.166-0.933-0.426c-0.319-0.317-0.212-0.818-0.687-0.449
		c-0.423,0.328-0.931,1.222-1.495,1.322c-0.27,0.048-0.376-0.163-0.605-0.209c-0.293-0.059-0.645,0.092-0.899,0.21
		c-0.048-0.172-0.143-0.376-0.289-0.473c-0.402,0.859-0.78,1.893-1.34,2.662c-0.675,0.927-1.568,1.641-2.395,2.439
		c-0.958,0.924-1.86,1.903-2.681,2.953c-0.704,0.901-1.441,1.603-2.351,2.285c-0.387,0.29-0.859,0.41-1.312,0.548
		c-0.481,0.145-0.792,0.305-1.121-0.083c-0.265-0.313-0.306-0.783-0.58-1.071c-0.229-0.241-0.726-0.49-1.044-0.559
		c-0.613-0.134-1.293,0.038-1.917-0.074c-0.429-0.077-0.496-0.32-0.812-0.452c-0.804-0.339-1.367,0.346-1.75,0.893
		c-0.388,0.555-0.952,1.174-1.142,1.84c-0.065,0.227,0.054,0.567-0.038,0.767c-0.096,0.207-0.457,0.304-0.668,0.432
		c-0.003-0.967,0.225-2.141,0.551-3.079c0.175-0.503,0.274-1.026,0.425-1.543c0.06-0.204,0.166-0.409,0.253-0.601
		c0.086-0.191,0.242-0.332,0.314-0.501c0.557-0.196,1.81-0.219,1.98-0.982c-0.136-0.404-0.19-0.848-0.317-1.253
		c-0.034-0.106-0.061-0.213-0.123-0.306c-0.051-0.076-0.259-0.204-0.281-0.261c-0.091-0.229,0.066-0.322,0.18-0.506
		c0.281-0.452,0.345-0.974,0.512-1.476c0.118-0.351,0.223-0.657,0.299-1.02c0.053-0.251,0.068-0.635,0.234-0.829
		c0.13-0.151,0.402-0.133,0.475-0.318c0.056-0.142-0.122-0.363-0.148-0.501c-0.083-0.449,0.24-0.985,0.405-1.398
		c0.073-0.182,0.154-0.341,0.178-0.541c0.022-0.181-0.06-0.471,0.046-0.634c0.253-0.389,1.135-0.22,1.537-0.329
		c-0.026-0.456-0.029-0.779,0.345-1.072c0.225-0.176,0.642-0.25,0.804-0.477c0.396-0.554-0.379-1.255-0.122-1.762
		c0.123-0.242,0.524-0.233,0.798-0.296c0.407-0.094,0.807-0.217,1.207-0.327c0.615-0.168,1.228-0.314,1.843-0.443
		c0.381-0.08,0.649-0.279,0.999-0.468c0.322-0.173,0.944-0.805,1.074-1.19c0.071-0.21-0.017-0.43,0.031-0.639
		c0.064-0.275,0.173-0.28,0.366-0.448c0.311-0.269,0.335-0.459,0.102-0.787c-0.116-0.163-0.197-0.22-0.263-0.378
		c-0.121-0.289-0.119-0.583-0.318-0.875c-0.034,0.013-0.051,0.036-0.051,0.071c-0.317-0.248-0.969-0.516-1.162-0.862
		c-0.11-0.198-0.047-0.412-0.104-0.634c-0.062-0.239-0.189-0.566-0.313-0.773c0.127-0.081,0.221-0.205,0.266-0.344
		c-0.257-0.136-0.483-0.154-0.648-0.432c-0.112-0.188-0.159-0.476-0.223-0.697c-0.127-0.441-0.397-0.838-0.539-1.277
		c-0.141-0.434-0.12-0.899-0.576-1.169c-0.301-0.178-0.382-0.082-0.659,0.033c-0.305,0.126-0.553-0.096-0.88-0.096v-2.733
		l-0.986-2.509l-0.941-5.96l1.165-3.988l-5.646-1.971c-0.6,0-1.192-0.041-1.79-0.045c-0.646-0.004-1.512,0.147-2.125-0.034
		c0.083-0.866,0.288-1.766,0.596-2.584c0.222-0.587,0.784-1.337,0.665-1.978c-0.106-0.57-0.824-0.832-0.923-1.352
		c-0.075-0.396,0.349-0.827,0.619-1.048c0.177,0.321,0.311,0.67,0.763,0.722c0.32,0.037,0.815-0.121,1.123-0.205
		c0.693-0.19,1.732-0.74,1.699-1.453c-0.033-0.697-0.804-1.23-0.94-1.9c-0.157-0.777,0.593-1.265,0.824-1.937
		c0.438-1.275-0.979-2.326-2.017-2.615c-0.452-0.126-0.899-0.106-0.91-0.616c-0.003-0.145,0.238-0.325,0.112-0.565
		c-0.069-0.132-0.433-0.231-0.541-0.308c-0.443-0.316-0.642-0.845-0.931-1.335c-0.138-0.233-0.273-0.365-0.443-0.494
		c-0.204-0.154-0.44,0.073-0.444-0.399c-0.875-0.211-1.289,0.54-2.092,0.187c-0.467-0.206-1.701-0.544-1.451,0.442
		c-0.207-0.127-0.549-0.369-0.623-0.581c-0.155-0.448,0.179-1.037,0.322-1.434c0.138-0.382,0.182-0.203-0.017-0.52
		c-0.102-0.162-0.416-0.34-0.554-0.464c-0.386-0.347-0.753-0.709-1.122-1.077c-0.209-0.209-0.668-0.57-0.77-0.844
		c-0.147-0.394,0.18-0.525,0.388-0.824c0.394-0.57-0.548-1.589-0.207-1.916c0.077-0.074,0.337,0.029,0.438-0.001
		c0.143-0.042,0.334-0.171,0.452-0.261c0.232-0.175,0.499-0.452,0.678-0.673c-0.694-0.939-2.201-0.403-2.785-1.487
		c-0.431-0.8-0.073-2.113-0.943-2.647c-0.051-0.111,0.028-0.339-0.032-0.472c-0.071-0.157-0.708-0.376-0.893-0.461
		c-0.188-0.087-0.723-0.157-0.821-0.259c-0.13-0.137-0.11-0.416-0.127-0.583c-0.036-0.351-0.05-0.696-0.075-1.047
		c-0.018-0.253,0.012-0.225-0.126-0.391c-0.115-0.138-0.343-0.123-0.341-0.321c0.004-0.273,0.574-0.507,0.146-0.767
		c-0.211-0.128-0.684,0.081-0.892,0.14c-0.529,0.151-0.953,0.21-1.345-0.323c-0.239-0.325-0.322-0.772-0.436-1.143
		c-0.205-0.668-0.591-1.244-0.881-1.871c-0.295-0.639-0.408-1.219-0.501-1.911c-0.158-1.178-1.447-2.035-2.329-2.74
		c-0.257-0.206-0.846-0.293-0.996-0.565c-0.05-0.09,0.002-0.399,0.011-0.502c0.034-0.362,0.034-0.731,0.069-1.091
		c-0.384-0.076-0.89,0.211-1.212,0.44c-0.231-0.538-0.269-1.333-0.852-1.67c-0.34-0.196-0.743-0.157-1.024-0.474
		c-0.161-0.182-0.122-0.524-0.383-0.524c-0.537,0-1.04,0.163-1.575,0.157c-0.353-0.004-0.676-0.003-0.959-0.226
		c-0.238-0.187-0.473-0.418-0.605-0.693c-0.175-0.368-0.279-0.793-0.418-1.176c-0.17-0.47-0.392-0.914-0.437-1.418
		c-0.042-0.46,0.01-0.928-0.039-1.388c-0.047-0.446-0.035-1.053-0.285-1.44c-0.23-0.356-0.731-0.385-1.07-0.582
		c-0.17-0.099-0.336-0.206-0.502-0.288c-0.174-0.086-0.534-0.06-0.681-0.172V5.993H94.516l-0.773,2.352l0.135,1.277l-12.636,4.167
		l-1.143-0.369l-0.504,0.47l-4.335-2.185c-0.156-0.446,0.008-1.027-0.21-1.439c-0.312,0.166-0.728,0.22-1.08,0.297
		c-0.715,0.155-1.422,0.359-2.139,0.501c-0.848,0.167-1.688,0.355-2.542,0.49c-0.538,0.085-0.982,0.147-1.437,0.437
		c-0.619,0.394-1.209,0.46-1.932,0.487c-1.011,0.038-2.134,0.267-3.112,0.519c-0.37,0.095-0.82,0.137-1.147,0.332
		c-0.252,0.15-0.414,0.418-0.616,0.623c-0.543,0.552-0.938,0.927-1.694,1.062c-0.463,0.082-0.839,0.205-0.794,0.759
		c0.03,0.374,0.28,0.35,0.476,0.574c0.154,0.177,0.129,0.159-0.004,0.464c-0.285,0.656-0.429,1.534-0.839,2.121
		c-0.267,0.383-0.743,1.186-0.603,1.665c0.1,0.341,0.767,0.542,0.261,0.929c-0.335,0.256-0.772-0.085-0.838,0.467
		c-0.041,0.347,0.452,1.041,0.173,1.309c-0.25,0.24-0.416-0.31-0.667-0.301c-0.07,0.002-0.353,0.324-0.413,0.37
		c-0.267,0.207-0.614,0.421-0.918,0.569c-0.437,0.214-0.549,0.339-0.758,0.803c-0.252,0.559-0.088,1.218-0.352,1.744
		c-0.267-0.243-0.414-0.381-0.555-0.015c-0.154,0.398-0.142,1.004-0.218,1.431c-0.1,0.562-0.154,1.133-0.295,1.688
		c-0.038,0.148-0.086,0.501-0.256,0.572c-0.106,0.045-0.184-0.071-0.282-0.077c-0.703-0.039-0.862,0.025-1.22,0.636
		c-0.206,0.351-0.43,0.711-0.599,1.082c-0.169,0.37-0.099,0.663-0.156,1.042c-0.103,0.674-0.899,0.24-1.241,0.851
		c-0.337,0.601,0.351,1.011,0.399,1.585c0.028,0.346-0.292,0.757-0.469,1.032c-0.251,0.389-0.482,0.784-0.739,1.169
		c-0.206,0.308-0.454,0.542-0.469,0.928c-0.014,0.366-0.033,0.84-0.034,1.221c-0.001,0.704-0.074,1.518-0.677,1.996
		c-0.315-0.164-0.372-0.48-0.739-0.344c-0.446,0.165-0.598,0.614-0.6,1.033c-0.003,0.587-0.035,0.687-0.638,0.56
		c-0.466-0.097-0.874-0.259-1.313-0.423c-1.693-0.629-0.008,2.964-0.79,3.293c-0.283,0.12-0.694-0.083-0.992,0.006
		c-0.339,0.101-0.412,0.395-0.486,0.705c-0.093,0.391-0.043,0.88-0.208,1.243c-0.134,0.293-0.419,0.569-0.614,0.822
		c-0.255,0.33-0.441,0.727-0.922,0.62c-0.42-0.093-0.706-0.461-1.163-0.274c-0.492,0.201-0.579,0.561-1.209,0.379
		c-0.268-0.077-0.446-0.282-0.724-0.358c-0.778-0.214-1.225-0.029-1.519,0.68c-0.184,0.443-0.683,1.283-1.24,1.217
		c-0.864-0.102-1.025-2.245-2.131-1.628c-0.484,0.269-0.522,0.963-0.538,1.431c-0.022,0.642-0.309,1.175-0.746,1.618
		c-0.18,0.182-0.487,0.459-0.471,0.747c0.009,0.172,0.194,0.469,0.25,0.651c0.168,0.541,0.518,0.99,0.707,1.507
		c0.225,0.616-0.908,0.941-1.286,1.274c-0.488,0.43-0.603,1.227-0.84,1.797c-0.185,0.445-0.414,0.961-0.718,1.33
		c-0.176,0.213-0.398,0.355-0.588,0.551c-0.171,0.178-0.279,0.405-0.481,0.555c-0.464-0.33-0.992-0.002-1.229,0.44
		c-0.216,0.402-0.1,0.451-0.548,0.484c-0.334,0.024-0.713-0.023-0.999,0.202c-0.404,0.317-0.559,1.032-0.815,1.472
		c-0.121,0.208-0.233,0.51-0.434,0.63c-0.264,0.157-0.965,0.048-1.266,0.051c-0.858,0.007-1.642-0.041-2.238-0.731
		c-0.517-0.599-0.683-1.486-1.292-2.013c-0.19-0.164-0.278-0.224-0.535-0.258c-0.336-0.045-1.112-0.145-1.399,0.082
		c-0.281,0.222-0.209,0.474-0.601,0.642c-1.023,0.44-2.193,0.532-3.239,0.906c-0.523,0.187-0.95,0.505-1.356,0.877
		c-0.286,0.261-0.808,0.634-0.843,1.052c-0.025,0.302,0.175,0.454,0.298,0.718c0.136,0.292,0.154,0.503,0.142,0.823
		c-0.019,0.489-0.035,0.994-0.009,1.481c0.021,0.391-0.033,0.848,0.041,1.229c0.063,0.322,0.425,0.607,0.707,0.742
		c0.418,0.202,0.944-0.013,1.382-0.008c0.386,0.004,0.703,0.295,1.079,0.237c0.232-0.036,0.363-0.239,0.561-0.379
		c0.151,0.168,0.154,0.45,0.248,0.662c0.167,0.38,0.509,0.511,0.809,0.768c0.431,0.368,0.735,0.959,1.259,1.161
		c0.679,0.263,1.198,0.272,1.92,0.24c0.462-0.021,0.79-0.013,0.979,0.434c0.115,0.004,0.237,0.03,0.335,0.07
		c-0.138,0.233-0.308,0.367-0.581,0.405c-0.249,0.345-1.37,0.418-1.113,0.942c0.151,0.307,0.731,0.372,0.985,0.508
		c0.403,0.217,0.389,0.587,0.711,0.835c0.401,0.308,1.17,0.19,1.622,0.15c0.623-0.055,1.212-0.151,1.843-0.149
		c0.836,0.002,1.659,0.031,2.493,0.068c0.588,0.026,1.208-0.028,1.789,0.065c-0.746,0.079-1.461,0.234-2.19,0.395
		c-0.735,0.162-1.476,0.482-2.228,0.542c-1.13,0.09-2.3-0.272-3.436-0.331c-0.65-0.034-1.231-0.036-1.849-0.273
		c-0.447-0.172-0.894-0.345-1.366-0.446c-1.19-0.255-1.675,0.626-2.44,1.355c-1.198,1.14-1.06,3.14-0.806,4.653
		c0.153,0.911,0.581,1.712,0.54,2.659c-0.023,0.519-0.374,0.896-0.403,1.409c-0.051,0.891-0.053,2.271,0.874,2.742
		c0.166,0.434,0.545,0.805,0.767,1.216c0.313,0.578,0.565,1.167,0.802,1.779c0.211,0.548,0.425,1.063,0.747,1.558
		c0.198,0.306,0.498,0.552,0.638,0.894c0.281,0.683,0.332,1.384,1.122,1.724c0.665,0.285,1.875,0.083,1.981-0.727
		c0.053-0.41-0.04-0.644,0.158-1.025c0.244-0.47,0.63-0.761,0.974-1.145c0.371-0.415,0.639-1.128,0.411-1.693
		c-0.152-0.375-0.763-0.711-1.049-1.015c-0.251-0.268-1.184-1.1-1.093-1.468c0.654-0.073,1.049,0.527,1.497,0.911
		c0.762,0.655,1.423,0.561,2.407,0.535c-0.033,0.594-0.645,0.553-0.982,0.83c-0.294,0.241-0.236,0.939-0.021,1.221
		c0.307,0.402,1.233,0.579,1.682,0.613c0.768,0.058,1.046-0.452,1.513-0.948c0.267-0.285,0.685-0.702,1.081-0.782
		c0.624-0.126,1.639,0.231,2.199,0.391c0.404,0.115,0.833,0.22,1.228,0.358c0.448,0.157,0.227,0.128,0.272,0.38
		c0.032,0.181-0.017,0.29,0.155,0.419c0.286,0.216,0.836,0.193,1.174,0.409c0.256,0.164,0.448,0.377,0.668,0.587
		c0.212,0.201,0.398,0.271,0.65,0.422c-0.154,0.233-0.254,0.516-0.585,0.427c-0.28-0.075-0.243-0.357-0.434-0.521
		c-0.265-0.229-0.785-0.156-1.115-0.142c-0.456,0.019-0.46,0.025-0.653,0.368c-0.367,0.649-0.469,0.316-0.592-0.248
		c-0.151-0.697-0.31-0.433-0.801-0.184c-0.431,0.219-1.043,0.183-1.487,0.028c-0.57-0.2-0.745-0.185-1.218,0.196
		c-0.488,0.394-0.282,1.021-0.695,1.352c-0.135,0.108-0.305,0.035-0.441,0.233c-0.163,0.236-0.16,0.601-0.305,0.859
		c-0.295,0.523-0.785,0.98-1.335,1.196c-0.581,0.228-1.423,0.242-1.82,0.778c-0.25,0.337-0.205,0.908-0.536,1.175
		c-0.149,0.12-0.286,0.096-0.484,0.16c-0.245,0.079-0.417,0.251-0.643,0.364c-0.396,0.199-1.003,0.426-1.361,0.137
		c-0.345-0.28-0.595-0.817-0.873-1.169c-0.392-0.496-0.781-0.481-1.3-0.799c-0.366-0.224-0.555-0.416-1.055-0.379
		c-0.941,0.071-1.828,0.11-2.773-0.068c-0.848-0.159-1.611-0.308-2.471-0.263c-0.033,0.44,0.383,0.976,0.553,1.358
		c0.173,0.391,0.35,0.858,0.286,1.293c-0.077,0.528-0.617,0.857-0.641,1.377c-0.016,0.331,0.082,0.341,0.342,0.485
		c0.308,0.169,0.519,0.35,0.701,0.659c0.24,0.407,0.348,0.835,0.631,1.223c0.279,0.383,0.559,0.689,0.679,1.163
		c0.126,0.498,1.076,1.139,1.487,1.446c0.562,0.42,1.433,0.316,1.708,1.045c0.233,0.617-0.17,1.553,0.252,2.091
		c0.27,0.343,1.092,0.665,1.53,0.667c0.03,0.526-0.236,1.011-0.206,1.55c0.036,0.644,0.35,1.111,0.539,1.709
		c0.209,0.662,0.171,1.226,0.201,1.905c0.023,0.529,0,1.285,0.145,1.789c0.805,0.126,1.242-1.144,1.775-1.535
		c0.675-0.495,1.567-0.216,2.1-0.958c0.479-0.666,1.145-1.41,1.97-1.572c0.847-0.166,1.703-0.152,2.565-0.173
		c0.551-0.013,1.742-0.311,1.831,0.435c0.063,0.525-0.138,0.995,0.033,1.515c0.289,0.877,0.957,1.744,1.644,2.357
		c0.419,0.373,0.971,0.726,1.273,1.196c0.196,0.305,0.389,0.62,0.612,0.916c0.659,0.877,0.23,2.183,1.398,2.725
		c0.49,0.227,0.585,0.122,0.584,0.667c0,0.499,0,0.998,0,1.497c0,1.195-0.21,2.41-0.096,3.6c0.055,0.572,0.18,1.302,0.498,1.796
		c0.097,0.152,0.237,0.319,0.387,0.421c0.133,0.091,0.353,0.096,0.432,0.254c0.292,0.585-0.89,0.589-1.178,0.606
		c-0.757,0.047-1.523,0.091-2.279,0.194c-0.893,0.12-1.763,0.86-1.286,1.815c0.195,0.39,0.634,0.542,0.868,0.884
		c0.202,0.294,0.185,0.707,0.435,0.999c0.334,0.391,0.636,0.617,1.154,0.797c0.512,0.179,0.991,0.335,1.455,0.641
		c0.797,0.527,1.095,1.465,1.908,1.957c0.561,0.339,1.087,0.752,1.649,1.106c0.391,0.247,0.724,0.588,1.172,0.38
		c0.438-0.204,0.94-0.64,1.335-0.914c-0.161,0.451-0.382,0.716-0.33,1.217c0.051,0.48,0.241,0.878,0.521,1.265
		c0.523,0.722,1.111,2.029,2.22,1.381c0.374,0.665,0.733,1.592,1.384,2.023c0.618,0.41,1.308,0.653,1.984,0.933
		c0.732-0.202,1.101-0.714,1.862-0.321c0.386,0.199,0.698,0.441,1.148,0.505c0.486,0.068,0.9-0.161,1.387-0.187
		c0.171,0.647,0.622,0.837,1.253,0.948c0.886,0.156,1.388-0.386,2-0.925c0.524-0.462,1.099-0.953,1.662-1.359
		c0.571-0.411,1.21-0.672,1.752-1.13c0.407-0.343,0.673-0.662,0.899-1.138c0.123-0.259,0.422-1.235,0.732-1.321
		c0.126-0.035,0.412,0.186,0.535,0.268c0.227,0.151,0.261-0.001,0.226,0.297c-0.049,0.421-0.586,0.564-0.619,1.044
		c-0.045,0.655,0.728,0.874,0.668,1.506c-0.725,0.045-1.021-1.236-1.643-0.367c-0.202,0.283-0.268,0.587-0.401,0.905
		c-0.144,0.343-0.397,0.662-0.608,0.967c-0.135,0.195-0.253,0.436-0.448,0.578c-0.301,0.22-0.737,0.267-1.029,0.52
		c-0.388,0.337-0.614,1.127-0.269,1.564c0.209,0.266,0.609,0.476,0.856,0.706c0.237,0.222,0.802,0.324,0.859,0.671
		c0.433-0.088,0.736-0.334,1.077,0.024c0.379,0.399,0.78,0.9,1.075,1.359c0.628,0.98,0.434,1.879,0.501,2.973
		c0.067,1.074,1.127,0.763,1.855,0.719c0.521-0.031,0.968,0.2,1.465,0.265c0.562,0.073,0.794-0.309,1.153-0.649
		c0.383,0.171,0.284,0.901,0.773,0.771c0.506-0.135,0.688-1.09,1.338-0.99c0.535,0.082,1.23,0.952,1.596,1.342
		c-0.321-0.288-0.857-0.72-1.306-0.435c-0.277,0.176-0.341,0.622-0.608,0.795c-0.203,0.131-0.562,0.043-0.79,0.042
		c-0.374,0-0.753-0.017-1.127,0.007c-0.666,0.043-1.44,0.082-2.084,0.255c-0.641,0.172-0.943,0.851-1.325,1.357
		c-0.333,0.441-0.671,0.877-0.978,1.336c-0.366,0.547-0.625,1.152-0.992,1.694c-0.159,0.235-0.576,0.647-0.594,0.931
		c0.44,0.172,1.028,0.162,1.387,0.51c0.179,0.174,0.153,0.335,0.453,0.398c0.735,0.153,1.115-0.422,1.766-0.478
		c0.833-0.072,1.796,0.303,2.394,0.863c0.498,0.466,1.051,0.617,1.644,0.96c0.433,0.25,0.688,0.656,1.083,0.952
		c0.43,0.323,0.962,0.313,1.472,0.206c0.666-0.139,1.357-0.273,1.718,0.414c-0.554,0.035-1.116-0.008-1.671,0.005
		c-0.447,0.01-0.913,0.077-1.36,0.026c-0.847-0.096-1.65-0.602-2.367-1.035c-0.425-0.257-0.716-0.622-1.219-0.705
		c-0.454-0.075-0.923-0.02-1.378,0c-0.507,0.022-1.028-0.04-1.528,0.026c-0.437,0.058-0.801,0.212-1.205,0.374
		c-0.293,0.118-0.587,0.254-0.849,0.424c-0.306,0.198-0.674,0.642-1.065,0.643c2.444,0.397,4.873,0.767,7.168,1.724
		c0.966,0.403,1.908,0.674,2.898,1.009c1.211,0.41,2.348,0.93,3.53,1.403c1.378,0.552,2.782,1,4.189,1.476
		c0.733,0.248,1.513,0.357,2.222,0.661c0.574,0.246,1.143,0.509,1.714,0.762c1.563,0.692,3.295,1.016,4.812,1.756
		c0.631,0.308,1.179,0.727,1.838,0.977c0.92,0.349,1.813,0.667,2.692,1.119c1.002,0.514,2.068,0.84,3.084,1.316
		c0.682,0.32,1.321,0.743,2.02,1.016c0.905,0.353,1.973,0.641,2.75,1.243c0.717,0.556,1.477,0.903,2.27,1.327
		c1.126,0.603,2.249,1.233,3.415,1.757c1.308,0.588,2.442,1.53,3.763,2.082c1.32,0.552,2.861,1.261,3.868,2.302
		c0.508,0.525,0.833,1.203,1.343,1.754c0.329,0.355,0.428,0.357,0.964,0.237c0.477-0.107,0.953-0.222,1.412-0.396
		c0.174,0.492-0.118,1.081,0.124,1.556c0.122,0.239,0.432,0.524,0.642,0.692c0.337,0.27,0.726,0.571,1.088,0.806
		c0.934,0.606,1.983,1.023,3.092,1.058c0.75,0.023,1.333-0.183,2.08-0.203c0.293-0.197,0.49-0.488,0.822-0.62
		c0.319-0.127,0.796,0.047,1.076-0.104c0.344-0.185,0.133-0.715-0.049-0.96c-0.251-0.336-0.54-0.562-0.507-1.031
		c0.299-0.12,0.836,0.063,1.056-0.11c0.149-0.118,0.197-0.554,0.293-0.733c0.325-0.077,0.591-0.11,0.77-0.372
		c0.18-0.262,0.204-0.58,0.403-0.837c0.19-0.245,0.476-0.442,0.706-0.642c0.316-0.276,0.5-0.63,0.64-1.026
		c0.135-0.377,0.177-0.714,0.066-1.099c-0.115-0.396-0.253-0.611-0.235-1.042c0.019-0.455,0.021-0.625,0.462-0.665
		c0.524-0.048,1.195-0.008,1.722-0.034c0.002-0.526,0.101-1.08,0.031-1.608c-0.082-0.622-0.408-0.871-0.802-1.338
		c-0.268-0.317-0.309-0.693,0.034-0.99c0.251-0.218,0.533-0.162,0.798-0.299c0.311-0.161,0.053-0.226,0.108-0.537
		c0.058-0.326,0.505-0.491,0.659-0.773c0.189-0.346,0.272-0.796,0.366-1.182c0.103-0.424,0.159-0.852,0.386-1.205
		c0.143,0.042,0.41,0.162,0.53,0.26c0.155,0.126,0.156,0.289,0.274,0.407c0.289,0.288,0.591,0.113,0.743-0.177
		c0.251-0.478,0.147-1.809,0.656-2.001c0.507-0.192,0.9,0.635,1.371,0.04c0.271-0.342,0.361-0.928,0.928-0.749
		c0.191,0.06,0.307,0.261,0.504,0.308c0.305,0.072,0.66-0.195,0.91-0.338c0.503-0.287,1.114-0.619,1.534-1.015
		c0.53-0.499,0.396-1.399,0.614-2.054c0.303-0.909,1.224-0.886,1.794-1.458c-0.103-0.64-0.111-1.104,0.345-1.605
		c0.423-0.464,0.821-0.959,1.28-1.386c0.281-0.262,0.487-0.599,0.799-0.829c0.296-0.218,0.59-0.19,0.947-0.19
		c0.356,0,0.477,0.006,0.751-0.204c0.386-0.295,0.775-0.579,1.157-0.88c0.386-0.303,0.754-0.672,1.067-1.049
		c0.106-0.127,0.182-0.282,0.314-0.384c0.194-0.15,0.382-0.033,0.621-0.071l5.243-4.638l0.695,0.796l5.646-3.809
		c-0.036-0.342,0.114-0.891,0.224-1.222c0.193-0.583,0.441-0.511,1.019-0.623c0.597-0.116,0.585-0.329,0.773-0.852
		c0.209-0.58,0.449-1.062,0.745-1.6c0.354-0.644,0.638-0.937,1.255-1.342c0.582-0.382,0.629-0.819,0.9-1.43
		c0.561-1.265,1.5-2.584,2.488-3.561c0.406-0.402,0.89-0.483,1.42-0.662c0.53-0.179,0.924-0.454,1.314-0.839
		c0.381-0.376,0.527-0.534,1.072-0.597c0.672-0.078,1.275-0.121,1.942-0.255v-16.165c0.391-0.312,1.102-0.305,1.578-0.485
		c0.552-0.209,0.826-0.636,1.21-1.074c0.361-0.412,0.816-0.726,1.103-1.205c0.21-0.35,0.423-0.774,0.68-1.068
		c0.182-0.208-0.017-0.671,0.098-0.944c0.153-0.363,0.669-0.494,1.002-0.686c1.156-0.668,2.164-1.449,3.564-1.395
		c0.896,0.035,1.734,0.281,2.6,0.457c0.658,0.134,1.023,0.186,1.171-0.463c0.1-0.438,0.638-0.626,1.107-0.498
		c0.405,0.111,0.633,0.693,1.047,0.743c0.444,0.054,0.955-0.794,1.181-1.096c0.195-0.259,0.388-0.524,0.572-0.791
		c0.11-0.159,0.23-0.418,0.382-0.538c0.276-0.219,0.831-0.097,1.067-0.394c0.157-0.199,0.17-0.872,0.088-1.116
		c-0.337-1.006-1.002-1.872-1.137-2.96c-0.05-0.403-0.12-1.213,0.202-1.479c0.167-0.138,0.393-0.104,0.554-0.25
		c0.17-0.154,0.304-0.477,0.416-0.675c0.428-0.759,0.611-1.739,0.338-2.583c-0.266-0.824,0.016-1.27,0.233-2.022
		c0.183-0.635,0.226-1.289,0.403-1.931c0.135-0.49,0.415-0.903,0.437-1.425C191.591,100.162,191.442,99.852,191.246,99.494z"/>
	<path fill="#1E8346" d="M57.757,153.936c1.43,0.132-0.136-1.949-0.512-2.279c-0.695-0.61-1.372-0.646-2.244-0.788
		c-0.316-0.052-0.706-0.248-1.031-0.157c-0.26,0.072-0.396,0.326-0.681,0.343c0.004-0.485,0.353-0.893,0.19-1.356
		c-0.233-0.658-1.07-0.545-1.644-0.572c-1.173-0.056-2.331,0.019-3.503,0.029c-1.276,0.011-2.522,0.305-3.786,0.438
		c-0.693,0.073-1.405,0.164-2.101,0.17c-0.507,0.004-1.004-0.152-1.513-0.138c-1.241,0.033-2.443,0.492-3.684,0.57
		c-1.018,0.064-1.782,0.275-2.712,0.649c-0.532,0.213-1.865,0.366-2.17,0.892c0.212,0.341,0.398,0.42-0.056,0.667
		c-0.463,0.252-0.704,0.235-0.945,0.741c0.663,0.221,1.363,0.248,2.051,0.286c1.013,0.057,2.058,0.284,3.031,0.568
		c0.81,0.237,1.592,0.538,2.398,0.786c1.094,0.337,2.226,0.534,3.328,0.844c1.03,0.29,2.112,0.573,3.089,1.005
		c0.837,0.369,1.645,0.538,2.517,0.797c1.533,0.456,3.112,1.071,4.544,1.787c0.937,0.469,1.624,0.943,2.013,1.969
		c0.232,0.612,0.211,1.171,0.295,1.798c0.077,0.579,0.416,0.874,0.974,0.988c0.616,0.126,0.596-0.079,0.668-0.769
		c0-0.718,0.031-1.429,0.034-2.148c0.003-0.793-0.008-2.039,0.707-2.548c0.404-0.288,0.662-0.304,0.888-0.769
		c0.227-0.466,0.533-1.024,0.588-1.543C58.581,155.316,57.665,154.883,57.757,153.936z"/>
	<path fill="#1E8346" d="M56.088,149.532c0.191,0.164,0.696,0.421,0.841,0.084c0.149-0.348-0.089-0.718-0.365-0.914
		c-0.551-0.393-1.219-0.576-1.384-1.329c-0.201,0.156-0.201,0.444-0.168,0.677C55.121,148.671,55.626,149.135,56.088,149.532z"/>
	<path fill="#1E8346" d="M56.773,145.234c0.264-0.013,0.399-0.109,0.524-0.343c0.069-0.13,0.145-0.281,0.194-0.422
		c0.086-0.25-0.014-0.332-0.429-0.234c-0.076,0.043-0.123,0.11-0.205,0.156c-0.119,0.066-0.262,0.091-0.375,0.163
		c-0.112,0.07-0.295,0.268-0.328,0.402C56.074,145.274,56.585,145.243,56.773,145.234z"/>
	<path fill="#1E8346" d="M59.432,150.775c0.095-0.15-0.298-0.582-0.409-0.677c-0.155-0.132-0.432-0.229-0.639-0.201
		c-0.164,0.022-0.291,0.097-0.164,0.319c0.189,0.152,0.383,0.263,0.568,0.421C58.907,150.738,59.302,150.983,59.432,150.775z"/>
	<path fill="#1E8346" d="M60.17,155.884c0.144,0.047,0.21,0.013,0.29-0.092c0.082-0.107,0.098-0.141,0.203-0.228
		c0.081-0.067,0.139-0.107,0.133-0.224c-0.038-0.005-0.072-0.041-0.238-0.066c-0.089-0.049-0.648-0.406-0.744-0.371
		c-0.175,0.062,0.086,0.288,0.136,0.346c0.103,0.122,0.134,0.197,0.109,0.357C60.034,155.754,59.991,155.826,60.17,155.884z"/>
	<path fill="#1E8346" d="M29.555,151.443c-0.52,0.285-0.727,0.686-0.262,1.173c0.427,0.448,1.376,0.271,1.239-0.459
		C30.448,151.715,30.023,151.446,29.555,151.443z"/>
	<path fill="#1E8346" d="M26.695,147.372c-0.161,0.01-0.467,0.249-0.586,0.344c-0.15,0.121-0.244,0.286-0.356,0.44
		c-0.13,0.178-0.277,0.33-0.433,0.487c-0.3,0.303-0.509,0.544-0.672,0.952c0.42,0.223,0.65,0.359,1.003,0.32
		c0.448-0.049,0.377-0.263,0.292-0.594c-0.065-0.252,0.004-0.323,0.214-0.464c0.295-0.198,0.717-0.446,0.836-0.807
		C27.056,147.854,26.985,147.354,26.695,147.372z"/>
	<path fill="#1E8346" d="M16.336,118.889c-0.248,0.217-0.488,0.445-0.735,0.661c-0.12,0.105-0.249,0.196-0.369,0.3
		c-0.119,0.103-0.269,0.254-0.414,0.313c-0.151,0.216-0.286,0.564-0.084,0.718c0.246,0.187,0.609,0.105,0.826-0.09
		c0.175-0.157,0.383-0.264,0.55-0.433c0.193-0.195,0.266-0.389,0.376-0.632c0.096-0.212,0.287-0.459,0.206-0.7
		C16.626,118.824,16.506,118.741,16.336,118.889z"/>
</g>
</svg>
