<?xml version="1.0" encoding="utf-8"?>
<!-- Generator: Adobe Illustrator 26.0.3, SVG Export Plug-In . SVG Version: 6.00 Build 0)  -->
<svg version="1.1" xmlns="http://www.w3.org/2000/svg" xmlns:xlink="http://www.w3.org/1999/xlink" x="0px" y="0px"
	 viewBox="0 0 200 200" enable-background="new 0 0 200 200" xml:space="preserve">
<g id="Layer_1">
	<g id="Layer_1_00000061442898653323928190000005571608892069918396_">
		<g id="Layer_1_00000098929087308412571940000004538787532203942811_">
		</g>
	</g>
</g>
<g id="Isolation_Mode">
	<path fill="#1E8346" d="M168.574,90.356c-0.385,0.366-0.15,0.86,0.36,0.859c0.339-0.001,0.479-0.23,0.67-0.462
		c0.365-0.444,0.545-0.442,1.101-0.235c0.473,0.176,0.934,0.379,1.428,0.481c0.831,0.172,1.415,0.287,2.145,0.724
		c0.285,0.17,0.56,0.358,0.852,0.522c0.676,0.38,1.101,0.944,1.693,1.42c0.333,0.268,0.651,0.44,0.934,0.788
		c0.209,0.257,0.391,0.541,0.641,0.758c0.507,0.441,0.87,0.757,1.232,1.322c0.349,0.544,0.868,1.118,1.299,1.599
		c0.263,0.293,0.65,0.529,0.967,0.782c0.382,0.305,0.741,0.581,1.108,0.913c0.262,0.237,0.611,0.757,0.926,0.932
		c0.172,0.096,0.251,0.389,0.383,0.54c0.293,0.334,0.671,0.553,1.107,0.53c0.492-0.026,0.638,0.107,0.91,0.485
		c0.212,0.293,0.609,0.468,0.885,0.689c0.272,0.218,0.482,0.501,0.76,0.709c0.154,0.116,0.325,0.246,0.485,0.347
		c0.19,0.119,0.429,0.149,0.626,0.263c0.313,0.18,0.627,0.512,0.842,0.801c0.378,0.506,0.653,1.001,1.163,1.382
		c0.189,0.141,0.353,0.3,0.533,0.452c0.154,0.13,0.359,0.335,0.453,0.499c0.105,0.184,0.339,0.449,0.352,0.657
		c0.304,0.035,0.578-0.01,0.869-0.064c0.25-0.047,0.274,0.005,0.441,0.208c0.202,0.246,0.379,0.53,0.66,0.695
		c0.334,0.198,0.624,0.117,0.835,0.46c0.096,0.157,0.141,0.297,0.256,0.443c0.107,0.135,0.245,0.212,0.358,0.332
		c0.281,0.295,0.169,0.788,0.17,1.164c0,0.523,0.03,1.188-0.135,1.693c-0.148,0.45-0.539,0.883-0.773,1.296
		c-0.294,0.52-0.546,1.022-0.798,1.566c-0.224,0.482-0.54,1.036-1.019,1.313c-0.297,0.171-0.465,0.006-0.602,0.36
		c-0.079,0.205-0.088,0.44-0.137,0.636c-0.091,0.367-0.255,0.696-0.5,0.98c-0.217,0.252-0.766,0.459-0.858,0.778
		c-1.167,0.734-1.212,2.149-1.211,3.402c0,0.36-0.041,0.7-0.197,1.016c-0.163,0.332-0.306,0.585-0.302,0.974
		c-0.561,0.561-1.32,0.67-2.093,0.55c-0.415-0.065-0.785-0.242-1.168-0.402c-0.358-0.15-0.743-0.215-1.115-0.332
		c-0.779-0.243-1.617-0.313-2.278-0.838c-0.482-0.382-0.561-0.799-1.217-0.497c-0.136,0.062-0.294,0.091-0.375,0.187
		c-0.105,0.125-0.103,0.408-0.086,0.56c0.045,0.389,0.31,0.584,0.52,0.885c0.407,0.586,0.091,1.497-0.231,2.068
		c-0.217,0.385-0.585,0.523-0.862,0.844c-0.286,0.332-0.413,0.744-0.522,1.158c-0.071,0.267-0.083,0.535-0.146,0.802
		c-0.061,0.256-0.173,0.461-0.166,0.731c0.01,0.349,0.188,0.669,0.231,1.002c0.026,0.199-0.064,0.581-0.257,0.69
		c-0.205,0.115-0.309-0.044-0.504-0.09c-0.327-0.077-0.986,0.024-1.283,0.133c-0.106,0.039-0.123,0.082-0.243,0.102
		c-0.137,0.023-0.288-0.02-0.425-0.025c-0.448-0.017-0.905-0.071-1.351-0.071c-0.338-0.001-0.564,0.05-0.886-0.095
		c-0.224-0.102-0.269-0.211-0.421,0.005c-0.114,0.161-0.082,0.445-0.344,0.448c-0.131-0.331-0.18-0.712-0.287-1.051
		c-0.094-0.296-0.241-0.574-0.387-0.854c-0.337-0.647-0.652-1.306-0.961-1.969c-0.182-0.389-0.306-0.767-0.523-1.142
		c-0.228-0.394-0.647-0.66-0.836-1.068c-0.195-0.424-0.244-0.959-0.613-1.301c-0.355-0.329-0.851-0.486-1.192-0.81
		c-0.154-0.569-0.146-0.997-0.688-1.28c-0.503-0.262-1.024-0.503-1.535-0.762c-0.547-0.277-1.123-0.595-1.751-0.632
		c-0.379-0.023-0.788,0.068-1.16-0.003c-0.236-0.045-0.368-0.175-0.567-0.263c-0.419-0.186-0.866,0.067-1.318,0.144
		c-0.462,0.078-0.895,0.251-1.343,0.382c-1.275,0.374-2.932,0.67-4.256,0.45c-0.619-0.103-1.145-0.373-1.713-0.603
		c-0.411-0.167-0.88-0.167-1.314-0.238c-0.663-0.109-2.433-0.133-2.57-1.042c-0.086-0.572,0.416-1.407-0.541-1.33
		c-0.586,0.047-1.045,0.368-1.592,0.439c-0.325,0.043-0.673-0.067-1-0.073c-0.634-0.013-1.026,0.148-1.575,0.366
		c-0.286,0.114-0.64,0.244-0.96,0.137c-0.438-0.146-0.414-0.689-0.737-0.865c-0.193,0.201-0.328,0.435-0.421,0.705
		c-0.063,0.18-0.124,0.6-0.323,0.695c-0.219,0.104-0.893-0.06-1.137-0.072c-0.609-0.028-1.224-0.003-1.834-0.003
		c-0.955,0-1.843,0.093-2.783,0.211c-0.688,0.087-1.303,0.396-1.967,0.572c-0.702,0.186-1.264,0.153-1.971,0.357
		c-0.41,0.118-0.98,0.036-1.39-0.053c-0.257-0.056-0.463-0.178-0.649-0.366c-0.287-0.288-0.479-0.678-0.778-0.954
		c-0.26-0.24-0.671-0.31-0.984-0.453c-0.466-0.212-0.924-0.514-1.443-0.376c-0.497,0.133-0.775,0.301-0.659,0.83
		c0.085,0.387,0.327,0.964,0.173,1.36c-0.127,0.326-0.482,0.273-0.769,0.251c-0.893-0.068-1.965-0.523-2.016-1.552
		c-0.012-0.246,0.065-0.602-0.106-0.809c-0.154-0.186-0.466-0.188-0.678-0.213c-0.634-0.074-1.197-0.449-1.839-0.523
		c-0.683-0.079-1.321-0.207-2.01-0.207c-0.416,0-0.828,0.014-1.243,0.032c-0.421,0.019-0.974,0.083-1.385-0.03
		c-0.23-0.063-0.425-0.257-0.647-0.32c-0.114-0.032-0.244-0.022-0.365-0.021c-0.336,0.001-0.671,0.027-1.008,0.019
		c-0.522-0.012-0.963-0.085-1.42,0.203c-0.406,0.256-0.792,0.548-1.181,0.828c-0.29,0.209-0.607,0.431-0.927,0.592
		c-0.368,0.186-0.81,0.256-1.199,0.407c-0.425,0.165-0.806,0.399-1.274,0.411c-0.202,0.005-0.392-0.027-0.59-0.037
		c-0.377-0.019-0.933-0.111-1.292,0.038c-0.452,0.188-0.52,0.786-0.737,1.166c-0.184,0.323-0.467,0.591-0.686,0.888
		c-0.33,0.448-0.651,0.911-0.971,1.368c-0.103,0.147-0.197,0.297-0.288,0.448c-0.095,0.159-0.264,0.392-0.336,0.563
		c-0.13,0.31-0.349,0.573-0.485,0.884c-0.166,0.381-0.343,0.581-0.642,0.866c-0.256,0.244-0.616,0.369-0.83,0.654
		c-0.166,0.221-0.113,0.516-0.235,0.767c-0.115,0.235-0.313,0.33-0.518,0.488c-0.31,0.238-0.639,0.497-0.786,0.868
		c-0.115,0.288-0.137,0.596-0.3,0.865c-0.129,0.212-0.293,0.565-0.534,0.67c-0.172,0.075-0.517,0.066-0.686,0.001
		c-0.17-0.066-0.211-0.197-0.405-0.221c-0.425-0.053-0.892,0.369-1.316,0.139c-0.148-0.08-0.114-0.162-0.314-0.161
		c-0.207,0.001-0.369,0.084-0.544,0.183c-0.397,0.223-0.804,0.545-1.285,0.45c-0.257-0.051-0.507-0.213-0.717-0.362
		c-0.213-0.151-0.417-0.301-0.662-0.373c-0.96-0.282-1.811,0.529-2.704,0.704c-0.4,0.078-0.98,0.065-1.355-0.1
		c-0.436-0.192-0.73-0.245-1.2-0.264c-0.218-0.009-0.329-0.091-0.516-0.174c-0.362-0.162-0.615-0.056-0.969,0.051
		c-0.248,0.076-0.5,0.007-0.761,0.062c-0.274,0.057-0.574,0.179-0.826,0.298c-1.14,0.539-2.112,1.328-3.347,1.665
		c-0.365,0.1-0.81,0.247-1.151,0.034c-0.237-0.148-0.339-0.44-0.596-0.514c-0.26-0.075-0.57-0.034-0.839-0.034
		c-0.296,0-0.606,0.058-0.885-0.036c-0.211-0.071-0.429-0.199-0.389-0.405c0.076-0.391,0.61-0.678,0.869-0.938
		c0.178,0.209,0.168,0.56,0.384,0.701c0.206,0.134,0.658,0.049,0.882,0.013c0.299-0.047,0.592-0.105,0.35-0.416
		c-0.236-0.302-0.516-0.328-0.838-0.499c-0.153-0.081-0.313-0.07-0.458-0.17c-0.199-0.137-0.267-0.345-0.355-0.549
		c-0.142-0.328-0.37-0.35-0.705-0.488c-0.596-0.244-1.584-0.518-1.593-1.294c-0.004-0.344,0.13-0.479,0.281-0.763
		c0.121-0.227,0.112-0.488,0.237-0.72c0.12-0.223,0.352-0.315,0.463-0.534c0.111-0.219,0.073-0.503,0.059-0.747
		c-0.018-0.3-0.154-0.59-0.115-0.893c0.033-0.254,0.184-0.327,0.287-0.519c0.115-0.215,0.026-0.434-0.02-0.661
		c-0.06-0.301-0.215-0.302-0.376-0.56c-0.373-0.596,0.135-1.632-0.564-2.01c-0.284-0.153-0.628-0.256-0.948-0.256
		c-0.303,0-0.809,0.165-1.038-0.095c-0.029-0.197-0.552-0.307-0.727-0.323c-0.504-0.047-0.978-0.174-1.475-0.236
		c-0.315-0.039-0.599,0.08-0.805,0.324c-0.193,0.23-0.142,0.428-0.454,0.516c-0.439,0.124-0.705,0.034-0.72,0.576
		c-0.011,0.383,0.188,0.676,0.218,1.038c0.025,0.3-0.128,0.517-0.293,0.744c-0.202,0.278-0.368,0.621-0.66,0.816
		c-0.248,0.166-0.49,0.278-0.729,0.464c-0.241,0.188-0.436,0.2-0.737,0.126c-0.319-0.078-0.627-0.111-0.968-0.064
		c-0.32,0.044-0.77,0.256-1.085,0.207c-0.161-0.025-0.148-0.126-0.266-0.209c-0.407-0.288-0.599,0.18-0.873,0.348
		c-0.246,0.151-0.211,0.228-0.348,0.443c-0.096,0.15-0.237,0.235-0.428,0.148c-0.358-0.162-0.04-0.401-0.015-0.644
		c-0.463-0.026-1.008-0.07-1.374,0.287c-0.285,0.278-0.606,0.695-0.662,1.093c-0.046,0.318,0,0.381-0.238,0.618
		c-0.133,0.132-0.27,0.262-0.399,0.398c-0.317,0.333-0.575,0.687-0.842,1.054c-0.309,0.423-0.828,0.551-1.229,0.849
		c-0.285,0.212-0.487,0.393-0.864,0.452c-0.179,0.028-0.372,0.016-0.549,0.063c-0.145,0.038-0.254,0.137-0.39,0.187
		c-0.271,0.101-0.415,0.014-0.642-0.168c-0.484-0.386-0.558-0.896-0.801-1.422c-0.107-0.234-0.288-0.586-0.493-0.743
		c-0.206-0.157-0.512-0.223-0.739-0.364c-0.193-0.12-0.382-0.288-0.609-0.343c-0.232-0.056-0.483,0.066-0.713,0.009
		c-0.31-0.078-0.482-0.471-0.81-0.547c-0.324-0.074-0.604,0.015-0.869,0.179c-0.207,0.128-0.305,0.338-0.502,0.484
		c-0.285,0.211-0.557,0.49-0.852,0.691c-0.74,0.505-1.437,1.601-0.878,2.453c0.21,0.319,0.41,0.515,0.734,0.693
		c0.268,0.147,0.439,0.287,0.424,0.598c-0.015,0.323-0.235,0.549-0.281,0.838c-0.047,0.286,0.155,0.461,0.325,0.647
		c0.546,0.598,1.684,1.614,1.362,2.442c-0.127,0.325-0.16,0.691-0.253,1.026c-0.12,0.431-0.303,0.896-0.488,1.304
		c-0.174,0.386-0.43,0.738-0.649,1.098c-0.186,0.306-0.334,0.634-0.558,0.914c-0.295,0.369-0.614,0.695-0.883,1.09
		c-0.262,0.384-0.423,0.701-0.828,0.958c-0.169,0.108-0.353,0.183-0.466,0.357c-0.122,0.188-0.144,0.434-0.204,0.644
		c-0.128,0.447-0.353,0.803-0.724,1.087c-0.329,0.253-0.591,0.423-0.696,0.836c-0.079,0.311-0.153,0.618-0.308,0.905
		c-0.146,0.269-0.508,1.004-0.832,1.063c-0.14,0.272-0.338,0.504-0.474,0.784c-0.098,0.203-0.187,0.419-0.308,0.61
		c-0.276,0.436-0.654,0.778-1.059,1.095c-0.38,0.297-0.721,0.646-1.108,0.932c-0.351,0.259-0.845,0.54-1.04,0.947
		c-0.141,0.295-0.013,0.612-0.291,0.816c-0.565,0.414-0.333-0.292-0.682-0.103c-0.363,0.197-0.038,1.031-0.172,1.359
		c-0.098,0.241-0.268,0.135-0.516,0.156c-0.263,0.022-0.416,0.117-0.642,0.266c-0.606,0.399-0.9,1.091-1.192,1.731
		c-0.269,0.593-0.559,1.163-0.761,1.782c-0.105,0.321-0.111,0.654-0.233,0.972c-0.13,0.341-0.376,0.647-0.439,1.012
		c-0.047,0.27,0.004,0.544,0.037,0.809c0.047,0.381-0.16,0.231-0.454,0.375c0.002,0.595,0.158,1.412-0.462,1.777
		c-0.274,0.161-0.389,0.112-0.48,0.474c-0.088,0.349-0.189,0.631-0.409,0.918c-0.211,0.275-0.311,1.043-0.571,1.168
		c-0.192,0.092-0.425-0.136-0.594,0.066c-0.072,0.086-0.075,0.351-0.038,0.44c-0.366,0.112-0.439-0.251-0.617-0.455
		c-0.118-0.134-0.301-0.183-0.455-0.267c-0.381-0.209-0.192-0.402-0.333-0.754c-0.203-0.507-0.803-0.871-1.171-1.236
		c-0.384-0.382-0.49-0.848-0.647-1.368c-0.135-0.447-0.191-0.863-0.391-1.291c-0.184-0.394-0.346-0.731-0.647-1.044
		c-0.325-0.338-0.402-0.857-0.834-1.038c-0.217-0.091-0.398-0.156-0.561-0.336c-0.069-0.076-0.095-0.158-0.177-0.219
		c-0.345-0.256-0.983-0.488-1.405-0.564c-0.547-0.098-1.1-0.171-1.655-0.171c-0.561,0-1.043,0.071-1.542,0.346
		c-0.548,0.302-0.93,0.444-1.573,0.338c-0.576-0.095-1.62-0.302-1.898-0.909c0.432-0.069,0.777,0.018,1.108-0.357
		c0.183-0.208,0.363-0.523,0.442-0.789c0.094-0.319-0.024-0.606-0.002-0.933c0.613,0.003,1.229,0.1,1.398-0.661
		c0.221-0.998-0.562-1.898-1.138-2.576c-0.349-0.41-0.523-1.095-0.925-1.465c-0.326-0.301-0.104-2.105,0.542-2.021
		c0.164-0.22,0.026-0.436-0.069-0.652c-0.152-0.348-0.261-0.692-0.391-1.048c-0.382-1.046-1.558-1.51-2.374-2.161
		c-0.301-0.24-0.556-0.547-0.901-0.738c-0.305-0.168-0.667-0.253-0.963-0.442c-0.105-0.067-0.197-0.172-0.31-0.205
		c-0.118-0.034-0.025-0.397-0.004-0.523c0.041-0.244,0.165-0.443,0.316-0.639c0.302-0.394,0.498-0.681,0.543-1.187
		c0.023-0.254,0.109-0.47,0.032-0.721c-0.035-0.113-0.083-0.179-0.064-0.306c0.011-0.077,0.098-0.167,0.067-0.246
		c-0.038-0.097-0.251-0.103-0.327-0.177c-0.117-0.115-0.194-0.38-0.223-0.537c-0.066-0.357,0.035-0.485,0.169-0.78
		c0.126-0.275,0.029-0.615-0.118-0.857c-0.153-0.253-0.456-0.365-0.552-0.659c-0.124-0.072-0.347-0.308-0.41-0.448
		c-0.039-0.087,0.016-0.217-0.033-0.293c-0.082-0.126-0.11-0.056-0.247-0.089c-0.338-0.082-0.525-0.28-0.598-0.636
		c-0.092-0.447,0.046-0.741,0.394-1.011c0.465-0.362,0.097-0.93,0.384-1.367c0.147-0.224,0.486-0.254,0.62-0.472
		c0.166-0.27-0.012-0.653,0.146-0.95l2.826-5.106l-4.916-1.924l-0.427-0.902l-1.401-0.38l-0.618-1.52l-3.159-1.33l-0.546-1.805
		l1.781-0.261v-0.76l-3.373-3.681l-1.14-1.853l-0.523-0.047l-0.499-0.617c-0.276,0.136-0.576,0.02-0.82-0.15
		c-0.113-0.078-0.228-0.054-0.149-0.238c0.053-0.123,0.445-0.283,0.559-0.349c0.332-0.194,0.543-0.324,0.718-0.666
		c0.145-0.285,0.306-0.662,0.647-0.712c0.321-0.047,0.834,0.28,1.112,0.426c0.168,0.088,0.356,0.193,0.511,0.306
		c0.124,0.091,0.233,0.25,0.38,0.305c0.387,0.145,0.402-0.296,0.686-0.419c0.204-0.088,0.783-0.074,0.98-0.022
		c0.23,0.061,0.409,0.277,0.598,0.416c0.108,0.079,0.169,0.092,0.221,0.229c0.03,0.079-0.061,0.099-0.004,0.189
		c0.152,0.241,0.32,0.079,0.447-0.05c0.231-0.231,0.348-0.25,0.669-0.234c0.39,0.019,0.468,0.026,0.539,0.398
		c0.754,0.077,1.498-0.158,2.218-0.36c0.012-0.208-0.111-0.386-0.14-0.587c-0.044-0.306-0.006-0.647-0.004-0.955
		c0.002-0.296,0.155-0.369,0.234-0.636c0.067-0.226-0.034-0.451-0.019-0.687c0.259-0.057,0.581,0.052,0.772-0.172
		c0.251-0.296-0.011-0.553,0.411-0.759c0.427-0.207,0.789-0.312,1.169-0.597c0.295-0.221,0.765-0.154,0.996-0.448l0.926-4.275
		l0.071-1.876l-0.261-0.332l0.166-2.066h-0.736l-0.119-0.57l-1.069-0.855l-0.523-0.119l-0.546-2.636
		c-0.287,0.005-0.607-0.022-0.892-0.058c-0.179-0.022-0.281-0.031-0.434-0.13c-0.168-0.108-0.326-0.204-0.526-0.205
		c-0.083,0-0.196,0.026-0.262-0.029c-0.127-0.104-0.012-0.161-0.239-0.114c-0.178,0.037-0.217-0.031-0.357-0.15
		c-0.086-0.073-0.13-0.132-0.234-0.088c-0.151,0.065-0.172,0.273-0.12,0.402c0.038,0.094,0.098,0.119,0.021,0.195
		c-0.08,0.079-0.142,0.025-0.227-0.025c-0.047-0.028-0.18-0.164-0.251-0.154c-0.085,0.013-0.151,0.189-0.193,0.248
		c-0.1-0.012-0.206-0.043-0.282-0.112c-0.197,0.12-0.059,0.315-0.125,0.474c-0.061,0.147-0.486,0.106-0.645,0.145
		c-0.098,0.024-0.293,0.213-0.389,0.18c-0.058-0.02-0.107-0.227-0.147-0.28c-0.059-0.078-0.166-0.137-0.185-0.243
		c-0.055-0.308,0.403-0.177,0.539-0.256c0.16-0.094,0.073-0.378,0.092-0.524c0.014-0.106,0.078-0.167,0.149-0.24
		c0.079-0.08,0.129-0.129,0.171-0.248c0.055-0.154,0.036-0.221,0.213-0.246c0.235-0.033,0.289,0.061,0.456,0.197
		c0.107-0.143,0.07-0.343,0.139-0.499c0.057-0.129,0.09-0.22,0.204-0.285c0.144-0.081,0.189-0.219,0.291-0.342
		c0.155-0.187,0.294-0.145,0.466,0.006c0.163,0.144,0.287,0.166,0.482,0.068c0.285-0.144,0.602-0.207,0.889-0.348
		c0.114-0.056,0.128-0.1,0.257-0.1c0.166-0.001,0.163,0.038,0.164,0.186c0.001,0.085,0.066,0.192,0.112,0.268
		c0.059,0.097,0.247,0.177,0.346,0.098c0.136-0.109,0.055-0.374,0.008-0.502c-0.052-0.143-0.079-0.208,0.086-0.28
		c0.148-0.065,0.423,0,0.551-0.111c0.149-0.13-0.053-0.259-0.113-0.368c-0.132-0.242,0.316-0.597,0.498-0.744
		c0.022,0.011,0.67,0.448,0.617,0.196C18.04,88.02,18,87.901,18.008,87.77c0.011-0.168,0.114-0.304,0.23-0.416
		c0.134-0.129,0.223-0.218,0.402-0.168c0.2,0.056,0.223,0.083,0.378-0.067c0.177-0.171,0.288-0.278,0.539-0.28
		c0.21-0.002,0.415,0.035,0.548-0.156c0.141-0.202,0.047-0.403,0.079-0.621c0.01-0.071,0.072-0.248,0.158-0.27
		c0.084-0.021,0.167,0.067,0.24,0.086c0.082,0.021,0.151,0.051,0.23-0.023c0.039-0.037,0.103-0.237,0.075-0.287
		c-0.038-0.064-0.199-0.062-0.256-0.107c-0.059-0.047-0.102-0.116-0.117-0.19c-0.065-0.309,0.187-0.407,0.436-0.426
		c0.142-0.011,0.318-0.079,0.266-0.281c-0.05-0.196-0.334-0.143-0.361-0.383c-0.029-0.251,0.205-0.451,0.434-0.458
		c0.273-0.009,0.44,0.19,0.692,0.223c0.289,0.038,0.261-0.362,0.23-0.572c0.404-0.063,0.866-0.126,1.275-0.079
		c0.089-0.204,0.19-0.39,0.294-0.589c0.064-0.122,0.071-0.308-0.002-0.441c-0.078-0.143-0.349-0.213-0.331-0.41
		c0.02-0.209,0.364-0.104,0.504-0.181c0.267-0.147-0.151-0.347-0.011-0.562c0.08-0.123,0.201-0.135,0.129-0.3
		c-0.047-0.108-0.171-0.17-0.104-0.314c0.07-0.15,0.256-0.021,0.326-0.127c0.064-0.097-0.31-0.193-0.347-0.276
		c-0.078-0.174,0.08-0.329,0.229-0.372c0.2-0.058,0.406,0.01,0.603-0.03c0.171-0.035,0.134-0.21,0.021-0.313
		c-0.132-0.12-0.349-0.171-0.466-0.304c-0.139-0.159-0.038-0.397,0.104-0.514c0.156-0.129,0.281-0.13,0.33-0.361
		c0.079-0.375-0.214-1.069-0.663-1.038c-0.304,0.021-0.745,0.072-1.02-0.1c-0.142-0.089-0.217-0.331-0.389-0.333
		c-0.176-0.002-0.314,0.17-0.534,0.109c-0.218-0.06-0.277-0.261-0.499-0.34c-0.441-0.158-0.901-0.494-1.082-0.94
		c-0.098-0.241-0.206-0.341-0.397-0.507c-0.148-0.129-0.229-0.312-0.363-0.444c-0.17,0.154-0.126,0.58-0.362,0.635
		c-0.117,0.027-0.385-0.168-0.459-0.283c-0.116-0.181-0.07-0.43-0.065-0.636c-0.314,0.119-0.573,0.182-0.688-0.219
		c-0.046-0.159-0.005-0.286-0.109-0.419c-0.036-0.047-0.148-0.087-0.165-0.148c-0.022-0.076,0.063-0.128,0.067-0.192
		c0.012-0.167-0.105-0.188-0.208-0.293c-0.135-0.138-0.13-0.276-0.192-0.455c-0.059-0.169-0.152-0.32-0.275-0.451
		c-0.15-0.161-0.345-0.244-0.428-0.457c-0.114-0.296,0.43-0.415,0.606-0.466c0.176-0.052,0.346-0.084,0.526-0.125
		c0.204-0.047,0.178-0.063,0.206-0.242c0.075-0.481,0.556-0.622,0.911-0.865c0.26-0.177,0.613-0.603,0.941-0.313
		c0.08-0.085,0.166-0.176,0.247-0.255c0.204,0.119,0.374,0.229,0.564,0.352c0.206,0.134,0.668,0.262,0.632-0.132
		c-0.012-0.128-0.075-0.187-0.085-0.319c-0.014-0.183,0.034-0.301-0.032-0.485c-0.069-0.192-0.147-0.368-0.177-0.568
		c-0.036-0.241,0.008-0.357,0.11-0.552c0.115-0.222,0.153-0.503,0.219-0.741c0.112-0.406,0.365-0.692,0.571-1.058
		c-0.013-0.292,0.062-0.713-0.004-0.996c-0.077-0.33-0.404-0.628-0.578-0.911c-0.148-0.241-0.226-0.351-0.238-0.647
		c-0.01-0.245,0.035-0.474,0.071-0.713c0.048-0.318,0.146-0.687,0.134-1.008c-0.168-0.062-0.295-0.099-0.418-0.231
		c-0.065-0.07-0.15-0.318-0.209-0.394c-0.076-0.097-0.24-0.16-0.323-0.274c-0.191-0.263,0.015-0.672-0.018-0.978
		c-0.015-0.139-0.101-0.273-0.162-0.395c-0.132-0.262-0.236-0.541-0.391-0.791c-0.238-0.386-0.668-0.818-1.07-1.034l-0.196-2.69
		c0.151-0.215,0.48-0.224,0.607-0.463c0.13-0.246,0.062-0.676-0.033-0.918c-0.079-0.2-0.202-0.299-0.352-0.445
		c-0.122-0.119-0.227-0.228-0.372-0.314c-0.074-0.044-0.177-0.077-0.236-0.14c-0.154-0.163-0.154-0.496-0.247-0.701
		c-0.084-0.186-0.22-0.453-0.149-0.67c0.059-0.183,0.348-0.318,0.518-0.391c0.271-0.116,0.506,0.024,0.783,0.016
		c0.056,0.17,0.144,0.265,0.292,0.365c0.113,0.076,0.375,0.16,0.349-0.061c-0.017-0.143-0.326-0.234-0.384-0.394
		c-0.071-0.195,0.02-0.456,0.025-0.656c0.011-0.385,0.23-0.775-0.156-1.033c-0.312-0.208-0.581-0.456-0.664-0.848
		c-0.033-0.154-0.061-0.206-0.142-0.346c-0.096-0.167-0.09-0.31-0.089-0.501c0.001-0.256,0.029-0.644-0.191-0.819
		c-0.127,0.073-0.245,0.182-0.385,0.232c-0.063,0.022-0.125-0.008-0.191,0.034c0.106,0.28-0.226,0.407-0.341,0.579
		c-0.147,0.219-0.143,0.354-0.481,0.278c0.013-0.155,0.08-0.273,0.132-0.415c0.063-0.172,0.032-0.332,0.068-0.507
		c0.08-0.391,0.544-0.668,0.747-0.983c0.187-0.085,0.433-0.163,0.54-0.348c0.063-0.109,0.088-0.307,0.134-0.432
		c0.018-0.049,0.011-0.16,0.05-0.194c0.066-0.057,0.276-0.022,0.356-0.02c0.268,0.009,0.467,0.052,0.684-0.107
		c0.135-0.099,0.244-0.262,0.389-0.347c0.344-0.203,0.824-0.032,1.129-0.373c0.102-0.114,0.117-0.217,0.256-0.3
		c0.144-0.086,0.342-0.173,0.498-0.235c0.371-0.147,0.863-0.305,1.1-0.663c0.231-0.35,0.275-0.82,0.257-1.224
		c-0.01-0.237-0.137-0.925,0.093-1.05c0.081-0.044,0.326-0.043,0.417-0.049c0.126-0.008,0.165-0.009,0.298,0.057
		c0.175,0.086,0.305,0.198,0.387,0.382c0.037,0.084,0.033,0.2,0.116,0.252c0.069,0.044,0.293-0.021,0.361-0.055
		c0.116-0.058,0.193-0.147,0.197-0.282c0.004-0.147-0.143-0.32-0.047-0.466c0.075-0.115,0.366-0.168,0.497-0.158
		c0.159,0.013,0.326-0.064,0.48-0.122c0.313-0.117,0.627-0.246,0.951-0.318c0.493-0.109,0.997-0.122,1.495-0.057
		c0.28,0.037,0.471-0.03,0.739-0.1c0.384-0.101,0.775-0.087,1.14,0.063c0.115,0.047,0.219,0.121,0.335,0.158
		c0.234,0.076,0.585,0.043,0.834,0.054c0.411,0.019,0.876-0.041,1.273,0.087c0.782,0.254,1.289,0.653,1.879,1.203
		c0.579,0.54,1.368,0.478,2.052,0.839c0.587,0.31,1.182,0.626,1.852,0.683c0.776,0.065,1.436,0.532,2.231,0.464
		c0.327-0.028,0.842-0.132,1.16-0.014c0.202,0.074,0.444,0.283,0.64,0.396c0.193,0.111,0.458,0.255,0.683,0.31
		c0.365,0.089,0.798,0.015,1.173,0.005c0.56-0.014,1.139-0.016,1.674-0.213c0.322-0.118,0.148-1.196,0.161-1.44
		c0.021-0.38,0.222-0.19,0.481-0.136c0.226,0.047,0.346,0.028,0.517,0.206c0.127,0.133,0.131,0.274,0.318,0.361
		c0.215,0.099,0.513,0.127,0.721,0.011c0.209-0.117,0.36-0.369,0.627-0.359c0.184,0.007,0.372,0.124,0.563,0.146
		c0.167,0.019,0.335,0.02,0.501,0.047c0.102,0.016,0.241,0.077,0.344,0.043c0.132-0.044,0.19-0.188,0.328-0.241
		c0.434-0.166,0.909-0.288,1.351-0.444c0.466-0.164,1.013-0.397,1.102-0.917c0.036-0.21-0.014-0.472,0.046-0.671
		c0.077-0.256,0.392-0.468,0.573-0.648c0.249-0.248,0.433-0.421,0.755-0.576c0.404-0.194,0.813-0.306,1.231-0.457
		c0.323-0.117,0.81-0.04,1.155-0.066c0.384-0.03,0.907-0.142,1.229,0.073c0.173,0.115,0.296,0.284,0.482,0.393
		c0.286,0.167,0.551,0.329,0.785,0.579c0.11,0.002,0.345,0.174,0.419,0.249c0.165,0.168,0.147,0.42,0.455,0.45
		c0.413,0.041,0.349-0.445,0.493-0.681c0.223-0.363,0.68-0.134,0.991,0.009c0.498,0.23,1.079,0.134,1.578,0.341
		c0.214,0.089,0.23,0.128,0.457,0.068c0.185-0.049,0.176-0.031,0.343-0.012c0.245,0.027,0.347,0.011,0.589-0.067
		c0.205-0.065,0.548-0.222,0.755-0.083c0.142,0.095,0.208,0.447,0.293,0.598c0.137,0.242,0.278,0.446,0.533,0.557
		c0.293,0.126,0.605,0.131,0.891,0.231c0.159,0.056,0.18,0.146,0.246,0.306c0.102,0.248,0.199,0.492,0.34,0.72
		c0.09,0.146,0.147,0.268,0.286,0.36c0.126,0.084,0.28,0.088,0.407,0.167c0.163,0.102,0.371,0.325,0.432,0.511
		c0.091,0.276-0.12,0.502-0.06,0.752c0.112-0.039,0.308-0.108,0.33-0.218c0.315-0.032,0.69-0.142,1.023-0.16
		c0.337-0.019,0.573-0.102,0.763,0.199c0.137,0.217,0.223,0.34,0.432,0.494c0.193,0.143,0.305,0.338,0.514,0.452
		c0.212,0.116,0.38,0.244,0.537,0.424c0.099,0.115,0.187,0.31,0.315,0.395c0.184,0.122,0.405-0.057,0.621,0.001
		c0.232,0.063,0.547,0.303,0.747,0.437c0.275,0.185,0.504,0.443,0.769,0.647c0.261,0.201,0.51,0.277,0.816,0.378
		c0.156,0.051,0.329,0.065,0.471,0.144c0.111,0.061,0.18,0.154,0.311,0.189c0.375,0.102,0.772-0.034,1.149,0.114
		c0.357,0.139,0.708,0.38,1.089,0.452c0.336,0.064,0.573-0.097,0.869-0.201c0.214-0.075,0.624-0.223,0.84-0.119
		c0.164,0.078,0.23,0.306,0.383,0.396c0.162,0.095,0.482,0.065,0.666,0.07c0.497,0.013,0.766-0.431,1.081-0.759
		c0.187-0.195,0.328-0.412,0.586-0.522c0.337-0.144,0.742-0.219,1.102-0.279c0.463-0.079,0.918-0.205,1.392-0.132
		c0.291,0.045,0.408,0.174,0.613,0.369c0.197,0.189,0.421,0.25,0.644,0.397c0.234,0.153,0.387,0.277,0.662,0.362
		c0.364,0.113,0.223,0.254,0.411,0.517c0.129,0.18,0.446,0.06,0.54,0.24c0.329,0.015,0.509,0.439,0.589,0.727
		c0.065,0.232,0.118,0.44,0.304,0.618c0.124,0.118,0.271,0.227,0.402,0.338c0.162,0.138,0.206,0.248,0.306,0.445
		c0.288,0.57,0.848,0.954,1.274,1.414c0.601,0.649,1.321,1.183,2.007,1.738c0.23,0.186,0.418,0.42,0.643,0.614
		c0.08,0.069,0.397,0.399,0.492,0.4c0.062,0.001,0.22-0.178,0.299-0.205c0.19-0.066,0.46-0.01,0.657-0.014
		c0.527-0.011,1.051-0.034,1.577-0.067c0.435-0.028,0.715-0.028,1.095,0.208c0.341,0.212,0.764,0.388,1.153,0.476
		c0.365,0.083,0.664,0.243,1.014,0.369c0.445,0.16,0.934,0.174,1.399,0.136c0.685-0.056,1.306-0.239,1.975-0.377
		c0.462-0.095,0.728-0.335,1.069-0.654c0.368-0.346,0.477-0.906,0.761-1.322c0.519-0.759,1.473-0.853,2.313-0.997
		c0.797-0.136,1.664,0.022,2.472,0.024c0.232,0,0.5-0.036,0.728-0.001c0.224,0.034,0.377,0.173,0.581,0.263
		c0.408,0.18,0.723,0.382,0.982,0.748c0.099,0.14,0.188,0.311,0.314,0.434c0.151,0.147,0.323,0.201,0.519,0.296
		c0.541,0.263,1.052,0.516,1.314,1.065c0.268,0.563,0.48,0.974,0.477,1.602c-0.001,0.254,0.006,0.575-0.151,0.773
		c-0.193,0.243-0.339,0.347-0.371,0.69c-0.024,0.256,0.028,0.519-0.005,0.775c-0.029,0.228-0.148,0.419-0.186,0.642
		c-0.095,0.562,0.178,1.321,0.604,1.719c0.194,0.181,0.543,0.184,0.729,0.401c0.261,0.304,0.189,0.768,0.189,1.136
		c0,0.509-0.12,1.002-0.119,1.514c0.001,0.261-0.039,0.549,0.021,0.802c0.083,0.349,0.333,0.618,0.513,0.914
		c0.287,0.471,0.595,1.004,0.706,1.546c0.111,0.545,0.032,1.116,0.393,1.583c0.471,0.609,1.177,1.012,1.547,1.696
		c0.2,0.37,0.36,0.755,0.618,1.096c0.189,0.249,0.418,0.458,0.636,0.68c0.194,0.198,0.345,0.478,0.551,0.646
		c0.445,0.361,1.076,0.423,1.548,0.759c0.351,0.251,0.635,0.434,1.079,0.489c0.525,0.065,1.288,0.253,1.777,0.065
		c0.205-0.079,0.403-0.129,0.619-0.196c0.271-0.084,0.448-0.3,0.69-0.442c0.912-0.534,1.865-0.358,2.874-0.39
		c0.587-0.019,1.222-0.177,1.655-0.59c0.584-0.557,1.356-0.861,2.136-1.062c1.157-0.298,2.334-0.031,3.513-0.037
		c0.19-0.001,0.29-0.085,0.488-0.071c0.189,0.013,0.367,0.066,0.551,0.084c0.379,0.038,0.449-0.011,0.721,0.224
		c0.104,0.09,0.288,0.261,0.429,0.289c0.376,0.076,0.392-0.171,0.639-0.298c0.317-0.164,0.586,0.015,0.723,0.265
		c0.176,0.323,0.34,0.404,0.741,0.41c0.294,0.005,0.505,0.092,0.554,0.425c0.308,0.015,0.68-0.062,0.97,0.091
		c0.211,0.112,0.203,0.333,0.384,0.472c0.16,0.123,0.439,0.187,0.613,0.283c0.21,0.116,0.499,0.201,0.649-0.059
		c0.132-0.229-0.032-0.528,0.04-0.762c0.092-0.297,0.462-0.421,0.677-0.618c0.24-0.22,0.423-0.472,0.729-0.615
		c0.127-0.059,0.218-0.072,0.32-0.15c0.138-0.106,0.209-0.262,0.365-0.351c0.258-0.148,0.545-0.055,0.739-0.279
		c0.092-0.106,0.098-0.229,0.214-0.304c0.113-0.073,0.278-0.053,0.403-0.081c0.244-0.054,0.444-0.114,0.626-0.297
		c0.212-0.212,0.284-0.649,0.63-0.702c0.179-0.028,0.681,0.157,0.798,0.283c0.281,0.304-0.127,0.782-0.319,1.04
		c-0.358,0.483-0.69,1.023-0.971,1.555c-0.067,0.126-0.12,0.259-0.195,0.38c-0.057,0.093-0.337,0.353-0.319,0.488
		c0.042,0.312,0.857,0.348,1.062,0.364c0.167,0.013,0.415,0.062,0.583,0.021c0.223-0.053,0.291-0.218,0.469-0.368
		c0.477-0.402,1.119-0.16,1.693-0.178c0.533-0.016,1.084-0.119,1.617-0.096c0.127,0.28-0.06,0.599-0.164,0.86
		c-0.171,0.43-0.469,0.836-0.767,1.188c-0.251,0.297-0.565,0.48-0.843,0.74c-0.295,0.276-0.589,0.52-0.895,0.766
		c-0.541,0.435-0.369,1.232-0.56,1.857c-0.093,0.303-0.238,0.594-0.418,0.857c-0.121,0.177-0.13,0.233-0.371,0.298
		c-0.368,0.1-0.801,0.074-1.18,0.096c-0.481,0.027-0.966,0.013-1.448,0.013c-0.159,0-0.473,0.051-0.63,0.003
		c-0.088-0.027-0.231-0.159-0.335-0.205c-0.313-0.137-0.548-0.299-0.831-0.488c-0.265-0.178-0.319-0.179-0.643-0.147
		c-0.554,0.055-1.106,0.118-1.662,0.145c-0.402,0.019-0.677-0.083-1.058-0.137c-0.251-0.035-0.536-0.001-0.791-0.001
		c-0.118,0-0.34-0.048-0.451-0.003c-0.161,0.065-0.147,0.333-0.323,0.416c-0.189,0.088-0.361-0.03-0.511-0.146
		c-0.234-0.18-0.129-0.179-0.421-0.1c-0.296,0.08-0.453,0.082-0.672-0.104c-0.258-0.219-0.392-0.273-0.73-0.333
		c-0.696-0.124-1.375-0.342-2.08-0.408c-0.355-0.033-0.553-0.085-0.839-0.218c-0.147-0.068-0.271-0.053-0.447-0.055
		c-0.163,0.006-0.237-0.037-0.392-0.06c-0.441-0.068-0.897,0.058-1.342,0.01c-0.727-0.079-1.569-0.062-2.248-0.372
		c-0.434-0.199-1.194-0.557-1.499,0.016c-0.159,0.3-0.109,0.596-0.124,0.919c-0.019,0.416-0.055,0.816-0.139,1.22
		c-0.065,0.312-0.071,0.636-0.14,0.939c-0.094,0.416-0.228,0.859-0.351,1.267c-0.082,0.272-0.275,0.45-0.085,0.706
		c0.066,0.09,0.193,0.134,0.247,0.236c0.044,0.084,0.062,0.235,0.104,0.336c0.124,0.3,0.214,0.543,0.199,0.877
		c-0.017,0.389-0.072,0.6,0.301,0.815c0.299,0.173,0.737,0.476,1.056,0.28c0.156-0.096,0.24-0.214,0.419-0.256
		c0.283-0.067,0.449,0.021,0.713-0.114c0.233-0.119,0.405-0.245,0.677-0.22c0.271,0.026,0.521,0.174,0.784,0.243
		c0.512,0.135,1.299,0.231,1.835,0.112c0.205-0.046,0.441-0.257,0.665-0.236c0.248,0.023,0.195,0.165,0.324,0.321
		c0.351,0.424,1.101-0.062,1.562-0.031c0.128,0.173,0.302,0.434,0.497,0.541c0.327,0.178,0.613,0.044,0.667-0.292
		c0.033-0.204,0.07-0.464,0.069-0.671c-0.001-0.274-0.086-0.196-0.33-0.296c-0.001-0.031-0.002-0.056,0.002-0.085
		c0.663-0.056,1.238-0.292,1.884-0.15c0.259,0.057,0.439,0.199,0.686,0.303c0.269,0.113,0.599,0.211,0.753,0.487
		c0.175,0.314,0.032,0.731,0.142,1.076c0.144,0.449,0.377,0.601,0.883,0.68c0.317,0.05,0.609,0.125,0.911,0.243
		c0.165,0.065,0.281,0.211,0.47,0.255c0.236,0.054,0.358-0.048,0.592-0.111c0.221-0.06,0.763-0.125,0.98-0.011
		c0.087,0.046,0.157,0.226,0.233,0.295c0.323,0.301,0.716,0.274,1.109,0.444c0.35,0.151,0.623,0.454,0.903,0.713
		c0.139,0.129,0.201,0.233,0.361,0.229c0.198-0.005,0.551-0.34,0.749-0.438c0.426-0.21,0.816-0.14,1.233,0.076
		c0.248,0.128,0.518,0.33,0.727,0.517c0.244,0.218,0.205,0.194,0.545,0.132c0.651-0.12,1.122-0.016,1.704,0.228
		c0.426,0.179,1.163,0.39,1.215-0.271c0.017-0.216,0.057-0.653-0.034-0.851c-0.08-0.174-0.275-0.231-0.348-0.416
		c-0.098-0.247-0.028-0.444,0.235-0.461c0.317-0.021,0.537,0.263,0.694,0.491c0.303,0.44,0.321,0.879,0.868,1.138
		c0.195,0.092,0.355,0.15,0.526,0.298c0.247,0.213,0.473,0.318,0.746,0.489c0.21,0.131,0.344,0.304,0.524,0.481
		c0.244,0.241,0.397,0.268,0.743,0.278c0.609,0.017,1.212-0.096,1.824-0.063c0.248,0.013,0.314,0.038,0.512-0.093
		c0.108-0.072,0.498-0.331,0.552-0.455c0.094-0.219-0.326-0.405-0.379-0.586c-0.07-0.24,0.056-0.339,0.288-0.436
		c0.282-0.117,0.628-0.101,0.931-0.098c0.157,0.001,0.42,0.048,0.566-0.037c0.299-0.174,0.156-0.592,0.622-0.654
		c0.266-0.035,0.388,0.173,0.61,0.195c0.116,0.011,0.186-0.074,0.29-0.108c0.211-0.069,0.432-0.039,0.652-0.023
		c0.384,0.027,0.734,0.132,1.1,0.239c0.571,0.167,1.194,0.545,1.662,0.928c0.23,0.188,0.5,0.322,0.728,0.51
		c0.276,0.227,0.277,0.236,0.629,0.206c0.081-0.007,0.37-0.041,0.43,0.021C169.05,90.095,168.684,90.339,168.574,90.356z"/>
</g>
</svg>
