<?xml version="1.0" encoding="utf-8"?>
<!-- Generator: Adobe Illustrator 26.0.3, SVG Export Plug-In . SVG Version: 6.00 Build 0)  -->
<svg version="1.1" xmlns="http://www.w3.org/2000/svg" xmlns:xlink="http://www.w3.org/1999/xlink" x="0px" y="0px"
	 viewBox="0 0 200 200" enable-background="new 0 0 200 200" xml:space="preserve">
<g id="Layer_1">
	<g id="Layer_1_00000061442898653323928190000005571608892069918396_">
		<g id="Layer_1_00000098929087308412571940000004538787532203942811_">
		</g>
	</g>
</g>
<g id="Isolation_Mode">
	<path fill="#1E8346" d="M192.596,103.867c-0.893-0.819-2.01-1.568-3.011-2.235c-1.389-0.925-2.738-2.032-4.271-2.728
		c-1.141-0.518-2.133-0.901-3.056-1.789c-0.57-0.548-1.119-1.16-1.723-1.671c-0.708-0.598-1.439-1.287-2.182-1.813
		c-0.505-0.358-0.948-0.653-1.553-0.782c-0.493-0.105-1.017-0.216-1.463-0.46c-0.66,0.747,0.052,1.626,0.766,1.939
		c0.502,0.22,0.805,0.162,1.203,0.536c0.36,0.338,0.661,0.74,0.936,1.142c0.275,0.403,0.373,0.582,0.841,0.749
		c0.491,0.176,0.585,0.174,0.919,0.581c0.25,0.305,0.833,0.6,0.584,1.055c-0.802,0.024-2.089-0.489-2.732-0.255
		c-0.917,0.334-0.569,1.412-0.499,2.12c0.071,0.717,0.088,1.25-0.317,1.869c-0.146,0.224-0.389,0.633-0.624,0.775
		c-0.281,0.17-0.422,0.146-0.757,0.249c-0.019,0.497,0.3,0.635,0.427,1.103c-0.346,0.482-0.947,0.825-1.519,0.411
		c-0.677-0.49,0.178-0.734,0.298-1.316c0.144-0.695-0.529-1.215-1.03-1.569c-0.875-0.619-1.9-0.965-2.717-1.68
		c-1.255-1.098-2.75-2.515-4.432-3.028c-0.493-0.15-1.136-0.169-1.64-0.076c-0.335,0.062-0.849,0.397-1.186,0.341
		c-0.251-0.041-0.604-0.436-0.774-0.628c-0.28-0.319-0.457-0.764-0.819-1.001c-0.303,0.546-0.556,0.521-1.167,0.541
		c-0.717,0.023-1.287,0.102-1.876-0.381c-0.239-0.196-0.302-0.335-0.616-0.337c-0.331-0.002-0.616,0.344-0.904,0.268
		c-0.364-0.096-0.122-0.525-0.254-0.793c-0.22-0.034-0.476-0.115-0.695-0.111c-0.303,0.005-0.374,0.216-0.626,0.384
		c-0.053-0.07-0.145-0.096-0.2-0.154c-0.037,0.088-0.182,0.367-0.288,0.4c-0.15,0.046-0.307-0.119-0.442-0.153
		c-0.394,0.664-0.833-0.313-1.272-0.399c-0.266-0.052-0.487,0.093-0.625,0.281c-0.215,0.292-0.23,0.379-0.633,0.231
		c-0.141-0.052-0.261-0.146-0.403-0.193c-0.429,1.113-1.45-0.06-2.101-0.185c-0.162,0.256-0.71,0.475-0.948,0.637
		c-0.338,0.23-0.627,0.452-1.062,0.452l3.385-54.629V6.272H69.38v26.39H49.362c0.028,0.289,0.112,0.586,0.153,0.878
		c0.033,0.234,0.047,0.46,0.214,0.647c0.342,0.381,0.999,0.636,1.494,0.652c0.556,0.018,1.294,0.014,1.673,0.499
		c0.294,0.375,0.292,0.818,0.318,1.269c0.028,0.491,0.272,0.577,0.5,0.162c0.135-0.247,0.249-0.603,0.513-0.683
		c0.211-0.064,0.545,0.002,0.77,0.002c0.44,0,1.012-0.062,1.447,0.026c0.345,0.07,0.735,0.533,0.657,0.87
		c-0.067,0.29-0.379,0.495-0.412,0.796c-0.032,0.292,0.159,0.579,0.16,0.883c0.001,0.321-0.04,0.591,0.244,0.776
		c0.29,0.189,0.68,0.163,1.004,0.258c0.739,0.218,1.011,1.197,1.156,1.874c0.064,0.3,0.061,0.442,0.329,0.644
		c0.467,0.354,0.893,0.633,1.274,1.086c0.23,0.274,0.533,0.557,0.89,0.639c0.494,0.114,1.038,0.125,1.544,0.224
		c0.149,0.419,0.192,0.8,0.23,1.24c0.418,0.065,0.654,0.489,0.948,0.746c0.441,0.386,1.071,0.674,1.301,1.219
		c0.086,0.205,0.271,0.458,0.268,0.684c-0.002,0.142-0.11,0.262-0.109,0.409c0.001,0.269,0.173,0.423,0.405,0.561
		c0.489,0.29,1.085,0.348,1.632,0.45c0.786,0.148,1.036,0.756,1.47,1.328c0.019-0.492-0.161-0.984-0.135-1.492
		c0.048-0.921,1.26-0.362,1.521,0.213c0.122,0.268,0.045,0.676-0.177,0.871c-0.123,0.107-0.514,0.102-0.499,0.292
		c0.018,0.218,0.367,0.137,0.501,0.137c0.608,0,1.035-0.016,1.306,0.607c0.166,0.381,0.098,0.846,0.515,1.063
		c0.467,0.243,1.033,0.012,1.534,0.093c0.46,0.074,0.793,0.449,1.09,0.781c0.275,0.307,0.351,0.405,0.805,0.403
		c0.625-0.003,1.225,0.064,1.848,0.086c-0.005,0.384-0.096,0.762,0.262,0.963c0.174,0.098,0.357,0.191,0.535,0.284
		c0.273,0.145,0.577,0.133,0.855,0.253c0.354,0.153,0.463,0.607,0.76,0.845c0.333,0.267,0.676,0.709,1.092,0.808
		c0.654,0.155,0.5,0.544,0.706,1.051c0.138,0.338,0.528,0.494,0.801,0.714c0.374,0.303,0.515,0.53,0.54,0.994
		c0.017,0.331,0.095,0.728,0.288,1.007c0.234,0.337,0.51,0.366,0.532,0.818c0.018,0.364-0.049,0.633,0.132,0.935
		c0.143,0.238,0.257,0.482,0.029,0.722c-0.204,0.214-0.677,0.227-0.386,0.609c0.47,0.615,0.743-0.223,1.053-0.435
		c0.107,0.076,0.255,0.263,0.341,0.354c0.155,0.165,0.104,0.262,0,0.421c-0.189,0.289-0.516,0.428-0.673,0.773
		c-0.23,0.506-0.273,1.484-0.137,2.015c0.477,0.052,0.909-0.343,1.348-0.19c0.45,0.158,0.715,0.713,0.332,1.096
		c-0.096,0.097-1.114,0.318-0.826,0.686c0.073,0.093,0.375,0.037,0.496,0.032c0.362-0.014,0.637-0.159,0.978-0.244
		c0.182,0.269,0.256,0.486,0.555,0.535c0.379,0.063,0.758-0.118,1.128-0.135c0.522-0.025,0.707,0.17,1.111,0.467
		c0.422,0.312,0.611,0.199,1.058,0.09c0.392-0.096,0.555-0.041,0.813,0.235c0.22,0.235,0.255,0.086,0.45,0.19
		c0.455,0.243,0.059,0.805,0.083,1.176c0.059,0.902,2.188-0.16,2.736,0.257c0.244,0.185,0.235,0.707,0.605,0.746
		c0.258,0.028,0.354-0.329,0.616-0.321c0.231,0.007,0.399,0.248,0.301,0.467c-0.102,0.229-0.366,0.329-0.433,0.65
		c-0.062,0.299,0.27,0.433,0.504,0.557c0.202,0.106,0.452,0.149,0.539,0.367c0.07,0.177,0.03,0.485-0.146,0.568
		c-0.196-0.145-0.613-0.668-0.894-0.632c-0.232,0.03-0.385,0.362-0.347,0.592c0.037,0.227,0.207,0.381,0.391,0.508
		c0.292,0.201,0.433,0.222,0.3,0.632c-0.392-0.155-0.554,0.178-0.954,0.173c-0.021,0.51,0.066,1.112-0.546,1.165
		c-0.254,0.022-0.437-0.034-0.514,0.257c-0.051,0.191,0.051,0.357-0.033,0.538c-0.111,0.239-0.266,0.285-0.158,0.623
		c0.069,0.214,0.213,0.302,0.362,0.455c0.283,0.29,0.307,0.708-0.2,0.499c-0.387-0.161-0.83-0.146-0.8,0.43
		c0.019,0.366,0.295,0.291,0.548,0.387c0.231,0.088,0.415,0.32,0.197,0.523c-0.165,0.154-0.446,0.091-0.62,0.231
		c-0.401,0.323-0.335,1.07-0.335,1.526c0.367,0.426,1.473,0.841,0.996,1.58c-0.13,0.202-0.453,0.293-0.467,0.583
		c-0.014,0.297,0.308,0.531,0.459,0.755c0.186,0.277,0.367,0.618,0.281,0.965c-0.06,0.243-0.292,0.432-0.382,0.665
		c-0.065,0.168-0.068,1.252-0.365,1.054H36.15l-21.249,37.541l6.487,8.726c-0.027,0.274-0.341,0.352-0.425,0.615
		c-0.081,0.253-0.091,0.546-0.178,0.81c-0.185,0.558-0.517,1.065-1.052,1.336c-0.608,0.308-1.264,0.342-1.715,0.877
		c-0.168,0.2-0.298,0.367-0.312,0.652c-0.026,0.516,0.33,0.362,0.469,0.743c-0.234,0.171-0.561,0.539-0.609,0.843
		c-0.091,0.578,0.411,1.29,0.496,1.847c0.086,0.559-0.157,1.198-0.572,1.55c-0.406,0.343-1.071,0.593-1.368,1.037
		c-0.245,0.366-0.181,1.055-0.142,1.462c0.052,0.54,0.316,1.024,0.626,1.459c0.193,0.27,0.48,0.482,0.297,0.867
		c-0.145,0.305-0.484,0.337-0.358,0.768c0.113,0.385,0.54,0.611,0.775,0.916c0.247,0.321,0.282,0.621,0.281,1.025
		c-0.002,0.331-0.08,1.001,0.142,1.255c-0.273,0.916-0.816,1.624-1.368,2.397c-0.358,0.501,0.02,1.197-0.133,1.797
		c-0.124,0.486-0.522,0.783-0.889,1.077c-0.283,0.225-0.639,0.534-0.796,0.862c-0.221,0.463-0.165,0.547-0.684,0.537
		c0.109,0.269,0.48,0.557,0.737,0.685c0.932,0.465,1.753,1.169,2.573,1.805c0.988,0.767,2.018,1.457,2.983,2.239
		c0.993,0.804,2.002,1.618,2.936,2.485c0.804,0.747,1.421,1.693,2.361,2.278c2.163,1.347,3.904,3.094,5.927,4.613
		c1.004,0.753,1.746,1.377,2.879,1.963c0.988,0.512,1.743,1.218,2.743,1.712c1.887,0.932,3.468,2.11,5.209,3.401
		c1.368,1.014,3.079,1.37,4.556,2.222c1.058,0.61,2.178,1.181,3.268,1.751c2.326,1.217,4.984,1.776,7.51,2.412
		c1.319,0.332,2.65,0.619,3.975,0.922c1.019,0.233,2.109,0.191,3.154,0.257c2.279,0.144,4.703,0.252,6.985,0.084
		c1.805-0.133,3.641-0.183,5.432-0.504c0.722-0.129,1.347-0.271,2.078-0.307c0.876-0.043,1.657,0.155,2.514,0.228
		c1.303,0.112,2.631,0.071,3.924,0.239c1.202,0.157,2.365,0.551,3.534,0.871c1.122,0.307,2.357,0.332,3.434,0.77
		c0.997,0.405,1.752,1.011,2.838,1.01c0.712,0.22,1.363,0.571,2.033,0.89c0.829,0.393,1.703,0.693,2.554,1.034
		c1.031,0.413,2.034,0.915,3.051,1.358c0.901,0.392,1.801,0.75,2.676,1.201c0.615,0.317,1.251,0.775,1.915,0.97
		c0.085-0.366,0.605-0.223,0.834-0.12c0.43,0.193,0.516,0.03,0.875-0.251c-0.049-0.125-0.153-0.167-0.194-0.286
		c-0.071-0.21,0.01-0.413-0.09-0.626c-0.167-0.357-0.344-0.185-0.542-0.38c-0.495-0.484,0.308-1.24,0.35-1.738
		c0.021-0.249-0.249-0.446-0.183-0.672c0.048-0.163,0.348-0.314,0.449-0.453c0.33-0.456,0.521-1.053,0.754-1.566
		c0.337-0.005,0.408-0.188,0.557-0.425c0.232-0.371,0.697-0.309,1.076-0.5c0.47-0.237,0.196-0.512,0.412-0.867
		c0.087-0.142,0.258-0.177,0.345-0.31c0.109-0.165,0.085-0.365,0.167-0.539c0.296-0.626,0.905-0.926,1.467-1.234
		c0.274-0.15,0.617-0.086,0.899-0.21c0.195-0.086,0.336-0.275,0.504-0.402c0.302-0.227,0.701-0.387,0.938-0.697
		c0.211-0.276,0.207-0.591,0.542-0.797c0.23-0.141,0.565-0.171,0.767-0.375c0.134-0.134,0.107-0.192,0.122-0.378
		c0.042-0.529,0.389-0.799,0.913-0.826c0.555-0.028,0.917,0.009,1.234-0.462c0.206-0.307,0.371-0.337,0.733-0.373
		c0.369-0.036,0.709-0.136,1.082-0.088c0.574,0.074,0.879,0.459,1.342,0.743c0.374,0.231,0.709,0.482,1.153,0.46
		c0.397-0.019,0.775-0.07,1.166,0c-0.075-0.366-0.403-0.648-0.452-1.037c-0.047-0.374,0.102-0.743,0.221-1.087
		c0.256-0.745,0.34-1.693,0.813-2.344c0.444-0.611,1.035-1.195,1.653-1.626c0.49-0.342,0.786-0.849,1.309-1.154
		c0.362-0.211,0.827-0.478,1.202-0.685c0.475-0.262,1.262-0.017,1.785,0c0.322,0.01,0.687,0.084,1-0.026
		c0.235-0.083,0.244-0.201,0.391-0.383c0.271-0.335,0.567-0.294,0.944-0.281c0.16,0.006,0.469,0.05,0.605-0.04
		c0.144-0.095,0.185-0.387,0.068-0.551c-0.114-0.159-0.338-0.076-0.486-0.232c-0.198-0.208-0.22-0.576-0.399-0.802
		c-0.253-0.32-0.666-0.547-1.028-0.705c-0.296-0.129-0.701-0.317-0.528-0.694c0.251-0.545,0.843-0.33,1.26-0.514
		c0.041-0.368-0.215-0.763-0.526-0.937c-0.449-0.25-0.866,0.014-1.316,0.091c0.039-0.466-0.112-1.294,0.439-1.406
		c0.207-0.043,0.648,0.03,0.68-0.293c0.015-0.153-0.25-0.332-0.339-0.467c-0.206-0.314-0.506-0.965-0.375-1.362
		c0.056-0.171,0.208-0.258,0.239-0.446c0.011-0.069-0.002-0.148,0-0.218c0.009-0.447,0.178-0.423,0.585-0.425
		c0.275-0.001,0.578,0.161,0.849,0.106c0.943-0.191-0.224,1.813,0.977,1.41c0.433-0.145,0.337-0.834,0.59-1.174
		c0.234-0.315,0.618-0.533,0.988-0.647c0.604-0.185,0.918,0.069,1.425,0.284c0.469,0.2,1.035,0.088,1.495-0.138
		c0.473-0.231,0.37-0.759,0.692-1.09c0.143-0.147,0.438-0.245,0.654-0.078c0.171,0.131,0.043,0.317,0.201,0.493
		c0.35-0.06,0.666,0.057,0.965,0.229c0.176,0.101,0.252,0.216,0.465,0.114c0.295-0.141,0.208-0.602,0.095-0.849
		c-0.13-0.286-0.444-0.613-0.224-0.958c0.157-0.247,0.621-0.383,0.876-0.514c0.161-0.083,0.326-0.146,0.486-0.228
		c0.274-0.139,0.659-0.343,0.797-0.628c0.153-0.317,0.118-0.647,0.414-0.9c0.254-0.217,0.429-0.257,0.608-0.556
		c0.176-0.294,0.342-0.458,0.579-0.693c0.348-0.346,0.407-0.958,0.821-1.246c0.04,0.03,0.083,0.048,0.131,0.056
		c0.192-0.367,0.716-0.587,1.109-0.615c0.643-0.046,1.452-0.044,2.076,0.15c0.434,0.135,0.993,0.307,1.273-0.175
		c0.172-0.297,0.144-0.76,0.11-1.096c-0.016-0.166-0.155-0.356-0.147-0.508c0.009-0.185,0.123-0.17,0.203-0.315
		c0.097-0.177,0.05-0.479,0.051-0.697c0-0.598-0.234-1.204-0.186-1.797c0.054-0.661,0.668-0.961,0.965-1.49
		c-0.223-0.12-0.415-0.409-0.628-0.569c-0.196-0.148-0.417-0.289-0.644-0.399c-0.242-0.117-0.296-0.121-0.331-0.379
		c-0.03-0.221-0.044-0.473-0.053-0.691c-0.016-0.375,0.093-0.819-0.131-1.138c-0.219-0.311-0.552-0.588-0.803-0.867
		c-0.191-0.212-0.318-0.349-0.444-0.584c-0.121-0.228-0.401-0.525-0.693-0.54c-0.04-0.18-0.091-0.264-0.232-0.353
		c-0.117-0.074-0.176-0.051-0.228-0.166c-0.078-0.174-0.011-0.482-0.018-0.67c-0.018-0.507-0.237-1.148-0.066-1.64
		c0.158-0.454,0.75-0.795,1.186-0.887c0.122-0.026,0.353-0.037,0.455-0.109c0.093-0.065,0.151-0.258,0.201-0.353
		c0.153-0.294,0.343-0.578,0.488-0.878c0.084-0.174,0.074-0.366,0.163-0.536c0.071-0.137,0.165-0.241,0.209-0.397
		c0.067-0.235,0.096-0.479,0.16-0.717c0.051-0.191,0.179-0.347,0.23-0.541l-1.208-1.128l0.611-1.062l-0.186-0.465l0.903-0.73
		l0.04-0.836l8.071-3.159l5.708-4.885l7.513-4.646l3.558-3.504c0.39-0.13,0.82-0.071,1.153-0.36c0.223-0.193,0.36-0.453,0.506-0.703
		l9.784-8.336c0.235-0.211,0.346-0.671,0.453-0.959c0.164-0.443,0.173-0.837,0.185-1.306c0.27,0.039,0.444-0.275,0.703-0.331
		c0.157,0.25,0.631,0.369,0.894,0.231c0.17-0.089,0.27-0.325,0.342-0.496c0.092-0.22,0.061-0.377,0.337-0.394
		c0.34-0.02,0.627,0.332,0.972,0.094c0.191-0.132,0.541-0.711,0.477-0.934c-0.062-0.215-0.336-0.232-0.209-0.483
		C191.956,103.731,192.366,103.867,192.596,103.867z"/>
</g>
</svg>
