<?xml version="1.0" encoding="utf-8"?>
<!-- Generator: Adobe Illustrator 26.0.3, SVG Export Plug-In . SVG Version: 6.00 Build 0)  -->
<svg version="1.1" id="Isolation_Mode" xmlns="http://www.w3.org/2000/svg" xmlns:xlink="http://www.w3.org/1999/xlink" x="0px"
	 y="0px" viewBox="0 0 200 200" enable-background="new 0 0 200 200" xml:space="preserve">
<path fill="#1E8346" d="M192.998,177.917c-0.071-0.149-0.246-0.254-0.374-0.341c-0.178-0.122-0.355-0.253-0.533-0.386
	c-0.316-0.236-0.425-0.395-0.504-0.789c-0.048-0.235-0.157-0.508-0.391-0.622c-0.163-0.08-0.357-0.058-0.514,0.022
	c0.029-0.015-0.191,0.159-0.217,0.16c-0.33,0.012-0.791-0.643-0.97-0.844c-0.299-0.336-0.578-0.547-0.934-0.821
	c-0.14-0.107-0.209-0.28-0.346-0.404c-0.258-0.233-0.869-0.381-1.207-0.504c-0.362-0.132-0.511-0.181-0.765-0.461
	c-0.305-0.337-0.315-0.722-0.472-1.098c-0.938-0.645-1.526-1.544-2.025-2.56c-0.269-0.546-0.638-1.044-1.194-1.409
	c-0.561-0.368-1.432-0.487-2.111-0.62c-0.536-0.105-1.091,0.01-1.622-0.103c-0.539-0.114-0.777-0.543-1.197-0.92
	c-0.377-0.339-0.855-0.66-1.193-1.035c-0.328-0.363-0.553-0.799-0.906-1.154c-0.236-0.237-0.513-0.457-0.687-0.746
	c-0.173-0.287-0.258-0.65-0.347-0.962c-0.214-0.744-0.57-1.529-0.906-2.23c-0.281-0.586-0.898-1.068-1.128-1.639
	c-0.14-0.348-0.064-0.937-0.08-1.31c-0.022-0.528,0.007-1.164-0.237-1.642c-0.184-0.361-0.458-0.661-0.612-1.045
	c-0.233-0.579,0.032-0.916,0.131-1.533c0.086-0.537,0.047-1.126,0.082-1.671c0.045-0.692,0.125-1.354-0.284-1.931
	c-0.285-0.403-0.324-0.288-0.151-0.729c0.122-0.312,0.108-0.509,0.076-0.851c-0.059-0.64-0.319-2.058,0.812-1.668
	c0.345,0.119,0.458,0.58,0.862,0.684c0.279,0.072,0.656,0.063,0.949,0.107c0.403,0.06,0.611-0.042,0.951-0.189
	c0.144-0.062,0.323-0.215,0.518-0.157c0.157,0.046,0.236,0.234,0.406,0.274c-0.181-0.384-0.681-1.111-1.055-1.309
	c-0.5-0.265-1.13-0.134-1.655-0.397c0.128-0.157,0.371-0.261,0.33-0.501c-0.051-0.3-0.544-0.392-0.765-0.578
	c-0.36-0.301-0.701-0.886-1.253-0.915c-0.313-0.265-0.593-0.626-0.814-0.971c-0.258-0.404-0.295-0.917-0.54-1.33
	c-0.134-0.227-0.369-0.397-0.564-0.569c-0.152-0.133-0.325-0.247-0.436-0.418c-0.106-0.164-0.119-0.401-0.227-0.555
	c-0.225-0.323-0.756-0.362-1.075-0.561c-0.152-0.095-0.283-0.315-0.424-0.439c-0.208-0.182-0.423-0.356-0.595-0.574
	c-0.278-0.353-0.826-1.066-0.6-1.555c0.144-0.312,0.426-0.275,0.157-0.595c-0.147-0.176-0.469-0.358-0.545-0.583
	c-0.222-0.108-0.296-0.919-0.298-1.166c-0.003-0.313,0.035-1.021-0.269-1.133c-0.201-0.074-0.405-0.358-0.53-0.522
	c-0.193-0.254-0.541-0.549-0.629-0.845c-0.098-0.332-0.077-0.702-0.27-1.029c-0.197-0.337-0.665-0.383-0.653-0.856
	c0.009-0.369,0.172-0.504-0.031-0.807c-0.178-0.266-0.398-0.368-0.515-0.663c-0.269-0.677-0.404-1.397-0.752-2.049
	c-0.124-0.232-0.275-0.445-0.414-0.664c-0.192-0.304-0.257-0.675-0.443-0.97c-0.25-0.397-0.634-0.606-0.808-1.077
	c-0.19-0.512-0.289-0.937-0.566-1.412c-0.255-0.438-0.344-0.89-0.627-1.314c-0.088-0.132-0.218-0.235-0.293-0.368
	c-0.215-0.381-0.015-0.848-0.152-1.232c-0.164-0.46-0.632-0.84-0.841-1.3c-0.118-0.261-0.091-0.571-0.206-0.824
	c-0.147-0.324-0.431-0.603-0.659-0.868c-0.409-0.475-0.965-0.817-1.313-1.33c-0.163-0.241-0.349-0.526-0.391-0.796
	c-0.032-0.202,0.043-0.412-0.026-0.609c-0.158-0.45-0.61-0.908-0.864-1.315c-0.61-0.983-1.036-2.089-1.689-3.025
	c-0.323-0.463-0.426-1.027-0.644-1.54c-0.137-0.322-0.245-0.568-0.334-0.889c-0.144-0.518-0.502-1.064-0.788-1.507
	c-0.24-0.372-0.769-0.837-0.689-1.327c-0.104-0.144-0.115-0.312-0.182-0.471c-0.096-0.225-0.235-0.452-0.358-0.664
	c-0.189-0.328-0.385-0.641-0.528-0.991c-0.104-0.254-0.25-0.295-0.459-0.464c-0.237-0.191-0.476-0.545-0.593-0.812
	c-0.084-0.193-0.076-0.379-0.069-0.597c0.02-0.576,0.25-1.03,0.399-1.579c-0.314-0.126-0.447-0.576-0.24-0.831
	c0.141-0.172,0.307-0.103,0.453-0.199c0.138-0.09,0.089-0.292,0.064-0.458c-0.591-0.425-0.773-0.806-0.975-1.478
	c-0.117-0.39-0.615-1.079-0.534-1.468c0.058,0.032,0.151,0.04,0.205,0.074c0.105-0.372-0.504-0.609-0.764-0.765
	c-0.556-0.332-0.331-0.474-0.238-0.989c0.127-0.702,0.103-1.688-0.519-2.091c-0.314-0.204-0.49-0.232-0.738-0.525
	c-0.137-0.162-0.152-0.238-0.342-0.345c-0.161-0.09-0.509-0.036-0.635-0.163c-0.224-0.225-0.099-0.712-0.155-1.007
	c-0.066-0.348-0.154-0.534-0.373-0.786c-0.186-0.214-0.371-0.351-0.465-0.606c-0.169-0.459-0.175-0.726-0.682-0.937
	c-0.12-0.05-0.373-0.083-0.437-0.173c-0.059-0.082-0.019-0.371-0.011-0.466c0.016-0.182,0.095-0.349,0.031-0.526
	c-0.041-0.112-0.135-0.212-0.186-0.318c-0.065-0.135-0.072-0.284-0.11-0.425c-0.016-0.059-0.069-0.128-0.078-0.177
	c-0.017-0.092,0.014-0.291,0.091-0.347c0.119-0.088,0.353,0.027,0.409-0.168c-0.083-0.049-0.169-0.128-0.224-0.206
	c-0.048-0.068-0.066-0.144-0.096-0.221c-0.027-0.068-0.119-0.183-0.127-0.249c-0.028-0.219,0.252-0.303,0.289-0.519
	c-0.056-0.018-0.088-0.069-0.143-0.087c-0.046-0.014-0.106,0.008-0.154,0c-0.127-0.023-0.289-0.127-0.393-0.206
	c-0.151-0.114-0.249-0.275-0.38-0.407c-0.057-0.057-0.117-0.106-0.164-0.174c-0.126-0.183-0.153-0.268-0.081-0.433
	c0.078-0.178,0.143-0.276,0.318-0.287c0.131-0.008,0.281,0.042,0.401,0.092c0.173,0.072,0.288,0.144,0.448,0.236
	c0.095,0.054,0.207,0.103,0.288,0.176c0.068,0.062,0.112,0.149,0.208,0.197c0.095-0.282,0.059-0.557,0.103-0.85
	c-0.122-0.162-0.243-0.326-0.377-0.482c-0.258-0.299-0.413-0.631-0.592-0.98c-0.195-0.379-0.382-0.698-0.636-1.04
	c-0.216-0.292-0.582-0.479-0.769-0.798c-0.409-0.126-0.927-0.053-1.28-0.349c-0.231-0.194-0.15-0.59-0.386-0.77
	c-0.092-0.07-0.199-0.058-0.295-0.155c-0.08-0.08-0.136-0.178-0.199-0.27c-0.081-0.12-0.173-0.222-0.306-0.292
	c-0.089-0.047-0.188-0.044-0.268-0.119c-0.148-0.138-0.109-0.359-0.223-0.522c-0.152-0.217-0.339-0.415-0.512-0.615
	c-0.15-0.173-0.257-0.369-0.398-0.549c-0.203-0.26-0.468-0.461-0.678-0.715c-0.197-0.237-0.276-0.491-0.336-0.797
	c-0.031-0.157-0.01-0.441-0.153-0.559c-0.349-0.289-0.619-0.554-0.846-0.995c-0.272-0.53-0.621-1.308-1.075-1.691
	c-0.677-0.57-1.49-1.031-1.931-1.812c-0.294-0.52-0.344-1.237-0.436-1.807c-0.071-0.438-0.073-0.985-0.42-1.257
	c-0.298-0.233-0.65-0.263-0.892-0.563c-0.098-0.122-0.136-0.279-0.224-0.398c-0.15-0.205-0.388-0.351-0.571-0.549
	c-0.283-0.306-0.288-0.673-0.527-1.002c-0.289-0.396-0.402-0.619-0.395-1.143c0.005-0.323,0.047-0.696,0.12-1.008
	c0.047-0.2,0.002-0.193,0.127-0.354c0.066-0.084,0.306-0.156,0.344-0.25c0.135-0.336-0.364-0.946-0.444-1.221
	c-0.108-0.371-0.114-0.805-0.235-1.195c-0.263-0.85-0.605-1.889-1.047-2.668c-0.427-0.753-1.064-1.48-1.751-2.011
	c-0.623-0.481-1.346-0.771-1.348-1.639c-0.122-0.128,0.01-0.24,0.104-0.335c0.187-0.188,0.14-0.425,0.122-0.686
	c-0.018-0.263-0.07-0.416,0.034-0.65c0.094-0.21,0.11-0.403,0.269-0.579c0.216-0.238,0.461-0.442,0.691-0.665
	c0.184-0.18,0.301-0.432,0.427-0.655c0.115-0.202,0.219-0.415,0.323-0.624c0.066-0.132,0.196-0.248,0.25-0.38
	c0.106-0.26-0.1-0.268-0.278-0.348c-0.246-0.109-0.41-0.358-0.289-0.608c0.115-0.237,0.277-0.556,0.474-0.731
	c0.153-0.137,0.378-0.209,0.569-0.293c0.162-0.071,0.355-0.243,0.515-0.092c0.127,0.121,0.074,0.275,0.029,0.421
	c0.161,0.391,0.658,0.634,0.818,1.055c0.177,0.465,0.14,1.037,0.347,1.49c0.103,0.226,0.312,0.331,0.431,0.548
	c0.144,0.26,0.215,0.669,0.207,0.948c-0.017,0.603-0.376,1.544-0.023,2.133c0.092,0.153,0.222,0.21,0.294,0.373
	c0.076,0.171,0.084,0.368,0.125,0.544c0.103,0.447,0.196,1.096,0.523,1.44c0.106,0.111,0.29,0.175,0.392,0.266
	c0.269,0.239,0.638,0.641,0.741,0.988c0.085,0.287-0.068,0.611,0.057,0.894c0.156,0.356,0.551,0.575,0.737,0.956
	c0.194,0.396,0.277,0.734,0.566,1.085c0.223,0.27,0.634,0.131,0.761,0.462c0.07,0.182,0.059,0.253,0.213,0.369
	c0.119,0.09,0.281,0.173,0.411,0.241c0.31,0.161,0.427,0.305,0.634,0.599c0.147,0.208,0.262,0.436,0.421,0.636
	c0.283,0.358,0.575,0.747,0.934,1.018c0.283,0.214,0.6,0.453,0.666,0.815c0.031,0.17-0.008,0.358,0.032,0.528
	c0.071,0.302,0.289,0.45,0.287,0.786c-0.002,0.341-0.201,0.637-0.219,0.975c-0.016,0.29,0.083,0.431,0.229,0.658
	c0.239,0.369,0.709,0.776,0.531,1.25c-0.164,0.435-0.314,0.852-0.363,1.316c-0.022,0.208,0.013,0.425,0.045,0.628
	c0.035,0.222-0.021,0.565,0.095,0.746c0.075,0.116,0.478-0.002,0.621,0.167c0.079,0.094,0.116,0.269,0.155,0.384
	c0.063,0.185,0.094,0.454,0.203,0.611c0.116,0.165,0.346,0.287,0.485,0.437c0.239,0.257,0.433,0.545,0.685,0.788
	c0.301,0.291,0.376,0.499,0.617,0.857c0.171,0.253,0.295,0.645,0.521,0.851c0.33,0.302,0.89,0.423,1.259,0.701
	c0.576,0.433,1.214,0.93,1.587,1.558c0.191,0.321,0.365,0.606,0.571,0.894c0.174,0.243,0.071,0.347,0.16,0.618
	c0.198,0.606,1.046,0.875,1.383,1.422c0.109,0.178,0.126,0.475,0.29,0.616c0.097,0.083,0.394,0.212,0.512,0.281
	c0.204,0.12,0.402,0.244,0.626,0.359c0.623,0.318,1.262,0.662,1.804,1.118c0.783,0.659,0.85,1.892,1.972,2.059
	c1.16,0.173,2.7,1.081,2.781-0.723c0.678-0.174,0.597,0.032,0.823-0.643c0.119-0.357,0.365-0.782,0.558-1.111
	c0.712-1.215,1.351-2.429,1.355-3.86c0.001-0.395-0.007-0.394-0.281-0.622c-0.39-0.327-0.322-0.442-0.275-0.95
	c0.043-0.467-0.005-0.861,0.234-1.271c0.127-0.218,0.169-0.478,0.342-0.6c0.029-0.02,0.121-0.501,0.141-0.599
	c0.047-0.231-0.001-0.453,0.11-0.671c0.094-0.186,0.263-0.456,0.425-0.587c0.178-0.145,0.254-0.158,0.292-0.43
	c0.032-0.226-0.03-0.492,0.056-0.71c0.089-0.225,0.293-0.401,0.388-0.631c0.183-0.445,0.434-0.844,0.59-1.298
	c0.161-0.469,0.516-0.857,0.618-1.343c0.089-0.423,0.073-0.893,0.109-1.321c0.031-0.371-0.019-0.657,0.214-0.954
	c0.168-0.214,0.111-0.361,0.088-0.611c-0.022-0.242-0.063-0.53-0.026-0.773c0.036-0.239,0.228-0.424,0.28-0.642
	c0.559-0.084,0.306-0.644,0.277-0.991c-0.023-0.277-0.014-0.556-0.038-0.832c-0.033-0.385,0.037-0.54,0.122-0.881
	c0.079-0.315,0.058-0.451,0.216-0.722c0.124-0.212,0.251-0.422,0.375-0.632c0.315-0.53,0.225-0.864,0.281-1.457
	c0.018-0.185,0.036-0.511,0.142-0.663c0.14-0.2,0.393-0.243,0.49-0.489c0.078-0.198-0.006-0.409,0.092-0.615
	c0.079-0.168,0.26-0.347,0.391-0.481c0.218-0.224,0.462-0.372,0.589-0.675c0.152-0.361,0.123-0.483,0.473-0.677
	c0.474-0.263,0.339-0.345,0.123-0.786c-0.152-0.31-0.187-0.928-0.379-1.164c0.104-0.081,0.117-0.312,0.146-0.435
	c0.051-0.211,0.087-0.381,0.063-0.599c-0.016-0.147-0.07-0.297-0.091-0.447c-0.02-0.141-0.073-0.308-0.058-0.449l-3.911-11.853
	l-0.956-0.717l0.179-1.552l-0.657-0.537l-0.418-2.777l-1.433-3.373l-2.866-8.27c-0.488,0.644-1.283,1.269-1.956,1.718
	c-0.56,0.374-1.072,0.564-1.748,0.736c-0.451,0.115-1.254,0.286-1.625,0.591c-0.414,0.066-0.777,0.072-1.179,0.224
	c-0.248,0.094-0.507,0.175-0.749,0.282c-0.437,0.193-0.827,0.236-1.294,0.296c-0.481,0.061-1.014,0.119-1.493,0.018
	c-0.438-0.092-1.091-0.027-1.45-0.313c0.018,0.281-0.047,0.606-0.117,0.861c-0.325-0.114-1.004-0.434-1.354-0.36
	c-0.294,0.063-0.206,0.344-0.51,0.347c-0.118,0.001-0.31-0.162-0.415-0.139c-0.098,0.022-0.12,0.158-0.193,0.188
	c-0.138,0.056-0.27,0.113-0.437,0.149c-0.328,0.07-0.837,0.04-1.12,0.2c0.008,0.087,0.069,0.182,0.143,0.246
	c-0.371,0.047-0.705,0.142-1.089,0.147c0.131-0.275,0.306-0.604,0.194-0.891c-0.059-0.151-0.252-0.157-0.148-0.368
	c0.049,0.06,0.129,0.1,0.171,0.172c-0.07-0.326-0.027-0.43-0.244-0.679c-0.205-0.235-0.475-0.608-0.72-0.779
	c-0.494,0.285-0.86,0.701-1.284,1.07c-0.499,0.434-0.838,0.532-1.463,0.619c-0.377,0.053-0.747,0.059-1.075,0.249
	c-0.202,0.117-0.416,0.249-0.608,0.371c-0.158,0.099-0.323,0.254-0.488,0.367c-0.23,0.157-0.406,0.173-0.728,0.171
	c0.035-0.18,0.084-0.439,0.026-0.608c-0.584-0.001-1.056,0.029-1.601-0.171c-0.744-0.273-1.427-0.585-2.023-1.118
	c-0.208,0.068-0.068,0.27,0.006,0.398c-0.71,0.277-0.94-0.282-1.17-0.765c-1.17-0.046-0.037-0.777-0.58-1.372
	c-0.196,0.172-0.305,0.399-0.552,0.477c0.125-0.397,0.071-1.071-0.336-1.26c-0.509-0.236-1.08-0.122-1.607-0.425
	c-0.288-0.165-0.573-0.327-0.849-0.498c-0.162-0.1-0.289-0.231-0.451-0.322c-0.151-0.086-0.313-0.098-0.455-0.187
	c-0.409-0.256-0.861-0.537-1.189-0.9c-0.325-0.361-0.41-0.913-0.642-1.337c-0.465-0.852-1.351-0.978-2.271-0.803
	c-0.347,0.066-0.681,0.296-0.988,0.474c-0.415,0.24-0.757,0.397-1.217,0.542c-0.84,0.266-1.742,0.369-2.591,0.088
	c-0.692-0.229-1.149-0.75-1.793-1.049c-0.732-0.34-1.409-0.672-2.168-0.928c-0.773-0.261-1.533-0.63-2.367-0.602
	c-0.953,0.031-1.917,0.213-2.85,0.394c-0.489,0.095-1.112,0.287-1.581,0.507c-0.258,0.121-0.606,0.433-0.886,0.538
	c-0.792,0.297-1.445,0.75-2.309,0.746c-0.366-0.002-0.481,0.163-0.831,0.24c-0.194,0.043-0.395,0.029-0.594,0.029
	c-0.341,0-0.685,0.005-1.02-0.051c-0.432-0.072-0.702-0.393-1.123-0.08c-0.341,0.255-0.422,0.793-0.545,1.172
	c-0.258,0.793-0.629,1.492-1.308,2.005c-0.415,0.313-1.197,0.478-1.672,0.292c-0.317-0.124-0.548-0.416-0.856-0.574
	c-0.505-0.259-0.77-0.095-1.178,0.266c-0.358,0.317-0.677,0.679-0.816,1.15c-0.543,0.034-1.309,0.222-1.545,0.732
	c-0.1,0.216-0.161,0.668-0.475,0.642c-0.563-0.047-0.905,0.488-1.298,0.781c-0.377,0.282-0.752,0.529-1.105,0.84
	c-0.218,0.191-0.433,0.403-0.664,0.578c-1.131,0.853-2.426,1.721-3.713,2.301c-0.517,0.233-1.08,0.36-1.565,0.65
	c-0.529,0.317-0.977,0.512-1.588,0.655c-0.967,0.225-2.109,0.065-3.01-0.253c-0.186-0.066-0.305-0.186-0.484-0.268
	c-0.207-0.094-0.485-0.098-0.705-0.188c-0.176-0.071-0.674-0.247-0.813-0.388c-0.189-0.193-0.112-0.609-0.136-0.875
	c-0.61,0.116-1.021-0.215-1.46-0.567c-0.124-0.1-0.22-0.253-0.347-0.34c-0.275-0.187-0.643-0.17-0.977-0.179
	c-0.334-0.009-0.556-0.085-0.813-0.272c-0.234-0.17-0.539-0.246-0.774-0.42c-0.3-0.222-0.301-0.31-0.718-0.324
	c-0.16-0.005-0.455,0.058-0.598-0.001c-0.29-0.119-0.375-0.425-0.734-0.447c-0.175-0.011-0.346,0.017-0.525,0.03
	c-0.655,0.05-1.286,0.149-1.948,0.149c-0.367,0-0.752,0.036-1.113-0.045c-0.333-0.074-0.555-0.318-0.865-0.405
	c-0.646-0.181-1.312,0.165-1.936,0.122c-0.406-0.028-0.724-0.049-1.099-0.177c-0.343-0.117-0.551-0.029-0.67-0.425
	c-0.06-0.202-0.02-0.427-0.089-0.623c-0.046-0.13-0.167-0.209-0.221-0.333c-0.138-0.319-0.002-0.752-0.096-1.095
	c-0.446,0.264-0.893,0.609-1.397,0.729c-0.533,0.127-1.112,0.254-1.65,0.337c-0.326,0.05-0.363-0.114-0.622-0.222
	c-0.292-0.122-0.676-0.045-0.987-0.152c-0.284-0.098-0.322-0.155-0.586-0.197c-0.452-0.071-0.953,0.049-1.334-0.232
	c-0.634-0.469-0.735-1.04-1.011-1.714c-0.264-0.646-1.026-0.942-1.674-1c-0.867-0.076-1.849,0.113-2.688-0.166
	c-0.701-0.233-1.279-0.805-1.95-1.099c-0.731-0.32-1.634,0.023-2.409-0.139c-0.453-0.094-0.835-0.398-1.266-0.553
	c-0.969-0.349-1.89-0.159-2.914-0.165c-0.308-0.002-0.502,0.019-0.777-0.106c-0.257-0.116-0.363-0.2-0.659-0.196
	c-0.496,0.007-0.912,0.039-1.396-0.126c-0.494-0.168-0.877-0.483-1.385-0.582c-0.483-0.094-0.906-0.297-1.395-0.333
	c-0.885-0.065-1.676-0.572-2.464-0.946c-0.684-0.325-1.751-0.163-2.492-0.02c-0.484,0.093-0.901,0.284-1.361,0.433
	c-0.448,0.145-0.918,0.219-1.364,0.376c-0.721,0.254-1.457,0.581-2.155,0.9c-0.317,0.145-0.556,0.106-0.887,0.155
	c-0.302,0.045-0.554,0.23-0.861,0.275c-0.553,0.081-1.157-0.025-1.707-0.069c-0.814-0.065-1.894,0.05-2.114-0.892
	c-0.06-0.257-0.193-0.504-0.248-0.761c-0.068-0.319,0.132-0.825-0.233-1.001c-0.472-0.228-0.942,0.788-0.984,1.178
	c-0.029,0.263,0.002,0.524-0.09,0.775c-0.133,0.361-0.742,0.487-1.098,0.704c-0.443,0.271-0.704,0.556-1.057,0.924
	c-0.304,0.318-0.922,0.519-1.068,0.955l0.388,2.896l-0.388,1.672L9.106,22.8l1.522,5.255l-1.403,5.374l-2.209,2.687l-1.314,2.896
	l1.075,1.791l0.896,2.687L7.613,45.43l1.403,3.344l-0.507,0.507L8.33,50.177l2,4.777v108.794v15.047h96.842
	c-0.122-0.212-0.049-0.762,0.062-0.985c0.153-0.308,0.487-0.397,0.568-0.779c0.142-0.663-0.951-0.876-0.842-1.552
	c0.147-0.04,0.493,0.176,0.426-0.164c0.172,0.208,0.2,0.512,0.45,0.616c0.166,0.07,0.439-0.032,0.619-0.015
	c0.22-0.267,0.369-0.609,0.637-0.833c0.194-0.163,0.442-0.234,0.654-0.369c0.381-0.243,0.818-0.346,1.172-0.597
	c0.259-0.183,0.193-0.266,0.382-0.487c0.034-0.04,0.274-0.148,0.345-0.199c0.254-0.182,0.909-0.74,0.405-1.079
	c0.178-0.404,0.583-0.54,0.84-0.84c0.336-0.391,0.05-0.729-0.428-0.652c0.007-0.354,0.311-0.756,0.615-0.789
	c0.14-0.015,0.327,0.05,0.503,0.01c-0.176-0.293-0.49-0.369-0.69-0.647c-0.186-0.258-0.182-0.564-0.304-0.851
	c-0.333-0.002-0.824-0.017-0.849-0.41c0.244-0.154,0.533-0.156,0.807-0.17c0.06-0.282-0.244-0.251-0.418-0.28
	c-0.231-0.039-0.365-0.088-0.447-0.339c-0.111-0.341-0.079-0.679,0.361-0.613c0.196,0.029,0.33,0.17,0.481,0.281
	c0.063,0.047,0.166,0.086,0.221,0.137c0.125,0.116,0.106,0.263,0.181,0.414c0.132,0.263,0.491,0.544,0.764,0.643
	c0.287,0.104,0.614-0.139,0.791,0.142c0.189,0.3,0.151,0.772,0.657,0.423c0.123-0.085,0.289-0.182,0.373-0.304
	c0.106-0.154,0.043-0.352,0.101-0.517c0.128-0.358,0.331-0.323,0.675-0.238c0.084,0.021,0.206,0.097,0.298,0.076
	c0.156-0.038,0.265-0.271,0.364-0.381c0.089,0.074,0.119,0.188,0.176,0.287c0.161-0.144,0.285-0.142,0.357-0.375
	c0.03-0.098-0.012-0.159,0.058-0.25c0.077-0.1,0.226-0.069,0.328-0.155c0.166-0.138,0.194-0.229,0.399-0.331
	c0.114-0.057,0.193-0.075,0.264-0.201c0.109-0.192,0.107-0.459,0.25-0.634c0.237,0.149,0.182,0.451,0.481,0.511
	c0.364,0.074,0.267-0.242,0.362-0.483c0.127,0.027,0.246,0.165,0.36,0.18c0.036,0.005,0.282-0.104,0.354-0.115
	c0.183-0.029,0.468-0.149,0.545,0.1c0.178-0.081,0.375-0.091,0.554-0.165c0.067-0.028,0.148-0.129,0.229-0.097
	c0.169,0.067,0.145,1.006,0.176,1.195c0.057,0.344,0.285,0.322,0.464,0.572c0.159,0.223,0.071,0.522,0.313,0.698
	c0.184,0.134,0.68,0.104,0.857-0.074c0.153-0.154,0.162-0.428,0.293-0.607c0.047-0.064,0.148-0.123,0.181-0.173
	c0.056-0.087,0.019-0.195,0.087-0.275c0.101-0.117,0.158-0.058,0.295-0.104c0.167-0.056,0.339-0.248,0.446-0.376
	c0.078-0.093,0.129-0.198,0.209-0.285c0.187-0.205,0.277-0.087,0.542-0.052c0.518,0.069,0.655-0.293,0.737-0.721
	c0.081-0.422,0.037-0.846,0.099-1.269c0.017-0.12,0.081-0.291,0.059-0.415c-0.034-0.196-0.354-0.365-0.223-0.511
	c0.146-0.162,0.391,0.034,0.538,0.084c0.189,0.064,0.148,0.09,0.199-0.114c0.048-0.191-0.038-0.151,0.15-0.295
	c0.129-0.098,0.211-0.139,0.295-0.285c0.115-0.202,0.165-0.484,0.152-0.719c-0.012-0.229,0.046-0.687,0.095-0.911
	c0.035-0.157,0.042-0.223,0.171-0.283c0.155-0.072,0.285-0.06,0.38-0.239c0.083-0.157,0.07-0.423,0.086-0.606
	c0.018-0.201,0.026-0.438,0-0.64c-0.021-0.169-0.158-0.34-0.006-0.467c0.056-0.047,0.152-0.01,0.198-0.05
	c0.116-0.102,0.061-0.298,0.051-0.438c-0.046-0.574,0.355-0.245,0.713-0.332c0.016-0.212-0.093-0.667,0.088-0.794
	c0.212-0.149,0.725-0.03,0.989-0.063c-0.003-0.105-0.001-0.568,0.081-0.656c0.138-0.149,0.351,0.16,0.542,0.117
	c0.05-0.199,0.049-0.497-0.049-0.671c-0.11-0.195-0.352-0.304-0.493-0.475c-0.195-0.236,0.601-0.705,0.766-0.935
	c0.106-0.148,0.094-0.262,0.085-0.447c-0.013-0.281-0.075-0.401-0.379-0.263c-0.071,0.19-0.085,0.536-0.372,0.547
	c-0.272,0.011-0.379-0.382-0.483-0.558c-0.093-0.157-0.214-0.464-0.361-0.568c-0.239-0.17-0.658-0.006-0.81,0.192
	c-0.119,0.155-0.181,0.407-0.351,0.525c-0.165,0.114-0.403,0.11-0.578,0.229c-0.116,0.079-0.237,0.16-0.339,0.251
	c-0.033,0.03,0.006,0.116-0.043,0.134c-0.071,0.026-0.272-0.083-0.319-0.118c-0.114-0.083-0.192-0.213-0.241-0.344
	c-0.033-0.086-0.035-0.199-0.082-0.277c-0.059-0.098-0.169-0.142-0.216-0.261c-0.041,0.016-0.081,0.035-0.12,0.055
	c-0.026-0.239,0.42-0.458,0.615-0.404c0.211,0.058,0.346,0.32,0.422-0.018c0.078-0.35,0.063-0.29,0.43-0.345
	c0.174-0.026,0.306-0.081,0.327-0.261c0.015-0.131-0.122-0.435-0.197-0.555c-0.052-0.084-0.163-0.131-0.226-0.222
	c-0.319-0.458,0.29-0.936,0.591-1.221c0.339,0.306,0.424,0.951,0.673,1.342c0.196,0.307,0.651,0.214,0.972,0.161
	c0.323-0.054,0.878-0.029,0.832-0.445c-0.02-0.179-0.037-0.163-0.156-0.311c-0.071-0.087-0.158-0.112-0.123-0.242
	c0.04-0.144-0.032-0.206-0.01-0.321c0.009-0.045,0.091-0.037,0.097-0.092c0.009-0.087-0.183-0.178-0.226-0.225
	c-0.056-0.06-0.166-0.057-0.084-0.204c0.054-0.097,0.192-0.111,0.294-0.115c0.27-0.01,0.399-0.006,0.492-0.304
	c0.083-0.265,0.171-0.605,0.093-0.885c-0.071,0-0.148-0.007-0.217-0.021c-0.006-0.105,0.1-0.169,0.141-0.264
	c0.039-0.092,0.035-0.184,0.039-0.284c0.008-0.248,0.067-0.587-0.144-0.758c-0.178-0.144-0.198-0.059-0.342-0.015
	c-0.271,0.082-0.206,0.026-0.325-0.184c-0.084-0.148-0.413-0.385-0.567-0.464c0.03-0.122,0.078-0.244,0.146-0.348
	c0.224,0.1,0.487,0.384,0.748,0.198c0.156-0.111,0.275-0.524,0.245-0.71c-0.059-0.37,0.104-0.441,0.349-0.281
	c0.111,0.072,0.084-0.03,0.129,0.108c0.025,0.077-0.016,0.212-0.02,0.299c-0.018,0.389,0.043,0.988,0.298,1.265
	c0.213,0.231,0.487,0.336,0.396,0.693c-0.048,0.19-0.13,0.262-0.134,0.458c-0.003,0.173,0.029,0.483,0.097,0.636
	c0.063,0.144,0.088,0.133,0.254,0.19c0.189,0.065,0.293,0.134,0.44,0.299c0.154,0.174,0.38,0.439,0.113,0.652
	c0.161,0.219,0.331,0.295,0.51,0.477c0.106,0.108,0.119,0.196,0.073,0.364c-0.181-0.005-0.422-0.047-0.603-0.005
	c-0.137,0.032-0.132,0.079-0.297,0.047c-0.171-0.033-0.368-0.11-0.527-0.185c-0.015,0.12,0.076,0.319,0.042,0.422
	c-0.064,0.192-0.357,0.187-0.404,0.377c-0.049,0.198,0.151,0.667,0.336,0.751c0.093,0.042,0.287-0.073,0.342-0.038
	c0.038,0.024,0.086,0.257,0.108,0.321c0.053,0.157,0.061,0.355,0.149,0.502c0.085,0.143,0.206,0.224,0.28,0.38
	c-0.206-0.1-0.47,0.09-0.627-0.071c-0.122-0.125-0.128-0.699-0.463-0.574c-0.079,0.03-0.183,0.431-0.184,0.528
	c-0.002,0.197,0.215,0.296,0.238,0.468c0.015,0.11,0.046,0.472,0.123,0.578c0.121,0.166,0.389,0.156,0.552,0.214
	c-0.087,0.141,0.111,0.528,0.121,0.715c0.009,0.178-0.12,0.502-0.033,0.66c0.102,0.183,0.49,0.131,0.677,0.181
	c0.084,0.022,0.31,0.087,0.354,0.147c0.076,0.104,0.025,0.48,0.035,0.631c-0.201-0.182-0.27-0.199-0.469,0.021
	c-0.244,0.271-0.074,0.265,0.042,0.558c0.126,0.319-0.335,0.637-0.657,0.576c-0.076-0.014-0.131-0.095-0.201-0.124
	c-0.097-0.041-0.225-0.046-0.326-0.079c-0.171,0.104,0.162,0.576,0.217,0.732c0.123,0.344,0.319,0.663,0.441,1.006
	c-0.1,0.107-0.526,0.063-0.665,0.032c-0.139-0.031-0.235-0.128-0.354-0.197c-0.265-0.155-0.628-0.325-0.93-0.36
	c-0.01,0.174,0.204,0.392,0.277,0.551c0.067,0.146,0.09,0.295,0.139,0.447c0.036,0.113-0.105,0.215-0.128,0.326
	c0.1,0.058,0.192,0.021,0.29,0.052c0.158,0.052,0.136,0.108,0.237,0.242c0.122,0.162,0.241,0.094,0.373,0.199
	c0.162,0.129,0.213,0.636,0.261,0.833c0.036,0.149,0.056,0.275,0.11,0.418c0.062,0.163,0.09,0.263,0.244,0.346
	c0.188,0.102,0.385,0.03,0.572,0.121c0.173,0.085,0.215,0.272,0.344,0.388c0.104,0.093,0.195,0.117,0.246,0.262
	c-0.216,0.265-0.583-0.052-0.762-0.183c-0.22-0.161-0.467-0.096-0.704-0.231c-0.096-0.055-0.089-0.143-0.2-0.065
	c-0.086,0.059-0.059,0.235-0.067,0.324c-0.013,0.138-0.121,0.526-0.28,0.32c-0.068-0.089,0.006-0.262-0.028-0.366
	c-0.037-0.113-0.162-0.234-0.246-0.313c-0.167-0.158-0.383-0.243-0.556-0.393c-0.158-0.137-0.242-0.335-0.404-0.471
	c-0.302-0.254-0.764-0.195-0.871-0.658c-0.039-0.17-0.009-0.346-0.136-0.468c-0.119-0.114-0.419-0.204-0.512,0.006
	c-0.073,0.167,0.203,0.459,0.237,0.632c0.049,0.257,0.044,0.498-0.08,0.727c-0.2,0.371-0.544,0.709-0.688,1.096
	c-0.041,0.109-0.22,0.128-0.299,0.031c-0.086-0.105-0.06-0.218-0.237-0.257c-0.101-0.022-0.249,0.016-0.334,0.076
	c-0.018,0.013-0.03,0.046-0.046,0.055c-0.04,0.021-0.098,0.027-0.148,0.044c-0.233,0.082-0.444,0.157-0.477,0.436
	c-0.022,0.191-0.06,0.387-0.062,0.581c-0.001,0.103,0.01,0.211,0.026,0.314c0.018,0.122,0.083,0.23,0.095,0.353
	c0.01,0.103,0.005,0.269-0.056,0.356c-0.035,0.051-0.09,0.061-0.134,0.102c-0.135,0.124-0.068,0.438-0.05,0.597
	c-0.082-0.014-0.234-0.144-0.299-0.136c-0.081,0.009-0.095,0.149-0.149,0.194c-0.086,0.073-0.156,0.217-0.242,0.289
	c-0.141,0.12-0.346,0.127-0.517,0.174c-0.069,0.019-0.199,0.047-0.249,0.094c-0.094,0.089-0.048,0.242-0.067,0.358
	c-0.036,0.226-0.197,0.037-0.353,0.02c-0.238-0.026-0.096,0.263-0.231,0.359c-0.155,0.11-0.454-0.042-0.531,0.171
	c-0.037,0.102-0.039,0.217-0.074,0.322c-0.021,0.062-0.056,0.125-0.065,0.19c-0.01,0.063,0.032,0.189,0.003,0.244
	c-0.051,0.098-0.184,0.043-0.271,0.06c-0.174,0.033-0.324,0.643-0.505,0.35c-0.059-0.095-0.111-0.217-0.252-0.172
	c-0.119,0.037-0.133,0.201-0.188,0.299c-0.071,0.128-0.106,0.24-0.13,0.375c-0.018,0.104-0.008,0.238,0.004,0.345
	c-0.117-0.041-0.154-0.187-0.277-0.226c-0.146-0.046-0.246-0.004-0.374,0.048c-0.176,0.071-0.401,0.015-0.582-0.024
	c-0.188-0.041-0.178-0.117-0.044-0.245c0.108-0.103,0.235-0.165,0.378-0.206c0.13-0.037,0.353-0.103,0.441-0.208
	c0.259-0.311-0.558-0.227-0.648-0.283c-0.148-0.093-0.014-0.342-0.012-0.489c0-0.081,0.025-0.192-0.046-0.234
	c-0.124-0.072-0.378-0.006-0.516-0.019c-0.07-0.266,0.321-0.228,0.315-0.465c-0.116-0.005-0.276,0.041-0.362-0.028
	c-0.045-0.036-0.062-0.148-0.096-0.196c-0.044-0.062-0.079-0.093-0.149-0.124c-0.089-0.04-0.188-0.049-0.244-0.137
	c-0.045-0.07-0.035-0.162-0.086-0.233c-0.05-0.07-0.1-0.192-0.139-0.269c-0.169-0.042-0.246,0.054-0.37,0.179
	c-0.049,0.049-0.083,0.111-0.122,0.163c-0.036,0.049-0.095,0.193-0.155,0.214c-0.067,0.024-0.129-0.055-0.189-0.07
	c-0.098-0.024-0.165,0.035-0.254,0.069c-0.121,0.046-0.283,0.055-0.363,0.169c-0.057,0.081-0.059,0.194-0.087,0.287
	c-0.023,0.076-0.022,0.124-0.092,0.153c-0.053,0.022-0.182,0-0.242,0c-0.146-0.001-0.269-0.001-0.408,0.056
	c-0.192,0.079-0.528,0.309-0.366,0.541c0.045,0.064,0.09,0.104,0.132,0.184c0.043,0.083,0.054,0.203,0.108,0.276
	c0.043,0.059,0.132,0.098,0.189,0.147c0.088,0.075,0.142,0.124-0.018,0.13c-0.159,0.006-0.303-0.052-0.382,0.095
	c-0.066,0.123,0.022,0.145,0.07,0.268c0.021,0.054,0.063,0.196,0,0.242c-0.043,0.031-0.1,0.002-0.151-0.008
	c-0.239-0.048-0.592-0.063-0.823,0c-0.263,0.071,0.201,0.446,0.221,0.555c0.031,0.167-0.201,0.211-0.245,0.344
	c-0.037,0.111,0.064,0.199,0.039,0.302c-0.047,0.193-0.42,0.27-0.512,0.501c-0.096,0.242,0.118,0.318,0.182,0.506
	c-0.219,0.116-0.439,0.034-0.621,0.221c-0.133,0.137-0.157,0.333-0.184,0.514c-0.03,0.203-0.04,0.378,0.081,0.544
	c0.069,0.094,0.192,0.213,0.05,0.289c-0.096,0.052-0.351,0.054-0.473,0.076c-0.148,0.026-0.321,0.054-0.471,0.045
	c-0.122-0.007-0.247-0.04-0.373-0.046c-0.157-0.008-0.176-0.012-0.257-0.159c-0.094-0.17-0.145-0.691-0.379-0.612
	c-0.284,0.096-0.244,0.479-0.344,0.687c-0.045,0.094-0.156,0.173-0.271,0.115c-0.08-0.04-0.06-0.15-0.13-0.201
	c-0.096-0.069-0.235,0.03-0.331,0.066c-0.227,0.084-0.484,0.115-0.687,0.254c0.138,0.234,0.543,0.208,0.742,0.41
	c0.255,0.258,0.314,0.585,0.317,0.938c-0.082,0.015-0.246-0.029-0.313-0.077c-0.118-0.082-0.086-0.21-0.178-0.318
	c-0.105-0.122-0.255-0.052-0.384,0.048c-0.163-0.059-0.418-0.217-0.593-0.133c-0.174,0.083-0.266,0.34-0.435,0.445
	c-0.116,0.072-0.213,0.041-0.214,0.2c-0.001,0.168,0.242,0.42,0.3,0.591c-0.008,0.029-0.497,0.087-0.596,0.106
	c-0.199,0.039-0.332,0.1-0.45,0.27c-0.117,0.167-0.133,0.231-0.354,0.262c-0.171,0.024-0.369,0.069-0.526,0.153
	c-0.174,0.093-0.192,0.198-0.233,0.379c-0.058,0.258-0.294,0.395-0.489,0.566c-0.136,0.12-0.26,0.113-0.265,0.3
	c-0.002,0.117,0.015,0.239,0.015,0.359c0,0.219-0.015,0.43-0.015,0.65h71.668h13.017
	C193.087,178.534,193.105,178.142,192.998,177.917z"/>
</svg>
