<?xml version="1.0" encoding="utf-8"?>
<!-- Generator: Adobe Illustrator 26.0.3, SVG Export Plug-In . SVG Version: 6.00 Build 0)  -->
<svg version="1.1" id="Isolation_Mode" xmlns="http://www.w3.org/2000/svg" xmlns:xlink="http://www.w3.org/1999/xlink" x="0px"
	 y="0px" viewBox="0 0 200 200" enable-background="new 0 0 200 200" xml:space="preserve">
<path fill="#1E8346" d="M146.121,152.869c-0.244,0.256-0.439,0.565-0.809,0.671c-0.496,0.142-1.167-0.104-1.662-0.104
	c0.005,0.429-0.16,0.568-0.543,0.381c-0.201-0.098-0.487-0.242-0.615-0.44c-0.066-0.102-0.053-0.172-0.072-0.298
	c-0.04-0.272-0.153-0.326-0.392-0.465c-0.366-0.213-0.951-0.38-1.219-0.719c-0.249-0.315-0.25-0.679-0.428-1.025
	c-0.094-0.183-0.317-0.559-0.485-0.666c-0.233-0.149-0.607,0.027-0.823-0.141c-0.533-0.414,0.081-1.059,0.123-1.478
	c0.026-0.261,0.005-0.451,0.092-0.704c0.071-0.204,0.175-0.39,0.295-0.577c0.093-0.145,0.049-0.357,0.134-0.521
	c0.121-0.233,0.2-0.467,0.297-0.725c0.086-0.229,0.233-0.421,0.354-0.631c0.206-0.357,0.122-0.664,0.193-1.042
	c0.119-0.634,0.483-1.607,1.096-1.908c0.358-0.175,0.617-0.092,0.833,0.174c0.194,0.239,0.419,0.337,0.719,0.462
	c0.175-0.285,0.421-0.514,0.764-0.583c0.351-0.071,0.313,0.171,0.585,0.278c0.211,0.083,0.45,0.008,0.646,0.191
	c0.201,0.187,0.233,0.428,0.555,0.33l1.885-4.405c-0.283,0.045-0.625-0.068-0.911-0.1c0.01-0.294,0.014-0.584-0.09-0.865
	c-0.166-0.451-0.475-0.192-0.794-0.048c-0.221,0.1-0.471,0.299-0.568,0.028c-0.063-0.175,0.039-0.495,0.097-0.652
	c0.195-0.526,0.483-1.014,0.734-1.517c0.124-0.249,0.278-0.464,0.26-0.754c-0.011-0.187-0.102-0.311-0.135-0.487
	c-0.027-0.14-0.015-0.389,0.033-0.522c0.062-0.175,0.263-0.254,0.34-0.432l-8.107-9.878l-0.75-2.214l-6.097-6.983l-3.338-4.428
	l-5.212-5.246c0,0.269,0.021,0.549,0,0.819c-0.03,0.386-0.289,0.614-0.377,0.977c-0.134,0.553,0.146,1.058,0.235,1.568
	c0.108,0.617-0.393,0.65-0.503,1.161c-0.074,0.343,0.084,0.845,0.323,1.065c0.797,0.73,1.975,0.301,2.921,0.303
	c0.77,0.002,1.856-0.212,2.168,0.645c0.213,0.584,0.172,1.481,0.478,2.046c0.131,0.243,0.353,0.32,0.436,0.613
	c0.069,0.244,0.045,0.468,0.141,0.706c0.119,0.297,0.226,0.454,0.224,0.775c-0.002,0.298-0.087,0.652,0.032,0.939
	c0.147,0.354,0.383,0.734,0.613,1.055c0.22,0.307,0.63,0.806,0.668,1.161c0.048,0.454-0.233,0.834-0.106,1.312
	c0.056,0.21,0.164,0.384,0.21,0.595c0.055,0.251,0.05,0.383,0.207,0.583c0.236,0.301,0.673,0.398,0.775,0.763
	c0.134,0.478-0.113,1.036,0.052,1.517c0.124,0.36,0.413,0.458,0.53,0.824c0.11,0.345,0.259,0.491,0.485,0.757
	c0.434,0.51,0.68,1.022,0.298,1.577c-0.163,0.238-0.443,0.459-0.711,0.608c-0.575,0.319-0.58-0.111-0.83-0.498
	c-0.181-0.28-0.359-0.384-0.673-0.509c-0.454-0.181-0.378-0.265-0.601-0.634c-0.202-0.333-0.383-0.797-0.66-1.034
	c-0.361-0.309-0.837-0.546-1.124-0.993c0.101-0.267-0.122-0.887-0.276-1.093c-0.188-0.25-0.62-0.404-0.833-0.649
	c-0.188-0.216-0.143-0.137-0.36-0.177c-0.168-0.031-0.298-0.048-0.418-0.154c-0.288-0.254-0.165-0.395-0.605-0.312
	c-0.451,0.085-0.681,0.238-0.935-0.266c-0.206-0.41-0.06-0.793-0.044-1.221c0.021-0.55-0.431-1.495-0.846-1.864
	c-0.188-0.166-0.641-0.604-0.904-0.623c-0.308-0.023-0.327,0.219-0.516,0.398c-0.269,0.256-0.453,0.181-0.471,0.556
	c-0.018,0.372,0.199,0.519,0.417,0.778c0.15,0.178,0.614,0.671,0.549,0.933c-0.062,0.254-0.319,0.169-0.522,0.215
	c-0.397,0.091-0.574,0.339-0.729,0.717c-0.174,0.424-0.101,0.637,0.048,1.011c0.191,0.48,0.08,0.877-0.185,1.318
	c-0.337,0.561-0.691,0.525-1.329,0.757c-0.28,0.102-1.397,0.475-1.549,0.148c-0.24-0.517,0.583-0.771-0.064-1.118
	c-0.355-0.191-0.681-0.226-1.026-0.515c-0.415-0.348-0.452-0.763-0.731-1.19c-0.212-0.324-0.592-0.395-0.853-0.68
	c-0.204-0.223-0.28-0.446-0.321-0.733c-0.085-0.603-0.33-1.084-0.441-1.688c-0.107-0.582-0.34-1.211-0.377-1.805
	c0.13-0.219,0.411-0.285,0.621-0.407c0.393-0.229,0.595-0.387,0.793-0.779c0.283-0.562,0.319-0.815,0.261-1.417
	c-0.031-0.329,0.014-0.528,0.131-0.815c0.126-0.31,0.339-0.59,0.26-0.924c-0.061-0.258-0.195-0.195-0.111-0.52
	c0.097-0.376,0.421-0.677,0.494-1.079c-0.258-0.161-0.431-0.326-0.565-0.605c-0.068-0.142-0.093-0.335-0.199-0.454
	c-0.163-0.182-0.5-0.339-0.681-0.504c-0.303-0.275-0.558-0.592-0.86-0.869c-0.21-0.193-0.339-0.444-0.533-0.632
	c-0.311-0.303-0.381-0.115-0.62,0.045c-0.359,0.241-0.528,0.313-0.906,0.025c-0.379-0.288-0.71-0.773-0.945-1.182
	c-0.248-0.434-0.497-0.852-0.614-1.338c-0.112-0.463-0.195-0.545-0.547-0.876c-0.337-0.318-0.549-0.752-0.771-1.153
	c-0.158-0.286-0.107-0.389-0.187-0.653c-0.054-0.175-0.233-0.309-0.233-0.512c0.001-0.761,0.992-1.013,1.227-1.838
	c0.147-0.517-0.059-1.005-0.208-1.485c-0.167-0.54-0.185-1.077-0.164-1.64c0.023-0.601,0.031-1.201,0.031-1.804
	c0-0.344,0.046-0.729,0.003-1.071c-0.034-0.269-0.173-0.438-0.276-0.678c-0.126-0.295-0.059-0.573-0.126-0.892
	c-0.063-0.3-0.171-0.493-0.18-0.809c-0.009-0.314-0.02-0.631-0.23-0.881c-0.184-0.22-0.464-0.338-0.655-0.556
	c-0.504-0.576-0.383-1.009-0.128-1.652c0.062-0.156,0.323-0.532,0.298-0.688c-0.04-0.237-0.34-0.263-0.535-0.371
	c-0.754-0.416-1.365-1.3-1.577-2.137c-0.092-0.362-0.01-0.768-0.041-1.139c-0.027-0.315-0.055-0.786-0.06-1.092
	c-0.009-0.488,0.505-0.684,0.358-1.195c-0.17-0.592-0.328-1.197-0.511-1.787c-0.169-0.545-0.276-0.845-0.838-0.954
	c-0.449-0.088-0.923-0.096-1.31-0.369c-0.478-0.338-0.491-0.646-0.593-1.145c-0.069-0.336-0.29-0.7-0.447-1.005
	c-0.162-0.314-0.358-0.593-0.373-0.953c-0.012-0.281,0.023-0.583,0.009-0.869c-0.035-0.723,0.048-1.367,0.256-2.059
	c0.192-0.639,0.471-1.093,0.418-1.767c-0.044-0.57-0.087-0.961,0.324-1.369c0.339-0.337,0.48-0.829,0.816-1.146
	c0.432-0.408,1.279-0.287,1.655-0.736c0.17-0.203,0.079-0.396,0.032-0.638c-0.057-0.29-0.168-0.448-0.035-0.733
	c0.115-0.245,0.21-0.41,0.188-0.691c-0.011-0.141-0.115-0.289-0.063-0.427c0.125-0.334,0.778-0.525,1.033-0.728
	c0.325-0.257,0.409-0.687,0.743-0.954c0.235-0.188,0.516-0.292,0.793-0.416c0.333-0.149,0.302-0.165,0.478-0.48
	c0.195-0.349,0.455-0.55,0.389-0.976c-0.067-0.435-0.354-0.818-0.42-1.268c-0.072-0.496-0.027-0.92-0.254-1.354
	c-0.192-0.367-0.364-0.544-0.367-0.976c-0.008-1.517-0.135-3.093-0.552-4.567c-0.125-0.442-0.662-0.596-0.828-1.024
	c-0.083-0.214-0.132-0.452-0.034-0.667c0.091-0.201,0.313-0.177,0.205-0.476c-0.072-0.2-0.299-0.264-0.36-0.51
	c-0.053-0.217,0.002-0.538,0.002-0.758c0-0.302-0.018-0.625,0.093-0.902c0.074-0.184,0.116-0.164,0.248-0.333
	c0.374-0.48,0.153-0.426-0.063-0.898c-0.172-0.376-0.193-0.982-0.238-1.398c-0.052-0.47,0.161-0.722,0.199-1.137
	c0.025-0.279,0.033-0.615-0.006-0.891c-0.064-0.459-0.2-0.868-0.198-1.342c0.001-0.303,0.018-0.61-0.04-0.908
	c-0.093-0.478-0.081-0.777-0.079-1.226c0.002-0.373,0.11-0.728,0.116-1.093c-0.205-0.238-0.659-0.721-0.74-1.027
	c-0.093-0.349,0.248-0.694,0.335-1.008c0.093-0.337,0.114-0.696-0.036-1.02c-0.107-0.229-0.36-0.455-0.404-0.706
	c-0.072-0.41,0.317-0.896,0.595-1.146c0.142-0.128,0.582-0.361,0.557-0.579c-0.013-0.114-0.319-0.31-0.389-0.415
	c-0.263-0.394,0.084-0.559,0.188-0.979c0.13-0.528,0.882-0.254,1.183-0.515c-0.194-0.27-0.346-0.416-0.399-0.743
	c-0.04-0.25-0.01-0.502-0.081-0.751c-0.147-0.515-0.629-0.666-0.96-1.057c-0.162-0.191-0.251-0.404-0.421-0.563
	c-0.199-0.186-0.306-0.112-0.37-0.43c-0.078-0.385,0.005-0.397-0.271-0.708c-0.271-0.305-0.406-0.425-0.791-0.584
	c-0.255-0.105-0.492-0.233-0.642-0.47c-0.065-0.104-0.081-0.251-0.147-0.357c-0.143-0.227-0.444-0.266-0.586-0.456
	c-0.219-0.295-0.109-0.607-0.425-0.874c-0.373-0.315-0.955-0.676-1.06-1.143c-0.087-0.388,0.007-0.785-0.172-1.167
	c-0.154-0.327-0.44-0.589-0.651-0.873c-0.203-0.271-0.329-0.569-0.526-0.839c-0.438-0.601,0.343-1.344-0.006-2.015
	c-0.197-0.377-0.797-0.534-0.961-0.983c-0.093-0.253,0.023-0.507-0.003-0.768c-0.023-0.227-0.171-0.437-0.171-0.645
	c0.001-0.212,0.161-0.352,0.103-0.58c-0.058-0.227-0.262-0.231-0.237-0.489c0.032-0.325,0.497-0.785,0.781-0.908
	c-0.481-0.699-1.375-0.998-2.015-1.535c-0.504-0.423-0.829-1.058-1.385-1.359c-0.619-0.335-0.984-0.277-1.512,0.106
	c-0.494,0.359-1.439,0.326-1.97,0.066c-0.287-0.141-0.469-0.409-0.779-0.482c-0.285-0.067-0.673,0.021-0.932,0.146
	c-0.525,0.253-0.74,0.899-1.37,0.844c-0.601-0.053-1.452-0.258-1.753-0.81c-0.194-0.356-0.254-0.969-0.608-1.209
	c-0.251-0.17-0.542-0.198-0.792-0.401c-0.184-0.15-0.339-0.337-0.508-0.502c-0.309-0.299-0.958-0.726-1.181-0.086
	c-0.222,0.03-0.409,0.029-0.575-0.064c-0.096-0.055-0.182-0.261-0.295-0.278c-0.07-0.01-0.36,0.19-0.405,0.219
	c-0.224,0.141-0.367,0.311-0.669,0.271c-0.184-0.024-0.362-0.15-0.562-0.172c-0.287-0.031-0.637,0.041-0.909-0.066
	c-0.254-0.1-0.387-0.387-0.568-0.563c-0.358-0.349-0.938-0.856-1.372-1.085c-0.352-0.185-0.701-0.235-0.959-0.626
	c-0.144-0.218-0.257-0.575-0.55-0.649c-0.429-0.108-0.886,0.607-1.221,0.777c0,0.68,0.127,0.708,0.498,1.228
	c0.127,0.179,0.204,0.418,0.32,0.61c0.164,0.272,0.432,0.301,0.595,0.527c0.247,0.342-0.17,0.879-0.221,1.263
	c-0.062,0.463-0.064,1.069-0.036,1.536c0.465,0.176,0.853-0.215,1.255-0.058c0.422,0.164,0.413,0.829,0.802,0.943
	c0.604,0.177,0.396-0.691,0.466-1.002c0.089-0.39,0.748-0.823,0.943-0.24c0.487-0.136,0.67,0.015,1.145,0.029
	c0.494,0.015,0.561,0.227,0.737,0.669c0.203,0.509,0.198,1.074,0.412,1.588c0.204,0.489,0.57,0.87,0.875,1.294
	c0.219,0.303,0.434,0.595,0.623,0.906c0.249,0.41,0.465,0.417,0.903,0.582c0.327,0.123,0.238,0.099,0.4,0.429
	c0.066,0.133,0.156,0.245,0.229,0.373c0.185,0.329,0.43,0.681,0.271,1.04c-0.068,0.155-0.053,0.367-0.14,0.506
	c-0.105,0.169-0.319,0.194-0.436,0.336c-0.127,0.155-0.16,0.412-0.239,0.595c-0.138,0.321-0.338,0.53-0.53,0.809
	c-0.257,0.373-0.534,1.011-0.254,1.436c0.22,0.334,0.791,0.656,1.164,0.716c0.515,0.082,0.984,0.19,1.363,0.58
	c0.311,0.319,0.459,0.818,0.818,1.098c0.33,0.257,0.811,0.268,1.151,0.514c0.229,0.166,0.417,0.42,0.643,0.603
	c0.62,0.501,0.587,1.004,0.335,1.711c-0.285,0.802-0.088,1.559,0.154,2.32c0.179,0.562,0.488,0.801,0.902,1.233
	c0.214,0.223,0.513,0.486,0.658,0.761c0.126,0.239,0.09,0.476,0.126,0.739c0.078,0.577,0.281,0.698,0.711,1.01
	c0.233,0.169,0.404,0.308,0.659,0.44c0.267,0.138,0.347,0.179,0.341,0.603c-0.345,0.191-0.599,0.511-0.928,0.72
	c-0.187,0.119-0.377,0.164-0.535,0.331c-0.177,0.188-0.252,0.448-0.424,0.641c-0.325-0.223-0.648,0.485-0.873,0.687
	c-0.225,0.202-0.61,0.445-0.746,0.73c-0.122,0.255,0.005,0.587-0.135,0.832c-0.12,0.211-0.488,0.484-0.658,0.667
	c-0.289,0.311-0.638,0.23-0.957,0.483c-0.364,0.289-0.43,0.471-0.938,0.331c-0.226-0.063-0.609-0.301-0.859-0.166
	c-0.159,0.085-0.134,0.275-0.271,0.367c-0.188,0.127-0.414,0.012-0.612,0.063c-0.292,0.074-0.533,0.3-0.683,0.554
	c-0.222,0.375-0.204,0.751-0.713,0.577c-0.409-0.14-0.61-0.408-0.82,0.121c-0.101,0.255-0.179,0.585-0.019,0.792
	c0.21,0.271,0.525,0.291,0.671,0.651c0.246,0.606,0.31,1.147,0.337,1.813c0.019,0.45,0.185,1.183,0.445,1.558
	c0.253,0.365,0.686,0.609,0.945,0.98c0.257,0.369,0.333,0.814,0.62,1.165c-0.187,0.37-0.231,0.76-0.332,1.156
	c-0.128,0.498-0.371,0.751-0.613,1.172c-0.234,0.406-0.213,0.94-0.475,1.345c-0.113,0.175-0.261,0.241-0.329,0.448
	c-0.065,0.202,0.043,0.45-0.087,0.635c-0.146,0.207-0.481,0.157-0.617,0.394c-0.094,0.166-0.036,0.51-0.035,0.688
	c0.001,0.343,0.132,0.788-0.331,0.739c-0.369-0.038-0.448-0.492-0.751-0.569c-0.334-0.085-0.38,0.303-0.31,0.569
	c0.049,0.186,0.2,0.326,0.245,0.518c0.037,0.158-0.016,0.337,0.052,0.485c0.146,0.317,0.262,0.319,0.275,0.71
	c0.015,0.409,0.044,0.688-0.204,1.011c-0.164,0.213-0.449,0.372-0.336,0.729c0.201,0.639,1.245,0.316,1.671,0.519
	c0.581,0.277,0.583,1.043,0.605,1.59c0.042,1.075,0.07,2.211,0.07,3.29c0,0.363,0.029,0.737,0.002,1.099
	c-0.022,0.308-0.137,0.629-0.106,0.94c0.025,0.247,0.158,0.389,0.209,0.623c0.056,0.256,0.064,0.618,0.066,0.883
	c0.006,0.684-0.437,0.967-0.858,1.442c-0.182,0.206-0.45,0.437-0.576,0.684c-0.194,0.378-0.16,0.856-0.303,1.258
	c-0.154,0.432-0.296,0.942-0.057,1.384c0.188,0.349,0.517,0.565,0.762,0.845c0.369,0.421,0.18,0.851,0.306,1.334
	c0.075,0.284,0.29,0.618,0.45,0.868c0.264,0.414,0.662,0.751,0.95,1.15c0.231,0.32,0.197,0.32,0.583,0.364
	c0.478,0.055,0.59-0.005,0.958-0.192c0.396-0.201,0.714-0.189,1.096-0.004c0.372,0.18,0.791,0.031,1.14,0.206
	c0.22,0.111,0.276,0.263,0.226,0.501c-0.065,0.309-0.329,0.414-0.525,0.624c-0.155,0.167-0.268,0.525-0.492,0.625
	c-0.184,0.082-0.361-0.105-0.523,0.043c-0.119,0.109-0.059,0.304-0.073,0.441c-0.024,0.241-0.057,0.465-0.187,0.679
	c-0.268,0.444-0.696,0.744-1.183,0.908c-0.075,0.03-0.209,0.161-0.129,0.122c-0.201,0.133-0.157,0.355-0.265,0.547
	c-0.104,0.182-0.342,0.392-0.525,0.546c-0.228-0.094-0.303-0.409-0.491-0.564c-0.291,0.113-0.593,0.279-0.882,0.374
	c-0.247,0.081-0.511,0.05-0.765,0.116c-0.515,0.134-0.906,0.667-0.98,1.195c-1.396-0.003-0.625,0.139-1.035,1.023
	c-0.412-0.188-0.496-0.294-0.609-0.718c-0.099-0.374-0.092-0.501-0.522-0.392c-0.39,0.099-0.697,0.321-1.098,0.246
	c-0.244-0.046-0.355-0.248-0.553-0.298c-0.748-0.19-0.668,0.477-0.796,0.898c-0.154,0.502-0.695,0.863-0.918,1.36
	c-0.244,0.542-0.345,0.978-0.78,1.419c-0.36,0.365-0.724,0.501-0.58,1.078c0.05,0.201,0.117,0.329,0.138,0.535
	c0.025,0.239-0.046,0.501-0.002,0.736c0.071,0.378,0.408,0.671,0.699,0.888c0.204,0.152,0.737,0.269,0.866,0.457
	c0.146,0.213,0.028,1.111-0.031,1.32c-0.119,0.422-0.137,0.857-0.273,1.291c-0.141,0.447-0.29,0.896-0.374,1.353
	c-0.158,0.859-0.106,1.792,0.247,2.593c0.288,0.651-0.198,1.192-0.513,1.791c-0.284,0.54-0.768,0.877-1.114,1.355
	c-0.373,0.516-0.031,1.369,0.017,1.972c0.036,0.453-0.491,1.028-0.742,1.365c-0.116,0.154-0.232,0.363-0.413,0.452
	c-0.113,0.056-0.264,0.007-0.358,0.056c-0.154,0.082-0.194,0.138-0.242,0.344c-0.096,0.416,0.134,0.885-0.287,1.156
	c-0.298,0.192-0.658,0.224-0.962,0.448c-0.496,0.365-1.009,0.823-1.693,0.679c-0.4-0.084-0.798-0.623-1.197-0.246
	c-0.279,0.265-0.088,1.695,0.256,1.926c0.331,0.222,0.703,0.009,1.036,0.051c0.443,0.056,0.798,0.121,1.264,0.139
	c0.253,0.01,0.366,0.446,0.541,0.621c0.121,0.121,0.262,0.18,0.388,0.313c0.371,0.394,0.26,0.798-0.119,1.14
	c-0.306,0.275-1.189,0.345-1.189,0.863c0,0.406,0.434,0.843,0.798,0.967c0.493,0.168,1.026-0.092,1.546,0.037
	c0.657,0.163,0.863,0.533,0.871,1.148c0.009,0.638,0.253,0.574,0.727,0.843c0.323,0.183,0.606,0.7,0.805,0.98
	c0.793-0.009,0.597,0.588,0.503,1.178c-0.082,0.517-0.136,0.855,0.341,1.161c0.421,0.27,0.798,0.216,0.962-0.24
	c0.126-0.35,0.071-0.568,0.304-0.899c0.325-0.462,0.508-0.428,1.05-0.448c0.839-0.032,0.405-0.831,0.996-1.1
	c0.256,0.276,0.474,0.493,0.62,0.863c0.162,0.412,0.426,0.912,0.555,1.338c0.341-0.193,0.592-0.483,0.977-0.269
	c0.147,0.082,0.268,0.24,0.402,0.341c0.219,0.167,0.313,0.129,0.567,0.131c0.36,0.003,0.274,0.252,0.302,0.565
	c0.029,0.323,0.232,0.403,0.348,0.703c0.124,0.323-0.021,0.285-0.144,0.499c-0.067,0.118-0.065,0.333-0.106,0.468
	c-0.146,0.483-0.119,0.856,0.221,1.173c0.171,0.16,0.35,0.254,0.438,0.477c0.085,0.215,0.054,0.463,0.073,0.678
	c0.278,0.016,0.644,0.079,0.859-0.134c0.294,0.322,0.25,0.705,0.468,1.074c0.172,0.29,0.284,0.657,0.504,0.908
	c0.266,0.304,0.517,0.578,0.679,0.961c0.129,0.304,0.119,0.645,0.269,0.94c0.234,0.459,0.787,1.091,1.306,1.225
	c0.336,0.087,0.666,0.054,0.906,0.371c0.18,0.238,0.212,0.622,0.424,0.835c0.171,0.171,0.31,0.138,0.524,0.195
	c0.425,0.112,0.744,0.934,0.677,1.334c-0.083,0.496-0.107,0.725,0.294,1.104c0.226,0.214,0.737,0.824,1.082,0.794
	c0.232-0.02,0.342-0.356,0.477-0.498c0.188-0.199,0.424-0.331,0.372-0.644c-0.052-0.313-0.274-0.582-0.249-0.919
	c0.023-0.32,0.423-0.831,0.786-0.69c0.271,0.105,0.322,0.513,0.578,0.675c0.288,0.182,0.697,0.342,1.014,0.483
	c0.348,0.155,0.296-0.021,0.502-0.248c0.113-0.125,0.373-0.377,0.523-0.437c0.158-0.062,0.399-0.012,0.577-0.012
	c0.474-0.002,0.219-0.259,0.462-0.539c0.13-0.15,0.461-0.331,0.639-0.369c0.278-0.06,0.618,0.061,0.898,0.069
	c0.448,0.011,0.891-0.012,1.337,0.031c0.381,0.037,1.233,0.265,1.554-0.052c0.203-0.2-0.15-0.515,0.119-0.713
	c0.142-0.105,0.525-0.076,0.7-0.118c0.152-0.035,0.278-0.062,0.433-0.079c0.345-0.037,0.777-0.008,1.099-0.137
	c0.213,0,0.496,0.046,0.694-0.047c0.218-0.103,0.212-0.2,0.485-0.204c0.378-0.005,0.613,0.102,0.918-0.186
	c0.299-0.283,0.48-0.394,0.904-0.38c0.41,0.013,0.687-0.235,1.059-0.295c0.15-0.024,0.244,0.035,0.379,0.064
	c0.125,0.026,0.338,0,0.444,0.094c0.162,0.144,0.063,0.404,0.202,0.586c0.145,0.19,0.377,0.252,0.488,0.48
	c0.078,0.16,0.103,0.334,0.206,0.491c0.098,0.151,0.249,0.267,0.342,0.42c0.096,0.158,0.029,0.413,0.192,0.522
	c0.156,0.317,0.351,0.656,0.64,0.87c0.521,0.385,0.921,0.437,1.156,1.085c0.132,0.366,0.335,0.71,0.462,1.073
	c0.14,0.4-0.059,0.602-0.3,0.913c-0.323,0.416-0.231,0.631-0.187,1.134c0.033,0.386,0.155,0.639,0.409,0.924
	c0.286,0.322,0.561,0.634,0.752,1.025c0.144,0.295,0.059,0.422-0.059,0.694c-0.182,0.422-0.102,0.997-0.102,1.456
	c-0.091,0.14-0.047,0.308,0.014,0.449c0.116,0.266,0.242,0.488,0.326,0.778c0.126,0.436,0.273,0.804,0.581,1.129
	c0.262,0.277,0.099,0.52-0.037,0.826c-0.131,0.297-0.246,0.547-0.431,0.818c-0.152,0.222-0.451,0.505-0.383,0.796
	c0.068,0.288,0.338,0.277,0.115,0.535c-0.101,0.116-0.256,0.211-0.253,0.402c0.002,0.097,0.076,0.189,0.09,0.283
	c0.035,0.237-0.019,0.477,0.036,0.709c0.049,0.206,0.15,0.343,0.123,0.568c-0.026,0.212-0.107,0.387-0.091,0.608
	c0.231,0.165,0.606,0.513,0.661,0.776c0.064,0.304-0.096,0.656-0.231,0.917c-0.13,0.252-0.42,0.393-0.535,0.626
	c-0.05,0.102-0.001,0.202-0.03,0.298c-0.051,0.17-0.217,0.293-0.375,0.387c-0.1-0.111-0.198-0.085-0.302-0.008
	c-0.079,0.059-0.1,0.186-0.165,0.26c-0.058,0.068-0.184,0.123-0.23,0.19c-0.239,0.349-0.018,0.917-0.277,1.243
	c-0.135,0.17-0.19,0.083-0.415,0.144c-0.215,0.058-0.323,0.245-0.512,0.341c-0.185,0.095-0.498,0.042-0.647,0.177
	c-0.137,0.125-0.092,0.293-0.1,0.457c-0.011,0.208-0.06,0.351-0.162,0.53c-0.159,0.281-0.257,0.581-0.125,0.909
	c0.138,0.34,0.294,0.468,0.31,0.85c0.012,0.286,0.024,0.627,0.068,0.917c0.044,0.291,0.167,0.525-0.003,0.786
	c-0.106,0.163-0.184,0.204-0.224,0.396c-0.038,0.183-0.024,0.392-0.098,0.572c-0.108,0.267-0.333,0.368-0.546,0.552
	c-0.345,0.297-0.283,0.449-0.359,0.815c-0.045,0.213-0.353,0.675-0.566,0.77c-0.196,0.087-0.554,0.024-0.772,0.058
	c-0.383,0.06-0.554,0.11-0.723,0.454c-0.133,0.272-0.272,0.41-0.48,0.611c-0.214,0.206-0.18,0.417-0.317,0.668
	c-0.089,0.163-0.271,0.296-0.314,0.515c-0.1,0.507-0.048,1.333,0.162,1.808c0.233,0.53,0.789,0.411,1.134,0.76
	c0.138,0.139,0.233,0.348,0.4,0.454c0.133,0.083,0.314,0.048,0.448,0.131c0.289,0.179,0.455,0.687,0.612,0.981
	c0.223,0.417,0.397,0.329,0.761,0.568c0.388,0.254,0.809,0.391,0.614,0.97c-0.181,0.54-0.627,0.962-0.722,1.533
	c-0.179,1.075,0.078,1.994,0.556,2.942c0.159,0.317,0.361,0.56,0.713,0.689c0.145,0.053,0.29,0.04,0.439,0.095
	c0.127,0.047,0.25,0.153,0.39,0.166c0.248,0.024,0.551-0.202,0.804-0.014c0.09,0.067,0.096,0.214,0.175,0.292
	c0.128,0.127,0.331,0.119,0.485,0.22c0.305,0.201,0.171,0.399,0.303,0.667c0.154,0.312,0.421,0.327,0.421,0.776
	c0,0.309-0.093,0.754,0.17,0.981c0.165,0.142,0.4,0.127,0.582,0.252c0.25,0.17,0.402,0.453,0.609,0.668
	c0.15-0.171,0.557-0.215,0.773-0.299c0.1,0.521,0.105,1.092-0.025,1.607c0.825,0.14,1.557-0.095,2.086,0.651
	c0.106,0.15,0.204,0.317,0.239,0.502c0.036,0.187-0.031,0.402,0.014,0.583c0.06,0.246,0.464,0.397,0.684,0.5
	c0.298,0.138,0.606,0.062,0.813,0.365c0.185,0.271,0.301,0.699,0.323,1.028c0.01,0.143-0.048,0.374,0.019,0.499
	c0.056,0.106,0.312,0.254,0.429,0.306c0.267,0.117,0.677,0.088,0.835,0.385c0.121,0.227,0.033,0.551,0.146,0.788
	c0.296,0.618,0.53,0.265,1.023,0.246c0.279-0.191,0.613,0.119,0.689,0.38c0.142,0.49-0.02,0.739,0.49,0.979
	c0.325,0.152,0.42,0.49,0.742,0.645c0.293,0.141,0.584,0.083,0.852-0.034c0.351-0.153,1.06-0.302,1.409-0.085
	c0.282,0.176,0.553,0.588,0.496,0.931c-0.033,0.201-0.173,0.346-0.157,0.563c0.009,0.118,0.064,0.25,0.102,0.361
	c0.113,0.331,0.302,0.617,0.384,0.965c-0.268,0.125-0.375,0.097-0.511,0.36c-0.164,0.318-0.285,0.451-0.652,0.555
	c-0.425,0.12-1.235,0.175-1.447,0.636c-0.173,0.377,0.037,1.108,0.251,1.429c0.159,0.239,0.758,0.59,0.553,0.898
	c-0.11,0.166-0.223,0.075-0.245,0.311c-0.012,0.136,0.066,0.251,0.131,0.357c0.215,0.35,0.625,0.262,0.993,0.263
	c0.94,0.002,1.88-0.113,2.823-0.114c0.258,0,0.985,0.125,1.165-0.067c0.121-0.129,0.06-0.426,0.061-0.592
	c0.003-0.247,0.088-0.476,0.11-0.704c0.024-0.257-0.186-0.464-0.263-0.7c-0.074-0.226-0.116-0.478-0.096-0.718
	c0.017-0.207,0.156-0.362,0.16-0.567c0.008-0.427-0.419-0.432-0.627-0.702c-0.313-0.407-0.318-0.568-0.038-0.962
	c0.271-0.38,0.071-0.643,0.187-1.075c0.056-0.21,0.29-0.282,0.409-0.451c0.089-0.128,0.15-0.309,0.211-0.452
	c0.114-0.27,0.104-0.444-0.045-0.692c-0.165-0.274-0.351-0.496-0.349-0.829c0.002-0.337-0.04-0.475-0.199-0.766
	c-0.175-0.32,0.112-0.473,0.018-0.782c-0.03-0.097-0.097-0.133-0.173-0.207c-0.176-0.174-0.209-0.361-0.333-0.528
	c-0.159-0.215-0.453-0.182-0.585-0.427c-0.039-0.071-0.042-0.166-0.083-0.234c-0.148-0.241-0.185-0.038-0.461-0.138
	c-0.18-0.065-0.369-0.335-0.543-0.452c-0.132-0.088-0.34-0.158-0.457-0.264c-0.304-0.277-0.516-0.941-0.479-1.354
	c0.034-0.379,0.153-0.335,0.38-0.535c0.166-0.146,0.172-0.375,0.343-0.52c0.364-0.308,0.785-0.544,1.233-0.656
	c0.453-0.114,0.547-0.618,0.619-1.04c0.083-0.489-0.021-1.025,0.181-1.489c0.146-0.337,0.548-0.582,0.473-1.004
	c-0.051-0.287-0.323-0.409-0.274-0.71c0.063-0.39,0.328-0.742,0.42-1.123c0.071-0.296-0.055-0.565-0.011-0.863
	c0.038-0.259,0.384-0.346,0.318-0.606c0.158-0.104,0.403-0.292,0.534-0.429c0.092-0.096,0.126-0.251,0.213-0.356
	c0.273-0.33,0.813-0.368,1.048-0.737c0.069-0.109,0.179-0.149,0.237-0.269c0.049-0.1,0.023-0.231,0.079-0.339
	c0.133-0.254,0.427-0.351,0.697-0.33c0.324,0.025,0.885,0.124,1.151,0.3c0.285,0.188,0.391,0.548,0.686,0.741
	c0.211-0.111,0.564,0.015,0.783-0.127c0.207-0.135,0.241-0.466,0.498-0.58c0.154-0.069,0.338-0.006,0.52-0.008
	c0.243-0.002,0.473-0.042,0.695-0.135c0.337-0.142,0.622-0.461,0.974-0.525c0.385-0.07,0.796,0.104,1.135-0.093
	c0.175-0.102,0.312-0.264,0.497-0.35c0.193-0.09,0.421-0.075,0.594-0.206c0.19-0.144,0.251-0.333,0.471-0.444
	c0.177-0.09,0.357-0.165,0.521-0.279c0.581-0.402,0.651-0.764,0.442-1.407c-0.193-0.593-0.155-0.847,0.08-1.422L146.121,152.869z"/>
</svg>
