<?xml version="1.0" encoding="utf-8"?>
<!-- Generator: Adobe Illustrator 26.0.3, SVG Export Plug-In . SVG Version: 6.00 Build 0)  -->
<svg version="1.1" id="Isolation_Mode" xmlns="http://www.w3.org/2000/svg" xmlns:xlink="http://www.w3.org/1999/xlink" x="0px"
	 y="0px" viewBox="0 0 200 200" enable-background="new 0 0 200 200" xml:space="preserve">
<path fill="#1E8346" d="M196.404,71.008c-0.032-0.26-0.038-0.622-0.237-0.825c-0.377-0.383-0.395,0.142-0.575,0.345
	c-0.123-0.029-0.218-0.105-0.282-0.212c-0.084-0.139,0-0.282-0.049-0.381c-0.136-0.277-0.094-0.04-0.297-0.083
	c-0.223-0.047-0.569-0.297-0.594-0.566c-0.013-0.143,0.229-0.36,0.124-0.503c-0.159-0.214-0.349,0.027-0.465,0.07
	c-0.277,0.103-0.393,0.072-0.672-0.039c-0.286-0.114-0.497-0.196-0.409-0.537c0.041-0.159,0.23-0.239,0.186-0.432
	c-0.642-0.108-0.392,0.426-0.833,0.492c-0.434,0.064-1.134-0.241-1.351-0.595c-0.173-0.282-0.187-0.538-0.13-0.867
	c0.027-0.158,0.049-0.315,0.146-0.451c0.034-0.049,0.2-0.129,0.209-0.145c0.164-0.315-0.058-0.267-0.342-0.347
	c-0.267-0.075-0.468-0.187-0.677-0.386c-0.415-0.395-0.755-0.836-1.181-1.221c-0.39-0.351-0.698-0.42-1.208-0.578
	c-0.284-0.088-0.432-0.186-0.591-0.447c-0.112-0.184-0.177-0.579-0.333-0.7c-0.082-0.064-0.447-0.155-0.552-0.202
	c-0.189-0.085-0.199-0.147-0.447-0.049c-0.387,0.153-0.611,0.28-1.086,0.222c-0.509-0.062-0.63-0.514-0.901-0.926
	c-0.457-0.695-0.891-1.264-1.024-2.086c-0.038-0.237,0.015-0.483-0.031-0.72c-0.057-0.296-0.288-0.455-0.349-0.745
	c-0.064-0.3-0.059-0.433-0.191-0.722c-0.102-0.224-0.07-0.434-0.118-0.69c-0.043-0.227-0.162-0.428-0.205-0.643
	c-0.052-0.26,0.004-0.535-0.022-0.801c-0.04-0.415-0.066-0.965-0.066-1.417c-0.132-0.167-0.101-0.424-0.176-0.628
	c-0.139-0.375-0.469-0.584-0.523-0.991c-0.063-0.48-0.002-0.983,0.12-1.436c0.176-0.652,0.064-1.505-0.027-2.161
	c-0.077-0.554-0.444-0.945-0.671-1.424c-0.114-0.24-0.203-0.51-0.134-0.777c0.056-0.218,0.23-0.347,0.277-0.566
	c0.083-0.393-0.076-0.947-0.113-1.345c-0.031-0.346,0.063-0.723-0.022-1.056c-0.081-0.315-0.229-0.508-0.191-0.864
	c0.035-0.325,0.22-0.593,0.222-0.926c0.001-0.224-0.15-0.608,0.22-0.576c0.016-0.58,0.016-1.139-0.149-1.689
	c-0.149-0.499-0.166-1.055-0.357-1.54c-0.384-0.977,0.175-2.278-0.358-3.206c-0.144-0.252-0.623-0.731-0.594-1.051
	c0.018-0.197,0.224-0.261,0.253-0.475c0.017-0.13-0.05-0.335-0.094-0.455c-0.076-0.208-0.411-0.945,0.186-0.767
	c0.247,0.074,0.282,0.377,0.43,0.555c0.202,0.241,0.528,0.141,0.704,0.351c0.131,0.156,0.095,0.458-0.176,0.392
	c0.003,0.371,0.384,1.24,0.818,1.098c0.485-0.159,0.234-0.863,0.124-1.236c-0.127-0.431-0.494-0.756-0.793-1.079
	c-0.314-0.339-0.569-0.723-0.885-1.059c-0.401-0.428-0.817-0.633-1.048-1.2c-0.217-0.533-0.549-1.028-0.855-1.517
	c-0.243-0.388-0.655-0.744-0.805-1.184c-0.159-0.462-0.141-1.07-0.179-1.557c-0.03-0.383-0.045-0.775-0.082-1.156
	c-0.034-0.355-0.2-0.935-0.112-1.27c0.074-0.28,0.012-0.578,0.081-0.864l0.028-0.119h-32.394l-0.964,2.896l-5.284,0.476
	l-4.375-3.371l-94.275,0.042l0.021,24.731H28.105l0.116,52.094c-0.432-0.002-0.922-0.196-1.329-0.325
	c-0.591-0.189-1.12-0.339-1.746-0.351c-0.789-0.015-1.535-0.037-2.322,0.083c-0.568,0.086-1.024,0.516-1.583,0.652
	c-0.857,0.21-1.695-0.228-2.547-0.228c-0.394,0-0.706-0.014-0.994,0.254c-0.213,0.198-0.414,0.427-0.589,0.656
	c-0.163,0.214-0.306,0.43-0.531,0.586c-0.18,0.125-0.6,0.363-0.809,0.407c-0.052,0.237-0.089,0.527-0.064,0.77
	c0.037,0.354,0.17,0.351,0.413,0.534c0.377,0.284,0.416,0.856,0.476,1.284c0.032,0.228-0.03,0.411-0.07,0.625
	c-0.057,0.3,0.2,0.351,0.128,0.613c-0.094,0.34-0.513,0.401-0.672,0.688c-0.09,0.162-0.066,0.398-0.083,0.579
	c-0.014,0.156-0.154,0.297-0.149,0.444c-0.201,0.153-0.501,0.039-0.701,0.17c-0.164,0.107-0.318,0.337-0.451,0.483
	c-0.217,0.24-0.742,0.587-0.835,0.879c-0.059,0.186,0.075,0.453,0.001,0.632c-0.049,0.117-0.138,0.129-0.274,0.161
	c-0.406,0.093-0.408,0.223-0.678,0.528l0.676,1.902c-0.317,0.076-0.646,0.086-0.96,0.169c-0.25,0.067-0.472,0.196-0.724,0.273
	c-0.315,0.095-0.637,0.151-0.956,0.23c-0.36,0.089-0.699,0.345-1.059,0.386c0.02,0.41-0.227,0.765-0.19,1.181
	c0.156,0,0.53,0.155,0.594,0.299c0.066,0.15-0.046,0.445-0.067,0.601c-0.023,0.169-0.079,0.483-0.015,0.643
	c0.07,0.175,0.311,0.221,0.277,0.447c-0.036,0.236-0.364,0.313-0.319,0.572c0.026,0.146,0.196,0.332,0.308,0.417
	c0.134,0.102,0.329,0.17,0.49,0.225c0.163,0.056,0.391,0.045,0.538,0.117c-0.081,0.301,0.3,0.346,0.193,0.628
	c-0.024,0.063-0.107,0.131-0.144,0.193c-0.103,0.18-0.058,0.374-0.058,0.576c-0.183-0.007-0.471,0.006-0.635,0.086
	c-0.214,0.103-0.266,0.391-0.438,0.506c-0.171,0.113-0.447,0.027-0.638,0.101c-0.177,0.07-0.099,0.17-0.216,0.285
	c-0.159,0.156-0.472,0.052-0.651,0.155c-0.114,0.065-0.137,0.203-0.208,0.306c-0.24,0.353-0.5,0.264-0.862,0.331
	c-0.324,0.06-0.256,0.373-0.415,0.617c-0.165,0.255-0.416,0.448-0.603,0.689c-0.203,0.261-0.472,0.477-0.671,0.737
	c-0.155,0.202-0.109,0.366,0.064,0.541c0.101,0.102,0.308,0.164,0.385,0.28c0.083,0.125,0.041,0.103,0.009,0.234
	c-0.066,0.265-0.091,0.52,0.122,0.755l0.909,0.951l0.021,1.142l0.867,1.268l-2.008,2.262c-0.199,0.151-0.603,0.167-0.848,0.19
	c-0.39,0.037-0.46,0.057-0.592,0.403c-0.105,0.275-0.12,0.526-0.421,0.591c-0.136,0.03-0.208-0.029-0.28,0.095
	c-0.052,0.089-0.015,0.276,0.005,0.367c-0.062,0.042-0.123,0.14-0.19,0.172c-0.317,0.5-0.47,1.08-0.651,1.644
	c-0.074,0.231-0.191,0.398-0.346,0.58c-0.175,0.206-0.163,0.202,0.001,0.418c0.253,0.334,0.06,0.672,0.329,0.975
	c0.329,0.369,0.649,0.797,1.174,0.718c0.6-0.09,1.21-0.085,1.818-0.085c0.105-0.272,0.517-0.256,0.756-0.397
	c0.352-0.209,0.157-0.533,0.153-0.903c0.274,0.181,0.525,0.354,0.814,0.534c0.246,0.154,0.448,0.236,0.708,0.334
	c0.245,0.092,0.416,0.268,0.676,0.343c0.31,0.089,0.689,0.115,0.972,0.28c0.027,0.242-0.141,0.495-0.191,0.729
	c-0.043,0.202-0.054,0.465-0.189,0.628c-0.109,0.132-0.297,0.162-0.424,0.289c-0.156,0.156-0.383,0.418-0.447,0.625
	c0.278,0.3,0.584,0.306,0.775,0.738c-0.296,0.142,0.013,0.515,0.093,0.678c0.143,0.292,0.045,0.616,0.163,0.901
	c0.096,0.231,0.27,0.42,0.352,0.663c0.071,0.213,0.07,0.432,0.059,0.663c-0.017,0.351-0.291,1.138,0.268,1.081
	c0.229-0.023,0.34-0.194,0.557-0.232c0.297-0.052,0.604-0.022,0.907-0.022l-0.93,4.228c0.001,0.368-0.046,0.839,0.209,1.118
	c0.289,0.315,0.468,0.694,0.768,1.001c0.306,0.313,0.77,0.354,1.162,0.545c0.24,0.117,0.405,0.139,0.44,0.401
	c0.02,0.152-0.033,0.279-0.065,0.423c0.645,0.002,1.284-0.173,1.929-0.146c0.045,0.196,0.007,0.405-0.002,0.6
	c-0.007,0.146-0.084,0.457-0.004,0.582c0.126,0.197,0.405,0.052,0.488,0.252c0.05,0.119-0.064,0.397-0.064,0.529
	c0,1.291-1.141,2.533-1.141,3.805c0,0.677,0.535,1.171,0.904,1.713c0.33,0.484,0.341,1.013,0.959,1.248
	c0.306,0.116,0.608,0.236,0.885,0.426c0.294,0.201,0.363,0.515,0.583,0.76c0.417,0.465,0.909,0.718,1.403,1.069l4.407,7.007
	l0.253,2.727c1.076,0,2.161,0.028,3.236-0.015c0.212-0.008,0.422-0.016,0.635-0.016c0.136,0,0.434,0.057,0.549-0.019
	c0.117-0.078,0.259-0.405,0.337-0.52c0.174-0.26,0.375-0.312,0.683-0.336c0.18-0.014,0.307,0.013,0.373-0.158
	c0.05-0.128,0.009-0.256,0.152-0.356c0.182-0.127,0.523-0.122,0.738-0.15c0.223-0.029,0.446-0.046,0.671-0.047
	c0.2,0,0.265,0.052,0.443,0.12c0.136,0.052,0.188,0.032,0.302-0.056c0.099-0.077,0.163-0.177,0.284-0.223
	c0.133-0.051,0.323-0.075,0.463-0.106c0.302-0.067,0.594-0.098,0.855,0.082c0.125,0.087,0.117,0.13,0.265,0.112
	c0.109-0.013,0.203-0.083,0.328-0.087c0.255-0.008,0.438,0.157,0.71,0.111c0.239-0.04,0.272-0.23,0.457-0.342
	c0.216-0.13,0.412-0.037,0.572,0.124c0.146,0.148,0.335,0.336,0.566,0.28c0.148-0.035,0.29-0.143,0.437-0.189
	c0.33-0.103,0.597-0.196,0.879-0.424c0.118-0.095,0.226-0.206,0.348-0.297c0.117-0.088,0.329-0.097,0.423-0.18
	c0.219-0.193,0.024-0.583,0.254-0.807c0.125-0.122,0.179-0.117,0.242-0.273c0.054-0.134,0.09-0.198,0.195-0.297
	c0.193-0.183,0.118-0.378,0.204-0.621c0.093-0.261,0.412-0.231,0.428-0.566c0.017-0.343-0.226-0.303-0.399-0.53
	c-0.112-0.146-0.038-0.276,0.002-0.443c0.058-0.247,0.038-0.547,0.165-0.777c0.048-0.088,0.125-0.156,0.176-0.242
	c0.044-0.075,0.072-0.165,0.126-0.232c0.117-0.146,0.141-0.03,0.315-0.106c0.119-0.052,0.05-0.113,0.126-0.183
	c0.148-0.136,0.463,0.116,0.583,0.026c0.13-0.098,0.122-0.403,0.313-0.453c0.246-0.064,0.6,0.287,0.823,0.32
	c0.015-0.096-0.088-0.173-0.008-0.262c0.083-0.093,0.32-0.082,0.442-0.104c0.251-0.047,0.47-0.233,0.733-0.195
	c0.17,0.025,0.218,0.087,0.372,0.03c0.156-0.058,0.213-0.152,0.402-0.114c0.145,0.03,0.253,0.167,0.407,0.125
	c0.09-0.025,0.189-0.09,0.285-0.119c0.273-0.083,0.429-0.215,0.708-0.072c0.115-0.256,0.459-0.01,0.657-0.038
	c0.215-0.031,0.289-0.321,0.496-0.297c0.094,0.011,0.152,0.127,0.239,0.154c0.065,0.02,0.225,0.013,0.295-0.004
	c0.133-0.033,0.254-0.144,0.379-0.195c0.063-0.025,0.12-0.063,0.195-0.051c0.044,0.007,0.035,0.065,0.074,0.075
	c0.25,0.06,0.52-0.054,0.772,0.05c0.161,0.066,0.258,0.262,0.438,0.286c0.127,0.017,0.239-0.124,0.349-0.057
	c0.041,0.025,0.057,0.129,0.089,0.167c0.043,0.05,0.144,0.102,0.197,0.144v2.304c0.591,0.021,0.986,0.312,1.353,0.738
	c0.192,0.223,0.349,0.404,0.463,0.676c0.105,0.252,0.315,0.451,0.425,0.699l1.088,0.952l1.237,3.435l0.634,0.603l3.916,0.993
	l3.599-1.411l1.236-0.174l8.862,0.127l1.601,3.17h8.159L82.82,173.4l0.698-1.12l0.38-0.296l1.929-1.575l0.122-0.856l6.045-0.148
	v-3.89l4.608-2.389h0.824l6.024,3.741l3.615,3.044v-0.507h4.016l1.353-0.212l0.719-0.592l4.888-5.601l2.341-4.206l1.775-0.93
	l3.784-3.678l-0.951-1.437v-6.384l-3.424-2.854h7.546l0.064-0.824l-0.148-2.515l6.362,0.211l-0.423,0.528l-0.824,4.967l-0.55,1.48
	l1.564,9.449l-0.169,0.613l3.044,1.564l1.633,2.214l1.68,1.379l1.104,1.818c0.173,0.151,0.582,0.144,0.809,0.244
	c0.055,0.301-0.019,0.616,0.063,0.918c0.104,0.383,0.205,0.7,0.226,1.108c0.033,0.66-0.324,1.277-0.337,1.914l-0.592,0.634
	l-0.486,3.065h2.663c0.008-0.325-0.021-0.722,0.069-1.036c0.049-0.172,0.148-0.328,0.201-0.502c0.08-0.261,0.08-0.534,0.179-0.792
	c0.141-0.37,0.188-0.785,0.375-1.126c0.188-0.342,0.468-0.63,0.55-1.003c0.083-0.379,0.042-0.793,0.042-1.179
	c0-0.209-0.05-0.505,0.025-0.704c0.185-0.493,0.908-0.505,1.159-0.953c0.111-0.198,0.082-0.474,0.114-0.694
	c0.039-0.263,0.124-0.562,0.077-0.831c-0.096-0.534-0.504-1.01-0.568-1.549c-0.046-0.39,0.225-0.653,0.102-1.028
	c-0.097-0.294-0.278-0.595-0.296-0.908c-0.023-0.385,0.39-0.537,0.617-0.771c0.214-0.222,0.463-0.458,0.64-0.705
	c0.165-0.229,0.332-0.5,0.464-0.752c0.149-0.286,0.22-0.611,0.434-0.854c0.184-0.209,0.446-0.378,0.677-0.531
	c0.263-0.174,0.616-0.505,0.937-0.544c0.223,0.382,0.637,0.661,0.926,0.988c0.186,0.211,0.39,0.344,0.611,0.509
	c0.087,0.065,0.157,0.15,0.25,0.207c0.127,0.079,0.257,0.064,0.387,0.115c-0.069,0.094-0.15,0.204-0.135,0.32
	c0.313-0.148,0.467,0.089,0.766,0.097c0.138-0.286,0.253-0.486,0.253-0.818c-0.001-0.373,0.044-0.401,0.357-0.6
	c0.234-0.149,0.531-0.257,0.735-0.444c0.167-0.153,0.163-0.465,0.07-0.691c-0.08-0.193-0.2-0.189-0.19-0.404
	c0.013-0.278,0.132-0.583,0.167-0.87c0.034-0.284,0.068-0.578,0.087-0.863c0.018-0.257,0.203-0.515,0.168-0.762
	c-0.038-0.277-0.471-0.696-0.761-0.696l1.31-1.902c0.062-0.341-0.031-0.8,0.104-1.118c0.101-0.234,0.284-0.235,0.297-0.532
	c0.014-0.307,0.018-0.611,0.037-0.918c0.029-0.453-0.005-0.694-0.224-1.09c-0.104-0.188-0.117-0.221-0.052-0.4
	c0.04-0.108,0.093-0.212,0.133-0.32c0.113-0.309,0.252-0.453,0.507-0.652c0.258-0.201,0.444-0.466,0.691-0.678
	c0.248-0.213,0.606-0.307,0.874-0.493c0.365-0.253,0.39-0.563,0.528-0.959c0.141-0.406,0.23-0.842,0.634-1.062l3.53-6.236
	c0.01-0.145,0.155-0.297,0.256-0.399c0.184-0.185,0.289-0.156,0.526-0.113c0.307,0.056,0.567,0.104,0.867,0
	c0.712-0.246,1.606-0.126,2.22-0.65c0.255,0.001,0.889-0.082,1.112,0.063c0.194,0.126,0.084,0.261,0.373,0.275
	c0.134,0.006,0.443,0.051,0.521-0.053c0.058-0.077,0.018-0.371,0.023-0.465c0.022-0.386,0.066-0.769,0.089-1.156
	c0.012-0.203,0.121-0.502,0.018-0.685c-0.034-0.06-0.159-0.106-0.203-0.178c-0.127-0.205-0.035-0.405-0.094-0.634l1.585-4.946
	l1.205-1.839l0.254-1.501l0.486-1.374l0.55-0.655l-0.381-1.754l1.078-3.361l-0.423-0.867l-1.015-9.977l1.226-0.761l0.085-0.254
	l0.93-2.304v-0.656l0.835-2.832l0.92-1.458l1.395-4.471c0.059-0.078,0.147-0.128,0.221-0.19c0.099-0.082,0.262-0.199,0.331-0.297
	c0.171-0.242-0.113-0.402-0.165-0.623c-0.036-0.153,0.037-0.328,0.056-0.476c0.026-0.204,0.053-0.506,0.238-0.633
	c0.006-0.06,0.004-0.121-0.006-0.18c-0.077-0.016-0.145-0.034-0.212-0.076c-0.057-0.036-0.113-0.157-0.16-0.181
	c-0.083-0.041-0.072-0.005-0.139,0.02c-0.078,0.03-0.132,0.125-0.213,0.019c-0.06-0.078,0.003-0.301,0.009-0.388
	c0.014-0.193,0.041-0.264-0.124-0.364c-0.093-0.056-0.302-0.116-0.311-0.25c-0.012-0.164,0.22-0.259,0.287-0.365
	c0.126-0.198,0.026-0.573,0.045-0.795c0.017-0.19,0.109-0.312,0.213-0.465c0.113-0.165,0.344-0.467,0.525-0.556
	c0.093-0.046,0.208-0.012,0.29-0.1c0.054-0.058,0.084-0.162,0.135-0.227c0.257-0.327,0.266-0.766,0.2-1.184
	c-0.03-0.188-0.178-0.309-0.14-0.506c0.037-0.195,0.21-0.453,0.172-0.652c-0.02-0.102-0.141-0.128-0.18-0.222
	c-0.057-0.139-0.012-0.413,0.037-0.538c0.073-0.186,0.274-0.269,0.254-0.498c-0.015-0.171-0.151-0.281-0.159-0.453
	c-0.015-0.287,0.249-0.341,0.502-0.253c0.115,0.04,0.241,0.226,0.35,0.247c0.073,0.014,0.133-0.047,0.199-0.081
	c0.096-0.049,0.172-0.101,0.303-0.071c0.077,0.018,0.097,0.064,0.163,0.097c0.173,0.086,0.781,0.113,0.879-0.08
	c0.463-0.009,1.115-0.199,1.479,0.161c0.063,0.062,0.105,0.167,0.179,0.217c0.124,0.083,0.318,0.044,0.465,0.016l1.22-1.68
	c0-0.171-0.013-0.347,0-0.517c0.012-0.159,0.155-0.252,0.16-0.394c0.007-0.236-0.369-0.47-0.14-0.736
	c0.074-0.086,0.273-0.145,0.376-0.2c0.173-0.092,0.319-0.104,0.515-0.143c0.347-0.069,0.677-0.066,1.028-0.087
	c0.353-0.022,0.754-0.234,1.105-0.222c0-0.371-0.141-1.02,0.188-1.275c0.147-0.114,0.521-0.192,0.703-0.093
	c0.187,0.102,0.135,0.434,0.216,0.611c0.342-0.142,0.756-0.055,1.064-0.289c0.138-0.105,0.127-0.174,0.178-0.325
	c0.07-0.208,0.205-0.562,0.35-0.716c0.219,0.23,0.433-0.026,0.637-0.104c0.13,0.132,0.157,0.333,0.298,0.465
	c0.187-0.254,0.319-0.65,0.686-0.638c0.284,0.01,0.482,0.126,0.727,0.24c0.124,0.058,0.302,0.098,0.435,0.03
	c0.179-0.091,0.34-0.43,0.372-0.614c0.03-0.171,0.001-0.221,0.159-0.301c0.116-0.059,0.288-0.115,0.415-0.13
	c0.109-0.013,0.296,0.015,0.264-0.175l1.247-2.917L196.404,71.008z"/>
</svg>
