<?xml version="1.0" encoding="utf-8"?>
<!-- Generator: Adobe Illustrator 26.0.3, SVG Export Plug-In . SVG Version: 6.00 Build 0)  -->
<svg version="1.1" xmlns="http://www.w3.org/2000/svg" xmlns:xlink="http://www.w3.org/1999/xlink" x="0px" y="0px"
	 viewBox="0 0 200 200" enable-background="new 0 0 200 200" xml:space="preserve">
<g id="Layer_1">
	<g id="Layer_1_00000075879624959596184900000007102216081240906125_">
		<g id="Layer_1_00000107551159852787612550000017757744099325915571_">
			<g id="Layer_1_00000128480095285341338950000008464522443776971395_">
			</g>
		</g>
	</g>
</g>
<g id="Isolation_Mode">
	<path fill="#1E8346" d="M186.266,99.722c-0.015,0.512,0.249,0.678,0.543,1.037c0.261,0.319,0.342,0.651,0.329,1.056
		c-0.011,0.364-0.067,0.736-0.117,1.096c-0.039,0.284-0.112,0.534-0.173,0.803c-0.209,0.915-0.198,1.933-0.546,2.809
		c-0.148,0.374-0.517,0.521-0.811,0.773c-0.227,0.194-0.71,0.453-0.736,0.759c-0.023,0.27,0.231,0.509,0.297,0.761
		c0.084,0.319-0.126,0.592-0.196,0.888c-0.056,0.235-0.161,0.662-0.042,0.876c0.085,0.154,0.461,0.212,0.654,0.278
		c0.213,0.072,0.867,0.334,0.936,0.524c0.064,0.175-0.064,0.578-0.06,0.764c0.008,0.315,0.295,0.57,0.33,0.88
		c0.032,0.283-0.094,0.559-0.195,0.814c-0.056,0.143-0.153,0.385-0.075,0.517c0.085,0.143,0.282,0.129,0.231,0.351
		c-0.092,0.399-0.552,0.592-0.504,1.063c0.533,0.025,1.04,0.344,1.573,0.302c0.394-0.031,0.7-0.12,1.031-0.314
		c0.193-0.114,0.415-0.28,0.638-0.313c0.144,0.328,0.423,0.631,0.175,0.98c-0.179,0.252-0.538,0.313-0.51,0.663l2.403,1.628
		l-0.795,4.264v2.21c-0.535-0.002-1.078-0.012-1.617-0.013c-0.303,0-0.892,0.004-0.99,0.397c-0.05,0.201,0.18,0.462,0.285,0.618
		c0.065,0.096,0.141,0.203,0.178,0.314c0.032,0.095-0.038,0.195,0,0.274c-0.278,0-0.486,0.029-0.726,0.155
		c-0.257,0.135-0.262,0.014-0.372-0.175c-0.108-0.187-0.18-0.075-0.304,0.036c-0.188,0.17-0.239,0.293-0.337,0.521
		c-0.088,0.202-0.109,0.323-0.047,0.536c0.065,0.221,0.163,0.45,0.172,0.682c0.015,0.406-0.294,0.38-0.517,0.622v0.646l0.555,0.349
		v1.124l-1.589,1.647v0.698l-3.237,4.729h-2.442l-1.434,1.047l-0.038,0.834l-0.388,0.659l0.949,6.416l-0.911,2.074l-2.936,3.809
		l1.221,0.921l-0.407,0.485l1.793,2.823c-0.099,0.116-0.292,0.077-0.447,0.078c-0.271,0-0.767-0.039-0.939,0.239l-11.756,12.967
		l-12.715,13.956l-1.835,1.189l-0.982-1.292h-1.215l-1.163-1.008l-1.783,0.465l-5.737-1.37l-4.341,0.336l-0.646,0.62l-3.334-0.258
		l-4.846,0.827c-0.193-0.154-0.345-0.35-0.535-0.507c-0.314-0.258-0.599-0.543-0.909-0.81c-0.208-0.178-0.337-0.185-0.599-0.162
		c-0.35,0.03-0.695,0.074-1.046,0.106c-0.329,0.03-0.615,0.082-0.927,0.182c-0.22,0.07-0.245,0.002-0.385-0.152
		c-0.116-0.129-0.232-0.259-0.345-0.391c-0.176-0.205-0.359-0.431-0.584-0.581c-0.196-0.131-0.397-0.143-0.626-0.161
		c-0.157-0.012-0.348,0.03-0.431-0.122c-0.078-0.143,0.02-0.307-0.061-0.45l-1.938-0.956l-2.662-0.517l-1.06-0.827l-2.655-0.439
		c-0.337,0-0.542,0.029-0.849,0.155c-0.29,0.119-0.548,0.363-0.854,0.433c-0.234,0.053-0.525,0.013-0.764,0.013
		c-0.43,0-0.564-0.082-0.776,0.29c-0.12,0.212-0.174,0.279-0.417,0.315c-0.201,0.03-0.419,0.018-0.622-0.004
		c-0.593-0.063-1.507-0.306-2.087-0.002c-0.304,0.158-0.469,0.636-0.818,0.344c-0.219-0.183-0.407-0.387-0.624-0.576
		c-0.465-0.402-1.02-0.73-1.359-1.24c-0.141-0.213-0.238-0.461-0.367-0.679c-0.127-0.214-0.259-0.584-0.446-0.755
		c-0.332,0.116-0.731,0.166-1.078,0.21c-0.345,0.043-0.777,0.167-1.119,0.136c-0.338-0.03-0.635-0.263-0.941-0.387
		c-0.282-0.114-0.625-0.136-0.873-0.316c-0.176-0.127-0.317-0.307-0.457-0.476c-0.188-0.226-0.417-0.427-0.549-0.696
		c-0.117-0.239-0.109-0.514-0.192-0.768c-0.097-0.296-0.16-0.527-0.16-0.844c0-0.54,0.039-1.082,0.039-1.626l1.124-1.405
		l-1.764-1.289l-4.484-0.898l-5.453-2.739l-1.719,0.995l-3.25-1.583c-0.779-0.333-1.69-0.206-2.518-0.248
		c-0.976-0.049-1.968-0.194-2.943-0.198c-0.802-0.003-1.565-0.248-2.371-0.211c-0.362,0.016-0.332-0.023-0.546-0.296
		c-0.189-0.242-0.393-0.509-0.424-0.825c-0.014-0.148,0.06-0.345-0.107-0.413c-0.141-0.058-0.417,0.066-0.552,0.077
		c-0.074-0.351-0.115-0.75-0.115-1.117c0-0.367,0.024-0.703-0.121-1.036c-0.174-0.4-0.345-0.792-0.51-1.194
		c-0.13-0.318-0.263-0.637-0.365-0.962c-0.062-0.199-0.297-0.528-0.277-0.729c-0.076-0.123-0.134-0.256-0.208-0.382
		c-0.086-0.146-0.197-0.266-0.296-0.403c-0.209-0.289-0.404-0.556-0.581-0.867c-0.167-0.294-0.42-0.532-0.62-0.803
		c-0.195-0.265-0.415-0.514-0.628-0.766c-0.137-0.162-0.216-0.347-0.336-0.518c-0.108-0.154-0.265-0.299-0.408-0.42
		c-0.324-0.273-0.673-0.52-1.014-0.764c-0.275-0.197-0.622-0.341-0.781-0.633c-0.086-0.158-0.124-0.324-0.219-0.479
		c-0.11-0.178-0.23-0.297-0.24-0.505c-0.009-0.188,0.095-0.462,0.18-0.624c0.19-0.364,0.233-0.614,0.273-1.03
		c0.033-0.342-0.094-0.696-0.019-1.031l-0.323-0.569l0.026-1.796l0.724-1.757l0.09-2.429l-0.633-1.537l0.433-3.231l-0.931-0.717
		l-0.872,0.213l-0.562-0.446l-1.221,0.446l-2.365-0.717l-0.93,0.368l-1.647-0.349l-1.802,0.698l0.446-4.128l-0.427-2.326
		l-2.087-4.09l-2.093-0.271l-1.241-1.292l-1.977-0.103l-3.153-1.344l-2.746-0.459l-0.581-1.299l-1.861-0.194l-1.505-2.546
		l-3.179-1.137l-0.827-1.732l-1.525-0.129l0.646-1.267l-1.034-0.93l-1.654,0.181l-1.706-0.982l-1.473-4.497l-1.408-3.534
		l-2.035-2.849v-1.163l0.775-0.814l-1.105-3.082l-2.888-1.725l-1.027-5.272c-0.454-0.317-0.929-0.609-1.339-0.999
		c-0.441-0.42-0.954-0.776-1.345-1.249c-0.265-0.321-0.403-0.765-0.746-1.014c-0.232-0.168-0.447-0.343-0.717-0.343l-2.093-2.558
		l-3.024-6.571l-1.88-1.26l-1.88-4.148l0.562-2.791c0.268,0.167,0.496,0.416,0.74,0.621c0.498,0.417,1.263,0.308,1.793,0.544
		c0.426-0.003,0.827-0.03,1.24,0.061c0.281,0.062,0.57,0.091,0.855,0.131c0.493,0.069,0.997,0.324,1.489,0.347
		c0.402-0.603,1.174-0.463,1.792-0.463c0.373,0,0.697,0,1.042-0.154c0.448-0.199,0.899-0.446,1.335-0.668
		c-0.07,0.495,0.419,0.758,0.812,0.846c0.614,0.137,1.053,0.354,1.57,0.695c0.201,0.132,0.392,0.269,0.563,0.438
		c0.166,0.163,0.399,0.295,0.545,0.47c0.228,0.275,0.22,0.654,0.256,0.988c0.032,0.289,0.075,0.597,0.365,0.725
		c0.46,0.203,1.082,0.195,1.571,0.314c0.401,0.099,0.808,0.25,1.22,0.201c0.336-0.039,0.511-0.227,0.796-0.392
		c0.491-0.285,1.159,0.072,1.709-0.072c-0.028-0.32,0.172-0.341,0.309-0.572c0.139-0.233-0.011-0.39-0.128-0.595
		c0.394-0.21,0.82-0.385,1.231-0.559c0.522-0.221,1.082-0.421,1.64-0.52c0.114,0.418,0.699,0.696,1.069,0.821
		c0.552,0.188,1.077,0.289,1.653,0.377c0.357,0.054,0.713,0.136,1.076,0.156c0.309,0.017,0.643,0.008,0.92,0.146
		c0.676,0.337,1.27,0.978,2.056,0.978c0.379,0,0.758,0.002,1.137,0c0.27-0.001,0.316-0.01,0.442,0.207
		c0.087,0.148,0.149,0.312,0.217,0.47c0.074,0.17,0.164,0.332,0.243,0.499c0.122,0.259,0.183,0.287,0.459,0.374
		c0.444,0.139,0.887,0.259,1.31,0.455c0.356,0.165,0.493,0.28,0.835,0.095c0.242-0.131,0.327-0.365,0.51-0.568
		c0.443-0.492,0.928-0.517,1.554-0.599c0.283-0.037,0.646-0.106,0.842-0.332c0.115-0.132,0.131-0.31,0.23-0.445
		c0.169-0.231,0.493-0.243,0.753-0.282c0.496-0.074,0.994-0.07,1.493-0.12c0.416-0.042,0.795-0.142,1.192-0.265
		c0.266-0.082,0.524-0.231,0.798-0.284c0.386-0.074,0.625,0.242,0.96,0.23c0.161-0.006,0.323-0.054,0.494-0.054
		c0.167,0,0.238,0.025,0.232-0.16c-0.004-0.134-0.12-0.178-0.154-0.298c-0.037-0.133,0.061-0.225,0.057-0.357
		c-0.006-0.203,0.208-0.065,0.316-0.118c0.165-0.08,0.082-0.195,0.13-0.34c0.079-0.237,0.386-0.438,0.554-0.633
		c0.248-0.288,0.319-0.32,0.714-0.324c0.313-0.003,0.543,0,0.619-0.339c0.041-0.183,0.166-0.719,0.026-0.863
		c-0.137-0.141-0.384,0.004-0.516-0.193c-0.192-0.286,0.325-0.75,0.573-0.873c0.399-0.197,0.816-0.064,1.228-0.079
		c-0.014-0.28-0.296-0.446-0.207-0.766c0.068-0.245,0.356-0.355,0.523-0.534c0.2-0.213,0.31-0.513,0.523-0.711
		c0.165-0.153,0.402-0.233,0.593-0.338c0.233-0.129,0.099-0.199,0.119-0.402c0.02-0.193,0.183-0.354,0.293-0.503
		c0.11-0.148,0.18-0.32,0.293-0.465c0.117-0.15,0.282-0.239,0.394-0.398c0.167-0.236,0.446-0.527,0.572-0.785
		c0.126-0.26,0.362-0.439,0.646-0.349c0.107,0.034,0.222,0.105,0.295,0.19c0.083,0.098,0.105,0.317,0.197,0.387
		c0.205,0.155,0.636-0.299,0.774-0.406c0.27-0.21,0.552,0.107,0.779,0.245c-0.125-0.318-0.081-0.686-0.2-0.987
		c-0.078-0.197-0.122-0.253-0.026-0.428c0.053-0.095,0.079-0.221,0.132-0.312c0.085-0.147,0.216-0.123,0.371-0.123
		c0.227,0,0.442-0.005,0.667-0.026c0.182-0.017,0.862,0.003,0.862-0.31c0-0.386,0.006-0.576,0.261-0.881
		c0.146,0.117,0.123,0.322,0.382,0.261c0.205-0.049,0.122-0.119,0.163-0.322c0.099-0.495,0.303-1.002,0.473-1.475
		c0.07-0.195,0.131-0.318,0.103-0.526c-0.019-0.139-0.122-0.291-0.118-0.436c0.009-0.316,0.291-0.453,0.544-0.573
		c0.264-0.125,0.711-0.066,0.667-0.397c-0.033-0.248-0.164-0.38-0.09-0.658c0.116-0.432,0.585-1.203,1.123-1.087
		c0.135,0.029,0.741,0.264,0.455-0.134c-0.088-0.123-0.502-0.283-0.635-0.359c0.126-0.148,0.29-0.207,0.342-0.418
		c0.035-0.143-0.046-0.324,0.003-0.463c0.131-0.368,0.53-0.482,0.859-0.516c0.211-0.022,0.42-0.056,0.605-0.174
		c0.163-0.104,0.237-0.277,0.372-0.388c0.328-0.268,0.524,0.251,0.923,0.171c0.014-0.128,0.023-0.261-0.074-0.354
		c0.391-0.139,0.625-0.41,0.989-0.566c0.297-0.128,0.479-0.148,0.747-0.357c0.608-0.473,1.21-0.902,1.637-1.525
		c0.117-0.171,0.204-0.43,0.438-0.431c0.21-0.001,0.295,0.076,0.43,0.221c0.202,0.218,0.332,0.447,0.623,0.56
		c0.197,0.077,0.493,0.252,0.705,0.232c-0.009-0.532,0.816-0.583,1.144-0.774c0.234-0.137,0.102-0.43,0.254-0.634
		c0.147-0.197,0.199-0.307,0.165-0.569c-0.014-0.11-0.041-0.254-0.119-0.337c-0.186,0.104-0.388,0.189-0.592,0.257
		c-0.134,0.045-0.493,0.148-0.626,0.093c0.132-0.302,0.537-0.45,0.602-0.773c0.025-0.125-0.033-0.322,0.106-0.402
		c0.083-0.048,0.286-0.041,0.378-0.021c0.051,0.011,0.118,0,0.171,0.004c0.048-0.148,0.027-0.373,0.099-0.51
		c0.061-0.116,0.333-0.204,0.332-0.326c-0.002-0.141-0.38-0.28-0.476-0.407c-0.204-0.27-0.356-0.574-0.08-0.84
		c0.281-0.27,0.531-0.376,0.911-0.362c0,0.252-0.152,0.368-0.295,0.556c0.247,0.315,0.746,0.382,1.119,0.394
		c0.212,0.007,0.488-0.005,0.691-0.073c0.195-0.065,0.116-0.06,0.164-0.198c0.081-0.237,0.105-0.683,0.347-0.839
		c0.237-0.153,0.793-0.019,1.076-0.082c0.505-0.113,1.499-0.827,1.985-0.477c0.244,0.175,0.252,0.47,0.568,0.525
		c0.227,0.04,0.589-0.066,0.775,0.075c0.377,0.287,0.243,0.928,0.38,1.317c0.14,0.395,0.497,0.642,0.762,0.189
		c0.242-0.415,0.376-1.168-0.096-1.442c-0.164-0.095-0.501-0.2-0.621-0.347c-0.14-0.172,0.002-0.108,0.073-0.218
		c0.05-0.078,0.05-0.151,0.12-0.214c0.24-0.216,0.402-0.348,0.579-0.619c0.075-0.113-0.004-0.126,0.148-0.2
		c0.175-0.085,0.499-0.002,0.692-0.03c0.386-0.057,0.593-0.26,0.905-0.459c0.274-0.174,0.597-0.329,0.888-0.477
		c0.488-0.249,1.135-0.432,1.688-0.357c0.215,0.029,0.608,0.274,0.318,0.511c-0.135,0.111-0.298-0.055-0.382,0.169
		c-0.154,0.411,0.705,0.901,0.938,1.1c0.369,0.314,0.81,0.52,1.311,0.474c0.256-0.024,0.552,0.014,0.799-0.038
		c0.257-0.054,0.531-0.24,0.766-0.355c0.31-0.153,0.604-0.34,0.911-0.501c0.24-0.126,0.517-0.222,0.686-0.446
		c0.151-0.201,0.233-0.877,0.436-0.978c0.271-0.135,0.787,0.314,1.031,0.338c0.095-0.301-0.596-0.767-0.138-0.98
		c0.358-0.166,0.561,0.399,0.906,0.031c0.271-0.289,0.374-0.876,0.076-1.19c-0.184-0.194-0.943-0.157-0.841-0.537
		c0.49-0.027,1.011,0.088,1.495,0.019c0.262-0.038,0.933-0.399,0.715-0.746c-0.377,0.213-0.716,0.217-1.117,0.139
		c-0.36-0.07-1.129,0.067-1.396-0.22c0.071-0.327,0.831-0.571,0.21-0.875c-0.155-0.076-0.338-0.053-0.499-0.15
		c-0.094-0.056-0.168-0.147-0.268-0.189c-0.149-0.062-0.357-0.032-0.511-0.101c-0.102-0.046-0.151-0.125-0.231-0.177
		c-0.376-0.243-1.113-0.037-1.589,0c-0.402,0.032-0.949,0.338-1.319,0.125c0.138-0.36,0.758-0.669,1.065-0.913
		c0.427-0.34,0.573-0.688,0.718-1.199c0.225-0.797,0.59-1.605,0.452-2.456c-0.066-0.406-0.306-0.716-0.317-1.146
		c-0.008-0.293,0.102-0.517,0.246-0.768c0.105-0.182,0.391-0.49,0.402-0.709c0.014-0.283-0.295-0.301-0.397-0.509
		c-0.167-0.342-0.065-1.094,0.007-1.475c0.072-0.383,0.443-0.665,0.468-1.027c0.033-0.464-0.106-1.066-0.223-1.515
		c-0.142-0.546-0.065-0.734,0.321-1.127c0.161-0.164,0.383-0.258,0.539-0.419c0.131-0.134,0.209-0.318,0.299-0.49
		c0.114-0.216,0.187-0.494,0.348-0.676c0.257-0.291,0.7-0.191,1.066-0.23c0.335-0.035,0.664-0.126,1.002-0.156
		c0.203-0.018,0.534,0.03,0.671-0.095c0.09-0.082,0.132-0.355,0.162-0.468c0.041-0.154,0.046-0.337,0.152-0.452
		c0.102-0.11,0.355-0.2,0.491-0.296c0.437-0.309,0.86-0.559,1.254-0.918c0.647-0.589,1.211-1.238,1.965-1.694
		c0.316-0.191,0.698-0.219,1.051-0.296c0.428-0.093,0.826-0.245,1.223-0.425c0.681-0.309,1.366-0.619,2.038-0.939
		c0.3-0.143,0.558-0.409,0.861-0.534c0.393-0.162,0.984-0.164,1.4-0.088c0.465,0.085,0.646,0.162,0.81-0.327
		c0.429-0.045,0.866-0.078,1.301-0.08c0.33-0.002,0.951,0.006,1.235-0.155l4.619-1.422l3.386,0.75l5.065-0.517l1.111,1.163
		l1.086-1.021l2.042,0.685l1.803-0.685v9.439c0.46,0,0.946-0.061,1.405-0.078c0.594-0.022,1.187-0.006,1.78-0.049
		c1.397-0.102,2.848-0.054,4.244,0.015c0.796,0.039,1.598,0.015,2.396,0.015c0.658,0,1.347-0.04,2.002,0.018
		c0.712,0.063,1,0.754,1.455,1.203c0.123,0.12,0.126,0.152,0.266,0.053c0.184-0.129,0.315-0.351,0.51-0.485
		c0.345-0.237,0.844-0.38,1.04-0.775c0.091,0.088,0.014,0.279,0.097,0.363c0.06,0.061,0.038,0.02,0.139,0.048
		c0.19,0.054,0.582,0.037,0.746-0.087c0.232-0.174,0.379-0.421,0.65-0.569c0.295-0.161,0.481-0.065,0.789,0.006
		c1.009,0.234,1.997,0.342,3.025,0.44c0.601,0.057,0.869,0.497,1.36,0.772c0,0.237-0.054,0.503,0.039,0.722
		c0.137,0.324,0.523,0.482,0.788,0.694c0.266,0.213,0.53,0.426,0.797,0.631c0.182,0.14,0.49,0.315,0.4,0.585
		c0.237,0.074,0.53,0.011,0.785,0.023c0.128,0.006,0.474-0.036,0.582,0.025c0.083,0.047,0.091,0.177,0.156,0.254
		c0.168,0.2,0.462,0.227,0.71,0.288c0.751,0.184,1.511,0.303,2.274,0.422c0.389,0.06,0.778,0.105,1.168,0.161
		c0.429,0.061,0.965-0.04,1.377,0.065c0.283,0.072,0.673,0.438,0.893,0.653c0.375,0.365,0.73,0.754,1.128,1.098
		c0.093,0.08,0.246,0.148,0.297,0.264c0.065,0.148-0.015,0.324,0.076,0.49c0.168,0.306,0.647,0.384,0.979,0.468
		c0.138,0.035,0.372,0.053,0.469,0.173c0.076,0.094,0.091,0.336,0.137,0.457c0.106,0.275,0.271,0.534,0.367,0.814
		c0.078,0.228,0.098,0.473,0.19,0.701l2.61,0.827l6.073-0.155l5.815,1.964l4.368,2.093l-0.284,2.042l1.473,0.543l1.886-0.129
		l0.982,0.517l0.93-0.465h1.628l-1.938,4.884l-1.861,0.646l2.558,3.721l1.241,2.739l0.155,3.05l1.292,1.034l-1.111,1.163L190,60.479
		l-0.878,0.879l0.517,1.68l1.802,1.215l-0.924,1.835c-0.041,0.141-0.027,0.155-0.026,0.304c0.001,0.122,0.006,0.232,0.038,0.35
		c0.019,0.069,0.073,0.157,0.055,0.233c-0.038,0.155-0.256,0.171-0.333,0.285c-0.101,0.15,0.034,0.351,0.129,0.456
		c0.11,0.122,0.296,0.18,0.267,0.35c-0.038,0.227-0.181,0.465-0.263,0.682c-0.062,0.164-0.099,0.224-0.29,0.247
		c-0.26,0.031-0.527-0.019-0.788-0.012c-0.059,0.179-0.074,0.397-0.119,0.586c-0.09,0.371-0.146,0.727-0.18,1.106
		c-0.033,0.362-0.12,0.708-0.131,1.072c0.351,0.021,0.577,0.249,0.851,0.432c-0.057,0.079-0.15,0.124-0.204,0.203
		c-0.094,0.139-0.101,0.275-0.195,0.439c-0.129,0.228-0.364,0.332-0.533,0.522c-0.305,0.34-0.043,0.262,0.045,0.602
		c0.073,0.281-0.271,0.521-0.283,0.818c0.26,0.152,0.451,0.439,0.486,0.742c0.046,0.395,0.127,0.692,0.301,1.051
		c0.149,0.309,0.092,0.367,0.04,0.688c-0.045,0.275,0.117,0.465,0.295,0.659c0.545,0.596,0.748,1.281,0.854,2.086
		c0.043,0.327-0.078,0.607-0.156,0.921c-0.116,0.463,0.148,0.674,0.452,1.027c0.259,0.302,0.76,0.656,0.747,1.091
		c-0.014,0.484-0.288,0.66-0.721,0.713c-0.312,0.038-0.209,1.295-0.233,1.59c-0.053,0.656-0.812,0.49-1.05,1.004
		c-0.12-0.093-0.123-0.277-0.154-0.406c-0.386,0.193-0.755,0.409-1.146,0.59c-0.309,0.143-0.855,0.198-1.027,0.516
		c0.166,0.143,0.458,0.48,0.429,0.717c-0.028,0.218-0.256,0.417-0.282,0.641l1.68,2.739l-0.517,2.171l-1.37,0.749l-1.189-0.569
		l-2.817,1.24c-0.474,0.405-0.106,0.811,0.141,1.254c0.205,0.367,0.288,0.735,0.456,1.104c-0.21,0.181-0.389,0.138-0.625,0.231
		c-0.277,0.109-0.211,0.303-0.199,0.566c0.016,0.372-0.032,1.749,0.359,1.849c0.181,0.046,0.564-0.089,0.755-0.122
		c0.277-0.048,0.525-0.06,0.807-0.074c0.494-0.024,0.947-0.228,1.445-0.209C186.349,99.43,186.269,99.606,186.266,99.722z"/>
</g>
<g id="Icon">
</g>
</svg>
