<?xml version="1.0" encoding="utf-8"?>
<!-- Generator: Adobe Illustrator 26.0.3, SVG Export Plug-In . SVG Version: 6.00 Build 0)  -->
<svg version="1.1" id="Isolation_Mode" xmlns="http://www.w3.org/2000/svg" xmlns:xlink="http://www.w3.org/1999/xlink" x="0px"
	 y="0px" viewBox="0 0 200 200" enable-background="new 0 0 200 200" xml:space="preserve">
<path fill="#1E8346" d="M20.531,141.57c-0.284-0.371-0.458-1.22-0.805-2.919c-0.175-0.856-0.239-1.341,0-1.51
	c0.279-0.196,0.645,0.265,1.208,0.201c0.823-0.093,1.647-1.259,1.61-2.315c-0.035-1.018-0.846-1.208-1.107-2.315
	c-0.285-1.204,0.454-1.914,0.704-2.919c0.742-2.97-3.823-4.299-4.831-9.058c-0.616-2.909,0.648-4.496-0.805-6.139
	c-0.858-0.97-1.962-1.167-2.416-2.516c-0.37-1.101,0.13-1.665-0.403-2.516c-0.589-0.94-1.453-0.658-2.214-1.51
	c-0.937-1.049-0.175-2.095-0.704-3.724c-0.591-1.818-1.947-1.773-4.026-4.026c-2.042-2.214-3.048-4.768-2.818-4.932
	c0.25-0.178,2.471,2.084,4.15,4.386c0,0,0.723,0.992,0.781,0.949c0.051-0.038-2.754-2.798-2.114-5.032
	c0.184-0.643-1.164-2.738-1.107-7.649c0.036-3.088,2.573-5.158,1.308-7.347c-0.411-0.711-1.172-1.347-1.107-2.416
	c0.046-0.755,0.45-0.831,0.906-2.013c0.635-1.646,2.219,1.135,2.516,1.107c0.439-0.042-0.287-2.436,1.007-3.925
	c1.369-1.576,3.488-0.395,5.032-2.114c0.986-1.098,0.392-1.881,1.51-2.818c1.18-0.99,2.181-0.401,3.221-1.51
	c0.772-0.824,0.779-1.746,1.409-1.812c0.4-0.042,0.868,0.28,0.906,0.604c0.055,0.479-0.855,0.734-0.805,1.107
	c0.056,0.417,1.298,0.842,2.416,0.604c1.609-0.343,1.961-1.849,3.221-3.019c1.98-1.839,3.629-0.458,7.347-1.61
	c0.923-0.286,0.822-0.372,9.058-6.844c1.615-1.27,2.69-2.108,2.919-3.523c0.279-1.722-1.001-2.408-0.604-4.328
	c0.251-1.212,0.989-2.043,2.214-3.422c1.005-1.131,1.508-1.696,2.013-1.61c1.384,0.236,1.089,4.639,2.315,4.831
	c0.779,0.122,2.042-1.477,1.812-2.717c-0.208-1.121-1.506-1.25-1.661-2.416c-0.121-0.914,0.519-2.018,1.208-2.113
	c0.984-0.137,1.489,1.867,2.717,1.812c0.68-0.031,1.38-0.684,1.51-1.359c0.191-0.997-0.988-1.385-1.208-2.868
	c-0.173-1.169,0.331-2.474,0.906-2.566c0.738-0.119,1.33,1.8,1.962,1.661c0.453-0.1,0.394-1.138,0.906-2.868
	c0.117-0.395,0.99-3.346,1.962-3.321c0.548,0.014,0.733,0.962,1.208,0.906c0.644-0.076,0.515-1.844,1.51-2.265
	c0.686-0.29,1.218,0.35,1.812,0c0.63-0.372,0.309-1.259,0.755-1.661c1.18-1.063,7.162,1.78,7.397,5.284
	c0.091,1.35-0.678,2.69-0.604,2.717c0.109,0.04,0.878-3.182,2.264-3.321c0.892-0.09,1.189,1.182,2.868,1.661
	c1.048,0.299,2.354,0.209,2.566-0.302c0.266-0.64-1.444-1.328-1.359-2.566c0.073-1.055,1.358-1.178,1.661-2.566
	c0.234-1.076-0.395-1.657,0-2.114c0.595-0.687,2.325,0.275,2.717-0.302c0.298-0.438-0.611-1.121-0.604-2.114
	c0.009-1.315,1.618-2.497,2.868-3.019c3.432-1.433,5.953,1.362,8.001-0.151c1.296-0.957,1.636-3.071,1.057-3.623
	c-0.513-0.489-1.563,0.423-2.717-0.151c-0.874-0.434-1.497-1.566-1.208-2.114c0.395-0.749,2.669-0.736,4.378,0.151
	c1.764,0.916,1.882,2.221,3.623,2.717c1.019,0.291,1.19-0.096,2.415,0c3.393,0.267,4.348,3.414,6.492,3.019
	c1.545-0.285,2.049-2.104,3.321-1.812c1.037,0.239,1.576,0.978,1.576,0.979c0.214,0.293,0.28,0.543,0.386,0.531
	c0.324-0.037-0.106-2.367,0.604-2.717c0.701-0.346,2.795,1.099,2.868,2.717c0,0-3.304,7.055-3.019,7.548
	c0.284,0.493-0.768,1.752-1.264,2.302c-0.149,0.165-0.332,0.293-0.539,0.374c-0.349,0.138-0.923,0.388-1.216,0.645
	c-0.972,0.851-0.337,3.055-0.302,3.17c0.63,2.104,2.66,3.083,5.284,4.529c6.397,3.524,5.515,3.864,11.021,6.492
	c5.726,2.733,6.81,2.428,7.398,2.114c0.94-0.503,1.26-1.379,2.868-6.794c1.248-4.201,1.872-6.302,1.962-6.794
	c0.882-4.78-0.189-5.675,0.302-10.417c0.397-3.835,1.797-9.994,3.774-10.115c1.748-0.107,3.394,4.538,3.925,6.039
	c2.438,6.884,1.102,12.368,3.019,12.983c1.239,0.398,2.188-1.768,3.472-1.359c2.324,0.74,0.214,8.145,4.227,11.322
	c1.333,1.056,2.256,0.785,2.868,1.963c0.884,1.701-0.597,3.12-0.604,6.944c-0.003,1.582-0.005,2.826,0.755,3.925
	c1.291,1.866,3.278,1.143,5.435,2.265c5.46,2.839,3.726,13.196,9.209,15.701c0.408,0.186,0.846,0.325,1.661,0.755
	c1.213,0.64,4.007,2.115,4.982,4.68c0.442,1.163,0.128,1.544,0.302,3.019c0.557,4.72,4.746,9.051,6.643,8.454
	c1.119-0.352,1.156-2.331,1.812-2.265c0.611,0.062,1.23,1.845,0.755,3.321c-0.323,1.002-0.942,1.218-1.51,1.963
	c-0.565,0.741-1.098,2.028,0,7.85c0.822,4.358,1.276,4.468,1.208,6.19c-0.109,2.721-1.335,4.716-2.265,6.19
	c-10.335,16.381-12.223,19.202-11.474,22.494c0.243,1.067,1.051,3.446,0,4.378c-0.751,0.666-1.761-0.021-3.019,0.755
	c-1.184,0.729-1.949,2.36-1.51,3.321c0.424,0.928,1.844,0.963,1.812,1.359c-0.034,0.414-1.573,0.17-2.566,0.906
	c-1.923,1.424,0.21,5.026-1.359,6.794c-2.156,2.429-9.048-1.148-10.266,0.906c-0.43,0.726,0.365,1.281,0,2.566
	c-0.577,2.028-3.454,3.787-5.737,3.321c-1.169-0.239-2.49-1.417-5.133-3.774c-0.888-0.792-1.751-1.619-2.415-1.359
	c-0.678,0.266-0.499,1.411-1.359,1.963c-0.57,0.366-1.239,0.242-2.265,0c-3.504-0.826-6.643-1.963-6.643-1.963
	c-4.941,0.08-6.19-1.51-6.19-1.51c-0.828-1.055-0.394-2.203-1.359-2.717c-0.862-0.46-1.592,0.252-2.114-0.151
	c-0.875-0.676,0.906-2.892,0.453-5.586c-0.419-2.491-2.674-4.944-4.831-5.133c-0.999-0.087-1.972,0.311-2.114,0
	c-0.143-0.314,0.822-0.777,1.359-1.661c1.284-2.112-0.733-1.793-2.717-0.453c-0.932,0.629-2.254,0.567-3.17,0.151
	c-0.866-0.393-1.686-1.244-1.51-1.661c0.201-0.474-2.03,0.945-3.472,1.359c-0.926,0.266-2.127,0.08-2.717-0.604
	c-0.754-0.873,0.006-1.957-0.302-3.925c-0.186-1.189-0.728-2.051-1.812-3.774c-0.696-1.108-1.748-2.755-3.623-4.529
	c-1.652-1.562-4.281-4.049-6.19-3.321c-0.862,0.329-0.872,1.045-1.661,1.208c-1.549,0.319-2.394-2.262-4.227-3.321
	c-4.732-2.736-12.128,6.932-20.23,5.586c-1.106-0.184-2.35-0.594-3.774,0c-2.418,1.007-2.999,3.922-5.284,4.076
	c-0.767,0.052-0.994-0.257-1.51,0c-1.147,0.572-0.552,2.368-1.661,4.076c-0.929,1.431-2.501,1.946-3.472,2.264
	c-1.742,0.571-3.116,0.377-5.133,0.151c-9.002-1.01-10.184-0.358-10.568,0.302c-0.463,0.796,0.189,1.681-0.604,2.717
	c-0.491,0.641-0.943,0.568-1.812,1.208c-1.289,0.949-1.3,1.852-2.114,2.717c-1.114,1.185-2.762,1.265-4.68,1.359
	c-2.902,0.142-2.73-0.847-8.152-1.812C22.231,142.561,21.189,142.427,20.531,141.57z"/>
<path fill="#1E8346" d="M149.861,166.731c1.152-0.761,2.736,2.226,6.643,2.818c3.821,0.579,5.44-1.803,7.347-0.604
	c2.385,1.499,2.534,6.909,0.705,8.253c-0.534,0.392-1.268,0.462-1.61,1.208c-0.344,0.751-0.103,1.776,0,2.214
	c0.195,0.828,0.432,0.992,0.302,1.308c-0.274,0.668-1.75,0.962-2.416,0.403c-0.489-0.411-0.458-1.214-0.503-1.208
	c-0.083,0.012,0.427,2.714-0.101,2.919c-0.427,0.166-1.279-1.397-1.711-1.208c-0.302,0.132,0.039,0.93-0.302,1.308
	c-0.643,0.713-3.851,0.088-5.234-2.013c-1.359-2.066,0.073-3.999-1.711-7.448c-0.343-0.664-0.368-0.537-0.704-1.208
	C149.345,171.043,148.718,167.487,149.861,166.731z"/>
</svg>
