<?xml version="1.0" encoding="utf-8"?>
<!-- Generator: Adobe Illustrator 26.0.3, SVG Export Plug-In . SVG Version: 6.00 Build 0)  -->
<svg version="1.1" xmlns="http://www.w3.org/2000/svg" xmlns:xlink="http://www.w3.org/1999/xlink" x="0px" y="0px"
	 viewBox="0 0 200 200" enable-background="new 0 0 200 200" xml:space="preserve">
<g id="Isolation_Mode">
	<g>
		<path fill="#1E8346" d="M12.797,14.46c0.759-0.702,1.75-1.149,2.142-2.168c0.111-0.287,0.138-0.537,0.162-0.838
			c0.016-0.197,0.036-0.817,0.242-0.919c0.128-0.064,0.289,0.111,0.395,0.15c0.152,0.056,0.288,0.07,0.469,0.079
			c0.187,0.009,0.445,0.05,0.626,0.002c0.358-0.097,0.541-0.516,0.637-0.853c0.129-0.455,0.139-0.936,0.137-1.406
			c-0.001-0.26-0.099-0.523,0.096-0.704c0.089-0.082,0.366-0.13,0.473-0.147c0.364-0.059,0.621-0.081,0.98-0.212
			c0.193-0.396,0.81-0.678,1.195-0.881c0.315-0.166,0.861-0.552,1.039-0.863c0.159-0.278,0.101-0.635,0.185-0.936
			c0.111-0.4,0.355-0.69,0.709-0.878c0.395-0.21,0.581-0.009,0.959,0.162c0.492,0.221,1.019,0.13,1.382,0.54
			c0.365,0.412,0.761,0.854,1.211,1.19c0.46,0.344,0.847,0.552,1.2,1.02c0.269,0.356,0.641,0.758,0.139,1.014
			c-0.346,0.176-0.754,0.147-1.109,0.301c-0.267,0.116-0.418,0.255-0.617,0.483c-0.706,0.807-0.966,1.96-1.698,2.726
			c-0.154,0.161-0.362,0.322-0.478,0.509c-0.134,0.215-0.097,0.552-0.252,0.747c-0.42,0.527-1.182-0.24-1.618,0.48
			c-0.197,0.325-0.178,0.746-0.474,1.016c-0.409,0.375-1.105,0.549-1.574,0.866c-0.275,0.185-0.861,0.553-0.608,0.975
			c0.266,0.444,1.218,0.206,1.567,0.573c0.286,0.301,0.087,0.852,0.125,1.233c0.035,0.348,0.068,0.67,0.068,1.027
			c0,0.499-0.245,2.144,0.132,2.401c-0.003,0.951-0.12,1.754-0.223,2.694c-0.028,0.252,0.046,0.45-0.196,0.561
			c-0.152,0.07-0.483,0.006-0.646,0.007c-0.831,0.001-1.642-0.163-2.477-0.165c-0.392-0.001-0.954,0.174-1.254-0.11
			c-0.317-0.3-0.47-1.074-0.376-1.499c0.141-0.637,0.827-0.474,1.085-0.957c0.222-0.415-0.165-0.951-0.42-1.252
			c-0.307-0.362-0.552-0.711-0.685-1.181c-0.052-0.185-0.033-0.41-0.111-0.584c-0.083-0.186-0.262-0.332-0.366-0.511
			c-0.27-0.464-0.325-0.984-0.607-1.456C13.938,15.98,13.192,15.184,12.797,14.46z"/>
		<path fill="#1E8346" d="M18.135,29.155c-0.154,0.197-0.367,0.228-0.501,0.46c-0.162,0.281-0.166,0.557-0.026,0.853
			c0.123,0.26,0.42,0.57,0.626,0.795c0.305,0.334,0.889,0.525,1.115,0.916c0.19,0.329,0.204,0.903,0.37,1.291
			c0.203,0.477,0.351,0.991,0.621,1.439c0.281,0.467,0.685,0.907,1.08,1.275c0.374,0.348,0.524,0.707,0.751,1.155
			c0.268,0.53,0.811,0.856,1.25,1.241c0.404,0.354,0.714,0.765,1.206,1.019c0.164,0.414,0.646,0.69,0.99,0.925
			c0.298,0.203,0.399,0.425,0.55,0.755c0.157,0.342,0.302,0.733,0.338,1.128c0.052,0.585-0.109,1.202-0.01,1.772
			c0.111,0.64,0.568,1.438,0.926,1.973c0.273,0.408,0.728,0.679,0.967,1.096c0.387,0.673,0.442,1.484,0.831,2.173
			c0.456,0.808,0.866,1.446,1.106,2.345c0.271,1.012,0.756,2.088,1.267,3.002c0.258,0.462,0.467,0.885,0.837,1.275
			c0.328,0.346,0.771,0.548,1.093,0.888c0.099,0.104,0.156,0.248,0.265,0.33c-0.034,0.931,0.782,1.628,1.269,2.344
			c0.322,0.475,0.615,0.913,0.827,1.444c0.146,0.367,0.559,0.931,0.36,1.303c-0.097,0.181-0.286,0.236-0.347,0.458
			c-0.072,0.258,0.03,0.348,0.165,0.562c0.125,0.197,0.149,0.379,0.245,0.598c0.112,0.255,0.322,0.427,0.471,0.652
			c0.239,0.362,0.15,0.503,0.001,0.86c-0.107,0.257-0.038,0.758-0.214,0.899c-0.117,0.094-0.415,0.059-0.562,0.094
			c-0.248,0.061-0.516,0.17-0.742,0.29c-0.114,0.061-0.249,0.235-0.348,0.276c-0.182,0.075-0.403,0.018-0.592,0.037
			c-0.631,0.062-1.122,0.477-1.473,0.978c-0.357,0.509-0.781,0.958-1.159,1.429c-0.191,0.238-0.575,0.506-0.54,0.855
			c0.021,0.213,0.219,0.384,0.304,0.581c0.135,0.313,0.21,0.66,0.359,0.968c-0.185,0.509,0.228,1.398,0.543,1.747
			c0.457,0.507,0.928,0.886,1.218,1.529c0.308,0.683,0.516,1.416,0.785,2.123c0.194,0.51,0.608,0.971,0.745,1.501
			c0.11,0.426,0.002,0.886-0.022,1.313c-0.012,0.206-0.075,0.568,0.015,0.752c0.137,0.278,0.551,0.435,0.757,0.668
			c0.325,0.366,0.627,0.923,0.802,1.372c0.36,0.927,0.274,1.665,1.002,2.357c0.763,0.726,1.02,1.767,1.74,2.52
			c0.325,0.339,0.711,0.635,0.891,1.082c0.212,0.528,0.084,1.051,0.486,1.525c0.577,0.681,1.269,1.282,1.847,1.97
			c0.281,0.335,0.518,0.555,0.838,0.841c0.178,0.16,0.42,0.452,0.511,0.676c0.227,0.563-0.318,1.143-0.403,1.713
			c-0.121,0.81,0.406,1.532,0.766,2.207c0.19,0.358,0.487,0.466,0.658,0.822c0.207,0.432,0.359,0.91,0.513,1.371
			c0.248,0.743,0.115,1.44-0.011,2.197c-0.098,0.59-0.437,1.09-0.47,1.698c-0.039,0.72,0.001,1.456,0.001,2.178
			c0,0.702-0.102,1.512,0.057,2.193c0.159,0.679,0.285,1.105,0.231,1.816c-0.077,1.021,0.112,2.088-0.387,3.013
			c-0.244,0.451-0.116,0.983-0.3,1.451c-0.147,0.376-0.359,0.659-0.537,1.019c-0.177,0.358-0.204,0.781-0.357,1.157
			c-0.15,0.369-0.281,0.785-0.545,1.12c-0.158,0.201-0.309,0.394-0.474,0.581c-0.26,0.293-0.661,0.405-0.921,0.678
			c-0.551,0.578-0.069,1.622-0.668,2.206c-0.206,0.201-0.575,0.482-0.842,0.6c-0.326,0.145-0.434-0.088-0.758-0.08
			c-0.352,0.008-0.45,0.328-0.689,0.526c-0.341,0.282-0.748,0.182-1.094,0.407c-0.387,0.252-0.656,0.673-0.917,1.04
			c-0.263,0.368-0.608,0.69-0.857,1.051c-0.125,0.182-0.19,0.392-0.36,0.564c-0.148,0.15-0.337,0.263-0.479,0.428
			c-0.256,0.298-0.243,0.556-0.153,0.927c0.084,0.348,0.076,0.697,0.034,1.05c-0.048,0.4-0.355,0.758-0.589,1.068
			c-0.661,0.875-1.309,1.677-2.075,2.453c-0.37,0.376-1.195,0.428-1.487,0.843c-0.294,0.42-0.116,1.15-0.356,1.637
			c-0.129,0.263-0.314,0.436-0.545,0.591c-0.213,0.144-0.44,0.192-0.553,0.432c-0.124,0.262,0.01,0.528,0.124,0.774
			c0.183,0.395,0.228,0.641,0.266,1.079c0.032,0.373,0.079,0.745,0.107,1.117c0.038,0.499-0.162,0.677-0.356,1.082
			c-0.314,0.653,0.329,1.436,0.459,2.108c-0.324,0.15-0.763,0.163-1.064,0.363c-0.229,0.151-0.191,0.28-0.224,0.515
			c-0.034,0.237-0.09,0.471-0.136,0.705c-0.039,0.203-0.154,0.425-0.163,0.625c-0.012,0.272-0.091,0.551-0.166,0.79
			c-0.081,0.263-0.229,0.576-0.229,0.859c0,0.252,0.16,0.512,0.135,0.762c-0.029,0.288-0.257,0.455-0.3,0.724
			c-0.086,0.536,0.089,1.219,0.133,1.769c0.04,0.494,0.103,0.969,0.098,1.469c-0.004,0.457-0.143,0.755-0.226,1.171
			c-0.105,0.532,0.34,0.961,0.164,1.466c-0.273,0.782-0.019,1.603-0.259,2.392c-0.262,0.862-0.568,1.76-0.963,2.582
			c-0.296,0.614-0.532,1.243-0.69,1.899c-0.054,0.224-0.036,0.457-0.036,0.691c0,0.343,0.067,0.545,0.133,0.852
			c0.097,0.452-0.384,0.447-0.603,0.784c-0.221,0.341-0.194,0.776-0.255,1.155c-0.062,0.394-0.326,0.661-0.434,1.029
			c-0.107,0.363-0.207,0.835-0.113,1.205c0.095,0.374,0.375,0.786,0.346,1.182c-0.02,0.27-0.167,0.713-0.256,0.987
			c-0.138,0.429-0.543,0.681-0.708,1.096c-0.138,0.345-0.248,0.663-0.252,1.033c-0.119,0.153-0.224,0.662-0.403,0.76
			c-0.163,0.089-0.469-0.104-0.653-0.134c-0.087-0.014-0.288-0.072-0.372-0.036c-0.125,0.053-0.494,0.595-0.587,0.731
			c-0.238,0.348-0.362,0.952-0.193,1.352c0.188,0.445,0.644,0.773,0.826,1.249c0.241,0.634,0.181,1.447,0.262,2.119
			c0.093,0.769-0.035,1.58,0.115,2.337c0.091,0.46,0.244,0.898,0.29,1.367c0.06,0.621-0.011,1.246,0.048,1.866
			c0.071,0.755,0.206,1.467,0.206,2.234c0.001,0.681-0.128,1.308-0.197,1.97c-0.047,0.445,0.033,0.94,0,1.385
			c-0.033,0.437-0.391,0.896-0.332,1.325c0.03,0.22,0.143,0.386,0.167,0.616c0.038,0.366-0.12,0.707-0.101,1.065
			c0.034,0.654,0.472,1.343,0.587,1.998c0.457,0.111,1.043-0.444,1.344-0.742c0.329-0.327,0.695-0.879,1.097-1.103
			c0.539-0.3,1.637-0.261,2.21-0.083c0.531,0.165,0.819,0.532,1.3,0.788c0.499,0.265,1.421,0.332,1.946,0.095
			c0.58-0.262,0.728-0.839,1.414-0.458c0.434,0.241,0.697,0.299,1.211,0.182c0.546-0.124,0.887-0.357,1.326-0.67
			c0.51-0.362,1.279-0.413,1.643-0.878c0.857-1.096,1.701-2.248,2.972-2.923c0.807-0.429,1.866-0.412,2.762-0.484
			c0.292-0.023,0.77-0.097,1.04-0.011c0.417,0.132,0.721,0.347,1.219,0.331c0.358-0.011,0.716-0.164,1.076-0.14
			c0.377,0.025,0.741,0.27,1.011,0.537c0.311,0.308,0.292,0.582,0.453,0.928c0.206,0.442,0.852,0.421,1.29,0.505
			c0.424,0.081,0.676,0.363,1.041,0.564c0.516,0.283,1.004,0.517,1.466,0.884c0.32,0.255,0.686,0.553,1.071,0.71
			c0.512,0.209,0.729,0.171,1.15,0.593c0.204,0.204,0.334,0.477,0.643,0.492c0.25,0.013,0.557-0.166,0.821-0.21
			c0.48-0.08,1.085-0.062,1.517,0.174c0.182-0.121,0.577-0.063,0.79-0.122c0.202-0.055,0.432-0.116,0.632-0.183
			c0.542-0.183,0.953-0.291,1.548-0.324c0.595-0.033,1.273-0.112,1.833-0.278c0.624-0.185,1.235-0.181,1.885-0.181l51.565-3.822
			c0.355,0,0.943,0.157,1.267,0.239c0.074,0.212,0.101,0.427,0.217,0.623c0.205,0.346,0.528,0.47,0.829,0.714
			c0.344,0.28,0.792,0.577,1.08,0.904c0.22,0.249,0.334,0.591,0.52,0.868c0.193,0.286,0.327,0.537,0.619,0.725
			c0.348,0.224,0.743,0.353,1.113,0.53c0.69,0.33,1.455,0.492,2.127,0.834c0.445,0.226,0.856,0.277,1.356,0.297
			c0.347,0.014,0.733,0.119,1.075,0.071c0.344-0.048,0.571-0.265,0.866-0.381c0.333-0.131,0.665,0.021,0.998,0.098
			c0.433,0.099,0.895,0.092,1.314,0.248c1.142,0.424,2.354,0.781,3.579,0.407c0.322-0.098,0.613-0.226,0.951-0.247
			c0.322-0.02,0.582,0.118,0.898,0.137c0.854,0.052,1.742-0.158,2.592-0.169c0.822-0.011,1.556,0.447,2.367,0.513
			c0.817,0.067,1.551-0.378,2.358-0.432c0.931-0.061,2.093,0.002,2.879,0.556c0.924,0.651,2.041,0.218,3.045,0.548
			c0.643,0.211,1.255,0.708,1.968,0.588c0.575-0.097,1.345-0.412,1.732-0.849c0.224,0.215,0.964,0.052,1.275,0.029
			c0.555-0.041,0.46-0.208,0.786-0.474c0.234-0.189,0.603-0.181,0.901-0.146c0.529,0.063,1.077,0.184,1.539,0.432
			c0.436,0.234,1.062,0.532,1.561,0.587l26.886-6.392c-0.291-0.359-0.1-0.506-0.618-0.561c-0.302-0.032-0.599-0.046-0.898-0.098
			c-0.286-0.05-0.649-0.079-0.908-0.214c-0.274-0.143-0.316-0.413-0.575-0.577c-0.141-0.463-0.656-0.728-0.988-1.034
			c-0.239-0.219-0.522-0.386-0.756-0.605c-0.113-0.106-0.213-0.252-0.319-0.369c-0.197-0.217-0.456-0.327-0.656-0.538
			c-0.226-0.239-0.352-0.541-0.578-0.783c-0.27-0.289-0.536-0.587-0.789-0.892c-0.438-0.53-0.973-0.885-1.497-1.326
			c-0.386-0.325-0.572-0.806-0.992-1.099c-0.516-0.36-1.134-0.588-1.579-1.06c-0.341-0.362-0.358-0.867-0.906-1.08
			c-0.279-0.701-1.223-0.915-1.73-1.382c-0.296-0.273-0.585-0.541-0.953-0.707c-0.4-0.181-0.895-0.268-1.238-0.543
			c-0.502-0.402-0.894-0.914-1.063-1.531c-0.083-0.304-0.051-0.587-0.088-0.896c-0.066-0.544-0.551-0.816-0.658-1.335
			c-0.122-0.592-0.115-0.982-0.538-1.453c-0.269-0.3-0.613-0.566-0.849-0.895l-1.417-46.655l28.6-0.363
			c-0.296-0.485-0.842-0.835-1.246-1.236c-0.286-0.283-0.494-0.636-0.617-1.025c-0.289-0.916-0.243-2.183,0.209-3.039
			c0.288-0.547,0.435-1.172,0.827-1.669c0.412-0.522,0.832-0.64,0.934-1.334c0.073-0.503-0.206-0.915-0.088-1.401
			c0.072-0.298,0.3-0.606,0.123-0.911c-0.122-0.209-0.445-0.291-0.592-0.507c-0.121-0.178-0.158-0.377-0.243-0.573
			c-0.158-0.361-0.386-0.613-0.487-1.008c-0.135-0.526-0.142-1.111-0.138-1.654c0.003-0.442,0.022-1.044,0.231-1.452
			c0.142-0.276,0.373-0.528,0.494-0.798c0.213-0.471,0.276-0.907,0.051-1.395c-0.129-0.279-0.315-0.502-0.513-0.722
			c-0.218-0.243-0.51-0.421-0.446-0.773c0.069-0.384,0.552-0.788,0.777-1.076c0.334-0.426,0.205-0.402,0.105-0.874
			c-0.111-0.525,0.225-0.8,0.57-1.144c0.413-0.412,0.514-0.729,0.213-1.277c-0.384-0.699-0.486-1.365-0.573-2.165
			c-0.126-1.162,0.247-2.701-0.221-3.783c-0.687,0.18-1.126,0.386-1.631,0.862c-0.261,0.246-0.53,0.43-0.84,0.627
			c-0.399-0.204-0.729-0.591-1.155-0.727c-0.612-0.195-1.365,0.044-2.007-0.13c-0.67-0.181-1.328-0.497-2.054-0.439
			c-1.407,0.112-2.805,0.875-3.868,1.78c-0.66,0.562-1.384,0.374-2.233,0.463c-0.674,0.07-1.226-0.115-1.886-0.267
			c-0.578-0.134-1.038-0.253-1.621-0.066c-0.231,0.074-0.401,0.275-0.606,0.329c-0.514,0.136-1.101-0.427-1.628-0.552
			c-0.528-0.125-1.64-0.305-2.19-0.142c-0.419,0.124-0.728,0.631-0.986,1.01c-0.356,0.523-0.665,0.811-1.262,1.076
			c-0.588,0.261-1.159,0.696-1.689,1.069c-0.232-0.303,0.059-0.643,0.049-0.975c-0.014-0.434-0.342-0.473-0.531-0.805
			c-0.209-0.365-0.171-1.006-0.173-1.426c-0.004-0.83-1.271-1.698-0.439-2.479c0.619-0.582,1.651-0.514,1.779-1.475
			c0.134-1.004-0.181-1.864-0.242-2.832c-0.037-0.587-0.016-1.174-0.044-1.762c-0.033-0.718-0.397-1.249-0.595-1.925
			c-0.253-0.86-0.402-1.835-0.494-2.734c-0.081-0.788-0.066-1.726-0.316-2.477c-0.688-0.38-2.044-0.861-2.475-1.538
			c-0.218-0.342-0.234-0.79-0.467-1.12c-0.342-0.484-1.001-0.607-1.378-1.088c-0.745-0.949-0.711-1.961-1.15-3.02
			c-0.685-1.651,0.494-2.767,0.627-4.341c0.133-1.57-0.678-3.227-0.21-4.798c0.308-1.031,0.223-2.204,0.342-3.25
			c0.128-1.136,0.488-2.129,0.316-3.287c-0.042-0.279-0.005-0.564-0.041-0.843c-0.052-0.397-0.246-0.518-0.463-0.82
			c-0.381-0.531-0.176-1.202-0.483-1.769c-0.712-1.321-1.649-2.558-1.461-4.125c0.039-0.325,0.069-0.643,0.077-0.971
			c0.018-0.689,0.244-0.962,0.495-1.616c0.225-0.586,0.776-1.644,0.428-2.253c-0.318-0.555-0.114-1.526-0.312-2.131
			c-0.176-0.538-0.498-0.956-0.787-1.428l-18.319,0.703c0.199-0.417,0.444-0.624,0.526-1.097c0.097-0.566-0.241-0.875-0.22-1.406
			c0.041-1.027,0.813-1.898,0.793-2.944l-4.393,0.088l-0.395,1.01l-10.368,0.615c-0.153,0.394-0.391,0.639-0.525,1.024
			c-0.145,0.416-0.307,0.805-0.407,1.227c-0.206,0.871-0.001,1.658,0.076,2.515c0.041,0.457,0.177,0.854,0.234,1.301
			c0.071,0.565-0.165,0.693-0.388,1.136c-0.264,0.523-0.042,0.829-0.701,1.093c-0.437,0.175-0.944,0.004-1.363,0.226
			c0.116,0.63,0.936,0.992,0.838,1.713c-0.064,0.474-0.279,0.889-0.313,1.399c-0.036,0.511-0.083,0.999-0.133,1.504
			c-0.056,0.564,0.323,1.053,0.267,1.581l-8.435,0.352c-0.181-0.164-0.412-0.467-0.526-0.684c-0.083-0.157-0.088-0.266-0.258-0.327
			c-0.236-0.085-0.703,0-0.943,0c-0.315,0-0.627,0.009-0.941,0.02c-0.292,0.01-0.751-0.147-0.637,0.263
			c0.086,0.311,0.365,0.619,0.541,0.885c-0.368,0.189-0.817,0.016-1.206,0.082c-0.216,0.037-0.352,0.164-0.551,0.26
			c-0.583,0.283-1.213,0.152-1.827,0.269c-0.225,0.042-0.422,0.147-0.649,0.172c-0.319,0.035-0.661,0.003-0.981,0.003
			c-0.478,0-0.93-0.049-1.401-0.088c-0.268,0.13-0.493,0.091-0.628,0.361c-0.216,0.432,0.031,0.408-0.553,0.641
			c-0.304,0.122-0.635,0.261-0.959,0.329c-0.517,0.108-0.937-0.099-1.449-0.123c-0.728-0.034-1.111,0.231-1.776,0.429
			c-0.762,0.227-1.446-0.106-2.17,0.242c-0.257,0.124-0.617,0.286-0.913,0.21c-0.424-0.109-0.287-0.284-0.358-0.672
			c-0.124-0.677-0.805-0.702-1.053-1.262c-0.13-0.293,0.021-0.4-0.274-0.619c-0.439-0.327-0.446-0.085-0.621-0.736
			c-0.073-0.271-0.166-0.565-0.337-0.79c-0.278-0.365-0.899-0.458-1.13-0.773c-0.129-0.176-0.044-0.553-0.144-0.774
			c-0.07-0.154-0.197-0.25-0.289-0.384c-0.221-0.32-0.281-0.77-0.515-1.058c-0.244-0.299-0.573-0.357-0.793-0.738
			c-0.245-0.423-0.343-0.699-0.864-0.845c-0.031-0.295,0.182-0.761,0.042-1.022c-0.132-0.246-0.538-0.225-0.731-0.377
			c-0.361-0.286-0.641-0.755-1.069-1.07c-0.434-0.318-1.002-0.476-1.381-0.86c-0.324-0.329-0.459-0.824-0.672-1.227
			c-0.091-0.172-0.265-0.391-0.198-0.614c0.089-0.296,0.481-0.312,0.542-0.651c0.117-0.644-0.692-0.797-0.883-1.24
			c-0.244-0.566,0.112-1.05-0.293-1.626c-0.29-0.412-0.671-0.693-0.895-1.162c-0.223-0.469-0.435-0.689-0.584-1.227
			c-0.102-0.369-0.24-0.543-0.429-0.861c-0.185-0.312-0.203-0.669-0.283-1.013c-0.095-0.406-0.267-0.784-0.329-1.207
			c-0.065-0.441-0.061-0.827-0.261-1.248c-0.07-0.147-0.295-0.422-0.306-0.585c-0.022-0.337,0.207-0.351,0.295-0.587
			c0.168-0.452-0.001-0.979-0.036-1.431c-0.037-0.474,0.076-0.872-0.171-1.282c-0.249-0.412-0.672-0.583-1.091-0.732
			c-0.362-0.129-0.252,0.07-0.518-0.232c-0.136-0.155-0.234-0.447-0.304-0.64c-0.251-0.697-0.201-1.487-0.201-2.222L49.14,23.532
			c-0.168,0.236-0.289,0.448-0.595,0.53c-0.546,0.148-0.878-0.243-1.306-0.391c-0.592-0.205-1.086,0.23-1.694,0.258
			c-0.976,0.045-1.788-0.453-2.81-0.354c-0.382,0.037-0.748,0.182-1.114,0.31c-0.518,0.18-0.981,0.21-1.523,0.263
			c-0.995,0.097-2.068,0.029-3.028,0.246c-0.425,0.095-0.803,0.097-1.231,0.104c-0.51,0.009-1.364-0.108-1.846,0.086
			c-0.387,0.156-0.554,0.385-1.042,0.399c-0.476,0.014-0.843-0.259-1.306-0.254c-0.446,0.005-0.524,0.211-0.861,0.476
			c-0.229,0.179-0.606,0.386-0.894,0.516c-0.543,0.246-1.34-0.093-1.828,0.191c-0.197,0.115-0.438,0.619-0.58,0.826
			c-0.195,0.283-0.114,0.313-0.44,0.402c-0.292,0.08-0.516-0.078-0.789,0.116c-0.258,0.184-0.494,0.704-0.654,0.97
			c-0.553-0.037-1.068-0.21-1.634-0.211c-0.371-0.001-0.741,0.001-1.112-0.005c0.117,0.27,0.506,0.49,0.397,0.803
			c-0.303,0.103-0.671-0.037-0.963,0.034c-0.071,0.017-0.121,0.195-0.199,0.219c-0.152,0.048-0.336-0.015-0.492,0.004
			c-0.279,0.035-0.254,0.08-0.501,0.167c-0.485,0.17-0.964,0.205-1.463,0.317c-0.77,0.172-0.194,0.394-0.295,0.919
			c-0.251-0.043-0.461-0.284-0.626-0.485c-0.283,0.211-0.341,0.363-0.566,0.07C18.057,29.937,18.119,29.305,18.135,29.155z"/>
		<path fill="#1E8346" d="M21.924,180.751c-0.743-0.197-0.231,1.54-0.152,1.814c0.197,0.695,0.55,1.501,1.037,2.036
			c0.01-0.728,0.092-1.346-0.103-2.073C22.573,182.032,22.493,181.425,21.924,180.751z"/>
	</g>
</g>
<g id="Layer_1">
</g>
</svg>
