<?xml version="1.0" encoding="utf-8"?>
<!-- Generator: Adobe Illustrator 26.0.3, SVG Export Plug-In . SVG Version: 6.00 Build 0)  -->
<svg version="1.1" xmlns="http://www.w3.org/2000/svg" xmlns:xlink="http://www.w3.org/1999/xlink" x="0px" y="0px"
	 viewBox="0 0 200 200" enable-background="new 0 0 200 200" xml:space="preserve">
<g id="Isolation_Mode">
	<path fill="#1E8346" d="M143.101,23.531l-11.683-4.212l-3.761,2.106l-0.903-2.106h-6.619l-8.022,7.12l-6.468,1.605l-8.123,5.415
		l-7.471,0.802l-0.652,7.17l-2.256,0.902l-4.613-2.507l-4.212-1.153l-4.763,3.961l-3.911,1.805l-0.376,1.279l0.326,0.401
		l-0.677,2.081l-0.952,1.906v2.582l0.777,1.655c-0.099,0.209-0.541,0.235-0.731,0.337c-0.316,0.17-0.591,0.307-0.952,0.314
		c-0.437,0.009-0.569-0.346-0.923-0.53c-0.499-0.259-0.867,0.454-1.167,0.743c-0.306,0.294-0.466,0.011-0.693-0.264
		c-0.384-0.465-0.296-1.202-1.038-1.341c-0.223-0.042-0.314,0.09-0.528,0.152c-0.345,0.1-0.932,0.136-1.3,0.087
		c-0.304-0.041-0.219-0.174-0.364-0.396c-0.12-0.184-0.433-0.342-0.636-0.432c-0.225-0.099-1.207-0.295-1.37-0.028
		c-0.202,0.331,0.365,0.487,0.518,0.638c0.296,0.291,0.185,0.855,0.185,1.246c0,0.455-0.005,0.909,0.035,1.361
		c-0.311,0.187-1.071,0.515-0.87,1.009c0.049,0.12,0.23,0.252,0.298,0.388c0.076,0.153,0.126,0.34,0.171,0.505
		c0.065,0.241,0.146,0.5,0.167,0.749c0.012,0.136,0.116,0.234,0.145,0.375c0.051,0.247,0.019,0.568,0.006,0.822
		c-0.023,0.469-0.065,0.844,0.06,1.298c0.12,0.439,0.031,0.858,0.088,1.301c0.038,0.294,0.207,0.596,0.208,0.882
		c-1.037,0.281-2.308-0.016-3.359-0.015c-0.397,0.001-1.433-0.104-1.633,0.257c-0.143,0.257,0.061,0.416,0.153,0.647
		c0.109,0.274,0.253,0.555,0.311,0.847c0.051,0.257,0.19,0.759,0.014,0.976c-0.138,0.171-0.557,0.342-0.781,0.332
		c-0.382,0.121-0.713,0.264-1.122,0.226c-0.2-0.018-0.681-0.046-0.834-0.175c-0.241-0.203-0.186-0.71-0.369-0.963
		c-0.185-0.257-0.443-0.171-0.716-0.216c-0.212-0.035-0.272-0.119-0.389-0.299c-0.133-0.205-0.278-0.382-0.463-0.554
		c-0.467-0.433-0.994-0.987-1.598-1.221c-0.231-0.09-0.81-0.109-1.001-0.286c-0.116-0.108-0.11-0.408-0.147-0.548
		c-0.139-0.528-0.465-1.118-1.047-1.243c-0.232-0.05-0.477-0.036-0.712-0.036c-0.36,0-0.939-0.087-1.268,0.07
		c-0.264,0.125-0.362,0.344-0.709,0.334c-0.326-0.009-0.74-0.184-1.033-0.331c-0.367-0.184-0.465-0.336-0.481-0.768
		c0.375-0.127,0.5-0.438,0.782-0.687c0.159-0.14,0.354-0.209,0.559-0.275c-0.129-0.089-0.429-0.278-0.571-0.319
		c-0.248-0.072-0.202,0.034-0.377-0.155c-0.267-0.288-0.115-0.683-0.568-0.733c-0.078,0.22,0.073,0.268,0.129,0.452
		c0.073,0.239-0.192,0.784-0.452,0.881c-0.239,0.089-0.553-0.078-0.794-0.025c-0.27,0.059-0.482,0.384-0.761,0.504
		c-0.404,0.173-0.675,0.369-1.101,0.456c-0.035,0.907-0.289,1.617-0.868,2.334c-0.359,0.445-0.814,0.779-1.341,1.004
		c-0.65,0.277-1.406,0.336-2.009,0.66c0.2,0.327,0.621,0.516,0.782,0.866c0.041,0.091,0.056,0.272,0.073,0.375
		c0.041,0.252,0.117,0.126-0.045,0.319c-0.22,0.263-0.656,0.311-0.948,0.41c-0.232,0.079-0.481,0.146-0.72,0.22
		c-0.153,0.048-0.366,0.082-0.505,0.143c-0.19,0.083-0.288,0.255-0.429,0.389c0.524,0.654,1.49,1.153,1.722,1.994
		c0.096,0.348,0.012,0.787,0.151,1.094c0.191,0.42,0.73,0.759,1.176,0.792c0.02,0.163-0.057,0.319-0.057,0.49
		c0,0.173-0.002,0.33-0.034,0.5c-0.072,0.392-0.118,0.744-0.079,1.144c0.032,0.334,0.266,0.582,0.264,0.928
		c-0.002,0.273,0.005,0.581-0.039,0.85c-0.066,0.403-0.448,0.771-0.471,1.171c-0.002,0.034,0.056,0.066,0.055,0.088
		c-0.006,0.164-0.068,0.282-0.152,0.425c-0.245,0.42-0.517,0.68-1.014,0.745c-0.251,0.033-0.621,0.113-0.83-0.049
		c-0.222-0.172-0.274-0.509-0.482-0.702c-0.134-0.125-0.25-0.235-0.455-0.178c-0.244,0.067-0.489,0.303-0.658,0.483
		c-0.42,0.446-1.163,0.404-1.71,0.223c-0.094-0.031-0.597-0.207-0.678-0.07c-0.032,0.053,0.096,0.396,0.104,0.486
		c0.031,0.318-0.174,0.643-0.085,0.95c0.085,0.29,0.459,0.502,0.69,0.658c0.345,0.234,0.668,0.341,1.04,0.504
		c0,0.224-0.056,0.478-0.001,0.696c0.048,0.192,0.194,0.252,0.309,0.388c0.092,0.109,0.132,0.262,0.218,0.369
		c0.136,0.17,0.29,0.358,0.419,0.515c-0.295,0.581-1.199,0.688-1.325,1.36c-0.077,0.408-0.239,0.784-0.368,1.178
		c-0.062,0.189-0.09,0.266,0.022,0.418c0.056,0.076,0.114,0.104,0.152,0.194c0.028,0.069,0.017,0.152,0.047,0.223
		c0.079,0.188,0.095,0.416,0.165,0.603c0.059,0.158,0.133,0.305,0.188,0.464c0.056,0.163,0.124,0.329,0.206,0.479
		c0.066,0.121,0.183,0.242,0.192,0.391c0.013,0.205-0.369,0.431-0.581,0.36c-0.157-0.053-0.25-0.322-0.335-0.449
		c-0.107-0.159-0.294-0.402-0.517-0.38c-0.247,0.024-0.195,0.331-0.237,0.521c-0.07,0.311-0.278,0.531-0.455,0.783
		c-0.114,0.161-0.25,0.306-0.398,0.431c-0.172,0.146-0.429,0.232-0.577,0.37c-0.315,0.294-0.629,0.472-0.983,0.702
		c-0.184,0.12-0.29,0.275-0.177,0.493c0.231,0.446,0.448,0.873,0.716,1.301c-0.501,0.347-1.17,0.144-1.712,0.381
		c-0.322,0.14-0.431,0.471-0.382,0.795c0.032,0.217-0.004,0.537,0.076,0.729c-0.261,0.122-0.661,0.043-0.951,0.125
		c-0.185,0.053-0.387,0.091-0.559,0.175c-0.275,0.136-0.482,0.392-0.692,0.622c-0.2,0.219-0.34,0.47-0.627,0.571
		c-0.413,0.144-0.891,0.128-1.304,0.01c-0.244-0.07-0.484-0.137-0.741-0.144c-0.394-0.012-0.731,0.159-1.113,0.208
		c-0.619,0.078-1.246,0.116-1.867,0.177c-0.783,0.076-1.541,0.271-2.318,0.393c-0.746,0.117-1.502,0.281-2.085,0.819
		c-0.313,0.289-0.502,0.719-0.826,1.023c-0.212,0.198-0.5,0.373-0.754,0.507c-0.35,0.185-0.7,0.249-0.829,0.628
		c-0.064,0.188-0.034,0.408-0.075,0.609c-0.288,0.191-0.32-0.008-0.522-0.196c-0.1-0.094-0.399-0.371-0.557-0.282
		c-0.239,0.134,0.03,0.551-0.42,0.403c-0.178-0.059-0.219-0.231-0.385-0.18c-0.151,0.047-0.282,0.293-0.417,0.381
		c-0.391,0.255-0.436-0.224-0.838-0.297c-0.358-0.065-0.442,0.339-0.314,0.607c0.083,0.175,0.31,0.385,0.452,0.518
		c0.271,0.253,0.429,0.178,0.729-0.031c0.208-0.145,0.241-0.256,0.442-0.169c0.172,0.075,0.325,0.317,0.452,0.457
		c0.344,0.374,0.567,0.629,1.104,0.558c-0.009,0.402-0.293,0.746-0.247,1.137c0.024,0.201,0.092,0.369,0.095,0.584
		c0.005,0.348,0.001,0.519-0.212,0.796c-0.144,0.187-0.425,0.644-0.39,0.885c0.07,0.492,1.412,0.295,1.707,0.535
		c0.206,0.168,0.197,0.658,0.297,0.888c0.118,0.27,0.161,0.408,0.153,0.754c-0.009,0.387,0.049,0.738,0.075,1.124
		c0.029,0.451,0.148,0.93,0.045,1.384c-0.115,0.503-0.493,0.735-0.873,1.04c-0.396,0.319-0.643,0.79-0.651,1.303
		c-0.01,0.688,0.126,1.346,0.126,2.042c-0.198,0.148-0.342,0.283-0.548,0.416c-0.175,0.113-0.352,0.125-0.539,0.205
		c-0.231,0.099-0.616,0.447-0.7,0.703c-0.097,0.297-0.062,0.635-0.178,0.944c-0.206,0.549-0.154,0.722-0.817,0.897
		c-0.453,0.12-0.887,0.259-1.331,0.405c-0.55,0.18-1.074,0.157-1.53,0.551c0.07,0.163,0.255,0.297,0.305,0.466
		c0.043,0.147-0.031,0.344-0.028,0.493c0.005,0.314,0.113,0.396-0.048,0.672c-0.099,0.171-0.192,0.437-0.208,0.643
		c-0.011,0.134-0.077,0.135,0.094,0.225c0.18,0.095,0.577-0.001,0.771-0.058c0.069,0.204-0.019,0.521,0,0.751
		c0.023,0.281-0.018,0.583,0.071,0.85c0.108,0.322,0.3,0.634,0.553,0.856c0.227,0.199,0.486,0.445,0.722,0.632
		c0.178,0.141-0.065,0.317-0.176,0.49c-0.175,0.274-0.311,0.531-0.428,0.827c-0.087,0.221-0.17,0.488-0.393,0.602
		c-0.212,0.109-0.45,0.087-0.657,0.23c0.045,0.27,0.221,0.449,0.202,0.73c-0.025,0.359-0.077,0.704-0.077,1.071
		c0,0.447,0.096,0.974-0.204,1.302c-0.218,0.239-0.234,0.352,0.013,0.573c0.21,0.188,0.315,0.276,0.292,0.616
		c-0.02,0.287-0.018,0.595-0.05,0.881c-0.029,0.259-0.173,0.394-0.263,0.627c-0.147,0.38-0.314,0.746-0.482,1.117
		c-0.136,0.3-0.231,0.786-0.534,0.962c0.151,0.334,0.255,0.718,0.382,1.058c0.1,0.266,0.314,0.522,0.489,0.75
		c0.183,0.238,0.373,0.512,0.563,0.75c0.191,0.239,0.252,0.383,0.538,0.456c0.166,0.042,0.318,0.066,0.469,0.148
		c0.316,0.171,0.563,0.396,0.914,0.494c0.079,0.022,0.284,0.103,0.36,0.034c0.085-0.078-0.027-0.274,0.019-0.369
		c0.15-0.315,0.469-0.02,0.646,0.126c0.258,0.213,0.422,0.151,0.634-0.099c0.199-0.233,0.25-0.234,0.565-0.245
		c0.336-0.013,0.669-0.02,1.006-0.02c0.16,0,0.327,0.014,0.486,0c0.212-0.019,0.226-0.065,0.392-0.165
		c0.157,0.141,0.209,0.527,0.379,0.621c0.072,0.039,0.572-0.108,0.664-0.134c0.201-0.057,0.397-0.106,0.613-0.157
		c0.197-0.047,0.259-0.127,0.356,0.063c0.077,0.152-0.149,0.685,0.173,0.652c0.003,0.156-0.093,0.293-0.113,0.44
		c-0.023,0.16,0.019,0.204,0.068,0.375c0.062,0.213,0.09,0.477-0.001,0.69c0.113-0.007,0.487-0.132,0.571-0.052
		c0.123,0.117,0.019,0.322,0.054,0.479c0.06,0.265,0.302,0.414,0.427,0.642c0.215,0.393,0.164,0.844,0.328,1.254
		c0.144,0.358,0.364,0.548,0.568,0.842c0.23-0.112,0.538-0.218,0.701-0.418c0.019,0.291-0.06,0.536,0.048,0.8
		c0.106,0.26,0.328,0.505,0.511,0.713c0.153,0.173,0.421,0.346,0.18,0.56c-0.23,0.205-0.502,0.117-0.263,0.452
		c0.209,0.293,1.019,0.722,0.581,1.136c-0.112,0.106-0.253,0.113-0.335,0.253c-0.095,0.162-0.082,0.443-0.04,0.62
		c0.071,0.303,0.261,0.821,0.555,0.982c0.133,0.073,0.287,0.081,0.451,0.01c0.206-0.089,0.291-0.399,0.474-0.457
		c0.201-0.064,0.655,0.239,0.835,0.311c0.273,0.109,0.546,0.26,0.82,0.372c0.309,0.126,0.652,0.27,0.938,0.435
		c0.242,0.139,0.344,0.214,0.319,0.493c-0.013,0.14-0.094,0.29-0.057,0.452c0.015,0.063,0.154,0.245,0.129,0.312
		c-0.039,0.108-0.652,0.12-0.764,0.156c0.123,0.18,0.337,0.27,0.459,0.444c0.077,0.109,0.093,0.241,0.168,0.356
		c0.083,0.129,0.249,0.24,0.367,0.333c0.269-0.366,0.487-0.645,0.968-0.292c0.288,0.211,0.437,0.63,0.584,0.937
		c0.097,0.202,0.349,0.735,0.538,0.838c0.076,0.041,0.373,0.019,0.458-0.024c0.223-0.114,0.167-0.392,0.249-0.571
		c0.173-0.377,0.426-0.32,0.704-0.236c0.09,0.028,0.171,0.092,0.275,0.099c0.204,0.013,0.271-0.102,0.524,0.029
		c0.257,0.134,0.43,0.345,0.707,0.106c0.1-0.087,0.193-0.268,0.253-0.388c0.111-0.225,0.032-0.503,0.127-0.702
		c0.178-0.373,0.878-0.184,0.973,0.174c0.094,0.356-0.186,0.585-0.173,0.945c0.009,0.247-0.069,0.826,0.161,0.973
		c0.116,0.074,0.39,0.018,0.53,0.016c0.362-0.005,0.714-0.069,1.076-0.075c0.271-0.005,0.352-0.033,0.525,0.177
		c0.185,0.224,0.274,0.508,0.392,0.77c0.125,0.279,0.421,0.889,0.84,0.704c0.298-0.131-0.13-0.73,0.381-0.713
		c0.27,0.009,0.472,0.435,0.783,0.427c0.225-0.006,0.429-0.236,0.524-0.416c0.305-0.58,0.046-1.366,0.361-1.916
		c0.094-0.165,0.482-0.417,0.472-0.638c-0.009-0.192-0.281-0.23-0.332-0.409c-0.215-0.739,1.574-0.672,1.933-0.796
		c0.345-0.119,0.375-0.386,0.55-0.678c0.254-0.425,0.646-0.703,1.007-1.026c0.172,0.205,0.433,0.211,0.658,0.361
		c0.259,0.173,0.467,0.459,0.748,0.592c0.128,0.06,0.383,0.123,0.506,0.043c0.069-0.046,0.059-0.161,0.112-0.22
		c0.078-0.087,0.182-0.144,0.277-0.211c0.408-0.287,1.132-0.143,1.635-0.136c-0.086-0.296-0.117-0.792,0.025-1.077
		c0.554,0.12,0.846-0.362,1.319-0.533c0.469-0.17,1.025-0.088,1.513-0.161c0.505-0.076,0.859-0.042,1.358-0.262
		c0.41-0.181,0.65-0.298,1.117-0.302c0.554-0.005,1.365,0.139,1.869-0.162c0.24-0.143,0.563-0.431,0.85-0.504
		c0.242-0.061,0.181-0.043,0.41,0.193c0.086,0.088,0.179,0.163,0.229,0.273c1.153,0.091,2.307-0.048,3.455,0.042
		c0.047,0.114,0.335,0.374,0.474,0.431c0.328,0.134,0.252-0.209,0.518-0.288c0.341-0.101,0.76,0.385,1.034,0.546
		c0.355,0.209,0.979,0.091,1.278-0.196c0.107,0.394,0.087,0.873,0.409,1.173c0.216,0.201,0.609,0.239,0.857,0.08
		c0.294-0.189,0.588-0.527,0.816-0.789c0.16-0.184,0.28-0.344,0.487-0.482c0.158-0.106,0.36-0.181,0.455-0.354
		c0.109,0.678,0.054,1.363,0.106,2.043c0.204,0.106,0.481-0.163,0.688-0.149c0.115,0.008,0.309,0.166,0.418,0.225
		c0.207,0.113,0.474,0.241,0.62,0.404c0.186,0.208,0.227,0.507,0.295,0.762c0.142,0.533,0.338,0.834,0.668,1.238
		c0.159,0.195,0.275,0.41,0.535,0.357c0.188-0.038,0.379-0.191,0.577-0.244c0.134-0.036,0.277-0.048,0.378-0.132
		c0.298,0.516,0.569,1.071,0.757,1.638c0.195,0.588,0.493,1.122,0.707,1.699c0.213,0.577,0.588,0.988,0.924,1.495
		c0.564,0.851,1.287,1.418,2.052,2.087c0.311,0.273,0.621,0.571,0.999,0.75c0.094,0.044,0.264,0.136,0.373,0.143
		c0.22,0.014,0.171-0.03,0.349-0.157c0.339-0.243,0.677-0.368,0.967-0.682c0.147-0.16,0.459-0.451,0.471-0.68
		c0.013-0.243-0.292-0.529-0.438-0.718c-0.291-0.378-0.661-0.691-0.985-1.04c-0.202-0.217-0.384-0.484-0.506-0.754
		c-0.221-0.488,0.082-0.602,0.338-0.969c0.199-0.285,0.289-0.94,0.04-1.234c-0.134-0.158-0.35-0.11-0.48-0.237
		c-0.141-0.137-0.156-0.587-0.219-0.783c-0.15-0.467-0.219-1.01,0.207-1.331c0.47-0.354,0.66-0.902,1.114-1.28
		c-0.236-0.362-0.443-0.399-0.51-0.86c-0.037-0.255-0.107-0.465-0.185-0.698c-0.023-0.07-0.063-0.084-0.052-0.18
		c0.049-0.426,0.257-0.696,0.328-1.095c0.041-0.228-0.034-0.514-0.103-0.738c-0.186-0.606-0.74-0.939-0.8-1.611
		c-0.049-0.552-0.095-1.128-0.204-1.674c-0.098-0.489-0.245-0.916-0.199-1.419c0.016-0.179,0.065-0.358,0.153-0.517
		c0.113-0.203,0.21-0.181,0.344-0.32c0.186-0.192,0.283-0.615,0.405-0.849c-0.019-0.293,0.035-0.418-0.199-0.621
		c-0.136-0.118-0.374-0.137-0.536-0.188c-0.195-0.061-0.212-0.109-0.361-0.219c-0.274-0.203-0.478-0.347-0.636-0.653
		c-0.152-0.294-0.27-0.706-0.226-1.041c0.103-0.785,0.704-1.04,1.309-1.393c0.463-0.27,0.096-0.42-0.26-0.609
		c-0.551-0.293-1.179-0.394-1.516-0.963c-0.221-0.373-0.372-0.731-0.522-1.141c-0.176-0.482-0.445-0.83-0.72-1.262
		c-0.166-0.26-0.354-0.483-0.465-0.769c-0.125-0.322,0.037-0.651,0.171-0.968c0.172-0.409,0.625-0.556,0.376-1.101
		c-0.045-0.099-0.409-0.374-0.509-0.419c-0.065-0.402,0.487-0.813,0.746-1.091c0.263-0.283,0.259-0.564,0.329-0.95
		c0.079-0.438,0.082-0.893,0.135-1.332c0.028-0.234,0.106-0.904,0.353-1.044c0.084-0.048,0.238,0.011,0.338-0.013
		c0.18-0.043,0.252-0.151,0.386-0.254c0.244-0.188,0.397-0.31,0.305-0.677c-0.048-0.192-0.212-0.301-0.25-0.512
		c-0.023-0.131,0.003-0.279,0.021-0.408c0.035-0.259,0.025-0.675,0.201-0.873l25.622,0.238c0.22,0.151-0.028,0.467,0.216,0.536
		c0.163,0.046,0.568-0.138,0.751-0.148c0.208-0.011,0.41-0.026,0.619-0.036c0.432-0.021,1.51,0.082,1.675-0.34
		c0.079-0.202,0.062-0.7-0.003-0.901h4.538l0.928,1.053l10.805-0.251c0.492,0,1.019,0.254,1.517,0.196
		c0.625-0.072,0.894-0.454,1.53-0.239c0.498,0.168,0.962,0.378,1.487,0.418c0.211,0.017,0.413,0.03,0.627,0.028
		c0.24-0.003,0.648-0.104,0.88-0.038c0.239,0.068,0.579,0.51,0.728,0.679c0.197,0.223,0.369,0.45,0.606,0.634
		c0.357,0.278,0.545,0.388,0.831-0.052c0.309-0.475-0.088-1.297,0.635-1.45c0.482-0.102,0.966,0.415,1.291-0.193
		c0.163-0.305,0.238-0.563,0.585-0.765c0.237-0.137,0.667-0.19,0.939-0.104c0.054-0.502,0.065-1.032,0.146-1.528
		c0.069-0.433,0.39-0.552,0.798-0.672c0.349-0.103,0.721-0.206,0.839,0.255c0.1,0.391-0.037,0.81,0.343,1.095
		c0.233-0.135,0.454-0.393,0.588-0.625c0.081-0.139,0.104-0.418,0.201-0.53c0.178-0.206,0.51-0.146,0.773-0.168
		c0.124-0.011,0.358-0.064,0.402-0.201c0.059-0.183-0.156-0.243-0.218-0.393c-0.106-0.256-0.062-0.669,0.237-0.716l19.144,4.145
		l-0.585,1.728l2.858-1.454l6.819-0.251c0.365,0,0.86-0.598,1.044-0.894c0.226-0.362,0.497-1.561,1.165-1.124
		c0.299,0.196,0.2,0.666,0.557,0.787c0.546,0.184,0.691-0.36,1.234,0.098c0.239,0.202,0.376,0.465,0.7,0.58
		c0.112-0.608-0.057-1.242-0.266-1.806c-0.058-0.155-0.181-0.437-0.341-0.529c-0.172-0.099-0.518-0.024-0.713-0.065
		c0.374-0.516,0.572-0.688,1.157-0.962c0.493-0.232,0.817-0.402,1.32-0.089c0.117-0.235,0.256-1.179,0.05-1.462
		c-0.135-0.185-0.536-0.271-0.567-0.563c-0.017-0.165,0.327-0.489,0.48-0.538c0.405-0.129,0.811,0.459,1.197,0.56
		c0.4,0.104,1.018-0.025,1.404-0.16c0.566-0.198,0.177-0.677,0.025-0.934c-0.098-0.165-0.195-0.459,0.087-0.576
		c0.187-0.078,0.292,0.118,0.439,0.243c0.291,0.247,0.663,0.305,1.028,0.214c0.257-0.064,0.383-0.196,0.349-0.468
		c-0.041-0.336-0.352-0.532-0.426-0.82c-0.085-0.329,0.651-0.49,0.898-0.631c0.276-0.157,0.562-0.366,0.828-0.554
		c0.241-0.171,0.291-0.214,0.037-0.42c-0.12-0.096-0.42-0.175-0.464-0.316c-0.068-0.219,0.195-0.437,0.347-0.56
		c0.267-0.217,0.539-0.292,0.866-0.336c0.489-0.066,0.805-0.257,1.277-0.025c0.386,0.19,0.729,0.28,1.159,0.307
		c0.161,0.01,0.669-0.081,0.789-0.006c0.173,0.108,0.294,0.433,0.448,0.589c0.576,0.583,0.829,0.525,1.552,0.374
		c0.931-0.194,1.812-0.552,2.778-0.572c0.857-0.018,1.766-0.147,2.622-0.054c0.337,0.037,0.616,0.247,0.78,0.558
		c0.163,0.31,2.218,0.223,2.506,0.058c0.442-0.253,0.751-0.899,1.015-1.32c0.266-0.422,0.667-0.807,1.039-1.117
		c0.901-0.749,2.133-1.2,2.873-2.147c0.223-0.286,0.315-0.6,0.644-0.794c0.315-0.186,0.885-0.586,1.228-0.636
		c0.06-0.514,0.118-1.02,0.12-1.54c0.002-0.434,0.328-0.93,0.693-1.202c0.365-0.272,0.904-0.283,0.975-0.805
		c0.081-0.592,0.327-0.993,0.516-1.553c0.198-0.589,0.071-0.743-0.229-1.228l-7.546-10.254c-0.012-0.348,0.142-1.025,0.57-1.104
		c0.18-0.033,0.319,0.163,0.45,0.184c0.253,0.041,0.353-0.182,0.486-0.366c0.34-0.474,0.678-0.501,1.246-0.517
		c0.66-0.018,1.317-0.045,1.978-0.053c0.037-0.321,0.126-0.962,0.006-1.27c-0.111-0.284-0.51-0.505-0.671-0.785
		c-0.175-0.306-0.193-0.794-0.204-1.135c-0.008-0.263,0.039-0.614-0.054-0.865c-0.105-0.279-0.51-0.559-0.721-0.767
		c-0.202-0.199-0.391-0.34-0.628-0.49c-0.14-0.089-0.26-0.111-0.356-0.274c-0.185-0.313,0.065-0.742-0.251-1.01
		c-0.189-0.16-0.462-0.183-0.666-0.341c-0.167-0.13-0.336-0.32-0.514-0.427c-0.287-0.171-0.674-0.173-0.995-0.221
		c-0.647-0.096-1.173-0.156-1.831-0.036l-2.708,3.159l-20.871-12.222v-6.581h1.504c0.257,0.17,0.564,0.358,0.818,0.532
		c0.468,0.32,0.997,0.4,1.505,0.62c0.27,0.117,0.554,0.297,0.799,0.107c0.268-0.208,0.314-0.93,0.451-1.236
		c0.285,0.249,0.388,0.793,0.759,0.928c0.239,0.087,0.952-0.162,1.015-0.44c0.032-0.144-0.249-0.576-0.349-0.704
		c-0.264-0.336-0.645-0.434-1.061-0.517c-0.537-0.107-1.114-0.076-1.647-0.209c-0.555-0.137-0.652-0.429-1.043-0.808
		c-0.332-0.322-0.757-0.587-1.211-0.719c-0.278-0.081-0.623-0.088-0.826-0.301c-0.093-0.857-0.08-2.174-0.919-2.702
		c-0.358-0.225-1.087-0.456-1.504-0.551c-0.556-0.127-1.191-0.056-1.758-0.056c-0.399,0-0.933,0.107-1.288-0.114
		c0.057-0.35,0.112-1.026-0.138-1.3c-0.574-0.63-2.204-0.215-2.935-0.172c-0.595,0.035-1.031-0.16-1.276-0.747
		c-0.223-0.536,0.317-0.967,0.378-1.465c-0.434,0.059-0.883-0.349-1.17-0.606c-0.469-0.421-1.006-0.749-1.381-1.276
		c-0.331-0.464-0.662-0.95-0.984-1.421c-0.226-0.331-0.204-0.605-0.292-1.004c-0.284-0.095-0.4-0.07-0.575-0.271
		c-0.069-0.078-0.012-0.196-0.079-0.281c-0.215-0.275-0.391-0.138-0.503-0.5c-0.085-0.276,0.028-0.531-0.123-0.8
		c-0.118-0.21-0.334-0.283-0.534-0.422l-5.265-11.808c-0.145-1.144-0.225-2.368,0.234-3.449c0.189-0.443,0.483-0.841,0.784-1.215
		c0.179-0.222,0.487-0.504,0.518-0.813c0.083-0.85-0.975-1.309-1.116-2.056c-0.107-0.566,0.394-0.729,0.725-1.044
		C142.603,24.329,142.922,23.703,143.101,23.531z"/>
</g>
<g id="Layer_1">
</g>
</svg>
