<?xml version="1.0" encoding="utf-8"?>
<!-- Generator: Adobe Illustrator 26.0.3, SVG Export Plug-In . SVG Version: 6.00 Build 0)  -->
<svg version="1.1" xmlns="http://www.w3.org/2000/svg" xmlns:xlink="http://www.w3.org/1999/xlink" x="0px" y="0px"
	 viewBox="0 0 200 200" enable-background="new 0 0 200 200" xml:space="preserve">
<g id="Isolation_Mode">
	<g>
		<path fill="#1E8346" d="M150.156,59.767c-0.131-1.04-1.087-0.687-1.657-1.403c-0.339-0.426-0.35-0.991-0.524-1.485
			c-0.152-0.431-0.522-0.787-0.653-1.216c-0.318-1.045,0.552-2.298,0.551-3.367c-0.001-0.569,0.015-1.125-0.123-1.683
			c-0.095-0.382-0.223-0.837-0.458-1.157c-0.229-0.312-0.605-0.41-0.845-0.696c-0.426-0.506,0.033-1.588,0-2.238
			c-0.028-0.556-0.099-0.652-0.551-0.98c-0.592-0.43-1.192-0.811-1.802-1.216c-1.065-0.708-2.038-1.537-2.944-2.428
			c-0.444-0.437-1.027-0.803-1.373-1.291c-0.315-0.444-0.13-0.814,0.038-1.313c0.226-0.672,0.358-1.372,0.525-2.063
			c0.203-0.837,0.428-1.879,0.4-2.737c0.737-0.684,0.223-2.268,0.395-3.133c0.112-0.559,0.456-1.118,0.703-1.628
			c0.258-0.534,0.746-1.149,0.792-1.756c-0.286-0.137-0.807-0.586-1.013-0.839c-0.386-0.472,0.085-1.013,0.048-1.582
			c-0.284-0.13-0.597-0.098-0.891-0.191c-0.482-0.153-0.412-0.461-0.534-0.916c-0.226-0.843-0.885-1.617-1.72-1.874
			c-0.549-0.169-1.149-0.234-1.725-0.297c-0.456-0.05-0.836-0.237-1.28-0.309c-0.576-0.094-1.242,0.204-1.643-0.309
			c-0.267-0.342-0.255-0.806-0.387-1.196c-0.284-0.06-0.38-0.021-0.54-0.264c-0.145-0.222-0.145-0.568-0.272-0.8
			c-0.294-0.539-0.32-0.701-0.148-1.332c-0.117-0.251-0.144-0.452-0.374-0.569c-0.432-0.219-0.804,0.035-1.048-0.464
			c-0.062-0.127-0.103-0.288-0.196-0.397c-0.206-0.245-0.59-0.353-0.843-0.569c-0.206-0.177-0.325-0.337-0.491-0.551
			c-0.242-0.312-0.498-0.574-0.792-0.84c-0.283-0.256-0.354-0.436-0.512-0.777c-0.351-0.758-1.35-0.752-1.874-1.384
			c-0.299-0.36-0.391-0.758-0.734-1.096c-0.328-0.324-0.6-0.723-0.847-1.094c-0.318-0.476-0.803-0.652-1.31-0.889
			c-0.269-0.126-0.494-0.208-0.675-0.447c-0.254-0.336-0.397-0.677-0.722-0.97c-0.346-0.312-0.763-0.501-1.107-0.798
			c-0.279-0.241-0.467-0.575-0.752-0.802c-0.546-0.435-1.479-0.511-2.087-0.158c-0.321,0.187-0.621,0.52-0.88,0.784
			c-0.228,0.231-0.464,0.18-0.708,0.367c-0.223-0.22-0.262-0.386-0.596-0.154c-0.357,0.247-0.606,0.887-0.723,1.291
			c-0.1,0.342,0.017,1.105-0.541,1.143c-0.396,0.027-0.254-0.551-0.726-0.633c-0.63-0.11-1.435,0.035-2.071,0.103
			c-0.267,0.028-0.211,0.006-0.38,0.192c-0.17,0.187-0.177,0.285-0.463,0.33c-0.15,0.024-0.34-0.036-0.485,0.002
			c-0.072,0.019-0.146,0.103-0.213,0.112c-0.242,0.031-0.126,0.127-0.374-0.156c-0.38-0.434-0.652-0.164-0.801,0.335
			c-0.123,0.412-0.848-0.213-1.166,0.139c-0.121,0.134-0.1,0.402-0.34,0.374c-0.157-0.018-0.321-0.286-0.532-0.306
			c-0.137-0.013-0.151-0.034-0.272,0.045c-0.073,0.048-0.077,0.18-0.168,0.241c-0.191,0.127-0.365,0.012-0.564-0.046
			c-0.224-0.065-0.432-0.121-0.643-0.007c-0.086,0.046-0.39,0.329-0.39,0.443c-0.001,0.202,0.342,0.391,0.441,0.569
			c-0.046,0.038-0.449,0.243-0.464,0.305c-0.031,0.133,0.197,0.353,0.256,0.47c0.064,0.126,0.222,0.431,0.177,0.582
			c-0.054,0.178-0.398,0.219-0.418,0.398c-0.016,0.137,0.215,0.373,0.282,0.48c0.164,0.263,0.325,0.556,0.303,0.875
			c-0.011,0.153-0.186,0.387-0.143,0.529c0.018,0.06,0.169,0.116,0.213,0.171c0.202,0.254,0.223,0.661,0.45,0.897
			c0.047,0.049,0.177,0.039,0.239,0.111c0.118,0.139-0.002,0.414,0.083,0.577c0.069,0.132,0.197,0.13,0.249,0.213
			c0.086,0.138,0.044,0.343,0.094,0.488c0.277,0.163,0.577,0.53,0.741,0.814c0.162,0.28,0.098,0.543,0.154,0.858
			c-0.258,0.037-0.584-0.222-0.768,0.033c-0.201,0.278,0.16,0.707-0.231,0.84c-0.425,0.144-0.817-0.321-0.992,0.277
			c-0.1,0.341-0.145,0.77,0.082,1.053c0.149,0.185,0.012,0.671,0.001,0.905c-0.017,0.402-0.12,0.397-0.427,0.587
			c-0.253,0.157-0.496,0.504-0.325,0.793c0.067,0.113,0.339,0.204,0.342,0.369c0.003,0.204-0.568,0.265-0.748,0.301
			c0.052,0.213,0.438,0.438,0.342,0.69c-0.087,0.226-0.632,0.18-0.855,0.335c-0.308,0.213-0.176,0.584-0.517,0.765
			c-0.159,0.084-0.303,0.078-0.434,0.227c-0.151,0.172-0.278,0.544-0.356,0.755c-0.122,0.334-0.113,0.666,0.03,0.998
			c0.152,0.354,0.379,0.471,0.126,0.836c-0.206,0.296-0.554,0.617-0.922,0.68c-0.266,0.046-0.63-0.095-0.878,0.002
			c-0.198,0.077-0.158,0.097-0.181,0.357c-0.045,0.493-0.366,0.525-0.758,0.777c-0.219,0.141-0.343,0.383-0.571,0.496
			c-0.159,0.079-0.332,0.068-0.463,0.191c-0.085,0.294-0.484,0.571-0.719,0.76c-0.189,0.152-0.404,0.335-0.619,0.451
			c-0.089,0.048-0.145,0.054-0.233,0.094c-0.334,0.15-0.452,0.486-0.667,0.752c-0.135,0.166-0.283,0.324-0.42,0.488
			c-0.147,0.176-0.247,0.435-0.407,0.591c-0.094,0.092-0.203,0.085-0.321,0.119c-0.227,0.066-0.387,0.181-0.508,0.378
			c-0.099,0.16-0.148,0.338-0.235,0.503c-0.097,0.184-0.253,0.338-0.379,0.502c-0.19,0.248-0.314,0.592-0.587,0.742
			c-0.381,0.208-0.789,0.086-1.193,0.042c-0.161-0.018-0.345-0.084-0.507-0.063c-0.123,0.016-0.211,0.093-0.335,0.117
			c-0.268,0.05-0.695-0.241-0.901,0.057c-0.231,0.048-0.326-0.342-0.44-0.482c-0.107-0.131-0.188-0.23-0.363-0.266
			c-0.248-0.051-0.254,0.027-0.425-0.166c-0.322-0.365-0.855-0.424-1.252-0.168c-0.297,0.192-0.339,0.352-0.737,0.367
			c-0.204,0.007-0.535-0.187-0.709-0.078c-0.144,0.091-0.185,0.291-0.359,0.374c-0.329,0.157-0.733,0.091-1.077,0.052
			c-0.266-0.03-0.518-0.057-0.785-0.057c-0.298,0-0.694-0.105-0.89,0.134c-0.175,0.215-0.07,0.263-0.33,0.247
			c-0.254-0.015-0.178-0.008-0.35,0.179c-0.092,0.1-0.264,0.322-0.387,0.372c-0.243,0.1-0.447-0.319-0.689-0.256
			c-0.094,0.024-0.191,0.157-0.302,0.192c-0.18,0.058-0.428,0.082-0.619,0.053c-0.241-0.037-0.548-0.266-0.669-0.496
			c-0.073-0.137-0.063-0.304-0.146-0.442c-0.094-0.155-0.189-0.215-0.258-0.38c-0.157-0.376-0.291-0.765-0.661-0.997
			c-0.266,0.202-0.578,0.914-1.041,0.649c-0.14-0.08-0.194-0.315-0.358-0.389c-0.186-0.084-0.592-0.024-0.686,0.179
			c-0.153-0.057-0.223-0.219-0.387-0.241c-0.427-0.056-0.628-0.698-1.137-0.439c-0.211,0.107-0.189,0.341-0.276,0.522
			c-0.196,0.408-0.31,0.335-0.744,0.34c-0.445,0.006-0.721,0.203-0.601,0.725c0.124,0.536,0.699,0.502,0.137,1.045
			c-0.383,0.371-0.395,0.323-0.87,0.233c-0.436-0.084-0.719-0.074-0.887,0.365c-0.069,0.18-0.18,0.533-0.198,0.724
			c-0.045,0.474,0.216,0.549,0.437,0.862c0.145,0.206,0.205,0.759-0.116,0.898c-0.145,0.063-0.804-0.151-0.953-0.226
			c-0.293-0.147-0.44-0.539-0.787-0.619c-0.207-0.048-0.362-0.006-0.487,0.146c-0.225,0.274,0.001,0.474,0.155,0.683
			c0.251,0.342,0.446,1.008,0.034,1.355c-0.436,0.368-1.216-0.252-1.746-0.294c-0.312-0.024-0.783,0.108-1.066-0.037
			c-0.196-0.1-0.199-0.304-0.408-0.426c-0.442-0.258-0.986,0.338-0.975,0.772c0.009,0.345,0.618,0.434,0.71,0.728
			c0.082,0.26-0.197,0.532-0.231,0.774c-0.058,0.414,0.274,0.613,0.353,0.938c0.123,0.511-0.206,0.404-0.557,0.179
			c-0.428-0.275-0.619-0.305-0.922,0.042c-0.278,0.319-0.611,0.59-1.062,0.698c-0.267,0.064-0.883-0.124-0.855,0.324
			c0.021,0.335,0.493,0.377,0.733,0.365c0.344,0.421,0.62,0.748,0.733,1.293c0.073,0.354,0.047,0.559,0.233,0.828
			c0.109,0.157,0.17,0.089,0.23,0.292c0.047,0.159,0.005,0.435-0.041,0.596c-0.295-0.058-0.533-0.408-0.766-0.587
			c-0.607-0.463-1.014,0.044-1.75,0.009c-0.367-0.018-0.353,0.053-0.489-0.341c-0.071-0.208-0.069-0.455-0.181-0.646
			c-0.196-0.337-0.381-0.293-0.776-0.284c-0.103,0.551,0.009,0.988-0.499,1.335c-0.436,0.298-0.596,0.309-0.902,0.708
			c-0.741,0.965-1.523,2.036-1.703,3.282c-0.093,0.648,0.253,1.254,0.11,1.877c-0.053,0.23-0.199,0.422-0.271,0.647
			c-0.088,0.277-0.038,0.539-0.09,0.812c-0.236,1.23-1.621,2.017-2.242,3.02c0,0.947-0.077,1.983-0.039,2.93
			c0.024,0.587,0.354,1.437,0.238,1.984c-0.126,0.602-0.805,0.881-0.932,1.543c-0.138,0.725-0.047,1.576-0.117,2.315
			c-0.074,0.79-0.254,1.724,0.279,2.21c0.914,0.835,2.608,1.24,3.666,1.895c1.056,0.655,1.897,1.709,2.876,2.502
			c1.134,0.919,2.236,1.808,3.437,2.628c2.4,1.639,5.101,2.704,7.519,4.278c0.117,0.431,0.158,1.232,0.194,1.672
			c0.054,0.658,0.083,1.318,0.114,1.984c0.066,1.416-0.052,2.787-0.111,4.194c-0.025,0.593-0.047,1.224-0.005,1.816
			c0.035,0.488,0.218,0.937,0.274,1.414c0.054,0.462,0.02,1.106-0.078,1.559c-0.08,0.367-0.508,0.743-0.502,1.087
			c0.007,0.462,0.411,3.133,1.218,2.209c0.692,0.526,0.488,1.969,0.595,2.73c0.109,0.778-0.256,1.849,0.232,2.464
			c1.059,1.333,1.974,2.973,3.31,4.042c0.411,0.329,1.052,0.57,1.316,1.013c0.193,0.324,0.245,0.726,0.446,1.037
			c0.154,0.239,0.428,0.414,0.596,0.653c0.913,1.297,0.694,2.888,0.694,4.382c0,0.547-0.119,1.246,0.037,1.772
			c0.135,0.454,0.411,0.813,0.506,1.291c0.096,0.478,0.072,0.939,0.044,1.425c-0.026,0.447-0.35,0.94-0.201,1.351
			c0.25,0.691,0.037,1.789,0.039,2.528c0.002,0.954-0.076,1.914-0.124,2.866c-0.045,0.91-0.146,1.871,0.358,2.625
			c0.28,0.419,0.355,1.083,0.065,1.544c-0.169,0.27-0.369,0.296-0.452,0.614c-0.127,0.491,0,1.166-0.002,1.673
			c0,0.164,0.023,0.329-0.038,0.48c-0.044,0.11-0.213,0.201-0.238,0.286c-0.111,0.386,0.254,0.482,0.311,0.822
			c0.067,0.399-0.46,0.459-0.46,0.79c0,0.779,0.093,1.441,0.361,2.18c0.301,0.827,0.34,1.564,0.256,2.448
			c-0.114,1.199-0.071,2.4-0.078,3.603c-0.005,1.052-0.114,2.103-0.155,3.152c-0.034,0.873-0.016,1.767,0.031,2.637
			c0.026,0.467-0.105,1.168,0.108,1.577c0.19,0.364,0.321,0.352,0.325,0.813c0.005,0.538,0.005,1.076,0,1.615
			c-0.011,1.133-0.221,2.362-0.116,3.491c0.038,0.406,0.363,0.707,0.385,1.147c0.015,0.292,0.015,0.6-0.036,0.887
			c-0.118,0.665-0.205,1.236-0.243,1.919c-0.042,0.777-0.336,1.47-0.338,2.259c-0.002,0.875,0,1.742,0,2.617
			c0,1.205,0.081,2.409,0.116,3.612c0.038,1.309,0.038,2.625,0.038,3.94c0,0.437,0.023,0.881,0.001,1.318
			c-0.014,0.293-0.092,0.765-0.079,1.04c0.048,1.012-0.403,1.145-1.285,1.231c-0.917,0.089-0.968,0.397-0.603,1.121
			c0.317,0.629,0.392,1.255,0.886,1.751c0.492,0.495,0.308,0.678,0.061,1.233c-0.209,0.47-0.125,0.997,0.131,1.412
			c-0.383,0.522-0.077,0.599,0.108,1.002c0.127,0.278,0.139,0.706,0.232,1.01c0.076,0.249,0.165,0.497,0.16,0.765
			c-0.152,0-0.563-0.08-0.681,0.01c-0.153,0.116-0.085,0.442-0.154,0.597c-0.106,0.241-0.47,0.478-0.276,0.889
			c0.169,0.359,0.883,0.397,0.964,0.809c0.078,0.398-0.429,0.497-0.507,0.73c-0.144,0.429,0.154,0.577,0.441,0.701
			c0.488,0.211,0.737,0.4,1.08,0.811c0.203,0.243,0.4,0.544,0.669,0.695c0.209,0.118,0.526,0.089,0.707,0.271
			c0.435,0.436,0.076,1.184,0.581,1.579c0.345,0.27,0.631,0.346,0.912,0.719c0.257,0.34,0.467,0.696,0.664,1.069
			c0.19,0.36,0.232,0.523,0.191,0.944c-0.027,0.277-0.087,0.606,0.043,0.864c0.123,0.242,0.257,0.26,0.303,0.531
			c0.036,0.21-0.029,0.437,0,0.648c0.037,0.268,0.168,0.319,0.264,0.545c0.083,0.192-0.002,0.393,0.053,0.583
			c0.132,0.457,0.522,0.603,0.146,1.077c1.226,0.004,2.344,0.041,3.451-0.543c0.487-0.257,0.901-0.328,1.466-0.393
			c0.606-0.069,1.178-0.262,1.791-0.26c2.334,0.008,4.665-0.57,6.995-0.744c1.441-0.107,2.916-0.087,4.353,0.023
			c0.424,0.032,0.907,0.08,1.328,0.007c0.623-0.109,1.1-0.486,1.755-0.523c1.119-0.063,2.209-0.027,3.329-0.151
			c1.007-0.111,2.016-0.209,3.019-0.366c0.284-0.044,0.689-0.064,0.816-0.324c0.161-0.33-0.057-1.17-0.115-1.509
			c-0.057-0.332-0.249-0.87-0.096-1.212c0.076-0.172,0.313-0.217,0.367-0.372c0.072-0.211-0.092-0.431-0.162-0.61
			c-0.233-0.592-0.036-0.767,0.553-1.13c0.612-0.377,0.804-0.789,0.538-1.527c-0.15-0.416-0.373-0.749-0.479-1.186
			c-0.136-0.56-0.158-0.613,0.313-0.938c0.289-0.199,0.808-0.432,1.004-0.728c0.162-0.245,0.094-0.467,0.121-0.776
			c0.049-0.566,0.749-1.397,0.069-1.853c-0.214-0.143-0.509-0.045-0.727-0.142c-0.133-0.059-0.239-0.211-0.354-0.296
			c-0.218-0.16-0.45-0.244-0.452-0.526c-0.009-1.119,0.124-2.178,0.154-3.298c0.016-0.602,0.185-0.906-0.366-1.194
			c-0.335-0.175-0.369-0.214-0.366-0.616c0.002-0.365,0.078-0.727,0.215-1.067c0.155-0.384,0.336-0.606,0.632-0.86
			c0.265-0.225,0.576-0.444,0.535-0.828c-0.05-0.471-0.547-0.895-0.602-1.341c-0.061-0.494,0.645-0.895,0.955-1.208
			c-0.221-0.386-0.057-1.244-0.038-1.697c0.021-0.504,0.143-1.133-0.018-1.626c-0.111-0.34-0.403-0.536-0.523-0.857
			c-0.182-0.488-0.224-1.199-0.23-1.721c-0.007-0.673-0.163-1.576,0.06-2.218c0.184-0.53,0.77-0.598,1.097-1.009
			c0.726-0.914,0.366-2.707-0.582-3.321c-0.558-0.361-0.87-0.598-0.952-1.355c-0.035-0.318,0.024-0.66-0.159-0.946
			c-0.236-0.367-0.433-0.242-0.389-0.751c0.067-0.796,0.457-1.828,0.544-2.601c0.054-0.479,0.107-0.975,0.146-1.459
			c0.051-0.634-0.316-0.977-0.604-1.516c-0.259-0.483-0.418-1.028-0.701-1.489c-0.23-0.374-0.411-0.557-0.454-1.025
			c-0.045-0.497,0.264-0.793,0.463-1.252c0.301-0.695,0.689-1.537,0.797-2.285c0.042-0.289-0.007-0.605,0.001-0.897
			c0.012-0.466,0.203-0.846,0.269-1.295c0.086-0.585,0.001-1.243,0.001-1.836c0-0.257,0.044-0.321,0.192-0.474
			c0.163-0.169,0.231-0.164,0.31-0.421c0.14-0.455,0.184-1,0.154-1.479c-0.048-0.797-0.777-1.256-1.155-1.924
			c-0.347-0.613-0.701-1.555-0.543-2.263c0.085-0.378,0.365-0.646,0.516-0.99c0.147-0.333,0.056-0.498-0.053-0.827
			c-0.078-0.236-0.207-0.586-0.078-0.825c0.149-0.277,0.407-0.197,0.637-0.283c0.419-0.158,0.601-0.763,0.745-1.203
			c0.082-0.251,0.007-0.432,0.054-0.695c0.058-0.33,0.304-0.519,0.265-0.879c-0.033-0.298-0.207-0.493-0.197-0.809
			c0.007-0.2,0.087-0.372,0.078-0.576c-0.011-0.272-0.179-0.441-0.235-0.693c-0.097-0.439,0.001-1.047,0.003-1.5
			c0.002-0.424-0.015-0.456-0.395-0.653c0.051-0.175,0.15-0.344,0.242-0.481c-0.101-0.074-0.216-0.153-0.319-0.218
			c0.145-0.259,0.467-0.356,0.637-0.58c-0.146-0.129-0.261-0.265-0.243-0.466c0.026-0.281,0.268-0.635,0.193-0.927
			c-0.055-0.212-0.206-0.339-0.349-0.529c-0.25-0.334-0.603-0.757-0.166-1.108c0.184-0.148,0.554-0.056,0.685-0.21
			c0.121-0.145-0.007-0.609-0.015-0.774c-0.026-0.484,0.1-0.868-0.113-1.304c0.324,0.067,0.477-0.189,0.529-0.478
			c0.072-0.397-0.096-0.418-0.245-0.701c-0.188-0.355-0.088-0.199,0.18-0.495c0.236-0.261,0.266-0.368,0.259-0.755
			c-0.009-0.593,0.276-1.124,0.122-1.794c-0.151-0.659,0.174-1.135,0.078-1.794c0.573-0.006,1.146-0.057,1.722-0.042
			c0.714,0.018,1.403,0.158,2.126,0.154c0.536-0.002,0.951-0.215,1.463-0.368c0.726-0.217,1.514-0.343,2.258-0.499
			c0.361-0.075,1.316-0.068,1.629-0.333c0.38-0.322,0.164-1.057,0.286-1.463c0.109-0.366,0.463-0.544,0.63-0.879
			c0.258-0.518,0.182-1.171,0.182-1.741c0.219-0.345,0.607-0.677,0.846-1.021c0.407-0.583,0.309-1.016,0.235-1.729
			c-0.059-0.566,0.003-1.128-0.231-1.653c-0.373-0.838-0.551-1.442-0.399-2.383c0.081-0.501,0.227-1.386,0.653-1.735
			c0.266-0.218,0.605-0.154,0.907-0.347c0.773-0.497,1.08-1.48,1.536-2.237c0.146-0.243,0.298-0.477,0.394-0.738
			c0.137-0.375,0.094-0.834,0.287-1.184c0.386-0.698,0.906-0.36,1.517-0.342c0.456,0.014,1.678-0.982,1.549-1.554
			c-0.093-0.412-0.613-0.716-0.741-1.16c-0.121-0.42-0.077-0.868-0.077-1.305c0-0.744,0.504-1.094,1.159-1.407
			c0.477-0.228,1.045-0.453,1.444-0.809c0.65-0.583,1.913-0.094,2.776-0.26c0.35-0.068,0.438-0.106,0.712-0.374
			c0.181-0.177,0.349-0.429,0.613-0.471c0.114-0.613,0.45-1.241,0.902-1.643c0.211-0.188,0.494-0.364,0.628-0.621
			c0.221-0.423,0.195-1.096,0.211-1.567c0.02-0.609-0.176-1.503,0.072-2.065c0.219-0.495,1.049-0.551,1.508-0.824
			c0.584-0.346,0.537-0.665,0.675-1.304c0.067-0.31,0.28-0.723-0.058-0.915c-0.259-0.147-0.486-0.269-0.769-0.347
			c-0.357-0.098-0.705-0.08-1.037-0.27c-0.398-0.227-0.62-0.537-0.843-0.929c-0.242-0.425-0.575-0.91-0.55-1.422
			c0.034-0.705,0.722-1.657,1.042-2.293c0.292-0.582,0.579-1.045,0.577-1.698c-0.001-0.209-0.083-0.642,0.012-0.828
			c0.185-0.363,0.98-0.535,1.289-0.728c0.182-0.114,0.378-0.384,0.594-0.389c0.293-0.008,0.928,0.556,1.164,0.694
			c0.355,0.207,1.386,1.107,1.821,0.881c0.145-0.075,0.379-0.595,0.42-0.767c0.106-0.446-0.048-1.001,0.021-1.472
			c0.085-0.57,0.379-1.106,0.593-1.646c0.172-0.433,0.635-1.037,0.641-1.51C150.277,61.991,150.29,60.829,150.156,59.767z
			 M93.158,190.542c-0.221,0.5-0.334,1.057-0.485,1.586c-0.116,0.405-0.125,1.253-0.625,1.41c-0.877,0.274-0.616-1.607-0.475-1.978
			c0.305-0.802,1.09-1.406,1.158-2.295c0.026-0.335,0.033-0.723,0-1.056c-0.035-0.355-0.198-0.604,0.191-0.834
			C93.9,187.896,93.434,189.917,93.158,190.542z M103.559,176.001c-0.138-0.087-0.184-0.301-0.273-0.435
			c-0.157-0.236-0.366-0.443-0.592-0.614c-0.431-0.328-0.794-0.724-1.11-1.159c-0.152-0.21-0.073-0.533-0.266-0.713
			c-0.22-0.205-1.216-0.023-0.998-0.575c0.389,0.005,0.778-0.121,1.165-0.044c0.162,0.032,0.293,0.095,0.388,0.225
			c0.088,0.12,0.108,0.26,0.234,0.353c0.151,0.111,0.23,0.081,0.297,0.301c0.054,0.175,0.025,0.361,0.116,0.518
			c0.208,0.363,0.75,0.514,0.909,0.904c0.069,0.17,0.053,0.439,0.089,0.62C103.555,175.559,103.569,175.816,103.559,176.001z
			 M110.198,193.186c-0.408,0.284-0.887-0.182-1.251-0.002c0.052,0.275,0.443,0.371,0.303,0.703
			c-0.659,0.015-1.216-0.467-1.855-0.29c-0.766,0.212-1.729,0.567-2.466,0.092c-0.704-0.455-0.308-1.057-0.068-1.676
			c0.156-0.401,0.134-0.645,0.689-0.57c0.222,0.03,0.56,0.25,0.913-0.045c0.001-0.429,0.151-1.297,0.803-1.12
			c0.227,0.061,0.438,0.441,0.676,0.516c0.447,0.141,0.79-0.285,0.979,0.149c0.028,0.065-0.04,0.206,0.004,0.265
			c0.116,0.156,0.404,0.044,0.56,0.13c0.276,0.152,0.625,0.736,0.749,1.023C110.374,192.685,110.498,192.977,110.198,193.186z"/>
	</g>
</g>
<g id="Layer_1">
</g>
</svg>
