<?xml version="1.0" encoding="utf-8"?>
<!-- Generator: Adobe Illustrator 26.0.3, SVG Export Plug-In . SVG Version: 6.00 Build 0)  -->
<svg version="1.1" id="Layer_1" xmlns="http://www.w3.org/2000/svg" xmlns:xlink="http://www.w3.org/1999/xlink" x="0px" y="0px"
	 viewBox="0 0 200 200" enable-background="new 0 0 200 200" xml:space="preserve">
<g id="Layer_1_00000055698912915478177840000012736911705920494464_">
	<g id="Layer_1_00000107551159852787612550000017757744099325915571_">
		<g id="Layer_1_00000128480095285341338950000008464522443776971395_">
		</g>
	</g>
</g>
<path fill="#1E8346" d="M14.653,148.524c-0.559-0.778-0.913-1.486-1.121-1.95l1.482-56.731h18.207l3.729-71.95l8.774-0.219
	l37.072-7.458l0.301,2.298l2.389,4.875l0.292,4.631l1.706,0.098c0.173-0.408,0.469-0.987,0.975-1.56
	c1.342-1.519,2.542-1.167,3.705-2.389c1.242-1.304,0.36-2.218,1.657-3.607c0.895-0.959,1.467-0.688,3.266-1.901
	c1.825-1.232,1.444-1.651,2.535-2.194c2.291-1.14,3.792,0.799,7.02-0.098c1.724-0.479,1.361-1.05,3.022-1.414
	c2.725-0.597,3.99,0.877,5.947-0.049c1.377-0.651,1.397-1.686,2.437-1.706c1.241-0.024,2.441,1.424,2.901,2.742
	c0.507,1.454-0.207,1.83,0.219,3.327c0.464,1.627,1.485,1.802,2.669,3.729c0.889,1.447,0.38,1.456,1.389,3.693
	c0.577,1.277,2.436,5.396,4.826,5.777c0.209,0.033,0.557,0.06,0.804,0.329c0.605,0.66-0.365,1.722-0.11,2.962
	c0.33,1.602,2.269,1.365,2.962,3.181c0.473,1.24-0.273,1.763,0.219,3.51c0.306,1.084,0.726,1.355,1.207,2.267
	c1.716,3.255-0.282,6.171,1.207,7.239c1.02,0.732,2.654-0.137,3.108,0.695c0.303,0.556-0.241,1.287,0.146,1.645
	c0.344,0.318,0.89-0.151,1.353,0.146c0.63,0.404,0.053,1.551,0.658,2.121c0.686,0.646,1.974-0.315,2.632,0.329
	c0.568,0.555-0.038,1.61,0.585,2.084c0.386,0.293,0.734-0.024,1.389,0.219c0.735,0.273,0.767,0.846,1.353,1.389
	c0.375,0.348,0.807,0.525,3.985,0.804c2.245,0.198,2.276,0.131,2.632,0.292c1.657,0.749,2.277,2.758,2.486,3.437
	c0.89,2.884-0.123,5.502,0.768,5.85c0.103,0.04,0.172,0.026,0.402,0c2.425-0.278,2.891,0.346,5.521,0.073
	c0.667-0.069,0.823-0.129,1.06,0c0.201,0.109,0.839,0.557,0.548,4.241c-0.211,2.678-0.695,4.753-0.695,4.753
	c-0.476,2.043-0.766,2.351-0.585,3.181c0.292,1.335,1.201,1.25,2.559,3.035c0.569,0.748,2.721,3.576,2.486,6.398
	c-0.028,0.337-0.101,0.798,0.183,1.133c0.458,0.542,1.365,0.193,3.291,0.11c1.634-0.071,2.451-0.106,3.291,0.219
	c1.298,0.503,1.565,1.296,2.632,1.28c0.759-0.012,0.901-0.417,1.682-0.475c1.025-0.077,1.655,0.554,2.559,1.097
	c2.732,1.64,4.867,0.613,5.411,1.865c0.329,0.758-0.465,1.106-0.329,2.523c0.109,1.136,0.784,2.632,1.974,3.108
	c1.098,0.439,1.818-0.319,2.742,0.292c0.54,0.357,0.97,1.063,0.804,1.572c-0.24,0.735-1.729,1.073-2.706,0.658
	c-0.53-0.225-0.634-0.555-0.987-0.512c-0.613,0.076-0.589,1.104-1.389,1.536c-0.712,0.384-1.144-0.207-1.865,0.037
	c-1.236,0.418-0.682,2.402-2.157,3.802c-0.787,0.747-1.168,0.395-3.291,1.426c-1.709,0.831-1.815,1.231-2.888,1.755
	c-2.614,1.277-3.833-0.195-6.398,0.585c-2.524,0.768-4.115,3.036-5.448,4.936c-1.297,1.85-2.767,4.744-4.351,4.716
	c-0.237-0.004-0.715-0.078-1.097,0.219c-0.566,0.44-0.318,1.223-0.841,1.499c-0.378,0.2-0.898-0.003-1.17-0.183
	c-0.481-0.319-0.473-0.762-0.658-0.768c-0.525-0.016-0.539,3.543-1.901,3.949c-0.549,0.164-1.012-0.277-1.828,0.073
	c-0.431,0.185-0.417,0.357-0.804,0.548c-0.98,0.484-1.646-0.337-2.45-0.037c-1.13,0.422-0.812,2.415-1.901,2.742
	c-0.692,0.208-1.043-0.529-1.645-0.292c-0.981,0.384-0.479,2.505-1.828,3.327c-0.435,0.265-0.486,0.044-0.877,0.292
	c-1.202,0.763-0.379,2.633-1.536,5.046c-0.448,0.934-0.648,0.814-0.914,1.609c-0.533,1.593,0.179,2.35-0.439,3.327
	c-0.53,0.838-1.583,1.118-2.194,1.28c-0.87,0.231-1.206,0.066-1.828,0.146c-1.681,0.218-2.823,1.894-4.716,4.753
	c-1.513,2.284-1.296,2.486-1.974,2.888c-1.362,0.808-2.402,0.092-5.411,0.768c-1.231,0.276-1.846,0.414-2.34,0.877
	c-1.101,1.033-0.437,2.138-1.353,4.314c-0.749,1.78-1.399,1.532-2.303,3.583c-0.577,1.308-0.832,2.588-1.024,3.546
	c-0.395,1.976-0.32,2.979-1.17,3.656c-0.421,0.335-0.679,0.28-1.462,0.548c-1.868,0.639-2.135,1.545-3.327,2.121
	c-2.063,0.996-3.366-0.702-6.727-0.366c-1.571,0.157-1.29,0.604-3.473,1.024c-2.281,0.438-3.743,0.719-5.228,0.037
	c-1.065-0.489-1.488-1.173-2.706-1.243c-0.933-0.053-1.088,0.325-1.755,0.183c-1.42-0.304-1.286-2.143-2.669-2.779
	c-1.574-0.724-2.796,1.178-4.351,0.439c-1.305-0.62-1.101-2.271-2.669-2.779c-0.714-0.231-0.98,0.039-1.645-0.329
	c-0.929-0.513-0.815-1.262-1.645-1.609c-0.842-0.351-1.362,0.252-1.901-0.146c-0.662-0.489-0.104-1.567-0.731-2.047
	c-0.556-0.427-1.201,0.263-2.669,0.037c-0.999-0.154-0.87-0.5-1.572-0.512c-1.332-0.023-1.789,1.221-3.327,1.207
	c-0.566-0.005-0.513-0.174-0.951-0.146c-1.44,0.09-2.661,1.952-3.181,3.473c-0.666,1.95-0.082,3.052-1.06,3.839
	c-0.551,0.443-1.244,0.501-1.316,0.987c-0.076,0.512,0.641,0.796,0.548,1.316c-0.095,0.534-0.895,0.485-1.097,1.06
	c-0.262,0.745,0.861,1.449,0.585,2.047c-0.204,0.443-0.865,0.162-1.536,0.768c-0.516,0.466-0.273,0.767-0.841,1.389
	c-0.597,0.655-1.061,0.537-1.316,1.097c-0.255,0.559,0.111,0.891-0.146,1.207c-0.409,0.501-1.416-0.226-2.23,0.292
	c-0.624,0.397-0.362,1.033-0.987,1.536c-0.716,0.576-1.406,0.021-2.45,0.292c-1.009,0.262-1.094,0.968-2.998,3.217
	c-1.383,1.633-2.093,2.453-2.998,2.596c-1.14,0.18-1.871-0.521-2.413-0.073c-0.584,0.483,0.121,1.419-0.366,2.303
	c-0.798,1.448-4.136,1.559-6.435,0.877c-0.828-0.245-1.116-0.473-1.865-0.475c-1.318-0.003-1.638,0.701-3.327,1.097
	c-0.873,0.205-2.042,0.479-3.071-0.073c-0.956-0.513-0.898-1.262-1.609-1.389c-1.109-0.199-1.807,1.522-2.852,1.353
	c-0.674-0.109-1.048-0.932-1.426-1.792c-0.583-1.326-1.671-3.801-0.658-6.106c0.867-1.972,2.241-1.473,3.291-3.802
	c0.35-0.777,0.83-2.237,0.731-3.912c-0.041-0.692-0.148-0.865-0.256-2.23c-0.142-1.8,0.012-1.906-0.219-2.377
	c-0.606-1.232-1.909-1.003-2.194-2.047c-0.234-0.86,0.541-1.407,0.146-2.267c-0.234-0.51-0.547-0.403-0.841-0.914
	c-0.54-0.94,0.257-1.751-0.073-2.742c-0.291-0.874-1.129-0.895-2.047-1.645c-1.645-1.344-0.71-2.708-2.084-4.826
	C18.447,150.962,16.69,151.361,14.653,148.524z"/>
</svg>
