<?xml version="1.0" encoding="utf-8"?>
<!-- Generator: Adobe Illustrator 26.0.3, SVG Export Plug-In . SVG Version: 6.00 Build 0)  -->
<svg version="1.1" id="Isolation_Mode" xmlns="http://www.w3.org/2000/svg" xmlns:xlink="http://www.w3.org/1999/xlink" x="0px"
	 y="0px" viewBox="0 0 200 200" enable-background="new 0 0 200 200" xml:space="preserve">
<path fill="#1E8346" d="M188.442,39.763c-0.368-0.208-0.429-0.197-0.428-0.633c-0.209-0.067-0.412-0.004-0.628,0.006
	c-0.12-0.367-0.334-0.895-0.673-1.115c-0.47-0.305-0.605-0.076-0.933,0.248c-0.264,0.261-0.298,0.343-0.593,0.019
	c-0.397-0.436-0.419-0.588-1.155-0.375c-0.501-0.476-0.089-0.737-0.057-1.267c0.015-0.24-0.05-0.492,0.056-0.701
	c0.083-0.164,0.276-0.299,0.367-0.491c0.19-0.404,0.207-0.767,0.508-1.106c0.219-0.246,0.362-0.402,0.333-0.771
	c-0.045-0.579-0.18-1.268-0.642-1.653c-0.107-0.089-0.245,0.057-0.275-0.201c-0.02-0.177,0.178-0.247,0.242-0.395
	c0.15-0.349,0.045-0.793,0.146-1.157c0.162-0.582,0.602-0.945,0.845-1.519c0.125-0.295,0.213-0.58,0.169-0.911
	c-0.014-0.101-0.065-0.357-0.153-0.402c-0.167-0.084-0.186,0.089-0.287,0.085c-0.544-0.029-0.125-0.465-0.385-0.806
	c-0.184-0.242-0.319-0.159-0.436-0.485c-0.064-0.181-0.039-0.351-0.207-0.472c-0.295,0.226-0.501,0.406-0.883,0.46
	c-0.068,0.01-0.092-0.115-0.131-0.109c-0.148,0.022-0.267,0.177-0.408,0.192c-0.181,0.019-0.361-0.11-0.544-0.174
	c-0.021-0.555,0.17-1.35-0.217-1.777c-0.213-0.235-0.335-0.227-0.607-0.204c-0.389,0.032-0.26,0.041-0.48-0.341
	c-0.242,0.112-0.4-0.247-0.631-0.338c-0.625-0.244-0.777,0.175-0.989-0.589c-0.184,0.142-0.357,0.297-0.513,0.471
	c-0.429-0.223-0.19-0.626-0.323-0.977c-0.096-0.254-0.28-0.319-0.251-0.649c-0.277-0.326-0.745-0.093-1.038-0.441
	c-0.157-0.186-0.273-0.389-0.307-0.643c-0.224-0.004-0.57-0.007-0.67-0.275c-0.103-0.276,0.196-0.366,0.157-0.605
	c-0.117-0.716-1.364-0.232-1.628-0.829c-0.1-0.228-0.033-0.623-0.003-0.86c0.024-0.187,0.304-0.682,0.259-0.817
	c-0.038-0.112-0.329-0.192-0.437-0.205c-0.072-0.009-0.236,0.09-0.286,0.069c-0.218-0.094-0.134-0.276-0.27-0.407
	c-0.142-0.136-0.469-0.148-0.655-0.158c-0.051-0.438-1.105-0.292-1.376-0.313c0.001-0.119-0.063-0.22-0.107-0.314
	c-0.264,0.12-0.26,0.43-0.249,0.685c0.004,0.089,0.07,0.288,0.041,0.371c-0.041,0.117-0.188,0.131-0.233,0.228
	c-0.125,0.27-0.005,0.338-0.227,0.552c-0.159,0.154-0.479,0.246-0.576,0.408c-0.213,0.352,0.062,0.447-0.427,0.585
	c-0.119,0.033-0.289-0.017-0.394,0.065c-0.13,0.101-0.084,0.354-0.179,0.427c-0.269,0.208-0.544-0.132-0.735-0.286
	c-0.204-0.165-0.694-0.241-0.644-0.533c-0.334-0.03-0.944-0.123-0.973-0.531c-0.473-0.059-1.377,0.443-1.841,0.096
	c-0.271-0.202,0.035-0.504-0.172-0.73c-0.702-0.085-0.796,0.314-1.021,0.835c-0.232,0.539-0.789,0.238-1.084,0.629
	c-0.178,0.236-0.027,0.274-0.348,0.432c-0.274,0.135-0.326,0.147-0.527,0.362c-0.282,0.303-0.465,0.237-0.941,0.236
	c-0.331,0-0.565-0.036-0.546-0.451c-0.696-0.149-1.353-0.042-1.826-0.593c-0.127-0.147,0.041-0.292-0.34-0.285
	c-0.085,0.001-0.219,0.064-0.248,0.065c-0.086,0.003-0.025,0.128-0.173,0.093c-0.154-0.036-0.196-0.262-0.222-0.392
	c-0.053-0.262,0.181-0.705-0.034-0.858c-0.092-0.066-0.306,0.024-0.414-0.007c-0.107-0.031-0.232-0.204-0.357-0.202
	c-0.434,0.008-0.218,0.446-0.673,0.169c-0.338-0.205-0.578-0.458-1.004-0.493c-0.052-0.137,0.023-0.263-0.002-0.377
	c-0.033-0.15-0.113-0.207-0.17-0.377c-0.076-0.227-0.101-0.568-0.002-0.789c-0.176-0.138-0.457-0.065-0.597-0.192
	c-0.129-0.117-0.076-0.324-0.119-0.477c-0.085-0.308-0.34-0.574-0.64-0.633c-0.323-0.063-0.718,0.039-0.977-0.208
	c-0.188-0.179-0.312-0.457-0.509-0.654c-0.249-0.25-0.21-0.406-0.369-0.699c-0.319-0.588-1.351-0.653-1.912-0.79
	c-0.395-0.097-0.558-0.46-0.886-0.647c-0.414-0.237-1.106,0.003-1.499,0.19c-0.569,0.269-1.031,0.916-1.188,1.513
	c-0.209-0.247-0.543-0.136-0.806-0.355c-0.294-0.244-0.281-0.367-0.701-0.33c-0.362,0.031-0.846,0.066-1.195,0.155
	c-0.283,0.072-0.365,0.32-0.639,0.39c-0.293,0.075-0.603-0.108-0.767-0.318c-0.118-0.151-0.099-0.272-0.309-0.425
	c-0.112-0.082-0.353-0.276-0.485-0.316c-0.331-0.101-0.424,0.24-0.788-0.017c-0.149-0.105-0.215-0.314-0.362-0.421
	c-0.186-0.136-0.363-0.051-0.546-0.151c-0.156-0.085-0.109-0.261-0.302-0.29c-0.256-0.038-0.271,0.191-0.447,0.295
	c-0.419,0.246-0.842,0.048-1.15-0.262c-0.151,0.115-0.243,0.3-0.408,0.389c-0.191,0.103-0.318-0.094-0.436,0.19
	c-0.131-0.144-0.226-0.345-0.354-0.477c-0.146,0.114-0.265,0.256-0.368,0.409c-0.17-0.403-0.111-0.355-0.488-0.48
	c-0.295-0.097-0.47-0.223-0.688-0.452c-0.363-0.38-0.936-0.585-1.367-0.99c-0.245,0.196-0.335,0.369-0.628,0.431
	c-0.369,0.079-0.928-0.143-1.138,0.279c-0.484,0.136-0.406,1.329-0.422,1.808c-0.011,0.329,0.077,0.644-0.17,0.898
	c-0.315,0.323-1.433,0.243-1.734-0.057c-0.114,0.229-0.261,0.661-0.47,0.834c-0.517,0.426-0.621,0.014-1.058-0.083
	c-0.95-0.212-1.429,0.352-2.326,0.36c-0.716,0.007-0.703-0.259-1.135-0.718c-0.25-0.266-0.146-0.282-0.57-0.484
	c-0.392-0.187-0.999-0.309-1.409-0.416c-1.266-0.33-0.464,0.349-0.973,0.986c-0.203,0.254-0.869,0.229-1.183,0.298
	c-0.569,0.125-0.867,0.309-1.264,0.541c-0.868,0.508-1.255,0.751-2.291,0.847c-0.911,0.085-1.986,0.326-2.746,0.844
	c-0.352,0.24-0.726,0.515-1.023,0.779c-0.119,0.106,0.013,0.348-0.081,0.418c-0.358,0.267-0.943-0.019-1.278-0.215
	c-0.356-0.209-0.577-0.682-0.926-0.848c-0.48-0.229-0.728-0.077-1.174-0.417c-0.367-0.279-0.515-0.655-1.097-0.491
	c-0.449,0.126-0.38,0.529-0.783,0.782c-0.364,0.229-0.616,0.085-0.909,0.35c-0.405,0.366-0.384,1.11-0.637,1.539
	c-0.295,0.502-0.381,0.165-0.759,0.45c-0.227,0.172-0.218,0.557-0.295,0.797c-0.201,0.633-0.421,1.719-0.978,2.217
	c-1.178,1.054-2.706,0.111-3.792-0.389c-0.514-0.236-0.833-0.174-1.378-0.271c-0.722-0.129-1.386-0.503-2.148-0.554
	c-0.692-0.046-1.235,0.3-1.899,0.287c-0.738-0.015-1.285-0.555-1.984-0.699c-0.584-0.12-1.061,0.104-1.631-0.077
	c-0.753-0.238-1.216-0.734-2.045-0.848c-1.085-0.148-2.267,0.131-3.339-0.067c-0.956-0.177-0.925-0.541-1.124-1.39
	c-0.12-0.507-0.418-1.047-0.758-1.491c-0.451-0.587-1.164-0.637-1.735-1.108c-0.512-0.423-1.149-0.772-1.765-1.08
	c-1.011-0.505-1.748,0.097-2.065-1.188c-0.456-0.047-0.815-0.407-1.277-0.492c-0.465-0.085-1.143-0.057-1.614,0
	c-1.203,0.146-2.058,0.892-2.891,1.671c-0.427,0.4-0.885,0.172-1.283,0.446c-0.354,0.244-0.423,0.982-0.613,1.33
	c-0.413,0.754-1.103,1.383-1.554,2.062c-0.335,0.504-0.457,1.341-0.868,1.748c-0.465,0.459-1.249,0.351-1.839,0.48
	c-0.399,1.165,0.852,2.067,0.764,3.234c-0.042,0.562-0.367,0.642-0.553,1.135c-0.206,0.543-0.142,1.491-0.067,2.062
	c0.136,1.03,0.083,2.161,0.279,3.177c0.232,1.199,0.082,1.964-0.785,2.899c-0.307,1.499-1.153,3.146-2.141,4.258
	c-0.299,0.336-0.623,0.622-0.809,1.009c-0.207,0.431-0.134,0.98-0.402,1.353c-0.315,0.438-0.666,0.434-0.899,0.969
	c-0.241,0.553-0.178,1.129-0.178,1.727c0,1.013-0.283,1.895-0.281,2.858c0.003,1.281,0.146,2.232-0.352,3.444
	c-0.42,1.023-0.688,2.131-1.076,3.153c-0.463,1.221-0.209,2.834-0.042,4.107c0.094,0.716,0.429,1.32,0.54,2.019
	c0.148,0.932-0.252,1.211-0.842,1.786c-0.781,0.76-1.1,1.244-1.095,2.347c0.003,0.644-0.179,1.001-0.367,1.619
	c-0.042,0.136-0.153,0.2-0.188,0.336c-0.046,0.177-0.003,0.403-0.011,0.585c-0.006,0.14-0.053,0.316-0.017,0.461
	c0.056,0.229,0.286,0.364,0.361,0.569c0.122,0.331-0.032,0.818-0.074,1.161c-0.037,0.29-0.012,0.577-0.079,0.86
	c-0.117,0.494-0.302,0.951-0.741,1.205c-0.253,0.147-0.47,0.217-0.619,0.48c-0.143,0.253-0.192,0.541-0.349,0.791
	c-0.38,0.603-1.032,0.95-1.529,1.44c-0.252,0.248-0.411,0.679-0.715,0.865c-0.329,0.201-0.798,0.079-1.166,0.103
	c-0.382,0.025-0.602,0.275-0.858,0.548c-0.247,0.262-0.53,0.312-0.824,0.486c-0.6,0.355-0.849,0.989-1.318,1.471
	c-0.352,0.362-0.435,0.733-0.777,1.088c-0.561,0.582-0.969,1.199-1.067,2.026c-0.048,0.404-0.185,0.592-0.368,0.939
	c-0.144,0.275-0.208,0.561-0.378,0.831c-0.284,0.453-0.725,0.887-0.943,1.363c-0.141,0.309-0.517,0.615-0.79,0.819
	c-0.247,0.184-0.478,0.372-0.713,0.573c-0.556,0.476-0.989,0.894-1.087,1.645c-0.042,0.318-0.067,0.719-0.018,1.038
	c0.045,0.292,0.223,0.559,0.27,0.857c0.091,0.579,0.158,1.302-0.032,1.87c-0.111,0.329-0.355,0.591-0.434,0.936
	c-0.073,0.316-0.152,0.828-0.095,1.146c0.073,0.402,0.14,0.745,0.132,1.157c-0.009,0.425-0.247,0.794-0.131,1.228
	c0.053,0.195,0.253,0.407,0.184,0.622c-0.073,0.226-0.242,0.207-0.185,0.523c0.045,0.252,0.227,0.387,0.29,0.635l-3.11,6.169
	c-0.441,0.124-0.907,0.112-1.349,0.245c-0.634,0.191-1.194,0.152-1.761,0.546c-0.337,0.233-0.675,0.406-0.518,0.867
	c0.112,0.327,0.442,0.502,0.461,0.883c0.025,0.481-0.66,1.364-1.135,0.874c-0.16-0.165-0.027-0.35-0.262-0.411
	c0.004,0.001-0.21,0.056-0.23,0.06c-0.298,0.059-0.634,0.075-0.911,0.206c-0.145,0.069-0.195,0.145-0.319,0.232
	c-0.144,0.101-0.249,0.099-0.42,0.156c-0.264,0.088-0.275,0.144-0.377,0.395c-0.181,0.447-0.529,0.715-0.883,1.042
	c-0.509,0.47-0.968,0.798-1.371,1.37c-0.721,1.025-1.167,2.715-2.655,2.789c-0.386,0.019-0.531-0.055-0.794-0.307
	c-0.193-0.185-0.34-0.196-0.585-0.3c-0.199-0.085-0.321-0.189-0.554-0.102c-0.214,0.081-0.307,0.315-0.53,0.396
	c-0.105-0.519-0.075-1.05,0.043-1.567c0.064-0.283,0.194-0.519,0.011-0.716c-0.173-0.185-0.291-0.202-0.399-0.462
	c-0.089-0.214-0.221-0.413-0.024-0.585c0.136-0.119,0.362-0.11,0.509-0.26c0.174-0.178,0.605-0.552,0.634-0.815
	c-0.236-0.107-0.427-0.07-0.604-0.299c-0.119-0.155-0.238-0.213-0.238-0.413c0-0.197,0.101-0.688-0.158-0.74
	c-0.146-0.029-0.226,0.13-0.326,0.201c-0.204,0.143-0.267,0.088-0.484,0.143c-0.333,0.083-0.464,0.459-0.736,0.632
	c-0.365,0.232-0.908,0.207-1.323,0.318c-0.4,0.108-0.726,0.16-0.974,0.521c-0.222,0.324-0.191,0.574-0.65,0.429
	c-0.25-0.079-0.512-0.246-0.662-0.45c-0.216-0.295-0.201-0.475-0.642-0.394c-0.42,0.077-0.807,0.41-0.476,0.816
	c0.036,0.242,0.135,0.471,0.075,0.706c-0.051,0.203-0.248,0.35-0.262,0.554c-0.026,0.385,0.238,0.573-0.269,0.658
	c0.088,0.137,0.223,0.39,0.023,0.509c-0.152-0.087-0.31-0.27-0.491-0.238c0.022,0.022,0.046,0.04,0.074,0.054
	c-0.102,0.252-0.243,0.603-0.582,0.542c-0.192-0.035-0.459-0.385-0.601-0.501c-0.092,0.233-0.245,0.381-0.36,0.571
	c-0.068,0.113-0.051,0.283-0.131,0.416c-0.177-0.015-0.333,0.054-0.492,0.121c0.305,0.178,0.244,0.188,0.189,0.538
	c-0.216-0.175-0.52-0.341-0.623-0.621c-0.158-0.428,0.139-0.618-0.411-0.712c-0.351-0.061-0.399-0.052-0.653-0.297
	c-0.176-0.17-0.313-0.348-0.453-0.55c-0.181-0.261-0.566-0.843-0.917-0.88c-0.112,0.233-0.032,0.554-0.097,0.802
	c-0.11-0.018-0.301-0.045-0.409-0.011c-0.142,0.044-0.221,0.201-0.37,0.241c-0.135,0.037-0.284-0.056-0.436,0.003
	c-0.252,0.096-0.323,0.336-0.603,0.364c-0.235,0.024-0.298-0.092-0.531,0.088c-0.376,0.29-0.592,0.845-0.883,1.229
	c-0.147,0.194-0.265,0.541-0.448,0.686c-0.264,0.21-0.698,0.101-1.002,0.128c-0.12,0.468-0.083,0.485-0.515,0.655
	c-0.356,0.14-0.692,0.338-0.996,0.571c0.24,0.171,0.343,0.443,0.682,0.41v5.852H6.378c-0.167,0.166-0.514,0.277-0.409,0.577
	c0.047,0.135,0.163,0.197,0.254,0.3c0.219,0.248,0.444,0.456,0.707,0.661c0.203,0.159,0.352,0.361,0.523,0.551
	c0.078,0.087,0.211,0.354,0.331,0.377c0.056,0.011,0.079-0.024,0.128-0.039c0.139-0.042,0.257-0.078,0.404-0.081
	c0.217-0.004,0.429,0.024,0.635-0.053c-0.076,0.254-0.289,0.215-0.489,0.33c-0.132,0.075-0.537,0.312-0.243,0.407
	c0.291,0.094,0.741-0.012,1.032-0.056c0.35-0.052,0.592-0.246,0.907-0.36c0.499-0.181,1.215,0.084,1.563-0.45
	c0.102-0.157,0.169-0.255,0.333-0.356c0.269-0.167,0.582-0.12,0.857-0.242c0.13-0.058,0.219-0.143,0.355-0.192
	c0.267-0.098,0.595-0.142,0.878-0.203c0.272-0.059,0.396,0.181,0.635,0.252c0.312,0.093,0.625-0.082,0.948-0.077
	c0.415,0.006,0.701,0.212,1.093,0.285c0.455,0.085,0.402-0.147,0.711-0.32c0.555-0.31,1.151,0.274,1.696,0.067
	c0.155-0.059,0.185-0.227,0.321-0.281c0.206-0.082,0.662,0.004,0.885,0.004c0.676,0,1.418,0.081,2.091,0.005
	c0.348-0.039,0.518-0.248,0.883-0.197c0.621,0.086,1.231,0.054,1.81,0.291c0.302,0.124,0.379,0.078,0.682,0.04
	c0.419-0.053,0.231,0.057,0.53,0.155c0.573,0.187,1.303-0.105,1.914-0.048c0.369,0.035,0.672,0.243,1.041,0.158
	c0.263-0.06,0.476-0.182,0.757-0.222c0.642-0.091,1.282-0.121,1.928-0.147h14.771c0.31-0.261,0.582-0.264,0.966-0.012
	c0.26,0.17,0.215,0.395,0.257,0.675c0.04,0.27,0.009,0.671,0.121,0.928c0.083,0.191,0.202,0.171,0.326,0.281
	c0.127,0.113,0.141,0.195,0.206,0.365c0.442,0.031,0.782,0.311,0.688,0.762c-0.045,0.217-0.135,0.381-0.139,0.61
	c-0.003,0.22,0.169,0.511,0.107,0.707c-0.068,0.215-0.245,0.093-0.353,0.228c-0.084,0.106-0.021,0.335,0.037,0.45
	c0.031,0.061,0.12,0.019,0.156,0.12c0.02,0.057-0.038,0.104-0.028,0.149c0.032,0.151,0.113,0.25,0.134,0.395
	c0.021,0.141-0.072,0.217-0.001,0.364c0.048,0.1,0.152,0.297,0.237,0.357c-0.078,0.232,0.004,0.442,0.06,0.664
	c0.07,0.279,0.051,0.616,0.15,0.879c0.046,0.123,0.128,0.172,0.18,0.282c0.081,0.168,0.074,0.346,0.137,0.52
	c0.064,0.177,0.162,0.236,0.273,0.372c0.112,0.139,0.163,0.352,0.277,0.483c0.092,0.106,0.217,0.116,0.314,0.228
	c0.083,0.095,0.146,0.37,0.167,0.494c0.05,0.303-0.04,0.673,0.162,0.932c0.135,0.173,0.49,0.25,0.444,0.576
	c-0.038,0.271-0.243,0.232-0.448,0.219c-0.043,0.291,0.172,0.608,0.209,0.896c0.036,0.283,0.147,0.339,0.266,0.549
	c0.061,0.107,0.028,0.196,0.139,0.268c0.109,0.071,0.253,0.026,0.36,0.099c0.098,0.068,0.094,0.157,0.163,0.229
	c0.073,0.075,0.04,0.109,0.142,0.168c0.128,0.073,0.293-0.003,0.415,0.105c-0.019,0.19-0.057,0.56,0.097,0.69
	c0.108-0.163,0.423-0.211,0.578-0.045c0.178,0.191-0.041,0.244-0.025,0.454c0.029,0.367,0.497,0.373,0.368,0.798
	c0.227,0.143,0.449,0.385,0.663,0.554c0.207,0.163,0.256,0.229,0.253,0.488c-0.001,0.153-0.088,0.295-0.024,0.448
	c0.049,0.116,0.167,0.165,0.209,0.281c0.036,0.098-0.042,0.253-0.001,0.341c0.065,0.138,0.272,0.135,0.384,0.234
	c0.123,0.109,0.106,0.244,0.206,0.355c0.088,0.096,0.202,0.069,0.287,0.162c0.072,0.079,0.105,0.242,0.157,0.32
	c0.119,0.177,0.138,0.03,0.183,0.265c0.028,0.146-0.043,0.324,0.046,0.46c0.048,0.073,0.128,0.031,0.167,0.083
	c0.142,0.188,0.099,0.367,0.305,0.517c0.27,0.196,0.349,0.1,0.254,0.419c-0.043,0.145-0.171,0.186-0.111,0.349
	c0.046,0.125,0.227,0.213,0.345,0.255c0.39,0.14,0.886,0.018,1.283-0.042c0.205-0.031,0.429-0.095,0.638-0.058
	c0.163,0.029,0.302,0.151,0.473,0.127c0.34-0.047,0.51-0.333,0.903-0.247c0.376,0.082,1.771,0.408,1.919,0.014
	c0.061-0.163-0.138-0.304,0.018-0.49c0.145-0.173,0.396-0.111,0.594-0.201c0.28-0.128,0.39-0.407,0.707-0.444
	c0.285-0.033,0.422,0.073,0.594,0.232c0.418,0.39,0.575,0.238,1.036,0.006h1.239v-0.791h2.267l0.343,0.791h5.588
	c0.038-0.356-0.23-0.693-0.258-1.049c-0.033-0.419,0.005-0.838,0.097-1.247c0.073-0.326,0.351-0.681,0.288-1.004
	c-0.053-0.27-0.211-0.535-0.258-0.813c0.387-0.035,0.861,0.242,1.054-0.185c0.072-0.161,0.085-0.282,0.196-0.423
	c0.118-0.149,0.304-0.21,0.304-0.429c0-0.379-0.067-0.651-0.168-1.01c-0.11-0.39-0.313-0.832-0.28-1.239
	c0.028-0.359,0.118-0.816,0.284-1.142c0.114-0.225,0.365-0.381,0.464-0.615c-0.108-0.095-0.191-0.24-0.247-0.37h7.345l0.211-0.984
	h2.882c-0.216,0.541-0.486,1.061-0.746,1.581c-0.297,0.595-0.168,1.273-0.168,1.934h11.985c0.37,0.508,0.878,0.925,0.774,1.646
	c-0.039,0.268-0.193,0.487-0.196,0.753c-0.005,0.42,0.058,0.584-0.129,0.973c-0.126,0.261-0.314,0.513-0.413,0.785
	c-0.137,0.378-0.044,0.792-0.079,1.184c-0.054,0.596-0.629,1.172-0.128,1.759c0.114,0.134,0.287,0.173,0.38,0.321
	c0.096,0.152,0.078,0.338,0.134,0.508c0.068,0.209,0.203,0.39,0.265,0.601c0.075,0.257,0.014,0.533,0.058,0.792
	c0.05,0.295,0.169,0.328,0.346,0.548c0.156,0.194,0.106,0.211,0.148,0.47c0.043,0.267,0.203,0.302,0.277,0.512
	c0.098,0.274-0.017,0.858-0.031,1.165c-0.02,0.416-0.063,0.692-0.219,1.057c-0.13,0.303-0.133,0.746-0.132,1.089
	c0,0.989-0.417,1.852-0.465,2.825c-0.04,0.819,0.174,1.692,0.006,2.504c-0.077,0.375-0.493,0.668-0.458,1.062
	c0.024,0.278,0.196,0.467,0.214,0.772c0.044,0.774,0.093,1.412,0.671,1.969c0.311,0.299,0.717,0.624,0.952,0.953
	c0.318,0.446,0.279,0.798,0.865,0.951c0.543,0.142,0.698,0.329,0.914,0.88c0.112,0.288,0.27,0.607,0.317,0.914
	c0.036,0.233-0.034,0.483,0.006,0.714c0.15,0.881,1.247,1.489,1.091,2.482c-0.054,0.343-0.462,0.6-0.603,0.927
	c0.254,0.375,0.509,0.221,0.533,0.72c0.014,0.289-0.038,0.594,0,0.88c0.027,0.208,0.148,0.346,0.198,0.542
	c0.237,0.925-1.223,0.765-1.605,1.287c-0.223,0.305,0.023,0.715,0.099,1.053c0.097,0.432,0.267,0.683,0.493,1.058
	c0.375,0.624,0.085,1.153,0.243,1.802c0.211-0.064,0.502-0.172,0.665-0.338c0.194-0.198,0.186-0.324,0.416-0.447
	c0.559-0.3,0.941-0.251,1.213-0.865c0.137-0.31,0.176-0.38,0.571-0.293c0.262,0.058,0.509,0.199,0.76,0.29
	c0.58,0.21,1.187,0.622,1.691,0.132c0.216-0.209,0.488-0.411,0.812-0.246c0.164,0.083,0.227,0.282,0.416,0.355
	c0.169,0.065,0.376,0.033,0.554,0.031c0.468-0.004,0.896-0.155,1.36-0.177c0.522-0.024,0.74,0.04,1.12-0.317
	c0.519-0.488,1.667-0.944,2.388-0.856c0.657,0.08,1.056,0.43,1.747,0.366c0.359-0.033,0.661-0.05,1.011,0.067
	c0.262,0.087,0.403,0.209,0.672,0.08c0.476-0.227,0.766-0.928,1.291-1.13c0.347-0.134,1.087,0.017,1.247,0.314
	c0.125,0.233,0.051,0.65,0.171,0.87c0.185,0.34,0.186,0.068,0.47,0.051c0.22-0.012,0.225,0.071,0.403,0.139
	c0.332,0.127,0.702,0.039,1.029,0.215c0.415,0.224,0.455,0.506,0.458,0.936c0.003,0.368,0.101,0.698,0.05,1.067
	c-0.045,0.322-0.109,0.678-0.361,0.897c-0.344,0.299-0.59,0.391-0.022,0.5c0.217,0.041,0.472,0.06,0.662,0.178
	c0.136,0.084,0.203,0.276,0.339,0.339c0.149,0.068,0.772,0.073,0.907,0.005c0.264-0.131,0.084-0.247,0.252-0.39
	c0.131-0.111,0.32-0.095,0.46-0.182c0.238-0.146,0.303-0.407,0.524-0.58c0.226-0.177,0.472-0.391,0.74-0.455
	c0.295-0.07,0.772,0.122,0.996-0.086c0.177-0.166,0.462-0.206,0.694-0.25c0.258-0.049,0.504-0.189,0.768-0.2
	c0.311-0.013,0.593,0.09,0.898,0.093c0.551,0.006,0.973-0.195,1.468-0.396c0.163-0.066,0.359-0.119,0.53-0.158
	c0.066-0.015,0.181-0.059,0.243,0c0.068,0.063,0.015,0.209-0.014,0.284c-0.046,0.123-0.151,0.207-0.158,0.337
	c-0.005,0.081,0.042,0.145,0.017,0.227c-0.028,0.091-0.117,0.119-0.166,0.181c-0.085,0.109-0.043,0.071-0.012,0.192
	c0.028,0.109,0.034,0.251-0.037,0.348c-0.059,0.081-0.12,0.081-0.162,0.171c-0.081,0.173-0.023,0.493,0.042,0.664
	c0.097,0.254,0.349,0.419,0.268,0.721c-0.037,0.138-0.184,0.271-0.056,0.462c0.123,0.184,0.136,0.439,0.268,0.607
	c0.102,0.13,0.342,0.267,0.479,0.355c0.231,0.147,0.479,0.168,0.736,0.213c0.235,0.041,0.259,0.155,0.242,0.367
	c-0.011,0.137-0.051,0.24-0.104,0.364c-0.025,0.059-0.09,0.144-0.044,0.209c0.096,0.136,0.581,0.019,0.703-0.021
	c0.197-0.064,0.266-0.198,0.427-0.295c0.114-0.069,0.467-0.137,0.577-0.041c0.104,0.091,0.125,0.325,0.234,0.435
	c0.088,0.089,0.227,0.139,0.329,0.22c0.285,0.229,0.787,0.186,1.136,0.144c0.199-0.024,0.502-0.139,0.487,0.139
	c-0.005,0.087-0.062,0.162,0.003,0.245c0.023,0.029,0.151,0.08,0.186,0.096c0.215,0.097,0.468,0.008,0.618,0.193
	c0.134,0.165,0.093,0.268,0.121,0.461c0.259,0.023,0.539-0.016,0.801-0.005c0.164,0.007,0.333,0.001,0.497,0.016
	c0.112,0.01,0.263,0.07,0.375,0.035c0.528,0.002,1.053,0.048,1.574,0.111c0.426,0.052,0.546-0.233,0.911-0.382
	c0.514-0.209,0.679,0.339,1.115,0.463c0.251,0.071,0.522,0.1,0.779,0.14c0.267,0.042,0.497,0.166,0.752,0.213h0.158
	c0.326,0,0.415-0.513,0.743-0.406c0.192,0.063,0.278,0.289,0.465,0.337c0.154,0.039,0.462-0.048,0.589-0.13
	c0.112-0.072,0.197-0.199,0.302-0.281c0.115-0.091,0.246-0.144,0.315-0.276c0.046-0.089,0.035-0.189,0.097-0.274
	c0.059-0.081,0.162-0.121,0.226-0.197c0.19-0.227,0.056-0.637,0.057-0.915c0.001-0.231,0.062-0.214,0.237-0.341
	c0.387-0.282,0.028-0.533,0.044-0.908c0.017-0.415,0.368-0.554,0.73-0.543c0.152,0.005,0.294,0.042,0.443,0.054
	c0.154,0.013,0.326-0.028,0.478,0.016c0.189,0.055,0.236,0.24,0.269,0.429c0.063,0.366,0.03,0.733,0.048,1.101
	c0.012,0.248,0.145,0.395,0.374,0.499c0.3,0.135,0.64,0.142,0.862,0.41c0.219,0.265,0.58,0.582,0.926,0.672
	c0,0.122,0.007,0.237,0.016,0.357c0.015,0.193-0.035,0.593,0.083,0.75c0.07,0.094,0.236,0.059,0.325,0.138
	c0.114,0.102,0.127,0.303,0.164,0.441c0.079,0.285,0.152,0.555,0.295,0.815c0.111,0.201,0.266,0.253,0.483,0.347
	c0.307,0.134,0.208,0.152,0.307,0.426c0.053,0.149,0.11,0.182,0.261,0.22c0.222,0.055,0.701,0.139,0.926,0.063
	c0.156-0.053,0.309-0.219,0.426-0.337c0.142-0.144,0.168-0.264,0.385-0.25c0.173,0.012,0.744,0.019,0.835,0.133
	c0.067,0.084-0.002,0.205,0.031,0.304c0.063,0.183,0.341,0.223,0.366,0.421c0.015,0.12-0.246,0.566,0.067,0.438
	c0.091-0.037,0.1-0.132,0.213-0.154c0.066-0.013,0.2,0.03,0.268,0.049c0.151,0.041,0.437,0.072,0.559,0.165
	c0.09,0.068,0.107,0.178,0.157,0.271c0.072,0.133,0.086,0.312,0.194,0.412c0.002,0.021,0.013,0.033,0.031,0.038
	c0.23-0.179,0.392-0.327,0.687-0.417c0.058,0.133,0.083,0.195,0.204,0.214c0.071-0.036,0.146-0.052,0.226-0.048
	c0.068,0.007,0.133,0.024,0.196,0.052c0.066,0.012,0.033,0.014,0.101,0.022c0.251,0.028,0.424-0.123,0.627,0.091
	c0.125,0.131,0.209,0.321,0.32,0.465c0.14,0.181,0.186,0.2,0.394,0.273c0.239,0.084,0.347,0.158,0.395,0.386
	c0.087,0.412,0.265,0.58,0.596,0.84c0.58,0.455-0.429,0.584-0.436,0.984c-0.002,0.129,0.138,0.282,0.191,0.392
	c0.043,0.089,0.064,0.197,0.126,0.28c0.069,0.093,0.862,0.68,0.384,0.612c-0.009,0.154,0.17,0.352,0.283,0.444
	c0.415-0.282,0.267-0.929,0.953-0.814c0.107,0.178,0.26,0.316,0.389,0.477c0.186,0.23,0.328,0.484,0.555,0.683
	c0.196,0.172,0.438,0.429,0.554,0.669c0.147,0.305,0.09,0.583,0.013,0.874c-0.148,0.563,0.485,0.608,0.82,0.864
	c0.258,0.198,0.271,0.925,0.313,1.222c0.058,0.398,0.003,0.532,0.434,0.706c-0.22,0.219-0.133,0.495,0.178,0.466
	c0.335-0.031,0.539-0.419,0.864-0.511c0.193-0.054,0.463-0.066,0.6,0.103c0.158,0.193,0.08,0.435,0.176,0.632
	c0.152-0.225,0.395-0.418,0.646-0.527c0.174-0.076,0.31-0.119,0.448-0.246c0.101-0.093,0.187-0.222,0.313-0.282
	c0.092,0.076,0.239,0.191,0.351,0.089c0.135-0.123,0.012-0.225,0.238-0.227c0.152-0.002,0.281,0.066,0.44,0.012
	c0.143-0.05,0.237-0.172,0.357-0.263c0.202-0.152,0.372-0.284,0.546-0.471c0.133-0.143,0.387-0.452,0.589-0.452
	c0.352,0.001,0.532,0.613,0.94,0.259c0.005,0.188-0.02,0.362-0.163,0.488c-0.087,0.077-0.204,0.094-0.242,0.206
	c-0.047,0.143,0.094,0.309,0.049,0.457c-0.048,0.157-0.17,0.135-0.282,0.238c0.093,0.225-0.066,0.479,0.267,0.505
	c0.122,0.01,0.254-0.042,0.38,0.004c0.143,0.051,0.144,0.162,0.258,0.244c0.19,0.137,0.393,0.021,0.558-0.063
	c0.213-0.108,0.222,0.039,0.422-0.005v-12.723c-0.278,0-0.436-0.064-0.591,0.161c-0.153,0.222-0.12,0.426-0.408,0.54
	c-0.316,0.125-0.654,0.1-0.917-0.101c-0.071-0.054-0.222-0.277-0.303-0.27c-0.096,0.008-0.247,0.257-0.317,0.322
	c-0.192,0.174-0.439,0.206-0.626,0.367c-0.249,0.214-0.197,0.593-0.212,0.899c-0.017,0.351,0.103,0.437,0.401,0.56
	c0.12,0.049,0.27,0.017,0.252,0.205c-0.017,0.181-0.426,0.361-0.572,0.352c-0.206-0.012-0.349-0.286-0.531-0.349
	c-0.27-0.094-0.634-0.032-0.921-0.123c-0.165-0.052-0.182-0.051-0.285-0.178c-0.046-0.056,0.031-0.16-0.034-0.219
	c-0.145-0.132-0.557-0.079-0.576,0.151c-0.368,0.015-0.742-0.207-0.949,0.148c-0.105-0.056-0.116-0.199-0.215-0.247
	c-0.13-0.062-0.313,0.066-0.444,0.028c-0.195-0.056-0.162-0.133-0.242-0.35c-0.183-0.494-0.385-1.139-0.786-1.503
	c-0.09-0.081-0.208-0.179-0.317-0.231c-0.178-0.084-0.445-0.061-0.599-0.184c-0.158-0.126-0.226-0.422-0.326-0.602
	c-0.152-0.274-0.393-0.35-0.486-0.647c-0.215-0.686-0.6-0.616-1.352-0.542c-0.205-0.577-0.46-0.713-1.085-0.745
	c-0.157-0.136-0.389-0.239-0.344-0.497c-0.267-0.011-0.62-0.004-0.488-0.398c0.049-0.146,0.234-0.067,0.202-0.3
	c-0.012-0.086-0.154-0.157-0.201-0.227c-0.122-0.185-0.101-0.446-0.093-0.666c0.004-0.114,0.089-0.229,0.071-0.327
	c-0.028-0.16-0.2-0.23-0.276-0.358c-0.324-0.552,0.034-1.107,0.232-1.591c0.058-0.142,0.073-0.256,0.106-0.406
	c0.046-0.21,0.135-0.28,0.182-0.492c0.036-0.161-0.034-0.424,0.025-0.573c0.094-0.232,0.278-0.251,0.325-0.518
	c0.031-0.175,0.087-0.45,0.094-0.611c0.011-0.249-0.137-0.386-0.213-0.608c-0.103-0.302,0.062-0.297,0.186-0.554
	c0.088-0.181,0.031-0.474,0.031-0.679c0-0.157,0.196-0.147,0.284-0.241c0.165-0.176,0.138-0.293,0.138-0.535
	c0-0.431,0.05-0.737,0.306-1.086c0.22-0.299,0.161-0.599,0.533-0.722c0.336-0.111,0.128-0.062,0.267-0.309
	c0.08-0.142,0.25-0.113,0.279-0.322c0.038-0.27-0.165-0.198-0.298-0.344c-0.136-0.15-0.044-0.23-0.001-0.427
	c0.06-0.274-0.016-0.248-0.138-0.516c-0.103-0.225-0.087-0.472-0.076-0.717c0.023-0.497,0.017-1.03-0.071-1.509
	c-0.086-0.465-0.81-0.799-0.344-1.263c0.244-0.243,0.423-0.381,0.468-0.756c0.029-0.247,0.055-0.529-0.027-0.765
	c-0.141-0.405-0.179-0.467,0.038-0.873c0.174-0.325,0.25-0.71,0.382-1.054c0.103-0.266,0.222-0.174,0.054-0.449
	c-0.053-0.086-0.21-0.208-0.29-0.27c-0.132-0.102-0.319-0.141-0.398-0.313c-0.074-0.163-0.025-0.463-0.025-0.64
	c0-0.123,0.031-0.291,0-0.409c-0.045-0.172-0.171-0.277-0.277-0.451c-0.131-0.215-0.163-0.283-0.191-0.527
	c-0.024-0.203,0.059-0.17-0.099-0.324c-0.108-0.105-0.355-0.078-0.381-0.228c-0.142-0.002,0.248,0.571-0.013,0.704
	c-0.144,0.074-0.389-0.004-0.541-0.019c-0.206-0.02-0.422-0.007-0.616-0.093c-0.168-0.074-0.391-0.234-0.366-0.432
	c0.023-0.189,0.21-0.251,0.127-0.454c-0.062-0.151-0.259-0.217-0.315-0.373c-0.044-0.123,0.02-0.233,0.042-0.347
	c0.032-0.169,0.032-0.349,0.009-0.521c-0.022-0.165-0.054-0.184,0.047-0.327c0.091-0.129,0.183-0.243,0.19-0.418
	c0.006-0.162-0.091-0.2-0.151-0.335c-0.12-0.27-0.047-0.647-0.073-0.934c0.348-0.339,0.856-0.433,1.245-0.739
	c0.382-0.3,0.629-0.839,0.901-1.24c0.574-0.847,1.375-1.408,1.996-2.185c0.422-0.527,0.868-1.12,1.095-1.76l16.308-2.319
	c0-0.104-0.029-0.252-0.017-0.355c0.012-0.104,0.108-0.215,0.113-0.304c0.009-0.161-0.3-0.355-0.43-0.448
	c-0.224,0-0.139-0.238-0.184-0.378c-0.054-0.169-0.228-0.275-0.354-0.384c-0.135-0.116-0.267-0.233-0.407-0.346
	c-0.082-0.066-0.18-0.122-0.237-0.209c-0.044-0.066-0.035-0.151-0.079-0.217c-0.085-0.126-0.261-0.158-0.36-0.262
	c-0.129-0.135-0.121-0.289-0.316-0.352c-0.131-0.043-0.27,0.023-0.376-0.056c-0.109-0.082-0.068-0.135-0.095-0.246
	c-0.045-0.188-0.213-0.254-0.264-0.434c-0.102-0.359,0.07-0.557-0.252-0.843c-0.49-0.435-0.485-0.933-0.485-1.562
	c0-0.176,0.151-0.28,0.158-0.461c0.01-0.241,0.041-0.495,0.009-0.735c-0.039-0.293-0.136-0.576-0.295-0.827
	c-0.06-0.094-0.149-0.169-0.226-0.249c-0.127-0.132-0.155-0.228-0.181-0.402c-0.024-0.163-0.084-0.264-0.172-0.403
	c-0.046-0.072-0.116-0.174-0.137-0.254c-0.123-0.102-0.158-0.267-0.29-0.376c-0.112-0.092-0.241-0.151-0.352-0.247
	c-0.178-0.154-0.31-0.372-0.517-0.489c-0.189-0.106-0.397-0.066-0.611-0.074c-0.667-0.022-1.069-0.415-1.482-0.906
	c-0.167-0.198-0.386-0.361-0.545-0.56c-0.202-0.253-0.185-0.603-0.395-0.853c-0.29-0.344-0.701-0.568-1.004-0.907
	c-0.177-0.199-0.296-0.438-0.499-0.607c-0.177-0.148-0.193-0.554-0.225-0.773c-0.031-0.213,0.071-0.519-0.003-0.721
	c-0.073-0.196-0.24-0.23-0.388-0.386c-0.179-0.188-0.308-0.473-0.391-0.712c-0.228-0.653-0.567-1.263-0.776-1.925
	c-0.216-0.682-0.693-1.403-1.364-1.724c0.001-0.335-0.116-0.962,0.11-1.239c0.143-0.176,0.567-0.232,0.77-0.342
	c0.22-0.12,0.353-0.219,0.493-0.411c0.45-0.616,0.458-1.46,0.458-2.189c-0.548-0.649-0.918-1.409-1.282-2.158
	c-0.449-0.924-1.081-2.157-1.179-3.19c-0.065-0.682-0.063-1.329-0.17-1.995c-0.097-0.605-0.204-1.399-0.095-2.013
	c0.056-0.315,0.29-0.908,0.538-1.099c0.351-0.271,0.549-0.046,0.678-0.589c0.121-0.508-0.026-1.124,0.053-1.648
	c0.085-0.57,0.181-1.132,0.263-1.701c0.023-0.16,0.041-0.615-0.225-0.553c-0.176,0.041-0.306,0.57-0.342,0.708
	c-0.078,0.298-0.085,0.589-0.191,0.88c-0.089,0.244-0.204,0.473-0.248,0.727c-0.34,0.124-0.87-0.004-0.618-0.455
	c0.105-0.189,0.254-0.231,0.279-0.474c0.031-0.303-0.092-0.63-0.106-0.938c-0.021-0.461,0.026-0.923,0.027-1.384
	c0-0.284-0.097-0.654-0.006-0.93c0.052-0.161,0.279-0.241,0.292-0.401c0.016-0.197-0.263-0.226-0.324-0.418
	c-0.089-0.279,0.254-0.649,0.368-0.899c0.187-0.411,0.104-0.812,0.198-1.24c0.077-0.347,0.04-0.769,0.025-1.131
	c-0.009-0.209-0.123-0.712,0.014-0.888c0.109-0.14,0.279-0.042,0.416-0.122c0.195-0.114,0.121-0.235,0.152-0.436
	c0.044-0.289,0.047-0.556,0.052-0.876c0.01-0.62,0.777-1.345,0.004-1.811c-0.289-0.174-0.361-0.071-0.505-0.404
	c-0.118-0.272-0.112-0.19-0.322-0.319c-0.135-0.083-0.338-0.189-0.438-0.311c-0.047-0.056-0.084-0.16-0.105-0.23
	c-0.017-0.056,0.022-0.148-0.002-0.196c-0.028-0.058-0.106-0.088-0.13-0.134c-0.034-0.065-0.101-0.237-0.162-0.287
	c-0.102-0.085-0.21-0.012-0.327-0.073c-0.302-0.158-0.148-0.418,0.006-0.605c0.175-0.213,0.269-0.38-0.068-0.509
	c-0.289-0.111-0.752-0.272-1.062-0.312c-0.03-0.458-0.085-0.785-0.251-1.188c-0.158-0.382-0.281-0.899-0.25-1.323
	c0.018-0.244,0.056-0.451,0.288-0.567c0.186-0.092,0.454,0.013,0.619-0.097c0.381-0.254,0.25-0.831-0.116-0.96
	c-0.214-0.075-0.507,0.186-0.554-0.225c-0.036-0.309,0.149-0.271,0.291-0.437c0.142-0.166,0.153-0.319-0.124-0.309
	c-0.036-0.364,0.528-0.406,0.679-0.696c0.062-0.119,0.079-0.229,0.077-0.361c-0.004-0.173-0.069-0.181-0.104-0.283
	c-0.188-0.545,0.317-0.967,0.42-1.491c0.057-0.292,0.202-0.514,0.326-0.752c0.1-0.19,0.051-0.377,0.12-0.566
	c0.056-0.153,0.185-0.264,0.239-0.422c0.062-0.182,0.1-0.348,0.195-0.53c0.221,0.058,0.523,0.149,0.718,0.267
	c0.103,0.062,0.165,0.179,0.273,0.238c0.32,0.174,0.373,0.047,0.521-0.215c0.193-0.34,0.542-0.586,0.751-0.92
	c0.139-0.223,0.159-0.447,0.433-0.536c0.266-0.086,0.545,0.055,0.787-0.112c0.269-0.186,0.306-0.583,0.542-0.785
	c0.196-0.168,0.643-0.123,0.775-0.309c0.069-0.097,0.035-0.322,0.039-0.43c0.008-0.255,0.045-0.492,0.079-0.742
	c0.049-0.362-0.112-0.361-0.343-0.618c-0.018-0.495,0.106-1.06,0.132-1.554c0.012-0.231,0.049-0.445,0.053-0.667
	c0.002-0.129-0.078-0.32,0.004-0.418c0.166-0.198,0.293,0.008,0.364-0.289c0.06-0.254,0-0.594,0-0.855c0-0.222,0-0.444,0-0.666
	c0-0.306,0.021-0.336,0.156-0.571c0.191-0.332-0.119-0.797,0.288-0.963c0.024-0.436,0.033-0.77-0.26-1.107
	c-0.149,0.462-0.362,1.527-0.938,1.608c-0.184,0.026-0.413-0.046-0.592-0.08c-0.096-0.018-0.363-0.132-0.461-0.076
	c-0.119,0.068-0.138,0.422-0.249,0.534c-0.163,0.163-0.286,0.101-0.512,0.136c0.011-0.632,0.488-0.762-0.331-0.986
	c-0.014-0.194,0.069-0.373,0.062-0.549c-0.013-0.3-0.056-0.215,0.234-0.48c0.233-0.212,0.344-0.565,0.389-0.873
	c0.023-0.155,0.291-0.263,0.39-0.397c0.119-0.16,0.13-0.365,0.183-0.548c0.077-0.268,0.27-0.789,0.532-0.935
	c0.305-0.169,0.59,0.092,0.877-0.179c0.124-0.118,0.173-0.26,0.339-0.314c0.232-0.076,0.326,0.054,0.499-0.105
	c0.165-0.151,0.34-0.603,0.376-0.818c0.038-0.227-0.084-0.284-0.167-0.488c-0.099-0.243-0.052-0.478,0.04-0.714
	c0.07-0.181,0.185-0.498,0.353-0.623c0.149-0.111,0.37-0.078,0.523-0.188c0.415-0.3,0.345-1.223,0.498-1.676
	c0.098-0.289,0.202-0.563,0.454-0.743c0.216-0.154,0.469-0.177,0.583-0.433c0.08-0.179,0.114-0.555,0.058-0.748
	c-0.065-0.223-0.312-0.381-0.266-0.633c0.047-0.261,0.194-0.465,0.211-0.734c0.014-0.211,0.021-0.413,0.053-0.623
	c0.078-0.511,0.29-0.899,0.733-1.174c0.36-0.223,0.672-0.311,1.004-0.593c0.186-0.158,0.617-0.247,0.742-0.428
	c0.102-0.148,0.02-0.558,0.025-0.738c0.008-0.32-0.054-0.763,0.233-0.945c0.256-0.162,0.355-0.039,0.575,0.071
	c0.137-0.089,0.128-0.255,0.244-0.344c0.142-0.109,0.324-0.033,0.487-0.026c0.289,0.013,0.704-0.106,0.59-0.509
	c-0.082-0.289-0.411,0.033-0.653-0.109c-0.337-0.197-0.036-0.517,0.131-0.728c0.389-0.486,0.658-0.405,0.747-1.046
	c0.03-0.216,0.03-0.573,0.158-0.757c0.139-0.201,0.387-0.213,0.607-0.325c0.391-0.198,0.501-0.46,0.721-0.807
	c0.223-0.353,0.529-0.449,0.826-0.702c0.31-0.265,0.564-0.492,0.911-0.721c0.431-0.286,0.715-0.743,1.094-1.089
	c0.365-0.334,0.727-0.207,1.089-0.537c0.36-0.328,0.813-0.656,1.133-1.017c0.195-0.219,0.311-0.373,0.519-0.521
	c0.132-0.094,0.313-0.185,0.362-0.381C188.908,39.938,188.706,39.912,188.442,39.763z"/>
</svg>
