<?xml version="1.0" encoding="utf-8"?>
<!-- Generator: Adobe Illustrator 26.0.3, SVG Export Plug-In . SVG Version: 6.00 Build 0)  -->
<svg version="1.1" id="Isolation_Mode" xmlns="http://www.w3.org/2000/svg" xmlns:xlink="http://www.w3.org/1999/xlink" x="0px"
	 y="0px" viewBox="0 0 200 200" enable-background="new 0 0 200 200" xml:space="preserve">
<path fill="#1E8346" d="M195.724,117.636c-0.115-0.275-0.198-0.533-0.431-0.73c-0.207-0.175-0.449-0.376-0.69-0.501
	c-0.262-0.136-0.512-0.205-0.659-0.487c-0.099-0.19-0.027-0.401-0.129-0.586c-0.17-0.309-0.598-0.485-0.693-0.838
	c-0.083-0.309,0.108-0.55-0.056-0.872c-0.174-0.344-0.309-0.419-0.2-0.814c0.11-0.398,0.291-0.786,0.437-1.172
	c0.101-0.269,0.103-0.625,0.235-0.868c-0.039-0.236-0.308-0.401-0.445-0.588c-0.187-0.255-0.211-0.58-0.36-0.855
	c-0.118-0.216-0.2-0.478-0.335-0.695c-0.175-0.282-0.488-0.357-0.798-0.448c0.053-0.235,0.247-0.372,0.04-0.568
	c-0.177-0.168-0.461-0.182-0.688-0.183c-0.229,0-0.459,0.07-0.688,0.035c-0.323-0.049-0.507-0.268-0.676-0.529
	c-0.149-0.23-0.153-0.39-0.427-0.306c-0.27,0.083-0.337,0.059-0.548-0.148c-0.309-0.305-0.44-0.499-0.907-0.514
	c-0.281-0.01-0.522,0.035-0.662-0.255c-0.233-0.484-0.194-1.194-0.869-1.324c-0.348,0.015-0.632-0.12-0.984-0.119
	c-0.212,0.001-0.413,0.009-0.624,0.03c-0.32,0.033-0.69,0.045-0.998-0.055c-0.333-0.107-0.582-0.226-0.754-0.527
	c-0.154-0.269-0.407-0.555-0.491-0.851c-0.185,0.095-0.314,0.239-0.52,0.307c-0.172,0.056-0.358,0.07-0.527,0.131
	c-0.26-0.577,0.301-0.997,0.716-1.265c0.3-0.193,0.809-0.79,0.224-1.024c-0.127-0.051-0.417,0.046-0.536-0.064
	c-0.087-0.08-0.06-0.281-0.096-0.394c-0.123-0.38-0.561-0.485-0.884-0.666c-0.323-0.182-0.573-0.371-0.844-0.627
	c-0.223-0.21-0.637-0.461-0.767-0.737c-0.115-0.245,0.1-0.33,0.136-0.551c0.017-0.104,0.012-0.336-0.04-0.421
	c-0.092-0.149-0.222-0.101-0.41-0.094c-0.065-0.42,0.385-0.346,0.636-0.566c0.291-0.256,0.038-0.621,0.236-0.908
	c0.11-0.159,0.333-0.164,0.473-0.296c0.105-0.1,0.212-0.261,0.284-0.386c0.111-0.196,0.245-0.478,0.103-0.69
	c-0.47-0.704-1.299-0.343-1.913-0.77c-0.143-0.099-0.114-0.219-0.231-0.338c-0.118-0.12-0.332-0.097-0.472-0.174
	c-0.369-0.202-0.257-0.804-0.682-0.984c-0.364-0.155-0.817,0.136-1.1-0.279c-0.11-0.161-0.132-0.416-0.158-0.602
	c-0.019-0.139,0.029-0.48-0.109-0.561c-0.122-0.072-0.282,0.045-0.422-0.035c-0.153-0.089-0.174-0.225-0.184-0.383
	c-0.016-0.255,0.148-0.524,0.071-0.777c-0.084-0.28-0.324-0.323-0.565-0.395c-0.263-0.077-0.397-0.284-0.683-0.337
	c-0.199-0.037-0.392-0.049-0.574-0.142c-0.103-0.053-0.37-0.175-0.427-0.277c-0.127-0.225,0.087-0.346-0.212-0.519
	c-0.284-0.165-0.809-0.065-0.991-0.353c-0.065-0.104-0.034-0.248-0.12-0.348c-0.08-0.095-0.248-0.149-0.367-0.167
	c-0.56-0.082-1.127-0.382-1.655-0.568c-0.352-0.124-0.709-0.243-1.057-0.375c-0.246-0.093-0.367-0.276-0.58-0.415
	c-0.087-0.057-0.162-0.082-0.233-0.162c-0.062-0.07-0.089-0.215-0.168-0.272c-0.184-0.132-0.574-0.022-0.789-0.043
	c-0.05-0.004-0.236-0.023-0.267-0.049c-0.111-0.089-0.044-0.356-0.141-0.488c-0.116-0.157-0.495-0.266-0.679-0.294
	c-0.222-0.034-0.554,0.009-0.706-0.195c-0.119-0.158-0.09-0.389-0.124-0.574c-0.022-0.123-0.056-0.271-0.114-0.382
	c-0.099-0.189-0.21-0.176-0.385-0.261c-0.297-0.144-0.436-0.469-0.755-0.591c-0.248-0.095-0.778-0.087-0.913-0.306
	c-0.068-0.11-0.003-0.278,0-0.397c0.006-0.21-0.017-0.356-0.14-0.526c-0.261-0.361-0.19-0.354,0.209-0.557
	c0.365-0.185,0.785-0.384,1.11-0.631c0.269-0.204,0.364-0.491,0.217-0.79c-0.167-0.342-0.316-0.551-0.311-0.947
	c0.003-0.266,0.1-0.545-0.018-0.789c-0.138-0.287-0.422-0.534-0.614-0.771c-0.115-0.142-0.232-0.424-0.384-0.529
	c-0.176-0.122-0.401-0.082-0.604-0.083c-0.382-0.001-0.828,0.134-1.205,0.04c-0.171-0.043-0.303-0.235-0.423-0.368
	c-0.175-0.195-0.389-0.339-0.563-0.535c-0.351-0.399-0.792-0.703-1.146-1.093c-0.165-0.183-0.384-0.374-0.524-0.57
	c-0.096-0.135-0.119-0.357-0.166-0.514c-0.069-0.227-0.183-0.428-0.262-0.652c-0.065-0.184-0.142-0.367-0.283-0.505
	c-0.217-0.21-0.525-0.234-0.812-0.245c-0.296-0.011-0.564,0.198-0.84,0.082c-0.264-0.112-0.454-0.327-0.727-0.434
	c-0.289-0.114-0.538-0.221-0.854-0.157c-0.489,0.099-1.157,0.464-1.659,0.244c-0.279-0.122-0.404-0.44-0.575-0.672
	c-0.235-0.319-0.616-0.473-1.01-0.422c-0.326,0.042-0.539,0.34-0.876,0.352c-0.595-0.259-1.365-0.184-1.943-0.472
	c-0.39-0.195-0.712-0.5-0.878-0.893c-0.199-0.469-0.191-0.916-0.164-1.419c0.03-0.561,0.411-0.954,0.794-1.342
	c0.179-0.181,0.391-0.324,0.56-0.514c0.162-0.183,0.272-0.272,0.088-0.468s-0.376-0.371-0.291-0.68
	c0.057-0.206,0.269-0.36,0.235-0.596c-0.042-0.296-0.403-0.075-0.648-0.111c-0.312-0.045-0.537-0.383-0.803-0.118
	c-0.237,0.236-0.462,0.181-0.806,0.177c-0.479-0.005-1.22,0.099-1.646-0.157c-0.16-0.096-0.304-0.265-0.486-0.326
	c-0.269-0.091-0.587,0.01-0.846,0.097c-0.24,0.08-0.453,0.135-0.707,0.167c-0.215,0.027-0.519,0.124-0.738,0.068
	c-0.187-0.047-0.236-0.208-0.388-0.287c-0.169-0.088-0.239-0.005-0.418,0.035c-0.466,0.104-0.918-0.083-1.337-0.269
	c-0.302-0.134-0.86-0.546-1.102-0.179c-0.132,0.2-0.14,0.323-0.428,0.337c-0.271,0.013-0.38-0.021-0.453-0.296
	c-0.105-0.395-0.146-0.839,0.049-1.196c0.129-0.237,0.295-0.433,0.48-0.628c0.181-0.191,0.431-0.364,0.448-0.645
	c0.015-0.256-0.138-0.495-0.1-0.759c0.046-0.321,0.122-0.567-0.132-0.844c-0.357,0.144-0.464,0.58-0.866,0.617
	c-0.278,0.025-0.516,0.016-0.688-0.221c-0.338-0.463-0.293-1.217-0.129-1.742c0.095-0.304,0.264-0.642,0.418-0.92
	c0.193-0.35,0.467-0.23,0.791-0.228c0.296,0.003,0.625-0.286,0.871-0.444c0.134-0.086,0.211-0.151,0.272-0.303
	c0.049-0.122,0.008-0.389,0.095-0.468c0.097-0.087,0.248-0.018,0.36-0.12c0.114-0.103,0.142-0.301,0.107-0.441
	c-0.123-0.494-0.454-0.904-0.208-1.432c0.104-0.223,0.367-0.427,0.227-0.689c-0.106-0.201-0.301-0.259-0.328-0.513
	c-0.026-0.237,0.143-0.449,0.102-0.688c-0.027-0.158-0.113-0.261-0.1-0.435c0.017-0.231,0.176-0.429,0.282-0.637
	c0.132-0.256,0.281-0.498,0.424-0.747c0.076-0.132,0.126-0.28,0.221-0.398l-0.316-3.474l-5.606-8.712
	c-0.214-0.203-0.471-0.386-0.692-0.58c-0.233-0.203-0.512-0.343-0.754-0.535c-0.24-0.191-0.359-0.426-0.557-0.644
	c-0.259-0.286-0.681-0.462-0.997-0.688c-0.315-0.226-0.657-0.439-0.957-0.685c-0.282-0.231-0.508-0.539-0.564-0.9
	c-0.056-0.362-0.286-0.595-0.495-0.899c-0.409-0.593-1.132-1.095-1.163-1.854c-0.329,0.021-0.657-0.16-0.984-0.199
	c-0.223-0.027-0.526,0.033-0.734-0.077c-0.15-0.08-0.185-0.314-0.334-0.379c-0.213-0.093-0.567,0.083-0.805,0.044
	c-0.348-0.058-0.678-0.216-0.986-0.38c-0.153-0.082-0.295-0.236-0.477-0.215c-0.223,0.026-0.243,0.208-0.48,0.082
	c-0.22-0.116-0.21-0.21-0.471-0.141c-0.58,0.153-1.044,0.616-1.655,0.649c-0.232,0.012-0.369-0.03-0.51,0.138
	c-0.128,0.151-0.115,0.22-0.34,0.274c-0.324,0.078-0.729,0.063-1.066,0.085c-0.177,0.012-0.42-0.013-0.581,0.058
	c-0.169,0.075-0.191,0.262-0.342,0.354c-0.092,0.056-0.288,0.074-0.394,0.097c-0.206,0.045-0.333,0.11-0.484-0.034
	c-0.092-0.087-0.103-0.304-0.209-0.37c-0.196-0.122-0.9,0.025-0.932,0.31c-0.102-0.058-0.179-0.253-0.296-0.298
	c-0.204-0.078-0.563,0.058-0.707,0.198c-0.184,0.179-0.242,0.325-0.519,0.397c-0.193,0.05-0.707-0.014-0.836,0.12
	c-0.129,0.135-0.033,0.298-0.262,0.409c-0.223,0.108-0.553,0.11-0.794,0.181c-0.379,0.111-0.836,0.47-0.983,0.851
	c-0.135,0.351-0.001,0.777,0.015,1.138c0.007,0.159,0.029,0.367,0,0.524c-0.03,0.161-0.061,0.144-0.164,0.269
	c-0.106,0.128-0.086,0.225-0.248,0.197c-0.156-0.027-0.176-0.204-0.334-0.056c-0.251,0.236-0.216,0.882-0.122,1.165
	c0.071,0.214,0.127,0.358,0.07,0.589c-0.041,0.166-0.113,0.27-0.068,0.444c0.072,0.279,0.326,0.426,0.354,0.721
	c0.009,0.093-0.022,0.189,0.017,0.277c0.027,0.06,0.098,0.085,0.122,0.132c0.044,0.088,0.064,0.193-0.001,0.279
	c-0.061,0.08-0.173,0.12-0.243,0.22c-0.067,0.097-0.182,0.205-0.234,0.307c-0.181,0.356,0.161,0.657-0.088,1.015
	c-0.074,0.107-0.169,0.235-0.29,0.297c-0.092,0.048-0.221,0.02-0.304,0.067c-0.234,0.134-0.115,0.402-0.192,0.603
	c-0.107,0.283-0.458,0.212-0.709,0.279c-0.258,0.069-0.386,0.158-0.661,0.154c-0.187-0.002-0.281-0.096-0.45-0.119
	c-0.3-0.041-0.271,0.241-0.445,0.383c-0.185,0.151-0.418,0.057-0.394,0.408c-0.183,0.176-0.452,0.332-0.511,0.6
	c-0.047,0.214,0.113,0.396,0.115,0.599c0.003,0.24-0.23,0.334-0.408,0.462c-0.232,0.168-0.407,0.358-0.443,0.65
	c-0.023,0.192,0.07,0.317-0.113,0.393c-0.165,0.068-0.346-0.077-0.465,0.106c-0.069,0.107,0.024,0.246-0.112,0.31
	c-0.111,0.052-0.333-0.056-0.428-0.104c-0.11-0.056-0.179-0.13-0.304-0.136c-0.093-0.005-0.175,0.051-0.274,0.042
	c-0.169-0.016-0.265-0.178-0.435-0.12c-0.175,0.061-0.305,0.318-0.441,0.436c-0.126,0.109-0.276,0.158-0.349,0.315
	c-0.14,0.3-0.062,0.479-0.337,0.713c-0.274,0.233-0.65,0.449-0.867,0.736c-0.173,0.229-0.167,0.515-0.337,0.741
	c-0.126,0.167-0.291,0.325-0.512,0.278c-0.178-0.038-0.448-0.253-0.63-0.051c-0.16,0.177,0.159,0.369,0.06,0.535
	c-0.047,0.079-0.231,0.055-0.32,0.087c-0.216,0.078-0.13,0.124-0.095,0.334c0.041,0.242-0.038,0.269-0.15,0.455
	c-0.162,0.271,0.039,0.75-0.264,0.974c-0.122,0.09-0.214,0.009-0.312,0.187c-0.104,0.187-0.018,0.391-0.082,0.584
	c-0.092-0.011-0.181-0.024-0.258,0.031c-0.076,0.055-0.069,0.132-0.102,0.209c-0.081,0.187-0.068,0.168-0.213,0.222
	c-0.139,0.051-0.242,0.019-0.366,0.142c-0.11,0.109-0.169,0.262-0.208,0.415c-0.035,0.14-0.095,0.226-0.201,0.335
	c-0.074,0.076-0.103,0.062-0.146,0.171c-0.031,0.077,0.015,0.158-0.037,0.23c-0.114,0.157-0.364,0.089-0.524,0.112
	c-0.176,0.025-0.355,0.101-0.486,0.229c-0.108,0.106-0.141,0.318-0.266,0.389c-0.19,0.108-0.628,0.044-0.843,0.063
	c-0.962,0.086-0.436,0.674-0.231,1.222c-0.447-0.027-1.035,0.116-1.403-0.196c-0.145-0.123-0.201-0.289-0.406-0.274
	c-0.19,0.014-0.395,0.181-0.488,0.331c-0.059,0.094-0.073,0.234-0.14,0.319c-0.03,0.038-0.116,0.06-0.13,0.081
	c-0.08,0.12-0.046,0.249,0.001,0.394c0.136,0.42,0.097,0.598-0.31,0.794c-0.307,0.148-0.461,0.374-0.629,0.668
	c-0.051,0.09-0.11,0.28-0.212,0.325c-0.129,0.057-0.356-0.022-0.5,0.009c-0.285,0.06-0.461,0.33-0.746,0.382
	c-0.111,0.02-0.249,0.003-0.361-0.002c-0.34-0.014-0.816,0.067-1.135-0.048c-0.145-0.052-0.199-0.218-0.322-0.284
	c-0.128-0.068-0.125-0.043-0.273,0.01c-0.332,0.117-0.863,0.229-1.186,0.048c-0.107-0.06-0.153-0.133-0.275-0.104
	c-0.128,0.03-0.158,0.228-0.276,0.248c-0.131,0.022-0.252-0.161-0.373-0.18c-0.118-0.019-0.199,0.054-0.299,0.098
	c-0.114,0.051-0.253,0.077-0.358,0.147c-0.1,0.067-0.114,0.149-0.195,0.224c-0.122,0.114-0.278,0.119-0.435,0.158
	c-0.512,0.129-0.962,0.442-1.465,0.579c-0.227,0.062-0.462,0.118-0.682,0.034c-0.158-0.06-0.191-0.103-0.377-0.098
	c-0.295,0.009-0.583,0.085-0.865,0.169c-0.312,0.093-0.514,0.34-0.836,0.424c-0.328,0.085-0.685,0.02-1.019,0.02
	c-0.378,0-0.742,0.04-1.117,0.078c-0.384,0.038-0.761,0.033-1.146,0.035c-0.179,0.001-0.276,0.075-0.45,0.107
	c-0.301,0.054-0.556-0.19-0.844-0.163c-0.204,0.019-0.325,0.202-0.524,0.263c-0.223,0.068-0.537-0.001-0.74-0.101
	c-0.14-0.069-0.244-0.18-0.401-0.196c-0.304-0.031-0.735,0.113-1.038,0.151c-0.353,0.045-0.689,0.1-1.045,0.101
	c-0.355,0.001-0.646-0.17-0.964,0.03c-0.304,0.192-0.662,0.217-0.961,0.416c-0.251,0.166-0.343,0.486-0.611,0.593
	s-0.495,0.062-0.71,0.284c-0.089,0.091-0.149,0.175-0.254,0.25c-0.268,0.193-0.457,0.41-0.26,0.755
	c0.173,0.048,0.4,0.031,0.542,0.151c-0.061,0.273-0.35,0.339-0.015,0.499c0.214,0.103,0.416,0.123,0.622,0.251
	c0.376,0.234,0.733,0.449,1.08,0.713c0.252,0.191,0.441,0.379,0.713,0.536c0.304,0.176,0.538,0.373,0.791,0.613
	c-0.367,0.232-0.821,0.302-1.003,0.745c-0.168,0.41-0.134,1.048-0.556,1.327c-0.199,0.131-0.305-0.02-0.408,0.219
	c-0.076,0.177-0.044,0.389-0.164,0.554c-0.147,0.202-0.417,0.338-0.602,0.503c-0.194,0.172-0.286,0.357-0.389,0.589
	c-0.096,0.218-0.125,0.47-0.344,0.601c-0.153,0.093-0.356,0.064-0.509,0.149c-0.365,0.202-0.216,0.848-0.517,1.137
	c-0.644,0.621-1.757,0.515-2.318,1.209c-0.297,0.367-0.528,0.692-0.602,1.168c-0.043,0.28,0.106,1.037-0.249,1.037l-8.567,0.592
	c-0.21,0.087-0.401,0.246-0.615,0.341c-0.247,0.11-0.534,0.302-0.793,0.351c-0.262,0.05-0.578-0.021-0.843-0.038
	c-0.453-0.029-0.906-0.041-1.359-0.066c-0.508-0.029-1.046-0.104-1.555-0.075c-0.159,0.009-0.271,0.035-0.38,0.148
	c-0.108,0.111-0.143,0.264-0.225,0.39c-0.191,0.292-0.49,0.276-0.814,0.323c-0.149,0.022-0.351,0.004-0.494,0.046
	c-0.172,0.051-0.17,0.112-0.241,0.282c-0.242,0.575-0.564,0.187-0.988,0.078c-0.411-0.106-0.682,0.565-1.043,0.682
	c-0.155,0.05-0.241-0.111-0.399-0.116c-0.224-0.006-0.312,0.258-0.492,0.338c-0.142,0.064-0.313-0.019-0.459,0.023
	c-0.159,0.046-0.259,0.209-0.359,0.333c-0.095,0.119-0.179,0.233-0.243,0.376c-0.03,0.067-0.047,0.213-0.09,0.269
	c-0.129,0.169-0.108,0.056-0.297,0.023c-0.385-0.068-0.329,0.39-0.549,0.57c-0.201,0.165-0.477,0.052-0.626,0.258
	c-0.112,0.155-0.088,0.621-0.324,0.656c-0.198,0.029-0.353-0.354-0.509-0.451c-0.478-0.298-0.297,0.331-0.636,0.49
	c-0.085,0.04-0.184,0.028-0.266,0.088c-0.065,0.048-0.074,0.142-0.128,0.189c-0.14,0.122-0.397,0.089-0.579,0.097
	c-0.2,0.009-0.421-0.098-0.599-0.061c-0.218,0.045-0.178,0.205-0.293,0.349c-0.126,0.156-0.294,0.003-0.504,0.048
	c-0.291,0.062,0.019,0.571,0.019,0.729c-0.261,0.085-0.55,0.113-0.799,0.222c-0.357,0.155-0.504,0.282-0.732-0.123
	c-0.164-0.293-0.326-0.53-0.52-0.808c-0.191-0.273-0.337-0.277-0.671-0.317c-0.234-0.028-0.395-0.033-0.53-0.234
	c-0.149-0.224-0.294-0.509-0.301-0.775c-0.008-0.274,0.007-0.468-0.218-0.66c-0.184-0.157-0.41-0.262-0.585-0.449
	c-0.455-0.489-0.21-1.063-0.306-1.662c-0.287,0.261-0.689,0.325-1.01,0.539c-0.294,0.196-0.233,0.373-0.373,0.662
	c-0.081,0.166-0.298,0.248-0.483,0.265c-0.202,0.018-0.264-0.21-0.43-0.194c-0.134,0.012-0.313,0.311-0.325,0.421
	c-0.022,0.2,0.117,0.406,0.136,0.607c0.073,0.741-0.858,1.11-1.407,1.039c-0.189-0.024-0.489,0.199-0.653,0.29
	c-0.206,0.114-0.365,0.291-0.569,0.413c-0.169,0.102-0.214,0.116-0.391,0.037c-0.147-0.066-0.323-0.125-0.483-0.062
	c-0.165,0.065-0.237,0.262-0.38,0.347c-0.042,0.025-0.062,0.018-0.109,0.028c-0.204,0.042-0.442,0.011-0.652,0.022
	c-0.609,0.033-0.801,0.61-1.206,0.974c-0.219,0.197-0.49,0.309-0.749,0.442c-0.322,0.165-0.648,0.299-1.003,0.389
	c-0.387,0.097-0.745,0.187-1.12,0.316c-0.159,0.055-0.336,0.028-0.496-0.013c-0.303-0.077-0.537-0.218-0.744-0.454
	c-0.116-0.132-0.233-0.359-0.382-0.451c-0.136-0.083-0.379-0.007-0.535-0.002c-0.621,0.024-1.312,0.055-1.925-0.056
	c-0.312-0.057-0.617-0.161-0.934-0.161l-0.928,1.52l-3.119,2.626c-0.042,0.221,0.167,0.404,0.138,0.626
	c-0.023,0.176-0.192,0.254-0.245,0.41c-0.091,0.266,0.086,0.89,0.206,1.116c-0.15,0.215-0.319,0.486-0.592,0.436
	c-0.106-0.019-0.155-0.101-0.267-0.037c-0.103,0.059-0.224,0.362-0.268,0.471c-0.128,0.32-0.074,0.689-0.078,1.028
	c-0.004,0.301-0.118,0.497-0.242,0.765c-0.22,0.475-0.501,0.943-0.688,1.431c-0.118,0.308-0.195,0.785-0.525,0.905
	c-0.574,0.208-1.209-0.083-1.506,0.583c-0.284,0.638-0.467,1.297-0.766,1.92c-0.124,0.258-0.249,0.518-0.355,0.784
	c-0.084,0.211-0.197,0.454-0.28,0.656c-0.085,0.206-0.202,0.433-0.311,0.636c-0.132,0.245-0.38,0.527-0.362,0.814
	c0.016,0.248,0.223,0.413,0.145,0.678c-0.068,0.232-0.294,0.447-0.443,0.632c-0.256,0.318-0.494,0.76-0.831,1.002
	c-0.367,0.264-0.927,0.36-1.356,0.482c-0.468,0.132-1.044,0.224-1.425,0.54c-0.352,0.291-0.606,0.632-0.837,1.022
	c-0.183,0.31-0.165,0.271-0.526,0.315c-0.118,0.014-0.29,0.015-0.354,0.119c-0.088,0.141,0.024,0.667,0.042,0.834
	c0.026,0.254,0.102,0.435,0.235,0.645c0.145,0.229,0.348,0.416,0.534,0.614c0.308,0.328,0.332,0.757,0.889,0.639
	c0.213-0.045,0.717-0.459,0.892-0.406c0.141,0.042,0.328,0.578,0.352,0.715c0.077,0.454-0.015,0.932,0.028,1.391
	c0.047,0.498,0.112,1.123-0.028,1.608c-0.131,0.452-0.492,0.847-0.44,1.343c0.046,0.439,0.599,0.917,0.44,1.362
	c-0.062,0.173-0.227,0.283-0.277,0.469c-0.056,0.205,0.012,0.43-0.038,0.637c-0.057,0.235-0.15,0.191-0.327,0.299
	c-0.127,0.077-0.203,0.226-0.244,0.368c-0.103,0.362,0.037,0.678-0.211,1.012c-0.111,0.15-0.236,0.19-0.204,0.365
	c0.035,0.194,0.203,0.402,0.314,0.543c0.362,0.464,1.18,0.338,1.546,0.775c0.155,0.185,0.187,0.41,0.255,0.631
	c0.07,0.228,0.21,0.474,0.15,0.723c-0.055,0.228-0.282,0.286-0.37,0.489c-0.071,0.162,0.006,0.326,0.059,0.477
	c0.076,0.218-0.026,0.357,0.018,0.57c0.036,0.174,0.171,0.3,0.199,0.478c0.054,0.349-0.02,0.681,0.078,1.03
	c0.118,0.421,0.397,0.821,0.436,1.256c0.037,0.415-0.255,0.646-0.219,1.06c0.034,0.388,0.154,0.788,0.277,1.159
	c0.1,0.302,0.218,0.609,0.396,0.867c0.074,0.108,0.168,0.206,0.237,0.316c0.094,0.148,0.156,0.316,0.256,0.455
	c0.165,0.23,0.364,0.422,0.65,0.474c0.217,0.039,0.265,0.012,0.425,0.188c0.135,0.149,0.237,0.24,0.412,0.345
	c0.325,0.196,0.638,0.396,0.976,0.574c0.391,0.206,0.812,0.257,1.026,0.689c0.127,0.257,0.199,0.481,0.381,0.705
	c0.255,0.313,0.555,0.593,0.692,0.986c0.121,0.349,0.053,0.741,0.095,1.101c0.043,0.369,0.136,0.771,0.248,1.125
	c0.168,0.535,0.549,0.922,1.03,1.184l-1.514,0.605l2.29,4.33l2.974,2.974l5.396,6.277c0.348-0.048,0.618-0.265,0.97-0.168
	c0.473,0.131,0.717,0.641,0.977,1.029c0.12,0.179,0.274,0.482,0.46,0.595c0.193,0.118,0.317-0.159,0.578-0.135
	c0.283,0.026,0.477,0.369,0.589,0.596c0.063,0.128,0.121,0.245,0.144,0.387c0.024,0.146-0.007,0.444,0.152,0.519
	c0.111,0.184,0.277,0.348,0.333,0.564c0.065,0.249-0.01,0.587-0.1,0.823c-0.084,0.222-0.296,0.332-0.391,0.535
	c-0.078,0.165-0.066,0.457-0.038,0.633c0.059,0.364,0.414,0.465,0.389,0.844c-0.013,0.215-0.05,0.414-0.015,0.63
	c0.033,0.21,0.124,0.393,0.12,0.61c-0.007,0.376-0.466,0.745-0.318,1.101c0.105,0.256,0.366,0.319,0.313,0.635
	c-0.014,0.085-0.069,0.135-0.051,0.236c0.059,0.332,0.478,0.66,0.646,0.951c0.165,0.285,0.291,0.592,0.356,0.914
	c0.068,0.334,0.055,0.686,0.121,1.019c0.072,0.366,0.245,0.526,0.61,0.631l4.481-8.607c0.066-0.282,0.125-0.569,0.207-0.845
	c0.143-0.479-0.321-0.435-0.473-0.82c-0.086-0.218,0.1-0.606,0.143-0.843c0.078-0.432,0.087-0.695,0.402-1.007
	c0.29-0.287,0.333-0.395,0.051-0.667c-0.148-0.142-0.189-0.203-0.212-0.417c-0.023-0.218-0.067-0.523,0.024-0.732
	c0.07-0.159,0.213-0.252,0.277-0.419c0.064-0.17,0.051-0.3,0.034-0.474c-0.022-0.234,0.024-0.431-0.019-0.667
	c0.187-0.169,0.319-0.561,0.464-0.771c0.154-0.223,0.319-0.451,0.346-0.735c0.034-0.356-0.021-0.731-0.021-1.09
	c0-0.151-0.032-0.326,0.043-0.459c0.076-0.136,0.267-0.251,0.384-0.342c0.41-0.318,0.777-0.734,1.309-0.837
	c0.309-0.06,0.658-0.156,0.977-0.108c0.409,0.062,0.683,0.434,1.033,0.609c0.21,0.105,0.294,0.152,0.462-0.012
	c0.234-0.229,0.533-0.363,0.85-0.45c0.388-0.107,0.671,0.023,0.981,0.227c0.169,0.112,0.389,0.339,0.62,0.255
	c0.151-0.055,0.288-0.257,0.418-0.355c0.142-0.108,0.294-0.19,0.462-0.245c0.512-0.169,1.038-0.15,1.568-0.167
	c0.192-0.006,0.441,0.007,0.625-0.055c0.167-0.057,0.12-0.035,0.185-0.22c0.122-0.349,0.484-0.376,0.821-0.377
	c0.461-0.001,0.331,0.487,0.609,0.606c0.404,0.172,0.361-0.66,0.437-0.869c0.186-0.513,0.952-0.879,1.504-0.933
	c0.484-0.048,1.287,0.366,1.735,0.578c0.214,0.101,0.109,0.154,0.411,0.233c0.126,0.033,0.288,0.05,0.418,0.051
	c0.184,0.001,0.468,0.048,0.609,0.04c0.298-0.017,0.512-0.203,0.831-0.238c1.046-0.117,1.446,1.049,1.716,1.857
	c0.504-0.312,0.863-0.727,1.253-1.163c0.302,0.262,0.385,0.697,0.585,1.022c0.2-0.13,0.346-0.276,0.591-0.36
	c0.256-0.088,0.555-0.085,0.829-0.073c0.493,0.021,0.757,0.089,1.018,0.564c0.094,0.17,0.155,0.49,0.299,0.621
	c0.144,0.13,0.665,0.169,0.842,0.075c0.516-0.275,0.162-1.237,0.714-1.518c0.199-0.101,0.414-0.039,0.621-0.137
	c0.128-0.061,0.253-0.193,0.389-0.218c0.211-0.038,0.428,0.147,0.601,0.238c0.092,0.049,0.263,0.163,0.367,0.163
	c0.139,0,0.227-0.143,0.341-0.24c0.208-0.176,0.325-0.529,0.594-0.576c0.835-0.144,1.154,0.953,1.433,1.503
	c0.12,0.236,0.267,0.75,0.52,0.886c0.464,0.249,0.037-0.937,0.008-1.128c-0.134-0.881-0.176-1.764-0.246-2.65
	c-0.061-0.773-0.026-1.477,0.103-2.233c0.037-0.214,0.064-0.444,0.191-0.628c0.132-0.191,0.355-0.285,0.482-0.48
	c0.153-0.237,0.172-0.499,0.172-0.773c0-0.174,0.004-0.339-0.038-0.51c-0.032-0.129-0.112-0.25-0.12-0.381l-1.421-3.672l0.77-0.849
	c0.288,0.239,0.956,0.173,1.312,0.123c0.327-0.046,0.597-0.194,0.85-0.4c0.253-0.205,0.546-0.441,0.671-0.75
	c0.194-0.477,0.242-1.029,0.383-1.518c0.153-0.527,0.791-0.616,0.954-1.124c0.088-0.274,0.02-0.264,0.312-0.36
	c0.256-0.084,0.282-0.184,0.373-0.434c0.225-0.622,1.073-0.792,1.331-1.429c0.211-0.521,0.464-1.034,0.706-1.541
	c0.123-0.257,0.269-0.574,0.492-0.763c0.281-0.237,0.699-0.262,1.054-0.295c0.311-0.029,0.547-0.155,0.74-0.412
	c0.093-0.124,0.132-0.271,0.249-0.376c0.141-0.127,0.341-0.167,0.481-0.296c0.169-0.155,0.406-0.277,0.602-0.386
	c0.161-0.09,0.324-0.156,0.48-0.256c0.24-0.152,0.471-0.336,0.685-0.523c0.121-0.106,0.218-0.237,0.343-0.324
	c0.174-0.12,0.411-0.114,0.611-0.131c0.163-0.013,0.288,0.038,0.437,0.041c0.219,0.004,0.249-0.173,0.432-0.267
	c0.397-0.202,0.874,0.048,1.255,0.147c0.471,0.122,0.918-0.135,1.39-0.059c0.271,0.044,0.535,0.166,0.813,0.21
	c0.295,0.047,0.664,0.044,0.93,0.189c0.519,0.283,0.685,0.987,1.042,1.417c0.532,0.641,1.502,0.43,2.187,0.852
	c0.431,0.266,0.84,0.576,1.269,0.838c0.31,0.189,0.672,0.06,0.987,0.245c0.222,0.402,0.639,0.755,0.903,1.129
	c0.247,0.351,0.509,0.358,0.914,0.414c0.324,0.045,0.561,0.044,0.817,0.25c0.152,0.123,0.293,0.252,0.387,0.421
	c0.193,0.343,0.142,0.744,0.364,1.094c0.161,0.253,0.49,0.449,0.604,0.707c0.156,0.353-0.109,0.769,0.117,1.113
	c0.17,0.257,0.45,0.456,0.666,0.675c0.269,0.273,0.491,0.595,0.769,0.859c0.143,0.136,0.261,0.19,0.462,0.188
	c0.532-0.003,1.056-0.08,1.592-0.08c0.368,0,0.741-0.026,1.098,0.079c0.124,0.037,0.285,0.153,0.43,0.12
	c0.138-0.032,0.274-0.225,0.391-0.307c0.219-0.155,0.404-0.142,0.678-0.131c0.779,0.031,1.469,0.299,2.205,0.493
	c0.29,0.076,1.046,0.197,1.105,0.594c0.063,0.426,0.635,0.692,1.008,0.909c0.373,0.216,0.649,0.212,0.978,0
	c0.404-0.26,0.861-0.673,1.383-0.328c0.199,0.132,0.265,0.42,0.482,0.54c0.173,0.096,0.451,0.092,0.647,0.103
	c0.714,0.04,1.341,0.364,2.052,0.435c0.692,0.07,1.107-0.671,1.752-0.789c0.362-0.066,0.618,0.119,0.921,0.176
	c0.187,0.035,0.293-0.111,0.466-0.116c0.15-0.004,0.276,0.1,0.404,0.174c0.246,0.143,0.496,0.265,0.746,0.397
	c0.179,0.094,0.33,0.241,0.529,0.296c0.596,0.163,1.328,0.084,1.944,0.113c0.217,0.01,0.392,0.017,0.584,0.102
	c0.145,0.064,0.284,0.148,0.438,0.191c0.16,0.045,0.391-0.009,0.536,0.06c0.197,0.094,0.346,0.423,0.532,0.569
	c0.235,0.186,0.486,0.369,0.73,0.54c0.53,0.371,1.147,0.398,1.77,0.398c0.685,0,1.377,0.03,2.057-0.059
	c0.149-0.3,0.686-0.672,0.962-0.863c0.354-0.245,0.479-0.405,0.479-0.855c0-0.247,0.028-0.424,0.133-0.644
	c0.113-0.237,0.213-0.557,0.388-0.758c0.13-0.149,0.379-0.228,0.451-0.417c0.063-0.166-0.045-0.204-0.11-0.341
	c-0.084-0.175-0.102-0.391-0.113-0.587c-0.02-0.386,0.083-0.679,0.407-0.906c0.182-0.128,0.345-0.245,0.551-0.157
	c0.157,0.068,0.283,0.218,0.418,0.32c0.452-0.232,0.463-0.744,0.502-1.178c0.049-0.563,0.211-1.093,0.508-1.58
	c0.16-0.263,0.374-0.509,0.576-0.739c0.162-0.184,0.174-0.122,0.4-0.038c0.499,0.186,1.07-0.171,1.279-0.633
	c-0.035-0.188-0.182-0.375-0.115-0.578c0.053-0.161,0.339-0.288,0.481-0.374c0.4-0.243,0.736-0.361,0.973,0.139
	c0.174,0.369,0.285,0.643,0.581,0.936c0.184,0.182,0.355,0.307,0.614,0.379c0.417,0.117,0.646-0.02,1.022-0.186
	c0.625-0.275,0.72,0.297,1.138,0.611c0.125,0.094,0.261,0.106,0.41,0.171c0.148,0.065,0.076,0.005,0.166,0.125
	c0.178,0.237,0.278,0.487,0.524,0.681c0.288,0.228,0.505,0.133,0.815,0.211c0.197,0.05,0.328,0.209,0.542,0.213
	c0.11,0.002,0.619-0.092,0.689-0.166c0.23-0.247-0.163-0.596,0.278-0.761c0.219-0.082,0.428-0.02,0.63-0.156
	c0.222-0.149,0.471-0.373,0.664-0.556c0.186-0.177,0.295-0.432,0.491-0.597c0.379-0.32,1.018-0.209,1.475-0.26
	c0.414-0.047,0.912-0.047,1.305-0.168c0.254-0.078,0.407-0.234,0.597-0.406c0.12-0.108,0.254-0.195,0.376-0.3
	c0.03-0.025,0.142-0.177,0.189-0.181c0.12-0.01,0.207,0.188,0.271,0.274c0.066,0.089,0.392-0.181,0.556-0.177
	c0.156,0.003,0.226,0.084,0.372,0.143c0.136,0.055,0.375,0.129,0.522,0.06c0.141-0.066,0.112-0.155,0.119-0.312
	c0.015-0.323-0.06-0.505,0.314-0.504c0.304,0.001,0.754,0.064,1.027-0.061c0.277-0.126,0.442-0.534,0.76-0.627
	c0.381-0.11,0.37,0.464,0.739,0.276c0.316-0.16,0.46-0.526,0.776-0.679c0.126-0.061,0.416-0.189,0.532-0.101
	c0.121,0.091,0.117,0.541,0.311,0.295c0.132-0.166,0.012-0.438,0.05-0.63c0.051-0.262,0.279-0.425,0.523-0.496
	c0.528-0.155,1.178,0.188,1.342-0.52c-0.229-0.048-0.692-0.074-0.619-0.378c0.031-0.13,0.275-0.52,0.4-0.584
	c0.205-0.106,0.414,0.247,0.577,0.386c0.125,0.107,0.237,0.229,0.36,0.33c0.018-0.127-0.053-0.485,0.04-0.582
	c0.095-0.101,0.484-0.048,0.613-0.048c0.36,0,0.547,0.199,0.796,0.443c0.219,0.215,0.402,0.503,0.718,0.57
	c0.254,0.054,0.358-0.013,0.474,0.281c0.048,0.12-0.009,0.35,0.05,0.443c0.067,0.106,0.203,0.091,0.307,0.123
	c0.324,0.098,0.229,0.344,0.284,0.628c0.078,0.404,0.41,0.187,0.695,0.32c0.108,0.05,0.179,0.22,0.29,0.242
	c0.155,0.031,0.363-0.152,0.519-0.182c0.022,0.07,0.065,0.128,0.123,0.173c0.115-0.076,0.234-0.162,0.321-0.27
	c0.061-0.076,0.044-0.151,0.135-0.201c0.216-0.119,0.598,0.115,0.763-0.083c0.055-0.066,0.009-0.175,0.072-0.229
	c0.092-0.079,0.463,0.02,0.594-0.001c0.187-0.029,0.104,0.004,0.201-0.118c0.093-0.117,0.124-0.281,0.259-0.364
	c0.641-0.395,1.222,0.642,1.804,0.709c0.356,0.041,0.285-0.431,0.502-0.615c0.204-0.173,0.632-0.015,0.573-0.441
	c-0.082-0.595,0.62-0.034,0.788,0.001c0.218,0.045,0.504-0.118,0.704-0.183c0.189-0.062,0.325-0.062,0.526-0.073
	c0.763-0.042,0.856-0.844,1.042-1.452c0.04-0.129,0.09-0.329,0.059-0.465c-0.039-0.165-0.201-0.238-0.272-0.395
	c-0.134-0.295,0.088-0.845,0.217-1.127c0.106-0.231,0.286-0.221,0.412-0.39c0.101-0.137-0.025-0.338,0.058-0.475
	c0.108-0.178,0.3-0.072,0.469-0.059c0.303,0.024,0.275-0.053,0.438-0.274c0.11-0.148,0.184-0.142,0.347-0.181
	c0.119-0.028,0.174-0.096,0.285-0.132c0.281-0.091,0.514,0.281,0.797,0.066c0.257-0.196,0.067-0.468,0.509-0.447
	c0.326,0.015,0.476,0.284,0.71,0.486c-0.105,0.301-0.155,0.386,0.13,0.579c0.31-0.168,0.407-0.17,0.731,0.04
	c0.185,0.12,0.318,0.168,0.548,0.188c0.097,0.008,0.297-0.029,0.364,0.057c0.119,0.154,0,0.454,0.162,0.611
	c0.197,0.19,0.523-0.047,0.624-0.251c0.181,0.309,0.353,0.555,0.567,0.846c0.11,0.15,0.058,0.177,0.242,0.102
	c0.116-0.048,0.154-0.123,0.297-0.149c0.144-0.026,0.298,0.011,0.441-0.009c0.075,0.112,0.129,0.248,0.19,0.368
	c0.214-0.042,0.426-0.123,0.644-0.144c0.076-0.008,0.178,0.023,0.248-0.008c0.12-0.054,0.132-0.117,0.179-0.24
	c0.087-0.223,0.091-0.269,0.336-0.264c0.057,0.044,0.098,0.201,0.158,0.233c0.133,0.071,0.224-0.039,0.372-0.056
	c0.259-0.029,0.217,0.18,0.417,0.248c0.183,0.063,0.231-0.126,0.317-0.268c0.147-0.241,0.197-0.219,0.46-0.295
	c0.175-0.05,0.164-0.196,0.318-0.258c0.319-0.128,0.49,0.12,0.681,0.282c0.205,0.174,0.467,0.319,0.692,0.479
	c0.221,0.158,0.439,0.322,0.662,0.476c0.223,0.155,0.352,0.446,0.64,0.5c0.346,0.065,0.543-0.203,0.85-0.042
	c0.265,0.139,0.565,0.097,0.769,0.319c0.239,0.261,0.487,0.571,0.694,0.857c0.21,0.289,0.692,0.536,0.96,0.195
	c0.199-0.253,0.429-0.364,0.755-0.38c0.175-0.009,0.294-0.064,0.464-0.108c0.178-0.046,0.31,0,0.485,0.009
	c0.453,0.022,0.925-0.159,1.384-0.182c0.227-0.011,0.342-0.051,0.504,0.122c0.148,0.157,0.189,0.486,0.404,0.566
	c0.171,0.064,0.36-0.029,0.549,0.029c0.284,0.088,0.436,0.241,0.654,0.039c0.519-0.481,0.638-1.215,1.238-1.637
	c0.275-0.193,0.619-0.469,0.945-0.559c0.527-0.144,1.209-0.058,1.762-0.058l4.402,1.876
	C196.007,118.029,195.818,117.861,195.724,117.636z"/>
</svg>
