<?xml version="1.0" encoding="utf-8"?>
<!-- Generator: Adobe Illustrator 26.0.3, SVG Export Plug-In . SVG Version: 6.00 Build 0)  -->
<svg version="1.1" id="Isolation_Mode" xmlns="http://www.w3.org/2000/svg" xmlns:xlink="http://www.w3.org/1999/xlink" x="0px"
	 y="0px" viewBox="0 0 200 200" enable-background="new 0 0 200 200" xml:space="preserve">
<g>
	<path fill="#1E8346" d="M184.261,13.107c-0.158-0.67-0.15-1.321-0.009-2.002c-0.556,0.087-0.818-0.336-0.911-0.787
		c-0.119-0.583-0.64-0.989-0.751-1.579c-0.035-0.183,0-0.42-0.126-0.581c-0.148-0.189-0.473-0.33-0.682-0.449
		c-0.526-0.298-0.656-0.466-1.088-0.004c-0.225,0.241-0.185,0.213-0.234,0.607c-0.579-0.101-0.718,0.15-0.842,0.63
		c-0.423-0.026-0.936-0.863-1.393-0.661c-0.297,0.131-0.166,0.349-0.56,0.358c-0.333,0.009-0.834-0.154-1.09,0.061
		c-0.5,0.422-0.392,1.264-0.802,1.766c-0.108,0.132-0.275,0.347-0.444,0.406c-0.147,0.052-0.929,0.149-1.064,0.046
		c-0.149-0.114-0.188-0.528-0.271-0.7c-0.126-0.262-0.262-0.557-0.463-0.773c-0.267-0.287-0.666-0.296-1.056-0.309
		c-0.302-0.01-0.674-0.026-0.964,0.075c-0.327,0.115-0.58,0.303-0.943,0.377c-0.597,0.123-0.778,0.048-1.07-0.478
		c-0.063-0.113-0.177-0.603-0.303-0.641c-0.141-0.043-0.329,0.227-0.405,0.305c-0.441,0.456-0.889,0.886-1.428,1.2
		c-0.126-0.434-0.403-0.824-0.49-1.277c-0.048-0.248,0.025-0.675-0.151-0.862c-0.528,0.159-1.145-0.136-1.601-0.369
		c-0.547-0.28-0.44,0.151-0.946,0.29c-0.145-0.373-0.397-0.292-0.774-0.27c-0.26,0.016-0.511,0.04-0.774,0.025
		c-0.172-0.01-0.608,0.022-0.742-0.061c-0.12-0.075-0.079-0.32-0.173-0.397c-0.119-0.097-0.383,0.004-0.535-0.06
		c-0.165-0.07-0.315-0.292-0.446-0.404c-0.331-0.282-0.821-0.387-1.247-0.455c-0.444-0.071-0.922,0.175-1.306,0.368
		c-0.579,0.29-1.047,0.804-1.218,1.433c-0.071,0.259-0.024,0.894-0.327,0.976c-0.448,0.123-0.688-0.54-0.884-0.794
		c-0.602,0.037-0.932-0.047-1.349,0.404c-0.154,0.167-0.356,0.42-0.568,0.499c-0.386,0.145-1.03-0.016-1.462-0.002
		c-0.482,0.015-1.034-0.022-1.478,0.189c-0.466,0.222-0.78,1.074-1.3,1.085c-0.276,0.006-0.672-0.276-0.928-0.39
		c-0.316-0.14-0.713-0.371-1.035-0.448c-0.572-0.138-1.25,0.435-1.71,0.662c-0.318,0.156-0.731-0.032-1.053-0.231
		c-0.132-0.082-0.184-0.252-0.284-0.322c-0.196-0.139-0.498-0.133-0.729-0.14c-0.232-0.006-0.457,0.01-0.686,0.032
		c-0.438,0.042-0.887,0.099-1.318,0.193c-0.789,0.173-1.481,0.688-1.997,1.281c-0.146,0.169-0.231,1.121,0.05,1.005
		c0.148,0.25,0.065,0.937,0.067,1.246c0.002,0.35,0.012,0.443-0.145,0.73c-0.276,0.505-0.827,0.848-1.013,1.402
		c-0.249,0.743,0.43,2.24-0.636,2.24v1.621c-0.061,0.539,0.773,0.576,0.623,1.096c-0.097,0.34-0.431,0.674-0.601,0.985
		c-0.185,0.338-0.296,0.57-0.283,0.954c0.006,0.185,0.078,0.439,0.026,0.621c-0.032,0.113-0.185,0.157-0.176,0.298
		c0.014,0.205,0.511,0.48,0.59,0.71c0.185,0.538-0.177,1.199-0.266,1.727l-6.516,12.604c-0.134,0.014-0.3,0.123-0.369,0.239
		c-0.188,0.317-0.385,0.98-0.833,0.793c-0.293-0.122-0.369-0.39-0.683-0.447c-0.271-0.049-0.494-0.045-0.567,0.203
		c-0.143,0.483,0.033,1.136-0.026,1.643c-0.022,0.185-0.025,0.456-0.13,0.617c-0.041,0.063-0.191,0.14-0.214,0.197
		c-0.082,0.202,0.056,0.165,0.139,0.391c0.119,0.325-0.11,0.517-0.283,0.762c-0.215,0.305-0.36,0.63-0.291,1.014
		c0.079,0.436,0.504,0.708,0.658,1.121c0.115,0.309,0.008,0.648,0.305,0.843c0.311,0.203,0.46,0.091,0.563,0.544
		c0.091,0.399,0.099,0.853,0.141,1.259c0.072,0.698,0.511,1.595,0.328,2.297c-0.111,0.427-0.472,0.174-0.831,0.157
		c-0.463-0.022-0.428,0.043-0.501,0.435c-0.081,0.436-0.757,0.634-1.024,0.244c-0.162-0.237-0.507-0.855-0.509-1.155
		c-0.002-0.28,0.287-0.53,0.311-0.804c-0.301-0.227-0.779-0.249-1.14-0.336c-0.256-0.061-0.579-0.084-0.818-0.198
		c-0.171-0.082-0.141-0.179-0.245-0.266c-0.213-0.177-0.141-0.07-0.382-0.005c-0.119,0.032-0.321,0.074-0.442,0.006
		c-0.326-0.183-0.272-0.64-0.363-0.928c-0.46-0.051-1.096-0.195-1.422-0.534c-0.271-0.282-0.515-0.591-0.799-0.872
		c-0.156-0.155-0.343-0.275-0.487-0.444c-0.034-0.04-0.37-0.073-0.516-0.097c-0.387-0.064-0.765-0.158-1.156-0.196
		c-0.501-0.048-1.005-0.089-1.501-0.175c-0.356-0.063-0.697-0.236-1.041-0.28c-0.327-0.041-0.526,0.053-0.829-0.128
		c-0.214-0.128-0.377-0.416-0.657-0.442c-0.314-0.03-0.901,0.408-1.123,0.584c-0.439,0.348-1.024,0.757-1.613,0.737
		c-0.26-0.009-0.187-0.045-0.353-0.183c-0.179-0.15-0.163-0.135-0.375-0.197c-0.627-0.183-0.539-0.373-0.765-0.932
		c-0.111-0.274,0.039-0.167-0.176-0.295c-0.108-0.064-0.305-0.055-0.428-0.099c-0.231-0.083-0.229-0.003-0.297-0.286
		c-0.049-0.205,0.053-0.34-0.133-0.46c-0.224-0.144-0.666-0.062-0.921-0.013c-0.163,0.65-0.37,0.134-0.667-0.001
		c-0.198-0.089-0.219-0.063-0.347,0.11c-0.081,0.111-0.053,0.262-0.174,0.329c-0.048,0.026-0.151-0.024-0.205-0.003
		c-0.289,0.111-0.234-0.033-0.407,0.356c-0.133,0.299-0.205,0.35-0.595,0.273c-0.165-0.033-0.414-0.281-0.53-0.261
		c-0.233,0.039-0.23,0.393-0.352,0.541c-0.291-0.106-0.36-0.499-0.537-0.72c-0.186-0.231-0.549-0.519-0.801-0.661
		c-0.282,0.612-1.152,0.999-1.785,0.544c-0.317-0.228-0.253-0.404-0.057-0.652c0.077-0.097,0.367-0.323,0.29-0.489
		c-0.074-0.159-0.677-0.206-0.82-0.209c-0.068-0.24-0.09-0.513-0.07-0.762c-0.108,0.216-0.231,0.322-0.443,0.433
		c-0.378,0.199-0.544,0.265-0.837,0.569c-0.103-0.113-0.413-0.329-0.571-0.327c-0.135,0.002-0.203,0.167-0.378,0.143
		c-0.005-0.188-0.004-0.378,0.002-0.567c-0.153,0.111-0.436,0.157-0.659,0.169c0.057-0.32,0.031-0.755-0.353-0.804
		c-0.008,0.124-0.001,0.251-0.007,0.375c-0.261,0.005-0.442-0.285-0.662-0.394c-0.322-0.159-0.69-0.099-1.023-0.192
		c0.107-0.741-0.449-1.228-1.031-1.558c-0.493,0.326-0.574,0.706-1.193,0.811c-0.378,0.065-0.776,0.077-1.151,0.17
		c-0.395,0.098-0.428,0.324-0.701,0.589c-0.205-0.211-0.222-0.499-0.444-0.69c-0.255-0.22-0.66-0.529-0.975-0.604
		c-0.639-0.151-1.338,0.175-1.81,0.6c-0.037,0.014-0.048-0.003-0.033-0.052H68.596c-0.099,0.344-0.086,0.695-0.086,1.056v0.26
		c0,0.301,0.025,0.608-0.058,0.9c-0.068,0.239-0.246,0.435-0.434,0.594c-0.202,0.171-0.468,0.243-0.634,0.458
		c-0.089,0.115-0.37,0.388-0.292,0.535c-0.022,0.128-0.121,0.221-0.144,0.349c-0.01,0.056,0.004,0.115,0.001,0.172
		c-0.02,0.296-0.153,0.503-0.364,0.701c-0.3,0.281-1.004,0.544-0.914,1.032c0.029,0.161,0.023,0.297,0.141,0.401
		c0.207,0.18,0.665,0.176,0.645,0.526c-0.009,0.155-0.123,0.261-0.168,0.407c-0.058,0.184-0.008,0.369-0.048,0.553
		c-0.047,0.213-0.235,0.292-0.278,0.508c-0.052,0.262-0.074,0.468-0.294,0.636c-0.205,0.156-0.107,0.208-0.203,0.469
		c-0.068,0.184-0.248,0.307-0.343,0.477c-0.125,0.224-0.215,0.518-0.164,0.779c0.06,0.305,0.428,0.398,0.426,0.671
		c-0.004,0.514,0.073,0.968-0.433,1.27c0.237,0.402,0.405,0.841,0.66,1.233c0.036-0.133,0.148-0.23,0.197-0.342
		c0.155,0.366,0.423,0.986,0.751,1.225c0.339,0.246,0.333,0.038,0.484,0.486c0.088,0.259-0.05,0.67,0.074,0.9
		c0.055,0.102,0.184,0.108,0.241,0.208c0.046,0.081,0.186,0.014,0.236,0.099c0.062,0.104-0.038,0.436-0.052,0.541
		c-0.038,0.294-0.122,0.598-0.047,0.89c0.068,0.266,0.214,0.204,0.138,0.516c-0.181,0.741-0.897,0.714-1.47,0.746
		c-0.155,0.521-0.135,0.584-0.637,0.873c0.575,0.639,1.558,0.465,2.327,0.465c0.326,0,0.802,0.115,1.045-0.117
		c0.199-0.191,0.201-0.807,0.279-1.05c0.371,0.028,0.767,0.108,1.139,0.181c-0.041-0.193-0.048-0.391-0.022-0.587
		c0.736,0.047,1.349-0.039,2.011,0.234c0.63,0.259,1.093,0.557,1.459-0.167c0.186,0.033,0.371,0.139,0.512,0.251
		c0.038-0.285,0.55-0.826,0.779-0.998c0.326-0.245,0.503-0.18,0.976-0.132c0.166-0.46,0.109-0.507,0.609-0.521
		c0.562-0.016,0.676-0.008,1.118-0.318c0.49,0.411,0.43,0.456,1.159,0.446c0.113-0.378-0.062-0.665-0.041-1.031
		c0.195-0.099,0.48-0.061,0.633-0.222c0.114-0.12,0.069-0.605,0.187-0.799c0.698,0.057,1.456,0.069,2.125,0.257
		c0.434,0.122,0.895,0.239,1.345,0.267c0.521,0.032,0.391-0.099,0.797-0.386c0.184,0.239,0.479,0.357,0.675,0.608
		c0.287,0.369,0.134,0.473,0.666,0.517c0.32,0.026,0.477-0.085,0.732-0.155c0.461-0.127,1.296-0.271,1.77-0.147
		c0.428,0.111,0.67,0.722,1.066,0.989c0.414,0.279,0.992,0.349,1.367,0.722c0.597,0.594,0.237,1.652,0.537,2.374
		c0.395,0.948,1.295,1.599,1.786,2.481c0.406,0.729,0.75,1.787,0.892,2.597c0.559,0.632,1.381,0.899,0.954,1.861
		c-0.337,0.033-0.51,0.245-0.388,0.531c0.18,0.423,0.7,0.441,0.19,1.031c-0.066,0.076-0.235-0.04-0.324,0.07
		c-0.124,0.154-0.084,0.444-0.212,0.615c-0.209,0.28-0.493,0.35-0.831,0.313c0.078,1.035-0.514,0.801-1.045,1.344
		c-0.232,0.237-0.266,0.763-0.115,1.074c0.095,0.195,0.412,0.339,0.448,0.561c0.075,0.45-0.963,0.86-1.301,0.983
		c-0.297,0.108-0.508,0.019-0.7,0.188c-0.209,0.185-0.274,0.675-0.503,0.902c-0.459-0.623-0.518-0.283-1.014,0.057
		c-0.415-0.459-1.075-0.532-1.696-0.433c-0.681,0.109-1.788,0.986-1.348,1.653c0.282,0.427,0.426,0.634,0.118,1.174
		c-0.355,0.624-1.31,0.719-1.905,1.004c-1.14,0.547-0.925,1.774-1.651,2.656c-0.219,0.266-0.761,0.558-0.828,0.902
		c-0.067,0.339,0.229,0.754,0.38,1.04c0.306,0.582,0.279,0.794,0.13,1.372c-0.146,0.563,0.11,0.75,0.163,1.319
		c0.022,0.225,0.301,0.384,0.445,0.526c-0.078,0.12-0.133,0.245-0.218,0.364c-0.088,0.125-0.283,0.266-0.335,0.397
		c-0.082,0.208,0.227,0.588,0.389,0.666c-0.099,0.237-0.295,0.562-0.469,0.765c-0.204-0.044-0.338-0.23-0.527-0.162
		c-0.235,0.084-0.274,0.433-0.338,0.635c-0.117,0.369-0.317,0.839-0.733,0.947c-0.124,0.032-0.35-0.02-0.4,0.155
		c-0.046,0.164,0.244,0.469,0.338,0.585c0.18,0.223,0.404,0.404,0.557,0.65c0.138,0.223,0.258,0.459,0.426,0.66
		c0.161-0.148,0.608-0.784,0.862-0.675c0.078,0.033,0.115,0.195,0.197,0.255c0.127,0.093,0.312,0.105,0.46,0.133
		c0.327,0.063,0.454,0.143,0.684,0.381c0.173,0.179,0.302,0.232,0.551,0.303c0.326,0.092,0.693,0.248,0.916-0.033
		c0.096-0.12,0.25-0.402,0.438-0.39c0.177,0.011,0.326,0.36,0.428,0.475c0.271,0.306,0.352,0.102,0.627-0.09
		c0.088,0.108,0.182,0.136,0.236,0.258c0.062,0.141,0.04,0.259,0.138,0.387c0.152,0.197,0.323,0.329,0.422,0.562
		c0.069,0.162,0.09,0.31,0.118,0.481c0.116,0.716,0.117,1.417,0.43,2.092c0.395,0.098,0.822-0.01,1.22,0.064
		c0.253,0.047,0.426,0.321,0.657,0.444c0.247-0.247,0.649-0.673,1.063-0.505c0.123,0.05,0.168,0.19,0.249,0.279
		c0.143,0.157,0.353,0.27,0.532,0.375c0.105,0.061,0.295,0.218,0.404,0.251c0.227,0.069,0.534-0.017,0.768,0.003
		c0.262,0.023,0.5,0.116,0.552,0.386c0.05,0.257-0.131,0.546,0.163,0.612c0.305,0.069,0.267-0.021,0.465,0.249
		c0.089,0.122,0.195,0.223,0.292,0.337c0.33,0.385,0.823,0.924,0.95,1.415c0.062,0.24,0.11,0.641,0.051,0.888
		c-0.054,0.225-0.215,0.29-0.207,0.539c-0.23,0.286-0.387,0.582-0.568,0.899c-0.081,0.143-0.255,0.282-0.31,0.434
		c-0.055,0.151,0.01,0.278,0.012,0.443c0.006,0.356-0.193,0.373-0.316,0.653c-0.157,0.355,0.304,0.572,0.419,0.885
		c0.175,0.478-0.11,0.804-0.39,1.137c-0.182,0.216-0.311,0.464-0.505,0.669c-0.239,0.252-0.191,0.431-0.108,0.759
		c0.057,0.229,0.121,0.503,0.072,0.742c-0.039,0.192-0.141,0.376-0.192,0.559c-0.213,0.761,0.368,1.158,0.668,1.805
		c0.119,0.256,0.248,0.701,0.317,0.986c0.077,0.317-0.238,0.581-0.14,0.907c0.085,0.286,0.509,0.306,0.631,0.569
		c0.139,0.301-0.205,0.369-0.28,0.591c-0.084,0.25,0.167,0.372,0.3,0.544c0.175,0.227,0.09,0.309-0.019,0.53
		c-0.062,0.126-0.055,0.28-0.114,0.4c-0.099,0.204-0.569,0.354-0.43,0.63c-0.07,0.089-0.356,0.252-0.371,0.348
		c-0.028,0.177,0.328,0.375,0.453,0.449c0.291,0.174,0.932,0.264,1.023,0.611c0.052,0.199,0.023,0.661-0.073,0.838
		c-0.092,0.17-0.323,0.233-0.423,0.403c-0.222,0.378,0.302,1.334-0.438,1.299c-0.123,0.315,0.163,0.518,0.242,0.802
		c0.056,0.201-0.043,0.484-0.265,0.499c-0.218,0.016-0.305-0.264-0.49-0.219c-0.203,0.049-0.335,0.583-0.445,0.745
		c-0.164,0.243-0.295,0.335-0.564,0.362c-0.256,0.026-0.293,0.082-0.211,0.302c0.064,0.171,0.14,0.251,0.285,0.348
		c0.222,0.15,0.099,0.224,0.236,0.434c0.32,0.492,1.133,0.288,1.217,0.921c-0.379,0.183-0.792,0.371-0.975,0.787
		c-0.08,0.182-0.106,0.431-0.049,0.625c0.056,0.189,0.24,0.331,0.28,0.523c0.078,0.371-0.234,0.771-0.387,1.086
		c-0.213,0.44-0.064,0.484-0.004,0.906c0.082,0.578-0.711,0.641-1.108,0.831c-0.257,0.123-0.516,0.38-0.801,0.441
		c-0.136,0.029-0.451-0.077-0.571-0.001c-0.212,0.133-0.012,0.503-0.279,0.66c-0.215,0.126-0.651,0.084-0.894,0.128
		c-0.017,0.064-0.056,0.123-0.053,0.188c-0.139,0.249-0.152,0.521-0.017,0.763c0.123,0.222,0.43,0.414,0.455,0.671
		c0.019,0.193-0.185,0.369-0.243,0.54c-0.048,0.142-0.045,0.254-0.022,0.404c0.039,0.26,0.074,0.485-0.044,0.759
		c-0.215-0.034-0.797-0.072-0.932,0.135c-0.055,0.085-0.001,0.505,0.019,0.587c0.041,0.171,0.202,0.3,0.175,0.48
		c-0.034,0.223-0.227,0.27-0.409,0.328c-0.198,0.064-0.394,0.147-0.594,0.205c-0.184,0.054-0.459,0.049-0.624,0.153
		c-0.436,0.277,0.271,0.453,0.502,0.533c0.376,0.129,0.224,0.123,0.309,0.463c0.185,0.737,1.104,0.981,1.387,1.637
		c-0.085,0.021-0.107,0.087-0.172,0.128c-0.141,0.089-0.298,0.137-0.443,0.218c-0.246,0.137-0.447,0.321-0.712,0.433
		c-0.335,0.141-0.891,0.131-0.995,0.517c-0.117,0.437-0.009,1.168-0.433,1.491c-0.144,0.11-0.369,0.053-0.481,0.203
		c-0.075,0.1-0.128,0.38-0.168,0.504c-0.341-0.196-0.879-0.737-1.305-0.589c-0.186,0.065-0.526,0.604-0.717,0.283
		c-0.198-0.088-0.224-0.181-0.373-0.329c-0.312-0.31-0.713-0.155-1.052,0.038c-0.285,0.162-0.36,0.443-0.681,0.344
		c-0.208-0.064-0.476-0.162-0.593-0.341c-0.219-0.334-0.103-0.937-0.13-1.307c-0.029-0.391,0.125-0.322,0.444-0.51
		c0.1-0.058,0.08-0.034,0.166-0.141c0.107-0.134,0.077-0.413,0.187-0.512c0.14-0.126,0.434-0.001,0.621-0.064
		c0.048-0.5-0.769-0.565-1.084-0.847c-0.304-0.272-0.155-0.71-0.239-1.059c-0.391-0.115-0.811-0.089-0.968-0.535
		c-0.073-0.208-0.038-0.43-0.077-0.641c-0.057-0.313-0.194-0.651-0.282-0.963c-0.083-0.296-0.262-0.472-0.423-0.713
		c-0.242-0.362-0.346-0.867-0.682-1.164c-0.199,0.431-0.484,0.798-0.712,1.214c-0.206,0.376-0.087,0.621-0.151,1.025
		c-0.072,0.457-0.625,0.882-0.899,1.253c-0.364,0.493-0.902,0.855-1.197,1.391c-0.172,0.313-0.35,0.833-0.79,0.496
		c-0.46,0.382-0.993,0.806-1.35,1.289c-0.237,0.321-0.463,0.614-0.85,0.769c-0.289,0.116-0.699-0.155-1.02-0.219
		c-0.172,0.107-0.563,0.16-0.788,0.194c-0.212,0.031-0.568,0.065-0.765-0.036c-0.282-0.144-0.413-0.538-0.683-0.681
		c-0.257-0.136-0.759-0.112-1.049-0.148c-0.154-0.018-0.306-0.039-0.459-0.062c-0.329-0.05-0.559-0.122-0.831-0.296
		c-0.148-0.095-0.305-0.25-0.465-0.309c-0.147-0.054-0.346-0.015-0.487,0.043c-0.181,0.075-0.219,0.221-0.373,0.304
		c-0.284,0.151-0.816,0.034-1.078-0.093c-0.391-0.189-0.75-0.332-1.108-0.58c-0.189-0.131-0.536-0.438-0.755-0.364
		c-0.089,0.03-0.347,0.292-0.425,0.362c-0.11,0.098-0.217,0.25-0.249,0.392c0.03-0.192,0.06-0.389,0.154-0.568
		c0.094-0.18,0.215-0.298,0.242-0.503c0.017-0.131-0.006-0.274,0.002-0.406c0.406,0.04,0.475-0.241,0.17-0.444
		c-0.18-0.12-0.384-0.071-0.488-0.258c-0.098-0.177-0.024-0.423-0.124-0.599c-0.117-0.205-0.388-0.215-0.559-0.354
		c-0.131-0.107-0.138-0.189-0.184-0.341c-0.171-0.568-0.442-0.165-0.631,0.154c-0.199-0.119-0.402-0.497-0.576-0.677
		c-0.145-0.15-0.314-0.413-0.28-0.626c0.027-0.171,0.21-0.298,0.292-0.447c0.174-0.316,0.027-0.314-0.123-0.611
		c-0.15-0.296-0.078-0.471-0.421-0.575c-0.23-0.069-0.206-0.012-0.249-0.229c-0.019-0.096,0.009-0.207,0.003-0.305
		c-0.018-0.305-0.107-0.621-0.325-0.836c-0.211-0.208-0.468-0.263-0.395-0.57c0.07-0.296,0.204-0.485-0.06-0.739
		c-0.12-0.115-0.285-0.129-0.439-0.197c0.009-0.289,0.079-0.865-0.424-0.742c-0.067,0.016-0.113,0.133-0.177,0.137
		c-0.185,0.011-0.447-0.359-0.607-0.428c-0.361,0.595-0.775-0.662-1.106-0.841c-0.196-0.106-0.407,0.039-0.604-0.032
		c-0.172-0.063-0.276-0.253-0.401-0.374c-0.139-0.135-0.315-0.249-0.486-0.339c-0.09,0.112-0.156,0.249-0.268,0.343
		c-0.191-0.189-0.524-0.662-0.791-0.44c-0.141,0.118-0.11,0.377-0.285,0.455c-0.117,0.052-0.291-0.033-0.383-0.089
		c-0.085,0.195-0.125,0.415-0.223,0.604c-0.176-0.027-0.591-0.034-0.663,0.142c-0.148,0.364,0.412,0.624,0.207,1.024
		c-0.198,0.386-0.638,0.293-0.88,0.046c-0.333-0.34-0.708-0.613-1.065-0.922c0.001,0.646,0.374,1.169,0.328,1.828
		c-0.038,0.559-0.218,1.087-0.217,1.654c0,0.165-0.034,0.39,0.024,0.546c0.071,0.188,0.293,0.434,0.425,0.59
		c0.283,0.337,0.61,0.688,0.765,1.111c-0.351,0.161-0.549,0.244-0.722,0.592c0.148,0.173,0.299,0.354,0.429,0.544
		c-0.24,0.211-0.092,0.39,0.05,0.556c0.12,0.14,0.123,0.056,0.105,0.262c-0.012,0.14-0.045,0.284-0.21,0.238
		c0.003,0.242,0.066,0.581-0.1,0.779c-0.105,0.126-0.327,0.179-0.42,0.303c-0.135,0.178-0.088,0.357,0.051,0.524
		c0.162,0.195,0.42,0.153,0.602,0.322c0.368,0.343,0.084,0.649,0.021,1.018c-0.067,0.393,0.206,0.574,0.282,0.913h-9.979
		c-0.029-0.051-0.074-0.085-0.108-0.152c-0.148-0.292-0.4-0.469-0.67-0.643c-0.315-0.203-0.558-0.569-0.871-0.748
		c-0.385-0.22-0.79,0.575-1.047,0.797c-0.211-0.097-0.596-0.222-0.76-0.03c-0.124,0.146-0.082,0.56-0.132,0.747
		c-0.031,0.117-0.063,0.231-0.118,0.338c-0.21-0.009-0.406-0.024-0.616-0.011c-0.196,0.012-0.417-0.025-0.553,0.102
		c-0.126,0.117-0.187,0.416-0.25,0.581c-0.258,0.002-0.78-0.155-0.954,0.076c-0.147,0.196-0.084,0.553-0.152,0.782
		c-0.143,0.482-0.466,0.89-0.657,1.354c-0.107-0.162-0.161-0.349-0.235-0.528c-0.115-0.275-0.125-0.618-0.258-0.876
		c-0.131-0.254-0.325-0.135-0.559-0.289c-0.145-0.095-0.17-0.243-0.236-0.38c-0.175-0.36-0.313-0.27-0.718-0.297
		c0.169-0.008,0.328-0.162,0.427-0.286c-0.491-0.141-0.502-0.116-0.468-0.555c-0.069,0.092-0.336,0.04-0.434-0.031
		c-0.144-0.106-0.147-0.236-0.191-0.41c-0.199-0.022-0.409-0.037-0.596-0.112c0.04-0.199,0.095-0.399,0.138-0.603
		c-0.343,0.325-1.232,0.113-1.488,0.57c0.987,0.566,0.543,2.003,0.55,2.912c0.004,0.459,0.081,0.695,0.368,1.046
		c0.323,0.396,0.607,0.65,0.782,1.135c0.056,0.156,0.244,0.238,0.295,0.394c0.048,0.148-0.035,0.38-0.083,0.522
		c-0.118,0.352-0.431,0.561-0.553,0.885c-0.107,0.281-0.01,0.589-0.065,0.881c-0.061,0.324-0.287,0.596-0.426,0.892
		c-0.136,0.29-0.31,0.583-0.437,0.871c-0.112,0.257-0.032,0.322,0.126,0.514c0.199,0.241,0.153,0.611,0.578,0.552
		c0.437-0.061,0.407-0.414,0.484-0.762c0.406,0.305,0.809,0.643,1.121,1.042c0.376,0.481,0.463,0.85,0.543,1.455
		c0.048,0.358,0.062,0.723,0.385,0.933c0.332,0.216,0.822,0.234,1.206,0.329c0.413,0.102,1.252,0.468,1.01,1.057
		c-0.081,0.197-0.338,0.368-0.46,0.56c-0.115,0.182-0.293,0.302-0.464,0.476c-0.146,0.149-0.351,0.422-0.583,0.267
		c-0.148-0.099-0.173-0.335-0.337-0.441c-0.337,0.114-0.647,0.54-0.801,0.847c-0.08,0.158-0.09,0.203,0.02,0.32
		c0.076,0.08,0.247,0.117,0.341,0.189c0.1,0.076,0.18,0.173,0.268,0.263c0.303,0.308,0.441,0.463,0.875,0.589
		c0.253,0.073,0.478,0.085,0.655,0.291c0.116,0.135,0.11,0.261,0.183,0.408c0.114,0.229,0.404,0.367,0.609,0.5
		c0.326,0.213,0.554,0.312,0.932,0.344c0.553,0.047,1.386,0.217,1.864,0.556c0.311,0.22,0.4,0.867,0.109,1.102
		c-0.162,0.466-0.052,0.386,0.173,0.796c0.242,0.44-0.004,0.875-0.161,1.306c-0.607-0.169-1.087,0.548-1.152,1.055
		c-0.052,0.398,0,0.826-0.139,1.205c-0.146,0.398-0.479,0.166-0.749,0.393c-0.254,0.213-0.076,0.668,0.103,0.868
		c0.223,0.248,0.839,0.528,0.847,0.868c0.015,0.645-0.901,0.331-1.271,0.369c-0.051,0.469,0.213,1.329-0.535,0.851
		c-0.152-0.097-0.44-0.371-0.619-0.293c-0.137,0.06-0.217,0.368-0.302,0.491c-0.2,0.29-0.308,0.219-0.599,0.118
		c-0.244-0.084-0.495-0.153-0.757-0.113c-0.374,0.056-0.581,0.488-0.938,0.57c-0.372-0.674-0.386-1.383-0.15-2.095
		c0.048-0.143,0.127-0.34,0.039-0.474c-0.045-0.069-0.212-0.14-0.284-0.187c-0.26-0.169-0.498-0.362-0.75-0.543
		c-0.461-0.331-0.88-0.711-1.336-1.05c-0.238-0.177-0.481-0.368-0.722-0.529c-0.115-0.076-0.265-0.243-0.381-0.292
		c-0.165-0.071-0.249,0.051-0.447,0.092c-0.157,0.033-0.338-0.007-0.485,0.046c0.21,0.415,0.295,0.802-0.167,1.012
		c-0.439,0.199-0.536,0.377-0.607,0.872c-0.208,0.001-0.53,0.007-0.697,0.154c-0.184,0.162-0.215,0.541-0.312,0.754
		c-0.276,0.602-0.494,0.035-0.967,0.07c-0.512,0.037-1.216,0.409-1.318,0.924c-0.047,0.237-0.16,0.392-0.244,0.615
		c-0.117,0.311-0.024,0.74-0.045,1.057c-0.115,0.054-0.217,0.18-0.324,0.268c-0.055,0.045-0.26,0.137-0.284,0.191
		c-0.062,0.141,0.122,0.441,0.16,0.571c0.155,0.518-0.107,0.669-0.424,1.076c-0.305,0.392-0.62,0.812-0.877,1.235
		c-0.144,0.237-0.528,0.747-0.186,1.018c0.219,0.173,0.416,0.393,0.63,0.579c0.289,0.251,0.616,0.416,0.917,0.647
		c0.774,0.59,1.473,1.264,2.22,1.899c0.303,0.257,0.757,0.497,0.941,0.867c0.175,0.352,0.033,0.763,0.206,1.12
		c0.31,0.639,0.955,1.289,1.465,1.761c1.02,0.944,2.118,1.8,3.201,2.675c0.594,0.479,1.102,1.031,1.742,1.465
		c0.582,0.395,1.195,0.717,1.712,1.198c0.638,0.592,1.119,1.215,1.34,2.079c0.136,0.532-0.35,0.866-0.583,1.328
		c-0.287,0.57,0.537,1.006,0.922,1.326c0.546,0.454,0.132,0.55-0.056,1.001c-0.12,0.287,0.046,0.579,0.234,0.8
		c0.454,0.53,1.039,0.958,1.486,1.506c0.195,0.239,0.327,0.522,0.483,0.784c0.203,0.342,0.484,0.63,0.737,0.935
		c0.282,0.34,0.621,0.666,0.789,1.07c0.43-0.121,0.829-0.479,1.186-0.731c0.554-0.389,1.001-0.91,1.568-1.295
		c0.515-0.349,0.851-0.532,0.974-1.19c0.103-0.551,0.137-1.221,0.418-1.717c0.139,0.064,0.227,0.204,0.334,0.311
		c0.09-0.09,0.177-0.183,0.259-0.281c0.219-0.002,0.223,0.28,0.254,0.443c0.306-0.27,0.641-0.245,1.043-0.289
		c0.52-0.057,0.884-0.245,1.219-0.657c0.838-1.033,1.465-2.336,1.216-3.681c0.229-0.034,0.458-0.006,0.679-0.017
		c0.05-0.003,0.111,0.052,0.161,0.046c0.215-0.025,0.315-0.259,0.441-0.431c0.28,0.199,0.386,0.423,0.703,0.568
		c0.311,0.143,0.725,0.288,1.07,0.169c0.558-0.193,0.294-0.896,0.657-1.105c0.212-0.122,0.683-0.007,0.933-0.019
		c0.325-0.016,0.473-0.034,0.701-0.292c0.294-0.334,0.586-0.727,0.858-1.08c0.122-0.158,0.191-0.349,0.347-0.48
		c0.568-0.041,0.513,0.208,0.89,0.5c0.204,0.158,0.799,0.407,0.989,0.066c0.215-0.388-0.305-0.894-0.516-1.147
		c-0.272-0.325-0.546-0.72-0.687-1.125c0.189,0.061,0.344,0.151,0.501,0.266c0.097-0.16,0.154-0.358,0.237-0.532
		c0.404,0.343,0.732,0.868,1.15,1.18c0.426,0.317,0.417-0.145,0.581-0.43c0.49,0.511,1.037,0.968,1.523,1.483
		c0.264,0.28,0.497,0.591,0.739,0.885c0.253,0.306,0.601,0.562,0.833,0.874c-0.177-0.022-0.29,0.057-0.43,0.152
		c0.247,0.183,0.453,0.413,0.713,0.586c0.341,0.226,0.747,0.411,1.068,0.655c0.368,0.28,0.62,0.917,1.058,1.069v-2.09
		c0.154,0,0.514-0.064,0.672,0.002c0.225,0.093,0.37,0.406,0.5,0.604c0.319,0.485,0.601,1.009,0.952,1.469
		c0.494,0.646,1.195,1.187,1.885,1.609c0.636,0.389,1.296,0.586,1.978,0.837v1.507c0.197,0,0.456,0.51,0.607,0.669
		c0.165,0.175,0.333,0.315,0.541,0.432c0.463-0.241,0.032-1.038-0.173-1.326c0.307-0.118,0.879,0.168,1.102-0.021
		c0.166-0.141,0.055-0.653,0.066-0.848c0.709-0.115,0.497-1.145,0.872-1.528c0.258,0.254,0.599,0.416,0.856,0.662
		c0.149,0.142,0.242,0.318,0.427,0.438c0.372,0.24,0.525-0.142,0.818-0.385c0.157-0.131,0.486-0.266,0.52-0.489
		c0.027-0.17-0.135-0.299-0.197-0.442c0.136-0.113,0.546-0.14,0.684-0.045c0.174,0.119,0.26,0.671,0.556,0.661
		c0.206-0.007,0.35-0.325,0.351-0.495c0.001-0.282-0.276-0.507-0.392-0.756c0.271-0.088,0.614-0.019,0.907-0.031
		c0.339-0.392-0.175-0.777-0.386-1.064c-0.349-0.473,0.106-0.252,0.236-0.649c0.057-0.173-0.133-0.327-0.084-0.491
		c0.049-0.164,0.267-0.179,0.357-0.294c0.21-0.267,0.316-1.421,0.194-1.746c-0.084-0.224-0.259-0.272-0.28-0.546
		c-0.028-0.361,0.097-0.758,0.4-0.962c0.429-0.29,1.058-0.546,1.555-0.365c0.177,0.065,0.475,0.149,0.567,0.314
		c0.143,0.256,0.058,0.606,0.246,0.873c0.368,0.524,1.103,0.533,1.625,0.796c0.286,0.144,0.758-0.05,1.04-0.159
		c0.251-0.096,0.296-0.408,0.438-0.665c0.302-0.547,0.623-0.965,1.184-1.289c0.604-0.348,1.372-0.224,2.036-0.381
		c0.688-0.162,1.26-0.392,1.843-0.745c0.328-0.199,0.583-0.367,0.825-0.662c0.238-0.291,0.489-0.453,0.878-0.437h0.926
		c0.022-0.199,0.069-0.36,0.265-0.482c0.139-0.087,0.312-0.095,0.455-0.165c0.12-0.059,0.228-0.162,0.354-0.202
		c0.097,0.353-0.045,0.762-0.033,1.134c0.01,0.311,0.073,0.519,0.227,0.786c0.187,0.323,0.401,0.634,0.701,0.863
		c0.2,0.153,0.542,0.23,0.707,0.4c0.309,0.32-0.579,1.434-0.81,1.73c-0.245,0.314-0.539,0.454-0.887,0.631
		c-0.231,0.118-0.763,0.263-0.885,0.461c-0.201,0.327,0.285,1.086,0.436,1.373c0.229,0.436,0.384,0.687,0.92,0.695
		c-0.003,0.475,0.009,0.935-0.079,1.403c-0.101,0.545-0.277,1.077-0.273,1.634c0.004,0.429-0.099,0.896-0.015,1.31
		c0.075,0.37,0.27,0.693,0.381,1.049c0.265-0.189,0.525-0.378,0.727-0.637c0.117-0.15,0.197-0.403,0.382-0.471
		c0.554,0.154,0.943,0.429,1.534,0.492c0.711,0.075,0.79,0.856,1.488,0.985c0.468,0.087,1.181,0.219,1.604,0.049
		c0.598-0.241,1.074-0.715,1.607-1.056c0.577-0.368,1.227-0.492,1.634-1.081c0.541-0.783,0.854-1.677,1.345-2.485
		c0.58-0.956,1.383-1.635,2.118-2.456c0.403-0.451,0.823-0.87,1.265-1.284c0.457-0.428,0.86-0.884,1.311-1.32
		c0.414-0.4,0.81-0.822,1.131-1.297c0.097-0.144,0.305-0.379,0.348-0.549c0.041-0.163-0.027-0.201-0.025-0.363
		c0.009-0.617,0.721-0.915,1.181-1.172c0.476-0.267,0.937-0.643,1.365-0.957c0.552-0.406,0.141-1.297,0.441-1.823
		c0.196-0.343,0.495-0.375,0.777-0.595c0.224-0.175,0.384-0.449,0.61-0.611c0.384-0.277,0.86-0.239,1.322-0.239
		c0.262,0,0.881,0.074,1.102-0.086c0.163-0.119,0.268-0.73,0.398-0.94c0.362-0.585,0.926-0.88,1.524-1.178
		c1.042-0.517,2.377-0.361,3.509-0.578c0.404-0.077,0.805-0.224,1.204-0.326c0.495-0.126,1.059-0.187,1.522-0.391
		c0.165-0.073,0.357-0.188,0.521-0.26l2.546-5.149l4.281-8.099c-0.22-0.295,0.171-0.593,0.202-0.891
		c0.056-0.534-0.423-0.638-0.651-1.018c-0.199-0.333-0.159-0.876-0.159-1.274c0-0.777-0.006-1.556,0.027-2.329
		c0.037-0.851,0.084-1.737,0.002-2.587c-0.054-0.565-0.214-1.518-0.173-2.088c0.041-0.584,0.26-1.141,0.289-1.736
		c0.034-0.68,0.168-1.379,0.231-2.062c0.031-0.339,0.144-0.665,0.29-0.969c0.123-0.256,0.45-0.634,0.408-0.935
		c-0.037-0.262-0.464-0.554-0.597-0.807c-0.184-0.349-0.371-0.721-0.505-1.093c-0.087-0.24-0.294-0.683-0.377-0.916
		c-0.12-0.336-0.259-0.679-0.324-1.034c-0.131-0.709-0.109-1.457-0.109-2.196c0-0.614,0.026-1.229-0.086-1.835
		c-0.032-0.173-0.144-0.401-0.097-0.577c0.062-0.231,0.345-0.418,0.473-0.623c0.623-0.995,1.634-1.702,2.459-2.537
		c0.397-0.402,0.887-0.704,1.271-1.111c0.515-0.545,0.635-1.374,1.099-1.954c0.204-0.254,0.229-0.405,0.419-0.647
		c0.129-0.165,0.216-0.367,0.344-0.537c0.344-0.456,0.756-0.797,1.246-1.075c0.582-0.331,1.065-0.783,1.397-1.371
		c0.197-0.348,0.204-0.672,0.339-1.047c0.185-0.515,0.648-0.899,0.966-1.334c0.392-0.537,0.899-1.158,1.113-1.787
		c0.114-0.337,0.119-0.713,0.243-1.05c0.071-0.196,0.211-0.369,0.238-0.58c0.052-0.402,0.15-1.173,0.249-1.556
		c0.161-0.621,0.479-1.132,0.881-1.626c0.337-0.415,0.809-0.722,1.099-1.172c0.361-0.56,0.45-1.369,1.1-1.677
		c0.683-0.325,1.328-0.644,1.852-1.224c0.601-0.665,1.262-1.36,1.924-1.956c0.614-0.552,1.277-0.589,2.061-0.622
		c0.428-0.018,0.879-0.003,1.3-0.082c0.376-0.07,0.626-0.282,0.956-0.496c0.364-0.235,0.633-0.531,1.046-0.689
		c0.295-0.112,0.591-0.219,0.861-0.383c0.337-0.204,0.615-0.52,0.911-0.776c0.384-0.332,0.82-0.54,1.205-0.845
		c0.423-0.335,0.709-1.025,0.862-1.493c0.138-0.422,0.249-0.855,0.446-1.254c0.203-0.411,0.627-0.68,1.034-0.868
		c0.423-0.196,0.887-0.394,1.259-0.677c0.28-0.213,0.445-0.338,0.791-0.43c0.196-0.052,0.376-0.108,0.554-0.21
		c0.536-0.309,0.59-0.806,0.81-1.322c0.152-0.355,0.415-0.655,0.586-1.002c0.198-0.399,0.378-0.802,0.536-1.22
		c0.325-0.861,0.204-1.827,0.244-2.734c0.033-0.729-0.18-1.249-0.585-1.836c-0.57-0.201-0.73-1.05-0.667-1.57
		c0.099-0.808,0.591-1.249,0.985-1.922c0.575-0.982,0.826-2.059,1.158-3.135c0.196-0.638,0.472-1.27,0.606-1.921
		c0.139-0.679,0.293-1.287,0.572-1.927c0.326-0.747,0.502-1.384,1.102-1.972c0.596-0.584,1.23-1.113,1.827-1.696
		c0.229-0.223,0.343-0.478,0.376-0.78c0.025-0.23,0-0.476,0-0.708c0-0.261,0.015-0.517-0.051-0.77
		c-0.051-0.198-0.185-0.355-0.239-0.548c-0.181-0.656-0.567-1.108-0.976-1.64c-0.435-0.566-0.383-1.409-0.383-2.089
		c0-0.72,0.115-1.424,0.115-2.142c0.001-0.471,0.151-0.984,0.087-1.449c-0.177-1.283-1.602-2.552-1.131-3.89
		c0.237-0.673,0.806-1.29,1.195-1.885c0.454-0.694,1.109-1.477,1.123-2.351c0.003-0.242,0.017-0.718,0.029-0.983
		c0.017-0.382,0.134-0.703,0.246-1.071c0.171-0.566,0.309-1.143,0.54-1.686c0.296-0.696,0.71-1.337,1.036-2.016
		c0.28-0.584,0.637-1.129,0.891-1.727c0.253-0.598,0.311-1.162,0.296-1.804c-0.02-0.86-0.612-2.048-0.145-2.89
		c-0.164-0.435-0.274-0.872-0.261-1.347c0.021-0.746,0.375-1.313,0.624-1.985c0.208-0.56,0.143-1.326,0.073-1.91
		c-0.084-0.708-0.175-1.381-0.176-2.096c0-1.518,0.128-2.838,0.858-4.18c0.294-0.54,0.753-0.956,1.165-1.404
		c0.224-0.243,0.65-0.602,0.783-0.905c0.177-0.402,0.168-0.825,0.311-1.233c0.154-0.44,0.398-0.87,0.457-1.336
		c0.043-0.341,0.012-0.634,0.277-0.902c0.327-0.329,0.816-0.405,1.212-0.599c0.613-0.301,0.993-1.022,1.236-1.638
		c0.305-0.776,0.565-1.574,0.891-2.342c0.295-0.693,0.646-1.356,0.765-2.103c0.057-0.359-0.041-0.765,0.089-1.11
		c0.212-0.56,0.587-1.009,0.988-1.443c0.471-0.51,0.65-1.252,1.063-1.815c0.573-0.783,1.478-1.137,1.805-2.152
		c0.137-0.427,0.277-0.757,0.277-1.207c0-0.543,0-1.085,0-1.628C184.425,14.388,184.413,13.754,184.261,13.107z"/>
	<path fill="#1E8346" d="M114.737,176.78c-0.607,0.274-0.916,0.556-1.242,1.142c-0.112,0.201-0.193,0.448-0.352,0.598
		c-0.226,0.214-0.666,0.271-0.595,0.667c0.531,0.222,0.961,0.449,1.475,0.463c0.436,0.012,0.909-0.185,1.203-0.518
		c0.334-0.38,0.398-0.845,0.51-1.312c0.073-0.305,0.334-0.667,0.255-0.99C115.864,176.311,115.07,176.63,114.737,176.78z"/>
</g>
</svg>
