<?xml version="1.0" encoding="utf-8"?>
<!-- Generator: Adobe Illustrator 26.0.3, SVG Export Plug-In . SVG Version: 6.00 Build 0)  -->
<svg version="1.1" xmlns="http://www.w3.org/2000/svg" xmlns:xlink="http://www.w3.org/1999/xlink" x="0px" y="0px"
	 viewBox="0 0 200 200" enable-background="new 0 0 200 200" xml:space="preserve">
<g id="Layer_1">
	<g id="Layer_1_00000075879624959596184900000007102216081240906125_">
		<g id="Layer_1_00000107551159852787612550000017757744099325915571_">
			<g id="Layer_1_00000128480095285341338950000008464522443776971395_">
			</g>
		</g>
	</g>
</g>
<g id="Isolation_Mode">
	<g>
		<path fill="#1E8346" d="M188.944,77.616l-2.161-12.632c-0.23-0.033-1.195,0.052-1.278-0.19c-0.099-0.291,0.698-0.779,0.892-0.953
			c-0.219-0.393-0.574-0.91-0.671-1.354c-0.072-0.325,0.016-0.724,0.046-1.046c0.045-0.484,0.107-0.43-0.225-0.646
			c-0.527-0.342-0.782-0.369-0.974-1.019c-0.168-0.569-0.116-1.192-0.288-1.757c-0.715-0.641-2.113-0.209-2.963-0.762
			c-0.362-0.236-0.386-0.248-0.207-0.68c0.155-0.373,0.264-0.536,0.241-0.983c-0.014-0.274-0.285-0.902-0.19-1.126
			c0.116-0.273,0.939-0.288,1.2-0.535c0.542-0.512,0.176-1.266,0.766-1.727c0.481-0.376,1.086-0.659,1.521-1.079
			c-0.483-0.728-1.503-1.04-1.903-1.803c0.502-0.411,1.248-1.196,1.248-1.871c0-0.588,0.02-1.18,0-1.767
			c-0.017-0.483,0.07-1.226-0.096-1.653c-0.458,0.568-0.937,1.298-1.474,1.81c-0.542,0.516-0.848,0.455-1.477,0.152
			c-0.313-0.151-0.428-0.558-0.746-0.558l-3.794-3.842l-1.825-4.947c-0.314,0.156-0.638,0.233-0.974,0.336
			c-0.453,0.139-0.499,0.207-0.839-0.048c-0.341-0.256-0.685-0.662-0.865-1.053c-0.22-0.479-0.304-1.034-0.433-1.541
			c-0.141-0.554-0.523-0.678-0.836-1.097c-0.47,0.087-1.089,0.431-1.577,0.425c-0.301-0.778,0.047-1.948-0.008-2.794
			c-0.358,0.396-0.818,0.718-1.193,1.112c-0.38,0.4-0.615,1.019-1.018,1.372c-0.372,0.326-1.049,0.037-1.388-0.348
			c-0.433-0.492,0.044-0.965-0.067-1.487c-0.384,0.198-0.839,0.371-1.267,0.277c-0.45-0.099-0.814-0.585-1.213-0.699
			c-0.496-0.141-0.229,0.182-0.663,0.345c-0.237,0.089-0.663-0.088-0.865-0.206c-0.21-0.123-0.336-0.337-0.579-0.409
			c-0.443-0.133-1.124,0.097-1.588,0.101c-0.585,0.004-1.644,0.207-2.179,0.003c-0.327-0.125-0.436-0.472-0.518-0.829
			c-0.386,0.276-0.756,0.634-1.159,0.888c-0.434,0.273-0.79,0.225-1.329,0.225c-0.563,0-1.548-0.197-2.054,0
			c-0.316,0.123-0.448,0.485-0.828,0.616c-0.894,0.308-2.098-0.178-2.956,0.205c-0.394,0.176-0.542,0.544-0.993,0.621
			c-0.365,0.061-0.775-0.009-1.144,0.005c0.113,0.344,0.061,0.784,0.047,1.142c-0.441,0.017-1.205-0.145-1.564,0.062
			c-0.323,0.185-0.429,0.839-0.814,0.906c-0.546,0.096-1.84-0.997-2.339-1.237c-0.468,0.733-1.113,1.968-1.986,2.294
			c-0.365,0.137-2.645-0.232-2.316,0.839c1.364,0.061-0.023,0.876-0.203,1.451c-0.14,0.446,0.041,1.036-0.04,1.503
			c-0.053,0.304-0.436,1.067-0.726,1.202c-0.518,0.241-0.871-0.61-1.376-0.57c-0.549,0.044-0.361,0.759-0.689,0.811
			c-0.58,0.092-1.297-1.777-1.48-2.178c-0.787,0.029-1.44,0.352-2.18,0.54c-0.425-0.465-0.737-1.713-0.422-2.246
			c0.187-0.316,0.561-0.482,0.244-0.801c-0.166-0.167-0.687-0.19-0.878-0.08c-0.605,0.35,0.135,1.573-0.965,1.792
			c-0.487,0.097-0.938-0.753-1.37-0.968c-0.011,0.236-0.012,0.473,0.014,0.71c-0.394-0.125-0.532-0.626-0.878-0.123
			c-0.217,0.316,0.01,0.478-0.392,0.699c-0.74,0.405-0.997,0.008-1.316-0.593c-0.284-0.535-0.487-1.291-1.095-1.511
			c-0.363-0.131-1.16-0.127-1.016,0.418c-0.344-0.145-1.171-0.939-1.021-1.324c0.422-0.012,0.701,0.121,0.849-0.306
			c0.07-0.203,0.047-1-0.076-1.16c-0.165-0.214-0.641-0.194-0.869-0.337c-0.402-0.252-0.286-0.368-0.168-0.787
			c-0.832-0.044-1.781-0.032-2.443-0.486c-0.033-0.072-0.186-0.07-0.272-0.08c-0.363-0.041-0.518,0.403-0.562,0.672
			c-0.379-0.096-0.998-0.437-1.107-0.8c-0.094-0.318,0.058-0.958,0.13-1.297c0.082-0.384,0.193-0.401,0.552-0.542
			c-0.116-0.399-0.466-0.544-0.809-0.707c-0.438-0.209-0.404-0.461-0.255-0.921c0.16,0.051,0.324,0.053,0.493,0.034
			c0.159-0.52-0.501-0.979-0.833-1.304c-0.14-0.137-0.603-0.468-0.624-0.68c-0.026-0.254,0.301-0.581,0.326-0.858
			c-0.586,0.023-0.892,0.85-1.601,0.689c0.114-0.351,0.493-0.527,0.512-0.92c-0.211,0.005-0.858,0.113-0.862-0.264
			c-0.002-0.226,0.43-0.37,0.606-0.394c-0.174-0.086-0.516-0.145-0.577-0.3c-0.084-0.213,0.204-0.779,0.189-1.057
			c-0.31,0.01-0.613-0.011-0.923-0.028c0.163-0.189,0.369-0.329,0.416-0.589c0.036-0.199-0.008-0.558-0.075-0.747
			c-0.363,0.095-0.751,0.304-1.052,0.525c0.133-0.205,0.373-0.638,0.393-0.877c0.016-0.191-0.118-0.252-0.158-0.428
			c-0.07-0.312,0.257-0.366,0.219-0.655c-0.028-0.215-0.304-0.29-0.321-0.519c-0.034-0.443,0.137-0.484-0.449-0.36
			c-0.364,0.077-0.728,0.174-1.09,0.264c-0.351,0.087-0.455,0.136-0.574-0.223c-0.057-0.173-0.044-0.622-0.268-0.648
			c-0.194-0.023-0.317,0.298-0.454,0.361c-0.209,0.096-0.416,0.019-0.623-0.034c-1.029-0.264-1.736-0.22-2.489,0.555
			c-0.169-0.154-0.483-0.521-0.7-0.373c-0.122,0.083-0.251,0.518-0.334,0.664c-0.657-0.309-1.364-0.57-2.048-0.886
			c-0.603-0.279-0.811-0.734-1.144-1.272c-0.405-0.654-0.765-1.302-1.291-1.867c-0.4-0.43-0.9-0.736-1.334-1.126
			c-0.551-0.495-1.027-0.174-1.694-0.026c-0.588,0.131-0.778-0.589-1.389-0.386c-0.462,0.154-0.897,0.653-1.322,0.907
			c-0.848,0.507-2.096-0.124-2.872,0.465c-0.442,0.336-0.694,0.813-1.089,1.185c-0.276,0.26-0.641,0.087-0.883,0.343
			c-0.221,0.233-0.293,0.928-0.368,1.248c-0.1,0.423-0.034,0.858-0.301,1.225c-0.158,0.217-0.426,0.452-0.687,0.522
			c-0.411,0.11-0.723,0.034-1.029,0.384c-0.408,0.465-0.612,1.062-1.049,1.513c-0.263,0.271-0.338,0.266-0.712,0.214
			c-0.527-0.074-1.078-0.006-1.611-0.031c-0.36-0.016-0.681-0.081-1.03-0.113c-0.36-0.033-0.654,0.091-1.008-0.015
			c-0.268-0.08-0.531-0.266-0.77-0.404c-0.22-0.126-0.438-0.193-0.665-0.316c-0.441-0.237-0.572-0.504-0.613-0.982
			c-0.549-0.142-0.822-0.119-0.867-0.812c-0.032-0.496,0.226-0.844,0.756-0.641c0.29,0.111,0.353,0.249,0.593-0.068
			c0.183-0.241,0.142-0.289,0.023-0.581c-0.133-0.328-0.159-0.318,0.101-0.554c0.174-0.157,0.4-0.285,0.58-0.409
			c-0.228-0.246-0.645-0.541-0.779-0.838c-0.18-0.4,0.225-0.747,0.64-0.708c-0.243-0.383-0.351-0.834-0.537-1.243
			c-0.117-0.258-0.209-0.275,0.003-0.527c0.141-0.167,0.387-0.283,0.586-0.338c-0.271-0.192-0.66-0.183-0.961-0.34
			c-0.185-0.097-0.362-0.219-0.431-0.402c-0.076-0.2,0.042-0.445-0.159-0.603c-0.064,0.257-0.758,0.606-0.931,0.326
			c-0.156-0.253,0.342-0.71,0.464-0.863c0.251-0.315,0.661-0.734,0.725-1.133c0.08-0.493-0.135-0.512-0.353-0.828
			c0.416-0.166,1.342-0.679,0.575-0.975c-0.298-0.115-1.071-0.191-0.975-0.636c0.05-0.236,0.472-0.474,0.625-0.662
			c0.2-0.246,0.33-0.475,0.208-0.784c-0.13-0.33-0.674-0.759-0.998-0.72c-0.6,0.072-1.268,0.748-1.713,1.114
			c-0.34,0.28-0.612,0.637-1.112,0.555c-0.522-0.086-0.9-0.578-1.4-0.678c-0.411-0.083-0.98,0.088-0.974,0.531
			c0.005,0.398,0.117,0.886,0.256,1.262c0.16,0.433,0.191,0.72,0.192,1.182c0.002,0.613-0.583,1.211-1.227,1.19
			c-0.371-0.012-0.752-0.171-1.12-0.224c-0.338-0.049-0.696-0.186-1.022-0.287c-0.403-0.125-0.853-0.186-1.213-0.419
			c-0.215-0.139-0.43-0.326-0.635-0.479c-0.401-0.301-0.778-0.626-0.987-1.089c-0.237-0.525-0.288-0.672-0.905-0.671
			c-0.077,0.415-0.169,0.805-0.368,1.166c-0.114,0.208-0.655,0.679-0.649,0.89c0.004,0.143,0.121,0.224,0.237,0.319
			c0.25,0.206,0.251,0.182,0.268,0.5c0.021,0.4,0.017,0.82-0.004,1.218c-0.765-0.021-0.572,0.784-0.572,1.314
			c0,0.234-0.07,0.577,0.056,0.777c0.118,0.187,0.594,0.469,0.781,0.605c0.237,0.173,0.671,0.296,0.604,0.603
			c-0.037,0.169-0.306,0.348-0.391,0.509c-0.071,0.134-0.115,0.263-0.137,0.418c-0.043,0.312,0.188,0.677,0.054,0.971
			c-0.125,0.274-0.684,0.562-0.934,0.7l-3.682-1.377l-1.473,1.344c-0.428-0.002-0.682-0.201-1.088-0.283
			c-0.471-0.095-0.966,0.029-1.442-0.005l-2.049,2.498c-0.482,0.493,0.103,0.919,0.441,1.194c0.511,0.415,0.255,0.837,0.006,1.392
			c-0.198,0.44-0.913,0.732-1.374,0.909c-0.484,0.187-0.871-0.484-1.407-0.457c0.026-0.436,0.073-1.163-0.217-1.493
			c-0.526-0.598-1.531-1.062-2.306-1.194c-0.668-0.114-1.347-0.145-2.016-0.257c-0.507-0.085-0.962-0.217-1.397,0.054
			c-0.485,0.302-0.747,0.694-1.341,0.685c-0.323-0.004-1.396-0.043-1.503-0.459c-0.043-0.167,0.075-0.276,0.19-0.371
			c0.294-0.244,0.452-0.138,0.454-0.569c0.002-0.527-0.095-1.051-0.096-1.58c-0.222-0.188-0.653-0.416-0.959-0.353
			c-0.331,0.068-0.432,0.537-0.796,0.477c-0.081-0.248-0.024-0.525-0.095-0.772c-0.091-0.321-0.365-0.353-0.551-0.601
			c-0.321-0.429-0.206-1.501-0.228-2.047c-0.501-0.021-0.98-0.145-1.469-0.196c-0.631-0.065-0.871,0.527-1.183,0.961
			c-0.343,0.477-0.67,0.129-1.093-0.172c-0.297-0.211-0.562-0.459-0.886-0.639c-0.167-0.093-0.343-0.149-0.482-0.28
			c-0.557,0.424-0.844,1.115-1.396,1.523c-0.384,0.284-1.522,0.182-1.629,0.763c-0.058,0.315,0.5,0.393,0.437,0.731
			c-0.038,0.206-0.619,0.585-0.776,0.723c-0.234,0.205-0.455,0.445-0.717,0.615c0.101,0.141,0.277,0.217,0.425,0.302
			c-0.087,0.453-0.898,0.869-1.213,1.174c-0.223,0.217-0.442,0.459-0.619,0.712c-0.153,0.218-0.257,0.646-0.442,0.815
			c-0.198,0.181-0.516,0.112-0.776,0.149c-0.348,0.049-0.637,0.168-0.94,0.332c-0.43,0.233-1.097,0.629-1.188,1.154
			c-0.181,0.03-0.375,0.116-0.552,0.087c-0.277-0.046-0.572-0.328-0.844-0.431c-0.38-0.144-0.488-0.067-0.702,0.278
			c-0.191,0.307-0.353,0.636-0.38,0.994c-0.022,0.283,0.115,0.833-0.005,1.096c-0.305,0.663-1.926,0.725-2.512,0.914
			c-0.389,0.125-0.467,0.336-0.602,0.732c-0.186,0.543-0.453,1.022-0.657,1.556c0.186,0.444,0.786-0.084,0.834,0.437
			c0.057,0.62-0.914,0.455-1.272,0.65c0.011,0.024,0.185,0.183,0.183,0.168c0.019,0.163-0.095,0.246-0.132,0.406
			c-0.058,0.256,0.057,0.489,0.289,0.585c0.342,0.141,0.857-0.152,0.627,0.348c-0.138,0.3-0.414,0.486-0.372,0.86
			c0.534,0.033,0.85,0.019,1.336,0.196c-0.038,0.309-0.284,0.617-0.338,0.949c-0.07,0.423-0.017,0.855-0.034,1.282
			c-0.023,0.565-0.098,1.122-0.096,1.692c0,0.232,0.047,0.571-0.071,0.786c-0.109,0.2-0.338,0.194-0.44,0.366
			c-0.163,0.274,0.107,0.495,0.192,0.73c0.114,0.314,0.047,0.457-0.162,0.711c-0.112,0.136-0.474,0.401-0.482,0.592
			c-0.008,0.197,0.206,0.205,0.273,0.354c0.116,0.258-0.112,0.597-0.161,0.846c-0.139,0.697-0.072,1.109,0.18,1.754
			c0.274,0.699,0.519,1.194,0.957,1.814c0.423,0.599,1.007,1.292,1.537,1.803c0.332,0.32,0.412,0.309,0.85,0.191
			c0.525-0.142,1.082-0.129,1.618-0.197c1.083-0.136,2.206-0.3,3.297-0.322c-0.032,0.766-0.858,1.39-0.962,2.144
			c-0.056,0.405,0.241,0.754,0.258,1.129c0.016,0.365-0.307,0.847-0.48,1.159c-0.242,0.437-0.559,0.835-0.767,1.29
			c-0.233,0.507-0.075,0.841,0.293,1.27c0.352,0.411,0.747,0.7,1.305,0.411c0.402-0.208,0.228-0.374,0.677-0.325
			c0.182,0.02,0.418,0.006,0.533,0.157c0.169,0.221,0.042,0.706,0.227,1c0.189,0.3,0.495,0.578,0.748,0.825
			c0.411,0.4,1.063,0.874,1.601,1.099c-0.673,0.115-1.392,0.071-2.072,0.06c-0.365-0.006-0.793,0.131-1.088,0.369
			c-0.267,0.216-0.219,0.544-0.388,0.771c-0.223,0.3-0.624,0.183-0.967,0.28c-0.317,0.09-0.679,0.357-0.953,0.545
			c-0.55,0.377-0.444,0.863-0.103,1.362c0.404,0.59-0.088,0.93-0.37,1.513c-0.18,0.372-0.051,0.282,0.148,0.554
			c0.191,0.261,0.109,0.605-0.032,0.876c-0.188,0.36-0.495,0.418-0.826,0.605c-0.378,0.215-0.421,0.323-0.279,0.683
			c0.207,0.523,0.567,1.14,1.181,1.21c0.845,0.096,1.554-0.71,2.261-0.025c0.214,0.207,0.36,0.506,0.656,0.595
			c0.159,0.048,0.553,0.05,0.705,0.002c0.194-0.062,0.271-0.237,0.486-0.285c0.029,0.319-0.192,0.393-0.128,0.704
			c0.074,0.359,0.473,0.343,0.763,0.448c0.32,0.116,0.677,0.33,0.577,0.718c-0.096,0.375-0.326,0.558-0.032,0.912
			c0.365,0.439,0.836,0.477,1.331,0.613c0.285,0.078,0.879,0.621,0.942,0.942c0.037,0.191-0.104,0.419-0.177,0.59
			c-0.161,0.379-0.353,0.837-0.399,1.251c-0.037,0.335,0.126,0.659,0.303,0.933c0.137,0.212,0.473,0.415,0.551,0.655
			c0.217,0.666-0.586,1.449-0.385,2.152c0.084,0.293,0.401,0.551,0.563,0.807c0.194,0.307,0.308,0.518,0.403,0.865
			c-0.615,0.012-1.227-0.011-1.841-0.033c-0.22-0.008-0.554,0.107-0.76,0.066c-0.215-0.043-0.185-0.114-0.317-0.349
			c-0.336-0.598-0.83-1.098-1.109-1.741c-0.169-0.389-0.355-1.088-0.695-1.355c-0.209-0.165-0.43-0.094-0.728-0.119
			c-0.138,0.563,0.256,1.34,0.035,1.88c-0.169,0.412-0.996,0.533-1.355,0.321c-0.24-0.142-0.106-0.308-0.239-0.522
			c-0.2-0.321-0.562-0.23-0.842-0.377c-0.406-0.213-0.093-0.237-0.063-0.469c0.015-0.115,0.06-0.058,0.015-0.198
			c-0.019-0.061-0.203-0.17-0.249-0.24c0.38-0.161,0.173-0.731-0.176-0.792c-0.531-0.094-0.495,0.67-1.076,0.129
			c-0.422,0.364-0.644,0.672-1.272,0.461c-0.214-0.072-0.409-0.26-0.641-0.333c-0.243-0.077-0.494-0.122-0.737-0.201
			c-0.314-0.103-0.82-0.366-1.107-0.142c-0.364,0.283-0.182,0.763-0.718,0.818c-0.771,0.079-2.164-0.952-2.668-0.135
			c-0.239,0.387-0.491,0.746-0.779,1.103c-0.335,0.414-0.207,0.582-0.032,1.054c0.302,0.816,0.25,1.733,0.327,2.591
			c0.037,0.421,0.111,0.781-0.026,1.18c-0.119,0.346-0.287,0.67-0.391,1.022c-0.05,0.17-0.197,0.566-0.128,0.741
			c0.081,0.205,0.081,0.097,0.282,0.154c0.351,0.1,0.597-0.014,0.839,0.282c0.192,0.235,0.243,0.697,0.513,0.874
			c0.228,0.15,0.619,0.049,0.891,0.061c0.417,0.019,0.95,0.019,1.35,0.116c0.517,0.125,1.167,0.563,1.639,0.855
			c0.186-0.375,0.411-0.782,0.536-1.185c0.272,0.073,0.307,0.517,0.593,0.514c0.338-0.002,0.591-0.559,1.012-0.559
			c-0.073,0.406-0.586,0.531-0.578,1.041c0.006,0.411,0.473,0.741,0.192,1.141c-0.111,0.158-0.434,0.284-0.418,0.513
			c0.031,0.435,0.841,0.365,1.181,0.418c0.044,0.492-0.093,0.687,0.283,1.093c0.271,0.291,0.424,0.954,0.269,1.368
			c-0.255-0.105-0.574-0.086-0.82-0.19c-0.294-0.125-0.199-0.353-0.359-0.585c-0.363-0.526-1.686-0.32-2.239-0.248
			c-0.373,1.023-0.547,2.099-1.065,3.065c-0.307,0.572-0.582,1.156-0.844,1.748c-0.263,0.596-0.002,0.78,0.369,1.287
			c0.236,0.322,0.634,0.748,0.665,1.161c0.033,0.443-0.288,0.942-0.465,1.336c-0.258,0.572-0.446,1.133-0.784,1.676
			c-0.287,0.461-0.355,0.954-0.32,1.51c-0.414,0.531-1.658,0.735-1.073,1.486c0.333,0.428,0.32,0.517-0.071,0.955
			c-0.196,0.22-0.518,0.584-0.813,0.625c-0.29,0.041-0.756-0.352-1.009-0.491c-0.423-0.233-0.818-0.509-1.251-0.718
			c-0.301-0.145-0.212-0.06-0.338-0.33c-0.064-0.138-0.053-0.271-0.167-0.383c-0.384-0.375-0.917,0.358-1.304,0.501
			c-1.545,0.57-0.423-1.169-1.269-1.141c-0.486,0.016-1.002,1.038-1.348,1.319c-0.379,0.308-0.794,0.637-0.606,1.182
			c0.23,0.667,0.58,0.165,1.036,0.317c0.532,0.178,0.455,1.342,0.462,1.759c0.014,0.779,0.183,1.567,0.263,2.341
			c0.067,0.654,0.051,1.404,0.272,2.027c0.23,0.65,0.914,1.037,1.082,1.68c0.054,0.207-0.043,0.369-0.049,0.568
			c-0.011,0.335,0.181,0.592,0.323,0.878c0.329,0.659,0.74,0.669,1.38,0.935c0.493,0.206,0.507,0.537,0.509,1.025
			c-0.873,0.233-0.485,1.734-0.48,2.419c0.003,0.469,0.148,0.708,0.377,1.104c0.238,0.411,0.278,0.806,0.198,1.277
			c-0.559,0.081-0.786,0.775-1.378,0.667c-0.162,0.344,0.342,1.096,0.403,1.462c0.089,0.531-0.339,0.542-0.568,0.953
			c-0.291,0.521,0.315,0.489,0.352,0.949c0.02,0.242-0.2,0.392-0.213,0.613c-0.016,0.283,0.283,0.453,0.285,0.737
			c-0.219,0.092-0.752,0.288-0.886,0.505c-0.072,0.117-0.016,0.347-0.044,0.474c-0.07,0.319-0.012,0.19-0.311,0.435
			c-0.395,0.323-0.727,0.727-1.087,1.091c-0.158,0.159-0.411,0.34-0.495,0.553c-0.086,0.219,0.032,0.378,0.046,0.591
			c0.025,0.387-0.223,0.529-0.585,0.66c-0.194,0.07-0.475,0.007-0.621,0.143c-0.108,0.101-0.048,0.362-0.155,0.468
			c-0.131,0.129-0.406,0.082-0.568,0.148c-0.324,0.133-0.231,0.248-0.404,0.503c-0.142,0.21-0.207,0.092-0.386,0.193
			c-0.251,0.142-0.144,0.316-0.235,0.632c-0.234-0.094-0.546-0.139-0.773-0.28c-0.126,0.323-0.08,0.625-0.149,0.947
			c-0.295,0.059-0.511,0.009-0.803,0.163c0.04,0.176,0.197,0.234,0.224,0.421c0.034,0.235-0.095,0.353-0.234,0.508
			c-0.207,0.229-0.502,0.421-0.831,0.397c0,0.328-0.172,0.466,0.186,0.604c0.38,0.147,0.754,0,1.138,0.223
			c0.37,0.214,0.755,0.579,1.054,0.888c0.284,0.293,0.54,0.798,0.877,1.01c0.201-0.402,0.355-0.528,0.689-0.801
			c0.345-0.282,0.208-0.758,0.188-1.175c0.167-0.011,0.343-0.021,0.505-0.078c0.172,0.214-0.009,0.585,0.125,0.809
			c0.131,0.219,0.488,0.362,0.698,0.487c0.099,0.058,0.545,0.223,0.563,0.33c0.024,0.153-0.282,0.22-0.344,0.335
			c-0.17,0.313,0.296,0.601,0.432,0.913c0.201,0.46,0.063,0.735-0.355,1.012c-0.22,0.146-0.441,0.174-0.229,0.466
			c0.185,0.254,0.578,0.272,0.828,0.143c0.327-0.169,0.504-0.496,0.849-0.65c0.394-0.175,0.392-0.137,0.673,0.18
			c0.298,0.338,0.607,0.482,1.042,0.43c0.279-0.034,0.786-0.174,0.815,0.287c-0.083,0.154-0.221,0.313-0.36,0.422
			c0.446,0.013,0.754,0.008,1.152,0.152c0.38,0.137,0.806,0.276,1.136,0.505c0.157,0.109,0.323,0.207,0.465,0.332
			c0.11,0.096,0.198,0.27,0.322,0.344c0.331,0.198,1.067,0.035,1.412-0.046c0.316-0.075,0.611-0.219,0.915-0.329
			c0.264-0.096,0.521-0.136,0.79-0.215c0.476-0.139,0.985-0.259,1.449-0.429c0.141-0.052,0.351-0.185,0.507-0.143
			c0.188,0.051,0.305,0.462,0.432,0.601c0.139,0.152,0.492,0.308,0.692,0.334c0.338,0.044,0.368-0.232,0.644-0.411
			c0.093,0.161,0.178,0.341,0.317,0.467c0.119-0.042,0.231-0.113,0.314-0.199c0.094,0.114,0.225,0.563,0.42,0.297
			c0.173,0.045,0.232,0.287,0.288,0.434c0.107,0.273,0.197,0.425,0.434,0.608c0.511,0.395,1.346,0.824,1.624,1.445
			c-0.32,0.056-0.546,0.183-0.385,0.511c0.144,0.295,0.165,0.299-0.068,0.5c-0.291,0.252-0.301,0.474-0.274,0.853
			c0.032,0.439,0.031,1.106,0.298,1.471c0.202-0.322,0.809-0.207,1.066-0.018c0.374,0.276,0.106,0.532,0.302,0.88
			c0.117,0.208,0.46,0.274,0.561,0.51c0.084,0.199-0.075,0.387-0.159,0.603c-0.098,0.25-0.266,0.509-0.307,0.779
			c-0.018,0.119-0.028,0.272,0.07,0.357c0.143,0.125,0.551-0.078,0.683,0.05c0.14,0.136-0.006,0.537-0.016,0.698
			c-0.023,0.389,0.263,0.36,0.556,0.54c0.562,0.346,1.234,0.659,1.754,1.075c-0.008-0.247-0.097-0.738,0.01-0.967
			c0.083-0.178,0.48-0.452,0.662-0.513c-0.03,0.281,0.037,0.618,0.099,0.89c0.088,0.394,0.275,0.279,0.636,0.355
			c0.18,0.038,0.413,0.019,0.569,0.125c0.301,0.204,0.182,0.462,0.637,0.486c0.226,0.012,0.446-0.15,0.652-0.076
			c0.203,0.072,0.452,0.423,0.557,0.598c-0.49,0.088-0.566,0.09-0.245,0.535c0.119,0.165,0.263,0.492,0.477,0.557
			c0.286,0.088,0.629-0.464,0.893-0.599c0.033,0.604,0.715,0.815,1.191,1.093c0.18-0.397,0.353-0.886,0.328-1.324
			c0.444,0.121,0.878,0.452,1.344,0.54c0.044,0.561-0.375,1.285-0.545,1.816c-0.211,0.659-0.022,1.415,0.137,2.075
			c0.101,0.422,0.122,0.292,0.456,0.449c0.166,0.079,0.229,0.166,0.308,0.323c0.225,0.44,0.251,0.908,0.549,1.323
			c0.211,0.294,0.735,0.956,0.574,1.359c-0.133,0.334-0.552,0.177-0.615,0.634c-0.09,0.67,0.539,1.212,0.033,1.855
			c-0.585,0.743-0.968,1.114-0.894,2.159c-0.221-0.291-0.558-0.115-0.607,0.203c-0.041,0.264,0.163,0.496,0.301,0.697
			c0.203,0.295,0.423,0.661,0.678,0.91c0.295,0.29,0.499,0.012,0.813-0.172c-0.004,0.294-0.001,0.591-0.002,0.886
			c-0.001,0.445,0.043,0.302,0.433,0.52c-0.107,0.178-0.401,0.49-0.593,0.582c-0.277,0.132-0.004,0.621-0.128,0.852
			c-0.124,0.228-0.64,0.577-0.863,0.717c0.031-0.322,0.071-0.758-0.011-1.065c-0.097-0.362-0.266-0.102-0.54,0.023
			c-0.282,0.128-0.618,0.308-0.833,0.537c-0.284,0.302-0.172,0.72-0.171,1.114c0.002,0.817-0.002,1.672-0.102,2.484
			c-0.072,0.591-0.471,1.446-1.057,1.683c-0.144-0.294-0.212-0.45-0.519-0.289c-0.24,0.126-0.497,0.311-0.665,0.524
			c-0.147,0.188-0.234,0.432-0.175,0.677c0.04,0.165,0.247,0.766,0.357,0.835c0.017,0.376,0.216,0.73,0.226,1.109
			c0.009,0.358-0.459,0.478-0.344,0.874c0.141,0.486,0.952,0.474,0.696,1.163c-0.114,0.306-0.711,0.259-0.973,0.359
			c-0.216,0.082-0.386,0.258-0.562,0.406c-0.665,0.561-0.132,1.176-0.124,1.899c0.005,0.476-0.089,0.935-0.069,1.414
			c0.304,0.118,0.686,0.21,0.668,0.568c-0.017,0.344-0.102,0.698-0.129,1.044c-0.033,0.416-0.062,0.853,0.011,1.263
			c0.057,0.318,0.271,0.678,0.233,1.012c-0.121-0.006-0.384,0.176-0.401,0.294c-0.022,0.152,0.24,0.376,0.329,0.485
			c0.17,0.208,0.334,0.463,0.427,0.716c0.08,0.218,0.007,0.339-0.143,0.508c-0.162,0.182-0.455,0.334-0.566,0.549
			c-0.079,0.154-0.016,0.36,0.026,0.517c0.118,0.444,0.326,0.862,0.458,1.3c0.099,0.329-0.105,0.752-0.178,1.075
			c-0.066,0.292-0.187,0.482,0.051,0.707c0.253,0.239,0.588,0.563,0.445,0.939c-0.08,0.21-0.253,0.392-0.383,0.572
			c-0.126,0.173-0.285,0.244-0.162,0.46c0.082,0.144,0.222,0.271,0.357,0.365c0.105,0.073,0.318,0.276,0.445,0.239
			c0.955-0.278,1.887,0.054,2.842-0.371c0.868-0.386,1.764-0.663,2.553-1.205c0.447-0.307,0.856-0.728,1.372-0.927
			c0.402-0.155,1.14-0.051,1.47-0.35c0.153-0.138,0.132-0.463,0.317-0.652c0.383-0.389,1.243-0.495,1.761-0.663
			c0.692-0.224,1.431-0.276,2.152-0.347c0.622-0.061,1.331-0.006,1.85-0.343c0.804-0.52,1.206-1.456,1.874-2.085
			c0.574-0.541,1.397-0.647,1.873-1.276c0.536-0.709,1.111-0.727,1.978-0.918c1.218-0.269,2.276-0.357,3.525-0.419
			c0.64-0.032,0.887-0.33,1.409-0.589c0.406-0.202,0.86,0.011,1.252-0.14c0.617-0.237,0.696-1.206,1.383-1.52
			c1.293-0.59,3.088,0.226,4.281-0.518c0.387-0.242,0.803-0.484,1.263-0.715c0.496-0.248,0.872-0.656,1.365-0.891
			c1.052-0.503,2.367-0.13,3.428-0.628c0.853-0.401,1.687-0.965,2.499-1.444c0.745-0.439,1.511-0.487,2.29-0.817
			c1.02-0.431,1.995-0.96,3.044-1.304c0.566-0.186,2.601-0.66,2.808-1.267c0.384-0.071,0.759-0.207,1.125-0.342
			c0.598-0.22,1.179-0.287,1.809-0.362c1.119-0.134,2.29-0.143,3.396-0.34c0.396-0.07,0.725-0.208,1.101-0.332
			c0.55-0.181,1.175-0.187,1.746-0.275c1.116-0.171,2.219-0.338,3.34-0.476c1.683-0.206,3.337-0.406,5.031-0.529
			c1.336-0.097,2.682-0.037,4.021-0.106c1.037-0.053,2.042-0.252,3.064-0.402c0.671-0.098,1.306-0.135,1.982-0.135
			c0.281,0,0.759-0.005,0.954-0.256c1.435-0.001,2.856-0.201,4.29-0.259c1.218-0.049,2.459-0.084,3.622-0.477
			c0.637-0.215,1.335-0.253,2.008-0.292c0.765-0.044,1.524-0.196,2.283-0.294c1.431-0.186,2.843-0.374,4.282-0.446
			c1.472-0.073,2.955-0.33,4.424-0.378c0.839,0.084,1.8-0.163,2.647-0.264c0.967-0.115,1.919-0.265,2.883-0.402
			c1.068-0.152,2.103-0.329,3.184-0.138c0.79,0.139,1.617,0.278,2.394,0.49c0.347,0.095,0.603,0.28,0.918,0.442
			c0.436,0.225,0.924,0.31,1.396,0.422c0.944,0.225,1.886,0.348,2.818,0.626c1.02,0.305,2.165,0.439,3.221,0.483
			c0.872,0.037,1.743,0.026,2.614,0.111c0.832,0.081,1.67,0.011,2.485,0.198c0.359,0.082,0.696,0.228,1.05,0.32
			c0.318,0.082,0.636,0.152,0.953,0.241c0.32,0.089,0.642,0.113,0.974,0.094c0.007-0.397-0.193-0.697-0.391-1.03
			c-0.181-0.304-0.559-0.713-0.085-0.905c0.224-0.09,0.49-0.073,0.715-0.163c0.219-0.087,0.447-0.262,0.617-0.422
			c0.178-0.168,0.317-0.319,0.315-0.569c-0.001-0.132-0.006-0.338-0.098-0.436c-0.18-0.193-0.545-0.007-0.768-0.155
			c-0.217-0.144-0.162-0.395-0.161-0.622c0.003-0.484,0.425-0.538,0.805-0.707c0.417-0.186,0.271-0.433,0.059-0.729
			c-0.252-0.353-0.375-0.509,0.065-0.726c0.242-0.119,0.477-0.297,0.74-0.365c0.177-0.045,0.373-0.006,0.556-0.006
			c0.17,0.105,0.347,0.223,0.523,0.069c0.061-0.053,0.084-0.147,0.165-0.199c0.237-0.151,0.608-0.162,0.885-0.179
			c0.256,0.314,1.012,0.27,1.035,0.766c0.025,0.545-0.65,0.935-1.018,1.218c-0.264,0.203-0.257,0.372-0.277,0.702
			c-0.022,0.357-0.058,0.622-0.252,0.918c-0.165,0.252-0.294,0.476-0.508,0.693c-0.107,0.109-0.313,0.315-0.242,0.493
			c0.065,0.163,0.387,0.288,0.512,0.397c0.194,0.171,0.399,0.311,0.599,0.474c0.199,0.162,0.407,0.331,0.585,0.514
			c0.113,0.116,0.24,0.315,0.402,0.365c0.164,0.051,0.414-0.011,0.587-0.018c0.218-0.009,0.437,0.005,0.655-0.005
			c0.409-0.018,0.843-0.052,1.246,0.016c0.402,0.068,0.786,0.257,1.174,0.383c0.179,0.058,0.355,0.11,0.513,0.212
			c0.101,0.065,0.219,0.215,0.322,0.254c0.114,0.044,0.355,0.003,0.478,0.002c0.203-0.001,0.296-0.007,0.422-0.159
			c0.154-0.185,0.462-0.53,0.471-0.769c0.006-0.139-0.157-0.233-0.143-0.371c0.012-0.121,0.125-0.172,0.224-0.224
			c0.261-0.135,0.61-0.115,0.902-0.207c0.339-0.106,0.781-0.329,1.101-0.035c0.152,0.14,0.315,0.516,0.347,0.72
			c0.038,0.235,0.005,0.364-0.231,0.404c-0.365,0.061-0.72,0.059-1.082,0.145c-0.204,0.048-0.663,0.222-0.246,0.376
			c0.136,0.05,0.369,0.072,0.475,0.072c0.735,0.075,1.442,0.404,2.172,0.416c0.332,0.005,0.587-0.131,0.908-0.161
			c0.342-0.032,0.354,0.124,0.637,0.189c0.335,0.076,0.927-0.277,1.069-0.6c0.362-0.825-0.827-1.676-0.867-2.499
			c-0.018-0.375,0.35-0.707,0.251-1.067c-0.11-0.4-0.627-0.481-0.712-0.926c-0.085-0.446,0.321-0.576,0.295-0.997
			c-0.022-0.356-0.322-0.591-0.282-0.95l1.569,0.128l-1.601-8.069c-0.279,0-0.56,0.01-0.839-0.003
			c0.006-0.33-0.346-0.357-0.576-0.464c-0.404-0.188-0.666-0.53-0.955-0.879l-2.178,1.217l-1.024-0.577l0.32-2.241l-2.145,0.288
			l0.192-4.482l-1.569-3.49l-0.864-5.251l-1.377-2.722h-0.64l0.064-1.473l-1.937-7.044v-2.017l-0.72-0.864l1.633-3.026l-0.864-1.201
			v-1.633l4.226-6.58l1.825-0.576l0.048-2.21l2.161-2.834l-0.673-0.673l1.585-10.614l3.314-6.772
			c0.063-0.259,0.421-0.372,0.672-0.384l0.096-2.834l1.105,1.057l1.777-3.122c0.665-0.256,1.677,0.064,2.404-0.015
			c-0.005-0.472,0.008-0.877-0.147-1.32c-0.187-0.535-0.458-0.929-0.432-1.525c0.052-1.172,1.18-0.93,2.065-0.694l1.729-1.681
			L188.944,77.616z"/>
		<path fill="#1E8346" d="M171.105,173.82c-0.561-0.144-1.21,0.016-1.742-0.259c-0.198-0.102-0.376-0.19-0.578-0.281
			c-0.16-0.072-0.229-0.188-0.327-0.336c-0.236-0.356-0.492-0.488-1.079-0.472c-0.364,0.108-0.887,0.261-0.91,0.739
			c-0.014,0.297,0.321,0.494,0.57,0.556c0.737,0.184,1.506,0.285,2.249,0.451c0.402,0.089,0.829,0.178,1.226,0.255
			c0.279,0.055,0.565,0.093,0.849,0.079C171.379,174.253,171.45,173.909,171.105,173.82z"/>
	</g>
</g>
<g id="Icon">
</g>
</svg>
