<?xml version="1.0" encoding="utf-8"?>
<!-- Generator: Adobe Illustrator 26.0.3, SVG Export Plug-In . SVG Version: 6.00 Build 0)  -->
<svg version="1.1" id="Isolation_Mode" xmlns="http://www.w3.org/2000/svg" xmlns:xlink="http://www.w3.org/1999/xlink" x="0px"
	 y="0px" viewBox="0 0 200 200" enable-background="new 0 0 200 200" xml:space="preserve">
<g>
	<path fill="#1E8346" d="M161.193,184.994c0.248,0.016,0.283,0.153,0.476,0.202c0.254,0.064,0.556-0.347,0.704-0.58
		c-0.099-0.123-0.332-0.121-0.416-0.24c-0.05-0.07-0.052-0.355-0.058-0.412c-0.043-0.388-0.037-0.797-0.157-1.172
		c-0.209-0.659-0.887-1.061-1.153-1.718c-0.157-0.388,0.078-0.7-0.011-1.088c-0.062-0.269-0.304-0.492-0.243-0.787
		c0.033-0.158,0.203-0.419,0.29-0.535c-0.303-0.575,0.069-1.357-0.002-1.924c-0.103-0.037-0.404,0.003-0.469-0.104
		c-0.072-0.118,0.105-0.252,0.124-0.347c0.038-0.185,0.034-0.22-0.04-0.446c-0.054-0.163-0.192-0.421-0.097-0.599
		c0.067-0.125,0.15-0.072,0.262-0.163c0.303-0.246,0.411-0.609,0.412-1.008c0.002-0.502-0.31-0.935-0.616-1.317
		c-0.191-0.237-0.369-0.494-0.567-0.724c-0.264-0.305-0.193-0.129-0.525-0.047c-0.638,0.157-1.25-1.376-1.583-1.804
		c-0.385-0.493-1.355,0.036-1.836-0.316l-8.768-9.718l-2.722-4.822l1.583-0.676c-0.121-0.204-0.438-0.189-0.571-0.405
		c-0.101-0.163-0.14-0.365-0.245-0.532c-0.306-0.488-0.241-1.038-0.429-1.574c-0.169-0.481-0.052-1.091-0.243-1.57
		c-0.149-0.376-0.45-0.699-0.648-1.044c-0.071,0.015-0.131,0.061-0.184,0.117c-0.25-0.434-0.09-0.971-0.635-1.172
		c-0.547-0.202-1.132-0.213-1.601-0.596c-0.301-0.246-0.56-0.541-0.884-0.758c-0.273-0.183-0.588-0.3-0.862-0.478
		c-0.46-0.299-0.821-0.846-0.957-1.377c-0.094-0.366-0.149-0.736-0.167-1.11c-0.014-0.29,0.058-0.569-0.107-0.79
		c-0.132-0.176-0.14-0.169-0.042-0.409c0.117-0.287,0.169-0.542,0.168-0.851c0-0.259-0.025-0.502-0.127-0.745
		c-0.116-0.276-0.325-0.508-0.44-0.784c-0.104-0.249,0.022-0.46,0.04-0.722c0.017-0.246-0.046-0.238-0.139-0.433
		c-0.047-0.097-0.079-0.197-0.052-0.317c0.027-0.115,0.131-0.184,0.127-0.296c-0.005-0.176,0.015-0.281-0.036-0.452
		c-0.039-0.132-0.108-0.221-0.113-0.363c-0.005-0.173,0.04-0.202,0.148-0.32c0.124-0.135,0.166-0.122,0.127-0.357
		c-0.041-0.239-0.148-0.505-0.237-0.733c-0.079-0.204-0.184-0.5-0.353-0.645c-0.258-0.221-0.628-0.259-0.928-0.384
		c-0.407-0.169-0.942-0.571-1.14-0.966c0.458-0.736,0.804-1.611,1.136-2.411c0.117-0.281,0.257-0.527,0.409-0.786
		c0.096-0.163,0.195-0.366,0.172-0.562c-0.021-0.189-0.186-0.338-0.305-0.502c-0.119-0.163-0.407-0.415-0.427-0.623
		c-0.016-0.167,0.154-0.373,0.223-0.516c0.076-0.159,0.117-0.307,0.162-0.477c0.085-0.322,0.33-0.734,0.297-1.065
		c-0.038-0.369-0.123-0.732-0.143-1.101c-0.015-0.273-0.021-0.55-0.032-0.824c-0.013-0.333,0.02-0.684-0.016-1.016
		c-0.02-0.188-0.026-0.47-0.137-0.623c-0.231,0.066-0.421,0.211-0.638,0.288c-0.203,0.073-0.792,0.162-0.998,0.07
		c-0.165-0.073-0.304-0.356-0.378-0.505c-0.137-0.279-0.274-0.574-0.459-0.824c-0.186-0.252-0.43-0.445-0.559-0.736
		c-0.077-0.175-0.204-0.592-0.059-0.759c0.075-0.087,0.312-0.16,0.417-0.214c0.155-0.08,0.316-0.181,0.449-0.294
		c0.374-0.318,0.632-0.752,0.96-1.104c0.139-0.149,0.405-0.239,0.587-0.313c0.366-0.147,0.747-0.237,1.126-0.344
		c0.335-0.094,0.667-0.198,0.996-0.308c0.175-0.058,0.555-0.117,0.673-0.258l1.25-1.942l-0.232-0.654l2.68-5.656
		c0.522,0,0.824-0.173,1.309-0.169c0.196-0.461,0.491-0.894,0.696-1.355c0.166-0.372,0.361-0.732,0.531-1.103
		c0.099-0.217,0.297-0.395,0.35-0.622c0.076-0.332-0.009-0.683,0.035-1.016c0.021-0.165,0.09-0.316,0.178-0.454
		c0.081-0.128,0.131-0.288,0.203-0.405c0.087-0.142,0.178-0.061,0.338-0.125c0.168-0.068,0.42-0.249,0.505-0.41
		c0.351-0.664-0.705-1.509,0.28-1.982c-0.046-0.068-0.13-0.112-0.177-0.172c-0.295-0.376,1.105-1.203,1.287-1.34
		c0.359-0.271,0.693-0.573,1.024-0.875c0.304-0.277,0.705-0.462,0.966-0.784c0.405-0.5,0.641-1.146,1.006-1.679
		c0.189-0.276,0.361-0.519,0.601-0.754c0.179-0.175,0.386-0.33,0.555-0.513c0.013-0.319,0.292-0.87,0.406-1.178
		c0.123-0.332,0.132-0.612,0.144-0.974c0.006-0.188,0.087-0.65,0.001-0.793c-0.085-0.141-0.433-0.232-0.584-0.319
		c-0.301-0.172-0.612-0.187-0.916-0.325l-1.667-3.841l-0.085-1.055l-2.321-4.98l-2.195-4.094c-0.122-0.072-0.251-0.254-0.377-0.317
		c-0.242-0.121-0.57-0.103-0.83-0.127c-0.258-0.024-0.538-0.057-0.797-0.041c-0.125-0.426-0.347-0.858-0.541-1.255
		c-0.066,0.084-0.713,0.033-0.821,0.031c0.056-0.29,0.262-0.417,0.057-0.711c-0.228-0.327-0.749-0.175-1.117-0.175l-5.777-4.02
		l-0.348-0.918l-1.773-1.393l0.285-1.519c-0.217-0.086-0.458-0.196-0.61-0.382c-0.149-0.182-0.24-0.446-0.313-0.666
		c-0.047-0.143-0.049-0.165-0.154-0.222c-0.197-0.105-0.479-0.062-0.696-0.108c-0.375-0.079-0.549-0.527-0.736-0.839
		c-0.146-0.243-0.359-0.408-0.531-0.623c-0.158-0.197-0.32-0.457-0.533-0.597c-0.189-0.124-0.416-0.155-0.623-0.228
		c-0.479-0.169-0.517-0.739-0.744-1.15c-0.141-0.255-0.346-0.607-0.6-0.764c-0.247-0.153-0.534-0.143-0.79-0.245
		c-0.162-0.47,0.341-0.977,0.489-1.394l1.978-1.741l1.298-2.786l4.463-0.063l5.033,1.171l2.438-0.918l1.867,0.665l0.728-0.697
		l2.089,0.127c0.452,0,0.97-0.092,1.422-0.015c0.264,0.045,0.53,0.241,0.737,0.399c0.212,0.162,0.473,0.458,0.769,0.422
		c0.269-0.033,0.581-0.209,0.84-0.29c0.254-0.079,0.508-0.194,0.771-0.236c0.402-0.065,0.815-0.087,1.22-0.141
		c0.516-0.07,0.988-0.158,1.463-0.346c-0.232-0.67-1.267-0.77-1.761-1.14c-0.199-0.149-0.482-0.476-0.724-0.536
		c-0.136-0.033-0.348,0.063-0.467,0.13c-0.051-0.519-0.301-0.881-0.547-1.323c-0.182-0.326-0.4-0.661-0.631-0.955
		c-0.236-0.301-0.625-0.576-0.922-0.819c-0.228-0.186-0.502-0.443-0.794-0.517c-0.152-0.038-0.281-0.063-0.387-0.181
		c-0.136-0.153-0.243-0.441-0.263-0.642c-0.048-0.48-0.001-0.917-0.307-1.331c-0.171-0.231-0.386-0.429-0.559-0.661
		c-0.169-0.226-0.276-0.392-0.532-0.527c-0.223-0.117-0.46-0.203-0.642-0.384c-0.218-0.216-0.257-0.584-0.282-0.883
		c-0.014-0.172-0.009-0.316,0.071-0.47c0.052-0.1,0.165-0.199,0.195-0.307c0.106-0.371-0.236-0.876-0.333-1.232
		c-0.056-0.208-0.293-0.373-0.408-0.55c-0.153-0.236-0.307-0.479-0.428-0.736c-0.086-0.182-0.233-0.431-0.26-0.629
		c-0.025-0.186,0.128-0.372,0.201-0.546c0.219-0.522,0.173-1.044-0.071-1.56c-0.222-0.47-0.536-0.759-0.56-1.31
		c0.23-0.029,0.486-0.063,0.702-0.13c0.375-0.117,0.441-0.781,0.33-1.155c-0.2-0.677-0.477-1.353-0.735-2.01
		c-0.12-0.307-0.282-0.654-0.172-0.984c0.051-0.154,0.132-0.26,0.231-0.381c0.054-0.066,0.127-0.116,0.125-0.212
		c-0.002-0.137-0.174-0.238-0.223-0.372c-0.076-0.208,0.023-0.263,0.127-0.427c-0.154-0.101,0.025-0.777,0.051-0.972
		c0.03-0.235,0.133-0.417,0.257-0.614c0.121-0.192,0.237-0.416,0.425-0.547c0.109-0.076,0.239-0.119,0.319-0.231
		c0.169-0.235,0.281-0.793,0.066-1.029c-0.159-0.175-0.377-0.291-0.532-0.476c-0.078-0.094-0.174-0.213-0.219-0.329
		c-0.035-0.091-0.025-0.192-0.066-0.28c-0.246-0.048-0.368-1.069-0.339-1.292c0.037-0.28,0.371-0.198,0.615-0.196
		c-0.032-0.199-0.309-0.376-0.236-0.592c0.053-0.156,0.312-0.169,0.391-0.3c0.194-0.319-0.319-0.932-0.456-1.198
		c-0.171,0.12-0.475,0.171-0.663,0.037c-0.206-0.147-0.157-0.507-0.115-0.757c0.02-0.124,0.043-0.24,0.139-0.321
		c0.073-0.062,0.226-0.028,0.286-0.124c0.109-0.175-0.187-0.511-0.248-0.689c0.115-0.094,0.272-0.18,0.414-0.218
		c0.16-0.191-0.206-0.696-0.301-0.872c-0.152-0.283,0.139-0.374,0.104-0.684c-0.037-0.332-0.788-1.237-1.176-1.089
		c-0.176,0.068-0.346,0.471-0.458,0.612c-0.389-0.356-0.669-0.756-1.072-1.089c0.252-0.42,0.484-0.369,0.307-0.852
		c-0.093-0.252-0.162-0.404-0.168-0.672c-0.009-0.403,0.202-0.63,0.186-0.988c-0.039-0.878-0.281-1.615-0.539-2.403
		c-0.181,0.118-0.362-0.061-0.532-0.156c0.057-0.29,0.17-0.474,0.15-0.786c-0.03-0.467-0.172-0.921-0.244-1.381
		c-0.121-0.782-0.084-0.501-0.812-0.656c-0.379-0.081-0.439-0.48-0.612-0.805c-0.158,0.242-0.352,0.463-0.667,0.391
		c-0.003-0.251-0.001-0.505-0.001-0.757c-0.574-0.14-1.476-0.222-1.505-0.982c-0.134,0.207-0.502,0.225-0.707,0.365
		c-0.108-0.139-0.067-0.331-0.153-0.48c-0.092-0.157-0.211-0.099-0.323-0.215c-0.234-0.241,0.31-0.651,0.202-0.969
		c-0.101-0.296-0.667-0.573-0.571-0.921c0.048-0.173,0.403-0.399,0.533-0.552c-0.208-0.139-0.378-0.314-0.569-0.464
		c-0.042-0.034-0.029-0.085-0.083-0.108c-0.077-0.032-0.207-0.054-0.285-0.012c-0.108,0.058-0.121,0.216-0.186,0.31
		c-0.068,0.098-0.195,0.216-0.3,0.281c-0.159,0.098-0.85,0.153-0.862,0.362c-0.008,0.135,0.199,0.307,0.222,0.463
		c0.029,0.198-0.067,0.415,0.096,0.572c0.124-0.045,0.229-0.135,0.356-0.179c0.065,0.491,0.02,1.404-0.711,1.176
		c-0.02-0.154,0.266-0.184,0.343-0.303c0.058-0.09,0.06-0.233,0.078-0.336c-0.302-0.058-0.64-0.192-0.809,0.074
		c-0.081,0.127-0.066,0.426-0.265,0.467c-0.442,0.092-0.298-0.616-0.328-0.777c-0.421-0.004-0.579,0.053-0.522-0.37
		c0.071-0.524-0.278-0.585-0.484-1.023c0.277-0.243,0.361-0.333,0.124-0.612c-0.184-0.218-0.406-0.398-0.417-0.714
		c-0.007-0.213,0.128-0.522,0.27-0.682c0.183-0.206,0.37-0.114,0.629-0.097c-0.017-0.118-0.006-0.256,0.068-0.346
		c0.175,0.066,0.493,0.157,0.673,0.107c-0.056-0.177-0.092-0.172-0.244-0.209c-0.357-0.086-0.821-0.022-1.189-0.021
		c-1.111,0.003-2.225-0.105-3.337-0.105l1.931,8.832l-0.063,0.918c-0.116,0.107-0.4,0.227-0.476,0.389
		c-0.121,0.256,0.597,0.973-0.026,1.042c0.252,0.202,0.435,0.556,0.774,0.635c0.231,0.054,0.514-0.075,0.745,0.006
		c0.407,0.143,0.719,0.509,1.071-0.056c0.507,0.218,0.946,0.132,1.489,0.167c0.285,0.018,0.509,0.13,0.762,0.223
		c0.22,0.08,0.366,0.117,0.564,0.283c0.331,0.278,0.073,0.549,0.288,0.803c0.062,0.074,0.24,0.083,0.326,0.156
		c0.119,0.102,0.191,0.241,0.227,0.395c0.058,0.247-0.022,0.267,0.164,0.398c0.433,0.303,0.717,0.048,0.81,0.714
		c0.155,0.06,0.383,0.154,0.413-0.087c0.701-0.011,0.678,0.522,0.364,0.965c-0.26,0.367-0.262,0.564-0.211,0.971
		c0.032,0.253,0.025,0.578-0.339,0.503c-0.089,0.431,0.399,0.809,0.406,1.226c0.003,0.185-0.161,0.339-0.189,0.506
		c-0.025,0.152,0.01,0.17,0.034,0.326c0.041,0.274,0.073,0.392-0.102,0.629c-0.139,0.186-0.394,0.267-0.473,0.463
		c-0.206,0.512,0.265,1.303-0.136,1.722c-0.261,0.273-1.069,0.317-0.484,0.681c0.143,0.089,0.298,0.158,0.43,0.269
		c0.156,0.132,0.347,0.337,0.494,0.474c1.009,0.943,0.363,2.316-0.643,2.917c-0.42,0.251-0.898,0.416-1.332,0.66
		c-0.635,0.357-1.312,0.63-1.855,1.129c-0.45,0.414-0.79,0.838-1.351,1.114c-0.482,0.237-0.986,0.29-1.371,0.689
		c-0.269,0.279-0.368,0.602-0.787,0.647c-0.443,0.048-0.993-0.331-1.384-0.519c-0.309-0.147-0.478-0.21-0.815-0.3
		c-0.286-0.076-0.668-0.29-0.976-0.175c-0.241,0.09-0.452,0.911-0.354,1.119c-0.139,0.32-0.456,0.719-0.727,0.94
		c-0.307,0.249-0.599,0.461-0.666,0.866c-0.028,0.172-0.009,0.505-0.114,0.632c-0.079,0.095-0.221,0.087-0.332,0.114
		c-0.386,0.093-0.451,0.207-0.555,0.557c-0.054,0.181-0.102,0.36-0.226,0.517c-0.15,0.191-0.33,0.19-0.574,0.225
		c-0.211,0.031-0.383-0.015-0.521,0.15c-0.321,0.383-0.145,0.764-0.019,1.158c0.112,0.35-0.285,0.679-0.106,1.024
		c-0.176,0.097-0.322,0.174-0.508,0.234c-0.202,0.065-0.11-0.042-0.236,0.15c-0.102,0.155-0.054,0.4-0.226,0.482
		c-0.065,0.031-0.239,0.013-0.316,0.022c-0.011,0.324,0.129,0.465,0.027,0.767c-0.122,0.363-0.192,0.704-0.505,0.969
		c-0.245,0.207-0.451,0.117-0.453,0.471c-0.001,0.267,0.095,0.996-0.321,1.041c0.022,0.317,0.003,0.616,0.136,0.913
		c0.1,0.222,0.252,0.309,0.437,0.455c-0.299,0.102-0.664,0.259-0.969,0.195c-0.075,0.305,0,0.525-0.143,0.804
		c-0.107,0.208-0.075,0.32-0.041,0.566c0.102,0.745,0.327,1.523,0.035,2.262c-0.079,0.199-0.33,0.366-0.381,0.554
		c-0.027,0.1,0.011,0.265,0.026,0.369c0.021,0.147,0.082,0.296,0.043,0.44c-0.068,0.249-0.358,0.525-0.565,0.662
		c-0.142,0.094-0.288,0.174-0.429,0.229c-0.064,0.025-0.182,0.036-0.233,0.075c-0.198,0.152-0.139,0.44-0.15,0.655
		c-0.165-0.059-0.287-0.219-0.46-0.285c-0.093,0.347-0.06,0.485-0.452,0.504c-0.336,0.017-0.669,0.062-1.003,0.088
		c-0.058,0.109-0.106,0.226-0.158,0.337c-0.065,0.137-0.116,0.514-0.204,0.61c-0.125,0.137-0.417-0.027-0.57,0.1
		c-0.124,0.103-0.074,0.399,0.043,0.533c0.273,0.312,0.592,0.48,0.482,0.951c-0.086,0.364-0.401,0.647-0.773,0.635
		c0.011,0.166,0.017,0.33,0.102,0.468c0.215,0.344,0.674,0.521,0.848,0.894c-0.127,0.207-0.189,0.431-0.347,0.625
		c-0.145,0.178-0.335,0.333-0.375,0.562c-0.03,0.167,0.006,0.361,0,0.532c-0.009,0.256-0.007,0.355-0.176,0.513
		c-0.224,0.21-0.247,0.317-0.246,0.636c0.001,0.322-0.003,0.645-0.016,0.964c-0.012,0.276-0.067,0.272-0.278,0.438
		c-0.291,0.229-0.448,0.404-0.818,0.504c-0.231,0.063-0.442,0.095-0.68,0.131c-0.247,0.037-0.512,0.066-0.75,0.152
		c-0.296,0.106-0.398,0.228-0.665,0.374c-0.364,0.2-0.85,0.465-1.114,0.801c-0.136,0.173-0.169,0.57-0.33,0.686
		c-0.079,0.057-0.263,0.062-0.366,0.077c-0.204,0.028-0.494-0.012-0.617,0.171c-0.063,0.095-0.017,0.202-0.091,0.29
		c-0.042,0.049-0.155,0.082-0.212,0.129c0.068,0.094,0.159,0.232,0.26,0.295h0.612l0.063,1.604l-0.549,1.14l0.148,1.604
		l-1.414,2.595c0.118,0.223,0.336,0.479,0.211,0.698c-0.106,0.184-0.337,0.227-0.302,0.502c0.017,0.132,0.09,0.19,0.16,0.303
		c0.141,0.228,0.11,0.415,0.013,0.669c-0.1,0.262-0.292,0.706-0.514,0.884c-0.139-0.112-0.329-0.116-0.494-0.175
		c-0.133-0.047-0.281-0.163-0.42-0.151c-0.075,0.568-0.017,2.048-0.898,1.905c-0.318-0.052-0.597-0.029-0.889,0.164
		c-0.288,0.189-0.263,0.493-0.292,0.796c-0.566-0.209-1.244-0.914-1.829-0.768c-0.378,0.094-0.937,0.166-0.755,0.642
		c0.061,0.159,0.175,0.254,0.249,0.399c0.074,0.145,0.104,0.256,0.063,0.421c-0.061,0.243-0.079,0.441-0.283,0.59
		c-0.186,0.136-0.418,0.227-0.614,0.349c-0.247,0.154-0.49,0.325-0.749,0.46c-0.324,0.169-0.254,0.301-0.364,0.675
		c-0.266-0.088-0.527-0.221-0.791-0.319c-0.538-0.199-0.262,0.278-0.617,0.524v3.904l-0.886,1.055l0.38,2.047l-2.3,3.081l-0.96,2.02
		h-0.285l0.232,2.664c-0.214,0.034-0.389,0.121-0.592,0.185c-0.179,0.056-0.382,0.052-0.555,0.117
		c-0.352,0.132-0.451,0.392-0.364,0.719c0.081,0.307,0.203,0.522,0.062,0.831c-0.135,0.296-0.502,0.294-0.629,0.594
		c-0.095,0.224-0.107,0.52-0.187,0.76c-0.102,0.299-0.167,0.389-0.395,0.59c-0.119,0.105-0.265,0.298-0.095,0.448
		c0.115,0.102,0.512,0.037,0.631,0.042c-0.076,0.191-0.188,0.259-0.288,0.419c-0.08,0.128-0.057,0.264-0.057,0.427
		c-0.001,0.402-0.028,0.843,0.167,1.199c0.118,0.216,0.216,0.35,0.075,0.591c-0.124,0.214-0.222,0.153-0.423,0.144
		c-0.184-0.009-0.169-0.007-0.301,0.083c-0.031,0.021-0.091,0.129-0.131,0.134c-0.098,0.013-0.154-0.135-0.232-0.158
		c-0.295-0.089-0.316,0.392-0.536,0.493c-0.331,0.153-0.796-0.141-1.121,0.073c-0.226,0.149-0.369,0.472-0.558,0.663
		c-0.108,0.11-0.222,0.219-0.359,0.255c-0.096,0.025-0.211-0.031-0.303,0.021c-0.139,0.079-0.176,0.322-0.209,0.474
		c-0.029,0.13-0.056,0.257-0.079,0.387c-0.037,0.204-0.035,0.331-0.253,0.405c-0.34,0.115-0.443,0.051-0.589,0.401
		c-0.066,0.158-0.164,0.372-0.076,0.515c0.044,0.07,0.279,0.158,0.351,0.225c0.213,0.197,0.329,0.418,0.156,0.678
		c-0.086,0.13-0.304,0.243-0.331,0.402c-0.031,0.178,0.19,0.434,0.219,0.625c-0.111,0.04-0.245,0.094-0.343,0.163
		c-0.278,0.196-0.153,0.562-0.172,0.868c-0.022,0.364-0.241,0.446-0.482,0.707c-0.147,0.161-0.397,0.418-0.624,0.454
		c-0.196,0.03-0.315-0.208-0.469-0.214c-0.118-0.005-0.513,0.167-0.552,0.288c-0.104,0.318,0.352,0.671,0.2,1.004
		c-0.121,0.267-0.393,0.271-0.627,0.261c-0.342-0.015-0.752-0.094-0.476,0.344c-0.305-0.027-0.567,0.043-0.826-0.114
		c-0.157-0.095-0.496-0.476-0.673-0.443c-0.072,0.013-0.135,0.157-0.192,0.197c-0.106,0.074-0.167,0.075-0.291,0.067
		c-0.264-0.018-0.502-0.155-0.768-0.167c-0.031,0.164-0.06,0.386-0.192,0.451c-0.171,0.084-0.647-0.019-0.818-0.02
		c0.03-0.146,0.039-0.308,0-0.453c-0.157,0.134-0.346,0.431-0.523,0.17c-0.145-0.214-0.048-0.685-0.048-0.92
		c0-0.37-0.008-0.736-0.026-1.106c-0.008-0.17,0.035-0.694-0.06-0.837c-0.085-0.129-0.372-0.17-0.509-0.232
		c-0.369-0.166-0.29-0.051-0.581,0.128c-0.22,0.136-0.581,0.147-0.839,0.188c-0.403,0.064-0.733,0.034-0.952-0.317
		c-0.167-0.267-0.027-0.607-0.133-0.894c-0.34-0.041-0.523-0.226-0.73-0.477c-0.156-0.189-0.276-0.207-0.477-0.329
		c-0.292-0.177-0.228-0.393-0.229-0.706c0-0.158-0.016-0.33,0.025-0.484c0.06-0.222,0.487-0.621,0.185-0.801l-0.549-0.485
		l-0.675,0.042l-1.372-1.372l-0.844-0.063l-0.443-0.527l0.042-0.823l-0.549-0.57l-0.106,2.406l-0.295,1.372l-0.865,0.612
		l-0.401-0.274l-4.073,0.422l-0.654-0.823v-1.245l-0.411-0.39l-4.78,4.337c-0.266,0.01-0.529-0.09-0.776-0.168
		c-0.204-0.065-0.37-0.223-0.51-0.058c-0.14,0.165-0.134,0.64-0.192,0.839c-0.091,0.314-0.051,0.61-0.113,0.929
		c-0.257-0.022-0.349,0.945-0.416,1.138c-0.171,0.496-0.381,0.987-0.51,1.501c-0.138-0.003-0.303,0.036-0.432,0.02
		c-0.186-0.024-0.173-0.132-0.348-0.191c-0.207,0.347-0.366,0.12-0.651,0.089c-0.291-0.032-0.378,0.298-0.454,0.525
		c-0.067,0.199-0.177,0.404-0.361,0.525c-0.19,0.124-0.417,0.189-0.618,0.328c-0.419-0.093-0.667-0.032-1.105,0.004
		c-0.065,0.596-0.5,1.365-0.266,1.955c-0.25,0.06-0.748-0.216-1.01-0.314c-0.174-0.066-0.318-0.189-0.506-0.221
		c-0.175,0.475-0.418,0.929-0.611,1.398c-0.186,0.454-0.632,0.952-0.655,1.449c-0.624,0.164-1.453,0.063-1.728,0.824
		c-0.092,0.253-0.038,0.404-0.214,0.619c-0.13,0.158-0.299,0.29-0.456,0.427c-0.375,0.326-0.791,0.607-1.157,0.948
		c-0.436,0.406-0.899,0.785-1.326,1.206c-0.362,0.358-0.496,0.545-1.063,0.51c-0.061,0.179-0.023,0.432-0.002,0.628
		c-0.563-0.038-1.06,0.474-1.041,1.043c0.216-0.017,0.449,0.026,0.66,0.045c0.006,0.53-0.385,1.014-0.415,1.569
		c-0.131,0.004-0.265-0.001-0.397,0.007c-0.015,0.235,0.251,0.404,0.393,0.571c0.216,0.253,0.442,0.511,0.64,0.773
		c0.34,0.45,0.391,0.754,0.109,1.252c-0.257,0.454-0.886,0.935-1.029,1.4c-0.083,0.27,0.052,0.655,0.034,0.939
		c-0.016,0.259-0.09,0.485-0.189,0.725c-0.135,0.324-0.269,0.579-0.285,0.941c-0.013,0.299,0.062,0.566,0.089,0.851
		c0.048,0.489-0.005,1.009-0.168,1.466c-0.155,0.435-0.342,0.753-0.761,0.951c-0.158,0.076-0.361,0.089-0.475,0.252
		c-0.142,0.204-0.118,0.526-0.205,0.749c-0.078,0.2-0.034,0.176-0.236,0.299c-0.091,0.055-0.308,0.076-0.344,0.19
		c-0.052,0.165,0.169,0.249,0.137,0.445c-0.037,0.226-0.6,0.475-0.602,0.695c-0.003,0.393-0.115,0.461-0.455,0.652
		c-0.212,0.119-0.47,0.185-0.454,0.443c0.017,0.274,0.318,0.573,0.414,0.82c-0.4,0.175-0.806,0.307-0.982,0.745
		c-0.091,0.226-0.21,0.446-0.265,0.686c-0.058,0.252,0.035,0.511-0.021,0.755c-0.085,0.368-0.52,0.384-0.717,0.645
		c-0.119,0.157-0.104,0.532-0.06,0.708c0.055,0.22,0.231,0.308,0.358,0.488c-0.213,0.231-0.482,0.235-0.476,0.626
		c0.002,0.157,0.033,0.381,0.119,0.514c0.218,0.334,0.648,0.015,0.905-0.124c-0.073,0.91,0.991,0.547,1.55,0.485
		c0.219-0.024,1.448,0.064,1.273-0.46c-0.058-0.172-0.404-0.32-0.529-0.461c-0.19-0.215-0.247-0.491-0.352-0.751
		c-0.16-0.395-0.4-0.765-0.478-1.183c-0.049-0.264-0.128-0.768,0.014-0.999c0.181,0.447,0.44,0.856,0.6,1.317
		c0.14,0.403,0.335,0.85,0.654,1.133c0.251,0.222,0.708,0.706,0.977,0.338c0.113-0.154,0.105-0.309,0.321-0.282
		c0.173,0.021,0.293,0.169,0.418,0.268c0.334,0.266,0.55,0.462,0.86,0.758c0.372,0.356,0.119,0.507-0.013,0.92
		c-0.119,0.375-0.068,0.958,0.158,1.281c0.299,0.426,0.393,0.395,0.337,0.934c-0.043,0.417-0.017,0.659,0.309,0.909
		c0.629,0.482,1.146,0.759,0.98,1.629c-0.117,0.618-0.298,1.052,0.389,1.394c0.358,0.179,0.739,0.298,1.095,0.492
		c0.248,0.135,0.421,0.598,0.691,0.598c0.25,0,0.577,0.052,0.82-0.02c0.145-0.043,0.236-0.138,0.36-0.216
		c0.196,0.338-0.159,0.936,0.254,1.187c0.169,0.103,0.517,0.056,0.696-0.018c0.285-0.119,0.469-0.446,0.73-0.607
		c-0.01,0.313,0.068,0.652,0.344,0.823c0.263,0.163,0.495,0.374,0.758,0.543c0.398,0.256,1.538,0.48,1.632-0.224
		c-0.097-0.091-0.209-0.204-0.234-0.33c-0.034-0.168,0.119-0.32,0.082-0.483c-0.036-0.16-0.246-0.243-0.291-0.395
		c-0.045-0.152,0.021-0.486,0.051-0.642c0.06-0.304,0.262-0.549,0.338-0.855c0.051-0.207,0.061-0.519,0.345-0.431
		c0.232,0.072,0.219,0.273,0.24,0.473c0.026,0.256,0.145,0.565,0.384,0.702c0.252,0.145,0.581-0.054,0.804,0.148
		c0.157,0.143,0.162,0.359,0.428,0.239c0.232-0.104,0.425-0.339,0.668-0.454c0.192-0.091,0.464-0.23,0.682-0.198
		c-0.038,0.385-0.448,0.74-0.608,1.094c-0.253-0.019-0.286,0.378-0.272,0.55c0.127,0.029,0.241,0.083,0.361,0.13
		c0.333,0.131,0.689,0.157,1.027,0.28c-0.148,0.074-0.338,0.22-0.485,0.314c0.103,0.148,0.212,0.308,0.356,0.431
		c0.104,0.089,0.257,0.129,0.356,0.215c0.161,0.139,0.195,0.367,0.279,0.556c-0.36-0.364-0.429-0.071-0.877,0.08
		c0.005-0.183-0.159-0.259-0.3-0.324c-0.143-0.068-0.301-0.113-0.455-0.149c-0.074-0.017-0.395-0.147-0.456-0.124
		c-0.145,0.057-0.193,0.379-0.252,0.519c-0.133,0.317-0.172,0.502-0.105,0.865c-0.224-0.121-0.38-0.394-0.605-0.488
		c-0.089,0.294,0.342,0.836,0.505,1.056c0.249,0.336,0.52,0.713,0.648,1.111c0.12,0.377,0.085,0.779,0.085,1.172
		c0,0.135-0.035,0.314,0.063,0.412c0.1,0.099,0.499,0.174,0.639,0.208c-0.034,0.226-0.153,0.305-0.259,0.467
		c0.757,1.104,2.219,1.692,3.029,2.776c0.776,1.038,1.077,2.318,1.646,3.47c0.221,0.447,0.485,1.084,0.297,1.594
		c-0.105,0.286-0.476,0.541-0.632,0.791c-0.5,0.803-0.28,1.808-0.551,2.679c-0.174,0.561-0.882,1.712-0.456,2.29
		c0.025,0.553-0.364,1.236-0.474,1.788c-0.121,0.607-0.223,1.16-0.222,1.779c0.002,1.311-0.188,2.463,0.506,3.618
		c0.298,0.496,0.618,0.899,1.21,1.038c0.424,0.099,0.708,0.113,0.974,0.482h22.411c0-0.326-0.074-0.837,0.045-1.064
		c0.065-0.124,0.173-0.127,0.21-0.288c0.043-0.189-0.094-0.38-0.147-0.55c0.786-0.159,1.607-0.25,2.413-0.25
		c0.236,0,0.473,0.004,0.709,0.003c0.18-0.001,0.18-0.031,0.39,0.03c0.116,0.034,0.199,0.081,0.322,0.093
		c0.254,0.026,0.474-0.069,0.714-0.142c0.16-0.049,0.621-0.281,0.789-0.238c0.182,0.046,0.178,0.268,0.346,0.347
		c0.117,0.055,0.309-0.058,0.422,0.008c0.137,0.081,0.21,0.396,0.301,0.529c0.345-0.136,0.885-0.273,1.268-0.188
		c0.187,0.041,0.287,0.176,0.508,0.191c0.214-0.704,1.131-0.411,1.752-0.411c0.555,0,1.261,0.155,1.798,0.063
		c0.17-0.029,0.248-0.145,0.428-0.192c0.309-0.079,0.398,0.134,0.649,0.242c0.228,0.098,0.466,0.022,0.7,0.076
		c0.307,0.071,0.38,0.371,0.649,0.556c0.73-0.424,1.004-0.869,1.832-0.597c0.559,0.184,1.1,0.566,1.709,0.58
		c0.634,0.015,1.194-0.513,1.821-0.446c0.941,0.1,1.757,1.044,2.727,1.011c0.563-0.019,0.995-0.926,1.562-0.784
		c0.266,0.067,0.532,0.618,0.835,0.57c0.144-0.023,0.333-0.302,0.516-0.354c0.496-0.141,1.242,0.003,1.758,0.003
		c0.376,0,0.837,0.078,1.203,0.005c0.317-0.063,0.539-0.344,0.808-0.52c0.299-0.197,0.558-0.131,0.915-0.188
		c-0.008,0.098,0.057,0.198,0.062,0.292c0.311,0.064,0.865-0.035,1.14,0.093c0.132,0.061,0.276,0.392,0.369,0.499
		c0.308,0.355,0.176,0.216,0.014,0.682c-0.047,0.135-0.189,0.16-0.009,0.341h16.556c0.697,0,0.969-0.482,1.598-0.022
		c0.369,0.269,0.518,0.503,0.772,0.876c-0.243-0.61,0.812-0.58,1.151-0.67c0.431-0.113,0.853-0.287,1.089-0.695
		c0.543,0.177,0.923,0.601,0.891,1.172c0.385,0.031,0.577-0.036,0.861,0.195c0.171,0.139,0.468,0.474,0.467-0.006
		c0.193,0.028,0.314,0.152,0.299,0.342c0.324,0.13,0.228,0.278,0.409,0.469c0.086,0.091,0.453,0.213,0.592,0.237
		c0.067-0.168,0.194-0.206,0.345-0.285c0.09-0.047,0.202,0.003,0.277-0.055c0.104-0.08,0.165-0.319,0.235-0.434
		c0.171,0.134,0.205,0.343,0.354,0.483c0.119,0.113,0.297,0.159,0.434,0.248c-0.026,0.282-0.363,0.75-0.078,0.966
		c0.224,0.17,0.775,0.119,0.933-0.086c0.108-0.14,0.011-0.271,0.208-0.352c0.213-0.087,0.368,0.043,0.534,0.177
		c0.251,0.204,0.294,0.469,0.504,0.67c0.131-0.099,0.256-0.317,0.426-0.31c0.043,0.002,0.138,0.144,0.196,0.169
		c0.162,0.07,0.343,0.079,0.519,0.091c0.045-0.123,0.034-0.256,0.017-0.386c0.526-0.188,0.398-0.126,0.522-0.666
		c0.476-0.033,0.465,0.1,0.62,0.476c0.24-0.322,0.406-0.426,0.832-0.354c0.316,0.054,0.32,0.116,0.302,0.491
		c0.369,0.172,0.505,0.095,0.637,0.459c0.08,0.221,0.13,0.46,0.228,0.665c0.522-0.226,0.3,0.025,0.605,0.267
		c0.203,0.161,0.441,0.011,0.648-0.115c0.51-0.311,0.992-0.62,1.567-0.817c0.226,0.048,0.387,0.15,0.567,0.191
		c0.238,0.053,0.481-0.168,0.725-0.027c0.141,0.082,0.186,0.262,0.386,0.344c0.191,0.078,0.404,0.099,0.603,0.141
		c0.58,0.121,1.145,0.191,1.735,0.237c0.47,0.037,0.379,0.098,0.637,0.492c0.169,0.259,0.546,0.776,0.81,0.936
		c0.224,0.135,0.624,0.039,0.82,0.21c0.154,0.134,0.174,0.469,0.227,0.668c0.397-0.198,0.436-0.339,0.728-0.017
		c0.233,0.256,0.348,0.233,0.712,0.253c0.217,0.012,0.43,0.047,0.646,0.057c0.336,0.016,0.562-0.088,0.469,0.309
		c-0.062,0.269-0.232,0.471-0.234,0.767c-0.004,0.423,0.31,1.106,0.724,0.563c0.201-0.264,0.029-0.378,0.419-0.54
		c0.247-0.102,0.719-0.251,0.979-0.076c-0.082-0.512-0.169-1.019-0.26-1.529c-0.086-0.481-0.02-1.113-0.259-1.546
		c-0.193-0.014-0.389-0.009-0.583-0.002c-0.041-0.515-0.237-0.803-0.466-1.245c-0.231-0.445-0.178-0.529,0.083-0.93
		c0.148-0.228,0.22-0.381,0.245-0.652c0.009-0.103-0.042-0.192-0.027-0.287c0.015-0.093,0.112-0.205,0.129-0.352
		c0.034-0.291-0.186-1.361,0.001-1.554C160.695,184.94,161.042,184.985,161.193,184.994z"/>
	<path fill="#1E8346" d="M133.665,6.991c0.083-0.035,0.104-0.142,0.172-0.194c0.062-0.047,0.11-0.039,0.151-0.096
		c0.019-0.026,0.05-0.078,0.06-0.109c0.042-0.13-0.046-0.146-0.152-0.114c-0.129,0.038-0.286,0.073-0.476,0.095
		c0,0.134-0.015,0.287,0.025,0.419C133.505,7.005,133.607,7.015,133.665,6.991z"/>
	<path fill="#1E8346" d="M134.716,7.103c0.004-0.115,0.027-0.243-0.111-0.325c-0.069,0.036-0.13,0.104-0.189,0.154
		c-0.087,0.072-0.207,0.154-0.207,0.283C134.211,7.459,134.708,7.352,134.716,7.103z"/>
</g>
</svg>
