<?xml version="1.0" encoding="utf-8"?>
<!-- Generator: Adobe Illustrator 26.0.3, SVG Export Plug-In . SVG Version: 6.00 Build 0)  -->
<svg version="1.1" id="Isolation_Mode" xmlns="http://www.w3.org/2000/svg" xmlns:xlink="http://www.w3.org/1999/xlink" x="0px"
	 y="0px" viewBox="0 0 200 200" enable-background="new 0 0 200 200" xml:space="preserve">
<path fill="#1E8346" d="M139.924,12.499l17.844-7.138c-0.09,0.805,0.434,1.193,0.795,1.841c0.375,0.672,0.369,1.196,0.368,1.98
	c-0.002,1.909,0.889,2.965,2.171,4.341c1.334,1.432,2.33,2.755,3.408,4.385c0.507,0.768,1.062,1.518,1.647,2.226
	c1.396,1.69,2.607,3.657,4.16,5.185c1.375,1.353,2.826,3.067,3.632,4.892c0.189,0.427,0.428,1.434,0.86,1.712
	c0.577,0.371,1.096-0.184,1.648-0.429c0.014-0.377,0.027-0.772-0.022-1.144c1.279-0.032,1.189,0.222,0.904,1.336
	c-0.451,1.759,0.755,2.987,1.064,4.569c0.145,0.742,0.112,1.096,0.774,1.395c1.007,0.455,1.254,0.51,1.837,1.727
	c0.957,1.997,1.182,3.825,1.271,6.016c0.101,2.515-0.175,5.51,1.49,7.561c0.499,0.614,1.036,1.12,1.361,1.844
	c0.264,0.588,0.08,1.404,0.357,1.92c0.383,0.712,0.911,0.754,1.042,1.693c0.112,0.808,0.106,1.837,0.017,2.653
	c-0.042,0.39-0.231,0.736-0.234,1.115c-0.004,0.534,0.369,0.913,0.485,1.426c0.218,0.959,0.136,2.103,0.136,3.122
	c0,1.108,0.155,2.291,0.155,3.415c0,1.201-0.217,2.22-0.505,3.367c-0.547,2.173-1.457,4.345-2.708,6.302
	c-0.627,0.98-0.765,2.274-1.417,3.168c-0.97,1.33-4.001,0.733-5.484,0.563c-1.045-0.119-1.56,0.215-2.156,1.077
	c-0.675,0.977-1.151,0.813-2.321,0.728c-2.172-0.158-4.602-0.244-6.673,0.429c-1.188,0.386-2.183,0.907-3.385,1.213
	c-1.57,0.4-1.468,1.353-2.349,2.455c-0.633,0.791-1.297,1.748-2.017,2.463c-0.823,0.817-1.708,1.381-2.483,2.281
	c0.131,1.128-0.714,1.73-1.489,2.304c-0.732,0.543-1.355,1.194-2.136,1.679c-0.988,0.615-1.277,0.956-1.885,1.896
	c-0.605,0.934-1.237,1.213-2.31,1.371c-0.747,0.11-1.475,0.196-2.227,0.198c-0.442,0.001-1.106-0.197-1.502-0.07
	c-0.284,0.092-0.447,0.447-0.685,0.528c-0.424,0.144-0.966-0.062-1.408,0.004c-1.438,0.215-1.856,1.38-2.417,2.505
	c-0.489,0.981-1.229,1.114-2.347,0.972c-1.381-0.176-2.077-1.198-3.359-1.447c-0.906-0.176-2.249,0.165-3.098,0.456
	c-0.559,0.192-0.937,0.469-1.441,0.758c-0.617,0.354-1.067,0.332-1.778,0.481c-1.033,0.216-1.319,0.959-2.019,1.629
	c-1.128,1.08-3.349,0.623-4.81,0.623c-0.526,1.123-1.496,2.446-1.921,3.614c-0.363,1-0.329,2.072-0.735,3.084
	c-0.506,1.258-1.888,1.749-2.88,2.537c-1.03,0.819-1.979,1.59-2.35,2.915c-0.471,1.68-0.816,3.779-1.578,5.344
	c-0.171,0.351-0.515,0.585-0.666,0.932c-0.14,0.323-0.006,0.658-0.114,0.963c-0.442,1.251-0.669-0.095-1.473,0.076
	c-0.606,0.129-0.384,0.778-1.164,0.573c-0.657-0.173-0.727-0.927-1.496-0.883c0.27,0.31,0.732,0.633,0.711,1.068
	c-1.044,0.146-1.884-0.078-2.725-0.654c-0.522-0.356-1.376-1.245-2.067-1.112c-0.503,0.097-0.615,0.913-1.086,1.078
	c-0.5,0.176-1.039-0.354-1.331-0.669c-0.763-0.825-1.362-1.639-2.507-1.931c-0.908-0.232-2.079-0.395-2.92-0.008
	c-0.628,0.288-0.977,0.557-0.394,0.979c0.837,0.606,0.461,0.102,0.778,0.773c0.071,0.151,0.132,0.345,0.179,0.496
	c0.136,0.445,0.366,1.135,0.756,1.306c-0.386,0.972-2.35,1.712-1.167,3.142c0.85,1.027,2.474,1.422,3.405,2.37
	c0.419,0.427,0.567,0.592,1.097,0.865c0.405,0.208,0.815,0.464,1.164,0.758c0.994,0.838,1.375,1.952,2.806,2.018
	c1.168,0.055,2.513,0.442,2.758-0.851c0.13-0.688-0.032-1.004,0.651-1.167c0.507-0.121,1.353,0.153,1.859,0.253
	c0.477,0.094,2.46,0.941,2.854,0.607c0.068-0.058,0.508-1.988,0.482-2.121c-0.145-0.737-1.304-0.739-1.854-1.203
	c-0.48-0.406-0.919-1.263-1.255-1.802c0.535-1.244,1.617-0.218,2.178-1.146c0.242-0.401-0.052-0.841,0.499-0.952
	c0.113-0.022,0.37,0.283,0.442,0.301c0.278,0.069,0.619,0.061,0.903,0.087c0.147-1.032,0.85-0.592,1.564-0.846
	c0.249-0.088,0.37-0.304,0.575-0.388c0.509-0.21,1.117-0.138,1.639-0.331c0.726-0.268,0.932-0.876,1.721-0.993
	c0.608-0.09,1.304,0.078,1.991,0.005c0.426-0.045,1.283-0.186,1.666-0.415c0.476-0.285,0.507-0.711,0.847-1.067
	c0.738-0.772,1.75-0.54,2.791-0.619c0.731-0.056,1.484-0.086,2.218-0.215c0.119-0.021,0.568,0.068,0.623,0.022
	c0.317-0.259,0.008-0.787,0.217-0.988c0.38-0.367,1.03,0.888,1.387,1.183c0.626-0.803,1.393-0.217,2.223-0.227
	c1.333-0.016,2.587-0.483,3.912-0.613c2.806-0.276,5.721,0.214,8.447-0.016c1.821-0.154,3.671,0.039,5.49-0.015
	c0.625-0.018,1.309-0.23,1.939-0.144c0.873,0.119,0.669,0.53,1.166,0.929c0.773,0.621,2.399-0.048,3.321-0.146
	c1.266-0.133,2.561-0.942,1.505-2.371c0.49-0.433,1.357-0.63,1.614-1.275c0.385,0.999,0.21,2.104,0.497,3.109
	c0.169,0.593,0.577,1.342,0.854,1.866c0.626,1.181,1.133,2.272,1.803,3.409c0.46,0.78,0.547,1.914,1.331,2.476
	c0.799,0.573,1.773,0.183,2.629,0.484c0.582,0.204,1.352,0.888,1.68,1.358c0.436,0.626,0.302,1.196,0.448,1.894
	c0.193,0.923,0.719,1.357,1.478,1.85c0.304,0.197,0.621,0.342,0.776,0.698l-30.451,49.225c-0.245-0.16-0.946-0.098-1.244-0.152
	c-0.267-0.048-0.568-0.091-0.815-0.195c-0.324-0.136-0.726-0.299-1.001-0.519c-0.091-0.073-0.281-0.4-0.384-0.431
	c-0.391-0.12-0.97,0.827-1.18,1.063c-0.47,0.529-1.069,0.821-1.625,1.255c-0.383,0.298-0.731,0.714-1.228,0.73
	c-0.663,0.022-1.249-0.217-1.841-0.48c-0.713-0.317-1.511-0.803-2.298-0.756c-0.577,0.034-1.126,0.047-1.671,0.223
	c-1.759,0.569-3.514,0.188-4.866-1.077c-1.021-0.955-2.449-1.655-2.78-3.126c-0.312-1.379-0.707-2.724-1.015-4.096
	c-0.128-0.571-0.65-1.072-1.302-0.972c-0.511,0.079-0.994,0.624-1.559,0.633c-0.572,0.009-1.028-0.489-1.602-0.477
	c-0.63,0.014-1.055,0.516-1.625,0.645c-0.901,0.204-1.164-0.861-1.785-1.229c-0.739-0.438-1.695-0.575-2.484-0.909
	c-0.402-0.17-0.766-0.344-1.199-0.409c-0.32-0.048-0.621-0.215-0.94-0.232l-14.34,3.517l-9.477,6.452l-5.133-1.823l-1.371,1.396
	l-4.758-0.492l-2.664,1.552c-0.274,0.104-0.619,0.129-0.883,0.226c-0.393,0.144-0.81,0.198-1.219,0.284
	c-0.438,0.092-0.859,0.21-1.26,0.404c-0.382,0.185-0.72,0.185-1.148,0.167c-1.447-0.062-3.343-0.205-4.464-1.236l-6.646-0.181
	c-0.551,0.351-1.128,0.993-1.53,1.504c-0.196,0.25-0.356,0.511-0.663,0.615c-0.321,0.109-0.722,0.053-1.052,0.053
	c-0.399,0-0.994-0.102-1.35,0.088c-0.254,0.135-0.358,0.404-0.481,0.646c-0.24,0.472-0.377,1.152-0.722,1.549
	c-0.334,0.384-0.968,0.226-1.44,0.201c-0.39-0.022-0.774-0.086-1.167-0.079c-0.451-0.01-1.024,0.449-1.439,0.622
	c-0.678,0.283-1.365,0.61-2.055,0.854c-0.503,0.179-1.063,0.171-1.596,0.154c-0.587-0.019-1.137-0.235-1.722-0.234
	c-0.605,0.001-0.781,0.085-1.128,0.559c-0.313,0.428-0.556,0.59-1.086,0.527c-0.312-0.038-0.637-0.104-0.917-0.253
	c-0.336-0.178-0.351-0.282-0.404-0.651c-0.034-0.24-0.033-0.526-0.184-0.725c-0.164-0.215-0.486-0.315-0.744-0.414
	c-0.223,0.03-0.494-0.064-0.715-0.085c-0.291-0.028-0.585-0.017-0.877-0.024c-0.596-0.016-1.296-0.188-1.875-0.341
	c-0.557-0.147-1.082-0.348-1.623-0.535c-0.651-0.225-1.355-0.301-2.016-0.508c-0.73-0.228-1.487-0.295-2.232-0.433
	c-0.394-0.073-0.797-0.114-1.2-0.117c-0.365-0.003-0.864,0.087-1.219-0.004c-0.398-0.103-0.542-0.558-0.755-0.868
	c-0.157-0.228-0.225-0.429-0.497-0.428c-0.319,0-0.697,0.186-1.032,0.215c-0.537,0.046-0.961,0.118-1.139-0.421
	c-0.162-0.492-0.407-0.911-0.594-1.388c-0.211-0.539-0.02-0.698,0.4-0.945c0.249-0.146,0.975-0.61,0.842-0.945
	c-0.221-0.56,0.334-1.011,0.428-1.6c0.099-0.619,0.115-1.237,0.115-1.866c0-1.209,0.124-2.398,0.181-3.599
	c0.026-0.559,0.026-1.124,0.026-1.688c0-0.492-0.177-1.332-0.006-1.781c0.153-0.401,0.828-0.704,1.203-0.922
	c0.441-0.255,1.225-0.79,1.7-0.91c0.466-0.118,0.341,0.131,0.779-0.199c0.182-0.137,0.3-0.353,0.463-0.51
	c0.31-0.298,0.68-0.522,1.004-0.797c0.775-0.66,1.459-1.292,2.344-1.785c0.866-0.484,1.309-0.969,1.409-1.979
	c0.062-0.625,0.054-1.19-0.473-1.602c-1.001-0.782-0.704,0.264-0.722,0.807c-0.776,0.275-1.711-2.077-2.194-2.531
	c-0.54-0.506-1.333-1.3-2.055-1.541c-0.342-0.114-0.75,0.06-1.073-0.122c-0.374-0.211-0.233-0.452-0.349-0.867
	c-0.159-0.565-0.543-0.862-0.581-1.488c-0.018-0.293,0.033-0.52-0.101-0.791c-0.151-0.305-0.455-0.372-0.631-0.634
	c-0.342-0.509-0.191-1.708-0.302-2.298l-1.138-9.051l-3.879-14.171l2.483-6.931l0.362-2.638l1.138-1.862l0.052-3.052l3.31-10.448
	l6.362-3.517l0.517-2.327l5.431-2.328l13.654-19.809l4.965-9.258l3.103-0.569l1.345-4.758l9-13.241l5.637-4.965l2.948-8.896
	l7.034-8.12l5.741-5.896l8.069,2.948l5.43,4.396l4.138,4.499l7.189,6.155c0-0.954,0.189-1.356,0.917-1.994
	c0.358-0.315,0.635-0.49,1.111-0.568c0.486-0.08,0.816,0.162,1.275,0.163c0.299,0,0.431-0.171,0.666-0.238
	c0.178-0.051,0.224-0.118,0.448-0.135c0.433-0.032,0.798,0.331,1.062-0.095c0.163-0.264-0.018-0.812,0.054-1.118
	c0.126-0.529,0.287-0.332,0.721-0.515c0.35-0.147,0.299-0.077,0.468-0.518c0.08-0.208,0.156-0.575,0.31-0.723
	c0.451-0.433,1.629-0.255,2.143-0.259c0.906-0.005,2.183-0.324,2.888-0.89c0.882-0.709,0.886-1.497,0.741-2.492
	c-0.15-1.037,0.102-2.044-0.855-2.793c-0.504-0.395-1.224-0.033-1.555-0.596c-0.347-0.591-0.017-1.55,0.052-2.178
	c0.062-0.562-0.076-1.22,0.431-1.56c0.119-0.08,0.3,0.072,0.442-0.087c0.136-0.152,0.119-0.59,0.168-0.785
	c0.43,0.116,0.368-0.145,0.581-0.379c0.24-0.264,0.537-0.457,0.779-0.753c0.308-0.378,0.319-0.981,0.71-1.278
	c0.396-0.301,0.594-0.01,0.944-0.064c0.487-0.075,0.382-0.549,0.747-0.727c0.424-0.207,0.866,0.218,1.284-0.129
	c0.76-0.631-0.702-1.307,0.172-1.736c0.252-0.382,0.252-0.908,0.361-1.324c0.097-0.37,0.19-0.788,0.303-1.161
	c0.95-0.277,1.899,0.07,2.12-1.229c0.136-0.796-0.02-1.323,0.905-1.511c0.702-0.143,0.697,0.027,1.119,0.469
	c0.282,0.294,0.554,0.442,0.985,0.286c0.611-0.221,0.755-0.866,1.214-1.216c0.435-0.332,0.944-0.14,1.449-0.287
	C138.664,14.239,139.699,13.597,139.924,12.499z"/>
</svg>
