<?xml version="1.0" encoding="utf-8"?>
<!-- Generator: Adobe Illustrator 26.0.3, SVG Export Plug-In . SVG Version: 6.00 Build 0)  -->
<svg version="1.1" xmlns="http://www.w3.org/2000/svg" xmlns:xlink="http://www.w3.org/1999/xlink" x="0px" y="0px"
	 viewBox="0 0 200 200" enable-background="new 0 0 200 200" xml:space="preserve">
<g id="Isolation_Mode">
	<path fill="#1E8346" d="M191.634,144.946l0.005,0l-0.008-0.006l-0.906-1.968l-0.941,0.471l-13.238-10.728v-0.544l-5.611-8.29
		c-0.042-1.195,1.087-2.158,2.175-2.429c1.249-0.311,1.747-0.835,2.195-2.034c0.235-0.628,0.466-1.393,0.277-2.058
		c-0.232-0.822-0.803-1.536-1.049-2.36c-0.204-0.682-0.3-1.357-0.276-2.072c0.026-0.79,0.347-1.381,0.569-2.101
		c0.074-0.24,0.194-0.479,0.161-0.79c-0.04-0.368-0.329-0.466-0.188-0.947c0.214-0.731,0.827-1.289,1.077-2.013
		c0.266-0.77-0.365-1.389-0.534-2.163c-0.18-0.822-0.724-1.558-0.722-2.399c0.002-0.61,0.137-1.082,0.368-1.644
		c0.246-0.601,0.273-1.292,0.305-1.94c0.076-1.556-0.148-3.204-0.572-4.681c-0.281-0.98-0.274-2.056-0.526-3.057
		c-0.239-0.954-0.688-1.813-1.207-2.607c-0.804-1.23-3.04-4.277-1.841-5.694l0.09-0.015c-0.023-0.005-0.046-0.007-0.07-0.007
		c0.241-0.273,0.612-0.484,1.152-0.606l-4.168-18.856c0.061,0,0.121,0,0.182,0l-0.198-0.071l-0.129-0.584l-6.824-4.563v-3.475
		c-0.457-0.27-0.959-0.678-1.331-1.06c-0.35-0.359-0.369-0.622-0.413-1.103c-0.082-0.891-0.613-1.085-1.419-1.368
		c-0.402-0.141-0.839-0.221-1.218-0.417c-0.406-0.21-0.537-0.539-0.684-0.957c-0.257-0.728-0.584-1.422-0.81-2.157
		c-0.177-0.577-0.128-1.271-0.461-1.842c-0.393-0.675-0.67-1.281-0.85-2.04c-0.186-0.78-0.415-1.903-0.019-2.667
		c0.524-1.009,1.195-0.842,2.079-1.137c0.641-1.001,0.45-2.316,1.512-2.99c0.708-0.449,1.404-0.928,2.095-1.397
		c0.644-0.437,1.001-0.63,1.031-1.392c0.042-1.058-0.647-2.527-0.063-3.479c0.375-0.611,2.175-1.872,1.463-2.647
		c-0.497-0.541-1.31-0.077-1.097-1.151c0.135-0.68,0.42-1.046,0.423-1.784c0.004-1.217-0.482-2.06-0.838-3.181
		c-0.234-0.739-0.2-1.378-0.046-1.995c0.023,0.003,0.047,0.006,0.07,0.009l-0.047-0.101c0.166-0.617,0.446-1.217,0.695-1.881
		c0.238-0.635,0.296-1.387,0.327-2.054c0.007-0.137,0.074-0.573-0.024-0.694c-0.256-0.316-1.092-0.25-1.469-0.445
		c-0.22-0.113-0.58-0.316-0.564-0.625c0.022-0.44,0.712-0.416,1.067-0.547c0.542-0.201,1.509-0.498,1.836-0.992
		c0.589-0.891-0.577-1.437,0.739-1.896c0.817-0.285,1.005-0.696,0.78-1.613c-0.739-0.032-1.332,0.206-2.049,0.271
		c-0.942,0.085-1.836-0.039-2.729,0.335c-0.768,0.321-1.376,0.733-2.261,0.619c-0.164-0.021-0.289-0.056-0.39-0.101l-0.548-0.691
		c-0.07-0.121-0.159-0.246-0.299-0.367c-0.469-0.409-1.209-0.141-1.706-0.457c-0.322-0.205-0.426-0.611-0.782-0.815
		c-0.885-0.51-1.314-0.107-1.905,0.526c-0.027,0.029-0.054,0.059-0.081,0.088c-0.008-0.036-0.016-0.073-0.021-0.11l-3.392,1.13
		c-0.419-0.115-0.841-0.236-1.269-0.267c-0.772-0.055-0.901-0.412-1.459-0.928c-0.376-0.348-0.982-0.935-1.543-0.862
		c-0.652,0.085-1.292,1.219-1.749,1.859l-0.02-0.023c0.007,0.007,0.013,0.016,0.019,0.024c-0.056,0.078-0.11,0.151-0.16,0.211
		c-1.607-0.342-2.7,0.486-4.018,1.104c-1.152,0.54-2.098,1.501-3.296,1.645c-0.015-0.022-0.029-0.045-0.045-0.068l-0.306,0.085
		c-0.293-0.005-0.602-0.061-0.934-0.185c-1.45-0.542-2.68-1.475-4.233-1.873c-0.398-0.102-0.795-0.186-1.194-0.257
		c0,0,0-0.003,0.001-0.005l-0.01,0.003c-1.365-0.244-2.736-0.338-4.144-0.498c-1.44-0.163-3.233-0.328-4.509,0.476
		c-0.449,0.283-0.869,0.781-1.354,0.971c-0.694,0.273-1.826,0.032-2.523-0.115c-0.745-0.158-1.283-0.269-1.956-0.027
		c-0.412,0.149-0.82,0.313-1.209,0.497c-0.913,0.43-1.721,1.036-2.591,1.504c0-0.003,0-0.006,0-0.009l-0.019,0.019
		c-0.05,0.027-0.1,0.055-0.15,0.081c-0.994,0-1.875,0.056-2.869,0.056c-1.306,0-2.555,0.39-3.883,0.444
		c-0.268,0.011-0.54,0.019-0.816,0.027c0.015-0.033,0.031-0.065,0.048-0.096l-0.207,0.101c-1.503,0.041-3.093,0.071-4.519,0.333
		c-1.839,0.338-3.464,1.509-5.105,2.334c-1.218,0.612-2.478,0.798-3.495,1.794c-0.757,0.743-1.44,1.534-2.051,2.407
		c-0.465,0.663-0.92,1.566-1.759,1.759c-1.157,0.266-2.381-0.796-3.419-1.167c-1.914-0.684-0.321,1.871-1.377,2.113
		c-0.778,0.179-1.529-1.005-2.339-0.587c-0.247,0.128-0.539,0.544-0.765,0.733c-0.429,0.358-0.941,0.584-1.337,0.964
		c-0.436,0.418-0.688,0.951-0.866,1.513c-0.112,0.354-0.162,0.941-0.392,1.235c-0.754,0.962-2.496,0.741-3.341,1.651
		c-0.695,0.749-1.28,0.887-2.32,1.092c-0.902,0.178-1.832,0.024-2.732,0.264c-0.085,0.637-0.286,0.813,0.109,1.351
		c0.168,0.229,0.318,0.43,0.587,0.548c0.385,0.17,0.827,0.044,1.195,0.257c0.308,0.178,0.669,0.54,0.935,0.789
		c0.291,0.271,0.64,0.483,0.929,0.753c0.657,0.613-0.021,0.708-0.387,1.16c-0.548,0.676,0.456,1.16,0.764,1.652
		c0.428,0.687-0.328,1.008-0.213,1.668c0.109,0.63,0.637,1.245,0.799,1.896c0.197,0.793,0.301,1.53,0.244,2.352
		c-0.043,0.625-0.033,1.488-0.233,2.075c-0.112,0.331-0.457,0.499-0.473,0.883c-0.035,0.83,1.119,0.826,1.266,1.571
		c0.121,0.613-0.087,1.112-0.386,1.637c-0.924,1.627,0.337,2.644,1.34,3.821c0,0.599-0.207,1.258-0.001,1.816
		c0.249,0.674,0.781,1.351,1.299,1.823c0.779,0.709,1.714,1.106,2.421,1.917c0.039,0.045,0.07,0.088,0.097,0.13l-0.803,1.18
		c-0.226,0.155-0.438,0.324-0.558,0.529c-0.183,0.311-0.506,0.79-0.592,1.162l-0.044,0.065c0.01-0.004,0.021-0.006,0.031-0.01
		c-0.001,0.005-0.003,0.011-0.004,0.016c-0.089,0.579,0.46,0.815,0.49,1.316c0.064,1.074-3.448,0.571-4.138,0.44
		c-2.497-0.473-4.78-0.866-7.348-0.757c-1.009,0.042-2.14,0.034-3.13,0.168c-0.564,0.076-0.789,0.318-0.78,0.921
		c0.011,0.796,1.083,1.76,0.835,2.533c-0.141,0.44-1.059,0.703-1.491,0.792c-2.063,0.421-4.222,0.595-6.157,1.46
		c-0.01,0.505,0.015,0.979,0.077,1.471c0.038,0.299,0.204,0.836,0.057,1.114c-0.174,0.331-0.746,0.451-0.975,0.784
		c-0.276,0.401-0.3,0.847-0.099,1.282c0.105,0.228,0.238,0.405,0.453,0.538c0.336,0.209,0.894-0.009,1.158,0.193
		c0.299,0.229,0.444,1.047,0.447,1.418c0.005,0.74-0.459,0.642-0.778,1.166c-0.2,0.33-0.266,1.023-0.231,1.404
		c-0.438,0.727-1.661,0.874-2.397,1.089c-1.101,0.322-2.307,0.482-3.371,0.867c-0.358,0.129-0.465,0.366-0.68,0.652
		c-0.279,0.372-0.659,0.652-0.995,0.973c-0.8,0.765-1.557,1.562-2.504,2.146c-0.959,0.592-2.012,1.063-3.003,1.617
		c-0.469,0.263-0.991,0.562-1.363,0.956c-0.417,0.442-0.623,1.034-0.98,1.521c-0.297,0.405-0.714,0.706-1.007,1.105
		c-0.325,0.443-0.526,0.964-0.742,1.469c-0.14,0.326-0.254,0.823-0.677,0.83c-0.066,0.001-0.132-0.017-0.197-0.046l-0.01-0.033
		l0.001,0.029c-0.361-0.169-0.69-0.737-0.944-0.982c-0.472-0.456-1.332-0.359-1.954-0.387c-0.769-0.035-1.607-0.058-2.372,0.011
		c-1.568,0.14-3.621,0.57-4.857,1.583c-0.594-0.167-1.478-0.593-2.102-0.673c-1.005-0.129-1.953,0.299-2.797,0.8
		c-1.1,0.654-2.415,0.899-3.546,1.521c-1.197,0.658-2.404,1.381-3.496,2.203c-0.975,0.733-2.076,1.2-3.004,2.014
		c-0.671,0.589-1.301,1.754-2.221,1.754v14.151l89.116,61.86v3.51h1.43c0.165,0.621,0.519,1.193,1.174,1.37
		c0.939,0.254,1.538,0.689,1.992,1.602c0.489,0.983,0.832,1.923,2.048,2.053c0.489,0.052,1.033-0.006,1.501-0.124
		c0.552-0.139,1.047-0.503,1.619-0.533c0.675-0.036,0.82,0.44,0.978,1.033c0.144,0.542,0.322,1.08,0.463,1.627
		c0.271,0.018,0.594-0.199,0.721-0.38c0.5,0.103,0.501,0.645,1.05,0.546c0.333-0.06,0.634-0.483,0.841-0.722
		c0.4,0.245,0.37,0.778,0.796,1.024c0.414,0.239,1.027,0.247,1.467,0.408c0.815,0.299,1.775,0.497,2.543,0.862v3.964
		c-0.101,0.892-0.474,1.601-0.825,2.4c-0.274,0.626,0.056,0.747,0.634,1.176c0.41,0.305,0.785,0.652,1.195,0.946l4.789-0.977
		l0.007,0.044v-0.045l17.646-3.599l14.905-13.509l41.143-26.126L191.634,144.946z"/>
</g>
<g id="Layer_1">
</g>
</svg>
