<?xml version="1.0" encoding="utf-8"?>
<!-- Generator: Adobe Illustrator 26.0.3, SVG Export Plug-In . SVG Version: 6.00 Build 0)  -->
<svg version="1.1" id="Layer_1" xmlns="http://www.w3.org/2000/svg" xmlns:xlink="http://www.w3.org/1999/xlink" x="0px" y="0px"
	 viewBox="0 0 200 200" enable-background="new 0 0 200 200" xml:space="preserve">
<path fill-rule="evenodd" clip-rule="evenodd" fill="#1E8346" d="M176.291,16.958c-4.025,0.388-8.114,0.647-12.799,0.854
	c-4.685,0.207-9.965,0.362-15.063,0.569c-5.099,0.207-10.016,0.466-15.853,0.595c-5.836,0.129-12.592,0.129-18.739,0.207
	c-6.147,0.078-11.686,0.233-14.727,0.349c-3.041,0.116-3.585,0.194-4.012,0.272c-0.427,0.078-0.738,0.155-0.906,0.259
	c-0.168,0.104-0.194,0.233-0.207,0.44c-0.013,0.207-0.013,0.492,0,0.867c0.013,0.375,0.039,0.841-0.026,1.294
	c-0.065,0.453-0.22,0.893-0.414,1.294c-0.194,0.401-0.427,0.764-0.738,1.216c-0.311,0.453-0.699,0.997-0.984,1.436
	c-0.285,0.44-0.466,0.777-0.647,1.165c-0.181,0.388-0.362,0.828-0.531,1.307c-0.168,0.479-0.324,0.996-0.466,1.501
	c-0.142,0.505-0.272,0.997-0.453,1.514c-0.181,0.518-0.414,1.061-0.66,1.514c-0.246,0.453-0.505,0.815-0.712,1.281
	c-0.207,0.466-0.362,1.035-0.466,1.618c-0.104,0.582-0.155,1.178-0.337,1.734c-0.181,0.556-0.492,1.074-0.699,1.592
	c-0.207,0.518-0.311,1.035-0.634,1.423c-0.324,0.388-0.867,0.647-1.268,1.087c-0.401,0.44-0.66,1.061-0.983,1.437
	c-0.323,0.375-0.712,0.505-0.983,0.699c-0.272,0.194-0.427,0.453-0.712,0.647c-0.285,0.194-0.699,0.324-1.074,0.479
	c-0.375,0.155-0.712,0.337-1.178,0.699c-0.466,0.362-1.061,0.906-1.669,1.411c-0.608,0.505-1.229,0.971-1.579,1.32
	c-0.349,0.349-0.427,0.582-0.647,0.699c-0.22,0.117-0.582,0.117-0.945,0.104c-0.362-0.013-0.725-0.039-1.061-0.091
	c-0.336-0.052-0.647-0.13-0.919-0.104c-0.272,0.026-0.505,0.155-0.673,0.427c-0.168,0.272-0.272,0.686-0.375,1.009
	c-0.104,0.324-0.207,0.557-0.453,0.893c-0.246,0.337-0.634,0.777-0.957,0.919c-0.324,0.142-0.583-0.013-0.738,0.013
	c-0.155,0.026-0.207,0.233-0.453,0.375c-0.246,0.142-0.686,0.22-1.087,0.401c-0.401,0.181-0.764,0.466-0.971,0.789
	c-0.207,0.324-0.259,0.686-0.466,0.815c-0.207,0.13-0.569,0.026-0.841,0.078c-0.272,0.052-0.453,0.259-0.518,0.531
	c-0.065,0.272-0.013,0.608,0.103,0.932c0.116,0.324,0.298,0.634,0.362,0.984c0.065,0.349,0.013,0.738-0.142,1.126
	c-0.155,0.388-0.414,0.777-0.582,1.268c-0.168,0.492-0.246,1.087-0.453,1.644c-0.207,0.556-0.544,1.074-0.983,1.695
	c-0.44,0.621-0.984,1.346-1.398,2.161c-0.414,0.815-0.699,1.721-0.854,2.433c-0.155,0.712-0.181,1.229-0.194,1.669
	c-0.013,0.44-0.013,0.802-0.116,1.113c-0.104,0.311-0.311,0.569-0.531,0.802c-0.22,0.233-0.453,0.44-0.582,0.725
	c-0.129,0.285-0.155,0.647-0.323,0.906c-0.168,0.259-0.479,0.414-0.88,1.139c-0.401,0.725-0.893,2.019-1.022,2.808
	c-0.129,0.789,0.104,1.074,0.246,1.398c0.142,0.324,0.194,0.686,0.168,1.087c-0.026,0.401-0.13,0.841-0.13,1.203
	c0,0.362,0.104,0.647,0.116,0.971c0.013,0.323-0.065,0.686-0.129,1.048c-0.065,0.362-0.116,0.725-0.142,1.229
	c-0.026,0.505-0.026,1.152,0.026,1.76c0.052,0.608,0.155,1.178,0.091,1.656c-0.065,0.479-0.298,0.867-0.595,1.126
	c-0.298,0.259-0.66,0.388-0.815,0.608c-0.155,0.22-0.104,0.531-0.078,0.828c0.026,0.298,0.026,0.583,0.091,1.1
	c0.065,0.518,0.194,1.268,0.246,1.773c0.052,0.505,0.026,0.764-0.078,1.074c-0.104,0.311-0.285,0.673-0.466,0.751
	c-0.181,0.078-0.362-0.13-0.543-0.311c-0.181-0.181-0.362-0.337-0.595-0.388c-0.233-0.052-0.518,0-0.764,0.116
	c-0.246,0.116-0.453,0.298-0.543,0.479c-0.091,0.181-0.065,0.362-0.052,0.543c0.013,0.181,0.013,0.362-0.116,0.557
	c-0.129,0.194-0.388,0.401-0.699,0.556c-0.311,0.155-0.673,0.259-0.983,0.336c-0.311,0.078-0.57,0.13-0.815,0.233
	c-0.246,0.104-0.479,0.259-0.673,0.453c-0.194,0.194-0.349,0.427-0.686,0.738c-0.336,0.311-0.854,0.699-1.203,1.035
	c-0.349,0.336-0.531,0.621-0.686,0.958c-0.155,0.336-0.285,0.725-0.492,1.009c-0.207,0.285-0.492,0.466-0.751,0.647
	c-0.259,0.181-0.492,0.363-0.751,0.608c-0.259,0.246-0.544,0.556-0.841,0.919c-0.298,0.362-0.608,0.777-0.906,1.035
	c-0.298,0.259-0.582,0.362-0.88,0.492c-0.298,0.129-0.608,0.285-0.854,0.44c-0.246,0.155-0.427,0.311-0.453,0.518
	c-0.026,0.207,0.104,0.466,0,0.621c-0.104,0.155-0.44,0.207-0.686,0.323c-0.246,0.116-0.401,0.298-0.544,0.531
	c-0.142,0.233-0.272,0.518-0.362,0.828c-0.091,0.311-0.142,0.647-0.337,0.725c-0.194,0.078-0.531-0.104-0.854-0.142
	c-0.323-0.039-0.634,0.065-1.022,0.311c-0.388,0.246-0.854,0.634-1.255,0.919c-0.401,0.285-0.738,0.466-1.035,0.66
	c-0.298,0.194-0.557,0.401-0.997,0.776c-0.44,0.375-1.061,0.919-1.592,1.411c-0.531,0.492-0.971,0.932-1.255,1.307
	s-0.414,0.686-0.517,1.009c-0.104,0.323-0.181,0.66-0.272,0.945c-0.09,0.285-0.194,0.518-0.272,0.841
	c-0.078,0.323-0.13,0.738-0.091,0.945c0.039,0.207,0.168,0.207,0.414,0.259c0.246,0.052,0.608,0.156,0.815,0.142
	c0.207-0.013,0.259-0.142,0.324-0.311c0.065-0.168,0.142-0.375,0.181-0.595c0.039-0.22,0.039-0.453,0.039-0.66
	c0-0.207,0-0.388,0.052-0.621c0.052-0.233,0.155-0.518,0.349-0.88c0.194-0.362,0.479-0.802,0.763-1.113
	c0.285-0.311,0.569-0.492,0.919-0.634c0.349-0.142,0.764-0.246,1.022-0.233c0.259,0.013,0.362,0.142,0.414,0.311
	c0.052,0.168,0.052,0.375-0.039,0.582c-0.091,0.207-0.272,0.414-0.466,0.595c-0.194,0.181-0.401,0.337-0.582,0.544
	c-0.181,0.207-0.337,0.466-0.582,0.841c-0.246,0.375-0.582,0.867-0.815,1.281c-0.233,0.414-0.362,0.751-0.492,1.178
	c-0.129,0.427-0.259,0.945-0.634,1.553c-0.375,0.608-0.997,1.307-1.346,1.799c-0.349,0.492-0.427,0.777-0.466,1.074
	c-0.039,0.298-0.039,0.608-0.142,0.893c-0.104,0.284-0.311,0.543-0.544,0.75c-0.233,0.207-0.492,0.362-0.66,0.582
	c-0.168,0.22-0.246,0.505-0.427,0.79c-0.181,0.285-0.466,0.569-0.647,0.802c-0.181,0.233-0.259,0.414-0.246,0.699
	c0.013,0.285,0.117,0.673-0.039,1.061c-0.155,0.388-0.57,0.777-0.893,1.061c-0.324,0.285-0.557,0.466-0.764,0.647
	c-0.207,0.181-0.388,0.363-0.453,0.505c-0.065,0.142-0.013,0.246,0.103,0.362c0.116,0.116,0.298,0.246,0.505,0.323
	c0.207,0.078,0.44,0.104,0.634,0.168c0.194,0.065,0.35,0.168,0.337,0.323c-0.013,0.155-0.194,0.362-0.388,0.569
	c-0.194,0.207-0.401,0.414-0.479,0.557c-0.078,0.142-0.026,0.22,0.09,0.259c0.116,0.039,0.298,0.039,0.492,0.09
	c0.194,0.052,0.401,0.155,0.44,0.272c0.039,0.116-0.091,0.246-0.259,0.401c-0.168,0.155-0.375,0.337-0.569,0.492
	c-0.194,0.155-0.375,0.285-0.621,0.466c-0.246,0.181-0.557,0.414-0.867,0.608c-0.311,0.194-0.621,0.35-0.88,0.35
	c-0.259,0-0.466-0.155-0.647-0.298c-0.181-0.142-0.336-0.272-0.414-0.259c-0.078,0.013-0.078,0.168-0.052,0.362
	c0.026,0.194,0.078,0.427,0.194,0.699c0.116,0.272,0.298,0.583,0.311,0.828c0.013,0.246-0.142,0.427-0.259,0.556
	c-0.116,0.129-0.194,0.207-0.194,0.401c0,0.194,0.078,0.505,0.052,0.725c-0.026,0.22-0.155,0.35-0.259,0.466
	c-0.104,0.116-0.181,0.22-0.22,0.375c-0.039,0.155-0.039,0.362,0,0.621c0.039,0.259,0.117,0.569,0.117,0.893
	c0,0.324-0.078,0.66-0.104,0.867c-0.026,0.207,0,0.285-0.052,0.35c-0.052,0.065-0.181,0.117-0.246,0.272
	c-0.065,0.155-0.065,0.414-0.091,0.621c-0.026,0.207-0.078,0.362-0.194,0.518c-0.116,0.155-0.298,0.311-0.543,0.375
	c-0.246,0.065-0.556,0.039-0.725,0.129c-0.168,0.091-0.194,0.298-0.285,0.492c-0.091,0.194-0.246,0.375-0.349,0.634
	c-0.104,0.259-0.155,0.596-0.129,0.919c0.026,0.323,0.129,0.634,0.078,0.815c-0.052,0.181-0.259,0.233-0.453,0.427
	c-0.194,0.194-0.375,0.531-0.466,0.699c-0.091,0.168-0.091,0.168-0.194,0.298c-0.104,0.129-0.311,0.388-0.66,0.699
	c-0.349,0.31-0.841,0.672-1.087,0.866c-0.246,0.194-0.246,0.22-0.414,0.298c-0.168,0.078-0.505,0.208-0.699,0.183
	c-0.194-0.026-0.246-0.207-0.285-0.362c-0.039-0.155-0.065-0.285-0.155-0.362c-0.09-0.078-0.246-0.104-0.44-0.104
	c-0.194,0-0.427,0.026-0.699,0.09c-0.272,0.065-0.582,0.168-0.751,0.35c-0.168,0.181-0.194,0.44-0.194,0.712
	c0,0.272,0.026,0.557-0.078,0.777c-0.104,0.22-0.336,0.375-0.608,0.647c-0.272,0.272-0.583,0.66-0.841,0.971
	c-0.259,0.311-0.466,0.544-0.595,0.828c-0.129,0.285-0.181,0.621-0.349,0.906c-0.168,0.285-0.453,0.518-0.66,0.686
	c-0.207,0.168-0.337,0.272-0.531,0.556c-0.194,0.285-0.453,0.751-0.608,1.1c-0.155,0.349-0.207,0.582-0.246,0.88
	c-0.039,0.298-0.065,0.66-0.142,0.971c-0.078,0.311-0.207,0.569-0.363,0.789c-0.155,0.22-0.336,0.401-0.427,0.634
	c-0.091,0.233-0.091,0.518-0.207,0.686c-0.116,0.168-0.349,0.22-0.401,0.388c-0.052,0.168,0.078,0.453,0.272,0.75
	c0.194,0.298,0.453,0.608,0.492,0.815c0.039,0.207-0.142,0.311-0.324,0.505c-0.181,0.194-0.362,0.479-0.453,0.893
	c-0.091,0.414-0.091,0.958-0.052,1.436c0.039,0.479,0.116,0.893,0.168,1.32c0.052,0.427,0.078,0.867,0.065,1.139
	c-0.013,0.272-0.065,0.375-0.207,0.621c-0.142,0.246-0.375,0.634-0.543,0.919c-0.168,0.284-0.272,0.466-0.362,0.686
	c-0.091,0.22-0.168,0.479-0.298,0.647c-0.129,0.168-0.311,0.246-0.362,0.595c-0.052,0.35,0.026,0.971,0.065,1.747
	c0.039,0.777,0.039,1.708,0,2.433c-0.039,0.725-0.117,1.242-0.194,1.566c-0.078,0.324-0.155,0.453-0.259,0.621
	c-0.103,0.168-0.233,0.375-0.375,0.647c-0.142,0.272-0.298,0.608-0.388,0.984c-0.091,0.375-0.117,0.789-0.246,1.165
	c-0.129,0.375-0.362,0.712-0.479,0.984c-0.116,0.272-0.116,0.479-0.116,0.712c0,0.233,0,0.492,0,0.777c0,0.285,0,0.595,0,0.958
	c0,0.362,0,0.777,0.104,1.268c0.104,0.492,0.311,1.061,0.44,1.307c0.129,0.246,0.181,0.168,0.233-0.013
	c0.052-0.181,0.104-0.466,0.129-0.738c0.026-0.272,0.026-0.531,0.026-0.815c0-0.285,0-0.596,0.065-0.997
	c0.065-0.401,0.194-0.893,0.298-1.32c0.104-0.427,0.181-0.79,0.298-1.126c0.116-0.337,0.272-0.647,0.388-1.022
	c0.116-0.375,0.194-0.815,0.556-1.954c0.362-1.139,1.009-2.977,1.346-3.947c0.337-0.971,0.362-1.074,0.414-1.126
	c0.052-0.052,0.13-0.052,1.424-0.013c1.294,0.039,3.805,0.116,18.493,0.104c14.688-0.013,41.553-0.117,55.413-0.168
	c13.86-0.052,14.714-0.052,15.141-0.052c0.427,0,0.427,0,0.44-0.311c0.013-0.31,0.039-0.932,0.039-2.122
	c0-1.191-0.026-2.951-0.11-5.021c-0.084-2.07-0.227-4.452-0.395-6.665c-0.168-2.213-0.362-4.258-0.55-6.264
	c-0.188-2.006-0.369-3.973-0.628-5.668c-0.259-1.695-0.595-3.119-0.906-4.18c-0.311-1.061-0.595-1.76-0.828-2.433
	c-0.233-0.673-0.414-1.32-0.518-2.019c-0.104-0.699-0.129-1.449-0.052-1.993c0.078-0.544,0.259-0.88,0.466-1.061
	c0.207-0.181,0.44-0.207,0.673-0.272c0.233-0.065,0.466-0.168,0.647-0.323c0.181-0.155,0.311-0.362,0.453-0.608
	c0.142-0.246,0.298-0.531,0.44-0.854c0.142-0.324,0.272-0.686,0.414-0.958c0.142-0.272,0.298-0.453,0.557-0.712
	c0.259-0.259,0.621-0.595,0.893-0.88c0.272-0.285,0.453-0.518,0.673-0.699c0.22-0.181,0.479-0.311,0.763-0.453
	c0.285-0.142,0.595-0.298,0.854-0.466c0.259-0.168,0.466-0.35,0.673-0.453c0.207-0.104,0.414-0.129,0.686-0.233
	c0.272-0.104,0.608-0.285,0.932-0.44c0.324-0.155,0.634-0.285,0.971-0.479c0.336-0.194,0.699-0.453,0.971-0.802
	c0.272-0.35,0.453-0.79,0.789-1.061c0.336-0.272,0.828-0.375,1.229-0.556c0.401-0.181,0.712-0.44,1.061-0.492
	s0.738,0.104,1.048,0.078c0.311-0.026,0.544-0.233,0.751-0.336c0.207-0.104,0.388-0.104,0.686-0.091
	c0.298,0.013,0.712,0.039,1.113,0.065c0.401,0.026,0.789,0.052,1.074-0.104c0.284-0.155,0.466-0.492,0.712-0.751
	c0.246-0.259,0.557-0.44,0.906-0.621c0.349-0.181,0.738-0.362,1.113-0.569c0.375-0.207,0.738-0.44,1.074-0.634
	c0.337-0.194,0.647-0.35,0.919-0.427c0.272-0.078,0.505-0.078,0.776-0.078c0.272,0,0.583,0,0.815,0c0.233,0,0.388,0,0.479-0.155
	c0.09-0.155,0.117-0.466,0.129-0.725c0.013-0.259,0.013-0.466-0.065-0.699c-0.078-0.233-0.233-0.492-0.311-0.699
	c-0.078-0.207-0.078-0.362-0.078-2.265c0-1.902,0-5.552-0.013-9.136c-0.013-3.585-0.039-7.105-0.078-10.236
	c-0.039-3.132-0.09-5.875-0.155-9.667c-0.065-3.792-0.142-8.632-0.194-12.255c-0.052-3.624-0.078-6.031-0.129-8.67
	c-0.052-2.64-0.129-5.513-0.168-6.949c-0.039-1.436-0.039-1.436,0.595-1.488c0.634-0.052,1.902-0.155,5.215-0.246
	c3.313-0.09,8.67-0.168,14.222-0.311c5.552-0.142,11.297-0.349,17.664-0.686c6.367-0.336,13.355-0.802,19.592-1.191
	c6.238-0.388,11.725-0.699,14.468-0.854c2.743-0.155,2.743-0.155,2.679-1.643c-0.065-1.488-0.194-4.465-0.414-8.606
	c-0.22-4.141-0.531-9.447-0.815-14.468c-0.284-5.021-0.543-9.758-0.712-12.385c-0.168-2.627-0.246-3.145-0.285-3.403
	c-0.039-0.259-0.039-0.259-0.776-0.233c-0.738,0.026-2.213,0.078-4.931,0.362C184.275,16.052,180.316,16.57,176.291,16.958z"/>
</svg>
