<?xml version="1.0" encoding="utf-8"?>
<!-- Generator: Adobe Illustrator 26.0.3, SVG Export Plug-In . SVG Version: 6.00 Build 0)  -->
<svg version="1.1" id="Isolation_Mode" xmlns="http://www.w3.org/2000/svg" xmlns:xlink="http://www.w3.org/1999/xlink" x="0px"
	 y="0px" viewBox="0 0 200 200" enable-background="new 0 0 200 200" xml:space="preserve">
<g>
	<path fill="#1E8346" d="M194.055,167.13c-0.058-0.529,0.043-1.016-0.114-1.536c-0.223-0.737-0.839-0.606-1.34-1.043
		c-0.212-0.185-0.36-0.45-0.57-0.637c-0.312-0.278-0.716-0.416-0.948-0.784c-0.2,0.672,0.319,1.822-0.487,2.154
		c-0.438,0.18-1.401,0.407-1.881,0.285c-0.304-0.077-0.553-0.414-0.817-0.583c-0.352-0.225-0.707-0.426-1.039-0.68
		c-0.177-0.135-0.461-0.416-0.697-0.401c-0.525,0.035-0.796,0.61-1.396,0.128c-0.464-0.373,0.25-0.779,0.361-1.197
		c0.178-0.675-0.434-1.155-0.837-1.615c-0.567-0.646-0.524-1.052-0.43-1.894c0.1-0.898-0.475-1.169-1.227-1.499
		c-0.647-0.285-1.024-0.722-1.478-1.243c-0.364-0.418-0.768-0.798-1.125-1.222c-0.414-0.492-0.559-0.827-0.968-1.268
		c-0.148-0.16-0.149-0.433-0.279-0.569c-0.235-0.246-0.467,0.077-0.623,0.293c-0.165,0.229-0.249,0.439-0.536,0.523
		c-0.416,0.121-0.957-0.03-1.367-0.13c-0.448-0.108-1.369-0.156-1.713-0.493c-0.203-0.199-0.283-0.586-0.405-0.846
		c-0.443-0.951-0.584-2.213-0.586-3.259c-0.175-0.272-0.115-0.711-0.17-1.021c-0.076-0.424-0.238-0.884-0.463-1.256
		c-0.277-0.457-0.66-0.816-0.901-1.298c-0.27-0.54-0.15-1.183-0.371-1.69c-0.316-0.12-0.435-0.874-0.581-1.17
		c-0.23-0.467-0.654-0.8-0.926-1.235c-0.246-0.395-0.514-0.63-0.915-0.873c-0.227-0.137-0.604-0.541-0.86-0.522
		c-0.266,0.02-0.473,0.334-0.465,0.544c-0.964,0.286-1.447,0.287-1.945-0.538c-0.397-0.657-0.763-1.371-1.305-1.921
		c-0.64-0.648-1.133-1.25-1.634-2.013c-0.339-0.516-0.697-0.912-1.136-1.34c-0.823-0.803-1.992-0.44-3.047-0.524
		c0.048-0.326-0.447-1.307-0.729-1.476c-0.323-0.193-0.994-0.05-1.359-0.05c-0.561,0-0.938-0.194-1.498-0.289
		c-0.057-0.066-0.221-0.175-0.329-0.23c-0.398-0.204-0.63-0.8-0.825-1.145c-0.313-0.555-0.556-1.052-0.837-1.628
		c-0.258-0.528-0.74-0.894-1.139-1.309c-0.343-0.356-0.698-0.718-1.047-1.068c-0.398-0.4-0.81-0.745-1.123-1.26
		c-0.296-0.486-0.447-1.071-0.709-1.588c-0.268-0.529-0.517-0.934-0.908-1.374c-0.4-0.45-0.94-0.691-1.309-1.18
		c-0.226-0.3-0.209-0.635-0.356-0.965c-0.136-0.304-0.399-0.533-0.585-0.817c-0.218-0.333-0.426-0.541-0.723-0.803
		c-0.282-0.249-0.492-0.572-0.761-0.82c-0.244-0.225-0.331-0.786-0.45-1.092c-0.15-0.386-0.331-0.748-0.553-1.096
		c-0.512-0.807-1.246-1.286-1.978-1.854c-0.364-0.282-0.8-0.641-1.075-1.016c-0.41-0.56-0.542-1.041-1.262-1.271
		c-0.698-0.223-1.32-0.623-2.036-0.878c-0.505-0.18-0.973-0.276-1.519-0.342c-0.5-0.06-1.008,0.157-1.478,0.011
		c-0.315-0.097-0.499-0.289-0.701-0.525c-0.573-0.67-1.185-0.909-2.066-0.906c-0.438,0.001-0.989-0.109-1.402,0.001
		c-0.634,0.169-0.639,0.545-1.436,0.396c-0.035-0.682-0.39-0.833-0.845-1.299c-0.228-0.233-0.521-0.535-0.486-0.893
		c0.036-0.357,0.381-0.478,0.315-0.872c-0.11-0.662-0.38-1.129-1.002-1.497c-0.52-0.308-0.849-0.297-1.432-0.346
		c-0.356-0.03-0.641-0.284-0.65-0.667c-0.008-0.367,0.278-0.649,0.209-1.025c-0.105-0.575-0.73-0.279-1.208-0.419
		c-0.364-0.107-0.944-0.258-1.044-0.685c-0.09-0.381,0.284-1.355-0.685-0.968c-0.706,0.282,0.237,1.215-0.568,1.348
		c-0.395,0.066-0.802-0.053-1.094-0.34c-0.222-0.218-0.23-0.514-0.417-0.732c-0.333,0.056-0.754,0.287-0.955,0.529
		c-0.202,0.243-0.205,0.573-0.366,0.804c-0.529,0.759-0.65-0.652-0.732-0.92c-0.308,0.138-0.397,0.57-0.602,0.829
		c-0.222,0.28-0.409,0.368-0.775,0.458c-0.172,0.042-0.311,0.017-0.432,0.128c-0.167,0.153-0.081,0.231-0.157,0.379
		c-0.268,0.517-0.528,0.632-0.91,0.166c-0.453-0.552-0.977-0.722-1.652-0.958c-0.527-0.185-1.087-0.583-1.528-0.934
		c-0.504-0.402-0.256-0.669-0.337-1.217c-0.027-0.182,0.02-0.121-0.057-0.25c-0.106-0.038-0.208-0.085-0.306-0.139
		c-0.113-0.069-0.176-0.169-0.189-0.299c-0.137-0.227-0.188-0.364-0.454-0.478c-0.244-0.105-0.318,0.013-0.485-0.268
		c-0.124-0.207-0.088-0.433-0.145-0.635c-0.194-0.149-0.217-0.552-0.33-0.783c-0.092-0.186-0.235-0.355-0.326-0.548
		c-0.15-0.318-0.319-0.58-0.474-0.888c-0.176-0.35-0.314-0.635-0.435-1.015c-0.074-0.233-0.126-0.357-0.264-0.541
		c-0.104-0.137-0.333-0.252-0.348-0.445c-0.032-0.419,0.839-1.006,1.106-1.332c0.185-0.225,0.75-0.776,0.653-1.096
		c-0.055-0.178-0.46-0.388-0.576-0.522c-0.195-0.224-0.327-0.403-0.561-0.591c-0.54-0.432-1.023-0.846-1.517-1.324
		c-0.61-0.591-1.434-0.977-2.183-1.324c-0.224-0.104-0.533-0.197-0.651-0.406c-0.108-0.19-0.043-0.485-0.12-0.686
		c-0.137-0.355-0.396-0.437-0.742-0.563c-0.208,0.226,0.021,0.496-0.017,0.766c-0.055,0.386-0.374,0.446-0.669,0.631
		c-0.303,0.19-0.751,0.505-0.908,0.835c-0.072,0.151-0.01,0.414-0.106,0.552c-0.262,0.373-0.506,0.134-0.597,0.637
		c-0.112,0.618,0.068,1.398,0.063,2.03c-0.003,0.376-0.292,1.352-0.008,1.638c0.234,0.236,0.728,0.068,1.01,0.284
		c0.418,0.322,0.884,1.404,0.971,1.881c0.11,0.602-0.444,1.021-0.659,1.539c-0.215,0.519-0.073,1.401-0.466,1.782
		c-0.333,0.323-0.736,0.156-1.119,0.046c-0.803-0.228-1.534-0.48-1.989-1.234c-0.449-0.743-0.015-1.449,0.151-2.225
		c0.143-0.667,0.154-1.402-0.15-2.012c-0.632-1.271-1.291-2.456-1.567-3.852c-0.155-0.782-0.424-1.554-0.679-2.309
		c-0.226-0.669-0.592-1.179-1.265-1.445c-0.28-0.111-0.617-0.235-0.907-0.299c-0.583-0.129-0.886,0.144-1.38,0.342
		c-0.693,0.277-0.728-0.253-0.982-0.785c-0.13-0.273-0.06-0.841-0.069-1.135c-0.014-0.455,0.099-0.53,0.285-0.927
		c0.1-0.215,0.162-0.643,0.079-0.883c-0.139-0.402-0.616-0.519-0.678-1.055c-0.086-0.735-0.197-1.473-0.239-2.191
		c-0.025-0.424-0.35-0.829-0.572-1.183c-0.353-0.565-0.726-1.079-1.133-1.589c-0.348-0.436-0.731-0.823-1.272-0.977
		c-0.479-0.136-1.007-0.12-1.291-0.568c-0.154-0.244-0.14-0.478-0.201-0.747c-0.392-0.292-0.442-1.655-0.548-2.122
		c-0.187-0.821-0.406-1.636-0.62-2.441c-0.259-0.969-0.393-1.984-0.598-2.973c-0.222-1.072-0.555-2.091-0.554-3.205
		c0.002-1.421,0.051-2.962-0.346-4.326c-0.575-0.339-0.169-1.433-0.503-1.879c-0.31-0.414-0.405-0.525-0.231-1.029
		c0.207-0.601-0.222-0.79-0.452-1.316c-0.224-0.513-0.03-1.019,0.046-1.53c0.081-0.541-0.029-1.257-0.231-1.768
		c-0.234-0.592-0.334-1.037-0.427-1.663c-0.101-0.683-0.83-1.085-0.94-1.789c-0.059-0.378,0.016-0.806-0.108-1.178
		c-0.095-0.287-0.281-0.559-0.392-0.845c-0.28-0.726-0.284-1.538-0.572-2.243c-0.233-0.57-0.169-1.092-0.276-1.69
		c-0.122-0.681-0.557-1.268-0.788-1.915c-0.327-0.917-0.289-1.914-0.459-2.859c-0.102-0.567-0.189-0.725-0.624-1.082
		c-0.433-0.355-0.299-0.943-0.409-1.454c-0.083-0.388-0.286-0.717-0.456-1.075c-0.3-0.631-0.242-1.425-0.243-2.115
		c-0.382-0.542-0.3-1.427-0.594-2.039c-0.397-0.826-0.986-1.592-1.485-2.332c-0.238-0.352-0.357-0.789-0.553-1.171
		c-0.256-0.499-0.658-0.869-0.922-1.355c-0.208-0.384-0.28-0.765-0.421-1.176c-0.2-0.579-1.111-1.041-1.185-1.589
		c-0.106-0.79-0.941-1.506-1.397-2.148c-0.478-0.673-0.886-1.375-1.34-2.067c-0.28-0.428-0.51-0.902-0.692-1.38
		c-0.112-0.294-0.073-0.679-0.259-0.929c-0.136-0.183-0.406-0.264-0.568-0.421c-0.213-0.207-0.34-0.508-0.544-0.727
		c-0.439-0.47-0.361-0.778-0.361-1.436l-3.463,3.186L60.09,23.72l-1.801,0.346c-0.037,0.667-0.715,3.605-1.677,2.249
		c-0.324,0.052-0.563,0.365-0.899,0.342c-0.283-0.019-0.129,0.001-0.278-0.173c-0.268-0.311-0.046-0.309-0.584-0.331
		c-0.245-0.01-0.501-0.023-0.747-0.002c-1.098,0.097-0.82,0.941-1.317,1.619c-0.299-0.198-0.46-0.859-0.628-1.209
		c-0.163-0.34-0.517,0.069-0.695,0.19c-0.413,0.281-0.537,0.14-0.946-0.168c-0.15,0.223-0.145,0.445-0.227,0.687
		c-0.094,0.277-0.293,0.537-0.453,0.78c-0.358,0.545-0.868,1.07-1.495,1.302c-0.249,0.093-1.401,0.454-1.645,0.291
		c-0.366-0.245-0.287-1.068-0.566-1.42c-0.776,0-2.013,0.057-2.147,0.972c-0.062,0.421-0.029,0.883-0.071,1.309
		c-0.032,0.326-0.034,0.883-0.246,1.149c-0.219,0.275-0.821,0.214-1.153,0.239c-0.543,0.041-1.088,0.076-1.632,0.115
		c-1.389,0.097-2.693,0.215-3.979,0.786c-0.45,0.2-0.784,0.54-0.711,1.091c0.057,0.429,0.544,0.787,0.748,1.187
		c-0.435,0.274-0.527,0.096-0.541,0.624c-0.004,0.152-0.004,0.309,0.003,0.46c0.014,0.299,0.032,0.597,0.032,0.901l-3.256,4.502
		c-0.29-0.068-0.502-0.324-0.743-0.49c-0.358-0.247-0.809-0.451-1.211-0.608c-0.842-0.33-1.632-0.028-2.462,0.162
		c-0.732,0.168-1.446,0.564-2.192,0.328c-0.304-0.096-0.578-0.272-0.865-0.382c-0.384-0.147-0.508,0.088-0.855,0.149
		c-0.378,0.067-0.514-0.253-0.815-0.439c-0.376-0.232-0.703-0.464-1.139-0.207c-1.004,0.59-0.042,1.232,0.018,2.017
		c0.026,0.339-0.432,0.69-0.636,0.964c-0.23,0.308-0.308,0.661-0.288,1.05c0.02,0.401,0.498,0.741,0.443,1.13
		c-0.024,0.169-0.185,0.243-0.276,0.373c-0.103,0.146-0.149,0.294-0.199,0.47c-0.168,0.582,0.045,0.913,0.33,1.434
		c0.245,0.447,0.211,0.923,0.211,1.426c0,0.558-0.272,1.215-0.467,1.73c-0.278,0.73-0.84,0.893-1.506,1.201
		c-0.385,0.178-0.706,0.439-0.959,0.785c-0.279,0.381-0.304,0.764-0.375,1.21c-0.091,0.58-0.033,1.181-0.132,1.759
		c-0.026,0.15-0.063,0.396-0.152,0.523c-0.151,0.216-0.532,0.181-0.518,0.476c0.021,0.457,0.541,0.876,0.64,1.334
		c0.12,0.558,0.147,1.093,0.431,1.603c0.176-0.053,0.304-0.208,0.384-0.37c0.209,0.066,0.222,0.225,0.333,0.385
		c0.125,0.179,0.31,0.299,0.519,0.333c0.27,0.044,0.496,0.053,0.348,0.437c-0.149,0.387-0.324,0.729-0.439,1.132
		c-0.143,0.503-0.496,1.116-0.255,1.608c0.148,0.301,0.563,0.873,0.423,1.231c-0.083,0.212-0.455,0.408-0.619,0.554
		c-0.231,0.205-0.491,0.434-0.692,0.624l-3.879,11.81l-1.87,2.771l-2.044,6.754l0.173,1.316l-2.701,6.685L6.2,96.867l2.39,24.382
		l0.97,1.593c0.248,0,0.488-0.244,0.695-0.363c0.396-0.227,0.851-0.387,1.285-0.519c0.584-0.178,1.244-0.26,1.859-0.295
		c1.19-0.068,2.396,0.033,3.587,0c0.719-0.02,1.44-0.119,2.109,0.173c0.663,0.288,1.383,0.349,1.981,0.747
		c0.318,0.211,0.706,0.386,0.995,0.63c0.308,0.26,0.449,0.312,0.872,0.251c0.534-0.077,1.339-0.099,1.752-0.468
		c0.567-0.505,0.427-1.714,0.637-2.38c0.131-0.416,0.307-0.937,0.627-1.238c0.394-0.371,1.027-0.565,1.499-0.826
		c1.264-0.699,3.022-1.238,4.108,0.009c0.394,0.452,0.723,0.956,1.126,1.398c0.103,0.113,0.3,0.219,0.353,0.372
		c0.081,0.234-0.114,0.353-0.207,0.583c0.184-0.014,0.352,0.074,0.515,0.153c0.032,0.264-0.084,0.474-0.104,0.729
		c-0.031,0.406,0.185,0.537,0.417,0.865c0.434,0.615,0.654,0.717,1.383,0.838c0.05,0.697,0.292,1.257,0.77,1.766
		c0.263,0.28,0.503,0.506,0.919,0.407c0.356-0.085,0.356-0.24,0.53-0.547l10.494-19.949c0.549,0,0.903,0.677,1.222,1.101
		c0.263,0.35,0.682,0.839,0.653,1.318c0.384,0.019,0.451,0.61,0.676,0.83c0.18,0.176,0.266,0.181,0.394,0.392
		c0.138,0.227,0.201,0.507,0.353,0.733c0.458,0.679,0.937,0.558,1.673,0.649c0.795,0.097,0.84,0.695,1.487,0.957
		c0.356,0.144,0.545,0.089,0.924,0.007c0.568-0.122,1.22-0.226,1.807-0.206c1.459,0.05,0.731,0.92,1.044,1.757
		c0.09,0.241,0.346,0.353,0.538,0.532c0.23,0.216,0.412,0.452,0.567,0.725c0.318,0.56,0.428,1.266,0.782,1.796
		c0.405,0.606,1.379,0.863,1.988,1.213c0.678,0.389,0.854,1.078,1.086,1.804c0.363,0.036,0.798-0.232,1.137-0.15
		c0.15,0.036,0.321,0.234,0.479,0.292c0.576,0.212,1.256-0.326,1.827-0.548c1.052-0.409,2.208-0.414,3.305-0.627
		c0.509-0.099,1.002-0.359,1.512-0.493c0.536-0.14,1.162-0.166,1.715-0.23c0.787-0.091,1.512-0.418,2.237-0.736
		c0.686-0.301,1.423-0.505,2.088-0.851c0.581-0.302,0.71-0.896,1.035-1.43c0.32-0.527,0.784-0.971,1.094-1.491
		c0.641-0.1,1.021-0.039,1.662-0.067c0.592-0.027,1.167-0.171,1.761-0.237c0.426-0.048,0.6-0.161,0.664,0.233
		c0.034,0.206-0.071,0.337-0.112,0.522c-0.102,0.46,0.126,0.668,0.52,0.955c0.166,0.121,0.329,0.225,0.491,0.352
		c0.265,0.209,0.544,0.194,0.812,0.356c0.287,0.174,0.447,0.622,0.557,0.932c0.109,0.307,0.492,0.999,0.351,1.326
		c-0.202,0.467-0.787,0.397-0.818,1.001c-0.053,1.033,1.088,0.942,1.552,0.236c0.2-0.305,0.235-0.552,0.613-0.658
		c0.347-0.098,0.443,0.094,0.541-0.276c0.042-0.159-0.015-0.441-0.055-0.589c0.233,0.024,0.458,0.124,0.653,0.249
		c0.089-0.407-0.091-0.891,0.026-1.29c0.158-0.539,0.627-0.121,1.021,0.009c0.803,0.264,1.626,0.642,2.499,0.584
		c0.069,0.462,1.207,0.855,1.429,0.471c0.144-0.248-0.32-0.61-0.401-0.861c-0.157-0.486-0.105-0.711,0.194-1.092
		c0.616-0.787,1.297-1.519,2.373-1.467c0.464,0.022,0.96,0.083,1.362,0.313c0.35,0.201,0.579,0.577,0.908,0.82
		c0.734,0.544,1.763,0.102,2.413,0.802c0.221,0.238,0.367,0.519,0.557,0.779c0.266,0.362,0.675,0.699,1.048,0.959
		c0.794,0.553,1.654,1.144,2.49,1.631c0.306,0.178,0.585,0.34,0.905,0.163c0.353-0.195,0.623-0.543,1.002-0.727
		c0.516-0.251,0.613-0.311,0.972-0.779c0.236-0.307,0.416-0.627,0.616-0.961c0.504-0.844,1.544-0.946,2.463-1.024
		c0.58-0.049,1.389,0.398,1.817,0.811c0.434,0.419,0.75,0.977,1.042,1.502c0.281,0.503,0.483,1.097,0.917,1.488
		c0.559,0.504,1.491,0.997,2.215,1.255l3.013,1.789l10.436,4.064l3.833,2.771l8.266,13.392l4.526,3.325l6.788,3.325l0.6,1.801
		l1.616,1.339v0.923l4.595,4.987l2.078,4.191l1.974,1.905l0.658,1.766l4.676,0.97l1.662,4.052l3.464,4.468l1.732-1.663l2.009,1.004
		l4.468,3.983c0.079-0.133,0.343-0.541,0.473-0.645c0.325-0.26,0.794-0.009,1.056-0.187c0.127-0.086,0.09-0.239,0.139-0.345
		c0.203-0.442,0.462-0.472,0.958-0.487c0.413-0.013,0.731-0.072,1.02-0.414c0.46-0.545-0.519-0.971-0.704-1.482
		c-0.145-0.404,1.024-1.585,1.312-1.991c0.459-0.648,0.962-1.283,1.357-1.965l6.927-2.771
		C194.752,168.114,194.135,167.872,194.055,167.13z"/>
	<path fill="#1E8346" d="M91.058,69.038c0.186,0.185,0.603,0.266,0.655,0.562c-0.056,0.013-0.167,0.024-0.21,0.068
		c0,0.148,0.002,0.25,0.061,0.384c0.063,0.143,0.115,0.285,0.13,0.443c0.031,0.33-0.067,0.721,0.04,1.032
		c0.068-0.199,0.306-0.318,0.393-0.518c0.089-0.205,0.138-0.406,0.161-0.626c0.019-0.181-0.019-0.222-0.126-0.363
		c-0.082-0.108-0.119-0.217-0.162-0.342c-0.082-0.241-0.263-0.43-0.369-0.657c-0.079-0.17-0.219-0.448-0.292-0.617
		c-0.05-0.117-0.101-0.237-0.172-0.342c-0.081-0.119-0.182-0.188-0.274-0.293c-0.25,0.128-0.291,0.524-0.209,0.767
		C90.747,68.725,90.922,68.902,91.058,69.038z"/>
	<path fill="#1E8346" d="M96.702,75.603c0.147,0.006,0.304,0.004,0.411-0.11c0.179-0.191,0.135-0.397,0.047-0.608
		c-0.048-0.116-0.078-0.225-0.188-0.304c-0.135-0.097-0.18,0.035-0.279,0.134c-0.169,0.169-0.416,0.329-0.549,0.529
		c-0.128,0.081-0.297,0.187-0.241,0.313C96.168,75.587,96.435,75.592,96.702,75.603z"/>
	<path fill="#1E8346" d="M103.406,63.21c0.218,0.12,0.617,0.431,0.9,0.34c0.502-0.162,0.044-0.719-0.148-0.952
		c-0.324-0.393-0.78-0.352-1.399-0.204C102.71,62.76,103.128,63.057,103.406,63.21z"/>
	<path fill="#1E8346" d="M111.158,57.73c0.209-0.093,0.467-0.076,0.648-0.236c0.236-0.209,0.3-0.785-0.135-1.01
		c-0.343,0.066-0.98,0.269-1.084,0.637c-0.052,0.182-0.03,0.401-0.072,0.584c-0.046,0.205-0.153,0.304-0.012,0.506
		C110.761,58.067,110.898,57.846,111.158,57.73z"/>
	<path fill="#1E8346" d="M113.081,65.386c0.128,0.035,0.213,0.173,0.329,0.205c0.147,0.041,0.168-0.046,0.155-0.173
		c-0.018-0.179-0.116-0.195-0.242-0.307c-0.185-0.165-0.075-0.243-0.005-0.444c0.046-0.134,0.021-0.272-0.307-0.39
		c-0.165,0.258-0.503,0.732-0.216,0.995C112.892,65.36,112.959,65.352,113.081,65.386z"/>
	<path fill="#1E8346" d="M111.38,66.911c-0.01,0.005-0.018,0.013-0.109,0.076c0.06,0.387-0.068,0.828,0.343,1.025
		c0.2,0.096,0.48,0.295,0.688,0.095c0.088-0.084,0.07-0.212,0.069-0.324c-0.002-0.164-0.028-0.228-0.145-0.33
		c-0.126-0.109-0.249-0.241-0.414-0.284C111.631,67.12,111.549,66.981,111.38,66.911z"/>
	<path fill="#1E8346" d="M110.902,69.736c0.159,0.037,0.285,0.019,0.343-0.145c0.03-0.085,0.041-0.161,0.088-0.241
		c0.052-0.088,0.119-0.173,0.154-0.271c0.061-0.172-0.009-0.271-0.098-0.414c-0.07-0.111-0.108-0.24-0.353-0.329
		c-0.008,0.425-0.82,0.523-0.598,0.972C110.525,69.484,110.703,69.69,110.902,69.736z"/>
	<path fill="#1E8346" d="M111.567,71.905c0.094,0.002,0.199,0.014,0.284-0.035c0.06-0.035,0.105-0.093,0.164-0.13
		c0.144-0.091,0.197-0.118,0.158-0.292c-0.04-0.182-0.139-0.342-0.31-0.425c-0.117-0.057-0.215-0.103-0.342-0.135
		c-0.102-0.026-0.214-0.033-0.398-0.118c-0.125,0-0.22,0.04-0.341,0.052c-0.068,0.007-0.148-0.007-0.204,0.046
		c-0.117,0.114,0.076,0.403,0.146,0.517c0.07,0.114,0.184,0.216,0.298,0.289c0.082,0.053,0.185,0.072,0.266,0.126
		C111.393,71.869,111.432,71.902,111.567,71.905z"/>
	<path fill="#1E8346" d="M107.005,72.449c0.184-0.007,0.354-0.104,0.541-0.127c0.133-0.016,0.339-0.08,0.433,0.023
		c0.08,0.087,0.109,0.217,0.175,0.315c0.151,0.223,0.308,0.313,0.566,0.391c0.241,0.073,0.497,0.126,0.75,0.137
		c0.144,0.006,0.427,0.033,0.532-0.102c0.1-0.126-0.081-0.494-0.137-0.603c-0.078-0.149-0.2-0.271-0.32-0.389
		c-0.106-0.104-0.276-0.191-0.358-0.313c-0.091-0.134,0.028-0.226,0.147-0.302c0.229-0.148,0.477-0.235,0.685-0.422
		c0.128-0.116,0.208-0.26,0.198-0.438c-0.008-0.145-0.088-0.162-0.261-0.325c-0.22-0.078-0.397-0.253-0.625-0.32
		c-0.213-0.062-0.441-0.141-0.625-0.266c-0.096-0.065-0.188-0.148-0.253-0.244c-0.062-0.092-0.112-0.204-0.204-0.274
		c-0.087-0.066-0.24-0.127-0.321-0.025c-0.128,0.16-0.008,0.466,0.036,0.634c0.036,0.136,0.087,0.232,0.157,0.355
		c0.052,0.091,0.135,0.181,0.171,0.28c0.068,0.188,0.036,0.38-0.167,0.429c-0.326,0.079-0.699,0.074-1.032,0.058
		c-0.111-0.005-0.276-0.032-0.377,0.03c-0.09,0.055-0.208,0.187-0.254,0.28c-0.093,0.19-0.081,0.585-0.017,0.783
		C106.536,72.296,106.692,72.462,107.005,72.449z"/>
	<path fill="#1E8346" d="M107.863,73.991c-0.089-0.077-0.158-0.175-0.284-0.183c-0.178-0.011-0.284,0.125-0.377,0.256
		c-0.041,0.057-0.086,0.174-0.071,0.248c0.015,0.072,0.087,0.117,0.148,0.19c0.112,0.054,0.347,0.009,0.479,0.009
		c0.079,0,0.157,0,0.235-0.008c0.123-0.013,0.209-0.094,0.138-0.238C108.081,74.165,107.945,74.063,107.863,73.991z"/>
	<path fill="#1E8346" d="M105.519,83.049c0.247,0.52,0.484,0.908,1.046,1.155c0.613,0.27,1.314,0.363,1.906,0.669
		c0.364,0.188,0.38,0.33,0.809,0.26c0.238-0.039,0.448-0.111,0.644-0.25c0.093-0.066,0.183-0.19,0.286-0.237
		c0.207-0.094,0.384,0.016,0.604,0.092c0.831,0.288,1.756-0.044,2.591,0.171c0.467,0.121,0.938,0.294,1.402,0.434
		c0.321,0.097,0.447,0.204,0.791,0.187c0.555-0.027,1.076-0.183,1.636-0.185c0.212-0.001,0.391,0.008,0.587,0.087
		c0.161,0.064,0.324,0.157,0.505,0.104c0.325-0.094,0.136-0.401,0.092-0.653c-0.058-0.333-0.028-0.722-0.028-1.062
		c-0.165-0.11-0.211-0.214-0.4-0.297c-0.193-0.085-0.407-0.108-0.615-0.169c-0.281-0.082-0.735-0.182-0.949-0.367
		c-0.202-0.175-0.156-0.384-0.268-0.612c-0.265-0.541-0.769-0.781-1.346-0.797c-0.461-0.012-1.022-0.036-1.475,0.049
		c-0.328,0.062-0.606,0.239-0.608,0.62c0.309,0.128,1.377,0.114,1.44,0.481c0.034,0.196-0.271,0.678-0.382,0.827
		c-0.17,0.23-0.488,0.331-0.771,0.314c-0.622-0.037-1.512-0.276-1.937-0.755c-0.298-0.337-0.342-1.027-0.435-1.452
		c-0.123-0.564-0.002-1.147-0.086-1.715c-0.025-0.171-0.087-0.408-0.228-0.502c-0.148-0.098-0.394-0.08-0.553-0.171
		c-0.527-0.304-0.143-0.949-0.186-1.405c-0.039-0.406-0.514-0.662-0.83-0.843c-0.558-0.319-1.118-0.679-1.75-0.813
		c-0.353-0.075-1.306-0.435-1.587-0.025c-0.358,0.522,0.992,0.912,1.265,0.937c0.201,0.018,0.798-0.044,0.963,0.08
		c0.279,0.21-0.174,0.463-0.362,0.548c-0.365,0.165-0.565,0.217-0.696,0.609c-0.088,0.261-0.062,0.551-0.141,0.806
		c-0.109,0.354-0.714,0.262-1.05,0.34c-0.48,0.112-0.727,0.287-0.73,0.803c-0.003,0.559-0.042,1.171,0.203,1.681
		C105.059,82.369,105.341,82.674,105.519,83.049z"/>
	<path fill="#1E8346" d="M111.845,80.485c0.002,0.196,0.014,0.444-0.023,0.636c-0.023,0.124-0.135,0.216-0.207,0.316
		c-0.163,0.224-0.417,0.414-0.509,0.688c-0.046,0.139-0.015,0.244,0.072,0.364c0.13,0.182,0.314,0.174,0.488,0.084
		c0.196-0.102,0.45-0.162,0.58-0.344c0.148-0.208,0.119-0.428,0.243-0.643c0.128-0.222,0.128-0.619-0.011-0.844
		C112.425,80.656,112.054,80.262,111.845,80.485z"/>
	<path fill="#1E8346" d="M110.119,78.598c-0.04,0.061-0.178,0.148-0.128,0.243c0.038,0.074,0.208,0.085,0.274,0.094
		c0.103,0.013,0.428,0.086,0.49-0.049c0.029-0.064-0.003-0.173-0.007-0.238c-0.003-0.063,0.022-0.165-0.03-0.216
		c-0.076-0.075-0.257-0.028-0.333,0.019C110.306,78.499,110.228,78.64,110.119,78.598z"/>
	<path fill="#1E8346" d="M128.143,80.287c0.174-0.023,0.581-0.177,0.52-0.42c-0.041-0.162-0.297-0.123-0.438-0.121
		c-0.107,0.001-0.246,0.002-0.336,0.055c-0.102,0.059-0.17,0.181-0.308,0.176c-0.129,0.07-0.308,0.085-0.301,0.218
		C127.536,80.329,127.86,80.324,128.143,80.287z"/>
	<path fill="#1E8346" d="M129.216,87.516c0.294,0.026,0.497-0.207,0.734-0.347c0.109-0.064,0.248-0.138,0.217-0.281
		c-0.019-0.089-0.096-0.129-0.128-0.208c-0.036-0.091-0.009-0.148-0.115-0.179c-0.089-0.027-0.274-0.006-0.365,0.006
		c-0.118,0.015-0.213,0.047-0.31,0.111c-0.11,0.074-0.235,0.211-0.364,0.241c-0.081,0.182-0.159,0.253-0.001,0.438
		C128.988,87.418,129.052,87.501,129.216,87.516z"/>
	<path fill="#1E8346" d="M99.503,88.428c0.015,0.157,0.041,0.305,0.113,0.447c0.052,0.103,0.376,0.265,0.467,0.144
		c0.082-0.109-0.04-0.298-0.095-0.384c-0.075-0.118-0.128-0.215-0.139-0.358c-0.013-0.177-0.002-0.3-0.102-0.457
		c-0.063-0.099-0.104-0.087-0.235,0.059C99.53,88.06,99.486,88.246,99.503,88.428z"/>
	<path fill="#1E8346" d="M114.74,102.503c0.288,0.039,0.613,0.028,0.865-0.129c0.147-0.092,0.284-0.205,0.435-0.29
		c0.129-0.073,0.254-0.151,0.347-0.268c0.166-0.207,0.086-0.455,0.086-0.701c0-0.178,0.001-0.322-0.1-0.476
		c-0.069-0.107-0.139-0.225-0.221-0.323c-0.113-0.134-0.744-0.566-0.813-0.158c-0.134,0.127-0.253,0.274-0.379,0.41
		c-0.066,0.072-0.128,0.137-0.174,0.224c-0.104,0.197-0.137,0.422-0.216,0.628c-0.035,0.091-0.057,0.186-0.095,0.275
		c-0.031,0.071-0.073,0.142-0.09,0.218c-0.017,0.081-0.038,0.23-0.015,0.31C114.412,102.361,114.606,102.484,114.74,102.503z"/>
	<path fill="#1E8346" d="M115.877,98.532c0.086-0.15,0.116-0.28,0.254-0.408c0.094-0.087,0.229-0.151,0.186-0.309
		c-0.019-0.071-0.072-0.11-0.206-0.22c-0.007,0.062-0.188,0.134-0.242,0.197c-0.018,0.022-0.033,0.055-0.05,0.079
		c-0.085,0.117-0.175,0.217-0.243,0.346c-0.065,0.123-0.256,0.385-0.023,0.417C115.679,98.651,115.814,98.641,115.877,98.532z"/>
	<path fill="#1E8346" d="M113.399,96.775c-0.134,0.173-0.144,0.441-0.192,0.646c-0.032,0.135-0.107,0.229-0.102,0.37
		c0.005,0.135-0.003,0.27,0.095,0.37c0.189,0.193,0.462,0.254,0.68,0.398c0.066,0.044,0.148,0.094,0.228,0.1
		c0.108,0.008,0.217-0.074,0.308-0.119c0.138-0.069,0.223-0.147,0.323-0.26c0.122-0.138,0.096-0.302-0.015-0.446
		c-0.118-0.153-0.291-0.282-0.358-0.47c-0.022-0.064-0.071-0.352,0.063-0.323c0.238-0.183,0.631-0.281,0.562-0.578
		c-0.052-0.223-0.487-0.424-0.682-0.367c-0.156,0.046-0.252,0.182-0.375,0.278C113.767,96.503,113.53,96.606,113.399,96.775z"/>
	<path fill="#1E8346" d="M113.872,95.436c0.081-0.005,0.074-0.019,0.101-0.083c0.019-0.045,0.047-0.083,0.095-0.105
		c0.121-0.055,0.281,0.036,0.385-0.07c0.089-0.09,0.082-0.234,0.03-0.339c-0.041-0.083-0.088-0.098-0.164-0.145
		c-0.055-0.034-0.094-0.086-0.14-0.134c-0.106-0.109-0.206-0.118-0.407-0.124c-0.099,0.13-0.257,0.243-0.288,0.416
		c-0.019,0.106-0.007,0.246,0.011,0.35c0.01,0.057,0.026,0.182,0.075,0.223C113.622,95.469,113.803,95.441,113.872,95.436z"/>
	<path fill="#1E8346" d="M188.604,162.227c0.044,0.06,0.102,0.124,0.165,0.165c0.103,0.065,0.239,0.09,0.357,0.117
		c0.144,0.032,0.287,0.053,0.435,0.075c0.1,0.015,0.183,0.059,0.281,0.084c0.203,0.052,0.204-0.027,0.203-0.22
		c0-0.164,0.052-0.37-0.029-0.519c-0.045-0.083-0.123-0.167-0.191-0.231c-0.07-0.067-0.126-0.137-0.192-0.208
		c-0.144-0.156-0.348-0.215-0.547-0.273c-0.186-0.055-0.509-0.157-0.646,0.023c-0.084,0.11-0.085,0.249-0.092,0.369
		c0.068,0.125,0.066,0.27,0.113,0.398C188.537,162.044,188.555,162.161,188.604,162.227z"/>
	<path fill="#1E8346" d="M186.835,160.971c0.051,0.081,0.111,0.389,0.222,0.393c0.058-0.156,0.07-0.316,0.092-0.481
		c0.022-0.169,0.028-0.4-0.012-0.565c0.025-0.257-0.186-0.177-0.305-0.141c-0.145,0.044-0.476,0.128-0.374,0.344
		C186.536,160.69,186.734,160.811,186.835,160.971z"/>
	<path fill="#1E8346" d="M187.548,159.633c0.076,0.069,0.246,0.259,0.358,0.231c-0.005-0.185-0.118-0.307-0.179-0.476
		c-0.069-0.19-0.094-0.365-0.24-0.522c-0.08-0.086-0.276-0.267-0.374-0.118c-0.091,0.137-0.016,0.312-0.002,0.478
		C187.273,159.327,187.406,159.504,187.548,159.633z"/>
</g>
</svg>
