<?xml version="1.0" encoding="utf-8"?>
<!-- Generator: Adobe Illustrator 26.0.3, SVG Export Plug-In . SVG Version: 6.00 Build 0)  -->
<svg version="1.1" id="Isolation_Mode" xmlns="http://www.w3.org/2000/svg" xmlns:xlink="http://www.w3.org/1999/xlink" x="0px"
	 y="0px" viewBox="0 0 200 200" enable-background="new 0 0 200 200" xml:space="preserve">
<path fill="#1E8346" d="M131.475,149.481c1.114-0.878,2.54-1.587,3.874-2.097c0.39-0.149,0.754-0.35,1.14-0.504
	c0.488-0.194,1.002-0.328,1.481-0.556c0.458-0.218,0.951-0.409,1.444-0.517c0.55-0.121,1.112-0.177,1.639-0.399
	c0.389-0.164,0.754-0.277,1.154-0.412c0.25-0.085,0.719-0.318,0.985-0.283l12.418,0.477l11.958-12.847l25.709-25.871h-12.475
	l-37.522-12.62l-4.363-4.533l-1.535-0.202l-0.84-0.598l-0.663-1.648l-1.244-0.614l-0.581-3.135l-1.309-0.63l-0.436,0.194
	l-0.42-0.323l-0.824-2.206l-2.036-1.697l-0.654-1.624v-1.285l-1.236-1.236c-0.06-0.129-0.068-0.29-0.111-0.426
	c-0.059-0.182-0.215-0.43-0.2-0.62c0.446,0.084,0.656-0.324,0.767-0.668c0.106-0.33,0.212-0.466,0.475-0.685
	c0.209-0.174,0.455-0.38,0.58-0.622c0.122-0.237,0.12-0.506,0.27-0.732c0.221-0.334,0.443-0.43,0.838-0.513l0.695-1.535
	c-0.213-0.149-0.347-0.161-0.586-0.029c-0.239,0.132-0.329,0.24-0.606,0.24c-0.293,0-0.584,0.016-0.861-0.096
	c-0.348-0.14-0.36-0.482-0.455-0.805c-0.107-0.362-0.364-0.256-0.66-0.232c-0.343,0.028-0.597-0.146-0.917-0.218
	c-0.355-0.079-0.781,0.098-1.134,0.172c-0.262,0.055-0.475,0.1-0.694,0.267c-0.215,0.164-0.432,0.314-0.657,0.466
	c-0.175,0.118-0.273,0.248-0.482,0.181c-0.139-0.044-0.278-0.178-0.419-0.205c-0.183-0.033-0.392,0.087-0.557,0.145
	c-0.309,0.11-0.666,0.246-0.996,0.26c-0.111,0.005-0.257,0.021-0.36-0.012c-0.064-0.02-0.094-0.067-0.151-0.087
	c-0.433-0.154-1.053-0.025-1.379,0.289c-0.308,0.298-0.481,0.343-0.909,0.374c-0.229,0.017-0.623,0.212-0.833,0.148
	c-0.089-0.222-0.386-0.334-0.608-0.372c-0.378-0.064-0.767-0.096-1.149-0.166c-0.169-0.031-0.359-0.087-0.373-0.29
	c-0.013-0.188,0.168-0.248,0.259-0.387v-1.26c-0.383,0.126-0.755,0.072-0.961-0.241c-0.189-0.288-0.322-0.629-0.203-0.962
	c0.079-0.22,0.248-0.388,0.313-0.621c0.358-0.108,0.584-0.017,0.866,0.175v-0.776l-0.582-2.375l0.873-3.022l0.824-0.436l0.016-0.275
	l0.59-0.17l2.278-3.587l0.485-0.049l0.267-0.824l1.576-1.818l0.267-1.212l0.848-0.897c-0.386-0.382-0.684-0.892-0.982-1.357
	c-0.199-0.31-0.472-0.595-0.636-0.92c-0.156-0.309-0.214-0.64-0.375-0.947c-0.069-0.132-0.124-0.264-0.198-0.388
	c-0.143-0.237-0.152-0.183-0.442-0.218c-0.305-0.037-0.678-0.142-0.974-0.224c-0.246-0.067-0.551-0.108-0.755-0.261l-0.218-0.776
	l-0.921-0.703l-0.848-2.012l-2.109-2.06v-0.509l-0.752-0.533l-0.194-0.776l-3.054-1.551l-1.89-1.43l-3.781-6.035l-1.697-1.115
	l-4.581-1.818l-2.295-1.244c-0.205-0.04-0.472,0.395-0.504,0.562c-0.311,0.042-0.703,0.065-0.776-0.3
	c-0.043-0.216-0.004-0.455-0.012-0.676c-0.01-0.255-0.003-0.548-0.049-0.798c-0.045-0.248-0.113-0.314-0.29-0.477h-0.776
	c-0.215,0.171-0.368,0.54-0.514,0.78c-0.131,0.215-0.139,0.289-0.378,0.316c-0.172,0.019-0.174-0.03-0.295,0.116
	c-0.062,0.075-0.058,0.186-0.145,0.252c-0.182,0.137-0.425-0.021-0.599-0.133c-0.086-0.055-0.163-0.132-0.246-0.199
	c-0.185-0.148-0.45-0.403-0.687-0.453c-0.224,0.377-0.55-0.272-0.665-0.427c-0.223-0.3-0.287-0.405-0.659-0.445
	c-0.395-0.042-0.464-0.31-0.758-0.522c-0.343-0.248-0.888-0.188-1.284-0.062c-0.426,0.135-0.878,0.554-0.62,1.016
	c0.038,0.069,0.256,0.222,0.261,0.267c0.021,0.2-0.259,0.212-0.376,0.122c-0.125-0.096-0.07-0.239-0.281-0.293
	c-0.167-0.042-0.359,0.039-0.53-0.018c-0.147-0.05-0.137-0.117-0.253-0.185c-0.223-0.13-0.584-0.266-0.821-0.049
	c-0.171,0.157-0.059,0.394-0.14,0.603c-0.046-0.046-0.133-0.051-0.177-0.082c-0.067,0.151,0.097,0.264,0.155,0.387
	c-0.259-0.015-0.451-0.119-0.714-0.015c0.044,0.41-0.201,0.642-0.603,0.725c-0.194-0.406-0.241-0.579,0.092-0.856
	c0.123-0.103,0.261-0.199,0.276-0.36c0.02-0.215-0.217-0.717-0.317-0.887c-0.293-0.025-0.504,0.021-0.739-0.17
	c-0.093-0.076-0.314-0.264-0.358-0.368c-0.063-0.147,0.039-0.371-0.029-0.532c-0.142,0.493-1.181,0.075-1.489,0.232
	c-0.214,0.109-0.254,0.47-0.364,0.679c-0.262,0.498-0.505,0.473-1.031,0.463c-0.127,0.271-0.169,0.466-0.469,0.582
	c-0.273,0.106-0.579,0.132-0.85,0.241c-0.584,0.234-1.24,0.204-1.852,0.378c-0.279,0.079-0.585,0.174-0.873,0.229
	c-0.178,0.034-0.436-0.031-0.595,0.027c-0.158,0.057-0.171,0.17-0.294,0.246c-0.298,0.185-0.709-0.324-1.002-0.013
	c-0.083-0.187-0.08-0.438-0.217-0.602c-0.106-0.126-0.297-0.184-0.451-0.234c-0.382-0.124-0.398-0.189-0.549-0.526
	c-0.171-0.382-0.55-1.219-1.054-1.219v-0.686c-0.181-0.165-0.72-0.325-0.966-0.361c0.094,0.349-0.547,0.327-0.749,0.217
	c-0.13-0.071-0.196-0.289-0.306-0.361c-0.129-0.086-0.276-0.039-0.432-0.052c-0.702-0.06-0.959-0.585-0.993-1.257
	c-0.135-0.052-0.208,0.008-0.288-0.124c-0.052-0.087-0.039-0.252-0.102-0.363c-0.123-0.219-0.349-0.455-0.527-0.632l-4.824,9.114
	h-0.436c-0.176-0.133-0.385-0.216-0.431-0.436c-0.02-0.095,0.03-0.228-0.01-0.315c-0.061-0.13-0.162-0.108-0.286-0.182
	c-0.135-0.08-0.359-0.281-0.424-0.423c-0.082-0.18,0.154-0.636-0.154-0.634c-0.025-0.173-0.01-0.332-0.099-0.481
	c-0.094-0.159-0.261-0.332-0.382-0.473c-0.115-0.133-0.259-0.315-0.437-0.366c-0.365-0.105-0.786,0.183-1.119-0.034
	c-0.2,0.163-0.34,0.337-0.608,0.392c-0.13,0.027-0.364-0.036-0.476,0.018c-0.132,0.063-0.141,0.207-0.214,0.341
	c-0.172,0.312-0.432,0.399-0.449,0.762c-0.012,0.256-0.019,0.541,0.024,0.789c-0.341,0.153-0.623,0.289-0.994,0.339
	c-0.241-0.62-1.187-1.335-1.872-1.016c-0.304,0.142-0.416,0.204-0.783,0.144c-0.211-0.034-0.402-0.093-0.613-0.128
	c-0.129-0.021-0.315-0.051-0.434,0.017c-0.081,0.047-0.085,0.142-0.153,0.194c-0.197,0.154-0.417,0.077-0.646,0.006
	c-0.361-0.112-0.532,0.05-0.862,0.199c-0.23,0.104-0.184,0.054-0.236,0.31c-0.024,0.114,0.028,0.18-0.073,0.272l-1.091,3.369
	l0.388,1.842l-0.582,0.654l-0.485,1.503l-0.242,1.624l-1.454,2.157l-1.406,4.387c0,0.158-0.049,0.275-0.049,0.433
	c0,0.201-0.049,0.258-0.153,0.416c-0.094,0.143-0.163,0.301-0.075,0.471c0.085,0.165,0.281,0.232,0.398,0.364
	c-0.081,0.433-0.165,0.827-0.121,1.28c0.027,0.282,0.012,0.569,0.012,0.853c0,0.213-0.061,0.401-0.111,0.604
	c-0.168,0.011-0.34,0.004-0.507-0.021c-0.14-0.021-0.15-0.031-0.217-0.157c-0.03-0.056-0.04-0.082-0.092-0.12
	c-0.15-0.109-0.415-0.127-0.593-0.155c-0.171-0.027-0.39-0.058-0.541,0.018c-0.245,0.124-0.673,0.14-0.932,0.224
	c-0.379,0.123-0.77,0.214-1.152,0.337c-0.327,0.105-0.829,0.209-1.17,0.228c-0.446,0.024-0.617-0.302-0.951,0.169l-4.315,7.466
	l-0.606,1.479l-2.254,1.672l-0.533,1.042l0.412,1.042L31.95,61.76l-0.364,0.557v0.97l-0.873,1.503l-0.606,0.558l0.412,0.145
	l0.448,0.751l-0.57,2.848l0.254,0.06l0.218,0.764l-1.539,1.03v0.594c0.117,0,0.141,0.146,0.097,0.233
	c-0.037,0.072-0.125,0.114-0.173,0.174c-0.038,0.047-0.057,0.097-0.1,0.141c-0.121,0.124-0.257,0.071-0.393,0.005
	c-0.227-0.11-0.306,0.034-0.515,0.111c0.023-0.192,0.207-0.34,0.156-0.552c-0.106-0.006-0.214-0.002-0.321-0.002l-1.975-1.939
	l-1.777,1.147l-0.889,1.745l-1.228,1.131v0.485l-0.194,0.129l0.388,1.067l-0.194,0.711l0.647,2.036l-0.226,1.584l-1.228,0.808v2.165
	l-0.873,1.39l-0.679,2.618l0.388,6.302l0.033,5.721c-0.21,0.435-0.485,0.709-0.905,0.922c-0.273,0.138-0.415,0.199-0.451,0.534
	c-0.275,0.072-0.658,0.184-0.804-0.123c-0.256,0.107-0.532,0.188-0.777,0.308c-0.361,0.177-0.45,0.485-0.416,0.89
	c-0.512,0.14-0.933,0.147-1.287,0.619c-0.17-0.085-0.206-0.233-0.39-0.285c-0.225-0.064-0.569,0.09-0.706-0.2
	c-0.047-0.099,0.049-0.273,0.007-0.38c-0.07-0.179-0.232-0.218-0.379-0.292c-0.146-0.074-0.298-0.115-0.391-0.238
	c-0.211,0.215-0.161,0.459-0.442,0.343c-0.075-0.031-0.142-0.146-0.217-0.191c-0.113-0.067-0.223-0.084-0.351-0.112
	c-0.152-0.032-0.366-0.099-0.52-0.089c-0.214,0.014-0.12,0.078-0.275,0.222c-0.127,0.118-0.259,0.105-0.429,0.107
	c-0.197,0.003-0.277,0-0.427,0.11c-0.236,0.174-0.189,0.245-0.563,0.076c-0.202-0.091-0.433-0.224-0.581-0.39
	c-0.11,0.087-0.203,0.203-0.291,0.313c-0.223-0.343-0.515-0.074-0.67,0.192c-0.088-0.001-0.177-0.017-0.252-0.058
	c-0.005,0.087-0.004,0.176,0.003,0.264c-0.122,0.033-0.246,0.054-0.372,0.071c0.022,0.19,0.052,0.363,0.045,0.553
	c0.087,0.02,0.183,0.016,0.271-0.001c0.01,0.12,0.022,0.239,0.028,0.36c-0.276-0.061-0.296,0.11-0.262,0.353
	c-0.08,0.065-0.187,0.078-0.289,0.079c-0.047,0.176-0.046,0.376-0.015,0.553c0.369,0.152,0.419,0.308,0.167,0.632
	c-0.08,0.103-0.143,0.109-0.159,0.239c-0.024,0.2,0.297,0.419,0.242,0.609c-0.066,0.227-0.492,0.199-0.671,0.325
	c-0.204,0.143-0.152,0.305-0.174,0.561c-0.29,0.047-0.429-0.169-0.543,0.168c-0.072,0.211-0.008,0.394-0.229,0.533
	c-0.058,0.036-0.183,0.025-0.23,0.079c-0.074,0.086,0.01,0.252-0.016,0.348c-0.071,0.257-0.355,0.278-0.49,0.456
	c0.003,0.341-0.012,0.919,0.194,1.173c0.23,0.282,0.28,0.389,0.362,0.765c0.119-0.035,0.329-0.114,0.457-0.106
	c0.216,0.015,0.28,0.165,0.388,0.373c0.014-0.144,0.141-0.212,0.246-0.29c0.304-0.226,0.281-0.099,0.535,0.114
	c0.24,0.202,0.39,0.016,0.658,0.036c0.259,0.02,0.091,0.113,0.277,0.283c0.124,0.113,0.4,0.067,0.564,0.171
	c0.019,0.012,0.157,0.15,0.18,0.179c0.154,0.202,0.106,0.21,0.38,0.289c-0.003-0.103,0.013-0.207,0.054-0.302
	c0.099,0.053,0.199,0.11,0.291,0.177c0.113-0.079,0.251-0.277,0.373-0.317c0.193-0.063,0.281,0.125,0.364-0.167
	c0.388,0.171,0.82-0.003,1.147,0.324c0.12,0.12,0.165,0.335,0.328,0.424c0.201,0.11,0.532,0.05,0.739,0.049
	c0.276-0.001,0.55,0.035,0.825,0.024c0.313,0.235,0.669,0.581,0.941,0.867c0.236,0.248,0.547,0.653,0.877,0.756
	c0.119,0.037,0.241,0.016,0.365,0.034c0.092,0.013,0.522,0.111,0.582,0.162c0.105,0.089,0.054,0.298,0.124,0.43
	c0.033,0.061,0.149,0.148,0.198,0.197c0.135,0.134,0.277,0.311,0.435,0.417c0.116,0.078,0.3,0.102,0.384,0.18
	c0.16,0.149,0.23,0.477,0.337,0.672c0.153,0.278,0.244,0.408,0.288,0.717c0.035,0.239,0,0.556,0.084,0.781
	c-0.137,0.029-0.278,0.041-0.418,0.072c0.076,0.149,0.178,0.396,0.303,0.515c0.184,0.173,0.29,0.05,0.494,0.112
	c0.319,0.097,0.54,0.62,0.825,0.838c0.168,0.129,0.172,0.105,0.388,0.17c0.193,0.058,0.221,0.141,0.264,0.354
	c0.054,0.27,0.083,0.622,0.074,0.894c0.284,0.094,0.376,0.253,0.486,0.53c0.353,0.023,0.59,0.128,0.893,0.275
	c-0.005,0.091-0.049,0.178-0.119,0.237c0.048,0.188,0.256,0.325,0.328,0.504c0.524,0.131,1.209-0.076,1.699,0.119
	c0.205,0.081,0.349,0.288,0.536,0.404c0.118,0.073,0.267,0.145,0.393,0.211c-0.053,0.26,0.062,0.436,0.056,0.676
	c-0.004,0.201-0.149,0.502-0.103,0.676c0.098,0.37,0.853,0.347,1.154,0.25c0.236-0.076,0.214-0.078,0.454,0.139
	c0.178,0.161,0.368,0.315,0.541,0.491c0.346,0.352,0.465,0.748,0.725,1.154c0.381-0.096,1.224,0.161,1.521-0.142
	c0.079,0.116,0.138,0.251,0.156,0.389c0.517,0.061,0.457,0.158,0.64,0.581c0.133,0.309,0.563,0.739,0.915,0.775
	c-0.03,0.386,0.062,0.601-0.264,0.853c-0.132,0.011-0.024,0.863-0.024,1.091c0,0.236-0.582,0.617-0.524,0.85
	c0.01,0.038,0.109,0.125,0.136,0.175c0.08,0.152,0.091,0.315,0.098,0.496c0.011,0.28,0,0.563,0,0.843
	c-0.001,0.151-0.063,0.381,0.07,0.482c0.147,0.112,0.183-0.021,0.289,0.135c0.071,0.103,0.063,0.648,0.078,0.801
	c0.023,0.235-0.084,0.348-0.129,0.557c-0.056,0.258,0.342,0.731-0.017,0.849l1.673,2.545l-0.008,0.848l2.327,1.487l-0.307,1.584
	l0.339,0.517l1.164-0.339l0.792-0.647c0.358,0,0.666-0.234,1.046-0.159c0.227,0.045,0.404,0.196,0.647,0.208
	c0.037,0.097,0.026,0.236,0.1,0.316c0.108,0.117,0.391,0.043,0.551,0.015c0.146-0.025,0.467-0.141,0.617-0.074
	c0.068,0.03,0.046,0.075,0.098,0.128c0.085,0.086,0.144,0.046,0.272,0.083c0.124,0.036,0.156,0.136,0.273,0.192
	c0.145,0.071,0.318,0.033,0.474,0.104c0.245,0.112,0.482,0.267,0.717,0.393c0.009,0.183,0.06,0.336-0.046,0.483
	c-0.079,0.109-0.252,0.235-0.362,0.319c0.082,0.275,0.249,0.516,0.36,0.777c0.04,0.094,0.054,0.247,0.147,0.299l-0.586,0.735
	l-0.097,4.011l1.685,1.964c-0.001,0.249-0.221,0.442-0.001,0.666c0.092,0.093,0.188,0.093,0.079,0.229
	c-0.044,0.055-0.107,0.076-0.139,0.135l1.236,1.091c0.084-0.127,0.228-0.251,0.335-0.35c0.069-0.065,0.154-0.216,0.27-0.193
	c0.126,0.024,0.096,0.139,0.257,0.095c0.118-0.032,0.206-0.116,0.337-0.098c0.107,0.014,0.16,0.098,0.268,0.111
	c0.095,0.011,0.199-0.089,0.279-0.029c0.097,0.074,0.048,0.461,0.048,0.574h8.261l1.891,0.917h0.679l0.954,1.05l11.101,7.191
	l0.178,0.388l1.164,1.034l0.646-0.178l3.442,0.259c0.136-0.344,0.489-0.069,0.672-0.282c0.143-0.167-0.045-0.595,0.358-0.419
	c0.278,0.121,0.341,0.621,0.671,0.602c0.238-0.013,0.266-0.084,0.541,0c0.137,0.042,0.244,0.126,0.373,0.175
	c0.042-0.106,0.071-0.228,0.091-0.34c0.273,0.132,0.463,0.353,0.607,0.605c0.52,0.259,1.106,0.461,1.657,0.646
	c0.285,0.095,0.634,0.164,0.936,0.094c0.119-0.028,0.211-0.107,0.323-0.148c0.135-0.049,0.326-0.006,0.443-0.058
	c0.154,0.027,0.284,0.211,0.423,0.186c0.087-0.016,0.102-0.087,0.167-0.125c0.069-0.04,0.202-0.079,0.279-0.106
	c0.475-0.174,0.763,0.169,1.142,0.386c0.174,0.1,0.338,0.226,0.538,0.268c0.226,0.048,0.474,0.019,0.704,0.035
	c0.151,0.012,0.281,0.026,0.434-0.01c0.212-0.051,0.332-0.194,0.52-0.284c0.093,0.099,0.049,0.319,0.093,0.45
	c0.446,0.147,0.95-0.01,1.406,0.088c0.105,0.022,0.294,0.129,0.399,0.081c0.056-0.026,0.068-0.151,0.137-0.169
	c0.187-0.047,0.277,0.429,0.324,0.56c0.087,0.24,0.298,0.234,0.538,0.244c0.06-0.1,0.047-0.216,0.091-0.32
	c0.034-0.082,0.097-0.147,0.138-0.224c0.066-0.124,0.183-0.332,0.169-0.478l2.375-2.408l1.099-2.424l4.032-2.182
	c0.693,0,1.258-0.455,1.901-0.651c0.27-0.082,0.521-0.178,0.782-0.283c0.281-0.112,0.582-0.162,0.86-0.281
	c0.596-0.254,1.148-0.578,1.767-0.776c0.416-0.133,0.776-0.335,1.159-0.531c0.175-0.089,0.33-0.127,0.457-0.287
	c0.117-0.148,0.12-0.215,0.324-0.122c0.245,0.112,0.43,0.305,0.681,0.409c0.198,0.082,0.439,0.12,0.593,0.281
	c0.164,0.172,0.208,0.404,0.271,0.622c0.104,0.363,0.237,0.351,0.602,0.404c0.48,0.07,0.668,0.413,0.952,0.779
	c0.233,0.3,0.487,0.568,0.748,0.842c0.229,0.24,0.41,0.556,0.698,0.731c0.195,0.118,0.497,0.284,0.739,0.236
	c0.193-0.039,0.39-0.253,0.595-0.259c0.217-0.006,0.508-0.053,0.714,0.024c0.143,0.054,0.217,0.154,0.404,0.147
	c0.243-0.009,0.404-0.192,0.624-0.24c0.236-0.051,0.391,0.093,0.595,0.118c0.293,0.036,0.607-0.142,0.883-0.209
	c0.369-0.09,0.755-0.054,1.136-0.058c0.225-0.002,0.442-0.052,0.667-0.048c0.212,0.003,0.389,0.081,0.602,0.099
	c0.317,0.026,0.668-0.056,0.975,0.016c0.232,0.054,0.473,0.294,0.712,0.298c0.256,0.004,0.541-0.28,0.769-0.394
	c0.272-0.136,0.617-0.217,0.656-0.547c0.038-0.323-0.01-0.389,0.249-0.623c0.244-0.221,0.51-0.411,0.769-0.619
	c0.252-0.201,0.37-0.567,0.642-0.728c0.253-0.15,0.705-0.067,0.987-0.071c0.287-0.004,0.571-0.025,0.859-0.024
	c0.837,0.001,1.67-0.107,2.504-0.169c0.614-0.046,1.232-0.043,1.834-0.152c0.255-0.046,0.369-0.146,0.595-0.261
	c0.296-0.152,0.665-0.23,0.991-0.292c0.594-0.113,1.356,0,1.909-0.281c0.423-0.215,0.881-0.784,1.144-1.172
	c0.264-0.39,0.508-0.848,0.72-1.272C131.057,150.366,131.138,149.747,131.475,149.481z"/>
</svg>
