<?xml version="1.0" encoding="utf-8"?>
<!-- Generator: Adobe Illustrator 26.0.3, SVG Export Plug-In . SVG Version: 6.00 Build 0)  -->
<svg version="1.1" id="Isolation_Mode" xmlns="http://www.w3.org/2000/svg" xmlns:xlink="http://www.w3.org/1999/xlink" x="0px"
	 y="0px" viewBox="0 0 200 200" enable-background="new 0 0 200 200" xml:space="preserve">
<path fill="#1E8346" d="M45.603,72.731c-0.445,0.194-0.553,0.559-1.099,0.524c-0.44-0.028-0.864-0.402-1.316-0.288
	c-0.729,0.183-0.159,1.565-0.313,2.209c-0.276-0.376-0.238-0.862-0.591-1.226c-0.445-0.459-0.983-0.485-1.574-0.591
	c-0.451-0.081-0.91-0.058-1.355-0.142c-0.293-0.055-0.582-0.268-0.874-0.251c-0.805,0.044-0.669,0.677-0.742,1.247
	c-0.689-0.189-0.455-0.8-0.653-1.291c-0.194-0.481-0.657-0.59-1.115-0.617c-0.278-0.016-1.161-0.089-1.333,0.176
	c-0.2,0.309,0.309,1.041,0.091,1.394c-0.27,0.437-0.456-0.141-0.569-0.454c-0.187-0.519-0.244-1.091-0.66-1.484
	c-0.395-0.373-1.833-1.501-2.318-0.963c-0.035-1.307,0.027-2.691-0.525-3.916c-0.213-0.473-0.598-0.506-1.063-0.17
	c-0.588,0.424-0.705,1.404-0.685,2.059c0.05,1.683,0.336,3.309,0.627,4.952c0.189,1.066,0.646,2.084,0.604,3.181
	c-0.021,0.54-0.086,0.844-0.382,1.296c-0.259,0.396-0.326,0.6-0.327,1.082c-0.004,1.981-0.72,3.841-0.615,5.819
	c0.033,0.624,0.06,1.233-0.005,1.86c-0.072,0.702-0.613,1.335-0.587,2.029c0.031,0.826-0.731,1.977-1.152,2.663
	c-0.244,0.398-0.673,0.545-0.982,0.885c-0.363,0.4-0.693,0.84-1.039,1.257c-0.237,0.285-0.486,0.571-0.68,0.889
	c-0.135,0.222-0.2,0.549-0.396,0.726c-0.203,0.183-0.541,0.165-0.684,0.403c-0.254,0.422-0.055,1.156,0.072,1.598
	c0.158,0.545,0.368,0.902,0.387,1.493c-0.137-0.221-0.563-0.636-0.804-0.363c-0.342,0.386,0.208,1.276-0.085,1.705
	c-0.307,0.45-0.555-0.214-0.563-0.514c-0.011-0.412,0.294-0.981-0.029-1.258c-0.143-0.123-0.394-0.078-0.542-0.233
	c-0.076-0.08-0.134-0.315-0.21-0.421c-0.254-0.355-0.882-0.949-1.288-1.106c-0.672-0.261-2.296,0.516-1.99,1.357
	c0.136,0.373,0.337,0.721,0.489,1.065c0.133,0.302,0.101,0.079,0.03,0.376c-0.053,0.221-0.265,0.559-0.399,0.74
	c-0.32-0.252-0.246-0.769-0.528-1.076c-0.209-0.227-0.742-0.367-0.939-0.021c-0.243,0.427,0.334,0.416,0.508,0.653
	c0.248,0.341-0.256,0.704-0.5,0.901c-0.134-0.253,0.042-0.552-0.203-0.687c-0.088-0.048-0.617-0.108-0.728-0.107
	c-0.331,0.003-0.379,0.124-0.488,0.423c-0.22,0.607-0.05,1.181-0.523,1.717c-0.51-0.713-1.022-1.392-1.241-2.279
	c-0.203-0.819-0.205-1.72-0.654-2.455c-0.384-0.629-1.069-0.916-1.765-0.845c-0.338,0.035-0.96,0.109-0.81,0.601
	c0.21,0.687,0.817,1.178,1.242,1.722c0.486,0.624,0.862,1.227,1.101,1.982c0.408,1.29,0.923,2.339,1.736,3.427
	c0.682,0.911,0.902,2.082,1.531,2.985c0.103,0.147,0.353,0.198,0.407,0.368c0.106,0.338-0.186,0.585-0.124,0.912
	c0.097,0.516,0.675,0.965,0.955,1.379c1.361,2.014,2.097,4.356,2.674,6.646c0.462,1.834,1.791,3.269,3.058,4.556
	c1.116,1.134,2.195,2.505,2.885,4.044c0.671,1.496,1.375,2.922,1.564,4.594c0.158,1.393-0.186,2.895,0.499,4.15
	c0.442,0.808,1.344,1.493,1.933,2.222c0.852,1.057,1.801,2.032,2.739,3.01c0.706,0.735,1.431,1.48,2.103,2.254
	c0.487,0.561,0.805,1.245,1.327,1.767c0.337,0.338,0.618,0.517,0.821,0.964c0.372,0.82,0.143,1.72,0.218,2.608
	c0.082,0.964,0.487,1.556,1.141,2.213c1.343,1.348,2.765,2.686,4.029,4.106c0.462,0.518,0.826,1.132,1.356,1.584
	c0.711,0.606,1.536,1.052,2.064,1.863c0.391,0.601,0.481,1.258,0.984,1.791c0.526,0.557,1.201,1.074,1.793,1.563
	c1.141,0.942,2.487,1.617,3.659,2.524c0.468,0.362,0.94,0.717,1.417,1.08c0.397,0.302,0.909,0.797,1.366,1.009
	c1.696,0.789,3.216,2.337,4.682,3.478c1.575,1.225,3.067,2.785,4.485,4.178c0.828,0.813,1.368,1.763,2.106,2.604
	c0.802,0.914,1.994,1.401,2.723,2.369c0.859,1.142,0.359,2.561,0.937,3.72c0.587,1.177,2.154,2.193,3.197,2.911
	c0.934,0.643,2.031,1.198,2.783,2.058c0.533,0.61,0.929,1.308,1.512,1.888c1.278,1.272,1.979,2.299,2.794,3.885
	c0.776,1.509,2.511,3.875,4.257,4.336c0.53-0.614,0.875-1.27,1.225-2.009c0.227-0.48,0.41-0.875,0.443-1.409
	c0.033-0.537-0.037-1.521,0.471-1.811c0.507,0.528,0.754-1.568,0.811-1.842c0.245-1.178,0.625-1.946,1.926-2.047
	c0.608-0.047,0.859,0.06,1.224-0.475c0.207-0.303,0.367-0.686,0.602-0.961c0.234-0.275,0.626-0.238,0.809-0.483
	c0.084-0.111,0.018-0.293,0.113-0.415c0.125-0.162,0.28-0.137,0.476-0.187c0.62-0.159,1.197-0.304,0.875-1.024
	c-0.176-0.396-0.502-0.646-0.024-0.941c1.406-0.866,2.469,1.132,3.341,1.883c0.392,0.337,0.843,0.614,1.257,0.923
	c0.341,0.255,0.901,0.515,1.107,0.899c0.325,0.604-0.16,1.309-0.15,1.946c0.005,0.31,0.117,0.588,0.269,0.856
	c0.238,0.422,0.299,0.546,0.72,0.33c0.336-0.173,0.68-0.478,1.023-0.575c0.387-0.11,0.8,0.118,1.188,0.046
	c0.302-0.055,0.304-0.143,0.487-0.296c0.288-0.24,0.653-0.436,1.039-0.277c0.339,0.141,0.653,0.786,0.982,0.226
	c0.148-0.252-0.004-0.763,0.187-0.969c0.399-0.43,1.712,0.324,1.839-0.584c0.056-0.399-0.274-0.358-0.55-0.523
	c-0.37-0.221-0.656-0.531-1.118-0.568c0.013-0.307,0.079-0.828,0.221-1.108c0.166-0.328,0.351-0.236,0.597-0.408
	c0.493-0.346,0.52-1.385,0.597-1.908c0.059-0.4,0.135-0.791,0.402-1.117c0.241-0.294,0.479-0.269,0.791-0.39
	c0.467-0.18,0.781-0.958,0.47-1.48c-0.167-0.283-0.505-0.566-0.522-0.926c-0.026-0.545,0.928-1.064,0.688-1.605
	c-0.086-0.193-0.458-0.372-0.621-0.495c-0.234-0.178-0.452-0.329-0.73-0.443c-1.033-0.425-2.429-0.284-3.26-1.078
	c-0.446-0.426-0.511-0.912-1.06-1.259c-0.49-0.309-3.09-1.311-2.57-2.04c0.06-0.084,0.187-0.125,0.254-0.229
	c0.055-0.087,0.051-0.217,0.099-0.31c0.119-0.233,0.303-0.396,0.573-0.448c0.57-0.109,0.31,0.348,0.451,0.727
	c0.583-0.181,1.081-0.814,1.442-1.27c0.444-0.56,1.174-0.945,0.315-1.646c-0.487-0.397-1.406-0.54-1.997-0.719
	c-0.895-0.271-0.935-0.667-1.114-1.524c-0.112-0.533-0.233-1.208-0.534-1.67c-0.273-0.418-0.705-0.75-1.019-1.121
	c-0.249-0.294-0.619-1.022-0.949-0.564c-0.299,0.415-0.021,0.774-0.62,0.871c-0.565,0.091-0.59-0.211-0.656-0.709
	c-0.045-0.341,0.048-0.667-0.044-1.002c-0.191-0.695,0.495-1.637,0.788-2.225c0.345-0.692,0.806-1.516,0.907-2.299
	c0.047-0.371,0.056-0.859-0.077-1.19c-0.21-0.519-0.648-0.838-1.01-1.25c-0.738-0.841-0.418-2.162-0.43-3.18
	c-0.013-1.057-0.516-1.925-0.78-2.898c-0.164-0.604,1.127-0.597,1.464-0.48c0.188,0.065,0.294,0.219,0.356,0.388
	c0.141,0.382,0.129,0.305,0.492,0.445c0.207,0.08,0.335,0.256,0.568,0.361c0.217,0.098,0.296,0.229,0.37,0.453
	c0.075,0.224,0.064,0.572,0.168,0.771c0.13,0.249,0.599,0.364,0.815,0.521c0.392,0.284,0.63,0.774,0.911,1.164
	c0.232,0.323,0.438,0.887,0.759,1.129c0.297,0.224,0.699-0.189,0.906-0.413c0.302-0.325,0.429-0.828,0.507-1.256
	c0.062-0.339,0.061-0.874,0.496-0.899c0.148-0.008,0.309,0.106,0.463,0.064c0.205-0.055,0.343-0.315,0.515-0.449
	c0.493-0.383,1.067-0.288,1.626-0.476c0.496-0.167,0.488-0.757,0.589-1.205c0.132-0.588,0.659-0.307,1.12-0.431
	c0.493-0.132,0.76-0.657,1.231-0.786c0.453-0.123,0.789,0.322,1.032,0.632c0.364,0.464,0.677,0.87,1.075,1.305l14.046,0.177
	c-0.117-0.241-0.157-0.694-0.269-0.993c-0.081-0.216-0.16-0.333-0.086-0.567c0.044-0.139,0.23-0.285,0.247-0.409
	c0.102-0.761-1.147-0.435-1.346-0.762c-0.188-0.307-0.048-0.757,0.162-1.011c0.146-0.176,0.344-0.303,0.47-0.507
	c0.131-0.213,0.13-0.448,0.233-0.664c0.09-0.191,0.401-0.376,0.379-0.595c-0.016-0.147-0.328-0.308-0.391-0.441
	c-0.138-0.291,0.039-0.425-0.002-0.712c-0.047-0.332-0.304-0.53-0.321-0.879c-0.018-0.365,0.141-0.469,0.314-0.752
	c0.361-0.592,0.143-1.041-0.24-1.531c-0.184-0.236-0.362-0.484-0.552-0.705c-0.15-0.174-0.641-0.397-0.655-0.609
	c-0.037-0.547,0.062-1.15,0.142-1.69c0.081-0.545,0.308-1.092,0.318-1.641c0.008-0.409-0.569-1.27-0.177-1.606
	c0.41-0.351,1.158,0.761,1.53,0.924c0.265,0.116,0.757,0.171,0.806-0.178c0.058-0.413-0.564-0.811-0.333-1.27
	c0.202-0.398,0.822-0.294,1.136-0.483c0.395-0.237,0.323-0.833,0.768-1.013c0.173-0.07,0.455-0.047,0.636-0.036
	c0.339,0.021,0.573,0.279,0.854,0.245c0.35-0.043,0.572-0.44,0.972-0.234c0.219,0.113,0.395,0.471,0.565,0.651
	c0.239,0.253,0.445,0.338,0.763,0.495c0.282,0.14,0.531,0.277,0.74,0.493c0.223,0.23,0.369,0.456,0.673,0.59
	c0.489,0.216,1.326,0.302,1.632,0.786c0.154,0.244,0.098,0.426,0.339,0.614c0.195,0.152,0.697,0.241,0.794,0.51
	c0.036,0.101-0.047,0.161-0.047,0.248c-0.002,0.257-0.092,0.478,0.008,0.74c0.202,0.526,0.582,0.94,0.933,1.357
	c0.615,0.729,1.411,1.995,0.991,2.936c-0.22,0.493-0.277,0.699-0.067,1.219c0.195,0.483,0.321,0.738,0.888,0.587
	c0.38-0.101,0.468-0.397,0.832-0.218c0.23,0.113,0.298,0.378,0.404,0.582c0.236,0.453,0.428,0.842,0.741,1.247
	c0.234,0.304,0.79,0.749,0.715,1.168c-0.035,0.191-0.206,0.251-0.292,0.384c-0.234,0.361-0.286,0.996-0.137,1.419
	c0.129-0.08,0.278-0.251,0.416-0.297c0.295-0.098,0.704,0.085,0.976,0.196c0.632,0.257,1.314,0.786,1.967,0.922
	c0.709,0.147,1.398-0.329,2.043-0.529c0.564-0.175,0.857,0.296,1.385,0.592c0.584,0.327,1.089,0.368,1.744,0.446
	c0.662,0.08,1.139,0.286,1.686,0.655c0.421,0.284,0.619,0.358,1.144,0.361c0.513,0.003,1.058-0.106,1.566-0.017
	c0.376,0.066,0.974,0.563,1.373,0.409c0.254-0.098,0.308-0.419,0.442-0.659c0.406-0.726,1.067-1.161,1.68-1.676
	c0.579-0.486,1.419-0.211,1.927-0.75c0.432-0.459,0.83-0.993,1.219-1.497c0.656-0.848,1.589-1.47,1.824-2.514
	c0.103-0.455,0.097-0.931,0.236-1.372c0.093-0.298,0.44-1.489,0.794-1.509c0.323-0.018,0.425,0.577,0.611,0.754
	c0.184,0.175,0.463,0.221,0.659,0.392c0.243,0.212,0.313,0.443,0.432,0.727c0.238,0.57,0.442,1.143,0.647,1.723
	c0.159,0.451,0.504,0.666,0.786,1.038c0.251,0.332,0.431,0.774,0.475,1.189c0.032,0.294-0.05,0.61,0.076,0.879
	c0.585,0.19,1.302,0.47,1.234,1.22c-0.472-0.015-0.733-0.049-1.053,0.334c-0.476,0.569-0.735,1.083-0.655,1.827
	c0.06,0.567,0.342,1.205,0.835,1.529c0.519,0.34,1.081-0.04,1.472-0.429c0.498-0.497,1.06-0.607,1.612,0.012
	c0.164,0.184,0.249,0.596,0.526,0.643c0.167,0.028,0.207-0.086,0.36-0.158c0.344-0.161,0.939-0.457,1.312-0.261
	c0.341,0.179,0.428,0.842,0.797,0.958c0.431,0.135,0.427-0.594,0.509-0.895c0.115-0.421,0.477-0.612,0.601-0.983
	c0.229-0.686-0.266-1.584,0.602-1.971c0.721-0.322,1.569-0.318,2.284-0.677c0.468-0.235,0.617-0.387,0.29-0.762
	c-0.45-0.514-1.079-0.916-1.394-1.542c-0.119-0.239-0.137-0.496-0.241-0.742c-0.033-0.077-0.153-0.322-0.195-0.366
	c-0.116-0.121-0.27-0.112-0.414-0.246c-0.439-0.41,0.238-0.584,0.587-0.649c0.167-0.031,0.337-0.179,0.496-0.246
	c0.276-0.117,0.489-0.168,0.566-0.467c0.076-0.296,0.03-0.665,0.003-0.964c-0.029-0.317-0.149-0.824,0.199-0.957
	c0.341-0.13,0.85,0.343,1.112,0.027c0.178-0.215,0.018-0.525-0.127-0.689c-0.288-0.327-0.342-0.436-0.105-0.835
	c0.248-0.418,0.265-0.639,0.008-1.034c-0.22-0.34-0.56-0.653-0.474-1.084c0.057-0.289,0.263-0.671,0.515-0.824
	c0.305-0.185,0.743-0.091,1.037-0.255c0.263-0.147,0.377-0.652,0.494-0.911c0.21-0.465,0.649-0.443,1.133-0.476
	c0.807-0.054,2.456-0.071,2.331-1.322c-0.023-0.23-0.143-0.431-0.167-0.652c-0.02-0.181,0.023-0.373,0.073-0.543
	c0.087-0.295,0.388-0.55,0.377-0.852c-0.009-0.258,0.074-0.512-0.027-0.754c-0.15-0.36-0.538-0.517-0.282-0.928
	c0.203-0.325,0.467-0.635,0.744-0.895c0.223-0.21,0.639-0.418,0.677-0.739c0.026-0.221-0.15-0.591-0.359-0.683
	c-0.222-0.098-0.467,0.109-0.706,0.027c-0.581-0.197-0.361-0.888-0.694-1.266c-0.211-0.239-0.607-0.346-0.452-0.744
	c0.075-0.194,0.203-0.163,0.383-0.217c0.234-0.07,0.487-0.25,0.663-0.42c0.245-0.235,0.345-0.645,0.644-0.83
	c0.347-0.216,0.995,0.216,1.018-0.366c0.014-0.362-0.216-0.554-0.345-0.87c-0.184-0.452,0.055-0.628,0.226-1.01
	c0.142-0.316,0.064-0.66,0.255-0.969c0.182-0.294,0.504-0.45,0.674-0.758c0.271-0.49,0.159-1.356-0.459-1.502
	c-0.437-0.103-1.188-0.368-1.376-0.86c-0.172-0.449,0.502-0.904,0.694-1.232c0.355-0.608,1.018-1.371,0.635-2.076
	c-0.094-0.173-0.227-0.314-0.187-0.525c0.022-0.118,0.149-0.19,0.168-0.28c0.057-0.271-0.289-0.505-0.456-0.657
	c-0.277-0.253-0.857-0.608-0.725-1.04c0.096-0.315,0.412-0.522,0.375-0.859c-0.032-0.285-0.012-0.587-0.128-0.862
	c-0.123-0.289-0.421-0.446-0.512-0.746c-0.082-0.269,0.041-0.565-0.165-0.786c-0.276-0.296-0.522-0.429-0.495-0.889
	c0.027-0.465,0.189-0.929,0.165-1.397c-0.025-0.483-0.256-1.002-0.089-1.475c0.316-0.899,1.277-1.408,1.502-2.364
	c0.067-0.283,0.052-0.547-0.107-0.779c-0.169-0.247-0.448-0.491-0.479-0.799c-0.027-0.273,0.205-0.433,0.267-0.686
	c0.066-0.265-0.004-0.556-0.031-0.828c-0.049-0.488,0.663-1.238,0.934-1.597c0.39-0.519,0.782-0.969,0.816-1.646
	c0.011-0.214,0.006-0.429-0.053-0.635c-0.051-0.178-0.093-0.42-0.16-0.591c-0.121-0.314-0.377-0.61-0.545-0.901
	c-0.197-0.342-0.382-0.614-0.707-0.859c-0.173-0.13-0.376-0.266-0.588-0.341c-0.177-0.062-0.612,0.033-0.713-0.084
	c-0.148-0.172-0.015-0.627-0.004-0.812c0.015-0.257,0.021-0.343-0.183-0.474c-0.204-0.131-0.464-0.169-0.699-0.194
	c-0.345-0.036-0.814-0.046-1.122-0.231c-0.158-0.095-0.227-0.251-0.355-0.382c-0.347-0.353-1.364-0.953-1.892-0.773
	c-0.33,0.113-0.444,0.462-0.708,0.624c-0.207,0.127-0.485,0.026-0.714-0.036c-0.583-0.158-1.448-0.186-1.913-0.586
	c-0.408-0.35-0.329-1.164-0.424-1.662c-0.23-1.205-0.239-2.351-1.038-3.342c-0.198,0.115-0.455,0.155-0.682,0.145
	c0.005-0.152-0.075-0.158-0.194-0.236c-0.26-0.171-0.683-0.462-1.007-0.432c-0.231,0.021-0.415,0.214-0.597,0.332
	c-0.275,0.179-0.47,0.239-0.78,0.216c-0.45-0.033-0.875-0.047-1.193-0.417c-0.199-0.232-0.224-0.569-0.444-0.799
	c-0.279-0.29-1.237-0.468-1.613-0.242c-0.272,0.163-0.305,0.463-0.659,0.513c-0.194,0.027-0.394-0.007-0.556-0.117
	c0.031-0.161-0.237-0.32-0.334-0.452c-0.106-0.144-0.168-0.296-0.292-0.429c-0.247-0.261-0.81-0.514-0.969-0.847
	c-0.076-0.158-0.047-0.436,0.107-0.567c0.173-0.146,0.443-0.102,0.624-0.245c0.128-0.101,0.197-0.255,0.279-0.392
	c0.173-0.287,0.301-0.581,0.46-0.873c0.16-0.293,0.468-0.388,0.767-0.488c0.485-0.162,1.2-0.651,1.068-1.285
	c-0.057-0.277-0.295-0.459-0.215-0.775c0.052-0.203,0.218-0.34,0.302-0.537c0.242-0.568-0.219-0.791-0.436-1.256
	c-0.174-0.372-0.477-0.669-0.522-1.076c-0.074-0.665,0.564-1.042,0.25-1.725c-0.372-0.807-0.772-1.503-0.817-2.39
	c-0.025-0.5,0.485-0.985,0.792-1.336c0.253-0.289,0.528-0.523,0.703-0.868c0.244-0.478,0.209-1.034,0.296-1.55
	c0.088-0.519,0.662-0.892,1.088-1.15c0.402-0.244,0.838-0.447,1.264-0.648c0.259-0.121,0.524-0.282,0.751-0.454
	c0.421-0.319,0.486-0.66,0.778-1.063c0.361-0.497,0.273-0.601-0.023-1.094c-0.214-0.355-0.236-0.377,0.063-0.7
	c0.273-0.294,0.48-0.629,0.758-0.909c0.414-0.419,0.744-0.544,1.313-0.458c0.528,0.08,0.947,0.444,1.48,0.428
	c0.456-0.014,0.913-0.194,1.367-0.177c0.239,0.009,0.492,0.172,0.72,0.144c0.523-0.063,0.324-0.802,0.465-1.176
	c0.291-0.771,1.428-0.759,2.091-1.094c0.233-0.118,0.668-0.271,0.709-0.534c0.039-0.247-0.253-0.458-0.332-0.659
	c-0.145-0.367-0.076-0.972,0.133-1.298c0.639-0.994,1.712-1.54,2.437-2.469c-0.033-0.041-0.035-0.046-0.066-0.078
	c0.313-0.338,0.722-0.503,0.995-0.877c0.343-0.472-0.158-1.04-0.307-1.465c-0.047-0.133-0.146-0.403-0.043-0.541
	c0.109-0.147,0.444-0.163,0.595-0.264c0.257-0.171,0.443-0.729,0.348-1.041c-0.089-0.294-0.56-0.516-0.786-0.71
	c-0.427-0.366-0.959-0.713-1.284-1.186c-0.213-0.31-0.351-0.718-0.487-1.069c-0.147-0.378-0.194-0.802-0.253-1.202
	c-0.065-0.442-0.151-0.753-0.389-1.154c-0.172-0.29-0.326-0.555-0.557-0.798c-0.201-0.211-0.558-0.438-0.667-0.714
	c-0.128-0.328-0.461-0.656-0.683-0.944c-0.267-0.345-0.548-0.789-0.637-1.22c-0.164-0.797,0.088-1.642-0.204-2.434
	c-0.22-0.596-0.82-0.862-1.273-1.243c-0.463-0.389-0.873-0.657-1.425-0.921c-0.457-0.218-0.805-0.476-1.308-0.521
	c-0.364-0.033-0.781-0.068-1.13,0.071c-0.219,0.086-0.413,0.3-0.624,0.376c-0.327,0.118-0.752-0.095-1.078-0.144
	c-0.372-0.056-0.63-0.293-0.886-0.583c-0.177-0.2-0.305-0.657-0.523-0.798c-0.326-0.21-0.734,0.1-0.955,0.31
	c-0.597,0.563-1.813-0.074-2.515-0.196c-0.574-0.1-1.141-0.119-1.713-0.242c-0.312-0.067-0.791-0.119-1.081,0.052
	c-0.415,0.246-0.216,0.84-0.528,1.163c-0.147,0.151-0.242,0.224-0.309,0.456c-0.062,0.216-0.103,0.404-0.253,0.581
	c-0.115,0.136-0.763,0.523-0.728,0.112c-0.3-0.175-0.425-0.45-0.776-0.283c-0.313,0.148-0.397,0.358-0.746,0.378
	c-1.099,0.062-2.164,0.283-2.974,1.089c-0.176,0.175-0.339,0.372-0.52,0.547c-0.21,0.204-0.607,0.751-0.846,0.821
	c-0.374,0.109-0.9-0.103-1.307-0.053c-0.346,0.043-0.574,0.385-0.931,0.287c-0.367-0.101-0.718-0.511-1.055-0.685
	c-0.249-0.128-0.671-0.391-0.967-0.26c-0.295,0.13-0.195,0.323-0.565,0.356c-0.187,0.016-0.298-0.033-0.438,0.079
	c-0.108,0.086-0.18,0.283-0.259,0.396c-0.181,0.257-0.604,0.426-0.927,0.408c-0.14-0.008-0.256-0.102-0.384-0.081
	c-0.156,0.024-0.365,0.282-0.446,0.398c-0.274,0.387-0.281,0.698-0.829,0.696c-0.766-0.002-1.526-0.096-2.294-0.094
	c-0.567,0.001-1.432,0.111-1.743-0.527c0.201-0.143,0.46-0.27,0.599-0.49c0.109-0.173,0.139-0.404,0.233-0.587
	c0.265-0.52,0.812-0.261,1.29-0.428c0.312-0.109,0.542-0.474,0.688-0.748c0.193-0.361-0.106-0.46-0.177-0.764
	c-0.099-0.422,0.316-0.818,0.333-1.203c0.022-0.528-0.466-0.814-0.62-1.26c-0.067-0.193-0.033-0.403-0.112-0.597
	c-0.088-0.216-0.342-0.401-0.379-0.633c-0.048-0.297-0.367-0.355-0.612-0.485c-0.054-0.529,0.351-1.48-0.433-1.498
	c-0.513-0.012-0.622,0.504-1.023,0.121c-0.201-0.193-0.49-0.873-0.608-1.142c-0.361-0.825,0.734-0.513,0.647-1.345
	c-0.081-0.775-0.376-1.486-0.336-2.284c0.044-0.871,0.67-1.044,0.988-1.764c0.153-0.347,0.062-0.72,0.322-1.054
	c0.183-0.236,0.408-0.294,0.534-0.58c0.359-0.809,0.037-1.349-0.523-1.868c-0.484-0.449-1.012-0.696-0.458-1.238
	c0.403-0.394,0.957-0.768,1.218-1.288c0.201-0.402,0.196-0.973,0.288-1.41c0.728-0.3,1.598-0.863,2.075-1.487
	c0.582-0.76,0.285-2.242,0.285-3.16c0-0.313-0.014-0.631,0-0.944c0.016-0.353,0.208-0.611,0.238-0.924
	c0.027-0.274-0.128-0.508-0.234-0.75c-0.044-0.1-0.117-0.379-0.203-0.446c-0.173-0.134-0.352,0.032-0.56-0.051
	c-0.397-0.16-0.146-0.362-0.647-0.324c-0.499,0.038-0.948,0.22-1.474,0.169c-0.164-0.311-0.13-0.715-0.461-0.843
	c-0.266-0.103-0.89-0.092-1.154-0.042c-0.773,0.146-0.858,0.889-1.492,1.158c-0.282,0.119-0.841,0.036-1.15,0.02
	c-1.76-0.091-3.559-0.219-5.343-0.135c-0.083,0.362-0.396,0.695-0.714,0.371c-0.544-0.554-0.846-0.49-1.512-0.243
	c-0.892,0.33-1.447,0.801-2.45,0.646c-1.351-0.208-2.641-0.764-3.976-0.992c-1.757-0.3-3.548-0.014-5.317-0.364
	c-1.344-0.265-2.606-0.374-3.888,0.089c-0.969,0.35-1.132,0.448-1.926-0.189c-0.694-0.557-1.304-0.556-2.162-0.556
	c-1.402,0-2.819,0.133-4.216,0.226c-1.595,0.106-3.215,0.204-4.815,0.199c-0.908-0.002-2,0.268-2.875,0.177
	c-0.402-1.563-1.645-1.407-2.934-0.984c-0.743,0.244-0.822,0.212-1.517-0.083c-0.431-0.183-0.893-0.152-1.356-0.095
	c-1.277,0.16-2.435,0.661-3.701,0.38c-0.513-0.114-1.809-0.445-1.866,0.481c-0.027,0.447,0.374,0.481,0.079,0.979
	c-0.249,0.42-0.473,0.526-0.497,1.06c-0.016,0.38,0.052,0.782-0.055,1.142c-0.249,0.033-0.439,0.111-0.701,0.111v35.186H49.683
	c0,0.551,0.32,1.493-0.124,1.925c-0.372,0.362-1.221,0.568-1.696,0.329c-0.361-0.181-0.818-0.539-1.046-0.862
	c-0.248-0.35-0.318-0.712-0.643-0.999c-0.322-0.285-0.634-0.479-1.084-0.4c-0.467,0.082-0.913,0.413-1.331,0.076
	c-0.217-0.175-0.299-0.472-0.416-0.708c-0.131-0.266-0.314-0.439-0.534-0.654c-0.244-0.239-0.527-0.591-0.843-0.713
	c-0.65-0.252-1.617,0.023-2.285,0.068c-0.373,0.396-0.588,0.875-1.064,1.224c-0.33,0.242-0.758,0.267-1.076,0.514
	c-0.258,0.201-0.464,0.554-0.626,0.836c-0.41,0.71-0.245,1.358-0.035,2.064c0.261,0.877,0.057,1.924,0.462,2.74
	c0.326,0.656,0.767,1.205,0.886,1.953c0.092,0.579,0.023,1.19-0.036,1.771c-0.434,0.499-0.487,1.625-0.343,2.234
	c0.129,0.546,0.284,1.003,0.236,1.561c-0.543,0.286-0.802-0.109-1.277-0.24c-0.409-0.113-1.078-0.103-1.504-0.135
	c-0.311-0.75,0.863-0.953,0.773-1.712c-0.046-0.393-0.266-0.753-0.638-0.871c-1.155-0.366-2.822,0.195-3.891,0.606
	c-0.806,0.31-2.285,0.754-2.585,1.679c-0.485,1.497,1.153,2.312,2.087,3.036c1.029,0.798,1.403,1.99,2.018,3.099
	c0.587,1.059,1.051,2.398,1.887,3.256c0.387-0.274,0.745-0.676,1.262-0.552c0.399,0.095,0.794,0.524,1.13,0.748
	c0.962,0.64,1.918,1.196,2.913,1.775c0.497,0.289,1.023,0.469,1.487,0.775c0.629,0.415,1.686,0.581,2.447,0.504
	c0.758-0.076,1.375-0.55,2.069-0.713c0.362-0.085,0.985-0.178,1.338-0.142c0.381,0.039,0.667,0.326,1.052,0.421
	c0.308,0.076,0.746,0.164,1.068,0.103c0.312-0.06,0.584-0.337,0.883-0.257c-0.381,0.532-1.866,0.639-2.471,0.495
	c-0.545-0.131-0.823-0.488-1.479-0.454C45.999,71.604,45.86,72.141,45.603,72.731z"/>
</svg>
