<?xml version="1.0" encoding="utf-8"?>
<!-- Generator: Adobe Illustrator 26.0.3, SVG Export Plug-In . SVG Version: 6.00 Build 0)  -->
<svg version="1.1" id="Isolation_Mode" xmlns="http://www.w3.org/2000/svg" xmlns:xlink="http://www.w3.org/1999/xlink" x="0px"
	 y="0px" viewBox="0 0 200 200" enable-background="new 0 0 200 200" xml:space="preserve">
<path fill="#1E8346" d="M174.635,153.596c-0.29-0.019-0.577,0.069-0.871,0.073c-0.389,0.004-0.732-0.064-1.113-0.117
	c-0.465-0.065-1.122,0.067-1.456-0.317c-0.145-0.166-0.183-0.401-0.307-0.58c-0.132-0.19-0.361-0.368-0.526-0.538
	c-0.451-0.466-0.657-1.236-1.119-1.633c-0.101-0.328-0.166-0.601-0.184-0.967c-0.022-0.451,0.023-0.627-0.458-0.704
	c-1.031-0.164-2.125-0.106-3.143-0.294c-0.108-0.235-0.149-0.486-0.259-0.721c-0.234-0.5-0.712-0.658-1.216-0.881
	c-0.372-0.164-0.811-0.246-1.137-0.502c-0.212-0.166-0.314-0.392-0.48-0.6c-0.231-0.29-0.574-0.396-0.822-0.657
	c-0.24-0.253-0.413-0.558-0.654-0.817c-0.213-0.229-0.752-0.848-0.749-1.132c0.003-0.372,0.651-0.864,0.803-1.175
	c0.149-0.304,0.24-0.84-0.1-1.061c-0.265-0.173-0.761-0.041-1.075-0.116c-0.69-0.164-1.293-0.86-1.816-1.3
	c0-0.478,0.054-0.935,0.076-1.41c0.017-0.385,0.201-0.97,0.062-1.334c-0.086-0.224-0.387-0.436-0.596-0.546
	c-0.498-0.263-1.063-0.151-1.369-0.726c-0.197-0.37,0.06-0.633-0.052-1.01c-0.116-0.392-0.726-0.596-0.982-0.937
	c-0.211-0.281-0.236-0.676-0.179-1.031c0.069-0.43,0.438-0.633,0.581-1.025c0.163-0.445-0.068-0.411-0.41-0.573
	c-0.807-0.381-1.075-1.33-0.062-1.541c0.74-0.155,1.381-0.452,1.484-1.24c0.087-0.665,0.672-1.414,0.617-2.1
	c-0.046-0.577-0.592-0.824-0.401-1.474c0.199-0.68,0.802-1.201,1.027-1.902c0.517-1.604,0.666-2.973,0.421-4.643
	c-0.059-0.398,0.091-1.492-0.412-1.643c-0.685-0.205-1.403,0.538-2.159,0.337c-0.966-0.257-0.688-1.206-1.073-1.979
	c-0.12-0.242-0.28-0.407-0.293-0.682c-0.025-0.541,0.293-1.075,0.293-1.644c-0.001-0.472-0.028-1.218,0.336-1.602
	c0.196-0.206,0.527-0.179,0.772-0.291c0.703-0.322,0.773-1.115,0.773-1.822c0.001-1.003,0.522-0.672,0.963-1.246
	c0.24-0.311,0.11-1.033,0.242-1.446c0.198-0.623-0.192-0.75-0.242-1.352c-0.036-0.433,0.11-0.959,0.098-1.422
	c-0.021-0.838-0.127-1.645-0.289-2.463c-0.284-1.429-0.386-2.739-0.386-4.222c-0.494-0.457-0.119-1.69,0.086-2.247
	c0.113-0.307,0.449-0.746,0.34-1.086c-0.089-0.275-0.651-0.366-0.41-0.774c0.133-0.226,0.72-0.155,0.912-0.429
	c0.113-0.161,0.096-0.603,0.238-0.812c0.271-0.398,0.769-0.576,1.182-0.779c0.433-0.213,0.673-0.191,1.136-0.243
	c0.187-0.021,0.383-0.006,0.475-0.167c0.096-0.168-0.042-0.677-0.051-0.887c-0.025-0.66-0.141-0.345-0.416-0.768
	c-0.251-0.387,0.105-0.951-0.155-1.371c-0.266-0.428-0.801-0.617-1.215-0.847c-0.311-0.173-0.757-0.431-0.868-0.758
	c-0.143-0.422,0.083-1.231,0.291-1.571c-0.857-0.192-1.69-0.475-2.37-1.029c-0.335-0.273-0.673-0.656-1.053-0.864
	c-0.417-0.229-0.705-0.175-1.011-0.577c-0.124-0.162-0.207-0.379-0.355-0.492c-0.42-0.323-0.676-0.226-0.977-0.682
	c-0.177-0.269-0.336-0.533-0.512-0.813c-0.325-0.519-0.623-1.021-0.893-1.573c-0.321-0.656-0.83-1.642-0.601-2.424
	c0.166-0.567,0.684-0.346,1.164-0.365c0.208-0.009,0.233,0.129,0.421,0.004c0.169-0.112,0.15-0.429,0.403-0.558
	c1.207,1.254,0.809-0.83,1.327-1.272c0.25-0.214,0.644-0.134,0.741-0.501c0.081-0.304-0.216-0.505-0.281-0.775
	c-0.137-0.571,0.06-1.027-0.203-1.638c-0.309-0.718-0.688-1.441-1.059-2.132c-0.193-0.359-0.574-0.852-0.349-1.291
	c0.113-0.221,0.481-0.269,0.584-0.494c0.098-0.215-0.033-0.565-0.034-0.789c-0.001-0.474,0.035-0.951,0.038-1.429
	c0.696-0.02,1.296-0.925,1.4-1.541c0.121-0.711-0.463-1.06-0.528-1.733c0.322-0.196,1.015-0.717,1.217-1.015
	c0.289-0.427-0.143-0.578-0.314-0.983c-0.214-0.506-0.066-0.889,0.183-1.304c0.111-0.184,0.352-0.477,0.397-0.678
	c0.077-0.343-0.032-0.341-0.087-0.701c-0.32-0.304-1.142-0.464-1.566-0.777c0.095-0.626-0.294-1.326-0.842-1.588
	c-0.403-0.193-1.048-0.097-1.502-0.095c-0.537,0.002-1.199-0.117-1.725,0.005c-1.147,0.266-1.378,2.407-2.924,1.907
	c-0.593-0.191-1.945-1.538-0.622-1.627c0.503-0.033,0.738,0.304,1.247-0.065c0.531-0.385,0.505-0.539,0.306-1.142
	c-0.648,0.048-1.564-0.129-1.636-0.875c-0.061-0.63,0.338-0.524,0.732-0.472c0.765,0.101,1.669,0.137,2.409-0.045
	c0.841-0.207,0.632-0.539,0.854-1.259c0.165-0.536,0.125-0.774-0.204-1.284c-0.174-0.269-0.559-0.578-0.658-0.844
	c-0.105-0.283,0.131-0.68-0.054-0.951c-0.236-0.345-0.583-0.205-0.665-0.724c-0.114-0.713,0.236-1.363,0.494-1.999
	c0.435-1.072,0.56-2.209,0.567-3.362c0.353-0.284,0.691-0.243,0.628-0.759c-0.055-0.456-0.492-0.735-0.664-1.11
	c-0.218-0.476-0.281-1.105,0.213-1.219c0.325-0.075,0.585,0.173,0.897,0.089c0.859-0.232,0.539-1.137,0.066-1.533
	c-0.509-0.425-1.178-0.658-1.348-1.362c-0.209-0.866,0.069-1.821,0.112-2.687c0.036-0.695-0.227-1.467,0.334-1.948
	c0.195-0.168,1.227-0.726,0.636-1.058c-0.083-0.047-0.633,0.14-0.748,0.131c-0.207-0.015-0.461-0.1-0.644-0.191
	c-0.36-0.179-0.334-0.248-0.387-0.508c-0.04-0.196,0.086-0.369-0.057-0.572c-0.147-0.209-0.53-0.315-0.727-0.48
	c-0.555-0.467-0.532-1.025-0.532-1.702c-0.235,0.153-0.39,0.531-0.671,0.589c-0.441,0.09-0.918-0.545-1.071-0.878
	c-0.847,0.503-1.159,0.036-1.614-0.531c-0.596-0.743-0.789-1.51-0.687-2.497c-0.36-0.228-0.739-0.49-1.112-0.693
	c-0.463-0.253-1.079-0.346-1.515-0.628c-0.307-0.198-0.225-0.096-0.422-0.499c-0.269-0.551-0.119-0.686-0.715-0.896
	c-0.791-0.279-1.753-0.26-2.237-1.021c-0.759-1.193-1.008-3.155-0.07-4.284c0.591-0.711,1.019-1.315,1.25-2.248
	c0.19-0.771,0.044-1.604,0.321-2.353c0.209-0.563,0.793-0.772,0.968-1.334c0.113-0.361,0.126-1.094-0.005-1.475
	c-0.234-0.684-1.128-1.994-1.828-2.29c-0.41,0.888-1.518,0.756-2.364,0.495c-0.913-0.281-0.962-0.81-1.305-1.605
	c-0.594-0.062-1.24-0.416-1.819-0.593c-0.63-0.191-1.096-0.289-1.752-0.372c-0.233,0.706,0.093,1.305-0.005,1.978
	c-0.456,0.002-1.238-0.168-1.579,0.193c-0.195,0.206-0.16,0.603-0.395,0.845c-0.786,0.813-0.85-0.61-0.915-1.127
	c-0.685,0.233-1.813-0.331-1.932,0.631c-0.061,0.495,0.177,1.353-0.052,1.798c-0.157,0.305-0.318,0.232-0.626,0.265
	c-0.399,0.042-0.393,0.034-0.662,0.303c-0.126,0.125-0.213,0.307-0.35,0.439c-0.268,0.258-0.666,0.464-0.915,0.754
	c-0.513-0.003-1.391-0.16-1.663,0.357c-0.257,0.485-0.032,1.092-0.457,1.537c-0.527-0.248-1.011-0.222-1.384-0.712
	c-0.461-0.605-0.733-1.474-1.495-1.816c-0.642-0.288-1.732-0.182-2.431-0.187c-0.948-0.007-1.436,0.13-2.275,0.557
	c-0.362,0.184-0.864,0.464-1.289,0.294c-0.519-0.206-0.409-0.595-0.998-0.707c-1.146-0.218-2.439-0.04-3.594,0.002
	c-2.694,0.098-5.418-0.005-8.112,0.142c-0.563,0.031-1.605,0.238-2.118-0.02c-0.271-0.136-0.364-0.49-0.607-0.644
	c-0.297-0.187-0.786-0.106-1.174-0.106c-0.718,0-1.435,0.001-2.153,0c-0.73-0.001-1.88,0.368-2.58,0.145
	c0,0.787,0.15,1.179-0.657,1.3c-0.987,0.148-2.256,0.173-3.245,0.14c-0.098-0.272-0.007-0.573-0.007-0.861H54.922
	c-0.113,0.419-0.238,1.112-0.074,1.531c0.181,0.464,0.954,0.785,0.542,1.364c-0.354,0.497-1.153,0.397-1.565,0.731
	c-0.295,0.239-0.167,0.848-0.169,1.185c-0.007,0.996-0.187,1.748-0.866,2.445c-0.201,0.207-0.338,0.465-0.51,0.678
	c-0.227,0.282-0.598,0.354-0.361,0.708c0.147,0.22,0.517,0.253,0.706,0.409c0.298,0.244,0.174,0.358,0.126,0.756
	c-0.089,0.731-1.093,1.241-0.976,1.979c0.065,0.409,0.383,0.722,0.603,1.048c0.253,0.376,0.483,0.781,0.686,1.188
	c0.508,1.017,0.852,2.395,2.037,2.801c0.32,0.11,1.026,0.039,1.239,0.373c0.195,0.304-0.06,0.553-0.276,0.7
	c-0.507,0.344-1.399,0.536-1.503,1.252c-0.064,0.438,0.111,1.307,0.291,1.697c0.187,0.404,1.136,0.762,1.499,1.066
	c0.464,0.39,0.818,0.619,0.638,1.268c-0.076,0.275-0.264,0.526-0.444,0.738c-0.301,0.355-0.403,0.552-0.382,1.047
	c0.048,1.113,0.158,2.223,0.388,3.31c0.087,0.41,0.037,0.835,0.185,1.232c0.132,0.354,0.347,0.678,0.507,1.028
	c0.281,0.616,0.339,1.208,0.252,1.891c-0.051,0.405-0.416,0.714-0.392,1.147c0.013,0.238,0.136,0.572,0.257,0.773
	c0.184,0.305,0.589,0.449,0.746,0.765c0.174,0.351,0.055,0.681-0.121,1.014c-0.396,0.744-1.41,0.923-1.676,1.744
	c-0.143,0.442-0.048,1.123,0.175,1.498c0.233,0.39,0.704,0.583,0.911,0.989c0.184,0.359,0.174,0.959-0.026,1.313
	c-0.24,0.424-0.564,0.685-0.517,1.218c0.041,0.463,0.377,0.615,0.722,0.885c0.311,0.244,0.633,0.501,0.943,0.74
	c0.347,0.267,0.855,0.688,1.107,1.04c0.406,0.567,0.114,2.152,0.08,2.786c-0.021,0.395-0.052,0.804-0.264,1.137
	c-0.18,0.283-0.538,0.424-0.736,0.668c-1.026,1.267,1.906,1.563,1.217,2.596c-0.232,0.348-0.687,0.588-1.007,0.837
	c-0.492,0.382-0.573,0.712-0.875,1.22c-0.407,0.686-1.123,0.568-1.079,1.471c0.021,0.436,0.186,0.935,0.104,1.373
	c-0.063,0.334-0.362,0.581-0.382,0.929c0.639,0.133,1.317,0.234,1.938,0.404c0.439,0.12,0.829,0.58,1.29,0.57
	c0.091,0.548,0.093,1.133,0.266,1.671c0.143,0.449,0.431,0.759,0.653,1.166c0.159,0.291,0.219,0.566,0.297,0.873
	c0.154,0.603,0.535,1.14,0.661,1.741c0.1,0.481-0.436,1.339-0.189,1.633c0.183,0.218,0.782,0.186,1.003,0.461
	c0.278,0.346,0.429,1.243,0.496,1.668c0.145,0.916,0.264,1.809,0.478,2.723c0.471,2.009,0.689,4.084,1.092,6.093
	c0.326,1.628,0.067,3.158,0.067,4.794c0,0.931,0.266,1.886-0.492,2.523c-0.429,0.36-0.891,0.705-1.398,0.938
	c-0.508,0.233-1.244,0.286-1.549,0.801c0.451,0.685,0.822,2.512-0.24,2.772c-0.491,0.12-1.066,0.03-1.545,0.246
	c-0.558,0.252-0.822,0.877-1.099,1.386c-0.342,0.626-0.518,1.559-1.3,1.129c-0.573-0.316-0.841-0.493-0.868,0.311
	c-0.026,0.747,0.129,1.61-0.29,2.244c-0.38,0.575-0.72,1.076-1.024,1.714c-0.664,1.397-1.367,2.787-2.11,4.156
	c-0.378,0.696-0.485,1.229-0.485,2.002c0,0.604-0.162,1.161-0.29,1.732c-0.19,0.852-0.148,1.751-0.329,2.612
	c-0.17,0.806-0.328,1.615-0.491,2.417c-0.16,0.792-0.428,2.182-0.113,2.973c0.165,0.413,0.36,0.416,0.306,0.867
	c-0.036,0.302-0.168,0.543-0.337,0.798c-0.435,0.656-1.354,1.091-1.654,1.773c-0.3,0.682,0.13,1.585-0.163,2.217
	c-0.327,0.704-1.186,0.413-1.756,0.637c-0.343,0.135-0.642,0.693-0.857,0.979c-0.368,0.49-0.686,1.008-0.939,1.567
	c-0.226,0.497-0.402,1.019-0.639,1.511c-0.259,0.54-0.812,1.266-1.183,1.724c-0.42,0.518-1.214,1.088-1.213,1.8
	c0.001,0.451,0.413,0.849,0.607,1.224c0.318,0.614,0.244,1.225,0.075,1.861c-0.1,0.375-0.193,0.691-0.409,1.018
	c-0.212,0.32-0.557,0.519-0.46,0.989c0.077,0.378,0.46,0.717,0.589,1.126c0.432,1.368,0.219,2.947,0.449,4.37
	c0.28,1.736,1.016,3.246,1.761,4.823c0.239,0.506,0.461,1.026,0.68,1.524c0.183,0.417,0.377,1.186,0.672,1.53
	c1.018,1.187,0.896,3.119,1.096,4.541c0.165,1.173,0.15,2.64,0.71,3.688c0.368,0.688,0.935,1.11,1.089,1.869
	c0.107,0.528,0.144,1.007,0.145,1.553c0.001,0.748-0.145,1.538-0.145,2.294c0.557,0.369,1.25-0.42,1.495,0.505
	c0.142,0.538-0.165,1.174-0.001,1.687c0.537,1.682,2.757-0.702,3.719-0.308c0.49,0.201,1.13,0.824,1.57,1.156
	c0.529,0.399,0.737,0.944,0.892,1.588c0.325,1.353,0.435,2.764,0.76,4.115c0.079,0.329,0.08,0.676,0.154,1.003
	c0.059,0.259,0.316,0.635,0.245,0.911c-0.127,0.489-1.027,0.315-1.503,0.477c0.344,0.396,0.187,1.025-0.013,1.443
	c-0.238,0.497-0.281,0.48,0.145,0.829c0.323,0.264,0.677,0.546,0.506,1.074c-0.191,0.592-0.43,0.492-0.152,1.171
	c0.171,0.419,0.726,1.037,0.678,1.505c-0.064,0.622-0.727,0.794-1.257,0.794c-1.459,0-2.835-0.221-4.284-0.292
	c-0.443-0.022-0.818-0.054-1.169,0.22c-0.264,0.207-0.294,0.432-0.645,0.507c-0.527,0.113-1.185-0.17-1.648-0.365
	c-0.516-0.218-1.329-0.764-1.936-0.456c-0.432,0.218-0.099,0.839-0.112,1.256c0.675,0.188,2.012,0.174,2.718,0.34
	c0.586,0.137,1.078,0.466,1.653,0.611c1.722,0.436,3.569,0.089,5.29,0.45c1.404,0.294,2.833,0.693,4.228,1.059
	c1.534,0.403,3.085,0.549,4.621,0.942c1.461,0.374,2.738,0.958,4.313,0.892c1.529,0.463,2.538,2.19,3.769,3.139
	c0.613,0.473,1.278,0.905,1.971,1.249c0.837,0.415,0.831,0.614,1.24,1.391c1.071,0.177,2.093-0.284,3.049-0.722
	c1.296-0.594,2.499-1.2,3.666-2.004c0.905-0.624,1.95-1.103,2.881-1.675c0.902-0.555,1.788-1.191,2.714-1.694
	c0.877-0.477,1.593-0.93,2.401-1.513c0.717-0.518,1.397-0.928,2.24-1.186c0.67-0.205,1.348-0.385,2.026-0.584
	c0.809-0.237,1.647-0.207,2.477-0.371c0.899-0.177,2.403-0.241,3.074-0.855c0.671-0.063,1.764-0.042,2.33-0.321
	c0.396-0.195,0.596-0.52,0.874-0.855c0.835-1.011,2.067-1.763,3.403-1.773c1.036-0.008,2.07-0.048,3.108-0.043
	c1.127,0.005,3.001,0.418,3.827-0.602c0.301-0.373,0.4-0.762,0.789-1.112c0.947-0.851,2.182-1.342,3.328-1.851
	c0.57-0.253,1.158-0.457,1.739-0.682c0.525-0.203,0.998-0.511,1.548-0.615c0.251-0.047,3.083-0.482,2.409-1.024
	c0.7-1.544,2.263-2.027,3.59-2.854c1.146-0.714,2.561-0.902,3.899-1.139c1.436-0.254,2.488-0.566,3.594-1.518
	c1.038-0.894,2.657-0.527,3.673-1.34c0.652-0.521,1.012-1.684,1.789-2.07c0.438-0.217,1.109,0.029,1.558-0.101
	c0.317-0.092,0.58-0.337,0.813-0.556c1.098-1.035,2.776-1.247,4.233-1.472c1.143-0.177,2.411-0.434,3.583-0.434
	c0.343,0.001,1.375,0.242,1.619,0.028c0.298-0.26-0.248-0.967,0.021-1.333c0.213-0.291,0.989-0.152,1.3,0.037
	c0.463,0.283,0.199,0.487,0.44,0.926c0.27,0.492,0.666,0.249,1.241,0.326c0.796,0.106,1.605,0.173,2.417,0.21
	c1.022,0.046,2.035,0.197,3.052,0.24c0.768,0.033,1.544,0,2.313,0c0.731,0,1.714,0.091,2.387-0.198
	c0.333-0.143,0.641-0.553,0.96-0.755c0.243-0.154,0.532-0.253,0.764-0.456c0.321-0.281,0.66-0.723,0.775-1.136
	c0.114-0.413-0.002-0.907,0.081-1.312c0.117-0.575,0.169-0.894,0.171-1.499c0.094-0.142,0.173-0.358,0.289-0.497
	c0.166-0.197,0.425-0.254,0.636-0.391c0.207-0.134,0.479-0.286,0.582-0.5c0.204-0.419,0.397-0.838,0.75-1.159
	c0.348-0.316,0.596-0.732,0.954-1.045c0.788-0.69,1.709-0.896,2.707-1.031C174.867,154.976,175.195,153.634,174.635,153.596z"/>
</svg>
