<?xml version="1.0" encoding="utf-8"?>
<!-- Generator: Adobe Illustrator 26.0.3, SVG Export Plug-In . SVG Version: 6.00 Build 0)  -->
<svg version="1.1" id="Isolation_Mode" xmlns="http://www.w3.org/2000/svg" xmlns:xlink="http://www.w3.org/1999/xlink" x="0px"
	 y="0px" viewBox="0 0 200 200" enable-background="new 0 0 200 200" xml:space="preserve">
<path fill="#1E8346" d="M42.039,108.39c-0.261-0.405-0.109-1.081,0.065-1.482c0.261-0.603,0.393-1.221,0.869-1.7
	c0.365-0.367,0.744-0.715,1.128-1.051c0.338-0.297,0.882-0.671,1.122-1.045c0.452-0.702,0.79-1.465,1.436-2.013
	c0.335,0.864,1.965,0.882,2.666,1.117c1.249,0.417,2.234,0.613,3.511,0.153c1.962-0.706,4.054-0.74,6.134-0.74
	c1.104,0,2.019-0.089,3.073-0.339c0.721-0.171,1.401-0.22,2.03-0.655c0.601-0.416,0.735-0.594,1.52-0.436
	c0.831,0.167,1.452,0.571,2.309,0.523c0.844-0.046,1.571,0,2.379-0.263c0.892-0.291,1.816-0.352,2.739-0.488
	c1.47-0.216,2.341-1.234,3.554-1.954c0.551-0.327,0.593-0.3,0.978,0.164c0.339,0.408,0.704,0.793,1.122,1.121
	c0.81,0.634,1.837,1.095,2.798,0.403c0.765-0.551,0.6-1.284,0.893-2.073c0.189-0.508,0.861-1.346,0.694-1.896
	c-0.554,0.32-1.074,0.678-1.415,1.228c-0.197,0.318-0.376,0.956-0.653,1.196c-0.725,0.63-2.046-1.183-2.833-1.395
	c-1.904-0.514-3.808,1.13-5.225,2.2c-1.037,0.782-2.323,0.525-3.55,0.524c-0.964,0-1.851-0.384-2.757-0.392
	c-0.476-0.005-0.99-0.043-1.466,0.004c-0.427,0.042-0.817,0.261-1.226,0.382c-0.71,0.209-1.397,0.602-2.127,0.662
	c-1.52,0.124-3.407-0.442-4.895-0.175c-0.213,0.038-0.467,0.077-0.661,0.18c-0.119,0.063-0.203,0.197-0.312,0.252
	c-0.314,0.156-0.793,0.13-1.137,0.144c-1.067,0.043-2.142,0.004-3.211,0.007c-0.947,0.003-1.77-0.202-2.676-0.424
	c-0.293-0.072-0.721-0.126-0.927-0.369c-0.194-0.228-0.145-0.559-0.301-0.819c-0.378,0.418-0.831,0.288-1.221,0.017
	c0.012,0.271,0.039,0.375,0.156,0.606c0.062,0.122,0.186,0.106,0.109,0.26c-0.08,0.162-0.659,0.217-0.83,0.306
	c-0.204,0.105-0.412,0.253-0.608,0.385c-0.495,0.332-1.001,0.65-1.498,0.978c-0.379,0.25-0.85,0.621-0.988,1.052
	c-0.057,0.179-0.026,0.321-0.151,0.486c-0.131,0.173-0.376,0.294-0.54,0.434c-0.444,0.38-0.833,0.819-1.311,1.161
	c-0.957,0.685-1.999,1.263-3.078,1.718c-0.47,0.199-0.747,0.261-1.006,0.715c-0.176,0.307-0.213,0.314-0.556,0.245
	c-0.237-0.048-0.476-0.101-0.703-0.181c-0.188-0.066-0.356-0.19-0.548-0.235c-0.421-0.1-0.81,0.138-1.196,0.272
	c-1.167,0.406-2.371,0.965-3.639,0.776c-0.351-0.052-0.472-0.208-0.736-0.405c-0.288-0.215-0.612-0.419-0.928-0.599
	c-0.38-0.216-0.66-0.554-1.108-0.537c-0.388-0.263-1.117-0.238-1.58-0.349c-0.572-0.136-1.108-0.275-1.696-0.323
	c0.06-0.533,0.541-0.846,0.859-1.244c0.374-0.47,0.646-1.037,0.75-1.633c0.089-0.511,0.119-1.226-0.041-1.729
	c-0.141-0.444-0.496-1.131-0.805-1.467c-0.249-0.27-0.722-0.338-1.05-0.477c-0.387-0.164-0.699-0.353-1.128-0.391
	c-0.594-0.052-1.429,0.077-1.357-0.764c0.036-0.424,0.405-0.838,0.612-1.214c0.295-0.538,0.647-0.924,0.754-1.542
	c0.087-0.503,0.056-0.996,0.001-1.503c-0.046-0.431-0.229-0.802-0.29-1.235c-0.053-0.369-0.347-0.586-0.552-0.884
	c-0.132-0.191-0.41-0.576-0.364-0.816h68.031c-0.086-0.74,0.237-1.812,0.394-2.533c0.159-0.734,0.293-1.474,0.487-2.202
	c0.514-1.924,1.279-3.671,2.819-4.967c0.461-0.388,0.963-0.714,1.438-1.088c0.623-0.491,0.91-0.647,1.659-0.89
	c0.48-0.155,0.94-0.461,1.422-0.584c0.678-0.174,1.594-0.129,2.296-0.138c0.802-0.012,1.821,0.293,2.447,0.793
	c0.546,0.436,1.115,1.027,1.767,1.289c0.611,0.245,1.248-0.161,1.786-0.447c1.713-0.912,3.482-1.689,5.245-2.497
	c0.44-0.201,0.862-0.43,1.292-0.644c0.458-0.227,1.028-0.205,1.403-0.442c0.342-0.217,0.591-0.95,1.064-0.772
	c0.152,0.057,0.258,0.329,0.426,0.422c0.266,0.148,0.722,0.171,1.021,0.194c0.666,0.052,1.113,0.049,1.719,0.367
	c0.697,0.365,1.413,0.598,2.116,0.934c0.395,0.188,0.913,0.55,1.333,0.621c0.522,0.088,0.896-0.389,1.364-0.559
	c0.43,0.104,1.051-0.087,1.505-0.043c0.488,0.046,0.983,0.171,1.47,0.264c0.954,0.183,1.827,0.214,2.608,0.837
	c0.781,0.623,1.59,1.105,2.037,2.028c0.526,1.086,1.039,2.203,1.332,3.361c0.112,0.441,0.099,0.943,0.077,1.403
	c-0.012,0.267-0.079,0.516-0.119,0.778c-0.076,0.494-0.019,0.472,0.503,0.723c0.544,0.261,1.094,0.439,1.671,0.625
	c0.305,0.098,0.465,0.206,0.71,0.4c0.443,0.352,0.857,0.528,1.37,0.747c0.977,0.417,2.345,0.35,3.319-0.164
	c0.51-0.269,0.938-0.754,1.448-1.058c0.615-0.367,1.306-0.662,2.026-0.734c0.596-0.06,1.217-0.051,1.816-0.084
	c0.6-0.033,1.303-0.17,1.897-0.045c0.563,0.117,1.114,0.609,1.662,0.823c0.385,0.15,0.752,0.316,1.093,0.548
	c0.885,0.601,1.652,1.177,2.104,2.192c0.45,1.007,0.654,2.099,0.958,3.147l1.512,1.425l1.221,2.152l2.036,0.611l4.42,2.472
	l1.512-0.523l3.809-0.233l0.727-1.628l1.774-1.948l1.483-0.523l2.268,0.204l0.756-0.407l0.407-0.698l2.355-1.105l4.275,0.116
	l1.687-1.716c0.544,0,1.45-0.196,1.951-0.008c0.275,0.103,0.451,0.273,0.755,0.35c0.353,0.089,0.647,0.275,0.988,0.406
	c0.707,0.273,1.516,0.112,2.145,0.625c0.511,0.417,0.98,0.74,1.285,1.338c0.358,0.701,0.87,1.487,1.549,1.912
	c0.681,0.427,1.485,0.767,2.117,1.265c0.62,0.487,1.187,1.239,1.497,1.961c0.244,0.569,0.194,1.174,0.276,1.778
	c0.068,0.51,0.173,1.038,0.1,1.555c-0.05,0.357-0.204,0.697-0.289,1.045c-0.095,0.391-0.107,0.83-0.304,1.187
	c-0.158,0.287-0.451,0.409-0.679,0.633c-0.239,0.234-0.4,0.508-0.479,0.843c-0.163,0.684-0.564,0.965-1.169,1.309
	c-0.379,0.216-0.744,0.278-1.174,0.319c-0.392,0.037-0.47,0.087-0.686,0.406h-6.572l-1.599,0.902l-7.619,1.367
	c-0.47,0.596-0.921,1.219-1.455,1.766c-0.998,1.022-2.292,1.814-3.737,2.059c-0.909,0.154-1.832,0.164-2.679-0.24
	c-0.618-0.295-1.137-0.727-1.783-0.939c-0.625-0.204-1.2,0.357-1.822,0.518c-0.542,0.14-1.164,0.064-1.726,0.064
	c-0.666,0-1.341,0.029-1.995-0.075c-0.579-0.093-1.103-0.359-1.634-0.595c-0.695-0.309-1.443-0.49-2.134-0.818
	c-0.558-0.265-0.94-0.647-1.345-1.095c-0.357-0.395-0.804-0.803-1.034-1.284c-0.947,0-1.983-0.027-2.911-0.233
	c-2.124-0.472-3.514-2.452-4.736-4.041c-0.53,0.322-1.404,0.432-1.984,0.707c-0.56,0.265-1.105,0.487-1.744,0.457
	c-0.623-0.029-1.336-0.038-1.937-0.203c-0.55-0.152-1.06-0.411-1.557-0.672c-0.78-0.409-1.341-1.052-2.032-1.569
	c-0.682-0.51-1.085-1.025-1.571-1.684c-0.385-0.522-0.737-0.977-0.953-1.601c-0.279,0.02-0.697-0.132-0.972-0.175
	c-0.552-0.085-1.14-0.052-1.683-0.178c-0.672-0.156-1.366-0.49-2.007-0.758c-0.568-0.238-1.067-0.257-1.674-0.256
	c-0.79,0.001-1.577-0.051-2.362-0.148c-0.98-0.122-2.136-0.188-2.801-1.029c-0.478-0.604-1.122-0.886-1.856-1.098
	c-0.399-0.115-0.79-0.179-1.192-0.282c-0.468-0.12-0.757-0.411-1.115-0.705c-0.544-0.446-1.161-0.738-1.612-1.293
	c-0.416-0.512-0.848-0.995-1.28-1.503c-0.289-0.339-0.601-0.643-0.813-1.037c-0.191-0.355-0.324-0.751-0.468-1.116
	c-0.163-0.415-0.508-0.86-0.463-1.327c-0.423-0.068-0.724-0.271-1.102-0.049c-0.501,0.293-1.137,0.267-1.592,0.654
	c-0.397,0.339-0.451,0.918-0.752,1.322c-0.399,0.537-1.106,0.859-1.627,1.257c-0.647,0.494-1.284,0.935-1.965,1.354l-1.367,6.427
	c-0.033,0.276-0.738,0.684-0.923,0.908c-0.274,0.332-0.455,0.727-0.737,1.048c-0.195,0.223-0.415,0.431-0.645,0.616
	c-0.313,0.252-0.609,0.562-0.945,0.78c-0.642,0.416-1.396,0.63-2.099,0.908c-0.689,0.273-1.374,0.566-2.093,0.739
	c-0.727,0.174-1.495,0.119-2.242,0.119c-0.288,0-0.62-0.282-0.892-0.376c-0.587-0.203-1.202-0.283-1.794-0.487
	c-0.329-0.113-0.73-0.257-1.09-0.36c-0.335-0.096-0.682-0.094-0.996-0.253c-0.546-0.276-1.026-0.667-1.591-0.886
	c-0.355-0.138-0.522-0.404-0.895-0.402c-0.315,0.002-0.629,0.05-0.945,0.061c-0.498,0.018-0.819,0.004-1.253,0.264
	c-0.389,0.234-0.721,0.529-1.069,0.817c-0.586,0.486-1.209,1.04-1.945,1.273c-0.447,0.142-0.992,0.057-1.462,0.057
	c-0.593,0-1.177-0.048-1.761-0.146c-0.739-0.124-1.516-0.229-2.274-0.233c-0.608-0.003-1.118-0.159-1.703-0.248
	c-0.607-0.092-1.116,0.333-1.689,0.521c-0.491,0.161-1.045,0.179-1.557,0.252c-1.378,0.196-2.794,0.291-4.186,0.29v11.835
	l-55.309-0.204c0,0.095,0.099,0.252,0,0.321c-0.114,0.08-0.184-0.081-0.297-0.104c-0.159-0.033-0.236,0.131-0.364,0.219
	c-0.167,0.115-0.46,0.223-0.662,0.116c-0.14,0.106-0.065,0.263-0.263,0.35c-0.142,0.063-0.248,0.007-0.291,0.163
	c-0.068,0.246,0.121,0.551,0.235,0.755c0.067,0.119,0.267,0.363,0.231,0.522c-0.035,0.154-0.191,0.113-0.321,0.13
	c-0.173,0.022-0.184,0.064-0.22,0.222c-0.058,0.254-0.109,0.227-0.298,0.385c-0.148,0.123-0.213,0.219-0.437,0.207
	c-0.045,0.145,0.159,0.26,0.112,0.437c-0.048,0.181-0.238,0.306-0.421,0.258c-0.222-0.058-0.249-0.343-0.445-0.411
	c-0.104-0.036-0.271,0.041-0.305,0.15c-0.03,0.095,0.034,0.182,0.063,0.27c0.032,0.098,0.035,0.207,0.09,0.292
	c0.095,0.145,0.302,0.135,0.398,0.253c0.059,0.072,0.047,0.131,0.009,0.227c-0.035,0.087-0.102,0.162-0.173,0.222
	c-0.024,0.021-0.104,0.038-0.116,0.072c-0.048,0.144,0.238,0.333,0.219,0.537c-0.015,0.166-0.16,0.477-0.323,0.543
	c-0.203,0.082-0.474-0.086-0.524,0.188c-0.041,0.229,0.061,0.483,0.175,0.67c0.128,0.211,0.012,0.451,0.088,0.684
	c0.072,0.22,0.15,0.475,0.043,0.709c-0.178-0.161-0.235-0.461-0.3-0.695c-0.108-0.39-0.296-0.848-0.558-1.163
	c-0.162-0.194-0.309-0.353-0.552-0.43c-0.166-0.053-0.553-0.13-0.671-0.284c-0.109-0.142-0.026-0.411,0.01-0.566
	c0.071-0.307,0.076-0.618,0.116-0.928c0.03-0.23,0.022-0.462,0.033-0.693c0.008-0.168,0.024-0.35-0.026-0.511
	c-0.108-0.342-0.303-0.544-0.29-0.92c0.014-0.433-0.563-0.885-0.811-1.235c-0.424-0.598-0.104-0.815,0.082-1.437
	c0.178-0.597,0.09-1.288,0.09-1.918c0-0.839,0.172-1.875-0.096-2.675c-0.236-0.705-0.681-0.952-1.127-1.462
	c-0.498-0.57-0.164-1.213-0.129-1.866c0.05-0.942-0.275-1.616-0.427-2.514c-0.019-0.114-0.11-0.269-0.057-0.39
	c0.082-0.185,0.158-0.065,0.267-0.182c0.203-0.219,0.323-0.311,0.425-0.675c0.231-0.817,0.4-1.446,1.233-1.846
	c0.797-0.382,1.365-0.67,1.936-1.37c0.383-0.471,0.746-0.933,1.041-1.46c0.398-0.712,0.728-1.823,1.382-2.36
	c0.6-0.492,1.678-0.861,2.389-1.179c0.258-0.115,0.278-0.197,0.534-0.097c0.16,0.062,0.251,0.316,0.424,0.4
	c0.436,0.213,1.259,0.05,1.724,0.048c0.959-0.003,1.944,0.295,2.793,0.73c0.403,0.206,1.58,1.053,0.721,1.32
	c-0.484,0.15-0.697-0.172-1.218,0.131c-0.365,0.212-0.66,0.552-0.922,0.873c-0.154,0.188-0.549,0.636-0.432,0.93
	c0.117,0.295,0.7,0.047,0.947,0.173c0.241,0.123,0.596,0.533,0.762,0.766c0.414,0.585,0.703,1.414,0.987,2.077
	c0.3,0.701-0.009,1.007-0.074,1.706c-0.085,0.916,0.245,1.597,0.765,2.318c0.56,0.776,0.962,0.887,1.898,0.981
	c0.816,0.082,1.639,0.218,2.45,0.337c0.749,0.11,1.352,0.403,2.043,0.613c0.336,0.102,0.329,0.24,0.566,0.395
	c0.324,0.212,1.038,0.113,1.4,0.1c0.516-0.019,1.114-0.066,1.604-0.232c0.347-0.117,0.669-0.187,1.034-0.257
	c0.174-0.034,0.468-0.134,0.609-0.008c0.178,0.159,0.061,0.493,0.16,0.681c0.117,0.223,0.32,0.228,0.563,0.258
	c0.665,0.082,0.659-0.391,1.058-0.809c0.525-0.55,1.197-0.856,1.942-0.935c0.578-0.061,1.072-0.286,1.608-0.501
	c1.056-0.421,2.086-0.776,3.052-1.378c0.194-0.12,0.715-0.499,0.963-0.459C41.546,108.117,41.787,108.354,42.039,108.39z"/>
</svg>
