<?xml version="1.0" encoding="utf-8"?>
<!-- Generator: Adobe Illustrator 26.0.3, SVG Export Plug-In . SVG Version: 6.00 Build 0)  -->
<svg version="1.1" id="Isolation_Mode" xmlns="http://www.w3.org/2000/svg" xmlns:xlink="http://www.w3.org/1999/xlink" x="0px"
	 y="0px" viewBox="0 0 200 200" enable-background="new 0 0 200 200" xml:space="preserve">
<path fill="#1E8346" d="M193.337,137.474c-0.247-0.4-0.174-0.821-0.054-1.242c0.127-0.445,0.231-0.833,0.07-1.274
	c-0.146-0.402-0.53-0.637-0.6-1.019c-0.129-0.711,0.713-1.585,0.397-2.22c-0.409-0.822-1.175-0.145-1.753-1.274
	c-0.163-0.319-0.145-0.864-0.423-1.143c-0.122-0.122-0.395-0.084-0.506-0.247c-0.128-0.187,0.017-0.683-0.031-0.922
	c-0.405,0.097-0.95,0.575-1.329,0.502c-0.447-0.086-0.408-0.634-0.684-0.872c-0.402-0.347-0.723-0.112-1.059,0.056
	c-0.391,0.196-0.673,0.167-1.092,0.026c-0.626-0.211-0.882-0.881-0.439-1.378c0.242-0.271,1.078-0.818,1.064-1.211
	c-0.014-0.373-0.415-0.292-0.293-0.746c0.054-0.203,0.2-0.317,0.298-0.49c0.215-0.377,0.183-0.542-0.005-0.953
	c-0.231-0.507-0.61-1.02,0.035-1.397c0.463-0.27,1.231-0.025,1.587-0.314c0.33-0.268,0.361-0.798,0.884-0.947
	c0.754-0.214,1.618,0.295,2.352-0.081c-0.2-0.108-0.326-0.261-0.498-0.36c-0.397-0.227-0.879-0.283-1.168-0.659
	c-0.478-0.622-0.198-1.283-1.158-1.583c-0.196,0.29-0.676,0.246-0.979,0.133c-0.268-0.1-1.081-0.446-1.174-0.635
	c-0.384-0.785,0.893-1.588,1.194-2.131c0.289-0.52,0.044-1.189,0.118-1.791c0.047-0.384,0.072-0.717,0.273-1.047
	c0.22-0.362,0.204-0.449,0.278-0.911c-0.334-0.001-0.664,0.171-0.983,0.219c-0.625,0.094-1.192-0.004-1.81,0.195
	c-0.646,0.208-1.746,0.275-2.245-0.208c-0.278-0.269-0.463-0.691-0.692-1.007c-0.222-0.307-0.486-0.578-0.697-0.89
	c-0.327-0.483-0.544-1.263-0.679-1.832c-0.104-0.44-0.12-1.097-0.045-1.549c0.061-0.365,0.449-0.509,0.414-0.909
	c-0.018-0.2-0.168-0.322-0.195-0.519c-0.03-0.218,0.083-0.248,0.125-0.419c0.09-0.366,0.05-0.794,0.07-1.169
	c0.039-0.756,0.168-1.514,0.207-2.27c0.018-0.356,0.145-0.733,0.334-1.05c-0.393-0.053-0.848-0.019-0.89-0.476
	c-0.025-0.276,0.101-0.518,0.052-0.805c-0.547-0.116-0.47-0.526-0.465-0.996c0.229-0.091,1.367-0.044,1.074-0.526
	c-0.23-0.378-0.872-0.276-0.846-0.786c0.014-0.273,0.231-0.588,0.295-0.862c0.175-0.74,0.495-0.91,1.199-1.166
	c0.3-0.109,0.614-0.21,0.926-0.271c0.245-0.047,0.616-0.026,0.748-0.279c0.193-0.37-0.075-0.886,0.161-1.304
	c0.176-0.31,0.457-0.537,0.62-0.852c0.424-0.817,0.757-1.526,0.653-2.443c-0.04-0.347-0.069-0.711-0.12-1.056
	c-0.067-0.456-0.358-0.434-0.56-0.805c-0.224-0.025-0.48-0.083-0.706-0.04c-0.326,0.062-0.547,0.335-0.905,0.247
	c-0.32-0.079-0.749-0.554-0.921-0.843c-0.254-0.425-0.212-0.781-0.188-1.254c0.043-0.841-0.152-1.121-0.987-0.741
	c-0.843,0.384-2.311,1.423-2.648-0.04c-0.182-0.789-0.202-1.515-0.583-2.269c-0.18-0.356-0.264-0.757-0.444-1.103
	c-0.252-0.486-0.488-0.247-0.971-0.285c-0.089-0.286-0.226-0.512-0.246-0.832c-0.026-0.418-0.036-1.347,0.223-1.661
	c0.196-0.237,0.436-0.146,0.499-0.461c0.033-0.163-0.152-0.488-0.134-0.685c0.034-0.36,0.314-0.624,0.305-1.005
	c-0.517-0.107-1.166-0.217-0.898-0.799c0.119-0.258,0.384-0.373,0.475-0.648c0.082-0.25-0.076-0.589-0.007-0.847
	c0.12-0.449,0.553-0.533,0.799-0.922c0.369-0.581-0.165-0.669-0.291-1.178c-0.099-0.399,0.019-0.874-0.051-1.289
	c-0.067-0.391-0.191-0.704-0.38-1.061c-0.134-0.252-0.375-0.809-0.629-0.966c-0.218-0.135-0.778-0.068-1.059-0.102
	c-0.369-0.044-0.739-0.071-1.107-0.117c-0.462-0.057-1.477-0.357-1.786,0.15c-0.136,0.223,0.015,0.61-0.069,0.867
	c-0.158,0.482-0.614,0.581-1.008,0.834c-0.321,0.207-0.582,0.52-0.915,0.704c-0.717,0.396-1.492-0.116-2.224,0.373
	c-0.377,0.252-0.448,0.382-0.684-0.047c-0.149-0.271-0.166-0.574-0.128-0.892c0.069-0.58,0.549-0.895,0.859-1.354
	c0.21-0.311,0.61-0.936,0.922-1.103c0.154-0.314,0.079-0.724,0.13-1.069c0.235-0.005,0.89,0.053,1.047-0.141
	c0.084-0.104,0.12-0.758,0.14-0.94c0.03-0.254-0.143-0.82,0.017-1.036c0.106-0.143,0.827-0.32,1.014-0.378
	c0.504-0.156,0.971-0.002,1.041-0.572c0.043-0.35-0.166-0.665,0.108-0.929c0.246-0.237,0.687-0.148,0.99-0.147
	c0.628,0.003,1.26,0.024,1.888,0.005c0.01-0.306,0.065-0.609,0.064-0.915c-0.357-0.082-0.747-0.156-1.078-0.307
	c0.016-0.168-0.028-0.483,0.095-0.61c0.254-0.262,0.817,0.097,0.921-0.527c-0.565-0.249-1.042-0.273-1.656-0.407
	c-0.347-0.076-0.469-0.256-0.759-0.445c-0.147-0.095-0.365-0.221-0.542-0.236c-0.075-0.006-0.132,0.121-0.194,0.117
	c-0.882-0.057-0.59-2.079-1.507-1.718c-0.367,0.144-0.592,0.483-1.023,0.467c-0.526-0.019-1.013-0.518-1.327-0.883
	c-0.619-0.721-0.1-1.373-0.602-2.128c-0.197-0.297-0.441-0.542-0.613-0.859c-0.071-0.132-0.158-0.42-0.265-0.515
	c-0.188-0.167-0.762-0.262-0.972-0.194c-0.143,0.046-0.24,0.264-0.445,0.298c-0.16-0.178-0.999-0.067-1.267-0.14
	c-0.466-0.127-0.936-0.337-1.365-0.559c-0.4-0.208-0.4-0.216-0.283-0.64c0.225-0.816,1.114-1.768,0.935-2.642
	c-0.055-0.265-0.257-0.494-0.147-0.788c0.097-0.26,0.421-0.432,0.586-0.652c0.843-1.13,0.468-2.521,0.598-3.846
	c0.026-0.264-0.06-0.328-0.181-0.542c-0.123-0.218-0.231-0.63-0.377-0.813c-0.204-0.255-0.828-0.36-1.132-0.239
	c-0.33,0.131-0.409,0.44-0.799,0.459c-0.05-0.151-0.003-0.378-0.147-0.471c-0.09-0.059-0.419,0.022-0.541,0.014
	c-0.175-0.35-0.084-0.936-0.026-1.307c0.103-0.665,0.52-1.234,0.39-1.929c-0.056-0.3-0.256-0.691-0.539-0.856
	c-0.554-0.324-0.771,0.283-1.328,0.249c0.015-0.201-0.011-0.407,0.034-0.603c-0.236-0.068-0.482-0.088-0.717-0.161
	c0.239-1.02,1.805-2.469,1.012-3.501c-0.325-0.423-1.011-0.465-1.309-0.901c-0.229-0.334-0.07-0.85-0.45-1.11
	c-0.5-0.342-1.268-0.057-1.791-0.308c-0.464-0.224-0.803-0.667-1.084-1.074c-0.673-0.972-2.311-0.944-3.299-0.525
	c-0.252,0.107-0.536,0.214-0.775,0.121c-0.125-0.049-0.228-0.232-0.371-0.232c-0.288-0.001-0.561,0.489-0.713,0.666
	c-0.393-0.263-0.575-0.628-1.063-0.268c-0.226,0.167-0.666,0.501-0.62,0.82c0.076,0.533,0.98,0.965,1.315,1.358
	c0.15,0.176,0.256,0.426,0.411,0.585c0.242,0.247,0.59,0.197,0.845,0.444c-0.178,0.493-0.402,0.95-0.546,1.456
	c-0.135,0.474-0.38,1.593-0.967,1.669c-0.288,0.037-0.519-0.267-0.787-0.337c-0.247-0.064-0.564-0.007-0.816-0.007
	c-0.627,0-1.314-0.117-1.752,0.338c-0.487,0.506-0.939,1.24-1.691,1.4c-0.745,0.158-1.217-0.06-1.884,0.415
	c-0.444,0.316-0.94,0.787-1.263,1.233c-0.485,0.669-0.231,1.74-0.153,2.513c-0.506-0.026-1.005-0.052-1.508-0.051
	c-0.275,0-0.665,0.055-0.924-0.045c-0.24-0.092-0.335-0.37-0.491-0.488c-0.544-0.409-1.39,0.132-2.057-0.208
	c-0.378-0.193-0.665-0.829-0.994-0.912c-0.518-0.131-1.311,0.051-1.744-0.35c-0.262-0.242-0.244-0.559-0.594-0.725
	c-0.467-0.222-1.541,0.126-1.873-0.316c-0.159-0.212-0.011-0.526-0.107-0.782c-0.688-0.029-1.16,0.479-1.807,0.156
	c-0.297-0.148-0.504-0.488-0.783-0.618c-0.195-0.091-0.452-0.067-0.674-0.081c-0.327-0.021-0.441-0.043-0.663-0.158
	c-0.254-0.131-0.16-0.219-0.478-0.265c-0.581-0.084-0.776,0.273-1.112,0.654c-0.156-0.165-0.313-0.774-0.564-0.739
	c-0.218,0.03-0.372,0.572-0.545,0.718c-0.105,0.089-0.214,0.026-0.335,0.153c-0.216,0.225-0.059,0.515-0.46,0.467
	c-0.444-0.053-0.477-0.665-0.775-0.022c-0.19,0.41-0.109,0.701-0.522,1.007c-0.348,0.258-0.681,0.22-1.09,0.224
	c-0.308,0.003-1.042-0.06-1.27,0.234c-0.276,0.356-0.057,1.416-0.07,1.887c-0.472,0.074-0.979,0.229-1.441,0.343
	c-0.031,0.434,0.368,0.64-0.077,0.979c-0.253,0.194-0.434,0.153-0.669,0.442c-0.175,0.215-0.383,0.488-0.505,0.737
	c-0.127,0.26-0.178,0.948-0.447,1.099c-0.172,0.096-0.771-0.041-0.959-0.08c-0.567-0.119-1.466-0.393-1.951-0.71
	c-0.468-0.306-0.211-1.017-0.413-1.576c-0.114-0.314-0.714-1.023-0.661-1.349c0.034-0.214,0.277-0.193,0.384-0.386
	c0.12-0.215,0.024-0.651-0.047-0.872c-0.21-0.654-0.558-0.736-1.13-0.893c-0.943-0.261-0.99-0.995-1.521-1.654
	c-0.492-0.61-0.843-0.99-1.624-0.998c-0.587-0.006-1.555-0.186-2.078,0.148c-0.626,0.4-0.354,1.757-0.946,2.26
	c-0.129,0.11-0.426,0.077-0.588,0.185c-0.202,0.135-0.239,0.35-0.404,0.513c-0.192,0.19-0.618,0.14-0.808,0.38
	c-0.169,0.213-0.099,0.781-0.194,1.044c-0.102,0.281-0.178,0.331-0.415,0.537c-0.249,0.217-1.37,0.698-1.339,0.905
	c-0.509-0.003-0.95-0.241-1.441-0.337c-0.591-0.116-0.974-0.193-1.401-0.561c-0.239-0.206-0.602-0.323-0.798-0.539
	c-0.27-0.299-0.246-0.871-0.2-1.23c-0.339-0.317-0.712-0.511-1.125-0.719c-0.51-0.257-1.118-0.007-1.561-0.428
	c-0.313-0.296-0.589-1.001-0.556-1.429c0.03-0.389,0.386-0.711,0.594-1.029c0.252-0.385,0.609-0.641,0.901-0.994
	c0.264-0.319,0.109-0.602-0.046-0.925c-0.162-0.337-0.279-0.64-0.283-1.022c-0.004-0.409,0.11-0.545,0.444-0.767
	c0.383-0.254,1.008-0.66,0.497-1.128c-0.225-0.207-0.586-0.15-0.887-0.213c-0.294-0.062-0.428-0.29-0.684-0.394
	c-0.192-0.078-0.557-0.017-0.757,0.002c-0.451,0.042-0.91,0.061-1.36,0.128c-0.736,0.109-1.476,0.186-2.211,0.302
	c-0.308,0.049-0.548,0.127-0.781,0.34c-0.17,0.156-0.27,0.33-0.486,0.448c-0.497,0.273-1.182,0.648-1.762,0.624
	c-0.185-0.242-0.729-0.538-1.044-0.555c-0.374-0.02-0.69,0.298-1.072,0.221c-0.641-0.129-0.746-0.918-1.188-1.231
	c-0.854-0.604-1.822,1.561-2.969,0.92c-0.394-0.22-0.829-0.728-1.285-0.756c-0.439-0.027-0.888,0.474-1.234,0.704
	c-0.549,0.366-1.07,0.829-1.645,1.144c-0.48,0.264-1.068,0.317-1.599,0.392c-0.607,0.085-1.18,0.184-1.74,0.442
	c-0.419,0.194-1.13,0.71-1.599,0.609c-0.08-0.33-0.372-0.536-0.558-0.82c-0.197-0.301-0.288-0.731-0.55-0.99
	c-0.221-0.219-0.567-0.296-0.845-0.436c-0.263-0.133-0.621-0.45-0.913-0.486c-0.695-0.084-1.105,0.767-1.666,0.905
	c-0.49,0.121-0.986-0.278-1.071-0.738c-0.334,0.026-0.605-0.092-0.833-0.34c-0.133-0.145-0.087-0.27-0.27-0.342
	c-0.146-0.057-0.334,0.037-0.479,0.044c-0.91,0.04-2.186,0.126-3.063-0.08c-0.117-0.441,0.601-0.598,0.035-0.998
	c-0.311-0.22-0.703-0.109-1.021-0.278c-0.383-0.203-0.909-0.025-1.061-0.462c-0.156-0.448,0.161-0.462-0.302-0.642
	c-0.311-0.121-0.391-0.031-0.543-0.26c-0.145-0.219,0.036-0.416-0.289-0.506c-0.328-0.09-1.086,0.308-1.41,0.396
	c-0.098,0.529,0.12,1.553-0.496,1.781c-0.269,0.1-0.943-0.092-1.256-0.094c-0.308-0.003-0.88,0.13-1.133-0.036
	c-0.316-0.207-0.254-1.026-0.197-1.326c0.103-0.549,0.361-0.882,0.341-1.466c-0.013-0.383,0.04-0.851-0.146-1.207
	c-0.25-0.479-0.41-0.214-0.825-0.116c-0.409,0.097-0.631-0.088-1.006-0.173c-0.412-0.094-0.786,0.075-1.192,0.131
	c-0.509,0.07-0.38-0.076-0.733-0.308c-0.249-0.163-0.514-0.103-0.813-0.117c-0.255-0.012-0.515-0.106-0.746-0.12
	c-0.45-0.027-0.572,0.269-0.961,0.359c-0.366,0.085-0.697-0.209-0.988-0.377c-0.342-0.197-0.614-0.256-0.998-0.286
	c-1.105-0.086-2.203-0.112-3.307-0.179c-1.704-0.104-3.541-0.475-5.209-0.164c0.074,1.154-0.034,2.382,0.474,3.438
	c0.357,0.741,1.862,1.628,1.483,2.413c-0.112,0.232-0.23,0.47-0.404,0.681c-0.235,0.287-0.568,0.314-0.49,0.727
	c0.057,0.3,0.578,0.571,0.469,0.916c-0.077,0.241-0.472,0.268-0.464,0.638c0.005,0.235,0.276,0.319,0.183,0.566
	c-0.065,0.173-0.405,0.24-0.536,0.317c-0.701,0.408-0.797,1.15-1.392,1.674c-0.12-0.206-0.349-0.768-0.693-0.686
	c-0.335,0.08-0.082,0.32-0.197,0.55c-0.482,0.968-0.741-0.764-0.881-0.862c-0.056,0.247-0.217,0.486-0.439,0.619
	c-0.207-0.237-0.795-0.869-0.928-0.159c-0.08,0.426,0.376,0.522-0.236,0.773c-0.563,0.231-1.293,0.02-1.648,0.597
	c-0.288,0.469-0.127,0.551-0.73,0.56c-0.09,0.511,0.411,1.11,0.871,1.266c0.345,0.116,0.97-0.013,1.259,0.231
	c0.199,0.168,0.18,0.545,0.29,0.784c0.457,0.05,0.861,0.043,1.251,0.337c0.398,0.3,0.571,0.827,0.984,1.103
	c0.342,0.229,0.747,0.135,1.106,0.361c0.29,0.183,0.583,0.514,0.846,0.741l-0.212,8.135c-0.753,0.095-2.179,0.831-2.287-0.29
	c-0.308,0.618-0.831-0.754-0.954-0.854c-0.479-0.39-0.562,0.181-0.428,0.55c0.164,0.45,0.18,0.989-0.233,1.401
	c-0.543,0.541-0.987-0.319-1.528-0.466c-0.261,0.307-0.437,0.825-0.744,1.069c-0.521,0.414-1.217,0.07-1.742-0.142
	c-0.861-0.348-1.255,0.52-2.042,0.426c-0.222-0.027-0.45-0.065-0.582-0.207c-0.1-0.107-0.082-0.41-0.188-0.513
	c-0.307-0.298-0.452-0.032-0.737,0.083c-0.705,0.286-0.871-0.427-1.553-0.421c-0.319,0.003-0.52,0.311-0.774,0.299
	c-0.157-0.008-0.509-0.22-0.614-0.341l-1.102,1.991L18.565,57.1h-4.364l-2.415,3.178L9.667,65.15L6.319,71.21l-2.5,1.822
	c0.008,0.296-0.074,0.448,0.016,0.727c0.086,0.266,0.172,0.539,0.285,0.796c0.215,0.489,0.563,1.001,1.018,1.294
	c0.483,0.311,1.333,0.16,1.891,0.16c0-0.268-0.003-0.535-0.001-0.803c0.001-0.201-0.028-0.572,0.132-0.728
	c0.178-0.174,0.427-0.039,0.477,0.168c0.019,0.078-0.014,0.283,0.042,0.345c0.066,0.073,0.019,0.015,0.121,0.049
	c0.174,0.058,0.537,0.008,0.694-0.056c0.342-0.138,0.329-0.712,0.38-1.024c0.063-0.39,0.009-0.726-0.279-1.01
	c-0.153-0.151-0.618-0.411-0.551-0.646c0.028-0.099,0.097-0.107,0.088-0.218c-0.011-0.128-0.138-0.255-0.208-0.348
	c-0.342-0.451-0.09-0.258,0.223-0.416c-0.028-0.378-0.077-0.906,0.254-1.17c0.179,0.264,0.385,0.488,0.537,0.778
	c0.047,0.09,0.113,0.271,0.227,0.3c0.175,0.044,0.561-0.18,0.713-0.243c0.211-0.087,0.434-0.178,0.633-0.289
	c0.143-0.08,0.305-0.192,0.476-0.205c0.303-0.023,0.912,0.314,0.993,0.617c0.116,0.437-0.802,0.534-1.077,0.607
	c-0.516,0.137-0.345,0.667-0.329,1.094c0.012,0.299,0.019,0.597,0.062,0.893c0.031,0.218-0.024,0.687,0.16,0.824
	c0.123,0.092,0.246,0.184,0.368,0.278c0.089,0.068,0.168,0.128,0.265,0.181c0.094,0.052,0.29,0.083,0.354,0.176
	c0.121,0.177-0.032,0.476-0.161,0.628c-0.158,0.185-0.509,0.286-0.512,0.561c-0.002,0.244,0.264,0.509,0.374,0.706
	c0.095,0.169,0.177,0.344,0.268,0.516c0.066,0.124,0.226,0.546,0.36,0.58c0.125,0.032,0.194-0.157,0.222-0.256
	c0.097-0.332,0.191-0.611,0.432-0.877c0.124-0.137,0.376-0.405,0.571-0.38c0.014,0.211-0.016,0.431-0.106,0.621
	c-0.113,0.24-0.269,0.476-0.277,0.748c-0.007,0.251,0.02,0.559,0.116,0.79c0.07,0.167,0.194,0.314,0.285,0.47
	c0.095,0.161,0.231,0.431,0.449,0.407c0.15-0.016,0.223-0.163,0.322-0.27c0.23-0.247,0.519-0.424,0.778-0.639
	c0.185-0.153,0.538-0.568,0.785-0.582c0.011,0.085-0.038,0.169-0.054,0.262c-0.03,0.177-0.011,0.368-0.011,0.546
	c0,0.222,0.003,0.433-0.031,0.651c-0.034,0.216-0.144,0.496-0.144,0.714c0.001,0.46,0.479,0.324,0.638,0.704
	c-0.77,0.438-1.726,0.688-1.911,1.678c-0.083,0.441,0.014,1.222,0.425,1.43c0.54,0.273,1.303-0.15,1.897,0.191
	c0.912,0.523,2.144,1.739,2.677,2.614c0.72,1.181-0.14,2.549,0.204,3.838c0.771-0.323,1.748-0.707,2.592-0.42
	c0.319,0.108,0.924,0.506,1.244,0.704c0.567,0.351,0.793,0.976,1.328,1.351c0.637,0.446,0.802,0.467,1.211,1.095
	c1.029,1.58,3.587,1.621,4.948,2.8c0.31,0.269,0.742,0.321,1.093,0.539c0.256,0.159,0.424,0.41,0.672,0.563
	c0.437,0.268,0.991,0.303,1.4,0.644c0.309,0.257,0.485,0.661,0.76,0.959c0.307,0.331,0.775,0.905,1.197,1.093
	c0.29,0.13,0.594,0.028,0.895,0.113c0.276,0.078,0.481,0.27,0.702,0.441c0.385,0.298,0.35,0.48,0.414,0.966
	c0.053,0.401,0.196,0.75,0.46,1.056c0.306,0.354,0.878,0.435,1.349,0.347c0.321-0.06,0.663-0.258,0.954-0.397
	c0.102-0.049,0.321-0.25,0.431-0.248c0.641,0.015,0.15,1.136,0.159,1.414c0.012,0.414,0.282,0.689,0.143,1.143
	c-0.172,0.566-0.618,0.925-1.063,1.26c-0.356,0.269-0.635,0.571-0.809,0.984c-0.104,0.248-0.151,0.503-0.267,0.746
	c-0.134,0.279-0.244,0.416-0.48,0.623c-0.213,0.186-0.524,0.496-0.409,0.802c0.655-0.024,1.329-0.53,1.789-0.956
	c0.141-0.131,0.283-0.297,0.441-0.409c0.188-0.133,0.422-0.21,0.618-0.336c0.266-0.172,0.492-0.344,0.821-0.259
	c0,0.384-0.227,0.764,0.108,1.068c0.211,0.192,0.464,0.339,0.682,0.527c0.251,0.217,0.565,0.493,0.906,0.533
	c0.027,0.138-0.017,0.194,0.03,0.324c0.155,0.423,0.285,0.996,0.57,1.346c0.346,0.425,1.004,0.562,1.43,0.901
	c0.439,0.349,0.499,0.925,0.545,1.453c0.042,0.488,0.155,0.884,0.255,1.353c0.327,0.03,0.617,0.074,0.945,0.058
	c0.337-0.017,0.797-0.201,1.054,0.054c0.406,0.404,0.262,1.425,0.239,1.949c-0.024,0.555-0.116,1.383,0.67,1.217
	c0.48-0.102,0.635-0.594,1.07-0.71c0.22,0.861-0.228,1.21-0.753,1.772c-0.173,0.185-1.216,1.56-0.596,1.725
	c0.277-0.164,0.478-0.454,0.784-0.582c0.46-0.194,1.062,0.094,1.513-0.108c0.207-0.092,0.416-0.561,0.667-0.543
	c0.188,0.014,0.191,0.299,0.443,0.284c0.359,0.107,0.506,0.469,0.84,0.634c0.316,0.156,0.906,0.188,1.227,0.069
	c0.049-1.371,1.997-0.669,2.368-1.888c0.08-0.264,0.062-0.484,0.253-0.697c0.147-0.165,0.339-0.205,0.502-0.341
	c0.396-0.332,0.087-0.451-0.06-0.827c-0.238-0.612-0.15-1.463,0.286-1.964c0.143-0.164,0.333-0.348,0.539-0.353
	c0.278-0.007,0.552,0.517,0.848,0.474c0.483-0.07,0.317-0.711,1-0.526c0.346,0.094,0.549,0.191,0.93,0.144
	c0.279-0.034,0.613-0.038,0.816-0.236c0.315-0.306,0.297-0.928,0.648-1.188c0.377-0.28,0.585,0.049,0.64-0.468
	c0.027-0.251-0.014-0.663,0.261-0.805c0.203-0.105,0.482,0.065,0.696-0.067c0.22-0.137,0.252-0.497,0.464-0.64
	c0.182-0.123,0.285,0.007,0.361-0.26c0.042-0.147-0.086-0.395-0.108-0.536c-0.117-0.775,0.311-0.788,0.711-1.295
	c0.166-0.211,0.186-0.361,0.095-0.599c-0.149-0.391-0.26-0.262,0.041-0.611c0.526-0.074,0.465-0.332,0.619-0.767
	c0.075-0.212,0.185-0.507,0.376-0.649c0.146-0.108,0.363-0.054,0.495-0.157c0.385-0.299,0.085-0.661,0.214-1.09
	c0.095-0.314,0.236-0.348,0.263-0.673c0.049-0.591-0.215-0.675,0.428-0.983c0.384-0.184,0.781-0.263,1-0.681
	c0.214-0.41,0.057-0.922,0.255-1.382c0.12-0.277,0.406-0.411,0.521-0.666c0.106-0.234-0.003-0.596-0.032-0.847
	c0.896-0.47,1.813-0.704,2.8-0.904c1.386-0.282,2.74-0.837,4.047-1.326c0.064,0.413-0.041,0.713,0.304,0.922
	c0.202,0.123,0.642,0.088,0.899,0.183c0.245,0.09,0.525,0.333,0.796,0.334c0.22,0.001,0.497-0.15,0.724-0.201
	c0.733-0.162,1.515-0.215,2.257-0.329c0.775-0.12,2.425-0.574,2.88-1.287c0.138-0.216,0.094-0.417,0.136-0.657
	c0.058-0.332,0.166-0.475,0.298-0.789h17.415c-0.021,0.7,0.108,0.564,0.585,0.792c0.334,0.16,0.318,0.349,0.387,0.689
	c0.135,0.67,0.422,1.479,0.469,2.163c0.926,0,1.602-0.061,2.275,0.668c0.329,0.357,0.315,0.673,0.455,1.083
	c0.199,0.584,0.718,0.474,1.131,0.908c0.304,0.32,0.448,0.981,0.621,1.43c0.092,0.239,0.138,0.62,0.278,0.83
	c0.338,0.506,0.891,0.301,1.415,0.47c-0.115,0.512-0.128,1.159,0.3,1.49c0.407,0.315,0.709,0.193,0.876,0.712
	c0.127,0.394,0.091,0.845,0.453,1.104c0.324,0.232,0.735,0.05,0.629,0.488c-0.024,0.1-0.222,0.177-0.259,0.31
	c-0.026,0.094,0.069,0.224,0.046,0.338c-0.068,0.346-0.316,0.553-0.118,0.921c0.102,0.188,0.371,0.422,0.527,0.566
	c0.568,0.527,0.32,0.611,0.566,1.267c0.551,0,1.103,0.009,1.654-0.008c0.295,0.983,1.291,1.161,1.781,1.914
	c0.27,0.415,0.312,2.028-0.043,2.419c-0.346,0.381-1.064,0.148-1.21,0.593c-0.106,0.323,0.015,0.847-0.066,1.21
	c-0.059,0.265-0.159,0.539-0.168,0.811c-0.027,0.855,1.027,0.75,1.649,0.848c0.427,0.067,0.789,0.138,1.159,0.348
	c0.201,0.114,0.712,0.359,0.797,0.529c0.064,0.128-0.035,0.409-0.041,0.536c-0.018,0.379-0.028,0.779,0.005,1.157
	c0.062,0.699,0.183,1.384,0.245,2.08c0.053,0.603,0,1.446,0.222,2.003c0.089,0.225,0.335,0.418,0.519,0.568
	c0.294,0.24,0.427,0.497,0.701,0.753c0,0.651-0.061,0.97-0.281,1.561c0.626,0.21,1.695,0.268,1.536,1.028
	c-0.068,0.327-0.289,0.734-0.517,0.977c-0.551,0.588-1.567,0.699-2.306,0.937c0.03,0.866-1.007,1.255-1.233,2.109
	c-0.113,0.43,0.005,0.887,0.005,1.322c0,0.493-0.098,0.95-0.267,1.418c-0.175,0.482-0.268,0.469-0.675,0.721
	c-0.18,0.111-0.318,0.173-0.407,0.372c-0.093,0.209-0.009,0.511-0.048,0.733c-0.076,0.442-0.512,0.988-0.206,1.413
	c0.378-0.484,0.346-1.166,1.026-1.28c0.546-0.092,1.208,0.045,1.762,0.045c0.492,0.638,0.624,0.784,1.399,0.476
	c0.838-0.334,1.31-1.272,1.818-1.984c0.598-0.836,1.139-1.91,1.989-2.523c0.587-0.422,1.134-0.188,1.796-0.073
	c0.646,0.112,1.313-0.013,1.963,0.065c0.492,0.06,0.795,0.188,1.218-0.121c0.53-0.387,0.536-0.809,1.31-0.761
	c0.304,0.019,0.41,0.117,0.686,0.211c0.271,0.093,0.784,0.068,0.993,0.242c0.599,0.5-0.479,1.884,0.647,2.151
	c0.766,0.182,1.746-0.832,2.284-1.244c0.696-0.532,1.116-0.688,1.994-0.628c0.646,0.044,0.734,0.165,1.216-0.109
	c0.227-0.129,0.672-0.277,0.847-0.479c0.204-0.236,0.139-0.723,0.439-0.89c0.132-0.074,0.792,0.073,0.919,0.144
	c0.232,0.128,0.463,0.446,0.584,0.674c-1.012-0.274-0.247,2.485,0.609,1.454c0.209-0.251,0.22-0.853,0.567-0.993
	c0.422-0.169,0.797,0.259,0.746,0.652c1.42,0.6-0.096,1.044-0.077,1.981c0.327,0.059,0.682,0.033,1.011,0.011
	c0.063-0.306,0.473-0.627,0.782-0.459c0.215,0.118,0.437,0.712,0.48,0.941c0.581,0.097,2.573-0.205,1.709,0.895
	c-0.148,0.188-0.517,0.35-0.522,0.597c-0.004,0.221,0.279,0.311,0.342,0.489c0.157,0.438-0.076,1.059-0.293,1.405
	c-0.292,0.464-0.396,1.213-0.221,1.79c0.469,0.041,0.933,0.164,1.398,0.249c0.013,0.218-0.005,0.447,0.063,0.661
	c0.085,0.269,0.307,0.382,0.4,0.628c0.151,0.401-0.012,1.15-0.135,1.538c0.492-0.6,1.238,0.061,1.077,0.684
	c-0.081,0.311-0.372,0.607-0.59,0.823c-0.287,0.284-0.478,0.392-0.509,0.818c-0.042,0.577,0.229,1.2,0.212,1.788
	c-0.016,0.549-0.007,1.406,0.363,1.843c0.454,0.538,1.379,0.563,1.775,1.199c0.255,0.408,0.224,1.064-0.024,1.479
	c-0.418,0.697-0.709,1.077-0.461,1.959c0.203,0.725,0.552,0.77,0.191,1.483c-0.329,0.649-0.651,1.302-0.984,1.949
	c-0.324,0.631-0.701,1.346-1.162,1.887c-0.472,0.553-0.701,1.07-0.167,1.743c0.221-0.281,0.335-0.759,0.658-0.942
	c0.624-0.353,0.844,0.146,1.102,0.575c0.408-0.948,1.609-1.019,2.514-0.805c0.176,0.376,0.002,0.931,0.223,1.248
	c0.279,0.005,0.491-0.189,0.768-0.221c0.454-0.052,0.952,0.126,1.411,0.126c0.106,0.459-0.102,0.965,0.012,1.443
	c0.118,0.493,0.496,0.784,0.854,1.14c0.225,0.224,0.294,0.325,0.606,0.395c0.255,0.057,0.591-0.062,0.794,0.142
	c0.285,0.286,0.061,0.886,0.278,1.239c0.275,0.047,0.525,0.211,0.81,0.255c0.223-0.525,0.682-0.972,1.201-1.219
	c0.481-0.229,1.241-0.263,1.668-0.559c0.269-0.186,0.231-0.567,0.569-0.643c0.547-0.124,0.626,0.539,0.782,0.854
	c0.499,0.001,1.334,0.154,1.725-0.169c0.694-0.573-0.28-1.315-0.335-1.941c-0.036-0.409,0.37-0.988,0.633-1.303
	c0.341-0.409,1.029-0.119,1.144-0.593c0.059-0.242-0.132-0.462-0.087-0.706c0.055-0.299,0.231-0.371,0.466-0.545
	c0.476-0.35,1.036-0.537,0.978-1.151c-0.047-0.494,0.002-0.797,0.25-1.296c0.358-0.719,0.349-0.962-0.014-1.631
	c-0.265-0.487-0.072-0.71,0.268-1.135c0.283-0.355,0.613-0.659,0.977-0.929c0.977-0.025,2.001,0.086,2.973,0.177
	c0.041,0.487-0.572,1.232-0.455,1.629c0.109,0.372,1.194,0.889,1.554,1.126c0.631,0.415,0.874,1.062,1.612,0.463
	c0.231-0.188,0.364-0.451,0.494-0.715c0.248-0.501,0.499-0.608,1.094-0.655c-0.041,0.198,0.011,0.526,0.149,0.678
	c0.423,0.465,0.757,0.186,1.115-0.063c0.769-0.536,0.925,0.094,1.462,0.483c0.376,0.273,0.753,0.799,1.249,0.919
	c0.611,0.148,1.6,0.032,1.46-0.767c-0.058-0.332-0.255-0.577-0.106-0.947c0.129-0.319,0.407-0.314,0.591-0.566
	c0.142-0.196,0.14-0.674,0.222-0.925c0.108-0.334,0.245-0.649,0.375-0.972c0.164-0.412,0.286-0.819,0.507-1.203
	c0.148-0.257,0.455-0.612,0.413-0.942c-0.071-0.555-0.777-1.193-1.001-1.682c0.588-0.514,0.741-1.672,1.074-2.356
	c0.386-0.793,0.748-1.885,1.367-2.517c0.443,0.068,1.355-0.065,1.566,0.3c0.093,0.161-0.043,0.326,0.117,0.452
	c0.159,0.124,0.525,0.079,0.689,0.018c0.003-0.453-0.147-0.865-0.327-1.283c-0.088-0.204-0.176-0.429-0.367-0.558
	c-0.238-0.16-0.68-0.09-0.872-0.342c-0.41-0.538,0.363-1.961,0.511-2.472c-0.361,0.092-0.63,0.362-1,0.436
	c-0.029-0.07-0.127-0.139-0.154-0.195c-0.194,0.212-0.247,0.607-0.505,0.745c-0.385,0.206-0.742-0.158-1.024-0.344
	c-0.311-0.204-0.234-0.202-0.674-0.219c-0.249-0.01-0.509-0.032-0.752-0.064c-0.278-0.037-0.807-0.008-0.899-0.308
	c-0.233-0.137-0.316-0.566-0.589-0.766c-0.484-0.355-0.953-0.234-0.954-0.847c-0.002-0.781,0.388-1.309,0.636-2.018
	c0.186-0.532,0.132-1.214-0.031-1.745c-0.121-0.395-0.57-0.91-0.425-1.281c0.072-0.183,0.261-0.267,0.396-0.384
	c0.282-0.245,0.573-0.635,0.9-0.832c0.607-0.366,1.373,0.28,2.045,0.345c-0.132-1.048,1.206-0.721,1.726-0.513
	c0.276,0.11,0.863,0.58,1.153,0.43c0.164-0.085,0.174-0.404,0.369-0.513c0.484-0.271,1.785,0.099,1.765,0.714
	c-0.006,0.202-0.19,0.322-0.145,0.555c0.105,0.539,0.708,0.357,1.104,0.377c-0.221,0.882,0.736,0.904,1.066,0.253
	c0.209-0.413-0.084-2.399,0.846-1.242c0.553,0.688,0.907,1.526,1.378,2.273c0.422,0.671,1.837,0.675,2.505,0.416
	C193.811,137.98,193.508,137.751,193.337,137.474z"/>
</svg>
