<?xml version="1.0" encoding="utf-8"?>
<!-- Generator: Adobe Illustrator 26.0.3, SVG Export Plug-In . SVG Version: 6.00 Build 0)  -->
<svg version="1.1" id="Isolation_Mode" xmlns="http://www.w3.org/2000/svg" xmlns:xlink="http://www.w3.org/1999/xlink" x="0px"
	 y="0px" viewBox="0 0 200 200" enable-background="new 0 0 200 200" xml:space="preserve">
<g>
	<path fill="#1E8346" d="M131.72,194.689c-0.085-0.026-0.179,0.027-0.267,0.01c-0.096-0.019-0.176-0.096-0.273-0.114
		c-0.136-0.024-0.235,0.022-0.322,0.126c0,0.2,0.087,0.193,0.226,0.193c0.244,0,0.489-0.007,0.731-0.023
		C131.815,194.808,131.801,194.714,131.72,194.689z"/>
	<path fill="#1E8346" d="M129.275,194.591c0.006,0.101,0.044,0.136,0.094,0.16c0.051,0.025,0.23,0.064,0.203-0.022
		C129.536,194.617,129.378,194.56,129.275,194.591z"/>
	<path fill="#1E8346" d="M166.375,143.521c-0.133-0.085-0.203-0.226-0.327-0.321c-0.102-0.077-0.226-0.084-0.339-0.139
		c-0.102-0.049-0.186-0.106-0.299-0.108c-0.148-0.002-0.324,0.04-0.459,0.097c-0.199,0.083-0.314,0.257-0.491,0.37
		c-0.168,0.108-0.328,0.217-0.502,0.313c-0.138,0.075-0.238,0.116-0.392,0.115c-0.081,0-0.211-0.021-0.293,0.001
		c-0.2,0.056-0.345,0.372-0.419,0.539c-0.079,0.179-0.046,0.394-0.046,0.588c0,0.069-0.03,0.236,0.021,0.294
		c0.047,0.054,0.172,0.039,0.23,0.103c0.105,0.119,0.019,0.295,0.102,0.423c0.07,0.108,0.209,0.146,0.296,0.238
		c0.077-0.133,0.203-0.371,0.129-0.477c-0.082-0.118-0.242-0.036-0.255-0.218c-0.009-0.127,0.098-0.322,0.21-0.381
		c0.074-0.039,0.174-0.011,0.253-0.037c0.116-0.038,0.102-0.076,0.135-0.18c0.059-0.187,0.174-0.223,0.291-0.07
		c0.06,0.079,0.058,0.109,0.147,0.108c0.102-0.002,0.294-0.065,0.381-0.112c0.148-0.079,0.117-0.37,0.258-0.386
		c0.178-0.021,0.141,0.258,0.164,0.364c0.02,0.091,0.07,0.177,0.178,0.15c0.128-0.033,0.247-0.34,0.335-0.421
		c0.098,0.214,0.55,0.098,0.701-0.024c0.056-0.045,0.152-0.169,0.138-0.248c-0.014-0.076-0.099-0.099-0.125-0.163
		C166.713,143.817,166.579,143.652,166.375,143.521z"/>
	<path fill="#1E8346" d="M166.422,141.778c0.091-0.04,0.116-0.058,0.158-0.149c0.037-0.079,0.077-0.15,0.124-0.223
		c0.022-0.034,0.049-0.066,0.044-0.109c-0.056-0.024-0.139-0.018-0.182-0.024c-0.063-0.006-0.135,0.023-0.182,0.062
		c-0.056,0.047-0.146,0.101-0.184,0.162c-0.047,0.074-0.024,0.247,0.052,0.298C166.305,141.829,166.37,141.801,166.422,141.778z"/>
	<path fill="#1E8346" d="M166.869,141.712c-0.072,0.068-0.212,0.109-0.239,0.215c0.053,0.021,0.186,0.029,0.228-0.014
		C166.886,141.885,166.955,141.76,166.869,141.712z"/>
	<path fill="#1E8346" d="M76.375,51.531c0.123-0.03,0.2-0.113,0.266-0.216c0.137-0.214,0.119-0.488,0.13-0.733
		c0.009-0.186,0.02-0.382,0-0.568c-0.013-0.124-0.076-0.298-0.195-0.359c-0.116-0.058-0.312-0.053-0.324,0.075
		c-0.051,0.049-0.059,0.184-0.076,0.258c-0.05,0.218-0.091,0.449-0.226,0.635c-0.051,0.07-0.153,0.105-0.176,0.172
		c-0.024,0.068,0.071,0.187,0.103,0.238c0.051,0.082,0.079,0.164,0.112,0.26C76.062,51.502,76.131,51.59,76.375,51.531z"/>
	<path fill="#1E8346" d="M163.195,119.165V46.966l6.834-6.895l11.132-16.053c-0.186,0.018-0.339-0.031-0.533,0.03
		c-0.249,0.079-0.444,0.326-0.699,0.429c-0.254,0.103-0.691,0.082-0.833-0.194c-0.067-0.132-0.043-0.25-0.185-0.297
		c-0.142-0.046-0.347,0.102-0.488,0.123c-0.078,0.012-0.198,0.027-0.263-0.002c-0.083-0.037-0.129-0.134-0.225-0.167
		c-0.209-0.072-0.35,0.022-0.49-0.18c-0.188-0.001-0.298,0.124-0.427,0.229c-0.156,0.127-0.311,0.21-0.514,0.234
		c-0.096,0.011-0.239,0.027-0.332-0.002c-0.141-0.043-0.209-0.203-0.342-0.251c-0.197-0.071-0.318,0.131-0.47,0.216
		c-0.14,0.078-0.283,0.058-0.443,0.058c-0.174,0-0.57,0.079-0.72-0.014c-0.069-0.042-0.107-0.18-0.124-0.252
		c-0.226,0.186-0.4,0.437-0.615,0.639c-0.062-0.074-0.103-0.243-0.194-0.292c-0.083-0.044-0.425-0.002-0.5,0.047
		c-0.057,0.037-0.064,0.136-0.113,0.161c-0.141,0.072-0.435-0.118-0.61-0.062c-0.118,0.038-0.164,0.127-0.319,0.135
		c-0.181,0.009-0.282-0.066-0.431-0.159c-0.162-0.101-0.207-0.117-0.362,0.005c-0.224,0.176-0.414,0.151-0.636-0.042
		c-0.139,0.107-0.154,0.356-0.351,0.399c-0.237,0.052-0.407-0.268-0.644-0.248c-0.116,0.009-0.16,0.145-0.245,0.166
		c-0.105,0.027-0.209-0.048-0.302-0.104c-0.221-0.134-0.359-0.218-0.619-0.136c-0.179,0-0.437-0.05-0.606,0
		c-0.173,0.051-0.107,0.208-0.26,0.3c-0.232,0.139-0.685-0.064-0.926-0.151c-0.216-0.078-0.371-0.17-0.498-0.359
		c-0.047-0.07-0.087-0.157-0.145-0.219c-0.092-0.097-0.228-0.145-0.321-0.237c-0.129-0.128-0.077-0.296-0.212-0.427
		c-0.148-0.144-0.36-0.203-0.497-0.363c-0.185-0.215-0.303-0.501-0.472-0.731c-0.1-0.136-0.182-0.21-0.346-0.259
		c-0.143-0.042-0.256-0.042-0.363-0.153c-0.133-0.138-0.142-0.398-0.275-0.517c-0.076-0.068-0.283-0.044-0.394-0.058
		c-0.207-0.239-0.23-0.554-0.587-0.657c-0.365-0.105-0.758-0.038-0.908-0.463c-0.123-0.348-0.144-0.926-0.553-1.074
		c-0.159-0.057-0.311-0.029-0.441-0.15c-0.171-0.158-0.041-0.311-0.282-0.345c-0.357-0.05-0.95-0.19-1.027-0.616
		c-0.188-0.023-0.385-0.006-0.574-0.006l-0.501,0.531l-0.714,0.061l-4.541,2.111l-4.951,1.959l-0.471-0.046l-0.076,0.289
		l-6.287,3.265l-1.792,3.903l-3.66,3.538l-0.608,1.701l-0.85-0.091l-0.441-1.2l-0.531,0.304c-0.201-0.068-0.414-0.099-0.623-0.124
		c-0.212-0.025-0.422-0.057-0.634-0.073c-0.462-0.037-0.932-0.006-1.393-0.015c-0.009-0.269,0.051-0.533,0.001-0.803
		c-0.16,0.145-0.307,0.301-0.473,0.439c-0.056,0.047-0.112,0.101-0.176,0.136c-0.043,0.024-0.096,0.037-0.127,0.068
		c-0.397,0.047-0.871-0.076-1.257-0.149c-0.184-0.035-0.551,0.057-0.706-0.028c-0.083-0.046-0.035-0.132-0.082-0.176
		c-0.073-0.07-0.18-0.051-0.276-0.072c-0.188-0.041-0.288-0.115-0.419-0.246c-0.241-0.241-0.652-0.229-0.978-0.332
		c-0.266-0.084-0.442-0.382-0.746-0.263c-0.148,0.058-0.244,0.228-0.398,0.288c-0.12,0.047-0.285-0.033-0.384,0.013
		c-0.165,0.077-0.073,0.196-0.29,0.058c-0.04-0.025-0.047-0.068-0.094-0.088c-0.066-0.028-0.176,0.011-0.248,0.002
		c-0.16-0.021-0.406-0.222-0.571-0.17c-0.124,0.04-0.217,0.267-0.257,0.38c-0.413-0.025-0.831-0.043-1.244-0.045l-3.402-1.108
		l-0.592-1.094l-0.334,0.06c0.239,0,0.066,0.413-0.121,0.472c-0.251,0.079-0.603-0.073-0.85-0.126
		c-0.031-0.058-0.076-0.11-0.078-0.179c-0.426,0.016-1.032,0.31-1.222-0.236c-0.07-0.202-0.136-0.52-0.373-0.583
		c-0.134-0.036-0.354-0.037-0.429,0.102c-0.069,0.128,0.043,0.241,0.019,0.372c-0.038,0.212-0.458,0.257-0.637,0.33
		c-0.241,0.099-0.508,0.196-0.73,0.303l-5.225-0.41l-1.093,0.288l-1.504-1.306l-0.805-1.109l-0.653-0.243l-13.668-9.051
		l-3.091-1.868c-0.14-0.267-0.302-0.533-0.472-0.779c-0.237-0.339-0.269-0.282-0.654-0.337c-0.294-0.042-0.203-0.239-0.377-0.46
		c-0.19-0.241-0.532-0.282-0.659,0.074c-0.107-0.133-0.235-0.312-0.388-0.412c-0.212-0.139-0.431-0.093-0.671-0.113
		c-0.298-0.024-0.574-0.184-0.855-0.297c-0.328-0.131-0.628-0.23-0.925-0.421c-0.236-0.152-0.396-0.323-0.688-0.306
		c-0.313,0.019-0.609,0.111-0.925,0.112c-0.483,0.002-0.958,0.046-1.442,0.046c-0.272,0-0.544,0-0.816,0
		c-0.117,0-0.362,0.04-0.468-0.011c-0.076-0.037-0.115-0.154-0.18-0.211c-0.167-0.145-0.329-0.132-0.557-0.103
		c-0.196,0.025-0.424,0.045-0.607,0.119c-0.112,0.045-0.19,0.136-0.316,0.138l-7.381-0.213c0.058,0.207-0.086,0.263-0.151,0.439
		c-0.075,0.205-0.015,0.42,0.17,0.546c0.006-0.123-0.186-0.569,0.148-0.497c0.214,0.046,0.269,0.285,0.206,0.432
		c-0.105,0.246-0.141,0.394-0.054,0.66c0.025,0.076,0.091,0.223,0.06,0.305c-0.037,0.1-0.056,0.025-0.121,0.088
		c-0.123,0.119-0.207,0.243-0.346,0.35c-0.295,0.228-0.13,0.399,0.012,0.676c0.068,0.132,0.132,0.235,0.235,0.344
		c0.08,0.085,0.218,0.149,0.279,0.238c0.095,0.137,0.085,0.415,0.093,0.579c0.012,0.227,0.016,0.531-0.057,0.748
		c-0.053,0.157-0.159,0.273-0.09,0.454c0.076,0.198,0.188,0.125,0.354,0.151c0.393,0.062,0.293,0.799,0.293,1.093
		c-0.092,0.13-0.281,0.316-0.342,0.458c-0.054,0.128-0.03,0.273-0.092,0.387c-0.09,0.169-0.229,0.109-0.221,0.371
		c0.005,0.152,0.127,0.26,0.123,0.41c-0.007,0.254-0.221,0.517-0.289,0.774c-0.112,0.423-0.127,0.388-0.527,0.497
		c-0.065,0.314,0.434,0.953,0.602,1.2c0.271,0.4,0.396,0.773,0.592,1.21c0.194,0.433,0.213,0.902,0.199,1.352
		c-0.012,0.391,0.324,0.594,0.334,0.956c0.01,0.366-0.226,0.181-0.36,0.426c-0.099,0.182,0.098,0.393,0.113,0.551
		c-0.303-0.048-0.166,0.17-0.291,0.249c-0.087,0.055-0.249,0.027-0.361,0.03c-0.226,0.622-0.138,1.383-0.248,2.041
		c-0.039,0.233-0.128,0.582-0.063,0.819c0.069,0.254,0.201,0.389,0.222,0.675c0.009,0.126-0.013,0.292,0.013,0.413
		c0.042,0.199,0.183,0.281,0.266,0.46c0.098,0.211,0.054,0.441,0.123,0.657c0.079,0.248,0.222,0.448,0.252,0.718
		c0.03,0.271-0.001,0.564-0.001,0.838c-0.196,0.032-0.424,0.173-0.634,0.161c-0.021,0.36,0.607,0.752,0.847,0.992
		c0.203,0.203,0.321,0.285,0.388,0.564c0.057,0.241,0.077,0.488,0.136,0.73c0.03,0.126,0.056,0.443,0.183,0.524
		c0.143,0.092,0.117-0.045,0.27-0.03c0.145,0.014,0.449,0.107,0.561,0.175c0.36,0.219,0.799,1.169,0.924,1.595
		c0.158,0.543,0.227,1.067,0.271,1.607c0.046,0.556,0.528,0.902,0.939,1.201c0.505,0.366,1.04,0.689,1.482,1.128
		c0.097,0.097,0.037,0.159,0.173,0.197c0.096,0.026,0.366-0.086,0.478-0.095c0.366-0.032,0.362,0.075,0.651,0.196
		c0.324,0.136,0.605,0.004,0.902-0.075c0.199-0.053,0.299-0.073,0.5,0.018c0.061,0.027,0.102,0.123,0.172,0.159
		c0.054,0.028,0.196,0.002,0.235,0.036c0.099,0.087,0.04,0.156,0.089,0.256c0.07,0.143,0.206,0.232,0.267,0.353
		c0.131,0.258-0.088,0.441-0.086,0.728c0.002,0.266,0.061,0.532,0.061,0.798c0,0.278,0.083,0.447,0.161,0.706
		c0.076,0.255-0.12,0.276-0.268,0.478c-0.139,0.189-0.087,0.296-0.075,0.542c0.025,0.496,0.199,0.985,0.251,1.486
		c0.024,0.23,0.05,0.485-0.027,0.699c-0.083,0.23-0.124,0.366-0.092,0.627c0.017,0.139,0.118,0.39,0.092,0.52
		c-0.02,0.098-0.103,0.086-0.127,0.184c-0.03,0.121,0.061,0.189,0.127,0.387c0.028,0.083,0.076,0.228,0.051,0.362
		c-0.033,0.178-0.169,0.196-0.438,0.455c-0.319,0.308-0.356,0.502-0.563,0.522c-0.113,0.011-0.127-0.044-0.283-0.027
		c-0.077,0.009-0.262,0.028-0.39,0.163c-0.065,0.068-0.086,0.136-0.148,0.139c-0.043,0.002-0.08-0.028-0.123-0.063
		c-0.079-0.065-0.081-0.111-0.135-0.137c-0.033-0.016-0.08-0.018-0.163,0.006c-0.182,0.052-0.475,0.324-0.673,0.259
		c-0.053-0.017-0.258-0.246-0.294-0.289c-0.096-0.115-0.145-0.259-0.161-0.425c-0.04-0.409,0.046-0.828,0.047-1.238
		c0.002-0.674-0.16-1.179-0.747-1.537c-0.103-0.063-0.256-0.119-0.325-0.221c-0.081-0.119-0.023-0.345-0.111-0.441
		c-0.119-0.13-0.337-0.011-0.457-0.094c-0.125-0.087-0.169-0.511-0.182-0.653c-0.031-0.338,0.063-0.665-0.006-1.007
		c-0.053-0.26-0.212-0.394-0.307-0.629c-0.1-0.247-0.057-0.514-0.194-0.759c-0.096-0.173-0.235-0.311-0.336-0.488
		c-0.137-0.241-0.102-0.483-0.182-0.733c-0.102-0.315-0.624-0.545-0.911-0.696c-0.196-0.103-0.403-0.187-0.604-0.272
		c-0.204-0.087-0.481-0.123-0.664-0.233c-0.355-0.213-0.294-0.717-0.384-1.068c-0.033-0.128-0.004-0.237-0.104-0.343
		c-0.023,0.059-0.009,0.153-0.01,0.224c-0.08,0.018-0.178-0.048-0.251-0.081c-0.125-0.057-0.256-0.109-0.388-0.153
		c-0.29-0.096-0.575-0.121-0.881-0.139c0.013-0.108,0.047-0.322-0.062-0.373c-0.069-0.032-0.217-0.002-0.294,0.002
		c-0.134,0.007-0.269,0.01-0.404,0.014c-0.09-0.43-0.076-0.968,0.283-1.266c0.075-0.062,0.224-0.112,0.265-0.194
		c0.045-0.09-0.04-0.295-0.066-0.38c-0.047-0.151-0.112-0.286-0.185-0.427c-0.08-0.155-0.042-0.299-0.105-0.458
		c-0.093-0.238-0.295-0.31-0.245-0.593c0.028-0.16,0.127-0.297,0.156-0.453c0.023-0.125-0.012-0.193-0.023-0.312
		c-0.013-0.143,0.094-0.239,0.09-0.375c-0.128-0.009-0.254,0.066-0.385,0.079c-0.2,0.019-0.402-0.048-0.591-0.103
		c-0.412-0.12-0.798-0.304-1.163-0.528c-0.412-0.253-0.332-0.463-0.489-0.873c-0.131-0.342-0.407-0.649-0.746-0.774
		c-0.352-0.13-0.474-0.149-0.601-0.514c-0.136-0.388-0.151-0.748-0.147-1.158c0.003-0.303,0.116-0.56,0.15-0.853
		c0.038-0.323-0.086-0.619-0.122-0.935c-0.036-0.311,0.02-0.893-0.297-1.069c-0.041,0.305,0.459,1.334-0.213,1.271
		c-0.549-0.051-0.082-0.802-0.257-1.117c-0.12-0.217-0.504-0.501-0.719-0.65c-0.306-0.212-0.553-0.42-0.591-0.825
		c-0.036-0.382,0.149-0.733,0.068-1.122c-0.061-0.297-0.109-0.718,0.037-0.992c0.126-0.237,0.369-0.482,0.431-0.753
		c0.067-0.29-0.022-0.667-0.035-0.966c-0.016-0.38-0.023-0.758-0.023-1.14c0-0.373-0.059-0.801,0.046-1.161
		c0.084-0.29,0.14-0.451,0.096-0.748c-0.103-0.694,0.197-1.258,0.531-1.848c0.24-0.423,0.756-0.995,0.778-1.481
		c0.012-0.267-0.061-0.532-0.061-0.801c0.001-0.442-0.013-0.88,0.001-1.322c0.013-0.393-0.017-0.785-0.016-1.177
		c0-0.287,0.011-0.588-0.04-0.87c-0.048-0.266-0.115-0.538-0.022-0.803c0.067-0.192,0.139-0.382,0.19-0.578
		c0.062-0.241,0.192-0.48,0.304-0.705c0.052-0.104,0.138-0.22,0.16-0.334c0.023-0.115,0.004-0.243,0.014-0.357
		c0.113,0.157,0.243,0.33,0.367,0.488c0.046,0.058,0.173,0.169,0.169,0.253c-0.003,0.063-0.118,0.152-0.16,0.217
		c-0.068,0.104-0.188,0.2-0.17,0.337c0.013,0.094,0.103,0.299,0.181,0.361c0.1,0.079,0.366,0.064,0.481,0.054
		c0.059-0.005,0.209-0.016,0.249-0.066c0.04-0.05-0.012-0.145-0.037-0.208c-0.075-0.189-0.322-0.513-0.075-0.661
		c0.189-0.113,0.405-0.165,0.578-0.307l-1.902-1.663l0.467-0.319V12.12l-0.467-0.159c0.001-0.128,0.098-0.294,0.123-0.419
		c0.028-0.139,0.028-0.287,0.028-0.429c-1.079-0.061-2.166,0.138-3.25,0.103c0.001-0.28,0.041-0.554,0.031-0.836
		c-0.013-0.378-0.341-0.332-0.614-0.217c-0.348,0.146-0.715,0.195-0.937,0.549c-0.098,0.155-0.107,0.437-0.121,0.613
		c-0.017,0.205-0.015,0.43-0.015,0.636c-0.139-0.013-0.313-0.223-0.453-0.288c-0.258-0.121-0.539-0.191-0.815-0.258
		c-0.21-0.051-0.605-0.054-0.758-0.2c-0.079-0.075-0.109-0.196-0.19-0.27c-0.528-0.48-0.853-1.291-1.166-1.934
		c-0.417-0.859,0.156-1.545,0.469-2.32c0.162-0.402,0.212-0.765,0.287-1.185c-0.401-0.106-0.745,0.011-1.127-0.154
		c-0.263-0.113-0.504-0.182-0.8-0.145c-0.41,0.05-1.014,0.303-1.398,0.124c0.051-0.721,1.045-1.261,0.424-2.01l-2.947,1.64
		l-0.516-0.85l-9.811,3.797l-2.187,0.85l-4.981,2.521l-5.794,5.855l-1.891,2.096l1.032,0.873l0.441,0.699l-0.349,0.516l0.82,1.032
		l-0.03,0.592l-0.562,0.198l-0.046,0.38h0.456c0.097,0.207,0.269,0.424,0.416,0.593c0.173,0.199,0.336,0.26,0.585,0.319
		c-0.021,0.183-0.103,0.377-0.151,0.56c-0.047,0.181-0.048,0.43-0.13,0.593c-0.076,0.152-0.292,0.232-0.418,0.35
		c-0.129,0.121-0.156,0.278-0.134,0.468c0.14,0.007,0.261-0.016,0.399-0.042c0.234-0.044,0.458-0.065,0.691-0.1
		c0.228-0.035,0.431-0.151,0.662-0.175c0.219-0.022,0.491,0.02,0.694-0.076c0.109,0.292,0.168,0.648,0.226,0.957
		c0.039,0.208-0.613,0.091-0.771,0.091c-0.243,0-0.436,0.173-0.56,0.38c-0.189,0.315,0.323,0.223,0.466,0.303
		c0.418,0.235-0.481,0.373-0.231,0.559c0.199,0.149,0.491-0.089,0.644-0.18c0.085-0.05,0.276-0.16,0.375-0.135
		c0.078,0.019,0.104,0.102,0.15,0.17c0.155-0.1,0.286-0.251,0.412-0.067c0.132,0.194,0.179,0.413,0.338,0.602
		c0.103,0.121,0.211,0.247,0.338,0.344c0.096,0.073,0.226,0.114,0.308,0.201c0.136,0.145,0.163,0.362,0.2,0.553
		c0.045-0.136,0.116-0.258,0.154-0.399c0.052-0.194,0.105-0.24,0.304-0.282c0.192-0.04,0.394-0.039,0.583-0.082
		c0.112-0.025,0.15-0.102,0.266-0.008c0.212,0.172,0.204,0.511,0.46,0.655c0.382,0.215,0.843,0.382,1.257,0.528l-0.228,2.901
		l-0.501,0.615h-0.729l0.547,0.774l-0.015,0.387l-0.258,0.349l-0.046,0.881l0.547,0.531l0.41,1.337l0.122,1.838l0.516,0.349
		l0.228,0.516l0.365-0.182l0.698,0.288l0.517,0.683l0.03,1.64c0.496,0.318,0.345,0.927,0.411,1.443
		c0.04,0.314,0.096,0.401,0.408,0.532c0.308,0.128,0.481,0.17,0.583,0.514c0.035,0.117,0.094,0.38,0.192,0.455
		c0.098,0.076,0.367,0.077,0.492,0.101c0.103,0.02,0.21,0.028,0.315,0.023c0.016-0.203,0.077-0.278,0.251-0.197
		c0.153,0.071,0.345,0.173,0.469,0.283c0.16,0.141,0.131,0.349,0.235,0.521c0.094,0.153,0.243,0.108,0.424,0.108
		c0.028,0.133,0.102,0.175,0.123,0.311c0.026,0.17,0.054,0.349,0.109,0.516c0.122,0.37,0.088,0.723,0.026,1.102
		c-0.028,0.174-0.117,0.394-0.104,0.576c0.013,0.194,0.217,0.368,0.344,0.514c0.309,0.352,0.516,0.75,0.768,1.146
		c0.176,0.278,0.539,1.026,0.955,0.863c-0.073-0.151-0.034-0.381,0.147-0.369c0.207,0.013,0.261,0.317,0.303,0.511
		c0.046,0.211,0.08,0.623,0.209,0.805c0.073,0.104,0.245,0.102,0.372,0.115c0.187,0.02,0.139,0.439,0.206,0.601
		c0.084,0.203,0.212,0.301,0.202,0.536c-0.365,0.01-0.262,0.297-0.446,0.527c-0.08,0.1-0.223,0.135-0.28,0.249
		c-0.087,0.17-0.061,0.421-0.061,0.607L44.6,62.26l0.015,1.139l0.942,1.382l-0.669,4.905l-0.881,1.671l-0.82,0.668h-0.425
		l-0.425,0.364l-0.486,1.519c0.072,0.131,0.094,0.233,0.122,0.384c-0.26-0.005-0.52-0.058-0.79-0.05
		c-0.039,0.001-0.21-0.039-0.226-0.03c-0.056,0.03-0.054,0.122-0.077,0.137c-0.118,0.076-0.16,0.171-0.355,0.178
		c0.077,0.239,0.61,0.996,0.356,1.185c0.175,0.517,0.817,0.963,0.788,1.525C41.65,77.613,41.271,78.23,41,78.464l-2.582,0.304
		l-0.304,0.668l-1.397,0.456l-0.121,0.942l-0.911-0.152l-0.577,1.367l-0.304,2.096l-0.577,0.729l-0.091,0.699
		c-0.157,0.24-0.549,0.261-0.728,0.456c-0.223,0.243-0.081,0.375-0.07,0.633c-0.437,0.034-0.43,0.257-0.721,0.454
		c-0.28,0.188-0.562,0.232-0.886,0.377c-0.386,0.173-0.44,0.584-0.421,1.004c0.005,0.113,0.122,0.304,0.066,0.417
		c-0.106,0.217-0.497,0.113-0.635,0.279c-0.134,0.16,0.06,0.486-0.036,0.665c-0.103,0.194-0.37,0.185-0.583,0.211
		c-0.317,0.038-0.726-0.02-1.005,0.173c-0.178,0.123-0.136,0.275-0.262,0.398c-0.342,0.336-0.831,0.22-1.028,0.736
		c-0.086,0.224-0.267,0.556-0.276,0.792c-0.007,0.186,0.096,0.306,0.116,0.488c0.072,0.648-0.716,0.522-0.671,1.177
		c0.026,0.374,0.296,0.695,0.375,1.049c0.032,0.143,0.069,0.405,0.014,0.543c-0.066,0.166-0.27,0.139-0.235,0.376
		c-0.198-0.02-0.616,0.245-0.723,0.395c-0.079,0.111-0.009,0.213-0.065,0.314c-0.052,0.092-0.148,0.119-0.225,0.213
		c-0.143,0.172-0.096,0.093-0.172,0.351c-0.057,0.194,0.006,0.16-0.134,0.3c-0.085,0.085-0.233,0.144-0.336,0.244
		c-0.113,0.109-0.212,0.234-0.319,0.348c0.105,0.093,0.263,0.229,0.303,0.368c0.041,0.144-0.089,0.287-0.151,0.41
		c-0.082,0.162-0.172,0.323-0.247,0.488c-0.068,0.151-0.166,0.315-0.072,0.452c0.1,0.144,0.067,0.17-0.011,0.325
		c-0.109,0.216,0.07,0.424-0.226,0.507c-0.189,0.053-0.468,0.015-0.493,0.281c-0.012,0.125,0.071,0.23,0.055,0.363
		c-0.012,0.102-0.071,0.205,0.005,0.292c0.066,0.076,0.326,0.113,0.421,0.175c0.254,0.165,0.377,0.502,0.488,0.767
		c0.11,0.261,0.198,0.459,0.228,0.74c0.012,0.111,0.031,0.22,0.078,0.32c0.231-0.043,0.418-0.051,0.478,0.214
		c0.033,0.142-0.05,0.306-0.041,0.461c0.187-0.006,0.378-0.01,0.568-0.01c0.072,0.23,0.035,0.456,0.048,0.694
		c0.056-0.054,0.139-0.089,0.208-0.122c-0.004-0.068-0.089-0.142-0.072-0.21c0.013-0.053,0.118-0.089,0.151-0.131
		c0.113-0.147-0.02-0.218,0-0.367c0.121-0.05,0.315-0.088,0.448-0.08c0.109,0.006,0.098,0.033,0.187,0.066
		c0.164,0.06,0.292-0.088,0.421,0.002c0.059,0.041,0.176,0.237,0.187,0.302c0.018,0.103-0.043,0.154-0.115,0.224
		c-0.089,0.087-0.24,0.11-0.317,0.188c-0.073,0.073-0.022,0.11-0.053,0.215c-0.061,0.213-0.237,0.376-0.403,0.501
		c-0.16,0.12-0.118,0.2,0.026,0.34c0.078,0.076,0.194,0.131,0.253,0.225c0.044,0.07,0.025,0.197,0.072,0.254
		c0.068,0.081,0.209,0.074,0.293,0.149c0.087,0.077,0.12,0.261,0.224,0.3c0.316,0.119,0.497-0.308,0.758-0.348
		c0.361-0.054,0.056,0.279,0.082,0.439c0.111,0.056,0.218,0.045,0.271,0.162c0.032,0.071,0.006,0.15,0.047,0.229
		c0.138,0.263,0.44,0.154,0.685,0.156c0.289,0.002,0.51,0.108,0.566,0.417c0.048,0.261-0.193,0.344-0.316,0.532
		c-0.097,0.148-0.074,0.214,0.053,0.299c0.04,0.027,0.143,0.043,0.165,0.085c0.03,0.056-0.019,0.149,0,0.214
		c0.03,0.102,0.11,0.202,0.146,0.308c0.028,0.082,0.039,0.236,0.111,0.287c0.128,0.089,0.284-0.015,0.426,0.128
		c0.085,0.086,0.066,0.154,0.108,0.281c-0.073,0.18-0.386,0.26-0.395,0.443c-0.011,0.237,0.331,0.316,0.516,0.257
		c0.205-0.066,0.172-0.291,0.214-0.46c0.045-0.179,0.271-0.349,0.427-0.45c0.223-0.146,0.194-0.333,0.35-0.535
		c0.109-0.141,0.225-0.243,0.38-0.333c0.143-0.083,0.305-0.115,0.392-0.271c0.119-0.211,0.075-0.54-0.003-0.755
		c-0.039-0.109-0.105-0.355-0.197-0.416c-0.061-0.041-0.222-0.065-0.301-0.105c-0.253-0.13-0.719-0.394-0.487-0.746
		c0.145-0.22,0.561-0.235,0.793-0.249c0.199-0.012,0.3,0.013,0.396,0.203c0.213-0.158,0.405-0.375,0.664-0.454
		c0.073-0.022,0.26-0.09,0.333-0.064c0.087,0.031,0.117,0.142,0.184,0.195c0.194,0.154,0.417-0.03,0.617,0.061
		c0.251,0.115,0.136,0.341,0.2,0.511c0.06-0.007,0.12-0.014,0.18-0.019c0.046-0.118,0.014-0.231,0.094-0.33
		c0.062-0.076,0.191-0.127,0.271-0.181c0.203-0.139,0.382-0.242,0.431-0.487c0.063-0.316,0.321-0.285,0.636-0.293
		c0.208-0.006,0.164,0.023,0.294,0.136c0.143,0.125,0.308,0.063,0.482,0.046c0.013-0.467,0.466-0.669,0.863-0.806
		c0.166-0.057,0.27-0.237,0.433-0.271c0.202-0.041,0.405,0.164,0.595,0.147c0.144-0.013,0.301-0.286,0.445-0.21
		c0.17,0.089-0.016,0.321-0.073,0.41c-0.203,0.314-0.212,0.808,0.122,1.034c0.131,0.089,0.278,0.111,0.422,0.198
		c0.166,0.101,0.339,0.274,0.452,0.433c0.262,0.369,0.278,0.854,0.503,1.249c0.129-0.142,0.598,0.173,0.644,0.337
		c0.075,0.266-0.241,0.677-0.414,0.856c-0.235,0.244-0.493-0.377-0.637-0.522c-0.154-0.155-0.177-0.131-0.327-0.045
		c-0.162,0.092-0.337,0.088-0.504,0.152c-0.012,0.101,0.015,0.203,0.032,0.302c0.272,0.06,0.221,0.213,0.055,0.409
		c-0.087,0.104-0.198,0.297-0.316,0.358c-0.096,0.049-0.234,0.024-0.338,0.024c-0.173,0-0.348,0.008-0.52-0.003
		c-0.338-0.022-0.736,0.024-1.06-0.072c-0.153-0.045-0.258-0.16-0.42-0.185c-0.104-0.016-0.235-0.01-0.339,0.002
		c-0.071,0.008-0.159,0.055-0.227,0.051c-0.251-0.014-0.493-0.327-0.74-0.406c-0.235-0.075-0.731-0.201-0.941-0.035
		c-0.135,0.107-0.252,0.223-0.403,0.316c-0.151,0.092-0.33,0.129-0.457,0.25c-0.153,0.147-0.393,0.524-0.385,0.743
		c0.005,0.156,0.187,0.317,0.272,0.436c0.151,0.211,0.274,0.443,0.434,0.648c0.168,0.214,0.311,0.452,0.493,0.655
		c-0.094,0.183-0.275,0.267-0.421,0.401c-0.153,0.14-0.314,0.194-0.491,0.299c-0.203,0.119-0.401,0.384-0.661,0.38
		c-0.183-0.002-0.262-0.17-0.119-0.302c0.094-0.088,0.477-0.257,0.215-0.36c-0.127-0.05-0.289-0.005-0.389-0.11
		c-0.097-0.102-0.11-0.303-0.135-0.437c-0.026-0.138-0.061-0.256-0.187-0.336c-0.108-0.07-0.419-0.17-0.539-0.105
		c-0.229,0.126,0.015,0.653-0.342,0.727c-0.343,0.071-0.329-0.507-0.539-0.629c-0.111-0.065-0.269,0.039-0.345,0.13
		c-0.075,0.09-0.083,0.21-0.062,0.321c-0.135,0.024-0.332-0.089-0.386-0.213c-0.071-0.16-0.071-0.215-0.246-0.272
		c-0.156-0.051-0.188-0.141-0.309-0.238c-0.214-0.171-0.513-0.031-0.755-0.102c-0.347-0.102-0.127-0.481-0.121-0.717
		c0.004-0.159,0.053-0.276,0.077-0.42c0.013-0.077,0.031-0.214-0.05-0.261c-0.081,0.142-0.148,0.284-0.209,0.435
		c-0.039,0.097-0.044,0.145-0.151,0.152c-0.228,0.014-0.342-0.268-0.564-0.293c-0.35-0.039-0.186,0.283-0.338,0.475
		c-0.141,0.178-0.362,0.143-0.564,0.14c-0.102,0.144,0.103,0.314,0.094,0.473c0.096-0.029,0.239-0.058,0.299-0.145
		c0.137,0.029,0.248,0.211,0.383,0.212c0.083,0.001,0.177-0.126,0.241-0.173c0.095-0.071,0.161-0.085,0.282-0.091
		c0.135-0.007,0.23-0.027,0.218,0.137c-0.018,0.246-0.272,0.54-0.432,0.706c-0.077,0.081-0.199,0.166-0.247,0.269
		c-0.053,0.113-0.017,0.291-0.018,0.411c-0.002,0.212,0.028,0.476-0.028,0.683c-0.057,0.212-0.313,0.266-0.509,0.291
		c-0.213,0.027-0.324-0.061-0.396-0.261c-0.139,0.164-0.088,0.403-0.326,0.517c-0.209,0.099-0.393-0.105-0.597-0.104
		c-0.01,0.184,0.043,0.213,0.14,0.376c0.101,0.17,0.185,0.409,0.327,0.548c-0.055,0.263-0.449,0.388-0.64,0.505
		c-0.062,0.038-0.154,0.104-0.197,0.164c-0.082,0.115-0.035,0.104-0.006,0.224c0.069,0.291-0.067,0.633-0.084,0.933
		c-0.015,0.282,0.214,0.383,0,0.635c0.22,0.017,0.454-0.055,0.531,0.214c0.058,0.2-0.09,0.405-0.169,0.567
		c0.21,0.16,0.246,0.097,0.245,0.39c-0.001,0.14-0.019,0.241,0.125,0.309c0.149,0.071,0.324-0.009,0.477,0.06
		c0.164,0.075,0.454,0.262,0.574,0.391c0.107,0.115,0.14,0.282,0.289,0.358c0.144,0.073,0.334,0.015,0.488,0.044
		c0.262,0.05,0.218,0.232,0.219,0.461c0.001,0.251-0.115,0.259-0.328,0.375c-0.196,0.106-0.406,0.196-0.535,0.384
		c-0.078,0.114-0.408,0.657-0.292,0.748c0,0.196-0.059,0.354-0.08,0.535c-0.024,0.209,0.158,0.375,0.154,0.584
		c-0.149-0.005-0.377-0.156-0.526-0.211c-0.115-0.042-0.226-0.104-0.321-0.181c-0.064-0.052-0.12-0.144-0.197-0.166
		c-0.101,0.153-0.03,0.396-0.171,0.507c-0.135,0.106-0.375,0.041-0.529,0.081c0.018,0.134,0.143,0.225,0.135,0.37
		c0.07-0.022,0.138-0.122,0.195-0.168c0.064-0.052,0.143-0.103,0.217-0.138c0.123-0.059,0.399-0.157,0.532-0.073
		c0.069,0.043,0.166,0.294,0.121,0.375c-0.044,0.08-0.207,0.079-0.275,0.155l0.57,0.292l70.073,39.763l0.706,4.898
		c-0.152,0.103-0.335,0.237-0.523,0.266c-0.012,0.202,0.032,0.406,0.02,0.61c-0.236,0.009-0.326,0.049-0.509,0.204
		c-0.228,0.194-0.428,0.404-0.664,0.59c-0.199,0.156-0.362,0.34-0.543,0.514c-0.084,0.081-0.168,0.268-0.276,0.299
		c-0.023,0.186-0.06,0.36-0.043,0.551c0.205,0.066,0.446,0.054,0.658,0.053c0.14-0.001,0.151-0.028,0.205,0.074
		c0.04,0.075,0.023,0.18,0.023,0.262c-0.002,0.23-0.075,0.342-0.252,0.48c-0.106,0.083-0.271,0.17-0.168,0.305
		c0.112,0.148,0.384,0.119,0.527,0.067c0.18-0.067,0.35-0.163,0.525-0.246c0.158-0.075,0.298-0.142,0.432-0.017
		c0.156,0.145,0.221,0.222,0.421,0.301c0.214,0.084,0.422,0.183,0.635,0.27c0.137,0.056,0.195,0.068,0.343,0.077
		c0.12,0.007,0.209,0.029,0.266,0.143c0.099,0.201,0.062,0.503,0.083,0.722c0.026,0.266,0.049,0.468,0.168,0.707
		c0.115,0.23,0.233,0.411,0.222,0.674c-0.005,0.121-0.084,0.29-0.069,0.409l27.861,19.637l0.334,0.114
		c0.272-0.261,0.349-0.659,0.654-0.9c0.189-0.15,0.668-0.257,0.671-0.539c0.085,0.022,0.149,0.09,0.211,0.164
		c0.086-0.108,0.05-0.319,0.111-0.394c0.129-0.159,0.187,0.07,0.207,0.184c0.044,0.256-0.139,0.594,0.103,0.78
		c0.154,0.118,0.314,0.047,0.482-0.011c0.211-0.073,0.275-0.092,0.478,0.011c0.288,0.146,0.874,0.234,0.897-0.279
		c0.009-0.215-0.181-0.474-0.223-0.701c-0.033-0.178-0.039-0.349-0.059-0.532c0.186,0.056,0.473,0.409,0.572,0.013
		c0.067-0.268-0.245-0.438,0.132-0.654c0.426-0.244,0.33,0.097,0.2,0.328c-0.145,0.259-0.172,0.435-0.051,0.709
		c0.265-0.096,0.39-0.481,0.429-0.722c0.077-0.476,0.046-0.85,0.338-1.267c0.267-0.384,0.623-0.629,0.848-1.043
		c0.221-0.406,0.631-0.636,0.729-1.115c-0.186-0.194,0.215-0.683,0.295-0.893c0.184-0.483,0.376-0.933,0.627-1.385
		c0.109-0.196,0.233-0.418,0.285-0.637c0.045-0.188-0.006-0.356,0.001-0.541c0.011-0.296,0.194-0.469,0.349-0.702
		c0.148-0.221,0.257-0.48,0.379-0.717c0.222-0.431,0.382-0.807,0.525-1.271c0.186-0.063,0.344,0.016,0.506-0.104
		c0.229-0.168,0.39-0.558,0.541-0.795c0.324-0.506,0.49-1.062,0.797-1.566c-0.024-0.263,0.366-0.731,0.501-0.95
		c0.22-0.355,0.365-0.7,0.485-1.099c0.125-0.416,0.23-0.835,0.356-1.251c0.084-0.275,0.236-0.504,0.351-0.762
		c0.114-0.255,0.112-0.459,0.136-0.735c0.038-0.44-0.108-1.06,0.099-1.444c0.144-0.267,0.466-0.387,0.603-0.646
		c0.094-0.179,0.083-0.467,0.118-0.667c0.117-0.671,0.263-1.361,0.556-1.976c0.179-0.376,0.332-0.886,0.575-1.223
		c0.344-0.477,1.085-0.9,1.588-1.183c0.521-0.292,1.003-0.696,1.473-1.032c0.42-0.301,0.232-0.739,0.182-1.261
		c-0.018-0.19-0.076-0.43-0.024-0.624c0.063-0.239,0.211-0.388,0.208-0.668c0.413,0.371,0.55-0.742,0.509-0.969
		c-0.041-0.226-0.118-0.329-0.032-0.548c0.026-0.065,0.133-0.075,0.154-0.134c0.028-0.079-0.008-0.177,0.005-0.259
		c0.049-0.318,0.037-0.187,0.227-0.394c0.157-0.171,0.099-0.28,0.2-0.449c0.164-0.276,0.836-0.226,0.732-0.63
		c-0.212,0.135-0.611,0.26-0.867,0.196c-0.339-0.085-0.344-0.484-0.386-0.824c-0.06-0.488-0.083-1.081,0.047-1.559
		c0.088-0.324,0.163-0.659,0.258-0.981c0.102-0.342,0.3-0.672,0.275-1.041c-0.028-0.422,0.188-1.137,0.446-1.506
		c0.382-0.547,0.92-1.04,1.429-1.472c0.579-0.49,1.284-0.827,1.982-1.123c1.049-0.444,2.196-1.073,3.336-0.487
		c0.338,0.174,0.678,0.554,1.068,0.36c0.309-0.153,0.531-0.512,0.791-0.724c0.577-0.472,1.074-1.282,1.886-1.334
		c0.181-0.011,0.193,0.059,0.34-0.07c0.084-0.073,0.147-0.254,0.217-0.344c0.139-0.18,0.281-0.289,0.474-0.397
		c0.332-0.186,0.639-0.493,0.454-0.936c-0.141-0.337-0.851-0.77-1.175-0.9c0.406-0.026,0.777,0.162,0.834-0.33
		c0.066,0.161,0.057,0.405,0.061,0.578c0.313,0.108,0.808-0.532,1.16-0.615c0.145-0.034,0.523,0.039,0.639-0.07
		c0.11-0.104,0.037-0.312,0.126-0.442c0.325,0.063,0.22,0.631,0.203,0.876c0.816,0.049,1.61-1.392,0.707-1.863
		c-0.53-0.277-0.67-0.105-0.762-0.831c-0.059-0.463-0.123-1.155,0.001-1.615c-0.031-0.079,0.022-0.166,0-0.252
		c-0.023-0.088-0.078-0.16-0.105-0.241c-0.034-0.104-0.025-0.191-0.032-0.301c-0.009-0.121-0.055-0.203-0.084-0.321
		c-0.043-0.176,0.066-0.591-0.079-0.727c-0.091-0.085-0.44,0.022-0.605-0.078c-0.146-0.089-0.262-0.227-0.387-0.344
		c-0.15-0.141-0.324-0.231-0.484-0.349c0.077-0.019,0.206-0.049,0.291-0.03c0.115,0.026,0.152,0.117,0.256,0.173
		c0.089,0.048,0.202,0.037,0.292,0.088c0.099,0.057,0.111,0.18,0.191,0.239c0.146,0.109,0.482,0.003,0.671,0.063
		c0.309,0.098-0.01,0.22,0.008,0.401c0.031,0.321,0.418,0.417,0.506,0.677c0.09,0.268-0.208,0.608,0.215,0.607
		c0.177,0,0.383-0.072,0.46-0.236c0.191-0.405-0.393-0.683-0.386-1.058c0.007-0.409,0.244-0.783,0.245-1.188
		c0.001-0.443,0.311-0.861,0.76-0.914c0.052,0.135,0.05,0.326,0.002,0.463c-0.053,0.148-0.187,0.219-0.26,0.35
		c-0.112,0.2,0.026,0.472,0.03,0.69c0.005,0.244-0.182,0.478-0.138,0.716c0.044,0.241,0.214,0.27,0.373,0.402
		c0.087,0.072,0.098,0.143,0.206,0.168c0.084,0.019,0.231-0.01,0.294-0.07c0.098-0.092,0.044-0.221,0.111-0.324
		c0.044-0.067,0.171-0.141,0.236-0.197c0.112-0.097,0.271-0.16,0.342-0.296c0.064-0.123,0.004-0.308,0.142-0.388
		c0.139-0.08,0.36,0.015,0.519-0.024c0.143-0.035,0.151-0.162,0.278-0.206c0.122-0.041,0.219,0.034,0.345-0.03
		c0.197-0.1,0.369-0.33,0.555-0.46c0.144-0.1,0.403-0.34,0.593-0.291c0.133,0.034,0.275,0.259,0.391,0.342
		c0.068-0.07,0.114-0.162,0.17-0.241c0.143,0.192,0.138,0.434,0.256,0.633c0.223-0.306,0.315,0.292,0.359,0.379
		c0.081,0.164,0.335,0.305,0.524,0.322c0.108-0.155,0.171-0.352,0.277-0.5c0.076-0.106,0.219-0.148,0.317-0.229
		c0.143-0.117,0.324-0.265,0.44-0.411c0.128-0.161,0.358-0.289,0.519-0.417c0.197-0.157,0.302-0.379,0.404-0.603
		c0.105-0.231,0.214-0.279,0.406-0.433c0.262-0.209,0.433-0.494,0.614-0.77c0.186-0.283,0.362-0.538,0.592-0.795
		c0.083,0.037,0.23,0.178,0.32,0.179c0.112,0,0.255-0.203,0.244-0.32c-0.022-0.227-0.379-0.145-0.214-0.489
		c0.098-0.205,0.308-0.359,0.456-0.526c0.182-0.207,0.303-0.455,0.476-0.67c0.258-0.321,0.648-0.515,0.892-0.85
		c-0.076-0.42-0.067-0.831-0.152-1.245L163.195,119.165z"/>
	<path fill="#1E8346" d="M65.119,33.551c0.001,0.049,0.1,0.112,0.133,0.138c0.088,0.07,0.139,0.063,0.243,0.039
		c0.075-0.017,0.25-0.108,0.14-0.195c-0.048-0.038-0.123-0.024-0.178-0.029c-0.068-0.006-0.129-0.034-0.195-0.044
		C65.192,33.463,65.118,33.501,65.119,33.551z"/>
	<path fill="#1E8346" d="M25.305,105.315c0.039,0,0.09-0.008,0.127,0.006c0.035,0.014,0.054,0.058,0.087,0.075
		c0.039,0.019,0.108,0.015,0.149-0.001c0.078-0.03,0.111-0.141,0.053-0.205c-0.045-0.05-0.125-0.066-0.183-0.097
		c-0.056-0.03-0.096-0.075-0.142-0.119c-0.034,0.018-0.058,0.05-0.086,0.077c-0.059,0.057-0.133,0.089-0.198,0.139
		C24.975,105.323,25.286,105.315,25.305,105.315z"/>
	<path fill="#1E8346" d="M26.488,111.594c-0.17-0.221-0.319-0.525-0.534-0.701c-0.173,0.171-0.419,0.3-0.632,0.42
		c-0.15,0.084-0.301,0.149-0.462,0.08c-0.16-0.069-0.224-0.227-0.362-0.079c-0.086,0.093-0.192,0.32-0.172,0.448
		c-0.022,0.243,0.185,0.231,0.323,0.249c0.205,0.027,0.325,0.025,0.439,0.204c0.11,0.175,0.163,0.187,0.371,0.185
		c0.268-0.003,0.603-0.023,0.839-0.165C26.575,112.066,26.696,111.866,26.488,111.594z"/>
</g>
</svg>
