<?xml version="1.0" encoding="utf-8"?>
<!-- Generator: Adobe Illustrator 26.0.3, SVG Export Plug-In . SVG Version: 6.00 Build 0)  -->
<svg version="1.1" id="Isolation_Mode" xmlns="http://www.w3.org/2000/svg" xmlns:xlink="http://www.w3.org/1999/xlink" x="0px"
	 y="0px" viewBox="0 0 200 200" enable-background="new 0 0 200 200" xml:space="preserve">
<path fill="#1E8346" d="M8.3,78.301c0.221-0.033,0.301-0.239,0.502-0.351c0.227-0.127,0.574-0.177,0.829-0.223
	c0.243-0.044,0.558,0.054,0.557-0.214c0-0.121-0.186-0.281-0.257-0.375c-0.186-0.246-0.507-0.652-0.129-0.855
	c0.144-0.078,0.374,0.03,0.505-0.069c0.115-0.087,0.172-0.471,0.186-0.607c0.199-0.139,0.566-0.175,0.81-0.17
	c0.016-0.267-0.09-0.661,0.141-0.865c0.134-0.119,0.376-0.124,0.53-0.238c0.379-0.28,0.666-0.999,0.701-1.463
	c0.038-0.492-0.67-0.801-0.18-1.341c0.328-0.363,1.009-0.268,1.447-0.321c0.008-0.355,0.088-0.71,0.1-1.066
	c0.015-0.47-0.125-0.704-0.335-1.105c-0.115-0.219-0.324-0.604-0.077-0.79c0.178-0.134,0.434,0.085,0.605-0.17
	c0.11-0.165-0.014-0.373,0.051-0.54c0.042-0.107,0.204-0.207,0.271-0.31c0.222-0.34,0.292-0.775,0.381-1.162
	c0.223-0.97,0.796-0.599,1.396-0.264c0.151-0.412,0.22-1.116,0.535-1.446c0.338-0.354,0.682-0.074,1.065,0.044
	c0.172-0.186,0.36-0.771,0.636-0.845c0.254-0.067,0.403,0.186,0.598,0.321c0.234,0.163,0.902-0.468,1.145-0.598
	c0.398-0.214,0.62-0.324,0.666-0.795c0.049-0.492,0.048-0.966,0.418-1.352c0.186-0.193,0.441-0.337,0.67-0.47
	c0.134-0.078,0.515-0.189,0.6-0.316c0.15-0.227-0.002-0.678,0.143-0.955c0.134-0.257,0.348-0.446,0.528-0.668
	c0.396-0.488,0.776-1.279,1.315-1.603c0.285-0.172,0.687-0.043,1.012-0.111c0.291-0.061,0.431-0.235,0.645-0.423
	c0.249-0.219,0.525-0.395,0.743-0.652c0.213-0.253,0.402-0.636,0.748-0.734c0.391-0.111,0.452,0.011,0.766-0.314
	c0.242-0.251,0.497-0.498,0.753-0.739c0.248-0.233,0.518-0.419,0.771-0.646c0.23-0.206,0.415-0.502,0.664-0.664
	c0.475-0.309,0.841-0.771,1.232-1.168c0.279,0.25,0.437,0.556,0.74,0.768c0.759-0.75,1.456-1.448,2.404-1.984
	c0.476-0.269,0.914-0.6,1.369-0.897c0.153-0.1,0.402-0.19,0.475-0.351c0.099-0.219-0.004-0.751,0.004-1.001
	c0.401-0.164,0.8,0.023,1.156-0.24c0.339-0.25,0.457-0.676,0.536-1.069c0.086-0.428,0.101-0.861,0.381-1.222
	c0.127-0.164,0.232-0.217,0.376-0.256c0.083-0.023,0.157,0.05,0.321-0.013c0.103-0.04,0.147-0.123,0.235-0.181
	c0.14-0.093,0.309-0.189,0.386-0.329c0.121-0.216,0.048-0.475,0.173-0.707c0.215-0.396,0.592-0.735,0.851-1.11
	c0.444-0.64,0.943-1.904,1.814-1.928c0.699-0.019,0.824-0.678,1.418-0.822c0.677-0.165,1.364-0.146,1.989-0.479l0.12-12.101
	c0.15,0,0.497-0.073,0.644-0.13c0.08-0.031,0.126-0.107,0.194-0.138c0.144-0.065,0.321-0.054,0.478-0.125
	c0.46-0.206,0.732-0.829,0.996-1.229c0.196-0.297,0.369-0.655,0.618-0.91c0.24-0.246,0.375-0.395,0.482-0.738
	c0.143-0.457,0.413-0.712,0.83-0.951c0.541-0.311,1.094-0.613,1.647-0.896c0.452-0.231,1.014-0.078,1.486-0.004
	c0.768,0.119,1.541,0.201,2.317,0.242c0.132-0.369-0.068-0.38,0.366-0.532c0.209-0.073,0.324-0.181,0.526-0.07
	c0.132,0.072,0.236,0.225,0.361,0.312c0.137,0.095,0.304,0.144,0.436,0.24c0.202-0.145,0.293-0.378,0.43-0.576
	c0.139-0.202,0.312-0.379,0.468-0.568c0.211-0.257,0.393-0.513,0.693-0.681c0.185-0.103,0.515-0.147,0.644-0.319
	c0.129-0.171,0.053-0.445,0.089-0.643c0.053-0.302,0.117-0.436-0.08-0.716c-0.176-0.25-0.337-0.405-0.402-0.715
	c-0.059-0.277-0.001-0.636-0.114-0.891c-0.067-0.151-0.14-0.415-0.177-0.579c-0.088-0.392,0.114-0.632,0.418-0.869
	c0.272-0.212,0.446-0.301,0.513-0.648c0.056-0.292,0.076-0.611,0.108-0.907c0.06-0.552-0.037-1.186,0.107-1.713
	c0.142-0.519,0.445-0.973,0.561-1.503c0.081-0.373,0.142-0.765,0.158-1.145c0.013-0.314,0.084-0.715,0.025-1.021
	c-0.039-0.204-0.223-0.402-0.252-0.607c-0.027-0.193,0.128-0.423,0.227-0.579c-0.37-0.503,0.442-0.439,0.731-0.566
	c0.154-0.068,0.34-0.149,0.509-0.165c0.236-0.022,0.248,0.066,0.391,0.191c0.107,0.094,0.259,0.163,0.372,0.033
	c0.179,0.133,0.239,0.246,0.454,0.294c0.222,0.05,0.335,0.082,0.508-0.057c0.2-0.16,0.274-0.4,0.456-0.58
	c0.22-0.217,0.55-0.342,0.821-0.495c0.174-0.098,0.427-0.181,0.573-0.314c0.205-0.186,0.143-0.396,0.464-0.439
	c0.243-0.033,0.518-0.015,0.764-0.016c0.08-0.001,0.285,0.033,0.357,0.002c0.074-0.031,0.125-0.178,0.188-0.239
	c0.068-0.065,0.125-0.093,0.204-0.141c0.244,0.133,0.393,0.399,0.598,0.574c0.399,0.342,0.928,0.155,1.413,0.146
	c0.286-0.006,0.413,0.126,0.624,0.3c0.201,0.165,0.515,0.295,0.652,0.518c0.316,0.515-0.46,1.176-0.534,1.687
	c-0.034,0.232-0.023,0.476-0.017,0.711c0.004,0.156-0.06,0.703,0.084,0.819c0.093,0.075,0.484-0.079,0.585-0.103
	c0.258-0.062,0.477-0.208,0.731-0.274C72.719,9.95,73,10.01,73.231,9.888c0.232-0.123,0.323-0.263,0.536-0.064
	c0.218,0.204,0.38,0.156,0.606-0.051c0.258-0.236,0.548-0.449,0.74-0.745c0.156-0.24,0.326-0.318,0.508-0.543
	c0.23-0.283,0.502-0.525,0.82-0.707c0.373-0.213,0.764-0.508,1.196-0.553c0.623-0.066,1.243-0.111,1.868-0.111
	c0.347,0,0.744-0.07,1.037,0.149c0.131,0.098,0.293,0.249,0.392,0.366c0.222-0.259,0.309-0.494,0.671-0.568
	c0.418-0.086,0.893-0.064,1.291-0.223c0.292-0.117,0.377-0.391,0.165-0.64c-0.102-0.119-0.205-0.145-0.2-0.302
	c0.005-0.14,0.176-0.435,0.334-0.297c0.196-0.121,0.326-0.318,0.488-0.475c0.162-0.157,0.368-0.266,0.511-0.443
	c0.214,0.051,0.393,0.262,0.581,0.369c0.164,0.093,0.336,0.167,0.496,0.267c0.213,0.134,0.453,0.234,0.657,0.381
	c0.143,0.104,0.228,0.31,0.137,0.49c-0.135,0.269-0.522,0.159-0.618,0.412c-0.082,0.217,0.118,0.505,0.126,0.734
	c0.014,0.365,0.127,0.663,0.428,0.895c0.2,0.154,0.448,0.259,0.479,0.527c0.036,0.311-0.071,0.718,0.057,1.007
	c0.273-0.232,0.568-0.449,0.605-0.836c0.024-0.254-0.031-0.524,0.055-0.771c0.08-0.228,0.229-0.318,0.393-0.471
	c0.286-0.266,0.571-0.659,0.984-0.739c0.338-0.065,0.758,0.22,0.967,0.465c0.296,0.349-0.407,0.627-0.145,0.876
	c0.164,0.155,0.569,0.005,0.78,0.087c0.175,0.068,0.353,0.283,0.471,0.419c0.136,0.158,0.25,0.314,0.126,0.504
	c-0.178,0.272-0.59,0.452-0.814,0.69c-0.18,0.191-0.858,1.076-0.609,1.362c0.142,0.163,0.271,0.184,0.505,0.222
	c0.339,0.055,0.715-0.003,1.048-0.078c0.261-0.059,0.572-0.167,0.791-0.314c0.12-0.081,0.234-0.176,0.297-0.31
	c0.05-0.106,0.044-0.23,0.109-0.326c0.344,0.163,0.611,0.435,0.93,0.64c0.392,0.252,0.569,0.627,0.852,0.979
	c0.143,0.179,0.348,0.218,0.558,0.27c0.287,0.072,0.567,0.143,0.863,0.178c0.526,0.063,1.236,0.131,1.585,0.588
	c0.116,0.151,0.17,0.321,0.22,0.502c0.07,0.259-0.078,0.289-0.307,0.405c-0.35,0.176-0.722,0.505-0.992,0.795
	c-0.136,0.146-0.186,0.24-0.073,0.408c0.146,0.217,0.445,0.21,0.618,0.393c0.335,0.353-0.272,0.735-0.175,1.11
	c0.069,0.264,0.388,0.362,0.458,0.621c0.088,0.324-0.262,0.607-0.508,0.777c-0.136,0.093-0.356,0.168-0.319,0.351
	c0.023,0.113,0.214,0.212,0.272,0.312c0.05,0.088,0.041,0.211,0.088,0.286c0.24,0.098-0.162,0.791-0.244,0.956
	c-0.142,0.281-0.309,0.618-0.209,0.949c0.12,0.398,0.631,0.132,0.843,0.355c0.101,0.107,0.076,0.311,0.188,0.415
	c0.111,0.103,0.235,0.088,0.395,0.078c0.239-0.015,0.514-0.081,0.752-0.05c0.03,0.442-0.158,1.158,0.197,1.474
	c0.123,0.11,0.371,0.192,0.389,0.358c0.014,0.136-0.109,0.197-0.148,0.275c-0.066,0.132-0.122,0.32-0.109,0.463
	c0.042,0.464,0.62,0.666,0.648,1.132c0.015,0.253-0.117,0.441-0.252,0.645c-0.184,0.277-0.578,0.949-0.38,1.294
	c0.505-0.066,0.837-0.316,1.267-0.552c0.365-0.2,0.614-0.106,0.836,0.248c0.168,0.268,0.066,0.712,0.067,1.016
	c0.002,0.435-0.134,0.727-0.393,1.079c-0.176,0.24-0.311,0.374-0.535,0.573c-0.111,0.099-0.447,0.299-0.44,0.47v5.455
	c0.003,0.372,0.405,0.529,0.617,0.825c0.129,0.181,0.25,0.349,0.392,0.519c0.167,0.199,0.227,0.457,0.392,0.653
	c0.291,0.343,0.85,0.418,1.221,0.684c0.207,0.148,0.298,0.402,0.407,0.631c0.136,0.289,0.292,0.498,0.474,0.756
	c0.219,0.307,0.247,0.808,0.138,1.161c-0.078,0.252-0.264,0.463-0.384,0.694c-0.115,0.221-0.214,0.455-0.333,0.675
	c-0.185,0.341-0.29,0.764-0.342,1.148c-0.065,0.472-0.192,1.051-0.088,1.525c0.092,0.412,0.338,0.878,0.632,1.168
	c0.405,0.4,0.027,0.922-0.169,1.336c-0.086,0.181-0.168,0.336-0.264,0.504c-0.159,0.276-0.26,0.586-0.394,0.871
	c-0.177,0.377-0.337,0.741-0.549,1.093c-0.143,0.237-0.275,0.491-0.359,0.757c-0.087,0.275-0.117,0.602-0.269,0.852
	c-0.154,0.254-0.399,0.371-0.353,0.665c0.06,0.388,0.035,0.616-0.198,0.963c-0.192,0.284-0.418,0.385-0.673,0.567
	c-0.237,0.169-0.375,0.437-0.581,0.639c-0.139,0.137-0.299,0.242-0.428,0.389c-0.326,0.372-0.477,1.047-0.542,1.527
	c-0.063,0.466-0.12,0.981-0.236,1.439c0.189-0.287,0.485-0.531,0.715-0.785c0.191-0.212,0.377-0.432,0.603-0.61
	c0.278-0.218,0.63-0.327,0.935-0.505c0.205-0.119,0.463-0.349,0.673-0.283c0.564,0.177,0.474,0.834,0.478,1.278
	c0.001,0.163-0.005,0.359,0.201,0.386c0.1,0.013,0.381-0.131,0.49-0.162c0.596-0.169,0.843-0.814,1.063-1.358
	c0.067-0.164,0.142-0.387,0.3-0.479c0.149-0.086,0.55-0.129,0.722-0.082c0.199,0.054,0.278,0.29,0.442,0.378
	c0.26,0.139,0.339-0.149,0.571-0.234c0.064-0.024,0.286-0.067,0.355-0.029c0.084,0.047,0.076,0.199,0.143,0.255
	c0.136,0.113,0.516,0.116,0.696,0.108c0.03,0.488-0.143,1.025-0.038,1.509c0.084,0.39,0.78,0.648,1.145,0.592
	c0.28-0.043,0.529-0.277,0.788-0.389c0.305-0.131,0.649-0.14,0.984-0.157c0.259-0.013,1.173-0.12,1.226,0.272v3.15
	c0.274,0,0.908,0.66,1.093,0.86c0.295,0.319,0.434,0.75,0.811,1.012c0.221,0.154,0.404,0.118,0.674,0.128
	c0.173,0.006,0.678-0.045,0.81,0.074c0.141,0.126,0.006,0.183,0.017,0.332c0.01,0.15,0.139,0.261,0.241,0.367
	c0.254,0.266,0.586,0.521,0.754,0.848c0.328,0.638-0.772,1.069-0.17,1.709c0.138-0.038,0.311-0.119,0.422-0.212
	c0.09-0.076,0.136-0.28,0.262-0.307c0.175-0.038,0.302,0.199,0.474,0.251c0.369,0.113,0.696-0.249,0.967-0.451
	c0.396-0.293,0.673-0.542,0.96-0.942c0.203-0.282,0.611-0.638,0.959-0.69c0.372-0.056,0.924-0.034,1.294-0.068
	c0.302-0.028,0.667-0.122,0.883-0.306c0.266-0.227,0.67-0.434,0.887-0.7c0.114-0.139,0.151-0.34,0.277-0.476
	c0.208-0.222,0.708-0.603,1.013-0.656c0.3,0.451,0.119,1.089,0.413,1.579c0.113,0.188,0.204,0.348,0.418,0.232
	c0.094-0.051,0.114-0.168,0.227-0.212c0.142-0.054,0.325,0.019,0.454,0.064c0.258,0.09,0.408,0.242,0.637,0.065
	c0.23-0.178,0.196-0.349,0.494-0.41c0.476-0.096,0.75-0.525,0.839-1.003c0.06-0.327,0.049-0.642,0.126-0.975
	c0.088-0.377-0.018-0.721-0.232-1.05c-0.123-0.187-0.301-0.322-0.254-0.575c0.036-0.19,0.224-0.377,0.329-0.533
	c0.166-0.247,0.313-0.503,0.462-0.761c0.229-0.395,0.473-0.766,0.78-1.105c0.287-0.318,0.348-0.505,0.771-0.599
	c0.253-0.056,0.552-0.075,0.751-0.263c0.231-0.219,0.246-0.595,0.331-0.894c0.254-0.898,1.09-1.613,1.692-2.287
	c0.267-0.299,0.516-0.614,0.763-0.93c0.068-0.088,0.16-0.162,0.163-0.27c0.003-0.109-0.093-0.265-0.097-0.391
	c-0.005-0.197,0.063-0.358,0.138-0.536c0.075-0.18,0.145-0.453,0.058-0.63c-0.085-0.173-0.307-0.237-0.322-0.433
	c-0.011-0.142,0.143-0.361,0.173-0.518c0.027-0.145,0.026-0.301,0.051-0.448c0.058-0.349,0.169-0.653,0.301-0.977
	c0.193-0.473,0.206-0.89,0.045-1.376c-0.056-0.168-0.214-0.419-0.087-0.581c0.059-0.075,0.274-0.139,0.364-0.219
	c0.115-0.103,0.213-0.226,0.327-0.331c0.235-0.217,0.647-0.445,0.757-0.749c0.114-0.317,0.036-0.736,0.129-1.076
	c1.818-0.03,3.63-0.174,5.447-0.184c0.067,0.244-0.119,0.22-0.196,0.372c-0.102,0.201-0.053,0.549-0.05,0.77
	c0.007,0.401,0.176,0.892-0.029,1.261c-0.252,0.457-0.613,0.709-0.094,1.079c0.296,0.211,0.477,0.349,0.718,0.593
	c0.313,0.318,0.706,0.514,1.057,0.782c1.052,0.805,2.195,1.376,3.045,2.427c0.103,0.128,0.157,0.325,0.328,0.375
	c0.214,0.062,0.319-0.176,0.48-0.161c0.252,0.024,0.628,0.432,0.602,0.685c-0.068,0.671,0.329,1.172,0.582,1.768
	c0.21,0.494,0.377,1.285,0.182,1.809c-0.085,0.229-0.349,0.448-0.309,0.719c0.045,0.314,0.463,0.383,0.521,0.749
	c0.062,0.392-0.021,0.807,0.032,1.204c0.064,0.476,0.125,0.952,0.178,1.432c0.04,0.359,0.018,0.743,0.12,1.097
	c0.106,0.37,0.47,0.682,0.675,1.003c0.164,0.257,0.284,0.535,0.474,0.774c0.17,0.215,0.337,0.429,0.488,0.648
	c-0.227,0.154-0.616,0.438-0.696,0.72c-0.118,0.412,0.498,0.739,0.768,0.956c0.221,0.178,0.424,0.39,0.624,0.593
	c0.202,0.206,0.199,0.391,0.191,0.681c0.235,0.218,0.515,0.132,0.782,0.257c0.302,0.14,0.514,0.469,0.717,0.724
	c0.228,0.285,0.825,0.355,0.894,0.698c0.106,0.524-0.387,0.86-0.705,1.164c-0.206,0.197-0.236,0.296-0.117,0.576
	c0.157,0.369,0.143,0.382,0.021,0.784c-0.132,0.44-0.22,1.037-0.154,1.494c0.041,0.279,0.214,0.496,0.294,0.757
	c0.08,0.261,0.098,0.552,0.175,0.817c0.092,0.318,0.184,0.638,0.308,0.939c0.181,0.442,0.137,0.588-0.058,1.018
	c-0.213,0.472-0.309,0.914-0.816,1.185c-0.321,0.172-0.83,0.051-0.945,0.481c-0.102,0.382,0.083,0.824,0.268,1.148
	c0.103,0.18,0.427,0.739,0.314,0.925c-0.225,0.372,0.16,0.628-0.229,0.883c-0.223,0.146-0.337,0.279-0.433,0.537
	c-0.12,0.325-0.113,0.76,0.06,1.062c0.192,0.335,0.353,0.453,0.767,0.434c-0.153,0.225-0.367,0.412-0.508,0.651
	c-0.214,0.362,0.053,0.592-0.014,0.952c-0.036,0.197-0.146,0.154-0.311,0.283c-0.158,0.123-0.176,0.25-0.252,0.424
	c-0.086,0.196-0.183,0.186-0.322,0.366c-0.101,0.131-0.139,0.32-0.165,0.482c-0.031,0.198-0.002,0.41-0.077,0.599
	c-0.089,0.222-0.266,0.275-0.447,0.414c-0.392,0.301-0.75,0.791-1.081,1.172c-0.507,0.584-1.252,1.359-1.18,2.173
	c0.013,0.148,0.074,0.368,0.003,0.513c-0.107,0.217-0.449,0.281-0.671,0.35c-0.362,0.113-1.034,0.223-1.306,0.522
	c-0.177,0.194-0.172,0.626-0.419,0.74c-0.397,0.183-0.726,0.385-1.101,0.634c-0.251,0.166-0.513,0.384-0.664,0.645
	c-0.161,0.278-0.215,0.492-0.526,0.624c-0.184,0.078-0.365,0.12-0.523-0.033c-0.135-0.13-0.344-0.86-0.661-0.404
	c-0.108,0.155,0.084,0.456,0.127,0.598c0.069,0.227,0.092,0.509,0.114,0.744c0.024,0.254-0.049,0.374-0.205,0.562
	c-0.151,0.182-0.115,0.194-0.325,0.163c-0.241-0.035-0.345-0.28-0.598-0.271c-0.198,0.007-0.404,0.24-0.38,0.46
	c0.024,0.219,0.311,0.366,0.302,0.61c-0.01,0.274-0.322,0.575-0.418,0.84c-0.128,0.047-0.239,0.101-0.376,0.117
	c-0.221,0.026-0.413-0.05-0.608,0.075c-0.339,0.216-0.276,0.776-0.029,1.048c0.403,0.445,1.189-0.062,1.667,0.107
	c0.145,0.051,0.266,0.219,0.384,0.318c0.196,0.164,0.441,0.298,0.619,0.48c0.169,0.172,0.24,0.413,0.4,0.602
	c0.145,0.171,0.272,0.306,0.389,0.495c0.27,0.437,0.675,0.651,1.166,0.772c0.375,0.092,0.65,0.17,0.742-0.263
	c0.041-0.195,0.036-0.332,0.152-0.492c0.172-0.237,0.477-0.372,0.639-0.615c0.3-0.45-0.426-0.782-0.186-1.183
	c0.169-0.282,0.459,0.029,0.548,0.211c0.252,0.521,0.501,0.903,0.995,1.236c0.278,0.187,0.522,0.384,0.771,0.607
	c0.068,0.061,0.229,0.162,0.235,0.276c0.007,0.157-0.225,0.303-0.244,0.454c-0.022,0.176,0.063,0.199,0.176,0.377
	c0.273,0.428,0.452,0.954,0.59,1.441c0.027,0.097,0.103,0.299,0.072,0.397c-0.091,0.299-0.578,0.28-0.773,0.451
	c-0.357,0.312,0.172,0.792,0.428,0.968c0.156,0.107,0.374,0.223,0.573,0.165c0.238-0.068,0.293-0.353,0.502-0.439
	c0.199-0.082,0.372,0.088,0.55-0.036c0.235-0.164,0.315-0.506,0.641-0.592c0.269-0.071,0.41,0.176,0.632,0.335
	c0.262,0.188,0.53,0.375,0.795,0.557c0.12,0.083,0.283,0.19,0.428,0.221c0.19,0.04,0.413-0.076,0.598-0.021
	c0.193,0.058,0.221,0.249,0.359,0.412c0.171,0.202,0.341,0.165,0.465,0.303c0.144,0.159,0.004,0.344-0.135,0.407
	c0.472,0.135,1.138-0.012,1.565,0.219c0.1,0.054,0.124,0.161,0.196,0.25c0.106,0.133,0.246,0.253,0.39,0.347
	c0.372,0.243,0.784,0.08,1.193,0.158c0.197,0.038,0.277,0.152,0.411,0.282c0.285,0.276,0.661,0.448,0.953,0.714
	c0.138,0.126,0.163,0.197,0.349,0.214c0.321,0.03,0.715-0.134,1.022-0.207c0.204-0.048,0.405-0.078,0.606-0.124
	c0.273-0.063,0.583-0.018,0.84-0.126c0.368-0.154,0.543-0.553,0.955-0.598c0.102-0.011,0.175-0.015,0.268,0.001
	c0.248,0.042,0.138,0.145,0.41,0.001c0.398-0.209,0.817-0.309,1.242-0.448c0.312-0.102,0.637-0.209,0.948-0.34
	c0.223-0.093,0.575-0.232,0.787-0.071c0.19,0.143,0.704,1.63,1.088,0.838c0.265,0.093,0.272,0.295,0.442,0.468
	c0.096,0.099,0.28,0.191,0.41,0.238c0.114-0.198,0.284-0.746,0.545-0.628c0.056,0.025,0.097,0.195,0.14,0.245
	c0.119,0.14,0.283,0.15,0.414,0.253c0.143,0.113,0.16,0.218,0.29,0.342c0.101-0.109,0.331-0.659,0.484-0.644
	c0.128,0.013,0.304,0.628,0.386,0.733c0.139-0.018,0.247-0.186,0.312-0.304c0.354,0.409,0.365,0.993,0.703,1.424
	c0.354,0.452,0.83,0.806,1.303,1.13c0.367,0.251,0.676,0.556,1.04,0.813c0.178,0.125,0.346,0.261,0.481,0.437
	c-0.197,0.237-0.58,0.243-0.733,0.503c-0.216,0.369,0.303,0.547,0.379,0.847c0.074,0.291-0.241,0.308-0.402,0.435
	c-0.297,0.235-0.283,0.751-0.284,1.092c-0.001,0.454-0.004,0.898,0.047,1.348c0.028,0.249-0.048,0.68,0.043,0.911
	c0.038,0.095,0.086,0.133,0.197,0.168c0.262,0.081,0.297-0.079,0.406-0.288c0.116-0.22,0.355-0.591,0.515-0.178
	c0.064,0.167,0.191,0.304,0.263,0.467c0.292-0.142,0.454-0.55,0.734-0.399c0.149,0.08,0.273,0.29,0.28,0.455
	c0.011,0.257-0.227,0.354-0.278,0.572c-0.076,0.329,0.194,0.591,0.389,0.793c0.178,0.184,0.774,0.593,0.637,0.895
	c-0.103,0.225-0.483,0.23-0.59,0.507c-0.096,0.252,0.08,0.541,0.252,0.739c-0.14,0.214-0.568,0.596-0.411,0.863
	c0.19,0.322,0.699,0.077,0.947,0.298c0.146,0.13,0.151,0.419,0.193,0.588c0.087,0.348,0.223,0.513,0.492,0.735
	c0.516,0.427,1.064,0.817,1.615,1.199c0.338,0.234,0.597,0.495,0.901,0.763c0.18,0.159,0.6,0.422,0.794,0.195
	c0.307-0.359-0.307-0.866-0.199-1.203c0.051-0.16,0.388-0.39,0.522-0.5c0.182-0.149,0.438-0.259,0.592-0.432
	c0.079,0.423-0.24,1.342,0.089,1.678c0.16-0.122,0.299-0.347,0.484-0.271c0.089,0.037,0.15,0.234,0.227,0.309
	c0.128,0.124,0.211,0.148,0.403,0.194c0.286,0.069,0.85-0.023,1.072,0.168c0.118,0.101,0.118,0.284,0.205,0.407
	c0.191,0.27,0.32,0.073,0.56-0.027c0.306-0.127,0.354,0.023,0.582,0.2c0.286,0.223,1.16,0.398,1.113,0.9
	c-0.721,0.014,0.297,1.342,0.389,1.512c0.205-0.13,0.268-0.428,0.424-0.611c0.192-0.224,0.432-0.234,0.733-0.208
	c0.219,0.019,0.296,0.03,0.341,0.25c0.031,0.15,0.02,0.373-0.152,0.407c0.257,0.136,0.542,0.219,0.812,0.324
	c0.001,0.118,0.027,0.236,0.054,0.355c0.056,0.245,0.759,0.594,0.973,0.422c0.209-0.169,0.148-0.823,0.171-1.08
	c0.019-0.207,0.071-0.44,0.165-0.625c0.066-0.129,0.229-0.472,0.376-0.515c0.11-0.032,0.449,0.168,0.548,0.227
	c0.191,0.115,0.352,0.288,0.523,0.431c0.082,0.069,0.364,0.203,0.41,0.316c0.083,0.204-0.251,0.514-0.319,0.723
	c-0.099,0.306-0.035,0.654-0.05,0.972c-0.011,0.238-0.154,0.66-0.062,0.906c0.071,0.191,0.326,0.271,0.342,0.504
	c0.02,0.302-0.354,0.381-0.538,0.556c-0.124,0.118-0.197,0.084-0.17,0.313c0.016,0.137,0.13,0.284,0.186,0.409
	c0.2,0.445,0.25,0.854,0.324,1.321c0.032,0.199,0.115,0.737,0.263,0.885c0.087,0.087,0.253-0.002,0.337,0.073
	c0.102,0.092,0.029,0.333,0.027,0.455c-0.008,0.544,0.155,0.963,0.378,1.453c0.18,0.397,0.49,0.726,0.672,1.119
	c1.057-0.245,0.859,1.423,1.03,2.03c-0.268,0.13-0.578,0.241-0.868,0.289c-0.007,0.415-0.162,1.018-0.005,1.406
	c0.139,0.343,0.605,0.512,0.545,0.919c-0.213-0.011-0.579,0.054-0.779,0.13c-0.029,0.242,0.129,0.343,0.139,0.542
	c0.01,0.206-0.14,0.353-0.296,0.517c-0.283,0.298-0.687,0.542-0.938,0.856c-0.268,0.335-0.115,0.577-0.041,0.947
	c0.061,0.302,0.026,0.609,0.049,0.915c-0.475,0.14-0.688-0.606-1.178-0.113c0.161,0.482,0.569,0.894,0.821,1.333
	c0.272,0.475,0.486,1.016,0.788,1.464c0.155,0.23,0.585,0.722,0.924,0.431c0.332-0.285-0.025-1.041,0.721-0.886
	c0.035,0.295-0.079,0.359-0.19,0.588c-0.137,0.284-0.132,0.618-0.116,0.937c0.008,0.169-0.02,0.528,0.09,0.665
	c0.14,0.173,0.37,0.097,0.56,0.158c-0.212,0.559-0.904,0.821-0.973,1.454c-0.056,0.511-0.18,0.846-0.535,1.232
	c-0.203,0.221-0.469,0.422-0.708,0.605c-0.065,0.05-0.131,0.104-0.213,0.121c-0.071-0.161,0.081-0.289,0.053-0.419
	c-0.021-0.096-0.169-0.127-0.21-0.201c-0.148-0.261,0.151-0.855-0.133-1.03c-0.349-0.216-0.938,0.89-1.333,0.922
	c-0.121,0.01-0.13-0.156-0.272-0.146c-0.197,0.015-0.234,0.161-0.332,0.285c-0.373,0.472,0.079,0.455,0.318,0.82
	c0.405,0.623-0.638,1.01-0.654,1.581c-0.008,0.276,0.334,0.495,0.394,0.743c0.09,0.37-0.205,0.813-0.271,1.212
	c-0.076,0.458-0.039,0.932-0.123,1.397c-0.096,0.528-0.139,0.816-0.56,1.174c-0.202,0.172-0.317,0.263-0.429,0.491
	c-0.105,0.215-0.106,0.474-0.428,0.442c-0.111-0.278,0.002-0.561-0.39-0.446c-0.131,0.038-0.419,0.357-0.554,0.448
	c-0.222,0.15-0.443,0.258-0.684,0.384c-0.968,0.506-0.166,1.107,0.006,1.869c0.048,0.214,0.085,0.514,0.016,0.721
	c-0.05,0.151-0.213,0.252-0.232,0.42c-0.042,0.378,0.523,0.671,0.412,1.127c-0.086,0.353-0.688,0.785-0.567,1.129
	c0.123,0.348,1.15,0.678,0.848,1.167c-0.27,0.439,0.459,0.769,0.487,1.193c-0.249,0.019-0.5-0.045-0.742-0.072
	c-0.697-0.079-0.549,0.023-0.985,0.404c-0.18,0.157-0.389,0.2-0.623,0.22c-0.541,0.046-0.617-0.053-0.805,0.411
	c-0.054,0.134-0.143,0.248-0.106,0.369c0.052,0.171,0.348,0.277,0.448,0.433c0.115,0.181,0.087,0.241,0.054,0.461
	c-0.019,0.129-0.137,0.168-0.116,0.305c0.03,0.199,0.194,0.233,0.317,0.374c-0.178,0.346-0.283,0.367-0.185,0.798
	c0.022,0.096,0.104,0.194,0.129,0.302c0.093,0.403-0.139,0.557-0.233,0.935c-0.159,0.641,0.635,0.764,1.032,1.096
	c0.36,0.301,0.245,0.304,0.102,0.709c-0.095,0.269-0.059,0.643-0.032,0.93c0.05,0.526,0.235,0.988,0.233,1.519
	c-0.002,0.379,0.033,0.75,0.041,1.127c-0.655,0.208-0.288,0.631-0.046,1.09c-0.165,0.024-0.338,0.044-0.503,0.084
	c-0.05,0.241-0.02,0.489-0.098,0.724c0.209,0.186,0.582,0.271,0.726,0.494c0.098,0.151,0.202,0.501,0.252,0.683
	c0.06,0.219,0.111,0.505,0.065,0.731c-0.09,0.437-0.482,0.994-0.958,1.043c0.453,0.661,0.976,1.203,0.571,2.028
	c-0.302,0.613,0.084,0.65,0.325,1.232c-0.31,0.515-0.529,1.136-0.581,1.725c-0.045,0.504,0.149,0.757,0.462,1.114
	c0.114,0.13,0.429,0.346,0.458,0.528c0.05,0.308-0.387,0.542-0.589,0.71c-0.467,0.39-0.691,0.811-0.302,1.362
	c0.147,0.209,0.372,0.371,0.576,0.517c0.179,0.128,0.379,0.25,0.526,0.412c0.11,0.121,0.191,0.298,0.339,0.396
	c-1.124,0.227-2.502,0.229-3.645,0.107c-0.504-0.053-0.735-0.384-1.09-0.649c-0.391-0.292-1.179-0.33-1.667-0.276
	c-0.274,0.03-0.377,0.145-0.623,0.236c-0.336,0.124-0.822,0.116-1.179,0.107c-0.235-0.006-0.324,0-0.508-0.133
	c-0.058-0.042-0.08-0.164-0.138-0.213c-0.188-0.159-0.557-0.182-0.788-0.226c-0.411-0.077-0.896-0.151-1.286-0.301
	c-0.255-0.098-0.191-0.136-0.337-0.338c-0.389-0.537-1.154-0.403-1.589-0.885c-0.341-0.377-0.141-0.899-0.488-1.327
	c-0.479-0.591-1.242-0.623-1.854-1.006c-0.568-0.355-0.957-0.677-1.663-0.801c-0.931,0.251-1.684-0.754-2.52-1.066
	c-1.367-0.511-2.853-0.592-4.26-0.958c-0.966-0.251-1.876-0.58-2.862-0.761c-0.759-0.139-1.529-0.216-2.293-0.293
	c-0.79-0.08-1.545-0.169-2.28-0.46c-0.761-0.301-1.599-0.371-2.244-0.9c-0.419-0.343-0.945-0.647-1.319-1.031
	c-0.275-0.283-0.422-0.682-0.776-0.883c-0.687-0.389-1.692-0.427-2.453-0.592c-1.055-0.443-2.107-0.849-3.102-1.513
	c-0.509-0.34-1.007-0.666-1.539-0.978c-0.611-0.359-1.364-0.631-1.827-1.144c-0.515-0.572-1.095-0.992-1.751-1.349
	c-0.613,0.011-0.779-0.354-1.298-0.589c-0.566-0.255-1.094-0.339-1.607-0.675c-0.618-0.404-1.374-0.668-2.05-0.961
	c-0.639-0.277-1.679-0.139-2.188-0.6c-0.184-0.166-0.216-0.455-0.418-0.62c-0.351-0.289-0.973-0.339-1.402-0.45
	c-0.39-0.101-0.895-0.145-1.192-0.446c-0.176-0.178-0.281-0.434-0.455-0.62c-0.544-0.582-1.253-0.964-1.911-1.395
	c-0.366-0.24-0.571-0.629-0.855-0.96c-0.608-0.709-1.133-0.822-1.967-1.196c-1.771-0.794-3.602-1.254-5.502-1.676
	c-0.581-0.129-0.754-0.201-0.793-0.714c-0.032-0.418-0.13-0.556-0.48-0.788c-1.205-0.801-2.771-1.338-3.877-2.248
	c-0.659-0.543-1.465-0.729-2.176-1.163c-0.685-0.419-1.285-0.956-1.979-1.368c-0.593-0.352-1.303-0.621-1.862-1.014
	c-0.519-0.365-0.352-0.929-0.694-1.405c-0.24-0.334-0.577-0.498-0.924-0.694c-0.286-0.162-0.51-0.394-0.797-0.555
	c-0.278-0.155-0.453-0.359-0.714-0.512c-0.345-0.204-0.77-0.332-1.124-0.555c-0.351-0.22-0.339-0.365-0.509-0.735
	c-0.147-0.322-0.432-0.477-0.724-0.683c-0.565-0.399-1.041-0.585-1.473-1.134c-0.325-0.413-0.635-0.681-1.026-1.027
	c-0.383-0.34-0.814-0.844-1.187-1.196c-0.377-0.356-0.48-0.534-0.523-1.052c-0.017-0.197,0.013-0.434-0.034-0.625
	c-0.108-0.443-0.436-0.518-0.785-0.76c-0.493-0.342-1.042-0.68-1.51-1.058c-0.277-0.223-0.541-0.445-0.857-0.618
	c-0.223-0.122-0.461-0.221-0.708-0.279c-0.13-0.031-0.525,0.004-0.612-0.092c-0.232-0.258,0.206-0.798,0.236-1.078
	c0.093-0.872-0.75-1.326-1.425-1.685c-0.448-0.239-0.871-0.403-1.221-0.781c-0.36-0.389-0.738-0.69-1.169-0.996
	c-0.45-0.32-0.897-0.601-1.383-0.865c-0.804-0.435-1.514-0.999-2.299-1.462c-0.746-0.44-1.006-0.854-1.47-1.496
	c-0.208-0.287-0.554-0.564-0.847-0.758c-0.711-0.471-1.222-0.741-1.538-1.482c-0.139-0.327-0.232-0.678-0.505-0.93
	c-0.346-0.319-0.831-0.467-1.251-0.661c-0.538-0.249-1.054-0.588-1.417-1.065c-0.417-0.549-0.822-0.956-1.303-1.443
	c-0.283-0.287-0.519-0.663-0.788-0.973c-0.239-0.277-0.494-0.445-0.804-0.64c-0.389-0.245-0.944-0.395-1.289-0.671
	c-0.214-0.171-0.311-0.467-0.472-0.689c-0.264-0.362-0.62-0.677-0.951-0.975c-0.708-0.638-0.375-1.608-0.963-2.327
	c-0.419-0.512-1.1-0.731-1.608-1.126c-0.486-0.378-0.841-0.809-1.227-1.278c-0.379-0.46-0.864-0.723-1.397-0.985
	c-0.325-0.16-0.671-0.341-1.021-0.437c-0.284-0.078-0.781,0.018-1.02-0.108c-0.644-0.338-0.585-1.527-0.939-2.086
	c-0.889-1.404-2.701-2.004-4.233-2.694c-0.844-0.38-2.148-0.598-2.812-1.272c-0.265-0.269-0.14-0.676-0.477-0.964
	c-0.331-0.284-0.914-0.328-1.306-0.475c-0.38-0.144-0.775-0.306-1.147-0.495c-1.4-0.71-2.901-1.196-4.429-1.604
	c-0.723-0.193-1.379-0.513-2.101-0.7c-0.924-0.239-1.804-0.461-2.707-0.745c-0.744-0.234-1.785,0.004-2.45-0.378
	c-0.552-0.317-0.475-1.191-1.005-1.517c-0.579-0.355-1.394-0.08-2.001-0.359c-0.558-0.257-1.157-0.761-1.581-1.208
	c-0.714-0.751-0.136-1.786-0.008-2.628c0.088-0.582,0.084-0.788-0.229-1.266c-0.239-0.364-0.605-0.608-0.845-0.948
	c-0.292-0.412-0.337-0.938-0.704-1.315c-0.414-0.425-0.844-0.846-1.33-1.192c-1.36-0.968-2.919-1.608-4.246-2.636
	c-0.676-0.523-1.412-0.911-2.225-1.174c-0.58-0.187-1.229-0.234-1.597-0.793c-0.179-0.272-0.251-0.572-0.475-0.824
	c-0.493-0.554-0.517-0.304-0.827,0.134c-0.825-0.323-1.693-0.609-2.526-0.957c-0.602-0.252-1.169-0.537-1.796-0.704
	c-1.472-0.392-2.627-1.521-4.083-1.933c-0.655-0.184-1.034-0.76-1.638-1.051c-0.559-0.269-1.153-0.385-1.719-0.659
	c-0.486-0.235-1.07-0.477-1.402-0.927c-0.158-0.215-0.234-0.49-0.11-0.747c0.046-0.094,0.345-0.518,0.43-0.576
	c0.379-0.253,1.162,0.234,1.496,0.432c0.681,0.404,1.241,0.988,1.928,1.397c0.603,0.359,1.237,0.868,1.94,1.001
	c0.638,0.12,1.288,0.098,1.921,0.3c0.366,0.117,0.498,0.044,0.711-0.332c0.301-0.532,0.238-0.649-0.063-1.125
	c-0.352-0.555-0.369-1.192-0.937-1.595c-0.283-0.201-0.428-0.241-0.595-0.543c-0.176-0.318-0.229-0.681-0.373-1.011
	c-0.507-0.015-1.032,0.044-1.529,0.117c-0.458,0.067-1.151,0.112-1.54,0.344c-0.268,0.159-0.351,0.385-0.638,0.488
	c-0.532,0.193-1.144,0.042-1.651-0.15c-0.11-0.931-0.683-1.554-1.287-2.222c-0.348-0.385-0.688-0.681-0.93-1.139
	c-0.272-0.514-0.544-0.942-1-1.311c-0.814-0.659-1.769-0.837-2.211-1.855C7.505,78.371,7.935,78.356,8.3,78.301z"/>
</svg>
