<?xml version="1.0" encoding="utf-8"?>
<!-- Generator: Adobe Illustrator 26.0.3, SVG Export Plug-In . SVG Version: 6.00 Build 0)  -->
<svg version="1.1" id="Isolation_Mode" xmlns="http://www.w3.org/2000/svg" xmlns:xlink="http://www.w3.org/1999/xlink" x="0px"
	 y="0px" viewBox="0 0 200 200" enable-background="new 0 0 200 200" xml:space="preserve">
<path fill="#1E8346" d="M195.381,69.856c-0.153-0.243-0.39-0.399-0.486-0.672c-0.072-0.205-0.107-0.434-0.141-0.648
	c-0.073-0.464-0.153-0.923-0.32-1.367c-0.132-0.349-0.395-0.658-0.25-1.043c0.07-0.186,0.116-0.21,0.125-0.422
	c0.006-0.15,0.044-0.25,0-0.392c-0.199-0.644-1.367-0.411-1.47-1.046c-0.056-0.347,0.353-0.485,0.369-0.816
	c0.017-0.347-0.099-0.627-0.318-0.884c-0.189-0.221-0.755-0.482-0.839-0.759c-0.075-0.25,0.239-0.327,0.327-0.517
	c0.254-0.547-1.119-1.145-1.46-1.349c-0.685-0.408-1.324-0.376-2.091-0.403c-0.467-0.016-0.641-0.387-0.919-0.734
	c-0.46-0.576-0.487-1.082-0.572-1.766c-0.041-0.329-0.071-0.658-0.099-0.986c-0.025-0.282-0.108-0.667,0.073-0.892
	c1.452-1.803-0.245-3.442-1.355-4.907c-0.659-0.87-1.311-1.832-2.448-1.957c-1.095-0.12-2.001,0.374-2.869,0.971
	c-0.423,0.291-0.37,0.266-0.764-0.089c-0.353-0.32-0.662-0.616-0.928-1.012c-0.222-0.331-0.512-0.692-0.677-1.051
	c-0.128-0.277-0.061-0.829-0.338-1.003c-0.349-0.218-0.57,0.171-0.75-0.319c-0.141-0.384,0.121-0.921,0.103-1.317
	c-0.028-0.602-0.464-1.209-1.021-1.491c-0.304-0.154-0.665-0.005-0.953-0.163c-0.254-0.14-0.293-0.471-0.512-0.645
	c-0.483-0.384-1.233-0.148-1.802-0.558c-0.271-0.196-0.542-0.508-0.72-0.79c-0.114-0.18-0.172-0.546-0.331-0.654
	c-0.501-0.34-1.076,0.404-1.552-0.17c-0.429-0.516,0.079-0.77,0.093-1.24c0.011-0.366-0.426-0.823-0.671-1.033
	c-0.483-0.415-0.97-0.869-1.465-1.269c-0.508-0.409-0.875-0.173-1.467-0.334c-0.466-0.127-0.42-0.353-0.517-0.766
	c-0.054-0.233-0.125-1.008-0.267-1.148c-0.35-0.344-1.409,0.003-1.877-0.094c-0.321-0.066-0.512-0.028-0.592-0.342
	c-0.066-0.262-0.242-0.487-0.417-0.688c-0.216-0.249-0.268-0.335-0.34-0.644c-0.101-0.438-0.302-0.941-0.744-1.113
	c-0.187-0.073-0.428-0.144-0.578,0.045c-0.128,0.162-0.033,0.474-0.077,0.672c-0.132,0.599-0.63,0.948-1.137,1.239
	c-0.628,0.361-1.526,0.884-1.881-0.076c-0.142-0.385,0.005-0.845-0.114-1.22c-0.1-0.317-0.492-0.559-0.728-0.764
	c-0.422-0.365-0.298-0.394-0.163-0.84c0.073-0.242,0.015-0.483-0.228-0.619c-0.32-0.18-1.598-0.009-1.134-0.789
	c0.144-0.241,0.529-0.225,0.645-0.427c0.087-0.15-0.109-0.429-0.173-0.56c-0.089-0.18-0.249-0.361-0.303-0.554
	c-0.076-0.272-0.01-0.584-0.075-0.867c-0.05-0.214-0.117-0.482-0.245-0.661c-0.126-0.178-0.325-0.241-0.485-0.375
	c-0.205-0.172-0.425-0.376-0.557-0.616c0.22-0.236,0.593-0.393,0.77-0.673c0.224-0.108,0.457-0.215,0.671-0.346
	c-0.307-0.288-0.722-0.42-1.015-0.754c0.246-0.34,0.962-0.406,0.627-0.897c-0.378-0.554-1.322-0.458-1.742-0.899
	c-0.304-0.318-0.14-0.934-0.754-0.956c-0.43-0.016-0.724,0.557-1.028,0.775c-0.362,0.26-0.734,0.315-1.156,0.179
	c-0.504-0.162-0.836-0.555-1.219-0.89c-0.474-0.416-0.651-0.461-1.277-0.321c-0.686,0.154-1.107,0.382-1.611,0.859
	c-0.471,0.446-0.991,0.658-1.304,0.027c-0.287-0.578-0.295-1.294-0.543-1.908c-0.235-0.581-0.328-0.744,0.029-1.278
	c0.216-0.324,0.614-0.602,0.563-1.044c-0.047-0.418-0.58-1.277-0.898-1.529c-0.433-0.342-1.096-0.097-1.572-0.271
	c-0.518-0.19-0.926-0.687-1.375-0.991c-0.536-0.362-0.592-0.512-1.205-0.302c-0.411,0.141-1.073,0.554-1.531,0.368
	c-0.333-0.136-0.763-0.549-1.063-0.78c-0.408-0.313-0.448-0.8-0.517-1.273c-0.071-0.486-0.113-0.994-0.396-1.418
	c-0.13-0.196-0.334-0.305-0.462-0.502c0.344-0.16,0.313-0.594,0.248-0.862c-0.115-0.47,0.158-0.51,0.276-0.976
	c0.135-0.527-0.267-0.983-0.536-1.395c-0.326-0.499-0.626-0.961-1.083-1.36c-0.409-0.358-0.791-0.762-1.21-1.11
	c-0.227-0.189-0.78-0.68-1.047-0.735c-0.67,0.089-1.105,0.63-1.686,0.809c-0.438,0.135-0.741,0.057-0.993,0.492
	c-0.165,0.286-0.218,0.619-0.464,0.856c-0.252,0.243-0.5,0.23-0.815,0.356c-0.308,0.124-0.454,0.614-0.683,0.687
	c-0.272,0.087-0.638-0.257-0.938-0.102c-0.175,0.09-0.136,0.228-0.341,0.275c-0.178,0.04-0.486-0.1-0.64-0.163
	c-0.185-0.075-0.431-0.291-0.643-0.247c-0.067,0.014-0.235,0.233-0.303,0.272c-0.348,0.198-0.416,0.059-0.663-0.124
	c-0.464-0.344-0.33-0.149-0.765,0.08c-0.243,0.127-0.436,0.092-0.642-0.03c-0.391-0.232-0.129-0.281-0.578-0.089
	c-0.31,0.132-0.934,0.611-1.25,0.566c-0.373-0.053,0.037-0.695-0.744-0.552c-0.33,0.06-0.678,0.498-0.952,0.395
	c-0.145-0.054-0.187-0.273-0.352-0.327c-0.231-0.076-0.696,0.047-0.896,0.159c-0.262,0.146-0.228,0.333-0.427,0.519
	c-0.267,0.249-0.819,0.215-1.06,0.113c-0.259-0.109-0.07-0.262-0.478-0.107c-0.573,0.218-1.054,0.731-1.668,0.825
	c-0.385,0.058-0.655-0.114-0.952,0.203c-0.342,0.364-0.185,0.831-0.405,1.219c-0.176,0.31-0.551,0.468-0.812,0.723
	c-0.337,0.328-0.628,0.664-1.026,0.928c-0.406,0.27-0.914,0.573-0.768,1.125c0.062,0.233,0.322,0.453,0.36,0.679
	c0.132,0.792-1.531,0.692-1.424,1.36c-0.095,0.176-0.169,0.361-0.284,0.523c-0.266-0.07-0.818-0.305-1.083-0.255
	c-0.425,0.081-0.399,0.457-0.897,0.471c-0.293,0.009-0.692,0.01-0.946-0.168c-0.136-0.095-0.221-0.361-0.364-0.417
	c-0.436-0.171-0.539,0.413-0.696,0.646c-0.194,0.289-0.554,0.404-0.882,0.561c-0.279,0.134-0.5,0.222-0.814,0.071
	c-0.309-0.148-0.338-0.264-0.673-0.33c-0.375-0.074-0.272-0.121-0.503-0.335c-0.353-0.327-0.633-0.049-1.085-0.15
	c-0.292-0.065-0.404-0.266-0.653-0.383c-0.792-0.371-2.057,0.485-2.783,0.767c-0.258,0.1-0.477,0.247-0.75,0.044
	c-0.232-0.173-0.185-0.494-0.523-0.566c-0.5-0.107-0.198,0.488-0.602,0.672c-0.209,0.095-0.516-0.201-0.751-0.062
	c-0.137,0.081-0.447,0.55-0.54,0.673c-0.155,0.206-0.183,0.551-0.347,0.724c-0.087,0.092-0.282,0.104-0.411,0.216
	c-0.268,0.231-0.417,0.573-0.751,0.759c-0.539-0.512-0.585,0.432-0.932,0.633c-0.327,0.19-0.353-0.1-0.676-0.174
	c-0.222,0.316-0.07,0.81-0.2,1.176c-0.084,0.238-0.21,0.437-0.385,0.61c-0.497,0.489-0.843,0.609-1.02,1.336
	c-0.156,0.641-0.57,0.727-0.98,1.208c-0.385,0.452-0.541,1.085-0.883,1.574c-0.221,0.316-0.588,0.596-0.975,0.691
	c-0.268,0.067-0.627-0.082-0.826,0.106c-0.207,0.197-0.203,0.772-0.236,1.049c-0.045,0.379,0.007,0.77-0.044,1.148
	c-0.123,0.923-0.96,0.897-1.533,1.419c-0.572,0.522-0.189,0.542-0.114,1.2c0.054,0.481-0.355,0.684-0.802,0.742
	c-0.239,0.031-0.379-0.097-0.572-0.142c-0.222-0.052-0.475-0.082-0.727-0.082c-0.275-0.001-0.48-0.02-0.67,0.166
	c-0.165,0.161,0.035,0.259-0.254,0.327c-0.416,0.098-1.386-0.502-1.611-0.786c-0.261-0.33-0.297-0.602-0.659-0.88
	c-0.426-0.328-0.84-0.648-1.257-0.98c-0.316-0.251-0.613-0.239-0.946,0.015c-0.298,0.228-0.377,0.593-0.694,0.756
	c-0.235,0.12-0.358-0.083-0.345,0.3c0.014,0.404,0.55,0.761,0.085,1.128c-0.302,0.239-1,0.196-1.379,0.254
	c-0.259,0.04-0.781,0.09-0.88,0.382c-0.099,0.29,0.231,0.457,0.367,0.627c0.247,0.31,0.191,0.445,0.039,0.885
	c-0.156,0.452-0.401,0.972-0.836,1.199c-0.311,0.162-1.194,0.38-1.522,0.247c-0.257-0.104-0.396-0.48-0.536-0.701
	c-0.24-0.378-0.417-0.577-0.907-0.334c-0.287,0.142-0.407,0.493-0.726,0.568c-0.07-0.247-0.181-0.545-0.385-0.727
	c-0.352,0.058-0.298,0.505-0.41,0.755c-0.152,0.34-0.222,0.34-0.583,0.384c-0.398,0.049-0.826,0.019-1.223-0.018
	c-0.472-0.043-0.331-0.166-0.627-0.437c-0.391-0.359-1.075-0.632-1.58-0.775c-0.529-0.151-0.787-0.267-1.313-0.097
	c-0.027,0.573,0.306,0.847,0.538,1.28c0.276,0.518-0.361,0.632-0.429,1.169c-0.066,0.52,0.154,0.883-0.591,1.032
	c-0.633,0.126-0.442-0.333-0.791-0.605c-0.316,0.2-0.428,0.607-0.67,0.879c-0.287,0.321-0.591,0.595-0.735,1.024
	c-0.196,0.585,0.227,1.424-0.281,1.922c-0.316,0.31-1.216,0.328-0.89,1.033c0.2,0.433,0.511,0.501,0.481,1.038
	c-0.029,0.532-0.168,0.944-0.802,0.868c-0.443-0.053-0.802-0.452-1.274-0.325c-0.982,0.263,0.17,1.212-0.421,1.62
	c-0.294,0.203-0.897,0.031-0.993,0.428c-0.044,0.181,0.189,0.809,0.258,0.991c-0.197,0.351-0.46,0.859-0.859,0.672
	c-0.446-0.209-0.461-0.575-1.043-0.371c-0.819,0.287-0.209,1.037,0.135,1.557c0.527-0.339,1.297-0.5,1.749,0.076
	c0.201,0.257,0.207,0.948-0.02,1.185c-0.166,0.174-0.417,0.052-0.586,0.155c-0.142,0.086-0.117,0.21-0.201,0.34
	c-0.483,0.75-0.916-0.64-1.484-0.043c-0.329,0.345,0.181,1.047,0.579,1.057c0.045,0.604-0.064,1.53-0.48,1.988
	c-0.282-0.129-0.74-0.004-0.881,0.282c-0.117,0.238,0.073,0.572-0.053,0.805c-0.353,0.656-1.428,0.307-1.963,0.614
	c-0.506,0.29,0.082,0.752,0.334,1.091c0.333,0.448,0.282,0.939-0.177,1.367c-0.267,0.249-0.876,0.613-1.259,0.569
	c-0.419-0.048-0.662-0.51-1.021-0.084c-0.191,0.225-0.126,0.519-0.233,0.765c-0.059,0.137-0.227,0.303-0.323,0.418
	c-0.323,0.386-0.687,0.591-1.085,0.888c-0.572,0.427-0.88,1.076-1.336,1.623c-0.464,0.555-0.802,0.753-1.445,1.042
	c-0.615,0.275-0.487,0.386-0.278,0.909c0.141,0.353,0.291,0.658,0.696,0.805c0.495,0.18,1.443,0.094,1.402,0.893
	c-0.034,0.664-1.193,0.851-1.582,1.361c-0.448,0.588-0.236,1.313-1.134,1.321c-0.684,0.006-1.449-0.002-1.139,0.917
	c-0.195,0.177-0.436,0.807-0.673,0.878c-0.294,0.089-0.374-0.297-0.54-0.406c-0.195-0.128-0.226-0.143-0.486-0.108
	c-0.321,0.043-1.155,0.098-1.391,0.304c0.145,0.349,0.211,0.733,0.392,1.073c0.097,0.181,0.474,0.48,0.49,0.685
	c0.035,0.446-1.215,0.907-1.55,1.102c-0.71,0.412-0.794,1.088-0.85,1.883c-0.045,0.637,0.145,1.778-0.888,1.71
	c-0.388-0.025-0.909-0.769-1.278-0.36c-0.242,0.267,0.165,0.824,0.37,1.044c0.411,0.438,0.673,0.529,0.606,1.177
	c-0.067,0.649-0.027,1.202-0.647,1.572c-0.177,0.105-0.485,0.298-0.693,0.317c-0.17,0.015-0.321-0.119-0.507-0.082
	c-0.421,0.084-0.796,0.664-1.001,0.996c-0.328,0.53-0.574,1.266-0.996,1.716c-0.368,0.392-0.773,0.209-0.941,0.809
	c-0.241,0.863,0.612,2.037-0.111,2.763c-0.34,0.341-0.637,0.583-1.106,0.378c-0.378-0.165-0.623-0.635-1.09-0.488
	c-0.699,0.221-1.357,1.099-1.784,1.666c-0.318,0.421-0.632,1.317-0.3,1.925c0.136,0.25,0.44,0.606,0.178,0.913
	c-0.236,0.277-0.962,0.003-1.214-0.157c-0.341-0.215-0.416-0.6-0.877-0.497c-0.417,0.093-0.72,0.564-1.146,0.706
	c-0.588,0.196-0.649,0.185-0.77,0.8c-0.103,0.519-0.19,0.486-0.619,0.726c-0.276,0.154-0.835,0.521-1.095,0.177
	c-0.221-0.291-0.09-0.687-0.398-0.998c-0.397,0.488-1.166,0.727-1.271,1.345c-0.082,0.476-0.048,0.886-0.66,1.03
	c-0.972,0.23-2.089-0.279-2.986-0.577c-0.554-0.184-0.466,0.069-0.855,0.407c-0.357,0.311-0.863,0.495-1.257,0.767
	c-0.286,0.198-0.545,0.431-0.86,0.585c-0.565,0.276-1.311,0.064-1.496,0.79c-0.112,0.435,0.011,0.974-0.343,1.283
	c-0.184,0.161-0.499,0.207-0.712,0.332c-0.225,0.132-0.405,0.321-0.651,0.423c-0.377-0.379-0.538-0.922-0.943-1.261
	c-0.368,0.229-0.322,0.942-0.427,1.328c-0.118,0.436-0.296,0.832-0.378,1.274c-0.242,1.295-1.113,0.26-1.605-0.28
	c-0.386-0.423-0.672-1.09-1.364-0.769c-0.776,0.36,0.03,1.303,0.333,1.775c-0.199,0.263-0.401,0.454-0.643,0.645
	c-0.177,0.14-0.305,0.194-0.364,0.475c-0.054,0.253-0.007,0.795,0.14,1.018c0.122,0.185,0.415,0.361,0.567,0.554
	c0.168,0.213,0.34,0.421,0.521,0.624c0.539,0.601,1.194,1.211,1.823,1.711c0.638,0.508,1.259,1.052,1.835,1.626
	c0.143,0.142,0.365,0.296,0.468,0.479c0.09,0.159,0.065,0.324,0.141,0.483c0.116,0.247,0.403,0.39,0.61,0.555
	c0.186,0.149,0.296,0.375,0.465,0.496l7.706,18.569l1.505,4.661c0.195,0.291,0.218,0.571,0.294,0.893
	c0.033,0.144-0.004,0.237,0.119,0.345c0.218,0.194,0.543,0.01,0.807,0.09c0.298,0.09,0.532,0.363,0.748,0.576
	c0.211,0.208,0.389,0.579,0.627,0.743c0.294,0.202,0.834,0.035,1.09,0.279c0.289,0.275,0.009,0.946,0.315,1.297
	c0.296,0.338,0.891,0.532,1.26,0.821c0.429,0.336,0.81,0.524,0.962,1.087c0.154,0.572,0.221,1.158,0.42,1.724
	c0.191,0.544,0.499,1.018,0.587,1.597c0.179,1.17,0.877,2.173,0.954,3.356c0.02,0.302,0.289,0.96,0.595,1.098
	c0.451,0.205,1.474-0.156,1.935-0.233c0.754-0.126,1.492-0.313,2.242-0.461c0.287-0.056,0.857-0.264,1.125-0.189
	c0.244,0.069,0.187,0.082,0.292,0.318c0.225,0.502,0.11,0.909-0.247,1.302c-0.237,0.262-0.513,0.358-0.664,0.669
	c-0.177,0.367-0.056,0.682-0.339,0.994c-0.136,0.15-0.235,0.031-0.28,0.318c-0.047,0.303,0.22,0.695-0.033,0.969
	c-0.341,0.37-1.05-0.115-0.893,0.653c0.05,0.243,0.241,0.429,0.265,0.66c0.02,0.197-0.11,0.487-0.197,0.648
	c-0.235,0.434-0.455,0.741-0.498,1.257c-0.043,0.513,0.001,1.05,0.001,1.566c0,0.584-0.261,1.486-0.074,2.027
	c0.115,0.331-0.067,0.72,0.233,0.995c0.348,0.319,0.561-0.108,0.949,0.032c0.637,0.23,0.676,1.021,0.49,1.534
	c-0.122,0.336-0.389,0.664,0.004,0.856c0.2,0.098,0.69-0.112,0.572,0.284c-0.046,0.157-0.283,0.139-0.373,0.264
	c-0.079,0.11-0.042,0.2-0.08,0.317c-0.161,0.488-0.191,0.337-0.608,0.613c-0.333,0.221-0.308,0.757,0.048,1.09
	c0.352,0.329,1.079-0.027,1.495-0.099c0.996-0.172,1.87-0.59,2.795-0.98c0.664-0.281,1.011-0.636,1.743-0.505
	c0.501,0.09,0.874,0.093,1.006,0.63c0.097,0.396,0.051,0.834,0.055,1.24c0.004,0.411-0.018,0.891,0.091,1.291
	c0.118,0.429,0.35,0.454,0.657,0.729c0.225,0.202,0.342,0.502,0.448,0.786c0.048,0.129-0.024,0.258,0.109,0.35
	c0.159,0.111,0.502-0.02,0.708,0.105c0.145,0.089,0.199,0.203,0.263,0.346c0.225,0.498,0.172,0.655,0.798,0.654
	c0.445-0.001,0.936-0.047,1.328,0.173c0.77,0.432,1.33,1.203,1.955,1.809c0.301,0.291,0.645,0.561,0.873,0.916
	c0.15,0.233,0.147,0.715,0.367,0.883c0.017,0.111,0.003,0.249-0.004,0.363c-0.243,0.213-0.186,0.655-0.11,0.953
	c0.106,0.408,0.195,0.357,0.566,0.462c0.456,0.13,0.88,0.203,1.358,0.243c0.265,0.023,0.689-0.035,0.42,0.364
	c-0.169,0.024-0.343,0.093-0.506,0.145c0.229,0.543,0.849,0.923,1.153,1.45c0.362,0.628,0.408,1.039,0.16,1.679
	c-0.195,0.502,0.113,0.425,0.452,0.756c0.448,0.438,0.816,0.922,1.322,1.314c0.516,0.4,1.193,0.445,1.713,0.827
	c0.45,0.331,0.699,0.857,1.164,1.171c0.582,0.394,1.115,0.604,1.619,1.137c0.337,0.357,0.171,0.555,0.304,0.945
	c0.128,0.375,0.697,0.444,0.999,0.62c0.432,0.252,0.72,0.564,1.008,0.968c0.581,0.812,0.943,1.898,1.823,2.423
	c0.679,0.404,1.519,0.569,2.229,0.949c0.265,0.141,0.561,0.375,0.843,0.461c0.398,0.122,0.919-0.003,1.32-0.039
	c1.807-0.165,3.798-0.032,5.579-0.384c0.469,0.043,0.833-0.285,1.173-0.556c0.467-0.373,0.816-0.654,1.453-0.62
	c0.898,0.047,1.014,1.169,1.047,1.911c0.492,0.171,0.66,0.453,0.822,0.899c0.167,0.458,0.364,0.592,0.787,0.817
	c0.565,0.299,1.223,0.534,1.755,0.88c0.312,0.202,0.315,0.357,0.691,0.36c0.285,0.002,0.551-0.148,0.82-0.214
	c0.587-0.143,0.884,0.109,1.367,0.417c0.162,0.104,0.173,0.168,0.428,0.211c0.25,0.042,0.548,0.021,0.799,0.008
	c1.193-0.06,2.39-0.124,3.585-0.185c0.678-0.034,1.747-0.241,2.338,0.173c0.508,0.356,0.85,0.925,1.331,1.296
	c0.553,0.427,0.709-0.326,0.831-0.807c0.084-0.332,0.15-0.831,0.071-1.179c-0.061-0.27-0.243-0.515-0.283-0.796
	c-0.09-0.63,0.015-1.178-0.231-1.79c-0.202-0.504-0.312-1.073-0.218-1.634c0.162-0.966,1.84-1.152,2.521-1.708
	c0.82-0.669,1.441-2.045,1.137-3.089c-0.138-0.473-0.321-0.804-0.052-1.28c0.197-0.348,0.604-0.616,0.916-0.858
	c0.451-0.35,0.241-0.524,0.091-1.024c-0.105-0.348-0.214-0.65-0.05-1.004c0.15-0.324,0.55-0.502,0.532-0.89
	c-0.009-0.207-0.186-0.47-0.322-0.627c-0.326-0.378-0.744-0.654-1.062-1.043c-0.362-0.442-0.293-0.704-0.062-1.169
	c0.301-0.606,0.798-1.204,1.266-1.69c0.291-0.303,0.578-0.623,0.975-0.791c0.551-0.235,1.189-0.188,1.775-0.2
	c0.511-0.011,0.967-0.053,1.289-0.513c0.232-0.332,0.27-0.897,0.698-1.077c0.425-0.178,1.216,0.64,1.312-0.074
	c0.038-0.284-0.086-0.618-0.093-0.91c-0.006-0.305,0.133-0.436,0.259-0.71c0.252-0.55,0.695-1.173,0.765-1.78
	c0.04-0.344-0.013-0.71-0.027-1.054c-0.012-0.309,0.053-0.642-0.047-0.939c-0.086-0.254-0.273-0.353-0.462-0.54
	c-0.181-0.179-0.304-0.402-0.456-0.605c-0.146-0.196-0.229-0.349-0.187-0.6c0.056-0.337,0.284-0.463,0.101-0.775
	c-0.126-0.213-0.295-0.227-0.503-0.375c-0.191-0.134-0.358-0.304-0.528-0.462c-0.181-0.169-0.341-0.376-0.545-0.519
	c-0.213-0.151-0.489-0.208-0.731-0.296c-0.334-0.121-0.44-0.315-0.529-0.637c-0.069-0.253-0.236-0.491-0.296-0.738
	c-0.063-0.259,0.098-0.496,0.148-0.729c0.039-0.182,0.202-0.322,0.335-0.442c0.281-0.254,0.562-0.459,0.766-0.781
	c0.42-0.662,1.038-0.748,1.655-1.143c0.587-0.376,1.335-0.307,2.024-0.363c0.823-0.068,1.62-0.091,2.42-0.31
	c0.035-0.441,0.369-1.029,0.739-1.279c0.362-0.244,0.747-0.524,1.177-0.362c0.34,0.129,0.479,0.246,0.782-0.053
	c0.2-0.198,0.165-0.445,0.189-0.719c0.068-0.813,0.315-1.511,0.557-2.276c0.209-0.658,0.609-1.217,0.702-1.914
	c0.086-0.648,0.679-0.577,1.23-0.829c0.214-0.098,0.435-0.092,0.654-0.165c0.264-0.088,0.367-0.297,0.496-0.532
	c0.231-0.422,0.319-1.312,0.867-1.334c0.887-0.037,1.85,0.245,2.661,0.565c0.705,0.278,1.624,0.456,2.372,0.202
	c0.62-0.211,1.24-0.137,1.893-0.232c0.54-0.079,0.996-0.462,1.434-0.759c0.865-0.587,1.718-1.396,2.766-1.6
	c0.382-0.074,0.702-0.102,1.086-0.083c0.376,0.018,0.709,0.176,1.087,0.17c0.387-0.006,0.777,0.147,1.153,0.227
	c0.389,0.083,0.782,0.139,1.168,0.238c0.572,0.146,1.022,0.327,1.625,0.319c0.594-0.008,1.286-0.152,1.861,0.022
	c0.456,0.139,0.756,0.534,1.286,0.421c0.333-0.071,0.645-0.388,0.897-0.596c0.331-0.272,0.566-0.355,0.976-0.411
	c0.905-0.125,1.615-0.767,2.456-1.048c0.392-0.131,0.794-0.025,1.18-0.138c0.356-0.105,0.605-0.438,0.878-0.672
	c0.288-0.247,0.422-0.231,0.794-0.168c0.382,0.064,0.729,0.169,1.115,0.22c0.309,0.041,0.768,0.212,1.071,0.089
	c0.177-0.072,0.265-0.266,0.37-0.408c0.274-0.369,0.862-0.408,1.296-0.542c1.195-0.372,2.584-0.257,3.747-0.685
	c0.076-0.297-0.029-0.617,0.062-0.907c0.104-0.332,0.409-0.434,0.709-0.543c0.389-0.141,0.786-0.259,1.174-0.402
	c0.183-0.068,0.356-0.162,0.541-0.224c0.323-0.108,0.668-0.1,0.998-0.18c0.375-0.09,0.7-0.283,1.027-0.476
	c0.312-0.183,0.659-0.317,0.955-0.525c0.235-0.165,0.46-0.422,0.579-0.682c0.089-0.195,0.076-0.422,0.217-0.589
	c0.376-0.447,1.205-0.409,1.726-0.482c0.454-0.062,1.413-0.004,1.758-0.348c0.198-0.198,0.222-0.576,0.373-0.812
	c0.247-0.388,0.589-0.708,0.876-1.062c0.173-0.213,0.282-0.546,0.504-0.721c0.216-0.172,0.915-0.212,1.15-0.341
	c0.189-0.104,0.431-0.06,0.636-0.129c0.104-0.611,0.738-1.03,1.248-1.278c0.321-0.156,0.666-0.187,0.991-0.324
	c0.412-0.173,0.672-0.394,0.944-0.743c0.232-0.299,0.454-0.601,0.662-0.918c0.079-0.121,0.21-0.463,0.345-0.508
	c0.102-0.034,0.475,0.198,0.564,0.248c0.266,0.151,0.482,0.354,0.703,0.558c0.119,0.111,0.311,0.321,0.47,0.354
	c0.128-0.594,0.09-1.285,0.135-1.899c0.026-0.345-0.016-0.526,0.272-0.707c0.254-0.159,0.49-0.332,0.774-0.443
	c1.176-0.461,2.465-0.646,3.534-1.355c0.028-0.454-0.308-0.771-0.401-1.195c-0.053-0.237-0.076-0.554-0.087-0.798
	c-0.011-0.254,0.109-0.556-0.075-0.776c-0.186-0.222-0.593-0.206-0.823-0.375c-0.262-0.193-0.364-0.381-0.376-0.697
	c-0.008-0.198,0.007-0.418-0.105-0.591c-0.364-0.564-1.155-0.827-1.721-1.121c-0.554-0.287-1.542-0.439-1.048-1.219
	c0.217-0.342,0.664-0.457,0.97-0.715c0.192-0.161,0.248-0.31,0.362-0.523c0.162-0.305,0.477-0.508,0.465-0.874
	c-0.008-0.262-0.175-0.492-0.245-0.743c-0.112-0.404-0.024-0.827,0.03-1.234c0.046-0.347,0.112-0.693,0.141-1.047
	c0.017-0.203,0.076-0.609-0.023-0.788c-0.106-0.19-0.254-0.516-0.119-0.735c0.076-0.125,0.29-0.249,0.394-0.368
	c0.186-0.212,0.299-0.382,0.361-0.654c0.056-0.247,0.095-0.507,0.069-0.76c-0.013-0.129-0.13-0.363-0.084-0.482
	c0.143-0.365,0.816-0.25,0.993-0.681c0.11-0.269-0.113-0.693-0.159-0.965c-0.035-0.203-0.09-0.587-0.01-0.781
	c0.107-0.256,0.449-0.358,0.645-0.525c0.182-0.154,0.212-0.268,0.282-0.497c0.179-0.586,0.29-1.14,0.32-1.759
	c0.01-0.2-0.08-0.466,0.104-0.58c0.172-0.107,0.564-0.012,0.772-0.119c0.228-0.116,0.244-0.368,0.426-0.494
	c0.12-0.084,0.287-0.025,0.429-0.039c0.329-0.032,0.586-0.292,0.84-0.487c0.453-0.347,0.888-0.717,1.372-1.023
	c0.195-0.124,1.222-0.452,1.072-0.771c0.374-0.274,0.93-0.184,1.369-0.22c0.373-0.031,0.753-0.01,1.12,0.073
	c0.677,0.152,1.569,0.172,1.885-0.558c0.24-0.554-0.308-1.107,0.028-1.643c0.132-0.21,0.347-0.375,0.47-0.583
	c0.141-0.236,0.074-0.512,0.015-0.779c-0.117-0.533-0.536-1.042,0.124-1.332c0.229-0.1,0.501-0.165,0.744-0.231
	c0.224-0.061,0.499-0.063,0.702-0.182c0.371-0.218,0.717-0.854,0.711-1.269c-0.006-0.449-0.399-0.611-0.658-0.924
	c-0.213-0.256-0.49-0.657-0.443-1.006c0.037-0.274,0.294-0.641,0.294-0.913c-0.002-0.579-0.261-1.061-0.246-1.63
	c0.012-0.467-0.089-0.859-0.272-1.294c-0.183-0.436-0.477-0.739-0.29-1.215c0.201-0.511,0.895-0.467,1.37-0.487
	c0.191-0.422-0.122-0.837,0.489-1.059c0.278-0.101,0.647,0.014,0.948-0.037c0.254-0.044,0.512-0.175,0.726-0.319
	c0.236-0.158,0.45-0.299,0.77-0.141c0.165,0.082,0.192,0.239,0.374,0.222c0.103-0.009,0.233-0.134,0.314-0.193
	c0.32-0.23,0.526-0.5,0.789-0.765c0.231-0.233,0.624-0.25,0.923-0.373c0.808-0.334,1.126-1.034,1.126-1.883
	c0-0.464-0.013-0.814,0.264-1.21c0.229-0.327,0.675-0.485,0.86-0.822c0.144-0.263,0.144-0.639,0.244-0.929
	c0.068-0.197,0.031-0.212,0.308-0.312c0.136-0.049,0.283-0.082,0.426-0.104c0.314-0.048,0.497,0.041,0.715-0.237
	c0.196-0.25,0.317-0.566,0.45-0.851c0.383-0.818,0.392-1.626,0.453-2.509c0.038-0.552,0.339-0.973,0.397-1.519
	C195.692,70.939,195.663,70.302,195.381,69.856z"/>
</svg>
