<?xml version="1.0" encoding="utf-8"?>
<!-- Generator: Adobe Illustrator 26.0.3, SVG Export Plug-In . SVG Version: 6.00 Build 0)  -->
<svg version="1.1" id="Isolation_Mode" xmlns="http://www.w3.org/2000/svg" xmlns:xlink="http://www.w3.org/1999/xlink" x="0px"
	 y="0px" viewBox="0 0 200 200" enable-background="new 0 0 200 200" xml:space="preserve">
<g>
	<path fill="#1E8346" d="M152.662,49.448c-0.053-0.26-0.171-0.284-0.108-0.54c0.053-0.214,0.085-0.249-0.05-0.457
		c-0.281-0.433-0.492-0.889-0.858-1.274c-0.37-0.389-0.754-0.678-0.869-1.225c-0.045-0.212-0.077-0.415-0.194-0.599
		c-0.097-0.153-0.215-0.269-0.294-0.436c-0.175-0.368-0.33-0.718-0.401-1.124c-0.069-0.396-0.198-0.712-0.328-1.082
		c-0.104-0.296-0.148-0.624-0.161-0.935c-0.011-0.279-0.003-0.703-0.244-0.865c-0.254-0.171-0.262-0.663-0.288-0.941
		c-0.012-0.122-0.058-0.29-0.026-0.412c0.031-0.117,0.149-0.194,0.178-0.311c0.061-0.245-0.137-0.468-0.193-0.692
		c-0.066-0.264-0.033-0.593,0.021-0.855c0.103-0.503,0.114-0.946,0.058-1.467c-0.044-0.412-0.438-0.523-0.485-0.921
		c-0.052-0.44,0.044-0.964,0.09-1.401c0.039-0.375,0.126-0.766-0.084-1.084c-0.084-0.127-0.143-0.173-0.161-0.365
		c-0.02-0.215,0-0.441,0-0.656c0-0.399-0.001-0.802,0.027-1.198c0.044-0.603-0.106-1.116-0.027-1.695
		c0.024-0.176-0.195-0.226-0.31-0.32c-0.123-0.1-0.269-0.251-0.325-0.4c-0.111-0.298,0.009-0.671-0.029-0.982
		c-0.038-0.305-0.319-0.488-0.376-0.774c-0.068-0.34-0.035-0.477-0.255-0.776c-0.214-0.292-0.128-0.512-0.223-0.83
		c-0.075-0.248-0.189-0.384-0.192-0.657c-0.002-0.231,0.033-0.52-0.043-0.741c-0.069-0.202-0.223-0.406-0.336-0.582
		c-0.138-0.214-0.293-0.419-0.361-0.665c-0.051-0.184-0.037-0.385-0.099-0.568c-0.056-0.167-0.205-0.279-0.252-0.447
		c-0.044-0.158,0.002-0.341,0.001-0.508c-0.001-0.382,0.115-0.807,0.025-1.181c-0.078-0.326-0.359-0.535-0.47-0.829
		c-0.048-0.127-0.018-0.274-0.066-0.401c-0.054-0.141-0.158-0.18-0.277-0.272c-0.136-0.104-0.192-0.409-0.323-0.466
		c-0.105-0.195,0.203-0.298,0.119-0.512c-0.071-0.182-0.64-0.163-0.781-0.41c-0.103-0.179-0.079-0.438-0.179-0.637
		c-0.119-0.238-0.364-0.412-0.563-0.582c-0.113-0.097-0.389-0.337-0.566-0.229c-0.122,0.074-0.062,0.517-0.301,0.464
		c-0.19-0.042-0.226-0.54-0.262-0.69c-0.053-0.225-0.133-0.337-0.273-0.507c-0.123-0.15-0.283-0.412-0.459-0.494
		c-0.117-0.054-0.47,0.008-0.513-0.202c-0.065-0.314,0.634-0.21,0.552-0.526c-0.047-0.183-0.392-0.282-0.463-0.497
		c-0.075-0.228,0.123-0.335,0.18-0.541c0.052-0.187,0.015-0.344-0.032-0.52c-0.143-0.535-0.314-0.976-0.639-1.429
		c-0.112-0.157-0.246-0.312-0.447-0.351c-0.214-0.041-0.387,0.096-0.596,0.107c-0.016-0.163-0.147-0.215-0.245-0.326
		c-0.112-0.127-0.144-0.249-0.17-0.408c-0.05-0.295-0.289-0.979-0.689-0.976c-0.218,0.001-0.002,0.313-0.074,0.509
		c-0.041,0.115-0.278,0.411-0.413,0.402c-0.143-0.01-0.18-0.247-0.257-0.336c-0.295-0.346-0.536,0.159-0.879,0.218
		c-0.339,0.058-0.468,0.016-0.493-0.292c-0.031-0.38,0.213-0.524,0.37-0.86c0.087-0.186,0.027-0.564,0.186-0.686
		c0.132,0.059,0.198,0.199,0.348,0.251c0.256,0.089,0.37-0.161,0.605-0.142c0.202,0.017,0.317,0.338,0.531,0.288
		c0.171-0.482,0.121-1.238-0.198-1.633c-0.132-0.164-0.269-0.295-0.355-0.497c-0.055-0.13-0.11-0.435-0.222-0.49
		c-0.356-0.175-0.626-0.888-1.035-0.563c-0.176,0.14-0.148,0.265-0.249,0.469c-0.08,0.165-0.275,0.311-0.317,0.469
		c-0.094,0.353,0.303,0.673,0.351,1.019c0.07,0.515-0.348,0.655-0.584,1.049c-0.227,0.378-0.581,0.596-0.691,1.034
		c-0.026,0.104-0.019,0.394-0.083,0.47c-0.116,0.137-0.458,0.152-0.623,0.197c-0.281,0.076-0.263,0.158-0.488,0.296
		c-0.119,0.074-0.273,0.038-0.396,0.138c-0.204,0.166-0.099,0.315-0.182,0.526c-0.089,0.227-0.26,0.283-0.398,0.461
		c-0.208,0.267-0.061,1.054-0.325,1.182c-0.287,0.139-0.658-0.529-0.781-0.711c-0.269-0.398-0.355-0.578-0.873-0.593
		c-0.271-0.008-0.261-0.055-0.488,0.169c-0.122,0.12-0.147,0.297-0.363,0.292c0.243,0.352,0.679,0.478,0.924,0.836
		c0.113,0.166,0.226,0.641,0.376,0.732c0.182,0.112,0.44-0.113,0.663-0.095c0.052,0.441-0.434,0.523-0.371,0.94
		c0.071,0.469,0.484,0.824,0.631,1.246c0.109,0.31-0.033,0.738,0.161,1.017c0.052,0.075,0.223,0.095,0.301,0.2
		c0.078,0.104,0.094,0.335,0.108,0.462c0.077,0.691-0.204,1.237-0.469,1.831c-0.241,0.54-0.61,0.961-0.985,1.414
		c-0.245,0.296-0.314,0.37-0.313,0.78c0.001,0.302-0.092,0.538-0.083,0.84c0.011,0.36,0.046,0.689,0.018,1.05
		c-0.027,0.347-0.298,0.539-0.362,0.865c-0.052,0.264,0.102,0.548-0.077,0.762c-0.174,0.207-0.556,0.395-0.785,0.532
		c-0.551,0.329-1.171,0.316-1.776,0.16c-0.373-0.096-0.609-0.281-0.91-0.511c-0.137-0.105-0.433-0.388-0.623-0.338
		c0.081,0.152,0.208,0.283,0.288,0.434c0.068,0.129,0.048,0.193,0.043,0.334c-0.01,0.29,0.104,0.482,0.255,0.711
		c0.101,0.153,0.201,0.532,0.106,0.705c-0.148,0.268-0.407-0.025-0.588-0.019c-0.166,0.005-0.199,0.193-0.315,0.273
		c-0.086,0.058-0.179,0.048-0.271,0.087c-0.179,0.076-0.21,0.218-0.332,0.355c-0.116,0.13-0.262,0.127-0.414,0.192
		c-0.194,0.083-0.32,0.276-0.429,0.452c-0.2,0.321-0.205,0.677-0.232,1.043c-0.027,0.375-0.176,0.676-0.271,1.031
		c-0.069,0.259,0.024,0.55-0.305,0.599c-0.414,0.061-0.9-0.375-1.118-0.683c-0.083-0.117-0.151-0.228-0.184-0.371
		c-0.017-0.073,0.008-0.224-0.021-0.277c-0.053-0.096-0.192-0.079-0.228-0.189c-0.048-0.145,0.107-0.285,0.081-0.438
		c-0.024-0.144-0.143-0.256-0.167-0.413c-0.031-0.198,0.023-0.481-0.114-0.653c-0.175-0.219-0.505-0.05-0.751-0.244
		c-0.251-0.198-0.141-0.843-0.608-0.759c-0.257,0.046-0.339,0.829-0.686,0.669c-0.334-0.153-0.012-0.653,0.005-0.872
		c-0.115,0.032-0.403,0.191-0.435,0.304c-0.045,0.157,0.125,0.294,0.078,0.463c-0.094,0.338-0.63,0.142-0.887,0.2
		c-0.06,0.498,0.095,1.129-0.142,1.599c-0.297,0.589-0.194,0.995-0.056,1.619c0.124,0.562,0.249,1.013,0.813,1.236
		c0.237,0.093,0.5,0.067,0.671,0.251c0.119,0.129,0.234,0.464,0.193,0.62c-0.249,0.028-0.311,0.114-0.502,0.214
		c-0.185,0.096-0.387,0.001-0.535,0.207c0.372,0.367,0.84,0.759,1.381,0.755c0.441,0.392,0.076,1.381-0.089,1.8
		c-0.135,0.343-0.131,0.609-0.199,0.967c-0.052,0.272-0.138,0.785-0.382,0.98c-0.625-0.539,0.079-1.547,0.049-2.277
		c-0.006-0.14,0.017-0.324-0.078-0.443c-0.089-0.112-0.189-0.024-0.276-0.09c-0.199-0.151-0.426-0.339-0.705-0.371
		c0.293,0.462,0.887,1.204,0.505,1.772c-0.299,0.445-0.948,0.384-1.369,0.219c-0.312-0.123-0.386-0.379-0.742,0.041
		c-0.216,0.256-0.11,0.451-0.264,0.746c-0.172,0.33-0.589,0.466-0.766,0.77c-0.207,0.355-0.013,0.894,0.102,1.252
		c0.16,0.497,0.211,0.853,0.256,1.365c0.056,0.643,0.21,0.914-0.097,1.491c-0.355,0.668-1.001,1.016-1.23,1.72
		c-0.146,0.448-0.292,0.478-0.594,0.806c-0.351,0.381-0.375,0.984-0.597,1.443c-0.49,1.014-0.576,1.999-1.904,2.258
		c0.096-0.694-0.233-1.489,0.056-2.127c0.265-0.585,1.345-1.088,1.304-1.784c-0.012-0.21-0.14-0.286-0.179-0.477
		c-0.047-0.23,0.026-0.476,0.045-0.696c0.057-0.64-0.298-0.611-0.484-1.197c-0.448,0.208-0.881,0.754-1.204,1.119
		c-0.399,0.451-0.74,1.092-0.789,1.7c0.397,0.002,0.62-0.197,1.021-0.014c-0.06,0.376-0.235,0.482-0.524,0.62
		c-0.195,0.093-0.461,0.09-0.64,0.205c-0.186,0.12-0.22,0.309-0.357,0.451c-0.25,0.26-0.561,0.373-0.777,0.682
		c-0.224,0.32-0.352,0.633-0.673,0.909c-0.628,0.54-1.715,0.844-1.437,1.918c0.111,0.431,0.721,0.696,0.718,1.128
		c0.141-0.094,0.314-0.154,0.487-0.179c-0.016,0.402-0.008,0.734,0.148,1.074c0.113,0.246,0.645,0.783,0.465,1.034
		c-0.22,0.308-0.978-0.006-1.298,0.088c-0.605,0.177-0.784,0.678-1.507,0.419c0.149-0.382,0.211-0.663,0.427-1
		c0.14-0.22,0.821-0.843,0.72-1.128c-0.099-0.279-0.848-0.396-1.062-0.585c-0.399-0.354-0.073-0.686-0.341-1.104
		c-0.882,0.267-1.461,0.908-2.194,1.427c-0.705,0.499-1.413,0.973-2.104,1.483c-0.347,0.256-0.665,0.578-1.031,0.815
		c-0.295,0.191-0.631,0.32-0.907,0.555c-0.249,0.212-0.336,0.466-0.567,0.702c-0.245,0.251-0.808,0.572-1.111,0.752
		c-0.209,0.574-0.608,0.814-0.464,1.423c0.053,0.228,0.206,0.42,0.157,0.668c-0.045,0.231-0.174,0.229-0.251,0.42
		c-0.304,0.758,0.581,0.311,1.053,0.766c0.267,0.258,0.104,0.577,0.221,0.871c0.107,0.269,0.37,0.372,0.502,0.629
		c-0.524,0.202-1.514,0.16-1.845-0.228c-0.315-0.37-0.551-1.159-0.773-1.615c-0.272-0.557-0.224-1.085-0.336-1.685
		c-0.702-0.071-1.534,0.047-2.127,0.436c-0.196,0.13-0.879,0.937-0.192,0.762c0.057,0.194-0.036,0.382-0.196,0.495
		c0.175,0.096,0.339,0.248,0.306,0.449c-0.212-0.065-0.371-0.232-0.589-0.284c-0.188-0.045-0.441,0.146-0.619-0.024
		c-0.223-0.214-0.177-1.122-0.613-1.26c-0.303-0.096-0.972,0.797-1.308,0.884c-0.569,0.148-1.203-0.425-1.79-0.313
		c-0.39,0.074-0.957,0.52-0.994,0.937c-0.009,0.101,0.121,0.385,0.126,0.531c0.007,0.198-0.009,0.409-0.063,0.601
		c-0.063,0.22-0.228,0.39-0.208,0.636c0.022,0.267,0.36,0.46,0.326,0.699c-0.067,0.477-0.489-0.07-0.798-0.04
		c0.002-0.336,0.26-0.66,0.125-1.008c-0.963-0.021-1.919,0.278-2.887,0.275c-0.034,0.535,0.605,0.758,0.216,1.128
		c-0.248,0.236-0.524,0.223-0.757,0.523c-0.155,0.199-0.223,0.559-0.526,0.51c-0.015-0.493,0.179-1.082,0.129-1.539
		c-0.023-0.211-0.184-0.333-0.227-0.553c-0.04-0.204,0.052-0.562,0.051-0.782c-1.127,0.142-1.578,1.085-2.448,1.671
		c-0.427,0.288-0.765,0.671-1.197,0.957c-0.438,0.29-0.531,0.366-0.534,0.874c-0.529,0.031-0.797-0.135-1.197,0.272
		c-0.182,0.184-0.202,0.402-0.492,0.399c-0.221-0.002-0.374-0.112-0.36-0.352c-0.877-0.044-1.71-0.188-2.581-0.237
		c-0.373-0.022-0.766-0.015-1.132-0.067c-0.193-0.028-0.603-0.223-0.807-0.094c-0.207,0.131-0.292,0.75-0.352,0.961
		c-0.079,0.277-0.235,0.539-0.312,0.806c-0.2,0.697,0.19,1.34,0.448,1.961c0.13,0.313,0.252,0.673,0.17,1.02
		c-0.069,0.295-0.337,0.492-0.397,0.778c-0.109,0.514,0.41,0.88,0.216,1.411c-0.333,0.913-1.453,1.568-1.943,2.433
		c-0.437,0.77-0.753,1.708-1.347,2.355c-0.396,0.431-0.674,0.943-1.002,1.419c-0.244,0.355-0.294,0.65-0.475,1.038
		c-0.353,0.755-0.871,1.521-1.277,2.265c-0.492,0.901-0.98,1.766-0.725,2.805c0.197,0.803,0.694,1.444,1.09,2.148
		c0.669,1.191-0.281,2.455-0.234,3.702c0.047,1.246,0.738,2.436,0.614,3.687c-0.089,0.898-0.19,1.783,0.143,2.665
		c0.332,0.878,1.127,1.6,1.567,2.443c0.424,0.813,1.156,1.961,1.057,2.898c-0.043,0.41-0.273,0.636-0.271,1.013
		c0.002,0.323,0.106,0.66,0.09,1.003c-0.039,0.834-0.205,1.227,0.199,2.01c0.294,0.57,0.484,1.081,0.858,1.608
		c0.397,0.559,0.971,1.139,1.236,1.761c0.392,0.924,1.074,1.755,0.603,2.815c-0.149,0.336-0.676,0.596-0.72,0.935
		c-0.031,0.243,0.237,0.34,0.26,0.495c0.029,0.189-0.033,0.472-0.082,0.659c-0.048,0.183,0.014,0.426-0.045,0.594
		c-0.043,0.12-0.198,0.176-0.234,0.288c-0.095,0.29-0.054,0.488,0.125,0.709c0.317,0.393,0.611,0.502,0.831,1.003
		c0.144,0.326,0.309,0.615,0.242,0.927c-0.062,0.286-0.341,0.554-0.385,0.883c-0.042,0.309,0.06,0.47-0.156,0.722
		c-0.211,0.246-0.598,0.291-0.839,0.516c-0.335,0.311-0.614,0.88-0.804,1.288c-0.104,0.223-0.148,0.493-0.271,0.71
		c-0.11,0.196-0.331,0.32-0.438,0.493c-0.282,0.454-0.117,1.07-0.355,1.506c-0.193,0.352-0.781,0.521-1.087,0.754
		c-0.653,0.497-0.827,1.458-1.029,2.226c-0.219,0.835-0.714,1.306-1.28,1.907c-0.54,0.573-0.934,1.095-1.126,1.878
		c-0.176,0.71-0.276,1.44-0.534,2.122c-0.372,0.983,0.091,2.59-1.011,3.068c-0.488,0.212-0.994,0.225-1.518,0.267
		c-0.541,0.043-0.969,0.221-1.484,0.353c-0.965,0.246-1.446,1.966-1.275,2.837c0.108,0.553,0.199,1.09,0.145,1.663
		c-0.065,0.681-0.514,0.854-0.903,1.341c-0.395,0.496-0.635,1.046-0.751,1.658c-0.116,0.608-0.227,0.987-0.783,0.735
		c-0.063,1.02-0.632,1.918-0.715,2.917c-0.029,0.354-0.07,0.869,0.042,1.206c0.169,0.509,0.324,0.218,0.72,0.286
		c0.204,0.035,0.138-0.117,0.258,0.115c0.03,0.057,0.014,0.339-0.005,0.398c-0.143,0.415-0.081,0.173-0.396,0.209
		c-0.636,0.071-0.713,0.233-0.62,0.9c0.146,1.062,0.578,1.958,0.576,3.058c-0.002,1.04,0.58,1.838,0.88,2.797
		c0.154,0.493,0.051,1.023,0.142,1.521c0.078,0.421,0.316,0.992,0.534,1.245c0.436,0.51,0.75,1.058,1.242,1.529
		c0.277,0.266,0.564,0.423,0.825,0.717c0.422,0.476,0.617,1.175,0.786,1.783c0.168,0.604,0.018,1.263,0.155,1.883
		c0.204,0.924,1.036,1.172,1.474,1.969c0.083,0.152,0.302,0.405,0.311,0.586c0.011,0.222-0.199,0.369-0.255,0.578
		c-0.131,0.491,0.099,0.69-0.404,0.964c-0.373,0.203-0.638,0.102-0.757,0.516c-0.115,0.399-0.075,0.981-0.138,1.407
		c-0.112,0.756,0.202,1.506,0.274,2.253c0.161,1.662,0.132,3.355,0.132,5.033c0,0.694,0.063,1.321,0.326,1.953
		c0.218,0.523,0.538,1.545,0.941,1.917c0.632,0.583,1.358,1.176,1.89,1.853c0.337,0.429,0.33,0.717,0.256,1.264
		c-0.085,0.621,0.013,1.328,0.423,1.853c0.283,0.363,0.652,0.381,0.741,0.861c0.065,0.347-0.017,0.756,0,1.11
		c0.024,0.54,0.484,1.136,0.935,1.474c0.34,0.256,0.18,0.06,0.573-0.001c0.261-0.04,0.364,0.001,0.619,0.137
		c0.673,0.359,1.193,0.936,1.741,1.456c0.509,0.481,0.351,0.629,0.521,1.194c0.115,0.384,0.798,0.32,1.256,0.387
		c0.656,0.096,1.307,0.263,1.968,0.356c1.308,0.184,2.303,0.363,3.448,1.026c0.4,0.231,0.731,0.369,0.98,0.777
		c0.161,0.265,0.246,0.654,0.512,0.841c0.34,0.238,0.961,0.339,1.355,0.484c0.506,0.185,0.604,0.29,0.876,0.718
		c0.5,0.785,0.915,0.588,1.693,0.381c0.694-0.185,1.55-0.347,2.273-0.202c0.944-0.177,1.723-0.088,2.586-0.578
		c0.909-0.515,1.52-1.246,2.311-1.912c0.464-0.39,0.903-0.842,1.469-1.073c0.685-0.278,1.396-0.455,2.078-0.749
		c0.625-0.27,1.26-0.477,1.878-0.766c0.583-0.273,1.194-0.516,1.813-0.686c1.479-0.407,2.845,0.104,4.334,0.121
		c0.713,0.008,0.885-0.427,1.459-0.771c0.684-0.41,1.465-0.503,2.038-1.108c0.489-0.517,0.762-0.845,1.422-1.189
		c0.789-0.411,0.689-0.648,0.984-1.403c0.184-0.469,0.568-0.862,0.771-1.32c0.176-0.397,0.11-0.846,0.273-1.251
		c0.207-0.513,0.51-0.972,0.71-1.495c0.257-0.673,0.587-1.412,0.67-2.128c0.06-0.516,0.046-0.984,0.266-1.468
		c0.321-0.708,0.518-1.448,0.831-2.166c0.276-0.633,0.586-1.251,0.9-1.873c0.268-0.532,0.481-1.252,0.934-1.646
		c0.259-0.899,0.496-1.805,0.722-2.715c0.15-0.602,0.421-1.126,0.475-1.74c0.054-0.618,0.096-1.051,0.27-1.633
		c0.447-1.49,0.92-2.899,1.144-4.43c0.233-1.595,1.006-3.055,1.308-4.644c0.222-1.163,0.257-2.359,0.523-3.5
		c0.109-0.473,0.082-0.961,0.189-1.433c0.11-0.484,0.232-0.994,0.345-1.5c0.221-0.981,0.537-2.002,0.92-2.932
		c0.43-1.042,0.735-2.105,1.143-3.158c0.707-1.826,1.628-3.61,2.283-5.464c0.56-1.583,0.6-3.352,1.171-4.909
		c0.633-1.727,1.445-3.741,1.727-5.621c0.259-1.729,0.901-3.361,1.377-5.033c0.364-1.281,0.69-2.53,1.17-3.763
		c0.495-1.273,1.131-2.485,1.689-3.733c0.446-0.998,0.743-1.863,0.74-2.968c-0.002-0.819,0.441-1.673,0.389-2.465
		c-0.036-0.546,0.305-0.987,0.466-1.483c0.235-0.724,0.526-1.443,0.716-2.172c0.171-0.658,0.635-1.078,0.72-1.78
		c0.062-0.513,0.284-0.924,0.413-1.427c0.159-0.619,0.24-1.242,0.508-1.832c0.302-0.664,0.638-1.315,0.992-1.954
		c0.304-0.55,0.277-1.107,0.484-1.686c0.216-0.606,0.543-1.192,0.759-1.794c0.243-0.679,0.635-1.234,0.553-1.99
		c0.25-0.366,0.581-0.695,0.71-1.125c0.137-0.457,0.095-0.971,0.266-1.407c0.136-0.347,0.24-0.657,0.263-1.034
		c0.022-0.353,0.213-0.539,0.315-0.868c0.221-0.712,0.001-1.498,0.113-2.231c0.054-0.35,0.324-0.697,0.455-1.031
		c0.117-0.296,0.204-0.607,0.301-0.909c0.159-0.495,0.42-0.94,0.42-1.458c0-0.633-0.036-1.252-0.068-1.879
		c-0.016-0.304,0.011-0.575-0.069-0.873c-0.072-0.268-0.185-0.522-0.267-0.786c-0.13-0.415-0.191-0.85-0.3-1.274
		c-0.084-0.329-0.362-0.565-0.407-0.902c-0.056-0.421,0.206-1.042,0.334-1.443c0.119-0.372,0.375-0.656,0.533-1.008
		c0.18-0.401,0.472-0.76,0.611-1.18c0.085-0.256,0.068-0.543,0.193-0.796c0.247-0.501,0.727-0.811,0.706-1.434
		c0.135-0.037,0.321-0.355,0.439-0.482c0.193-0.207,0.348-0.347,0.64-0.407c0.369-0.076,0.757,0.008,1.123-0.06
		c0.334-0.062,0.279-0.296,0.171-0.581c-0.138-0.364-0.42-0.747-0.474-1.138c-0.046-0.327,0.389-0.684,0.585-0.932
		c0.652-0.823,0.846-1.744,1.034-2.736c0.089-0.467-0.24-0.351-0.364-0.683c-0.117-0.315-0.131-0.907-0.089-1.242
		c0.083-0.656,0.604-1.274,0.246-1.937c-0.132-0.075-0.139-0.271-0.25-0.35c-0.226-0.161-0.668,0.016-0.919-0.093
		c-0.269-0.117-0.352-0.409-0.494-0.643c-0.15-0.246-0.386-0.482-0.425-0.774c-0.044-0.332-0.03-0.701,0.198-0.951
		c0.298-0.326,0.531-0.66,0.399-1.127c-0.17-0.604-0.451-1.208-0.653-1.807c-0.083-0.246-0.136-0.498-0.248-0.735
		c-0.117-0.248-0.23-0.446-0.252-0.723c-0.02-0.252,0.017-0.507-0.012-0.76c-0.026-0.232-0.138-0.368-0.234-0.57
		c-0.204-0.428,0.111-0.829,0.411-1.136c0.201-0.206,0.439-0.495,0.721-0.586c0.242-0.078,0.559-0.091,0.812-0.142
		c0.43-0.087,0.957-0.027,1.352-0.221c0.257,0.296,0.221,0.714,0.205,1.075c-0.011,0.238-0.039,0.517,0.041,0.749
		c0.076,0.221,0.273,0.391,0.395,0.585c0.306,0.49,0.378,0.991,0.357,1.557c-0.011,0.299-0.005,0.351,0.21,0.543
		c0.222,0.198,0.396,0.417,0.485,0.702c0.107,0.345,0.089,0.753,0.297,1.061c0.194,0.288,0.587,0.512,0.9,0.641
		c0.311,0.128,0.606,0.189,0.802,0.483c0.066,0.098,0.093,0.256,0.194,0.332c0.148,0.111,0.437,0.08,0.618,0.019
		c0.326-0.109,0.15-0.264,0.217-0.528c0.05-0.197,0.236-0.472,0.375-0.616c0.143-0.147,0.413-0.196,0.513-0.363
		c0.094-0.156,0.114-0.4,0.192-0.569c0.158-0.344,0.182-0.723,0.322-1.076c0.17-0.429,0.414-0.859,0.632-1.264
		c0.18-0.333,0.395-0.665,0.505-1.025c0.112-0.367,0.324-0.7,0.308-1.089c-0.012-0.289,0.157-0.512,0.124-0.782
		c-0.035-0.283,0.007-0.307,0.083-0.573c0.049-0.174,0.026-0.382,0.038-0.561c0.013-0.208,0.064-0.383,0.102-0.585
		C152.681,50.074,152.712,49.692,152.662,49.448z"/>
	<path fill="#1E8346" d="M114.648,40.135c0.125-0.047,0.181-0.285,0.198-0.402c0.025-0.17,0.066-0.448-0.067-0.576
		c-0.13-0.125-0.153-0.012-0.382,0.034c0.009,0.165-0.015,0.332-0.022,0.496c-0.003,0.084-0.041,0.238-0.008,0.32
		C114.405,40.099,114.554,40.17,114.648,40.135z"/>
	<path fill="#1E8346" d="M123.25,24.002c0.329,0.053,0.514-0.039,0.784,0.162c0.158,0.117,0.347,0.29,0.439,0.042
		c0.158-0.425-0.249-0.793-0.156-1.18c0.083-0.348,0.185-0.526-0.144-0.816c-0.141-0.125-0.154-0.087-0.188-0.288
		c-0.027-0.157-0.06-0.354-0.044-0.516c0.081-0.54-0.405-0.206-0.573-0.071c-0.2,0.162-0.125,0.315-0.204,0.518
		c-0.113,0.287-0.381,0.282-0.642,0.285c-0.096,0.417-0.275,0.807-0.109,1.247C122.533,23.708,122.922,23.949,123.25,24.002z"/>
	<path fill="#1E8346" d="M117.596,26.959c0.195,0.103,0.353,0.138,0.298-0.152c-0.036-0.191-0.206-0.277-0.376-0.47
		c-0.106-0.011-0.159,0.203-0.167,0.288C117.337,26.792,117.461,26.888,117.596,26.959z"/>
	<path fill="#1E8346" d="M127.872,17.468c0.291-0.282,0.61-0.82,0.41-1.236c-0.043,0.14-0.186,0.212-0.264,0.329
		c-0.077,0.116-0.124,0.272-0.168,0.4c0-0.034-0.044,0.003-0.055,0.051c-0.152-0.061-0.357-0.229-0.526-0.179
		C127.196,17.116,127.621,17.714,127.872,17.468z"/>
	<path fill="#1E8346" d="M117.586,32.827c0.438-0.095-0.154-0.725-0.278-0.858c-0.138,0.055-0.248,0.003-0.29,0.149
		c-0.023,0.079,0.023,0.223,0.053,0.295C117.139,32.58,117.388,32.87,117.586,32.827z"/>
	<path fill="#1E8346" d="M146.313,69.461c-0.119,0.115-0.132,0.334-0.206,0.474c-0.06,0.115-0.156,0.2-0.229,0.305
		c-0.196,0.283-0.325,0.607-0.512,0.885c-0.179,0.266-0.44,0.452-0.603,0.734c-0.264,0.456-0.318,0.982-0.318,1.511
		c-0.216,0.313-0.832,1.053-0.421,1.403c0.199-0.301,0.327-0.636,0.51-0.958c0.214-0.375,0.525-0.658,0.732-1.033
		c0.267-0.482,0.432-1.008,0.699-1.483c0.255-0.453,0.463-0.865,0.614-1.363c0.026-0.088,0.217-0.491,0.089-0.58
		C146.594,69.303,146.367,69.409,146.313,69.461z"/>
</g>
</svg>
