<?xml version="1.0" encoding="utf-8"?>
<!-- Generator: Adobe Illustrator 26.0.3, SVG Export Plug-In . SVG Version: 6.00 Build 0)  -->
<svg version="1.1" id="Isolation_Mode" xmlns="http://www.w3.org/2000/svg" xmlns:xlink="http://www.w3.org/1999/xlink" x="0px"
	 y="0px" viewBox="0 0 200 200" enable-background="new 0 0 200 200" xml:space="preserve">
<path fill="#1E8346" d="M89.792,10.128l67.462,47.415c0.129,0.314,0.17,0.786,0.198,1.124c0.032,0.397-0.013,0.801-0.013,1.198
	c0,0.412-0.015,0.821-0.051,1.231c-0.021,0.243-0.084,0.487-0.088,0.731c-0.004,0.232,0.09,0.231,0.304,0.232
	c0.219,0.001,0.435-0.016,0.654-0.015c0.305,0,0.565-0.176,0.779,0.092c0.203,0.253,0.346,0.508,0.497,0.791
	c0.583,0.288,1.258,0.395,1.877,0.584c0.35,0.107,0.697,0.389,0.973,0.624c0.153,0.13,0.412,0.292,0.447,0.498
	c0.034,0.202,0,0.439,0,0.644c0,0.206,0.019,0.409,0.03,0.615c0.021,0.377,0.375,0.486,0.677,0.641
	c0.207,0.106,0.443,0.194,0.575,0.398c0.061,0.095,0.08,0.241,0.17,0.306c0.298,0,0.609,0.024,0.904-0.017
	c-0.004,0.216-0.006,0.507,0.098,0.701c0.095,0.177,0.36,0.223,0.529,0.1c0.196-0.144,0.194-0.506,0.479-0.329
	c0.144,0.09,0.251,0.236,0.421,0.18c0.145-0.047,0.216-0.311,0.373-0.295c0.114,0.011,0.267,0.224,0.369,0.281
	c0.244,0.136,0.439,0.108,0.655-0.055c0.177-0.134,0.175-0.072,0.378-0.104c0.35-0.055,0.133-0.543,0.373-0.646
	c0.116-0.049,0.366,0.056,0.472,0.105c0.155,0.072,0.305,0.135,0.433,0.254c0.237,0.22,0.281,0.568,0.523,0.767
	c0.222,0.184,0.296,0.423,0.506,0.62c0.234,0.219,0.249,0.331,0.154,0.641c-0.108,0.353-0.299,0.752-0.213,1.126
	c0.079-0.105,0.14-0.235,0.226-0.332c0.105-0.117,0.243-0.162,0.377-0.24c0.222-0.129,0.426-0.237,0.693-0.231
	c0.214,0.005,0.473,0.07,0.656,0.177c0.148,0.087,0.191,0.221,0.28,0.364c0.07,0.112,0.126,0.199,0.271,0.133
	c0.067-0.03,0.107-0.107,0.177-0.137c0.109-0.046,0.259-0.043,0.375-0.074c0.158-0.043,0.284-0.089,0.373-0.224
	c0.06-0.093,0.075-0.194,0.177-0.252c0.014,0.031,0.021,0.04,0.034,0.07c0.109,0.239,0.09,0.516,0.205,0.758
	c0.174,0.368,0.392,0.412,0.758,0.535c0.185,0.061,0.339,0.167,0.527,0.207c0.267,0.057,0.56,0.076,0.833,0.093
	c0.502,0.031,0.929,0.071,1.357,0.33c0.29,0.176,0.598,0.325,0.899,0.483c0.259,0.136,0.519,0.331,0.801,0.391
	c0.38,0.081,0.97,0.021,0.948,0.566c-0.019,0.473-0.345,0.854-0.304,1.333c0.028,0.325,0.278,0.624,0.135,0.95
	c-0.058,0.133-0.203,0.233-0.139,0.404c0.048,0.128,0.233,0.204,0.294,0.341c0.049,0.111,0.069,0.336,0.005,0.453
	c-0.07,0.127-0.21,0.111-0.181,0.272c0.03,0.172,0.307,0.273,0.183,0.453c-0.062,0.09-0.235,0.086-0.325,0.12
	c-0.228,0.086-0.252,0.242-0.397,0.438c-0.125,0.167-0.239,0.404-0.186,0.616c0.036,0.142,0.154,0.24,0.2,0.38
	c0.083,0.252,0.003,0.511-0.153,0.706c-0.17,0.213-0.342,0.432-0.522,0.636c-0.102,0.116-0.167,0.191-0.16,0.349
	c0.01,0.212,0.033,0.398,0.01,0.61l2.712,1.849l10.078-2.003v25.271h-0.57l-0.2,7.15l-1.109,0.74l-1.248,2.774v1.618
	c-0.312,0.525-0.66,0.984-0.758,1.602c-0.088,0.55-0.134,1.001-0.611,1.351c-0.437,0.32-0.872,0.531-1.42,0.583
	c-0.295,0.028-0.4,0.083-0.583,0.298c-0.152,0.179-0.318,0.361-0.456,0.551c-0.34,0.467-0.553,1.024-1.148,1.024v1.048l-0.616,0.493
	l-5.116-0.863v1.048l-4.482-0.122l-14.903,0.8l-3.791,3.544l-3.236,0.401l-1.88-0.647l-1.418,0.401l-1.849-0.431l0.154,0.894
	l-5.486-1.818l-1.726,0.956l-0.431-1.017l-3.236,0.031l-3.667,3.359l-3.02,0.74l-3.791,2.558l-3.606,0.401l-0.246,3.328
	l-1.202,0.493l-2.065-1.14l-1.972-0.647c-0.207,0.226-0.578,0.351-0.847,0.528c-0.261,0.172-0.459,0.446-0.694,0.644
	c-0.528,0.445-1.123,0.619-1.724,0.933c-0.285,0.149-0.616,0.27-0.835,0.515c-0.299,0.335-0.133,0.436-0.026,0.779
	c0.118,0.377-0.181,0.911-0.343,1.27c-0.105,0.235-0.294,0.466-0.341,0.717c-0.033,0.176,0.002,0.394,0.002,0.575
	c0,0.267-0.025,0.547,0.048,0.805c0.057,0.201,0.314,0.468,0.138,0.658c-0.046,0.049-0.529,0.175-0.607,0.162
	c-0.221-0.037-0.209-0.273-0.543-0.253c-0.369,0.022-0.504,0.565-0.776,0.325c-0.125-0.11-0.157-0.37-0.314-0.476
	c-0.225-0.151-0.377-0.057-0.601-0.037c-0.433,0.039-0.568-0.049-0.888-0.301c-0.194-0.152-0.556-0.319-0.614,0.087
	c0.332,0.081,0.26,0.92,0.213,1.194c-0.034,0.203-0.139,0.265-0.185,0.446c-0.045,0.178-0.003,0.44,0.027,0.613
	c0.137,0.812,0.375,1.689,0.309,2.526c-0.786,0.002-1.423,0.02-2.216,0.033c-0.471,0.292,0.366,1.022,0.07,1.298
	c-0.176,0.164-0.779,0.13-0.989,0.075c-0.267-0.07-0.301-0.175-0.378-0.451c-0.639,0.081-0.933-0.602-1.416-0.896
	c-0.343-0.209-0.493-0.22-0.699-0.55c-0.179-0.287-0.398-0.372-0.701-0.554c-0.223-0.134-0.505-0.191-0.71-0.345
	c-0.201-0.15-0.455-0.439-0.623-0.616c-0.126-0.132-0.236-0.519-0.442-0.471c-0.138,0.033-0.286,0.489-0.408,0.6
	c-0.302,0.277-0.869,0.34-1.101,0.693c-0.143,0.218-0.051,0.497-0.172,0.725c-0.121,0.226-0.406,0.378-0.628,0.477
	c-0.333,0.149-0.962,0.215-0.792,0.701c0.096,0.273,0.379,0.447,0.023,0.704c-0.205,0.148-0.291,0.059-0.492-0.004
	c-0.394-0.124-0.828-0.024-0.675,0.518c0.114,0.403,0.591,0.74,0.777,1.129c0.166,0.347,0.464,0.536,0.512,0.902
	c0.03,0.226-0.026,0.463-0.001,0.689c0.021,0.193,0.111,0.367,0.125,0.558c0.041,0.574-0.27,1.186-0.807,1.42
	c-0.458,0.2-0.392-0.293-0.727-0.427c-0.312-0.125-0.442,0.241-0.662,0.33c-0.197,0.079-0.44-0.093-0.633,0.004
	c-0.206,0.104-0.103,0.107-0.129,0.271c-0.046,0.29,0.1,0.473,0.304,0.661c0.253,0.233,0.349,0.282,0.436,0.604
	c0.043,0.16,0.038,0.245,0.175,0.372c0.111,0.103,0.204,0.113,0.256,0.276c-0.388,0.362-0.707,0.642-0.678,1.206
	c0.026,0.508,0.329,0.774,0.503,1.223c-0.681,0.249-0.226-0.165-0.68-0.302c-0.414-0.125-0.374,0.524-0.376,0.709
	c-0.246,0.055-0.847,0.446-1.009,0.649c-0.198,0.249-0.118,0.73,0.253,0.797c-0.352,0.125-0.572,0.121-0.733,0.465
	c-0.157,0.335-0.058,0.474-0.469,0.523c-0.422,0.051-0.513,0.112-0.795,0.461c-0.13,0.161-0.152,0.298-0.349,0.277
	c-0.125-0.013-0.27-0.196-0.456-0.217c-0.336-0.038-0.693,0.086-1.028,0.119c-0.286,0.028-0.582,0.036-0.865,0.082
	c-0.571,0.092-1.235,0.154-1.733,0.472c-0.303,0.194-0.524,0.478-0.808,0.693c-0.308,0.234-0.453,0.273-0.608,0.646
	c-0.157-0.14-0.231,0.004-0.432-0.027c-0.076-0.011-0.124-0.014-0.172-0.023c-0.031-0.006-0.062-0.104-0.097-0.106
	c-0.243-0.008-0.242,0.198-0.503,0.243c-0.234,0.041-0.474-0.255-0.523,0.139c-0.064,0.506,0.461,0.281,0.7,0.252
	c0.256-0.031,0.287,0.077,0.498,0.263c0.073,0.064,0.308,0.191,0.347,0.268c0.134,0.258-0.044,0.806-0.151,1.046
	c-0.189,0.422-0.307,0.565,0.148,0.675c0.299,0.072,0.548,0.198,0.664,0.514c0.206,0.562,0.244,1.359-0.139,1.835
	c-0.263,0.327-0.37,0.378-0.37,0.823c0,0.325,0.06,0.741-0.185,0.965c-0.251,0.229-0.529,0.375-0.585,0.707
	c-0.061,0.361,0.1,0.374-0.244,0.527c-0.201,0.089-0.446,0.095-0.655,0.176c-0.263,0.101-0.872,0.318-0.977,0.602
	c-0.051,0.14,0.036,0.383-0.003,0.55c-0.037,0.156-0.155,0.31-0.149,0.462c0.151,0.079,0.313,0.135,0.484,0.124
	c0.061,0.276,0.027,0.66,0.188,0.904c0.098,0.149,0.398,0.231,0.465,0.38c0.16,0.362-0.312,0.799-0.5,1.026
	c-0.067,0.081-0.144,0.065-0.184,0.144c-0.08,0.157,0.004,0.548,0.002,0.731c-0.002,0.278-0.153,0.617-0.098,0.872
	c0.014,0.062,0.135,0.107,0.155,0.165c0.032,0.098,0.006,0.244,0.006,0.346c-0.005,0.615-0.413,1.035-0.676,1.56
	c-0.142-0.068-0.27-0.193-0.416-0.249c-0.241-0.091-0.457-0.035-0.71-0.055c-0.242-0.019-0.449-0.111-0.699-0.016
	c-0.251,0.096-0.376,0.183-0.641,0.227c-0.551,0.093-0.733,0.49-1.181,0.78c-0.242,0.156-0.342,0.158-0.394,0.449
	c-0.044,0.245,0.115,0.61-0.097,0.797c-0.162,0.142-0.41,0.027-0.598,0.076c-0.358,0.094-0.218,0.302-0.441,0.532
	c-0.335,0.345-1.258,0.103-1.651-0.049c-0.23-0.089-1.282-0.588-1-1.011c0.091-0.136,0.356-0.055,0.429-0.186
	c0.045-0.08-0.126-0.255-0.124-0.364c0.483-0.112-0.018-0.368-0.059-0.502c0.421-0.211,0.177-0.207,0.181-0.595
	c0.004-0.381,0.344-0.476-0.248-0.542c0.004-0.104,0.005-0.208,0.004-0.311c-0.144,0.021-0.29,0.006-0.402-0.089
	c0.036-0.11,0.08-0.22,0.128-0.328c0.103-0.236,0.07-0.344,0.11-0.56c0.013-0.071,0.162-0.268,0.161-0.298
	c-0.008-0.231-0.37-0.183-0.371-0.447c-0.001-0.237,0.716-0.806,0.134-0.837c-0.239-0.012-0.613,0.319-0.813,0.444
	c-0.367,0.229-0.498-0.076-0.877,0.035c-0.466,0.138-0.308,0.656-0.321,1.04c-0.008,0.251,0.039,0.342-0.221,0.446
	c-0.252,0.1-0.696-0.023-0.962-0.065c-0.412-0.065-0.719-0.147-0.972-0.47c-0.161-0.206-0.281-0.561-0.531-0.663
	c-0.147,0.167-0.447,0.68-0.411,0.884c0.042,0.239,0.275,0.269,0.201,0.589c-0.048,0.204-0.212,0.312-0.247,0.522
	c-0.072,0.431,0.247,0.311,0.454,0.568c0.23,0.285,0.012,0.427-0.061,0.673c-0.077,0.258,0.044,0.365-0.206,0.531
	c-0.599,0.4-1.053-0.446-1.598-0.327c-0.309,0.068-0.334,0.499-0.723,0.447c-0.158-0.021-0.184-0.139-0.311-0.183
	c-0.262-0.092-0.512,0.067-0.76,0.126c-0.239,0.305-0.607,0.806-0.394,1.156c0.112,0.184,0.317,0.132,0.276,0.392
	c-0.019,0.117-0.261,0.406-0.359,0.481c-0.241,0.185-0.651,0.192-0.851-0.087c-0.09-0.126-0.022-0.334-0.095-0.437
	c-0.087-0.122-0.378-0.195-0.526-0.29c-0.413-0.265-0.85-0.238-1.347-0.172c-0.219,0.029-1.299,0.494-1.362-0.058
	c-0.009-0.08,0.162-0.16,0.184-0.236c0.043-0.142,0.025-0.418-0.025-0.554c-0.137-0.365-0.427-0.286-0.705-0.104
	c-0.017-0.227-0.173-0.352-0.226-0.551c-0.05-0.189,0.153-0.591,0.088-0.725c-0.061-0.127-0.818-0.169-0.986-0.046
	c-0.128,0.095-0.158,0.362-0.222,0.5c-0.463-0.051-0.567-0.765-1.089-0.517c-0.243,0.115-0.49,0.441-0.71,0.599
	c-0.19,0.137-0.134,0.148-0.22,0.359c-0.053,0.13-0.134,0.206-0.215,0.323c-0.163,0.236-0.028,0.319-0.152,0.534
	c-0.131,0.226-0.511,0.404-0.686,0.615c-0.211,0.255-0.247,0.43-0.582,0.48c-0.216,0.032-0.334-0.025-0.501,0.152
	c-0.121,0.129-0.087,0.34-0.302,0.374c-0.241,0.039-0.379-0.207-0.363-0.41c0.025-0.31,0.331-0.473,0.275-0.817
	c-0.033-0.204-0.183-0.524-0.307-0.687c-0.381-0.503-0.868,0.096-1.16-0.39c-0.214-0.356-0.021-1.202-0.578-1.122
	c-0.347,0.05-0.881,0.652-1.136,0.343c-0.172-0.207-0.185-0.827-0.235-1.085c-0.031-0.162-0.041-0.683-0.172-0.781
	c-0.262-0.195-0.343,0.09-0.448-0.332c-0.044-0.178-0.167-0.568-0.095-0.707c0.403,0.072,0.24-0.425,0.223-0.629
	c-0.015-0.179,0.009-0.437-0.34-0.448c-0.019-0.402,0.253-0.389,0.304-0.768c0.019-0.142-0.03-0.308,0.05-0.43
	c0.04-0.06,0.379-0.239,0.452-0.283c-0.042-0.215-0.169-0.309-0.194-0.542c-0.026-0.242,0.061-0.442,0.061-0.685
	c-0.368-0.257-0.751-0.642-1.185-0.701c-0.282-0.039-0.632-0.048-0.908,0.015c-0.304,0.069-0.286,0.074-0.408,0.388
	c-0.166,0.426-0.524,0.714-0.998,0.732c-0.178,0.007-0.366-0.062-0.542-0.036c-0.202,0.029-0.356,0.194-0.568,0.202
	c0.221-0.401,0.136-0.803,0.436-1.19c0.149-0.193,0.252-0.344,0.351-0.533c0.131-0.25,0.035-0.132,0.31-0.266
	c0.234-0.114,0.139-0.012,0.244-0.221c0.086-0.172-0.031-0.523,0.069-0.648c0.114-0.144,0.609-0.166,0.799-0.219
	c-0.007-0.211-0.009-0.425-0.002-0.637c0.339,0.005,0.72-0.014,1.057-0.059c0.375-0.051,0.31-0.114,0.294-0.489
	c-0.125-0.047-0.255-0.088-0.388-0.101c-0.014-0.04-0.022-0.107-0.015-0.153c0.169-0.056,0.367-0.162,0.458-0.323
	c-0.42-0.152-0.936-0.223-1.261-0.576c-0.377,0.468-0.411-0.262-0.579-0.502c-0.129-0.184-0.009-0.187-0.219-0.157
	c-0.3,0.041-0.204,0.388-0.593,0.228c-0.183-0.076-0.565-0.307-0.628-0.495c-0.05-0.148,0.049-0.207,0.057-0.341
	c0.026-0.429-0.355-0.916-0.654-1.197c-0.142,0.148-0.329,0.32-0.529,0.374c-0.235-0.382-0.559-0.301-0.952-0.401
	c0.098-0.38,0.247-0.974,0.185-1.361c-0.061-0.374-0.21-0.385,0.036-0.747c0.191-0.281,0.215-0.429,0.246-0.762
	c0.026-0.276,0.224-0.652,0.138-0.936c-0.061-0.205-0.439-0.718-0.659-0.734c-0.29-0.021-0.577,0.33-0.736-0.196
	c-0.151-0.497,0.591-1.342-0.032-1.73c-0.126,0.222-0.402,0.218-0.646,0.254c0.035-0.306-0.213-0.319-0.152-0.558
	c0.083-0.33,0.439-0.521,0.427-0.93c-0.012-0.424-0.282-0.351-0.498-0.624c-0.19-0.241-0.071-0.455-0.336-0.578
	c-0.215-0.1-0.512-0.027-0.737-0.13c-0.194-0.089-0.385-0.321-0.569-0.452c-0.312-0.222-0.689-0.416-1.081-0.401
	c-0.293,0.011-0.929,0.021-1.107,0.302c-0.279-0.388-0.578-0.001-0.827,0.251c0.153,0.215,0.473,0.28,0.62,0.495
	c0.07,0.101,0.049,0.254,0.123,0.346c0.074,0.094,0.193,0.068,0.272,0.154c0.201,0.219,0.036,0.413-0.063,0.69
	c-0.05,0.14-0.136,0.598-0.288,0.677c-0.111,0.057-0.676-0.053-0.778-0.053c-0.219,0-0.579-0.052-0.775,0.065
	c-0.192,0.115-0.284,0.409-0.464,0.546c-0.202,0.155-0.331,0.126-0.603,0.128c-0.856,0.008-1.229,0.84-1.337,1.565
	c-0.033,0.22,0.038,0.203-0.148,0.284c-0.099,0.043-0.336,0.01-0.445,0c-0.315-0.028-0.467-0.256-0.762-0.277
	c-0.45-0.033-0.571,0.192-0.827-0.246c-0.203-0.348-0.412-0.277-0.839-0.278c-0.294-0.258-0.399-0.485-0.81-0.501
	c-0.393-0.015-0.35,0.039-0.584-0.169c-0.133-0.118-0.126-0.191-0.305-0.229c-0.128-0.027-0.26,0.051-0.412-0.015
	c-0.11-0.048-0.159-0.18-0.312-0.223c-0.192-0.055-0.382,0.022-0.574-0.057c-0.156-0.065-0.195-0.243-0.416-0.221
	c-0.188,0.018-0.197,0.168-0.36,0.27c-0.222-0.717-0.681,0.916-1.026,0.22c-0.199,0.127-0.141,0.349-0.272,0.491
	c-0.124,0.134-0.409,0.18-0.589,0.211c-0.304,0.053-0.464-0.033-0.569,0.258c-0.069,0.192,0.039,0.568,0.033,0.773
	c-0.245-0.011-0.541-0.058-0.766,0.053c0.014,0.178,0.242,0.238,0.184,0.431c-0.043,0.142-0.446,0.159-0.558,0.301
	c-0.112,0.142-0.042,0.523-0.172,0.628c-0.119,0.097-0.508,0.039-0.643,0.008c-0.149-0.034-0.565-0.181-0.685-0.278
	c-0.211-0.17-0.148-0.349-0.224-0.612c-0.056-0.189-0.201-0.337-0.25-0.516c-0.063-0.23,0.087-0.342,0.105-0.531
	c0.041-0.433-0.305-0.538-0.633-0.723c-0.462-0.26-0.484-0.931-1.045-0.994c-0.255-0.028-1.215,0.006-1.355,0.17
	c-0.133,0.154-0.055,0.47-0.15,0.662c-0.115,0.232-0.281,0.327-0.18,0.619c-0.263,0.039-0.538,0.156-0.8,0.155
	c0.429,0.462-0.349,0.798-0.656,0.875c-0.547,0.138-0.924-0.025-1.325-0.41c-0.305-0.293-0.264-0.587-0.693-0.739
	c-0.383-0.135-0.684-0.359-0.878-0.752c-0.141-0.285-0.088-0.602,0.105-0.864c0.096-0.13,0.249-0.218,0.299-0.358
	c0.062-0.173-0.052-0.366-0.058-0.53c-0.011-0.329,0.1-0.741,0.436-0.859c0.364-0.129,0.302,0.081,0.391-0.356
	c0.082-0.408,0.059-0.997-0.398-1.226c-0.057,0.07-0.16,0.11-0.222,0.172c-0.131-0.118-0.285-0.218-0.217-0.405
	c0.081-0.004,0.342-0.004,0.388-0.064c0.117-0.149-0.04-0.095-0.046-0.232c-0.006-0.138,0.037-0.407-0.045-0.55
	c-0.082-0.144-0.327-0.147-0.395-0.286c-0.096-0.198,0.077-0.408,0.284-0.415c0.009-0.345,0.16-0.446,0.486-0.429
	c0.048-0.192-0.139-0.24-0.145-0.41c-0.006-0.137,0.131-0.224,0.125-0.373c-0.013-0.348-0.381-0.338-0.309-0.738
	c0.027-0.149,0.108-0.248,0.155-0.388c0.018-0.053,0.041-0.31,0.067-0.339c0.185-0.204,0.497,0.134,0.58-0.245
	c0.068-0.308-0.176-0.406-0.433-0.465c-0.159,0.379-0.641-0.225-0.164-0.26c-0.019-0.235-0.28-0.244-0.371-0.412
	c-0.072-0.133-0.044-0.294-0.051-0.463c-0.344,0.157-0.832-0.302-0.892-0.602c-0.026-0.131,0.042-0.299,0.002-0.426
	c-0.06-0.188-0.231-0.185-0.307-0.33c-0.226-0.437,0.414-0.612-0.191-0.997c-0.222-0.141-0.352-0.208-0.428-0.427
	c-0.101-0.29-0.015-0.348-0.393-0.46c0.001-0.063-0.06-0.146-0.063-0.183c-0.14,0.137-0.395,0.116-0.563,0.037
	c-0.111-0.052-0.181-0.209-0.26-0.245c-0.115-0.052-0.268-0.038-0.411-0.034c0.019,0.345-0.569,1.456-0.972,1.129
	c-0.139-0.113-0.092-0.298-0.171-0.431c-0.055-0.092-0.174-0.157-0.248-0.238c-0.251-0.275-0.143-0.287-0.091-0.615
	c0.094-0.6-0.489-0.678-0.833-1.031c-0.219-0.224-0.332-0.456-0.469-0.726c-0.125-0.246-0.305-0.358-0.457-0.579
	c-0.145-0.212-0.115-0.454-0.182-0.683c-0.057-0.195-0.242-0.363-0.276-0.55c0.225-0.165,0.535-0.056,0.786-0.19
	c0.116-0.062,0.485-0.433,0.568-0.561c0.18-0.278,0.174-1.191,0.031-1.461c-0.098-0.184-0.346-0.292-0.473-0.463
	c-0.145-0.195-0.159-0.268-0.146-0.543c0.019-0.422-0.048-0.96,0.377-1.104c-0.173-0.245-0.058-0.578-0.068-0.851
	c-0.01-0.267-0.111-0.557-0.262-0.766c-0.169-0.234-0.426-0.42-0.661-0.577c-0.326-0.218-0.355-0.422-0.433-0.795
	c-0.079-0.017-0.146-0.078-0.247-0.067c0.015-0.128-0.006-0.261-0.091-0.358c-0.211,0.16-0.267,0.416-0.585,0.226
	c-0.319-0.191-0.075-0.214-0.065-0.443c0.012-0.287-0.224-0.31-0.32-0.529c-0.053-0.121-0.094-0.662-0.05-0.786
	c0.089-0.245,0.152-0.085,0.318-0.24c0.202-0.189,0.037-0.437,0.119-0.647c0.086-0.221,0.415-0.199,0.467-0.388
	c0.073-0.263-0.245-0.282-0.405-0.31c0.27-0.486-0.341-0.241-0.498-0.572c-0.089-0.187,0.015-0.4,0.158-0.48
	c0.117-0.066,0.262,0,0.385-0.03c0.172-0.042,0.263-0.146,0.419-0.217c0.209,0.292,0.65,0.894,0.951,0.453
	c0.212-0.31,0.046-0.332,0.501-0.289c0.238,0.023,0.534,0.086,0.685-0.159c0.116-0.189-0.009-0.332,0.214-0.473
	c0.143-0.091,0.382-0.074,0.546-0.152c0.208-0.099,0.31-0.213,0.426-0.394c0.11-0.171,0.103-0.358,0.369-0.345
	c-0.077-0.327-0.224-0.469-0.093-0.827c0.1-0.272,0.578-0.611,0.2-0.866c-0.133,0.071-0.269,0.145-0.423,0.159
	c0.033-0.299-0.177-0.54-0.061-0.834c0.076-0.192,0.323-0.297,0.319-0.515c-0.006-0.262-0.297-0.296-0.219-0.53
	c0.069-0.209,0.238-0.257,0.279-0.499c0.038-0.222-0.03-0.446,0.056-0.63c0.101-0.214,0.305-0.354,0.404-0.577
	c0.196-0.444,0.024-0.964,0.155-1.424c0.062-0.216,0.18-0.174,0.315-0.354c0.107-0.143,0.115-0.333,0.12-0.515
	c0.253-0.002,0.691,0.178,0.922,0.096c0.266-0.094,0.437-0.425,0.62-0.615c0.257-0.266,0.41-0.022,0.674-0.176
	c0.225-0.131,0.085-0.389,0.066-0.605c0.352-0.056,0.816-0.059,1.105,0.149c0.303,0.218,0.473,0.505,0.524,0.861
	c0.063,0.434,0.232,0.501,0.486,0.842c0.2,0.268,0.364,0.607,0.638,0.81c0.242,0.18,0.54,0.24,0.77,0.43
	c0.51,0.422,1.06,0.825,1.545,1.262c0.404,0.364,0.744,0.588,0.938,1.116c0.186,0.509,0.605,0.47,0.925,0.842
	c0.089-0.279,0.054-0.671,0.19-0.942c0.085-0.168,0.277-0.26,0.351-0.446c0.067-0.167,0.006-0.363,0.066-0.53
	c0.139-0.394,0.778-0.618,1.095-0.918c0.324-0.307,0.194-0.703,0.211-1.136c0.517,0.052,0.907,0.449,1.477,0.275
	c0.486-0.148,0.664-0.542,1.227-0.311c0.729,0.298,1.452,0.004,2.228,0.093c0.331,0.038,0.708,0.179,1.001,0.328
	c0.319,0.163,0.671,0.258,0.989,0.418c0.337,0.169,0.53,0.237,0.934,0.109c0.286-0.091,0.504-0.289,0.814-0.363
	c0.516-0.124,1.228-0.081,1.701,0.105c0.009-0.114,0.057-0.219,0.129-0.308c0.279,0.074,0.615,0.188,0.898,0.063
	c0.233-0.103,0.383-0.192,0.652-0.207c0.839-0.048,1.671-0.028,2.504-0.022c0.038-0.353,0.065-0.803-0.066-1.14
	c-0.122-0.316-0.206-0.531-0.194-0.88c0.01-0.257,0.028-0.223,0.245-0.298c0.207-0.072,0.326-0.203,0.493-0.321
	c0.114-0.081,0.248-0.129,0.36-0.213c0.104-0.078,0.187-0.213,0.298-0.268c0.011,0.397-0.079,0.763-0.06,1.16
	c0.017,0.36,0.021,0.796,0.021,1.161h42.884l1.926-9.657l-3.164-1.993L70.36,10.128H89.792z"/>
</svg>
