<?xml version="1.0" encoding="utf-8"?>
<!-- Generator: Adobe Illustrator 26.0.3, SVG Export Plug-In . SVG Version: 6.00 Build 0)  -->
<svg version="1.1" id="Isolation_Mode" xmlns="http://www.w3.org/2000/svg" xmlns:xlink="http://www.w3.org/1999/xlink" x="0px"
	 y="0px" viewBox="0 0 200 200" enable-background="new 0 0 200 200" xml:space="preserve">
<g>
	<path fill="#1E8346" d="M160.368,41.605h24.44L130.953,5.362v20.746H84.113v39.434c-0.276,0.092-0.635,0.049-0.919,0.114
		c-0.175,0.04-0.306,0.131-0.468,0.192c-0.462,0.175-0.952,0.119-1.388,0.389c-0.531,0.329-1.015,0.687-1.585,0.958
		c-0.574,0.273-1.2,0.391-1.802,0.58c-0.668,0.21-1.53,0.187-2.134,0.535c-0.337,0.194-0.652,0.396-1.008,0.548
		c-0.338,0.144-0.637,0.413-0.943,0.614c-0.708,0.464-1.446,0.872-2.151,1.346c-0.344,0.232-0.7,0.487-1.019,0.749
		c-0.29,0.24-0.519,0.526-0.829,0.748c-0.474,0.342-1.404,0.678-1.426,1.364c-0.004,0.13,0.017,0.255,0.022,0.386
		c0.013,0.34-0.14,0.632-0.269,0.948c-0.164,0.403-0.286,0.696-0.288,1.14l1.047,3.677l0.713,9.004L70,97.683H14.752l-1.538,4.502
		v0.936c-0.026,0.204-0.208,0.401-0.297,0.586c-0.131,0.274-0.285,0.539-0.225,0.861c0.041,0.222,0.165,0.397,0.188,0.631
		c0.032,0.326,0.048,0.69,0.231,0.975c-0.093-0.119,0.122-0.379,0.178-0.479c0.152-0.27,0.186-0.555,0.068-0.851
		c-0.068-0.172-0.214-0.426-0.125-0.617c0.032-0.069,0.124-0.138,0.172-0.196c0.084-0.101,0.161-0.211,0.22-0.329
		c0.125-0.25,0.071-0.535,0.08-0.805c0.011-0.314,0.185-0.501,0.346-0.761c0.095-0.153,0.186-0.297,0.225-0.473
		c0.033-0.147,0.063-0.273,0.14-0.404c0.136-0.232,0.3-0.397,0.314-0.69c0.02-0.427-0.101-0.848-0.039-1.276
		c0.023-0.159,0.214-0.716,0.454-0.636c0.046,0.205-0.003,0.451-0.003,0.661c-0.001,0.271,0.011,0.544,0.011,0.816
		c0,0.098,0,0.196,0,0.295c0,0.14-0.015,0.184,0.073,0.279c0.254,0.273,0.26,0.58,0.261,0.941c0.002,0.403,0.217,0.713,0.273,1.108
		c0.034,0.242,0.132,0.35,0.31,0.515c0.299,0.278,0.634,0.553,0.905,0.861c0.195,0.223,0.235,0.558,0.239,0.84
		c0.001,0.131,0.022,0.231,0.105,0.333c0.116,0.143,0.307,0.179,0.424,0.298c0.141,0.143,0.15,0.489,0.216,0.677
		c0.093,0.268,0.362,0.422,0.52,0.65c-0.079,0.164-0.191,0.322-0.172,0.512c0.022,0.211,0.367,0.226,0.479,0.411
		c0.105,0.173,0.146,0.335,0.281,0.491c0.349,0.401,0.76,0.793,1.189,1.105c0.178-0.137,0.15-0.714,0.157-0.931
		c0.011-0.36,0.014-0.708,0.046-1.066c0.017-0.195-0.051-0.763,0.244-0.663c0.229,0.077,0.328,0.443,0.357,0.637
		c0.055,0.374,0.14,0.559,0.441,0.819c0.102,0.089,0.21,0.152,0.294,0.262c0.056,0.072,0.084,0.112,0.116,0.199
		c0.01,0.027-0.053,0.073-0.046,0.1c0.051,0.214,0.245,0.382,0.375,0.552c0.175,0.228,0.357,0.423,0.381,0.713
		c0.02,0.246-0.011,0.478,0.042,0.723c0.141,0.641,0.551,1.205,0.895,1.752c0.116,0.186,0.259,0.359,0.373,0.545
		c0.081,0.132,0.123,0.266,0.228,0.389c0.177,0.206,0.482,0.317,0.631,0.538c0.205,0.305,0.2,0.577,0.053,0.891
		c-0.069,0.147-0.215,0.325-0.217,0.489c-0.002,0.181-0.217,0.289-0.308,0.44c-0.073,0.122-0.066,0.246-0.066,0.384
		c0.001,0.269-0.073,0.613-0.007,0.871c0.04,0.159,0.172,0.292,0.21,0.454c0.031,0.125,0.002,0.235-0.014,0.36
		c-0.047,0.351,0.02,0.498-0.292,0.643c-0.244,0.113-0.385,0.283-0.527,0.5c-0.268,0.411,0.051,0.284,0.299,0.47
		c0.483,0.362,0.488,0.886,0.384,1.417c-0.024,0.121-0.009,0.205-0.096,0.305c-0.128,0.147-0.269,0.155-0.313,0.376
		c-0.036,0.179,0.001,0.318-0.088,0.487c-0.052,0.099-0.125,0.277-0.215,0.342c-0.16,0.115-0.385,0.092-0.512,0.288
		c-0.079,0.122-0.111,0.338-0.164,0.474c-0.071,0.182-0.15,0.365-0.204,0.553c-0.094,0.325-0.505,0.558-0.673,0.852
		c-0.164,0.288-0.286,0.594-0.413,0.897c-0.081,0.192-0.586,1.039-0.036,0.979c0.345-0.037,0.491-0.461,0.588-0.74
		c0.051-0.147,0.052-0.301,0.12-0.443c0.127-0.262,0.332-0.239,0.596-0.313c0.169-0.047,0.393-0.119,0.554-0.201
		c0.136-0.068,0.19-0.214,0.317-0.281c0.001,0.451-0.149,0.675-0.37,1.046c-0.343,0.576-0.824,1.006-1.406,1.335
		c-0.228,0.128-0.494,0.129-0.747,0.093c-0.176-0.025-0.982-0.09-0.886,0.167c0.246,0.656,0.515,1.399,1.129,1.811
		c1.289,0.867,2.296,1.943,3.008,3.337c0.268,0.525,0.419,0.952,0.51,1.519c0.055,0.345,0.2,1.321,0.501,1.523
		c-0.037,1.056,0.341,2.011,0.711,2.977c0.377,0.983,0.755,1.968,0.859,3.009c0.11,1.105,0.222,2.181,0.268,3.294
		c0.047,1.117,0,2.246,0,3.364c0,0.484-0.001,0.968,0,1.452c0.001,0.614-0.234,1.021-0.234,1.616c0,0.638-0.088,1.204-0.192,1.828
		c-0.101,0.607-0.129,1.212-0.268,1.808c-0.301,1.296-0.992,2.532-1.463,3.776c-0.398,1.052-0.823,2.066-1.253,3.109
		c-0.356,0.865-0.788,1.697-1.095,2.583c-0.268,0.773-0.424,1.554-0.611,2.356c-0.116,0.496-0.578,0.896-0.72,1.387
		c-0.095,0.328-0.034,0.721-0.032,1.063c0.002,0.743-0.228,1.539-0.501,2.227c-0.132,0.332-0.28,0.664-0.379,1.009
		c-0.078,0.269-0.032,0.555-0.022,0.83c0.022,0.579-0.057,1.174,0.031,1.749c0.043,0.276,0.096,0.555,0.102,0.835
		c0.003,0.17-0.049,0.486,0.167,0.506c0.318,0.029,0.645-0.487,0.728-0.737c0.13-0.393-0.048-0.813,0.006-1.211
		c0.046-0.336,0.202-0.356,0.503-0.369c0.369-0.016,0.566-0.259,0.718-0.585c0.163-0.351-0.099-0.58-0.132-0.912
		c0.477-0.25,0.596-0.88,0.77-1.338c0.123-0.322,0.221-0.649,0.342-0.971c0.08-0.211,0.137-0.617,0.346-0.749
		c0.142-0.09,0.435-0.044,0.612-0.042c0.267,0.003,0.437,0.042,0.679-0.087c0.174-0.093,0.274-0.254,0.485-0.278
		c0.213-0.025,0.303,0.105,0.44,0.248c0.228,0.238,0.619,0.745,1.072,0.735c0.246-0.005,0.47,0.057,0.69-0.015
		c0.542-0.177,1.071-0.301,1.638-0.273c0.345,0.017,0.71-0.012,1.043,0.075c0.23,0.06,0.451,0.134,0.684,0.181
		c0.432,0.088,1.017,0.239,1.386-0.105c0.096-0.09,0.121-0.19,0.246-0.252c0.143-0.071,0.273-0.042,0.427-0.029
		c0.324,0.028,0.71,0.048,0.957-0.201c0.086-0.087,0.1-0.213,0.175-0.298c0.054-0.061,0.143-0.077,0.215-0.11
		c0.197-0.094,0.422-0.321,0.635-0.327c0.344-0.011,0.246,0.427,0.501,0.503c0.098,0.029,0.108-0.045,0.182-0.087
		c0.13-0.074,0.298-0.1,0.442-0.131c0.308-0.067,0.623-0.169,0.936-0.184c0.276-0.013,0.491,0.151,0.753,0.151
		c0.535-0.002,1.107-0.091,1.626-0.212c0.249-0.058,0.501-0.395,0.551-0.64c0.052-0.252-0.313-0.461-0.004-0.666
		c0.208-0.138,0.391,0.241,0.588,0.308c0.128,0.043,0.212,0.108,0.352,0.055c0.168-0.064,0.223-0.19,0.267-0.348
		c0.085-0.304,0.393-0.693,0.689-0.389c0.193,0.198,0.125,0.488,0.355,0.643c0.125,0.085,0.289,0.097,0.435,0.074
		c0.157-0.025,0.273-0.141,0.422-0.169c0.069-0.013,0.167-0.004,0.23,0.022c0.057,0.023,0.104,0.108,0.163,0.117
		c0.062,0.009,0.144-0.07,0.198-0.094c0.258-0.114,0.603,0.037,0.858,0.101c0.254,0.064,0.496,0.044,0.755,0.056
		c0.207,0.009,0.41,0.053,0.617,0.068c0.384,0.03,0.789,0.024,1.174,0.006c0.58-0.026,1.117,0.043,1.692-0.036
		c0.279-0.038,0.297-0.13,0.527-0.273c0.165,0.202,0.647,0.158,0.887,0.223c0.266,0.071,0.325,0.15,0.324,0.408
		c0,0.117-0.05,0.404,0.033,0.484c0.075,0.072,0.402,0.007,0.507,0.01c0.422,0.015,0.376,0.157,0.511,0.52
		c0.068,0.014,0.138,0.023,0.208,0.03c0.295-0.337,0.7,0.193,0.927,0.384c0.348,0.291,0.727,0.569,1.028,0.909
		c0.267,0.3,0.449,0.585,0.783,0.816c0.138,0.095,0.259,0.194,0.412,0.267c0.099,0.047,0.203,0.087,0.303,0.136
		c0.254,0.126,0.389,0.42,0.637,0.55c0.021,0.129-0.051,0.22-0.1,0.333c-0.043,0.101-0.11,0.234-0.08,0.346
		c0.014,0.055,0.089,0.112,0.11,0.173c0.049,0.148-0.002,0.281,0.102,0.415c0.112,0.145,0.319,0.206,0.48,0.271
		c0.329,0.134,0.564,0.261,0.687,0.597c0.121,0.332,0.238,0.72,0.512,0.967c0.108-0.132,0.485-0.246,0.644-0.319
		c0.23-0.105,0.417-0.263,0.643-0.385c0.119-0.064,0.332-0.16,0.363-0.297c0.018-0.08-0.048-0.168-0.064-0.243
		c-0.033-0.151-0.066-0.462,0.047-0.58c0.277,0.282,0.621,0.489,0.91,0.76c0.241,0.225,0.455,0.463,0.728,0.661
		c0.16,0.116,0.265,0.2,0.466,0.191c0.101-0.005,0.203,0.001,0.302-0.016c0.371-0.063,0.731-0.051,1.12-0.051
		c0.017-0.005,0.031-0.001,0.042,0.01c-0.096,0.176-0.311,0.265-0.397,0.446c-0.111,0.233-0.012,0.307,0.178,0.423
		c0.154-0.133,0.285-0.286,0.473-0.389c0.239,0.238,0.528,0.405,0.744,0.678c0.208,0.264,0.299,0.631,0.398,0.949
		c-0.008-0.013-0.018-0.023-0.032-0.029c0.045,0.164,0.087,0.363,0.177,0.506c0.111,0.174,0.296,0.27,0.435,0.416
		c0.267,0.282,0.185,0.598,0.301,0.926c0.109,0.306,0.284,0.603,0.427,0.895c0.149,0.301,0.037,0.591,0.113,0.902
		c0.336,0.112,0.814,0.428,0.696,0.822c-0.089,0.296-0.346,0.424-0.193,0.745c0.116,0.241,0.208,0.233,0.457,0.218
		c0.223-0.014,0.474,0.062,0.678,0.136c0.372,0.134,0.673,0.318,0.81,0.703c0.088,0.246,0.061,0.766,0.241,0.953
		c0.09,0.094,0.2,0.224,0.325,0.252c0.141,0.032,0.339-0.018,0.491-0.018c0.265-0.001,0.522-0.199,0.778-0.165
		c0.261,0.035,0.208,0.226,0.227,0.426c0.018,0.2,0.155,0.283,0.208,0.466c0.014,0.048-0.007,0.153-0.007,0.204
		c0,0.232-0.049,0.517,0.029,0.738c0.158,0.45,0.764,0.409,1.046,0.69c0.159,0.158,0.382,0.467,0.33,0.708
		c-0.057,0.266-0.425,0.277-0.652,0.28c0.11,0.208,0.33,0.469,0.56,0.541c0.258,0.08,0.532,0.064,0.792,0.17
		c0.001,0.206-0.056,0.706,0.081,0.872c0.08,0.096,0.311,0.147,0.416,0.215c0.102,0.067,0.197,0.147,0.298,0.217
		c0.146,0.1,0.322,0.274,0.483,0.345c0.173,0.076,0.208,0.004,0.337-0.065c0.153-0.083,0.286-0.087,0.466-0.042
		c0.334,0.082,0.51,0.311,0.744,0.536c0.286,0.274,0.598,0.433,0.953,0.581c0.186,0.077,0.402,0.131,0.534,0.288
		c0.256,0.302,0.278,0.714,0.352,1.083c0.078,0.39,0.382,0.588,0.685,0.839c0.165,0.136,0.304,0.31,0.481,0.438
		c0.167,0.12,0.126,0.047,0.32,0.073c0.228,0.03,0.331,0.258,0.498,0.379c0.195,0.141,0.472,0.094,0.664,0.235
		c0.069,0.051,0.121,0.16,0.183,0.22c0.14,0.137,0.244,0.151,0.435,0.139c0.208-0.013,0.352-0.102,0.542-0.156
		c0.222-0.063,0.495-0.02,0.716,0.033c0.561,0.135,0.664,0.778,1.241,0.917c0.051-0.136,0.115-0.256,0.12-0.406
		c0.002-0.085-0.059-0.228,0.007-0.288c0.06-0.055,0.442-0.007,0.521-0.009c0.398-0.015,0.632-0.169,0.925-0.416
		c0.207-0.174,0.06-0.17,0.165-0.36c0.077-0.138,0.293-0.068,0.45-0.099c0.258-0.052,0.414-0.27,0.57-0.465
		c0.107-0.134,0.2-0.264,0.319-0.394c0.065-0.071,0.106-0.112,0.192-0.156c0.077-0.038,0.141-0.014,0.196-0.103
		c0.083-0.136-0.016-0.288-0.079-0.406c-0.083-0.154-0.084-0.264-0.042-0.431c0.098-0.39,0.301-0.698,0.301-1.119
		c-0.218-0.134-0.391,0.009-0.631-0.001c0.003-0.163,0.129-0.315,0.115-0.479c-0.013-0.147-0.165-0.237-0.183-0.378
		c-0.033-0.256,0.386-0.381,0.413-0.648c0.025-0.249-0.336-0.256-0.384-0.45c-0.022-0.087,0.142-0.363,0.17-0.453
		c0.048-0.154,0.095-0.309,0.133-0.466c0.083-0.34,0.189-0.646,0.323-0.967c0.1-0.242,0.298-0.421,0.379-0.669
		c0.099-0.305,0.134-0.573,0.134-0.892c0-0.299,0.001-0.657,0.235-0.88c0.136-0.13,0.311-0.157,0.394-0.346
		c0.089-0.205,0.055-0.456,0.139-0.669c0.226,0.013,0.703,0.234,0.897,0.143c0.166-0.078,0.336-0.323,0.491-0.418
		c0.17-0.103,0.319-0.226,0.501-0.317c0.19-0.095,0.4-0.145,0.586-0.242c0.274-0.142,0.317-0.419,0.222-0.701
		c0.214-0.101,0.578,0.016,0.811,0.024c0.105,0.004,0.282-0.032,0.378,0.032c0.134,0.089,0.186,0.316,0.25,0.452
		c0.149,0.317,0.33,0.77,0.587,1.008c0.291,0.269,0.579,0.437,0.785,0.785c0.148,0.251,0.29,0.547,0.493,0.76
		c0.181,0.189,0.451,0.224,0.65,0.379c0.105,0.082,0.192,0.228,0.297,0.322c0.115,0.104,0.253,0.165,0.373,0.262
		c0.187,0.152,0.337,0.327,0.536,0.466c0.423,0.296,0.849,0.621,1.24,0.945c0.153,0.127,0.288,0.263,0.436,0.391
		c0.245,0.212,0.602,0.43,0.803,0.7c0.115,0.154,0.208,0.318,0.318,0.474c0.085,0.121,0.171,0.231,0.273,0.339
		c0.064,0.068,0.127,0.142,0.183,0.217c0.06,0.079,0.101,0.209,0.178,0.265c0.068-0.079,0.084-0.217,0.107-0.316
		c0.047-0.204,0.303-0.342,0.279-0.544c-0.04-0.347,0.458-0.584,0.524-0.887c0.061-0.281-0.067-0.499,0.183-0.746
		c0.116-0.116,0.299-0.122,0.419-0.256c0.149-0.165,0.259-0.346,0.423-0.5c0.147-0.137,0.302-0.284,0.416-0.435
		c0.129-0.171,0.175-0.387,0.174-0.597c0-0.14-0.064-0.522,0.056-0.579c0.067-0.032,0.188,0.009,0.256,0.023
		c0.157,0.034,0.317,0.066,0.474,0.101c0.187,0.042,0.378,0.048,0.567,0.065c0.165,0.016,0.33,0.037,0.498,0.012
		c0.085-0.013,0.164-0.038,0.25-0.06c0.168-0.043,0.339-0.089,0.473-0.187c0.172-0.126,0.365-0.207,0.598-0.19
		c0.162,0.011,0.294,0.092,0.443,0.148c0.147,0.054,0.302,0.072,0.453,0.112c0.207,0.055,0.429,0.017,0.641-0.002
		c0.332-0.03,0.67-0.053,1.003-0.022c0.436,0.04,0.814,0.227,1.208,0.411c0.417,0.194,0.863,0.293,1.292,0.45
		c0.16,0.059,0.316,0.139,0.48,0.196c0.247,0.086,0.764,0.192,0.992,0.046c0.106-0.068,0.233-0.16,0.357-0.19
		c0.098-0.025,0.229-0.021,0.332-0.032c0.092-0.01,0.184-0.014,0.276-0.025c0.149-0.018,0.271-0.079,0.412-0.124
		c0.347-0.112,0.621-0.103,0.982-0.083c0.337,0.018,0.775,0.063,1.065-0.123c0.115-0.074,0.229-0.146,0.356-0.203
		c0.203-0.09,0.439-0.113,0.658-0.133c0.502-0.043,1.001-0.092,1.504-0.113c0.221-0.009,0.427-0.061,0.648-0.067
		c0.246-0.006,0.497-0.009,0.743,0.002c0.198,0.01,0.398,0.009,0.598,0.009c0.319,0,0.613,0.043,0.928,0.034
		c-0.029-0.053-0.012-0.099-0.022-0.156c-0.014-0.084-0.055-0.168-0.089-0.244c-0.085-0.193-0.083-0.371-0.134-0.572
		c-0.057-0.228-0.108-0.436-0.145-0.668c-0.035-0.225-0.141-0.451-0.123-0.685c0.009-0.108,0.057-0.203,0.123-0.286
		c0.08-0.102,0.109-0.216,0.175-0.317c0.069-0.106,0.205-0.123,0.314-0.177c0.098-0.048,0.164-0.117,0.241-0.193
		c0.184-0.18,0.457-0.322,0.541-0.578l0.401,0.056l-0.217,2.911h53.803l2.311-12.21l-3.828-2.457L160.368,41.605z"/>
	<path fill="#1E8346" d="M22.435,120.339c-0.144,0.041-0.395-0.002-0.507,0.101c-0.09,0.085-0.112,0.317-0.118,0.429
		c-0.011,0.217,0.005,0.435-0.017,0.651c-0.018,0.179-0.08,0.324-0.145,0.491c-0.074,0.191-0.03,0.389-0.033,0.592
		c-0.003,0.212-0.007,0.418,0.011,0.632c0.007,0.078,0.002,0.189,0.048,0.25c0.31-0.035,0.525-0.492,0.661-0.73
		c0.171-0.3,0.368-0.605,0.467-0.939c0.166-0.56,0.038-1.214,0.072-1.779C22.743,120.168,22.619,120.287,22.435,120.339z"/>
	<path fill="#1E8346" d="M20.918,122.529c0.071,0.011,0.086-0.022,0.107-0.083c0.044-0.122,0.049-0.263,0.045-0.393
		c-0.002-0.071-0.045-0.23-0.184-0.161c0.004,0.089-0.019,0.152-0.056,0.228c-0.044,0.091-0.052,0.219-0.024,0.317
		C20.824,122.501,20.853,122.518,20.918,122.529z"/>
</g>
</svg>
