<?xml version="1.0" encoding="utf-8"?>
<!-- Generator: Adobe Illustrator 26.0.3, SVG Export Plug-In . SVG Version: 6.00 Build 0)  -->
<svg version="1.1" id="Isolation_Mode" xmlns="http://www.w3.org/2000/svg" xmlns:xlink="http://www.w3.org/1999/xlink" x="0px"
	 y="0px" viewBox="0 0 200 200" enable-background="new 0 0 200 200" xml:space="preserve">
<g>
	<path fill="#1E8346" d="M161.171,115.986c0.689-0.457,1.579-0.588,2.263-1.062c1.066-0.74,1.706-2.059,1.471-3.407
		c-0.206-1.183-1.189-2.207-2.136-2.94c-0.343-0.266-0.964-0.457-1.19-0.832c-0.315-0.523-0.218-1.313-0.203-1.912
		c-0.619-0.439-1.114-0.116-1.717-0.687c-0.473-0.447-0.852-1.236-1.211-1.788c-0.489-0.753-1.087-1.631-1.39-2.485
		c-0.351-0.987-0.146-2.108-0.185-3.168c-0.028-0.749,0.04-1.955-0.444-2.516c-0.596-0.691-1.606-0.553-2.23-1.234
		c-0.684-0.748-0.614-1.255-1.741-1.353c-0.628-0.054-1.448-0.243-1.63,0.487c-0.068,0.273,0.013,0.538,0.175,0.753
		c-0.292-0.262-0.64-0.487-1.012-0.578c-0.354-0.086-1.001,0.238-1.28-0.027c-0.229-0.218-0.189-1.223-0.16-1.507
		c1.706-0.403,1.469-1.892,2.151-3.238c0.894-1.767,1.07-3.291,1.072-5.268c0.002-1.757-0.834-3.056-1.874-4.49
		c-0.897-1.238-3.065-1.351-4.476-1.731c-1.306-0.351-4.602-0.267-5.545-1.342c-0.328-0.373-0.105-0.688-0.248-1.086
		c-0.179-0.502-0.573-0.902-0.894-1.325c-1.291-1.702-2.447-3.37-3.446-5.265c-0.502-0.954-0.463-1.65-0.762-2.648
		c-0.404-1.347-0.838-1.077-2.051-1.283c-0.101-0.715,0.575-1.414,0.687-2.13c0.08-0.514-0.003-1.135-0.007-1.655
		c-0.009-1.184-0.215-2.375-0.387-3.533c-0.29-1.95-0.103-3.88-0.103-5.874c-0.673-0.036-2.496-0.447-3.163-0.485
		c-0.1-0.337-0.111-0.713-0.024-1.059c-0.498-0.385-1.319-0.281-1.807-0.649c-0.26-0.196-0.194-0.623-0.499-0.809
		c-0.88-0.536-3.289,0.278-4.367,0.09c-0.832-0.145-1.729-1.05-2.306-1.683c-0.525-0.576-0.545-1.753-1.087-2.219
		c-0.618-0.531-2.703-0.095-3.602-0.314c-0.4-0.098-0.799-0.252-1.178-0.415c-1.288-0.552-1.671-0.749-3.016-0.026
		c-1.333,0.717-2.138,1.763-3.254,2.716c-1.055,0.901-2.83,1.501-3.261,2.939c-0.338,1.128,1.139,1.866-0.078,2.659
		c-0.776,0.504-1.877,0.319-2.149-0.473c-0.299-0.871,0.451-2.24-0.586-2.726c-0.653-0.306-2.38-0.223-3.126-0.192
		c-0.794,2.164,0.704,4.205-1.255,5.972c-1.029,0.929-1.292,1.438-1.715,2.683c-0.238,0.701-0.515,1.153-1.111,1.585
		c-1.185,0.858-2.732,1.203-3.951,1.985c-1.007,0.645-1.368,1.968-1.71,3.076c-0.355,1.153-0.181,2.519-0.773,3.616
		c-0.538,0.998-1.08,1.468-1.312,2.648c-0.361,1.84-1.26,4.701-0.068,6.266c0.465,0.611,1.373,0.929,0.811,1.663
		c-0.429,0.561-3.451,0.66-2.842,1.666c-1.303,0.872-1.862,3.162-1.861,4.623c0.001,0.744,0.503,2.203,0.146,2.866
		c-0.29,0.538-1.583,1.461-2.102,1.943c-1.061,0.988-2.534,1.801-2.831,3.364c-0.184,0.967,0.284,1.869-0.624,2.5
		c-1.021,0.71-1.555-0.329-2.516-0.504c-2.15-0.391-3.884,1.071-5.851,1.646c-1.25,0.365-3.077,0.549-4.176,1.195
		c-1.475,0.869-1.505,2.597-3.262,3.363c-1.236,0.539-2.368,1.376-3.207,2.521c-0.29,0.395-0.932,1.12-0.958,1.564
		c-0.042,0.748,0.563,0.759,0.688,1.325c0.291,1.316-1.131,2.569-2.137,2.891c-1.502,0.48-1.701,1.604-2.175,3.136
		c-0.402,1.3-1.383,2.546-1.568,3.798c-0.18,1.222,0.271,2.48,0.002,3.723c-0.449,2.071-1.8,4.029-2.748,5.911
		c-0.477,0.946-1.174,1.809-1.577,2.772c-0.431,1.029-0.313,2.233-0.261,3.343c0.079,1.684-0.054,4.377,1.421,5.421
		c0.372,0.263,0.579,0.106,0.911,0.513c0.229,0.279,0.175,0.592,0.337,0.87c0.507,0.87,0.955,0.642,1.62,1.18
		c-0.542,0.636-1.358,0.829-2.057,1.181c-1.092,0.549-1.577,0.638-1.881,1.77c-0.472,1.763-0.661,3.539-0.667,5.382
		c0.819,0.842,2.733,1.518,2.366,3.109c-0.298,1.292-2.185,0.92-2.774,1.908c-0.519,0.871-0.115,2.206,0.603,2.721
		c0.677,0.486,1.58,0.267,2.295,0.666c0.391,0.218,0.582,0.723,1.034,0.816c-0.439,0.819-1.331,1.174-1.762,1.868
		c-0.377,0.606-0.284,1.831-0.345,2.536c-0.081,0.944,0.109,1.966-0.235,2.863c-0.423,1.104-1.312,2.22-1.948,3.217
		c-0.696,1.092-1.609,2.015-2.28,3.133c-0.792,1.321-0.79,2.023-2.509,2.052c-1.913,0.033-3.474-0.098-4.975-1.244
		c-1.041-0.795-0.985-0.528-1.486,0.713c-0.422,1.045-0.588,2.079-0.916,3.145c-0.37,1.202-2.097,3.66-0.245,4.051
		c0.882,0.186,1.16-0.194,1.563-0.781c0.6-0.875,0.546-0.998,1.714-1.082c1.135-0.083,1.834-0.084,2.646,0.659
		c0.733,0.671,1.599,1.215,2.18,2.026c0.934,1.302,0.775,2.797,2.003,3.923c1.482,1.359,2.724,1.566,4.638,1.141
		c-0.051,1.481,2.129,1.535,3.14,2.012c1.453,0.684,2.615,1.703,4.071,2.398c1.441,0.689,2.791,1.64,4.369,1.979
		c1.395,0.301,3.104-0.035,4.528-0.122c1.523-0.093,2.752-0.097,3.463-1.475c0.374-0.725,0.21-0.974,1.012-0.881
		c0.497,0.058,1.303,0.714,1.738,0.956c1.751,0.974,3.43,2.011,5.042,3.136c1.343,0.937,1.842,1.127,3.705,1.291
		c0.978,0.086,3.418,1,4.306,0.299c2.491,0.603,5.129,0.815,7.634,0.387c1.442-0.246,2.65-0.191,4.022-0.708
		c0.497-0.188,1.042-0.293,1.504-0.545c0.358-0.195,0.656-0.667,1.082-0.753c0.871-0.176,1.549,0.634,2.458,0.242
		c0.824-0.355,0.688-0.782,1.761-0.782c2.324,0,3.355,0.038,5.096-1.536c1.356-1.225,1.957-1.69,3.764-1.914
		c1.473-0.183,2.588-0.927,3.891-1.544c1.135-0.537,1.727-0.239,2.979-0.387c0.764-0.09,1.54-0.407,2.292-0.644
		c1.806-0.568,3.536-1.416,5.272-2.136c1.409-0.585,2.772-1.315,4.143-1.957c1.644-0.77,1.041-0.79,0.653-2.02
		c0.743-0.774,1.898-0.984,2.726-1.68c0.665-0.559,0.924-1.526,1.653-1.943c0.6-0.343,0.894-0.093,1.357-0.666
		c0.21-0.26,0.273-0.614,0.407-0.919c0.395-0.9,0.988-1.798,1.332-2.714c1.324-0.327,1.976,1.22,3.266,0.862
		c1.433-0.397,1.651-1.257,1.772-2.529c0.101-1.067,0.676-2.248,0.228-3.239c-0.405-0.897-1.406-1.201-2.196-1.786
		c-0.66-0.489-1.359-0.956-1.832-1.644c-0.489-0.711-0.211-1.35-0.55-2.128c-0.579-1.325-2.193-1.319-2.292-2.913
		c-0.085-1.368,0.764-2.712,0.196-3.993c-0.232-0.523-0.473-3.692,0.176-4.02c1.029-0.52,2.213,1.313,2.642,2.001
		c0.637,1.022,0.648,0.866,1.818,0.648c1.675-0.312,3.382-0.168,4.773-1.329c1.041-0.868,0.905-2.378,1.535-3.479
		c0.943-1.648,2.356-0.848,3.82-1.306c0.47-0.147,1.691-0.699,1.988-1.135c0.327-0.478,0.157-1.023,0.218-1.585
		c0.206-1.898,0.806-1.544,2.259-1.374c1.105,0.13,1.864-0.51,1.974-1.66c-1.281-0.551-2.797-0.038-2.881-1.709
		c-0.053-1.058,0.397-2.454,1.213-3.088c0.502-0.39,1.325-0.188,1.677-0.86c0.179-0.342,0.068-1.124,0.049-1.506
		c-0.042-0.837-0.018-2.072-0.454-2.77c-0.635-1.019-1.7-0.938-0.668-2.294c0.846-1.112,1.45-0.293,2.373,0.404
		c2.251,1.698,0.959-2.807,0.997-3.771c0.028-0.72,0.616-1.688,0.985-2.29c0.502-0.818,0.578-1.326,0.588-2.387
		c0.019-1.99-0.07-2.935-1.399-4.298C160.538,116.684,160.292,116.569,161.171,115.986z"/>
	<path fill="#1E8346" d="M137.393,59.24c0.567,0.002,2.582,0.201,2.817-0.447c-0.545-0.234-0.944-0.923-1.518-1.243
		c-0.547-0.304-1.016-0.876-1.545-1.13c-0.715-0.345-0.644,0.509-0.976,0.956c-0.395,0.533-1.247,1.168-1.889,1.375
		c0.04,0.447,0.053,0.494,0.087,0.535C135.381,59.314,136.386,59.237,137.393,59.24z"/>
	<path fill="#1E8346" d="M165.518,123.502c-0.206-0.7-0.591-1.249-0.289-1.976c0.222-0.533,0.455-0.867,0.428-1.466
		c-0.443-0.093-1.446-0.737-2.09-0.153c0.376,0.728,0.156,1.911,0.256,2.707c0.081,0.643,0.258,1.223,0.258,1.873
		c0,0.378-0.018,0.774,0.007,1.144c0.308-0.148,0.625-0.318,0.95-0.426c0.174-0.058,0.374-0.02,0.514-0.171
		C165.848,124.713,165.634,123.897,165.518,123.502z"/>
	<path fill="#1E8346" d="M115.147,31.587c0.396,0.37,0.909,0.634,1.242,1.065c0.164,0.212,0.483,0.701,0.767,0.736
		c0.034-0.587,0.005-1.184,0.02-1.772c0.01-0.366,0.057-0.735,0.098-1.097c0.032-0.283,0.096-0.692,0.008-0.971
		c-0.299,0.122-0.603,0.271-0.907,0.402c-0.274,0.118-0.549,0.225-0.817,0.36c-0.141,0.071-0.345,0.141-0.439,0.269
		c-0.095,0.115-0.333,0.229-0.35,0.422C114.749,31.225,115.006,31.456,115.147,31.587z"/>
	<path fill="#1E8346" d="M123.992,15.369c0.188,0.108,0.477,0.074,0.681,0.072c0.567-0.006,1.129-0.069,1.695-0.094
		c0.515-0.023,0.999-0.089,1.332-0.538c0.32-0.431,0.389-1.111,0.275-1.621c-0.141-0.629-0.516-1.155-0.882-1.664
		c-0.291-0.403-0.792-0.705-1.279-0.798c-0.217-0.042-0.707-0.089-0.792,0.109c-0.728-0.065-1.248,0.936-1.539,1.445
		c-0.46,0.805-0.182,1.381,0.088,2.23C123.663,14.8,123.698,15.201,123.992,15.369z"/>
	<path fill="#1E8346" d="M160.343,8.053c0.268,0.031,0.574,0.119,0.785-0.065c0.208-0.181,0.42-0.533,0.573-0.757
		c0.172-0.252,0.312-0.533,0.452-0.803c0.117-0.227,0.11-0.409,0.109-0.66c0-0.562,0.103-1.302-0.147-1.822
		c-0.091-0.19-0.27-0.218-0.606-0.355c-0.644,0.165-1.486,0.047-1.865,0.693c-0.243,0.416-0.344,0.878-0.525,1.318
		c-0.182,0.443-0.383,0.955-0.385,1.441C158.732,7.893,159.689,7.977,160.343,8.053z"/>
</g>
</svg>
