<?xml version="1.0" encoding="utf-8"?>
<!-- Generator: Adobe Illustrator 26.0.3, SVG Export Plug-In . SVG Version: 6.00 Build 0)  -->
<svg version="1.1" id="Isolation_Mode" xmlns="http://www.w3.org/2000/svg" xmlns:xlink="http://www.w3.org/1999/xlink" x="0px"
	 y="0px" viewBox="0 0 200 200" enable-background="new 0 0 200 200" xml:space="preserve">
<path fill="#1E8346" d="M160.9,50.545c-0.183-0.291-0.408-0.481-0.137-0.8c0.12-0.141,0.285-0.453,0.18-0.651
	c-0.028-0.052-0.119-0.08-0.158-0.133c-0.121-0.168-0.043-0.145,0.007-0.337c0.072-0.281-0.224-0.915-0.557-0.819
	c-0.182,0.053-0.375,0.208-0.551,0.285c-0.167,0.074-0.407,0.168-0.483,0.351c-0.078,0.19,0.012,0.42-0.063,0.616
	c-0.072,0.189-0.255,0.373-0.411,0.495c-0.433-0.225,0.008-1.227,0.048-1.593c0.024-0.213-0.018-0.493,0.037-0.697
	c0.017-0.063,0.032-0.189,0.124-0.207c0.106-0.021,0.151,0.143,0.24,0.158c0.194,0.032,0.373-0.202,0.469-0.329
	c0.069-0.091,0.062-0.12,0.132-0.193c0.055-0.057,0.14-0.074,0.192-0.144c0.283-0.375-0.203-0.48-0.333-0.756
	c-0.054-0.114-0.003-0.461-0.082-0.534c-0.1-0.093-0.41,0.012-0.536,0.046c-0.434,0.114-0.353,0.36-0.616,0.648
	c-0.168-0.127-0.257-0.284-0.447-0.401c-0.217-0.134-0.441-0.323-0.554-0.557c0.21-0.292,0.611-0.24,0.904-0.366
	c0.127-0.054,0.199-0.089,0.178-0.245c-0.014-0.105-0.2-0.192-0.203-0.271c-0.005-0.125,0.194-0.136,0.264-0.194
	c0.087-0.074,0.163-0.204,0.172-0.325c0.011-0.157-0.076-0.321-0.125-0.465c-0.037-0.109-0.257-0.171-0.375-0.164
	c-0.063-0.154,0.249-0.249,0.309-0.398c0.078-0.197,0.032-0.434-0.041-0.619c-0.195-0.492-0.31-0.948-0.364-1.478
	c-0.025-0.246-0.038-0.542-0.117-0.779c-0.101-0.304-0.399-0.431-0.363-0.791c0.02-0.196,0.152-0.625,0.319-0.725
	c0.127-0.076,0.436-0.001,0.362-0.262c-0.298-0.014-0.429,0.044-0.622-0.148c-0.192-0.193-0.316-0.265-0.592-0.317
	c0.175-0.261,0.359-0.404,0.48-0.712c0.088-0.223,0.231-0.51,0.477-0.592c0.14-0.273,0.311-0.765,0.168-1.054
	c-0.068-0.139-0.191-0.245-0.244-0.402c-0.074-0.222-0.053-0.49-0.042-0.72c0.018-0.379,0.025-0.759-0.006-1.137
	c-0.024-0.297-0.086-0.605,0-0.895c0.063-0.214,0.253-0.618,0.036-0.803c-0.294-0.252-0.671,0.041-0.743,0.34
	c-0.027,0.11,0.012,0.174-0.068,0.267c-0.114,0.134-0.534,0.16-0.622,0.024c-0.047-0.073,0.006-0.23-0.021-0.321
	c-0.022-0.073-0.088-0.134-0.11-0.212c-0.057-0.198-0.02-0.387,0.109-0.54c0.173-0.204,0.508-0.291,0.769-0.315
	c0.301-0.028,0.432,0.038,0.572-0.293c0.059-0.141,0.035-0.438,0.117-0.535c0.022-0.025,0.133-0.042,0.169-0.067
	c0.122-0.086,0.159-0.175,0.2-0.322c0.05-0.18,0.194-0.537,0.142-0.733c-0.05-0.186-0.304-0.259-0.307-0.464
	c-0.002-0.161,0.211-0.227,0.204-0.378c-0.008-0.16-0.308-0.178-0.404-0.267c-0.055-0.051-0.14-0.177-0.174-0.241
	c-0.12-0.221,0.027-0.488-0.071-0.69c-0.103-0.21-0.337-0.187-0.494-0.309c-0.198-0.155-0.185-0.456-0.097-0.677
	c0.161-0.401,0.471-0.4,0.789-0.587c0.153-0.089,0.274-0.354,0.432-0.382c0.217-0.414-0.646-0.433-0.852-0.329
	c-0.093-0.093-0.147-0.242-0.224-0.352c-0.155-0.22-0.199-0.293-0.123-0.582c0.112-0.425-0.023-0.907-0.001-1.346
	c0.018-0.354,0.076-0.694,0.057-1.048c-0.008-0.136-0.024-0.194,0.061-0.304c0.08-0.104,0.225-0.103,0.223-0.258
	c-0.002-0.117-0.153-0.188-0.221-0.265c-0.12-0.137-0.211-0.312-0.257-0.49c-0.077-0.296,0.003-0.446,0.121-0.687
	c0.116-0.24,0.015-0.297-0.141-0.474c-0.174-0.198-0.157-0.339-0.165-0.592c-0.006-0.197-0.015-0.325-0.118-0.487
	c-0.078-0.123-0.188-0.206-0.226-0.352c-0.044-0.166-0.061-0.473-0.052-0.622c0.012-0.189,0.073-0.182,0.192-0.325
	c0.014-0.164-0.128-0.424-0.18-0.579c-0.028-0.083-0.125-0.279-0.083-0.364c0.032-0.066,0.129-0.072,0.177-0.118
	c0.151-0.144,0.163-0.347,0.183-0.56c0.016-0.167,0.016-0.366,0.004-0.533c-0.023-0.325-0.259-0.615-0.503-0.86
	c-0.178-0.179-0.37-0.195-0.276-0.461c0.06-0.169,0.203-0.337,0.282-0.499c0.089-0.182,0.134-0.389,0.321-0.493
	c0.175-0.098,0.451-0.033,0.587-0.207c0.106-0.135-0.012-0.364,0.013-0.516c0.044-0.274,0.288-0.304,0.456-0.515
	c0.136-0.17,0.219-0.433,0.257-0.649c0.086-0.487-0.186-0.492-0.475-0.671c-0.424-0.263-0.187-0.735,0.088-1.052
	c0.199-0.229,1.089-0.583,0.934-0.966c-0.063-0.156-0.496-0.201-0.656-0.278c-0.226-0.108-0.469-0.259-0.585-0.479
	c0.094-0.23,0.31-0.502,0.52-0.646c0.167-0.114,0.082-0.064,0.285-0.076c0.184-0.011,0.746,0.201,0.641-0.137
	c-0.043-0.139-0.492-0.227-0.612-0.408c-0.104-0.157-0.041-0.271-0.043-0.429c-0.003-0.26-0.078-0.222-0.266-0.308
	c-0.453-0.206-0.045-0.32-0.07-0.656c-0.025-0.338-0.198-0.341-0.482-0.361c-0.226-0.015-0.485-0.114-0.701-0.112l-0.924,0.964
	c-0.414-0.004-1.02,0.052-1.294,0.411c-0.206,0.269-0.57,0.44-0.775,0.72c-0.134,0.184-0.224,0.323-0.389,0.486
	c-0.415,0.409-0.901,0.865-1.414,1.144c-0.334,0.182-0.727,0.211-1.086,0.315c-0.428,0.124-0.793,0.311-1.153,0.57
	c-0.555,0.399-1.283,0.603-1.96,0.603c-0.698,0.216-1.301,0.805-1.936,1.164c-0.4,0.226-0.821,0.458-1.19,0.758
	c-0.217,0.176-0.513,0.285-0.713,0.478c-0.262,0.254-0.226,0.429-0.665,0.261c-0.317-0.122-0.602-0.269-0.953-0.279
	c-0.192-0.006-0.314,0.071-0.493,0.119c-0.278,0.074-0.606,0.084-0.892,0.101c-0.475,0.029-0.946,0.065-1.423,0.065l-1.299,1.076
	l-1.137,0.02l-1.97,1.625c-0.351,0.027-0.561-0.185-0.815-0.352c-0.281-0.104-0.507-0.15-0.681-0.376
	c-0.068-0.088-0.144-0.261-0.254-0.311c-0.2-0.092-0.32,0.025-0.5-0.159c-0.091-0.094-0.178-0.225-0.287-0.3
	c-0.291-0.2-0.837-0.146-1.172-0.146c-0.395,0-0.775-0.008-1.158,0.041c-0.21,0.027-0.22-0.032-0.417-0.1
	c-0.23-0.079-0.709-0.079-0.968-0.046c-0.313,0.04-0.85,0.301-0.978,0.621c-0.085,0.211,0.017,0.478-0.02,0.698
	c-0.035,0.203-0.17,0.357-0.279,0.522c-0.257,0.389-0.188,0.837-0.411,1.248c-0.275,0.508-1.014,0.599-1.585,0.742
	c-0.506,0.126-1.086,0.021-1.574,0.18c-0.232,0.076-0.417,0.282-0.552,0.479c-0.145,0.21-0.204,0.302-0.472,0.311
	c-0.35,0.012-0.65-0.13-0.906-0.352c-0.149-0.13-0.223-0.21-0.432-0.171c-0.285,0.052-0.543,0.163-0.85,0.111
	c-0.493-0.082-1.049-0.293-1.491-0.54c-0.167-0.094-0.279-0.204-0.466-0.23c-0.353-0.05-0.611,0.086-0.935,0.173
	c-0.555,0.149-0.958-0.104-1.351-0.434c-0.154,0.073-0.202,0.514-0.275,0.678c-0.159,0.358-0.448,0.541-0.792,0.705
	c-0.299,0.142-0.573,0.297-0.839,0.494c-0.262,0.193-0.475,0.054-0.654-0.207c-0.065,0.032-0.122,0.079-0.168,0.135
	c-0.095,0.118-0.461,0.606-0.596,0.48c-0.073-0.068-0.012-0.414-0.028-0.52c-0.027-0.184-0.081-0.297-0.267-0.352
	c-0.311-0.091-0.844-0.053-1.126,0.098c-0.238,0.127-0.611,0.464-0.918,0.353c-0.262-0.094-0.185-0.313-0.521-0.301
	c-0.295,0.01-0.489-0.021-0.631-0.31c-0.133-0.271-0.03-0.411,0.031-0.683c0.071-0.316-0.282-0.387-0.219-0.698
	c-0.266,0.144-0.434,0.251-0.62-0.035c-0.073-0.112-0.096-0.251-0.077-0.382c-0.18,0.103-0.357,0.223-0.536,0.324
	c-0.153-0.179-0.096-0.428-0.266-0.608c-0.32-0.34-0.717-0.32-1.16-0.386c-0.012-0.094-0.002-0.182-0.008-0.277
	c-0.173-0.041-0.366-0.019-0.546-0.055c-0.192-0.038-0.409-0.128-0.604-0.068c-0.306,0.094-0.278,0.42-0.487,0.592
	c-0.073,0.061-0.301,0.055-0.379,0.068c-0.231,0.04-0.436,0.137-0.647,0.245c0.032,0.188-0.197,0.548-0.361,0.637
	c-0.325,0.175-0.735-0.093-1.076,0.026c-0.081,0.028-0.124,0.091-0.206,0.102c-0.087,0.012-0.172-0.052-0.246-0.037
	c-0.065,0.013-0.128,0.124-0.213,0.142c-0.103,0.021-0.357-0.029-0.433-0.066c-0.261,0.065-0.357,0.13-0.654,0.146
	c-0.208,0.011-0.278,0.156-0.484,0.08c-0.112-0.041-0.165-0.105-0.247-0.182l-4.284-0.02c0,0.324,0.04,0.648,0.04,0.972
	c0,0.482-0.079,0.854-0.2,1.316c-0.123,0.468-0.094,0.907-0.287,1.365c-0.176,0.419-0.251,0.785-0.321,1.237
	c-0.03,0.197-0.041,0.379-0.18,0.529c-0.14,0.151-0.375,0.236-0.549,0.339c-0.388,0.228-0.626,0.64-1.012,0.897
	c-0.326,0.217-0.375,0.465-0.199,0.805c0.145,0.28,0.061,0.592,0.008,0.905c-0.055,0.327,0.018,0.573,0.02,0.903
	c0.002,0.273-0.077,0.253-0.21,0.423c-0.126,0.16-0.053,0.264,0.027,0.443c0.091,0.204,0.085,0.461,0.214,0.647
	c0.104,0.15,0.275,0.266,0.415,0.377c0.254,0.202,0.136,0.364,0.182,0.663c0.035,0.23,0.177,0.364,0.274,0.555
	c0.081,0.162,0.033,0.356,0.091,0.513c0.081,0.218,0.129,0.315,0.075,0.583c-0.063,0.308-0.207,0.596-0.305,0.893
	c-0.104,0.315-0.121,0.65-0.173,0.976c-0.067,0.416-0.037,0.706,0.161,1.076c0.183,0.343,0.364,0.58,0.366,0.986
	c0.001,0.173-0.143,0.287-0.188,0.443c-0.061,0.209-0.042,0.442-0.01,0.656c0.039,0.26,0.088,0.519,0.117,0.78
	c0.026,0.236-0.026,0.397-0.041,0.623c-0.024,0.358,0.472,0.564,0.668,0.85c0.21,0.305,0.145,0.711,0.145,1.075l2.498,2.508
	l1.919,2.574l2.345,2.742l0.457,1.112l3.853,4.66c0.063,0.199,0.054,0.388,0.061,0.593c0.008,0.252,0.066,0.507,0.106,0.753
	c0.023,0.142,0.119,0.329,0.047,0.47c-0.067,0.132-0.168,0.075-0.275,0.117v0.549h0.533l-0.975,2.269
	c-0.036,0.289,0.086,0.683,0.006,0.958c-0.054,0.188-0.229,0.277-0.265,0.489l0.549,2.406l-0.533,6.153l0.107,0.762l-1.051,0.807
	c-0.292,0-0.517-0.002-0.781,0.105c-0.299,0.121-0.722,0.452-1.017,0.182c-0.154,0.138-0.052,0.582-0.393,0.499
	c-0.259-0.063-0.225-0.412-0.43-0.538c-0.179-0.109-0.605-0.065-0.779,0.033c-0.207,0.116-0.418,0.247-0.569,0.428
	c-0.158,0.189-0.416,0.326-0.553,0.519c-0.161,0.228-0.186,0.637-0.252,0.903c-0.034,0.136-0.127,0.297-0.14,0.432
	c-0.014,0.145,0.084,0.14,0.133,0.255c0.064,0.149-0.057,0.208-0.143,0.32c-0.095,0.125-0.093,0.22-0.103,0.374
	c-0.019,0.299-0.056,0.604-0.046,0.903c-0.36,0.124-0.656,0.392-0.956,0.609c-0.163,0.118-0.346,0.357-0.323,0.579
	c0.112,0.074,0.098,0.227,0.159,0.334c0.076,0.133,0.193,0.191,0.316,0.275c0.33,0.225,0.743,0.264,0.935,0.664
	c0.18,0.375-0.082,0.872,0.101,1.241c0.084,0.168,0.233,0.303,0.202,0.509c-0.031,0.205-0.2,0.424-0.297,0.605
	c-0.116,0.217-0.159,0.313-0.021,0.519c0.125,0.187,0.156,0.367,0.219,0.574v1.554h-2.178c-0.141-0.025-0.198-0.069-0.148-0.181
	c0.026-0.058,0.118-0.061,0.141-0.137c0.029-0.093-0.027-0.151-0.08-0.224c-0.126-0.174-0.316-0.341-0.339-0.568
	c-0.028-0.285,0.183-0.37,0.392-0.494c0.169-0.1,0.211-0.274,0.378-0.385c0.119-0.079,0.365-0.081,0.452-0.189
	c0.099-0.124-0.018-0.253-0.036-0.379c-0.042-0.3-0.027-0.522-0.182-0.804c-0.229-0.414-0.814-0.06-1.208-0.16
	c-0.216-0.055-0.396-0.206-0.504-0.394c-0.107-0.186-0.13-0.409-0.367-0.469c-0.143-0.036-0.361,0.038-0.489-0.057
	c-0.139-0.103-0.05-0.361-0.155-0.495c-0.117-0.15-0.344-0.104-0.464-0.288c-0.146-0.226-0.104-0.604-0.314-0.78
	c-0.182-0.152-0.497-0.058-0.654-0.24c-0.074-0.086-0.07-0.249-0.099-0.358c-0.036-0.137-0.086-0.251-0.166-0.37
	c-0.133-0.197-0.393-0.183-0.617-0.244c-0.234-0.065-0.27-0.153-0.261-0.4c0.012-0.297-0.202-0.187-0.347-0.242
	c-0.161-0.061-0.37-0.323-0.484-0.467c-0.14-0.176-0.129-0.379-0.199-0.584c-0.073-0.212-0.21-0.546-0.366-0.717
	c-0.186-0.204-0.29-0.028-0.52-0.045c-0.259-0.019-0.543-0.254-0.704-0.445c-0.237-0.282-0.371-0.839-0.396-1.197
	c-0.023-0.323,0.161-0.591,0.226-0.898c0.083-0.395-0.172-0.331-0.408-0.537c-0.253-0.22-0.489-0.482-0.623-0.789
	c-0.099-0.226-0.179-0.276-0.419-0.368c-0.355-0.137-0.474-0.392-0.42-0.795c0.02-0.145,0.116-0.299,0.186-0.43
	c0.126-0.233,0.296-0.506,0.475-0.702c0.167-0.183,0.498-0.162,0.7-0.325c0.165-0.134,0.175-0.381,0.31-0.541
	c0.082-0.097,0.2-0.121,0.302-0.199c0.117-0.09,0.149-0.176,0.175-0.325c0.034-0.197-0.017-0.39,0-0.583
	c0.017-0.202-0.085-0.383-0.137-0.578c-0.051-0.188-0.107-0.35-0.092-0.548c0.015-0.206,0.067-0.382,0.179-0.553
	c0.117-0.177,0.149-0.176,0.347-0.179c0.189-0.003,0.206-0.126,0.358-0.206c0.083-0.044,0.131-0.02,0.183-0.114
	c0.049-0.088,0.015-0.243,0.037-0.343c0.095-0.437,0.758-0.585,0.799-1.103c0.018-0.22-0.01-0.471-0.066-0.683
	c-0.044-0.163-0.134-0.292-0.181-0.463c-0.031-0.112-0.052-0.221-0.057-0.336c-0.013-0.251,0.13-0.231,0.291-0.376
	c-0.053-0.106-0.151-0.188-0.2-0.291c0.052-0.262,0.253-0.52,0.351-0.77c0.154-0.396-0.155-0.788-0.367-1.116
	c-0.286-0.446,0.047-0.983-0.029-1.494c-0.023-0.157-0.121-0.288-0.195-0.418c-0.068-0.119-0.12-0.248-0.19-0.367
	c-0.054-0.093-0.211-0.255-0.232-0.358c-0.029-0.146,0.162-0.299,0.221-0.434c0.084-0.191,0.026-0.355,0.03-0.556
	c0.005-0.261-0.239-0.428-0.446-0.569c-0.23-0.157-0.4-0.26-0.522-0.509c-0.176-0.359-0.33-0.894-0.643-1.16
	c-0.194-0.165-0.507-0.164-0.75-0.138c-0.288,0.031-0.452,0.273-0.714,0.368c-0.09,0.033-0.164,0.012-0.258,0.029
	c-0.145,0.025-0.266,0.145-0.412,0.181c-0.339,0.082-0.893-0.135-1.198,0.094c-0.093,0.07-0.092,0.231-0.171,0.308
	c-0.092,0.09-0.207,0.057-0.341,0.057c-0.478,0-0.955-0.058-1.429-0.046c-0.14,0.004-0.176,0.067-0.278,0.145
	c-0.18,0.137-0.339,0.183-0.555,0.236c-0.321,0.08-0.466,0.434-0.816,0.229c-0.15-0.088-0.263-0.199-0.432-0.26
	c-0.182-0.066-0.218,0.015-0.251,0.196c-0.024,0.131-0.021,0.276-0.029,0.41c-0.013,0.188-0.117,0.277-0.262,0.386
	c-0.278,0.209-0.49,0.012-0.621-0.273c-0.147-0.321-0.008-0.805-0.366-1.031c-0.15-0.095-0.332-0.041-0.453-0.183
	c-0.124-0.146-0.126-0.363-0.28-0.494c-0.172-0.147-0.422-0.13-0.603-0.247c-0.215-0.139-0.258-0.367-0.324-0.592
	c-0.112-0.378-0.304-0.741-0.474-1.097c-0.07-0.146-0.136-0.271-0.241-0.399c-0.054-0.067-0.138-0.223-0.215-0.251
	c-0.032-0.011-0.047,0.024-0.076,0.012c-0.191-0.076-0.324-0.193-0.426-0.396c-0.117-0.232-0.225-0.465-0.14-0.696
	c0.064-0.176,0.155-0.487,0.034-0.649c-0.087-0.116-0.264-0.127-0.375-0.208c-0.13-0.095-0.182-0.296-0.33-0.365
	c-0.255-0.118-0.507,0.217-0.742,0.273l-5.285,1.827l-2.726,1.157l-2.132,0.457l-3.259,0.96l-1.675,0.853l-1.584,0.396l-2.026,1.188
	l-7.63,1.934l-4.691,1.98l-1.736,0.457c-0.019,0.28,0.161,0.422,0.063,0.698c-0.029,0.082-0.074,0.19-0.079,0.276
	c-0.007,0.146,0.103,0.23,0.137,0.358c0.038,0.138,0.015,0.212,0.102,0.341c0.078,0.116,0.173,0.212,0.218,0.349
	c0.056,0.167,0.029,0.344,0.063,0.516c0.039,0.2,0.136,0.393,0.258,0.555c0.212,0.279,0.493,0.534,0.745,0.778
	c0.223,0.218,0.199,0.284,0.199,0.608c0,0.163-0.007,0.323-0.014,0.485c-0.007,0.168,0.018,0.18,0.088,0.305
	c0.113,0.202,0.144,0.51,0.004,0.7c-0.27,0.368-0.106,0.408,0.155,0.728c0.113,0.139,0.244,0.251,0.255,0.431v4.447l5.711-0.031
	l0.594,0.731l0.792-0.716c0.101,0,0.087,0.135,0.198,0.169c0.194,0.061,0.547-0.244,0.73-0.293c0.227-0.061,0.369-0.037,0.586,0.026
	c0.304,0.088,0.62,0.13,0.935,0.167c0.242,0.028,0.361,0.024,0.534,0.198c0.145,0.146,0.109,0.307,0.194,0.487
	c0.093,0.196,0.296,0.371,0.466,0.499c0.162,0.122,0.376,0.199,0.461,0.383c0.098,0.211,0.127,0.165,0.372,0.154
	c0.135-0.006,0.287-0.014,0.415,0.042c0.102,0.044,0.168,0.117,0.276,0.148c0.195,0.055,0.428,0.016,0.63,0.049
	c0.312,0.051,0.611,0.147,0.926,0.192c0.241,0.034,0.579-0.031,0.791,0.09c0.159,0.091,0.286,0.305,0.406,0.433
	c0.145,0.154,0.326,0.277,0.487,0.412c0.041,0.035,0.113,0.072,0.135,0.125c0.026,0.063-0.026,0.153,0.003,0.213
	c0.088,0.184,0.502,0.138,0.669,0.296c0.157,0.148,0.085,0.433,0.156,0.627c0.102,0.284,0.43,0.379,0.696,0.467
	c0.242,0.081,0.504,0.173,0.762,0.158l2.726-0.061l3.168,1.051l1.569,0.807c0,0.355-0.228,0.737,0.096,1.007
	c0.238,0.199,0.527,0.274,0.832,0.274c0.208,0,0.44-0.085,0.643-0.038c0.14,0.032,0.235,0.134,0.39,0.113
	c0.132-0.018,0.201-0.127,0.323-0.169c0.256-0.089,0.587,0.032,0.853,0.016l-0.914,2.269l-0.868,0.29
	c0.14,0.31,0.499,0.584,0.692,0.863c0.282,0.408,0.535,0.813,0.759,1.257c0.183,0.364,0.222,0.647,0.273,1.042
	c0.027,0.209,0.042,0.417,0.066,0.627c0.019,0.168-0.025,0.418,0.031,0.574c0.078,0.219,0.505,0.344,0.526,0.582
	c0.013,0.144-0.203,0.308-0.288,0.398c-0.132,0.141-0.175,0.279-0.186,0.474c-0.01,0.172,0.026,0.306-0.082,0.457
	c-0.085,0.117-0.205,0.196-0.244,0.343c-0.091,0.345,0.135,0.717,0.388,0.916c0.148,0.116,0.309,0.227,0.385,0.407
	c0.085,0.201-0.081,0.284-0.143,0.467c-0.062,0.181-0.003,0.382-0.031,0.565c-0.027,0.186-0.242,0.296-0.213,0.486
	c0.035,0.229,0.231,0.211,0.179,0.468c-0.058,0.289-0.344,0.208-0.531,0.402c-0.156,0.162-0.208,0.363-0.254,0.581
	c-0.03,0.141-0.128,0.471,0.007,0.576c0.076,0.059,0.229,0.015,0.289,0.132c0.115,0.226-0.11,0.446-0.239,0.594
	c-0.089,0.101-0.16,0.167-0.164,0.3c-0.002,0.069,0.037,0.124,0.026,0.203c-0.014,0.097-0.114,0.185-0.092,0.29
	c0.036,0.169,0.247,0.356,0.322,0.528c0.096,0.22,0.059,0.458,0.156,0.666c0.099,0.214,0.32,0.329,0.409,0.559
	c0.117,0.301,0.031,0.543-0.029,0.833c-0.092,0.442,0.619,0.705,0.489,1.134c-0.051,0.168-0.208,0.229-0.293,0.37
	c-0.086,0.143-0.076,0.293-0.076,0.452c0.001,0.276,0.049,0.629-0.317,0.686c-0.127,0.02-0.17-0.051-0.292-0.076
	c-0.193-0.039-0.322,0.112-0.475,0.199c-0.155,0.088-0.382,0.127-0.504,0.254c0.051,0.078,0.138,0.105,0.156,0.2
	c0.028,0.147-0.009,0.287,0,0.437c0.01,0.162,0.067,0.211,0.165,0.341c0.126,0.167,0.257,0.348,0.367,0.53
	c0.171,0.281,0.216,0.376,0.138,0.683c-0.066,0.26-0.07,0.643-0.267,0.844c-0.125,0.128-0.393,0.219-0.564,0.212
	c-0.217-0.009-0.375-0.164-0.594-0.146c-0.287,0.023-0.582,0.171-0.852,0.257c-0.154,0.049-0.471,0.128-0.544,0.282
	c0.227,0.237,0.57,0.827,0.306,1.13c-0.095,0.109-0.221,0.123-0.243,0.281c-0.019,0.132,0.05,0.32,0.067,0.453
	c0.008,0.06,0.009,0.318,0.062,0.374c0.119,0.124,0.698-0.089,0.875-0.102c0.132-0.01,0.508-0.072,0.579,0.055
	c0.049,0.087-0.07,0.212-0.049,0.305c0.019,0.085,0.124,0.152,0.181,0.212c0.136,0.141,0.299,0.265,0.279,0.477
	c-0.035,0.366-0.065,0.696-0.17,1.051c-0.091,0.308-0.196,0.608-0.288,0.915c-0.071,0.238-0.077,0.493-0.231,0.701
	c-0.115,0.156-0.354,0.22-0.415,0.396c-0.042,0.122,0.014,0.261,0.008,0.382c-0.008,0.146-0.097,0.225-0.137,0.36
	c-0.088,0.302,0.104,0.352,0.318,0.442c0.426,0.179,0.611,0.581,0.595,1.038v0.244c-0.157,0.157-0.107,0.263-0.046,0.441
	c0.084,0.245-0.195,0.353-0.153,0.579c0.05,0.27,0.572,0.253,0.711,0.218c0.158-0.039,0.313-0.134,0.473-0.18
	c0.166-0.047,0.28-0.137,0.324,0.067c0.046,0.214-0.077,0.278-0.121,0.455c-0.047,0.189,0.094,0.211,0.239,0.323
	c0.193,0.149,0.37,0.319,0.565,0.466c0.188,0.143,0.196,0.179,0.161,0.424c-0.075,0.533-0.259,1.073-0.283,1.608
	c-0.008,0.173,0.001,0.349,0.001,0.522c0,0.094,0.059,0.464-0.028,0.53c-0.051,0.039-0.303-0.002-0.362,0.001
	c-0.181,0.012-0.369,0.017-0.549,0.039c-0.248,0.03-0.282,0.073-0.143,0.263c0.209,0.284,0.062,0.547-0.281,0.465
	c-0.17-0.041-0.376-0.024-0.468,0.17c-0.046,0.097,0.012,0.171,0.034,0.26c0.031,0.127,0.045,0.257,0.03,0.389
	c-0.031,0.273-0.298,0.261-0.152,0.568c0.054,0.115,0.106,0.182,0.122,0.312c0.017,0.134-0.015,0.267,0.045,0.394
	c-0.06,0.231-0.389,0.352-0.554,0.504c-0.17,0.157-0.205,0.285-0.271,0.511c-0.086,0.295-0.286,0.591-0.449,0.85
	c-0.209,0.333-0.398,0.681-0.611,1.008c-0.185,0.284-0.34,0.392-0.674,0.423c-0.358,0.033-0.757-0.008-1.082,0.167
	c-0.298,0.161-0.477,0.502-0.591,0.809c-0.102,0.276,0.018,0.61,0.04,0.903c0.032,0.426,0.141,0.809,0.221,1.226
	c0.066,0.343,0.012,0.732,0.102,1.061c0.063,0.231-0.087,0.574-0.224,0.771c-0.087,0.126-0.199,0.214-0.296,0.33
	c-0.109,0.131-0.174,0.29-0.268,0.431c-0.171,0.256-0.403,0.496-0.612,0.719c-0.135,0.143-0.342,0.39-0.22,0.598
	c0.081,0.138,0.305,0.146,0.326,0.311c0.013,0.101-0.075,0.18-0.065,0.282c0.015,0.161,0.194,0.337,0.274,0.477
	c0.093,0.162,0.177,0.331,0.27,0.492c0.119,0.206,0.238,0.427,0.427,0.572c-0.108-0.061-0.193-0.149-0.318-0.153
	c-0.179-0.007-0.335,0.136-0.512,0.136l-11.245,12.377l-1.036,0.69l2.802,9.016c0.169,0.275,0.041,0.696,0.041,1.011
	c0,0.286,0.002,0.558-0.064,0.836c-0.131,0.557-0.256,1.477,0.064,1.991l1.462,1.766l0.03,1.158
	c0.127,0.494,0.493,0.893,0.628,1.384c0.09,0.327,0.206,0.605,0.487,0.801c0.104,0.072,0.232,0.141,0.331,0.226
	c0.15,0.127,0.27,0.29,0.397,0.433c0.262,0.294,0.258,0.557,0.259,0.945c0,0.347,0.086,0.662,0.117,1.001
	c0.022,0.249,0.08,0.41,0.133,0.644c0.042,0.187,0.027,0.34,0.114,0.517c0.077,0.157,0.205,0.322,0.29,0.485
	c0.067,0.128,0.134,0.232,0.219,0.347c0.108,0.146,0.174,0.317,0.284,0.466c-0.047,1.515,0.028,3.018,0.102,4.531
	c0.105,2.147,0.595,4.319,0.333,6.475c-0.057,0.469-0.054,0.93-0.09,1.402c-0.044,0.566-0.306,1.012-0.518,1.512
	c-0.178,0.419,0.149,0.837,0.213,1.28c0.064,0.442-0.009,0.927,0.091,1.37l-0.761,2.01c0.426,0.349,0.233,1.162,0.537,1.629
	c0.192,0.296,0.444,0.301,0.764,0.352c0.387,0.063,0.443,0.034,0.443,0.426c-0.001,0.257-0.025,0.525-0.007,0.784
	c0.026,0.358,0.153,0.648,0.152,1.02c-0.001,0.282,0.036,0.595-0.03,0.864c-0.088,0.358-0.241,0.642-0.244,1.03
	c-0.006,0.854,0.248,1.465,0.548,2.242v3.99c0.364,0,0.632,0.533,0.964,0.123c0.177-0.219,0.197-0.154,0.437-0.052
	c0.266,0.114,0.566,0.104,0.843,0.182l6.275,0.024c0.113-0.238,0.015-0.603,0.04-0.868c0.037-0.409,0.052-0.827,0.062-1.24
	c0.011-0.444-0.045-0.909,0.031-1.345c0.061-0.356,0.138-0.712,0.183-1.073c0.064-0.503-0.03-1.02,0.111-1.51
	c0.182-0.632,0.316-1.267,0.345-1.929c0.022-0.491,0.062-1.112-0.145-1.54c-0.338-0.053-0.548,0.368-0.698,0.624
	c-0.25,0.428-0.274,0.821-0.274,1.311c0,0.172,0.056,0.345-0.144,0.375c-0.307,0.046-0.615-0.361-0.73-0.577
	c-0.188-0.352-0.26-0.468-0.619-0.63c-0.291-0.132-0.491-0.265-0.609-0.582c-0.119-0.318-0.142-0.678-0.379-0.933
	c-0.298-0.321-0.719-0.457-0.866-0.902c0.108-0.132,0.282-0.152,0.404-0.27c0.112-0.109,0.182-0.263,0.285-0.382
	c0.285-0.33,0.694-0.622,0.912-1.001c0.15-0.261,0.053-0.589,0.163-0.854c0.072-0.173,0.21-0.316,0.29-0.487
	c0.112-0.242,0.193-0.487,0.288-0.736c0.237-0.618,0.668-1.177,1.071-1.696c0.477-0.613,1.285-0.93,1.922-1.351
	c0.381-0.252,0.793-0.473,1.179-0.718c0.264-0.168,0.595-0.456,0.875-0.556c0.284-0.496,1.8-1.098,2.327-1.24
	c0.6-0.162,1.174-0.317,1.744-0.555c0.847-0.354,1.574-0.932,2.398-1.331c0.934-0.452,1.99-0.687,2.974-0.998
	c1.019-0.321,2.007-0.733,2.983-1.149c0.84-0.358,1.689-0.813,2.58-1.035c0.373-0.093,0.825-0.103,1.174-0.249
	c0.355-0.148,0.681-0.412,1.041-0.571c1.461-0.646,3.597-1.038,4.406-2.599c0.257-0.496,0.62-0.918,0.933-1.368
	c0.443-0.638,0.894-1.227,1.302-1.884c0.417-0.674,1.038-1.087,1.253-1.891c0.152-0.569,0.172-1.165,0.331-1.727
	c0.115-0.407,0.632-1.736,0.243-2.065c-0.224-0.029-0.825-0.442-0.63,0.098c0.076,0.212,0.123,0.206-0.076,0.34
	c-0.243,0.164-0.152,0.125-0.17,0.371c-0.279,0.046-0.672-0.514-0.847-0.179c-0.044,0.085-0.008,0.245-0.024,0.339
	c-0.025,0.147-0.074,0.285-0.138,0.423c-0.101,0.216-0.244,0.467-0.433,0.197c-0.194-0.277-0.025-0.49,0.063-0.762
	c0.086-0.266,0.053-0.546,0.106-0.822c0.081-0.425,0.32-0.815,0.159-1.262c0.315-0.085,0.088,0.441,0.34,0.45
	c0.14,0.005,0.155-0.157,0.174-0.257c0.035-0.179,0.031-0.244,0.111-0.401c0.098-0.191,0.175-0.287,0.167-0.525
	c-0.006-0.181-0.064-0.349-0.089-0.526c-0.052-0.365-0.072-0.811-0.055-1.18c0.032-0.692,0.597-1.366,0.721-2.069
	c0.133-0.756-0.131-1.612,0.084-2.345c0.19-0.65,0.67-1.211,0.952-1.82c0.086-0.185,0.296-0.57,0.197-0.761
	c-0.078-0.152-0.323-0.165-0.444-0.267c-0.122-0.102-0.18-0.226-0.237-0.373c-0.284-0.729-0.312-1.596-0.354-2.367
	c-0.047-0.871-0.038-1.701,0.259-2.537c0.17-0.481,0.152-1.054,0.152-1.567c0-0.464-0.112-0.891-0.152-1.327
	c-0.011-0.117-0.017-0.186-0.067-0.293c-0.052-0.112-0.123-0.213-0.167-0.329c-0.054-0.145-0.032-0.303-0.07-0.453
	c-0.024-0.093-0.115-0.32-0.204-0.364c-0.092-0.046-0.254,0.031-0.314,0.11c-0.117,0.154-0.207,0.354-0.29,0.527
	c-0.099,0.207-0.225,0.337-0.373,0.514c-0.08,0.095-0.226,0.423-0.401,0.361c-0.084-0.03-0.18-0.18-0.221-0.261
	c-0.091-0.178-0.064-0.433-0.05-0.623c0.032-0.425,0.148-0.923-0.046-1.33c-0.175-0.367-0.056-0.899-0.15-1.288
	c-0.072-0.298-0.187-0.573-0.246-0.874c-0.068-0.344-0.046-0.675-0.062-1.023c-0.022-0.464-0.062-0.922-0.084-1.385
	c-0.021-0.433-0.204-0.741-0.452-1.092c-0.397-0.558-0.916-0.938-1.162-1.591c-0.188-0.498-0.208-0.982-0.208-1.509
	c0-0.132-0.051-0.289-0.048-0.423c-0.12,0.172-0.173,0.377-0.287,0.547c-0.106-0.104-0.102-0.473-0.107-0.625
	c-0.005-0.159,0.027-0.234,0.107-0.367c0.084-0.14,0.158-0.254,0.052-0.41c-0.101-0.149-0.341-0.153-0.441-0.3
	c-0.117-0.173,0.133-0.247,0.064-0.396c-0.027-0.057-0.169-0.068-0.218-0.098c-0.138-0.084-0.162-0.182-0.173-0.338
	c-0.027-0.387,0.195-0.285,0.492-0.332c0.116-0.018,0.14-0.007,0.198-0.132c0.049-0.106,0.064-0.187-0.035-0.249
	c0.059-0.335,0.256-0.585,0.274-0.935c0.01-0.197,0.007-0.403-0.006-0.598c-0.132-0.105-0.308,0.01-0.414-0.064
	c-0.12-0.084-0.134-0.348-0.219-0.474c-0.107-0.158-0.288-0.24-0.399-0.388c-0.096-0.127-0.135-0.325-0.2-0.466
	c0.233-0.135,0.026-0.244-0.011-0.393c-0.03-0.122,0.025-0.41-0.051-0.506c-0.032-0.04-0.43-0.184-0.503-0.203
	c-0.183-0.049-0.375-0.033-0.568-0.042c0.025-0.108,0.07-0.223,0.116-0.33c0.131,0.08,0.603,0.159,0.583-0.109
	c-0.015-0.206-0.495-0.325-0.645-0.379c-0.131,0.179-0.255,0.37-0.426,0.519c-0.126-0.2-0.052-0.411-0.246-0.602
	c-0.208-0.205-0.523-0.321-0.722-0.535c-0.157-0.169-0.177-0.413-0.316-0.587c-0.207-0.258-0.314-0.108-0.613-0.068
	c0.027-0.197,0.234-0.384,0.194-0.619c-0.039-0.232-0.228-0.265-0.366-0.455c-0.099-0.135-0.188-0.199-0.031-0.326
	c0.103-0.082,0.221-0.203,0.229-0.34c0.008-0.118-0.006-0.223-0.073-0.324c-0.032-0.048-0.097-0.099-0.103-0.16
	c-0.015-0.162,0.227-0.236,0.26-0.381c0.03-0.135,0.173-0.303,0.251-0.423c0.129-0.199,0.239-0.407,0.292-0.643
	c0.05-0.225,0.07-0.446,0.13-0.669c0.051-0.191,0.114-0.421,0.083-0.624c-0.021-0.137-0.117-0.26-0.142-0.404
	c-0.025-0.147-0.013-0.344,0-0.493c0.029-0.317,0.122-0.619,0.141-0.938c0.011-0.187-0.039-0.354-0.179-0.487
	c-0.208-0.197-0.417,0.027-0.628-0.061c0.253-0.241,0.695-0.19,0.847-0.551c0.111-0.265,0.004-0.455-0.151-0.697
	c-0.138-0.215-0.254-0.38-0.491-0.491c-0.256-0.12-0.391-0.147-0.404-0.457c-0.013-0.311-0.277-0.445-0.442-0.684
	c0.177,0.028,0.462,0.138,0.568,0.291c0.096,0.138,0.074,0.324,0.151,0.469c0.093,0.174,0.345,0.222,0.523,0.293
	c0.207,0.082,0.419,0.127,0.587,0.288c0.217,0.208,0.229,0.541,0.395,0.785c0.219,0.323,0.502,0.215,0.772,0.007
	c0.631-0.486,1.373-0.855,1.984-1.388c0.531-0.464,1.394-0.846,1.897-1.328c0.537-0.516,0.852-1.168,1.394-1.676
	c1.195-1.121,2.254-2.368,3.289-3.644c0.441-0.544,0.736-1.033,1.369-1.377c0.551-0.299,1.068-0.694,1.616-0.97
	c0.095-0.173,0.261-0.512,0.512-0.445c-0.071,0.367,0.733,0.047,0.872,0.005c0.161-0.05,0.328-0.065,0.486-0.119
	c0.219-0.075,0.235-0.241,0.252-0.45c0.146,0.129,0.114,0.348,0.32,0.392c0.246,0.054,0.633-0.093,0.87-0.147
	c0.185-0.041,0.422-0.004,0.466-0.226c0.038-0.192-0.082-0.446-0.189-0.595c0.387,0.194,0.458,0.57,0.873,0.118
	c0.337-0.367,0.33-0.658,0.33-1.121c0-0.499,0.175-0.769,0.553-1.071c0.178-0.142,0.402-0.451,0.296-0.706
	c-0.076-0.182-0.277-0.172,0.012-0.325c0.366-0.193,0.657-0.357,0.969-0.651c0.387-0.364,0.781-0.707,1.156-1.085
	c0.275-0.277,0.599-0.505,0.853-0.802c0.095-0.111,0.166-0.264,0.268-0.36c0.148-0.139,0.267-0.281,0.39-0.441
	c0.141-0.184,0.467-0.449,0.456-0.698c-0.111-0.004-0.167,0.101-0.257,0.161c-0.152,0.102-0.33,0.157-0.511,0.182
	c0.017-0.16,0.239-0.269,0.349-0.376c0.101-0.099,0.206-0.278,0.334-0.343c0.141-0.071,0.267,0.013,0.414-0.009
	c0.261-0.039,0.39-0.318,0.533-0.501c0.145-0.185,0.301-0.362,0.477-0.516c0.117-0.103,0.214-0.154,0.206-0.318
	c-0.01-0.243-0.221-0.318-0.406-0.414c0.078-0.106,0.198-0.161,0.318-0.185c0.287-0.057,0.377,0.014,0.577-0.289
	c0.164-0.251,0.282-0.511,0.489-0.73c0.219-0.233,0.434-0.414,0.607-0.688c0.199-0.314,0.396-0.665,0.685-0.906
	c0.259-0.216,0.515-0.408,0.767-0.634c0.4-0.358,0.859-0.812,1.429-0.834c0.448-0.017,0.825-0.479,1.238-0.655
	c0.199-0.085,0.374-0.181,0.559-0.283c0.081-0.044,0.178-0.076,0.255-0.128c0.116-0.077,0.106-0.181,0.181-0.261
	c0.14-0.151,0.299-0.007,0.507-0.072c0.401-0.125,0.63-0.604,0.968-0.828c0.429-0.285,0.948-0.263,1.393-0.497
	c0.282-0.148,0.522-0.378,0.811-0.514c0.23-0.108,0.463-0.197,0.691-0.311c0.262-0.132,0.534-0.247,0.827-0.28
	c0.159-0.018,0.398-0.006,0.546-0.076c0.218-0.103,0.171-0.248,0.152-0.425c-0.024-0.217,0.047-0.328,0.157-0.531
	c0.144,0.133,0.288,0.244,0.486,0.293c0.382,0.093,0.639-0.271,0.952-0.44c0.373-0.2,0.794-0.307,1.182-0.474
	c0.185-0.08,0.422-0.248,0.63-0.244c0.547,0.009,1.001-0.429,1.541-0.523c0.343-0.059,0.688-0.149,1.018-0.264
	c0.265-0.093,0.229-0.111,0.374-0.367c0.311,0.133,0.632,0.207,0.966,0.058c0.208-0.093,0.466-0.085,0.686-0.141
	c0.233-0.059,0.48-0.062,0.711-0.122c0.389-0.102,0.66-0.42,1.08-0.448c0.334-0.022,0.882,0.194,1.138-0.056
	c0.154-0.15,0.318-0.555,0.281-0.763c-0.022-0.125-0.131-0.098-0.06-0.252c0.041-0.091,0.227-0.21,0.304-0.283
	c0.323-0.306,0.734-0.537,1.095-0.8c0.116-0.085,0.158-0.134,0.227-0.229c0.072-0.099,0.02-0.122,0.165-0.197
	c0.065-0.033,0.143-0.031,0.213-0.056c0.571-0.213,1.138-0.596,1.668-0.9c0.926-0.531,1.784-1.193,2.67-1.788
	c0.566-0.38,1.132-0.809,1.763-1.071c-0.122-0.12-0.174-0.325-0.279-0.467c-0.172-0.232-0.333-0.438-0.391-0.732
	c-0.028-0.142-0.102-0.448-0.039-0.587c0.114-0.25,0.575-0.261,0.788-0.411c0.225-0.157,0.268-0.551,0.505-0.633
	c0.196-0.068,0.197,0.055,0.325,0.151c0.14,0.103,0.302,0.113,0.487,0.1c0.226-0.016,0.342-0.109,0.457-0.299
	c0.133-0.222,0.105-0.302,0.365-0.35c0.259-0.048,0.363-0.052,0.419-0.341c0.053-0.272,0.075-0.492,0.23-0.731
	c0.158-0.243,0.423-0.419,0.483-0.723c0.041-0.205-0.06-0.215-0.141-0.366c-0.055-0.102-0.074-0.276-0.002-0.379
	c0.07-0.099,0.147-0.067,0.223-0.128c0.176-0.139,0.346-0.371,0.45-0.562c0.117-0.215,0.353-0.362,0.532-0.532
	c0.208-0.198,0.351-0.302,0.61-0.432c0.331-0.165,0.519-0.473,0.738-0.764c0.308-0.408,0.406-0.923,0.744-1.305
	c0.309-0.35,0.601-0.793,0.968-1.078c0.226-0.175,0.38-0.314,0.504-0.571c0.163-0.34,0.097-0.689,0.287-1.022
	c0.405-0.71,1.355-1.499,0.811-2.364c-0.086-0.136-0.212-0.275-0.34-0.371c-0.196-0.147-0.223-0.088-0.391,0.079
	c-0.142,0.142-0.516,0.399-0.706,0.176c-0.161-0.188-0.129-0.59,0.091-0.73c0.205-0.13,0.464-0.055,0.666-0.187
	c0.096-0.063,0.164-0.193,0.269-0.239c0.132-0.057,0.343-0.021,0.483-0.021c0.157,0,0.435,0.059,0.521-0.11
	c0.081-0.159-0.091-0.427-0.203-0.519c-0.149-0.124-0.163-0.384-0.36-0.448c0.238,0.005,0.704,0.082,0.848-0.181
	c0.106-0.195-0.042-0.306-0.223-0.365c-0.133-0.044-0.481-0.022-0.527-0.211c-0.072-0.298,0.598-0.431,0.765-0.53
	c0.261-0.156,0.521-0.35,0.773-0.523c0.303-0.209,0.313-0.47,0.363-0.813C160.994,51.308,161.106,50.873,160.9,50.545z"/>
</svg>
