<?xml version="1.0" encoding="utf-8"?>
<!-- Generator: Adobe Illustrator 26.0.3, SVG Export Plug-In . SVG Version: 6.00 Build 0)  -->
<svg version="1.1" id="Isolation_Mode" xmlns="http://www.w3.org/2000/svg" xmlns:xlink="http://www.w3.org/1999/xlink" x="0px"
	 y="0px" viewBox="0 0 200 200" enable-background="new 0 0 200 200" xml:space="preserve">
<path fill="#1E8346" d="M36.597,14.966c0.085,0.131,0.148,0.267,0.247,0.391c0.099,0.123,0.193,0.333,0.306,0.438
	c0.166,0.154,1.028,0.17,1.007-0.108c0.235-0.135,0.7,0.098,0.932,0.123c0.319,0.035,0.674,0.05,0.984-0.03
	c0.439-0.115,0.747-0.042,1.034-0.424l58.8-0.069c0.317,0,0.509,0.119,0.718,0.342c0.225,0.24,0.16,0.594,0.346,0.843
	c0.241,0.323,0.707,0.42,0.928,0.753c0.113,0.17,0.138,0.399,0.273,0.558c0.163,0.192,0.424,0.274,0.613,0.434
	c0.153,0.129,0.237,0.273,0.325,0.449c0.119,0.239,0.248,0.355,0.451,0.53c0.411,0.355,0.746,0.81,1.19,1.142
	c0.548,0.41,1.218,0.523,1.767,0.942c0.667,0.509,1.552,0.439,2.361,0.508c0.258,0.022,0.519,0.047,0.775,0.069
	c0.117,0.01,0.446,0.049,0.545-0.007c0.092-0.052,0.079-0.194,0.153-0.257c0.067-0.057,0.245-0.081,0.329-0.093
	c0.189-0.026,0.372,0.014,0.547,0.08c0.141,0.053,0.265,0.14,0.416,0.149c0.265,0.017,0.52-0.089,0.798-0.061
	c0.197,0.02,0.516,0.043,0.638,0.229c0.066,0.101,0.046,0.203,0.073,0.316c0.334,0.002,0.703,0.113,1.036,0.126
	c0.322,0.013,0.647,0.049,0.973,0.064c0.38,0.018,0.951,0.171,1.297-0.005c0.229-0.117,0.29-0.159,0.569-0.106
	c0.137,0.026,0.249,0.078,0.387,0.023c0.089-0.036,0.14-0.139,0.251-0.166c0.299-0.072,0.706,0.166,0.946,0.308
	c0.167,0.099,0.474,0.584,0.641,0.539c0.122-0.033,0.245-0.322,0.334-0.397c0.13-0.109,0.328-0.201,0.505-0.176
	c0.184,0.027,0.261,0.19,0.448,0.219c0.201,0.031,0.4-0.091,0.575-0.175c0.173-0.083,0.394-0.208,0.584-0.125
	c0.2,0.086,0.33,0.239,0.558,0.314c0.357,0.119,0.553,0.237,0.917,0.137c0.246-0.067,0.391-0.089,0.62,0.015
	c0.214,0.097,0.252,0.14,0.484,0.021c0.523-0.268,0.826-0.305,1.399-0.163c0.249,0.062,0.266,0.057,0.467-0.116
	c0.2-0.173,0.526-0.346,0.812-0.27c0.152,0.04,0.299,0.191,0.432,0.271c0.257,0.155,0.56,0.293,0.855,0.361
	c0.145,0.033,0.306,0.004,0.447,0.061c0.13,0.053,0.07,0.04,0.181,0.126c0.18,0.14,0.21,0.343,0.4,0.467
	c0.157,0.102,0.355,0.132,0.517,0.229c0.123,0.074,0.231,0.184,0.368,0.233c0.349,0.126,0.819,0.027,1.181,0.017
	c0.326-0.009,0.442,0.144,0.727,0.223c0.343,0.095,0.63-0.162,0.924,0.111c0.336,0.31,0.736,0.498,1.214,0.511
	c0.165,0.004,0.392-0.031,0.518-0.155c0.129-0.127,0.08-0.362,0.241-0.457c0.385-0.227,0.912-0.278,1.335-0.422
	c0.579-0.197,1.125-0.246,1.735-0.32c0.518-0.063,1.03-0.141,1.559-0.143c0.58-0.001,1.152,0.303,1.672,0.537
	c0.498,0.225,1.001,0.52,1.474,0.79l39.562-8.176c0.227,0.159,0.487,0.206,0.757,0.276c0.267,0.07,0.509,0.013,0.756-0.111
	c0.263-0.133,0.525-0.244,0.826-0.177c0.381,0.085,0.749,0.266,1.132,0.357c0.221,0.052,0.76-0.009,0.855,0.226
	c0.067,0.166-0.021,0.258,0.2,0.328c0.18,0.057,0.356,0.01,0.528-0.048c0.2-0.067,0.279-0.114,0.437-0.246
	c0.251-0.209,0.494-0.182,0.812-0.151c0.434,0.043,1.043-0.13,1.333,0.246c0.314,0.406,0.858-0.168,1.269,0.047
	c0.101,0.052,0.111,0.145,0.191,0.22c0.069,0.064,0.204,0.12,0.294,0.151c0.189,0.065,0.616-0.107,0.627,0.183
	c0.157-0.014,0.198-0.086,0.342,0.021c0.133,0.099,0.177,0.287,0.325,0.369c0.208,0.116,0.784,0.068,0.705,0.488
	c0.205,0.037,0.231,0.09,0.376,0.244c0.104,0.109,0.303,0.249,0.337,0.4c0.033,0.151-0.127,0.3-0.079,0.455
	c0.089,0.288,0.26,0.005,0.375-0.048c0.066,0.06,0.075,0.148,0.144,0.204c0.123,0.1,0.261,0,0.385,0.074
	c-0.006,0.117-0.035,0.275,0.021,0.38c0.086,0.162,0.326,0.24,0.476,0.314c0.289,0.145,0.609,0.301,0.854,0.512
	c-0.28-0.187-0.735-0.216-1.061-0.193c-0.274,0.019-0.409,0.129-0.606,0.317c-0.238,0.227-1.248,0.952-1.234,0.163
	c-0.158,0.043-0.201,0.23-0.351,0.288c-0.06,0.023-0.132,0.008-0.195,0.027c-0.072-0.084-0.095-0.195-0.22-0.212
	c-0.121-0.016-0.193,0.096-0.312,0.03c-0.294-0.162,0.148-0.44-0.235-0.456c-0.269-0.011-0.221,0.111-0.362,0.26
	c-0.075,0.08-0.129,0.063-0.215,0.095c-0.087,0.033-0.045,0-0.124,0.07c-0.176,0.156-0.134,0.152-0.415,0.183
	c-0.192,0.022-0.39,0.049-0.577,0.095c-0.138,0.034-0.251,0.07-0.352,0.168c-0.116,0.112-0.194,0.242-0.347,0.31
	c-0.089,0.039-0.245,0.001-0.32,0.046c-0.055,0.033-0.045,0.09-0.089,0.132c-0.115,0.108-0.248,0.06-0.369,0.138
	c-0.285,0.183-0.304,0.59-0.586,0.782c-0.287,0.195-0.571,0.434-0.891,0.57c-0.289,0.122-0.48,0.68-0.594,0.973
	c-0.084,0.218-0.068,0.271-0.333,0.26c-0.128-0.005-0.311,0.008-0.417-0.057c-0.039-0.024-0.027-0.097-0.076-0.118
	c-0.072-0.031-0.201,0.044-0.258,0.081c-0.11-0.098-0.16-0.28-0.219-0.413c-0.072-0.163-0.179-0.297-0.266-0.45
	c-0.071-0.126-0.101-0.351-0.23-0.431c-0.074-0.046-0.19-0.019-0.27-0.057c-0.071-0.034-0.101-0.089-0.158-0.133
	c-0.146-0.113-0.332-0.164-0.52-0.125c-0.189,0.039-0.511,0.131-0.674,0.233c-0.15,0.094-0.309,0.267-0.41,0.41
	c-0.119,0.167-0.176,0.395-0.315,0.544c-0.142-0.156-0.189-0.281-0.407-0.291c-0.211-0.009-0.511-0.049-0.713,0.014
	c-0.297,0.093-0.627,0.477-0.793,0.727c-0.228,0.345-0.47,0.637-0.914,0.662c-0.152,0.009-0.548-0.098-0.66,0.014
	c-0.089,0.088-0.025,0.266-0.022,0.384c0.004,0.154-0.267,0.274-0.368,0.345c-0.16,0.113-0.308,0.2-0.493,0.272
	c-0.201,0.078-0.496,0.153-0.645,0.316c-0.137,0.15-0.15,0.373-0.185,0.56c-0.043,0.233-0.051,0.362-0.26,0.469
	c-0.208,0.107-0.528,0.238-0.686,0.404c-0.159,0.168-0.104,0.417-0.298,0.558c-0.184,0.133-0.385,0.108-0.503,0.323
	c-0.159,0.289-0.341,0.536-0.527,0.806c-0.098,0.143-0.136,0.226-0.311,0.277c-0.183,0.053-0.38,0.03-0.564,0.075
	c-0.272,0.067-0.342,0.394-0.558,0.569c-0.179,0.145-0.351,0.464-0.602,0.448c-0.226-0.015-0.606-0.198-0.717-0.371
	c-0.076-0.118-0.129-0.422-0.158-0.57c-0.046-0.233-0.015-0.49-0.015-0.727c0-0.229,0.017-0.464,0-0.692
	c-0.025-0.336-0.233-0.111-0.401-0.299c-0.113-0.127-0.015-0.448-0.034-0.606c-0.032-0.249-0.148-0.206-0.274-0.358
	c-0.067-0.081-0.007-0.155-0.147-0.211c-0.094-0.038-0.211,0.016-0.308-0.01c-0.138-0.036-0.105-0.056-0.164-0.176
	c-0.074-0.154-0.15-0.219-0.319-0.263c-0.228-0.059-0.472,0.031-0.524-0.239c-0.03-0.158,0.014-0.31-0.054-0.461
	c-0.057-0.126-0.174-0.211-0.258-0.317c-0.163-0.205-0.301-0.432-0.511-0.598c-0.202-0.16-0.484-0.248-0.282-0.564
	c0.125-0.197,0.185-0.154-0.032-0.338c-0.124-0.105-0.097-0.004-0.122-0.19c-0.016-0.116,0-0.244,0-0.361h-3.397L143.24,29h-6.68
	v55.228h-14.076v100.216l-1.733,0.274l-0.806,0.98l-1.201-0.332c-0.258,0.186-0.512,0.521-0.806,0.648
	c-0.314,0.136-0.539-0.196-0.844-0.207c-0.165-0.006-0.26,0.057-0.395,0.144c-0.162,0.104-0.352,0.18-0.487,0.321
	c-0.235,0.247-0.125,0.603-0.346,0.841c-0.114,0.122-0.307,0.147-0.413,0.276c-0.122,0.148-0.062,0.352-0.073,0.534
	c-0.022,0.379-0.159,0.738-0.445,0.988c-0.34,0.297-0.72,0.468-1.174,0.469c-0.371,0.001-1.086-0.15-1.359,0.148
	c-0.138,0.151-0.21,0.343-0.328,0.508c-0.095,0.133-0.227,0.295-0.267,0.455c-0.066,0.267,0.183,0.619,0.306,0.836
	c0.135,0.238,0.283,0.49,0.405,0.723c-0.18,0.042-0.27,0.01-0.45,0.042c-0.253,0.045-0.301,0.105-0.467,0.281
	c-0.226,0.239-0.455,0.358-0.77,0.452c-0.284,0.085-0.597,0.189-0.891,0.21c-0.215,0.016-0.226-0.039-0.406-0.147
	c-0.365-0.218-0.81-0.291-1.062-0.663c-0.128-0.188-0.2-0.42-0.38-0.571c-0.22-0.184-0.532-0.191-0.833-0.236
	c-1.111-0.166-2.15-0.538-3.279-0.321c-0.39,0.075-0.776,0.175-1.171,0.237c-0.286,0.045-0.564,0.014-0.784,0.174
	c-0.221,0.16-0.35,0.37-0.631,0.406c-0.44,0.057-0.913,0.009-1.357,0.009c-0.407,0-0.817,0.02-1.222-0.031
	c-0.223-0.028-0.443-0.09-0.672-0.052c-0.312,0.051-0.615,0.236-0.922,0.319c-0.456,0.124-0.703-0.113-1.114-0.284
	c-0.151-0.063-0.296-0.169-0.448-0.22c-0.186-0.062-0.415-0.028-0.608-0.028c-0.445-0.324-0.724-0.892-1.239-1.144
	c-0.254-0.124-0.524-0.112-0.776-0.248c-0.201-0.108-0.34-0.254-0.569-0.319c-0.557-0.158-1.161-0.206-1.737-0.227
	c-0.251-0.01-0.503,0.003-0.754,0.016c-0.265,0.014-0.716,0.235-0.962,0.128c-0.32-0.139-0.189-0.606-0.241-0.872
	c-0.023-0.117-0.098-0.258-0.209-0.322c-0.117-0.068-0.314-0.065-0.431-0.006c-0.066,0.033-0.099,0.144-0.172,0.168
	c-0.11,0.037-0.28-0.034-0.398-0.041c-0.16-0.008-0.332-0.006-0.491,0.016c-0.115,0.016-0.252,0.037-0.361,0.077
	c-0.138,0.051-0.289,0.218-0.441,0.24c-0.535,0.079-0.093-1.158-0.026-1.379c0.058-0.189,0.138-0.634,0.059-0.828
	c-0.104-0.255-0.457-0.19-0.692-0.191c-0.092-0.107-0.072-0.342-0.089-0.488c-0.025-0.219-0.113-0.405-0.25-0.576
	c-0.159-0.198-0.272-0.278-0.293-0.543c-0.026-0.333,0.062-0.35,0.36-0.457c0.374-0.134,0.801-0.663,0.648-1.089
	c-0.097-0.271-0.221-0.525-0.309-0.806c-0.107-0.343-0.251-0.671-0.41-0.993c-0.088-0.179-0.167-0.375-0.352-0.48
	c-0.296-0.167-0.667,0.028-0.969,0.107c-0.335,0.087-0.39,0.057-0.671-0.13c-0.104-0.069-0.21-0.128-0.299-0.22
	c-0.264-0.273-0.21-0.582-0.211-0.94c-0.231-0.357-0.021-0.789-0.442-1.054c-0.247-0.156-0.538-0.196-0.713-0.451
	c-0.084-0.122-0.128-0.271-0.25-0.365c-0.153-0.118-0.346-0.092-0.52-0.125c-0.178,0.172-0.122,0.455-0.361,0.586
	c-0.221,0.121-0.282-0.045-0.483-0.095c-0.2-0.05-0.209,0.092-0.369,0.172c-0.333,0.167-1.173-0.158-1.226,0.386
	c-0.018,0.186,0.066,0.43,0.066,0.63c0,0.226,0.003,0.452-0.001,0.677c-0.157-0.107-0.299-0.235-0.504-0.214
	c-0.109,0.299,0.165,0.357,0.173,0.616c0.008,0.256-0.479,0.177-0.684,0.33c0.156,0.265,0.312,0.355,0.245,0.711
	c-0.186,0.039-0.339,0.075-0.519,0.076c-0.178,0.001-0.354-0.033-0.417,0.186c-0.091,0.316,0.384,0.683,0.535,0.907
	c0.262,0.389,0.107,0.471-0.129,0.782c-0.17,0.224-0.112,0.569-0.112,0.839c0,0.184-0.175,0.226-0.253,0.357
	c-0.082,0.138-0.1,0.36-0.251,0.44c-0.049,0.026-0.417,0.079-0.466,0.067c-0.172-0.041-0.148-0.204-0.178-0.355
	c-0.329-0.033-0.682,0.191-0.919,0.403c-0.229,0.205-0.233,0.501-0.519,0.67c-0.49,0.289-1.127,0.256-1.605,0.569
	c-0.304,0.2-0.295,0.673-0.381,0.988c-1.624-1.071-2.791-2.633-4.143-4.039c-0.805-0.837-1.788-1.389-2.503-2.296
	c-0.759-0.963-1.608-1.857-2.525-2.682c-0.43-0.387-0.922-0.723-1.307-1.164c-0.544-0.622-0.29-1.322-0.446-2.085
	c-0.485-0.249-1.412-1.282-1.763-1.743c-0.518-0.68-0.249-1.464-0.744-2.179c-0.443-0.639-0.633-1.201-0.933-1.921
	c-0.41-0.981-1.239-1.608-1.673-2.576c-0.374-0.835-0.405-1.761-0.663-2.627c-0.296-0.995-0.008-2.111-0.27-3.101
	c-0.297-1.119-1.347-1.745-1.818-2.765c-0.422-0.914-0.498-1.705-0.464-2.713c0.476-0.184,0.656,0.116,0.936,0.465
	c0.022-0.622,0.105-1.407-0.057-2.016c-0.098-0.37-0.253-0.624-0.253-0.988c0-0.483-0.007-0.65-0.381-0.982
	c-0.644-0.572-1.677-0.754-2.024-1.568c-0.144-0.338-0.194-0.784-0.093-1.148c0.047-0.171,0.177-0.299,0.223-0.467
	c0.073-0.268-0.025-0.273-0.157-0.471c-0.162-0.244-0.189-0.221-0.063-0.532c0.088-0.218,0.192-0.404,0.246-0.64
	c0.128-0.561,0.121-1.026-0.184-1.526c-0.174-0.286-0.447-0.5-0.593-0.808c-0.196-0.416-0.139-0.891-0.189-1.336
	c-0.082-0.722-0.647-1.152-0.799-1.86c-0.1-0.467-0.061-1.55,0.094-1.996c0.109-0.315,0.392-0.606,0.441-0.941
	c0.061-0.424-0.328-0.786-0.464-1.162c-0.174-0.48-0.341-0.969-0.505-1.451c-0.174-0.511-0.145-1.22-0.1-1.766
	c0.045-0.55,0.42-0.981,0.498-1.514c0.051-0.347-0.036-0.643,0.092-0.97c0.124-0.313,0.324-0.531,0.294-0.89
	c-0.031-0.365-0.307-0.684-0.473-1.01c-0.193-0.378-0.467-0.753-0.603-1.15c-0.226-0.658,0.298-1.473-0.095-2.069
	c-0.172-0.261-0.241-0.654-0.381-0.918c-0.153-0.289-0.392-0.529-0.612-0.763c-0.445-0.474-0.865-0.938-1.265-1.447
	c-0.147-0.187-0.38-0.431-0.431-0.672c-0.07-0.334,0.169-0.649,0.217-0.965c0.107-0.701-0.35-1.37-0.721-1.935
	c0.047-0.688-0.513-1.542-0.783-2.155c-0.301-0.684-0.458-1.454-0.513-2.217c-0.057-0.788-0.303-1.603,0.128-2.316
	c0.415-0.685,0.76-1.722,0.377-2.51c0.098-0.936,0.225-1.742-0.067-2.698c-0.162-0.531-0.341-1.032-0.573-1.537
	c-0.207-0.452-0.382-1.076-0.239-1.577c0.04-0.001,0.075-0.006,0.115,0c0.145,0.237-0.028,0.817,0.262,0.925
	c0.079-0.297,0.041-0.541,0.143-0.831c0.078-0.224,0.143-0.439,0.166-0.68c0.046-0.494,0.145-1.054-0.023-1.52
	c-0.261-0.726-0.759-1.411-0.919-2.164c-0.07-0.328,0.032-0.671-0.038-0.979c-0.112-0.496-0.117-0.946,0.01-1.443
	c0.146,0.008,0.117,0.15,0.207,0.226c0.095,0.082,0.211,0.079,0.334,0.068c0.447-0.039,0.688-0.435,0.888-0.792
	c0.248-0.441,0.295-1.207,0.272-1.706c-0.028-0.621-0.328-1.176-0.314-1.801c0.009-0.404,0.09-0.91,0.095-1.317
	c0.005-0.444-0.199-0.825-0.37-1.226c-0.423-0.986-0.927-1.928-1.353-2.915c-0.464-1.076-1.154-2.025-1.666-3.075
	c-0.537-1.101-1.477-2.007-2.205-2.979c-0.435-0.58-0.958-1.027-1.266-1.699c-0.227-0.496-0.399-1.119-0.725-1.539
	c-0.391-0.503-0.785-1.057-1.153-1.583c-0.241-0.345-0.564-0.686-0.713-1.084c-0.16-0.429-0.115-0.845-0.372-1.247
	c-0.391-0.612-0.9-1.069-1.185-1.743c-0.077-0.182-0.124-0.307-0.273-0.442c-0.31-0.282-0.458-0.161-0.555-0.621
	c-0.114-0.545-0.34-0.899-0.706-1.332c-0.437-0.517-0.763-1.027-1.082-1.632c-0.335-0.637-0.857-1.208-1.139-1.852
	c-0.159-0.364-0.391-0.778-0.623-1.106c-0.179-0.254-0.4-0.496-0.564-0.762c-0.218-0.355-0.228-0.728-0.267-1.126
	c-0.048-0.486-0.14-0.801-0.325-1.247c-0.188-0.452-0.234-0.914-0.476-1.35c-0.221-0.4-0.245-0.846-0.431-1.251
	c-0.166-0.361-0.481-0.647-0.566-1.056c-0.122-0.584,0.033-1.187-0.196-1.763c-0.163-0.408-0.461-0.754-0.633-1.156
	c-0.157-0.368-0.2-0.721-0.425-1.066c-0.146-0.224-0.343-0.431-0.55-0.601c-0.299-0.246-0.441-0.4-0.666-0.699
	c-0.176-0.234-0.348-0.629-0.476-0.882c-0.219-0.433-0.478-0.836-0.692-1.274c-0.418-0.857-0.773-1.75-1.083-2.649
	c-0.35-1.016-0.906-2.039-1.417-2.98c-0.595-1.097-1.31-2.066-1.513-3.317c-0.115-0.711-0.789-1.139-1.086-1.776
	c-0.25-0.534-0.44-1.096-0.687-1.63c-0.155-0.335-0.435-0.749-0.727-0.993c-0.344-0.287-0.666-0.294-0.695-0.788
	c-0.051-0.882-0.521-1.263-0.987-1.96c-0.58-0.867-1.164-1.732-1.875-2.515c-0.352-0.387-0.746-0.589-1.157-0.887
	c-0.252-0.182-0.421-0.437-0.63-0.66c-0.387-0.414-0.842-0.762-1.247-1.147c-0.255-0.242-0.54-0.547-0.669-0.885
	c-0.141-0.37-0.008-0.771-0.116-1.134c-0.085-0.283-0.279-0.55-0.374-0.842c-0.099-0.302-0.19-0.752-0.405-0.989
	c-0.515-0.571-1.2-0.954-1.518-1.699c-0.173-0.405-0.187-0.882-0.255-1.315c-0.081-0.511-0.239-1.014-0.314-1.528
	c-0.084-0.573-0.019-1.156-0.14-1.723c-0.123-0.579-0.223-1.144-0.336-1.719c-0.119-0.604-0.385-1.103-0.409-1.73
	c-0.023-0.609-0.033-1.247,0-1.855c0.033-0.617,0.128-1.207,0.096-1.835c-0.021-0.417-0.14-0.988-0.001-1.388
	c0.173-0.009,0.348,0.141,0.494,0.211c0.279,0.135,0.697,0.106,0.909-0.132c0.082-0.092,0.105-0.314,0.201-0.373
	c0.072-0.044,0.222,0.024,0.303,0c0.295-0.09,0.487-0.415,0.8-0.516c0.389-0.126,0.759-0.279,1.168-0.355
	c0.392-0.073,0.749-0.311,1.159-0.264c0.289,0.033,0.703,0.139,0.935,0.303c0.349,0.246,0.61,0.582,0.946,0.836
	c0.242,0.183,0.397,0.146,0.707,0.095c0.262-0.043,0.528-0.041,0.79-0.082c0.059-0.009,0.24-0.087,0.298-0.066
	c0.087,0.032,0.111,0.153,0.194,0.177c0.166,0.049,0.464-0.225,0.563-0.349c0.217,0.188,0.406,0.505,0.498,0.779
	c0.248-0.117,0.414-0.329,0.688-0.371c0.273-0.043,0.589,0.002,0.865,0.002c0.454,0,0.652-0.001,0.962-0.379
	c0.123-0.15,0.175-0.25,0.343-0.346c0.254-0.145,0.582-0.211,0.856-0.325c0.449-0.188,0.816-0.426,1.229-0.678
	c0.23-0.14,0.423-0.363,0.624-0.529c0.121-0.099,0.28-0.169,0.395-0.271c0.149-0.132,0.243-0.316,0.389-0.461
	c0.339-0.337,0.665-0.627,1.133-0.774c0.217-0.068,0.435-0.05,0.66-0.051c0.328-0.002,0.655-0.045,0.983-0.067
	c0.26-0.018,0.524-0.07,0.785-0.059c0.278,0.012,0.567,0.107,0.841,0.156c0.458,0.081,0.87,0.107,1.334,0.06
	c0.476-0.049,0.859,0.028,1.317,0.127c0.275,0.06,0.677,0.149,0.871,0.359c0.241,0.262,0.362,0.61,0.615,0.864
	c0.111,0.111,0.268,0.198,0.275,0.372c0.006,0.155-0.149,0.335-0.191,0.486L36.597,14.966z"/>
</svg>
