<?xml version="1.0" encoding="utf-8"?>
<!-- Generator: Adobe Illustrator 26.0.3, SVG Export Plug-In . SVG Version: 6.00 Build 0)  -->
<svg version="1.1" id="Isolation_Mode" xmlns="http://www.w3.org/2000/svg" xmlns:xlink="http://www.w3.org/1999/xlink" x="0px"
	 y="0px" viewBox="0 0 200 200" enable-background="new 0 0 200 200" xml:space="preserve">
<path fill="#1E8346" d="M176.939,111.718l-3.34,3.448l-6.055,8.469l-0.884,1.853l0.237,1.783c-0.121,0.431-0.696,0.387-1.002,0.555
	c-0.181,0.1-0.345,0.371-0.47,0.526c-0.159,0.198-0.098,0.173,0.019,0.357c0.148,0.234,0.084,0.632-0.067,0.85
	c-0.103,0.148-0.266,0.315-0.447,0.375c-0.205,0.067-0.482,0.023-0.702,0.053c-0.376,0.051-0.689,0.258-0.997,0.469
	c-0.242,0.166-0.293,0.302-0.293,0.586c0,0.181-0.016,0.371,0.023,0.549c0.036,0.167,0.119,0.324,0.159,0.488
	c0.087,0.35,0.144,0.689,0.251,1.037c0.109,0.354,0.119,0.729,0.23,1.083c0.066,0.211,0.239,0.498,0.113,0.687
	c-0.162,0.242-0.272,0.022-0.41-0.124c-0.097-0.103-0.223-0.138-0.315-0.222c-0.13-0.117-0.193-0.304-0.313-0.436
	c-0.085,0.107-0.129,0.254-0.164,0.384c-0.101-0.192-0.229-0.37-0.325-0.566c-0.107,0.273-0.206,0.554-0.289,0.834
	c-0.018-0.146-0.194-0.287-0.31-0.361c-0.137,0.149-0.175,0.348-0.269,0.522c0.009-0.386-0.202-0.625-0.598-0.661
	c-0.077,0.152-0.051,0.367-0.18,0.49c-0.073-0.075-0.14-0.161-0.223-0.223c0.029,0.288,0.042,0.637-0.263,0.781
	c-0.144-0.139-0.058-0.54-0.319-0.576c-0.096,0.208-0.116,0.62-0.027,0.834c0.057,0.138,0.261,0.221,0.204,0.392
	c-0.061,0.183-0.286,0.101-0.371,0.265c-0.073,0.14-0.016,0.471,0.053,0.605c0.109,0.21,0.356,0.35,0.508,0.531
	c0.127,0.152,0.195,0.34,0.318,0.495c0.079,0.099,0.13,0.136,0.253,0.154c0.071,0.011,0.178-0.032,0.239,0.02
	c0.142,0.123-0.014,0.346-0.061,0.464c0.217,0.045,0.225,0.39,0.478,0.46c0.146,0.041,0.221-0.006,0.347-0.072
	c0.14-0.074,0.093-0.067,0.206-0.033c0.223,0.067,0.43,0.31,0.539,0.505c0.053,0.096,0.091,0.196,0.16,0.283
	c0.069,0.087,0.171,0.145,0.213,0.249c-0.192,0.042-0.39,0.031-0.586,0.022c-0.184-0.008-0.525,0.115-0.628-0.04
	c-0.192-0.29-0.435,0.013-0.544,0.229c-0.129,0.257-0.323,0.34-0.512,0.545c-0.079,0.085-0.184,0.207-0.189,0.325
	c-0.004,0.098,0.056,0.132,0.073,0.222c0.036,0.189-0.205,0.308-0.343,0.446c-0.116,0.117-0.206,0.258-0.32,0.379
	c-0.088-0.055-0.224-0.212-0.334-0.207c-0.073,0.003-0.222,0.152-0.297,0.184c-0.125-0.103-0.187-0.205-0.329-0.188
	c-0.147,0.018-0.295,0.217-0.419,0.293c-0.197-0.148-0.308-0.327-0.555-0.273c-0.218,0.048-0.355,0.272-0.558,0.36
	c-0.332-0.359-0.562,0.169-0.793,0.261c-0.224,0.09-0.378-0.194-0.624-0.026c-0.171,0.117-0.153,0.379-0.256,0.533
	c-0.079,0.119-0.127,0.093-0.224,0.155c-0.154,0.097-0.164,0.026-0.206,0.232c-0.036,0.175,0.033,0.218-0.121,0.324
	c-0.218,0.149-0.428-0.021-0.628,0.197c-0.175,0.189-0.22,0.481-0.403,0.645c-0.05,0.044-0.16,0.066-0.224,0.154
	c-0.056,0.077-0.085,0.276-0.153,0.328c-0.166,0.124-0.491-0.125-0.645-0.204c-0.162,0.167-0.189,0.266-0.441,0.281
	c-0.215,0.013-0.177-0.034-0.286,0.181c-0.119,0.237-0.19,0.413-0.157,0.69c0.025,0.208,0.148,0.512,0.016,0.704
	c-0.333-0.133-0.531-0.227-0.67,0.193c-0.065,0.199-0.234,0.552-0.237,0.75c-0.316,0.01-0.859,0.093-1.145-0.079
	c-0.136-0.081-0.325-0.376-0.459-0.064c-0.114-0.135-0.224-0.269-0.383-0.242c-0.144,0.024-0.225,0.236-0.374,0.129
	c-0.069-0.049-0.09-0.226-0.163-0.295c-0.269,0.087-0.278,0.046-0.451-0.117c-0.064-0.06-0.188-0.2-0.28-0.195
	c-0.253,0.014-0.137,0.328-0.296,0.425c-0.148,0.091-0.38-0.128-0.485-0.197c-0.296-0.196-0.267,0.075-0.615,0.075l-2.263-1.702
	c-0.464-0.259-0.993-0.294-1.504-0.421c-0.394-0.098-0.838-0.061-1.203-0.268c-0.279-0.158-0.482-0.437-0.803-0.518
	c-0.515-0.13-1.064-0.345-1.598-0.345l-9.418,0.237l-2.09,0.862l-3.233,0.194c-0.53,0.192-1.008,0.587-1.494,0.883
	c-0.221,0.134-0.45,0.124-0.689,0.199c-0.212,0.067-0.354,0.246-0.501,0.394c-0.289,0.29-0.526,0.551-0.748,0.899
	c-0.063,0.099-0.191,0.322-0.297,0.381c-0.182,0.103-0.43,0.037-0.611,0.206c-0.211,0.197-0.352,0.572-0.38,0.852l-1.595,1.789
	l-7.93-0.215l-3.944-1.229c-0.352-0.419-0.452-0.965-0.927-1.306c-0.191-0.136-0.495-0.258-0.721-0.313
	c-0.393-0.096-0.824,0.11-1.217,0.11l-2.004-1.983c-0.145,0.021-0.42-0.02-0.552-0.075c-0.199-0.082-0.174-0.177-0.297-0.344
	c-0.259-0.352-0.582-0.569-1.021-0.656c-0.344-0.067-0.709-0.042-1.06-0.097c-0.357-0.055-0.684-0.139-1.031-0.23
	c-0.407-0.108-1.034-0.149-1.406,0.122c-0.189,0.137-0.338,0.328-0.525,0.463c-0.25,0.181-0.563,0.344-0.833,0.492
	c-0.462,0.254-0.932,0.416-1.342,0.76c-0.195,0.164-0.375,0.355-0.574,0.517c-0.26,0.212-0.661,0.352-0.927,0.556l-2.5-0.388
	l-1.056,1.336l-0.668,0.172l-1.508-0.022l-1.53-1.702l-1.293-2.285l-3.448-3.491c-0.27-0.11-0.546-0.193-0.808-0.301
	c-0.219-0.09-0.407-0.411-0.636-0.411l-1.573,0.366l-6.831-2.672c-0.33-0.194-0.548-0.251-0.945-0.173
	c-0.379,0.075-0.773,0.171-1.123,0.338c-0.563,0.268-0.915,1.011-1.516,1.181c-0.353,0.1-0.688,0.162-1.062,0.162
	c-0.365,0-0.706-0.08-1.07-0.081c-0.328-0.001-0.592,0.185-0.913,0.214c-0.323,0.028-0.704-0.02-1.029-0.02l-0.533-0.55
	l-4.865,1.244l-2.651,2.392h-1.164v3.879l-0.414,2.08l-1.789,2.802l-3.534,2.715l0.065,3.491c-0.115,0.372-0.329,0.778-0.356,1.173
	c-0.028,0.407,0.151,0.507,0.369,0.813c0.249,0.35,0.314,0.695,0.166,1.097c-0.142,0.385-0.498,0.601-0.64,0.966
	c-0.072,0.184-0.081,0.639,0.04,0.811c0.129,0.182,0.434,0.127,0.548,0.349c0.223,0.435-0.148,0.951-0.476,1.166
	c-0.263,0.173-0.407,0.222-0.683-0.038c-0.318-0.3-0.101-0.36-0.114-0.714c-0.484,0.037-0.442-0.045-0.502-0.42
	c-0.051-0.317-0.215-0.428-0.492-0.62c-0.332-0.23-0.595-0.296-1.026-0.254c-0.318,0.031-0.523,0.148-0.777-0.095
	c-0.299-0.285-0.528-0.884-0.728-1.245c-0.304-0.551-0.562-0.958-1.029-1.383c-0.455-0.415-1.024-0.654-1.412-1.14
	c-0.19-0.238-0.315-0.689-0.553-0.848c-0.142-0.095-0.413-0.078-0.585-0.18c-0.107-0.063-0.21-0.148-0.299-0.233
	c-0.162-0.155-0.25-0.319-0.372-0.5c-0.219-0.324-0.567-0.825-1.02-0.612c-0.164,0.078-0.294,0.31-0.438,0.42
	c-0.151,0.115-0.248,0.076-0.326,0.095c-0.095,0.023-0.103-0.047-0.23,0.023c-0.065,0.036-0.1,0.131-0.136,0.191
	c-0.128,0.215-0.157,0.466-0.278,0.684c-0.3-0.26-0.495-0.395-0.942-0.316c-0.335,0.06-0.441,0.306-0.708,0.459
	c-0.103-0.112-0.221-0.251-0.347-0.328c-0.063,0.14-0.127,0.281-0.244,0.385c-0.164-0.154-0.27,0.043-0.414,0.156
	c-0.345-0.421-1.133-0.093-1.092,0.443c0.009,0.119,0.132,0.195,0.16,0.305c0.03,0.12-0.001,0.287-0.001,0.413
	c0,0.208,0,0.415,0,0.623l0.873,1.487l-0.905,0.711l-3.75-5.14c0.092-0.747,1.44-0.76,2.004-0.873
	c0.836-0.168,0.15-0.727-0.025-1.196c-0.1-0.268,0.033-0.573-0.039-0.843c-0.064-0.238-0.32-0.437-0.542-0.557
	c-0.256-0.139-0.295-0.088-0.364-0.386c-0.097-0.422-0.079-0.283-0.445-0.517c-0.306-0.196-0.349-0.289-0.782-0.309
	c-0.287-0.013-0.536-0.072-0.809-0.072l-1.39,1.649l-10.312-6.013v-3.189c0.226,0,0.53-0.053,0.754-0.028
	c0.261,0.03,0.483,0.217,0.713,0.34c0.195,0.105,0.506,0.261,0.739,0.239c0.255-0.024,0.214-0.355,0.38-0.497
	c0.167,0.076,0.282,0.35,0.5,0.308c0.13-0.026,0.297-0.294,0.263-0.444c-0.132-0.575-1.497-0.126-1.796-0.477
	c-0.122-0.144-0.209-0.313-0.332-0.459c-0.183-0.217-0.233-0.264-0.541-0.268c-0.202-0.003-0.302,0.007-0.351-0.192
	c-0.043-0.175,0.015-0.371-0.051-0.537c-0.161-0.405-0.438-0.69-0.849-0.848c-0.246-0.094-0.518-0.167-0.778-0.214
	c-0.321-0.058-0.658-0.007-0.977-0.068c0.031-0.224,0.178-0.514-0.061-0.689c-0.153-0.112-0.434-0.097-0.615-0.097
	c-0.197,0-0.381,0.034-0.575,0.054c-0.315,0.033-0.815-0.015-0.84-0.429c-0.005-0.095-0.008-0.202,0.008-0.296
	c0.013-0.082,0.069-0.169,0.07-0.251c0.001-0.145-0.154-0.146-0.281-0.177l-1.406-1.525c-0.023-0.117-0.069-0.329-0.152-0.421
	c-0.061-0.067-0.168-0.065-0.236-0.125c-0.059-0.053-0.044-0.064-0.081-0.143c-0.083-0.18-0.223-0.276-0.25-0.502
	c-0.01-0.085,0.01-0.177-0.04-0.249c-0.06-0.086-0.248-0.107-0.34-0.177l-2.554-5.867c0-0.405-0.045-0.881,0.073-1.271
	c0.098-0.325,0.322-0.536,0.476-0.823c0.074-0.138,0.202-0.313,0.242-0.46c0.057-0.211-0.109-0.322-0.209-0.478
	c-0.149-0.23-0.224-0.507-0.195-0.782c0.028-0.264,0.221-0.419,0.355-0.631c0.243-0.384,0.017-0.783,0.035-1.207
	c0.462-0.068,0.984,0.176,1.443,0.24c0.204,0.028,0.443,0.104,0.649,0.064c0.34-0.066,0.634-0.293,0.967-0.39
	c0.201-0.059,0.246-0.04,0.437,0.055c0.249,0.123,0.528,0.181,0.8,0.227c0.39,0.066,0.715,0.345,1.115,0.396
	c0.542,0.07,1.102-0.2,1.637-0.249c0.556-0.05,1.108-0.105,1.662-0.171l4.008-3.734l16.551-0.776l3.556,0.065l0.113-1.083
	l5.511,0.846l0.431-0.452l-0.043-1.056c0.375-0.314,0.823-0.391,1.108-0.817c0.223-0.334,0.428-0.813,0.727-1.079
	c0.188-0.167,0.434-0.141,0.671-0.155c0.278-0.017,0.554-0.063,0.805-0.189c0.411-0.206,0.676-0.53,0.912-0.906
	c0.226-0.359,0.179-1.115,0.306-1.471c0.105-0.293,0.344-0.502,0.556-0.718c0.217-0.221,0.249-0.29,0.263-0.597
	c0.016-0.35,0.038-0.703,0.038-1.056c0-0.241-0.019-0.473,0.08-0.695c0.138-0.309,0.348-0.58,0.481-0.899
	c0.15-0.364,0.318-0.714,0.452-1.082c0.06-0.164,0.085-0.379,0.182-0.525c0.09-0.137,0.262-0.245,0.383-0.353
	c0.162-0.144,0.32-0.291,0.487-0.427c0.098-0.08,0.256-0.156,0.306-0.258l0.216-7.327h0.646V73.046l18.259-3.718l19.476-17.65
	l53.305-33.683l16.551,3.685l2.392,1.261l6.821,6.045l9.536-4.547l2.317,13.211v5.862l0.991,0.604l2.651,6.099
	c0.006,0.192-0.16,0.461-0.279,0.618c-0.174,0.23-0.392,0.337-0.618,0.495c-0.519,0.364-0.122,0.975,0.264,1.248
	c0.324,0.229,0.873,0.416,0.929,0.838c0.03,0.223,0.061,0.335,0.203,0.513c0.167,0.21,0.468,0.443,0.508,0.718
	c0.023,0.156-0.037,0.333,0,0.485c0.062,0.252,0.279,0.36,0.452,0.522c0.176,0.164,0.249,0.216,0.513,0.236
	c0.086,0.007,0.237-0.011,0.294,0.06c0.131,0.164,0.195,0.309,0.307,0.48c0.199,0.306,0.553,0.421,0.872,0.572
	c0.399,0.189,0.817,0.338,1.213,0.532c0.332,0.162,0.791,0.233,1.083,0.452l-2.791,5.054l-1.94,14.418l-0.291,9.76l-0.463,15.497
	L176.939,111.718z"/>
</svg>
