<?xml version="1.0" encoding="utf-8"?>
<!-- Generator: Adobe Illustrator 26.0.3, SVG Export Plug-In . SVG Version: 6.00 Build 0)  -->
<svg version="1.1" id="Isolation_Mode" xmlns="http://www.w3.org/2000/svg" xmlns:xlink="http://www.w3.org/1999/xlink" x="0px"
	 y="0px" viewBox="0 0 200 200" enable-background="new 0 0 200 200" xml:space="preserve">
<path fill="#1E8346" d="M191.166,111.913l-3.548-4.106l-4.664-7.756l1.126-6.386c-0.993-0.511-1.151,1.139-1.76,1.62
	c-0.299,0.236-0.675,0.689-1.113,0.563c-0.443-0.127-0.322-0.599-0.57-0.972c-0.869,0.168-0.587,0.821-0.68,1.474
	c-0.092,0.64-0.373,0.625-0.753,0.995c-0.456,0.445-0.236,0.479-0.782,0.413c-0.497-0.059-0.521-0.156-0.816,0.325
	c-0.561,0.914-0.289,2.217-0.987,3.076c-0.194,0.237-0.474,0.375-0.67,0.599c-0.42,0.48-0.469,1.067-0.966,1.495
	c-0.362-0.289-0.241-1.324-0.188-1.744c0.095-0.759,0.076-1.31,0.446-1.965c0.218-0.385,0.778-1.164,0.245-1.555
	c-0.403-0.296-0.13,0.942-0.851,0.999c0.245-0.664,0.022-1.355,0.411-2.02c0.519-0.886,1.149-1.492,1.923-2.118
	c0.74-0.599,1.469-1.719,1.427-2.697c-0.029-0.663-0.079-1.115,0.272-1.704c0.204-0.342,0.404-0.583,0.525-0.956
	c0.079-0.243,0.04-0.44,0.211-0.645c1.257,0.507,0.804-1.026,1.725-1.218c0.533-0.111,1.228,0,1.737,0.165
	c0.274,0.089,0.962,0.237,1.056,0.519c0.165,0.493-0.518,1.335-0.397,1.953c0.113,0.577,0.549,1.849,0.825,2.362l0.685-4.772
	l-0.761-10.722l1.293-3.65l-8.44-11.558l-0.684-6.691l-5.094-5.095l-4.563-0.38l-2.129-3.574l-3.295-1.09
	c-0.414-0.616-0.598-1.513-1.015-2.188c-0.242-0.391-0.838-0.888-0.606-1.408c0.163-0.366,0.513-0.332,0.558-0.776
	c0.058-0.56-0.476-0.937-0.692-1.395c-0.162-0.343-0.172-0.784-0.223-1.151c-0.104-0.749-0.358-1.347-0.713-2.009
	c-0.684-1.283-1.316-2.58-2.003-3.866c-0.242-0.453-0.415-0.904-0.531-1.38c-0.215-0.882-0.528-1.129-1.147-1.756
	c-0.555-0.563-1.377-0.678-2.15-0.803c-0.259-0.042-0.792-0.017-0.951-0.297c-0.157-0.277-0.06-1.197-0.06-1.528
	c0.001-0.405,0.093-0.824,0.052-1.223c-0.086-0.845-0.928-0.443-1.068-1.319c-0.088-0.552-0.455-1.33-0.405-1.864
	c0.044-0.471,0.492-1.209,0.703-1.612c0.25-0.48,0.663-0.764,0.973-1.176c0.007-0.831-2.346-0.766-2.743-0.623
	c-0.601,0.217-0.942,0.911-1.582,1.071c-0.576,0.143-1.326-0.191-1.879,0.016c-0.557,0.207-0.461,0.699-1.17,0.399
	c-0.355-0.15-0.653-0.517-1.08-0.461c-0.405,0.053-0.389,0.442-0.68,0.506c-0.555,0.124-0.971-0.782-1.661-0.228
	c-0.549,0.441-0.13,1.446-0.505,2.053c-0.156,0.253-0.509,0.392-0.641,0.664c-0.151,0.309-0.093,0.819-0.074,1.163
	c0.029,0.533,0.158,1.009,0.307,1.518c0.061,0.206,0.257,0.454,0.091,0.67c-0.145,0.189-0.83,0.225-1.067,0.297
	c-0.478,0.144-0.946,0.34-1.403,0.538c-0.89,0.385-1.166,0.926-1.515,1.794c-0.301,0.748-0.577,1.402-0.62,2.222
	c-0.052,0.987-0.837,0.675-1.347,1.355c-0.472,0.63-0.032,0.962-0.924,1.328c-0.63,0.259-0.959,0.407-1.4,0.934
	c-0.513,0.614-0.973,1.261-1.399,1.933c-0.357,0.564-0.889,0.978-1.291,1.51c-0.267,0.354-0.554,1.007-0.973,1.203
	c-0.471,0.22-0.943-0.068-1.336,0.26c-0.189,0.158-0.52,0.744-0.888,0.231c-0.235-0.327,0.129-1.026-0.478-0.94
	c-0.395,0.056-1.089,0.329-1.159,0.719c-0.106,0.593,0.515,1.373,0.241,2.02c-0.101,0.239-0.44,0.393-0.605,0.602
	c-0.307,0.389-0.346,0.727-0.317,1.204c0.028,0.457-0.059,1.082,0.07,1.508c0.097,0.321,0.378,0.522,0.456,0.854
	c-0.787,0.367-1.654-0.082-2.083,0.757c-0.266,0.519-0.122,0.617-0.757,0.753c-0.401,0.086-0.872,0.03-1.104,0.461
	c-0.331,0.616,0.336,1.514-0.718,1.378c-0.466-0.06-0.655-0.319-0.989-0.601c-0.498-0.42-0.247-0.151-0.764-0.108
	c-0.758,0.062-1.246-0.609-1.986,0.13c-0.594,0.593-0.374,1.335-1.171,1.785c-0.602,0.339-1.12,0.265-1.068,1.081
	c0.042,0.658,0.398,1.363,0.202,2.01c-0.487-0.226-0.94-0.523-1.424-0.754c-0.497-0.237-1.312-0.955-1.864-0.679
	c-0.357,0.179-0.321,0.476-0.456,0.798c-0.168,0.399-0.328,0.487-0.673,0.754c-0.718,0.557-0.661,1.454-1.375,1.955
	c-0.654,0.459-1.595,0.642-2.322,0.996c-0.884,0.431-1.574,0.53-2.509,0.777c-0.244,0.064-0.634,0.122-0.821,0.311
	c-0.2,0.202-0.108,0.547-0.372,0.701c-0.203,0.118-0.764-0.024-0.956-0.11c-0.559-0.253-0.817-0.855-1.113-1.343
	c-0.363-0.597-0.753-1.217-0.967-1.885c-0.503-1.568-0.366-3.25-0.716-4.847c-0.166-0.758-0.378-1.521-0.167-2.283
	c0.094-0.341,0.355-0.591,0.114-0.911c-0.273-0.361-0.943-0.246-1.331-0.116c-0.579,0.194-0.473,0.259-0.9-0.261
	c-0.599-0.732-1.218-1.593-1.467-2.483c-0.243-0.867-0.99-1.438-1.928-1.371c-0.147,0.383,0.156,1.261-0.203,1.536
	c-0.179,0.137-0.596,0.013-0.817,0.111c-0.302,0.134-0.484,0.413-0.656,0.692c-0.206,0.334-0.615,0.836-0.71,1.207
	c-0.134,0.522,0.059,1.148-0.056,1.686c-0.463-0.261-1.03-0.335-1.464-0.66c-0.424-0.318-0.778-0.739-1.189-1.08
	c-0.968-0.804-1.953-0.98-3.234-0.808c-0.752,0.101-1.62,0.188-2.207,0.736c-0.226,0.211-0.265,0.487-0.424,0.734
	c-0.207,0.321-0.439,0.372-0.729,0.583c-0.7,0.51-0.965,1.153-1.39,1.901c-0.842,0-1.694-0.027-2.532,0.048
	c-0.625,0.056-1.052,0.261-1.7,0.256c-0.589-0.004-3.627-0.355-3.735,0.402c-0.351,0.067-0.529-0.209-0.827-0.33
	c-0.308-0.125-0.76-0.169-1.089-0.128c-0.824,0.104-1.4,0.311-1.982,0.889c-0.596,0.593-1.423,0.982-1.918,1.675
	c-0.274,0.384-0.299,0.894-0.775,1.115c-0.317,0.147-0.716,0.058-1.052,0.09c0.05,0.781-0.297,0.891-0.863,1.203
	c-0.637,0.351-1.055,1.093-1.541,1.636c-0.55,0.616-1.01,1.456-1.423,2.165c-0.387,0.664-0.646,2.08-1.5,2.08l-7.908,0.253
	c-0.123,0.849-0.249,2.246-0.983,2.784c-0.386,0.283-0.992,0.416-1.317,0.774c-0.291,0.321-0.318,0.81-0.437,1.201
	c-0.427,1.397-1.215,3.076-2.477,3.883c-1.37,0.876-3.421,1.681-4.088,3.293c-0.237,0.573-0.232,1.233-0.493,1.789
	c-0.209,0.445-0.762,0.639-0.952,1.035c-0.398,0.831,0.087,2.118,0.76,2.627c0.257,0.194,0.911,0.755,1.039,1.047
	c0.191,0.436-0.045,0.358-0.286,0.798c-0.434,0.788,0.205,1.103,0.869,1.323c0.841,0.28,0.561,0.629,0.668,1.338
	c0.051,0.336,0.102,0.379,0.019,0.72c-0.073,0.304-0.314,0.596-0.135,0.938c0.2,0.381,1.215,0.478,0.463,0.925
	c-0.31,0.185-1.99-0.487-1.338,0.566c0.199,0.321,0.703,0.127,0.91,0.431c0.122,0.18-0.024,0.612-0.033,0.794
	c-0.043,0.93-0.024,1.375,0.969,1.46c-0.555,0.581,0.478,1.437,0.499,2.196c0.009,0.291,0.04,0.757-0.074,1.027
	c-0.121,0.285-0.406,0.316-0.522,0.548c-0.293,0.585,0.299,1.376,0.197,1.964c-0.045,0.256-0.237,1.102-0.387,1.281
	c-0.22,0.263-0.653,0.079-0.874,0.282c-0.284,0.261-0.041,0.272,0.014,0.479c0.148,0.563,0.536,0.633,0.74,1.023
	c0.142,0.273,0.04,0.603,0.257,0.892c0.224,0.297,0.432,0.492,0.63,0.805c0.273,0.432,0.614,0.823,1.063,1.114
	c0.377,0.244,0.847,0.527,1.152,0.163c0.315-0.376-0.062-1.065,0.501-1.291c0.517,0.372,0.031,1.315,0.096,1.811
	c0.044,0.336,0.485,0.452,0.512,0.684c0.029,0.249-0.324,0.374-0.469,0.506c0.307,0.48,0.668,1.014,0.617,1.624
	c-0.026,0.309,0.047,0.867,0.409,0.993c0.238,0.083,0.571-0.227,0.915-0.131c0.524,0.146,0.663,0.92-0.043,0.872
	c-0.265,0.791,0.553,1.036,1.205,1.062c0.119,0.472-0.345,0.372-0.528,0.671c-0.14,0.23-0.108,0.59-0.052,0.844
	c0.244-0.08,0.945-0.578,1.213-0.464c0.278,0.118,0.129,0.231,0.228,0.432c0.259,0.521,0.68,0.806,0.968,1.261
	c-0.432,0.36-1.121,0.125-1.621,0.285c0.085,0.382,0.362,0.622,0.344,1.099c-0.014,0.387-0.11,0.615-0.027,1.016
	c0.058,0.282,0.185,0.535,0.185,0.824c-0.419,0.037-0.919-0.542-1.123-0.893c-0.181-0.312-0.079-1.187-0.339-1.356
	c-0.597-0.388-0.317,0.652-0.361,0.792c-0.146,0.471-0.686,0.434-1.114,0.451c0.052,0.378,0.231,0.491-0.055,0.761
	c-0.323,0.305-0.782,0.043-1.16,0.114c0.016,0.355,0.028,0.721,0.203,1.05c0.191,0.359,0.688,0.495,0.851,0.823
	c0.492,0.989-1.241,0.792-1.6,0.361c-0.192-0.231-0.09-0.61-0.387-0.832c-0.141-0.106-0.758-0.361-0.921-0.387
	c-0.814-0.128-1.095,0.974-1.907,0.837c-0.018,1.148,0.483,3.745-0.45,4.578c-0.649-1.466-0.304-3.155-0.675-4.693
	c-0.363,0.385-0.429,0.546-0.555,1.039c-0.055,0.217-0.168,0.646-0.313,0.798c-0.067,0.07-0.258,0.135-0.276,0.158
	c-0.431,0.528,0.024,1.297,0.261,1.992c0.169,0.495,2.997,4.249,2.211,4.579c-0.383,0.161-0.846-0.744-1.085-0.97
	c-0.401-0.378-0.509-0.814-0.857-1.202c-0.587-0.656-0.91,0.206-1.52,0.417c-0.311,0.107-0.401-0.053-0.698-0.051
	c-0.278,0.002-0.466,0.124-0.709,0.222c-0.201,0.08-0.596,0.094-0.747,0.185c-0.199,0.119-0.147,0.362-0.356,0.494
	c-0.15,0.094-0.421-0.07-0.565,0.013c-0.164,0.095-0.224,0.421-0.321,0.578c-0.637-0.223-0.361,0.636-0.239,0.939
	c0.25,0.625,0.351,0.236,0.759,0.525c0.235,0.167,0.241,0.641-0.024,0.803c-0.233,0.143-0.686-0.104-0.883-0.108
	c-0.648-0.015-0.711,0.326-0.715,0.906c-0.003,0.552,0.025,0.715-0.264,1.112c-0.377,0.518-0.741,1.221-0.399,1.88
	c0.479,0.923,1.069-0.077,1.726,0.156c-0.124,0.314-0.058,1-0.321,1.223c-0.398,0.336-0.579-0.138-0.893-0.211
	c-0.429-0.099-0.725,0.34-1.159,0.355c-0.04,0.001-0.082-0.202-0.185-0.199c-0.16,0.004-0.309,0.148-0.451,0.195
	c-0.144,0.047-0.273,0.091-0.429,0.027c-0.03,0.15-0.219,0.479-0.16,0.592c-0.296,0.582-1.089,0.244-0.912,1.169
	c0.067,0.351,0.526,0.599,0.294,0.965c-0.189,0.297-0.885,0.324-1.188,0.43c-0.718,0.251-1.292,0.728-1.483,1.486
	c-0.207,0.822-0.091,1.552-0.992,1.979c-0.161-0.153-0.289-0.391-0.326-0.613c-0.104-0.628,0.21-0.396,0.436-0.787
	c0.187-0.323,0.002-0.416,0.005-0.772c0.003-0.353,0.308-0.667,0.112-0.968c-0.298,0.73-0.743,0.34-1.319,0.551
	c0.101,0.306,0.226,0.584,0.094,0.908c-0.151,0.369-0.516,0.413-0.459,0.838c0.056,0.423,0.628,0.715,0.124,1.092
	c-0.419,0.313-1.049-0.045-1.354-0.306c-0.258,0.724-1.27,0.146-1.876,0.307c0.466,0.368,0.538,0.315,0.73,0.828
	c0.089,0.236,0.254,0.521,0.312,0.758c0.087,0.355,0.082,1.098-0.126,1.383c-0.223,0.306-0.617,0.214-0.895,0.381
	c-0.414,0.249-0.15,0.359-0.387,0.778c-0.134,0.236-0.399,0.32-0.529,0.628c-0.045,0.107,0.065,0.255,0.029,0.372
	c-0.039,0.127-0.199,0.347-0.276,0.46c-0.247,0.359-0.628,1.028-1.067,1.107c-1.247-1.241-0.135-1.829,0.634-2.871
	c0.214-0.29,0.624-0.743,0.535-0.996c-0.109-0.308-0.74-0.692-0.959-0.942c-0.418-0.48-0.678-0.923-0.616-1.59
	c0.06-0.636,0.298-0.575,0.607-1.05c0.244-0.375,0.29-1.042,0.258-1.484c-0.042-0.577-0.373-0.602-0.763-1.045
	c-0.327-0.373-0.504-0.958-1.047-0.872c-0.447,0.07-0.809,0.572-0.879,0.97c-0.08,0.455,0.107,0.966-0.049,1.411
	c-0.119,0.339-0.441,0.584-0.6,0.904c-0.198,0.4-0.391,0.846-0.569,1.232c-0.164,0.354-0.132,0.716-0.302,1.075
	c-0.163,0.344-0.446,0.433-0.347,0.905c0.094,0.446,0.422,0.51,0.2,0.954c-0.305,0.61-0.737,0.283-1.248,0.429
	c-0.295,0.084-0.787,0.462-0.988,0.704c-0.407,0.489-0.287,1.268-1.157,0.891c-0.011-0.193-0.044-0.403-0.156-0.561
	c-0.996,0.587-0.655,0.002-1.379-0.35c-0.365,0.386-0.673,0.915-1.181,1.148c-0.651,0.299-0.538-0.38-1.155-0.268
	c-0.714,0.13-1.456,1.263-1.733,1.865c-0.328,0.71-0.323,1.555-0.284,2.333c0.021,0.414,0.066,0.692-0.063,1.076
	c-0.101,0.301-0.365,0.659-0.243,1.006c0.079,0.224,0.397,0.331,0.4,0.564c0.006,0.433-0.816,0.825-0.803,1.208
	c0.025,0.747-0.155,1.627-0.857,2.044c-0.611,0.363-1.109,0.467-1.499,1.146c-0.464,0.809-0.505,1.252,0.186,1.854
	c0.711,0.619,1.506,1.115,1.857,2.042c0.316,0.834,0.297,1.742,0.465,2.602c0.181,0.928,0.429,1.833,0.747,2.721
	c0.227,0.634,0.455,1.76,0.085,2.396c-0.29,0.498-1.158,0.746-0.472,1.245c0.339,0.246,0.708,0.208,1.013,0.58
	c0.162,0.199,0.219,0.469,0.36,0.669c0.471,0.667,1.357,0.413,2.129,0.451c0.374,0.603,0.423,0.985,1.151,1.22
	c0.345,0.111,0.666,0.154,0.947,0.368c0.322,0.246,0.352,0.529,0.844,0.479c0.293-1.007,1.118-0.761,1.889-0.363
	c0.574,0.296,1.239,0.631,1.752,1.042c0.564,0.452,1.128,1.053,1.609,1.62c0.314,0.371,0.73,1.047,1.177,1.253
	c0.02-0.407,0.079-1.298,0.326-1.622c0.288-0.377,1.108-0.584,1.118-1.163c0.005-0.294-0.381-0.555-0.47-0.815
	c-0.121-0.351,0.002-0.605,0.038-0.936c0.018-0.161-0.083-0.287-0.026-0.435c0.064-0.165,0.267-0.226,0.349-0.391
	c0.238-0.479-0.057-0.529-0.322-0.882c-0.363-0.482-0.063-2.019,0.701-2.015c0.194-0.624-0.257-0.541-0.447-1.042
	c-0.137-0.36-0.064-0.876,0.002-1.245c0.123-0.68,0.445-1.368,0.616-2.058c0.265-0.006,0.492-0.095,0.751-0.123
	c0.512-0.055,0.513-0.128,0.91-0.454c0.227-0.187,0.892-0.677,1.206-0.613c0.226,0.046,0.249,0.292,0.431,0.399
	c0.228,0.134,0.491,0.105,0.749,0.113c0.634,0.019,0.772-0.062,1.224,0.355c0.539,0.499,0.895,1.141,1.574,0.623
	c0.476-0.364,0.324-0.898,0.732-1.143c0.814-0.489,1.103,0.418,1.882,0.316c0.169,0.724,0.723,1.215,1.223,1.73
	c0.435-0.399,0.754-0.178,1.242-0.045c0.365,0.1,0.66,0.085,1.039,0.14c0.648,0.095,0.847,0.844,1.504,0.966
	c0.291,0.054,0.724-0.139,1.023-0.16c0.309-0.022,0.473,0.026,0.734-0.097c0.446-0.21,0.938-0.72,1.347-0.008
	c0.922-0.948,1.166-0.218,2.216,0.068c0.56,0.152,0.824,0.394,1.251,0.761c0.734,0.632,1.512,0.334,2.367,0.648
	c0.529,0.194,1.674,1.635,1.668,2.259c-0.002,0.312-0.377,0.605-0.473,0.9c-0.135,0.411-0.155,0.886-0.035,1.297
	c0.356,0.036,0.477,0.034,0.703,0.214c0.183,0.146,0.307,0.422,0.502,0.58c0.222,0.18,0.516,0.287,0.785,0.377
	c-0.277,0.822-0.13,1.777-0.253,2.634c-0.093,0.646-0.323,0.616-0.8,0.873c-0.541,0.291-0.372,0.406-0.224,0.853
	c0.099,0.3-0.064,0.851,0.058,1.165c0.167,0.431,0.633,0.234,0.926,0.442c0.479,0.339,0.164,0.851,0.291,1.307
	c0.059,0.21,0.248,0.327,0.313,0.507c0.105,0.293,0.012,0.562-0.018,0.849c-0.06,0.58,0.115,0.657,0.345,1.208
	c0.126,0.301,0.081,0.64,0.122,0.972c0.026,0.218,0.009,0.639,0.135,0.823c0.186,0.273,0.676,0.349,0.927,0.694
	c0.413-0.339,0.546-0.985,0.938-1.383c0.526-0.533,0.849-0.586,1.488-0.461c0.801,0.156,1.148-0.444,1.77-0.895
	c0.572-0.415,1.411-0.901,2.123-0.921c0.306-0.009,0.791,0.007,1.075,0.144c0.344,0.167,0.41,0.519,0.672,0.732
	c0.473,0.385,1.353,0.429,1.801,0.083c0.302-0.233,0.313-0.697,0.869-0.484c0.27,0.104,0.534,0.55,0.728,0.745
	c0.281,0.282,0.561,0.606,0.882,0.834c0.324,0.231,0.712,0.594,1.049,0.734c0.293,0.121,1.949,0.201,2.205,0.018
	c0.462-0.33-0.08-0.759,0.629-0.987c0.691-0.221,1.352-0.141,2.038-0.452c0.533-0.241,1.016-0.61,1.548-0.83
	c0.4,0.493,0.781,0.648,1.42,0.581c0.65-0.069,1.536-0.134,2.11-0.48c0.599-0.361,0.621-1.157,1.185-1.403
	c0.532-0.232,1.623-0.167,2.177-0.024c0.6,0.155,1.052,0.613,1.662,0.814c0.458,0.151,0.785,0.438,1.215,0.626
	c0.445,0.194,0.525,0.174,0.75,0.609c0.138,0.267,0.137,0.478,0.441,0.618c0.811,0.374,1.242-0.178,1.967-0.587
	c0.327-0.185,0.822-0.366,1.177-0.428c0.413-0.072,0.604,0.145,0.955,0.196c0.291-0.639,0.604-1.275,0.805-1.958
	c0.193-0.655,0.606-1.656,0.773-2.292c0.209-0.8,1.918-0.506,2.59-0.343c0.781,0.189,0.978,0.973,1.688,1.287
	c0.634,0.28,1.261,0.572,1.785,0.164c0.514-0.4,1.122-0.968,1.724-1.148c0.515-0.154,1.198,0.179,1.614-0.232
	c0.384-0.38,0.245-0.571,0.804-0.807c0.95-0.402,0.66-1.058,0.995-1.912c0.57-1.456,2.317-2.157,2.61-3.803
	c0.122-0.682,0.03-1.319,0.261-1.998c0.223-0.654,0.645-1.29,0.75-1.986c0.087-0.581-0.207-0.693-0.467-1.142
	c-0.234-0.405-0.174-0.882-0.109-1.387c0.091-0.702,0.411-1.299,0.405-2.023c-0.004-0.485-0.086-0.864-0.214-1.317
	c-0.182-0.643-0.805-1.69-0.69-2.313c0.058-0.311,0.424-0.667,0.572-0.939c0.177-0.325,0.361-0.652,0.496-0.973
	c0.258-0.613,0.411-1.479,0.546-2.14c0.175-0.856,0.704-1.481,1.412-1.953c0.35-0.233,0.716-0.327,0.927-0.706
	c0.087-0.157,0.149-0.59,0.205-0.782c0.309-1.068-0.146-2.321-0.404-3.363c-0.277-1.119-0.231-2.273-0.634-3.356
	c-0.213-0.573-0.549-1.105-0.822-1.653c-0.162-0.326-0.661-0.963-0.587-1.327c0.074-0.365,0.827-0.969,1.072-1.258
	c0.302-0.357,0.458-0.605,0.503-1.064c0.081-0.811-0.132-1.117,0.795-0.887c1.006,0.25,1.966,0.619,3.002,0.686
	c0.882,0.058,1.533,0.09,2.341,0.437c0.427,0.184,0.653,0.239,1.061,0.12c0.343-0.1,0.386-0.378,0.814-0.193
	c-0.162,0.674-0.198,0.856,0.194,1.509c0.404,0.672,0.958,1.1,1.734,1.199c-0.194,0.373-0.119,1.306,0.066,1.741
	c0.636,0.069,1.845-1.034,1.914,0.378c-1.079,0.408-0.163,1.093,0.371,1.55c0.285,0.244,0.572,0.455,0.9,0.62
	c0.756,0.38,1.527,0.206,2.294,0.44c-0.466,0.506,0.657,0.734,1.033,0.499c0.394-0.246,0.515-0.642,1.014-0.793
	c0.076,0.24,0.271,0.418,0.312,0.653c0.919-0.572,2.099,0.182,2.941-0.501c0.87-0.705,0.898-1.818,1.102-2.798
	c0.116-0.555,0.144-0.537,0.583-0.767c0.369-0.193,0.584-0.333,0.762-0.739c0.324-0.737,0.159-2.003,1.141-2.144
	c0.387-0.055,1.011,0.16,1.313,0.409c0.309,0.255,0.316,0.71,0.618,0.932c0.433,0.317,1.658,0.134,2.236,0.133
	c0.604-0.002,1.729,0.335,2.127-0.255c0.201-0.299,0.104-0.805,0.184-1.141c0.063-0.266,0.199-0.539,0.312-0.786
	c0.196-0.43,0.247-0.615,0.141-1.085c-0.108-0.478-0.755-1.227-0.417-1.705c0.293-0.415,1.302-0.356,1.736-0.204
	c0.347,0.122,0.545,0.36,0.913,0.413c0.254,0.037,0.561-0.042,0.82-0.052c1.607-0.062,0.581,1.2,1.127,2.132
	c0.489,0.835,2.013,1.533,2.55,0.505c0.32-0.614,0.365-1.357,0.76-1.963c0.191-0.293,0.473-0.764,0.753-0.972
	c0.336-0.249,0.892-0.11,1.315-0.108c0.618-0.12,0.728,0.582,1.009,0.972c0.55,0.764,1.334,0.65,2.232,0.337
	c0.673-0.235,1.433-1.193,1.604-0.047c0.081,0.544,0.017,1.141,0.016,1.69c0.541,0.287,0.821,0.511,0.969,1.102
	c0.105,0.419-0.063,0.625,0.434,0.815c0.381,0.146,0.607-0.032,0.909,0.252c0.167,0.157,0.188,0.348,0.336,0.518
	c0.305,0.349,0.821,0.634,1.2,0.902c0.258,0.183,0.603,0.372,0.773,0.655c0.12,0.199,0.064,0.558,0.2,0.755
	c0.406,0.588,1.181,0.233,1.771,0.409c0.764,0.227,1.382,0.614,2.208,0.764c0.515,0.093,1.202,0.547,1.568,0.516
	c0.509-0.043,1.145-0.689,1.598-0.915c0.86-0.429,1.515-0.615,2.501-0.461c1.306,0.204,2.574,0.063,3.583,0.959l2.738-2.636
	c0.774-0.559,0.473-1.7,1.448-2.205c1.272-0.659,2.515,0.092,3.357,1.031c0.302,0.337,0.567,0.656,1.013,0.822
	c0.367,0.136,0.919,0.045,1.254,0.249c0.318,0.193,0.242,0.546,0.492,0.74c0.273,0.212,0.896,0.029,1.057-0.214
	c0.074-0.111,0.005-0.441,0.07-0.588c0.096-0.218,0.213-0.295,0.401-0.435c0.249-0.185,0.568-0.269,0.807-0.454
	c0.574-0.443,0.736-0.444,1.472-0.517c1.024-0.102,1.989-1.635,2.161-2.565c0.117-0.63,0.194-1.052,0.824-1.3
	c0.373-0.147,1.055-0.203,1.104-0.643c0.028-0.252-0.088-0.431-0.346-0.468c-0.057-1.094,0.405-2.26-0.058-3.236
	c-0.347-0.729-0.401-1.7-0.706-2.491c-0.184-0.478-0.346-0.944-0.261-1.473c0.073-0.456,0.349-0.815,0.398-1.291
	c0.082-0.794-0.124-1.477,0.316-2.159c0.323-0.501,0.835-0.944,1.015-1.506c0.21-0.653,0.135-1.455,0.199-2.135
	c0.07-0.746,0.522-1.145,0.768-1.828c0.231-0.638,0.272-1.288,0.644-1.831c0.357-0.523,0.37-1.085,0.619-1.663
	c0.281-0.65,0.927-0.463,1.253-1.063C191.2,112.968,191.315,112.32,191.166,111.913z"/>
</svg>
