<?xml version="1.0" encoding="utf-8"?>
<!-- Generator: Adobe Illustrator 26.0.3, SVG Export Plug-In . SVG Version: 6.00 Build 0)  -->
<svg version="1.1" id="Isolation_Mode" xmlns="http://www.w3.org/2000/svg" xmlns:xlink="http://www.w3.org/1999/xlink" x="0px"
	 y="0px" viewBox="0 0 200 200" enable-background="new 0 0 200 200" xml:space="preserve">
<g>
	<path fill="#1E8346" d="M11.816,81.281c0.657-0.057,1.451,0.219,1.867,0.679c0.283,0.314,0.662,0.467,0.992,0.708
		c0.427,0.311,0.695,0.823,0.993,1.26c0.302,0.443,0.643,0.86,0.882,1.341c0.231,0.468,0.382,0.684,0.752,1.04
		c0.321,0.309,0.618,0.497,0.453,0.995c-0.169,0.508-0.468,1.024-0.707,1.517c-0.211,0.435-0.266,0.872-0.419,1.311
		c-0.86,0.626-0.691,1.241-0.963,2.169c-0.301,1.029-1.191,1.329-2.136,1.313c-0.923-0.016-2.386,0.011-3.181-0.579
		c-0.361-0.268-0.35-0.73-0.402-1.143c-0.071-0.564-0.261-0.978-0.718-1.344c-0.429-0.344-1.105-0.488-1.474-0.897
		c-0.27-0.299-0.276-0.621-0.632-0.867c-0.393-0.271-0.482-0.241-0.613-0.635c-0.165-0.497-0.336-0.647-0.754-1.009
		c-0.346-0.3-0.333-0.462-0.331-0.959c0.002-0.411-0.023-0.813-0.038-1.217c-0.031-0.838,0.434-1.863,1.004-2.486
		c0.33-0.361,0.794-0.659,1.267-0.784c0.446-0.118,0.948,0.02,1.336-0.217c0.39-0.238,0.502-0.447,0.993-0.499
		C10.364,80.941,11.332,80.844,11.816,81.281z"/>
	<path fill="#1E8346" d="M13.666,60.894c0.473,0.142,0.567,0.697,0.295,1.031c-0.12,0.148-0.238,0.234-0.274,0.44
		c-0.041,0.238,0.014,0.498,0.016,0.737c0.002,0.262,0.029,0.226,0.169,0.399c0.091,0.113,0.083,0.229,0.148,0.357
		c0.095,0.187,0.295,0.271,0.432,0.412c0.127,0.13,0.177,0.29,0.265,0.441c0.089,0.153,0.203,0.339,0.376,0.388
		c0.282,0.081,0.588-0.192,0.835-0.281c0.243-0.088,0.287-0.162,0.43-0.37c0.064-0.093,0.098-0.158,0.212-0.212
		c0.128-0.06,0.378-0.008,0.482-0.104c0.099-0.091,0.127-0.431,0.111-0.578c-0.027-0.239-0.12-0.488-0.338-0.615
		c-0.23-0.133-0.568-0.097-0.718-0.333c-0.125-0.195-0.051-0.469-0.185-0.669c-0.061-0.091-0.161-0.132-0.2-0.245
		c-0.047-0.137-0.016-0.313-0.017-0.456c-0.002-0.248-0.087-0.403-0.304-0.527C15.159,60.57,13.839,60.344,13.666,60.894z"/>
	<path fill="#1E8346" d="M63.091,106.295c0.155,0.283,0.364,0.622,0.349,0.965c-0.01,0.231-0.1,0.273-0.236,0.454
		c-0.132,0.176-0.139,0.175-0.138,0.42c0.003,0.489,0,0.98,0.024,1.469c0.019,0.39,0.1,0.768,0.072,1.166
		c-0.026,0.368,0.042,0.93-0.199,1.24c-0.061,0.078-0.215,0.138-0.257,0.226c-0.053,0.111-0.013,0.329-0.013,0.457
		c0.004,0.881,0.082,1.755,0.075,2.638c-0.006,0.798-0.534,1.414-0.474,2.218c0.027,0.366,0.076,0.713,0.075,1.087
		c-0.001,0.359-0.107,0.434-0.42,0.606c-0.54,0.297-0.93,0.576-1.57,0.583c-1.201,0.014-2.381-0.174-3.515,0.285
		c-0.614,0.249-1.147,0.412-1.809,0.412c-0.504,0-1.139-0.093-1.623,0.079c-0.202,0.072-0.379,0.209-0.592,0.27
		c-0.169,0.049-0.355,0.054-0.507,0.149c-0.221,0.138-0.348,0.394-0.603,0.474c-0.465,0.146-0.142,0.842-0.63,0.917
		c-0.325,0.05-0.502-0.122-0.721,0.147c-0.101,0.124-0.131,0.288-0.285,0.37c-0.15,0.08-0.336,0.038-0.495,0.063
		c-0.548,0.086-1.538,0.691-1.255,1.332c0.122,0.277,0.414,0.449,0.547,0.719c0.116,0.238,0.168,0.572,0.144,0.837
		c-0.026,0.272-0.003,0.416,0.065,0.687c0.083,0.334-0.175,0.444-0.51,0.41c-0.306-0.031-0.598-0.318-0.82-0.511
		c-0.292-0.253-0.559-0.461-0.919-0.601c-0.247-0.096-0.589-0.316-0.729-0.019c-0.137,0.289,0.009,0.742,0.191,0.975
		c0.184,0.236,0.437,0.405,0.686,0.564c0.299,0.192,0.553,0.447,0.838,0.652c0.354,0.254,0.788,0.434,1.177,0.632
		c0.338,0.172,0.967,0.361,1.303,0.078c0.173-0.145,0.204-0.257,0.43-0.348c0.142-0.057,0.327-0.064,0.462-0.131
		c0.207-0.102,0.273-0.387,0.096-0.61c0.2-0.233,0.656,0.136,0.863,0.228c0.368,0.163,0.778,0.207,1.142,0.358
		c0.317,0.131,0.812,0.266,1.002,0.55c0.195,0.292,0.298,0.672-0.122,0.748c-0.33,0.059-0.776-0.012-0.896,0.345
		c-0.103,0.308-0.058,0.619,0.111,0.868c0.251,0.371,0.623,0.219,0.965,0.428c0.227,0.138,0.372,0.312,0.525,0.523
		c0.09,0.124,0.209,0.434,0.378,0.473c0.523,0.121,0.275-0.829,0.435-1.017c0.262-0.309,1.255-0.083,1.647-0.076
		c0.127,0.315,0.053,0.503,0.361,0.695c0.264,0.164,0.546,0.142,0.819,0.236c0.144,0.05,0.254,0.168,0.376,0.254
		c0.435,0.307,0.938,0.477,1.265,0.881c0.371,0.459,0.144,1.235,0.749,1.551c0.368,0.192,0.782,0.134,1.17,0.245
		c0.302,0.086,0.556,0.268,0.847,0.401c0.265,0.121,0.553,0.206,0.848,0.259c0.293,0.053,0.501,0.172,0.77,0.273
		c0.311,0.117,0.475,0.028,0.75-0.134c0.098-0.058,0.221-0.102,0.304-0.182c0.042-0.04,0.077-0.163,0.119-0.187
		c0.084-0.047,0.127-0.058,0.219-0.036c0.114,0.027,0.207,0.166,0.33,0.205c0.185,0.058,0.395,0.013,0.585,0.024
		c0.227,0.013,0.407,0.065,0.546,0.263c0.302,0.428,0.063,1.051,0.35,1.479c0.291,0.433,0.772,0.079,1.092,0.256
		c0.23,0.128,0.465,0.521,0.595,0.744c0.105,0.181,0.162,0.319,0.043,0.51c-0.091,0.147-0.276,0.196-0.277,0.391
		c-0.001,0.209,0.255,0.441,0.366,0.606c0.279,0.414,0.409,0.81,0.608,1.257c0.145,0.325-0.044,0.234,0.271,0.386
		c0.075,0.036,0.144,0.094,0.217,0.134c0.153,0.082,0.402,0.096,0.516,0.206c0.22,0.211,0.242,0.582,0.265,0.855
		c0.038,0.45,0.293,0.132,0.596,0.351c0.329,0.239,0.566,0.764,1.079,0.61c0.298-0.09,0.386-0.366,0.523-0.624
		c0.06-0.112,0.174-0.32,0.309-0.349c0.215-0.046,0.193,0.094,0.3,0.227c0.215,0.266,0.577,0.342,0.809,0.595
		c0.386,0.421,0.396,1.228,0.343,1.76c-0.164,0.021-0.338-0.019-0.494,0.049c-0.391,0.172-0.08,0.377-0.028,0.632
		c0.051,0.254-0.163,0.39-0.225,0.618c-0.082,0.304,0.003,0.628,0.13,0.906c0.323,0.711,1.055,0.377,1.539,0.85
		c0.401,0.393,0.477,1.044,1.222,1.014c0.202,0.184,0.049,0.848,0.05,1.092c0.001,0.331-0.053,0.576-0.26,0.843
		c-0.52,0.67-1.335,0.268-2.027,0.331c-0.358,0.032-0.542,0.204-0.785,0.432c-0.177,0.166-0.36,0.256-0.615,0.217
		c-0.38-0.058-0.712-0.188-1.112-0.175c-0.297,0.01-0.845-0.021-1.062,0.191c-0.089,0.088-0.134,0.249-0.217,0.351
		c-0.175,0.216-0.41,0.324-0.603,0.516c-0.226,0.226-0.342,0.57-0.254,0.882c0.113,0.402,1.165,1.396,0.284,1.574
		c-0.847,0.171-0.081,1.155,0.106,1.613c0.12,0.295,0.3,0.408,0.482,0.663c0.122,0.172,0.251,0.513,0.539,0.441
		c0.136-0.034,0.248-0.216,0.376-0.282c0.189-0.096,0.259-0.067,0.364-0.251c0.105-0.185,0.015-0.346,0.075-0.531
		c0.043-0.135,0.122-0.159,0.226-0.254c0.213-0.194,0.336-0.459,0.531-0.677c0.076-0.085,0.221-0.209,0.331-0.245
		c0.378-0.123,0.941-0.019,1.341-0.005c0.107,0.004,0.209,0.006,0.315,0.03c0.121,0.159,0.35,0.296,0.489,0.474
		c0.228,0.293,0.317,0.625,0.28,1c-0.031,0.312-0.336,0.491-0.349,0.783c-0.011,0.235,0.202,0.448,0.324,0.628
		c0.256,0.377,0.65,0.797,1.076,0.872c0.446,0.079,0.728,0.125,1.03,0.482c0.17,0.2,0.272,0.39,0.287,0.666
		c0.02,0.353-0.223,0.352-0.425,0.58c-0.192,0.216-0.069,0.458,0.107,0.691c0.34,0.45,0.927,0.359,1.288,0.811
		c0.184,0.23,0.349,0.32,0.562,0.5c0.32,0.27,0.051,0.499,0.016,0.825c-0.026,0.246,0.19,0.467,0.294,0.677
		c0.157,0.319,0.341,0.527,0.72,0.593c0.229,0.04,0.263,0.003,0.446,0.151c0.12,0.098,0.209,0.24,0.337,0.329
		c0.252,0.174,0.288,0.139,0.414,0.425c0.162,0.37,0.26,0.623,0.691,0.664c0.191,0.018,0.42-0.048,0.592,0.047
		c0.118,0.066,0.232,0.239,0.335,0.326c0.259,0.22,0.452,0.4,0.651,0.686c0.178,0.256,0.406,0.448,0.712,0.542
		c0.437,0.134,0.27-0.1,0.24-0.38c-0.025-0.232,0.159-0.626,0.316-0.798c0.302-0.331,1.175-0.189,1.6-0.169
		c0.366,0.017,0.422,0.109,0.709,0.282c0.265,0.159,0.576,0.068,0.856,0.167c0.127,0.045,0.27,0.182,0.423,0.17
		c0.187-0.015,0.441-0.291,0.526-0.457c0.344-0.672-0.576-1.111-0.691-1.706c-0.029-0.151,0.056-0.15,0.068-0.285
		c0.014-0.17-0.074-0.394-0.148-0.545c-0.224-0.455-0.499-0.397-0.924-0.526c-0.451-0.137-0.666-0.455-1.021-0.694
		c-0.335-0.226-1.008-0.192-0.899-0.742c0.061-0.311,0.182-0.562,0.154-0.895c-0.028-0.331-0.087-0.669-0.12-1.002
		c-0.036-0.374,0.141-0.528,0.237-0.878c0.093-0.339,0.03-0.659-0.126-0.962c-0.139-0.271-0.375-0.441-0.522-0.694
		c-0.207-0.354-0.298-0.732-0.562-1.054c-0.192-0.233-0.429-0.438-0.503-0.735c-0.043-0.172-0.009-0.361-0.05-0.53
		c-0.048-0.196-0.179-0.36-0.291-0.525c-0.258-0.38-0.568-0.85-0.626-1.319c-0.079-0.637,0.166-1.209,0.395-1.782
		c0.171-0.428,0.451-0.806,0.622-1.231c0.188-0.466,0.725-0.539,1.064-0.85c0.143-0.13,0.335-0.174,0.5-0.266
		c0.173-0.097,0.267-0.216,0.431-0.337c0.5-0.373,0.137-0.501-0.169-0.909c-0.305-0.408-0.066-1.104-0.22-1.577
		c-0.08-0.248-0.192-0.488-0.237-0.745c-0.06-0.348-0.005-0.708-0.068-1.057c-0.124-0.694-0.449-1.289-0.682-1.946
		c-0.188-0.53,0.026-1.036,0.122-1.557c0.047-0.257,0.155-0.43,0.254-0.665c0.109-0.257,0.097-0.588,0.1-0.885
		c0.006-0.647,0.077-0.928,0.553-1.338c0.241-0.207,0.444-0.217,0.731-0.355c0.168-0.081,0.311-0.238,0.506-0.246
		c0.027-0.473-0.119-1.161,0.252-1.505c0.196-0.181,0.474-0.294,0.612-0.531c0.138-0.237,0.086-0.563,0.086-0.827
		c0-0.395,0.017-0.712-0.297-0.954c-0.156,0.148-0.328,0.366-0.462,0.537c-0.217,0.277-0.124,0.337-0.472,0.157
		c-0.531-0.275-1.045-0.576-1.547-0.916c-0.371-0.251-0.621-0.375-0.893-0.723c-0.178-0.227-0.315-0.359-0.575-0.445
		c-0.321-0.106-0.681-0.234-0.985-0.423c-0.192-0.12-0.44-0.262-0.612-0.405c-0.164-0.137-0.269-0.328-0.453-0.447
		c-0.346,0.201-0.456,0.713-0.969,0.681c-0.341-0.021-0.636-0.399-0.927-0.585c-0.203,0.178-0.383,0.327-0.552,0.01
		c-0.129-0.242,0.06-0.349,0.077-0.581c0.023-0.32-0.287-0.52-0.522-0.655c-0.364-0.209-0.686-0.294-0.979-0.59
		c-0.252-0.253-0.563-0.411-0.802-0.674c-0.198-0.22-0.441-0.398-0.71-0.541c-0.174-0.093-0.337-0.148-0.481-0.265
		c-0.08-0.065-0.144-0.176-0.218-0.238c-0.22-0.184-0.509-0.245-0.733-0.417c0.053,0.212-0.061,0.441-0.068,0.653
		c-0.008,0.266,0.088,0.489,0.152,0.742c-0.21-0.077-0.403-0.342-0.605-0.467c-0.18-0.111-0.507-0.235-0.562-0.471
		c-0.051-0.223,0.128-0.258,0.197-0.428c0.113-0.28-0.072-0.51-0.247-0.704c-0.365-0.402-0.767-0.781-1.171-1.138
		c-0.407-0.359-0.553-0.52-0.627-1.053c-0.067-0.484,0.023-1-0.288-1.419c-0.1-0.136-0.249-0.317-0.388-0.412
		c-0.103-0.07-0.259-0.075-0.358-0.176c-0.165-0.168-0.151-0.391-0.223-0.6c-0.117-0.336-0.415-0.482-0.711-0.645
		c-0.297-0.164-0.47,0.061-0.82,0.082c-0.087,0.005-0.302,0.051-0.376-0.021c-0.14-0.137-0.035-0.498,0.058-0.623
		c0.168-0.226,0.475-0.169,0.466-0.563c-0.004-0.178-0.133-0.28-0.122-0.434c0.257-0.077,0.535,0.053,0.704-0.218
		c0.109-0.176,0.122-0.484,0.116-0.691c-0.014-0.445-0.001-1.172,0.447-1.43c0.227-0.131,0.468,0.052,0.713-0.081
		c0.179-0.096,0.273-0.301,0.37-0.465c0.179-0.301,0.42-0.557,0.088-0.818c-0.179-0.14-0.439-0.329-0.648-0.434
		c-0.232-0.115-0.678-0.027-0.85-0.182c-0.077-0.07-0.108-0.237-0.147-0.324c0.038,0.003,0.093-0.028,0.139-0.022
		c-0.007-0.286-0.181-0.518-0.464-0.586c-0.126-0.03-0.244-0.042-0.354,0.022c-0.15,0.087-0.386,0.502-0.463-0.017
		c-0.098-0.669,0.865-0.293,1.056-0.656c0.084-0.16,0.021-0.337,0.1-0.487c0.068-0.13,0.28-0.256,0.385-0.361
		c0.262-0.262,0.381-0.891,0.05-1.199c-0.298-0.277-0.641-0.439-0.169-0.744c0.329-0.213,0.585-0.556,0.367-0.972
		c-0.126-0.242-0.32-0.429-0.443-0.68c-0.118-0.239-0.24-0.478-0.358-0.717c-0.233-0.474-0.351-1.074-0.7-1.468
		c-0.395-0.446-0.839-0.858-1.342-1.186c-0.396-0.258-0.871-0.506-1.331-0.607c-0.421-0.092-0.887-0.132-1.318-0.15
		c-0.162-0.007-0.718,0.046-0.85-0.027c-0.189-0.106-0.158-0.361-0.387-0.472c-0.303-0.147-0.432,0.017-0.706,0.127
		C63.807,106.091,62.763,105.697,63.091,106.295z"/>
	<path fill="#1E8346" d="M132.429,36.284c0.143,0.189,0.507,0.064,0.713,0.234c0.307,0.254,0.772,0.65,0.981,0.978
		c0.173,0.272,0.213,0.616,0.386,0.896c0.162,0.26,0.351,0.437,0.556,0.658c0.227,0.243,0.457,0.506,0.66,0.772
		c0.218,0.288,0.5,0.544,0.698,0.843c0.181,0.273,0.089,0.574,0.414,0.751c0.397,0.217,1.077,0.415,1.546,0.286
		c0.207-0.057,0.215-0.198,0.36-0.306c0.202-0.152,0.535-0.156,0.773-0.154c0.226,0.002,0.575,0.129,0.792,0.033
		c0.394-0.173,0.095-0.54,0.286-0.758c0.179-0.204,0.562,0,0.655,0.198c0.127,0.273,0.104,0.633,0.173,0.925
		c0.136,0.571,0.353,0.472,0.824,0.598c0.352,0.094,0.623,0.499,0.888,0.733c0.251,0.221,0.601,0.249,0.806,0.512
		c0.133,0.171,0.155,0.294,0.344,0.419c0.161,0.107,0.392,0.191,0.584,0.226c0.455,0.084,0.852,0.294,1.34,0.303
		c0.178,0.004,0.624,0.079,0.778,0.003c0.176-0.086,0.203-0.392,0.324-0.549c0.168-0.218,0.622-0.338,0.892-0.386
		c0.739-0.131,1.541-0.044,2.288-0.041c0.203,0.001,0.677-0.042,0.828,0.126c0.091,0.1,0.169,0.639,0.171,0.798
		c0.002,0.101-0.032,0.176-0.045,0.274c-0.033,0.25,0.045,0.311,0.153,0.517c0.072,0.136,0.06,0.261,0.114,0.401
		c0.084,0.216,0.21,0.207,0.386,0.301c0.323,0.173,0.536,0.507,0.869,0.683c0.4,0.212,1.552,0.439,1.059,1.024
		c-0.163,0.193-0.397,0.461-0.593,0.613c-0.188,0.146-0.477,0.143-0.686,0.226c-0.411,0.164-0.505,0.132-0.934,0.07
		c-0.299-0.043-0.882-0.063-1.121-0.288c-0.232-0.22-0.123-0.62-0.229-0.9c-0.14-0.371-0.291-0.774-0.554-1.079
		c-0.557-0.649-1.585,0.205-2.163,0.404c-0.273,0.095-0.495-0.031-0.638,0.191c-0.133,0.208-0.094,0.654-0.157,0.892
		c-0.075,0.277-0.258,0.408-0.247,0.714c0.006,0.164-0.028,0.489,0.04,0.631c0.059,0.125,0.306,0.291,0.422,0.337
		c0.12,0.047,0.306-0.023,0.385,0.119c0.079,0.143-0.082,0.4-0.108,0.53c-0.07,0.347,0.017,0.716,0.257,0.981
		c0.199,0.22,0.385,0.146,0.621,0.252c0.171,0.077,0.237,0.25,0.351,0.382c0.194,0.226,0.456,0.361,0.698,0.522
		c0.073,0.347-0.039,0.889-0.374,1.072c-0.208,0.113-0.562,0.068-0.794,0.092c-0.337,0.035-0.669,0.053-1.003,0.114
		c-0.163,0.03-0.481,0.034-0.573,0.164c-0.107,0.153,0.045,0.59,0.002,0.778c-0.113,0.509-0.492,0.11-0.832,0.077
		c-0.326-0.031-0.654,0.023-0.969-0.088c-0.396-0.14-0.431-0.235-0.654-0.539c-0.133-0.181-0.323-0.296-0.465-0.471
		c-0.195-0.241-0.314-0.374-0.606-0.504c-0.334-0.149-0.654-0.306-0.975-0.481c-0.445-0.243-0.958-0.383-1.436-0.517
		c-0.681-0.191-1.483,0.002-2.143-0.263c-0.303-0.121-0.168-0.18-0.311-0.389c-0.25-0.366-0.889-0.296-1.211-0.554
		c-0.142-0.114-0.196-0.306-0.215-0.495c-0.032-0.32-0.08-0.542-0.255-0.832c-0.127-0.21-0.326-0.362-0.296-0.625
		c0.023-0.202,0.188-0.391,0.244-0.592c0.074-0.262,0.069-0.495,0.014-0.761c-0.103-0.497-0.32-0.588-0.699-0.894
		c-0.519-0.42-1.019-0.665-1.691-0.808c-0.758-0.161-1.533-0.287-2.304-0.288c-0.764-0.001-1.518,0.074-2.282,0.076
		c-0.276,0-0.869,0.088-1.11-0.064c-0.106-0.067-0.247-0.259-0.326-0.361c-0.191-0.244-0.371-0.502-0.497-0.786
		c-0.282-0.636-0.156-1.283-0.116-1.943c0.031-0.515-0.115-0.796-0.52-1.094c-0.29-0.214-0.482-0.289-0.548-0.653
		c-0.054-0.296,0.055-0.692-0.052-0.972c-0.084-0.219-0.356-0.229-0.503-0.43c-0.126-0.173-0.104-0.474-0.172-0.673
		c-0.257-0.758,0.483-0.808,1.017-1.068c0.357-0.174,0.494-0.416,0.917-0.373c0.486,0.05,0.682,0.332,1.072,0.573
		c0.48,0.295,1.224,0.185,1.789,0.139c0.278-0.023,0.594-0.063,0.836-0.228c0.457-0.312,0.26-0.831,0.376-1.281
		C131.883,36.19,132.25,36.284,132.429,36.284z"/>
	<path fill="#1E8346" d="M136.192,33.463c0.372,0.156,0.677,0.542,1.086,0.25c0.111-0.079,0.183-0.257,0.28-0.317
		c0.106-0.066,0.3-0.059,0.421-0.064c0.235-0.011,0.621-0.071,0.838,0.004c0.099,0.034,0.121,0.102,0.202,0.179
		c0.162,0.153,0.334,0.189,0.552,0.192c0.455,0.007,0.911-0.001,1.366-0.001c0.393,0,0.767-0.023,1.155-0.052
		c0.206-0.015,0.439-0.009,0.322,0.257c-0.11,0.25-0.536,0.323-0.747,0.468c-0.369,0.253-0.639,0.425-1.095,0.365
		c-0.149-0.02-0.339-0.066-0.48-0.008c-0.072,0.029-0.113,0.115-0.18,0.151c-0.117,0.062-0.269,0.07-0.397,0.091
		c-0.267,0.045-0.598-0.03-0.798,0.197c-0.265,0.301-0.218,0.507,0.06,0.722c0.109,0.085,0.203,0.194,0.304,0.278
		c0.127,0.106,0.282,0.152,0.437,0.224c0.236,0.109,0.347,0.18,0.094,0.401c-0.424,0.372-0.749,0.23-1.178-0.034
		c-0.183-0.113-0.404-0.222-0.61-0.292c-0.206-0.07-0.413-0.026-0.627-0.021c-0.443,0.01-0.646-0.14-0.925-0.451
		c-0.212-0.237-0.559-0.391-0.838-0.533c-0.125-0.064-0.279-0.096-0.342-0.23c-0.067-0.142-0.044-0.341-0.116-0.494
		c-0.065-0.138-0.168-0.248-0.231-0.386c-0.18-0.401,0.197-0.8,0.551-0.967C135.488,33.298,135.926,33.159,136.192,33.463z"/>
	<path fill="#1E8346" d="M122.202,46.213c0.096,0.127,0.226,0.288,0.291,0.428c0.112,0.243,0.018,0.596-0.131,0.8
		c-0.069,0.094-0.164,0.164-0.245,0.247c-0.061,0.063-0.162,0.236-0.239,0.266c-0.104,0.04-0.343-0.101-0.421-0.18
		c-0.108-0.109-0.22-0.349-0.201-0.505c0.022-0.178,0.176-0.291,0.225-0.46c0.055-0.189,0.046-0.415,0.25-0.522
		C121.861,46.218,122.044,46.226,122.202,46.213z"/>
	<path fill="#1E8346" d="M117.393,51.14c0.197,0.052,0.277,0.27,0.424,0.389c0.129,0.103,0.277,0.039,0.388,0.133
		c0.213,0.181,0.181,1.166-0.006,1.351c-0.349-0.228-0.511-0.68-0.798-0.975C117.127,51.756,116.948,51.485,117.393,51.14z"/>
	<path fill="#1E8346" d="M165.666,48.767c0.162,0.299,0.532,0.541,0.796,0.753c0.358,0.286,0.732,0.549,1.086,0.84
		c0.25,0.205,0.437,0.34,0.604,0.615c0.128,0.21,0.239,0.422,0.39,0.62c0.377,0.493,0.513,0.991,0.786,1.541
		c0.167,0.335,0.392,0.63,0.561,0.96c0.09,0.175,0.169,0.373,0.296,0.526c0.182,0.219,0.331,0.128,0.551,0.237
		c0.149,0.074,0.423,0.537,0.314,0.683c-0.078,0.104-0.399,0.044-0.506,0.08c-0.186,0.063-0.223,0.152-0.331,0.324
		c-0.313,0.497-0.944,0.646-1.211,1.169c-0.289,0.564-0.53,1.03-1.063,1.415c-0.425,0.308-0.557,0.474-0.555,1.005
		c0.002,0.397-0.141,0.653-0.531,0.797c-0.175,0.065-0.274,0.058-0.453-0.031c-0.307-0.152-0.65-0.353-0.922-0.556
		c-0.232-0.173-0.529-0.314-0.689-0.539c-0.206-0.289-0.191-0.615-0.316-0.926c-0.167-0.418-0.512-0.782-0.82-1.098
		c-0.248-0.255-0.602-0.526-0.633-0.902c-0.024-0.302,0.177-0.642,0.215-0.95c0.045-0.371,0.037-0.741,0.037-1.115
		c0-0.876,0.071-1.541,0.494-2.313c0.3-0.549,0.664-0.945,0.7-1.596c0.024-0.422,0.041-1.055,0.345-1.392
		C164.996,48.711,165.249,48.787,165.666,48.767z"/>
	<path fill="#1E8346" d="M153.719,49.468c0.032,0.177,0.022,0.427,0.116,0.587c0.109,0.183,0.498,0.038,0.652-0.027
		c0.159-0.066,0.28-0.16,0.414-0.265c0.123-0.098,0.119-0.18,0.117-0.329c-0.287-0.058-0.621-0.09-0.914-0.088
		C153.949,49.347,153.871,49.358,153.719,49.468z"/>
	<path fill="#1E8346" d="M175.233,43.721c0.171,0.132,0.186,0.416,0.258,0.603c0.025,0.065,0.063,0.143,0.128,0.177
		c0.067,0.034,0.161,0.032,0.234,0.039c0.141,0.012,0.284,0.016,0.426,0.017c0.068,0,0.143-0.009,0.21,0
		c0.113,0.015,0.129,0.09,0.159,0.185c0.017,0.054,0.026,0.116,0.059,0.163c0.051,0.073,0.11,0.115,0.15,0.197
		c0.042,0.087,0.069,0.158,0.082,0.253c0.009,0.069,0.021,0.122,0.074,0.167c0.092,0.079,0.232,0.072,0.321,0.154
		c0.067,0.062,0.113,0.175,0.158,0.254c0.067,0.117,0.14,0.221,0.239,0.315c0.049,0.047,0.098,0.076,0.129,0.139
		c0.105,0.212,0.091,0.469,0.182,0.689c0.046,0.112,0.122,0.204,0.209,0.288c0.097,0.094,0.184,0.196,0.285,0.287
		c0.085,0.078,0.08,0.122,0.08,0.234c0,0.2-0.136,0.366-0.226,0.54c-0.075,0.144-0.227,0.214-0.37,0.292
		c-0.267,0.147-0.514,0.32-0.825,0.272c-0.15-0.024-0.348-0.116-0.428-0.247c-0.054-0.087-0.088-0.188-0.143-0.275
		c-0.055-0.088-0.129-0.137-0.198-0.212c-0.068-0.074-0.113-0.16-0.196-0.222c-0.164-0.121-0.412-0.144-0.604-0.176
		c-0.194-0.033-0.4,0.016-0.426-0.197c-0.012-0.1,0.01-0.211-0.019-0.31c-0.03-0.106-0.111-0.16-0.191-0.226
		c-0.164-0.136-0.409-0.25-0.462-0.47c-0.053-0.22-0.055-0.382-0.221-0.563c-0.14-0.152-0.309-0.268-0.397-0.46
		c-0.158-0.345-0.152-0.621-0.113-0.993c0.016-0.152,0.051-0.267,0.112-0.407c0.078-0.178,0.142-0.383,0.243-0.548
		c0.133-0.216,0.315-0.32,0.557-0.247c0.043,0.013,0.08,0.035,0.116,0.048C175.012,43.551,175.161,43.534,175.233,43.721z"/>
	<path fill="#1E8346" d="M173.987,34.665c-0.063,0.083-0.134,0.162-0.217,0.226c-0.077,0.06-0.213,0.1-0.271,0.177
		c-0.094,0.124-0.061,0.419-0.06,0.576c0.002,0.413,0.175,0.585,0.411,0.908c0.156,0.214,0.19,0.489,0.327,0.713
		c0.08,0.131,0.185,0.237,0.263,0.369c0.101,0.17,0.19,0.351,0.3,0.516c0.147,0.218,0.509,0.45,0.787,0.32
		c0.326-0.153,0.292-0.433,0.148-0.696c-0.154-0.282-0.333-0.548-0.471-0.841c-0.163-0.347-0.099-0.709-0.12-1.076
		c-0.019-0.333-0.228-0.596-0.492-0.787C174.437,34.956,174.243,34.74,173.987,34.665z"/>
	<path fill="#1E8346" d="M170.549,35.014c0.071,0.135,0.308,0.401,0.444,0.466c0.178,0.086,0.391,0.124,0.576,0.194
		c0.181,0.068,0.285,0.089,0.375,0.274c0.121,0.248,0.118,0.558,0.125,0.827c0.005,0.201-0.058,0.447-0.287,0.445
		c-0.152-0.001-0.213-0.062-0.31-0.168c-0.118-0.128-0.25-0.237-0.382-0.349c-0.329-0.279-0.771-0.48-0.907-0.918
		C170.129,35.612,170.141,34.989,170.549,35.014z"/>
	<path fill="#1E8346" d="M187.289,47.72c0.1,0.177,0.087,0.43,0.084,0.628c-0.003,0.206-0.119,0.35-0.204,0.529
		c-0.086,0.182-0.091,0.42-0.119,0.622c-0.042,0.309-0.11,0.63-0.078,0.944c0.013,0.124,0.047,0.248,0.066,0.37
		c0.009,0.06,0.02,0.118,0.053,0.169c0.092,0.142,0.271,0.149,0.296,0.334c0.021,0.155-0.012,0.296,0.091,0.429
		c0.085,0.11,0.24,0.303,0.366,0.36c0.114-0.159,0.178-0.308,0.188-0.501c0.006-0.123-0.008-0.249,0.014-0.37
		c0.044-0.25,0.097-0.527,0.166-0.771c0.052-0.185,0.142-0.409,0.254-0.569c0.112-0.16,0.233-0.316,0.298-0.505
		c0.028-0.081,0.052-0.186,0.01-0.267c-0.058-0.112-0.217-0.158-0.29-0.261c-0.117-0.163-0.071-0.393-0.202-0.555
		c-0.077-0.096-0.212-0.167-0.307-0.25c-0.091-0.08-0.17-0.158-0.24-0.258C187.617,47.63,187.567,47.641,187.289,47.72z"/>
	<path fill="#1E8346" d="M192.375,110.307c0.248,0.148,0.463,0.363,0.71,0.519c0.355,0.224,0.587,0.131,1.004,0.156
		c0.116,0.521,0.275,1.249,0.898,1.294c0.22,0.016,0.261-0.041,0.351,0.159c0.044,0.099,0.049,0.258,0.018,0.359
		c-0.135,0.433-0.781,0.695-1.131,0.885c-0.408,0.222-0.628,0.302-1.091,0.203c-0.266-0.057-0.653-0.072-0.897-0.215
		c-0.151-0.088-0.218-0.243-0.33-0.376c-0.15-0.179-0.29-0.407-0.451-0.57c-0.129-0.131-0.353-0.175-0.472-0.311
		c-0.156-0.178-0.272-0.558-0.204-0.798c0.083-0.293,0.544-0.495,0.771-0.705C191.731,110.743,191.973,110.566,192.375,110.307z"/>
	<path fill="#1E8346" d="M80.731,115.29c-0.154,0.105-0.169,0.244-0.261,0.398c-0.131,0.219-0.302,0.207-0.517,0.312
		c-0.174,0.085-0.234,0.211-0.298,0.386c-0.13,0.354-0.284,0.68-0.289,1.063c-0.003,0.307,0.09,0.587,0.117,0.89
		c0.024,0.262-0.063,0.39-0.161,0.636c-0.032,0.082-0.111,0.251-0.073,0.347c0.092,0.23,0.849,0.237,1.074,0.213
		c0.361-0.039,0.448-0.432,0.675-0.673c0.314-0.333,0.748-0.15,1.128-0.296c0.171-0.066,0.232-0.194,0.321-0.355
		c0.068-0.122,0.105-0.262,0.197-0.368c0.099-0.113,0.247-0.195,0.354-0.308c0.111-0.118,0.236-0.235,0.291-0.379
		c0.057-0.147,0.025-0.308,0.117-0.432c0.092-0.123,0.153-0.122,0.144-0.303c-0.011-0.21-0.129-0.203-0.316-0.269
		c-0.261-0.092-0.546-0.218-0.787-0.358c-0.17-0.099-0.309-0.258-0.492-0.356c-0.172-0.091-0.493-0.224-0.683-0.274
		C81.072,115.109,80.962,115.26,80.731,115.29z"/>
	<path fill="#1E8346" d="M81.74,122.279c-0.082,0.387,0.348,0.567,0.648,0.669c0.126,0.043,0.274,0.014,0.395,0.064
		c0.097,0.04,0.157,0.174,0.252,0.21c0.182,0.069,0.283-0.022,0.275-0.198c-0.007-0.148-0.028-0.114-0.107-0.198
		c-0.072-0.076-0.129-0.119-0.203-0.22C82.783,122.309,82.24,122.026,81.74,122.279z"/>
	<path fill="#1E8346" d="M79.049,122.746c-0.007,0.101,0.005,0.36,0.089,0.433c0.044,0.038,0.167,0.016,0.23,0.019
		c0.225,0.01,0.438,0.061,0.659,0.096c0.248,0.039,0.502,0.045,0.746,0.111c0.18,0.048,0.523,0.136,0.654,0.258
		c0.241,0.225,0.122,0.566,0.162,0.843c0.04,0.281,0.334,0.456,0.374,0.736c0.02,0.144-0.045,0.3-0.144,0.403
		c-0.139,0.145-0.294,0.099-0.453,0.185c-0.235,0.127-0.323,0.442-0.666,0.371c-0.183-0.037-0.321-0.192-0.46-0.3
		c-0.197-0.154-0.417-0.299-0.622-0.441c-0.232-0.162-0.453-0.344-0.708-0.471c-0.23-0.114-0.481-0.152-0.713-0.257
		c-0.211-0.095-0.285-0.163-0.192-0.4c0.079-0.2,0.256-0.391,0.379-0.567C78.575,123.491,78.699,123.145,79.049,122.746z"/>
	<path fill="#1E8346" d="M73.169,121.755c0,0.245-0.025,0.504,0.002,0.747c0.026,0.237,0.127,0.578,0.049,0.811
		c-0.128,0.38-0.407-0.563-0.417-0.658c-0.076-0.009-0.268-0.085-0.302-0.145c-0.054-0.094,0.026-0.226,0.072-0.31
		C72.641,122.073,72.898,121.655,73.169,121.755z"/>
	<path fill="#1E8346" d="M74.153,124.795c0.223,0.172,0.049,0.807,0.44,0.518c0.145-0.107,0.201-0.229,0.377-0.102
		c0.1,0.072,0.193,0.231,0.241,0.344c0.089,0.21,0.155,0.369,0.324,0.53c0.11,0.105,0.178,0.226,0.252,0.357
		c0.033,0.059,0.11,0.149,0.108,0.221c-0.004,0.102-0.074,0.114-0.141,0.182c-0.08,0.082-0.266,0.289-0.18,0.398
		c-0.077,0.003-0.142,0.043-0.213,0.069c-0.1-0.096-0.053-0.253-0.063-0.376c-0.013-0.148-0.033-0.299-0.063-0.445
		c-0.122-0.011-0.254,0.012-0.377-0.016c-0.127-0.029-0.251-0.126-0.373-0.184c-0.233-0.111-0.499-0.104-0.44-0.432
		c0.024-0.139,0.052-0.303-0.053-0.418c-0.086-0.094-0.185-0.135-0.26-0.245C73.515,124.881,73.841,124.807,74.153,124.795z"/>
	<path fill="#1E8346" d="M86.164,132.102c-0.042,0.133-0.038,0.293-0.038,0.431c0,0.074-0.024,0.219,0.036,0.271
		c0.032,0.027,0.098,0.024,0.139,0.023c0.064-0.001,0.073-0.013,0.11-0.061c0.032-0.042,0.061-0.085,0.092-0.127
		c0.04-0.055,0.099-0.095,0.147-0.143c0.081-0.08,0.153-0.15,0.173-0.263c0.015-0.082,0.04-0.158-0.062-0.175
		C86.566,132.025,86.381,132.087,86.164,132.102z"/>
	<path fill="#1E8346" d="M54.383,133.515c0.509,0.186,0.823,0.696,1.386,0.766c0.217,0.027,0.478,0.077,0.563,0.313
		c0.102,0.282,0.142,0.703,0.144,0.999c0.002,0.343-0.339,0.579-0.653,0.564c-0.382-0.019-0.495-0.614-0.779-0.825
		c-0.302-0.225-0.669-0.315-0.723-0.74c-0.019-0.15,0.033-0.262-0.086-0.375c-0.098-0.094-0.24-0.098-0.277-0.243
		C53.908,133.778,54.075,133.59,54.383,133.515z"/>
	<path fill="#1E8346" d="M45.414,131.098c0.185,0.075,0.31,0.266,0.494,0.322c0.104,0.032,0.199,0.004,0.289,0.062
		c0.107,0.071,0.15,0.21,0.263,0.277c0.128,0.076,0.298,0.05,0.43,0.112c0.09,0.043,0.176,0.136,0.245,0.207
		c0.188,0.19,0.407,0.351,0.576,0.551c0.079,0.094,0.227,0.186,0.208,0.324c-0.039,0.279-0.506,0.269-0.71,0.225
		c-0.175-0.037-0.309-0.107-0.448-0.21c-0.202-0.15-0.388-0.193-0.628-0.242c-0.336-0.068-0.619-0.168-0.831-0.457
		c-0.202-0.274-0.433-0.389-0.385-0.763C44.949,131.262,45.051,130.957,45.414,131.098z"/>
</g>
</svg>
