<?xml version="1.0" encoding="utf-8"?>
<!-- Generator: Adobe Illustrator 26.0.3, SVG Export Plug-In . SVG Version: 6.00 Build 0)  -->
<svg version="1.1" id="Isolation_Mode" xmlns="http://www.w3.org/2000/svg" xmlns:xlink="http://www.w3.org/1999/xlink" x="0px"
	 y="0px" viewBox="0 0 200 200" enable-background="new 0 0 200 200" xml:space="preserve">
<path fill="#1E8346" d="M34.151,124.297h33.561l1.218-4.241l1.74-1.479l2.414-0.435l2.523,1.066l4.546-2.284l2.914,0.761
	l2.414,0.022l2.11,1.152l1.088,1.414l0.152,2.023l2.436,1.262l2.588-1.24l2.327,0.153l1.718,1.065l0.848,2.371l1.24,1.305
	l3.371,1.37l2.545-0.565c0.101-0.104,0.148-0.249,0.223-0.375c0.146-0.243,0.379-0.402,0.542-0.628
	c0.092-0.127,0.131-0.317,0.262-0.419c0.201-0.157,0.581-0.232,0.823-0.334c0.599-0.256,1.266-0.204,1.869-0.442
	c0.269-0.106,0.499-0.274,0.786-0.338c0.261-0.058,0.404-0.008,0.671-0.008c0.065,0.044,1.544-0.152,1.544-0.152l1.457-0.696
	l2.327,0.631l3.198,3.937l-0.283,1.805l-1.022,1.653l-8.635,1.609l-0.174,1.349l-0.805,0.565l-3.045,0.109l-0.501-0.827
	l-3.349,0.261l-1.566-0.892l-1.218-1.284l-2.762-0.674l-0.979-1.218l-0.827,0.522l-2.567-0.109l-1.414-0.739l-0.739-1.588h-1.87
	l-1.022-0.805l-1.61-0.065l-2.044-0.892l-2.001-1.435l-1.718-2.349l-1.392,0.283l-1.892,1.784l-0.587,3.219l-2.545,2.045
	l-2.567,0.304l-3.719-1.305l-2.719,1.457l-2.936-0.5l-3.61,0.609c0,0,0,0-0.065,5.611h-27.47c-0.528,0.088-0.546,0.399-0.457,0.838
	c0.055,0.268,0.066,0.317-0.175,0.441c-0.308,0.158-0.078,0.196-0.219,0.43c-0.088,0.145-0.286,0.077-0.389,0.249
	c-0.092,0.153-0.035,0.314-0.043,0.497c-0.008,0.178-0.022,0.349-0.113,0.508c-0.079,0.136-0.626,0.538-0.474,0.692
	c0.103,0.105,0.124,0.253,0.191,0.379c0.051,0.096,0.142,0.174,0.192,0.266c0.095,0.175,0.075,0.337,0.048,0.546
	c-0.062,0.47-0.122,0.952-0.169,1.417c-0.045,0.446-0.001,0.898-0.001,1.347c0,0.505-0.143,0.92-0.278,1.401
	c-0.144,0.513-0.293,1.08-0.525,1.555c-0.127,0.26-0.293,0.503-0.356,0.788c-0.045,0.205-0.062,0.417-0.11,0.619
	c-0.058,0.24-0.176,0.464-0.236,0.703c-0.044,0.179-0.064,0.32-0.082,0.505c-0.037,0.37-0.064,0.739-0.008,1.113
	c0.051,0.338,0.157,0.644,0.219,0.978c0.065,0.347,0.044,0.732,0.23,1.033c0,0.188-0.007,0.348,0.084,0.52
	c0.118,0.223,0.38,0.381,0.394,0.652c0.014,0.265-0.093,0.506-0.042,0.78c0.042,0.225,0.072,0.405,0.087,0.634
	c0.387,0.085,1.018,0.222,1.37-0.025c0.266-0.187,0.481-0.482,0.816-0.546c0.064-0.013,0.244,0.014,0.306-0.015
	c0.091-0.042,0.177-0.202,0.244-0.279c0.364-0.414,0.862-0.76,1.158-1.226c0.139-0.218,0.231-0.605,0.459-0.707
	c0.372-0.166,0.825-0.243,1.232-0.193c0.306,0.038,0.535,0.079,0.754,0.293c0.146,0.143,0.273,0.35,0.45,0.459
	c0.098,0.06,0.223,0.076,0.33,0.116c0.255,0.094,0.473,0.277,0.734,0.353c0.239,0.07,0.38,0.062,0.562,0.232
	c0.11,0.103,0.212,0.155,0.342,0.23c0.486,0.279,0.948,0.694,1.494,0.848c0.224,0.063,0.454,0.097,0.656,0.212
	c0.291,0.165,0.513,0.325,0.765,0.548c0.137,0.121,0.271,0.237,0.458,0.193c0.231-0.055,0.456-0.29,0.639-0.435
	c0.182-0.144,0.313-0.269,0.41-0.47c0.073-0.151,0.23-0.315,0.41-0.349c0.136-0.026,0.456,0.03,0.444,0.201
	c-0.008,0.107-0.158,0.227-0.229,0.297c-0.277,0.275-0.742,0.244-1.002,0.55c-0.114,0.133-0.1,0.311-0.172,0.467
	c-0.085,0.182-0.292,0.38-0.49,0.418c-0.236,0.044-0.288-0.137-0.441-0.264c-0.176-0.147-0.379-0.187-0.594-0.255
	c-0.202-0.065-0.435-0.161-0.596-0.295c-0.269-0.224-0.57-0.398-0.844-0.62c-0.164-0.132-0.301-0.141-0.516-0.103
	c-0.336,0.061-0.601,0.066-0.944,0.057c-0.23-0.007-0.49,0.074-0.685-0.082c-0.13-0.104-0.21-0.263-0.331-0.379
	c-0.13-0.123-0.262-0.247-0.407-0.352c-0.163-0.118-0.354-0.213-0.552-0.26c-0.179-0.043-0.316-0.155-0.49-0.201
	c-0.266-0.071-0.359,0.021-0.464,0.241c-0.099,0.208-0.262,0.392-0.393,0.581c-0.151,0.218-0.156,0.464-0.335,0.669
	c-0.179,0.206-0.421,0.408-0.686,0.45c-0.469,0.073-1.142,0.503-1.198,1.027c-0.032,0.302,0.152,0.197,0.269,0.379
	c0.11,0.172-0.093,0.42-0.076,0.596H29.11c-0.11-0.119-0.295-0.065-0.44-0.123c-0.155-0.063-0.234-0.162-0.345-0.283
	c-0.161-0.175-0.401-0.499-0.651-0.551c-0.013,0.275-0.337,0.693-0.489,0.921c-0.158,0.236-0.428,0.489-0.467,0.781
	c-0.05,0.368,0.132,0.559,0.32,0.834c0.128,0.185,0.122,0.409,0.143,0.629c0.03,0.315,0.125,0.511,0.287,0.779
	c0.119,0.197,0.128,0.42,0.241,0.622c0.207,0.37,0.449,0.703,0.739,1c0.127,0.129,0.287,0.19,0.431,0.302
	c0.143,0.111,0.232,0.32,0.403,0.381l0.725-0.725l3.248,0.261l6.38-0.377l5.423-3.103l1.247,0.348l3.248-0.899l3.219,1.276
	l1.972-0.435l6.67,0.754c0,0,4.234-2.813,8.468-4.089l2.088-1.856l4.147-2.262l52.947,0.334l4.828,0.522v0.5l1.588-0.435
	l1.805,0.413l0.5-0.413l0.935,0.848l0.674-0.413l1.762,0.522c0,0,1.131-0.435,1.196-0.392c0.065,0.044,0.37,1.827,0.37,1.827
	l-0.652,1.174l0.109,1.827l2.936,0.696l0.805-0.392v-1.87l2.175-0.565v0.739l1.262,0.457l-0.304,0.783l2.893,0.783l-0.609,0.935
	h4.415l0.892,1.001l0.544-0.109l0.566,1.392l2.088-1.392l2.849,0.761l1.37,2.458l3.328-1.457l2.414-0.304l1.827-1.718l1.74-0.478
	l1.305,0.935l1.632-0.131l1.958-1.283l1.522,1.609l1.566-0.196l0.87,0.783l2.588-0.805l1.566-1.044l4.807-0.566l2.066,0.631
	l0.544,0.87l0.652-0.152l0.522-0.653l-0.37-0.892h0.609v-1.349l-0.566,0.609l-0.348-1.783l-0.631-0.152l-0.305,0.783l-1.066-1.066
	l1.316-1.316l-0.571-0.571l0.484-0.484v-0.468l-1.153-1.153l0.772-0.772v-0.87h1.697l-1.044-1.479h0.5v-1.762h-0.631l-0.153-0.674
	l0.718-1.609l-0.544-0.696l1.631-0.327v-1.327l-0.87-0.413l-0.218,0.696h-0.87l-0.022-0.87l0.522-0.355l-1.073-1.421l0.203-1.073
	l-1.392-0.29l-1.421-1.653l0.435-1.537h-1.044l-0.203-0.696l0.58-1.218l-2.001-1.682l-0.232-1.856h-1.16l0.319-0.783h-2.175
	l-0.29-0.899h-1.015l-1.015,2.523l-0.551,0.145l-0.348,0.87h-0.899l-0.406-1.247l-1.479-1.218l0.464-1.769v-0.899l-2.523-1.595
	l-2.639-3.277l-0.174-1.45l-1.044-1.711l2.291-1.044l1.624-1.508l0.609-3.886l-2.494-2.175l1.131-6.351l-1.621-3.085l-2.186-0.62
	l0.283-0.5l-0.392-0.196l0.315-0.272l-0.337-0.446l0.337-0.478l-1.069-0.203l-0.058-0.812l-0.841,0.507l-1.363-0.87l0.333-1.088
	l-1.044-1.682v-1.812l1.131-0.188l0.449-1.711l0.826-1.001l-0.971-0.565l0.478-1.001l-1.668-0.551l-0.377-1.595l-1.363-0.478
	l-1.871-1.892l-1.958-0.348l-1.87-1.74l-0.131-2.675l-0.979-1.066l-1.914-0.631l-1.761-1.675l-1.653-0.739l-0.761,0.805
	l-3.045-2.153v-1.436l-0.674-0.653l-1.392,0.392l-1.348-1.697l0.435-0.392l1.022,0.435l0.566-0.957l-0.587-1.066l-3.002-1.414
	l-0.044-1.979l0.74-0.674l-1.088-0.109l0.152-1.718l-2.11,0.631l-2.045-0.37l-0.566-0.413l0.566-2.436l-2.871-1.414l-1.566,0.392
	l-0.631-2.001h1.022l0.413-0.696l-2.567-2.197v-0.653l0.805-0.043l-1.023-0.979v-1.501l-0.826-0.718l0.304-1.24l-1.436-1.283
	l-0.522-3.11l-2.023-0.674l-0.544-0.892l-1.327,0.783l-0.261-0.739l1-0.653l-0.565-0.631l-5.786,1.718l-0.87-0.913l-0.174-0.827
	l0.435-0.696l-0.37-0.457l-4.068,2.523l-1.022-1.588l0.218-1.175c-0.389-0.095-0.832,0.041-1.216-0.068
	c-0.007-0.167-0.062-0.305-0.122-0.454c-0.088-0.219-0.114-0.45-0.189-0.678c-0.486,0.022-0.992,0.134-1.473,0.109
	c-0.035-0.163,0.144-0.421,0.203-0.579c0.12-0.323,0.364-0.592,0.468-0.917c-0.253-0.086-0.46-0.039-0.719-0.034
	c-0.204,0.004-0.397-0.025-0.599-0.036c-0.023-0.158-0.01-0.339,0.013-0.498c0.034-0.231,0.03-0.456,0.047-0.7
	c0.148-0.006,0.272-0.074,0.432-0.061c0.112,0.009,0.253,0.069,0.352,0.024c-0.022-0.397-0.036-0.662-0.455-0.741
	c-0.292-0.055-0.523-0.157-0.796-0.261c-0.238-0.09-0.632,0-0.818-0.197l-1.24-1.522L109,32.4l0.196-0.739h-0.805l-1.327-1.131
	l0.131-0.631l-1.631-0.435l-0.218,0.979l-0.631-1.153l0.261-0.848l-0.718-0.217l-1.327,0.435v-2.059h-2.32l-0.174-0.551l-2.494,1.16
	l-1.305-0.725l-0.435,0.116l-0.261,0.522l-2.465,0.058l-0.145-1.16l-2.61,0.522l-0.319,0.435l-1.044-1.073l-0.29,0.551H88.62
	l-0.609-0.493l-0.348,0.58h-1.102l-0.609-0.696l-0.522,0.667l-0.406,0.058V26.11l-0.609,0.522h-0.406l-0.348-1.653
	c-0.254-0.135-0.576-0.185-0.856-0.205c-0.322-0.024-0.404-0.01-0.464,0.347c-0.044,0.261,0.019,0.482-0.115,0.714
	c-0.139,0.241-0.419,0.33-0.449,0.623l-1.218,0.087l-1.131-1.392l-0.754,1.305l0.928,0.783l-0.87,1.015l-1.682-0.203l-1.827,1.073
	l-2.233-0.725l-3.103,1.392l-0.848-0.37l-0.566-1.37h-0.805l-1.196,0.848v1.109l-1.544,0.587l-2.109-0.391l-0.109,1.109
	l-2.393,0.479l-3.132-1.131l-1.349,0.631l-0.37-0.783l-0.892-0.131l-2.153,1.022l-1.392-0.565l-1.283,0.762l-1.893-2.458
	c-0.328-0.065-0.792-0.101-1.24,0.109c-0.696,0.326-0.694,0.937-1.305,1.109c-0.494,0.139-0.623-0.222-1.501-0.218
	c-0.352,0.002-1,0.006-1.348,0.413c-0.197,0.23-0.134,0.396-0.239,1.153c-0.133,0.954-0.216,1.541-0.609,2.044
	c-0.367,0.47-0.608,0.357-0.783,0.761c-0.263,0.607,0.22,0.992-0.043,1.566c-0.231,0.502-0.685,0.392-0.87,0.87
	c-0.199,0.513,0.274,0.77,0.217,1.501c-0.046,0.594-0.427,1.294-1.001,1.544c-0.518,0.226-0.829-0.073-1.348,0.239
	c-0.38,0.228-0.551,0.591-0.609,0.718c-0.087,0.191-0.094,0.599-0.108,1.414c-0.011,0.645,0.011,0.806,0.108,0.979
	c0.052,0.092,0.123,0.181,0.131,0.326c0.01,0.196-0.102,0.335-0.239,0.522c-0.499,0.676-0.525,0.874-0.696,0.87
	c-0.212-0.005-0.326-0.311-0.5-0.261c-0.072,0.021-0.117,0.092-0.152,0.174c-0.155,0.359-0.077,0.784,0.007,1.262
	C35.86,47,35.874,47.114,35.87,47.28c-0.008,0.334-0.065,0.527-0.116,0.783c-0.117,0.597-0.029,0.682-0.087,2.378
	c-0.022,0.663-0.051,1.081-0.177,1.102c-0.039,0.007-0.086-0.022-0.143-0.1c-0.151-0.203,0.244-0.99-0.376-0.741
	c0.005,0.491-0.02,1.222-0.174,2.088c-0.287,1.615-0.858,2.767-1.16,3.364c-2.465,4.877-3.944,7.308-3.944,7.308
	c-0.464,0.762-1.986,3.251-4.118,6.438c-2.429,3.632-3.561,5.049-3.886,5.452c-0.999,1.238-1.266,1.427-2.262,2.726
	c-0.639,0.833-0.844,1.166-1.392,1.624c-0.55,0.46-0.864,0.558-1.16,1.044c-0.386,0.632-0.136,0.925-0.464,1.45
	c-0.344,0.549-0.861,0.617-1.856,1.044c-0.48,0.206-0.146,0.099-2.204,1.218c-0.896,0.488-2.128,1.144-3.654,1.914
	c-0.433,0.218-0.89,0.398-1.363,0.436c-0.339,0.027-0.742-0.195-1.069-0.119c-0.304,0.071-0.688,0.512-0.952,0.705
	C5.12,87.534,4.917,87.65,4.7,87.736c-0.068,0.216,0.218,0.306,0.371,0.404c0.238,0.153,0.354,0.232,0.469,0.509
	c0.192,0.462,0.271,0.693,0.712,0.967c0.395,0.246,0.898,0.2,1.157-0.236c0.215-0.362,0.17-0.928,0.191-1.328
	c0.337-0.093,0.663-0.071,1.005-0.125c0.28-0.045,0.569-0.163,0.856-0.134c0.233,0.024,0.327,0.132,0.543,0.197
	c0.28,0.085,0.603,0.059,0.866,0.184c0.361,0.172,0.612,0.426,1.029,0.516c0.266,0.058,0.518,0.056,0.771,0.188
	c0.241,0.125,0.53,0.244,0.753,0.398c0.342,0.236,0.601,0.618,0.927,0.88c0.324,0.261,0.703,0.449,0.977,0.756
	c0.324,0.364,0.523,0.819,0.854,1.168c0.535,0.564,1.38,1.105,1.624,1.889c0.136,0.438-0.004,0.947,0.13,1.378
	c0.151,0.486,0.765,0.95,1.12,1.294c0.58,0.564,1.286,0.981,1.891,1.52c0.669,0.596,0.574,1.284,0.949,2.028
	c0.187,0.37,0.532,0.601,0.641,1.01c0.071,0.265,0.032,0.53,0.084,0.798c0.101,0.515,0.475,0.804,0.766,1.199
	c0.16,0.218,0.344,0.496,0.462,0.736c0.159,0.325,0.169,0.705,0.334,1.027c0.211,0.414,0.49,0.64,0.861,0.939
	c0.243,0.196,0.486,0.373,0.744,0.541c0.777,0.502,1.343,1.12,1.636,2.021c0.232,0.713,0.208,1.411,0.327,2.134
	c0.051,0.313,0.106,0.715,0.088,1.031c-0.02,0.347-0.229,0.627-0.205,0.99c0.013,0.201,0.048,0.344,0.229,0.469
	c0.12-0.056,0.196-0.23,0.275-0.334c0.087-0.113,0.178-0.217,0.272-0.323c0.182-0.205,0.311-0.448,0.49-0.647
	c0.137-0.153,0.339-0.345,0.558-0.369c0.084-0.009,0.137,0.027,0.17,0.115c0.045,0.121-0.006,0.204-0.078,0.296
	c-0.194,0.25-0.426,0.454-0.582,0.728c-0.136,0.238-0.242,0.478-0.242,0.757c0,0.35-0.085,0.682-0.053,1.037
	c0.012,0.137,0.057,0.255,0.09,0.385c0.035,0.136,0.016,0.27,0.027,0.407c0.022,0.287,0.099,0.555,0.099,0.846
	c0,0.213-0.019,0.425-0.022,0.635c-0.003,0.277,0.23,0.471,0.338,0.724c0.059,0.138,0.138,0.21,0.233,0.322
	c0.12,0.143,0.22,0.301,0.343,0.445c0.086,0.1,0.172,0.203,0.267,0.294c0.125,0.12,0.187,0.13,0.293-0.008
	c0.191-0.249,0.446-0.445,0.662-0.669c0.234-0.244,0.505-0.455,0.746-0.692c0.078-0.076,0.172-0.128,0.254-0.198
	c0.065-0.055,0.12-0.126,0.197-0.166c0.115-0.06,0.242-0.05,0.367-0.043c0.198,0.01,0.216-0.06,0.376-0.171
	c0.165-0.115,0.358-0.227,0.552-0.284c0.126-0.038,0.254-0.012,0.376-0.052c0.147-0.049,0.294-0.141,0.438-0.203
	c0.13-0.055,0.236-0.128,0.377-0.15c0.126-0.019,0.279,0.002,0.4-0.029c0.244-0.061,0.347-0.523,0.392-0.726
	c0.018-0.082,0.025-0.277,0.114-0.319c0.133-0.063,0.242,0.138,0.279,0.234c0.04,0.104,0.016,0.188,0.032,0.292
	c0.018,0.124,0.083,0.152,0.182,0.232c0.144,0.116,0.501,0.279,0.472,0.514c-0.013,0.102-0.195,0.266-0.276,0.327
	c-0.166,0.123-0.424,0.058-0.619,0.055c-0.177-0.003-0.264-0.019-0.408,0.095c-0.16,0.127-0.352,0.219-0.53,0.32
	c-0.32,0.182-0.618,0.378-0.88,0.638c-0.301,0.297-0.62,0.58-0.933,0.863c-0.139,0.126-0.247,0.28-0.396,0.396
	c-0.131,0.102-0.24,0.201-0.264,0.374c-0.019,0.138-0.004,0.296,0,0.436c0.007,0.203-0.045,0.256-0.175,0.4
	c-0.285,0.315-0.366,0.686-0.38,1.101c-0.005,0.137-0.021,0.168,0.055,0.284c0.09,0.139,0.206,0.253,0.307,0.383
	c0.09,0.118,0.174,0.238,0.269,0.352c0.066,0.079,0.157,0.245,0.271,0.264c0.022,0.116,0.001,0.217,0.064,0.321
	c0.074,0.123,0.177,0.227,0.271,0.335c0.175,0.199,0.284,0.416,0.424,0.639c0.127,0.203,0.285,0.348,0.446,0.52
	c0.061,0.065,0.124,0.14,0.209,0.175C34.066,124.267,34.101,124.276,34.151,124.297z"/>
<path fill="#1E8346" d="M29.67,157.604c0.092,0.249-0.089,0.483-0.237,0.66c-0.05,0.06-0.117,0.128-0.125,0.211
	c-0.012,0.112,0.113,0.204,0.208,0.237c0.125,0.044,0.311,0.088,0.443,0.052c0.09-0.025,0.178-0.124,0.229-0.198
	c0.048-0.07,0.066-0.16,0.029-0.236c-0.043-0.089-0.132-0.129-0.17-0.225c-0.044-0.108-0.045-0.254-0.112-0.347
	C29.882,157.685,29.814,157.664,29.67,157.604z"/>
<path fill="#1E8346" d="M57.489,132.084"/>
</svg>
