<?xml version="1.0" encoding="utf-8"?>
<!-- Generator: Adobe Illustrator 26.0.3, SVG Export Plug-In . SVG Version: 6.00 Build 0)  -->
<svg version="1.1" id="Isolation_Mode" xmlns="http://www.w3.org/2000/svg" xmlns:xlink="http://www.w3.org/1999/xlink" x="0px"
	 y="0px" viewBox="0 0 200 200" enable-background="new 0 0 200 200" xml:space="preserve">
<path fill="#1E8346" d="M179.28,26.953c-0.177-0.095-0.546-0.033-0.741-0.044c-0.199-0.011-0.431-0.004-0.618-0.083
	c-0.168-0.071-0.32-0.227-0.471-0.33c-0.191-0.129-0.419-0.307-0.637-0.376c-0.47-0.148-0.517,0.185-0.347,0.524
	c0.134,0.265,0.468,0.479,0.557,0.75c-0.414,0.235-1.049,0.11-1.5,0.098c-0.253-0.006-0.566,0.038-0.802-0.049
	c-0.32-0.117-0.226-0.266,0.024-0.408c0.253-0.142,0.434-0.203,0.529-0.495c0.096-0.293-0.067-0.707,0.277-0.869
	c0.265-0.125,0.822,0.019,0.818-0.444c-0.001-0.154-0.258-0.576-0.366-0.68c-0.601-0.579-0.395-1.5-0.395-2.318
	c0-0.803-0.065-1.593-0.066-2.402c-0.001-0.508,0.098-0.861,0.312-1.329c0.12-0.263,0.381-0.61,0.346-0.911
	c-0.054-0.469-0.598-0.192-0.896-0.481c-0.455-0.442-0.485-1.198-0.354-1.765c0.071-0.308,0.186-0.6,0.27-0.905
	c0.094-0.339,0.292-0.591,0.406-0.912c0.104-0.289,0.039-0.628,0.096-0.935c0.074-0.399,0.296-0.701,0.445-1.074
	c0.159-0.398,0.835-0.691,0.991-1.101c0.167-0.437,0.02-0.903,0.062-1.359c0.033-0.358,0.546-0.799,0.332-1.11
	c-0.143-0.208-0.77-0.379-1.004-0.493c-0.525-0.257-1.053-0.307-1.63-0.352c-0.781-0.061-1.048-0.249-1.684-0.621
	c-0.569-0.333-1.196-0.285-1.758-0.496c-0.509-0.191-0.656-0.374-1.194-0.227c-0.711,0.194-1.462,0.137-1.985,0.713
	c-0.683,0.752-0.979,1.689-1.561,2.493c-0.699,0.966-1.598,1.305-2.663,1.766c-0.732,0.317-1.468,0.675-2.19,1.027
	c-0.379,0.185-0.743,0.455-1.152,0.562c-0.602,0.156-1.245-0.184-1.814-0.049c-0.235,0.056-0.443,0.265-0.671,0.365
	c-0.437,0.192-0.92,0.326-1.398,0.348c-0.569,0.026-1.105-0.247-1.644,0.016c-0.5-0.004-1.351-0.027-1.612,0.425
	c-0.265,0.459-0.505,0.827-1.022,1.074c-0.653,0.312-1.326,0.277-2.009,0.442c-0.962,0.231-1.881,0.558-2.86,0.739
	c-0.772,0.143-1.565,0.29-2.355,0.212c-1.032-0.101-1.863-0.491-2.828-0.797c-0.762-0.242-1.687-0.138-2.45,0.062
	c-0.532,0.139-0.999,0.12-1.539,0.186c-0.656,0.081-1.14,0.481-1.743,0.687c-0.566,0.194-0.871,0.428-1.299,0.83
	c-0.754,0.707-1.838,0.993-2.848,0.947c-0.715-0.033-1.424-0.151-2.139-0.066c-0.72,0.086-1.377,0.184-2.083,0.354
	c-0.435,0.105-0.903,0.061-1.268-0.206c-0.27-0.197-0.887-0.68-0.904-1.037c-1.224,0.052-2.258,0.098-3.359,0.668
	c-0.779,0.403-1.679,0.643-2.402,1.146c-0.377,0.263-0.391,0.556-0.651,0.881c-0.22,0.275-0.623,0.402-0.962,0.523
	c-0.469,0.167-0.685,0.423-1.091,0.7c-0.417,0.284-0.876,0.568-1.309,0.824c-0.412,0.244-0.892,0.353-1.318,0.585
	c-0.354,0.193-0.697,0.406-1.041,0.612c-0.341,0.204-0.578,0.359-0.968,0.444c-0.499,0.109-1.017,0.121-1.503,0.289
	c-0.715,0.247-1.432,0.614-2.183,0.264c-0.521-0.243-0.891-0.735-1.422-0.981c-0.608-0.282-1.613-0.165-2.289-0.164
	c-0.756,0.001-1.165-0.078-1.829-0.424c-0.485-0.253-1.14-0.107-1.562-0.416c-0.126-0.092-0.179-0.302-0.316-0.347
	c-0.136-0.044-0.528,0.08-0.652,0.13c-0.359,0.148-0.709,0.505-1.042,0.717c-0.371,0.236-0.751,0.32-1.121,0.508
	c-0.334,0.17-0.385,0.546-0.74,0.721c-0.324,0.16-0.689,0.335-1.034,0.439c-0.706,0.212-1.615,0.053-2.269,0.344
	c-0.547,0.244-0.985,0.955-1.289,1.454c-0.342,0.562-1.035,0.736-1.634,1.02c-0.39,0.184-0.774,0.333-1.101,0.623
	c-0.4,0.354-0.684,0.583-1.249,0.548c-1.102-0.067-2.174-0.435-3.259-0.066c-0.727,0.248-1.44,0.284-2.206,0.311
	c-0.953,0.034-1.72,0.021-2.651-0.262c-0.703-0.214-1.258-0.673-1.784-1.186c-0.448-0.436-0.807-0.818-1.35-1.135
	c-0.485-0.283-0.831-0.68-1.29-0.97c-0.979-0.618-1.857-1.356-2.668-2.171c-0.576-0.578-1.272-1.019-1.828-1.617
	c-0.43-0.463-0.741-1.039-1.072-1.573c-0.321-0.518-0.566-1.077-0.726-1.663c-0.128-0.472-0.214-0.64-0.572-0.942
	c-0.507-0.428-0.486-0.848-0.501-1.499c-0.004-0.185,0.058-0.613-0.065-0.766c-0.167-0.207-0.691-0.049-0.988-0.129
	c-0.621-0.167-0.924-0.734-1.448-1.03c-0.357,0.049-0.645-0.41-1.02-0.428c-0.289,0.476-0.351,0.992-0.635,1.482
	c-0.273,0.471-0.609,0.902-0.902,1.373c-0.293,0.47-0.581,0.953-0.902,1.393c-0.41,0.562-0.651,1.216-1.016,1.807
	c-0.321,0.519-0.511,1.077-0.788,1.602c-0.248,0.471-0.596,0.661-0.984,0.936c-0.282,0.2-0.4,0.499-0.596,0.793
	c-0.262,0.394-0.578,0.734-0.816,1.146c-0.327,0.565-0.522,1.244-1.194,1.448c0.12,0.321,0.291,0.54,0.454,0.822
	c0.156,0.271,0.271,0.542,0.488,0.772c0.25,0.264,0.482,0.486,0.54,0.866c0.071,0.466,0.003,0.92,0.123,1.385
	c0.115,0.448,0.389,0.826,0.56,1.251c0.203,0.508,0.327,0.634,0.734,0.994c0.859,0.759,1.573,1.417,2.078,2.463
	c0.304,0.628,0.367,1.645,1.178,1.81c0.302,0.061,0.6-0.016,0.896,0.1c0.274,0.108,0.658,0.303,0.881,0.495l0.691,3.62l1.448,0.691
	l0.494,1.58l1.152,0.691l1.481,0.198l5.068,5.068l41.489,14.009h13.91l-34.644,35.17l-7.306,7.723l-13.548-0.444
	c-0.648,0-1.167,0.193-1.78,0.381c-0.959,0.294-1.91,0.605-2.869,0.898c-1.183,0.362-2.435,0.613-3.533,1.197
	c-1.023,0.544-2.101,0.973-3.135,1.496c-0.664,0.336-1.471,0.764-1.891,1.41c-0.284,0.437-0.396,0.984-0.63,1.447
	c-0.656,1.293-1.642,2.717-3.221,2.721c-1.192,0.003-2.307,0.661-3.475,0.764c-0.896,0.079-1.788,0.179-2.685,0.266
	c-0.921,0.09-2.021-0.086-2.897,0.222c-0.765,0.27-2.301,1.092-2.188,2.082l-0.823,0.987l-7.24,10.301l-0.494,0.757l-4.599,4.764
	v50.701l7.66,10.29v0.9c0.228,0,0.456-0.181,0.588-0.352c0.267-0.346,0.529-0.724,0.744-1.106c0.26-0.46,0.536-0.909,0.821-1.354
	c0.242-0.377,0.434-0.795,0.693-1.161c0.183-0.258,0.404-0.49,0.588-0.748c0.078-0.11,0.118-0.222,0.171-0.345
	c0.057-0.131,0.148-0.245,0.201-0.376c0.127-0.312,0.345-0.369,0.57-0.593c0.284-0.28,0.407-0.659,0.591-1.003
	c0.419-0.782,0.829-1.725,1.423-2.394c0.306-0.345,0.758-0.578,0.983-0.988c0.088-0.161,0.086-0.31,0.13-0.476
	c0.085-0.322,0.075-0.256,0.417-0.451c1.095-0.622,1.609-1.46,2.223-2.534c0.245-0.429,0.619-0.753,0.949-1.117
	c0.201-0.222,0.348-0.493,0.558-0.702c0.44-0.437,1.202-0.539,1.151-1.261c0.695-0.645,1.331-1.398,1.926-2.142
	c0.424-0.531,0.945-1.016,1.488-1.436c0.649-0.502,1.165-1.128,1.743-1.71c0.713-0.719,1.3-1.511,2.065-2.164
	c0.41-0.35,0.784-0.639,1.102-1.077c0.264-0.364,0.519-0.736,0.829-1.067c0.745-0.794,1.359-1.697,2.104-2.485
	c0.77-0.815,1.484-1.639,2.278-2.432c0.459-0.459,0.956-0.88,1.392-1.368c0.334-0.374,0.755-0.64,1.103-1.004
	c0.231-0.242,0.418-0.433,0.703-0.618c0.529-0.345,1.033-0.683,1.48-1.13c0.611-0.61,1.291-1.038,1.962-1.575
	c1.094-0.874,2.225-1.814,3.228-2.755c0.597-0.56,1.08-1.186,1.735-1.681c0.779-0.589,1.659-1.123,2.37-1.795
	c0.66-0.625,1.321-1.364,2.142-1.748c0.421-0.197,0.802-0.51,1.194-0.754c0.595-0.372,1.157-0.773,1.73-1.18
	c2.195-1.561,4.65-2.849,7.114-3.919c1.577-0.685,3.094-1.678,4.547-2.597c0.38-0.241,0.76-0.472,1.142-0.71
	c0.455-0.282,0.826-0.672,1.316-0.919c0.799-0.404,1.593-0.788,2.247-1.424c0.594-0.578,1.221-0.864,1.673-1.549
	c0.265-0.403,0.6-0.756,0.889-1.138c0.424-0.558,1.202-0.845,1.586-1.411c0.172-0.254,0.222-0.538,0.459-0.775
	c0.216-0.216,0.502-0.343,0.737-0.536c0.278-0.229,0.493-0.536,0.765-0.77c0.404-0.348,0.868-0.643,1.299-0.954
	c0.773-0.557,1.439-1.253,2.126-1.908c0.664-0.633,1.052-1.47,1.689-2.116c0.46-0.467,0.959-0.925,1.353-1.45
	c0.317-0.422,0.534-0.859,0.932-1.228c0.733-0.682,1.375-1.424,2.09-2.126c0.637-0.626,1.166-1.371,1.865-1.932
	c1.28-1.028,2.497-2.168,3.49-3.472c0.443-0.582,0.825-1.213,1.259-1.803c0.476-0.647,1.217-1.032,1.698-1.67
	c0.466-0.619,0.869-1.221,1.453-1.744c0.362-0.324,0.72-0.676,1.094-0.981c0.372-0.304,0.827-0.577,1.107-0.976
	c0.595-0.847,0.625-1.981,1.192-2.858c0.376-0.581,0.559-1.229,0.909-1.816c0.227-0.38,0.599-0.675,0.775-1.079
	c0.63-0.25,0.846-1.363,1.202-1.892c0.265-0.395,0.594-0.736,0.896-1.104c0.339-0.413,0.618-0.868,0.989-1.274
	c0.383-0.42,0.756-0.785,1.06-1.266c0.255-0.404,0.536-0.797,0.822-1.184c0.625-0.844,1.312-1.69,1.778-2.648
	c0.178-0.367,0.291-0.646,0.602-0.933c0.432-0.399,0.7-0.889,1.011-1.381c0.517-0.816,0.914-1.703,1.413-2.534
	c0.161-0.268,0.408-0.719,0.539-1.007c0.161-0.353,0.273-0.74,0.446-1.091c0.477-0.968,1.094-1.944,1.247-3.023
	c0.092-0.651-0.005-1.328,0.2-1.967c0.228-0.71,0.395-1.438,0.677-2.118c0.36-0.868,0.703-1.763,1.095-2.613
	c0.447-0.967,1.133-1.822,1.748-2.679c0.565-0.787,1.17-1.507,1.765-2.263c0.771-0.979,1.121-2.253,1.892-3.215
	c0.46-0.575,0.775-1.164,1.117-1.828c0.394-0.763,0.686-1.512,1.022-2.281c0.167-0.381,0.445-0.699,0.633-1.057
	c0.249-0.474,0.197-0.876,0.125-1.388c-0.04-0.284-0.104-0.603-0.068-0.891c0.052-0.411,0.313-0.771,0.531-1.122
	c0.394-0.636,0.855-1.001,1.414-1.498c0.608-0.541,1.446-0.727,2.035-1.259c0.545-0.493,0.665-1.512,0.958-2.169
	c0.11-0.247,0.617-0.789,0.803-1.09c0.168-0.272,0.393-0.531,0.602-0.792c0.564-0.703,0.476-1.421,0.77-2.231
	c0.199-0.549,0.774-0.793,1.02-1.317c0.18-0.382,0.156-0.987,0.278-1.402c0.274-0.928,1.081-1.874,1.764-2.549
	c0.31-0.306,0.749-0.569,1.02-0.902c0.362-0.446,0.219-0.811,0.339-1.343c0.205-0.906,1.238-1.851,1.727-2.644
	c0.261-0.423,0.532-0.831,0.688-1.297c0.206-0.615-0.008-0.625-0.154-1.254c-0.264-1.13,0.333-2.4,0.474-3.501
	c0.154-1.2,0.668-2.255,0.673-3.478c0.005-1.199,0.355-2.445,0.131-3.617c-0.039-0.205,0.239-0.56,0.378-0.706
	c0.24-0.253,0.53-0.473,0.839-0.625c0.318-0.156,0.669-0.374,1.023-0.446c0.306-0.062,0.607-0.082,0.919-0.082
	c0.484,0,0.98-0.04,1.461-0.017c0.356,0.017,0.506,0.509,0.929,0.544c0.348,0.029,0.836,0.014,1.06-0.289
	C179.259,27.769,179.649,27.152,179.28,26.953z"/>
</svg>
