<?xml version="1.0" encoding="utf-8"?>
<!-- Generator: Adobe Illustrator 26.0.3, SVG Export Plug-In . SVG Version: 6.00 Build 0)  -->
<svg version="1.1" id="Isolation_Mode" xmlns="http://www.w3.org/2000/svg" xmlns:xlink="http://www.w3.org/1999/xlink" x="0px"
	 y="0px" viewBox="0 0 200 200" enable-background="new 0 0 200 200" xml:space="preserve">
<path fill="#1E8346" d="M7.116,76.638c-0.13,0.427-0.721,0.983-1.194,1.02c-0.146,0.011-0.274-0.111-0.426-0.091
	c-0.207,0.027-0.283,0.191-0.378,0.351c-0.247,0.416-0.365,0.89-0.467,1.358c-0.085,0.389-0.352,0.859-0.051,1.227
	c0.17,0.208,0.612,0.402,0.877,0.399c0.416-0.005,0.355-0.6,0.746-0.655c0.251-0.035,0.427,0.23,0.401,0.441
	c-0.029,0.229-0.265,0.393-0.191,0.625c0.036,0.115,0.213,0.176,0.224,0.322c0.008,0.097-0.092,0.254-0.13,0.339
	c-0.105,0.238-0.234,0.453-0.386,0.659c-0.125,0.169-0.228,0.301-0.415,0.415c-0.195,0.118-0.315,0.136-0.339,0.384
	c-0.029,0.295,0.03,1.104,0.303,1.285c0.534,0.354,0.658-0.234,0.988-0.427c0.442-0.258,0.965,0.201,1.337,0.367
	c0.491,0.218,0.979,0.062,1.49,0.027c0.017,0.068,0.097,0.1,0.123,0.167c0.451-0.002,0.907-0.029,1.354-0.086
	c0.361-0.046,0.766-0.16,1.132-0.134c0.3,0.021,0.474,0.274,0.736,0.34c0.251,0.063,0.647-0.029,0.924-0.023
	c0.303,0.006,0.54,0.111,0.821,0.2c0.365,0.115,0.507,0.082,0.785-0.124c0.267-0.197,0.206-0.054,0.476,0.023
	c0.227,0.065,0.574,0.01,0.809,0.025c0.329,0.021,0.381,0.043,0.274,0.326c-0.068,0.18-0.173,0.339-0.245,0.513
	c-0.058,0.143-0.111,0.274-0.043,0.425c0.078,0.173,0.339,0.201,0.386,0.341c0.112,0.328-0.802,0.973-1.002,1.191
	c-0.216,0.235-0.411,0.437-0.515,0.735c-0.105,0.299-0.117,0.705-0.142,1.025c-0.025,0.326,0.041,0.779,0.116,1.097
	c0.085,0.363,0.391,0.479,0.708,0.609c0.343,0.142,0.672,0.23,1.036,0.291c0.391,0.065,0.772,0.235,1.162,0.293
	c0.327-0.063,0.533-0.356,0.882-0.386c0.459-0.04,0.788,0.192,1.119,0.46c0.226,0.183,0.64,0.681,0.932,0.734
	c0.296,0.054,0.715-0.216,1.004-0.272c0.346-0.068,0.74-0.02,1.076,0.065c0.203,0.052,0.357,0.143,0.532,0.222
	c0.191,0.085,0.406,0.09,0.593,0.177c0.202,0.094,0.222,0.171,0.451,0.099c0.236-0.075,0.384-0.131,0.658-0.061
	c0.718,0.187,0.865,1.041,1.013,1.666c0.186,0.784,0.826,1.17,1.378,1.719c0.244,0.243,0.532,0.367,0.838,0.537
	c0.351,0.194,0.549,0.481,0.806,0.767c0.56,0,1.384-0.147,1.889,0.157c0.24,0.145,0.395,0.417,0.519,0.66
	c0.156,0.309,0.2,0.447,0.481,0.598c0.428,0.23,0.276,0.676,0.159,1.074c-0.073,0.249,0.003,0.34,0.151,0.554
	c0.156,0.223,0.132,0.253,0.038,0.465c-0.058,0.13-0.105,0.29-0.201,0.396c-0.153,0.168-0.428,0.153-0.647,0.239
	c-0.287,0.113-0.507,0.314-0.743,0.515c-0.067,0.057-0.197,0.137-0.22,0.23c-0.057,0.226,0.094,0.136,0.183,0.266
	c0.146,0.214,0.048,0.56,0.134,0.793c0.2,0.542,1.148,0.217,1.353,0.682c0.074,0.166,0.153,0.329,0.24,0.489
	c0.298-0.055,0.618,0.051,0.662,0.325c0.07,0.429,0.077,1.061,0.607,1.208c0.194-0.324,0.751,0.132,0.896,0.303
	c0.151,0.178,0.081,0.391,0.29,0.48c0.272,0.114,0.619-0.052,0.897,0.026c0.229,0.064,0.186,0.17,0.356,0.271
	c0.104,0.062,0.244-0.015,0.347,0.075c0.107,0.093,0.089,0.246,0.115,0.374c0.186-0.199,0.232,0.179,0.231,0.304
	c0.42,0.094,0.852,0.123,1.276,0.213c0.245,0.052,0.332,0.11,0.515,0.233c0.152,0.101,0.317,0.065,0.463,0.158
	c0.165,0.107,0.094,0.163,0.302,0.217c0.187,0.048,0.416-0.024,0.597,0.039c0.366,0.127,0.054,0.356,0.194,0.587
	c0.085,0.141,0.735,0.202,0.905,0.234c0.214,0.04,0.392,0.052,0.441,0.294c0.049,0.243-0.103,0.304,0.119,0.493
	c0.206,0.175,0.46,0.181,0.714,0.228c0.174,0.032,0.391,0.073,0.524,0.203c0.169,0.166,0.125,0.271,0.412,0.319
	c0.356,0.06,0.548-0.024,0.638,0.408c0.029,0.137,0.075,0.339,0.053,0.478c-0.023,0.14-0.156,0.205-0.082,0.363
	c0.125,0.261,0.522,0.237,0.648,0.475c0.147,0.279,0.032,0.621,0.176,0.9c0.187,0.365,0.759,0.391,1.133,0.391
	c0.179,0.203,0.215,0.548,0.413,0.754c0.198,0.205,0.568,0.179,0.733,0.415c0.181,0.259-0.056,0.379,0.297,0.476
	c0.359,0.099,0.742,0.083,1.09,0.23c0.302,0.127,1.097,0.676,1.025,1.033c-0.047,0.228-0.354,0.582-0.56,0.647
	c-0.242,0.076-0.336,0.013-0.457,0.266c-0.093,0.194-0.117,0.429-0.177,0.639c-0.038,0.13-0.059,0.285-0.169,0.364
	c-0.098,0.07-0.257,0.037-0.362,0.106c-0.126,0.083-0.193,0.203-0.134,0.322c0.034,0.068,0.184,0.108,0.235,0.187
	c0.012,0.019-0.022,0.078-0.003,0.106c0.033,0.049,0.085,0.113,0.115,0.159c0.09,0.14,0.168,0.118,0.003,0.292
	c-0.085,0.09-0.247,0.14-0.305,0.254c-0.128,0.252,0.257,0.42,0.454,0.515c0.399,0.192,0.707,0.399,0.849,0.84
	c0.219,0.152,0.561,0.333,0.819,0.39c0.177,0.039,0.412-0.003,0.552,0.144c0.223,0.234,0.079,0.691,0.26,0.985
	c0.334-0.098,0.872-0.151,0.879,0.314c0.004,0.242-0.123,0.413-0.299,0.549c-0.245,0.189-0.529,0.287-0.765,0.48
	c-0.233,0.192-0.471,0.618-0.096,0.824c0.248-0.141,0.638-0.308,0.821-0.542c0.375,0.25,0.455,0.876,0.786,1.193
	c0.354,0.339,0.987,0.41,1.485,0.414c0.667,0.005,1.225-0.102,1.771,0.292c0.169,0.122,0.395,0.176,0.538,0.333
	c0.159,0.175,0.256,0.46,0.312,0.686c0.062,0.252,0.018,0.391,0.279,0.504c0.203,0.089,0.405,0.05,0.62,0.061
	c0.214,0.011,0.4,0.04,0.574,0.177c0.186,0.145,0.232,0.302,0.473,0.38c0.313,0.1,0.76-0.045,1.008,0.233
	c0.215,0.241,0.128,0.76,0.569,0.717c0.207-0.02,0.294-0.186,0.528-0.119c0.12,0.034,0.164,0.11,0.259,0.177
	c0.207,0.144,0.522,0.128,0.719,0.292c-0.162,0.369-0.236,0.376,0.183,0.5c0.206,0.061,0.36,0.141,0.517,0.28
	c0.202,0.179,0.373,0.349,0.452,0.616c0.072,0.243-0.037,0.576-0.031,0.816c0.004,0.165-0.112,0.359,0.088,0.451
	c0.072,0.033,0.219,0.016,0.297,0.025c0.195,0.021,0.269,0.046,0.309,0.263c0.076,0.412-0.189,0.861-0.357,1.216
	c-0.174,0.369-0.509,0.794-0.431,1.228c0.047,0.262,0.275,0.508,0.376,0.756c0.071,0.173,0.082,0.306,0.082,0.488
	c0,0.227,0.221,0.531,0.359,0.739c0.265,0.396,0.404,0.912,0.656,1.32c0.133,0.217,0.372,0.465,0.61,0.569
	c0.288,0.125,0.493,0.064,0.682,0.352c0.095,0.145,0.139,0.319,0.225,0.469c0.149,0.262,0.349,0.449,0.387,0.765
	c0.035,0.282-0.041,0.573,0.096,0.838c0.118,0.229,0.395,0.398,0.582,0.573c0.21,0.196,0.343,0.292,0.369,0.576
	c0.026,0.291-0.061,0.421,0.203,0.567c0.679,0.378,1.547-0.008,2.181,0.508c0.212,0.172,0.333,0.433,0.345,0.697
	c0.014,0.322,0.049,0.387,0.366,0.484c0.449,0.137,1.048-0.105,0.974,0.634c-0.022,0.221-0.177,0.447-0.172,0.664
	c0.004,0.15,0.096,0.327,0.153,0.466c0.084,0.208,0.214,0.391,0.165,0.628c-0.035,0.171-0.209,0.29-0.214,0.464
	c0.564-0.05,0.951,0.489,1.407,0.709c0.16,0.077,0.281,0.194,0.444,0.265c0.081,0.036,0.453,0.236,0.409,0.147
	c0.041-0.236,0.423-0.741,0.672-0.634c0.151,0.065,0.17,0.288,0.29,0.377c0.205,0.153,0.583,0.013,0.837,0.059
	c-0.167,0.697-0.024,1.575,0.625,1.99c0.101-0.1,0.14-0.204,0.271-0.257c0.148-0.06,0.575-0.051,0.695,0.022
	c-0.015,0.534,0.21,0.838,0.65,1.121c0.161,0.104,0.317,0.265,0.507,0.292c0.28,0.04,0.626-0.048,0.913-0.048
	c0.284,0,1.084-0.138,1.321,0.043c0.295,0.225,0.064,0.87,0.492,0.86c0.122-0.003,0.255-0.073,0.398-0.074
	c0.206-0.002,0.454,0.173,0.614,0.049c0.456-0.356,0.668-1.147,1.235-1.365c0.18-0.069,0.375-0.032,0.554-0.106
	c0.165-0.069,0.224-0.189,0.36-0.284c0.192-0.135,0.394-0.12,0.615-0.198c0.638-0.223,0.601-0.944,0.876-1.461
	c0.124-0.235,0.299-0.356,0.526-0.434c0.134-0.046,0.276-0.056,0.41-0.112c0.116-0.048,0.224-0.166,0.33-0.205
	c0.087-0.032,0.179-0.035,0.281-0.02c0.078,0.31-0.125,0.741,0.095,0.986c0.285,0.316,0.682,0.28,1.052,0.298
	c0.614,0.03,1.251,0.074,1.845-0.117c0.131-0.042,0.267-0.125,0.407-0.099c0.229,0.043,0.191,0.233,0.333,0.35
	c0.109,0.089,0.252,0.045,0.374,0.125c0.158,0.103,0.085,0.222,0.169,0.339c0.203,0.281,0.661-0.057,0.907,0.187
	c0.095,0.094,0.046,0.216,0.099,0.319c0.073,0.141,0.196,0.197,0.32,0.291c0.33,0.25,0.708,0.687,1.108,0.8
	c0.228-0.25,0.423-0.691,0.755-0.809c0.182-0.064,0.417,0.032,0.604-0.069c0.138-0.075,0.216-0.227,0.287-0.363
	c0.119-0.229,0.169-0.612,0.345-0.795c0.176-0.183,0.547-0.059,0.782-0.232c0.443-0.325,0.352-0.82,0.485-1.269
	c0.045-0.154,0.161-0.258,0.232-0.392c0.122-0.232,0.055-0.417,0.043-0.674c-0.02-0.435-0.023-0.841,0.47-0.957
	c0.127,0.127,0.236,0.247,0.334,0.398c0.102,0.158,0.135,0.234,0.322,0.178c0.249-0.074,0.338-0.144,0.592-0.028
	c0.137,0.063,0.234,0.184,0.378,0.201c0.155,0.017,0.197-0.089,0.326-0.126c0.104-0.03,0.218,0.014,0.314,0.045
	c0.252,0.081,0.528,0.295,0.758,0.449c0.2,0.134,0.361,0.34,0.502,0.531c0.096,0.13,0.195,0.349,0.396,0.254
	c0.12-0.056,0.084-0.181,0.242-0.153c0.093,0.017,0.133,0.12,0.197,0.175c0.137,0.119,0.255,0.097,0.44,0.104
	c0.557,0.021,0.078,0.431-0.109,0.658v2.212c0.32,0.363,0.633,0.544,1.116,0.56c0.517,0.018,0.879,0.189,1.245,0.562
	c0.465,0.475-0.29,0.647-0.146,1.099c0.113,0.356,0.946,0.303,1.214,0.317c-0.001,0.543,0.177,0.963,0.665,1.238
	c0.217,0.122,0.445,0.249,0.692,0.305c0.104,0.024,0.196,0.044,0.305,0.036c0.153-0.011,0.274-0.105,0.423-0.095
	c0.084,0.205,0.079,0.469,0.089,0.692c0.014,0.317,0.037,0.304,0.241,0.509c0.271,0.272,0.112,0.81,0.285,1.148
	c0.206,0.403,0.266,0.527,0.716,0.324c0.153-0.069,0.368-0.254,0.512-0.214c0.234,0.064,0.133,0.293,0.219,0.435
	c0.123,0.205,0.581,0.273,0.805,0.272c0.458-0.001,0.702,0.541,1.001,0.787c0.204-0.103,0.363-0.237,0.559-0.351
	c0.116,0.232,0.051,0.53,0.158,0.735c0.121,0.233,0.435-0.07,0.65-0.152c1.573-0.601,1.116,2.646,1.116,3.441
	c0.146,0.086,0.413,0.172,0.602,0.191c0.338,0.034,0.344-0.104,0.56-0.282c0.195-0.16,0.419-0.149,0.64-0.081
	c0.276,0.085,0.477,0.14,0.791,0.141c0.188-0.273,0.261-1.198,0.774-0.689c0.289,0.288,0.055,0.805,0.284,1.088
	c0.297,0.368,0.803,0.213,0.712,0.808c-0.039,0.253-0.282,0.793,0.101,0.919c0.138-0.224,0.183-0.42,0.27-0.667
	c0.111-0.314,0.305-0.597,0.5-0.868c0.226-0.312,0.478-0.632,0.665-0.973c0.13-0.237,0.166-0.477,0.244-0.728
	c0.441-0.066,0.743,0.271,1.103-0.126c0.15-0.165,0.378-0.673,0.578-0.677c0.244-0.006,0.233,0.209,0.487,0.067
	c0.122-0.068,0.15-0.161,0.235-0.249c0.172-0.178,0.478-0.276,0.642-0.474h1.962l3.838,2.193l0.421-0.439l2.047-0.493l1.371-1.316
	v-0.658l1.005,0.749l1.097,1.535l0.323,1.517h1.56l0.487,0.926l1.828,0.439l0.268-0.902l-0.414-0.585l3.29-2.218l4.752-0.366
	l2.876-0.78l1.803-1.194l2.583,1.876l5.117,0.292l13.061-13.208l4.155-2.193l9.138-3.619c0.075,0,0.206-0.023,0.277-0.052
	c0.013,0.247,0.028,0.528-0.007,0.776c0.311,0.022,0.841-0.493,1.109-0.664c0.338-0.216,0.642-0.521,1.01-0.672
	c0.449-0.185,0.65,0.027,0.392,0.473c-0.222,0.383-0.36,0.687-0.414,1.122c0.425,0.04,0.93-0.156,1.373-0.169
	c0.338-0.01,0.687,0.083,0.993,0.213c0.309,0.131,0.191,0.276,0.011,0.565c-0.256,0.412-0.345,0.669-0.345,1.17
	c0,0.961,0.525,1.662,0.977,2.475c0.335,0.603,1.234,0.851,1.902,0.871c0.127-0.421-0.204-1.022,0.307-1.252
	c0.449-0.203,0.548,0.246,0.762,0.552c0.082,0.117,0.012,0.106,0.134,0.16c0.117,0.052,0.385-0.002,0.518-0.002
	c0.256,0,0.517-0.013,0.773-0.001c0.402,0.019,0.802,0.025,1.206,0.025l-2.169-2.485v-4.825l0.828-0.999l-0.561-1.194
	c-0.062-0.414,0.836-0.933,0.22-1.254c-0.274-0.143-0.569-0.278-0.845-0.416c-0.123-0.061-0.289-0.066-0.406-0.132
	c-0.064-0.037-0.12-0.127-0.194-0.157c-0.149-0.06-0.359,0.003-0.521-0.035c0.035-0.083-0.003-0.143-0.008-0.22
	c-0.282-0.021-0.555,0.008-0.834,0.045c-0.158,0.021-0.476,0.112-0.631,0.05c-0.116-0.047-0.117-0.114-0.215-0.215
	c-0.129-0.133-0.328-0.238-0.508-0.295c-0.27-0.086-0.603-0.053-0.884-0.052c-0.316,0-0.488-0.044-0.702,0.113
	c-0.121,0.088-0.212,0.224-0.335,0.311c-0.199,0.141-0.427,0.193-0.649,0.289c-0.329,0.141-0.757,0.487-1.114,0.479
	c-0.311-0.008-0.423-0.183-0.566-0.421c-0.222-0.366-0.026-0.588,0.071-0.995c0.076-0.315,0.079-0.594,0.079-0.921l-2.778-2.047
	v-1.096l-1.949-3.07c0.415-0.426-0.334-0.665-0.151-1.056c0.107-0.229,0.217-0.331,0.224-0.601c0.008-0.293-0.047-0.589-0.091-0.878
	c-0.035-0.226-0.034-0.338-0.164-0.526c-0.115-0.166-0.125-0.272-0.161-0.48c-0.045-0.259-0.059-0.505-0.059-0.776
	c0-0.38-0.126-0.529-0.325-0.845c-0.168-0.267-0.024-0.345,0.125-0.575c0.142-0.219,0.329-0.47,0.393-0.728
	c0.074-0.298,0.041-0.617,0.081-0.918c0.034-0.256,0.237-0.353,0.308-0.58c0.046-0.147,0.009-0.357,0.022-0.513
	c0.01-0.12,0.052-0.285,0.002-0.401c-0.163-0.381-0.813-0.259-0.916-0.695c-0.085-0.361,0.005-0.613-0.385-0.81
	c-0.123-0.062-0.283-0.07-0.408-0.139c-0.172-0.097-0.189-0.253-0.23-0.436c-0.397-0.106-0.858,0.052-1.246,0.106
	c-0.455,0.063-0.741-0.096-1.051-0.413c-0.112-0.114-0.141-0.267-0.227-0.41c-0.155-0.259-0.354-0.453-0.574-0.655
	c-0.242-0.223-0.542-0.75-0.891-0.714c-0.316,0.032-0.516-0.009-0.837-0.067c-0.215-0.039-0.534-0.195-0.752-0.166
	c-0.001-0.318,0.29-0.583,0.313-0.908c0.014-0.195-0.097-0.381-0.238-0.505c-0.021-0.019-0.022-0.05-0.024-0.079
	c-0.122-0.142-0.283-0.249-0.405-0.392c-0.135-0.159-0.258-0.317-0.421-0.452c-0.058-0.048-0.114-0.088-0.163-0.143
	c-0.022-0.025-0.02-0.066-0.049-0.085c-0.065-0.044-0.325-0.032-0.419-0.037c-0.146-0.008-0.296,0.001-0.442,0.001
	c-0.16,0-0.319,0.003-0.479,0c-0.238-0.004-0.326-0.046-0.53-0.147c-0.183-0.091-0.706-0.21-0.601-0.489
	c0.03-0.079,0.17-0.186,0.104-0.285c-0.047-0.071-0.177-0.056-0.247-0.087c-0.064-0.028-0.12-0.073-0.177-0.113
	c-0.082-0.058-0.161-0.103-0.255-0.146c-0.103-0.047-0.239-0.053-0.335-0.106c-0.047-0.026-0.079-0.068-0.111-0.115
	c-0.027-0.041-0.027-0.089-0.059-0.13c-0.099-0.127-0.308-0.155-0.454-0.174c-0.125-0.016-0.104,0.012-0.147-0.086
	c-0.041-0.094-0.013-0.27,0.006-0.364c0.038-0.186,0.111-0.344,0.116-0.537c0.003-0.132-0.034-0.235-0.107-0.345
	c-0.049-0.074-0.143-0.132-0.149-0.226c-0.612-0.065-1.11-0.473-1.424-0.974c-0.08-0.127-0.169-0.264-0.307-0.328
	c-0.162-0.075-0.375,0.031-0.525-0.037c-0.152-0.07-0.249-0.434-0.218-0.611c0.039-0.225,0.264-0.221,0.293-0.503
	c0.029-0.275,0.077-0.785-0.057-1.037c-0.08-0.15-0.283-0.279-0.4-0.405c-0.13-0.139-0.226-0.288-0.335-0.442
	c-0.274-0.39-0.606-0.595-0.967-0.883c-0.253-0.202-0.282-0.406-0.313-0.727c-0.016-0.168,0.001-0.386-0.15-0.506
	c-0.263-0.208-0.896-0.101-1.214-0.101c-0.684,0-0.974-0.919-1.51-1.338c-0.253-0.198-0.521-0.377-0.804-0.532
	c-0.328-0.18-0.671-0.179-1.038-0.196c-0.317-0.014-0.62,0.042-0.858-0.183c-0.181-0.17-0.25-0.419-0.471-0.551
	c-0.313-0.186-0.995-0.278-1.326-0.174c-0.103,0.032-0.197,0.109-0.301,0.137c-0.127,0.035-0.279-0.005-0.396,0.032
	c-0.087,0.027-0.138,0.111-0.217,0.155c-0.101,0.056-0.157,0.059-0.276,0.093c-0.248,0.071-0.386,0.139-0.608-0.133
	c-0.16-0.196-0.228-0.247-0.483-0.333c-0.427-0.146-0.576-0.59-1.136-0.316c-0.144-0.184-0.391-0.429-0.637-0.467
	c-0.169-0.026-0.689,0.211-0.772,0.358c-0.064-0.068-0.062-0.195-0.115-0.25c-0.116-0.119-0.371-0.14-0.506-0.091
	c-0.139,0.049-0.197,0.221-0.359,0.171c-0.023-0.235,0.001-0.42-0.181-0.595c-0.173-0.166-0.397-0.225-0.481-0.471
	c-0.059-0.173-0.022-0.36-0.084-0.541c-0.095-0.278-0.095-0.371-0.037-0.672c0.129-0.104,0.229-0.279,0.378-0.355
	c0.182-0.093,0.286-0.011,0.355-0.261c0.03-0.11-0.073-0.394-0.004-0.482c0.076-0.096,0.337-0.05,0.461-0.074
	c-0.005-0.179-0.048-0.672,0.063-0.814c0.164-0.209,0.448,0.037,0.607,0.14c0.063-0.266-0.21-0.582-0.065-0.787
	c0.169-0.239,0.585-0.092,0.82-0.15c0.263-0.065,0.35-0.252,0.26-0.501c-0.113-0.315-0.361-0.429-0.154-0.741
	c0.13-0.197,0.471-0.381,0.424-0.672c-0.05-0.307-0.53-0.374-0.417-0.764c0.058-0.199,0.277-0.168,0.366-0.456
	c0.068-0.219,0.118-0.449,0.027-0.66c-0.106-0.244-0.314-0.323-0.078-0.589c0.143-0.162,0.325-0.097,0.475-0.186
	c0.206-0.122,0.288-0.411,0.544-0.515c0.173-0.071,0.093-0.097,0.311,0.036c0.079,0.049,0.163,0.163,0.266,0.162
	c0.201-0.002,0.269-0.27,0.37-0.406c0.367,0.176,0.7,0.425,1.055,0.622c0.182-0.147,0.242-0.466,0.481-0.555
	c0.168-0.063,0.382,0.037,0.554-0.008c0.111-0.029,0.202-0.116,0.3-0.178c0.262-0.165,0.568-0.251,0.887-0.211
	c0.372,0.046,0.671,0.405,0.947,0.635c0.136-0.159,0.269-0.335,0.372-0.518c0.171,0.046,0.574,0.268,0.728,0.388
	c0.174,0.135,0.164,0.289,0.229,0.497c0.134,0.425,0.335,0.534,0.781,0.558c0.154,0.008,0.379,0.106,0.508,0.097
	c0.169-0.012,0.233-0.221,0.328-0.334c0.364-0.431,0.895-0.275,1.404-0.303c0.055-0.231,0.012-0.49,0.013-0.729
	c0.249-0.159,0.407-0.371,0.695-0.512c0.189-0.093,0.44-0.162,0.655-0.121c0.147,0.027,0.242,0.129,0.383,0.173
	c0.172,0.053,0.485,0.074,0.595-0.065c0.089-0.112,0.04-0.315,0.121-0.437c0.209-0.316,0.709-0.245,0.963-0.522
	c0.248-0.271,0.46-0.629,0.634-0.951v-6.701l-0.56-7.042h-3.509l0.524-4.094l0.877-0.694c0-0.532,0.147-0.927,0.257-1.414
	c0.108-0.481-0.004-1.002,0.034-1.491c0.023-0.298,0.161-0.625,0.111-0.925c-0.051-0.302-0.131-0.199-0.258-0.425
	c-0.161-0.289-0.095-0.655-0.113-1.004c-0.335-0.097-0.634-0.366-0.981-0.406l-1.462-2.559l-2.193-1.718l-2.303-3.07l-4.203-2.083
	l0.439-0.731l-2.12-12.647l0.731-2.011l0.951-6.579l0.731-0.695l-8.645-0.311c-0.029,0.885,0.219,1.969,0.344,2.85
	c0.042,0.296,0.099,0.682,0.038,0.981c-0.059,0.287-0.321,0.483-0.401,0.757h-9.759l4.496,3.765v8.261l1.279,2.083l-4.935,4.825
	l-2.486,1.352l-3.29,5.702l-6.324,7.31l-1.243,0.951l-6.872,0.091l-0.037,0.64l-4.533-3.765l-8.188-5.264h-1.06l-6.141,3.29v5.154
	h-6.397c-0.259,0.478-0.948,0.078-1.332,0.234c-0.331,0.134-0.393,0.583-0.566,0.861c-0.141,0.226-0.365,0.418-0.578,0.579
	c-0.313,0.236-0.62,0.429-0.899,0.707c-0.315,0.314-0.57,0.722-0.943,0.964c-0.318,0.207-0.725,0.408-0.949,0.726
	c-0.167,0.238-0.249,0.546-0.399,0.797c-0.188,0.316-0.397,0.463-0.293,0.832c0.059,0.209,0.109,0.407,0.158,0.613H75.054
	l-1.998-4.191l-11.989-0.146l-1.45,0.201l-4.916,1.864l-4.971-1.151l-0.841-0.695l-1.828-4.77c-0.239-0.106-0.534-0.47-0.755-0.629
	c-0.223-0.161-0.535-0.314-0.722-0.511c-0.292-0.308-0.433-0.816-0.673-1.169c-0.311-0.457-0.626-0.942-1.074-1.281
	c-0.212-0.16-0.452-0.275-0.701-0.364c-0.136-0.048-0.445-0.068-0.444-0.244v-3c-0.28-0.211-0.664-0.008-0.607-0.535
	c-0.193,0.064-0.407,0.343-0.607,0.222c-0.159-0.097-0.107-0.373-0.318-0.475c-0.296-0.143-1.068,0.17-1.159-0.216
	c-0.188,0.056-0.435,0.135-0.595,0.257c-0.077,0.059-0.131,0.187-0.207,0.232c-0.399,0.235-0.355-0.234-0.615-0.318
	c-0.254-0.083-0.307,0.268-0.443,0.374c-0.13,0.102-0.24,0.149-0.456,0.092c-0.277-0.073-0.433-0.246-0.602,0.099
	c-0.234,0.035-0.296-0.325-0.494,0.056c-0.351-0.119-0.409-0.271-0.647-0.004c-0.206,0.232-0.252,0.189-0.534,0.04
	c-0.378-0.2-0.583,0.033-0.929,0.227c-0.131-0.12-0.516-0.148-0.708-0.148c-0.246,0.001-0.279,0.126-0.447,0.268
	c-0.164,0.138-0.261,0.115-0.462,0.092c-0.125-0.014-0.123-0.091-0.248-0.021c-0.065,0.037-0.189,0.282-0.195,0.35
	c-0.348-0.128-0.749-0.547-1.086-0.232c-0.117,0.109-0.328,0.315-0.299,0.477c-0.179-0.057-0.427-0.334-0.639-0.279
	c-0.098,0.025-0.127,0.138-0.191,0.211c-0.172,0.198-0.323,0.156-0.569,0.232c-0.103,0.228-0.057,0.442-0.253,0.637
	c-0.087,0.087-0.223,0.118-0.241,0.236c-0.02,0.134,0.186,0.263,0.175,0.407c-0.018,0.233-0.304,0.229-0.316,0.467
	c-0.012,0.227,0.229,0.317-0.127,0.471c0.017,0.223,0.244,0.281,0.372,0.438c0.192,0.235,0.335,0.501,0.343,0.809
	c-0.296,0.092-0.694-0.022-0.421,0.424c-0.134,0.045-0.374,0.026-0.414,0.217c-0.041,0.194,0.249,0.304,0.211,0.516
	c-0.147-0.015-0.314,0.054-0.398,0.184c-0.082,0.128-0.047,0.243-0.092,0.393c-0.049,0.166-0.133,0.166-0.204,0.272
	c-0.201,0.301-0.007,0.931-0.321,1.09c-0.172,0.088-0.302,0.04-0.465,0.168c-0.186,0.147-0.283,0.198-0.51,0.287
	c-0.238,0.094-0.371,0.286-0.583,0.428c-0.335,0.223-0.771,0.318-1.171,0.306c-0.006,0.089-0.006,0.18,0.003,0.27
	c-0.166,0.101-0.579-0.366-0.762-0.441c-0.208-0.086-0.442-0.137-0.67,0.003c-0.372,0.23-0.474,0.59-0.975,0.394
	c-0.247-0.096-0.482-0.226-0.76-0.179c-0.168,0.028-0.317,0.134-0.484,0.168c-0.473,0.097-0.464-0.494-0.912-0.532
	c-0.422,0.182-0.765,0.417-1.189,0.611c-0.187,0.085-0.465,0.278-0.682,0.216c-0.147-0.042-0.226-0.191-0.421-0.217
	c-0.548-0.074-1.049,0.218-1.584,0.219c-0.383,0.001-0.33,0.047-0.503,0.374c-0.063,0.119-0.229,0.231-0.226,0.357h-1.27
	c-0.003,0.274-0.143,0.369-0.273,0.566c-0.124,0.189,0.023,0.494-0.14,0.622c-0.182,0.144-0.51-0.05-0.682-0.112
	c-0.21-0.075-0.395-0.053-0.632-0.053H8.139c-0.001,0.311-0.089,0.315-0.265,0.563c-0.151,0.212-0.283,0.435-0.435,0.65
	c-0.138,0.195-0.286,0.432-0.183,0.642c0.066,0.134,0.17,0.139,0.178,0.291c0.007,0.134-0.069,0.171-0.11,0.284
	c-0.095,0.259-0.087,0.531,0.033,0.783c0.163,0.344,0.256,0.119,0.549,0.249c0.455,0.202-0.023,0.498-0.189,0.648
	c-0.289,0.261-0.258,0.548-0.258,0.913c0,0.197-0.003,0.384,0.047,0.576c0.035,0.134,0.128,0.265,0.099,0.412
	C7.545,76.316,7.23,76.266,7.116,76.638z"/>
</svg>
