<?xml version="1.0" encoding="utf-8"?>
<!-- Generator: Adobe Illustrator 26.0.3, SVG Export Plug-In . SVG Version: 6.00 Build 0)  -->
<svg version="1.1" id="Isolation_Mode" xmlns="http://www.w3.org/2000/svg" xmlns:xlink="http://www.w3.org/1999/xlink" x="0px"
	 y="0px" viewBox="0 0 200 200" enable-background="new 0 0 200 200" xml:space="preserve">
<path fill="#1E8346" d="M98.219,7.404l47.147,32.394l11.209-5.403l2.513,4.373c0.383,0.765,1.384,0.664,2.148,0.895
	c0.688,0.209,1.361,0.377,2.062,0.499c1.526,0.265,2.979,0.807,4.587,0.818v2.915l2.111,14.727l-3.066,16.888l0.251,11.51
	l5.831,13.772v36.592h-1.257l-2.073-4.059c-0.348-0.106-0.662-0.103-1.029-0.015c-0.427,0.103-0.857,0.146-1.254,0.347
	c-0.454,0.23-0.931,0.422-1.386,0.645c-0.262,0.128-0.554,0.194-0.807,0.336c-0.152,0.085-0.282,0.184-0.451,0.226
	c-0.405,0.103-0.593-0.133-0.971-0.185c-0.033-0.094-0.181-0.205-0.25-0.292c-0.093-0.117-0.171-0.26-0.272-0.369
	c-0.236-0.255-0.417-0.355-0.768-0.354c-0.794,0.003-1.629-0.049-2.356,0.299c0.116,0.536,0.581,1.008,0.402,1.605l-1.703,11.516
	l0.301,2.061l-1.508,7.74l-1.156,13.722l0.251,22.669l-50.282-0.427l-35.341-13.094l-9.5-12.352l-7.954-6.974l-2.902-5.353
	l1.809-3.506l0.076-5.504l-7.653-7.313l-1.055-7.577l-0.528,2.073c-0.449-0.02-1.074,0.345-1.411,0.622
	c-0.18,0.149-0.295,0.328-0.497,0.468c-0.202,0.14-0.603,0.239-0.631,0.496c-0.712-0.017-1.184,0.071-1.79,0.447
	c-0.744,0.462-1.506,0.986-1.963,1.717c-0.192,0.308-0.415,0.635-0.808,0.733c-0.411,0.103-0.563-0.151-0.78-0.468
	c-0.307-0.449-0.777-1.197-0.791-1.754l-1.244-12.176v-17.831l1.508-11.649l2.526-6.295l3.016-3.431l3.242-6.521l7.728-7.917
	L62.985,46.66l3.87-8.545l1.458-7.188l15.38-14.375l4.071-6.132L98.219,7.404z"/>
</svg>
