<?xml version="1.0" encoding="utf-8"?>
<!-- Generator: Adobe Illustrator 26.0.3, SVG Export Plug-In . SVG Version: 6.00 Build 0)  -->
<svg version="1.1" xmlns="http://www.w3.org/2000/svg" xmlns:xlink="http://www.w3.org/1999/xlink" x="0px" y="0px"
	 viewBox="0 0 200 200" enable-background="new 0 0 200 200" xml:space="preserve">
<g id="Layer_1">
	<g id="Layer_1_00000075879624959596184900000007102216081240906125_">
		<g id="Layer_1_00000107551159852787612550000017757744099325915571_">
			<g id="Layer_1_00000128480095285341338950000008464522443776971395_">
			</g>
		</g>
	</g>
</g>
<g id="Isolation_Mode">
	<g>
		<path fill="#1E8346" d="M134.343,114.142c0.11,0.061,0.222,0.111,0.341,0.145C134.568,114.245,134.455,114.194,134.343,114.142z"
			/>
		<path fill="#1E8346" d="M141.299,133.823c-0.134-0.185-0.255-0.39-0.379-0.582c-0.152-0.234-0.348-0.5-0.578-0.682
			c-0.245-0.194-0.583-0.27-0.754-0.544c-0.106-0.171-0.16-0.353-0.248-0.536c-0.067-0.141-0.207-0.276-0.234-0.428v-0.055
			l0.291-3.363c-0.158-0.073-0.709-0.135-0.758-0.296c-0.056-0.178,0.2-0.262,0.172-0.425c-0.02-0.12-0.21-0.185-0.313-0.217
			c-0.064-0.419,0.366-0.859,0.477-1.259c0.179-0.645,0.041-1.243,0.347-1.861c0.254-0.512,0.422-0.892,0.2-1.435
			c-0.233-0.569-0.556-1.208-1.08-1.567c-0.335-0.23-0.6-0.379-0.937-0.12c-0.202,0.155-0.448,0.381-0.688,0.437
			c-0.046-0.223,0.029-0.479-0.041-0.696c-0.082-0.255-0.273-0.244-0.564-0.231c0.113-0.256,0.674-0.746,0.186-0.946
			c0.129-0.258,0.559-0.374,0.814-0.463c0.225-0.078,0.235-0.076,0.439,0.043c0.41,0.239,0.799,0.514,1.184,0.794
			c0.304,0.222,0.486,0.417,0.887,0.401c0.321-0.013,0.455-0.124,0.348-0.46c-0.301-0.191-0.631-0.256-0.874-0.538
			c-0.242-0.282-0.235-0.564,0.157-0.626c0.313-0.049,0.8-0.033,1.085-0.197c0.323-0.186,0.237-0.589,0.27-0.91
			c-0.49-0.041-1.022,0.328-1.507,0.054c-0.311-0.176-0.508-0.491-0.852-0.619c-0.293,0.047-0.245,0.208-0.405,0.364
			c-0.193,0.188-0.274,0.044-0.469-0.045c-0.427-0.196-0.885,0.04-1.319-0.029c-0.532-0.083-1.031-0.446-1.589-0.521
			c-0.694-0.093-1.455-0.018-2.162-0.009c-0.153-0.327-0.031-0.714-0.212-1.052c-0.163-0.303-0.487-0.626-0.798-0.777
			c-0.801-0.387-0.508,1.44-1.383,1.139c-0.457-0.158-0.49-2.114,0.203-2.048c0.184,0.017,0.258,0.302,0.399,0.352
			c0.231,0.081,0.427-0.226,0.601-0.321c0.321-0.176,0.848-0.138,1.195-0.066c0.417,0.088,0.841,0.233,1.248,0.364
			c0.24,0.077,0.462,0.191,0.685,0.296c-0.457-0.252-0.86-0.678-1.376-0.775c-0.511,0.085-0.796-0.509-0.972-0.88
			c-0.099-0.209-0.168-0.352-0.387-0.459c-0.323-0.159-0.579,0.032-0.903,0.113c0.157-0.288,0.502-0.381,0.347-0.737
			c-0.129-0.298-0.371-0.54-0.496-0.858c-0.153-0.389-0.235-0.696,0.021-1.067c0.278-0.402,0.467-0.698,0.425-1.227
			c-0.368-0.166-0.145-0.695-0.145-0.957c0-0.337-0.441-0.598-0.591-0.919c-0.471-1.012-1.225-1.54-2.352-1.444
			c-0.297,0.025-1.455,0.132-1.445,0.562c0.006,0.246,0.379,0.489,0.461,0.726c0.13,0.373-0.051,0.736-0.254,1.052
			c-0.247,0.385-0.562,0.618-0.963,0.847c-0.3,0.172-0.637,0.278-0.95,0.425c-0.334,0.156-0.623,0.357-0.983,0.449
			c-0.377,0.096-0.961,0.14-1.341,0.029c-0.301-0.089-0.85-0.435-0.869-0.766c-0.01-0.188,0.094-0.364,0.075-0.553
			c-0.018-0.186-0.083-0.217-0.193-0.373c-0.257-0.363,0.103-0.495,0.386-0.727c0.491-0.403,0.645-0.831,0.675-1.458
			c0.021-0.438-0.025-0.838,0.103-1.257c0.087-0.286-0.029-0.438-0.204-0.665c-0.063-0.082-0.159-0.239-0.241-0.294
			c-0.125-0.084-0.393-0.081-0.572-0.059c-0.392,0.049-0.642,0.375-0.922,0.615c-0.363,0.31-0.93,0.416-1.392,0.516
			c-0.314,0.068-0.498,0.151-0.764-0.029c-0.149-0.101-0.298-0.229-0.491-0.23c-0.156,0-0.339,0.101-0.513,0.136
			c-0.419,0.084-1.175,0.303-1.565,0.084c-0.104-0.058-0.162-0.18-0.256-0.241c-0.17-0.111-0.365-0.1-0.556-0.147
			c-0.314-0.078-0.633-0.205-0.92-0.353c-0.314-0.161-0.679-0.25-0.919-0.512c-0.302-0.329-0.487-0.742-0.795-1.071
			c-0.642-0.685-1.528-1.046-2.193-1.695c-0.736-0.717-1.297-1.395-1.781-2.285c-0.11-0.202-0.339-0.447-0.475-0.625
			c-0.126-0.164-0.24-0.336-0.35-0.512c-0.124-0.199-0.236-0.401-0.355-0.596c-0.119-0.194-0.17-0.518-0.318-0.673
			c-0.089-0.518-0.122-1.146-0.199-1.684c-0.084-0.589-0.049-1.189-0.122-1.781c-0.105-0.843-0.29-1.256,0.124-2.047
			c0.358-0.685,0.809-1.291,1.184-1.959c0.484-0.859,0.914-1.261,1.856-1.624c0.695-0.267,1.633-0.524,2.12-1.099
			c0.199-0.235,0.246-0.575,0.519-0.687c0.376-0.154,0.873,0.127,1.267-0.131c0.386-0.252,0.828-0.839,1.12-1.209
			c1.101-1.393,2.557-2.299,4.365-2.396c0.012-0.121,0.22-0.202,0.22-0.308c0-0.286-0.063-0.678,0.023-0.948
			c0.065-0.204,0.267-0.479,0.394-0.65c0.395-0.533,0.949-0.705,1.523-0.996c0.658-0.333,1.146-0.64,1.281-1.422
			c0.029-0.165-0.023-0.348,0.089-0.495c0.133-0.174,0.364-0.096,0.544-0.208c0.265-0.165,0.33-0.603,0.492-0.864
			c0.165-0.268,0.324-0.564,0.603-0.717c0.341-0.187,0.88-0.238,1.274-0.223c0.092-0.562-0.43-0.781-0.04-1.306
			c0.265-0.357,0.824-0.768,0.824-1.215c0-0.745-0.04-1.591,0.281-2.276c0.28-0.599,1.004-0.941,1.539-1.227
			c0.627-0.336,0.552-1.326,0.556-1.905c0.006-0.854,0.302-1.622,0.983-2.148c0.469-0.363,0.689-0.816,1.005-1.291
			c0.274-0.411,0.352-0.554,0.865-0.586c-0.081-0.281-0.473-0.421-0.666-0.619c-0.281-0.288-0.572-0.602-0.829-0.913
			c-0.225-0.273-0.524-0.586-0.7-0.884c-0.139-0.236-0.118-0.5-0.187-0.756c-0.09-0.331-0.281-0.591-0.155-0.925
			c0.098-0.259,0.268-0.367,0.291-0.669c0.027-0.358-0.121-0.652-0.173-0.987c-0.05-0.323,0.067-0.623,0.205-0.899
			c0.202-0.406,0.443-0.938,0.137-1.271c-0.32-0.347-0.472-0.753-0.567-1.209c-0.11-0.525,0.196-0.938,0.264-1.44
			c0.075-0.549-0.209-0.467-0.608-0.597c-0.435-0.142-0.811-0.508-1.209-0.728c-0.497-0.274-1.048-0.221-1.569-0.407
			c-0.39-0.139-0.77-0.406-1.109-0.635c-0.432-0.291-0.721-0.777-0.423-1.287c0.117-0.201,0.295-0.226,0.205-0.478
			c-0.037-0.105-0.172-0.224-0.26-0.278c-0.313-0.192-0.798-0.117-1.144-0.093c-0.336,0.023-0.55,0.221-0.846,0.296
			c-0.42,0.106-0.691-0.331-0.958-0.562c-0.194-0.167-0.712-0.32-0.834-0.532c-0.078-0.136-0.006-0.382-0.069-0.542
			c-0.051-0.131-0.148-0.237-0.231-0.351c-0.146-0.201-0.237-0.434-0.388-0.631c-0.278-0.363-0.484-0.776-0.704-1.189
			c-0.168-0.315-0.38-0.606-0.551-0.919c-0.121-0.221-0.19-0.474-0.363-0.661c-0.147-0.16-0.346-0.357-0.508-0.509
			c-0.107-0.1-0.362-0.181-0.251-0.391c0.447,0.135,0.158-0.822,0.123-0.941c-0.208-0.064-0.394-0.07-0.55-0.243
			c-0.174-0.193-0.253-0.576-0.323-0.818c-0.175-0.605-0.164-1.246-0.257-1.864c-0.046-0.305-0.109-0.577-0.059-0.886
			c0.061-0.382,0.189-0.751,0.27-1.128c0.137-0.639,0.263-1.251,0.44-1.877c0.177-0.627,0.252-1.392,0.672-1.886
			c0.15-0.177,0.255-0.486,0.388-0.696c0.227-0.358,0.426-0.581,0.874-0.633c0.318-0.037,0.697,0.086,0.975-0.112
			c0.166-0.118,0.272-0.247,0.47-0.347c0.254-0.127,0.51-0.249,0.765-0.373c0.497-0.24,1.013-0.125,1.476-0.385
			c0.31-0.174,0.642-0.299,0.956-0.461c0.178-0.092,0.43-0.167,0.544-0.343c0.097-0.149,0.06-0.336,0.097-0.502
			c0.032-0.147,0.096-0.258,0.148-0.397c0.113-0.309,0.179-0.6,0.333-0.899c0.246-0.479,0.458-0.999,0.665-1.495
			c0.289-0.69,0.725-1.245,1.11-1.891c0.244-0.409,0.443-0.85,0.648-1.281c0.16-0.336,0.409-0.732,0.617-1.035
			c0.502-0.73,0.966-1.551,1.708-2.073c0.393-0.277,1.093-0.293,1.378-0.699c0.185-0.264,0.367-0.821,0.185-1.13
			c-0.174-0.295-0.443-0.488-0.544-0.842c-0.13-0.454,0.113-1.021-0.103-1.447c-0.187-0.37-0.586-0.599-0.772-0.985
			c-0.133-0.277-0.235-0.71-0.072-0.989c0.132-0.224,0.447-0.381,0.218-0.622c-0.241-0.254-0.557-0.59-0.859-0.765
			c-0.392,0.289-0.861,0.452-1.274,0.7c-0.459,0.276-0.959,0.053-1.446,0.218c-0.017,0.335,0.075,0.714,0.016,1.039
			c-0.036,0.196-0.242,0.299-0.399,0.436c-0.37,0.322-0.767,0.579-1.163,0.87c-0.446,0.328-0.83,0.733-1.256,1.08
			c-0.203,0.166-0.44,0.276-0.653,0.426c-0.162,0.114-0.306,0.249-0.477,0.348c-0.242,0.14-0.533,0.416-0.815,0.416
			c-0.591,0-1.214-0.056-1.8,0.021c-0.404,0.054-0.774,0.608-0.93,0.959c-0.135,0.305-0.101,0.653-0.177,0.974
			c-0.058,0.243-0.171,0.471-0.26,0.704c-0.073,0.192-0.121,0.404-0.269,0.552c-0.173,0.171-0.401,0.256-0.615,0.355
			c-0.221,0.104-0.423,0.242-0.64,0.349c-0.201,0.099-0.395,0.15-0.586,0.271c-0.445,0.281-0.892,0.365-1.407,0.311
			c-0.656-0.07-1.139-0.247-1.571-0.752c-0.27-0.316-0.726-0.532-0.763-0.988c-0.013-0.156-0.037-0.402,0.044-0.541
			c0.059-0.101,0.195-0.194,0.275-0.283c0.266-0.296,0.391-0.67,0.597-1.007c0.109-0.178,0.408-0.323,0.395-0.56
			c-0.011-0.207-0.249-0.354-0.381-0.47c-0.2-0.174-0.195-0.378-0.306-0.606c-0.091-0.187-0.219-0.222-0.396-0.31
			c-0.182-0.09-0.414-0.181-0.553-0.326c-0.151-0.157-0.201-0.347-0.444-0.4c-0.067,0.269,0.192,0.646,0.298,0.891
			c0.121,0.278,0.293,0.554-0.083,0.656c-0.185,0.051-0.438,0.12-0.612,0.011c-0.081-0.05-0.118-0.156-0.194-0.211
			c-0.12-0.087-0.277-0.097-0.406-0.169c-0.435-0.241-0.196-0.693,0.127-0.904c0.273-0.178,0.605-0.436,0.297-0.731
			c-0.214-0.205-0.402-0.213-0.492-0.505c-0.139-0.455-0.492-0.892-0.545-1.364c-0.033-0.298,0.037-0.588,0.049-0.882
			c0.008-0.195-0.01-0.393,0.006-0.588c0.026-0.333,0.254-0.539,0.349-0.843c-0.429-0.111-0.862-0.197-1.183-0.533
			c-0.233-0.244-0.249-0.487-0.022-0.754c0.237-0.278,0.614-0.327,0.956-0.326c0.192,0,0.451-0.055,0.63,0.013
			c0.158,0.06,0.244,0.238,0.361,0.356c0.202-0.198,0.837-0.477,0.838-0.787c-0.327-0.002-0.723,0.021-1.042-0.035
			c-0.294-0.051-0.33-0.3-0.534-0.455c-0.213-0.162-0.434-0.287-0.674-0.372c-0.226-0.08-0.402-0.226-0.627-0.319
			c-0.191-0.08-0.363-0.238-0.563-0.295c-0.189-0.054-0.383,0.047-0.572,0c-0.402-0.099-0.134-0.669-0.551-0.838
			c-0.308-0.125-0.849,0.202-1.128,0.305c-0.375,0.138-0.703,0.155-1.099,0.155c-0.308,0.001-0.665,0.025-0.918-0.177
			c-0.094-0.075-0.155-0.187-0.265-0.243c-0.157-0.081-0.349-0.053-0.522-0.052c-0.37,0-0.408,0.044-0.675,0.31
			c-0.115,0.115-0.228,0.235-0.346,0.347c-0.125,0.119-0.465,0.267-0.526,0.404c0.377,0.251,1.091,0.174,1.515,0.174
			c0.288,0,0.882-0.16,1.049,0.152c0.178,0.332-0.082,0.849-0.206,1.166c-0.124,0.318-0.521,0.638-0.809,0.823
			c-0.356,0.231-0.913,0.111-1.297,0.01c-0.193-0.05-0.361-0.055-0.52-0.18c-0.179-0.142-0.284-0.382-0.39-0.584
			c-0.203-0.387-0.491-0.869-0.336-1.32c0.109-0.318,0.415-0.453,0.695-0.615c0.416-0.24,1.336-0.508,1.354-1.07
			c0.008-0.247,0.006-0.517-0.055-0.751c-0.068-0.262-0.174-0.458-0.169-0.746c-0.452-0.174-0.981,0.076-1.423,0.122
			c-0.408,0.042-0.782-0.233-1.164-0.338c-0.28-0.077-0.449,0.007-0.729,0.057C99.1,3.59,98.507,3.499,98.049,3.856
			c-0.346,0.27-0.898,0.95-1.363,0.865c-0.162-0.03-0.288-0.125-0.446-0.147c-0.314-0.044-0.596,0.138-0.855,0.289
			c-0.509,0.298-0.998,0.677-1.603,0.704c-0.458,0.02-0.914-0.135-1.331,0.093c-0.377,0.206-0.624,0.631-1.017,0.805
			c-0.268,0.119-0.705,0.157-1.002,0.2C90.049,6.72,89.367,6.916,89,6.759c-0.183-0.079-0.291-0.372-0.493-0.315
			c-0.129,0.036-0.299,0.284-0.386,0.379c-0.282,0.308-0.514,0.661-0.819,0.948C87.042,8.013,86.715,8.3,86.4,8.471
			c-0.231,0.126-0.455,0.089-0.707,0.124c-0.661,0.091-1.116,0.533-1.628,0.917c-0.366,0.274-0.577,0.634-0.865,0.951
			c-0.164,0.18-0.288,0.374-0.437,0.56c-0.103,0.127-0.214,0.325-0.314,0.459c-0.378,0.509-0.813,0.906-1.264,1.35
			c-0.423,0.417-1.021,0.937-1.561,1.185c-0.414,0.189-0.953,0.034-1.39,0.034c-0.682,0-1.481-0.014-2.102,0.314
			c-0.57,0.301-0.037,0.496,0.035,0.857c0.076,0.378-0.489,0.434-0.635,0.687c-0.14,0.242-0.145,0.979,0.053,1.183
			c0.217,0.224,0.742,0.033,0.934,0.262c0.103,0.123,0.064,0.552-0.044,0.664c-0.155,0.161-0.589,0.2-0.79,0.258
			c-0.277,0.08-0.629,0.143-0.848,0.345c-0.123,0.113-0.232,0.3-0.332,0.44c-0.178,0.249-0.141,0.286-0.407,0.226
			c-0.294-0.066-0.56-0.241-0.871-0.199c-0.341,0.046-0.676,0.224-1.011,0.295c-0.25,0.053-0.49,0.071-0.731,0.171
			c-0.181,0.076-0.379,0.39-0.067,0.462c0.135,0.031,0.245-0.218,0.409-0.125c0.034,0.019,0.106,0.191,0.125,0.232
			c0.058,0.126,0.121,0.277,0.163,0.419c0.094,0.312,0.12,0.651,0.248,0.951c-0.162,0.338-0.504,0.581-0.69,0.915
			c-0.216,0.39-0.229,0.709-0.258,1.149c-0.373,0.036-0.695-0.063-0.91,0.261c-0.336,0.504-1.054,0.586-1.558,0.899
			c-0.403,0.251-0.534,0.76-0.921,0.999c-0.363,0.224-0.883,0.356-1.288,0.48c-0.353,0.107-0.638,0.245-0.961,0.414
			c-0.232,0.121-0.608,0.15-0.663,0.409c-0.031,0.148,0.072,0.405,0.153,0.526c0.164,0.247,0.469,0.379,0.71,0.539
			c0.324,0.216,0.488,0.284,0.88,0.343c0.532,0.08,1.055,0.197,1.595,0.217c0.199,0.007,0.459,0.036,0.646-0.053
			c0.121-0.058,0.187-0.185,0.31-0.238c0.245,0.27,0.44,0.462,0.798,0.534c0.282,0.056,0.422,0.012,0.359,0.362
			c-0.088,0.483-0.418,0.931-0.536,1.407c-0.098,0.397,0.047,0.792,0.135,1.168c0.166,0.709-0.57,1.176-1.001,1.621
			c0.606,0.381,0.093,1.315-0.276,1.737c-0.29,0.332-0.505,0.488-0.233,0.873c0.184,0.261,0.486,0.653,0.583,0.94
			c0.251,0.746-0.389,1.433-0.759,2c-0.192,0.294-0.321,0.489-0.334,0.849c-0.014,0.381,0,0.766,0,1.148
			c0.002,0.631-0.12,1.076-0.699,1.375c-0.044,0.357,0.051,0.776-0.03,1.123c-0.06,0.258-0.422,0.543,0.102,0.551
			c0.047,1.298-0.003,2.642-0.003,3.947c0.308,0.282,0.612,0.549,0.951,0.806c0.188,0.143,0.383,0.291,0.552,0.448
			c0.138,0.129,0.322,0.463,0.509,0.466v3.904c0.253,0.343,0.625,0.634,0.63,1.099c0.006,0.479-0.083,0.623-0.52,0.72
			c-0.397,0.088-0.5,0.323-0.705,0.656c-0.084,0.136-0.25,0.298-0.288,0.458c-0.048,0.204,0.065,0.234,0.137,0.363
			c0.191,0.339-0.047,0.5-0.249,0.778v1.939c0.118,0.25,0.303,0.543,0.503,0.746c0.252,0.255,0.718,0.276,1.025,0.452
			c0.175,0.101,0.377,0.153,0.545,0.256c0.151,0.093,0.253,0.23,0.427,0.302c0.314,0.13,0.799,0.111,1.137,0.111
			c-0.441,0.389-0.766,0.91-1.048,1.424c-0.267,0.488-0.431,0.965-0.62,1.485c-0.154,0.424-0.467,0.721-0.758,1.042
			c-0.3,0.331-0.481,0.607-0.635,1.018c-0.074,0.198-0.179,0.377-0.243,0.582c-0.052,0.169-0.091,0.49-0.236,0.581v1.746
			c-0.245,0.183-0.526,0.341-0.793,0.492c-0.252,0.143-0.737,0.244-0.755,0.537c-0.018,0.31,0.279,0.806,0.386,1.101
			c0.109,0.3,0.284,0.608,0.338,0.925v1.842c0.276,0.212,1.099,0.736,0.63,1.092c-0.121,0.091-0.263,0.132-0.389,0.244
			c-0.102,0.09-0.193,0.193-0.296,0.282c-0.284,0.247-0.707,0.485-0.877,0.839c0.192,0.135,0.392,0.276,0.596,0.401
			c0.254,0.156,0.449,0.21,0.17,0.46c-0.154,0.139-0.518,0.193-0.607,0.394c-0.048,0.108,0.049,0.254,0.023,0.371
			c-0.085,0.374-0.588,0.206-0.8,0.44c-0.236,0.259,0.117,0.496,0.073,0.741c-0.296,0.067-0.807-0.122-1.016,0.102
			c-0.108,0.116-0.072,0.339-0.131,0.478c-0.105,0.249-0.404,0.518-0.611,0.691c-0.27,0.226-0.512,0.325-0.845,0.375
			c-0.319,0.048-0.374,0.132-0.525,0.413l-0.751,0.169l-0.679,1.018l-1.285,0.267l-0.436,0.678l-1.697,0.412l-0.388,2.57
			l-0.945,2.733l-1.673,1.109l-1.454-0.854l-1.309,2.582c0.331,0,0.518-0.09,0.838-0.147c0.34-0.06,0.694-0.017,1.03-0.079
			c0.395-0.072,0.74-0.255,1.056-0.497c0.255-0.194,0.553-0.426,0.866-0.505c0.614-0.156,1.27,0.213,1.878,0.098
			c0.392-0.074,0.632-0.535,1.019-0.653c0.532-0.162,1.362-0.201,1.904-0.077c0.215,0.05,0.422,0.158,0.628,0.24
			c0.164,0.065,0.328,0.097,0.495,0.15c0.095,0.03,0.247,0.14,0.333,0.145c0.267,0.015,0.283-0.43,0.418-0.606
			c0.106-0.138,0.532-0.406,0.638-0.154c-0.136,0.12-0.452,0.199-0.526,0.359c-0.04,0.088-0.012,0.344,0.008,0.442
			c0.04,0.197,0.072,0.319,0.071,0.533c-0.002,0.36-0.174,0.674-0.268,1.017c-0.085,0.308-0.136,0.612-0.162,0.928
			c-0.021,0.251,0.059,0.379,0.352,0.425c0.137,0.021,0.499,0.05,0.4,0.306c-0.058,0.152-0.503,0.314-0.634,0.387
			c-0.119,0.067-0.172,0.085-0.301,0.102c-0.533,0.071-1.089-0.133-1.618-0.095c0-0.127,0.137-0.234,0.129-0.354
			c-0.014-0.203-0.24-0.242-0.412-0.306c-0.258-0.095-1.117-0.431-1.385-0.164c0.167,0.34,0.659,0.305,0.899,0.507
			c-0.254,0.239-0.968,0.159-1.308,0.158c-0.485-0.001-0.967,0.023-1.442-0.094c0.234-0.17,1.077-0.228,0.422-0.543
			c-0.259-0.125-0.574-0.209-0.86-0.22c-0.266-0.01-0.804-0.022-1.034,0.082c0.136-0.102,0.433-0.276,0.442-0.455
			c0.007-0.133-0.232-0.38-0.367-0.404c-0.237-0.042-0.508,0.226-0.702,0.327c-0.339,0.176-0.555,0.258-0.945,0.277
			c-1.058,0.054-2.234,0.075-3.292,0.075c0.123,0.297,0.267,0.819,0.522,1.029l-0.782,2.945l0.588,1.939l-0.473,1.006l1.37,1.394
			l-0.533,0.557l0.691,0.909l-0.06,1.151l0.679,1.818l2.648,4.115l1.521,5.884l1.042,0.8l0.558-0.182l5.757,2.642l-0.788,0.533v0.4
			l4.812,5.915l0.703,8.484l16.108,11.006l10.702,48.409l4.891-2.442l2.073-0.346l1.818-1.382l1.436-2.309l1.309-0.927l3.26-4.909
			l1.842-4.751L112.241,173l0.46-1.115l-0.679-0.776l-0.024-1.721l-0.509-0.242l-0.848-2.206l-1.551-5.188l4-5.769l1.6-1.042h3.151
			l2.424-3.685l-0.557-0.969c0.082-0.391,0.488-0.99,0.779-1.274c0.431-0.421,1.072-0.185,1.597-0.084l1.697-0.727l1.43-2.254
			v-0.703l4.702-3.054l4.867-1.994l1.436-0.418l1.854-1.491l0.527,0.163l1.909-1l1.091-1.236v-1.806
			C141.587,134.203,141.416,133.985,141.299,133.823z"/>
		<path fill="#1E8346" d="M128.25,99.113c-0.475-0.459-0.983-0.889-1.483-1.318c-0.042,0.309-0.013,0.495-0.335,0.592
			c-0.42,0.126-0.768-0.023-1.123-0.193c-0.455-0.217-1.055-0.31-1.554-0.319c-0.199-0.003-0.819-0.107-1.089,0.171
			c0,0.701-0.032,1.381,0.024,2.077c0.035,0.427-0.094,0.554-0.279,0.886c-0.201,0.361-0.129,0.696,0.054,1.054
			c0.246,0.479,0.52,0.733,1.02,0.935c0.026-0.489,0.232-0.617,0.657-0.794c0.482-0.201,0.778,0.181,1.113,0.516
			c0.302,0.303,0.396,0.513,0.313,0.925c-0.097,0.475-0.133,0.862,0.254,1.22c0.19-0.426,0.192-0.842,0.521-1.217
			c0.319-0.363,0.67-0.71,0.92-1.145c0.226,0.121,0.519,0.479,0.68,0.695c0.387-0.39,0.209-0.812,0.322-1.264
			c0.083-0.33,0.414-0.355,0.649-0.542c0.208-0.164,0.499-0.491,0.558-0.759c0.061-0.277,0.001-0.601,0.034-0.886
			C128.968,99.67,128.637,99.487,128.25,99.113z"/>
		<path fill="#1E8346" d="M129.902,78.06c0.196-0.192,0.382-0.355,0.618-0.504c0.177-0.112,0.508-0.197,0.561-0.426
			c-0.155-0.01-0.362,0.004-0.511-0.051c-0.073-0.028-0.114-0.087-0.183-0.12c-0.133-0.062-0.34-0.026-0.48-0.026
			c-0.347,0-0.69,0.027-1.037,0.037c-0.24,0.007-0.474-0.037-0.835-0.013c-0.056,0.233-0.304,0.305-0.175,0.557
			c0.105,0.206,0.347,0.361,0.532,0.498c0.146,0.109,0.293,0.22,0.441,0.324c0.129,0.091,0.395,0.261,0.554,0.227
			c0.099-0.021,0.177-0.169,0.241-0.24C129.713,78.229,129.811,78.149,129.902,78.06z"/>
		<path fill="#1E8346" d="M131.283,76.254c0.02,0.17-0.274,0.467-0.021,0.638c0.1,0.068,0.363-0.009,0.467-0.044
			c0.118-0.039,0.213-0.125,0.324-0.179c0.215-0.104,0.442-0.17,0.652-0.282c0.484-0.257,0.956-0.544,1.453-0.774
			c0.252-0.117,0.91-0.333,0.808-0.693c-0.032-0.112-0.12-0.204-0.188-0.295c-0.109-0.147-0.178-0.272-0.336-0.361
			c-0.111-0.063-0.419-0.212-0.409-0.374c0.009-0.145,0.227-0.154,0.317-0.244c0.223-0.223,0.006-0.763-0.255-0.882
			c-0.236,0.281,0.025,0.815-0.269,1.029c-0.126,0.091-0.288,0.088-0.406,0.201c-0.12,0.116-0.197,0.291-0.257,0.444
			c-0.068,0.174-0.167,0.52-0.346,0.614c-0.132,0.069-0.253-0.058-0.37-0.117c-0.213-0.108-0.225-0.096-0.244,0.113
			c-0.016,0.174-0.051,0.378-0.156,0.522c-0.072,0.099-0.206,0.179-0.306,0.247c-0.055,0.038-0.12,0.064-0.176,0.1
			C131.409,76.014,131.356,76.077,131.283,76.254z"/>
	</g>
</g>
<g id="Icon">
</g>
</svg>
