<?xml version="1.0" encoding="utf-8"?>
<!-- Generator: Adobe Illustrator 26.0.3, SVG Export Plug-In . SVG Version: 6.00 Build 0)  -->
<svg version="1.1" id="Isolation_Mode" xmlns="http://www.w3.org/2000/svg" xmlns:xlink="http://www.w3.org/1999/xlink" x="0px"
	 y="0px" viewBox="0 0 200 200" enable-background="new 0 0 200 200" xml:space="preserve">
<path fill="#1E8346" d="M193.164,168.891c0.479-0.38,0.071-0.984-0.396-1.156c-0.174,0.25,0.104,0.479-0.02,0.744
	c-1.46,0.358-1.378-1.201-2.382-1.586c-0.408,0.146-0.837,0.128-1.245-0.04c-0.494-0.024-0.947,0.344-1.004-0.348
	c0.426-1.436-1.213-1.481-2.17-1.909c-1.068-0.277-1.012-1.612-2.038-1.955c-0.448-0.085-0.807-0.211-1.045-0.571
	c-0.546-0.363-1.257-0.036-1.867-0.029c-0.225-1.078,1.094-0.523,1.142-1.34c-0.048-1.722-1.329-2.005-0.648-3.906
	c-0.651-1.45-0.959-4.544-2.885-4.566c-0.076-0.399,0.219-0.191,0.396-0.296c0.184-0.108,0.505-0.398,0.622-0.581
	c0.254-1.941,0.125-4.593-1.322-6.101c0.239,0.628-0.856,1.934-1.093,0.967c-0.099-0.782-0.483-2.314,0.08-2.885
	c0.294,0.164,0.742,0.229,1.099,0.088c0.646-0.206,0.139-0.162-0.241-0.217c-1.608-0.644-1.644-2.888-3.294-3.578
	c0.075-1.241,0.242-2.629-0.844-3.483c-0.544-0.572-0.232-1.45-0.374-2.158c-0.064-0.315-0.458-0.892-0.301-1.222
	c0.547-0.56,1.721-0.18,1.301-1.428c-0.063-0.901,1.057-1.902,1.266-2.706c0.267-1.023-0.119-1.91,0.132-2.913
	c0.195-0.659,0.235-1.427-0.307-1.937c-1.057-0.143-0.962-0.005-1.44-1.042c-0.768-0.241-0.156-1.046-0.733-1.506
	c-0.604-2.873,1.535-5.699,2.783-8.093c0.43-0.238,0.862-0.416,1.157-0.858c0.423-0.366,0.626-0.145,0.588-0.842
	c0.176-1.476-0.665-2.983-1.74-3.886c-1.194-0.428-2.523-0.589-2.893-1.9c-0.246-0.522-0.281-0.193-0.612-0.478
	c-0.247-0.432-0.575-1.258-0.719-1.684c-0.942-0.707-1.362-2.016-2.609-2.394c-0.469-0.023-0.729-0.323-1.026-0.626
	c-1.09-0.28-2.198-0.879-2.433-2.118c-0.199-1.297,0.027-2.68-0.709-3.892c-1.29-0.835,0.198-3.992,0.353-5.343
	c0.463-0.74,1.089-1.39,1.129-2.293c0.329-1.535,1.792-2.711,1.489-4.373c0.892-0.431,1.47-2.315,1.523-3.22
	c0.258-0.241,0.013-0.498,0.184-0.742c0.301-0.245,0.361-0.585,0.425-0.957c0.675-0.615,0.15-0.81-0.304-1.342
	c-0.36-0.619,0.9-0.498,1.003-0.998c-0.04-0.49-0.534-0.834-0.305-1.381c0.112-0.427,0.31-1.244,0.525-0.379
	c0.881,0.714,1.17-1.287,0.74-1.807c-0.11-0.2-0.588-0.583-0.191-0.779c0.561-0.183,0.104-1.138,0.205-1.593L147.47,51.958
	c0.073-1.82-1.353-3.231-3.176-2.793c0.039-0.59,0.754-1.039-0.275-1.023c-0.233-0.137,0.182-0.653,0.304-0.804
	c2.815-2.125,1.624-3.098,1.183-6.114c-18.47-11.034-43.346-24.577-62.052-35.215c-0.344,0.722-1.35,1.129-1.879,1.593
	c0.167,0.541,0.206,0.776-0.404,1.106c-0.612,0.245-1.621,0.387-1.614,1.251c0.165,0.716,1.813,0.26,1.663,1.319
	c-1.035,0-1.791-0.368-2.771,0.209c0.052,0.254,0.263,0.557,0.163,0.792c-0.095,0.225-0.536,0.417-0.26,0.722
	c0.588,0.408,2.276,0.742,2.231,1.622c-0.762,0.08-1.849,0.018-2.357-0.648c-0.409-0.219-0.842,0.122-1.302-0.027
	c-0.791,0-0.113,0.378-0.338,0.831c-0.756,0.449-0.66,0.897-0.07,1.494c0.987,1.669-2.188,0.364-2.337,1.404
	c0.087,0.691,1.335,0.461,1.521,1.084c-0.822-0.006-1.45,0.264-1.857,0.991c-1.936,1.356-2.309-3.056-4.025,2.03
	c1.119,0.092,2.737-1.579,3.233,0.25c0.634,0.202,1.081,0.328,1.013,0.964c-0.07,0.664-1.487-0.32-1.749-0.389
	c-1.001-0.279-1.312,0.151-0.903,1.057c-0.581,0.204-1.355-0.545-1.845-0.069c0.061,0.146,0.172,0.291,0.162,0.453
	c-0.888-0.811-2.198,0.77-0.791,0.838c0.907-0.127,1.561,0.27,2.135,0.878c0.832,0.093,1.74-0.096,2.587,0.031
	c1.763,0.822,2.681-1.376,4.243-1.703c1.217,0.347,1.264,1.842,1.099,2.888c-0.529,0.51-1.538,1.015-2.284,0.945
	c-0.84,0.843-2.05,1.047-2.954,1.693c-0.184,0.338-0.004,0.187,0.108,0.413c0.412,1.076-1.408,0.314-1.732,1.112
	c0.307,0.155,0.495,0.447,0.536,0.787c-1.013,0.126-2.495,0.688-3.294-0.188c-0.887,0.465-1.685-0.324-2.356-0.748
	c-0.066-0.475,0.105-1.098-0.358-1.469c-1.289-0.508-4.244,0.294-3.833,2.114c0.842,1.495-0.798,1.359-0.481,2.126
	c1.415,0.856-0.094,0.834,0.481,1.697c0.32,0.613,1.233,0.628,0.901,1.458c0.038,0.244,0.669,0.855,0.04,0.851
	c-1.411-0.913-1.715-0.298-2.141,1.113c-0.531,1.596-1.354,0.925-0.657-0.437c-0.045-0.355-0.425-0.489-0.187-0.769
	c1.568-0.466,2.045-1.752,0.734-2.874c-0.03-0.261-0.017-0.467-0.204-0.665c-0.028-0.265,0.373-0.713,0.446-0.981
	c0.033-0.512,0.126-2.158-0.706-1.725c-1.205,1.348-0.712-0.355-2.036,0.083c-0.025-0.209,0.308-0.373,0.351-0.592
	c0.024-0.632-0.85-1.355-1.177-0.448c-0.312,0.742-0.853,1.639-1.739,1.721c-0.832-0.096,0.28-1.075-0.275-1.327
	c-0.417,0.473-1.4,0.077-1.711-0.338c-0.389-0.083-0.758-0.031-0.902-0.49c-0.345-0.089-0.4-0.403-0.493-0.755
	c-0.135-0.279-0.017-0.458,0.165-0.652c0.014-0.323-0.341-0.169-0.416-0.475c-0.082-0.196,0.112-0.449-0.013-0.669
	c-0.413,0.156-0.891,0.067-1.296,0.008c-0.291,0.104-0.119,0.558-0.278,0.78c-0.394,0.198-0.596,0.487-0.77,0.869
	c-0.492,1.006-1.678-0.385-2.305,0.464c-0.228,0.387,0.05,0.428,0.336,0.672c0.355,0.557,0.769,0.791,1.391,0.917
	c0.647,0.42-0.082,1.116-0.608,0.913c-0.255-0.253-0.349-0.467-0.748-0.361c-0.516-0.056-1.004-0.798-1.43-0.061
	c-0.01,1.191,0.538,1.119-0.781,1.619c0.16,0.39,2.314,3.331,0.909,2.952c-0.367-0.115-0.417-0.238-0.457-0.587
	c-0.046-0.408-0.458-0.533-0.561-0.856c0.143-0.541-0.187-0.89-0.58-0.388c0.235,0.443-0.131,1.293-0.706,0.824
	c-0.13-0.108-0.175-0.47-0.408-0.453c-0.8,0.643,0.527,2.139-0.919,2.596c-0.02-0.875-0.47-1.659-0.387-2.55
	c0.006-0.647,0.819-0.819,0.944-1.311c-0.086-0.313-0.856,0.328-1.105,0.339c-0.232-0.361-0.106-0.817-0.219-1.21
	c-0.401-0.498-0.233-0.844,0.342-1.002c0.344-0.178,0.422-0.214,0.385-0.599c0.057-0.572-0.276-0.819-0.482-1.285
	c-0.054-0.383,0.101-1.535-0.464-1.17c-2.599,1.999-1.125-1.348-0.777-2.59c-0.184-0.672,0.269-2.471-0.146-2.877
	c-0.126,0.28-0.685,0.954-1.055,0.743c-0.751-0.856,0.742-1.832,1.068-2.555c0.817-1.34,0.25-3.041,0.887-4.465
	c0.738-0.922,0.125-2.139,0.53-3.18c0.292,0.124,0.416,0.186,0.715-0.004c-0.054-2.16,2.342-4.778,0.871-6.63
	c0.307-0.724,0.483-1.277-0.636-1.071c0.124,0.433-0.494,0.628-0.829,0.477c-0.427-0.206,0.134-0.632,0.102-0.946
	C43.37,5.599,26.5,5.513,26.472,5.543c-1.116-0.76-2.03,1.114-3.115,1.193c-0.762,0.258-2.88-0.81-2.872,0.389
	c0.417,0.324,0.108,0.917,0.54,1.263c0.34,0.291,0.833,0.301,0.938,0.798c0.004,0.838,0.28,1.72,0.582,2.516
	c0.568,0.719,1.861,0.104,2.327,0.998c0.941,1.002,0.537,2.524,1.73,3.465c1.525,2.309-1.543,6.324,1.528,8.056
	c-0.646,1.316-0.764,2.652-0.887,4.057c-0.313,0.483-1.096,1.151-1.688,1.121c-0.172-0.046-0.573-0.428-0.715-0.384
	c-0.462,1.007-1.514,1.032-2.541,1.091c-1.182,0.47-1.196,2.58-1.966,3.628c-0.59,0.555,0.05,1.418,0.718,0.837
	c1.266-0.748,0.364,0.62-0.203,0.851c-1.4,1.02-1.118,3.186,0.401,3.971c0.416-0.383,0.844-0.692,1.293-1.043
	c0.589,0.494,0.969,1.332,1.691,1.674c0.117-0.124,0.26-0.249,0.409-0.328c0.425,0.832,1.728-0.071,2.385,0.19
	c-0.325,1.255-1.052,0.686,0.007,1.904c-0.309,0.55,0.032,0.911,0.165,1.459c0.048,0.581-0.647,0.619-0.26,1.135
	c0,0.307-0.804,0.618-1.059,0.64c-0.329,0.019-0.368-0.476-0.747-0.113c-0.067,0.942-1.055,0.474-1.449,1.133
	c-0.42,0.644,1.15,0.737,0.491,1.421c-0.614,0.949-1.877,0.989-2.59,1.864c-0.482,0.208-1.191,0.373-1.193,1.056
	c0.062,0.724-0.675,0.97-0.897,1.591c-0.211,0.519,0.235,0.971,0.11,1.457c-0.204,0.889-1.134,0.034-1.482,0.702
	c-0.247,0.347-0.289,0.935-0.647,1.195c-0.367,0.077-0.527,0.311-0.654,0.647c-0.657,0.74-0.344,1.763-0.938,2.497
	c-0.156,0.205-0.225,0.523-0.088,0.773c-0.755,0.925-2.396,1.085-2.158,2.605c-0.022,0.227-0.044,0.469-0.23,0.599
	c-0.421,0.275-1.114,0.051-1.448,0.483c-0.144,0.179-0.146,0.403-0.378,0.513c-0.873,0.007-0.819,1.037-1.875,0.547
	c-0.468-0.069-0.376,0.141-0.656,0.411C8.79,64.658,8.523,64.532,8.68,64.96c0.141,0.385,0.259,0.596-0.347,0.564
	c-1.66-0.401-1.837,0.156-1.878,1.696c-0.441,1.174-0.422,2.437-0.958,3.575c-0.596,1.692,0.618,3.084,2.138,3.665
	c2.651,2.143,1.325,5.801,0.653,8.516c0.407,0.803,1.561,1.163,1.768,2.137c0.065,0.271-0.01,0.746,0.298,0.895
	c2.864,4.225,1.273,4.78-2.267,7.065c-0.252,0.682,0.195,1.62,0.028,2.366c-0.258,0.706-0.215,1.35,0.291,1.952
	c0.651,0.949,1.159,2.063,2.138,2.71c0.518,0.3,0.974,0.373,1.035,1.007c2.65-1.744,3.557-0.61,5.349,1.426
	c1.158,0.814,2.441,1.644,2.644,3.203c-0.011,0.443,0.111,0.984,0.668,0.962c0.26,1.177,1.528,1.655,2.098,2.585
	c-0.205,0.821,0.099,2.343-0.892,2.622c-0.058,0.209,0.158,0.394,0.252,0.574c0.236,0.451,0.057,0.964,0.334,1.426
	c0.333,0.613,0.889,0.953,0.976,1.69c0.186,0.428,0.105,0.523-0.067,0.933c-0.074,0.703,0.09,1.285-0.166,1.991
	c0.286,2.181,2.863,2.998,3.085,5.221c0.24,1.051,1.073,1.639,1.183,2.486c0.312,0.496,1.083,0.896,1.195,1.623
	c0.129,0.413,0.018,0.876,0.371,1.17c0.332,0.275,1.003,0.515,0.799,1.093c-0.407,0.387-0.115,0.845,0.08,1.293
	c0.054,0.219,0.013,0.518,0.275,0.582c0.625,0.474,0.918,1.263,1.614,1.646c0.418,0.239,1.372,0.894,1.052,1.468
	c-0.583,0.543-0.044,1.048,0.386,1.455c0.28,0.363,0.14,0.822,0.343,1.192c0.794-0.709,1.061,0.057,1.556,0.524
	c0.628,0.09,1.956-1.193,1.969,0.003c0.837-0.204,1.233,0.522,1.792,0.94c0.393,0.197,1.346,0.101,1.504,0.672v2.036
	c1.197,0.512,2.353,2.399,3.579,0.917l2.618,0.829c-0.319,3.077,1.183,1.918,3.193,1.977c0.786-0.092,1.445,0.185,1.765,0.913
	c0.9,1.021,2.944-0.184,4.071,0.396c0.877,0.452,0.415,1.574,1.175,2.16c1.554,0.744,3.754-0.165,4.9,1.521
	c1.187,1.089,2.773,0.61,4.082,1.291c0.652,0.516,1.557,1.379,2.402,1.488c2.244-0.34,3.197,0.077,4.578,1.786
	c0.066,0.263,0.19,0.571,0.437,0.702c0.876-0.623,1.836-1.01,2.819-0.587c0.893,0.385,1.459-0.491,2.323-0.185
	c1.121,0.07,2.08,3.021,2.993,1.797c0.818-0.961-0.099-2.139,0.667-2.995c1.049-0.841,1.58,0.169,2.171,0.835
	c5.44,4.22,9.039,10.372,7.938,17.232c1.722,1.72,2.134,4.364,1.856,6.727c-0.478,0.892-0.949,1.885-0.701,2.968
	c0.489,1.357,2.303,1.732,2.402,3.418c1.651,2.39,2.905,0.093,3.294,4.868c1.076,0.067,7.386-0.197,7.997,0.279
	c0.626,0.056,0.894-0.287,1.581-0.131c0.472-0.217,1.05-0.496,1.643-0.341c1.221,0.627,1.501-1.788,2.721-1.529
	c0.592-0.21,0.858-1.25,1.584-0.915c0.681,0.465,1.597-0.088,1.884,0.824c0.633-0.349,1.231,0.448,1.519,0.933
	c0.326,0.533,0.411-0.005,0.857-0.043c0.439,0.12,0.379,0.986,1.073,0.887c1.139,0.7,0.188,1.176,0.465,2.041
	c0.245,0.687,1.011,0.157,1.469,0.414c0.125,0.568,1.096,0.382,1.398,0.029c0.233-0.288,0.193-0.454,0.612-0.443
	c0.262,0.008,2.461-0.076,2.079,0.609c-0.127,0.228-0.554,0.445-0.169,0.639c0.705,0.172,0.876-1.355,1.717-0.779
	c0.784,0.655,1.889-0.464,2.627-0.849c0.641-0.416,0.575-1.402,1.056-1.866c1.496,1.828,2.371-0.058,3.792,0.775
	c1.355,0.565,2.976,1.265,4.406,0.639c0.325,0.041,0.543,0.646,0.832,0.781c0.709,0.04,1.758,0.189,1.923-0.719
	c1.38-0.704,3.122-0.212,4.436-1.224c0.659-0.418,1.581-0.654,1.318-1.607c0.645-1.395,0.674-3.38,2.516-3.772
	c0.627-0.213,1.246-0.154,1.817,0.161c1.103,0.045,2.298-0.369,3.403,0.085c0.772,0.116,0.827,0.919,1.548,0.983
	c0.823,0.488,1.793,1.503,2.875,1.375c1.418-1.244,2.934-2.462,4.823-2.677c2.323-1.832,5.646-2.321,8.471-1.571
	c3.69-3.084,8.409-4.652,12.801-6.312c1.85-1.236,3.261-3.138,5.15-4.349h1.091l1.396-1.702
	C193.294,169.979,192.885,169.503,193.164,168.891z"/>
<path fill="#1E8346" d="M180.443,82.504c0.727-0.937,0.632,1.019,1.375-0.35c1.304-1.606,1.381-3.788,1.662-5.791
	c-0.024-0.186-0.065-0.427-0.252-0.211c-0.108,0.466,0.081,1.051-0.408,1.393c-0.146-0.596-0.115-1.924,0.422-2.36
	c0.071,0.061,0.163,0.11,0.257,0.138c0.137-0.276,0.413-2.786-0.078-1.786c-0.04,0.408,0.024,0.577-0.464,0.578
	c-0.065,0.154-0.145,0.324-0.213,0.48c-0.249-0.663-0.766-0.931-1.389-1.183c-0.896-0.906-1.305-0.452-1.133,0.697
	c0.331,0.622,0.283,1.238,0.646,1.793c0.212,0.333,0.239,0.3-0.032,0.566c-0.908,0.888,0.322,0.553,0.558,1.168
	c0.181,0.835-0.256,0.916-0.899,0.965c0.111,0.34,0.501,0.648,0.86,0.669c0.01,0.036,0.002,0.068-0.024,0.096
	c-0.546-0.28-0.746,0.315-1.108,0.533c-0.288,0.314,0.114,0.385-0.032,0.673c-0.141,0.278-0.371-0.026-0.465,0.319
	c-0.039,0.144,0.029,0.309-0.046,0.45C178.917,81.887,179.63,82.852,180.443,82.504z"/>
<path fill="#1E8346" d="M172.118,89.252c0.008,0.654-0.395,1.161-0.572,1.74c0.205,1.255,0.832,2.435,0.358,3.749
	c-0.002,1.027-0.87,2.378,0.402,3.082c0.732,0.264-0.146-0.769-0.146-0.94c0.182-0.788,0.951,0.278,0.983,0.675
	c0.05,0.686,0.117,2.505,1.272,2.127c-0.808-0.904-1.809-4.929,0.226-2.157c0.304,0.404,0.228,0.741,0.328,1.192
	c0.119,0.535,0.605,0.544,0.987,0.854c0.379,0.307,0.648,0.916,1.098,1.109c2.028-0.089,1.917-2.711,0.883-3.969
	c-0.604-0.764,0.02-1.931-0.603-2.58c-0.591-0.2-1.068-0.136-1.184-0.885c-0.363-0.879-1.204-1.512-1.432-2.448
	c0.068-1.285-0.224-5.025-1.613-2.144c-0.024,0.641,0.039,1.691-0.84,1.822c0-0.543,0.609-0.729,0.595-1.255
	C172.848,88.28,172.011,88.254,172.118,89.252z"/>
<path fill="#1E8346" d="M179.178,126.912c0.597,0.219,2.45,0.525,2.219-0.554c0.194-0.245,0.379-0.632,0.701-0.735
	c0.362-0.117,0.63,0.289,0.947-0.076c0.833-1.306,1.246-2.872,1.061-4.412c-0.707,0.606-0.85,1.73-1.86,2.026
	c-0.333,0.14-0.23,0.361-0.137,0.606c-0.356,0.704-1.403,0.177-1.777,0.713c-0.117,0.336,0.192,0.752-0.107,1.049
	C179.872,125.832,178.445,126.345,179.178,126.912z"/>
<path fill="#1E8346" d="M181.793,126.845c-0.54,1.688,0.791,0.413,1.009-0.251C182.484,126.568,182.023,126.573,181.793,126.845z"/>
<path fill="#1E8346" d="M177.479,126.01c-0.26,0.696,0.843,1.292,0.543,0.101C177.849,126.061,177.658,125.785,177.479,126.01z"/>
<path fill="#1E8346" d="M180.491,120.47c-0.675-0.521-0.295,0.405,0.121,0.403C180.893,120.786,180.673,120.51,180.491,120.47z"/>
<path fill="#1E8346" d="M178.35,132.199c0.288,0.28,1.053,0.017,0.747-0.395C178.845,131.665,178.063,131.811,178.35,132.199z"/>
<path fill="#1E8346" d="M70.567,18.109c0.612,0.476,0.355-0.124,0.102-0.406C70.278,17.621,70.204,18.004,70.567,18.109z"/>
<path fill="#1E8346" d="M64.946,20.809c0.365,0.307,0.752-0.071,0.97-0.368c0.111-0.124,0.488-0.132,0.382-0.386
	c-0.155-0.188-0.162-0.32-0.063-0.531c-0.178-0.272-0.242-0.347-0.514-0.124C65.05,18.44,64.236,20.493,64.946,20.809z"/>
<path fill="#1E8346" d="M62.423,22.685c-1.454,1.441,0.221,1.327,1.345,1.68c0.671,0.092,1.209,0.463,1.817,0.67
	c0.572-0.164,0.886,0.115,1.204,0.577c0.347,0.44,1.111-0.66,0.742-0.926c-0.879-0.275-1.318-1.652-1.06-2.503
	c-0.612,0.046-1.165,0.013-1.691,0.322c-0.564-0.087-1.376-0.501-1.389-1.165c-0.02-0.298-0.064-0.431-0.391-0.322
	c-0.244,0.081-0.203,0.362-0.414,0.497c-0.136,0.087-0.64,0.128-0.682,0.331C62.009,22.118,63.058,22.23,62.423,22.685z"/>
<path fill="#1E8346" d="M54.586,28.919c0.479,0.151,0.101,0.495,0.101,0.8c0.045,0.695,0.35,0.551,0.769,0.234
	c0.336-0.132,1.008-0.222,0.866-0.731c-0.058-0.185-0.092-0.216,0.023-0.369c0.164-0.319,0.494-1.008,0.187-1.314
	c-0.46-0.11-0.607,0.387-0.475,0.715c0.039,0.029-0.617,0.405-0.665,0.335c-0.104-0.119-0.328-0.357-0.258-0.525
	c0.041-0.067,0.167-0.152,0.076-0.246C54.771,27.615,53.815,28.817,54.586,28.919z"/>
<path fill="#1E8346" d="M46.314,28.067c0.445-0.112,1.005,0.428,0.265,0.426c-0.554,0.29,0.184,0.476,0.362,0.681
	c0.782,0.216,1.776-0.907,1.404-1.593c-0.204,0.009-0.435,0.041-0.368-0.257c0.225-1.466-1.139,0.241-1.702,0.362
	C46.142,27.926,46.136,28.04,46.314,28.067z"/>
<path fill="#1E8346" d="M45.387,28.929c0.334-0.501-0.33-0.464-0.484-0.806c-0.215-0.423-0.113-0.935-0.237-1.363
	c-0.41-0.18-0.311-0.176-0.464-0.559c-0.324,0.039-0.663,0.382-0.848,0.632c-0.129,0.356,0.628,0.435,0.353,0.72
	c-0.608,0.347-0.381,1.213,0.321,0.885c0.114,0.057,0.055,0.147,0.009,0.223c-0.345,0.408,0.304,0.514,0.434,0.827
	c-0.423,2.056,1.034,1.721,1.429,0.206C45.856,29.346,45.253,29.325,45.387,28.929z"/>
<path fill="#1E8346" d="M43.712,25.446c0.123-0.411-0.373-0.505-0.486-0.814C42.603,24.491,43.266,26.138,43.712,25.446z"/>
<path fill="#1E8346" d="M44.974,16.119c-0.072,0.019-0.078,0.061-0.133,0.1c0.16,0.325,0.378,0.73,0.046,1.018
	C44.238,19.493,46.662,15.897,44.974,16.119z"/>
</svg>
