<?xml version="1.0" encoding="utf-8"?>
<!-- Generator: Adobe Illustrator 26.0.3, SVG Export Plug-In . SVG Version: 6.00 Build 0)  -->
<svg version="1.1" xmlns="http://www.w3.org/2000/svg" xmlns:xlink="http://www.w3.org/1999/xlink" x="0px" y="0px"
	 viewBox="0 0 200 200" enable-background="new 0 0 200 200" xml:space="preserve">
<g id="Layer_1">
	<g id="Layer_1_00000075879624959596184900000007102216081240906125_">
		<g id="Layer_1_00000107551159852787612550000017757744099325915571_">
			<g id="Layer_1_00000128480095285341338950000008464522443776971395_">
			</g>
		</g>
	</g>
</g>
<g id="Isolation_Mode">
	<g>
		<path fill="#1E8346" d="M189.523,81.211l-2.51-14.703l1.537-1.588c-0.151-0.682-0.677-1.437-0.997-2.031
			c-0.327-0.608-0.657-1.405-1.06-1.968c-0.326,0.191-0.531,0.568-0.85,0.777c-0.889-0.731-1.499-1.645-2.207-2.548
			c-0.268-0.342-0.758-0.719-0.902-1.13c-0.181-0.517,0.076-1.136,0.138-1.651c0.116-0.968,0.194-2.142-0.5-2.906
			c-0.616-0.678-1.884-1.019-2.227-1.905c-0.452,0.418-0.784,0.397-1.436,0.4c-0.282-0.239-0.257-0.774-0.422-1.098
			c-0.201-0.399-0.459-0.556-0.835-0.772c-0.45-0.259-0.712-0.312-0.872-0.836c-0.151-0.493-0.204-1.087-0.278-1.594
			c-0.159-1.08-0.116-2.289-0.484-3.33c-0.122-0.346-0.385-0.951-0.721-1.154c-0.274-0.165-0.738-0.041-1.064-0.156
			c-0.532-0.186-0.636-0.466-0.961-0.869c-0.473-0.588-0.944-0.596-1.15-1.417c-0.227-0.904-0.033-1.819-0.23-2.708
			c-0.265-1.192-2.94-4.049-0.927-4.901c0.114-0.828-0.886-1.344-1.021-2.11c2.579-0.052,2.055-3.006,2.225-4.843
			c0.049-0.53,0.151-0.959-0.241-1.302c-0.353-0.31-0.878-0.449-1.262-0.75c-0.3-0.235-0.565-0.456-0.822-0.744
			c-0.39-0.436-0.264-0.396-0.785-0.463c-0.955-0.122-1.494,0.81-1.933,1.555c0-0.446,0.066-1.296-0.175-1.692
			c-0.183-0.302-0.624-0.604-0.882-0.871c-0.427-0.44-0.583-0.627-1.221-0.534c-0.518,0.076-1.198,0.393-1.718,0.278
			c-0.096-0.301,0.149-0.561,0.109-0.886c-0.563-0.024-1.167-0.147-0.548-0.812c0.447-0.48,1.182-0.197,1.784-0.355
			c-0.079-0.478-0.394-1.023-0.368-1.499l-4.047,0.615l-0.102-0.82l1.23-0.512l0.41-2.151l-2.408-1.435v-0.717l1.025-0.461
			l0.051-0.871l-1.588-1.691l0.563-0.922l-2.459-2.408l-15.83,15.522l-10.809-0.82l-5.43-3.945l-4.15,2.511l-5.635,1.588
			l-10.4,0.973l-7.479,4.764l0.769,1.332l-0.308,1.895l-3.996-0.973l-1.332-1.947l-3.228,0.051l-0.512-3.483l-2.049-3.023
			l-2.357-1.844v1.332l-2.305,1.434l-0.666,1.281l-5.43,2.151l-8.453-4.61l-4.405-0.051l-4.611,3.176l-1.537-0.051l-3.842,6.865
			c0.621,0.999,1.81,0.03,2.561-0.359v3.484c-0.364,0.955-1.542,1.452-1.946,2.424c-0.147,0.354-0.207,0.673-0.255,1.042
			c-0.071,0.542-0.082,0.535-0.586,0.756c-0.404,0.177-0.577,0.157-0.646,0.578c-0.041,0.247,0.068,0.562,0.206,0.733l-1.537,5.789
			l-0.922,0.358l0.973,1.332h1.025l1.947,4.406l-0.205,2.254l-0.615,1.332L51.1,55.648l0.205,0.871l-1.639,3.842l-1.127,0.717
			l0.256,5.635l1.024-0.769l1.742,0.512l1.434,2.664l1.947,0.256c0-0.351,0.184-0.72,0.217-1.063
			c0.064-0.658-0.107-0.867,0.653-1.039c0.922-0.209,1.774,0.631,2.522,1.142c0.475,0.325,1.556,0.755,1.373,1.512
			c-0.12,0.493-0.806,0.283-0.278,0.758c0.267,0.24,0.705,0.345,1.022,0.485c0.468,0.205,0.682,0.368,1.177,0.2
			c0.739-0.25,1.607-0.943,2.432-0.802c0.04,0.848-0.707,1.955-0.294,2.769c0.42,0.828,1.569,0.837,2.14,1.419
			c0.146-0.741,0.969-1.455,1.374-2.116c0.424-0.693,0.748-1.513,1.344-2.087c1.218-1.173,3.479-1.005,4.149-2.755
			c-0.013,0.691,0.023,1.101-0.509,1.572c-0.438,0.388-0.909,0.822-1.383,1.17c-0.475,0.349-1.623,0.836-1.462,1.569
			c0.017,0.074,0.214,0.243,0.215,0.246c0.052,0.437-0.104,0.178-0.244,0.402c-0.14,0.223-0.228,0.167-0.208,0.61
			c0.021,0.483,0.002,1.01,0.087,1.487c0.069,0.387,0.264,0.675,0.379,1.036c0.129,0.406,0.099,0.812,0.149,1.242
			c0.106,0.901,0.593,1.685,0.721,2.579c0.131,0.92,0.152,1.899,0.152,2.827c0,1.161-0.538,1.781-1.182,2.74
			c-0.521,0.775-0.862,1.274-1.841,1.312c0,0.582,0.203,1.754-0.036,2.27c-0.077,0.167-0.422,0.485-0.549,0.7
			c-0.189,0.319-0.384,0.543-0.643,0.773c-0.874,0.774-1.897,1.354-2.767,2.146c-0.403,0.366-0.821,0.691-1.241,1.039
			c-0.253,0.21-0.769,0.85-1.067,0.927c-0.271,0.07-0.578-0.134-0.864-0.172c-0.649-0.088-1.431,0.12-1.958,0.516
			c-0.692,0.519-1.096,1.297-2.024,1.382c-0.618,0.056-1.502-0.128-1.945,0.47c-0.291,0.393-0.177,1.001-0.227,1.487
			c-0.094,0.928-0.815,1.8-1.514,2.401c-0.468,0.403-0.917,0.785-1.245,1.318c-0.192,0.311-0.301,0.662-0.551,0.959
			c-0.256,0.304-0.628,0.483-0.939,0.733c-0.352,0.282-0.897,0.644-1.161,0.999c-0.367,0.494-0.323,0.746-0.892,1.059
			c-0.231,0.757-0.15,1.552-0.614,2.198c-0.598,0.833-1.212,1.521-1.999,2.165c-0.524,0.428-0.859,1.045-1.123,1.652
			c-0.26,0.6-0.378,0.7-1.083,0.695c-0.31-0.002-0.623-0.013-0.932-0.002c-0.47,0.017-1.032,0.265-1.482,0.209
			c-0.415-0.051-0.772-0.493-0.72-0.952c0.052-0.462,0.625-0.751,0.634-1.224c0.008-0.37-0.317-0.809-0.48-1.121
			c-0.215-0.411-0.376-0.931-0.642-1.307c-0.221-0.313-0.643-0.454-0.791-0.829c-0.5,0.228-1.318,0.399-1.871,0.405
			c-0.587,0.005-1.068-0.677-1.504-0.183c-0.379,0.431-0.306,1.322-0.888,1.624c-0.508,0.264-1.018-0.257-1.214-0.73
			c-0.602,0.502-1.607,0.977-2.032,1.63c-0.498,0.763-0.513,1.658-0.158,2.452c0.384,0.858,0.991,2.107-0.255,2.514
			c-0.416,0.136-0.422,0.096-0.728,0.383c-0.326,0.306-0.587,0.498-0.761,0.91c-0.145,0.343-0.191,0.713-0.411,1.032
			c-0.437,0.634-0.563,0.463-1.139,0.369c-1.244-0.202-2.423,0.796-3.524,1.276c-0.906,0.396-1.673,1.098-1.741,2.184
			c-0.049,0.792,0.383,1.469,0.218,2.315c-0.217,1.115-0.815,1.853-0.588,3.024c0.248,1.278,0.358,2.578,0.623,3.848l-3.33,4.047
			l-1.895,7.377h-1.281l-1.383,1.434l-0.564,1.844c-0.041,0.895,0.149,1.651,0.523,2.445c0.18,0.382,0.402,0.692,0.265,1.137
			c-0.112,0.363-0.434,0.706-0.51,1.07c0.75,0.035,1.194-0.127,1.518,0.572c0.167,0.36,0.165,0.795,0.381,1.12
			c0.163,0.245,0.499,0.396,0.716,0.581c0.299,0.255,0.533,0.582,0.795,0.86c0.786-0.093,0.766-0.604,1.299-0.959
			c0.449-0.299,1.309-0.4,1.221,0.358c-0.033,0.287-0.345,0.511-0.471,0.758c-0.146,0.288-0.17,0.467-0.214,0.792
			c-0.127,0.928-0.297,1.855-0.387,2.787c-0.109,1.121-0.262,1.506-1.101,2.302c-0.579,0.55-1.046,1.323-1.784,1.67
			c-1.464,0.686-2.917,1.439-4.411,2.041c0.071,0.249,0.348,0.288,0.52,0.482c0.293,0.33,0.273,0.579,0.259,1.014
			c-0.014,0.452-0.27,0.975-0.252,1.392c0.016,0.358,0.196,0.333,0.114,0.635c-0.109,0.404-0.722,0.652-0.844,1.122
			c-0.113,0.434,0.05,0.915,0.008,1.365c-0.081,0.852-0.908,1.694-0.82,2.534l0.512,6.096H9.963c0.002,0.564-0.049,0.94,0.174,1.46
			c0.192,0.449,0.398,0.808,0.226,1.303c-0.119,0.004-0.282,0.031-0.4,0.003l-0.461,6.916l1.229,1.127l-0.615,5.174h3.176
			l1.332-1.332l2.408,0.973l0.871-2.152l1.383,1.691l0.82-0.051l0.051,3.022l0.973,1.025c0.874,0,2.126-0.751,2.663-1.47
			c0.131-0.176,0.313-0.754,0.574-0.779c0.325-0.032,0.967,0.747,1.367,0.865c0.016-0.658-0.337-1.165,0.111-1.717
			c0.681-0.84,1.063-0.014,1.81-0.072c0.517-0.04,1.377-0.752,1.619-1.191c0.405-0.734-0.088-1.753,0.315-2.443
			c0.944,0.046,1.49-0.225,2.157-0.889c0.682-0.68,1.294-1.325,1.654-2.21c0.343-0.843,0.804-0.961,1.463-1.466
			c0.903-0.693,0.379-1.586,0.665-2.528c0.619,0.005,1.292,0.025,1.931,0.007c0.765-0.023,1.549-0.102,2.313-0.025
			c0.538,0.054,1.087,0.253,1.624,0.236c0.679-0.022,1.368-0.114,2.049-0.137c0.784-0.026,1.606,0.137,2.234-0.411
			c0.332-0.29,0.57-0.647,0.941-0.897c0.474-0.32,1.044-0.513,1.556-0.766c0.569-0.28,0.997-0.568,1.556-0.343
			c0.185,0.074,0.327,0.215,0.497,0.306l32.71-0.102c-0.051-0.38-0.12-0.901-0.168-1.278c-0.061-0.492-0.274-0.889-0.319-1.377
			c-0.035-0.374,0.128-0.943-0.004-1.292c-0.204-0.539-1.16-0.732-1.678-0.871c-0.051-0.566-0.379-1.01-0.367-1.585
			c0.019-0.862,0.413-1.67,0.852-2.395c0.735-1.214,1.72-1.843,2.713-2.804c-0.453-0.481-0.783-0.879-0.586-1.596
			c0.237-0.863,0.569-1.718,1.077-2.475c0.995-1.485,2.298-2.604,3.561-3.834c0.717-0.699,1.18-1.495,1.663-2.36
			c0.23-0.413,0.463-0.87,0.811-1.187c0.181-0.165,0.694-0.344,0.781-0.601c0.15-0.442-0.452-0.728-0.737-0.982
			c-0.442-0.395-0.787-0.618-0.759-1.284c0.015-0.355-0.05-1.005-0.411-1.206c-0.541-0.303-1.172,0.482-1.28,0.95
			c-0.078,0.338,0.204,1.169-0.098,1.402c-0.343,0.265-0.558-0.405-0.618-0.647c-0.144-0.582-0.017-1.155,0.092-1.718
			c0.183-0.944-0.054-1.156-0.604-1.831c-0.52-0.638-0.166-1.297-0.317-2.045c-0.215-1.065-1.555-1.354-2.319-1.936
			c-0.466-0.354-0.936-0.742-1.37-1.116c-0.456-0.394-0.798-1.061-1.39-1.269c-0.38-0.133-1.393-0.194-1.785-0.076
			c-0.731,0.22-0.92,0.987-1.741,1.16c-0.004-0.553,0.798-1.253,1.248-1.522c0.427-0.255,0.996-0.233,1.476-0.239
			c1.719-0.021,2.78,0.502,4.257,1.33c0.55,0.308,1.547,0.624,1.948,1.093c0.389,0.456,0.187,1.414,0.298,1.976
			c0.202,1.015,0.712,1.701,0.776,2.719c0.497,0.253,1.376-0.748,1.865-0.937c0.906-0.349,1.936-0.504,2.895-0.594
			c0.238-1.147-0.993-0.636-1.453-0.811c0.059-0.527,1.303-0.895,1.764-0.925c0.726-0.048,1.017,0.446,1.587,0.82
			c0.595,0.391,1.539,0.95,2.268,0.553c0.626-0.341,0.374-1.294,0.307-1.863c-0.071-0.6-0.038-1.219,0.736-0.76
			c0.507,0.301,0.644,1.077,1.2,1.22c0.629,0.162,1.109-0.642,0.924-1.211c-0.193-0.593-1-0.397-0.941-1.206
			c0.462,0.103,1.076,0.492,1.549,0.665c0.442,0.163,0.891,0.24,1.327,0.4c0.224-0.275,0.88-0.83,0.8-1.215
			c-0.076-0.366-0.615-0.261-0.4-0.744c0.235-0.527,0.446-0.079,0.799-0.088c0.458-0.011,1.18-0.849,1.61-0.773
			c0.935,0.166-0.486,1.386-0.191,1.824c0.334,0.498,1.73-0.759,1.886-0.96c0.372,0.189,0.38,0.444,0.802,0.306
			c0.279-0.092,0.354-0.383,0.69-0.408c-0.086,0.645,0.949,1.842,1.308,0.792c0.139-0.405-0.133-0.584-0.336-0.868
			c-0.273-0.38-0.377-0.732-0.34-1.202c0.523,0.188,0.634-0.025,0.754-0.606c0.071-0.346,0.043-0.646-0.041-0.985
			c-0.112-0.451-0.311-0.781,0.009-1.192c0.277-0.355,0.794-0.509,1.134-0.808c0.463-0.407,0.458-0.664,0.58-1.209
			c0.101-0.449,0.285-1.049,0.807-1.044c1.503,0.015-0.174,1.73-0.083,2.147c0.282,0.052,0.582,0.039,0.864,0
			c0.011,0.523-0.903,1.318-0.656,1.802c0.384,0.749,1.649-0.924,2.197-0.819c0.878,0.17,0.555,1.071,0.168,1.509
			c-0.636,0.723-1.372,0.666-2.257,0.694c0.709,0.381,0.178,0.884,0.189,1.42c0.828,0.117,1.074,0.047,1.66-0.53
			c0.402-0.395,1.056-1.114,1.689-0.866c0.155,0.061,0.257,0.372,0.436,0.398c0.254,0.036,0.553-0.35,0.691-0.515
			c0.257-0.307,0.253-0.563,0.655-0.555c0.373,0.008,0.856,0.453,1.232,0.555c0.023-0.508-0.397-1.003-0.39-1.446
			c0.152,0.067,0.331,0.14,0.479,0.194c0.056-0.339,0.212-0.75,0.441-0.983c0.559,0.196,1.139,0.372,0.907,1.067
			c-0.077,0.232-0.376,0.354-0.446,0.566c-0.106,0.327,0.067,0.315,0.176,0.617c0.272,0.752-0.087,2.036,1.152,1.877
			c1.419-0.182,3.175-0.804,3.969-2.083c0.288-0.464,0.422-0.956,0.777-1.388c0.274-0.334,0.672-0.616,0.761-1.062
			c-0.219-0.198-1.059-0.361-1.13-0.628c-0.14-0.524,1.161-0.732,1.435-0.562c0.361,0.225,0.088,0.543,0.272,0.781
			c0.16,0.208,0.664,0.29,0.914,0.083c0.403-0.333,0.311-1.621,0.207-2.066c-0.177-0.756,1.389-1.118,1.871-1.414
			c0.534-0.329,0.91-0.899,1.46-1.22c0.37-0.216,1.612-0.493,1.277-1.208c-0.186-0.397-0.695-0.151-1.043-0.102
			c-0.5,0.071-1,0.067-1.506-0.041c0.107-0.582,1.295-0.827,1.683-1.303c0.368-0.452,0.489-0.699,1.096-0.399
			c0.647,0.32,0.73,0.5,1.511,0.205c0.662-0.25,0.84-0.183,0.886-0.86c0.522-0.14,1.144-0.133,0.757,0.49
			c-0.301,0.485-0.852,0.693-0.923,1.363c-0.048,0.458,0.286,0.891,0.333,1.337c0.045,0.426-0.07,0.865-0.079,1.305
			c0.896,0.044,1.31,0.209,2.113,0.586c0.265-0.962,0.419-1.425,1.535-1.405c0.137,0.445-0.068,0.58-0.223,0.927
			c0.317,0.292,1.081,0.423,1.182,0.843c0.009,0.035-0.146,0.396-0.152,0.496c-0.01,0.188,0.194,0.428,0.105,0.616
			c-0.328,0.691-1.688-0.103-2.146,0.288c-0.549,0.468,0.586,1.732,0.786,2.22c0.589-0.1,0.655-0.194,1.134,0.076
			c0.5,0.282,0.508,0.437,1.085,0.274c0.389-0.109,0.729-0.34,1.124-0.434c0.405-0.096,0.89-0.023,1.278-0.139
			c0.753-0.225,0.685-0.702,0.683-1.425c-0.002-0.652,0.187-1.489-0.262-2.012c0.554-0.45,0.926-0.065,1.538-0.02
			c0.743,0.055,1.439-0.539,2.251-0.422c0.353,0.051,0.782,0.197,0.72,0.609c-0.112,0.741-1.275,0.542-1.522,1.087
			c0.206,0.303,0.66,0.387,0.813,0.69c0.206,0.41-0.102,1.208-0.044,1.678c0.397,0.113,1.135,0.414,1.558,0.158
			c0.412-0.249,0.467-0.97,0.696-1.346c0.269,0.034,0.669,0.246,0.789,0.503c0.188,0.403-0.006,0.272-0.206,0.668
			c-0.261,0.518-0.251,1.228-0.09,1.782c0.899-0.1,0.521-0.98,0.703-1.632c0.707,0.18,1.451,0.714,2.101,1.018
			c0.206-0.301,0.045-0.692,0.214-0.962c0.216-0.346,0.696-0.035,0.918-0.208c0.197-0.154,0.188-0.501,0.384-0.679
			c0.249-0.227,0.644-0.17,0.882-0.375c0.288-0.248,0.21-0.725,0.644-0.636c0.285,0.058,0.397,0.485,0.72,0.56l1.998-2.766
			c1.349,0,1.666-1.535,1.292-2.881c-0.126-0.454-0.359-1.285-0.223-1.747c0.16-0.546,0.717-0.802,0.852-1.42
			c0.156-0.717,0.355-1.429,0.524-2.138c0.186-0.779,0.808-1.111,1.481-1.485c0.754-0.418,1.406-0.704,2.242-0.922
			c0.258-0.067,0.511-0.129,0.741-0.264c0.45-0.264,0.356-0.3,0.366-0.824c0.014-0.714,1.013-0.612,1.254-1.26
			c0.234-0.628-0.062-1.273-0.032-1.905c0.86-0.474,2.03-0.437,2.802-1.139c0.383-0.348,0.078-0.42,0.121-0.767
			c0.048-0.387,0.384-0.571,0.702-0.806c0.539-0.398,0.939-0.694,1.148-1.342c0.213-0.661,0.599-1.294,0.784-1.955
			c0.363-1.294,0.202-2.825,0.673-4.076c0.206-0.547,0.382-1.013,0.937-1.095c0.42-0.062,0.878,0.037,1.284,0.109
			c0.057-0.85-0.274-1.523,0.686-1.762c0.645-0.161,1.434-0.391,1.934-0.853c0.254-0.235,0.335-0.522,0.638-0.692
			c0.307-0.171,0.79-0.188,1.133-0.26c1.019-0.216,2.063-0.301,3.096-0.436c1.087-0.141,1.098-1.844,0.973-2.893
			c-0.076-0.637-0.554-1.049-0.759-1.666c-0.247-0.745-0.548-1.428-0.933-2.093c0.577-0.257,1.032-0.327,1.611-0.494
			c0.267-0.077,0.813-0.179,0.959-0.444c0.131-0.238-0.005-0.984,0.038-1.265c0.051-0.342,0.119-0.734,0.253-1.044
			c0.285-0.661,1.327-0.953,1.938-1.397c0.639-0.464,1.195-1.339,1.556-2.044c0.382-0.745,0.851-1.476,1.157-2.259
			c0.226-0.58,0.143-1.169,0.277-1.766l0.871-5.84L189.523,81.211z"/>
		<path fill="#1E8346" d="M100.332,157.97c0.175-0.13,0.209-0.519-0.072-0.881c-0.166-0.213-0.833,0.196-1.021,0.232
			c-0.551,0.105-0.739-0.28-1.284-0.355c-0.612-0.084-2.295,0.21-2.592-0.486c-0.304-0.714,0.856-0.942,1.024-1.485
			c0.192-0.619-0.979-0.228-1.331-0.301c-0.6-0.124-1-0.455-1.638-0.482c-0.257-0.011-0.816-0.123-1.113,0.24
			c0.421,0.72-0.01,1.476,0.991,1.715c0.27,0.065,0.356,0.027,0.437,0.34c0.045,0.176,0.02,0.366,0.067,0.548
			c0.124,0.477,0.43,0.692,0.904,0.786c0.585,0.117,1.261,0.129,1.858,0.128c0.416-0.001,1.017-0.037,1.236,0.374
			c0.172,0.323,0.158,0.939,0.216,1.305c0.022,0.136,0.127,0.4,0.066,0.534c-0.095,0.21-0.621,0.314-0.832,0.432
			c-0.287,0.16-0.536,0.362-0.75,0.609c-0.513,0.592-0.517,1.407-0.844,2.09c-0.258,0.539-0.723,1.059-0.322,1.626
			c0.371-0.065,0.62-0.309,0.662-0.681c0.021-0.19-0.107-0.44-0.013-0.62c0.12-0.232,0.532-0.216,0.699-0.407
			c0.184-0.21,0.152-0.541,0.297-0.769c0.249-0.391,0.795-0.32,1.256-0.332c0.507-0.012,0.787,0.204,1.171,0.462
			c0.504-0.429,0.345-1.332,0.205-1.878C99.374,159.795,99.377,158.683,100.332,157.97z"/>
		<path fill="#1E8346" d="M101.99,154.469c-0.255-0.155-0.91-0.159-1.043,0.223c0.466,0.289,1.014,0.723,1.533,0.911
			C102.532,155.271,102.287,154.65,101.99,154.469z"/>
		<path fill="#1E8346" d="M110.553,157.329c-0.245-0.157-0.602,0.047-0.863,0.027c-0.277,0.14-0.88,0.507-0.506,0.734
			c0.323,0.196,1.067,0.306,1.342-0.008C110.684,157.902,110.797,157.485,110.553,157.329z"/>
		<path fill="#1E8346" d="M105.987,159.311c-0.065-0.126-0.273-0.174-0.294-0.32c-0.034-0.236,0.251-0.27,0.397-0.316
			c0.189-0.06,0.602-0.3,0.253-0.425c-0.365-0.13-0.83-0.011-1.212-0.075c-0.372,0.033-0.427,0.269-0.427,0.53
			c0,0.17,0.03,0.362-0.043,0.519c-0.061,0.13-0.203,0.2-0.233,0.344c-0.082,0.396,0.491,0.149,0.684,0.11
			c0.207-0.042,0.437,0.004,0.638-0.05C105.932,159.58,106.076,159.484,105.987,159.311z"/>
		<path fill="#1E8346" d="M103.752,158.512c-0.107-0.1-0.214-0.2-0.317-0.304c-0.102-0.103-0.197-0.269-0.319-0.34
			c-0.163-0.042-0.326,0.07-0.262,0.241c0.044,0.116,0.173,0.23,0.237,0.34c0.06,0.102,0.079,0.198,0.114,0.309
			c0.04,0.128,0.11,0.271,0.218,0.343s0.406,0.12,0.515,0.04C104.131,158.996,103.884,158.634,103.752,158.512z"/>
		<path fill="#1E8346" d="M100.629,160.959c0.171,0.035,0.207-0.153,0.233-0.269c0.038-0.166,0.163-0.262,0.203-0.424
			c0.089-0.358-0.327-1.023-0.682-1.272c-0.131,0.142-0.301,0.266-0.389,0.444c-0.167,0.334,0.095,0.617,0.249,0.902
			C100.315,160.474,100.479,160.928,100.629,160.959z"/>
		<path fill="#1E8346" d="M103.201,160.313c-0.158-0.058-0.282-0.091-0.437-0.174c-0.095-0.051-0.208-0.127-0.366-0.017
			c-0.104,0.137-0.156,0.5-0.001,0.58c0.189,0.098,0.693,0.073,0.911,0.052c0.119-0.012,0.231-0.021,0.216-0.159
			C103.509,160.462,103.313,160.354,103.201,160.313z"/>
		<path fill="#1E8346" d="M101.553,161.454c-0.153,0-0.359-0.041-0.505,0c-0.115,0.033-0.126,0.086-0.238,0.171
			c0.121,0.112,0.239,0.195,0.324,0.328c0.048,0.076,0.076,0.231,0.151,0.283c0.145,0.101,0.28-0.091,0.395-0.181
			c0.087-0.068,0.244-0.102,0.314-0.188C102.259,161.54,101.762,161.454,101.553,161.454z"/>
		<path fill="#1E8346" d="M107.145,160.57c-0.15,0.311-0.386,0.533-0.559,0.824c-0.124,0.208-0.229,0.418-0.38,0.606
			c-0.123,0.154-0.359,0.327-0.41,0.512c-0.143,0.205-0.834,0.569-0.493,0.741c0.13,0.065,0.331,0.041,0.469,0.044
			c0.168,0.003,0.419,0.062,0.584,0.008c0.171-0.055,0.293-0.219,0.391-0.361c0.18-0.263,0.387-0.572,0.451-0.891
			c0.061-0.302,0.107-0.605,0.195-0.905c0.131-0.444,0.207-0.87,0.176-1.336C107.384,159.967,107.252,160.348,107.145,160.57z"/>
		<path fill="#1E8346" d="M100.213,163.178c0.158,0.461-0.257,0.933-0.122,1.387c0.272-0.147,0.613-0.331,0.695-0.661
			C100.863,163.592,100.681,163.175,100.213,163.178z"/>
		<path fill="#1E8346" d="M116.11,146.067c-0.222,0.158-0.275,0.748-0.369,0.997c-0.138,0.364-0.017,0.626-0.039,1.002
			c0.113,0.432,0.259,0.139,0.395-0.075c0.164-0.259,0.365-0.414,0.583-0.632c0.199-0.2,0.92-1.035,0.587-1.356
			C117.125,145.868,116.251,145.967,116.11,146.067z"/>
		<path fill="#1E8346" d="M116.135,149.919c-0.305-0.16-0.524-0.437-0.806-0.627c-0.318-0.215-0.552-0.285-0.883-0.042
			c-0.295,0.216-0.587,0.501-0.845,0.762c-0.301,0.139-1.117,0.104-0.989,0.38c0.015,0.032,0.356,0.166,0.368,0.172
			c0.197,0.101,0.39,0.22,0.588,0.316c0.257,0.125,0.858,0.319,1.106,0.159c0.169-0.109,0.128-0.3,0.353-0.378
			c0.447-0.156,0.785,0.504,1.233,0.243c0.198-0.116,0.339-0.457,0.465-0.64c0.129-0.188,0.461-0.594,0.284-0.816
			C116.66,149.66,116.572,150.149,116.135,149.919z"/>
		<path fill="#1E8346" d="M120.824,146.209c-0.225,0.134-0.478,0.216-0.582,0.431c-0.12,0.244-0.027,0.312,0.206,0.312
			c0.191,0,0.418,0.017,0.599-0.058c0.115-0.048,0.183-0.134,0.273-0.219c0.166-0.156,0.343-0.268,0.297-0.515
			C121.335,146.024,121.107,146.217,120.824,146.209z"/>
		<path fill="#1E8346" d="M132.368,144.702c-0.075,0.214-0.35,0.406-0.509,0.564c-0.248,0.247-0.279,0.374-0.228,0.722
			c0.017,0.119-0.001,0.314,0.055,0.42c0.075,0.14,0.354,0.184,0.5,0.065c0.148-0.121,0.264-0.296,0.418-0.428
			c0.149-0.127,0.28-0.266,0.428-0.397c0.171-0.152,0.235-0.302,0.078-0.504C132.959,144.952,132.706,144.724,132.368,144.702z"/>
		<path fill="#1E8346" d="M129.344,141.545c-0.016-0.094-0.028-0.273-0.139-0.27c-0.112,0.003-0.38,0.308-0.473,0.387
			c-0.105,0.09-0.227,0.19-0.28,0.325c-0.069,0.176,0.02,0.245,0.142,0.378c0.236,0.255,0.692,0.569,0.802,0.065
			C129.303,142.181,129.391,141.814,129.344,141.545z"/>
		<path fill="#1E8346" d="M136.11,137.287c-0.218,0.199-0.443,0.328-0.625,0.576c-0.216,0.295-0.367,0.631-0.571,0.934
			c-0.507-0.229-0.823-0.831-1.416-0.889c-0.238-0.023-0.32,0-0.382-0.253c-0.043-0.175-0.018-0.358-0.032-0.535
			c-0.046-0.6-0.824-0.452-1.241-0.326c-0.635,0.192-1.263,0.517-1.51,1.18c-0.09,0.241-0.11,0.436,0.09,0.618
			c0.287,0.262,0.725,0.384,1.04,0.631c0.326,0.255,1.016,0.683,0.811,1.186c-0.129,0.317-0.551,0.357-0.847,0.299
			c-0.285-0.056-0.565-0.552-0.974-0.275c0.019,0.252,0.232,0.511,0.327,0.744c0.074,0.182,0.143,0.56,0.4,0.538
			c0.264-0.023,0.605-0.584,0.877-0.223c0.11,0.145,0.138,0.386,0.224,0.553c0.111,0.214,0.263,0.414,0.383,0.622
			c0.281,0.486,0.605,1.116,1.094,1.428c0.533,0.34,0.353-0.802,0.414-1.082c0.073-0.335,0.291-0.604,0.313-0.955
			c0.022-0.344-0.072-0.588-0.181-0.901c-0.093-0.266-0.085-0.702-0.044-0.978c0.05-0.332,0.226-0.397,0.526-0.41
			c0.134-0.005,0.335,0.042,0.453-0.018c0.159-0.081,0.133-0.239,0.34-0.224c0.11,0.008,0.161,0.079,0.272,0.035
			c0.149-0.058,0.188-0.282,0.25-0.415c0.132-0.282,0.309-0.434,0.296-0.762c-0.008-0.205-0.083-0.384-0.138-0.581
			C136.214,137.639,136.201,137.428,136.11,137.287z"/>
		<path fill="#1E8346" d="M142.848,142.055c-0.183-0.227-0.612,0.172-0.833,0.188c-0.01,0.112-0.418,0.219-0.411,0.394
			c0.006,0.153,0.39,0.128,0.519,0.166c0.211,0.061,0.36,0.271,0.576,0.243c0.13-0.016,0.307-0.11,0.341-0.238
			c0.04-0.151-0.075-0.198-0.117-0.312C142.872,142.358,142.946,142.175,142.848,142.055z"/>
		<path fill="#1E8346" d="M152.193,143.75c-0.254-0.023-0.501,0.021-0.753-0.033c-0.221-0.048-0.396-0.161-0.59-0.269
			c-0.136-0.075-0.28-0.139-0.404-0.234c-0.087-0.067-0.199-0.244-0.305-0.258c-0.33-0.157-0.705-0.141-0.989,0.051
			c-0.131,0.088-0.269,0.157-0.292,0.321c-0.023,0.161,0.084,0.183,0.202,0.267c0.154,0.109,0.221,0.29,0.401,0.363
			c0.261,0.106,0.556,0.127,0.832,0.165c0.38,0.052,0.741,0.063,1.123,0.074c0.237,0.006,0.467,0.06,0.705,0.065
			c0.172,0.004,0.614-0.009,0.479-0.286C152.532,143.837,152.33,143.762,152.193,143.75z"/>
		<path fill="#1E8346" d="M147.054,150.089c0.109,0.561-0.984,0.31-0.994,0.851c-0.006,0.309,0.452,0.566,0.652,0.764
			c0.164,0.163,0.284,0.422,0.517,0.497c0.255-0.227,0.2-0.397,0.235-0.693c0.028-0.232,0.211-0.342,0.259-0.524
			C147.799,150.693,147.503,150.07,147.054,150.089z"/>
	</g>
</g>
<g id="Icon">
</g>
</svg>
