<?xml version="1.0" encoding="utf-8"?>
<!-- Generator: Adobe Illustrator 26.0.3, SVG Export Plug-In . SVG Version: 6.00 Build 0)  -->
<svg version="1.1" xmlns="http://www.w3.org/2000/svg" xmlns:xlink="http://www.w3.org/1999/xlink" x="0px" y="0px"
	 viewBox="0 0 200 200" enable-background="new 0 0 200 200" xml:space="preserve">
<g id="Isolation_Mode">
</g>
<g id="Layer_1">
	<path fill-rule="evenodd" clip-rule="evenodd" fill="#1E8346" d="M196.315,77.827c-0.097-0.301-0.485-0.301-0.852,0.151
		c-0.367,0.452-0.711,1.356-0.884,1.808c-0.172,0.452-0.172,0.452-0.302,0.452c-0.129,0-0.388,0-0.604-0.065
		c-0.215-0.065-0.388-0.194-0.539-0.452c-0.151-0.258-0.28-0.646-0.302-0.99c-0.021-0.345,0.065-0.646-0.021-0.797
		c-0.086-0.151-0.345-0.151-0.582-0.151c-0.237,0-0.453,0-0.604-0.065c-0.151-0.064-0.237-0.194-0.474-0.517
		c-0.237-0.323-0.625-0.84-0.927-1.119c-0.302-0.28-0.517-0.323-0.948-0.646c-0.431-0.323-1.078-0.926-1.487-1.335
		c-0.409-0.409-0.582-0.624-0.819-0.732c-0.237-0.108-0.539-0.108-0.69-0.022c-0.151,0.086-0.151,0.258-0.022,0.538
		c0.129,0.28,0.388,0.667,0.56,0.947c0.172,0.28,0.259,0.452,0.28,0.624c0.022,0.172-0.022,0.345-0.172,0.517
		c-0.151,0.172-0.41,0.345-0.539,0.474c-0.129,0.129-0.129,0.215-0.086,0.474c0.043,0.258,0.129,0.689,0.043,0.991
		c-0.086,0.301-0.345,0.474-0.647,0.56c-0.302,0.086-0.647,0.086-0.862,0.194c-0.215,0.108-0.302,0.323-0.28,0.753
		c0.022,0.43,0.151,1.076,0.151,2.11c0,1.033-0.13,2.454-0.194,3.165c-0.065,0.71-0.065,0.71-0.302,0.689
		c-0.237-0.022-0.712-0.065-1.229-0.129c-0.517-0.065-1.078-0.151-1.703-0.108c-0.625,0.043-1.315,0.215-1.811,0.194
		s-0.798-0.237-1.282-0.413c-0.485-0.177-1.153-0.315-1.487-0.491c-0.334-0.177-0.334-0.392-0.539-0.689
		c-0.205-0.297-0.614-0.676-1.013-0.865c-0.399-0.189-0.787-0.189-0.981-0.362c-0.194-0.172-0.194-0.517-0.323-0.861
		c-0.129-0.344-0.388-0.689-0.647-1.098c-0.258-0.409-0.517-0.883-0.56-1.313c-0.043-0.431,0.129-0.818,0.173-1.076
		c0.043-0.258-0.043-0.388-0.388-0.452c-0.345-0.065-0.948-0.065-1.293-0.086c-0.345-0.021-0.431-0.065-0.453-0.258
		c-0.022-0.194,0.022-0.538,0.086-1.012c0.065-0.474,0.151-1.076,0.129-1.572c-0.022-0.495-0.151-0.883-0.129-1.227
		c0.022-0.344,0.194-0.646,0.431-0.99c0.237-0.344,0.539-0.732,0.927-1.033c0.388-0.301,0.862-0.517,1.142-0.797
		c0.28-0.28,0.367-0.624,0.367-1.033c0-0.409-0.086-0.883-0.129-1.184c-0.043-0.301-0.043-0.431,0.194-0.646
		c0.237-0.215,0.712-0.517,1.056-0.689c0.345-0.172,0.561-0.215,0.808-0.435c0.248-0.22,0.528-0.616,0.83-0.853
		c0.301-0.237,0.625-0.314,0.808-0.46c0.183-0.146,0.227-0.362,0.27-0.577c0.043-0.215,0.086-0.43,0.258-0.603
		c0.173-0.172,0.474-0.301,0.798-0.388c0.323-0.086,0.668-0.129,0.991-0.129c0.323,0,0.625,0.043,0.884,0.215
		c0.259,0.172,0.474,0.474,0.603,0.711c0.129,0.237,0.173,0.409,0.41,0.71c0.237,0.301,0.668,0.732,1.293,1.13
		c0.625,0.398,1.444,0.764,1.854,0.947c0.41,0.183,0.41,0.183,0.41,0.183s0,0,0.065-0.151c0.065-0.151,0.194-0.452,0.28-0.775
		c0.086-0.323,0.129-0.668,0.237-0.99c0.108-0.323,0.281-0.624,0.474-1.055c0.194-0.431,0.409-0.99,0.453-1.507
		c0.043-0.517-0.086-0.99-0.194-1.464c-0.108-0.474-0.194-0.947-0.129-1.378c0.065-0.43,0.28-0.818,0.431-1.292
		c0.151-0.474,0.237-1.033,0.28-1.765c0.043-0.732,0.043-1.636,0.043-2.433s0-1.486,0.021-2.863
		c0.022-1.378,0.065-3.445,0.065-4.715c0-1.27-0.043-1.744-0.172-2.153c-0.129-0.409-0.345-0.754-0.453-1.077
		c-0.108-0.323-0.108-0.624-0.108-0.926c0-0.301,0-0.603-0.022-1.098c-0.022-0.495-0.065-1.184-0.366-1.55
		c-0.302-0.366-0.863-0.409-1.272-0.646c-0.409-0.237-0.668-0.668-0.798-1.012c-0.129-0.344-0.129-0.603-0.043-0.947
		c0.086-0.344,0.259-0.775,0.302-1.227c0.043-0.452-0.043-0.926-0.194-1.206c-0.151-0.28-0.367-0.366-0.582-0.431
		c-0.216-0.064-0.431-0.108-0.56-0.28c-0.129-0.172-0.172-0.474-0.226-0.872c-0.054-0.398-0.119-0.893-0.151-1.636
		c-0.032-0.743-0.032-1.733-0.291-3.735c-0.259-2.002-0.776-5.016-0.992-6.652c-0.216-1.636-0.129-1.895-0.194-2.024
		c-0.065-0.129-0.28-0.129-0.56-0.151c-0.28-0.022-0.625-0.065-0.97-0.215c-0.345-0.151-0.69-0.409-1.013-0.495
		c-0.323-0.086-0.625,0-0.992-0.194c-0.366-0.194-0.798-0.667-1.164-0.84c-0.367-0.172-0.668-0.043-1.013,0.022
		c-0.345,0.065-0.733,0.065-1.444,0.086c-0.712,0.022-1.746,0.065-2.544,0.194c-0.798,0.129-1.358,0.344-1.746,0.344
		c-0.388,0-0.603-0.215-0.927-0.344c-0.323-0.129-0.755-0.172-1.164-0.323c-0.409-0.151-0.798-0.409-1.272-0.689
		c-0.474-0.28-1.035-0.581-1.595-0.904c-0.56-0.323-1.121-0.668-1.681-0.99c-0.561-0.323-1.121-0.624-1.617-0.71
		c-0.496-0.086-0.927,0.043-1.315,0.237c-0.388,0.194-0.733,0.452-1.013,0.689c-0.28,0.237-0.496,0.452-0.776,0.474
		c-0.28,0.022-0.625-0.151-0.905-0.345c-0.28-0.194-0.496-0.409-0.69-0.624c-0.194-0.215-0.367-0.431-0.604-0.323
		c-0.237,0.108-0.539,0.538-0.884,0.754c-0.345,0.215-0.733,0.215-1.078,0.28c-0.345,0.065-0.647,0.194-0.798,0.495
		c-0.151,0.301-0.151,0.775-0.323,1.098c-0.172,0.323-0.517,0.495-0.884,0.646c-0.367,0.151-0.755,0.28-1.121,0.56
		c-0.367,0.28-0.712,0.711-1.25,0.969c-0.539,0.258-1.272,0.344-1.918,0.388c-0.647,0.043-1.207,0.043-1.746,0.086
		c-0.539,0.043-1.056,0.129-1.574,0.474c-0.517,0.345-1.035,0.947-1.552,1.507c-0.517,0.56-1.035,1.077-1.484,1.669
		c-0.449,0.592-0.83,1.259-1.304,1.841c-0.474,0.581-1.042,1.076-1.369,1.324c-0.327,0.248-0.413,0.248-0.65,0.377
		c-0.237,0.129-0.625,0.388-0.862,0.667c-0.237,0.28-0.323,0.581-0.453,0.689c-0.129,0.108-0.302,0.021-0.604-0.108
		c-0.302-0.129-0.733-0.302-0.948-0.194c-0.215,0.108-0.215,0.495-0.237,0.797c-0.022,0.301-0.065,0.517-0.194,0.775
		c-0.129,0.258-0.345,0.56-0.496,0.667c-0.151,0.108-0.237,0.022-0.625,0c-0.388-0.022-1.078,0.022-1.444,0.172
		c-0.366,0.151-0.41,0.409-0.517,0.689c-0.108,0.28-0.28,0.581-0.604,0.646c-0.323,0.065-0.798-0.108-1.035-0.086
		c-0.237,0.022-0.237,0.237-0.453,0.474c-0.216,0.237-0.647,0.495-0.927,0.646c-0.28,0.151-0.409,0.194-0.539,0.409
		c-0.129,0.215-0.259,0.603-0.453,0.947c-0.194,0.345-0.453,0.646-0.604,0.969c-0.151,0.323-0.194,0.668-0.151,1.012
		c0.043,0.344,0.173,0.689,0.237,0.969c0.065,0.28,0.065,0.495-0.086,0.775c-0.151,0.28-0.453,0.625-0.604,0.926
		c-0.151,0.301-0.151,0.56-0.151,0.861c0,0.301,0,0.646,0.064,0.969c0.065,0.323,0.194,0.624,0.022,0.818
		c-0.173,0.194-0.647,0.28-0.992,0.301c-0.345,0.022-0.56-0.022-0.798,0.043c-0.237,0.065-0.496,0.237-0.733,0.538
		c-0.237,0.301-0.453,0.732-0.711,1.12c-0.259,0.388-0.561,0.732-0.992,1.227c-0.431,0.495-0.991,1.141-1.487,1.443
		c-0.496,0.301-0.927,0.258-1.207,0.28c-0.28,0.022-0.41,0.108-0.647,0.323c-0.237,0.215-0.582,0.56-0.948,0.646
		c-0.367,0.086-0.755-0.086-1.099-0.215c-0.345-0.129-0.647-0.215-0.949-0.172c-0.302,0.043-0.603,0.215-0.905,0.28
		c-0.302,0.065-0.603,0.021-0.776,0.215c-0.172,0.194-0.216,0.624-0.259,1.034c-0.043,0.409-0.086,0.797-0.216,1.119
		c-0.129,0.323-0.345,0.581-0.409,0.84c-0.065,0.258,0.021,0.517,0.086,0.84c0.065,0.323,0.108,0.71,0.022,1.055
		c-0.086,0.345-0.302,0.646-0.56,0.969c-0.259,0.323-0.56,0.667-0.733,0.99c-0.173,0.323-0.216,0.624-0.237,0.926
		c-0.022,0.301-0.022,0.603-0.151,0.99c-0.129,0.388-0.388,0.861-0.582,1.184c-0.194,0.323-0.323,0.495-0.604,0.883
		c-0.28,0.387-0.711,0.99-0.991,1.421c-0.28,0.431-0.41,0.689-0.604,0.904c-0.194,0.215-0.453,0.388-0.841,0.517
		c-0.388,0.129-0.905,0.215-1.552,0.258c-0.647,0.043-1.423,0.043-1.832-0.086c-0.409-0.129-0.453-0.388-0.517-0.517
		c-0.065-0.129-0.151-0.129-0.345-0.022c-0.194,0.108-0.496,0.323-0.862,0.603c-0.366,0.28-0.797,0.624-1.099,0.732
		c-0.302,0.108-0.474-0.022-0.69-0.151c-0.216-0.129-0.474-0.258-0.841-0.366c-0.367-0.108-0.841-0.194-1.293-0.151
		c-0.453,0.043-0.884,0.215-1.25,0.194c-0.367-0.022-0.668-0.237-0.97-0.28c-0.302-0.043-0.603,0.086-0.905,0.151
		c-0.302,0.065-0.604,0.065-0.798-0.065c-0.194-0.129-0.28-0.388-0.474-0.689c-0.194-0.301-0.496-0.646-0.733-0.99
		c-0.237-0.344-0.41-0.689-0.711-0.775c-0.302-0.086-0.733,0.086-1.25,0.172c-0.517,0.086-1.121,0.086-1.53-0.065
		s-0.625-0.452-0.905-0.797c-0.28-0.345-0.625-0.732-1.056-1.163c-0.431-0.431-0.948-0.904-1.336-1.055
		c-0.388-0.151-0.647,0.022-0.819,0.043c-0.173,0.022-0.259-0.108-0.539-0.431c-0.28-0.323-0.755-0.84-1.056-1.076
		c-0.302-0.237-0.431-0.194-0.776-0.172c-0.345,0.022-0.905,0.022-1.401,0.065c-0.496,0.043-0.927,0.129-1.337,0.086
		c-0.409-0.043-0.797-0.215-1.164-0.258c-0.367-0.043-0.712,0.043-0.905,0.366c-0.194,0.323-0.237,0.883-0.431,1.572
		c-0.194,0.689-0.539,1.507-0.862,2.045c-0.323,0.538-0.625,0.797-0.776,1.098c-0.151,0.301-0.151,0.646-0.086,1.012
		c0.065,0.366,0.194,0.753,0.302,1.184c0.108,0.431,0.194,0.904,0.086,1.206c-0.108,0.301-0.41,0.431-0.733,0.56
		c-0.323,0.129-0.668,0.258-0.862,0.495c-0.194,0.237-0.237,0.581-0.259,0.969c-0.022,0.388-0.022,0.818-0.086,1.034
		c-0.065,0.215-0.194,0.215-0.367,0.28c-0.172,0.065-0.388,0.194-0.647,0.431c-0.259,0.237-0.561,0.581-0.862,0.775
		c-0.302,0.194-0.603,0.237-0.841,0.409c-0.237,0.172-0.41,0.474-0.668,0.71c-0.259,0.237-0.604,0.409-0.948,0.689
		c-0.345,0.28-0.69,0.667-1.013,0.947c-0.323,0.28-0.625,0.452-0.841,0.71c-0.216,0.258-0.345,0.603-0.517,0.99
		c-0.172,0.388-0.388,0.818-0.604,1.012c-0.216,0.194-0.431,0.151-0.711,0.129c-0.28-0.022-0.625-0.022-0.949,0
		c-0.323,0.021-0.625,0.065-0.798,0.28c-0.172,0.215-0.216,0.603-0.302,0.947c-0.086,0.345-0.216,0.646-0.431,0.969
		c-0.216,0.323-0.517,0.668-0.819,0.797c-0.302,0.129-0.604,0.043-0.97-0.043c-0.366-0.086-0.798-0.172-1.789-0.215
		c-0.992-0.043-2.544-0.043-3.449,0.022c-0.905,0.065-1.164,0.194-1.38,0.108c-0.215-0.086-0.388-0.388-0.56-0.667
		c-0.172-0.28-0.345-0.538-0.56-0.603c-0.216-0.065-0.474,0.065-0.819,0.194c-0.345,0.129-0.776,0.258-1.078,0.495
		c-0.302,0.237-0.474,0.581-0.69,0.775c-0.216,0.194-0.474,0.237-0.69,0.172c-0.216-0.065-0.388-0.237-0.453-0.431
		c-0.065-0.194-0.022-0.409-0.065-1.27c-0.043-0.861-0.173-2.368-0.259-3.337c-0.086-0.969-0.129-1.4-0.086-1.572
		c0.043-0.172,0.172-0.086,0.388-0.043c0.215,0.043,0.517,0.043,0.668-0.108c0.151-0.151,0.151-0.452,0.302-0.581
		c0.151-0.129,0.453-0.086,0.604-0.237c0.151-0.151,0.151-0.495,0.216-0.775c0.065-0.28,0.194-0.495,0.237-0.883
		c0.043-0.388,0-0.947-0.065-1.593c-0.065-0.646-0.151-1.378-0.367-2.153c-0.215-0.775-0.56-1.593-0.798-2.282
		c-0.237-0.689-0.366-1.249-0.625-1.744c-0.259-0.495-0.647-0.926-0.841-1.443c-0.194-0.517-0.194-1.12-0.345-1.701
		c-0.151-0.581-0.453-1.141-0.798-1.636c-0.345-0.495-0.733-0.926-1.186-1.485c-0.453-0.559-0.97-1.246-1.703-1.935
		c-0.733-0.689-1.681-1.38-2.22-1.747c-0.539-0.367-0.668-0.41-0.733-0.432c-0.065-0.022-0.065-0.022-0.043,2.024
		c0.022,2.045,0.065,6.136,0.151,14.231c0.086,8.095,0.216,20.195,0.28,26.309c0.065,6.114,0.065,6.244-0.043,6.287
		c-0.108,0.043-0.323,0-0.603-0.022c-0.28-0.021-0.625-0.021-0.905,0.086c-0.28,0.108-0.496,0.323-0.625,0.517
		c-0.129,0.194-0.172,0.366-0.388,0.495c-0.216,0.129-0.604,0.215-0.992,0.194c-0.388-0.022-0.776-0.151-1.013,0.021
		c-0.237,0.172-0.323,0.646-0.496,0.926c-0.172,0.28-0.431,0.366-0.582,0.538c-0.151,0.172-0.194,0.431-0.259,0.603
		c-0.065,0.172-0.151,0.258-0.388,0.301c-0.237,0.043-0.625,0.043-0.992,0.129c-0.366,0.086-0.711,0.258-0.798,0.452
		c-0.086,0.194,0.086,0.409,0.216,0.581c0.129,0.172,0.215,0.302,0.302,0.495c0.086,0.194,0.172,0.452,0.129,0.667
		c-0.043,0.215-0.216,0.388-0.539,0.452c-0.323,0.065-0.798,0.022-1.142,0.108c-0.345,0.086-0.56,0.302-0.862,0.323
		c-0.302,0.021-0.69-0.151-1.035-0.388c-0.345-0.237-0.647-0.538-0.905-0.71c-0.259-0.172-0.474-0.215-0.819-0.215
		c-0.345,0-0.819,0.043-1.38,0.086c-0.56,0.043-1.207,0.086-1.811,0.151c-0.604,0.065-1.164,0.151-1.983,0.258
		c-0.819,0.108-1.897,0.237-2.673,0.28c-0.776,0.043-1.25,0-1.574-0.215c-0.323-0.215-0.496-0.603-0.733-0.861
		c-0.237-0.258-0.539-0.388-0.948-0.431c-0.41-0.043-0.927,0-1.466,0.021c-0.539,0.022-1.099,0.022-1.487-0.021
		c-0.388-0.043-0.604-0.129-0.711-0.28c-0.108-0.151-0.108-0.366-0.172-0.452c-0.065-0.086-0.194-0.043-0.496,0.086
		c-0.302,0.129-0.776,0.345-1.142,0.517c-0.366,0.172-0.625,0.301-0.668,0.108c-0.043-0.194,0.13-0.71,0.13-1.27
		c0-0.56-0.172-1.163-0.323-1.529c-0.151-0.366-0.28-0.495-0.496-0.689c-0.216-0.194-0.517-0.452-0.453-0.689
		c0.065-0.237,0.496-0.452,0.733-0.646c0.237-0.194,0.28-0.366,0.259-0.581c-0.022-0.215-0.108-0.474-0.237-0.754
		c-0.129-0.28-0.302-0.581-0.517-0.732c-0.216-0.151-0.474-0.151-0.798-0.151c-0.323,0-0.711,0-0.905-0.086
		c-0.194-0.086-0.194-0.258-0.215-0.452c-0.022-0.194-0.065-0.409-0.043-0.71c0.022-0.301,0.108-0.689-0.043-0.84
		c-0.151-0.151-0.539-0.064-0.948-0.021c-0.41,0.043-0.841,0.043-1.185,0.043c-0.345,0-0.604,0-0.733,0.151
		c-0.129,0.151-0.129,0.452-0.129,0.754c0,0.301,0,0.603-0.043,0.861c-0.043,0.258-0.129,0.474-0.388,0.711
		c-0.259,0.237-0.69,0.495-0.819,0.797c-0.129,0.301,0.043,0.646,0.065,0.947c0.022,0.301-0.108,0.56-0.172,0.797
		c-0.065,0.237-0.065,0.452-0.086,0.71c-0.022,0.259-0.065,0.56-0.28,0.689c-0.216,0.129-0.603,0.086-0.927,0.065
		c-0.323-0.022-0.582-0.022-0.733,0.129c-0.151,0.151-0.194,0.452-0.431,0.646c-0.237,0.194-0.668,0.28-0.819,0.431
		c-0.151,0.151-0.022,0.366,0.129,0.517c0.151,0.151,0.323,0.237,0.496,0.409c0.172,0.172,0.345,0.431,0.431,0.711
		c0.086,0.28,0.086,0.581,0.129,0.861c0.043,0.28,0.129,0.538,0.323,0.754c0.194,0.215,0.496,0.388,0.733,0.581
		c0.237,0.194,0.41,0.409,0.496,0.646c0.086,0.237,0.086,0.495,0.129,0.775c0.043,0.28,0.129,0.581,0.345,0.926
		c0.215,0.345,0.56,0.732,0.798,1.012c0.237,0.28,0.366,0.452,0.776,1.12c0.41,0.667,1.099,1.83,1.53,2.777
		c0.431,0.947,0.604,1.679,0.862,2.239c0.259,0.56,0.604,0.947,0.841,1.744c0.237,0.797,0.367,2.002,0.539,2.799
		c0.172,0.797,0.388,1.184,0.668,1.701c0.28,0.517,0.625,1.163,1.013,1.809c0.388,0.646,0.819,1.292,1.099,1.895
		c0.28,0.603,0.41,1.162,0.711,2.002c0.302,0.84,0.776,1.959,1.25,2.584c0.474,0.624,0.948,0.754,1.164,1.119
		c0.216,0.366,0.173,0.969,0.431,1.658c0.259,0.689,0.819,1.464,1.315,2.153c0.496,0.689,0.927,1.292,1.293,1.766
		c0.366,0.474,0.668,0.818,0.97,1.206c0.302,0.387,0.604,0.818,0.776,1.163c0.172,0.345,0.216,0.603,0.366,0.926
		c0.151,0.323,0.41,0.71,0.819,1.055c0.409,0.345,0.97,0.646,1.315,1.055c0.345,0.409,0.474,0.926,0.539,1.421
		c0.065,0.495,0.065,0.969,0.065,1.507c0,0.538,0,1.141,0.129,1.701c0.129,0.56,0.388,1.076,0.517,1.615s0.129,1.098,0.172,1.572
		c0.043,0.474,0.129,0.861,0.129,1.399s-0.086,1.227-0.259,1.895c-0.172,0.667-0.431,1.313-0.776,1.722
		c-0.345,0.409-0.776,0.581-1.013,0.797c-0.237,0.215-0.28,0.474-0.366,0.603c-0.086,0.129-0.216,0.129-0.474,0.022
		c-0.259-0.108-0.647-0.323-0.927-0.538c-0.28-0.215-0.453-0.431-0.582-0.409c-0.129,0.022-0.215,0.28-0.259,0.538
		c-0.043,0.258-0.043,0.517-0.065,0.84c-0.022,0.323-0.065,0.71-0.151,1.033c-0.086,0.323-0.216,0.581-0.216,0.861
		c0,0.28,0.129,0.581,0.259,0.797c0.129,0.215,0.259,0.345,0.41,0.495c0.151,0.151,0.323,0.323,0.582,0.56
		c0.259,0.237,0.604,0.538,0.776,0.861c0.172,0.323,0.172,0.667,0.323,0.99c0.151,0.323,0.453,0.624,0.711,0.926
		s0.474,0.603,0.884,0.882c0.41,0.28,1.013,0.538,1.336,0.775c0.323,0.237,0.366,0.452,0.259,0.581
		c-0.108,0.129-0.366,0.172-0.453,0.388c-0.086,0.215,0,0.603,0.129,0.861c0.129,0.258,0.302,0.387,0.517,0.495
		c0.216,0.108,0.474,0.194,0.647,0.301c0.172,0.108,0.259,0.237,0.41,0.603c0.151,0.366,0.367,0.969,0.323,1.27
		c-0.043,0.301-0.345,0.301-0.517,0.56c-0.172,0.258-0.216,0.775-0.367,1.162c-0.151,0.388-0.41,0.646-0.603,1.034
		c-0.194,0.387-0.323,0.904-0.259,1.485c0.065,0.581,0.324,1.227,0.733,1.83c0.41,0.603,0.97,1.163,1.358,1.464
		c0.388,0.301,0.604,0.344,0.604,0.215c0-0.129-0.216-0.431-0.345-0.71c-0.129-0.28-0.172-0.538-0.323-0.926
		c-0.151-0.387-0.41-0.904-0.41-1.378c0-0.474,0.259-0.904,0.582-1.098c0.323-0.194,0.711-0.151,1.035-0.065
		c0.323,0.086,0.582,0.215,0.948,0.28c0.367,0.064,0.841,0.064,1.164,0.129c0.323,0.065,0.496,0.194,0.625,0.43
		c0.129,0.237,0.216,0.582,0.194,1.098c-0.021,0.517-0.151,1.206-0.194,1.679c-0.043,0.474,0,0.732,0.151,0.775
		c0.151,0.043,0.41-0.129,0.625-0.366c0.215-0.237,0.388-0.538,0.754-0.581c0.366-0.043,0.927,0.172,1.315,0.387
		c0.388,0.216,0.604,0.431,0.798,0.624c0.194,0.194,0.367,0.366,0.647,0.323c0.28-0.043,0.668-0.301,0.992-0.345
		c0.323-0.043,0.582,0.129,0.668,0.366c0.086,0.237,0,0.538-0.129,0.84c-0.129,0.301-0.302,0.603-0.388,0.904
		c-0.086,0.301-0.086,0.603,0.129,0.732c0.215,0.129,0.647,0.086,0.948,0.086c0.302,0,0.474,0.043,0.711,0.065
		c0.237,0.022,0.539,0.022,0.69,0.194c0.151,0.172,0.151,0.517,0.28,0.861c0.129,0.345,0.388,0.689,0.862,0.818
		c0.474,0.129,1.164,0.043,1.617-0.022c0.453-0.064,0.668-0.108,0.927-0.194c0.259-0.086,0.56-0.215,0.776-0.129
		c0.216,0.086,0.345,0.388,0.431,0.646c0.086,0.258,0.129,0.474,0.302,0.581c0.172,0.108,0.474,0.108,0.604-0.065
		c0.129-0.172,0.086-0.517,0-0.84c-0.086-0.323-0.216-0.624,0.086-0.807c0.302-0.183,1.035-0.248,1.401-0.28
		c0.367-0.032,0.367-0.032,0.453-0.161c0.086-0.129,0.259-0.388,0.474-0.668c0.216-0.28,0.474-0.581,0.625-0.861
		c0.151-0.28,0.194-0.538,0.388-0.668c0.194-0.129,0.539-0.129,0.819-0.258c0.28-0.129,0.496-0.388,0.668-0.581
		c0.172-0.194,0.302-0.323,0.539-0.301c0.237,0.022,0.582,0.194,0.97,0.28c0.388,0.086,0.819,0.086,1.207,0.086s0.733,0,0.927-0.129
		c0.194-0.129,0.237-0.387,0.323-0.667c0.086-0.28,0.216-0.581,0.345-0.775c0.129-0.194,0.259-0.28,0.496-0.259
		c0.237,0.022,0.582,0.151,0.862,0.28c0.28,0.129,0.496,0.258,0.603,0.323c0.108,0.065,0.108,0.065,0.517,0.205
		c0.41,0.14,1.229,0.42,1.832,0.517c0.604,0.097,0.992,0.011,1.186-0.183c0.194-0.194,0.194-0.495,0.259-0.732
		c0.065-0.237,0.194-0.409,0.539-0.474c0.345-0.065,0.905-0.022,1.315,0.043c0.41,0.064,0.668,0.151,0.97,0.237
		c0.302,0.086,0.647,0.172,1.013,0.215c0.367,0.043,0.755,0.043,1.078-0.086c0.323-0.129,0.582-0.387,0.733-0.667
		c0.151-0.28,0.194-0.581,0.173-0.883c-0.022-0.301-0.108-0.603-0.108-0.775s0.086-0.215,0.259-0.215
		c0.172,0,0.431,0.043,0.798,0.086c0.366,0.043,0.841,0.086,1.078,0c0.237-0.086,0.237-0.301,0.194-0.517
		c-0.043-0.216-0.129-0.431-0.194-0.668c-0.065-0.237-0.108-0.495,0.021-0.668c0.129-0.172,0.431-0.258,0.819-0.301
		c0.388-0.043,0.862-0.043,1.164-0.022c0.302,0.022,0.431,0.065,0.604,0.086c0.172,0.022,0.388,0.022,0.668-0.172
		c0.28-0.194,0.625-0.581,0.905-0.84c0.28-0.258,0.496-0.388,0.798-0.409c0.302-0.022,0.69,0.064,1.035,0.172
		c0.345,0.107,0.647,0.237,1.142,0.387c0.496,0.151,1.186,0.323,1.595,0.431c0.41,0.107,0.539,0.151,0.841,0.258
		c0.302,0.107,0.776,0.28,1.142,0.323c0.366,0.043,0.625-0.043,0.905-0.065c0.28-0.022,0.582,0.022,0.884,0.043
		c0.302,0.022,0.604,0.022,0.797,0c0.194-0.022,0.28-0.065,0.366-0.172c0.086-0.107,0.172-0.28,0.259-0.474
		c0.086-0.194,0.172-0.409,0.345-0.517c0.173-0.107,0.431-0.107,0.733-0.086c0.302,0.022,0.647,0.065,0.927,0.065
		c0.28,0,0.496-0.043,0.604-0.129c0.108-0.086,0.108-0.216,0.086-0.409c-0.022-0.194-0.065-0.452-0.108-0.818
		c-0.043-0.366-0.086-0.84,0.215-0.861c0.302-0.022,0.949,0.409,1.617,0.71c0.668,0.301,1.358,0.474,2.306,0.56
		c0.948,0.086,2.156,0.086,3.125,0.194c0.97,0.108,1.703,0.323,2.522,0.624c0.819,0.301,1.724,0.689,2.457,1.033
		c0.733,0.344,1.293,0.646,1.573,0.926c0.28,0.28,0.28,0.539,0.345,0.345c0.065-0.194,0.194-0.84,0.323-1.313
		c0.129-0.474,0.259-0.775,0.517-1.012c0.259-0.237,0.647-0.409,1.115-0.431c0.469-0.022,1.018,0.107,1.384,0.194
		c0.366,0.086,0.55,0.129,0.922,0.323c0.372,0.194,0.933,0.538,1.407,0.754c0.474,0.215,0.862,0.301,1.229,0.409
		c0.366,0.108,0.711,0.237,0.884,0.086c0.172-0.151,0.172-0.581,0.258-1.033c0.086-0.452,0.259-0.926,0.367-1.313
		c0.108-0.388,0.151-0.689,0.453-0.861c0.302-0.172,0.862-0.215,1.229-0.388c0.366-0.172,0.539-0.474,0.884-0.624
		c0.345-0.151,0.862-0.151,1.401-0.194c0.539-0.043,1.099-0.129,1.444-0.086c0.345,0.043,0.474,0.215,0.948,0.431
		c0.474,0.215,1.294,0.474,2.069,0.517c0.776,0.043,1.509-0.129,2.242-0.345c0.733-0.215,1.466-0.474,2.414-0.882
		c0.949-0.409,2.113-0.969,3.061-1.55c0.948-0.581,1.681-1.184,2.501-1.787c0.819-0.603,1.725-1.206,2.78-1.938
		c1.056-0.732,2.263-1.593,3.582-2.702c1.319-1.109,2.748-2.465,4.343-3.864c1.595-1.4,3.355-2.842,5.4-4.833
		c2.044-1.992,4.372-4.532,6.657-7.116c2.285-2.584,4.527-5.21,6.919-7.923c2.393-2.713,4.936-5.511,7.07-7.815
		c2.134-2.304,3.859-4.112,5.152-5.383c1.293-1.27,2.156-2.002,2.587-2.368c0.431-0.366,0.431-0.366,0.345-0.732
		c-0.086-0.366-0.259-1.098-0.043-2.002c0.216-0.904,0.819-1.981,1.552-2.927c0.733-0.946,1.595-1.762,2.716-2.774
		c1.121-1.012,2.5-2.22,3.341-2.953c0.841-0.733,1.142-0.991,1.573-1.099c0.431-0.108,0.992-0.064,1.466-0.086
		c0.474-0.022,0.862-0.108,1.164-0.366c0.301-0.258,0.517-0.689,0.862-0.99c0.345-0.301,0.819-0.474,1.207-0.797
		c0.388-0.323,0.69-0.797,0.991-1.227c0.302-0.431,0.604-0.818,0.905-1.206c0.302-0.388,0.604-0.775,0.819-1.335
		c0.216-0.56,0.345-1.292,0.561-1.938c0.215-0.646,0.517-1.206,0.798-1.636c0.28-0.431,0.539-0.732,0.647-1.141
		c0.108-0.409,0.064-0.926,0.151-1.486c0.086-0.56,0.302-1.163,0.539-1.83c0.237-0.668,0.496-1.399,0.56-2.088
		c0.065-0.689-0.065-1.335,0.043-1.938c0.108-0.603,0.453-1.163,0.884-1.765c0.431-0.603,0.949-1.249,1.229-1.873
		c0.28-0.624,0.323-1.227,0.56-2.174c0.237-0.947,0.668-2.239,0.981-3.186C196.218,78.731,196.412,78.128,196.315,77.827z
		 M153.236,111.693c-0.237,0.323-0.582,0.323-0.884,0.323c-0.302,0-0.56,0-0.647,0.151c-0.086,0.151,0,0.452,0.043,0.71
		c0.043,0.258,0.043,0.474-0.022,0.732c-0.065,0.258-0.194,0.56-0.41,0.775c-0.216,0.215-0.517,0.345-0.798,0.452
		c-0.28,0.108-0.539,0.194-0.668,0.366c-0.129,0.172-0.129,0.431-0.108,0.689c0.022,0.258,0.065,0.517,0.086,0.775
		c0.022,0.258,0.022,0.517-0.151,0.689c-0.173,0.172-0.517,0.258-0.841,0.323c-0.323,0.065-0.625,0.108-0.949,0.237
		c-0.323,0.129-0.668,0.345-0.97,0.56c-0.302,0.215-0.56,0.43-0.862,0.495c-0.302,0.065-0.647-0.022-1.035,0.022
		c-0.388,0.043-0.819,0.216-1.121,0.345c-0.302,0.129-0.474,0.215-0.776,0.237c-0.302,0.022-0.733-0.022-1.035,0.064
		c-0.302,0.086-0.474,0.302-0.744,0.582c-0.269,0.28-0.636,0.624-0.851,0.872c-0.216,0.248-0.281,0.398-0.453,0.56
		c-0.172,0.162-0.453,0.334-0.625,0.485c-0.172,0.151-0.237,0.28-0.216,0.42c0.021,0.14,0.129,0.291,0.183,0.43
		c0.054,0.14,0.054,0.269,0.022,0.463c-0.032,0.194-0.097,0.452-0.194,0.657c-0.097,0.204-0.226,0.355-0.409,0.441
		c-0.183,0.086-0.42,0.108-0.539,0.355c-0.118,0.248-0.118,0.721-0.14,1.023c-0.022,0.301-0.065,0.431-0.216,0.495
		c-0.151,0.064-0.409,0.064-0.711,0.064c-0.302,0-0.647,0-0.927-0.108c-0.28-0.108-0.496-0.323-0.733-0.56
		c-0.237-0.237-0.496-0.495-0.776-0.624c-0.28-0.129-0.582-0.129-0.776-0.323c-0.194-0.194-0.28-0.581-0.517-0.969
		c-0.237-0.388-0.625-0.775-1.282-1.399c-0.658-0.624-1.585-1.485-2.091-2.002c-0.507-0.517-0.593-0.689-0.938-0.84
		c-0.345-0.151-0.949-0.28-1.25-0.56c-0.302-0.28-0.302-0.711-0.302-1.163c0-0.452,0-0.926-0.108-1.399
		c-0.108-0.474-0.323-0.947-0.711-1.313c-0.388-0.366-0.948-0.624-1.336-0.904c-0.388-0.28-0.603-0.581-0.453-0.861
		c0.151-0.28,0.668-0.538,1.315-0.668c0.647-0.129,1.423-0.129,1.875-0.301c0.453-0.172,0.582-0.517,0.862-0.775
		c0.28-0.258,0.712-0.431,0.905-0.754c0.194-0.323,0.151-0.797,0.086-1.163c-0.064-0.366-0.151-0.624-0.129-0.818
		c0.022-0.194,0.151-0.323,0.604-0.56c0.452-0.237,1.228-0.581,1.767-0.99c0.539-0.409,0.841-0.883,1.294-1.335
		c0.453-0.452,1.056-0.883,1.681-1.378c0.625-0.495,1.272-1.055,1.962-1.593c0.69-0.538,1.423-1.055,1.983-1.27
		c0.56-0.215,0.948-0.129,1.142-0.129c0.194,0,0.194-0.086,0.323-0.258c0.129-0.172,0.388-0.431,0.798-0.495
		c0.41-0.065,0.97,0.065,1.272-0.086c0.302-0.151,0.345-0.581,0.733-0.775c0.388-0.194,1.121-0.151,1.595,0.022
		c0.474,0.172,0.69,0.474,0.948,0.882c0.259,0.409,0.56,0.926,1.186,1.701c0.625,0.775,1.573,1.809,2.393,2.67
		c0.819,0.861,1.509,1.55,2.091,2.11c0.582,0.56,1.056,0.99,1.38,1.399c0.323,0.409,0.496,0.797,0.517,1.313
		C153.603,110.724,153.473,111.37,153.236,111.693z"/>
</g>
</svg>
