<?xml version="1.0" encoding="utf-8"?>
<!-- Generator: Adobe Illustrator 26.0.3, SVG Export Plug-In . SVG Version: 6.00 Build 0)  -->
<svg version="1.1" xmlns="http://www.w3.org/2000/svg" xmlns:xlink="http://www.w3.org/1999/xlink" x="0px" y="0px"
	 viewBox="0 0 200 200" enable-background="new 0 0 200 200" xml:space="preserve">
<g id="Layer_1">
	<g id="Layer_1_00000075879624959596184900000007102216081240906125_">
		<g id="Layer_1_00000107551159852787612550000017757744099325915571_">
			<g id="Layer_1_00000128480095285341338950000008464522443776971395_">
			</g>
		</g>
	</g>
</g>
<g id="Isolation_Mode">
	<g>
		<path fill="#1E8346" d="M194.471,57.166c-0.077-0.148-0.075-0.35-0.172-0.503c-0.168-0.264-0.583-0.316-0.743-0.579
			c-0.135-0.223,0.071-0.34,0-0.595c-0.089-0.316-0.435-0.302-0.656-0.497c-0.287-0.253-0.284-0.545-0.358-0.897
			c-0.147-0.698-0.369-1.395-0.102-2.085c0.199-0.515-0.24-0.337-0.623-0.657c-0.083-0.07-0.105-0.194-0.17-0.28
			c-0.134-0.181-0.284-0.231-0.489-0.321c-0.326-0.144-0.647-0.273-0.899-0.536c-0.132-0.138-0.236-0.372-0.391-0.48
			c-0.176-0.122-0.421-0.108-0.623-0.184c-0.289-0.108-0.665-0.536-0.743-0.857c-0.1-0.409,0.401-0.81,0.575-1.128
			c0.374-0.683,0.447-1.648-0.165-2.195c-0.173-0.154-0.411-0.253-0.558-0.428c-0.153-0.181-0.172-0.46-0.307-0.656
			c-0.25-0.365-0.774-0.356-0.921-0.796c-0.12-0.357-0.091-0.842-0.115-1.219c-0.021-0.336-0.061-1.019-0.586-0.849
			c-0.276,0.089-0.272,0.272-0.61,0.125c-0.194-0.084-0.258-0.31-0.448-0.102c-0.132,0.145-0.083,0.511-0.158,0.704
			c-0.078,0.201-0.188,0.4-0.282,0.601c-0.233-0.152-0.158-0.531-0.354-0.71c-0.134-0.123-0.446-0.157-0.586-0.018
			c-0.102-0.174-0.152-0.366-0.234-0.552c-0.1-0.226-0.263-0.423-0.295-0.675c-0.051-0.392,0.452-0.596,0.379-0.951
			c-0.072-0.351-0.827-0.308-1.089-0.534c-0.356-0.307-0.195-0.886-0.523-1.25c-0.406-0.449-1.083-0.579-1.61-0.825
			c-0.263-0.123-0.544-0.223-0.785-0.39c-0.226-0.157-0.37-0.445-0.599-0.584c-0.489-0.297-1.342-0.303-1.891-0.346
			c-0.778-0.062-1.629-0.245-1.967-1.054c-0.124-0.297-0.109-0.739-0.331-0.988c-0.274-0.309-0.965-0.3-1.338-0.303
			c-0.691-0.006-1.384,0.113-2.068,0.095c-0.317-0.008-0.447-0.123-0.688-0.351c-0.358-0.337-0.874-0.592-1.315-0.809
			c-0.317-0.156-0.8-0.291-1.162-0.278c-0.25,0.009-0.42,0.123-0.641,0.22c-0.148,0.066-0.416,0.212-0.578,0.176
			c-0.156-0.035-0.26-0.219-0.37-0.349c-0.151-0.177-0.364-0.366-0.443-0.589c-0.102-0.289,0.066-0.661-0.051-0.932
			c-0.132-0.305-0.876-0.598-1.176-0.728c-0.257-0.112-1.149-0.533-1.405-0.386c-0.102,0.058-0.128,0.335-0.194,0.429
			c-0.156,0.225-0.355,0.263-0.635,0.214c-0.57-0.098-0.919-0.52-1.322-0.886c-0.28-0.254-0.757-0.371-0.971-0.67
			c-0.244-0.341-0.082-0.928-0.116-1.319c-0.045-0.531-0.307-0.683-0.769-0.862c-0.216-0.084-0.465-0.099-0.673-0.19
			c-0.232-0.102-0.392-0.31-0.609-0.444c-0.198-0.123-0.378-0.197-0.607-0.26c-0.3-0.083-0.279-0.138-0.49-0.363
			c-0.282-0.3-0.858-0.227-1.165,0.021c-0.439,0.354-0.521,0.088-0.92-0.164c-0.168-0.107-0.672-0.281-0.835-0.141
			c-0.125,0.107-0.047,0.564-0.047,0.721c0,0.557,0.192,1.424-0.088,1.93c-0.28-0.096-0.431-0.471-0.705-0.571
			c-0.386-0.141-0.328,0.319-0.552,0.56c-0.229,0.246-0.703,0.608-1.034,0.692c-0.356,0.091-0.669-0.22-0.907-0.434
			c-0.711-0.638-1.354-1.246-1.931-2.005c-0.293-0.386-0.577-0.794-0.988-1.062c-0.422-0.276-0.848-0.141-1.312-0.268
			c0.051-0.488-0.394-0.29-0.618-0.592c-0.09-0.121-0.042-0.708-0.305-0.634c-0.1,0.028-0.152,0.376-0.197,0.461
			c-0.113,0.209-0.275,0.395-0.476,0.523c-0.399,0.253-0.843,0.373-1.296,0.457c0.113-0.196,0.385-0.414,0.458-0.613
			c0.112-0.307-0.041-0.314-0.261-0.4c-0.445-0.174-0.949-0.244-1.377-0.445c-0.453-0.213-0.52-0.681-0.474-1.151
			c0.082-0.844,0.858-1.165,1.484-1.545c0.543-0.329,0.685-0.953,0.633-1.578l-26.84,4.03c0.401,0,0.685,0.505,1.029,0.636
			c0.582,0.222,0.907,0.334,1.407,0.725c0.482,0.377,1.054,0.768,1.286,1.376c0.241,0.632-0.32,1.166-0.421,1.779
			c-0.136,0.828-0.654,1.632-0.952,2.436c-0.28,0.755-0.556,1.321-1.249,1.753c-0.602,0.375-0.94,1.036-1.421,1.598
			c-0.531,0.621-0.876,1.34-1.375,1.975c-0.437,0.554-1.063,1.008-1.264,1.712c-0.176,0.614,0.128,1.233,0.086,1.844
			c-0.246,0.174-0.346,0.128-0.545-0.09c-0.28-0.307-0.483-0.653-0.945-0.653c-0.233,0-0.443,0.026-0.643,0.16
			c-0.145,0.097-0.242,0.214-0.416,0.265c-0.155,0.046-0.344,0.1-0.506,0.076c-0.165-0.025-0.276-0.15-0.426-0.217
			c-0.041,0.127,0.085,0.404,0.153,0.518c0.068,0.114,0.184,0.213,0.29,0.291c0.184,0.135,0.304,0.272,0.337,0.503
			c0.033,0.231,0.067,0.459,0.17,0.674c0.084,0.175,0.206,0.332,0.319,0.488c0.094,0.13,0.165,0.291,0.284,0.401
			c0.27,0.249-0.011,1.11,0.072,1.465c0.054,0.231,0.164,0.457,0.272,0.667c0.031,0.06,0.04,0.115,0.09,0.169
			c0.094,0.104,0.098,0.055,0.194,0.106c0.147,0.08,0.22,0.108,0.317,0.268c0.049,0.081,0.069,0.187,0.126,0.264
			c0.054,0.074,0.163,0.12,0.192,0.213c0.057,0.185-0.154,0.333-0.228,0.487c-0.144,0.299-0.309,0.636-0.409,0.952
			c-0.173,0.551-0.218,1.227-0.218,1.804c0,0.567,0.348,0.873,0.307,1.513c-0.03,0.467-0.15,1.04-0.431,1.396
			c-0.223,0.284-0.888,0.683-0.778,1.198c0.114,0.535,0.799,0.441,0.767,1.178c-0.034,0.788-0.215,0.769,0.145,1.513
			c0.229,0.474,0.199,0.913,0.123,1.417c-0.019,0.126-0.141,0.481-0.116,0.583c0.07,0.277,0.244,0.184,0.378,0.422
			c0.157,0.277,0.101,0.417,0.156,0.681c0.023,0.107-0.069,0.219-0.038,0.349c0.031,0.127,0.276,0.203,0.324,0.33
			c0.209,0.541-0.075,0.799-0.348,1.064c-0.069,0.067,0.041,0.231-0.059,0.305c-0.161,0.119-0.281-0.022-0.414,0.023
			c-0.446,0.152-0.425-0.015-0.583,0.544c-0.149,0.526-0.343,0.69-0.598,1.152c-0.276,0.501-0.177,1.084-0.302,1.618
			c-0.083,0.357-0.299,0.48-0.418,0.799c-0.101,0.269,0,0.577-0.072,0.849c-0.15,0.565-0.476,0.856-0.424,1.484
			c0.019,0.226,0.134,0.427,0.145,0.662c0.019,0.4-0.181,0.457-0.266,0.806c-0.111,0.454,0.089,0.579-0.171,1.01
			c-0.214,0.355-0.339,0.337-0.394,0.763c-0.037,0.281,0.092,0.664,0.005,0.93c-0.063,0.194-0.266,0.208-0.341,0.385
			c-0.075,0.179-0.02,0.349-0.069,0.522c-0.179,0.642-0.425,1.194-0.513,1.881c-0.084,0.653,0.199,0.998,0.502,1.547
			c0.054,0.098,0.179,0.16,0.202,0.279c0.06,0.309-0.105,0.239-0.11,0.491c-0.005,0.295,0.298,0.49-0.02,0.771
			c0.26,0.453,0.606,0.552,0.4,1.109c-0.088,0.237-0.17,0.285,0.013,0.491c0.195,0.219,0.397,0.192,0.668,0.203
			c0.123,0.214,0.076,0.559,0.052,0.798c0.326,0.186,0.728,0.083,1.082,0.156c0.244,0.05,0.633,0.11,0.84,0.217
			c0.383,0.197,0.491,0.781,0.881,1.026c0.398,0.251,0.79,0.355,1.257,0.309c0.392-0.038,0.291,0.048,0.367,0.421
			c0.054,0.264,0.211,0.454,0.3,0.699c0.2,0.552,0.97,0.955,1.393,1.308c0.538,0.449,0.944,0.973,1.424,1.482
			c0.225,0.238,0.42,0.384,0.569,0.684c0.165,0.333,0.27,0.652,0.365,1.009c0.042,0.158,0.12,0.477,0.252,0.59
			c0.266,0.229,0.759-0.004,1.078,0.073c0.356,0.086,0.391,0.359,0.779,0.235c0.423-0.135,0.779-0.15,1.223-0.178
			c0.286-0.019,0.625-0.257,0.838-0.079c0.274,0.229,0.167,0.542,0.555,0.648c0.313,0.085,0.675-0.01,0.987,0.07
			c0.296,0.075,0.514,0.275,0.771,0.415c0.257,0.141,0.654,0.346,0.962,0.26c0.266-0.074,0.264-0.253,0.44-0.432
			c0.133-0.135,0.393-0.212,0.286-0.457c-0.078-0.179-0.265-0.127-0.408-0.226c-0.407-0.283-0.46-1.014-0.426-1.451
			c0.019-0.255,0.1-0.675,0.298-0.852c0.224-0.2,0.553-0.23,0.79-0.453c0.142-0.135,0.307-0.474,0.527-0.43
			c0.181,0.036,0.409,0.382,0.626,0.455c0.623,0.209,1.678,0.082,2.237-0.245c0.354-0.207,0.504-0.855,0.927-0.853v21.209
			c-0.15-0.062-0.271-0.162-0.445-0.179c-0.3-0.029-0.528,0.379-0.794,0.418c-0.236,0.035-0.287-0.121-0.463-0.259
			c-0.278-0.218-0.634-0.259-0.95-0.08c-0.245-0.226-0.522-0.734-0.523-1.079c0-0.42,0.365-0.216,0.556-0.513
			c0.175-0.272,0.001-0.701,0.181-0.994c0.108-0.176,0.18-0.215,0.21-0.43c0.026-0.193,0.003-0.45-0.12-0.604
			c-0.424,0.213-0.981,0.553-1.262-0.088c-0.897,0.263-1.773,0.692-2.415,1.379c-0.213,0.228-0.354,0.33-0.665,0.414
			c-0.378,0.103-0.588,0.132-0.755,0.502c-0.209,0.012-0.553,0.06-0.667-0.154c-0.083,0.703-0.857,1.107-1.439,1.403
			c-0.154,0.079-0.478,0.297-0.649,0.219c-0.193-0.087-0.341-0.641-0.493-0.817c-0.623-0.72-1.314-0.04-1.952,0.243
			c-0.139,0.062-0.4,0.203-0.553,0.089c-0.226-0.169,0.004-0.336-0.004-0.507c-0.016-0.301-0.089-0.105-0.334-0.268
			c-0.16-0.106-0.282-0.41-0.385-0.581c-0.285-0.473-0.299-1.05-0.402-1.584c-0.137-0.717-0.332-0.993-0.95-1.331
			c-0.429-0.234-0.482-0.6-0.508-1.075c-0.019-0.334,0.052-0.691,0.001-1.022c-0.053-0.339-0.299-0.616-0.502-0.88
			c-0.191-0.249-0.346-0.397-0.591-0.567c-0.188-0.13-0.486-0.316-0.534-0.544c-0.135-0.633-0.891-1.588-1.656-1.352
			c-0.328,0.101-0.405,0.703-0.61,0.963c-0.38,0.481-0.635,0.049-0.697-0.375c-0.043-0.292,0.01-0.543-0.138-0.819
			c-0.193-0.359-0.525-0.467-0.813-0.72c-0.408-0.358-0.748-0.958-0.03-1.188c0.241-0.077,0.515-0.003,0.634-0.281
			c0.062-0.145,0.078-0.476,0.031-0.627c-0.082-0.265-0.395-0.491-0.581-0.686c-0.215-0.226-0.515-0.394-0.717-0.623
			c-0.178-0.203-0.063-0.472-0.199-0.675c-0.148-0.22-0.543-0.462-0.751-0.621c-0.249-0.19-0.55-0.311-0.786-0.517
			c-0.128-0.111-0.227-0.232-0.375-0.322c-0.299-0.184-0.633-0.091-0.87-0.313c-0.248,0.18-0.506,0.389-0.778,0.146
			c-0.143-0.128-0.179-0.393-0.33-0.494c-0.214-0.142-0.621,0.061-0.768,0.234c-0.156,0.185-0.226,0.605-0.546,0.372
			c-0.41-0.299-0.171-1.041-0.677-1.237c-0.511-0.199-1.229-0.14-1.683,0.137c-0.196-0.289-0.04-0.612-0.118-0.929
			c-0.065-0.264-0.433-0.417-0.419-0.686c0.013-0.227-0.119-0.329-0.31-0.363c-0.246-0.044-0.514-0.027-0.762-0.055
			c-0.214-0.024-0.454-0.099-0.63,0.053c-0.258,0.223-0.307,0.771-0.661,0.898c-0.159,0.057-0.46-0.001-0.63-0.009
			c-0.222-0.01-0.45,0.007-0.671-0.009c-0.472-0.033-0.887-0.181-1.127-0.59c-0.146-0.25-0.229-0.557-0.462-0.708
			c-0.236-0.153-0.543-0.218-0.78-0.371c-0.279-0.179-0.278-0.509-0.406-0.795c-0.164-0.363-0.299-0.734-0.431-1.111
			c-0.067-0.191-0.138-0.188-0.235-0.326c-0.068-0.097-0.054-0.192-0.054-0.326c0.003-0.514-0.076-1.141-0.396-1.555
			c-0.414-0.536-0.91-0.983-1.421-1.429c-0.355-0.31-0.767-0.475-1.206-0.65c-0.276-0.109-0.65-0.212-0.847-0.454
			c-0.309-0.38-0.192-1.139-0.245-1.608c-0.062-0.548-0.007-0.941-0.323-1.421c-0.144-0.219-0.521-0.079-0.774-0.087
			c-0.228-0.006-0.443-0.039-0.67-0.042c-0.42-0.006-0.725-0.047-1.119,0.128c-0.353,0.157-0.435,0.36-0.29,0.711
			c0.119,0.286,0.393,0.901,0.259,1.184c-0.158,0.333-0.576,0.399-0.622,0.805c-0.048,0.423,0.108,0.928-0.002,1.339
			c-0.061,0.226-0.289,0.422-0.41,0.619c-0.094,0.154-0.185,0.358-0.312,0.49c-0.11,0.114-0.23,0.154-0.379,0.197
			c-0.261,0.075-0.306,0.135-0.507,0.304c-0.179,0.15-0.318,0.364-0.539,0.468c-0.389,0.184-0.844-0.016-1.213-0.148
			c-0.221-0.079-0.355-0.105-0.548,0.034c-0.115,0.083-0.181,0.192-0.287,0.279c-0.138,0.113-0.318,0.162-0.455,0.279
			c-0.264,0.02-0.547,0.029-0.806-0.015c-0.049-0.153-0.397-0.233-0.538-0.327c-0.236-0.158-0.447-0.256-0.732-0.258
			c-0.391-0.002-0.93,0.107-1.271-0.128c-0.188-0.13-0.25-0.307-0.477-0.396c-0.279-0.11-0.682-0.204-0.962-0.101
			c-0.376,0.138-0.656,0.372-1.067,0.389c-0.689,0.029-1.321-0.216-1.995-0.215c-1.343,0.003-2.678,0.122-4.016,0.18
			c0.008-0.184,0.171-0.3,0.138-0.499c-0.038-0.23-0.298-0.441-0.517-0.51c-0.263-0.084-0.492,0.112-0.707-0.099
			c-0.148-0.146-0.298-0.505-0.381-0.699c-0.157-0.368-0.089-0.458-0.538-0.347c-0.585,0.144-1.225,0.049-1.818-0.039
			c-0.384-0.057-0.574-0.071-0.804-0.368c-0.159-0.205-0.288-0.428-0.441-0.634c-0.285-0.383-0.887-0.321-1.318-0.307
			c-0.095,0.331-0.161,0.479-0.474,0.647c-0.273,0.146-0.785,0.476-0.989,0.094c-0.14-0.262,0.067-0.561,0.073-0.838
			c0.01-0.439-0.285-0.622-0.666-0.796c-0.413-0.188-0.824-0.362-1.236-0.565c-0.475-0.234-0.668-0.297-0.845-0.81
			c-0.113-0.328-0.263-0.634-0.383-0.958c-0.116-0.315,0.04-0.439,0.301-0.633c0-0.331-0.039-0.734-0.166-1.041
			c-0.144-0.346-0.594-0.613-0.564-1.017c0.032-0.426,0.565-0.279,0.684-0.658c0.079-0.252-0.276-0.442-0.148-0.647
			c0.077-0.123,0.318-0.148,0.43-0.255c-0.062-0.233-0.345-0.327-0.175-0.561c0.1-0.138,0.178-0.127,0.237-0.324
			c0.022-0.073,0.101-0.265,0.091-0.34c-0.06-0.471-1.164-0.241-1.458-0.092c-0.536,0.27-1.043,0.596-1.601,0.829
			c-1.095,0.457-2.307-0.262-3.448-0.033c-0.263,0.053-0.516,0.149-0.772,0.23c-0.268,0.086-0.264,0.116-0.43,0.316
			c-0.252,0.305-0.864,0.218-1.255,0.282c-0.207,0.034-0.629,0.054-0.77,0.22c-0.093,0.109-0.064,0.226-0.204,0.328
			c-0.175,0.127-0.437,0.08-0.604,0.223c-0.15,0.129-0.386,0.424-0.481,0.59c-0.274,0.48-0.742,0.481-1.143,0.771
			c0.084,0.552-0.707,0.451-1.057,0.451c-0.28,0-0.57-0.023-0.849,0.003c-0.125,0.012-0.327,0.111-0.45,0.054
			c-0.146-0.067-0.205-0.317-0.315-0.431c-0.213-0.22-0.646-0.347-0.939-0.355c-0.16-0.004-1.327,0.03-0.98-0.328
			c0.092-0.095,0.309-0.132,0.421-0.223c0.184-0.149,0.312-0.347,0.466-0.525c0.378-0.436,0.74-0.92,0.818-1.511
			c0.027-0.207,0.046-0.435-0.038-0.623c-0.093-0.205-0.286-0.338-0.347-0.567c-0.059-0.22-0.024-0.477-0.024-0.705
			c0-0.199,0.056-0.6-0.036-0.774c-0.085-0.16-0.363-0.279-0.518-0.375c-0.308-0.19-0.52-0.342-0.884-0.352
			c-0.417-0.012-0.92,0.162-1.275-0.039c-0.127-0.072-0.199-0.164-0.345-0.203c-0.237-0.063-0.425,0.01-0.635,0.104
			c-0.424-0.402-0.415-1.155-0.465-1.684c-0.05-0.539-0.936-0.754-1.401-0.771c-0.216-0.008-0.492-0.006-0.631,0.195
			c-0.242,0.349,0.217,0.551,0.387,0.792c0.182,0.259,0.032,0.408-0.091,0.677c-0.194,0.422-0.054,0.562,0.04,0.977
			c0.058,0.253,0.069,0.574-0.017,0.812c-0.081,0.224-0.199,0.321-0.049,0.537c0.104,0.149,0.245,0.189,0.313,0.37
			c0.111,0.293,0.05,0.664,0.075,0.972c0.043,0.526-0.096,1.159,0.084,1.663c0.163,0.452,0.493,0.82,0.611,1.3
			c0.083,0.335-0.249,0.514-0.508,0.693c-0.226,0.157-0.324,0.144-0.338,0.421c-0.02,0.41,0.085,0.813,0.086,1.226l-1.115,1.994
			c-0.02,0.28,0.314,0.654,0.422,0.916c0.175,0.42,0.249,0.823,0.376,1.256c0.1,0.338,0.215,0.651-0.005,0.963
			c-0.103,0.146-0.262,0.243-0.343,0.402l-0.043,5.124l1.222,1.437c0.046,0.112,0.11,0.407,0.087,0.537
			c-0.031,0.182-0.258,0.251-0.296,0.378c-0.044,0.148,0.192,0.388,0.258,0.523c0.105,0.217,0.101,0.357,0.058,0.602
			c-0.185,1.05-1.184,1.497-1.768,2.291c-0.236,0.321-0.082,0.675-0.097,1.051c-0.015,0.399-0.252,0.616-0.388,0.964
			c-0.109,0.278,0.033,0.574-0.016,0.85c-0.041,0.233-0.283,0.603-0.432,0.8c0,0.474-0.228,0.993-0.108,1.457
			c0.091,0.353,0.613,0.754,0.935,0.837c0.411,0.105,0.614,0.307,0.889,0.64c0.261,0.316,0.39,0.818,0.686,1.097L6.723,97.144
			v53.237c0.261,0.217,0.574,0.349,0.841,0.567c0.372,0.303,0.594,0.715,0.556,1.188c-0.02,0.25,0.017,0.314,0.201,0.476
			c0.078,0.068,0.178,0.129,0.244,0.209c0.147,0.181,0.116,0.411,0.178,0.623c0.035,0.12,0.091,0.23,0.114,0.354
			c0.035,0.186,0.02,0.247-0.062,0.395c-0.097,0.177-0.041,0.207,0.044,0.381c0.066,0.137,0.009,0.256,0.048,0.39
			c0.05,0.171,0.286,0.275,0.393,0.424c0.159,0.221,0.309,0.438,0.481,0.65c0.259,0.321,0.585,0.371,0.958,0.503
			c0.231,0.082,0.267,0.42,0.387,0.617c0.113,0.185,0.293,0.223,0.484,0.32c0.295,0.149,0.483,0.348,0.628,0.655
			c0.055,0.117,0.05,0.32,0.115,0.414c0.058,0.084,0.236,0.135,0.324,0.183c0.165,0.09,0.282,0.196,0.419,0.332
			c0.345,0.343,0.593,0.76,0.923,1.108c0.171,0.18,0.318,0.248,0.563,0.344c0.107,0.042,0.417,0.11,0.46,0.21
			c0.029,0.067-0.047,0.146-0.053,0.208c-0.033,0.312,0.232,0.395,0.48,0.546c0.364,0.221,0.522,0.533,0.813,0.842
			c0.216,0.229,0.462,0.423,0.643,0.681c0.172,0.247,0.277,0.497,0.425,0.754c0.18,0.313,0.357,0.395,0.691,0.472
			c0.185,0.043,0.461,0.208,0.474,0.426c0.004,0.073-0.09,0.139-0.079,0.204c0.033,0.186,0.461,0.369,0.621,0.485
			c0.143,0.104,0.454,0.243,0.53,0.402c0.057,0.121-0.001,0.406-0.001,0.537c0.213,0.349,0.973,0.484,1.32,0.654
			c0.448,0.219,0.89,0.645,1.243,0.999c0.213,0.213,0.442,0.404,0.665,0.606c0.144,0.13,0.32,0.24,0.435,0.402
			c0.076,0.109,0.063,0.251,0.13,0.351c0.061,0.092,0.098,0.045,0.189,0.116c0.084,0.066,0.099,0.109,0.157,0.214
			c0.096,0.174,0.208,0.324,0.31,0.494c0.093,0.154,0.12,0.288,0.278,0.384c0.249,0.15,0.465,0.189,0.635,0.456
			c0.313,0.49,0.757,0.849,1.172,1.259c0.185,0.183,0.393,0.445,0.646,0.519c0.401,0.117,0.976-0.016,1.31,0.265
			c0.503,0.183,1.026,0.296,1.311,0.782c0.108,0.185,0.187,0.386,0.318,0.561l13.134-2.709c0.234,0.43,0.968,0.485,1.439,0.322
			c0.569-0.198,0.836-0.522,1.458-0.235c0.326,0.151,0.647,0.113,0.973,0.22c0.232,0.076,0.492,0.199,0.712,0.301
			c0.291,0.136,0.258,0.332,0.573,0.386c0.307,0.053,0.628-0.045,0.878-0.205c0.108-0.069,0.203-0.239,0.309-0.292
			c0.265-0.133,0.827-0.05,1.144-0.005c0.267,0.038,0.534,0.052,0.803,0.081c0.286,0.031,0.222,0.048,0.41,0.2
			c0.194,0.157,0.119,0.172,0.44,0.084c0.236-0.065,0.44-0.108,0.709-0.085c0.169,0.015,0.28,0.001,0.422,0.113
			c0.137,0.108,0.145,0.254,0.279,0.364c0.369,0.302,0.926,0.035,1.272,0.41c0.122,0.132,0.203,0.309,0.376,0.37
			c0.211,0.074,0.561-0.08,0.72,0.122c0.088,0.112,0.051,0.271,0.133,0.395c0.07,0.104,0.256,0.227,0.347,0.325
			c0.183,0.197,0.294,0.258,0.338,0.498c0.083,0.444-0.087,0.42,0.389,0.491c0.427,0.064,0.389,0.324,0.646,0.627
			c0.199,0.234,0.458,0.33,0.754,0.445c0.916,0.357,1.778,1.06,2.755,1.208c0.917,0.139,1.834,0.235,2.762,0.149
			c0.397-0.036,0.807-0.06,1.19-0.169c0.304-0.087,0.626-0.481,0.936-0.46c0.181,0.155,0.236,0.32,0.47,0.422
			c0.23,0.101,0.433,0.113,0.647,0.25c0.428,0.274,1.108,0.511,1.398,0.929c0.266,0.383,0.086,1.038,0.517,1.317
			c0.32,0.208,0.933,0.25,1.309,0.255c0.353,0.005,0.59-0.159,0.92-0.241c0.329-0.082,0.787,0.055,1.093-0.103
			c0.374-0.192,0.262-0.451,0.247-0.765c0.566-0.147,1.047-0.445,1.574-0.686c0.152-0.069,0.133-0.122,0.272-0.092
			c0.113,0.024,0.308,0.257,0.419,0.316c0.344,0.184,0.657,0.376,1.053,0.428c0.458,0.061,0.92,0.073,1.38,0.12
			c0.375,0.038,0.691,0.236,1.025,0.414c0.217,0.116,0.445,0.264,0.688,0.316c0.36,0.076,0.793-0.073,1.071,0.17
			c0.189,0.165,0.224,0.425,0.335,0.637c0.186,0.355,0.455,0.414,0.812,0.54c0.23,0.081,0.643,0.324,0.892,0.206
			c0.069-0.033,0.143-0.205,0.201-0.26c0.195-0.184,0.41-0.224,0.654-0.31c0.295-0.104,0.596-0.171,0.893-0.261
			c0.402-0.123,0.223-0.34,0.536-0.513c0.181-0.1,0.484-0.05,0.688-0.122c0.195-0.069,0.338-0.146,0.569-0.17
			c0.57-0.059,1.143-0.056,1.698-0.203c0.62-0.165,0.654-0.961,1.144-1.371c0.205-0.172,0.779-0.488,0.791-0.805
			c0.015-0.397-0.462-0.178-0.693-0.179c0.023-0.106,0.106-0.2,0.125-0.312c0.014-0.082-0.05-0.179-0.039-0.267
			c0.036-0.305,0.3-0.654,0.446-0.929c0.395-0.743,1.073-1.083,1.658-1.648c0.432-0.417,0.737-0.939,1.193-1.342
			c0.157-0.139,0.295-0.204,0.485-0.282c0.362-0.148,0.433-0.147,0.538-0.519c-0.277-0.3,0.339-0.643,0.247-0.912
			c-0.325-0.049-0.726,0.227-0.933-0.132c-0.198-0.344,0.107-0.69,0.323-0.927c0.278-0.304,0.633-0.532,0.935-0.811
			c0.178-0.164,0.659-0.462,0.641-0.738c-0.008-0.126-0.167-0.18-0.206-0.289c-0.096-0.269,0.119-0.413,0.352-0.496
			c0.531-0.188,0.79-0.31,1.007-0.848c0.09-0.222,0.161-0.433,0.275-0.646c0.115-0.215,0.177-0.497,0.33-0.702
			c0.284-0.382,0.713-0.667,1.034-1.02c0.14-0.154,0.219-0.351,0.409-0.254c0.311,0.157,0.043,0.57,0.506,0.538
			c0.264-0.018,0.584-0.171,0.481-0.464c-0.086-0.247-0.562-0.374-0.475-0.684c0.093-0.33,0.623-0.4,0.638-0.824
			c-0.201-0.059-0.435,0.095-0.594-0.077c0.127-0.314,0.484-0.497,0.691-0.753c0.224,0.148,0.127,0.366,0.458,0.29
			c0.221-0.05,0.331-0.232,0.398-0.451c0.142-0.011,0.663,0.076,0.768-0.03c0.204-0.206-0.115-0.358-0.237-0.433
			c-0.139-0.087-0.386-0.173-0.389-0.375c-0.004-0.262,0.376-0.344,0.171-0.654c0.234,0.107,0.407,0.097,0.675,0.043
			c0.361-0.073,0.238-0.243,0.297-0.534c0.06-0.301,0.153-0.396,0.472-0.279c0.275,0.1,0.193,0.236,0.384,0.406
			c0.185,0.165,0.558,0.059,0.717,0.262c0.066,0.084,0.012,0.242,0.055,0.338c0.096,0.211,0.286,0.119,0.453,0.244
			c0.201,0.151,0.036,0.311,0.377,0.208c0.169-0.05,0.321-0.219,0.484-0.295c0.352-0.163,0.759-0.284,0.274-0.569
			c-0.153-0.089-0.444-0.27-0.388-0.495c0.043-0.175,0.424-0.306,0.568-0.394c0.501-0.307,1.119-0.574,1.578-0.933
			c-0.038-0.178-0.187-0.238-0.23-0.427c-0.048-0.214-0.017-0.524-0.028-0.746c0.323-0.136,0.953,0.441,1.21,0.174
			c0.141-0.148-0.079-0.485,0.138-0.644c0.229-0.168,0.265,0.082,0.475,0.071c0.121-0.006,0.382-0.253,0.434-0.345
			c0.118-0.211-0.038-0.244-0.025-0.388c0.05-0.547,0.714,0.038,0.92-0.382c0.291,0.165-0.058,0.655,0.265,0.86
			c0.375,0.238,0.732-0.239,0.957-0.456c0.266-0.257,1.548-1.085,1.393-0.208c0.418,0.037,0.266-0.008,0.378-0.265
			c0.108-0.245,0.116-0.276,0.423-0.385c0.269-0.095,0.565-0.13,0.828-0.232c0.273-0.105,0.403-0.3,0.713-0.32
			c0.686-0.045,0.27,0.646,0.634,0.974c0.388,0.349,1.098-0.18,1.399-0.4c0.604-0.439,1.14-1.357,1.119-2.115
			c-0.006-0.217-0.015-0.418-0.106-0.613c-0.084-0.18-0.21-0.276-0.237-0.474c-0.056-0.395,0.327-0.773,0.429-1.143
			c0.111-0.404-0.452-0.833-0.341-1.328c0.061-0.271,0.305-0.37,0.422-0.587c0.15-0.28-0.036-0.539-0.109-0.812
			c-0.093-0.347-0.124-0.56,0.057-0.865c0.182-0.306,0.365-0.624,0.578-0.91c0.142-0.19,0.345-0.548,0.565-0.645
			c0.343-0.151,0.911-0.004,1.274-0.026c0.181-0.01,0.312-0.03,0.41-0.14c0.071-0.079,0.108-0.253,0.175-0.347
			c0.093-0.13,0.232-0.234,0.338-0.353c0.252-0.284,0.541-0.529,0.805-0.79c0.323-0.077,0.637-0.609,0.906-0.799
			c0.382-0.271,0.684-0.417,1.127-0.547c0.46-0.134,0.829-0.376,1.229-0.612c0.514-0.303,1.137-0.458,1.703-0.622
			c0.461-0.134,0.945-0.147,1.384-0.357c0.533-0.256,0.643-0.486,1.223-0.264c0.738,0.283,1.303-0.154,2.015-0.329
			c0.947-0.233,1.76-0.43,2.749-0.272c1.077,0.171,2.143,0.209,3.239,0.174c0.431-0.014,1.043-0.156,1.45,0.049
			c0.263,0.133,0.558,0.379,0.785,0.581c0.321-0.335,0.303-0.534,0.853-0.516c0.439,0.015,0.923,0.251,1.344,0.231
			c0.217-0.01,0.541-0.273,0.632-0.489c0.168-0.4-0.257-0.615-0.453-0.886c-0.252-0.348,0.123-0.724,0.254-1.089
			c0.055-0.153,0.122-0.281,0.08-0.453c-0.057-0.236-0.265-0.308-0.328-0.545c-0.123-0.46,0.126-1.021-0.031-1.472
			c-0.161-0.461-0.819-0.519-1.01-0.956c-0.208-0.065-0.302-0.565-0.383-0.755c-0.074-0.175-0.206-0.345-0.254-0.53
			c-0.047-0.184,0.029-0.393-0.019-0.573c-0.089-0.337-0.447-0.586-0.546-0.937c-0.088-0.312-0.085-0.724-0.084-1.047
			c0.001-0.348-0.272-0.812,0.016-1.114c0.383-0.401,1.523-0.505,2.02-0.581c0.818-0.125,1.583-0.511,2.352-0.808
			c0.867-0.335,1.702-0.74,2.563-1.086c0.806-0.323,1.549-0.782,2.378-1.037c0.39-0.12,0.811-0.121,1.208-0.204
			c0.389-0.082,0.78-0.196,1.154-0.332l8.604-2.287c0.558-0.396,1.153-0.759,1.775-1.055c0.436-0.208,0.82-0.458,1.223-0.692
			c0.335-0.195,0.742-0.187,1.118-0.253c0.499-0.089,1.021-0.149,1.486-0.325c0.552-0.21,0.989-0.637,1.566-0.791
			c0.63-0.167,1.274-0.437,1.875-0.707c0.659-0.296,1.356-0.446,2.051-0.64c0.369-0.103,0.697-0.282,1.058-0.395
			c0.441-0.138,0.961-0.15,1.419-0.201c0.717-0.08,1.532-0.127,2.179-0.485l3.144-1.344l8.689-3.144c0.03-0.374-0.388-1-0.742-1.116
			c-0.312-0.102-0.533,0.111-0.777,0.282c-0.195,0.135-0.487,0.272-0.654,0.448c-0.293,0.307-0.032,0.771-0.596,0.821
			c-0.922,0.081-0.629-0.874-0.629-1.433c-0.31-0.124-0.516,0.053-0.683-0.238c-0.074-0.129-0.083-0.332-0.121-0.477
			c-0.127-0.494-0.447-0.891-0.87-1.18c-0.514-0.352-1.111-0.547-1.626-0.883c-0.647-0.423,0.055-0.528,0.441-0.811
			c0.434-0.318,0.071-0.888-0.232-1.228c-0.489-0.549-0.966-0.109-1.518-0.394c-0.33-0.171-0.922-0.707-0.34-0.974
			c0.31-0.142,0.76,0.034,1.087,0.009c-0.01-0.362,0.558-0.458,0.821-0.579c0.353-0.164,0.727-0.316,0.779-0.735
			c0.072-0.571-0.043-0.847,0.386-1.283c0.363-0.369,0.653-0.716,0.843-1.204c0.257-0.658,0.173-1.327,0.857-1.772
			c0.196-0.128,0.584-0.333,0.545-0.572c-0.027-0.168-0.422-0.514-0.517-0.706c-0.302-0.615,0.044-1.475,0.195-2.102
			c0.156-0.649,0.445-1.38,0.349-2.064c-0.072-0.513-0.658-0.189-0.965-0.556c-0.282-0.337-0.158-0.852-0.179-1.254
			c-0.022-0.419-0.04-0.518,0.305-0.806c0.194-0.163,0.4-0.334,0.518-0.565c0.09-0.175,0.078-0.397,0.177-0.55
			c-0.011-0.414,0.7-1.303,1.158-1.288c0.125,0.004,0.268,0.099,0.402,0.116c0.228,0.029,0.327-0.035,0.498-0.1
			c0.439-0.166,0.435,0.078,0.604,0.498c0.518-0.261,0.792-0.914,1.23-1.284c0.183-0.154,0.768-0.512,0.993-0.491
			c0.211,0.019,0.504,0.344,0.722,0.426c0.491-0.46,0.854-0.923,1.475-1.216c0.359-0.17,0.41-0.47,0.52-0.86
			c0.06-0.212,0.084-0.304,0.263-0.446c0.209-0.166,0.366-0.178,0.426-0.458c0.083-0.39-0.203-0.882-0.6-0.901
			c-0.267-0.012-0.527,0.121-0.783,0.187c-0.222,0.057-0.701,0.31-0.89,0.29c-0.416-0.045-0.684-0.708-0.827-1.025
			c-0.233-0.514-0.349-0.8-0.388-1.36c-0.042-0.595-0.448-0.478-0.786-0.857c-0.192-0.214-0.157-0.255-0.037-0.533
			c0.105-0.244,0.171-0.48,0.251-0.731c0.169-0.53,0.441-1.002,0.543-1.559c0.06-0.327,0.127-0.658,0.173-0.985
			c0.058-0.399-0.122-0.505-0.203-0.855c-0.078-0.335,0.15-0.584,0.231-0.889c0.096-0.362,0.085-0.821,0.05-1.2
			c-0.039-0.417-0.072-0.829-0.171-1.233c-0.089-0.364-0.056-0.967-0.366-1.225c-0.388-0.323-1.078,0.148-0.932-0.654
			c0.051-0.283,0.193-0.537,0.219-0.832c0.021-0.243-0.101-0.435-0.087-0.658c0.051-0.827,0.579-1.099,1.058-1.612
			c0.271-0.29,0.082-0.675,0.277-1.018c0.178-0.312,0.397-0.574,0.627-0.842c0.669-0.777,0.553-1.684-0.081-2.423
			c-0.336-0.391-0.487-0.846-0.751-1.278c-0.079-0.128-0.277-0.308-0.295-0.46c-0.023-0.197,0.108-0.209,0.164-0.382
			c0.086-0.268-0.076-0.726-0.227-0.934c-0.146-0.201-0.412-0.183-0.516-0.39c-0.199-0.394,0.294-0.29,0.502-0.309
			c0.318-0.03,0.399-0.201,0.615-0.443c0.189-0.211-0.035-0.248,0.225-0.328c0.203-0.063,0.453-0.068,0.675-0.102
			c0.363-0.055,0.772-0.012,1.131-0.09c0.353-0.077,0.521-0.411,0.749-0.65c0.336-0.352,0.634-0.733,0.971-1.087
			c0.163-0.171,0.305-0.408,0.481-0.558c0.152-0.129,0.273-0.112,0.457-0.185c0.474-0.188,0.815-0.674,1.116-1.044
			c0.05-0.061,0.14-0.128,0.14-0.217C194.639,57.219,194.526,57.274,194.471,57.166z"/>
		<path fill="#1E8346" d="M109.647,36.144c0.12,0.094,0.261,0.168,0.384,0.26c0.195,0.146,0.408,0.277,0.641,0.365
			c0.146,0.056,0.16,0.043,0.204-0.112c0.037-0.131,0.067-0.258,0.085-0.39c0.036-0.261-0.016-0.636-0.301-0.721
			c-0.216-0.064-0.555-0.072-0.768-0.001c-0.122,0.04-0.478,0.104-0.561,0.315C109.452,35.919,109.543,36.062,109.647,36.144z"/>
	</g>
</g>
<g id="Icon">
</g>
</svg>
