<?xml version="1.0" encoding="utf-8"?>
<!-- Generator: Adobe Illustrator 26.0.3, SVG Export Plug-In . SVG Version: 6.00 Build 0)  -->
<svg version="1.1" id="Layer_1" xmlns="http://www.w3.org/2000/svg" xmlns:xlink="http://www.w3.org/1999/xlink" x="0px" y="0px"
	 viewBox="0 0 200 200" enable-background="new 0 0 200 200" xml:space="preserve">
<g id="Layer_1_00000010280490867600986310000009589832042322163120_">
	<g id="Layer_1_00000061442898653323928190000005571608892069918396_">
		<g id="Layer_1_00000098929087308412571940000004538787532203942811_">
		</g>
	</g>
</g>
<g id="Isolation_Mode">
	<g>
		<path fill="#1E8346" d="M177.748,116.223c0.407-2.345,0.41-4.65,1.05-6.904c0.389-0.616,1.122-0.971,1.528-1.592
			c0.112-1.325,0.405-2.677,0.454-4.046c-0.143-0.176-0.014-0.717-0.348-0.671c-0.283-0.128-0.387-0.53-0.751-0.629
			c-0.136-0.111-0.203-0.313-0.354-0.405c-0.14-0.039-0.159,0.243-0.309,0.096c-0.211-1.036-1.171-2.357-2.32-2.007
			c-0.228,0.035-0.472,0.117-0.652,0.258c-0.2-0.185-0.364-0.487-0.517-0.029c-0.261,0.457-0.603,0.767-0.314,1.325
			c0.051,0.775-0.606,0.213-0.308-0.279c0.028-0.662-0.968-1.129-1.525-1.223c-0.514,0.157-0.83,0.987-1.33,1.039
			c-0.617-0.767,0.854-0.909,0.844-1.544c-0.151-0.264,0.01-0.483,0.018-0.748c-0.107-0.368-0.694-0.317-0.765,0.041
			c-0.095,0.14-0.32-0.009-0.451,0.035c-0.13,0.044-0.523,0.494-0.536,0.129c-0.236-0.63-0.348,0.482-0.487,0.633
			c-0.331,0.185-0.465,0.656-0.749,0.808c-0.298-0.231-1.476-1.233-1.48-0.397c0.079,0.221,0.255,0.518,0.038,0.716
			c-0.095,0.071-0.117-0.061-0.127-0.13c-0.002-0.392-0.54-0.283-0.79-0.479c-0.426-0.08-0.398,0.219-0.365,0.533
			c-0.064,0.159-0.334,0.043-0.28,0.257c0.031,0.407-0.49,0.331-0.391-0.044c-0.003-0.948-0.971-0.671-1.558-0.889
			c-0.14-0.127-0.429-0.25-0.56-0.049c-0.154,0.684-0.574,0.05-0.873-0.187c0.146-0.074,0.036-0.195-0.085-0.212
			c-0.241,0.129-0.418,0.357-0.754,0.225c-0.288,0.007-0.395,0.523-0.715,0.42c0.111-0.147,0.25-0.256,0.114-0.442
			c-0.025-0.122,0.248-0.33,0.141-0.449c-0.132-0.078-0.061,0.289-0.164,0.358c-0.704-0.078-0.144-0.797,0.29-0.892
			c0.088-0.03,0.375-0.167,0.177-0.249c-0.618-0.119-0.948,0.637-1.586,0.609c-0.021-0.289,0.428-0.462,0.225-0.752
			c-0.416-0.397,0.275-0.167,0.474-0.158c0.573-0.049-0.474-0.858-0.624-1.091c-0.087-0.328-0.282-0.45-0.629-0.36
			c-0.279,0.367-0.803,0.211-0.722-0.292c-0.145-0.194-0.478-0.129-0.422-0.467c-0.181-0.098-0.19,0.231-0.339,0.17
			c-0.143-0.229,0.034-0.635-0.409-0.627c-0.669-0.186,0.219-0.318,0.168-0.61c-0.054-0.476-0.448,0.053-0.631,0.171
			c-0.2,0.099-0.54,0.163-0.691-0.05c-0.03-0.121-0.125-0.149-0.237-0.113c-0.19,0.123-0.464,0.054-0.63,0.185
			c-0.043,0.061-0.09,0.402-0.238,0.311c-0.296-0.454,0.031-0.864-0.078-1.142c-0.599-0.591-0.888,0.428-1.44,0.487
			c0.557-1.31,0.603-1.474-0.707-1.613c-0.224-0.168-0.443-0.393-0.736-0.273c-0.123-0.017-0.08-0.086-0.101-0.176
			c-0.168-0.427-0.557-0.012-0.826-0.103c-0.244-0.158-0.284-0.507-0.512-0.688c-0.278-0.155-0.645-0.091-0.882-0.377
			c-0.378-0.136-0.537-0.167-0.71-0.549c-0.082-0.05-0.3-0.096-0.365-0.015c-0.049,0.062-0.012,0.223-0.135,0.152
			c-0.247-0.271-0.316-0.909-0.78-0.768c-0.23-0.286-0.282-1.043-0.805-0.413c-0.057,0.349,0.645,0.124,0.124,0.699
			c0.494,0.632,0.536,1.363,0.342,2.161c-0.222,0.516,0.404,0.962,0.791,1.061c-0.008,0.188-0.275,0.154-0.263,0.324
			c0.013,0.19,0.258,0.299,0.261,0.499c0.003,0.223-0.217,0.467-0.056,0.687c0.197,0.201,0.522,0.366,0.465,0.702
			c-0.031,0.174-0.175,0.557,0.152,0.49c-0.166,0.221-0.142,0.399-0.085,0.632c-0.096,0.153-0.31,0.245-0.422,0.076
			c-0.631-0.305,0.001,0.593,0.007,0.783c0.026,0.79-0.639,1.214-0.782,1.896c-0.086,0.231-0.108,0.494-0.259,0.685
			c-0.099,0.097-0.568,0.239-0.323-0.04c0.25-0.475-0.509-0.199-0.738-0.316c-0.425,0.233-0.891,0.55-0.961-0.158
			c-0.453-0.755-1.563-0.41-1.961,0.233c-0.2,0.536-0.398,1.144-1.08,1.179c0.068-0.241-0.178-0.962,0.302-0.683
			c0.301,0.093,0.306-0.554,0.232-0.749c-0.118-0.324-0.328-0.538-0.418-0.887c-0.447-0.215-0.993-0.255-1.13-0.846
			c0.038-0.871-0.491-1.229-1.3-1.132c0.162-0.516,0.293-1.003-0.285-1.333c-0.287-0.578-0.662-1.287-0.569-1.984
			c0.142-0.41-0.745-1.471-0.759-0.663c0.434,0.352,0.044,0.684-0.29,0.879c-1.065-1.123-2.788,1.415-3.777-0.232
			c-0.456-1.386-2.064-1.042-3.217-1.354c-0.46-0.265-0.768-0.552-1.346-0.454c-0.318-0.295-0.668-0.187-0.933,0.143
			c-0.273,0.211-0.113,0.583-0.356,0.799c-0.293,0.223-0.584,0.509-0.397,0.894c-0.627,0.197-1.34-0.507-1.698,0.318
			c-1.048,0.58-2.487-0.036-3.591,0.352c-1.147,1.32-0.559,3.104,0.873,3.972c0.389,0.556,0.494,1.271,0.878,1.858
			c0.046,0.317-0.364,0.623-0.36,0.908c-0.456,0.532,0.628,0.455,0.793,0.643c0.464,1.104,1.589,1.796,1.983,2.922
			c0.075,0.691-0.253,1.567,0.199,2.167c0.158,0.589-0.545,0.92-0.244,1.476c-0.165,0.377-0.589,0.624-0.401,1.116
			c0.046,1.152,1.54,1.09,2.262,1.578c1.031-0.013,1.975,0.317,2.671,1.182c0.657,1.148,1.665,2.058,2.254,3.252
			c0.189,0.547,0.139,1.245,0.664,1.621c0.544,0.315,0.236-0.286,0.223-0.508c0.125-0.245,0.275,0.123,0.355,0.213
			c1.276,0.57-0.008,0.562-0.313,1.165c-0.038,0.274-0.101,0.54-0.199,0.803c0.042,0.026,0.055,0.084,0.085,0.124
			c-0.59,1.31-0.444,2.897-1.481,4.103c-0.517,1.336-1.82,2.18-2.72,3.198c0.139,0.791,1.228,0.924,1.639,1.567
			c0.537,0.42,0.557,1.078,0.774,1.668c0.395,0.706,1.204,1.132,1.209,2.034c0.456,0.98,1.563,1.466,2.074,2.37
			c0.804,0.964-0.996,2.18,0.004,2.81c0.28,0.185,0.661,0.678,0.596,1.036c-0.074,0.406-0.861-0.181-1.077-0.257
			c-0.836-0.288-0.742,1.296-0.854,1.751c-0.562,0.356-1.56,0.186-2.042-0.205c-0.385-0.277-0.318-0.837-0.683-1.089
			c-0.759-0.79-2.862,0.111-2.855-1.323c-0.385-0.489-1.089-0.711-1.588-1.092c-0.861-0.095-1.208-0.538-0.81-1.336
			c-0.085-0.913-0.138-1.945-0.664-2.718c-0.381-0.505-1.065-0.85-1.033-1.577c-0.021-0.572-0.321-1.08-0.045-1.633
			c-0.15-0.595-0.923-1.105-1.529-1.094c-1.555,0.307-3.283,0.355-4.68,1.183c-0.855,0.484-1.708-0.317-2.523-0.547
			c-0.651-0.304-1.378-0.033-2.027-0.234c-0.692-0.491-1.491-0.125-2.219-0.305c-1.04-1.182-2.615-1.608-3.819-2.488
			c-1.725,0.276-3.404-0.526-5.095-0.523c-1.135,0.527-2.064,1.624-3.32,2.011c-0.156-0.593,0.51-1.301,0.153-1.909
			c-1.006-1.544-1.897-3.203-2.447-4.895c-0.529-0.769-1.588-0.268-2.246,0.034c-1.664-0.352-1.761-2.595-2.093-3.967
			c-0.086-0.832,0.409-1.68,0.12-2.544c-0.625-0.37,0.21-1.622,0.445-2.13c-0.022-0.253-0.106-0.462,0.046-0.692
			c0.021-0.259-0.17-0.51-0.021-0.766c0.23-0.224,0.275-0.42,0.022-0.646c-0.49-1.145,2-1.363,0.898-2.377
			c0.737,0.35,0.721-0.062,0.252-0.506c0.286-0.251,0.149-0.591,0.551-0.761c0.099-0.337,0.692-0.205,0.668-0.566
			c-0.602-0.878,0.401,0.036,0.224-0.616c-0.096-0.133-0.456-0.26-0.298-0.474c0.306-0.246,1.14-0.127,0.83-0.792
			c-0.222-0.143-0.754,0.157-0.867-0.19c0.293-0.481,0.991-0.327,1.481-0.495c0.432-0.128,0.495-0.774,0.933-0.863
			c0.628,0.037,0.564-0.763,0.137-1.012c-0.036-0.594-0.399-1.174-1.088-1.125c-0.505,0.007-0.712-0.631-1.282-0.429
			c-0.426,0.136-0.417,0.911-1.035,0.811c-0.082-0.198,0.203-0.348,0.302-0.467c0.332-0.539-0.775-0.617-1.118-0.649
			c-0.343,0.084-1.411-0.535-1.18,0.1c-1.194-0.297-0.276-1.05,0.454-0.489c0.951,0.643,2.284,0.391,3.391,0.456
			c0.417,0.183,0.937,0.49,1.401,0.371c0.093-0.126-0.102-0.243,0.077-0.326c0.18-0.083,0.412,0.025,0.593-0.043
			c0.247-0.21,0.428-0.706,0.202-0.983c-0.018-0.48,0.193-1.409,0.86-0.993c0.84-0.132,1.771-0.534,2.111-1.421
			c0.548-0.537,0.104-1.213,0.508-1.805c0.147-0.893,1.159-2.269,0.201-2.948c-1.499,0.085-3.306,0.946-4.476-0.433
			c-0.12-0.431-1.095-0.495-0.676-0.964c-0.277-0.165-0.169-0.455,0.141-0.303c0.327,0.284,0.597,0.561,1.064,0.648
			c0.344,0.216,0.811-0.018,1.105,0.27c0.305,0.251,0.509,0.669,0.879,0.823c1.748,0.206,1.679-0.948,2.27-2.171
			c-0.339-0.704,0.375-1.2,0.504-1.849c0.03-1.181-1.947,0.095-1.654-1.213c0.194-0.543,0.936-0.053,1.251-0.448
			c0.159-0.218,0.352-0.543,0.646-0.311c0.27,0.127,0.191,0.43,0.306,0.659c0.273,0.357,0.905,0.315,1.317,0.3
			c0.638,0.333,0.217-0.323,0.172-0.641c0.186,0.196,0.946,0.459,1.048,0.033c-0.064-0.608-0.862-1.009-0.912-1.611
			c0.285,0.49,0.919,0.322,1.2,0.902c0.212,0.192,0.307-0.014,0.27-0.212c0.12-0.175,0.326-0.274,0.148-0.477
			c-0.128-0.306,0.565-0.297,0.72-0.493c0.026-0.395,0.451-0.628,0.495-1.01c-0.502-0.757,0.669-1.472,0.546-2.324
			c-0.105-0.794-0.342-1.552-1.269-1.6c-0.75-0.459-1.375-1.194-1.717-1.935c-0.266,0.04-0.352-0.407-0.588-0.509
			c0.601-0.35,1.629-0.837,1.325-1.704c-0.241-0.429-0.517-0.79-0.986-0.578c0.134-0.215,0.147-0.67,0.249-0.856
			c0.194-1.082-1.398-0.231-1.717-0.687c0.22-0.566-0.71-0.746-0.889-1.251c-0.126-0.149-0.353-0.141-0.348,0.093
			c-0.265,0.11-0.557,0.333-0.85,0.411c-0.358-0.171-0.581-0.152-0.91,0.031c-0.315-0.009-0.642-0.108-0.959-0.023
			c-0.644,0.515-1.258,0.68-0.73,1.54c0.103,0.614,0.224,1.186,0.86,1.495c0.251,0.1,0.677,0.043,0.811,0.334
			c-0.018,0.349-0.59,0.537-0.048,0.82c0.345,0.302-0.366,0.346-0.499,0.584c-0.183,0.478-0.068,1.214,0.185,1.665
			c0.184,0.638-0.014,1.373-0.364,1.896c-0.612-0.781-0.528-2.134-1.212-0.42c0.314,0.295-0.024,0.798,0.437,1.037
			c0.282,0.316,0.965,0.303,1.036,0.784c0.052,0.748-0.545,0.865-0.576,1.537c-0.251,1.351-1.873-1.673-2.475-1.86
			c-0.472-0.346-0.403-1.048-0.415-1.572c1.278,0.476,0.16-1.217-0.06-1.697c-0.05-0.57-0.518-1.144-1.102-1.217
			c-0.583-0.061-0.889-1.182-1.469-0.535c-0.18,0.481-0.282,0.946-0.267,1.458c0.106,0.163,0.163,0.375,0.03,0.546
			c-0.733-0.241,0.135,0.459,0.154,0.747c-0.132,0.409,0.071,0.927-0.198,1.294c-1.047-0.626-0.669-2.24-1.424-3.067
			c-0.142-0.339-0.951-0.415-0.384-0.872c0.126-0.019,0.153,0.196,0.278,0.146c0.149-0.199,0.427-0.196,0.402-0.498
			c0.347-0.36-0.195-0.289-0.381-0.387c-0.19-0.329-0.44-0.252-0.73-0.152c-0.627,0.132-0.485-0.624-0.961-0.464
			c-0.363,0.603-0.233,1.122-1.012,0.384c-0.416-0.083-0.607-0.331-0.58-0.77c0.684-0.331,0.932-0.758,0.089-1.118
			c-0.019-0.319,0.961,0.176,0.784-0.357c-0.06-0.337-0.162-0.75-0.575-0.552c-0.196-0.3-0.115-0.778-0.408-1.07
			c-0.202-0.444-0.849-0.047-0.919-0.539c-0.267-0.395-0.186-0.88-0.433-1.302c-0.188-0.811-0.693-1.433-1.434-1.838
			c-0.116-0.749-0.807-0.771-1.395-0.58c-0.071-0.312,0.18-0.636-0.162-0.856c0.302-0.143,0.711,0.007,0.608-0.499
			c-0.203-0.581,0.386-0.889,0.399-1.425c0.039-1.211-1.937-0.98-0.209-1.57c1.747,0.443,2.352-0.815,2.055-2.346
			c0.255-0.522,0.525-0.921,0.432-1.537c0.023-0.516,0.492-1.14-0.203-1.389c-0.556-0.287-1.129,0.226-1.656,0.279
			c-0.389-0.242-0.741-0.578-1.221-0.638c-0.445-0.086-0.729,0.353-1.132,0.416c-0.421,0.204-1.193,0.347-1.271,0.889
			c0.171,0.268,0.58,0.582,0.554,0.939c-1.134-0.6-0.597,0.97-0.44,1.504c-0.076,0.797,0.46,1.546,0.136,2.336
			c0.526,1.253,1.499,2.525,1.12,3.952c-0.078,0.278-0.04,0.708-0.437,0.703c-0.55,0.391,1.066,1.064,0.129,1.247
			c-0.367-0.264-0.502-0.21-0.556,0.248c-0.161,0.202-0.294,0.425-0.224,0.703c0.282,0.464-0.371,0.909,0.003,1.367
			c0.202,0.275,0.68,0.516,0.685,0.894c0.002,0.154-0.325,0.644-0.08,0.737c0.046,0.36-0.406,0.631-0.183,0.962
			c0.276,0.704,0.87,1.619,1.732,1.54c0.21,0.45,0.878,0.757,1.305,0.492c0.048-0.116-0.161-0.279,0.04-0.336
			c0.192-0.084,0.181,0.151,0.182,0.275c0.195,0.572,0.996,0.703,1.261,0.086c0.366,0.345,0.466,0.929,0.088,1.306
			c-0.177-0.189,0.246-0.711-0.163-0.655c-1.193,0.406-0.103,1.308-0.631,1.764c-0.414-0.202-0.136,0.393-0.105,0.583
			c-0.106,0.401,0.536,0.525,0.788,0.32c0.329-0.265-0.131-0.966,0.4-0.942c0.146,0.196,0.456,0.429,0.182,0.673
			c-0.237,0.311-0.086,0.724,0.201,0.903c0.098,0.28-0.286,0.235-0.389,0.44c-0.373,0.301-0.158,0.672-0.271,1.026
			c-0.454,0.183-0.375,0.673-0.725,0.928c-0.248,0.223-0.548-0.097-0.771,0.055c-0.176,0.305,0.123,0.621-0.114,0.924
			c-0.136,0.184-0.159,0.4-0.045,0.598c0.156,0.407,0.558,0.685,0.522,1.164c0.036,0.231,0.463,0.624,0.026,0.717
			c-0.239-0.015-0.292-0.374-0.622-0.286c-0.175-0.04-0.221,0.075-0.224,0.214c-0.104,0.201-0.456,0.126-0.499-0.077
			c-0.005-0.255-0.066-0.451-0.295-0.606c-0.209-0.252,0.153-0.587,0.199-0.847c0.013-0.693-0.254-1.415-0.168-2.12
			c-0.283-0.502-0.744,0.432-0.663,0.753c-0.36-0.252-0.13-0.674-0.075-0.987c-0.784-0.079-1.357-1.156-2.18-0.898
			c-0.158,0.179-0.122,0.683-0.447,0.668c-1.059-0.282-0.301,0.664-0.533,1.142c-0.514,0.412,0.05,0.81,0.298,1.191
			c-0.995,0.855-2.32-0.192-3.497,0.201c-0.38,0.065-0.606,0.409-0.934,0.559c-0.553,0.051-1.096-0.133-1.653-0.069
			c-0.73-0.156-0.932-0.959-1.583-1.213c-1.107,0.172-1.634,0.587-1.973-0.804c-0.363-0.134-0.789-0.19-1.059-0.517
			c-0.207-0.654,0.186-1.764-0.811-2.093c-0.992-0.565-2.015,0.809-3.01,1.005c-0.484-0.059-0.95,0.091-1.092,0.602
			c-0.111,0.185-0.564,0.376-0.344,0.629c0.477,0.159,0.282,1.009,0.902,0.978c0.906-0.081,0.018-1.048,0.921-1.036
			c0.653,0.491,1.372,0.119,1.642-0.594c0.238-0.333,0.76-0.808,1.124-0.369c0.386,0.466-0.254,0.682-0.591,0.806
			c-0.796,0.905-2.095,1.144-2.701,2.157c-1.061,0.514,0.403,1.026,0.122,1.735c-0.519,0.522,0.282,0.916,0.28,1.469
			c0.006,0.12,0.039,0.574-0.133,0.641c-0.111,0.043-0.304-0.133-0.37,0.093c0.012,0.358,0.423,0.962,0.059,1.241
			c-0.329-0.226-0.313-0.706-0.436-1.038c-0.226-0.346-0.54-1.039,0.162-0.871c-0.187-0.523-0.238-1.264-0.799-1.513
			c0.115-0.231-0.18-0.417-0.363-0.442c-0.267,0.046-0.16,0.342-0.394,0.434c0.189-2.579-1.047-0.681-1.258-1.871
			c-0.579-1.841-1.098,0.056-2.009-0.086c-0.206-0.224-0.345-0.18-0.55,0.009c-1.738,0.329-3.595,0.179-5.032-0.787
			c-1.12-0.184-1.133-0.469-0.42-1.316c0.387,0.43,0.684-0.46,1.093-0.257c1.812-0.58-0.95-3.665-2.197-3.343
			c0.03,0.097-0.042,0.248,0.065,0.311c-0.697-0.356-1.423-0.602-2.146-0.863c-0.85-0.986-1.732-1.844-2.877-2.418
			c-0.778-0.632-0.892-1.678-1.789-2.262c-0.554-0.361-1.42-0.558-2.05-0.47c-0.317,0.133-0.451,0.388-0.449,0.714
			c-0.484,0.424-1.275,0.847-1.906,0.415c1.807-1.845,0.018-0.821,0.692-2.393c0.216-0.502,0.161-1.191-0.475-0.691
			c-0.176,0.014-0.541,0.097-0.441,0.341c0.665,0.275-0.37,0.773-0.544,1.083c-0.345,0.109-0.331,0.505-0.641,0.603
			c-0.179,0.203,0.198,0.277,0.198,0.446c-1.489,0.638-1.458-2.908-1.047-3.695c-0.006-0.674-0.477-1.174-0.698-1.754
			c-0.521-0.809-0.644,0.755-0.273,1.043c-0.677-0.129-1.094,0.238-1.397,0.807c-0.377,0.118-0.747,0.357-1.148,0.398
			c0.333-0.854-1.155-0.438-1.653-0.456c-0.548,0.048-1.603,1.492-1.92,0.521c-0.048-0.808-0.854,0.284-1.214,0.266
			c-0.313-0.169-0.559-0.203-0.885-0.015c-1.013-0.083,1.652-0.913,1.825-1.123c0.421,0.018,0.866,0.311,1.237,0.337
			c0.618-0.66,1.746-0.145,2.433-0.755c0.196-0.182,0.51-0.635,0.08-0.744c0.043,0.088,0.068,0.169,0.05,0.261
			c-0.339-0.056-0.54,0.219-0.861-0.031c-0.262-0.205-0.244-0.536-0.625-0.481c-0.573,0.224-1.095,0.361-1.709,0.319
			c-0.314,0.075-0.36,0.492-0.754,0.363c-0.418-0.361-0.34-0.205-0.703,0.05c-0.181,0.02-0.233-0.138-0.398-0.107
			c-0.328,0.212-0.291,0.702-0.83,0.494c-0.329-0.033-0.972-0.046-0.685-0.527c-0.145-0.324,0.193-1.016-0.229-1.138
			c-0.301-0.037-0.398,0.291-0.603,0.423c-0.523,0.377-1.58-0.56-1.111,0.625c-0.343-0.23-0.083-0.732-0.754-0.461
			c-1.526-0.516-0.2,0.752-0.154,1.331c-0.386,1.342-0.784,0.314-1.236-0.298c-1.098-0.838-1.802-1.983-2.093-3.33
			c0.273-1.564-1.379-1.818-1.983-2.913c-6.929,10.406-14.034,21.71-20.33,32.319c-0.209,0.648,0.427,0.914,0.791,0.987
			c0.257,0.176,0.143,0.528,0.349,0.638c0.604-0.033,0.449-0.231,1.459,0.182c0.995,0.161-0.094,0.604-0.168,1.048
			c0.565,1.252,0.056,2.092,0.67,3.464c0.98,1.325-0.995,2.672,0.456,2.416c0.739-0.474,1.142,0.477,1.656-0.137
			c0.299-0.31,0.241-0.435,0.426-0.547c0.417-0.126,0.649-0.028,0.775-0.471c1.21-0.229,2.039-0.02,2.021,1.215
			c-0.498,0.643-0.34,1.401,0.167,1.914c0.294,0.534-0.107,0.831,0.106,1.504c0.208,0.371,0.776,1.277,0.775,1.823
			c0.013,1.221-0.203,2.443,0.069,3.942c0.371,3.577,0.075,1.598,0.117,1.953c0.005,0.047,0.016,0.129-0.003,0.236
			c-0.629,0.959,0.524,0.527-0.137,1.406c0.29,0.522,0.124,0.889,0.107,1.383c0.72,0.604,1.38,1.623,2.082,2.386
			c-0.016,0.493,0.034,0.708,0.486,0.927c0.542,0.628-0.206,1.018-0.516,1.474c0.238,2.559-1.179,2.056-2.375,3.514
			c0.352,0.196,1.307-0.637,1.585-0.593c0.388,0.67-1.214,0.986-1.379,1.437c-0.678,0.805,0.626,2.231-0.124,2.803
			c-0.963,0.301,0.177-0.706-0.513-0.969c-0.361-0.127-0.945,0.455-0.662,0.809c0.24-0.158,0.583,0.026,0.547,0.307
			c-0.859,0.475-0.76,1.321-0.194,2.073c0.389,1.099,0.588-0.179,0.137-0.696c-0.569-1.53,0.873,0.136,0.752,0.775
			c-0.169,0.535,0.321,0.625,0.593,0.274c0.709,0.25,0.381-0.459,0.991-0.935c0.025-0.08,1.94-0.917,1.367-0.171
			c-0.717,0.409-1.293-0.159-1.436,1.004c-0.341,0.589,0.421,0.496-0.148,0.969c-0.132,0.338-0.118,0.433-0.433,0.467
			c-0.281,0.554-1.154,1.436-0.605,2.154c0.693,0.395,0.258-1.249,0.661-0.182c-0.099,1.047-0.079,2.122,0.752,0.502
			c0.407,0.22-0.116,0.565-0.171,0.809c-0.044,0.366,1.376,1.103,0.364,0.958c-0.648-0.226-0.105,0.24-0.216,0.637
			c-0.089,0.215-0.206,0.727,0,0.821c0.463-0.073,0.508-1.08,0.957-1.105c-0.048,0.407-0.379,1.376-0.58,1.823
			c-0.053,0.057,0.252,1.066,0.205,1.015c-1.009,1.273,0.358,2.776,1.39,3.566c0.204,0.626-0.141,1.001,0.661,1.127
			c-0.994,0.383-2.016-1.71-3.305-2.587c-0.419-0.343-0.744-0.558-1.174-0.125c-0.243,0.46,0.555,1.2,0.57,1.755
			c-0.647,0.663,0.259,0.103,0.489,1.163c0.348,0.746,0.543,1.115,0.866,1.653c0.364,0.119,0.265,0.227,0.205,0.569
			c-0.012,0.116,0.522,0.8,0.604,0.912c0.109-0.003,0.15-0.281,0.239-0.273c0.352,0.544-0.223,0.838,0.523,1.333
			c1.108,0.457,0.36,2.375,1.676,2.21c0.656,0.247,0.519,1.003,0.741,1.482c0.724,0.814,2.062,1.841,2.803,2.325
			c0.222-0.006,0.713,0.008,1.071-0.069c0.044-0.113,0.346-0.697,0.365-0.752c-0.095-0.046-0.566-0.253-0.559-0.41
			c-0.099-0.301-0.076-0.688-0.284-1.003c-0.129-0.647,0.137-0.836-0.445-1.322c-0.262-0.27-0.483-0.457-0.672-0.616
			c-0.79-0.662-0.798-0.635-0.855-0.741c-0.13-0.843-0.79-2.23-0.923-3.099c0.277,0.077,0.414,0.059,0.524-0.364
			c0.169-0.238,1.263-1.511,1.219-1.698c0.282,0.565-0.887,1.243-0.57,1.948c0.161,1.601,0.558,1.164,0.707,2.279
			c0.195-0.086,0.663-0.15,0.775,0.194c0.121,0.636-0.137,1.423,0.66,1.494c0.271,0.348,0.7,0.278,1.048,0.524
			c0.078,0.157,0.382,0.479,0.457,0.57c-0.179,0.329-0.611,0.518-0.125,1.082c24.662,7.821,52.746,8.736,74.187,5.494
			c0.015-0.471,0.031-0.942,0.045-1.413c0.387-0.042,0.377-0.339,0.592-0.513c0.71-0.205,0.48,0.953,1.492,0.798
			c0.543,0.239,0.535-0.487,0.627-0.684c0.146,0.182,0.176,0.301,0.023,0.786c-0.021,0.541-0.955,0.878-1.196,1.275
			c0.164,0.723,1.151,0.601,1.584,0.524c0.634-0.218,0.563,0.136,0.695,0.49c0.434-0.187,1.885-0.722,2.018-0.901
			c0.104-0.209-0.001-0.371,0.159-0.524c0.931-0.463,0.057,0.3,0.548,0.524c0.405,0.116,0.502,0.14,0.626,0.502
			c0.112,0.086,0.212-0.004,0.342,0.057c0.256,0.12,0.206,0.631,0.308,0.638c1.068-1.897,1.647,1.555,3.806-0.741
			c0.532,0.114,0.871,0.591,1.562,0.148c0.487-0.294,2.687-0.142,2.815-0.388c0.395-0.704-0.03-1.693,1.025-2.199
			c0.671-0.76-0.058,0.577-0.012,0.627c0.692,0.568,0.472-0.84,0.569-1.129c0.282-0.232,0.171-0.831,0.182-0.935
			c0.178-0.036,0.516,0.364,0.456,0.649c-0.109,0.272-0.471,0.449-0.091,0.616c0.533-0.057,0.611-0.838,0.844-1.059
			c0.345-0.066,1.25-0.827,0.229-0.604c-0.315,0.279-0.498,0.219-0.41-0.182c0.266-0.293,0.599-0.198,1.026-0.148
			c1.186,0.444,2.037-0.571,3.328-0.479c0.468,0.619,1.436,1.928,2.017,2.454c0.5,0.078,1.965-0.881,2.188-0.699
			c1.153-0.041-0.363,1.588,1.064,1.656c0.596,0.177,0.623,0.125,0.729,0.669c0.156,0.87-0.363,1.043,0.593,1.109
			c0.148,0.065,0.376,1.324,0.532,1.261c0.498-0.015,0.821-0.842,0.912,0.182c0.146,0.995,1.305,1.241,0.897,0.289
			c0.045-0.14,0.452-0.1,0.836-0.122c1.576-0.225,3.321-1.194,4.847-1.368c0.556,0.363,2.116-0.444,2.416-0.35
			c0.47,0.536,1.015,0.661,1.808,0.957c0.42,0.174,1.103,0.965,1.505,1.262c0.108-0.01-0.131,1.273-0.061,1.216
			c0.251,0.418,0.253,0.653-0.182,0.79c-0.482,0.368-1.256-0.451-1.596-0.015c-0.193,0.038-0.285-0.431-0.638-0.547
			c-1.348,0.318-0.318-0.739-1.383-0.714c-2.007,0.269,1.054,1.278,0.594,2.433c-0.663,1.558,0.208,2.821,0.313,4.341
			c-0.612,1.203-1.842,2.162-1.541,3.665c0.071,0.077,0.008,0.25,0.071,0.319c0.14,0.153,0.297-0.04,0.35,0.199
			c0.036,1.24-2.629,0.124-1.325,2.066c1.771-0.88,3.528-2.13,4.347-4.021c0.627-0.915,2.096-0.414,2.58-1.562
			c0.493-1.135,2.906-1.264,2.812-2.472c-0.304-1.028-1.105,0.229-1.725,0.101c-0.306-0.334,0.404-0.912,0.269-1.437
			c0.705-1.566,2.707-2.569,4.115-3.561c0.468-0.577,0.687-0.103,1.174-0.161c0.876-0.896,0.294-0.923,1.806-2.052
			c1.449-5.216,5.81-6.699,10.455-9.42c-0.17-0.781,0.273-1.677,1.03-1.885c0.799-0.366,0.177-1.432,0.491-2.095
			c0.196-0.547,0.426-1.155-0.092-1.601c-0.419-1.82-0.044-0.79,0.081-4.749c0.031-0.457,0.081-1.274,0.349-1.344
			c0.288-0.051,0.37,0.321,0.577,0.447c0.256,0.149,0.343-0.04,0.481-0.25c0.506-0.99,0.942-1.242,2.31-1.013l2.188,4.513
			l0.866-0.137l0.729,1.254c0.391-0.603,0.753-0.286,1.288-0.091c1.415-2.071,3.162-4.023,4.067-6.405
			c0.135,0.189,0.387,0.567,0.367,0.789c5.117-3.446-3.803,3.904-1.138,7.573c0.359-0.009,0.278,0.416,0.641,0.225
			c0.148-0.051,0.123-0.095,0.305-0.04c0.783,0.584,1.453-0.112,1.575-0.913c0.176-0.253,0.37-0.444,0.341-0.766
			c0.183-0.352,0.478-0.439,0.284-0.906c-0.036-1.078,0.578-2.169,0.703-3.295c0.493,0.288,0.831-0.732,0.93-1.079
			c0.617-2.013,2.632-3.472,3.138-5.476c0.121-0.203,0.543-0.488,0.211-0.675c-0.714,0.217-0.672,0.006-0.546-0.68
			c1.241-0.687,3.286-5.48,0.285-3.648c-0.472-0.277-0.807-2.496-1.723-1.656c-0.316,1.488,0.27,3.039-0.065,4.522
			c0.174,0.505,0.974,0.933,0.344,1.441c-1.225-0.249-1.102,1.212-2.021,1.612c-0.998,0.011-3.016,2.418-3.136,0.537
			c-0.318-0.025-0.417,0.345-0.598,0.538c-0.664,0.457-1.623,0.56-1.625-0.478c-0.617-0.49-0.781-1.029-1.128-1.299
			c-0.251,0.121-0.444,0.382-0.724,0.495c-0.915-0.825,0.307-1.747-0.224-2.504c-0.614-0.334-1.406,0.338-1.625,0.903
			c-0.093,0.258-0.135,0.434-0.42,0.321c-0.555-0.767-1.937,0.954-1.541-0.534c0.377-0.674,1.101-0.774,1.778-0.874
			c0.943-0.535,0.573-1.898,1.223-2.651c0.603-4.147-5.244,0.514-6.267,1.826c-1.528,2.652-3.084,5.418-3.642,8.469
			c-0.011,1.367-0.557,2.574-0.822,3.847c-0.721,0.397,0.186-1.387,0.183-1.764c0.616-3.659,0.147-8.129,2.918-10.914
			c0.029-0.866-0.292-1.873-0.05-2.741c0.284-0.386,0.527-0.767,0.551-1.274c2.104-2.802,5.479-4.658,8.051-7.118
			c0.526-0.325,1.32,0.05,1.644-0.624C175.958,117.867,177.28,117.277,177.748,116.223z"/>
		<path fill="#1E8346" d="M137.443,161.115c-0.177-0.637-1.126,0.146-1.448,0.37c-0.87,0.419-2.015,0.032-2.638,0.901
			C134.622,161.719,137.603,163.515,137.443,161.115z"/>
		<path fill="#1E8346" d="M171.594,123.577c1.001-0.892,7.393-2.6,4.319,0.262c-1.11,0.596-2.994,1.687-3.98,0.558
			c-0.404-0.293-0.724,0.236-1.031,0.428C169.246,125.445,170.692,123.14,171.594,123.577z"/>
		<path fill="#1E8346" d="M183.021,119.414c0.281,0.226-0.422,1.138-0.457,0.541C182.549,119.658,182.578,119.028,183.021,119.414z"
			/>
		<path fill="#1E8346" d="M181.114,107.461c-0.263-1.215,0.481-2.107,1.159-3.015c0.756,0.499-0.093,1.431-0.163,1.933
			c1.201-0.173,0.852,1.587,1.224,2.36c0.013,0.709,0.436,1.292,0.356,2.011c-0.001,0.394-0.054,1.144,0.433,1.289
			c0.195-0.544-0.098-1.298,0.334-1.734c0.552-0.178,0.867-0.922,1.437-0.873c0.362,0.507-0.557,0.99-0.506,1.488
			c0.405,1.151,1.362-0.294,1.891-0.594c-0.012,0.239-0.018,0.763,0.29,0.806c-0.004-0.61,0.257-0.709,0.358-1.195
			c-0.093-0.256-0.326-0.574-0.046-0.81c0.863-0.202,1.883-1.958,2.766-0.693c0.265,0.993-0.826,1.547,0.645,1.55
			c0.236,1.335,0.651-0.88,0.961-1.051c0.978,0.243-0.152,1.374,0.191,2.046c0.046,0.381,0.406,0.421,0.541,0.731
			c0.128,0.294-0.045,0.642,0.14,0.931c1.013,0.578-0.187-1.386,0.012-1.673c0.246-0.241,0.339-0.589,0.51-0.851
			c0.338,0.53-0.032,1.447,0.6,1.88c0.239,0.177,0.392,0.008,0.401-0.249c0.012-0.358-0.17-0.635,0.146-0.929
			c0.431,0.439,0.526,1.053,0.72,1.624c0.212,0.617,0.994,1.076,0.894,1.794c-1.092,1.415-0.823,2.168-1.794,0.072
			c-0.421,0.437,0.116,1.385-0.518,1.663c-0.558-0.757-0.523-2.087-1.3-2.628c-0.53-0.13-0.568,0.554-0.476,0.877
			c0.231,0.457-0.118,0.825-0.193,1.257c0.551,1.199,0.406,2.987-0.972,3.559c-1.281-0.235,0.445-1.421,0.261-2.049
			c-0.067-0.242-0.287-0.453-0.217-0.717c0.155-0.261,0.844-1.127,0.155-1.038c-0.88,0.286-0.573,1.687-1.429,1.828
			c-0.215,0.045-0.378-0.173-0.565-0.092c-0.28,0.785-0.612,1.59-1.325,2.14c-1.04,0.828-2.078,1.822-2.989,2.722
			c-0.11,0.5-0.629,1.334-1.197,1.175c-0.944-0.921,0.248-2.419-0.135-3.539c-0.697-0.951-1.288-2.179-0.521-3.286
			c-0.004-0.041-0.047-0.087-0.081-0.109c-1.112,0.523-0.906-1.127-0.769-1.778c-0.725-1.273-0.795-2.718-1.111-4.138
			c0.111-0.463-0.046-0.805-0.334-1.135C180.873,108.503,181.209,108.018,181.114,107.461z"/>
		<path fill="#1E8346" d="M176.468,133.378c0.091,0.401,0.288,0.632,0.716,0.666c0.406,0.356,0.584,0.13,0.787-0.264
			c0.759-0.588,1.532-1.135,2.273-1.753c0.097-0.083,0.795-0.776,0.84-0.361c-1.258,1.87,0.452,0.909,0.304,2.02
			c-0.321,0.673-1.306,1.292-1.836,0.467c-0.951,0.865-0.658,1.317-1.905,0.549c-0.434,0.482-0.794,0.308-1.265-0.01
			c-0.689,0.099-0.34-0.863-0.415-1.258C176.018,133.165,176.562,132.925,176.468,133.378z"/>
		<path fill="#1E8346" d="M68.104,84.535c-0.41,0.066,0.002,0.779,0.327,0.45C68.616,84.802,68.298,84.373,68.104,84.535z"/>
		<path fill="#1E8346" d="M66.338,82.495c0.137,0.274,0.709,0.444,0.639,0.739C66.578,83.43,65.458,82.316,66.338,82.495z"/>
		<path fill="#1E8346" d="M68.093,83c0.114-0.008,0.291,0.092,0.228,0.211C68.146,83.464,67.701,83.025,68.093,83z"/>
		<path fill="#1E8346" d="M73.574,80.586c0.697,0.616,0.413,0.967-0.354,0.438C72.88,80.878,73.316,80.41,73.574,80.586z"/>
		<path fill="#1E8346" d="M78.053,79.686c0.884,1.277-1.678,0.577-0.469,0.016C77.73,79.569,77.881,79.52,78.053,79.686z"/>
		<path fill="#1E8346" d="M79.699,80.831c0.139,0.118,0.172,0.298,0.166,0.467c-0.202,0.334-0.347,0.023-0.442-0.189
			C79.172,80.897,79.515,80.81,79.699,80.831z"/>
		<path fill="#1E8346" d="M80.646,81.167c0.279-0.003,0.265,0.352,0.438,0.593C80.723,82.115,79.973,81.211,80.646,81.167z"/>
		<path fill="#1E8346" d="M92.396,73.526c0.091,0.02,0.126,0.059,0.136,0.151C92.571,74.011,91.868,73.563,92.396,73.526z"/>
		<path fill="#1E8346" d="M106.524,71.164c0.041,0.12,0.193,0.206,0.171,0.357C106.408,71.752,105.974,71.241,106.524,71.164z"/>
		<path fill="#1E8346" d="M135.437,136.096c-0.35,0.06-0.345,0.914,0.075,0.609C135.666,136.505,135.743,136.179,135.437,136.096z"
			/>
		<path fill="#1E8346" d="M128.964,134.147c1.046-1.188,2.145-0.432,2.922,0.566c0.138,0.394-0.467,0.536-0.763,0.481
			c-0.258,0.07-0.446-0.302-0.661-0.08c-0.288,0.246-0.642-0.071-0.972,0.019c-0.215,0.136-0.437,0.193-0.641,0.011
			C127.952,135.135,128.391,134.4,128.964,134.147z"/>
		<path fill="#1E8346" d="M128.195,118.096c0.821,0.877-0.959,1.295-0.168,0.217C127.977,118.191,128.07,117.894,128.195,118.096z"
			/>
		<path fill="#1E8346" d="M129.597,118.569c0.154,0.16,0.505,0.45,0.154,0.616C129.349,119.232,129.457,118.8,129.597,118.569z"/>
		<path fill="#1E8346" d="M129.996,119.304c0.158,0.273,0.455,0.099,0.654,0.352c0.109,0.215,0.052,0.677-0.171,0.828
			c-0.089,0.049-0.276,0.088-0.214,0.233c0.315,0.25-0.69,0.353-0.553,0.844c1.059-0.227-0.122,1.613-0.482,0.796
			c-0.372-0.293-0.059-0.45,0.074-0.756c-0.246-0.461,0.429-1.38-0.437-0.603c-0.291-0.106,0.017-0.379,0.134-0.507
			c0.042-0.264,0.169-0.447,0.351-0.659c0.308-0.258-0.012,0.651,0.325,0.593C130.025,120.239,129.34,119.282,129.996,119.304z"/>
		<path fill="#1E8346" d="M131.321,119.714c0.02,0.137,0.175,0.435-0.083,0.397C131.079,120.028,131.094,119.669,131.321,119.714z"
			/>
		<path fill="#1E8346" d="M123.443,107.122c0.396-0.149,0.126,0.43-0.075,0.484C123.195,107.583,123.32,107.197,123.443,107.122z"/>
		<path fill="#1E8346" d="M121.073,97.496c0.37,0.826,0.501,2.028,0.178,2.882c-0.517-0.25-1.153-0.648-1.564-1.126
			c-0.38-0.459,0.293-0.771,0.042-1.257C119.821,97.306,120.923,96.376,121.073,97.496z"/>
		<path fill="#1E8346" d="M113.99,97.424c0.563-1.366,2.605-0.683,1.57,0.792c-0.484,0.658-0.273,1.414-0.897,1.968
			c-0.242,0.409-0.499-0.056-0.647,0.263c-0.145,0.219-0.601,0.789-0.698,0.256c-0.128-0.36-0.595-0.457-0.628-0.871
			c0.015-0.47,0.323-0.952,0.126-1.448c-0.043-0.353,0.396-0.557,0.502-0.861C113.531,97.422,113.779,97.535,113.99,97.424z"/>
		<path fill="#1E8346" d="M121.779,91.737c0.343,0.069,0.643,0.419,0.842,0.694c0.078,0.181-0.258,0.357-0.33,0.508
			c-0.044,0.093-0.093,0.37-0.249,0.33c-0.802-0.256-0.53-0.235-1.417-0.848C120.436,91.888,121.39,91.619,121.779,91.737z"/>
		<path fill="#1E8346" d="M122.866,90.301c0.4,0.063,1.06,0.458,0.681,0.896c-0.233,0.383-1.178-0.128-1.422-0.369
			C121.326,90.656,122.593,90.145,122.866,90.301z"/>
		<path fill="#1E8346" d="M107.355,87.964c0.687-0.667-1.652-2.515-1.042-0.938C106.602,87.419,106.932,87.72,107.355,87.964z"/>
		<path fill="#1E8346" d="M106.684,87.737c-0.166,0.432-0.254,0.766,0.317,0.817c0.14,0.248,0.332,0.502,0.485,0.727
			c0.417-1.902,0.9-0.25,1.943-0.32c0.932-0.434,0.674,0.412,1.248,0.624c0.517-0.091,0.963,0.246,1.423,0.359
			c0.52-0.298,1.212-0.039,1.405,0.531c0.375,0.193,0.051,0.701,0.489,0.875c0.64,0.208,0.254,0.64,0.064,1.028
			c0.379,0.312,0.837-0.966,1.369-0.485c0.417,0.112,0.074-0.59,0.424-0.463c0.252,0.156,0.51,0.217,0.648,0.509
			c0.149,0.128,0.379,0.033,0.525,0.126c0.126,0.637-0.212,1.556-0.783,1.992c-0.722,0.252-1.707-0.426-2.349-0.014
			c-0.513,0.541-0.378-0.73-0.83-0.749c-0.77-0.042-1.181,0.66-0.963-0.631c-2.133,0.955,0.063,0.964-0.977,2.509
			c-0.031,0.272-0.372,0.19-0.458,0.394c0.046,0.464,0.068,0.979-0.073,1.435c-1.114,1.537-2.037,1.441-2.2-0.533
			c-0.201-1.304-1.027,0.015-1.639,0.094c-0.545-0.068-0.156,0.54-0.603,0.494c-0.765,0.376-0.801-0.743-0.501-1.227
			c0.007-0.602,1.19-1.006,0.784-1.637c-0.398-0.383-0.279-1.021-0.736-1.389c-0.206-0.612,0.145-1.291-0.062-1.893
			c-0.156-0.16-0.035-0.46-0.007-0.658c0.038-0.471-0.34-0.846-0.501-1.244c0.168-0.609-0.178-1.197,0.181-1.798
			c0.187-0.579,0.435-0.095,0.721,0.039C106.216,87.444,106.493,87.562,106.684,87.737z"/>
		<path fill="#1E8346" d="M143.232,93.287c0.038,0.143,0.21,0.219,0.251,0.36c0.031,0.13-0.214,0.194-0.047,0.319
			c0.171,0.13,0.034,0.264-0.082,0.368c-0.085,0.173-0.09,0.412-0.289,0.514c-0.337-0.083-0.331-0.459-0.355-0.731
			C142.392,93.786,142.845,93.119,143.232,93.287z"/>
		<path fill="#1E8346" d="M145.922,85.996c0.035,0.378,0.404,0.766,0.09,1.093c-0.412,0.076-1.016,0.113-1.343-0.202
			c-0.275-0.306,0.33-0.537,0.481-0.773C145.337,85.861,145.68,85.924,145.922,85.996z"/>
		<path fill="#1E8346" d="M144.905,85.419c0.689,0.544-0.786,0.681-0.425,0.169C144.604,85.441,144.704,85.387,144.905,85.419z"/>
		<path fill="#1E8346" d="M108.919,84.119c0.353-0.057,0.475,0.315,0.069,0.337C108.608,84.483,108.431,84.021,108.919,84.119z"/>
		<path fill="#1E8346" d="M108.07,85.663c0.227,0.178,0.486,0.232,0.53,0.572c0.022,0.108-0.053,0.351,0.133,0.311
			c0.151-0.028,0.165,0.171,0.285,0.177c0.197-0.304,0.616-0.009,0.243,0.164c-0.193,0.116-0.337,0.407-0.606,0.277
			c-0.228-0.098,0.144-0.31-0.058-0.393c-0.235-0.122-0.45,0.23-0.653,0.129c-0.058-0.257-0.026-0.605-0.172-0.835
			C106.727,85.94,107.391,85.413,108.07,85.663z"/>
		<path fill="#1E8346" d="M121.039,89.447c0.139,0.127-0.098,0.58-0.308,0.494C120.452,89.78,120.834,89.418,121.039,89.447z"/>
		<path fill="#1E8346" d="M8.222,125.127c0.371,0.566,0.756,1.161,1.349,1.544c0.298,0.299,1.436-0.055,0.785,0.627
			c-0.398,0.369-0.897,0.722-0.95,1.306c0.099,0.384-0.14,0.665-0.379,0.924c-0.147,0.409,0.318,0.863,0.092,1.347
			c-0.152,0.527-0.68,0.835-0.256,1.35c-0.483,0.7,0.322,1.379,0.514,2.001c-0.596,1.442-1.226-2.594-1.737-2.975
			c-0.421-0.948-0.044-1.889-0.211-2.852c0.056-0.017,0.116-0.023,0.174-0.015c0.144-0.45-0.565-0.628-0.612-1.04
			C7.344,126.536,7.105,125.389,8.222,125.127z"/>
		<path fill="#1E8346" d="M15.478,139.543c0.08,0.157,0.016,0.342,0.096,0.501c-0.115,0.366-0.374-0.08-0.455-0.234
			C15.082,139.674,15.417,139.31,15.478,139.543z"/>
		<path fill="#1E8346" d="M51.626,55.703c0.123-0.244-0.313-1.9-0.252-2.03c1.081-0.34,2.747-0.053,3.928,0.003
			c0.549,0.592,0.999,1.364,1.57,1.932c0.486,0.037,0.761-0.139,0.691,0.541c0.165-0.35,0.31-0.451,0.696-0.332
			c0.314-0.02,0.551-0.188,0.841,0.022c0.762,0.551,0.719,1.415,1.139,2.154c0.344,0.607,0.79,0.8,0.707,1.15
			c-1.476,1.468-3.882,1.637-4.627,2.438c-0.171,0.101-0.894,1.218-1.095,1.413c-0.398,0.28-0.764,0.038-1.048,0.319
			c-0.165,0.402-0.739,1.404-0.844,1.869c-0.512,1.012-1.644,1.633-1.709,0.547c-0.273,0.07-0.781,0.507-1.208,0.615
			c-2.72,1.943-0.201-2.419-2.825-3.829c-1.379-0.468,1.198-2.116,1.186-2.462c0.204-0.489,0.045-0.847,0.319-1.026
			c0.621-0.106,0.698-0.129,0.615-0.821C49.726,57.508,51.867,56.848,51.626,55.703z"/>
		<path fill="#1E8346" d="M54.862,65.572c-0.077-1.33,1.513-1.414,1.8-1.845c-0.611-0.908,0.157-1.458,1.071-1.937
			c0.834-0.775,1.217-0.826,2.393-1.23c1.867-1.439,3.097-0.237,2.119,1.367c-0.17,0.209-1.417,1.416-0.228,1.163
			c1.684-0.044-0.403-2.472,3.031-0.501c0.979,0.564-0.035,1.421-0.365,1.732c0.196,0.944,1.334-0.274,1.573-0.387
			c1.919,0.494,0.026-1.044,0.045-1.55c0.877-1.108,2.091,1.164,2.392,2.074c0.146,0.936-0.12,2.753,0.892,3.37
			c0.541-0.517,0.792-0.885,0.297-1.527c-0.279-0.594-0.175-1.384-0.205-1.983c-0.131-0.676-0.879-4.087,0.524-3.305
			c0.314,0.171,0.414,0.424,0.524,0.388c0.182-0.729,0.899,0.076,1.003,0.501c1.708,1.342,0.985,3.309,1.869,4.855
			c1.197,1.451-0.479,3.436,1.163,4.649c0.498,0.275,0.457,0.785,0.972,1.071c0.532,0.103,0.579-0.056,1.079,0.456
			c0.218,0.216,0.717,0.396,0.942,0.516c0.35,0.472,0.428,0.417,0.938,0.327c0.737-0.027,0.701,2.968-0.24,2.131
			c-0.161-0.169-0.108-0.449-0.171-0.456c-0.09,0.218-0.495,0.562-0.775,0.262c-0.168-0.822-0.261-0.249-0.717,0.127
			c0.099,1.206-0.47,0.573-1.082,0.308c-0.124-0.117,0.412,0.68,0.445,0.798c0.045,0.531-0.162,0.684,0.331,0.194
			c0.688-0.916,1.136-0.27,1.083,0.478c0.243,0.099,0.595,0.643,0.478,0.809c0.009,0.3-0.339,0.55-0.683,0.639
			c-0.304,0.362-0.174,0.328-0.855,0.49c-0.555,0.149-0.851,0.313-1.334,0.012c-0.486-0.083-0.775-0.05-1.117-0.319
			c-0.389,0.196-1.033,0.215-1.265-0.273c0.077-0.303,0.187-0.259-0.228-0.478c-0.321-0.113-0.307-0.37-0.387-0.513
			c-0.84,0.585-0.917,0.169-0.991-0.673c-0.311-0.673-0.587-0.087-0.821,0.182c-0.047,0.646-0.281,1.25-1.049,1.447
			c-0.791,0.122-1.199-0.355-1.573,0.433c-0.264,0.279-1.887,0.663-2.063,0.741c-0.552,0.028-0.951-0.209-1.128,0
			c-0.114,0.296-0.184,0.421-0.547,0.24c-1.194-0.691-2.228,0.43-3.214-0.262c-0.668-0.685-0.493-1.936-0.399-2.712
			c-0.448-1.167-4.34-0.545-4.171-2.44c-2.186-3.327,2.31-2.315,4.079-2.655c0.693,0.635,1.449,0.523,2.381,0.946
			c0.397-0.556,1.402,0.081,1.049-0.571c-0.684-0.465-1.52-1-2.04-1.447c-0.292,0.021-0.64-0.17-0.843-0.354
			c-0.742,0.188-2.343,0.393-3.076,0.046c-0.396-0.256-0.973-0.263-1.322-0.319c-0.448-0.127-1.313-1.225-1.231-1.721
			c0.89-1.232,3.159-0.87,4.138-1.515c-0.128-0.824-2.077,0.443-2.518-0.25c-0.64,0.991-1.666-0.341-0.342-0.729
			c0.146-0.45-0.101-0.209-0.467-0.125C55.606,66.16,54.788,66.189,54.862,65.572z"/>
		<path fill="#1E8346" d="M75.968,71.878c0.167,0.034,0.502,0.363,0.269,0.52C75.921,72.502,75.606,72.054,75.968,71.878z"/>
		<path fill="#1E8346" d="M79.592,71.809c0.19,0.161,0.38,0.425,0.213,0.661C79.357,72.562,78.806,71.429,79.592,71.809z"/>
		<path fill="#1E8346" d="M78.765,76.427c0.336,0.172,0.356,0.62,0.002,0.78c-0.248-0.016-0.168-0.459-0.347-0.596
			C78.349,76.383,78.699,76.204,78.765,76.427z"/>
		<path fill="#1E8346" d="M80.418,77.874c-0.172,0.402-0.834,0.414-0.822,0.88c0.09,0.217,0.159,0.433-0.049,0.596
			c-0.096,0.282,0.235,0.436,0.315,0.666C80.457,80.323,81.34,77.923,80.418,77.874z"/>
		<path fill="#1E8346" d="M86.771,75.931c0.13,0.117,0.333,0.73,0.423,0.285c0.228-0.396-0.107-0.594-0.417-0.769
			C85.772,74.954,86.444,77.629,86.771,75.931z"/>
		<path fill="#1E8346" d="M85.808,75.686c0.191,0.214,0.346,0.415,0.272,0.748C85.733,76.591,84.903,75.489,85.808,75.686z"/>
		<path fill="#1E8346" d="M83.086,74.742c-0.07,0.034-0.213,0.876-0.175,0.927c-0.06-0.059,0.445,1.091,0.357,0.98
			c-0.031,0.021-0.163-0.121-0.311-0.281c-0.756-0.978-0.057,0.282-0.213,0.722c-0.19,0.582-0.984,0.934-1.367,1.034
			c-0.108,0.27,0.02,0.806,0.364,0.964c0.68-0.499,0.689-0.307,1.102,0.266c0.345-0.146,0.31-0.227,0.532,0.182
			c0.162,0.153,0.325,0.017,0.623,0.144c0.374,0.293,0.504,0.394,1.033,0.357c0.567,0.122,0.725,0.44,1.314,0.144
			c0.211-0.195,0.782-0.942,1.01-1.238c0.338-0.231,0.742-0.319,0.38-0.646c-0.511,0.259-0.862,0.222-0.911-0.517
			c-0.253-0.475-0.665-0.384-0.699-0.942c-0.766-0.344-1.226-1.079-2.006-1.398C83.886,75.183,83.454,74.574,83.086,74.742z"/>
		<path fill="#1E8346" d="M70.056,59.652c0.005,0.202,0.473,0.319,0.14,0.45C69.659,60.418,69.585,59.593,70.056,59.652z"/>
		<path fill="#1E8346" d="M71.039,60.213c0.023-0.771,1.467-1.093,1.943-0.943c0.158,0.206,0.686,0.51,0.866,0.593
			c0.128,0.26-0.088,1.855-0.422,2.217c-0.596,1.839-1.107-0.329-1.527-0.888C71.531,60.679,71.142,60.596,71.039,60.213z"/>
		<path fill="#1E8346" d="M80.058,58.119c0.235-0.342,2.115-1.38,1.497-0.313C81.404,58.672,78.764,59.171,80.058,58.119z"/>
		<path fill="#1E8346" d="M77.502,60.056c-0.108,0.53,0.619,1.022,1.077,1.032c0.231-0.249,0.561-0.175,0.565,0.185
			c-0.355-0.404-0.645,0.219-0.452,0.529c0.116,0.164,0.181-0.041,0.298-0.086c0.33-0.041,0.126,0.807-0.111,0.818
			c0.179,0.307,0.088,0.454-0.229,0.596c-0.748,0.933-1.271-0.858-1.919-1.148c-0.532,0.213-0.869,1.29-0.471,1.791
			c0.333,0.464,0.865,0.662,1.04,1.245c0.22,0.257,0.447,0.253,0.721,0.141c0.219,0.153,0.324,0.376,0.642,0.364
			c0.759,0.952,1.576,1.834,2.024,2.961c0.056,0.109,0.154,0.26,0.256,0.333c0.213,0.124,0.353-0.353,0.543-0.025
			c0.349,0.522,0.695-0.255,0.673-0.628c0.195-0.337-0.311-0.68-0.219-0.964c0.254,0.321,0.451,0.37,0.822,0.215
			c0.31,0.146,0.494,0.087,0.727-0.159c0.097-0.378,0.559-0.414,0.636-0.753c-0.123-0.243-0.03-0.357,0.009-0.614
			c-0.172-0.231,0.079-0.396-0.038-0.66c-0.283-0.474-0.086-0.887,0.095-1.322c-0.067-0.305-0.487-0.471-0.419-0.833
			c-0.088-0.195-0.417-0.06-0.563-0.028c-0.205,0.541-0.202,0.035-0.245-0.246c-0.117-0.447-0.332-0.902-0.815-1.064
			c-0.333-0.173-0.478,0.262-0.734,0.276c-0.182-0.746,0.851-1.284,1.169-1.85c0.013-0.227-0.491-0.305-0.377-0.486
			c0.236-0.162,0.537-0.32,0.418-0.664c0.018-0.498-0.545-0.597-0.903-0.743c-0.509,0.284-1.07,0.479-1.577,0.746
			c-0.485,0.294-0.614-0.669-1.042-0.661c-0.169-0.012-0.462,0.258-0.243,0.391c0.072,0.056,0.088,0.156-0.039,0.128
			c-0.396-0.451-1.316,0.364-0.681,0.717c0.232,0.069,0.455,0.833,0.085,0.544C78.13,59.733,77.651,59.687,77.502,60.056z"/>
		<path fill="#1E8346" d="M83.158,61.013c0.376,0.228,0.326,0.846,0.004,1.087C82.685,61.888,82.615,61.219,83.158,61.013z"/>
		<path fill="#1E8346" d="M83.36,62.244c0.699,0.882-0.706,0.6,0.003-0.033C83.364,62.215,83.364,62.218,83.36,62.244z"/>
		<path fill="#1E8346" d="M81.627,55.266c-0.243,0.19-0.37,0.524-0.221,0.808C81.662,56.003,81.944,55.498,81.627,55.266z"/>
		<path fill="#1E8346" d="M134.474,88.037c0.336-0.073,0.499,0.216,0.773,0.33c0.183,0.197-0.349,0.688-0.536,0.749
			c-0.391-0.199-0.506-0.81-1.036-0.758C133.364,87.953,134.226,87.789,134.474,88.037z"/>
		<path fill="#1E8346" d="M143.87,82.831c0.445,0.41,0.534,0.551-0.107,0.773C143.295,83.658,143.563,82.826,143.87,82.831z"/>
		<path fill="#1E8346" d="M59.99,48.904c0.381,0.103,0.478-0.576,0.824-0.517c0.474,0.368-1.171,2.111-1.554,2.356
			C58.077,50.255,59.348,49.239,59.99,48.904z"/>
		<path fill="#1E8346" d="M64.701,45.94c0.31-0.135,0.723,0.237,0.703,0.542c-0.242,0.444-0.699,0.355-1.054,0.106
			C63.653,46.477,64.353,46.018,64.701,45.94z"/>
		<path fill="#1E8346" d="M62.779,43.707c-0.258-0.137-0.114-0.437,0.092-0.541c0.404-0.115,0.999,0.624,0.994,0.995
			c-0.177,0.39-1.229,0.558-0.824,1.102c0.272,0.111,0.365,0.489-0.028,0.486c0.4,1.566-1.051,0.793-1.3,1.79
			c-0.166,0.777-1.206,0.088-0.992-0.401c0.252-0.306,0.765-0.792,0.529-1.226c-0.452-0.128-0.606,0.608-0.82,0.871
			c-0.248,0.03-0.49,0.1-0.279,0.405c0.223,0.279-0.109,0.417-0.296,0.561c-0.187,0.741-0.756,0.396-0.67-0.233
			c-0.117,0.603-0.669,2.302-1.422,1.191c0.065-0.231,0.052-0.444,0.035-0.676c0.072-0.122,0.247-0.324,0.057-0.435
			c-0.306,0.035-0.307,0.402-0.35,0.64c-0.309,0.357-0.669-0.266-0.857-0.426c-0.216-0.004-0.291,0.344-0.498,0.291
			c-0.563-0.189,0.183-0.516,0.047-0.822c-0.971-1.041,1.394-0.911,1.767-1.536c1.364-0.636,2.452-3.302,4.091-2.047
			c0.183,0.235,0.436,0.248,0.683,0.111C62.737,43.797,62.732,43.791,62.779,43.707z"/>
		<path fill="#1E8346" d="M57.472,48.603c-0.006,0.118-0.02,0.234-0.133,0.297c-0.021,0.09,0,0.212-0.143,0.258
			c-0.102,0.086-0.382-0.104-0.194-0.179C57.253,48.992,57.343,48.69,57.472,48.603z"/>
		<path fill="#1E8346" d="M65.495,41.407c0.497,0.565,0.579,1.01-0.055,1.499c-0.378,0.118-0.733-0.729-0.728-1.024
			C64.893,41.666,65.192,41.16,65.495,41.407z"/>
		<path fill="#1E8346" d="M69.21,39.179c0.146,0.378,0.786,0.494,0.636,0.96c-0.273,1.091-0.648,0.974-1.507,0.569
			c-0.688,0.661-0.395-0.013-0.935-0.08c-0.359-0.198-0.799,0.598-1.039,0.105c0.18-0.769,0.939-0.977,1.559-1.205
			C68.279,39.183,68.765,38.936,69.21,39.179z"/>
		<path fill="#1E8346" d="M69.067,41.527c0.904-0.016,0.374,0.852-0.165,0.997c-0.412-0.195-0.765,0.228-0.218,0.406
			c0.788,0.184-0.015,1.504-0.591,1.399c-0.297-0.226-0.616,0.073-0.767,0.325c-0.578,0.382-1.217-0.74-1.329-1.225
			c-0.002-0.378,0.276-0.622,0.189-1.012C66.717,41.539,68.077,41.36,69.067,41.527z"/>
		<path fill="#1E8346" d="M74.539,52.717c0.512,0.504,0.279,1.759-0.578,1.549C73.141,53.938,73.764,51.679,74.539,52.717z"/>
		<path fill="#1E8346" d="M72.837,43.236c0.547,0.262,0.41,0.882,0.639,1.286c0.419,0.097,0.528,0.484,0.492,0.887
			c0.069,0.972-1.445-0.095-1.215-0.674C73.034,44.311,71.904,42.901,72.837,43.236z"/>
		<path fill="#1E8346" d="M74.261,45.612c0.16,0.1-0.036,0.46-0.173,0.285C73.942,45.805,74.118,45.531,74.261,45.612z"/>
		<path fill="#1E8346" d="M67.436,54.715c0.523-0.287,1.31-0.487,1.848-0.719c0.292,0.466,0.234,0.731,0.828,0.246
			c0.575,0.207,1.286,0.337,1.847-0.057c0.729-0.424,0.247-1.36,0.688-1.977c0.187-0.333,0.414-0.674,0.313-1.076
			c-0.175-0.742-1.617-1.858-1.514-0.43c0.024,0.46-0.14,0.49-0.191,0.02c-0.331-0.226-0.503-0.005-0.787,0.168
			c0.77-1.205-0.832-0.802-0.367-1.366c0.281-0.428-0.034-0.77-0.16-1.172c0.214-0.627,0.26-2.178-0.778-1.488
			c-0.27,0.376-0.051,1.026-0.666,1.091c-1.178,0.602,0.4,0.969,0.388,1.616c0.006,0.376-0.357,0.527-0.535,0.785
			c0.05,0.456,1.034,0.788,0.77,1.392c-0.397,0.469-1.018-0.036-1.48-0.059c-1.449,0.533-0.026-1.175-1.298-1.221
			c0.214-0.496-0.432-0.728-0.351-1.205c-0.331-1.595-1.689,0.507-1.61-1.509c-0.317-0.431-1.738-0.342-1.474,0.37
			c0.05,0.099,0.186,0.282,0.127,0.39c-0.551,0-1.379-0.388-1.482,0.629c-0.089,0.564,0.747,0.44,0.826,0.766
			c-0.614-0.022-1.644-0.366-1.371,0.669c0.201,0.542,0.968,0.281,1.307,0.096c0.329,0.046,0.041,0.438-0.213,0.36
			c-0.543,0.251-1.158-0.126-1.668,0.11c-0.796,0.623-0.004,1.938,0.866,1.382c0.223,0.014,0.03,0.258,0.056,0.401
			c0.016,0.09,0.186,0.344,0.26,0.392c0.382,0.162,0.313-0.577,0.73-0.522c-0.041,1.432,1.004,0.677,1.036-0.283
			c0.14-0.251,0.511-0.103,0.635-0.393c0.179-0.254,0.465-0.174,0.094,0.078c-0.163,0.111-0.147,0.186-0.185,0.369
			c-0.535,0.887,0.897,1.146,1.228,0.484c0.046-0.326,0.391-0.072,0.369,0.134c-0.073,0.342,0.457,0.247,0.665,0.232
			c0.389,0.012,0.375-0.68,0.707-0.574c0.091,0.87-1.345,0.923-1.961,0.789c-0.38,0.306-0.709,0.516-1.238,0.472
			c-1.086,0.1-0.825,1.504,0.011,1.787c0.933,0.014,2.135,0.645,2.741-0.371c0.254-0.162,0.59-0.07,0.733-0.403
			C67.22,54.905,67.181,54.723,67.436,54.715z"/>
		<path fill="#1E8346" d="M111.99,73.959c0.24,0.273,0.102,0.31,0.034,0.588C111.747,75.126,111.228,73.566,111.99,73.959z"/>
		<path fill="#1E8346" d="M112.03,72.609c-0.051,0.272,0.054,0.812-0.391,0.619C111.545,73.064,111.809,72.272,112.03,72.609z"/>
		<path fill="#1E8346" d="M110.508,69.897c0.172,0.374-0.051,0.732-0.118,1.099c-0.239,0.247-0.423,0.468-0.203,0.793
			c0.082,0.682,1.036-0.092,0.83-0.513c0.096-0.386,0.41-0.731,0.113-1.127C111.247,69.632,110.793,69.573,110.508,69.897z"/>
		<path fill="#1E8346" d="M118.778,71.771c0.412,0.198,0.771,0.008,1.113-0.159c0.845,0.269,0.334,1.236-0.286,1.444
			c-0.316,0.099-0.647,0.428-0.888,0.046c-0.229-0.235-0.636-0.384-0.675-0.733C118.092,72.038,118.359,71.462,118.778,71.771z"/>
		<path fill="#1E8346" d="M117.46,72.079c0.008,0.821,0.754,1.241,0.916,1.991c0.533,1.416-0.798,3.028-2.22,2.863
			c-1.117-1.129-1.251-2.672-1.095-4.152c0.341-0.497,0.95-0.886,1.541-0.816C116.949,71.815,117.173,71.724,117.46,72.079z"/>
		<path fill="#1E8346" d="M98.808,70.703c0.478,0.439,0.083,0.703-0.428,0.753c-0.259,0.001-0.937-0.508-0.31-0.48
			C98.317,70.885,98.496,70.584,98.808,70.703z"/>
		<path fill="#1E8346" d="M112.907,68.575c0.349,0.032-0.011,0.44,0.067,0.662c-0.121,0.283,0.269,0.25,0.15,0.463
			c-0.485,0.644-1.057-0.117-1.163-0.668C111.968,68.724,112.654,68.37,112.907,68.575z"/>
		<path fill="#1E8346" d="M110.531,68.09c-0.23,0.249-0.763,1.091-0.195,1.208C110.719,68.973,111.332,68.247,110.531,68.09z"/>
		<path fill="#1E8346" d="M77.73,33.823c0.386,0.466,0.533,2.343-0.245,1.133c-0.314-0.141-1.073-0.455-0.571-0.84
			c0.135-0.125,0.213-0.38,0.384-0.443C77.444,33.824,77.574,33.666,77.73,33.823z"/>
		<path fill="#1E8346" d="M76.224,42.512c1.164,0.546,0.703,0.8-0.198,1.038C75.273,43.187,75.466,42.632,76.224,42.512z"/>
		<path fill="#1E8346" d="M82.138,42.484c0.272-0.106,0.552,0.072,0.826-0.012c0.299-0.321,0.641-0.253,0.867,0.129
			c0.13,0.198-0.214,0.275-0.166,0.48c0.063,0.254,0.008,0.644-0.334,0.616c-0.589-0.128-1.267,0.281-1.879,0.25
			C80.632,43.19,81.012,42.368,82.138,42.484z"/>
		<path fill="#1E8346" d="M79.964,38.959c0.127,0.165,0.343,0.063,0.508,0.154c0.361,0.13-0.068,0.763,0.384,0.667
			c0.141-0.306,0.424-0.022,0.662,0.037c0.474,0.196,0.192,0.663,0.12,0.994c0.647,0.94,0.185,0.838-0.423,1.481
			c-0.144,0.116-0.315,0.037-0.458,0.05c-0.179,0.064-0.4,0.618-0.522,0.221c-0.037-0.379-1.131-1.007-0.148-1.019
			c0.073-0.034,0.075-0.178,0.039-0.246c-0.409-0.129-0.889-0.248-0.996-0.779c-0.048-0.094-0.132-0.136-0.21-0.195
			c-0.236-0.18,0.18-0.287,0.138-0.48C78.03,38.828,79.003,38.52,79.964,38.959z"/>
		<path fill="#1E8346" d="M82.318,40.578c0.027,0.129,0.263,0.195,0.097,0.34C82.159,41.146,81.793,40.317,82.318,40.578z"/>
		<path fill="#1E8346" d="M74.497,39.51c-0.37,0.295,0.049,0.31,0.227,0.44c-0.023,0.161-0.248,0.241-0.398,0.18
			c-1.552-0.647-0.793,1.329,0.081,1.161c0.2-0.293,1.056-0.827,0.834-0.089c-0.574,0.48-0.154,0.841,0.187,0.159
			c0.221,0.034,0.303-0.404,0.559-0.215c0.12,0.098,0.1,0.417,0.289,0.393c0.041-0.584,0.638,0.171,0.757,0.376
			c-0.015,0.428,0.323,0.824,0.676,1.023c0.294-0.155,0.959,0.01,0.716-0.542c-0.198-0.22,0.126-0.412,0.131-0.637
			c-0.084-0.191-0.264-0.376-0.387-0.542c-0.064-0.183-0.259-0.316-0.44-0.354c-0.306-0.388,0.326-0.985-0.105-1.368
			c-0.308-0.552-0.598-0.484-1.017-0.62c0.016-0.754-1.028-1.283-1.119-0.294c-0.042-0.323-0.324-0.598-0.25-0.903
			c-0.018-0.425-0.527-0.59-0.806-0.811c-0.17-0.137-0.339,0.102-0.473,0.173c-0.274,0.163-0.758,0.021-0.904,0.342
			c-0.514,1.457,1.083,0.472,0.466,1.324c-0.154,0.342,0.115,0.575,0.321,0.189c0.15-0.221,0.157-0.473,0.419-0.17
			c0.058,0.189-0.357,0.34-0.143,0.531c0.189,0.119,0.337-0.303,0.539-0.147C74.901,39.289,74.701,39.451,74.497,39.51z"/>
		<path fill="#1E8346" d="M86.951,42.918c0.37,0.342,0.116,0.792-0.093,1.164c-0.304,0.175-0.469-0.444-0.803-0.313
			C84.828,42.704,86.122,41.571,86.951,42.918z"/>
		<path fill="#1E8346" d="M86.047,44.025c0.186-0.013,0.372,0.348,0.175,0.419C86.079,44.358,85.673,44.157,86.047,44.025z"/>
		<path fill="#1E8346" d="M74.395,47.551c-0.171,0.671,1.605,0.769,0.451,1.403c-0.65,0.317-0.75-0.408-1.112-0.753
			C73.491,47.888,74.169,47.152,74.395,47.551z"/>
		<path fill="#1E8346" d="M74.585,49.268c1.17-0.57,1.01-0.259,1.397,0.774c-0.448,0.116-0.713,0.535-1.121,0.65
			c-0.45-0.031-0.354-0.333,0.005-0.446c0.487-0.247-0.503-0.174-0.699-0.261C73.618,49.594,74.039,49.21,74.585,49.268z"/>
		<path fill="#1E8346" d="M76.12,50.225c-0.308,0.127-1.714,1.056-0.515,0.875C75.76,50.835,76.606,50.509,76.12,50.225z"/>
		<path fill="#1E8346" d="M78.209,53.371c0.287-0.516-0.491-0.319-0.292-0.839c0.229-0.226,0.588-0.243,0.389-0.629
			c0.104-0.21,0.447-0.263,0.366-0.571c-0.571,0.027-1.12,0.509-1.588,0.534c-0.17-0.219-0.345,0.28-0.719,0.076
			c-0.82,0.661-1.038-0.172-0.342-0.538c0.352-0.157-0.091-0.694,0.44-0.769c0.144-0.038,0.426,0.43,0.433,0.155
			c-0.042-0.16-0.345-0.293-0.205-0.474c-0.187-0.256-0.352-0.573-0.098-0.853c-0.699-0.196-0.052-1.423,0.463-0.748
			c0.073,0.143,0.018,0.308,0.06,0.453c0.094,0.269,0.567,0.037,0.593,0.361c-0.027,0.375,0.134,0.283,0.367,0.412
			c0.025,0.098,0.042,0.195,0.143,0.233c0.043,0.133,0.477,0.34,0.325,0.056c-0.146-0.144-0.476-0.621-0.208-0.767
			c0.073-0.376-0.841-0.078-0.22-0.604c0.127-0.599-0.691-0.032-0.82-0.442c-0.086-0.421,0.445-0.737,0.783-0.861
			c0.493-0.351,0.834,0.923,1.185,0.535c-0.426-0.446,0.44-1.019,0.646-0.415c0.556,0.236,0.724,0.219,0.492,0.857
			c0.264,0.312,0.521,0.628,0.297,1.055c0.22,0.429,0.383,0.779-0.013,1.184c-0.036,0.148,0.185,0.152,0.267,0.219
			c0.205,0.289,0.476,0.807,0.172,1.104c-0.298,0.354,0.174,0.647-0.039,0.989c0.536,0.836-0.225,0.328-0.685,0.686
			c-0.372,0.11-0.719,0.203-1.069,0.394C78.881,54.188,77.862,53.991,78.209,53.371z"/>
		<path fill="#1E8346" d="M82.425,51.183c0.529,0.233,0.16,0.612-0.23,0.691c-0.206,0.114-0.065,0.447-0.315,0.491
			c-0.282-0.064-0.405-0.689-0.091-0.835C82.089,51.544,82.183,51.02,82.425,51.183z"/>
		<path fill="#1E8346" d="M83.458,51.015c0.849-0.134,3.16,1.399,2.153,2.327c-0.066,0.297,0.306,0.516,0.245,0.81
			c-0.134,0.44-0.042,0.76-0.646,0.617c-0.244,0.124-0.471-0.171-0.702-0.049c-0.1,0.071-0.281,0.379-0.437,0.203
			c-0.025-0.572-0.673-0.537-1.044-0.794c-0.852-0.474-1.086-0.946-0.267-1.674C83.002,52.006,82.992,51.295,83.458,51.015z"/>
		<path fill="#1E8346" d="M83.747,55.08c0.105,0.081,0.195,0.151,0.205,0.289C83.84,55.861,83.026,54.929,83.747,55.08z"/>
		<path fill="#1E8346" d="M83.859,49.487c0.238,0.087,0.194,0.272,0.206,0.458C84.753,51.008,82.734,49.994,83.859,49.487z"/>
		<path fill="#1E8346" d="M82.58,49.689c0.063,0.029,0.069,0.067,0.029,0.109C82.675,50.016,82.268,49.778,82.58,49.689z"/>
		<path fill="#1E8346" d="M78.293,47.114c0.112-0.009,0.237-0.013,0.33,0.057C78.797,47.491,78.061,47.207,78.293,47.114z"/>
		<path fill="#1E8346" d="M77.472,47.09c0.58-0.022-0.402,0.881-0.592,0.942C76.357,47.907,77.29,47.25,77.472,47.09z"/>
		<path fill="#1E8346" d="M98.503,44.865c0.4,0.26-0.311,0.59,0.069,0.84c0.28,0.135-0.273,0.65-0.419,0.319
			C97.888,45.764,98.205,44.88,98.503,44.865z"/>
		<path fill="#1E8346" d="M84.002,48.318c0.557-0.368,0.778-0.349,1.156,0.239c0.372,0.663,1.134,1.122,1.294,1.881
			c-0.119,0.873-0.246,1.811,0.705,2.159c-0.093,0.658,0.134,1.453,0.938,1.533c0.307,0.046,0.394-0.316,0.701-0.246
			c0.517,0.31,1.293,0.798,1.71,0.026c-0.257-1.514,1.084-1.047,0.725,0.217c1.622-0.115,3.289-0.775,4.714-1.481
			c0.739-0.036,0.951-1.135,0.343-1.512c0.553,0.263,0.567,1.023,1.162,1.152c0.793-0.048,1.585-0.636,2.062-1.253
			c-0.095-0.609,0.215-0.965,0.547-1.414c0.07-0.353-0.319-0.595-0.625-0.586c-0.19,0.052-0.244,0.469-0.503,0.373
			c0.407-0.614,0.769-1.516-0.177-1.878c-0.473,0.147-0.344-0.394-0.646-0.522c-0.426-0.121-0.737,0.72-1.07,0.149
			c0-0.199-0.093-0.329-0.321-0.287c-0.55,0.041-1.105,0.045-1.457,0.544c-0.288,0.409-0.859,0.086-1.115,0.572
			c-0.529,0.805-1.76,0.93-1.426,1.868c-0.453,0.049-0.919-0.24-1.27-0.494c-0.487,0.037-0.723,0.872-1.289,0.359
			c-0.989-0.555,0.237,0.735-0.93,0.352c0.474-0.808-0.605-0.965-0.899-1.516c-0.21-0.064-0.567,0.312-0.74,0.035
			c0.057-0.064,0.12-0.125,0.162-0.198c-0.08-0.015-0.255,0.184-0.315,0.133c0.008-0.233-0.168-0.281-0.338-0.424
			c0.462,0.16,2.48-0.34,1.335-0.844c-0.285,0.025-0.505-0.095-0.76-0.183c-0.258-0.018-0.561,0.205-0.784-0.025
			c0.286-0.033,0.536-0.371,0.159-0.503c-0.227-0.172-0.255-0.519-0.59-0.564c-0.464-0.063-0.644,0.528-1.009,0.669
			c-0.336,0.051-0.636,0.213-0.951,0.335c-0.006-0.512-0.273-1.008-0.656-1.291c-0.375,0.407-0.684,0.063-1.07-0.091
			c-0.24-0.146-0.435-0.523-0.751-0.295c-0.189,0.242-0.469,0.125-0.674,0.314c-0.058,0.371-0.779,0.547-0.204,0.795
			c-0.479,0.103-0.463,0.716,0.108,0.623c0.491-0.129,0.424,0.515,0.771,0.543c0.111,0.187-0.254,0.529,0.188,0.494
			c0.246-0.088,0.982-0.121,0.732,0.308C82.415,49.216,83.724,48.229,84.002,48.318z"/>
		<path fill="#1E8346" d="M87.62,45.447c0.234,0.12-0.001,0.846,0.278,1.039c-0.134,0.834-1.083-0.578-0.769-0.963
			C87.306,45.444,87.417,45.221,87.62,45.447z"/>
		<path fill="#1E8346" d="M124.566,63.828c-0.221,0.19-0.244,0.282-0.056,0.481c-0.081,0.114-0.15,0.192-0.052,0.335
			c0.01,0.19-0.259,0.242-0.303,0.408c0.218-0.049,0.81,0.003,0.825,0.254c-0.006,0.158-0.302,0.285-0.162,0.432
			c0.164-0.026,0.341-0.347,0.533-0.136c0.021-0.035,0.021-0.076,0.018-0.116c0.259-0.047,0.497-0.157,0.736-0.254
			c0.077,0.219,0.206-0.176,0.326-0.177c0.114-0.029,0.188,0.109,0.297,0.071c0.145-0.094,0.251-0.314,0.462-0.313
			c0.343,0.229-0.473,0.569-0.465,0.838c0.155-0.147,0.282,0.025,0.398,0.103c0.132-0.004,0.322-0.1,0.455-0.03
			c0.107,0.134,0.135,0.422,0.403,0.332c0.383-0.158-0.009-0.516-0.049-0.723c0.18-0.379,0.432-0.037,0.448,0.239
			c0.071,0.174,0.303,0.158,0.382,0.339c0.147,0.248-0.203,0.593,0.03,0.809c0.483,0.004-0.389-1.122,0.766-0.667
			c0.343-0.214-0.173-0.362,0.048-0.585c0.069-0.35,0.35-0.05,0.369,0.138c0.238-0.162-0.014-0.251-0.013-0.432
			c0.028-0.289,0.562-0.515,0.787-0.369c0.071,0.172-0.205,0.299-0.158,0.493c-0.099,0.253,0.174,0.169,0.272,0.308
			c0.176,0.091,0.008-0.192,0.272-0.286c0.187-0.327,0.379,0.044,0.574,0.062c0.133-0.066,0.302-0.063,0.424-0.147
			c0.47-0.005,0.23,0.584,0.595,0.661c0.177,0.09,0.347,0.272,0.37,0.477c0.031,0.21-0.402,0.384-0.24,0.585
			c0.222-0.206,1.004-0.666,1.176-0.966c0.073-0.232-0.228-0.506,0.144-0.604c0.431,0.174,0.154,0.818,0.554,1.124
			c0.1,0.35,0.352,0.149,0.566,0.006c0.372-0.212,0.616-0.315,0.991-0.167c-0.167-0.19-0.544-0.194-0.308-0.522
			c-0.292-0.305,0.165-0.76,0.368-0.291c0.235,0.22,0.525,0.135,0.786,0.069c0.456-0.166,0.763,0.295,0.989,0.604
			c0.008,0.172-0.291,0.234-0.248,0.406c0.131,0.132,0.243,0.192,0.137,0.378c0.528-0.321,0.395,0.709,0.016,0.725
			c-0.218,0.214-0.377-0.025-0.596-0.057c-0.383,0.163-0.221,0.32,0.071,0.425c0.205,0.153,0.151,0.635,0.505,0.301
			c0.524-0.199,0.949,0.834,0.157,0.683c-0.209-0.089-0.422,0.218-0.1,0.15c0.256-0.072,0.44-0.03,0.596,0.194
			c0.612,0.268-0.288,0.251-0.141,0.581c0.32-0.02,0.237,0.274,0.35,0.466c-0.009-0.003-0.02-0.002-0.029-0.004
			c0.004,0.304-0.397,0.363-0.515,0.624c-0.245,0.12-0.436-0.209-0.64-0.123c0.491,0.621,1.142,1.14,1.224,2.002
			c0.061,0.187,0.508,0.646,0.309,0.757c-0.399,0.09-0.564-0.419-0.787,0.159c-0.179-0.01-0.218-0.335-0.472-0.287
			c-0.104-0.009-0.175,0.019-0.232-0.076c-0.506-0.517,0.168,0.375-0.198,0.46c-0.613,0.409-0.383-0.523-0.648-0.678
			c-0.248,0.002-0.149,0.512-0.482,0.323c-0.398-0.025-0.069-0.437-0.27-0.59c-0.383,0.561-0.526-0.376-0.887-0.114
			c-0.291,0.051-0.252-0.322-0.369-0.486c-0.182-0.112-0.024-0.2,0.081-0.289c0.054-0.268,0.042-0.452,0.301-0.587
			c0.116-0.174-0.193-0.407-0.24-0.13c-0.63,0.617-1.104,1.947-1.33,0.433c-0.541,1-0.819-0.191-1.54,0
			c-0.324,0.191-0.574-0.612-0.842-0.252c-0.006,0.207-0.155,0.191-0.31,0.146c-1.034,0.294,0.68,0.264,0.506,0.759
			c-0.054,0.44-0.448,0.111-0.653,0.002c-0.925,0.172,0.256,0.579,0.509,0.804c0.3,0.016,0.636-0.108,0.786,0.244
			c0.923,0.66-1.469,0.814-0.516,1.511c0.312-0.063,0.398,0.458,0.692,0.307c0.18-0.242-0.658-0.431-0.034-0.681
			c0.291,0.017,0.535,0.292,0.788,0.424c0.072,0.323,0.228,0.346,0.532,0.346c0.536,0.07,0.611,0.923,1.09,1.056
			c0.289,0.031,0.455,0.278,0.684,0.429c-0.252-0.888,0.398-0.288,0.747-0.27c0.172,0.45,0.594,0.131,0.475-0.252
			c0.119-0.389,0.783,0.152,0.888,0.368c0.189,0.42,0.383-0.041,0.657-0.053c0.872-0.069,0.228,1.409,1.073,1.316
			c0.288-0.098,0.483,0.235,0.751,0.202c0.17-0.03,0.212,0.025,0.315,0.135c0.115,0.121,0.139-0.039,0.204-0.104
			c0.37-0.06,0.592,0.52,0.739,0.807c0.246,0.321,0.525,0.628,0.75,0.941c0.421,0.621-0.507,0.083-0.682,0.215
			c0.142,0.498,0.491,0.742,0.984,0.844c0.107,0.297,0.294,0.289,0.561,0.326c0.174,0.23-0.098,0.588-0.373,0.482
			c-0.741,0.335,0.932,0.79,0.556,1.328c-0.857,0.297-1.112-1.19-2.059-0.569c-0.274,0.073-0.203,0.501-0.567,0.417
			c-0.181,0.033-0.758-0.392-0.548-0.06c0.126,0.68-3.628-1.47-2.348,0.027c-0.742,0.02-1.375-0.399-2.131-0.163
			c-0.863,0.545,0.9,0.616,1.183,0.8c0.364,0.548,1.043,0.409,1.602,0.443c0.285,0.337,0.326,0.125,0.655,0.034
			c0.519,0.161,0.976,1.004,1.564,0.479c0.794-0.355,0.784,0.746,1.28,0.894c0.326-0.047,0.352-0.585,0.741-0.41
			c0.694,0.162,0.46,0.941,0.766,1.325c-0.156,0.708-1.345,0.486-1.93,0.619c-1.059-0.175-1.792,0.833-2.797,0.935
			c-0.627-0.065-1.258-0.059-1.851-0.22c-0.359-0.296-0.496-0.776-1.017-0.35c-0.251,0.301-0.576,0.39-0.927,0.219
			c-0.402,0.102-0.849,0.177-1.2-0.105c-0.471-0.087-0.864,0.414-1.394,0.114c-0.31,0.02-0.286-0.369-0.52-0.453
			c-0.314,0.122-0.804,0.212-0.636-0.338c0.538-0.038,1.092-0.378,0.731-0.984c-0.475,0.013-0.92-0.23-1.298,0.173
			c-0.462,0.028-1.07,0.197-1.375-0.283c-0.326-0.175-0.688-0.356-0.943-0.617c-0.26-0.343-0.694,0.134-0.981-0.203
			c-0.376-0.305-0.632-0.174-0.818,0.206c-0.557,0.505-0.409-0.752-0.957-0.524c-0.294,0.343,0.224,1.018-0.474,1.167
			c-0.738,0.301-1.992-0.366-1.269,0.842c-0.761,0.568-1.267,1.416-2.155,1.833c-1.31,0.227-2.182-0.78-2.613-1.854
			c-0.475-0.694,0.544-1.163,0.766-1.694c-1.899-1.73,1.938-1.185,2.667-1.919c0.73-0.201-0.059-0.971,1.052-0.893
			c0.476-0.448,0.408-1.591,1.354-1.22c-0.451-0.742-1.255-0.978-2.043-1.203c-1.348-0.551,0.302-2.278,0.048-3.317
			c0.622-0.478-0.072-0.899,0.082-1.454c0.139-0.384,0.433-0.808,0.35-1.223c-0.624-0.63-1.055-1.372-1.713-1.927
			c-0.568-0.025-0.673-0.527-1.012-0.869c-0.204-0.787-1.33,0.172-1.845-0.257c-0.146-0.36-0.132-0.881-0.51-1.136
			c0.319,0.811-0.54,0.442-0.838,0.934c-0.09,0.275,0.22,0.15,0.168,0.397c-0.347,1.138-1.847-0.545-0.671-0.774
			c0.992-0.033,0.105-0.445-0.282-0.541c0.083-0.345-0.216-0.35-0.108-0.761c-0.032-0.012-0.081-0.01-0.113,0.003
			c0.052,0.271,0.196,0.663-0.271,0.617c-0.497,0.031-0.384,0.417-0.678,0.697c-0.402,0.222-0.011,1.081-0.61,1.02
			c-0.495-0.166-1.031-1.06-0.644-1.511c0.25-0.284,0.908-0.094,0.887-0.577c-0.353-0.987-1.909-0.75-2.721-1.151
			c-0.226-0.159-0.077-0.349-0.107-0.588c-0.198-0.468-0.702,0.11-0.794,0.364c-0.558-0.054-0.603-0.998-0.835-1.401
			c-0.356-0.593-0.672,0.437-1.165,0.183c-0.388-0.324-1.029-0.585-1.424-0.115c0.922-0.099,2.365,1.309,1.215,1.943
			c-0.477,0.495-1.087-0.182-1.633,0.069c-0.322,0.144-0.734-0.058-1.129,0.003c-1.307,0.321,0.306,0.775,0.734,0.988
			c0.311,0.307,0.558,0.002,0.818-0.2c0.491-0.029,0.578-0.447,0.96-0.465c0.992,0.344-0.343,0.815-0.462,1.243
			c-0.795-0.002-1.499-0.369-2.274-0.633c-0.125-0.029-0.802-0.345-0.547,0.056c0.077,0.121,0.241,0.132,0.138,0.312
			c-0.37,0.357-1.023,0.308-1.439,0.083c-1.213,0.326-2.461,0.685-3.745,0.673c0.583,0.518-1.063,0.37-1.336,0.165
			c-0.353-0.058-0.092-0.467-0.363-0.519c-0.38,0.109-0.368-0.152-0.604-0.134c0.146,0.089,0.235,0.141,0.226,0.352
			c-0.397,0.016-0.711,0.146-1.04,0.341c-0.637,0.023-1.365-0.359-1.873-0.706c-0.161-0.527-0.542-0.589-0.904-0.872
			c-0.05-0.333-0.372-0.648-0.35-0.979c1.178-0.086,4.024,0.024,1.686-1.336c-0.681,0.14-1.443,0.236-2.169,0.335
			c-0.637,0.235-0.549-0.55-0.822-0.877c-0.327-0.329,0.095-0.852-0.266-1.163c-0.63-0.536-0.321-0.845-0.008-1.393
			c-0.112-0.055-0.254-0.129-0.351-0.208c0.262-0.683-0.755-1.331-0.054-1.985c-0.398-2.613,1.01-5.574,3.938-5.645
			c0.483,0.431-0.309,1.169-0.464,1.603c0.429,1.241-0.819,2.382,0.016,3.488c0.507,0.21,0.865,0.494,0.735,1.105
			c0.087,1.288,1.096,1.989,2.043,2.669c0.253,0.161,0.869,0.365,1.137,0.134c0.235-0.267-0.073-1.017-0.487-0.765
			c-0.864,0.346-1.06-0.824-1.771-0.852c-0.027-0.339,0.18-0.246,0.374-0.39c0.325-0.488-0.757-1.249,0.5-1.06
			c0.016-0.219,0.144-0.405,0.16-0.614c-0.427-0.065-1.112,0.367-1.311-0.235c-0.463-0.694-0.495-0.965-0.556-1.767
			c0.078-0.473,0.67,0.282,0.871-0.003c0.042-0.248-0.326-0.252-0.491-0.306c-0.953-0.364,0.816-0.416,1.098-0.517
			c-0.389-0.084-0.862,0.109-1.193-0.236c-0.257-0.246-0.06-0.846,0.305-0.722c0.074-0.255,0.158-0.525,0.477-0.546
			c0.48-0.057,0.136-0.305,0.108-0.562c0.625-0.854,1.736-2.014,2.835-1.121c0.371,0.915,0.134,1.217,1.281,1.436
			c0.217,0.096,0.239,0.3,0.245,0.51c0.072,0.441,0.563,0.633,0.845,0.896c0.257,0.328-0.79,1.542-0.044,1.345
			c0.3-0.727,0.481,0.983,0.5,1.184c0.291-0.036,0.038,0.267,0.056,0.421c0.896-0.322-0.137-1.674,0.717-2.084
			c0.071,0.054,0.238,0.144,0.26,0.24c0.519-0.398,0.949,0.003,0.971,0.615c0.237,0.91,0.503,0.631,0.396-0.161
			c0.23,0.094,0.404,0.362,0.683,0.413c0.029-0.476-0.501-0.557-0.843-0.594c-0.133-0.073-0.097-0.206-0.157-0.313
			c-0.043-0.077-0.229-0.135-0.14-0.223c0.428-0.025,0.912-0.179,1.357-0.089c-0.096-0.455-0.897,0.046-1.179-0.101
			c-0.766-0.701-0.206-1.502,0.414-2.075c0.528-0.361,1.031-0.094,1.58-0.014c0.306-0.036,0.584,0.688,0.567,0.023
			c0.4-0.549,1.87,0.359,1.523,1.007c-0.222,1.009,1.146-1.169,1.674,0.325c0.422,0.365-0.971,1.356-0.058,1.173
			c0.073,0.032,0.096,0.115,0.105,0.186c0.238-0.096,0.22-0.276,0.094-0.443c0.007-0.31,1.039-1.135,0.896-0.357
			c-0.03,0.109-0.202,0.331-0.054,0.354c0.471-0.092,0.671,0.678,1.206,0.679c0.172-0.365-0.65-0.464-0.446-0.879
			c0.154-0.123,0.026-0.404,0.276-0.391c0.626-1.16,3.041-0.126,2.523,1.197c0.33,0.085,0.659-0.14,0.73-0.465
			c0.081-0.297,0.41-0.116,0.608-0.056c0.419,0.305,0.195,1.225,0.157,1.68c0.695-0.113,0.29-1.237,0.751-1.592
			c0.471-0.301-0.267,1.299,0.604,0.472c-0.145-0.847,1.04-0.701,1.593-0.579c0.777,0.155,0.147,1.011,0.212,1.516
			c-0.296,0.192-0.681,1.016-0.087,0.387c0.839-0.766,0.816,0.348,0.572,0.921c-0.017,0.101-0.09,0.46,0.036,0.528
			c0.198,0.105,0.187-0.401,0.191-0.494c0.011-0.265,0.299-0.443,0.378-0.694c0.332-0.499-0.771-1.198,0.054-1.443
			c0.836-0.056,1.557,0.631,2.09,1.195c-0.048,0.368-0.604,0.373-0.848,0.576c-0.292,0.287-0.222,0.712-0.374,1.065
			c0.092,0.039,0.258-0.084,0.312-0.151c0.046-0.432,0.358-0.83,0.49-0.131c0.498,0.272,0.563-0.417,1.017-0.346
			c0.553,0.141,2.103,0.342,0.837,0.965c-0.404,0.091-0.504,0.565-0.995,0.4c-0.646-0.012-1.248,0.698-0.962,1.267
			C123.817,64.254,123.051,62.981,124.566,63.828z"/>
		<path fill="#1E8346" d="M118.133,70.66c0.112,0.037,0.178,0.183,0.256,0.258C118.227,71.343,117.269,70.406,118.133,70.66z"/>
		<path fill="#1E8346" d="M141.745,78.799c0.134,0.227,0.539,0.451,0.491,0.749C141.767,79.938,141.081,78.588,141.745,78.799z"/>
		<path fill="#1E8346" d="M139.249,69.906c0.165-0.08,0.164,0.089,0.144,0.216c-0.06,0.181-0.514,0.181-0.274-0.033
			C139.16,70.035,139.185,69.927,139.249,69.906z"/>
		<path fill="#1E8346" d="M135.226,65.27c0.263-0.025,0.089,0.623,0.056,0.776c-0.144,0.095-0.263-0.065-0.189-0.183
			C134.83,65.627,134.934,65.43,135.226,65.27z"/>
		<path fill="#1E8346" d="M133.635,65.697c0.365,0.249-0.435,0.569-0.209,0.189C133.395,65.768,133.514,65.714,133.635,65.697z"/>
		<path fill="#1E8346" d="M102.52,53.982c1.228-1.102,2.854-0.152,3.826,0.833c0.424,0.252,1.123,0.385,0.497,0.943
			c-0.767,0.414-1.958,0.062-2.342,1.084c-0.201,0.376-0.249,0.76-0.769,0.7c-0.812-0.175-1.514-0.719-1.831-1.466
			c-0.234-0.298-0.563-0.028-0.824-0.225c-0.302-0.379-0.104-0.849-0.435-1.252C100.761,53.664,102.092,54.542,102.52,53.982z"/>
		<path fill="#1E8346" d="M85.221,22.341c-0.136,0.257,0.424,0.407,0.062,0.63c-0.257,0.713,1.222,0.705,1.273,1.093
			c-0.371,0.216-0.932-0.55-1.037-0.015c-0.275-0.057-0.458-0.488-0.792-0.461c-0.298,0.196-1.052-0.37-0.947,0.271
			c1.088,0.576-1.134,0.613,0.409,1.149c0.109-0.032,0.344,0.048,0.214,0.185c-0.32-0.032-0.585-0.042-0.798,0.247
			c-0.263,0.1-0.38-0.393-0.673-0.19c-0.209,0.145-0.669,0.488-0.403,0.731c0.076,0.371-0.385,0.138-0.556,0.209
			c-0.258,0.237-0.557,0.517-0.655,0.858c-0.175,0.09-0.049,0.324,0.072,0.406c0.319,0.373,0.876-0.997,1.069-0.151
			c-0.144,0.227-0.373,0.468-0.359,0.749c0.591,0.037,0.813-0.458,1.187-0.778c-0.102,0.398-0.255,0.588-0.562,0.835
			c-0.066,0.192,0.325,0.289,0.268,0.451c-0.589,0.136-0.128,0.575,0.18,0.74c1.102,0.121,1.805-0.995,2.512-1.664
			c-0.085,0.994-1.196,1.5-1.982,1.904c-0.47,0.07,0.09,0.575,0.277,0.671c0.294-0.115,0.447,0.149,0.725,0.104
			c0.85,0.414,0.348-1.397,0.978-1.673c0.335-0.36,0.857-0.431,1.173-0.817c0.056-0.042,0.364-0.353,0.372-0.147
			c-0.441,0.52-1.389,0.787-1.567,1.413c-0.037,0.425-0.084,0.816-0.115,1.234c0.282,0.346,1.002,0.121,1.439,0.089
			c0.281-0.108,0.53-0.516,0.432-0.804c-0.044-0.08-0.195-0.217-0.058-0.3c0.297,0.458,0.618-0.598,0.91-0.4
			c-0.228,0.339-0.801,0.917,0.059,0.87c0.403-0.195,0.523-0.69,0.844-0.958c0.425-0.025,0.116-0.193,0.244-0.391
			c0.616-0.685-0.424-2.174,0.621-2.842c-0.292,0.655-0.261,1.345-0.247,2.06c0.201,0.565,0.768-0.149,1.086-0.258
			c0.567-0.096-0.086,0.283-0.252,0.405c-0.36,0.347-1.301,1.355-0.191,0.97c-0.239,0.334-0.758,0.566-0.982,0.929
			c-0.843,0.805-1.731,1.015-0.322,1.875c0.784,0.066,1.091,1.357,1.972,0.829c0.307-0.308,0.26,0.203-0.009,0.255
			c-1.192,0.873-2.061-1.23-3.266-1.46c-0.232-0.113-0.454,0.146-0.696,0.155c-0.308,0.115-0.841-0.119-1.022,0.238
			c0.164,0.321,0.057,0.89,0.498,1.036c0.049-0.001,0.456-0.086,0.286,0.036c-0.56,0.069-0.05,1.114,0.407,0.877
			c0.484,0.071,1.265,0.739,1.514,1.126c0.18,0.601,1.644,0.833,0.241,0.818c-0.037,0.966,0.952,0.378,1.492,0.504
			c0.456-0.088,0.475-0.605,0.776-0.82c0.229,0.276-0.022,0.805-0.402,0.728c-0.382,0.106-0.626,0.635-0.03,0.537
			c0.558,0.015,0.128,0.466-0.189,0.207c-0.719-0.397-1.995-0.438-2.44,0.332c-0.676,0.33-0.226,1.041-0.525,1.506
			c-0.225,0.327,0.215,0.415,0.282,0.687c0.112,0.845,0.564,0.638,1.012,0.148c-0.083,0.586,0.057,0.487,0.563,0.353
			c0.198-0.214,0.325-0.693,0.276-0.983c0.245,0.301,0.354,0.635,0.324,1.015c-0.536,0.323-0.341,0.611,0.234,0.452
			c0.062,0.219-0.203,0.082-0.258,0.22c-0.046,0.367,1.366,1.114,0.422,1.156c0.068,0.193,0.406,0.249,0.427-0.018
			c0.259-0.043,0.528-0.012,0.758-0.249c0.542-0.218,0.231-1.056,0.366-1.548c0.004-0.208-0.252-0.842,0.108-0.783
			c-0.03,0.512,0.068,1.033,0.143,1.553c0.053,0.514-0.468,0.827-0.089,1.269c-0.406,0.059-0.855-0.05-0.795,0.517
			c-0.326-0.241-0.803-0.098-1.084-0.414c-0.491-0.607-0.95-1.393-1.841-1.026c-0.722,0.191-1.091,1.176-0.118,1.288
			c0.412,0.757,0.202,0.8,1.119,0.473c-0.18,0.274,0.086,0.461,0.056,0.699c-0.568,0.527-1.296,0.401-1.52,1.371
			c-0.251,0.506-0.137,2.149,0.614,2.128c0.323-0.184-0.105-0.585,0.176-0.835c0.19,0.225,0.343,0.407,0.345,0.704
			c0.224,0.264,0.662-0.083,0.974,0.133c0.391,0.051-0.21-0.714,0.133-0.498c0.104,0.076,0.162,0.273,0.289,0.306
			c0.294,0.045-0.044-0.548,0.398-0.331c0.217,0.236,0.412,0.352,0.699,0.114c0.664,0.221,2.276-0.436,0.74-0.68
			c-0.346-0.574,0.761,0.477,0.546-0.888c0.46,0.396,0.53,0.871,1.096,0.176c0.282,0.4,0.856,0.211,0.936-0.232
			c0.036-0.179-0.003-0.162,0.157-0.15c0.317-0.083,0.863-0.629,1.04-0.03c-0.121,1.382,1.117,0.227,1.511-0.241
			c0.064-0.303-0.12-0.811,0.147-1.049c0.926,0.26,0.336-1.56-0.119-1.855c-0.189-0.084-0.457,0.081-0.531,0.26
			c0.015,0.129,0.062,0.359-0.134,0.376c-0.179-0.102-0.262-0.293-0.505-0.191c-0.064-0.254,0.195-0.553-0.041-0.739
			c-0.247-0.148-0.542-0.316-0.807-0.065c-0.249,0.084-0.041,0.451-0.295,0.477c-0.06-0.527-1.108-0.382-1.105,0.197
			c-0.035,0.47-0.658-0.196-0.404-0.322c0.154,0.033,0.428-0.09,0.368-0.28c-0.368-0.016-0.779-0.176-0.654-0.646
			c0.59,0.516,1.419,0.915,2.037,0.263c0.746-0.218,1.16-0.911,0.937-1.691c-0.234-0.166-0.361-0.314-0.46-0.592
			c-0.05-0.061,0.201-0.279,0.029-0.268c-0.249,0.382-0.861-0.158-0.373-0.336c0.161,0.073,0.292,0.02,0.414-0.107
			c0.225-0.099,0.612,0.1,0.597-0.314c0.138-0.351,0.704-0.249,0.519-0.742c0.143-0.542-1.381,0.18-0.797-0.312
			c0.508-0.124,0.899-0.538,0.438-1.019c-0.105-0.121-0.349-0.035-0.346-0.25c0.138-0.192,0.303-0.424,0.249-0.682
			c-0.049-0.107-0.23-0.147-0.083-0.285c0.261-0.185,0.564-0.376,0.016-0.344c-0.174,0.047-0.284,0.039-0.407-0.097
			c-0.384-0.157-0.721,0.059-1.001,0.274c-0.092-0.059,0.189-0.249,0.116-0.355c-0.131-0.097-0.305-0.231-0.494-0.182
			c-0.282,0.072-0.458,0.518-0.753,0.444c-0.073-0.297,1.017-0.455,0.572-0.796c-0.254,0.101-0.617,0.456-0.893,0.249
			c0.384-0.031,0.639-0.402,1.019-0.418c0.439,0.634,1.808-0.087,0.765-0.522c-0.557-0.29-1.119,0.209-1.603,0.416
			c-0.646,0.199-0.747-0.722-0.21-0.919c0.395-0.252,0.713,0.314,1.06,0.075c0.14-0.091,0.039-0.317,0.224-0.344
			c0.46-0.062,0.466-0.617,0.868-0.823c0.075-0.504-0.445-0.927-0.916-0.728c-0.036,0.017-0.606,0.33-0.479,0.058
			c0.914-0.822,0.989,0.506,1.752-0.281c0.148-0.294,0.488-1.427-0.099-1.13c0.126-0.218,0.188-0.806-0.227-0.623
			c-0.019,0.161-0.582,0.653-0.461,0.234c0.445-0.523,1.113-0.968,0.094-1.269c0.004-0.147,0.234,0.022,0.313-0.01
			c0.13-0.984,0.195-2.021,0.222-3.025c-0.253-0.585-0.475-1.289,0.015-1.826c0.159-0.545-0.605-0.985-0.761-0.312
			c-0.135,0.683-0.585,1.314-1.028,1.813c0.047-0.392,0.53-0.635,0.586-1.042c0.043-0.625-0.501-0.367-0.762-0.084
			c-0.023-0.373,0.666-0.536,0.743-0.896c0.017-0.201-0.104-0.47,0.153-0.585c0.724-0.096,0.79-1.398,0.302-1.861
			c-0.233-0.18-0.438-0.374-0.238-0.659c0.381-0.999-1.563-0.523-2.109-0.918c-0.311-0.172-0.465,0.259-0.762,0.12
			c-0.483,0.189-0.459,0.968-0.882,1.314c0.906-1.524-0.272-1.174-1.164-0.574c-0.467-0.277-0.779,0.001-1.091,0.361
			c-0.85,0.286-0.739,0.613-0.178,1.151c-0.131,0.565-0.747-0.595-1.117-0.454c-2.386,0.604-0.425,0.699,0.126,1.697
			c-0.462-0.051-0.857-0.736-1.366-0.667c0.037,0.75-1.044-0.235-1.042,0.576c-0.122,0.3,0.408,0.185,0.442,0.499
			c-0.147,0.26-0.468-0.19-0.682-0.134c-0.691,0.258,0.5,0.48,0.466,0.834C85.738,22.435,85.474,22.15,85.221,22.341z"/>
		<path fill="#1E8346" d="M94.298,32.045c0.659,0.194-0.221,0.67-0.509,0.384C93.594,32.347,94.324,31.765,94.298,32.045z"/>
		<path fill="#1E8346" d="M88.36,35.897c-0.205,0.158-0.591,0.37-0.403,0.693C88.05,36.87,88.865,35.975,88.36,35.897z"/>
		<path fill="#1E8346" d="M81.175,28.672c0.25,0.222,0.559,0.539,0.727,0.866c0.175,0.574,1.045,0.736,1.097,1.376
			c-0.016,0.402,0.697,0.156,1.007,0.321c0.426,0.042,0.056,1.694,1.064,1.302c-0.94-1.188,0.282-1.824,0.343-0.267
			c0.088,0.299,0.399,0.092,0.55,0.281c0.288,0.459,0.329,0.955,0.507,1.455c0.208,0.796,0.581-0.897,1.055,0.248
			c0.22-0.025,0.343-0.024,0.397,0.207c1.999,0.433-0.976,1.667-0.619,2.764c0.014,0.269,0.113,0.537-0.205,0.653
			c-0.206,0.18,0.35,0.954-0.181,0.78c-0.131,0.325,0.468,0.558,0.152,0.841c-0.152,1.081-0.822-0.251-1.251-0.51
			c-0.455-0.143,0.91,0.975,0.413,1.071c-0.276-0.1-0.42-0.504-0.762-0.213c-0.112,0.236,0.289,0.321,0.273,0.525
			c-0.079,0.212-0.361,0.215-0.526,0.099c-0.417-0.076-0.835-0.025-1.211-0.285c-1.398-0.592,0.155-0.937-0.548-1.189
			c-0.653,0.601-1.081-0.407-1.538-1.245c-0.073-0.417,0.528-0.322,0.576-0.734c0.336-0.271,1.014-0.133,1.383-0.519
			c-0.257-0.077-1.658,0.53-0.738-0.43c-0.267-0.283-0.223-0.415-0.624-0.186c-0.159,0.296-0.442,0.492-0.679,0.728
			c-0.244-0.01,0.027-0.392-0.244-0.402c-0.409-0.21-0.086,0.461-0.535,0.421c-0.202-0.211-1.139-0.699-0.487-0.947
			c0.397-0.011,0.756-0.933,0.196-0.4c-0.664,0.608-1.074-0.386-1.163-0.934c-0.19-0.174-0.567-0.539-0.311-0.793
			c0.385-0.258,0.803,0.507,1.194,0.178c0.281-0.294,0.098-0.413-0.242-0.348c-0.213,0.024-0.353-0.078-0.449-0.267
			c-0.169-0.06-0.488-0.125-0.481-0.372c0.041-0.297,0.848-0.187,0.313-0.548c-0.237-0.213,0.117-0.377,0.126-0.571
			c-0.203-0.073-0.187-0.268,0.021-0.377c0.35-0.073,0.541,0.804,0.927,0.282c-0.088-0.142-0.331-0.191-0.273-0.408
			c-0.214-0.082-0.42-0.213-0.656-0.257c-0.226-0.075,0.046-0.216,0.005-0.366c-0.231-0.374,0.174-0.895,0.569-0.663
			c-0.253-0.494,0.561-0.057,0.521-0.419c-0.021-0.128-0.071-0.219-0.202-0.204c-0.542,0.26-0.896-0.475-0.222-0.529
			c0.124-0.005,0.16-0.041,0.23-0.145C80.807,28.359,80.986,28.743,81.175,28.672z"/>
	</g>
</g>
</svg>
