<?xml version="1.0" encoding="utf-8"?>
<!-- Generator: Adobe Illustrator 26.0.3, SVG Export Plug-In . SVG Version: 6.00 Build 0)  -->
<svg version="1.1" id="Layer_1" xmlns="http://www.w3.org/2000/svg" xmlns:xlink="http://www.w3.org/1999/xlink" x="0px" y="0px"
	 viewBox="0 0 200 200" enable-background="new 0 0 200 200" xml:space="preserve">
<g id="Layer_1_00000039101616784394932790000014179563260535407269_">
	<g id="Layer_1_00000061442898653323928190000005571608892069918396_">
		<g id="Layer_1_00000098929087308412571940000004538787532203942811_">
		</g>
	</g>
</g>
<path fill="#1E8346" d="M123.6,54.8c0.1,0,0.6-0.3,0.7-0.3c-0.7-0.3,1.3-0.6,0.9-1C126.5,52.4,122.5,54.5,123.6,54.8z"/>
<path fill="#1E8346" d="M125.5,57.9c0.3,0.3,0.4-0.1,0.6-0.3c0.2,0.2-0.1,0.5-0.2,0.6c0.2,0.5,0.4,0.2,0.4-0.1
	c0.1-0.1,0.2-0.1,0.2-0.3c0.1-0.1,0.2-0.1,0.2-0.3c0.3-0.1,0.5-0.5,0.8-0.7c-0.1-0.4,0.1-0.2,0.5-0.3c0.7-0.3-0.6-0.4-1.4-0.2
	c-0.3,0.3-0.8,0.4-0.9,0.9C125.5,57.3,125.3,57.6,125.5,57.9z"/>
<path fill="#1E8346" d="M104.9,49.3c0.1,0,0.2-0.8,0.2-0.8c-0.2,0-0.5,0.1-0.6,0c0,0.4,0,0.7,0,1.1
	C104.6,49.6,104.9,49.4,104.9,49.3z"/>
<path fill="#1E8346" d="M119.7,58.9c0.1-0.1,0.1-0.3,0-0.3C119.6,58.5,119.5,59.2,119.7,58.9z"/>
<path fill="#1E8346" d="M119.5,59.5C119.5,59.5,119.4,59.5,119.5,59.5C119.5,59.7,119.7,59.4,119.5,59.5z"/>
<path fill="#1E8346" d="M119.2,59.8c0-0.6-1.1,0.7-0.4,0.3C119.1,60,118.9,59.8,119.2,59.8z"/>
<path fill="#1E8346" d="M119.4,59.3c0-0.3-0.6,0.1-0.4,0.2C119.1,59.5,119.3,59.3,119.4,59.3z"/>
<path fill="#1E8346" d="M117.9,59.1c-0.1,0,0,0.2,0.1,0.1C118.1,59.2,118,59,117.9,59.1z"/>
<path fill="#1E8346" d="M118.6,58.9c-0.1,0-0.1,0.2,0,0.2C118.7,59.1,118.7,58.8,118.6,58.9z"/>
<path fill="#1E8346" d="M118.7,59.2c-0.1,0.1,0.1,0.2,0.1,0.2C118.9,59.3,118.8,59.2,118.7,59.2z"/>
<path fill="#1E8346" d="M119.2,59v-0.2V59z"/>
<path fill="#1E8346" d="M118.9,58.7c-0.2,0-0.3,0.3-0.1,0.4c0,0.1,0.1,0.2,0.1,0C118.9,59,118.8,58.8,118.9,58.7z"/>
<path fill="#1E8346" d="M132.1,60.5c0.2,0,0.1-0.4,0-0.5C131.8,60,131.9,60.5,132.1,60.5z"/>
<path fill="#1E8346" d="M141.5,61.9c0.2,0.1,0.2,0,0.2-0.1c0.1,0.1,0.4,0.2,0.5,0c0.2,0.4,0.5-0.1,0.4-0.3c-0.2,0.1-0.3-0.2-0.4-0.3
	c-0.4-0.1-0.2,0.4-0.5,0.4c-0.1,0.2-0.2,0.1-0.2,0C141.4,61.6,141.4,61.8,141.5,61.9z"/>
<path fill="#1E8346" d="M139.7,62.1c0.2-0.1,0-0.1,0-0.2C139.5,61.9,139.5,62.2,139.7,62.1z"/>
<path fill="#1E8346" d="M139.2,62.8c0,0.3,0.8,0.7,0.7,0.1C139.8,62.8,139.1,62.8,139.2,62.8z"/>
<path fill="#1E8346" d="M136.3,63.2L136,63C135.9,63.2,136.2,63.4,136.3,63.2z"/>
<path fill="#1E8346" d="M136,63.4c-0.2,0.1-0.2,0.7-0.1,0.8C136.4,64.3,136.3,63.5,136,63.4z"/>
<path fill="#1E8346" d="M131.9,65.5c-0.1-0.1-0.4,0.1-0.4,0.2C131.9,66,131.9,65.8,131.9,65.5z"/>
<path fill="#1E8346" d="M131.6,66.2c-0.3-0.7-0.5,0.3-0.7,0.4s-0.1,0.1-0.2,0.3c-0.1,0.4-0.3,0.4-0.3,0.7c-0.2,0.8,0.6,0.9,0.7,0.1
	c-0.1-0.3,0.3-0.7,0.4-0.8c-0.1-0.2-0.1-0.2,0-0.4C131.4,66.4,131.5,66.3,131.6,66.2z"/>
<path fill="#1E8346" d="M134.8,66.4c-0.5-0.1-0.1,0.6,0.2,0.4C134.8,66.7,135,66.5,134.8,66.4z"/>
<path fill="#1E8346" d="M134.3,67.1c0.1,0.2,0.3,0,0.2-0.1C134.5,66.9,134.3,67,134.3,67.1z"/>
<path fill="#1E8346" d="M136.6,66.9c-0.2,0-0.1,0.3-0.2,0.4c0.2,0.1,0,0.4,0,0.6C136.5,67.9,136.7,67.2,136.6,66.9z"/>
<path fill="#1E8346" d="M188.6,62.3c0,0.1-0.1,0.4-0.2,0.5C188.7,63,188.9,62.4,188.6,62.3z"/>
<path fill="#1E8346" d="M189.7,61.7c-0.4,0,0.2,0.8,0.2,0.3C189.9,61.9,189.7,61.6,189.7,61.7z"/>
<path fill="#1E8346" d="M189.4,61.6c0,0.1,0,0.3,0.1,0.4C189.6,61.9,189.5,61.6,189.4,61.6z"/>
<path fill="#1E8346" d="M192.2,60.1c-0.1,0.1-0.4,0.1-0.3-0.1c0.3,0,0.2-0.5-0.1-0.1c-0.1,0.1-0.3,0.5,0,0.3c0.1,0,0.2,0.3,0.2,0.3
	C192.1,60.5,192.3,60.2,192.2,60.1z"/>
<path fill="#1E8346" d="M192.6,60c-0.2,0-0.1,0.5,0.1,0.3C192.7,60.3,192.6,60,192.6,60z"/>
<path fill="#1E8346" d="M193.2,59.3c0,0-0.2,0.2-0.3,0.2c0,0.2,0.1,0.1,0.2,0.1C193.4,59.7,193.4,59.3,193.2,59.3z"/>
<path fill="#1E8346" d="M192.5,59.6c-0.1-0.1,0-0.1,0-0.2c0-0.1-0.2-0.2-0.3-0.2c0,0.1,0.1,0.4-0.1,0.3
	C192.1,59.6,192.5,59.9,192.5,59.6z"/>
<path fill="#1E8346" d="M193.7,58.2c-0.2-0.2-0.6-0.3-0.5,0.1c-0.7,0.5,0.9,1.2,0.2,0.2c0.1-0.3,0.1,0.2,0.2,0.2
	C193.8,58.7,194,58.3,193.7,58.2z"/>
<path fill="#1E8346" d="M191.5,59.4c0.1,0,0-0.3,0-0.4c0.1-0.1,0-0.2-0.1-0.3C191.4,58.8,191.4,59.4,191.5,59.4z"/>
<path fill="#1E8346" d="M192.7,58.5c-0.1,0-0.1,0.3,0,0.3S192.8,58.5,192.7,58.5z"/>
<path fill="#1E8346" d="M167.9,66.8c0.1-0.2,0.1-0.4-0.1-0.2C167.6,66.7,167.8,67.1,167.9,66.8z"/>
<path fill="#1E8346" d="M191.5,73.5c0.2,0.3,0.3,0.5-0.2,0.5C190.3,74.5,193,74.4,191.5,73.5z"/>
<path fill="#1E8346" d="M190.1,73.8c-0.2-0.1-0.2,0.3,0,0.3C190.2,74.1,190.2,73.9,190.1,73.8z"/>
<path fill="#1E8346" d="M189.7,73.9c-0.3,0-0.1-0.5-0.3-0.1c-0.3,0.1-0.2,0.3-0.3,0.5c-0.1,0-0.2,0-0.2,0.2c0.5,0.4,0.1-0.2,0.6-0.1
	C189.7,74.3,190.4,74.3,189.7,73.9z"/>
<path fill="#1E8346" d="M189,73.8c0.1-0.3-0.2,0-0.2,0.1S189,73.9,189,73.8z"/>
<path fill="#1E8346" d="M186.5,75.6c0,0,0,0.2-0.1,0.3C186.5,76.4,186.9,75.7,186.5,75.6z"/>
<path fill="#1E8346" d="M178.3,81c0,0.4,0.3,0.1,0.3-0.1c0.4-0.1,0.1-0.7-0.3-0.3C178.3,80.8,178.4,80.9,178.3,81z"/>
<path fill="#1E8346" d="M185.6,76.6c0,0.2-0.2,0.2-0.3,0.3c0,0.1-0.1,0.3-0.3,0.3c-0.5-0.5-0.8,0.3-1.1,0.5c0.1,0.2-0.1,0.2-0.3,0.2
	c-0.4,0.3-0.2-0.1-0.1-0.3c0.2-0.1,0.2-0.1,0.3-0.3c0.1-0.2,0.2-0.1,0.1-0.3c0-0.2,0.2-0.3,0.3-0.3c0.4-0.4-0.3-0.1-0.4,0.1
	c-0.4,1-1.2,1.1-2.1,1.2c0,0.2-0.2,0.1-0.3,0c-0.1,0-0.1,0.1,0,0.2c-0.1,0.3-0.3,0.2-0.8,0.2c0,0.6-0.1,0-0.3,0
	c-0.1,0.1,0,0.3,0,0.3c-0.3,0.3-0.1-0.4-0.5,0c-0.1,0.1-0.1,0.3-0.1,0.3s-0.2-0.2-0.2,0c-0.1,0.2,0.3,0,0.1,0.3
	c-0.2-0.1-0.2,0-0.2,0.1c-0.1,0-0.2-0.1-0.3,0c0,0.1-0.2,0.3-0.3,0.3c-0.1,0.1-0.1,0.4-0.2,0.6c-0.1,0.4,0.7,0.3,0.4,0
	c0.2,0,0.4-0.2,0.4-0.2c0.1,0.2,0.4,0.4,0.4,0c0.1,0,0.4-0.1,0.5-0.3c0.3,0,0.7-0.3,0.9-0.4c0.1,0,0.1-0.1,0.1-0.1
	c0.2-0.1,0.4,0.1,0.3-0.2c0-0.1,0.3,0.1,0.4,0c0-0.2,0.2-0.1,0.3-0.2c0.1-0.2,0.1-0.3,0.3-0.1c0.1-0.2,0-0.3,0.3-0.2
	c0-0.5,0.8,0,0.8-0.5c0-0.1-0.1-0.3,0.1-0.3c0.2,0.3,0.7-0.5,1-0.6C185.1,77.3,186,76.7,185.6,76.6z"/>
<path fill="#1E8346" d="M178.8,86.6c-0.1,0-0.3,0.3-0.2,0.4C178.6,87,179.1,86.7,178.8,86.6z"/>
<path fill="#1E8346" d="M179.6,80.4l-0.1,0.1C179.4,80.8,179.9,80.5,179.6,80.4z"/>
<path fill="#1E8346" d="M182.4,79.2c-1.4,1-0.6,0.2-1.5,0.7c-0.1,0.2-1,0.4-0.8,0.4c1.1-0.3,2-0.8,2.9-1.5
	C183.7,78.2,182.9,79,182.4,79.2z"/>
<path fill="#1E8346" d="M187.2,73.6c0-0.3-0.1,0.1-0.2,0.1c0,0-0.1-0.3-0.3-0.2c0.1,0.1,0.3,0.5,0.3,0.7c0,0.5-0.1-0.2-0.2-0.2
	c-0.2,0.1-0.1,0.3,0,0.5c0,0.2-0.1,0.4,0.2,0.4c0.1,0,0-0.5,0.1-0.6C187.4,74.1,187.2,73.9,187.2,73.6z"/>
<path fill="#1E8346" d="M177.3,89c-0.2,0.2,0.2,0.2,0.2,0C177.5,88.9,177.4,88.9,177.3,89z"/>
<path fill="#1E8346" d="M179.5,83.6c0-0.3,0-0.6-0.1-0.6c0.1,0.9,0,1.9-0.2,2.8C179.5,85.1,179.6,84.4,179.5,83.6z"/>
<path fill="#1E8346" d="M179.1,86.1c-0.4-0.4-0.2,0.8-0.1,0.3C179.1,86.3,179.1,86.2,179.1,86.1z"/>
<path fill="#1E8346" d="M178.5,87.3c0.1-0.2,0-0.3-0.2,0C178.2,87.6,178.3,87.5,178.5,87.3z"/>
<path fill="#1E8346" d="M178.1,88.2c0.2-0.2-0.1-0.3-0.1,0C177.9,88.5,178,88.5,178.1,88.2z"/>
<path fill="#1E8346" d="M177.8,88.9C178,88.6,178,88.4,177.8,88.9C177.6,89,177.6,89.1,177.8,88.9z"/>
<path fill="#1E8346" d="M179.1,105.4c-0.2-1.6-1.9-2.8-2.6-4.3c0.1,0.3,0.9,1.7,1,2c0.1-0.2,0.1,0,0.2,0.2c0.3,0.4,0.5,0.6,0.6,0.9
	c0.2,0,0.1,0.2,0.2,0.3c1.1,2.6-0.2,1.9-1.2,3.4c0.5-0.3,1-1,1.7-1C179.2,106.1,179.1,105.6,179.1,105.4z"/>
<path fill="#1E8346" d="M178.2,103.8c-0.1-0.1-0.3-0.4-0.4-0.4c-0.1,0.1,0.1,0.2,0.2,0.2C177.9,103.9,178.2,104.2,178.2,103.8z"/>
<path fill="#1E8346" d="M176.2,109.4c-0.1,0.1-0.4,1.2-0.3,0.9C176.1,109.7,177,108.3,176.2,109.4z"/>
<path fill="#1E8346" d="M175.2,99.2c-0.3,0,0.1,0.5,0,0.1C175.3,99.3,175.3,99.2,175.2,99.2z"/>
<path fill="#1E8346" d="M177.4,93c0.2-1.4-0.3,0.9-0.5,1.2C177.1,94.6,177.4,93.1,177.4,93z"/>
<path fill="#1E8346" d="M176.5,95.3c0-0.1,0.1-0.6,0.1-0.6c0.1,0.2-0.5,1.1-0.2,1.1C176.6,95.6,176.4,95.4,176.5,95.3z"/>
<path fill="#1E8346" d="M174.3,93.3c-0.2,0-0.2,0.3-0.1,0.2C174.3,93.7,174.5,93.4,174.3,93.3z"/>
<path fill="#1E8346" d="M172.4,88.1c0.1,0.1,0.2-0.1,0.1-0.2C172.4,87.9,172.2,88,172.4,88.1z"/>
<path fill="#1E8346" d="M172.3,88.1c-0.2,0,0,0.2,0,0.3C172.4,88.3,172.4,88.1,172.3,88.1z"/>
<path fill="#1E8346" d="M172.8,90c0.2-0.2-0.3-0.3-0.3-0.4C172.2,89.9,172.6,90,172.8,90z"/>
<path fill="#1E8346" d="M172.5,90.2c0.1,0,0.1-0.1,0-0.1C172.4,90,172.3,90.2,172.5,90.2z"/>
<path fill="#1E8346" d="M173.1,91.8c0,0,0.1-0.1,0.1-0.2c0.2,0.3,0.2-0.3-0.1-0.1C173.1,91.5,173.1,91.8,173.1,91.8z"/>
<path fill="#1E8346" d="M173,90.1c0.2,0.5,0.1-0.2,0-0.2S172.9,90,173,90.1z"/>
<path fill="#1E8346" d="M172.7,91.2c0.2,0.6,0.2-0.3,0.1-0.4C172.4,90.6,172.7,91,172.7,91.2z"/>
<path fill="#1E8346" d="M172.9,89.5c0-0.1,0.3-0.4,0-0.4c0,0.1-0.2,0.3-0.2,0.5C172.8,89.7,172.9,89.6,172.9,89.5z"/>
<path fill="#1E8346" d="M177.6,91.8c0-0.1,0-0.2-0.1-0.3C177.5,91.5,177.5,92.4,177.6,91.8z"/>
<path fill="#1E8346" d="M176.3,96c-0.3,0.1,0,0.2,0,0.4C176.4,96.3,176.5,95.6,176.3,96z"/>
<path fill="#1E8346" d="M175.8,97.2c-0.1-0.7-0.3,0.7,0,0.2C175.8,97.3,175.8,97.3,175.8,97.2z"/>
<path fill="#1E8346" d="M175.9,98c0.1,0,0.1-0.3,0-0.3C175.7,97.7,175.8,98.1,175.9,98z"/>
<path fill="#1E8346" d="M161.7,160.3c-0.2,0,0.1,0.1-0.1,0.3C161.5,160.8,162,160.3,161.7,160.3z"/>
<path fill="#1E8346" d="M162.3,160.5C162.3,160.5,162.2,160.6,162.3,160.5C162.3,160.6,162.4,160.6,162.3,160.5z"/>
<path fill="#1E8346" d="M164.7,159.2c-0.1,0.1,0.2,0.6,0.3,0.4C165,159.6,164.7,159.1,164.7,159.2z"/>
<path fill="#1E8346" d="M164.5,159.5c-0.1,0.1-0.1,0.1-0.2-0.1c-0.1-0.1-0.6,0.1-0.2,0.2C164.2,159.7,164.9,159.7,164.5,159.5z"/>
<path fill="#1E8346" d="M163.6,160c-0.2,0-0.4,0.3-0.6,0.3C163,160.4,164.1,160.1,163.6,160z"/>
<path fill="#1E8346" d="M164.1,159.8c-0.2,0.1-0.1,0-0.2-0.1c-0.1,0-0.1,0.2-0.1,0.3C163.8,160.3,164.4,159.7,164.1,159.8z"/>
<path fill="#1E8346" d="M166.5,158.8c-0.1,0.1-0.5,0.2-0.6,0.3C165.9,159.4,167.1,158.6,166.5,158.8z"/>
<path fill="#1E8346" d="M167.1,158.4c0,0-0.1,0.2-0.1,0.1C167,158.6,167.3,158.4,167.1,158.4z"/>
<path fill="#1E8346" d="M167.4,158.2C167.3,158.3,167.4,158.4,167.4,158.2C167.5,158.1,167.5,157.9,167.4,158.2z"/>
<path fill="#1E8346" d="M167.8,157.7l-0.2,0.2C167.7,158,167.9,157.8,167.8,157.7z"/>
<path fill="#1E8346" d="M168.2,157.1c-0.1,0.1-0.1,0.2-0.2,0.3c0,0.1,0,0.3-0.1,0.3C168.1,157.8,168.5,156.9,168.2,157.1z"/>
<path fill="#1E8346" d="M168.5,156.7c0,0-0.2,0.2-0.1,0.2C168.6,157.2,169.1,156.1,168.5,156.7z"/>
<path fill="#1E8346" d="M169,155.6c0,0.1-0.3,0.3-0.3,0.3c0.3,0.2-0.2,0.5,0,0.5C168.9,156.4,169.1,155.8,169,155.6z"/>
<path fill="#1E8346" d="M169.3,154.5c-0.1-0.1-0.1,0.8-0.2,1C169.4,155.3,169.3,154.6,169.3,154.5z"/>
<path fill="#1E8346" d="M160.1,130.4c0.1-0.1,0.1-0.5,0-0.5C160,130,159.7,130.2,160.1,130.4z"/>
<path fill="#1E8346" d="M160,131.2c0.2,0.7,0.3-0.6,0.1-0.7C160.2,130.8,159.8,131,160,131.2z"/>
<path fill="#1E8346" d="M160.2,132.3c0.1,0.4,0.2,0.6,0.3,0.8c0-0.1-0.2-0.5-0.2-0.6c0,0,0.1-0.7,0-0.7
	C160.1,131.8,160.2,132.2,160.2,132.3z"/>
<path fill="#1E8346" d="M160.7,133.9c0.3,0.5,0.4,0.8,0.7,1.4c0.1-0.3-0.7-1.6-0.8-2.1C160.4,133.2,160.8,133.7,160.7,133.9z"/>
<path fill="#1E8346" d="M162,136.5c-0.2-0.2-0.4-0.7-0.5-1c-0.3,0.2,2.6,4.3,1.9,3.1C163.3,138.6,162.9,138,162,136.5z"/>
<path fill="#1E8346" d="M165.1,142.5c-0.2-0.5,0.1-1.1-0.1-1.5c0,0.1-0.3,0.3-0.3,0.4C164.8,141.7,164.8,142.5,165.1,142.5z"/>
<path fill="#1E8346" d="M164.8,141.1c0,0,0-0.2,0.1-0.3c-0.1,0-0.4-0.2-0.4-0.3c-0.1,0.1-0.3,0.4-0.1,0.5
	C164.6,141,164.7,141,164.8,141.1z"/>
<path fill="#1E8346" d="M165.5,141.7c0.1-0.2-0.1-0.4-0.2-0.4c0,0.3-0.1,1.5,0.2,1.8C165.6,142.6,165.1,141.9,165.5,141.7z"/>
<path fill="#1E8346" d="M165.3,141c-0.6-0.4-1.2-1.2-1.7-1.9C163.6,139.4,164.8,140.7,165.3,141z"/>
<path fill="#1E8346" d="M171.2,114.7c-0.1,0-0.1,0.1-0.1,0.2C171.3,115,171.4,114.7,171.2,114.7z"/>
<path fill="#1E8346" d="M171.3,113.9c-0.2,0.1-0.1,0.7,0,0.7C171.2,114.6,171.5,113.8,171.3,113.9z"/>
<path fill="#1E8346" d="M173,111.3c-0.3,0.2-0.9,0.8-1,1C172.2,112.1,173,111.4,173,111.3z"/>
<path fill="#1E8346" d="M174.8,110.1c-0.2,0.1-0.9,0.3-1,0.5C173.9,110.4,175.8,109.9,174.8,110.1z"/>
<path fill="#1E8346" d="M176.3,100.9c-0.2-0.1-0.3,0.2,0,0.3C176.6,101.3,176.5,101,176.3,100.9z"/>
<path fill="#1E8346" d="M176.3,102.6c0,0,0.4,0.1,0.3,0C176.6,102.6,176.3,102.4,176.3,102.6z"/>
<path fill="#1E8346" d="M177.2,103.4c-0.1,0.2-0.3,0-0.4,0.1C176.8,103.8,177.6,103.6,177.2,103.4z"/>
<path fill="#1E8346" d="M175.7,108.2c-0.1,0.1,0,0.4,0.1,0.4C176.1,108.5,175.9,108.2,175.7,108.2z"/>
<path fill="#1E8346" d="M175.4,109.7c-0.1,0-0.1,0.2,0,0.2C175.5,109.9,175.5,109.8,175.4,109.7z"/>
<path fill="#1E8346" d="M96.1,152c0-0.6,1-1.4,0.4-1.5c-0.8,1.7-0.8,4,0,6c0.3,1.8,0.3,1.6,0.1-0.2C96,154.9,95.7,153.2,96.1,152z"
	/>
<path fill="#1E8346" d="M97.1,149.7c0,0.2-0.2,0.6-0.4,0.8C96.9,150.6,97.7,149.5,97.1,149.7z"/>
<path fill="#1E8346" d="M97.6,149.1c-0.1,0.1-0.2,0.3-0.3,0.5C97.3,149.7,98.1,148.9,97.6,149.1z"/>
<path fill="#1E8346" d="M98.1,148.4c0,0.1-0.1,0.1-0.3,0.2c-0.1,0.1,0,0.2,0,0.3C97.3,149.4,98.6,148.6,98.1,148.4z"/>
<path fill="#1E8346" d="M100,147.2c-0.1,0.2-0.5,0.4-0.7,0.4c-0.1,0.1-0.1,0.2-0.3,0.2c-0.1,0.2-0.2,0.3-0.4,0.3
	c0,0.1-0.2,0.3-0.2,0.4c0.2,0.1,0.4-0.2,0.6-0.4C99.2,147.7,100.2,147.6,100,147.2z"/>
<path fill="#1E8346" d="M95.3,154c-0.2,0.1,0,0.2,0.1,0.2S95.4,154,95.3,154z"/>
<path fill="#1E8346" d="M107.7,141.7c-0.2,0.2-1.1,0.4-0.9,0.8C106.7,142.5,108.3,141.8,107.7,141.7z"/>
<path fill="#1E8346" d="M106.8,142.7c-0.5,0.1-1.1,0.7-1.3,1.1C105.6,143.7,107.1,142.7,106.8,142.7z"/>
<path fill="#1E8346" d="M119,141.2c-0.1-0.1-0.6-0.4-0.7-0.1c-0.1,0-0.4,0-0.3,0.2c-0.1,0.1,0.7,0.3,0.7,0.3
	c0.1,0.2,0.3,0.2,0.4,0.1C118.9,141.4,119.5,141.3,119,141.2z"/>
<path fill="#1E8346" d="M121.5,142.6c0-0.1,0.2-0.5-0.1-0.2c0-0.1-0.3-0.6-0.3-0.2c-0.1,0-0.3-0.1-0.3,0.1c0,0.1,0.2,0.2,0.3,0.3
	C121.4,142.7,122.1,142.9,121.5,142.6z"/>
<path fill="#1E8346" d="M122.2,142.7c0.1,0,0-0.2,0-0.3c0.4-0.3-0.1-0.1-0.3-0.1c-0.4-0.1-0.2,0.6,0,0.5c0.1-0.1-0.1-0.2-0.1-0.3
	C122.1,142.4,122.2,142.7,122.2,142.7z"/>
<path fill="#1E8346" d="M122.4,142.7c-0.1,0-0.2,0-0.2,0.1C122.3,143,122.6,142.9,122.4,142.7z"/>
<path fill="#1E8346" d="M122.8,142.9c0.1-0.3-0.4-0.1-0.2,0.1C122.7,143.3,123.1,143,122.8,142.9z"/>
<path fill="#1E8346" d="M129.4,142.7c0,0.1-0.3,0.4-0.3,0.4C129.4,143.2,129.7,142.9,129.4,142.7z"/>
<path fill="#1E8346" d="M130.3,142.4c-0.1,0.1-0.3,0.4-0.1,0.5C130.2,142.8,130.5,142.5,130.3,142.4z"/>
<path fill="#1E8346" d="M127.9,140.2c-0.3,0.1-0.2,0.1,0,0.1c0.1,0.1,0.3,0.2,0.4,0C128.3,140.2,128.1,140.2,127.9,140.2z"/>
<path fill="#1E8346" d="M129.3,138.3v0.2C129.5,138.4,129.5,138.2,129.3,138.3z"/>
<path fill="#1E8346" d="M129.1,138.1c-0.3,0.2,0.1,0.3,0.2,0.2C129.3,138.2,129.1,138.1,129.1,138.1z"/>
<path fill="#1E8346" d="M130.9,138.5c0.1,0,0,1.2-0.1,1.2C131.1,139.6,130.9,138.5,130.9,138.5z"/>
<path fill="#1E8346" d="M130.5,137.4C130.4,137.5,130.6,137.6,130.5,137.4C130.6,137.3,130.6,137.3,130.5,137.4z"/>
<path fill="#1E8346" d="M130.3,137.5c-0.1,0-0.2,0.1-0.2,0.1C130.1,137.7,130.6,137.5,130.3,137.5z"/>
<path fill="#1E8346" d="M132.5,137.3c-0.3,0.2-1-0.2-1.3,0c-0.3,0.1-0.1,0.1,0.3,0.1C131.9,137.3,132.5,137.7,132.5,137.3z"/>
<path fill="#1E8346" d="M133.7,137c-0.5,0.1-0.5,0.1-0.8,0.2C133,137.3,134.2,137.1,133.7,137z"/>
<path fill="#1E8346" d="M128.9,139.2c-0.1-0.3-0.4,0-0.3,0.2C128.7,139.5,128.9,139.3,128.9,139.2z"/>
<path fill="#1E8346" d="M128.6,139.7c0.4-0.1,0.1-0.3-0.1-0.1c-0.5-0.2,0,1.1,0.1,0.4C128.6,139.8,128.5,139.8,128.6,139.7z"/>
<path fill="#1E8346" d="M128.6,138.9c0.1,0,0.1-0.1,0.1-0.2C128.6,138.6,128.3,139,128.6,138.9z"/>
<path fill="#1E8346" d="M128.3,138.4C128.4,138.6,128.5,138.4,128.3,138.4C128.4,138.3,128.3,138.4,128.3,138.4z"/>
<path fill="#1E8346" d="M144.9,137.8c-0.4,0,0.2,0.9,0.3,0.9C145,138.7,144.8,138,144.9,137.8z"/>
<path fill="#1E8346" d="M146.1,138.5c-0.1,0.1-0.4,0.1-0.4,0.1C145.8,138.7,146.5,138.9,146.1,138.5z"/>
<path fill="#1E8346" d="M147.7,138c-0.1,0.1-1.1,0.8-1.3,0.9C146.6,138.8,147.7,138.5,147.7,138z"/>
<path fill="#1E8346" d="M144.2,136.9c-0.2,0-0.3-0.1-0.5-0.2C143.2,136.7,144.8,137.7,144.2,136.9z"/>
<path fill="#1E8346" d="M157.7,147.8c-0.3-0.3-0.3-0.1-0.1,0.1C158,148.2,158,148,157.7,147.8z"/>
<path fill="#1E8346" d="M160.7,151.7c-0.1,0.1-0.4,0.1-0.5,0c-0.6-0.9,0,0.6,0.4,0.2C160.8,151.8,160.9,151.8,160.7,151.7z"/>
<path fill="#1E8346" d="M160.2,151.3c0,0.1,0.3,0.5,0.4,0.2c-0.3-0.1-0.4-1.3-0.6-0.7C160.1,150.9,160.3,151.1,160.2,151.3z"/>
<path fill="#1E8346" d="M164.3,154.8c0.2,0,0.1-0.7-0.1-0.4C163.8,154.6,164.1,154.6,164.3,154.8z"/>
<path fill="#1E8346" d="M125.9,141.1c-0.3,0.1,0.2,0.4,0.2,0.1C126.1,141.2,125.9,141.1,125.9,141.1z"/>
<path fill="#1E8346" d="M156.8,146.1c-0.1,0.1,0.2,0.4,0.3,0.4C157.1,146.4,156.8,146.1,156.8,146.1z"/>
<path fill="#1E8346" d="M168.9,148.8c-0.7-1.6-2.3-4-3.3-5.6c-0.2,0.3,0.5,0.8,0.4,0.8c1.6,2.5,3.3,5,3.2,8
	C169.1,151.2,169.2,150,168.9,148.8z"/>
<path fill="#1E8346" d="M168,156.5c-0.1-0.2-0.5,0.2-0.4,0.3C167.5,156.7,168,156.5,168,156.5z"/>
<path fill="#1E8346" d="M14.1,114.8c-0.2,0-0.3,0-0.1,0.1c0,0.4,0.1,1.2,0.7,1.1C14.7,116.1,14.3,115,14.1,114.8z"/>
<path fill="#1E8346" d="M15.4,113.3c-0.1-0.1-0.5-0.4-0.7-0.6c-0.4,0.1,0.2,0.3,0.2,0.4C14.6,113.8,15.9,114.4,15.4,113.3z"/>
<path fill="#1E8346" d="M11,113c-0.3-0.3-0.3-0.2-0.3,0.1C10.7,113.4,11.5,113.3,11,113z"/>
<path fill="#1E8346" d="M8.6,108.6c-0.1-0.2-0.3-0.1-0.4,0C8.4,108.7,9,108.9,8.6,108.6z"/>
<path fill="#1E8346" d="M11.4,109.3c-0.2,0.3-0.4-0.1-0.5-0.2c-0.2,0.1-0.5-0.3-0.7-0.2c0.3,0.2,0,0.4,0.2,0.5c0.3,0,0.5,0.2,0.8,0
	C11.5,109.6,11.9,109.3,11.4,109.3z"/>
<path fill="#1E8346" d="M9.7,109.1c0-0.2,0.1-0.2-0.1-0.1c-0.2-0.1-0.3-0.2-0.4,0c-0.7-0.3,0,0.5,0.1,0.6
	C9.6,109.4,10.2,109.4,9.7,109.1z"/>
<path fill="#1E8346" d="M18.8,41.5c-0.2-0.6-0.5,0.3-0.7,0.5c0,0.2,0.5,0.4,0.5,0.6c0.3-0.4-0.2-0.4-0.4-0.6c0.1,0,0.2,0,0.3-0.1
	c0.1,0,0.2,0,0.2-0.1C19,42.1,19.2,41.7,18.8,41.5z"/>
<path fill="#1E8346" d="M19.1,42c-0.3-0.1-0.2,0.5-0.2,0.6c0.1,0,0.1-0.1,0.1-0.2C19,42.3,19.4,42.1,19.1,42z"/>
<path fill="#1E8346" d="M19.2,43c0.1-0.1-0.1-0.4-0.1-0.4C18.9,42.7,19,43.1,19.2,43z"/>
<path fill="#1E8346" d="M18.7,43.6c0.2,0.5,0.4-0.2,0.3-0.4c-0.1,0-0.3-0.3-0.3-0.4c0,0.1-0.1,0.3-0.2,0.4c0,0.2,0.2,0.1,0.2,0.1
	C18.8,43.2,18.7,43.4,18.7,43.6z"/>
<path fill="#1E8346" d="M18.6,42.8c0-0.5-0.2,0.1-0.1,0.3C18.5,43.1,18.6,42.9,18.6,42.8z"/>
<path fill="#1E8346" d="M18.1,40.1c0.5,0.4,0-0.3,0.3-0.3c0.1,0,0,0.4,0.1,0.4c0.2,0,0.5-0.2,0.2-0.4C18.4,39.4,17.7,39.8,18.1,40.1
	z"/>
<path fill="#1E8346" d="M17.7,40.7c0.4,0.3-0.1-0.3,0.1-0.4c0.2,0,0-0.2-0.1-0.3c-0.1-0.4-0.3-0.1-0.4,0.1
	C17.3,40.2,17.5,40.5,17.7,40.7z"/>
<path fill="#1E8346" d="M18.3,40.5c-0.7-0.5-0.1,1.2,0,0.3C18.1,41,18.1,40.5,18.3,40.5z"/>
<path fill="#1E8346" d="M18.7,40.6c0.1,0,0.2-0.3,0-0.3C18.7,40.3,18.7,40.5,18.7,40.6z"/>
<path fill="#1E8346" d="M18.1,43c0,0,0.1-0.3,0.1-0.4C18.1,42.4,18,43,18.1,43z"/>
<path fill="#1E8346" d="M18.2,44.9c0.1-0.1,0-0.6-0.2-0.3C17.9,44.7,18,45.3,18.2,44.9z"/>
<path fill="#1E8346" d="M17.8,46.1c-0.1,0.1,0.1,0.1,0.2,0c0.3,0,0.2,0,0.1-0.2c0.2-0.3,0-0.6-0.2-0.1C17.7,46,18,46,17.8,46.1z"/>
<path fill="#1E8346" d="M16.9,46.8c0.1,0.1,0.2-0.1,0.1-0.2C16.9,46.6,16.7,46.7,16.9,46.8z"/>
<path fill="#1E8346" d="M16.7,46.4c0.1,0.5,0.1,0,0.3-0.1C17,46,16.4,46.3,16.7,46.4z"/>
<path fill="#1E8346" d="M16.7,46.1c-0.1-0.4-0.3,0.4-0.2,0.4C16.7,46.5,16.5,46.2,16.7,46.1z"/>
<path fill="#1E8346" d="M147.1,82.1L147.1,82.1L147.1,82.1z"/>
<path fill="#1E8346" d="M103.3,50L103.3,50L103.3,50z"/>
<path fill="#1E8346" d="M134.7,137.1L134.7,137.1L134.7,137.1z"/>
<path fill="#1E8346" d="M100.9,146.1C101,146.1,101,146,100.9,146.1C101,146,100.9,146,100.9,146.1z"/>
<path fill="#1E8346" d="M196.9,55.1c-0.1-0.2-0.3,0.1-0.4,0c0,0.1-0.1,0.3-0.2,0.1c-1-0.8,1.2-0.3-0.3-1.3c-0.6-0.4-0.7,0.7-1.2-0.1
	c-0.2-2.7-0.8-0.9-1.8-2c-0.5-2.1-0.9-5.6-2.8-6.5c-1.3-0.9-2.4,2.2-3.1,0.7c-0.9-2-1.8,2.8-2.1,3.5l0,0v0.1l0,0c0,0,0.2,1,0.1,1.3
	c-0.2,0.4-0.5,0.7-0.4,1.2c0.4,0.4-0.3,0.9,0.4,1.2c-0.2,0.7-1.2,2-0.8,2.7c-0.7,0.1-0.3,0.7-0.3,1c-0.6-0.4-0.4-0.7-0.9,0.2
	c-0.4,0-1.2,0.1-0.8,0.7c-0.2,1.8-9.1,2.6-10.1,3.2c-2.8,0.9-2.9,3.9-4.8,5.4c0.1,0.4,0.6-0.2,0.8,0.1c0,0.1-0.2,0.2-0.2,0.3
	c0.1,0.3,0.3-0.3,0.5-0.1c0,0-0.3,0.3-0.2,0.5c0,0.5-0.4-0.1-0.5,0.3c0,0.1,0.1,0.2,0.2,0.1c0.2,0,0.2,0.5,0.3,0.6
	c0.2,0.1,0.1,0.1,0.1,0.3c0.2,0.7-0.5,0.4-0.8,0.8c-0.6,0.6-0.6,0.9-1.3,1.3c0.2,0.3-0.1,0.1-0.2,0l0,0l0,0l0,0l0,0l0,0l0,0l0,0l0,0
	l0,0l0,0l0,0c-2.3,0.8-4.7-0.4-6.8,1.5c0.2,0.3,0,0.9,0.5,0.7c0.3,0.1,0.2,0.3,0.1,0.5c1,1.2-1.9,3.2-2.8,4.1l0,0l0,0l0,0
	c-2.5,1.5-4.6,3.8-7.2,4.6c-0.3,0.4-0.7,0.2-1.1,0.5c-0.3,0.1-0.6-0.3-0.8-0.2c-0.1,0.1-0.2,0.1-0.4,0c-0.7,0.5-1,0.1-0.2-0.2
	c0.1,0.1,0.5-0.2,0.5-0.2c-0.2-0.2-0.4,0.2-0.5,0c-0.1,0.1-0.2,0.3-0.4,0.1l0,0l0,0c-0.8-0.4-1.1-0.6-1.8-0.6
	c-0.2-0.4,0.2-1.1,0.5-1.2c0.3-0.7-0.2-1.8,0.8-2c0.4-0.3-0.1-0.7,0.3-1c0.3-0.1-0.2-0.2,0.1-0.5c0.1-0.1,0.3-0.2,0.5-0.1
	c0,0.5,0.5-0.1,0.1,0.6c0.7-0.2,0.4-1.2,0.3-1.8c0.3-0.2,0.1-0.7-0.1-0.8c-0.2-0.2-0.4-1.3-0.5-1.7c-0.6-0.9-0.5-2.9-1.9-2.6
	c-0.1,0.4-0.6,0.3-0.8,0.5c0,0.2-0.3,0.4-0.4,0.4c0.1,0.1,0.3,0.1,0,0.2c-0.3,1.7-2.2,1.8-1.8-0.1c0-0.4,0.2-0.2,0.4-0.3
	c0.1-0.1,0.2,0,0.2,0c0-0.2,0-0.3,0.3-0.3c0.2-0.1-0.2-1.3,0.5-0.9c0-0.1,0-0.4,0.2-0.4c0.2-0.2-0.1-1.4,0-2
	c0.1-0.7-1.2-0.9-0.6-1.5c0.1,0.1,0.6,0.4,0.2,0c0.1-0.3-0.3-0.6-0.4-0.7c0-0.6-0.7-0.3-1-0.6c-0.6-0.1-0.9-0.4-1.5-0.3
	c-0.1-0.8-0.9-0.6-1.4-0.6l0,0l0,0c-0.3-0.1-1.1-0.8-1-0.2c0,0.1-0.6-0.1-0.6,0c0.3,0.3,0.1,0.3-0.2,0.6c-0.3,0.6,0.1,1,0.6,0.9
	c-2.8,1.1-0.4,1.4-1.8,3.3c-0.6,0.1-0.2-0.7-0.3-1c-0.3,0.1,0.1-0.3,0.1-0.5c-0.4-1.3-0.4,1.2-1.1,0.6c-0.1,0-0.1,0.3-0.2,0.3
	c-0.4,0-0.1,0.6-0.2,0.8c-0.6,0.3-0.5,0.2-0.3,1c0,0.5-0.1,0.7,0.2,0.8c-0.4,0.1-0.6,1.3-0.8,1.6c0.3,0.5,0.5,1,0.2,1.4l0,0l0,0l0,0
	l0,0c0,0,0,0.1-0.1,0.1l0,0l0,0l0,0l0,0l0,0l0,0c0,0.1,0,0.1,0,0.1l0,0c0,0,0,0,0,0.1l0,0c0.1,0.3,0.3,0.7,0.4,1l0,0l0,0l0,0l0,0
	c0.1,0.2,0.2,0.2,0.3,0c0.2,0.3-0.4,0.3,0,0.6c0.2,0.3,0.5-0.1,0.4,0.2c-0.3,0.2,0,0.9,0.2,0.7c0.3-0.4,0.1,0,0.1,0.1
	c0,0,0.3,0.3,0,0.2c-0.5-0.3,0,0.6,0,1.4c0.2,1.6,0,1.8-0.6,3c-0.3,2.4-3.7,3.9-4.1,0.7c-1-1.3-0.4-3.2-1-4.7c-0.4-1,0-1.9,0.3-2.9
	c0-0.6-0.3-1.4,0-1.9c0.8-0.7,0.1-0.8,0.4-1.9c0-0.8,0.9-1.4,0.1-1.8c-0.3-0.2-0.3,0.3-0.6,0.2c-0.2,0.3-0.4,1.1-0.8,1.2
	c-0.1,0.3,0,0.3-0.3,0.3c-0.2,0,0-0.5,0-0.9c0.1-0.1,0.2-0.2,0.2-0.4c0.2-0.2,0.3-0.4,0.3-0.7c1-0.1,0.4-0.5,0.9-1.3
	c0.6-1.2,0.7-1.8,1.3-2.7c-0.1-0.3,0.5-1.4,0.2-0.4c-0.1,1.2,0.7,0.6,0.6-0.2c0.1-0.3,0.2,0.2,0.4,0.1c0.3-0.6,0.5-0.3,0.3,0.2
	c0.1,0.2-0.1,0.1-0.2,0.2c-0.3,0.2-0.1,0.9,0.2,0.7c-0.3-0.5,0.7-0.9,0.7-1.2c-0.1-0.9,0.8-0.5,1.4-0.7c0.1-0.3,0.5,0,0.8-0.2
	c0.3-1,1.2-0.6,1.8-0.4l0,0l0.5,0.4l0,0l0,0c1.1,0.8,0.5,0.1,0.8-0.7c0.2,0.1,0.5,0.1,0.6,0.3c0.5-0.3,1.6,0.2,2-0.3
	c0-0.1-0.3,0-0.4-0.2c-0.1-0.2,0-0.3-0.2-0.4c-0.2-0.2-0.6,0.2-0.7-0.2c0.2-0.7-0.2-1.6-1-1.1c-0.3-0.7-0.8,0.3-1.2,0.1
	c-0.6,0-0.6-0.1-0.5-1c0.5-0.8-0.3-0.2-0.7-0.2c-1.5,0.8-3.4,0.4-4.5,1.9c-0.2,0-0.2-0.2-0.4-0.1c-0.3,0.3-0.5,0.1-0.6-0.1l0,0l0,0
	l0,0l0,0l-0.1-0.1l0,0l0,0c-0.1-0.1-0.3,0.2-0.4,0.2l0,0l0,0l0,0l0,0l0,0l0,0l0,0l0,0l0,0l0,0l0,0l0,0l0,0l0,0l0,0l0,0l0,0l0,0
	c-0.4,0-1,0.2-1-0.4c-0.7-0.8-1.7-1.9-2.9-1c0-0.1,0.3-0.4,0.3-0.5c-0.1-0.1-0.8,0.8-0.9,0.9c-0.2-0.2,0-1-0.1-1
	c-0.5-0.3,0.2-0.5-0.6-0.6c0-1.2-1,1-1.6,0.9c-0.2,0.8-1.6,0.6-2.3,1c-0.6,0.8-1.9,1.4-2.5,0.8c-0.4-0.1-0.7,0.4-0.8,0.3
	c-0.1-0.2,0.2-0.4,0.2-0.6c1-3.1-2.8,1.3-4,0.1c-0.5,0.5-0.3,0.2,0-0.2c2.3-1.6,3.2-4.2,6.3-5.2c0.2-0.1,1.1-0.5,1.3-1
	c-0.2-0.1-1.1,0.3-1.3-0.2c-0.6-0.2-0.8-0.1-2.2,0.1c-0.4,0.2-0.4-0.6-0.6-0.7c-0.1-0.1-1,0.9-1.4,0.9c-0.3-0.1-0.7,0.2-0.8,0.2
	c0.2-0.5,0-0.3-0.4-0.4c0-0.6-0.7-0.3-1-0.6c0.1-0.5-0.9-0.5-1-0.3c0.3,1-0.5,0.3-0.5-0.3c-2.4-2.2-3.6,0.4-4.4-0.9
	c-0.3-0.2-0.8,0.1-1.2-0.2c-0.2-0.1-0.2-0.3-0.4-0.3c-0.6,0.3-1.1-0.1-1.1-0.6c-0.5,0.1-0.7-0.7-0.9-0.8c-0.5,0.6-1.4,1.1-1.6,0
	c-26.8,1-59-5.1-84.2-11.2c0,0-0.1,0-0.1,0.1c0.2,0.2,0.1,0.4,0.3,0.6c-0.3,0-0.3,0.6,0,0.5c-0.3-0.4,0.4-0.7,0.5-0.3
	c-0.5,0.2,0.4,1-0.3,0.8c-0.1,0.2,0.1,0.3,0,0.4c-0.2,0.3-0.5-0.8-0.7-0.1c-0.1,0.3,0.2,0.2,0.3,0.3c0,0.3,0.3,0.6,0.4,0.7
	c-0.2,0.2-0.2,0.2-0.1,0.5c-0.6,0.8,1,0.8,0,1.2c-0.3,0-0.3,0.4-0.7,0.6c-0.1,0.2,0.1,0.3,0,0.4c-0.1,0.1-0.3,0-0.3,0.2
	c0.1,0.3,0.2,0.2,0.4,0c0.4,0.4,0.1-0.4,0.3-0.3c-0.1,0.2,0.2,0.4,0,0.6c-0.2,0.1,0,0.2,0,0.3c-0.4,0.5-0.2,0.2-0.3-0.1
	c0.1-0.4-0.1-0.1-0.2,0c-0.3-0.3-0.2,0.2-0.1,0.5c0,0.1-0.1,0.1-0.1,0.2c0.5,0.8-0.6,0.2-0.3,0.7c-0.2,0.1-0.3-0.3-0.4-0.2
	c-0.1,0.2-0.8,0.9-0.9,0.7c-0.1-0.4-0.2-0.6-0.3-0.1c-0.1,0-0.1-0.3-0.1-0.3c-0.2-0.1-0.1,0.3-0.2,0.4c-0.2,0.1,0-0.1-0.1-0.2
	c-0.1-0.1-0.2,0.2-0.3,0c0.1-0.1-0.1-0.2-0.1-0.2c-0.1,0,0.5-0.2,0.5-0.2c-0.1-0.2-0.2-0.1-0.3-0.1c-0.3-0.3,0.4,0,0.4,0
	c0.1-0.1,0-0.3,0.2-0.3c0.3,0.2,0.2-0.3,0.4-0.3c0.1,0.2,0,0.7,0.2,0.3c0.2-0.2,0.6-0.1,0.1,0.1c-0.3,0.1,0.4,0.5,0.4,0.1
	c-0.1-0.4,0.9-1.3-0.1-1.1c0,0,0.2-0.2,0.1-0.2c-0.3,0-0.1-0.6,0.1-0.1s0.2-0.4,0.1-0.5c0.1,0.4,0.3,0.1,0.4,0
	c0.1,0,0.1,0.2,0.1,0.1c0-0.2,0.1-0.8,0-0.9c-0.3,0-0.1,0.4-0.2,0.5c-0.6-0.5-0.6,0.7-1,0.6c-0.6-0.2-0.7,0.5-1.1,0.7
	c-0.3,0.2,0.2,0.2,0.1,0.4c-1.3-0.3,1.3-1.3,1.1-2c0.1,0.3,0.2-0.1,0.2-0.1c0.1,0.3-0.2,0.6-0.3,0.8c0.3,0,0.3-0.6,0.7-0.7
	c0.2,0,0-0.2,0-0.3c0.2-0.2-0.1-0.5-0.1-0.7c0.6-0.3-0.6-0.5-0.1,0.2c-0.2,0.3-0.2,0.1-0.1-0.1c-0.2-0.2-0.3-0.7-0.4,0
	c-0.2-0.4,0.1-1-0.6-0.6c-0.4,0.1-0.5-0.3-0.9-0.3c0-0.2-0.2-0.1-0.4-0.1c-0.2-0.5-1-0.1-1.3-0.7c0.1-0.3-0.4-0.5-0.6-0.6
	c-0.2-0.3-0.7-1-1-0.8c0.3,0.3,0.2,0.3-0.1,0.6c-0.6,1.1,0.5,2.5,0.1,3.5c-0.4,0.8,0.5,1.6-0.3,2.7c-0.2,0.2,0.2,0.1,0.2,0
	c0-0.2,0-0.5,0.3-0.3c0,0.4,0.6,0.5,0.6,0.5c-0.1,0.1-0.9,0-0.8,0.4c-0.4,0.1,0-0.4-0.3-0.4c-0.3,0.2-0.3,1.1,0.1,1
	c0.1-0.1,0.2-0.1,0.3,0c0.1-0.3,0.3,0.3,0.3,0.3c-0.3-0.4-0.5,0.1-0.5,0.5c-0.1,0.1-0.2,0.2-0.1,0.4c0.2,0.4,0.3,0.2-0.1,0.2
	c-0.7,0.5,0.1-0.9-0.2-1.1c-0.2,0.3-0.2,0.7-0.3,1.1c0,0.2-0.5,0.8,0,0.4c0.1,0.2,0.9,0.6,1,0.2c0,0.5,0.6,0.2,0.8,0.6
	c-0.1,0.2,0.2,0.4,0.2,0.5c-0.2,0.1-0.2,0-0.4-0.3c-0.2-0.4-0.2-0.1-0.6-0.1c-0.3,0.1-0.5-0.5-0.7-0.3c0.1,0,0.3,0.4,0.1,0.4
	c-0.1-0.2-0.3-0.5-0.5-0.7c0,0.4,0.2,0.9,0,1s-0.4,0.1-0.3,0.4c-0.1,0.3-0.2,0.6-0.2,0.9c-0.2,0.4-0.3,0.3-0.1,0.7
	c0.1,0.5-0.1,0-0.3,0.2c0.1,0.3,0,0.5-0.2,0.7c0.1,0.3-0.2,0.5-0.2,0.8c-0.4,0.2-0.5,0.9-0.6,1.1c-0.3,0-0.7,1.5-0.1,1.4
	C9.1,57.6,9.1,57,8.9,57c-0.1,0.1-0.3,0.7-0.1,0.9c0,0.2-0.1,0-0.2,0c-0.2,0.2-0.9,1.7-0.7,1.9c0.3-0.1,0.1,0.1,0,0.1
	c-0.1-0.2-0.1,0-0.2,0.2c-0.1,0.4-0.5,0.7-0.4,0.8c0.2,0,0.2,0.1,0.3,0.2c0.2,0,0.5,0.3,0.4,0.4c-0.1,0-0.6-0.5-0.7-0.4
	c-0.1,0.2-0.4,0.1-0.4,0.3c-0.1,0.3-1.1,1.4-0.4,0.8c0.2-0.3,0.4-0.1,0.2,0.1c0.4,0.4-0.2,0.5-0.1,0c-0.3-0.1-0.4,0.9-0.5,0.4
	c0.1-0.5-0.3,0-0.3,0.1c-0.1,0.5-0.7,1.4-1.1,1.6c-0.1,0.8,0.6,1,0,1.8c-0.4,0.3,0,0.4-0.3,0.7c0.1,0.5-0.2,1,0,1.4
	c0.2,0.3,0.3,0.6,0.1,0.9c-0.2,0.2-0.4,0.4-0.2,0.7c0.6,1.3-0.8,3.2-1.3,4.3c0.7-0.5,0.6-0.2-0.1,0.3c-0.2,0.4,0-0.1-0.1-0.1
	c-0.2,0.2-1.2,1.2-0.9,1.8c-0.3,0.3,0.3,1,0.6,1.3c0.3,1.1,0.8,2.5-0.1,3.6c-0.2,0.7,0.2,1.5-0.3,2.1c0.2,0.4,0.4,0.9,0.7,1.3
	c0,0.7,0.4,1,0.8,1.5c0.2,0.3-0.2,0.6,0.2,0.8c0,0.2,0.1,0.4,0.3,0.5c0.1,0.1,0.2,0.8,0.1,0.7c-0.1-0.1-0.2-0.5-0.4-0.5
	c0,0.1-0.4,0.6-0.4,0.6c0.3,0.1,0.4-0.2,0.4-0.3c0.1,0.2-0.1,0.3,0.3,0.4c0.1,0.2,0.2,0.9,0.5,0.5c0,0,0.3,0.7,0.5,0.7
	s0.1-0.3,0.1-0.3c0.6,0.4-0.3-0.4,0.4-0.4c-0.2-0.1,0-0.5-0.1-0.7c0,0,0.2,0.2,0.2,0.1C5.9,87.3,6.3,89,6.2,88
	c-0.1-0.1-0.1-0.3,0-0.3c0.2,0.1-0.1,0.9,0.2,0.8c0.2,0.4,0.5-0.1,0.7-0.2c0.3,0.1,0.1,0.2,0,0.3c0.2,0.1,0.4,0,0.3,0.3
	c0.3-0.1,0.6,0.2,0.8-0.2C8.5,88.4,8.3,88.9,8,89c-0.2,0-0.2,0.1,0,0.2c0.2-0.1,0.5-0.4,0.7-0.2c0,0.2,0.5,0.5,0.3,0.7
	c0-0.2-0.2-0.3-0.3-0.3c-0.1-0.5-0.4-0.2-0.5,0c0,0.1-1.2-0.6-1.2-0.5c-0.2,0-0.2,0.1-0.4,0c-0.2-0.4-1.6-0.1-0.8,0.4
	c-0.2,0.4-0.2,0.6,0.2,0.8c-0.2,0,0,0.2,0.1,0.4c-0.2,0.3,0,0.8,0.3,1.1c-0.5,0.1-0.5-0.4-0.9-0.8c-0.6-0.2,0.4-1.4-0.4-1.2
	c-0.3,0.4-0.2,0.9-0.4,1.2c0.2,0.3,0.3,0.9,0.1,1.1c-0.4,0.5,0.5,1.7,0.7,2c0.2-0.1,0.5,0.2,0.6,0C6.6,94,6.2,95,6.4,95.1
	c-0.4,0-0.3,0.9-0.8,0.3c-0.3,0.1-0.2,0.3-0.1,0.4c-0.4,0.2,0,0.7-0.2,1c0,0.5,0.8,0.9,0.7,1.3c0,0.6,0.5,0.6,0.4,1.3
	c0.5,0.4,0.1,1,0.7,1.4c0.1,0.2,0.2,0.9,0.5,1c0.2,0.1,0.5,0.3,0.4,0.6c-0.5,0-0.4,0.8,0,0.9c0.2,0,0.4,0.2,0.4,0.4
	c-0.1,0.2-0.6,0.8-0.3,1.1C8,105,7.8,105.3,8,105.5c-0.1,0.3-0.5,0.4-0.2,0.7c0.4,0,0.2,0.4,0.4,0.6c0.4,0.1,1,0.1,1.3,0.2
	c0.6,0.6,2,0.6,2.6,1.5c0.2,0,0.1,0.3,0.3,0.3c-0.2,0.7,0.9,1.2,1.3,1.6c0.8-0.1,2.2,0.6,1.3,1.5c0.2,0.1,0.5,0.7,0.6,0.2
	c0.5-0.5,0.9,1.1,1.2,1c0.7,1,2,2.6,1.6,4c-0.2-0.1-0.2,0.3-0.1,0.4c0.4-0.2-0.1,0.2,0.2,0.3c0,1.9,1.5,0.7,9.4,2.1
	c-0.1,0.1-0.6,1-0.5,1c0.2,0.4,13.3,7.8,13.4,7.8c1.2,0.8,0.2,0.1,11.6,1.8c0.4,0,0.2-1.9,0.3-2c2.1,0,4.7,0.6,7,0.8
	c0.2,0.3,0.6,1,0.8,1.4c0.3,0.4,0.9,0.4,0.9,0.7c0,0.1,0.2,0.3,0.3,0.4c0.4,0.7,0.8,0.8,1.2,1.5c0.6,0.3,0.5,1.1,1.3,1
	c0.2,0.4,0.9,0.8,1.1,1.1c0.5,1.8,0.6,3.5,1.7,5c1,0.9,2,1.5,3.2,2.1c1.5,1.5,1.3,0.9,2.6,0c0.3-1,0.8-2.8,2.4-2.4
	c0-0.3,0.1-0.8,0.5-0.4c0.3,0,0.4,0,0.5,0.2c0.4,0,1.5,0.1,2,0.3c1.2-0.5,1.2,1.1,2.2,1.4c0.2,0.6,1.3,1,1.2,1.6
	c0.5,0.3,0.4,0.5,0.5,1.2c0.9,1,0.7,2.9,1.9,3.6c0.8,0.5,0.9,2.6,2.1,2.6c0.7,0.4,0.3,1.1,0.4,1.6c0.4,0.3,0.1,0.6,0.1,1.2
	c0.3,0.3,1.3,1.7,1.1,2c0.2,1.7,4.8,2.8,6.4,2.9c0.2,0.3,0.7,0.9,1.1,0.8c0-0.6,1.4-1,0.3-1.2c0.1-0.2,0.1-0.2-0.1-0.4
	c-0.1-0.3,0.2-0.6-0.2-0.8c-0.4-0.2-0.4-0.9,0-0.6c0.2-0.3-0.3-0.5-0.1-0.9c0.1-0.2-0.2-0.6-0.5-0.6c0.1-0.2-0.1-0.6,0.1-0.8
	c0.4,0.2,0.5-0.2,0.2-0.4c0.4,0,0.1-0.4,0.4-0.7c-0.2-0.2-0.6,0.4-0.9,0c-0.1-0.3-0.5,0.1-0.6-0.2c0,0,0.5,0,0.5-0.1l-0.3-0.1
	c0.3-0.1,0.1-0.3-0.1-0.3l-0.1-0.4c0.1-0.1,0.2,0.1,0.2,0.2c0.2,0,0.2,0.1,0.3,0.3c0.2,0,0.8,0.1,0.4-0.3c0.1-0.1,0-0.2,0-0.4
	c-0.1,0.1-0.4-0.1-0.1,0c0.2-0.1,0.2-0.3,0.2,0c0.1,0.2,0.3,0.1,0.1,0.4c0.1,0.2,0.2,0.6,0.4,0.4c-0.2-0.5,1-1.8,0.4-1.7
	c0,0.6-0.3,0.2,0-0.1c0-0.1-0.2-0.1-0.3-0.2c0-0.1,0.1-0.3-0.1-0.3c-0.2,0.2-0.7-0.2-0.3-0.2c0.2,0.2,0.4-0.2,0.6,0
	c-0.2,0.4,0.5-0.2,0.5,0.2c-0.1,0.1-0.2,0.1,0.1,0.1c0.3-0.3,0.5-0.6,0.7-1c0.3,0.1,0.1-0.8-0.1-0.2c-0.2,0-0.2,0-0.2,0.2
	c-0.1,0-0.2,0.3-0.2,0.4c-0.2-0.1,0.1-0.4,0.1-0.4c-0.1-0.2-0.4,0.1-0.5,0.1c-0.3-0.3,0.4-0.2,0.4-0.4c-0.2-0.2,0.1-0.5,0.1-0.1
	c0.1,0,0.4-0.5,0.5-0.1c-0.1,0.3,0.3,0.3,0.2,0.1c-0.1-0.2-0.1-0.5,0.1-0.4c0,0.1-0.3,0.8,0,0.5c0.1,0.1,0.1,0,0.2-0.2l0.4-0.2
	c0-0.3,0-0.7-0.3-0.8c0-0.2,0.3,0,0.3,0c0.4-0.1-0.4-0.3-0.1-0.3c0.1,0,0.3,0.2,0.2,0.3c0.2,0,0.1,0.1,0.2,0.2
	c0.1,0,0.2,0.1,0.3,0.2c0.3-0.1,0.8-0.5,1-0.6c0-0.2-0.3-0.4-0.5-0.1c-0.3,0.1-0.3-0.2,0-0.1c0.2-0.1,0-0.4-0.2-0.4
	c-0.2,0.2-0.3,0-0.2-0.2c-0.6-0.7,0.2-0.2,0-0.8c0.3-0.4,0,0.7,0.1,0.7c0.2-0.1,0.3,0.4,0.5,0.1c0-0.1-0.1-0.2,0-0.1
	c0.3,0.2-0.5,0.6,0.2,0.3c0.3-0.1-0.3-0.5,0-0.6c0,0.1,0.1,0.4,0.2,0.4c-0.1,0.3,0.3,0,0.3-0.1c0.3,0.2,0.3-0.5,0.6-0.4
	c-0.1,0-0.2,0.3-0.2,0.4c-0.2,0.2-0.2,0.3,0.1,0.2c-0.1,0-0.3,0.2-0.2,0.3c0.2-0.1,0.5-0.5,0.8-0.4c0.3-0.2,0.2,0.3,0,0.2
	c0.1-0.2-1.3,0.8-1.4,0.9c0.8-0.5,1.9-1,2.8-1.5c-0.3-0.1-0.8,0.4-1,0.4c-0.1-0.3,0.5-0.6,0.8-0.5c0.5,0.1,2.2-0.8,2.2-1.5
	c-0.6-0.1,0-0.2,0.2-0.3c0-0.1,0.2-0.6,0.3-0.2c0.4-0.1,0.4-0.5,0.6-0.5c0-0.2,0.1-0.2,0.3-0.1l0.1-0.6c-0.1,0.1-0.3,0.2-0.3,0
	c-0.2-0.1,0.1-0.1,0.2-0.2c0.1-0.2,0-0.2-0.2-0.1c-0.4-0.1,0-0.2-0.1-0.5c-0.2-0.1-0.1-0.1,0-0.3c0-0.1-0.2,0-0.2-0.1
	c0-0.2-0.4-0.4-0.1-0.5c0-0.1,0.2,0.4,0.3,0.4c0.1,0,0.3,0.1,0.3,0.2c0.2,0.5,0.7-1.2,1-0.2c0.1,0.4-0.1,0.8-0.4,0.8
	c0.2,0.4,0.8-0.4,1.1,0c0.2,0.1,0.3-0.1,0.3,0.1c0.6,0.1,1.4-1,2.2-0.8c0.9,0.2,0.1-0.4-0.1-0.5c-0.1-0.3,0.3-0.4,0.4-0.6
	c0-0.3,0.1-0.3,0.3-0.3c0.5,0.2,0,0.7-0.4,0.8c0.3,0.9,0.2,0.4,0.9,0.2c2-0.7,4.5,1.6,6.2,0.6c0.4,0.1,0.7-0.1,0.2-0.3
	c-0.1-0.1-0.3-0.3-0.4-0.3c0-0.4,0.1-0.3,0.3-0.1c0.1,0,0.7-0.2,0.6-0.5c0,0,0.1,0.1,0.2,0.1c0.4-0.3,0.6,0,0.2,0.3
	c0,0.3,0.3,0.1,0.5,0c0.7,0.2,0.7-0.5,0.6,0.5c0.4-0.1,0.6,0.2,0.4,0.5c0.4,0.1,0.4-0.5,0.6-0.7c0.3,0.2-0.3,0.5,0,0.7
	c0.2-0.1,0.2,0,0.3,0.1c0,0.1,0.3-0.3,0.3-0.4c-0.1-0.5,0.2-0.9-0.5-0.8c-0.1-0.8-1.3-0.6-1.2-1.5c-0.2-0.4,0.2,0,0.2,0.2
	c0.1,0.1,0.2,0.2,0.1,0.3c0.1-0.1,0.1-0.2,0.3,0c0.1,0,0.2,0,0.1,0.1c-0.2,0.3,0.7,0.4,0.1-0.1c-0.4-0.9,0.7,0.6,0.4,0.8
	c0.1,0,0.6,0.1,0.7,0.2c0.1-0.1,0.2-0.3,0.3-0.2c-0.1,0.2,0.2,0.3,0,0.4c-0.2,0.1-0.4-0.3-0.4,0c-0.1,0.2,0,0.2,0.1,0.4
	c0,0.1-0.1,0.2-0.1,0.4c-0.2,0.2-0.1,0.4,0.1,0.4c0,0.1-0.1,0.2,0.1,0.2c0.3,0,0.2,0.4,0.4,0.3c-0.1-0.2,0.5-0.4,0.2-0.1
	c-0.1,0.3,0.3-0.1,0.4-0.1c0.1,0.1,0,0.2,0.1,0.3c0.1,0.2,0.5,0,0.5,0.2c-0.3,0.2,0,0.3,0.2,0.3c-0.4,0.4,0.2,0.2,0.4,0.1
	c0,0-0.3-0.2-0.1-0.3c0,0,0.2,0.2,0.3,0.1c0.1-0.1-0.5-0.4-0.2-0.5c0.1,0,0.2,0.3,0.3,0.3c0.3,0,0-0.4,0-0.4
	c0.1-0.3,0.1,0.1,0.3,0.1c0.1-0.1,0-0.3,0.1-0.3c0.2-0.1,0.2,0.1,0.1,0.2c0.1,0.3,0.2-0.3,0.2-0.3c0.1,0,0.2,0.4,0.2,0.4
	c0.1,0,0.2-0.2,0.3-0.3c0.1,0,0.1,0.6,0.3,0.2c0.4,0,0,0.2,0.1,0.4s0.3,0.2,0.2,0.4c-0.1,0.1,1-0.4,0.7-0.7
	c-0.2,0.3-0.2-0.2-0.3-0.3c0.4-0.5,0.4-0.5-0.3-0.8c-0.7-0.1,0.4-0.9,0-0.3c0,0.1-0.1,0.1,0,0.2c0.1-0.1,0.3-0.2,0.5,0
	c0.2,0,0.4-0.1,0.4,0.1c0.2-0.1,0.2-0.2,0.3,0c0.1,0,0.3-0.1,0.3,0c-0.1,0.1-0.3,0.5,0.1,0.2c0.2,0,0.1,0.4,0,0.4
	c0.2,0,0.4,0.2,0.6-0.1c0.2,0,0.1,0.1,0,0.1l0.2,0.2c0.3,0.3,0.4-0.2,0.6,0c-0.2,0.2,0.3,0.5,0.3,0.8c0.1-0.1,0.2-0.3,0.3-0.1v-0.4
	c0.3,0,0.9,1.3,0.8,0.6c0-0.3,0-0.3-0.1-0.4c0.1,0,0.2-0.1,0.2-0.2c0.6-0.6-0.3,0.2-0.3-0.3c0-0.1,0.1-0.2,0.1-0.3
	c-0.3-0.4-0.4,0.1-0.6,0c0.2-0.3,0-0.4-0.3-0.2c-0.2,0-0.3-0.1-0.2-0.2c-0.1-0.3-1,0.3-0.7-0.2c-0.1-0.1-0.5-0.4-0.6-0.3
	c0.2-0.2-0.8-0.3-0.3-0.6c0.2,0.1,0.5,0.1,0.2-0.2c-0.1-0.2,0-0.1,0.2,0c0.6,0-0.4-0.3,0-0.5c0.1,0.1,0.1,0.3,0.3,0.1
	c0.1,0,0.2,0.1,0.3-0.1c-0.2-0.2-0.2-0.6,0.1-0.3c0.4,0.1,0.2-0.5,0-0.7c0.1-0.3-0.1-0.4-0.3-0.2c0.1,0.3-0.4,1-0.7,0.5
	c0.2-0.4-0.2-0.2-0.3-0.1c-0.4-0.2,0-0.6,0.3-0.5c0-0.1,0.1-0.1,0.2-0.1c0-0.2,0.2-0.3,0.1-0.5c0.2-0.1,0.7-0.3,0.8-0.2
	c0-0.4,0.5-0.4,0.5-0.8c-0.2-0.1-0.3-0.1,0-0.2c0.5,0,0.1,0.2,0.2,0.4c0.3-0.5,1.5-0.4,1.7-0.6c-0.8,0.2-0.6-0.2,0.1-0.1
	c0.1,0.1,0.2,0.3,0.4,0.4c0.3,0.2,0.5-0.4,0.6-0.2c0.2,0,0.6,0.4,0.7,0c0-0.1,0.1-0.2,0.2-0.2c0.1,0.1,0.1,0.2,0.3,0
	c0.1,0.1,0.3,0.3,0.4,0.1c-0.1,0.4,0,0.1,0.2,0.2c-0.1,0,0.1-0.9,0.1-1.1c-0.1-0.2-0.2-0.2-0.2-0.2c0-0.1,0.2-0.1,0.2,0l0.2-0.5
	c-0.1-0.1,0-0.6,0.1-0.3c0.1,0.6,0.2-0.4,0.2-0.4c-0.1,0.6,0.3,1.2,0.1,1.7c0,0.4,0.2,0.4,0.5,0.3c0.1,0.3,0,0.5,0.5,0.5
	c-0.2,0.4-1,0.1-1.2,0.5h0.2c0.6-0.1,1.1-0.1,1.7-0.4c0,0-0.2,0-0.2-0.1c0.1-0.1-0.2-0.3,0.1-0.3c0.1,0.1-0.1,0.3,0.1,0.3
	c0.2-0.5,0.2-0.4,0.2,0.1c0.3,0.1,0.6-0.4,0.8-0.4s0.2,0,0.1-0.2c0.3-0.1,0.7-0.5,0.3-0.8c0-0.3,0.1-0.2,0.2,0c0.3,0,0,0.5,0.3,0.4
	c-0.1-0.3,0.2-0.5,0-0.7c0.3-0.2,0.2,0.3,0.1,0.4c-0.1,0.1,1.1,0.3,0.4,0.3c-0.2,0.1-0.4,0.3-0.6,0.3c-0.2,0.2-0.2,0.2-0.4,0.2
	c-0.3,0.4,0.4,0.1,0.4,0l0,0c0.3-0.1,0.5-0.2,0.8-0.3l0,0c0.2-0.2,1.4,0.1,1.1-0.4c0.1,0.2,0.7-0.1,0.5-0.3c0.1,0.1,0.3,0,0.3-0.1
	c-0.1,0.3,0,0.4,0.3,0.1c0.2,0,0.3,0.1,0.5,0c0.1,0.2,0.3,0.1,0.4,0.3c0,0.4-0.4-0.2-0.6,0c0.3,0.2-0.1,0.1-0.2,0
	c-0.1,0.3-0.7-0.1-1,0.2c1.1,0,2.6,0.2,3.4,1c0.1-0.1,0-0.2-0.1-0.2c0.1-0.1,0.1-0.1-0.1-0.3c-0.2-0.3-0.5,0.2-0.4-0.2
	c0.2-0.2,0.5-0.1,0.5,0.1c0.1-0.1,0.1-0.4,0.4-0.3c0.1,0,0-0.2,0.1-0.2c0.3,0-0.1,0.4-0.1,0.4c-0.8,0.2,0.3,0.6,0.6,0.5
	c0.2,0.1-0.1,0.6,0.2,0.4c0.2-0.2,0.4,0,0.4,0.1c0,0-0.5,0-0.5,0.1c-0.1,0.2,0,0.3,0.3,0.3c0.7,0.1,0.4,0.9,0.7,1.2
	c0.3-0.5,1.2-0.1,1.2-0.5c0,0,0.2,0,0.2-0.1c-0.2-0.2,0.2-0.4,0.3-0.1c-0.5,0.4,0.1,0.4,0.5-0.3c0.5-0.6,0.4-0.3,0.8-0.5
	c0.2-0.3,0.3-0.1,0.5,0c0.4-0.4-0.6-0.2-0.4-0.5c0.1-0.1,0.4,0.1,0.4,0.1c-0.1,0-0.2-0.5,0-0.5c0.3,0.2,0.2-0.4,0.6-0.1
	c0.1,0,0.7-0.2,0.8-0.2c0.3,0.2,0.4,0.3,0.8,0.5c1.1,0.3,1,1.1,1.8,1.4c0,0.4,0.3,0.6,0.7,0.8c0.5,0.3,0.4,0.7,0.9,0.9
	c0.2,0.3,0.2,0.3,0.4,0.1c0.2,0.1,0.5,0,0.6,0.1c0.2,0.2,0.4,0.4,0.3,0.7c0.1,0.3,0.8,0.3,0.6,0.8c-0.4,0.2,0.1,0.3,0.1,0.6
	c-0.2,1.2-0.3,2.8-0.3,4.1c0.1,0.1,0.3,0.2,0.2,0c0.1-0.1,0.1-0.1,0.1,0.1c0.1,0.2,0.4,0.3,0.5,0.5c0.2-0.1-0.1-0.3,0.1-0.4
	c0.2-0.2-0.1-0.2,0-0.4c0.2-0.3-0.4-0.1-0.5-0.3c0.1-0.1,0.2-0.3,0.1-0.5c0.2-0.1,0.5,0.1,0.5,0.3c0.7-0.2,0,0.6,0.5,0.7
	c0.4-0.1-0.3-0.7,0.4-0.7c-0.1,0.4,0.4,0.7-0.2,1.1c0.2-0.1,0.3,0.3,0,0.2c-0.4,0.2-0.2,0.6-0.3,0.9c0.1,0.1,0.6-0.3,0.7-0.1
	c-0.4,0-0.1,0.4-0.5,0.1c-0.2,0.1-0.4-0.1-0.5,0l0.2,0.3c0.3,0.1,0.7,0.6,0.4,0.8c0.3,0,1,1.8,1.2,1.5c0.1,0,0.2,0.1,0.1,0.2
	c0,0.4,0.7,0.1,0.7,0.3c0.3-0.7-0.4-0.6-0.6-0.9c-0.1,0-0.1-0.1,0-0.2c0.1,0.1,0.2,0.3,0.4,0.2c0.2,0.3,0.5,0,0.7-0.1
	c0.1-0.3,0.1-0.4,0.1-0.1c0,0.3-0.4,0.4-0.4,0.5c0.4,0.2,0.1,0.5,0.2,0.9c0.4,0.3,0,0.9,0.6,0.6c0.2-0.1,0.2-0.3,0.1-0.5
	c-0.1-0.1,0.5-0.4,0.6-0.4c-0.5,0.1-0.3,0.9-0.8,1.1c0.2,0,0.5,0.2,0.7,0.1c0.1,0.1,0.2,0.5,0.1,0.5c0.2,0.4,0.5,1.2,0.9,1.5
	c0.1-0.1,0.3-0.2,0.2,0.1s-0.3-0.2-0.3,0.1c0.1,0.5,0.7-0.3,0.8,0.2c0-0.3,0.3-0.1,0.4,0c0.2-0.1,0.5,0.2,0.6,0
	c0.1,0.1,1,0.5,0.7,0.7c-0.5-0.2-0.3,0.1-0.1,0.4c0,0.5,0.3-0.2,0.5-0.2c0.1,0.1,0.8,0.4,0.3,0.4c-0.3-0.3-0.9,0.1-0.3,0.2
	c0,0,0.1,0.4,0.2,0.4c0.3,0,0.5,0.3,0.7,0.1c0,0.2,0.5,0.2,0.3,0.5c-0.6,0.4-0.5-0.2-0.9-0.3c-0.4,0.1,0.1,0.9,0.3,0.9
	c0.2-0.1,0.8-0.1,0.8-0.4c0.3-0.1,0.5,0.1,0.8-0.1c0.6-0.1,0.4-0.9,1.1-0.3c0.1-0.1,0-0.2-0.1-0.2c0.3-0.3,0.7-0.7,0.4-1.2
	c0-0.5,0-1.2,0.4-1.4c-0.1-0.2,0.1-0.8,0-0.9c0.1-0.1,0.2,0.7,0.1,0.7c0.1-0.7-0.4-6.7-1.6-6.1c0,0-0.2-0.4-0.3-0.4
	c0.1-0.1,0.2,0,0.3,0.1c0.6,0-0.3-0.5-0.4-1c-0.5-1.2-1.5-2.5-2.2-3.6l0,0c0,0-1-1.5-0.4-1.9c-1.4-2-2.9-4.4-3.9-6.6
	c0.1-0.3,0-0.4-0.2-0.7c0-0.3-0.1-0.7-0.4-0.8c0-0.2,0.3-0.6-0.2-0.6c-0.4-0.2,0.6,0.1-0.1-0.7c-0.1-0.1-0.2-0.1-0.1-0.1
	c0.3,0.2,0-0.1,0.3-0.3c0.1-0.2,0-0.3-0.1-0.1c-0.2-0.1-0.3,0-0.5,0c-0.4,0,0.1-0.2,0.2-0.2c0.3,0.2,0.3,0,0.3-0.2
	c-0.1,0-0.3-0.1-0.2-0.3c0-0.1-0.4-0.5-0.2-0.6c0.1,0.2,0.7,0.8,0.4,0c0.2-0.4,0.2,0.2,0.3,0.3c0.3-0.3,0.9-0.9,0-0.8
	c0,0.5-0.1,0.3-0.2,0c0,0-0.4,0-0.4-0.1c0.2-0.1,0.7,0.1,0.9,0c0.1-0.2-0.2-0.3-0.2-0.1c-0.3,0.1-0.2-0.2,0-0.2
	c-0.1-0.4,0.1-0.2,0.2,0c0.3-0.5,0.6-1.1-0.1-0.4c0-0.4-0.3-0.1-0.4-0.3c0.1-0.1,0.5-0.2,0.6-0.2c0-0.1-0.2-0.2-0.2-0.3
	c0.3-0.2,0.3,0.4,0.5,0.1c0.1-0.8-0.1-0.2-0.5-0.2c-0.3-0.1,0.2-0.1,0.2-0.2c0.1-0.2-0.3-0.1-0.4-0.2c0-0.2-0.1-0.2-0.2-0.2
	c0.1-0.2,0.4,0,0.4,0.1c0.2,0.1,0.2,0,0.1-0.1c0.2-0.6,0.1,0.6,0.5,0c0.4-0.4-0.4-0.4-0.5-0.5c-0.1,0.3-0.4-0.1-0.4-0.2
	c0.1,0.3,0.4,0,0.5-0.1c0.2,0,0.2,0.3,0.5,0.3c0.1-0.1,0.2-0.1,0.2,0c0,0,0.4-0.4,0.1-0.3c-0.4,0.1-0.5-0.8-0.1-0.2
	c0,0.2,0.1,0,0.2,0c0.1,0.1,0.2,0.2,0.2,0c-0.1-0.1-0.5-0.4-0.6-0.5c-0.1,0.2-0.5,0.1-0.5,0c0.1,0.1,0.4-0.1,0.4-0.1
	c0.3,0.3,0.8,0.2,0.6-0.3c0.1-0.1,0.1-0.2-0.1-0.2c-0.1,0.1-0.2,0-0.1-0.1c0,0,0.3,0.1,0.3,0s0-0.2,0.1-0.3c0-0.2-0.8,0.1-0.6-0.3
	c0,0,0.3,0.2,0.4,0.1c0-0.3-0.3-0.4-0.3-0.8c-0.1-0.2-0.3-0.2-0.1-0.3c0.1,0.1,0.2,0.1,0.3,0.1c-0.3,0.5,0.9,1.5,0.4,0.4
	c0-0.2,0.1-0.2,0.2,0c0,0.2-0.1,0.3,0.1,0.2c0.1,0.2-0.2,0.7,0.2,0.4c0.2,0.2,0.1-0.1,0.4-0.2c0.2-0.1,0-0.3,0.1-0.4
	c-0.1,0-0.4,0.2-0.5,0.3c0.2-0.2,0.5-0.6,0-0.5c-0.1-0.2-0.4-0.3-0.6-0.2c-0.3-0.1,0-0.3,0.2-0.2c0.2,0.1,0.1-0.3,0.4-0.3
	c0.2,0.1,0.1,0.5,0.4,0.2c0.1,0,0.2,0.2,0.3,0.1c0.1-0.3-0.3-0.1-0.2-0.4s-0.4-0.3,0-0.5c0.1,0.1,0,0.4,0.2,0.6
	c0.1,0,0.2,0.2,0.2,0.2c1.2-1-0.7-0.2,0.3-1.1c0.1,0.1-0.3,0.5-0.1,0.5c0.4,0.1,0.3,0.3,0.6-0.1c0.1,0,0.3,0,0.4-0.1
	c-0.3-0.1-0.2,0,0.1-0.1c0.1,0,0.4-0.3,0.2-0.5c-0.2,0-0.3,0-0.4-0.2c-0.3-0.1-0.2-0.1,0-0.2c0-0.1-0.1-0.2-0.1-0.2
	c0-0.1,0.2-0.4,0.2-0.1c0,0.7,0.3-0.3,0.5-0.2c-0.8,1.1,0.2,1.1,0.5,0.1c0.1,0,0.4-0.2,0.1-0.2c-0.2-0.1,0-0.5,0.2-0.5
	c0.1,0.1,0.4,0.2,0.5,0c-0.4-0.1,0.8-0.6,0.1-0.7c0-0.3,0.4-0.2,0.5,0c0.5-0.6-1.1-0.5-0.1-1.5c0.1,0-0.1,0.5-0.2,0.7
	c0.7-0.3,0.9-2.6,2.1-2.8c0.3-0.1,0-0.1,0-0.2c0.3-0.1,0.9-0.1,0.9-0.6c-0.1,0.4,0.7,0.2,0.4-0.1c0.1,0.1,0.3,0.2,0.5,0.1
	c0.2,0,0.4,0.2,0.4-0.1c0.4-0.4-0.2-0.9,0-1.3c0.2,0,0.1,1,0.4,0.4c-0.1-0.7,0.9-2,1.3-2.3c0.4-0.2-0.2-0.2-0.2-0.4
	c0.2-0.1,0.6-0.3,0.1-0.4c-0.4,0.1,0.1-0.7,0.2,0c0.6,0.3-0.4,0.3,0.3,0.6c0.1-0.1,0.6-0.4,0.3-0.5c0.2,0,0.4-0.1,0.1-0.2
	c0.2,0,0.4,0.1,0.1-0.2c-0.3-0.4,0.4,0,0.2,0.2c0.2-0.1,0.5-0.2,0.5-0.4c0.2,0,0.4,0.1,0.6-0.1c0.4,0.1,0.4-0.2,0-0.2
	c0-0.1,0.1-0.3,0.3-0.3c0.3,0.3,0.1,0.2,0.2-0.1c0,0,0,0.1,0.1,0.1c0.2-0.1,0.2,0.6,0.4,0.1c0-0.1-0.2-0.1-0.1-0.2
	c0.1,0,0.2,0.2,0.2-0.1c0-0.2,0.2-0.2,0-0.3c0-0.3,0.4,0.2,0.4-0.2c-0.4-0.2,0.3-0.2,0.1-0.4c-0.2-0.3-0.3,0-0.1,0.1h-0.2
	c0,0,0.2,0.2,0,0.1c-0.1-0.2-0.1,0-0.2,0c-0.2,0-0.4-0.5-0.5-0.1l0.3,0.2c0.1,0.3-0.2,0.1-0.2,0c-0.1,0-0.2-0.1-0.2-0.2
	c-0.2,0-0.2,0.1-0.1,0.3c-0.1,0.5-0.2,0.4-0.2,0c-0.2-0.1-0.1,0-0.1,0.2l-0.2,0.2c0-0.1,0-0.3-0.2-0.2c0,0.1,0,0.2-0.1,0.2
	c0.1-0.4-0.3-0.1-0.2,0.1c0-0.1-0.1-0.3-0.2-0.2c0.3-0.3-0.1-0.1-0.3-0.3c-0.2-0.5-0.3,0-0.5-0.1c0.2-0.1,0.3-0.4,0-0.5
	c0.2-0.1,0.4,0.3,0.6,0.4c0.2,0.1,1,0.5,0.7,0c0.3,0.1,0.3-0.2,0.5-0.3c-0.2,0-0.1-0.2,0.1-0.2c0.4-0.2,0.1-0.5-0.1-0.1
	c-0.1-0.2-0.4,0-0.5,0c-0.1-0.2,0.5-0.3,0.5-0.6c0.1-0.2,0.4,0,0.4-0.2c-0.1,0-0.2,0-0.2-0.1c-0.1,0-0.2,0-0.3-0.1
	c-0.2,0,0,0.2,0,0.2c0,0.1-0.3,0-0.3,0c0.4-0.5-0.4-0.2-0.4,0c-0.1-0.1,0.2-0.3,0.2-0.3c-0.1-0.1-0.3-0.1-0.4,0.1
	c-0.3,0.1,0.2-0.4-0.3-0.2c-0.1,0-0.2-0.2-0.2,0s-0.2,0.3-0.1,0c-0.1-0.3-0.6-0.3-0.7-0.5c0.4-0.2,0.8,0.5,1.3,0.2
	c0.2-0.1,0.2-0.1,0.1,0c0.1,0.3,1.3-0.5,0.4-0.3c0.1-0.1,0.2-0.2,0-0.2c0.1-0.3,0.2,0,0.2,0.1c0.1,0,0.1-0.2,0.2-0.1
	c0.1,0.1,0.3,0,0.3-0.1c-0.2-0.1-0.2-0.3,0-0.1c0.5,0-0.4,0.5,0,0.6c0.3,0.3,0.3-0.5,0.4,0c0.2,0,0.7,0.6,0.5,0c0,0.2,0.5,0.3,0.6,0
	c0.2-0.1-0.2-0.6,0.2-0.4c0.2-0.1,0-0.2,0-0.3l0.1-0.2c0.1,0,0.2,0,0.2-0.2c0.1-0.2-0.1-0.3,0.1-0.4c0,0,0.1,0.2,0.2,0.2
	c0.1,0.1,0.1,0.2,0.2,0c-0.1-0.2,0.3-0.3-0.1-0.5c0-0.2,0.3-0.1,0.2-0.3c-0.1-0.2-0.2-0.2-0.1-0.3c-0.3-0.2-0.1-0.7-0.7-0.5
	c-0.3,0.1,0.3,0.1,0.1,0.2c-1-0.5-0.1,0.8-0.5,1.1c-0.1,0.1-0.6-0.1-0.3-0.2c0.3,0.1,0.3-0.1,0.2-0.3c-0.1,0-0.2,0-0.2-0.1
	c0.2,0.1,0.2-0.1,0.1-0.3c-0.1-0.1-0.2-0.1,0-0.1c0.2-0.2,0-0.4-0.1-0.2l-0.2-0.2c0.1-0.1,0.6,0,0.2-0.2c-0.7-0.2-0.6,0.2-1.2,0.5
	c-0.4-0.8-1,1.4-1.6-0.8c-0.1-0.4,0-0.3,0.1-0.5c-0.1-0.1-0.5-0.3-0.2-0.4c0.8,0.4,0,0.8,0.5,1.2c0,0.1,0,0.3,0.2,0.3
	c-0.1-0.5,0.8,0.7,0.8-0.5c0,0,0.2,0.1,0.3,0.1c0.4-0.2-0.5-0.1-0.5-0.5c0.1-0.1,0.3,0.2,0.4,0.2c0.1,0,0.3,0,0.4,0.1
	c0.2-0.1-0.4-0.3-0.3-0.5c-0.1-0.1,0.4,0.4,0.4,0.4c0.2,0.1,0.6-0.2,0.4-0.4c-0.2,0-0.3-0.4-0.5-0.3c0.2-0.2,0.6,0.4,0.8,0.2
	c0.3-0.2-0.2-0.4-0.2-0.4c0.3-0.4,0.7,0.9,1,0.9c0-0.4-0.7-1.1-0.8-1.3c-0.2,0.3-0.4-0.3-0.5-0.4c-0.3-0.2-0.1-0.1,0-0.2
	c-0.2-0.3-0.3-0.4,0.1-0.2c0.1-0.7,0.6,0.3,0.3-0.4c-0.3-0.2-0.4-1.7-0.9-1.2c0,0,0.2,0.3,0.1,0.3c-0.2-0.1-0.2,0.1-0.3-0.1
	c-0.2,0-0.2-0.1-0.3-0.3c-0.1,0-0.3-0.2-0.5,0c-0.1,0.2,0,0.3,0.2,0.2c0.2,0.1,0,0.1-0.1,0.2c0,0.2,0.2,0.1,0.3,0.1
	c0.1,0.1,0,0.1-0.2,0.1c-0.2-0.1-0.4,0.5-0.4,0.1c0.4-0.3,0.1-0.3-0.2-0.3c0,0.2-0.1,0.2-0.2,0.4c0,0.4-0.3,0.2,0-0.1
	c0.3-0.3-0.2-0.9-0.4-0.5c-0.2,0,0-0.1,0-0.2s-0.2-0.1-0.3-0.1s-0.1-0.2,0-0.2c0-0.1-0.1-0.3-0.2-0.4c-0.1-0.3,0,0.2-0.3,0.1
	c-0.2-0.1-0.4-0.3-0.6-0.1c-0.2,0-0.2-0.2,0-0.2c0.1-0.1-0.1-0.4,0-0.4c0.2,0,0,0.5,0.3,0.3c0.2-0.1,0.2,0.3,0.4,0
	c0.5-0.3,0.3,0.4,0.6,0.6c0.2,0,0.1,0,0-0.1h0.2c-0.1,0.2,0,0.1,0.2,0.2c0.2,0.4,0.2,0.4,0.4,0c0.3,0.1,0.4-0.3,0.2-0.5
	c-0.1,0.2-0.6,0.2-0.2,0c0.3,0.1-0.1-0.3-0.1-0.3s-0.1,0.2-0.2,0.2c-0.1,0.2-0.3,0.2-0.2,0c0.3-0.1,0.1-0.4-0.1-0.2
	c-0.3,0.1-1.6-1.3-0.7-0.6c0.1,0.3,0.4,0.2,0.6,0.5l0.4-0.2c0-0.2-0.1-0.3-0.3,0c0,0.1-0.2-0.2-0.2-0.2c0.3,0.2,0.4-0.2,0-0.2
	c0-0.1-0.1-0.1-0.1-0.2c0.1,0,0.1-0.2,0.1-0.2c0.3-0.2,0.2,0.4,0.4,0.3c0.1-0.1-0.1-0.2,0-0.3c0.1,0,0.1,0.3,0.1,0.3
	s0.2,0.1,0.3,0.2c-0.1-0.2,0.2-0.5-0.1-0.7c-0.2,0.1-0.3-0.3-0.5-0.3c-0.2,0.2-0.4,0.2-0.5,0c0.2,0.1,0.4,0,0.5-0.1
	c0.1,0.1,0.3,0.1,0.2-0.1c-0.1-0.1-0.3,0.1-0.4,0c-0.1-0.3-0.6,0.2-0.7-0.2c0.1,0,0.1-0.1,0-0.2c-0.2,0-0.2,0-0.2-0.2
	c-0.1,0-0.2,0-0.2-0.1c-0.2,0-0.5-0.2-0.5-0.4c-0.4,0.1-0.2-0.4,0-0.1c0.4-0.2,0,0.1,0.2,0.3c0.1,0.1,0.5-0.2,0.4,0.1
	c0,0.1,0.2,0,0.2,0c0,0.2,0.3,0.2,0.2,0.5c0.2,0.2,0.3-0.2,0-0.3c-0.2-0.4,0.3,0.2,0.4,0.2c0,0.2,0.2,0.3,0.3,0.1
	c0.3-0.1-0.4-0.1-0.2-0.3c0.1,0,0.2,0.1,0.2,0c-0.2-0.2-0.4-0.2,0-0.4c-0.2,0-0.2-0.3-0.4-0.2c-0.2,0-0.5-0.2-0.1-0.2
	c0.1,0.1,0.1,0.1,0.3,0.1c0.1,0.1,0.3,0.2,0.3,0c0.2-0.3-0.1-0.1-0.2-0.2c-0.1-0.1,0-0.1,0.1-0.1c-0.1-0.2-0.4-0.2-0.4,0.1
	c-0.1-0.1-0.4-0.5-0.4,0c0,0.1-0.2-0.2-0.2-0.3c0.3,0.1,0-0.3-0.1-0.1c0,0.5-0.4-0.1,0-0.2c0.1,0-0.3-0.2-0.3-0.2
	c0-0.3-0.3-0.2-0.1,0c0,0-0.2-0.3-0.3-0.1c0.1,0.3,0.1,0.8-0.2,0.1c-0.1-0.4-0.4,0.1-0.5-0.2c-0.2,0.1-0.2,0.3-0.4,0.1
	c0.4-0.2-0.1-0.4-0.2-0.5c0.2-0.1-0.1-0.7-0.2-0.3c-0.1,0.1-0.2,0.1-0.3,0.2c-0.2,0.2-0.9,0.2-0.5,0c0-0.1-0.3-0.3-0.3-0.3
	c0.2,0,0.2-0.4,0.3-0.5c0-0.2-0.1-0.3,0.1-0.5c0-0.1-0.1-0.2,0.1-0.2c0.1,0.7,0.4-0.7,0.3,0.3c-0.6,0.2-0.4,1.7,0.2,0.8
	c-0.1,0-0.2-0.3,0-0.2c0.1,0.5,0.1-0.2,0.3-0.2c0,0.2,0.3,0.7,0.5,0.7c0,0.1,0.2,0.4,0.4,0.3c0-0.2-0.2-0.3-0.2-0.4
	c-0.2,0-0.1-0.2,0.1-0.1c0.1,0,0.5,1.3,0.5,0.2c0.2,0.1,0.2,0.3,0.4,0c0.2,0.1-0.1,0.2-0.1,0.3c0.1,0.1,0.4,0,0.4,0
	c0.1,0.1,0.2,0.5,0.4,0.3c0.1-0.2-0.3-0.5,0.1-0.4c0.1,0.1,0,0.4,0.1,0.4c0.2,0,0.3,0.3,0.5,0.3c0.2-0.2-0.5-0.5-0.1-0.5
	c-0.1-0.3-0.3-0.2-0.3-0.6c-0.1-0.3-0.3,0.4-0.5-0.1c-0.2,0-0.1,0-0.1-0.2c-0.1,0-0.9-0.3-0.5-0.4c0.1,0.1,0.5,0.2,0.6,0.3
	c0,0.2,0.2,0.2,0.3,0l0,0c0.1-0.3-0.3-0.3-0.6-0.5c-0.3-0.3,0-1.1-0.5-1.2c0.1,0,0.4-0.7,0.1-0.3c-0.2,0,0.1-0.2-0.1-0.3l0.2-0.2
	c-0.1-0.1-0.2,0.2-0.3,0c-0.4,0,0.3-0.2,0.4-0.2c0.2-0.1,0.1-0.5-0.1-0.2c-0.2-0.2-0.1,0-0.3,0.1c0,0-0.5-0.2-0.2-0.3
	c0.1,0.2,0.3,0.1,0.2-0.1c0.2,0,0.2,0.2,0.4-0.1c0-0.1-0.3-0.1-0.3-0.1c0-0.6-0.2-0.1-0.2,0c-0.4,0.1,0.4-0.6-0.2-0.3
	c-0.2-0.4,0.3-0.1,0.5-0.1c0.4,0.4,0.2-0.2-0.1-0.3c0.1,0,0.2-0.1,0.3-0.1c0.1-0.2,0-0.3-0.1-0.3c-0.1-0.1,0-0.1,0.1-0.1
	c0.2-0.1,0.5,0,0.4-0.3c-0.1-0.2-0.2-0.1,0-0.2c0.2-0.3,0,0.2,0.2,0.2c0.5,0.1,0.1-0.7,0.3-0.7c0.2-0.4,0.3,0.3,0.3-0.3
	c0.3-0.3,0,0.5-0.1,0.6c0.2-0.1,0.2-0.4,0.4-0.5c0.1-0.6,0.3-0.3,0.1,0.1c-0.2,0.2,0.2,0.1,0.2,0.2c0.1,0.1,0,0.1-0.1,0
	c-0.2-0.2-0.4,0.2-0.5,0.3c0.2,0.1,0.4-0.1,0.6,0c0,0.2-0.3,0.2-0.4,0.1c-0.1,0-0.5,0.1-0.6,0.1c0,0.1,0,0.3-0.2,0.3
	c0.2,0.1,0,0.3-0.1,0.4c0,0.1,0.1,0.2-0.1,0.3c0.3,0.7,0.4,0.4,0.3-0.1c0.1,0.1,0.1,0.1,0.2,0c-0.1,0.1,0.1,0.4,0.2,0.5
	c-0.2,0-0.1,0.4-0.2,0.5c0,0.1,0.2,0.1,0.2,0c0.6,0.1-0.4,0.7,0,0.7c0.1-0.1,0.2,0,0.2,0.1c-0.1,0.1-0.1,0.1,0,0.1
	c0.3,0.1-0.2,0.2,0.1,0.4c0,0.1,0.1,0.3,0.1,0.4c-0.3-0.2-0.3,0.2-0.1,0.3c0.1,0.4-0.6,0-0.4,0.5l-0.2-0.2c-0.2,0.1,0.1,0.5,0.2,0.6
	c0.2,0.1,0.1,0,0.1-0.1c0.2-0.1,0.4,0.3,0.4,0.4c0.1,0.1,0.2,0,0.3,0c0,0.1,0.3,0.4,0.3,0.1s-0.3-0.2-0.1-0.4c0.1-0.3,0-0.3,0.3-0.1
	c0,0-0.2,0.1-0.2,0.2c0,0,0.3,0.5,0.3,0.2c0-0.2,0-0.7,0.2-0.5c0,0.1-0.2,0.7,0.1,0.4c0-0.1,0-0.2,0.2-0.1c0.3,0.4-0.7,0.4-0.3,0.7
	c0.1,0,0.1-0.1,0.1-0.1c0.1,0.1,0.7-0.5,0.5,0c-0.4,0-0.5,0.8,0,0.2c0.4,0.1-0.4,0.4-0.3,0.7c0.4-0.3,0,0.3,0.3,0.1
	c0-0.3,1.1-0.4,0.5-0.1c-0.4,0.2,0.6,0.2,0,0.5c0.1,0.1,0.1,0.4-0.1,0.2c-0.1-0.1-0.2-0.2-0.2,0c0,0.1,0.2,0.2,0.2,0.2
	s-0.3,0-0.3,0.1c0.4-0.1,0.3,0.3,0,0.1c0.1,0,0.3,0.3,0,0.3c-0.1-0.1-0.2-0.2-0.2,0c0.2,0.2,0.1,0.3,0,0.5c0,0.1,0.1,0.2,0.2,0.1
	c0.1,0.1-0.2,0.2-0.2,0.2c0.2,0.1,0.1,0.2,0,0.3c0.2,0,0.1,0.1,0,0.2c0,0.1,0.1,0.3,0,0.4c-0.1,0.4,0.4,0,0,0.3
	c0.1,0.1,0.2,0.3,0.3,0.4c0.3,0.1,0.1-0.2,0-0.3c0.2-0.3-0.2-0.4,0-0.8c0.1-0.4,0.3-0.3,0.2-0.7c0.1-0.2,0.2-0.1,0.2,0
	c0.2-0.1,0.1-0.1-0.1-0.2c0.1-0.3,0.1-0.6,0.3-0.8c-0.1-0.5,0.4-0.8,0.2-1.3c0.4-0.1,0.3-0.7,0.4-1c0.3-0.1,0.4-0.4,0.2-0.6
	c0-0.3,0.2-0.2,0.2,0c0,0.1,0.3-0.5,0.3-0.5c-0.4-0.1-0.1-0.2-0.4-0.3c-0.2-0.3,0.3-0.1,0.4-0.3c0.1-0.1,0-0.6-0.1-0.6
	c-0.1,0.2-0.1,0.1-0.3-0.1c-0.1,0.1-0.3,0.5-0.3,0c0.4-0.3,0.1-0.1-0.1-0.3c0-0.2,0.3-0.2,0.4-0.1c0.1-0.2,0-0.9-0.3-0.5
	c-0.3,0-0.8-0.4-0.8-0.7c-0.4-0.4-0.5-0.3-0.5-1c-0.1-0.5-0.2-0.4-0.5-0.5c-0.1-0.1-0.3-0.4-0.4-0.5c-0.1-0.3,0.2-0.6-0.2-0.7
	c0-0.1,0.4-1.2,0.3-0.4c-0.2,0.2-0.2,0.2,0.1,0.5c0.1,0.3-0.1,0.6,0.3,0.6c0.3-0.1,0.6,0.7,1,0.5c0.4-0.1,0.3,0.8,0.6,0.2
	c0.1-0.1,0.3,0,0.4,0c1-0.4-0.1,1.2,0.7,0.9c0-0.2,0.2-0.4,0.3-0.5c-0.3-0.4,0.4-0.8,0.3-1.2c-0.1-0.1-0.3-0.1-0.1-0.2
	c0.3,0.1,0.1-0.1,0.3-0.3c0.2-0.1,0.4-0.1,0.1-0.3c0-0.2,0.1-0.2,0.2-0.1c0.1-0.1,0-0.3-0.1-0.4c0-0.4,0.2,0,0.4,0
	c0.1-0.1-0.1-0.2-0.2-0.3c0.1-0.4,0.7-0.5,0.3-1c-0.1-0.2,0.1-0.3,0.1-0.4c-0.1-0.1-0.1-0.3,0-0.4c-0.1-0.1-0.2-0.2-0.1-0.4
	c-0.3-0.1-0.1-0.1,0.1-0.2c-0.1-0.1,0-0.1,0-0.2s-0.2-0.1-0.2-0.1c0.4,0,0.2-1.6-0.1-1.7c0.1,0.5-0.1,0.1-0.4,0.2
	c-0.2-0.1-0.2,0-0.3,0.1c-0.2-0.1-0.4-0.1-0.5,0c0.1-0.2,0.4-0.6,0.3-0.9c0.1-0.1,0.3-0.4,0.2-0.5c0.3,0.8,0.2-0.9,0.9-0.8
	c-0.1-0.3,0.1-0.1,0.1-0.4c0.2,0,0.1-0.2,0.1-0.3c0.3,0.2,0.1-0.6,0.4-0.3c0.2-0.4,0.4-0.1,0.7-0.7c0.3-0.4,0.5,0.1,0.5-0.5
	c0.2-0.2,0.2,0.4,0.3,0.1c0-0.1,0-0.2,0.1-0.2c0-0.1,0-0.2,0.1-0.1c0-0.1,0-0.3,0.1-0.4c0.1-0.2,0.2-0.3,0.2,0c0,0.2,0,0.1,0.2,0
	c0.2,0,0.2-0.1,0.2-0.2c0.2,0.2,0.2,0.2,0.4,0c0.1-0.1,0.5,0.1,0.6-0.2c0-0.1,0.3-0.1,0.4-0.1c0.1-0.2-0.4-0.3-0.1-0.4
	c0.2,0,0.2,0.3,0.3,0.4c0.3,0,0.3-0.3,0.6-0.3c0.1-0.1-0.3-0.6,0.1-0.4c0,0.3,0.2,0.4,0.3,0.1c0.1-0.1,0.5,0,0.6,0s0.7-0.7,0.9-0.5
	c-0.1-0.2,0.1-0.3,0.1,0c0.3-0.1,0-0.7-0.1-0.9c0.1-0.1,0.2-0.3,0-0.5c-0.5-0.4,0.5,0-0.1-0.5c-0.1-0.1-0.2-0.8,0.1-0.5
	c0.1,0.1,0,0.5,0.2,0.5c0.1-0.5,0,0.2,0.2,0.2c0.3,0,0.1-0.3,0.3-0.4c0.2-0.2-0.1-0.6,0.2-0.4c0.1,0.3-0.4,0.8,0,1
	c0.1-0.1-0.1,1.1,0.3,0.5c-0.1-0.7,0.2-0.8,0.3-0.1c0.2,0,0.2-0.3,0.1-0.3c0.4,0.1,0.1,0,0-0.2c0.2,0,0.1-0.3,0.1-0.3
	c0.1,0.1,0.6,0.2,0.3-0.1c0.4,0.3,0.1-0.3,0.2-0.5c0.2,0.2,0.4-0.3,0.4,0.1c-0.2,0.2,0.1,0.5,0,0.7c0.2,0.1,0.4-0.2,0.6-0.2
	c0-0.2,0.6-1,0.7-0.5c0.3,0,0.1-0.4,0.6-0.3c0.1,0.1,0.8-0.6,0.2-0.4c0-0.1,0.1-0.3,0-0.4c0.4-0.5-0.9-1.1-0.5-0.3
	c0-0.1,0.1-0.2,0.2-0.1c0.3,0.6-0.4,0.7-0.6,1.1c-0.2,0.1-0.4-0.1-0.8-0.1c-0.6,0-0.2-0.9-0.7-0.7c0,0-0.3,0-0.4-0.1
	c0.2-0.4,0.1-0.6-0.3-0.8c0-0.3-0.1-0.2-0.4-0.3c-0.2-0.1-0.3-0.3-0.5-0.2c0.6,0.6-1.2,0.5,0-0.9c-0.4,0-0.1-0.2,0.1-0.3
	c0.1-0.2,0.1-0.3,0.3-0.3c0.3-0.3,0-0.6-0.3-0.3c-0.1,0.2,0,0.2-0.2,0c-0.2,0-0.4-0.2-0.2-0.3c0.1-0.2-0.1-0.4-0.2-0.2
	c-0.3,0-0.2-0.1,0-0.2c0-0.2,0-0.6,0.1-0.8c0.1-0.7-0.5,0.3-0.7-0.1c0-0.1,0.3-0.1,0.3-0.2c-0.1,0-0.2-0.3,0-0.3
	c0.1,0.3,0.3,0.3,0.6,0.1c0.4-0.5-0.3-1.1,0.4-1.3c0-0.1,0-0.3,0.2-0.4c-0.5-0.9,0.8-0.7,0.3-1.2c-0.2,0.1-0.3,0.1-0.1-0.1
	c-0.2-0.2,0.1-0.3,0-0.5c0.2-0.1,0.4-0.7,0.6-0.6c0.2,0.2,0.1,0.1,0.2-0.1c0.4-0.1,0.1,0.8,0.4,0.7c0.1-0.3-0.3-0.7-0.3-1
	c-0.6,0,0.2-1.3-0.1-0.4c0.1,0.3,0.5,0.8,0.4,1.1c0.4,0,0.2-0.5-0.1-0.6c-0.1-0.2,0-0.8,0.2-0.8c0.3,0.1,0,0.2,0,0.4
	c0.3,0.4,0.3-0.3,0.4-0.5c0.2,1.2,0.3,0.7,0.4-0.3c0.3-0.1,0.3,0.3,0.2,0.4c0.2-0.2,0.4-0.2,0.5,0.1c0,0,0.1-0.4,0.2-0.4
	c0-0.2,0.2-0.3,0.2-0.5c-0.3,0.4-0.2-0.8-0.1-0.9c0.3-0.3,0-0.4-0.1-0.6c0.1-0.3,0.7-0.4,0.4-0.8c0-0.2,0.2,0,0.3-0.1
	c0.1,0.1-0.1,0.5-0.1,0.6c0.1,0.3,0.2-0.5,0.4-0.2c-0.1,0.1-0.5,1,0,0.5c0.2,0.2,0.5,0.1,0.8,0.3c0.4-0.3-0.4-0.5-0.3-0.8
	c0.5,0,0-0.5,0.3-0.5c0.2,0,0.2,0.4,0.2,0.4c0-0.1,0.2-0.3,0.4-0.4c0.2-0.3-0.5-0.1-0.1-0.4c0.2,0.1,0.4-0.1,0.5,0.1
	c0.3-0.2,0.6,1,0.6,0.2c0.1,0.2,0.4-0.1,0.1-0.2c-0.2-0.1-0.3-0.4-0.1-0.4c0,0.4,0.5-0.2,0.3-0.3c-0.1-0.2,0.4-0.5,0.4-0.1
	c0.3,0.6,0.1,0,0.2-0.2c0.1-0.1,0.2,0.1,0.2,0.2c0.3,0.1,0.1-0.4,0.1-0.5c0.1-0.4,0.3,0.2,0.4,0c0,0-0.2-0.2-0.1-0.3
	c0.2,0.5,0.4,0.1,0.1-0.2c0.1,0.1,0.2-0.1,0.3-0.1c0,0.1,0,0.4,0.2,0.4c0.2-0.1-0.1-0.2,0.1-0.3c0.2,0.3,0.5-0.3,0.3-0.5
	C196.6,55.2,197,55.4,196.9,55.1z M25.7,116.6c-0.1,0.1-0.4,0.4-0.5,0.5c-0.3,0-0.5-0.7-0.5-1s-0.5-0.4-0.5-0.7
	c0.1-0.2-0.1-0.5,0.1-0.5c0.7-0.1,0.3,0.7,0.9,1C25.6,115.9,25.8,116.2,25.7,116.6z M45.9,83.4c-0.3,0-0.1,0.4-0.3,0.1
	c-0.3,0.3-0.1-0.1-0.5,0c-0.1,0.5-0.8,0.3-0.9,0.8c-0.3,0-0.3-0.4-0.5-0.5c-0.3-0.1-0.7,0-0.4-0.4c-0.1-0.3,0.1-0.4-0.3-0.8
	c-0.4-0.4,0.2-0.8,0-1.2c-0.7,0.1-1.1-0.3-0.7-1c0.2,0,0.3,0.1,0.2-0.3c-0.2-0.8-0.3-1.7,0.7-1c1.2-0.5-0.1,0.9,0.7,1.3
	c0.7-0.7,0,1.2,0.5,1.2c0.3-0.1,0.2-0.5,0.1-0.7c0.1-0.1,0.1-0.2,0-0.4c0.2-0.2,0.2,0.1,0.4,0.3c0.1,0.1,0.8,0.1,0.8,0.2
	c0,0.2-0.2,0.3-0.4,0.3c-0.7,0.4,0,0.3,0.1,0.6c0,0.1-0.2,0.1-0.2,0.1c0.1,0.1,0.2,0.3,0.1,0.5C45.4,82.9,46.2,83,45.9,83.4z
	 M126.9,138.3c0-0.2,0,0-0.1,0c-0.3-0.7-0.5,0.2-0.8,0.3c-0.5,0.1-0.9-0.1-1.4-0.1c-0.7-0.5,0.3-1.1,0.5-1.5c0.3-0.1,1.1,0.1,1,0.5
	c0.2,0.1,0.5-0.1,0.6,0.1c0.1,0,0.2-0.2,0.3-0.1C127.1,137.8,127.2,138.2,126.9,138.3z M164.4,148.7c0.5-0.2,0.7-1.4,1.3-1.1
	c0.3,0.2,0.6,0.7,0.6,1.1c-0.1,0.4-0.4,0.5-0.2,0.8c-0.3,0,0,0.2-0.2,0.3c-0.3-0.1-0.5-0.1-0.9-0.3
	C165.2,149.1,164.1,149.3,164.4,148.7z"/>
<path fill="#1E8346" d="M162.6,123.6C162.5,123.6,162.5,123.7,162.6,123.6C162.5,123.7,162.5,123.6,162.6,123.6z"/>
<path fill="#1E8346" d="M45,82.7c0-0.3-0.4-0.1-0.2,0.1c-0.2,0.3,0,1.2,0.2,0.3C45,82.9,45,82.8,45,82.7z"/>
<path fill="#1E8346" d="M43.8,83c-0.1,0.1-0.2,0.5-0.2,0.7C44,83.8,44,83.1,43.8,83z"/>
</svg>
