<?xml version="1.0" encoding="utf-8"?>
<!-- Generator: Adobe Illustrator 26.0.3, SVG Export Plug-In . SVG Version: 6.00 Build 0)  -->
<svg version="1.1" id="Isolation_Mode" xmlns="http://www.w3.org/2000/svg" xmlns:xlink="http://www.w3.org/1999/xlink" x="0px"
	 y="0px" viewBox="0 0 200 200" enable-background="new 0 0 200 200" xml:space="preserve">
<path fill="#1E8346" d="M35.28,20.23c-0.659,0.145-1.49,1.519-1.605,2.124c-0.179,0.943-0.057,2.037-0.103,3
	c-0.042,0.873,0.176,1.671,0.308,2.519c0.178,1.139,0.047,2.353,0.111,3.505c0.123,2.199-0.205,4.375-0.209,6.581
	c-0.002,1.322,0.35,2.459,0.776,3.662c0.247,0.697,0.583,1.361,0.824,2.063c0.206,0.601,0.171,1.837,0.415,2.383
	c0.869,1.953,1.194,4.269,2.445,6.041c0.34,0.482,0.451,1.124,0.109,1.687c-0.266,0.435-0.753,0.481-1.014,0.857
	c-0.616,0.887-0.348,2.46-0.195,3.428c0.163,1.036-0.026,2.098,0.09,3.142c0.076,0.681,0.072,2.09,0.151,2.783
	c0.106,0.924-0.601,1.527-0.658,2.404c-0.063,0.952,0.359,1.618,0.636,2.486c0.21,0.656,0.559,1.319,0.71,1.988
	c0.138,0.611,0.072,1.359,0.001,1.979c-0.128,1.126-0.339,2.743-0.108,3.898c0.159,0.796,0.831,1.112,0.83,2.043
	c-0.003,1.164-0.236,2.599-0.052,3.746c0.151,0.941,0.539,1.838,0.828,2.748c0.392,1.234,0.463,2.253,0.464,3.556
	c0.002,1.512-0.769,2.69-1.332,4.043c-0.405,0.974-0.604,1.935-0.198,2.928c0.189,0.462,0.538,0.73,0.757,1.165
	c0.242,0.484,0.15,1.318,0.359,1.836c0.345,0.859,1.256,1.667,1.296,2.63c0.037,0.928-0.307,2.114-0.654,2.947
	c-0.281,0.676-0.229,1.277-0.229,2.012c0,0.644-0.152,1.563,0.103,2.179c0.346,0.84,1.017,1.305,1.034,2.288
	c0.01,0.578-0.025,1.142-0.108,1.705c-0.175,1.199-0.384,2.211-0.268,3.434c0.107,1.128,0.323,2.595,0.841,3.63
	c0.461,0.921,0.191,2.35,0.103,3.319c-0.07,0.769-0.094,1.582-0.255,2.337c-0.117,0.551-0.361,1.042-0.431,1.602
	c-0.206,1.637-0.099,3.45,0.103,5.072c0.081,0.653,0.049,1.303,0.356,1.9c0.325,0.631,0.801,1.175,0.9,1.908
	c0.078,0.577,0,1.073,0.191,1.644c0.162,0.484,0.399,0.941,0.48,1.454c0.145,0.912,0.379,2.1,0.514,3.036
	c0.135,0.934,0.476,1.953,1.015,2.725c0.526,0.75,1.393,1.146,1.932,1.903c0.282,0.395,0.448,0.815,0.566,1.292
	c0.212,0.857,0.575,1.735,0.728,2.596c-0.421,0.288-2.177,0.687-2.277,1.21c0.81,0.928,1.49-0.076,2.441,0.297
	c0.433,0.17,0.879,1.003,1.136,1.419c0.25,0.405,0.53,1.112,0.13,1.517c-0.477,0.481-1.022-0.155-1.242-0.624
	c-0.133-0.282-0.105-0.828-0.396-0.967c-0.245-0.116-0.761,0.13-0.978,0.279c-0.29,0.2-0.675,0.782-0.731,1.13
	c-0.063,0.391,0.225,0.823,0.363,1.174c0.202,0.511,0.337,0.905,0.425,1.446c0.167,1.023,0.913,1.791,1.282,2.74
	c1.141-0.025,2.359,0.099,3.375,0.628c1.057,0.55,2.231,0.984,3.234,1.627c1.016,0.651,1.919,1.54,2.851,2.298
	c0.963,0.784,1.492,1.792,1.495,3.017c0.004,1.207,0.471,3.77-0.911,4.415c-0.505,0.236-1.253,0.676-0.626,1.322
	c0.303,0.312,1.208,0.522,1.633,0.593c0.871,0.149,1.792,0.047,2.632,0.348c0.702,0.252,1.333,0.645,2.03,0.918
	c0.863,0.338,1.508,0.732,2.442,0.841c1.223,0.142,2.464,0.136,3.693,0.207c0.791,0.045,1.891-0.039,2.647,0.228
	c0.601,0.212,1.06,0.746,1.7,0.962c0.945,0.319,1.961,0.325,2.819,0.876c0.354,0.226,0.621,0.494,1.008,0.659
	c0.516,0.221,1.097,0.281,1.629,0.442c0.822,0.248,1.296,0.638,1.937,1.186c1.468,0.033,2.856,0.706,4.236,1.127
	c0.715,0.219,1.446,0.443,2.163,0.651c0.618,0.18,0.886,0.011,1.528-0.154c2.111-0.542,4.166-0.652,6.346-0.594
	c1.116,0.03,2.209,0.224,3.311,0.377c0.867,0.12,1.746,0.234,2.458,0.8c0.461,0.367,0.957,0.767,1.272,1.274
	c0.141,0.227,0.258,0.64,0.456,0.817c0.267,0.237,0.721,0.152,0.991,0.344c0.544,0.387,0.444,1.04,0.661,1.628
	c0.335,0.906,1.245,1.525,1.437,2.488c0.211,1.06,0.176,1.971,0.815,2.923c0.34,0.506,0.662,0.886,1.123,1.29
	c0.46,0.403,0.875,0.562,1.446,0.801c0.353,0.148,0.757,0.216,1.087,0.376c0.212,0.103,0.365,0.269,0.592,0.373
	c0.221-0.12,0.457-0.118,0.731-0.151c0.784-0.095,1.504-0.315,2.252-0.561c0.536-0.177,0.954-0.168,1.551-0.166
	c0.911,0.002,1.5-0.023,2.29-0.454c0.649-0.354,1.238-0.808,1.9-1.138c1.114-0.557,2.069-1.324,3.246-1.768
	c0.507-0.192,0.921-0.464,1.466-0.535c0.581-0.076,1.188-0.016,1.702-0.274c0.885-0.444,1.162-1.413,1.602-2.236
	c0.491-0.917,0.921-1.837,1.44-2.738c0.493-0.855,0.809-1.78,1.406-2.58c0.392-0.526,0.834-1.233,1.464-1.426
	c0.563-0.172,1.27-0.07,1.849-0.126c0.997-0.096,2.073,0.003,3.023-0.389c1.573-0.649,2.814-1.79,4.14-2.803
	c0.358-0.274,0.793-0.579,1.102-0.904c0.277-0.289,0.42-0.697,0.705-0.978c0.637-0.627,1.556-1.063,2.275-1.595
	c1.067-0.788,2.053-1.679,3.137-2.449c0.572-0.407,1.023-0.971,1.642-1.27c0.471-0.227,0.969-0.362,1.445-0.53
	c0.428-0.15,0.857-0.32,1.255-0.535c0.295-0.16,0.572-0.699,0.855-0.746c0.215-0.215,0.513-0.273,0.707-0.515
	c0.289-0.361,0.241-0.544,0.625-0.832c0.513-0.385,0.894-0.66,1.179-1.203c0.245-0.465,0.44-0.932,0.795-1.351
	c0.567-0.67,1.441-1.044,1.745-1.908c0.243-0.692,0.4-1.225,0.83-1.851c0.67-0.977,1.12-2.373,2.104-3.086
	c0.451-0.326,0.957-0.426,1.39-0.787c0.478-0.399,0.862-0.837,1.199-1.355c0.276-0.424,0.464-0.937,0.778-1.337
	c0.376-0.479,0.889-0.793,1.245-1.32c0.285-0.422,0.492-0.785,0.529-1.295c0.04-0.541-0.033-0.945,0.207-1.456
	c0.532-1.129,1.941-1.08,2.657-2.041c0.5-0.672,1.046-1.337,1.503-2.064c0.45-0.715,0.883-1.413,1.343-2.131
	c0.334-0.521,1.059-1.317,1.059-1.925c0-0.954-0.063-1.815,0.622-2.583c0.405-0.453,1.454-0.786,1.7-1.289
	c0.278-0.571-0.14-1.307,0.282-1.915c0.279-0.402,0.54-0.514,0.705-1.007c0.301-0.895,1.026-1.24,1.457-2.055
	c0.713-1.349,1.024-2.769,1.164-4.277c0.084-0.896,0.414-2.332,0.037-3.18c-0.146-0.329-0.477-0.468-0.621-0.816
	c-0.211-0.514-0.01-1.068,0.029-1.58c0.077-1.002-0.174-1.516-1.132-1.749c-0.885-0.215-1.405-0.248-1.61-1.244
	c-0.223-1.086-0.135-3.168-1.497-3.263c-0.304-0.021-1.401,0.006-1.685-0.203c-0.372-0.272-0.169-0.381-0.405-0.782
	c-0.434-0.736-0.274-1.017-1.217-0.725c-0.751,0.233-0.912,0.805-1.673,0.987c-1.007,0.241-1.798-0.393-2.725-0.515
	c-1.084-0.143-1.194,0.39-1.979-0.409c-0.416-0.424-0.782-0.989-1.148-1.457c-0.564-0.72-0.607-0.537-1.087-0.997
	c-0.967-0.927-1.551-1.849-1.076-3.219c-1.485-0.56-1.778-1.465-2.849-2.526c-0.621-0.614-1.564-0.991-2.238-1.558
	c-0.619-0.52-1.015-1.196-1.774-1.415c-1.619-0.47-2.027,0.849-3.278,1.207c-0.899,0.259-2.05-0.29-2.832-0.706
	c-1.131-0.601-2.128-1.544-2.988-2.478c-0.654-0.712-0.91-0.639-1.647-1.115c-0.561-0.363-0.624-0.707-1.023-1.19
	c-0.964-1.168-1.899-0.708-3.394-0.862c-2.226-0.229-1.949-3.115-2.939-4.691c-1.787,0.098-3.759,0.444-5.357-0.492
	c-1.798-1.053-3.29-2.784-4.838-4.131c-1.26-1.097-2.474-2.168-3.948-2.945c-1.653-0.871-3.385-1.774-5.227-2.104
	c-1.876-0.336-3.463-1.75-4.932-2.859c-1.279-0.966-2.397-1.722-3.47-2.953c-1.384-1.591-3.378-2.991-4.517-4.747
	c-0.64-0.987-1.087-2.009-1.712-3.025c-0.53-0.859-1.359-2.129-1.833-3.026c-0.302-0.572-0.804-1.066-1.145-1.625
	c-0.462-0.756-1.015-1.428-1.519-2.155c-0.964-1.39-2.167-2.609-3.04-4.082c-1.059-1.787-1.912-3.71-2.932-5.529
	c-0.903-1.61-1.172-3.805-2.346-5.244c-0.886-1.086-2.016-1.994-2.561-3.314c-0.421-1.022-1.16-2.393-1.108-3.527
	c-0.253-0.48-0.258-1.024-0.429-1.531c-0.186-0.55-0.388-0.954-0.313-1.551c0.055-0.44,0.142-0.878,0.122-1.324
	c-0.017-0.39-0.136-0.656-0.304-1.016c-0.191-0.409-0.448-0.795-0.751-1.132c-0.261-0.29-0.409-0.596-0.618-0.916
	c-0.574-0.877-1.068-1.569-1.014-2.658c0.022-0.433-0.42-0.967-0.612-1.347c-0.217-0.431-0.623-0.783-1.02-1.061
	c-0.433-0.304-1.907-0.787-1.475-1.648c0.266-0.531,0.925-0.528,1.395-0.717c0.584-0.234,0.144-0.744,0.026-1.15
	c-0.098-0.334-0.176-0.669-0.305-0.993c-0.08-0.2-0.239-0.369-0.282-0.577c-0.355-0.319-1.274-0.092-1.443-0.648
	c-0.083-0.273,0.236-0.519,0.385-0.69c0.208-0.239,0.421-0.473,0.439-0.8c0.023-0.436-0.224-0.774-0.44-1.129
	c-0.285-0.465-0.507-0.857-0.908-1.228c-0.811-0.75-1.835-0.636-2.873-0.724c-0.832-0.07-1.388-0.655-1.914-1.249
	c-0.307-0.347-0.689-0.82-1.009-1.153c-0.855-0.886-1.536-1.918-2.552-2.624c-0.616-0.428-1.275-0.826-1.838-1.324
	c-0.358-0.317-0.444-0.664-0.601-1.102c-0.136-0.38-0.24-0.746-0.572-0.998c-0.349-0.264-0.794-0.418-1.16-0.666
	c-0.443-0.299-0.495-0.542-0.603-1.025c-0.097-0.438-0.132-0.405-0.577-0.4c-1.154,0.011-1.948-0.399-2.932-0.941
	c-0.433-0.238-0.976-0.482-1.192-0.96c-0.215-0.478-0.074-1.155-0.497-1.532C60.4,5.887,60.032,5.98,59.636,5.906
	c-0.541-0.1-0.941-0.315-1.421-0.557c-0.608-0.307-1.156-0.791-1.841-0.563c-0.34,0.113-0.693,0.308-0.995,0.505
	c-0.617,0.401-1.175,0.669-1.903,0.361c-0.507-0.216-0.944-0.703-1.447-0.455c-0.483,0.238-0.674,0.853-1.095,1.174
	c-0.129,0.098-0.315,0.284-0.461,0.337C50.11,6.84,49.631,6.626,49.28,6.794c-0.388,0.187-0.287,0.577-0.424,0.9
	c-0.303,0.715-0.723,0.048-1.134-0.085c-0.885-0.287-1.164,0.627-1.841,0.988c-0.658,0.35-1.45,0.4-2.152,0.649
	c-0.583,0.207-1.137,0.49-1.629,0.882c-0.351,1.451-1.51,2.334-2.211,3.603c-0.947,1.716-2.433,2.942-3.498,4.563
	C35.984,18.915,35.699,19.629,35.28,20.23z"/>
</svg>
