<?xml version="1.0" encoding="utf-8"?>
<!-- Generator: Adobe Illustrator 26.0.3, SVG Export Plug-In . SVG Version: 6.00 Build 0)  -->
<svg version="1.1" xmlns="http://www.w3.org/2000/svg" xmlns:xlink="http://www.w3.org/1999/xlink" x="0px" y="0px"
	 viewBox="0 0 200 200" enable-background="new 0 0 200 200" xml:space="preserve">
<g id="Layer_1">
	<g id="Layer_1_00000061442898653323928190000005571608892069918396_">
		<g id="Layer_1_00000098929087308412571940000004538787532203942811_">
		</g>
	</g>
</g>
<g id="Isolation_Mode">
	<g>
		<path fill="#1E8346" d="M139.297,25.317c-0.156-0.729-0.375-1.345-0.391-2.109c-0.014-0.646,0.093-1.368-0.144-1.982
			c-0.226-0.586-0.339-1.009-0.294-1.653c0.034-0.482,0.087-0.962,0.143-1.444c0.016-0.135,0.111-0.536,0.05-0.658
			c-0.074-0.148-0.057-0.057-0.212-0.107c-0.256-0.084-0.797-0.036-1.071,0.019c-0.319,0.065-0.44,0.26-0.667,0.462
			c-0.302,0.27-0.682,0.453-1.011,0.694c-0.158,0.116-0.233,0.23-0.441,0.191c-0.939-0.177,0.034-1.392,0.518-1.505
			c0.333-0.077,0.397-0.294,0.63-0.519c0.335-0.324,0.647-0.285,1.099-0.284c0.471,0,0.42-0.125,0.589-0.524
			c0.195-0.459,0.387-0.923,0.427-1.426c0.008-0.103,0.036-0.326-0.03-0.418c-0.127-0.177-0.314-0.012-0.541,0.05
			c-0.709,0.194-1.399,0.458-2.108,0.643c-0.446,0.116-0.971,0.103-1.386,0.306c-0.288,0.141-0.473,0.401-0.699,0.617
			c-0.437,0.416-0.766,0.802-1.401,0.764c-0.42-0.025-0.677-0.072-1.045,0.153c-0.185,0.113-0.404,0.383-0.646,0.363
			c-0.47-0.039-0.282-0.718-0.258-1.015c-0.314,0.241-1.066,0.19-1.444,0.147c-0.128-0.375,0.194-0.85-0.334-1.031
			c-0.622-0.214-1.52,0.023-2.067,0.318c-0.323,0.174-0.489,0.245-0.858,0.228c-0.247-0.011-0.404-0.002-0.621,0.076
			c-0.627,0.226-1.215,0.57-1.828,0.833c-0.668,0.286-1.085,0.655-1.633,1.125c-0.509,0.437-0.88,0.952-1.343,1.431
			c-0.344,0.356-0.941,0.348-0.687-0.283c0.234-0.583,0.882-0.996,1.223-1.533c0.24-0.379,0.405-0.795,0.625-1.183
			c0.172-0.304,0.495-0.457,0.753-0.687c0.258-0.231,0.837-0.654,0.824-1.047c-0.364-0.129-0.642-0.049-0.981,0.097
			c-0.33,0.142-0.87,0.229-1.132,0.471c-0.41,0.378-1.169,0.39-1.675,0.596c-0.636,0.258-1.196,0.058-1.405-0.635
			c-0.092-0.305-0.181-0.66-0.19-0.982c-0.012-0.437,0.266-0.498,0.582-0.767c0.634-0.54,1.243-1.085,1.952-1.527
			c0.359-0.223,0.731-0.191,1.087-0.399c0.558-0.326,1.188-0.755,1.588-1.271c0.004-0.239,0.1-0.71,0.191-0.946
			c0.103-0.268,0.369-0.479,0.619-0.632c0.366-0.225,0.912-0.573,0.801-1.099c-0.095-0.448-0.467-0.896-0.749-1.23
			c-0.113-0.134-0.29-0.345-0.331-0.522c-0.455-0.373-1.134-0.53-1.692-0.335c-0.436,0.153-0.843,0.125-1.298,0.139
			c-0.318,0.01-0.501,0.161-0.791,0.264c-0.209,0.074-0.412,0.123-0.612,0.205c-0.135,0.056-0.163,0.122-0.322,0.091
			c-0.265-0.052-0.525-0.457-0.713-0.637c-0.19-0.182-0.46-0.44-0.718-0.513c-0.355-0.099-0.965,0.216-1.313,0.34
			c-0.548,0.196-0.989,0.641-1.535,0.885c-0.374,0.168-0.466,0.294-0.697-0.061c-0.097-0.149-0.161-0.446-0.293-0.548
			c-0.232-0.178-0.611,0.066-0.84-0.167c-0.213-0.217-0.185-0.285-0.478-0.422c-0.616,0.569-1.334,0.978-2.027,1.443
			c-0.273,0.183-0.503,0.392-0.758,0.589c-0.135,0.104-0.336,0.155-0.374,0.33c-0.187,0.866-0.432,1.606-0.588,2.465
			c-0.074,0.407-0.129,0.814-0.188,1.222c-0.063,0.433-0.324,0.838-0.522,1.224c-0.144,0.281-0.279,0.573-0.438,0.85
			c-0.108,0.189-0.21,0.32-0.366,0.47c-0.058,0.056-0.233,0.161-0.247,0.255c-0.041,0.261,0.491,0.596,0.605,0.884
			c0.122,0.309,0.041,0.389-0.174,0.58c-0.404,0.36-0.647,0.821-0.977,1.245c-0.935,1.201-2.054,2.196-3.06,3.297
			c0.12,0.223,0.347,0.328,0.445,0.495c0.202,0.344-0.239,0.727-0.335,1.019c-0.109,0.331-0.087,0.767-0.108,1.118
			c-0.024,0.393-0.045,0.787-0.057,1.18c-0.006,0.177,0.041,0.408-0.025,0.576c-0.077,0.197-0.273,0.307-0.405,0.463
			c-0.238,0.285-0.421,0.409-0.782,0.522c-0.126,0.04-0.222,0.043-0.34,0.13c-0.152,0.112-0.122,0.279-0.221,0.366
			c-0.172,0.149-0.393,0.004-0.561-0.029c-0.217-0.043-0.339-0.017-0.538,0.11c-0.278,0.178-0.407,0.498-0.637,0.69
			c-0.225,0.188-0.477,0.073-0.707,0.175c-0.261,0.116-0.4,0.478-0.682,0.552c-0.277,0.072-0.71-0.11-0.947,0.054
			c-0.057,0.301-0.187,0.408-0.357,0.651c-0.152,0.217-0.293,0.367-0.056,0.536c0.173,0.123,0.46,0.045,0.633,0.143
			c0.255,0.144,0.249,0.57,0.258,0.888c0.008,0.27,0.047,0.192-0.122,0.403c-0.138,0.174-0.332,0.319-0.487,0.479
			c-0.299,0.309-0.654,0.592-0.875,0.965c-0.28,0.472-0.501,1.02-0.574,1.561c-0.061,0.452-0.165,0.529-0.605,0.737
			c0.04,0.359,0.378,0.547,0.53,0.83c0.22,0.41-0.281,0.349-0.417,0.672c-0.138,0.328,0.212,0.551,0.219,0.84
			c0.007,0.301-0.247,0.275-0.362,0.534c-0.077,0.173,0.013,0.37-0.026,0.547c-0.1,0.446-0.958,0.758-1.334,0.985
			c-0.416,0.252-0.874,0.672-1.33,0.846c-0.451,0.171-0.712,0.065-0.913,0.62c-0.079,0.219-0.095,0.504-0.008,0.723
			c0.065,0.166,0.223,0.258,0.259,0.446c-0.114,0.134-0.09,0.361-0.218,0.499c-0.213,0.23-0.569,0.34-0.813,0.558
			c-0.209,0.187-0.45,0.44-0.412,0.743c0.051,0.403,0.321,0.426-0.048,0.801c-0.207,0.211-0.289,0.453-0.525,0.612
			c-0.318,0.213-0.472,0.469-0.739,0.761c-0.148,0.161-0.443,0.557-0.651,0.646c-0.312,0.133-0.859-0.168-1.138,0.053
			c-0.176,0.139-0.034,0.352-0.134,0.508c-0.116,0.182-0.337,0.145-0.516,0.196c-0.284,0.081-0.444,0.204-0.6,0.441
			c-0.153,0.234-0.279,0.533-0.578,0.607c0.234,0.227,0.481,0.815,0.383,1.151c-0.143,0.488-0.567,0.666-0.579,1.229
			c-0.319,0.017-0.748,0.02-1.061-0.077c-0.451-0.14-0.413-0.444-0.69-0.762c-0.403-0.463-1.111-0.32-1.573-0.706
			c-0.296-0.247-0.618-0.46-0.878-0.751c-0.249-0.279-0.529-0.518-0.561-0.892c-0.017-0.2,0.033-0.258-0.11-0.41
			c-0.12-0.128-0.363-0.092-0.473-0.22c-0.089-0.102-0.025-0.243-0.085-0.359c-0.045-0.087-0.161-0.141-0.217-0.225
			c-0.054-0.082-0.101-0.433-0.141-0.464c-0.127-0.098-0.549,0.008-0.658,0.027c-0.302,0.051-0.949,0.171-1.14,0.439
			c-0.206-0.069-0.537-0.336-0.773-0.28c-0.244,0.057-0.316,0.464-0.478,0.669c-0.21-0.208-0.245-0.566-0.332-0.841
			c-0.089-0.277-0.228-0.515-0.363-0.771c-0.081-0.152-0.355-0.39-0.378-0.527c-0.02-0.12,0.1-0.205,0.086-0.299
			c-0.041-0.273-0.443-0.41-0.646-0.516c-0.332-0.175-0.606-0.337-0.84-0.628c-0.187-0.233-0.328-0.439-0.598-0.524
			c-0.403-0.126-1.256-0.026-1.667,0.054c-0.037,0.212-0.238,0.682-0.422,0.789c-0.271,0.157-0.642-0.075-0.957-0.064
			c-0.23,0.008-0.511-0.005-0.665,0.139c-0.079,0.074-0.119,0.213-0.194,0.303c-0.222,0.266-0.573,0.495-0.901,0.618
			c-0.253,0.095-0.288,0.157-0.492,0.328c-0.142,0.119-0.305,0.162-0.483,0.183c-0.288,0.035-0.367-0.11-0.616-0.183
			c-0.162-0.047-0.474-0.011-0.608,0.074c-0.244,0.156-0.21,0.52-0.279,0.811c-0.089,0.374-0.14,0.564-0.445,0.806
			c-0.294,0.232-0.544,0.472-0.773,0.771l0.379,63.001l-5.465,86.451c0.131,0.233,0.198,0.574,0.373,0.768
			c0.038-0.186,0.29-0.259,0.412-0.385c0.097-0.1,0.185-0.221,0.271-0.329c0.032-0.04,0.071-0.116,0.113-0.137
			c0.083-0.043,0.292-0.001,0.382-0.001c0.122,0,0.245,0.003,0.368-0.001c-0.025-0.194,0.12-0.313,0.2-0.474
			c0.193,0.132,0.338,0.347,0.526,0.496c0.029-0.31,0.083-0.641,0.131-0.953c0.03-0.195,0.11-0.126,0.305-0.148
			c0.109-0.013,0.528-0.028,0.547-0.188c0.174,0.119,0.435,0.369,0.56,0.55c0.102,0.146,0.161,0.311,0.291,0.439
			c0.191,0.189,0.403,0.306,0.672,0.328c0.354,0.03,0.64-0.28,0.932-0.445c0.237-0.134,0.413-0.279,0.607-0.458
			c0.101,0.12,0.16,0.283,0.233,0.422c0.025,0.048,0.068,0.188,0.125,0.211c0.139,0.055,0.301-0.238,0.447-0.253
			c0.17-0.017,0.32,0.221,0.417,0.347c-0.002-0.15-0.062-0.389-0.003-0.538c0.042-0.107,0.123-0.133,0.225-0.186
			c0.18-0.094,0.369-0.161,0.558-0.233c0.149-0.057,0.303-0.175,0.456-0.211c0.115-0.027,0.155,0.009,0.244,0.075
			c0.172,0.126,0.358,0.249,0.524,0.383c0.147,0.119,0.504,0.394,0.468,0.613c0.069-0.151,0.118-0.524,0.296-0.564
			c0.224-0.051,0.403,0.311,0.547,0.423c0.202-0.094,0.347-0.532,0.488-0.717c0.099-0.131,0.321-0.496,0.505-0.483
			c0.207,0.015,0.179,0.485,0.179,0.611c0,0.195,0.007,0.295,0.086,0.465c0.165-0.254,0.496-0.613,0.745-0.784
			c0.342,0,0.917-0.012,1.19,0.246c0.152,0.144,0.099,0.398,0.133,0.581c0.031,0.166,0.046,0.347,0.085,0.509
			c0.367,0.013,0.621,0.042,0.921-0.144c0.211-0.131,0.512-0.298,0.634-0.521c0.242,0.166,0.453,0.403,0.692,0.565
			c0.285,0.193,0.724,0.055,1.051,0.116c0.324,0.061,0.426,0.424,0.767,0.503c0.564,0.132,1.167,0.04,1.723-0.152
			c0.498-0.172,0.909-0.537,1.278-0.897c0.226-0.221,0.215-0.65,0.092-0.945c-0.087-0.21-0.219-0.412-0.324-0.615
			c-0.112-0.217-0.167-0.511-0.313-0.695c-0.181-0.23-0.172-0.612-0.236-0.895c-0.091-0.402-0.217-0.804-0.276-1.214
			c-0.079-0.542-0.113-1.133,0.198-1.609c0.142-0.218,0.376-0.387,0.578-0.544c0.187-0.146,0.357-0.313,0.563-0.432
			c0.481-0.277,0.961-0.528,1.459-0.778c0.952-0.478,2.201-0.879,2.681-1.914c0.162-0.35,0.021-0.839,0.094-1.217
			c0.057-0.294,0.136-0.551,0.36-0.757c0.264-0.243,0.584-0.383,0.862-0.597c0.266-0.205,0.502-0.526,0.798-0.685
			c0.151-0.081,0.298-0.044,0.457-0.077c0.155-0.033,0.32-0.137,0.435-0.243c0.295-0.272,0.467-0.646,0.684-0.975
			c0.144-0.219,0.327-0.408,0.455-0.635c0.14-0.248,0.212-0.568,0.386-0.788c0.203-0.257,0.525-0.463,0.81-0.614
			c0.376-0.199,0.724-0.438,1.107-0.623c0.17-0.082,0.345-0.151,0.518-0.226c0.086-0.037,0.288-0.079,0.347-0.153
			c0.132-0.167-0.003-0.538-0.112-0.683c-0.035-0.414,0.17-0.35,0.352-0.628c0.064-0.098,0.053-0.206,0.083-0.315
			c0.044-0.16,0.151-0.323,0.258-0.45c0.16-0.189,0.32-0.303,0.249-0.577c-0.081-0.315-0.243-0.549-0.259-0.888
			c-0.01-0.224,0.08-0.435,0.075-0.652c-0.005-0.212-0.184-0.332-0.267-0.524c-0.106-0.244-0.185-0.547-0.177-0.815
			c0.011-0.375,0.306-0.4,0.592-0.543c0.269-0.134,0.36-0.428,0.37-0.727c0.003-0.103-0.036-0.267,0.014-0.355
			c0.065-0.116,0.261-0.15,0.369-0.213c0.101-0.06,0.207-0.182,0.335-0.178c0.089,0.002,0.224,0.084,0.31,0.116
			c0.204,0.077,0.412,0.188,0.629,0.136c0.298-0.072,0.616-0.264,0.873-0.421c0.274-0.168,0.544-0.169,0.843-0.247
			c0.356-0.093,0.62-0.468,1.005-0.493c0.145-0.01,0.174,0.031,0.299,0.093c0.154,0.076,0.358,0.07,0.488,0.176
			c0.133-0.102,0.322-0.258,0.356-0.434c0.038-0.195,0.042-0.415,0-0.609c-0.032-0.147-0.096-0.313-0.092-0.466
			c0.005-0.189,0.157-0.384,0.204-0.572c0.072-0.29,0.25-0.345,0.54-0.392c0.452-0.073,0.548,0.082,0.867,0.365
			c0.346,0.308,0.704,0.61,1.064,0.902c0.302,0.245,0.619,0.624,1.003,0.741c0.261,0.079,0.623,0.082,0.807-0.105
			c0.082-0.084,0.195-0.248,0.345-0.175c0.125,0.06,0.144,0.294,0.103,0.401c-0.058,0.147-0.222,0.231-0.244,0.402
			c-0.019,0.148,0.062,0.505,0.163,0.638c0.283-0.094,0.35-0.397,0.421-0.654c0.099-0.357,0.194-0.701,0.363-1.036
			c0.271-0.535,0.612-0.6,1.198-0.617c0.379-0.01,0.745-0.079,1.122-0.103c0.085-0.432-0.24-0.92-0.146-1.344
			c0.035-0.16,0.237-0.36,0.37-0.441c0.16-0.096,0.317-0.26,0.451-0.389c0.16-0.155,0.301-0.323,0.48-0.461
			c0.187-0.144,0.399-0.257,0.524-0.464c0.14-0.23,0.247-0.496,0.391-0.731c0.21-0.343,0.547-0.543,0.822-0.821
			c0.243-0.245,0.422-0.529,0.683-0.764c0.217-0.195,0.465-0.384,0.564-0.677c0.092-0.274-0.014-0.571,0.127-0.842
			c0.087-0.168,0.236-0.306,0.329-0.48c0.162-0.301,0.209-0.678,0.162-1.016c-0.098-0.715,0.257-1.18,0.924-1.437
			c0.06,0.244-0.021,0.809,0.212,0.974c0.108,0.077,0.45,0.021,0.57,0.005c0.237-0.031,0.371-0.114,0.566-0.238
			c0.361-0.229,0.963-0.593,0.984-1.096c-0.224-0.064-0.495,0.08-0.729,0.091c-0.18,0.008-0.361-0.006-0.541,0.003
			c-0.081-0.408,0.18-0.523,0.367-0.863c0.215-0.393,0.422-0.786,0.812-1.043c0.134-0.088,0.213-0.271,0.35-0.377
			c0.132-0.102,0.288-0.188,0.436-0.267c0.203-0.107,0.44-0.131,0.637-0.247c0.161-0.094,0.155-0.16,0.165-0.354
			c0.023-0.49,0.02-0.995,0.018-1.484c-0.002-0.414,0.056-0.823,0.056-1.237c0-0.243-0.054-0.401,0.14-0.548
			c0.147-0.112,0.278-0.207,0.469-0.12c0.067,0.031,0.429-0.258,0.478-0.379c0.055-0.137-0.047-0.292-0.086-0.41
			c-0.159-0.475,0.568-0.363,0.67-0.772c0.067-0.273,0.009-0.472,0.303-0.563c0.405-0.124,0.479-0.303,0.461-0.722
			c0.263,0.081,0.525,0.417,0.82,0.391c0.472-0.042,0.412-0.663,0.348-0.965c-0.066-0.311-0.133-0.611-0.181-0.926
			c-0.045-0.295-0.212-0.552-0.323-0.828c-0.099-0.248-0.123-0.312,0.023-0.527c0.119-0.175,0.241-0.353,0.368-0.522
			c0.13-0.171,0.189-0.419,0.24-0.628c0.05-0.205,0.018-0.441,0.018-0.652c0-0.353,0.012-0.828,0.204-1.136
			c0.148-0.237,0.511-0.339,0.752-0.472c0.568-0.313,1.129-0.847,1.559-1.33c0.18-0.203,0.419-0.307,0.454-0.593
			c0.024-0.19-0.01-0.384,0.006-0.575c0.019-0.237,0.09-0.469,0.109-0.707c0.027-0.335,0.21-0.571,0.203-0.923
			c-0.006-0.361-0.2-0.682-0.23-1.041c-0.038-0.462,0.368-0.632,0.651-0.921c0.201-0.206,0.172-0.424,0.169-0.696
			c-0.004-0.379-0.162-0.678-0.37-0.987c-0.15-0.222-0.289-0.394-0.382-0.646c-0.059-0.161-0.084-0.332-0.151-0.49
			c-0.252-0.595-0.743-1.436,0.008-1.922c0.207-0.134,0.314-0.151,0.504-0.018c0.216,0.152,0.38,0.23,0.558-0.038
			c0.132-0.199,0.202-0.386,0.259-0.608c0.024-0.093,0.014-0.298,0.055-0.381c0.071-0.144,0.193-0.101,0.371-0.101
			c0.373,0,0.517-0.178,0.673-0.531c0.069-0.156,0.139-0.496,0.3-0.582c0.106-0.056,0.07-0.036,0.222,0.014
			c0.245,0.08,0.468,0.119,0.727,0.1c0.055-0.11,0.169-0.127,0.242-0.208c0.175-0.195,0.005-0.317-0.126-0.492
			c-0.216-0.292-0.394-0.532-0.463-0.892c-0.072-0.377-0.014-0.789-0.169-1.153c-0.169-0.398-0.479-0.592-0.724-0.914
			c-0.136-0.179-0.162-0.387-0.226-0.595c-0.074-0.24-0.183-0.465-0.275-0.698c-0.172-0.432-0.379-0.796-0.661-1.163
			c-0.21-0.273-0.354-0.739,0.053-0.935c0-0.188,0.152-0.415,0.339-0.488c0.097-0.038,0.244-0.016,0.324,0.054
			c0.099,0.087,0.035,0.287,0.021,0.406c-0.011,0.091-0.039,0.214,0.087,0.18c0.215-0.059,0.181-0.411,0.17-0.576
			c-0.009-0.145-0.054-0.306-0.018-0.45c0.034-0.134,0.147-0.286,0.232-0.389c0.261-0.32,0.576-0.555,0.891-0.811
			c0.145-0.118,0.298-0.185,0.474-0.25c0.239-0.087,0.461-0.06,0.709-0.079c0.312-0.024,0.626-0.034,0.91-0.183
			c0.278-0.145,0.526-0.386,0.763-0.587c0.325-0.276,0.481-0.656,0.495-1.078c0.015-0.428-0.16-0.865-0.219-1.288
			c-0.029-0.202-0.067-0.389-0.162-0.573c-0.159-0.307-0.436-0.521-0.626-0.806c-0.215-0.323-0.383-0.729-0.462-1.105
			c-0.055-0.265,0.045-0.54,0.028-0.81c-0.021-0.32-0.137-0.677-0.22-0.988c-0.12-0.447-0.184-0.873-0.22-1.334
			c-0.026-0.342-0.019-0.643-0.202-0.945c-0.079-0.13-0.18-0.229-0.281-0.342c-0.058-0.065-0.138-0.214-0.232-0.233
			c-0.094-0.019-0.297,0.139-0.411,0.156c-0.202,0.032-0.451,0.032-0.654-0.008c-0.362-0.07-0.724-0.42-0.963-0.685
			c-0.312-0.347-0.334-0.707-0.28-1.155c0.031-0.262-0.042-0.515-0.19-0.735c-0.204-0.303-0.462-0.57-0.665-0.875
			c-0.267-0.4-0.375-0.825-0.402-1.305c-0.016-0.282,0.084-0.525,0.108-0.797c0.048-0.559-0.188-1.088-0.166-1.654
			c0.012-0.31-0.001-0.623-0.001-0.933c0-0.793-0.069-1.621-0.001-2.411c0.039-0.447,0.21-0.871,0.223-1.318
			c0.013-0.452,0-0.905,0-1.357c0-0.514,0.008-0.963,0.188-1.449c0.117-0.316,0.197-0.54,0.2-0.877
			c0.016-2.228,1.788-4.761,2.096-6.823c0.168-1.123,0.303-2.168,0.366-3.305c0.055-0.977,0.437-3.123,1.334-3.702
			c0.451-0.291,1.338-0.147,1.856-0.157c0.86-0.017,1.447-0.301,2.205-0.665c0.057-0.174,0.233-0.354,0.26-0.526
			c0.035-0.22-0.099-0.473-0.147-0.685c-0.092-0.415-0.246-0.881-0.702-1.02c-0.789-0.241-1.544,0.472-2.245-0.079
			c-0.277-0.218-0.416-0.596-0.613-0.886c-0.381-0.565-0.804-0.733-1.43-0.962c-0.484-0.176-1.043-0.28-1.494-0.518
			c-0.682-0.36-0.695-0.817-0.988-1.446c-0.15-0.323-0.068-0.636-0.082-0.988c-0.019-0.472-0.089-0.951-0.113-1.42
			c-0.024-0.476-0.027-0.952-0.026-1.431c0.001-0.306-0.131-0.725,0.082-0.959c0.404-0.443,1.149-0.337,1.475-0.913
			c0.238-0.421,0.158-0.94,0.355-1.355c0.129-0.273,0.506-0.389,0.72-0.609c0.323-0.333,0.459-0.819,0.671-1.232
			c0.215-0.419,0.42-0.85,0.633-1.261c-0.262,0.184-0.53,0.312-0.842,0.391c-0.339,0.085-1.173,0.235-1.502,0.05
			c-0.359-0.203-0.256-1.177-0.031-1.436c0.231-0.267,0.577-0.236,0.573-0.667c-0.002-0.236-0.103-0.256,0.047-0.421
			c0.093-0.102,0.28-0.106,0.368-0.268c-0.022-0.211-0.094-0.511,0-0.722c0.098-0.221,0.193-0.177,0.415-0.192
			c0.216-0.015,0.314,0.001,0.389-0.215c0.109-0.313-0.142-0.407-0.414-0.472c0.054-0.266,0.326-0.347,0.484-0.531
			c0.223-0.261,0.255-0.645,0.428-0.932c0.107-0.176,0.392-0.475,0.542-0.219c0.213,0.365-0.413,0.722-0.377,1.082
			c0.036,0.358,0.587,0.344,0.53,0.683c-0.031,0.184-0.252,0.246-0.342,0.404c-0.115,0.2-0.008,0.24-0.022,0.442
			c-0.018,0.268-0.253,0.358-0.358,0.548c-0.091,0.165-0.037,0.553,0.156,0.684c0.464,0.315,0.603-0.478,0.651-0.749
			c0.098-0.545,0.314-1.026,0.329-1.586c0.011-0.43,0.039-0.836,0.098-1.264c0.043-0.315-0.009-0.845,0.151-1.117
			c-0.295-0.617,0.099-1.422,0.159-2.053c0.077-0.814,0.165-1.656,0.31-2.465c0.17-0.948,0.335-1.841,0.598-2.775
			c0.152-0.538,0.345-1.036,0.623-1.522c0.258-0.453,0.605-0.758,0.97-1.102c-0.013-0.189,0.073-0.472,0.109-0.663
			c0.052-0.269,0.118-0.623,0.25-0.861c0.253-0.458,0.848-0.527,1.092-0.954c0.305-0.533,0.189-1.243,0.238-1.833
			c0.034-0.412,0.281-0.632,0.571-0.903c0.302-0.282,0.584-0.603,0.864-0.905c0.387-0.416,0.471-0.886,0.417-1.44
			c-0.027-0.279-0.152-0.612-0.077-0.896c0.044-0.167,0.178-0.332,0.247-0.491c0.204-0.47,0.133-0.98,0.395-1.385
			c0.311-0.481,0.561-1.003,0.81-1.523c0.303-0.633,0.508-1.151,0.574-1.864c0.07-0.759-0.048-1.677,0.188-2.402
			c0.155-0.477,0.191-1.053,0.367-1.523c0.195-0.52,0.244-1.091,0.291-1.646C139.359,26.433,139.409,25.843,139.297,25.317z
			 M99.858,59.968c0.067,0.464,0.059,0.906,0.081,1.378c0.013,0.306,0.087,0.602,0.091,0.91c0.003,0.301,0,0.601,0,0.902
			c0,0.295-0.012,0.601,0.064,0.886c0.044,0.167,0.197,0.528,0.158,0.702c-0.105,0.46-0.054,0.95-0.115,1.417
			c-0.059,0.454-0.235,0.854-0.108,1.313c0.075,0.268,0.259,0.587,0.195,0.869c-0.057,0.25-0.287,0.546-0.472,0.712
			c-0.428,0.382-1.094,0.356-1.57,0.674c-0.431,0.288-0.405,0.949-0.851,1.155c-0.183,0.084-0.948,0.303-1.071,0.137
			c0.153-0.083,0.269-0.225,0.428-0.258c0.184-0.038,0.422,0.058,0.592-0.034c0.227-0.124,0.545-0.692,0.406-0.926
			c0.115-0.213,0.503-0.323,0.72-0.424c0.245-0.116,0.486-0.253,0.71-0.406c0.166-0.113,0.463-0.298,0.566-0.472
			c0.062-0.105,0.037-0.249,0.02-0.368c-0.063-0.415-0.122-0.741-0.078-1.174c0.029-0.285,0.112-0.515,0.112-0.808
			c0-0.262-0.019-0.521-0.018-0.782c0.001-0.47,0.09-0.937,0.037-1.4c-0.047-0.409-0.075-0.845-0.074-1.26
			c0.002-1.019,0.008-2.045-0.073-3.06c-0.028-0.347-0.013-0.618,0.168-0.922c0.133-0.224,0.272-0.446,0.405-0.67
			c0.064-0.107,0.12-0.259,0.221-0.33c-0.001,0.348-0.093,0.677-0.212,1.005C100.035,59.149,99.791,59.509,99.858,59.968z
			 M106.501,17.158c0.137-0.066,0.217-0.065,0.274-0.082c0.062-0.019,0.116-0.046,0.18-0.054c0.112-0.015,0.273,0,0.359,0.08
			c0.076,0.071,0.162,0.222,0.171,0.323c0.01,0.11-0.067,0.233-0.118,0.325c-0.099,0.177-0.182,0.299-0.375,0.363
			c-0.112,0.037-0.233,0.05-0.344,0.09c-0.032,0.012-0.073,0.049-0.103,0.027c-0.034-0.026-0.029-0.16-0.032-0.196
			C106.492,17.759,106.4,17.427,106.501,17.158z M106.009,58.629c-0.016,0.061-0.055,0.122-0.125,0.122l0.298,0.298
			c0.081,0.355,0.264,0.63,0.113,0.983c-0.124,0.289-0.326,0.566-0.416,0.867c-0.038,0.127-0.029,1.036,0.22,0.646
			c0.102-0.16,0.288-0.419,0.526-0.322c0.308,0.126,0.112,0.67-0.033,0.825c-0.091,0.097-0.152,0.127-0.205,0.252
			c-0.033,0.079-0.043,0.172-0.086,0.247c-0.046,0.08-0.02,0.093-0.121,0.074c-0.106-0.021-0.281-0.258-0.358-0.344
			c-0.132-0.146-0.275-0.289-0.392-0.448c-0.154-0.21-0.066-0.39,0.035-0.597c0.115-0.233,0.189-0.476,0.315-0.705
			c0.12-0.218,0.273-0.357,0.264-0.605c-0.006-0.175-0.148-0.37-0.218-0.531c-0.109-0.253-0.291-0.482-0.382-0.741
			c-0.069-0.196-0.033-0.41,0.032-0.608c0.042-0.127,0.174-0.249,0.097-0.363c-0.14-0.208-0.227-0.402-0.139-0.647
			c0.079-0.219,0.176-0.476,0.311-0.667c0.123-0.175,0.241-0.285,0.275-0.509c0.04-0.268,0.098-0.563,0.024-0.822
			c-0.051-0.178-0.068-0.261-0.174-0.416c-0.06-0.088-0.114-0.177-0.171-0.261c-0.202-0.295-0.21-0.464-0.07-0.749
			c0.063-0.129-0.003-0.434-0.035-0.581c-0.075-0.334-0.132-0.656-0.118-1.002c0.01-0.241,0.082-0.477,0.126-0.713
			c0.043-0.231,0.068-0.445,0.165-0.663c0.224-0.502,0.509-0.986,0.668-1.515c0.119-0.396,0.212-0.808,0.384-1.185
			c0.074-0.161,0.19-0.106,0.305,0.008c0.133,0.131,0.07,0.315,0.042,0.488c-0.056,0.345-0.264,0.667-0.357,1.008
			c-0.05,0.181-0.138,0.609,0.024,0.762c-0.044,0.194-0.169,0.343-0.215,0.542c-0.043,0.183-0.059,0.375-0.089,0.561
			c-0.047,0.288-0.06,0.548,0.038,0.829c0.116,0.335,0.109,0.675,0.101,1.029c-0.008,0.352-0.027,0.705-0.014,1.058
			c0.009,0.263,0.17,0.488,0.181,0.744c0.007,0.152-0.1,0.429-0.18,0.563c-0.082,0.138-0.216,0.214-0.288,0.363
			c-0.084,0.172-0.143,0.345-0.213,0.521c-0.064,0.159-0.061,0.505-0.192,0.618c0.017,0.303-0.153,0.569-0.152,0.87
			C105.809,58.175,105.828,58.419,106.009,58.629z M111.663,66.105c-0.016,0.413-0.285,0.721-0.559,1.008
			c-0.138,0.145-0.257,0.307-0.396,0.449c-0.117,0.119-0.301,0.173-0.382,0.322c-0.289-0.235,0.122-0.681,0.267-0.881
			c0.293-0.404,0.361-0.805,0.348-1.316c-0.355-0.571-0.98-0.785-1.266-1.384c-0.093-0.194-0.206-0.37-0.304-0.565
			c-0.109-0.218-0.188-0.46-0.323-0.664c-0.087-0.131-0.208-0.252-0.317-0.358c-0.145-0.142-0.332-0.411-0.502-0.52
			c-0.222-0.141-0.253-0.044-0.409,0.166c-0.446,0.598-0.396,1.276-0.04,1.906c0.2,0.353,0.556,0.543,0.817,0.839
			c0.29,0.331,0.112,0.685,0.058,1.086c-0.086,0.631-0.186,1.25-0.283,1.878c-0.027,0.174-0.014,0.443-0.112,0.595
			c-0.065,0.101-0.174,0.134-0.246,0.231c-0.203-0.104-0.119-0.48-0.119-0.665c-0.001-0.47-0.016-0.977,0.092-1.436
			c0.068-0.289,0.212-0.486,0.061-0.765c-0.114-0.21-0.242-0.386-0.337-0.61c-0.222-0.523-0.591-1.034-0.592-1.619
			c0-0.397,0.124-0.916,0.318-1.271c0.145-0.265,0.398-0.52,0.402-0.831c0.003-0.194,0.257-0.423,0.348-0.591
			c0.116-0.216,0.288-0.473,0.299-0.714c0.019-0.407-0.092-0.907-0.201-1.294c-0.099-0.35,0.034-0.706-0.022-1.059
			c-0.058-0.36-0.296-0.664-0.368-1.014c-0.07-0.341-0.273-0.684-0.298-1.024c-0.028-0.377,0.233-0.816,0.151-1.177
			c-0.045-0.194-0.267-0.331-0.384-0.5c-0.225-0.325-0.306-0.772-0.242-1.167c0.069-0.429,0.512-0.887,0.81-1.192
			c0.351,0.417-0.224,1.142-0.24,1.561c-0.015,0.409,0.182,0.631,0.347,0.987c0.129,0.279,0.095,0.446-0.005,0.719
			c-0.098,0.269-0.138,0.587-0.008,0.852c0.132,0.268,0.394,0.427,0.42,0.729c0.033,0.392,0.008,0.722,0.137,1.102
			c0.113,0.333,0.277,0.642,0.365,0.979c0.146,0.558,0.042,1.136,0.037,1.694c-0.002,0.172,0.001,0.313-0.075,0.474
			c-0.109,0.228-0.29,0.432-0.31,0.697c-0.017,0.229,0.154,0.405,0.296,0.577c0.509,0.615,1.072,1.158,1.638,1.713
			c0.277,0.272,0.603,0.459,0.805,0.803C111.568,65.246,111.68,65.652,111.663,66.105z M112.42,39.552
			c-0.154-0.116-0.208-0.352-0.255-0.535c-0.045-0.177-0.078-0.37-0.137-0.543c-0.062-0.18-0.19-0.321-0.258-0.497
			c-0.112-0.284-0.066-0.497,0.099-0.729c0.098-0.137,0.209-0.387,0.346-0.477c0.132,0.367,0.079,0.637,0.128,0.892
			c0.038,0.199,0.223,0.332,0.191,0.533c-0.037,0.229-0.179,0.282-0.023,0.505c0.115,0.165,0.311,0.285,0.405,0.462
			C113.119,39.544,112.71,39.769,112.42,39.552z M112.947,35.56c-0.046,0.084-0.105,0.194-0.171,0.265
			c-0.048,0.052-0.377,0.294-0.452,0.266c-0.14-0.052-0.086-0.435-0.054-0.528c0.106-0.307,0.335-0.35,0.517-0.563
			C113.132,35.161,113.083,35.312,112.947,35.56z M114.212,38.762c-0.073-0.053-0.224-0.232-0.24-0.315
			c-0.023-0.118,0.045-0.144,0.09-0.252c0.057-0.138,0.038-0.294,0.096-0.43c0.091-0.211,0.303-0.357,0.402-0.569
			c0.426,0.002,0.955,0.314,0.656,0.785C114.994,38.332,114.489,38.439,114.212,38.762z M115.554,61.922
			c-0.09-0.118-0.08-0.325-0.143-0.467c-0.141-0.314-0.237-0.641-0.289-0.984c-0.027-0.179-0.056-0.398-0.012-0.578
			c0.048-0.196,0.196-0.366,0.263-0.559c0.114,0.549,0.085,0.976,0.138,1.395c0.032,0.252,0.091,0.489,0.175,0.729
			C115.784,61.738,115.861,61.785,115.554,61.922z M119.761,96.54c0.168,0.189,0.039,0.516,0.425,0.395
			c0.227-0.071,0.233-0.224,0.215-0.434c-0.022-0.261-0.257-0.428-0.178-0.721c0.065-0.237,0.529-0.657,0.765-0.671
			c0.623-0.037,0.51,0.67,0.421,1.027c-0.081,0.324-0.152,0.23,0.054,0.562c0.08,0.129,0.259,0.475,0.363,0.583
			c0.482,0.503,0.231-0.595,0.2-0.822c-0.056-0.407-0.187-2.182,0.511-2.576c0.464,0.304,0.369,0.998,0.369,1.48
			c0,0.797-0.026,1.555-0.264,2.322c-0.093,0.299-0.209,0.549-0.117,0.896c0.097,0.364,0.366,0.617,0.309,1.023
			c-0.067,0.475-0.366,0.829-0.37,1.341c-0.003,0.359,0.032,0.746-0.012,1.097c-0.319-0.061-0.712-0.5-1.028-0.659
			c-0.506-0.255-0.609-0.249-0.622-0.89c-0.007-0.354,0.101-0.902-0.07-1.221c-0.254-0.474-0.623-0.419-0.244-1.039
			c0.345,0.125,0.592,0.67,0.932,0.224c0.084-0.111,0.09-0.169,0.086-0.314c-0.011-0.445-0.606-0.523-0.958-0.615
			c-0.409-0.107-0.56-0.131-0.855-0.404c-0.183-0.17-0.341-0.404-0.624-0.242C118.708,96.62,119.448,96.188,119.761,96.54z
			 M117.664,19.773c0.058-0.121,0.101-0.254,0.172-0.366c0.098-0.155,0.245-0.282,0.359-0.425c0.077-0.097,0.195-0.178,0.262-0.278
			c0.167-0.002,0.409,0.016,0.461,0.088c0.054,0.075-0.031,0.233-0.087,0.284c-0.118,0.11-0.282,0.175-0.403,0.286
			c-0.126,0.115-0.283,0.239-0.367,0.392c-0.077,0.139-0.164,0.673-0.417,0.383C117.552,20.03,117.611,19.885,117.664,19.773z
			 M116.888,65.277c-0.048-0.058-0.119-0.166-0.186-0.203c-0.073-0.04-0.187-0.02-0.273-0.049c-0.16-0.053-0.191-0.101-0.22-0.25
			c-0.105-0.536-0.206-1.102-0.208-1.654c0.438,0.075,0.608,0.269,0.682,0.503c0.088,0.281,0.132,0.575,0.177,0.866
			C116.892,64.705,116.972,65.081,116.888,65.277z M117.666,24.029c-0.299,0.407-0.5,0.862-0.731,1.307
			c-0.066,0.128-0.17,0.248-0.204,0.388c-0.029,0.121-0.024,0.22-0.09,0.34c-0.063,0.115-0.138,0.225-0.202,0.341
			c-0.051,0.094-0.087,0.232-0.134,0.312c-0.044,0.076-0.143,0.151-0.237,0.075c-0.113-0.092,0.004-0.52,0.037-0.636
			c0.068-0.238,0.147-0.427,0.174-0.674c0.023-0.217,0.125-0.363,0.427-0.61c-0.006-0.207,0.235-0.512,0.331-0.688
			c0.051-0.094,0.108-0.226,0.177-0.31c0.093-0.114,0.222-0.129,0.349-0.193c0.259-0.131,0.478-0.364,0.618-0.613
			c0.115-0.203,0.183-0.617,0.421-0.709c0.117-0.045,0.346,0.055,0.397,0.158c0.085,0.172-0.094,0.346-0.201,0.456
			C118.433,23.353,117.98,23.602,117.666,24.029z M119.749,147.29c-0.048,0.264-0.133,0.663-0.485,0.408
			c-0.089-0.065-0.123-0.14-0.144-0.242c-0.042-0.203-0.002-0.223-0.248-0.211c-0.171,0.008-0.206,0.061-0.315-0.053
			c-0.084-0.089-0.125-0.253-0.098-0.37c0.093-0.415,0.779-0.621,1.068-0.85c0.069,0.329,0.227,0.497,0.26,0.702
			C119.818,146.869,119.784,147.098,119.749,147.29z M123.128,140.007c-0.367,0.236-0.629,0.307-0.871,0.438
			c-0.197,0.107-0.304,0.212-0.456,0.377c-0.249,0.267-0.588,0.382-0.844,0.635c-0.387,0.382-0.582,0.988-0.671,1.508
			c-0.05,0.292-0.057,0.623-0.248,0.853c-0.169,0.202-0.352,0.413-0.49,0.638c0.004-0.34-0.282-0.595-0.08-0.926
			c0.083-0.136,0.276-0.238,0.283-0.412c0.006-0.141-0.11-0.277-0.136-0.415c-0.021-0.107-0.028-0.223,0.012-0.324
			c0.061-0.153,0.154-0.134,0.267-0.22c0.23-0.177,0.205-0.531,0.447-0.709c0.122-0.09,0.268-0.127,0.38-0.236
			c0.113-0.11,0.19-0.262,0.282-0.39c0.23-0.319,0.389-0.618,0.676-0.888c0.366-0.345,0.727-0.712,1.125-1.02
			c0.212-0.164,0.243-0.215,0.37-0.001c0.053,0.089,0.07,0.147,0.083,0.245C123.276,139.31,123.274,139.953,123.128,140.007z
			 M124.041,87.311c-0.213,0.329-0.185,0.556-0.218,0.973c-0.056,0.699-0.248,1.368-0.253,2.075
			c-0.004,0.664,0.005,2.581-1.119,2.016c-0.255-0.128-0.365-0.214-0.695-0.193c-0.228,0.015-0.43,0.146-0.621,0.051
			c-0.549-0.277-0.335-1.51-0.335-1.978c0-0.802-0.265-1.767-0.083-2.541c0.089-0.376,0.366-0.618,0.613-0.904
			c0.318-0.369,0.348-0.456,0.761-0.202c0.463,0.284,0.611,0.348,0.89-0.149c0.153-0.273,0.244-0.537,0.477-0.775
			C124.119,86.507,124.495,86.61,124.041,87.311z M126.661,65.969c-0.055,0.147-0.219,0.084-0.366,0.088
			c-0.353,0.008-0.303,0.169-0.31,0.472c-0.166-0.043-0.34-0.076-0.507-0.113c-0.08-0.017-0.177-0.002-0.236-0.056
			c-0.117-0.106-0.104-0.33-0.1-0.471c0.146-0.052,0.488,0.002,0.583-0.128c0.057-0.078-0.002-0.269,0.011-0.359
			c0.026-0.189,0.222-0.25,0.375-0.327C126.434,65.359,126.775,65.661,126.661,65.969z M126.549,17.618
			c-0.139,0.328-0.404,0.486-0.743,0.486c-0.11,0-0.433,0.061-0.518-0.017c-0.124-0.114,0.049-0.304,0.11-0.4
			c0.203-0.323,0.345-0.601,0.667-0.82C126.376,17.207,126.687,17.295,126.549,17.618z M127.715,16.671
			c-0.113,0.12-0.22,0.23-0.366,0.088c-0.133-0.129-0.279-0.322-0.138-0.473c0.138-0.148,0.287-0.286,0.505-0.305
			c0.227,0.084,0.391,0.148,0.388,0.319C128.101,16.485,127.832,16.546,127.715,16.671z M130.366,51.151
			c-0.149,0.157-0.129,0.239-0.129,0.453c0,0.045,0.029,0.487-0.125,0.434c-0.074-0.025-0.038-0.19-0.041-0.251
			c-0.008-0.154-0.038-0.317-0.137-0.442c-0.118,0.032-0.228,0-0.332,0.072c-0.091,0.062-0.184,0.16-0.267,0.234
			c-0.099-0.215-0.107-0.407-0.095-0.646c0.01-0.204,0.196-0.207,0.231-0.374c0.033-0.16-0.232-0.313-0.246-0.468
			c-0.007-0.07,0.077-0.242,0.112-0.297c0.084-0.131,0.252-0.165,0.348-0.29c0.098-0.127,0.04-0.291,0.04-0.439
			c0-0.249,0.23-0.525,0.499-0.516c0.232,0.093,0.26,0.143,0.276,0.249c0.039,0.256,0.001,0.539,0.012,0.799
			c0.014,0.34,0.019,0.68,0.031,1.02C130.55,50.921,130.52,50.988,130.366,51.151z M131.119,47.918
			c-0.266-0.233-0.113-1.061,0.156-1.249C131.958,47.036,131.507,47.679,131.119,47.918z M132.529,45.953
			c-0.085,0.088-0.626,0.068-0.702,0.01c0.05-0.141,0.184-0.252,0.295-0.345c0.14-0.118,0.31-0.339,0.497-0.376
			C132.522,45.543,132.631,45.848,132.529,45.953z M132.634,22.766c-0.241,0.226-0.175,0.24-0.075,0.518
			c0.093,0.259,0.16,0.396-0.01,0.639c-0.248,0.352-0.683,0.627-1.003,0.915c-0.212,0.191-0.509,0.271-0.616,0.52
			c-0.21,0.487-0.101,1.135-0.214,1.649c-0.076,0.343-0.13,0.427-0.455,0.358c-0.365-0.077-0.495-0.155-0.717-0.39
			c-0.174-0.184-0.333-0.295-0.612-0.192c-0.079,0.029-0.096,0.193-0.183,0.164c-0.129-0.043-0.121-0.224-0.093-0.337
			c0.126-0.515,1.048-0.618,1.372-1.028c0.196-0.248,0.296-0.729,0.542-0.923c0.123-0.098,0.304-0.066,0.414-0.48
			c-0.203-0.265-0.526-0.624-0.294-0.993c0.122-0.194,0.397-0.226,0.578-0.385c0.22-0.194,0.326-0.451,0.471-0.702
			c0.171-0.296,0.41-0.288,0.576-0.495c0.075-0.094,0.027-0.236,0.108-0.334c0.112-0.134,0.276-0.122,0.432-0.155
			c0.359-0.077,0.324-0.239,0.43-0.584c0.079-0.26,0.064-0.387,0.36-0.348c0.103,0.013,0.161,0.094,0.298,0.091
			c0.087-0.002,0.188-0.08,0.271-0.071c0.347,0.038,0.189,0.384-0.011,0.569c-0.125,0.115-0.442,0.24-0.511,0.401
			c-0.1,0.233,0.265,0.471,0.202,0.782c-0.093,0.464-0.456,0.368-0.796,0.503C132.934,22.525,132.763,22.645,132.634,22.766z
			 M134.161,42.48c-0.209-0.01-0.644,0.094-0.794-0.068c-0.149-0.16,0.042-0.491,0.193-0.581
			C133.811,42.098,133.97,42.348,134.161,42.48z M134.086,43.646c-0.181,0.18-0.422,0.51-0.691,0.368
			c-0.224-0.119-0.265-0.404-0.24-0.645c0.027-0.271,0.302-0.418,0.573-0.392c0.262,0.156,0.465,0.135,0.513,0.314
			C134.278,43.43,134.171,43.562,134.086,43.646z M134.406,40.461c0.02-0.279,0.004-0.565,0.004-0.846
			c0.171,0.083,0.499,0.15,0.634,0.335C134.923,40.181,134.57,40.25,134.406,40.461z M136.381,20.021
			c-0.252,0.194-0.613,0.493-0.955,0.485c-0.09-0.002-0.123-0.075-0.196-0.039c-0.171,0.085,0.008,0.25,0.069,0.32
			c0.215,0.243,0.095,0.287-0.017,0.575c-0.113,0.293-0.162,0.626-0.357,0.885c-0.126,0.168-0.262,0.327-0.46,0.399
			c-0.136,0.05-0.442,0.2-0.572,0.081c-0.164-0.149,0.171-0.472,0.235-0.625c0.071-0.17,0.103-0.37,0.221-0.518
			c0.088-0.111,0.216-0.106,0.315-0.188c0.261-0.216-0.043-0.33-0.094-0.524c-0.044-0.168-0.019-0.399,0.145-0.469
			c0.196-0.085,0.36-0.143,0.53-0.288c0.071-0.061,0.132-0.144,0.21-0.197c0.057-0.039,0.139-0.051,0.295-0.183
			c-0.017-0.096,0.061-0.261,0.117-0.335c0.102-0.133,0.315-0.117,0.469-0.123c0.256-0.009,0.566-0.079,0.662,0.2
			C137.11,19.807,136.6,19.852,136.381,20.021z M137.73,22.237c-0.199-0.147-0.167-0.266-0.418-0.292
			c-0.223-0.023-0.459,0.004-0.683-0.001c-0.046-0.206-0.04-0.413-0.114-0.719c0.252-0.126,0.529-0.295,0.814-0.364
			c0.168-0.041,0.413-0.084,0.567,0.014c0.158,0.101,0.114,0.212,0.114,0.403C138.01,21.479,138.101,22.512,137.73,22.237z"/>
	</g>
</g>
</svg>
