<?xml version="1.0" encoding="utf-8"?>
<!-- Generator: Adobe Illustrator 26.0.3, SVG Export Plug-In . SVG Version: 6.00 Build 0)  -->
<svg version="1.1" id="Isolation_Mode" xmlns="http://www.w3.org/2000/svg" xmlns:xlink="http://www.w3.org/1999/xlink" x="0px"
	 y="0px" viewBox="0 0 200 200" enable-background="new 0 0 200 200" xml:space="preserve">
<g>
	<path fill="#1E8346" d="M51.636,189.981c0.21,0.425,0.488,0.588,0.915,0.45c0.305-0.099,0.296-0.198,0.609,0.017
		c0.491,0.336,0.836,1.293,1.537,0.854c-0.375-0.474-0.316-0.658-0.215-1.178c0.078-0.404,0.149-0.754,0.287-1.127
		c0.113-0.306,0.295-0.61-0.067-0.795c-0.491-0.251-1.267,0.246-1.83,0.034c-0.03-0.312-0.49-0.465-0.584-0.79
		c-0.126-0.442,0.079-1.155,0.299-1.521c0.172,0.315,0.303,0.913,0.699,1.075c0.356,0.146,0.896-0.041,1.29,0.072
		c0.404,0.118,0.48,0.28,0.596,0.689c0.124,0.436,0.407,0.623,0.583,1.012c0.15,0.332,0.128,0.559,0.407,0.842
		c0.177,0.179,0.548,0.321,0.662,0.502c0.115,0.182,0.083,0.56,0.193,0.781c0.132,0.268,0.239,0.403,0.256,0.711
		c0.018,0.313-0.276,1.307,0.098,1.476c0.325,0.147,0.844-0.508,1.018-0.693c0.289-0.307,0.354-0.468,0.473-0.875
		c0.114-0.391,0.365-0.707,0.409-1.116c0.032-0.293,0.065-0.702-0.199-0.898c-0.308-0.228-0.734-0.147-1.053-0.432
		c-0.481-0.431-0.77-0.927-1.106-1.46c-0.272-0.431-0.37-0.755-0.152-1.227c0.161-0.348,0.443-0.735,0.867-0.698
		c0.044,0.54-0.101,1.171,0.04,1.703c0.172,0.653,1.013,0.846,1.602,0.846c0.429,0,0.875-0.082,1.198,0.251
		c0.199,0.206,0.197,0.645,0.504,0.668c0.474,0.035,0.728-0.589,0.737-0.954c0.015-0.608-0.012-0.981-0.655-1.181
		c-0.675-0.21-1.444,0.083-2.103-0.091c-0.426-0.113-1.006-0.999-0.552-1.393c0.256-0.223,0.541,0.04,0.784,0.093
		c0.288,0.063,0.656,0.027,0.947-0.019c0.304-0.048,0.456-0.121,0.764-0.048c0.383,0.091,0.532,0.353,0.852,0.525
		c0.676,0.362,1.158-0.066,1.681-0.468c0.272,0.251,0.403,0.395,0.778,0.438c0.34,0.039,0.705-0.08,1.04-0.018
		c0.61,0.112,1.006,0.892,1.673,0.815c-0.014-0.226,0.019-0.441-0.062-0.657c-0.097-0.258-0.303-0.429-0.376-0.712
		c-0.128-0.489,0.108-0.405,0.494-0.603c0.444-0.228,0.661-0.359,0.701-0.859c0.031-0.39,0.21-0.702,0.585-0.324
		c0.322,0.323,0.326,0.907,0.306,1.32c-0.019,0.392-0.089,0.598,0.326,0.67c0.422,0.074,0.544-0.082,0.797-0.325
		c0.206-0.199,0.402-0.187,0.59-0.352c0.575-0.503-0.476-1.484,0.348-1.726c0.437-0.128,0.863,0.19,1.193,0.428
		c0.177,0.127,0.419,0.419,0.633,0.471c0.343,0.083,0.187-0.019,0.423-0.201c0.258-0.199,0.372-0.153,0.501-0.467
		c0.113-0.273,0.117-0.618,0.076-0.91c-0.043-0.309-0.121-0.643,0.3-0.779c0.482-0.156,0.548,0.457,0.919,0.592
		c0.28,0.102,0.588-0.246,0.929-0.289c0.296-0.038,0.761,0.129,1.016,0.008c0.637-0.305-0.178-0.909-0.035-1.372
		c0.699,0.074,1.326-0.002,1.891-0.398c0.56-0.393,1.309-0.843,0.696-1.596c-0.288-0.355-0.754-0.356-1.062-0.679
		c0.085-0.037,0.416-0.23,0.443-0.296c0.109-0.262-0.283-0.432,0.001-0.704c0.422,0.149,0.595,0.644,1.075,0.707
		c0.24,0.031,0.83,0.054,0.947-0.101c0.098-0.13-0.021-0.349,0.134-0.499c0.134-0.13,0.14-0.041,0.293-0.097
		c0.353-0.13,0.607-0.092,0.828-0.431c0.183-0.279,0.363-0.58,0.73-0.669c0.065-0.173-0.05-0.453-0.062-0.63
		c-0.025-0.375,0.06-0.597,0.237-0.924c-0.133-0.29,0.48-0.383,0.621-0.613c-0.109-0.242-0.161-0.571-0.365-0.748
		c-0.186-0.161-0.459-0.109-0.589-0.382c0.443-0.034,0.712-0.28,1.069-0.494c0.225-0.135,0.58-0.106,0.739-0.282
		c-0.234-0.301-0.018-1.281,0.235-1.538c0.231,0.145,0.593,0.67,0.887,0.56c0.272-0.102,0.231-1.101,0.386-1.39
		c0.375,0.116,0.808,0.201,0.71-0.418c-0.054-0.342-0.396-0.694-0.523-1.024c-0.143-0.375-0.165-0.816-0.114-1.227
		c0.038-0.309,0.149-0.603,0.181-0.917c0.031-0.3,0.043-0.714,0.29-0.939c0.672-0.611,1.577,0.481,2.267,0.065
		c0.114-0.07,0.388-0.489,0.409-0.637c0.031-0.224,0.009-0.15-0.099-0.344c-0.074-0.133-0.194-0.22-0.257-0.375
		c-0.09-0.22-0.058-0.474-0.181-0.689c-0.152-0.264-0.517-0.429-0.614-0.726c-0.047-0.145,0.041-0.338,0.001-0.49
		c-0.074-0.276-0.348-0.612-0.509-0.828c0.158-0.195,0.588-0.502,0.55-0.786c-0.022-0.166-0.214-0.191-0.333-0.313
		c-0.159-0.163-0.287-0.449-0.348-0.664c-0.056-0.196-0.033-0.425-0.114-0.602c-0.067-0.147-0.248-0.285-0.329-0.443
		c-0.146-0.284-0.305-0.661-0.264-0.987c0.08-0.643,1.15-1.293,0.746-2.021c-0.094-0.169-0.261-0.181-0.398-0.297
		c-0.202-0.172-0.275-0.413-0.453-0.611c-0.235-0.261-0.572-0.397-0.66-0.779c-0.135-0.588,0.449-1.246,0.951-1.431
		c0.173-0.231,0.297-0.479,0.44-0.725c0.28-0.481,0.214-0.779,0.279-1.306c0.101-0.825,0.875-1.996,1.754-2.045
		c0.383-0.022,0.923-0.053,1.292,0.059c0.384,0.116,0.59,0.326,1.035,0.221c0.433-0.102,0.811-0.402,1.276-0.35
		c0.36,0.041,0.743,0.193,1.103,0.265c0.324,0.065,0.845,0.183,1.023-0.171c0.141-0.28-0.094-0.856-0.287-1.051
		c-0.353-0.355-0.94-0.16-1.314-0.487c-0.244-0.214-0.335-0.645-0.479-0.919c-0.186-0.355-0.353-0.708-0.519-1.064
		c-0.162-0.346-0.455-0.414-0.474-0.81c-0.026-0.513,0.218-1.06,0.329-1.553c0.238-1.048-0.298-2.141,0.181-3.139
		c0.171-0.356,0.126-0.538,0.178-0.916c0.058-0.422,0.312-0.656,0.522-1.002c0.306-0.503,0.403-1.514,0.469-2.09
		c0.052-0.454,0.226-0.862,0.248-1.331c0.006-0.133-0.039-0.318-0.003-0.443c0.087-0.299,0.342-0.271,0.537-0.513
		c0.239-0.297,0.017-0.67-0.025-1.03c-0.067-0.57-0.002-1.309,0.219-1.821c0.157-0.363-0.182-1.245-0.277-1.661
		c-0.151-0.662-0.431-1.262-0.452-1.955c-0.005-0.178-0.021-0.398,0.038-0.57c0.144-0.426,0.714-0.613,0.799-1.051
		c0.112-0.575-0.435-0.663-0.761-0.943c-0.407-0.35-0.063-0.831-0.108-1.35c-0.029-0.333-0.235-0.515-0.301-0.831
		c-0.04-0.193,0.03-0.424,0.01-0.621c-0.051-0.496-0.311-0.897-0.722-1.175c-0.579-0.393-1.002-0.958-1.131-1.658
		c-0.183-0.996,0.865-2.066,1.262-2.934c0.205-0.447,0.781-1.279,0.445-1.76c-0.149-0.214-0.515-0.232-0.677-0.406
		c-0.197-0.211-0.052-0.319-0.378-0.476c-0.436-0.21-0.741-0.352-1.116-0.678c-0.46-0.401-0.868-0.985-1.464-1.059
		c-0.538-0.067-1.175-0.04-1.692,0.115c-0.614,0.184-1.179,0.228-1.661,0.657c-0.382,0.34-0.77,0.343-1.271,0.483
		c-0.499,0.14-0.911,0.6-1.437,0.595c-0.347-0.003-0.775-0.073-1.123-0.124c-0.386-0.057-0.757-0.145-1.162-0.094
		c-0.42,0.053-0.637,0.147-1.002-0.084c-0.569-0.36-1.266-0.937-1.72-1.431c-0.129-0.14-0.211-0.346-0.382-0.438
		c-0.246-0.134-0.557-0.066-0.816-0.189c-0.398-0.189-0.451-0.569-0.778-0.77c-0.372-0.228-1.079,0.116-1.483,0.18
		c-0.392,0.062-1.157,0.011-1.474,0.267c-0.197,0.159-0.165,0.472-0.414,0.58c-0.256,0.111-0.604,0.067-0.894,0.202
		c-0.384,0.177-0.855,0.368-1.143,0.668c-0.21,0.219-0.318,0.44-0.611,0.577c-0.206,0.097-0.369,0.048-0.545,0.23
		c-0.22,0.229-0.217,0.528-0.329,0.796c-0.303,0.723-1.45,1.082-2.072,1.489c-0.234,0.153-0.517,0.061-0.793,0.142
		c-0.324,0.094-0.713,0.378-1.002,0.547c-0.338,0.198-0.813,0.464-1.096,0.735c-0.248,0.237-0.349,0.595-0.527,0.885
		c-0.491,0.801-0.866,0.984-1.744,1.287c-0.924,0.318-0.8,0.781-0.956,1.542c-0.123,0.605-0.718,1.028-1.084,1.479
		c-0.397,0.488-0.746,0.947-1.264,1.312c-0.945,0.668-2.103,1.174-3.172,1.614c-0.711,0.293-0.96,0.61-1.28,1.287
		c-0.244,0.517-0.587,0.638-1.108,0.778c-0.555,0.149-1.059,0.449-1.067,1.085c-0.006,0.466,0.224,0.883,0.246,1.365
		c0.02,0.423,0.042,0.824-0.158,1.201c-0.207,0.389-0.443,0.353-0.743,0.594c-0.616,0.495-0.16,1.365-0.764,1.895
		c-0.313,0.274-0.763,0.151-1.035,0.479c-0.313,0.376-0.178,0.901-0.199,1.349c-0.021,0.427-0.123,0.887-0.22,1.3
		c-0.164,0.695-0.799,1.094-0.799,1.818c0,0.983-0.201,1.381-0.878,2.089c-0.569,0.595-1.652,0.745-2.133,1.429
		c-0.466,0.662,0.562,1.68-0.044,2.267c-0.153,0.148-0.406,0.145-0.581,0.26c-0.309,0.202-0.335,0.492-0.329,0.849
		c0.008,0.459,0.105,0.683-0.24,1.048c-0.347,0.367-1.027,1.047-0.633,1.586c-0.208,0.239-0.173,0.765-0.2,1.079
		c-0.041,0.469-0.263,0.79-0.309,1.233c-0.035,0.348-0.021,0.707,0.124,1.017c0.141,0.302,0.356,0.542,0.449,0.86
		c0.062,0.21,0.041,0.429,0.15,0.627c0.179,0.325,0.656,0.409,0.694,0.821c0.055,0.615-0.557,0.497-0.913,0.655
		c-0.66,0.292-1.171,1.211-1.439,1.846c-0.165,0.39-0.171,0.875-0.056,1.297c0.084,0.308,0.242,0.704,0.369,0.994
		c0.119,0.271,0.168,0.448,0.406,0.591c-0.597,0.346-1.081,0.753-1.32,1.399c-0.227,0.614-0.444,0.724-1.011,1.018
		c-0.474,0.246-0.688,0.416-0.648,0.959c0.041,0.564-0.279,0.915,0.123,1.476c0.451,0.629,0.931,1.348,1.577,1.799
		c0.785,0.549,0.734,1.127,0.496,2.008c-0.148,0.551-0.343,1.126-0.616,1.626c-0.277,0.508-0.557,0.912-0.276,1.479
		c0.279,0.562,0.787,0.861,0.541,1.543c-0.303,0.841-0.839,1.437,0.042,2.078c-0.232,0.491-0.807,0.896-0.347,1.393
		c0.57,0.616,1.03-0.195,1.568-0.499c0.087,0.406,0.424,0.777,0.75,1.012c0.155,0.111,0.615,0.233,0.711,0.364
		c0.2,0.273-0.195,0.846-0.46,0.885c-0.409,0.06-0.659-0.377-1.113-0.095c-0.503,0.314-0.788,1.247-1.04,1.752
		c-0.171,0.343-0.48,0.849-0.317,1.227c0.094,0.218,0.382,0.346,0.479,0.575c0.215,0.503-0.011,1.37-0.413,1.678
		c-0.246,0.189-0.473,0.3-0.684,0.545c-0.152,0.176-0.261,0.395-0.467,0.523c-0.238,0.149-0.231,0.098-0.541,0.14
		c-0.493,0.066-0.839,0.39-1.294,0.55c-0.322,0.114-0.641,0.216-0.987,0.2c-0.373-0.017-0.737-0.16-1.116-0.102
		c-0.383,0.059-0.321,0.128-0.493,0.474c-0.167,0.335-0.446,0.834-0.726,1.087c-0.241,0.218-0.602,0.34-0.853,0.58
		c-0.281,0.268-0.513,0.59-0.841,0.805c-0.666,0.438-1.254,0.975-2.005,1.328c-0.563,0.265-1.227,0.255-1.789,0.528
		c-0.251,0.122-0.378,0.28-0.551,0.513c-0.292,0.393-0.226,0.292-0.758,0.248c-0.777-0.065-1.307,0.118-1.843,0.621
		c-0.332,0.311-0.87,0.638-0.373,1.039c0.285,0.23,0.69,0.268,1.04,0.324c0.693,0.111,1.627-0.319,2.211,0.037
		c0.482,0.295,1.062,0.792,1.667,0.746c0.417-0.031,0.359-0.259,0.59-0.59c0.277-0.398,0.747-0.946,1.232-1.066
		c0.333-0.082,0.918,0.004,1.126,0.274c0.164,0.215,0.038,0.771,0.438,0.715c0.141,0.207-0.033,0.51,0.127,0.703
		c0.107,0.129,0.517,0.258,0.691,0.294c0.582,0.118,0.796-0.242,1.284-0.405c0.509-0.169,0.106-0.117,0.412,0.277
		c0.259,0.333,1.382,0.275,1.559-0.098c0.243-0.512,0.161-1.441,0.143-1.998c0.341,0.203,0.181,0.893,0.058,1.197
		c0.317,0.326,0.922,0.139,1.256,0.369c0.219,0.15,0.121-0.024,0.175,0.312c0.093,0.577-0.388,0.826-0.435,1.323
		c-0.023,0.249,0.147,0.485,0.148,0.744c0,0.268-0.103,0.481-0.22,0.711c-0.21,0.412-0.412,0.888-0.186,1.353
		c0.245,0.008,0.451-0.244,0.59-0.424c0.257,0.322,0.641,0.308,0.885,0.017c0.332-0.396,0.21-0.606,0.719-0.776
		c0.948-0.316,0.718-1.226,0.718-2.086c0-0.376-0.041-0.725,0.099-1.047c0.055-0.126,0.155-0.171,0.201-0.342
		c0.055-0.203,0.026-0.431,0.027-0.639c0.003-0.442-0.058-1.065,0.506-0.888c0.29,0.091,0.546,0.566,0.84,0.499
		c0.212,0.489-0.025,1.006-0.038,1.503c-0.009,0.343,0.075,0.706,0.191,1.016c1.182,0.016,0.849-0.737,1.231-1.587
		c0.267-0.593,0.892-0.996,1.416-1.326c0.473-0.298,0.635-0.756,0.619-1.316c-0.013-0.472-0.155-0.411-0.288-0.73
		c-0.102-0.246-0.145-0.711,0.074-0.879c0.237,0.054,0.296,0.424,0.279,0.634c0.315,0.201,0.804,0.108,1.162,0.109
		c0.398,0.001,0.448,0.066,0.566,0.47c0.084,0.285,0.334,1.136,0.779,0.515C50.894,188.757,51.398,189.503,51.636,189.981z"/>
	<path fill="#1E8346" d="M31.35,195.673c0.041,0.062,0.092,0.129,0.165,0.143c0.031,0.006,0.035-0.004,0.061,0.014
		c0.075,0.053,0.025,0.137,0.011,0.207c-0.014,0.069-0.071,0.11-0.139,0.138c-0.081,0.034-0.103,0.026-0.175-0.026
		c-0.081-0.059-0.229-0.113-0.191-0.236c0.023-0.073,0.089-0.125,0.138-0.179C31.244,195.709,31.268,195.673,31.35,195.673z"/>
	<path fill="#1E8346" d="M52.583,191.434c0.068,0.087,0.143,0.189,0.137,0.306c-0.008,0.15-0.113,0.29-0.11,0.441
		c0.005,0.274,0.078,0.547,0.108,0.82c0.019,0.174,0.04,0.333,0.021,0.507c-0.011,0.102,0.003,0.212,0.094,0.279
		c0.049,0.036,0.118,0.031,0.168,0.067s0.096,0.106,0.124,0.162c0.035,0.072,0.058,0.122,0.006,0.177
		c-0.069,0.072-0.204,0.127-0.299,0.152c-0.112,0.03-0.259,0.033-0.363-0.018c-0.057-0.028-0.122-0.06-0.169-0.101
		c-0.049-0.041-0.075-0.1-0.126-0.138c-0.109-0.084-0.216-0.163-0.313-0.267c-0.106-0.114-0.244-0.228-0.328-0.36
		c-0.129-0.201,0.025-0.532,0.097-0.731c0.064-0.177,0.141-0.414,0.09-0.601c-0.02-0.071-0.078-0.141-0.071-0.217
		c0.008-0.089,0.097-0.159,0.153-0.22c0.101-0.111,0.186-0.232,0.339-0.265C52.281,191.395,52.424,191.447,52.583,191.434z"/>
	<path fill="#1E8346" d="M48.26,190.084c0.069,0.062,0.078,0.09,0.108,0.178c0.029,0.085,0.078,0.175,0.089,0.264
		c0.012,0.094,0.002,0.196,0.006,0.29c0.005,0.104,0.023,0.207,0.029,0.31c0.006,0.083-0.003,0.161,0.015,0.243
		c0.028,0.126,0.024,0.23-0.016,0.35c-0.024,0.072-0.031,0.15-0.034,0.226c-0.004,0.095,0.027,0.196-0.012,0.286
		c-0.056,0.132-0.222,0.252-0.363,0.171c-0.097-0.056-0.105-0.166-0.183-0.236c-0.1-0.09-0.253-0.063-0.377-0.064
		c-0.19-0.002-0.473-0.122-0.532-0.324c-0.034-0.118,0.081-0.201,0.166-0.275c0.115-0.101,0.217-0.215,0.325-0.323
		c0.084-0.084,0.263-0.212,0.268-0.347c0.004-0.098-0.142-0.147-0.177-0.236c-0.082-0.209,0.148-0.468,0.331-0.526
		c0.083-0.027,0.163-0.01,0.246-0.017C48.192,190.051,48.23,190.033,48.26,190.084z"/>
	<path fill="#1E8346" d="M96.656,110.455c0.162,0.064,0.368,0.296,0.492,0.424c0.129,0.134,0.271,0.251,0.406,0.377
		c0.084,0.079,0.219,0.199,0.181,0.333c-0.039,0.136-0.317,0.239-0.439,0.269c-0.237,0.058-0.52,0.038-0.751-0.039
		c-0.177-0.059-0.212-0.174-0.268-0.34C96.206,111.271,96.183,110.577,96.656,110.455z"/>
	<path fill="#1E8346" d="M93.254,110.748c0.091,0.095,0.162,0.241,0.138,0.374c-0.024,0.131-0.188,0.333-0.344,0.272
		C92.82,111.306,93.086,110.841,93.254,110.748z"/>
	<path fill="#1E8346" d="M99.998,113.246c0.048,0.08,0.086,0.162,0.151,0.229c0.035,0.037,0.075,0.07,0.11,0.107
		c0.043,0.046,0.086,0.093,0.126,0.141c0.075,0.089,0.101,0.194,0.122,0.305c0.028,0.141,0.077,0.337-0.05,0.446
		c-0.108,0.093-0.212,0.124-0.344,0.035c-0.058-0.039-0.085-0.094-0.118-0.153c-0.073-0.131-0.193-0.149-0.319-0.205
		c-0.114-0.051-0.258-0.134-0.282-0.272c-0.023-0.138,0.065-0.244,0.141-0.35c0.075-0.103,0.135-0.2,0.254-0.257
		c0.041-0.02,0.08-0.013,0.123-0.024C99.934,113.243,99.949,113.234,99.998,113.246z"/>
	<path fill="#1E8346" d="M101.489,90.147c0.149-0.095,0.266-0.232,0.402-0.343c0.148-0.121,0.374-0.087,0.557-0.109
		c0.208-0.026,0.565-0.079,0.755,0.041c0.137,0.087,0.163,0.27,0.188,0.42c0.025,0.148-0.047,0.282-0.102,0.42
		c-0.046,0.117-0.049,0.207-0.063,0.327c-0.036,0.291-0.487,0.305-0.708,0.345c-0.092,0.017-0.228,0.045-0.311,0.089
		c-0.091,0.049-0.259,0.226-0.301,0.321c-0.057,0.125-0.056,0.256-0.131,0.379c-0.101,0.166-0.14,0.347-0.311,0.461
		c-0.09,0.06-0.301,0.171-0.413,0.129c-0.189-0.069-0.238-0.329-0.472-0.336c-0.07-0.002-0.153,0.041-0.218,0.031
		c-0.07-0.011-0.115-0.089-0.165-0.138c-0.155-0.151-0.058-0.306-0.127-0.478c-0.043-0.107-0.17-0.169-0.255-0.237
		c-0.124-0.099-0.11-0.146-0.07-0.276c0.026-0.086,0.011-0.156,0.009-0.242c-0.002-0.166,0.086-0.275,0.238-0.345
		c0.122-0.056,0.211-0.026,0.34-0.022c0.121,0.003,0.241-0.012,0.362-0.01C101.065,90.58,101.268,90.302,101.489,90.147z"/>
	<path fill="#1E8346" d="M100.475,80.382c-0.02,0.252-0.126,0.618,0.106,0.817c0.135,0.116,0.304,0.051,0.465,0.041
		c0.137-0.008,0.281,0.024,0.395,0.106c0.118,0.085,0.173,0.196,0.344,0.168c0.192-0.031,0.25-0.254,0.435-0.305
		c0.089-0.025,0.269-0.03,0.361-0.007c0.323,0.083,0.452,0.418,0.229,0.663c-0.279,0.307-0.585,0.624-0.934,0.844
		c-0.345,0.218-0.399,0.521-0.29,0.895c0.124,0.422,0.453,0.725,0.362,1.194c-0.042,0.218-0.148,0.418-0.195,0.637
		c-0.059,0.267,0.037,0.47,0.046,0.735c0.009,0.264-0.207,0.413-0.298,0.647c-0.062,0.157-0.064,0.33-0.121,0.483
		c-0.055,0.146-0.205,0.197-0.3,0.313c-0.141,0.172-0.225,0.385-0.37,0.563c-0.115,0.141-0.114,0.228-0.113,0.407
		c0.002,0.259,0.042,0.428-0.172,0.599c-0.228-0.1-0.515-0.164-0.699-0.329c-0.328-0.293-0.686-0.627-0.946-0.98
		c-0.09-0.122-0.204-0.306-0.351-0.364c-0.247-0.096-0.463,0.127-0.658-0.128c-0.074-0.097-0.103-0.199-0.211-0.263
		c-0.113-0.067-0.313-0.132-0.44-0.08c-0.114-0.175-0.101-0.344-0.127-0.539c-0.035-0.259-0.001-0.269,0.167-0.466
		c0.111-0.131,0.191-0.278,0.261-0.431c0.106-0.231,0.249-0.379,0.415-0.567c0.357-0.404,0.759-0.772,1.146-1.149
		c0.182-0.178,0.357-0.296,0.488-0.52c0.087-0.148,0.123-0.313,0.193-0.469c0.157-0.352,0.438-0.757,0.237-1.152
		c-0.183-0.36-0.551-0.626-0.725-0.986c-0.186-0.387,0.209-0.566,0.541-0.555C99.869,80.209,100.442,80.128,100.475,80.382z"/>
	<path fill="#1E8346" d="M110.315,80.354c0,0.251-0.064,0.471-0.003,0.72c0.048,0.195,0.093,0.407,0.06,0.611
		c0.057,0.013,0.147-0.005,0.207-0.001c0.052,0.004,0.101,0.007,0.153,0.007c0.142,0,0.283-0.002,0.424,0.018
		c0.18,0.026,0.313,0.003,0.488-0.01c0.124-0.009,0.282,0.024,0.391-0.039c0.112-0.066,0.198-0.195,0.124-0.318
		c-0.07-0.118-0.235-0.167-0.303-0.28c-0.061-0.101-0.022-0.241-0.056-0.349c-0.019-0.064-0.06-0.123-0.1-0.177
		c-0.082-0.109-0.149-0.148-0.284-0.179c-0.182-0.042-0.307-0.064-0.489-0.07c-0.083-0.003-0.175-0.03-0.257-0.015
		c-0.061,0.011-0.116,0.046-0.174,0.061C110.455,80.343,110.38,80.321,110.315,80.354z"/>
	<path fill="#1E8346" d="M113.827,80.225c0.168,0.021,0.283,0.071,0.432,0.13c0.079,0.031,0.157,0.04,0.22,0.101
		c0.078,0.074,0.144,0.186,0.059,0.267c-0.063,0.06-0.147,0.098-0.217,0.149c-0.077,0.056-0.136,0.114-0.195,0.187
		c-0.111,0.139-0.344,0.305-0.464,0.088c-0.05-0.091-0.041-0.253-0.05-0.356C113.594,80.554,113.861,80.466,113.827,80.225z"/>
	<path fill="#1E8346" d="M101.526,76.051c0.102,0.085,0.234,0.15,0.322,0.247c0.111,0.122,0.072,0.265,0.112,0.41
		c0.052,0.186,0.093,0.259-0.038,0.429c-0.127,0.164-0.237,0.376-0.449,0.447c-0.283,0.095-0.991,0.054-0.963-0.387
		c0.008-0.128,0.119-0.24,0.061-0.378c-0.056-0.13-0.182-0.232-0.137-0.387c0.047-0.158,0.235-0.269,0.361-0.36
		c0.036-0.026,0.059-0.037,0.097-0.048c0.071-0.021,0.163-0.005,0.24-0.013c0.052-0.005,0.105-0.021,0.156-0.024
		C101.392,75.984,101.412,76.015,101.526,76.051z"/>
	<path fill="#1E8346" d="M133.403,47.685c-0.02,0.153,0.169,0.218,0.241,0.352c0.061,0.114,0.109,0.226,0.13,0.356
		c0.022,0.14,0.085,0.228,0.19,0.328c0.142,0.134,0.196,0.301,0.306,0.46c0.058,0.083,0.035,0.098,0.011,0.191
		c-0.027,0.106-0.028,0.205-0.013,0.312c0.019,0.128-0.002,0.229-0.033,0.359c-0.026,0.115-0.042,0.217-0.042,0.336
		c0,0.108,0.003,0.201-0.073,0.284c-0.076,0.082-0.19,0.082-0.296,0.097c-0.155,0.023-0.283,0.086-0.44,0.064
		c-0.139-0.019-0.278-0.075-0.419-0.082c-0.1-0.005-0.109-0.012-0.179-0.092c-0.079-0.091-0.15-0.189-0.245-0.267
		c-0.118-0.097-0.227-0.196-0.326-0.314c-0.051-0.061-0.114-0.115-0.15-0.187c-0.036-0.072-0.053-0.141-0.104-0.208
		c-0.157-0.204-0.443-0.282-0.46-0.576c-0.013-0.223,0.261-0.394,0.409-0.537c0.191-0.184,0.392-0.359,0.589-0.535
		c0.112-0.101,0.22-0.213,0.317-0.329c0.086-0.103,0.204-0.279,0.342-0.311C133.333,47.346,133.326,47.598,133.403,47.685z"/>
	<path fill="#1E8346" d="M136.802,45.917c0.18,0.15,0.34,0.166,0.561,0.198c0.092,0.013,0.178,0.046,0.271,0.056
		c0.151,0.016,0.302,0.097,0.331,0.256c0.013,0.071,0.005,0.129-0.002,0.201c-0.011,0.107,0.008,0.213-0.013,0.319
		c-0.015,0.078-0.035,0.155-0.046,0.233c-0.004,0.028,0.006,0.068-0.004,0.094c-0.018,0.046-0.073,0.079-0.104,0.116
		c-0.117,0.139-0.256,0.172-0.438,0.171c-0.196-0.001-0.4-0.008-0.595-0.029c-0.16-0.017-0.33-0.045-0.489-0.016
		c-0.168,0.03-0.373,0.148-0.504-0.014c-0.053-0.065-0.075-0.15-0.039-0.227c0.056-0.12,0.174-0.171,0.253-0.266
		c0.195-0.238-0.022-0.568,0.215-0.781c0.052-0.047,0.127-0.084,0.192-0.107c0.082-0.03,0.137-0.052,0.213-0.093
		C136.647,46.005,136.706,45.967,136.802,45.917z"/>
	<path fill="#1E8346" d="M138.534,40.161c0.099,0.085,0.12,0.157,0.263,0.134c0.11-0.018,0.117-0.078,0.192-0.146
		c0.135-0.124,0.35-0.016,0.477,0.073c0.165,0.117,0.236,0.209,0.318,0.389c0.103,0.225-0.047,0.376-0.201,0.527
		c-0.092,0.09-0.189,0.175-0.292,0.252c-0.135,0.101-0.249,0.095-0.413,0.114c-0.135,0.016-0.349,0.011-0.465-0.083
		c-0.038-0.031-0.051-0.078-0.075-0.119c-0.033-0.054-0.072-0.093-0.117-0.137c-0.052-0.051-0.089-0.086-0.16-0.109
		c-0.106-0.035-0.249-0.01-0.346-0.048c-0.097-0.037-0.181-0.159-0.238-0.243c-0.111-0.162,0.023-0.331,0.091-0.49
		c0.083-0.194,0.256-0.307,0.467-0.292c0.089,0.006,0.203,0.012,0.282,0.045C138.4,40.065,138.467,40.127,138.534,40.161z"/>
	<path fill="#1E8346" d="M135.868,39.111c0.163,0.008,0.269,0.11,0.224,0.272c-0.039,0.137-0.174,0.126-0.291,0.112
		c-0.101-0.013-0.268-0.058-0.261-0.189C135.544,39.211,135.739,38.989,135.868,39.111z"/>
	<path fill="#1E8346" d="M131.953,21.211c0.096-0.003,0.316,0.054,0.342,0.169c0.023,0.104-0.115,0.194-0.18,0.253
		c-0.099,0.09-0.149,0.157-0.291,0.151c-0.047-0.002-0.093-0.017-0.141-0.02c-0.043-0.003-0.093,0.009-0.135-0.003
		c-0.105-0.03-0.172-0.247-0.148-0.348c0.029-0.124,0.27-0.239,0.383-0.26C131.846,21.141,131.943,21.134,131.953,21.211z"/>
	<path fill="#1E8346" d="M169.446,2.723c0.11,0.151,0.228,0.243,0.314,0.407c0.056,0.108,0.112,0.17,0.224,0.235
		c0.245,0.142,0.332,0.188,0.434,0.477c0.114,0.324-0.099,0.559-0.23,0.85c-0.069,0.152-0.059,0.413-0.274,0.39
		c-0.363-0.038-0.474-0.529-0.791-0.613c-0.146-0.039-0.287,0.033-0.434,0.014c-0.189-0.025-0.331-0.175-0.511-0.233
		c-0.131-0.041-0.329-0.127-0.429-0.222c-0.075-0.07-0.08-0.191-0.119-0.284c-0.132-0.314-0.103-0.514,0.205-0.731
		c0.137-0.096,0.274-0.153,0.44-0.164c0.191-0.012,0.289-0.126,0.489-0.15C169.023,2.668,169.296,2.567,169.446,2.723z"/>
	<path fill="#1E8346" d="M169.855,7.674c0.166,0.126,0.265,0.311,0.3,0.513c0.035,0.202,0.004,0.318,0.152,0.481
		c0.167,0.185,0.485,0.335,0.587,0.564c0.077,0.17,0.075,0.437,0.067,0.621c-0.012,0.243-0.07,0.474-0.069,0.722
		c0,0.222,0.026,0.433,0.017,0.656c-0.009,0.211-0.001,0.369-0.085,0.564c-0.073,0.168-0.171,0.297-0.31,0.42
		c-0.178,0.158-0.347,0.284-0.579,0.341c-0.214,0.053-0.436,0.078-0.653,0.123c-0.267,0.055-0.54,0.075-0.8,0.154
		c-0.315,0.096-0.546,0.126-0.827-0.066c-0.145-0.099-0.363-0.204-0.47-0.337c-0.145-0.18-0.141-0.428-0.303-0.602
		c-0.192-0.207-0.392-0.399-0.638-0.545c-0.304-0.18-0.707-0.37-0.71-0.778c-0.003-0.574,0.542-0.883,0.896-1.271
		c0.317-0.347,0.608-0.736,0.874-1.12c0.149-0.215,0.391-0.387,0.604-0.53c0.221-0.147,0.476-0.322,0.756-0.317
		c0.192,0.003,0.394,0.12,0.584,0.168C169.454,7.489,169.65,7.532,169.855,7.674z"/>
	<path fill="#1E8346" d="M153.325,22.881c0.141-0.19,0.287-0.394,0.504-0.505c0.155-0.079,0.307-0.075,0.481-0.112
		c0.294-0.063,0.515-0.224,0.748-0.42c0.333-0.281,0.556-0.618,0.536-1.071c-0.021-0.471-0.524-0.684-0.575-1.125
		c-0.039-0.336,0.24-0.526,0.252-0.831c0.02-0.499-0.34-0.658,0.005-1.162c0.203-0.297,0.446-0.29,0.761-0.404
		c0.361-0.13,0.677-0.391,0.903-0.707c-0.308-0.381-0.555-0.56-0.997-0.783c-0.377-0.19-0.741-0.535-1.064-0.818
		c-0.236-0.206-0.449-0.448-0.641-0.696c-0.295-0.382-0.771-0.859-0.897-1.325c-0.191-0.711,0.177-1.545,0.23-2.25
		c0.061-0.804-0.003-1.576,0.055-2.384c0.034-0.471-0.336-0.986-0.883-0.854c-0.53,0.128-1.091,0.816-1.509,0.223
		c-0.322-0.456-0.238-0.909-0.906-0.903c-0.743,0.008-0.873,0.669-1.26,1.135c-0.366,0.441-1.072,0.657-1.554,0.947
		c-0.458,0.275-0.559,0.698-0.634,1.223c-0.049,0.345,0.008,0.693-0.018,1.038c-0.025,0.321-0.185,0.573-0.328,0.859
		c-0.35,0.696-0.155,1.214,0.19,1.865c0.203,0.383,0.102,0.875-0.105,1.24c-0.111,0.196-0.343,0.396-0.428,0.59
		c-0.126,0.287-0.016,0.628-0.204,0.93c-0.174,0.281-0.471,0.416-0.666,0.663c-0.177,0.225-0.137,0.456-0.156,0.719
		c-0.047,0.645-0.248,1.252-0.295,1.891c-0.017,0.232-0.101,0.516-0.192,0.735c-0.093,0.225-0.166,0.254-0.365,0.436
		c-0.324,0.295-0.634,0.626-0.942,0.944c-0.328,0.338-0.649,0.631-1.034,0.908c-0.279,0.201-0.522,0.462-0.797,0.663
		c-0.149,0.109-0.308,0.135-0.495,0.16c-0.301,0.041-0.493,0.102-0.765,0.239c-0.285,0.143-0.556,0.312-0.885,0.225
		c-0.389-0.104-0.738-0.375-1.165-0.357c-0.223,0.01-0.283,0.078-0.455,0.184c-0.271,0.167-0.612,0.227-0.872,0.41
		c-0.354,0.249-0.698,0.891-0.742,1.281c-0.017,0.145,0.092,0.193-0.027,0.325c-0.148,0.165-1.125,0.08-1.369,0.089
		c-0.871,0.031-1.788-0.134-2.656-0.206c-0.27-0.022-0.361-0.201-0.617-0.289c-0.292-0.1-0.78-0.078-1.012,0.108
		c-0.549,0.44-0.414,1.239-0.244,1.806c0.057,0.189,0.11,0.378,0.124,0.575c0.015,0.197-0.061,0.428,0.078,0.577
		c0.128,0.136,0.365,0.078,0.516,0.147c0.218,0.1,0.439,0.366,0.606,0.539c0.331,0.342,0.55,0.455,1.052,0.427
		c0.369-0.02,0.638-0.085,0.981,0.046c0.543,0.207,1.016,0.565,1.046,1.183c0.035,0.722-0.006,1.864-0.906,2.036
		c-0.341,0.065-0.727-0.016-1.062-0.081c-0.178-0.034-0.5-0.152-0.644-0.036c-0.139,0.112-0.302,0.576-0.395,0.726
		c-0.107,0.173-0.16,0.321-0.328,0.45c-0.479,0.369-0.86,0.324-0.974,1.021c-0.079,0.484,0.077,1.017-0.174,1.463
		c-0.107,0.19-0.209,0.281-0.238,0.506c-0.033,0.264,0.016,0.487-0.063,0.736c-0.093,0.291-0.232,0.391-0.127,0.707
		c0.115,0.345,0.307,0.502,0.594,0.222c0.194-0.191,0.349-0.279,0.562-0.443c0.305-0.235,0.275-0.554,0.333-0.905
		c0.055-0.33,0.194-1.114,0.5-1.314c0.161-0.105,0.381-0.071,0.554-0.15c0.236-0.108,0.522-0.261,0.744-0.396
		c0.239-0.144,0.374-0.4,0.57-0.588c0.294-0.283,0.511-0.189,0.888-0.138c0.178,0.024,0.432,0.047,0.603,0.01
		c0.271-0.059,0.434-0.287,0.681-0.398c0.174-0.079,0.451-0.18,0.638-0.126c0.462,0.133,0.582,0.747,0.999,0.937
		c0.161,0.073,0.378,0.038,0.524,0.133c0.096,0.062,0.12,0.207,0.23,0.269c0.36,0.204,1.206,0.156,1.557,0.037
		c0.426-0.145,0.732-0.695,1.048-1.02c0.348-0.36,0.67-0.771,1.047-1.1c0.279-0.244,0.56-0.474,0.834-0.725
		c0.32-0.293,0.686-0.412,1.071-0.604c0.342-0.17,0.627-0.465,1-0.567c0.209-0.057,0.584-0.117,0.787-0.068
		c0.177,0.044,0.249,0.166,0.413,0.261c0.411,0.239,0.811,0,1.214-0.149c0.371-0.139,0.592-0.241,1.007-0.181
		c0.232,0.034,0.574,0.037,0.78,0.135c0.193,0.092,0.193,0.202,0.456,0.259c0.36,0.079,0.864,0.02,1.178-0.176
		c0.138-0.086,0.257-0.287,0.43-0.313c0.14-0.021,0.326,0.078,0.456,0.117c0.354,0.105,0.717,0.173,1.087,0.125
		c0.418-0.055,0.231-0.249,0.329-0.573c0.12-0.399,0.607-0.522,0.839-0.823c0.447-0.579-1.23-1.479-1.416-2.032
		c-0.195-0.579,0.082-1.449,0.134-2.044c0.07-0.808,0.017-1.679,0.21-2.463C152.669,23.504,152.956,22.78,153.325,22.881z"/>
</g>
</svg>
