<?xml version="1.0" encoding="utf-8"?>
<!-- Generator: Adobe Illustrator 26.0.3, SVG Export Plug-In . SVG Version: 6.00 Build 0)  -->
<svg version="1.1" xmlns="http://www.w3.org/2000/svg" xmlns:xlink="http://www.w3.org/1999/xlink" x="0px" y="0px"
	 viewBox="0 0 200 200" enable-background="new 0 0 200 200" xml:space="preserve">
<g id="Layer_1">
	<g id="Layer_1_00000061442898653323928190000005571608892069918396_">
		<g id="Layer_1_00000098929087308412571940000004538787532203942811_">
		</g>
	</g>
</g>
<g id="Isolation_Mode">
	<g>
		<path fill="#1E8346" d="M97.474,124.571c0.003-0.002,0.005-0.004,0.008-0.006C97.477,124.564,97.475,124.567,97.474,124.571z"/>
		<path fill="#1E8346" d="M97.474,124.571c-0.002,0.001-0.004,0.003-0.006,0.004C97.471,124.581,97.471,124.576,97.474,124.571z"/>
		<path fill="#1E8346" d="M192.482,86.519c-0.564-0.154-1.368-0.425-1.763-0.862c-0.177-0.196-0.267-0.439-0.459-0.628
			c-0.213-0.21-0.479-0.37-0.692-0.585c-0.459-0.465-0.848-1.047-1.097-1.647c-0.174-0.42-0.225-0.911-0.325-1.353
			c-0.129-0.57-0.464-1.095-0.75-1.601c-0.215-0.379-0.552-0.505-0.833-0.832c-0.323-0.376-0.692-0.526-1.151-0.699
			c-0.288-0.109-0.566-0.266-0.864-0.344c-0.402-0.106-0.818-0.135-1.221-0.248c-0.383-0.107-0.733-0.284-1.101-0.428
			c-0.335-0.133-0.698-0.21-1.048-0.295c-0.549-0.133-1.091-0.213-1.604-0.459c-0.532-0.255-1.04-0.571-1.549-0.867
			c-0.235-0.138-0.477-0.247-0.698-0.404c-0.23-0.163-0.548-0.436-0.818-0.521c-0.242,0.522-0.731,1.022,0.087,1.265
			c0.191,0.057,0.401,0.032,0.602,0.083c0.243,0.061,0.482,0.157,0.708,0.265c0.384,0.183,0.747,0.494,1.073,0.768
			c0.142,0.119,0.204,0.259,0.398,0.266c0.167,0.005,0.348-0.117,0.494-0.179c0.437-0.186,0.712,0.034,1.12,0.215
			c0.408,0.181,0.854,0.189,1.264,0.347c0.18,0.07,0.433,0.212,0.296,0.437c-0.459,0.01-0.819-0.249-1.302-0.181
			c-0.363,0.051-0.491,0.139-0.834-0.056c-0.32-0.183-0.675-0.143-1.041-0.125c-0.154,0.008-0.384,0.012-0.5,0.14
			c-0.129,0.142-0.03,0.43-0.102,0.636c-0.129,0.374-0.85,0.571-1.183,0.717c-0.251,0.11-0.498,0.253-0.684,0.46
			c-0.183,0.204-0.147,0.373-0.169,0.63c-0.062,0.731-0.841,0.141-1.253,0.074c-0.085,0.21-0.129,0.316-0.373,0.406
			c-0.089-0.257-0.015-0.522-0.061-0.788c-0.035-0.203-0.206-0.471-0.11-0.678c0.035-0.076,0.129-0.095,0.165-0.193
			c0.033-0.089,0.038-0.298,0.015-0.386c-0.049-0.18-0.444-0.512-0.598-0.602c-0.083,0.419-0.913,0.432-1.215,0.461
			c0.205-0.215,0.259-0.54,0.581-0.659c-0.098-0.17-0.226-0.208-0.378-0.334c-0.181-0.152-0.253-0.536-0.427-0.622
			c-0.115-0.057-0.412-0.035-0.546-0.07c-0.207-0.054-0.394-0.143-0.584-0.238c-0.273-0.137-0.451-0.29-0.638-0.524
			c-0.2-0.25-0.449-0.305-0.724-0.461c-0.318-0.18-0.639-0.359-0.925-0.591c-0.274-0.223-0.619-0.718-0.969-0.812
			c-0.322-0.086-0.891-0.038-1.219,0.031c-0.033,0.147,0.164,0.278,0.14,0.38c-0.053,0.224-0.469-0.032-0.6-0.049
			c-0.167-0.023-0.459-0.036-0.536,0.15c-0.067,0.162,0.07,0.249,0.14,0.367c0.114,0.19,0.056,0.378,0.133,0.575
			c0.071,0.182,0.209,0.269,0.221,0.477c0.021,0.359-0.258,0.408-0.558,0.298c-0.166-0.061-0.269-0.162-0.45-0.185
			c-0.186-0.024-0.4,0.043-0.583-0.003c-0.308-0.078-0.618-0.472-0.821-0.697c-0.29-0.321-0.805-0.835-0.863-1.287
			c-0.052-0.407,0.227-0.589,0.486-0.827c0.245-0.225,0.599-0.311,0.581-0.683c-0.019-0.376-0.263-0.737-0.359-1.098
			c0.218,0.049,0.266,0.197,0.471,0.075c0.156-0.093,0.25-0.285,0.425-0.354c0.117-0.047,0.245-0.005,0.357-0.055
			c0.114-0.051,0.176-0.166,0.249-0.264c0.206-0.277,0.401-0.684,0.671-0.905c0.18-0.148,0.345-0.022,0.559,0.088
			c0.176,0.091,0.347,0.2,0.497,0.328c0.206,0.177,0.254,0.178,0.498,0.235c0.223,0.052,0.371,0.233,0.583,0.295
			c0.177,0.052,0.154,0.018,0.271-0.052c0.085-0.051,0.088-0.122,0.194-0.096c0.05,0.013,0.148,0.18,0.18,0.215
			c0.39,0.414,0.93,0.631,0.97,1.267c0.01,0.162-0.015,0.285,0.145,0.359c0.23,0.107,0.601,0.003,0.855,0.031
			c0.286,0.031,0.5,0.21,0.765,0.308c0.148,0.055,0.296,0.079,0.453,0.098c0.514,0.061,1.029,0.385,1.434,0.703
			c0.297,0.233,0.556,0.526,0.887,0.715c0.141,0.081,0.276,0.183,0.414,0.263c0.115,0.067,0.172,0.05,0.308,0.019
			c0.362-0.082,0.676-0.344,0.378-0.656c-0.485-0.105-0.908-0.125-1.366-0.342c-0.352-0.168-0.703-0.338-1.048-0.518
			c-0.97-0.506-1.706-1.181-2.527-1.892c-0.338-0.293-0.624-0.655-0.98-0.923c-0.377-0.284-0.796-0.503-1.166-0.801
			c-0.632-0.508-1.166-1.028-1.741-1.6c-1.342-1.335-2.764-2.686-4.31-3.78c-0.824-0.583-1.561-1.284-2.403-1.845
			c-0.379-0.253-0.74-0.49-1.021-0.854c-0.23-0.298-0.484-0.808-0.804-1.016c-0.422-0.274-1.366-0.154-1.878-0.171
			c-0.703-0.023-1.409,0.002-2.111-0.028c-0.664-0.029-1.342-0.044-1.995-0.169c-0.301-0.058-0.602-0.15-0.912-0.129
			c0.44,0.195,0.59,0.335,0.497,0.836c-0.06,0.323-0.277,0.642-0.508,0.871c-0.722,0.712-1.604-0.034-2.178-0.575
			c-0.243,0.344-0.779,0.964-1.28,0.818c-0.223-0.065-0.468-0.397-0.584-0.588c-0.226-0.372-0.277-1.151-0.076-1.536
			c0.144-0.276,0.544-0.564,0.12-0.829c-0.094-0.059-0.312-0.057-0.42-0.092c-0.13-0.042-0.263-0.134-0.387-0.174
			c-0.345-0.111-0.724-0.131-1.072-0.209c-0.315-0.07-0.624-0.164-0.951-0.114c-0.011,0.708-0.326,1.299-1.103,1.27
			c-0.358-0.014-0.608,0.223-0.955,0.152c-0.413-0.084-0.857-0.412-0.998-0.821c-0.153-0.442,0.139-0.717,0.167-1.127
			c0.022-0.331-0.165-0.538-0.41-0.737c-0.702-0.571-1.64-0.773-2.432-1.188c-0.519-0.272-0.997-0.518-1.58-0.599
			c-0.659-0.092-1.308-0.216-1.979-0.121c-0.98,0.139-1.944,0.843-2.616,1.539c-0.584,0.605-1.427,0.98-2.188,1.311
			c-0.419,0.183-0.804,0.421-1.267,0.49c-0.633,0.093-1.313,0.109-1.952,0.082c-1.088-0.046-2.464-0.319-3.46,0.259
			c-0.623,0.361-1.228,0.525-1.961,0.357c-0.425-0.098-1.012-0.381-1.399-0.638c-0.42-0.28-1.021-0.366-1.481-0.594
			c-0.516-0.255-1.01-0.543-1.487-0.863c-0.859-0.577-1.713-1.011-2.711-1.283c-1.13-0.308-2.162-0.917-3.331-1.1
			c-0.47-0.074-0.946-0.089-1.416-0.155c-0.585-0.082-0.988-0.395-1.537-0.516c-0.31-0.068-2.185-0.384-2.183,0.103
			c0.001,0.156,0.369,0.247,0.458,0.33c0.206,0.191,0.107,0.26,0.436,0.22c0.491-0.061,1.111-0.431,1.549,0.023
			c0.256,0.266,0.239,0.692,0.173,1.033c-0.133,0.688-0.536,1.014-1.119,1.345c-0.312,0.177-0.575,0.413-0.903,0.554
			c-0.553,0.237-1.315,0.355-1.908,0.425c-0.792,0.093-1.586-0.178-2.383-0.146c-0.424,0.017-0.733,0.217-1.137,0.29
			c-0.419,0.076-0.841,0.048-1.249,0.184c-0.454,0.152-0.799,0.424-1.154,0.734c-0.613,0.535-1.065,1.156-1.786,1.538
			c-0.417,0.221-0.942,0.22-1.327,0.47c-0.308,0.2-0.49,0.427-0.857,0.568c-0.262-0.063-0.657-0.205-0.926-0.121
			c-0.211,0.065-0.227,0.184-0.492,0.167c-0.66-0.043-1.262-0.637-1.818-0.939c-0.153-0.083-0.497-0.339-0.661-0.365
			c-0.265-0.043-0.595,0.248-0.828,0.341c-0.525,0.209-1.157,0.288-1.719,0.291c-0.764,0.005-1.547,0.007-2.302,0.134
			c-0.563,0.095-1.049,0.321-1.629,0.061c-1.238-0.555-2.454-0.17-3.462,0.638c-0.499,0.4-0.95,0.336-1.575,0.359
			c-0.635,0.022-1.2,0.192-1.839,0.105c-0.574-0.079-1.082-0.169-1.639-0.308c-0.507-0.126-1.016-0.238-1.538-0.285
			c-0.862-0.078-1.657-0.219-2.528-0.226c-0.935-0.008-1.712-0.288-2.605-0.503c-1.82-0.439-3.666-0.934-5.483-1.404
			c-0.143,0.26-0.178,0.666-0.432,0.849c-0.278,0.2-0.913,0.215-1.132-0.081c-0.381,0.135-0.242,0.536-0.338,0.825
			c-0.07,0.213-0.135,0.241-0.39,0.311c-0.678,0.189-1.421-0.093-2.061-0.299c-0.891-0.287-1.606-1.07-2.252-1.716
			c-0.288-0.287-0.547-0.566-0.748-0.924c-0.164-0.292-0.047-0.51-0.129-0.805c-0.075-0.27-0.397-0.351-0.477-0.041
			c-0.039,0.152,0.16,0.298,0.16,0.428c0,0.136-0.137,0.345-0.198,0.456c-0.443-0.391-0.772-0.601-1.316-0.823
			c-0.298-0.121-0.603-0.258-0.883-0.419c-0.27-0.155-0.333-0.242-0.606-0.069c-0.2,0.126-0.336,0.36-0.516,0.49
			c-0.283,0.204-0.851,0.286-1.133,0.093c-0.201-0.137-0.152-0.27-0.397-0.26c-0.18,0.008-0.361,0.151-0.528,0.202
			c-0.166,0.05-0.348,0.045-0.511,0.111c-0.218,0.088-0.341,0.144-0.568,0.181c-0.244,0.041-0.395,0.12-0.605,0.25
			c-0.198,0.123-0.469,0.241-0.64,0.402c-0.199,0.187-0.126,0.239-0.152,0.433c-0.033,0.245-0.16,0.556-0.393,0.697
			c-0.106,0.064-0.399,0.148-0.503,0.022c-0.147-0.178,0.029-0.261,0.075-0.404c0.139-0.425-0.089-0.816-0.63-0.622
			c-0.275,0.098-0.593,0.396-0.361,0.696c0.118,0.153,0.411,0.09,0.511,0.25c0.124,0.199-0.061,0.622-0.195,0.741
			c-0.295,0.262-0.669,0.331-1.037,0.427c-0.559,0.146-1.084,0.383-1.611,0.632c-0.47,0.222-0.854,0.511-1.273,0.81
			c-0.33,0.236-0.914,0.633-0.984,1.088c-0.051,0.333-0.098,0.806-0.399,1.02c-0.538,0.381-1.561,0.137-2.042-0.13
			c-0.343-0.191-0.737-0.388-1.04-0.641c-0.078-0.065-0.126-0.18-0.213-0.235c-0.234-0.146-0.503-0.06-0.778-0.08
			c-0.166,0.368,0.389,0.69,0.07,1.105c-0.04-0.044-0.107-0.053-0.146-0.091c-0.085,0.111-0.174,0.221-0.254,0.336
			c-0.005-0.108-0.027-0.216-0.068-0.316c-0.089,0.089-0.198,0.174-0.321,0.192c-0.047-0.107-0.113-0.13-0.212-0.146
			c-0.079,0.318,0.01,0.618-0.491,0.534c-0.198-0.033-0.273-0.125-0.413-0.268c-0.062,0.113-0.105,0.236-0.157,0.353
			c-0.073-0.027-0.17-0.045-0.236-0.116c0.03,0.255-0.05,0.584-0.142,0.817c-0.099,0.25-0.398,0.565-0.366,0.853l-6.823,5.72
			l-0.209,0.596l-0.834,0.209l-2.562,2.443l-5.035,3.069l-3.933,3.366L9.816,85c0.011,0.353-0.306,0.74-0.599,0.909
			c0.196,0.256-0.026,0.42-0.141,0.658c-0.126,0.259-0.09,0.389,0.092,0.627c0.295,0.385,0.788,0.769,0.472,1.328
			c-0.082,0.145-0.304,0.179-0.361,0.32c-0.041,0.101,0.031,0.25,0.031,0.353c-0.001,0.191-0.014,0.422-0.09,0.6
			c-0.139,0.328-0.31,0.263-0.584,0.357c-0.306,0.105-0.635,0.41-0.995,0.41v1.26c-0.221,0.726,0.734,1.205,1.188,1.62
			c0.228,0.208,0.421,0.393,0.502,0.699c0.05,0.187,0.095,0.328,0.157,0.511c0.189,0.561-0.174,1.105,0.503,1.288
			c0.312,0.084,0.588,0.106,0.475,0.452c-0.063,0.193-0.257,0.375-0.38,0.53c-0.37,0.464-0.386,0.54-0.217,1.102
			c0.059,0.197,0.21,0.412,0.245,0.607c0.039,0.211-0.028,0.288-0.217,0.439c-0.013,0.047,0.01,0.063,0.069,0.048v1.254
			c-0.425,0.132-0.78,0.396-1.245,0.33c-0.447-0.064-0.995-0.571-1.448-0.421c-0.246,0.081-0.529,0.458-0.674,0.653
			c-0.259,0.348-0.555,0.682-0.799,1.042c-0.147,0.218-0.301,0.443-0.446,0.659c-0.184,0.274-0.021,0.453-0.157,0.639
			c-0.276,0.377-1.429,0.217-1.548,0.709c-0.053,0.22,0.665,1.409,0.059,1.425c0.343,0.271,0.579,0.304,1.012,0.349
			c0.226,0.024,0.431-0.011,0.652-0.022c0.355-0.019,0.504,0.139,0.829,0.311c0.393,0.209,0.715,0.435,1.155,0.526
			c0.115,0.024,0.546-0.019,0.624,0.023c0.106,0.058,0.105,0.266,0.158,0.387c0.779-0.03,1.27,0.329,1.921,0.629
			c0.337-0.439,0.626-0.983,0.98-1.438c0.115-0.148,0.104-0.242,0.342-0.201c0.257,0.045,0.207,0.212,0.313,0.445
			c0.122,0.27,0.362,0.474,0.417,0.765c0.039,0.206-0.086,0.55,0.057,0.728c0.204,0.252,0.835,0.202,1.137,0.297
			c0.459,0.144,0.083,0.291,0.299,0.598c0.087,0.124,0.226,0.063,0.291,0.208c0.058,0.131-0.048,0.37-0.059,0.504
			c-0.01,0.139-0.051,0.46,0.002,0.583c0.106,0.246,0.347,0.19,0.544,0.288c0.188,0.094,0.384,0.422,0.498,0.591
			c0.303,0.45,0.534,1.19,1.164,1.283c0.163,0.024,0.387,0.045,0.546,0.028c0.185-0.019,0.241-0.121,0.403-0.149
			c0.469-0.081,0.539,0.29,0.537,0.622c0.441,0.023,0.572,0.01,0.927,0.274c0.307,0.228,0.368,0.284,0.406,0.676
			c0.041,0.409,0.29,0.538,0.53,0.842c0.198,0.251,0.188,0.628,0.402,0.838c0.272-0.346,1.059-0.385,1.451-0.209
			c0.287,0.129,0.347,0.341,0.712,0.206c0.233-0.086,0.587-0.564,0.848-0.361c0.361,0.281-0.102,1.405-0.063,1.763
			c0.05,0.47,1.081,0.663,1.462,0.802v0.843c0.174,0,0.467,0.048,0.597-0.061c0.106-0.089,0.058-0.278,0.183-0.358
			c0.364-0.231,0.552,0.488,0.856,0.025c0.17,0.166,0.338,0.412,0.568,0.499c0.254,0.096,0.585-0.101,0.813,0.027
			c0.227,0.127,0.219,0.431,0.349,0.621c0.2,0.29,0.473,0.231,0.793,0.185c0.341-0.049,0.642-0.131,0.943,0.016
			c0.238,0.116,0.64,0.394,0.678,0.649c0.023,0.155-0.055,0.199-0.103,0.327c-0.06,0.159-0.087,0.236-0.105,0.44
			c-0.027,0.309-0.262,0.555-0.189,0.863c0.054,0.227,0.26,0.4,0.363,0.609c0.1,0.201,0.115,0.318,0.15,0.547
			c0.059,0.385,0.379,0.719,0.792,0.736c-0.017-0.14-0.016-0.28-0.012-0.421c0.371-0.043,0.608,0.203,0.861-0.119
			c0.147-0.187,0.157-0.539,0.428-0.573c0.16-0.02,0.177,0.09,0.295,0.124c0.374,0.105,0.754-0.218,1.143-0.061
			c0.27,0.109,0.452,0.43,0.807,0.358c0.013-0.231,0.166-0.559,0.247-0.774c0.287,0.093,0.55,0.248,0.84,0.331
			c-0.054-0.641,0.214-0.875,0.831-0.865c0.229,0.004,0.55,0.128,0.697-0.103c0.094-0.147,0.016-0.549,0.014-0.727
			c0.46-0.078,1.698,0.243,1.181-0.687c-0.153-0.274-0.338-0.324-0.315-0.663c0.016-0.232,0.1-0.416,0.212-0.621
			c0.512-0.025,0.828,0.126,1.309,0.245c0.285,0.07,0.764,0.328,1.07,0.261c0.174-0.038,0.311-0.225,0.458-0.313
			c0.328-0.196,0.643-0.196,1.017-0.195c0.254,0.001,0.483,0.004,0.715,0.13c0.489,0.266,0.322,0.862,0.47,1.33
			c0.13,0.409,0.584,0.765,0.872,1.087c0.2,0.223,0.465,0.705,0.73,0.819c0,0.223,0.008,0.447-0.012,0.669
			c0.254,0.075,0.906-0.356,1.136-0.493c0.213-0.128,0.376-0.34,0.574-0.481c0.221,0.278,0.328,0.153,0.577,0.223
			c0.216,0.061,0.409,0.289,0.62,0.388c0.095-0.413,0.209-0.56,0.698-0.629c0.413-0.058,0.766,0.251,1.177,0.229
			c0.554-0.03,0.453-0.229,0.679-0.563c0.25-0.369,0.856-0.08,1.253-0.173v0.889c0.373,0.415,0.865,0.614,1.278,0.974
			c0.357,0.311,0.113,0.734,0.557,0.948c0.39,0.188,0.71,0.302,0.757,0.791c0.034,0.349,0.025,0.716-0.135,1.02
			c-0.147,0.278-0.493,0.571-0.55,0.885c0.211,0.324,0.337,0.529,0.122,0.905c-0.099,0.173-0.542,0.822-0.718,0.822v2.415
			c-0.183,0.193-0.326,0.307-0.386,0.562c-0.062,0.261-0.035,0.422-0.253,0.605c-0.116,0.097-0.292,0.113-0.347,0.278
			c-0.058,0.173,0.113,0.463,0.122,0.642c0.013,0.236-0.12,0.368-0.143,0.564c-0.032,0.272,0.086,0.201,0.252,0.411
			c0.106,0.134-0.023,0.234,0.212,0.306c0.285,0.087,0.411-0.199,0.632-0.303c0.198,0.555,0.493,0.268,0.924,0.51v1.728
			c-0.057,0.17-0.613,0.352-0.777,0.331c-0.078-0.01-0.277-0.145-0.34-0.128c-0.178,0.049-0.076,0.114-0.191,0.214
			c-0.229,0.199-0.292,0.093-0.557,0.181c-0.196,0.065-0.306,0.255-0.428,0.417c-0.279,0.369-0.22,0.507,0.141,0.807
			c0.35,0.291,0.787,0.452,1.15,0.7c0.325,0.003,0.261,0.094,0.533,0.21c0.265,0.113,0.592-0.051,0.816-0.188
			c0.33-0.201,0.65-0.391,0.986-0.578c0.265-0.147,0.611-0.39,0.726-0.687c0.062-0.158,0.069-0.585-0.021-0.738
			c-0.078-0.132-0.367-0.171-0.439-0.316c-0.169-0.339,0.377-0.353,0.538-0.433c0.193-0.095,0.25-0.227,0.237-0.452
			c0.22,0.025,0.411,0.135,0.626,0.173c0.163,0.029,0.346,0.028,0.505,0.071c-0.078,0.133-0.276,0.213-0.332,0.353
			c-0.056,0.142,0.046,0.172,0.052,0.31c0.011,0.288-0.416,0.525-0.246,0.831c0.124,0.222,0.559,0.173,0.681,0.437
			c0.106,0.23-0.228,0.375-0.184,0.577c0.145-0.033,0.289-0.005,0.432-0.026c0.092-0.014,0.15-0.081,0.256-0.056
			c-0.096,0.345-0.647,0.407-0.912,0.563c-0.3,0.178-0.715,0-0.988,0.254c-0.416,0.387,0.039,0.979,0.393,1.201
			c0.209,0.131,0.556,0.262,0.799,0.262c0.257,0,0.726,0.132,0.879-0.11c0.097-0.152,0.096-0.333,0.22-0.476
			c0.1-0.115,0.22-0.157,0.361-0.213c0.313-0.126,0.81-0.145,0.956-0.461c0.073-0.157,0.107-0.189,0.272-0.256
			c0.153-0.062,0.288-0.124,0.421-0.221c0.297-0.217,0.398-0.202,0.731-0.027c0.074,0.039,0.231,0.183,0.323,0.157
			c0.064-0.018,0.173-0.204,0.225-0.254c0.255-0.251,0.763-0.011,0.87-0.411c0.07-0.263,0.026-0.433-0.224-0.511
			c-0.119-0.037-0.284-0.06-0.315-0.209c-0.05-0.24,0.22-0.203,0.344-0.127c0.138,0.084,0.209,0.187,0.388,0.139
			c0.125-0.033,0.169-0.124,0.244-0.216c0.1-0.122,0.183-0.163,0.344-0.092c0.096,0.042,0.206,0.149,0.172,0.267
			c-0.04,0.138-0.252,0.2-0.344,0.29c-0.118,0.117-0.228,0.354-0.226,0.526c0.164,0.224,0.396,0.241,0.324,0.56
			c-0.048,0.214-0.263,0.313-0.463,0.346c-0.186,0.031-0.523-0.026-0.643,0.161c-0.041,0.063-0.055,0.138-0.018,0.21
			c0.034,0.068,0.071,0.056,0.128,0.106c0.097,0.084,0.098,0.211-0.023,0.266c-0.083,0.038-0.116,0.005-0.18-0.051
			c-0.082-0.072-0.13-0.201-0.231-0.247c-0.088,0.068-0.116,0.204-0.153,0.306c-0.043,0.115-0.127,0.23-0.144,0.351
			c-0.035,0.252,0,0.442,0.104,0.68c0.274-0.082,0.335-0.49,0.487-0.696c0.126-0.17,0.612-0.425,0.542-0.037
			c-0.025,0.138-0.198,0.278-0.261,0.406c-0.086,0.175-0.148,0.372-0.243,0.548c-0.158,0.293-0.337,0.337-0.661,0.312
			c-0.081-0.073-0.138-0.136-0.189-0.237c-0.054-0.105-0.07-0.36-0.189-0.418c-0.07-0.034-0.424,0.055-0.485,0.097
			c-0.102,0.069-0.27,0.407-0.277,0.56c-0.013,0.293,0.383,0.301,0.603,0.389c0.303,0.122,0.401,0.37,0.598,0.611
			c0.187,0.229,0.311,0.437,0.392,0.715c0.098,0.337,0.354,0.539,0.441,0.895c0.073,0.299,0.192,0.509,0.312,0.781
			c0.132,0.3,0.226,0.574,0.238,0.904c0.007,0.189-0.125,0.625,0.03,0.728c0.092,0.061,0.39,0.023,0.501,0.038
			c0.143,0.02,0.284,0.06,0.427,0.076c0.227,0.024,0.258-0.001,0.412,0.143c0.1,0.095,0.185,0.208,0.279,0.308
			c0.153,0.164,0.373,0.331,0.283,0.507c-0.045,0.088-0.122,0.043-0.125,0.187c-0.002,0.097,0.087,0.197,0.133,0.282
			c0.26,0.481,0.672,0.787,1.098,1.114c0.268,0.206,0.584,0.273,0.616,0.663c0.027,0.33-0.119,0.517-0.119,0.832l7.508-0.516
			l0.457,0.516h0.775c0.046-0.212,0.097-0.581,0.204-0.77c0.046,0.109,0.099,0.203,0.134,0.314c0.185-0.024,0.283-0.242,0.397-0.368
			c0.131-0.145,0.279-0.235,0.455-0.318c0.264-0.124,0.589-0.246,0.891-0.283c0.039-0.289-0.111-0.84,0.048-1.088
			c0.103-0.162,0.44-0.361,0.603-0.466c0.212-0.137,0.431-0.262,0.664-0.362c0.008-0.019,0.027-0.094,0.028-0.115
			c-0.171-0.148-0.42-0.072-0.556-0.262c-0.096-0.134-0.148-0.415-0.104-0.57c0.108-0.374,0.758-0.608,0.65-1.078
			c-0.052-0.226-0.334-0.328-0.436-0.532c-0.111-0.223,0.002-0.344,0.119-0.561c0.082-0.152,0.294-0.452,0.28-0.632
			c-0.012-0.156-0.167-0.236-0.142-0.414c0.202,0.015,0.39-0.083,0.58-0.14c-0.042-0.283-0.003-0.533-0.18-0.739
			c-0.04-0.047-0.219-0.156-0.224-0.236c-0.007-0.124,0.13-0.22,0.242-0.219c0.214,0.004,0.398-0.266,0.585-0.354
			c0.243-0.114,0.329-0.152,0.42-0.417c0.119-0.349,0.149-0.374,0.515-0.502c0.298-0.104,0.619-0.151,0.924-0.217l2.225,1.47
			l1.45-1.172v-1.947c-0.056-0.677-0.856-0.271-1.059-0.874c-0.092-0.274,0.177-0.447,0.334-0.645
			c0.215-0.271,0.417-0.49,0.308-0.847c-0.107-0.352-0.517-0.766-0.496-1.15l-0.457-2.781c-0.154-0.001-0.339-0.12-0.46-0.217
			c-0.182-0.147-0.07-0.194,0.023-0.402c0.107-0.239,0.142-0.5,0.204-0.756c0.054-0.225,0.106-0.453,0.158-0.675
			c0.044-0.184,0.188-0.38,0.081-0.571c-0.112-0.199-0.441-0.214-0.645-0.263c-0.089-0.021-0.379-0.038-0.415-0.088
			c-0.075-0.102,0.137-0.342,0.181-0.429c0.156-0.307,0.248-0.658,0.392-0.972c0.099-0.216,0.227-0.465,0.205-0.711
			c-0.027-0.291-0.285-0.607-0.242-0.907c0.066-0.46,0.867-0.643,1.174-0.841h1.931c0.245,0.632,0.952-0.25,1.373-0.096
			c0.114,0.042,0.18,0.146,0.289,0.189c0.146,0.057,0.257-0.008,0.381-0.077c0.428-0.236,0.894-0.427,1.365-0.559
			c0.16-0.045,0.402-0.119,0.571-0.1c0.189,0.021,0.251,0.22,0.334,0.38c0.144,0.279,0.206,0.352,0.539,0.429
			c0.272,0.063,0.535,0.164,0.813,0.184c0.071,0.005,0.206,0.039,0.274,0.013c0.072-0.028,0.141-0.15,0.197-0.21
			c0.178-0.188,0.305-0.344,0.507-0.063c0.143,0.2,0.204,0.431,0.456,0.529c0.193,0.076,0.439,0.089,0.643,0.142
			c0.082,0.021,0.296,0.102,0.389,0.078c0.135-0.033,0.272-0.211,0.398-0.281c0.164-0.091,0.318-0.081,0.506-0.073
			c0.296,0.012,0.575,0.123,0.875,0.046c0.297-0.076,0.364-0.43,0.518-0.659c0.216-0.321,0.551-0.696,0.879-0.915l0,0v-1.166
			l0.1,0.004c0.217,0,0.41-0.075,0.479-0.3c0.02-0.066,0.039-0.144,0.048-0.211c0.008-0.063-0.021-0.15-0.001-0.209
			c0.054-0.156,0.324-0.082,0.472-0.105c0.206-0.032,0.342-0.303,0.44-0.466c0.049-0.081,0.099-0.17,0.159-0.244
			c0.072-0.089,0.112-0.083,0.224-0.106c0.17-0.036,0.331-0.172,0.377-0.345c0.05-0.189-0.017-0.457,0.162-0.59
			c0.135-0.1,0.317-0.054,0.457-0.127c0.161-0.085,0.294-0.349,0.385-0.497c0.046-0.074,0.109-0.16,0.108-0.254
			c-0.002-0.133-0.128-0.289-0.181-0.409c-0.1-0.227,0.461-0.213,0.605-0.24c0.264-0.049,0.451-0.103,0.678-0.253
			c0.216-0.144,0.378-0.332,0.201-0.594c-0.146-0.215-0.293-0.308-0.243-0.609c0.05-0.306,0.456-0.243,0.701-0.331
			c0.353-0.127,0.462-0.391,0.707-0.649c0.321-0.34,1.05-0.374,1.491-0.431c0.346-0.045,0.698-0.074,1.042-0.13
			c0.137-0.022,0.431-0.147,0.541-0.008c0.207,0.26-0.229,0.798-0.33,1.02c-0.134,0.293-0.258,0.58-0.441,0.847
			c-0.162,0.236-0.262,0.42-0.275,0.703c0.252,0.006,0.505-0.017,0.683,0.165c0.147,0.151,0.309,0.298,0.438,0.465
			c0.064,0.082,0.121,0.163,0.194,0.235c0.12,0.118,0.155,0.106,0.343,0.122c0.426,0.037,0.873,0.29,1.227,0.521
			c0.29,0.189,0.536,0.507,0.918,0.473c0.076,0.283,0.009,0.591,0.13,0.877c0.127-0.005,0.384,0.18,0.485,0.115
			c0.054-0.036,0.135-0.37,0.18-0.446c0.128-0.215,0.215-0.448,0.492-0.367c0.264,0.078,0.49,0.239,0.75,0.325
			c0.478,0.157,0.275,0.541,0.347,0.94c0.044,0.243,0.235,0.48,0.36,0.69c0.095,0.16,0.165,0.37,0.295,0.504
			c0.064,0.067,0.176,0.066,0.258,0.07c0.196,0.009,0.388,0.03,0.586,0.03c0.189-0.001,0.375,0.016,0.562,0.025
			c0.19,0.009,0.37-0.028,0.505,0.114c0.075,0.079,0.149,0.24,0.264,0.199c0.147-0.052,0.28-0.284,0.311-0.42
			c0.055-0.241,0.019-0.511-0.142-0.702c-0.082-0.098-0.192-0.165-0.3-0.232c-0.096-0.059-0.266-0.094-0.32-0.204
			c-0.055-0.111-0.014-0.302-0.001-0.419c0.022-0.196,0.067-0.326,0.152-0.504c0.141-0.293,0.101-0.609,0.101-0.925v-0.675
			c0.028-0.097,0.363-0.089,0.44-0.092c0.186-0.007,0.255-0.041,0.383-0.181c0.176-0.193,0.364-0.366,0.574-0.519
			c0.143-0.103,0.217,0.005,0.368,0.097c0.099,0.061,0.367,0.298,0.502,0.279c0.144-0.02,0.277-0.267,0.345-0.377
			c0.124-0.198,0.159-0.319,0.159-0.549c0-0.038-0.011-0.057-0.01-0.094h1.192c-0.001-0.301-0.073-0.47,0.268-0.582
			c0.2-0.066,0.41-0.139,0.603-0.213c0.212-0.082,0.409-0.179,0.519-0.389c0.064-0.122,0.049-0.324,0.129-0.425
			c0.097-0.124,0.337-0.093,0.474-0.089c0.007,0.113-0.011,0.323,0.033,0.417h1.207c-0.002-0.104-0.001-0.209-0.001-0.313
			c0.107,0,0.212-0.018,0.263-0.135c0.08-0.181,0.004-0.414,0.079-0.6c0.073-0.054,0.119-0.007,0.18,0.029
			c0.146,0.086,0.229,0.123,0.414,0.065c0.338-0.107,0.571-0.413,0.783-0.679c0.09-0.113,0.16-0.2,0.304-0.209
			c0.092-0.006,0.188-0.003,0.277,0.017c0.056,0.013,0.127,0.055,0.183,0.052c0.165-0.009,0.242-0.243,0.403-0.298
			c0.109-0.038,0.218-0.046,0.324-0.095c0.099-0.046,0.189-0.115,0.28-0.178c0.12-0.082,0.359-0.259,0.36-0.421
			c0.001-0.087-0.061-0.175-0.072-0.265c-0.012-0.104-0.008-0.209-0.008-0.313c-0.218-0.081,0.121-0.39,0.192-0.452
			c0.213-0.184,0.349-0.346,0.389-0.638c0.018-0.135,0.043-0.32-0.008-0.452c-0.047-0.124-0.213-0.227-0.217-0.367
			c-0.004-0.151,0.156-0.258,0.296-0.229c0.155,0.032,0.272,0.221,0.389,0.312c0.076-0.118,0.113-0.424,0.212-0.502
			c0.068-0.054,0.246-0.02,0.331-0.02c0.053-0.21,0.006-0.344,0.222-0.45c0.247-0.122,0.554-0.258,0.828-0.283
			c0.243-0.022,0.414,0.028,0.645,0.054c0.137,0.016,0.222-0.028,0.352-0.065c0.179-0.051,0.397-0.045,0.585-0.031
			c0.287,0.021,0.559,0.073,0.848,0.074c0.255,0.001,0.5-0.057,0.753-0.018c0.105,0.017,0.214,0.04,0.32,0.049
			c0.211,0.017,0.282-0.061,0.436-0.197c0.261-0.23,0.344-0.439,0.446-0.761c0.043-0.137,0.127-0.234,0.102-0.385
			c-0.029-0.174-0.17-0.271-0.26-0.407c-0.12-0.18-0.099-0.409-0.198-0.592c-0.101-0.188-0.342-0.222-0.48-0.385
			c-0.389,0.017-0.634-0.742-0.671-1.056c-0.056-0.479,0.452-0.817,0.692-1.155c0.287-0.404,0.351-0.766,0.352-1.268
			c0-0.358-0.092-0.55,0.229-0.706c0.384-0.187,0.581-0.294,0.815-0.673c0.366-0.594,0.366-1.878-0.132-2.386
			c0.321-0.366,0.883-0.739,1.251-0.289c0.347,0.425,0.498,0.822,1.187,0.534c0.322-0.135,0.768-0.46,1.001-0.73
			c0.126-0.146,0.328-0.418,0.37-0.611c0.07-0.324-0.119-0.237-0.347-0.463c0.213-0.305,0.672-0.517,0.279-0.921
			c-0.284-0.293-0.762-0.153-0.601-0.687c0.092-0.304,0.627-0.053,0.821-0.314c0.21-0.283-0.102-0.429-0.106-0.707
			c-0.003-0.182,0.229-0.287,0.38-0.402c0.176-0.136,0.31-0.306,0.475-0.456c0.267-0.241,0.602-0.436,0.841-0.701
			c0.118-0.13,0.14-0.224,0.297-0.281c0.225-0.081,0.551-0.069,0.788-0.079c0.061-0.002,0.241,0.03,0.279-0.033
			c0.055-0.09-0.092-0.237-0.159-0.283c0.034-0.168,0.248-0.337,0.348-0.473c0.116-0.157,0.24-0.327,0.346-0.483
			c-0.115-0.234,0.39-0.469,0.571-0.477c0.326-0.014,0.757,0.145,1.065,0.061c0.274-0.075,0.471-0.395,0.768-0.458
			c0.19-0.041,0.362,0.087,0.54,0.136c0.191,0.052,0.413,0.077,0.611,0.067c0.087,0.198,0.053,0.435,0.119,0.643
			c0.067,0.208,0.217,0.335,0.387,0.463c0.299,0.226,0.746,0.397,0.725,0.815c-0.117,0.005-0.47-0.054-0.514,0.051
			c-0.021,0.048,0.136,0.3,0.174,0.344c0.11,0.124,0.137,0.131,0.32,0c0.137,0.11,0.183,0.233,0.222,0.407
			c0.071,0.321,0.048,0.5,0.324,0.699c0.144,0.104,0.278,0.232,0.43,0.321c0.14,0.083,0.362,0.117,0.464,0.263
			c0.157,0.224,0.108,0.669,0.228,0.942c0.461-0.079,0.44-0.825,0.957-0.802c0.015,0.414,0.027,0.506,0.5,0.52
			c0.187,0.006,0.371-0.052,0.533,0.029c0.078,0.039,0.13,0.153,0.225,0.196c0.148,0.066,0.352,0.03,0.509,0.032
			c0.307,0.003,0.695-0.042,0.994,0.054c0.14,0.045,0.225,0.135,0.363,0.19c0.274,0.107,1.172-0.047,1.263,0.124
			c-0.3,0.087-0.419,0.273-0.197,0.541c0.206,0.248,0.472,0.186,0.71,0.005c0.12,0.251,0.139,0.406,0.413,0.482
			c0.303,0.084,0.594,0.095,0.905,0.119c0.049-0.115-0.026-0.27,0.02-0.402c0.105-0.303,0.726-0.034,1.019-0.124
			c0.113-0.035,0.212-0.113,0.325-0.152c0.253-0.087,0.155-0.058,0.17-0.3c0.011-0.175,0.099-0.18,0.245-0.298
			c0.161-0.129,0.297-0.298,0.432-0.459c0.148-0.176,0.305-0.351,0.42-0.552c0.105-0.184,0.22-0.443,0.369-0.595
			c0.155-0.158,0.381-0.048,0.545,0.094c0.196,0.169,0.016,0.22-0.027,0.458c-0.046,0.255,0.143,0.442,0.381,0.505
			c0.124,0.033,0.228,0.041,0.352,0.013c0.113-0.025,0.358-0.258,0.446-0.239c0.147,0.032,0.273,0.438,0.431,0.537
			c0.304,0.189,0.835,0.194,1.064-0.099c0.477-0.61-0.663-1.611-0.068-2.207c0.177-0.176,0.46-0.359,0.668-0.503
			c0.114-0.079,0.26-0.19,0.398-0.102c0.159,0.101,0.122,0.387,0.138,0.542c0.035,0.344,0.235,0.393,0.526,0.548
			c0.379,0.202,0.779,0.239,1.212,0.188c0.182-0.022,0.396-0.065,0.561-0.146c0.101-0.049,0.18-0.133,0.286-0.18
			c0.192-0.084,0.418-0.075,0.631-0.068c0.23,0.007,0.515-0.063,0.738-0.069c0.014-0.236-0.209-0.392-0.323-0.58
			c-0.071-0.116-0.157-0.225-0.216-0.347c-0.048-0.1-0.016-0.249-0.09-0.324c-0.05-0.46,0.281-0.76,0.736-0.685
			c0.458,0.075,0.209,0.564,0.487,0.898c0.161-0.051,0.661-0.254,0.797-0.213c0.182,0.055,0.148,0.126,0.214,0.312
			c0.251,0.7,0.604,0.13,1.108,0.132c0.484,0.002,0.832,0.291,1.345,0.211c0.408-0.064,0.713-0.034,1.13,0.031
			c-0.124-0.203-0.248-0.515-0.047-0.682c0.077-0.064,0.24-0.013,0.34-0.121c0.084-0.089,0.071-0.333,0.143-0.45
			c0.046,0.181,0.113,0.396,0.25,0.515c0.093-0.179,0.215-0.36,0.349-0.509c0.016,0.244-0.028,0.495-0.034,0.74
			c0.173-0.193,0.244-0.447,0.448-0.632c0.324,0.416,0.813,0.585,1.296,0.258c0.21-0.142,0.284-0.39,0.552-0.461
			c0.212-0.056,0.528-0.058,0.746-0.058c-0.055-0.219-0.298-0.235-0.42-0.42c0.137-0.011,0.36,0.092,0.473,0.063
			c0.224-0.057,0.243-0.431,0.479-0.545c0.182,0.214,0.37,0.502,0.688,0.389c0.001-0.152,0.074-0.56,0.254-0.599
			c0.129-0.027,0.276,0.287,0.408,0.257c0.381-0.084-0.112-0.745-0.136-0.869c0.413,0.242,0.708,0.505,1.208,0.496
			c0.091-0.299-0.006-0.679-0.337-0.707c0.475-0.229,0.26-0.309,0.518-0.702c0.022,0.083,0.097,0.168,0.123,0.251
			c0.41-0.289,0.915-0.309,1.394-0.298c0.153,0.004,0.377-0.02,0.502,0.058c0.158,0.099,0.18,0.343,0.384,0.42
			c0.15-0.29,0.087-0.733,0.089-1.047c0.402-0.124,0.653-0.185,0.691-0.66c0.304,0.085,0.615,0.167,0.923,0.246
			c-0.006-0.294-0.039-0.616,0.02-0.905c0.187,0.015,0.397,0.038,0.577-0.006c0.009-0.184-0.113-0.3-0.189-0.464
			c0.16,0.046,0.315,0.112,0.484,0.123c0.018-0.314-0.167-0.625-0.062-0.931c0.082,0.067,0.192,0.089,0.301,0.067
			c0.027-0.155,0.017-0.315,0.074-0.463c0.052,0.023,0.139,0.006,0.199,0.047c0.04-0.402,0.297-0.76,0.776-0.602
			c0.395,0.131,0.244,0.466,0.617,0.63c0.457,0.201,0.583-0.126,1.029-0.183c0.113-0.015,0.338,0.083,0.42,0.06
			c0.143-0.041,0.178-0.234,0.307-0.327c0.064,0.074,0.15,0.09,0.218,0.129c-0.027-0.333-0.047-0.724,0.005-1.048
			c0.396,0.069,0.903,0.234,1.242,0.468c0.237,0.163,0.272,0.518,0.516,0.661c0.097-0.18,0.099-0.403,0.183-0.594
			c0.308,0.119,0.663,0.382,1.006,0.382c0.24,0,0.719-0.34,0.959-0.17c0.356,0.252-0.836,0.616-0.072,0.868
			c0.302-0.336,0.479-0.265,0.891-0.189c0.391,0.072,0.574,0.071,0.92-0.117c0.207-0.112,0.465-0.276,0.685-0.341
			c0.325-0.096,0.456,0.166,0.798,0.227c0.338,0.06,0.587-0.102,0.834-0.304C193.68,86.56,193.051,86.675,192.482,86.519z"/>
		<path fill="#1E8346" d="M76.585,52.692c0.222,0.086,0.355,0.231,0.592,0.212c0.22-0.018,0.399-0.023,0.577-0.167
			c0.141-0.115,0.244-0.267,0.41-0.357c0.215-0.116,0.462-0.079,0.698-0.078c0.28,0.001,0.825-0.066,0.834-0.437
			c0.005-0.167-0.134-0.459-0.303-0.503c-0.145-0.039-0.329,0.148-0.459,0.195c-0.144,0.053-0.334,0.091-0.487,0.06
			c-0.121-0.025-0.193-0.127-0.311-0.164c-0.192-0.061-0.244,0.133-0.396,0.255c-0.158,0.126-0.363,0.279-0.562,0.324
			c-0.203,0.047-0.524,0.028-0.671,0.21C76.101,52.415,76.286,52.577,76.585,52.692z"/>
		<path fill="#1E8346" d="M88.54,46.364c0.311-0.202,0.478-0.542,0.725-0.808c0.589-0.634,1.568-0.141,2.234-0.614
			c0.214-0.152,0.3-0.397,0.537-0.54c0.329-0.199,0.664-0.375,1.003-0.557c0.344-0.184,0.692-0.215,1.07-0.298
			c0.341-0.075,0.454-0.207,0.688-0.432c0.247-0.238,0.482-0.286,0.816-0.249c0.188,0.021,0.479,0.138,0.65,0.048
			c0.104-0.055,0.153-0.254,0.247-0.335c0.137-0.116,0.317-0.163,0.49-0.199c0.3-0.061,0.49-0.094,0.779-0.201
			c0.641-0.237,1.294,0.038,1.95-0.025c0.432-0.041,0.925-0.184,0.924-0.65c-0.254-0.024-0.476,0.072-0.72,0.126
			c-0.362,0.081-0.747,0.066-1.11,0.009c-0.345-0.054-0.633-0.088-1.002-0.059c-0.497,0.039-1.016,0.045-1.504,0.157
			c-0.416,0.096-0.845,0.254-1.249,0.395c-0.54,0.189-1.087,0.364-1.623,0.566c-0.377,0.142-0.669,0.393-0.995,0.615
			c-0.371,0.253-0.87,0.156-1.3,0.228c-0.956,0.16-1.731,0.76-2.384,1.453c-0.238,0.253-0.517,0.529-0.602,0.874
			c-0.051,0.207-0.044,0.443-0.044,0.657C88.332,46.46,88.443,46.427,88.54,46.364z"/>
		<path fill="#1E8346" d="M101.866,41.353c0.075,0.026,0.172,0.007,0.25,0.01c0.071,0.003,0.124,0.042,0.195,0.051
			c0.113,0.014,0.201-0.017,0.273-0.104c0.025-0.031,0.037-0.051,0.077-0.063c0.048-0.015,0.106-0.014,0.139-0.057
			c0.038-0.051,0.052-0.178-0.028-0.199c-0.044-0.011-0.099,0.008-0.143,0.012c-0.165,0.016-0.343-0.026-0.506,0.008
			c-0.064,0.013-0.081,0.049-0.109,0.101c-0.021,0.04-0.06,0.062-0.085,0.099c-0.048,0.018-0.081,0.021-0.098,0.044
			C101.798,41.299,101.825,41.338,101.866,41.353z"/>
		<path fill="#1E8346" d="M109.585,41.463c0.135-0.231,0.266-0.662,0.554-0.743c0.295-0.083,0.571,0.02,0.852-0.156
			c0.331-0.207,0.361-0.512,0.147-0.822c0.286-0.103,0.76,0.013,0.905-0.34c0.138-0.335-0.339-0.272-0.542-0.267
			c-0.054-0.116,0.01-0.286-0.077-0.393c-0.075-0.093-0.3-0.123-0.357-0.01c-0.082,0.131-0.256,0.302-0.377,0.404
			c-0.121,0.103-0.268,0.079-0.405,0.146c-0.124,0.062-0.214,0.193-0.32,0.283c-0.197,0.169-0.419,0.345-0.602,0.522
			c-0.141,0.136-0.07,0.319-0.133,0.483c-0.098,0.252-0.425,0.326-0.611,0.49c-0.207,0.182-0.333,0.425-0.367,0.695
			c-0.023,0.174-0.066,0.408,0.002,0.573C108.778,42.238,109.312,41.931,109.585,41.463z"/>
	</g>
</g>
</svg>
