<?xml version="1.0" encoding="utf-8"?>
<!-- Generator: Adobe Illustrator 26.0.3, SVG Export Plug-In . SVG Version: 6.00 Build 0)  -->
<svg version="1.1" xmlns="http://www.w3.org/2000/svg" xmlns:xlink="http://www.w3.org/1999/xlink" x="0px" y="0px"
	 viewBox="0 0 200 200" enable-background="new 0 0 200 200" xml:space="preserve">
<g id="Layer_1">
	<g id="Layer_1_00000061442898653323928190000005571608892069918396_">
		<g id="Layer_1_00000098929087308412571940000004538787532203942811_">
		</g>
	</g>
</g>
<g id="Isolation_Mode">
	<path fill="#1E8346" d="M198.437,116.501c-0.01-0.112,0.008-0.357-0.08-0.448c-0.058-0.06-0.22-0.059-0.299-0.078
		c-0.215-0.051-0.302-0.187-0.411-0.369c-0.104-0.173-0.218-0.337-0.311-0.516c-0.088-0.17-0.169-0.335-0.348-0.398
		c-0.324-0.114-0.728-0.047-1.06-0.017c-0.339,0.03-0.672,0.022-0.991-0.099c-0.239-0.09-0.378-0.274-0.53-0.469
		c-0.104-0.135-0.217-0.232-0.299-0.381c-0.09-0.166-0.167-0.318-0.222-0.5c-0.085-0.283-0.059-0.617-0.044-0.91
		c0.007-0.147,0.002-0.294,0.07-0.429c0.059-0.116,0.155-0.211,0.21-0.33c0.098-0.212,0.134-0.286,0.081-0.49
		c-0.075-0.284-0.224-0.362-0.487-0.459c-0.101-0.037-0.232-0.07-0.327-0.127c-0.114-0.068-0.179-0.186-0.255-0.293
		c-0.138-0.194-0.228-0.409-0.347-0.614c-0.075-0.129-0.213-0.233-0.262-0.375c-0.03-0.088,0.008-0.168-0.055-0.257
		c-0.036-0.051-0.095-0.079-0.14-0.119c-0.228-0.205-0.483-0.376-0.672-0.621c-0.223-0.29-0.558-0.466-0.795-0.747
		c-0.204-0.242-0.307-0.537-0.196-0.843c0.097-0.268,0.296-0.493,0.234-0.792c-0.188-0.013-0.396,0.05-0.568-0.044
		c-0.146-0.079-0.36-0.228-0.333-0.412c0.016-0.114,0.139-0.496,0.231-0.567c0.109-0.085,0.135,0.043,0.265,0.044
		c0.043-0.321-0.012-0.627-0.099-0.932c-0.242-0.113-0.506-0.238-0.637-0.484c-0.198-0.373-0.188-0.836-0.31-1.231
		c-0.169-0.546-0.584-0.865-0.893-1.324c-0.297-0.44-0.587-0.835-0.968-1.21c-0.326-0.32-0.592-0.65-0.819-1.046
		c-0.179-0.313-0.444-0.662-0.351-1.04c0.095-0.388,0.245-0.582-0.189-0.785c-0.396-0.185-1.056-0.134-1.162-0.655
		c-0.097-0.479,0.23-0.95,0.096-1.436c-0.059-0.213-0.221-0.475-0.353-0.633c-0.24,0.223-0.882,0.134-1.192,0.123
		c-0.102-0.234-0.329-0.439-0.466-0.665c-0.163-0.268-0.222-0.536-0.502-0.713c-0.404-0.256-1.049-0.311-1.508-0.437
		c-0.246-0.067-0.489-0.19-0.685,0.027c-0.416-0.334-0.9-0.265-1.381-0.135c-0.313,0.085-0.277-0.075-0.521-0.251
		c-0.201-0.145-0.406-0.096-0.641-0.11c-0.218-0.013-0.41-0.085-0.603-0.174c-0.494-0.228-0.861-0.604-1.483-0.423
		c-0.235,0.069-0.416,0.308-0.65,0.389c-0.244,0.084-0.529,0.058-0.766-0.012c-0.165-0.049-0.371-0.133-0.513-0.22
		c-0.139-0.086-0.147-0.189-0.279-0.287c-0.446-0.331-0.833-0.827-1.195-1.247c-0.216-0.25-0.391-0.651-0.713-0.75
		c-0.19-0.058-0.352-0.067-0.55-0.047c-0.314,0.031-0.633,0.013-0.94,0.077c-0.24,0.05-0.479,0.088-0.688,0.224
		c-0.171,0.112-0.304,0.275-0.468,0.399c-0.196,0.149-0.352,0.226-0.592,0.2c-0.402-0.043-0.696-0.159-0.993-0.435
		c-0.198-0.184-0.401-0.434-0.686-0.282c-0.213,0.114-0.349,0.404-0.613,0.384c-0.227-0.018-0.407-0.205-0.611-0.255
		c-0.159-0.039-0.369-0.001-0.534-0.001c-0.261,0-0.588,0.052-0.838-0.02c-0.172-0.049-0.331-0.185-0.466-0.296
		c-0.381-0.312-0.679-0.661-0.906-1.098c-0.193-0.371-0.439-0.615-0.748-0.894c-0.195-0.176-0.494-0.531-0.732-0.534
		c-0.173-0.002-0.391,0.152-0.518,0.249c-0.112,0.086-0.196,0.219-0.329,0.269c-0.161,0.06-0.409,0.031-0.577,0.036
		c-0.698,0.021-1.383,0.132-2.083,0.087c-0.239-0.216-0.545-0.404-0.815-0.58c-0.244-0.159-0.558-0.212-0.825-0.341
		c-0.279-0.136-0.429-0.38-0.606-0.625c-0.11-0.152-0.194-0.309-0.29-0.47c-0.123-0.206-0.291-0.331-0.463-0.496
		c-0.204-0.196-0.395-0.469-0.662-0.571c-0.423-0.161-0.907-0.041-1.328-0.229c-0.293-0.131-0.412-0.283-0.647-0.473
		c-0.133-0.107-0.406-0.272-0.55-0.181c-0.126,0.079-0.131,0.325-0.271,0.423c-0.101,0.071-0.249,0.102-0.37,0.114
		c-0.218,0.022-0.508-0.023-0.718-0.087c-0.586-0.179-1.193-0.453-1.685-0.823c-0.219-0.165-0.434-0.538-0.746-0.496
		c-0.139,0.019-0.108,0.062-0.215,0.136c-0.108,0.074-0.254,0.077-0.367,0.148c-0.073,0.046-0.135,0.11-0.211,0.155
		c-0.163,0.098-0.276,0.181-0.472,0.208c-0.444,0.063-1.007,0.069-1.446-0.04c-0.148-0.037-0.587-0.191-0.356-0.415
		c-0.253-0.219-0.546-0.76-0.664-1.08c-0.194-0.528-0.109-1.036-0.438-1.529c-0.168-0.252-0.828-0.545-0.854-0.793
		c-0.037-0.355,0.516-0.605,0.496-0.969c-0.008-0.159-0.328-0.77-0.474-0.828c-0.114-0.045-0.365,0.058-0.511,0.037
		c-0.235-0.034-0.446-0.123-0.654-0.226c-0.376-0.186-0.682-0.477-1.034-0.694c-0.301-0.186-0.29-0.559-0.594-0.753
		c-0.402-0.256-0.93-0.345-1.323-0.603c-0.27-0.177-0.396-0.475-0.624-0.694c-0.316-0.304-0.777-0.451-1.201-0.512
		c-0.364-0.052-1.05-0.061-1.294-0.375c-0.167-0.215,0.018-0.458-0.052-0.712c-0.052-0.189-0.207-0.303-0.236-0.509
		c-0.075-0.545,0.231-0.891,0.336-1.387c0.094-0.448-0.203-0.534-0.441-0.804c-0.226-0.255-0.372-0.276-0.732-0.299
		c-0.356-0.022-0.48-0.13-0.826-0.129c-0.871,0.002-2.005-0.057-2.81,0.309c-0.349,0.159-0.618,0.52-0.974,0.645
		c-0.371,0.13-0.872-0.007-1.259-0.057c-0.551-0.072-1.112-0.119-1.644-0.284c-0.506-0.157-1.025-0.437-1.559-0.479
		c-0.36-0.028-0.654,0.102-0.982-0.045c-0.269-0.121-0.287-0.234-0.414-0.502c-0.532-0.029-1.075,0.066-1.59-0.095
		c-0.417-0.13-0.683-0.408-1.136-0.268c-0.32,0.099-0.627,0.339-0.956,0.386c-0.505,0.072-0.874,0.035-1.357,0.247
		c-0.354,0.156-0.674,0.126-1.06,0.14c-0.324,0.012-0.633,0.102-0.948,0.132c-0.228,0.022-0.416-0.017-0.63,0.076
		c-0.161,0.07-0.335,0.253-0.517,0.262c-0.186,0.009-0.33-0.159-0.474-0.247c-0.225-0.138-0.467-0.231-0.696-0.378
		c-0.424-0.27-1.027-0.439-1.526-0.571c-0.886-0.233-1.767-0.396-2.33-1.194c-0.167-0.237-0.367-0.617-0.651-0.741
		c-0.318-0.139-0.839-0.066-1.196-0.066c0.05,0.435-0.415,0.337-0.703,0.338c-0.52,0.001-0.696-0.125-1.112-0.403
		c-0.318-0.213-0.641-0.042-0.934-0.211c-0.273-0.157-0.245-0.596-0.439-0.841c-0.57-0.718-1.894-0.464-2.705-0.571
		c-0.246-0.032-0.393-0.179-0.61-0.275c-0.268-0.12-0.626-0.222-0.92-0.274c-0.569-0.101-1.15-0.107-1.727-0.127
		c-0.542-0.018-1.09-0.013-1.61-0.131c-0.288-0.065-0.417-0.128-0.645,0.07c-0.295,0.256-0.321,0.319-0.745,0.32
		c-0.283,0-0.544-0.048-0.817-0.078c-0.415-0.045-0.677,0.068-1.028,0.254c-0.331,0.175-0.583,0.158-0.944,0.128
		c-0.337-0.028-0.699-0.021-1.016-0.154c-0.204-0.085-0.38-0.255-0.579-0.343c-0.406-0.178-0.906,0.138-1.388,0.09
		c-0.3-0.029-0.97-0.334-1.223-0.133c0.076,0.131,0.124,0.328,0.154,0.475c-0.189,0.07-0.494,0.024-0.708,0.015
		c-0.217-0.009-0.273-0.007-0.386-0.163c-0.105-0.144-0.114-0.295-0.264-0.436c-0.113-0.107-0.228-0.185-0.372-0.253
		c-0.329-0.157-0.656-0.3-0.992-0.434c-0.128-0.051-0.262-0.13-0.396-0.164c-0.169-0.043-0.417,0.04-0.588-0.008
		c-0.176,0.09-0.386,0.191-0.546,0.303c-0.149,0.103-0.275,0.334-0.426,0.389c-0.431,0.16-0.535-0.775-0.807-0.975
		c-0.988,0.602-2.185-0.287-3.186-0.306c-0.61-0.012-1.218,0.141-1.824,0.141c-0.641,0-1.136-0.404-1.724-0.619
		c-0.699-0.256-1.454-0.106-2.171-0.075c-0.683,0.03-1.346-0.009-2.025,0.117c-0.372,0.069-0.658,0.283-1.018,0.371
		c-0.364,0.089-0.893,0.045-1.256-0.001c-0.574-0.074-0.985-0.61-1.542-0.655c-0.002,0.374,0.067,0.511-0.333,0.591
		c-0.318,0.064-0.646,0.006-0.959-0.045c-0.397-0.065-0.68-0.282-0.88-0.63c-0.205-0.357-0.253-0.55-0.702-0.695
		c-0.41-0.132-0.992-0.092-1.423-0.054c-0.372,0.032-1.167,0.141-0.64,0.535c0.134,0.1,0.361,0.074,0.323,0.284
		c-0.026,0.145-0.198,0.163-0.305,0.181c-0.382,0.063-0.843-0.354-1.108-0.589c-0.284-0.251-0.552-0.397-0.884-0.581
		c-0.334-0.185-0.621-0.456-0.985-0.589c-0.242-0.089-0.531-0.13-0.764-0.217c-1.565-0.585-3.307-0.178-4.921-0.64
		c-0.639-0.183-1.244-0.444-1.898-0.57c-1.039-0.2-2.085-0.067-3.133,0.015c-1.05,0.082-2.057,0.356-3.095,0.466
		c-0.368,0.039-1.219-0.048-1.605,0.138c-0.231,0.112-0.282,0.387-0.458,0.548c-0.156,0.143-0.347,0.202-0.544,0.258
		c-1.163,0.331-2.542,0.815-2.464,2.227c0.026,0.469,0.237,0.781,0.374,1.214c0.127,0.403-0.183,0.674-0.513,0.866
		c-0.437,0.254-0.669,0.138-0.318,0.55c0.246,0.289,0.284,0.51,0.284,0.886c0,0.4-0.306,0.446-0.678,0.402
		c-0.442-0.052-0.957-0.198-1.363-0.374c-0.389-0.169-0.701-0.395-1.122-0.49c-0.371-0.084-0.97-0.087-1.31,0.096
		c-0.348,0.188-0.831,0.376-1.104-0.016c-0.161-0.231-0.901-1.001-1.28-0.864c-0.142,0.051-0.25,0.313-0.381,0.403
		c-0.13,0.089-0.33,0.106-0.48,0.142c-0.445,0.108-0.921,0.171-1.378,0.199c-0.462,0.029-0.918,0.047-1.353,0.204
		c-0.277,0.1-0.448-0.059-0.714-0.144c-0.364-0.117-0.723-0.118-1.099-0.081c-0.17,0.017-0.305,0.087-0.466,0.126
		c-0.129,0.031-0.259,0.002-0.366,0.104c-0.403,0.022-0.879-0.247-1.263-0.347c-0.427-0.111-0.881-0.084-1.315-0.025
		c-0.341,0.047-0.8,0.138-1.108-0.062c-0.287-0.186-0.51-0.403-0.87-0.45c-0.453-0.06-0.966-0.034-1.415,0.045
		c-0.388,0.068-0.721,0.26-0.902,0.618c-0.114,0.224-0.076,0.414-0.07,0.657c0.009,0.372-0.281,0.71-0.679,0.6
		c-0.286-0.079-0.365-0.238-0.273-0.5c0.122-0.346,0.132-0.609-0.256-0.748c-0.537-0.193-0.98-0.256-1.538-0.255
		c-0.373,0-0.757,0.002-1.123-0.074c-0.16-0.033-0.258-0.072-0.411-0.031c-0.204,0.054-0.415,0.181-0.6,0.278
		c-0.24,0.126-0.818,0.341-0.92,0.591c-0.056,0.138,0.027,0.287-0.069,0.426c-0.062,0.091-0.187,0.188-0.295,0.224
		c-0.279,0.095-0.628-0.046-0.894,0.101c-0.228,0.127-0.222,0.437-0.287,0.667c-0.08,0.288-0.211,0.61-0.389,0.854
		c-0.373,0.511-0.959,0.678-1.507,0.882c-0.309,0.115-1.086,0.316-1.05,0.776c0.03,0.378,0.411,0.606,0.4,1.004
		c-0.004,0.143-0.188,0.403-0.276,0.52c-0.24-0.109-0.329-0.402-0.55-0.485c-0.157,0.16-0.561-0.008-0.738-0.042
		c-0.294-0.056-0.62-0.018-0.901,0.089c-0.259,0.098-0.523,0.34-0.651,0.585c-0.107,0.206-0.075,0.436-0.087,0.66
		c-0.013,0.235-0.095,0.385-0.278,0.528c-0.149,0.117-0.371,0.16-0.269,0.368c0.093,0.189,0.427,0.205,0.357,0.474
		c-0.105,0.401-0.679,0.432-0.983,0.511c-0.055-0.241-0.033-0.73-0.225-0.906c-0.224-0.204-0.622-0.096-0.864-0.001
		c-0.277,0.109-0.495,0.343-0.686,0.57c-0.159,0.19-0.552,0.477-0.612,0.719c-0.106,0.43,0.701,0.6,0.646,1.016
		c-0.032,0.241-0.512,0.7-0.75,0.713c0.139,0.149,0.318,0.337,0.432,0.503c0.082,0.12,0.061,0.238,0.061,0.397
		c0,0.408,0,0.816,0,1.224c0,0.568,0.035,1.132,0.035,1.701c0,0.539-0.117,1.151-0.524,1.516c-0.252,0.225-0.469,0.263-0.799,0.305
		c-0.245,0.031-0.565-0.005-0.783,0.105c-0.544,0.275-0.534,0.875-0.465,1.402c0.066,0.508,0.434,0.921,0.716,1.335
		c0.169,0.247,0.252,0.58,0.453,0.794c0.193,0.205,0.514,0.065,0.779,0.164c0.255,0.095,0.493,0.242,0.733,0.37
		c0.484,0.259,0.926,0.582,1.398,0.853c0.471,0.271,1.001,0.392,1.539,0.462c0.381,0.049,0.788,0.039,1.167-0.018
		c0.184-0.027,0.372-0.019,0.555-0.049c0.264-0.043,0.519-0.126,0.79-0.138c0.459-0.021,1.128,0.169,1.366,0.601
		c0.117,0.213,0.197,0.483,0.243,0.718c0.031,0.159,0.049,0.43,0.213,0.52c0.173,0.095,0.383-0.023,0.564,0.093
		c0.188,0.119,0.272,0.34,0.446,0.475c0.408,0.319,1.056,0.166,1.493,0.005c1.009-0.372,1.903-1.036,2.925-1.374
		c0.34-0.113,0.75-0.049,1.107-0.049c0.431,0.001,0.788-0.124,1.189-0.277c0.227-0.087,0.479-0.104,0.72-0.052
		c0.138,0.029,0.204,0.125,0.327,0.216c0.377,0.281,0.714,0.309,1.173,0.374c0.319,0.045,0.655,0.044,0.977,0.07
		c0.268,0.022,0.539,0.032,0.804-0.017c0.38-0.071,0.759-0.123,1.113-0.297c0.304-0.149,0.554-0.243,0.904-0.189
		c0.317,0.049,0.53,0.119,0.769,0.32c0.187,0.157,0.401,0.29,0.629,0.375c0.106-0.139,0.121-0.303,0.12-0.47
		c0.464-0.018,1.059,0.045,1.492,0.201c0.46,0.166,1.301,0.407,1.536,0.876c0.187,0.372,0.387,0.67,0.629,1.008
		c0.286,0.4,0.518,0.858,0.84,1.226c0.152,0.173,0.348,0.293,0.385,0.523c0.034,0.21,0.018,0.493-0.008,0.702
		c-0.061,0.493-0.385,0.84-0.371,1.363c0.017,0.619,0.179,1.271,0.497,1.8c0.223,0.371,0.591,0.461,0.96,0.651
		c0.358,0.183,0.7,0.375,1.068,0.536c0.328,0.143,0.825,0.262,0.972,0.623c0.064,0.157,0.11,0.213,0.291,0.257
		c0.247,0.061,0.617,0,0.871,0.002c0.007,0.204,0.156,0.4,0.251,0.573c0.106,0.194,0.18,0.383,0.315,0.555
		c0.144,0.183,0.275,0.364,0.443,0.531c0.084,0.083,0.165,0.167,0.259,0.239c0.058,0.044,0.19,0.09,0.23,0.153
		c0.083,0.132,0.025,0.47,0.026,0.637c0.002,0.281,0.123,0.43,0.307,0.64c0.242,0.274,0.705,0.523,0.834,0.871
		c0.085,0.232-0.032,0.479,0.062,0.712c0.226,0.563,0.316,1.256,0.703,1.737c0.469,0.582,1.478,0.755,2.193,0.787
		c0.249,0.011,0.597,0.121,0.804-0.056c0.115-0.097,0.172-0.249,0.309-0.34c0.215-0.144,0.493-0.161,0.737-0.211
		c0.262-0.053,0.435-0.085,0.631,0.092c0.104,0.094,0.146,0.241,0.24,0.331c0.216,0.206,0.39-0.218,0.61-0.281
		c0.214-0.061,0.488,0.116,0.685,0.194c0.186,0.073,0.38,0.186,0.508,0.35c0.127,0.163,0.108,0.246,0.331,0.246
		c0.201,0,0.363-0.104,0.574-0.062c0.228,0.045,0.55,0.189,0.757,0.298c0.272,0.144,0.401,0.316,0.622,0.521
		c0.288,0.268,0.678,0.598,0.818,0.974c0.117,0.313,0.069,0.664,0.019,0.991c-0.058,0.376-0.325,0.649-0.403,1.019
		c0.172-0.089,0.334-0.112,0.498-0.226c0.133-0.093,0.236-0.28,0.39-0.33c0.228,0.227,0.008,0.792-0.078,1.044
		c-0.118,0.346-0.365,0.778-0.685,0.982c-0.198-0.345-0.063-0.793-0.208-1.159c-0.245,0.098-0.336,0.261-0.271,0.509
		c0.038,0.143,0.133,0.27,0.163,0.417c0.044,0.208,0.087,0.396,0.157,0.599c0.109,0.316,0.143,0.642,0.033,0.957
		c-0.072,0.206-0.32,0.552-0.214,0.728c0.068,0.113,0.238,0.145,0.351,0.191c0.221,0.09,0.396,0.205,0.553,0.383
		c0.257,0.291,0.523,0.538,0.847,0.753c0.277,0.184,0.574,0.379,0.888,0.496c0.292,0.108,0.75,0.128,0.958,0.388
		c0.007,0.343-0.231,0.727-0.242,1.069c-0.011,0.362,0.139,0.655,0.333,0.96c0.209,0.329,0.456,0.703,0.77,0.945
		c0.428,0.329,0.991,0.444,1.426,0.777c0.691,0.529,1.42,1.022,2.137,1.509c0.443,0.301,0.531,0.586,0.499,1.112
		c0.31,0.013,0.59-0.054,0.899-0.083c0.37-0.035,0.644-0.198,0.998-0.289c0.496-0.127,1.035,0.001,1.54-0.045
		c0.297-0.028,0.416-0.182,0.68-0.285c0.333-0.131,0.558-0.105,0.82,0.058c0.4,0.25,0.806,0.252,1.272,0.257
		c0.364,0.004,0.798,0.066,1.152-0.021c0.187-0.046,0.345-0.179,0.513-0.26c0.219-0.105,0.467-0.145,0.711-0.178
		c0.982-0.132,2.036-0.167,3.024-0.088c0.54,0.043,0.978,0.271,1.544,0.206c0.386-0.045,0.822-0.15,1.193-0.274
		c0.54-0.181,1.005-0.218,1.574-0.218c0.317,0,0.605-0.038,0.888,0.12c0.317,0.177,0.581,0.482,0.876,0.699
		c0.73,0.536,1.54,1.304,2.451,1.482c0.894,0.175,1.997-0.075,2.708-0.663c0.454-0.375,1.286-0.456,1.841-0.599
		c0.454-0.118,0.861-0.31,1.329-0.388c0.45-0.075,0.911-0.084,1.366-0.109c1.166-0.065,2.284-0.231,3.355,0.332
		c0.294,0.154,0.552,0.388,0.829,0.576c0.283,0.193,0.585,0.389,0.812,0.653c0.668,0.779,1.723,0.76,2.615,1.211
		c1.046,0.528,2.2,0.978,3.049,1.81c0.69,0.676,1.212,1.501,1.884,2.184c0.235,0.239,0.33,0.301,0.354,0.643
		c0.022,0.316,0.094,0.387,0.392,0.532c0.501,0.244,1.085,0.224,1.578,0.496c0.34,0.188,0.432,0.342,0.641,0.665
		c0.233,0.36,0.533,0.645,0.813,0.963c0.24,0.274,0.162,0.613,0.083,0.955c0.485,0.001,1.229-0.075,1.646,0.157
		c0.297,0.165,0.594,0.491,0.795,0.761c0.472,0.636,0.693,1.364,1.496,1.681c0.41,0.162,0.846,0.237,1.254,0.4
		c0.371,0.147,0.715,0.389,1.095,0.5c0.873,0.256,1.841,0.329,2.723,0.04c0.42-0.138,0.688-0.42,1.016-0.704
		c0.239-0.207,0.642-0.429,0.798-0.702c0.171-0.299,0.159-0.758,0.265-1.089c0.141-0.44,0.198-0.635-0.121-0.992
		c-0.329-0.369-0.789-0.558-1.165-0.87c-0.409-0.338-0.034-0.579,0.067-0.997c0.208-0.86-2.382-0.724-2.542-1.636
		c-0.104-0.592,0.532-0.547,0.646-0.993c0.08-0.311-0.334-0.382-0.54-0.516c-0.225-0.146-0.371-0.296-0.412-0.572
		c-0.08-0.534-0.024-1.437,0.718-1.379c0.335,0.026,0.675,0.217,1.01,0.275c0.35,0.06,0.699,0.09,1.047,0.166
		c-0.104-0.108,0.022-0.353-0.084-0.489c-0.186-0.238-0.657-0.272-0.929-0.298c-0.403-0.039-0.432-0.059-0.617-0.435
		c-0.14-0.285-0.372-0.633-0.241-0.964c0.172-0.434,0.674-0.566,0.78-1.065c0.105-0.49,0.142-0.995,0.253-1.483
		c0.122-0.536,0.447-0.815,0.8-1.206c0.314-0.347,0.598-0.708,0.932-1.036c0.392-0.385,0.652-0.679,1.205-0.805
		c0.529-0.12,0.917-0.115,1.397-0.397c0.199-0.117,0.374-0.295,0.578-0.407c0.272,0.203,0.546,0.404,0.839,0.577
		c0.244-0.144,0.189-0.087,0.255-0.312c0.043-0.145,0.001-0.341,0.084-0.481c0.129-0.217,0.551-0.363,0.791-0.305
		c0.51,0.123,0.216,0.641,0.833,0.66c0.472,0.015,0.703-0.232,1.124,0.053c0.327,0.222,0.482,0.571,0.801,0.807
		c0.256,0.189,0.602,0.317,0.827,0.536c0.553,0.539,0.632,1.575,0.604,2.294c-0.221-0.078-0.394-0.317-0.618-0.421
		c-0.011,0.205,0.045,0.45-0.033,0.642c-0.101,0.245-0.36,0.399-0.492,0.628c-0.254,0.44-0.08,0.609,0.118,1.006
		c0.333-0.164,0.573-0.468,0.908-0.637c0.34-0.171,0.665-0.222,1.043-0.232c0.675-0.017,0.852,0.295,1.286,0.772
		c0.441,0.486,0.864,0.403,1.445,0.155c0.251-0.107,0.432-0.304,0.645-0.467c0.32-0.245,0.522-0.227,0.941-0.234
		c-0.013,0.278,0.057,0.677,0.138,0.944c0.624,0.078,1.24,0.578,1.769,0.044c0.287-0.29,0.655-0.582,1.062-0.668
		c0.442-0.094,0.582-0.087,0.881-0.44c0.262-0.31,0.406-0.774,0.763-0.989c0.266-0.161,0.515-0.113,0.649-0.425
		c0.13-0.302,0.162-0.65,0.266-0.963c0.123-0.371,0.335-0.681,0.566-0.987c0.244-0.323,0.595-0.577,0.645-1.002
		c0.037-0.311,0.009-0.25,0.246-0.467c0.148-0.135,0.255-0.324,0.378-0.476c-0.127-0.102-0.436-0.045-0.625-0.045
		c-0.405,0-0.007-0.979,0.139-1.093c0.164-0.127,0.458,0.076,0.602,0.174c0.179,0.122,0.38,0.27,0.597,0.319
		c0.098-0.275-0.008-0.691,0.023-0.988c0.012-0.117,0.027-0.227,0.082-0.329c0.071-0.133,0.196-0.228,0.231-0.382
		c0.079-0.341,0.242-0.592,0.169-0.941c-0.036-0.171-0.106-0.301-0.113-0.482c-0.007-0.193,0.013-0.396,0.019-0.591
		c0.075,0.008,0.133,0.073,0.188,0.12c0.275-0.039,0.528-0.283,0.713-0.472c0.214-0.219,0.447-0.372,0.716-0.514
		c0.232-0.123,0.477-0.233,0.718-0.333c0.122-0.05,0.269-0.105,0.363-0.202c0.083-0.086,0.102-0.223,0.185-0.305
		c0.175-0.174,0.336-0.132,0.542-0.048c0.107,0.043,0.467,0.173,0.542-0.014c0.083-0.205-0.412-0.479-0.518-0.554
		c-0.22-0.156-0.247-0.321-0.11-0.564c0.248,0.033,0.631,0.487,0.798,0.661c0.26,0.272,0.64,0.692,1.029,0.753
		c0.277,0.044,0.325,0.002,0.525,0.209c0.154,0.159,0.318,0.394,0.516,0.499c0.635,0.336,1.551,0.239,2.228,0.158
		c0.827-0.098,1.578-0.448,2.419-0.451c0.272-0.001,0.575-0.043,0.833,0.04c0.279,0.09,0.545,0.262,0.783,0.428
		c0.222,0.155,0.358,0.369,0.516,0.584c0.103,0.14,0.308,0.36,0.281,0.551c-0.038,0.272-0.563,0.422-0.782,0.464
		c-0.254,0.048-0.375,0.065-0.634,0.03c-0.321-0.044-0.692-0.034-1.006-0.097c-0.423-0.085-0.904-0.024-1.333-0.024
		c-0.431,0-0.931-0.064-1.355,0.02c-0.058,0.268,0.123,0.995-0.32,0.888c-0.306-0.074-0.519-0.374-0.804-0.495
		c-0.276-0.117-0.623-0.115-0.918-0.101c0.026,0.203,0.326,0.205,0.474,0.294c-0.27,0.077-0.747,0.026-1.003-0.065
		c-0.224-0.08-0.438-0.173-0.674-0.22c-0.19-0.038-0.372-0.013-0.563-0.027c-0.512-0.039-0.839-0.078-1.285,0.221
		c-0.256,0.172-0.491,0.33-0.663,0.583c0.097,0.159,0.856,0.38,1.048,0.31c0.209-0.076-0.048-0.114,0.002-0.238
		c0.059-0.147,0.68-0.106,0.792-0.114c0.707-0.05,1.42-0.01,2.129-0.018c0.342-0.003,0.461,0.205,0.776,0.35
		c0.292,0.133,0.691,0.201,1.009,0.237c0.694,0.078,1.304-0.164,1.622-0.804c0.253-0.507,0.707-0.557,1.221-0.405
		c0.462,0.136,0.945,0.207,1.426,0.132c0.621-0.097,1.02-0.642,1.671-0.634c0.501,0.006,0.91,0.022,1.379,0.195
		c0.13,0.048,0.284,0.068,0.396,0.151c0.126,0.092,0.219,0.216,0.353,0.302c0.232,0.148,0.49,0.206,0.764,0.211
		c0.389,0.007,0.759-0.121,1.146-0.02c0.133,0.034,0.204,0.097,0.317,0.171c0.157,0.104,0.348,0.142,0.501,0.245
		c0.221,0.149,0.308,0.421,0.494,0.604c0.187,0.184,0.414,0.32,0.593,0.513c0.086,0.092,0.159,0.249,0.252,0.318
		c0.257,0.192,0.415,0.451,0.686,0.634c0.311,0.211,0.614,0.26,0.87,0.55c0.404,0.459,0.432,0.933,0.539,1.524
		c0.096,0.53,0.494,1.323,0.923,1.671c0.493,0.4,1.454,0.552,2.059,0.382c0.29-0.081,0.544-0.191,0.847-0.228
		c0.281-0.034,0.617-0.179,0.886-0.185c0.376-0.009,0.582,0.292,0.967,0.316c0.478,0.029,0.685,0.028,1.021,0.456
		c0.211,0.269,0.267,0.653,0.544,0.883c0.278,0.231,0.6,0.312,0.96,0.293c-0.187-0.235-0.504-0.34-0.728-0.541
		c-0.367-0.329-0.5-0.791-0.705-1.22c0.593,0.167,1.175,0.454,1.784,0.557c0.849,0.145,1.75,0.044,2.605,0.018
		c0.481-0.015,0.991,0.033,1.463-0.081c0.313-0.075,0.501-0.333,0.804-0.43c0.431-0.139,0.987-0.041,1.435-0.041
		c0.526,0,1.02-0.03,1.542-0.104c0.934-0.133,1.873-0.04,2.812-0.1c0.777-0.05,1.527-0.147,2.31-0.134
		c0.487,0.008,1.02,0.311,1.513,0.424c0.484,0.111,0.924,0.108,0.967,0.692c0.306,0.128,0.599-0.038,0.883-0.137
		c0.307-0.107,0.595-0.089,0.72-0.429c0.132-0.363-0.023-0.811,0.051-1.189c0.084-0.428,0.536-0.727,0.965-0.763
		c0.184-0.015,0.415-0.021,0.597-0.052c0,0.292-0.236,0.57-0.28,0.867c-0.028,0.19-0.031,0.623,0.1,0.767
		c0.183,0.203,0.685,0.209,0.941,0.185c0.421-0.04,0.787-0.29,1.097-0.566c0.416-0.371,0.79-0.665,1.365-0.734
		c0.318-0.038,0.627-0.01,0.948,0.009c0.221,0.013,0.542,0.106,0.741,0.075c0.301-0.047,0.368-0.288,0.524-0.474
		c0.148-0.177,0.324-0.273,0.555-0.32c0.523-0.105,1.087,0.081,1.609-0.074c0.054-0.308,0.243-0.894,0.533-1.008
		c0.254-0.101,0.578,0.026,0.839-0.083c0.151-0.064,0.427-0.098,0.525-0.228c0.199-0.266,0.812,0.14,1.042,0.238
		c0.148,0.062,0.428,0.179,0.593,0.112c-0.085-0.116,0.016-0.328,0.159-0.375c0.145-0.048,0.336,0.045,0.494-0.014
		C198.49,117.071,198.463,116.781,198.437,116.501z"/>
</g>
</svg>
