<?xml version="1.0" encoding="utf-8"?>
<!-- Generator: Adobe Illustrator 26.0.3, SVG Export Plug-In . SVG Version: 6.00 Build 0)  -->
<svg version="1.1" id="Layer_1" xmlns="http://www.w3.org/2000/svg" xmlns:xlink="http://www.w3.org/1999/xlink" x="0px" y="0px"
	 viewBox="0 0 200 200" style="enable-background:new 0 0 200 200;" xml:space="preserve">
<style type="text/css">
	.st0{fill:#1E8346;}
</style>
<g id="Layer_1_00000038396539769139779680000014573321663356509835_">
	<g id="Layer_1_00000061442898653323928190000005571608892069918396_">
		<g id="Layer_1_00000098929087308412571940000004538787532203942811_">
		</g>
	</g>
</g>
<g id="Isolation_Mode">
	<g>
		<path class="st0" d="M194.9,112.4c-0.3-0.3-0.5-0.5,0.1-0.7c-2.8-1.7-1.3-2.9-2.1-5.4c0-0.5-0.2-0.4-0.6-0.8
			c-0.3-0.3-0.1-0.3,0-0.7c0-0.5-0.5-0.7-0.5-1.3c-0.4-0.2-1.1-0.9-0.6-1.3c-0.4-0.3-0.6-0.6-0.5-1.2c-0.6,1.1-1.7-0.1-1.8-0.9
			c-0.2-0.5,0.3-1,0.2-1.4c-0.4-0.3-0.6-0.7-0.2-1.1c-0.7-0.8-1.3-1.7-1.7-2.7c-0.5-0.7-1.3,0.6-1.4-0.5c-0.2-0.7-0.1-0.9,0.3-1.4
			c0.1-0.5-0.1-1.1,0.6-1.3c0.5-0.7-0.3-0.9,1-0.7c-0.4-0.5-1.1-1.6-0.3-2c0.5-0.2,1.1,0.6,1.2-0.1c0.1-0.7-0.5-0.4-0.8-0.7
			c-1.4,0.4-2.6,0-3.8-0.9c-1.2-0.3-1.6-0.8-1.1-2c-0.3-1.5-0.7,0.1-1.2-0.5c0-0.5,0.1-1.1-0.5-1.4c-0.7-0.3-0.8-1.2-1.5-1.2
			c0,0.3,0.3,0.5,0.3,0.8c-0.7-0.1-0.8-0.7-1.2-1.1c-1-0.6-1.8-1.3-2.2-2.4c-0.3-0.4-1.4-0.5-0.6-1.1c0.6-0.5-0.5-0.4-0.5-1
			c-0.3-0.7-0.3-1-1.2-1.3c-0.4-0.3-0.2-0.2-0.2-0.6c-0.4-0.9-1.3-1.7-2.1-2.2c-0.1,0.4,0,1,0.2,1.3c-0.1,0-0.2,0-0.2,0
			c-0.5-1.3-1.9-1.8-2.6-3c-0.5-0.5-1.5-0.6-1.4-1.4c-0.6-0.1-0.9-1.1-1.5-1.4c-0.5-0.3-1.2-0.2-1.8-0.3c-0.4-0.4-1.9-1-2.6-1.2
			c-0.8,0.2-1.4-0.2-1.9-0.7c-1.1-0.5-2.3-0.7-3.1-1.6c-0.4-0.2-1,0.2-1.4-0.2c0-0.4-0.3-0.4-0.6-0.4c-0.2-0.1-0.5-0.4-0.6-0.1
			c-0.4,0-0.3-0.3-0.4-0.5c-0.2-0.5-0.6-0.2-0.9-0.6c-0.4,0.1-0.5-0.1-0.8-0.3c-1.4,0.5-3-1.7-4-0.1c-0.6,0.5-1.3-0.5-1.9-0.4
			c-0.3,0.1-0.1,0.7-0.7,0.4c-0.2-0.1-0.2-0.5-0.4-0.5c0,0.1-0.1,0.1-0.1,0.2c-0.6-0.1-0.8-0.5-1.3-0.7c-0.7,0.2-1.2,0.4-1.9,0.1
			c-0.3,1.1-1.2,0.5-1.8,0.3c0.3,0.8-0.4,0.7-1,0.6c-0.3,0-0.7,0.2-1,0c-0.5-0.2-0.2-0.5-0.4-0.9c-0.3-0.5-1.8-0.6-2.2-0.4
			c-0.6,0.4-0.8,1-1.5,0.3c-1,0.1-1.5-1.7-1.1-2.5c0.8-0.8,2.3-0.3,3.2-0.9c1.2-1.1-4.9-0.1-5.5-0.3c-0.2,0-0.2,0.2-0.3,0.3
			c-0.5,0-0.8-0.2-1.2,0.2c-1.3,0.4-2.7-0.6-4.1-0.7c-0.1-0.1-0.3-0.3-0.3-0.4c-1.1,0.3-2-0.2-3.1-0.3c-0.2,0-2-0.8-1.8,0
			c-0.3,0-0.7-0.2-1-0.2c-0.4,0.2-0.6,0.3-0.9-0.1c0.4-1-1-1.9-1.4-0.8c-0.2-0.1-0.7-0.2-0.7,0.3c-0.7-0.4-1.1,0-1.5,0.6
			c-0.4,0.3-1.5,0.6-1.3,1.2c0.1,0,0.2,0.1,0.3,0.2c-0.4,0.4-0.7,1.3-0.9,1.8c-0.4,0.1-0.5,0.3-0.7,0.6c-0.4,0.2-0.6,0.2-0.5,0.6
			c-0.2,0.8-1.2,0.3-1.7,0.8c-0.7,0.4-0.8,2.4-1.7,1.7c-1.4-1.3-1.4,0-1.7,1.1c-0.1,0.2-0.4,0.3-0.6,0.5c-0.2,0.3,0.1,0.8-0.3,1
			c0-0.1-0.1-0.1-0.1-0.2c-1.1,0.3-0.8-0.7-0.7-1.4c-0.6-1.5-1.8,0.9-2.2,1.5c-0.2,0.2-0.6,0.1-0.5,0.5c-0.9,0.2-1.4,1.5-1.9,2.1
			c-1.8,0.7-3.5,2.1-5.5,2.2c-0.5-0.1-1,0-1.3,0.4c-0.4,0.2-0.9,0-1.3,0.1c-0.4,0.5-1.1,0.4-1.7,0.3c-4.5,1.1-9,3.1-12.6,6.1
			c-1.7,2.7-2.5,2.5-5.3,3.2c-3.6,2.1-7.8,2.6-11.8,2.9c-1.6,0.7-2.9-1-4.5-0.4c-0.2,0-0.2,0.1-0.4,0c-0.6-0.4-1.4,0-2.1,0
			c-2.7-1.2-4.7-3.9-6.4-6.2c-0.3-1.1-0.9-1.8-2-2.2c-0.3-0.7-1.1-0.6-1.7-0.5c-0.6-0.1-0.6-0.5-0.8-1c-0.4-0.5-0.4-0.8,0.3-1
			c-0.2-0.3-0.6-0.5-0.9-0.6c-0.5-0.7-1-1.8-2.1-1.4c-0.4,1.3,1.7,0.4,1.3,1.5c-0.3,0.4-0.5-0.2-0.8-0.2c-0.3,0.2-0.5,0.1-0.7-0.1
			c-2.2,0.3,1.5,1.4,1.7,2.4c0.5,1.2,1.3,2.1,2.6,2.2c1.5,0.4,0,3.6-0.9,1.9c-0.3-0.4-0.8-0.1-1.2-0.3c-0.5-0.2-1.4,0.5-1.5-0.5
			c-0.2,0-0.3-0.1-0.5-0.1c-1.1-1.3,0.7,2.5-2.6,0.9c-0.6-0.3-1,0.2-1.5,0.3c-0.5,0-1,0.1-1.1,0.6c-0.3,0-0.6-0.2-0.9-0.2
			c-0.6-0.2-0.9-1.2-1-1.8c-0.2,0-0.6,0.1-0.6-0.2c-0.5,0-1.2-1-1.2,0c-2.4,0-2.1-0.9-1.9-2.9c0-0.5-0.4-0.4-0.7-0.6
			c-0.3-0.3-0.2-0.6,0.2-0.5c-0.1-0.3-0.1-0.5-0.1-0.7c-0.8-0.4,0.2-0.5,0.3-0.9c0.5-1.3,2.6,0.6,3.2,1c0-1.8,1.2,0.4,1.9,0
			c0-0.7,0-1.4,0.8-1.5c-0.1-0.4-1.2,0-1.1-0.5c0.4-0.1,0.1-0.3,0-0.5c-0.3-1.2-1.4-0.9-1.6,0.2c-0.3,0.4,0.1,1.6-0.5,1.4
			c-0.5-0.5-0.5-0.8-0.1-1.2c-0.6,0.2-0.7-0.3-0.9-0.7c-0.7-0.4-1.2-0.2-0.9,0.6c-0.3,0.5-0.7-0.2-0.7-0.5c-0.6-0.7-0.3-1.3,0.5-0.6
			c-0.3-0.7-0.6-1.5-1.1-2.2c-0.5,0.7-0.6,0-1.1,0.1c0.1,0.8-0.2,2,0.6,2.5c0.8-0.1,1,1.4,0.2,1.1c-0.5-0.2,0.1-0.8-0.3-1.1
			c-0.3-0.2-0.3,0.1-0.3,0.2c0.3,0.8-0.5,0-0.6,0.6c-0.8,0.1-1.4-0.4-1.8-0.9c-0.2-0.4,0.2-0.8-0.2-1.1c-0.5-0.1-1.4-0.7-0.7-1.1
			c0.3-0.1,0.6,0.3,0.9,0.1c1-0.6-0.3-1.3-0.7-1.8c-0.4-0.7,0.9-1.2,1-1.7c0-0.3,0-0.5,0.1-0.8c0.5-0.4,0.3-1.1-0.3-0.7
			c-0.2,0.2,0,0.4-0.4,0.4c-2-0.1-2.7-2.9-4.6-2.9c0.4-1.2-0.6-0.3-0.4-1.3c0-0.4-1.5-1.4-1.1-0.4c0,0.1,0.3,0.5-0.1,0.4
			c-0.3-0.3-1.2-0.9-1.3-0.1c0.1,0.3,0.3,0.5,0,0.8c-0.1,0.2-0.2,0.6-0.4,0.7c-0.3,0.2-0.6-0.1-0.7,0.3c-0.3,0.1-1-1-1-0.2
			c-0.2,0-0.2-0.2-0.3-0.3c-0.1-0.1-0.4,0-0.6,0c0-0.3-0.4-0.7-0.1-0.9c0.2-0.4-0.5-0.8-0.6-0.4c-0.5-0.1-0.4-0.7-0.9-0.7
			c-0.2-0.2-0.1-0.7-0.5-0.7c0,0.1,0,0.2-0.1,0.3c-0.3-0.1-0.6-0.1-0.9-0.3c-0.1-0.2,0-0.6-0.4-0.5c-0.7,0.9-1.2-0.8-1.9-0.5
			c-0.4,0.1-0.1,0.8-0.7,0.8c-0.3,0.1-0.2,0.1-0.1,0.4c0,0.4-0.3,1,0.3,0.8c0.1,0.3-0.2,0.3-0.2,0.5c0,0.2,0.2,0.5,0.4,0.6
			c1,0.2,0.1,0.8-0.3,1.1c-0.6,0.2-1.6,0.1-2,0.6v13.2c0.6,0,1.1-0.1,1.5-0.4c0.2,0.4,0,1,0.7,1.1c0.3,0.1,0.5,0.3,0.6,0.5
			c0.3,0.2,0.8,0.2,1.1,0.4c0.6,1.5,2.5,0.5,2.9,2.5c0.7,0.8,1.1,1.4-0.3,1.6c-0.5,0.2-0.4,0.7-0.7,1c-1.3,0.3-2.9,0.5-3.8,1.5
			c0,0.8,0.9,0.4-0.1,1.3c0.2,1.4-1.3,0.1-1.1,1.3c0.1,0.4,0.1,0.3,0.4,0.6c0.4,0.4,0.1,1.1,0.7,1.3C8,87.4,8.2,87,8.3,87.7
			c-0.2,1,1.8,1.6,0.7,2.5c0.7,0.5,0.1,0.4,0.2,1c0.1,0.2,0.4,0.3,0.3,0.6c-0.8,0.6-0.1,1.6-0.3,2.5c-0.3,1.4-1.8,2.3-3.1,1.9
			c-0.6,0.4-1,1.5-1.7,2c-0.6,0.1-0.7,0.5-1.2,0.8c-1.3,0.4-1.3,0.9-0.1,1.4c0.4,0.4,0.6,1,1.1,1.1c0.5-0.7,1.7,0.3,1.7,1
			c0,0.9,0.1,1.6,0.8,2.2c-0.6,1.3,1.2,2.5,0.5,3.9c-0.7,1.5,1,1.4,1.1,0.1c0.7-0.7-0.4-1.3-0.5-2c-0.5-6.4,0.7-5.6,6.1-6.8
			c1.8-0.3,7.3,3.7,7.3,1c0.6-0.1,0.2-1.1,1-1c0,0,0,0.1,0,0.2c-0.9,0.3,0.3,0.8,0.5,1.2c0.4,0.2,1.2-0.3,1.5-0.5
			c0.7,0.5,1-0.6,1.4-0.9c0.2-0.1,1.6-0.9,1.4-0.2c-1.2,0.1,0.5,1.6,1.1,1.4c1-0.2,0.1-2.5,1.4-1.7c0.3,0.1,1.4-0.2,1.2,0.3
			c-0.8,0-1.7-0.3-0.8,0.8c-0.2,0-0.4,0-0.6,0.1c0.1,0.4-0.2,0.5-0.2,0.9c-0.1,0.5,0.1,1,0.2,1.4c-0.9,0.9,0.7,0.5,0.9,1.3
			c0.5,0.2,0.8-0.8,1.2-0.2c-0.6,0.2,0.1,0.4,0,0.7c0,0.2-0.4,0.7,0,0.7c0.3,0,0.2-0.2,0.2-0.4c-0.2-0.9,0.8-0.8,1.1-1.5
			c0.9,0.2,1.9,0.2,2.8,0.3c1.3,0.6,1.3,0.5,2.4-0.6c-1.1,1.8,0.7,1.5,1.9,1.8c0.8,0,5.3,2.9,4.1,0.6c0.8,0,1.5-0.3,0.2-0.5
			c0.3-2.1,1.9,2.2,2.2,2.7c0.3,0.3-0.1,0.4-0.4,0.3c-0.3,0.1-0.3,0.4-0.6,0.3c-0.2-0.1-0.5-0.4-0.5-0.1c-0.1,0.6,0.7,0.4,0.9,0.7
			c-0.2,0.7-0.1,0.9,0.6,1.1c0.4,0.3,0.7,0.9,1.1,1.1c0.4,0.6,0.3,1.6,1.1,1.7c0.3,0.3,0,0.8,0.3,1.1c1.4,0.6,0.4,0.4,0.1,1.3
			c0.2,0,1.5-0.6,1.2,0.3c-0.4,0,0,0.4,0,0.6c0,0.2-0.2,0.4-0.3,0.6c-0.2,0.6,0.4,0.9,0.3,1.4c0,0.2-0.2,0.4,0,0.6
			c0.4,0.2,0.9,0.8,1.3,0.8c-0.2-0.7-0.3-0.8,0.7-0.7c0.3,0,0.8,0.3,0.5,0.7c-0.2,0.3-1.1,0.1-0.9,0.7c0.1,0.3,0.5,0.4,0.7,0.4
			c0.7,0.2,1.6-0.2,2.2,0.3c0.3,0.9,1,0.8,1.7,0.6c0.6,0.6,1.4,0.6,2.2,0.8c0.2,0.1,0.4,0.3,0.6,0c0.7,0.6,1.4,0.9,2.1,1.4
			c0.6,0.9,1.3-0.5,1.3-1.1c0-0.4-0.1-0.8,0-1.2c0.1-0.3,0.4-0.5,0.2-0.8c-0.3-0.5-1,0.2-1.4,0c0.8-0.3,0.3-0.9,0.4-1.5
			c0,0,0.1,0,0.2,0.1c0,0.2-0.1,0.4-0.1,0.6c1.2-0.3,2.1-1.5,1.7-2.8c-0.4-0.3-0.2-0.6-0.2-1c-0.7-0.1-2.1-1.2-0.9-1.5
			c-0.1-0.1-0.3-0.2-0.4-0.3c0.9,0,0.8,0.7,0.1,0.9c1,0.1,3.5,2,3.9,0.5c0.9,0.1,0.5-1.5,1.3-1.8c-0.5,1.1,0.3,2.4-0.5,3.3
			c-1.3,0.9-0.3,2.2,1,2.2c-0.3,0.5-0.4,1-0.1,1.5c0.1,0.3,0.4,0.3,0.2,0.6c-0.1,0.2-0.5,0.2-0.5,0.4c-0.1,0.5,0.8,0.8,1.1,1
			c0.3,0.7,1.2,0.7,1.4,1.4c-0.3,1,1,1,0.9,1.8c-0.2,0.3-0.3,0.5-0.3,0.9c-0.1,0.4-0.4,0.4-0.2,0.9c0.1,0.7,0.6,0.8,1.1,1
			c0.4,0.5,0,1.4,0.1,2c0.2,0.6,0.8,1.1,0.9,1.8c0.1,0.7-0.4,0.8-0.8,1.2c-0.3,0.4,0,0.5,0.1,0.8c0.1,0.7-0.8,1.4,0.2,1.7
			c1-0.1,0.8,1.8,1.5,1.3c0.6-0.8,1.7-0.2,2.5-0.2c1.6-0.5,3.5,0.1,5.1-0.6c1.3,0.1,2.7-1,3.8-0.3c1.1-0.9,2.8,0.5,3.3-1
			c0.7-0.5,0.9-1.5,1.8-1.6c0.5-0.1,0.8,0,0.7-0.6c-0.9-1.2,0.3-2.4,1.4-2.8c0.3-0.1,1.6,0,1.4-0.5c0.5,0,0.8,0.4,1.3,0.3
			c0.7-0.3,1.1,0,1.8,0.3c1.6-0.7,3.6-0.8,5.2-1.5c1.5-2-1-4-1.3-6c-2-1.9-3.9-4.2-5.8-6.3c-1.4-0.4-2.1-1.8-3.1-2.6
			c-0.5-4.3-3.4-2.5-4.7-4.9c-0.3-0.6-1.1-0.9-0.6-1.7c0.1-0.8-0.5-1.8-0.2-2.6c0.1-0.2,0.3-0.2,0.4-0.4c-0.3-0.3-0.2-1.2,0.4-1.1
			c0.5,0.4,0.6-0.3,0.8-0.6c0.4-1.3,1.5-1.8,2.8-1.7c0.8-0.3,1.5-0.5,2.4-0.2c2.5,0.3,4.6-1.8,6.7-3c1.8-1.1,3.9-1.8,4.9-3.8
			c0.7-0.6,1.7-0.5,2-1.5c2-0.5,4-1.5,5.4-3.1c0.8-1.6-1.4,0.9-1.9,0.8c-0.8,0-1.9-0.5-2.4-1c0.4-0.3,1.3-0.5,1-1.2
			c0.4,0.8,1.2,0,1.4-0.6c0.9-1.5-1.5-3.7,0.9-4.9c0.8-2,1.8,0.1,2.1-1.3c0.1-0.6,0.6,0,1-0.1c1.7,0,2.2-0.2,2.4-1.8
			c0.2,0.1,0.3,0.3,0.5,0.3c0.2-0.5,0.5-0.6,0.6-1.1c1.3,0.4,1.7-1.7,2.9-1.7c3.1,0.1,6.3-0.4,9.3,0.3c1.6,1,2.1-1,1.9-2.3
			c1.3,0.8-1.5,3,0.6,3.1c0.5,0.2,0.9,0.3,1.4,0.3c1.3,1.2,3.7,1,4.7,2.7c0.5,1,0.8,2.2,1.8,2.9c0.2-0.3,0.4-0.5,0.5-0.8
			c0.5,1.2,1.1,1.8,1.3,0c0.4,0.6,1,0.7,0.9,1.6c0.3,0.6,1.1,1,1.7,1.3c1-0.1,1.1,0,0.7,0.9c0.2,0.5,0.7,0.3,0.8-0.1
			c0.3-0.4,1-0.3,0.7,0.3c-0.1,0.3,0,0.7,0.3,0.9c0.1,0.2,0,0.6,0.3,0.5c0.1-0.3,0.4-0.4,0.7-0.3c0.5,0.1,0.4,0.6,0.8,0.8
			c0.4,0.1,0.7,0.7,1,0.3c1,0.3,0.4,1.1,0.7,1.7c0.2,0.2,0.4,0.3,0.3,0.5c-0.3-0.5-1.3-0.2-0.9,0.4c0.2,0.4,0.6,0.5,0.8,0.8
			c0,0.3,0.1,0.6,0.4,0.7c0.5,0.4-0.3,1.4-0.1,2c0,0.4,1.3,1.6,1.1,0.7c0.1-0.1,0.2-0.1,0.4-0.1c0.1,0.7,0.3,1.4,0.4,2
			c0.4,0.2,0.6,0.6,1,0.9c1.5,1.3,1,0.2,1.3-0.9c1.3-0.8-0.3-1-0.2-1.8c0.6-2.5-1.8-2.6,0.1-3.6c-0.4,0.7,0,1.3,0.1,2
			c0.2,0.6-0.1,1.7,0.5,2c0.3-0.5,1.3-0.7,1.1-1.4c0.4,0.2,0.2,0,0.4-0.2c0.5,0.3,0.4,1.6,1.3,1.1c0.1-0.4,0.2-0.9,0.6-1
			c-0.2,0.6,0.4,0.6,0.7,0.9c0.4,0.5,0.4-0.3,0.4-0.6c-0.1-0.5,0.3-0.9,0.3-1.4c0-0.5-0.7-0.5-0.5-1c0.7,0.4,0.9,1.1,0.5,1.9
			c-0.1,0.2,0,0.3,0.2,0.5c0.5,0.5-0.5,1.3-1,0.9c0,0.4-0.2,0.5-0.5,0.7c-0.4,2.2,2,0.9,2.6-0.1c0.1-0.7-0.1-1.5,0.9-1.7
			c1-0.1,0.9,1.7,1.7,1.9c0.5-0.3,0.1-1.5-0.2-1.8c-0.5-0.5,0-1,0.2-1.5c0-0.3-0.3-0.2-0.5-0.3c-0.7-0.2-0.3-1.1-0.5-1.6
			c0.4,0.5,0.3,1.3,1,1.7c0.2,0.1,0.6,0.2,0.5,0.5c-2.1,0.5,0.6,1.7,0.5,2.8c-0.2,0-0.2,0.8-0.2,0.9c0,0.8,0.8,1.1,0.9,1.9
			c1.3,1.9,0,2.5,3.1,2.9c0.8,0.4,2,0.4,2.5,1c0.2,0.7,1,0.8,1.3,1.5c0.3,0.8,0.8,1.5,1.7,1.8c-0.1,0.4-0.1,1,0.5,1.1
			c0.3-0.2,0.2-0.8,0.6-1c-0.3,0.2-0.3,0.4-0.4,0.8c-0.2,0.8-1.2-0.3-0.8-0.8c-0.7-0.2-0.9-0.7-1.6-0.7c-0.4-0.3-0.1-1.1-0.5-1.4
			c-0.7-0.7-1.5-1.4-2.6-1.4c-0.2-0.1-1.2-0.7-1.2-0.1c0.3,0,0.9,0.8,1,1.1c-0.9-0.1-1.3-1.3-2.2-1.2c0,0.1,0,0.2,0,0.3
			c-1.3-0.2-0.7-2-1.5-2.7c-1.4-0.8-2.2-2.4-3.1-3.7c-0.4-0.2-0.1-0.4-0.1-0.7c-0.2,0-0.3-0.2-0.5-0.1c0.1,1.1,0.4,2.2-0.4,3.2
			c-0.3,0.4-0.4,0.5-0.3,1c0.4,0.6-0.4,0.7-0.6,1.2c-0.2,1-1.4,0.2-1.8-0.4c-0.1,0.3-0.4,0.4-0.5,0.7c0.6,0.9-0.6,0.6-1,0.8
			c0,0.6,0.6,1.2,1,1.7c0.3,0.3,0.7,0.3,0.7,0.8c0,0.8,0,1.7-0.5,2.3c-1,0.5-1.7,1.8-2.9,1.5c-0.6-0.4-0.8,0.3-1.4,0
			c-0.7-0.1,0-1.5-0.7-1.3c-1.4,0.7-1.4,1.7-0.4,2.8c0,1.3,0.5,2.4,0.9,3.6c0.6,0.9,1.8,1.2,2.2,2.3c0.3,1.4,1.3,2.7,1.8,4
			c0,0.5-1.4,0.8-0.4,1.3c1.2,0.2,1.8,0.8,2.3,1.8c1.4,1,0.2,1.2,0.6,2.2c0.5-1.3,1.1-0.4,0.7,0.6c0,0-0.1,0-0.1,0
			c-0.1,0.9,1,1,1.6,1.4c0.6,0.5,0.7,1.4,1.3,1.8c0.4,0.3,0.4,0.5,0.5,1c0.4,0,0.6-0.1,1-0.3c0.4,0.3-0.1,1,0.2,1.4
			c0.1-0.3,0.5-0.2,0.6,0.1c-1.2,2.1,3.7,3.8,4.4,5.5l2.5-7.9c0.7,0.1,0.8-1.5,1.3-0.2c0.9-0.5,1.5,1.5,2.1,0.4
			c0.5-0.6-0.3-1.2,0.2-1.8c0.2-0.4,0.1-0.3-0.1-0.6c-0.7-0.9-0.8-2-1.2-3c0.1-1.9-0.1-4.1,2.3-2.2c1.8,0.8,2.8,8.9,4.9,3.5
			c0.2-0.4,0.9,0.2,1.2,0.2c-0.1-1.1,0.3-2.2,1-3c0.3-0.2,0.5,0,0.7-0.4c-0.2-0.8,0.9-1.1,0.8-2c0.6,0.1,0.4-0.8,0.7-1.1
			c0.2-0.2,0.5-0.1,0.5-0.5c1.5,0.6,1.1-0.7,0.6-1.5c-0.4-1,0.4-1.6,0.9-2.3c1.1-1.7,3.6-0.9,5.4-1.4
			C195.2,112.9,195.1,112.6,194.9,112.4z"/>
		<path class="st0" d="M35,72.4c0.3,0.4,1.6,0.4,1-0.3c-0.7-0.3-0.3-1-1.2-1.1C35.1,71.6,34.3,72.3,35,72.4z"/>
		<path class="st0" d="M25.9,63.7c0.7,0.4,1,1.3,1.9,1.6c0.2,0.1,0.5,0.2,0.3,0.5c0,0.5,0.3,0.1,0.4-0.1c-0.3-0.1-0.3-0.3,0-0.5
			c0.3-0.2,0.1-0.5,0.2-0.7c0.4-0.4-0.4-0.8-0.5-1.2c-0.3-1.2-1.9-0.7-2.3,0.1C25.7,63.4,25.7,63.5,25.9,63.7z"/>
		<path class="st0" d="M29.8,66.6c0,0.1-0.1,0.2,0,0.3c0.3-0.1,0.4,0,0.4,0.3c0.3,0.1,0.8-0.1,1.1,0.1c0.7,0.4-0.4,1.6,0.5,1.5
			c0.1-0.1,0-0.1,0.1-0.2c0-0.4,0.7-0.2,0.8-0.5c-0.1-0.8,0.7-0.5,1.2-0.7c-0.2-1-0.5-0.6-1.2-0.9c-0.5-0.5-1.1-1-1.9-0.9
			c-0.3,0.1-0.4,0-0.6-0.3c-0.2,0-0.5,0.1-0.4,0.3c0.1,0.7,1.3,0.1,1.4,0.8c0.9,0.7-0.5,0.5-0.8,0.1C29.6,65.8,29,65.9,29.8,66.6z"
			/>
		<path class="st0" d="M25.2,68.9c-0.7,0.1,0.5,0.6,0.6,0.9c0.4,0.2,0-0.7-0.1-0.8C25.5,69.1,25.3,69.1,25.2,68.9z"/>
		<path class="st0" d="M139.6,96.8c-0.3-0.7-0.2-1.7-1.2-1.9c-0.1,0.1-0.2,0.3-0.3,0.4c-0.2-0.3-0.6-0.2-0.8,0.1
			c-0.3,0.2-0.5,0.2-0.8,0.1c-0.5,0-1.2,0.3-1.4-0.4c0.2,0,0.7-0.2,0.6-0.5c-0.2-0.6-1,0.6-0.9-0.1c-0.4-0.5-0.4,0.2-0.2,0.5
			c0,0.2-0.2,0.2,0.2,0.3c1.2,0.2,1.6,2.3,1.2,3.1c-0.1,0.4,0.6,0.6,0.4,1.1c0,0.7-0.2,0.5-0.6,0.8c-0.2,0.5,0.6,0.8,0.9,1
			c0.7,0.5,0.1,2.1,1.3,2c0-0.5-0.2-0.9-0.4-1.4c-0.2-0.5,0.3-1.4,0.8-1.3c0.3,0,0.6,0.1,0.9,0.2c1,0,0.9-2.1,0.5-2.7
			C140.3,97.5,140.4,97,139.6,96.8z"/>
		<path class="st0" d="M130.9,100.3c-0.6,0.5,0.2,1.7-0.6,1.9c0.1,0.3,0.3,0.6,0.2,1c0.2,0.5,1,0.5,0.9-0.1c0.3-0.5-0.3-1.3,0.7-1
			C132.3,101.3,131.9,100.2,130.9,100.3z"/>
		<path class="st0" d="M132.2,96.8c-0.1-0.2-0.2,0-0.3,0.1c-0.6,0.2-1-1.3-1.2,0.1C131.6,97.7,132.3,98.6,132.2,96.8z"/>
		<path class="st0" d="M140.6,97.5c-0.3,0.1,0,0.5-0.3,0.6c0.2,0.1,0.6,0.3,0.8,0C141.2,97.9,140.9,97.3,140.6,97.5z"/>
		<path class="st0" d="M139.9,101.2c-0.3,0-0.2,0.4,0,0.5C140.2,101.7,140.3,101.2,139.9,101.2z"/>
		<path class="st0" d="M133.1,93.9c-0.4-0.2-0.6,0.5-0.2,0.6C133.2,94.6,133.3,94.1,133.1,93.9z"/>
		<path class="st0" d="M133.9,93.3c-0.4,0.3-0.3-0.2-0.6,0c-0.1,0.2,0.3,0.1,0.3,0.3c-0.2,0.3,0.2,0.4,0.4,0.5
			c0-0.2-0.1-0.3-0.1-0.5C134.1,93.5,134.1,93.3,133.9,93.3z"/>
		<path class="st0" d="M133.9,89.7c0-0.2-0.1-0.2-0.2-0.1c-0.3,0-0.5-0.1-0.8,0c-0.2,0.1-0.4,0.6,0,0.6
			C133.2,90,133.6,89.9,133.9,89.7z"/>
		<path class="st0" d="M134.1,90.7c-0.1,0.1-0.4,0.2-0.3,0.4C134,91.3,134.4,90.9,134.1,90.7z"/>
		<path class="st0" d="M116.8,84c-0.1-0.1-0.1-0.2-0.2-0.3C114.9,84.1,118.3,85.4,116.8,84z"/>
		<path class="st0" d="M117.9,83.5c-0.2,0.6,0.6,0.3,0.3-0.2C118,83.4,117.9,83.4,117.9,83.5z"/>
		<path class="st0" d="M130.6,78.9c0,0.1,0,0.2,0.1,0.2C131.1,79.3,130.7,78.3,130.6,78.9z"/>
		<path class="st0" d="M65,119.3c-1.3,0,0.3,1.1,0.9,1c0.8-0.3-0.1-1.6-0.8-1.5C65.1,118.9,65.2,119.2,65,119.3z"/>
		<path class="st0" d="M66.6,116.7c0.2-0.1,0.4-0.2,0.3-0.4C66.6,115.6,65.6,116.8,66.6,116.7z"/>
		<path class="st0" d="M63.9,116.4c0.1-0.2,0-0.2-0.1-0.4C63.3,116.3,63.7,117.1,63.9,116.4z"/>
		<path class="st0" d="M62.2,125.7c0.8,0.1,1.2-0.4,0.3-0.9C62.1,124.7,61.6,125.5,62.2,125.7z"/>
		<path class="st0" d="M67.5,124.7c-1-0.2-1.8,0.2-2.7,0.4c-0.5,0-0.8,0.4-1,0.9c-0.4,0.7-1.3,0.3-1.9,0.8c-0.4,0.2-1.7,1.3-0.6,1.1
			c0.3-0.3,0.6,0,1,0c0.5,0,0.6-0.4,1-0.6c0.5-0.3,1-0.5,1.3-1c0.7-0.8,1.4,0.5,2.1,0C67.3,126.1,68.7,124.8,67.5,124.7z"/>
		<path class="st0" d="M43.3,134.3c-0.5,0-1.2-0.2-1,0.6c0.3,0.4,0.3,1.2,0.8,1.5c0.2-0.6,0.4-1.2,0.8-1.7
			C44.5,134.3,43.6,134.3,43.3,134.3z"/>
		<path class="st0" d="M43,136.6c-0.6-0.4-0.1,0.4,0,0.6C43.5,137.5,43.1,136.8,43,136.6z"/>
		<path class="st0" d="M49.7,132.7c-0.4-0.6-0.7-2.2-1.6-1.6c-0.5-0.1-1.3,0.1-1.6-0.4c-0.3-0.9-1.3-2-0.6-2.9
			c0.4-0.5,1.3-0.3,1.2-1.2c0.1-1-1.1-0.3-1.2-1c-0.5-0.7-0.3-3.6-1.6-2.7c-0.5,0.3-0.9,0.9-1.4,1.3c-0.3,0.1-0.5,0-0.7,0.2
			c-0.1,0.3-0.5,0.5-0.4,1c0,0.4-0.5,0.3-0.5,0.7c-0.1,1.3-1.1-0.4-0.9,1.2c0.4,0.8,0.5,1.9,1.4,2.4c1.1,1.5,2.4,3,4.4,2.8
			c0.7,0.2,1.2,0.9,2,1c0.4,0.1,0.7-0.3,1.1-0.3C49.8,133.3,50.3,133.2,49.7,132.7z"/>
		<path class="st0" d="M46.5,122.8c0.2-0.2,0-0.5-0.2-0.5C45.4,122.3,46,123,46.5,122.8z"/>
		<path class="st0" d="M49,120.8c-0.3,0-0.8,0-0.3,0.3c0.2,0,0.3-0.1,0.5,0c0.2,0.1,0.1-0.1,0-0.1C49.2,120.8,49.1,120.8,49,120.8z"
			/>
		<path class="st0" d="M25.9,106c-0.3,0-0.9,0.2-0.8,0.6c-0.2,0.3-0.5,0.5-0.7,0.8c-0.1,0.2,0.2,0.3,0.2,0.1c0.1-0.3,0.3,0,0.5,0.1
			c0.4,0.1,0.9-0.3,0.7-0.7C25.7,106.6,26.4,105.9,25.9,106z"/>
		<path class="st0" d="M29.1,103.5c-0.7,0-2.1-1.4-2.2-0.3c-0.5-0.3-1,0-0.8,0.4c0.3,0.2,0.7,0.3,1.1,0.5c0.3,0.2,0.7,0.8,1.2,0.5
			c0.2-0.4-0.5-0.3-0.4-0.6C27.9,103.4,30.9,103.9,29.1,103.5z"/>
		<path class="st0" d="M24.8,100.9c-0.3,0.1-0.4,0-0.8,0.1c-0.3,0.2-1.6,0.6-0.9,0.9c0.6-0.3,1-0.8,1.6-0.4c0.6,0,0.8,0.7,1.3,0.6
			C27,101.9,25.3,100.8,24.8,100.9z"/>
		<path class="st0" d="M25.8,102.8c0.7-0.1-1-1.3-1.3-1.3c-0.8-0.3-1,0.9-1.7,0.5c-0.2-0.4-0.9-0.1-0.3,0.3c0.5,0.3,0.9,0.8,1.4,1
			C24.4,103,25.1,102.9,25.8,102.8z"/>
		<path class="st0" d="M22.4,101.4c-0.1-0.1-0.2-0.2-0.3-0.3C21.8,101.3,22.4,101.9,22.4,101.4z"/>
		<path class="st0" d="M25.8,100.8c1,0.8,0.7-0.4,0-0.8C25.3,100.2,25.3,100.8,25.8,100.8z"/>
		<path class="st0" d="M35.5,110.8c-0.1-0.1-0.5-0.2-0.3,0C35.5,112.1,36.3,111.6,35.5,110.8z"/>
		<path class="st0" d="M34.8,111.8c-0.8-0.1,0.4,0.9,0.5,0.5C35.3,112,35,111.8,34.8,111.8z"/>
		<path class="st0" d="M36.3,112.1c0,0.1-0.4,0.2-0.3,0.3C36.2,112.7,36.5,112.3,36.3,112.1z"/>
		<path class="st0" d="M43.3,115.7c0.2,0.1,0.2-0.2,0.2-0.3c0-0.2,0.1,0,0.2,0c0.2-0.2-0.2-0.3-0.3-0.3
			C43.3,115.2,43.1,115.5,43.3,115.7z"/>
	</g>
</g>
</svg>
