<?xml version="1.0" encoding="utf-8"?>
<!-- Generator: Adobe Illustrator 26.0.3, SVG Export Plug-In . SVG Version: 6.00 Build 0)  -->
<svg version="1.1" xmlns="http://www.w3.org/2000/svg" xmlns:xlink="http://www.w3.org/1999/xlink" x="0px" y="0px"
	 viewBox="0 0 200 200" enable-background="new 0 0 200 200" xml:space="preserve">
<g id="Layer_1">
	<g id="Layer_1_00000061442898653323928190000005571608892069918396_">
		<g id="Layer_1_00000098929087308412571940000004538787532203942811_">
		</g>
	</g>
</g>
<g id="Isolation_Mode">
	<path fill="#1E8346" d="M28.003,113.456c0.055,0.329,0.212,0.613,0.209,0.95c-0.003,0.371-0.099,0.541,0.099,0.879
		c0.353,0.602,0.07,1.271,0.304,1.895c0.123,0.327,0.376,0.744,0.622,0.994c0.086,0.087,0.211,0.136,0.295,0.23
		c0.144,0.161,0.054,0.167,0.141,0.325c0.086,0.157,0.039,0.078,0.214,0.192c0.115,0.076,0.227,0.143,0.307,0.244
		c0.067,0.084,0.053,0.2,0.133,0.275c0.139,0.129,0.379,0.135,0.558,0.115c0.103-0.417,0.461-0.547,0.844-0.66
		c0.211-0.062,0.51,0.071,0.704-0.013c0.156-0.067,0.156-0.3,0.394-0.238h8.84c0.103,0.143,0.379,0.279,0.536,0.346
		c0.123,0.053,0.296,0.017,0.419,0.07c0.141,0.062,0.233,0.188,0.374,0.26c0.376,0.193,0.909,0.147,1.313,0.216
		c0.461,0.079,0.833,0.436,1.258,0.621c0.528,0.231,1.133,0.234,1.699,0.293c0.262,0.028,0.528-0.008,0.789,0.019
		c0.284,0.029,0.551,0.15,0.843,0.183c0.263,0.03,0.494-0.126,0.744-0.082c0.253,0.044,0.553,0.314,0.79,0.416
		c0.899,0.387,1.812,0.24,2.739,0.107c0.527-0.075,0.98-0.032,1.502,0.073c0.457,0.091,0.928,0.229,1.399,0.213
		c0.455-0.015,0.737-0.22,1.131-0.388c0.698-0.297,1.149,0.097,1.779,0.333c0.645,0.242,1.501,0.318,2.194,0.294
		c0.332-0.011,0.659-0.079,0.992-0.054c0.254,0.019,0.491,0.095,0.745,0.105c0.194,0.007,0.288-0.072,0.423-0.236
		c0.474,0.088,0.915,0.036,1.369,0.192c0.36,0.124,0.645,0.289,0.948,0.518c0.381,0.287,0.547,0.475,1.065,0.412
		c0.339-0.041,0.601-0.261,0.906-0.405c1.039-0.493,2.28-0.115,3.229,0.431c0.414,0.238,0.854,0.557,1.315,0.674
		c0.574,0.146,1.175,0.192,1.657,0.568c0.306,0.239,0.546,0.59,0.878,0.792c0.173,0.105,0.376,0.117,0.564,0.192
		c0.49,0.195,1.004,0.296,1.493,0.485c0.229,0.088,0.449,0.188,0.683,0.272c0.24,0.086,0.406,0.081,0.652,0.121
		c0.599,0.099,0.845,0.823,1.383,0.91c0.757,0.122,1.491,0.473,2.107,0.919c0.348,0.252,0.706,0.549,1.085,0.753
		c0.463,0.249,1.019,0.265,1.468,0.556c0.525,0.34,1.149,0.675,1.633,1.077c0.479,0.398,0.864,0.925,1.384,1.274
		c0.496,0.333,1.091,0.558,1.616,0.839c0.493,0.263,1.072,0.088,1.555,0.398c0.438,0.281,0.521,0.864,1.091,0.965
		c0.577,0.102,1.053,0.143,1.612,0.363c0.509,0.2,1,0.307,1.511,0.475c0.354,0.117,0.705,0.223,1.068,0.329
		c0.237,0.069,0.412,0.133,0.611,0.318c0.334,0.311,0.612,0.48,1.043,0.646c0.429,0.165,0.725,0.516,1.124,0.749
		c0.366,0.214,0.776,0.337,1.157,0.515c0.343,0.16,0.79,0.586,1.172,0.541c0.246-0.029,0.58-0.252,0.433-0.493
		c-0.073-0.119-0.357-0.209-0.476-0.281c-0.295-0.177-0.611-0.387-0.886-0.594c-0.205-0.154-0.374-0.352-0.567-0.52
		c-0.167-0.146-0.477-0.254-0.555-0.469c0.129-0.075,0.254-0.004,0.393-0.034c0.308-0.064,0.388-0.391,0.671-0.485
		c0.124,0.237,0.188,0.43,0.38,0.616c0.198,0.193,0.356,0.34,0.509,0.584c0.31,0.497,0.672,0.928,1.247,1.151
		c0.338,0.131,0.75-0.048,1.065,0.154c0.218,0.14,0.355,0.455,0.521,0.644c0.169,0.192,0.292,0.266,0.305,0.507
		c0.02,0.373-0.086,0.524,0.308,0.765c0.234,0.143,0.544,0.191,0.74,0.391c0.24,0.245,0.251,0.591,0.58,0.778
		c0.24,0.137,0.568,0.148,0.835,0.261c0.26,0.111,0.468,0.249,0.755,0.287c0.288,0.039,0.466,0.099,0.717,0.252
		c0.232,0.141,0.468,0.373,0.719,0.427c0.215,0.046,0.421-0.006,0.64,0.075c0.175,0.065,0.337,0.174,0.514,0.234
		c0.314,0.107,0.545,0.169,0.838,0.319c0.376,0.192,0.786,0.368,1.207,0.44c0.707,0.121,1.315,0.592,2.031,0.677
		c0.384,0.046,0.739,0.073,1.119,0.164c0.312,0.074,0.434,0.073,0.748,0.053c0.392-0.025,0.773,0.204,1.15,0.299
		c0.481,0.121,1,0.058,1.464,0.234c0.485,0.183,0.991,0.27,1.493,0.411c0.348,0.098,0.653,0.281,1.001,0.371
		c0.351,0.09,0.715,0.128,1.074,0.166c0.632,0.067,1.25,0.152,1.876,0.274c0.175,0.034,0.291,0.095,0.442,0.173
		c0.43,0.219,0.879,0.269,1.35,0.319c0.284,0.03,0.542,0.164,0.834,0.197c0.217,0.025,0.378-0.033,0.587-0.079
		c0.17-0.037,0.34-0.071,0.511-0.108c0.228-0.05,0.461-0.155,0.694-0.154c0.47,0.002,1.042,0.143,1.464,0.355
		c0.247,0.124,0.51,0.328,0.793,0.35c0.213,0.017,0.431-0.076,0.646-0.08c0.683-0.013,1.129,0.703,1.783,0.832
		c0.17,0.034,0.321,0.018,0.48,0.105c0.131,0.072,0.236,0.19,0.356,0.277c0.169,0.123,0.356,0.286,0.562,0.316
		c0.102,0.015,0.211-0.004,0.315-0.001c0.182,0.005,0.57,0.119,0.711-0.072c0.148-0.201-0.032-0.248-0.158-0.347
		c-0.288-0.227-0.568-0.474-0.866-0.687c-0.455-0.325-0.88-0.567-1.4-0.756c-0.236-0.086-0.439-0.208-0.699-0.223
		c-0.101-0.006-0.204,0.013-0.304-0.008c-0.124-0.027-0.229-0.116-0.353-0.146c-0.265-0.063-0.554-0.005-0.824-0.04
		c-0.249-0.033-0.408-0.161-0.641-0.223c-0.238-0.063-0.405-0.254-0.609-0.382c-0.187-0.118-0.382-0.133-0.583-0.213
		c-0.182-0.072-0.467-0.232-0.576-0.399c-0.129-0.197,0.029-0.348,0.181-0.481c0.148-0.129,0.401-0.197,0.44-0.419
		c0.035-0.195-0.131-0.363-0.246-0.494c-0.386-0.441-0.78-0.877-1.205-1.281c-0.21-0.2-0.426-0.376-0.651-0.557
		c-0.183-0.147-0.354-0.195-0.562-0.292c-0.411-0.191-0.733-0.443-1.203-0.367c-0.303,0.048-0.564,0.125-0.849,0.24
		c-0.182,0.073-0.342,0.23-0.522,0.291c-0.15,0.051-0.261-0.028-0.394-0.046c-0.407-0.055-0.841,0.472-1.13,0.73
		c-0.344,0.307-0.597,0.546-1.046,0.643c-0.291,0.063-0.582-0.052-0.829-0.204c-0.31-0.191-0.591-0.363-0.95-0.458
		c-0.303-0.081-1.31,0.329-1.502-0.057c-0.105-0.211,0.43-0.623,0.581-0.765c0.214-0.2,0.447-0.368,0.661-0.566
		c0.134-0.124,0.273-0.292,0.451-0.345c0.377-0.112,0.689,0.039,1,0.225c0.201,0.12,0.32,0.315,0.555,0.329
		c0.196,0.011,0.465-0.016,0.66-0.054c0.323-0.062,0.743-0.398,0.976-0.627c0.145-0.142,0.282-0.287,0.402-0.45
		c0.103-0.139,0.281-0.437,0.451-0.508c0.119-0.049,0.374-0.007,0.513-0.026c0.233-0.033,0.482-0.09,0.717-0.04
		c0.288,0.062,0.511,0.23,0.771,0.332c0.135,0.053,0.244,0.134,0.376,0.208c0.207,0.116,0.453,0.261,0.683,0.326
		c0.173,0.05,0.387,0.176,0.573,0.16c0.224-0.018,0.363-0.175,0.606-0.147c0.209,0.024,0.31,0.13,0.504,0.181
		c0.408,0.108,0.579,0.232,0.875,0.492c0.19,0.167,0.423,0.256,0.556,0.477c0.124,0.206,0.138,0.484,0.357,0.621
		c0.223,0.14,0.457,0.192,0.66,0.384c0.288,0.273,0.454,0.641,0.828,0.807c0.174,0.077,0.376,0.082,0.556,0.166
		c0.149,0.069,0.696,0.362,0.345,0.59c-0.323-0.226-1.185-0.241-1.17,0.333c0.008,0.294,0.323,0.505,0.573,0.529
		c0.343,0.032,0.704-0.005,1.044-0.032c0.487-0.039,0.993,0.032,1.468,0.133c0.451,0.096,0.845-0.027,1.296-0.01
		c0.278,0.01,0.611,0.075,0.876-0.037c0.373-0.158,0.312-0.367,0.043-0.544c-0.171-0.112-0.234-0.065-0.43-0.091
		c-0.119-0.016-0.274-0.026-0.198-0.19c0.061-0.132,0.37-0.08,0.51-0.111c0.249-0.055,0.394-0.241,0.627-0.352
		c0.271,0.169,0.345,0.381,0.476,0.662c0.133,0.287,0.414,0.486,0.652,0.672c0.154,0.12,0.402,0.322,0.463,0.521
		c0.054,0.177-0.077,0.546-0.168,0.704c-0.121,0.212-0.433,0.234-0.648,0.328c-0.236,0.103-0.547,0.3-0.62,0.572
		c-0.063,0.234,0.085,0.444,0.253,0.583c0.276,0.229,0.531,0.452,0.778,0.711c0.172,0.179,0.419,0.418,0.668,0.482
		c0.359,0.092,0.556,0.029,0.908,0.276c0.326,0.23,0.797,0.076,1.139-0.022c0.163-0.047,0.303-0.078,0.458-0.153
		c0.208-0.101,0.378-0.251,0.58-0.354c0.294-0.15,0.683-0.116,0.892-0.411c-0.041-0.079-0.066-0.171-0.118-0.243
		c-0.049-0.068-0.15-0.105-0.187-0.179c-0.109-0.219,0.135-0.299,0.309-0.358c0.335-0.114,0.711-0.154,1.058-0.219
		c0.19-0.035,0.368-0.076,0.554-0.115c0.247-0.052,0.462,0.013,0.703-0.087c0.288-0.12,0.442-0.365,0.678-0.552
		c0.255-0.202,0.595-0.247,0.63,0.173c0.016,0.198-0.037,0.459-0.181,0.588c-0.186,0.168-0.314,0.365-0.498,0.538
		c-0.236,0.221-0.476,0.506-0.628,0.793l4.016,0.052l0.704,0.391l2.425-0.052l0.391,0.469l3.703-0.104l0.391-0.391l6.284-0.183
		l5.137-0.104l0.261,0.452c0.464,0.002,0.848,0.163,1.274,0.317c0.6,0.217,1.23,0.163,1.839-0.019
		c0.205-0.061,0.367-0.164,0.551-0.273c0.254-0.15,0.486-0.112,0.775-0.096c0.55,0.03,1.081,0.101,1.635,0.104
		c0.437,0.003,0.795,0.053,1.208,0.197c0.266,0.092,0.493,0.184,0.732,0.326c0.183,0.109,0.336,0.181,0.547,0.191
		c0.39,0.02,0.847-0.092,1.212-0.209c0.373-0.119,0.633-0.07,1.011-0.029c0.264,0.029,0.718,0.05,0.902-0.178
		c-0.133-0.247-0.133-0.569-0.242-0.829c-0.088-0.208-0.261-0.397-0.332-0.606c-0.034-0.1-0.002-0.219-0.043-0.318
		c-0.037-0.09-0.144-0.191-0.215-0.261c-0.164-0.161-0.357-0.169-0.552-0.267c-0.459-0.232-0.583-0.706-0.074-0.933
		c0.227-0.101,0.495-0.124,0.721-0.241c0.241-0.124,0.508-0.266,0.7-0.458c0.108-0.108,0.31-0.166,0.442-0.25
		c0.142-0.092,0.323-0.235,0.48-0.287c0.412-0.137,0.805,0.093,1.179-0.224c0.386-0.328,0.764-0.59,1.251-0.742
		c0.222-0.069,0.466-0.103,0.7-0.095c0.186,0.006,0.407,0.106,0.587,0.03c0.183-0.077,0.32-0.303,0.451-0.445
		c0.162-0.175,0.288-0.338,0.433-0.526c0.292-0.378,0.57-0.828,1.013-1.059c0.15-0.078,0.331-0.065,0.491-0.125
		c0.161-0.059,0.317-0.157,0.454-0.259c0.287-0.213,0.702-0.5,0.854-0.833c0.074-0.162,0.047-0.32,0.156-0.476
		c0.097-0.139,0.285-0.236,0.36-0.387c0.044-0.09,0.017-0.164,0.034-0.262c0.021-0.124,0.017-0.202,0.067-0.318
		c0.145-0.339,0.278-0.662-0.015-0.967c-0.112-0.117-0.259-0.172-0.361-0.304c-0.151-0.195-0.173-0.321-0.391-0.476
		c-0.21-0.148-0.462-0.197-0.668-0.318c-0.295-0.174-0.435-0.522-0.573-0.811c-0.306-0.64-1.097-1.281-1.746-1.513
		c-0.512-0.183-1-0.542-1.455-0.825c-0.394-0.245-0.872-0.601-0.993-1.074c-0.069-0.269-0.022-0.592-0.029-0.868
		c-0.006-0.25-0.063-0.488-0.08-0.736c-0.036-0.516,0.322-0.891,0.263-1.391c-0.044-0.378,0.256-0.799,0.524-1.033
		c0.382-0.334,0.607-0.778,0.792-1.267c0.163-0.43,0.023-0.888,0.336-1.277c0.335-0.417,0.943-0.715,1.482-0.671
		c-0.094,0.177-0.219,0.375-0.384,0.493c-0.156,0.111-0.397,0.129-0.535,0.245c-0.273,0.23-0.233,0.762-0.233,1.079
		c0,0.374-0.071,0.717,0.235,0.97c0.301,0.249,0.888,0.249,1.147,0.548l2.138-0.287l0.652-1.252l0.991,0.182l1.225-1.33l2.686-0.13
		l0.026-4.928h-1.721c-0.043-0.195-0.143-0.344-0.248-0.508c-0.061-0.095-0.104-0.243-0.225-0.286
		c-0.139-0.049-0.028,0.009-0.176,0.038c-0.484,0.093-0.845,0.509-1.375,0.471c-0.165-0.012-0.64-0.059-0.746-0.183
		c-0.138-0.162-0.001-0.413-0.157-0.601c-0.216-0.259-0.905-0.356-0.811-0.749c0.065-0.273,0.431-0.325,0.531-0.552
		c0.073-0.166-0.051-0.534-0.182-0.661c0.15-0.337,0.247-0.725,0.395-1.071c0.078-0.18,0.158-0.267,0.177-0.478
		c0.018-0.202-0.064-0.414-0.04-0.607c0.038-0.296,0.164-0.217,0.426-0.288c0.253-0.068,0.194-0.048,0.238-0.286
		c0.073-0.39,0.233-0.863,0.105-1.253l1.121-0.808l0.026-7.145l1.929-2.164l0.261-1.487l-0.756-1.147l1.434-1.382l0.939-2.816
		l-0.704-1.59l-2.373-1.226v-1.643l-3.781-2.555l-0.391-2.764l-2.373,0.261l-1.773,2.008c-0.382,0.201-1.053-0.309-1.444-0.397
		c-0.574-0.129-1.132-0.307-1.741-0.307c-0.234,0-0.476-0.027-0.701,0.045c-0.332,0.106-0.605,0.348-0.942,0.457
		c-0.136,0.044-0.741,0.143-0.801,0.306c-0.034,0.091,0.065,0.137,0.076,0.213c0.025,0.173,0.047,0.364,0.01,0.535
		c-0.285-0.143-0.524-0.317-0.744-0.548c-0.364-0.381-0.572-0.498-1.036-0.253c-0.157,0.083-0.235,0.22-0.446,0.046
		c-0.107-0.089-0.139-0.324-0.203-0.445c-0.144-0.275-0.396-0.41-0.737-0.41v0.73l-3.885,1.878l-0.417-1.956l-3.572-3.964
		l-0.783-3.937l-2.816-0.626l-3.99,1.278l-2.947-0.991l-3.129,0.078l0.182,2.112l1.147,1.147l-0.678,1.434l-2.894,0.156
		c-0.116,0.347-0.106,0.705-0.104,1.066c0.001,0.241,0.118,0.517,0.087,0.741c-0.41-0.035-0.826,0.01-1.237-0.007
		c-0.394-0.016-0.659-0.085-0.986,0.169c-0.184,0.144-0.298,0.247-0.507,0.343c-0.268,0.122-0.648,0.196-0.84,0.43
		c-0.224,0.272-0.24,0.688-0.561,0.909c-0.325-0.061-0.557-0.231-0.925-0.255c-0.442-0.03-0.985-0.261-1.301,0.128
		c-0.35,0.431-0.224,1.069-0.536,1.493c-0.347,0.471-0.98-0.048-1.284-0.318c-0.233-0.208-0.325-0.41-0.672-0.422
		c-0.344-0.012-0.693,0.002-1.035,0.026c-0.332,0.024-0.628,0.087-0.944,0.183c-0.347,0.105-0.604,0.089-0.964,0.074
		c-0.258-0.677-0.931,0.058-1.222,0.329c-0.405,0.377-0.57,0.902-0.789,1.37l-2.008-0.417l-0.261,1.095l-2.112-1.382l0.183-1.043
		l-1.33-2.425l0.469-0.991l0.261-3.624l-2.086-1.565l-3.077,0.704c-0.046-0.562-0.463-1.303-0.83-1.717
		c-0.215-0.242-0.547-0.363-0.814-0.552c-0.304-0.216-0.477-0.301-0.878-0.23c-0.405,0.072-0.708,0.188-1.017-0.058
		c-0.296-0.235-0.605-0.573-0.96-0.711c-0.468-0.182-0.457,0.134-0.813,0.26c-0.362,0.128-0.855-0.121-1.155-0.272
		c-0.37-0.187-0.846-0.391-1.194-0.095c-0.162,0.139-0.176,0.27-0.279,0.437c-0.081,0.133-0.223,0.116-0.3,0.252l-0.939,0.182v-2.06
		L117.6,76.69l-3.468-1.226l-0.261-1.251l0.886-1.408l-0.365-2.243l-3.077,1.33l-1.434-1.017l-3.259,0.782l-2.503-5.841
		l-1.434-1.095l-1.617-0.13v-1.043l-4.72-0.13c-0.179-0.223-0.441-0.338-0.613-0.575c-0.253-0.348,0.025-0.615,0.066-1.015
		l-1.721-2.738l-2.634-1.043l0.183-3.468l-0.913-0.052v-1.252l-3.703-0.704v-2.921l-1.095-2.008l-1.199-0.156l-3.129,4.042
		l-1.356-0.991l-3.338-0.704l-0.33-1.13l-1.391,0.139l-5.18-2.503l-1.982,0.383l-2.564-0.591l-1.773-1.382l-0.443,0.548
		l-0.704-1.695l-3.546,3.103l-2.686-1.304l-2.999,1.773l-1.564,2.008l-0.939-2.92H48.29l-0.626,3.286
		c-0.024,0.604,0.276,0.78,0.627,1.191c0.164,0.193,0.742,0.61,0.682,0.876c-0.274-0.014-0.669,0.187-0.946,0.253
		c-0.622,0.149-0.868,0.589-1.145,1.122l-0.026,2.086l1.904-0.782l1.721,2.164c-0.08,0.198-0.199,0.417-0.341,0.582
		c-0.399-0.453-0.9-0.605-1.389-0.111c-0.234,0.236-0.666,0.646-0.423,1.003c0.116,0.171,0.499,0.385,0.676,0.48
		c0.433,0.233,1.022,0.165,1.415,0.484c0.155,0.126,0.115,0.048,0.18,0.271c0.065,0.218,0.122,0.374,0.218,0.58
		c0.132,0.284,0.177,0.599,0.325,0.881c0.175,0.332,0.414,0.647,0.614,0.961c0.142,0.222,0.409,0.293,0.418,0.58l-2.164,0.156
		l-0.652,0.834l-1.46,0.495h-4.294l-2.642,1.669l-4.59,5.215l-1.564,4.537l0.548,2.399l-3.103-0.078l-2.973-2.321l-3.207,0.365
		c-0.12,0.216-0.263,0.453-0.334,0.71c-0.096,0.345-0.108,0.526-0.504,0.542c-0.337,0.013-0.675,0.01-1.011,0.026
		c-0.421,0.021-0.515,0.181-0.853,0.41c-0.544,0.37-1.142,0.577-1.32,1.259c-0.049,0.187-0.029,0.575-0.162,0.715
		c-0.15,0.158-0.63,0.162-0.844,0.237c-0.385,0.133-0.594,0.416-0.762,0.782c-0.069,0.151-0.094,0.321-0.179,0.462
		c-0.092,0.154-0.26,0.256-0.387,0.383c-0.329,0.329-0.678,0.558-1.078,0.797c-0.199,0.119-0.488,0.204-0.649,0.358
		c-0.179,0.172-0.045,0.406-0.193,0.548c-0.15,0.144-0.545,0.137-0.744,0.248c-0.301,0.169-0.6,0.345-0.916,0.498
		c-0.341,0.164-0.718,0.231-1.064,0.39c-0.402,0.185-0.767,0.408-1.122,0.669c-0.393,0.288-0.873,0.521-1.111,0.966
		c-0.153,0.285-0.124,0.612-0.333,0.872c-0.203,0.253-0.407,0.466-0.644,0.706v1.59l-3.442,1.539l-1.408,2.947
		C6.692,93.145,5.97,93.21,5.913,93.6c-0.039,0.272,0.15,0.664,0.241,0.915c0.08,0.22,0.326,0.671,0.258,0.914
		c-0.056,0.201-0.002,0.068-0.136,0.165c-0.094,0.067-0.318,0.123-0.437,0.158c0.076,0.177,0.155,0.36,0.211,0.537
		c0.082,0.261,0.065,0.224-0.095,0.462c-0.107,0.159-0.305,0.406-0.325,0.59l1.825,2.973L6.7,101.357l-0.939-0.078l-0.13-0.834
		l-1.46,0.6c0.169,0.418,0.707,0.272,1.019,0.395c0.335,0.131,0.755,0.22,1.073,0.392c0.294,0.159,0.509,0.376,0.837,0.493
		c0.178,0.063,0.357,0.106,0.539,0.152c0.689,0.176,1.155,0.732,1.813,1.014c1.241,0.531,2.708,0.601,3.842,1.379
		c0.589,0.403,1.064,0.826,1.723,1.137c0.586,0.276,1.218,0.446,1.803,0.717c0.696,0.321,1.327,0.79,1.959,1.217
		c0.382,0.258,0.744,0.547,1.163,0.748c0.393,0.189,0.725,0.481,1.12,0.662c0.718,0.329,1.451,0.487,2.13,0.908
		c0.496,0.308,1.127,0.399,1.59,0.741c0.222,0.164,0.373,0.352,0.63,0.485c0.221,0.114,0.496,0.161,0.701,0.301
		c0.145,0.099,0.244,0.263,0.36,0.394c0.154,0.175,0.222,0.173,0.399,0.277C27.175,112.635,27.941,113.08,28.003,113.456z"/>
</g>
</svg>
