<?xml version="1.0" encoding="utf-8"?>
<!-- Generator: Adobe Illustrator 26.0.3, SVG Export Plug-In . SVG Version: 6.00 Build 0)  -->
<svg version="1.1" id="Layer_1" xmlns="http://www.w3.org/2000/svg" xmlns:xlink="http://www.w3.org/1999/xlink" x="0px" y="0px"
	 viewBox="0 0 200 200" enable-background="new 0 0 200 200" xml:space="preserve">
<g id="Layer_1_00000128480095285341338950000008464522443776971395_">
</g>
<path fill="#1E8346" d="M162.6,84.982c-0.089,0.168-0.448,0.161-0.597,0.157C161.563,85.861,163.045,85.521,162.6,84.982z"/>
<path fill="#1E8346" d="M162.372,86.144c0.488,0.235,0.124-0.964-0.111-0.22C162.471,85.896,162.386,85.978,162.372,86.144z"/>
<path fill="#1E8346" d="M172.076,124.559c-0.284-0.307-0.225,0.381-0.126,0.456C172.07,124.922,172.357,124.67,172.076,124.559z"/>
<path fill="#1E8346" d="M172.304,124.535c0.257,0.17,0.502,0.338,0.833,0.118c0.178-0.163,0.635,0.034,0.431-0.26
	c-0.423-0.043-0.234-0.287-0.62-0.166c-0.164-0.175-0.232-0.134-0.479-0.071C171.843,123.936,172.375,124.25,172.304,124.535z"/>
<path fill="#1E8346" d="M172.838,123.844c-0.099,0.292,0.217,0.04,0.189-0.071C173.007,123.744,172.882,123.757,172.838,123.844z"/>
<path fill="#1E8346" d="M173.695,123.317c-0.037-0.035-0.29,0.023-0.314,0.071C173.23,123.67,173.919,123.54,173.695,123.317z"/>
<path fill="#1E8346" d="M172.917,123.239c-0.078,0.085-0.717,0.22-0.267,0.322C172.928,123.89,173.251,123.394,172.917,123.239z"/>
<path fill="#1E8346" d="M173.255,122.563c-0.58,0.154,0.396,0.254,0.416,0.142C173.657,122.511,173.464,122.529,173.255,122.563z"/>
<path fill="#1E8346" d="M173.781,121.329c-0.171-0.265-0.485,0.331-0.166,0.11C173.713,121.358,173.783,121.358,173.781,121.329z"/>
<path fill="#1E8346" d="M173.922,125.187c0.241-0.053,0.151-0.609-0.094-0.558C173.857,124.654,173.92,125.197,173.922,125.187z"/>
<path fill="#1E8346" d="M173.404,125.297c0.076,0.04,0.201,0.135,0.205,0.252C173.971,125.732,173.553,124.878,173.404,125.297z"/>
<path fill="#1E8346" d="M172.885,125.887c0.202-0.047,0.22,0.295,0.456,0.219c0.239-0.187,0.013-0.209-0.173-0.33
	C173.081,125.449,172.867,125.697,172.885,125.887z"/>
<path fill="#1E8346" d="M172.76,128.472c0.239-0.016,0.117,0.256,0.322,0.267C173.391,128.46,172.832,128.025,172.76,128.472z"/>
<path fill="#1E8346" d="M168.697,138.812c-0.185,0.07,0.035,0.252,0.125,0.165C168.85,138.938,168.77,138.8,168.697,138.812z"/>
<path fill="#1E8346" d="M166.655,140.459c-0.169,0.024-0.259,0.094-0.289,0.198C166.436,140.757,167.014,140.447,166.655,140.459z"
	/>
<path fill="#1E8346" d="M168.163,140.732c0.038,0.25,0.244-0.082,0.158-0.162C168.281,140.549,168.16,140.636,168.163,140.732z"/>
<path fill="#1E8346" d="M167.825,142.701c0.136-0.075,0.098-0.203-0.055-0.134C167.627,142.659,167.678,142.801,167.825,142.701z"/>
<path fill="#1E8346" d="M168.025,145.172c-0.115,0.04-0.26,0.102-0.276-0.102c-0.18,0.052-0.162-0.144-0.08-0.232
	c-0.083,0.013-0.506,0.442-0.368,0.544c0.046-0.032,0.099-0.055,0.154-0.067c-0.003,0.069,0.034,0.138,0.093,0.174
	c-0.01-0.133,0.21-0.13,0.141-0.004c-0.11,0.021-0.095,0.092-0.098,0.186c-0.263,0.214-0.003,0.209,0.109,0.398
	c0.213-0.043-0.162-0.38,0.202-0.404C167.708,145.444,168.195,145.367,168.025,145.172z"/>
<path fill="#1E8346" d="M167.104,146.918c-0.083,0.006-0.225,0.035-0.231-0.092c-0.04-0.123-0.449,0.049-0.137,0.155
	C166.877,147.024,167.106,147.329,167.104,146.918z"/>
<path fill="#1E8346" d="M165.611,147.549c-0.145-0.024-0.118,0.333-0.045,0.363C165.662,147.903,165.724,147.604,165.611,147.549z"
	/>
<path fill="#1E8346" d="M158.609,155.83c-0.108,0.155-0.369,0.013-0.471,0.238c0.101,0.164,0.353-0.11,0.515,0.021
	c0.074,0.031,0.202,0.126,0.256,0.028C158.987,155.896,158.885,155.655,158.609,155.83z"/>
<path fill="#1E8346" d="M160.143,154.321c-0.104,0.18-0.332,0.069-0.376,0.26c-0.326-0.009-0.268,0.42,0.026,0.171
	c0.076,0.062,0.015,0.154-0.059,0.182c-0.181,0.157,0.124,0.379,0.219,0.16C159.894,154.845,160.593,154.507,160.143,154.321z"/>
<path fill="#1E8346" d="M149.295,161.57c-0.161-0.129-0.335,0.199-0.309,0.343C149.133,161.795,149.68,161.756,149.295,161.57z"/>
<path fill="#1E8346" d="M146.831,162.824c-0.138,0.137-0.419,0.214-0.359,0.464c0.198,0.018,0.427,0.042,0.484-0.184
	c0.083-0.056,0.102,0.157,0.216,0.108C147.075,162.898,147.402,162.585,146.831,162.824z"/>
<path fill="#1E8346" d="M147.982,162.963c-0.141-0.042-0.253-0.17-0.396-0.186C147.578,163.259,148.615,163.049,147.982,162.963z"/>
<path fill="#1E8346" d="M144.257,164.581c-0.371,0.007,0.02,0.428,0.107,0.284C144.418,164.79,144.311,164.636,144.257,164.581z"/>
<path fill="#1E8346" d="M143.974,164.97c-0.094-0.01-0.299,0.14-0.121,0.189C143.896,165.115,144.104,165.047,143.974,164.97z"/>
<path fill="#1E8346" d="M144.554,164.039c-0.368,0.232,0.243,0.488,0.254,0.248C144.762,164.231,144.633,164.032,144.554,164.039z"
	/>
<path fill="#1E8346" d="M142.471,165.771c-0.109,0.066-0.291,0.112-0.244,0.277c0.267-0.015,0.219,0.191,0.072,0.302
	c0.105,0.048,0.126,0.299,0.259,0.255c0.097-0.239-0.055-0.564,0.07-0.785C142.954,165.582,142.63,165.595,142.471,165.771z"/>
<path fill="#1E8346" d="M141.744,166.042c-0.169,0.13-0.26,0.254-0.232,0.48c0.087-0.197,0.358-0.063,0.437-0.239
	C142.024,166.138,141.909,165.9,141.744,166.042z"/>
<path fill="#1E8346" d="M176.556,148.172c-0.161-0.765-0.76-1.465-0.033-2.188c0.021-0.204-0.411-0.257-0.295-0.55
	c-0.911,0.405-1.783-1.26-1.861,0.339c-2.632,0.638-4.17,7.581-3.57,9.831c-0.244,0.329,0.227,0.4,0.356,0.608
	c0.465,0.502,0.589,2.071,1.465,1.792c0.518,0.41,1.624,0.8,1.338,1.689c0.071,0.175,0.199,0.588,0.419,0.35
	c0.154-0.061,0.25,0.226,0.415,0.222c0.1-0.183-0.323-0.474-0.092-0.63c0.177-0.685-0.347-1.482,0.13-2.184
	c-0.03-0.509,0.371-0.815,0.555-1.222c0.481-1.681,0.758-4.036,0.704-5.932C175.821,149.701,176.425,148.81,176.556,148.172z"/>
<path fill="#1E8346" d="M177.451,158.923c-0.065-0.309-0.507-0.166-0.191,0.043C177.406,159.017,177.713,159.187,177.451,158.923z"
	/>
<path fill="#1E8346" d="M176.717,156.361c-0.096,0.036-0.152-0.148-0.193-0.109C176.25,156.443,176.856,156.7,176.717,156.361z"/>
<path fill="#1E8346" d="M189.938,143.873c-0.309,0.015-0.445-0.376-0.735-0.364c-0.08,0.077,0.11,0.166,0.15,0.205
	c0.089,0.071,0.137,0.475-0.054,0.398c0.002,0.371,0.32-0.046,0.492-0.021C189.798,143.998,190.028,143.945,189.938,143.873z"/>
<path fill="#1E8346" d="M185.833,145.713c-0.192,0.149-0.144,0.538-0.366,0.643c-0.916-0.095,0.654,1.343,0.26-0.111
	C185.72,146.081,186.04,145.823,185.833,145.713z"/>
<path fill="#1E8346" d="M184.355,146.869c-0.247,0.116-0.681-0.207-0.412,0.326c0.047,0.162-0.286,0.119-0.127,0.294
	C184.378,147.694,184.969,147.171,184.355,146.869z"/>
<path fill="#1E8346" d="M135.884,174.664c-0.07-0.948-1.109-0.427-1.378-1.178c-0.382,0.504-0.664-0.018-0.245,0.782
	c-0.077-0.073-0.217-0.151-0.303-0.054c-0.317-0.308-0.861-0.623-1.11-0.102c-0.501-0.376-0.803,0.298-1.167,0.55
	c-0.232,0.097-0.143-0.312-0.38-0.257c-0.126,0.042-0.124,0.265-0.301,0.267c0.033-0.113,0.029-0.238-0.012-0.349
	c-0.145,0.038,0.03,0.489-0.224,0.213c-0.221,0.059-0.373-0.489-0.585-0.127c-0.095,0.196-0.45,0.163-0.359,0.477
	c0.012,0.2-0.344,0.36-0.41,0.142c-0.212,0.142-0.313-0.228-0.586-0.135c-0.251,0.22-0.659,0.418-0.545,0.802
	c0.19-0.011,0.375-0.101,0.5-0.244c0.018,0.112,0.037,0.225,0.054,0.337c-0.282-0.251-0.462,0.262-0.641,0.397
	c-0.205,0.139-0.556,0.052-0.664,0.275c-0.094,0.608-1.469,0.622-1.144,1.32c-0.293,0.029,0.032,0.386-0.02,0.529
	c-0.239,0.793,0.123,1.687,0.204,2.611c0.689,0.498,1.571,0.722,2.369,0.884c0.297,0.047,1.149-0.174,1.07,0.281
	c0.142-0.09,0.456-0.053,0.374,0.166c0.135-0.057,0.247-0.167,0.305-0.301c0.07,0.026,0.129,0.08,0.162,0.147
	c0.36-0.05,0.105-0.599,0.324-0.768c0.315-0.146,0.683-0.177,1.018-0.279c-0.027,0.076-0.064,0.149-0.108,0.217
	c0.379-0.094,0.427-0.555,0.597-0.846c0.23-0.544,0.879-0.307,1.217-0.598c0.122-0.179,0.596-0.574,0.217-0.682
	c-0.026,0.071-0.025,0.152,0.002,0.223c-0.059,0-0.119-0.001-0.178-0.001c0.184-0.823,0.699-1.754,0.784-2.698
	c0.211-0.309,0.737-0.492,0.456-0.93c-0.042-0.389,0.236,0.118,0.245,0.279c0.239-0.123,0.299-0.513,0.623-0.561
	C135.848,175.23,135.922,174.925,135.884,174.664z"/>
<path fill="#1E8346" d="M133.453,171.539c0.35,0.001,0.028-0.525-0.074-0.26C133.379,171.37,133.426,171.452,133.453,171.539z"/>
<path fill="#1E8346" d="M133.747,170.26c0.442-0.073,0.088-0.622-0.005-0.101C133.7,170.188,133.679,170.248,133.747,170.26z"/>
<path fill="#1E8346" d="M133.543,169.435c-0.234,0.029-0.408,0.134-0.641-0.01c-0.188,0.016-0.386,0.34-0.363,0.488
	c0.357-0.023,0.744-0.29,0.993,0.14C133.492,169.938,133.592,169.561,133.543,169.435z"/>
<path fill="#1E8346" d="M133.676,169.331c0.174-0.121-0.055-0.508-0.149-0.209C133.553,169.192,133.591,169.331,133.676,169.331z"/>
<path fill="#1E8346" d="M192.997,40.012c-0.108-0.439-0.534-0.419-0.733-0.587c-0.078-0.338-0.174-1.143-0.146-1.52
	c-0.58-0.659-1.659-0.111-1.802,0.618c-0.343,0.318-0.904,0.209-0.681,0.733c-0.498-0.04-0.26,0.132-0.324,0.482
	c-0.768-0.157-1.523,0.425-1.772,1.247c-0.924-0.043,0.181,1.171-0.838,1.131c-0.325,0.518-0.944,0.688-1.519,0.963
	c-0.267,0.041-0.454-0.159-0.545-0.073c-0.078,0.127,0,0.384-0.22,0.252c-0.181-0.321-0.463-0.287-0.607,0.063
	c-1.312,0.877-0.835-0.079-1.833-0.502c-1.017-0.109-0.376-1.129-0.524-1.592c-0.36-0.122-0.323-0.462-0.441-0.702
	c-0.101,0.05-0.234,0.417-0.429,0.168c-0.005-0.452-0.359-0.431-0.273-0.869c-0.185-0.339,0.332-0.702-0.063-0.755
	c-0.301,0.059-0.339,0.291-0.576,0.053c-0.319-0.1-0.376,0.247-0.545,0.304c-0.177-0.157-1.139-0.424-1.268-0.65
	c-0.057-0.361-0.196-0.328-0.482-0.472c-0.131-0.312-0.3-0.107-0.555-0.136c-0.078-0.144-0.332-0.659-0.608-0.45
	c0.122,0.67-0.205,0.359-0.545,0.314c0.091,0.821-0.477-0.033-0.66-0.095c-0.157,0.036-0.54,0.306-0.587-0.031
	c0.267-0.252,0.164-0.314-0.303-0.188c-0.278-0.011-0.944,0.525-1.467,0.502c-0.756-0.16-1.199,0.244-1.413-0.743
	c-0.857,0.229-0.411-1.355-0.786-1.719c-0.509-0.294-0.774-0.057-0.796-0.681c-0.277-0.213-0.225-0.337-0.167-0.597
	c-0.34-0.12-0.296-0.408-0.398-0.713c-0.2-0.175-0.442-0.222-0.429-0.523c-0.675-0.386-1.085-0.629-1.027-1.519
	c-0.285-0.183-0.247,0.172-0.262,0.283c-0.315-0.127-0.23-0.612,0.115-0.67c-0.742-0.019-0.285-0.646-0.964-0.796
	c0.29-0.608-0.837-1.075-1.026-1.635c-0.004-0.128,0.405-0.768-0.105-0.64c-0.474,0.006-0.499-0.355-0.303-0.576
	c-0.709,0.106,0.255-0.372-0.544-0.618c-0.616,0.063-0.167-0.221-0.534-0.377c-0.88,0.198,0.121-1.098-0.701-0.691
	c-0.198-0.03-0.222-0.526-0.377-0.534c-0.488,0.473-0.567,0.179-0.236-0.251c-0.063-0.016-0.508-0.318-0.566-0.393
	c-0.136-0.012-0.213,0.225-0.314,0.204c-0.237-0.431-0.147-0.362-1.131-0.314c-0.674-0.109-0.232,0.776-0.801,0.33
	c-0.656-0.117-1.21-0.011-1.665-0.535c-0.572,0.245-0.617-0.072-1.037-0.346c-0.275-0.069-0.45,0.182-0.676,0.063
	c-0.353-0.268-0.17-0.265-0.252,0.094c-0.783-0.221-2.161,1.187-3.033,0.77c-0.501,0.372-0.73,0.534-1.383,0.692
	c-0.253,0.345-0.502,0.451-0.895,0.566c-0.389,0.631-0.722,0.287-1.147,0.393c0.004,0.379-0.308,0.397-0.534,0.581
	c-0.032,0.286-0.029,0.5-0.314,0.723c-0.184,0.508-0.58,1.114-1.1,1.351c0.048,0.122,0.355,0.826,0.393,0.865
	c0.38-0.084,1.203-0.666,1.602,0.032c-0.05,0.738-0.256,0.741,0.377,1.383c0.231,1.105-0.072,0.958-0.629,1.65
	c-1.033,1.082-0.713,1.739-1.179,3.001c0.025,0.786,0.034,0.946-0.471,1.508c0.227,1.026-0.518,1.255-0.425,2.216
	c-0.411,0.618-0.258,0.239,0.252,0.377c0.255,0.31,0.211,0.921,0.11,1.21c-0.198-0.069-0.26,0.017-0.299,0.283
	c-0.481,0.587-1.692,0.579-1.917,1.461c-0.43,0.392-1.165,1.927-2.044,1.242c-0.171-0.139-0.372-0.245-0.518-0.047
	c-0.734,0.441-1.717-1.187-2.088-0.361c-0.288,1.149-1.371,4.288-1.699,5.971c0.291,1.056,0.083,0.825-0.565,1.351
	c-0.389,0.699,1.222,1.952,1.587,1.933c0.085-0.298,0.237-0.887,0.692-0.974c1.573-0.066,1.791-0.976,3.316,0.346
	c0.413-2.005,2.842-2.848,4.038-1.036c0.852,0.084,0.851-0.181,1.163,0.628c0.722,0.108,0.6,0.534,1.399,0.896
	c0.897,0.545,0.579,0.359,0.848,0.974c0.411,0.27,0.722,1.156,0.503,1.556c-0.221-0.042-0.258-0.091-0.487,0.204
	c-0.271,0.401-0.339,0.051-0.676,0.016c-0.22,0.015-0.275,0.285-0.471,0.267c-0.179-0.174-0.451-0.139-0.645-0.11
	c-0.069-0.213-0.346-0.441-0.581-0.236c-0.236-0.511-0.4,0.11-0.41,0.314c-1.241-0.36-2.058,0.702-3.08,1.273
	c-0.166-0.292-0.808-0.278-0.721,0.17c0.045,1.019-1.043,0.645-1.574,0.883c-0.296,0.681-0.736,0.191-1.037,1.038
	c-0.112,0.173-0.361,1.052-0.409,1.21c0.106,0.479,0.329,0.728-0.173,1.022c-0.726,0.311-0.823,0.373-1.101,1.085
	c-0.753,0.627-2.105,0.861-2.939,0.472c-0.75,0.383-0.546,1.432-1.273,1.95c-0.296,0.554-0.303,0.616-0.817,0.66
	c-0.151,0.018-0.907,0.905-0.927,0.818c-1.018-0.22-2.835,0.406-3.41-0.707c-0.217-0.578-0.63,0.144-1.164-0.173
	c-1.161-0.243-1.545,1.974-1.587,2.624c-0.291,0.233-0.613,0.787,0.031,0.896c0.196,0.938,1.598,1.241,1.649,2.138
	c0.016,1.157-0.423-0.527-1.149,1.429c-2.082,0.457-2.768,3.056-4.478,4.307c-1.144-0.018-1.185,0.822-2.042,1.099
	c-0.759-0.03-1.829,0.243-2.514,0.235c-0.404-0.156-0.54-0.111-0.865,0.016c-0.487-0.276-1.242,0.301-1.651,0.219
	c-0.686,0.187-1.535-0.596-1.869,0.283c-2.032,0.294-4.376,1.699-6.192,2.892c-0.19,0.18-0.666,0.937-1.021,0.362
	c-0.886,0.06-1.375,0.242-1.382-0.911c-1.912,0.778-4.057-0.37-5.829-1.279c-1.498,0.383-2.114-0.471-2.859-1.475
	c-1.263,0.247-3.435-1.506-4.519-0.626c-4.186,0.823-8.08-0.984-12.334-1.16c0.283-0.943-1.209-1.472-1.279-2.274
	c-0.326-0.623-0.338-2.885-1.04-3.376c-0.245,0.113-0.401-0.295-0.365-0.399c0.812-1.726-1.657,0.279-2.154-2.014
	c-1.375-0.567-2.385-2.593-4.153-2.54c-0.299-0.235-0.91-0.51-1.275-0.208c-0.131,0.209-0.342,0.018-0.426-0.067
	c-0.778-0.017-1.203-0.181-2.166-0.481c-0.816,0.103-0.832-0.168-1.257-0.437c-0.159,0.205-0.261,0.098-0.565-0.117
	c-0.517-0.466-1.411,0.064-1.038-0.955c-1.668-1.715,1.624-2.367,0.841-4.195c0.891-0.401,0.664-2.594-0.209-2.92
	c-0.546-1.071-0.543-1.669-0.722-2.811c0.143,0.063-0.959-0.765-0.899-0.846c0.137-0.279-0.003-0.679-0.405-0.511
	c-0.38,0.724-0.639-0.231-0.742-0.512c0.367-0.386-0.592-0.292-0.737-0.276c-0.473,0.073-0.669,0.399-1.05-0.027
	c-0.003-0.375-0.102-0.457-0.629-0.736c-0.688-0.371-0.004-1.101-0.835-1.332c0.14-0.39-0.88-0.555-1.066-0.864
	c0.851-0.732-0.758-0.786-0.392-1.567c0.49-0.414,0.119-1.822-0.561-1.131c0.051,0.424-0.272,0.31-0.427,0.048
	c-0.308-0.008-0.545-0.475-0.834-0.26c0.031,0.384-0.271,0.066-0.532,0.165c-0.834,0.394,0.039,0.802-0.374,1.329
	c0.013,0.664-0.651,0.544-0.778,1.083c-0.107-0.094-0.427-0.015-0.518,0.01c0.007-0.182-0.125-0.281-0.273-0.131
	c-0.163,0.394-0.237,0.105-0.674,0.083c-1.151-0.197-0.965,0.156-1.518,0.994c0.034,0.307-0.173,0.454-0.331,0.653
	c0.164,0.735-0.085,1.441-0.096,2.096c0.274,0.435-0.092,2.093-0.537,1.64c0.064,0.622-0.599,0.267-0.833,0.141
	c-0.312,0.202-0.423,0.486-0.907,0.384c-0.055,0.46-0.814,0.512-0.903,0.295c0.154-0.091,0.322-0.612,0.096-0.725
	c-0.558-0.074-1.187-0.544-1.794-0.177c-0.153-0.129-0.461-0.15-0.64-0.146c-0.139-0.414-0.903-0.22-0.844-0.802
	c-0.278-0.052-0.379-0.079-0.477-0.373c-0.293-0.008-0.341-0.038-0.424-0.296c-0.74,0.224-1.323,1.491-1.638,2.025
	c-0.201,1.236-1.375,1.993-1.605,3.2c-0.939,0.674-1.479,1.466-0.109,1.959c0.311,0.411-0.006,1.15-0.46,1.209
	c-0.549,0.141-0.758-1.095-1.35-0.682c-0.113,0.385-0.416,0.058-0.659-0.043c-0.254-0.373-0.031-0.851-0.682-0.679
	c-0.255,0.279-0.496,0.162-0.843,0.174c-0.333,0.309-0.905,0.074-1.332,0.245c-0.354-0.228-0.832-0.125-1.243-0.258
	c-0.238,0.322-0.457-0.048-0.682-0.045c-0.243,0.258-0.616-0.031-0.9,0.308c-0.847,0.658,2.116,1.139,0.909,1.548
	c-0.319,1.086-0.382,2.356-0.541,3.546c-0.188,0.178-0.012,0.267,0.14,0.398c0.031,0.24,0.237,1.08,0.317,1.362
	c-0.515,0.423,0.265,1.311-0.586,1.255c-0.406,0.35-0.573,0.122-0.908,0.133c-0.391,0.299,0.433,0.633,0.484,0.843
	c-0.375,0.288-1.122-0.007-1.275,0.099c0.15,0.395-0.831,0.91-0.204,1.297c-0.169,0.053-0.522,0.32-0.372,0.597
	c0.292,0.26,0.056,0.307-0.056,0.635c-0.17,0.499,0.618,0.928-0.327,0.724c-1.297-0.539-0.958,0.232-1.925,0.61
	c-0.159,0.131-0.603-0.228-0.664-0.352c-1.111,0.161-2.452,0.641-3.531,0.849c0.191,0.527-0.423,0.55-0.655,0.685
	c-0.096,0.771-0.585,0.241-1.109,0.181c-0.913,0.176-2.105-0.284-3.017-0.684c-0.472,0-0.899,0.405-1.006,0.798
	c-0.034,0.014-0.495,0.07-0.512,0.201c0.27,0.459-0.128,0.658-0.483,0.815c-0.12,0.143-0.033,0.326-0.206,0.414
	c-0.137-0.017-0.505,0.185-0.571,0.216c-0.008-0.352-0.071-0.351-0.489-0.307c-0.414-0.022-0.579-0.217-0.789-0.185
	c-0.011,0.412-0.239,0.405-0.471,0.099c-0.727,0.168-0.299-0.533-0.064-0.696c-0.391-0.083-0.065-0.754-0.21-0.989
	c-1.57,0.562-1.055,1.074-2.512-0.048c-0.408,0.177,0.597,1.168-0.216,0.764c-0.087-0.092-0.237-0.248-0.368-0.176
	c-0.009,0.04-0.008,0.295-0.107,0.29c-0.101-0.221-0.235-0.234-0.584,0.061c-0.846,0.604-1.544-0.522-2.191,0.542
	c0.032,0.317-0.175,0.249-0.434,0.338c-0.642,0.413,0.492,0.284,0.117,0.848c-0.022,0.507-0.501,0.379-0.867,0.489
	c-0.386,0.205-0.304,0.472-0.549,0.677c-0.499,0.158-0.113,0.019,0.096,0.402c-0.085,0.387-0.071,0.549,0.204,0.89
	c0.197,0.645-0.625,0.024-0.632,0.493c0.576,0.222-0.204,0.257,0.07,0.879c-0.206,0.237,0.408,0.82,0.622,0.822
	c0.072-0.163,0.397-0.399,0.505-0.486c0.18,0.213,0.433,0.215,0.695,0.256c0.398,0.36,0.19,0.284,0.862,0.668
	c0.555,0.218,0.814,1.213,0.142,1.029c-0.049-0.107-0.256,0.798-0.233,0.989c0.048,0.224,0.227,0.303,0.187,0.486
	c-0.079,0.272-0.506,0.675-0.133,0.918c-0.086,0.236-0.782,0.636-0.349,1.087c0.377,0.321,0.329,0.295,0.179,0.739
	c-0.251,0.824-1.484-0.143-2.007-0.043c-0.163-0.22-0.213-0.167-0.471,0.021c-1.288,0.053,2.719,2.116,2.812,2.203
	c-0.102,0.598,0.097,0.602,0.493,0.945c0.126,0.442-0.15,1.843-0.195,2.12c-0.232,0.081-0.2,0.267-0.249,0.497
	c-0.253,0.16-0.37,0.191-0.22,0.552c-0.012,0.253-0.303,0.381-0.221,0.535c0.096,0.182,0.64,0.069,0.787,0.404
	c-0.187,1.68,1.734-0.296,2.407,0.61c0.518,0.741-0.374,2.094,0.797,2.359c0.3-0.025,0.418-0.472,0.834-0.438
	c0.233,0.02,0.305,0.194,0.579,0.111c0.549-0.442,0.421-0.017,0.78,0.338c1.546-0.421,2.033,1.425,2.91,1.951
	c-1.743,0.624-0.303,1.449,0.399,2.373c0.086,1.732,0.375,0.904,1.641,1.416c0.936,0.512-0.11,1.931-0.99,1.287
	c-0.189-1.065-1.88-1.245-2.271-0.144c-0.172,0.04,0.952,1.509,0.742,1.496c-0.795-0.074-0.214-0.027-0.143,0.472
	c-0.728,0.988-0.167,0.504,0.393,1.351c-0.26,0.852,0.256,2.393-0.305,3.262c-0.362,0.319-1.596,1.352-1.527,0.162
	c-0.297-0.334-0.335-0.762-0.439-1.045c-0.284,0.214-1.236,0.067-0.896,0.728c-0.039,0.297-0.421,0.456-0.321,0.587
	c0.426,0.058,0.419,0.158,0.456,0.629c0.877,0.55-0.759,2.499,0.19,3.228c0.151,1.904,0.576-1.028,1.068,0.949
	c-0.005,0.64,0.389,0.735,0.617,1.265c0.05,0.612,0.109,0.316,0.608,0.282c0.61,0.09,0.662,0.842,1.048,1.061
	c0.234,0.065,0.745,0.271,0.511,0.559c-0.341-0.202-0.367,0.468-0.322,0.627c0.613-0.094,1.007,0.623,1.593,0.939
	c0.111,0.38,0.751,0.685,0.869,0.901c-0.427,0.425,0.072,0.165,0.432,0.537c0.151,0.239,0.023,0.586,0.174,0.61
	c0.022-0.05,1.033-0.509,0.964-0.632c0.073-0.189-0.019-0.356,0.111-0.407c0.234,0.08,0.573-0.003,0.758-0.141
	c0.235-0.04,0.387,0.221,0.821,0.369c0.499,0.176,0.915,0.026,0.931,0.214c-0.197,0.206-0.113,0.411,0.016,0.663
	c-0.012,0.186-0.24,0.326-0.187,0.486c1.041,0.82,1.791,1.005,2.263,2.119c1.207,0.665,2.121,1.268,2.311,2.558
	c0.215,0.667,0.304,0.011,0.843,0.167c0.398-0.223,0.503,0.024,0.89,0.063c0.252-0.089,0.137,0.073,0.232,0.22
	c0.276,0.09,0.383,0.21,0.124,0.333c-0.026,0.168,0.246,0.849,0.195,0.859c-0.061,0.168-0.247,0.223-0.206,0.361
	c0.327,0.117,0.34,0.564,0.6,0.75c0.32,0.24,0.547,0.057,0.741,0.224c-0.038,0.385,0.664,0.417,0.934,0.739
	c0.799-0.512,1.218,0.438,0.673,0.991c0.244,0.122-0.02,0.584,0.067,0.625c0.226-0.081,0.394-0.024,0.566,0.15
	c0.186,0.046,0.341-0.21,0.592-0.128c0.476,0.346,0.259,0.378,0.553-0.111c0.369-0.265,0.153,0.104,0.29,0.42
	c0.345,0.259,0.352,0.837,0.389,1.218c0.334,0.098,0.072,0.484,0.163,0.59c0.234-0.083,0.909,0.227,0.571-0.289
	c0.162-0.396-0.311-0.384,0.226-0.539c0.091-0.362,0.269-0.273,0.391,0.054c-0.141,0.316,0.009,0.974,0.424,1.005
	c0.845,0.471,0.382-1.321,1.215-0.483c0.86,0.604,1.663,1.83,2.585,1.376c0.145,0.034,0.195,0.319,0.393,0.313
	c0.356-0.243,0.443-0.14,0.798,0.009c0.31-0.099,0.398-0.224,0.92-0.162c1.028,0.063,0.825,0.083,1.017,0.056
	c4.595-1.74,0.451,2.292,2.117,3.026c-0.002-0.198,0.369-0.662,0.525-0.844c0.077-0.542,0.123-0.484,0.655-0.705
	c0.95-1.019,2.755-2.297,4.207-1.994c0.308,0.179,1.093,0.202,1.373,0.512c-0.534,0.466-0.468,0.654,0.397,0.534
	c0.564,0.577,1.621,1.282,2.391,0.438c0.412,0.366,1.042,0.652,1.28,1.172c1.018-0.114,0.327,1.101,1.505,0.364
	c1.448-0.798,0.227,0.755,1.621,0.193c0.656-0.173,0.754-0.042,0.891-0.263c0.049-0.415-0.003-1.469,0.761-0.945
	c0.069-0.2,0.27-0.292,0.439-0.405c0.116-0.612,0.921,0.126,0.868-0.745c0.109-0.245,0.343-0.224,0.504-0.591
	c0.21-0.645,0.863,0.02,1.622-0.324c0.462-0.355,0.713,0.336,0.911-0.191c0.357-0.996,1.092-2.028,2.333-2.103
	c0.242-0.711,0.54,0.21,0.661,0.454c0.069-0.02,0.834,0.542,0.98,0.447c0.425-0.438,0.873,0.372,1.176,0.488
	c0.757,0.224,0.909-1.233,1.664-1.162c0.35-0.06,0.454,0.116,0.713-0.057c0.239-0.226,0.418-0.576,0.676-0.279
	c0.13,0.202,0.092,0.9,0.441,0.974c0.186,0.066,1.283-0.565,0.757,0.078c-0.402,0.187-1.252,0.248-1.079,1.015
	c-0.314,0.96,1.312-1.084,1.345,0.464c0.178,0.232,0.41,0.34,0.195,0.662c-0.27,0.036-0.405,0.298-0.604,0.479
	c-0.344,0.047-0.353,0.072-0.443,0.444c-0.464,0.547-0.106,0.277,0.31,0.536c0.818-0.847,0.886,0.302,1.968,0.151
	c0.818-0.306,1.279,1.729,1.51,0.388c0.863,0.087-0.133-1.314,1.186-0.839c-0.067,0.429,0.228,0.957,0.586,0.387
	c0.038,0.182,0.492,0.462,0.635,0.596c0.044,0.142-0.07,0.29,0.034,0.344c0.769-0.011,0.013,0.864,0.504,1.252
	c0.026,0.53,0.248,1.223,0.37,1.755c0.591,0.596,0.27-0.529,0.598-0.54c0.084,0.14,0.301,0.053,0.415,0.055
	c0.075,0.058,0.035,0.241,0.163,0.273c0.723-0.097,0.178,1.471,0.225,1.883c0.517,0.277-0.007,0.94,0.053,1.337
	c0.339,0.468,0.12,1.473-0.117,2.157c-0.327,0.209-0.145,0.251,0.037,0.51c0.107,0.334-0.157,0.735-0.412,0.312
	c-0.327-0.025-0.055,0.543-0.025,0.743c0.473,0.008,0.376,0.906-0.09,0.798c-0.172-0.347-0.169-0.466-0.413-0.045
	c-1.326,2.507-0.464,0.085-1.406,0.869c-0.102,0.248-0.179,1.116-0.563,1.245c-0.671,0.091-0.092,0.576-0.849,0.016
	c-0.145,0.521-0.899,1.129-0.332,1.689c0.283,0.585-0.762-0.211-0.873,0.504c0.124,0.197-0.393,1.408,0.175,1.347
	c0.068,0.025,0.304,0.12,0.286,0.259c-0.498,0.619,0.374,0.007,0.047,0.664c0.395,0.421-1.249,1.116-0.478,1.427
	c0.256,0.636,1.172-0.808,1.529-0.46c0.117-0.296,0.113-0.349,0.477-0.293c0.391-0.358,0.925,0.114,1.201-0.155
	c0.692-0.037,0.539,0.398,1.567,0.042c1.01-0.205-0.141,0.71-0.533,0.742c0.042,0.494-0.15,0.892,0.503,0.854
	c0.115,0.116-0.071,0.499,0.145,0.655c0.428,0.068-0.028,0.246-0.037,0.449c0.325,0.107,0.168,0.691,0.158,0.87
	c0.385,0.092-0.068,0.463-0.01,0.604c0.45-0.019,0.594,0.599,1.115,0.412c0.493,0.224,1.056-0.313,1.422,0.38
	c0.176,0.454,0.07,0.629-0.325,0.533c-0.48,0.585-0.264,1.624-0.874,2.205c-0.385,0.651-0.514,1.655,0.684,1.214
	c0.258-0.115,0.234,0.014,0.37,0.113c0.232-0.183,0.417,0.161,0.662,0.178c0.185-0.164,0.334,0.198,0.521,0.172
	c0.253-0.115,0.463-0.393,0.658,0.042c-0.125,0.244-0.291,0.899,0.066,1.196c0.213,0.399,0.565-0.097,0.555,0.442
	c-0.186,0.124-0.131,0.563,0.134,0.48c0.045,0.044,0.094,0.467,0.253,0.459c0.429-0.511,0.682-0.551,0.902-0.018
	c0.123-0.148,0.377-0.099,0.525-0.01c0.027-0.063,0.532-0.08,0.566-0.176c0.11-0.52,0.897-0.653,1.299-0.971
	c0.498,0.162,0.829,0.986,0.453,1.449c-0.161,0.211,0.505,0.169,0.376,0.517c-0.391,1.007,1.234-0.412,1.358,0.346
	c0.257-0.221,0.315,0.116,0.475,0.24c0.433,0.18,0.904-0.287,0.429-0.576c-0.272-0.081-0.364-0.1-0.313-0.451
	c0.098-0.382,0.081-0.847,0.398-1.035c0.026-0.179-0.316-0.482-0.323-0.574c-0.02-0.316,0.209-0.583-0.251-0.852
	c-0.334,0.015-0.435-0.817-0.208-0.953c0.011-0.116-0.243-0.273-0.171-0.406c0.475-0.195,0.07-1.057,0.665-0.885
	c0.244-0.17,0.436,0.124,0.501,0.268c0.372-0.307,1.004-0.307,1.219,0.158c0.275-0.058,0.382-0.243,0.414-0.561
	c0.276-0.264,0.352-0.516,0.493-0.845c0.168-0.061,0.185-0.375,0.261-0.393c0.377,0.222,0.922,0.304,1.411,0.645
	c0.443-0.016,0.229,0.539,0.401,0.676c0.232-0.098,0.418,0.058,0.573,0.147c-0.04-0.27,0.241-0.23,0.378-0.303
	c0.178-0.043,0.134-0.408,0.148-0.485c0.13-0.092,0.342-0.01,0.427-0.313c0.259-0.191,0.143-0.544,0.242-0.674
	c0.676-0.293,0.236,1.522,0.908,0.94c-0.202-0.4,0.273-0.637,0.523-0.411c1.506,2.01,0.706,0.166,1.874-0.501
	c0.592-0.222,0.031,0.613,0.791,0.512c0.256-0.086,0.713-0.722,0.785-0.655c0.015,0.153,0.442,0.283,0.495,0.149
	c1.445-1.131-0.761-1.04,1.931-2.05c0.73-0.805,0.669,0.001,1.391,0.342c0.082,0.456,0.31,0.504,0.773,0.572
	c0.334,0.195,0.37,0.663,0.592,0.641c1.746-1.306,1.135,1.049,2.772-0.285c0.096,0.042,0.122,0.362,0.311,0.396
	c0.162-0.127,1.398-0.136,0.646,0.422c0.039,0.31-0.224,0.489-0.208,0.756c-0.127,0.146-0.278-0.069-0.332-0.073
	c-0.209,0.162-0.432,0.956-0.28,1.044c0.617-0.076,0.582,0.934,0.472,1.455c-0.065,0.32,0.123,0.173,0.401,0.184
	c0.112,0.031,0.123,0.106,0.276,0.104c0.373-0.156,0.326,0.269,0.701,0.021c0.341,0.005,0.082,0.262,0.057,0.424
	c0.302,0.261,0.646,0.252,0.914,0.588c0.557-0.38,0.426,0.014,0.562,0.378c0.147-0.218,0.645-0.093,0.804,0.045
	c0.501,0.13,0.912-0.518,1.399-0.215c0.166,0.451,0.553,0.317,0.876,0.188c0.109,0.165,0.15,0.005,0.278-0.152
	c0.365-0.366,0.366,0.198,0.189,0.328c0.56-0.071,0.21-0.37,0.6-0.522c0.463-0.468,0.513,0.214,0.064,0.239
	c0.23,0.147,1.018-0.246,0.702-0.604c-0.201,0.034-0.131-0.035-0.117-0.236c-0.186-0.192-0.075-0.959,0.195-0.542
	c0.346-0.099,0.02,0.082,0.061,0.327c-0.02,0.287,0.282,0.021,0.3-0.006c-0.067,0.22-0.026,0.24,0.166,0.301
	c-0.002,0.271,0.081,0.173,0.227,0.181c-0.281,0.436,0.61,0.371,0.228-0.07c0.289-0.123,0.007-0.474-0.078-0.575
	c0.097-0.126,0.143-0.018,0.277,0.095c0.254,0.285-0.306,1.056,0.715,0.83c0.549,0.146,0.749,0.338,0.125,0.569
	c-0.109,0.193,0.223,0.378,0.324,0.329c0.794-0.211,2.296-0.261,1.45-1.408c0.094-0.055,0.391-0.52,0.432-0.216
	c-0.351,0.081-0.148,0.757,0.052,0.693c0.024-0.022,0.197-0.264,0.253-0.209c-0.058,0.146-0.105,0.612,0.131,0.599
	c0.178-0.026,0.021-0.172,0.059-0.286c0.138-0.324,0.217,0.333,0.322,0.341c0.031,0.055,0.608-0.286,0.579-0.205
	c-0.238,0.131-0.026,0.594-0.413,0.773c-0.587-0.232,0.142,1.037-0.464,0.723c-0.184,0.121-0.046,0.351,0.063,0.46
	c0.026,0.4-0.281,0.893,0.183,1.095c-0.015-0.111,0.175-0.222,0.214-0.102c-0.207,0.566,0.007,0.531,0.368,0.433
	c-0.007,0.258-0.565,0.202-0.374,0.458c0.298-0.092,0.343,0.426,0.371,0.528c0.239-0.059,0.442,0.331,0.664,0.25
	c0.01,0.045-0.067,0.139-0.01,0.183c0.217-0.054,0.112,0.331-0.012,0.295c-0.001-0.355-0.387-0.43-0.466-0.169
	c0.03,0.034,0.181,0.058,0.197,0.121c0.033-0.079-0.067,0.518-0.019,0.526c0.219-0.63,0.727,0.183,1.181-0.218
	c0.422,0.085,1.644-0.676,1.222-1.386c-0.089-0.218-0.128-0.059-0.235-0.049c-0.074-0.105-0.305-0.383-0.521-0.39
	c-0.015,0-0.102-0.584-0.084-0.619c0.216,0.582,0.446,0.022,0.092-0.247c-0.307-0.243-0.825,0.376-0.748-0.168
	c0.043-0.286-0.13-0.217-0.306-0.394c-0.134-0.23,0.075-0.029,0.216-0.062c0.223-0.035,0.267-0.393,0.353-0.456
	c0.387,0.222,0.345-0.459,0.778-0.453c0.678,0.026,0.747-0.657,1.209-0.898c0.234,0.104,1.445-0.276,0.828-0.425
	c0.057-0.03,0.194-0.449,0.17-0.408c-0.094,0.469,0.603,0.088,0.295,0.465c0-0.014,0.78-0.27,0.657-0.164
	c-0.056,0.065-0.102,0.283,0.051,0.294c0.299-0.209,0.158-0.916,0.608-0.411c0.14-0.041-0.007-0.279-0.037-0.288
	c0.791,0.469,0.735-0.064,1.362-0.382c0.424-0.47-0.435-0.327-0.404-0.691c0.029-0.045,0.647-0.015,0.613,0.015
	c-0.153,0.33,0.663,0.339,0.083,0.508c0.026,0.041-0.049,0.48-0.079,0.477c-0.01,0.064,1.236-0.643,0.587-0.54
	c-0.529-0.224,0.281-0.279-0.095-0.739c-0.136-0.335,0.389,0.152,0.652-0.008c0.237-0.07,0.443,0.387,0.629,0.369
	c1.163,0.025,0.108-1.179,0.464-1.532c0.086-0.005,0.052,0.509,0.102,0.456c0.144,0.072,0.238-0.239,0.259-0.275
	c0.328,0.161-0.296,0.432-0.134,0.691c0.142,0.046,0.486,0.261,0.55,0.4c0.48-0.069,0.153-0.577,0.566-0.707
	c0.63-0.989,0.433,0.329,1.021-0.102c0.029-0.118-0.003-0.224,0.117-0.283c-0.164-0.301-0.235-0.912,0.188-1.147
	c0.128,0.167,0.22,0.981,0.652,0.582c0.057-0.021,0.048-0.632,0.204-0.683c0.313-0.033,0.455,0.104,0.55-0.291
	c0.449-0.083,0.499-0.405,0.283-0.716c0.056-0.194,0.114-0.76-0.048-1.029c0.493-0.05-0.153-0.266-0.11-0.472
	c0.464,0.009,0.147-0.075,0.071-0.299c0.151-0.144,0.373,0.198,0.464,0.236c0.361-0.154,0.612,0.195,0.605,0.535
	c-0.037-0.013,0.388,0.4,0.409,0.401c-0.006,0.178-0.307,0.423,0.047,0.275c0.04-0.371,0.443-0.613,0.479-0.11
	c-0.095,0.177-0.517,0.239-0.346,0.511c0.266-0.105,0.831,0.127,1.076-0.031c0.198,0.076,0.368,0.406,0.566,0.212
	c-0.151-0.11-0.263-0.476-0.251-0.621c-0.079-0.044-0.243,0.181-0.306,0.141c-0.199-0.468,0.666-0.127,0.323-0.511
	c-0.138-0.151-0.345-0.137-0.346-0.188c0.711-0.682,1.057,0.555,1.485-0.598c-0.678,0.097,0.228-0.608,0.494-0.62
	c0.32-0.062-0.053,0.575,0.29,0.77c0.104,0.04,0.192-0.127,0.322-0.102c0.215,0.066,0.228,0.438,0.267,0
	c0.124-0.371-0.246-0.507-0.283-0.684c0.05-0.097,0.369,0.111,0.44,0.196c0.251-0.125-0.019-0.595,0.464-0.55
	c0.231,0.033,0.252,0.092,0.244-0.126c0.655-0.422,0.692-0.264,0.213,0.197c0.156-0.228,1.332-0.18,0.534,0.031
	c-0.066,0.414,0.651,0.066,0.864,0.157c-0.093-0.211,0.155-0.421-0.072-0.581c0.114-0.292,0.034-0.116-0.142-0.165
	c-0.081-0.426,0.371,0.132,0.527-0.299c0.482-0.34,0.077,0.032,0.078,0.205c0.244-0.092,0.385,0.181,0.566,0.432
	c0.118,0.038,0.199-0.296,0.503-0.416c0.36-0.063,0.467-0.136,0.377-0.464c0.536-0.183-0.231,0.812,0.502,0.189
	c0.064-0.093,0.035-0.131,0.11-0.228c0.026,0.012,0.36-0.358,0.392-0.314c0.135,0.262,0.802,0.058,0.761-0.251
	c0.246-0.307,0.14-0.442,0.118-0.738c0.183-0.181,0.237-0.407-0.087-0.362c0.161-0.323,0.586,0.141,0.715-0.141
	c0.126,0.024,0.343,0.158,0.33-0.086c-0.381-0.729-0.645,0.035-1.085-0.377c-0.187-0.544,0.577,0.055,0.817-0.079
	c0.481-0.231,0.267-1.638,1.037-1.454c0.361,0.338,0.499,0.165,0.479-0.252c0.059-0.053,0.238,0.082,0.272,0.042
	c-0.095-0.25-0.173-0.266,0.178-0.367c0.139-0.187,0.342-0.182,0.513-0.231c0.042-0.085,0.226-0.542-0.084-0.529
	c-0.862-0.212,0.46-0.14,0.629-0.039c0.506,0.895,0.017-0.433,0.424-0.644c0.501-0.162-0.022,0.217,0,0.448
	c0.14,0.415,0.295-0.492,0.636-0.557c-0.016-0.186-0.131-0.355,0.023-0.519c-0.078-0.294,0.084-0.377,0.275-0.165
	c0.022-0.121,0.224-0.404,0.369-0.471c0.073-0.372-0.35-0.375-0.471-0.22c0.547-0.621-0.207-0.13-0.403-0.141
	c-0.115,0.01-0.597-0.134-0.188-0.22c-0.055-0.206-0.274-0.232,0.084-0.194c0.264,0.119,0.765-0.196,0.403-0.346
	c-0.495,0.029-0.332-0.197-0.016-0.147c0.234-0.112,0.198-0.016,0.335,0.141c0.081,0.015,0.368,0.039,0.393,0.126
	c0.065-0.181-0.328-0.319-0.38-0.398c-0.053-0.554,0.315-0.555,0.284-0.079c0.136,0.156,0.292,0.112,0.37-0.079
	c0.279-0.184,0.497,0.112,0.479-0.377c-0.007-0.339,0.111-0.273,0.15-0.063c-0.241,0.501,0.678,0.118,0.488,0.645
	c0.082,0.046,0.45-0.334,0.369-0.495c-0.134-0.1-0.349-0.22-0.133-0.377c0.385,0.195,0.265-0.308,0.086-0.456
	c-0.512,0.583-0.231-0.475-0.086-0.59c0.121,0.607,0.462,0.217,0.848-0.016c-0.042-0.248,0.017-0.119,0.22-0.173
	c0.19-0.113-0.081-0.224,0.024-0.377c-0.078-0.218-0.237,0.126-0.431,0.024c-0.425-0.244,0.559-0.356,0.086-0.77
	c-0.692-0.103,0.245-0.476,0.37-0.377c-0.063-0.045-0.226,0.324-0.094,0.337c0.146-0.502,0.406-0.101,0.141,0.212
	c0.212,0.51,0.318-0.422,0.299-0.51c0.152-0.077,0.189,0.302,0.188,0.314c0.074-0.168,0.349-0.024,0.424-0.087
	c0.018-0.138,0.073-0.282,0.204-0.298c-0.347-0.219-0.42-0.376-0.573,0.063c-0.143-0.08-0.021-0.189-0.016-0.306
	c-0.056-0.211-0.305-0.169-0.377-0.228c-0.064-0.27,0.338-0.304,0.408-0.464c0.004-0.189,0.279-0.421,0.353-0.165
	c0.122,0.161,0.475-0.001,0.566,0.133c-0.035,0.364,0.204,0.732,0.229,0.087c0.343-0.192,0.086,0.37,0.314,0.392
	c0.353-0.465-0.474-0.511-0.345-0.841c-0.2-0.02-0.743-0.13-0.566-0.518c0.475-0.182,0.89,0.002,0.385-0.66
	c0.138-0.377,0.504-0.62,0.299-0.841c-0.41,0.12-0.424-0.456-0.502-0.684c0.129-0.187,0.281-0.187,0.133-0.385
	c-0.03-0.238,1.055-0.252,0.935-0.668c-0.147,0.011-0.285,0.242-0.409-0.063c-0.271-0.059-0.414,0.793-0.62,0.338
	c-0.113-0.362-0.076-0.322-0.354-0.267c-0.222-0.28,0.189-0.203,0.283-0.338c0.112,0.151,0.422,0.133,0.565,0.18
	c0.133-0.176-0.067-0.279-0.126-0.408c-0.016-0.223,0.086-0.256-0.173-0.267c-0.299-0.248-0.586,0.29-0.825-0.118
	c-0.055-0.305,0.138-0.118,0.244-0.102c0.115-0.212-0.16-0.156-0.228-0.212c0.034-0.042,0.085-0.269,0.055-0.338
	c0.126-0.153,0.214,0.004,0.181,0.102c0.178-0.076,0.307,0.349,0.424,0.095c-0.137-0.037-0.272-0.561-0.329-0.628
	c0.27-0.058,0.208,0.537,0.48,0.51c0.03-0.123,0.101-0.395,0.282-0.275c-0.047,0.004-0.289,0.333-0.133,0.424
	c0.081-0.047,0.343,0.13,0.361,0.15c-0.098-0.247,0.217-0.346,0.031-0.596c0.217-0.181,0.436-0.147,0.322,0.377
	c0.055,0.54-0.562,0.298-0.526,0.755c0.203,0.217,0.276,0.07,0.495-0.244c0.316-0.532,0.518,0.016,0.535-0.362
	c-0.196-0.231-0.208-0.142-0.024-0.345c-0.047-0.084-0.123-0.26-0.141-0.337c-0.069-0.029-0.353-0.113-0.338-0.269
	c0.084-0.078,0.34-0.181,0.408-0.346c0.361-0.045,0.38-0.203,0.084-0.21c-0.009-0.027,0.176-0.064,0.23-0.199
	c0.028,0.009,0.011-0.369,0.032-0.356c0.063-0.076,0.247,0.065,0.377-0.021c0.038-0.1,0.254-0.263,0.335-0.262
	c0.001-0.033-0.185-0.045-0.189-0.094c-0.015-0.009,0.349-0.216,0.325-0.209c0.029-0.161-0.064-0.418,0.105-0.545
	c-0.28-0.322,0.04-0.396,0.262-0.23c-0.054-0.267,0.024-0.822-0.273-0.524c0.011-0.052-0.161-0.458-0.272-0.44
	c0.327,0.126,0.462-0.509,0.253-0.692c0.177-0.007,0.32,0.152,0.325-0.241c0.097-0.229,0.37-0.421,0.199-0.733
	c-0.074,0.03-0.635-0.118-0.597-0.273c0.298,0.068,1.284,0.154,0.973-0.483c0.176-0.22,0.87-0.662,0.134-0.85
	c0.119-0.052,0.302-0.043,0.337-0.282c0.221-0.089,0.149-0.304,0.125-0.424c0.326,0.091,0.271,0.604,0.393,0.825
	c-0.182-0.005-0.243,0.294-0.346,0.409c0.036,0.088,0.097,0.369,0.103,0.448c0.282,0.114,0.256-0.284,0.393-0.4
	c-0.027-0.081-0.091-0.35,0.071-0.369c0.243,0.276,0.207-0.102,0.196-0.259c0.037-0.135,0.209-0.15,0.204-0.243
	c-0.126-0.236-0.094-0.073,0.11-0.134c0.087-0.347,0.528-0.22,0.549,0.056c0.499-0.739-0.636-0.171-0.26-0.864
	c-0.004-0.045-0.36-0.643-0.4-0.691c0.018-0.058-0.741-0.022-0.534-0.26c0.969,0.279,1.517-0.802,0.322-0.895
	c-0.038-0.118,0.13-0.299,0.188-0.126c0.182,0.139,0.537-0.059,0.558-0.18c-0.154-0.162-0.425,0.044-0.11-0.212
	c-0.092-0.241-0.514,0.169-0.621,0.016c-0.022-0.164,0.295-0.131,0.314-0.181c0.049-0.411-0.642-0.05-0.738-0.063
	c0.055-0.048,0.105-0.214,0.008-0.275c0.022-0.007,0.351-0.034,0.306-0.173c-0.255-0.574,0.173-0.325,0.259-0.102
	c0.018-0.007-0.131-0.304-0.039-0.393c0.332-0.11,0.051,0.878,0.527,0.291c0.085-0.094-0.046-0.609,0.009-0.621
	c0.464-0.057-0.02,0.796,0.424,0.707c0.048-0.139,0.364-0.283,0.337-0.48c-0.227-0.038-0.318-0.122-0.26-0.361
	c-0.085-0.187-0.092-0.252,0-0.424c-0.09-0.226-0.168-0.358-0.016-0.558c-0.134-0.375-0.741,0.022-0.771,0.243
	c0.247,0.07,0.526,0.242,0.047,0.361c-0.282-0.569-0.729,0.482-0.904,0.519c-0.021,0.051-0.098-0.57-0.078-0.589
	c0.197,0.227,0.549-0.253,0.747-0.346c0.284-0.484,0.761-1.27,1.162-1.58c-1.13,0.418-1.942-0.33-2.679-1.019
	c-0.975-0.869-1.799,1.393-2.805,1.014c-0.47,0.143-0.267-0.652-0.527-0.809c-0.388,0.08-0.626,0.832-1.123,0.487
	c0.051-0.329,0.52-0.221,0.581-0.637c0.53-0.049,1.095-0.405,1.296-0.008c0.205,0.066,0.46-0.075,0.542-0.236
	c-0.042-0.195,0.043-0.145,0.157-0.196c-0.036-0.962,1.48-1.851,2.301-2.45c1.118,0.049,0.475-0.815,0.103-1.296
	c-0.034-0.287-0.318-0.378-0.448-0.488c0.057-0.163,0.185-0.324,0-0.487c-0.011-0.177,0.476-0.269,0.471-0.448
	c-0.053-0.258-1.485-0.597-0.534-0.7c0.784,0.072,0.294-0.487,0.063-0.722c0.05-0.742-1.024-0.645-1.304-0.927
	c-0.326-0.164-0.912-0.237-0.431-0.589c0.095-0.796-3.164-0.658-2.058-1.327c0.044-0.214-0.152-0.153-0.29-0.189
	c-0.25-0.166,0.189-0.507-0.031-0.7c-0.218-0.135-0.149-0.396-0.165-0.543c-0.37,0.054-0.196-0.131-0.503-0.236
	c-0.017-0.167-0.02-0.247-0.196-0.267c0.305-0.661-0.535-0.117-0.409-0.629c-0.261-0.06-0.199-0.588-0.275-0.785
	c-0.108-0.162-0.451-0.141-0.417-0.416c0.375-0.014-0.059-0.429-0.203-0.542c-0.665-1.259-1.282-2.431-2.876-2.366
	c-0.122,0.089-0.2-0.026-0.251-0.117c-0.195-0.111-0.436,0.142-0.519,0.157c0.169-0.597-0.35-0.261-0.629-0.629
	c0.079-0.416-0.618-0.439-0.692-0.22c-0.313-0.031-0.456-0.184-0.51-0.55c0.165-0.276-0.11-0.608,0.118-0.841
	c0.35-0.34,0.452-0.173,0.354-0.746c-0.152-0.524,0.408-0.272,0.299-0.794c-0.008-0.295-0.074-0.349,0.141-0.228
	c0.204-0.03,0.051-0.603,0.094-0.652c0.212,0.082,0.339-0.241,0.361-0.315c0.105,0.451,0.252,0.043,0.526,0.031
	c0.198-0.329-0.366-0.72,0.291-0.433c0.148-0.2,0.05-0.627-0.118-0.708c0.09,0.016,1.455-0.965,0.613-0.63
	c-0.303,0.146-0.116-0.232-0.181-0.338c-0.342,0.221-0.547-0.263-0.307-0.487c0.129,0.061,0.222-0.052,0.299-0.118
	c0.476,0.311-0.024-0.721,0.424-0.424c-0.126,0.26,0.237,0.554,0.416,0.762c0.132,0.535,0.119,0.083,0.573-0.141
	c0.6-0.074,0.222-0.424,0.071-0.715c0.057-1.928,0.924,0.026,0.669-0.911c0.074-0.016,0.205-0.256,0.165-0.307
	c-0.006-0.418-0.336,0.093-0.448-0.267c-0.192-0.04-0.13,0.319-0.291,0.204c-0.138-1.118,0.746-0.05,0.935-0.55
	c0.545,0.338,0.194-0.428,0.502-0.283c0.303-0.163,0.984-0.353,0.731-0.833c-0.046-0.448,0.054,0.134,0.251-0.157
	c0.177,0.019,0.576,0.254,0.755-0.016c-0.143-0.328,0.943-0.597,0.377-0.644c-0.055-0.056,0.046-0.28,0.118-0.275
	c0.122,0.23,0.375,0.045,0.416,0.362c0.209-0.054,0.322-0.477,0.306-0.644c0.51-0.116,0.036,0.413,0.015,0.526
	c0.229-0.045,0.118,0.123,0.204,0.298c0.344,0.09,0.604-0.099,0.786-0.299c-0.24,0.093-0.234-0.249,0.015-0.165
	c0.187-0.214,0.394-0.179,0.22-0.637c-0.06,0.148-0.19,0.193-0.346,0.196c-0.095,0.118-0.155,0.226-0.212,0.023
	c0.056-0.159,0.301-0.239,0.149-0.409c0.931-0.169,0.531-0.445,0.213-0.864c0.168,0.015,0.122-0.113,0.095-0.236
	c0.21-0.019,0.485-0.319-0.008-0.15c-0.387,0.021-0.171,0.619-0.526,0.078c-0.095-0.08-0.284,0.139-0.534,0.102
	c-0.099-0.107-0.559-0.152-0.621-0.213c0.208-0.476-0.676,0.131-0.904,0.37c-0.595,0.135-0.883,0.384-1.469-0.024
	c-0.546-0.202,0.242-0.419-0.48-0.384c0.07,0.255,0.124,0.217-0.267,0.228c-0.329,0.018-0.299,0.022-0.259-0.205
	c-0.228-0.462-0.635-0.185-1.045-0.574c-0.687,0.041-0.727,0.498-1.36,0.543c-0.088,0.088-0.39,0.452-0.503,0.456
	c0.482,0.061-0.234,0.934-0.33,0.997c-0.282-0.011-0.767,0.371-0.888,0.605c0.611,0.34-0.172,0.593-0.173,0.982
	c-0.129,0.038-0.374-0.029-0.51,0.118c-0.256-0.007-0.342,0.021-0.519,0.228c-0.162-0.019-0.731,0.023-0.914,0.029
	c-0.15-0.18-0.327-0.283-0.545-0.277c-0.082-0.121-0.042-0.254-0.209-0.151c-0.393-0.132-0.174-0.359-0.629-0.398
	c-0.13-0.205,0.103-0.296,0.272-0.35c0.174-0.148-0.072-0.644,0-0.759c0.11-0.055,0.161-0.165,0.183-0.278
	c0.087-0.05,0.234-0.123,0.126-0.24c-0.152,0.079-0.22,0.026-0.33-0.11c-0.29,0.054-0.525-0.455-0.633-0.7
	c-0.039,0.037-0.422,0.039-0.471,0.078c-0.257,0.244-0.218-0.129-0.48,0.063c-0.655-1.134-0.601,0.374-1.258-0.392
	c-0.124,0.434,0.205,0.72-0.243,0.699c-0.129,0.266-0.037,0.199-0.204-0.007c-0.452,0.014,0.017-0.4-0.008-0.464
	c-0.228,0.138-0.693-0.224-0.747-0.416c-0.874-0.008,0.392-0.374-0.566-0.856c-0.651-0.602-0.855-1.36-0.275-2.192
	c0.212-0.138-0.386-1,0.087-0.755c0.266-0.24,0.782-0.962,1.367-0.464c0.234,1.017,1.027-0.134,1.453-0.313
	c0.209,0.066,0.445,0.22,0.558-0.079c0.015-0.349,0.201-0.188,0.219,0.039c0.017-0.043,0.098-0.226,0.235-0.188
	c0.244-0.013,0.294-0.767,0.384-0.306c0.19-0.074,0.138-0.469,0.22-0.543c0.365-0.167,0.049-0.583,0.11-0.809
	c-0.256,0.097-0.156-0.185,0.071-0.219c0.105-0.212-0.078-0.53,0.275-0.818c0.357-0.102,0.247-0.357,0.298-0.558
	c0.905-0.289,1.822-1.476,2.726-1.862c0.004-0.253,0.04-0.485,0.196-0.652c-0.114-0.054-0.169-0.129-0.008-0.267
	c0.043-0.319,0.421-0.736,0.613-0.958c-0.167-0.417,0.673-0.26,0.448-0.629c-0.541,0.123-0.113-0.178-0.094-0.393
	c0.058-0.054,0.184,0.038,0.228-0.008c-0.17-0.267,0.341-0.642,0.612-0.66c0.248,0.195,0.63-0.041,0.864-0.048
	c0.225,0.214,0.155,0.223,0.353,0.016c0.285,0.117,0.325-0.534,0.392-0.653c0.806-0.346,0.135,0.639,0.486,0.896
	c0.8,0.045,0.821,0.941,1.367,1.147c-0.187,0.228-0.115,0.53-0.36,0.777c0.029,0.366-0.078,0.434-0.275,0.613
	c0.242,0.263-0.078,0.2-0.228,0.526c0.171,0.762-0.807,0.792-1.021,1.383c0.097,0.133,0.113,0.248,0.023,0.353
	c1.12,0.945-0.993,1.816,1.697,0.952c0.003,0.164-0.529,0.231-0.573,0.315c-0.039,0.18-0.224,0.44-0.362,0.487
	c0.145,0.147,0.357,0.079,0.11,0.314c0.563,1.184-1.204,0.446-0.716,1.028c-0.126,0.185-0.697,0.155-0.683,0.424
	c0.412,0.056-0.15,0.78,0.433,0.739c0.222-0.428,0.942-0.595,1.321-0.887c0.168,0.002,0.399,0.032,0.353-0.181
	c-0.057,0.002-0.338-0.053-0.322-0.181c0.322-0.919,0.5,0.139,0.709-0.307c-0.182-0.102-0.238-0.2,0.024-0.197
	c-0.163-0.043-0.129-0.342,0.11-0.07c0.417-0.029,0.04-0.502,0.267-0.48c0.054-0.045-0.039-0.159-0.008-0.283
	c0.182-0.148,0.305-0.367,0.283-0.605c0.522-0.338,1.46-1.067,1.901-1.611c0.262-0.086,0.372-0.095,0.377-0.33
	c0.413,0.09,1.039-0.233,0.487-0.5c0.195,0.055,0.251-0.029,0.22-0.21c0.301,0.154,0.635-0.156,0.602,0.221
	c0.135,0.059,0.268-0.408,0.293-0.398c0.11,0.18,0.22,0.069,0.246-0.095c-0.034-0.402,0.041-0.153,0.388-0.078
	c0.201,0.016,0.231-0.147,0.555-0.252c1.057-0.038,1.302-1.26,1.302-1.956c0.695-0.221,1.168-1.532,1.878-1.32
	c-0.249-0.535,0.461-0.996,0.809-1.21c0.094-0.586,1.035-0.667,0.817-1.25c-0.973,0.238-0.276-1.103,0.423-0.738
	c0.1-0.02,0.069-0.049,0.409-0.241c0.412-0.197-0.148-0.071,0.178-0.409c0.467-0.501,0.885-1.435,1.058-1.74
	c0.308,0.179,0.123-0.537,0.115-0.629c-0.26-0.036-0.069-0.365,0.042-0.67c0.244-0.688,0.613-0.091,0.733-0.817
	c0.319-0.06,0.452,0.171,0.535,0.513c0.772,1.178,2.728-0.092,3.583,0.304c0.293-0.071,0.419-0.736,0.022-0.848
	c-0.218-0.321-0.548-0.658-0.598-1.068c0.266-0.953-1.103-0.715,0.534-0.985c0.2-0.211,0.511-0.083,0.713-0.126
	c0.134-0.188,0.264-0.275,0.514-0.241c0.085-0.159,0.399-0.161,0.513-0.168c-0.006-0.097,0.021-0.328,0.168-0.388
	c-0.055-0.538,0.604-0.165,0.577-0.702c-0.19-0.233-0.231-0.358-0.094-0.64c-0.068-0.263-0.121-0.235,0.115-0.115
	c0.36-0.093,0.602,0.246,0.659-0.325c1.333,0.174-0.087-1.943,0.376-2.681c0.379,0.185,0.463-0.104,0.744,0.251
	c0.515-0.277,0.485,0.875,1.131,0.775c-0.029,0.302,0.257,0.311,0.168,0.063c0.142-0.106,0.279-0.025,0.324,0.22
	c0.153,0.435,0.422,0.291,0.283-0.095c-0.021-0.309-0.824-0.58-0.996-0.607c-0.006-0.056,0.181-0.065,0.325-0.241
	c0.181-0.597,0.751-0.108,0.691-0.743c0.101,0.112,0.601,0.129,0.639-0.094c-0.036-0.186-0.025-0.215,0.167-0.178
	c0.367-0.178-0.722-0.937,0.053-0.88c0.138-0.133-0.035-0.39-0.083-0.503c0.012-0.159,0.174-0.444,0.126-0.681
	c0.16-0.575-0.59-0.388-0.461-0.881c0.33-0.133-0.048-0.538-0.188-0.671c-0.289-1.203-1.013-3.724-2.505-3.981
	c-0.046-0.267,0.431-0.581,0.608-0.638c0.166-0.29,0.208-0.306,0.492-0.188c0.25-0.349,0.589-0.267,0.766-0.765
	c0.336-0.425,0.139-0.512,0.157-0.837c0.439,0.026,0.068-1.071,0.618-0.733c0.173,0.149,0.137,0.369,0.306,0.204
	c0.345-0.897,1.912-0.859,2.47-0.288c0.01,0.216,0.307,0.409,0.461,0.346c0.914-0.589-0.406-1.378,0.094-2.127
	c0.241-0.174,0.791-0.828,0.388-1.11c0.026-0.178,0.21-0.356-0.042-0.471c-0.074-0.13-0.008-0.333,0.063-0.346
	c0.068,0.078,0.243,0.172,0.262-0.01c-0.222-0.353,0.368-0.153,0.137-0.607c-0.034-0.184-0.407-0.67-0.126-0.86
	c-0.004-0.18,0.132-0.175,0.22-0.125c0.026-0.027-0.111-0.151-0.073-0.241c0.144-0.075-0.078-0.621-0.031-0.733
	c-0.404-0.011-0.417-0.459-0.272-0.796c0.29-0.718-0.363-1.289-0.115-2.158c0.424-0.146-0.175-0.727-0.231-0.869
	c0.033-0.044,0.211-0.702,0.23-0.723c0.158-0.158,0.584-0.215,0.607-0.544C192.822,40.718,192.948,40.394,192.997,40.012z"/>
</svg>
