<?xml version="1.0" encoding="utf-8"?>
<!-- Generator: Adobe Illustrator 26.0.3, SVG Export Plug-In . SVG Version: 6.00 Build 0)  -->
<svg version="1.1" id="Layer_1" xmlns="http://www.w3.org/2000/svg" xmlns:xlink="http://www.w3.org/1999/xlink" x="0px" y="0px"
	 viewBox="0 0 200 200" enable-background="new 0 0 200 200" xml:space="preserve">
<g id="Layer_1_00000160189073652191813800000001462397965724010410_">
</g>
<g id="Ñëîé_1">
	<g>
		<path fill="#1E8346" d="M46.745,157.487c-0.143-0.669-0.287-1.338-0.446-2.08c-3.077-0.45-0.515,1.684-2.631,1.464
			c0.031,1.107-0.42,2.108-0.224,3.373c0.336,0.209,0.738,0.459,1.149,0.714c0.371-0.136,0.771-0.282,1.172-0.429
			c-0.568,1.184-1.694,0.854-2.706,1.193c-0.083-0.433-0.151-0.785-0.242-1.26c-0.587,0.464-0.131,0.895-0.062,1.4
			c-0.258,0.175-0.556,0.377-0.853,0.58c-0.054-0.054-0.109-0.109-0.163-0.163c0.16-0.21,0.32-0.42,0.506-0.664
			c-1.215-0.445-2.102-2.012-3.553-1.18c0.155-0.42,0.228-0.618,0.321-0.87c-0.996-0.78-1.819,0.254-2.723,0.449
			c-0.751-0.021-1.549-0.495-2.024,0.362c-1.368,1.839-2.515-1.948-3.677-0.626c0.255,1.683-0.248,3.015,0.8,4.42
			c0.852,0.594,3.834,1.688,4.361,0.12c1.663-1.913,3.824,2.089,1.997,3.072c-0.563,0.247-0.831,1.171-1.684,0.651
			c-0.061,0.946,0.194,1.344,0.871,1.179c1.176-0.295,1.894,0.316,3.12,0.023c-0.246,0.525-0.465,0.992-0.677,1.443
			c0.464,0.712,0.974,0.897,1.816,0.822c-0.141,0.649-1.301,0.245-0.797,1.282c0.293,0.109,0.718,0.267,1.102,0.409
			c-0.138,0.407-0.311,0.916-0.484,1.425c0.058,0.044,0.116,0.088,0.173,0.132c-0.395,0.183-0.791,0.366-1.272,0.589
			c-0.091,1.094-1.695,1.666-2.014,2.849c-0.203,3.17-3.129,6.285-2.089,9.393c-0.419,0.679,0.068,1.569-0.632,2.249
			c-0.833,0.86-0.097,2.938-1.924,2.683c-0.164-1.323-2.406-1.293-2.234,0.17c2.831,1.199-2.669,3.726-3.763,4.342
			c-0.208-0.567-0.067-0.978,0.424-1.412c1.751-1.689,0.158-4.227-1.131-5.679c0.486-0.697,1.082-0.433,1.309,0.319
			c1.337-0.681,0.7-1.801-0.543-1.96c-1.583,1.212-2.479,4.588-0.099,5.685c-1.316,2.821-1.593-0.606-4.639,0.158
			c-0.34-0.745-0.662-1.452-1.072-2.352c0.536,0.158,0.845,0.249,1.144,0.338c2.786-2.951-1.08-3.523-0.557-5.356
			c0.588-0.884-0.062-1.68,0.119-2.679c-0.892-0.238-0.9-1.079-1.099-1.806c0.028-0.051,0.063-0.097,0.102-0.139
			c0.278-0.054,0.557-0.107,0.9-0.173c0.08,0.331,0.182,0.75,0.295,1.215c0.279,0.063,0.66,0.15,1.104,0.251
			c0.743-1.359,1.947-2.797,2.514-4.24c-0.406-0.935,0.192-1.423,0.749-2.062c-0.732,0.232-1.201,0.556-2.003,0.2
			c4.06-2.462-0.656-2.812-0.361-5.72c0.102-0.809-1.086-0.875-1.627-1.365c-0.312,0.261-0.656,0.55-1.02,0.855
			c0.476,1.838,1.183,1.518-0.136,3.117c0.778,0.094,1.488-0.638,2.012,0.03c1.122,1.451,0.062,2.667-1.398,3.282
			c-0.262-0.244-0.527-0.49-0.754-0.7c0.095-0.63,1.026-0.794,0.55-1.627c-1.926-0.438-2.904,1.398-4.126,2.598
			c-0.074-0.059-0.147-0.119-0.221-0.178c0.242-0.548,0.483-1.096,0.722-1.638c-0.84-1.25-3.626-3.488-1.088-4.563
			c0.095-0.028,0.117-0.305,0.228-0.626c-0.343,0.206-0.53,0.318-0.831,0.498c-0.042-0.769-0.22-1.389-1.095-1.425
			c0-0.514,0-0.964,0-1.625c-0.765,0.75-0.803,1.879-1.934,2.068c0.06-1.275,0.647-2.196,1.609-2.899
			c0.969,0.206,2.736,1.41,2.903-0.324c-0.278,0.098-0.513,0.181-1.023,0.36c0.531-0.743,2.322-2.86,2.576-1.071
			c0.382,0.765,2.243-0.458,1.424-1.165c0.4-0.341,0.827-0.705,1.287-1.097c0.312,0.859,1.718,1.262,1.945,0.25
			c-0.292-0.76,0.637-1.086,0.604-1.849c0.069-1.33,1.238-0.976,2.118-1.491c0.91-0.847,1.81-0.075,2.798-0.073
			c-0.246-0.896-0.457-1.668-0.697-2.54c0.75-1.078,0.75-1.078,0.066-2.026c0.074-0.872,0.8-1.003,1.463-1.244
			c-0.186-0.128-0.344-0.236-0.502-0.344c0.753-0.196,1.49-0.467,2.072,0.248c0.195-0.307,0.271-0.316,0.689-0.072
			c2.506,0.426,2.906-3.647,5.175-3.682c3.103-1.251,5.173-4.937,7.976-6.966c0.948-0.786,2.481-1.059,1.597-2.61
			c2.265-0.851,4.345-2.354,7.169-1.805c-1.639,0.571,0.46,1.851,1.11,1.247c0.739-0.851,1.568-0.848,2.553-0.525
			c2.822,0.54,5.711-0.34,8.208-1.65c0.828-0.404,2.687-0.264,3.694-0.288c2.145,0.919,3.608-2.962,5.271-0.434
			c-0.157,0.228-0.291,0.512-0.503,0.715c-0.468,0.45,0.142,0.907-0.051,1.346c0.787,0.391,1.279-0.291,2.022-0.651
			c0.593,1.34,1.77,1.07,2.946,1.28c-0.174-0.338-0.285-0.555-0.497-0.968c0.468,0.042,0.822,0.074,1.309,0.117
			c0.069-0.225,0.169-0.553,0.285-0.931c0.366,0,0.777,0,1.167,0c0.458-0.474-0.403-1.365,0.729-1.63
			c0.133,0.35,0.276,0.724,0.446,1.171c0.374-0.766,0.374-1.431-0.117-2.087c-3.19-4.671,6.074-7.927,7.039-12.613
			c1.332-2.276-1.522-4.549-0.04-6.762c0.905-1.42,2.476-1.187,3.667-1.992c1.068-0.283,3.064-2.097,2.925,0.275
			c-0.284,0.085-0.58,0.173-0.876,0.261c-0.101,1.026,0.128,1.947-1.384,1.845c-0.758,0.46-0.899,1.898-2.18,0.871
			c-0.174,0.617-0.315,1.118-0.456,1.62c0.218-0.956,1.113-0.617,1.799-0.951c-0.105,1.337,0.388,2.669-0.64,3.76
			c0.817,1.865,4.13,2.424,4.325,0.113c-0.016-0.805,0.481-1.019,1.064-1.2c2.316-0.488,4.432-1.474,6.34-2.759
			c2.042,0.536,6.017-4.436,6.699-6.167c0.297-3.927,4.6-3.682,6.463-6.246c1.346-2.625,0.592-5.942,3.108-8.079
			c0.626-0.608,1.074-1.328,1.264-2.231c0.507-2.685,1.474-4.985,2.415-7.481c0.221-1.576,0.916-6.776-1.639-5.874
			c-1.129,0.789-1.766-0.714-1.79-1.644c2.625,1.196,3.821-3.622,3.065-5.31c-1.052-0.728,0.102-2.095-1.012-2.728
			c-0.472-0.228-0.297-0.549-0.043-0.846c1.396-2.697,3.67-0.825,4.224-3.49c0.233-0.724-0.021-1.477,0.765-1.925
			c-0.31-0.418-0.687-0.926-1.104-1.489c1.147-0.027,0.542-1.022,0.906-1.753c0.458,0.34,0.871,0.647,1.332,0.99
			c2.31-1.854,1.886,2.536,2.186,3.877c0.669,2.315,2.338,0.109,1.857-1.452c1.422,0.079,1.499,1.34,2.805,1.897
			c1.495-1.381,2.006-4.027,0.612-5.651c-0.411,1.019-1.025,1.384-1.971,1.43c-4.66,2.448-1.415-2.717-0.925-4.911
			c2.504,0.531,3.62,4.001,5.906,1.521c-0.894,3.637-1.198,7.454-0.085,11.096c0.167,0.558,0.274,1.229,1.183,1.194
			c1.595,1.276,2.286,3.563,3.097,5.353c-0.922,1.682,1.214,1.468,1.047,3.573c0.092,0.51,0.346,1.062,0.235,1.524
			c-0.28,1.632,0.978,2.703,0.637,4.268c-0.014,0.199-0.096,0.556-0.173,0.564c-0.703,0.066-0.747,0.828-1.247,1.116
			c0.178,0.035,0.34,0.067,0.413,0.082c-0.141,0.58-0.389,1.143-0.383,1.704c0.006,0.515-0.943,0.957,0.214,1.584
			c-0.57,0-0.809,0-1.047,0.001c0.651,1.581-1.433,0.187-1.418,2.201c-0.244-0.355-0.388-0.564-0.678-0.985
			c0.107,0.677,0.179,1.126,0.258,1.628c-0.212,0-0.432,0-0.578,0c-0.199,0.55-0.594,1.072-0.677,1.559
			c0.364,0.765-0.159,1.034-0.711,1.301c0.78,0.51,0.78,0.51,0.15,1.367c1.657,0.591-0.754,1.64,0.34,2.767
			c0.188,0.211,0.081,0.684,0.109,1.038c-0.081,0.038-0.161,0.076-0.242,0.114c-1.061-0.973-2.325-2.958-3.686-0.962
			c-0.981,0.219-1.377,1.574-1.924,2.38c-0.529,1.578-0.763,3.158,0.097,4.755c1.097,3.42,0.524,7.243-0.156,10.713
			c-0.274,1.011-1.742,0.799-1.806,2.025c-0.421,2.122-2.132,3.988-1.843,6.285c-1.744,3.035,1.603,5.775,2.691,8.449
			c-2.746-0.171-4.193,1.566-4.974,3.985c0.275,1.912-0.002,3.538-2.316,3.592c-2.171,0.182-2.331,4.373-4.55,1.859
			c0.366-0.157,0.657-0.282,0.94-0.404c-0.013-0.838-0.292-1.73-0.122-2.499c0.536-0.584,0.205-0.985-0.284-1.429
			c0.393-0.241,0.005-1.332,0.832-0.884c1.056-1.696,3.608-2.262,0.871-3.825c-0.436,1.096-2.388-0.193-1.589,1.743
			c-0.517,0.307-1.036,0.615-1.607,0.954c0.515,1.149-0.779,2.041,0.997,2.741c-0.426,0.569-0.8,1.068-1.214,1.621
			c-0.5-3.881-5.695-2.791-5.671,0.821c0.486,1.386,0.755,2.249-0.355,3.533c-2.974,5.097-3.811,0.313-2.915-3.033
			c0.313-0.048,0.609-0.094,0.885-0.137c-0.126-1.933-3.569-1.518-3.626,0.365c-0.078,0.293-0.467,0.569-0.777,0.723
			c-0.621,0.309-1.126,0.579-1.159,1.431c-0.223,1.086-1.921,1.665-1.147,3.058c-2.194-1.347-4.508-0.067-6.637-1.321
			c-0.509,0.339-5.253,1.444-5.849,1.307c0.081-0.257,0.161-0.51,0.229-0.727c1.156,0.105,1.784-0.498,2.608-1.11
			c0.082-0.041,0.067-0.572-0.04-0.633c-1.29-0.448-2.826,0.877-3.718-0.742c-0.494,0.622,0.071,1.149,0.423,1.706
			c-1.629,0.319-1.333-0.839-1.42-1.804c-0.43-0.826-0.315-1.601,0.064-2.281c-0.454,0.039-0.93,0.079-1.651,0.14
			c-2.231,5.007-2.484,4.636,2.468,7.45c-0.734,1.159,0.15,2.992-1.862,2.138c0.281-0.099,0.468-0.165,0.73-0.258
			c-1.319-0.303-5.353,0.826-5.58,2.217c-0.001,0.164-0.406,0.325-0.654,0.509c0.359,0.272,0.747,0.89,0.441,1.25
			c-0.76,0.131-0.995,0.946-1.646,1.22c-0.876,0.958-1.118,2.511-1.72,3.684c-1.59,2.401-5.356,1.104-6.467-1.111
			c0.166-0.153,0.333-0.307,0.529-0.489c-0.728-0.542-1.594-0.953-2.201-1.539c-0.163-0.613-0.598-0.673-1.382-0.488
			c0.375-0.8,0.649-1.385,0.981-2.092c-0.464-0.551-0.214-1.068,0.489-1.392c0.133-0.885-2.175-1.7-0.725-2.185
			c1.704-0.707,3.874-2.509,3.134-4.63c-1.567-1.054-3.062,1.625-4.744,0.44c-1.233-0.466-2.143-1.935-3.581-1.58
			c-2.184,0.451-3.811,0.545-5.234,2.38c-1.547,0.143-1.959,2.983-3.707,1.659c-0.895-0.777-0.862-0.714-1.836-0.201
			c-1.254,0.176-2.101,0.378-2.669,1.712c-0.343-0.422-0.573-0.705-0.876-1.078c-0.227,0.615-0.42,1.137-0.65,1.76
			c-0.233,0.075-0.593,0.192-0.98,0.316c-0.131-0.253-0.257-0.495-0.452-0.871c-0.783,0.173-1.798,0.063-2.535,0.425
			c-0.609,1.158-1.761,1.11-2.814,1.281L46.745,157.487z M19.645,173.942c-0.254-1.382,0.045-2.519-1.966-2.109
			C19.11,172.834,17.097,174.894,19.645,173.942z"/>
		<path fill="#1E8346" d="M137.247,56.267c-2.583,2.956-2.659-0.368-5.124,0.984c0.159-0.557,0.03-0.704-0.145-1.153
			c-0.762,0.491-0.788,1.686-1.79,1.758c-1.213,0.257-0.71,1.414-0.814,2.311c-0.94,0.349-1.927,0.659-2.346,1.92
			c-5.046-1.478-0.241-5.167-0.855-8.156c-0.322-0.93-0.66-2.044-1.978-2.176c-0.698-0.76-2.353-1.949-1.556-3.166
			c0.837-0.967,0.597-2.022,0.463-3.087c-0.174-2.486,3.1-1.184,3.742-3.569c0.333,0.292,0.604,0.529,0.892,0.781
			c0.209-1.63,2.986-2.841,2.361-4.024c-0.785-1.343-2.555-2.171-1.544-3.853c0.482-0.224,0.953-0.442,1.419-0.658
			c1.084,0.784,2.22,1.606,3.398,2.458c0.633-0.234,1.276-0.471,1.915-0.706c1.224,3.007,4.693-0.31,4.345-2.285
			c-0.432-1.897-1.93-5.219,0.43-6.219c3.618-1.164,0.935-5.35,2.442-7.751c3.218-5.286-2.898-10.213-0.421-15.465
			c2.334,1.59,2.079-2.518,3.382-0.933c6.283,6.257,9.673,15.623,18.502,19.033c-0.307,0.065-0.5,0.106-0.703,0.149
			c0.595,1.686,1.373,0.816,2.685,1.225c0.623-1.139,2.095-0.156,3.189-0.025c0.21,2.107,1.817,2.416,3.857,2.524
			c3.242,0.112,5.272-3.848,7.345-5.984c1.444,3.376-5.016,6.55-1.781,9.932c1.447,1.363,0.523,3.485,2.163,4.656
			c-0.221,0.202-0.368,0.337-0.69,0.633c0.781,0,1.37,0,2.035,0c1.458-1.614,1.814-1.782,3.359-1.381
			c-1.445,1.11-2.616,0.947-3.121,2.956c-1.236-0.342-2.261,0.167-3.398,0.515c-0.781,0.063-0.809,0.121-0.434,0.833
			c-1.118,0.904-2.603,2.37-3.555,0.347c-0.265,0.244-0.501,0.461-0.77,0.71c0.179,0.349,0.329,0.642,0.588,1.147
			c-1.698-0.563-3.022,0.085-4.562-0.834c-4.224-0.433-7.622,4.5-9.768,7.664c-1.543,2.083-0.194,4.908-1.866,7.126
			c-2.732-3.08-6.949-3.599-10.018-6.278c-5.677-4.499-8.175-4.64-13.254,1.034c-1.362-1.027-2.104-4.179-4.022-3.737
			c-1.28,0.08-1.845-0.461-2.366,0.947c-1.76,3.29-0.846,3.621,1.99,5.466c2.15-1.236,2.842,1.588,4.146,2.755
			C135.823,55.263,136.948,55.047,137.247,56.267z"/>
		<path fill="#1E8346" d="M51.342,174.732c0.125,0.223,0.334,0.593,0.543,0.964c-0.068,0.072-0.135,0.144-0.203,0.217
			c-0.63-0.21-0.914-1.154-1.624-0.625c-0.816,0.542-1.389-0.207-2.336-0.132c0.175-0.47,0.372-0.996,0.624-1.67
			c-0.718,0-1.407,0-2.217,0c-0.128-0.435,0.388-1.214-0.339-1.68c0.712-0.612-0.357-1.174-0.125-1.628
			c0.43-0.196,0.748-0.342,1.236-0.565c-0.669-0.491-1.156-0.847-1.683-1.234c0-0.502,0-1.124,0-1.808
			c-1.272-0.026-2.001,1.443-3.266,1.225c-0.033-0.087-0.066-0.175-0.098-0.262c2.389-1.3,5.832-2.617,6.564-5.41
			c0.047-1.861,1.554-2.589,2.661-3.944c0.899,0.942,1.372,3.432,2.981,2.232c2.256-0.802,5.029,0.124,3.951-3.523
			c2.604-0.38,1.836-2.026,5.555-1.78c0.342-0.165,0.009,0.78,0.644,0.322c0.085-0.061,0.501,0.113,0.516,0.215
			c0.6,1.634,2.376,1.517,3.874,1.283c0.112,0.407,0.138,0.839-0.215,1.317c-1.085,1.313,1.994,2.071,0.488,3.4
			c0.258,0.124,0.506,0.243,0.899,0.431c-3.117,1.587-5.599,3.692-5.729,7.397c-1.702-1.723-3.149-4.385-5.873-3.465
			c-1.118,1.146-4.058,1.304-3.888,3.169C53.993,171.375,51.103,172.003,51.342,174.732z"/>
		<path fill="#1E8346" d="M193.122,18.728c-0.218,1.859-0.947,0.572-1.798,1.46c-0.605,1.168-1.856,1.043-2.884,1.261
			c-0.635,1.132-2.198,1.496-2.426,2.948c-0.863,0.571-0.748,2.069-2.164,2.175c-1.378,0.268-0.739,2.272-1.308,3.281
			c-0.063-0.244-0.125-0.487-0.196-0.765c-0.33,0.02-0.634,0.039-0.927,0.057c-1.311-2.367,1.999-3.123,2.906-4.744
			c1.057-2.143,2.776-3.624,3.612-5.815C189.244,16.032,189.92,20.247,193.122,18.728z"/>
		<path fill="#1E8346" d="M109.136,103.595c0.477,1.366-0.444,2.325-0.606,3.505c0.508,0,0.933,0,1.361,0
			c-0.167,2.209-1.747,3.732-3.7,3.451c0.34-0.696,0.673-1.376,1.006-2.056c-0.037-0.037-0.074-0.075-0.111-0.112
			c-0.192,0.124-0.384,0.247-0.569,0.366C105.419,107.063,108.023,104.836,109.136,103.595z"/>
		<path fill="#1E8346" d="M21.22,182.115c-0.04,0.042-0.074,0.089-0.102,0.139c-2.264,0.894-0.688-6.683,1.63-3.311
			c0.555-0.154,1.205-1.03,2.247-0.44c-0.234,0.546-0.472,1.103-0.7,1.635C22.611,179.494,22.067,181.009,21.22,182.115z"/>
		<path fill="#1E8346" d="M14.542,151.058c0.638,0.523,0.168,1.697-0.099,2.285c-0.453,0.664-0.766,1.247-0.587,2.066
			c-0.219,1.189-1.094,2.347-1.574,3.477c-1.045-0.356-1.011-0.086-0.377-2.88c0.347,0.033,0.707,0.068,1.16,0.111
			c0.06-0.135,0.152-0.339,0.285-0.639c-0.354,0.03-0.611,0.052-0.948,0.081C12.84,153.77,12.454,151.754,14.542,151.058z"/>
		<path fill="#1E8346" d="M72.168,156.386c-0.944,0.409-1.809,1.592-2.705,0.87c-1.82-1.175,4.733-7.236,2.814-3.635
			C71.357,154.471,71.22,155.359,72.168,156.386z"/>
		<path fill="#1E8346" d="M7.763,174.957c0.316,0.724,0.567,1.3,0.815,1.871c-0.285,0.522-1.299-0.225-1.199,0.771
			c-0.552-0.035-1.047-0.067-1.501-0.096c0.083-0.744,0.159-1.427,0.245-2.195C6.693,175.665,7.228,175.625,7.763,174.957z"/>
		<path fill="#1E8346" d="M136.661,7.452c0.536-1.264,2.075-0.524,2.119,0.704C138.61,9.742,136.53,9.128,136.661,7.452z"/>
		<path fill="#1E8346" d="M11.038,171.443c-0.102,0.369-0.149,0.622-0.207,1.039c0.303-0.017,0.548-0.03,0.947-0.052
			c-0.509,0.818-0.938,1.507-1.37,2.204c-0.408-0.445-0.776-0.382-1.265,0.229c-0.224-0.213-0.48-0.373-0.591-0.674
			c1.382-0.343,1.513-1.893,2.189-2.901C10.839,171.339,10.939,171.391,11.038,171.443z"/>
		<path fill="#1E8346" d="M54.472,132.204c-1.306-0.119-1.266-2.329-0.003-2.259C55.729,130.127,56.033,132.246,54.472,132.204z"/>
		<path fill="#1E8346" d="M46.727,157.469c0.175,0.424,0.349,0.849,0.572,1.39c-0.599,0-0.993,0-1.335,0
			c-0.272-0.691-0.54-1.373-0.817-2.077c0.243-0.185,0.499-0.38,0.828-0.63c0.274,0.474,0.523,0.905,0.771,1.335L46.727,157.469z"/>
		<path fill="#1E8346" d="M120.275,50.202c-0.473,2.186-0.473,2.186-1.1,2.553C118.222,51.361,118.521,50.604,120.275,50.202z"/>
		<path fill="#1E8346" d="M64.48,154.442c0.146-0.513-0.297-0.559-0.885-0.551c0.502-0.939,1.406-0.703,2.128-1.262
			c0,0.63,0,1.065,0,1.414C65.277,154.187,64.893,154.309,64.48,154.442z"/>
		<path fill="#1E8346" d="M52.871,157.205c-0.253,0.42-0.529,0.881-0.806,1.341c-0.096-0.039-0.192-0.078-0.288-0.117
			c0.041-0.349,0.083-0.698,0.129-1.087c-0.253,0.048-0.505,0.097-0.81,0.155C51.164,155.717,51.925,156.255,52.871,157.205z"/>
		<path fill="#1E8346" d="M134.907,3.87c1.59-0.008,1.303,1.605,0.876,2.601c-0.093,0.012-0.186,0.023-0.279,0.035
			C135.323,5.707,135.142,4.908,134.907,3.87z"/>
		<path fill="#1E8346" d="M17.075,163.66c-0.54-0.815-0.484-1.222-0.069-1.989C18.145,161.808,18.141,163.258,17.075,163.66z"/>
		<path fill="#1E8346" d="M53.085,133.36c-0.649,0.229-1.327,0.265-2.01,0.234C51.191,132.4,52.337,132.381,53.085,133.36z"/>
		<path fill="#1E8346" d="M118.967,151.386c-0.993-0.299-1.114-0.548-0.772-1.471C119.183,150.127,119.244,150.236,118.967,151.386z
			"/>
		<path fill="#1E8346" d="M18.156,187.555c-0.451,0.645-0.449,1.821-1.189,1.867C16.223,188.676,17.493,187.981,18.156,187.555z"/>
	</g>
</g>
</svg>
