<?xml version="1.0" encoding="utf-8"?>
<!-- Generator: Adobe Illustrator 26.0.3, SVG Export Plug-In . SVG Version: 6.00 Build 0)  -->
<svg version="1.1" xmlns="http://www.w3.org/2000/svg" xmlns:xlink="http://www.w3.org/1999/xlink" x="0px" y="0px"
	 viewBox="0 0 200 200" enable-background="new 0 0 200 200" xml:space="preserve">
<g id="Layer_1">
	<g id="Layer_1_00000107551159852787612550000017757744099325915571_">
		<g id="Layer_1_00000128480095285341338950000008464522443776971395_">
		</g>
	</g>
</g>
<g id="Isolation_Mode_00000063621668281934077600000006196874878142535819_">
	<path fill="#1E8346" d="M101.074,77.942c0,0.353,0.075,0.79-0.235,0.979c-0.112,0.068-0.243,0.015-0.352,0.142
		c-0.126,0.147-0.103,0.311-0.107,0.487c-0.01,0.472,0.012,0.973,0.389,1.289c0.218,0.183,0.333,0.206,0.244,0.534
		c-0.149,0.55-0.653,1.607,0.275,1.648c0.404,0.018,0.746-0.119,0.939,0.327c0.123,0.284,0.033,0.677-0.046,0.966
		c-0.075,0.274-0.275,0.463-0.359,0.718c-0.078,0.237-0.012,0.56-0.012,0.806c0,0.358,0.102,0.926-0.024,1.259
		c0.208,0.037,0.487,0.078,0.68-0.004c0.058-0.025,0.09-0.107,0.138-0.132c0.101-0.053,0.197-0.08,0.292-0.013
		c0.1,0.071,0.161,0.28,0.254,0.378c0.11,0.116,0.209,0.164,0.354,0.227c0.29,0.127,0.433,0.176,0.702,0.067
		c0.11-0.044,0.092-0.083,0.23-0.055c0.191,0.039,0.352,0.232,0.538,0.3c0.234-0.206,0.356-0.221,0.651-0.004
		c0.29,0.213,0.277,0.429,0.287,0.751c0.263,0.008,0.56-0.029,0.647,0.284c0.086,0.308-0.061,0.485,0.149,0.752
		c0.117,0.148,0.119,0.154,0.107,0.329c-0.008,0.114-0.058,0.26,0.011,0.369c0.065,0.102,0.335,0.208,0.444,0.278
		c0.158,0.101,0.405,0.287,0.575,0.339c0.219,0.066,0.341-0.153,0.554-0.122c0.147,0.021,0.217,0.163,0.361,0.149
		c0.13-0.012,0.242-0.135,0.387-0.146c0.237-0.019,0.338,0.071,0.51,0.187c0.194,0.131,0.335,0.127,0.565,0.127
		c0.352,0,0.632,0.002,0.956,0.158c0.3,0.144,0.283,0.338,0.284,0.662c0.253,0.125,0.331,0.193,0.491,0.414
		c0.102,0.14,0.222,0.239,0.389,0.312c0.321,0.14,0.577,0.06,0.442,0.453c-0.088,0.254-0.27,0.469,0.017,0.593
		c0.093,0.04,0.194,0.026,0.279,0.093c0.081,0.062,0.1,0.189,0.172,0.26c0.197,0.191,0.592,0.156,0.863,0.193
		c0.268,0.037,0.494,0.065,0.716,0.225c0.205,0.148,0.385,0.338,0.592,0.481c0.224,0.155,0.613,0.393,0.878,0.423
		c0.221,0.025,0.348-0.158,0.507-0.268c0.287-0.198,0.989-0.377,1.344-0.26c0.199,0.066,0.183,0.29,0.428,0.265
		c0.13-0.013,0.242-0.124,0.355-0.185c0.211-0.115,0.327-0.111,0.37-0.332c0.02-0.1-0.019-0.196,0.023-0.294
		c0.148-0.347,0.544-0.631,0.824-0.864c0.156-0.131,0.333-0.268,0.473-0.414c0.133-0.138,0.185-0.339,0.326-0.465
		c0.239,0.111,0.563,0.206,0.829,0.149c0.19-0.04,0.414-0.222,0.61-0.063c0.108,0.087,0.185,0.34,0.293,0.456
		c0.132,0.143,0.292,0.248,0.467,0.335c0.214,0.106,0.436,0.132,0.676,0.139c0.004,0.173,0.118,0.255,0.237,0.352
		c-0.058,0.148-0.021,0.314-0.068,0.461c-0.047,0.149-0.09,0.137-0.177,0.241c-0.225,0.273-0.092,0.345,0.02,0.644
		c0.085,0.225,0.032,0.725-0.045,0.953c-0.081,0.241-0.156,0.168-0.342,0.244c-0.397,0.163-0.208,0.959-0.57,1.072
		c-0.196,0.061-0.459-0.05-0.618,0.079c-0.108,0.088-0.264,0.465-0.315,0.595c-0.142,0.364,0.212,0.794,0.322,1.135
		c0.076,0.237,0.312,0.474,0.256,0.731c-0.073,0.333-0.617,0.79-0.511,1.16c0.092,0.321,0.732,0.378,0.989,0.443
		c0.254,0.065,0.694,0.246,0.945,0.125c0.143-0.069,0.207-0.269,0.356-0.343c0.202,0.19,0.424,0.362,0.623,0.555
		c0.163,0.157,0.283,0.461,0.483,0.566c0.646,0.34,1.431-0.092,2.092-0.168c0.157,0.232,0.29,0.399,0.571,0.483
		c0.291,0.087,0.594-0.274,0.766-0.504c0.216-0.289,0.357-0.649,0.752-0.692c0.462-0.049,1.017-0.05,1.48-0.02
		c0.524,0.034,0.831,0.325,1.272,0.534c0.163,0.077,0.304,0.119,0.484,0.136c0.151,0.014,0.374-0.019,0.493,0.085
		c0.223,0.196,0.037,0.602,0.227,0.822c0.138,0.16,0.362,0.13,0.507-0.003c0.148-0.135,0.29-0.329,0.429-0.479
		c0.127-0.138,0.156-0.199,0.171-0.38c0.025-0.307,0.031-0.599,0.068-0.907c0.613-0.085,0.402-0.779,0.393-1.248
		c0.954-0.26,1.071,0.552,1.208,1.236c0.194,0.969,0.213,2.181,0.874,2.966c0.148,0.175,0.313,0.336,0.48,0.482
		c0.196,0.172,0.279,0.153,0.506,0.181c0.085,0.011,0.147,0.012,0.213,0.067c0.128,0.108,0.17,0.253,0.326,0.354
		c0.236,0.154,0.502,0.162,0.557,0.484c0.029,0.171,0.197,0.248,0.26,0.384c0.081,0.177,0.01,0.413,0.115,0.596
		c0.132,0.228,0.424,0.223,0.504,0.523c0.105,0.397-0.074,0.937,0.12,1.303c0.148,0.278,0.593,0.473,0.827,0.704
		c0.154,0.152,0.292,0.314,0.456,0.459c0.102,0.091,0.299,0.206,0.35,0.338c0.1,0.259-0.146,0.607-0.264,0.825
		c-0.162,0.301-0.504,0.617-0.203,0.898c0.324,0.303,0.943,0.486,1.377,0.566c0.385,0.071,0.807,0.273,1.187,0.132
		c0.249-0.092,0.609-0.282,0.815-0.456c0.141-0.119,0.103-0.202,0.178-0.338c0.05-0.091,0.187-0.157,0.227-0.246
		c0.099-0.218-0.037-0.489-0.133-0.685c-0.133-0.273-0.29-0.542-0.451-0.8c-0.109-0.176-0.268-0.337-0.276-0.546
		c-0.01-0.257,0.173-0.521,0.223-0.772c0.031-0.153,0.041-0.261-0.011-0.403c-0.041-0.114-0.176-0.209-0.174-0.338
		c0.004-0.263,0.232-0.355,0.448-0.333c0.273,0.027,0.475,0.128,0.63-0.173c0.113-0.219,0.121-0.375,0.339-0.535
		c0.227-0.167,0.439-0.213,0.549-0.492c0.105-0.266,0.091-0.556,0.229-0.815c0.27,0.257,0.399,0.602,0.567,0.931
		c0.156,0.306,0.492,0.787,0.437,1.141c-0.45-0.019-0.324,0.418-0.292,0.755c0.022,0.232,0.134,0.399,0.244,0.6
		c0.134,0.245,0.184,0.498,0.219,0.773c0.039,0.309-0.109,0.772,0.223,0.919c0.387,0.173,0.778,0.07,1.185,0.152
		c0.268-0.072,0.41,0.367,0.649,0.447c0.102-0.116,0.261-0.173,0.413-0.179c0.154,0.533,0.397,0.714,0.868,1.01
		c0.64,0.403,1.323,0.579,1.908-0.014c0.149-0.15,0.193-0.412,0.365-0.529c0.212-0.144,0.501-0.063,0.714-0.248
		c0.188-0.163,0.182-0.391,0.248-0.632c0.1-0.366,0.115-0.736,0.201-1.105c0.1-0.428,0.176-0.718,0.535-0.971
		c0.114-0.081,0.318-0.191,0.38-0.323c0.054-0.116-0.044-0.278,0.017-0.394c0.099-0.188,0.746-0.44,0.917-0.291
		c0.104,0.09,0.041,0.249,0.115,0.35c0.11,0.152,0.499,0.111,0.665,0.042c0.194-0.081,0.213-0.286,0.34-0.43
		c0.094-0.107,0.258-0.188,0.399-0.241c0.453-0.169,1.071-0.084,1.484,0.142c0.263,0.144,0.597,0.42,0.525,0.741
		c-0.056,0.248-0.267,0.41-0.166,0.69c0.113,0.315,0.386,0.15,0.61,0.326c0.262,0.205,0.268,0.323,0.63,0.371
		c0.217,0.029,0.499,0.099,0.712,0.014c0.19-0.076,0.236-0.256,0.464-0.209c0.47,0.097,0.601,0.78,0.931,1.065
		c0.136,0.118,0.313,0.175,0.455,0.287c0.191,0.151,0.461,0.354,0.679,0.438c0.284,0.11,0.562,0.175,0.872,0.081
		c0.332-0.101,0.536-0.216,0.909-0.137c0.317,0.067,0.382,0.339,0.558,0.57c0.138,0.181,0.315,0.236,0.49,0.372
		c0.16,0.125,0.224,0.271,0.314,0.449c0.074,0.147,0.107,0.389,0.199,0.504c0.107,0.135,0.252,0.151,0.349,0.322
		c0.078,0.139,0.131,0.29,0.205,0.431c0.134,0.258,0.209,0.359,0.48,0.439c0.23,0.068,0.458,0.228,0.695,0.25
		c0.34,0.032,0.744-0.042,1.086-0.064c0.478-0.03,0.953-0.134,1.431-0.149c0.46-0.013,0.896,0.128,1.317,0.253
		c0.335,0.1,0.61-0.107,0.825-0.332c0.206-0.217,0.446-0.351,0.721-0.466c0.266-0.111,0.294-0.183,0.476,0.076
		c0.153,0.217,0.125,0.371-0.069,0.519c0.197,0.208,0.44,0.285,0.717,0.234c0.31-0.058,0.493-0.303,0.775-0.386
		c0.35-0.103,0.849,0.093,1.169-0.086c0.314-0.176,0.397-0.604,0.805-0.55c0.544,0.072,0.225,0.865,0.522,1.209
		c0.161,0.186,0.461,0.158,0.672,0.038c0.251-0.143,0.257-0.392,0.573-0.427c0.247-0.028,0.446-0.017,0.531,0.223
		c0.058,0.162,0.073,0.43,0.276,0.486c0.08,0.021,0.219-0.016,0.307-0.017c0.172-0.001,0.356,0.022,0.525-0.013
		c0.163-0.035,0.285-0.098,0.383-0.236c0.098-0.14,0.126-0.301,0.242-0.429c0.17-0.189,0.35-0.356,0.512-0.554
		c0.122-0.149,0.254-0.328,0.305-0.516c0.041-0.154,0.024-0.301,0.101-0.447c0.161-0.308,0.499-0.514,0.775-0.704
		c0.237-0.164,0.052-0.467,0.162-0.725c0.267-0.011,0.624-0.038,0.785,0.213c0.125,0.193,0.177,0.466,0.247,0.685
		c0.45,0.007,0.891-0.132,1.345-0.126c0.207,0.003,0.457-0.01,0.635,0.113c0.154,0.107,0.211,0.302,0.338,0.436
		c0.505,0.535,0.913-0.162,1.446-0.187c0.282-0.013,0.438,0.125,0.659,0.259c0.15,0.091,0.18,0.052,0.336,0.04
		c0.076-0.006,0.279-0.019,0.332,0.049c0.087,0.112,0.015,0.31,0.089,0.436c0.059,0.1,0.143,0.139,0.253,0.148
		c0.225,0.018,0.542-0.239,0.714-0.379c0.277,0.126,0.524,0.32,0.807,0.457c0.305,0.148,0.613,0.163,0.549,0.568
		c-0.051,0.324-0.373,0.344-0.442,0.576c-0.079,0.265,0.233,0.5,0.285,0.74c0.06,0.277-0.1,0.501-0.166,0.751
		c-0.034,0.129,0.004,0.26-0.097,0.357c-0.105,0.101-0.482,0.038-0.56,0.191c-0.09,0.175,0.17,0.676,0.194,0.895
		c0.059,0.535-0.28,0.87-0.626,1.206c-0.331,0.322-0.317,0.617-0.445,1.017c-0.15,0.466-0.577,0.809-0.946,1.092
		c0.266,0.509-0.217,0.569-0.348,0.93c-0.035,0.097,0.042,0.227,0.031,0.336c-0.028,0.276-0.243,0.41-0.343,0.661
		c-0.307,0.764,0.311,1.518,0.701,2.118c-0.269,0.2-0.581,0.228-0.676,0.598c-0.056,0.22-0.071,0.766-0.031,0.993
		c0.041,0.224,0.357,0.505,0.337,0.765c-0.017,0.209-0.234,0.261-0.316,0.432c-0.08,0.168-0.057,0.423-0.049,0.605
		c-0.076,0.027-0.184,0.091-0.254,0.105c-0.082,0.383,0.036,0.918-0.117,1.263c-0.075,0.169-0.298,0.312-0.354,0.491
		c-0.06,0.19-0.011,0.528-0.003,0.732c0.014,0.326,0.081,0.523-0.128,0.806c-0.163,0.219-0.221,0.315-0.281,0.588
		c-0.042,0.186-0.2,0.464-0.135,0.65c0.067,0.191,0.334,0.266,0.465,0.404c0.225,0.238,0.199,0.664,0.309,0.972
		c0.086,0.242,0.096,0.488,0.327,0.634c0.263,0.166,0.607,0.041,0.883,0.015c-0.014,0.781,0.664,0.662,1.103,1.12
		c0.316,0.33-0.105,0.495-0.142,0.835c-0.029,0.269,0.219,0.407,0.358,0.603c0.176,0.247,0.168,0.331,0.115,0.633
		c-0.076,0.435,0.229,0.815,0.628,1.073c0.499,0.323,0.114,1.124,0.291,1.685c0.159,0.506,0.248,1.152,0.184,1.686
		c-0.038,0.315-0.202,0.432-0.346,0.683c-0.164,0.286-0.161,0.592-0.16,0.916c0,0.339,0.03,0.795-0.21,1.057
		c-0.215,0.235-0.488,0.283-0.604,0.63c-0.079,0.236,0.072,0.636-0.037,0.85c-0.106,0.207-0.174,0.015-0.304,0.131
		c-0.115,0.103-0.119,0.501-0.138,0.657c-0.029,0.233,0.007,0.552-0.11,0.754c-0.039,0.066-0.119,0.075-0.153,0.162
		c-0.066,0.168,0.063,0.229,0.111,0.378c0.056,0.173-0.025,0.438-0.048,0.616c-0.018,0.142-0.089,0.179-0.133,0.305
		c-0.079,0.223,0.043,0.465-0.04,0.701c-0.032,0.089-0.099,0.226-0.163,0.297c-0.12,0.135-0.257,0.124-0.423,0.213
		c-0.197,0.105-0.537,0.261-0.671,0.445c-0.146,0.2-0.005,0.628-0.21,0.743c-0.293,0.165-0.597-0.111-0.764-0.321
		c-0.065-0.082-0.098-0.238-0.177-0.304c-0.128-0.108-0.28-0.058-0.446-0.08c-0.321-0.04-0.46-0.197-0.691-0.396
		c-0.126-0.109-0.41-0.282-0.404-0.472c0.003-0.076,0.163-0.204,0.147-0.273c-0.037-0.161-0.436-0.202-0.573-0.185
		c0.039-0.272,0.167-0.637-0.178-0.803c-0.143-0.069-0.231-0.011-0.345,0.057c-0.047,0.028-0.317,0.191-0.346,0.233
		c-0.147,0.207,0.1,0.643-0.256,0.758c-0.122,0.04-0.472-0.036-0.545-0.1c-0.105-0.092-0.172-0.319-0.24-0.445
		c-0.236-0.007-0.733-0.206-0.927-0.05c-0.296,0.238-0.028,0.701-0.094,1.008c-0.105,0.491-0.433,0.252-0.765,0.227
		c-0.236-0.018-0.229,0.081-0.473-0.055c-0.191-0.107-0.467-0.425-0.674-0.466c-0.344-0.068-0.221,0.328-0.438,0.448
		c-0.212,0.116-0.247,0.035-0.374,0.27c-0.097,0.178-0.088,0.218-0.284,0.265c-0.203,0.048-0.388,0.003-0.569,0.117
		c-0.18,0.113-0.241,0.26-0.487,0.174c-0.207-0.073-0.325-0.305-0.477-0.453c-0.197-0.192-0.461-0.324-0.708-0.441
		c-0.658-0.312-1.514-0.723-2.24-0.363c-0.132,0.065-0.209,0.149-0.35,0.191c-0.192,0.057-0.387,0.052-0.576,0.135
		c-0.157,0.068-0.295,0.168-0.459,0.222c-0.192,0.063-0.401,0.059-0.594,0.117c-0.015,0.265-0.236,0.603-0.295,0.864
		c-0.026,0.113-0.104,0.462-0.231,0.51c-0.203,0.077-0.433-0.364-0.596-0.451c-0.198-0.105-0.43,0.018-0.658-0.033
		c-0.467-0.105-0.338-0.577-0.638-0.844c-0.19-0.167-0.665-0.272-0.842-0.043c-0.174-0.14-0.333-0.191-0.555-0.193
		c-0.225-0.003-0.306,0.077-0.485,0.126c-0.363,0.098-0.714-0.159-1.001-0.336c-0.393-0.243-0.702-0.383-0.84-0.861
		c-0.172-0.6-0.385-1.197-0.441-1.82c-0.04-0.448-0.062-0.906-0.063-1.357c-0.074-0.116-0.241-0.147-0.374-0.126
		c-0.242,0.038-0.215,0.211-0.3,0.431c-0.149,0.384-0.538,0.706-0.908,0.873c-0.421,0.191-1.001,0.01-1.385,0.252
		c-0.329,0.207-0.147,0.743-0.49,0.875c-0.149,0.057-0.516-0.042-0.624,0.065c-0.092,0.09-0.048,0.308-0.094,0.428
		c-0.09,0.238-0.322,0.214-0.529,0.335c-0.299,0.174-0.354,0.41-0.725,0.277c-0.18-0.065-0.338-0.185-0.524-0.23
		c-0.245-0.059-0.529-0.07-0.779-0.086c-0.149-0.01-0.292-0.067-0.399,0.046c-0.079,0.084-0.081,0.275-0.149,0.375
		c-0.125,0.182-0.294,0.51-0.544,0.415c-0.107-0.041-0.196-0.176-0.309-0.23c-0.152-0.072-0.382-0.023-0.515-0.095
		c-0.081-0.044-0.104-0.16-0.174-0.224c-0.113-0.104-0.276-0.128-0.419-0.161c-0.268-0.064-0.548-0.114-0.807-0.206
		c-0.232-0.082-0.184-0.12-0.251-0.322c-0.18-0.541-1.048-0.351-1.39-0.772c-0.118-0.145-0.153-0.382-0.261-0.543
		c-0.173-0.258-0.44-0.39-0.738-0.458c-0.245-0.055-0.523,0.012-0.751-0.102c-0.175-0.087-0.327-0.266-0.488-0.38
		c-0.397-0.281-0.912-0.322-1.321-0.563c-0.187-0.11-0.324-0.229-0.518-0.295c-0.215-0.073-0.475-0.011-0.693-0.066
		c-0.232-0.059-0.258-0.28-0.443-0.381c-0.171-0.094-0.511-0.013-0.711-0.015c-0.352-0.004-0.763-0.091-1.111-0.022
		c-0.238,0.047-0.136,0.062-0.27,0.285c-0.095,0.156-0.299,0.348-0.481,0.393c-0.241,0.061-0.539-0.117-0.611-0.338
		c-0.064-0.197-0.022-0.239-0.239-0.313c-0.3-0.102-0.569-0.02-0.857,0.037c-0.264,0.052-0.187-0.039-0.31-0.245
		c-0.155-0.258-0.382-0.27-0.643-0.35c-0.622-0.192-1.171-0.642-1.848-0.58c-0.667,0.061-1.205,0.604-1.735,0.963
		c-0.369,0.25-0.762,0.475-1.161,0.675c-0.359,0.18-0.737,0.286-1.072,0.514c-0.071-0.258,0.084-0.655-0.113-0.878
		c-0.169-0.191-0.355-0.143-0.468,0.045c-0.095-0.04-0.207-0.108-0.279-0.166c-0.105-0.085-0.203-0.214-0.335-0.274
		c-0.145-0.065-0.316-0.107-0.466-0.155c-0.238-0.076-0.467-0.174-0.666-0.334c-0.14-0.111-0.276-0.246-0.341-0.414
		c-0.037-0.094-0.025-0.164-0.072-0.252c-0.065-0.122-0.162-0.173-0.202-0.312c-0.085-0.295-0.021-0.686-0.021-0.991
		c0-0.36-0.026-0.712-0.042-1.069c-0.031-0.682,0.098-1.287-0.573-1.715c-0.312-0.199-0.676-0.223-1.001-0.373
		c-0.219-0.101-0.242-0.225-0.312-0.43c-0.085-0.248-0.083-0.25-0.272-0.277c-0.244-0.034-0.722,0.154-0.935,0.286
		c-0.142,0.089-0.259,0.2-0.352,0.341c-0.035-0.084-0.06-0.172-0.07-0.262c-0.053,0.124-0.111,0.298-0.218,0.386
		c-0.125,0.101-0.308,0.079-0.448,0.153c-0.251,0.132-0.422,0.428-0.654,0.585c-0.115,0.079-0.228,0.164-0.344,0.247
		c-0.137,0.099-0.101,0.055-0.257,0.068c-0.164,0.014-0.108-0.049-0.275,0.058c-0.218,0.14-0.293,0.312-0.591,0.365
		c-0.335,0.06-0.585-0.294-0.876-0.261c-0.129,0.014-0.24,0.182-0.332,0.259c-0.161,0.135-0.341,0.246-0.518,0.36
		c-0.279,0.179-0.52,0.394-0.786,0.58c-0.371,0.26-0.47,0.013-0.859-0.084c-0.481,0.021-0.998-0.304-1.486-0.334
		c-0.483-0.03-0.655,0.076-0.931-0.387c-0.206-0.345-0.556-0.688-0.412-1.094c0.112-0.316,0.263-0.717,0.152-1.115
		c-0.106-0.379-0.48-0.287-0.845-0.31c-0.294-0.019-0.683-0.095-0.974-0.032c-0.09,0.019-0.337,0.13-0.399,0.191
		c-0.086,0.085-0.036,0.234-0.141,0.31c-0.17,0.123-0.585,0.039-0.801,0.038c-0.214-0.001-0.682,0.055-0.623-0.281
		c0.061-0.347,0.587-0.135,0.713-0.351c0.201-0.344-1-0.444-1.216-0.589c-0.191-0.128-0.006-0.181-0.32-0.292
		c-0.159-0.056-0.396,0.026-0.441-0.173c-0.016-0.072,0.166-0.283,0.19-0.372c0.027-0.102,0.04-0.381-0.011-0.48
		c-0.222-0.43-1.196-0.398-1.603-0.457c-0.403-0.059-0.847-0.095-1.046-0.487c-0.193-0.382-0.129-0.63-0.598-0.809
		c-0.588-0.225-0.561,0.222-0.853,0.58c-0.148-0.138-0.288-0.283-0.426-0.43c-0.371,0.2-0.516,0.342-0.931,0.128
		c-0.395-0.204-0.793-0.328-1.206-0.498c-0.46-0.189-1.292-0.548-0.901-1.17c0.204-0.324,0.666-0.277,0.707-0.726
		c0.015-0.169-0.068-0.303-0.066-0.471c0.002-0.209,0.105-0.355,0.172-0.547c0.148-0.428-0.145-0.506-0.105-0.907
		c0.04-0.405,0.267-0.729,0.249-1.164l-1.545-2.997l-7.16-1.325c-0.013,0.261-0.304,0.098-0.457,0.002
		c-0.219-0.138-0.195-0.277-0.237-0.494c-0.065-0.333-0.137-0.627-0.349-0.913c-0.09-0.121-0.208-0.271-0.376-0.291
		c-0.256-0.031-0.289,0.179-0.479,0.284c-0.312,0.173-0.334,0.092-0.411-0.165c-0.129-0.434-0.257-0.444-0.696-0.584
		c-0.171-0.055-0.584-0.166-0.687-0.314c-0.138-0.199,0.025-0.594-0.081-0.838c-0.136,0.016-0.425,0.213-0.515,0.207
		c-0.133-0.009-0.174-0.185-0.286-0.193c-0.365-0.028-0.112,0.588-0.309,0.775c-0.133,0.126-0.413,0.067-0.559,0.178
		c-0.142,0.108-0.175,0.293-0.248,0.444c-0.053,0.108-0.146,0.374-0.246,0.452c-0.201,0.156-0.556-0.02-0.702,0.216
		c-0.243-0.1-0.424-0.224-0.685-0.227c-0.239-0.004-0.477,0.081-0.722,0.074c-0.506-0.012-0.978-0.039-1.479,0.029
		c-0.164,0.023-0.378,0.072-0.542,0.036c-0.145-0.031-0.313-0.21-0.438-0.164c-0.137,0.051-0.24,0.355-0.315,0.473
		c0.283,0.454,0.812,0.74,0.917,1.326c0.044,0.245,0.016,0.646-0.278,0.728c-0.256,0.07-0.761-0.317-0.985-0.475l-4.732-2.699
		l-5.205-0.266c-0.008,0.145,0.155,0.28,0.205,0.413c0.077,0.209,0.002,0.304-0.14,0.46c-0.396,0.436,0.455,0.752,0.169,1.13
		c-0.17,0.225-0.291,0.32-0.343,0.608c-0.044,0.241-0.199,0.427-0.312,0.641c-0.1,0.192-0.296,0.438-0.511,0.509
		c-0.206,0.068-0.45-0.002-0.66,0.025c-0.176,0.023-0.288,0.142-0.473,0.126c-0.193-0.017-0.397-0.172-0.55-0.288
		c-0.161-0.122-0.167-0.285-0.162-0.487c0.004-0.214,0.059-0.409-0.053-0.603c-0.119-0.206-0.343-0.214-0.498-0.359
		c-0.392-0.366-0.743-1.101-1.162-1.299c-0.452-0.213-1.297-0.112-1.763-0.09c-0.518,0.025-1.037,0.074-1.55,0.097
		c-0.757,0.033-2.008-0.187-2.491-0.837c-0.074-0.099-0.093-0.314-0.186-0.387c-0.122-0.095-0.421-0.036-0.578-0.037
		c-0.715-0.007-1.385-0.058-2.09,0.026c-0.387,0.046-1.276,0.078-1.631-0.135c-0.187-0.113-0.394-0.505-0.019-0.501
		c0.066-0.275-0.236-0.471-0.168-0.699c0.019-0.062,0.17-0.171,0.205-0.266c0.051-0.135,0.089-0.468,0.105-0.616
		c0.037-0.341-0.231-0.423-0.361-0.74c-0.158-0.387,0.038-0.82-0.164-1.196c-0.077-0.142-0.171-0.186-0.214-0.35
		c-0.056-0.216-0.01-0.401-0.113-0.619c-0.146-0.311-0.226-0.572-0.59-0.613c-0.59-0.066-1.006,0.33-1.564,0.383
		c-0.31,0.03-0.364-0.018-0.68,0.132c-0.417,0.199-0.824,0.209-1.29,0.212c-0.485,0.003-0.653,0.062-1.056,0.263
		c-0.254,0.126-0.333,0.113-0.626,0.053c-0.548-0.113-1.18-0.317-1.523-0.788c-0.182-0.251-0.411-0.643-0.638-0.862
		c-0.243-0.234-0.59-0.335-0.892-0.485c-0.563-0.28-1.038-0.697-1.535-1.083c-0.28-0.218-0.519-0.472-0.783-0.71
		c-0.195-0.176-0.387-0.411-0.618-0.54c-0.157-0.088-0.337-0.133-0.5-0.207c-0.11-0.05-0.215-0.147-0.334-0.184
		c-0.171-0.054-0.23,0.05-0.381,0.122c-0.156,0.075-0.384,0.069-0.525-0.021c-0.229-0.146-0.385-0.452-0.544-0.666
		c-0.228-0.307-0.553-0.601-0.742-0.932c-0.228,0.119-0.579,0.016-0.837,0.016c-0.226,0-0.453,0.008-0.678-0.012
		c-0.228-0.021-0.494-0.075-0.722-0.051c-0.207,0.022-0.267,0.182-0.411,0.35c-0.224,0.262-0.523,0.592-0.574,0.945
		c-0.023,0.16,0.032,0.313-0.119,0.396c-0.195,0.108-0.615,0.059-0.84,0.059l-1.378-1.214l-0.462,0.021l-2.46-2.271l-1.367-0.105
		l-3.701-2.334l0.105-0.862c-0.06-0.149-0.239-0.226-0.348-0.33c-0.114-0.109-0.195-0.253-0.283-0.38
		c-0.234-0.338-0.393-0.575-0.8-0.693c-0.244-0.071-0.502-0.053-0.758-0.067c-0.163-0.009-0.397-0.045-0.437,0.174
		c-0.028,0.158,0.134,0.254,0.087,0.433c-0.061,0.23-0.219,0.211-0.421,0.22c-0.268,0.012-0.551,0.097-0.817,0.074
		c-0.025-0.129,0.16-0.219,0.127-0.334c-0.049-0.173-0.429-0.064-0.478-0.234c-0.047-0.162,0.256-0.215,0.318-0.337
		c0.09-0.178,0.021-0.449,0.015-0.64l-1.971-2.366v-1.041l-0.442-0.836c-0.099,0.01-0.152-0.059-0.229-0.074
		c-0.213-0.043-0.437-0.044-0.654-0.047c-0.361-0.005-0.667-0.091-1.015-0.157c-0.452-0.086-0.808-0.146-1.188-0.413
		c-0.294-0.206-0.588-0.39-0.798-0.688c-0.078,0.054-0.093,0.194-0.198,0.21c-0.065,0.01-0.274-0.094-0.299-0.179
		c-0.045-0.156,0.145-0.19,0.177-0.328c0.056-0.239-0.086-0.12-0.217-0.189c-0.158-0.083-0.082-0.324-0.211-0.421
		c-0.16-0.121-0.382,0.057-0.511,0.152c-0.137,0.101-0.306,0.219-0.493,0.139c-0.152-0.064-0.178-0.219-0.033-0.351
		c-0.243-0.019-0.639-0.032-0.634-0.383c-0.274,0.108-0.538,0.121-0.715-0.103c-0.217-0.275-0.074-0.287-0.026-0.564
		c0.108-0.623-1.314-0.635-1.021-0.086c-0.062,0.025-0.134,0.014-0.195-0.025c-0.515-0.325-0.779-0.641-1.435-0.606
		c-0.034-0.153,0.02-0.431-0.062-0.568c-0.125-0.211-0.46-0.088-0.545-0.323c-0.081-0.228,0.091-0.313-0.166-0.443
		c-0.192-0.097-0.519-0.04-0.736,0.005c-0.193-0.035-0.384-0.206-0.523-0.339c-0.223-0.213-0.054-0.295-0.173-0.524
		c-0.045-0.086-0.195-0.105-0.254-0.184c-0.064-0.087-0.061-0.195-0.101-0.279c-0.152-0.319-0.223-0.346-0.546-0.438
		c-0.31-0.089-0.694-0.105-0.972-0.21c-0.078-0.03-0.484-0.21-0.552-0.285c-0.177-0.195,0.034-0.269-0.039-0.464
		c-0.097-0.257-0.711-0.35-0.951-0.336c-0.379,0.023-0.615,0.344-0.977,0.415c-0.037,0.279,0.124,0.572,0.189,0.839
		c0.082,0.341,0.053,0.682,0.092,1.025c0.017,0.153,0.06,0.4,0.124,0.528c0.138,0.277,0.283,0.24,0.052,0.569
		c-0.198-0.137-0.369-0.351-0.566-0.505c-0.223-0.174-0.641-0.099-0.791-0.264c-0.124-0.136-0.077-0.555-0.202-0.743
		c-0.18-0.271-0.538-0.408-0.851-0.46c-0.38-0.063-0.939,0.136-1.284-0.052c-0.1-0.054-0.173-0.217-0.238-0.308
		c-0.15-0.21-0.31-0.29-0.491-0.45c-0.246-0.217-0.251-0.517-0.438-0.773c-0.267-0.365-0.804-0.347-1.06-0.744
		c-0.228-0.354-0.165-0.64-0.619-0.818c-0.315-0.124-0.565-0.106-0.839-0.318c-0.182-0.141-0.36-0.305-0.537-0.452
		c-0.265-0.22-0.521-0.453-0.756-0.703c-0.408-0.434-0.682-0.543-1.271-0.631c-0.303-0.046-0.373-0.004-0.535-0.216
		c-0.152-0.199-0.188-0.531-0.224-0.771c-0.077-0.512-0.087-1.057,0.125-1.536c0.174-0.394,0.411-1.092,0.718-1.386
		c0.191-0.183,0.244-0.052,0.422-0.129c0.255-0.109,0.372-0.319,0.427-0.643c0.092-0.538,0.1-1.089,0.097-1.629
		c-0.003-0.458,0.34-1.426,0.862-1.581c0.325-0.097,0.631,0.203,0.936,0.319c0.455,0.172,0.817-0.133,1.232-0.347
		c0.107-0.44-0.051-0.93-0.332-1.278c-0.29-0.358-0.356-0.56,0.006-0.947c0.273,0.288,0.694,0.889,1.016,0.267
		c0.142-0.274-0.053-0.534-0.012-0.837c0.053-0.391,0.374-0.682,0.454-1.063c0.172-0.821-0.423-1.141-0.751-1.78
		c-0.165-0.322-0.096-0.693-0.237-0.989c-0.125-0.26-0.446-0.403-0.586-0.66c-0.114-0.211-0.242-0.761,0-0.912
		c0.105-0.065,0.365,0.011,0.49-0.022c0.226-0.059,0.338-0.222,0.594-0.155c-0.015-0.351-0.35-0.593,0.012-0.774
		c0.081-0.04,0.152,0.065,0.213,0.031c0.137-0.076,0.126-0.211,0.205-0.333c0.182-0.28,0.286-0.225,0.512-0.357
		c0.241-0.141,0.272-0.363,0.372-0.59c-0.05-0.036-0.106-0.112-0.158-0.138c-0.22-0.549,0.583-0.652,0.868-0.939
		c0.218-0.22,0.398-0.427,0.457-0.734c0.038-0.201-0.007-0.368,0.07-0.567c0.069-0.178,0.181-0.264,0.207-0.473
		c0.057-0.458-0.244-0.622-0.441-0.983c-0.248-0.457-0.642-0.955-0.626-1.502c0.015-0.497,0.57-0.541,0.695-1.018
		c0.075-0.287,0.039-0.442,0.275-0.596c0.13-0.084,0.415-0.252,0.562-0.285c0.474-0.106,0.822,0.46,1.308,0.148
		c0.276-0.177,0.329-0.59,0.6-0.803c0.247-0.195,0.471-0.339,0.653-0.605c0.51-0.742,0.548-1.844,1.05-2.588
		c0.195-0.29,0.498-0.482,0.844-0.505c0.317-0.021,0.627,0.257,0.936,0.186c0.446-0.102,0.587-0.721,0.932-0.952
		c0.266-0.178,0.59-0.111,0.806-0.368c0.284-0.338,0.191-0.874,0.464-1.267c0.204-0.293,0.673-0.8,1.01-0.944
		c0.116-0.049,0.223-0.01,0.345-0.03c0.071-0.012,0.184,0.039,0.246,0.008c0.112-0.058,0.158-0.326,0.246-0.424
		c0.163-0.182,0.482-0.295,0.576-0.561c0.092-0.26-0.074-0.458-0.134-0.686c-0.076-0.288,0.006-0.326,0.163-0.573
		c0.221-0.348,0.441-0.652,0.758-0.917c0.586-0.49,0.901-0.561,1.527-0.695c0.363-0.078,0.557-0.078,0.862,0.131
		c0.167,0.114,0.202,0.228,0.332,0.368c0.074,0.08,0.251,0.169,0.301,0.261c0.055,0.103,0.016,0.089,0.047,0.211
		c0.031,0.122-0.01,0.226,0.051,0.375c0.076,0.188,0.23,0.358,0.351,0.517c0.199,0.259,0.394,0.402,0.734,0.458
		c-0.096,0.399-0.411,1.413,0.271,1.467c0.154,0.37-0.017,0.515-0.085,0.845c-0.076,0.373,0.067,0.585,0.307,0.854
		c0.306,0.343,0.574,0.603,1.04,0.632c0.13,0.008,0.534,0.069,0.637,0.004c0.146-0.092,0.117-0.234,0.161-0.412
		c0.334,0.085,1.082,0.757,1.329,0.156c-0.33-0.546,0.065-0.398,0.364-0.696c0.213-0.213,0.354-0.685,0.47-0.969
		c0.289-0.708-0.195-0.84-0.36-1.47c-0.106-0.404,0.411-0.737,0.817-0.685c0.406,0.052,0.399,0.305,0.69-0.089
		c0.225-0.304,0.396-0.441,0.718-0.635c0.214-0.129,0.363-0.219,0.477-0.452c0.168-0.343,0.06-0.751,0.189-1.105
		c0.076-0.21,0.233-0.351,0.294-0.572c0.119-0.424-0.071-0.122-0.13-0.438c-0.026-0.141,0.053-0.288,0.21-0.272
		c0.007-0.145,0.041-0.332-0.012-0.469c-0.085-0.22-0.299-0.285-0.268-0.569c0.019-0.181,0.082-0.258,0.064-0.45
		c-0.011-0.113-0.089-0.271-0.065-0.383c0.061-0.281,0.221-0.037,0.444-0.171c0.406-0.245-0.286-0.482-0.296-0.783
		c-0.01-0.305,0.353-0.607,0.655-0.546c0.137,0.028,0.205,0.139,0.376,0.157c0.225,0.024,0.254,0.011,0.398,0.168
		c0.222,0.24,0.294,0.554,0.599,0.695c0.375,0.175,0.919,0.251,1.336,0.232c0.006-0.49,0.015-0.823,0.251-1.26
		c0.24,0.043,0.867,0.363,1.077,0.25c0.2-0.108,0.167-0.587,0.193-0.782c0.162,0.032,0.351,0.142,0.506,0.188
		c0.192,0.057,0.404,0.073,0.593,0.136c0.144,0.048,0.102,0.041,0.217,0.101c0.269,0.14,0.539,0.247,0.821,0.356
		c0.253,0.097,0.248,0.122,0.398,0.289c0.141,0.159,0.445,0.26,0.655,0.317c0.461,0.126,1.011,0.126,1.485,0.19
		c0.311,0.042,0.712,0.003,0.997,0.149c0.387,0.199,0.85,0.854,1.347,0.728c0.082-0.021,0.129-0.098,0.22-0.12
		c0.069-0.017,0.171,0,0.243,0.003c0.205,0.007,0.233,0.007,0.335,0.159c0.032,0.048,0,0.135,0.037,0.196
		c0.047,0.077,0.231,0.234,0.303,0.294c0.158,0.131,0.342,0.213,0.522,0.113c0.265-0.147,0.342-0.447,0.714-0.424
		c0.206,0.012,0.474,0.303,0.668,0.266c0.15-0.029,0.117-0.061,0.132-0.25c0.019-0.229,0.012-0.328,0.245-0.374
		c0.232-0.046,0.308,0.12,0.493,0.214c0.177,0.089,0.405,0.107,0.525,0.295c0.109,0.172,0.061,0.502,0.061,0.692
		c0,0.174,0.027,0.365-0.008,0.536c-0.033,0.165-0.102,0.272-0.099,0.448c0.002,0.125,0.07,0.263,0.047,0.385
		c-0.023,0.123-0.125,0.193-0.173,0.301c-0.044,0.096-0.094,0.274-0.065,0.385c0.068,0.256,0.4,0.191,0.644,0.223
		c0.074,0.211-0.024,0.475,0.098,0.683c0.1,0.171,0.172,0.138,0.354,0.19c0.765,0.223,0.379,0.347,0.695,0.791
		c0.178,0.25,0.443,0.119,0.329,0.527c-0.06,0.218-0.485,0.464-0.664,0.508c0.327,0.286-0.021,0.724-0.005,1.063
		c0.026,0.573,0.811,0.35,1.281,0.35c0.467,0,0.808-0.016,1.162,0.275c0.334,0.274,0.477,0.723,0.996,0.688
		c-0.019-0.104-0.003-0.269-0.044-0.381c0.377-0.196,0.824,0.571,0.972,0.859c0.104-0.096,0.208-0.119,0.251-0.26
		c0.503,0.118,0.675,0.55,1.102,0.808c0.33,0.199,0.783,0.314,1.073,0.542c0.2,0.157,0.268,0.412,0.539,0.531
		c0.475,0.208,0.413-0.032,0.714-0.286c0.236-0.199,0.044-0.17,0.359-0.115c0.01,0.002,0.442,0.216,0.464,0.24
		c0.222,0.246,0.195,0.663,0.397,0.952c0.051,0.073,0.201,0.06,0.226,0.092c0.09,0.121,0.088,0.288,0.173,0.428
		c0.09,0.147,0.24,0.325,0.358,0.456c0.221,0.247,0.575,0.358,0.767,0.597c-0.196,0.052-0.361,0.575-0.408,0.789
		c0.52,0.207,1.152-0.304,1.649-0.495c0.141,0.327,0.375,0.337,0.716,0.428c0.016,0.213,0.285,0.529,0.213,0.748
		c-0.071,0.217-0.62,0.562-0.832,0.492c-0.038,0.273,0.011,0.547-0.036,0.82c0.241-0.016,1.032-0.313,1.264-0.162
		c0.171,0.111,0.127,0.483,0.201,0.654c0.198,0.459,0.702,0.668,1.233,0.588c0.084,0.516,0.208,0.682,0.788,0.81
		c0.642,0.141,0.842-0.333,1.409-0.405c0.36-0.045,0.561,0.127,0.746,0.425c0.12,0.194-0.002,0.295,0.201,0.462
		c0.176,0.146,0.566,0.232,0.666-0.026c0.185,0.18,0.506,0.208,0.63-0.048c0.114,0.14,0.154,0.376,0.245,0.49
		c0.079,0.099,0.245,0.154,0.343,0.247c0.296,0.279,0.688,0.748,1.094,0.865c0.489,0.141,0.572-0.277,0.934-0.333
		c0.294-0.046,1.185,0.221,0.815,0.64c0.428,0.19,0.384-0.013,0.642-0.095c0.504-0.161,0.376-0.058,0.664,0.192
		c0.066,0.058,0.09,0.215,0.173,0.292c0.13,0.12,0.438,0.24,0.613,0.302c0.304,0.108,0.526,0.071,0.743,0.338
		c-0.211,0.023-0.421,0-0.629,0.049c0.19,0.571,0.579,2.303,1.549,1.438c0.357,0.16,0.466,0.224,0.504,0.615
		c0.027,0.265,0,0.568,0.201,0.755c0.055,0.051,0.137,0.073,0.199,0.125c0.123,0.101,0.179,0.238,0.267,0.38
		c0.179,0.289,0.255,0.229,0.572,0.287c0.2,0.036,0.422,0.162,0.645,0.213c0.079,0.299,0.086,0.711,0.025,1.015
		c-0.026,0.128-0.099,0.253-0.061,0.395c0.05,0.186,0.271,0.288,0.358,0.453c0.069,0.132,0.045,0.349,0.075,0.492
		c0.032,0.153,0.061,0.313,0.1,0.465c0.08,0.313,0.347,0.757,0.608,0.96c0.287-0.243,0.703,0.082,0.858,0.321
		c0.095,0.147,0.112,0.257,0.126,0.422c0.038,0.433,0.019,0.758,0.389,1.036c0.2,0.151,0.338,0.149,0.581,0.162
		c0.274,0.015,0.293,0.126,0.41,0.35c0.131,0.249,0.193,0.329,0.486,0.261c0.067-0.016,0.115-0.09,0.186-0.08
		c0.096,0.014,0.212,0.179,0.277,0.233c0.284,0.233,0.818,0.267,1.012-0.126c0.091-0.183-0.071-0.476,0.025-0.642
		c0.086-0.146,0.368-0.233,0.505-0.353c0.137-0.121,0.279-0.238,0.396-0.38c0.053-0.065,0.1-0.186,0.175-0.232
		c0.242-0.151,0.846-0.042,1.14-0.041c0.322,0.002,0.588-0.048,0.847-0.261c0.246-0.203,0.149-0.411,0.172-0.696
		c0.025-0.309,0.213-0.598,0.534-0.641c0.257-0.034,0.386,0.072,0.622-0.066c0.179-0.105,0.252-0.223,0.471-0.249
		c0.275-0.033,0.325,0.017,0.531-0.192c0.129-0.131,0.147-0.162,0.338-0.168c0.394-0.011,0.625,0.235,1.03,0.182
		c0.052-0.368,0.413-0.257,0.66-0.137c0.232,0.114,0.233,0.23,0.276,0.458c0.038,0.199,0.234,0.389,0.504,0.371
		c0.134-0.009,0.136-0.059,0.271-0.147c0.205-0.133,0.28-0.036,0.503,0.102c0.123,0.076,0.276,0.229,0.435,0.195
		c0.13-0.028,0.177-0.189,0.326-0.189c0.161,0,0.611,0.314,0.682,0.47c0.128,0.279-0.188,0.608,0.176,0.767
		c0.181,0.08,0.47,0.041,0.668,0.061C100.389,77.865,100.759,77.944,101.074,77.942z"/>
</g>
</svg>
