<?xml version="1.0" encoding="utf-8"?>
<!-- Generator: Adobe Illustrator 26.0.3, SVG Export Plug-In . SVG Version: 6.00 Build 0)  -->
<svg version="1.1" xmlns="http://www.w3.org/2000/svg" xmlns:xlink="http://www.w3.org/1999/xlink" x="0px" y="0px"
	 viewBox="0 0 200 200" enable-background="new 0 0 200 200" xml:space="preserve">
<g id="Layer_1">
	<g id="Layer_1_00000107551159852787612550000017757744099325915571_">
		<g id="Layer_1_00000128480095285341338950000008464522443776971395_">
		</g>
	</g>
</g>
<g id="Isolation_Mode_00000063621668281934077600000006196874878142535819_">
	<path fill="#1E8346" d="M191.01,117.202l-0.788,0.66l-22.851-2.918l-9.001-11.528c0-0.238-0.009-0.478,0.013-0.713
		c0.011-0.118,0.131-0.467,0.04-0.572c-0.088-0.102-0.271-0.028-0.396-0.054c-0.295-0.063-0.507-0.261-0.752-0.421
		c-0.47-0.308-0.428-0.167-0.862,0.032c-0.318,0.146-0.661,0.094-0.735-0.263c-0.066-0.318,0.198-0.702,0.39-0.931
		c0.27-0.322,0.601-0.482,0.826-0.849c0.14-0.228,0.62-0.513,0.524-0.772c-0.345,0.011-0.706-0.887-0.924-0.195
		c-0.089,0.282,0.007,0.467-0.295,0.638c-0.23,0.131-0.323,0.098-0.396,0.376c-0.312,0.05-0.615,0.169-0.923,0.204
		c-0.476,0.054-0.803-0.052-1.231-0.214c-0.335-0.127-0.684-0.237-1.008-0.398c-0.345-0.171-0.408-0.385-0.581-0.717
		c-0.188-0.36-0.374-0.937-0.713-1.194c-0.246-0.186-0.335,0.003-0.434-0.351c-0.046-0.164-0.071-0.36-0.096-0.533
		c-0.021-0.141,0.008-0.284-0.069-0.412c-0.092-0.152-0.283-0.241-0.381-0.41c-0.217-0.372-0.357-0.782-0.622-1.133
		c-0.22-0.292-0.463-0.493-0.525-0.878c-0.044-0.274,0.021-0.583-0.074-0.845c-0.052-0.142-0.167-0.244-0.204-0.397
		c-0.091-0.378-0.042-0.77-0.169-1.148c-0.112-0.333-0.252-0.478-0.511-0.683c-0.214-0.169-0.454-0.363-0.689-0.52
		c-0.091-0.061-0.132-0.075-0.242-0.106c-0.147-0.041-0.088,0-0.169-0.125c-0.082-0.125-0.147-0.308-0.277-0.4
		c-0.116-0.081-0.181-0.072-0.289-0.199c-0.104-0.122-0.204-0.254-0.288-0.391c-0.203-0.328-0.14-0.432,0.136-0.645
		c-0.105-0.204-0.222-0.416-0.296-0.65c-0.083-0.264-0.276-0.199-0.452-0.382c-0.064-0.066-0.159-0.148-0.16-0.246
		c-0.221-0.137-0.246-0.565-0.331-0.792c-0.038-0.101-0.177-0.277-0.14-0.394c0.029-0.088,0.227-0.126,0.297-0.195
		c-0.113-0.171-0.173-0.431-0.39-0.505c-0.122-0.041-0.232-0.004-0.352-0.075c-0.104-0.063-0.147-0.16-0.289-0.105
		c-0.072,0.028-0.104,0.112-0.167,0.149c-0.065-0.169-0.084-0.377-0.091-0.563c-0.006-0.183,0.084-0.404,0.043-0.579
		c-0.032-0.138-0.13-0.179-0.086-0.336c0.078-0.277,0.323-0.484,0.512-0.681c0.093,0.058,0.141,0.222,0.186,0.318
		c0.093,0.202,0.163,0.398,0.233,0.609c0.067,0.2,0.129,0.491,0.276,0.647c0.109,0.115,0.112,0.027,0.241,0.044
		c0.012-0.27,0.006-0.493,0.084-0.754c0.034-0.116,0.041-0.271,0.114-0.371c0.048-0.066,0.107-0.073,0.173-0.119
		c0.164-0.114,0.171-0.265,0.199-0.45c0.027-0.176,0.103-0.356,0.114-0.533c0.02-0.325-0.037-0.632-0.028-0.958
		c0.006-0.198-0.111-0.529-0.268-0.655c-0.122-0.099-0.248-0.069-0.386-0.111c-0.127-0.038-0.241-0.145-0.348-0.221
		c-0.255-0.182-0.717-0.534-0.687-0.894c0.152-0.002,0.498-0.02,0.596-0.176c0.141-0.226-0.311-0.518-0.491-0.534
		c-0.17-0.016-0.285,0.052-0.376-0.079c-0.037-0.054-0.093-0.187-0.113-0.254c-0.062-0.205,0.01-0.596,0.07-0.779
		c0.062,0.115,0.123,0.412,0.261,0.458c0.045,0.015,0.142-0.019,0.194-0.027c0.176-0.026,0.383-0.011,0.532-0.114
		c-0.266-0.126-0.479-0.317-0.632-0.569c0.023,0.005,0.042,0.019,0.055,0.041c-0.312-0.344-0.533-0.801-0.935-1.034
		c-0.294-0.17-0.737-0.189-1.053-0.344c-0.34-0.167-0.682-0.376-0.998-0.584c-0.395-0.259-0.394-0.66-0.632-1.018
		c-0.249-0.374-0.61-0.598-0.904-0.931c-0.132-0.15-0.396-0.348-0.607-0.282c-0.113,0.036-0.154,0.107-0.291,0.118
		c-0.08,0.007-0.202,0.022-0.279,0.003c-0.26-0.067-0.399-0.384-0.644-0.117c-0.073-0.1-0.17-0.196-0.192-0.322
		c-0.028-0.158,0.062-0.306,0.036-0.46c-0.023-0.14-0.079-0.196-0.055-0.356c0.021-0.138,0.079-0.354-0.059-0.436
		c-0.237-0.141-0.398-0.111-0.657-0.112c-0.014-0.18,0.324-0.565,0.042-0.611c-0.091-0.015-0.174,0.102-0.265,0.09
		c-0.071-0.009-0.103-0.074-0.153-0.117c-0.13-0.114-0.269-0.174-0.45-0.223c0.006-0.11,0.153-0.076,0.229-0.102
		c0.115-0.04,0.213-0.144,0.332-0.174c0.212-0.054,0.705,0.21,0.753-0.057c0.025-0.138-0.089-0.332-0.166-0.433
		c-0.141-0.186-0.367-0.505-0.605-0.537c-0.503-0.068-0.963,0.05-1.444-0.163c-0.122-0.054-0.223-0.126-0.33-0.201
		c-0.093-0.065-0.212-0.213-0.311-0.255c-0.11-0.045-0.282-0.016-0.398-0.016c-0.183,0-0.531,0.08-0.554-0.145
		c-0.012-0.116,0.062-0.151,0.086-0.244c0.046-0.176-0.064-0.225-0.178-0.328c-0.173-0.157-0.323-0.288-0.262-0.53
		c0.062-0.248,0.201-0.11,0.379-0.144c0.348-0.067,0.226-0.8,0.061-0.966c-0.166-0.166-0.305-0.37-0.469-0.544
		c-0.215-0.228-0.627-0.444-0.692-0.756c0.143-0.059,0.288-0.122,0.419-0.206c-0.127-0.259-0.795-0.201-1.036-0.299
		c-0.291-0.118-0.515-0.384-0.602-0.687c-0.059-0.204-0.065-0.493-0.005-0.692c0.085-0.283,0.287-0.323,0.115-0.6
		c-0.296-0.475-0.927-0.609-0.903-1.241c0.007-0.188,0.066-0.344,0.104-0.525c0.058-0.271-0.003-0.323-0.178-0.515
		c-0.222-0.243-0.584-0.582-0.685-0.892h-6.495v-0.206l-0.873-1.065l-0.213-1.959l-1.086-1.661l-8.128-1.015l-1.107,0.383
		l-15.262-1.392l-23.61-19.833l-5.991-2.811l-9.257-6.041l-10.584-2.129l-1.853,1.661l-17.846,5.303l8.902,10.392l-2.982,1.81
		l-1.512,3.343l-6.623,1.32l-2.279,3.897l-3.897,3.215l-9.988-1.831c0.001,0.272-0.125,0.533-0.182,0.797
		c-0.06,0.277-0.129,0.491-0.222,0.747c-0.281,0.776-0.457,1.577-0.585,2.385c-0.075,0.479-0.184,0.961-0.182,1.449
		c0.002,0.492-0.154,0.719-0.342,1.157c-0.189,0.44-0.113,0.783-0.028,1.241c0.076,0.408,0.259,0.864,0.051,1.238
		c-0.095,0.17-0.228,0.293-0.306,0.477C7.5,60.546,7.373,60.858,7.26,61.16c-0.182,0.489-0.364,1.053-0.459,1.567
		c-0.031,0.167-0.062,0.233-0.203,0.298c-0.18,0.083-0.331,0.247-0.475,0.386c-0.18,0.174,0.035,0.416,0.118,0.594
		c0.077,0.165,0.131,0.442,0.366,0.414c0.042-0.109,0.056-0.233,0.071-0.349c0.023-0.176,0.089-0.309,0.173-0.465
		c0.081-0.151,0.162-0.183,0.313-0.111c0.087,0.042,0.298,0.095,0.353,0.161c0.042,0.051,0.018,0.169,0.074,0.21
		c0.035,0.025,0.216,0.011,0.267-0.001c0.08-0.019,0.151-0.077,0.232-0.097c0.189-0.047,0.246,0.09,0.411,0.134
		c0.244,0.066,0.436,0.009,0.679-0.029c0.127-0.02,0.251-0.046,0.376-0.073c0.064-0.014,0.147-0.022,0.206-0.051
		c0.027-0.013,0.022-0.043,0.048-0.058c0.17-0.098,0.333-0.139,0.531-0.11c0.194,0.028,0.219,0.146,0.322,0.28
		c0.135,0.175,0.384,0.198,0.587,0.212c0.114,0.007,0.466-0.029,0.524,0.115c0.076,0.188-0.382,0.259-0.423,0.427
		c0.155,0.125,0.355,0.184,0.516,0.294c0.098,0.067,0.246,0.142,0.318,0.246c0.266,0.383,0.42,0.943,0.667,1.32
		c0.204,0.311,0.595,0.404,0.805,0.678c0.174,0.225,0.135,0.606,0.283,0.857c0.189,0.32,0.448,0.534,0.545,0.917
		c0.112,0.443,0.221,0.847,0.458,1.248c0.124,0.21,0.271,0.451,0.427,0.636c0.185,0.219,0.365,0.276,0.629,0.408
		c0.371,0.186,0.41,0.534,0.649,0.854c0.241,0.324,0.402,0.464,0.357,0.902c-0.016,0.157-0.086,0.257-0.045,0.413
		c0.079,0.305,0.473,0.744,0.741,0.923c0.276,0.186,0.428,0.535,0.653,0.781c0.229,0.249,0.382,0.511,0.531,0.801
		c0.195,0.38,0.329,0.845,0.639,1.149c0.099,0.097,0.248,0.161,0.337,0.259c0.082,0.092,0.145,0.258,0.196,0.373
		c0.086,0.193,0.112,0.376,0.267,0.524c0.15,0.143,0.345,0.241,0.437,0.423c0.095,0.187,0.176,0.362,0.302,0.535
		c0.098,0.134,0.222,0.239,0.3,0.388c0.068,0.13,0.1,0.284,0.184,0.403c0.07,0.098,0.107,0.159,0.145,0.273
		c0.053,0.157,0.046,0.321,0.107,0.48c0.167,0.433,0.341,0.865,0.598,1.26c0.185,0.285,0.367,0.557,0.514,0.862
		c0.13,0.268,0.077,0.589,0.239,0.84c0.178,0.275,0.467,0.49,0.772,0.597c0.37,0.13,1.024,0.055,1.048,0.593
		c0.009,0.197-0.121,0.434-0.187,0.62c-0.066,0.188-0.175,0.325-0.281,0.491c-0.126,0.198-0.11,0.267,0.045,0.45
		c0.171,0.203,0.346,0.403,0.549,0.576c0.129,0.111,0.124,0.28,0.28,0.363c0.138,0.073,0.234,0.098,0.354,0.209
		c0.056-0.021,0.117-0.076,0.172-0.07c0.093,0.009,0.225,0.14,0.3,0.193c0.105,0.073,0.17,0.128,0.242,0.217
		c0.073,0.091,0.141,0.176,0.228,0.253c0.223,0.197,0.505,0.254,0.639,0.55c0.084,0.185,0.029,0.413,0.105,0.592
		c0.042,0.097,0.126,0.156,0.184,0.248c0.105,0.167,0.172,0.321,0.323,0.455c0.134,0.119,0.296,0.191,0.381,0.355
		c0.127,0.248,0.086,0.563,0.153,0.829c0.067,0.267,0.17,0.567,0.43,0.704c0.105,0.198,0.197,0.309,0.313,0.505
		c0.081,0.136,0.207,0.276,0.323,0.388c0.098,0.095,0.28,0.172,0.343,0.291c0.118,0.222,0.002,0.519-0.038,0.736
		c-0.073,0.388,0.221,0.624,0.284,0.987c0.06,0.351-0.144,0.636-0.231,0.96c-0.036,0.134,0.004,0.325-0.042,0.447
		c-0.075,0.199-0.226,0.118-0.426,0.109c-0.589-0.026-0.389,0.228-0.171,0.54c0.132,0.19,0.182,0.42,0.326,0.606
		c0.128,0.166,0.309,0.273,0.455,0.413c0.462,0.447,0.702,1.044,1.144,1.493c0.282,0.286,0.452,0.586,0.528,0.985
		c-0.185,0.255-0.496,0.453-0.174,0.795c0.184,0.196,0.778,0.455,0.725,0.809c0.294,0.093,0.489,0.288,0.84,0.128
		c0.386-0.176,0.701-0.162,1.142-0.102c0.171,0.261,0.342,0.593,0.607,0.802c0.271,0.214,0.559,0.219,0.861,0.306
		c0.251,0.073,0.398,0.331,0.615,0.494c0.106,0.08,0.22,0.169,0.34,0.219c0.14,0.057,0.291,0.006,0.424,0.047
		c0.33,0.099,0.534,0.526,0.823,0.712c0.213,0.138,0.384,0.304,0.587,0.445c0.163,0.113,0.3,0.114,0.498,0.144
		c0.234,0.035,0.298,0.125,0.439,0.32c0.144,0.2,0.267,0.304,0.458,0.447c0.136,0.102,0.173,0.157,0.277,0.312
		c0.12,0.178,0.236,0.215,0.405,0.312c0.275,0.159,0.167,0.275,0.2,0.558c0.031,0.266,0.177,0.453,0.341,0.653
		c0.141,0.172,0.301,0.384,0.364,0.6c0.061,0.212,0.033,0.454,0.085,0.674c0.253,0.116,0.328,0.245,0.454,0.485
		c0.121,0.231,0.358,0.383,0.474,0.608c0.123,0.236,0.126,0.596,0.179,0.856c0.121,0.592,0.291,1.239,0.629,1.747
		c0.107,0.161,0.315,0.224,0.402,0.377c0.068,0.12,0.037,0.351,0.034,0.488c-0.004,0.185-0.031,0.372-0.004,0.557
		c0.02,0.138,0.046,0.213,0.151,0.304c0.242,0.209,0.378,0.189,0.662,0.242c0.216,0.041,0.327,0.352,0.406,0.551
		c0.056,0.144,0.083,0.287,0.077,0.441c-0.013,0.379,0.01,0.672,0.219,0.989c0.221,0.335,0.454,0.645,0.638,1.001
		c0.143,0.277,0.316,0.562,0.384,0.871c0.049,0.224-0.005,0.463-0.021,0.69c-0.019,0.284,0.014,0.526,0.113,0.793
		c0.108,0.29,0.181,0.365,0.171,0.692c-0.011,0.351-0.028,0.686-0.221,0.98c-0.121,0.183-0.297,0.297-0.382,0.502
		c-0.135,0.327-0.102,0.863-0.083,1.185c0.01,0.166-0.02,0.696-0.184,0.792c-0.163,0.096-0.45-0.082-0.572-0.176
		c-0.027,0.379-0.014,0.879,0.188,1.224c0.129,0.22,0.406,0.381,0.6,0.558c0.258,0.234,0.349,0.593,0.478,0.919
		c0.101,0.256,0.074,0.553,0.205,0.795c-0.038,0.378,0.195,0.724,0.255,1.093c0.054,0.328,0.233,0.533,0.284,0.86
		c0.032,0.205,0.092,0.283-0.031,0.484c-0.129,0.211-0.319,0.291-0.412,0.527c-0.209,0.527,0.36,0.779,0.573,1.21
		c0.271,0.546,0.114,1.101,0.637,1.532c-0.001,1.825,1.433,3.65,2.627,4.886c0.628,0.649,1.319,1.297,2.049,1.837
		c0.551,0.407,0.968,0.887,1.68,0.887c0.261,0,0.559,0.025,0.808-0.063c0.329-0.116,0.317-0.189,0.586,0.176
		c0.097,0.132,0.17,0.286,0.285,0.405c0.212,0.219,0.452,0.182,0.71,0.335c0.101,0.234,0.585,0.321,0.807,0.443
		c0.22,0.12,0.422,0.282,0.627,0.435c0.341,0.254,0.661,0.481,1.034,0.682c0.142,0.077,0.36,0.174,0.43,0.337
		c0.061,0.143,0.001,0.227-0.004,0.391c-0.009,0.269,0.096,0.253,0.23,0.463c0.117,0.185,0.147,0.39,0.308,0.552
		c0.213,0.214,0.439,0.282,0.739,0.302c0.132,0.009,0.348-0.047,0.469-0.002c0.189,0.07,0.355,0.376,0.466,0.549
		c0.151,0.235,0.221,0.466,0.175,0.753c-0.032,0.2-0.143,0.223-0.207,0.39c-0.118,0.305,0.168,0.648,0.429,0.766
		c0.447,0.203,0.908,0.045,0.914,0.636c0.004,0.342-0.053,0.818,0.033,1.146c0.085,0.325,0.384,0.516,0.595,0.747
		c0.329,0.36,0.171,0.855,0.425,1.233c0.17,0.253,0.544,0.279,0.724,0.529c0.267,0.37,0.076,0.829,0.031,1.224
		c-0.059,0.528,0.31,0.735,0.662,1.031c0.304,0.255-0.147,0.702-0.055,1.029c0.096,0.34,0.297,0.776,0.492,1.058
		c0.236,0.341,0.531,0.301,0.845,0.496c0.386,0.24,0.728,0.787,0.762,1.237c0.032,0.42-0.168,0.82,0.058,1.178
		c0.14,0.221,0.376,0.397,0.521,0.598c0.371,0.517,0.446,1.185,0.837,1.692c0.077,0.099,0.199,0.188,0.258,0.302
		c0.072,0.14,0.062,0.321,0.142,0.471c0.233,0.434,0.717,0.745,1.076,1.056c0.361,0.313,0.688,0.643,1.068,0.929
		c0.465,0.35,0.741,0.803,1.302,1.018c0.304,0.117,0.548,0.188,0.751,0.447c0.159,0.202,0.287,0.394,0.475,0.587
		c0.19,0.194,0.424,0.351,0.604,0.543c0.108,0.115,0.174,0.275,0.289,0.385c0.117,0.112,0.263,0.15,0.36,0.281
		c0.158,0.213,0.072,0.439,0.095,0.693c0.027,0.295,0.268,0.637,0.257,0.907c-0.022,0.56,0.065,0.997,0.424,1.456
		c0.239,0.305,0.578,0.409,0.883,0.623c0.353,0.248,0.393,0.605,0.483,1.017c0.072,0.326,0.169,0.688,0.409,0.95
		c0.221,0.241,0.567,0.317,0.807,0.542c0.764,0.716,0.191,1.508,0.521,2.342c0.072,0.183,0.139,0.315,0.178,0.512
		c0.073,0.374,0.132,0.38,0.465,0.582c0.228,0.138,0.273,0.168,0.578,0.09c0.172-0.044,0.344-0.099,0.511-0.132
		c-0.03-0.214,0.042-0.536,0.151-0.723c0.173-0.299,0.414-0.25,0.742-0.305c0.165-0.028,0.32-0.034,0.482-0.055
		c0.329-0.043,0.312-0.023,0.392-0.313c0.089-0.32,0.087-0.668,0.19-0.985c0.366,0.06,0.755,0.366,0.76-0.224
		c0.001-0.189-0.115-0.339-0.107-0.517c0.641-0.285,0.152-0.88-0.227-1.182c-0.147-0.117-0.472-0.302-0.401-0.539
		c0.021-0.07,0.177-0.14,0.226-0.224c0.126-0.211,0.084-0.497,0.082-0.727c0.096,0.04,0.193,0.09,0.284,0.146
		c0.085-0.152,0.126-0.599-0.022-0.75c-0.105-0.107-0.296-0.086-0.446-0.081c-0.07-0.307-0.098-0.652,0.095-0.886
		c0.222-0.269,0.411-0.307,0.41-0.727c0.146-0.03,0.244-0.145,0.381-0.192c0.131-0.045,0.377,0.007,0.474-0.111
		c0.175-0.213-0.09-0.368-0.246-0.466c-0.429-0.269-0.532-0.618-0.385-1.126c0.095-0.328,0.211-0.322,0.544-0.521
		c0.165-0.099,0.308-0.242,0.502-0.253c0.063-0.004,0.175,0.059,0.266,0.056c0.075-0.003,0.155-0.061,0.234-0.068
		c0.273-0.023,0.517,0.129,0.718,0.325c0.435,0.424,0.674,0.875,1.232,1.175c0.244,0.131,0.443,0.217,0.728,0.24
		c0.389,0.031,0.481,0.01,0.808,0.201c0.337,0.196,0.739,0.139,1.115,0.14c0.419,0,0.411,0.042,0.586-0.294
		c0.096-0.185,0.275-0.409,0.531-0.388c0.212,0.018,0.249,0.247,0.434,0.369c0.101-0.091,0.124-0.284,0.224-0.358
		c0.147-0.109,0.466-0.063,0.642-0.076c0.432-0.033,0.862-0.081,1.293-0.12c0.574-0.052,1.066-0.096,1.623,0.051
		c0.419,0.111,0.627-0.09,1.011-0.094l5.196-0.114l1.477,0.937l8.831,1.022l3.464-0.483l2.158,3.123h1.76l2.499-1.619l1.136-3.123
		l5.111-6.616l8.476-4.387l15.163-1.619l10.691-1.959l14.907-5.282l11.983-4.217L195,124.173L191.01,117.202z"/>
</g>
</svg>
