<?xml version="1.0" encoding="utf-8"?>
<!-- Generator: Adobe Illustrator 26.0.3, SVG Export Plug-In . SVG Version: 6.00 Build 0)  -->
<svg version="1.1" xmlns="http://www.w3.org/2000/svg" xmlns:xlink="http://www.w3.org/1999/xlink" x="0px" y="0px"
	 viewBox="0 0 200 200" enable-background="new 0 0 200 200" xml:space="preserve">
<g id="Layer_1">
	<g id="Layer_1_00000075879624959596184900000007102216081240906125_">
		<g id="Layer_1_00000107551159852787612550000017757744099325915571_">
			<g id="Layer_1_00000128480095285341338950000008464522443776971395_">
			</g>
		</g>
	</g>
</g>
<g id="Isolation_Mode">
	<path fill="#1E8346" d="M193.141,20.138c-0.204-0.167-0.302-0.227-0.185-0.484c0.102-0.225,0.198-0.463,0.155-0.713
		c-0.068-0.392-0.336-0.674-0.608-0.934c-0.081-0.078-0.117-0.401-0.17-0.515c-0.084-0.18-0.143-0.352-0.183-0.55
		c-0.076-0.371,0.038-0.516,0.266-0.795c0.213-0.261,0.368-0.578,0.292-0.928c-0.109-0.502-0.808-0.792-1.18-1.076
		c-0.285-0.217-0.305-0.281-0.373-0.611c-0.023-0.113-0.082-0.277-0.201-0.324c-0.162-0.065-0.18,0.051-0.287,0.178
		c-0.094,0.112-0.141,0.187-0.295,0.199c-0.241,0.02-0.328-0.229-0.517-0.304c-0.231-0.093-0.739,0.102-0.884-0.11
		c-0.184-0.269,0.254-0.577,0.243-0.841c-0.011-0.273-0.346-0.434-0.569-0.255c-0.08,0.064-0.158,0.321-0.206,0.416
		c-0.082,0.165-0.165,0.327-0.27,0.477c-0.32,0.453-0.749,0.787-1.144,1.172c-0.264,0.257-0.468,0.558-0.716,0.826
		c-0.217,0.234-0.416,0.59-0.68,0.775c-0.195,0.136-0.482,0.214-0.694,0.332c-0.15,0.084-0.293,0.153-0.432,0.258
		c-0.112,0.086-0.202,0.222-0.317,0.296c-0.213,0.137-0.546,0.134-0.795,0.184c-0.372,0.075-0.749,0.168-1.082,0.358
		c-0.277,0.158-0.516,0.284-0.818,0.378c-0.244,0.076-0.479,0.176-0.723,0.25c-0.21,0.063-0.509,0.055-0.7,0.151
		c-0.249,0-0.485-0.055-0.725,0.005c-0.232,0.058-0.422,0.201-0.637,0.3c-0.61,0.281-1.304,0.375-1.956,0.508
		c-0.957,0.196-1.968,0.085-2.94,0.174c-0.313,0.029-0.702,0.004-0.99,0.132c-0.369,0.163-0.728,0.398-1.091,0.58
		c-0.41,0.205-0.858,0.428-1.303,0.542c-0.395,0.101-0.826,0.056-1.23,0.056h-6.984c0.022,0.188-0.308,0.415-0.464,0.458
		c-0.458,0.126-0.747-0.322-1.079-0.535c-0.456-0.291-0.733-0.513-1.304-0.511c-0.541,0.002-1.033-0.008-1.555-0.152
		c-0.645-0.178-1.408-0.334-2.054-0.436c-1.011-0.16-2.025-0.29-3.032-0.452c-0.357-0.057-0.834-0.065-1.184,0.037
		c-0.346,0.101-0.274,0.252-0.512,0.472c-0.257,0.238-0.388,0.046-0.575-0.152c-0.283-0.298-0.784-0.268-1.173-0.284
		c-0.398-0.016-0.422,0.41-0.796,0.49c-0.432,0.092-0.898,0.01-1.321,0.154c-0.101,0.163-0.404,0.2-0.565,0.293
		c-0.229,0.133-0.424,0.317-0.641,0.468c-0.309,0.217-0.589,0.568-0.979,0.624c-0.498,0.073-0.875,0.058-1.283,0.393
		c-0.207,0.169-0.391,0.364-0.592,0.537c-0.291,0.248-0.591,0.267-0.954,0.341c-0.556,0.114-1.089,0.264-1.656,0.323
		c-0.454,0.048-1.222,0.021-1.604,0.333c-0.168,0.138-0.299,0.413-0.417,0.6c-0.177,0.28-0.306,0.583-0.479,0.864
		c-0.188,0.306-0.41,0.439-0.744,0.573c-0.435,0.174-0.866,0.338-1.29,0.538c-0.722,0.34-1.422,0.611-2.026,1.137
		c-0.296,0.258-0.579,0.633-0.945,0.795c-0.636,0.283-1.379,0.28-2.054,0.378c-0.376,0.055-0.983,0.08-1.289,0.326
		c-0.3,0.241-0.479,0.604-0.719,0.889c-0.025,0.274-0.588,0.355-0.772,0.399c-0.425,0.101-0.795,0.268-1.195,0.432
		c-0.446,0.182-0.904,0.333-1.335,0.555c-0.175,0.091-0.356,0.207-0.542,0.274c-0.214,0.077-0.456,0.088-0.675,0.153
		c-0.424,0.125-0.747,0.338-1.092,0.593c-0.322,0.238-0.707,0.197-1.093,0.232c-0.776,0.072-1.681-0.046-2.421,0.22
		c-0.252,0.091-0.422,0.3-0.643,0.443c-0.207,0.135-0.454,0.277-0.686,0.362c-0.429,0.158-0.929,0.095-1.376,0.094
		c-0.425-0.001-0.753,0.092-1.148,0.241c-0.45,0.17-0.92,0.403-1.384,0.525c-0.205,0.054-0.431,0.053-0.629,0.107
		c-0.096,0.116-0.502,0.037-0.657,0.057c-0.373,0.048-0.744,0.066-1.115,0.134c-0.934,0.172-1.931,0.062-2.849,0.31
		c-0.293,0.079-0.584,0.147-0.882,0.211c-0.418,0.09-0.811,0.044-1.229,0.086c-0.361,0.036-0.715,0.15-1.078,0.171
		c-0.537,0.031-1.079-0.16-1.594-0.299c-0.537-0.145-1.028-0.363-1.539-0.583c-0.8-0.344-1.671-0.428-2.531-0.428
		c-0.137,0.127-0.562,0.049-0.748,0.057c-0.351,0.015-0.707,0.041-1.057,0.071c-0.882,0.075-1.767,0.14-2.652,0.138
		c-1.279-0.003-2.532,0.011-3.605-0.737c-0.458-0.319-0.898-0.647-1.31-1.026c-0.389-0.358-0.742-0.762-1.147-1.101
		c-0.321-0.269-0.692-0.455-0.835-0.864c-0.057-0.163-0.096-0.401-0.228-0.523c-0.145-0.134-0.395-0.124-0.561-0.239
		c-0.401-0.279-0.619-0.685-1.106-0.86c-0.415-0.149-0.865-0.269-1.247-0.494c-0.092-0.054-0.173-0.089-0.269-0.141
		c-0.253-0.138-0.505-0.214-0.778-0.3c-0.487-0.154-0.926-0.403-1.43-0.493c-0.602-0.108-1.243-0.005-1.83-0.169
		c-0.398-0.112-0.789-0.269-1.183-0.396c-0.315-0.101-0.607-0.281-0.926-0.361c-0.336-0.084-0.48,0.035-0.746,0.226
		c-0.337,0.243-0.703,0.189-1.105,0.192c-0.577,0.004-1.127,0.631-1.612,0.922c-0.316,0.19-0.661,0.28-1.009,0.388
		c-0.303,0.094-0.518,0.274-0.803,0.385c-0.252,0.098-0.724,0.169-0.883,0.404c-0.119,0.176,0,0.455-0.078,0.645
		c-0.089,0.215-0.303,0.186-0.526,0.138c-0.39-0.084-0.415-0.114-0.76,0.115c-0.291,0.193-0.497,0.282-0.848,0.325
		c-0.234,0.029-0.616-0.015-0.718,0.265c-0.151,0.415-0.823,0.612-1.17,0.728c-0.589,0.197-1.176,0.402-1.741,0.656
		c-0.257,0.115-0.427,0.227-0.631,0.397c-0.274,0.228-0.639,0.164-0.987,0.15c-0.478-0.02-0.953-0.026-1.433-0.026
		c-0.107,0-0.274-0.031-0.374,0.008c-0.115,0.045-0.205,0.179-0.35,0.227C63.444,31.85,63.31,31.706,63,31.704
		c-0.373-0.002-0.743,0.374-1.024,0.591c-0.348,0.268-0.667,0.596-1.042,0.824c-0.422,0.256-0.897,0.454-1.348,0.654
		c-0.737,0.328-0.946,0.605-1.168,1.349c-0.117,0.392-0.083,0.505-0.55,0.532c-0.474,0.028-0.813-0.001-1.263-0.156
		c-0.666-0.229-1.361-0.453-2.034-0.658c-0.424-0.129-0.868-0.21-1.301-0.303c-0.238-0.051-0.419-0.137-0.633-0.084
		c-0.035,0.009-0.048,0.096-0.104,0.113c-0.124,0.038-0.301-0.041-0.417-0.076c-0.318-0.097-0.604-0.197-0.944-0.205
		c-0.312-0.007-0.585,0.146-0.884,0.234c-0.34,0.1-0.481,0.195-0.743,0.404c-0.331-0.126-0.531-0.434-0.801-0.644
		c-0.112,0.064-0.185,0.181-0.32,0.207c-0.225,0.044-0.254-0.088-0.454,0.062c-0.28,0.211-0.324,0.574-0.512,0.839
		c-0.175,0.247-0.319,0.22-0.609,0.057c-0.298-0.167-0.29-0.48-0.616-0.583c-0.401-0.127-0.749-0.094-0.829-0.584
		c-0.076-0.462-0.006-0.567,0.318-0.837c0.256-0.213,0.579-0.617,0.569-0.98c-0.018-0.643-1.087-0.112-1.424-0.423
		c-0.258-0.238,0.298-0.675-0.173-0.893c-0.221-0.102-0.441,0.065-0.65-0.011c-0.244-0.088-0.353-0.438-0.64-0.44
		c-0.147,0.145-0.222-0.096-0.323-0.159c-0.332-0.207-0.494-0.062-0.877,0.046c-0.799,0.227-1.557-0.249-2.354-0.358
		c-0.775-0.107-1.155-0.675-1.84-0.979c-0.647-0.287-1.565-0.282-2.271-0.244c-0.146,0.421,0.025,0.783-0.301,1.14
		c-0.314,0.344-0.395,0.803-0.738,1.113c-0.108,0.098-0.39,0.272-0.451,0.404c-0.108,0.232,0.14,0.539,0.25,0.766
		c0.147,0.302,0.282,0.526,0.109,0.834c-0.152,0.27-0.372,0.528-0.54,0.791c-0.188,0.294-0.485,0.314-0.708,0.546
		c-0.191,0.2-0.112,0.684-0.103,0.988c0.023,0.84,0.555,1.469,0.25,2.324c-0.111,0.311-0.158,0.61-0.225,0.933
		C33.21,39.18,33,39.388,32.825,39.69c-0.159,0.274-0.25,0.562-0.307,0.872c-0.076,0.416,0.068,0.369,0.27,0.712
		c0.165,0.28-0.01,0.28-0.058,0.533c-0.051,0.272,0.229,0.355,0.302,0.577c0.035,0.107,0.022,0.308,0.042,0.424
		c0.042,0.242,0.121,0.799,0.332,0.946c0.149,0.104,0.548,0.059,0.737,0.097c-0.001,0.255-0.031,0.332-0.14,0.547
		c-0.168,0.328,0.029,0.262,0.192,0.541c0.148,0.252-0.127,0.163-0.232,0.353c-0.11,0.2,0.106,0.469,0.108,0.681
		c0.27-0.046,0.292-0.234,0.655-0.187c0.141,0.018,0.667,0.006,0.747,0.068c0.362,0.28-0.302,1.214,0.347,1.338
		c0.222,0.042,0.477-0.135,0.627,0.113c0.162,0.27-0.193,0.473-0.204,0.722c-0.008,0.194,0.111,0.245,0.208,0.409
		c0.099,0.167,0.106,0.223,0.096,0.43c-0.018,0.384-0.213,0.366-0.563,0.457c-0.243,0.063-0.316,0.195-0.541,0.148
		c-0.217-0.046-0.34-0.229-0.576-0.232c-0.414-0.006-0.188,0.438-0.226,0.732c-0.158,0.011-0.277-0.127-0.407-0.211
		c-0.253-0.161-0.503-0.274-0.79-0.363c-0.198-0.061-0.328-0.153-0.463-0.029c-0.153,0.142-0.05,0.299-0.325,0.303
		c-0.124-0.182-0.184-0.5-0.386-0.584c-0.214-0.09-0.723,0.026-0.954,0.024c-0.044,0.145-0.038,0.31-0.028,0.46
		c-0.119-0.005-0.234-0.047-0.336-0.108c-0.076,0.282-0.106,0.463-0.37,0.657c-0.26,0.191-0.304,0.19-0.314,0.534
		c-0.13-0.03-0.186-0.168-0.306-0.233c-0.259-0.141-0.59-0.029-0.859-0.171c-0.193-0.102-0.446-0.466-0.672-0.475
		c-0.183-0.007-0.254,0.203-0.433,0.244c0.062,0.212,0.378,0.412,0.294,0.676c-0.103,0.327-0.625,0.227-0.765,0.483
		c-0.043,0.078,0.043,0.454,0.068,0.54c0.065,0.22,0.38,0.439,0.374,0.698c-0.005,0.215-0.236,0.343-0.278,0.557
		c-0.039,0.199,0.018,0.421,0.083,0.604c0.188,0.537,0.22,0.948,0.12,1.507c-0.035,0.194-0.086,0.367-0.057,0.556
		c0.019,0.123,0.136,0.274,0.134,0.38c-0.003,0.216-0.186,0.166-0.286,0.321c-0.107,0.165,0.004,0.379-0.042,0.561
		c-0.081,0.318-0.649,0.75-0.983,0.806c-0.257,0.043-0.387-0.148-0.608-0.324c-0.27-0.216-0.541-0.365-0.908-0.324
		c-0.043,0.353-0.079,0.869,0.111,1.166c0.196,0.305,0.404,0.572-0.065,0.781c-0.392,0.175-0.48-0.212-0.839-0.257
		c-0.424-0.053-1.017,0.271-1.386,0.463c-0.165,0.087-0.409,0.191-0.537,0.331c-0.173,0.19-0.185,0.46-0.264,0.693
		c-0.187,0.551,0.091,1.028,0.009,1.586c-0.044,0.297-0.185,0.573-0.232,0.872c-0.052,0.339-0.004,0.687-0.118,1.013
		c-0.128,0.365-0.397,0.268-0.479-0.092c-0.087-0.38-0.112-0.641-0.32-0.986c-0.245-0.406-0.386-0.598-0.855-0.71
		c-0.467-0.111-0.944-0.133-1.415-0.213c-0.471-0.081-0.953-0.267-1.436-0.248c-0.022-0.289,0.249-0.535,0.361-0.785
		c0.128-0.285,0.12-0.55,0.004-0.844c-0.161-0.409-0.299-0.539-0.74-0.499c-0.356,0.032-0.44,0.322-0.764,0.432
		c-0.098,0.194-0.292,0.206-0.482,0.255c-0.342,0.087-0.371,0.023-0.618-0.116c-0.268-0.151-0.349,0.016-0.57,0.198
		c-0.294,0.243-0.305,0.269-0.303,0.659c0.002,0.611-0.325,1.181-0.908,1.383c-0.413,0.143-1.328,0.009-1.186,0.671
		c0.097,0.452,0.54,0.835,0.65,1.301c0.12,0.51,0.079,1.155,0.101,1.681c0.019,0.466,0.029,1.004-0.339,1.347
		c-0.277,0.257-0.426,0.356-0.614,0.695c-0.186,0.335-0.559,0.239-0.762,0.491c-0.146,0.18-0.019,0.558-0.002,0.764
		c0.027,0.321,0.04,0.774-0.031,1.085c-0.027,0.12-0.117,0.187-0.161,0.285c-0.052,0.116-0.073,0.244-0.112,0.384
		c-0.05,0.177-0.092,0.301-0.277,0.374c-0.167,0.067-0.352-0.035-0.466,0.112c-0.178,0.229,0.057,0.938,0.175,1.156
		c0.156,0.289,0.612,0.461,0.696,0.769c0.081,0.299-0.19,0.563-0.153,0.852c0.051,0.406,0.073,0.441,0.457,0.341
		c0.401-0.104,0.468-0.147,0.793,0.102c0.441,0.337,0.878,0.553,1.276,0.996c0.241,0.268,0.434,0.513,0.733,0.717
		c0.24,0.163,0.574,0.389,0.696,0.644c0.176,0.367,0.178,0.914,0.194,1.326c0.028,0.736-0.123,1.473-0.051,2.207
		c0.047,0.476,0.076,0.954,0.128,1.424c0.049,0.437,0.397,0.609,0.492,0.991c0.092,0.372,0.205,0.683,0.543,0.944
		c-0.002,0.705-0.119,1.081-0.587,1.594c-0.323,0.353-0.583,0.755-0.799,1.188c-0.188,0.379-0.499,0.783-0.537,1.216
		c-0.026,0.299-0.069,1.07,0.102,1.315c-0.037,0.597,0.185,1.163-0.05,1.736c-0.26,0.633-0.44,1.034-0.305,1.738
		c0.082,0.433,0.127,0.829,0.128,1.27c0,0.33-0.098,0.635-0.101,0.956c-0.006,0.485,0.176,0.991,0.393,1.427
		c0.081,0.163,0.183,0.298,0.236,0.475c0.053,0.178-0.027,0.418,0.079,0.569c0.157,0.225,0.206,0.543,0.313,0.797
		c0.103,0.244,0.177,0.416,0.193,0.675c0.031,0.508,0.173,0.892,0.378,1.359c0.359,0.817,0.498,1.715,0.837,2.539
		c0.138,0.336,0.171,0.501,0.537,0.576c0.328,0.068,0.62,0.152,0.931,0.319c0.347,0.185,0.305,0.158,0.633,0.111
		c0.149-0.021,0.374-0.023,0.524,0.001c0.091,0.015,0.192,0.09,0.269,0.091c0.102,0.002,0.207-0.086,0.32-0.091
		c0.089-0.005,0.138,0.047,0.226,0.052c0.215,0.012,0.441,0.03,0.582-0.127c0.274-0.304,0.51-0.247,0.871-0.069
		c0.137,0.068,0.269,0.203,0.415,0.245c0.218,0.063,0.454-0.05,0.65-0.108c0.387-0.115,0.5,0.07,0.883,0.186
		c0.136,0.041,0.246,0.106,0.38,0.051c0.134-0.054,0.157-0.222,0.274-0.278c0.201-0.096,0.422,0.155,0.669,0.175
		c0.3,0.026,0.674,0.045,0.95-0.099c0.507-0.264,0.198-0.846,0.321-1.291c0.094-0.338,0.535-0.696,0.866-0.604
		c0.372,0.104,0.355,0.512,0.456,0.827c0.143,0.445,0.284,0.659,0.655,0.94c0.149,0.113,0.212,0.155,0.423,0.151
		c0.116-0.002,0.329-0.125,0.421-0.101c0.212,0.056,0.207,0.373,0.506,0.376c0.393,0.004,0.695-0.138,0.992-0.37
		c0.06,0.483-0.153,1.044-0.118,1.511c-0.232-0.013-0.522-0.089-0.709-0.238c-0.103-0.082-0.159-0.228-0.269-0.3
		c-0.231-0.15-0.298-0.083-0.375,0.169c-0.069,0.223-0.198,0.511-0.229,0.742c-0.055,0.403,0.251,0.339,0.404,0.591
		c-0.349,0.292-0.611,0.587-1.041,0.802c-0.322,0.161-1.14,0.306-1.293,0.663c-0.12,0.282,0.176,0.443,0.373,0.53
		c0.115,0.051,0.248,0.123,0.375,0.132c0.197,0.013,0.339-0.139,0.519-0.157c0.243-0.023,0.513,0.185,0.801,0.168
		c0.362-0.021,0.829-0.423,1.117-0.087c0.171,0.199,0.182,0.503,0.284,0.733c0.076,0.172,0.165,0.38,0.305,0.508
		c0.228,0.209,0.582,0.148,0.858,0.296c0.193,0.103,0.353,0.246,0.487,0.416c0.175,0.221,0.284,0.337,0.508,0.476
		c0.21,0.129,0.481,0.274,0.558,0.525c0.071,0.228,0.032,0.586-0.072,0.785c-0.125,0.241-0.514,0.441-0.537,0.727
		c-0.029,0.357,0.598,0.801,0.771,1.124c0.098,0.183,0.063,0.447,0.176,0.608c0.109,0.155,0.325,0.173,0.498,0.219
		c0.325,0.085,0.707,0.374,0.383,0.694c-0.178,0.176-0.33,0.089-0.375,0.347c-0.027,0.155,0.051,0.44,0.051,0.608
		c0,0.351-0.15,0.942,0.119,1.184c0.207,0.186,1.087,0.523,0.824,0.842c-0.158,0.191-0.539,0.222-0.729,0.388
		c-0.219,0.191-0.326,0.539-0.439,0.798c-0.145,0.333-0.283,0.888-0.624,1.078c-0.197,0.11-0.343,0.079-0.518,0.241
		c-0.186,0.174-0.349,0.37-0.516,0.571c-0.285,0.342-0.135,0.662-0.217,1.071c-0.037,0.184-0.176,0.66-0.356,0.775
		c-0.095,0.061-0.206,0.003-0.299,0.065c-0.086,0.057-0.165,0.28-0.211,0.373c-0.573,0.019-0.888-0.483-1.435-0.449
		c0.018,0.109,0,0.222-0.101,0.272c-0.109-0.035-0.256-0.025-0.38-0.019c-0.024,0.486-0.05,0.524-0.549,0.557
		c-0.03,0.086,0.015,0.203,0.064,0.274c0.077,0.112,0.166,0.295,0.116,0.443c-0.098,0.288-0.201,0.064-0.419,0.162
		c-0.161,0.072-0.162,0.258-0.28,0.391c-0.15,0.17-0.174,0.122-0.402,0.143c-0.442,0.041-0.668,0.512-0.862,0.889
		c-0.093,0.182-0.161,0.5-0.38,0.576c-0.104,0.036-0.247-0.025-0.353-0.022c-0.006,0.295,0.063,0.431-0.215,0.558
		c-0.186,0.085-0.394,0.057-0.467,0.324c-0.188,0.683,0.997,0.532,1.282,0.732c0.183,0.129,0.277,0.411,0.453,0.519
		c0.171,0.105,0.426,0.008,0.632,0.042c0.289,0.048,0.158,0.033,0.305,0.307c0.119,0.221,0.304,0.194,0.468,0.359
		c0.174,0.175,0.23,0.911,0.021,1.082c-0.196,0.16-0.759,0.017-0.989,0c-0.251-0.019-0.472-0.016-0.7-0.126
		c-0.246-0.119-0.467-0.293-0.707-0.425c-0.353-0.194-0.791-0.318-1.208-0.336c-0.302-0.013-0.389,0.03-0.516,0.304
		c-0.111,0.237-0.278,0.449-0.389,0.679c-0.338,0.018-0.428-0.113-0.653-0.338c-0.222-0.222-0.334-0.471-0.672-0.39
		c-0.207,0.049-0.398,0.164-0.585,0.256c-0.175,0.086-0.101,0.137-0.307,0.078c-0.1-0.028-0.129-0.111-0.233-0.133
		c-0.34-0.069-0.89,0.355-1.215,0.455c-0.4,0.123-0.678,0.239-0.892,0.597c-0.097,0.161-0.19,0.322-0.268,0.483
		c-0.086,0.177-0.329,0.49-0.382,0.666c-0.143,0.474-0.347,0.15-0.596,0.204c-0.236,0.052-0.432,0.494-0.524,0.682
		c-0.056,0.115-0.092,0.27-0.156,0.374c-0.116,0.185-0.185,0.119-0.342,0.221c-0.166,0.108-0.147,0.229-0.177,0.443
		c-0.048,0.341,0.021,0.818-0.182,1.119c-0.252,0.375-0.768,0.189-0.857,0.734c-0.048,0.3,0.091,0.499,0.163,0.77
		c0.093,0.351,0.039,0.382,0.416,0.406c0.653,0.04,1.111,0.114,1.667,0.436c0.422,0.245,1.092,0.609,1.019,1.197
		c-0.046,0.375-0.479,0.585-0.679,0.876c-0.177,0.258-0.209,0.784-0.579,0.535c-0.111-0.074-0.264-0.374-0.392-0.383
		c-0.178-0.013-0.183,0.214-0.32,0.278c-0.09-0.064-0.171-0.143-0.283-0.173c-0.076,0.123-0.018,0.262-0.074,0.391
		c-0.104,0.238-0.262,0.154-0.513,0.189c-0.222,0.031-0.464,0.103-0.374,0.378c0.051,0.156,0.224,0.258,0.275,0.429
		c0.055,0.189,0.053,0.477,0.006,0.667c-0.034,0.14-0.121,0.301-0.204,0.423c-0.129,0.191-0.104,0.113-0.309,0.177
		c-0.169,0.053-0.225,0.102-0.356,0.227c-0.176,0.168-0.403,0.289-0.598,0.45c-0.262,0.216-0.637,0.413-0.862,0.664
		c0.235,0.142,0.453,0.703,0.028,0.773c-0.093,0.223-0.345,0.435-0.509,0.619c-0.551,0.618-0.172,1.429,0.025,2.136
		c0.174,0.627-0.435,1.255,0.406,1.602c0.036,0.449,0.307,0.691,0.483,1.069c0.189,0.406,0.274,0.732,0.287,1.156
		c0.009,0.306,0.02,0.374,0.228,0.615c0.167,0.194,0.198,0.204,0.236,0.444c0.082,0.51-0.129,0.719-0.237,1.127
		c-0.07,0.267,0.111,0.486-0.169,0.668c-0.153,0.099-0.417-0.028-0.566,0.111c-0.234,0.219-0.106,0.942-0.106,1.237
		c0,0.457-0.004,0.915,0,1.372c0.006,0.623,0.306,0.975,0.734,1.397c0.286,0.282,0.806,0.474,0.541,0.976
		c-0.101,0.191-0.401,0.362-0.558,0.515c-0.215,0.21-0.422,0.41-0.599,0.657c-0.519,0.722-0.69,1.768-0.691,2.646
		c-0.001,1.039-0.957,1.265-1.534,1.922c-0.182,0.207-0.512,0.411-0.332,0.7c0.144,0.232,0.65,0.333,0.783,0.624
		c0.295,0.086,0.549,0.325,0.832,0.452c0.342,0.153,0.618-0.156,0.987-0.129c0.144,0.01,0.139-0.008,0.233,0.081
		c0.137,0.129,0.078,0.229,0.255,0.248c0.144,0.015,0.285-0.048,0.444-0.002c0.094,0.027,0.157,0.061,0.259,0.072
		c0.262,0.027,0.502-0.064,0.6,0.199c0.073,0.196,0.018,0.302,0.221,0.413c0.146,0.08,0.346,0.113,0.507,0.166
		c0.093,0.031,0.123-0.003,0.175,0.074c0.043,0.064,0.005,0.264,0.002,0.342c-0.195,0.004-0.436-0.044-0.416,0.23
		c0.014,0.207,0.293,0.361,0.475,0.398c0.253,0.052,0.575,0.023,0.836,0.038c0.232,0.013,0.38,0.046,0.585,0.135
		c0.046,0.277,0.108,0.537,0.135,0.824c0.024,0.241-0.085,0.624-0.01,0.852c0.201,0.125,0.397,0.294,0.572,0.458
		c0.196,0.184,0.31,0.378,0.429,0.616c0.09,0.181,0.195,0.365,0.264,0.555c0.047,0.131,0.032,0.354,0.111,0.467l0.063,0.987
		l0.987-0.455h1.075l0.367,0.468l0.936-0.658l1.05,1.038l1.973,1.404l2.353,2.593l8.321,1.408l0.37,0.465l0.38-0.323l3.201,0.525
		l1.366-1.291l19.861-12.752l14.814-9.52l17.951-11.316l50.476-31.083l9.969-3.061l1.012-1.67l2.935-6.857l2.84-4.175l-0.456-12.069
		l0.304-4.232l1.234-3.994v-3.596l3.264-4.801l-0.405-7.489l-3.087-7.142l0.696-8.191l0.025-1.866l3.226-6.034l11.48-2.154
		l1.916-1.66l13.454-15.048C193.507,20.373,193.246,20.224,193.141,20.138z"/>
</g>
</svg>
