<?xml version="1.0" encoding="utf-8"?>
<!-- Generator: Adobe Illustrator 26.0.3, SVG Export Plug-In . SVG Version: 6.00 Build 0)  -->
<svg version="1.1" id="Isolation_Mode" xmlns="http://www.w3.org/2000/svg" xmlns:xlink="http://www.w3.org/1999/xlink" x="0px"
	 y="0px" viewBox="0 0 200 200" enable-background="new 0 0 200 200" xml:space="preserve">
<g>
	<path fill="#1E8346" d="M173.294,165.58c-0.154-0.392,0.533-1.25,1.036-1.141c0.279,0.06,0.41,0.399,0.615,0.931
		c0.239,0.621,0.416,1.079,0.176,1.457c-0.247,0.39-0.858,0.576-1.089,0.386c-0.269-0.221,0.129-0.834-0.228-1.264
		C173.601,165.706,173.371,165.777,173.294,165.58z"/>
	<path fill="#1E8346" d="M175.647,162.367c-0.119-0.159,0.22-0.626,0.509-0.895c0.433-0.404,1.101-0.693,1.247-0.527
		c0.141,0.161-0.194,0.761-0.65,1.106C176.352,162.354,175.768,162.529,175.647,162.367z"/>
	<path fill="#1E8346" d="M188.885,173.534c0.051-0.253,0.173-0.851,0.632-1.001c0.271-0.088,0.618-0.008,0.65,0.123
		c0.037,0.154-0.395,0.241-0.86,0.773c-0.23,0.263-0.353,0.503-0.421,0.474C188.816,173.874,188.872,173.598,188.885,173.534z"/>
	<path fill="#1E8346" d="M189.623,174.64c-0.005-0.062-0.034-0.391,0.123-0.474c0.223-0.119,0.529,0.416,1.176,0.457
		c0.213,0.013,0.305-0.037,0.369,0.035c0.165,0.187-0.107,0.922-0.562,1.036C190.242,175.815,189.671,175.194,189.623,174.64z"/>
	<path fill="#1E8346" d="M196.751,173.183c-0.2-0.009-0.402,0.65-0.404,1.159c-0.001,0.157-0.002,0.604,0.211,0.685
		c0.13,0.05,0.298-0.053,0.386-0.141C197.398,174.44,197.023,173.194,196.751,173.183z"/>
	<path fill="#1E8346" d="M195.557,176.729c0.096-0.288,1.281-0.29,1.369-0.017c0.057,0.177-0.302,0.604-0.755,0.562
		C195.8,177.239,195.501,176.899,195.557,176.729z"/>
	<path fill="#1E8346" d="M186.094,161.133c-0.004-0.024,0.002-0.098,0.329-0.25c0.227-0.106,1.569-0.73,2.278-0.066
		c0.132,0.124,0.34,0.384,0.263,0.54c-0.082,0.168-0.434,0.094-1.791-0.026C186.473,161.268,186.11,161.248,186.094,161.133z"/>
	<path fill="#1E8346" d="M192.441,152.578c-0.056-0.211-0.041-0.537,0.193-0.729c0.297-0.244,0.792-0.143,0.904,0.07
		c0.079,0.15-0.08,0.262-0.167,0.764c-0.059,0.342-0.012,0.447-0.097,0.5C193.095,153.299,192.56,153.025,192.441,152.578z"/>
	<path fill="#1E8346" d="M193.766,143.211c-0.031-0.397,0.867-0.793,1.036-0.632c0.055,0.053,0.008,0.234-0.088,0.597
		c-0.075,0.286-0.114,0.43-0.193,0.474C194.297,143.776,193.789,143.498,193.766,143.211z"/>
	<path fill="#1E8346" d="M179.457,132.307c0.018-0.454,1.193-0.957,2.265-0.79c0.131,0.02,1.45,0.242,1.686,1.089
		c0.325,1.168-1.667,2.617-2.212,2.318c-0.264-0.145-0.009-0.599-0.351-1.264C180.375,132.746,179.441,132.716,179.457,132.307z"/>
	<path fill="#1E8346" d="M119.707,175.412c-0.274-0.179-0.377-0.7-0.193-0.966c0.187-0.27,0.599-0.175,0.667-0.386
		c0.084-0.256-0.487-0.512-0.421-0.755c0.07-0.26,0.856-0.464,1.369-0.105c0.365,0.255,0.501,0.731,0.439,1.106
		C121.423,175.174,120.181,175.722,119.707,175.412z"/>
	<path fill="#1E8346" d="M124.166,149.426c0.017-0.28,0.428-0.39,1.65-0.913c1.54-0.659,1.933-0.93,2.265-0.702
		c0.247,0.17,0.395,0.571,0.281,0.86c-0.279,0.704-1.987,0.408-2.125,0.966c-0.049,0.2,0.163,0.267,0.351,0.737
		c0.18,0.449,0.368,1.341-0.088,1.721c-0.28,0.234-0.801,0.272-1.053,0.035c-0.331-0.311,0.095-0.819-0.176-1.493
		C124.967,149.877,124.142,149.827,124.166,149.426z"/>
	<path fill="#1E8346" d="M148.66,152.095c-0.258-0.006-0.706,0.582-0.457,1.089c0.203,0.413,0.761,0.549,0.948,0.386
		C149.449,153.311,149.024,152.104,148.66,152.095z"/>
	<path fill="#1E8346" d="M135.816,166.677c0.151,0.066,0.449-0.15,0.579-0.421c0.209-0.435-0.145-0.745,0-1.185
		c0.161-0.489,0.845-0.85,1.132-0.685c0.445,0.256-0.166,1.705,0.263,1.923c0.261,0.133,0.722-0.285,0.843-0.395
		c0.167-0.151,0.564-0.512,0.527-0.948c-0.053-0.617-0.938-0.93-1.211-1.027c-0.311-0.11-1.141-0.404-1.686,0.026
		c-0.319,0.252-0.379,0.677-0.5,1.528C135.696,165.963,135.608,166.586,135.816,166.677z"/>
	<path fill="#1E8346" d="M29.836,145.423c0.164-0.196,0.57,0.01,0.79-0.237c0.146-0.164,0.063-0.36,0.158-0.395
		c0.156-0.057,0.553,0.409,0.737,0.975c0.157,0.482,0.009,0.573,0.105,1.106c0.173,0.959,0.755,1.247,0.579,1.659
		c-0.124,0.292-0.56,0.482-0.816,0.369c-0.347-0.153-0.076-0.733-0.501-1.475c-0.291-0.509-0.569-0.5-0.895-1.159
		C29.885,146.048,29.672,145.618,29.836,145.423z"/>
	<path fill="#1E8346" d="M50.695,140.63c-0.05-0.189-0.026-0.342,0-0.5c0.09-0.548,0.47-1.347,0.948-1.343
		c0.423,0.003,0.783,0.633,0.843,0.737c0.16,0.28,0.19,0.505,0.263,0.5c0.151-0.01,0.118-0.959,0.263-0.975
		c0.126-0.013,0.478,0.664,0.263,1.211c-0.066,0.168-0.352,0.413-0.922,0.895c-0.317,0.268-0.368,0.297-0.448,0.316
		C51.448,141.579,50.834,141.163,50.695,140.63z"/>
	<path fill="#1E8346" d="M44.611,172.814c-0.031-0.167,0.009-0.397,0.158-0.544c0.355-0.35,0.966,0.124,1.826-0.035
		c0.224-0.041,0.381-0.11,1.229-0.667c1.318-0.866,1.339-1.275,1.914-1.317c0.426-0.031,0.454,0.187,1.598,0.351
		c0.503,0.072,0.703,0.06,0.895-0.035c0.264-0.13,0.431-0.375,0.65-0.931c0.369-0.938,0.304-1.281,0.509-1.809
		c0.366-0.942,1.195-1.443,1.334-1.528c1.302-0.787,2.437-0.082,3.143-0.948c0.206-0.253,0.349-0.607,0.65-0.623
		c0.35-0.019,0.548,0.44,0.777,0.369c0.255-0.079,0.073-0.668,0.421-0.988c0.374-0.343,1.208-0.238,1.607,0.171
		c0.221,0.227,0.133,0.368,0.342,0.527c0.34,0.258,0.686-0.028,1.449,0.053c0.131,0.014,0.98,0.104,1.093,0.5
		c0.073,0.256-0.205,0.484-0.092,0.632c0.093,0.123,0.371,0.082,0.553,0.013c0.409-0.155,0.414-0.486,0.672-0.593
		c0.601-0.248,1.859,1.023,1.659,1.435c-0.095,0.196-0.457,0.072-0.658,0.369c-0.183,0.27-0.002,0.548-0.198,0.724
		c-0.17,0.153-0.359-0.009-0.579,0.119c-0.369,0.214-0.178,0.862-0.435,0.974c-0.326,0.143-0.949-0.766-1.146-0.645
		c-0.146,0.09,0.156,0.614-0.039,0.803c-0.233,0.227-0.808-0.383-1.475-0.224c-0.66,0.157-0.802,0.923-1.146,0.856
		c-0.414-0.081-0.262-1.202-0.895-1.488c-0.419-0.189-0.804,0.158-1.027-0.066c-0.276-0.277,0.213-0.907-0.079-1.225
		c-0.208-0.227-0.727-0.199-0.922,0.026c-0.123,0.143-0.035,0.27-0.145,0.461c-0.163,0.283-0.485,0.229-0.856,0.408
		c-0.586,0.283-0.43,0.732-1.014,1.106c-0.382,0.245-0.779,0.265-1.251,0.29c-0.884,0.046-1.181-0.227-1.475,0
		c-0.309,0.239-0.323,0.805-0.224,1.185c0.207,0.792,0.915,0.799,1.119,1.554c0.135,0.499-0.013,1.091-0.382,1.449
		c-0.44,0.427-1.182,0.507-1.33,0.29c-0.136-0.2,0.3-0.543,0.145-0.935c-0.086-0.217-0.334-0.404-0.553-0.382
		c-0.332,0.034-0.334,0.526-0.803,1.027c-0.527,0.562-1.221,0.688-1.422,0.724c-0.328,0.06-0.965,0.175-1.449-0.171
		c-0.275-0.197-0.249-0.364-0.514-0.487c-0.348-0.163-0.58,0.038-1.185,0.119c-0.102,0.014-0.952,0.117-1.778-0.277
		C45.017,173.307,44.672,173.136,44.611,172.814z"/>
	<path fill="#1E8346" d="M53.934,169.983c-0.256,0.209-0.102,1.074,0.329,1.172c0.321,0.073,0.76-0.287,0.751-0.619
		C55.001,170.091,54.188,169.775,53.934,169.983z"/>
	<path fill="#1E8346" d="M66.348,162.419c0.27-0.088,0.24-0.231,0.492-0.351c0.16-0.076,0.388-0.066,0.843-0.044
		c0.202,0.01,0.282,0.025,0.307,0.079c0.045,0.098-0.149,0.192-0.202,0.421c-0.067,0.291,0.175,0.44,0.088,0.597
		c-0.111,0.2-0.545,0.034-0.729,0.29c-0.094,0.131-0.03,0.245-0.105,0.281c-0.086,0.041-0.203-0.094-0.825-0.799
		c-0.137-0.155-0.251-0.284-0.211-0.369C66.041,162.45,66.165,162.479,66.348,162.419z"/>
	<path fill="#1E8346" d="M17.115,126.487c-0.214-0.848,0.335-1.103,0.105-1.791c-0.389-1.166-2.231-1.225-2.291-2.186
		c-0.02-0.321,0.174-0.496,0.053-0.895c-0.13-0.429-0.418-0.44-0.527-0.817c-0.114-0.395,0.142-0.589,0.29-1.264
		c0.159-0.727-0.079-0.777,0.053-1.317c0.2-0.821,0.971-1.62,1.817-1.738c0.454-0.064,0.493,0.13,0.948,0.053
		c1.04-0.177,1.596-1.317,1.633-1.396c0.374-0.795-0.025-0.995,0.316-1.528c0.406-0.635,1.034-0.449,2.37-1.396
		c0.675-0.478,0.745-0.689,0.711-0.816c-0.051-0.189-0.399-0.086-0.606-0.316c-0.381-0.423,0.322-1.25-0.026-1.765
		c-0.271-0.401-0.868-0.15-1.212-0.553c-0.417-0.488-0.049-1.406,0-1.528c0.414-1.018,1.179-0.915,2.318-2.028
		c0.979-0.958,1.616-2.21,1.817-2.607c0.444-0.874,0.722-1.709,1.106-1.686c0.236,0.015,0.282,0.339,0.527,0.474
		c0.671,0.369,1.436-1.765,3.029-1.975c0.435-0.057,0.642,0.059,1.027-0.132c0.543-0.268,0.557-0.708,1.185-0.974
		c0.269-0.114,0.309-0.052,0.737-0.211c0.464-0.172,0.642-0.33,0.843-0.421c0.969-0.442,2.165,0.781,2.555,0.421
		c0.263-0.243-0.245-0.84,0.079-1.343c0.23-0.358,0.598-0.229,1.317-0.553c1.049-0.473,1.262-1.196,1.659-1.08
		c0.425,0.125,0.211,0.964,0.79,1.475c0.448,0.396,0.913,0.189,2.002,0.237c2.126,0.093,3.209,1.006,3.74,0.448
		c0.296-0.311,0.236-0.883,0.632-1.001c0.198-0.059,0.269,0.067,0.448,0.026c0.511-0.116,0.301-1.228,0.948-1.765
		c0.555-0.46,1.572-0.36,1.817,0.026c0.105,0.165,0.01,0.291,0.132,0.448c0.216,0.278,0.828,0.28,1.29,0.079
		c0.77-0.334,0.795-1.086,1.422-1.159c0.3-0.035,0.325,0.134,0.685,0.105c0.514-0.041,1.075-0.434,1.185-0.922
		c0.114-0.506-0.319-0.839-0.184-1.001c0.199-0.239,1.291,0.3,2.133,0.895c0.941,0.665,1.707,1.207,1.712,2.028
		c0.002,0.435-0.209,0.961-0.579,1.291c-0.295,0.262-0.449,0.184-0.685,0.421c-0.468,0.472-0.611,1.537-0.079,1.923
		c0.282,0.205,0.756,0.22,1.053,0c0.438-0.324,0.257-0.986,0.553-1.106c0.265-0.107,0.444,0.53,1.053,0.737
		c0.694,0.236,1.194-0.314,1.554-0.079c0.396,0.259-0.334,1.133,0.079,1.817c0.313,0.519,0.926,0.401,1.185,1.001
		c0.155,0.358-0.038,0.461,0.079,0.869c0.216,0.755,1.122,1.266,1.896,1.343c0.221,0.022,0.174-0.017,0.948-0.079
		c1.008-0.081,1.512-0.122,1.765-0.026c0.75,0.282,0.496,1.044,1.369,1.844c0.597,0.546,0.858,0.322,2.16,1.027
		c1.108,0.6,1.723,0.934,1.791,1.475c0.099,0.785-1.076,1.015-1.264,2.344c-0.077,0.545,0.077,0.811-0.158,1.343
		c-0.278,0.63-0.714,0.755-0.659,1.027c0.108,0.529,1.802,0.325,2.028,1.001c0.157,0.469-0.524,0.967-0.29,1.343
		c0.174,0.278,0.619,0.121,0.817,0.448c0.174,0.288-0.096,0.535,0.079,0.843c0.202,0.354,0.749,0.355,0.737,0.5
		c-0.008,0.098-0.257,0.065-0.395,0.263c-0.141,0.201,0.012,0.384-0.132,0.579c-0.12,0.163-0.265,0.088-0.395,0.237
		c-0.203,0.232,0.046,0.532-0.105,0.79c-0.202,0.347-0.831,0.119-0.974,0.395c-0.141,0.271,0.428,0.563,0.632,1.317
		c0.2,0.742-0.194,1.045,0.079,1.501c0.258,0.431,0.647,0.22,1.317,0.685c0.819,0.568,0.7,1.205,1.422,1.475
		c0.52,0.194,0.898-0.016,1.001,0.184c0.146,0.286-0.658,0.647-0.816,1.501c-0.132,0.713,0.327,1.009,0.079,1.422
		c-0.259,0.433-0.807,0.183-1.422,0.764c-0.313,0.295-0.261,0.445-0.606,0.711c-0.351,0.271-0.567,0.242-1.027,0.421
		c-1.034,0.403-1.151,1.023-1.659,0.948c-0.215-0.031-0.274-0.154-0.869-0.79c-0.713-0.761-1.069-1.142-1.238-1.159
		c-0.863-0.086-1.23,2.182-2.449,2.265c-0.519,0.035-1.101-0.331-1.133-0.658c-0.031-0.317,0.461-0.505,0.395-0.737
		c-0.069-0.242-0.689-0.351-1.238-0.263c-0.87,0.138-1.048,0.687-1.659,0.632c-0.564-0.05-0.559-0.53-1.08-0.579
		c-0.75-0.071-0.872,0.916-2.107,1.29c-0.47,0.143-0.862,0.124-1.053,0.448c-0.15,0.254-0.014,0.444-0.053,0.711
		c-0.121,0.822-1.672,0.717-2.976,1.791c-1.081,0.889-0.992,1.764-1.817,1.896c-0.623,0.099-0.748-0.387-1.765-0.5
		c-0.649-0.073-0.656,0.119-2.186,0.29c-1.197,0.134-1.034-0.002-1.738,0.132c-0.535,0.101-0.969,0.244-1.554,0.105
		c-0.329-0.078-0.357-0.162-0.606-0.237c-1.226-0.369-2.201,1.187-3.24,0.817c-0.438-0.156-0.426-0.492-0.974-0.606
		c-0.54-0.113-0.709,0.18-1.159,0.053c-0.592-0.168-0.519-0.738-1.133-0.975c-0.508-0.196-0.77,0.113-1.396,0
		c-0.551-0.099-0.593-0.444-1.238-0.764c-0.531-0.263-0.974-0.295-1.369-0.342c-1.563-0.188-1.59-0.527-3.477-0.843
		c-2.128-0.356-2.598-0.009-3.661-0.632c-0.566-0.331-0.662-0.564-1.212-0.711c-1.019-0.272-1.532,0.302-2.423,0.053
		c-0.733-0.205-0.606-0.656-1.449-1.185c-1.337-0.84-2.173-0.032-3.635-0.843C18.371,128.048,17.368,127.492,17.115,126.487z"/>
	<path fill="#1E8346" d="M10.214,111.053c-0.17,0.304,0.144,0.744,0.158,0.764c0.423,0.58,1.46,0.7,1.712,0.342
		c0.191-0.27-0.042-0.846-0.421-1.133C11.192,110.67,10.413,110.699,10.214,111.053z"/>
	<path fill="#1E8346" d="M51.774,92.17c0.062-0.322,1.004-0.553,1.238-0.237c0.159,0.215,0.023,0.728-0.316,0.869
		C52.256,92.985,51.722,92.442,51.774,92.17z"/>
	<path fill="#1E8346" d="M54.909,90.405c0.097-0.142,0.673-0.052,0.948,0.316c0.208,0.278,0.167,0.613,0.158,0.685
		c-0.018,0.142-0.039,0.312-0.132,0.342c-0.163,0.054-0.428-0.354-0.711-0.79C54.964,90.638,54.86,90.476,54.909,90.405z"/>
	<path fill="#1E8346" d="M0.066,84.795c-0.16-0.249,0.73-1.276,1.053-1.141c0.173,0.072,0.204,0.482,0.07,0.764
		C0.947,84.928,0.18,84.974,0.066,84.795z"/>
	<path fill="#1E8346" d="M8.509,90.412c0.063-0.065,0.193-0.156,0.283-0.119c0.102,0.042,0.063,0.209,0.145,0.25
		c0.17,0.086,0.483-0.554,0.909-0.546c0.255,0.005,0.433,0.239,0.461,0.277c0.294,0.388,0.169,1.094-0.178,1.416
		c-0.125,0.116-0.254,0.158-0.316,0.329c-0.076,0.21,0.038,0.365-0.066,0.474c-0.078,0.083-0.241,0.099-0.349,0.039
		c-0.223-0.123-0.127-0.523-0.257-0.566c-0.203-0.068-0.613,0.841-0.751,0.79c-0.091-0.034,0.087-0.436,0.079-1.093
		C8.462,91.014,8.279,90.648,8.509,90.412z"/>
	<path fill="#1E8346" d="M9.609,92.854c-0.266,0.051-0.55,0.731-0.237,1.04c0.24,0.237,0.741,0.167,0.876-0.059
		C10.441,93.51,9.912,92.796,9.609,92.854z"/>
	<path fill="#1E8346" d="M12.409,85.48c0.125,0.239,1.102,0.179,1.334-0.281c0.109-0.217-0.043-0.332,0-0.615
		c0.082-0.54,0.717-0.637,1.563-1.352c0.095-0.081,1.2-1.026,1.001-1.422c-0.067-0.133-0.282-0.204-0.439-0.158
		c-0.361,0.107-0.36,0.819-0.562,0.825c-0.151,0.005-0.157-0.395-0.404-0.492c-0.327-0.127-0.934,0.332-1.194,0.895
		c-0.225,0.489-0.028,0.709-0.316,1.036c-0.18,0.204-0.373,0.25-0.579,0.579c-0.049,0.077-0.091,0.169-0.176,0.351
		C12.462,85.225,12.375,85.414,12.409,85.48z"/>
	<path fill="#1E8346" d="M16.922,79.054c0.018-0.602,0.588-1.093,1.124-1.194c0.167-0.031,0.452-0.047,0.492,0.053
		c0.054,0.135-0.412,0.298-0.79,0.808c-0.396,0.534-0.38,1.021-0.544,1.018C17.062,79.736,16.912,79.377,16.922,79.054z"/>
	<path fill="#1E8346" d="M17.852,77.456c0.139,0.089,0.369,0.079,0.492-0.035c0.172-0.16,0.03-0.423-0.035-1.229
		c-0.039-0.49-0.012-0.701-0.088-0.72c-0.108-0.026-0.303,0.364-0.404,0.667C17.783,76.243,17.469,77.213,17.852,77.456z"/>
	<path fill="#1E8346" d="M20.345,74.629c-0.138-0.411,0.082-0.846,0.351-1.036c0.195-0.138,0.283-0.053,0.457-0.193
		c0.277-0.224,0.148-0.52,0.386-0.913c0.138-0.228,0.459-0.589,0.773-0.527c0.307,0.061,0.484,0.505,0.474,0.843
		c-0.009,0.293-0.16,0.504-0.281,0.667c-0.348,0.472-0.624,0.384-0.913,0.773c-0.348,0.467-0.166,0.883-0.421,0.983
		C20.919,75.325,20.478,75.026,20.345,74.629z"/>
	<path fill="#1E8346" d="M23.646,70.679c-0.065-0.236,0.197-0.505,0.404-0.632c0.227-0.139,0.412-0.125,0.579-0.158
		c0.495-0.099,0.71-0.597,1.071-1.124c0.649-0.947,0.82-0.607,2.037-2.002c0.457-0.523,0.773-0.962,1.001-0.878
		c0.12,0.044,0.188,0.225,0.176,0.369c-0.021,0.251-0.279,0.354-0.843,0.755c-0.809,0.576-0.875,0.789-0.895,0.878
		c-0.067,0.294,0.102,0.422,0,0.685c-0.111,0.284-0.394,0.354-0.667,0.509c-0.883,0.501-0.619,1.292-1.492,1.756
		c-0.119,0.063-0.608,0.306-1.053,0.123C23.891,70.93,23.693,70.849,23.646,70.679z"/>
	<path fill="#1E8346" d="M170.362,122.422c0.103-0.311,0.406-0.629,0.632-0.579c0.244,0.054,0.173,0.486,0.597,0.913
		c0.276,0.279,0.486,0.276,0.492,0.421c0.01,0.259-0.635,0.694-1.176,0.492C170.425,123.489,170.211,122.875,170.362,122.422z"/>
	<path fill="#1E8346" d="M180.106,108.27c-0.114,0.12-0.002,0.395,0.088,0.615c0.047,0.115,0.391,0.955,0.895,0.913
		c0.196-0.016,0.393-0.164,0.457-0.351c0.109-0.322-0.214-0.651-0.334-0.773C180.86,108.316,180.273,108.095,180.106,108.27z"/>
	<path fill="#1E8346" d="M158.94,112.186c0.027-0.2,0.231-0.318,0.5-0.474c0.074-0.043,1.376-0.779,1.896-0.237
		c0.27,0.281,0.279,0.853,0.053,1.054c-0.148,0.131-0.322,0.037-0.553,0.211c-0.214,0.16-0.177,0.326-0.316,0.421
		C160.121,113.436,158.868,112.721,158.94,112.186z"/>
	<path fill="#1E8346" d="M165.972,98.662c0.168-0.414,1.26-0.476,1.475-0.079c0.17,0.315-0.144,1.045-0.672,1.08
		C166.241,99.697,165.837,98.994,165.972,98.662z"/>
	<path fill="#1E8346" d="M150.749,89.931c0.006-0.179,0.669-0.471,0.948-0.184c0.121,0.124,0.178,0.364,0.079,0.474
		C151.577,90.442,150.742,90.135,150.749,89.931z"/>
	<path fill="#1E8346" d="M166.973,90.221c-0.288,0.139-0.225,0.91-0.026,0.974c0.186,0.061,0.681-0.437,0.527-0.764
		C167.391,90.257,167.13,90.145,166.973,90.221z"/>
	<path fill="#1E8346" d="M178.561,94.54c-0.261-0.02-0.675,1.091-0.474,1.238c0.125,0.091,0.575-0.122,0.685-0.527
		C178.86,94.926,178.708,94.551,178.561,94.54z"/>
	<path fill="#1E8346" d="M172.425,85.928c0.074-0.079,0.548,0.517,1.449,0.816c0.816,0.271,1.059-0.008,1.659,0.29
		c0.529,0.263,0.977,0.797,1.133,1.422c0.196,0.789-0.081,1.697-0.632,2.186c-0.421,0.374-0.869,0.383-1.027,0.843
		c-0.108,0.315,0.042,0.485-0.132,0.764c-0.192,0.309-0.472,0.254-0.632,0.553c-0.113,0.211-0.127,0.524,0,0.737
		c0.327,0.549,1.472,0.255,1.528,0.5c0.039,0.174-0.477,0.571-1.001,0.527c-0.652-0.055-1.134-0.777-1.291-1.37
		c-0.268-1.014,0.304-2.066,0.685-2.765c0.472-0.868,0.867-1.153,0.79-1.738c-0.071-0.543-0.496-0.95-0.632-1.08
		c-0.453-0.433-0.752-0.358-1.291-0.843C172.64,86.419,172.364,85.991,172.425,85.928z"/>
	<path fill="#1E8346" d="M160.915,78.369c-0.161,0.196,0.18,0.693,0.211,0.737c0.303,0.434,0.915,0.782,1.211,0.579
		c0.177-0.121,0.213-0.42,0.158-0.632C162.323,78.387,161.137,78.098,160.915,78.369z"/>
	<path fill="#1E8346" d="M127.608,78.457c-0.111-0.295,0.119-0.487,0.018-0.755c-0.11-0.29-0.45-0.248-0.632-0.492
		c-0.288-0.386,0.092-1.128,0.246-1.422c0.76-1.448,1.661-1.385,2.23-2.634c0.337-0.74,0.068-0.867,0.457-1.457
		c0.443-0.673,0.964-0.769,1.317-1.563c0.17-0.383,0.081-0.433,0.246-0.825c0.286-0.68,0.754-1.004,1.264-1.44
		c1.253-1.07,1.12-1.412,2.493-2.511c0.889-0.711,1.157-0.738,1.352-0.702c0.725,0.131,1.305,1.279,1.036,1.931
		c-0.132,0.32-0.393,0.337-0.404,0.597c-0.016,0.365,0.493,0.488,1.071,1.211c0.119,0.149,0.609,0.764,0.439,1.018
		c-0.113,0.168-0.412,0.027-0.579,0.228c-0.184,0.221,0.075,0.514-0.07,0.808c-0.171,0.344-0.636,0.157-0.966,0.474
		c-0.477,0.459,0.088,1.247-0.369,1.773c-0.315,0.363-0.701,0.122-1.334,0.474c-0.599,0.333-0.511,0.692-1.106,1.352
		c-1.036,1.15-2.094,0.943-2.353,1.826c-0.147,0.5,0.126,0.789-0.14,1.141c-0.243,0.321-0.588,0.235-1.264,0.404
		c-1.419,0.353-1.915,1.23-2.546,0.948C127.958,78.819,127.701,78.704,127.608,78.457z"/>
	<path fill="#1E8346" d="M99.48,120.965c-0.431,0.699-0.146,1.491-0.07,1.703c0.261,0.729,0.661,0.718,1.422,1.65
		c0.735,0.9,1.182,1.911,1.37,2.388c0.394,0.998,0.378,1.486,0.72,1.58c0.415,0.114,1.081-0.429,1.282-1.071
		c0.214-0.682-0.245-1.003-0.386-2.441c-0.08-0.817,0.068-0.718-0.035-1.264c-0.187-0.993-0.741-1.665-1.352-2.405
		c-0.435-0.527-0.658-0.792-0.983-0.895C100.778,119.998,99.89,120.299,99.48,120.965z"/>
	<path fill="#1E8346" d="M77.585,111.29c-0.16,0.085-0.089,0.955,0.448,1.185c0.154,0.066,0.427,0.114,0.5,0
		C78.701,112.216,77.792,111.18,77.585,111.29z"/>
	<path fill="#1E8346" d="M95.046,112.66c-0.225,0.178-0.204,0.609-0.026,0.737c0.249,0.18,0.866-0.19,0.843-0.448
		C95.842,112.726,95.326,112.439,95.046,112.66z"/>
	<path fill="#1E8346" d="M88.172,105.022c0.061-0.188,0.491-0.297,0.79-0.158c0.247,0.115,0.353,0.429,0.553,1.053
		c0.147,0.457,0.273,0.849,0.184,0.895c-0.096,0.05-0.307-0.375-0.975-1.08C88.326,105.311,88.124,105.171,88.172,105.022z"/>
	<path fill="#1E8346" d="M77.927,107.234c0.284-0.663,0.927-0.959,1.133-1.053c0.333-0.153,0.819-0.377,1.291-0.211
		c0.713,0.252,0.441,1.062,1.422,2.476c0.116,0.167,0.305,0.423,0.29,0.764c-0.008,0.18-0.077,0.459-0.5,0.869
		c-0.391,0.379-1.299,1.259-2.186,0.975c-0.647-0.208-0.902-0.913-1.238-1.844C77.872,108.474,77.654,107.871,77.927,107.234z"/>
	<path fill="#1E8346" d="M86.434,97.99c-0.02-0.348,0.68-0.81,1.053-0.579c0.212,0.13,0.337,0.494,0.184,0.764
		c-0.163,0.288-0.543,0.297-0.764,0.237C86.714,98.359,86.446,98.198,86.434,97.99z"/>
	<path fill="#1E8346" d="M104.317,90.51c0.282-0.379,0.964-0.469,1.001-0.474c0.397-0.049,0.502,0.089,0.816,0
		c0.541-0.154,0.672-0.688,0.869-0.632c0.216,0.061,0.023,0.691,0.316,1.554c0.225,0.662,0.474,0.688,0.474,1.106
		c0,0.502-0.358,0.574-0.711,1.369c-0.36,0.81-0.133,1.061-0.474,1.449c-0.426,0.484-1.311,0.695-1.712,0.369
		c-0.399-0.325,0.025-0.903-0.132-2.212C104.595,91.615,103.94,91.017,104.317,90.51z"/>
	<path fill="#1E8346" d="M106.266,114.135c-0.265,0.088-0.439,0.328-0.474,0.553c-0.085,0.542,0.618,1.131,1.001,1.001
		c0.38-0.13,0.578-1.015,0.184-1.396C106.814,114.135,106.531,114.046,106.266,114.135z"/>
	<path fill="#1E8346" d="M132.857,21.604c0.031-0.112,0.646-0.093,1.211,0.07c0.806,0.232,1.752,0.827,1.949,1.685
		c0.048,0.21,0.069,0.511-0.017,0.544c-0.098,0.038-0.254-0.302-0.562-0.65c-0.295-0.333-0.681-0.554-1.44-0.983
		C133.182,21.809,132.834,21.691,132.857,21.604z"/>
	<path fill="#1E8346" d="M139.925,68.953c0.076-0.366,0.61-0.433,0.606-0.711c-0.004-0.266-0.494-0.327-0.5-0.566
		c-0.008-0.292,0.707-0.732,1.317-0.593c0.559,0.128,0.62,0.648,1.119,0.685c0.496,0.036,0.725-0.455,0.974-0.342
		c0.408,0.184,0.211,1.69-0.066,1.725c-0.187,0.024-0.261-0.642-0.671-0.711c-0.297-0.05-0.678,0.228-0.764,0.553
		c-0.098,0.374,0.254,0.585,0.145,0.817c-0.16,0.339-1.164,0.4-1.751-0.092C140.275,69.669,139.85,69.312,139.925,68.953z"/>
	<path fill="#1E8346" d="M144.415,67.439c0.116-0.355,0.516-0.67,0.777-0.579c0.334,0.116,0.306,0.851,0.303,0.909
		c-0.044,0.916-0.847,1.66-1.027,1.567c-0.105-0.054,0.084-0.35,0.026-1.027C144.452,67.816,144.33,67.7,144.415,67.439z"/>
	<path fill="#1E8346" d="M131.453,57.141c-0.358-0.648,0.902-1.888,0.983-1.967c1.034-1.001,2.419-1.383,2.563-1.159
		c0.097,0.15-0.452,0.431-0.527,1.124c-0.047,0.434,0.145,0.539,0.141,1.124c-0.003,0.374-0.006,0.766-0.246,1.054
		c-0.484,0.579-1.592,0.322-2.072,0.211C131.829,57.419,131.574,57.36,131.453,57.141z"/>
	<path fill="#1E8346" d="M126.607,63.392c-0.139-0.341,0.458-0.965,1.089-1.194c0.112-0.04,0.678-0.246,0.843-0.035
		c0.218,0.279-0.249,1.305-1.018,1.475C127.181,63.713,126.707,63.638,126.607,63.392z"/>
	<path fill="#1E8346" d="M109.014,65.464c0.047,0.1,0.428-0.112,0.597,0.035c0.369,0.321-0.852,1.856-0.457,2.318
		c0.347,0.405,1.472-0.553,2.739-0.035c0.351,0.143,0.536,0.327,0.808,0.246c0.453-0.136,0.383-0.784,0.983-1.159
		c0.393-0.246,0.554-0.049,0.878-0.281c0.56-0.401,0.201-1.075,0.667-1.58c0.552-0.597,1.374,0,2.353-0.667
		c0.503-0.343,0.755-0.82,0.878-1.053c0.382-0.724,0.241-1.124,0.421-1.686c0.279-0.87,0.909-0.82,2.493-2.107
		c1.472-1.196,1.494-1.698,2.704-2.283c0.688-0.332,0.72-0.189,1.44-0.562c1.439-0.745,1.985-1.668,2.353-1.475
		c0.251,0.132,0.211,0.674,0.176,1.159c-0.025,0.342-0.062,0.843-0.421,1.159c-0.215,0.188-0.314,0.109-0.492,0.246
		c-0.652,0.503,0.194,1.965-0.457,2.634c-0.364,0.374-0.83,0.122-1.089,0.527c-0.304,0.477,0.257,0.961,0,1.475
		c-0.338,0.676-1.627,0.481-1.721,0.983c-0.039,0.209,0.15,0.425,0.281,0.527c0.59,0.456,1.526-0.25,1.861,0.105
		c0.243,0.258-0.204,0.676,0,1.159c0.29,0.685,1.416,0.369,2.037,1.194c0.373,0.495,0.401,1.185,0.211,1.299
		c-0.241,0.145-0.737-0.693-1.264-0.562c-0.49,0.122-0.412,0.934-0.913,1.124c-0.345,0.13-0.674-0.143-1.826-0.948
		c-1.74-1.216-2.091-1.362-2.493-1.299c-0.57,0.09-0.681,0.512-1.229,0.456c-0.607-0.061-0.814-0.614-1.229-0.527
		c-0.346,0.073-0.368,0.492-0.702,0.878c-0.602,0.694-1.385,0.319-2.388,0.702c-1.669,0.637-1.842,2.568-2.774,2.458
		c-0.598-0.07-0.773-0.895-1.405-0.843c-0.439,0.036-0.438,0.442-0.948,0.632c-0.89,0.332-1.583-0.646-2.458-0.316
		c-0.451,0.17-0.331,0.454-0.773,0.702c-1.025,0.576-2.054-0.741-3.828-0.632c-1.254,0.077-2.144,0.822-2.212,0.702
		c-0.097-0.17,2.045-1.038,2.247-2.599c0.091-0.702-0.245-1.274-0.351-1.44c-0.11-0.171-0.512-0.741-2.388-1.229
		c-1.604-0.417-3.027-0.787-4.003-0.035c-0.431,0.332-0.222,0.457-0.843,1.089c-0.991,1.008-1.701,0.869-2.142,1.685
		c-0.366,0.678,0.017,0.971-0.351,1.44c-0.557,0.709-1.509,0.133-2.599,0.808c-0.803,0.497-1.446,1.528-1.194,2.283
		c0.153,0.458,0.603,0.721,0.632,0.737c0.601,0.341,1.126,0.016,1.299,0.281c0.189,0.289-0.184,1.058-0.702,1.194
		c-0.413,0.108-0.626-0.263-0.983-0.141c-0.519,0.178-0.431,1.081-0.808,1.159c-0.397,0.082-0.574-0.903-1.405-1.159
		c-0.675-0.208-1.104,0.276-1.51-0.035c-0.363-0.278-0.128-0.748-0.527-1.089c-0.322-0.275-0.608-0.083-1.194-0.246
		c-0.944-0.263-1.012-0.988-1.475-0.948c-0.809,0.07-0.846,2.299-2.002,2.563c-0.464,0.106-0.879-0.157-1.054,0.07
		c-0.165,0.215,0.327,0.545,0.246,0.983c-0.112,0.61-1.166,0.774-1.124,1.089c0.035,0.262,0.77,0.204,0.878,0.527
		c0.121,0.364-0.61,1.048-1.369,1.369c-1.002,0.424-2.612,0.454-3.582-0.457c-1.341-1.258-0.246-3.174-1.615-4.319
		c-0.986-0.825-2.538-0.654-2.528-0.948c0.006-0.203,0.741-0.139,1.194-0.702c0.354-0.44,0.4-1.095,0.211-1.615
		c-0.207-0.57-0.756-1.147-1.299-1.124c-0.42,0.018-0.534,0.381-1.124,0.421c-0.385,0.026-0.42-0.123-0.737-0.07
		c-0.53,0.088-0.622,0.535-1.053,0.632c-0.509,0.115-1.019-0.361-1.159-0.492c-0.768-0.717-0.883-1.993-0.527-2.95
		c0.375-1.007,1.319-1.784,1.651-1.615c0.267,0.136,0.017,0.827,0.281,0.948c0.304,0.139,1.017-0.605,1.369-1.405
		c0.112-0.255,0.505-1.146,0.141-1.545c-0.322-0.353-0.972-0.034-1.124-0.316c-0.15-0.278,0.272-0.983,0.737-1.018
		c0.559-0.042,0.729,0.916,1.475,0.983c0.497,0.045,0.64-0.36,1.159-0.281c0.462,0.071,0.501,0.415,1.018,0.702
		c0.585,0.325,1.505,0.422,2.107,0.035c0.639-0.411,0.653-1.196,1.159-1.229c0.254-0.017,0.274,0.18,0.562,0.176
		c0.601-0.009,1.097-0.875,1.299-1.229c0.196-0.342,0.138-0.349,0.246-0.457c0.505-0.504,1.336,0.071,2.002-0.281
		c0.571-0.302,0.297-0.905,0.808-1.651c1-1.462,3.407-1.129,3.512-1.966c0.042-0.341-0.353-0.425-0.351-0.878
		c0.004-0.984,1.879-1.863,2.107-1.615c0.097,0.105-0.146,0.367-0.035,0.492c0.226,0.253,1.303-0.746,2.142-0.386
		c0.294,0.126,0.288,0.303,0.562,0.351c0.498,0.087,0.693-0.467,1.334-0.737c1.021-0.431,1.774,0.45,2.528-0.07
		c0.374-0.258,0.315-0.562,0.737-0.737c0.487-0.202,0.686,0.153,1.229,0.07c0.954-0.146,1.159-1.37,2.107-1.405
		c0.206-0.007,0.162,0.051,0.527,0.07c0.721,0.037,0.973-0.188,1.405-0.07c0.371,0.101,0.355,0.314,0.667,0.457
		c0.823,0.375,2.07-0.591,2.669-1.054c1.127-0.872,1.354-1.489,2.037-1.475c0.589,0.012,0.939,0.483,1.159,0.316
		c0.317-0.24-0.364-1.247,0.07-1.756c0.189-0.222,0.352-0.07,0.913-0.316c0.771-0.338,0.851-0.794,1.405-0.843
		c0.413-0.036,0.444,0.211,0.773,0.175c0.91-0.097,1.151-2.042,1.861-2.037c0.36,0.003,0.578,0.504,0.737,0.421
		c0.236-0.123-0.234-1.237,0-1.369c0.202-0.114,0.577,0.703,1.405,0.948c0.653,0.193,1.442-0.013,1.967-0.421
		c0.912-0.709,0.815-1.861,1.405-1.931c0.349-0.042,0.409,0.359,0.913,0.457c0.886,0.171,1.472-0.921,2.072-0.702
		c0.451,0.164,0.251,0.829,0.702,1.124c0.953,0.622,3.278-1.408,3.582-1.053c0.128,0.149-0.274,0.522-0.105,1.018
		c0.086,0.255,0.321,0.535,0.667,0.597c0.39,0.07,0.78-0.163,0.913-0.457c0.147-0.325-0.102-0.547,0-0.808
		c0.167-0.427,1.03-0.328,1.826-0.457c1.425-0.231,1.443-1.002,3.582-1.931c0.969-0.421,2.128-0.768,2.212-0.597
		c0.083,0.169-1.035,0.538-2.247,1.826c-0.867,0.921-1.143,1.632-1.967,1.826c-0.254,0.06-0.559,0.07-0.878,0.316
		c-0.34,0.263-0.376,0.546-0.737,0.702c-0.289,0.125-0.359-0.016-0.632,0.07c-0.671,0.213-0.605,1.178-1.229,1.37
		c-0.373,0.114-0.564-0.18-0.808-0.035c-0.373,0.222,0.023,0.943-0.176,1.861c-0.258,1.191-1.188,1.19-1.615,2.634
		c-0.204,0.689-0.018,0.778-0.281,1.334c-0.259,0.55-0.563,0.723-1.264,1.58c-0.43,0.526-0.511,0.7-0.737,0.983
		c-0.204,0.255-0.783,0.921-2.915,1.861c-2.201,0.971-2.785,0.792-3.512,1.65c-0.158,0.187-0.616,0.728-0.808,1.545
		c-0.246,1.05,0.213,1.421-0.141,2.002c-0.257,0.422-0.827,0.68-1.967,1.194c-0.295,0.133-0.642,0.274-0.843,0.632
		c-0.167,0.298-0.055,0.428-0.176,0.773C109.803,65.025,108.946,65.32,109.014,65.464z"/>
	<path fill="#1E8346" d="M114.738,42.533c0.119-0.315,0.497-0.519,0.667-0.421c0.289,0.166,0.111,1.283-0.176,1.334
		C115.021,43.483,114.564,42.993,114.738,42.533z"/>
	<path fill="#1E8346" d="M103.044,49.135c-0.048-0.254,0.328-0.563,0.667-0.667c0.378-0.116,0.921-0.041,1.018,0.246
		c0.085,0.252-0.196,0.599-0.492,0.737C103.767,49.672,103.101,49.439,103.044,49.135z"/>
	<path fill="#1E8346" d="M94.019,50.574c0.117-0.32,1.375-0.316,1.51,0.035c0.083,0.214-0.221,0.64-0.632,0.702
		C94.356,51.394,93.936,50.802,94.019,50.574z"/>
	<path fill="#1E8346" d="M79.024,56.966c0.105-0.323,0.943-0.051,1.299-0.527c0.304-0.406-0.048-0.949,0.246-1.159
		c0.204-0.146,0.6-0.047,0.773,0.176c0.307,0.397-0.122,1.163-0.457,1.545c-0.138,0.158-0.709,0.81-1.299,0.632
		C79.255,57.533,78.954,57.182,79.024,56.966z"/>
	<path fill="#1E8346" d="M76.426,58.651c0.044-0.457,0.665-0.794,0.948-0.632c0.174,0.099,0.207,0.379,0.176,0.562
		c-0.071,0.408-0.536,0.758-0.843,0.632C76.509,59.132,76.405,58.866,76.426,58.651z"/>
	<path fill="#1E8346" d="M70.245,59.88c0.027-0.157,0.355-0.218,0.913-0.316c0.788-0.139,1.401-0.247,1.475-0.07
		c0.097,0.231-0.697,1.028-1.51,0.948C70.669,60.397,70.212,60.079,70.245,59.88z"/>
	<path fill="#1E8346" d="M58.095,69.713c-0.009-0.416,1.231-0.943,1.545-0.632c0.205,0.204,0.124,0.874-0.351,1.124
		C58.746,70.49,58.101,70.009,58.095,69.713z"/>
</g>
</svg>
