<?xml version="1.0" encoding="utf-8"?>
<!-- Generator: Adobe Illustrator 26.0.3, SVG Export Plug-In . SVG Version: 6.00 Build 0)  -->
<svg version="1.1" id="Isolation_Mode" xmlns="http://www.w3.org/2000/svg" xmlns:xlink="http://www.w3.org/1999/xlink" x="0px"
	 y="0px" viewBox="0 0 200 200" enable-background="new 0 0 200 200" xml:space="preserve">
<g>
	<g>
		<path fill="#1E8346" d="M7.103,78.386c-0.013-0.452,0.234-0.858,0.573-1.076c0.37-0.239,0.9-0.286,0.989-0.122
			c0.113,0.208-0.598,0.548-0.555,1.093c0.035,0.45,0.549,0.615,0.469,0.885c-0.067,0.224-0.493,0.351-0.816,0.26
			C7.312,79.3,7.114,78.765,7.103,78.386z"/>
		<path fill="#1E8346" d="M7.985,79.955c-0.123,0-0.245-0.016-0.358-0.048C6.948,79.717,6.62,78.993,6.603,78.4
			c-0.017-0.603,0.29-1.182,0.802-1.511c0.383-0.249,0.9-0.359,1.257-0.267c0.254,0.065,0.381,0.213,0.442,0.327
			c0.217,0.401-0.089,0.738-0.253,0.92c-0.105,0.116-0.25,0.276-0.243,0.373c0.004,0.054,0.065,0.123,0.158,0.221
			c0.144,0.154,0.413,0.439,0.292,0.845C8.933,79.728,8.451,79.955,7.985,79.955z M7.608,78.264
			c-0.005,0.036-0.007,0.072-0.005,0.108v0c0.006,0.206,0.102,0.458,0.238,0.546c-0.109-0.15-0.21-0.346-0.23-0.598
			C7.61,78.301,7.609,78.282,7.608,78.264z"/>
	</g>
	<g>
		<path fill="#1E8346" d="M11.325,71.704c-0.22-0.451-0.114-1.069,0.197-1.497c0.515-0.709,1.572-0.875,1.711-0.658
			c0.091,0.142,0.236,1.101-0.205,1.662c-0.385,0.49-0.614,0.087-0.734,0.45c-0.099,0.298-0.442,0.408-0.558,0.439
			C11.608,72.133,11.419,71.897,11.325,71.704z"/>
		<path fill="#1E8346" d="M11.709,72.603c-0.368,0-0.666-0.335-0.833-0.68l0,0c-0.293-0.601-0.196-1.408,0.242-2.01
			c0.47-0.647,1.293-0.979,1.876-0.952c0.385,0.011,0.571,0.179,0.661,0.318c0.209,0.326,0.339,1.513-0.233,2.241
			c-0.25,0.319-0.498,0.419-0.718,0.452c-0.155,0.29-0.451,0.507-0.837,0.611C11.812,72.597,11.76,72.603,11.709,72.603z
			 M12.823,69.971c-0.247,0.042-0.657,0.201-0.896,0.53c-0.215,0.296-0.281,0.719-0.152,0.984l0,0
			c0.007,0.015,0.015,0.029,0.023,0.043c0.013-0.011,0.02-0.02,0.021-0.025c0.165-0.497,0.565-0.513,0.697-0.518
			c0.037-0.005,0.065-0.016,0.118-0.083C12.83,70.654,12.848,70.233,12.823,69.971z"/>
	</g>
	<g>
		<path fill="#1E8346" d="M27.802,80.23c0.164-0.327,0.53-0.494,0.856-0.485c0.519,0.015,1,0.482,0.97,0.97
			c-0.036,0.577-0.776,1.035-1.34,0.799C27.824,81.319,27.571,80.693,27.802,80.23z"/>
		<path fill="#1E8346" d="M28.612,82.077c-0.179,0-0.354-0.034-0.517-0.102c-0.356-0.15-0.642-0.458-0.785-0.844
			c-0.14-0.377-0.124-0.788,0.044-1.125l0-0.001c0.236-0.47,0.771-0.75,1.317-0.761c0.403,0.012,0.798,0.197,1.083,0.509
			c0.262,0.287,0.394,0.639,0.372,0.992c-0.027,0.43-0.287,0.837-0.695,1.091C29.176,81.996,28.891,82.077,28.612,82.077z
			 M28.249,80.454c-0.044,0.091-0.045,0.211-0.001,0.33c0.046,0.125,0.136,0.228,0.234,0.269c0.117,0.049,0.279,0.023,0.422-0.066
			c0.13-0.081,0.219-0.2,0.225-0.304c0.005-0.078-0.037-0.173-0.112-0.255c-0.1-0.11-0.243-0.18-0.373-0.184
			C28.488,80.23,28.32,80.312,28.249,80.454L28.249,80.454z"/>
	</g>
	<g>
		<path fill="#1E8346" d="M22.57,67.702c0.099-0.497,0.729-0.811,1.139-0.633c0.483,0.21,0.624,1.088,0.202,1.443
			c-0.273,0.23-0.755,0.218-1.063-0.051C22.643,68.282,22.513,67.988,22.57,67.702z"/>
		<path fill="#1E8346" d="M23.43,69.176c-0.323,0-0.653-0.114-0.911-0.339c-0.354-0.309-0.527-0.792-0.439-1.232v0
			c0.077-0.385,0.339-0.72,0.719-0.919c0.364-0.19,0.779-0.217,1.109-0.075c0.39,0.17,0.665,0.564,0.737,1.057
			s-0.082,0.951-0.412,1.229C24.009,69.083,23.722,69.176,23.43,69.176z M23.06,67.8c-0.018,0.09,0.031,0.21,0.117,0.284
			c0.133,0.116,0.338,0.107,0.412,0.046c0.05-0.042,0.088-0.165,0.066-0.319c-0.023-0.16-0.101-0.264-0.145-0.283
			c-0.033-0.014-0.132-0.016-0.247,0.043C23.155,67.628,23.077,67.715,23.06,67.8L23.06,67.8z"/>
	</g>
	<g>
		<path fill="#1E8346" d="M29.278,67.836c-0.499-0.088-0.966,0.305-1.089,0.747c-0.166,0.597,0.29,1.314,0.871,1.337
			c0.461,0.019,0.882-0.404,0.964-0.871C30.114,68.544,29.818,67.932,29.278,67.836z"/>
		<path fill="#1E8346" d="M29.088,70.42c-0.016,0-0.032,0-0.048-0.001c-0.406-0.016-0.793-0.236-1.062-0.603
			c-0.295-0.405-0.396-0.916-0.271-1.367c0.179-0.641,0.861-1.251,1.658-1.105h0.001c0.852,0.152,1.283,1.049,1.15,1.792
			C30.39,69.854,29.755,70.42,29.088,70.42z M29.138,68.324c-0.206,0-0.413,0.198-0.468,0.394c-0.043,0.154,0.002,0.354,0.116,0.51
			c0.085,0.117,0.195,0.189,0.293,0.193c0.233-0.014,0.41-0.22,0.452-0.458c0.045-0.252-0.097-0.59-0.34-0.634
			C29.173,68.325,29.156,68.324,29.138,68.324z"/>
	</g>
	<g>
		<path fill="#1E8346" d="M46.467,91.173c0.17-0.568,1.642-0.747,1.926-0.285c0.229,0.372-0.167,1.394-0.892,1.427
			C46.862,92.343,46.344,91.585,46.467,91.173z"/>
		<path fill="#1E8346" d="M47.469,92.815c-0.438,0-0.877-0.229-1.183-0.622c-0.292-0.375-0.404-0.81-0.299-1.164l0-0.001
			c0.138-0.46,0.642-0.791,1.347-0.883c0.691-0.089,1.245,0.09,1.484,0.48c0.208,0.336,0.179,0.862-0.074,1.339
			c-0.27,0.509-0.726,0.826-1.222,0.849C47.505,92.815,47.487,92.815,47.469,92.815z M46.95,91.322
			c0.007,0.062,0.061,0.196,0.179,0.319c0.052,0.054,0.191,0.174,0.35,0.174c0.145-0.006,0.259-0.133,0.314-0.208
			c0.149-0.204,0.176-0.428,0.162-0.483c-0.009,0.011-0.103-0.002-0.246-0.001c-0.088,0-0.194,0.005-0.312,0.025
			C47.146,91.192,46.997,91.277,46.95,91.322z"/>
	</g>
	<g>
		<path fill="#1E8346" d="M53.06,85.497c-0.526,0.186-0.825,0.876-0.564,1.305c0.224,0.37,0.799,0.439,1.199,0.247
			c0.357-0.171,0.684-0.6,0.564-1.023C54.127,85.559,53.516,85.336,53.06,85.497z"/>
		<path fill="#1E8346" d="M53.219,87.653c-0.448,0-0.902-0.181-1.15-0.592c-0.19-0.312-0.221-0.715-0.083-1.104
			c0.155-0.437,0.495-0.785,0.907-0.931l0,0c0.377-0.134,0.824-0.099,1.194,0.092c0.328,0.17,0.56,0.444,0.652,0.772
			c0.197,0.693-0.28,1.347-0.829,1.61C53.704,87.599,53.462,87.653,53.219,87.653z M53.227,85.969
			c-0.127,0.045-0.245,0.172-0.299,0.324c-0.035,0.099-0.037,0.196-0.005,0.249c0.067,0.111,0.348,0.158,0.555,0.057
			c0.173-0.083,0.341-0.291,0.3-0.436c-0.023-0.081-0.104-0.133-0.15-0.157C53.504,85.942,53.344,85.927,53.227,85.969
			L53.227,85.969z"/>
	</g>
	<g>
		<path fill="#1E8346" d="M56.282,86.119c-0.343,0.186-0.387,0.668-0.405,0.86c-0.028,0.311,0.012,0.916,0.32,1.046
			c0.464,0.195,1.561-0.678,1.383-1.332C57.458,86.241,56.724,85.88,56.282,86.119z"/>
		<path fill="#1E8346" d="M56.346,88.553c-0.117,0-0.232-0.021-0.343-0.067c-0.7-0.295-0.643-1.344-0.624-1.551
			c0.022-0.237,0.089-0.943,0.665-1.255l0,0c0.333-0.181,0.761-0.184,1.175-0.005c0.427,0.184,0.743,0.516,0.844,0.888
			c0.132,0.487-0.098,1.048-0.616,1.501C57.151,88.323,56.739,88.553,56.346,88.553z M56.521,86.559L56.521,86.559
			c-0.04,0.022-0.112,0.111-0.146,0.465c-0.018,0.203,0.01,0.407,0.044,0.515c0.134-0.044,0.373-0.191,0.543-0.41
			c0.118-0.151,0.146-0.267,0.135-0.305c-0.014-0.052-0.11-0.161-0.273-0.23C56.69,86.536,56.57,86.531,56.521,86.559z"/>
	</g>
	<g>
		<path fill="#1E8346" d="M57.527,76.645c0.172-0.296,0.702-0.374,1.076-0.215c0.568,0.242,0.633,0.971,0.646,1.112
			c0.063,0.704-0.344,1.482-0.682,1.471c-0.182-0.006-0.363-0.399-0.718-1.184C57.431,76.903,57.469,76.744,57.527,76.645z"/>
		<path fill="#1E8346" d="M58.574,79.513c-0.008,0-0.015,0-0.023,0c-0.497-0.017-0.704-0.475-1.157-1.478
			c-0.425-0.941-0.492-1.31-0.299-1.642l0,0c0.321-0.552,1.139-0.665,1.704-0.423c0.541,0.23,0.877,0.771,0.948,1.523
			c0.055,0.619-0.165,1.321-0.535,1.713C58.975,79.458,58.738,79.513,58.574,79.513z M58.011,76.875
			c0.03,0.109,0.104,0.329,0.294,0.749c0.106,0.235,0.221,0.488,0.316,0.678c0.083-0.185,0.154-0.45,0.13-0.715
			c-0.016-0.172-0.082-0.584-0.344-0.696C58.27,76.832,58.103,76.845,58.011,76.875z"/>
	</g>
	<g>
		<path fill="#1E8346" d="M63.346,72.798c-0.38-0.002-0.693,0.286-0.792,0.594c-0.172,0.535,0.268,1.224,0.792,1.227
			c0.453,0.003,0.895-0.508,0.831-1.029C64.129,73.192,63.788,72.8,63.346,72.798z"/>
		<path fill="#1E8346" d="M63.35,75.119c-0.002,0-0.005,0-0.007,0c-0.39-0.002-0.764-0.21-1.024-0.57
			c-0.287-0.396-0.377-0.886-0.24-1.31c0.15-0.468,0.632-0.941,1.264-0.941c0.002,0,0.004,0,0.006,0
			c0.737,0.003,1.252,0.629,1.325,1.232c0.049,0.399-0.085,0.812-0.369,1.131C64.046,74.953,63.698,75.119,63.35,75.119z
			 M63.342,73.298c-0.139,0-0.273,0.127-0.312,0.247c-0.038,0.117,0.002,0.285,0.098,0.418c0.078,0.108,0.167,0.156,0.221,0.157h0
			c0.05,0,0.133-0.038,0.208-0.122c0.09-0.101,0.137-0.233,0.123-0.346c-0.02-0.167-0.168-0.353-0.337-0.354l0,0
			C63.343,73.298,63.343,73.298,63.342,73.298z"/>
	</g>
	<g>
		<path fill="#1E8346" d="M66.343,84.158c-0.093-0.216,0.072-0.569,0.309-0.646c0.386-0.126,0.887,0.501,0.787,0.731
			C67.336,84.479,66.496,84.513,66.343,84.158z"/>
		<path fill="#1E8346" d="M66.941,84.923c-0.001,0-0.002,0-0.004,0c-0.507-0.001-0.901-0.213-1.054-0.566l0-0.001
			c-0.099-0.229-0.087-0.51,0.031-0.77c0.122-0.269,0.334-0.469,0.584-0.549c0.368-0.119,0.785,0.025,1.116,0.388
			c0.308,0.339,0.414,0.719,0.284,1.018C67.766,84.744,67.409,84.923,66.941,84.923z"/>
	</g>
	<g>
		<path fill="#1E8346" d="M69.172,84.444c0.258,0.016,0.501,0.41,0.471,0.74c-0.055,0.623-1.072,0.902-1.279,0.691
			C68.122,85.628,68.703,84.415,69.172,84.444z"/>
		<path fill="#1E8346" d="M68.599,86.444c-0.207,0-0.427-0.051-0.592-0.219c-0.261-0.267-0.266-0.717-0.013-1.269
			c0.113-0.247,0.526-1.055,1.209-1.011h0c0.23,0.014,0.452,0.134,0.626,0.336c0.222,0.259,0.341,0.622,0.312,0.948
			c-0.043,0.491-0.412,0.907-0.986,1.113C69.059,86.376,68.838,86.444,68.599,86.444z M69.121,85.02
			c-0.073,0.085-0.153,0.216-0.214,0.344c0.047-0.023,0.094-0.051,0.135-0.084c0.029-0.023,0.098-0.083,0.103-0.14
			C69.148,85.104,69.138,85.06,69.121,85.02z"/>
	</g>
	<g>
		<path fill="#1E8346" d="M70.581,85.825c0.146-0.542,0.954-0.755,1.254-0.388c0.331,0.405,0.05,1.529-0.383,1.639
			C71.041,87.181,70.429,86.393,70.581,85.825z"/>
		<path fill="#1E8346" d="M71.375,87.585c-0.271,0-0.553-0.132-0.798-0.38c-0.346-0.35-0.628-0.953-0.479-1.51v0
			c0.121-0.447,0.519-0.805,1.014-0.911c0.444-0.095,0.861,0.03,1.11,0.336c0.342,0.419,0.291,1.094,0.142,1.546
			c-0.161,0.488-0.44,0.805-0.789,0.894C71.51,87.577,71.443,87.585,71.375,87.585z M71.064,85.955
			c-0.048,0.181,0.134,0.478,0.27,0.591c0.122-0.198,0.198-0.663,0.112-0.795c-0.01,0.001-0.103-0.007-0.206,0.037
			C71.168,85.819,71.085,85.878,71.064,85.955z"/>
	</g>
	<g>
		<path fill="#1E8346" d="M72.095,81.065c0.221-0.46,1.152-0.588,1.491-0.199c0.381,0.439-0.048,1.471-0.547,1.54
			C72.538,82.476,71.845,81.587,72.095,81.065z"/>
		<path fill="#1E8346" d="M72.98,82.91c-0.453,0-0.859-0.33-1.1-0.66c-0.343-0.47-0.432-0.994-0.236-1.401l0,0
			c0.177-0.369,0.582-0.629,1.084-0.697c0.499-0.069,0.964,0.075,1.234,0.386c0.296,0.341,0.352,0.868,0.149,1.408
			c-0.156,0.416-0.502,0.886-1.004,0.956C73.065,82.907,73.022,82.91,72.98,82.91z M72.546,81.281
			c-0.009,0.021-0.008,0.125,0.076,0.277c0.119,0.215,0.301,0.344,0.365,0.352c0.028-0.021,0.169-0.193,0.225-0.434
			c0.039-0.167,0.011-0.266-0.003-0.283c-0.025-0.029-0.154-0.076-0.342-0.052C72.675,81.167,72.562,81.25,72.546,81.281z"/>
	</g>
	<g>
		<path fill="#1E8346" d="M74.079,86.456c0.17-0.859,1.531-1.156,1.943-0.786c0.49,0.44-0.008,2.138-0.744,2.233
			C74.737,87.973,73.933,87.193,74.079,86.456z"/>
		<path fill="#1E8346" d="M75.208,88.407c-0.382,0-0.796-0.203-1.13-0.56c-0.405-0.433-0.587-0.989-0.489-1.488l0,0
			c0.11-0.554,0.56-1.013,1.205-1.228c0.463-0.155,1.15-0.204,1.563,0.167c0.45,0.404,0.417,1.172,0.234,1.756
			c-0.24,0.772-0.707,1.275-1.249,1.345C75.297,88.404,75.253,88.407,75.208,88.407z M75.509,86.011c-0.125,0-0.306,0.023-0.5,0.106
			c-0.116,0.05-0.391,0.192-0.438,0.436h0c-0.036,0.182,0.055,0.416,0.238,0.611c0.172,0.184,0.353,0.243,0.406,0.243
			c0.042-0.006,0.2-0.119,0.341-0.436c0.196-0.439,0.186-0.851,0.125-0.939C75.661,86.023,75.599,86.011,75.509,86.011z"/>
	</g>
	<g>
		<path fill="#1E8346" d="M79.208,82.385c-0.511-0.191-0.762-0.932-0.546-1.268c0.326-0.508,1.811-0.241,1.93,0.238
			C80.693,81.76,79.899,82.644,79.208,82.385z"/>
		<path fill="#1E8346" d="M79.467,82.931c-0.148,0-0.295-0.025-0.435-0.078c-0.394-0.147-0.718-0.504-0.868-0.954
			c-0.13-0.391-0.102-0.775,0.077-1.053c0.264-0.413,0.855-0.589,1.581-0.468c0.255,0.042,1.099,0.228,1.254,0.856
			c0.116,0.464-0.218,0.963-0.539,1.25C80.21,82.777,79.832,82.931,79.467,82.931z M79.376,81.34c-0.136,0-0.252,0.02-0.307,0.063
			c-0.016,0.073,0.099,0.433,0.313,0.513h0.001c0.119,0.044,0.261-0.022,0.335-0.065c0.173-0.101,0.3-0.257,0.354-0.359
			C79.921,81.4,79.617,81.34,79.376,81.34z"/>
	</g>
	<g>
		<path fill="#1E8346" d="M90.466,91.682c-0.107-0.519,0.536-1.147,1.252-1.106c0.697,0.039,1.294,0.704,0.993,1.229
			c-0.26,0.452-1.111,0.671-1.684,0.461C90.56,92.095,90.472,91.709,90.466,91.682z"/>
		<path fill="#1E8346" d="M91.519,92.845c-0.235,0-0.464-0.037-0.664-0.109c-0.528-0.193-0.799-0.612-0.875-0.938l-0.003-0.014
			c-0.075-0.363,0.045-0.76,0.328-1.087c0.355-0.413,0.892-0.654,1.442-0.619c0.582,0.032,1.128,0.368,1.392,0.854
			c0.201,0.37,0.203,0.78,0.006,1.123C92.843,92.579,92.155,92.845,91.519,92.845z M90.955,91.574
			c0.012,0.037,0.063,0.156,0.244,0.222c0.391,0.142,0.968-0.048,1.079-0.241c0.01-0.016,0.032-0.056-0.018-0.148
			c-0.082-0.15-0.309-0.318-0.57-0.333c-0.274-0.012-0.512,0.138-0.629,0.274C90.98,91.443,90.95,91.529,90.955,91.574z"/>
	</g>
	<g>
		<path fill="#1E8346" d="M91.663,84.727c0.145-0.421,0.638-0.68,1.052-0.511c0.364,0.148,0.537,0.575,0.451,0.931
			c-0.107,0.443-0.611,0.766-1.052,0.601C91.72,85.602,91.527,85.124,91.663,84.727z"/>
		<path fill="#1E8346" d="M92.356,86.291c-0.143,0-0.284-0.024-0.418-0.075c-0.632-0.234-0.975-0.991-0.749-1.651l0-0.001
			c0.118-0.344,0.381-0.629,0.72-0.783c0.325-0.147,0.677-0.158,0.994-0.028c0.568,0.23,0.897,0.895,0.748,1.511
			c-0.088,0.365-0.345,0.691-0.689,0.874C92.771,86.239,92.562,86.291,92.356,86.291z M92.136,84.89
			c-0.051,0.149,0.024,0.342,0.152,0.39c0.082,0.03,0.165-0.002,0.207-0.025c0.092-0.048,0.165-0.137,0.186-0.225
			c0.03-0.124-0.029-0.3-0.153-0.351c-0.08-0.032-0.162-0.005-0.204,0.013C92.235,84.732,92.165,84.806,92.136,84.89z"/>
	</g>
	<g>
		<path fill="#1E8346" d="M95.984,77.085c-0.195-0.469,0.266-1.297,0.86-1.376c0.764-0.101,1.448,1.079,1.21,1.537
			C97.794,77.746,96.254,77.732,95.984,77.085z"/>
		<path fill="#1E8346" d="M97.123,78.098c-0.037,0-0.072-0.001-0.108-0.002c-0.734-0.031-1.292-0.337-1.493-0.818l0,0
			c-0.15-0.361-0.094-0.83,0.15-1.254c0.258-0.449,0.672-0.752,1.106-0.81c0.526-0.068,1.068,0.216,1.453,0.763
			c0.277,0.396,0.514,1.025,0.267,1.5C98.258,77.937,97.65,78.098,97.123,78.098z M96.445,76.893
			c0.015,0.035,0.122,0.122,0.357,0.172c0.375,0.081,0.749-0.003,0.826-0.075c-0.01-0.037-0.101-0.336-0.327-0.576
			c-0.138-0.145-0.282-0.219-0.392-0.209c-0.122,0.016-0.271,0.144-0.371,0.317C96.432,76.708,96.43,76.854,96.445,76.893z"/>
	</g>
	<g>
		<path fill="#1E8346" d="M112.126,76.383c0.317-0.28,1.006-0.212,1.231,0.109c0.123,0.176,0.023,0.307,0.082,0.602
			c0.144,0.719,0.931,0.897,0.875,1.176c-0.06,0.3-1.074,0.608-1.75,0.164C111.851,77.967,111.679,76.777,112.126,76.383z"/>
		<path fill="#1E8346" d="M113.369,79.156c-0.364,0-0.749-0.087-1.079-0.304c-0.51-0.333-0.856-0.959-0.904-1.633
			c-0.037-0.508,0.112-0.949,0.409-1.211l0,0c0.261-0.229,0.662-0.337,1.069-0.289c0.389,0.046,0.718,0.223,0.902,0.486
			c0.168,0.239,0.159,0.459,0.154,0.604c-0.003,0.069-0.005,0.119,0.009,0.186c0.044,0.219,0.197,0.354,0.426,0.534
			c0.213,0.167,0.533,0.42,0.449,0.838c-0.038,0.188-0.175,0.449-0.611,0.631C113.961,79.096,113.672,79.156,113.369,79.156z
			 M112.668,76.706c-0.086,0-0.17,0.016-0.211,0.052h-0.001c-0.03,0.028-0.09,0.159-0.073,0.39c0.021,0.297,0.17,0.682,0.455,0.868
			c0.214,0.14,0.484,0.159,0.693,0.13c-0.23-0.204-0.492-0.502-0.582-0.954c-0.037-0.183-0.031-0.326-0.028-0.42
			C112.896,76.732,112.78,76.706,112.668,76.706z"/>
	</g>
	<g>
		<path fill="#1E8346" d="M107.004,85.375c-0.307,0.132-0.376,0.812-0.181,1.295c0.015,0.037,0.335,0.796,0.964,0.783
			c0.307-0.006,0.659-0.197,0.753-0.482C108.762,86.293,107.496,85.162,107.004,85.375z"/>
		<path fill="#1E8346" d="M107.771,87.953c-0.772,0-1.251-0.688-1.413-1.1c-0.283-0.701-0.171-1.671,0.447-1.938l0,0
			c0.605-0.262,1.312,0.314,1.511,0.497c0.469,0.427,0.898,1.102,0.699,1.713c-0.175,0.53-0.745,0.817-1.218,0.827
			C107.789,87.953,107.78,87.953,107.771,87.953z M107.234,85.874c-0.033,0.139-0.036,0.39,0.053,0.608
			c0.041,0.1,0.245,0.471,0.485,0.471c0.001,0,0.003,0,0.005,0c0.135-0.003,0.271-0.094,0.288-0.139
			c0.006-0.02-0.005-0.157-0.168-0.38C107.688,86.146,107.399,85.943,107.234,85.874z"/>
	</g>
	<g>
		<path fill="#1E8346" d="M109.468,88.804c-0.004-0.358,0.271-0.632,0.532-0.728c0.53-0.195,1.226,0.264,1.232,0.7
			c0.007,0.452-0.727,0.935-1.26,0.728C109.723,89.408,109.471,89.143,109.468,88.804z"/>
		<path fill="#1E8346" d="M110.245,90.052c-0.158,0-0.312-0.027-0.454-0.082c-0.392-0.151-0.817-0.579-0.823-1.161l0,0
			c-0.007-0.607,0.441-1.049,0.86-1.203c0.416-0.154,0.912-0.076,1.325,0.208c0.362,0.249,0.573,0.596,0.579,0.954
			c0.006,0.363-0.211,0.732-0.58,0.989C110.874,89.951,110.552,90.052,110.245,90.052z M110.269,88.53
			c-0.035,0-0.067,0.005-0.096,0.016c-0.084,0.031-0.206,0.132-0.205,0.253V88.8c0.001,0.114,0.11,0.209,0.184,0.237
			c0.088,0.034,0.225,0.011,0.354-0.055c0.154-0.081,0.222-0.183,0.229-0.211c-0.007-0.002-0.07-0.098-0.214-0.173
			C110.435,88.554,110.346,88.53,110.269,88.53z"/>
	</g>
	<g>
		<path fill="#1E8346" d="M116.389,88.677c-0.377-0.106-0.851,0.357-0.969,0.833c-0.118,0.475,0.09,1.074,0.417,1.154
			c0.402,0.1,1.038-0.576,1.004-1.228C116.825,89.156,116.68,88.759,116.389,88.677z"/>
		<path fill="#1E8346" d="M115.921,91.174c-0.069,0-0.138-0.008-0.205-0.025c-0.238-0.059-0.445-0.222-0.596-0.471
			c-0.218-0.36-0.291-0.866-0.186-1.289c0.107-0.434,0.417-0.854,0.788-1.069c0.265-0.155,0.541-0.199,0.802-0.125l0,0
			c0.525,0.148,0.788,0.716,0.815,1.213c0.028,0.529-0.238,1.104-0.679,1.467C116.423,91.072,116.166,91.174,115.921,91.174z
			 M116.25,89.17c-0.102,0.044-0.29,0.238-0.345,0.46c-0.05,0.2,0.007,0.415,0.062,0.518c0.148-0.093,0.39-0.395,0.375-0.686
			C116.335,89.34,116.286,89.223,116.25,89.17z"/>
	</g>
	<g>
		<path fill="#1E8346" d="M124.328,80.539c-0.276-0.068-0.394-0.012-0.438,0.014c-0.297,0.173-0.319,0.76-0.137,1.162
			c0.026,0.058,0.318,0.676,0.943,0.684c0.374,0.004,0.792-0.211,0.889-0.533C125.748,81.326,124.953,80.693,124.328,80.539z"/>
		<path fill="#1E8346" d="M124.705,82.899c-0.005,0-0.009,0-0.014,0c-0.706-0.009-1.191-0.532-1.394-0.978
			c-0.276-0.61-0.225-1.472,0.34-1.8c0.208-0.125,0.482-0.149,0.81-0.067l0,0c0.604,0.148,1.217,0.588,1.49,1.069
			c0.169,0.296,0.212,0.603,0.126,0.888C125.89,82.59,125.237,82.899,124.705,82.899z M124.151,81.013
			c-0.026,0.105-0.024,0.315,0.058,0.496c0.007,0.015,0.179,0.386,0.493,0.39c0.198,0.003,0.389-0.125,0.404-0.177
			c0.001-0.004,0-0.039-0.037-0.104c-0.138-0.24-0.531-0.512-0.86-0.593l0,0C124.187,81.019,124.168,81.015,124.151,81.013z"/>
	</g>
	<g>
		<path fill="#1E8346" d="M131.953,84.643c0.319-0.525,1.512-0.457,1.705-0.036c0.131,0.285-0.16,0.81-0.603,0.989
			c-0.366,0.148-0.887,0.081-1.096-0.268C131.838,85.126,131.831,84.843,131.953,84.643z"/>
		<path fill="#1E8346" d="M132.663,86.169c-0.441,0-0.891-0.181-1.133-0.584c-0.219-0.365-0.221-0.848-0.004-1.203
			c0.3-0.492,0.926-0.638,1.434-0.608c0.557,0.032,0.988,0.266,1.152,0.625c0.105,0.23,0.103,0.511-0.009,0.792
			c-0.152,0.383-0.482,0.716-0.861,0.869C133.064,86.131,132.864,86.169,132.663,86.169z M132.835,84.77
			c-0.055,0-0.111,0.004-0.169,0.013c-0.173,0.026-0.266,0.086-0.286,0.12v0.001c-0.021,0.034-0.021,0.118,0.008,0.167
			c0.054,0.09,0.296,0.137,0.479,0.062c0.155-0.063,0.266-0.211,0.306-0.307C133.1,84.797,132.977,84.77,132.835,84.77z"/>
	</g>
	<g>
		<path fill="#1E8346" d="M118.916,95.919c-0.651,0.09-1.133,0.958-0.845,1.613c0.296,0.672,1.282,0.847,1.766,0.461
			c0.343-0.273,0.335-0.749,0.333-0.819C120.151,96.535,119.562,95.829,118.916,95.919z"/>
		<path fill="#1E8346" d="M119.195,98.696c-0.148,0-0.3-0.019-0.451-0.056c-0.521-0.128-0.934-0.459-1.131-0.906
			c-0.2-0.457-0.161-1.012,0.104-1.487c0.254-0.453,0.676-0.761,1.131-0.823c0.393-0.053,0.8,0.072,1.14,0.36
			c0.406,0.343,0.668,0.871,0.683,1.375c0.005,0.187-0.018,0.824-0.521,1.225C119.893,98.588,119.555,98.696,119.195,98.696z
			 M119.027,96.411c-0.014,0-0.028,0.001-0.042,0.003h-0.001c-0.144,0.02-0.295,0.143-0.395,0.321
			c-0.111,0.2-0.135,0.428-0.061,0.596c0.101,0.229,0.351,0.312,0.454,0.338c0.208,0.053,0.428,0.025,0.542-0.067
			c0.121-0.096,0.147-0.306,0.145-0.415c-0.006-0.222-0.138-0.479-0.328-0.64C119.279,96.495,119.16,96.411,119.027,96.411z"/>
	</g>
	<g>
		<path fill="#1E8346" d="M123.145,98.741c-0.281,0.182-0.333,0.676-0.201,1.026c0.198,0.526,0.868,0.874,1.327,0.644
			c0.269-0.135,0.438-0.455,0.422-0.744C124.657,98.988,123.603,98.444,123.145,98.741z"/>
		<path fill="#1E8346" d="M123.952,100.983c-0.175,0-0.355-0.035-0.535-0.105c-0.434-0.17-0.785-0.52-0.94-0.935
			c-0.204-0.538-0.112-1.292,0.396-1.621l0,0c0.357-0.231,0.87-0.217,1.372,0.039c0.559,0.284,0.922,0.774,0.948,1.28
			c0.027,0.497-0.26,0.998-0.696,1.218C124.328,100.941,124.144,100.983,123.952,100.983z M123.419,99.162
			c-0.042,0.058-0.071,0.26-0.007,0.428c0.057,0.151,0.202,0.291,0.371,0.357c0.104,0.041,0.204,0.047,0.265,0.017
			c0.082-0.041,0.151-0.17,0.146-0.27c-0.007-0.118-0.132-0.275-0.313-0.391C123.666,99.167,123.475,99.146,123.419,99.162z"/>
	</g>
	<g>
		<path fill="#1E8346" d="M122.318,100.956c-0.203,0.094-0.218,0.466-0.193,0.659c0.029,0.226,0.163,0.613,0.418,0.643
			c0.269,0.032,0.589-0.339,0.563-0.692C123.075,101.15,122.566,100.841,122.318,100.956z"/>
		<path fill="#1E8346" d="M122.578,102.76c-0.032,0-0.063-0.002-0.095-0.006c-0.501-0.06-0.79-0.582-0.854-1.074
			c-0.055-0.415,0.038-0.973,0.479-1.177l0,0c0.258-0.12,0.578-0.087,0.879,0.089c0.359,0.211,0.591,0.561,0.619,0.938
			c0.024,0.339-0.122,0.702-0.383,0.95C123.031,102.662,122.805,102.76,122.578,102.76z"/>
	</g>
	<g>
		<path fill="#1E8346" d="M131.785,112.41c-0.386-0.004-0.723-0.517-0.663-0.973c0.062-0.472,0.549-0.866,0.909-0.772
			c0.388,0.102,0.562,0.757,0.382,1.208C132.322,112.101,132.088,112.413,131.785,112.41z"/>
		<path fill="#1E8346" d="M131.789,112.91c-0.003,0-0.006,0-0.009,0l0,0c-0.297-0.003-0.582-0.146-0.804-0.4
			c-0.269-0.31-0.402-0.746-0.351-1.139c0.052-0.396,0.29-0.771,0.638-1.006c0.287-0.193,0.605-0.256,0.894-0.185
			c0.277,0.073,0.511,0.274,0.659,0.567c0.198,0.392,0.222,0.906,0.062,1.31C132.708,112.483,132.306,112.91,131.789,112.91z
			 M131.883,111.14c-0.038,0.014-0.239,0.168-0.265,0.361c-0.024,0.181,0.1,0.365,0.17,0.404c0.044-0.027,0.121-0.118,0.16-0.218
			C132.035,111.472,131.946,111.188,131.883,111.14z"/>
	</g>
	<g>
		<path fill="#1E8346" d="M153.999,89.153c0.212-0.573,1.204-0.707,1.531-0.365c0.385,0.402-0.038,1.575-0.583,1.641
			C154.477,90.486,153.784,89.734,153.999,89.153z"/>
		<path fill="#1E8346" d="M154.894,90.932c-0.441,0-0.842-0.303-1.08-0.605c-0.333-0.422-0.439-0.926-0.283-1.348l0,0
			c0.154-0.418,0.558-0.731,1.078-0.839c0.506-0.105,1.004,0.009,1.283,0.302c0.313,0.328,0.376,0.874,0.167,1.459
			c-0.162,0.453-0.522,0.959-1.051,1.023C154.97,90.93,154.932,90.932,154.894,90.932z M154.468,89.326
			c-0.026,0.072,0.006,0.195,0.083,0.314c0.117,0.183,0.288,0.287,0.347,0.292c0.011-0.011,0.136-0.128,0.222-0.374
			c0.084-0.239,0.061-0.402,0.042-0.434c-0.023-0.013-0.205-0.053-0.423,0.014C154.601,89.18,154.495,89.253,154.468,89.326
			L154.468,89.326z"/>
	</g>
	<g>
		<path fill="#1E8346" d="M147.198,96.201c-0.407,0.197-0.609,1.331,0,1.732c0.518,0.341,1.357-0.02,1.475-0.449
			C148.836,96.893,147.686,95.965,147.198,96.201z"/>
		<path fill="#1E8346" d="M147.685,98.568c-0.278,0-0.543-0.073-0.762-0.217c-0.418-0.275-0.645-0.793-0.605-1.386
			c0.028-0.425,0.219-0.998,0.663-1.213l0,0v0l0,0c0.414-0.2,0.977-0.054,1.51,0.39c0.546,0.454,0.794,1.006,0.665,1.476
			c-0.099,0.358-0.422,0.671-0.865,0.838C148.089,98.53,147.884,98.567,147.685,98.568z M147.416,96.667
			c-0.049,0.079-0.119,0.272-0.1,0.503c0.008,0.095,0.039,0.267,0.156,0.345c0.093,0.06,0.242,0.068,0.4,0.025
			c0.184-0.052,0.301-0.155,0.32-0.197c-0.005-0.023-0.072-0.184-0.271-0.371C147.718,96.78,147.514,96.688,147.416,96.667z
			 M147.44,96.636L147.44,96.636L147.44,96.636z"/>
	</g>
	<g>
		<path fill="#1E8346" d="M165.73,92.208c-0.558-0.024-1.106-0.694-1.013-1.184c0.144-0.759,1.829-1.084,2.162-0.64
			C167.191,90.801,166.571,92.244,165.73,92.208z"/>
		<path fill="#1E8346" d="M165.761,92.708c-0.017,0-0.034,0-0.052-0.001c-0.416-0.018-0.845-0.256-1.147-0.637
			c-0.283-0.357-0.405-0.772-0.336-1.139c0.105-0.553,0.641-0.992,1.432-1.176c0.272-0.064,1.201-0.229,1.622,0.328
			c0.325,0.435,0.167,1.109-0.089,1.596C166.849,92.328,166.317,92.708,165.761,92.708z M166.457,90.645
			c-0.05,0.013-0.511,0.014-0.913,0.199c-0.229,0.105-0.326,0.221-0.336,0.274c-0.01,0.049,0.02,0.183,0.138,0.331
			c0.119,0.15,0.282,0.254,0.406,0.26l0,0c0.103-0.019,0.269-0.094,0.405-0.267C166.412,91.12,166.483,90.737,166.457,90.645z"/>
	</g>
	<g>
		<path fill="#1E8346" d="M172.13,93.033c-0.584,0.264-0.723,1.33-0.325,1.705c0.482,0.455,1.798-0.056,1.868-0.65
			C173.736,93.546,172.779,92.739,172.13,93.033z"/>
		<path fill="#1E8346" d="M172.335,95.414c-0.349,0-0.654-0.105-0.873-0.312c-0.314-0.296-0.447-0.797-0.355-1.341
			c0.092-0.551,0.397-0.993,0.817-1.183l0,0c0.453-0.207,1.026-0.11,1.527,0.256c0.389,0.284,0.781,0.777,0.719,1.312
			c-0.067,0.562-0.616,0.953-1.108,1.131C172.809,95.369,172.562,95.414,172.335,95.414z M172.433,93.471
			c-0.037,0-0.069,0.006-0.097,0.018l0,0c-0.108,0.049-0.209,0.229-0.243,0.438c-0.04,0.238,0.017,0.412,0.055,0.448
			c0.035,0.033,0.202,0.066,0.447,0.002c0.336-0.087,0.559-0.277,0.583-0.354c-0.005-0.046-0.124-0.267-0.392-0.431
			C172.659,93.513,172.531,93.471,172.433,93.471z"/>
	</g>
	<g>
		<path fill="#1E8346" d="M188.083,100.519c-0.151-0.456,0.659-1.413,1.313-1.221c0.438,0.129,0.796,0.77,0.583,1.221
			c-0.221,0.467-0.92,0.447-1.24,0.383C188.589,100.872,188.172,100.788,188.083,100.519z"/>
		<path fill="#1E8346" d="M189.093,101.438c-0.152,0-0.306-0.016-0.451-0.045c-0.212-0.042-0.853-0.172-1.033-0.716l0,0
			c-0.159-0.479,0.135-1.012,0.463-1.352c0.441-0.458,0.988-0.647,1.466-0.507c0.368,0.109,0.694,0.413,0.874,0.813
			c0.167,0.374,0.174,0.776,0.019,1.102C190.193,101.234,189.643,101.438,189.093,101.438z M188.578,100.338
			c0.045,0.021,0.123,0.047,0.26,0.074c0.268,0.056,0.63,0.018,0.688-0.106c0.028-0.061,0.018-0.164-0.028-0.267
			c-0.063-0.142-0.173-0.241-0.243-0.262c-0.065-0.018-0.194,0.025-0.319,0.116C188.741,100.034,188.617,100.229,188.578,100.338z"
			/>
	</g>
	<g>
		<path fill="#1E8346" d="M130.699,131.79c-0.645,0.128-1.168-0.563-1.081-0.856c0.122-0.411,1.591-0.528,1.797-0.113
			C131.545,131.084,131.23,131.685,130.699,131.79z"/>
		<path fill="#1E8346" d="M130.543,132.306c-0.395,0-0.785-0.179-1.08-0.502c-0.295-0.324-0.416-0.702-0.324-1.013
			c0.168-0.564,0.941-0.69,1.266-0.718c0.347-0.031,1.178-0.039,1.459,0.525c0.122,0.249,0.104,0.569-0.049,0.881
			c-0.205,0.416-0.585,0.715-1.018,0.801l0,0C130.712,132.297,130.627,132.306,130.543,132.306z M130.165,131.125
			c0.089,0.076,0.257,0.207,0.437,0.175l0,0c0.135-0.027,0.236-0.133,0.293-0.223C130.695,131.044,130.365,131.064,130.165,131.125z
			"/>
	</g>
</g>
</svg>
