<?xml version="1.0" encoding="utf-8"?>
<!-- Generator: Adobe Illustrator 26.0.3, SVG Export Plug-In . SVG Version: 6.00 Build 0)  -->
<svg version="1.1" id="Isolation_Mode" xmlns="http://www.w3.org/2000/svg" xmlns:xlink="http://www.w3.org/1999/xlink" x="0px"
	 y="0px" viewBox="0 0 200 200" enable-background="new 0 0 200 200" xml:space="preserve">
<g>
	<path fill="#1E8346" d="M44.92,44.536c0.537-0.82,0.603-1.195,0.921-1.262c0.223-0.047,0.364,0.093,0.477,0
		c0.174-0.142-0.126-0.555,0-0.682c0.191-0.192,1.303,0.27,1.364,0.886c0.042,0.429-0.465,0.508-0.614,1.159
		c-0.132,0.578,0.215,0.747,0.136,1.534c-0.043,0.429-0.211,1.023-0.477,1.057c-0.181,0.023-0.231-0.234-0.58-0.443
		c-0.547-0.327-1.196-0.155-1.262-0.136c-0.641,0.18-0.808,0.689-1.023,0.614c-0.277-0.097-0.151-0.999-0.136-1.807
		c0.013-0.723-0.15-1.528-0.477-3.137c-0.096-0.47-0.503-2.407-1.637-5.421c-1.399-3.72-2.099-5.579-3.546-7.569
		c-0.982-1.35-1.905-2.251-2.387-4.023c-0.34-1.251-0.368-2.595-0.375-3c-0.016-0.998-0.025-1.555,0.205-2.25
		c0.459-1.389,1.496-2.187,1.943-2.523c1.242-0.931,2.504-1.143,3.921-1.364c1.354-0.211,2.335-0.187,3.41-0.17
		c5.984,0.092,8.976,0.138,11.252,0.034c0.508-0.023,1.164-0.06,2.046,0.068c1.86,0.269,2.464,0.941,4.194,1.568
		c2.596,0.942,2.964,0.059,4.978,1.023c0.51,0.244,2.049,0.981,3.137,2.591c1.027,1.521,0.748,2.483,2.114,4.228
		c0.204,0.261,0.057,0.043,1.5,1.534c1.118,1.155,2.293,2.255,3.376,3.444c0.412,0.452,0.921,1.03,1.756,1.432
		c0.22,0.106,0.395,0.167,0.716,0.341c0.758,0.41,1.236,0.857,1.364,0.972c0.929,0.834,2.554,1.383,4.296,2.387
		c2.516,1.449,2.258,2.107,4.688,3.461c0.449,0.25,1.384,0.744,3.444,1.443c4.229,1.437,7.906,1.943,9.547,2.137
		c1.608,0.189,4.042,0.308,8.91,0.546c2.444,0.119,4.289,0.185,6.637,1.046c0.931,0.341,2.274,0.845,3.728,1.955
		c0.842,0.643,3.72,2.84,4.41,6.683c0.361,2.011-0.038,3.582-0.409,5.046c-0.446,1.756-0.824,3.248-2.091,4.001
		c-0.809,0.48-1.17,0.178-2.546,0.818c-1.199,0.558-1.311,0.968-2.364,1.546c-1.563,0.858-2.272,0.479-3.637,1
		c-1.619,0.618-2.482,1.859-3.591,3.455c-0.661,0.95-1.317,2.927-2.637,6.819c-1.065,3.14-1.757,5.382-2.773,6.319
		c-0.103,0.095-0.471,0.418-0.637,0.955c-0.25,0.81,0.122,1.584,0.227,1.818c0.547,1.21,0.683,2.958,0.955,6.455
		c0.176,2.268-0.151,2.167-0.046,6.365c0.023,0.908,0.061,1.636,0.136,3.091c0.229,4.403,0.353,6.634,0.818,8.092
		c0.453,1.418,1,2.402,1.864,3.955c0.938,1.685,1.684,2.671,3,4.41c1.412,1.865,1.85,2.201,2.41,2.41
		c1.083,0.404,1.657-0.027,2.864,0.364c1.259,0.407,1.973,1.308,2.455,1.864c0,0,0.402,0.464,5.864,4.773
		c4.159,3.281,8.925,3.834,9.774,3.864c0.078,0.003,0.85,0.027,1.909,0.091c0.563,0.034,1.046,0.064,1.273,0.091
		c1.428,0.173,2.425,1.444,3.046,2.091c1.085,1.131,1.674,1.036,4.955,2.637c1.279,0.624,0.825,0.461,9.638,5.592
		c3.165,1.842,3.989,2.309,5.455,2.591c1.651,0.317,2.574,0.104,4.455,0.682c1.53,0.47,1.866,0.901,3.728,1.864
		c1.811,0.936,5.37,2.733,9.82,2.955c1.723,0.086,1.647-0.161,2.637,0.045c3.855,0.804,5.99,4.755,6.455,5.683
		c0.977,1.949,1.254,3.866,1.728,7.137c0.144,0.993,0.203,1.75,0.227,2.091c0.132,1.877,0.032,3.192,0,3.91
		c-0.188,4.16,1.158,4.573,0.636,7.274c-0.092,0.476-0.675,3.493-3.046,4.955c-1.3,0.802-1.939,0.397-5.955,0.727
		c-3.245,0.267-5.94,0.788-7.274,1.046c-3.765,0.728-3.851,1.08-5.455,1.046c-2.084-0.045-2.869-0.66-6.274-1.864
		c-6.295-2.225-6.521-1.149-8.501-2.637c-3.104-2.331-2.07-4.613-5.319-6.319c-1.385-0.727-2.7-0.904-4.364-2.409
		c-1.25-1.131-0.936-1.418-1.909-2.137c-2.164-1.597-3.963-0.361-5.956-1.909c-1.007-0.783-0.615-1.152-1.773-2.364
		c-1.68-1.759-3.258-1.77-5.319-2.773c-2.866-1.395-2.292-2.579-5.728-5.228c-2.192-1.689-4.089-2.49-7.456-3.91
		c-4.173-1.76-4.792-1.404-7.91-3.091c-2.555-1.383-2.675-1.911-4.501-2.455c-2.359-0.702-3.279-0.153-6.137-0.955
		c-2.368-0.664-2.062-1.132-3.864-1.546c-3.014-0.692-3.839,0.625-7.683,0.5c-1.037-0.034-2.737-0.416-6.137-1.182
		c-3.741-0.842-3.891-1.027-5.955-1.455c-5.781-1.198-5.992-0.037-9.138-1.137c-2.062-0.72-3.905-2.147-7.592-5.001
		c-2.135-1.652-3.662-3.031-4.682-3.955c-3.528-3.197-5.292-4.796-6.001-6.046c-2.203-3.888-1.334-7.187-3.637-9.729
		c-0.101-0.111-1.274-1.398-1-1.773c0.157-0.215,0.63,0.09,1-0.182c0.479-0.352,0.507-1.466,0.091-2.227
		c-0.259-0.473-0.578-0.607-0.546-0.955c0.041-0.443,0.582-0.482,0.636-0.864c0.068-0.481-0.749-0.715-1.864-1.864
		c-0.654-0.674-0.543-0.767-0.955-1.046c-0.653-0.441-1.021-0.265-2.364-0.591c-1.03-0.25-1.545-0.375-2.046-0.773
		c-0.855-0.679-0.745-1.377-1.364-1.546c-0.733-0.199-1.784,0.533-1.773,1.136c0.008,0.46,0.628,0.505,1.773,1.455
		c1.246,1.034,1.358,1.681,2.091,1.728c0.528,0.033,0.613-0.293,1.5-0.364c0.286-0.023,0.863-0.069,1.455,0.182
		c0.879,0.373,1.618,1.195,1.455,1.591c-0.084,0.204-0.362,0.188-0.409,0.409c-0.052,0.246,0.265,0.397,0.409,0.727
		c0.236,0.542-0.068,1.389-0.409,1.455c-0.447,0.086-0.664-1.23-1.864-2.273c-0.414-0.36-0.566-0.358-2.455-1.137
		c-4.205-1.733-4.702-2.258-4.955-2.682c-0.062-0.104-0.345-0.596-0.546-0.546c-0.219,0.055-0.072,0.693-0.364,0.864
		c-0.438,0.257-1.215-0.926-2-0.727c-0.448,0.114-0.462,0.566-0.909,0.955c-0.789,0.685-1.918,0.294-3,0.227
		c-1.645-0.102-2.931,0.599-5.501,2c-2.14,1.167-2.323,1.759-3.819,2.046c-0.508,0.097-1.831,0.333-3.182-0.273
		c-0.698-0.312-0.97-0.655-2.228-2c-2.678-2.865-2.664-2.619-3.546-3.773c-0.861-1.127-0.481-0.846-2-3.046
		c-1.4-2.027-1.828-2.417-1.818-3.228c0.012-1.002,0.679-1.721,1.727-2.818c0.546-0.572,1.439-1.41,3.91-2.955
		c3.105-1.941,3.504-1.749,4.137-2.728c0.805-1.245,0.529-2.132,1.682-3.228c0.751-0.713,1.142-0.599,1.728-1.318
		c0.855-1.051,0.493-1.878,0.955-2.955c0.572-1.334,1.63-1.239,5.001-3.182c2.357-1.358,3.536-2.038,4.455-3
		c1.182-1.238,1.806-2.447,3.41-2.909c0.675-0.195,0.864-0.067,1.591-0.364c0.987-0.403,1.036-0.801,2.591-1.818
		c0.758-0.496,0.978-0.553,1.318-0.955c0.644-0.76,0.628-1.464,0.818-1.455c0.303,0.015,0.917,1.835,0.136,3.182
		c-0.513,0.885-1.443,1.248-2.091,1.5c-1.398,0.545-1.823,0.098-2.637,0.637c-0.462,0.306-0.637,0.657-1.5,2.637
		c-1.216,2.788-1.16,2.761-1.318,2.955c-1.111,1.362-2.116,0.57-4.364,1.955c-2.088,1.286-2.036,2.471-3.864,2.909
		c-0.971,0.233-1.484,0.018-2.182,0.546c-0.752,0.568-0.795,1.298-1.728,1.728c-0.54,0.249-0.719,0.093-1.046,0.364
		c-0.403,0.334-0.388,0.784-0.546,2.137c-0.294,2.528-0.571,2.889-0.818,3.091c-0.258,0.211-0.601,0.347-0.591,0.591
		c0.01,0.25,0.381,0.319,0.636,0.637c0.362,0.45,0.237,1.084,0.182,1.5c-0.294,2.197,0.686,3.161,0.045,3.773
		c-0.317,0.303-0.56,0.072-2.409,0.136c-1.625,0.057-2.198,0.262-2.455-0.091c-0.329-0.451,0.403-1.069,0.091-1.909
		c-0.212-0.571-0.832-1.05-1.455-1.046c-1.119,0.007-1.646,1.57-1.682,1.682c-0.221,0.684-0.268,1.782,0.364,2.41
		c0.618,0.614,1.167,0.063,2.819,0.727c0.796,0.32,1.358,0.546,1.909,1.091c0.295,0.291,0.44,0.53,0.818,0.682
		c0.165,0.066,0.599,0.207,1.455-0.046c1.123-0.331,1.001-0.757,1.864-1c0.702-0.197,1.097-0.004,2.591-0.273
		c0.148-0.027,0.511-0.096,0.546-0.273c0.045-0.231-0.525-0.369-0.727-0.909c-0.126-0.337,0.037-0.442-0.045-0.727
		c-0.228-0.793-1.696-0.737-1.773-1.227c-0.06-0.384,0.762-0.897,1.455-1.136c1.25-0.433,1.9,0.087,2.955-0.5
		c0.486-0.271,0.385-0.401,0.818-0.591c0.954-0.417,1.456,0.211,2.591,0.091c1.34-0.141,1.521-1.108,2.546-0.955
		c0.766,0.115,0.801,0.675,1.637,0.773c0.713,0.083,0.825-0.308,1.909-0.5c1.164-0.206,1.467,0.169,2.273-0.091
		c0.799-0.258,0.755-1.107,1.591-1.318c0.407-0.103,0.47,0.05,0.818-0.091c0.718-0.289,0.805-1.079,1.227-1.091
		c0.261-0.008,0.278,0.308,0.637,0.546c0.75,0.498,1.495-0.307,2.409,0.045c0.713,0.275,0.529,0.868,1.364,1.273
		c0.72,0.349,1.72,0.327,2.046-0.136c0.218-0.31-0.045-0.566,0.091-1.091c0.22-0.849,1.281-1.627,1.864-1.364
		c0.538,0.243,0.735,1.401,0.318,2c-0.295,0.424-0.8,0.428-0.864,0.818c-0.048,0.297,0.183,0.664,0.409,0.682
		c0.33,0.026,0.38-0.715,0.955-0.909c0.457-0.154,0.755,0.202,1.091,0c0.277-0.166,0.245-0.512,0.364-0.864
		c0.339-1.006,1.521-0.914,2.182-1.728c0.771-0.948-0.273-1.763,0.273-3.273c0.682-1.887,2.723-1.749,3-3.501
		c0.082-0.517-0.005-1.106,0.364-1.955c0.325-0.748,0.66-0.909,0.773-0.955c0.473-0.191,0.892,0.08,1-0.091
		c0.161-0.254-0.758-0.861-0.591-1.455c0.054-0.19,0.22-0.384,0.409-0.409c0.347-0.045,0.503,0.513,1.046,0.909
		c0.567,0.414,1.51,0.617,1.864,0.273c0.464-0.451-0.368-1.557,0.227-2.273c0.249-0.3,0.44-0.161,0.682-0.455
		c0.621-0.755-0.261-2.138,0.182-2.455c0.255-0.182,0.578,0.252,1,0.091c0.592-0.227,0.333-1.228,1.045-1.773
		c0.482-0.368,1.233-0.395,1.409-0.136c0.26,0.383-0.818,1.27-0.5,1.864c0.149,0.278,0.438,0.181,0.727,0.546
		c0.288,0.362,0.422,0.985,0.182,1.273c-0.392,0.471-1.446-0.355-2,0.091c-0.675,0.543,0.533,2.05-0.273,3.546
		c-0.315,0.585-0.855,1.014-0.682,1.409c0.129,0.295,0.522,0.266,0.682,0.637c0.138,0.32,0.047,0.809-0.182,0.909
		c-0.435,0.191-0.908-1.218-2.228-1.682c-0.985-0.347-2.4-0.152-3.091,0.773c-0.358,0.479-0.657,1.335-0.364,2
		c0.161,0.366,0.417,0.48,0.364,0.682c-0.102,0.388-1.089,0.128-1.864,0.682c-0.807,0.577-1.091,1.83-0.818,2.046
		c0.222,0.176,0.984-0.197,1.273-0.773c0.199-0.397,0.027-0.598,0.227-0.818c0.338-0.372,0.952,0.065,1.818-0.182
		c0.685-0.196,0.563-0.544,1.227-0.773c0.963-0.332,1.434,0.326,2.364,0c0.602-0.211,0.465-0.508,1.182-0.909
		c1.183-0.662,2.238-0.236,2.409-0.682c0.122-0.319-0.419-0.53-0.637-1.409c-0.13-0.527-0.149-1.312,0.227-1.546
		c0.329-0.204,0.791,0.117,0.864,0c0.139-0.225-1.559-1.404-1.409-1.682c0.142-0.263,1.748,0.633,2.273,0.091
		c0.385-0.398-0.129-1.24,0.136-1.409c0.344-0.219,1.703,0.883,2.682,2.319c0.849,1.245,0.914,2.01,1.818,2.409
		c0.522,0.23,0.92,0.161,1.182,0.546c0.363,0.534-0.07,1.16,0.318,1.546c0.295,0.293,0.65,0.039,1,0.364
		c0.312,0.29,0.428,0.86,0.227,1.227c-0.224,0.411-0.725,0.352-0.773,0.637c-0.064,0.384,0.796,0.797,0.841,0.818
		c0.176,0.083,0.914,0.402,1.637,0.091c0.329-0.142,0.309-0.266,0.614-0.432c0.858-0.468,2.101-0.078,2.114,0.182
		c0.009,0.171-0.525,0.137-1.455,0.705c-0.553,0.337-0.663,0.531-1.057,0.58c-0.478,0.059-0.705-0.181-0.989-0.034
		c-0.296,0.153-0.335,0.561-0.409,0.955c-0.319,1.691-1.036,1.786-0.955,2.898c0.022,0.299,0.074,1.011,0.58,1.432
		c0.495,0.412,0.928,0.131,2.25,0.443c1.051,0.248,1.134,0.51,1.466,0.375c0.792-0.321,0.5-1.881,1.5-2.353
		c0.349-0.164,0.467-0.014,0.682-0.205c0.527-0.468-0.166-1.385,0.307-2.455c0.295-0.668,0.713-0.643,0.75-1.159
		c0.049-0.673-0.649-0.847-0.716-1.671c-0.041-0.505,0.216-0.498,0.409-1.466c0.185-0.929,0.028-1.333,0.307-1.5
		c0.284-0.17,0.843,0.011,0.989,0.341c0.219,0.497-0.629,1.035-0.409,1.603c0.146,0.378,0.586,0.3,0.716,0.682
		c0.138,0.406-0.319,0.615-0.511,1.398c-0.194,0.788,0.18,0.937-0.068,1.603c-0.219,0.588-0.615,0.75-0.546,1.159
		c0.046,0.269,0.233,0.293,0.443,0.614c0.398,0.607,0.423,1.577,0,1.978c-0.283,0.268-0.522,0.048-1.023,0.273
		c-0.823,0.37-1.384,1.506-1.057,2.046c0.113,0.186,0.369,0.363,0.58,0.307c0.476-0.128,0.226-1.317,0.886-1.671
		c0.282-0.151,0.684-0.125,0.852,0.068c0.306,0.353-0.161,1.274-0.546,1.807c-0.739,1.024-1.366,0.885-1.943,1.807
		c-0.382,0.611-0.679,1.585-0.307,1.978c0.347,0.366,0.968-0.095,2.319-0.17c1.89-0.106,2.296,0.707,3.341,0.296
		c1.262-0.496,1.693-2.082,1.773-2.41c0.113-0.464-0.096-1.469-0.227-2.546c-0.021-0.174-0.07-0.56,0.091-0.642
		c0.11-0.057,0.322,0.029,0.409,0.17c0.072,0.118,0.023,0.219,0.085,0.256c0.092,0.055,0.351-0.075,0.392-0.256
		c0.053-0.236-0.317-0.329-0.418-0.741c-0.087-0.352,0.122-0.533-0.009-0.699c-0.146-0.185-0.556-0.151-0.844-0.034
		c-0.528,0.215-0.618,0.698-0.912,0.682c-0.271-0.015-0.451-0.438-0.486-0.52c-0.441-1.035,0.597-2.107,0.98-3.103
		c0.019-0.048,0.068-0.182,0.17-0.205c0.113-0.025,0.261,0.09,0.324,0.222c0.117,0.245-0.119,0.427-0.153,0.835
		c-0.028,0.329,0.077,0.768,0.29,0.835c0.201,0.064,0.378-0.241,0.921-0.716c0.745-0.653,0.946-0.546,1.176-0.921
		c0.395-0.643,0.257-1.694-0.188-1.875c-0.291-0.119-0.756,0.119-0.972,0.443c-0.251,0.377-0.081,0.743-0.29,0.852
		c-0.21,0.11-0.643-0.124-0.784-0.46c-0.152-0.362,0.065-0.768,0.256-1.125c0.308-0.577,0.567-0.635,0.529-0.852
		c-0.068-0.382-0.879-0.277-1.466-0.955c-0.259-0.298-0.437-0.706-0.33-0.818c0.173-0.18,0.903,0.589,1.307,0.375
		c0.595-0.315-0.265-2.36,0.546-2.944c0.371-0.267,0.871-0.067,0.989-0.341c0.106-0.246-0.28-0.452-0.477-0.932
		c-0.435-1.058,0.672-1.934,0.216-2.807c-0.243-0.464-0.584-0.27-0.818-0.75c-0.372-0.762,0.405-1.419,0.034-2.353
		c-0.16-0.403-0.329-0.342-0.477-0.784c-0.275-0.822,0.119-1.603,0.136-1.637c0.42-0.804,1.105-0.739,1.159-1.227
		c0.073-0.664-1.162-1.023-1.091-1.739c0.048-0.486,0.635-0.499,0.784-1.057c0.197-0.737-0.524-1.841-1.534-2.114
		c-0.122-0.033-0.987-0.267-1.466,0.205c-0.385,0.379-0.192,0.89-0.034,3c0.068,0.902,0.101,1.725-0.068,2.694
		c-0.03,0.173-0.144,0.787-0.58,1.398c-0.184,0.258-0.504,0.707-0.818,0.648c-0.326-0.061-0.46-0.632-0.511-0.852
		c-0.051-0.216-0.137-0.723,0.136-1.603c0.241-0.777,0.409-0.705,0.546-1.227c0.345-1.321-0.529-2.534-0.648-2.694
		c-0.269-0.363-0.527-0.553-0.614-0.614c-0.135-0.095-0.964-0.68-1.5-0.409c-0.514,0.26-0.276,1.061-0.716,1.262
		c-0.447,0.204-1.261-0.361-1.671-1.023c-0.712-1.148-0.204-2.582-0.068-2.966c0.372-1.05,0.733-0.884,1.159-1.978
		c0.177-0.455,0.766-2.154-0.034-3.41c-0.288-0.452-0.422-0.322-0.682-0.716c-0.987-1.492,0.711-3.689-0.068-4.398
		c-0.371-0.338-0.872,0.056-1.671-0.409c-0.512-0.298-0.972-0.731-0.886-0.921c0.112-0.248,1.084,0.093,1.227-0.205
		c0.089-0.184-0.257-0.363-0.409-0.955c-0.111-0.431,0.018-0.549-0.136-0.784c-0.207-0.316-0.696-0.493-0.989-0.341
		c-0.234,0.122-0.183,0.372-0.375,0.443c-0.344,0.127-1.076-0.466-1.023-0.955c0.044-0.406,0.596-0.452,0.716-0.989
		c0.007-0.03,0.1-0.473-0.136-0.75c-0.473-0.555-1.66,0.268-2.421-0.341c-0.269-0.215-0.492-0.615-0.375-0.921
		c0.11-0.288,0.503-0.445,0.818-0.409c0.492,0.057,0.634,0.568,0.852,0.511c0.338-0.088,0.34-1.404,0.341-2.284
		c0.001-0.717-0.039-1.243,0.136-1.296c0.158-0.048,0.285,0.352,0.784,0.58c0.439,0.2,0.607,0.013,0.818,0.17
		c0.461,0.345-0.21,1.341,0.205,2.489c0.153,0.425,0.546,1.123,1.023,1.091c0.371-0.025,0.74-0.488,0.716-0.886
		c-0.022-0.36-0.349-0.416-0.443-0.784c-0.14-0.548,0.36-1.302,1.023-1.602c0.7-0.318,1.67-0.169,1.887,0.295
		c0.196,0.42-0.418,0.691-0.682,1.818c-0.233,0.992,0.055,1.577-0.364,1.909c-0.363,0.289-0.85,0.062-0.909,0.227
		c-0.105,0.294,1.56,0.689,2.273,2.091c0.278,0.547,0.307,1.043,0.5,1.046c0.358,0.005,0.533-1.705,1.046-1.728
		c0.276-0.012,0.392,0.475,0.727,0.455c0.345-0.021,0.417-0.549,0.773-0.591c0.386-0.046,0.581,0.543,0.818,0.5
		c0.402-0.072,0.866-1.941,0.091-3.455c-0.469-0.917-1.218-1.364-2.591-2.182c-0.502-0.299-1.335-0.684-3-1.455
		c-0.086-0.04-0.723-0.334-1.773-0.818c-1.479-0.682-1.488-0.685-1.546-0.727c-1.219-0.908-0.456-2.174-1.5-3.273
		c-1.071-1.127-2.464-0.417-3.455-1.773c-0.296-0.405-0.326-0.679-0.773-1.091c-0.194-0.179-0.937-0.863-1.864-0.818
		c-0.99,0.048-1.304,0.885-1.909,0.682c-0.503-0.169-0.821-0.926-0.637-1.227c0.113-0.185,0.359-0.108,0.5-0.318
		c0.167-0.25,0.046-0.699-0.182-0.955c-0.43-0.483-1.367-0.422-1.955-0.046c-0.407,0.261-0.583,0.631-0.773,1.046
		c-0.615,1.341-0.298,2.252-0.682,2.409c-0.4,0.164-0.732-0.826-1.864-1.273c-1.281-0.506-2.324,0.183-2.682-0.364
		c-0.231-0.354,0.183-0.675-0.046-1.591c-0.106-0.427-0.25-0.571-0.182-0.864c0.082-0.355,0.425-0.712,0.818-0.773
		c0.501-0.078,0.659,0.39,1.409,0.546c0.367,0.076,1.09,0.122,1.318-0.227c0.281-0.429-0.219-1.403-0.909-1.909
		c-0.536-0.393-1.019-0.38-1.046-0.637c-0.037-0.354,0.872-0.473,1.046-1.136c0.133-0.507-0.251-1.003-0.318-1.091
		c-0.501-0.649-1.056-0.334-1.773-0.864c-0.982-0.724-0.617-1.812-1.591-2.273c-0.498-0.236-1.036-0.161-1.091-0.409
		c-0.051-0.231,0.397-0.373,0.409-0.682c0.022-0.555-1.388-1.01-1.5-1.046c-0.426-0.134-2.154-0.678-2.909,0.136
		c-0.473,0.51-0.114,1.068-0.637,1.546c-0.458,0.419-0.857,0.104-1.773,0.409c-0.986,0.329-0.922,0.827-2.091,1.409
		c-1.002,0.499-1.151,0.184-1.909,0.636c-1.194,0.712-1.627,1.969-1.728,2.273c-0.129,0.392-0.385,1.358-0.091,2.455
		c0.327,1.221,0.965,1.218,1.182,2.409c0.153,0.837-0.124,1.048,0.091,2c0.186,0.823,0.415,0.766,0.682,1.591
		c0.484,1.496-0.121,2.143,0.5,3.501c0.195,0.427,0.263,0.379,0.409,0.773c0.435,1.167,0.078,2.221,0.273,2.273
		C44.573,44.987,44.63,44.978,44.92,44.536z"/>
	<path fill="#1E8346" d="M12.358,99.305c0.191-0.401,1.234-0.376,1.955,0c0.417,0.217,1.011,0.7,0.909,1.046
		c-0.125,0.423-1.295,0.651-2.091,0.182C12.644,100.246,12.199,99.64,12.358,99.305z"/>
	<path fill="#1E8346" d="M48.909,28.477c-0.035-0.106-0.471-1.479,0.273-2.319c0.059-0.066,0.482-0.545,0.909-0.455
		c0.426,0.09,0.374,0.644,0.909,1c0.523,0.348,1.336,0.327,1.728-0.045c0.348-0.331,0.28-0.863,0.364-0.864
		c0.141-0.002,0.295,1.028,0.318,2.091c0.021,0.957,0.027,1.443-0.227,1.818c-0.566,0.836-1.761,0.82-1.819,0.818
		C50.133,30.488,49.224,29.423,48.909,28.477z"/>
	<path fill="#1E8346" d="M54.137,31.25c-0.042-0.33,0.613-0.767,0.909-0.591c0.244,0.144,0.309,0.74,0,0.955
		C54.726,31.837,54.173,31.531,54.137,31.25z"/>
	<path fill="#1E8346" d="M55.774,38.16c0.246-0.081,0.398,0.317,0.909,0.409c0.498,0.09,0.718-0.222,1.046-0.046
		c0.267,0.144,0.175,0.381,0.455,0.546c0.354,0.207,0.681-0.066,0.955,0.136c0.24,0.177,0.073,0.505,0.227,0.591
		c0.383,0.212,1.418-1.692,2.546-1.773c0.131-0.009,0.449-0.008,0.682-0.227c0.225-0.212,0.171-0.444,0.318-0.5
		c0.303-0.117,1.101,0.652,0.955,1.136c-0.097,0.321-0.519,0.223-1.091,0.773c-0.348,0.335-0.312,0.486-0.591,0.637
		c-0.4,0.215-0.723,0.036-1.182,0.045c-0.83,0.017-1.049,0.629-1.773,0.909c-1.428,0.553-3.624-0.648-3.773-1.773
		C55.41,38.681,55.541,38.237,55.774,38.16z"/>
	<path fill="#1E8346" d="M41.226,59.891c1.125-1.637,1.194-1.951,1.364-1.909c0.312,0.076,0.574,1.261,0,1.955
		c-0.485,0.586-1.458,0.69-1.591,0.466C40.94,60.302,41.051,60.146,41.226,59.891z"/>
	<path fill="#1E8346" d="M82.357,76.347c0.089-0.144,0.372-0.164,0.546-0.068c0.382,0.211,0.261,0.996,0.068,1.057
		C82.752,77.405,82.181,76.632,82.357,76.347z"/>
	<path fill="#1E8346" d="M79.595,80.098c-0.204-0.401-0.25-1.02,0.102-1.5c0.329-0.449,0.981-0.745,1.296-0.546
		c0.277,0.176,0.108,0.618,0.511,0.989c0.225,0.207,0.352,0.137,0.477,0.307c0.337,0.456-0.081,1.635-0.648,1.705
		c-0.261,0.032-0.59-0.166-0.648-0.409c-0.071-0.301,0.317-0.496,0.239-0.818c-0.055-0.224-0.313-0.421-0.477-0.375
		c-0.308,0.087-0.187,1.005-0.443,1.057C79.826,80.543,79.613,80.133,79.595,80.098z"/>
	<path fill="#1E8346" d="M79.629,83.439c-0.098-0.209-0.4-0.854-0.068-1.227c0.278-0.313,0.898-0.318,1.091-0.068
		c0.193,0.25-0.18,0.577,0,0.955c0.193,0.406,0.902,0.612,1.398,0.443c0.275-0.094,0.306-0.242,0.511-0.239
		c0.425,0.007,0.887,0.653,0.75,1.023c-0.103,0.279-0.476,0.209-0.58,0.477c-0.163,0.422,0.648,0.877,0.511,1.262
		c-0.124,0.349-0.981,0.51-1.262,0.205c-0.266-0.291,0.197-0.776-0.068-1.227c-0.231-0.395-0.686-0.195-1.432-0.682
		C80.284,84.231,79.87,83.954,79.629,83.439z"/>
	<path fill="#1E8346" d="M75.265,90.463c-0.212,0.091-0.357,0.735,0.034,1.057c0.321,0.264,0.829,0.168,0.921-0.034
		C76.366,91.165,75.566,90.334,75.265,90.463z"/>
</g>
</svg>
