<?xml version="1.0" encoding="utf-8"?>
<!-- Generator: Adobe Illustrator 26.0.3, SVG Export Plug-In . SVG Version: 6.00 Build 0)  -->
<svg version="1.1" id="Isolation_Mode" xmlns="http://www.w3.org/2000/svg" xmlns:xlink="http://www.w3.org/1999/xlink" x="0px"
	 y="0px" viewBox="0 0 200 200" enable-background="new 0 0 200 200" xml:space="preserve">
<path fill="#1E8346" d="M19.519,145.122c-0.912-2.694-0.712-2.773-1.323-3.904c-0.751-1.391-1.575-2.236-1.985-4.036
	c-0.091-0.4-0.134-0.724-0.215-1.34c-0.247-1.875-0.371-2.812-0.347-3.507c0.01-0.293,0.045-0.919-0.314-1.472
	c-0.103-0.159-0.134-0.15-0.231-0.314c-0.326-0.549-0.103-0.851-0.298-1.406c-0.216-0.618-0.636-0.656-0.628-1.108
	c0.005-0.317,0.215-0.516,0.347-0.695c0.603-0.815-0.086-1.649-0.05-3.573c0.024-1.284,0.346-1.713,0.066-2.845
	c-0.102-0.413-0.176-0.48-0.314-0.893c-0.716-2.139,0.344-3.077-0.198-5.393c-0.134-0.571-0.301-0.953-0.314-1.687
	c-0.016-0.877,0.201-1.53,0.281-1.787c0.502-1.593,0.127-1.703,0.844-5.409c0.523-2.703,0.784-4.054,0.992-4.367
	c0.03-0.045,0.188-0.275,0.108-0.414c-0.075-0.128-0.296-0.08-0.819-0.157c-0.505-0.075-0.576-0.161-0.604-0.215
	c-0.069-0.134-0.021-0.352,0.107-0.438c0.221-0.149,0.518,0.198,0.736,0.074c0.256-0.145-0.001-0.705,0.339-1.084
	c0.153-0.17,0.326-0.192,0.455-0.248c0.65-0.282,0.646-1.616,0.736-2.473c0.283-2.691,1.984-5.314,2.341-5.715
	c0.041-0.046,0.195-0.21,0.273-0.471c0.094-0.312,0.02-0.574,0-0.695c-0.115-0.689,0.552-1.409,0.827-1.547
	c0.023-0.012,0.101-0.047,0.141-0.128c0.067-0.136-0.02-0.302-0.029-0.323c-0.645-1.43,3.726-5.546,3.726-5.546
	c2.963-2.79-2.25,1.481,4.218-4.441c6.402-5.862,9.604-8.793,12.902-11.314c5.075-3.879,8.652-5.999,11.314-9.032
	c0.264-0.301,1.321-1.524,2.878-3.077c1.7-1.696,3.031-2.821,3.672-3.375c2.435-2.103,3.738-3.579,6.815-6.749
	c5.554-5.722,5.321-5.049,11.182-11.05c6.483-6.637,9.725-9.956,10.785-11.976c0.335-0.637,1.177-2.352,2.978-3.904
	c0.869-0.749,1.502-1.063,3.705-2.25c5.232-2.816,4.762-2.71,5.492-2.977c1.766-0.647,3.626-0.74,7.344-0.926
	c2.816-0.141,4.471-0.224,6.749,0.066c2.747,0.35,2.732,0.775,5.823,1.257c3.403,0.531,6.163,0.444,7.146,0.397
	c3.481-0.165,3.679-0.719,6.22-0.596c1.435,0.07,2.983,0.489,6.021,1.323c3.864,1.062,5.796,1.592,8.271,2.713
	c1.878,0.85,3.158,1.617,5.426,2.977c1.474,0.884,3.611,2.172,6.153,4.036c1.323,0.97,5.185,3.877,9.528,8.469
	c1.779,1.881,4.25,3.608,4.962,5.823c0.125,0.387,0.256,0.955,0.728,1.588c0.894,1.199,1.936,1.19,2.779,2.382
	c0.391,0.553,0.495,1.019,0.662,1.588c0.654,2.241,1.485,3.417,2.316,5.227c2.102,4.58,3.432,11.537,3.705,12.968
	c0.817,4.277,1.216,6.467,0.728,8.999c-0.565,2.932-1.866,5.156-2.382,6.021c-1.145,1.921-2.386,3.263-4.632,5.69
	c-0.084,0.091-1.781,1.408-2.978,3.044c-0.517,0.707-0.869,1.201-0.959,1.935c-0.065,0.534,0.049,0.857-0.198,1.34
	c-0.214,0.417-0.672,0.902-1.108,0.844c-0.368-0.05-0.417-0.445-0.728-0.496c-0.529-0.087-1.081,0.945-1.439,1.505
	c-1.013,1.586-1.757,1.247-2.911,2.746c-0.44,0.572-0.395,0.671-1.191,2.117c-0.989,1.797-1.496,2.439-2.217,3.639
	c-1.004,1.673-1.552,2.982-2.382,4.962c-1.937,4.625-3.053,8.718-5.194,16.575c-1.107,4.064-0.894,3.74-0.992,3.904
	c-0.082,0.136-0.363,0.581-0.199,0.86c0.198,0.337,0.825,0.058,1.125,0.397c0.384,0.434-0.099,1.499-0.463,2.051
	c-0.406,0.615-0.802,0.789-1.125,1.092c-1.282,1.201-0.909,3.751-0.529,6.352c0.298,2.042,0.668,2.574,0.364,3.738
	c-0.146,0.559-0.396,1.067-0.265,1.82c0.11,0.627,0.385,0.854,0.563,1.687c0.125,0.588,0.08,0.909,0.099,1.357
	c0.055,1.278,0.547,1.572,0.96,3.011c0.216,0.753,0.254,1.693,0.331,3.573c0.069,1.686-0.03,2.103-0.198,2.481
	c-0.234,0.525-0.482,0.707-0.794,1.456c-0.302,0.726-0.375,1.289-0.43,1.588c-0.241,1.301-1.028,2.301-1.82,3.308
	c-1.073,1.365-1.855,1.517-4.632,3.375c-4.167,2.787-6.25,4.181-6.98,4.929c-0.429,0.439-1.487,1.573-2.547,1.356
	c-0.555-0.113-0.662-0.504-1.224-0.629c-0.973-0.216-1.84,0.691-2.779,1.423c-1.419,1.105-1.412,0.568-4.235,2.15
	c-1.89,1.06-3.206,2.036-4.83,3.242c-1.82,1.352-2.599,2.065-3.705,2.944c-3.068,2.441-5.808,3.904-7.543,4.83
	c0,0-6.357,3.394-13.233,4.996c-2.832,0.66-2.646,0.266-4.532,0.86c-0.963,0.303-2.042,0.73-3.341,0.397
	c-0.659-0.169-0.54-0.32-1.257-0.529c-1.45-0.424-2.01,0.17-3.871-0.033c-0.801-0.088-0.662-0.194-1.787-0.364
	c-1.299-0.196-2.117-0.15-2.911-0.165c-3.249-0.061-6.153-1.059-6.153-1.059c-1.134-0.389-1.93-0.799-2.614-0.397
	c-0.483,0.285-0.428,0.692-0.992,1.522c-0.355,0.522-1.208,1.775-2.349,1.919c-0.847,0.106-1.093-0.495-2.978-0.993
	c-0.319-0.084-0.761-0.043-1.323-0.265c-0.565-0.223-0.936-0.531-1.092-0.662c-2.796-2.357-3.573-3.308-3.573-3.308
	c-0.742-0.908-3.396-4.156-6.947-6.22c-2.099-1.22-2.574-0.9-6.683-3.011c-0.288-0.148-1.509-0.778-3.242-1.787
	c-2.15-1.251-5.654-3.29-9.627-6.451c-3.874-3.082-6.503-5.887-7.444-6.914c-2.758-3.014-5.323-5.818-7.047-9.726
	C20.336,147.535,19.519,145.122,19.519,145.122z"/>
</svg>
