<?xml version="1.0" encoding="utf-8"?>
<!-- Generator: Adobe Illustrator 26.0.3, SVG Export Plug-In . SVG Version: 6.00 Build 0)  -->
<svg version="1.1" id="Isolation_Mode" xmlns="http://www.w3.org/2000/svg" xmlns:xlink="http://www.w3.org/1999/xlink" x="0px"
	 y="0px" viewBox="0 0 200 200" enable-background="new 0 0 200 200" xml:space="preserve">
<g>
	<path fill="#1E8346" d="M122.872,88.574c-0.264-0.321-0.831-0.949-1.696-1.473c-1.46-0.885-2.041-0.426-3.57-1.339
		c-0.677-0.403-1.135-0.834-1.384-1.071c-1.144-1.088-1.042-1.593-1.741-2.232c-1.322-1.207-2.432-0.077-4.151-1.294
		c-1.035-0.733-1.554-1.795-1.964-2.633c-0.341-0.698-0.51-1.057-0.424-1.517c0.141-0.753,0.786-0.84,1.138-1.941
		c0.089-0.28,0.124-0.512,0.335-0.636c0.33-0.194,0.609,0.161,1.071,0.067c0.607-0.123,0.546-0.823,1.238-1.071
		c0.458-0.164,0.617,0.095,1.205-0.1c0.43-0.142,0.492-0.329,0.837-0.502c0.737-0.369,1.28,0.07,1.975,0
		c1.299-0.132,2.117-1.942,2.343-2.444c0.46-1.02,0.775-2.538,0.536-4.05c-0.096-0.611-0.277-1.18-0.033-1.908
		c0.221-0.66,0.497-0.576,0.77-1.339c0.16-0.447,0.478-1.338,0.167-2.176c-0.068-0.184-0.158-0.341-0.1-0.536
		c0.106-0.358,0.647-0.638,1.004-0.502c0.34,0.129,0.277,0.545,0.569,0.636c0.447,0.139,1.23-0.633,1.105-1.004
		c-0.038-0.113-0.163-0.2-0.279-0.223c-0.251-0.051-0.365,0.215-0.681,0.223c-0.213,0.005-0.458-0.108-0.48-0.245
		c-0.021-0.127,0.16-0.215,0.524-0.513c0.434-0.355,0.769-0.629,0.714-0.837c-0.035-0.132-0.228-0.241-0.379-0.212
		c-0.298,0.056-0.309,0.62-0.58,0.658c-0.171,0.024-0.327-0.177-0.346-0.201c-0.221-0.289-0.004-0.584,0.011-1.462
		c0.007-0.422-0.041-0.446,0.022-0.58c0.202-0.428,0.896-0.607,1.439-0.558c0.461,0.042,0.534,0.223,0.937,0.19
		c0.389-0.032,0.86-0.243,0.87-0.48c0.013-0.295-0.684-0.711-1.261-0.591c-0.447,0.092-0.594,0.46-0.792,0.379
		c-0.24-0.097-0.058-0.652-0.402-1.395c-0.158-0.341-0.218-0.27-0.357-0.569c-0.364-0.782,0.089-1.172-0.178-1.941
		c-0.237-0.681-0.731-0.774-0.658-1.194c0.083-0.479,0.782-0.679,0.714-0.881c-0.045-0.134-0.351-0.047-0.647-0.167
		c-0.575-0.232-0.675-1.062-0.926-1.953c-0.416-1.477-1.149-1.794-0.915-2.22c0.223-0.407,1.032-0.519,1.294-0.245
		c0.254,0.266-0.154,0.738,0.112,1.35c0.2,0.462,0.675,0.754,0.803,0.669c0.143-0.094-0.265-0.575-0.089-1.116
		c0.164-0.505,0.794-0.924,1.339-0.893c0.373,0.022,0.614,0.249,0.736,0.134c0.102-0.095,0.061-0.367-0.067-0.558
		c-0.351-0.524-1.183-0.172-1.54-0.669c-0.244-0.34-0.011-0.723-0.257-0.87c-0.227-0.136-0.635,0.067-0.87,0.279
		c-0.348,0.314-0.235,0.573-0.536,0.748c-0.306,0.177-0.509-0.041-0.893,0.156c-0.3,0.154-0.352,0.378-0.48,0.357
		c-0.23-0.038-0.277-0.798-0.301-1.082c-0.139-1.617-0.873-3.182-1.517-4.084c-0.474-0.663-0.814-0.848-1.261-1.663
		c-0.337-0.615-0.166-0.55-0.58-1.361c-0.115-0.224-0.21-0.39-0.156-0.58c0.084-0.296,0.501-0.546,0.826-0.469
		c0.357,0.085,0.285,0.491,0.87,1.183c0.397,0.47,0.598,0.48,0.692,0.826c0.096,0.354-0.05,0.579,0.134,0.826
		c0.117,0.157,0.352,0.302,0.536,0.245c0.362-0.113,0.565-1.031,0.29-1.718c-0.159-0.396-0.358-0.421-0.379-0.759
		c-0.024-0.374,0.188-0.815,0.29-1.027c0.116-0.241,0.214-0.374,0.156-0.513c-0.056-0.134-0.244-0.245-0.379-0.201
		c-0.287,0.094-0.122,0.82-0.424,0.937c-0.182,0.071-0.478-0.101-0.58-0.312c-0.087-0.179-0.011-0.338-0.089-0.379
		c-0.127-0.067-0.348,0.338-0.558,0.29c-0.199-0.046-0.366-0.493-0.201-0.759c0.116-0.187,0.359-0.223,0.513-0.245
		c0.363-0.053,0.469,0.096,0.736,0.067c0.501-0.055,0.921-0.665,0.826-0.826c-0.061-0.103-0.359-0.061-0.558,0.022
		c-0.296,0.124-0.293,0.306-0.558,0.402c-0.233,0.084-0.555,0.059-0.692-0.112c-0.116-0.145-0.013-0.291-0.134-0.446
		c-0.118-0.151-0.286-0.105-0.491-0.178c-0.486-0.175-0.377-0.733-0.87-1.027c-0.31-0.184-0.417-0.001-0.87-0.179
		c-0.586-0.228-0.846-0.705-0.893-0.669c-0.047,0.036,0.216,0.532,0.669,1.138c0.692,0.926,1.041,1.056,1.16,1.629
		c0.033,0.156,0.143,0.685-0.178,1.004c-0.271,0.269-0.772,0.315-1.071,0.112c-0.354-0.24-0.241-0.703-0.469-1.517
		c-0.145-0.521-0.337-0.853-0.669-1.428c-0.869-1.504-1.617-1.608-2.388-3.057c-0.286-0.537-0.141-0.444-0.469-1.116
		c-0.859-1.762-2.173-3.059-2.722-3.593c-0.771-0.75-1.484-1.296-1.339-1.808c0.054-0.189,0.196-0.276,0.424-0.781
		c0.231-0.513,0.149-0.567,0.29-0.714c0.393-0.408,1.045-0.008,1.361-0.402c0.184-0.229,0.047-0.468,0.335-0.781
		c0.118-0.128,0.239-0.194,0.223-0.29c-0.018-0.113-0.215-0.224-0.357-0.178c-0.223,0.071-0.13,0.468-0.379,0.603
		c-0.216,0.116-0.379-0.131-0.692-0.022c-0.22,0.077-0.213,0.226-0.469,0.312c-0.257,0.087-0.339-0.038-0.469,0.045
		c-0.274,0.174,0.035,0.764-0.312,1.16c-0.033,0.038-0.2,0.229-0.379,0.201c-0.283-0.044-0.32-0.591-0.603-1.183
		c-0.126-0.264-0.397-0.571-0.937-1.183c-0.439-0.497-0.791-0.963-1.495-1.897c-0.079-0.104-0.214-0.289-0.156-0.446
		c0.089-0.242,0.54-0.165,0.87-0.357c0.578-0.337,0.563-1.371,0.558-1.674c-0.01-0.634-0.202-1.439-1.852-3.615
		c-1.758-2.319-2.637-3.478-3.347-3.905c-0.226-0.136-0.834-0.477-0.803-0.87c0.02-0.253,0.303-0.51,0.58-0.536
		c0.333-0.031,0.412,0.295,0.759,0.312c0.456,0.023,0.55-0.528,1.094-0.603c0.469-0.065,0.591,0.318,1.049,0.223
		c0.456-0.095,0.608-0.531,0.893-0.446c0.144,0.043,0.253,0.197,0.268,0.335c0.019,0.177-0.128,0.239-0.223,0.469
		c-0.167,0.404,0.088,0.696-0.067,0.826c-0.177,0.149-0.643-0.127-0.692-0.156c-0.326-0.196-0.474-0.46-0.536-0.424
		c-0.071,0.041,0.152,0.381,0,0.647c-0.073,0.128-0.165,0.12-0.201,0.201c-0.11,0.246,0.55,0.739,1.205,1.294
		c0.964,0.816,1.402,1.329,1.674,1.941c0.068,0.154,0.276,0.632,0.112,0.781c-0.167,0.152-0.617-0.124-0.647-0.067
		c-0.036,0.068,0.586,0.48,1.339,1.094c0.362,0.295,0.458,0.396,0.491,0.558c0.095,0.463-0.451,0.795-0.312,1.071
		c0.098,0.195,0.484,0.254,0.736,0.134c0.371-0.176,0.435-0.73,0.402-1.049c-0.042-0.406-0.249-0.494-0.179-0.736
		c0.072-0.25,0.312-0.235,0.781-0.603c0.482-0.377,0.537-0.634,0.714-0.603c0.273,0.049,0.518,0.725,0.29,1.071
		c-0.203,0.308-0.666,0.184-0.781,0.469c-0.088,0.217,0.092,0.513,0.245,0.669c0.391,0.401,0.852,0.15,1.183,0.558
		c0.127,0.157,0.145,0.299,0.335,0.402c0.186,0.1,0.428,0.104,0.469,0.022c0.047-0.093-0.216-0.208-0.268-0.491
		c-0.037-0.2,0.033-0.472,0.201-0.558c0.165-0.085,0.311,0.07,0.915,0.335c0.583,0.256,0.647,0.199,0.736,0.335
		c0.208,0.315-0.1,0.674,0.156,1.138c0.036,0.064,0.13,0.236,0.223,0.223c0.19-0.026,0.044-0.781,0.424-1.071
		c0.273-0.208,0.744-0.122,1.049,0.045c0.746,0.407,0.479,1.284,1.138,1.629c0.555,0.291,1.039-0.178,1.54,0.223
		c0.182,0.145,0.407,0.438,0.312,0.669c-0.093,0.227-0.468,0.331-0.692,0.223c-0.208-0.101-0.21-0.351-0.357-0.357
		c-0.143-0.006-0.259,0.228-0.312,0.335c-0.057,0.114-0.193,0.387-0.089,0.513c0.141,0.173,0.556-0.143,0.803,0.045
		c0.157,0.119,0.072,0.307,0.178,0.781c0.078,0.348,0.163,0.724,0.446,0.915c0.377,0.254,0.951,0.08,0.96-0.022
		c0.009-0.109-0.629-0.141-0.669-0.402c-0.026-0.168,0.206-0.36,0.402-0.446c0.319-0.14,0.462,0.037,0.736-0.045
		c0.561-0.166,0.63-1.099,0.915-1.071c0.115,0.011,0.196,0.174,0.223,0.268c0.103,0.357-0.318,0.558-0.268,0.937
		c0.02,0.153,0.09,0.131,0.446,0.625c0.406,0.562,0.391,0.694,0.357,0.759c-0.071,0.135-0.282,0.082-0.312,0.179
		c-0.052,0.163,0.527,0.374,1.071,0.937c0.246,0.255,0.583,0.604,0.513,0.96c-0.057,0.291-0.34,0.351-0.312,0.536
		c0.046,0.309,0.853,0.219,1.071,0.692c0.106,0.23,0.056,0.558-0.112,0.692c-0.173,0.139-0.396,0.009-0.491,0.134
		c-0.083,0.109,0.005,0.316,0.201,0.669c0.353,0.639,0.481,0.713,0.603,0.982c0.274,0.608,0.138,1.376-0.067,1.428
		c-0.279,0.07-0.609-1.196-1.227-1.183c-0.34,0.007-0.555,0.397-0.803,0.29c-0.216-0.093-0.169-0.437-0.335-0.469
		c-0.183-0.035-0.506,0.332-0.446,0.647c0.041,0.218,0.252,0.34,0.402,0.424c0.661,0.37,1.161,0.062,1.384,0.335
		c0.208,0.254-0.196,0.557-0.112,1.205c0.067,0.509,0.39,0.888,0.87,1.451c0.369,0.433,0.438,0.395,0.625,0.692
		c0.326,0.517,0.165,0.707,0.424,1.294c0.089,0.203,0.461,1.047,1.25,1.384c0.419,0.179,0.751,0.127,0.803,0.313
		c0.078,0.276-0.598,0.586-0.513,0.893c0.066,0.241,0.541,0.259,0.536,0.379c-0.008,0.181-1.078,0.135-1.183,0.491
		c-0.089,0.304,0.584,0.709,0.491,0.87c-0.083,0.142-0.614-0.164-0.826,0.045c-0.188,0.185,0.133,0.521,0.045,1.183
		c-0.059,0.445-0.243,0.581-0.134,0.803c0.126,0.255,0.497,0.34,0.669,0.379c0.367,0.084,0.634,0.012,0.647,0.067
		c0.02,0.083-0.609,0.135-0.848,0.558c-0.19,0.335-0.054,0.762,0.022,1.004c0.211,0.667,0.625,0.861,0.524,1.088
		c-0.101,0.227-0.641,0.307-0.87,0.1c-0.193-0.174-0.061-0.456-0.268-0.603c-0.161-0.115-0.45-0.091-0.569,0.05
		c-0.132,0.157,0.045,0.344-0.017,0.82c-0.034,0.265-0.109,0.357-0.05,0.418c0.103,0.107,0.399-0.109,0.854-0.218
		c0.074-0.018,0.501-0.115,0.954-0.033c0.575,0.104,1.28,0.513,1.651,1.121c0.075,0.123,0.2,0.357,0.29,0.335
		c0.097-0.024,0.018-0.311,0.179-0.469c0.213-0.21,0.788-0.132,0.959,0.156c0.165,0.276-0.115,0.621,0.022,0.736
		c0.144,0.122,0.456-0.261,0.915-0.29c0.602-0.038,1.183,0.549,1.451,1.049c0.266,0.496,0.094,0.665,0.29,1.607
		c0.187,0.901,0.316,1.522,0.803,1.808c0.705,0.414,1.91-0.022,2.008-0.513c0.037-0.184-0.104-0.263-0.245-0.58
		c-0.363-0.812,0.155-1.191-0.067-1.941c-0.248-0.841-1.067-0.94-1.071-1.696c0-0.088-0.002-0.428,0.201-0.558
		c0.181-0.116,0.414,0.005,0.469-0.089c0.073-0.126-0.312-0.388-0.245-0.558c0.072-0.184,0.577-0.016,0.692-0.201
		c0.196-0.314-1.053-1.151-0.848-1.785c0.108-0.336,0.536-0.337,0.558-0.647c0.013-0.176-0.117-0.29-0.692-0.848
		c-0.598-0.581-0.732-0.722-0.736-0.937c-0.005-0.232,0.139-0.506,0.335-0.558c0.237-0.063,0.371,0.249,0.982,0.469
		c0.304,0.109,0.316,0.048,0.424,0.134c0.356,0.281,0.077,0.819,0.446,1.205c0.205,0.214,0.371,0.131,0.469,0.335
		c0.148,0.309-0.172,0.626,0,0.87c0.096,0.137,0.218,0.066,0.357,0.201c0.303,0.292,0.027,0.911,0.179,0.982
		c0.135,0.063,0.318-0.44,0.826-0.625c0.368-0.134,0.851-0.082,1.16,0.201c0.088,0.081,0.302,0.276,0.268,0.491
		c-0.043,0.274-0.442,0.294-1.116,0.736c-0.378,0.248-0.724,0.481-0.714,0.781c0.006,0.18,0.14,0.376,0.268,0.379
		c0.214,0.005,0.234-0.534,0.58-0.692c0.315-0.143,0.751,0.097,0.982,0.29c0.374,0.313,0.347,0.622,0.647,2.589
		c0.158,1.036,0.276,1.669-0.089,2.008c-0.127,0.118-0.282,0.173-0.335,0.357c-0.076,0.269,0.163,0.478,0.357,0.893
		c0.143,0.305,0.062,0.294,0.245,1.027c0.283,1.131,0.478,1.162,0.402,1.562c-0.076,0.399-0.325,0.661-0.179,0.915
		c0.089,0.155,0.233,0.147,0.268,0.29c0.052,0.213-0.235,0.349-0.357,0.67c-0.133,0.349,0.01,0.706,0.067,0.848
		c0.149,0.37,0.342,0.37,1.227,1.094c0.476,0.389,0.605,0.541,0.826,0.513c0.303-0.038,0.358-0.363,0.647-0.491
		c0.534-0.237,1.32,0.442,1.562,0.647c0.262,0.222,2.545,2.133,4.798,2.99c0.819,0.312,1.521,0.441,2.611,1.093
		c0.731,0.438,0.662,0.527,1.138,0.781c1.24,0.661,3.04,0.765,4.396,0.022c0.461-0.253,0.954-0.823,1.941-1.964
		c1.232-1.423,1.386-1.946,2.232-2.276c0.594-0.232,0.925-0.133,1.584-0.536c0.698-0.426,0.595-0.701,1.138-0.937
		c0.551-0.24,0.727,0.013,2.254-0.022c0.796-0.019,0.864-0.09,1.093,0.022c0.595,0.292,0.484,0.94,1.16,1.339
		c0.334,0.197,0.399,0.062,0.982,0.313c0.494,0.212,1.028,0.442,1.049,0.759c0.031,0.479-1.146,0.583-1.406,1.495
		c-0.081,0.286-0.012,0.439-0.178,0.759c-0.204,0.392-0.431,0.396-0.558,0.736c-0.148,0.398,0.111,0.532-0.022,0.893
		c-0.177,0.481-0.708,0.434-0.803,0.848c-0.085,0.367,0.306,0.512,0.223,0.915c-0.079,0.386-0.469,0.406-0.558,0.848
		c-0.058,0.289,0.1,0.324,0.045,0.625c-0.087,0.471-0.512,0.587-0.469,0.893c0.031,0.221,0.258,0.19,0.335,0.424
		c0.149,0.451-0.595,0.866-0.446,1.384c0.05,0.175,0.143,0.155,0.178,0.335c0.068,0.344-0.247,0.543-0.446,0.982
		c-0.253,0.556,0.02,0.75-0.178,1.227c-0.165,0.397-0.41,0.396-1.205,0.982c-1.111,0.818-1.338,1.34-1.808,1.25
		c-0.363-0.07-0.454-0.426-0.848-0.402c-0.259,0.016-0.546,0.19-0.58,0.402c-0.038,0.238,0.273,0.334,0.379,0.647
		c0.136,0.4-0.211,0.721-0.536,1.361c-0.195,0.384-0.619,1.222-0.491,2.165c0.043,0.315,0.125,0.925,0.58,1.406
		c0.263,0.278,0.499,0.352,0.513,0.58c0.018,0.283-0.331,0.379-0.736,0.87c-0.504,0.611-0.444,1.046-0.692,1.071
		c-0.312,0.032-0.783-0.616-0.759-1.25c0.026-0.669,0.587-0.856,0.513-1.227c-0.16-0.803-2.968-0.861-3.414-0.87
		c-1.167-0.024-2.089-0.043-3.258,0.379c-1.103,0.399-2.428,0.878-2.923,2.008c-0.2,0.456-0.318,1.141-0.915,1.451
		c-0.273,0.142-0.465,0.111-0.647,0.312c-0.18,0.198-0.199,0.456-0.112,1.317c0.164,1.606,0.37,2.043,0.603,2.343
		c0.088,0.113,0.202,0.258,0.402,0.379c0.446,0.272,0.776,0.095,0.893,0.268c0.183,0.27-0.571,0.771-0.893,1.852
		c-0.195,0.654,0.01,0.711-0.223,1.272c-0.239,0.576-0.488,0.599-0.937,1.384c-0.168,0.294-0.363,0.634-0.491,1.116
		c-0.205,0.772,0.024,0.929-0.201,1.451c-0.281,0.652-0.886,0.984-1.004,1.049c-0.581,0.319-0.779,0.099-1.049,0.379
		c-0.435,0.453-0.026,1.14-0.536,1.651c-0.202,0.202-0.311,0.14-0.469,0.357c-0.293,0.403,0.002,0.732-0.178,1.16
		c-0.23,0.547-0.857,0.355-1.517,1.049c-0.385,0.405-0.238,0.54-0.625,1.004c-0.54,0.648-1.032,0.631-1.651,1.071
		c-0.239,0.17-0.529,0.43-1.384,2.098c-1.235,2.408-0.853,2.301-1.361,2.879c-0.942,1.071-1.844,0.977-2.678,2.321
		c-0.306,0.493-0.209,0.546-0.491,0.893c-0.74,0.911-1.455,0.606-2.522,1.473c-0.761,0.619-0.731,1.046-1.406,1.25
		c-0.437,0.132-0.662,0.017-1.183,0.245c-0.588,0.258-0.65,0.558-0.96,0.536c-0.465-0.033-0.956-0.755-0.915-1.406
		c0.038-0.602,0.502-0.71,0.469-1.183c-0.048-0.678-1.07-1.356-1.808-1.183c-0.378,0.089-0.349,0.323-0.736,0.469
		c-0.403,0.152-0.822,0.043-2.544-0.87c-1.324-0.702-1.407-0.813-1.451-0.96c-0.243-0.809,0.843-2.21,2.008-2.41
		c0.423-0.073,0.913,0.003,1.004-0.223c0.083-0.206-0.286-0.36-0.29-0.692c-0.007-0.534,0.944-0.602,1.428-1.517
		c0.205-0.388,0.08-0.462,0.312-0.915c0.342-0.665,0.869-1.005,1.049-1.138c1.566-1.154,1.648-4.849,1.651-5.088
		c0.009-0.642,0.013-2.176-0.781-3.727C123.347,89.161,122.977,88.701,122.872,88.574z"/>
	<path fill="#1E8346" d="M128.239,31.904c0.012-0.258,0.432-0.357,0.413-0.558c-0.021-0.217-0.527-0.29-0.513-0.424
		c0.014-0.135,0.535-0.117,0.58-0.312c0.031-0.135-0.201-0.211-0.212-0.402c-0.016-0.272,0.426-0.626,0.681-0.536
		c0.254,0.09,0.077,0.534,0.413,0.982c0.375,0.501,0.955,0.423,1.015,0.77c0.048,0.277-0.316,0.371-0.324,0.736
		c-0.008,0.404,0.432,0.494,0.591,1.027c0.136,0.455,0.001,1.014-0.212,1.071c-0.213,0.057-0.304-0.44-1.004-1.027
		c-0.773-0.648-1.105-0.904-1.105-0.904C128.408,32.209,128.231,32.076,128.239,31.904z"/>
	<path fill="#1E8346" d="M124.836,31.848c-0.055-0.285,0.434-0.742,0.781-0.603c0.221,0.089,0.383,0.419,0.268,0.669
		c-0.128,0.277-0.523,0.295-0.759,0.201C125.075,32.096,124.868,32.013,124.836,31.848z"/>
	<path fill="#1E8346" d="M133.071,37.829c-0.122,0.127,0.158,0.749,0.625,0.915c0.02,0.007,0.299,0.104,0.379,0
		c0.088-0.114-0.103-0.421-0.29-0.603C133.553,37.916,133.169,37.727,133.071,37.829z"/>
	<path fill="#1E8346" d="M123.899,40.261c0.103-0.125,0.452,0.21,0.915,0.156c0.527-0.061,0.668-0.565,1.049-0.491
		c0.216,0.042,0.409,0.251,0.402,0.424c-0.005,0.125-0.112,0.185-0.357,0.402c-0.459,0.406-0.392,0.468-0.558,0.536
		c-0.453,0.185-1.097-0.214-1.361-0.669C123.946,40.546,123.83,40.345,123.899,40.261z"/>
	<path fill="#1E8346" d="M126.242,41.332c-0.126,0.008-0.238,0.283-0.201,0.513c0.024,0.146,0.118,0.336,0.223,0.335
		c0.126-0.001,0.263-0.276,0.223-0.513C126.461,41.51,126.349,41.325,126.242,41.332z"/>
	<path fill="#1E8346" d="M122.225,40.239c0.001-0.2,0.431-0.351,0.736-0.379c0.134-0.012,0.322-0.029,0.379,0.067
		c0.07,0.117-0.086,0.349-0.245,0.469c-0.157,0.118-0.42,0.204-0.647,0.089C122.413,40.466,122.225,40.371,122.225,40.239z"/>
	<path fill="#1E8346" d="M94.186,96.095c0.525-0.246,0.524-0.37,0.519-0.402c-0.022-0.138-0.374-0.124-0.402-0.251
		c-0.033-0.151,0.407-0.414,0.921-0.602c0.528-0.193,2.018-0.739,3.28,0.067c0.344,0.22,0.777,0.528,0.72,0.669
		c-0.054,0.132-0.505,0.048-1.958-0.067c-0.755-0.06-0.917-0.059-1.121,0.033c-0.501,0.227-0.825,0.815-0.854,1.339
		c-0.07,1.307,1.692,2.381,2.36,2.092c0.048-0.021,0.041-0.027,0.603-0.368c0.442-0.268,0.555-0.331,0.653-0.285
		c0.162,0.077,0.038,0.34,0.218,0.653c0.216,0.377,0.556,0.273,0.753,0.619c0.174,0.306,0.095,0.717-0.034,0.971
		c-0.208,0.412-0.525,0.372-0.586,0.669c-0.078,0.383,0.426,0.561,0.402,1.071c-0.016,0.344-0.25,0.376-0.234,0.669
		c0.022,0.411,0.486,0.446,0.803,1.004c0.315,0.555,0.069,0.894,0.368,1.155c0.293,0.256,0.856,0.217,1.255,0.017
		c0.928-0.464,0.832-1.727,1.657-1.908c0.26-0.057,0.268,0.069,0.536,0c0.774-0.2,0.82-1.282,1.372-1.339
		c0.374-0.039,0.481,0.444,0.954,0.435c0.53-0.009,1.016-0.625,0.921-0.82c-0.072-0.147-0.447,0.007-0.519-0.134
		c-0.125-0.246,0.778-1.19,1.423-1.021c0.2,0.053,0.188,0.163,0.368,0.184c0.498,0.057,0.815-0.759,1.238-0.653
		c0.023,0.006,0.13,0.033,0.167,0.117c0.104,0.235-0.385,0.803-0.987,1.038c-0.407,0.159-0.55,0.042-0.837,0.234
		c-0.414,0.278-0.559,0.82-0.469,0.887c0.103,0.077,0.445-0.508,1.138-0.603c0.208-0.028,0.595-0.033,0.653,0.117
		c0.129,0.338-1.567,1.053-1.439,1.674c0.059,0.287,0.456,0.302,0.485,0.586c0.052,0.493-1.102,0.873-1.038,1.054
		c0.051,0.144,0.869,0.181,1.372-0.268c0.291-0.259,0.302-0.524,0.603-0.619c0.278-0.088,0.386,0.101,0.753,0.067
		c0.486-0.046,0.919-0.436,0.87-0.586c-0.036-0.11-0.338-0.113-0.485-0.1c-0.441,0.037-0.558,0.297-0.87,0.251
		c-0.253-0.037-0.4-0.241-0.418-0.268c-0.24-0.344-0.088-0.902,0.134-0.971c0.164-0.05,0.254,0.201,0.552,0.218
		c0.325,0.018,0.661-0.255,0.636-0.418c-0.019-0.123-0.23-0.099-0.301-0.251c-0.139-0.297,0.391-0.983,0.753-0.92
		c0.222,0.038,0.279,0.34,0.435,0.318c0.179-0.026,0.133-0.429,0.402-0.619c0.308-0.219,0.887-0.058,0.937,0.151
		c0.055,0.227-0.537,0.44-0.485,0.803c0.003,0.024,0.027,0.17,0.117,0.201c0.24,0.082,0.584-0.781,0.971-0.72
		c0.085,0.014,0.176,0.073,0.201,0.151c0.051,0.16-0.218,0.268-0.385,0.586c-0.218,0.414-0.02,0.724-0.234,0.87
		c-0.177,0.121-0.363-0.056-0.519,0.067c-0.194,0.153,0.02,0.488-0.134,0.82c-0.075,0.161-0.206,0.256-0.954,0.552
		c-0.889,0.353-1.298,0.455-1.289,0.569c0.008,0.097,0.298,0.153,0.469,0.167c0.419,0.036,0.562-0.144,1.105-0.218
		c0.174-0.024,0.334-0.021,0.653-0.017c0.593,0.008,0.889,0.013,0.954,0.117c0.206,0.329-0.749,1.435-1.105,1.289
		c-0.18-0.074-0.155-0.444-0.318-0.469c-0.142-0.021-0.287,0.238-0.351,0.352c-0.824,1.454-0.958,1.409-0.937,1.674
		c0.061,0.78,1.19,0.706,1.389,1.623c0.107,0.494-0.026,1.403-0.1,1.908c-0.015,0.105-0.068,0.448,0.067,0.519
		c0.112,0.059,0.243-0.129,0.502-0.167c0.286-0.042,0.637,0.113,0.736,0.318c0.136,0.28-0.199,0.641-0.837,1.456
		c-1.259,1.607-0.834,1.32-1.724,2.393c-0.304,0.367-0.608,0.707-0.77,1.272c-0.141,0.491-0.007,0.569-0.134,0.904
		c-0.261,0.69-0.913,0.592-1.824,1.406c-0.411,0.367-0.893,0.797-1.155,1.506c-0.143,0.388-0.177,0.738-0.502,1.071
		c-0.277,0.283-0.571,0.353-0.77,0.435c-0.361,0.148-0.676,0.441-1.607,2.494c-0.728,1.605-1.091,2.407-1.222,2.946
		c-0.129,0.533-0.182,0.953-0.536,1.423c-0.361,0.48-0.588,0.416-1.239,1.021c-0.751,0.698-0.666,0.984-1.222,1.305
		c-0.609,0.353-0.779,0.049-1.49,0.351c-1.033,0.44-1.552,1.456-1.774,1.891c-0.239,0.469-0.344,0.867-0.385,1.038
		c-0.145,0.61-0.047,0.765-0.05,2.075c-0.003,1.157-0.08,1.424,0.167,1.757c0.266,0.36,0.659,0.46,0.619,0.619
		c-0.047,0.19-0.608,0.046-1.121,0.435c-0.228,0.172-0.481,0.476-0.402,0.636c0.06,0.12,0.31,0.165,0.485,0.084
		c0.24-0.111,0.187-0.384,0.385-0.469c0.272-0.116,0.54,0.331,0.837,0.234c0.299-0.097,0.321-0.646,0.469-0.636
		c0.151,0.01,0.16,0.586,0.368,0.619c0.133,0.022,0.173-0.206,0.368-0.268c0.324-0.102,0.492,0.435,1.272,0.837
		c0.289,0.149,0.536,0.214,0.653,0.469c0.067,0.146,0.067,0.3,0.067,0.402c0,0.278-0.087,0.38-0.134,0.636
		c-0.073,0.398,0.079,0.468,0.017,0.72c-0.103,0.413-0.666,0.848-1.205,0.72c-0.343-0.082-0.673-0.391-0.686-0.703
		c-0.011-0.253,0.191-0.404,0.117-0.502c-0.085-0.113-0.467-0.06-0.569,0.134c-0.041,0.079-0.029,0.167,0.184,0.736
		c0.136,0.365,0.162,0.41,0.134,0.469c-0.104,0.218-0.77,0.24-1.322,0c-0.808-0.351-0.733-0.987-1.439-1.222
		c-0.483-0.161-0.978-0.017-1.439,0.117c-0.572,0.166-0.757,0.373-1.305,0.418c-0.408,0.034-0.629-0.054-0.87-0.084
		c-0.862-0.107-1.232,0.62-2.628,1.439c-1.523,0.894-2.4,0.802-3.046,1.607c-0.079,0.099-0.279,0.366-0.636,0.619
		c-0.422,0.299-0.791,0.385-1.054,0.469c-1.14,0.36-1.916,1.177-2.293,1.573c-0.261,0.275-0.634,0.667-0.937,1.289
		c-0.41,0.839-0.228,1.142-0.619,1.925c-0.448,0.896-0.805,0.737-1.088,1.439c-0.292,0.725-0.018,1.159,0.1,2.628
		c0.074,0.911,0.123,1.518,0,2.226c-0.194,1.122-0.749,1.964-1.858,3.649c-0.313,0.476-0.601,0.968-0.921,1.439
		c-0.649,0.959-0.917,1.244-0.854,1.674c0.081,0.545,0.614,0.777,0.485,1.138c-0.095,0.267-0.43,0.26-0.519,0.586
		c-0.068,0.247,0.105,0.324,0.067,0.586c-0.054,0.375-0.439,0.432-0.736,0.87c-0.246,0.362-0.092,0.483-0.284,0.921
		c-0.386,0.878-1.197,0.826-1.289,1.473c-0.051,0.356,0.133,0.808,0.435,0.987c0.205,0.121,0.391,0.073,0.418,0.167
		c0.063,0.212-0.877,0.481-0.904,1.004c-0.006,0.13,0.043,0.285,0.134,0.318c0.125,0.045,0.306-0.151,0.502-0.368
		c0.334-0.369,0.404-0.585,0.519-0.569c0.157,0.022,0.211,0.451,0.218,0.502c0.01,0.082,0.081,0.642-0.201,1.004
		c-0.368,0.471-0.972,0.141-2.293,0.452c-0.416,0.098-0.952,0.23-1.523,0.619c-0.274,0.187-0.884,0.603-1.188,1.356
		c-0.267,0.661,0.021,0.793-0.251,1.439c-0.049,0.116-0.524,1.205-1.423,1.389c-0.377,0.077-0.687-0.034-0.854,0.184
		c-0.153,0.2,0.034,0.392-0.1,0.636c-0.169,0.306-0.554,0.168-1.155,0.519c-0.267,0.156-0.525,0.307-0.619,0.586
		c-0.144,0.428,0.264,0.666,0.167,1.104c-0.079,0.359-0.383,0.334-0.937,0.87c-0.688,0.665-0.699,1.167-1.138,1.222
		c-0.354,0.044-0.436-0.27-0.803-0.234c-0.518,0.05-0.519,0.692-1.188,1.054c-0.164,0.089-0.628,0.137-1.557,0.234
		c-0.67,0.07-0.869,0.063-1.188,0.218c-0.388,0.187-0.403,0.345-0.72,0.418c-0.332,0.077-0.418-0.073-1.104-0.184
		c-0.677-0.109-0.767,0.008-1.038-0.151c-0.407-0.239-0.27-0.544-0.653-0.736c-0.388-0.196-0.654,0.055-1.121-0.201
		c-0.23-0.126-0.238-0.226-0.385-0.234c-0.311-0.018-0.394,0.425-0.854,0.72c-0.477,0.306-1.163,0.326-1.322,0.084
		c-0.074-0.114-0.047-0.306,0.05-0.402c0.184-0.18,0.569,0.033,0.636-0.084c0.05-0.087-0.107-0.304-0.301-0.418
		c-0.344-0.202-0.884-0.128-1.021,0.134c-0.139,0.267,0.223,0.57,0.067,0.82c-0.113,0.181-0.417,0.201-0.603,0.167
		c-0.593-0.109-0.969-0.952-0.787-1.188c0.08-0.104,0.205-0.009,0.536-0.117c0.114-0.037,0.48-0.162,0.669-0.502
		c0.086-0.154,0.171-0.416,0.084-0.485c-0.138-0.109-0.487,0.433-0.854,0.351c-0.394-0.087-0.335-0.789-1.054-1.356
		c-0.083-0.065-0.156-0.11-0.301-0.201c-0.426-0.264-0.972-0.604-1.205-0.435c-0.12,0.087-0.026,0.214-0.151,0.335
		c-0.222,0.215-0.611-0.101-1.088,0.067c-0.284,0.1-0.236,0.244-0.485,0.335c-0.519,0.19-1.325-0.215-1.623-0.82
		c-0.198-0.402,0.011-0.52-0.167-0.954c-0.241-0.586-0.824-0.859-1.456-1.155c-0.684-0.32-1.026-0.481-1.339-0.351
		c-0.65,0.268-0.483,1.379-1.054,1.523c-0.406,0.103-0.701-0.405-1.272-0.251c-0.239,0.064-0.247,0.169-0.469,0.268
		c-0.619,0.276-1.091-0.307-1.975-0.418c-0.934-0.117-0.997,0.459-2.025,0.351c-0.127-0.013-1.238-0.145-1.674-0.937
		c-0.172-0.313-0.242-0.736-0.1-0.837c0.131-0.093,0.333,0.166,0.619,0.1c0.32-0.073,0.621-0.525,0.485-0.803
		c-0.091-0.186-0.376-0.294-0.603-0.234c-0.378,0.1-0.401,0.618-0.703,0.636c-0.165,0.01-0.338-0.133-0.385-0.285
		c-0.065-0.209,0.119-0.413,0.485-0.82c0.309-0.344,0.463-0.515,0.686-0.552c0.243-0.04,0.387,0.078,0.552-0.034
		c0.127-0.085,0.224-0.276,0.167-0.385c-0.134-0.257-1.083,0.035-1.138-0.134c-0.031-0.097,0.263-0.246,0.218-0.368
		c-0.022-0.058-0.113-0.09-0.184-0.084c-0.222,0.021-0.285,0.421-0.469,0.736c-0.332,0.57-1.113,0.958-1.439,0.77
		c-0.201-0.116-0.105-0.377-0.218-1.573c-0.08-0.848-0.151-0.968-0.033-1.155c0.235-0.372,0.751-0.263,1.819-0.43
		c1.063-0.165,2.267-0.541,2.254-0.826c-0.008-0.177-0.487-0.373-0.759-0.446c-0.271-0.073-0.459-0.057-0.513-0.179
		c-0.066-0.148,0.127-0.366,0.179-0.424c0.358-0.405,1.03-0.197,1.093-0.424c0.016-0.059-0.012-0.125-0.047-0.159
		c-0.069-0.067-0.2-0.049-0.527,0.059c-0.454,0.148-0.542,0.225-0.619,0.176c-0.132-0.084-0.066-0.434,0.008-0.644
		c0.19-0.537,0.731-0.991,1.029-0.879c0.137,0.052,0.177,0.204,0.268,0.184c0.106-0.024,0.189-0.262,0.109-0.385
		c-0.092-0.14-0.374-0.094-0.485-0.075c-0.797,0.132-1.083,0.904-1.439,0.812c-0.205-0.053-0.288-0.354-0.343-0.552
		c-0.233-0.84,0.217-1.946,0.82-2.059c0.497-0.093,0.77,0.1,0.77,0.1c0.053,0.038,0.154,0.122,0.201,0.092
		c0.05-0.032,0.011-0.174,0.008-0.184c-0.099-0.363-0.872-0.267-1.088-0.636c-0.23-0.392,0.201-1.254,0.669-1.322
		c0.255-0.037,0.352,0.186,1.071,0.477c0.392,0.159,0.592,0.236,0.753,0.151c0.281-0.149,0.334-0.685,0.218-1.071
		c-0.098-0.327-0.248-0.317-0.427-0.686c-0.221-0.458-0.302-1.118-0.008-1.364c0.116-0.097,0.311-0.147,0.427-0.075
		c0.171,0.106,0.1,0.434,0.226,0.469c0.069,0.019,0.177-0.055,0.218-0.151c0.094-0.22-0.234-0.398-0.259-0.828
		c-0.003-0.058-0.021-0.351,0.134-0.444c0.147-0.088,0.323,0.083,0.427,0c0.115-0.091-0.063-0.327,0.042-0.636
		c0.067-0.197,0.236-0.386,0.368-0.368c0.124,0.017,0.166,0.209,0.251,0.193c0.06-0.012,0.1-0.119,0.1-0.209
		c0.001-0.188-0.169-0.244-0.218-0.385c-0.091-0.262,0.34-0.523,1.046-1.289c0.317-0.344,0.485-0.567,0.636-0.519
		c0.096,0.031,0.145,0.166,0.243,0.435c0.122,0.336,0.137,0.544,0.184,0.544c0.043,0,0.09-0.176,0.1-0.351
		c0.026-0.448-0.203-0.593-0.209-0.895c-0.011-0.531,0.676-1.087,0.968-0.974c0.112,0.044,0.16,0.184,0.212,0.335
		c0.137,0.399,0,0.709,0.112,0.764c0.061,0.03,0.171-0.029,0.234-0.106c0.252-0.307-0.324-0.783-0.145-1.356
		c0.107-0.343,0.344-0.265,0.695-0.873c0.063-0.108,0.128-0.237,0.268-0.285c0.216-0.073,0.374,0.129,0.519,0.059
		c0.159-0.076,0.048-0.354,0.176-0.711c0.142-0.398,0.52-0.732,0.921-0.787c0.09-0.012,0.251-0.034,0.418,0.042
		c0.233,0.106,0.243,0.294,0.544,0.536c0.12,0.096,0.348,0.25,0.402,0.201c0.074-0.069-0.221-0.502-0.318-0.644
		c-0.32-0.47-0.435-0.474-0.519-0.669c-0.055-0.128-0.117-0.384,0.477-1.498c0.494-0.928,0.742-1.393,1.13-1.582
		c0.541-0.264,0.969-0.051,1.138-0.343c0.174-0.301-0.231-0.61-0.109-1.113c0.072-0.298,0.266-0.407,0.728-0.82
		c0.491-0.44,0.911-0.816,1.222-1.272c0.592-0.87,0.316-1.343,0.795-1.607c0.492-0.271,0.917,0.155,1.49-0.209
		c0.31-0.198,0.325-0.412,0.628-0.485c0.327-0.079,0.518,0.121,0.904,0.209c0.508,0.117,0.94-0.055,1.372-0.226
		c0.237-0.094,0.619-0.277,1.665-1.272c0.482-0.458,0.728-0.73,1.004-1.013c0.558-0.571,1.748-1.772,3.406-2.678
		c0.177-0.097,0.653-0.313,1.607-0.745c1.71-0.775,2.273-0.975,2.653-1.615c0.303-0.511,0.09-0.631,0.418-1.138
		c0.506-0.781,1.038-0.539,2.008-1.347c0.945-0.787,1.024-1.503,1.774-1.657c0.106-0.022,0.406-0.069,0.711-0.285
		c0.293-0.207,0.504-0.508,0.444-0.594c-0.076-0.108-0.525,0.191-0.695,0.025c-0.113-0.111-0.032-0.358-0.017-0.402
		c0.173-0.501,0.891-0.667,0.979-0.686c0.496-0.108,0.816,0.035,0.904-0.126c0.085-0.154-0.194-0.318-0.151-0.594
		c0.066-0.42,0.805-0.622,0.887-0.644c0.416-0.114,0.467,0.023,0.787-0.084c0.462-0.155,0.516-0.496,0.971-0.837
		c0.437-0.327,0.534-0.123,1.155-0.435c0.891-0.449,0.905-0.976,1.782-1.582c0.079-0.054,0.233-0.157,0.326-0.351
		c0.14-0.293,0.021-0.541,0.025-0.778c0.008-0.484,0.525-0.743,1.021-1.18c0.698-0.616,1.023-1.294,1.506-2.301
		c0.367-0.766,0.242-0.774,0.703-1.766c0.509-1.095,0.646-1.05,0.812-1.623c0.31-1.071-0.147-1.294,0.142-2.268
		c0.287-0.968,0.794-0.936,1.046-1.941c0.169-0.676-0.043-0.758,0.067-1.715c0.092-0.797,0.195-1.691,0.761-2.226
		c0.7-0.66,1.396-0.104,2.619-0.569c1.035-0.394,1.574-1.187,2.536-2.603c0.552-0.813,1.26-1.855,1.649-3.389
		c0.306-1.209,0.631-3.576,0.276-5.105c-0.031-0.133-0.116-0.473-0.017-0.879c0.069-0.283,0.248-0.673,1.172-1.372
		c0.797-0.603,1.789-1.354,2.812-1.515C93.614,96.363,93.805,96.273,94.186,96.095z"/>
	<path fill="#1E8346" d="M107.826,99.777c-0.062-0.108-0.08-0.277,0-0.351c0.096-0.09,0.242,0.04,0.351-0.033
		c0.168-0.113-0.05-0.504,0.117-0.787c0.118-0.2,0.377-0.341,0.552-0.285c0.194,0.063,0.214,0.343,0.318,0.335
		c0.128-0.009,0.086-0.432,0.368-0.636c0.139-0.1,0.362-0.153,0.452-0.067c0.168,0.16-0.13,0.8-0.469,1.205
		c-0.181,0.216-0.445,0.373-0.971,0.686c-0.109,0.065-0.269,0.156-0.452,0.117C108.04,99.949,107.901,99.909,107.826,99.777z"/>
	<path fill="#1E8346" d="M109.717,101.216c-0.044-0.243,0.17-0.425,0.201-0.452c0.197-0.168,0.437-0.141,0.502-0.134
		c0.1,0.011,0.304,0.034,0.351,0.151c0.097,0.239-0.473,0.856-0.82,0.736C109.827,101.474,109.74,101.339,109.717,101.216z"/>
	<path fill="#1E8346" d="M112.529,104.262c0.006-0.071,0.216-0.111,0.251-0.117c0.192-0.034,0.257,0.029,0.351-0.017
		c0.133-0.064,0.071-0.223,0.184-0.368c0.217-0.278,0.723-0.052,0.887-0.318c0.047-0.077,0.063-0.189,0.017-0.251
		c-0.082-0.11-0.318-0.005-0.351-0.067c-0.062-0.114,0.606-0.741,0.82-0.603c0.177,0.114-0.026,0.704-0.117,0.921
		c-0.078,0.187-0.245,0.571-0.636,0.787c-0.106,0.058-0.193,0.085-0.351,0.134c-0.235,0.072-0.463,0.139-0.72,0.084
		C112.711,104.413,112.524,104.331,112.529,104.262z"/>
	<path fill="#1E8346" d="M30.244,172.974c-0.184-0.273,0.643-1.103,0.728-1.188c0.31-0.311,0.592-0.587,1.046-0.678
		c0.181-0.036,0.537-0.108,0.787,0.092c0.261,0.209,0.249,0.588,0.234,1.054c-0.016,0.498-0.027,0.868-0.318,1.096
		c-0.224,0.175-0.61,0.263-0.837,0.1c-0.357-0.256-0.132-0.996-0.393-1.079c-0.101-0.032-0.215,0.051-0.318,0.125
		c-0.265,0.192-0.231,0.41-0.435,0.519C30.576,173.102,30.321,173.09,30.244,172.974z"/>
	<path fill="#1E8346" d="M34.202,165.284c-0.031-0.385,0.19-0.861,0.502-0.915c0.027-0.005,0.181-0.028,0.29,0.067
		c0.21,0.184-0.069,0.533,0.112,0.915c0.144,0.306,0.437,0.323,0.435,0.547c-0.001,0.154-0.141,0.311-0.29,0.357
		C34.882,166.367,34.249,165.864,34.202,165.284z"/>
	<path fill="#1E8346" d="M51.92,187.454c-0.063-0.317,0.345-0.709,0.647-0.614c0.201,0.063,0.369,0.346,0.279,0.614
		c-0.089,0.266-0.39,0.388-0.625,0.312C52.085,187.723,51.95,187.606,51.92,187.454z"/>
	<path fill="#1E8346" d="M44.093,187.493c-0.003-0.075-0.021-0.592,0.251-0.736c0.272-0.145,0.582,0.216,0.87,0.05
		c0.168-0.097,0.123-0.254,0.251-0.335c0.283-0.178,0.887,0.35,1.774,1.088c1.273,1.058,1.657,1.327,1.573,1.573
		c-0.068,0.201-0.423,0.311-0.686,0.285c-0.385-0.04-0.443-0.36-0.736-0.352c-0.432,0.013-0.723,0.72-0.82,0.954
		c-0.028,0.069-0.164,0.398-0.084,0.452c0.099,0.067,0.345-0.405,0.703-0.402c0.426,0.004,0.583,0.679,0.954,0.636
		c0.116-0.013,0.25-0.148,0.519-0.418c0.267-0.269,0.362-0.429,0.435-0.402c0.092,0.035-0.026,0.299,0.117,0.619
		c0.116,0.259,0.26,0.238,0.301,0.418c0.08,0.352-0.432,0.591-0.352,0.887c0.072,0.265,0.537,0.272,0.536,0.435
		c-0.001,0.073-0.094,0.188-0.72,0.351c-0.789,0.206-0.857,0.08-1.289,0.218c-0.392,0.125-0.362,0.239-1.607,0.971
		c-0.266,0.156-0.374,0.214-0.536,0.218c-0.545,0.012-0.921-0.608-1.088-0.502c-0.12,0.077,0.07,0.405-0.1,0.586
		c-0.177,0.188-0.556,0.02-0.619,0.15c-0.067,0.139,0.341,0.36,0.284,0.569c-0.048,0.177-0.364,0.104-0.686,0.385
		c-0.239,0.209-0.193,0.36-0.368,0.435c-0.304,0.13-0.864-0.148-0.954-0.536c-0.088-0.379,0.296-0.764,0.469-0.937
		c0.324-0.325,0.602-0.375,0.619-0.603c0.014-0.187-0.166-0.235-0.268-0.485c-0.183-0.452,0.054-1.153,0.435-1.289
		c0.364-0.13,0.704,0.31,0.954,0.134c0.144-0.101,0.174-0.348,0.134-0.519c-0.076-0.323-0.408-0.389-0.385-0.552
		c0.029-0.201,0.537-0.125,0.787-0.452c0.199-0.26,0.121-0.631,0.05-0.971c-0.026-0.123-0.06-0.239-0.502-1.239
		C44.162,187.845,44.101,187.71,44.093,187.493z"/>
	<path fill="#1E8346" d="M40.98,194.874c-0.048-0.21,0.292-0.513,0.502-0.435c0.194,0.072,0.281,0.468,0.117,0.619
		C41.429,195.215,41.026,195.075,40.98,194.874z"/>
	<path fill="#1E8346" d="M43.005,187.376c0.199-0.125,0.767,0.234,0.72,0.519c-0.033,0.198-0.368,0.386-0.603,0.285
		C42.817,188.047,42.83,187.486,43.005,187.376z"/>
</g>
</svg>
