<?xml version="1.0" encoding="utf-8"?>
<!-- Generator: Adobe Illustrator 26.0.3, SVG Export Plug-In . SVG Version: 6.00 Build 0)  -->
<svg version="1.1" id="Isolation_Mode" xmlns="http://www.w3.org/2000/svg" xmlns:xlink="http://www.w3.org/1999/xlink" x="0px"
	 y="0px" viewBox="0 0 200 200" style="enable-background:new 0 0 200 200;" xml:space="preserve">
<style type="text/css">
	.st0{fill:#1E8346;}
</style>
<g>
	<g>
		<path class="st0" d="M5.7,43.3c0.9-0.1,0.8,0.4,1.5,0.7c0.9-0.2,1.1-0.2,2,0.5c0.5,0.4,1.3,0.2,1.9,0.6c0.3,0.4,0.8,0.3,1.2,0.3
			c0.4,0,0.5,0.3,1.2,0.7c1,0.6,1.2,0.4,2.1,1c0.9,1.1,1.4,0.9,2.6,0.9c1,0.4,1.7,1.5,3.3,1.9c2,0.8,2.1,1.5,3.1,1.4
			c0.5,0,1-0.2,1.4,0.1c0.4,0.5,1,0.8,1.7,0.6c0.9-0.1,0.9,0.5,2.2,0.8c1.1,0.2,1.5-0.1,2.1,0.3c0.4,0.5,0.8,0.4,1.2,0
			c0.4-0.2,0.8,0.4,1.6,0.6c0.9-0.2,3,0.1,3.4,0.7c0.7,0.5,0.5,0.7,1.1,1.1c0.8,0.5,1.2,0.2,1.8,0.7c0.4,0.4,0.5,0.7,0.9,0.9
			c1.2-0.2,1,1.8,2.2,1.7c0.3-0.2,2.3-0.9,1.5,0c0.1,0.3,0.6,0.4,0.6,0.1c0.1,0,0,0.2,0.2,0.3c0.1,0,0.1,0,0.2,0
			c0.3,0.3,0.2,0.1,0-0.2c-0.6-0.4-0.3-0.5,0.3-0.5c0.3,0.1,0.6,0.5,0.9,0.3c0.3-0.8,0.8,0,1.9-0.1c0.3,0,0.5-0.1,0.6,0
			c0.1,0.3,0.4,0.8,0.7,1c-0.5,2.3,1.7,1.5,3.4,2.8c0.6,0.2,0.4,0.8,0.3,1.2c0.1,0.3,0.6,0,1.1,0.3c0.5,1,1.6,2.2,2.4,2.2
			c2.3,0.1,1.9-0.4,3.8,1.4c1.4,0.7,3.3,4,4.4,4.2c1.1,0.5,0.6,1,0.4,2.1c0,0.7,0.5,0.8,0.4,1.4c-0.1,0.6-0.5,0.9-0.4,1.5
			c0.5,0.7-0.4,1.3-0.2,2.2c-0.1,0.6-0.5,0.6-0.5,1c0,0.7,0.8,1.1,1.4,0.8c1,0.2,0.9,0.6,1.6-0.2c0.3,0.4,0.6,0.6,1.3,0.5
			c0.6,0.4,2,0.5,2.5,0.7c0.3,0.2,0.4,0.5,0.6,0.5c0.6-0.3,0.5-0.6,1.1,0.2c0.4,0.2,0.7-0.1,1.2,0c0.7,0.6,1.7,2.5,3,2.1
			c0.7,0.2,0.7,1.3,1.2,1.3c0.8-1,2.1,1,2.8,1c0.8-1.3,0.5,1.4,2.6,0.2c0.7-0.6,0.7-0.9,1.1-0.2c0.4,0,0.6-0.8,1,0.1
			c0.6,0.2,1,0.3,1.5,0.9c1.2,0.3,1.1,0.9,1.9,1.8c0.5,0.3,0.7,0.5,0.4,1c-0.3,0.2,1.6,1.2,1.7,1.4c0.1,0.2,0.1,0.3,0.2,1
			c0.1,0.5,0.2,0.5,0.2,0.8c0,0.6-0.3,0.7-0.3,1.1c0,0.6,0.6,0.8,0.6,1.2c-0.5,1.2-2.1,0.4-2.9,0.6c-0.9,1.5-1.8-0.1-2.9,0.2
			c-0.5,0.6-0.6,0.7-1.5,0.4c-0.7-0.1-0.8,0.1-1.2-0.1c-0.8-0.6-0.7-0.7-1.9-0.1c-1.2,0.3-1.1,0.1-1,1.2c-0.1,0.6-0.8,1.2-0.3,2
			c0.5,0.2,0.8,0.4,1,1c0.8,0.8,1,0.6,0.4,1.4c0.3,0.4,1.2,0.8,0.9,1.7c0.3,0.5,0.4,0.6,0.2,1.2c0.1,0.3,0.9,0.8,0.9,1.4
			c0.3,0.4,1.1,0.1,1.3,0.4c-0.1,0.5,0,0.6,0.6,0.5c0.3,0,1.7,1.3,2,1.6c-0.4,0.6,0.4,0.2,0.6,0.5c-0.1,0.7,0.2,0.6,0.9,1
			c1.1,0.5,0,2.2,1.4,2.1c0.5-0.2,0.7,0.1,1.1,0.3c0.6-0.4,1.4-0.1,1.7,0.7c0.1,1,1.2,0.2,1.9,0.8c0.4,0.3,0.1,0.6,0.6,1.9
			c0.3,0.7,0.3,0.6,0.4,1c0.1,0.6-0.1,0.9,0.1,1.6c0.4,0.7,0.1,1.3,0.2,1.9c0.2,0.9,0.9,1,1.5,0.5c0.1-0.4,1.9,2,1.9,2.4
			c0.2,0.7-0.3,1.2,0.1,1.7c0.3,0.2,0.5,0.8,0.4,1.2c0,0.7,1.1,1.2,1.3,1.3c1.1,0.6,2.7,0.3,3.6-0.6c0.6-0.2,0.8,0.4,1.4,0.3
			c0.8-0.1,1.2-1.3,1.5-1.2c0.2,0.1,0,0.6,0.2,0.7c0.2,0.1,0.4-0.2,0.7-0.2c1.6-0.2,1.9,1.8,0.5,2.3c-0.1,0.5,0.4,0.9-0.3,0.9
			c-0.3,0.2,0,0.6-0.3,1.1c-0.2,0.4-0.5,0.4-0.6,0.7c-0.3,1.3,1.6,1.6,2.5,1.7c0.5,0.3,0.5,0.8,1,1.1c0.3,0.1,0.4,0,0.9,0
			c0.7,0.1,0.7,0.3,1.2,0.3c0.6,0,0.7-0.2,1.2-0.2c1.4,0.5,6.5,0.6,2.5,2.1c-1-0.1-3.8,0.7-1.9,1.3c0.8,0.7,1.2,2.2,2.4,2.5
			c1.2,0.3,2-0.2,2.1,0.8c0.2,0.1,0.4-0.4,0.6-0.3c0.1,0,0.1,0.2,0.2,0.3c0.2,0.2,0.4,0.1,0.7,0.2c0.5,0.2,0.3,0.6,0.8,0.8
			c0.4,0.2,0.7-0.2,1.3,0c1.1,0.6,2.9,1.3,4.2,0.7c2.5-1.3-0.4,1.4-1.7,1.3c-1.1,0-1.3-0.8-2.2-0.6c-0.2-0.1-1.2,0.6-0.9,1.2
			c0.2,0.3,0.8,0.1,1.5,0.3c0.6,0.2,0.5,0.5,1,0.6c0.5,0.1,0.8,0,0.9,0.2c0.1,0.2,0.3,0.7,0.5,0.9c0,0.3-0.9,0.5-1,0.6
			c-1.1,0.1-0.8,1.1-1.8,0.3c-0.4,0-0.7,1-1.1,1c-0.7-0.6-0.6-0.6-1.6,0c-0.4,0.1-0.9,0.2-1,0c-0.1-0.2,0.1-0.5,0-0.6
			c-0.1-0.1-0.5,0.3-0.9,0.2c-0.4-0.2-0.5-0.8-1-0.5c-0.2,0-0.2-0.3-0.4-0.5c-0.2-0.1-0.3,0-0.5-0.1c-1.3-1.1,1.7-0.9,1.7-1.4
			c-0.2-0.7-0.7-0.1-1.2-0.3c-0.3-0.1-0.2-0.5-0.5-0.5c-1.2,0.7-1.4-0.8-2.7-1.2c-0.1,0,0,0-1.2,0.2c-1,0.2-1.2,0.2-1.5,0.1
			c-0.5-0.3-0.5-0.5-0.8-0.1c-0.6-0.1-1-1.6-1.8-0.5c-1.8-0.2-2.3-2.1-4.1-0.4c-0.4,0-0.4-0.4-1-0.7c-0.7-0.3-1.1,0.2-1.7-0.2
			c-0.6-0.4-0.5-1.1-0.9-1.2c-1,0.7-0.3,1.2-1.9,0.5c-1,0.6-2,0.9-2.6-0.4c-0.4-0.2-0.8,0.1-1.1-0.1c-0.3-0.4-0.5-0.6-0.9-0.5
			c-0.1-0.1,0.4-0.9,0.3-0.9c-0.2-0.3-1.1,1.4-1.4,1.5c-0.4,0.1-1-0.2-1.3,0.2c-0.4,0-0.5-0.7-1-0.8c-0.3-0.1-0.4,0.1-0.6,0
			c-0.5-2-0.7,0.2-1.7,0.3c-0.4-0.4,0-1.7-1.3-1.4c-0.5-0.2-0.4-0.8-1.1-1.4c-0.6-0.3-0.7-0.8-0.6-1.3c0-0.8-1-0.9-1.6-2
			c-0.3-0.8-0.6-2.1-1.5-2c0,1.6-1.3-0.7-1.5-0.7c-0.2,0-0.3,0.4-0.5,0.4c-0.2,0-0.3-0.1-0.8-1.1c-0.6-1-0.6-1-0.7-1.1
			c-0.1-0.7-0.5-0.5-0.9-0.5c-1-1.2,2-2.4,0.7-2.9c-0.4,0-0.6,1.2-1,1.2c-1.3-2.2-2.3-0.2-4-2.7c-1.4-1.2,1.8-1.4-0.2-1.8
			c-0.6-0.3-0.4-0.9-1-1.6c-0.5-0.6-0.8-0.4-1.3-1.1c-0.1-0.1-0.1-0.1-0.5-0.9c-0.6-1.2-0.6-1.1-0.7-1.4c-0.3-2.1-0.3-1.6-1.8-2.7
			c-0.4-1.5-1.7-2.4-3.3-2.3c-0.8,0.2-0.9-0.7-1.3-1.1c-0.5-0.3-1.2,0.4-1.7,0c-0.3-0.9-2.5,0.1-3.1-0.3c-0.5-0.3-0.3-0.8-0.8-1.1
			c-0.5-0.1-2,0.2-2.8-0.1c-1.2,0.3-1.1,0.3-1.1-0.6c-1,0.6-0.6,0.7-1.4-0.4c-0.6-0.1-0.8-0.1-0.9-0.9c-0.2-2,0.4-1.4-0.6-0.3
			c-1,0.2-0.5-0.6-0.6-1.2c-0.4-0.6-0.7-0.5-0.1-1.1c0.3-0.4,0.1-0.9-0.2-1.1c0.1-0.8-0.1-0.5-0.2,0c-0.7-0.2-0.8,1.5-1.4,0.3
			c0.1-0.3,0.3-0.6-0.1-0.3c-0.3,0.4,0.3,0.7,0.4,1.1c0,0.2-0.8,0.1-0.9,0.2c-0.2,0.1-0.2,0.3-0.4,0.2c-0.8-0.4-0.3-0.3-0.1-1
			c0-0.2-0.2-0.5-0.4-0.4c0.2,0.2,0.1,0.7-0.2,0.7c0-0.3-0.2-0.1-0.4-0.1c-0.1-0.1-0.2-0.2-0.3,0c0.1,0.3,0.4,0,0.5,0.1
			c0,0.4,0.3,1.3-0.1,1.6c-0.4-0.1-0.3-0.5,0-0.7c0-0.3-0.3-0.2-0.4-0.2c0-0.3,0-0.3-0.3-0.3c0-0.3-0.1-0.2-0.4-0.2
			c-0.1-0.1-0.1-0.5-0.3-0.6c-0.1-0.4,0-0.4-0.5-0.3c-0.4,0.1-0.3-0.1-0.5-0.2c-0.1-0.1-0.8,0.4-0.7,0c-0.2,0.1-0.1,0.4,0.2,0.3
			c0.2-0.1,0.2-0.2,0.4,0c0.4,0,0.9,0.8,0.8,1.2c0.1,0.1,0.3-0.1,0.5,0.1c0,0,0.3,0.5,0.3,0.6c0,0.2-0.5,0.1-0.7,0
			c0,0-0.2,0.4-0.3,0.4c-0.5,0.1,0.3-0.4-0.2-0.6c-0.4,0-0.3-0.3-0.4-0.5c-0.2-0.1-0.2,0.2-0.1,0.4c1,0.7,0.2,0.2,0.4,0.9
			c1.1,0.3,0,1.2-0.2,0.2c0-0.6-0.1-0.7-0.5-1c-0.1-0.3-0.1-0.5-0.2-0.2c-0.1,0.5,0.9,0.7,0.2,1.1c-0.1,0,0-0.6-0.3-0.5
			c0,0,0.1,0.5,0.1,0.6c-0.4,0.4-0.6-0.5-0.4-0.7c-0.5-0.4-0.3,0.7-0.7,0.6c-0.2,0-0.2-0.4-0.2-0.4c-0.2,0.2,0.2,0.7,0.3,0.9
			c0.2,0.2,0.7,0.1,0.8,0.2c0.3,0.3-0.4,1-0.7,0.7c-0.2-0.4-0.6-0.7-0.8-0.9c0-0.1,0-1.4-0.4-1.7c-0.6-0.2-0.1,0.5,0.1,0.6
			c0.1,0.2,0,0.9,0.1,1.2c0.1,0.5,1,0.7,0.6,1.2c-0.1,0-0.2-0.1-0.2-0.1c0.3,0.2,0,0.8-0.4,0.4c-0.7-0.2-0.2-0.5-0.6-1
			c-0.2-0.2-0.8-0.1-0.5,0.1c0.3,0,0.5-0.1,0.4,0.4c0,0.4-0.2,0.2-0.6,0c-1-0.9-1.7-0.2-2.5-1.1c-0.9-0.4-0.9-1.7-1.5-2.4
			c-1,0.4-0.9-0.5-1.5-0.8c-0.8,0.6,0.8,1.2,1.3,1.4c0,0.4-0.1,0.5,0.3,1c0.7,1,0.9,0.9,0.8,1.6c0.2,0.4,0.3,0.6,0.2,1
			c0.1,0.5,1.3,2.4,1.3,2.7c-0.5,0.6-0.8-1.2-1.4-0.6c0,0.3,0.2,0.2,0.4,0.3c0.3,0.3,0.2,0.8,0,1c-0.3,0.1-1.5,0.1-1.7,0.1
			c-0.5-0.3-0.9-0.9-1.8-0.9c-2.5,1-1.3-0.9-2.5-1.1c-1.2,0.4-0.2-1-1.2-1.1c-0.1,0.2-0.2,0.7-0.7,0.7c-0.6-0.2-0.3,0.4,0.1,0.2
			c1.3-0.9,0.2,0.2,1.2,0.6c1,0,0.6,0.1,1,0.9c0.1,0.3,1,0.3,1.4,0.7c0,0.2,0.2,0.7,0.3,0.7c0.1-0.1-1-0.5-1.1-0.2
			c0.7-0.1,1.4,1.4,2.2,1.4c0.4-0.1,0.8-0.5,0.8,0.1c-1,1.3-4.7,0-6,1c-0.9,0.3-1,0-1.9,0.2c-2.1,0.4-1.8,1.4-3.1,0.3
			c-0.1,0-0.2-0.1-0.3-0.1c0,0.1,0.2,0.2,0.2,0.4c-0.2,0.3-1-0.1-1.2-0.4c-0.5-0.2-1.6-0.3-1.9-0.4c-1.3-0.1-1.8,0.9-2.7,0.7
			c-0.9-0.5-1.5-1-0.9,0.1c2.5,1,2.9-1.1,5.9,0.7c2.2,1.1,2.5,0.6,3.9,1.1c0.7,0.4,0.5,0.9,1.4,1.4c0.8,0.3,1.1,0.7,1.4,1.5
			c0.5,0.9,0.9,0.8,1.1,1.5c0.1,0.8,0.2,1.6,0.3,2.7c0,0.6-0.7,0.7-1.2,1.1c-0.7-0.2-1,0-1.7,0.2c-0.6-0.2-0.7,0.1-1.1,0.5
			c-0.5,0.4-0.8-0.1-1.4,0.3c-0.5,0.4-0.7,0.7-1.3,0.8c-0.3,0.6-0.5,0.7-1.2,0.9c-1.4,0.9-2.4,2.6-3.9,0.4c-0.8-0.8-2.7-0.8-3.4-1.3
			c-1-1.2-0.9-0.8-2.4,0c-0.6,0.3-1.7,0.6-2.1-0.2c-1-0.6-4,1.1-5.4,0.2c-1.6-1.8-3,1.1-4.9,0.8c-2.8,0.8-1-30.3-1.6-31.2
			c-1.3,0.6-0.6-0.6-1.5-0.5c-0.1-0.6,0.1-0.7-0.6-0.9c0.7-0.7,0.1-0.7-0.2-1.6c-0.1-0.7,0.9-1,0.9-1.9C1.8,94,2.5,94.1,3,93.5
			c-0.1-0.5-0.8-0.8,0.1-0.9L3,42.8C3.7,43.2,5.5,43.4,5.7,43.3z"/>
		<path class="st0" d="M31.8,129.7c0.1-0.2,0.5-0.2,0.6,0C32.4,130,31.7,130.1,31.8,129.7z"/>
		<path class="st0" d="M32,130.4c0-0.3,0.6-0.7,0.9-0.4C33.3,130.6,32.2,130.9,32,130.4z"/>
		<path class="st0" d="M34.4,128.9c0-0.2,0.5-0.8,0.9-0.7C35.8,128.7,34.7,129.4,34.4,128.9z"/>
		<path class="st0" d="M31.2,119.2c0.5-0.2,1.7-0.2,1.9-0.2C33,119.7,31.7,119.6,31.2,119.2z"/>
		<path class="st0" d="M33.7,119.7c0.1-0.5,0.4-0.3,0.8-0.1c0.6,0,2-0.1,2.5-0.1c0.1,0.2,0.7,0.7,0.8,0.8c-0.1,0.4-0.4,0-0.4-0.1
			c0.1,0,0.3,0.5,0.2,0.7c1.8-0.3,0.5,2.3-0.1,0.2c-0.2,0-0.2,0.3-0.2,0.4c-0.3,0.1-0.8-0.1-0.9-0.4c-0.4-0.3-0.9-0.2-1.2-0.6
			C34.8,120.5,34.2,120.1,33.7,119.7z"/>
		<path class="st0" d="M31.9,120.3c0.3-0.4,0.7,0.1,0.8,0.4c0.4,0.5,1.3,0.3,1.7,0.5c0.1,0.1,0.5,0.3,0.7,0.3
			c0.4,0.3,1.4,0.8,1.7,1.3c0.5,0.5,2,0.9,0.9,1.8c-0.5-0.7-0.6-1-1.6-1.2c-0.5-0.4-0.9-0.6-1.4-0.8c-0.4-0.3-0.3-0.6-0.7-0.9
			c-0.6-0.1-1-0.4-1.5-0.7C32.4,120.9,31.6,120.6,31.9,120.3z"/>
		<path class="st0" d="M36.9,114.7c0.7-0.6,2,0.3,2.1,1c-0.1,0.1-0.3-0.2-0.7-0.3C37.6,115.4,36.7,115.5,36.9,114.7z"/>
		<path class="st0" d="M37.3,115.7c0.4-0.4,1.2-0.2,1.4,0.3c0,0.8-0.7,0.9-1.1,0.2C37.3,116.1,37.1,116,37.3,115.7z"/>
		<path class="st0" d="M36.7,119.1c0.3-0.2,1,0,1.3,0c0.4,0.2,0.8,0.8,0.6,1.2c-0.5,0.3-1.1-1-1.5-1
			C36.9,119.2,36.6,119.3,36.7,119.1z"/>
		<path class="st0" d="M39.2,120.8c0-0.7,1,0,1,0.3C40,121.7,39.2,121.1,39.2,120.8z"/>
		<path class="st0" d="M40.1,121.7c0-0.2,0.2-0.2,0.3-0.2C41.1,121,40.8,122.7,40.1,121.7z"/>
		<path class="st0" d="M28.7,119.9c0.4,0,1.9-0.4,1.5,0.2C30,120.2,28.8,120.2,28.7,119.9z"/>
		<path class="st0" d="M32.6,120.1c0.2-0.1,0.7,0.2,0.6,0.4C33,120.9,32.4,120.3,32.6,120.1z"/>
		<path class="st0" d="M35.1,124.4c0,0,0.2,0.8,0.1,0.9C35.8,125.2,35.6,124.2,35.1,124.4z"/>
		<path class="st0" d="M34.2,123.7c0.2-0.1,1,0,0.9,0.5C35.1,124.2,34.1,123.6,34.2,123.7z"/>
		<path class="st0" d="M32.8,121.8c0.2,0.1,0.8,0.2,0.8,0.6c0.1,0.3,0.5,0.3,0.3,0.6C33.6,123.1,33.1,121.9,32.8,121.8z"/>
		<path class="st0" d="M30,119.3c0-0.1,1.1-0.6,1-0.4C31.3,119.2,30.2,119.3,30,119.3z"/>
		<path class="st0" d="M33.5,118.9c0.7-0.5,0.4,0,1.8-0.2c0.7,0,0.9-0.1,0.7,0.3c-0.3,0.2-1.7-0.2-2-0.2
			C33.7,118.9,33.6,119.1,33.5,118.9z"/>
		<path class="st0" d="M31.9,118.8c0-0.1,0.4-0.2,0.5-0.2C32.6,118.9,31.9,118.9,31.9,118.8z"/>
		<path class="st0" d="M31.2,120.8c0,0.1,0.1,0.3,0.2,0.3C31.7,121,31.3,120.7,31.2,120.8z"/>
		<path class="st0" d="M31.7,121.1c-0.1,0.1,0.1,0.3,0.2,0.4c0.2,0.1,0.4,0.5,0.6,0.5C32.5,121.9,31.7,121,31.7,121.1z"/>
		<path class="st0" d="M41.1,111.2c-0.3,0.2,0.2,1,0.4,0.9C41.6,112,41.3,111.2,41.1,111.2z"/>
		<path class="st0" d="M41.2,110.5c-0.1,0.6,1,1,1.3,1.5c0.8,0.3,0.2-0.9-0.3-1.2C42.3,110.7,41.2,110.3,41.2,110.5z"/>
		<path class="st0" d="M45.8,110.7c0,0.6,0.1,1.1,0.9,0.6C47.4,110.8,46.1,110.8,45.8,110.7z"/>
		<path class="st0" d="M46.1,109.4c0-0.2,0.2-0.2,0.2-0.4c0-0.1-0.1-0.3,0.1-0.2c0.1,0.1,0,0.5,0.2,0.7
			C46.5,109.6,46.1,109.6,46.1,109.4z"/>
		<path class="st0" d="M47.2,109.6c0.1-0.5,0.7,0.5,0.6,0.5C47.3,110.6,47.4,109.9,47.2,109.6z"/>
		<path class="st0" d="M48.3,110.1c0-0.2,0.3-0.3,0.3-0.5c-0.4-0.8,0.2-1,0.6-0.3c0,0.6,0.1,0.6,0.5,1c-0.1,0.5,0.5,0.7,0.6,1.1
			c-0.2,0.2-0.6,0.1-0.4-0.3c0-0.2-0.3-0.1-0.4-0.3c-0.1-0.2,0-0.4-0.1-0.4C48.7,111,48.5,110.8,48.3,110.1z"/>
		<path class="st0" d="M48.2,110.5c-0.3,0.3,0.5,0.6,0.7,0.6C48.8,110.8,48.2,110.7,48.2,110.5z"/>
		<path class="st0" d="M48.2,106.8c0.6-0.4,0.5,0.5,0.9,0.9c-0.3,0.3-0.5,0-0.5-0.5C48.5,107,48.1,106.9,48.2,106.8z"/>
		<path class="st0" d="M48.9,108.8c0.3-0.3,0.6,0.3,0.8,0.6c-0.1,0.1-0.2,0.5-0.1,0.6C49.1,110,49.4,109.2,48.9,108.8z"/>
		<path class="st0" d="M50.7,107.8c0.2,0.3,0.5,0.2,0.9,0c0.2,0.1,0.6,0,0.7-0.1c-0.1,0.3,0.4,1,0.1,1.4c-0.2,0-0.5,0.1-0.6,0.2
			c-0.4,0.1-0.6-0.2-0.4-0.5C51,108.9,50.9,107.9,50.7,107.8z"/>
		<path class="st0" d="M52.5,107.7c0.1,0,0.3,0.1,0.4,0.1C52.8,108.3,52.5,108,52.5,107.7z"/>
		<path class="st0" d="M52.5,107.2c0.4-0.4,0.4,0.1,0.4,0.3C52.9,107.6,52.5,107.4,52.5,107.2z"/>
		<path class="st0" d="M49.3,107.7c0,0.1,0.1,0.6,0.1,0.7c0.2,0.2,0.4,0.3,0.6,0.7c0.5,0.3,0.4,1.4,0.9,0.6c0-0.5-1.1-0.6-1.1-1.3
			c0.2-0.3,0-0.2-0.2-0.3C49.6,107.9,49.4,107.6,49.3,107.7z"/>
		<path class="st0" d="M53,106.8c0.1-0.2,0.5-0.2,0.6-0.3c0.3,0.1,0,0.6,0.1,0.8c-0.7-0.1-0.5,0.6-0.1,1c0.2,0.2,0.1,0.8-0.3,0.6
			c-0.1-0.2-0.2-0.5-0.4-0.6C53.2,107.9,53.1,107.3,53,106.8z"/>
		<path class="st0" d="M54.7,110.7c0.2-0.3,0.3-0.1,0.4,0.2c0.2,0.2,0.4,0.1,0.4,0.2C55.5,111.7,54.7,111,54.7,110.7z"/>
	</g>
	<path class="st0" d="M76,36.6c-0.5-1.5,1.8-0.8,0.5-2.3c0.8,0.4,0.9,0.1,1.6-0.4c0.9,0.4,1.2,0.2,2.1-0.4c0.6-0.1,3,0.4,4,0.3
		c1.2,0.4,2.1,1.1,3.2,1c-0.3,0.1-2.6,2.3-2.7,2.2c-1.1-0.7-0.6-0.6-1.7,0c-0.6-0.3-1-0.2-1.6,0.1c-1.4,0.3-2.1-1-2.9-1.1
		c-0.4,0.2,0,0.6,0.1,0.8c-0.2,0.5-1.4,0.2-1.7-0.1C76.4,37.2,76.5,38,76,36.6z"/>
	<path class="st0" d="M86.2,39.3c0-0.6,1.3-0.5,1.2,0.1C87.3,39.7,86.3,39.5,86.2,39.3z"/>
	<path class="st0" d="M92,38.7c-0.3-0.6,1.3-1.6,1.7-0.7C93.8,38.7,92.3,39.2,92,38.7z"/>
	<path class="st0" d="M115.7,26.9c0.4-2.7,2.8,0.3,2.1,1.6c-0.3-0.1-0.5-0.8-0.8-0.2C117,28.5,115.7,27.2,115.7,26.9z"/>
	<path class="st0" d="M121.5,41.1c0.2-0.4,1.4-0.6,1.7-0.8c0.7-0.3,0.7-0.9,1-0.9c0.4-0.1,0.6,0.8,1.4,1.2c0.8,0.3,1.5,0,1.7,0.3
		c0.2,0.3-0.2,0.7,0.1,1.1c0.8,0.6,0.2,1.6-0.7,1.4c-0.6,0.4-0.6,0.4-1.1-0.1c-0.5-0.2-1,0.6-1.7,0.5
		C122.2,43.1,123.5,41,121.5,41.1z"/>
	<path class="st0" d="M129.1,42.9c0.3-0.7,0.6,0.1,0.8,0.5C129.8,43.5,129.1,43.2,129.1,42.9z"/>
	<path class="st0" d="M128.7,43.4c-0.1,0.2,0.3,1,0.6,0.9C130,44,129,43.1,128.7,43.4z"/>
	<path class="st0" d="M132.1,47.4c0.2-0.6,1-1,1.8-0.3C136.2,48,132.4,47.6,132.1,47.4z"/>
	<path class="st0" d="M130.4,44.4c0.1-0.4,0.4-0.1,0.7,0c0.2,0,0.3-0.2,0.5-0.2c0.3,0,0.4,0.4,0.6,0.3c0.1,0,0.1-0.3,0.3-0.4
		c0.3-0.2,0.7,0,0.8-0.1c0-0.2-2.4-1.4-0.8-1.6c0.5,0,0.5,0.8,1.3,1.2c0.7,0.4,1.2,0,1.6,0.4c0.1,1.2,1,0.8,1.7,1.4
		c0.2,1.1,0.8,0.6,1.7,1c0.4,0.5,0.8,0.6,1.4,0.5c0.4,0.1,0.5,0.4,0.8,0.8c0.7,0.8,1.5,0.2,2.4,1c1.1,1.4,1.5,2,3.4,2.2
		c0.4,0.6,0.9,0.6,1.5,0.7c0.9,0.7,0.5,1,1.9,2.3c1,0.9,1.8,0.8,2,1.5c0,0.5,0.4,0.9,0.8,1.1c0.2,0.3,0,0.6,0.1,0.7
		c1.5-1.3,1.9,0.6,1.9,1.9c0.2,0.2,0.7-0.2,1.1,0.1c0.4,0.2,0.3,0.8,0.6,0.9c2.7-1,0.8,0.2,2.7,1.5c1.2,0.1,0.8,1,1.6,1.7
		c0,0.9,0.6,1,1.1,1.5c0,0.4-0.1,1.2,0.2,1.7c-0.1,0.4-0.7,0.4-0.9,1c-0.3,0.7,0.2,1.2,0.2,1.7c-0.1,0.4-0.7,0.9-0.6,1.5
		c0,0.4-2.1,1.8-2.2,1.9c-0.5-0.1-0.3-1.1-1.2-1.8c-0.3-0.2-0.6-0.3-0.7-0.6c0.3-1.1-0.1-1-0.7-1.8c0.2-1.1,0.5-3,0.4-4.5
		c-0.2-0.5-0.5-0.6-0.9-1.1c-0.9-0.9-0.2-1.8-1.1-2.8c-1.1-0.6-2.5-2-2.5-3.1c-1.3-2.6-6-2.4-7.6-4.7c-1.5-1.7-1.8-1.8-3.5-2.3
		c-0.8-0.5-0.7-0.8-1.5-1.6c-1.1-0.9-1.6-0.5-2.3-1.4c-0.4-0.7-1-1.1-1.8-1.1c-0.6-0.2-0.6-0.6-1-0.7c-0.7-0.3-1.1,0.5-1.9,0.2
		c-0.4-0.1-0.4-0.3-0.7-0.4C131,44.7,130.4,45.1,130.4,44.4z"/>
	<path class="st0" d="M146.9,45.1c-0.7,0.7,0.6,1.1,0.8,0.4C147.7,45.2,147.2,44.9,146.9,45.1z"/>
	<path class="st0" d="M147.3,46.6c-0.2,0.2,0.3,1.4,0.7,1.4C149.2,47.7,147.9,46.2,147.3,46.6z"/>
	<path class="st0" d="M147.2,43.6c-0.1-0.2,0.3-0.7,0.5-0.6C148.3,43.2,147.5,44,147.2,43.6z"/>
	<path class="st0" d="M154.6,49.4c1.4-1.7,1.9,0.4,1.1,1.8C155.4,51.4,154.2,50.2,154.6,49.4z"/>
	<path class="st0" d="M162.7,54.5c0.1-0.9,1.1-0.1,0.8,0.4C163.4,55,162.7,54.8,162.7,54.5z"/>
	<path class="st0" d="M163.9,53.7c-0.2-0.4,0.7-0.6,0.7-0.2C164.6,53.7,164,53.8,163.9,53.7z"/>
	<path class="st0" d="M168.5,62.3c-0.5,0.1-0.4,1.2,0,1.2C169,63.5,168.9,62.3,168.5,62.3z"/>
	<path class="st0" d="M36.2,51.5c0.2-0.7,1.6,0,1.3,0.6C37.2,52.4,36.3,52.1,36.2,51.5z"/>
	<path class="st0" d="M43.4,49.9c0.2-0.6,1,0,0.9,0.4C44.1,50.7,43.2,50.3,43.4,49.9z"/>
	<path class="st0" d="M56.1,61.9c0.6,0.4,1.2-1.1,0.3-1.1C56.4,61,56.2,61.9,56.1,61.9z"/>
	<path class="st0" d="M67.6,70.1c-0.5-0.7,0-1.2,0.5-1.7c0.1-0.7,0.7-1.2,1.1-0.4C71.4,68.2,68.8,71.4,67.6,70.1z"/>
	<path class="st0" d="M71.7,70.6c0.5-0.5,1,0.6,0.5,0.8C72,71.5,71.5,70.9,71.7,70.6z"/>
	<path class="st0" d="M81.4,75c-0.7,0.7,0.5,1,0.6,0.3C82,75.1,81.6,74.9,81.4,75z"/>
	<path class="st0" d="M82.3,78.1c-0.3-2.8,3.6-1,2.9,1C83.8,80.7,83.3,78.9,82.3,78.1z"/>
	<path class="st0" d="M89.5,78.1c0.1-0.5,0.4-0.8,1-0.7C91.2,78.1,89.8,78.8,89.5,78.1z"/>
	<path class="st0" d="M92.8,80.2c-1.8,1.3,0.7,2.3,0.9,3.5c0.2,0.3,0.5,0.2,0.9,0.3c0.7,0.2,0.8,0.7,1.1,0.7c0.2,0.2,1-2.1,1-2.5
		c-0.5-1.6-1.9-1-2.7-1.5C93.7,80,93.4,79.7,92.8,80.2z"/>
	<path class="st0" d="M96.4,78.8c-0.7,0.3-0.1,1.4,0.5,0.8C97.1,79.2,96.8,78.7,96.4,78.8z"/>
	<path class="st0" d="M99.8,82c-0.3-1.4,1.1-3.1,2.5-1.5c0.6,0.1,1-0.6,1.6-0.5c0.6,0.7,2,1.1,2.6,0.8c1.1-0.2,1-0.8,1.7-0.8
		c1.8,0.4,4.4,2.7,7,1.6c1.9-0.9,2-2.4,2.6-0.4c1.5-1.6,1-0.6,2.5-0.1c0.9-0.6,0.3-2.6,0.5-3.1c1.2-1.1,1.8-0.3,1-2.4
		c-0.7-3.7,4.5-0.8,0.7,0.4c-0.1,0.3,0.4,0.6,0.3,1.1c-0.6,0.8-1.4,0.5-0.4,1.7c0.5,0.9,0,1.5,0.4,2.1c1.9,1.5,2.3,0,4-0.9
		c1.7-1.1,2.2,1.3,3.8,1.2c0.4-0.2,0.3-0.9,0.6-1.1c1.9,1.2,3.4,0.2,3.5-2.2c0.3-0.6,3.1-4.2,3.7-4c0.2,0,0.4,0.1,0.6-0.1
		c0.3-0.8,0.4-0.4,1.3-0.2c0.3,0,0.4-0.2,0.7-0.2c0.7-0.1,0.9,0.6,1.5,0.5c1-0.4,1-1.4,0.7-2.4c-0.1-1.6,0.1-2-0.6-3.1
		c0.5-1.9-0.3-1.1-1.1-2.4c-0.1-0.4,0.1-0.5,0-1c-0.2-0.6-0.7-0.7-0.7-0.9c0.1-0.4,2-0.4,3.3-0.2c1.2,0.1,1.5,0.3,1.8,0.6
		c0.4,0.5,0.2,1,0.6,1.1c0.4,0.2,1.1-0.3,1.2-0.8c-0.6-1.4,0.3-0.3,1.3-0.7c0.5-0.3,0.4-0.9,0.7-0.9c0.4-0.1,1,1,0.8,1.3
		c-0.6,0.1-1.4,0-0.6,0.9c0.6,0.1,0.9-0.1,1,0.7c0.4,0.4,1.4-0.3,1.7,0c0.2,0.3-1,1.2-0.8,2.2c0.5,1.1,0.9,0.9,0.4,2.7
		c-1.3,6.8-6.1,1-4.9,4.4c-2.4,2.1,2.4,2.1,1.7,4.4c-0.2,0.7-2.9,2.5-4,2.5c-0.7-0.1-0.7-0.9-1.2-0.9c-0.5,0-0.7,0.8-1.3,0.8
		c-0.5,0-0.6-0.9-1.3-0.9c-0.5-0.1-1.1,0.4-1.1,0.7c0,0.3,1.1,1.1,0.8,1.8c-0.2,0.4-0.9,0-1.2,0.4c-0.3,1-0.2,1.3-1.5,1.7
		c-1.4,1-1.2,2-2.7,1.6c-1.3,0.8-0.6,1.1-2.4,0.6c-0.7,0.3-1.3,0.4-1.8,0.1c1,1.7-2.5,1.2-3.1,1.6c-0.5,0.3-0.3,0.6-0.8,1.1
		c-1.1,1.2-2.8,0.6-3.8,0c-0.7,0-1.2,0.9-1.5,0.8c-0.3-0.1-0.2-0.7-0.4-0.7c-0.2,0-0.2,0.5-0.5,0.6c-0.5-0.1-0.8-0.7-1.3,0
		c-0.4,0.4-1.1,0.2-3.1,0c-2.3,0.2-1.4-2.2-2.6-2.8c-0.4-0.2-0.6,0.2-1.3,0.1c-0.7-0.2-0.9-0.6-1.3-0.5c-0.3,0.1-0.3,0.5-0.7,0.7
		c-0.4,0.1-0.7-0.3-1-0.1c-0.5,0.7-0.7,1.3-1.5,0.3c-0.1-1.8-1.9-0.9-2.7-1.8c0-0.5-0.5-0.5-0.9-0.5c-0.2-0.2,0.1-0.8-0.2-1.1
		C103.3,85.2,99.7,84.5,99.8,82z"/>
	<path class="st0" d="M110,72.1c0.6-0.7,1.1,0.4,0.5,0.7C110.2,72.8,109.8,72.4,110,72.1z"/>
	<path class="st0" d="M114.4,69.9c-0.1-0.7,1.5-0.8,1.3,0.1C115.5,70.3,114.5,70.2,114.4,69.9z"/>
	<path class="st0" d="M136.5,73c0-0.6,1.1-0.5,0.9,0.2C137.2,73.5,136.6,73.4,136.5,73z"/>
	<path class="st0" d="M122.7,131c0.4-2,2.5-1.3,3,0.2c0,0.2-0.2,2.3-0.3,2.6C124.5,133.7,122.1,132.2,122.7,131z"/>
	<path class="st0" d="M126.8,132c1-1.4,2,0.3,2.9,0.8c0.8,0.2,1.2-0.5,1.9-0.3c1.6,0.6,0.9,2.7-0.1,3.4c-0.5,0.2-1-0.4-1.9-0.6
		c-2.6-0.2-2.9,1.6-2.1-1.4C127.5,132.9,126.6,132.5,126.8,132z"/>
	<path class="st0" d="M132.6,135.1c-0.4,0-0.9,1.1-0.6,1.3C132.8,137,133.8,135.3,132.6,135.1z"/>
	<path class="st0" d="M133.9,134.6c-0.5,0.1-0.1,1.1,0.2,1C134.3,135.5,134.1,134.7,133.9,134.6z"/>
	<path class="st0" d="M130.9,136.6c-0.5,0.6-0.1,1.5,0.8,1.2c0.7,1-0.4,2.2,1.6,2.5c-0.8,1.2,0.3,1.5,1.5,1.6
		c0.9,0.2,0.9,0.8,1.4,0.8c1.7,0.1,2.2-5.1-0.3-2.9c-0.4,0.5-0.2,0.9-0.5,1c-0.9,0.2-1.4-0.9-1-1.7c-0.2-0.4-1-0.1-1.4-0.6
		c-0.2-0.6-0.4-0.9-1.1-1.2C131.2,136.9,131.1,136.5,130.9,136.6z"/>
	<path class="st0" d="M130.9,147.4c0.1-0.1,0.4,0.3,0.8,0.2c0.3,0,0.3-0.2,0.4-0.2c0.4,0.1,0.3,1.7,0.1,1.7
		C132.2,149.4,130.8,147.5,130.9,147.4z"/>
	<path class="st0" d="M132.9,148.2c0.5-1.1,1.8,0.2,0.9,0.8C133.5,149.2,132.8,148.6,132.9,148.2z"/>
	<path class="st0" d="M153,63.6c0-1.1,1.6-0.6,1,0.3C153.7,64.2,153,63.9,153,63.6z"/>
	<path class="st0" d="M175.7,68.2c0,0,0.1,0.2,0.2,0.7C176.2,70.5,176.6,68.1,175.7,68.2z"/>
	<path class="st0" d="M180.4,80.7c-0.8-0.5-0.2-2.3-0.1-3.2c-0.3-0.8,0.1-2.1,0.8-2c0.1,0.1,0.1,1.8,0.8,2.3
		C182.5,78.8,181.8,80.6,180.4,80.7z"/>
	<path class="st0" d="M181,81.6c-0.2,0.1-0.1,0.9,0.2,1C182,82.5,181.5,81.3,181,81.6z"/>
	<path class="st0" d="M181.6,80.9c0.6-1,0.9,0.4,1.7,1c1.1,0.8,2.5-0.1,3.1,0.7c0.3,0.4,0,0.8,0.4,1.5c0.3,0.5,0.5,0.4,0.8,0.8
		c0.4,0.7,0,1.1,0.3,1.7c0.9,1,2.2,0.4,2.7,2.4c0.8,1.9,0.7,1.5,2.6,2.6c1.2,1.1,1.5,1.2,2.6,1.8c0.4,0.4,0,0.9,0.4,1.5
		c0.3,0.5,0.7,0.3,0.8,0.8c0.1,0.5,0,1.3,0.4,1.7c0.1,0.6-0.5,1.6-1.1,1.7c-1.6-0.8-1.8,1-2.6,1.2c-0.3-0.4-1-0.6-1.4-0.4
		c-0.6,0.4-4.9-3.9-4.6-4.1c0.4-0.8,0.9-1.2,0.4-2.1c0.2-0.9-0.3-1.3-1-1.6c-1.8-0.6-1.7-0.4-2.1-2c-0.5-0.7-1.5-0.6-1.7-1.3
		c0.1-0.8-0.3-0.8-0.8-1.1c-0.2-0.3,0.1-0.5,0.1-1c0-0.6-0.5-0.7-0.6-1.4C181.8,84,183.1,82.1,181.6,80.9z"/>
	<path class="st0" d="M133.4,120.3c-0.3,0.1-0.4,0.9-0.1,1.1C134.2,121.8,134.2,120.3,133.4,120.3z"/>
	<path class="st0" d="M134.4,121c-0.5-0.7,0.8-1.8,1.2-1.6c0,0.2,0,1.2,0.4,1.5c0.3,0.5,0,3.1-0.5,3.2
		C133.5,123.5,137.5,121.8,134.4,121z"/>
	<path class="st0" d="M151.9,127.1c0.4-1.1,0.9,0.4,0.5,0.7C152.2,127.9,151.8,127.5,151.9,127.1z"/>
	<path class="st0" d="M153.2,127.7c1-1.1,3,0.1,4.1-0.2c-0.1,0.9,0.3,0.5,1.3,0.7c1.3,0.3,1.6,1.8,0.2,1.8c0.6,0.6-0.3,1-1.2,0.8
		c-0.9-0.4-1-1.6-1.3-0.5c-0.5,0.2-1.1-0.3-0.6-0.8c0-0.2-1-1.1-1.1-1.4C154,127.7,153.2,127.9,153.2,127.7z"/>
	<path class="st0" d="M150.4,149.4c0-0.5,1.4-0.8,1.1,0.1C151.2,149.8,150.4,149.7,150.4,149.4z"/>
	<path class="st0" d="M153.1,148.4c0.2-0.2,0.5,0.4,1.3,0.5c0.8,0.1,1.1-0.5,1.9-0.4c0.9,0.1,1.6,0.9,0.6,1.1
		c-0.6,0-0.8-0.4-0.8,0.3c-0.2,0.2-0.7-0.4-1.4-0.6C153.6,149.3,152.8,149.3,153.1,148.4z"/>
	<path class="st0" d="M158.3,155.8c0-0.3,0.6-0.6,0.8-0.4C159.6,156.1,158.4,156.6,158.3,155.8z"/>
	<path class="st0" d="M160.2,155.9c-0.2,0.7,1,2.1,1.3,0.9C161.6,156.2,160.4,155.7,160.2,155.9z"/>
	<path class="st0" d="M161.3,158.1c-0.9,1.4,1,1.4,1.6,1.8c0.1,0.3-0.1,0.5,0.1,0.7c0.2,0.2,0.6,0,1,0.1c0.8,0.3,1,1.5,1.3,1.5
		c0.4-1.6,2.4-0.3,3-0.6c0.1-1.1-1.9-1.8-3.2-1.8c-0.7-0.2-0.7-0.4-2.6-1.4C161.8,158.1,161.5,157.9,161.3,158.1z"/>
	<path class="st0" d="M171.3,158.8c-0.6-1,0.4-0.5,0.8-0.6c-0.6-1,0.5-1.3,1.7-0.7c1.4,0.8,0.7,2.1-0.6,1.3
		C172.6,158.7,172,159.5,171.3,158.8z"/>
</g>
</svg>
