<?xml version="1.0" encoding="utf-8"?>
<!-- Generator: Adobe Illustrator 26.0.3, SVG Export Plug-In . SVG Version: 6.00 Build 0)  -->
<svg version="1.1" id="Layer_1" xmlns="http://www.w3.org/2000/svg" xmlns:xlink="http://www.w3.org/1999/xlink" x="0px" y="0px"
	 viewBox="0 0 200 200" style="enable-background:new 0 0 200 200;" xml:space="preserve">
<style type="text/css">
	.st0{fill:#1E8346;}
</style>
<g id="Isolation_Mode">
	<g>
		<path class="st0" d="M129.7,87.9c0.8-1.4-1.7-2.2,0.2-3.2c0.1-0.4,0.1-0.9,0.5-1.1c0.1-0.3-0.4-0.6-0.6-1.3
			c-0.2-0.7,0.2-1-0.1-1.5c-2.1-1.7-1-1.8-0.3-3.8c0.1-1.4-1.1-1-1.8-1.7c-0.4-0.1-0.5,0.5-1,0.5c-0.6,0.1-0.7-1.2-1.9-2
			c-0.7-0.5-1.2-0.4-1.8-1.1c-1.1-1.2,0.2-0.9,0.9-1.6c0.4-2.6-1.3-0.5-2.3-0.6c-0.3-0.4-0.8-0.9-1.4-0.9c-0.5-0.3-0.7-1-0.5-1.1
			c0.2-0.1,0.6,0.4,0.8,0.2c0.1-0.1,0-0.3,0.2-0.5c0.4-0.2,0.7-0.5,0.9-1c0.7-0.3,0.5-0.6,0.7-1.1c0.9,0.3,1.1-0.7,0.6-1.6
			c-0.5-0.5-0.7-0.7,0-0.7c0.4,0.2,0.9,0.8,1.2,0.2c0.1-0.3-0.7-0.6-0.7-1.1c0-0.5,1-0.6,1.3-1.5c0.8-1.6-1.7-0.9-2.1-1.3
			c0-0.9-0.8-0.5,0.5-1.3c0.4-0.6,0.7-0.5,1.2-0.6c0.2-0.1,0-0.4,0.1-0.6c0.5-0.6,1.4,0.4,1.6,0.7c0.4-0.5,0.8-0.2,1.4-0.4
			c0.9-0.4,0.1-1-0.1-1.4c0.4-0.6,1.3-0.1,1.8,0.3c0.6,0.1,1.3,0,1.3,0.8c0,0.4-0.3,0.4-0.5,0.9c-0.1,0.4,0.1,0.6-0.1,0.9
			c-0.5,0.2-1,1.1-0.8,1.4c0.2,1.4,2,1.1,1.8-0.4c0.5-0.4,1-0.3,0.7-1c0.1-0.8,3.3-0.8,2.2-2.3c-1-1.8-2.8-0.7-3.7-1.2
			c-1.1-2-0.8,0.8-2.3-2c-1.1-0.6-0.2-0.7,0.1-1.5c0-0.5-0.1-1.1,0.3-1.4c0.8-1.5-1.5-2.8,1.5-2.7c1.1-0.4,0.7,0.8,1.6,0.4
			c0.1-0.7-0.2-2.7,1.4-2.5c0.2-0.2-0.2-0.7,0-1.3c0.4-0.4,0.1-1.1,0.3-1.3c0.5-0.4,1.2,0.1,1.6,0.3c0.9,0.4,2.5-0.4,2.5-1
			c-0.6-0.6-0.9-2.1,0-2.6c0-0.5-0.4-1.2-0.1-1.8c-0.5-1.3-1.7-3.7,0.3-4.6c0.4,0.1,1.4,0.4,2,0.5c0.3,0.6,1,0.7,1.7,0.5
			c1-0.4,0.5-1.6,1.5-2.6c1-1,2.3-0.9,2.4-1.6c-0.3-1.6,1-0.2,1.9-1.3c0.4,0.4,0.9,1.7,2,1c0.6,0,1.3,1.4,2.3,0.9
			c0.3-0.3,0.6-0.5,1-0.4c0.4,0,0.5-0.5,1.1-1.1c0.8-0.7,1.2-0.7,1.1-1.6c0.3-0.8,1.6-0.9,1.8-2c0.1-0.8,2.8-3.9,2.5-5.4
			c-1.9-0.8-0.6-0.8-0.5-1.9c-0.1-0.3-1.7,0.1-1.8-0.7c0-0.2,0.2-0.3,0.4-0.5c0.3-0.4,0-0.6,0.2-1c0.8-1,1.6-0.4,0.4-1.9
			c-0.9-1.6-1.5-0.2-2.1-2.4c-1.4-0.9-0.2-1.1,0.1-1.8c-1.3-0.2-0.9-0.4-1.3-1.5c-0.4-0.5-1.3,0-1.8-0.5c-1.1-1.4,1-2.7,1.7-3.9
			c1-0.8,2.8,0.7,3.6,0.8c0.3,0.4-0.5,1-0.2,1.7c-0.1,0.6,2.6,1.2,1.5,1.9c-0.2,0.7,0.4,0.6,0.8,0.8c0.2,0.1,0.1,0.3,0.2,0.6
			c0.6,0.9,1.2,0.4,0.7,1.7c-0.1,0.6-0.1,0.6-0.2,0.8c-0.3,0.6-1,0.5-1.2,1c-0.4,0.9,0.6,0.8,0.9,1c0.2,0.3-0.5,0.7-0.5,1.3
			c0.4,1,1,0.9,0,2c-0.3,3,2.1,7.1,0.9,9.8c-1,1.1-0.5,2.9-0.4,4.6c-0.2,0.9-0.9,1-1,1.7c0.5,1,0.8,2.9-0.5,3.6
			c-2.4,0.3,1.2,1.6-0.5,4c0,0.5,0.4,1.9,0.5,2.4c0.7,1.3,0.3,2-0.8,2.5c-1.7,0-1.2,1.3-2.8,0.4c-0.2,0.1-0.1,0.5-0.4,1.1
			c-0.4,0.9-1.1,0.8-1.2,1.4c-0.1,0.8,1.2,1,1.5,2.5c0.1,0.5,0,0.7,0.2,1.1c0.6,0.5,1.9,1.6,2.8,2c0.3,0.3,0.1,0.6,0.2,1.1
			c0.2,0.7,0.9,0.7,1,1.2c-0.2,2.1-4.9,2.6-4.2,4.6c-2.4,0-3.6,3.1-2.5,5.1c0.3,1.6-0.5,2.4-2,2.4c-0.6,0.5-0.6,0.8-0.8,1.4
			c-0.2,0.6-0.8,0.5-1.2,1c-0.4,0.6-0.3,3.3,0.1,3.9c0.1,1.4-0.4,2.2-0.2,3.7c-0.4,0.3-1.3,0.2-1.4,1.1c0,0.4,0.7,0.4,1,0.9
			c0.2,0.5-0.2,0.8,0,1.6c0.6,0.8,0.8,2,0.7,3.3c0.9,0.8,0.9,2.2-0.5,2.2c-0.2,0.3,0.1,0.7-0.2,1c-0.3,0.1-0.4,0.5-0.4,0.7
			c-0.1,0.1-0.5-0.3-0.9-0.2c-0.5,0.1-0.5,0.7-0.9,0.7c-0.7-0.3-1.8-0.7-0.4-1.5c0.6-0.3,1,0,1.3-0.2c0.5-1.3-1.2-0.2-1.6-0.7
			c-0.4-0.5,0.1-0.7,0.4-0.9c0.5-0.9-1.4-2.2-1.8-1c-0.8-0.5-0.6-0.6-1.4,0.4c-1,0.5-0.1,0.5,0.2,1.1c0,0.4-0.6,0.5-0.8,1.2
			c-0.1,0.9-0.9,1.6-1.6,0.8c-0.6-0.2-0.9,0.8-1.7,0.8c-1.1-0.1-1.5-1.3-1.8,0c-0.4,0.2-1.2-1-1.5-0.9c-0.4,0.7,0.9,1.7,1.2,2.3
			c0.2,0.5,0,0.8,0.3,1.2c0.7,1,2.7,0.4,2.5,1.9c-0.3,0.7-1.6,0.4-2.2,0.1c-0.9,0.9-1.9,0.4-1.1-0.8c1.7-1.4-1.8-2.6-1.4-3.8
			c-0.2-0.1-0.7,0.4-0.9,0.3c0.1-1.1-0.5-2.2-1.6-1.1C131.6,90.2,129.6,88.1,129.7,87.9z"/>
		<path class="st0" d="M142.3,90c-0.2,0-0.3,1,0.2,1.4c0.7,0.2,2,1.1,1.2-0.3C142.9,89.4,143.5,92.2,142.3,90z"/>
		<path class="st0" d="M114.3,88.3c0.1-0.3,3.8,0.4,3.9,0.6c0.4,0.2,0.5,0.4,0.9,0.6c1.1,0.2,1.4,0.4,0.5,0.9
			c-0.5,0.2-0.9-0.2-1.2,0c-0.3,0.2-0.1,0.7-0.4,1.1c-0.5,0.5-1.6,0-1.7,0c-0.8-0.3-0.8-0.8-0.5-1.4
			C115.6,89.8,113.9,89.2,114.3,88.3z"/>
		<path class="st0" d="M43.6,194.8c1.4-1.9,0.1-2.1,1-3.6c0.2-0.8-0.5-1.4-0.8-2c-0.6-1.7-0.1-1.9,2.2-1.8c2.6-0.5,2.1,0.7,4.3,2.3
			c-0.1,2.5-3.5,4.2-4.8,5.6C45,195.2,42.9,195.6,43.6,194.8z"/>
		<path class="st0" d="M75.2,149.2c0-0.5,0.7-1,1.3-0.8C76.6,148.3,75.1,150.3,75.2,149.2z"/>
		<path class="st0" d="M79.6,149.1c0.1-0.5-0.2-1-0.4-1.4c-0.1-0.1-0.2,0.2-0.5,0.3c-0.6,0.2-1.2-0.4-1.2,0.4c0,1.4-1.9,1.2-2.3,1.9
			c0.1,0.2,1.6-0.4,2.2-0.5c0.3,0.1,0.9,0.4,1,0.4c0.4-0.4,1.8-0.6,1.8-0.5C80.3,149.5,79.7,149.5,79.6,149.1z"/>
		<path class="st0" d="M71,146.7c-0.2-0.6,0.4-0.3,0.9-0.5c0.2-0.2,1.1-1.8,1.5-1.6C73.2,145.3,71.7,148.1,71,146.7z"/>
		<path class="st0" d="M69.9,146.3c1.5-3.2-1.4-2.4-0.9-3.8c0.3-0.1,0.3,0.2,0.3,0.4c0,0.3,0.4,0.3,0.8,0.6c0.4,0.3,0.2,0.6,0.8,1.3
			C71.9,145.3,70.1,146.2,69.9,146.3z"/>
		<path class="st0" d="M73.4,143.6c-0.2,0.2,0,0.4,0.2,0.3C73.9,143.8,73.6,143.5,73.4,143.6z"/>
		<path class="st0" d="M67.5,139.6c0.8-0.4,2.1,1.5,1.2,2C68.6,141.4,67.4,139.6,67.5,139.6z"/>
		<path class="st0" d="M96.5,143.2c-0.1,0.1,0.2,0.2,0.2,0.5c-0.2,0.4-0.5,1.8,0.5,1.3c0.5-0.4,0.9-0.5,1.3-0.4
			C98.6,144.1,97,143.3,96.5,143.2z"/>
		<path class="st0" d="M73.2,155.6c-0.6,1.5,0.9,1.1,0.6,2.3c1.5,0.6,3-1,3.6-1.8c0.6,0,1.2-0.6,1.2-1.2c-0.1,0.1-1.2,0.1-1.4,0.2
			c-0.3,0.2-0.5,1.6-1.1,1C74.9,158.4,73.8,154.9,73.2,155.6z"/>
		<path class="st0" d="M76,165.2c0.1-0.6,0.5-0.5,0.9-0.3C80.4,163.2,76.5,167.7,76,165.2z"/>
		<path class="st0" d="M66.3,176c-0.3-0.2-0.4-1-0.2-1.3c0.3-0.1,0.7-0.1,0.5-0.6c-0.5-0.4-0.4-0.5-0.3-1.2c-1-1.3-0.4-2.9-0.4-5.2
			c0.3-0.8,1.2-0.7,2.3-1.4c0.8-0.5,0.4-0.6,2.4-2.7c2.2-1.8,1.9-4.7,5.9-5.1c0.4,1.3-1.2,0.5-0.5,2.3c0,1.8-1.6,1.4-1.3,2.9
			c-0.2,1.1-1.4,1.2-2.1,1.5c-0.3,0.3-0.2,0.6-0.6,0.9c-0.5,0.3-0.9,0.5-0.4,0.8c0.2,0,0.3-0.3,0.6-0.5c0.5-0.3,0.8,0.1,1.2-0.2
			c0.5-0.3,0.3-0.8,0.8-1.1c1.7-0.5,0,0.8,0,1.4c0.5,0.7,0.7-0.2,1-0.5c0.3-0.1,0.9,0.2,0.9,0.6c0,0.3-0.1,0.7,0.2,0.9
			c0,0.6-2.7,2.2-3,2.8c-1.1,1.1-1.3,1.7-2.2,1.2c-0.8,0.5-0.4,1.3-1.8,0.7c-2.7,0.4-0.6,1.5-1.5,2.1
			C66.1,174.1,67.8,176.1,66.3,176z"/>
		<path class="st0" d="M75.1,163.3c-0.1-0.3,1-1.3,1.1-0.5C76.1,163,75.1,163.5,75.1,163.3z"/>
		<path class="st0" d="M74.1,131.2c1.4-0.2,0.1-1.9,0.2-2.4c0.3-0.4,1.2-0.2,1.2,0.3c-0.5,0.8,1,0.3,0.6,1c-0.2,0.2-0.6,0-0.8,0.1
			C75.1,131,75.2,131.7,74.1,131.2z"/>
		<path class="st0" d="M79,105.8c-0.1-0.4-0.2-1.1,0.3-1.4c0.1-0.1,1.3,1.4,1.3,1.5c-0.3,0.1-0.8,0.4-0.4,0.8
			c0.3,0.3,0.8,0.1,0.8,0.3C80.5,108.1,79.3,106.7,79,105.8z"/>
		<path class="st0" d="M81.8,106.7c0.3-0.3,1.1,0,1.3,0.2c1,0.6,3.1-0.5,1.9,0.8c-0.3,0-1.9-0.5-2.2-0.3
			C81.9,107.7,81.4,107.5,81.8,106.7z"/>
		<path class="st0" d="M81.1,107.4c-0.7,0.4,1.2,1.1,1.5,1c0.6-0.1,0.6-0.2-0.1-0.3C81.3,107.9,81.6,107.8,81.1,107.4z"/>
		<path class="st0" d="M90.2,107.1c-0.2,0.1,0,0.6,0.2,0.7c0.2,0.3-0.1,0.6,0,1.1c0.1,0.4,0.5,0.4,0.6,0.9c0,0.5,0.2,0.7,0.5,1
			c0.1,0.4,0,0.8,0.5,0.5c0.3-0.6-0.2-0.8-0.5-1.3c0-0.3-0.6-0.8-0.1-0.8C91.4,108.7,90.8,107.1,90.2,107.1z"/>
		<path class="st0" d="M95,130.2c0.2,0.1,1-0.7,1.4-0.6c-0.5,1.4-2.9,1.8-2.3,3.6c0.4,1.1,0.9-0.5,0.9,1.5c0.2,0.3,2.7-0.9,2.7-0.5
			c1,0.9,1.4-2,1.6-2.3c0.3-0.1,0.6,1.3,1,1.3c0.6-0.2,0.5-1.8,0-2.4c0-0.7-0.1-3.9-0.1-4.1c0.9,0.3,0.3,1.6,0.8,2.7
			c1.2,3-1.7,6.2,0.4,8.5c0.5-0.7,0.7,0.4,0.3,0.7c0.8,0.5-0.1,1-0.6,0.2c-0.2-0.6-0.2-1.1-0.9-1.5c-0.3-1.3-1.6-1.4-2.6-0.8
			c-0.4,0.4-0.2,0.9,0.2,0.7c-0.1,0.1-1.6,0.4-2,0.5c-1.2,0.2-1.3,0.6-2-0.1c-0.2-0.2,0-0.6,0.2-0.7c0-0.1-1-0.3-1-0.6
			c1-0.2,0.4-0.9-0.2-1.2c-0.1-0.3,0.2-0.6,0-0.8c-0.6-0.1-0.1-1.6,0-1.7c0.3,0,0.4-0.3,0.3-0.6c-1.1-1.1,0.8-1.5,1.4-2.1
			C94.7,129.8,94.8,130.1,95,130.2z"/>
		<path class="st0" d="M99.2,129.1c-0.4,0.2-0.7,1.7,0.1,1.9C99.5,131.2,99.3,129,99.2,129.1z"/>
		<path class="st0" d="M96.8,128c-0.7-1.1,2-3.1,2.7-3.2c-0.6,0.8-0.4,2.3-1.2,1.4C97.3,126.1,97.5,128.1,96.8,128z"/>
		<path class="st0" d="M84.6,139.1c0.3-0.3,1,0.5,0.7,0.7C85.1,139.9,84.5,139.2,84.6,139.1z"/>
		<path class="st0" d="M87.5,137.1c-0.4,0.3-0.8,1.1-0.2,1.2C88,138.2,88.4,136.2,87.5,137.1z"/>
		<path class="st0" d="M86.6,136.4c0.4-0.4,0.6,0.5,0.4,0.6C86.8,137,86.4,136.6,86.6,136.4z"/>
		<g>
			<g>
				<path class="st0" d="M111.3,97.9c0-0.5-0.2-1.1-0.5-1.5c-0.1-0.5,0.2-1.3,0.1-2c0.4-0.3,0.7,0.1,0.4,0.5c-0.3,0.6,0,1.3,0.1,1.6
					c0.1,0.4,0.3,0.4,2.3,1.8c0.7,0.5,0.9,0.6,1.3,0.7c0.6,0.1,0.9-0.1,1.4,0.2c1.2,0.8,0.5,1.3,0.8,2.3c0.3,0.4,0.5,1.4,0.1,1.7
					c-0.2,0.1-0.4-0.1-0.5,0.1c0,0.3-0.3,0.4-0.6,0.3c-0.4-0.2-0.2-1.1-0.3-1.2c-0.1,0-0.1,0.5-0.4,0.6c-0.3,0.1-0.6,0-0.7,0.1
					c0,0.3,0,0.4-0.3,0.5c-0.2,0.3,0.1,1.8-0.7,1.8c-0.5-0.9-0.9-4,0.1-3.8c0.1-0.1-0.3,1.3,0,1.4c0.2,0.1,1.4-0.9,1.3-2
					C114.5,99.1,112.1,98.8,111.3,97.9z"/>
				<path class="st0" d="M92.8,112.7c0.1-0.1,1.1-0.4,1.2-0.4c0.2,0.1,0.2,0.3,0.5,0.6c0.4,0.4,0.6,0.3,0.8,0.6
					c0.2,0.3,0,0.6,0.2,0.8c1.2,0.1,1.2-0.6,2.2,1.4c0.9,1.7,0.9,1.3,2,1.8c0.3,0.3,0.2,0.6,0.5,0.9c0.7,0.7,0.7-0.2,1.1-1.1
					c0.8-1.5,2.6-3.5,4.1-3.9c1-0.8,0.4-1.8,1.2-3.2c0.9-2,3-2.5,5.4-2.4c0.1-0.2-0.3-0.3-0.2-0.6c0.1-0.6,1.3-0.7,1.7-0.4
					c0-0.2-0.3-1.2,0.5-0.9c0.3,0.1,0.1,0.6,0.3,1.1c0.3,0.5,0.7,0.4,0.9,0.9c0.3,0.6-0.2,1.1,0.1,1.6c0.5,0.7,1.4,0.5,1.8,0
					c0.1,0,0.9,1.4,0.9,1.5c0,0.4-0.5,0.5-0.8,1.1c-0.4,0.7-0.2,1.3-0.4,1.4c-0.3,0.1-0.6-0.7-1.6-1.6c-0.9-1.1-2.3-1.1-2.6-2.5
					c-0.6-0.5-2.7,0.2-3.1,0.4c-1.9,1.2,0,1-0.7,2.6c0,1.3-0.2,1.5-1.3,2.7c-0.9,1.1-1,1.9-1.4,1.9c-0.4,0-0.5-1.1-1-1.1
					c-0.6,0.1-0.7,1-0.8,1.4c-1.9,0.5-2.1,3.3-2.9,4.1c-0.7-0.4-0.1-0.9,0.2-1.6c0.7-2-1.6,1-2.8,0.1c-0.2-0.2,0-0.4-0.1-0.8
					c-0.1-0.5-0.6-0.5-0.9-1c-0.4-0.6,0.2-1-0.1-1.8c-0.4-1.4-2-1-2.8-1.2C95.5,112.3,92.6,114,92.8,112.7z"/>
				<path class="st0" d="M111.8,104.4c-0.1,0.1-0.1,0.3,0,0.4C112.1,104.9,112.2,104.3,111.8,104.4z"/>
			</g>
			<path class="st0" d="M98.4,114.4c-0.2-0.4,0.2-0.6,0.2-0.9c-0.2-0.2-0.3-0.8,0.1-0.7c0-0.2,0.1-0.4,0.3-0.1
				c0.1,0.2-0.1,0.3,0,0.5C99.8,113.7,99.2,115.1,98.4,114.4z"/>
			<path class="st0" d="M99.3,113c0-0.2,0.2-0.3,0.3-0.6c-0.1-0.5,0.3-0.7,0.6-0.4c0.4,0.6-0.6,0.3-0.3,0.7c0.4-0.1,0.3,0,0.4,0.4
				c0.1,0.3,0.3,0.4,0.3,0.5c0,0.2-0.5,0.4-0.7,0.3C99.8,113.6,99.5,113.2,99.3,113z"/>
			<path class="st0" d="M100.4,112.9c-0.1-0.4,0.3-0.6,0.5-0.4c-0.1-0.2-0.1-0.6,0.1-0.9c0-0.1-0.2-0.1-0.3-0.3
				c-0.2-0.6,0.1-0.3-0.2,0c-0.4,0-0.5-1.2-0.2-1.2c0.1,0,0.2,0.4,0.5,0.4c0.8-0.4,0,0.5,0.6,0.8c0.2,0.1,0.4-0.1,0.6-0.1
				c0.3,0.1,0.2,0.4,0.5,0.6c0.3,0.3,0.7,0.2,0.7,0.4c-0.1,0.8-1-0.4-1.2,0.3c0.2,0.2,0,0.4-0.1,0.7c0.1,0.9-0.2,0.7-0.6,0.3
				c-0.4,0.1-0.3,0-0.4-0.4C100.7,113,100.5,113.1,100.4,112.9z"/>
			<path class="st0" d="M102.5,113.2c-0.2,0.2-0.1,0.7,0.2,0.8C103.5,113.9,103.4,112.9,102.5,113.2z"/>
			<path class="st0" d="M97.9,110.1c-0.1-0.1,0.1-0.2,0.2-0.2c0-0.1-0.2-0.2-0.2-0.4c0.3-0.6,1.3-1.2,1.2-0.1c0.1,0.3,0.2,0.4,0,0.6
				c-0.3,0-0.1-0.4-0.4-0.6c-0.1-0.2,0.1-0.5-0.2-0.4c-0.3,0.3,0.5,0.5,0.1,0.8c-0.2,0-0.2-0.4-0.3-0.4c-0.2,0-0.2,0.1-0.1,0.2
				C98.1,109.9,98.2,110.4,97.9,110.1z"/>
			<path class="st0" d="M99.8,108.8c0.3-0.3,0.5,0.4,0.9,0.4c0.2,0,0.1,0.2,0.1,0.3c0,0.1,0.3,0,0.3,0.1c-0.1,0.1,0.2,0.3-0.1,0.4
				c-0.1,0-0.3-0.1-0.3-0.2C100.6,109.5,99.9,109.2,99.8,108.8z"/>
			<path class="st0" d="M101.3,110.3c-0.1-0.1,0-0.4,0-0.5c0-0.1-0.2-0.3-0.2-0.5c-0.1-0.3-0.4-0.3-0.5-0.6c0-0.2-0.2-0.5-0.3-0.5
				c0.1-0.1,0.4,0.1,0.4,0.3c0.2,0.1,0.3,0.2,0.3,0.4c0.2,0.1,0.4,0.4,0.6,0.4c0.1,0.1,0,0.3-0.1,0.3
				C101.4,109.7,101.7,110.3,101.3,110.3z"/>
			<path class="st0" d="M101.2,108.5c-0.1-0.2,0.1-0.1,0.2-0.1c0.1-0.1,0.2-0.3,0.4-0.1c-0.1,0.2,0.2,0.8,0.3,1
				c0.2,0,0.1-0.2,0.1-0.3c0.5,0,0.3,0.3,0.3,0.6c0.3,0.2,0.4-0.4,0.2-0.6c-0.1-0.1-0.3-0.2-0.3-0.3c-0.2-0.2-0.3,0.2-0.4,0.1
				c-0.1-0.2,0.2-0.8,0.4-0.8c0.1,0.1,0.6,0.2,0.7,0c-0.1-0.2-0.6,0.2-0.6-0.3c0,0,0.2-0.6,0.4-0.3c0.3,0,0.1-0.1,0-0.2
				c0.1-0.1,0.3-0.1,0.4,0.2c0.1,0.7,0.4,0.8,0.2,1.3c0.1,0.3-0.5,0.3-0.3,0.6c0.1,0,0.6-0.2,0.6,0.2c0,0.1-0.4,0-0.5,0.2
				c0,0.1,0,0.3-0.3,0.4c-0.2-0.1-0.3-0.1-0.6,0c-0.3,0-0.3-0.2-0.2-0.4c-0.3-0.1-0.5-0.3-0.5-0.6
				C101.4,108.8,101.5,108.6,101.2,108.5z"/>
			<path class="st0" d="M115,103.6c0-0.3,0.7-0.4,0.8-0.2c0.2,0.5-0.5,1.2-0.8,1.1C114.7,103.8,116.1,104,115,103.6z"/>
			<path class="st0" d="M114.7,105.3c-0.2,0.5,0.1,1.6,0.5,1.8C115.4,107,114.8,105.3,114.7,105.3z"/>
			<path class="st0" d="M103.5,112c0,0.3,0.2,0.6,0.5,0.7c0.4-0.3,0.4-1-0.1-0.6C103.7,111.9,103.6,111.7,103.5,112z"/>
			<path class="st0" d="M104.3,111c-0.2,0.1-0.2,0.5,0,0.6c0.3,0,0.6-0.3,0.2-0.3C104.6,111.1,104.6,110.9,104.3,111z"/>
			<path class="st0" d="M99.3,115.2c0.2,0.4,0,1,0,1.2C99.9,116.6,99.7,114.6,99.3,115.2z"/>
			<path class="st0" d="M100.3,114.2c-0.1,0.1,0.4,1.6,0.4,0.5c0,0,0.1,0.1,0.2,0.1c0.4-0.1,0.5-0.3,0-0.3
				C100.7,114.4,100.6,114,100.3,114.2z"/>
			<path class="st0" d="M100.9,113.9c-0.3,0.2,0.2,0.7,0.3,0.2C101.3,114,101.1,113.9,100.9,113.9z"/>
			<path class="st0" d="M101.5,114.3c0,0.3,0.2,0.4,0.1,0.8C102,116.2,102.2,113.9,101.5,114.3z"/>
			<path class="st0" d="M103.6,107.7c0-0.3,0.4-0.5,0.5-0.3c0.2,0,0.4-0.1,0.4,0.2c-0.3,0.3,0.2,0.6-0.1,0.9c0,0-0.9-0.2-0.5-0.5
				c0.2,0,0.2-0.1,0.1-0.3C103.9,107.8,103.6,107.9,103.6,107.7z"/>
			<path class="st0" d="M109.7,105.8c-0.5,0.2,0.2,2.4,0.4,1.2C111,107.4,110.2,105.6,109.7,105.8z"/>
			<path class="st0" d="M107.8,103.9c0.3,0.1,0.6-0.2,0.5-0.6c-0.2-0.4-0.7-0.5,0-0.4C109.4,103.2,108,105.3,107.8,103.9z"/>
			<path class="st0" d="M108.6,104.8c-0.2-0.2,0.2-0.9,0.5-1.1C109.6,103.8,109.3,105.6,108.6,104.8z"/>
			<path class="st0" d="M105.9,106c0.2-0.6,1.4,0.8,0.7,0.9c-0.1,0,0-0.3-0.2-0.6C106.1,106.1,105.9,106.1,105.9,106z"/>
			<path class="st0" d="M104.8,108.5c-0.1-0.1,0,0.9,0.1,1c0.2-0.1,0.1-0.3,0.1-0.5C105.2,108.7,105.2,108.4,104.8,108.5z"/>
			<path class="st0" d="M105.4,109c0-0.1,0.2-0.8,0.2-0.7C106,108.5,106,109.8,105.4,109z"/>
			<path class="st0" d="M106.6,107.2c-0.2,0.3,0.3,0.8,0.6,0.4C107.2,107.4,106.8,107.1,106.6,107.2z"/>
			<path class="st0" d="M107.7,105.6c0.7,0,0.3-0.2,0.3-0.6c0.1-0.1,0.7,0.2,0.7,0.4c-0.2,0.2-0.3,0.3-0.3,0.6
				C108.3,106.1,107.4,105.9,107.7,105.6z"/>
			<path class="st0" d="M107.1,102.8c-0.4,0.4,0.3,0.7,0.5,0.3C107.7,102.9,107.3,102.7,107.1,102.8z"/>
			<path class="st0" d="M107,103.7c0,0-0.1,0.4,0.1,0.5c0.2,0,0.2,0.1,0.2,0.3c0.2,0.2,0.3-0.2,0.1-0.3
				C107.3,104.1,107,103.7,107,103.7z"/>
		</g>
		<path class="st0" d="M116.4,95.3c-0.2-0.3-0.2-0.8,0-1c0.3-0.3,0.6,0,1-0.3c0.4-0.3,0.4-0.9,0.6-0.9
			C119,93.9,117.6,96.8,116.4,95.3z"/>
		<path class="st0" d="M116.1,93.5c0.2,0.2,1.2-0.3,1.3-0.5c-0.3-0.4-0.7-0.1-1.1,0.1C115.8,93,115.8,93.3,116.1,93.5z"/>
		<path class="st0" d="M120.1,94.5c2.3-0.3,2.6,5.8,5.1,4.2c0-0.4-1.4-1.3-0.3-1.6c0.4-0.1,0.9,0.3,1,0.6c-0.2,0.4-0.2,1,0.3,1.3
			c0.6,0.6,1.1,0.4,0.8,1c1.1,0.7,0.3,1.8-1.2,1.8c-1.3-0.2-1.9,1.2-2.7,0.5c1.4-0.8,1-2.7-0.7-2c-0.2,0.3,0.3,0.8,0.1,1
			c-0.2,0.2-0.7,0-0.9-0.4c-0.5-1.1,0.4-1.7,0.8-2.4C122.7,96.2,120.5,96.3,120.1,94.5z"/>
		<path class="st0" d="M127.3,98.1c0.9-1.2,1.4-1.5,1.8-1.9c1.7-3.3-2-1.3-3.3-3.1c-2.8-1.3-1.6,1-3.1,1.6c-1.1-0.6-0.5-1.5-2.3-0.9
			c0.3-1.2-1.7-1.5,0.1-2c0.6-0.1,0.9,0.3,1.4,0.3c0.8,0,0.8-0.9,2-1.3c0.3-0.4,2.5-0.1,3.1-0.1c-0.4-1.7,1.8-1.6,2.5-0.5
			c0.2,0.6-0.7,0.9-0.6,1.8c0.1,1,1.4,1.5,1.3,2.3c-0.1,0.4,0,0.7,0.5,0.7c0.4,0.2,0.4,1.3,0,1.6c-0.8,0.1-0.3,0.3-0.3,0.8
			c-0.1,0.3-0.7,0.1-1,0.4c-0.3,0.3,0,0.7-0.3,1.1c-0.5,0.7-1,0.5-1.5-0.1C127.3,98.5,126.8,98.8,127.3,98.1z"/>
		<path class="st0" d="M119.1,93.3c-1,0.7,0.8,1.5,1.1,0.8C120.3,93.9,119.4,93.2,119.1,93.3z"/>
		<path class="st0" d="M123,95.1c0.7-0.5,1.7-0.2,2,0.6c-0.2,0.7,0.6,1.3,1.2,1c0.9-0.6-0.8-0.6-0.4-1.3c0.1-0.2,0.5,0,0.7-0.2
			c0.1-0.5-0.1-1.1,0.6-0.5c0.1,0.2,0,0.4,0,0.8c-0.1,0.3,0.5,1.3,0.5,1.6c-0.5,0.9-1.3-0.1-2.2-0.3c-0.7-0.4-1-0.3-1.5-0.4
			c-0.2-0.2,0-0.5-0.1-0.6C123.3,95.8,122.6,96,123,95.1z"/>
	</g>
</g>
<g id="Layer_1_00000136380333022120832150000006388731779500517772_">
</g>
</svg>
