<?xml version="1.0" encoding="utf-8"?>
<!-- Generator: Adobe Illustrator 26.0.3, SVG Export Plug-In . SVG Version: 6.00 Build 0)  -->
<svg version="1.1" id="Isolation_Mode" xmlns="http://www.w3.org/2000/svg" xmlns:xlink="http://www.w3.org/1999/xlink" x="0px"
	 y="0px" viewBox="0 0 200 200" enable-background="new 0 0 200 200" xml:space="preserve">
<g>
	<path fill="#1E8346" d="M12.099,52.644c-0.073-0.575,0.115-0.859,0-1.571c-0.156-0.963-0.687-1.597-0.889-1.868
		c-0.733-0.982-0.923-2.417-1.275-5.247c-1.044-8.41-0.939-8.327-1.215-8.893c-0.991-2.029-2.286-2.978-2.253-5.158
		c0.004-0.256,0.037-1.255,0.563-2.401c0.967-2.107,2.37-2.038,4.595-4.417c1.139-1.219,2.038-2.592,2.787-3.735
		c0.594-0.907,1.183-1.894,2.342-2.964c0.571-0.528,1.715-1.584,2.253-1.275c0.56,0.321,0.17,1.95,0.119,2.164
		c-0.425,1.774-1.319,2.214-2.638,4.15c0,0-1.854,2.72-2.431,5.751c-0.257,1.353-0.173,2.329-0.148,2.579
		c0.084,0.853,0.222,0.856,0.326,1.72c0.229,1.908-0.382,2.419,0.089,3.142c0.552,0.847,1.602,0.468,2.046,1.334
		c0.377,0.735-0.276,1.21,0.059,2.016c0.498,1.195,2.481,1.46,2.668,1.482c1.09,0.133,1.417-0.266,2.342,0.089
		c0.546,0.209,0.714,0.456,1.304,0.534c0.603,0.079,0.839-0.125,1.393-0.148c0.828-0.034,1.021,0.391,1.957,0.682
		c1.608,0.5,2.281-0.369,3.765,0.237c0.612,0.25,0.424,0.368,1.156,0.741c1.218,0.621,3.552,1.22,4.862,0.237
		c0.349-0.262,0.807-0.773,1.364-0.682c0.231,0.038,0.39,0.165,0.682,0.119c0.313-0.05,0.423-0.242,0.682-0.385
		c0.482-0.267,0.798,0.015,1.304-0.059c1.072-0.156,1.108-1.629,2.223-1.838c0.555-0.104,0.654,0.24,1.215,0.059
		c0.519-0.167,0.718-0.551,1.364-0.623c0.273-0.03,0.246,0.038,0.445,0c0.78-0.147,0.972-1.148,1.393-1.097
		c0.251,0.03,0.232,0.39,0.563,0.474c0.369,0.094,0.88-0.229,0.949-0.593c0.054-0.285-0.197-0.424-0.119-0.593
		c0.127-0.274,0.826-0.008,1.601-0.237c0.633-0.187,0.739-0.533,1.156-0.741c0.329-0.164,1.263-0.448,3.854,1.423
		c2.234,1.613,2.198,2.299,3.824,3.409c0.654,0.447,1.057,0.606,4.417,1.749c6.067,2.063,5.828,1.908,6.314,2.164
		c4.43,2.336,5.781,3.291,5.781,3.291c0.267,0.189,1.377,0.979,1.808,0.652c0.391-0.296-0.057-1.294,0.237-1.453
		c0.33-0.178,0.961,1.041,2.223,1.808c1.09,0.663,2.141,0.68,4.032,0.711c1.932,0.032,2.898,0.048,3.706-0.593
		c0.221-0.175,0.456-0.419,0.771-0.385c0.598,0.065,1.004,1.078,1.126,1.779c0.153,0.876-0.086,1.565-0.385,2.431
		c-0.326,0.942-0.725,1.556-1.215,2.312c-0.526,0.81-0.795,1.216-1.097,1.304c-0.767,0.223-1.177-0.723-2.698-1.275
		c-0.383-0.139-1.752-0.635-3.024-0.119c-0.626,0.254-0.556,0.481-1.72,1.275c-0.972,0.664-1.838,1.255-2.283,0.978
		c-0.477-0.297,0.096-1.242-0.474-1.957c-0.219-0.274-0.539-0.43-2.609-0.682c-2.117-0.257-2.115-0.134-2.461-0.326
		c-1.26-0.699-0.862-2.091-2.075-2.727c-0.846-0.444-1.978-0.259-2.698,0.207c-0.987,0.64-0.615,1.433-1.66,2.609
		c-0.619,0.697-0.733,0.4-3.024,1.927c-1.477,0.984-0.843,0.717-2.194,1.631c-0.824,0.557-1.37,0.867-1.541,1.512
		c-0.121,0.453,0.071,0.59-0.089,1.097c-0.229,0.723-0.73,0.79-0.889,1.334c-0.19,0.649,0.298,1.322,0.563,1.69
		c0.676,0.933,1.591,1.374,2.757,1.838c2.024,0.805,3.659,1.226,4.328,1.393c4.164,1.043,5.035,0.832,5.662,0.474
		c0.654-0.373,1.347-1.081,1.215-1.601c-0.15-0.592-1.243-0.43-2.253-1.453c-0.257-0.26-0.845-0.855-0.83-1.601
		c0.017-0.843,0.785-0.916,1.364-2.016c0.808-1.536,0.002-2.71,0.949-3.528c0.445-0.384,0.98-0.433,1.126-0.445
		c0.503-0.039,1.278,0.095,1.541,0.593c0.25,0.473-0.224,0.777-0.119,1.423c0.166,1.012,1.582,1.804,2.816,1.838
		c0.414,0.011,0.707-0.067,1.126-0.178c0.489-0.13,1.701-0.451,2.579-1.453c0.474-0.541,0.486-0.864,0.86-0.949
		c0.474-0.107,0.652,0.37,1.423,0.623c1.087,0.356,1.57-0.319,2.342,0.119c0.587,0.332,0.478,0.818,1.097,1.038
		c0.545,0.193,0.805-0.121,1.275,0.089c0.553,0.247,0.424,0.786,0.889,1.215c0.291,0.269,0.709,0.397,3.32,0.148
		c1.553-0.148,1.884-0.239,2.401,0c0.575,0.265,1.215,0.862,1.245,1.571c0.018,0.436-0.199,0.79-1.186,1.779
		c-1.637,1.64-2.481,2.468-3.706,2.816c-0.606,0.173-1.332,0.379-2.046,0.059c-0.734-0.329-0.679-0.866-1.393-1.097
		c-0.272-0.088-0.389-0.045-2.223,0.267c-0.926,0.157-0.995,0.163-1.186,0.237c-0.244,0.095-0.979,0.391-1.512,1.156
		c-0.5,0.717-0.868,1.911-0.415,2.698c0.146,0.254,0.301,0.331,0.356,0.622c0.102,0.54-0.339,0.75-0.326,1.275
		c0.016,0.634,0.685,1.288,1.275,1.304c0.359,0.01,0.379-0.225,0.771-0.296c0.912-0.166,1.391,0.998,2.312,0.86
		c0.368-0.055,0.763-0.312,0.889-0.652c0.127-0.342-0.107-0.532,0-0.889c0.134-0.449,0.714-0.846,1.186-0.771
		c0.442,0.07,0.706,0.541,1.186,1.393c0.423,0.752,0.428,1.009,0.623,1.038c0.445,0.066,1.242-1.148,1.364-2.461
		c0.111-1.202-0.402-1.86-0.03-2.194c0.436-0.39,1.533,0.159,1.69,0.237c0.994,0.497,0.962,1.083,1.571,1.186
		c0.948,0.16,1.415-1.19,2.431-1.067c0.787,0.095,0.844,0.945,1.631,1.038c1.012,0.119,2.244-1.131,2.105-1.956
		c-0.094-0.561-0.808-0.842-0.682-1.186c0.086-0.235,0.44-0.16,0.741-0.534c0.232-0.288,0.116-0.45,0.296-0.682
		c0.356-0.457,1-0.07,1.512-0.445c0.142-0.104,0.265-0.261,0.593-1.868c0.233-1.143,0.255-1.476,0.524-1.601
		c0.4-0.186,0.753,0.368,1.206,0.198c0.514-0.194,0.827-1.199,0.514-1.818c-0.245-0.485-0.788-0.565-0.771-0.909
		c0.015-0.303,0.442-0.343,0.474-0.632c0.042-0.379-0.662-0.563-1.482-1.364c-0.488-0.477-0.814-0.795-0.889-1.285
		c-0.107-0.696,0.404-1.01,0.198-1.522c-0.179-0.445-0.798-0.786-1.166-0.632c-0.605,0.253-0.152,1.686-0.81,2.036
		c-0.47,0.249-1.335-0.145-1.64-0.751c-0.314-0.622,0.024-1.342,0.356-2.055c1.484-3.192,2.228-4.8,2.293-5.356
		c0.239-2.061-0.913-3.046-0.198-3.893c0.553-0.656,1.327-0.165,2.945-0.593c1.998-0.529,2.102-1.618,4.467-2.806
		c0.438-0.22,2.009-0.975,3.953-1.166c1.463-0.144,2.317,0.112,5.415,0.929c6.224,1.641,6.832,1.675,8.973,2.53
		c1.777,0.709,2.672,1.066,3.854,1.838c2.341,1.528,1.844,2.092,4.605,4.111c1.078,0.788,2.006,1.325,2.312,2.47
		c0.21,0.784,0.025,1.468-0.079,1.838c-0.154,0.545-0.656,1.947-3.202,3.715c-2.155,1.498-4.325,3.005-7.134,2.885
		c-1.442-0.061-2.887-0.544-3.893,0.356c-0.413,0.369-0.285,0.554-0.712,1.126c-1.127,1.515-2.569,0.959-4.308,2.372
		c-0.42,0.341-1.479,1.202-1.818,2.589c-0.222,0.908,0.059,1.248-0.296,2.055c-0.401,0.911-0.99,1.004-1.719,1.917
		c-0.691,0.865-0.644,1.385-1.107,2.431c-0.949,2.146-2.029,1.953-3.933,4.704c-0.888,1.282-1.381,2.013-1.502,3.103
		c-0.178,1.594,0.583,2.672,1.225,4.051c1.27,2.726,1.581,5.559,1.502,7.411c-0.019,0.454-0.293,5.392-3.498,8.301
		c-0.64,0.581-1.126,0.835-2.391,2.016c-1.724,1.609-1.996,2.234-3.024,2.846c-1.365,0.813-2.746,0.819-3.893,0.81
		c-0.889-0.007-2.983-0.116-8.656-2.826c-6.522-3.115-5.221-3.671-8.281-4.724c-0.616-0.212-2.856-0.942-3.044-2.253
		c-0.056-0.39,0.071-0.83-0.217-1.403c-0.261-0.519-0.586-0.602-0.988-1.048c-0.606-0.672-0.381-1.055-0.87-2.075
		c-0.717-1.497-1.541-1.38-1.779-2.51c-0.204-0.97,0.369-1.22,0.04-1.917c-0.402-0.851-1.379-0.738-1.878-1.759
		c-0.221-0.454-0.038-0.495-0.237-1.107c-0.464-1.423-1.776-2.173-2.115-2.352c-0.829-0.438-1.07-0.232-1.996-0.573
		c-1.345-0.496-2.041-1.376-2.648-1.976c-1.067-1.055-2.872-1.718-6.483-3.044c-2.112-0.775-3.678-1.198-5.534-1.7
		c-3.637-0.982-5.456-1.474-7.154-1.482c-2.902-0.015-4.353-0.022-4.684,0.059c-0.262,0.064-0.735,0.197-1.265,0.02
		c-0.727-0.244-0.928-0.862-1.68-1.64c-0.382-0.395-0.656-0.573-1.64-1.225c-7.093-4.696-5.733-3.962-7.214-4.842
		c-2.037-1.21-2.801-1.523-3.617-2.629c-0.683-0.926-0.614-1.338-1.403-2.154c-0.633-0.655-1.208-0.938-3.3-1.937
		c-2.876-1.373-2.688-1.267-2.866-1.364c-1.832-1.003-2.839-1.937-4.289-3.281C12.606,53.903,12.19,53.36,12.099,52.644z"/>
	<path fill="#1E8346" d="M65.441,61.765c0.079,0.02,0.637,0.153,0.949-0.138c0.253-0.236,0.13-0.552,0.099-1.581
		c-0.038-1.249,0.123-1.397-0.099-1.818c-0.032-0.061-0.438-0.804-1.206-0.87c-0.127-0.011-0.667-0.038-0.949,0.316
		c-0.335,0.421-0.141,1.177,0.178,1.601c0.198,0.263,0.378,0.31,0.514,0.642c0.036,0.087,0.146,0.365,0.099,0.711
		c-0.055,0.404-0.267,0.491-0.208,0.712C64.896,61.627,65.326,61.736,65.441,61.765z"/>
	<path fill="#1E8346" d="M46.616,12.336c0.293,0.059,0.552-0.314,1.107-1.008c1.131-1.415,1.325-1.456,1.423-1.957
		c0.034-0.176,0.15-0.818-0.217-1.423c-0.056-0.092-0.601-0.959-1.443-0.85c-0.435,0.056-0.945,0.373-1.008,0.791
		c-0.075,0.499,0.561,0.652,0.771,1.502c0.031,0.126,0.176,0.711-0.079,1.285c-0.309,0.695-0.969,0.845-0.909,1.265
		C46.287,12.128,46.447,12.302,46.616,12.336z"/>
	<path fill="#1E8346" d="M86.242,26.868c0.188,0.135,0.46,0.114,0.637,0c0.367-0.235,0.413-0.913,0.104-1.127
		c-0.218-0.15-0.6-0.062-0.8,0.178C85.95,26.196,85.966,26.67,86.242,26.868z"/>
	<path fill="#1E8346" d="M85.916,43.068c0.272,0.131,0.871-0.266,0.963-0.786c0.073-0.408-0.164-0.909-0.445-0.934
		c-0.269-0.024-0.492,0.396-0.534,0.474C85.665,42.266,85.645,42.938,85.916,43.068z"/>
	<path fill="#1E8346" d="M91.311,43.306c-0.124-0.037-0.376,0.232-0.4,0.541c-0.028,0.359,0.257,0.67,0.385,0.637
		C91.509,44.429,91.528,43.371,91.311,43.306z"/>
	<path fill="#1E8346" d="M89.265,54.245c-0.255-1.085,0.03-1.887,0.03-1.887c0.254-0.718,0.5-0.612,0.553-1.077
		c0.064-0.556-0.287-0.7-0.415-1.581c-0.052-0.357-0.105-0.723,0.03-1.136c0.149-0.457,0.376-0.51,1.087-1.324
		c0.661-0.756,0.688-0.967,0.909-0.968c0.549-0.005,1.014,1.279,1.176,2.006c0.098,0.439-0.014,0.229,0.109,1.947
		c0.053,0.739,0.092,1.04-0.119,1.304c-0.304,0.381-0.77,0.237-0.929,0.573c-0.178,0.377,0.327,0.729,0.267,1.215
		c-0.079,0.635-0.958,0.961-1.413,1.136c-0.269,0.103-0.864,0.332-1.146,0.069C89.315,54.439,89.287,54.336,89.265,54.245z"/>
	<path fill="#1E8346" d="M103.732,26.69c-0.267-0.212-0.297-0.687-0.119-0.978c0.137-0.224,0.38-0.312,0.682-0.385
		c1.052-0.257,2.516-0.265,2.594,0.119c0.03,0.146-0.152,0.296-0.207,0.341c-0.405,0.333-0.82-0.063-1.393,0.148
		c-0.616,0.227-0.691,0.887-1.215,0.875C104.032,26.807,103.87,26.799,103.732,26.69z"/>
	<path fill="#1E8346" d="M109.8,27.584c-0.154,0.204-0.098,0.595,0.089,0.702c0.171,0.098,0.341-0.107,0.929-0.316
		c0.556-0.197,0.878-0.183,0.879-0.267c0.002-0.116-0.614-0.207-0.939-0.237C110.241,27.418,109.946,27.391,109.8,27.584z"/>
	<path fill="#1E8346" d="M126.3,27.875c0.047-0.184,0.395-0.24,0.652-0.282c0.682-0.11,1.643,0,1.697,0.319
		c0.05,0.293-0.655,0.811-1.327,0.741C126.763,28.596,126.234,28.131,126.3,27.875z"/>
	<path fill="#1E8346" d="M136.594,28.305c0.19-0.55,1.438-0.795,1.927-0.237c0.229,0.262,0.31,0.721,0.104,1.067
		c-0.253,0.426-0.828,0.49-1.215,0.371C136.847,29.332,136.456,28.703,136.594,28.305z"/>
	<path fill="#1E8346" d="M140.522,26.615c0.109-0.15,0.28-0.221,0.43-0.222c0.367-0.004,0.677,0.408,0.608,0.608
		c-0.095,0.275-0.971,0.338-1.126,0.044C140.363,26.912,140.447,26.719,140.522,26.615z"/>
	<path fill="#1E8346" d="M156.96,38.977c-0.208,0.346-0.093,0.746,0,1.067c0.065,0.226,0.132,0.332,0.949,1.453
		c0.257,0.353,0.39,0.531,0.563,0.593c0.369,0.131,0.843-0.042,1.097-0.341c0.453-0.533,0.133-1.381,0-1.734
		c-0.101-0.267-0.53-1.403-1.453-1.512C157.73,38.458,157.196,38.585,156.96,38.977z"/>
	<path fill="#1E8346" d="M86.894,57.214c-0.037-0.121,0.263-0.402,0.588-0.405c0.374-0.003,0.704,0.364,0.652,0.489
		c-0.036,0.087-0.276,0.066-0.756,0.025C87.069,57.296,86.915,57.281,86.894,57.214z"/>
	<path fill="#1E8346" d="M87.343,57.772c0.12-0.249,0.807-0.223,0.904,0.01c0.079,0.189-0.179,0.631-0.514,0.593
		C87.439,58.342,87.256,57.954,87.343,57.772z"/>
	<path fill="#1E8346" d="M160.562,157.173c0.424-2.381-1.155-4.065-0.237-5.04c0.245-0.261,0.34-0.12,0.563-0.385
		c0.767-0.91-0.592-2.276,0.03-3.557c0.39-0.805,1.182-0.794,1.423-1.779c0.099-0.403,0-0.542,0-1.008
		c0.001-1.411,0.91-1.957,1.571-3.676c0.415-1.078,0.162-1.135,0.504-2.134c0.324-0.946,0.881-1.859,2.668-3.587
		c3.361-3.249,5.273-3.77,5.395-5.395c0.024-0.313,0.011-1.062,0.385-1.986c0.237-0.585,0.517-0.962,0.741-1.275
		c1.092-1.524,1.638-2.286,1.927-3.053c0.677-1.797-0.098-2.708,0.83-3.676c0.366-0.382,0.772-0.537,0.949-1.097
		c0.17-0.539-0.091-0.759,0-1.482c0.052-0.417,0.172-0.609,0.623-1.542c0.57-1.181,0.616-1.365,0.8-1.719
		c0.681-1.306,2.644-3.757,4.387-3.35c0.844,0.197,1.331,0.993,1.631,1.482c0.098,0.16,1.004,1.689,0.474,3.231
		c-0.294,0.858-0.739,0.865-1.304,2.253c-0.367,0.9-0.34,1.289-0.237,1.571c0.183,0.503,0.539,0.48,0.8,1.008
		c0.275,0.554,0.076,0.972,0.03,1.868c0,0-0.052,1.011,0.208,2.105c0.407,1.712,1.437,1.688,1.956,3.291
		c0.382,1.178-0.165,1.219,0.119,3.083c0.311,2.041,0.999,2.205,0.8,3.38c-0.22,1.302-1.155,1.633-0.978,2.698
		c0.119,0.718,0.56,0.668,0.83,1.571c0.304,1.016-0.165,1.381,0.03,2.579c0.156,0.964,0.477,0.835,0.711,1.838
		c0.313,1.336-0.239,1.636-0.059,3.32c0.124,1.161,0.405,1.192,0.385,2.135c-0.021,0.984-0.333,1.23-0.563,2.312
		c-0.301,1.415-0.107,2.587,0.03,3.409c0.243,1.465,0.553,1.434,0.889,3.113c0.153,0.765,0.201,1.537,0.296,3.083
		c0.12,1.943,0.175,2.926-0.089,3.439c-0.214,0.416-0.571,0.865-0.445,1.423c0.089,0.394,0.337,0.475,0.504,0.8
		c0.41,0.797-0.362,1.696-0.652,2.698c-0.236,0.814,0.048,1.001,0.711,3.824c0.673,2.864,1.009,4.296,0.771,5.366
		c-0.197,0.884-0.549,1.482-0.474,2.638c0.059,0.92,0.321,1.151,0.148,1.779c-0.249,0.905-0.907,0.842-1.364,1.927
		c-0.339,0.805-0.125,1.191-0.563,1.601c-0.493,0.461-1.215,0.395-1.304,0.385c-0.913-0.097-1.501-0.902-1.868-1.364
		c-0.968-1.219-0.406-0.05-3.557-3.202c-1.505-1.505-1.572-1.71-4.269-4.565c-2.229-2.36-2.599-2.66-3.261-2.935
		c-1.588-0.66-2.559-0.223-3.498-1.156c-0.726-0.721-0.306-1.142-1.126-2.727c-0.274-0.529-0.378-0.594-2.52-3.231
		c-1.327-1.635-1.326-1.658-1.541-1.838c-1.462-1.224-2.59-1.062-2.846-1.927c-0.263-0.89,0.73-1.74,0.267-2.342
		c-0.232-0.302-0.604-0.246-0.8-0.652c-0.159-0.328,0.029-0.479-0.059-0.919c-0.121-0.6-0.542-0.684-0.771-1.245
		C160.355,158.028,160.49,157.579,160.562,157.173z"/>
	<path fill="#1E8346" d="M167.548,191.947c0.13-0.501,0.816-0.621,0.889-0.633c0.386-0.062,0.989,0.027,1.206,0.455
		c0.282,0.556-0.224,1.423-0.85,1.502c-0.516,0.065-0.916-0.429-0.968-0.494C167.722,192.649,167.452,192.316,167.548,191.947z"/>
</g>
</svg>
