<?xml version="1.0" encoding="utf-8"?>
<!-- Generator: Adobe Illustrator 26.0.3, SVG Export Plug-In . SVG Version: 6.00 Build 0)  -->
<svg version="1.1" id="Isolation_Mode" xmlns="http://www.w3.org/2000/svg" xmlns:xlink="http://www.w3.org/1999/xlink" x="0px"
	 y="0px" viewBox="0 0 200 200" enable-background="new 0 0 200 200" xml:space="preserve">
<g>
	<path fill="#1E8346" d="M31.12,1.124c-0.344,0.256-0.227,1.194,0.212,1.77c0.224,0.293,0.43,0.359,1.699,0.92
		c1.526,0.675,1.708,0.792,1.911,0.991c0.637,0.624,0.614,1.2,0.92,1.203c0.434,0.005,1.082-1.144,0.779-1.982
		c-0.232-0.643-0.861-0.653-2.548-1.487C32.131,1.57,31.492,0.847,31.12,1.124z"/>
	<path fill="#1E8346" d="M41.809,24.624c-0.446,0.05-0.79,0.998-0.708,1.77c0.079,0.738,0.578,1.596,1.062,1.557
		c0.412-0.033,0.712-0.707,0.779-1.203C43.08,25.717,42.328,24.566,41.809,24.624z"/>
	<path fill="#1E8346" d="M78.476,19.67c0.329-0.676,1.608-0.85,2.194-0.212c0.351,0.382,0.45,1.051,0.142,1.487
		c-0.432,0.611-1.521,0.56-2.053,0C78.457,20.627,78.274,20.084,78.476,19.67z"/>
	<path fill="#1E8346" d="M72.919,60.76c-0.22,0.379-0.232,0.793-0.142,1.345c0.09,0.544,0.474,2.883,1.557,2.973
		c0.763,0.064,1.391-1.029,1.487-1.203c0.073-0.132,0.629-1.183,0.142-2.301c-0.387-0.886-1.388-1.719-2.23-1.486
		C73.239,60.224,72.964,60.682,72.919,60.76z"/>
	<path fill="#1E8346" d="M132.091,70.9c-0.164,0.118-0.154,0.384-0.146,0.611c0.036,1.015,0.832,1.654,0.889,1.699
		c0.265,0.207,0.658,0.512,1.009,0.372c0.33-0.132,0.457-0.589,0.451-0.902c-0.012-0.679-0.656-1.12-1.075-1.407
		C132.969,71.101,132.376,70.695,132.091,70.9z"/>
	<path fill="#1E8346" d="M116.275,94.312c0.139-0.935,1.25-0.905,1.947-1.947c0.777-1.161-0.059-2.013,0.779-3.115
		c0.479-0.629,1.362-1.153,2.053-0.956c0.563,0.161,0.522,0.664,1.345,1.486c1.003,1.003,1.629,0.82,1.84,1.416
		c0.277,0.78-0.73,1.279-1.557,3.079c-0.894,1.947-0.594,3.275-1.239,3.433c-0.578,0.142-0.759-0.943-2.159-1.522
		c-1.254-0.519-2.165-0.086-2.725-0.814C116.536,95.345,116.19,94.882,116.275,94.312z"/>
	<path fill="#1E8346" d="M144.306,112.646c0.064-2.456-0.496-2.974-0.035-3.929c0.321-0.664,0.867-0.982,1.734-1.486
		c0.884-0.515,1.885-1.097,3.079-0.814c0.193,0.046,1.561,0.394,2.053,1.699c0.471,1.25-0.244,2.366-0.319,2.478
		c-0.484,0.727-1.039,0.752-1.663,1.274c-1.408,1.176-0.403,2.95-1.38,3.575c-0.949,0.607-2.94-0.202-3.433-1.416
		C144.201,113.681,144.282,113.55,144.306,112.646z"/>
	<path fill="#1E8346" d="M173.274,142.782c-0.058-0.455-0.126-1.001,0.186-1.46c0.243-0.357,0.534-0.393,1.248-1.062
		c0.419-0.393,0.374-0.432,0.504-0.478c0.343-0.121,0.848,0.077,2.893,2.309c1.147,1.252,1.285,1.514,1.38,1.832
		c0.25,0.832,0.241,2.169-0.611,2.814c-0.798,0.604-1.902,0.271-2.363,0.133C174.527,146.272,173.459,144.246,173.274,142.782z"/>
	<path fill="#1E8346" d="M161.79,196.49c0.018-0.403,0.797-0.828,1.451-0.673c0.668,0.159,1.165,0.916,0.991,1.274
		c-0.17,0.35-0.954,0.266-1.097,0.248C162.552,197.266,161.771,196.903,161.79,196.49z"/>
</g>
</svg>
