<?xml version="1.0" encoding="utf-8"?>
<!-- Generator: Adobe Illustrator 26.0.3, SVG Export Plug-In . SVG Version: 6.00 Build 0)  -->
<svg version="1.1" id="Isolation_Mode" xmlns="http://www.w3.org/2000/svg" xmlns:xlink="http://www.w3.org/1999/xlink" x="0px"
	 y="0px" viewBox="0 0 200 200" style="enable-background:new 0 0 200 200;" xml:space="preserve">
<style type="text/css">
	.st0{fill:#1E8346;}
</style>
<g>
	<path class="st0" d="M56.5,5.6c-0.4-0.8,0.1-1.1,0.3-1.6c0-0.4-0.4-0.8,0-1c0.1,0,0.4,0.4,0.6,0.3c0.4,0.2,0,1.1,0,1.4
		c0.3,0.3,0,1.1,0,1.4C57.2,6.2,56.7,6,56.5,5.6z"/>
	<path class="st0" d="M57.5,6.5c0-0.2,0.5-0.4,0.6-0.2C58.2,6.7,57.6,6.9,57.5,6.5z"/>
	<path class="st0" d="M57.5,7.4c0.1-0.4,0.5-0.5,0.9-0.4c0.8-0.2,1,0,1.1,0.8c-0.4-0.2-0.4-0.3-0.5,0.3C58.6,8.7,57.3,8.1,57.5,7.4z
		"/>
	<path class="st0" d="M59.9,12c0.8-0.8,1.5,0.6,0.6,1.1C60.1,13,59.7,12.4,59.9,12z"/>
	<path class="st0" d="M58.4,9.8c0.2-0.3,0.5-0.1,0.6,0.1C58.8,9.9,58.2,10,58.4,9.8z"/>
	<path class="st0" d="M58.4,10.1c0.2-0.3,1.1,0.4,1.1,0.4c0.1,0.1-0.2,0.6-0.3,0.7c-0.2,0-0.3-0.5-0.3-0.6
		C58.8,10.5,58.3,10.3,58.4,10.1z"/>
	<path class="st0" d="M77.4,15.7c-0.2,0,0.8-0.5,0.8-0.5c-0.4-0.8-2.1-0.3-1.6,0.9c0.2,0.8,2.2,0.4,1.6-0.6
		C78.2,15.5,77.6,16.1,77.4,15.7z"/>
	<path class="st0" d="M85.6,20.2c0.2-0.4,0.9-1.7,1.5-1.3c0.3,0,0.4-0.3,0.6-0.2c0.2,0.1,0.3,0.8,0.1,1c-0.2,0.1-0.5-0.1-0.5,0.2
		c-0.3,0-0.4,0-0.6,0.3c-0.2,0.1-0.4-0.1-0.8,0C85.7,20.3,85.6,20.4,85.6,20.2z"/>
	<path class="st0" d="M87,24.5c-0.2-0.8,0.7-0.7,0.8-0.1c0,0.1-0.1,0.2-0.1,0.3c-0.1,0.1-0.3-0.1-0.6,0C86.9,24.8,86.9,24.7,87,24.5
		z"/>
	<path class="st0" d="M83.1,18c-0.3-0.2,0-0.6-0.3-0.8c-0.4,0.2-0.9,0.2-0.9,0.7c0.3,0.2,0.6,0.7,0.1,0.9c-0.1,0-0.1,0,0,0.1
		c0,0.5,0.7,0,0.7-0.3C82.8,18.2,83,18.2,83.1,18z M82.8,17.5c0.1,0.1-0.5,0.6-0.2,0.4c0.3,0-0.1,0.1,0,0.2c0.1,0.2-0.2,1-0.5,0.7
		c1-0.6-0.6-1.2,0.2-1.3C82.3,17.6,82.8,17.1,82.8,17.5z"/>
	<path class="st0" d="M80.4,26.1c-0.8-0.6-1.3-0.7-1.4-1.5c-0.3,0-0.4-0.2-0.5-0.4c-0.1-0.1,0.1-0.2,0.2-0.2c-0.1-0.2-0.1-0.1,0-0.3
		c-0.1,0-0.1-0.3,0-0.4c0.1,0,0.2-0.1,0.2-0.1c-0.1-0.3,0.1-0.5,0.1-0.8c0.2-0.3,0.1-0.4,0.4-0.8c0.4-0.2,0.9-0.9,1.4-0.8
		c0-0.2,0.2-0.2,0.4-0.2c0.2,0.1,0.2-0.2,0.4-0.1c0,0.5,0.2-0.2,0.2,0.3c0.1,0.1,0.1,0,0.1-0.1c0.2,0.1,0.3,0.2,0.5,0.4
		c0,0,0.1,0.4,0.2,0.4c0.1-0.1,0.2,0,0.1,0.1c-0.1,0,0,0.1-0.1,0.2c0,0,0.1,0.1,0.2,0.2c0,0.1-0.1,0.4,0.1,0.2c0.2,0-0.1,0.1,0,0.2
		c0,0,0.1-0.1,0.2-0.1c0,0,0,0.2-0.1,0.2c0.1,0,0.1,0.1,0,0.1c-0.1,0.1,0.1,0.1,0.1,0.1c0.1,0.1,0,0.1,0.2,0.2
		c0.3,0.1,0.2,0.3,0.2,0.5c0.1,0.1,0.3,0.2,0.1,0.4c-0.1-0.1-0.1-0.3-0.3-0.1c-0.3,0.2-0.1,0.5-0.2,0.7c-0.1,0.2,0.1,0.1,0.1,0.3
		C83,25,83.4,24.8,83.4,25c0.2,0.1,0.4-0.1,0.5-0.2c0.2,0.1,0.6,0.2,0.2,0.5c-0.1-0.1-0.4,0-0.5,0.1c0,0.2-0.2,0.1-0.3,0.2
		c0,0.1,0,0.1-0.1,0.1c0,0.1,0,0.2-0.1,0.1c-0.1,0.1-0.2,0-0.2,0.1c-0.1,0-0.2-0.2-0.3-0.2c-0.3,0.2,0-0.1-0.4,0.2
		c-0.3,0.2-0.5,0.4-0.7,0.1c-0.2,0.1-0.2,0.2,0,0.4c-0.1,0.1-0.1,0.1,0,0.2c0,0.2,0.4,0.2,0.3,0.5c-0.3,0.2-0.8,0.9-1.2,0.3
		C80.4,27,80.7,26.4,80.4,26.1z"/>
	<path class="st0" d="M84.5,25.3c0.1-0.4,0.9-0.6,0.8,0.1C85.1,25.4,84.6,25.4,84.5,25.3z"/>
	<path class="st0" d="M84.8,36.3c0.3-0.7-0.1-0.5,0-1.2c-0.1-0.7-0.8-0.7-1.2-0.8c0-0.2-0.2-0.1-0.5-0.1c-0.3,0-0.3-0.2-0.5-0.1
		c-0.1,0.3-0.6,0-0.6,0.3c-0.2,0-0.3-0.1-0.4,0.2c-0.2,0-0.3-0.2-0.4,0.1c-0.2,0.1-0.5-0.1-0.6,0.2c-0.1,0.1-0.4-0.1-0.5,0
		c-0.1,0.1,0,0.7-0.1,0.8c-0.3,0.2,0,0.4,0,0.6c-0.5,0.3,0.4,0.5,0.2,1.1c-0.4,1-0.7,1.4,0.7,1.3c0.8-0.1,0.8,0.3,1.5,0.2
		c1.3,0.1,0.8-0.2,1.6-0.4c0.2-0.2,0.1-1,0.4-1.2C84.8,36.7,84.8,36.7,84.8,36.3z M83.4,36.8c-0.1,0.3-0.5,0.3-0.6,0.1
		c-0.2-0.2,0.1-0.5-0.1-0.7c-0.2,0-0.7-0.3-0.3-0.5c0.3,0,0.3,0.1,0.4-0.2C83,35.6,83.7,36.5,83.4,36.8z"/>
	<path class="st0" d="M96,41.5c-0.1-0.3,0.1-0.3,0.3-0.3c0.1-0.3,0.6-0.1,0.9-0.2C97.2,41.4,96.6,42.5,96,41.5z"/>
	<path class="st0" d="M98.7,65.6c-0.1-0.1-0.1-0.1,0-0.2c0-0.2-0.1-0.9-0.3-1.1c0-0.3,0.1-0.5-0.2-0.7c-0.1-0.2-0.1-0.5,0.2-0.6
		c0.1-0.3-0.1-1.3,0-1.6c-0.4-0.5,0.1-0.8-0.2-1.3c0-0.7-0.8-1.8-0.9-2.3c0.1-0.6-0.2-1.2-0.1-1.8c-0.1-0.4-0.3-0.6-0.3-1.2
		c0.2-1-1.3-2.4-0.2-2.3c0.7,0,0.9,0,1,0.7c0.3,0.5,0.3,1.3,0.5,1.8c0,0.3-0.1,0.5,0.2,0.5c0.1,0.1,0.5,1.1,0.3,1.3
		c-0.3,0.5,0.5,1.3,0.5,1.7c-0.1,0.1-0.2,0.2,0,0.3c0.1,0.1,0.1,0.2,0.1,0.7c0,0.2,0,0.2,0,0.2c0.1,0.2,0.4,0.1,0.5,0.3
		c0.1,0.1-0.1,0.2-0.1,0.3c0.3,0.4,0.4,1.4,0,1.9c0.2,0.2,0.1,0.3,0,0.6c0.4,0.2,0,0.4,0,0.6c0.3,0.2,0.7,0.5,0.2,0.8
		c0,0.1,0.2,0.4,0.3,0.5c0,0.5-0.2,1.5-1,1.1C99,65.9,98.9,65.9,98.7,65.6z"/>
	<path class="st0" d="M86.5,67.2c-0.2-0.3,2.1-1.9,2.1-1.9c1.6-1.1,2.3-1.4,4-2c0.7,0,1.1-0.7,1.8-0.3c0.4,0.1,0.7-0.3,0.4,0.5
		c-0.6,1-1.5,1.5-1.4,2.5c-0.5,0.7-0.7,0.6-1.8,1.8c-0.6,0.6-0.7,0.7-1.3,0.4c-0.4,0.1-1-0.2-1.4,0.1c-0.1,0.1-1.4-0.3-1.6-0.1
		C87.4,67.2,86.6,68,86.5,67.2z"/>
	<path class="st0" d="M62.5,72.8c-0.1-0.2,0.4-1,0.3-1.3c-0.5-0.7-0.7-1.2-1.4-1.5c-0.1-0.3-0.5-0.9-0.6-1.3
		c0.1-0.5-0.1-0.7-0.5-1.2c-0.7-0.5-0.2-1-0.9-1.5c-0.3-0.6,0.2-1.1,0.4-1.6c0.2-0.6-0.2-0.6-0.1-1.3c0.3-1,0.7-0.9,0.1-2
		c-0.2-0.7-0.5-1.3-0.7-1.8c-0.1-1,0.2-0.8-0.4-2.2c-0.6-1.5,0-2.1-1-3.3c-0.1-0.9-0.8-1.8-0.9-2.5c0.1-0.1,0-0.5-0.2-0.6
		c-0.2-0.2,0.1-0.5,0.1-0.9c0-0.6-0.2-1,0.2-1.3c0.2-0.3-0.2-1,0.1-1.4c0.6-0.2,0.2-0.6,0.3-1c0.5-0.1,0.7-1,1.2-0.8
		c0.1,0.3,0,0.4,0.4,0.5c0.1,0.3,0.2,0.5,0.5,0.6c0,0.6,0,0.6,0.6,1c0.5,0.5,0.2,1.3,0.9,1.6c0.1,0.6,0.4,0.4,0.7,0.7
		c0,0.3,0.3,0.1,0.5,0.2c0.2,0.1,0.2,0.5,0.1,0.6c0,0.9,1,1.1,0.9,2.7c-0.1,0.4,0,0.9,0.2,1.2c0.1,0.5-0.3,0.6-0.2,1
		c0.1,0.5,0.6,0.7,0.7,1c-0.3,1,0.1,0.5,0.1,2.1c-0.2,1.6,2.3,1.5,3.5,1.1c0.1-0.5,0.8-1,1-1.3c0-0.2,0-0.4,0.2-0.5
		c0.4-1.2-0.8-1.1,0-2.4c-0.1-0.7-0.6-1.3,0.4-1.9c0.7-0.7,0.6-0.1,1.3,0.1c0.4,0,0.9-0.3,1,0.2c-0.2,0-0.9-0.1-1,0.4
		c-0.1,0.2,0.1,0.2,0.2,0.3c-0.3,0.4,0.6,0.7,0.5,1.2c-0.2,0.4-0.2,0.5,0,0.9c0,0.7,0,1.4,0.6,1.9c0.1,0.3,0.1,0.5,0.2,0.5
		c0.5-0.4,1.2-0.4,1.1,0.5c0.4,0.5,0.2,0.8,0.6,1.3c-0.1,0.4,0.2,0.9-0.1,1.3c-1.7,0.1,1.4,0.8,1.1,1.9c0.2,1.3-0.5-0.2-0.7,0.2
		c-0.1,0.2,0,0.4,0.1,0.4c0.4,0.3,0.3,0.4,0.2,0.9c0.1,0.5,0.5,0.8,0.6,1.6c0.1,0.4,0,0.6,0.2,0.7c0.5,0.1,0.4,0.1,0.4,0.6
		c0.3,0.7,0.4,0.4,0.5,0c0.3,0.1,0.1,0.3,0.1,0.8c0.1,1.2-1.9-0.6-2.6,0.6c-0.4,0.3-0.3,0.4-0.5,0.8c-0.4,0.1-0.7,0.8-0.9,1.1
		c-0.1,0.1-0.2,0.1-0.9,0.1c-0.4,0-0.4,0-0.5,0c-0.3-0.2-0.3-0.5-0.5-0.6c-0.2,0-0.2,0.2-0.4,0.2c-0.4-0.2-0.5-0.3-0.9,0.1
		c-0.2,0-0.2-0.2-0.5-0.3c-0.2,0-1.5,0.1-1.7,0.5c-0.2,0.2-0.1,0.2,0,0.4c0,0.4-0.4,0.5-0.8,0.3c-0.5-0.1-1.1,0.3-0.7,0.8
		C64.4,74,62.9,73.2,62.5,72.8z"/>
	<path class="st0" d="M71.6,53.7c0.4-0.1,0.5,0.5,1,0.5c0.3-0.1,0.4,0.1,0.2,0.3C72.5,54.7,71.5,54.2,71.6,53.7z"/>
	<path class="st0" d="M71,55.8c0.8-0.2-0.2,1.1-0.1,0.2C70.9,56,70.9,55.9,71,55.8z"/>
	<path class="st0" d="M71.9,58.2c0,0,0.1,0,0.3,0C72.7,58.1,71.7,57.7,71.9,58.2z"/>
	<path class="st0" d="M73.3,62.4c0-0.4,0.6-0.2,0.5,0.1C73.7,62.7,73.4,62.6,73.3,62.4z"/>
	<path class="st0" d="M74.2,63c0.1-0.3,0.4,0,0.2,0.2C74.4,63.3,74.2,63.2,74.2,63z"/>
	<path class="st0" d="M74.5,65.7c0-0.3,0.5-0.2,0.4,0.1C74.9,66,74.6,65.9,74.5,65.7z"/>
	<path class="st0" d="M75,66.9c0.4-0.8,0.9,0.8,0.3,0.9C75.4,67.6,75,67,75,66.9z"/>
	<path class="st0" d="M67.1,72.5c0.1-0.3,0.5,0,0.4,0.2C67.4,72.8,67.1,72.6,67.1,72.5z"/>
	<path class="st0" d="M72.1,71.5c-0.1-0.5,0.3-0.5,0.7-0.7c0.2-0.2,0.3-0.6,0.7-0.8c0.4-0.3,0.7-0.4,0.8,0c-0.1,0.1-0.6,0-0.5,0.3
		c0.3,0,0.4,0.4,0.3,0.6c0.1,0.1,0.3,0,0.5,0.2c0.4,0.7-0.3,0.9-1.1,0.7C72.8,71.9,72.4,72.1,72.1,71.5z"/>
	<path class="st0" d="M75.5,71c0.1-0.1,0.5-0.7,0.5-0.9C77,70.3,75.9,72.1,75.5,71z"/>
	<path class="st0" d="M71.4,72.9c0.2-0.1,0.5-0.3,0.7-0.2c0.1-0.2,0.3,0,0.5-0.2c0.4-0.2,0.6,0,0.8,0.1c0.6,0,1.4,0.1,1.9,0.2
		c0.2,0.1,0.3,0.8,0.1,1c-0.3,0.3-0.5,0.4-0.2,0.7c0.4,0.4,0.3,0.8,0,1.3c-0.2,0-0.5,0-0.7,0.2c-0.6-0.3-1.5-0.8-2.1-1.2
		C72.1,74.1,71.4,73.5,71.4,72.9z"/>
	<path class="st0" d="M97.9,73.7c0.2-0.2,0.2-0.3,0.1-0.5c0.2-0.1,0-0.5,0.3-0.7c0.1-0.4-0.2-1.1,0.1-1.6c-0.1-0.6,0.2-0.5,0.5-0.7
		c0.1-0.3-0.1-0.4-0.2-0.6c0-0.3,0.1-0.4-0.1-0.6c-0.1-0.2-0.1-0.4,0.1-0.5c0-0.2,0-0.3,0.2-0.5c-0.1-0.3,0.1-0.5,0.3-0.2
		c0.4,0.1,0.2,0.4,0,0.5c0.1,0.2,0,0.4,0,0.6c0.1,0.3,0.9,0.3,0.8,0.7c0,0.1,0.1,0.2,0.2,0.3c0,0.3,0,0.9,0.1,1.2
		c-0.1,0.3-0.4,0.5-0.2,0.9c0.3,0.1,0,0.3,0.1,0.5c0.3,0.2,0.1,0.4,0.2,0.7c0.2,0.2,0.1,0.4,0.1,0.6c0.6,0.6,0.3,1.8,0.9,2.5
		c0,0.4-0.1,0.5,0.2,0.7c0.1,0.3-0.2,0.7,0.2,1.1c0.4,0.2,0.2,0.3,0.2,0.8c0.1,0.4,0.3,0.9,0,1.2c0.3,0.3,0.2,0.2-0.1,0.6
		c-0.1,0.1,0.3,0.8,0.2,1c-0.4,0.3-0.5,1.1-1.1,1.1c-0.3-0.1-0.3-0.2-0.4,0.1c0,0.1-0.7-0.7-0.7-0.7c-0.1-0.2,0.2-0.8,0.2-1
		c-0.3-0.4-0.2-0.5-0.1-1c-0.1-0.3-0.6-1.1-0.5-1.6c-0.4-0.2-0.1-0.7,0-0.9c0-0.6-0.5-1.1-0.8-1.3c0.1-0.5-0.1-0.6-0.4-0.9
		c0.2-0.4-0.1-0.6-0.1-1.1C98,74,97.7,74,97.9,73.7z"/>
	<path class="st0" d="M92.6,88.8c0.1-0.5,0.4-0.2,0.7-0.4c0.2,0,0.3,0,0.4-0.1c0.5,0,0.5,0,0.8-0.5c0.3,0,0.8,0,1.1-0.1
		c0.6,0.2,0.5,0.1,1.2-0.2c0.4-0.1,0.4-0.2,0.4-0.5c0-0.2,0.8-0.5,0.8-0.7c0.1-0.3,0-0.5,0.1-0.7c0.9-1.1,2.1,0.3,1.7,1.3
		c0.3,0.1,0.3,0.2,0.2,0.5c0.1,0.3,0.5,1.2,0.5,1.5c0.2,0.7,1.4,0.5,1.8,1.2c0,0.4,0.7,0.8,0.5,1.2c0,0.3-0.5,0.5-0.6,0.7
		c-0.3,0-0.7,0.2-0.9,0.2c-0.1,0.3-0.9-0.2-1.2-0.2c-0.4,0.3-0.5,0.4-1,0.2c-0.1,0-0.7,0.4-0.9,0.4c-0.1,0.1-1.2-0.7-1.1-0.6
		c-0.5,0-0.9-0.3-1.4-0.3c-0.4-0.4-0.8-0.1-0.9-0.6c-0.4,0-0.4-0.1-0.5-0.4c-0.5,0-0.4-0.6-0.9-0.8c-0.3-0.1-0.5,0.1-0.6-0.1
		C92.8,89.4,92.6,89,92.6,88.8z"/>
	<path class="st0" d="M72.9,84.5c0-0.2,0.4-0.3,0.4-0.6c-0.1-0.3,0.1-0.3,0.3-0.5c0-0.2,0.2-0.8,0.2-1c-0.1-0.2,0.1-0.3,0.2-0.3
		c-0.2-0.3-0.2-0.4-0.2-0.9c-0.1-0.4-0.1-0.4,0-0.8c0-0.6-0.1-0.4,0.6-0.8c0.4-0.3,0.4-0.3,0.8-0.1c0.9-0.1,1.7,0.8,2.6,1
		C77.4,81,77.9,81,78,81.7c0.6,0.2,1,1,1.5,1.1c0,0.1-0.1,0.4,0,0.5c-0.5,1-0.7,0.5,0.3,1.1c0,0.1-0.2,0.2-0.2,0.4
		c0.2,0.3,1,0.6,1.4,1.3c1.1,0.8,0-0.9,0.2-1c0.3,0.1,0.9,0.8,0.8,1.2c-0.4,0.4-0.1,0.7,0.3,0.4c0.1,0,0.3,0.6,0.6,0.6
		c0.1-0.6,0.4-0.1,0.4,0.2c0.4,0.1,0.5,0.5,0.6,0.8c0.2,0.2,0.5-0.1,0.7,0.1c0.1,0.1,0.1,0.3,0.3,0.4C85,88.8,85,89,85,89.2
		c0.1,0.2,0.3,0.1,0.6,0.3c0.4,0.3,0.3,0.5,0.7,0.2c0.2-0.1,0.6,0,0.6,0.2c0,0.1-0.7,0.5-0.3,0.8c0.3-0.2,0.2,0,0.5,0.3
		c0.4,0.2,1.1,0.5,1.2,0.9c0.1-0.1,0.5-0.3,0.5-0.4c0.5,0.2,0.4,1.2,0.7,1.6c-0.1,0.2-0.2,0.4,0,0.6c-0.1,0.4-0.8,1-0.5,1.5
		c0.2-0.1,0.2-0.6,0.3-0.7c0.1-0.2,0.3-0.2,0.4-0.4c0.2-0.5,0.6,0.2,0.9,0.7c0.3,0.5-0.2,0.7-0.5,0.6c-0.1,0.7-0.4,0-0.7,0.5
		c0.3,0.3-0.4,0.5-0.5,0.9c0,0.4,0.1,0.7-0.3,0.6c-0.4-0.2-0.9-0.5-0.9-0.9c-0.3-0.1-0.7,0-0.9-0.3c-0.3-0.1-1.6,0-1.6,0
		c-0.3-0.4-0.7-0.7-0.7,0c-0.8,0.4-0.3,0.4-0.2,1c0.1,0-0.5,0.4-0.6,0.4c-0.1-0.1-0.3-0.4-0.5-0.1c-0.1,0.3,0.1,1-0.4,0.8
		c-0.8-1-0.4,0.6-0.9,0.1c0-0.4-0.3-0.5-0.7-0.4c-0.3-0.3-0.6-0.8-1.1-1.1c-0.6-1.3,1.7-0.6-0.1-2.5c0-0.3-0.2-1.1-0.2-1.3
		c-0.4-0.3-0.5-0.3-0.6-0.9c-0.2-0.2-0.2-0.3,0-0.5c0.2,0-0.1-1.3,0-1.4c0.5-0.3,0.3-0.2,0.1-0.7c0.1-0.3,0-0.4-0.2-0.6
		c0.1-0.2,0.2-0.8,0.3-1c0.2-0.4,0-0.5-0.5-0.5c-0.5-0.2-0.9-1.6-1-2c-0.1,0-0.8,0.5-1,0.4c0,0.4-0.6,0.9-0.9,1.1
		c-0.3,0.1-0.3-0.3-0.5-0.5c-0.2-0.1-0.9,0-1.1-0.2c-0.4-0.1-0.2-0.3-0.4-0.8C73.6,85.1,72.9,84.8,72.9,84.5z"/>
	<path class="st0" d="M76.8,79.6c0-0.2,0.5-0.1,0.4,0.1C77.2,79.8,76.8,79.7,76.8,79.6z"/>
	<path class="st0" d="M79,82.1c0-0.2,0.4-0.1,0.3,0.1C79.2,82.2,79,82.1,79,82.1z"/>
	<path class="st0" d="M80.5,84.7c0.1-0.2,0.5,0.2,0.4,0.3C80.8,85.1,80.5,84.8,80.5,84.7z"/>
	<path class="st0" d="M89.2,97c-0.2,0.1,0,0.5,0.2,0.3C89.5,97.2,89.3,97,89.2,97z"/>
	<path class="st0" d="M90.4,96.4c-0.2,0.2,0.2,0.5,0.3,0.2C90.7,96.5,90.5,96.3,90.4,96.4z"/>
	<path class="st0" d="M89.9,95.9c0-0.1,0.7-0.6,0.7-0.2C90.6,95.9,90,96.2,89.9,95.9z"/>
	<path class="st0" d="M100.3,96.1c0.1-0.1,0.2-0.4,0.1-0.5c0.2-0.1,0.1-0.4,0.3-0.6c0.1-0.3-0.1-0.4,0.1-0.5c0-0.4,0.5-0.4,0.7-0.1
		c0,0.3,0.2,0.8-0.1,0.9c-0.1,0.1,0,0.6-0.1,0.7c-0.1,0-0.4,0.3-0.4,0.3C100.7,96.2,100.4,96.3,100.3,96.1z"/>
	<path class="st0" d="M102.8,95.8c0.4,0.1,1.3-0.5,1.4,0.3c0.2,0.3,0.1,0.6-0.3,0.8C103.1,97,103,96.3,102.8,95.8z"/>
	<path class="st0" d="M98.2,98.1c-0.2,0.1,0.1,0.3,0.2,0.2C98.4,98.2,98.2,98.1,98.2,98.1z"/>
	<path class="st0" d="M98.3,99.8c0-0.2,0.8-0.7,0.7-1.1c0.3-0.2,0-0.2,0-0.5c0-0.1-0.1-0.2-0.1-0.3c0.8,0,0.8-0.5,1.3,0.5
		c0,0.3,0.2,0.4,0.4,0.6c0.1,0,0,0.9,0.2,1c0.2,0,0.2,0.2,0.2,0.3c0.1,0.6,0.9,0.9,1.3,0.7c0.1-0.2,0.5-0.2,0.6-0.1
		c0.8,1,1.2,2.2,2.5,2.5c0.5-0.2,0.8-0.8,1.4-0.2c0.1,0.2,0.5,0.4,0.6,0.6c-0.1,0.1-0.4,0.2-0.3,0.5c0.2,0.2,0.4,0.6,0,0.8
		c-0.1,0-0.2,0-0.5-0.2c-0.6-0.3-0.5-0.3-0.7-0.4c-0.8-0.3-0.8-0.5-1.3-0.6c-0.4-0.4-0.7-0.2-1.2-0.2c-0.4-0.3-0.3,0.1-0.6,0.3
		c-0.2,0-0.2,0-0.4,0.3c-0.2,0.3-0.4,0.1-0.5,0.3c-0.2,0.2-0.6,0-0.8-0.2c-0.2,0-0.4,0.1-0.5-0.1c-0.3-0.1-0.6,0.1-1-0.2
		c-0.1-0.2-0.4-0.5-0.6-0.6c-0.1-0.4,0.2-0.8-0.2-1.3c-0.2-0.5-0.7-0.5-0.6-1.1C98.3,100.7,98.2,100.3,98.3,99.8z"/>
	<path class="st0" d="M103.4,111.7c0-0.2-0.2-0.3,0.1-0.3c0.4-0.3,1.1-0.7,1.3-1.1c0,0,1.6,0.5,0.9,0.5c-0.1,0.1-0.2,0.4-0.5,0.3
		c-0.1,0.2-0.2,0.1-0.4,0.1C104.2,111.7,104.1,112.5,103.4,111.7z"/>
	<path class="st0" d="M105.5,116.2c0-0.1,0.1-0.1,0.1-0.2c0-0.4,0.4,0.4,0.4,0.4C105.9,116.4,105.5,116.2,105.5,116.2z"/>
	<path class="st0" d="M105.7,112.8c0,0,0.5,0.3,0.5,0.3C106.1,113.5,105.6,113,105.7,112.8z"/>
	<path class="st0" d="M109.6,110c0-0.1,0.2-0.3,0.3-0.3C110.2,110,109.7,110.2,109.6,110z"/>
	<path class="st0" d="M110.6,109.9c-0.4-0.7,1.3-0.7,0.5-0.2C110.9,109.6,110.7,109.8,110.6,109.9z"/>
	<path class="st0" d="M109.4,108.1c0-0.1,0.2,0.5,0.2,0.5C110.1,108.5,109.6,108,109.4,108.1z"/>
	<path class="st0" d="M108.5,107.6c0-0.1-0.1-1.2-0.1-1.3c0.2,0,0.6-0.4,0.7-0.5c0.2,0.1,1,0.2,0.9,0.7
		C109.8,106.9,109.3,108,108.5,107.6z"/>
	<path class="st0" d="M138.5,195.8c-0.4-0.8,0.2-0.7,0.6-1.2c0.9-0.6,1.9,0.3,2.8,0.3c0.1,0.1,0.5,0.9,0.7,1
		c-0.2,0.5-0.8,2.2-1.5,1.6c-0.2-0.4-0.3-0.1-0.5-0.1c-0.1,0-0.1-0.2-0.2-0.3c-0.3,0.1-0.4,0.2-0.7-0.1c-0.2,0.3-0.2,0.1-0.4-0.1
		c-0.1-0.1-0.2,0-0.3,0c-0.1-0.2,0-0.5-0.4-0.5C138.4,196.4,138.6,196.2,138.5,195.8z"/>
	<path class="st0" d="M150.2,178.4c-0.4-0.4,0.8-0.6,0.9-0.8C151.3,178.1,150.8,179.3,150.2,178.4z"/>
	<path class="st0" d="M125.4,175.6c0.1-0.5,0.4-0.4,0.6-0.9c0.2-0.8-0.3-1.6,0.7-2.1c0.8,0.1,1.8-0.9,2.3,0.1
		c-0.2,0.4-0.5,0.9-0.4,1.4c0.1,0.9,0,2.1,1.3,2.5c0.5,0,0.8-0.1,1.1,0.4c0.3,0.4,0.3,0.6,0.5,0.7c0,0.1,1.2-0.2,0.8,0.5
		c0,0,0.2-0.2,0.2-0.2c0.2,0.2,0,0.8-0.4,0.6c-0.1,0.1-0.2,0.5-0.4,0.6c-0.2,0,0,1.4,0,1.4c0,0.2-0.5,1-0.7,1
		c-0.6-0.1-2.3-0.8-2.6-1c-0.3-0.3-0.2-0.5-0.5-0.9c-0.3-0.3-0.6-0.2-0.8-0.5c-0.1-0.9-0.2-0.8-0.9-1.3
		C125.9,177.6,125.3,176.2,125.4,175.6z"/>
	<path class="st0" d="M134.9,171c-0.3-0.3,0.3-0.7,0.2-1.1C135.5,170,135.4,171.3,134.9,171z"/>
	<path class="st0" d="M119.5,160c-0.1-0.6,0.5-0.7,0.6-1.1c0-0.2-0.2-1-0.4-1.3c-0.8-0.7,0.6-1.5-0.1-2.4c0.4-1.7,3.1-2.4,4.2-0.8
		c0.7,0.7,0.3,0.6,0.2,1.1c0.2,0.3,0.5,0.4,0.2,0.7c0.3,1.2,1.3,0.1,2,0.3c0.1,0.2,0.6,0.9,0.7,0.9c-0.4,0.3-1,0.1-1.4,0.1
		c-1.6,0.6,0.7,1.6,1.6,2.2c1,0.9,1.1,0.9,1.3,2.2c0.1,0.6-0.5,0.8-0.5,1.3c-0.5-0.1-0.5-0.2-0.8,0.3c-0.6,0.2-0.7-0.3-0.9-0.6
		c-0.2-0.2-0.4-0.1-0.9-0.2c-1-0.9-3.4-0.4-4-1.7C120.7,160.9,119.5,160.8,119.5,160z"/>
	<path class="st0" d="M98.7,128.7c0.4-0.8,0.4-0.5,0.7-1.3c0-0.3,0-0.7,0.4-0.9c0.4,0.1,0.8-0.2,0.9-0.6c0.2-0.3,0-1.3,0.8-1.1
		c0.2-0.1,0.2-0.4,0.4-0.4c0-0.1-0.1-0.1-0.1-0.2c0.2-0.1,0.7-0.5,0.8-0.5c0.5-0.1,0.3,0.7,0.7,0.6c0.3-0.1,0.6-0.2,0.9-0.1
		c0.4-0.2,0.4-0.4,0.9-0.3c0.1,0,0.2-0.1,0.3,0c0.1,0.1,0.4-0.1,0.6,0c0.3,0.3,0.5,0.7,0.7,1.1c0.5,0.4,0.9,0.7,0.9,1.4
		c-0.2,0,0.1,0.5,0.4,0.5c0.2,0.5,0.8,0.6,0.7,1.1c0.2,0.1,1.3-0.1,1.3,0.3c0,0.6-0.9,1-0.8,1.4c0.1,0.5-0.1,0.9-0.2,1.3
		c-0.1,0.3-0.5,0-0.5,0.2c-0.1,0.1-0.4-0.1-0.4,0.1c-0.1,0.1-0.3-0.1-0.3,0c0,0.1-0.1,0.1-0.2,0.1c-0.1,0.1,0,0.2-0.2,0.3
		c-0.2,0.1-0.3,0-0.4-0.1c-0.1,0-0.2,0-0.2-0.1c-0.3,0.3-0.2-0.1-0.4-0.1c0.1,0.3-0.5,0.5-0.8,0.5c-0.4-0.1-0.7,0.2-1,0.1
		c0-0.1-0.2-0.3-0.2-0.4c0.1,0,0.1-0.2,0.1-0.2c0.1,0,0-0.1,0.1-0.2c0-0.2-0.1-0.1-0.1,0c-0.1,0-0.1-0.2-0.1-0.2
		c-0.1,0.1-0.2,0.3-0.3,0.4c-0.1,0-0.2-0.1-0.2,0c-0.2,0.1-0.2,0-0.1-0.1c0-0.1,0.1-0.1,0-0.2c-0.2-0.2-0.5-0.4-0.8-0.3
		c0,0.1-0.1,0.2-0.2,0.3c-0.2,0.5-0.2-0.5-0.2-0.6c0.2-0.2,0.2-0.4,0.4-0.6c-0.1-0.5-0.4,0.4-0.5,0.5c-0.3,0.2-0.4,0.2-0.8,0.2
		c-0.1,0.3-0.5,0.2-0.3-0.1c0.4-0.1,0.7-0.4,1.2-0.4c0-0.2,0.2-0.4,0-0.5c0-0.3-0.1-0.1-0.3-0.1c-0.3,0.1-0.1-0.3-0.1-0.4
		c-0.1-0.3-0.2-0.4-0.5-0.5c-0.4-0.2-0.3-0.1-0.4-0.3c-0.4-0.3-0.8,0.5-1.1,0.6c-0.1,0.2-0.3,0.1-0.4,0.3c0,0.4-0.2,0.4-0.5,0.5
		c-0.1,0,0-0.1-0.1-0.2c0-0.1-0.3-0.1-0.3-0.1c-0.1-0.2,0.3-0.5,0.2-0.6C99,128.5,98.5,128.9,98.7,128.7z"/>
	<path class="st0" d="M98.2,126.9c0-0.1,0.4-0.5,0.4-0.3c0,0.1,0,0.2-0.1,0.1C98.4,126.8,98.2,127,98.2,126.9z"/>
	<path class="st0" d="M99.5,125.7c0-0.1,0.2-0.2,0.2-0.3c0.1-0.1,0.2-0.1,0.1-0.2c0.2-0.1,0.3,0.4,0.3,0.5c0,0.1,0,0.1,0.1,0.1
		c0.1,0.1-0.1,0.4-0.2,0.2C99.9,126,99.5,125.9,99.5,125.7z"/>
	<path class="st0" d="M100,124.8c0-0.2,0.3-0.3,0.4-0.4c0.1-0.2-0.1-0.4,0-0.6c0.1-0.1,0.3-0.1,0.3-0.2c0.1-0.2,0.4,0,0.6-0.1
		c0.2-0.3,0.6-0.6,0.8,0c0.2,0.1,0.2,0.1-0.1,0.2c-0.1,0-0.9,0.6-1,0.6c-0.3,0-0.5,0-0.7,0.2C100.4,124.7,100.1,125,100,124.8z"/>
	<path class="st0" d="M102.9,120.8c0.4-0.6,0.8,0.1,0.8,0.4c0.1,0.3,0.5,0.6,0.6,0.9c0.1,0.7-0.6,0.2-1,0.1
		C103.3,121.9,102.6,121.3,102.9,120.8z"/>
	<path class="st0" d="M104.7,122.9c-0.1-0.2,0-0.2,0.1-0.4c0.1,0.1,0.5,0.2,0.5,0.4C105.3,123.3,104.8,123.4,104.7,122.9z"/>
	<path class="st0" d="M106.6,122.6c0.2-0.5,0.2-0.4,0.8-0.5c-0.1,0.1,0.2,0.8-0.2,0.7c-0.1,0-0.1,0.2-0.2,0.2
		C107,123,106.5,122.7,106.6,122.6z"/>
</g>
</svg>
