<?xml version="1.0" encoding="utf-8"?>
<!-- Generator: Adobe Illustrator 26.0.3, SVG Export Plug-In . SVG Version: 6.00 Build 0)  -->
<svg version="1.1" xmlns="http://www.w3.org/2000/svg" xmlns:xlink="http://www.w3.org/1999/xlink" x="0px" y="0px"
	 viewBox="0 0 200 200" enable-background="new 0 0 200 200" xml:space="preserve">
<g id="Layer_1">
	<g id="Layer_1_00000098929087308412571940000004538787532203942811_">
	</g>
</g>
<g id="Isolation_Mode">
	<g>
		<g>
			<path fill="#1E8346" d="M182.383,125.681l-1.809-1.583l-0.302-1.281l-1.771-3.052c0.167,0,0.378-0.031,0.544-0.012
				c0.179-0.431-0.366-0.428-0.426-0.78c-0.029-0.169,0.095-0.319,0.066-0.491c-0.038-0.233-0.323-0.532-0.48-0.691
				c-0.362-0.369-0.337-0.647-0.406-1.15c-0.024-0.183-0.093-0.36-0.09-0.55c0.004-0.207,0.161-0.471-0.057-0.622
				c-0.508-0.353-0.838-0.892-1.338-1.214c-0.383,0.39-0.775,0.57-1.28,0.79c-0.302,0.132-0.258,0.196-0.596,0.011
				c-0.323-0.178-0.373-0.332-0.424-0.674c-0.188-0.012-0.852,0.052-1.019-0.107c-0.092-0.087-0.012-0.267-0.07-0.354
				c-0.098-0.148-0.225-0.157-0.361-0.25c-0.287-0.198-0.512-0.316-0.813-0.49c-0.282-0.163-0.513-0.278-0.686-0.567
				c-0.354-0.591-0.774-1.225-1.233-1.755c-0.288-0.332-0.455-0.264-0.452-0.766c0.004-0.517-0.144-0.372-0.478-0.696
				c-0.733-0.713,0.463-1.763-0.735-2.294c0.012-0.603-0.104-1.366-0.041-1.881c0.06-0.491,0.047-0.992,0.047-1.51
				c0-0.512,0.364-1.233,0.609-1.665c0.112-0.197,0.336-0.465,0.522-0.598c0.208-0.148,0.46-0.127,0.64-0.317
				c0.455-0.48-0.187-1.159,0.003-1.721c0.118-0.35,0.353-0.466,0.393-0.882c0.03-0.317,0.057-0.651-0.19-0.886
				c-0.114-0.108-0.581-0.368-0.713-0.316c-0.236,0.092-0.35,0.63-0.623,0.77L144.85,97.32l-0.829-11.094l-4.635-5.351h4.522
				l-0.302-6.745h-0.716c0-0.436,0.116-1.054,0-1.469c-0.128-0.46-0.719-0.638-0.964-1.019c-0.255-0.397,0.047-0.898-0.267-1.279
				c-0.174-0.211-0.448-0.325-0.617-0.559c-0.207-0.286-0.184-0.496-0.186-0.842c-0.003-0.381-0.061-0.739-0.103-1.118
				c-0.026-0.241-0.236-0.913-0.088-1.126c0.097-0.14,0.387-0.126,0.541-0.264c0.245-0.218,0.3-0.634,0.33-0.942
				c0.078-0.812-0.365-1.284-0.614-1.992c-0.108-0.306-0.159-0.749-0.369-0.973c-0.262-0.28-0.702-0.336-1.01-0.552
				c-0.17-0.119-0.361-0.47-0.536-0.524c-0.176-0.055-0.161,0.046-0.344,0.073c-0.624,0.092-0.7-0.399-1.247-0.602
				c-0.146-0.054-0.232-0.006-0.385-0.038c-0.276-0.057-0.235-0.072-0.465-0.223c-0.12-0.079-0.222-0.196-0.346-0.276
				c-0.388-0.25-0.831-0.411-1.13-0.785c-0.182-0.228-0.562-0.362-0.826-0.502c-0.427-0.228-0.727-0.474-1.057-0.795
				c-0.636-0.616-0.982,0.23-1.561,0.446c-0.268,0.1-0.532-0.083-0.785-0.133c-0.17-0.034-0.353-0.002-0.524-0.034
				c-0.332-0.063-0.611-0.296-0.964-0.371c-1.012-0.216-0.991,0.534-1.737,0.788c-0.823,0.28-1.691-0.24-2.075-0.936
				c-0.245,0.05-0.454,0.212-0.686,0.255c-0.194,0.036-0.41-0.015-0.608-0.001c-0.555,0.041-1.086,0.284-1.619,0.437
				c-0.353,0.102-0.778,0.205-1.031-0.133c-0.173-0.231-0.239-0.751-0.132-1.019c-0.293-0.627-1.299-0.776-1.749-1.305
				c-0.266-0.312-0.398-0.607-0.729-0.891c-0.211-0.181-0.537-0.377-0.659-0.628c-0.184-0.375,0.048-0.914-0.128-1.274
				c-0.142-0.29-0.88-0.577-1.186-0.613c-0.293-0.035-0.634,0.006-0.868,0.162c-0.162,0.108-0.226,0.336-0.425,0.407
				c-0.257,0.093-0.526-0.021-0.764-0.118c-0.279-0.114-0.617-0.259-0.858-0.444c-0.205-0.158-0.38-0.456-0.634-0.537
				c-0.281-0.09-0.644,0.065-0.935,0.006c-0.209-0.042-0.421-0.17-0.613-0.264c-0.366-0.178-0.483-0.295-0.69-0.604
				c-0.233-0.347-0.315-0.681-0.793-0.518c-0.203,0.069-0.367,0.25-0.58,0.319c-0.197,0.063-0.366,0.013-0.52,0.197
				c-0.478-0.204-0.482-0.584-0.749-0.94c-0.133-0.177-0.337-0.176-0.494-0.325c-0.161-0.153-0.216-0.471-0.334-0.662
				c-0.18-0.292-0.455-0.625-0.834-0.58c-0.443,0.053-0.685,0.419-1.027-0.078c-0.144-0.209-0.144-0.533-0.244-0.768
				c-0.113-0.266-0.257-0.426-0.44-0.627c-0.077-0.085-0.222-0.129-0.255-0.226c-0.059-0.172,0.099-0.368,0.045-0.539
				c-0.139-0.437-1.092-0.871-1.539-0.745c-0.356,0.1-0.681,0.421-0.757,0.775c-0.58,0.045-1.68-0.291-2.121-0.698
				c-0.154-0.142-0.242-0.375-0.337-0.556c-0.096-0.184-0.053-0.299-0.221-0.443c-0.157-0.135-0.561-0.145-0.759-0.147
				c-0.347-0.003-0.679-0.569-0.986-0.751c-0.633-0.375-1.371-0.701-2.062-0.961c-0.164-0.062-0.573-0.224-0.74-0.215
				c-0.22,0.012-0.38,0.183-0.578,0.355c-0.317,0.275-0.735,0.51-1.063,0.149c-0.175,0.621-0.59,1.262-1.356,1.028
				c-0.192-0.059-0.282-0.15-0.505-0.171c-0.308-0.029-0.393-0.012-0.673-0.151c-0.331-0.164-0.845-0.428-1.116-0.021
				c-0.314-0.379-0.228-0.836-0.937-0.577c-0.315,0.115-0.421,0.459-0.761,0.574c-0.157-0.172-0.081-0.472-0.233-0.62
				c-0.176-0.171-0.568-0.104-0.801-0.119c-0.571-0.038-0.735-0.103-1.151-0.446c-0.514-0.424-0.606-0.513-0.727-1.168
				c-0.076-0.41-0.092-0.871-0.215-1.273c-0.062-0.203-0.108-0.36-0.298-0.401c-0.184-0.039-0.387,0.138-0.587,0.101
				c-0.104-0.019-0.261-0.15-0.372-0.191c-0.659-0.236-1.617-0.029-1.422-0.984c0.05-0.244,0.357-0.831-0.151-0.72
				c-0.394,0.086-0.231,0.658-0.524,0.834c-0.44-0.211,0.102-1.145-0.647-0.674c-0.368,0.231-0.443,0.411-0.348-0.099
				c0.139-0.746,0.07-1.361-0.84-1.154c-0.233,0.053-0.392,0.229-0.637,0.112c-0.277-0.132-0.281-0.491-0.696-0.372
				c-0.006,0.129-0.002,0.259,0.014,0.386c-0.486-0.047-0.568-0.656-0.546-1.021c0.035-0.577,0.053-0.995-0.627-1.235
				c-0.045-0.646,0.181-1.473-0.384-1.961c-0.184-0.159-0.833-0.317-1.071-0.133c-0.138,0.106-0.104,0.45-0.161,0.61
				c-0.254-0.167-0.533-0.323-0.804-0.455c-0.019-0.567,0.423-1.009,0.303-1.588c-0.053-0.255-0.106-0.318-0.067-0.59
				c0.031-0.214,0.117-0.327-0.036-0.53c-0.291-0.387-0.91-0.221-1.084-0.718c-0.105-0.299-0.069-0.789-0.061-1.115
				c0.006-0.234,0.052-0.352,0.115-0.58c0.123-0.449-0.023-0.289-0.318-0.533c-0.257-0.212-0.562-1.462,0.051-1.512
				c-0.01-0.24-0.276-0.364-0.335-0.563c-0.125-0.422,0.017-0.635,0.32-0.825c0.4-0.251,1-0.52,0.438-1.026
				c0.226-0.251,0.4-0.272,0.449-0.62c0.057-0.408,0.008-1.252-0.158-1.601c-0.169-0.355-0.57-0.509-0.773-0.847
				c-0.309-0.514-0.178-1.056-0.236-1.632c-0.053-0.535-0.325-0.46-0.652-0.794c-0.282-0.289-0.102-0.527-0.137-0.912
				c-0.037-0.406-0.383-0.851-0.191-1.275c0.125-0.275,0.348-0.332,0.415-0.642c0.064-0.296,0.043-0.712,0.036-1.015
				c0.58-0.159,1.046-1.053,1.272-1.555c0.276-0.615-0.24-0.818-0.331-1.381c-0.049-0.303,0.102-0.617,0.031-0.916
				c-0.077-0.325-0.217-0.461-0.218-0.819C74.116,9.22,74.1,8.723,74.156,8.291c0.043-0.334,0.227-0.384,0.358-0.67
				c0.155-0.341,0.019-0.603-0.209-0.866c-0.332-0.383-0.288-0.681-0.543-1.104c-0.515-0.851-1.43-0.819-2.131-0.246
				c-0.386,0.315-0.544,0.812-0.716,1.259c-0.051,0.132-0.023,0.261-0.142,0.346c-0.259,0.186-1.014-0.158-1.266-0.281
				c-0.726-0.352-1.199-0.974-2.104-0.729c-0.706,0.192-1.469,0.479-2.198,0.564c-0.75,0.087-1.527-0.669-2.337-0.301
				c-0.283,0.128-0.448,0.333-0.766,0.424c-0.586,0.168-1.207,0.175-1.798,0.333c-0.516,0.138-0.983,0.394-1.507,0.514
				c-0.609,0.14-1.233,0.137-1.842,0.276c-0.509,0.116-0.811,0.438-1.189,0.789c-0.674,0.625-1.829,0.697-2.49,1.3
				c-0.662,0.604-1.075,1.414-1.663,2.079c-0.302,0.341-0.714,0.882-1.142,1.064c-0.271,0.115-0.604,0.059-0.874,0.18
				c-0.327,0.147-0.429,0.438-0.764,0.546c-0.466,0.15-0.971-0.046-1.463-0.007c-0.506,0.039-0.28,0.168-0.57,0.527
				c-0.258,0.319-0.551,0.18-0.902,0.149c-0.789-0.069-0.54,0.605-0.991,1.086c-0.402,0.43-1.174,0.514-1.668,0.818
				c-0.486,0.298-0.523,0.829-0.907,1.191c-0.246,0.233-0.477,0.319-0.602,0.728c-0.104,0.343,0,0.923-0.539,0.979
				c-0.252,0.026-0.397-0.215-0.565-0.376c-0.322-0.309-0.795-0.643-1.255-0.697c-0.614-0.073-1.342,0.22-1.96,0.266
				c-0.63,0.047-1.162,0.37-1.239,0.997c-0.102,0.839-0.657,0.852-1.246,1.357c-0.552,0.474-0.142,1.012-0.451,1.528
				c-0.317,0.175-0.719,0.521-1.025,0.736c-0.439,0.308-0.883,0.351-1.314,0.595c-0.065,0.037-0.348,0.321-0.343,0.32
				c-0.329,0.063-0.486-0.248-0.838-0.16c-0.539,0.134-0.694,0.862-1.228,1.058c-0.63,0.233-1.395,0.223-2.053,0.323
				c-0.139-0.189-0.186-0.423-0.144-0.653c-0.248-0.026-0.507-0.044-0.726-0.16c-0.039-0.746-0.347-1.125-1.12-1.334
				c-1.104-0.3-2.497-0.483-3.644-0.526c-2.021-0.075-4.053-0.049-6.08-0.049L28.471,43.87c0.469,0.978-0.99,1.467-1.082,2.413
				c-0.049,0.498,0.028,0.95-0.392,1.331c-0.144,0.131-0.392,0.202-0.514,0.344c-0.125,0.147-0.03,0.327-0.111,0.47
				c-0.078,0.137-0.232,0.128-0.321,0.239c-0.109,0.135-0.028,0.332-0.113,0.474c-0.072,0.12-0.245,0.18-0.325,0.3
				c-0.174,0.26-0.144,0.641-0.133,0.937c0.022,0.649,0.333,1.153,0.272,1.814c-0.031,0.337-0.095,0.623-0.167,0.947
				c-0.033,0.149-0.062,0.26,0.047,0.379c-0.036,0.604,0.341,1.129,0.099,1.7c-0.173,0.408-0.16,0.843-0.305,1.263
				c-0.085,0.245-0.236,0.459-0.312,0.707c-0.073,0.239-0.092,0.497-0.135,0.743c-0.026,0.152-0.012,0.455-0.1,0.592
				c-0.066,0.103-0.086,0.049-0.183,0.124c-0.344,0.268-0.249,0.499-0.293,0.906c-0.044,0.393-0.264,0.2-0.479,0.424
				c-0.237,0.248-0.069,0.396-0.462,0.454c-0.273,0.041-0.602,0.124-0.467,0.49c0.085,0.231,0.712,0.828,0.963,0.878
				c0.066,0.287,0.093,0.431,0.32,0.634c0.155,0.139,0.393,0.168,0.473,0.362c0.118,0.284-0.153,0.445-0.346,0.567
				c-0.233,0.148-0.392,0.331-0.432,0.619c-0.041,0.29,0.095,0.758,0.164,1.052c0.067,0.287,0.216,0.42,0.43,0.608
				c0.259,0.225,0.513,0.449,0.714,0.73c0.218,0.304,0.393,0.697,0.628,0.966c0.015,0.159-0.017,0.214-0.029,0.347
				c-0.015,0.162,0.108,0.374,0.092,0.501c-0.035,0.28-0.009,0.183-0.357,0.228c-0.439,0.057-0.919,0.01-1.352,0.095
				c-0.604,0.119-0.271,0.326-0.374,0.774c-0.058,0.252-0.311,0.361-0.378,0.587c-0.085,0.283,0.229,0.686,0.42,0.907
				c-0.263,0.426-0.82,0.725-1.193,1.059c-0.339,0.304-0.463,0.587-0.906,0.82c-0.444,0.234-1.002,0.407-1.15,0.938
				c-0.098,0.35-0.035,1.263-0.503,1.35c0.159,0.414,0.376,0.78,0.537,1.186c-0.368,0.001-0.828-0.056-1.149,0.159
				c-0.109,0.073-0.162,0.212-0.262,0.294c-0.088,0.073-0.331,0.147-0.388,0.222c-0.271,0.358,0.136,0.747,0.151,1.124
				c0.018,0.441-0.337,0.844-0.09,1.238c0.114,0.181,0.338,0.26,0.45,0.458c0.13,0.231,0.148,0.545,0.247,0.792
				c0.186,0.46,0.232,0.473,0.627,0.649c0.467,0.207,0.689,0.576,0.986,0.971c0.309,0.41,0.386,0.953,0.709,1.333
				c-0.262,0.014-0.507-0.092-0.776-0.082c-0.017,0.202,0.05,0.402,0.066,0.599c-0.522,0.114-1.065,0.589-0.901,1.122
				c0.073,0.238,0.308,0.561,0.22,0.827c-0.117,0.355-0.416,0.303-0.637,0.091c-0.222,0.262-0.51,0.705-0.519,1.062
				c-0.01,0.397,0.145,0.258,0.304,0.548c0.132,0.242-0.077,0.329-0.052,0.544c0.061,0.52,0.602,0.924,1.04,0.956
				c0.156,0.011,0.604-0.049,0.721,0.064c0.155,0.15,0.024,0.472-0.147,0.562c0.364,0.436,0.585,0.209,0.974,0.339
				c0.437,0.146,0.511,0.778,0.711,1.14c0.366,0.665,1.286,0.948,1.851,1.39c0.372,0.291,0.706,0.312,1.191,0.289
				c0.273-0.013,1.214-0.192,1.423,0.152c0.103,0.17-0.021,0.581-0.123,0.732c-0.234,0.347-0.505,0.181-0.843,0.309
				c-0.402,0.152-0.219,0.496-0.585,0.585c-0.119,0.029-0.226-0.13-0.35-0.082c-0.193,0.075-0.262,0.484-0.212,0.692
				c0.065,0.272,0.988,1.548,0.005,1.385c-0.664-0.11-1.091-0.649-1.387-1.192c-0.235-0.432-0.359-0.315-0.801-0.387
				c-0.327-0.053-0.699-0.464-0.884,0.046c-0.102,0.282,0.139,0.59,0.174,0.871c0.023,0.18-0.032,0.372-0.003,0.552
				c0.023,0.145-0.019,0.244,0.116,0.339c0.114,0.081,0.756,0.006,0.915-0.04c0.334-0.095,0.309-0.242,0.699-0.077
				c0.307,0.129,0.482,0.335,0.719,0.56c0.314,0.298,0.789,0.638,1.241,0.573c0.07-0.253-0.067-0.463-0.039-0.7
				c0.029-0.248,0.198-0.518,0.308-0.743c0.519,0.075,1.045,0.276,1.557,0.407c0.482,0.123,0.973,0.047,1.423,0.234
				c0.003,0.297,0.016,0.568-0.084,0.816c-0.004,0.011-0.174,0.139-0.196,0.172c-0.184,0.255,0.109,0.229-0.233,0.455
				c-0.296,0.196-0.495,0.057-0.7,0.407c-0.173,0.293-0.097,1.011-0.342,1.154c-0.328,0.19-1.112-0.144-1.4-0.259
				c-0.46-0.183-0.882-0.234-1.351-0.058c-0.287,0.107-0.71,0.296-0.606,0.68c0.048,0.178,0.482,0.62,0.653,0.672
				c0.251,0.076,0.561-0.115,0.784-0.208c0.186,0.207-0.031,0.354-0.119,0.538c-0.004,0.007-0.141,0.31-0.142,0.312
				c-0.101,0.176,0.068,0.16-0.109,0.283c-0.113,0.078-0.458,0.033-0.59,0.013c-0.492-0.075-0.889-0.524-1.408-0.446
				c-0.4,0.331-0.018,1.072-0.028,1.47c-0.012,0.428-0.659,0.662-1.027,0.791c-0.281,0.099-0.748,0.019-0.98,0.223
				c-0.156,0.137-0.154,0.455-0.219,0.645c-0.169,0.492-0.478,0.504-0.873,0.787c-0.558,0.4-1.104,1.436-1.093,2.113
				c-1.187,0.218-0.39,0.711-0.664,1.463c-0.243,0.668-0.928,0.402-1.474,0.539c-0.274,0.069-0.655,0.244-0.872,0.424
				c-0.26,0.215-0.362,0.592-0.61,0.812c-0.108,0.096-0.272,0.092-0.395,0.265c-0.157,0.22-0.165,0.502-0.419,0.65
				c0.602,0.338,1.173,0.282,1.682,0.811c0.425,0.442,0.746,0.636,0.754,1.257c0.009,0.775-0.074,1.746,0.223,2.483
				c0.182,0.452,0.658,0.853,0.984,1.208c0.334,0.364,0.639,0.663,0.78,1.153c0.18,0.625,0.22,1.211,0.16,1.85
				c-0.038,0.406-0.084,0.801,0.261,1.074c0.134,0.107,0.306,0.072,0.412,0.138c0.054,0.034,0.101,0.137,0.157,0.163
				c0.14,0.066,0.158,0.139,0.376,0.143c0.234,0.003,0.346-0.06,0.581-0.01c0.237,0.05,0.465,0.149,0.692,0.228
				c0.345,0.12,0.65,0.363,0.912,0.61c0.044,0.636-0.693,0.788-0.863,1.32c-0.142,0.444,0.664,0.814,0.799,1.166
				c0.111,0.293-0.059,0.683,0.013,0.992c0.044,0.187,0.197,0.322,0.227,0.523c0.037,0.253,0.049,0.526,0.074,0.781
				c0.025,0.253-0.021,0.552,0.056,0.795c0.143,0.448,0.407,0.493,0.41,1.017c0.001,0.3,0.237,1.694-0.3,1.549
				c-0.055,0.551,0.384,0.731,0.596,1.163c0.165,0.337,0.129,0.751,0.222,1.116c0.18,0.704,1.459,1.869,0.464,2.399
				c0.12,0.9,0.776,1.511,1.537,1.91c0.696,0.365,0.992,0.967,1.531,1.514c0.286,0.291,0.607,0.497,0.846,0.83
				c0.206,0.287,0.39,0.559,0.676,0.764c0.557,0.401,1.176,0.655,1.731,1.077c0.362,0.274,1.167,0.851,0.949,1.333
				c-0.051,0.113-0.144,0.181-0.224,0.276c-0.224,0.265-0.399,0.549-0.61,0.819c-0.413,0.529-1.068,0.812-1.491,1.322
				c-0.208,0.25-0.325,0.504-0.388,0.819c-0.036,0.178-0.055,0.359-0.174,0.505c-0.2,0.246-0.545,0.189-0.829,0.281
				c0.024,0.315,0.002,0.411,0.25,0.575c0.224,0.148,0.372,0.275,0.543,0.491c0.13,0.164,0.175,0.378,0.285,0.538
				c0.177,0.257,0.454,0.097,0.757,0.201c0.362,0.124,0.129,0.379,0.149,0.66c0.021,0.299,0.385,0.566,0.226,0.849
				c-0.205,0.364-0.283,0.776-0.433,1.166c-0.218,0.57-0.534,0.321-1.074,0.341c-0.435,0.016-0.888,0.099-1.281,0.285
				c-0.457,0.218-0.617,0.379-0.6,0.922c0.117-0.002,0.8,0.01,0.885,0.077c0.168,0.131,0.129,0.642,0.128,0.815
				c-0.001,0.607-0.204,1.045,0.187,1.545c0.136,0.174,0.407,0.441,0.333,0.689c-0.083,0.276-0.317,0.177-0.521,0.226
				c-0.626,0.15-0.334,0.82-0.564,1.356c0.352,0.332,0.776,0.804,1.246,0.981c0.164,0.062,0.386,0.032,0.527,0.145
				c0.112,0.091,0.116,0.282,0.232,0.383c0.22,0.189,0.533,0.05,0.75,0.185c0.199,0.123,0.192,0.457,0.383,0.585
				c0.218,0.147,0.618-0.014,0.78,0.267c0.205,0.355-0.118,0.522-0.322,0.642c-0.238,0.141-0.387,0.284-0.561,0.499
				c-0.196,0.243-0.407,0.403-0.473,0.703c-0.068,0.304,0,0.693,0,1.007c0,0.28-0.078,0.688,0.035,0.942
				c0.118,0.266,0.45,0.523,0.605,0.783h1.357l3.178,5.2v4.824c0.232,0.574,0.716,1.028,1.032,1.556
				c0.21,0.351,0.471,0.522,0.475,0.949c0.008,0.822,0.024,1.637,0.05,2.457c0.027,0.823,0.559,1.099,1.196,1.504
				c0.238,0.151,0.478,0.448,0.536,0.734c0.073,0.354-0.229,0.576-0.226,0.903c0.005,0.494,0.443,0.922,0.409,1.431
				c-0.085,0.027-0.033,0.102-0.096,0.151c-0.041,0.033-0.069,0.033-0.103,0.056c-0.167,0.115-0.231,0.083-0.254,0.326
				c-0.054,0.58,0.142,1.107,0.541,1.511c0.131,0.132,0.279,0.227,0.327,0.411c0.055,0.214-0.033,0.467,0.016,0.687
				c0.05,0.226,0.183,0.483,0.303,0.686c0.069,0.117,0.206,0.209,0.255,0.332c0.117,0.291-0.08,0.835-0.221,1.078
				c-0.2,0.344-0.243,0.524-0.123,0.889c0.064,0.192,0.051,0.184-0.038,0.363c-0.059,0.119-0.123,0.205-0.081,0.335
				c0.062,0.192,0.285,0.232,0.263,0.468c-0.022,0.242-0.398,1.092-0.068,1.261c0.394-0.124,0.508,0.22,0.735,0.452
				c0.234,0.239,0.518,0.302,0.848,0.301c1.018-0.001,2.024,0.05,3.04,0.05c0.542,0,0.929-0.243,1.442-0.388
				c0.504-0.142,1.013-0.155,1.513-0.36c0.425-0.174,0.821-0.236,1.282-0.28c0.386-0.037,0.547-0.306,0.736-0.63
				c0.379-0.648,0.912-0.952,1.514-1.353c0.183-0.121,0.451-0.13,0.544-0.358c0.091-0.221,0.018-0.665,0.005-0.899
				c-0.03-0.507-0.299-0.962,0.391-0.959c0.377,0.002,0.509-0.076,0.7-0.42c0.224-0.401,0.4-0.531,0.812-0.722
				c0.187-0.087,0.364-0.158,0.568-0.209c0.151-0.038,0.436-0.029,0.555-0.125c0.144-0.116,0.173-0.413,0.22-0.592
				c0.095-0.364,0.183-0.73,0.263-1.097c0.115-0.523,0.309-1.002,0.712-1.371c0.225-0.207,0.678-0.418,0.923-0.129
				c0.152-0.135,0.339-0.454,0.516-0.537c0.204-0.094,0.507-0.045,0.735-0.095c0.657-0.144,1.266-0.404,1.899-0.624
				c0.319-0.111,0.844-0.104,1.109-0.302c0.126-0.094,0.082-0.303,0.173-0.406c0.129-0.144,0.233-0.102,0.447-0.103
				c-0.012-0.328,0.114-0.697,0.145-1.017c0.025-0.254-0.013-0.514,0.006-0.769c0.033-0.456,0.428-0.722,0.427-1.202
				c-0.001-0.281,0.061-0.544,0.076-0.823c0.009-0.172-0.071-0.501,0.049-0.636c0.335-0.378,1.583,0.528,1.881,0.65
				c0.43,0.175,0.7,0.121,0.776,0.631c0.042,0.281,0.066,0.49,0.193,0.75c0.558,0.004,1.552,0.072,1.931,0.538
				c0.208,0.257,0.276,0.605,0.457,0.881c0.193,0.295,0.432,0.578,0.698,0.81c0.246,0.215,0.486,0.41,0.816,0.439
				c0.293,0.026,0.603-0.002,0.898-0.002c0.362,0,0.65,0.035,0.969-0.127c0.19-0.097,0.427-0.299,0.646-0.327
				c0.364-0.047,0.835,0.205,1.186,0.303c1.848,0.514,3.787-0.176,5.705-0.176c0.416,0,0.675-0.007,1.041,0.189
				c0.351,0.189,0.56,0.521,0.883,0.729c0.458,0.295,0.998-0.017,1.485,0.136c0.177,0.056,0.219,0.173,0.343,0.294
				c0.217,0.211,0.354,0.251,0.65,0.343c0.268,0.083,0.513,0.059,0.773,0.116c0.323,0.071,0.637,0.322,0.91,0.504
				c0.414,0.276,1.157,0.399,1.094,0.991c-0.511,0.068-0.613,0.643-0.369,1.071c0.257,0.45,1.041,0.618,1.332,1.047
				c0.195,0.287,0.236,0.772,0.357,1.124c0.082,0.235,0.199,0.536,0.19,0.788c-0.012,0.347-0.149,0.481-0.027,0.842
				c0.202,0.598,0.564,0.671,0.421,1.357c0.425,0.271,0.709,0.295,0.773,0.798c0.054,0.424-0.091,0.898,0.032,1.309
				c1.061,0.061,0.727-1.223,0.791-1.843c0.022-0.217,0.222-0.403,0.267-0.623c0.044-0.218-0.005-0.475-0.016-0.694
				c-0.027-0.561,0.168-0.937,0.516-1.381c0.561-0.716,0.862-1.49,1.239-2.302c0.303-0.652,0.477-2.387,1.265-2.596
				c0.21-0.681,0.622-1.221,0.873-1.873c0.199-0.515,0.607-0.989,0.723-1.531h15.186c0.608,0,0.725,0.265,0.464,0.826
				c-0.145,0.312-0.426,0.718-0.25,1.096c0.104,0.224,0.405,0.334,0.599,0.45c0.304,0.181,0.501,0.393,0.711,0.669
				c0.139,0.181,0.825,0.973,0.962,0.502l5.2-17.297v-7.461l4.748-6.971l2.449-6.557l16.694-2.864l7.499-2.035h12.398l12.347,7.712
				c-0.139,0.286-0.335,0.633-0.377,0.948c-0.041,0.308,0.164,0.364-0.006,0.637c-0.069,0.111-0.15,0.01-0.145,0.184
				c0.003,0.134,0.15,0.171,0.223,0.267c0.161,0.21,0.08,0.347,0.13,0.598c0.051,0.253,0.265,0.332,0.359,0.576
				c0.1,0.258-0.099,0.428-0.06,0.657c0.022,0.133,0.209,0.183,0.227,0.326c0.026,0.212-0.259,0.406-0.38,0.554
				c0.086,0.147,0.378,0.283,0.54,0.233c0.241-0.075,0.324-0.437,0.432-0.631c0.166-0.299,0.473-0.251,0.703-0.526
				c0.161-0.192,0.274-0.372,0.542-0.432c0.18-0.04,0.183,0.011,0.335-0.096c0.212-0.149,0.31-0.454,0.608-0.432
				c0.182,0.013,0.292,0.155,0.391,0.286c0.136-0.032,0.431-0.394,0.523-0.497c0.112-0.125,0.224-0.265,0.228-0.44l-3.793-3.216
				l4.798-10.476h1.156c0-0.186,0.077-0.472,0.021-0.648c-0.021-0.064-0.118-0.147-0.146-0.205c-0.05-0.104-0.057-0.195-0.075-0.302
				c-0.034-0.206,0.01-0.476-0.078-0.667c-0.1-0.219-0.378-0.177-0.627-0.213l2.851-9.534H182.383z M45.486,123.256
				c-0.547,0.418-0.836-0.239-0.679-0.73c0.086-0.27,0.336-0.432,0.397-0.733c0.066-0.326-0.052-0.473-0.151-0.733
				c-0.227-0.602,0.122-0.951,0.073-1.547c0.656,0.721,0.706,1.57,0.733,2.178C45.88,122.156,45.899,122.94,45.486,123.256z
				 M49.44,122.524c0.452,0.15,1.104,0.514,1.167,0.734c0.069,0.241-0.194,0.748-0.285,0.978c-0.093,0.235-0.193,0.495-0.475,0.394
				c-0.159-0.058-0.271-0.251-0.321-0.402c-0.043-0.127,0-0.375-0.087-0.481c-0.076-0.093-0.235-0.083-0.346-0.136
				c0.129-0.136,0.232-0.293,0.207-0.487c-0.131-0.003-0.279,0.038-0.347-0.079C49.078,122.848,49.359,122.751,49.44,122.524z
				 M52.372,138.508c-0.393,0.573-1.189,1.047-1.765,0.583c-0.23-0.185-0.478-0.55-0.505-0.853c-0.04-0.458,0.126-0.424,0.426-0.703
				c-0.417-0.531-0.426-0.257-0.382-0.924c0.021-0.319,0.073-0.589-0.16-0.932c1.097-1.177-3.039-1.209-3.44-1.296
				c-0.296-0.064-0.852-0.318-0.564-0.774c0.336-0.533,1.739-0.109,2.267-0.267c-0.09-0.296-0.593-0.471-0.869-0.636
				c0.143-0.705,0.595-1.016,0.054-1.634c-0.191-0.169-0.145-1.035,0.011-1.288c0.316-0.513,1.804-0.48,2.257-0.06
				c0.435,0.403,0.42,1.228,0.554,1.749c0.156,0.608,0.505,0.792,1.053,1.143c0.589,0.377,0.599,0.675,0.629,1.355
				c0.037,0.841-0.013,1.148,0.735,1.522C53.887,136.103,52.948,137.667,52.372,138.508z M66.72,51.128
				c-0.082,0.293-0.347,0.469-0.402,0.76c-0.063,0.329,0.065,0.643-0.134,0.923c-0.34,0.477-0.798,0.389-1.256,0.218
				c0-0.173,0.142-0.332,0.084-0.51c-0.064-0.2-0.183-0.158-0.173-0.387c0.007-0.157,0.076-0.264,0.05-0.439
				c-0.03-0.208-0.108-0.41-0.061-0.64c0.053-0.26,0.343-0.654,0.548-0.813c0.237-0.183,1.088-0.274,1.159,0.048
				C66.761,50.587,66.793,50.865,66.72,51.128z M66.679,49.026c-0.173-0.045-0.105-0.219-0.092-0.362
				c0.012-0.134-0.03-0.313,0.111-0.385c0.214,0.09,0.371,0.18,0.33,0.326c-0.025,0.086-0.101,0.197-0.14,0.282
				C66.845,48.983,66.818,49.063,66.679,49.026z M67.026,53.303c-0.203-0.082-0.213-0.385-0.104-0.556
				c0.102-0.161,0.32-0.195,0.428-0.336C67.865,52.47,67.628,53.547,67.026,53.303z M68.373,53.829
				c-0.09,0.174-0.397,0.661-0.682,0.435c-0.126-0.1-0.055-0.564-0.036-0.705c0.062-0.447,0.628-0.587,0.59-1.067
				c0.114-0.008,0.186,0.17,0.301,0.242c0.107,0.067,0.229,0.088,0.35,0.129C68.868,53.224,68.532,53.521,68.373,53.829z
				 M68.942,49.4c-0.125,0.099-0.348,0.349-0.537,0.267c-0.009-0.143,0.08-0.26,0.065-0.395c-0.02-0.175-0.126-0.163-0.233-0.288
				c-0.16-0.186-0.16-0.451-0.377-0.602c-0.428,0.118-0.294-0.959,0.336-0.362c0.18,0.171,0.333,0.432,0.448,0.647
				c0.143,0.269,0.163,0.309,0.478,0.329C69.12,49.24,69.104,49.272,68.942,49.4z M72.296,51.298
				c-0.087,0.166-0.298,0.081-0.413,0.188c-0.116,0.108-0.041,0.25-0.236,0.323c-0.105,0.039-0.369,0.004-0.468-0.035
				c-0.019-0.238,0.032-0.482,0.021-0.722c-0.086-0.021-0.148-0.081-0.215-0.136c0.181-0.388,0.149-0.48-0.025-0.847
				c-0.076-0.159-0.001-0.262-0.025-0.385c-0.039-0.199-0.108-0.171-0.258-0.296c-0.261-0.219-0.136-0.339-0.118-0.654
				c0.017-0.291-0.113-0.692,0.184-0.808c0.274,0.304,0.391,0.328,0.624,0.441c0.298,0.145,0.153,0.085,0.134,0.36
				c-0.013,0.177,0.085,0.531,0.212,0.665c0.146,0.155,0.265,0.049,0.445,0.159c-0.188,0.196-0.137,0.594-0.018,0.779
				c0.114,0.175,0.181,0.145,0.124,0.323c-0.061,0.192-0.218,0.098-0.1,0.35C72.23,51.15,72.396,51.105,72.296,51.298z
				 M72.567,47.586c-0.189,0.218-0.134,0.035-0.312,0.06c-0.096,0.014-0.152,0.128-0.224,0.165c-0.268,0.142-0.381-0.074-0.22-0.321
				c0.135-0.207,0.344-0.286,0.545-0.411C72.822,47.116,72.71,47.422,72.567,47.586z M77.316,48.498
				c-0.455-0.019-0.769-0.723-0.627-1.111c0.185-0.002,0.598-0.052,0.701-0.22C77.816,47.45,77.779,48.517,77.316,48.498z
				 M81.199,47.783c-0.259-0.293,0.09-0.807-0.295-1.104c-0.167-0.129-0.54,0.006-0.633-0.106c-0.059-0.072,0.001-0.359-0.032-0.436
				c0.465-0.014,0.597,0.262,0.921,0.381c0.176,0.065,0.446,0.05,0.557,0.254C81.886,47.081,81.466,47.667,81.199,47.783z"/>
		</g>
		<g>
			<path fill="#1E8346" d="M52.672,135.494c-0.748-0.375-0.699-0.681-0.735-1.522c-0.03-0.68-0.04-0.978-0.629-1.355
				c-0.548-0.351-0.897-0.535-1.053-1.143c-0.134-0.521-0.119-1.346-0.554-1.749c-0.454-0.42-1.942-0.453-2.257,0.06
				c-0.155,0.253-0.202,1.118-0.011,1.288c0.541,0.617,0.089,0.928-0.054,1.634c0.276,0.165,0.779,0.34,0.869,0.636
				c-0.528,0.158-1.931-0.266-2.267,0.267c-0.288,0.456,0.269,0.71,0.564,0.774c0.402,0.087,4.538,0.119,3.44,1.296
				c0.233,0.344,0.181,0.613,0.16,0.932c-0.044,0.667-0.035,0.393,0.382,0.924c-0.299,0.278-0.466,0.244-0.426,0.703
				c0.026,0.304,0.275,0.668,0.505,0.853c0.576,0.464,1.372-0.01,1.765-0.583C52.948,137.667,53.887,136.103,52.672,135.494z"/>
		</g>
		<g>
			<path fill="#1E8346" d="M45.125,119.512c0.049,0.596-0.299,0.945-0.073,1.547c0.098,0.261,0.216,0.408,0.151,0.733
				c-0.061,0.301-0.311,0.463-0.397,0.733c-0.157,0.492,0.132,1.148,0.679,0.73c0.413-0.316,0.394-1.1,0.373-1.566
				C45.832,121.083,45.781,120.233,45.125,119.512z"/>
		</g>
		<g>
			<path fill="#1E8346" d="M77.39,47.167c-0.104,0.167-0.516,0.218-0.701,0.22c-0.142,0.388,0.172,1.091,0.627,1.111
				C77.779,48.517,77.816,47.45,77.39,47.167z"/>
		</g>
		<g>
			<path fill="#1E8346" d="M81.161,46.517c-0.324-0.119-0.456-0.395-0.921-0.381c0.032,0.077-0.027,0.364,0.032,0.436
				c0.093,0.113,0.466-0.023,0.633,0.106c0.385,0.297,0.036,0.811,0.295,1.104c0.267-0.116,0.687-0.702,0.518-1.012
				C81.606,46.568,81.337,46.582,81.161,46.517z"/>
		</g>
		<g>
			<path fill="#1E8346" d="M72.163,51.004c-0.117-0.253,0.039-0.159,0.1-0.35c0.057-0.178-0.011-0.148-0.124-0.323
				c-0.12-0.184-0.17-0.583,0.018-0.779c-0.18-0.11-0.299-0.004-0.445-0.159c-0.127-0.135-0.224-0.489-0.212-0.665
				c0.019-0.275,0.164-0.215-0.134-0.36c-0.234-0.114-0.35-0.137-0.624-0.441c-0.297,0.116-0.167,0.517-0.184,0.808
				c-0.018,0.314-0.143,0.435,0.118,0.654c0.15,0.126,0.219,0.098,0.258,0.296c0.024,0.123-0.05,0.225,0.025,0.385
				c0.174,0.367,0.207,0.458,0.025,0.847c0.066,0.055,0.128,0.115,0.215,0.136c0.01,0.24-0.041,0.484-0.021,0.722
				c0.099,0.039,0.363,0.074,0.468,0.035c0.195-0.073,0.12-0.215,0.236-0.323c0.116-0.107,0.327-0.022,0.413-0.188
				C72.396,51.105,72.23,51.15,72.163,51.004z"/>
		</g>
		<g>
			<path fill="#1E8346" d="M65.377,50.24c-0.205,0.159-0.495,0.553-0.548,0.813c-0.047,0.231,0.031,0.432,0.061,0.64
				c0.026,0.174-0.042,0.281-0.05,0.439c-0.01,0.229,0.108,0.188,0.173,0.387c0.057,0.178-0.084,0.337-0.084,0.51
				c0.458,0.171,0.917,0.259,1.256-0.218c0.199-0.281,0.072-0.594,0.134-0.923c0.055-0.29,0.32-0.467,0.402-0.76
				c0.073-0.263,0.041-0.541-0.184-0.841C66.465,49.966,65.614,50.057,65.377,50.24z"/>
		</g>
		<g>
			<path fill="#1E8346" d="M68.245,52.493c0.037,0.48-0.528,0.62-0.59,1.067c-0.019,0.141-0.091,0.605,0.036,0.705
				c0.285,0.226,0.592-0.261,0.682-0.435c0.159-0.308,0.495-0.606,0.524-0.965c-0.121-0.041-0.243-0.063-0.35-0.129
				C68.431,52.663,68.359,52.484,68.245,52.493z"/>
		</g>
		<g>
			<path fill="#1E8346" d="M67.35,52.411c-0.107,0.142-0.325,0.175-0.428,0.336c-0.109,0.17-0.099,0.473,0.104,0.556
				C67.628,53.547,67.865,52.47,67.35,52.411z"/>
		</g>
		<g>
			<path fill="#1E8346" d="M68.642,48.666c-0.115-0.215-0.268-0.476-0.448-0.647c-0.63-0.597-0.763,0.481-0.336,0.362
				c0.217,0.151,0.217,0.416,0.377,0.602c0.107,0.125,0.213,0.113,0.233,0.288c0.015,0.135-0.074,0.252-0.065,0.395
				c0.189,0.082,0.412-0.168,0.537-0.267c0.162-0.128,0.178-0.16,0.179-0.405C68.805,48.976,68.785,48.935,68.642,48.666z"/>
		</g>
		<g>
			<path fill="#1E8346" d="M67.028,48.606c0.042-0.146-0.116-0.236-0.33-0.326c-0.142,0.071-0.1,0.25-0.111,0.385
				c-0.013,0.143-0.08,0.316,0.092,0.362c0.139,0.037,0.165-0.043,0.209-0.139C66.927,48.803,67.003,48.692,67.028,48.606z"/>
		</g>
		<g>
			<path fill="#1E8346" d="M72.356,47.079c-0.201,0.125-0.41,0.204-0.545,0.411c-0.161,0.247-0.047,0.464,0.22,0.321
				c0.071-0.038,0.127-0.152,0.224-0.165c0.178-0.025,0.123,0.158,0.312-0.06C72.71,47.422,72.822,47.116,72.356,47.079z"/>
		</g>
		<g>
			<path fill="#1E8346" d="M49.301,123.124c0.025,0.193-0.078,0.351-0.207,0.487c0.111,0.053,0.27,0.042,0.346,0.136
				c0.087,0.107,0.044,0.354,0.087,0.481c0.05,0.151,0.161,0.344,0.321,0.402c0.282,0.101,0.382-0.159,0.475-0.394
				c0.091-0.23,0.354-0.737,0.285-0.978c-0.064-0.22-0.716-0.584-1.167-0.734c-0.081,0.227-0.362,0.324-0.485,0.521
				C49.022,123.162,49.171,123.121,49.301,123.124z"/>
		</g>
	</g>
</g>
</svg>
