<?xml version="1.0" encoding="utf-8"?>
<!-- Generator: Adobe Illustrator 26.0.3, SVG Export Plug-In . SVG Version: 6.00 Build 0)  -->
<svg version="1.1" id="Layer_1" xmlns="http://www.w3.org/2000/svg" xmlns:xlink="http://www.w3.org/1999/xlink" x="0px" y="0px"
	 viewBox="0 0 200 200" style="enable-background:new 0 0 200 200;" xml:space="preserve">
<style type="text/css">
	.st0{fill:#1E8346;}
</style>
<g id="Layer_1_00000152229962263483933170000008497905999797282703_">
	<g id="Layer_1_00000061442898653323928190000005571608892069918396_">
		<g id="Layer_1_00000098929087308412571940000004538787532203942811_">
		</g>
	</g>
</g>
<g id="Isolation_Mode">
	<g>
		<path class="st0" d="M169.4,132.3c0.1-0.6-0.4-0.8-0.7-1.2c-0.1-1-0.6-1.8-0.7-2.7c-0.4-0.9-0.9-1.7-1-2.7c-0.1-0.4-0.7-0.6-0.8-1
			c0.2-0.6,0.4-1.3,0-1.8c-0.5,0-0.6-0.7-0.8-1.1c-0.3-0.5-0.2-0.8,0.1-1.2c0-0.4-0.3-0.7-0.6-1c-0.6-0.2-0.9-0.6-1.1-1.2
			c-0.4-0.1-0.5-0.4-0.8-0.7c-0.7-0.1-0.9-1.6-1.7-0.8c-0.2-0.6-0.3-1.3-0.8-1.8c-1,0.7-1.9-1.1-2.8,0.3v-1l4.9-4.4h0.6
			c0-0.8,1.3-1.3,0.4-2.3c-0.3-0.3-0.7-0.4-0.7-0.9c-0.3-0.6-0.7-1.1-0.5-1.9c-0.6-0.1-0.3-0.8-0.7-1c-0.3,0.1-0.6,0.4-1,0.3
			c-0.3-0.1-0.3-0.1-0.4-0.4c-0.2-1-1.1-1.7-1-2.8c-0.1-1.2-1.4-2-1.1-3.4c1.2-0.8-0.6-2.1-0.4-3.1c0-0.5-0.2-1,0.1-1.4
			c0.3-1.3-0.4-2.7,0.3-4c-0.3-0.6-0.6-1-0.1-1.6c-0.1-0.4-0.5-0.8-0.2-1.3c6.1-4.1-1-3,5.1-8.2c-1.1-0.3-1.5-1.6-0.4-2.2
			c-0.8-0.9-2.2-1.2-3.5-1c-0.2,0-0.2,0.1-0.4-0.1c-0.8-0.9-1.6,0.9-2.3,1.1c-0.5,0.2-0.9,0-1.2-0.3c-0.4-0.1-0.9,0.2-1.2,0.3
			c-0.5-0.1-0.7,0.1-1,0.4c-1,0.3-2.3-0.6-3.1,0.3c-0.6-0.6-1.5,0.7-2-0.2c-0.2-0.1-0.5,0.1-0.8,0.1c-0.5-0.1-0.8-0.5-1.4-0.5
			c-0.4-0.1-0.8,0-1.1,0.1c-0.3,0-0.6-0.4-0.9-0.3c-0.8,0.4-1.5,1.1-2.1,1.7c-0.8,0.1-1.1-1.7-2.1-0.4l-7.8-10.2h-1.3
			c-0.3,0.2-0.4,0.5-0.8,0.4c-0.5,0.1-0.8-0.7-1.3-0.4c-0.6-0.8-1,0.4-1.7-1.2c-0.7,0.5-0.9-0.2-1.5-0.3c-0.6,0.3-1.6,0.1-1.9,0.6
			c-0.1,0-0.2-0.1-0.3-0.1c-0.1,0.1,0,0.2,0,0.4c-0.4,0.2-1-0.1-1.2,0.4c-0.3,0.5-0.9,0-1.4,0c0-0.7-1-0.3-1.5-0.4
			c0,0.4-0.2,0.1-0.3,0c-0.2-0.1-0.5,0.1-0.7,0.1c-0.7,0.3-0.8-0.8-1.4,0c-0.1-0.1-0.1-0.2-0.1-0.3c-0.2,0.3-0.4,0.1-0.6,0.1
			c-0.2,0-0.5,0.3-0.8,0.2c-0.3-0.1,0-0.4-0.2-0.5c-0.2,0.1-0.3,0.2-0.5,0c-0.3,0.4-0.8,0.4-1.1,0c-0.3-0.3-1.1-0.1-1.2,0.4
			c-2.3,0.5-2.8-0.9-3.9-2.7c-0.2-0.4,0.2-0.7,0-1.1c-0.2-0.6-1.3-0.8-1.7-0.3c-0.4-0.5-1.6-0.1-1.6-0.9c-0.5-0.5-0.1-1-0.2-1.6
			c-0.2-0.7-0.3-1.5-0.1-2.3c0.1-0.3,0.4-0.7,0.3-1c0-0.3-0.6-0.6-0.4-1c0.2-0.3,0.8-0.4,0.8-0.9c0.2,0,0.4,0.2,0.6,0.3
			c0.1-0.3,0.2-0.9-0.1-1.1c-0.1-0.4,0.5-0.9,0-1.3c-0.5-0.5-0.1-1-0.3-1.6c-1-1-1.8-2.4-3.1-3.1l-1.3-5.5c0.1-0.9-1.1-0.7-1.8-0.2
			c-0.8,0-0.7-0.6-0.4-1.1c-0.1-0.3-0.4-0.2-0.4-0.6c0.1-0.8-1.1-0.3-1.1,0.1c-0.7-0.2-0.8,0.6-1.4,0.6c-0.2,0-0.5,0-0.6,0.2
			c-0.7,0.3-1.6-0.3-0.7-0.9c0.5-0.4,0.5-1,0.7-1.5c0.1-0.2,1.1-0.9,0.6-1.1c0.1,0,0.2,0,0.2,0c0.3-0.6,0.4-0.9,1.1-1
			c0.4-1.1,0.7-2.3,1.6-3.2c-1.5-0.7,0.3-1.8-0.2-2.6c1.1-0.9,0.6-2.5,0.8-3.8c0.2-0.3,0.2-0.4,0-0.7c0-0.2,0.2-0.2,0.3-0.3
			c0.5-0.7,0.4-1.7,1.3-2.2c0.5-0.4,0.1-1.4,0.8-1.6c0.3-0.9,0-1.3,1.1-1.6c0.4-0.6,0.7-1.2,1.3-1.7c-0.7-1.1,1.9-1.1,2.6-1.2
			l3.2-5.8l6.8-1.9c0-0.4,0.3-0.4,0.5-0.5c0.7-0.7,1.3-1.6,2.5-1.8c0.8-1-0.7-2-1.1-2.9c-0.1-0.7-0.5-1-1-1.4
			c-0.4,0.3-0.5-0.2-0.9-0.3c-0.5,0-0.9,0-1.3-0.3c-0.8-0.3-1.6-0.3-2.4-0.4c-0.9,0.5,0.2,2.4-2,1.6c0-0.2,0.2-0.3,0.2-0.4
			c-0.4,0.1-0.7,0.6-0.9,0.8c0.8,0.3,1.5,1,0.2,1.2c-0.2,0.3-0.6,0.3-0.9,0.2c-0.3-0.4,0.5-0.9,0.1-1c-0.6,0.3-1.9,0-2.2,0.5
			c1,1.1-0.3,2.6-0.7,3.7c-1.9,1.5-4.3,1.8-6.4,2.7c-0.2,0.1-0.6,0.2-0.7,0.5c0.1,1.4-2.5,0.7-2.8,2.2c0.3,1-0.1,0.3-0.5,0.4
			c-0.2,0.1-0.1,0.4-0.3,0.6c0-0.1,0-0.2,0-0.3c-2.1,1.8-5.7,1.7-8.3,1.2c-1.9-1.7-5.2,0.1-4,2.5c-0.1,0.3-0.5,0.5-0.4,0.9
			c0.1,0.5-0.3,0.6-0.7,0.8c-0.3,0.8-0.3,2.4-1.5,2.2c-0.1-0.1-0.3-2.3-0.8-1.7c-0.2,0.3,0.1,0.8-0.1,1c-0.3,0.3-0.5-0.1-0.4-0.3
			c-0.2,0.1-0.3,0.3-0.5,0.2c-0.2-0.5,0.3-0.4,0.4-0.7c-0.4,0,0-0.4,0-0.5c-0.1-0.4-0.1-0.7,0.4-0.8c0.2-0.2,0.3-0.1,0.4,0
			c0.7-0.8-1.7-0.7-2.1-0.8c-0.4-0.3-1.2-1-1.8-0.8c0.6,1,0.1,0.6-0.7,0.6c-0.3,0-0.7,0.5-1.1,0.6c-1,0.3-0.7,1.3-2,1.6
			c-1,0.4-1.3,0.7-1.7,1.5c-0.8,0.3-1.5,0.8-2.1,1.3c-0.5,0.3-0.1,0.9-0.3,1.3c-0.2,0.4-0.9,0.6-0.3,1.1c0.8,1.9-1.4,1.3-1,2
			c-0.1,0.1-0.1,0.3-0.2,0.4c1-1,1.4-0.2,0.7,0.7c-0.2,1.6-0.3,3.4-1.3,4.8C67.3,35,67.7,35,67.9,35c1.3,0.6,0.7,2.7-0.3,3.3
			c-0.4,0.1-0.7,0.1-1.1,0.2c-0.3,0.3-0.8,0.4-0.6-0.2c-0.8,0.1-1.7-0.4-2,0.5c-0.6,0.4-1.4,0.5-1.4,1.3c-0.1,0.4-0.7,0.3-0.8,0.6
			c-0.1,0.2,0,0.5-0.1,0.7c0,0.7-0.8,1.2-1,1.9c-1.1,1-2.3,1.9-3.5,2.7c-0.4,0.1-0.6,0.5-0.8,0.9c-0.7,0.6-1.9,0.8-2.7,0.4
			c0,0.4-0.2,0.6-0.4,0.9c-0.4,0.6,0.8,0.7,1.1,1c0.2,0.4,0.5,0.7,0.7,1.1c0.1,1-0.1,1.8,0.2,2.8c0,0.6,0.4,0.9,0.2,1.5
			c0.2,0.4,0,1-0.5,0.6c-0.3,0.1-0.1,0.3,0,0.4c-0.5,0.1-1.4,0.3-1.7-0.2c-0.2-0.8,0.1-1.3,0.9-1c0.1-0.2-0.3-0.4-0.2-0.6
			c0.4,0,0.1-0.2,0.1-0.4c0.3-0.4-0.3-0.4-0.5-0.2c-0.2,0.1-0.3,0.4-0.5,0.2c-0.2-0.3,0.1-0.5,0.2-0.7c0-0.2-0.5-0.2-0.5-0.5
			c-0.1-0.4-0.3-0.5-0.6-0.5c-0.9-0.7-1.1-2-2.4-2.3c-0.7-0.6-0.8-1.6-1.6-2.2c-0.1,0.1-0.2,0.3-0.3,0.2c0,0.2,0,0.4,0,0.6
			c-0.5,0.1-1.2,1.2-0.5,1.5c0.5-0.1,0.6,0.3,0.7,0.7c0.4,0.4,0.1,1.1,0.5,1.5c0.4-0.1,0.4,0.1,0.5,0.4c0.2,0.3,0.5,0.5,0.3,0.9
			c0.1,0.3,0.6,0.3,0.5,0.7c-0.3,0.8,0,1.5,0.4,2.1c-1.7,0.3-1.9,0.3-2.1,2c-0.6-0.1-0.7,0.8-1,1.2c-0.2,0.1-0.3,0.2-0.4,0.4
			c-0.4,0.5-0.9,1.9-1.5,0.8c-0.3-0.7-1-2.5-1.7-1c0,0.7,1,1,0.6,1.9c0,0.2,0,0.5-0.3,0.4c-1.4-1.2-1.3,1.8-1.8,2.6
			c0.7,1,1.8,1.6,2.6,2.6c0.2,0.6-0.5,0.6-0.5,1.1c-0.2,0.4,0,0.9,0.4,0.5c0.3,0.4,0.8,0.4,1.1,0.7c0.1,0.6,0.3,1.3,0.8,1.7
			c0.7-1.3,1.2,0.6,1.9,0.9c0.4,0.6-0.3,1.5-0.4,2.2c-0.1,0-0.1,0-0.2,0c0,0.2,0.2,0.2,0.3,0.4c0,0.4-0.2,1.1-0.4,1.5
			c-0.2-0.1-0.5-0.7-0.8-0.6c-0.6,2,2,2.7,2,4.5c0.1,0.8,1,1.2,0.4,2c-0.3,0.6-0.7,1.6-1.5,1.2c-0.3,0-0.4,0.2-0.7,0.3
			c-0.2,0.1-0.4-0.1-0.5,0.1c-0.1,0.2,0,0.4-0.1,0.6c-0.1,0.3-0.4,0.4-0.1,0.6c0.4,0.2,0.7-0.3,1,0c0.2,0.2,0,0.5,0.4,0.4
			c-0.1,0.5-0.1,0.9,0,1.4c0.4-0.4,0.4,0.4,0.3,0.7c-0.4-0.4-0.4,0.8-0.3,1c0.2,0.1,0.3,0.2,0.3,0.5c-0.1,1.1-0.1,2.2,0.2,3.2
			c0,0,0,0-0.1,0c-0.3,0.5,0.3,0.6,0.3,1c0,1,0,2.3-0.2,3.3c0.1,1-0.9,1.5-1,2.3c-0.3,0-0.5,0.3-0.8,0.4c-0.1-0.1-0.1-0.3-0.3-0.1
			c0,0.3-0.1,0.6,0.1,0.9c-0.2,0.3-0.2,0.9,0.3,0.5c0.1,0.2-0.3,0.3-0.1,0.5c0.2,0,0.3,0.3,0.4,0.3c0.2-0.1,0.4-0.1,0.5,0.2
			c0.1,0.1,0.2,0.4,0,0.3c-0.4,0.2,0.3,0.4,0.4,0.6c0.1,0.1,0,0.3,0.2,0.4c0.6,0.6,0.8-0.5,0.8-0.9c0.2-0.4,0.9-1.1,1.1-0.3
			c0.1,0.8-1.4,1-1,1.7c0.2,0.2,0,0.2,0,0.4c0.2,0.8,2.3,0.3,2.3-0.5c1,0.2-0.1,0.5-0.2,1c-0.1,0.3-0.6,0.2-0.8,0.4
			c-0.1,0.4,0.3,0.2,0.5,0.2c-0.1,0.6-0.9,0-0.7,0.7c-0.1,0.3,0.3,0.1,0.4,0.3c0,0.1,0.2,0.3,0.1,0.4c-0.4,0-0.3,0.3-0.6,0.6
			c-0.2,0.4-0.6,0.3-0.9,0.5c-0.4,0.3-0.1,0.3,0.1,0.4c0,0.3-0.2,0.6-0.3,0.8c0,0,0,0,0,0c0.1-0.5-0.4-1-0.6-0.4
			c0.2,0.4,0.4,0.7-0.1,1c0-0.2,0-0.4,0-0.6c-0.3,1.1-1.7,1.3-1.9,2.3c0.1,0.2,0.6,0.3,0.5,0.6c-0.2,0.3-0.5-0.2-0.7-0.1
			c-0.3,0.9-1.4,1.5-1.5,2.3c0.5,0,0,0.5,0.2,0.7c-0.4,0.1-0.5,0.5-0.3,0.8c-0.3,0-0.4,0.2-0.5,0.5c-0.1,0.1-0.4,0.2-0.5,0.3
			c1.3,0.5-0.9,0.1-0.2,1.3c0,0.1-0.1,0.3-0.2,0.3c-0.2-0.3-0.4-0.4-0.8-0.3c-0.5,0-0.3,0.8-0.9,0.7c-0.4-0.3-0.8-0.4-0.9,0.2
			c-0.1-0.1-0.2-0.2-0.2-0.3c-0.1,0.2,0,0.5-0.1,0.6c-0.1-0.1-0.2-0.6-0.4-0.6c0,0.2,0,0.5-0.1,0.7c-0.4-0.3-0.3-1.3-1.1-1.1
			c-0.2,0-0.1,0.1,0,0.2c0.3,0.3,0.2,0.8,0,1.1c-0.3-1.2-0.6,0.3-0.4,0.8c0,0.5-0.6,0.5-0.8,0.8c-0.1,0.3-0.2,0.6-0.5,0.8
			c0.5-0.7-0.4-1.3-0.1-2c-0.4,0.2-0.6,0-0.4-0.4c-0.4-0.1-0.5-0.2-0.3,0.3c-0.1-0.1-0.2-0.3-0.4-0.5c-0.1,0.1-0.1,0.2-0.2,0.3
			c-0.3-0.3-0.5,0.4-0.6,0.6c-0.4-0.3-0.8,0.4-0.3,0.5c-0.4,0.1-1.2,0.3-0.9,0.9c-0.1,0.5-0.7,0.7-0.6,1.3c-0.5-0.1-0.9,1.5-0.2,1.5
			c-0.3,0.4,0.3,0.6,0.1,1c-0.2,0.4,0.3,1,0.5,0.3c0.5,0.2,0.5,0.7,0.4,1.1c0.9,0.1,0.5,1.1,0.3,1.7c-0.1-0.1-0.1-0.2-0.2-0.3
			c-0.4-0.1-0.8-0.1-1.1,0.2c-0.9-0.8-2.4-0.4-3,0.7c-0.2,0.3-0.8,0.8-0.4,1.1c0.5,0.3,0.8,0.8,1.3,1c-0.1,0.6,0.9,0.6,0.6,1.2
			c0.3,0.4,1.1,0.4,1.3,1c0.5,0.2,0.6,0.4,0.8,0.8c0.2,0.2,0.8-0.1,0.9,0.3c0,0.2,0.2,0.2,0.3,0.2c0,0.1,0,0.2,0,0.3
			c0.3-0.1,0.5,0,0.8,0.1c0.4-0.4,0.4,0.2,0.3,0.4c0.6,0.1,1.5-1.2,1.7-0.2c-0.1,0.6,0.7,0.7,0.1,1.2c0.3,0.4,1,0.4,0.9,1.1
			c0.2,0.5,1.1,0.1,1.3,0.7c0.9,0.6,1.9,1.1,3,1c0.4-0.3,1.1-0.7,1.6-0.2c0.4,0.4,0,0.7,0,1.1c0.6,0.3,1.1,1,1.9,0.9
			c0.7,0.1,0.3,1.1,0,1.5c0,0.5,0,1,0,1.5c0.4-0.5,0.9-0.2,1.3,0.2c0.4,0.1,1.1-0.3,1.3,0.2c0.4,0.2,0.9,0.1,1.2-0.1
			c0.6-0.3,1.7,0.5,1.2,1.1c0.5,0.1,1.1,0,1.7,0c0.2,0.5,1,0.7,1.3,0.3c0.3-0.2,0.6,0.3,0.9,0c0.1-0.3,0.4-0.2,0.5-0.1
			c0.3,0,0.6-0.1,0.7,0.3c0.2-0.3,0.4,0.2,0.6,0.3c0.3,0,0.5-0.3,0.7-0.4c0.3,0.1,0.5,0.3,0.9,0.2c0.1,0,0.2-0.2,0.3-0.1
			c0.1,0.1,0.1,0.2,0.2,0c0.2-0.6-0.3-2,0.8-1.7c0-0.4,0.8-0.8,1-0.3c-0.1,0.2,0.2,0.2,0.3,0.2c0,0.3,0.2,0.2,0.3,0.1
			c0.1,0.1,0.4,0.2,0.6,0c0.4,0.1,0.4,0.6,0.5,0.8c0.2-0.1,0.4-0.2,0.6-0.2c0.1,0.4,1.3,0.6,0.6,1c0.4,0.5,1.2,0.3,1.2,1.1
			c0.2,0,0.2,0.2,0.2,0.3c0.5-0.8,0.6,1,1.3,0.8c0.6,0.3,1.1,0,1.7,0.1c0.1,0.1,0.3,0.3,0.5,0.3c0.1,0.2,0,0.4,0.4,0.4
			c0.7,0.2,1.2,0.9,1.9,0.8c2.5,1,1.3-1.6,2.8-0.3c0.3,0.2,0.6,0.1,0.9,0.3c0.2,0.1,0.3,0.7,0.6,0.6c0.7-0.1,0.3,0.8,0.9,0.9
			c0.6-0.7,0.2,0.8,1.1-0.1c0.6-0.8,1.1,0.4,1.2,1c0,0.5,0.1,0.6,0.6,0.5c0,0.1-0.1,0.2-0.1,0.3c0.4,0.1,1-0.7,0.9,0.2
			c0.5,0.4,1,0.7,1.4,1.2c1.2-0.7,0.2,1.3,1.1,0.8c0.2,0.4,0.3,0.9,0.3,1.3c0.1,0.1,0.3,0.1,0.3,0.3c0,0.2-0.5,0.2-0.4,0.4
			c0.2,0.2,0.5,0.4,0.8,0.5c0,0.1,0,0.2,0,0.2c0.1-0.1,0.1-0.2,0.2-0.2c0,0.2,0,0.3,0.1,0.5c0.7,0,0,0.3,0.1,0.7
			c-0.2-0.2-0.7,0.1-0.5,0.3c0.2,0.1,0.3,0,0.4,0.2c0.2,0.3-0.1,0.7,0.3,0.9c0.6,0.5,1.6,0,2.2,0.7c0.2-0.2,0.3-0.4,0.5-0.6
			c0.2,0.4,0,1.6,0.7,1.1c-0.2,0.5,0.3,0.6,0.7,0.4c0.5,0.4,0.3,1.5,1.1,1.4c0.6,0.4,0.3-0.3,0.7-0.5c0,0.1,0.1,0.3,0.1,0.4
			c0.7,0.2,1.4,0,1.4,1c0.4,0,0.4,0.1,0.4,0.5c0.2,0.8,1.1,1.4,1,2.3c0.6,0.5-0.6,1.1-0.5,1.6c0.6,0.2,1,0.6,1.3,1.1
			c0.6-0.4,0.7,0,1.2,0.4c0-0.5,0.5-0.7,0.7-0.2c0.2-0.2,0.2-0.5,0.4-0.6c0,0.2,0.3,0.4,0.5,0.5c0.5,0.2,0,0.9,0.7,1.1
			c0,0.6-0.3,1.2,0.2,1.7c0.1,0.3-0.1,0.3,0,0.6c0.7-0.1,0.3,0.5-0.1,0.6c-0.2,0.2-0.2,0.6-0.6,0.6c-0.6,0.5,0.5,1,0.4,1.7
			c0.4-0.3,0.8-0.4,0.7,0.2c0.3-0.7,0.4-0.4,0.7,0.1c0.3,0.1,0.3-0.3,0.4,0.1c0.2,0.3,0.3,0.6,0.3,1c0.9-0.3,1.7-0.8,2.6-0.5
			c0.3,0.4,0.6-0.2,0.8-0.4c0.4-0.3,0.6,0.3,0.9,0.4c0.6,0.2,1.1,0.3,1.8,0.1c0.1,0.3,0.2,0.5,0.3,0.8c0.9,0,1.5-0.6,2.3-0.6
			c0.1,0.1,0,0.2,0,0.4c0.1,0,0.2,0.1,0.3,0c-0.1-0.7,0.3-1,0.8-1.3c0.5-0.4,0.3,0,0.8,0.1c0.3,0.1,0.6-0.1,0.9,0.1
			c0-0.2,0-0.4-0.1-0.6c0.7,0.1,0.8-1.1,1.2-1.5c0.6,0.3,0.6-0.8,1.2-0.6c0.2,0.1,0.2,0.7,0.1,1c0.4-0.3,1-0.6,1.4,0
			c0.3,0.3,0.9,0.1,1,0.4c-0.1,0.8,0.6,1.5,0.3,0.2c0.7-0.1,0.9,0.7,1,1.3c0.1,0.3,0.1,0.2,0.3,0.1c0.5-0.2,0.8-0.3,1-0.8
			c0.2,0.2,0.1,0.3,0.1,0.6c0.6-0.8,0.6-0.3,1.2-0.1c0-0.1,0-0.2,0-0.3c0.1,0,0.2,0,0.3,0c-0.1-0.4-0.2-0.8,0.4-0.7
			c0.5-0.2,0.8-0.2,1.2,0.1c-0.4-0.9,0.1-1.2,0.8-0.6c1.1-0.4,0.7,0,1.3,0.6c0.6-0.2,0.7,0.4,1.1,0.5c0.5,0.1,0.8,0.2,0.5,0.7
			c0.2,0,0.3,0,0.5,0c-0.1,0.7,0.5,1.3,1,0.7c0-0.2-0.4-0.4-0.3-0.5c0.4-0.1,0.7,0.4,0.8,0.7c0.2-0.1,0.4-0.2,0.5-0.3
			c0.3,0.5,0.3,1.3,1,0.6c0.4-0.3,1.3,0.1,0.6,0.5c-0.1,0.1-0.3,0.1-0.3,0.2c0.8,1.1,1-1.6,1.7,1.1c0.5-0.6,0.5-0.1,0.5,0.3
			c0.4,0.5,0.6-0.3,0.9-0.4c0,0.4,0.2,0.8,0.3,1.2l-7.6,11.9c0.6-0.2,0.7,0.7,1.2,0.5c0.7-0.5,0.8,0.5,1.4,0.4
			c2.2-1.5,1.6-0.4,3.4,0.7c0.5,1.5,2,2.2,2.9,3.5l5.6-31.8c0.5-0.1,0-1.1,0.7-1.2c0.1-0.5-0.3-1-0.4-1.5c-0.1-0.6,0.6-0.8,0.4-1.4
			c-0.2-0.4-0.4-0.4-0.2-0.8c-0.1,0-0.2,0-0.2,0c0-0.2,0.1-0.3,0.2-0.5c-0.1,0-0.2,0-0.4-0.1c-0.1-0.7-1.1-0.7-0.9-1.6
			c-0.1-0.1-0.3-0.2-0.4-0.3c0.4-0.4-0.7-0.6-0.6-1.1c-0.1-0.6,0.5-0.6,0.5-1.3c-0.5-0.8-0.2-1.1-0.8-1.7c-1.2-0.5-1.3-0.8-2.4-1.6
			c-0.6-0.2-1-0.5-1.3-1c-0.5-0.5-1.3-0.7-0.9-1.5l0-8.1c0.3,0.4,0.5,0.2,0.7-0.2c0.4,0,0.4,0.5,0.7,0.1c0.3-0.3,1.2,0,1.5-0.2
			c0.2-0.2,0.4-0.4,0.8-0.4c0.6-0.5,0.6-0.8,1.3,0c0.3-0.1,0.3-1,0.8-0.7c0.6-1.4,1.6,0,2.2,0.6c0.2-0.3,0.7-0.3,0.7,0.1
			c0.1,0.1,0.5,0,0.6,0c0.4,0.1,0.3-0.2,0.6-0.3c0.3-0.1,0.6,0.1,0.9,0c-0.3-0.4-1.3-1.1-0.6-1.5c0.1-0.2-0.4-0.9,0.2-0.8
			c0.2-0.6-0.2-0.6-0.5-0.9c-0.1-0.3,0.2-0.5-0.3-0.7c0.7-1.2-0.9-0.7-1.4-1.4c-0.5-0.2-1.1,1.1-1.3,0.1c-1.1,0.3-2.1-0.4-3.1,0
			c0.2-0.5-0.4-0.5-0.7-0.4c-0.4,0.2-0.5,0.8-0.9,0.3v-7.3c0.2,0.1,0.7,0.4,1,0.3c0.3-0.1,0.3-0.5,0.7-0.5c1.1,0.7,1.4-0.8,2.3-0.3
			c-0.2,0.8,14.8,0.2,15.4,0.4c-0.1-0.2-0.1-0.4-0.1-0.6c-0.2,0-0.4,0-0.6,0c0-0.2,0.1-0.4,0-0.6c-0.2,0-0.4,0-0.6,0
			c0.1-0.8,0.8-1.5,0.9-2.3c0,0.6,0.4,0.7,0.8,0.8c0.1,0.5,0.6,0.5,0.9,0.7c0.2,0.2,0.2,0.7,0.4,1c0.1-0.1,0.1-0.3,0.2-0.4
			c0.3,0.2,0.6,0.3,1,0.4c0.1-0.5-0.5-1.2,0.5-1c0.2-0.6,1.1-0.9,1.2-1.6c0.4,0,0.9,0.1,1.2,0.4c0.1-0.5,0.8-0.5,1-1
			c-0.2-1.3,0.6-0.6,1.3-1c0.1-0.9,2.2-1.3,1,0c-0.1,0.3,0.3,0.3,0.4,0.5c-0.1,0.8-0.2,1.7,0.5,2.3c0.3-0.4,0.4-0.1,0.6,0.2
			c0.8-1,0.2,0.8,1,0.8c0,0.1-0.1,0.2-0.1,0.3c0.9,0.2,0.3,0.6,0.5,1.1c0.3,0.9,0.6,3.2,0.7,4.1c-0.2,0.4-0.9,0-0.9,0.5
			c0.1,0.3,0.5,0.5,0.7,0.8c0.2,0.3,0,0.7,0.1,1c0.8-0.4,1.8-0.4,2.7-0.7C169,132.9,169.1,132.8,169.4,132.3z"/>
		<path class="st0" d="M47,115c0.1,0,0.3,0,0.4,0.1c-0.1-0.3,0-0.7-0.2-0.9C46.7,114.2,46.7,114.7,47,115z"/>
		<path class="st0" d="M47.8,114.4c0.2,0,0.3,0.2,0.3,0.4c0.1-0.3,0.2-0.6,0-0.8c-0.2-0.1-0.3,0.1-0.5,0.1
			C47.5,114.1,47.7,114.4,47.8,114.4z"/>
		<path class="st0" d="M47.7,115c0.1,0.7,0.4,0-0.1-0.3C47.6,114.9,47.6,115,47.7,115z"/>
		<path class="st0" d="M47.5,115.9c0,0.1,0,0.2,0,0.3c0.1-0.1,0.2-0.3,0.4-0.3c0.1-0.1,0.2-0.3,0.1-0.5c-0.1,0.1-0.1,0.5-0.2,0.1
			c-0.2,0.2-0.1-0.1-0.2-0.2C47.3,115.4,47.7,115.7,47.5,115.9z"/>
	</g>
</g>
</svg>
