<?xml version="1.0" encoding="utf-8"?>
<!-- Generator: Adobe Illustrator 26.0.3, SVG Export Plug-In . SVG Version: 6.00 Build 0)  -->
<svg version="1.1" id="Isolation_Mode" xmlns="http://www.w3.org/2000/svg" xmlns:xlink="http://www.w3.org/1999/xlink" x="0px"
	 y="0px" viewBox="0 0 200 200" enable-background="new 0 0 200 200" xml:space="preserve">
<g>
	<path fill="#1E8346" d="M149.875,134.562c0.306-0.57,0.352-0.96,0.382-1.608c0.03-0.658-0.113-1.322-0.114-1.987
		c-0.001-0.371-0.079-0.587-0.183-0.942c-0.134-0.453-0.222-0.407-0.683-0.533c-0.274,0.431-2.3,1.329-1.587,0.247
		c0.343-0.52,0.812-0.53,1.285-0.88c0.351-0.26,0.248-0.575-0.05-0.903c-0.45-0.496-1.166-0.699-1.624-1.215
		c-0.48-0.541-0.608-1.193-0.93-1.797c-0.274-0.514-0.413-0.695-0.219-1.223c0.239-0.648,0.532-0.889,0.49-1.672
		c-0.703,0.277-0.921,0.919-1.547,1.239c-0.323,0.165-0.531,0.187-0.766,0.487c-0.166,0.213-0.251,0.463-0.447,0.653
		c-0.392,0.379-0.697,0.165-0.686-0.381c0.005-0.241,0.212-0.427,0.227-0.624c0.02-0.26-0.171-0.357-0.184-0.593
		c0.798-0.208,1.084-0.581,1.179-1.429c0.064-0.573-0.012-1.471,0.389-1.91c0.288-0.315,1.282-0.409,0.927-1.077
		c-0.152-0.286-0.513-0.198-0.771-0.305c-0.43-0.179-0.188-0.126-0.344-0.544c-0.576,0.089-0.815-0.491-0.808-0.991
		c0.003-0.26,0.108-0.748,0.387-0.862c0.271-0.111,0.386,0.088,0.553,0.282c0.268,0.312,0.435,0.889,0.97,0.736
		c0.412-0.118,0.714-0.529,0.622-0.923c-0.236-0.178-0.439-0.382-0.653-0.593c-0.357-0.354-0.738-0.421-1.252-0.481
		c-0.682-0.08-1.39,0.048-2.061-0.118c-0.838-0.208-1.419-0.89-2.242-1.128c-0.263,0.387-0.621,0.624-0.965,0.936
		c-0.396,0.359-0.73,0.76-1.183,1.05c-0.73,0.467-1.669,0.099-2.467-0.116c-0.394-0.106-0.796-0.364-1.177-0.31
		c-0.373,0.053-0.591,0.308-0.889,0.472c-0.383,0.21-0.929,0.132-1.352,0.1c-1.195-0.093-1.928-0.531-2.094-1.83
		c-0.014-0.106-0.023-0.211-0.03-0.318c-0.026-0.398-0.012-0.804,0.014-1.21c0.034-0.536,0.086-1.073,0.086-1.595
		c0-0.499-0.211-0.876-0.409-1.278c-0.044-0.088-0.087-0.178-0.127-0.271c-0.058-0.134-0.11-0.273-0.148-0.423
		c-0.165-0.65-0.02-1.46,0.307-2.041c0.195-0.345,0.764-0.836,0.639-1.276c-0.061-0.214-0.303-0.348-0.517-0.479
		c-0.1-0.061-0.193-0.122-0.259-0.189c-0.207-0.213-0.201-0.493-0.285-0.707c-0.044-0.111-0.112-0.206-0.249-0.263
		c-0.359-0.151-0.557-0.083-0.895-0.341c-0.309-0.236-0.621-0.491-0.89-0.775c-0.246-0.259-0.347-0.563-0.238-0.919
		c0.072-0.232,0.287-0.365,0.416-0.546c0.025-0.036,0.049-0.072,0.066-0.113c0.235-0.565-0.349-1.157-0.652-1.556
		c-0.218-0.287-0.473-0.631-0.669-0.981c-0.099-0.177-0.183-0.355-0.238-0.528c-0.222-0.086-0.31-0.474-0.434-0.66
		c-0.189-0.286-0.437-0.526-0.623-0.814c-0.165-0.255-0.296-0.538-0.427-0.813c-0.183-0.382-0.369-0.746-0.446-1.164
		c-0.001-0.005-0.002-0.011-0.003-0.016c-0.047-0.266-0.058-0.531-0.112-0.796c-0.069-0.345-0.14-0.698-0.2-1.044
		c-0.056-0.329-0.074-0.645-0.1-0.965c-0.014-0.172-0.03-0.345-0.056-0.522c-0.033-0.228-0.11-0.436-0.199-0.648
		c-0.218-0.522-0.467-1.056-0.648-1.603c-0.063-0.192-0.119-0.386-0.161-0.582c-0.071-0.33,0.081-1.194,0.553-1.131
		c0.074,0.01,0.154,0.036,0.235,0.056c0.098,0.024,0.197,0.038,0.294-0.001c0.122-0.049,0.233-0.205,0.332-0.285
		c0.27-0.221,0.332-0.609,0.602-0.826c0.249-0.2,0.372-0.402,0.513-0.69c0.019-0.039,0.039-0.08,0.059-0.123
		c0.152-0.319,0.268-0.689,0.327-1.037c0.035-0.208,0.07-0.41,0.137-0.611c0.043-0.127,0.14-0.262,0.141-0.396
		c0.002-0.145-0.103-0.346-0.171-0.489c-0.007-0.014-0.014-0.029-0.02-0.041c-0.171-0.375-0.402-0.766-0.685-1.066
		c-0.132-0.14-0.257-0.338-0.417-0.446c-0.102-0.069-0.248-0.117-0.366-0.168c-0.276-0.121-0.56-0.207-0.794-0.404
		c-0.11-0.092-0.19-0.227-0.252-0.379c-0.115-0.283-0.164-0.627-0.202-0.871c-0.043-0.274-0.103-0.553-0.156-0.826
		c-0.039-0.2-0.061-0.394-0.13-0.587c-0.011-0.031-0.025-0.063-0.04-0.095c-0.087-0.189-0.234-0.394-0.388-0.518
		c-0.213-0.171-0.369-0.109-0.596-0.23c-0.41-0.218-0.594-0.919-0.765-1.322c-0.002-0.005-0.004-0.011-0.007-0.016
		c-0.275-0.635-0.076-1.022,0.204-1.603c0.241-0.5,0.433-0.61,0.939-0.811c1.017-0.405,1.838-0.88,2.709-1.533
		c0.374-0.28,0.822-0.3,0.83-0.804c0.001-0.057-0.003-0.116-0.01-0.178c-0.052-0.449-0.299-0.996-0.426-1.395
		c-0.173-0.543-0.55-0.896-0.84-1.368c-0.303-0.493-0.476-1.065-0.548-1.639c-0.104-0.837,0.294-1.587,0.317-2.409
		c0.012-0.414-0.008-0.658-0.155-1.03c-0.151-0.384-0.298-0.832-0.269-1.25c0.039-0.571,0.259-1.221,0.499-1.742
		c0.211-0.459,0.557-0.962,0.926-1.298c0.284-0.258,0.72-0.525,0.898-0.855c-0.103-0.129-0.135-0.452-0.18-0.626
		c-0.095-0.37-0.211-0.78-0.231-1.159c-0.04-0.779-0.084-1.569,0.094-2.335c0.104-0.447,0.19-0.796,0.554-1.089
		c0.135-0.109,0.285-0.219,0.439-0.3c0.204-0.107,0.481-0.148,0.604-0.359c-0.215-0.39-0.114-0.291-0.232-0.71
		c-0.122-0.436-0.411-0.906-0.225-1.369c0.19-0.472,0.682-0.746,1.049-1.052c0.51-0.424,0.678-0.739,0.677-1.39
		c0-0.481,0.001-0.789-0.245-1.198c-0.358-0.597-0.581-1.209-0.715-1.899c-0.143-0.736-0.005-1.558-0.187-2.266
		c-0.099-0.383-0.37-0.679-0.609-1.003c-0.306-0.415-0.631-0.876-0.897-1.315c-0.204-0.336-0.142-0.619-0.098-1.045
		c0.072-0.703,0.21-1.434,0.22-2.139c0.01-0.69-0.381-1.119-0.692-1.702c-0.259-0.486-0.45-1.026-0.635-1.535
		c-0.299-0.821-0.783-1.595-0.783-2.516c-0.188-0.218-0.396-0.418-0.571-0.635c-0.369-0.456-0.577-1.02-0.955-1.462
		c-0.421-0.493-0.945-0.853-1.347-1.376c-0.282-0.367-0.445-0.474-0.849-0.659c-0.881-0.404-1.96-0.553-2.663-1.283
		c-0.231-0.239-0.364-0.552-0.681-0.697c-0.34-0.155-0.802-0.095-1.108-0.326c-0.398-0.3-0.034-0.777-0.488-0.963
		c-0.314-0.129-0.899,0.124-1.204,0.18c-0.278,0.051-0.504,0.089-0.795,0.086c-0.564-0.006-1.053-0.224-1.602-0.297
		c-0.51-0.069-1.1,0.069-1.336-0.468c-0.394-0.899,0.196-2.054-0.355-2.919c-0.425-0.667-1.312-0.884-0.929-1.778
		c0.252-0.589,0.394-1.127,0.125-1.757c-0.263-0.616-0.916-0.91-1.13-1.572c-0.363-1.121-0.472-2.662-1.487-3.291
		c-0.896-0.555-1.958-0.868-2.813-1.488c-0.374-0.271-0.527-0.614-0.782-0.973c-0.296-0.418-0.642-0.444-1.081-0.642
		c-0.502-0.227-0.653-0.392-1.098-0.043c-0.318,0.25-0.674,0.509-0.974,0.777c-0.259,0.232-0.484,0.544-0.639,0.856
		c-0.125,0.252-0.152,0.801-0.404,0.977c-0.266,0.185-0.754-0.018-1.072-0.065c-0.711-0.105-1.42-0.075-2.108,0.148
		c-0.979,0.316-1.358,1.069-2.169,1.612c-0.625,0.418-1.413,0.447-2.093,0.786c-0.642,0.319-0.733,0.677-1.311,0.22
		c-0.504-0.398-1.076-0.695-1.579-1.107c-0.514-0.422-0.982-0.774-1.133-1.436c-0.134-0.587-0.421-1.122-0.569-1.702
		c-0.239-0.932-0.142-2.269,0.542-2.974c0.295-0.304,0.426-0.442,0.318-0.877c-0.101-0.405-0.221-0.824-0.394-1.198
		c-0.211-0.455-0.111-0.966-0.316-1.385c-0.168-0.343-0.602-0.492-0.894-0.698c-0.353-0.249-0.613-0.628-1.061-0.428
		c-0.49,0.22-0.889,0.795-1.257,1.164c-0.338,0.338-0.751,0.53-1.093,0.854c-0.411,0.389-0.707,0.87-1.012,1.343
		c-0.646,1.006-1.174,2.167-1.312,3.351c-0.064,0.545-0.036,1.032-0.421,1.465c-0.398,0.447-0.964,0.662-1.478,0.936
		c-0.976,0.52-0.854,1.777-1.292,2.688c-0.275,0.573-0.805,1.394-1.34,1.752c-0.722,0.483-1.288,0.787-1.686,1.604
		c-0.277,0.569-0.388,1.045-0.852,1.503c-0.358,0.354-0.723,0.746-1.139,1.059c-0.414,0.312-0.867,0.459-1.113,0.94
		c-0.189,0.369-0.518,1.905-0.163,2.222c0.158,0.14,0.434,0.059,0.645,0.084c-0.08,0.723-0.614,1.299-1.114,1.771
		c-0.774,0.732-0.93,1.476-1.386,2.398c-0.489,0.989-0.951,1.732-0.602,2.875c0.331,1.084,0.977,1.894,2.057,2.154
		c0.891,0.215,1.162,1.321,1.454,2.186c0.159,0.47,0.808,0.417,1.109,0.763c0.179,0.206,0.262,0.489,0.327,0.748
		c0.075,0.303,0.208,0.485,0.349,0.762c0.394,0.775,0.032,1.844-0.046,2.665c-0.036,0.38,0.102,1.334-0.357,1.393
		c-0.726,0.092-1.318-0.396-1.935-0.627c-0.436-0.163-0.941-0.162-1.386-0.267c-0.16-0.038-0.256-0.123-0.398-0.178
		c-0.208-0.079-0.347-0.093-0.612-0.075c-0.394,0.875-0.416,1.753-0.416,2.709c0,0.48,0.048,0.907,0.173,1.366
		c0.073,0.267,0.239,0.567,0.258,0.84c-0.177,0.233-0.221,0.72-0.231,1.011c-0.011,0.318,0.137,0.469,0.214,0.758
		c0.142,0.533-0.323,0.577-0.717,0.704c-0.397,0.128-0.792,0.188-0.871,0.661c-0.104,0.618,0.313,0.697,0.484,1.206
		c0.283,0.841-1.071,1.143-0.828,1.998c0.158,0.557,0.836,0.583,1.201,0.972c0.226,0.241,0.264,0.506,0.26,0.831
		c-0.006,0.554-0.266,1.133-0.417,1.663c0.56,0.264,1.279,0.13,1.779-0.254c0.253-0.195,0.259-0.313,0.601-0.317
		c0.38-0.005,0.756,0.042,1.134,0.058c0.771,0.034,1.32,0.121,1.961,0.574c0.495,0.35,1.179,0.532,1.751,0.762
		c0.787,0.317,1.65,0.487,2.252,1.128c0.349,0.371,0.989,1.261,1.455,0.68c0.532,0.414,0.445,1.237,0.416,1.861
		c-0.022,0.464-0.132,0.902-0.467,1.238c-0.352,0.353-0.395,0.191-0.771,0.104c-1.007-0.232,0.109,2.375,0.216,2.829
		c0.122,0.515,0.291,0.811,0.094,1.331c-0.135,0.357-0.655,0.714-0.655,1.085c0,0.19,0.015,0.357-0.043,0.531
		c-0.073,0.219-0.279,0.378-0.363,0.591c-0.125,0.317,0.003,0.825,0.271,1.042c0.38,0.307,1.002,0.477,1.478,0.541
		c0.417,0.056,0.576,0.094,0.528,0.572c-0.032,0.311-0.132,0.629-0.086,0.955c0.035,0.253,0.201,0.409,0.08,0.668
		c-0.086,0.183-0.262,0.292-0.455,0.249c-0.457-0.103-0.382-0.628-0.409-0.975c-0.31,0.573-0.653,1.321-1.138,1.817
		c-0.058,0.06-0.118,0.116-0.181,0.168c-0.709,0.584-1.396,1.052-2.373,0.919c-0.531-0.072-1.06-0.169-1.563-0.349
		c-0.038-0.014-0.076-0.026-0.113-0.041c-0.367-0.141-0.93-0.639-1.324-0.591c-0.449,0.055,0.06,0.998,0.157,1.283
		c0.164,0.479,0.288,0.874,0.674,1.193c0.556,0.459,1.29,0.446,1.85,0.848c0.466,0.334,0.53,0.947,0.437,1.482
		c-0.014,0.079-0.03,0.156-0.05,0.231c-0.139,0.524-0.534,0.973-0.773,1.454c-0.177,0.356-0.317,0.716-0.489,1.064
		c-0.092,0.186-0.192,0.369-0.314,0.546c-0.317,0.46-0.8,0.833-1.322,1.036c-0.394,0.153-0.841,0.348-0.63,0.875
		c0.106,0.264,0.254,0.339,0.255,0.648c0,0.192-0.033,0.346-0.086,0.529c-0.134,0.465-0.397,0.704-0.824,0.919
		c-0.295,0.148-0.714,0.308-1.048,0.172c-0.363-0.148-0.449-0.689-0.832-0.8c0.037,0.589,0.133,0.911,0.576,1.346
		c0.176,0.173,0.518,0.288,0.625,0.523c0.079,0.172,0.042,0.449,0.033,0.633c-0.02,0.43-0.068,0.863-0.106,1.294
		c-0.016,0.18,0.009,0.381-0.034,0.555c-0.051,0.21-0.045,0.421-0.088,0.654c-0.059,0.318,0.144,0.3,0.339,0.492
		c0.197,0.194,0.241,0.447,0.345,0.688c0.195,0.449,0.397,0.515,0.851,0.359c0.437-0.15,0.76-0.267,1.262-0.17
		c0.054,0.01,0.108,0.026,0.161,0.046c0.223,0.083,0.433,0.24,0.617,0.42c0.154,0.151,0.29,0.317,0.399,0.47
		c0.459,0.644,0.799,1.581,0.873,2.406c0.009,0.1,0.015,0.197,0.015,0.293c0.008,0.837-0.475,1.528-0.804,2.271
		c-0.064,0.145-0.14,0.28-0.221,0.414c-0.1,0.163-0.208,0.322-0.321,0.484c-0.155,0.223-0.493,0.391-0.495,0.661
		c-0.001,0.32-0.017,0.517-0.145,0.807c-0.075,0.171-0.157,0.319-0.196,0.498c-0.02,0.094-0.033,0.187-0.044,0.28
		c-0.047,0.424-0.033,0.834-0.357,1.171c-0.014,0.014-0.027,0.029-0.042,0.043c-0.231,0.215-0.839,0.269-0.964,0.484
		c-0.078,0.136,0.04,0.348,0.095,0.461c0.139,0.286,0.263,0.431,0.336,0.749c0.273,1.189,0.24,2.446,0.197,3.671
		c-0.021,0.596-0.028,1.229-0.238,1.788c-0.176,0.467-0.528,0.836-0.711,1.298c-0.139,0.35-0.219,0.511,0.143,0.742
		c0.146,0.093,0.6,0.367,0.771,0.378c0.023-0.215,0.239-0.267,0.387-0.151c0.162,0.127,0.066,0.225,0.108,0.395
		c0.065,0.272,0.285,0.413,0.431,0.676c0.121,0.217,0.047,0.489,0.012,0.72c-0.052,0.341-0.023,0.699-0.065,1.049
		c-0.003,0.028-0.01,0.054-0.015,0.081c-0.078,0.422-0.347,0.696-0.562,1.068c-0.032,0.056-0.092,0.152-0.158,0.264
		c-0.161,0.273-0.36,0.647-0.304,0.816c0.155,0.475,0.564-0.053,0.84-0.499c0.129-0.208,0.228-0.399,0.259-0.46
		c0.235-0.467,0.376-0.964,0.589-1.427c0.187-0.026,0.378-0.023,0.566,0.016c0.33,0.069,0.582,0.23,0.767,0.395
		c0.004,0.496,0.197,0.822,0.357,1.238c0.034,0.089,0.067,0.181,0.096,0.28c0.086,0.295,0.033,0.695-0.014,0.996
		c-0.004,0.025-0.008,0.053-0.012,0.081c-0.04,0.262-0.102,0.643-0.265,0.793c-0.126,0.116-0.333,0.102-0.484,0.146
		c-0.146,0.043-0.281,0.102-0.41,0.17c-0.477,0.255-0.848,0.66-1.25,1.026c-0.259,0.236-0.204,0.171-0.558,0.126
		c-0.229-0.029-0.398,0.024-0.586,0.157c-0.196,0.139-0.767,0.94-1.069,0.501c-0.105-0.152,0.158-0.603,0.167-0.792
		c0.012-0.265-0.048-0.561,0-0.82c0.067-0.359,0.435-0.443,0.404-0.863c-0.021-0.278-0.156-0.519-0.374-0.691
		c-0.152-0.121-0.308-0.192-0.44-0.339c-0.075-0.083-0.146-0.255-0.273-0.232c-0.301,0.053-0.414,0.833-0.634,1.033
		c-0.139,0.127-0.307,0.201-0.489,0.252c-0.154,0.043-0.42,0.003-0.548,0.068c-0.262,0.133-0.236,0.695-0.123,0.929
		c0.169,0.351,0.62,0.285,0.892,0.557c0.232,0.231,0.329,0.579,0.465,0.871c0.1,0.216,0.312,0.513,0.151,0.751
		c-0.115,0.17-0.176,0.055-0.306,0.138c-0.102,0.065-0.204,0.21-0.257,0.323c-0.148,0.32-0.111,1.105,0.037,1.46
		c0.099,0.239,0.401,0.495,0.291,0.801c-0.08,0.222-0.409,0.363-0.605,0.461c-0.373,0.187-0.882,0.326-1.145,0.681
		c-0.159,0.216-0.182,0.557-0.204,0.818c-0.101,1.221-0.062,2.467-0.063,3.689c0,0.728,0.018,1.362-0.371,2.007
		c-0.285,0.472-0.595,0.889-1.009,1.259c-0.446,0.398-1.089,0.839-1.427,1.333c-0.224,0.327-0.129,0.822,0.06,1.148
		c0.238,0.41,0.568,0.692,0.926,0.998c0.372,0.318,0.453,0.679,0.662,1.083c0.15,0.291,0.195,0.644,0.268,0.962
		c0.074,0.321,0.195,0.612,0.308,0.921c0.137,0.375,0.459,0.723,0.767,0.977c0.245,0.203,0.487,0.382,0.572,0.707
		c0.054,0.207-0.036,0.492,0.133,0.653c0.177-0.076,0.081-0.849,0.081-1.032c0-0.21-0.024-0.424,0.044-0.625
		c0.048-0.144,0.09-0.362,0.16-0.489c0.187-0.337,0.904-0.014,1.185,0.079c0.477,0.157,2.115,0.49,1.967,1.136
		c-0.05,0.219-0.197,0.4-0.246,0.62c-0.056,0.253-0.025,0.541-0.011,0.797c0.022,0.432,0.24,0.831,0.239,1.265
		c-0.001,0.191-0.016,0.373-0.059,0.558c-0.036,0.155-0.036,0.335-0.096,0.482c-0.098,0.24-0.375,0.337-0.607,0.335
		c-0.134-0.001-0.33,0.013-0.446-0.071c-0.077-0.057-0.118-0.164-0.167-0.242c-0.115-0.18,0.012-0.427-0.149-0.598
		c-0.076-0.08-0.182-0.075-0.285-0.117c-0.121-0.049-0.176-0.104-0.23-0.22c-0.051-0.108-0.207-0.36-0.368-0.27
		c-0.131,0.074-0.11,0.406-0.276,0.445c-0.078,0.018-0.181-0.128-0.223-0.193c-0.167-0.262-0.32-0.653-0.24-0.969
		c0.023-0.091,0.084-0.159,0.045-0.253c-0.054-0.127-0.212-0.128-0.329-0.103c-0.26,0.056-0.355,0.34-0.257,0.571
		c0.055,0.13,0.146,0.254,0.208,0.382c0.059,0.123,0.098,0.259,0.165,0.378c0.09,0.159,0.189,0.308,0.264,0.477
		c0.03,0.067,0.049,0.113,0.093,0.17c0.037,0.046,0.107,0.079,0.136,0.128c0.045,0.077,0.056,0.224,0.058,0.311
		c0.639,0.558,1.444,0.719,1.988,1.457c0.243,0.329,0.368,0.735,0.626,1.056c0.269,0.335,0.636,0.605,0.975,0.864
		c0.667,0.509,0.821,0.739,0.447,1.494c-0.313,0.63-0.517,1.286-0.278,1.961c0.241,0.679-0.061,1.159,0.003,1.834
		c0.054,0.578,0.044,1.144-0.368,1.576c-0.151,0.159-0.504,0.354-0.566,0.566c-0.078,0.266,0.11,0.273,0.16,0.504
		c0.065,0.298-0.111,1.029-0.336,1.229c-0.65,0.577-1.719-0.762-0.594-1.074c-0.257-0.229-0.519-0.167-0.797-0.322
		c-0.324-0.181-0.486-0.579-0.641-0.897c-0.376-0.767-0.426-1.721-0.85-2.421c-0.531-0.876-1.127-1.893-1.878-2.595
		c-0.523-0.49-1.177-0.823-1.731-1.242c-0.383,0.322-0.982,0.357-1.34,0.684c-0.445,0.408-0.222,0.598,0.059,0.937
		c0.264,0.317,0.459,0.716,0.718,1.061c0.381,0.509,0.925,0.821,1.348,1.285c0.457,0.501,0.697,1.262,0.985,1.871
		c0.275,0.58,0.306,1.054,0.306,1.678c0,0.564,0.025,1.021,0.449,1.456c0.454,0.466,0.991,0.827,1.415,1.333
		c0.443,0.528,0.914,1.04,1.305,1.607c0.361,0.524,0.479,1.165,0.876,1.666c0.657,0.829,1.721,1.109,2.442,1.838
		c0.881,0.891,1.92,1.105,3.034,1.611c0.813,0.37,1.172,1.176,1.99,1.531c0.364,0.159,0.682,0.232,0.997,0.467
		c0.256,0.191,0.487,0.403,0.738,0.589c0.64,0.476,1.387,0.713,2.133,0.942c0.254,0.078,0.584,0.078,0.826,0.201
		c0.246,0.126,0.35,0.359,0.581,0.512c0.225,0.148,0.547,0.1,0.755,0.207c0.221,0.114,0.223,0.243,0.47,0.308
		c0.263,0.07,0.553-0.11,0.764,0.116c0.131,0.14,0.131,0.431,0.136,0.614c0.013,0.485-0.163,0.541,0.251,0.854
		c0.379,0.288,0.402,0.73,0.752,1.031c0.114-0.247,0.025-0.443,0.35-0.505c0.254-0.049,0.488,0.15,0.682,0.285
		c0.378,0.263,0.682,0.578,0.264,0.942c0.467,0.438,0.644,0.1,1.106-0.04c0.584-0.177,0.96,0.032,1.331,0.461
		c0.789,0.912,1.491,1.792,2.135,2.818c0.607,0.967,1.1,1.956,1.48,3.019c0.148,0.415,0.356,0.725,0.686,1.028
		c0.256,0.234,0.503,0.47,0.281,0.833c-0.587,0.057-0.785-0.022-1.051,0.505c-0.095,0.189-0.483,0.616-0.487,0.793
		c-0.002,0.132,0.313,0.564,0.434,0.628c0.367,0.197,0.824-0.159,1.163,0.176c0.11,0.109,0.12,0.262,0.245,0.328
		c0.167,0.088,0.561-0.069,0.711,0.055c0.266,0.219-0.044,0.304,0.067,0.56c0.103,0.236,0.393,0.127,0.571,0.192
		c0.25,0.092,0.313,0.315,0.532,0.415c0.477,0.217,1.234-0.146,1.575,0.313c0.202,0.272,0.266,0.665,0.232,1.002
		c-0.045,0.44-0.4,0.44-0.351,0.899c0.051,0.479,0.353,0.692,0.119,1.209c-0.197,0.435-0.86,0.885-0.91,1.348
		c-0.035,0.33,0.24,0.384,0.329,0.681c0.065,0.216-0.039,0.393-0.067,0.591c-0.063,0.45,0.007,0.748-0.445,0.955
		c-0.325,0.149-0.615,0.179-0.704,0.61c-0.144,0.702,0.519,0.352,0.919,0.381c-0.125,0.952-0.628,1.895-0.62,2.867
		c0.011,1.447,1.056,0.667,1.827,0.51c1.32-0.267,2.675,0.439,3.706,1.128c0.296,0.197,0.609,0.335,0.875,0.572
		c0.217,0.194,0.398,0.442,0.655,0.584c0.394,0.218,1.008,0.41,1.447,0.519c0.848,0.209,1.776,0.259,2.664,0.223
		c0.767-0.031,0.6-0.392,0.758-0.935c0.053-0.182,0.317-0.67,0.477-0.776c0.516-0.344,1.389,0.696,1.739,0.254
		c0.164-0.206-0.042-0.718,0.004-0.972c0.052-0.289,0.218-0.45,0.382-0.666c0.386-0.508,0.898-1.057,1.367-1.509
		c0.314-0.302,1.109-0.632,0.976-1.111c-0.158-0.569-0.569-0.976-0.931-1.416c-0.495-0.602-0.331-0.855-0.141-1.501
		c0.111-0.379,0.053-0.787-0.058-1.164c-0.116-0.394-0.236-0.812,0.394-0.753c0.171,0.016,0.279,0.117,0.434,0.148
		c0.257,0.05,0.537-0.02,0.796,0.005c0.604,0.058,1.051,0.38,1.567,0.657c0.314,0.168,0.864,0.515,1.208,0.448
		c0.43-0.083,0.683-0.479,0.875-0.829c0.39-0.709,0.684-1.657,0.346-2.455c-0.384-0.905-0.926-1.587-1.45-2.404
		c-0.471-0.735-0.839-1.592-1.468-2.207c-0.6-0.586-0.841-0.892-0.843-1.794c-0.001-0.696-0.287-1.209-0.556-1.831
		c-0.221-0.511-0.796-1.36,0.019-1.36c0.892,0,1.965,0.28,2.817,0.012c0.841-0.266,0.725-1.275,1.047-1.959
		c0.284-0.603,0.176-1.474,0.627-2.002c0.229-0.268,0.619-0.449,0.882-0.695c0.235-0.219,0.404-0.509,0.683-0.65
		c0.626-0.318,1.61,0.347,2.163-0.198c0.135-0.133,0.114-0.343,0.279-0.459c0.348-0.244,0.864,0.129,1.201,0.25
		c0.858,0.307,1.653,0.587,2.552,0.454c0.72-0.107,0.978-0.239,1.579-0.585c0.547-0.314,1.175-0.47,1.773-0.649
		c0.426-0.128,0.904-0.355,1.345-0.387c0.019-0.362,0.03-0.741,0.14-1.09c0.121-0.384,0.249-0.739,0.25-1.208
		c0-0.404,0.262-0.676,0.4-1.035c0.157-0.409,0.171-0.864,0.089-1.289c-0.079-0.403-0.41-0.799-0.278-1.186
		c0.122-0.358,0.484-0.432,0.714-0.709c0.279-0.336,0.633-0.739,0.882-1.112c0.282-0.423,0.217-0.933,0.14-1.429
		c-0.132-0.852-0.5-1.814-0.338-2.684c0.08-0.429,0.449-0.594,0.619-0.961c0.11-0.237-0.009-0.545,0.129-0.749
		c0.207-0.305,0.734-0.27,1.02-0.466c0.276-0.189,0.361-0.432,0.423-0.751c0.099-0.516,0.256-0.976,0.528-1.44
		c0.288-0.491,0.836-0.628,0.889-1.244c0.111-1.297-0.262-2.572-0.077-3.855c0.078-0.541,0.966-0.688,1.333-0.967
		c0.499-0.377,0.543-0.968,0.894-1.431c0.159-0.21,0.44-0.341,0.587-0.563c0.117-0.177,0.141-0.404,0.283-0.567
		c0.32-0.368,0.721-0.11,1.191-0.037c0.412,0.064,0.87-0.044,1.259,0.1c0.54,0.199,0.843,0.734,1.456,0.782
		c0.822,0.064,1.596-0.687,1.771-1.452c0.159-0.695-0.307-1.679,0.366-2.124c0.359-0.238,0.865-0.173,1.174-0.464
		c0.227-0.214,0.238-0.514,0.362-0.762c0.253-0.505,0.729-0.696,1.064-1.088c0.19-0.223,0.275-0.518,0.38-0.784
		c0.23-0.586-0.014-1.055,0.097-1.634C149.437,135.347,149.673,134.937,149.875,134.562z"/>
</g>
</svg>
