<?xml version="1.0" encoding="utf-8"?>
<!-- Generator: Adobe Illustrator 26.0.3, SVG Export Plug-In . SVG Version: 6.00 Build 0)  -->
<svg version="1.1" id="Isolation_Mode" xmlns="http://www.w3.org/2000/svg" xmlns:xlink="http://www.w3.org/1999/xlink" x="0px"
	 y="0px" viewBox="0 0 200 200" enable-background="new 0 0 200 200" xml:space="preserve">
<g>
	<g>
		<path fill="#1E8346" d="M196.585,113.162c-0.198-0.474-0.545-0.849-0.91-1.204c-0.362-0.351-0.836-0.574-1.185-0.925
			c-0.304-0.306-0.423-0.791-0.455-1.207c-0.035-0.461,0.191-0.743,0.399-1.123c0.536-0.984,0.264-2.046,0.477-3.105
			c0.08-0.401,0.234-0.91,0.079-1.31c-0.056-0.143-0.21-0.367-0.319-0.475c-0.195-0.193-0.09-0.195-0.408-0.038
			c-0.471,0.232-0.789,0.322-0.949-0.236c-0.135-0.471-0.169-0.982-0.229-1.466c-0.208-1.667-2.068-1.165-3.23-1.239
			c-0.598-0.038-0.725-0.353-1.294,0.027c-0.217,0.145-0.645,0.498-0.939,0.436c-0.204-0.044-0.507-0.451-0.629-0.618
			c-0.289-0.396-0.677-0.716-1.027-1.013c-0.506-0.431-0.747-0.962-0.886-1.604c-0.08-0.366-0.196-0.677-0.32-1.019
			c-0.156-0.429,0.066-0.572,0.451-0.722c0.803-0.313,1.676-0.832,2.333-1.392c0.21-0.179,0.412-0.348,0.575-0.567
			c0.229-0.309,0.305-0.698,0.532-0.999c0.415-0.55,1.33-0.961,0.915-1.821c-0.309-0.643-1.379-0.318-1.951-0.38
			c-0.6-0.065-1.258-0.346-1.841-0.059c-0.375,0.184-0.383,0.324-0.676-0.041c-0.308-0.384-0.399-0.76-0.554-1.24
			c-0.052-0.161-0.117-0.127-0.098-0.283c0.023-0.189,0.253-0.359,0.343-0.52c0.329-0.581-0.296-1.048-0.697-1.442
			c-0.566-0.556-0.951-1.21-1.416-1.842c-0.318-0.433-0.905-1.02-1.03-1.535c-0.603-0.05-1.21,0.023-1.813-0.039
			c-0.507-0.053-0.988-0.143-1.431,0.176c-0.311,0.223-0.473,0.722-0.925,0.602c-0.458-0.121-0.392-0.708-0.395-1.115
			c-0.002-0.35,0.088-1.001,0.121-1.376c0.023-0.253,0.112-0.631,0.026-0.881c-0.09-0.262-0.399-0.383-0.66-0.344
			c-0.205,0.031-0.316,0.187-0.513,0.251c-0.179,0.058-0.396,0.025-0.583,0.025c-0.402,0-0.962-0.041-1.282-0.318
			c-0.166-0.144-0.198-0.434-0.397-0.572c-0.24-0.166-0.626-0.18-0.889-0.06c-0.256,0.117-0.399,0.413-0.655,0.546
			c-0.25,0.129-0.487,0.1-0.767,0.099c-0.235,0-0.747,0.097-0.952,0.003c-0.219-0.1-0.291-0.461-0.471-0.601
			c-0.606-0.472-1.093,0.611-1.693,0.509c-0.215-0.036-0.298-0.331-0.554-0.34c-0.256-0.008-0.41,0.228-0.521,0.428
			c-0.159,0.285-0.499,0.203-0.796,0.114c-0.343-0.103-0.775-0.221-1.097-0.39c-0.559-0.294-1.342-1.237-2.023-0.849
			c-0.295,0.168-0.498,0.459-0.835,0.616c-0.33,0.154-0.686,0.282-1.034,0.39c-0.644,0.2-1.369,0.238-2.033,0.315
			c-0.458-1.104,1.22-1.98,1.103-3.075c-0.077-0.719-0.55-0.873-1.037-1.274c-0.373-0.307-0.599-0.765-0.833-1.188
			c-0.512-0.927-1.681-2.534-0.737-3.512c0.306-0.318,0.738-0.563,1.154-0.641c0.265-0.05,0.509-0.046,0.765-0.163
			c0.574-0.262,0.461-0.977,0.752-1.513c0.356-0.655,0.92-1.067,1.37-1.638c0.413-0.524,0.902-1.046,1.224-1.632
			c0.288-0.526,0.269-0.749-0.266-1.05c-0.357-0.201-1.127-0.309-1.277-0.761c-0.234-0.708,0.84-1.881,1.196-2.404
			c0.419-0.616,1.105-1.399,1.276-2.142c0.213-0.928-0.958-1.147-0.852-2.002c0.061-0.491,0.539-1.367,1.083-1.463
			c0.289-0.051,0.663,0.17,0.946,0.008c0.361-0.207,0.367-1.121,0.341-1.474c-0.059-0.801,0.039-1.161,0.687-1.449
			c0.344-0.152,0.694-0.301,0.572-0.766c-0.091-0.347-0.595-0.539-0.657-0.848c-0.046-0.227,0.219-0.487,0.366-0.633
			c0.229-0.227,0.533-0.379,0.79-0.579c0.286-0.221,0.545-0.501,0.827-0.709c-0.323-0.588-0.9-1.038-1.158-1.659
			c-0.438,0.288-0.888,0.628-1.412,0.676c-0.495,0.045-0.627,0.003-0.74-0.509c-0.125-0.566-0.042-1.106-0.409-1.587
			c-0.447-0.587-0.926-0.655-1.599-0.315c-0.388,0.195-0.761,0.511-1.18,0.633c-0.472,0.137-1.07-0.016-1.532-0.105
			c-0.529-0.103-1.313-0.111-1.789-0.395c-0.317-0.189-0.261-0.497-0.236-0.87c-1.046-0.67-2.653-0.242-3.83-0.43
			c-0.239-0.299-0.415-0.608-0.529-0.984c-0.16-0.525-0.083-1.121-0.083-1.664c0.001-0.733,0.079-1.547-0.532-2.062
			c-0.577-0.486-1.024-0.627-1.402-1.32c-0.318-0.582-0.505-0.924-1.28-0.782c-0.466,0.085-0.734,0.582-1.267,0.535
			c-0.263-0.023-0.475-0.219-0.758-0.25c-0.302-0.033-0.707-0.018-0.992,0.058c-0.365,0.098-0.642,0.28-0.771,0.656
			c-0.093,0.27,0.017,0.573-0.134,0.816c-0.466,0.751-1.789,0.298-2.413,0.205c-0.7-0.104-1.17,0.196-1.791,0.59
			c-1.411-0.137-2.752-0.41-4.17-0.408c-0.592,0.001-1.108,0.103-1.174-0.529c-0.051-0.488,0.124-0.958,0.122-1.45
			c-0.001-0.592,0.055-1.078-0.36-1.544c-0.353-0.396-0.825-0.612-1.372-0.478c-0.986,0.241-1.193,1.736-2.262,0.295
			c-0.358-0.484-0.428-1.113-0.533-1.72c-0.042-0.243-0.089-0.483-0.163-0.707c-0.268-0.817-0.704-1.124-1.364-1.657
			c-0.55-0.444-0.839-0.997-1.247-1.55c-0.229-0.31-0.358-0.781-0.253-1.131c0.117-0.387,0.245-0.733,0.475-1.066
			c0.253-0.366,0.389-0.631,0.439-1.074c0.025-0.217,0.081-0.54,0-0.75c-0.072-0.188-0.257-0.329-0.377-0.484
			c-0.181-0.233-0.279-0.481-0.401-0.744c-0.29-0.626-0.71-1.207-1.331-1.522c-0.215-0.109-0.362-0.329-0.507-0.525
			c-0.26-0.348-0.138-0.863-0.372-1.211c-0.47,0.259-0.819,0.975-1.003,1.47c-0.242,0.655-0.14,1.378-0.321,2.05
			c-0.099,0.366-0.259,0.866-0.518,1.147c-0.217,0.235-0.421,0.494-0.645,0.719c-0.509,0.513-1.451,0.51-1.898,1.07
			c-0.362,0.453-0.334,1.319-0.903,1.563c-0.645,0.276-0.946-0.515-1.21-0.933c-0.436-0.691-1.129-0.418-1.826-0.329
			c-0.476,0.061-0.919-0.053-1.382-0.134c-0.473-0.083-1.017-0.073-1.497-0.046c-0.699,0.04-1.743,0.327-2.244-0.286
			c-0.166-0.203-0.761-0.985-0.444-1.238c0.286-0.228,1.09,0.036,1.382,0.119c0.419,0.12,0.901,0.219,1.332,0.301
			c0.94,0.179,0.84-0.708,1.17-1.285c0.192-0.335,0.594-0.445,0.835-0.74c0.161-0.196,0.142-0.343,0.158-0.598
			c-0.26-0.015-0.562,0.049-0.805-0.032c-0.046-0.548,0.622-1.109,0.342-1.598c-0.278-0.485-0.813-0.101-1.191-0.256
			c-0.557-0.229-0.815-1.09-1.29-1.447c-0.923-0.694-2.138-0.174-2.927,0.467c-0.68,0.553-0.756,1.472-1.546,1.878
			c-0.258,0.132-0.586,0.234-0.711,0.506c-0.138,0.299-0.104,0.686-0.262,0.999c-0.169,0.334-0.487,0.531-0.668,0.849
			c-0.128,0.224-0.149,0.488-0.188,0.74c-0.141,0.933-0.02,1.182-1.042,1.194c-0.284,0.003-0.527,0.021-0.803-0.053
			c-0.264-0.07-0.494-0.248-0.765-0.326c-0.403-0.116-0.726-0.01-1.107-0.016c-0.334-0.005-0.467-0.292-0.759-0.401
			c-0.327-0.121-0.791-0.09-1.123-0.02c-0.36,0.076-1.02,0.508-1.346,0.111c-0.358-0.436,0.096-1.675,0.276-2.14
			c0.197-0.507,0.641-1.387,0.401-1.94c-0.218-0.503-0.824-0.306-1.188-0.115c-0.255,0.134-0.539,0.231-0.833,0.191
			c-0.322-0.043-0.505-0.225-0.805-0.064c-0.441,0.238-0.352,0.409-0.867,0.426c-0.593,0.019-0.919,0.298-1.266,0.742
			c-0.293,0.376-0.614,0.81-1.053,1.02c-0.445,0.212-0.952,0.222-1.425,0.296c-0.035,0.344,0.305,0.436,0.44,0.696
			c0.163,0.314,0.097,0.759,0.046,1.091c-0.04,0.259-0.116,0.513-0.228,0.751c-0.011,0.023-0.202,0.303-0.197,0.385
			c0.015,0.235,0.36,0.469,0.513,0.63c0.24,0.254,0.469,0.518,0.694,0.786c0.312,0.371,0.719,0.85,0.855,1.317
			c0.079,0.272,0.16,0.838,0.014,1.099c-0.188,0.334-1.272,0.471-1.614,0.556c-0.56,0.138-1.084,0.18-1.653,0.18
			c-0.396,0-0.411,0.062-0.636-0.219c-0.236-0.294-0.341-0.606-0.487-0.955c-0.17-0.407-0.27-0.418-0.715-0.433
			c-0.587-0.02-1.175,0.002-1.762,0.023c-0.665,0.024-1.431,0.001-2.063,0.177c-0.128,0.262-0.166,0.88,0.153,1.034
			c0.245,0.118,0.417-0.22,0.577-0.366c1.07,0.741,1.551,2.108,2.266,3.154c0.234,0.342,0.339,0.758,0.57,1.101
			c0.185,0.276,0.449,0.486,0.701,0.697c0.309,0.261,0.778,0.352,1.038,0.619c-0.208,0.161-0.522,0.209-0.73,0.387
			c0.074,0.105,0.797,0.617,0.79,0.708c-0.02,0.264-0.41,0.052-0.596,0.066c-0.139,0.01-0.211,0.038-0.232,0.086
			c-0.048,0.108,0.131,0.287,0.158,0.314c0.29,0.289,0.798,0.169,1.771,0.113c1.334-0.077,1.605,0.076,1.659,0.221
			c0.022,0.06,0.022,0.15,0.016,0.181c-0.035,0.166-0.16,0.299-0.189,0.472c-0.036,0.209,0.001,0.482,0.033,0.683
			c0.047,0.294,0.219,0.635,0.069,0.926c-0.238,0.46-0.967,0.399-1.397,0.404c-0.415,0.004-0.838,0.07-1.245,0.059
			c-0.652-0.017-1.243-0.799-1.733-1.167c-0.436-0.327-1.047-0.204-1.406-0.659c-0.43-0.547,0.122-0.864,0.373-1.35
			c0.095-0.183,0.136-0.311,0.096-0.527c-0.122-0.653-1.152-0.707-1.621-1.111c-0.733-0.63-1.274-1.886-1.611-2.748
			c-0.207-0.529-0.029-1.48-0.654-1.756c-0.442-0.195-0.889,0.542-1.169,0.861c-0.386,0.439-0.655,0.939-0.755,1.522
			c-0.101,0.59,0.022,1.25-0.336,1.758c-0.356,0.505-0.794,0.868-1.355,1.095c-0.556,0.225-0.903,0.615-1.437,0.9
			c-0.589,0.314-1.215,0.544-1.78,0.907c-0.471,0.303-0.894,0.6-1.409,0.837c-0.664,0.305-1.364,0.297-2.085,0.247
			c0.099,0.241-0.834,0.557-1.083,0.729c-0.349,0.24-0.606,0.57-0.849,0.925c-0.165,0.241-0.241,0.483-0.522,0.634
			c-0.089,0.048-0.606,0.278-0.696,0.273c-0.531-0.025-0.885-1.055-1.44-0.228c-0.504,0.753-0.895,1.676-1.967,1.256
			c-0.141-0.48,0.615-0.705,0.586-1.144c-0.051-0.782-1.472,0.108-1.75,0.204c-0.269,0.094-0.617,0.17-0.991,0.21
			c-1.308,0.139-2.937-0.169-2.618-1.737c0.085-0.418,0.701-1.501,0.337-1.923c-0.208-0.24-0.634-0.059-0.908-0.107
			c-0.325-0.057-0.504-0.245-0.787-0.418c-0.82-0.502-1.721-0.195-2.558-0.575c-0.552-0.25-1.036-1.005-1.622-1.128
			c-0.835,0-1.733,0.069-2.49-0.322c-0.415-0.215-0.881-0.553-1.264-0.82c-0.185-0.129-0.525-0.524-0.814-0.363
			c-0.729,0.406,0.744,1.595-0.724,1.343c-0.371-0.064-0.551-0.466-0.889-0.526c-0.359-0.064-0.748,0.362-1.067,0.498
			c-1.175,0.5-0.3,1.636-0.256,2.561c0.029,0.621-0.144,0.596-0.681,0.548c-0.622-0.055-1.045,0.159-1.635,0.304
			c-0.286,0.071-0.691,0.163-0.979,0.058c-0.4-0.145-0.173-0.261-0.442-0.567c-0.185-0.21-0.478-0.18-0.73-0.297
			c-0.295-0.137-0.421-0.321-0.628-0.537c-0.34-0.354-0.937-0.822-1.187-1.25c-0.087-0.148-0.097-0.381-0.165-0.546
			c-0.132-0.321-0.395-0.562-0.489-0.897c-0.172-0.611,0.059-1.325,0.13-1.93c0.071-0.606,0.115-1.18,0.115-1.799
			c0-0.465-0.043-0.914-0.081-1.376c-0.037-0.446-0.267-0.904-0.245-1.344c-0.987,0.074-2.157,0.425-3.062,0.786
			c-0.772,0.307-1.594,0.37-2.387,0.618c-0.727,0.227-1.406,0.552-2.124,0.797c-1.561,0.535-2.955,1.374-4.432,2.103
			c-1.248,0.617-2.097,1.748-3.567,1.947c-0.298,0.319-0.829,0.479-1.203,0.703c-0.543,0.325-1.095,0.629-1.627,0.974
			c-0.937,0.609-1.8,1.265-2.77,1.819c-1.277,0.729-2.508,1.546-3.77,2.298c-0.638,0.38-1.209,0.86-1.84,1.245
			c-0.45,0.274-0.931,0.491-1.35,0.814c-1.514,1.17-3.201,2.192-4.878,3.098c-1.471,0.794-3.033,1.416-4.494,2.221
			c-0.627,0.345-1.268,0.647-1.887,1.004c-0.475,0.274-1.912,0.417-1.93,0.947C4.602,55.25,5.579,56.08,5.7,57.114
			c0.075,0.643-0.181,1.274,0.099,1.897c0.142,0.317,0.371,0.562,0.492,0.894c0.124,0.338,0.168,0.687,0.305,1.023
			c0.153,0.378,0.346,0.842,0.585,1.166c0.319,0.432,0.844,0.464,1.333,0.548c0,0.916,0.122,1.933,0.122,2.838
			c0,0.529,0.131,0.972-0.409,1.195c-0.57,0.235-0.907,0.266-1.304,0.761c-0.307,0.383-0.388,0.696-0.285,1.195
			c0.112,0.546,0.584,1.067,0.47,1.638c-0.056,0.28-0.225,0.523-0.278,0.808C6.772,71.39,6.8,71.728,6.8,72.05
			c0,0.704,0.033,1.275,0.298,1.922c0.114,0.279,0.141,0.504,0.384,0.704c0.31,0.254,0.828,0.13,1.111,0.391
			c0.309,0.287,0.202,1.004,0.572,1.217c0.327,0.188,0.77-0.07,0.992-0.282c0.242,0.078,0.571,0.159,0.743,0.332
			c0.095,0.097,0.117,0.292,0.224,0.38c0.296,0.241,0.876,0.064,1.237,0.13c0.53,0.098,0.473,0.345,0.477,0.833
			c0.006,0.737,0.042,1.061,0.653,1.565c0.292,0.241,0.624,0.402,0.926,0.6c0.459,0.3,0.348,0.595,0.664,0.949
			c0.356,0.399,0.366,1.048,0.644,1.426c0.151,0.204,0.326,0.428,0.428,0.656c0.117,0.259,0.071,0.587,0.172,0.834
			c0.313,0.761,1.497,0.295,2.118,0.222c0.361-0.042,0.787-0.147,1.025,0.207c0.175,0.26,0.048,0.634,0.209,0.919
			c0.175,0.309,0.611,0.693,0.868,0.94c0.222,0.214,0.516,0.382,0.853,0.305c0.459-0.106,1.245-1.213,1.465-1.675
			c0.403-0.847,0.121-2.012,0.915-2.745c0.495-0.457,1.137-0.141,1.721-0.27c0.555-0.122,1.159-0.609,1.663-0.889
			c0.559-0.31,1.192-0.377,1.722-0.721c0.257-0.167,0.429-0.424,0.744-0.431c0.413-0.01,0.794,0.332,1.236,0.319
			c0.665-0.018,0.84-0.62,1.321-0.954c0.491-0.341,1.219-0.397,1.798-0.438c0.155,0.433,0.23,0.704,0.504,1.075
			c0.207,0.279,0.34,0.497,0.436,0.836c0.103,0.364,0.141,0.686,0.305,1.028c0.145,0.303,0.357,0.562,0.48,0.878
			c0.286,0.736,0.012,1.96,0.648,2.477c0.662,0.538,1.875,0.603,2.679,0.66c0.23,0.451,0.156,1.166-0.057,1.603
			c-0.309,0.635-0.084,0.884-0.075,1.548c0.008,0.577-0.246,0.671-0.041,1.238c0.153,0.423-0.157,0.804-0.019,1.175
			c0.079,0.212,0.381,0.352,0.484,0.56c0.165,0.331,0.134,0.777,0.222,1.129c0.141,0.569,0.595,0.891,0.778,1.425
			c0.285,0.832-0.322,2.495,0.408,3.1c0.003,0.367,0.112,0.614,0.143,0.983c0.038,0.455,0.062,0.985,0.213,1.416
			c0.384,1.093,1.496,1.069,2.275,1.755c0.517,0.456,1.016,0.912,1.707,1.065c0.606,0.134,1.123-0.289,1.651-0.577
			c0.419-0.228,0.713-0.331,1.204-0.286c0.377,0.035,0.699,0.172,0.993-0.064c0.639-0.513,0.591-1.28,1.563-1.359
			c0.572-0.046,2.675,0.005,2.258,1.06c-0.241,0.61-1.134,0.797-0.88,1.59c0.557,0.148,0.728-0.001,1.19-0.362
			c0.504-0.393,1.099-0.436,1.564,0.097c0.256,0.295,0.245,0.896,0.758,0.919c0.551,0.025,0.848-0.977,1.35-0.716
			c0.262,0.137,0.475,0.651,0.612,0.899c0.221,0.4,0.367,0.678,0.735,0.969c0.614,0.486,0.796,0.823,0.795,1.628
			c-0.001,0.728-0.103,1.256,0.212,1.945c0.215,0.471,0.354,0.834,0.399,1.358c0.052,0.612-0.255,1.292-0.375,1.856
			c-0.179,0.84-0.303,2.075,0.1,2.85c0.32,0.614,0.603,1.345,1,1.902c0.328,0.461,0.772,0.797,1.354,0.653
			c0.015-0.626-0.174-1.55,0.28-2.06c0.57-0.64,1.811-0.92,2.592-1.115c0.389-0.098,0.881-0.148,1.288-0.078
			c0.068,0.012,0.19-0.034,0.246-0.009c0.167,0.076,0.197,0.361,0.39,0.443c0.406,0.174,1.037-0.128,1.454-0.16
			c0.266-0.021,0.556,0.052,0.826,0.178c0.273,0.127,0.525,0.307,0.712,0.499c0.603,0.619,1.584,1.035,2.364,0.459
			c0.35-0.259,0.695-0.446,1.073-0.664c0.197-0.113,0.376-0.277,0.597-0.345c0.364-0.113,0.789,0.013,1.163,0.03
			c0.542,0.024,0.83-0.164,1.297-0.409c0.344-0.18,0.747-0.38,1.151-0.291c0.46,0.102,0.643,0.524,0.89,0.872
			c0.353,0.496,0.674,0.675,1.182,0.932c0.637,0.322,0.679,1.194,1.276,1.606c0.491,0.338,1.194,0.32,1.476,0.914
			c0.143,0.303,0.121,0.657,0.135,0.984c0.017,0.376,0.094,0.576,0.292,0.9c0.334,0.547,0.281,1.083,0.46,1.676
			c0.463,0.039,0.879-0.027,1.212-0.332c0.549-0.503,0.089-1.209,0.389-1.774c0.456,0.118,0.798,0.533,1.238,0.695
			c0.468,0.172,0.867,0.286,0.988,0.826c0.113,0.506,0.056,1.087-0.326,1.459c-0.314,0.306-0.736,0.406-1.026,0.75
			c-0.066,0.426-0.334,0.749-0.617,1.059c-0.16,0.174-0.298,0.361-0.468,0.519c-0.134,0.125-0.38,0.222-0.469,0.386
			c-0.163,0.298-0.056,0.885-0.038,1.203c0.023,0.433,0.06,0.863,0.094,1.292c0.058,0.72-0.115,1.281-0.584,1.846
			c-0.444,0.536-1.495,0.811-1.224,1.643c0.06,0.185,0.155,0.502,0.308,0.589c0.148,0.085,0.605,0.012,0.801-0.001
			c0.333-0.023,0.479-0.136,0.74-0.272c0.316-0.165,0.749-0.164,1.093-0.127c0.604,0.064,1.002,0.132,1.007,0.757
			c0.008,1.182,0.533,2.075,1.091,3.093c0.237,0.433,0.466,0.973,0.349,1.486c-0.113,0.494-0.654,0.652-1.092,0.755
			c-0.337,0.08-0.62,0.123-0.91,0.352c-0.177,0.139-0.289,0.365-0.478,0.488c-0.395,0.259-1.404-0.133-1.499,0.413
			c-0.075,0.428-0.137,0.873-0.307,1.261c-0.081,0.184-0.202,0.366-0.244,0.566c-0.091,0.437,0.318,0.761,0.6,1.061
			c0.278,0.296,0.256,0.439,0.256,0.864c0,0.199-0.071,0.571,0.06,0.741c0.235,0.305,0.83,0.134,1.084,0.413
			c0.168,0.184,0.219,0.552,0.365,0.77c0.077,0.115,0.159,0.242,0.238,0.35c0.681,0.92,1.883,0.803,2.896,0.742
			c0.699-0.042,1.431-0.147,2.021-0.543c0.44-0.296,0.697-0.407,1.183-0.092c1.217,0.788,2.572,1.651,4.081,1.443
			c0.598-0.083,1.041-0.079,1.615,0.102c0.635,0.2,1.193,0.321,1.861,0.331c0.551,0.008,1.223-0.257,1.771-0.383
			c0.445-0.102,0.854-0.155,1.227-0.451c0.292-0.231,0.385-0.591,0.639-0.843c0.364-0.361,0.758-0.244,1.194-0.333
			c0.302-0.062,0.618-0.335,0.829-0.559c0.228-0.242,0.398-0.575,0.695-0.74c0.311-0.172,0.602-0.07,0.941-0.08
			c0.562-0.017,1.059-0.066,1.571-0.299c0.472-0.215,0.866-0.317,1.398-0.313c0.511,0.005,0.458-0.25,0.458-0.695
			c0-0.442,0.033-0.845,0.089-1.28c0.076-0.589,0.406-0.992,0.564-1.535c0.183-0.629,0.025-1.207-0.102-1.813
			c-0.268-1.274,0.252-2.851,1.3-3.645c0.501-0.38,1.066-0.591,1.508-1.06c0.354-0.376,0.61-0.777,0.848-1.231
			c0.404-0.77,1.034-1.178,1.575-1.836c0.466-0.566,0.575-1.14,1.115-1.607c0.271-0.234,0.798-0.331,1.075-0.122
			c0.324,0.244,0.258,0.648,0.258,1.005c0,0.374-0.04,0.485,0.347,0.602c0.48,0.144,0.948-0.103,1.4,0.028
			c0.435,0.126,0.565,0.37,0.64,0.785c0.088,0.486,0.091,0.669-0.262,1.054c-0.522,0.571-0.279,0.857-0.258,1.607
			c0.014,0.535,0.14,1.271,0.007,1.786c-0.672,0.138-0.575-1.062-1.148-1.01c-0.484,0.044-0.386,1.762-0.644,2.194
			c-0.104,0.176-0.187,0.246-0.35,0.378c-0.192,0.156-0.617,0.313-0.761,0.49c-0.299,0.368,0.083,1.101,0.264,1.459
			c0.167,0.33,0.439,0.482,0.647,0.739c0.065,0.08,0.15,0.046,0.116,0.235c-0.074,0.418-0.947,0.526-0.917,0.992
			c0.021,0.34-0.287,0.552-0.334,0.894c-0.045,0.333,0.003,0.666-0.055,1.003c-0.109,0.631-0.085,1.079-0.687,1.444
			c-0.632,0.383-0.882,0.744-0.507,1.469c0.204,0.394,0.439,0.705,0.882,0.727c0.478,0.025,1.211-0.236,1.62,0.031
			c0.334,0.217,0.584,0.764,0.796,1.098c0.13,0.205,0.274,0.466,0.452,0.629c0.258,0.237,0.665,0.296,0.923,0.476
			c0.612,0.426,0.326,0.886,0.107,1.588c-0.186,0.594-0.551,0.84-0.899,1.333c-0.303,0.43-0.489,0.835-0.525,1.383
			c-0.02,0.312-0.164,1.535,0.093,1.779c0.139,0.132,0.423,0.014,0.56,0.166c0.224,0.249,0.09,0.797,0.12,1.113
			c0.056,0.608,0.354,1.349,0.056,1.919c-0.24,0.459-0.97,0.812-0.384,1.268c0.52,0.405,0.536-0.219,0.808-0.535
			c0.288-0.334,0.274,0.014,0.592,0.23c0.419,0.284,1.014,0.253,1.493,0.252c0.137,0,0.391,0.047,0.515-0.003
			c0.202-0.084,0.367-0.392,0.549-0.52c0.339-0.24,1.002-0.538,1.423-0.541c0.548-0.005,0.849,0.487,1.337,0.637
			c0.312,0.428,0.829,0.648,1.241,0.948c0.387,0.283,0.689,0.66,1.08,0.943c0.699,0.506,1.57,0.795,2.419,0.947
			c0.74,0.132,0.999,0.639,1.442,1.202c0.389,0.495,0.428,0.874,0.426,1.528c-0.001,0.223,0.032,0.449,0.112,0.651
			c0.101,0.253,0.277,0.469,0.556,0.595c0.573,0.257,0.515-0.425,0.955-0.591c0.799-0.302,0.707,0.575,0.733,1.02
			c0.015,0.265,0.051,0.563,0.235,0.773c0.273,0.311,0.645,0.19,0.988,0.307c0.239-0.28,0.38-0.537,0.675-0.78
			c0.137-0.113,0.355-0.342,0.582-0.205c0.157,0.094,0.145,0.433,0.242,0.59c0.226,0.365,0.852,0.609,1.277,0.577
			c0.341-0.026,0.501-0.239,0.754-0.421c0.177-0.128,0.279-0.136,0.471-0.227c0.637,0.374,1.268,0.833,1.87,1.264
			c0.343,0.245,0.73,0.579,0.936,0.955c0.127,0.233,0.267,0.827,0.079,1.032c-0.071,0.383-0.388,0.509-0.568,0.831
			c-0.15,0.268-0.19,0.58-0.25,0.875c-0.077,0.378-0.146,0.849,0.005,1.22c0.151,0.368,0.485,0.393,0.857,0.312
			c0.379-0.082,0.498-0.394,0.66-0.712c0.145-0.284,0.322-0.874,0.747-0.784c0.151,0.032,0.254,0.214,0.374,0.322
			c0.276,0.247,0.619,0.479,0.958,0.63c0.364,0.163,0.986,0.052,1.287,0.274c0.192,0.141,0.292,0.506,0.433,0.7
			c0.3,0.413,0.667,0.836,0.857,1.305c0.281,0.694,0.278,1.48,0.514,2.186c0.154,0.462,0.38,1.04,0.857,1.243
			c0.195,0.084,0.481,0.052,0.581,0.249c0.122,0.24-0.105,0.905-0.164,1.167c-0.127,0.564-0.433,1.145,0.102,1.63
			c0.523,0.474,1.598,0.398,2.151,0.028c0.539-0.361,1.03-0.695,1.5-1.134c0.568-0.53,1.328-0.995,2.074-0.494
			c0.79,0.529,0.859,1.792,1.999,1.327c0.05-0.02,0.133,0.018,0.178-0.014c0.15-0.107,0.193-0.531,0.212-0.675
			c0.037-0.273,0.015-0.548,0.041-0.822c0.077-0.833,0.399-1.009,1.196-1.281c0.525-0.179,1.01-0.432,1.585-0.292
			c0.432,0.105,0.815,0.382,1.256,0.417c0.634,0.05,1.285,0.011,1.873-0.246c0.534-0.234,1.021-0.55,1.568-0.764
			c0.336-0.131,1.313-0.325,1.642-0.182c0.137,0.06,0.47,0.007,0.611,0.076c0.04,0.019,0.094,0.087,0.123,0.098
			c0.259,0.1,0.397-0.043,0.605-0.249c0.353-0.35,0.696-0.753,1.084-1.065c0.315-0.253,0.864-0.572,0.988-0.964
			c0.207-0.654-0.687-0.417-1.044-0.423c-0.146-0.31-0.122-0.707,0.049-1.007c0.25-0.438,0.847-0.595,1.238-0.881
			c0.373-0.273,0.736-0.542,1.119-0.786c0.039-0.582,0.198-1.1,0.204-1.685c0.005-0.509,0.113-0.949,0.225-1.432
			c0.09-0.385,0.113-0.654-0.147-0.963c-0.158-0.187-0.651-0.659-0.845-0.369c-0.484-0.053-0.985-0.191-1.119-0.648
			c-0.109-0.372-0.031-0.808,0.1-1.153c0.141-0.373,0.42-0.74,0.44-1.147c0.044-0.907-0.701-0.68-1.337-0.761
			c-0.424-0.054-0.765-0.119-1.035-0.449c-0.45-0.548-0.574-1.324-0.729-1.983c-0.156-0.66-0.402-1.096-0.817-1.615
			c-0.198-0.247-0.368-0.518-0.566-0.763c-0.252-0.312-0.63-0.513-0.859-0.818c-0.532-0.185-0.677-1.528-0.694-1.996
			c-0.012-0.362-0.001-0.732-0.071-1.082c-0.1-0.505-0.432-0.895-0.64-1.353c-0.159-0.348-0.519-1.66-0.19-1.977
			c0.216-0.208,0.481,0.151,0.655,0.092c0.302-0.101,0.308-0.612,0.284-0.857c-0.437-0.024-1.032-0.007-1.344-0.373v-0.712
			c-0.07,0.039-0.119,0.033-0.147-0.02c0.486-0.423,0.787-1.025,0.965-1.643c0.099-0.345,0.218-0.437,0.376-0.732
			c0.216-0.404,0.038-0.829,0.069-1.242c0.039-0.513,0.356-0.605,0.697-0.92c0.35-0.323,0.46-0.81,0.74-1.184
			c0.272-0.364,0.515-0.539,0.954-0.603c0.508-0.073,0.729,0.012,1.013-0.523c-0.306-0.432-0.788-0.707-0.875-1.26
			c-0.058-0.37-0.003-0.99,0.206-1.31c0.433-0.662,1.637-0.428,1.795-1.394c0.092-0.563,0.229-1.205,0.067-1.8
			c-0.084-0.306-0.415-0.614-0.364-0.946c0.049-0.319,0.471-0.571,0.704-0.758c0.377-0.302,0.598-0.49,0.788-0.965
			c0.243-0.608,0.487-1.217,0.743-1.813c0.197-0.461,0.584-0.619,1.054-0.744c0.373-0.099,1.053-0.025,1.339-0.263
			c0.861-0.719,0.09-2.292,0.061-3.16c-0.023-0.665,1.047-0.692,1.542-0.76c0.334-0.046,0.572-0.12,0.861-0.279
			c0.191-0.105,0.56-0.303,0.794-0.282c0.395,0.036,0.314,0.389,0.421,0.67c0.098,0.254,0.282,0.443,0.504,0.592
			c0.544,0.365,1.544,1.139,2.143,0.524c0.562-0.577,0.569-1.53,1.57-1.302c0.561,0.127,1.017,0.762,0.861,1.348
			c-0.071,0.266-0.31,0.445-0.206,0.746c0.149,0.432,0.829,0.503,1.21,0.495c0.766-0.017,1.204-0.709,0.851-1.438
			c-0.181-0.373-0.705-0.458-0.798-0.797c-0.084-0.307,0.292-0.804,0.527-0.966c0.355-0.243,0.8-0.183,1.19-0.29
			c0.406-0.111,0.665-0.402,0.824-0.794c0.174-0.43,0.125-0.955-0.259-1.254c-0.163-0.127-0.355-0.157-0.496-0.315
			c-0.116-0.129-0.127-0.309-0.224-0.444c-0.075-0.104-0.243-0.159-0.317-0.265c-0.193-0.277-0.112-0.607,0.054-0.903
			c0.339-0.601,0.995-0.401,1.525-0.69c0.69-0.377,0.493-1.113,0.48-1.817c0.988-0.087,1.823,0.204,2.743-0.37
			c0.41-0.256,0.866-0.471,1.228-0.791c0.25-0.221,0.227-0.409,0.146-0.766c-0.059-0.261-0.211-0.466-0.105-0.76
			c0.079-0.218,0.312-0.402,0.427-0.601c0.137-0.238,0.187-0.509,0.273-0.766c0.157-0.468,0.401-0.654,0.839-0.852
			c0.569-0.258,0.684,0.005,1.12,0.345c0.134,0.105,0.189,0.167,0.333,0.245c0.177,0.097,0.435,0.109,0.63,0.154
			c0.592,0.136,1.016-0.32,1.478-0.673C196.637,114.14,196.804,113.686,196.585,113.162z"/>
		<path fill="#1E8346" d="M90.307,36.135c-0.131-0.372-0.403-0.448-0.845-0.742c0.174,0.92,0.249,1.993,0.736,2.809
			c0.377,0.632,1.048,0.975,1.629,1.394c0.079,0.057,0.335,0.344,0.415,0.32c0.191-0.058,0.117-0.65,0.079-0.779
			c-0.134-0.452-0.468-0.863-0.677-1.279c-0.071-0.142-0.136-0.398-0.287-0.479c-0.073-0.039-0.197-0.002-0.281-0.015
			c-0.242-0.037-0.465-0.166-0.703-0.225C90.401,36.824,90.414,36.438,90.307,36.135z"/>
		<path fill="#1E8346" d="M93.535,42.198c-0.106-0.218-0.359-0.341-0.525-0.509c-0.1-0.102-0.32-0.261-0.381-0.545
			c-0.303,0.373-1.188,0.559-0.572,1.139c0.299,0.282,0.683,0.404,1.001,0.657c0.262,0.208,0.442,0.384,0.766,0.483
			c0.249,0.076,0.5,0.081,0.76,0.111c0.377,0.043,0.867,0.237,1.238,0.077c0.315-0.136,0.316-0.386,0.356-0.68
			c0.083-0.605,0.071-0.596,0.058-0.631c-0.143-0.392-0.859-0.558-1.388-0.401c-0.264,0.078-0.545,0.256-0.523,0.376
			c0.031,0.168,0.631,0.081,0.83,0.44c0.019,0.033,0.078,0.14,0.037,0.227c-0.063,0.136-0.324,0.129-0.681,0.119
			c-0.356-0.009-0.539-0.017-0.714-0.153c-0.037-0.029-0.141-0.112-0.206-0.255C93.503,42.459,93.613,42.359,93.535,42.198z"/>
	</g>
</g>
</svg>
