<?xml version="1.0" encoding="utf-8"?>
<!-- Generator: Adobe Illustrator 26.0.3, SVG Export Plug-In . SVG Version: 6.00 Build 0)  -->
<svg version="1.1" id="Isolation_Mode" xmlns="http://www.w3.org/2000/svg" xmlns:xlink="http://www.w3.org/1999/xlink" x="0px"
	 y="0px" viewBox="0 0 200 200" style="enable-background:new 0 0 200 200;" xml:space="preserve">
<style type="text/css">
	.st0{fill:#1E8346;}
</style>
<g>
	<g>
		<path class="st0" d="M176.4,53.2c-0.6-0.1-1.1-0.5-1.6-1c-0.5,0-0.8-0.1-1.1-0.4c-0.4-0.3-0.6,0.1-1,0.1c-0.3,0-0.4-0.3-0.7-0.3
			c-1.1-0.1-2.8,0.1-3.5-1.1c-0.2-0.5-0.3-1-0.9-1.1c-1-0.2-1.5,0.5-2.3,0.8c-1-0.1-2.3,0.3-3.1-0.2c-0.1-0.6,0-1.3-0.9-1.4
			c-2.6-0.8-1.4,1.2-3,0.8c-0.5,0-0.4-0.5-0.4-0.9c-0.8-0.8-1-2.1-1.9-2.8c0.1-0.5,0.2-1-0.4-1.3c-0.4-0.9-1.2-1-2.1-0.9
			c-1.5-0.9-2.6-1.5-4,0.1c-0.6,0.6-1-0.2-1.4-0.7c-0.3-0.3-0.7-0.1-1-0.3c-0.4-0.2-0.6-1-1.1-1c-0.3,0-0.5,0.4-0.8,0.4
			c-0.4,0-0.7-0.5-1.2-0.4c-0.3,0.4-0.8,0.1-1.2,0.4c-0.6,0.5-1.2,0.1-1.5-0.5c-0.2-0.3-0.6-1.1-1-1.1c-0.4,0.1-0.8,0.1-0.7-0.5
			c0-0.9-0.9-1-1.6-1.1c-0.7-0.7-1.3-1.4-2.2-1.8c-4.8-1.3,0-2.4-2.8-3.4c-0.5-0.4,0.1-0.9,0.2-1.3c0-0.5-0.2-1.1,0.1-1.5
			c0.6-0.4,1.2-1.4,0-1.4c-0.9,0.2-0.9,1.2-1.8,1.5c-0.7,0.8,0.7,1.9-1.3,2.1c-1.6,1-2.6,0.5-4.2,0.1c-0.8,0.4-1.2,0.3-1.5-0.5
			c-0.7-1,0.7-1.1,0.6-1.9c0.1-0.8-1.1-0.8-0.6-1.6c-0.2-0.9,1.1-1.2,0.8-2c-0.2-0.5-0.7,0.1-1-0.2c-0.4-0.4-0.6-0.9-0.9-1.3
			c-0.9-0.9-2,0.7-3,0c-1.2-1.1-1.6,1.9-2.1,0.1c-0.3-1.2,0.1-3.4-1.9-3.1c-0.1-0.1-0.1-0.3-0.1-0.4c-1.1-0.4-1.2,1.5-2.8-0.2
			c-0.8-0.5-0.4-1.7-0.7-2.5c-0.6-0.9-0.6-2.9-1.8-2.9c-0.7,0.7-1.9,0.5-2.4,1.5c-0.2,0.5-0.4,0-0.8,0c-0.3,0-0.5,0-0.7-0.1
			c-0.5-0.3-0.4-1-0.9-1.4c-0.3-0.1-0.3-0.5-0.5-0.7c-0.3-0.1-0.6,0.1-0.9-0.1c-1-1-0.1-2.2-0.3-3.2c-1.2-0.6-0.3-1.7-1-2.5
			c-0.9,0.4-1.8,0.9-2.8,0.8c-0.5,0.2-1.1,0.7-1.7,0.4c0,0.2,0,0.4-0.3,0.4c-0.3-0.4-0.6,0.1-0.9,0.2c-1.3,0.2-2.7,0.5-4,0.9
			c-1.2,0.1-1.6,2-2.7,1.7c-0.3,0.9,0.7,2.3,0,3c-0.3,0-0.3,0.4-0.4,0.6c0.5,1.8,0.1,3.6,0.2,5.4c-0.3,0.6-0.3,1.1,0.2,1.5
			c-0.9,0.2-0.5,0.9-0.8,1.6c-0.1,0.5,0.5,0.5,0.7,0.8c0.1,0.3,0.3,0.6,0.4,1c-1.6-0.4-1.9,1.1-2.4,2.2c-1.5,1.2-2.9,2.4-4.5,3.3
			c-3.3,1-7.1,1.3-9.9,3.8c-1.1,0.4-2.6,0.8-2.3,2.2c-0.3,0.9-1.3,1.5-1.3,2.4c0.5,0.4,0.6,1.2,1.3,1.2c0.3,0.3,0.9,0,1.1,0.3
			c0,0.6-0.7,0.4-1.1,0.7C71,45.2,70,46.9,68,47c-0.3,0-0.5,0.6-0.6,0.2c-0.7-0.9-2.2-1-3.3-1.3c-1.7,0.1-3.7,0-5.3-0.7
			c-0.5-0.5-1.3-0.2-1.9-0.1c-0.5-0.1-0.9,0.3-1,0.7c-0.2-0.2-0.3,0-0.5,0c-0.3,0-0.3-0.5,0-0.6c0.3-1-1.5-2-1.7-3.1
			c-0.3-0.7,0.5-1.3,1-1.5c0.1-0.7-0.5-1.1-0.6-1.7c-1-0.1-2.5-1-2.8,0.4c-0.3,0.1-0.6-0.1-0.9,0.1c-0.2,0.1-0.3,0.3-0.6,0.1
			c-0.3-0.3-0.7-0.3-1.1-0.4c-0.2,0-0.4-0.2-0.5-0.1c-0.2,0.1-0.2,0.2-0.4,0c-0.3-0.1-0.6-0.3-0.8-0.6c-0.4-0.4-1.1-0.2-1.5-0.5
			c-0.4,0.6-0.2,1.4,0.5,1.5c0.6,0.4,0.7,1.2,0.6,1.9c-0.4,0.4-0.9,0.8-0.1,1.2c0.2,0.3,0.1,0.8,0.4,1.1c0.1,0.5-0.2,1.1,0.1,1.6
			c0.6,0.1,0.9,0.6,1.2,1.1c0.1-0.1,0.2-0.3,0.2-0.4c0.4,0.3-0.1,0.4,0,0.6c0.5,0.5,0.4,1.7,1.1,2c-0.2-0.6,0.9-0.3,0.2,0
			c0.4,1.4-0.5,3,0.4,4.3c0.2-0.3,0-0.9,0.5-0.8c-0.3,0.6-0.5,1.4-0.3,2c-0.5,1-0.8,1.8-0.3,2.8c-0.1,0.7,0.2,1.1,0.7,1.5
			c0,0.5,0.4,0.6,0.7,0.8c0.3,0.6,0.3,0.4,0.8,0.2c-0.1,1.2-1.8,0.1-2.5,0.5c-1.1,0.8-4.1,1.4-3.2-0.9c0.1-0.2,0.2-0.5-0.1-0.4
			c-0.9,0.3-2.1,0.6-2.2,1.6c-0.3,0.1-0.3-0.2-0.6-0.2c-0.4,0-1.1,0.1-1.1,0.6c-0.1,0.1-0.2,0.2-0.3,0.2c0-0.1,0-0.2-0.1-0.1
			c-0.1,0.1,0.1,0.5-0.2,0.4c-0.3-0.4-0.5-0.8-0.5-1.2c-0.4,0-0.6,0.5-1,0.6c0-0.4,0.6-0.7,0.5-1.1c-0.2,0-0.4-0.1-0.5-0.3
			c-0.4,0.5-1,0.4-1.6,0.7c-0.5,0.2-0.6,0.8-1.1,0.9c-0.2,0-0.4,0.1-0.5,0.3c-0.3,0.3-0.6,1-1,1.1c-0.3-0.3-0.5,0.2-0.5,0.4
			c-0.2,0.4-0.5-0.6-0.6-0.7c-0.3-0.7-1.2-0.9-1.2-1.8c0-0.4-0.2-0.7-0.6-0.7c-0.2-0.1-0.1-0.4-0.2-0.5c-0.3-0.2-0.5-0.2-0.7-0.5
			c-0.1-0.2,0.2-0.5,0.1-0.7c-0.6-0.5-1.3,0.2-1.3-1c-1,0.1-0.7-0.3-0.7-1c-0.3-0.2-0.8-0.1-1.1,0.1c-0.3,0.6-0.6,0.8-0.6,0
			c0-0.1-0.3-0.3-0.4-0.1c-0.1,0.3-0.2,0.8-0.5,0.5c-0.5,0.2-1.1,0.4-1.7,0.5c-0.5,0.2-0.7-0.6-1.2-0.3c-0.2-0.2-0.6,0.3-0.8,0.4
			c-0.3,0.1-0.2,0.4-0.1,0.6c-0.3,0.5,1,1,0.2,1c-0.7,0.1,0.1,0.8-0.2,1.1c-0.2,0.1-0.2-0.1-0.3-0.2c-0.2-0.1-0.5,0.1-0.5-0.2
			c-0.1-0.1,0-0.1-0.1-0.1c-0.6,0.2-0.8-0.3-1.1-0.6c-0.8-0.4-1.5,0.4-1.5,1.1c-0.3,0.2-0.8,0.2-1.1,0.3C19,59.3,19,59.1,18.9,59
			c-0.1-0.2,0.1-0.6-0.2-0.8c-0.2-0.3-0.7,0.1-0.8,0.3c-0.3,0.5-0.6-0.1-1,0.1c-0.5,0.1-1.3,0.4-1.2,0.9c-0.3,0.2-0.8,0-1.2,0.2
			c0-1.5-1.2-0.2-1.8-0.3c-0.6,0-1.5-0.1-1.6,0.7c-0.3,0.2-0.7,0.4-0.6,0.9c-0.9,0.1-1.9-0.3-1.9,1c-0.5,0.3,0.1,0.7-0.1,1
			c-0.5,0.6-0.5,1-0.2,1.5c0.3,0.3-0.2,0.6,0,1C8.5,65.9,9,66,9.2,65.8c0.1-0.3,0.3-0.3,0.6-0.3c0.4-0.1,1.1,0.3,1.3,0.1
			c0.5-0.6,1.4-0.6,2-0.8c-0.4,0.5-0.7,1.3,0.3,1.3c0.4-0.1,0.6,0,0.9,0.2c0,0.9-1.7,0.2-2.2,0.1c-0.2,0-0.6,0.2-0.8,0
			c-0.1-0.1-0.1-0.4-0.3-0.4c-0.3,0,0.1,1-0.2,0.9c-0.3-0.1-0.5,0.2-0.3,0.4c0.1,0.4,0.8-0.2,0.7,0.4c-0.4,0.4,0.2,0.6,0.1,1
			c0,0.5,1-0.6,0.6-0.9c-0.1-0.5,1.1,0.2,1.2,0.4c0.5,0.1,1.2,0.1,1.4,0.7c0,0.2,0.2,0.3,0.3,0.4c0.1,0.2-0.2,0.4-0.2,0.6
			c0,0.3-0.1,0.5-0.4,0.4c-1.1-0.8-2.1,0.3-3.2,0.2c-0.6,0.1-1.2,0.4-1.8,0.4c-0.3,0-0.1,0.2-0.3,0.4c-0.2,0-0.2,0.2,0,0.2
			c0.4,0.2,0.8,0.3,1.2,0.2c0.2,0.2,0.6,0.4,0.8,0.4c0.6-0.6,1.1,0.4,1.7,0.6c0.4,0.7,1.1,1.4,1,2.3c0,0.5-1,1,0.2,1.1
			c0.4-0.1,0.7,0.4,1.1,0.2c0.3-0.3,1.3-0.1,1.2-0.8c-0.1-0.3-0.8-0.6-0.2-0.9c0.2,0.2,0.1,0.4,0.1,0.6c0.3,0,0.5-0.5,0.8-0.5
			c0.3,0.3,0.6,0,0.8,0.4c0.2,0.1,0.8,0,1-0.1c-0.1-0.2-0.2-0.4,0-0.6c0.6-0.2,0.8,0.3,1,0.8c0,0-0.1,0-0.1,0c0,0,0,0.1,0,0.1
			c0.4,0.3,0.6,1,1.1,0.8c0.3,0.4,1,0.2,1.4-0.1c0.1,0.3,0.3,0.6,0.7,0.5c0.6,0.3,1.3,0.2,1.9,0.3c0.7,0.9,0.4,1.7,1.9,1.3
			c1.3-0.1,2.6,1.3,3,2.5c-0.1,0.5-0.4,2.4,0.6,1.8c-0.3-0.2-0.8-2.6-0.2-2.1c0.2,0.9,1.1-0.2,1.8,0.2c0.4-0.6,1.2-0.1,1.6-0.8
			c0.3,0.2,0.7-0.1,1,0c1,0.1,0.5,2.1-0.2,1.2c0,0.1-0.1,0.2-0.2,0.2c-0.1-0.6-0.6,0.3-0.8-0.2c-0.9,0.1-0.5,0.3,0,0.6
			c0.1,0.5,0.3,0.7,0.8,0.8c0.4-0.1,0.8-0.7,1.3-0.2c0.4,0.3,0.4-0.3,0.6-0.4c0.5,0,0.9,0,1.3,0.1c0-0.6,1,0,1.2,0.2
			c0.1,0.6-0.8-0.2-0.6,0.3c0.1,0.2,0.1,0.4,0,0.5c-0.1,0.5,0.6,0.2,0.6,0.3c0,0.1-0.1,0.3,0,0.4c-0.1,0.2-1,0.4-1.1,0.7
			c-0.2,0.2-0.3,0.5-0.2,0.8c0.6-0.2,0.5,0.1,0.7,0.5c0.1,0,0.2-0.2,0.4-0.1c0.1,0.2,0.3,0.7-0.1,0.7c-0.3,0.1-0.5-0.6-0.8-0.4
			c-0.2,0.2,0.2,0.3,0.2,0.3c0.3,0.3,0.9,0.5,1.4,0.5c-0.2-0.5,0.4-0.4,0.7-0.3c0.3,0.3,0.5,0.9,0.9,0.9c0.4-0.4,1-0.7,1.5-1.1
			c0.2-0.1,1.3-0.7,1.4-0.3c0,0.2-0.2,0.2-0.4,0.2c-1.9,0.1-0.2,1.6-1.2,2.4c-0.3,0-0.5,0.1-0.7,0.5c-0.2,0.4,1.4,0.6,1.8,0.6
			c0.6,0.1,2,1.2,1.3,1.8c-0.2,0-0.5,0-0.4,0.3c-0.2,0.3-0.2,0.5-0.2,0.8c-0.4,0.4-0.8,0.7-1.1,1.2c-0.2-0.3,0.1-0.8-0.3-1.1
			c-0.2-0.4-0.9-0.1-0.9-0.6c0-0.1,0,0,0.1,0c0.4-0.6-0.8-1.2-1.2-0.6c0.1,0.2,0.2,0.2,0.1,0.5c0.2,0.2,0.3,0.6,0.6,0.7
			c1.2,0,1.2,1.6,1.4,2.5c0.7,0.9,1.8,1.6,2.5,2.5c1.2,1.1,1.3,2.9,2.1,4.1c1.2,0.7,2.1,1.8,3.7,1.5c0.2,0.2,0.4,0.7,0.4,1
			c0.7,0.6,1.7-0.4,2.3,0.9c0-0.2-0.2-0.4,0-0.6c0.3,0.4,0.6,1.1,1.2,1.1c0-0.9,1.4-0.9,1,0.1c-0.2,0.5-0.6,0.8-1,1.1
			c-0.3,0.6-0.5,1.6,0.5,1.1c-0.2,0.2,0.3,0.4,0.5,0.5c0,0.3-0.3,0.4,0.2,0.5c0.3,0.2,0.2,0.6,0.4,0.8c0.2,0.2,0.3,0.4,0.3,0.7
			c0.2,0.5-0.7,1.1-0.4,1.5c0.6,0.4-0.2,1.1-0.4,1.5c-0.2,0.1-0.4-0.1-0.6,0c-0.5,0-0.2-0.4-0.1-0.6c-0.5-0.3-0.8-0.9-0.7-1.6
			c0-0.3-0.3-0.2-0.6-0.3c-0.7-0.1-1.1-0.9-1.7-1.1c0.3,0.9,0.2,0.9,0.3,1.7c0.5,1,2,1.2,1.7,2.5c0.2,0.3,0.4,0.5,0,0.9
			c0.2,0.4,0,2,0.4,1.9c-0.2-0.6,0.1-0.5,0.4-0.1c0.2,0.1,0.6,0.1,0.6,0.5c0.1,0.5,0.8,0.2,1.1,0.6c0.1,0.1,0.1,0.1,0.3,0.1
			c0.5,0,0.2,0.8,0.7,0.9c0.2,0.4,0.9,0.1,0.8,0.7c1.5,1.1,2.3,2.8,2.8,4.5c-0.3,0.6,1.1,4.4,0.1,3.3c-0.6-1-0.4-2.2-0.9-3.3
			c-0.4-1.4-1.6-2.2-2.6-3.1c-0.5-0.2-0.7-0.6-1.1-0.8c-0.2-0.1-0.3-0.2-0.1-0.4c0.1-0.1,0.2-0.2,0.2-0.4c-0.1-0.3-0.4-0.2-0.3-0.6
			c-1.9,1.2-1,4-1.4,5.9c-0.3,3.1-0.3,6.3-1,9.3c-0.3,6.4-0.8,12.8-2.5,19c-0.4,2.1-1.3,4.5-3.1,5.7c-0.7,0.3-1.4-0.4-2,0.1
			c0.6,0.2,0.7,0.8,1.1,1.3c1,0.2,1.6-0.4,1.8,1c0.2,0.3,0.5,0.1,0.6-0.1c0.9-0.9,2.5,0.3,2.6,1.4c-0.4,0.9-3.2,2.6-0.3,2.7
			c0.3-0.2,0.3-0.7,0.5-0.9c0.2-0.3,1.3-0.8,1.1-0.1c-0.8,1.3,0.4,0.8,1.1,1.3c0.4,0.6,1.1-0.1,1.6,0.4c0.4,0.4,0.9,0.8,1.5,0.9
			c0.6,0.1,1.2-0.3,1.8-0.1c0.9-0.5,1.2,0.3,1.3,1c0.5,0.8,1.2,1.2,2,1.7c0.5,0.3,0.4-0.8,1-0.5c1.2,1.2,1.8-1.5,3.5,0.6
			c3.1,2,1.4,2.3,5.4,1.1c0.9,0,1.4,1.5,2.2,0.4c1,0.5,2.2,0.1,3.3,0.1c0.2,0,0.8,0.4,0.6,0c-1.4-1.9,0.6-0.8-0.2-2.6
			c1-0.8,2.5,0.3,3.3,1c0.9,0.1,1.8-0.1,2.6,0.4c0.6,1.6,3,0,3.5,1.5c0.2,0.3,0.5,0.5,0.8,0.7c0.5,0.2,1-0.4,1.6-0.2
			c0.9,0.7,2.2,0.4,3,1.3c0,0.3-1.6,2-0.1,1.8c0.6-0.2,0.9,0.3,1.4,0.4c0.4-0.1,0.8-0.3,1.2-0.2c0,0.4-0.4,0.5-0.6,0.8
			c-0.3,0.9,0.9,1.3,1.6,0.9c0.7-0.2,1-1.1,1.9-0.8c0.8,0.1,1.6,0.2,2.3,0.5c0.5,0.6,1.2,1.3,2,0.8c0.3-0.3,0.7,0,1.1,0.1
			c1,0.2,0.3-0.6,0.6-1c0.3-0.4,1.1,0,1.5-0.2c0.4-0.4,0.9-0.6,1.3-1c1.4-0.8,2.3,1,3.7,0.6c0.3-0.1,0-0.6-0.1-0.8
			c-0.3-0.7-1-0.8-1.5-1.2c0-2.8-0.2-5.9,0.3-8.5c-0.1-0.2-0.5-0.1-0.6-0.3c-0.1-0.1,0-0.3-0.1-0.4c-0.1-0.2-0.5-0.1-0.4-0.5
			c0.3-0.2-0.1-1.1,0.4-0.9c0.2,0.1,0,0.5,0.2,0.6c1,0.5,1.3,0.3,1.5-0.7c1-0.9,2.3-2.6,3.8-2.5c0.6,0.3,1.1,0.3,1.4-0.4
			c0.6-0.3,0.8-1.2,1.4-1.4c0.7,0.1,0.9-0.7,1.5-0.7c0.3-0.1,0.5-0.3,0.6-0.5c0.3-0.3-0.3-0.8,0.2-1c0.5-0.1,1.1,0,1.5-0.1
			c0.1-1.1,2.1-0.9,2.2,0.1c-0.8,1.3,3.2,0.6,3.9,1.2c0.7-0.4,2.4-0.4,2,0.8c0.2,0.1,0.6,0.7,0.7,0.4c0.1-0.1,0.2-0.3,0.4-0.3
			c0,0.1,0,0.2,0,0.3c0.7-1.1,2.3,1.9,3.1,0.1c-0.1-0.5,0.4-1.2,1-0.9c0.5,0.3,0,0.9,0.5,1.3c1.2,1,3.2-0.5,4.4,0.4
			c0.2,0.2-0.2,0.5-0.1,0.7c0.1,0.2,0.4,0.4,0.4,0.6c-0.5,0.6-0.4,0.8,0.4,0.7c0.2,0.1,0.1,0.2,0.3,0.1c0.5-0.2,0.8,0.4,1.4,0.2
			c0.4,0,1,1,1,0.2c0.3,0,0.5,0.1,0.8,0.2c0.4,0.1,0,0.3,0.2,0.5c0.1,0.1,0.2,0,0.3,0.1c0.2,0.2,0.5,0.3,0.8,0.3
			c0,0.1-0.1,0.2-0.1,0.3c0.4-0.1,0.6,0.3,0.4,0.6c-0.1,0.1-0.4-0.1-0.3,0.1c0.6,0.3,1,1,1.4,0c0.2-0.2,0.9,0.5,0.8-0.2
			c-0.2,0-0.5,0-0.5-0.2c0-0.2,0.1-0.2-0.2-0.2c0-0.2,0.5,0,0.6,0c0.4,0,1,0,1.1,0.4c0.2,0.2,0.5,0,0.7,0.3c0.5,0,1.2,0.4,1.6,0
			c0.1-0.5-0.5-0.9,0.4-1c0,0.2,0.3,0,0.4,0c0.5,0,0.8,0.7,1.3,0.5c-0.2-1,0.6-1,1.3-1.1c0.7,0,1.4-0.4,2,0.1
			c0.7,0.1,0.1-0.7,0.5-0.9c0.6-0.1-0.3-0.6,0.1-0.9c0.2-0.1,0.4-0.2,0.3-0.5c0.1-0.4-1-0.1-1.2,0c-0.2-0.2,0.5-0.6,0.7-0.7
			c0.3-0.1,0.8,0,0.9-0.3c-0.1-0.5,0.1-2,0.9-1.6c3,0.4,1.4-3.1,3-2.2c0.4,0.1,0.6-0.3,0.8-0.5c0.5-0.4,0.4,0.8,0.9,0.5
			c0.2-0.3-0.3-0.7-0.1-1c-0.1-0.5,0.5-1.3,1-0.8c0.5-0.2,0.4-1.3,1.2-0.7c0.2,0.2,0.5,0.5,0.6,0c0-0.2-0.2-0.3-0.1-0.4
			c0.3-0.2,0.8,0,1.1-0.2c0.2-0.6,1.1-0.9,1.6-1.2c-0.2-0.7-1.1-1.7,0-2c0.3-0.3,0.2-0.9,0.7-1.1c0.3-0.1,0.6-0.2,0.7-0.5
			c0.1-0.4,0.4-0.7,0.7-1c0.3-0.4,0.2-0.6,0-1c-0.2-0.8-0.6-1.7-1.4-0.9c-1.3,0.3-2.5,0.6-3.9,0.1c-0.9-0.2-1.4-1.3-2.4-1.4
			c-0.9-0.1-1.5-0.4-1.5-1.4c-0.7-0.7-1.7-1.6-0.7-2.6c-0.4-0.8-1.8-1.8-0.4-2.5c0.4-0.3,0.7-0.7,0.5-1.1c0.1-0.6,0.7-1.2,1.3-1.2
			c-0.1-0.5-0.6-1-0.7-1.5c0.1-0.4,0.2-1.1-0.3-1.3c-0.6,0.1-1,0.3-1.6-0.2c-1.1-0.4-1.2-1.5-1.3-2.5c-0.2-0.3-0.6-0.2-0.9-0.3
			c-0.4-0.3-0.2-0.6-0.4-1c-0.3-0.4-0.5-0.9,0-1.2c0.8-1.1,1.9,0.2,2.8,0c0-0.8,0.8-0.9,1.1-1.5c0.9-1.2,1.8,0.9,2.5-1.4
			c0.2-0.5,0-1,0.1-1.4c0.7-1,0.5-1-0.5-1.4c-0.8-0.8-1.6-1.6-1.7-2.8c0-0.4,0.2-0.9-0.1-1.1c-1.1-0.1-2.2-0.7-2.5-1.9
			c-0.3-1.3,0-1.6,1.3-1.5c0.7-0.4,1.8-0.7,1.8-1.7c-0.4-0.9-0.6-2.5-1.9-2.3c-0.6-0.4,0.9-1.5-0.6-1.7c-1.3-1.1,1.8-1.3-0.5-3.9
			c1.8-3.8-9.5-1.3-7.1,1.2c1.6,0.8-0.7,1.5-1,2.3c-0.5,0.4-0.9-0.1-1.4,0.1c-1.5,1-1.6-0.1-1-1.3c0.7-0.5,2,0.2,1.8-1.3
			c-0.2-0.6,1.1-1.4-0.1-1.6c-1.2-0.1-0.7-1.2-0.6-1.9c0.3-0.4,1-0.7,0.7-1.3c-0.8-1.3,1.4-1.3,1.8-2.5c2.4-1.5,2.2-1.4,2.2-4.1
			c-0.1-1.5,2-1,2.8-1.9c0.6-0.4,0.6-0.9,0.7-1.5c0.2-0.4,0.9-0.7,1.4-0.9c0.8-0.4,0.8-1.5,1.4-2.1c0.2-0.2,0.5-0.5,0.3-0.8
			c-0.3-0.6,0.8-0.6,1-0.9c0.7-1.2-0.9-0.7-1.5-0.6c-1-0.6,0.5-1.3,0.9-1.7c0.3-0.3,0.4-0.9,0.8-1c0.6,0,1.2,0.1,1.7,0.2
			c0.6,0.6,0.9,1.3,1.8,1c0.8,0.1,1.6-0.1,1.9-1c0.2-0.1,0.4-0.1,0.4-0.3c0.3-1,2.2-1.2,1.1-2.4c-0.9-1.1-0.2-2.1-0.3-3.4
			c0.4-1.1,0.4-2.2,1-3.2c-1.1-2-0.2-3.9,0.8-5.7c0.7-1.6,1.2-3.2,1.5-4.9c0.3-0.9,0-1.9,0.4-2.8c0.3-0.2,0.7-0.2,0.9-0.6
			c0.4-0.9,1-1.7,1.7-2.2c0.4-0.2,1-0.2,1.2-0.7c0.1-0.4-0.1-1.1,0.1-1.4c0.4-0.3,1.1-0.6,1.1-1.2C177,53.5,176.7,53.4,176.4,53.2z"
			/>
		<path class="st0" d="M151.7,164.8c-0.3,0.1-0.4-0.1-0.6-0.1C150,166.3,152.9,165.6,151.7,164.8z"/>
		<path class="st0" d="M154.9,164.6c-0.3,0-0.1,0.2-0.3,0.3c-0.1,0-0.3,0.1-0.3,0.3c0.4,0.2,0.5-0.1,0.7-0.4
			C155.4,164.7,155.3,164.5,154.9,164.6z"/>
		<path class="st0" d="M153.8,165.1c0,0.1-0.2,0-0.3,0.1c0,0.1,0,0.1,0,0.2c-0.1,0.2,0.2,0.1,0.3,0.1
			C154.1,165.5,154.2,165,153.8,165.1z"/>
		<path class="st0" d="M52.2,106.3c0-0.4-0.7,0.1-0.9-0.3c-0.1-0.1-0.1-0.3-0.2-0.3c-0.9-0.3-1.4,0.9-0.5,1.3
			c0.9-0.5,1.7,0.8,2.6,0.9c0.5,0.2,0.9-0.2,0.4-0.6c-0.6-0.5-1.2-0.6-1.9-0.7C51.9,106.5,52.2,106.5,52.2,106.3z"/>
		<path class="st0" d="M24.7,79.1c0.2,0.3,0.3,0.4,0.6,0.6c0.3,0,0.4-0.2,0.7,0C26.3,78.9,25.2,78.9,24.7,79.1z"/>
		<path class="st0" d="M4.5,62.8c-0.2,0.3-0.8,0.3-0.9,0.6c0.1,0.1,0.3,0.1,0.4,0c0,0.3,0.2,0.6,0.3,0.1C4.7,63.6,5,63.2,4.5,62.8z"
			/>
		<path class="st0" d="M41.8,38.6c0.2-0.1,0.4-0.3,0.5-0.4c0.1-0.4-0.3-0.1-0.5,0C41.3,38.1,41.1,38.8,41.8,38.6z"/>
		<path class="st0" d="M36.3,44.1c0.4,0.5,2.1-0.2,1.3-1c0.1-0.2,0.4-0.6-0.2-0.5c-0.4,0.2-0.8,0.4-0.9,0.9
			C35.9,43.6,35.1,44.1,36.3,44.1z"/>
		<path class="st0" d="M41.2,48.3c-0.3,0.9,0.4,0.8,1,0.9c-0.1-0.5,0.4-0.3,0.7-0.3c0.2,0.1,0.2,0.3,0.4,0.4c0.4,0.2,0.7,0,0.7-0.4
			c0.6-0.3,0.4-0.8-0.1-1c-0.2,0-0.3,0.1-0.4,0.2c-0.1-0.3-0.1-0.5-0.5-0.4c-0.3-0.1-0.5-0.3-0.7,0C41.6,47.7,40.8,47.2,41.2,48.3z"
			/>
		<path class="st0" d="M39.7,44.5c0.2-0.3,0.5-0.6,0.1-0.9C39.5,43.7,39.3,44.7,39.7,44.5z"/>
		<path class="st0" d="M30.4,85.5c-0.7,0.1-0.7-0.6-1.1-0.8c-0.2,0-0.3-0.1-0.5-0.2c-0.1,0.1-0.2,0.1-0.2,0.1c0.1-0.4-0.6-0.4-0.6,0
			c-0.2,0.5,0.3,0.9,0.4,1.3c0.2,0.3,0.4,0.2,0.7,0.1c0.2-0.1,0.2,0,0.4,0.1c0.2,0,0.5,0,0.7,0.2C30.5,86.3,30.9,85.3,30.4,85.5z"/>
		<path class="st0" d="M31.6,84c-0.1,0.3,0.3,0.3,0.4,0.3C32.5,84,32,84,31.6,84z"/>
		<path class="st0" d="M33.1,84.9l-0.2,0C32.9,85.9,33.7,84.5,33.1,84.9z"/>
		<path class="st0" d="M194.9,177.5c-0.4-1.5,0.2-3.2-0.4-4.7c-0.2-0.4-1-0.6-0.8-1.2c-0.2-0.7,0.1-1.2,0.3-1.8
			c0.1-1.1,0-2.1-0.1-3.2c-0.4-0.5,0.1-1.7-0.9-1.4c-1.4-0.3-0.6,0.6-0.7,1.4c0,0.3-0.1,0.4-0.3,0.6c-0.2,0.2,0.2,0.4,0.1,0.6
			c-0.1,0.2-0.4,0.4-0.3,0.6c0.7,0.8,0.4,1.8-0.1,2.6c-0.3,0.3-0.4-0.5-0.6-0.7c-0.2,0-0.3-0.2-0.3-0.3c-0.4,0.3-0.8-0.1-1.2,0.1
			c-0.4,0.1-0.9,0.5-1.1,0.9c-0.7,0.8-1.9,0.6-2.6,1.3c-0.2,0.1-0.8,0.1-0.6,0.5c0.1,0.2,0,0.4-0.2,0.4c-0.8-0.4-0.7,0.2-1.1,0.6
			c-0.3,0.1-0.5,0.2-0.4,0.5c-0.1,0.2-0.3,0.2-0.3,0.4c0.4,0,0.6,0.2,0.2,0.4c0.1,0.6-0.2,0.4-0.6,0.5c-0.2,0.1-0.1,0.4-0.2,0.6
			c-0.1,0.2-0.4,0.2-0.6,0.3c-0.1,0.2,0.1,1,0.3,0.4c0.1-0.1,0.4,0,0.5,0.1c0.3,0.2-0.1,0.2-0.1,0.4c0,0.1,0.2,0.2,0.4,0.2
			c0.4,0,0.9,0.4,0.6,0.7c-0.5,0.2-1.2,0.2-1.7,0.4c-0.2,0.2,0.3,0.3,0.3,0.7c0.2,0.5,0,0.9,0.1,1.4c0.6-0.2,0.8,0.6,1.5,0.2
			c0.2,0.2,0.1,0.7,0.3,0.9c0.1,0.1,0.3-0.1,0.3,0.2c-0.3,0.5-1.4,0.5-1,1.3c0,0.2-0.9,0-1,0.4c0.2,0.4,0.4,0.5,0.2,1
			c0.1,0.3,0.3-0.2,0.5-0.1c0.4,0.1,0.8,0.1,1.2-0.1c0.1-0.2,0.4-0.2,0.5,0c0.6,0.4-0.1,0.4,0.1,0.9c0.1,0.3-0.1,0.2-0.3,0.3
			c0,0.5,0.5,0.5-0.2,0.8c-0.9,0.1,0.4,0.7-1.1,1c0.1,0.4,0.7,0,0.6,0.4c1.8-0.6,0.3,0.2,1.2,0.5c-0.2-0.4,1,0,1.1,0.2
			c-0.2,0.1-0.3,0.2-0.2,0.5c-0.1,0.6-0.8,0.1-0.9,0.6c-0.4,0.6,0,1.5,0.7,1.5c-0.2,0.4,0.1,0.5,0.5,0.4c0,0.2,0.2,0.3,0.4,0.2
			c0.1,0.4,0.3,0.3,0.6,0.3c0.3,0.4,0.7,0,1.1,0.3c0.3,0.2,0.9,0.1,0.9,0.7c0,0.2-0.1,0.5,0.2,0.6c0.4,0.1,0.9,1.1,1.3,0.4
			c-0.1-0.2,0.4-0.5,0.2-0.8c-0.2-0.2-0.2-0.4,0.1-0.6c0.4,0.1,0.7,0.1,0.7-0.5c-0.5-0.9,0.5-1.3,1-1.9c0.1-0.2,0-0.3-0.1-0.5
			c-0.1-0.3,0.5-0.4,0.3-0.8c-0.1-0.1-0.1-0.3,0.1-0.3c0.4-0.4,0-0.9,0.3-1.3c0-1-0.3-1.9,0.1-2.9c-0.1-0.3-0.1-0.6,0.2-0.8
			C194.9,182,195.3,179.7,194.9,177.5z"/>
	</g>
</g>
</svg>
