<?xml version="1.0" encoding="utf-8"?>
<!-- Generator: Adobe Illustrator 26.0.3, SVG Export Plug-In . SVG Version: 6.00 Build 0)  -->
<svg version="1.1" id="Isolation_Mode" xmlns="http://www.w3.org/2000/svg" xmlns:xlink="http://www.w3.org/1999/xlink" x="0px"
	 y="0px" viewBox="0 0 200 200" enable-background="new 0 0 200 200" xml:space="preserve">
<g>
	<path fill="#1E8346" d="M178.412,38.429c-0.336-1.136-0.366-2.18-0.541-3.324c-0.19-1.244-0.706-2.35-0.908-3.604
		c-0.389-2.422-0.942-4.572-1.345-6.942c-0.484-0.512-0.299-1.225-0.535-1.87c-0.151-0.413-0.474-0.885-0.712-1.271
		c-0.359-0.58-0.761-1.106-1.096-1.7c-1.181-2.093,0.081-4.603,0.067-6.899c-0.01-1.714-0.583-3.466-1.869-4.58
		c-0.956-0.828-1.809-1.294-3.01-1.735c-1.276-0.468-2.849-1.073-4.193-1.143c-0.363,1.016-0.995,2.373-0.285,3.265
		c0.562,0.706,2.529,2.056,3.374,2.064c-0.38,0.458-0.956,0.844-1.454,1.183c-0.849,0.576-1.195,1.105-1.805,1.902
		c-1.169,1.528-2.688,3.107-3.482,4.887c-1.98,0.089-3.802,0.335-5.723,0.762c-1.862,0.413-3.4,1.364-5.194,1.986
		c-0.177-1.23-1.615-0.076-2.089,0.299c-2.004,1.584-3.675,2.68-5.954,3.846c-1.187,0.607-2.69,1.644-4.01,1.64
		c-0.094,0-0.138-0.213-0.232-0.228c-0.909-0.148-1.82-0.304-2.791-0.323c-0.78-0.016-1.581-0.061-2.356-0.002
		c-0.36,1.178-0.177,3.799-1.175,4.464c-0.94,0.627-1.764-0.052-2.453,1.116c-0.45,0.763-0.569,1.87-0.815,2.713
		c-0.471,1.611-0.748,3.539-1.477,5.044c-0.733,1.516-1.927,1.635-3.219,2.501c-1.289,0.865-0.866,1.899-0.794,3.195
		c0.059,1.066-0.424,2.187-0.516,3.282c-0.184,2.177-0.928,4.529-1.577,6.651c-0.306,1.002-0.639,1.82-0.774,2.866
		c-0.119,0.92-0.413,2.994-0.235,3.848c-0.624,1.038-2.108,1.706-3.082,2.395c-0.992,0.702-1.88,1.609-2.578,2.585
		c-1.102,1.541-1.527,3.525-2.744,4.974c-0.571,0.679-1.43,1-1.952,1.672c-0.456,0.588-0.545,1.528-0.953,2.168
		c-0.722,1.134-2.101,2.607-3.187,3.401c-0.273-0.236-0.606-0.402-0.95-0.468c-0.626,0.807-0.992,1.947-1.429,2.855
		c-0.775,1.61-1.122,1.411-2.459,0.669c-1.281-0.711-2.977-0.836-4.126-1.805c-1.029-0.867-1.742-2.204-2.845-2.974
		c-0.825,0.683-1.433,1.322-2.372,1.857c-1.02,0.581-1.986,1.044-2.8,1.933c-0.935,1.023-1.624,2.427-2.559,3.371
		c-0.748,0.756-1.822,1.263-2.596,1.989c-0.744,0.698-1.384,1.623-1.98,2.449c-0.769,1.065-1.547,2.082-2.495,3.028
		c-0.948,0.945-2.081,2.294-3.176,3.007c-1.238,0.807-2.191,2.122-3.02,3.321c-0.727,1.053-1.618,1.861-2.619,2.644
		c-0.123,0.096-0.247,0.192-0.374,0.288c-1.504,1.141-2.684,2.571-4.139,3.778c-2.63,2.179-5.241,4.331-7.817,6.546
		c-2.188,1.882-4.264,3.866-6.359,5.745c-1.167,1.047-2.63,1.757-3.797,2.822c-0.818,0.748-1.684,1.582-2.425,2.383
		c-1.48,1.597-3.726,3.19-5.042,4.961c-1.192,1.604-0.379,3.625,1.654,4.069c0.229,1.356-1.039,1.924-1.035,3.208
		c0.003,0.877,0.411,1.876,0.938,2.549c0.691,0.884,1.54,1.285,1.538,2.531c-0.001,0.607-0.192,1.278-0.198,1.927
		c-0.013,1.329,0.077,2.62-0.249,3.874c-0.258,0.996-0.486,2.538-1.401,3.158c-1.359,0.921-4.151,0.314-5.715,0.429
		c0.006,0.057,0.007,0.114,0.004,0.172c-1.5-0.11-4.159,2.207-4.95,3.329l-6.105,6.725l-1.966,3.828l11.691,7.76l13.243,9.725
		l23.098,16.502c2.584,0,3.137-2.631,4.575-4.508c1.851-2.417,4.305-4.146,6.505-6.202c1.752-1.637,3.426-3.34,5.532-4.53
		c1.729-0.977,3.434-2.015,5.099-3.113l6.399-4.133l-0.956-1.411l-6.511,4.189l-0.158-0.233c-0.973-1.694-2.982-2.536-4.049-4.271
		c-0.901-1.465-0.497-2.537-0.857-4.11c-2.606,1.172-6.188,0.535-8.963,0.542c-0.976,0.002-1.883,0.274-2.4-0.492
		c-0.404-0.599-0.199-2.006-0.314-2.73c-0.932,0.027-1.927,0.14-2.841-0.033c-0.086-1.28-0.103-2.531-0.261-3.802l-0.395-2.389
		l2.937-0.478l-0.068-0.718l-3.487,0.379c-1.537,0.467-4.877,1.627-4.597-1.029c0.203-1.926,3.03-4.758,4.973-4.869
		c3.027-0.173,4.919,1.806,6.991,3.498c1.164,0.951,0.877,1.745,1.704,2.886c0.564,0.778,1.283,1.077,2.299,0.86
		c0.842-0.181,1.009-0.689,1.564-1.23c0.787-0.764,1.286-0.856,2.478-0.718c1.954,0.226,1.927,1.863,2.598,3.415
		c0.53,1.226,1.345,2.58,2.473,1.207l0.466,0.063v7.922h1.867v-1.229l-0.728-0.046l0.071-5.54c3.014-0.126,6.046,0.637,8.314-1.702
		c1.304-1.345,2.932-2.303,4.479-3.343c0.886-0.596,1.494-0.81,2.115-1.744c0.542-0.815,0.839-1.643,1.163-2.57
		c0.722,0.136,3.036,0.966,3.714,0.844c0.5-0.09,0.521-0.36,0.931-0.677c0.894-0.691,1.274-1.583,2.108-2.39
		c0.649-0.628,1.571-1.003,1.764-1.839c0.186-0.804-0.325-1.85-0.209-2.683c0.242-1.745,2.478-1.35,3.077-2.94
		c0.266-0.708,0.066-1.45,0.029-2.165c-0.055-1.049-0.216-2.018,0.259-2.946c0.866-1.694,2.261-2.914,3.685-4.114
		c0.777-0.655,1.111-1.564,1.813-2.257c0.834-0.823,0.945-0.61,0.374-1.672l14.097-17.593l-1.297-0.922l-14.069,17.16l-0.31-0.224
		c-0.466-0.477-1.677-0.262-2.299-0.308c-0.701-0.051-1.108-0.161-1.688-0.512c-0.382-0.231-1.094-0.945-1.486-0.98
		c-0.106,0.378-0.108,0.811-0.274,1.166c-1.072,0.083-0.701-1.742-0.88-2.334c-0.193-0.638-1.014-2.446-1.807-1.382
		c-0.543,0.728,0.018,2.139,0.182,2.952c0.175,0.873,0.123,1.772,0.384,2.63c0.291,0.954,0.609,1.891,0.874,2.857
		c-0.795,0.144-1.57,0.357-2.365,0.496c-1.247,0.218-2.431,0.217-3.632,0.591c-1.232,0.384-2.537,0.445-3.708,1.043
		c-0.815,0.415-1.695,0.607-2.528,0.987c-0.682,0.311-1.404,0.559-2.1,0.818l-1.004,0.378l-1.298-3.688l0.478-0.547l-0.251-0.683
		l-1.457,0.512l1.708,4.678l-0.873-0.188c-1.26,0.458-2.659,0.672-3.933,1.152c-0.399-0.349-0.246-1.104-0.237-1.586
		c0.012-0.718-0.041-0.823-0.691-1.264c-0.659-0.447-1.386-0.782-2.043-1.235c-1.076-0.74-1.553-1.925-1.612-3.21
		c-0.042-0.941,0.061-1.859-0.156-2.788c-0.1-0.427-0.624-1.485-0.352-1.897l-0.29-0.367l3.643-0.911l0.728,3.961l0.956-0.091
		l-1.776-9.289l-0.774,0.228l0.41,3.825l-3.422,0.328c0.054-1.28-0.359-2.711-0.708-3.933c-0.125-0.439-0.23-0.946-0.557-1.277
		c-0.395-0.399-1.003-0.166-1.464-0.481c0.167-0.583,0.063-1.395,0.091-2.004c0.041-0.9,0.27-1.736,0.376-2.614
		c0.101-0.836,0.332-1.915,0.911-2.546c0.359-0.39,0.696-0.42,1.262-0.491c0.896-0.112,1.791-0.176,2.672-0.438
		c0.405-0.121,0.629-0.292,1.024-0.389c0.777-0.19,1.61-0.236,2.397-0.413c2.288-0.515,4.736-0.484,7.067-0.745l2.61-0.024
		l0.819,4.064l0.82-0.239l-0.82-4.03l1.281-0.151c1.134-0.676,2.505-0.903,3.813-0.999l0.313,0.035l1.548,7.877l-0.638,0.091
		l0.273,2.368l2.686-0.455l-1.692-9.943c0.548-0.482,0.807-0.044,1.474-0.271c0.756-0.257,1.526-0.676,2.271-0.946
		c1.202-0.436,2.5-0.697,3.758-0.911l2.248-0.178l3.688,8.332l1.775-0.683l-3.824-8.514l2.649-3.838
		c0.049-0.573,0.278-0.897,0.418-1.277c0.096-0.262,0.151-0.552,0.074-0.97c-0.179-0.967-0.254-1.002,0.003-1.917
		c0.19-0.678,0.069-1.334,0.222-2.026c0.204-0.921,1.081-1.278,1.388-2.113c0.248-0.676,0.177-1.379,0.426-2.073
		c0.245-0.681,0.353-1.312,0.545-2.083c0.176-0.711,0.425-0.772,0.088-1.598c-0.338-0.826-0.542-1.107-0.572-1.985
		c-0.127-3.812,1.787-6.165,3.327-9.427c0.841-1.783,1.911-3.562,3.196-5.061c1.174-1.369,1.904-2.752,2.895-4.252
		c0.908-1.373,1.616-1.964,1.567-3.679c-0.04-1.382,0.726-2.394,0.701-3.75c-0.026-1.41,0.385-2.085,1.586-2.802
		c0.778-0.464,3.219-2.283,1.319-3.007c-0.135,0.349-0.262,1.165-0.491,1.4c-0.352,0.361-1.517,0.585-1.865,0.258
		c-0.298-0.279-0.175-0.724-0.26-1.077c-0.287-1.197-0.48-2.094-0.145-3.402c0.439-1.717,0.809-2.758,2.406-3.569
		c1.224-0.621,2.028-1.126,3.101-1.971l2.373,3.168l-1.412,0.956l0.683,0.637l2.914-2.322l-0.546-0.82l-1.138,0.774l-2.12-3.153
		c0.592-0.86,1.07-1.774,1.867-2.581c0.71-0.719,2.109-1.636,3.032-1.952l3.413-0.282l2.14,1.548l-1.503,2.049l0.592,0.728
		l3.369-4.052l-0.546-0.774l-1.275,0.956l-1.685-1.867l0.744-0.495c0.318-1.32,2.194-2.807,3.429-3.502
		c0.685,0.622,0.74,1.759,1.123,2.569c0.364,0.768,0.764,1.432,1.061,2.243c0.334,0.914,0.467,1.748,1.216,2.441
		c0.693,0.641,1.578,0.994,2.296,1.625c0.716,0.63,1.718,1.593,2.616,1.924c1.748,0.644,4.122-0.283,5.722-0.951
		C179.983,43.806,179.178,41.018,178.412,38.429z"/>
</g>
</svg>
