<?xml version="1.0" encoding="utf-8"?>
<!-- Generator: Adobe Illustrator 26.0.3, SVG Export Plug-In . SVG Version: 6.00 Build 0)  -->
<svg version="1.1" xmlns="http://www.w3.org/2000/svg" xmlns:xlink="http://www.w3.org/1999/xlink" x="0px" y="0px"
	 viewBox="0 0 200 200" enable-background="new 0 0 200 200" xml:space="preserve">
<g id="Isolation_Mode">
	<g>
		<path fill="#1E8346" d="M6.485,90.493C6.497,91.127,6.5,91.206,6.854,91.6c0.2,0.222,0.506,0.443,0.648,0.714
			c0.204,0.389,0.391,1.095-0.189,1.224c-0.027,0.197,0.239,0.357,0.219,0.458c-0.041,0.207-0.332,0.285-0.437,0.449
			c0.624,0.483,0.801,0.812,1.607,0.395c0.716-0.369,0.282-0.984,0.78-1.443c0.443-0.408,1.189,0.16,1.687,0.307
			c1.014,0.301,1.986,0.152,3.026,0.246c0.159,0.539,0.185,0.713,0.727,0.92c0.726,0.278,1.185,0.046,1.338,0.954
			c0.074,0.437-0.054,0.845,0.438,0.957c0.355,0.081,1.109-0.675,1.164-0.161c0.224,0.011,0.734-0.079,0.929,0.003
			c0.224,0.094,0.224,0.25,0.42,0.429c0.429-0.341,1.027-0.971,1.546-0.778c0.519,0.193,1.165,0.838,1.331,1.363
			c0.398,1.258-1.012,2.096-0.969,3.282c-0.74,0.762-1.733,1.265-2.428,2.067c-0.649,0.748-1.127,1.544-2.025,2.069
			c-0.471,0.275-1.035,0.309-1.493,0.604c-0.422,0.272-0.415,0.629-0.672,1.002c-0.449,0.653-1.353,0.744-2.065,0.941
			c-0.089,0.79,0.611,1.304,0.669,2.051c0.063,0.825-0.791,1.18-1.307,1.649c-0.859,0.78-0.38,0.859,0.187,1.579
			c0.516,0.655,0.955,1.332,1.516,1.922c0.626,0.658,0.677,0.723,1.63,0.637c0.781-0.07,1.33,0.026,1.754-0.635
			c0.225-0.351,0.509-0.989,0.906-1.159c0.204-0.088,0.99-0.141,1.203-0.115c0.274,0.034,0.513,0.377,0.797,0.322
			c0.445-0.088,0.393-0.702,0.81-0.08c0.29,0.433,0.173,1.17,0.104,1.676c-0.074,0.543-0.418,1.071-0.368,1.609
			c0.05,0.52,0.254,0.831,0.059,1.37c-0.208,0.575-0.558,1.119-0.883,1.658c-0.117,0.194-0.231,0.388-0.334,0.582
			c-0.16,0.301-0.245,0.568-0.488,0.801c-0.281,0.27-0.627,0.328-0.882,0.612c-0.538,0.6,0.311,0.93-0.144,1.645
			c-0.265,0.416-0.633,0.766-0.632,1.341c0,0.262-0.068,0.66,0.056,0.897c0.196,0.376,0.698,0.354,0.949,0.71
			c0.339,0.481,0.294,1.08,0.34,1.632c0.05,0.605,0.196,0.753,0.661,1.063c0.279,0.187,1.169,0.898,1.302,0.15
			c0.479-0.029,1.273-0.065,1.731,0.097c0.444,0.158,0.135,0.056,0.349,0.371c0.121,0.177-0.011,0.384,0.269,0.38
			c0.225-0.002,0.169-0.294,0.313-0.334c0.279-0.077,0.526,0.095,0.769,0.277c0.498,0.371,0.841,0.925,1.224,1.399
			c0.184,0.227,0.398,0.433,0.564,0.676c0.114,0.167,0.165,0.363,0.331,0.444c0.378,0.185,1.32-0.116,1.754-0.174
			c0.409,0.605,1.454,0.967,2.011,1.493c0.57,0.538,0.666,1.399,1.222,1.978c0.432,0.45,1.027,0.517,1.151,1.206
			c0.092,0.511,0.007,1.396,0.568,1.799c1.017,0.731,1.22,1.945,2.011,2.843c0.69,0.784,1.808,1.023,2.589,1.704
			c-0.351,0.449-0.927,0.721-1.404,1.03c-0.501,0.324-1.432,0.638-1.696,1.103c-0.242,0.427-0.171,0.909-0.507,1.342
			c-0.303,0.39-0.509,0.552-1.009,0.562c-0.674,0.014-1.236,0.025-1.892,0.103c-0.549,0.065-1.29-0.05-1.804-0.238
			c-0.719-0.264-1.045-0.791-1.863-0.882c-0.627-0.069-1.164,0.093-1.728,0.359c-0.015,0.925,0.708,0.855,1.239,1.387
			c0.45,0.451,0.288,1.555-0.205,1.945c-0.842,0.666-2.726,0.444-3.686,0.686c-0.729,0.184-1.49,1.034-2.271,0.905
			c-0.302-0.05-0.341-0.344-0.783-0.349c-0.476-0.006-0.431,0.002-0.694,0.451c-0.248,0.424-0.193,0.392-0.583,0.494
			c-0.397,0.103-0.875-0.103-1.272-0.003c-0.73,0.184-0.356,0.575,0.142,0.849c0.529,0.291,0.99,0.61,0.707,1.195
			c-0.215,0.443-0.443,0.643-0.493,1.178c-0.078,0.837-0.079,1.19,0.893,1.183c0.581,0.688,0.75,0.658,1.567,1.033
			c0.326,0.149,0.477,0.296,0.856,0.356c0.408,0.064,0.658,0.032,1.007,0.289c0.439,0.323,0.721,0.922,1.313,0.683
			c0.372-0.15,1.33-0.53,1.553-0.869c0.007,0.138,0.06,0.247,0.16,0.325c0.891-1.065,1.505-0.782,2.811-0.852
			c0.891-0.048,2.119-0.783,2.83,0.108c0.37,0.462-0.157,1.787,0.423,2.117c0.189,0.107,0.924-0.151,1.161-0.147
			c0.386,0.006,0.617-0.043,0.839,0.272c0.352,0.5,0,0.472,0.516,0.707c0.406,0.185,1.045,0.237,1.478,0.16
			c1.084-0.194,0.828-1.341,1.361-2.051c0.387-0.516,1.915-0.549,2.551-0.66c1.019-0.178,0.858,0.097,1.514,0.748
			c0.531-0.275,0.803-0.635,0.801-1.233c-0.002-0.684-0.055-0.715,0.528-1.059c-0.179-0.199-0.322-0.596-0.003-0.763
			c-0.54-0.114-0.878-0.458-1.228-0.833c-0.26-0.278-0.531-0.486-0.439-0.938c0.088-0.43,0.383-0.418,0.623-0.759
			c0.362,0.209,1.014,0.381,1.44,0.462c0.156-0.334,0.102-0.795,0.368-1.045c1.272,0.687,2.261,1.541,3.379,2.467
			c0.897,0.743,2.067,0.959,3.2,1.187c0.62,0.125,0.828,0.037,1.41-0.15c0.695-0.224,1.332,0.208,1.95,0.465
			c0.332,0.139,1.426,0.461,1.756,0.176c0.217-0.187,0.165-0.92,0.261-1.191c0.282-0.793,1.101-1.331,1.815-1.706
			c0.25,0.301,0.244,0.754,0.433,1.096c0.223,0.401,0.854,0.487,1.153,0.821c0.724-0.529,0.607-0.703,1.368-0.129
			c0.533,0.402,0.912,0.364,1.372-0.076c0.294,0.432,0.306,1.047,0.633,1.451c0.543-0.193,0.814-0.82,1.368-1.066
			c0.574-0.255,1.23-0.376,1.784-0.653c0.502-0.251,0.974-0.7,1.345-1.108c0.587-0.645,0.71-0.672,1.494-0.64
			c0.805,0.032,1.026-0.438,1.658-0.905c0.609-0.45,1.137-0.866,1.653-1.417c0.408-0.437,0.764-0.602,0.872-1.173
			c0.091-0.476,0.124-1.016,0.156-1.501c0.07-1.069-0.09-2.296,0.131-3.334c0.364,0.063,1.396-0.168,1.68-0.354
			c0.42-0.275,0.755-1.185,1.034-1.61c0.354-0.542,0.735-1.054,0.937-1.656c0.197-0.588,0.121-1.207,0.259-1.806
			c0.412,0.254,0.441,0.543,0.976,0.478c0.45-0.055,0.54-0.346,0.957,0.036c0.545,0.5,0.216,1.326,0.035,1.942
			c-0.222,0.754-0.585,1.214,0.14,1.629c0.573,0.329,1.015,0.69,1.411,1.188c0.41,0.517,1.109,1.308,1.644,1.657
			c0.36,0.235,0.737-0.028,1.053,0.12c0.202,0.095,0.36,0.429,0.454,0.61c0.339,0.655,0.579,1.026,1.148,1.561
			c-0.201,0.221-0.724,0.574-0.813,0.811c-0.071,0.188,0.043,0.416,0.074,0.631c0.078,0.535,0.076,1.087,0.109,1.627
			c0.667,0.453,0.548-0.275,0.812-0.559c0.323-0.345,1.202-0.165,1.525,0.144c0.185,0.177,0.204,0.513,0.35,0.704
			c0.131,0.172,0.42,0.375,0.599,0.515c0.514,0.402,0.935,0.717,1.556,0.868c1.194,0.29,1.164,0.935,1.612,1.962
			c0.156,0.357,0.363,0.678,0.546,1.024c0.159,0.301,0.183,0.692,0.372,0.938c0.819-0.453,1.99-0.502,2.899-0.73
			c0.803-0.202,1.696-1.127,2.492-1.074c0.16-1.056,0.327-2.244,0.309-3.314c0.491-0.078,0.877-0.568,1.409-0.66
			c0.094,0.308,0.503,0.482,0.755,0.659c0.468,0.329,0.821,0.763,1.26,1.113c0.582,0.464,0.945,0.934,1.72,0.962
			c0.338,0.013,0.801-0.137,1.052,0.099c0.182,0.171,0.082,0.719,0.314,0.831c0.524,0.252,1.352-0.741,1.923-0.548
			c0.152,0.838,0.959,0.645,1.712,0.764c0.148,0.614-0.045,0.998,0.367,1.524c0.354,0.453,0.829,0.851,1.303,1.167
			c0.456,0.304,1.092,0.399,1.474,0.785c0.34,0.344,0.37,0.954,0.774,1.236c0.359,0.251,1.175,0.194,1.574,0.066
			c0.296-0.095,0.768-0.754,0.973-0.76c0.249-0.007,0.428,0.396,0.668,0.525c0.21,0.113,0.505,0.232,0.756,0.145
			c0.552-0.192,0.918-1.282,1.15-1.767c0.344-0.723,1.021-1.183,1.803-1.409c0.727-0.21,1.68,0.417,2.369,0.585
			c0.536,0.131,1.482,0.556,2.002,0.25c0.359-0.212,0.662-0.905,0.818-1.279c0.361-0.864,0.659-0.947,1.438-1.373
			c-0.427-0.494-1.15-0.843-1.696-1.163c-0.532-0.313-0.902-0.765-1.398-1.078c-1.101-0.696-1.872-1.615-1.872-3.047
			c0-0.803-0.015-1.592-0.052-2.38c-0.017-0.364-0.076-0.638-0.216-0.975c-0.148-0.355-0.654-0.765-0.626-1.144
			c0.329-0.088,1.087-0.385,1.204-0.646c0.19-0.421,0.059-1.259,0.103-1.732c0.892-0.248,1.637-0.466,2.575-0.525
			c-0.13-0.181-0.197-0.398-0.2-0.622c0.756,0.037,1.457,0.007,2.187,0.229c0.315,0.096,0.355,0.2,0.645,0.091
			c0.324-0.122,0.575-0.54,0.844-0.738c-0.554-0.1-1.031-0.515-1.361-0.967c-0.339-0.465-0.517-2.068-1.078-2.231
			c-0.24,0.315-0.305,0.95-0.712,1.13c-0.551,0.243-0.514-0.361-0.418-0.751c0.118-0.485,0.44-0.491,0.673-0.851
			c0.205-0.316,0.136-1.087,0.047-1.437c-0.414-0.12-0.829-0.235-1.275-0.207c-0.221,0.638-0.938,0.845-0.994,1.498
			c-0.06,0.701,0.247,1.108-0.132,1.805c-0.196-0.308-0.474-0.573-0.667-0.872c-0.26-0.402-0.14-0.482-0.194-0.929
			c-0.067-0.024-0.125-0.042-0.189-0.046c-0.078,0.235-0.215,0.44-0.283,0.7c-0.244-0.435-0.503-0.592-0.553-1.097
			c-0.02-0.202,0.105-0.743,0.001-0.897c-0.217-0.323-0.71,0.015-1.097,0.095c-0.12-0.339-0.474-0.594-0.509-0.955
			c-0.04-0.423,0.469-0.858,0.778-1.151c0.344-0.327,0.723-0.593,1.015-0.982c0.304-0.406,0.387-0.643,0.848-0.84
			c0.224-0.096,0.475-0.121,0.695-0.226c1.068-0.508,1.704-1.279,2.96-1.465c0.863-0.128,1.132-0.102,1.706-0.682
			c0.352-0.356,0.316-0.362,0.821-0.459c0.267-0.052,0.485-0.134,0.754-0.196c0.345-0.079,2.418,0.319,2.78-0.202
			c0.127-0.182,0.088-1.065,0.002-1.267c-0.377-0.886,0.438-0.955,0.889-1.609c0.195,0.04,0.387,0.1,0.571,0.178
			c-0.051,0.153,0.042,0.348,0.03,0.457c0.34-0.01,1.557,0.011,1.807-0.251c0.147-0.155,0.084-0.363,0.127-0.547
			c0.126-0.539,0.282-1.136,0.717-1.499c0.374,0.332,0.743,0.7,1.083,1.053c0.422-0.565,0.339-1.209,1.016-1.624
			c0.495,0.327,0.879,0.761,1.41,1.024c0.544,0.269,0.997,0.447,1.443,0.852c0.284,0.258,0.64,0.769,1.061,0.723
			c0.327-0.036,0.911-0.683,1.174-0.931c0.398-0.376,0.745-0.517,1.308-0.594c0.328-0.045,1.182,0.123,1.17-0.388
			c-0.007-0.306-0.94-1.068-1.138-1.354c-0.2-0.288-0.606-1.719,0.153-1.608c0.058-0.462-0.425-0.56-0.516-0.964
			c-0.126-0.557,0.075-0.79,0.469-1.121c0.15-0.127,0.283-0.259,0.402-0.397c0.777-0.897,0.935-2.021,0.938-3.242
			c0.002-0.727-0.041-1.499-0.13-2.22c-0.088-0.716-0.351-1.293-0.336-2.019c0.149-0.057,0.408-0.233,0.485-0.381
			c0.207-0.399,0.049-0.238-0.124-0.537c-0.177-0.306-0.253-0.079-0.194-0.52c0.036-0.266,0.263-0.565,0.379-0.815
			c0.209-0.451,0.191-0.782,0.554-1.04c0.533-0.38,0.725-0.364,0.212-0.949c-0.208-0.237-0.645-0.713-0.933-0.827
			c-0.417-0.165-0.77,0.033-1.213-0.225c-0.331-0.194-0.734-0.846-1.048-0.942c-0.451-0.139-0.569,0.374-0.947,0.023
			c-0.249-0.231-0.164-0.834-0.414-1.027c-0.267-0.205-0.985,0.128-1.402,0.101c-0.368-0.65-0.137-0.69-0.049-1.353
			c-0.594,0.143-1.154-0.814-1.293-1.345c-0.195-0.741,0.523-1.309,0.446-2.047c-0.274-0.131-0.743-0.294-0.71-0.666
			c0.036-0.406,0.712-0.559,1.017-0.537c-0.303-0.543-0.827-0.606-0.273-1.208c0.557-0.605,1.368-0.559,1.836-1.165
			c0.343-0.444,0.617-1.149,0.443-1.734c-0.076-0.256-0.36-0.44-0.312-0.734c0.045-0.274,0.32-0.422,0.527-0.555
			c0.243-0.156,0.475-0.276,0.744-0.385c0.198-0.08,0.458-0.264,0.636-0.311c0.463-0.123,1.065,0.043,1.525,0.121
			c0.455,0.077,0.952,0.004,1.394,0.147c0.313,0.101,0.302,0.311,0.425,0.605c0.389,0.003,0.559-0.373,0.945-0.36
			c0.631,0.022,0.047,0.538,0.188,0.937c0.396-0.143,0.885-0.014,1.291-0.156c0.267-0.094,0.568-0.237,0.758-0.462
			c0.229-0.272,0.248-0.639,0.328-0.962c0.075-0.3,0.187-0.611,0.389-0.855c-0.003-0.53-0.2-0.997-0.246-1.504
			c-0.053-0.584,0.487-0.462,0.918-0.511c0.746-0.085,1.508-0.252,2.167-0.604c0.703-0.376,1.325-0.879,2.044-1.255
			c0.259-0.135,0.65-0.337,0.942-0.391c0.294-0.055,0.603,0.03,0.894,0.052c1.263,0.098,2.85-0.572,3.481-1.676
			c0.152-0.266,0.22-0.41,0.55-0.407c0.318,0.004,0.62,0.153,0.932,0.202c0.661,0.103,0.933,0.088,1.25-0.499
			c0.354-0.655,0.81-1.398,1.331-1.921c0.032-0.032,0.14-0.072,0.178-0.097c0.348,0.428,0.943,0.064,1.352-0.111
			c0.466-0.199,0.437-0.296,0.434-0.738c-0.002-0.359,0.013-0.714-0.11-1.058c-0.109-0.302-0.3-0.641-0.499-0.891
			c-0.138-0.174-0.44-0.342-0.52-0.536c-0.115-0.279,0.104-1.082,0.336-1.25c0.577-0.418,1.214,0.351,1.699,0.304
			c0.257-0.025,0.519-0.24,0.745-0.35c0.186-0.09,0.369-0.16,0.552-0.221c0.258-0.086,0.518-0.156,0.793-0.244
			c0.626-0.198,1.088-0.698,1.691-0.302c0.222,0.146,0.411,0.332,0.566,0.545c0.149,0.203,0.267,0.43,0.35,0.668
			c0.296,0.038,0.884-0.033,1.06,0.263c0.097,0.162-0.069,0.35,0.048,0.536c0.407-0.038,0.528-0.306,0.855-0.455
			c0.579-0.264,0.712,0.127,1.127,0.353c0.235-0.243,0.224-0.722,0.637-0.669c0.39,0.05,0.441,0.467,0.638,0.706
			c0.337,0.407,0.767,0.436,1.269,0.408c0.285-0.016,0.587-0.061,0.868-0.101c0.225-0.032,0.914,0,1.073-0.138
			c0.134-0.117,0.19-0.514,0.264-0.685c0.098-0.225,0.167-0.358,0.181-0.61c0.005-0.095,0-0.186-0.012-0.275
			c-0.043-0.311-0.192-0.589-0.446-0.814c-0.386-0.342-0.934-0.27-1.347-0.546c-0.454-0.304-0.264-0.792-0.306-1.269
			c-0.038-0.427-0.2-0.844-0.318-1.255c-0.256-0.892,0.078-1.719-0.354-2.535c-0.216-0.409-0.333-0.761-0.688-1.096
			c-0.429-0.405-0.493-0.522-0.43-1.165c0.438-0.194,0.906,0.017,1.248-0.422c0.262-0.336,0.309-0.839,0.566-1.167
			c0.264-0.337,0.55-0.022,0.857,0.089c0.317,0.115,0.903,0.365,1.227,0.151c0.199-0.132,0.248-0.33,0.332-0.537
			c0.19-0.468,0.509-0.527,0.997-0.611c0.291-0.05,0.753-0.079,0.882-0.357c0.114-0.248-0.056-0.631-0.155-0.827
			c0.235-0.1,0.488-0.075,0.737-0.084c-0.103-0.132-0.1-0.377,0.027-0.494c0.083-0.076,0.261-0.049,0.362-0.099
			c0.124-0.061,0.198-0.188,0.302-0.271c0.2-0.16,0.365-0.249,0.601-0.06c0.354,0.285-0.031,0.394-0.053,0.693
			c0.186,0.039,0.556,0.054,0.687,0.188c0.081,0.084,0.039,0.294,0.131,0.366c0.095,0.074,0.076-0.002,0.188,0.036
			c0.15,0.051,0.564-0.135,0.705,0.081c0.089,0.136,0.074,0.429,0.08,0.576c0.233-0.592,1.012,0.155,1.411-0.01
			c0.238-0.098,0.213-0.24,0.451-0.005c0.193,0.191,0.216,0.413,0.264,0.673c0.066,0.355,0.03,0.467,0.384,0.579
			c0.393,0.125,0.568-0.046,0.883-0.222c0.42-0.235,0.227,0.22,0.44,0.492c0.244,0.31,0.795,0.195,1.04,0.446
			c0.253,0.259,0.004,0.562,0.35,0.794c0.292,0.196,1.225,0.266,1.348,0.605c0.124,0.345-0.427,0.487-0.471,0.834
			c0.47,0.309,0.844,0.363,1.406,0.332c-0.142,0.205-0.357,0.408-0.42,0.653c0.197-0.107,0.413-0.18,0.612-0.284
			c0.201-0.104,0.355-0.3,0.582-0.345c0.402-0.079,1.01-0.003,1.367,0.169c0.136,0.066,0.258,0.171,0.414,0.214
			c0.187,0.052,0.384,0,0.57,0.036c0.418,0.08,0.279,0.29,0.459,0.558c0.051-0.173,0.035-0.393,0.224-0.46
			c0.161-0.057,0.466,0.056,0.626,0.075c0.015-0.634-0.748-0.649-1.224-0.687c-0.881-0.07-1.417-0.657-2.105-1.166
			c-0.769-0.569-1.652-0.938-1.134-1.992c-0.133-0.021-0.26-0.151-0.4-0.167c0.121-0.326,0.389-0.836,0.196-1.184
			c-0.203-0.366-0.537-0.277-0.698-0.715c-0.238-0.651,0.22-1.35-0.391-1.934c-0.517-0.493-1.277-0.055-1.605-0.606
			c-0.139-0.235-0.116-0.626-0.292-0.919c-0.161-0.269-0.337-0.504-0.51-0.753c-0.382-0.549-0.913-1.646-1.491-1.998
			c-0.566-0.344-1.043-0.03-1.563-0.526c-0.287-0.273-0.352-0.769-0.624-1.005c-0.214-0.187-0.514-0.074-0.779-0.251
			c-0.448-0.3-0.462-0.884-0.462-1.365c0-0.549,0.018-1.188,0.62-1.33c0.551-0.13,1.092,0.481,1.647,0.458
			c-0.064-1.019,0.073-1.944,0.318-2.919c-0.406-0.088-0.811-0.2-1.219-0.293c-0.561-0.127-1.446-0.304-1.867-0.715
			c0.133-0.206,0.322-0.396,0.425-0.617c-0.349-0.196-0.509-0.567-0.816-0.756c-0.237,0.21-0.424,0.415-0.74,0.523
			c-0.158-0.884-0.576-1.96-1.127-2.659c-0.306-0.388-0.941-0.558-1.033-1.023c-0.138-0.693,0.473-1.206,0.558-1.845
			c-0.286,0.017-0.991,0.124-1.208-0.128c-0.145-0.17-0.07-0.45-0.032-0.663c0.057-0.319,0.2-0.862,0.476-1.056
			c0.153-0.108,0.562-0.159,0.751-0.206c0.704-0.175,0.702-0.197,0.764-0.935c0.023-0.271,0.065-0.584,0.172-0.841
			c0.056-0.135,0.237-0.279,0.271-0.403c0.09-0.325-0.139-0.721-0.244-1.004c-0.058-0.156-0.094-0.503-0.252-0.58
			c-0.142-0.07-0.385,0.083-0.54,0.069c-0.386-0.035-0.523-0.332-0.683-0.64c-0.255-0.491-0.365-0.315-0.875-0.395
			c-0.845-0.131-0.636-1.044-1.124-1.518c-1.324,0-2.861-0.233-4.139,0.156c-0.462,0.141-0.869,0.47-1.321,0.671
			c-0.6,0.266-1.207,0.509-1.831,0.718c-0.989,0.331-1.688,0.032-2.511-0.529c-0.405-0.276-0.501-0.321-0.822-0.044
			c-0.338,0.291-0.295,0.186-0.696,0.071c-0.3-0.085-0.27-0.097-0.505,0.094c-0.16,0.131-0.32,0.278-0.477,0.416
			c-0.285,0.25-0.487,0.549-0.696,0.862c-0.176,0.264-0.294,0.469-0.596,0.595c-0.201,0.084-0.42,0.024-0.606,0.091
			c-0.334,0.119-0.578,0.926-0.865,0.396c-0.131-0.242,0.005-0.478-0.362-0.498c-0.272-0.015-0.262,0.108-0.416,0.297
			c-0.357,0.437-0.485,0.237-0.952,0.185c-0.399-0.045-0.984,0.377-0.89,0.793c0.115,0.511,0.75,0.927,0.681,1.386
			c-0.044,0.299-0.299,0.37-0.406,0.604c-0.1,0.217-0.034,0.564-0.034,0.8c0,0.895-0.034,1.785-0.034,2.681
			c0,0.849-0.079,1.798,0.069,2.632c0.18,1.016,1.436,1.103,1.848,1.927c0.154,0.308,0.224,0.601,0.428,0.871
			c0.262,0.348,0.631,0.603,0.785,1.033c0.287,0.802-0.09,1.676-0.165,2.474c-1.067,0-1.596-0.242-2.215-1.213
			c-0.475-0.745-0.436-0.806-1.452-0.976c-0.56-0.093-1.326-0.016-1.84-0.26c-0.35-0.166-0.18-0.129-0.41-0.404
			c-1.121-1.339-3.415-2.533-5.201-2.544c-0.474-0.003-0.99,0.092-1.448,0.201c-0.508,0.12-1.211,0.151-1.681,0.362
			c-0.764,0.345-1.346,1.208-2.137,1.448c-0.422,0.128-0.936-0.044-1.373,0.004c-0.249,0.028-0.475,0.144-0.724,0.149
			c-0.541,0.01-0.807-0.221-1.231-0.442c-0.444-0.232-0.999-0.412-1.481-0.468c-0.476-0.055-0.965,0.11-1.414,0.017
			c-0.246,0.316-0.371,0.696-0.301,1.094c-0.588,0.234-0.85,0.473-1.319,0.841c-0.278,0.218-0.607,0.42-1.024,0.312
			c-0.624-0.161-0.078-0.819-0.662-1.024c-0.391-0.138-0.927,0.412-1.21,0.614c-0.521,0.373-1.097,0.702-1.606,1.082
			c-0.405,0.303-0.403,0.475-0.351,1.043c0.034,0.371,0.193,0.702,0.256,1.058c-0.061,0.008-0.09-0.003-0.158-0.001
			c-0.059,0.522,0.204,0.73-0.177,1.172c-0.434,0.502-0.596-0.103-1.242,0.5c-0.436,0.407-0.974,1.362-1.547,1.129
			c-0.275-0.112-0.4-0.55-0.745-0.506c-0.446,0.057-0.735,0.639-1.184,0.743c-0.448-0.501-0.099-1.442-0.314-2.057
			c-0.17-0.488-0.473-0.494-0.974-0.711c-0.471-0.204-0.936-0.601-1.393-0.776c-0.499-0.191-1.351-0.042-1.932-0.017
			c-0.523,0.023-1.153,0.219-1.648,0.067c-0.281-0.087-0.356-0.205-0.608-0.193c-0.363,0.016-0.796,0.404-1.15,0.531
			c-0.201,0.072-0.569,0.211-0.791,0.154c-0.267-0.069-0.345-0.401-0.564-0.482c-0.572-0.212-0.846,0.427-1.288,0.621
			c-0.735-0.017-1.653,0.347-2.408,0.208c-0.367-0.067-0.681-0.24-1.039-0.339c-0.588-0.164-1.227-0.148-1.803-0.331
			c-0.89-0.283-2.037-0.978-3.028-0.783c-0.364,0.072-0.44,0.496-0.747,0.557c-0.359,0.071-0.76-0.391-0.992-0.607
			c-0.412,0.271-1.006,0.568-1.463,0.791c-0.636,0.311-0.549,0.011-1.084-0.196c-0.621-0.24-1.683-0.053-2.273,0.239
			c-0.709,0.35-1.37,1.292-1.766,1.975c-0.381,0.658-0.916,1.389-1.187,2.106c-0.282-0.432-0.544-1.036-0.703-1.522
			c-0.144-0.44-0.155-1.027-0.798-0.883c-0.391,0.088-0.648,0.668-0.957,0.873c-0.46,0.306-0.471-0.002-0.961-0.06
			c-0.256,0.451,0.066,0.98-0.002,1.463c-0.783,0.17-1.127,0.066-1.239-0.749c-0.516,0.192-1.344,0.249-1.731,0.629
			c-0.262,0.257-0.327,0.715-0.496,1.034c-0.199,0.377-0.439,0.755-0.663,1.118c-0.281,0.455-0.573,0.9-0.818,1.377
			c-0.145,0.284-0.782,1.169-0.692,1.477c0.095,0.324,0.452,0.09,0.357,0.547c-0.074,0.358-0.278,0.362-0.599,0.345
			c-0.026,0.59,0.251,1.858-0.038,2.356c-0.216,0.373-1.24,0.576-1.634,0.684c-0.707,0.193-0.991-0.341-1.655-0.066
			c-0.75,0.31-1.016,0.365-1.696-0.026c-0.13,0.378-0.151,0.821-0.259,1.168c-0.243-0.179-0.494-0.196-0.723-0.388
			c-0.227-0.19-0.167-0.446-0.507-0.477c-0.211,0.566,0.098,1.123-0.291,1.629c-0.159,0.207-0.302,0.238-0.389,0.473
			c-0.089,0.241,0.01,0.607-0.057,0.873c-0.321-0.097-0.679-0.42-0.986-0.424c-0.184,0.53-0.206,1.361-0.699,1.672
			c-0.55,0.346-1.607,0.404-2.252,0.559c-0.693,0.165-1.632,0.236-2.204,0.689c-0.753,0.597-0.678,1.722-0.677,2.581
			c0,0.118-0.003,0.392-0.027,0.717c-0.071,0.979-0.32,2.421-1.188,1.448c-0.255-0.286-0.344-0.871-0.491-1.219
			c-0.033-0.077-0.069-0.153-0.104-0.229c-0.157-0.332-0.339-0.655-0.506-0.978c-0.288-0.558-0.746-1.078-1.152-1.545
			c-0.957,0.769-1.544,1.306-2.782,0.675c0.029-0.099-0.037-0.254-0.01-0.353c-0.695-0.153-1.665,0.071-2.271-0.335
			c-0.799-0.534,0.04-1.116-0.281-1.736c-0.711-0.065-1.575,0.148-2.251,0.343c-0.878,0.253-1.64,0.426-2.53,0.588
			c-0.557,0.101-1.158,0.252-1.723,0.309c-0.871,0.087-0.956-0.23-1.572-0.644c-0.837-0.561-2.065,0.027-2.835,0.443
			c-0.619,0.334-0.808,0.218-1.377-0.291c-0.437-0.391-0.642-0.336-1.289-0.336c-0.036,0-0.072-0.001-0.107-0.001
			c-0.446-0.007-0.845-0.047-1.235,0.161c-0.028,0.015-0.056,0.031-0.083,0.049c-0.338,0.213-0.454,0.44-0.902,0.36
			c-0.421-0.456-1.113-0.718-1.466-1.23c-0.34-0.493-0.332-1.223-0.51-1.785c-0.375-1.184-2.014-0.823-3.02-1.172
			c-0.822-0.285-1.537-0.803-2.382-0.539c-0.656,0.205-1.297,0.803-1.925,0.476c-1.189-0.619-2.313-1.508-3.497-2.24
			c-0.011-0.007-0.022-0.014-0.034-0.021c-0.603-0.371-1.221-0.702-1.872-0.933c-0.667-0.237-1.9-0.178-2.542,0.056
			c-0.407,0.149-0.57,0.284-1.001,0.304c-0.314,0.015-0.632-0.022-0.945,0c-0.757,0.053-0.831,0.857-1.596,1.03
			c-0.971,0.219-1.114-0.472-1.763-0.933c-0.307,0.295-1.245,0.106-1.645,0.008c-0.605-0.148-1.336-0.602-1.971-0.449
			c-0.069,0.342-0.012,0.75-0.133,1.073c-0.124,0.332-0.576,0.498-0.665,0.79c-0.172,0.567,0.638,0.896,0.49,1.417
			c-0.062,0.216-0.244,0.344-0.449,0.455c-0.384,0.208-0.85,0.359-0.765,0.924c0.084,0.56,0.407,0.698,0.186,1.345
			c-0.078,0.228-0.205,0.429-0.364,0.597c-0.416,0.438-1.059,0.641-1.678,0.442c-0.524-0.169-0.458-0.721-1.064-0.753
			c-0.413-0.022-0.889,0.21-1.277,0.313c-0.744,0.195-1.6,0.43-2.094,1.082c-0.233,0.308-0.313,0.767-0.408,1.141
			c-0.079,0.308-0.02,0.891-0.157,1.14c-0.138,0.252-0.659,0.399-0.875,0.577c-0.072,0.06-0.141,0.119-0.209,0.178
			c-0.195,0.168-0.38,0.332-0.618,0.482c-0.555,0.351-1.115,0.273-1.551,0.693c-0.359,0.345-0.762,0.795-1.236,0.975
			c-0.78,0.296-1.396-0.027-1.862,0.866c-0.505,0-1.006,0.013-1.507-0.05C9.1,82.343,9.111,82.852,9.171,83.24
			c0.046,0.304,0.288,0.616,0.242,0.924c-0.13,0.886-0.902,1.555-1.737,1.502c0.088,1.406-1.143,1.205-2.238,1.309
			c-0.005,0.502,0.33,1.094,0.543,1.536C6.329,89.232,6.47,89.676,6.485,90.493z"/>
	</g>
</g>
<g id="Layer_1">
</g>
</svg>
