<?xml version="1.0" encoding="utf-8"?>
<!-- Generator: Adobe Illustrator 26.0.3, SVG Export Plug-In . SVG Version: 6.00 Build 0)  -->
<svg version="1.1" id="Layer_1" xmlns="http://www.w3.org/2000/svg" xmlns:xlink="http://www.w3.org/1999/xlink" x="0px" y="0px"
	 viewBox="0 0 200 200" enable-background="new 0 0 200 200" xml:space="preserve">
<g>
	<path fill="#1E8346" d="M98.008,72.154L97.14,72.37C97.492,72.484,97.888,72.638,98.008,72.154z"/>
	<polygon fill="#1E8346" points="97.325,70.496 97.747,70.688 97.5,70.259 	"/>
	<path fill="#1E8346" d="M153.39,121.488c0.241,0.065,0.396,0.127,0.485-0.183L153.39,121.488z"/>
	<path fill="#1E8346" d="M98.447,70.407c0.184-0.384-0.731-0.503-0.913-0.621C97.389,70.327,98.052,70.454,98.447,70.407z"/>
	<path fill="#1E8346" d="M137.316,69.514c-0.891-2.445-1.291-0.534-0.766,0.93C136.956,70.422,137.198,69.826,137.316,69.514z"/>
	<path fill="#1E8346" d="M104.764,66.518c-0.273,0.366-0.002,0.961,0.198,1.293C105.004,67.466,104.914,66.831,104.764,66.518z"/>
	<path fill="#1E8346" d="M132.897,122.825c0.415,0.085,1.541,0.263,1.795,0.657c0.335-0.902,2.511-1.346,0.598-1.946
		c-0.515,0.544-2.002,0.914-2.531,0.245C131.612,122.087,131.352,124.112,132.897,122.825z"/>
	<path fill="#1E8346" d="M107.39,65.693c0.412-0.292,1.256-0.709,0.92-1.349C107.425,64.297,105.018,66.441,107.39,65.693z"/>
	<path fill="#1E8346" d="M137.152,105.34c0.342-0.365,1.007-0.952,1.56-0.734c0.351-0.782-0.81-1.253-0.732-1.986
		c-0.954-0.446-2.745-1.04-3.491,0C131.979,101.577,132.075,105.823,137.152,105.34z"/>
	<path fill="#1E8346" d="M130.82,72.239c0.426,3.045,2.322,1.147,0.152-0.55L130.82,72.239z"/>
	<path fill="#1E8346" d="M136.55,71.612h0.322c-0.101-0.352-0.234-0.969-0.723-0.92C136.149,70.707,136.55,71.612,136.55,71.612z"/>
	<path fill="#1E8346" d="M138.744,90.569c0.031-1.026-0.755-0.192-0.753,0.373C138.46,91.22,138.615,91.046,138.744,90.569z"/>
	<path fill="#1E8346" d="M187.71,122.825c1.513-1.845-1.533-2.591-2.836-1.603c-0.288,1.444-1.539,2.87-2.62,3.796
		c1.477-0.306,3.596,0.447,4.474-1.152C187.27,123.824,187.852,123.441,187.71,122.825z"/>
	<path fill="#1E8346" d="M104.817,127.296c0.596,0.05,0.941-0.597,0.291-0.845L104.817,127.296z"/>
	<path fill="#1E8346" d="M110.097,60.13c0.208-0.24,0.241-0.561,0.03-0.811l-0.536,0.642L110.097,60.13z"/>
	<path fill="#1E8346" d="M103.682,126.73l0.442,0.613c0.079-0.328,0.245-1.176,0.585-1.349
		C103.939,125.535,103.861,126.097,103.682,126.73z"/>
	<path fill="#1E8346" d="M111.264,61.48c-0.711,0.562,0.158,0.73,0.661,0.674c0.229-0.249,0.495-0.235,0.738-0.015
		C114.353,61.378,111.952,61.133,111.264,61.48z"/>
	<path fill="#1E8346" d="M110.019,115.237l-0.674-1.349c-0.452,1.032-0.492,1.877,0.015,2.864
		C109.483,116.361,109.797,115.578,110.019,115.237z"/>
	<path fill="#1E8346" d="M122.038,95.153c0.681,0.857,1.79-0.516,0.55-0.977c-0.117,0.401-0.548,0.658-0.949,0.674
		c0.998-1.366-1.38-0.992-1.933-0.386c-0.138,0.835,0.623,1.635,1.231,0.753C121.417,95.618,121.732,95.884,122.038,95.153z"/>
	<path fill="#1E8346" d="M121.09,97.328c0,0,0.182-0.459,0.182-0.491l-0.642,0.275L121.09,97.328z"/>
	<path fill="#1E8346" d="M121.398,126.545c0.9,0.032,1.519-0.952,2.148-1.47c-0.252-0.343-0.646-0.034-0.906,0.122
		c-0.25-0.063-0.741-0.123-0.965,0.045c0.495,0.445-0.427,0.744-0.662,0.984L121.398,126.545z"/>
	<path fill="#1E8346" d="M124.024,125.691l-0.386,0.395c0.36-0.088,0.793,0.071,0.999,0.382c0.154-0.248,0.848-0.922,0.585-1.257
		C125.011,125.562,124.398,125.693,124.024,125.691z"/>
	<path fill="#1E8346" d="M115.945,90.096c0,0-0.687,0.171-0.702,0.186l0.674,0.273L115.945,90.096z"/>
	<path fill="#1E8346" d="M127.393,85.945l0.367-0.704c1.431-0.079,1.647-1.931,2.633-2.659c-0.264-0.184-0.49-0.604-0.491-0.918
		c-0.876-0.284-2.256-0.48-2.173,0.826c-0.294,0.186-0.767,0.526-0.704,0.916c-0.555,0.639-1.686,0.561-1.987,1.376
		c-1.379,0.814-4.083-1.128-5.047,0.154c-0.375,0.269-0.98-0.489-1.225-0.675c-1.23,0.191-2.821-0.786-3.856-0.028
		c-1.016-0.714-2.105-1.695-3.487-1.377c0.147,1.034-0.924,1.851-1.56,2.631c-1.843-1.017-2.299,0.489-3.486,1.651
		c0.189,1.915-0.067,3.839,0.488,5.631c-0.755-1.765-1.19-0.522-2.356,0.125c-0.341,1.723,0.008,3.639-0.457,5.324
		c-0.703,0.045-0.534,0.834-0.521,1.314c-0.624,0.323-1.256,1.145-1.283,1.867c0.276,0.275-0.035,0.606-0.217,0.824
		c0.288,1.307,0.974,2.811,2.357,1.624c3.413,2.61-2.146,7.711,1.346,9.363c1.097-0.004,2.282-0.949,3.308-0.032
		c0.603-1.25-0.749-1.858-0.648-3.03c0.687-0.933,0.969-2.96,0.155-3.854c0.893-1.073,1.321-2.27,0.856-3.64
		c-1.432-0.841,0.437-1.197,0.733-2.051c0.471-0.179,2.006-0.273,1.624,0.553c1.354,1.409-1.31,2.569,0,3.946
		c0.829,0.234,2.18,1.155,2.234,2.11c-0.75-0.223-0.524,1.942-0.244,2.356c0.292,0.139,0.777,0.261,1.071,0.064
		c0.414,0.222,1.189,0.497,1.651,0.273c-0.893-1.561,1.25-1.642,2.174-2.356c0.495,0.051,1.472,0.224,1.714-0.393
		c0.592,0.506,1.573-0.062,1.191-0.802c-0.833-0.088-1.783-0.041-2.599,0.034c-0.027-0.325,0.006-0.75-0.459-0.674
		c0.178-0.557-0.373-0.562-0.706-0.277c-0.121-1.211-1.823-0.147-0.335-2.08l0.307,0.12l-0.246-0.521
		c1.033-0.096,0.238-1.052-0.427-1.071c0.696-0.69-0.39-1.431-1.071-1.376c0.011-1.561-2.619-2.261-2.417-3.7
		c0.319-0.071,0.439,0.213,0.52,0.459c0.694,0.179,1.506-0.279,1.624-1.009c1.765-0.41,3.788-2.034,4.312-3.521
		c0.763-0.437,1.526,0.212,2.264,0.275c1.913-1.914-0.413-2.254-2.049-1.867c-1.022,1.056-2.604,0.09-3.429,1.53
		c-1.088,0.123-1.97-0.213-2.966-0.614c-0.9,0.745-1.028,2.588-2.232,2.908c-3.356-0.834-5.863-7.146-1.347-8.535
		c1.798,1.447,3.266-0.338,5.077-0.06c0.082,0.689,4.296,0.521,4.714,0.123c0.644-0.035,1.713,0.062,1.895,0.826
		C123.382,87.909,126.291,86.883,127.393,85.945z"/>
	<polygon fill="#1E8346" points="121.794,96.653 122.403,96.745 122.159,96.32 	"/>
	<polygon fill="#1E8346" points="123.414,96.039 123.264,95.458 122.77,95.828 	"/>
	<path fill="#1E8346" d="M151.15,97.471l1.169-0.358c-0.557-0.138-0.237-0.943-0.77-1.193
		C149.69,96.184,148.748,96.956,151.15,97.471z"/>
	<path fill="#1E8346" d="M140.018,90.493c-1.143-0.032-0.858,0.959-0.32,1.564c0.409-0.085,0.944,0.04,1.178,0.414
		c0.695-0.442,0.116-0.84-0.429-1.009C140.561,91.051,140.435,90.658,140.018,90.493z"/>
	<path fill="#1E8346" d="M115.072,110.762c-0.282,0.86-0.304,2.574,1.016,1.438C115.995,111.779,115.668,110.295,115.072,110.762z"
		/>
	<path fill="#1E8346" d="M110.229,119.778c-0.309-0.187-0.674-0.415-0.913,0C109.646,120.161,109.908,120.183,110.229,119.778z"/>
	<path fill="#1E8346" d="M126.021,125.676c0.591,0.45,3.472-0.503,2.24-1.165c-0.762,0.197-1.725-0.198-2.381,0.288l0.339,0.249
		C126.026,125.2,125.886,125.437,126.021,125.676z"/>
	<path fill="#1E8346" d="M114.64,90.493c0.2,0.424,0.55,0.532,0.969,0.339C115.39,90.678,114.926,90.383,114.64,90.493z"/>
	<path fill="#1E8346" d="M144.333,79.537c1.981-1.885-2.312-2.061-1.106,0.369C143.469,79.576,143.942,79.415,144.333,79.537z"/>
	<path fill="#1E8346" d="M116.961,111.725c0.198,0.336,0.764,0.244,1.075,0.184c0.022-0.244,0.182-0.419,0.431-0.431
		c-0.047-0.448,0.268-1.006,0.629-1.257c0.118-1.481-1.02-1.104-1.658-0.213c0.518,0.47-0.232,1.014-0.509,1.362
		C116.961,111.36,116.961,111.725,116.961,111.725z"/>
	<path fill="#1E8346" d="M196.862,117.774c0.258-0.241,0.779-16.913,0.796-17.827c-2.415,0.823,0.495-1.887-4.826-1.458
		c-2.728-1.567-6.254-1.757-8.677-3.732c-0.976-0.29-4.16,0.983-2.868,2.318c-0.081,1.025-1.904,0.788-2.697,1.107
		c-0.963-0.354-0.766,2.083-2.424,1.593c-0.401,0.44-0.652,1.351-0.534,1.937c-0.634,0.105-1.1,0.68-1.15,1.304
		c-1.295,0.998-2.84-0.439-3.243-1.682l-0.275,0.184c-0.148-1.651-1.174-3.166-1.045-0.489c-1.826-0.531-1.168-3.292-1.743-4.68
		c2.307-2.684-1.006-2.264,0.245-4.436c-0.548-0.78-2.284-0.382-3.12-0.431c-1.836-1.506-4.57-2.48-6.304-0.304
		c-0.421,0.024-1,0.412-1.253,0.735c-0.674-0.074-2.347,0.176-1.498,1.129c0.162,0.889-1.259,0.954-1.258,1.777
		c0.636,0.203,1.567,0.134,1.897-0.551c3.956,2.359,0.006,3.644,5.143,4.159c0.767-0.333,2.375-0.117,3.273-0.333l-0.305-0.431
		c1.067,0.125,2.987,0.016,2.26,1.714c-0.681-0.477-0.998,0.843-1.252,1.285c-0.357-0.768-1.649-1.656-2.478-1.163
		c-0.045,0.631-0.48,1.308-1.101,1.5c-1.068-0.375-2.685-1.395-3.395-0.03c1.145,0.887,2.096,0.589,2.781,2.323
		c0.806-0.618,0.861,1.057,0.185,1.132c-0.206,2.083,2.116,3.036,3.09,0.95c-0.085-1.556,1.377-2.874,1.805-4.439
		c-0.146,1.513-0.748,2.751,0.593,4.136c0.469-1.004,1.055-0.14,1.031,0.568c0.464-0.9,0.817,0.145,1.455,0.216
		c0.318-0.165,1.312-0.528,1.396,0.015c-1.2-0.416-1.357,0.85-0.092,0.811c1.113,1.933,7.325,2.246,9.598,3.128
		c0.172,1.195,1.939,1.627,2.815,0.855c-0.473,0.404-1.056,1.408,0.093,0.892c0.141,0.514,0.921,0.189,1.257,0.149
		c-0.34,0.292-0.841,0.488-0.279,0.888c-0.529,0.617,0.714,0.68,1.103,0.582c-1.282,0.736-0.794,1.261,0.092,2.049
		c-0.864,1.671,1.515,2.05,2.215,3.16c-3.082-0.006,0.406,1.73,1.731,1.442c-0.723,0.143-1.508,0.374-2.221,0.391
		c0.188,0.317,0.629,0.772,1.013,0.824c-0.233,0.878-0.154,2.266-0.998,2.761c0.379,0.807,0.948,0.406,1.515,0.064
		c0.373,0.649,1.2,0.335,1.69,0c0.984,0.208,2.07,0.05,2.023-1.197c0.081,0.46,0.009,1.226-0.354,1.566
		c-0.126,0.903,1.449,1.156,1.38,1.95C198.355,133.992,196.693,119.132,196.862,117.774z"/>
	<path fill="#1E8346" d="M63.616,94.961c0.447,0.025,1.089-0.721,1.353-1.011c-0.332-0.415-1.175-0.523-1.664-0.484
		C63.476,93.98,63.095,94.587,63.616,94.961z"/>
	<path fill="#1E8346" d="M80.2,119.181c-5.721-1.628-3.877,2.074-1.963,0.918c1.082,0.085,2.871,0.026,3.525-0.888
		C81.48,118.904,80.541,119.131,80.2,119.181z"/>
	<path fill="#1E8346" d="M87.43,119.017c0.164,0.035,0.519,0.088,0.685,0.07C85.657,117.131,86.177,120.726,87.43,119.017z"/>
	<path fill="#1E8346" d="M92.319,125.32c-3.048-1.344-1.55,1.702-3.161,1.317c-1.109,0.515,0.926,0.911,1.274,1.044
		c0.371-0.205,1.017-0.397,1.397-0.107C91.581,126.831,92.345,126.092,92.319,125.32z"/>
	<path fill="#1E8346" d="M63.057,90.584l-1.035-0.307C61.293,90.857,63.617,91.398,63.057,90.584z"/>
	<path fill="#1E8346" d="M60.517,96.325c1.16,0.749,1.092-0.726-0.062-0.435L60.517,96.325z"/>
	<path fill="#1E8346" d="M92.005,103.868c-0.528-0.66-0.321,0.964-0.331,1.197C92.064,105.179,91.932,104.028,92.005,103.868z"/>
	<path fill="#1E8346" d="M91.468,105.185c0.263-3.976-1.975,0.108-0.875,1.306C91.085,106.3,91.435,105.694,91.468,105.185z"/>
	<path fill="#1E8346" d="M176.133,93.256c0.418,0.122,1.136,0.182,1.59,0c-1.25-1.139-2.209-2.32-4.101-2.23
		c0.036,0.278,0.673,0.848,0.86,1.035l-0.032-0.487c0.45-0.191,0.943,0.763,1.161,1.009
		C175.381,93.124,175.633,93.208,176.133,93.256z"/>
	<path fill="#1E8346" d="M87.592,127.144c0.472-0.152,0.44-0.33,0.17-0.693C87.549,126.679,87.18,126.885,87.592,127.144z"/>
	<path fill="#1E8346" d="M89.588,120.333c-0.131,0.072-0.675,0.024-0.822,0.019C88.853,120.627,89.633,120.723,89.588,120.333z"/>
	<path fill="#1E8346" d="M91.625,99.494c0.821,0.494,1.033-0.368,0.826-1.045c-0.222,0.047-0.606,0.06-0.766-0.139
		c1.056-0.7,0.674-1.543-0.581-1.21c0.201-0.235,0.426-0.582,0.182-0.871c0.733,0.229,1.537-0.108,1.475-0.954
		c0.657-0.523,1.045-1.524,0.551-2.296c0.408,0.043,0.664,0.692,0.785,1.01c0.798-0.716,1.586-1.6,0.828-2.629
		c2.381-1.334,1.192-4.939,3.243-6.517l0.397,0.521c0.395-0.289,0.051-1.202-0.03-1.562c0.486,0.498,1.534,1.672,2.355,1.468
		c0.318-0.317,0.794-0.554,1.197-0.242c0.723-0.159,1.042-1.175,0.06-1.133c-0.702-1.353-2.828-2.292-4.01-3.365
		c-1.246-2.8,0.431-0.644,1.131-2.604c-1.275-0.832-2.042-2.58-3.024-3.546c1.061-1.52,0.549-0.838-0.459-2.203
		c0.564-0.444,1.633,0.071,2.294-0.337c-0.358-0.524-1.051-1.22-1.715-1.317c0.159-0.191,0.349-0.567,0.213-0.824
		c0.151-0.023,0.547-0.061,0.476-0.324c-11.256-2.805-5.381,3.163-12.299,11.749c0.711,1.044-1.486,0.718-1.899,0.949
		c-0.6,0.358-2.014,1.183-2.753,0.978c-1.556-2.383-4.544-0.138-6.459,0.529c-1.146-0.259-2.92,0.192-3.984,0.108
		c0.007,0.786-1.432,0.853-1.993,0.753c-0.779-1.764-3.026-2.623-3.683-4.485c-1.674,0.788-3.036,3.216-2.693,5.023
		c-1.729,0.917,0.608,3.137,1.182,4.182c-0.253-0.144-0.57-0.338-0.753,0.015c0.859,2.727,3.622-0.058,5.175,0.448
		c-0.618-0.257-1.399,0.326-1.814,0.723c-0.763,0.152-2.845,0.82-2.885,1.364c2.198,0.313,5.181,3.059,2.732,4.963
		c1.7,0.945,0.548,6.829,2.812,4.522c0.127,0.858,1.224,0.467,1.795,0.845c0.549,0.033,1.422-0.182,1.797-0.612
		c0.725,0.882,1.612-0.519,1.366-1.259c0.241,1.31,0.655,3.024,0.476,4.462c0.911,0.324,1.256-1.365,2.087-1.351
		c0.321,0.463,1.136,0.564,1.246-0.107l1.041-0.156c0.47-0.767,1.187-0.947,1.867-0.303c0.343-0.337,0.658-0.276,0.947,0.09
		c-0.187,0.777,0.415,1.26,1.129,1.332c-0.325-0.355-0.246-0.871,0.006-1.24c0.179,0.594,0.871,1.118,1.438,0.644
		c0.224,0.284,0.449,0.813,0.858,0.425c0.682,0.761,0.384,1.822,0.672,2.753c2.909-0.673,6.407-1.837,6.363-5.41
		c0.485,1.16,1.072-0.667,1.274-1.033c-0.232-0.264-0.783-0.532-0.598-0.948L91.625,99.494z"/>
	<path fill="#1E8346" d="M88.414,125.168c-0.643-1.194-2.02-1.64-3.214-0.944c-0.647-0.251-2.188-0.421-1.897,0.668
		c0.537,0.988,2.513,0.723,2.817,2.083C86.56,125.93,88.066,126.064,88.414,125.168z"/>
	<path fill="#1E8346" d="M64.346,93.177c-0.081-0.642-1.281-1.001-1.918-1.054C62.14,93.171,63.619,93.199,64.346,93.177z"/>
	<path fill="#1E8346" d="M153.875,121.306l0.012-0.002C153.886,121.297,153.882,121.3,153.875,121.306z"/>
	<polygon fill="#1E8346" points="172.644,95.369 173.135,95.153 172.032,95.153 	"/>
	<path fill="#1E8346" d="M153.837,120.907c0.306,0.18,0.936,0.369,1.106-0.077L153.837,120.907z"/>
	<path fill="#1E8346" d="M155.324,92.655c-1.031-0.651-1.767,0.597-1.515,1.536C155.09,94.826,155.256,93.622,155.324,92.655z"/>
	<path fill="#1E8346" d="M170.748,92.614c0.245,0.346,0.613,0.632,1.041,0.397C171.531,92.68,171.181,92.322,170.748,92.614z"/>
	<path fill="#1E8346" d="M154.82,124.17l0.199-0.26c-0.469-0.167-1.271,0.332-1.366,0.809
		C154.023,124.722,154.57,124.434,154.82,124.17z"/>
	<path fill="#1E8346" d="M155.572,89.867c3.065,0.58-0.587-2.563-2.011-0.766c-0.324,0.029-1.568-0.092-0.83,0.461l-0.581,0.167
		c0.724-0.167,2.665,1.175,2.701,0.081c-0.146-0.074-0.786-0.252-0.798-0.467C154.278,88.911,155.329,89.798,155.572,89.867z"/>
	<path fill="#1E8346" d="M147.678,88.764l1.154,0.629c0.141-0.516-1.457-1.044-1.733-1.24L147.678,88.764z"/>
	<path fill="#1E8346" d="M145.137,83.957c2.778-4.614-4.018-1.454-2.204-0.888c-0.166,0.332-0.765,0.65-1.099,0.764
		c-0.197,0.911-0.867,0.96-1.135,0.062c1.377-0.996,1.787-0.943,1.624-3.002c-1.055-0.198-0.961-0.917-0.244-1.498
		c0.482-1.696-1.266,0.44-1.622,0.708c-0.453,0.794,0.191,2.279-0.706,2.689c-0.572,1.482,1.092,2.358,0.155,3.914
		c0.999,0.496,0.95,1.662,0.52,2.573c0.465,1.077,1.838,1.652,2.111,2.876c0.477,0.082,0.917,0.468,0.918,0.978
		c0.006-0.283,0.044-0.627,0.397-0.644c-1.148-0.997-1.755-2.568-2.388-3.945c-0.605-3.308,2.493-0.854,4.101-1.069
		c-0.312-0.155-0.522-0.621-0.551-0.95C142.79,85.294,142.318,84.804,145.137,83.957z"/>
	<path fill="#1E8346" d="M174.051,95.766c1.549,0.765,4.007,1.168,5.568,0.273c-1.339-0.135-3.107-0.716-4.283-0.063
		C175.213,96.068,173.061,94.872,174.051,95.766z"/>
	<polygon fill="#1E8346" points="154.803,91.779 154.114,91.89 154.481,92.29 	"/>
	<path fill="#1E8346" d="M152.516,92.243c0.397,0.392,1.198,0.313,1.675,0.152C153.76,92.152,152.979,92.03,152.516,92.243z"/>
	<path fill="#1E8346" d="M161.681,113.424c-0.019,0.31,0.025,0.828,0.339,0.997c0.151-0.59-0.125-1.4-0.568-1.807L161.681,113.424z"
		/>
	<path fill="#1E8346" d="M170.265,112.677c-0.153-0.246-0.373-0.641-0.725-0.478C169.69,112.385,169.976,112.776,170.265,112.677z"
		/>
	<path fill="#1E8346" d="M162.526,113.995l-0.307,0.506c0.997-0.121,0.95-2.101,1.519-2.729
		C162.793,111.869,162.653,113.291,162.526,113.995z"/>
	<path fill="#1E8346" d="M170.014,117.026c-0.062-0.334-0.5-1.012-0.818-0.591C169.14,116.922,169.573,117.224,170.014,117.026z"/>
	<path fill="#1E8346" d="M170.487,117.807l-0.09-0.335C170.022,117.689,170.109,118.28,170.487,117.807z"/>
	<path fill="#1E8346" d="M170.443,115.116c-0.263-0.113-0.068-0.789-0.584-0.764C167.192,114.697,170.222,117.235,170.443,115.116z"
		/>
	<path fill="#1E8346" d="M167.976,113.417l-0.107,0.294C168.232,113.831,168.402,113.34,167.976,113.417z"/>
	<path fill="#1E8346" d="M168.989,112.416c-0.134,0.259-0.389,0.783-0.751,0.751c0.614,0.003,0.318,0.619,0.905,0.38
		C166.802,115.533,172.884,113.442,168.989,112.416z"/>
	<path fill="#1E8346" d="M130.93,97.01c1.054,0.53,2.709-0.227,3.775-0.416c-1.316-0.272-2.97-0.419-4.144-0.122
		C130.773,96.565,130.981,96.757,130.93,97.01z"/>
	<path fill="#1E8346" d="M130.791,124.814l-0.229-0.293C130.203,124.873,130.39,125.246,130.791,124.814z"/>
	<path fill="#1E8346" d="M132.603,97.671c0.163,0.51,0.246,1.694,0.86,1.854c0.159-0.646-0.798-1.321-0.553-2.023L132.603,97.671z"
		/>
	<path fill="#1E8346" d="M167.715,115.278c0.292,0.288,0.95,1.294,1.396,0.828C168.642,115.887,167.87,114.078,167.715,115.278z"/>
	<path fill="#1E8346" d="M129.672,96.841l0.659,0.079c0.176-0.855-0.533-1.152-1.105-0.527c-2.803-1.935-4.322,2.455-0.907,0.649
		C128.708,97.27,129.326,97.064,129.672,96.841z"/>
	<path fill="#1E8346" d="M167.651,117.408c-0.378,2.619,3.427,0.228-0.064-1.705c0.06,0.735,0.225,1.41,0.644,2.019
		C168.108,117.573,167.863,117.361,167.651,117.408z"/>
	<path fill="#1E8346" d="M157.277,119.908c-0.395-0.2-0.99-0.006-0.909,0.51c-0.305,0.36-1.669,1.105-1.044,1.716
		c-0.996,0.445-0.23,1.884,0.678,1.376C157.04,122.588,157.375,121.111,157.277,119.908z"/>
	<path fill="#1E8346" d="M186.805,124.202l-0.35,0.661c0.396-0.02,1.141,0.612,1.391,0.105
		C187.689,124.427,187.512,123.495,186.805,124.202z"/>
	<path fill="#1E8346" d="M128.764,130.36c0.938-0.368,1.64-1.575,2.827-1.161c17.791-5.778-12.457-2.856-9.532,4.313
		c-0.249,0.047-0.624-0.047-0.802-0.235C120.088,136.859,128.258,131.681,128.764,130.36z"/>
	<path fill="#1E8346" d="M145.653,124.921c-0.215-0.268-0.845-0.19-1.135-0.152C144.769,125,145.345,124.981,145.653,124.921z"/>
	<path fill="#1E8346" d="M146.392,103.597c0.53-0.006,2.086,0.541,2.232-0.335c1.061-0.282,2.288,1.17,3.307,1.161
		c0.525,0.787,1.86,1.683,2.144,0.218c0.021-2.833-3.572-2.41-5.112-3.829c-0.608-0.213-1.304,0.091-1.682,0.583
		c-1.366-0.325-3.072-0.273-4.5-0.275c-0.431,0.466-0.35,1.184-1.129,1.221c-0.754,1.899,0.734,1.395,1.193,0.062
		C144.76,105.626,145.21,101.131,146.392,103.597z"/>
	<path fill="#1E8346" d="M113.86,134.886l-0.416,0.691C114.902,136.051,115.143,134.254,113.86,134.886z"/>
	<path fill="#1E8346" d="M116.408,126.974c0.382,0.196,0.75,0.245,0.98-0.185c0.986,0.185,1.284-0.96,2.081-1.193
		c1.016-1.088-0.267-2.444-1.317-1.345c0.817,0.268-0.461,1.154-0.92,1.161c-0.236,0.517-0.917,0.704-1.436,0.674
		c-0.603-0.709-1.929-0.538-2.661-0.12c-1.071-1.097-2.734-0.686-3.886-1.377c-5.533,1.266-4.151,2.586,0.343,3.32
		c1.009-0.413,1.977,0.143,2.977-0.673C113.858,127.816,115.097,126.716,116.408,126.974z"/>
	<path fill="#1E8346" d="M144.747,104.459c0.065-0.424-0.232-0.279-0.506-0.246C144.342,104.471,144.472,104.612,144.747,104.459z"
		/>
	<polygon fill="#1E8346" points="158.704,118.667 158.245,119.161 158.933,118.805 	"/>
	<path fill="#1E8346" d="M158.58,120.062c-0.116-0.423-0.691-0.529-1.059-0.55L158.58,120.062z"/>
	<path fill="#1E8346" d="M92.878,128.228c0.463,0.379,1.352,0.279,1.869,0.09c0.599,0.413,1.584,0.087,1.895-0.551
		c0.479,0.343,1.224,0.175,1.682-0.119c0.65,0.345,1.357-0.173,1.777-0.642c0.157,0.971,1.548,0.285,2.264,0.612l-0.552-0.459
		c0.792,0.077,1.304,0.024,1.193-0.916l-0.305,0.365c-0.363-0.782,0.11-1.637-1.041-1.654c0.083,0.377,0.222,0.796-0.307,0.856
		c0.109-1.015-1.028-1.459-1.805-0.946c-0.817-0.656-1.728-0.979-2.539-0.152c-0.076,0.917,2.101,0.873,2.414,1.774
		c-3.599,1.271-2.028-1.575-4.31-0.856c-0.928-0.551-3.406,0.725-2.36,1.771C92.418,127.687,92.631,127.973,92.878,128.228z"/>
	<path fill="#1E8346" d="M144.149,120.141c0.328-0.317,0.075-0.459-0.214-0.645C143.395,119.769,143.555,120.233,144.149,120.141z"
		/>
	<path fill="#1E8346" d="M143.875,104.275h-0.431c0.01,0.344,0.185,0.44,0.508,0.386L143.875,104.275z"/>
	<path fill="#1E8346" d="M141.187,125c0.315-0.158,1.244-0.235,0.997-0.798c-0.43,0.174-1.494,0.099-1.948,0.047
		C140.196,124.63,140.941,124.87,141.187,125z"/>
	<path fill="#1E8346" d="M32.297,111.486l-0.523,0.216l1.075,0.783C32.949,112.054,32.673,111.669,32.297,111.486z"/>
	<path fill="#1E8346" d="M12.219,82.179c-0.706-0.445-0.93,0.494-1.795,0.277c0.495,0.399,1.222,1.242,1.187,1.927
		c0.658-0.136,1.155,1.246,1.406,1.643C14.592,84.76,12.889,83.517,12.219,82.179z"/>
	<path fill="#1E8346" d="M20.68,97.983c0.209,0.502,0.93,0.868,1.438,0.947l-1.011-1.438L20.68,97.983z"/>
	<path fill="#1E8346" d="M24.811,101.689c-0.626-0.559-1.015-0.832-1.439,0.087l1.562,1.439
		C24.808,102.835,24.713,102.081,24.811,101.689z"/>
	<path fill="#1E8346" d="M17.377,92.934c-0.971,0.587-1.413,1.446,0.029,1.712c0.397,0.686,1.23,2.031,2.172,1.991
		C19.846,95.271,18.871,93.142,17.377,92.934z"/>
	<polygon fill="#1E8346" points="11.007,79.015 10.378,79.23 11.374,79.554 	"/>
	<path fill="#1E8346" d="M17.859,88.457c0.361-0.885-1.116-1.138-1.364-0.277C16.823,88.181,17.643,88.133,17.859,88.457z"/>
	<path fill="#1E8346" d="M16.587,90.774c-0.912-0.71-1.363,0.718-0.581,1.218C16.349,91.726,16.745,91.242,16.587,90.774z"/>
	<polygon fill="#1E8346" points="22.669,100.187 22.792,101.103 23.435,100.524 	"/>
	<polygon fill="#1E8346" points="148.001,117.55 147.571,117.873 148.156,117.903 	"/>
	<path fill="#1E8346" d="M45.74,112.395c2.21,3.783,1.647-1.874,2.172-3.395c-0.542-0.936-0.32-2.374,0.245-3.244
		c-0.433-0.385-0.358-1.484-0.307-1.991c0.829-0.177,1.29-0.932,0.98-1.741c-1.768-0.499-1.718-2.691-3.306-3.186
		c-1.185,0.213-2.479,0.388-2.232-1.221c-0.317-0.405-0.613-1.115-1.161-0.489c0.69-0.925-0.244-2.691-0.064-3.822
		c-0.437,0.163-1.136,0.603-1.438,0c-2.489,0.17-4.667-1.468-1.218-2.665c-0.371-0.346-1.112-0.339-1.564-0.199
		c-0.353-0.318-1.069-0.018-1.427,0.137c1.744-1.694,4.183-1.521,1.379-3.871c-1.308-0.367-2.272,1.5-3.679,1.169
		c4.753-2.104-0.86-1.683-1.886-3.009c0.376-1.321-1.029-2.674-1.914-3.424c-0.658-0.179-1.343,0.178-1.823-0.493
		c0.34-1.778-2.863-4.688-4.238-3.342c-0.532-0.12-0.657-1.043-0.736-1.468l-0.578,0.582c-0.455-0.344-0.506-1.361-0.491-1.869
		c-0.974-1.22-3.081-2.336-4.468-3.365c-1.161,0.156-1.62-1.584-2.844-1.377c-0.474-0.801-0.168-2.23-1.347-2.448
		c-0.233-0.83-1.168-1.454-1.468-2.262c-1.66-0.512-3.527-0.619-5.23-0.153c-1.259-0.789-3.341-2.689-4.928-1.686
		c-0.745,3.574,3.523,5.503,5.294,7.744c2.908-0.29,3.536,4.428,5.998,5.017c-0.207,0.905,0.578,1.635,0.551,2.526
		c0.281,0.451,0.944,0.559,1.425,0.472c0.481,0.53,1.321,2.11,2.223,1.692c0.025,1.864,1.417,4.347,1.98,6.478
		c2.149,0.177,2.476,2.232,3.399,3.764c1.079,0.326,1.134,1.912,1.161,2.812c1.047,1.298,1.571,3.719,1.897,5.202
		c2.054,0.798,2.733,4.122,4.711,4.378c0.655,0.743,1.832,1.167,1.622,2.388c0.626,0.258,1.605,1.282,2.02,1.805
		c0.64,0.391,2.253,1.243,2.324,2.111c2.24,0.391,3.986,3.047,5.083,4.648c0.344-0.203,0.325-0.858,0.303-1.193
		c-1.069-2.166,1.796,0.313,2.172,0.798C45.092,113.783,44.251,111.699,45.74,112.395z"/>
	<polygon fill="#1E8346" points="150.536,115.91 150.105,115.696 149.951,116.261 	"/>
	<path fill="#1E8346" d="M148.707,123.589c1.005,0.034,0.591-0.896-0.075-1.133C147.821,122.649,148.186,123.281,148.707,123.589z"
		/>
	<path fill="#1E8346" d="M45.264,117.184h-0.429C44.832,117.727,45.328,117.755,45.264,117.184z"/>
	<path fill="#1E8346" d="M149.554,123.939l-0.875,0.465C149.051,124.505,149.385,124.252,149.554,123.939z"/>
	<path fill="#1E8346" d="M70.766,124.603c0.801,0.761,1.304,0.816,2.049-0.064c1.167,0.078,2.33,1.138,3.534,0.811
		c2.081-1.902,3.482,1.754,5.584,1.274c1.21,1.685,1.48-0.6,0.408-1.107c0.572-0.525,1.01-2.44,0.218-2.915
		c-0.311-0.05-0.822-0.066-0.935-0.403c-0.672-0.13-1.26,0.516-1.931,0.403c-0.44-0.465-1.081-0.328-1.581-0.062
		c-1.468-0.301-1.537-1.896-2.407-2.812c0.27-1.309-0.768-1.407-1.73-0.873c-0.299-0.432-0.782-0.806-1.334-0.613
		c-0.776-0.943-1.754-1.238-2.91-0.98c-0.408-0.436-1.121-1.405-1.844-1.061c0.253,4.222-7.092,2.654-9.318,1.35
		c0.258-0.522-0.008-1.295-0.337-1.721c-1.951,0.186-3.738-1.21-5.506-1.303c-0.771,1.322-2.336-0.472-3.739,0.016
		c-1.112-1.071-1.134,1.731-1.577,2.378c-0.653-0.015-1.091,0.237-0.965,0.983c-0.276,0.171-0.817,0.306-0.979-0.123
		c-1.256,1.044,2.344,1.107,2.926,0.525c0.543,1.394,0.947,0.848,2.054,0.841c-2.3,1.76,1.021,2.68,2.33,1.862
		c1.715,0.314,3.323,1.547,5.074,1.933c1.361-2.441,2.071,1.147,3.31-0.725c0.485-0.219,1.268,0.409,1.62,0.67
		c1.856-0.338,3.816,1.802,5.627,2.113C68.917,124.49,70.114,124.489,70.766,124.603z"/>
	<path fill="#1E8346" d="M42.704,82.854c-0.612,0.696-1.156-0.075-1.442,1.182c0.777,0.008,1.116,0.604,1.167,1.308
		c0.693,0.05,0.703-1.05,0.815-1.493c-0.482-0.298-0.353-0.707-0.079-1.106L42.704,82.854z"/>
	<path fill="#1E8346" d="M44.283,90.597l0.339-0.28c-0.757-1.168-3.119-2.084-2.011-0.017
		C43.105,89.925,43.851,90.309,44.283,90.597z"/>
	<path fill="#1E8346" d="M40.468,84.27c0.236-0.367,0.522-1.014,0.243-1.43l-1.148,1.137L40.468,84.27z"/>
	<path fill="#1E8346" d="M42.966,91.59c-0.091-0.974-1.005-1.097-1.425-0.23C41.965,91.911,42.409,92.111,42.966,91.59z"/>
	<path fill="#1E8346" d="M142.612,105.21c1.135-1.648-0.392-0.794-1.346-0.502c0.367,0.467,0.758,0.507,1.197,0.103L142.612,105.21z
		"/>
	<path fill="#1E8346" d="M29.551,79.755l-0.719,0.137c0.304,1.619,1.132,1.517,1.993,0.275
		C30.414,79.76,30.078,78.957,29.551,79.755z"/>
	<polygon fill="#1E8346" points="49.404,75.914 49.861,75.669 49.42,75.225 	"/>
	<path fill="#1E8346" d="M32.207,81.932l-0.446,0.032C33.255,85.355,35.018,82.606,32.207,81.932z"/>
	<path fill="#1E8346" d="M4.601,75.498c-1.254,0.96,0.245,1.596,1.225,1.248C5.59,76.356,5.011,75.707,4.601,75.498z"/>
	<path fill="#1E8346" d="M35.148,85.297c2.607,1.524,0.755-2.388-0.982-2.028C33.155,84.575,33.477,85.366,35.148,85.297z"/>
	<path fill="#1E8346" d="M57.635,69.009c-1.352,0.414-1.213,1.834,0.168,1.842l-0.182,0.661
		C59.149,71.679,58.351,69.586,57.635,69.009z"/>
	<path fill="#1E8346" d="M55.849,102.965l0.723-1.116c0.28,0.654,1.169,1.227,1.347,0.201c2.235-0.935-4.121-4.021-2.752-1.052
		c-0.358,0.063-1.048,0.2-1.15,0.634l0.676,0.032c-0.172-0.324,0.349-0.445,0.536-0.561
		C55.123,101.734,55.228,102.619,55.849,102.965z"/>
	<polygon fill="#1E8346" points="52.547,101.723 52.163,101.442 52.042,102.169 	"/>
	<path fill="#1E8346" d="M48.049,74.768c-0.674-0.386-1.388-0.329-1.289,0.599C47.236,76.005,47.712,75.04,48.049,74.768z"/>
	<path fill="#1E8346" d="M50.153,99.653c-0.81-0.508-1.182-2.041-1.238-2.919c-0.555-1.401-2.332-2.208-1.212-0.013
		c-2.674-1.33-0.629-0.704-2.452,0.595c0.343,1.14,1.957,0.377,2.482,1.217c-0.022,0.423-0.001,1.021,0.506,1.148
		c0.26,2.673,2.11,0.79,2.329,2.488c0.408,0.551,0.565,0.079,0.826-0.292c-0.374-0.545-0.163-1.392,0.156-1.906L50.153,99.653z"/>
	<polygon fill="#1E8346" points="49.818,74.412 49.511,73.827 49.251,74.335 	"/>
	<polygon fill="#1E8346" points="49.343,72.709 49.404,73.445 49.861,72.952 	"/>
	<path fill="#1E8346" d="M103.682,131.564c0.701-0.303,1.276,0.048,1.62,0.672c0.62-0.088,1.142,0.72,1.406,1.163
		c0.832,0.632,3.385,0.528,3.215-0.794c-0.808-0.482-1.115-2.073-2.234-1.745c-0.517-2.278-2.771,0.13-3.946-1.715
		C101.683,129.875,100.965,131.149,103.682,131.564z"/>
	<path fill="#1E8346" d="M121.013,111.175c-1.579-0.175-0.392-1.193,0.034-1.888l0.211,0.337c-0.573-3.657-1.397-0.216-1.656,1.365
		c-1.366,1.476-0.531,3.401,0.752,1.084C120.784,111.991,121.355,111.662,121.013,111.175z"/>
	<path fill="#1E8346" d="M138.086,124.404c-0.278-0.367-0.624-0.341-0.967-0.077C137.4,124.674,137.747,124.674,138.086,124.404z"/>
	<path fill="#1E8346" d="M120.753,124.735l-0.551,0.476C120.629,125.638,121.043,125.215,120.753,124.735z"/>
	<path fill="#1E8346" d="M120.448,135.968c0.489-0.839,0.129-1.415-0.736-0.796l0.154,0.154c-0.513,0.22-1.616,0.771-1.957,1.225
		C118.375,137.054,119.981,136.117,120.448,135.968z"/>
	<path fill="#1E8346" d="M120.414,133.337l-0.446,0.704c0.573,0.457,0.583-0.346,0.77-0.689L120.414,133.337z"/>
	<path fill="#1E8346" d="M119.14,126.839c0.218-0.324,0.801-0.72,1.167-0.845C119.771,126.011,119.219,126.247,119.14,126.839z"/>
	<path fill="#1E8346" d="M138.281,121.029c-0.297,0.157-0.376,0.505-0.29,0.809l0.8-0.566L138.281,121.029z"/>
	<path fill="#1E8346" d="M97.225,73.923l0.275,0.085c0.027-0.364,0.075-0.897-0.397-0.986L97.225,73.923z"/>
	<polygon fill="#1E8346" points="138.761,91.827 138.5,91.632 138.191,92.196 139.068,92.456 	"/>
	<path fill="#1E8346" d="M140.509,96.353c1.679-0.124,2.835-0.13,0.997-1.658C140.154,94.368,138.359,95.842,140.509,96.353z"/>
	<polygon fill="#1E8346" points="140.939,102.635 140.953,102.114 140.464,102.558 	"/>
	<path fill="#1E8346" d="M141.292,101.653c0.315,0.04,0.531-0.084,0.57-0.412l-0.74,0.043L141.292,101.653z"/>
	<polygon fill="#1E8346" points="139.634,124.43 139.051,124.599 139.606,124.891 	"/>
</g>
</svg>
