<?xml version="1.0" encoding="utf-8"?>
<!-- Generator: Adobe Illustrator 26.0.3, SVG Export Plug-In . SVG Version: 6.00 Build 0)  -->
<svg version="1.1" xmlns="http://www.w3.org/2000/svg" xmlns:xlink="http://www.w3.org/1999/xlink" x="0px" y="0px"
	 viewBox="0 0 200 200" enable-background="new 0 0 200 200" xml:space="preserve">
<g id="Layer_1">
</g>
<g id="c">
	<g>
		<path fill-rule="evenodd" clip-rule="evenodd" fill="#1E8346" d="M187.44,44.665c-0.374,0.156-0.35,0.574-0.317,0.908
			c0.095,0.954,1.059,1.634,1.969,1.375c0.321-0.091,0.606-0.311,0.908-0.472c0-0.922,0-1.844,0-2.765
			C189.145,44.026,188.28,44.315,187.44,44.665z"/>
		<path fill-rule="evenodd" clip-rule="evenodd" fill="#1E8346" d="M64.651,46.742c0.034-0.03,0.063-0.061,0.096-0.092
			c-0.003-0.004-0.006-0.009-0.009-0.013L64.651,46.742z"/>
		<path fill-rule="evenodd" clip-rule="evenodd" fill="#1E8346" d="M150.558,96.948c-0.782,0.677-1.182,1.721-2.139,2.223
			c-0.198,0.103-0.474,0.263-0.632,0.198c-0.653-0.267-0.831-1.027-1.365-1.447c-0.071-0.055,0.084-0.421,0.162-0.632
			c0.038-0.101,0.138-0.179,0.213-0.265c0.498-0.572,0.759-1.214,0.204-1.853c-0.583-0.671-0.526-1.526-0.677-2.274
			c-0.562-2.784-0.449-5.427,0.635-7.325c1.106-1.934,1.358-4.134,0.421-6.289c-0.291-0.668-0.402-1.339-0.244-2.011
			c0.129-0.543,0.33-1.15,0.698-1.54c0.799-0.844,0.895-1.803,0.85-2.872c-0.05-1.175-0.28-2.291-0.893-3.295
			c-0.501-0.82-0.663-1.7-0.667-2.637c-0.008-1.495-0.067-2.99-0.037-4.484c0.014-0.713-0.15-1.28-0.52-1.916
			c-0.858-1.474-1.7-3.003-1.505-4.825c0.078-0.729-0.164-1.362-0.573-1.939c-0.596-0.84-1.326-1.608-1.785-2.515
			c-0.468-0.927-0.822-1.893-1.668-2.562c-0.485-1.31-1.323-2.399-2.144-3.506c-0.498-0.67-0.268-1.605-0.644-2.29
			c-0.376-0.685-1.041-1.206-1.5-1.856c-0.174-0.245-0.174-0.649-0.166-0.978c0.012-0.471-0.017-0.89-0.355-1.269
			c-1.147-1.288-2.291-2.58-3.404-3.898c-0.814-0.965-1.732-1.89-2.322-2.984c-0.609-1.132-1.385-2.109-2.157-3.1
			c-0.781-1.001-1.158-2.23-2.008-3.209c-0.897-1.033-1.663-2.207-2.321-3.41c-0.369-0.675-0.402-1.534-0.591-2.309
			c-0.027-0.111-0.066-0.223-0.122-0.323c-1.052-1.913-1.72-3.995-2.644-5.963c-0.34-0.724-0.987-1.359-1.138-2.106
			c-0.324-1.602-1.352-2.906-1.694-4.5c-0.13-0.608-0.765-1.122-1.217-1.638c-0.12-0.137-0.414-0.168-0.628-0.167
			c-0.39,0.002-0.642,0.291-0.729,0.616c-0.115,0.435-0.181,0.904-0.156,1.353c0.141,2.5-0.804,4.474-2.79,5.974
			c-0.274,0.207-0.528,0.444-0.78,0.68c-0.94,0.881-2.085,1.405-3.251,1.901c-0.55,0.234-1.106,0.289-1.684,0.179
			c-0.113-0.021-0.224-0.053-0.337-0.075c-1.574-0.306-3.145-0.717-4.712,0.069c-0.166,0.083-0.548,0.033-0.647-0.095
			c-0.807-1.052-1.902-0.576-2.893-0.573c-1.033,0.002-2.078,0.197-3.095,0.089c-0.96-0.102-1.823-0.048-2.656,0.434
			c-0.533,0.309-1.089,0.318-1.649,0.083c-1.311-0.549-2.637-0.714-4.048-0.376c-0.536,0.129-1.138-0.017-1.709-0.03
			c-0.344-0.008-0.712-0.084-1.027,0.012c-1.837,0.563-3.84,0.739-5.296,2.223c-0.642,0.655-1.329,1.266-1.966,1.925
			c-0.532,0.551-1.158,0.774-1.872,0.533c-0.994-0.335-1.829-0.067-2.534,0.612c-0.574,0.553-1.083,1.177-1.59,1.794
			c-0.283,0.344-0.228,0.861,0.08,1.278c0.343,0.463,0.696,0.908,1.318,1.035c0.556,0.113,1.11,0.254,1.653,0.421
			c0.349,0.107,0.507,0.932,0.247,1.213c-0.15,0.162-0.321,0.314-0.508,0.43c-1.466,0.908-1.565,1.143-1.184,2.701
			c0.079,0.326,0.127,0.678,0.089,1.006c-0.02,0.159-0.249,0.336-0.425,0.425c-0.25,0.128-0.488,0.017-0.553-0.255
			c-0.104-0.44-0.145-0.895-0.24-1.337c-0.149-0.687-0.736-0.96-1.229-0.45c-0.492,0.509-1.004,0.419-1.556,0.427
			c-0.251,0.004-0.402,0.151-0.384,0.44c0.038,0.578,0.112,1.143,0.701,1.472c0.508,0.283,0.978,0.629,1.169,1.208
			c0.058,0.176,0.015,0.555-0.069,0.583c-1.215,0.408-2.156,1.191-3.139,1.987c-1.199,0.971-2.622,0.637-3.895,0.019
			c-0.711-0.345-1.303-0.933-1.961-1.393c-0.319-0.224-0.66-0.111-0.968,0.048c-0.202,0.105-0.394,0.243-0.562,0.397
			c-0.562,0.515-1.157,0.678-1.885,0.333c-0.411-0.195-0.865-0.312-1.31-0.42c-0.921-0.225-1.424,0.109-1.771,1.133
			c-0.17,0.503,0.07,0.877,0.617,0.948c0.111,0.014,0.226-0.01,0.338,0c1.13,0.095,1.16,0.102,0.985,1.066
			c-0.088,0.482-0.102,0.893,0.256,1.266c0.315,0.329,0.695,0.63,0.899,1.02c0.31,0.59,0.898,0.573,1.374,0.795
			c-0.003-0.014-0.006-0.026-0.008-0.039c0.026-0.014,0.055-0.025,0.084-0.038c0.017-0.183,0.013-0.391,0.114-0.475
			c0.168-0.143,0.417,0.028,0.333,0.21c-0.06,0.13-0.271,0.19-0.447,0.266c-0.004,0.036-0.006,0.072-0.012,0.105
			c-0.02-0.011-0.043-0.018-0.063-0.028c0.286,1.449,0.922,2.028,2.166,1.955c0.337-0.02,0.678-0.046,1.006-0.118
			c0.439-0.096,0.863-0.252,1.3-0.359c0.615-0.152,1.028,0.026,1.348,0.691c0.338,0.704,0.604,1.444,0.875,2.177
			c0.304,0.822-0.018,1.456-0.591,2c0.971,1.403,1.937,2.813,3.68,3.38c0.083,0.027,0.191,0.118,0.202,0.192
			c0.016,0.104-0.033,0.226-0.078,0.33c-0.513,1.173-0.488,1.294,0.417,1.811c0.59,0.337,1.227,0.612,1.755,1.025
			c0.165,0.129,0.112,0.634,0.037,0.936c-0.037,0.15-0.34,0.29-0.543,0.326c-0.206,0.036-0.457-0.018-0.651-0.11
			c-0.927-0.443-1.751-0.392-2.503,0.377c-0.105,0.108-0.466,0.119-0.599,0.023c-0.641-0.462-1.234-0.992-1.876-1.451
			c-0.076-0.055-0.482,0.141-0.518,0.277c-0.173,0.654-0.273,1.328-0.394,1.996c-0.053,0.29,0.325,0.617,0.691,0.572
			c0.339-0.043,0.669-0.151,1.008-0.194c0.487-0.062,0.921,0.069,1.159,0.532c0.313,0.608,0.577,1.241,0.888,1.85
			c0.419,0.821,0.716,0.865,1.586,0.247c0.279-0.198,0.508-0.478,0.805-0.636c0.153-0.082,0.428-0.029,0.606,0.053
			c0.238,0.11,0.292,0.384,0.101,0.586c-0.714,0.755-0.39,1.753-0.653,2.609c-0.195,0.634,0.045,1.077,0.473,1.524
			c1.179,1.233,2.33,2.494,3.487,3.748c0.213,0.23,0.081,0.646-0.258,0.872c-0.493,0.327-1.299,0.251-1.532-0.169
			c-0.333-0.6-0.693-1.194-0.937-1.832c-0.325-0.85-0.981-1.231-1.772-1.477c-0.437-0.136-0.883-0.349-1.325-0.35
			c-1.211-0.002-2.213-0.518-3.209-1.107c-0.392-0.232-0.821-0.404-1.22-0.626c-1.079-0.6-1.109-0.62-1.946,0.374
			C61.236,62.798,60.85,63.2,60.21,63.1c-1.224-0.191-2.181,0.475-3.203,0.941l0.07-0.017c0.821,0.736,1.255,1.846,2.313,2.363
			c0.241,0.118,0.26,0.697,0.061,0.915c-0.376,0.412-0.739,0.858-1.191,1.166c-0.215,0.146-0.601,0.04-0.919,0.033
			c0,0.018,0,0.036,0,0.054c0.001,0.002-0.132,0.141-0.132,0.141l0.09-0.197c0.014,0,0.028,0.001,0.042,0.001
			c-0.002-0.319,0.017-0.639-0.022-0.952c-0.068-0.548-0.431-0.918-0.838-0.871c-0.665,0.077-1.342,0.12-1.983,0.29
			c-0.542,0.144-1.026,0.473-1.205,1.074c-0.095,0.319-0.058,0.788-0.266,0.944c-0.899,0.676-0.779,1.849-1.402,2.65
			c-0.297,0.382-0.152,0.852-0.026,1.296c0.19,0.671,0.506,1.237,1.125,1.595c0.002-0.006,0.004-0.013,0.006-0.019
			c-0.001-0.009,0.001-0.015,0.001-0.024c-0.059-0.404-0.125-0.807-0.165-1.213c-0.006-0.059,0.137-0.193,0.2-0.186
			c0.184,0.019,0.375,0.067,0.536,0.153c0.067,0.036,0.115,0.208,0.091,0.297c-0.104,0.39-0.704,0.446-0.663,0.95
			c0.002,0.017,0.005,0.034,0.008,0.052c-0.005-0.003-0.009-0.006-0.014-0.009c-0.045,0.194-0.164,0.412-0.103,0.554
			c0.067,0.155,0.327,0.339,0.482,0.322c0.309-0.035,0.623-0.162,0.896-0.318c0.389-0.222,0.759-0.429,1.22-0.244l0.002-0.003
			c-0.024-0.024-0.048-0.049-0.072-0.073c-0.001,0.001,0.142-0.035,0.142-0.035l-0.07,0.109c0.782,0.798,1.509,1.61,1.166,2.893
			c-0.124,0.466,0.076,0.878,0.4,1.241c0.396,0.443,0.537,0.988,0.557,1.578c0.022,0.684,0.063,1.368,0.113,2.051
			c0.096,1.325,0.71,2.016,2.066,2.335c0.107,0.025,0.226-0.009,0.339-0.005c0.312,0.011,0.695-0.396,0.591-0.676
			c-0.437-1.165-0.477-2.442-1.138-3.557c-0.402-0.677-0.483-1.51-0.411-2.331c0.043-0.487,0.508-0.752,0.992-0.514
			c0.726,0.357,1.285,0.765,1.543,1.666c0.508,1.776,0.647,3.567,0.604,5.385c-0.016,0.655,0.301,1.063,0.756,1.428
			c0.378,0.302,0.638,0.64,0.339,1.131c-0.322,0.527-0.404,1.058-0.065,1.6c0.316,0.506,0.403,1.053,0.358,1.638
			c-0.07,0.908-0.053,1.821-0.442,2.686c-0.188,0.418-0.046,0.862,0.15,1.269c1.132-0.039,1.979,0.438,2.514,1.434
			c0.484,0.901,0.968,1.804,1.401,2.73c0.396,0.847,0.119,1.346-0.745,1.461c-0.563,0.075-1.13,0.119-1.689,0.211
			c-0.309,0.051-0.414,0.28-0.227,0.488c0.595,0.666,1.284,1.245,1.406,2.237c0.024,0.2,0.505,0.472,0.791,0.492
			c1.208,0.084,2.42,0.093,3.632,0.126c0.02-0.028,0.039-0.058,0.06-0.083c0.047,0.013,0.094,0.032,0.14,0.045
			c0.081-0.048,0.161-0.096,0.242-0.144c-0.042,0.056-0.079,0.151-0.128,0.158c-0.037,0.005-0.075-0.002-0.114-0.014
			c-0.023,0.014-0.046,0.027-0.069,0.041c-0.044-0.001-0.088-0.002-0.131-0.003c-0.104,0.151-0.197,0.33-0.337,0.382
			c-0.417,0.155-0.869,0.211-1.298,0.337c-0.328,0.097-0.42,0.54-0.189,0.799c0.442,0.498,0.914,0.934,1.644,0.859
			c0.013-0.008,0.028-0.014,0.041-0.022c0,0.007,0,0.013,0,0.02c0.007-0.001,0.014,0,0.021-0.001c-0.007,0.02-0.014,0.04-0.022,0.06
			c0,0.065-0.001,0.131-0.013,0.193c-0.009,0.043-0.063,0.076-0.098,0.113c0.037-0.102,0.074-0.204,0.111-0.307
			c0-0.02,0-0.039,0-0.059c-0.014,0.002-0.027,0.001-0.041,0.002c-0.92,0.56-1.968,0.441-2.972,0.54
			c-0.517,0.051-0.833,0.316-0.929,0.819c-0.229,1.198-0.865,2.03-1.939,2.674c-0.967,0.58-1.785,1.414-2.653,2.154
			c-0.273,0.232-0.228,0.908,0.029,1.283c0.351,0.512,0.865,0.813,1.45,0.79c0.909-0.036,1.809-0.33,2.726-0.079
			c0.107,0.03,0.199,0.113,0.298,0.172c-0.056,0.091-0.098,0.193-0.17,0.27c-0.231,0.248-0.43,0.594-0.718,0.708
			c-0.743,0.295-1.544,0.443-2.289,0.735c-0.411,0.161-0.921,0.408-1.1,0.761c-0.819,1.619-2.011,3.027-2.399,4.902
			c-0.32,1.546-1.018,3.018-2.097,4.246c-0.075,0.086-0.198,0.167-0.21,0.263c-0.029,0.217-0.096,0.532,0.015,0.648
			c1.034,1.067,1.606,2.472,2.645,3.538c0.388,0.398,0.671,0.912,0.934,1.409c0.074,0.139-0.082,0.414-0.166,0.612
			c-0.025,0.059-0.184,0.115-0.251,0.09c-0.212-0.079-0.404-0.209-0.613-0.297c-0.987-0.419-1.891-0.891-1.809-2.205
			c0.006-0.098-0.307-0.272-0.493-0.31c-0.216-0.044-0.461,0.07-0.68,0.035c-0.768-0.121-1.34,0.07-1.68,0.832
			c-0.069,0.155-0.347,0.26-0.547,0.302c-0.217,0.046-0.455-0.012-0.684-0.021c-0.518-0.02-0.859,0.238-1.062,0.693
			c-0.167,0.376,0.067,0.856,0.6,1.052c0.539,0.199,1.061,0.369,1.466,0.831c0.449,0.514,0.921,0.632,1.331-0.11
			c0.088-0.159,0.409-0.174,0.583-0.306c0.699-0.527,1.198-0.212,1.736,0.302c0.298,0.285,0.408,0.528,0.153,0.828
			c-0.361,0.426-0.529,1.05-1.158,1.211c-0.501,0.128-0.732,0.373-0.703,0.948c0.06,1.178-0.419,2.198-1.074,3.155
			c-0.458,0.67-0.415,0.809,0.206,0.715c1.102-0.166,1.717,0.41,2.29,1.179c0.502,0.673,0.666,1.443,0.706,2.257
			c0.014,0.287,0.162,0.413,0.424,0.434c0.907,0.072,1.818,0.12,2.716,0.257c0.306,0.047,0.622,0.288,0.849,0.522
			c0.317,0.326,0.562,0.724,0.826,1.099c0.404,0.577,0.191,1.073-0.521,1.234c-1.306,0.295-1.751,0.065-2.303-1.289
			c-0.143-0.351-0.314-0.577-0.691-0.618c-0.38-0.042-0.671,0.113-0.763,0.479c-0.135,0.532-0.298,1.038-0.68,1.442
			c0.001,0.012,0,0.025,0.001,0.038c0.901-0.476,1.435,0.129,1.938,0.746c0.116,0.143,0.172,0.446,0.098,0.598
			c-0.059,0.121-0.416,0.229-0.543,0.16c-0.498-0.267-0.978-0.58-1.416-0.935c-0.108-0.088-0.066-0.362-0.078-0.569
			c-0.024,0.012-0.047,0.023-0.071,0.037c0.025-0.024,0.046-0.05,0.07-0.074c0-0.003,0-0.006,0-0.008
			c-0.241-0.222-0.574-0.403-0.698-0.678c-0.13-0.29-0.103-0.673-0.069-1.009c0.077-0.761-0.304-1.307-0.76-1.84
			c-0.2-0.234-0.776-0.276-0.891-0.047c-0.664,1.336-1.403,2.652-0.526,4.197c0.315,0.555,0.136,1.029-0.3,1.53
			c-0.512,0.588-0.794,1.375-1.304,1.965c-0.595,0.69-1.333,1.257-2,1.887c-0.413,0.391-0.84,0.775-1.202,1.211
			c-0.304,0.366-0.398,0.832-0.138,1.274c0.231,0.393,0.487,0.778,0.78,1.126c0.556,0.662,1.432,0.917,2.162,0.606
			c1.265-0.538,2.524-1.093,3.759-1.695c0.281-0.137,0.514-0.461,0.666-0.753c0.262-0.503,0.417-1.061,0.666-1.571
			c0.416-0.853,0.142-1.543-0.433-2.19c-0.151-0.17-0.283-0.358-0.404-0.55c-0.043-0.068-0.066-0.228-0.034-0.249
			c0.087-0.057,0.238-0.119,0.31-0.08c0.605,0.331,1.189,0.636,1.936,0.577c0.223-0.018,0.61,0.358,0.695,0.626
			c0.205,0.646,0.278,1.334,0.401,2.005c0.081,0.443,0.05,0.955,0.482,1.231c0.485,0.311,0.489,0.684,0.289,1.144
			c-0.136,0.313-0.27,0.629-0.379,0.953c-0.093,0.277,0.011,0.467,0.26,0.522c0.642,0.143,0.905,0.519,0.979,1.191
			c0.081,0.726,0.28,0.83,0.856,0.57c0.695-0.314,1.624-0.232,2-1.137c0.094-0.228,0.347-0.226,0.566-0.025
			c0.423,0.385,0.818,0.801,1.251,1.174c0.784,0.676,1.798,0.744,2.804,0.06c0.521-0.354,0.977-0.533,1.573-0.329
			c0.216,0.074,0.451,0.159,0.669,0.142c0.457-0.034,0.892-0.139,1.13-0.623c0.201-0.409,0.451-0.795,0.679-1.191
			c-0.009-0.001-0.018,0-0.028-0.001c-0.891,0.124-1.78,0.275-2.675,0.364c-1.182,0.119-2.28,0.028-2.878-1.268
			c-0.13-0.282-0.508-0.444-0.753-0.681c-0.295-0.286-0.311-0.572,0.094-0.808c0.822-0.48,1.256-1.275,1.828-1.964
			c0.075-0.09,0.483-0.061,0.575,0.049c0.604,0.721,0.553,1.138-0.048,2.056c-0.238,0.364-0.383,0.797-0.52,1.216
			c-0.087,0.265,0.373,0.707,0.636,0.654c0.106-0.021,0.231-0.023,0.312-0.081c0.9-0.643,1.67-0.444,2.448,0.264
			c0.21,0.191,0.636,0.143,0.98,0.2h0.001c0.01-0.001,0.02-0.003,0.031-0.004c-0.001,0.002-0.002,0.003-0.003,0.005
			c0.4,0.025,0.669-0.177,0.782-0.512c0.123-0.364-0.088-0.655-0.41-0.815c-0.409-0.203-0.844-0.354-1.261-0.542
			c-0.256-0.116-0.167-0.634,0.138-0.826c0.19-0.119,0.375-0.301,0.579-0.33c1.354-0.19,1.909-0.974,1.98-2.309
			c0.054-1.008,0.851-1.842,0.821-2.919c-0.008-0.291,0.245-0.644,0.474-0.875c0.318-0.321,0.739-0.538,1.092-0.829
			c0.972-0.802,1.913-1.622,3.282-1.698c0.456-0.025,0.761-0.453,1.025-0.849c0.18-0.27,0.443-0.488,0.689-0.706
			c0.073-0.066,0.283-0.109,0.312-0.072c0.131,0.172,0.342,0.406,0.303,0.564c-0.221,0.9-0.817,1.866-1.459,2.62
			c-0.883,1.037-1.882,1.991-2.45,3.268c-0.108,0.242,0.134,0.762,0.354,0.883c0.539,0.297,1.103,0.215,1.675,0.225
			c1.231,0.022,2.224,0.444,2.742,1.683c0.123,0.295,0.43,0.541,0.706,0.735c0.158,0.111,0.494,0.176,0.625,0.084
			c0.739-0.521,1.433-1.107,2.159-1.649c0.41-0.306,0.971-0.163,1.12,0.277c0.147,0.434,0.203,0.901,0.376,1.322
			c0.224,0.545,0.628,1,1.177,1.195c0.252,0.089,0.641-0.07,0.909-0.222c0.135-0.077,0.256-0.478,0.179-0.58
			c-0.686-0.911-0.955-2.033-1.552-2.975c-0.223-0.351-0.707-0.528-1.024-0.833c-0.118-0.114-0.125-0.366-0.132-0.557
			c-0.002-0.058,0.161-0.157,0.259-0.175c0.224-0.042,0.465-0.01,0.681-0.071c0.814-0.23,1.164-0.817,0.876-1.541
			c-0.291-0.731-0.473-1.515-1.288-1.958c-0.593-0.322-1.109-0.815-1.591-1.3c-0.222-0.223-0.434-0.635-0.384-0.914
			c0.14-0.783,0.336-1.578,0.662-2.3c0.533-1.179,1.744-1.344,2.832-1.644c0.069-0.019,0.233,0.107,0.266,0.197
			c0.267,0.729,0.588,1.417,1.142,1.988c0.145,0.15,0.143,0.432,0.243,0.638c0.216,0.448,0.237,0.882-0.067,1.29
			c-0.535,0.719-0.511,1.512-0.254,2.297c0.095,0.289,0.346,0.612,0.612,0.738c0.401,0.191,0.874,0.261,1.324,0.299
			c0.132,0.011,0.404-0.252,0.413-0.401c0.034-0.568-0.11-1.16,0.001-1.704c0.084-0.412,0.411-0.808,0.714-1.131
			c0.298-0.318,0.628,0.029,0.936,0.119c0.559,0.163,1.117,0.252,1.688,0.059c-0.105,0.764,0.077,1.584-0.566,2.236
			c-0.22,0.224-0.362,0.602-0.383,0.921c-0.021,0.3,0.096,0.665,0.276,0.909c0.191,0.259,0.51,0.445,0.806,0.599
			c0.592,0.306,1.156-0.003,1.254-0.588c0.213-1.277-0.11-2.475-0.528-3.645c-0.08-0.222-0.549-0.305-0.838-0.452
			c0.193-1,0.107-2.029,0.537-3.017c0.323-0.742,0.286-1.589-0.66-2.036c-0.251-0.119-0.279-0.376-0.011-0.528
			c0.938-0.53,0.644-1.649,1.18-2.362l-0.201,0.037c0,0,0.172-0.073,0.171-0.076c0.334,0.375,0.807,0.325,1.243,0.415
			c0.398,0.082,0.606,0.454,0.467,0.741c-0.344,0.711-0.786,1.391-1.02,2.136c-0.3,0.957,0.567,1.674,0.724,2.553
			c0.08,0.442,0.122,0.894,0.237,1.327c0.215,0.811,1.219,1.061,1.922,0.489c0.081-0.066,0.087-0.217,0.162-0.296
			c0.424-0.444,0.456-0.454,0.767,0.233c0.193,0.428,0.365,0.837,0.874,0.94c1.71,0.346,2.181,0.024,2.476-1.707
			c0.076-0.447,0.001-0.942,0.163-1.348c0.51-1.275,0.312-2.409-0.449-3.515c-0.165-0.24-0.176-0.584-0.244-0.89
			c-0.026,0.005-0.052,0.006-0.078,0.012c0-0.018-0.001-0.036-0.001-0.053c-1.562,0.364-2.098,1.482-2.157,2.972
			c-0.013,0.318-0.469,0.377-0.773,0.143c-0.38-0.291-0.699-0.662-0.661-1.128c0.045-0.55,0.365-1.09,0.354-1.63
			c-0.011-0.527-0.327-1.042-0.428-1.577c-0.031-0.166,0.156-0.464,0.325-0.562c0.899-0.526,2.062,0.095,2.926-0.646
			c0.123,0.151,0.34,0.294,0.353,0.454c0.053,0.656,0.048,1.316,0.062,1.975c0.023-0.005,0.044-0.012,0.068-0.017
			c0.005,0.019,0.007,0.039,0.012,0.059c0.804-0.148,1.482,0.14,2.144,0.586c0.603,0.405,1.316,0.309,1.979,0.213
			c0.491-0.07,0.624-0.596,0.891-0.948c0.239-0.314,0.668-0.39,0.896-0.218c1.077,0.811,2.16,1.613,3.217,2.45
			c0.113,0.089,0.158,0.438,0.077,0.56c-0.18,0.271-0.474,0.449-0.193,0.838c0.261,0.361,0.463,0.765,0.699,1.145
			c0.479,0.769,0.778,0.882,1.969,0.519c0.412-0.126,0.6,0.125,0.882,0.251c0.384,0.172,0.856,0.042,0.799-0.207
			c-0.136-0.6,0.197-1.161,0.218-1.741c-0.11-0.083-0.136-0.281-0.076-0.486c-0.011-0.002-0.021-0.004-0.032-0.005
			c-0.37,0.211-0.729,0.447-1.119,0.608c-0.088,0.036-0.306-0.193-0.431-0.331c-0.04-0.044-0.001-0.204,0.05-0.278
			c0.058-0.085,0.177-0.197,0.257-0.188c0.416,0.047,0.829,0.125,1.243,0.189c0.01-0.006,0.019-0.011,0.029-0.017
			c0.065,0.172,0.084,0.341,0.079,0.508c0.036,0.027,0.081,0.042,0.135,0.041c0.443-0.01,0.882-0.146,1.325-0.159
			c0.17-0.005,0.361,0.168,0.509,0.298c0.054,0.047,0.056,0.261,0.004,0.303c-0.768,0.633-0.868,1.246-0.09,1.981
			c0.213,0.201,0.188,0.644,0.293,0.969c0.243,0.766,0.958,0.94,1.532,0.352c0.304-0.311,0.624-0.588,0.586-1.146
			c-0.062-0.904,0.337-1.546,1.34-1.663c0.207-0.024,0.573-0.143,0.576-0.229c0.037-1.104,0.844-2.113,0.272-3.313
			c-0.385-0.807-0.1-1.804-0.554-2.667c-0.178-0.34,0.05-0.88,0.041-1.328c-0.004-0.212-0.114-0.43-0.206-0.631
			c-0.104-0.227-0.543-0.206-0.919-0.045c-1.376,0.588-2.109,1.656-2.481,3.071c-0.243,0.923-0.327,1.033-1.091,0.902
			c-0.755-0.13-1.328,0.194-1.976,0.372c-0.464,0.127-1.111-0.389-1.264-0.929c-0.173-0.609-0.079-1.32,0.375-1.585
			c1.274-0.743,1.191-1.782,0.929-2.944c-0.05-0.22-0.069-0.465-0.028-0.685c0.072-0.389,0.398-0.531,0.744-0.584
			c0.741-0.114,1.019,0.006,1.265,0.704c0.124,0.354,0.262,0.625,0.614,0.713c0.469,0.118,0.906,0.002,1.272-0.321
			c0.081-0.072,0.161-0.175,0.183-0.277c0.023-0.105-0.01-0.232-0.049-0.338c-0.079-0.214-0.173-0.423-0.27-0.629
			c-0.164-0.349-0.094-0.663,0.166-0.92c0.288-0.286,0.66-0.229,0.954-0.058c0.59,0.341,1.101,0.854,1.724,1.092
			c0.738,0.282,1.552,0.407,2.344,0.496c1.025,0.116,2.063,0.197,3.092,0.166c0.789-0.024,1.268,0.258,1.697,0.895
			c0.287,0.427,0.778,0.428,1.226,0.186c0.394-0.212,0.656-0.731,1.17-0.639c0.78,0.139,1.332,0,1.477-0.879
			c0.719-0.25,1.102-0.743,1.188-1.512c0.042-0.384,0.413-0.57,0.738-0.633c1.3-0.252,1.85-1.2,2.351-2.287
			c0.299-0.649,0.411-1.309,0.507-1.988c0.101-0.712,0.332-1.279,1.068-1.624c0.504-0.236,0.901-0.703,1.338-1.074
			c0.266-0.226,0.413-0.481,0.44-0.87c0.049-0.683,0.266-1.352,0.324-2.035c0.079-0.919,0.469-1.458,1.427-1.614
			c0.276-0.045,0.646-0.37,0.724-0.639c0.379-1.316,0.905-2.652,0.533-4.038c-0.191-0.711-0.117-1.258,0.104-1.956
			c0.761-2.404,1.37-4.856,2.023-7.293c0.058-0.216,0.046-0.463,0.015-0.688c-0.132-0.955,0.108-1.796,0.608-2.621
			c0.354-0.583,0.572-1.253,0.812-1.899c0.211-0.568,0.09-1.126-0.151-1.669C151.414,96.841,150.884,96.666,150.558,96.948z
			 M57.899,36.494c-0.059,0.245,0.024,0.62-0.38,0.678c-0.045,0.006-0.167-0.396-0.219-0.617c-0.052-0.22-0.123-0.467-0.069-0.671
			c0.039-0.145,0.265-0.253,0.428-0.338c0.032-0.017,0.215,0.138,0.229,0.229C57.922,35.999,57.899,36.231,57.899,36.494z
			 M59.264,139.612c-0.03,0.085-0.056,0.342-0.198,0.483c-0.063,0.063-0.383-0.066-0.543-0.173
			c-0.667-0.447-0.683-1.342-0.042-1.992c0.073-0.074,0.228-0.156,0.301-0.127c0.174,0.069,0.444,0.188,0.46,0.313
			C59.298,138.567,59.264,139.029,59.264,139.612z M86.185,145.905c-0.026,0.1-0.156,0.266-0.187,0.255
			c-0.193-0.068-0.411-0.14-0.543-0.283c-0.142-0.155-0.244-0.382-0.277-0.591c-0.03-0.194,0.009-0.431,0.103-0.603
			c0.176-0.324,0.673-0.512,0.799-0.335c0.124,0.175,0.187,0.393,0.303,0.649C86.327,145.267,86.27,145.59,86.185,145.905z
			 M96.772,140.199c-0.229,0.336-0.853,0.557-1.184,0.37c-0.289-0.164-0.57-0.37-0.797-0.611c-0.226-0.241-0.397-0.561-0.215-0.907
			c0.154-0.292,0.341-0.579,0.764-0.466c0.106,0.028,0.224,0.004,0.52,0.004c0.147,0.022,0.476,0.059,0.797,0.13
			c0.096,0.021,0.183,0.131,0.253,0.217C97.087,139.152,97.005,139.858,96.772,140.199z M115.545,137.601
			c-0.079,0.004-0.161-0.05-0.243-0.081c0.031-0.067,0.058-0.187,0.094-0.19c0.077-0.006,0.16,0.047,0.24,0.076
			C115.606,137.476,115.578,137.6,115.545,137.601z"/>
		<path fill-rule="evenodd" clip-rule="evenodd" fill="#1E8346" d="M73.179,186.187c-0.221-0.046-0.473-0.097-0.638-0.233
			c-1.076-0.891-2.285-0.826-3.582-0.692c-1.725,0.178-3.33,0.807-5.011,1.123c-2.032,0.382-3.95,1.132-5.912,1.74
			c-1.037,0.321-1.895,0.876-2.484,1.736c-0.466,0.68-1.048,1.193-1.646,1.723c-0.339,0.3-0.65,0.648-0.911,1.018
			c-0.643,0.913-0.469,2.439,0.372,3.15c0.783,0.662,1.596,1.291,2.427,1.892c0.121,0.088,0.517,0.019,0.606-0.105
			c0.51-0.716,1.143-1.051,2.042-0.972c0.564,0.049,1.141-0.049,1.335-0.06c1.168,0.076,1.961,0.185,2.751,0.164
			c0.913-0.024,1.846-0.067,2.727-0.281c0.76-0.185,1.431-0.779,2.19-0.911c1.259-0.219,2.371-0.803,3.569-1.144
			c0.71-0.202,1.232-0.506,1.631-1.121c0.497-0.766,1.066-1.486,1.59-2.235c0.197-0.281,0.388-0.575,0.52-0.89
			c0.313-0.752,0.383-1.436-0.036-2.266C74.339,187.073,74.088,186.376,73.179,186.187z"/>
		<path fill-rule="evenodd" clip-rule="evenodd" fill="#1E8346" d="M64.654,46.738c-0.003,0.004,0.084-0.101,0.084-0.101
			c-0.019-0.01-0.038-0.017-0.058-0.026C64.671,46.653,64.661,46.695,64.654,46.738z"/>
		<path fill-rule="evenodd" clip-rule="evenodd" fill="#1E8346" d="M64.754,46.072c-0.134-1.31-1.353-2.023-2.372-1.319
			c-0.565,0.39-1.087,0.761-1.783,0.846c-0.689,0.084-1.26,0.432-1.803,0.85c-0.486,0.374-0.456,0.932,0.139,1.374
			c0.173,0.129,0.412,0.169,0.621,0.249c0,0.001,0.001,0.002,0.001,0.002c0.018,0.438,0.009,0.878,0.066,1.309
			c0.027,0.201,0.137,0.437,0.288,0.561c0.132,0.108,0.374,0.094,0.568,0.098c0.029,0,0.122-0.232,0.084-0.299
			c-0.323-0.564-0.668-1.115-1.006-1.67c0.001,0,0.001,0,0.001,0l-0.005-0.006c0.58,0.465,1.182,0.535,1.795,0.074
			c0.614-0.462,1.19-0.978,1.831-1.396c0.449-0.293,0.977-0.388,1.5-0.133C64.721,46.428,64.772,46.246,64.754,46.072z"/>
		<path fill-rule="evenodd" clip-rule="evenodd" fill="#1E8346" d="M47.762,139.753c1.112,0.341,2.015,0.979,2.798,1.831
			c0.323,0.353,0.795,0.214,1.111-0.267c0.311-0.472,0.665-0.944,0.602-1.544c-0.018-0.166-0.227-0.395-0.391-0.439
			c-0.185-0.05-0.416,0.077-0.627,0.128c-0.003-0.028-0.005-0.055-0.008-0.083c-0.14,0.001-0.149-0.035-0.011-0.118
			c0.004,0.039,0.008,0.078,0.011,0.118c0.033,0,0.065-0.001,0.113-0.005c-0.204-0.39-0.399-0.791-0.611-1.183
			c-0.358-0.664-0.737-0.754-1.364-0.483c-0.761,0.328-1.317,0.86-1.788,1.512C47.421,139.465,47.464,139.662,47.762,139.753z"/>
		<path fill-rule="evenodd" clip-rule="evenodd" fill="#1E8346" d="M63.351,165.585c0.432-0.1,0.865-0.257,1.253-0.472
			c0.574-0.318,1.063-0.282,1.537,0.166c0.163,0.154,0.336,0.303,0.526,0.42c0.441,0.269,0.898-0.02,0.901-0.573
			c0.001-0.338-0.013-0.676-0.025-1.014c-0.026-0.668-0.027-0.683-1.106-0.721c0.008,0.009,0.017,0.019,0.025,0.028
			c-0.01-0.008-0.204-0.062-0.204-0.062l0.119,0.031c0.021,0.001,0.04,0.001,0.061,0.002c-0.358-0.401-0.71-0.825-1.099-1.21
			c-0.225-0.223-0.805-0.214-0.942-0.015c-0.568,0.824-1.14,1.647-1.665,2.499c-0.089,0.143-0.012,0.464,0.096,0.632
			C62.927,165.449,63.201,165.62,63.351,165.585z"/>
		<path fill-rule="evenodd" clip-rule="evenodd" fill="#1E8346" d="M47.457,144.914c-0.257-0.222-0.549-0.405-0.806-0.627
			c-0.262-0.226-0.247-0.691,0.032-0.871c0.281-0.181,0.621-0.282,0.869-0.495c0.149-0.128,0.235-0.405,0.225-0.609
			c-0.004-0.086-0.359-0.254-0.508-0.214c-0.651,0.178-1.285,0.417-1.923,0.638c-0.331,0.115-0.681,0.748-0.558,1.107
			c0.289,0.849,0.577,1.703,0.957,2.513c0.117,0.25,0.529,0.362,0.69,0.465c0.708,0.074,1.261-0.221,1.521-0.793
			C48.193,145.507,47.794,145.204,47.457,144.914z"/>
		<path fill-rule="evenodd" clip-rule="evenodd" fill="#1E8346" d="M82.942,152.919c-0.785,0.072-1.58,0.107-2.347,0.271
			c-0.247,0.053-0.525,0.434-0.595,0.714c-0.076,0.3,0.056,0.677,0.402,0.849c0.294,0.146,0.608,0.255,0.81,0.338
			c0.462-0.025,0.804-0.027,1.141-0.066c0.744-0.088,1.053-0.472,1.158-1.405C83.541,153.364,83.177,152.897,82.942,152.919z"/>
		<path fill-rule="evenodd" clip-rule="evenodd" fill="#1E8346" d="M79.09,157.534c-1.173-0.732-1.569-0.679-2.537,0.351
			c-0.222,0.237-0.414,0.505-0.589,0.779c-0.039,0.061,0.032,0.22,0.091,0.308c0.053,0.077,0.16,0.117,0.347,0.244
			c0.75-0.205,1.58-0.429,2.407-0.664c0.102-0.029,0.229-0.095,0.272-0.18c0.089-0.175,0.153-0.372,0.177-0.566
			C79.27,157.721,79.175,157.586,79.09,157.534z"/>
		<path fill-rule="evenodd" clip-rule="evenodd" fill="#1E8346" d="M49.526,132.731c0.19,0.126,0.395,0.239,0.609,0.315
			c0.646,0.229,1.215-0.078,1.253-0.677c0.006-0.102,0-0.203-0.006-0.254c0,0.04,0,0.076,0,0.12c-0.014-0.173-0.007-0.182,0-0.12
			c0.001-0.777,0.009-1.092-0.014-1.399c-0.003-0.035-0.242-0.116-0.304-0.074c-0.567,0.377-1.128,0.763-1.669,1.176
			C49.182,131.978,49.279,132.567,49.526,132.731z"/>
		<path fill-rule="evenodd" clip-rule="evenodd" fill="#1E8346" d="M52.422,145.21c0.258,0.065,0.455,0.024,0.544-0.249
			c0.067-0.206,0.16-0.473,0.084-0.643c-0.352-0.782-1.322-1.229-2.283-1.108c-0.238,0.03-0.486,0.639-0.359,0.851
			C50.865,144.825,51.639,145.015,52.422,145.21z"/>
		<path fill-rule="evenodd" clip-rule="evenodd" fill="#1E8346" d="M31.71,145.689c-0.154-0.081-0.461-0.039-0.61,0.071
			c-0.586,0.433-0.895,1.016-0.74,1.77c0.021,0.105,0.113,0.196,0.171,0.294c0.105-0.007,0.225,0.017,0.312-0.026
			c0.65-0.325,1.018-0.884,1.16-1.569C32.037,146.067,31.866,145.771,31.71,145.689z"/>
		<path fill-rule="evenodd" clip-rule="evenodd" fill="#1E8346" d="M73.643,164.664c0.109,0.01,0.224,0.001,0.332-0.02
			c0.36-0.069,0.558-0.299,0.622-0.661c-0.02-0.208-0.011-0.433-0.068-0.639c-0.164-0.582-0.837-0.855-1.295-0.515
			c-0.362,0.268-0.617,0.612-0.566,1.115C72.706,164.323,73.083,164.613,73.643,164.664z"/>
		<path fill-rule="evenodd" clip-rule="evenodd" fill="#1E8346" d="M61.079,55.315c0.217-0.039,0.462-0.026,0.643-0.127
			c0.407-0.228,0.647-0.596,0.724-1.071c0.044-0.274-0.041-0.432-0.292-0.553c-0.439-0.213-0.856-0.249-1.246,0.083
			c-0.396,0.338-0.411,0.801-0.293,1.245C60.662,55.062,60.918,55.175,61.079,55.315z"/>
		<path fill-rule="evenodd" clip-rule="evenodd" fill="#1E8346" d="M98.665,150.914c-0.197-0.064-0.459-0.059-0.646,0.02
			c-0.159,0.067-0.387,0.327-0.355,0.433c0.239,0.809,0.705,1.428,1.634,1.458c0.173,0.005,0.353-0.212,0.59-0.365
			C99.497,151.926,99.42,151.158,98.665,150.914z"/>
		<path fill-rule="evenodd" clip-rule="evenodd" fill="#1E8346" d="M51.595,56.016c0.371,0.027,0.597-0.177,0.733-0.508
			c-0.045-0.192-0.048-0.417-0.15-0.578c-0.112-0.177-0.326-0.286-0.478-0.441c-0.275-0.281-0.576-0.245-0.864-0.06
			c-0.325,0.209-0.34,0.546-0.227,0.866C50.768,55.747,51.12,55.982,51.595,56.016z"/>
		<path fill-rule="evenodd" clip-rule="evenodd" fill="#1E8346" d="M113.202,141.398c-0.148-0.721-0.576-1.201-1.297-1.362
			c-0.172-0.039-0.453,0.067-0.568,0.204c-0.119,0.142-0.202,0.474-0.117,0.599c0.312,0.46,0.665,0.932,1.276,1.006
			c0.192,0.023,0.41-0.089,0.599-0.175C113.157,141.64,113.166,141.496,113.202,141.398z"/>
		<path fill-rule="evenodd" clip-rule="evenodd" fill="#1E8346" d="M51.677,147.724c0.09,0.511,0.419,0.697,0.994,0.528
			c0.316-0.093,0.673-0.159,0.786-0.602c0.053-0.302-0.38-0.806-0.802-0.883C52,146.649,51.562,147.077,51.677,147.724z"/>
		<path fill-rule="evenodd" clip-rule="evenodd" fill="#1E8346" d="M130.021,132.944c-0.256-0.138-0.74,0.143-0.782,0.424
			c-0.073,0.487,0.095,0.881,0.51,1.148c0.087,0.056,0.22,0.04,0.332,0.057c0.294-0.15,0.505-0.723,0.367-1.185
			C130.395,133.21,130.197,133.038,130.021,132.944z"/>
		<path fill-rule="evenodd" clip-rule="evenodd" fill="#1E8346" d="M78.627,155.472c0.157-0.008,0.302-0.208,0.523-0.377
			c-0.144-0.248-0.281-0.512-0.449-0.756c-0.05-0.072-0.224-0.143-0.277-0.11c-0.15,0.094-0.34,0.222-0.379,0.372
			c-0.048,0.186-0.017,0.444,0.085,0.603C78.223,155.347,78.461,155.48,78.627,155.472z"/>
		<path fill-rule="evenodd" clip-rule="evenodd" fill="#1E8346" d="M49.98,159.268c-0.179-0.095-0.42-0.073-0.634-0.102
			c-0.192,0.085-0.384,0.171-0.577,0.256c0.128,0.269,0.209,0.581,0.401,0.792c0.116,0.127,0.403,0.122,0.615,0.132
			c0.356,0.015,0.649-0.302,0.552-0.619C50.282,159.55,50.139,159.353,49.98,159.268z"/>
		<path fill-rule="evenodd" clip-rule="evenodd" fill="#1E8346" d="M49.365,149.99c0.238-0.114,0.328-0.279,0.187-0.755
			c-0.047-0.074-0.19-0.356-0.391-0.586c-0.135-0.154-0.355-0.233-0.538-0.345c-0.089,0.191-0.249,0.382-0.249,0.574
			c-0.001,0.306,0.075,0.622,0.171,0.917C48.636,150.075,49.044,150.144,49.365,149.99z"/>
		<path fill-rule="evenodd" clip-rule="evenodd" fill="#1E8346" d="M112.99,147.41c-0.151,0.066-0.296,0.329-0.293,0.503
			c0.002,0.161,0.204,0.318,0.319,0.477c0.217-0.035,0.458-0.022,0.641-0.119c0.172-0.091,0.282-0.299,0.419-0.455
			c-0.146-0.124-0.274-0.296-0.443-0.358C113.433,147.384,113.167,147.332,112.99,147.41z"/>
		<path fill-rule="evenodd" clip-rule="evenodd" fill="#1E8346" d="M51.286,134.696c0.175,0.112,0.357,0.271,0.548,0.286
			c0.309,0.025,0.605-0.079,0.694-0.464c-0.073-0.07-0.159-0.215-0.233-0.21c-0.306,0.024-0.611,0.083-0.909,0.157
			C51.335,134.479,51.273,134.688,51.286,134.696z"/>
		<path fill-rule="evenodd" clip-rule="evenodd" fill="#1E8346" d="M83.688,161.929c-0.014,0.176,0.088,0.362,0.138,0.544
			c0.183-0.073,0.366-0.146,0.549-0.219c-0.074-0.182-0.1-0.421-0.232-0.532C83.933,161.547,83.71,161.654,83.688,161.929z"/>
		<path fill-rule="evenodd" clip-rule="evenodd" fill="#1E8346" d="M56.807,65.037c0.002-0.07,0.009-0.142,0.015-0.213
			C56.787,64.873,56.81,64.965,56.807,65.037z"/>
		<path fill-rule="evenodd" clip-rule="evenodd" fill="#1E8346" d="M57.021,64.054c0.02-0.009,0.033-0.021,0.056-0.028
			c0,0-0.07,0.017-0.064,0.019C57.016,64.047,57.017,64.05,57.021,64.054z"/>
		<path fill-rule="evenodd" clip-rule="evenodd" fill="#1E8346" d="M56.813,64.53c0.023,0.094,0.018,0.194,0.009,0.295
			c0,0,0-0.001,0-0.001c0.062-0.083,0.173-0.128,0.243-0.206c0.174-0.193,0.155-0.385-0.045-0.564
			C56.813,64.147,56.758,64.299,56.813,64.53z"/>
		<path fill-rule="evenodd" clip-rule="evenodd" fill="#1E8346" d="M56.614,54.483c0.134,0.132,0.359,0.171,0.545,0.251
			c0.179-0.089,0.358-0.178,0.537-0.267c-0.148-0.111-0.283-0.289-0.446-0.32C56.848,54.072,56.457,54.33,56.614,54.483z"/>
		<path fill-rule="evenodd" clip-rule="evenodd" fill="#1E8346" d="M99.777,155.059c-0.026,0.031,0.077,0.174,0.121,0.265
			c0.15-0.13,0.31-0.251,0.44-0.398c0.022-0.025-0.083-0.162-0.13-0.248C100.06,154.802,99.901,154.916,99.777,155.059z"/>
		<path fill-rule="evenodd" clip-rule="evenodd" fill="#1E8346" d="M57.671,44.31c0.084,0.003,0.171-0.084,0.258-0.132
			c-0.024-0.083-0.022-0.206-0.077-0.243c-0.259-0.176-0.411-0.094-0.388,0.21C57.469,44.209,57.597,44.307,57.671,44.31z"/>
		<polygon fill-rule="evenodd" clip-rule="evenodd" fill="#1E8346" points="54.738,40.273 54.95,40.309 54.867,40.037 		"/>
		<path fill-rule="evenodd" clip-rule="evenodd" fill="#1E8346" d="M60.542,61.811c-0.007-0.034-0.121-0.045-0.186-0.066
			c-0.024,0.078-0.049,0.156-0.073,0.234c0.071,0.018,0.141,0.037,0.212,0.055C60.514,61.958,60.557,61.878,60.542,61.811z"/>
		<path fill-rule="evenodd" clip-rule="evenodd" fill="#1E8346" d="M53.642,39.199c-0.166-0.069-0.325-0.162-0.495-0.194
			c-0.066-0.012-0.158,0.111-0.238,0.172c0.132,0.112,0.252,0.281,0.402,0.314C53.395,39.51,53.529,39.305,53.642,39.199z"/>
		<path fill-rule="evenodd" clip-rule="evenodd" fill="#1E8346" d="M60.481,86.286c-0.098-0.128-0.19-0.353-0.293-0.359
			c-0.176-0.009-0.359,0.119-0.54,0.19c0.101,0.123,0.194,0.337,0.305,0.347C60.121,86.48,60.303,86.353,60.481,86.286z"/>
		<path fill-rule="evenodd" clip-rule="evenodd" fill="#1E8346" d="M75.366,187.131c-0.005,0.07,0.112,0.149,0.177,0.224
			c0.081-0.096,0.162-0.193,0.245-0.291c-0.083-0.05-0.165-0.136-0.212-0.12C75.49,186.974,75.371,187.061,75.366,187.131z"/>
		<path fill-rule="evenodd" clip-rule="evenodd" fill="#1E8346" d="M63.077,94.642c0.02,0.022,0.043,0.038,0.069,0.043l0.012,0.018
			c-0.007-0.014-0.013-0.028-0.02-0.042c-0.004,0-0.007,0-0.01,0C63.111,94.655,63.094,94.649,63.077,94.642z"/>
		<path fill-rule="evenodd" clip-rule="evenodd" fill="#1E8346" d="M62.605,94.472c0.157,0.057,0.314,0.113,0.472,0.17
			C62.945,94.497,62.926,94.076,62.605,94.472z"/>
		<polygon fill-rule="evenodd" clip-rule="evenodd" fill="#1E8346" points="58.225,87.671 58.449,87.575 58.242,87.445 		"/>
	</g>
</g>
</svg>
