<?xml version="1.0" encoding="utf-8"?>
<!-- Generator: Adobe Illustrator 26.0.3, SVG Export Plug-In . SVG Version: 6.00 Build 0)  -->
<svg version="1.1" xmlns="http://www.w3.org/2000/svg" xmlns:xlink="http://www.w3.org/1999/xlink" x="0px" y="0px"
	 viewBox="0 0 200 200" enable-background="new 0 0 200 200" xml:space="preserve">
<g id="Layer_1">
	<g id="Layer_1_00000075879624959596184900000007102216081240906125_">
		<g id="Layer_1_00000107551159852787612550000017757744099325915571_">
			<g id="Layer_1_00000128480095285341338950000008464522443776971395_">
			</g>
		</g>
	</g>
</g>
<g id="Isolation_Mode">
	<g>
		<path fill="#1E8346" d="M169.236,139.497c-0.095-0.473-0.4-0.906-0.531-1.381c-0.114-0.414-0.098-0.848-0.165-1.275
			c-0.211-1.336-0.359-2.426-0.078-3.754c0.129-0.61,0.059-1.215,0.039-1.832c-0.03-0.894,0.029-1.771,0.117-2.655
			c0.123-1.244,0.274-2.75,0-3.982c-0.278-1.245-0.832-2.643-1.682-3.617c-0.661-0.756-0.534-1.718-0.622-2.667
			c-0.118-1.277-0.398-2.664-0.87-3.859c-0.306-0.774-0.323-1.605-0.652-2.385c-0.346-0.821-0.6-1.651-1.055-2.429
			c-0.259-0.442-0.271-0.817-0.556-1.248c-0.24-0.363-0.527-0.698-0.82-1.037c-0.658-0.765-1.267-1.512-1.865-2.315
			c-0.371-0.499-0.755-0.986-1.283-1.321c-0.629-0.399-1.257-0.885-1.753-1.455c-0.253-0.292-0.423-0.679-0.716-0.934
			c-0.263-0.23-0.603-0.287-0.898-0.468c-0.676-0.416-1.314-0.953-1.448-1.808c-0.118-0.75,0.268-1.564,0.033-2.296
			c-0.143-0.446-0.56-1.162-1.045-1.088c-0.221-0.403-0.181-1.343-0.098-1.789c0.031-0.164,0.221-0.511,0.071-0.677
			c-0.205-0.228-0.886,0.088-1.103,0.231c-0.25-0.171-0.345-0.426-0.629-0.582c-0.188-0.104-0.393-0.111-0.545-0.279
			c-0.588-0.65-1.014-1.552-1.417-2.345c-0.237-0.466-0.407-0.865-0.457-1.387c-0.035-0.372-0.043-0.811-0.196-1.149
			c-0.551,0.694-0.72-0.616-0.793-0.937c-0.137-0.609-0.4-1.085-0.405-1.727c-0.004-0.595-0.067-0.779-0.354-1.249
			c-0.231-0.377-0.397-1.064-0.505-1.489c-0.089-0.353-0.312-0.649-0.365-1.016c-0.043-0.295-0.049-0.578-0.126-0.868
			c-0.148-0.556-0.244-1.11-0.34-1.676c-0.122-0.726-0.321-1.431-0.443-2.156c-0.118-0.697-0.121-1.379-0.327-2.056
			c-0.219-0.721-0.501-1.396-0.628-2.144c-0.071-0.419-0.063-0.856-0.161-1.27c-0.081-0.342-0.273-0.616-0.397-0.946
			c-0.196-0.522-0.14-1.011-0.507-1.489c-0.376-0.491-0.827-0.915-1.209-1.417c-0.58,0.411-1.181,1.228-1.95,1.199
			c0.527,0.937,0.06,1.84-0.863,1.941c-1.183,0.13-3.289,0.018-3.207-1.579c0.042-0.835,0.47-1.69,0.458-2.577
			c-0.007-0.557-0.482-0.719,0.368-0.726c0.266-0.002,0.574,0.204,0.806,0.281c0.013,0.617-0.411,1.294,0.628,1.076
			c0.085-1.322-0.856-2.277-0.851-3.596c0.002-0.573,0.165-1.528-0.016-2.084c-0.191-0.587-0.874-1.275-1.173-1.827
			c-0.812-1.502-1.973-2.486-3.001-3.851c-0.505-0.672-1.211-1.187-1.699-1.872c-0.451-0.633-0.336-1.471-0.747-2.069
			c-0.427-0.621-1.334-0.713-1.95-1.131c-0.608-0.413-0.93-0.889-1.295-1.564c-0.245-0.453-0.13-0.827-0.211-1.303
			c-0.931-0.108-1.312-0.754-1.809-1.441c-0.217-0.299-0.488-0.733-0.636-0.256c-0.096,0.31,0.175,0.89-0.094,1.142
			c-0.182,0.17-0.559-0.014-0.751,0.178c-0.306,0.305-0.121,0.912-0.753,0.777c-0.569-0.12-0.794-0.829-0.775-1.325
			c0.015-0.372,0.101-0.642,0.321-0.942c0.27-0.367,0.32-0.393-0.01-0.858c0.448-0.405-0.153-0.454-0.398-0.465
			c-0.494-0.021-0.654-0.003-0.974-0.399c-0.225-0.278-0.54-0.55-0.363-0.923c0.128-0.27,0.668-0.701,0.942-0.787
			c0.572,0.588,1.207,1.183,1.762,1.79c0.279,0.305,0.686,1.046,1.172,1.017c-0.154-0.361-0.428-0.661-0.641-1.006
			c-0.338-0.547-0.653-1.135-0.938-1.714c-0.532-1.077-1.092-2.15-1.7-3.19c-0.455-0.778-1.031-1.554-1.423-2.36
			c-0.272-0.558-0.214-1.13-0.374-1.707c-0.125-0.451-0.364-0.889-0.521-1.337c-0.222-0.632-0.45-1.383-0.847-1.96
			c-0.678-0.986-1.241-2.033-2.157-2.844c-0.545-0.482-1.142-0.987-1.759-1.37c-0.554-0.343-1.16-0.547-1.666-0.983
			c-0.838-0.723-1.168-1.929-2.047-2.597c-0.461-0.35-0.938-0.543-1.355-0.953c-0.359-0.353-0.65-0.751-1.051-1.047
			c-0.968-0.713-1.797-1.488-2.791-2.175c-1.073-0.741-1.982-1.619-3.011-2.406c-0.45-0.344-0.966-0.596-1.412-0.953
			c-0.369-0.296-0.754-0.546-1.154-0.799c-0.787-0.498-1.587-1.264-2.233-1.94c-0.689-0.72-1.868-1.19-2.249-2.084
			c-0.1-0.236-0.338-0.41-0.499-0.601c-0.183-0.217-0.332-0.456-0.487-0.693c-0.323-0.494-0.63-0.99-0.939-1.492
			c-0.534-0.871-1.305-1.642-1.753-2.559c-0.184-0.376-0.235-0.788-0.33-1.192c-0.146-0.623-0.801-0.743-1.367-0.857
			c-0.79-0.161-1.557-0.408-2.334-0.101c-0.429,0.169-0.853,0.285-1.315,0.264c-0.331-0.015-0.665-0.031-0.984,0.072
			c-0.274,0.088-0.442,0.304-0.7,0.411c-0.218,0.091-0.41,0.041-0.638,0.031c-1.374-0.061-2.795-0.088-4.166,0.007
			c-1.036,0.072-1.922,0.115-2.872,0.577c-0.595,0.29-1.203,0.59-1.719,1.007c-0.168,0.135-0.311,0.291-0.494,0.403
			c-0.139,0.086-0.231,0.06-0.361,0.115c-0.277,0.117-0.281,0.46-0.17,0.758c0.094,0.254,0.349,0.402,0.51,0.615
			c0.242,0.321,0.424,0.527,0.555,0.918c0.131,0.394,0.063,0.872,0.268,1.231c0.35,0.612,1.089,0.507,1.685,0.554
			c0.349,0.027,0.856-0.03,1.107,0.257c0.183,0.209,0.133,0.448,0.202,0.7c0.094,0.344,0.341,0.581,0.684,0.67
			c0.573,0.638,1.662,0.171,2.393,0.482c0.547,0.233,1.1,0.767,1.539,1.151c0.324,0.283,0.804,0.771,1.277,0.67
			c0.015-0.157-0.14-0.214-0.246-0.301c-0.211-0.172-0.374-0.349-0.549-0.556c-0.222-0.262-0.455-0.507-0.703-0.743
			c-0.131-0.125-0.264-0.182-0.279-0.387c0.725,0.257,1.451,0.371,2.134,0.775c0.432,0.256,0.858,0.557,1.235,0.882
			c0.349,0.3,0.784,0.662,1.276,0.637c0.684-0.034,0.139-0.872-0.259-0.996c-0.349-0.109-0.5-0.196-0.53-0.622
			c-0.023-0.329,0.043-0.701,0.056-1.035c0.494,0.06,0.959,0.481,1.395,0.693c0.522,0.253,1.009,0.554,1.523,0.822
			c0.76,0.397,1.521,0.813,2.292,1.194c0.968,0.478,1.954,0.873,2.755,1.625c0.707,0.664,1.369,1.375,2.007,2.106
			c0.327,0.376,0.682,0.771,0.649,1.284c-0.036,0.548-0.432,0.994-0.841,1.334c-0.305,0.254-0.563,0.314-0.957,0.351
			c-0.593,0.055-1.191,0.14-1.784,0.187c-0.612,0.048-2.568,0.165-2.812-0.701c0.198-0.004,0.746,0.108,0.815-0.164
			c0.049-0.192-0.535-0.63-0.594-0.827c0.22,0.023,0.523-0.066,0.757-0.079c-0.463-0.382-1.078-0.594-1.539-0.998
			c-0.347-0.304-0.48-0.855-0.926-0.901c-0.267-0.028-0.479,0.003-0.658-0.185c-0.088-0.092-0.114-0.283-0.242-0.347
			c-0.243-0.121-0.765-0.005-1.043-0.012c-0.325-0.01-0.632-0.037-0.928-0.168c-0.467-0.207-0.817-0.512-1.207-0.827
			c-0.094-0.075-0.186-0.131-0.271-0.223c-0.067-0.071-0.138-0.271-0.209-0.317c-0.196-0.128-0.514,0.06-0.657-0.21
			c-0.074-0.14-0.008-0.317-0.081-0.465c-0.932-0.058-1.688-0.368-2.627-0.368c0.513,0.377,0.946,0.778,1.519,1.079
			c0.521,0.274,1.114,0.509,1.589,0.854c0.516,0.376,0.896,0.918,1.419,1.295c0.463,0.333,0.815,0.648,1.047,1.185
			c0.168,0.391,0.442,1.132,0.264,1.554c-0.127,0.3-0.665,0.536-0.905,0.802c-0.663,0.734-0.753,1.256-1.71,1.695
			c-0.951,0.436-1.882,0.784-2.844,1.182c-1.029,0.426-0.849,0.941-0.458,1.914c0.333,0.829,0.575,1.541,1.435,1.774
			c0.606,0.164,1.278,0.399,1.417,1.076c0.112,0.548-0.312,0.97-0.22,1.47c0.042,0.228,0.285,0.386,0.341,0.596
			c0.077,0.288-0.054,0.573-0.03,0.876c0.046,0.58-0.223,1.109-0.481,1.606c-0.243,0.467-0.171,0.796-0.242,1.308
			c-0.172,1.238-1.324,1.945-1.385,3.237c-0.047,0.999-0.175,1.854-0.671,2.728c-0.328,0.577-0.7,1.771-1.362,1.979
			c-0.839,0.262-1.248,0.247-1.892,0.993c-0.429,0.497-0.767,1.051-1.175,1.564c-0.3,0.379-0.493,0.673-0.985,0.764
			c-0.54,0.1-0.985-0.049-1.452-0.276c-0.126-0.061-0.894-0.399-0.899-0.529c-0.014-0.315,0.604-0.236,0.779-0.274
			c0.002-0.317,0.379-0.443,0.631-0.541c-0.174-0.425-0.803-0.607-1.117-0.957c-0.449-0.5-0.771-1.07-1.311-1.486
			c0.521,0.268,1.182,0.636,1.757,0.774c-0.474-0.957-0.87-1.878-1.915-2.375c-0.779-0.371-1.634-0.587-2.386-1.02
			c-0.697-0.401-1.448-0.803-2.258-0.936c-0.871-0.144-1.802-0.131-2.678-0.034c-0.377,0.042-1.076,0.01-1.313,0.357
			c-0.309,0.454-0.057,0.829,0.364,0.946c0.455,0.126,0.958,0.126,1.432,0.236c1.7,0.394,3.132,1.462,4.526,2.434
			c0.703,0.49,1.48,1.04,1.988,1.747c0.285,0.398,0.261,0.93,0.632,1.279c0.396,0.373,0.999,0.499,1.41,0.899
			c0.341,0.333,0.18,0.781,0.36,1.201c0.364,0.848,0.729,1.545,0.498,2.475c-0.227,0.913-0.659,1.773-0.537,2.744
			c0.082,0.653,0.562,1.062,0.89,1.615c0.255,0.43,0.55,0.932,0.752,1.383c0.194,0.435,0.319,1.022,0.155,1.467
			c-0.215,0.588-0.088,1.076-0.077,1.698c0.011,0.621-0.354,1.108-0.352,1.729c0.002,0.53,0.111,1.111-0.239,1.541
			c-0.421,0.519-0.788,0.688-0.854,1.404c-0.045,0.481-0.067,1.014-0.354,1.433c-0.202,0.294-0.517,0.397-0.856,0.553
			c-0.422,0.194-1.012,0.149-1.271,0.546c-0.239,0.367-0.175,0.913-0.175,1.326c0,0.446-0.018,0.886-0.039,1.331
			c-0.017,0.366-0.122,0.898-0.195,1.247c-0.059,0.28-0.329,0.421-0.509,0.623c-0.349,0.391-0.289,0.9-0.269,1.43
			c0.031,0.786,0.035,1.529-0.14,2.301c-0.116,0.514-0.454,0.937-0.583,1.429c-0.128,0.49,0.212,0.735,0.253,1.178
			c0.033,0.351-0.187,0.602-0.364,0.865c-0.306,0.455-0.413,0.986-0.711,1.46c-0.27,0.429-0.951,1.111-0.791,1.66
			c0.107,0.366,0.517,0.665,0.786,0.902c0.48,0.422,0.493,0.64,0.49,1.267c-0.001,0.368-0.079,0.845,0.086,1.19
			c0.17,0.357,0.385,0.45,0.267,0.902c-0.095,0.367-0.399,0.563-0.542,0.902c-0.193,0.458-0.077,0.968-0.417,1.367
			c-0.245,0.288-1.085,0.643-1.039,1.09c0.028,0.271,0.349,0.351,0.547,0.488c0.616,0.425,1.611,1.565,1.278,2.385
			c-0.096,0.237-0.41,0.275-0.453,0.471c-0.025,0.111,0.195,0.475,0.214,0.614c0.026,0.184,0.023,0.377-0.03,0.552
			c-0.501,0.041-1.057-0.097-1.553-0.149c-0.643-0.068-1.404-0.278-1.883-0.731c-0.426-0.403-0.248-1.017-0.378-1.54
			c-0.25-1.01,0.17-0.892,0.637-1.881c-0.215-0.082-0.688-0.365-0.838-0.559c-0.335-0.433-0.008-1.314-0.034-1.839
			c-0.017-0.336-0.153-0.729-0.082-1.065c0.061-0.29,0.295-0.538,0.391-0.821c0.156-0.459,0.346-1.037,0.278-1.532
			c-0.078-0.567-0.328-0.956,0.096-1.44c0.279-0.319,0.883-0.542,0.723-1.014c-0.084-0.246-0.191-0.502-0.236-0.758
			c-0.049-0.282,0.072-0.609-0.005-0.886c-0.154-0.55-0.804-0.389-0.896,0.128c-0.081,0.451,0.32,1.043,0.241,1.399
			c-0.083,0.375-0.519,0.482-0.809,0.637c-0.319,0.172-0.624,0.242-0.96,0.366c-0.441,0.164-0.618,0.259-0.654,0.705
			c-0.04,0.486,0.155,0.736,0.371,1.142c0.235,0.439,0.293,0.912,0.292,1.404c0,0.354,0.023,0.75-0.037,1.097
			c-0.053,0.305-0.271,0.602-0.327,0.91c0.227,0.605,0.156,1.261,0.156,1.906c0,0.708,0.214,1.19,0.419,1.817
			c0.219,0.672,0.257,1.413,0.373,2.109c0.122,0.735,0.491,1.531,0.772,2.229c0.716,1.78,0.751,3.747,1.377,5.569
			c0.453,1.316,0.587,2.684,0.848,4.046c0.274,1.43,0.616,2.781,0.638,4.248c0.01,0.691,0.363,1.744,0.02,2.31
			c-0.099,0.164-0.27,0.124-0.385,0.286c-0.207,0.295-0.18,0.645-0.163,0.976c0.03,0.588,0.039,1.196,0.111,1.781
			c0.068,0.554,0.416,1.293,0.313,1.831c-0.292,1.512,0.563,2.991,0.832,4.475c0.169,0.932,0.378,1.856,0.517,2.796
			c0.151,1.019,0.637,1.937,0.797,2.935c0.147,0.917-0.01,1.894-0.063,2.811c-0.035,0.609-0.62,0.814-0.902,1.237
			c-0.24,0.36-0.142,0.968-0.101,1.418c0.073,0.802,0.364,1.45,0.551,2.224c0.215,0.892,0.527,1.803,0.82,2.682
			c0.157,0.472,0.247,0.934,0.27,1.438c0.031,0.693,0.229,1.202,0.471,1.86c0.221,0.6,0.317,1.266,0.185,1.91
			c-0.102,0.497-0.223,0.335-0.554,0.527c-0.319,0.185-0.248,0.351-0.262,0.683c-0.196,0.078-0.399,0.019-0.581,0.08
			c-0.38,0.128-0.241,0.057-0.096,0.361c0.182,0.385,0.259,0.976,0.485,1.319c0.056,1.167,0.704,2.22,0.703,3.383
			c0,0.669,0.076,1.01,0.354,1.591c0.3,0.625,0.359,1.416,0.52,2.107c0.352,1.514,1.318,2.772,1.911,4.201
			c0.775,1.865,1.724,3.488,2.004,5.522c0.17,1.237,0.783,2.169,0.781,3.467c0,0.506-0.11,0.864-0.18,1.331
			c-0.099,0.662,0.464,0.795,0.544,1.296c0.255,0.261,0.516,0.48,0.693,0.813c0.188,0.351,0.108,0.769,0.127,1.155
			c0.045,0.936,0.644,1.632,0.967,2.468c0.184,0.476,0.126,0.843,0.201,1.338c0.08,0.529,0.272,0.952,0.276,1.513
			c0.009,1.233,1.06,2.124,1.174,3.387c0.074,0.83,0.312,1.293,0.783,1.969c0.334,0.479,0.64,0.978,0.973,1.457
			c0.233,0.334,0.45,0.889,0.82,1.079c0.222,0.433,0.74,0.842,1.043,1.246c0.326,0.434,0.748,0.807,1.154,1.176
			c0.615,0.56,1.37,1.03,2.037,1.522c0.159,0.118,0.351,0.225,0.533,0.293c0.169,0.062,0.512,0.028,0.634,0.095
			c0.317,0.173,0.308,0.641,0.738,0.833c0.222,0.099,0.454,0.124,0.655,0.244c0.276,0.165,0.487,0.37,0.798,0.5
			c0.862,0.362,1.843,0.443,2.757,0.616c1.148,0.218,2.199,0.709,3.327,0.971c0.398,0.093,0.797,0.228,1.215,0.151
			c0.342-0.063,0.656-0.22,1.006-0.277c0.326,0.302,0.112,0.509,0.152,0.807c0.073,0.545,0.711,0.554,1.185,0.632
			c1.425,0.235,2.845,0.264,4.246-0.063c0.209-0.049,0.402,0.248,0.587,0.348c0.419,0.226,0.792,0.391,1.242,0.28
			c0.749-0.184,1.004-0.495,1.527-0.996c0.276-0.265,0.731-0.548,1.102-0.641c0.506-0.126,1.127-0.043,1.647-0.045
			c0.316-0.001,1.117,0.104,1.419-0.04c0.214-0.102,0.125,0.018,0.208-0.22c0.048-0.137-0.085-0.437,0.037-0.534
			c0.265-0.211,0.296,0.191,0.59-0.173c0.138-0.171,0.164-0.48,0.301-0.667c0.218-0.298,0.478-0.397,0.824-0.44
			c0.83-0.103,0.987,0.095,1.566-0.445c0.292-0.273,0.472-0.526,0.658-0.871c0.429-0.798,1.331-0.642,2.164-0.748
			c0.24-0.031,0.661-0.028,0.878-0.154c0.178-0.102,0.209-0.333,0.404-0.445c0.294-0.167,0.783-0.224,1.111-0.35
			c0.335-0.128,0.651-0.21,0.992-0.314c0.568-0.173,0.73-0.29,0.744-0.878c0.432,0.291,1.607,0.347,2.103,0.167
			c0.449-0.163,0.561-0.633,1.023-0.802c1.033,0.334,2.332-0.011,3.385-0.174c0.768-0.119,1.464-0.413,2.179-0.677
			c0.259-0.096,0.525-0.168,0.735-0.359c0.091-0.083,0.144-0.232,0.238-0.305c0.123-0.094,0.31-0.089,0.426-0.192
			c0.128-0.113,0.144-0.281,0.284-0.394c0.24-0.196,0.521-0.164,0.829-0.237c0.441-0.103,0.617-0.369,1.011-0.496
			c0.283-0.091,0.683-0.081,0.986-0.132c0.261-0.044,0.617-0.048,0.799-0.284c0.111-0.144,0.061-0.277,0.101-0.452
			c0.077-0.34,0.302-0.656,0.695-0.694c0.373-0.036,0.571,0.37,0.992,0.444c0.751,0.131,1.004-0.511,1.634-0.615
			c0.765-0.127,1.44,0.092,1.894-0.675c0.143-0.241,0.101-0.349,0.369-0.514c0.269-0.165,0.618-0.115,0.846-0.278
			c0.244-0.174,0.376-0.493,0.631-0.677c0.263-0.19,0.556-0.252,0.841-0.375c0.866-0.373,1.137-1.308,1.857-1.863
			c0.494-0.381,0.965-0.666,1.552-0.857c0.6-0.195,0.907-0.164,0.873-0.857c0.321-0.32,0.436-0.9,0.819-1.183
			c0.354-0.262,1.157-0.606,1.599-0.652c0.405-0.042,0.693,0.051,1.059-0.157c0.469-0.265,0.903-0.623,1.366-0.91
			c0.59-0.366,1.666-0.934,1.64-1.738c-0.009-0.287-0.18-0.506,0.041-0.755c0.279-0.314,0.918-0.492,1.265-0.774
			c0.318-0.257,0.356-0.581,0.595-0.864c0.274-0.325,0.894-0.538,1.248-0.775c0.88-0.591,1.43-1.75,1.86-2.689
			c0.193-0.421,0.166-0.897,0.344-1.317c0.211-0.498,0.707-0.912,1.126-1.242c0.211-0.166,0.264-0.107,0.349-0.381
			c0.094-0.3-0.062-0.612,0.084-0.899c0.14-0.276,0.436-0.423,0.523-0.759c0.084-0.323,0.003-0.677-0.038-0.998
			c-0.107-0.838,0.013-1.128,0.569-1.755c0.173-0.196,0.482-0.397,0.602-0.633c0.144-0.283,0.064-0.69,0.064-1.007
			c0.21-0.341,0.381-0.682,0.641-0.983c0.221-0.256,0.572-0.389,0.608-0.758c0.04-0.409-0.198-0.887-0.195-1.323
			c0.004-0.515,0.029-1.152,0.343-1.574c0.288-0.387,0.448-0.623,0.439-1.139c-0.007-0.428-0.012-0.229,0.196-0.507
			c0.218-0.29,0.243-0.486,0.233-0.862c-0.01-0.379-0.113-0.724-0.149-1.1c-0.055-0.573,0.046-0.902,0.297-1.39
			c0.384-0.749,0.527-1.473,0.586-2.316c0.046-0.669,0.04-0.824,0.415-1.331C169.164,140.535,169.338,140.006,169.236,139.497z"/>
		<path fill="#1E8346" d="M72.52,10.167c0.318,0.418,1.202,0.201,1.456-0.153c0.328-0.458,0.263-1.246,0.263-1.795
			c0-0.148,0.025-0.317,0-0.462c-0.035-0.217,0.005-0.179-0.212-0.221c-0.315-0.061-0.711-0.026-1.219,0
			c-0.167,0.233-0.352,0.421-0.43,0.704c-0.087,0.317,0.055,0.329,0.151,0.6C72.668,9.234,72.27,9.84,72.52,10.167z"/>
		<path fill="#1E8346" d="M72.835,12.725c0.106,0.159,0.139,0.394,0.201,0.573c0.171,0.496,0.559,0.546,0.949,0.853
			c0.159,0.125,0.232,0.287,0.436,0.339c0.312,0.08,0.408-0.068,0.572-0.28c0.325-0.419,0.861-0.225,1.304-0.086
			c0.509,0.159,0.975,0.447,1.505,0.546c0.222,0.041,0.311-0.022,0.394,0.157c0.142,0.308,0.012,0.426,0.478,0.467
			c0.709,0.062,0.856-0.717,0.674-1.247c-0.071-0.207-0.119-0.434-0.355-0.512c-0.251-0.083-0.447,0.117-0.69,0.173
			c-0.595,0.138-1.267-0.265-1.755-0.561c-0.171-0.104-0.6-0.318-0.684-0.524c-0.076-0.188,0.081-0.325,0.116-0.494
			c0.153-0.739-1.311-0.408-1.644-0.309c-0.126-0.203-0.041-0.475-0.179-0.686c-0.159-0.242-0.486-0.326-0.765-0.322
			c-0.455,0.008-0.841,0.305-1.262,0.472c-0.198,0.336-0.005,0.718,0.236,0.971C72.513,12.41,72.721,12.553,72.835,12.725z"/>
		<path fill="#1E8346" d="M71.219,16.988c0.288,0.039,0.617,0.048,0.911,0.025c0.397-0.031,0.549-0.049,0.547-0.454
			c-0.002-0.464,0.064-1.77-0.464-1.97c-0.186-0.07-0.289,0.018-0.462,0.061c-0.216,0.054-0.256,0.015-0.476-0.08
			c-0.236-0.102-0.557-0.305-0.82-0.265c-0.15,0.023-0.205,0.135-0.434,0.183c0,0.553-0.138,1.101-0.078,1.655
			C70.007,16.731,70.707,16.919,71.219,16.988z"/>
		<path fill="#1E8346" d="M66.202,21.408c0.387-0.419,0.171-2.107-0.229-2.431c-0.233-0.189-0.604-0.129-0.89-0.168
			c-0.323-0.043-0.488-0.131-0.742-0.332c-0.457-0.362-0.801-0.86-1.635-0.578c0,0.589-0.001,1.119,0.13,1.693
			c0.064,0.279,0.063,0.437,0.286,0.637c0.283,0.253,0.649,0.425,0.961,0.642C64.501,21.16,65.731,21.917,66.202,21.408z"/>
		<path fill="#1E8346" d="M68.129,13.161c0.199,0.08,0.477,0.269,0.685,0.126c0.205-0.141,0.151-0.407,0.201-0.619
			c0.049-0.206,0.184-0.392,0.108-0.607c-0.043-0.123-0.064-0.198-0.065-0.343c-0.001-0.149-0.017-0.419-0.157-0.517
			c-0.379-0.265-0.822,1.269-0.962,1.452C67.848,12.965,67.894,13.067,68.129,13.161z"/>
		<path fill="#1E8346" d="M67.925,15.988c0.106,0.13,0.221,0.025,0.336-0.056c0.155-0.109,0.305-0.223,0.38-0.409
			c0.08-0.198,0.055-0.398,0.066-0.607c0.007-0.131,0.093-0.561-0.04-0.648c-0.087-0.058-0.269,0.043-0.338,0.077
			c-0.12,0.185-0.283,0.301-0.389,0.495c-0.142,0.259-0.154,0.431-0.105,0.718C67.856,15.685,67.838,15.882,67.925,15.988z"/>
		<path fill="#1E8346" d="M78.698,29.699c-0.207,0.092-0.387,0.174-0.568,0.31c-0.104,0.078-0.205,0.131-0.317,0.194
			c-0.043,0.023-0.163,0.078-0.175,0.135c-0.008,0.04,0.046,0.092,0.068,0.123c0.053,0.078,0.101,0.165,0.163,0.237
			c0.103,0.119,0.248,0.24,0.409,0.258c0.237,0.027,0.486,0.044,0.724,0.03c0.165-0.01,0.339-0.004,0.316-0.217
			c-0.025-0.222-0.174-0.436-0.275-0.63C78.956,29.973,78.82,29.842,78.698,29.699z"/>
	</g>
</g>
</svg>
