<?xml version="1.0" encoding="utf-8"?>
<!-- Generator: Adobe Illustrator 26.0.3, SVG Export Plug-In . SVG Version: 6.00 Build 0)  -->
<svg version="1.1" xmlns="http://www.w3.org/2000/svg" xmlns:xlink="http://www.w3.org/1999/xlink" x="0px" y="0px"
	 viewBox="0 0 200 200" enable-background="new 0 0 200 200" xml:space="preserve">
<g id="Layer_1">
	<g id="Layer_1_00000107551159852787612550000017757744099325915571_">
		<g id="Layer_1_00000128480095285341338950000008464522443776971395_">
		</g>
	</g>
</g>
<g id="Isolation_Mode_00000063621668281934077600000006196874878142535819_">
	<g>
		<path fill="#1E8346" d="M175.788,81.616c-0.091-0.152-0.113-0.514-0.184-0.606c-0.138-0.179-0.436-0.126-0.667-0.131
			c-0.539-0.013-1.126-0.055-1.599-0.335c-1.026-0.606-2.618-0.089-3.605-0.915c-0.419-0.351-0.68-0.838-1.09-1.201
			c-0.433-0.384-0.731-0.631-1.072-1.109c-0.478-0.671-1.254-1.027-1.692-1.761c-0.407-0.681-1.007-1.423-1.154-2.22
			c-0.082-0.443-0.019-0.838-0.37-1.175c-0.244-0.235-0.562-0.446-0.812-0.669c-0.581-0.521-1.214-1.06-1.737-1.642
			c-0.281-0.312-0.645-0.638-0.829-1.019c-0.159-0.328-0.036-0.768-0.181-1.069c-0.253-0.523-0.962-0.833-1.253-1.368
			c-0.217-0.4-0.031-0.711-0.158-1.103c-0.085-0.261-0.196-0.213-0.42-0.354c-0.524-0.332-1.046-0.558-1.508-0.987
			c-0.516-0.479-0.742-1.265-0.858-1.928c-0.052-0.295-0.108-0.438-0.33-0.635c-0.361-0.319-0.646-0.146-1.06-0.242
			c-0.355-0.082-0.407-0.361-0.68-0.549c-0.294-0.202-0.613-0.17-0.836-0.481c-0.35-0.49-0.169-0.869-0.886-0.941
			c-0.275-0.028-0.689-0.056-0.947-0.002c-0.297,0.062-0.375,0.205-0.646,0.331c-0.602,0.282-1.541,0.226-2.197,0.173
			c-1.584-0.128-2.748-1.65-4.255-2.045c-0.775-0.203-1.693,0.075-2.498,0.004c-0.886-0.079-1.775-0.199-2.651-0.347
			c-1.464-0.248-2.839-0.734-4.193-1.345c-0.933-0.421-1.92-0.622-2.843-1.067c-0.846-0.408-1.753-0.519-2.645-0.804
			c-0.881-0.281-1.858-0.586-2.645-1.078c-0.579-0.362-0.906-0.986-1.379-1.446c-1.049-1.022-2.359-1.555-3.146-2.87
			c-0.193-0.322-0.405-0.653-0.603-0.981c-0.265-0.439-0.615-0.777-0.793-1.276c-0.213-0.601-0.816-1.063-1.226-1.534
			c-0.49-0.562-1.007-1.079-1.51-1.624c-0.409-0.443-0.711-0.986-1.067-1.47c-0.334-0.455-0.661-0.907-0.972-1.378
			c-0.576-0.874-1.028-1.773-1.332-2.772c-0.218-0.717-0.323-1.486-0.796-2.079c-0.29-0.364-0.845-0.914-0.974-1.379
			c-0.172-0.618,0.07-1.299-0.098-1.916c-0.287,0.053-0.94,0.179-0.964,0.529c-0.029,0.433,0.552,0.458,0.127,0.871
			c-0.611,0.592-1.295,1.314-2.237,1.27c-0.026,0.172-0.021,0.374-0.011,0.557c0.008,0.142,0.142,0.515,0.082,0.641
			c-0.108,0.227-0.656,0.371-0.864,0.503c-0.327,0.208-0.722,0.559-1.128,0.535c-0.491-0.028-0.726-0.371-0.972-0.745
			c-0.237-0.361-0.497-0.709-0.75-1.057c-0.18-0.246-0.626-0.719-0.569-1.052c0.133-0.771,0.864,0.085,1.215-0.077
			c-0.125-0.263,0.146-0.655,0.164-0.946c0.014-0.229-0.054-0.479-0.118-0.687c-0.105-0.343-0.988-0.766-1.356-0.793
			c-0.302-0.023-0.571,0.155-0.74,0.377c-0.194,0.255-0.27,0.373-0.6,0.398c-0.24,0.018-0.537-0.059-0.762,0.04
			c-0.36,0.157-0.725,0.793-0.756,1.173c-0.09,1.081,0.252,2.108,0.252,3.173c0,0.427,0.037,0.883-0.027,1.299
			c-0.023,0.148-0.061,0.327-0.146,0.453c-0.092,0.137-0.344,0.213-0.4,0.356c-0.089,0.23,0.322,0.403,0.127,0.692
			c-0.057,0.085-0.217,0.142-0.292,0.216c-0.102,0.102-0.148,0.205-0.239,0.335c-0.611,0.877,0.11,1.683,0.558,2.487
			c0.184,0.329,0.512,0.627,0.56,1.006c0.047,0.366-0.029,0.842-0.084,1.203c-0.059,0.379-0.242,0.606-0.477,0.892
			c-0.221,0.27-0.661,0.496-0.821,0.796c-0.345,0.649,1.003,0.78,1.397,0.798c0.7,0.032,1.478,0.001,2.161-0.139
			c0.145,0.579,0.204,1.107,0.483,1.646c0.229,0.445,0.367,1.04,0.608,1.481l-3.408,1.006l-0.866-0.726h-1.229l-4.169,2.172
			l0.859,1.739v1.969l0.629,0.754v1.949l-1.655,2.535l-0.838,2.012h-0.566l-3.101,5.74L92.3,77.401l8.171,13.855L88.348,130.1
			l-54.375,19.247l14.1,31.489l-0.681,1.058l1.194,0.209L53.89,194c1.602,0,3.05-1.26,4.598-1.527
			c1.004-0.174,2.015-0.346,3.025-0.386c0.548-0.022,1.172,0.095,1.71-0.042c0.422-0.108,0.865-0.274,1.295-0.385
			c-0.073-0.898,1.237-1.642,1.926-1.876c1.042-0.354,2.451,0.026,3.369-0.626c0.371-0.263,0.096-0.533,0.358-0.895
			c0.347-0.479,1.382-0.71,1.929-0.779c1.079-0.135,2.111-0.182,3.179-0.425c1.124-0.256,2.219-0.252,3.371-0.252
			c0.559,0,1.139-0.043,1.697,0.006c0.504,0.044,1.007,0.199,1.518,0.208c0.157,0.218,0.722,0.578,0.988,0.79
			c0.238,0.19,0.409,0.26,0.678,0.366c0.219,0.087,0.476,0.281,0.682,0.341c0.411,0.121,0.766-0.146,1.157-0.2
			c0.445-0.061,0.715,0.001,1.024-0.306c0.395-0.393,0.174-0.296,0.745-0.248c0.386,0.032,0.421-0.103,0.681-0.329
			c0.377-0.33,0.547-0.121,0.99-0.255c0.39-0.118,0.565-0.502,0.841-0.775c0.294-0.289,0.639-0.533,0.972-0.771
			c0.388-0.278,0.641-0.639,0.99-0.956c0.282-0.256,0.613-0.482,0.84-0.793c0.131-0.18,0.412-0.56,0.474-0.769
			c0.092-0.31-0.049-0.683,0.027-1.003c0.184-0.773,0.994-1.481,0.944-2.313c-0.057-0.949-1.228-0.85-1.306-1.838
			c-0.09-1.152,0.939-2.18,1.679-2.929c1.141-1.155,1.212-2.759,2.641-3.529c1.715-0.924,4.037-0.996,5.953-0.996
			c0.622,0,1.481,0.197,2.063,0.085c0.277-0.054,0.492-0.267,0.736-0.397c0.386-0.207,0.719-0.259,1.154-0.276
			c0.6-0.022,1.191,0.115,1.766,0.084c0.603-0.032,1.157-0.411,1.803-0.382c0.571,0.026,1.132,0.299,1.694,0.383
			c0.114,0.017,0.522,0.121,0.643,0.04c0.14-0.094,0.123-0.384,0.176-0.563c0.192-0.64,0.732-0.66,1.177-1.032
			c0.239-0.199,0.219-0.472,0.358-0.719c0.168-0.299,0.352-0.375,0.676-0.566c0.372-0.22,1.04-0.483,1.255-0.875
			c0.282-0.515-0.062-1.264,0.078-1.817c0.147-0.578,0.673-1.128,0.921-1.677c0.279-0.617,0.145-1.297,0.404-1.919
			c0.302-0.722,0.275-1.396,0.22-2.178c-0.073-1.033,0.125-1.373,0.962-2.018c0.311-0.239,0.558-0.604,0.82-0.875
			c0.276-0.285,0.481-0.61,0.728-0.915c0.601-0.744,1.18-1.137,2.005-1.593c1.068-0.591,2.23-0.791,3.376-1.172
			c1.062-0.353,2.073-0.741,3.167-0.997c2.418-0.566,4.858-0.487,7.338-0.481c0.855,0.002,1.357-0.69,2.165-0.797
			c0.439-0.058,0.752,0.032,1.016-0.331c0.03-0.041,0.156-0.317,0.16-0.378c0.022-0.301-0.06-0.238-0.192-0.43
			c-0.313-0.455-0.318-0.784-0.346-1.351c-0.034-0.704-0.043-0.845-0.436-1.411c-0.297-0.428-0.682-1.063-0.77-1.583
			c-0.087-0.512,0.128-0.856,0.245-1.305c0.215-0.827,0.555-1.591,0.072-2.351c-0.37-0.581-0.813-1.134-1.048-1.81
			c-0.173-0.497-0.109-0.72,0.165-1.17c0.13-0.213,0.366-0.536,0.351-0.797c-0.031-0.555-0.763-0.826-0.715-1.518
			c0.037-0.54,0.629-1.087,0.913-1.565c0.315-0.532,0.603-1.025,0.808-1.614c0.381-1.095,0.701-2.206,0.808-3.37
			c0.078-0.859-0.128-1.844,0.156-2.652c0.294-0.838,0.89-1.308,1.649-1.727c0.311-0.171,0.802-0.4,0.836-0.831
			c0.029-0.372-0.438-0.403-0.474-0.752c-0.12-1.171,1.523-0.962,2.043-1.978c0.169-0.33,0.23-0.73,0.354-1.079
			c0.221-0.621,0.526-0.576,1.13-0.851c0.428-0.195,0.757-0.493,1.14-0.76c0.444-0.309,0.325-0.122,0.739,0.165
			c0.373,0.26,0.578,0.233,0.545,0.767c-0.022,0.348-0.138,0.6-0.537,0.684c-0.122,0.373-0.083,0.8-0.172,1.184
			c-0.103,0.443-0.336,0.608-0.633,0.953c0.437,0.558,0.68,0.545,1.387,0.579c0.745,0.036,1.339,0.422,2.041,0.503
			c0.647,0.075,1.136,0.104,1.662-0.355c0.285-0.248,0.743-0.585,0.942-0.903c0.307-0.488,0.124-1.129,0.208-1.661
			c0.07-0.445,0.374-0.587,0.568-0.957c0.23-0.44,0.161-1.037,0.437-1.455c0.452-0.686,1.363-1.268,2.041-1.707
			c0.822-0.532,0.434-1.479,0.6-2.35c0.109-0.57,0.358-0.751,0.709-1.167c0.461-0.546,0.155-1.161,0.413-1.755
			c0.174-0.4,0.592-0.823,0.827-1.192c0.253-0.398,0.567-0.728,0.87-1.085c0.216-0.256,0.423-0.605,0.695-0.809
			c0.219-0.165,0.417-0.205,0.623-0.42c0.984-1.026,1.82-2.169,3.116-2.829c0.278-0.451,0.995-0.925,1.465-1.172
			c0.603-0.318,1.253-0.515,1.845-0.848c0.329-0.185,0.3-0.199,0.419-0.525c0.191-0.526,0.568-0.832,0.913-1.297
			c0.391-0.529,0.731-1.189,1.004-1.791c0.127-0.281,0.159-0.552,0.224-0.851c0.071-0.327,0.244-0.506,0.352-0.805
			c0.207-0.572,0.063-0.957,0.504-1.491c0.421-0.509,0.813-1.03,1.129-1.605c0.259-0.472,0.481-0.874,0.864-1.224
			c0.39-0.355,0.422-0.48,0.496-0.988c0.102-0.699,0.394-1.489,0.659-2.143c0.273-0.672,0.974-1.245,1.438-1.801
			c0.355-0.424,0.771-0.961,0.9-1.517c0.112-0.478,0.088-1.059,0.149-1.554c0.08-0.661,0.173-1.325,0.273-1.965
			C176.213,82.288,176.068,82.081,175.788,81.616z"/>
		<path fill="#1E8346" d="M109.494,10.709c0.274,0.554,0.384,1.338,0.232,1.932c-0.08,0.312-0.173,0.488-0.139,0.839
			c0.038,0.401,0.044,0.684-0.063,1.084c-0.046,0.171-0.02,0.194-0.122,0.313c-0.082,0.096-0.219,0.107-0.288,0.251
			c-0.196,0.406,0.26,0.937,0.324,1.357c0.093,0.619-0.244,1.107-0.202,1.696c0.034,0.479,0.331,0.914,0.473,1.363
			c0.376,0.096,1.197,0.416,1.594,0.177c0.384-0.231,0.203-1.01,0.247-1.368c0.071-0.584,0.153-1.051,0.619-1.38
			c0.147-0.104,0.352-0.207,0.452-0.366c0.123-0.198,0.135-0.514,0.228-0.73c0.039,0.038,0.105,0.046,0.147,0.096
			c0.212-0.181,0.247-0.586,0.317-0.851c0.114-0.43,0.243-0.311,0.474-0.657c0.211-0.317,0.275-0.789,0.271-1.163
			c0.736,0.137,0.161-0.699,0.111-0.959c-0.056-0.287,0.007-0.403-0.124-0.638c-0.186-0.333-0.278-0.552,0.107-0.8
			c0.234-0.151,0.469-0.181,0.447-0.548c-0.017-0.282-0.106-0.187-0.326-0.291c-0.07-0.033-0.119-0.131-0.189-0.156
			c-0.105-0.037-0.236,0.018-0.326-0.015c-0.294-0.107-0.449-0.524-0.735-0.69c-0.178,0.094-0.269,0.286-0.438,0.388
			c-0.139-0.571-0.162-1.64,0.701-1.636c0.519,0.002,0.384,0.752,0.714,1.021c0.19,0.156,0.816,0.193,0.979,0.001
			c0.3-0.355-0.319-0.488-0.416-0.728c-0.183-0.453,0.677-0.615,0.102-1.014c-0.304-0.21-0.484-0.167-0.688-0.518
			c-0.119-0.204-0.325-0.741-0.031-0.903c0.074-0.041,0.198,0.061,0.291,0.007c0.111-0.065,0.138-0.301,0.11-0.411
			c-0.051-0.201-0.431-0.47-0.599-0.599c-0.438-0.341-0.882-0.309-1.011,0.281c-0.098,0.446,0.287,0.72,0.261,1.142
			c-0.608,0.037-0.901,0.232-0.796,0.896c0.042,0.265,0.052,0.581-0.265,0.666c-0.364,0.098-0.838-0.415-1.124-0.625
			c-0.287-0.211-0.369-0.461-0.709-0.253c-0.499,0.305-0.678,1.113-0.88,1.611c-0.3,0.737-1.299,1.367-1.249,2.157
			C108.448,10.724,109.224,10.162,109.494,10.709z"/>
		<path fill="#1E8346" d="M159.871,119.834c-0.044-0.178,0.035-0.38-0.013-0.557c-0.108-0.404-0.507-0.487-0.71-0.804
			c-0.34-0.529,0.61-1.34,0.114-1.73c-0.489-0.385-0.553,0.496-0.62,0.782c-0.057,0.239-0.069,0.567-0.268,0.735
			c-0.155,0.13-0.293,0.179-0.419,0.357c-0.292,0.412-0.666,0.756-0.856,1.237c-0.094,0.238-0.121,0.471-0.12,0.726
			c0.001,0.353-0.075,0.646-0.172,0.983c-0.391,0.068-0.669,0.107-0.954,0.134c-0.321,0.031-0.413,0.158-0.631,0.394
			c-0.369,0.399-0.731,0.768-0.944,1.278c-0.229,0.549-0.188,1.002-0.187,1.576c0.001,0.474-0.071,1.045,0.135,1.49
			c0.086,0.185,0.214,0.577,0.448,0.473c0.089-0.04,0.174-0.177,0.261-0.235c0.144-0.097,0.316-0.151,0.467-0.24
			c0.306-0.18,0.529-0.364,0.737-0.651c0.136-0.188,0.264-0.385,0.417-0.561c0.169-0.194,0.414-0.317,0.527-0.551
			c0.102-0.211,0.072-0.414,0.088-0.637c0.03-0.407,0.258-0.783,0.384-1.165c0.253-0.774,0.867-1.176,1.502-1.642
			c0.27-0.198,1.187-0.679,1.021-1.069C160.024,120.031,159.905,119.974,159.871,119.834z"/>
		<path fill="#1E8346" d="M108.098,177.655c-0.126,0.005-0.232,0.073-0.366,0.042c-0.08-0.019-0.15-0.098-0.182-0.172
			c-0.082-0.188,0.055-0.368,0.066-0.552c0.001-0.024,0.012-0.129-0.021-0.145c-0.041-0.02-0.206,0.085-0.244,0.105
			c-0.107,0.056-0.195,0.129-0.293,0.2c-0.078,0.056-0.167,0.097-0.245,0.154c-0.126,0.094-0.256,0.182-0.388,0.266
			c-0.09,0.058-0.259,0.15-0.367,0.143c-0.121,0.041-0.276,0.183-0.281,0.303c-0.006,0.132,0.088,0.192,0.199,0.235
			c0.306,0.118,0.648,0.115,0.966,0.182c0.205,0.043,0.45,0.097,0.648-0.007c0.193-0.102,0.383-0.24,0.531-0.401
			C108.224,177.898,108.369,177.643,108.098,177.655z"/>
		<path fill="#1E8346" d="M104.245,178.084c-0.037-0.035-0.083-0.08-0.128-0.104c-0.059-0.031-0.131-0.036-0.19-0.068
			c-0.062-0.038-0.207,0.019-0.253,0.073c-0.085,0.099-0.023,0.163,0.052,0.225c0.147,0.12,0.248,0.28,0.458,0.225
			c0.091-0.024,0.241-0.076,0.199-0.196C104.363,178.181,104.289,178.127,104.245,178.084z"/>
	</g>
</g>
</svg>
