<?xml version="1.0" encoding="utf-8"?>
<!-- Generator: Adobe Illustrator 26.0.3, SVG Export Plug-In . SVG Version: 6.00 Build 0)  -->
<svg version="1.1" xmlns="http://www.w3.org/2000/svg" xmlns:xlink="http://www.w3.org/1999/xlink" x="0px" y="0px"
	 viewBox="0 0 200 200" enable-background="new 0 0 200 200" xml:space="preserve">
<g id="Layer_1">
	<g id="Layer_1_00000107551159852787612550000017757744099325915571_">
		<g id="Layer_1_00000128480095285341338950000008464522443776971395_">
		</g>
	</g>
</g>
<g id="Isolation_Mode_00000063621668281934077600000006196874878142535819_">
	<path fill="#1E8346" d="M145.805,130.717c-0.31-0.232-0.792-0.69-0.956-1.051c-0.146-0.321,0.015-0.714,0.015-1.02
		c0-0.73,0.095-1.047,0.355-1.697c0.303-0.757,0.106-1.542,0.186-2.323c0.12-1.169,0.328-2.264,0.33-3.453
		c0.001-1.274-0.541-1.956-1.036-3.08c-0.464-1.056,0.491-1.873,0.546-2.932c0.044-0.853,0.218-1.557,0.218-2.412
		c-0.748-0.507-2.002-2.127-1.684-3.164c0.277-0.903,1.399-0.974,2.126-1.254c0.497-0.192,0.53-0.155,0.593-0.631
		c0.052-0.395-0.09-0.882-0.209-1.245c-0.396-1.204-1.374-2.76-2.191-3.761c-0.062,1.072-1.1,1.312-1.963,1.235
		c-0.617-0.056-0.974-0.378-1.583-0.286c-0.814,0.124-1.601,0.363-2.408,0.038c-0.438-0.176-1.145-0.545-1.445-0.905
		c-0.396-0.476-0.166-0.865,0.098-1.342c0.337-0.606,0.41-0.999,0.119-1.641c-0.404-0.891-0.947-1.265-0.338-2.208
		c0.454-0.703,0.941-1.705,1.962-1.549c1,0.153,1.781,1.859,2.909,0.752c0.503-0.493,0.283-1.228-0.229-1.609
		c-0.823-0.611-1.75-0.515-2.737-0.602c-0.488-0.043-1.249-0.121-1.296-0.771c-0.025-0.352,0.273-0.414,0.374-0.697
		c0.074-0.208,0.044-0.337,0.044-0.558c-0.505-0.201-1.024-1.665-0.83-2.329c0.26-0.886,0.583-1.035,0.252-1.995
		c-0.663-1.92-1.825-3.289-2.976-4.929c-0.505-0.72-0.766-1.579-1.345-2.257c-0.516-0.604-1.068-0.73-0.968-1.587
		c0.079-0.677,0.364-1.529,0.531-2.182c0.264-1.036,1.21-1.917,1.189-3.018c-1.129-0.542-0.549-2.341-0.352-3.413
		c0.149-0.806,0.107-0.813,0.811-1.023c0.66-0.197,1.285-0.3,1.927-0.566c1.133-0.469,2.223-0.631,2.72-1.831
		c0.23-0.556,1.009-2.692,0.419-2.887c-0.78-0.259-1.47-0.281-1.746-1.127c-0.187-0.573,0.031-1.459-0.357-1.976
		c-0.466-0.623-2.587-0.06-2.396-1.063c0.114-0.6,1.324-0.471,1.729-0.621c0.522-0.193,0.666-0.573,1.183-0.517
		c0.402,0.044,1.994,0.921,2.097,1.194c0.144,0.377-0.206,0.652-0.461,0.927c0.555,0.513,2.23,0.022,2.989,0.205
		c0.043-0.937-0.065-2.032,0.17-2.947c0.145-0.565,0.61-1.158,0.377-1.768c-0.157-0.409-0.902-0.954-1.199-1.24
		c-0.367,0.366-0.802,1.364-0.462,1.862c-0.369-0.44-0.78-0.87-1.201-1.256c-0.239-0.22-1.039-0.733-0.997-1.133
		c0.079-0.745,1.196-0.278,1.434-0.9c0.283-0.737,0.084-1.945,0.145-2.705c0.876-0.291,1.05,0.033,1.545-0.839
		c0.314-0.553,0.778-1.032,1.068-1.588c0.723-1.387-0.461-2.305-0.747-3.705c-0.256-1.254-0.197-2.231-0.74-3.435
		c-0.426-0.945-0.371-1.97-0.32-3.009c0.976-0.555,1.72-0.323,1.884-1.74c0.056-0.488-0.186-0.933-0.211-1.306
		c-0.023-0.346,0.317-1.077,0.144-1.364c-0.587-0.973-1.788,0.722-2.325,0.833c-2.023,0.421-3.533-0.261-4.652-1.705
		c-0.88-1.135-2.53-1.374-3.896-1.151c-2.073,0.338-4.136,0.499-6.093-0.459c-0.732-0.358-2.26-1.028-2.214-2.003
		c0.01-0.216,0.327-0.587,0.39-0.829c0.106-0.406,0.053-0.855,0.053-1.274c0-0.901,0.273-1.85-0.516-2.395
		c-0.834-0.576-1.72-0.643-2.332-1.557c-0.818-1.221-1.435-2.763-1.364-4.235c0.06-1.241-0.07-2.557-0.069-3.808
		c-0.716-0.604-1.18-1.24-2.021-1.742c-0.949-0.567-2.009-0.987-2.951-1.606c-0.955-0.627-3.454-2.235-3.376-3.548
		c-0.287,0.447-0.494,0.887-1.015,1.016c-0.545,0.136-1.169-0.132-1.713,0.067c-1.107,0.405-0.976,1.845-2.372,1.721
		c-1.36-0.121-3.074-0.602-3.776,0.886c-0.204,0.432-0.193,0.654-0.638,0.923c-0.362,0.218-0.791,0.294-1.139,0.549
		c-0.672,0.493-0.574,1.021-0.67,1.754c-0.122,0.932-1.023,2.106-1.772,2.649c-0.577,0.419-1.902,0.899-2.067-0.091
		c-1.04-0.153-1.546,0.814-2.596,0.841c-0.767,0.02-0.807-0.192-1.302,0.582c-0.868,1.359-3.315,1.593-3.318,3.187
		c-0.002,0.658-0.066,1.082-0.354,1.688c-0.369,0.775-0.203,1.582-0.27,2.428c-0.062,0.78,0.01,1.617-0.645,2.162
		c-0.689,0.573-1.732,0.888-2.509,1.363c-0.399-0.567-0.618-1.665-1.347-1.91c0.062,1.86,0.097,3.743,0.182,5.605
		c0.046,1.003,0.287,2.418-0.198,3.34c-0.302,0.573-1.483,1.302-1.447,1.982c-0.815,0.336,0.333,1.597-0.276,2.137
		c-0.57,0.507-1.547,0.299-1.851,1.071c-0.193,0.491-0.083,1.956,0.237,2.439c0.533,0.804,1.779,0.845,2.455,1.556
		c0.663,0.697,0.756,1.357,0.429,2.258c-0.169,0.468-0.55,0.74-0.724,1.182c-0.238,0.604-0.047,0.911-0.615,1.272
		c-0.578,0.368-0.899,0.59-1.398,1.054c-0.004-0.958,0.29-2.448-0.327-3.272c-0.272-0.362-0.62-0.432-1.036-0.621
		c-0.482-0.219-1.064-0.727-1.592-0.745c-0.331,0.652-0.125,1.626-0.854,2.059c-0.235,0.14-0.767,0.028-0.961,0.219
		c-0.209,0.206-0.17,0.612-0.223,0.884c-0.141,0.718-0.291,1.273-0.124,1.996c0.154,0.671,0.759,1.336,0.821,2.001
		c0.078,0.829-1.218,1.139-1.64,1.812c-0.342,0.545-0.473,1.116-0.38,1.767c0.067,0.465,0.368,0.78,0.435,1.24
		c0.059,0.4,0.007,0.98-0.064,1.375c-0.067,0.378-0.378,1.137-0.045,1.454c0.33,2.104,1.87,3.438,2.899,5.185
		c0.713-0.026,1.457-0.093,2.077-0.445c0.439-0.249,0.84-0.516,1.305-0.724c0.598-0.268,2.288-0.792,2.07,0.367
		c-0.118,0.625-0.787,1.147-1.218,1.554c-0.758,0.715-0.363,0.617-0.048,1.471c-1.087,0.918-2.066,0.102-2.897-0.677
		c-0.415,0.243-1.298,0.528-1.562,0.934c-0.294,0.451,0.114,0.653-0.018,1.158c-0.152,0.583-0.79,0.643-0.763,1.351
		c0.012,0.31,0.13,0.487,0.172,0.772c0.094,0.651-0.043,1.431-0.105,2.086c-0.088,0.936-0.546,1.732-0.649,2.648
		c-0.077,0.675,0.098,1.022,0.373,1.59c0.15,0.309,0.322,0.596,0.106,0.91c-0.661,0.031-1.15,0.082-1.51-0.549
		c-0.473-0.828,0.155-2.159-0.715-2.756c-0.521-0.358-1.719-0.22-2.064-0.835c-0.122-0.217-0.098-1.187-0.065-1.446
		c0.106-0.851,0.618-0.875,0.011-1.597c-0.483-0.574-0.568-0.541-0.112-1.17c0.352-0.483,0.704-0.766,0.865-1.353
		c0.192-0.702,0.2-1.518,0.217-2.257c0.013-0.574,0.138-1.449-0.048-1.983c-0.369,0.191-0.731,0.215-1.124,0.086
		c-0.872-0.287-0.981-1-1.616-1.506c-0.213,0.391-0.597,1.025-0.688,1.453c-0.111,0.516,0.287,0.91,0.523,1.333
		c-0.461-0.156-0.872-0.486-1.373-0.539c-0.652-0.069-1.458,0.069-2.101,0.167c-0.735,0.111-1.292,0.225-1.466,0.958
		c-0.088,0.373-0.181,1.164-0.049,1.53c0.576,1.595,1.261-0.182,2.066-0.037c0.58,0.104,1.152,1.226,1.305,1.77
		c0.232,0.827,0.13,1.817-0.003,2.694c-0.031,0.204-0.065,0.675-0.169,0.861c-0.139,0.25-0.49,0.361-0.64,0.606
		c-0.251,0.408-0.404,1.374-0.275,1.832c0.162,0.578,0.854,0.955,1.214,1.453c0.557,0.769,0.7,1.512,0.489,2.444
		c-0.172-0.037-0.359,0.025-0.525,0.01c0.28,0.426,1.313,1.865,1.083,2.328c-0.151,0.304-0.767,0.349-1.059,0.471
		c-0.388,0.163-0.685,0.386-1.04,0.607c-0.114-1.409-0.098-3.019-0.493-4.371c-0.327-1.121-1.066-1.856-1.932-2.62
		c-0.428-0.378-0.399-0.446-0.839-0.276c-0.297,0.115-0.556,0.396-0.785,0.607c-0.541,0.495-1.329,0.847-1.751,1.437
		c-0.54,0.754,0.182,0.852,0.351,1.581c0.18,0.777,0.037,1.963-0.161,2.724c-0.223,0.854-0.582,1.734-0.942,2.547
		c-0.237,0.537-0.568,1.048-0.583,1.644c-0.022,0.914,0.807,1.626,0.817,2.559c0.012,1.248,0.813,2.301,0.872,3.568
		c0.083,1.797,0.103,3.62,0.055,5.422c-0.036,1.371-0.689,2.515-0.814,3.832c-0.102,1.084-0.106,2.264-0.054,3.356
		c0.042,0.889,1.084,1.329,1.084,2.223c0,2.023-0.335,4.241-0.108,6.234c0.117,1.026,0.71,1.845,0.761,2.886
		c0.041,0.84-0.316,1.564-0.435,2.376c-0.295,2.014,1.512,2.659,2.479,4.181c0.78,1.227,1.945,3.856,1.323,5.288
		c-0.628,1.447-2.069,1.243-1.709,3.181c0.232,1.25,0.159,2.411,0.834,3.389c0.433,0.627,1.223,1.176,1.537,1.861
		c0.282,0.617,0.104,1.095,0.218,1.75c0.215,1.226,1.285,1.682,2.098,2.613c0.75,0.859,1.544,1.903,1.906,3.019
		c0.402,1.24,0.028,2.339,0.025,3.618c-0.003,0.931-0.234,1.14-0.598,1.935c-0.305,0.665-0.076,1.201,0.217,1.844
		c0.245,0.539,0.745,1.015,0.925,1.576c0.175,0.545,0.054,1.261,0.055,1.834c0,0.897-0.161,1.751-0.631,2.525
		c-1.088,1.791-3.052,2.644-5.031,2.644l11.741,21.614l6.968,4.864L94.777,192l19.309-3.702c-0.318-2.157,0.158-4.183,0-6.388
		c-0.045-0.619,0.148-1.324,0.366-1.895c0.261-0.684,1.286-1.249,1.046-2.048c-0.807-0.236-1.659-0.171-2.492-0.316
		c-1.294-0.226-1.314-1.268-2.62-1.257c-1.67,0.014-4.319,0.116-4.366-2.202c0.497-0.244,1.425,0.145,1.837-0.129
		c0.28-0.187,0.22-0.699,0.541-0.872c0.446-0.241,1.444,0.091,1.958,0.012c0.442-0.068,0.701-0.216,1.031-0.513
		c0.078,0.344,0.173,0.694,0.384,0.982c0.353-0.329,0.605-0.731,0.912-1.11c0.542-0.668,0.444-0.568,0.899-0.07
		c0.678,0.745,0.538,1.33,1.633,1.432c1.206,0.112,2.081-0.18,3.107-0.724c0.187,0.792,0.867,4.931-0.125,5.331
		c-0.44-0.272-0.844-0.642-1.424-0.533c0.005,0.756,0.596,1.16,0.883,1.807c0.388,0.877-0.103,1.755,0.2,2.63
		c1.016-0.898,2.22-1.605,3.289-2.464c1.117-0.898,0.566-1.715,0.434-2.797c-0.133-1.094,0.88-1.826,1.745-2.288
		c1.152-0.615,2.143-0.476,2.992-1.683c0.7-0.995,0.841-2.139,1.119-3.257c0.358-1.442,1.06-3.038,1.876-4.28
		c0.826-1.257,1.588-2.582,2.118-3.986c0.443-1.176,0.21-2.378,0.436-3.574c0.348-1.833,1.992-3.686,2.491-5.558
		c0.299-1.119,1.559-2.178,2.3-3.037c0.969-1.123,1.903-2.295,2.736-3.529c0.725-1.075,1.174-2.372,2.011-3.365
		c0.321-0.381,0.812-0.755,1.011-1.223c0.189-0.443,0.11-0.996,0.11-1.476c-0.367-0.187-0.231-1.345-0.218-1.766
		c0.023-0.74,0.504-0.919,1.14-1.369c0.462-0.327,0.882-0.651,1.374-0.934c0.374-0.215,1.353-0.611,1.517-1.057
		c0.1-0.271-0.096-0.644-0.375-0.617c-0.18,0.017-0.512,0.551-0.657,0.655c-0.308,0.223-0.669,0.371-1.021,0.453
		c-0.353,0.082-0.795-0.022-0.985,0.334c-0.214-0.96-1.222-3.788-0.036-4.14c0.719-0.214,0.754,0.351,0.947,0.904
		c0.237,0.68,0.145,1.426,0.98,1.059c0.396-0.174,0.782-0.506,1.21-0.682c0.399-0.164,1.62-0.249,1.815-0.678
		C148.625,131.18,146.294,131.083,145.805,130.717z"/>
</g>
</svg>
