<?xml version="1.0" encoding="utf-8"?>
<!-- Generator: Adobe Illustrator 26.0.3, SVG Export Plug-In . SVG Version: 6.00 Build 0)  -->
<svg version="1.1" id="Isolation_Mode" xmlns="http://www.w3.org/2000/svg" xmlns:xlink="http://www.w3.org/1999/xlink" x="0px"
	 y="0px" viewBox="0 0 200 200" enable-background="new 0 0 200 200" xml:space="preserve">
<g>
	<path fill="#1E8346" d="M190.566,75.842c-0.655-0.435-1.171-0.668-1.996-0.727c-0.38-0.027-0.786,0.048-1.161-0.045
		c-0.307-0.076-0.197-0.04-0.429-0.244c-0.382-0.337-0.653-0.833-0.949-1.247c-0.361-0.507-0.572-0.843-1.248-0.978
		c-0.421-0.085-0.772-0.024-1.094,0.254c-0.232,0.2-0.31,0.465-0.498,0.692c-0.203,0.246-0.56,0.505-0.821,0.696
		c-0.591,0.433-1.292,0.372-1.991,0.29c-0.713-0.083-1.343-0.266-2.039-0.457c-0.702-0.193-0.671-0.688-1.103-1.183
		c-0.428-0.49-1.345-0.286-1.892-0.532c-0.339-0.152-0.496-0.548-0.841-0.675c-0.428-0.157-1.259,0.033-1.711,0.075
		c-0.365,0.033-0.802-0.041-1.158,0.031c-0.206,0.042-0.484,0.206-0.696,0.285c-1.127,0.417-1.872,1.265-2.911,1.788
		c-0.443,0.223-0.842,0.41-1.308,0.549c-0.316,0.095-0.847,0.505-1.104,0.703c-0.756,0.579-1.706,1.096-2.637,1.323
		c-0.748,0.182-1.463,0.575-2.263,0.575c-0.374,0-0.682-0.112-0.987-0.328c-0.402-0.284-0.66-0.335-1.171-0.295
		c-0.759,0.058-1.412,0.669-2.031,1.051c-0.58,0.358-1.22,0.484-1.876,0.674c-0.399,0.116-0.752,0.323-1.134,0.469
		c-0.349,0.133-0.726,0.151-1.078,0.279c-0.626,0.228-0.935,0.797-1.454,1.134c-0.301,0.196-0.548,0.08-0.873,0.161
		c-0.293,0.074-0.383,0.276-0.626,0.438c-0.551,0.37-0.951,0.064-1.426-0.272c-0.509-0.359-1.152-0.245-1.568-0.756
		c-0.392-0.483-1.209-0.777-1.83-0.801c-0.952-0.036-1.573-0.5-2.338-1.02c-0.517-0.352-1.567-0.905-2.162-0.789
		c-0.506,0.098-1.127,0.809-1.615,0.697c-0.262-0.06-0.275-0.204-0.567-0.182c-0.293,0.022-0.75,0.305-0.959,0.49
		c-0.212,0.188-0.397,0.451-0.577,0.673c-0.265,0.327-0.209,0.275-0.609,0.31c-0.525,0.046-1.115,0.116-1.612,0.358
		c-0.612,0.298-0.869,0.97-1.412,1.325c-0.979-0.495-1.33,0.898-2.082,1.15c-0.462,0.155-0.929-0.093-1.434-0.139
		c-0.438-0.04-0.684-0.031-1.059,0.164c-0.427,0.223-0.5,0.345-0.956,0.108c-0.307-0.16-0.603-0.362-0.969-0.341
		c-0.677,0.039-1.227,0.609-1.912,0.66c-0.474,0.036-0.974,0.068-1.437,0.192c-0.289,0.076-0.567,0.32-0.828,0.388
		c-0.357,0.092-0.762-0.078-1.12,0.032c-0.197,0.06-0.234,0.288-0.545,0.224c-0.23-0.047-0.552-0.359-0.787-0.47
		c-0.207-0.098-0.418-0.149-0.641-0.182c-0.282-0.041-0.649,0.04-0.918-0.043c-0.313-0.096-0.311-0.314-0.503-0.544
		c-0.296-0.354-0.554-0.101-0.924-0.26c-0.146-0.063-0.211-0.203-0.307-0.313c-0.359-0.411-1.175-0.648-1.645-0.266
		c-0.189-0.192-0.61-0.229-0.863-0.386c-0.354-0.221-0.602-0.151-1.026-0.193c-0.271-0.026-0.52-0.13-0.798-0.148
		c-0.571-0.036-1.134,0.073-1.7,0.101c-0.715,0.036-1.44-0.004-2.153,0.051c-0.574,0.044-0.513,0.189-0.84,0.505
		c-0.219,0.211-0.431,0.18-0.676,0.328c-0.204,0.122-0.182,0.25-0.335,0.404c-0.321,0.324-1.042,0.271-1.471,0.254
		c-0.596-0.025-1.249,0.211-1.757,0.511c-0.236,0.14-0.441,0.399-0.675,0.52c-0.193,0.1-0.501,0.096-0.724,0.13
		c-0.226,0.034-0.553,0.127-0.776,0.08c-0.137-0.029-0.312-0.25-0.434-0.245c-0.252,0.012-0.387,0.543-0.611,0.684
		c-0.185,0.116-0.748,0.329-0.98,0.363c-0.467,0.07-0.545-0.283-0.782-0.512c-0.397-0.383-1.01-0.046-1.502-0.006
		c-0.387,0.032-0.975-0.168-1.38-0.217c-0.092-0.394-0.394-0.421-0.75-0.394c0.017,0.482,0.098,1.046-0.329,1.368
		c-0.143,0.108-0.351,0.134-0.513,0.202c-0.277,0.116-0.617,0.447-0.925,0.218c-0.188-0.14-0.106-0.273-0.393-0.403
		c-0.361-0.164-0.749-0.148-1.131-0.128c-0.653,0.035-1.512,0.118-1.854,0.747c-0.297,0-2.125-0.056-2.297,0.236
		c-0.116,0.196,0.21,0.604,0.218,0.821c-0.372,0.02-0.578-0.186-0.903-0.148c-0.24,0.029-0.3,0.243-0.56,0.199
		c-0.175-0.03-0.329-0.248-0.496-0.314c-0.344-0.138-0.772-0.121-1.14-0.134c-0.754-0.027-1.579-0.128-2.332-0.039
		c-0.426,0.05-0.875,0.362-1.231,0.615c-0.334,0.237-0.643,0.367-1.026,0.545c-0.457,0.213-1.005,0.432-1.476,0.494
		c-0.702,0.093-0.786-0.04-1.027,0.65c-0.918-0.007-1.836-0.019-2.751-0.039c-0.878-0.02-1.757,0.042-2.633,0.081
		c-0.327,0.015-0.751,0.003-1.047,0.127c-0.199,0.083-0.429,0.299-0.628,0.417c-1.107,0.657-2.042,1.353-3.365,1.424
		c-0.081,0.192-0.068,0.452-0.15,0.652c-0.139,0.339-0.388,0.559-0.587,0.847c-0.169,0.244-0.173,0.489-0.26,0.757
		c-0.097,0.299-0.345,0.365-0.477,0.612c-0.14,0.264-0.006,0.243,0.103,0.513c0.161,0.399,0.109,0.865-0.042,1.266
		c-0.18,0.478-0.181,0.864-0.089,1.376c-0.374,0.043-0.23,1.018-0.218,1.322c0.018,0.439,0.142,0.846,0.146,1.282
		c0.004,0.456-0.131,0.632-0.41,0.967c-0.255,0.305-0.4,0.73-0.739,0.95c-0.341,0.221-0.815,0.255-1.077,0.556
		c-0.467,0.042-0.717-0.011-1.08,0.279c-0.293,0.235-0.545,0.512-0.809,0.775c-0.323,0.32-0.763,0.583-0.918,1.034
		c-0.129,0.376-0.085,0.802-0.203,1.184c-0.197,0.64-0.532,1.266-0.877,1.831c-0.309,0.505-0.425,1.129-0.846,1.548
		c-0.336,0.335-0.857,0.544-1.288,0.712c0.2,0.467-0.365,1.122-0.641,1.412c-0.151,0.159-0.451,0.413-0.499,0.63
		c-0.065,0.289,0.133,0.413,0.237,0.658c0.088,0.208,0.178,0.57,0.102,0.795c-0.078,0.232-0.418,0.307-0.443,0.556
		c-0.026,0.25,0.313,0.409,0.434,0.585c0.22,0.319,0.218,0.754,0.48,1.05c0.13-0.575,0.551,0.2,0.711,0.268
		c0.114,0.049,0.319-0.029,0.444-0.003c0.272,0.056,0.138,0.058,0.386,0.256c0.246,0.196,0.294,0.182,0.623,0.045
		c0.321-0.133,0.657-0.232,1.025-0.121c0.143-0.179,0.191-0.597,0.335-0.723c0.088-0.077,0.673-0.219,0.809-0.251
		c0.449-0.106,0.599-0.024,0.923-0.353c0.253-0.257,0.387-0.243,0.703-0.386c0.155-0.07,0.266-0.2,0.414-0.265
		c0.329-0.146,0.649-0.07,0.964-0.28c0.55-0.367,1.094-0.895,1.394-1.467c0.198-0.377,0.237-1.754,0.762-1.701
		c0.312,0.032,0.747,0.711,0.913,0.932c0.159,0.211,0.325,0.573,0.545,0.72c0.342,0.228,0.897,0.147,1.288,0.37
		c0.468,0.267,0.951,0.682,1.314,1.08c0.225,0.247,0.178,0.223,0.209,0.598c0.024,0.297,0.182,0.521,0.223,0.812
		c0.053,0.379-0.192,0.593-0.277,0.927c-0.111,0.44,0.14,0.741-0.017,1.146c-0.139,0.361-0.217,0.845-0.413,1.188
		c-0.071,0.124-0.234,0.126-0.247,0.313c-0.008,0.12,0.285,0.456,0.35,0.557c-0.409,0.313-0.52,0.233-0.379,0.754
		c0.036,0.133,0.143,0.773,0.246,0.875c0.285,0.28,1.121-0.04,0.838,0.743c-0.092,0.255-0.643,0.918-0.882,1.018
		c-0.092,0.039-0.187-0.046-0.274-0.036c-0.48,0.052-1.008-0.069-1.499-0.03c-0.563,0.044-1.178,0.442-1.682,0.692
		c-0.429,0.213-0.729,0.606-1.223,0.569c-0.642-0.047-0.468-0.402-0.846-0.777c-0.305-0.301-1.299-0.83-1.744-0.654
		c-0.2,0.079-0.209,0.337-0.466,0.41c-0.223,0.063-0.364-0.032-0.564-0.115c-0.582-0.241-1.484-0.676-1.903-0.005
		c-0.203,0.323-0.191,0.41-0.486,0.66c-0.307,0.259-0.313,0.433-0.4,0.886c-0.122,0.636,0.074,1.441,0.074,2.087
		c0.203,0.233,0.197,0.545,0.366,0.79c0.09,0.13,0.236,0.203,0.316,0.329c0.344,0.547-0.031,1.307,0.139,1.892
		c0.438,0.137,0.911,0.231,1.203,0.577c0.221,0.263,0.371,0.579,0.612,0.83c0.301,0.313,0.506,0.164,0.839,0.363
		c0.428,0.255,0.25,1.065,0.248,1.501c-0.004,0.962,0.446,0.841,1.081,1.382c0.453,0.386,0.487,0.806,0.479,1.316
		c-0.005,0.274,0.056,0.376,0.157,0.65c0.109,0.295,0.109,0.515,0.109,0.843c0,0.533,0.025,1.039,0.099,1.562
		c0.059,0.414,0.032,0.876,0.121,1.284c0.348-0.597,0.989-1.14,1.463-1.647c0.724-0.773,1.793-1.359,2.826-1.527
		c0.781-0.127,1.605-0.217,2.395-0.217c0.709,0,0.872-0.358,1.31-0.87c0.746-0.871,1.441-1.809,2.447-2.379
		c0.456-0.258,0.997-0.44,1.301-0.882c0.24-0.349,0.408-0.661,0.739-0.933c0.75-0.616,1.698-1.065,2.519-1.578
		c0.076-0.415,0.731-0.808,1.023-1.096c0.677-0.667,1.494-0.689,2.409-0.728c0.659-0.028,1.437-0.071,2.05-0.336
		c0.744-0.322,1.199-0.973,1.868-1.375c0.922-0.554,2.05-0.616,3.093-0.666c0.475-0.023,0.81-0.173,1.122-0.538
		c0.678-0.793,1.488-1.428,2.572-1.43c0.588-0.001,1.283-0.066,1.857,0.089c0.629,0.17,1.192,0.489,1.843,0.625
		c0.54,0.113,1.37,0.214,1.91,0.054c0.949-0.282,1.104-1.811,2.146-2.083c0.473-0.123,0.914,0.109,1.378,0.038
		c0.432-0.066,0.327-0.297,0.585-0.601c0.364-0.429,1.093-0.852,1.661-0.714c0.636,0.155,1.092,0.335,1.622-0.127
		c0.46-0.401,1.148-0.833,1.696-1.114c0.416,0,0.85-0.036,1.263,0.018c0.354,0.046,0.476,0.186,0.774,0.347
		c0.814,0.437,2.125,0.15,2.99-0.001c0.902-0.157,1.749-0.682,2.449-1.277c0.686-0.582,1.352-1.323,2.117-1.795
		c0.765-0.472,1.812-0.36,2.412-1.1c0.488-0.602,0.95-1.121,1.568-1.603c0.525-0.408,1.093-0.724,1.662-1.074
		c0.58-0.356,1.052-0.856,1.611-1.239c0.422-0.29,0.978-0.426,1.478-0.497c1.343-0.191,2.638-0.145,3.986-0.137
		c0.666,0.004,1.295,0.108,1.934,0.293c0.247,0.071,0.493,0.182,0.75,0.184c0.582,0.005,1.075-0.416,1.605-0.573
		c1.1-0.326,2.179-0.672,3.212-1.188c1.497-0.748,3.101-0.277,4.676-0.212c0.454,0.019,1.069,0.194,1.45-0.145
		c0.324-0.288,0.543-0.978,0.742-1.366c0.235-0.459,0.455-0.949,0.806-1.339c0.205-0.228,0.488-0.366,0.677-0.612
		c0.359-0.467,0.644-1.042,0.93-1.556c0.513-0.922,1.258-1.311,1.642-2.28c0.089-0.226,0.441-0.308,0.623-0.465
		c0.246-0.211,0.342-0.554,0.61-0.733c0.576-0.385,1.269,0.239,1.87-0.077c0.813-0.428,0.956-1.417,1.831-1.803
		c0.527-0.233,1.077-0.626,1.623-0.793c0.523-0.16,1.259-0.101,1.793-0.048c0.404,0.04,0.811,0.282,1.221,0.183
		c0.375-0.09,0.608-0.438,0.963-0.588c1.055-0.444,2.018,0.111,3.023,0.376c0.715,0.188,1.413,0.098,2.124-0.145
		c0.65-0.223,1.481-0.593,1.858-1.162c0.393-0.594,1.026-1.111,1.735-1.27c0.452-0.101,0.815-0.038,1.194-0.292
		c0.263-0.176,0.533-0.394,0.778-0.596c0.403-0.333,0.875-0.741,1.416-0.829c0.528-0.087,1.207,0.033,1.732,0.121
		c0.487,0.081,0.791,0.048,1.259-0.092c0.466-0.139,0.496-0.361,0.753-0.784c0.265-0.435,0.737-0.685,1.038-1.072
		c0.345-0.444,0.576-0.977,0.921-1.43c1.294-1.699,3.525-2.424,4.776-4.122c0.768-1.043,2.056-1.478,3.054-2.22
		c0.847-0.629,1.116-1.712,2.103-2.214c0.658-0.334,1.172-0.538,1.622-1.149c0.237-0.32,0.345-0.71,0.662-0.977
		c0.535-0.451,1.514-0.356,1.574-1.214C191.255,76.599,191.209,76.269,190.566,75.842z"/>
	<path fill="#1E8346" d="M29.07,120.735c-0.765-0.169-1.319-0.261-2.117-0.201c-0.481,0.036-1.078,0.034-1.476,0.336
		c-0.394,0.3-0.688,0.733-1.115,1.023c-0.556,0.379-1.232,0.649-1.905,0.555c-0.432-0.06-0.825-0.187-1.254-0.105
		c-0.473,0.09-0.945,0.336-1.372,0.552c-0.72,0.366-1.464,0.653-2.191,1.003c-0.573,0.276-0.816,0.527-1.455,0.571
		c-0.295,0.021-0.634,0.013-0.913,0.108c-0.309,0.106-0.56,0.307-0.882,0.394c-0.234,0.063-0.466,0.08-0.696,0.166
		c-0.732,0.274-0.993,0.704-1.417,1.333c-0.385,0.571-0.894,1.407-1.502,1.755c-0.356,0.204-0.75,0.277-1.099,0.507
		c-0.579,0.381-1.108,0.359-1.762,0.475c-0.335,0.059-0.758-0.015-1.073,0.076c-0.247,0.072-0.277,0.185-0.464,0.343
		c-0.363,0.305-0.867,0.277-1.208,0.524c-0.097,0.07-0.18,0.136-0.109,0.116c0,0.554,0.07,0.728,0.557,1.049
		c0.366,0.242,0.532,0.602,0.864,0.859c0.176,0.136,0.335,0.132,0.467,0.324c0.171,0.248,0.258,0.651,0.374,0.932
		c0.145,0.35,0.265,0.735,0.577,0.959c0.423,0.303,1.133,0.12,1.674,0.152c0.037,0.317,0.228,0.795,0.534,0.974
		c0.205,0.12,0.41,0.094,0.64-0.001c0.181-0.075,0.531-0.262,0.669-0.365c0.178-0.134,0.136,0.034,0.242-0.154
		c0.092-0.162-0.042-0.363,0.101-0.517c0.189-0.203,0.421-0.143,0.55-0.434c0.078-0.173,0.012-0.4,0.105-0.533
		c0.109-0.156,0.598-0.269,0.781-0.297c0.067-0.183,0.188-0.371,0.295-0.537c0.685,0.203,0.585-0.129,1.005-0.452
		c0.522-0.403,0.814,0.07,1.264,0.359c0.557,0.357,1.741,0.428,1.96,1.185c0.05,0.171-0.04,0.374,0,0.543
		c0.051,0.213,0.206,0.317,0.311,0.476c0.316,0.477,0.023,0.667,0.128,1.148c0.085,0.393,0.666,0.6,0.715,1.062
		c0.016,0.148-0.059,0.273-0.057,0.428c0.003,0.307,0.204,0.571,0.226,0.864c0.026,0.359-0.105,1.47-0.381,1.669
		c0.27-0.021,0.583,0.035,0.827-0.093c-0.03-0.59,1.086-0.319,1.406-0.365c0.405-0.057,0.376-0.201,0.647-0.416
		c0.411-0.326,0.864-0.207,1.388-0.121c0.064-0.272-0.085-0.561-0.022-0.834c0.054-0.232,0.095-0.186,0.249-0.387
		c0.295-0.383,0.325-0.618,0.056-1.007c-0.341-0.493-0.892-1.054-0.237-1.49c0.48-0.319,0.797-0.867,1.082-1.372
		c0.179-0.318,0.17-0.771,0.071-1.111c-0.041-0.141-0.169-0.21-0.167-0.368c0.002-0.232,0.243-0.424,0.325-0.63
		c0.365-0.045,0.687,0.033,0.981-0.219c0.355-0.304,0.191-0.738,0.422-1.08c0.212-0.313,0.63-0.258,0.954-0.34
		c0.319-0.082,0.491-0.202,0.816-0.071c0.155-0.334,0.26-0.896,0.526-1.15c0.324-0.309,0.88-0.209,1.06-0.651
		c0.252-0.621-0.41-1.296-0.385-1.916c0.015-0.377,0.328-0.713,0.409-1.096c0.131-0.62-0.019-1.311,0.123-1.932
		c0.11-0.484,0.487-0.57,0.804-0.905c0.352-0.372,0.144-0.644,0.017-1.129C29.841,120.632,29.687,120.872,29.07,120.735z"/>
	<path fill="#1E8346" d="M193.607,77.823c-0.044-0.296-0.221-0.504-0.431-0.701c-0.108-0.101-0.231-0.185-0.36-0.258
		c-0.089-0.051-0.178-0.133-0.319-0.205c-0.157,0.061-0.322,0.126-0.47,0.209c-0.112,0.063-0.292,0.201-0.343,0.322
		c-0.057,0.137-0.019,0.327-0.026,0.471c-0.012,0.231-0.063,0.484,0.053,0.698c0.219,0.406,0.681,0.436,1.09,0.435
		c0.112,0,0.254,0.025,0.359-0.018c0.088-0.036,0.24-0.136,0.296-0.214C193.593,78.37,193.64,78.051,193.607,77.823z"/>
	<path fill="#1E8346" d="M90.219,70.331c0.757,0.308,1.602,0.606,2.421,0.654c0.688,0.041,1.06-0.603,1.219-1.175
		c0.139-0.501,0.181-1.011,0.312-1.511c0.14-0.534,0.347-1.025,0.435-1.576c0.062-0.394,0.089-0.845,0.277-1.204
		c0.214-0.409,0.633-0.711,0.892-1.093c0.827-1.223,0.861-2.71,0.365-4.063c-0.352,0.092-0.682,0.208-1.185,0.373
		c-0.199,0.566-0.803,0.863-1.233,1.225c-0.354,0.299-0.678,0.644-0.921,1.053c-0.267,0.448-0.513,0.977-0.847,1.371
		c-0.209,0.246-0.436,0.438-0.611,0.711c-0.144,0.224-0.235,0.437-0.471,0.586c-0.271,0.172-0.603,0.09-0.853,0.233
		c-0.247,0.141-0.416,0.489-0.467,0.748c-0.096,0.483-0.194,0.644-0.581,0.968c-0.302,0.254-0.767,0.493-0.661,0.912
		C88.552,69.507,89.375,69.987,90.219,70.331z"/>
</g>
</svg>
