<?xml version="1.0" encoding="utf-8"?>
<!-- Generator: Adobe Illustrator 26.0.3, SVG Export Plug-In . SVG Version: 6.00 Build 0)  -->
<svg version="1.1" id="Isolation_Mode" xmlns="http://www.w3.org/2000/svg" xmlns:xlink="http://www.w3.org/1999/xlink" x="0px"
	 y="0px" viewBox="0 0 200 200" enable-background="new 0 0 200 200" xml:space="preserve">
<g>
	<path fill="#1E8346" d="M146.183,141.277c0.312-0.693,0.417-1.295-0.274-1.805c-0.115-0.707-0.775-1.044-1.105-1.641
		c-0.339-0.614-0.216-1.283-0.315-1.983c-0.048-0.336-0.137-0.664-0.186-0.998c-0.074-0.503-0.125-0.253-0.426-0.594
		c-0.48-0.543-0.097-1.74-0.01-2.352c0.055-0.387,0.053-0.833-0.041-1.2c-0.1-0.392-0.397-0.798-0.419-1.181
		c1.698-0.029,0.44-2.147,0.436-3.035c-0.001-0.248,0.176-0.744,0.084-0.991c-0.034-0.091-0.375-0.278-0.453-0.389
		c-0.277-0.393-0.077-0.605-0.089-1.032c-0.021-0.717-0.514-1.601-0.782-2.243c-0.387-0.928-0.78-2.013-0.96-2.996
		c-0.179-0.973-0.186-1.956-0.653-2.84c-0.673-1.274-0.924-2.744-1.643-3.962c-0.514-0.871,0.152-2.314-0.385-3.194
		c-0.107-0.175-0.193-0.475-0.302-0.607c-0.252-0.306-0.484-0.111-0.773-0.234c-0.422-0.18-0.598-0.853-0.833-1.149
		c-0.4,0-0.709,0.078-0.975-0.249c-0.132-0.162-0.22-0.334-0.358-0.493c-0.395-0.454-0.85-0.86-1.184-1.36
		c-0.198-0.296-0.501-0.522-0.639-0.842c-0.095-0.218-0.086-0.451-0.15-0.678c-0.169-0.605-0.564-1.362-1.004-1.796
		c-0.455-0.448-1.341-0.788-1.31-1.534c0.016-0.39,0.026-0.654-0.142-0.996c-0.509,0.29-0.923,0.339-1.509,0.304
		c-0.174-0.37,0.451-0.723,0.455-1.141c0.004-0.435-0.295-0.364-0.668-0.532c-0.357-0.161-0.552-0.429-0.83-0.677
		c-0.518-0.461-1.165-0.741-1.685-1.165c-0.384-0.312-0.764-0.817-0.979-1.248c-0.668-0.342-1.233-0.885-1.837-1.327
		c-0.514-0.377-1.163-0.592-1.649-0.995c-0.634-0.526-1.237-0.816-1.849-1.351c-0.649-0.567-1.431-0.967-2.052-1.584
		c-0.454-0.451-1.012-1.038-1.357-1.573c-0.307-0.475-0.045-1.166-0.384-1.618c-0.23-0.306-0.714-0.515-1.025-0.722
		c-0.443-0.294-0.896-0.649-1.317-0.929c-0.864-0.574-1.597-1.185-2.267-1.963c-0.657-0.762-1.201-1.541-1.744-2.389
		c-0.438-0.685-0.855-1.374-1.284-2.062c-0.352-0.564-0.641-1.336-0.419-2.015c0.11-0.336,0.42-0.458,0.588-0.717
		c0.203-0.313,0.032-0.716-0.208-0.971c-0.241-0.256-0.778-2.568-1.469-1.751c-0.469-0.167-0.725-0.61-1.111-0.891
		c-0.334-0.244-0.709-0.461-1.086-0.628c-0.945-0.418-1.663-0.871-2.241-1.741c-0.307-0.463-0.577-0.948-0.979-1.34
		c-0.469-0.457-0.764-0.777-1.078-1.372c-0.23-0.436-0.472-0.899-0.537-1.392c-0.092-0.694-0.15-1.08-0.573-1.65
		c-0.402-0.542-0.724-0.928-1.243-1.34c-0.49-0.389-0.556-0.849-0.557-1.453c-0.001-0.311,0.292-0.481,0.409-0.752
		c0.196-0.025,0.515,0.109,0.707,0.018c0.267-0.125,0.308-0.497,0.329-0.74c0.035-0.419-0.023-0.611,0.214-0.97
		c0.195-0.294,0.293-0.626,0.517-0.922c0.183-0.242,0.46-0.551,0.358-0.9c-0.057-0.193-0.268-0.299-0.298-0.525
		c-0.037-0.274,0.119-0.408,0.173-0.672c0.13-0.635-0.019-1.315,0.11-1.96c0.094-0.468,0.137-1.51,0.634-1.792
		c0.322-0.183,0.412,0.018,0.606-0.359c0.111-0.215,0.193-0.498,0.277-0.733c0.227-0.631,0.054-1.385,0.798-1.773
		c0.437-0.228,0.649,0.137,1.007,0.347c0.435,0.255,0.614-0.078,0.8-0.449c0.169-0.337,0.6-0.599,0.849-0.807
		c0.298-0.25,0.586-0.634,0.801-0.958c0.452-0.682,0.888-1.489,1.766-1.676c0.319-0.068,0.744-0.069,1.071-0.099
		c0.284-0.027,0.476,0.136,0.745,0.044c0.886-0.304,0.396-1.422,0.342-1.99c-0.041-0.43,0.174-0.682,0.267-1.066
		c0.097-0.399-0.115-0.814-0.173-1.196c-0.068-0.461-0.029-0.72,0.422-0.925c0.183-0.083,0.508-0.086,0.655-0.228
		c0.136-0.131,0.123-0.359,0.19-0.526c0.169-0.422,0.525-0.757,0.965-0.671c0.279,0.055,0.396,0.319,0.427-0.161
		c0.023-0.352-0.398-0.628-0.316-0.954c0.114-0.449,0.8-0.229,0.934-0.708c0.144-0.513-0.216-0.822,0.4-1.105
		c0.518-0.237,1.209-0.197,1.767-0.249c0.686-0.064,1.409,0.314,2.065-0.039c0.263-0.141,0.458-0.51,0.718-0.615
		c0.222-0.09,0.807-0.148,1.071-0.143c0.415,0.007,0.296-0.587,0.616-0.758c0.172-0.092,0.431-0.045,0.627-0.163
		c0.136-0.082,0.253-0.22,0.373-0.326c0.143-0.126,0.252-0.28,0.389-0.404c0.227-0.205,0.472-0.137,0.734-0.285
		c0.266-0.15,0.714-0.69,0.638-1.012c-0.295,0.048-0.499,0.145-0.843,0.174c-0.211-0.369-0.27-0.738-0.789-0.7
		c-0.581,0.042-0.274,0.776-0.438,1.185c-0.153,0.384-0.744,0.691-0.725-0.053c0.01-0.402,0.47-0.545,0.482-0.991
		c-0.079,0.02-0.186-0.024-0.268,0.003c-0.032-0.141-0.043-0.29,0.01-0.423c0.306-0.006,0.609-0.091,0.737-0.402
		c0.454,0.148,1.282,0.138,1.708-0.082c0.292-0.151,0.324-0.369,0.492-0.615c0.17-0.249,0.455-0.416,0.456-0.754
		c0.169-0.015,0.411,0.115,0.555,0.121c0.297,0.012,0.259-0.348,0.335-0.557c0.067-0.184,0.258-0.289,0.322-0.463
		c0.04-0.11-0.057-0.415,0.006-0.488c0.188-0.22,0.384,0.153,0.498,0.212c0.181,0.093,0.34-0.144,0.549-0.179
		c0.164-0.027,0.494-0.138,0.634-0.07c0.276,0.132,0.105,0.472,0.242,0.661c0.207,0.287,0.284-0.145,0.369-0.322
		c0.324,0.03,0.713,0.033,0.779-0.337c0.023-0.13,0.011-0.39-0.083-0.461c-0.151-0.115-0.719-0.058-0.882-0.076
		c-0.058-0.161-0.049-0.409-0.202-0.493c-0.103-0.057-0.286-0.03-0.408-0.088c-0.096-0.046-0.22-0.128-0.281-0.209
		c-0.114-0.153-0.089-0.437-0.285-0.488c-0.114-0.029-0.206,0.101-0.301,0.098c-0.21-0.006-0.238-0.205-0.475-0.211
		c-0.293-0.008-0.6,0.22-0.868,0.32c-0.268,0.1-0.529,0.235-0.811,0.254c-0.322,0.022-0.678-0.096-0.995-0.025
		c-0.172,0.039-0.277,0.181-0.44,0.227c-0.131,0.037-0.279,0.096-0.415,0.096c-0.228-0.266-0.192-0.637-0.45-0.899
		c-0.338,0.175-0.654,0.711-1.048,0.678c-0.488-0.041-0.526-0.788-0.673-1.155c-0.112-0.28-0.164-0.476-0.441-0.553
		c-0.243-0.067-0.605,0.072-0.649,0.323c-0.578-0.119-0.98-0.545-1.417-0.907c-0.492-0.408-0.974-0.576-1.525-0.876
		c0.107-0.693,0.634-0.98-0.223-1.392c-0.754-0.363-1.751,0.001-2.423-0.397c-0.255-0.151-0.378-0.396-0.778-0.324
		c-0.2,0.036-0.375,0.172-0.556,0.253c-0.346-0.171-0.003-0.745,0.023-1.051c0.054-0.603-0.036-0.653-0.215-1.239
		c0.309-0.157-0.029-0.353-0.179-0.498c0.452-0.533,0.272-0.928-0.019-1.387c-0.276-0.436-0.16-0.825-0.776-0.804
		c-0.145,0.005-0.481,0.239-0.636,0.068c-0.2-0.221,0.109-0.449,0.137-0.642c0.064-0.451-0.322-0.636-0.227-1.035
		c0.035-0.148,0.423-0.607,0.516-0.781c0.12-0.225,0.237-0.632,0.368-0.809c0.296-0.402,0.258-0.057,0.727-0.013
		c0.144,0.013,0.279-0.021,0.399-0.1c0.326-0.216,0.113-0.196,0.25-0.495c0.179-0.389,0.556-0.615,0.726-0.984
		c0.075-0.163,0.037-0.323,0.139-0.487c0.077-0.123,0.271-0.228,0.37-0.344c0.145-0.171,0.419-0.439,0.234-0.686
		c-0.125-0.168-0.763-0.077-0.975-0.123c-0.059-0.225-0.388-0.484-0.567-0.658c-0.13-0.126-0.182-0.275-0.371-0.336
		c-0.338-0.108-0.446,0.221-0.636,0.178c-0.238-0.054-0.17-0.088-0.332-0.26c-0.415-0.441-0.207-0.214-0.793-0.384
		c-0.246-0.071-0.386-0.157-0.692-0.184c-0.177,0.48-0.035,0.393-0.529,0.593c-0.388,0.157-0.843,0.342-1.29,0.302
		c-0.197-0.018-1.024-0.114-1.205-0.297c-0.249-0.252-0.301-0.739-0.649-1.014c-0.462-0.364-2.414-0.514-2.707-0.093
		c-0.107,0.153,0.088,0.394-0.134,0.515c-0.068,0.037-0.382-0.074-0.453-0.09c-0.349-0.078-0.567-0.144-0.801,0.319
		c-0.423-0.242-0.508-0.835-0.931-1.116c-0.221-0.147-0.65-0.157-0.818-0.34c-0.142-0.154-0.075-0.419-0.266-0.529
		c-0.134-0.077-0.427,0.051-0.582-0.001c-0.176-0.06-0.264-0.225-0.441-0.273c-0.342-0.09-0.475,0.013-0.729,0.269
		c-0.373-0.718-0.026-1.192-0.74-1.69c-0.264-0.184-0.331-0.184-0.493-0.523c-0.204-0.427-0.31-0.569-0.711-0.853
		c-0.052,0.054-0.176,0.081-0.232,0.141c-0.444-0.387-0.659-0.969-1.06-1.386c-0.486,0.362-0.757,0.808-1.027,1.304
		c-0.16,0.293-0.131,0.35-0.479,0.36c-0.118,0.003-0.206-0.143-0.32-0.133C92.618,3.5,92.53,3.605,92.435,3.62
		c-0.274,0.042-0.337-0.048-0.556-0.067c-0.375-0.032-0.704,0.183-0.987,0.445c-0.371,0.345-0.78,0.502-1.087,0.869
		c-0.138-0.317-0.56-0.187-0.734,0.031c-0.092,0.116,0.02,0.339-0.057,0.429c-0.102,0.119-0.192,0.056-0.311,0.141
		c-0.169,0.121-0.27,0.023-0.377,0.21c-0.161,0.283,0.018,1.17,0.113,1.441c0.1,0.285,0.468,0.565,0.388,0.897
		c-0.357,0.155-0.719,0.332-1.004,0.58c-0.38,0.331-0.38,1.081-0.872,1.078c-0.39-0.002-1.138-0.287-1.428-0.036
		c0.026-0.182-0.002-0.369-0.082-0.533c-0.498,0.594-0.877,1.106-1.619,1.477c-0.493,0.247-0.859,0.462-1.284,0.824
		c-0.165-0.196-0.273-0.522-0.505-0.652c-0.207-0.115-0.446-0.041-0.671-0.105c-0.029-0.384,0.096-0.923-0.071-1.25
		c-0.625,0.552-1.495,0.216-2.061,0.807c-0.514,0.537-0.854,1.137-0.833,1.832c0.013,0.434-0.127,0.515-0.278,0.923
		c-0.065,0.176-0.042,0.796-0.214,0.886c-0.238,0.124-0.446-0.187-0.601-0.353c-0.099-0.106-0.215-0.34-0.346-0.394
		c-0.128-0.053-0.301,0.061-0.408,0.013c-0.216-0.098-0.299-0.31-0.456-0.532c-0.32-0.453-0.746-0.786-1.152-1.163
		c-0.274-0.254-1.092-1.312-1.424-1.324c-0.298-0.01-0.844,0.928-0.89,1.148c-0.057,0.271,0.071,0.523-0.036,0.781
		c-0.087,0.21-0.392,0.541-0.564,0.653c-0.467-0.236-0.979-0.964-1.179-1.45c-0.327-0.797-0.097-1.159-1.193-1.308
		c-0.025,0.397-0.293,0.492-0.46,0.794c-0.127,0.228-0.095,0.478-0.151,0.728c-0.169,0.75-0.562,0.163-1.044,0.505
		c-0.466,0.33-0.061,0.898-0.228,1.314c-0.152,0.379-0.686,0.456-1.049,0.646c-0.407,0.213-0.236,0.069-0.374,0.41
		c-0.105,0.26,0.084,0.255-0.16,0.404c-0.407,0.248-0.702-0.372-0.988-0.465c-0.134-0.044-0.313,0.106-0.489,0.013
		c-0.102-0.054-0.222-0.33-0.283-0.422c-0.313-0.472-0.535-0.948-0.752-1.464c-0.238,0.019-0.719,0.006-0.888-0.14
		c-0.062-0.054,0.019-0.219-0.051-0.274c-0.117-0.092-0.157-0.097-0.309-0.177c-0.118-0.062-0.294-0.076-0.417-0.141
		c-0.132-0.071-0.13-0.241-0.275-0.288c-0.17-0.054-0.428,0.133-0.633,0.088c-0.234-0.052-0.44-0.338-0.639-0.459
		c-0.824,0.914-0.99-1.616-1.688-0.369c-0.137,0.244-0.151,0.439-0.361,0.636c-0.137,0.128-0.376,0.096-0.39,0.298
		c-0.016,0.231,0.389,0.314,0.318,0.663c-0.114,0.559-0.648,0.318-0.922,0.532c-0.143,0.112-0.235,0.475-0.351,0.636
		c-0.219,0.305-0.567,0.506-0.78,0.809c-0.212,0.302-0.154,0.602-0.184,0.982c-0.651-0.243-1.509-0.45-1.014,0.565
		c0.241,0.494,0.461,1.567,1.153,1.694c-0.052,0.589,0.403,0.285,0.674,0.505c0.36,0.292-0.012,0.776,0.704,0.686
		c-0.05,0.487,0.349,0.287,0.602,0.507c0.159,0.139,0.098,0.185,0.18,0.322c0.046,0.076,0.037,0.223,0.095,0.314
		c0.15,0.233,0.579,0.272,0.7,0.503c0.161,0.306-0.084,0.274,0.033,0.579c0.036,0.094,0.439,0.31,0.54,0.385
		c0.266,0.199,0.624,0.424,0.836,0.688c0.121,0.151,0.069,0.362,0.126,0.536c0.052,0.16,0.201,0.279,0.247,0.435
		c0.036,0.122-0.027,0.254-0.009,0.383c0.021,0.152,0.114,0.25,0.165,0.384c0.122,0.319-0.078,0.326-0.144,0.582
		c-0.073,0.287,0.236,0.718,0.411,0.898c0.523,0.54,1.194,0.12,1.637-0.331c0.199-0.203,0.294-0.385,0.248-0.668
		c-0.058-0.362-0.368-0.822-0.063-1.149c0.102-0.109,0.427-0.226,0.555-0.096c0.104,0.106,0.063,0.524,0.078,0.662
		c0.029,0.275-0.066,0.795,0.073,1.032c0.094,0.161,0.108,0.117,0.285,0.107c0.21-0.012,0.43-0.08,0.634-0.026
		c0.155,0.041,0.544,0.197,0.622,0.348c0.087,0.165-0.002,0.624-0.002,0.826c0,0.17,0.034,0.38-0.02,0.543
		c-0.141,0.426-0.612,0.679-0.919,0.985c-0.198,0.197-0.355,0.369-0.552,0.56c-0.125,0.121-0.242,0.249-0.351,0.383
		c0.329,0.21,0.775,0.249,1.043-0.056c-0.034,0.324-0.348,0.502-0.416,0.787c-0.064,0.266,0.171,0.81-0.008,1.044
		c-0.099,0.13-0.329,0.04-0.474,0.072c-0.216,0.048-0.5,0.224-0.589,0.442c-0.083,0.204-0.024,0.203,0.113,0.264
		c0.348,0.155,0.79-0.127,0.991,0.308c0.123,0.266,0.021,0.564,0.133,0.824c0.079,0.184,0.224,0.191,0.341,0.34
		c0.182,0.231,0.083,0.573,0.239,0.808c0.147,0.221,0.416,0.378,0.666,0.336c0.528-0.091,0.677,1.074,0.895,1.381
		c0.325,0.459,0.934,0.664,1.409,0.94c0.433,0.252,0.599,0.969,1.147,0.821c0.24-0.065,0.391-0.29,0.676-0.218
		c0.357,0.09,0.672,0.557,0.989,0.744c0.168-0.168,0.451-0.34,0.678-0.436c0.184,0.461,0.341,0.976,0.877,1.037
		c0.549,0.063,0.773,0.183,1.206,0.461c0.134,0.086,0.331,0.126,0.448,0.234c0.075,0.07,0.092,0.212,0.178,0.282
		c0.143,0.116,0.381,0.201,0.574,0.115c0.489-0.218,0.015-0.625,0.142-0.924c0.223-0.02,0.44-0.083,0.68-0.124
		c0.13-0.287-0.289-0.591-0.144-0.907c0.052-0.114,0.186-0.181,0.249-0.29c0.071-0.123,0.056-0.248,0.174-0.34
		c0.265-0.206,0.526,0.109,0.801-0.141c0.131-0.12,0.161-0.224,0.345-0.266c0.311-0.071,0.272,0.038,0.518-0.195
		c0.158-0.15,0.167-0.186,0.403-0.178c0.131,0.004,0.254,0.033,0.386,0.037c0.292,0.01,0.274,0.02,0.431-0.151
		c0.213-0.232,0.283-0.647,0.644-0.621c0.156,0.012,0.283,0.098,0.437,0.117c0.128,0.016,0.261-0.013,0.386-0.018
		c0.133-0.005,0.289-0.024,0.419,0.016c0.393,0.122,0.469,0.634,0.817,0.843c0.126-0.291,0.493-0.189,0.649,0.005
		c0.154,0.192,0.243,0.444,0.373,0.654c0.218,0.352,0.599,0.342,0.849,0.676c0.101,0.135,0.119,0.184,0.254,0.248
		c0.171,0.082,0.406,0.011,0.558,0.144c0.111,0.097,0.138,0.283,0.171,0.418c0.044,0.177,0.057,0.271,0.228,0.384
		c0.227,0.15,0.553,0.125,0.735,0.345c0.243,0,0.627-0.069,0.799,0.147c0.142,0.178,0,0.44-0.126,0.623
		c-0.225,0.326-0.519,0.654-0.775,0.958c-0.101,0.12-0.22,0.314-0.351,0.363c-0.135,0.049-0.368-0.026-0.5-0.038
		c-0.346-0.032-0.355,0.063-0.54,0.306c-0.284,0.372-0.805,0.043-0.865,0.658c-0.035,0.353,0.415,0.531,0.707,0.612
		c0.387,0.107,0.894-0.02,1.287-0.05c0.186-0.014,0.717-0.141,0.895-0.036c0.153,0.09,0.203,0.33,0.332,0.463
		c0.142,0.146,0.295,0.215,0.472,0.309c0.325,0.171,0.433,0.234,0.433,0.602c0,0.371-0.113,0.411-0.499,0.433
		c-0.02,0.208-0.025,0.451-0.007,0.662c0.033,0.377,0.34,0.473,0.695,0.553c0.398,0.09,0.384-0.116,0.638-0.345
		c0.219-0.197,0.447-0.203,0.708-0.131c0.339,0.094,0.503,0.368,0.811,0.469c0.235,0.077,0.497,0.021,0.543,0.289
		c0.041,0.238-0.089,0.34,0.075,0.569c0.111,0.156,0.404,0.341,0.381,0.543c-0.602,0.204,0.56,1.225-0.295,1.228
		c-0.228,0.001-0.467-0.023-0.689,0.037c0.095,0.528-0.585,0.677-0.911,0.929c-0.103,0.08-0.369,0.282-0.413,0.407
		c-0.086,0.242-0.054,0.127,0.138,0.297c0.24,0.213,0.646,0.293,0.536,0.714c-0.093,0.354-0.828,0.565-1.084,0.73
		c-0.752-0.484-1.278,1.584-1.442,1.887c-0.399-0.15-0.522-0.057-0.907,0.018c-0.384,0.074-0.624-0.105-0.926-0.291
		c-0.26-0.159-0.537-0.292-0.761-0.501c-0.205-0.191-0.18-0.323-0.471-0.34c-0.369-0.022-0.684,0.337-0.975,0.496
		c-0.191-0.255-0.59-0.49-0.904-0.497c-0.146-0.003-0.895,0.098-1.021,0.179c-0.268,0.171-0.155,0.548-0.624,0.479
		c-0.394-0.057-0.649-0.453-1.05-0.52c-0.226,0.194,0.057,1.093,0.234,1.31c0.184,0.225,0.517,0.272,0.638,0.522
		c0.036,0.074,0.027,0.29,0.049,0.379c0.032,0.128,0.092,0.238,0.117,0.368c-0.243,0.18-0.405,0.403-0.515,0.694
		c-0.159,0.419-0.15,0.39-0.606,0.411c-0.498,0.024-0.662,0.331-0.972,0.706c-0.227,0.274-0.534,0.43-0.78,0.705
		c0.375,0.048,0.546,0.195,0.776,0.44c0.203,0.215,0.408,0.547,0.715,0.558c0.222,0.008,0.396-0.127,0.635-0.098
		c0.189,0.023,0.299,0.113,0.454,0.2c0.323,0.181,0.663,0.307,0.99,0.491c0.375,0.211,0.512,0.902,0.923,0.92
		c0.771,0.034,1.516,0.677,2.071,1.144c0.522,0.439,1.253,0.463,1.697,1.014c0.135,0.167,0.208,0.398,0.38,0.531
		c0.153,0.119,0.374,0.104,0.533,0.2c0.302,0.184,0.347,0.676,0.647,0.836c0.147,0.079,0.356-0.002,0.519,0.069
		c0.097,0.042,0.135,0.143,0.224,0.194c0.186,0.106,0.23,0.109,0.435,0.182c0.204,0.072,0.332,0.253,0.498,0.303
		c0.276,0.083,0.709-0.046,1.015-0.035c0.507,0.018,0.564,0.105,0.874,0.542c0.142-0.03,0.407-0.098,0.563-0.06
		c0.158,0.038,0.114,0.101,0.259,0.177c0.036,0.019,0.192,0.045,0.223,0.07c0.192,0.151,0.279,0.272,0.514,0.339
		c0.172,0.049,0.409-0.032,0.578,0.044c0.262,0.118,0.742,0.542,0.732,0.851c-0.012,0.35-0.444,0.505-0.713,0.661
		c-0.029,0.168,0.007,0.377-0.035,0.543c-0.054,0.217-0.214,0.348-0.175,0.604c0.041,0.264,0.228,0.353,0.412,0.538
		c0.278,0.279,0.561,0.594,0.551,0.99c-0.008,0.351-0.03,0.648,0.17,0.911c0.186,0.245,0.593,0.567,0.856,0.706
		c0.322,0.17,0.594,0.1,0.756,0.443c0.082,0.175,0.025,0.385,0.178,0.54c0.159,0.161,0.547,0.257,0.743,0.293
		c0.326-0.311,0.44-1.005,0.965-0.561c0.351,0.297,0.254,0.701,0.436,1.059c0.143,0.281,0.438,0.413,0.612,0.616
		c0.235,0.274,0.198,0.648,0.464,0.928c0.264,0.278,0.453,0.375,0.394,0.793c-0.05,0.358-0.272,0.549-0.05,0.869
		c0.259,0.374,0.568,0.538,0.709,1.003c0.11,0.363,0.205,0.51,0.436,0.823c0.135,0.182,0.206,0.317,0.248,0.542
		c0.057,0.302-0.03,0.234,0.213,0.358c0.325,0.164,0.848,0.226,1.128,0.449c1.093,0.871,1.774,2.219,2.642,3.277
		c0.356,0.434,0.885,0.824,1.349,1.153c0.253,0.179,0.496,0.394,0.741,0.561c0.508,0.346,0.519-0.238,0.876-0.485
		c0.037,0.307,0.345,0.457,0.416,0.714c0.074,0.265-0.137,0.32-0.098,0.589c0.024,0.172,0.276,0.387,0.383,0.491
		c0.174,0.171,0.391,0.46,0.539,0.617c0.321,0.341,0.226,0.856,0.497,1.222c0.077,0.104,0.173,0.202,0.283,0.267
		c0.053,0.031,0.137-0.005,0.178,0.017c0.172,0.093,0.324,0.243,0.507,0.329c0.164-0.126,0.353-0.234,0.537-0.325
		c-0.081,1.141-0.169,2.258-0.109,3.404c0.039,0.737,0.075,1.458,0.786,1.864c0.432,0.247,0.775,0.176,0.635,0.681
		c-0.084,0.302-0.181,0.48,0.009,0.803c0.259,0.441,1.159,1.315,1.288,0.445c0.049-0.333-0.018-0.237,0.239-0.344
		c0.148-0.062,0.255,0.008,0.356-0.13c0.166-0.227-0.083-0.667-0.075-0.903c1.071-0.021,0.737,1.03,1.028,1.811
		c0.133,0.355,0.347,0.368,0.639,0.57c0.444,0.307,0.351,0.469,0.543,0.951c0.361-0.255,1.508-0.179,1.847,0.121
		c0.372,0.329,0.138,0.842,0.386,1.26c0.374,0.632,0.917,0.421,1.413,0.698c0.427,0.238,0.486,0.984,0.976,1.129
		c0.161-0.155,0.292-0.025,0.482-0.096c0.12-0.045,0.3-0.197,0.408-0.227c0.133-0.037,0.224-0.145,0.371-0.042
		c0.238,0.168,0.026,0.149,0.069,0.29c0.191,0.635-0.136,1.033-0.434,1.583c-0.4,0.738-0.981,0.554-1.618,0.954
		c-0.158,0.099-0.326,0.166-0.488,0.262c-0.484,0.285-0.338,0.22-0.311,0.671c0.017,0.288-0.103,0.532-0.088,0.82
		c0.343,0.098,0.443,0.089,0.533,0.426c0.082,0.305-0.053,0.662,0.036,0.965c0.524-0.01,0.756-0.167,1.054,0.262
		c0.207,0.299,0.313,0.745,0.378,1.102c0.061,0.331,1.137,0.03,1.473,0.479c0.154,0.206,0.082,0.488,0.277,0.679
		c0.23,0.227,0.694,0.19,0.923,0.489c0.12,0.156,0.107,0.346,0.239,0.496c0.125,0.143,0.409,0.21,0.557,0.326
		c0.512,0.399,0.496,1.119,0.239,1.718c-0.642-0.268-0.5,0.238-0.662,0.659c-0.097,0.252-0.288,0.316-0.333,0.597
		c-0.01,0.058,0.142,0.147,0.134,0.245c-0.095,1.081-0.727,0.157-1.159,0.268c-0.315,0.081-0.522,0.601-0.468,0.878
		c0.058,0.299,0.377,0.55,0.571,0.748c0.647,0.66,0.288,1.022-0.252,1.61c0.181,0.229,0.248,0.294,0.288,0.587
		c0.042,0.309-0.173,0.784,0.194,0.911c0.057,0.522-0.071,0.958-0.421,1.333c0.382,0.282,0.075,0.708-0.051,1.045
		c-0.165,0.439-0.175,0.923-0.344,1.357c-0.183-0.075-0.371-0.135-0.569-0.154c-0.27,0.414-0.622,0.911-0.635,1.422
		c-0.011,0.414,0.366,0.949,0.266,1.282c-0.113,0.375-0.742,0.711-0.971,1.022c0.426,0.125,0.196,0.847,0.247,1.172
		c0.095,0.615,0.5,0.294,1.047,0.338c0.558,0.826,0.12,1.965,0.473,2.875c0.729,0.125,1.071,0.957,1.22,1.568
		c0.154,0.631,0.493,1.225,0.564,1.86c0.072,0.661,0.077,1.53-0.056,2.177c-0.129,0.626-0.433,1.328-0.678,1.927
		c-0.415,1.016-0.81,1.973-0.91,3.04c-0.087,0.938,0.75,1.887,0.954,2.767c0.106,0.456,0.377,0.736,0.359,1.222
		c-0.015,0.419-0.053,0.881-0.115,1.297c-0.061,0.41,0.026,0.726-0.106,1.129c-0.181,0.548-0.284,0.876-0.325,1.473
		c-0.258,0.119-0.556,0.249-0.778,0.428c-0.303,0.244-0.354,0.703-0.688,0.909c-0.608-0.391-0.703-1.452-1.601-1.15
		c-0.28,0.095-0.508,0.311-0.782,0.399c-0.552,0.177-0.824,0.053-1.144,0.506c-0.357,0.507-0.799,0.927-1.18,1.401
		c-0.865,1.077-2.278,1.078-3.547,1.078c-0.15,0.113-0.261,0.545-0.378,0.728c-0.222,0.347-0.324,0.4-0.679,0.464
		c-1.059,0.193-2.197-0.088-3.264,0.117c0.104,0.53,0.472,0.865,0.612,1.372c-0.133,0.148-0.329,0.16-0.422,0.323
		c-0.031,0.055-0.162,0.556-0.179,0.643c-0.051,0.262-0.025,0.506,0.075,0.764c0.092,0.236,0.421,0.134,0.238,0.55
		c-0.205-0.031-0.398-0.142-0.602-0.18c-0.595-0.11-0.774,0.207-1.304,0.306c-0.055-0.193-0.126-0.596-0.306-0.705
		c-0.137-0.083-0.288,0.031-0.44-0.022c-0.161-0.056-0.357-0.263-0.523-0.287c-0.21-0.03-0.303,0.177-0.455,0.189
		c-0.163,0.013-0.259-0.103-0.403-0.123c-0.214-0.03-0.447-0.041-0.637-0.111c-0.159-0.058-0.274-0.262-0.462-0.228
		c-0.307,0.055-0.135,0.175-0.255,0.352c-0.19,0.28-0.277,0.47-0.565,0.687c0.076,0.259,0.171,0.534,0.137,0.808
		c-0.243,0.002-0.502,0.06-0.71-0.011c-0.096-0.033-0.2-0.165-0.303-0.209c-0.285-0.123-0.382-0.19-0.677-0.085
		c-0.772,0.274-0.717,0.694-0.139,1.022c0.539,0.306,0.497,0.354,0.605,0.962c0.047,0.264,0.302,0.679,0.093,0.893
		c-0.08,0.082-0.467,0.078-0.574,0.099c0.117,0.368,0.502,0.526,0.381,0.95c-0.07,0.246-0.488,0.183-0.238,0.563
		c0.666-0.122,0.236,0.499,0.451,0.797c0.153,0.211,1.176,0.557,1.422,0.526c0.113,0.173,0.061,0.407,0.148,0.551
		c0.08,0.133,0.224,0.181,0.317,0.28c0.231,0.242,0.398,0.592,0.665,0.792c0.184-0.244,0.483-0.206,0.715-0.387
		c0.279,0.357,0.599,1.12,0.584,1.589c-0.154,0.018-0.589-0.057-0.711,0.071c-0.088,0.093-0.027,0.616-0.017,0.749
		c0.026,0.33,0.049,0.361,0.231,0.608c0.316,0.43,0.266,0.2,0.228,0.79c-0.561-0.314-1.248,0.043-1.837-0.317
		c-0.472-0.289-0.683-0.736-1.102-1.071c0.022,0.169-0.027,0.755-0.223,0.844c-0.172,0.077-0.882-0.252-1.111-0.23
		c0.339-0.47,0.078-0.632-0.155-1.094c-0.188-0.373-0.361-0.847-0.672-1.123c-0.887,0.45-2.08,0.877-3.077,1.054
		c-0.41,0.073-1.26-0.103-1.565,0.115c-0.236,0.168-0.288,0.664-0.527,0.858c-0.521,0.425-1.061-0.317-1.629-0.492
		c-0.46-0.142-1.181,0.087-1.552-0.234c0.071-0.129,0.096-0.281,0.145-0.416c-0.59,0.23-1.187,0.661-1.078,1.296
		c0.112,0.652,0.728,1.151,0.658,1.82c-0.698,0.313-1.521,0.819-2.021,1.387c-0.472,0.537-0.565,1.049-1.32,1.045
		c-0.706-0.004-1.413-0.003-2.12,0c-0.714,0.003-0.76,0.41-1.217,0.849c-0.379,0.363-0.889,0.604-0.472,1.216
		c0.556,0.817,0.803,2.138,1.576,2.745c0.668-0.45,0.621-1.071,1.416-0.821c0.683,0.215,0.923,1.046,1.484,1.402
		c0.632,0.401,1.546,0,2.084,0.452c0.347,0.292,0.597,1.222,0.771,1.627c-0.984-0.507-1.487,1.394-2.468,1.201
		c-0.247,0.875-0.763,1.391-0.913,2.287c-0.173,1.033-0.188,2.083-0.188,3.153c0,2.104-0.235,3.967-0.329,6.038
		c-0.021,0.46-0.203,1.028-0.153,1.459c0.124,1.068,0.885,0.139,1.458,0.688c-0.642,0.635-1.672,0.267-1.538,1.578
		c-0.838,0.026-0.807,0.404-0.169,0.808c0.489,0.309,0.632,0.32,1.221,0.149c0.511-0.149,0.754-0.152,1.304-0.189
		c0.67-0.046,1.445-0.355,1.931-0.735c0.459-0.359,0.739-1.065,1.232-1.387c0.484-0.314,1.004-0.308,1.354-0.976
		c0.264-0.504,0.468-0.961,0.723-1.447c0.418-0.797,0.943-1.589,1.682-2.134c1.052-0.777,2.223-0.763,3.398-1.188
		c1.145-0.414,2.251-0.964,3.367-1.447c0.635-0.275,1.952-0.448,1.722-1.357c-0.072-0.287,0.211-0.581,0.331-0.844
		c0.791,0.026,0.939-0.714,0.585-1.334c0.228,0.103,0.55,0.29,0.748,0.445c0.19,0.149,0.314,0.421,0.489,0.544
		c0.348,0.244,1.505,0.168,1.874-0.128c0.358-0.287,0.658-0.964,0.781-1.401c0.111-0.394,0.112-0.866-0.128-1.182
		c-0.206-0.271-0.365-0.248-0.412-0.642c-0.039-0.329-0.016-0.537,0.345-0.528c0.358,0.01,0.448,0.369,0.667,0.599
		c0.458-0.241,1.019-0.842,0.962-1.382c-0.062-0.588-0.454-0.661-0.751-1.002c0.325-0.174,1.004-1.455,1.198-0.91
		c0.389-0.152,0.893-0.662,0.837-1.112c-0.058-0.46-0.586-0.823-0.916-1.062c0.316-0.579,0.744-0.775,0.779-1.507
		c0.01-0.2-0.102-0.719,0-0.895c0.082-0.142,0.543-0.163,0.783-0.081c0.332,0.113,0.329,0.314,0.765,0.287
		c0.601-0.037,0.521-0.28,0.516-0.743c-0.005-0.462-0.117-0.694,0.38-0.716c0.462-0.021,0.686,0.214,0.91,0.518
		c0.241,0.325,0.1,0.252,0.495,0.392c0.272,0.096,0.5-0.095,0.221,0.293c-0.289,0.402-0.772,0.364-0.496,1.094
		c0.338-0.215,0.637-0.542,0.971-0.764c0.669-0.444,0.521-0.043,1.094,0.162c0.954,0.341,1.61-1.66,2.615-1.3
		c0.023-0.11,0.138-0.189,0.15-0.31c0.574,0.192,1.033-0.221,1.391-0.608c0.405-0.437,0.798-0.529,1.305-0.802
		c0.483-0.26,1.012-0.363,1.45-0.727c0.86-0.714,1.593-0.864,2.544-0.296c0.024-0.195,0.228-0.558,0.32-0.751
		c0.138-0.29,0.212-0.555,0.323-0.849c0.204-0.544,0.215-1.108,0.825-1.249c0.365-0.084,0.8,0.049,1.168-0.05
		c0.326-0.087,0.566-0.308,0.897-0.369c0.327-0.06,0.452-0.021,0.688-0.248c0.204-0.196,0.253-0.535,0.505-0.706
		c0.285-0.194,0.475-0.067,0.799-0.137c0.352-0.076,0.374-0.201,0.589-0.491c0.483-0.65,0.979-1.114,1.761-1.413
		c0.305-0.116,0.623-0.238,0.946-0.131c0.141,0.046,0.097,0.237,0.296,0.247c0.283,0.015,0.269-0.154,0.336-0.35
		c0.268-0.787,0.262-1.433,1.288-1.57c0.689-0.092,1.646,0.379,2.028-0.384c0.185-0.371,0.195-0.979,0.218-1.377
		c0.016-0.265-0.029-0.553,0.054-0.806c0.082-0.252,0.27-0.399,0.271-0.682c0.357-0.074,1.268,0.373,1.187-0.384
		c-0.094-0.876,1.229-1.262,0.92-2.093c-0.097-0.259-0.181-0.717-0.425-0.878c-0.303-0.199-0.629,0.039-0.78-0.422
		c0.291-0.318,0.81-0.523,0.761-1.008c0.267,0.094,0.253,0.373,0.351,0.592c0.136,0.302,0.131,0.343,0.468,0.549
		c0.595-0.379,0.061-1.517-0.157-1.968c-0.284-0.585-0.34-0.887-0.219-1.511c0.135-0.692,0.059-1.507,0.128-2.225
		c0.049-0.507-0.059-0.591-0.34-0.958c-0.153-0.2-0.469-0.63-0.193-0.853c0.648-0.523,1.226,1.42,1.456,1.52
		c0.309-0.151,0.647-0.514,0.553-0.899c-0.061-0.25-0.276-0.316-0.449-0.5c-0.553-0.586-0.613-1.225-0.832-1.964
		c-0.155,0.064-0.294,0.024-0.44,0.012c-0.105-1.036,0.889-2.08,1.677-2.586c0.145,0.253,0.113,0.646,0.224,0.926
		c-0.271,0.656-0.229,0.433,0.21,0.8c0.358,0.3,0.315,0.822,0.708,1.131c0.727-0.696-0.157-1.721-0.456-2.322
		C145.41,141.936,145.436,140.426,146.183,141.277z"/>
	<path fill="#1E8346" d="M78.24,171.629c-0.277-0.089-0.609-0.062-0.83,0.144c-0.249,0.231-0.318,0.64-0.58,0.854
		c-0.416,0.342-1.36-0.275-1.053,0.7c0.175,0.558,0.782,0.523,1.153,0.908c0.352,0.364,0.369,0.694,0.473,1.158
		c0.093,0.417,0.222,0.825,0.322,1.241c0.11,0.456,0.218,1.012,0.876,1.173c-0.029-0.382,0.114-0.803,0.114-1.2
		c0.001-0.401-0.116-0.773,0.053-1.159c0.183-0.418,0.361-0.73,0.424-1.194c0.084-0.619,0.093-1.205-0.15-1.788
		C78.899,172.122,78.602,171.745,78.24,171.629z"/>
	<path fill="#1E8346" d="M116.895,36.861c-0.06-0.087-0.31-0.085-0.403-0.141c-0.091-0.054-0.095-0.113-0.14-0.193
		c-0.063-0.112-0.175-0.184-0.236-0.301c-0.026-0.163-0.253-0.154-0.376-0.111c-0.077,0.027-0.126,0.109-0.198,0.132
		c-0.07,0.022-0.142-0.015-0.212-0.027c-0.189-0.032-0.415-0.016-0.568,0.111c-0.114,0.095-0.268,0.238-0.239,0.395
		c0.015,0.082,0.06,0.167,0.102,0.239c0.083,0.145,0.124,0.101,0.276,0.151c0.159,0.052,0.19,0.187,0.275,0.31
		c0.075,0.109,0.176,0.259,0.273,0.346c0.049,0.045,0.131,0.054,0.201,0.078c0.099,0.035,0.201,0.1,0.307,0.108
		c0.096,0.007,0.237-0.028,0.277-0.125c0.06-0.147-0.086-0.311,0.004-0.461C116.318,37.243,117.074,37.122,116.895,36.861z"/>
	<path fill="#1E8346" d="M117.774,38.997c-0.12-0.04-0.194-0.114-0.29-0.192c-0.238-0.027-0.274,0.09-0.315,0.261
		c-0.031,0.129-0.176,0.249-0.059,0.374c0.037,0.04,0.088,0.066,0.128,0.105c0.033,0.032,0.058,0.069,0.097,0.084
		c0.087,0.032,0.268,0,0.352-0.008c0.213-0.02,0.446,0.013,0.657-0.022c0.103-0.017,0.144-0.085,0.152-0.188
		c0.007-0.087,0-0.2-0.057-0.262c-0.056-0.062-0.165-0.102-0.247-0.115C118.054,39.012,117.909,39.041,117.774,38.997z"/>
	<path fill="#1E8346" d="M127.637,28.925c-0.235,0-0.426,0.085-0.658,0.098c-0.04,0.111-0.215,0.096-0.312,0.108
		c-0.113,0.013-0.318-0.007-0.414,0.069c-0.104,0.083-0.008,0.224,0.091,0.253c0.069,0.021,0.155,0.023,0.226,0.041
		c0.084,0.02,0.176,0.018,0.262,0.02c0.161,0.004,0.34,0.017,0.498-0.021c0.153-0.037,0.201-0.153,0.315-0.242
		c0.099-0.077,0.211-0.113,0.298-0.207c0.07-0.076,0.106-0.16-0.017-0.151C127.827,28.9,127.737,28.925,127.637,28.925z"/>
	<path fill="#1E8346" d="M125.68,29.597c0.07,0.003,0.087-0.046,0.069-0.1c-0.2,0.009-0.375,0.164-0.552,0.243
		c-0.079,0.036-0.364,0.094-0.371,0.197c-0.005,0.065,0.014,0.041,0.06,0.051c0.024,0.005,0.054,0,0.077,0.005
		c0.018,0.004,0.035,0.021,0.054,0.026c0.053,0.014,0.127,0.004,0.179-0.014c0.105-0.036,0.138-0.112,0.197-0.192
		C125.467,29.711,125.595,29.684,125.68,29.597z"/>
	<path fill="#1E8346" d="M123.942,31.558c-0.02,0.069-0.08,0.105-0.114,0.162c-0.046,0.077-0.062,0.209-0.045,0.298
		c0.015,0.079,0.108,0.153,0.192,0.137c0.057-0.011,0.052-0.084,0.058-0.13c0.01-0.067,0.056-0.113,0.081-0.175
		c0.023-0.059,0.034-0.156,0.006-0.216C124.089,31.564,124.057,31.565,123.942,31.558z"/>
	<path fill="#1E8346" d="M121.241,35.519c0.402,0,0.861-0.152,1.055-0.531c0.065-0.127,0.104-0.265,0.171-0.392
		c0.085-0.16,0.172-0.317,0.16-0.506c-0.009-0.138-0.074-0.289-0.207-0.348c-0.117-0.052-0.199,0.077-0.321,0.228
		c-0.078,0.075-0.154,0.156-0.223,0.24c-0.088,0.107-0.127,0.222-0.173,0.357c-0.039,0.112-0.04,0.256-0.11,0.354
		c-0.064,0.089-0.19,0.142-0.283,0.195c-0.101,0.057-0.2,0.154-0.265,0.254C120.956,35.508,121.132,35.519,121.241,35.519z"/>
	<path fill="#1E8346" d="M119.832,36.646c0.04,0.085,0.088,0.157,0.163,0.215c0.101,0.078,0.175,0.008,0.283-0.006
		c0.008-0.048-0.024-0.096-0.037-0.14c-0.015-0.054-0.011-0.109-0.038-0.159c-0.056-0.101-0.216-0.157-0.219-0.288
		c-0.158,0.033-0.209,0.021-0.204,0.163C119.783,36.51,119.799,36.575,119.832,36.646z"/>
	<path fill="#1E8346" d="M120.426,36.037c0.037-0.041,0.115-0.105,0.135-0.155c0.032-0.082-0.016-0.082-0.073-0.1
		c-0.204-0.062-0.386-0.031-0.646,0.001C120.021,35.836,120.208,36.277,120.426,36.037z"/>
	<path fill="#1E8346" d="M120.097,35.21c0.06,0.03,0.195-0.095,0.231-0.137c0.058-0.068,0.169-0.224,0.147-0.323
		c-0.032-0.138-0.211,0.055-0.279,0.083c-0.131,0.053-0.31,0.061-0.384,0.21C119.73,35.207,119.916,35.36,120.097,35.21z"/>
	<path fill="#1E8346" d="M121.092,34.716c-0.047,0.09-0.146,0.143-0.217,0.212c-0.039,0.038-0.096,0.061-0.126,0.107
		c-0.028,0.042-0.02,0.091-0.013,0.138c0.01,0.068,0.04,0.242,0.135,0.174c0.042-0.03,0.069-0.079,0.108-0.112
		c0.039-0.034,0.086-0.056,0.121-0.093C121.189,35.048,121.311,34.777,121.092,34.716z"/>
	<path fill="#1E8346" d="M121.851,36.178c0.045-0.05,0.049-0.121,0.086-0.177c0.053-0.08,0.134-0.138,0.193-0.215
		c0.097-0.126,0.152-0.262,0.274-0.371c0.081-0.072,0.132-0.175,0.183-0.272c0.022-0.042,0.065-0.156,0.02-0.199
		c-0.022-0.02-0.076-0.019-0.116,0.028c-0.007,0.064-0.045,0.129-0.079,0.182c-0.023,0.036-0.05,0.069-0.08,0.1
		c-0.048,0.051-0.109,0.079-0.159,0.126c-0.088,0.083-0.144,0.201-0.238,0.276c-0.095,0.075-0.212,0.097-0.313,0.158
		c-0.104,0.063-0.01,0.171,0.038,0.249C121.704,36.134,121.76,36.279,121.851,36.178z"/>
	<path fill="#1E8346" d="M125.229,34.258c-0.021-0.077-0.069-0.116-0.146-0.126c-0.06-0.008-0.213-0.032-0.255,0.081
		c0.043,0.058,0.062,0.139,0.103,0.202c0.048,0.073,0.108,0.126,0.184,0.171c0.094,0.056,0.215,0.111,0.237-0.038
		c0.009-0.064,0.002-0.102-0.05-0.143C125.239,34.353,125.25,34.334,125.229,34.258z"/>
</g>
</svg>
