<?xml version="1.0" encoding="utf-8"?>
<!-- Generator: Adobe Illustrator 26.0.3, SVG Export Plug-In . SVG Version: 6.00 Build 0)  -->
<svg version="1.1" xmlns="http://www.w3.org/2000/svg" xmlns:xlink="http://www.w3.org/1999/xlink" x="0px" y="0px"
	 viewBox="0 0 200 200" enable-background="new 0 0 200 200" xml:space="preserve">
<g id="Isolation_Mode">
	<g>
		<path fill="#1E8346" d="M195.018,75.24c-0.709-0.834-1.41-1.686-2.092-2.554c-0.593-0.754-0.735-1.787-1.788-1.622
			c-0.481,0.076-0.846,0.36-1.265,0.519c-0.583,0.222-1.248,0.347-1.881,0.418c-1.11,0.124-2.209,0.169-3.298,0.356
			c-0.787,0.135-1.514,0.181-2.301,0c-2.444-0.563-4.593-1.618-6.944-2.479c-1.352-0.495-2.813-0.739-4.182-1.169
			c-0.862-0.271-1.706-0.437-2.611-0.44c-1.022-0.004-2.497,0.242-3.335-0.276c-1.002-0.619-1.316-1.903-1.758-2.903
			c-0.327-0.738-0.916-1.731-0.969-2.535c-0.106-1.608,1.635-3.362,2.327-4.755c0.767-1.543,1.965-2.996,2.558-4.612
			c0.53-1.444-0.63-2.26-1.713-2.921c-1.569-0.955-3.595-0.84-5.344-0.459c-2.105,0.459-5.571-0.064-7.519-1.655
			c-0.655-0.535-1.37-0.953-1.993-1.532c-0.568-0.527-1.073-0.915-1.807-1.157c-0.483-0.16-1.007-0.309-1.514-0.134
			c-0.529,0.182-0.762,0.676-1.272,0.918c-2.261,1.072-3.651-2.037-5.782-1.859c-0.832,0.07-1.689,0.486-2.519,0.941
			c-0.66,0.362-1.304,0.748-1.905,1.005c-1.362,0.581-2.764,1.491-4.222,1.806c-1.146,0.248-2.811,0.006-3.807-0.584
			c-0.577-0.342-1.055-0.843-1.585-1.258c-0.744-0.583-1.533-1.102-2.22-1.75c-0.62-0.583-0.963-1.48-1.614-1.994
			c-0.602-0.476-1.475-0.623-2.212-0.669c-1.76-0.111-3.45,0.276-5.143,0.727c-0.648,0.173-1.305,0.342-1.952,0.487
			c-0.596,0.134-0.924,0.438-1.443,0.636c-0.933,0.356-1.991,0.398-2.934,0.196c-2.301-0.494-4.556-2.107-6.884-1.335
			c-1.311,0.435-3.035,0.859-4.231-0.065c-1.049-0.811-1.918-2.377-3.208-2.829c-0.746-0.261-1.638-0.149-2.394-0.425
			c-0.564-0.205-1.003-0.634-1.403-1.065c-1.921-2.072-2.84-4.496-3.893-7.063c-0.362-0.883-0.621-1.765-1.268-2.522
			c-1.189-1.392-3.442-1.173-4.909-2.125c-0.841-0.546-1.5-0.537-2.6-0.445c-0.551,0.046-1.067,0.21-1.617,0.296
			c-0.793,0.124-2.556,0.176-2.943-0.888c-0.919-0.751-2.57-1.104-3.706-0.713c-0.555,0.191-0.784,0.58-1.224,0.942
			c-0.541,0.445-1.247,0.902-1.858,1.243c-1.32,0.738-3.033,0.813-4.594,1.111c-0.297,0.057-0.588,0.121-0.87,0.199
			c-0.928,0.259-1.789,0.477-2.524,1.146c-0.375,0.341-0.686,0.807-1.159,1.003c-0.928,0.385-2.102,0.437-3.077,0.623
			c-3.248,0.62-6.337-1.411-8.556-3.639c-0.481-0.483-0.877-1.083-1.454-1.382c-0.736-0.382-1.784-0.401-2.575-0.518
			c-1.383-0.205-2.687-0.014-3.998,0.399c-1.991,0.627-0.806,3.037-0.81,4.6c-0.003,1.128-0.127,2.249-0.595,3.291
			c-0.418,0.931-1.303,1.115-1.965,1.818c-1.274,1.353-2.719,3.191-2.901,5.123c-0.141,1.497-0.016,3.281,0.533,4.692
			c0.331,0.849,1.103,1.574,1.323,2.465c0.165,0.67,0.851,1.014,1.074,1.658c0.145,0.419,0.096,0.993,0.054,1.437
			c-0.085,0.882,0.052,2.158-0.199,3.01c-0.364,1.236-2.288,2.318-3.295,3.024c-1.09,0.765-2.312,1.181-3.398,1.884
			c-1.608,1.041-2.166,2.861-4.284,2.748c-0.638-0.034-1.277-0.044-1.921-0.044c-0.723,0-2.096-0.302-2.735,0.02
			c-0.45,0.227-0.638,0.768-0.832,1.219c-0.612,1.427,0.205,2.465,0.058,3.861c-0.06,0.57-0.948,1.02-1.394,1.388
			c-0.585,0.482-1.377,0.628-2.061,0.883c-0.747,0.279-1.48,0.75-2.06,1.314c-2.096,2.04-0.861,4.027,0.617,5.989
			c1.022,1.358,2.234,2.167,3.755,2.847c0.978,0.438,1.957,0.846,2.565,1.709c0.826,1.175,0.517,2.049-0.11,3.342
			c-0.917,1.894-2.642,2.42-4.314,3.507c-1.505,0.978-3.209,1.615-4.623,2.71c-1.186,0.919-0.78,2.445-0.926,3.613
			c-0.155,1.239-0.189,1.949-0.838,3.044c-0.752,1.268-1.674,2.368-2.477,3.603c-0.393,0.604-3.84,5.931-1.182,5.493
			c0.796-0.131,1.777-0.695,2.522-1.058c0.937-0.457,1.867-0.742,2.827-1.135c2.097-0.858,4.012-2.234,6.141-3.001
			c1.751-0.63,3.193-0.459,4.733,0.559c1.366,0.903,2.808,2.304,3.095,3.979c0.188,1.096,0.254,2.092,0.639,3.144
			c0.313,0.855,0.619,1.623,0.764,2.513c0.224,1.379,0.345,2.651,1.247,3.761c1.084,1.332,2.14,2.49,2.742,4.13
			c0.36,0.981,0.733,2.288,0.957,3.328c0.101,0.467,0.718,0.681,0.851,1.129c0.122,0.408-0.179,0.985-0.474,1.305
			c-0.851,0.922-2.564,1.213-3.636,1.806c-1.349,0.746-2.541,2.043-3.669,3.096c-1.018,0.95-2.177,1.646-3.214,2.555
			c-0.748,0.656-1.494,1.616-2.328,2.137c-0.58,0.362-1.706,0.508-2.437,0.504c-1.529-0.008-3.281-0.187-4.793,0.14
			c-0.868,0.188-1.383,0.96-1.645,1.768c-0.259,0.802-0.991,2.093-0.825,2.98c0.135,0.722,0.923,0.784,1.197,1.377
			c3.341,0.714,6.074,1.639,7.076,5.407c0.522,1.964-0.252,4.096,0.051,6.074c0.268,1.751,1.638,2.996,2.704,4.281
			c2.032,2.449-0.851,3.137-1.588,5.144c-0.433,1.179-0.576,2.183-0.593,3.463c-0.018,1.304,0.444,2.254,0.927,3.438
			c0.414,1.015,0.996,1.861,1.593,2.773c0.858,1.311,1.253,1.836,3.086,1.809c3.665-0.054,7.133-0.562,10.767,0.34
			c1.941,0.482,3.723,1.368,5.636,1.93c1.237,0.363,2.509,0.561,3.759,0.875c2.407,0.605,4.869,0.979,7.296,1.508
			c1.278,0.279,2.525,0.596,3.848,0.382c1.543-0.249,3.05-0.737,4.611-0.973c1.135-0.172,2.209-0.048,3.284,0.123
			c0.806,0.128,1.613,0.282,2.448,0.358c1.011,0.092,2.02,0.036,3.035,0.072c1.255,0.044,2.627,0.205,3.861-0.137
			c2.178-0.603,2.955-2.741,3.093-4.815c0.083-1.249,0.28-2.562,1.104-3.52c0.831-0.967,1.84-1.686,1.805-3.078
			c-0.013-0.532-0.126-0.983-0.335-1.468c-0.247-0.571-0.926-1.127-1.077-1.692c-0.135-0.506,0.226-0.984,0.545-1.371
			c1.129-1.372,3.297-2.342,4.999-1.582c2.956,1.32,3.099,5.141,6.08,6.492c0.001-0.819,0.92-1.218,1.309-1.875
			c0.518-0.876,1.027-1.924,1.221-2.925c0.205-1.053,0.165-1.989,0.803-2.953c0.66-0.998,1.967-1.877,3.048-2.294
			c1.011-0.389,2.062-0.839,3.124-1.085c0.858-0.199,1.686-0.076,2.581,0.007c1.085,0.1,1.684,0.676,2.682,0.94
			c0.692,0.184,1.529,0.068,2.2-0.139c1.743-0.54,3.252-1.604,5.127-0.987c1.107,0.365,2.969,2.497,4.161,2.241
			c0.741-0.159,1.017-1.581,1.301-2.139c0.591-1.163,0.734-1.664,2.128-1.91c3.179-0.563,6.687-0.036,9.888-0.314
			c1.101-0.096,1.021-2.137,1.127-2.905c0.187-1.349,0.793-1.615,1.716-2.534c1.079-1.073,1.035-2.181,0.523-3.525
			c-0.784-2.058-2.725-3.436-1.04-5.63c1.923-2.504,3.247-4.603,3.512-7.786c0.056-0.673,0.07-5.657,1.837-3.777
			c1.582,1.683,1.261,4.24,2.525,6.043c0.13,0.185,0.277,0.373,0.434,0.561c0.425,0.506,0.926,1.005,1.381,1.414
			c0.789,0.708,2.451,0.305,3.434,0.015c0.943-0.278,1.262-0.606,2.297-0.475c1.245,0.157,2.394,0.583,3.499,1.146
			c1.203,0.613,3.065,1.315,4.176,0.211c0.89-0.885,1.948-2.264,2.474-3.4c0.36-0.778,0.41-1.61,0.991-2.242
			c0.111-0.903,1.528-2.235,2.211-2.739c0.691-0.51,1.443-0.894,2.203-1.289c0.41-0.213,1.537-0.504,1.777-0.818
			c0.16-0.21,0.224-0.881,0.35-1.178c0.277-0.654,0.655-1.259,0.985-1.885c0.352-0.666,1.405-1.659,1.316-2.446
			c-1.302-0.594-2.83-1.456-3.802-2.538c-0.713-0.794-0.437-1.635-0.064-2.538c0.867-2.098,2.106-3.701,3.462-5.52
			c0.859-1.152,2.14-2.408,2.348-3.88c0.346-2.445,0.612-4.895,0.623-7.353c0.006-1.308-0.281-2.86,0.546-3.915
			c0.611-0.779,1.026-1.737,1.682-2.48c0.629-0.713,1.452-1.56,2.165-2.177c0.956-0.828,1.55-1.864,2.589-2.639
			c0.793-0.592,1.574-1.621,2.585-1.851c1.896-0.431,3.967,0.178,5.872-0.192c1.456-0.283,2.335-1.302,3.535-2.05
			c0.982-0.613,1.881-1.312,2.91-1.845c0.989-0.512,2.097-0.94,2.94-1.679c0.748-0.656,1.185-1.061,2.152-1.393
			c0.653-0.224,1.085-0.367,1.514-0.882C195.79,76.647,195.546,75.861,195.018,75.24z"/>
	</g>
</g>
<g id="Layer_1">
</g>
</svg>
