<?xml version="1.0" encoding="utf-8"?>
<!-- Generator: Adobe Illustrator 26.0.3, SVG Export Plug-In . SVG Version: 6.00 Build 0)  -->
<svg version="1.1" id="Isolation_Mode" xmlns="http://www.w3.org/2000/svg" xmlns:xlink="http://www.w3.org/1999/xlink" x="0px"
	 y="0px" viewBox="0 0 200 200" enable-background="new 0 0 200 200" xml:space="preserve">
<g>
	<path fill="#1E8346" d="M187.998,86.155c-0.367,0.437-1.331,0.411-1.812,0.789c-0.533,0.42-0.512,1.12-0.948,1.641
		c-0.52,0.622-1.224,0.779-1.981,0.831c-1.181,0.082-2.343-0.01-3.527-0.009c-0.815,0-1.662,0.094-2.231-0.576
		c-0.38-0.446-0.505-0.944-1.057-1.242c-0.703-0.38-1.572-0.554-2.327-0.818c-0.546-0.192-1.116-0.307-1.628-0.564
		c-0.476-0.238-0.784-0.37-1.35-0.346c-0.242,0.746,0.203,1.662,0.208,2.436c0.004,0.649,0.096,0.928,0.388,1.498
		c0.513,1.002,1.555,1.593,2.169,2.535c0.581,0.891,1.06,1.855,1.675,2.714c0.525,0.735,1.106,1.427,1.661,2.138
		c0.458,0.587,0.453,1.292,0.858,1.923c0.782,1.22,2.217,1.483,3.301,2.331c0.7,0.548,1.498,1.729,1.78,2.562
		c0.272,0.805,0.061,1.796,0.055,2.645c-0.004,0.556,0,1.112,0,1.668c0,0.196,0.127,1.077-0.004,1.266
		c-0.196,0.284-0.783,0.06-0.969,0.261c-0.233,0.252,0.114,0.976,0.196,1.26c0.109,0.378,0.258,0.751,0.492,1.054
		c0.249,0.323,0.741,0.489,0.771,0.93c0.025,0.369-0.48,0.604-0.636,0.974c-0.372-0.332-1.121-0.973-1.656-0.868
		c-0.833,0.165-0.929,1.529-1.725,1.802c-1.156-0.668-0.797-2.419-1.643-3.316c-1.447-1.535-2.283,1.737-3.826,1.139
		c-0.339-0.131-0.465-0.623-0.745-0.762c-0.428-0.212-1.427-0.101-1.755,0.296c-0.317,0.384-0.041,1.095,0.001,1.672
		c0.042,0.577-0.142,1.315,0.045,1.861c-0.594,0.131-1.195,0.209-1.798,0.194c-0.808-0.02-1.543-0.347-2.319-0.392
		c-0.734-0.043-0.564,0.374-1.083,0.672c-0.589,0.338-1.478-0.152-2.089,0.18c-0.527,0.287-0.637,1.012-1.121,1.331
		c-0.821-0.421-0.903-1.421-1.523-2.041c-0.406-0.405-0.72-1.036-1.268-1.242c-0.882-0.333-0.686,0.764-1.148,1.301
		c-0.261,0.303-0.511,0.467-0.888,0.597c-0.314,0.108-0.872,0.074-1.094,0.337c-0.187,0.222-0.266,1.382-0.159,1.654
		c0.104,0.267-0.026,0.125,0.242,0.193c0.592,0.151,0.701-0.256,0.768,0.621c0.056,0.727,0.052,1.77,0.848,2.081
		c0.546,0.213,1.369,0.404,1.945,0.553c0.233,0.862,0.162,1.782,0.429,2.643c0.197,0.635,0.476,1.221,0.768,1.815
		c0.343,0.699,0.559,1.956,1.151,2.473c0.219,0.192,0.4,0.479,0.521,0.738c-0.187,0.024-0.309,0.183-0.481,0.235
		c-0.339,0.102-0.745,0.023-1.094,0.054c-0.51,0.046-0.651,0.066-0.848,0.446c-0.131,0.253-0.097,0.577-0.197,0.843
		c-0.099,0.264-0.3,0.502-0.435,0.748c-0.153,0.279-0.423,0.633-0.374,0.963c-0.321-0.221-0.452-0.654-0.72-0.927
		c-0.255-0.259-0.748-0.345-0.942-0.643c-0.298-0.458,0.009-1.484-0.174-2.051c-0.216-0.668-0.588-1.446-1.213-1.828
		c-1.023-0.625-2.841-0.363-3.99-0.33c0.213,0.755-0.243,1.297-0.199,2.012c-1.561,0.654-2.857,1.365-4.259,2.287
		c-0.376,0.247-0.857,0.805-1.377,1.221c-0.438,0.35-0.903,0.6-1.357,0.481c0.55,0.835,1.191,1.607,1.777,2.417
		c-0.615,0.265-0.958,0.489-1.492,0.948c-0.886,0.764-1.704,0.553-1.687,1.853c0.018,1.343,0.201,2.662,0.201,4.017
		c0,1.198,0,2.396,0,3.593c0,0.283-0.05,0.438-0.028,0.723c-0.741,0.263-1.527,0.328-2.316,0.377
		c-0.92,0.058-1.844,0.094-2.702,0.399c-1.281,0.455-2.625,2.136-2.862,3.512c-0.122,0.705-0.211,1.521-0.194,2.239
		c0.024,1.032,0.298,1.08,0.851,1.916c0.338,0.512,0.603,0.855,0.225,1.371c-0.281,0.385-1.498,0.181-0.667,1.253
		c-0.559,0.201-0.623,0.312-0.803,0.781c-0.158,0.411-0.11,1.232,0.293,1.446c-0.276,0.112-0.447,0.273-0.86,0.19
		c-0.035,0.726-0.078,1.421-0.057,2.104c0.024,0.793,0.135,1.57,0.448,2.36c0.41,0.016,0.834-0.01,1.237,0.037
		c0.086,1.031,1.201,1.134,1.981,1.525c1.711,0.859,0.393,1.481-0.678,2.308c0.895,0.86,1.564,1.769,2.426,2.668
		c-0.734,0.163-2.381,0.005-2.65,0.826c-0.404,1.236,1.483,1.57,0.991,2.909c-1.218-0.443-1.77-0.68-2.803,0.223
		c-0.432,0.377-1.283,1.366-2.016,1.069c-0.767-0.311-1.273-2.445-2.061-3.003c-0.891-0.631-2.165-0.436-3.261-0.406
		c-1.152,0.031-1.292,0.696-2.236,0.906c-1.152,0.256-1.454-0.815-1.959-1.603c-0.913-1.425-1.059-1.521-2.596-2.021
		c-0.678-0.221-1.774-1.675-2.439-1.533c-0.417-1.149-0.173-1.263-1.082-1.999c-0.819-0.662-1.707-1.691-2.677-2.105
		c-0.881-0.376-1.119-0.227-1.675-0.93c-0.197-0.249-0.298-0.687-0.516-0.975c-0.354-0.468-0.942-1.043-1.502-1.274
		c-0.589-0.244-2.123,0.271-2.474-0.189c-0.315-0.413,0.162-0.881,0.048-1.295c-0.163-0.589-0.86-0.623-1.151-1.067
		c-0.601-0.921-0.042-2.014-0.906-2.979c-0.345-0.385-1.015-1.132-1.557-1.252c-0.646-0.143-0.524,0.187-1.037,0.396
		c-0.236,0.096-0.229,0.211-0.585,0.314c-0.651,0.189-1.753-0.319-2.398-0.613c-0.89-0.406-1.789-1.041-2.813-0.973
		c-0.153,0.829-0.238,1.736-0.79,2.405c-0.655-1.47-1.895-2.219-3.085-3.181c0.734-0.266,1.493-0.32,2.17-0.661
		c0.385-0.194,0.754-0.429,1.157-0.597c0.473-0.197,0.987-0.288,1.46-0.476c0.303-0.12,0.531-0.372,0.826-0.461
		c-0.232-0.606-0.583-1.087-0.859-1.663c-0.331-0.692-0.526-1.452-0.739-2.188c-0.408-1.415-0.461-2.91-1.789-3.79
		c-0.661-0.438-1.407-0.715-2.083-1.107c-0.87-0.505-1.721-1.05-2.607-1.519c-0.827-0.438-1.632-0.889-2.39-1.431
		c-0.48-0.343-0.955-0.768-1.571-0.828c-0.945-0.092-0.53-2.062-0.642-2.768c-0.106-0.661-0.364-0.64-1.009-0.869
		c-0.705-0.25-1.285-0.571-1.953-0.87c-1.083-0.486-1.189-0.86-1.587-2.01c-0.242-0.698-0.556-1.353-0.803-2.043
		c-0.364-1.019-0.433-2.009-0.926-3.025c-0.269-0.555-0.65-1.093-0.889-1.658c-0.111-0.263-0.096-0.546-0.356-0.712
		c0.468-0.433,1.536-1.216,1.42-1.959c-0.497-0.309-0.442-1.266-0.531-1.782c-0.132-0.764-0.261-0.71-0.875-1.095
		c-0.531-0.332-1.013-1.327-1.64-1.388c-0.177-0.018-0.346,0.136-0.52,0.183c-0.35,0.096-0.74,0.055-1.097,0.055
		c-0.278,0-0.555,0.002-0.831-0.012c-0.769-0.039-1.03,0.05-1.608-0.565c-0.478-0.509-0.817-1.119-1.356-1.555
		c-0.697-0.565-1.41-1.345-2.202-1.763c-0.772-0.408-1.376-0.836-2.086-1.343c-0.634-0.453-1.177-1.217-1.808-1.603
		c-0.438-0.269-0.532-0.689-0.732-1.078c-0.276-0.537-0.566-1.021-1.061-1.467c-0.601-0.541-1.28-0.941-1.854-1.522
		c-1.129-1.143-2.264-2.315-3.179-3.68c-0.355-0.53-0.62-1.157-1.082-1.573c-0.757-0.684-1.96-0.586-2.643-1.451
		c-0.381-0.483-0.875-1.465-0.977-2.104c-0.091-0.573-0.351-1.644-0.295-2.192c-1.761-1.526-3.216-3.009-4.793-4.676
		c-0.333-0.351-0.702-0.76-1.116-1.015c-0.312-0.192-0.698-0.229-0.942-0.497c-0.438-0.481-0.409-1.28-0.565-1.838
		c-0.238-0.856-1.189-1.631-1.755-2.32c-0.497-0.604-0.709-0.8-1.603-0.916c-0.884-0.115-0.885-0.004-1.19-0.948
		c-0.276-0.856-0.688-1.9-0.624-2.803c-0.712,0.075-1.844,0.428-2.515,0.108c-0.921-0.439-1.438-2.435-1.993-3.249
		c-0.774-1.133-1.635-2.282-2.757-3.072c-0.917-0.646-1.79-1.269-2.603-2.012c0.187-0.338,0.636-1.057,0.552-1.436
		c-0.041-0.186-0.519-0.532-0.649-0.741c-0.261-0.419-0.45-0.942-0.567-1.43c-0.419-1.737,0.227-2.737,1.004-4.252
		c-0.255-0.799-0.952-1.224-1.658-1.605c-0.909-0.489-1.176-0.768-1.842-1.532c0.524-0.55,1.098-0.494,1.738-0.744
		c-0.364-0.62-1.246-0.725-1.681-1.304c-0.289-0.385-0.528-0.995-0.554-1.48c-0.072-1.346,0.932-2.142-0.089-3.384
		c-0.122-0.149-0.259-0.282-0.401-0.41c-0.353-0.318-0.74-0.598-1.036-0.974c-0.349-0.444-0.463-0.801-0.996-1.086
		c-0.847-0.453-1.675-0.794-2.095-1.499c-0.218-0.367-0.327-0.833-0.271-1.466c0.295,0.041,0.558-0.005,0.783-0.112
		c0.825-0.388,1.153-1.587,0.716-2.352c-0.575-1.007-1.658-2.58-2.661-3.145c-0.968-0.545-1.367-0.247-1.532-1.411
		c-0.061-0.429,0.099-0.69-0.284-0.993c-0.062-0.05-0.129-0.086-0.197-0.115c-0.379-0.161-0.832-0.071-1.202-0.429
		c-0.376-0.363-0.507-1.043-0.858-1.512c-1.078,0.679-2.417,0.727-3.422,1.421c-0.703-1.08-1.414-2.179-2.108-3.273
		c-0.477-0.751-1.997-2.083-1.967-3.002c0.43-0.034,1.067,0.176,1.471-0.083c0.24-0.154,0.346-0.429,0.45-0.702
		c0.088-0.231,0.174-0.46,0.338-0.612c-0.919-0.883-1.285-2.072-1.764-3.257c-0.381-0.94-0.873-4.242-0.022-4.82
		c0.508-0.345,1.044,0.169,1.513-0.083c0.502-0.269,0.378-1.165,0.274-1.641c-0.284-1.296-2.329-2.708-1.82-4.099
		c0.193-0.527,0.506-1.08,0.841-1.625c0.336-0.547,0.695-1.085,0.978-1.577c-0.287-0.785-0.18-1.709-0.489-2.555
		c-0.251-0.687-0.35-1.148,0.069-1.812c0.455-0.722,1.167-1.473,1.807-2.022c1.015-0.871,2.123-0.795,3.344-0.3
		c0.188-0.284,0.257-0.608,0.299-0.945c0.943,0.048,1.179,0.528,1.381,1.439c0.562-0.447,1.427-0.899,1.864-1.462
		c0.525,0.306,0.916,0.921,1.387,1.311c0.094,0.078,0.21,0.15,0.325,0.223c0.142,0.09,0.283,0.183,0.383,0.293
		c0.111,0.121,0.193,0.231,0.249,0.339c0.163,0.317,0.088,0.613-0.236,1.078c0.49,0.024,0.898-0.105,1.228-0.087
		c0.288,0.017,0.518,0.146,0.692,0.589c0.021,0.054,0.04,0.108,0.058,0.162c0.321,0.943,0.279,1.994,0.635,2.938
		c0.154,0.409,0.406,1.098,0.769,1.319c0.292,0.178,0.918,0.117,1.26,0.226c0.735,0.235,1.128,0.741,1.714,1.233
		c0.629,0.528,0.992,0.854,1.28,1.685c0.156,0.451,0.155,1.102,0.433,1.455c0.251,0.319,1.056,0.678,1.413,0.918
		c0.826,0.554,1.363,0.172,2.326,0.134c0.39,0.781,0.424,0.925,0.963,0.885c0.142-0.011,0.316-0.033,0.544-0.062
		c0.759-0.094,1.47,0.174,2.136-0.24c-0.055-0.637-0.544-1.776,0.048-2.293c0.623-0.545,1.483,0.153,1.774-0.751
		c0.283-0.877-0.158-2.085-0.225-2.971c-0.087-1.132,0.163-1.296,1.26-1.522c2.234-0.459,2.01-1.956,2.559-3.859
		c0.568-1.973,2.394-3.573,4.385-2.18c1.093-0.826,0.78-0.967,1.935-0.234c0.703,0.446,1.447,0.735,2.187,1.098
		c0.336,0.165,0.884,0.634,1.263,0.583c0.54-0.072,0.812-0.795,1.467-0.821c1.475-0.06,3.01,1.635,4.469,1.341
		c1.076-0.216,0.379-1.062,0.625-1.831c0.405,0.009,0.633,0.33,1.056,0.197c0.205-0.983-0.295-1.643,0.51-2.413
		c0.516-0.493,1.558-1.29,2.26-1.525c0.032-0.011,0.065-0.022,0.096-0.031c0.239-0.065,0.48-0.048,0.691,0.03
		c0.425,0.158,0.731,0.572,0.649,1.121c-0.112,0.747-0.851,0.668-0.596,1.607c0.396,0.074,0.955,0.155,1.366,0.147
		c0.539-0.011,1.075-0.317,1.608-0.225c0.824,0.142,0.139,0.192,0.663,0.539c0.703,0.465,0.899,0.449,1.317,1.283
		c1.268,0.755,2.381,1.249,3.721,1.898c0.502,0.243,0.828,0.494,1.281,0.87c1.181,0.981,2.65,0.844,4.24,0.815
		c-0.031-0.557,0.421-2.191,0.753-2.734c0.84,0.223,1.497,1.094,2.426,1.066c0.494,1.624,2.018,2.876,3.876,2.213
		c0.625-0.223,0.636-1.068,1.095-1.222c0.796-0.266,0.7,1.512,0.781,2.09c0.471-0.277,1-0.4,1.54-0.382
		c-0.004,0.405-0.06,0.811-0.183,1.187c0.496,0.221,1.649,0.397,2.066,0.117c0.509-0.343,0.542-1,1.234-1.292
		c0.228,0.392,0.231,0.839,0.181,1.292c0.505-0.066,1.125-0.157,1.4,0.367c1.059-0.324,2.195-1.663,3.283-1.724
		c0.774-0.043,0.846,0.746,1.502,1.236c0.78,0.582,1.653,0.881,2.403,1.501c0.946,0.782,3.348,3.296,4.686,2.939
		c0.334-0.089,0.893-0.605,1.233-0.784c0.761-0.4,0.786-0.346,1.12-0.909c0.52-0.875,0.571-0.943,1.481-1.468
		c-0.09-0.37-0.214-0.744-0.444-1.017c1.268-0.19,1.328-0.143,2.07-1.081c0.169-0.214,0.77-1.231,1.018-1.273
		c0.662-0.109,0.843,1.064,1.503,1.149c0.452,0.057,0.675-0.577,1.227-0.606c1.091-0.058,0.956,1.03,1.296,1.731
		c0.262,0.541,0.432,0.686,1.124,0.914c1.407,0.463,2.753,0.605,4.318,0.55c0.272-0.707,0.192-1.467,0.189-2.207
		c0.575-0.124,1.144-0.578,1.682-0.68c0.716-0.135,0.118-0.373,1.046,0.185c0.3,0.18,0.591,0.561,0.851,0.799
		c1.369,1.254,2.824,0.799,4.598,0.567c1.349-0.176,1.798,0.673,2.848,1.483c1.139,0.879,1.853,0.973,3.144,1.407
		c0.287,0.097,0.519,0.197,0.811,0.302c0.247-0.294,0.231-0.726,0.291-1.089c0.033-0.201,0.006-0.505,0.163-0.644
		c0.207-0.184,0.855-0.076,1.106-0.075c0.119,0.237,0.094,0.595,0.11,0.861c0.193-0.347,0.18-0.755,0.59-0.925
		c0.315-0.131,1.126-0.14,1.486-0.118c0.696,0.044,0.166,0.699,0.087,1.153c-0.114,0.661,0.403,0.604,1.01,0.596
		c0.039-0.474,0.131-1.203,0.58-1.489c0.402-0.256,0.671-0.027,0.778,0.423c0.066,0.279-0.051,0.588,0.01,0.864
		c0.067,0.302,0.267,0.51,0.476,0.755c0.543,0.633,1.206,1.202,1.816,1.776c0.368,0.345,0.319,0.595,0.327,1.054
		c0.004,0.21-0.055,0.732,0.069,0.903c0.219,0.303,1.237,0.31,1.583,0.336c0.425,0.031,0.594-0.031,0.641,0.417
		c0.05,0.485-0.187,1.267-0.029,1.734c0.108,0.32,0.546,0.619,0.612,0.958c0.073,0.37-0.159,0.523-0.489,0.602
		c-0.394,0.095-0.654-0.139-0.978-0.295c0.088,0.223,0.31,0.555,0.271,0.811c-0.056,0.366-0.613,0.541-0.552,0.942
		c0.015,0.094,0.382,0.477,0.418,0.527c0.319,0.444,0.67,0.763,1.069,1.136c0.42,0.392,0.744,0.951,1.261,1.207
		c0.817,0.405,1.506,0.365,2.413,0.365c1.365,0,2.729,0,4.094,0c0.567,0,1.327,0.138,1.843-0.109
		c1.332-0.638,3.092-0.254,4.246-1.25c0.708-0.611,1.467-1.188,2.141-1.829c0.478-0.454,0.541-0.687,1.18-0.731
		c0.769-0.052,1.165-0.156,1.471,0.616c0.115,0.289,0.208,0.474,0.145,0.769c0.894-0.168,1.177-0.556,1.658-1.206
		c1.407,0.442,2.968,1.059,4.245,1.777c0.447,0.251,1.122,0.382,1.414,0.736c0.27,0.328,0.387,1.374,0.152,1.799
		c-0.191,0.345-0.629,0.42-0.911,0.641c-0.576,0.452-0.522,0.892-0.274,1.59c0.221,0.62,0.346,0.812,0.03,1.467
		c-0.1,0.208-0.273,0.539-0.435,0.699c-0.148,0.147-0.279,0.092-0.418,0.238c-0.249,0.262-0.231,0.717-0.558,0.909
		c0.369,0.562,0.842,1.073,1.142,1.676c-0.348-0.073-0.855,0.083-1.246,0.104c0.105,0.506,0.43,0.907,0.34,1.446
		c-0.05,0.303-0.296,1.099-0.462,1.349c-0.364,0.549-1.117,0.427-1.72,0.431c-0.934,0.68-0.728,1.786-0.985,2.78
		c-0.157,0.606-0.292,1.339-0.832,1.634c-0.213,0.117-0.249-0.074-0.445,0.196c-0.154,0.212-0.033,0.546-0.067,0.791
		c-0.135,0.99-1.866,0.698-1.604,1.875c0.107,0.48,0.388,0.929,0.189,1.467c-0.109,0.295-0.551,0.93-0.779,1.119
		c-0.6,0.497-1.861-0.363-2.422,0.603c-0.146,0.252-0.041,0.793-0.041,1.082c0,1.193,0.564,2.147,0.756,3.321
		c0.137,0.839,0.403,1.548-0.078,2.375c-0.402,0.691-1.328,1.068-1.174,1.919c0.076,0.423,0.037,0.848,0.108,1.262
		c0.075,0.445,0.296,0.473,0.584,0.801c0.498,0.566,0.172,1.323,0.442,1.98c0.413,1.005,0.956,1.687,1.883,2.283
		c0.407-0.194,1.263-0.641,1.702-0.253c0.361,0.319,0.096,1.078,0.537,1.303c0.492,0.251,1.388-0.464,1.908-0.492
		c0.488-0.026,1.262-0.072,1.731,0.062c0.268,0.077,0.506,0.287,0.771,0.382c0.957,0.34,0.879,2.181,0.926,3.143
		c0.043,0.883,0.227,1.566,0.725,2.284c0.594-0.034,1.745,0.222,2.172,0.681c0.605,0.65,0.818,1.698,1.388,2.405
		c0.347-0.294,0.743-0.78,1.192-0.917c0.405,0.561,0.107,1.289,0.282,1.904c1.163,0.22,1.321,1.089,1.797,2.055
		c0.409,0.83,0.769,0.275,1.43,0.573c0.49,0.221,0.93,1.117,1.072,1.619c0.329-0.464,0.687-1.714,1.278-0.839
		c0.135,0.201,0.099,0.641,0.272,0.797c0.171,0.154,0.747,0.166,0.959,0.163c0.035,0.505-0.382,1.01-0.466,1.509
		C188.103,85.627,188.194,85.922,187.998,86.155z"/>
	<g>
		<path fill="#1E8346" d="M156.305,193.89c-0.217,0.301-0.385,0.568-0.501,0.802c-0.117,0.234-0.175,0.493-0.175,0.777
			c0,0.351,0.11,0.647,0.332,0.89s0.501,0.439,0.84,0.589c0.338,0.151,0.704,0.257,1.096,0.32c0.393,0.062,0.765,0.094,1.116,0.094
			c0.284,0,0.601-0.029,0.952-0.088c0.351-0.059,0.677-0.157,0.978-0.295c0.301-0.138,0.554-0.322,0.758-0.551
			c0.205-0.23,0.307-0.52,0.307-0.871c0-0.301-0.088-0.541-0.263-0.72c-0.176-0.18-0.403-0.318-0.683-0.414
			c-0.28-0.096-0.6-0.159-0.959-0.188c-0.36-0.029-0.719-0.044-1.078-0.044c-0.192,0-0.403-0.004-0.633-0.013
			c-0.23-0.008-0.466-0.025-0.708-0.05c-0.243-0.025-0.482-0.056-0.721-0.094C156.725,193.996,156.505,193.948,156.305,193.89z"/>
	</g>
</g>
</svg>
