<?xml version="1.0" encoding="utf-8"?>
<!-- Generator: Adobe Illustrator 26.0.3, SVG Export Plug-In . SVG Version: 6.00 Build 0)  -->
<svg version="1.1" xmlns="http://www.w3.org/2000/svg" xmlns:xlink="http://www.w3.org/1999/xlink" x="0px" y="0px"
	 viewBox="0 0 200 200" enable-background="new 0 0 200 200" xml:space="preserve">
<g id="Isolation_Mode">
</g>
<g id="c">
	<path fill-rule="evenodd" clip-rule="evenodd" fill="#1E8346" d="M195.43,65.439c-0.495-0.708-0.79-1.517-0.379-2.41
		c0.121-0.261,0.112-0.523-0.03-0.811c-0.322-0.654-0.487-1.318-0.059-2.024c0.247-0.409-0.058-0.829-0.208-1.195
		c-0.114-0.28-0.507-0.161-0.78-0.172c-0.331-0.014-0.671-0.042-0.994,0.012c-1.26,0.209-2.453-0.083-3.625-0.472
		c-0.768-0.254-1.538-0.461-2.34-0.576c-0.655-0.094-1.313-0.204-1.949-0.383c-2.332-0.657-4.517-1.691-6.721-2.676
		c-0.654-0.292-1.062-0.703-1.2-1.446c-0.294-1.587-1.23-2.971-1.486-4.584c-0.081-0.513-0.684-0.726-1.138-0.454
		c-0.443,0.266-0.835,0.617-1.248,0.933c-0.222,0.17-0.401,0.429-0.713,0.429c-0.817,0-1.581,0.29-2.373,0.424
		c-0.661,0.112-1.115-0.139-1.434-0.67c-0.193-0.321-0.336-0.677-0.466-1.03c-0.201-0.545-0.534-1.002-0.899-1.439
		c-0.293-0.352-0.544-0.395-0.794-0.01c-0.47,0.726-1.124,0.786-1.865,0.685c-0.657-0.09-1.323-0.144-1.968-0.291
		c-0.476-0.109-0.912-0.107-1.39-0.009c-1.737,0.357-1.745,0.342-2.842-1.081c-0.208-0.269-0.402-0.561-0.765-0.579
		c-1.207-0.059-1.801-0.699-1.864-1.882c-0.005-0.091-0.03-0.204-0.09-0.263c-0.095-0.092-0.224-0.199-0.343-0.206
		c-0.182-0.01-0.372,0.047-0.551,0.099c-1.016,0.298-1.969,0.213-2.821-0.465c-0.404-0.321-0.858-0.399-1.34-0.272
		c-0.7,0.185-1.385,0.295-2.08-0.04c-0.26-0.126-0.558-0.084-0.833,0.017c-0.903,0.329-1.857,0.289-2.79,0.336
		c-0.437,0.022-0.827,0.104-1.235,0.24c-0.862,0.287-1.638,0.728-2.404,1.203c-0.817,0.506-1.669,0.899-2.678,0.743
		c-0.492-0.076-0.94,0.122-1.359,0.342c-0.831,0.435-1.711,0.556-2.622,0.444c-0.916-0.112-1.79-0.037-2.635,0.361
		c-0.697,0.328-1.475,0.282-2.212,0.427c-0.896-0.418-1.762-0.017-2.639,0.099c-0.765,0.101-1.413,0.421-2.069,0.85
		c-0.97,0.635-1.963,1.35-3.268,1.1c-0.491-0.094-0.927,0.131-1.305,0.447c-0.661,0.552-1.265,1.146-1.521,2.009
		c-0.095,0.321-0.221,0.652-0.574,0.765c-0.925,0.295-1.588,1.016-2.42,1.454c-0.571,0.301-1.031,0.722-1.301,1.269
		c-0.383,0.775-0.972,1.397-1.404,2.128c-0.305,0.516-0.73,0.875-1.301,1.035c-0.583,0.164-1.011,0.476-1.261,1.044
		c-0.092,0.21-0.233,0.45-0.419,0.559c-0.774,0.452-1.552,0.965-2.511,0.81c-0.722-0.117-1.298,0.152-1.848,0.55
		c-0.423,0.305-0.83,0.632-1.259,0.928c-0.685,0.472-1.429,0.764-2.275,0.55c-0.64-0.162-1.205-0.027-1.773,0.276
		c-0.59,0.315-1.237,0.456-1.903,0.539c-0.808,0.102-1.452-0.102-2.052-0.699c-0.691-0.687-1.669-1.015-2.362-1.733
		c-0.143-0.149-0.437-0.163-0.667-0.215c-0.322-0.074-0.662-0.09-0.972-0.195c-0.566-0.193-1.086-0.185-1.649,0.061
		c-1.098,0.479-2.131,0.256-3.078-0.441c-0.344-0.253-0.676-0.521-1.025-0.766c-0.408-0.288-0.85-0.396-1.344-0.225
		c-0.536,0.185-1.082,0.343-1.619,0.526c-0.544,0.185-1.116,0.374-1.665,0.198c-0.851-0.273-1.702-0.182-2.534-0.074
		c-1.534,0.199-2.927-0.008-4.131-1.042c-2.634-1.258-4.297-1.261-6.352,0.346c-0.112,0.087-0.203,0.21-0.325,0.274
		c-0.79,0.415-1.541,1.048-2.451,1.023c-1.018-0.028-1.972,0.189-2.945,0.376c-1.033,0.199-2.064,0.362-3.023-0.282
		c-0.112-0.075-0.268-0.087-0.405-0.12c-1.112-0.269-2.13-0.786-3.129-1.305c-0.74-0.384-1.463-0.654-2.289-0.637
		c-0.672,0.014-1.327-0.073-1.952-0.317c-1.007-0.393-1.896-1.067-3.002-1.238c-0.206-0.032-0.402-0.245-0.563-0.412
		c-0.291-0.301-0.649-0.36-1.036-0.373c-0.763-0.024-1.522-0.004-2.233,0.313c-0.711,0.316-1.394,0.201-2.055-0.116
		c-0.554-0.266-1.096-0.562-1.622-0.881c-0.775-0.472-1.61-0.797-2.463-1.091c-0.366-0.126-0.736-0.243-1.108-0.104
		c-0.649,0.242-1.31,0.143-1.97,0.135c-1.237-0.015-2.437,0.08-3.612,0.585c-1.124,0.484-2.285,0.895-3.488,1.185
		c-1.337,0.322-2.638,0.184-3.922-0.19c-0.861-0.251-1.693-0.6-2.54-0.899c-1.37-0.482-1.864-1.341-1.564-2.733
		c0.131-0.608,0.448-1.146,0.647-1.725c0.652-1.895,0.62-1.696,2.578-2.145c0.603-0.138,1.192-0.32,1.693-0.702
		c0.892-0.679,1.114-1.719,0.573-2.645c-0.127-0.218-0.31-0.361-0.566-0.371c-0.283-0.011-0.568,0.009-0.852,0
		c-0.969-0.033-1.878-0.253-2.62-0.924c-0.503-0.454-1.103-0.735-1.718-0.984c-0.844-0.343-1.63-0.756-2.225-1.476
		c-0.247-0.298-0.571-0.505-0.965-0.555c-0.567-0.072-1.117-0.195-1.653-0.401c-0.459-0.176-0.877,0.048-1.147,0.363
		c-0.359,0.418-0.4,1.061-0.914,1.4c-0.038,0.025-0.031,0.193,0.012,0.256c0.182,0.269,0.129,0.506,0.017,0.795
		c-0.24,0.621-0.407,1.261-0.086,1.922c0.057,0.117,0.021,0.279,0.025,0.421c0.016,0.575-0.042,0.669-0.563,0.795
		c-0.412,0.099-0.83,0.175-1.245,0.259c-0.457,0.092-0.73,0.235-0.588,0.832c0.085,0.354-0.331,0.641-0.804,0.584
		c-0.82-0.099-1.574,0.082-2.341,0.33c-0.518,0.168-0.778,0.427-0.757,0.992c0.03,0.795,0.135,1.608-0.503,2.28
		c-0.121,0.127-0.025,0.454-0.044,0.686c-0.091,1.088-0.184,2.197-0.718,3.162c-0.325,0.588-0.272,1.048,0.01,1.587
		c0.176,0.335,0.282,0.715,0.573,0.97c0.322,0.283,0.359,0.637,0.362,1.027C7.905,60.286,8.579,61.379,9.975,62
		c0.086,0.038,0.174,0.077,0.253,0.128c0.214,0.138,0.376,0.385,0.346,0.589c-0.133,0.88,0.257,1.728,0.115,2.602
		c-0.03,0.183-0.08,0.39-0.025,0.553c0.361,1.067,0.651,2.16,1.205,3.158c0.204,0.367,0.46,0.614,0.864,0.643
		c0.36,0.026,0.672,0.112,0.808,0.46c0.27,0.691,0.789,0.9,1.472,0.816c0.459-0.056,0.707,0.181,0.859,0.573
		c0.017,0.044,0.04,0.087,0.05,0.133c0.121,0.567,0.489,0.742,1.039,0.724c0.957-0.033,1.708,0.278,2.228,1.181
		c0.267,0.463,0.652,0.936,1.237,1.125c0.243,0.079,0.391,0.285,0.44,0.521c0.232,1.124,0.947,2,1.52,2.942
		c0.581,0.955,1.358,1.671,2.591,1.652c0.178-0.003,0.362,0.1,0.536,0.172c0.483,0.199,0.534,0.303,0.356,0.956
		c-0.065,0.239-0.048,0.455-0.029,0.692c0.104,1.271-0.358,2.229-1.617,2.663c-0.465,0.16-0.711,0.474-0.809,0.903
		c-0.297,1.307-1.715,1.697-2.267,2.797c-0.067,0.134-0.326,0.173-0.498,0.252c-0.215,0.099-0.432,0.193-0.647,0.292
		c-0.18,0.083-0.358,0.212-0.33,0.414c0.088,0.634-0.327,1.146-0.369,1.769c-0.064,0.939-0.817,1.617-1.758,1.698
		c-0.371,0.032-0.596,0.155-0.834,0.384c-0.144,0.139-0.348,0.196-0.51,0.046c-0.459-0.427-1.232-0.158-1.612-0.743
		c-0.5-0.071-0.943,0.018-1.251,0.461c-0.136,0.195-0.295,0.469-0.541,0.331c-0.681-0.381-1.139-0.354-1.327,0.51
		c-0.025,0.117-0.169,0.247-0.289,0.297c-0.564,0.237-0.936,0.772-1.59,0.904c-0.526,0.105-0.642,0.529-0.374,0.989
		c0.378,0.649,0.777,1.287,1.183,1.92c0.148,0.231,0.467,0.357,0.457,0.682c-0.009,0.297-0.201,0.511-0.368,0.747
		c-0.479,0.674-0.479,0.734-0.428,1.697c0.002,0.046,0.036,0.111,0.016,0.134c-0.488,0.582-0.202,1.343-0.464,1.981
		c-0.197,0.478-0.356,0.974-0.496,1.472c-0.079,0.282-0.048,0.551,0.294,0.702c1.111,0.49,1.874,1.418,2.735,2.22
		c0.479,0.446,0.504,1.027,0.229,1.544c-0.211,0.396-0.252,0.806-0.358,1.212c-0.094,0.363-0.134,0.728-0.278,1.09
		c-0.183,0.458-0.375,0.731-0.906,0.664c-0.259-0.033-0.407,0.136-0.539,0.366c-0.283,0.492-0.583,0.945-0.595,1.562
		c-0.01,0.501-0.373,0.805-0.868,0.666c-0.677-0.19-1.186,0.228-1.782,0.29c-0.198,0.02-0.292,0.36-0.136,0.432
		c0.798,0.366,0.958,1.28,1.559,1.79c0.642,0.546,0.976,1.258,1.324,1.982c0.121,0.251,0.225,0.534,0.567,0.576
		c0.453,0.055,0.619,0.34,0.683,0.768c0.099,0.665,0.292,1.344,0.919,1.681c0.72,0.387,1.177,1.107,1.922,1.429
		c0.736,0.319,1.421,0.7,2.025,1.236c0.292,0.259,0.673,0.324,1.068,0.276c0.235-0.028,0.5-0.065,0.66,0.148
		c0.545,0.728,1.342,0.814,2.147,0.846c0.207,0.008,0.38,0.025,0.485,0.185c0.335,0.51,0.824,0.577,1.371,0.53
		c0.141-0.012,0.261,0.054,0.298,0.223c0.125,0.583,0.258,1.165,0.387,1.747c-0.458,1.322,0.766,2.277,0.768,3.5
		c0,0.04,0.04,0.1,0.076,0.115c0.785,0.325,0.873,1.107,1.037,1.761c0.164,0.651,0.438,1.234,0.672,1.846
		c0.187,0.489,0.45,0.679,0.904,0.723c0.36,0.035,0.584,0.193,0.75,0.537c0.648,1.341,0.682,1.514-0.212,2.684
		c-0.468,0.613-0.685,1.484-1.582,1.716c-0.066,0.017-0.158,0.165-0.142,0.227c0.179,0.718-0.24,1.485,0.255,2.196
		c0.288,0.414,0.467,0.95,0.147,1.468c-0.173,0.28-0.112,0.547-0.001,0.812c0.095,0.225,0.183,0.452,0.066,0.681
		c-0.335,0.658-0.16,1.307,0.107,1.904c0.187,0.419,0.157,0.712-0.148,1.015c-0.208,0.206-0.406,0.447-0.271,0.747
		c0.406,0.906,0.21,1.814,0.002,2.715c0.639,0.25,1.26,0.188,1.872,0.196c0.476,0.006,0.949-0.002,1.39,0.218
		c1.417,0.704,2.885,0.342,4.316,0.126c0.94-0.142,1.085-0.459,1.12-1.477c0.008-0.243-0.001-0.48,0.222-0.629
		c0.39-0.262,0.774-0.54,1.188-0.757c0.652-0.341,1.123-0.172,1.521,0.492c0.12,0.199,0.237,0.399,0.343,0.577
		c0.252-0.017,0.403-0.115,0.545-0.251c0.954-0.914,2.126-1.098,3.397-1.103c1.303-0.005,2.483,0.454,3.679,0.836
		c0.418,0.134,0.82,0.184,1.238,0.223c0.259,0.024,0.423-0.071,0.475-0.375c0.108-0.629,0.52-0.838,1.137-0.775
		c0.609,0.062,1.235,0.016,1.833,0.126c0.569,0.105,0.894-0.047,1.124-0.567c0.223-0.504,0.604-0.687,1.196-0.805
		c1.05-0.209,2.206-0.401,2.739-1.548c0.548,0.234,0.618,0.777,0.951,1.109c0.358,0.357,0.654,0.403,1.113,0.099
		c0.542-0.359,1.015-0.746,1.78-0.431c0.443,0.182,0.871-0.377,0.723-0.891c-0.123-0.424-0.092-0.843-0.131-1.264
		c-0.07-0.756,0.489-1.069,0.978-1.431c0.065-0.048,0.205-0.07,0.269-0.032c0.75,0.439,1.806,0.238,2.274,1.15
		c0.339-0.411,0.566-0.898,0.943-1.09c0.47-0.239,0.867-0.52,1.252-0.864c0.17-0.152,0.403-0.117,0.616,0.097
		c0.72,0.725,0.729,0.714,0.882,1.787c0.009,0.066,0.121,0.117,0.193,0.181c0.492-0.053,0.92-0.51,1.479-0.25
		c0.186,0.086,0.368-0.016,0.506-0.162c0.428-0.452,0.898-0.432,1.422-0.169c0.298,0.149,0.639,0.196,0.971,0.116
		c0.336-0.082,0.315-0.438,0.466-0.664c0.135-0.202,0.32-0.343,0.555-0.418c0.314-0.1,0.624-0.217,0.941-0.306
		c0.484-0.136,0.904,0.054,0.964,0.547c0.086,0.703,0.524,1.322,0.431,2.065c-0.042,0.339,0.106,0.692,0.384,0.881
		c0.522,0.355,0.673,0.858,0.782,1.431c0.051,0.269,0.257,0.513,0.621,0.426c0.496-0.12,0.925-0.175,1.406,0.218
		c0.264,0.216,0.823,0.079,1.249,0.085c0.428,0.005,0.777,0.174,0.851,0.599c0.165,0.95,0.895,1.404,1.576,1.904
		c0.47,0.345,0.665,0.274,0.792-0.247c0.067-0.275,0.119-0.554,0.185-0.829c0.112-0.47,0.266-0.64,0.633-0.515
		c0.631,0.215,1.183,0.223,1.71-0.243c0.185-0.163,0.466-0.18,0.659-0.004c0.949,0.867,2.093,1.237,3.339,1.389
		c0.379,0.046,0.742,0.19,0.971,0.531c0.321,0.478,0.716,0.739,1.322,0.569c0.109-0.03,0.311,0.042,0.379,0.134
		c0.597,0.813,1.738,0.933,2.278,1.81c0.451,0.152,0.637,0.529,0.81,0.93c0.144,0.336,0.19,0.731,0.634,0.88
		c0.404,0.136,0.807,0.395,1.226,0.278c0.804-0.225,1.727,0.096,2.441-0.563c0.152-0.14,0.447-0.122,0.675-0.18
		c0.505-0.13,1.02-0.237,1.417-0.614c0.218-0.206,0.504-0.246,0.774-0.33c0.513-0.159,1.02-0.148,1.543-0.043
		c0.562,0.113,0.568,0.094,0.851-0.424c0.068-0.124,0.1-0.268,0.174-0.387c0.28-0.444,0.611-0.601,1.08-0.375
		c0.49,0.237,0.981,0.439,1.492,0.238c0.593-0.233,1.163-0.134,1.635,0.15c0.554,0.334,0.882,0.434,1.144-0.282
		c0.073-0.201,0.397-0.21,0.634-0.251c0.596-0.106,1.158-0.238,1.7-0.593c0.844-0.553,1.272-0.433,1.96,0.274
		c0.064,0.066,0.121,0.153,0.146,0.24c0.183,0.651,0.702,0.608,1.147,0.463c0.708-0.231,1.366-0.596,2.157-0.526
		c0.312,0.028,0.489-0.272,0.619-0.522c0.31-0.595,0.835-0.776,1.432-0.686c0.684,0.103,1.304-0.11,1.948-0.234
		c0.299-0.057,0.538-0.161,0.694-0.426c0.376-0.64,0.986-1.174,0.876-2.033c-0.033-0.257,0.177-0.424,0.36-0.578
		c0.664-0.56,0.663-0.559,0.165-1.107c-0.251-0.277-0.59-0.486-0.709-0.947c0.399-0.376,0.598-0.913,0.732-1.46
		c0.101-0.41,0.152-0.927-0.308-1.139c-0.528-0.243-0.648-0.619-0.645-1.123c0.001-0.236-0.027-0.473-0.046-0.709
		c-0.057-0.693-0.349-1.117-1.111-1.234c-0.779-0.119-1.211-0.681-1.348-1.453c-0.05-0.279-0.087-0.561-0.119-0.843
		c-0.081-0.705,0.074-1,0.752-1.108c0.461-0.073,0.715-0.238,0.995-0.631c0.419-0.589,1.14-0.694,1.776-0.386
		c0.437,0.211,0.823,0.508,1.252-0.002c0.148-0.175,0.238,0.034,0.325,0.114c0.842,0.78,1.767,1.24,2.95,0.837
		c0.163-0.056,0.373,0.063,0.593-0.122c-0.678-0.727-0.56-1.533-0.171-2.36c0.202-0.428,0.368-0.873,0.556-1.307
		c0.169-0.39,0.472-0.568,0.895-0.567c0.901,0.002,1.808-0.07,2.701,0.01c1.11,0.1,1.889-0.224,2.41-1.258
		c0.361-0.718,0.756-1.37,0.286-2.18c-0.166-0.286-0.011-0.534,0.153-0.782c0.372-0.565,1.111-0.723,1.45-1.327
		c0.069-0.122,0.233-0.152,0.382-0.094c0.855,0.331,1.783,0.203,2.654,0.421c0.593,0.148,1.107,0.125,1.5-0.44
		c0.215-0.31,0.525-0.356,0.874-0.154c0.641,0.372,1.231,0.403,1.771-0.23c0.124-0.145,0.439-0.168,0.668-0.173
		c0.771-0.019,1.479-0.321,2.224-0.448c0.437-0.074,0.687-0.319,0.747-0.733c0.052-0.36,0.185-0.608,0.54-0.753
		c0.571-0.233,0.915-0.652,0.933-1.299c0.006-0.202,0.107-0.337,0.314-0.411c0.967-0.35,1.909-0.569,2.767,0.266
		c0.247,0.241,0.577,0.317,0.921,0.307c0.281-0.008,0.563-0.075,0.84,0.051c0.285,0.13,0.37-0.031,0.505-0.278
		c0.686-1.255,1.252-1.454,2.518-0.887c0.591,0.264,1.278,0.433,1.51,1.179c0.023,0.074,0.128,0.167,0.203,0.174
		c0.833,0.084,0.954,0.779,1.262,1.365c0.701,1.334,1.858,2.2,3.25,2.686c0.439,0.153,0.766,0.287,0.97,0.699
		c0.147,0.296,0.305,0.588,0.487,0.864c0.13,0.197,0.319,0.382,0.576,0.353c0.314-0.036,0.271-0.328,0.312-0.548
		c0.041-0.22-0.026-0.479,0.259-0.602c0.635-0.275,1.243-0.665,1.906-0.81c0.568-0.124,1.074-0.306,1.552-0.608
		c0.444-0.28,1.021-0.318,1.344-0.052c0.451,0.372,1.089,0.248,1.477,0.766c0.257,0.342,0.77,0.28,1.191,0.126
		c0.146-0.054,0.255-0.179,0.166-0.316c-0.158-0.241-0.309-0.482-0.312-0.772c-0.001-0.127,0.053-0.335,0.137-0.369
		c0.432-0.171,0.877-0.385,1.327-0.409c0.276-0.015,0.653,0.221,0.833,0.459c0.24,0.316,0.471,0.409,0.836,0.357
		c0.871-0.123,1.729-0.301,2.629-0.09c0.536,0.126,0.707-0.234,0.44-0.783c-0.041-0.085-0.11-0.158-0.141-0.245
		c-0.224-0.626-0.596-1.182-0.869-1.778c-0.3-0.654-1.012-0.977-1.214-1.684c-0.033-0.115-0.191-0.266-0.301-0.275
		c-0.636-0.052-0.874-0.455-1.022-1.007c-0.057-0.215-0.207-0.461-0.389-0.579c-0.695-0.453-1.106-1.143-1.616-1.759
		c-0.355-0.429-0.724-0.892-1.259-1.13c-0.634-0.281-0.592-1.17-1.282-1.4c-0.05-0.017-0.096-0.18-0.075-0.257
		c0.166-0.612-0.02-1.364,0.685-1.766c0.358-0.204,0.174-0.448,0.087-0.722c-0.171-0.536-0.157-0.579-0.713-0.46
		c-0.326,0.069-0.543,0.041-0.716-0.248c-0.193-0.324-0.496-0.621-0.568-0.968c-0.077-0.374,0.098-0.783-0.102-1.182
		c-0.047-0.093,0.273-0.377,0.225-0.462c-0.124-0.222-0.352-0.391-0.551-0.566c-0.178-0.157-0.342-0.045-0.504,0.054
		c-0.12,0.074-0.239,0.16-0.371,0.197c-0.345,0.096-0.691-0.131-0.724-0.478c-0.017-0.184,0.052-0.378,0.027-0.56
		c-0.053-0.39-0.294-0.605-0.696-0.474c-0.432,0.141-0.725,0.056-1.022-0.233c-0.097-0.095-0.248-0.171-0.338-0.001
		c-0.218,0.408-0.507,0.332-0.833,0.163c-0.242-0.125-0.428-0.041-0.623,0.15c-0.188,0.184-0.168,0.579-0.628,0.561
		c-0.208-0.173-0.456-0.387-0.713-0.59c-0.104-0.082-0.205-0.186-0.37-0.084c-0.156,0.097-0.347,0.205-0.488-0.014
		c-0.126-0.196-0.26-0.404-0.313-0.626c-0.069-0.288-0.02-0.594,0.335-0.676c0.564-0.129,0.712-0.514,0.782-1.03
		c0.05-0.367,0.209-0.727,0.36-1.072c0.211-0.482,0.596-0.715,1.132-0.69c0.328,0.015,0.719,0.133,0.972-0.001
		c0.714-0.379,1.442-0.219,2.201-0.137c-0.05-0.258-0.091-0.435-0.118-0.615c-0.097-0.657-0.202-1.315,0.012-1.97
		c0.061-0.185,0.17-0.419,0.359-0.386c0.682,0.116,1.06-0.538,1.68-0.604c0.42-0.045,0.456-0.194,0.304-0.703
		c-0.328-1.096,0.312-1.727,1.269-1.584c0.233,0.035,0.461,0.126,0.693,0.139c1.084,0.058,2.168,0.109,3.253,0.138
		c0.289,0.008,0.406-0.21,0.349-0.481c-0.124-0.598-0.415-1.202-0.142-1.803c0.196-0.433,0.161-0.799,0.025-1.225
		c-0.143-0.448-0.212-0.922-0.29-1.388c-0.046-0.279-0.11-0.617,0.1-0.82c0.402-0.389,0.33-0.87,0.337-1.325
		c0.021-1.355,0.271-2.722-0.207-4.059c-0.092-0.257-0.043-0.564-0.065-0.848c-0.062-0.776,0.011-1.504,0.556-2.136
		c0.175-0.203,0.254-0.505,0.331-0.775c0.234-0.817,0.348-1.665,0.736-2.441c0.142-0.284,0.166-0.644,0.01-0.966
		c-0.127-0.262-0.42-0.17-0.617-0.282c-0.403-0.228-0.406-0.529-0.084-0.876c0.526-0.568,1.225-0.677,1.925-0.775
		c0.3-0.043,0.565-0.116,0.733-0.365c0.37-0.548,0.791-1.086,0.941-1.738c0.172-0.745,0.535-1.428,0.702-2.154
		c0.288-1.257,1.059-2.074,2.049-2.781c0.378-0.27,0.718-0.394,1.173-0.171c0.395,0.194,0.839,0.129,1.258,0.035
		c0.504-0.113,0.999-0.272,1.503-0.389c1.475-0.34,2.909-0.434,4.148,0.688c0.167,0.152,0.407,0.315,0.612,0.314
		c0.547-0.002,0.83,0.397,1.24,0.718c0.292-0.794,0.783-1.439,1.463-1.846c0.605-0.362,0.996-0.861,1.351-1.423
		c0.455-0.721,0.839-1.478,1.219-2.242C196.02,66.951,195.988,66.236,195.43,65.439z"/>
</g>
</svg>
