<?xml version="1.0" encoding="utf-8"?>
<!-- Generator: Adobe Illustrator 26.0.3, SVG Export Plug-In . SVG Version: 6.00 Build 0)  -->
<svg version="1.1" xmlns="http://www.w3.org/2000/svg" xmlns:xlink="http://www.w3.org/1999/xlink" x="0px" y="0px"
	 viewBox="0 0 200 200" enable-background="new 0 0 200 200" xml:space="preserve">
<g id="Isolation_Mode">
	<path fill="#1E8346" d="M105.61,135.224c0.281-0.306,0.466-0.735,0.739-1.04c0.416-0.464,1.018-0.632,1.496-1.024
		c0.764-0.626,1.084-1.933,2.041-2.208c1.191-0.343,2.682,0.36,3.926,0.074c0.982-0.226,0.87-1.065,1.327-1.947
		c0.474-0.914,1.32-1.602,1.526-2.578c0.137-0.649,0.117-1.315,0.238-1.971c0.292-1.585-0.251-3.621,0.39-5.091
		c0.25-0.574,0.779-1.11,1.19-1.579c0.57-0.649,1.138-1.484,1.81-2.026c1.258-1.013,3.235-0.868,4.767-0.8
		c1.792,0.08,3.583,0.254,5.334,0.687c1.103,0.273,2.242,0.87,3.209,1.471c0.862,0.536,1.315,1.288,2.396,1.316
		c0.892,0.024,1.468-0.268,1.696-1.093c0.112-0.406,0.003-0.664,0.194-0.997c0.24-0.418,0.971-0.935,1.406-1.176
		c1.292-0.718,2.902-0.476,4.316-0.476c0.871,0,1.797-0.094,2.66,0.02c1.419,0.187,2.818,0.569,4.064,1.262
		c0.721,0.401,1.976,1.437,2.808,1.317c-0.117-0.362,0.162-0.653,0.122-1.042c-0.259-2.539-2.383-6.029-4.22-7.814
		c-3.843-3.733-7.901-7.779-10.269-12.759c-0.976-2.05-1.221-5.024-0.354-7.24c0.394-1.006,1.295-1.801,1.815-2.676
		c0.678-1.141,1.786-2.741,2.376-3.888c0.706-1.374,2.071-0.979,3.343-0.866c1.817,0.162,4.179,0.724,5.609-0.596
		c1.23-1.135,0.516-2.117,1.042-3.536c0.596-1.607,2.341-3.292,3.454-4.579c1.206-1.394,2.609-1.664,4.07-2.694
		c1.139-0.803,2.204-1.293,3.484-1.851c1.519-0.662,2.843-1.48,4.392-2.076c1.107-0.426,2.222-0.917,3.08-1.756
		c1.441-1.41,2.363-2.755,4.112-3.819c1.469-0.893,3.16-1.277,4.312-2.694c0.492-0.605,0.246-1.328,0.663-2.027
		c0.313-0.526,0.878-1.077,1.303-1.555c1.455-1.637,3.793-2.028,5.57-3.218c1.716-1.15,3.972-0.365,5.583-1.894
		c0.628-0.596,0.765-1.385,0.979-2.182c0.297-1.106,0.886-2.063,0.801-3.253c-1.092,0.347-2.197,0.358-3.227,0.907
		c-0.914,0.487-1.75,1.147-2.53,1.805c-0.768-1.994-1.363,0.579-1.983,1.044c-0.434,0.325-2.609,0.821-2.954,0.736
		c-0.517-0.127-0.263-0.643-0.983-0.45c-0.899,0.241-1.909,1.511-2.785,1.919c-0.878,0.409-1.553,0.266-2.521,0.251
		c-2.326-0.036-2.253,1.443-3.339,2.982c-0.695,0.985-1.853,1.32-2.799,1.977c-0.605,0.42-1.173,0.998-1.938,1.144
		c-0.473,0.09-1.005-0.088-1.482-0.011c-1.118,0.182-1.795,1.311-2.899,1.594c-0.769,0.198-1.955,0.184-2.751,0.065
		c-0.753-0.112-0.571-0.328-1.195,0.082c-0.462,0.304-0.869,1.082-1.152,1.547c-0.708,1.162-1.6,2.187-2.805,2.894
		c-1.048,0.615-2.175,0.939-3.274,1.459c-1.218,0.576-2.267,1.453-3.373,2.199c-3.805,2.567-8.325,3.299-12.54,4.697
		c-1.564,0.518-2.998,1.488-4.685,1.483c-1.82-0.006-4.114-0.586-5.73,0.174c-2.069,0.974-3.873,2.292-5.861,3.399
		c-0.809,0.451-1.596,0.899-2.39,1.39c-1.568,0.969-3.627,0.131-5.349,0.76c-1.458,0.532-2.569,1.052-4.164,1.133
		c-1.521,0.078-2.708,0.257-4.085,0.826c-1.064,0.44-1.908,0.142-3.053,0.238c-0.956,0.081-1.82,0.264-2.797,0.263
		c-1.864-0.001-3.91,0.05-5.705-0.331c-1.208-0.256-2.434-0.334-3.627-0.694c-0.923-0.279-1.803-0.136-2.739-0.296
		c-0.388-0.066-0.886-0.453-1.28-0.413c-0.312,0.031-0.436,0.388-0.762,0.441c-0.471,0.077-1.194-0.26-1.667-0.363
		c-0.763-0.167-1.094-0.662-1.7-0.869c-0.4-0.137-1.117-0.007-1.516,0.087c-2.081,0.488-4.58,0.31-6.247-1.234
		c-0.378,0.484-0.773,1.337-1.384,1.568c-0.866,0.328-2.208-0.047-3.042-0.335c-0.748-0.258-1.423-0.816-2.13-1.046
		c-0.738-0.241-1.624,0.146-2.412-0.046c-1.396-0.34-2.483-1.503-3.858-1.974c-0.844-0.289-2.21-1.716-3.061-1.533
		c-0.136,1.139,0.129,2.318,0.142,3.495c0.005,0.404-0.084,1.054,0.088,1.416c0.179,0.378,0.655,0.489,0.852,0.925
		c0.399,0.884,0.218,2.526,0.274,3.486c0.062,1.058,0.17,2.153,0.096,3.224c-0.134,1.946-0.695,3.832-1.419,5.622
		c-0.485,1.198-0.871,2.563-1.461,3.667c-0.465,0.871-2.073,2.578-3.132,2.614c-0.444,0.481-1.116,0.646-1.663,1.008
		c-0.558,0.37-1.2,0.407-1.867,0.156c-0.728-0.274-1.304-0.189-1.925-0.748c-0.267-0.241-0.478-0.516-0.811-0.703
		c-0.403-0.225-0.868-0.287-1.273-0.51c-0.255-0.141-0.499-0.315-0.786-0.437c-0.377-0.159-0.759-0.105-1.135-0.235
		c-0.489-0.169-0.6-0.627-1.116-0.794c-0.402-0.131-0.755-0.35-1.142-0.437c-0.729-0.165-1.552-0.025-2.297-0.13
		c-0.617-0.088-1.043-0.216-1.568-0.562c-0.364-0.239-0.614-0.532-1.068-0.569c-0.654-0.053-1.345,0.424-1.937,0.609
		c-0.274-0.252-0.855-0.263-1.128-0.025c-0.294,0.257-0.354,0.794-0.692,1.058c-0.362,0.282-0.664,0.127-1.097,0.184
		c-0.466,0.061-0.765,0.321-1.158,0.582c-0.449,0.297-0.645,0.234-1.19,0.135c-0.673-0.122-1.585-0.833-1.915,0.066
		c-0.204,0.556-0.334,1.092-0.704,1.593c-0.443,0.601-1.112,0.993-1.543,1.61c-0.948,1.357-1.4,2.869-2.208,4.293
		c-0.354,0.624-0.764,1.197-1.271,1.69c-0.759,0.736-1.334,1.604-2.107,2.323c-0.72,0.67-1.405,1.396-2.426,1.466
		c-0.513,0.035-1.064-0.001-1.563-0.105c-0.77-0.162-1.561-0.03-2.342-0.165c-0.687-0.119-1.076-0.459-1.586-0.896
		c-0.766-0.659-1.367-1.203-2.288-1.631c-0.879-0.409-1.321-1.1-1.685-1.975c-0.134-0.322-0.194-0.555-0.401-0.83
		c-0.202-0.269-0.533-0.466-0.687-0.753c-0.818-0.022-1.019-0.062-1.286,0.762c-0.204,0.628-0.427,1.329-0.545,1.985
		c-0.277,1.543-0.106,3.191,0.74,4.529c0.818,1.294,2.368,2.146,2.638,3.735c0.118,0.693,0.182,1.887,0.02,2.569
		c-0.139,0.582-0.844,0.934-0.787,1.505c0.051,0.511,0.369,0.287,0.53,0.557c0.235,0.392,0.412,0.838,0.629,1.246
		c0.366,0.689,0.845,1.292,0.632,2.134c-0.231,0.91-0.923,1.194-0.399,2.083c0.215,0.365,0.648,0.607,0.879,0.961
		c0.297,0.454,0.432,0.998,0.748,1.444c1.241,1.753,3.9,1.596,4.383,4.04c0.498,2.517,0.441,5.79,2.416,7.776
		c0.938,0.943,2.281,1.091,3.151,2.121c1.139,1.346,2.167,1.825,3.854,2.139c2.81,0.523,5.226,2.107,7.555,3.552
		c1.078,0.669,1.552,1.291,2.785,1.654c1.012,0.298,2.136,0.258,3.134,0.588c1.093,0.362,1.783,0.932,3.047,0.807
		c0.986-0.097,1.398-0.892,2.438-0.786c1.471,0.15,2.915-0.761,4.331-1.119c1.48-0.374,2.87-0.45,4.12-0.634
		c0.78-0.114,1.024-0.587,1.885-0.28c0.67,0.239,1.092,0.787,1.568,1.287c1.103,1.16,2.432,2.065,2.971,3.529
		c0.474,1.288,1.498,3.308,1.273,4.69c0.757,0.031,1.562-0.169,2.273-0.119c0.831,0.059,1.324,0.549,2.075,0.76
		c0.777,0.218,3.146,0.922,3.49,0c0.324-0.868-2.202-3.089-2.352-4.385c-0.192-1.652,0.38-2.863,1.235-4.214
		c0.864-1.366,2.464-2.419,3.845-3.209c1.114-0.638,2.345-0.683,3.523-1.084c1.206-0.411,2.162-1.048,3.459-1.256
		c1.378-0.222,2.282,0.519,3.612,0.698c1.397,0.187,3.372,0.111,4.741-0.246c1.032-0.269,1.346-0.95,2.267-1.388
		c1.064-0.506,1.493,0.062,2.354,0.071c1.268,0.013,1.972-1.086,3.289-1.285c1.742-0.263,2.53-1.235,4.114-1.964
		C100.105,136.879,103.441,135.238,105.61,135.224z"/>
</g>
<g id="Layer_1">
</g>
</svg>
