<?xml version="1.0" encoding="UTF-8"?>
<svg baseProfile="full" version="1.1" viewBox="0 0 24210 24577" xmlns="http://www.w3.org/2000/svg">
<defs>
<style type="text/css">polyline,line,rect,path,polygon,.polygon{fill:none;stroke:#000;stroke-width:1px;stroke-linejoin:round;}.country {
    fill: grey;
    opacity: 0.40;
    stroke: black;
    stroke-opacity: 0.5;
}
.federal_state {
    fill: red;
    stroke: black;
    stroke-opacity: 0.5;

}</style>
</defs>
<g transform="scale(1 -1) translate(12035 -672021)" fill_rule="evenodd">
<g class="NAME">
<path class="polygon federal_state" d="m5835.9 671292-42.264-21.869-5.1822-164.76 82.908-1.6671-45.342-122.66 243.99-169.48 38.988-83.232-85.697-80.776 38.851-83.067-82.711-39.588 38.095-82.867 80.95-43.049 168.51 79.526 2.3025 42.148 376.32 32.064 40.455-41.939 252.15-6.1458 36.563-165.27 40.72-42.162 340.55 116.63 2.6904 81.392 90.248 162.52 81.985-42.878 44.187 40.777 288.22-211.4 167.62-1.9817 131.58 160.34 39.573-82.802 42.147-0.72187 39.581-82.795-44.747-81.358 39.605-82.795-7.6628-246.23-47.396-163.56-179.13-325.8-129.18-79.967-89.615-162.85-215.58-160.59-176.1-201.96-89.887-162.67-4.1312-123.14 169.02-3.6378 129.37 79.812 168.89-3.7047 124.03-83.694 2.093 41.047 83.671-1.3329 81.967-83.585 297.3 37.056 85.92 40.098-36.363 165.79 256.78 120.73 2.5908 82.246 87.644 81.753 3.0296 121.66 210.86-0.81458 2.0218 41.435 83.452-0.51165 1.2978 40.998 124.76-41.233 3.9494 122.32 127.11 42.534 2.0544 40.122 110.45-87.432-37.592-160.68 72.794-249.72-4.5539-120.12 139.34-12.18 35.341-165.48-11.199-57.035-49.078-5.0566 4.6028-49.84-49.771-5.1081 10.615-97.954-50.449-6.7732 5.0668-49.874-84.694-159.57-49.755-5.3868 9.9301-99.328-190.12-112.74-23.248-261.26-50.413-5.3297 24.884-248.96 50.264 5.4563 59.393-94.646 15.105-149.16-49.683-5.4524 16.705-234.17-86.778-74.931 37.115-129.93-17.257-69.276-49.782-5.1033 14.857-149.42-49.402-5.0498 10.069-100.3-89.825-80.478-39.2-133.19-189.22-120.31 4.4363-50.185-94.737-59.703 4.8679-48.692-99.417-11.371-39.822-104.72-49.765-5.1651 4.9723-49.795-98.313-22.563 3.7371-37.463-139.4-114.44-211.61-46.746-175.4-124.51-83.446-117.03-146.6-77.819 104.79-905.89-219.68-277.44-6.5487-163.32 56.644-18.39 9.9453-99.601 49.765 5.1538 4.9758-49.8 122.35 30.385 31.895-64.776 149.28 15.413 4.9629-49.797 199.05 20.496 59.692-94.464 49.761 5.1321 9.5314-95.563 159.62-88.224 9.9394-99.585 49.762 5.1126 65.191-93.902 307.94-119.2 59.681-94.464 99.515 10.243 119.37-188.97 88.75-41.156 70.197-144.1 114.64-38.123 9.9266-99.61 153.82-199.74-2.6355-82.364 236.79-80.442 14.883-149.43 49.746 5.124 9.9124-99.602 99.504 10.223 166.18-154.57 261.59-103.33 59.672-94.493 99.502 10.213 4.9556-49.816 49.764 5.115 4.9356-49.816 213.88-128.97 18.513-186.08 51.05-8.0305 4.9477-49.813 154.21-34.478 4.944-49.77-49.749-5.1171 9.9016-99.624-139.35-114.95 9.897-99.626-49.737-5.0989 14.848-149.4-49.752-5.1378 4.9484-49.813 49.744 5.138 19.802-199.25 104.45-39.56 37.436-88.857-22.6-60.579-49.732-5.1085 9.88-99.624-107.91-31.914-2.3271-167.99-81.567-42.303-1.216-83.952-81.612-41.823-41.689-83.731-204.23-81.75-3.9331-292.86-83.603-166.1 124.91-214.51 35.126 2.0267-30.182-51.842 24.732-249.03 56.941-67.416 17.106-172.4 50.162 0.95845 76.539-178.79 42.718-10.229 9.9008-99.625-95.371-57.353-1.0273-84.115 170.85-102.51 4.9475-49.812 203.9-29.371 4.9365-49.81 105.97-49.732 293.5-33.401 34.235-123.62 71.931-81.008-4.4158-207.65-37.75-42.615-1.7482-83.16-112.29-86.415-1.7693-83.159 142.11-244.85-152.72-253.93-4.4385-207.85 35.118-82.008-37.716-42.687 34.166-123.5 107.94-121.15 183.69-35.829 108.19-121.16 34.37-123.47 36.995 1.1026-76.574-127.03-2.6464-124.49 36.107-40.439-37.886-42.722-1.7171-83.075-37.03-1.2238-2.5818-124.57-75.766-85.47-1.7466-83.075-73.973-2.4244-0.79161-41.535 36.833 1.207-4.3717-207.73-74.82-43.953-3.5998-166.23 36.962 1.2059 71.342-122.28-3.5876-166.11-112.75-86.784 34.263-123.49-36.92-1.2033-41.501-209.06-112.32-87.415-1.6208-77.593-78.434-58.385 9.8522-99.659-49.732-5.0832 4.9261-49.851-189.06-120.03 4.9151-49.853-99.46-10.199 9.8576-99.664-139.34-114.93 4.9269-49.854 49.724 5.1265 4.9327-49.854-49.73-5.0845 4.9275-49.812 49.735 5.085 19.712-199.29 253.58-24.345 59.571-94.544 49.738 5.0802 59.096-597.91 49.718 5.0893-39.875-104.79 159.04-84.328 14.768-149.51 49.717 5.1068 145.73-201.48 110.73-37.868-39.083-84.305 74.794 2.4635 34.461-164.86 38.297 1.3448-40.919-125.96 36.72-81.686-3.4218-166.11 36.428-123.21 39.161 1.3699-2.4458-124.57-40.936-84.447-117.73-87.045-78.153-127.09-37.347-1.1802-34.514 123.36-110.73 37.691 31.57-247.86-37.198-1.3351-41.819-209.07-76.199-85.9-251.52 23.089-0.7174-41.83-126.22-77.075-62.836 110.88 3.0008 124.49-111.3 39.823 1.4765 40.869-118.15 5.5688-42.378-79.96-79.132 3.7694-4.5275-122.73-160.49-33.474-1.48-41.079-78.378 44.745-41.492-39.031 1.4981 40.994-363.31-23.511-6.1263-164.36-38.886 43.066-247.97-111.21-118.87 88.82-42.26-39.104 39.006-43.392-42.276-39.019-208.25-112.76-81.169 4.7168 35.419-126.42-40.602 2.2542-44.195-80.623-40.599 2.4735 5.338 124.17-38.71 43.897-200.44 54.115-117.19 91.027-203.22-27.389-236.1 142.72-162.86-29.132-321.78 67.552-1.216-41.531-40.501 3.26-3.7811-124.47 79.189-48.27-40.305 3.3879-1.487-41.662-201.47 16.99-42.848-79.569-5.8339-166.3-40.067 3.5002-43.286-79.695-79.984 7.3589 111.09-178.87-123.82-72.892-193.17 103.96-82.215-35.794 77.752-48.269 71.486-134.6-5.0084-84.751 74.081-92.148-164.97-114.45 39.338-2.9886-4.8653-85.513-39.28 3.0748 34.471-88.502-206.18-156.21-2.4501-42.734 78.643-5.7912-2.4434-42.777-157.37 11 32.188-130.61-78.949 5.1281 29.798-173.14-195.39 54.338 10.622 211.69-122.56 3.5576-335.31-159.95 39.412-42.873-330.51-34.19 3.0104 83.608-83.818-39.979-122.11 44.511-2.9664-83.478-85.272-81.428-82.4 1.8084 1.481 41.739-207.51-37.053-2.8468-83.262-125.02-38.714 4.1468 124.74-82.476 1.9175-2.7281-83.259-125.12-38.706-284.76 130.99-41.303 1.0394-1.3426-41.522-121.29 85.714-43.865-81.946-413.24 9.188-1.2522-41.392-40.056 42.27-36.494 166.45-124.14 2.7466-167.98-79.099-44.992-123.18-37.799 124.87-82.865 1.917-34.507 248.75-165.78 3.5882-245.54 129.03 43.704 81.609-40.399 42.129-1.046-41.26-83.003 1.7901 2.1126 82.434-84.035-39.456-82 42.864-159.74 250.59-125.81-38.66 40.565-42.043-86.224-121.86 39.47-83.22-42.693-40.3-163.06 126.96-126.79-79.747 1.0515 41.172-41.6 0.90098 2.1091 82.345-83.173 1.7271 80.088-125.2-337.87-198.69 38.432-124.32-207.95 4.5969-1.0308-41.256 82.161-42.97-2.1157-82.428-122.69 85.173-248.63 46.627-118.79 249.31 44.713 122.41-124 43.686-2.9737-123.17-82.267 42.851 44.672 122.48 83.232-1.8856 2.0535 82.255 42.616 40.148 2.9822 123.3-82.261 42.793-39.716 83.113 4.9867 205.38 40.689-41.9 85.192 80.463-41.615 0.85135 42.596 40.191 1.9681 82.212 41.585-0.84772 2.04 82.212-40.664 41.932 43.534 81.322-82.219 42.825-80.431 125.05 4.9702 205.46-208.14 4.3776 1.8912 82.21-84.222-39.368-38.692 124.3 129.7 202.78-39.696 83.129-83.221 1.6785-161.68 209.2-41.625 0.81535-1.8551-82.251-83.343 1.8535-43.581-81.255-82.302 42.915 1.9689 82.25-241.08 375.4 802.19 476.29-40.616 42.085-37.863 165.34 42.49 40.248 81.409-83.996 1.8706 82.209-40.679 42.166 124.82-2.6851-37.836 165.32-163.47 126.86 1.8217 82.251 41.57-1.0462 0.91995 41.295-82.184 42.754 42.505 40.373-39.686 83.131 41.545-0.92197 43.509 81.418-38.739 124.29 42.467 40.25-40.583 41.959 43.397 81.418-81.252 84.047-198.44 415.65 2.7928 123.5 40.658-42.105 125.57 38.546 3.7738 164.67-205.86 86.577-43.444-81.391-207.84 4.3467-1.8802-82.249-331.6 48.303-39.633 83.197 84.036 39.312-39.65 83.194 83.154-1.8464-38.705 124.36-167.23-37.361-40.632 41.914-290.97 6.6888 46.425 204.67-166.28 3.7437 42.462 40.256 2.9996 123.37-290.02 47.813-2.9467-123.37-125.7-38.269-82.135 43.056 0.94934 41.164-249.49 5.842 5.9674 246.86-40.607 42.135 2.0099 82.327-209.86-77.292-207.83 4.9948-82.285 43.143 4.0723 164.57-124.77 3.0587 1.9803 82.198-166.35 4.2113-164.26 86.379-39.571 83.378-166.3 4.1232-39.524 83.309-124.79 3.2348-42.558-40.076-45.763-163.56-166.32 4.2636-42.641-40.054 39.538-83.301-540.88 14.108 3.1787 123.35-39.515 83.344-289.24 90.013-40.427 42.211-36.38 206.77-82.168 43.408-41.566 1.0655-86.402-121.16-2.0673-82.191-166.43 4.4971 1.0143 41.032-203.76 170.29-39.455 83.339-208.04 5.6328-40.579 42.329-38.344 124.48-82.182 43.475-120.43 167.98 3.199 123.35-40.514 42.31-83.184 2.3571 1.0777 41.03-123.72 44.698 1.0817 41.072-83.221 2.3497-35.061 248.12-162.05 169.13-38.269 124.54-41.596 1.2427 2.1706 82.186-122.6 85.722 41.595-1.2105 47.106 204.66 80.995-84.632 42.671 40.046 48.147 245.75-41.483 1.1913 0.96676 41.158 126.99 78.79 124.69-3.4488 85.322 80.061-39.368 83.482-122.53 85.668 1.0948 41.115-83.185 2.4086 42.698 39.972-123.7 44.637 1.1674 41.156 43.786 81.208 50.307 328.16 42.632 40.059 45.984 163.53 260.11 404.92-81.96 43.478-79.782 125.85 2.169 82.316 125.68 37.834 2.1353 82.402-83.112 2.2836 45.968 163.55 41.51-1.0757 3.2847 123.56-40.422 42.446-42.647-40.079 1.085 41.031-123.48 44.714 1.0964 41.158 126.77 78.974-39.394 83.485 83.099-2.2464 46.895 204.97 83.051-2.3517 2.1231 82.403-40.389 42.354 82.98-2.2163 3.2471 123.56 43.689 81.385-125.57-37.883-40.434 42.315 2.1416 82.403 42.627 40.131-81.894 43.473-209.75-76.724 2.2546 82.444-41.558 1.0533 1.1021 41.286 42.632 40.063-83.023 2.2786 4.3855 164.85-163.77 87.042-42.637-40.042 40.414-42.402-84.106-38.923 38.186-124.81-42.591-40.039-81.909 43.493-1.1191-41.158-84.103-38.894 1.1336 41.243-84.167-38.879-79.664 125.94-41.539 1.1516 2.2227 82.4 127.88 120.2 2.215 82.529-123.39 44.642-169.34-118.96 3.3542 123.56 42.613 40.12 45.989 163.68 171.55 201.56-40.408 42.39 8.8924 329.9-41.444 1.1491 5.5889 206.22 205.09-88.283 43.687 81.314 208.45 35.47-41.502 1.1142 3.3433 123.82 41.413-1.2404 2.2173 82.574-40.296 42.357 2.1457 82.532 44.79 122.58-40.353 42.4 2.2218 82.532-41.433 1.2011 43.654 81.331-82.866 2.3206-39.269 83.656 43.667 81.409-122.1 85.996 43.679 81.402-84.011-39.024 45.917 163.97 41.386-1.2564 86.214 121.49-40.341 42.495 2.2578 82.533-41.456 1.2108-39.198 83.662 1.1969 41.287 82.802-2.3388-40.31 42.498 2.1669 82.534 82.852-2.3319 4.4469 165.15 123.14-44.801 43.601 81.343-40.299 42.693 82.804-2.3804 4.4491 164.94-41.368 1.3152-39.201 83.769-33.643 290.22-40.324 42.445 3.335 123.95-121.93 86.065-2.2458-82.62-39.16 83.747-41.412 1.1308-38.079 125.13-41.389 1.1374-87.274-162.91-376.11-113.44 86.321 121.68-79.504 126.26 4.5596 165.28-87.347-162.96-81.663 43.75-125.37-37.61 3.3059 123.82-83.89-38.876 1.1256 41.245-248.49 7.2805-40.221 42.477-125.44-37.567-2.279-82.659-208.28-35.185-285.41 173.95-207.15 6.3131-242.87 214.24-166.96-36.29-120.86 127.9 2.3474 82.656 169.29 118.91 4.6505 165.4-123.16 45.27 1.1398 41.287-290.19 9.0946-77.106 209.39-203.77 130.67-252.38-116.17-124.48 3.8904-39.118 84.299 7.0043 248.14-291.7-31.89-80.683 85.452 2.3599 82.741 129.14 161.49-80.659 85.53-292.95-73.274-163.82 88.335-79.582 127.04-251.6-74.52-405.42 386.8-210.3-75.63-166.39 5.7707-1.1215-41.499-127.12-78.439-252.01-73.953-122.59 87.269-38.25 125.76-203.65 173.29-120.44 170.28 5.6301 207.24 289.36-93.532 1.0916 41.373 165.46-47.475 167.7 35.497 205.73-90.203 42.696 39.985-39.264 84.258 5.6745 207.24 83.196-2.984-1.1164-41.458 417.12 27.049 40.452-42.929-2.2748-82.872 166.32-5.5963 39.29-84.283 209.02 34.369 129.22 161.46-38.168 125.76 129.25 161.48 41.508-1.3703-79.626 126.99 42.662 40.127-83.128 2.7533 43.805 81.369-39.24 84.379 43.806 81.497-81.993 44.261 85.388 79.988 166.2-5.5185 299.8 321.94 164.99-47.073 42.604 40.056 248.97-8.0537 81.944-44.217 39.173-84.164 82.968-2.8184-4.565-165.75 82.996-2.5501 210.7 117.6 373.05-11.937 43.729 81.405-120.91 128.39-82.951 2.7178-39.139 84.2 454.65-55.924 2.2869 82.88 169.09 119.15 3.3611 124.34 371.44-53.032-1.1467-41.377 85.018 80.332 88.414 204.65 164.28-46.49 43.669 81.762 125.19 37.699 5.641 207.28-37.942 125.59 252.51 158.49-34.558 250.22 206.69-6.2258-6.744-248.87 205.47-47.772 2.2158 83.015 164.08-46.387 2.3199 82.972 126.18 79.224-2.2908-82.888 78.185-168.39 124.99 37.854 42.412 40.283-41.274 1.2247 43.536 81.749 248.82 34.235 36.859-167.07 161.82-129.25-2.2416-82.89 331.29 31.936 324.59-216.64 246.46-48.425 39.105-83.997-45.576-164.55 123.71-3.4743 121.61-86.335-3.3112-124.27 79.247-126.57 289.86 33.49 1.0995 41.382 81.385-43.739 2.1029 82.893 207.3 35.767 489.4-220.46 167.03 78.253 1.0634 41.512 247.32-6.6238-1.0608-41.427 81.364-43.621-41.241 1.1591-43.294-81.819-2.1092-82.642 40.14-42.505 328.72-49.967-1.03-41.385 248.26 34.948-46.379-205.85-84.49-80.574 163.79-45.636-2.0769-82.77 123.67-3.1843 209.13 118.84-1.048-41.301 41.25-1.0792 208.08 77.515 38.11-125.13 161.82-128.14 0.92055 41.259 41.262-0.9558 1.9932 82.688 82.416-1.9855 84.45 80.548 123.58-3.0151-2.0261-82.689 81.386-43.323 1.9932 82.647-40.193 42.311 248.17 35.261 39.195-83.678-252.2-200.62 165.78 37.259-1.9727-82.647 80.304-84.712 292.43 158.35-39.214 83.782 83.418 39.296 85.361 122 206.92 36.468 84.31 80.666 2.0262 82.694 81.364-43.319 42.163 40.346 5.9726 248.09 83.393 39.187 81.335-43.156 43.18 81.756 83.293 39.35 124.53 38.441 81.339-43.312 0.96509 41.179 156.74-334.3 163.74-45.138 1.0588 41.392 83.225 39.328-40.139 42.147 42.127 40.553 45.11 164.27 2.3897 125.62 167.93 78.723-0.15335 40.073 168.89 120.9 286.92-48.299 124.34 38.646 116.04-292.53 41.465-0.07691-2.2938-82.876 125.15 38.722 45.689 205.38 85.06 79.962 43.234 123.2 82.665-2.2159 0.95175 42.797-80.695 43.024 42.9 81.044 122.75-3.272-2.1322-82.158 164.68-3.7704 126.31 121.08-38.958 43.882 84.604 120.81-38.313 124.33 39.1-83.401 124.21-1.998-37.398 166.82 2.2468 82.205 41.48-1.7367 2.7566 124.32-82.531 1.4416 45.517 163.82 121.88-43.849 86.631 163.38 5.0764 166.2-41.404-0.27386 2.2114 82.166 249.5 118.97 40.112-42.212 1.0562 41.317 82.482-1.7782 1.8724 42.938 121.33-43.8 87.853 163.12-79.283 82.774 81.016-2.6031 2.0769 84.929-41.358-0.36358 43.071 82.573 81.503-43.427 42.219 40.46-38.899 41.764 380.87 321.5 0.44844 42.037 249.07 36.348 38.829-83.195 166.05-3.4212-1.9458-41.034 168.11 79.408 172.13 202.98-122.97 43.567-42.77-40.346-78.529 126-81.466 43.27-36.192 164.69 92.806 327.94 82.895-1.2948-5.2977-165.22 159.26-209.35-43.092-80.736 207.21-3.6806 202.16-147.37zm-2574.6-9216.5-125.28-80.401-42.909-81.722 162.99-85.398-42.02-40.429-124.46-39.086 0.89418 41.303-41.217 0.84472-84.1-81.074-1.7983-82.435-122.72 43.412 0.91542 41.302-42.136-40.394-80.676 83.964-43.775-122.94-83.33-39.623-85.077-122.17-370.25 48.452 1.7381 82.431-40.329 42.098-37.661 165.75 42.132 40.457-164.97 3.1807-4.4574-206.03-123.83 2.4124 37.652-165.77-287.91 47.085-88.092-245.63-41.255 0.76906 38.583-124.5 81.641-42.912-83.495-39.516-0.89105-41.299-286.38 129.74-82.587 1.718-43.116-81.541-124.81-38.662-1.9445-82.426 124.89 38.62 37.579-165.78-42.219-40.369-2.7821-123.72-123.04 44.02-3.701-164.98-87.361-204.43 39.511-83.286 166.29 37.714-0.93559-41.297 163.45-85.826-382.28-445.61-4.6885-206.06 79.956-125.44-127.85-162.21-125.05-38.587 38.544-124.43 328.23-130.71-43.199-81.529 84.586 80.724 164.48-44.694 0.98261 41.17-82.697 1.7979 0.93093 41.169 419.08 238.81 165.36-3.3555 37.742-165.64 123.13-43.599 210.21 160.72 78.191-207.62 210.15 160.97-0.82583-41.299 203.04-168.61-0.88795-41.172 123.91-2.3489-2.5879-123.6 247.79-4.4787 1.7596 82.431 41.258-0.7273-76.537 289.92 332.75 117.65 78.269-207.52-1.6825-82.432 372.89 75.955-2.5317-123.61 206.14-3.5454 207.72 78.891-2.4407-123.74 81.582-42.476-1.6246-82.351 166.34 79.662 81.619-42.52-1.6474-82.479 41.138-0.64666-0.7749-41.26-84.017-80.971-2.3619-123.65 39.585-83.086 82.331-1.3334 86.409 204.6 1.5435 82.437 125.11 80.423 40.365-41.884 84.679 122.3-41.195 0.74217-39.55 83.057 167.68 162.3 123.34-1.9736 42.707 81.888-80.67 83.716 1.6106 82.482 82.969 39.901 3.1258 164.92 122.43-43.108-38.704 124.29-205.4 3.137-79.022 166.17-122.47 43.103 80.607-83.67-1.6345-82.44-81.373 42.451 1.5826 82.482-82.254 1.3285-120.91 125.59-0.82788-41.177-41.119 0.59474 0.78481 41.304-122.54 43.151-125.1-80.433-0.80687-41.176-82.288 1.2834 1.6068 82.479 126.76 162.85-41.179 0.65684 2.461 123.61 85.508 163.52 125.05 80.586 0.83843 41.177-122.61 43.157-124.17-39.123-79.041 166.21-163.7 43.918 2.4471 123.61-39.471 83.248-82.306 1.2485 1.6458 82.437-120.95 125.79-204.14 85.901-83.261-39.733-78.951 166.2 1.7307 82.564 171.46 326.89-284.73 169.81 43.739 123-82.315 1.4389 1.7451 82.607z" fill="red" stroke="#000" stroke-linejoin="round" stroke-opacity=".5" stroke-width="1px" fill_rule="evenodd"/>
</g>
</g>
</svg>
