<?xml version="1.0" encoding="UTF-8"?>
<svg baseProfile="full" version="1.1" viewBox="0 0 4622.2 3784.8" xmlns="http://www.w3.org/2000/svg">
<defs>
<style type="text/css">polyline,line,rect,path,polygon,.polygon{fill:none;stroke:#000;stroke-width:1px;stroke-linejoin:round;}.country {
    fill: grey;
    opacity: 0.40;
    stroke: black;
    stroke-opacity: 0.5;
}
.federal_state {
    fill: red;
    stroke: black;
    stroke-opacity: 0.5;

}</style>
</defs>
<g transform="scale(1 -1) translate(-625.08 -662402)" fill_rule="evenodd">
<g class="NAME">
<polygon class="federal_state" points="1096.5 661473 1220.5 661471 1465.5 661342 1466.4 661383 1549.9 661423 1468.3 661465 1429.7 661590 1470.9 661589 1559 661835 1847 661788 1809.4 661954 1933.2 661951 1937.7 662157 2102.7 662154 2060.5 662114 2098.2 661948 2138.5 661906 2136.8 661823 2507.1 661775 2592.2 661897 2675.5 661937 2719.3 662060 2800 661976 2842.2 662016 2841.2 661975 2964 661931 2965.8 662014 3049.9 662095 3091.1 662094 3090.2 662053 3214.7 662092 3256.7 662132 3093.7 662218 3136.6 662299 3261.9 662380 3260.2 662297 3342.5 662296 3298.8 662173 3583.5 662003 3412.1 661676 3410.3 661593 3489.3 661427 3572.6 661467 3776.8 661381 3897.7 661255 3896.1 661173 3978.4 661171 4017.9 661088 4015.4 660965 4179.2 660921 4258.2 660754 4382.4 660793 4505 660750 4504.2 660709 4379.1 660629 4293.6 660465 4291.1 660341 4332.3 660341 4205.5 660178 4203.9 660095 4286.2 660094 4287 660135 4412.2 660216 4534.7 660172 4534 660131 4575.1 660131 4575.9 660172 4696.8 660046 4779.1 660045 4777.5 659962 4858.9 659920 4860.5 6.6e5 4779.9 660086 4902.4 660043 4981.5 659877 5186.9 659874 5225.6 659749 5103.2 659792 5100 659627 5017 659588 5015.4 659505 5096.1 659421 5053.4 659339 4930 659341 4762.3 659179 4801.9 659096 4843.1 659095 4758.4 658973 4718 659015 4592.9 658934 4591.4 658852 4504.9 658647 4422.6 658649 4383 658732 4385.4 658855 4469.4 658936 4470.2 658978 4429 658978 4430.7 659061 4349 659103 4182.7 659024 4184.3 659106 4102.7 659148 4105.1 659272 3897.4 659193 3691.2 659197 3693.7 659320 3320.8 659245 3322.5 659327 3244.2 659535 2911.4 659417 2987.9 659127 2946.7 659128 2944.9 659045 2697.1 659050 2699.6 659173 2575.7 659176 2576.6 659217 2373.5 659385 2374.3 659427 2164.2 659266 2086 659473 1875.7 659313 1752.5 659356 1714.8 659522 1549.4 659525 1464.8 659445 1382.1 659446 1130.3 659286 1129.3 659245 1212 659243 1211.1 659202 1046.5 659247 961.95 659166 1005.2 659248 676.87 659379 638.32 659503 763.39 659542 891.26 659704 811.29 659829 815.98 660035 1198.3 660481 1034.8 660567 1035.8 660608 869.46 660570 829.94 660654 917.32 660858 921.02 661023 1044.1 660979 1046.9 661103 1089.1 661143 1051.5 661309 926.59 661271 928.54 661353 1053.4 661392" fill="red" stroke="#000" stroke-opacity=".5"/>
</g>
</g>
</svg>
