<?xml version="1.0" encoding="UTF-8"?>
<svg baseProfile="full" version="1.1" viewBox="0 0 22553 25149" xmlns="http://www.w3.org/2000/svg">
<defs>
<style type="text/css">polyline,line,rect,path,polygon,.polygon{fill:none;stroke:#000;stroke-width:1px;stroke-linejoin:round;}.country {
    fill: grey;
    opacity: 0.40;
    stroke: black;
    stroke-opacity: 0.5;
}
.federal_state {
    fill: red;
    stroke: black;
    stroke-opacity: 0.5;

}</style>
</defs>
<g transform="scale(1 -1) translate(11212 -614743)" fill_rule="evenodd">
<g class="NAME">
<g fill="red" stroke="#000" stroke-opacity=".5" fill_rule="evenodd">
<polygon class="federal_state" points="-2188.1 591592 -2145.9 591432 -2083.2 591380 -2154.8 591353 -2310.7 591412 -2444.7 591311 -2521.7 591318 -2542.2 591367 -2427.5 591460 -2496.6 591609 -2405 591620 -2347.3 591571 -2230.4 591644"/>
<polygon class="federal_state" points="4685 614521 4689.8 614397 4732.4 614356 4615 614229 4699.5 614148 4701.2 614106 4660.3 614105 4704.4 614023 4621.3 614063 4624.4 613980 4543.5 613979 4668.3 613898 4669.9 613857 4590.1 613814 4555.7 613647 4596.3 613648 4599.5 613565 4848.5 613486 4927.8 613571 4918.3 613819 5083.1 613822 5161 613948 5205.3 613866 5211.4 613700 5297.1 613619 5301.8 613495 5463.5 613581 5457.3 613747 5699.9 613876 5738.1 613960 5820.5 613962 5780.8 613919 5783.9 613837 5866.2 613839 5867.7 613797 6037 613677 6087.3 613430 6046.2 613429 6009.5 613304 6014 613180 6055.3 613181 6056.7 613140 6015.6 613139 6058.3 613099 6061.3 613016 6227.5 612979 6230.5 612896 6315.8 612816 6276.1 612773 6364.4 612611 6240.9 612608 6283.6 612567 6204.1 612483 6121.9 612481 6171.9 612235 6130.8 612234 6052.9 612108 5970.6 612106 5973.5 612023 6266 611907 6302.8 612032 6343.9 612033 6298.3 612155 6376.3 612281 6538 612368 6661.6 612371 6548.4 612080 6711.6 612125 6754.3 612085 6716 612002 6757.2 612003 6719 611919 6763 611838 6688 611630 6774.7 611509 6733.5 611508 6698.1 611343 6825.9 611223 6992.2 611187 6990.8 611228 7113 611272 7114.4 611231 7236.6 611276 7403 611239 7479.6 611405 7681.5 611534 7718.4 611658 7550.4 611736 7752.2 611864 7749.3 611946 7915.8 611910 7961.4 611788 7840.6 611702 7887.7 611540 8051.2 611585 8176.5 611547 8138.2 611464 8017.3 611379 8020.2 611297 8104.2 611258 8193.9 611056 8031.8 610969 7994.8 610845 8286.5 610772 8332.2 610650 8292.3 610608 8333.6 610609 8421.9 610448 8380.6 610447 8424.8 610366 8383.5 610365 8510.2 610287 8390.5 610161 8182.6 610195 8102.6 610111 8189.4 609991 8150.7 609908 8234.8 609869 8237.5 609788 8112 609825 8075.9 609660 8160 609622 8161.3 609581 8119.9 609580 8204 609541 8205.3 609500 8369.6 609546 8415 609425 8333.4 609381 8294.6 609298 8298.4 609176 8458.3 609038 8309.6 608808 8268.1 608807 8222.9 608928 8304.7 608972 8221.7 608969 8144.8 608762 8312.1 608727 8313.3 608686 8231.4 608642 8272.9 608644 8281.2 608358 8365.5 608320 8367.9 608238 8284.7 608236 8245.4 608152 8289.3 608072 8328.6 608155 8455.8 608077 8498.6 608038 8500.8 607956 8628.2 607878 8626.9 607919 8668.6 607921 8671 607839 8754.3 607842 8801.8 607639 8884.1 607682 8923.4 607765 9049.6 607729 9052.1 607647 9222.6 607530 9269.2 607368 9145.1 607323 9063.9 607239 9066.2 607158 8939.8 607194 8942 607113 8902.4 607030 8860.6 607029 9197.5 606958 9200.9 606836 9159.1 606834 9157.9 606875 9118.3 606792 9288.1 606716 9290.3 606635 9248.4 606633 9250.6 606552 9209.8 606510 9213.1 606387 9337.8 606432 9336.7 606473 9465.9 606355 9547.6 606439 9590.8 606400 9593 606318 9763.3 606243 9845 606327 9846.3 606286 9972.2 606290 9974.7 606209 9933.9 606167 10020 606088 9980.7 606005 10149 606011 10192 605972 10196 605849 10366 605815 10410 605734 10368 605733 10371 605611 10493 605653 10536 605571 10495 605571 10495 605530 10578 605489 10579 605407 10621 605366 10620 605407 10661 605408 10745 605285 10704 605244 10622 605284 10664 605202 10747 605162 10749 605039 10544 604955 10545 604873 10669 604874 10669 604833 10752 604792 10714 604628 10756 604587 10716 604463 10757 604464 10759 604382 10554 604298 10556 604175 10721 604135 10723 604012 10683 603929 10725 603930 10725 603889 10603 603806 10603 603765 10520 603805 10521 603723 10604 603724 10565 603559 10607 603559 10607 603518 10443 603477 10486 603353 10569 603313 10570 603272 10487 603271 10488 603189 10655 603108 10698 602985 10821 603068 10780 603026 10865 602904 10866 602821 10949 602822 10992 602740 10951 602739 10951 602698 10995 602575 11078 602535 11037 602493 10995 602534 10915 602411 10833 602328 10750 602328 10751 602287 10502 602286 10462 602244 10419 602326 10543 602327 10541 602450 10499 602491 10539 602573 10623 602533 10663 602615 10621 602656 10539 602614 10414 602655 10374 602573 10291 602531 10294 602326 10129 602284 10130 602202 10006 602161 10004 602325 9917.3 602571 9792.3 602570 9751.8 602488 9583.1 602567 9496.9 602688 9412 602727 9371.2 602644 9414.1 602604 9415.4 602523 9290.2 602438 9376.1 602359 9292.3 602316 9293 602275 9336.7 602195 9421.7 602156 9380.9 602073 9465.1 602075 9465.8 602034 9592.9 601954 9636.6 601831 9805.7 601668 9597.9 601626 9640.2 601585 9598.5 601585 9600.3 601462 9643.2 601380 9727.1 601339 9730.7 601093 9772.4 601093 9648.5 601010 9651.4 600805 9736 600723 9612 600641 9277 600682 9235.7 600641 9278.2 600600 9236.9 600559 9110.6 600599 9153.2 600559 9111.5 600558 9112.4 600517 9153.8 600518 9198 600394 9033.3 600347 8747.1 600168 8748 600127 8788.5 600170 8790.5 600087 8749 600085 8709.5 6e5 8420.3 599946 8377.9 599985 8378.9 599944 8293.2 600064 8291.3 600146 8207.5 600183 8044.5 600052 8086.9 600013 7840.1 599920 7839.1 599961 7673.3 599953 7675.1 599871 7717.5 599832 7637.4 599704 7721.3 599667 7722.2 599626 7559.2 599495 7562.1 599371 7521.6 599328 7357.7 599239 7318.1 599155 7195.6 599067 7198.5 598944 7283.5 598865 7323 598949 7406.9 598911 7411.8 598704 7495.8 598666 7497.7 598584 7583.6 598463 7625.1 598465 7627 598382 7757.1 598139 7841 598101 7926.8 597980 7887.2 597896 7931.6 597773 7891 597730 7974.7 597692 7894.8 597565 7938.1 597483 7940.9 597359 8023.7 597362 8026.5 597237 8068.9 597197 8076.3 596866 8117.7 596867 8253.4 596331 8296.5 596250 8337.9 596251 8339.6 596168 8464.4 596130 8467 596005 8509.2 595965 8510 595923 8468.7 595922 8510.9 595882 8511.8 595840 8470.5 595839 8473.1 595715 8514.4 595716 8521.2 595384 8400.8 595214 8485.1 595133 8486.9 595050 8445.5 595049 8365.4 594922 8330.9 594588 8166.5 594542 8087.2 594374 8131 594250 8298.7 594131 8259.8 594005 8260.6 593963 8301.9 593964 8304.3 593840 8222.5 593796 8269.4 593506 8229.6 593422 8065.3 593376 8108.9 593252 8272.4 593340 8274.1 593257 8232.8 593256 8152.4 593129 8194.5 593088 8274.8 593215 8317.6 593133 8235.7 593090 8277.1 593091 8362.6 592927 8488 592847 8488.7 592805 8325 592718 8367.7 592636 8160.5 592671 8162 592588 7999.1 592459 8041.7 592377 8082.2 592420 8124.8 592337 8084.3 592295 8375 592177 8334.4 592135 8376.3 592094 8338.1 591884 8379.5 591885 8340.5 591717 8467.3 591554 8550.6 591557 8428.4 591386 8470.9 591346 8473.5 591222 8348.6 591175 8349.4 591133 8224 591128 8181.6 591210 8140.2 591209 8183 591084 8101.1 590998 8062.9 590787 8019.9 590870 8059.4 591039 7976.7 591079 7975.3 591205 7933.3 591288 7730.1 591202 7688.9 591243 7728.9 591285 7686.9 591368 7484.4 591282 7364.7 591114 7323.9 591114 7326.1 590989 7244.3 590988 7245.1 590947 7039.1 591026 6958 590983 6875.2 591023 6874.4 591064 6627.4 591100 6584.6 591181 6337.1 591216 6214.6 591172 6215.5 591131 6256.6 591132 6218.2 591007 6177.1 591006 6137.7 590922 6014.4 590919 5974.2 590877 6015.3 590878 5976.9 590753 5693.6 590539 5653.4 590497 5695.5 590457 5614.1 590413 5573.1 590412 5571.2 590494 5612.3 590496 5611.5 590537 5530.1 590493 5529.2 590534 5489.9 590450 5407.7 590448 5327.4 590363 5203.2 590400 5201.2 590482 5079.9 590396 5036.9 590477 4954.7 590474 4915.5 590389 4792.1 590384 4836.6 590218 4712.5 590255 4632.5 590125 4538.8 590197 4268.4 590168 4076.2 590321 4021.4 590503 3951.2 590581 3922.3 590738 3750.6 590899 3528.5 590889 3138.8 591088 2675.1 591021 2366.5 591163 1894.1 591511 1754.4 591696 1734.6 591886 1682.9 591953 1057.6 592266 913.94 592435 668.65 592579 502.85 592748 329.55 592790 239.32 592667 534.66 592343 1001.4 592033 1148.2 592005 1327.5 591836 1387.6 591633 1380.6 591522 1598 591305 1660.7 591063 1592.7 591026 1408.6 591074 1395.4 590946 1256.8 590995 1232.7 590900 1118.9 591035 973.01 591071 975.9 591140 909.41 591246 783.56 591303 838.71 591360 779.28 591469 -62.685 591948 -103.03 591887 75.791 591750 -290.25 591881 -406.47 591850 -439.8 591768 -24.574 591529 62.671 591428 47.81 591360 -180.43 591142 -436.59 590992 -812.52 590917 -909.48 590956 -920.29 591097 -973.13 591183 -1097.2 591235 -1058.1 591354 -1081.8 591414 -932.99 591386 -913.35 591417 -944.73 591500 -1135.8 591481 -1165.6 591597 -1324.7 591590 -1317.1 591655 -1438.8 591741 -1405.3 591798 -1438.2 591880 -1500.3 591848 -1498.2 591765 -1581.3 591773 -1716.9 591637 -1704.8 591544 -1520.8 591505 -1440.3 591408 -1521.2 591310 -1515.6 591193 -1602.1 591202 -1824.9 591354 -2042.4 591383 -1969.3 591654 -2105.1 591719 -2149.9 591815 -2064.5 591972 -1932.2 592005 -2020.5 592153 -2143 592206 -2270.1 592107 -2321.8 592119 -2374.6 592436 -2528 592497 -2574.5 592596 -2622 592580 -2650.9 592494 -2632.9 592210 -2775.2 592155 -2833 592234 -2822.2 592338 -2870.7 592416 -2847.5 592578 -2921.5 592634 -3162.2 592611 -3230 592695 -3276.4 592651 -3278.5 592535 -3192.5 592482 -3175 592414 -3240.9 592379 -3363 592436 -3560.6 592361 -3588.9 592296 -3666.8 592348 -3838.9 592313 -3952.1 592207 -4104.5 591943 -4071.1 591821 -4093.3 591760 -4372.1 591615 -4459.7 591502 -4356.7 591313 -4471.3 591203 -4164.6 590978 -4005.6 591001 -4011.8 590866 -3969.2 590800 -3916.8 590811 -3960.7 590841 -3926.8 590867 -3942.9 590921 -3817.1 590843 -3765.6 590895 -3511.8 590876 -3486.3 590919 -3538.7 591033 -3509.3 591056 -3454.3 591021 -3429.6 591093 -3273.3 591145 -3151.7 591064 -2992.3 591167 -2790.5 590949 -2787.4 590880 -2852.1 590787 -2963.2 590777 -2889.8 590868 -2951.3 590940 -3028.9 590835 -2962.8 590498 -3123.1 590315 -3297.5 590353 -3211.6 590493 -3314 590619 -3600 590737 -3715.4 590553 -3889.4 590523 -4073.5 590376 -4050.4 590252 -3999.1 590188 -3844.1 590238 -3794 590150 -4233 5.9e5 -4338.1 589994 -4522.9 590100 -4648.7 589990 -5044.3 590046 -5290.6 590255 -5294.1 590439 -5331.3 590482 -5552.9 590497 -5592.4 590555 -5826.3 590460 -5888.4 590597 -5976.5 590626 -6274.6 590340 -6412.5 590348 -6508.4 590220 -6714.3 590202 -6783.3 589964 -6864.1 589931 -7008.3 590018 -7183.7 589906 -7371 589865 -7528.6 589934 -7839.1 589958 -7947.9 589798 -8188.3 589876 -8226.9 589984 -8205 590120 -8342.4 590293 -8551.4 590310 -8724.1 590245 -8868.2 590312 -8962.4 590101 -9082.1 589972 -9385.2 589845 -9641.4 589815 -9817.7 589690 -10017 589691 -10291 589977 -9932.5 590065 -9919.7 590107 -9988.1 590223 -10048 590256 -9998 590315 -10233 590361 -10389 590184 -10473 590186 -10475 590268 -10593 590358 -10579 590409 -10717 590578 -10766 590757 -11081 591079 -11114 591147 -11112 591338 -11167 591480 -11153 591554 -10923 591770 -10885 591912 -10993 592254 -11013 592448 -10759 593084 -10750 593196 -10804 593413 -10786 593528 -10597 593717 -10590 594069 -10286 594550 -10382 594848 -10672 595254 -10632 595512 -10658 595747 -10574 596036 -10586 596198 -10426 596351 -10418 596576 -10190 596879 -10093 597108 -9909.2 597294 -9687.4 598192 -9386.4 598366 -9301.9 598493 -9397.9 599077 -9375.8 599260 -9122.6 599982 -9113.3 600236 -8910.4 600398 -8825.7 600528 -8815.5 601032 -8850.3 601303 -8812.9 601414 -8620.6 601710 -8508.9 601991 -8128.1 602226 -7637.9 602809 -7592.6 602915 -7569.9 603208 -7475.5 603261 -7325.4 603233 -7221.8 603276 -7112.5 603557 -6887.9 603566 -6705.5 603707 -6600.5 603859 -6444.6 604403 -6293.1 604748 -5876.7 605422 -5553 605549 -5155 605938 -5009.7 606524 -4656.5 606996 -4586.9 607372 -4592.2 607537 -4554.1 607621 -4600.2 607784 -4484.5 607997 -4488.5 608120 -4408.4 608166 -4331.7 608335 -4334 608417 -4455.3 608370 -4458.9 608493 -4340.9 608664 -4018.9 608886 -3940.9 609054 -3778 609103 -3698.7 609230 -3825.3 609387 -3991.2 609461 -3993.9 609583 -3671 609886 -3594 610175 -3636.7 610255 -3718.3 610210 -3798.3 610083 -3880.6 610079 -3883.8 610243 -3638.9 610377 -3641.1 610499 -3563.5 610788 -3647.4 610866 -3977.5 610850 -4019.6 610889 -4021.8 611011 -3858.8 611141 -4028.3 611379 -4205 612024 -4207.8 612188 -4167.7 612271 -4126.3 612273 -4128.3 612395 -3838.9 612449 -3417.6 612019 -3373.7 611857 -3205.6 611702 -2957.1 611713 -2876 611839 -2834 611800 -2794.3 611924 -2752.9 611926 -2712.5 612010 -2754 612008 -2797.7 612169 -2843.7 612493 -2927.3 612530 -2888 612695 -2267.1 612884 -2183.4 612847 -2263.9 612640 -2181.3 612684 -2138.2 612563 -2178.8 612480 -2261.8 612477 -2259.8 612314 -2301.4 612313 -2217.2 612235 -2215.7 612113 -2173.1 612033 -2089.6 611996 -2130.6 611954 -1962.1 611757 -1961.1 611676 -1837.5 611762 -1669.7 611647 -1587 611690 -1461.3 611614 -1420.9 611737 -1254.8 611783 -1254.3 611742 -1296 611741 -1293.9 611538 -1209.2 611419 -1167.5 611421 -1168.4 611502 -960.07 611548 -750.49 611513 -709.09 611554 -706.43 611311 -789.8 611269 -872.14 611145 -955.41 611102 -997.59 611142 -956.15 611183 -999.19 611304 -1248.3 611175 -1247.1 611053 -1205 611014 -1202.8 610812 -1160.8 610772 -1202.1 610731 -1201.3 610650 -1326.3 610646 -1409.1 610603 -1366.6 610523 -1449.8 610520 -1323.4 610363 -1240.5 610406 -1241.3 610487 -1157.9 610489 -1157.2 610408 -1115 610369 -1031.6 610371 -907.64 610536 -741.41 610661 -702.01 610905 -659.19 610825 -533.16 610827 -534.11 610908 -492.6 610950 -325.1 610993 -410.49 611113 -452.45 611113 -453.86 611235 -371.33 611358 -328.97 611318 -329.86 611399 -288.42 611441 -331.8 611562 -121.75 611525 -122.73 611606 -80.888 611607 -37.95 611526 339.59 611489 338.52 611571 421.69 611612 421.16 611653 379.31 611653 502.6 611817 629.29 611737 754.17 611778 798.98 611573 965.03 611655 879.6 611778 878.4 611860 668.19 611941 667.09 612023 750.66 612024 750.09 612065 708.28 612064 790.78 612147 787.8 612351 914.19 612270 1205 612353 1456.4 612270 1870.9 612392 1870.2 612434 1828.5 612434 1952.6 612475 1991.2 612639 2114.4 612721 2029 612845 2069.7 612886 2027.5 612927 2068.2 612968 2152 612927 2149.6 613050 2232.5 613050 2231.8 613091 2273.3 613091 2271.7 613174 2356 613091 2522.6 613050 2685.6 613174 2854.7 613010 3019.2 613051 3098.8 613175 2930.7 613298 2929.8 613340 3011.4 613381 3130 613588 3087.9 613629 3084 613794 2958.7 613875 2956.8 613958 2873.7 613999 2834.4 613916 2839 613710 2716.3 613668 2632.9 613709 2630.3 613833 2547.8 613833 2546.9 613874 2792.3 613957 2543.7 614038 2379.7 613997 2378.9 614038 2213.2 614079 2212.4 614120 2336.9 614079 2418.5 614120 2416.9 614203 2333 614285 2330.6 614408 2618.4 614409 2738.8 614534 2905.5 614411 3104.9 614619 3227.3 614620 3272.5 614455 3396 614415 3512.3 614623 3674.6 614625 3758.2 614544 3722.7 614378 3847 614297 3845.8 614338 3965.9 614381 4049.4 614300 4054.8 614134 4135.6 614136 4174.6 614178 4089.9 614301 4082.9 614508 4121.7 614550 4323.9 614513 4721.4 614646 4726 614522"/>
</g>
</g>
</g>
</svg>
