<?xml version="1.0" encoding="UTF-8"?>
<svg baseProfile="full" version="1.1" viewBox="0 0 36645 36912" xmlns="http://www.w3.org/2000/svg">
<defs>
<style type="text/css">polyline,line,rect,path,polygon,.polygon{fill:none;stroke:#000;stroke-width:1px;stroke-linejoin:round;}.country {
    fill: grey;
    opacity: 0.40;
    stroke: black;
    stroke-opacity: 0.5;
}
.federal_state {
    fill: red;
    stroke: black;
    stroke-opacity: 0.5;

}</style>
</defs>
<g transform="scale(1 -1) translate(15180 -624389)" fill_rule="evenodd">
<g class="NAME">
<polygon class="federal_state" points="-6138.5 623990 -6097.4 623906 -6014 623905 -6013.5 623989 -5805.9 623903 -5847.1 623987 -5805.4 623987 -5805.1 624028 -5638.8 624026 -5639.4 623902 -5431.9 623775 -5474.4 623609 -5433 623567 -5266.4 623566 -5183.5 623482 -5100.1 623481 -5017.4 623356 -4892.5 623313 -4892.3 623355 -4809.1 623312 -4725.7 623353 -4726 623270 -4642.7 623228 -4685.2 623021 -4602 622979 -4477.7 622729 -4394.2 622728 -4477.9 622687 -4394.5 622645 -4394.6 622604 -4227.9 622561 -4228 622478 -4353.6 622396 -4312.2 622229 -4270.4 622271 -4061.7 622228 -4061.8 622187 -3978.2 622228 -3978 622311 -3852.7 622310 -3811.6 622061 -3728.1 621977 -3602.7 621977 -3561.1 621894 -3603 621852 -3603.2 621769 -3435.8 621810 -3436.1 621727 -3394.1 621727 -3310.2 621893 -3143.1 621809 -3185.1 621643 -3101.6 621560 -2808.7 621518 -2850.8 621351 -2892.6 621352 -2892.8 621227 -2850.9 621227 -2767.4 621060 -2851.1 621019 -2809.4 620935 -2851.3 620935 -2851.4 620852 -2893.3 620852 -2893.4 620811 -2809.5 620811 -2851.5 620727 -2809.7 620727 -2767.8 620686 -2767.9 620603 -2726 620602 -2726 620561 -2809.9 620519 -2768.2 620353 -2559 620270 -2391.6 620394 -2392 620270 -2225.4 620270 -2142.7 620146 -2018.4 620146 -1977.3 620063 -1935.9 620063 -1894.5 620147 -1893 620603 -1810.9 620603 -1729.2 620479 -1606 620480 -1523.6 620605 -1400.5 620605 -1359.6 620482 -1236.6 620441 -1072.4 620525 -1031.3 620608 -1072.4 620855 -1359.2 620896 -1400.1 620978 -1359 621061 -1522.7 621102 -1604.7 621060 -1808.8 621309 -2013.3 621433 -1972.1 621433 -1891.3 621598 -1892.1 621681 -2015.1 621640 -2016.3 621763 -1975.1 621763 -1975.9 621846 -1729 621804 -1648 621928 -1566 621928 -1485.3 622093 -1485 622052 -1361.9 622011 -1199.1 622135 -1199.4 622176 -912.96 622135 -872.57 622218 -790.73 622177 -749.23 622053 -423.37 622178 -258.93 621973 -258.4 621890 -93.872 621685 -11.886 621644 28.465 621726 -53.518 621767 -53.999 621850 -13.441 621891 150.42 621809 273.02 621810 232.71 621727 274.09 621645 314.96 621645 600.57 621730 641.09 621895 805.64 621896 846.82 621855 846.8 621732 805.67 621731 846.87 621690 888.01 621691 888.02 621773 1011.7 621733 970.34 621691 1135 621486 1135 621403 930.78 621278 931.85 621155 972.67 621155 1014.6 621032 1301.7 620951 1221 620827 1343.7 620828 1342.6 620951 1383.5 620951 1382.7 621034 1423.4 621075 1794.2 620790 1835 620872 1876.5 620872 1835.2 620913 1795.1 621161 1919.9 621245 1837.8 621409 1880.1 621575 1963 621575 1880.8 621740 2005.4 621783 2005.9 621906 1965.1 622072 1882.4 622112 1882.7 622195 1924.1 622195 1841.5 622277 1925.1 622484 1883.9 622525 1884.1 622608 1925.6 622608 1925.7 622650 1843.1 622773 1760.3 622814 1802 622897 1761.2 623144 1885.7 623187 1885.6 623146 2051.8 623230 2093.2 623148 2134.7 623189 2135 623272 2301.1 623274 2301.7 623522 2343.2 623481 2467.9 623523 2426.6 623606 2468.3 623647 2551.3 623607 2634.6 623649 2717.6 623609 2717.5 623567 3050.4 623571 3133.2 623406 3091.3 623323 2966.5 623363 3007.5 623115 2965.6 623032 3007 622950 2965.1 622867 3048 622743 3214.2 622621 3172.3 622538 3297.7 622622 3297.7 622663 3422.9 622664 3464.1 622499 3421.9 622292 3463.5 622251 3588.9 622293 3588.8 622252 3672.3 622253 3713.8 622170 3713.4 622005 3796.9 622047 3797.1 622088 3922.4 622131 3922.2 622090 4047.6 622174 4047.9 622257 4215.2 622342 4340.2 622302 4423.2 622178 4506.6 622179 4757.2 622265 4965.7 622268 5007.8 622352 5174.3 622312 5216.4 622396 5300.1 622438 5466.4 622399 5342 622480 5383.6 622481 5383.9 622523 5508.6 622483 5550.9 622566 5592.6 622567 5675.6 622527 5798.9 622363 5882.1 622364 5882.5 622405 5923.6 622365 5839.7 622280 5839.3 622239 5880.9 622239 6089.7 622367 6172.7 622368 6299.2 622536 6423.6 622538 6507.6 622623 6631.7 622584 6673.7 622626 6794.4 622462 6751.5 622338 6792 622297 6792.7 622339 6916.4 622340 6913.9 622298 6995.5 622259 6992.8 622135 7031.8 622093 6944 621842 6983.2 621803 7106.9 621887 7105.2 621804 7344.3 621726 7341.7 621603 7422.3 621646 7421.2 621604 7539.3 621566 7503.1 621647 7741.4 621611 7857.9 621448 8012.2 621380 8049.5 621081 8103.9 621036 8023.5 620949 7902.7 620946 7822.7 620860 7823.6 620776 7742.5 620733 7846.5 620692 7857.9 620601 7957 620615 7969.4 620515 8279.1 620455 8295.4 620325 8354 620327 8395.6 620244 8458.8 620226 8478 620120 8559 620081 8561.3 619953 8602.3 619912 8603.8 619827 8644 619829 8645.5 619744 8566.4 619657 8567.8 619572 8528.1 619529 8531.5 619317 8572.7 619275 8574.8 619149 8657.3 619066 8750.5 619103 8756.7 619053 8806.2 619060 8815.7 618984 8901.4 619029 8902.5 618972 9023 618937 9035.4 618838 9085 618844 9107.8 618781 8991.2 618604 9221.3 618559 9419.4 618585 9425.6 618535 9475.1 618542 9493.7 618393 9648.5 618363 9650.1 618278 9732.8 618236 9775.5 618152 10032 618110 10093 618026 10193 618030 10200 617981 10299 617994 10311 617894 10262 617888 10268 617838 10525 617893 10526 617822 10571 617827 10577 617778 10676 617791 10737 617637 10700 617600 10707 617542 10658 617536 10664 617486 10565 617473 10590 617274 10850 617207 10856 617158 11110 617141 11141 616892 11091 616886 11104 616786 11005 616773 11011 616723 10918 616661 10920 616434 10800 616393 10797 616152 10672 616195 10590 616115 10632 616073 10634 615910 10564 615869 10596 615608 10145 615332 10105 615208 10232 614963 10314 614964 10349 614767 10398 614774 10410 614678 10670 614608 10814 614476 10939 614517 11021 614476 11021 614354 11066 614255 11024 614194 11035 614100 10986 614093 10976 614042 11058 613984 11015 613860 11097 613820 11079 613752 11302 613779 11260 613697 11341 613614 11340 613491 11422 613409 11379 613204 11420 613163 11488 612887 11549 612803 11745 612752 11868 612793 11909 612752 11890 612488 11920 612246 11827 612183 11907 612136 11951 611997 11985 612002 12029 611890 12043 611656 12198 611625 12204 611576 12402 611602 12415 611502 12520 611465 12526 611416 12625 611429 12631 611379 12767 611317 12767 611112 12940 610914 12956 610784 13424 610745 13630 610622 13675 610663 13628 610829 13841 610823 14055 610736 14183 610773 14225 610690 14311 610688 14396 610563 14481 610561 14481 610479 14524 610478 14524 610437 14609 610435 14610 610352 14780 610348 14781 610060 14824 609895 14995 609891 14995 609767 15081 609724 15081 609683 15252 609638 15234 609445 15395 609365 15425 609117 15580 609086 15586 609037 15635 609043 15648 608944 15697 608950 15759 608857 15858 608870 15863 608828 15890 608885 15934 608802 15938 608677 15898 608636 15898 608553 16112 608385 16154 608302 16374 608230 16488 608244 16510 608306 16750 608309 16913 608144 17075 608063 17196 607941 17237 607818 17358 607777 17398 607654 17560 607573 17560 607409 17600 607368 17600 607122 17640 607122 17605 606874 17722 606795 17569 606818 17723 606788 17735 606688 17834 606701 17896 606608 17995 606621 18001 606571 18051 606578 18063 606478 18162 606491 18223 606398 18273 606404 18279 606355 18372 606417 18368 606669 18941 606693 18947 606643 18997 606650 19019 606464 19261 606504 19219 606381 19293 606284 19441 605899 19540 605911 19580 605764 19960 605764 19954 605813 20029 605844 20029 605762 20170 605690 20200 605441 20250 605447 20268 605298 20373 605261 20379 605211 20471 605223 20469 605143 20510 605102 20468 605061 20630 604896 20638 604739 20589 604733 20595 604683 20644 604690 20654 604608 20831 604608 20832 604568 20705 604436 20660 604161 20577 604080 20618 604080 20494 604000 20614 603835 20703 603799 20696 603567 20734 603328 20691 603254 20811 603118 20751 602780 20650 602617 20716 602555 20664 602397 20506 602334 20386 602164 20342 602276 20292 602219 20303 602102 20235 602070 20267 601923 20225 601848 20165 601857 20091 601708 19643 601928 19534 602102 19339 602171 19133 602335 19053 602334 19012 602211 18936 602211 18573 602538 18453 602538 18412 602415 18452 602415 18451 602333 18411 602333 18329 602210 18250 602251 18249 602169 18128 602128 18049 602251 17967 602168 17966 602045 18086 601922 18045 601881 18044 601758 18084 601758 18123 601635 17917 601012 18017 600800 18023 600665 17848 600086 17545 599832 17215 599452 16948 599251 16665 599142 16202 599156 15883 599001 15509 598945 14998 598698 14582 598203 13881 598038 13881 597946 13797 597820 13797 597738 13672 597652 13672 597569 13414 597448 13298 597188 13214 597269 13130 597267 13130 597143 13047 597058 13089 596935 13088 596729 13213 596566 13867 596001 13984 595465 14024 595466 14024 595383 14064 595384 14045 595344 14270 595327 14327 595280 14355 595118 14455 595181 14480 595152 14534 594957 14639 594847 14613 594798 14971 594158 14800 593869 14837 593817 14720 593600 14587 593422 14515 593404 14605 593290 14513 593082 14420 593044 14332 592796 14482 592664 14637 592697 14677 592611 14893 592599 15031 592687 15070 592801 15113 592799 15327 592708 15480 592472 15621 592387 15602 592167 15818 591812 15754 591690 15689 591700 15531 591451 15538 591389 15613 591315 15615 591231 15401 591196 15447 590984 15534 590982 15328 590657 15424 590549 15426 590442 15462 590443 15472 590197 15253 590028 15256 589946 15177 589866 14912 590114 14916 589984 14845 589983 14578 590151 14412 590191 14191 590493 13982 590532 13939 590575 13935 590756 13891 590796 13718 590770 13542 590889 13397 591109 13522 591393 13729 591503 13304 591813 13251 591952 13360 592005 13408 592124 13384 592158 13223 592038 13036 592220 12565 592238 12410 592117 12288 592141 12218 592210 12144 592139 12051 592165 11851 591663 11512 591707 11317 591590 11164 591783 11016 591865 10954 592019 10811 592164 10807 592335 10775 592379 10249 592209 10223 592272 10224 592228 10181 592271 10100 592227 10060 592308 9979 592305 9613.2 592170 9572.9 592086 9450.2 592083 9366.9 592248 9406.5 592458 9528.7 592668 9485 592753 9404.7 592791 9241.7 592497 9077.9 592370 8995.3 592411 8954.6 592327 8812.5 592324 8852.2 592128 8954.7 592036 9051.7 591831 9142.5 591503 9177.7 591341 9091.9 591243 8927.8 591242 8927.2 591324 8802.9 591324 8638.2 591242 8182.2 591284 8056.9 591367 7933.2 591326 7808.5 591367 7809.4 591285 7726.6 591285 7641.9 591450 7476.8 591409 7394.9 591327 7311.7 591369 7064 591287 6939.3 591329 6857.2 591246 6485.1 591166 6445.2 590961 5989 591004 5860.2 591045 5841.6 591130 5021.6 591027 4864.9 591158 4784.7 591158 4704 590930 4621 590931 4580.4 590767 4539 590767 4462.4 590650 4500 590316 4375.9 590235 4376.1 590194 3961 590156 3878.3 590075 3669.9 590159 3420.1 590119 3377.5 590243 3294.2 590202 2984.5 589871 2924.8 589741 3004.3 589670 3120 589670 3198.2 589450 2892.7 589517 2575.9 589516 2447.3 589340 2217.1 589274 2239.2 589059 2193.5 588925 2067.8 588838 1942.8 588882 1692.1 588839 1822.7 589105 1942.1 589227 1903.6 589255 1932.9 589293 1856 589323 1517.3 589302 1140.7 589197 933.43 589055 896.1 588931 834.04 588904 327.67 588878 110.93 588942 -169.69 588891 -237.15 588926 -265.16 589001 -160.96 589090 -162.14 589180 -548.78 589624 -588.95 589624 -553.88 589802 -674.69 589803 -675.93 589848 -912.56 589802 -911.94 589758 -1032.5 589802 -976.29 590069 -613.08 590225 -684.94 590283 -770.75 590270 -879.77 590470 -1164.5 590445 -1222.9 590377 -1307.4 590400 -1461.2 590298 -1716.9 590228 -1811.2 590301 -1804.8 590414 -1909.3 590487 -2161.1 590496 -2201 590552 -2322.7 590559 -2361.1 590719 -2807.8 590739 -2846.8 590825 -3009.5 590830 -3008.6 590872 -3149.8 590706 -3196.9 590516 -3302 590454 -3301.1 590497 -3830.4 590558 -3949.9 590692 -4112.7 590739 -3998.6 590868 -4008.7 590948 -3930.7 590992 -3927.7 591043 -4270.1 591013 -4262.4 590862 -4125.3 590700 -4243.7 590360 -4219.4 590249 -4285.6 590137 -4269.9 590035 -4231.4 589929 -4080.5 589885 -4047.8 589918 -3986.1 589315 -4101.3 589271 -4182.1 589128 -4257.4 589122 -4356.6 588845 -4277.2 588713 -4399.4 588760 -4483.3 588676 -4606.5 588679 -4649.4 588594 -4652.2 588465 -4904.5 588213 -4978.2 588029 -4950.4 587998 -5117.9 587874 -5241.2 587878 -5324.8 587794 -5407.7 587796 -5486.5 587676 -5573.1 587717 -5777.4 587598 -5814.9 587516 -6071.3 587602 -6279.4 587522 -6320.4 587563 -6286.9 587563 -6272.6 587772 -6107.1 587816 -5979.7 587984 -6018 588111 -6099.5 588151 -6058.4 588152 -6030.9 588278 -5802 588657 -5836.4 588885 -5966.8 588737 -6090 588818 -6089.7 588860 -6201.4 588895 -6285.7 588812 -6297.9 588647 -6339.4 588605 -6543.9 588601 -6665.6 588682 -6829.7 588473 -6940.3 588882 -6911.5 588972 -7026.9 589106 -6829.9 589180 -6782.9 589326 -6872.5 589538 -6855.5 589604 -6913.6 589637 -7037.6 589596 -7037.8 589638 -7162 589722 -7204.1 589971 -7281 5.9e5 -7555.4 589942 -7607.8 590089 -7591 590172 -7822.2 590355 -7781.2 590396 -7822.5 590480 -7742.8 590659 -7804.4 590643 -7866.2 590510 -8009.7 590521 -8126.4 590459 -8185.1 590491 -8233.7 590611 -8421.8 590647 -8479.9 590450 -8644.4 590536 -8664.3 590593 -8932.2 590679 -8849.3 590815 -8889.7 590911 -8854.9 591061 -9011.3 591197 -9216.7 591196 -9299.4 591113 -9382.6 590948 -9423.7 590948 -9425 590779 -9504.4 590677 -9517.1 590584 -9673.5 590702 -9863.7 590617 -9898.6 590654 -9851.9 590709 -9878.5 590777 -10077 590785 -10160 590883 -10408 590969 -10446 591073 -10410 591055 -10327 591183 -10204 591143 -10244 591311 -10121 591312 -10079 591396 -9997 591397 -9956.2 591314 -9832.7 591398 -9832.9 591315 -9750.8 591275 -9544.9 591358 -9503.5 591441 -9503.6 591400 -9421.2 591441 -9421.4 591400 -9462.5 591400 -9462.8 591318 -9339.3 591360 -9380.3 591401 -9050.2 591648 -9008.6 591772 -9049.7 591772 -8885 591813 -8843.5 591896 -8802.4 591896 -8760.7 592019 -8801.9 592019 -8801.7 592061 -8678 592102 -8431.6 592060 -8391 591978 -8145 591935 -8145.3 591894 -8063.6 591852 -7981.4 591893 -7777.5 591808 -7777.2 591850 -7695.5 591849 -7694.4 591973 -7653.6 591973 -7529.6 592137 -7324.9 592218 -7285.1 592134 -7326.2 592093 -7286 592050 -7080.7 592131 -7040.9 592047 -7042.9 591921 -6961.2 591879 -7005.1 591711 -6964.3 591628 -6920.6 591837 -6836.4 591921 -6876 592047 -6834.6 592047 -6794.3 591964 -6668.9 591966 -6668.6 592007 -6542.5 592051 -6541.8 592175 -6583.3 592216 -6456.7 592384 -6539.9 592383 -6662.4 592550 -6619.1 592717 -6660.5 592717 -6616.7 592925 -6657.6 592967 -6615.8 593009 -6903.3 593134 -6861.7 593175 -6902.1 593259 -6943.8 593217 -6984.2 593300 -6818 593425 -6817.3 593508 -6611.2 593467 -6651.7 593550 -6485.7 593634 -6485.4 593675 -6608.6 593758 -6689.8 593924 -6731.1 593924 -6648.1 593966 -6688.7 594049 -6772.4 593924 -6813.3 593966 -6729.7 594090 -6688.4 594090 -6687.9 594174 -6853.6 594090 -6894 594215 -6728.5 594257 -6686.5 594340 -6725.8 594631 -6642.9 594672 -6642 594797 -6683.3 594797 -6683.1 594838 -6640.9 594963 -6805.4 595087 -6845.8 595212 -6762.2 595378 -6596.6 595420 -6553.4 595752 -6470 595877 -6428.7 595877 -6428.2 595960 -6510.3 596043 -6385.5 596209 -6383.7 596542 -6425 596542 -6424.3 596666 -6383 596666 -6382.8 596708 -6423.9 596749 -6382.6 596749 -6382.3 596791 -6423.4 596832 -6422.8 596957 -6546.5 596998 -6546 597081 -6587.4 597081 -6628.4 597164 -6750 597703 -6791.3 597703 -6790.1 598034 -6831.3 598075 -6830.9 598200 -6913.7 598199 -6913.3 598323 -6954.4 598406 -6871.2 598531 -6953.9 598571 -6912.2 598613 -6953.3 598737 -6911.5 598820 -6994.1 598943 -7076.9 598984 -7200.6 599230 -7200.3 599313 -7241.9 599312 -7324.6 599435 -7324.3 599518 -7407.2 599558 -7406.7 599764 -7489.6 599804 -7531.3 599721 -7614.1 599802 -7613.8 599926 -7489 600010 -7447.3 600094 -7281.1 600179 -7239.5 600221 -7239.1 600344 -7072.8 600471 -7072.7 600512 -7155.5 600551 -7072.1 600677 -7113.4 600717 -7113.1 600799 -6947.2 600802 -6947.2 600761 -6698.1 600848 -6739.5 600888 -6573.1 601015 -6490.3 600976 -6490.6 600893 -6408.1 600771 -6408 600813 -6366.6 600772 -6076.2 600819 -6034.4 600903 -5993 600904 -5992.8 600987 -6034.4 600944 -6034.2 600986 -5743.4 601157 -5577.7 601199 -5618.5 601325 -5660 601324 -5659.8 601366 -5618.1 601366 -5659.6 601406 -5534.4 601364 -5492.1 601403 -5533.4 601446 -5491.1 601486 -5157.4 601435 -5031.3 601514 -5113.7 601598 -5111.2 601804 -4985.2 601883 -5026.9 601884 -5024 602130 -5106.8 602174 -5147.5 602257 -5146.1 602380 -5104.4 602379 -5145.6 602421 -4936.9 602457 -5101.6 602625 -5142.1 602748 -5267 602832 -5266.6 602873 -5350.8 602873 -5307.8 602955 -5391.8 602996 -5433.3 603077 -5432.9 603118 -5348.1 603159 -5431.9 603240 -5304.5 603322 -5303.7 603403 -5345.5 603444 -5302.6 603525 -5218.7 603485 -5135.8 603362 -4969.2 603278 -4926.6 603359 -4801.6 603357 -4721.4 603109 -4723.3 602944 -4598.3 602982 -4597.4 603065 -4431.1 603102 -4428.9 603307 -4345.5 603346 -4303.3 603428 -4179.5 603384 -4096.3 603423 -4055.3 603381 -4097.6 603300 -4180 603343 -4222.3 603261 -4181.2 603219 -4182.5 603096 -4306.8 603099 -4266.2 603016 -4224.4 603056 -3975.9 603050 -3975.4 603091 -3892.6 603090 -3808.9 603170 -3725.1 603292 -3684.2 603250 -3642.4 603290 -3724.8 603333 -3765 603457 -3764.6 603498 -3723.1 603497 -3763.8 603580 -3846.5 603582 -3845.7 603664 -3927.2 603789 -3885.4 603829 -4010.2 603750 -4050.3 603874 -4214.8 603959 -4213.9 604042 -4131.3 604040 -4130.8 604081 -4213 604124 -4252.9 604248 -4087.3 604285 -4086.8 604326 -4128.1 604327 -4085.1 604491 -4167.6 604492 -4166.7 604574 -4084.7 604532 -4084.2 604573 -3959.6 604652 -3959.2 604693 -4000.4 604694 -3958.3 604775 -3957 604898 -4121.4 604943 -4119.9 605066 -3913.2 605144 -3912.3 605226 -3953.4 605227 -3911 605349 -3951.7 605391 -3908.7 605555 -3990.5 605597 -3990 605638 -4113.4 605641 -4112.4 605723 -3906 605801 -3904.7 605924 -3986.3 605967 -4026.4 606050 -3944.7 606007 -3903.4 606047 -3984.1 606172 -4025 606173 -4025.4 606132 -4065.9 606174 -4065 606256 -4146.5 606298 -4145.9 606339 -4105 606339 -4145 606421 -4268.7 606383 -4267.7 606505 -4225.9 606505 -4268 606587 -4437 606626 -4437.4 606748 -4479.7 606789 -4648.1 606787 -4606.3 606869 -4690.7 606950 -4648.8 606991 -4649.1 607072 -4775.1 607071 -4775.3 607112 -4859.1 607030 -5027.4 607110 -5027.5 607192 -5069.6 607232 -5153.4 607150 -5279.5 607272 -5279.4 607231 -5405.3 607189 -5405.4 607312 -5363.5 607352 -5363.5 607434 -5321.6 607434 -5321.7 607516 -5489.4 607596 -5447.6 607678 -5447.5 607637 -5405.7 607638 -5405.9 607760 -5740.8 607839 -5698.9 607840 -5657.1 607921 -5657.3 608003 -5531.8 607963 -5532 608044 -5448.7 608127 -5323.5 608168 -5365.8 608331 -5533.2 608452 -5533.5 608534 -5658.7 608574 -5700.1 608492 -5783.5 608451 -5825.6 608655 -5909 608654 -5909.2 608736 -5950.9 608736 -5950.7 608695 -6075.9 608776 -6076.1 608857 -6117.7 608898 -6242.8 608979 -6284.3 608897 -6326.1 608979 -6284.6 609061 -6201.4 609061 -6201.6 609143 -6284.9 609183 -6285.7 609469 -6327.2 609469 -6244.2 609510 -6244.4 609551 -6410.7 609591 -6328.3 609796 -6245.3 609796 -6328.2 609755 -6286.2 609632 -6244.7 609632 -6090 609858 -6246.3 6.1e5 -6246.9 610123 -6205.9 610205 -6123.2 610246 -6165.4 610368 -6330.8 610327 -6331 610368 -6414.1 610408 -6372.7 610408 -6372.9 610449 -6456 610490 -6415.5 610654 -6291.1 610613 -6291.6 610695 -6374.6 610736 -6333.8 610817 -6417.4 610940 -6335.3 611022 -6128.3 610982 -6005.4 611105 -6130 611186 -6088.7 611186 -6130.7 611268 -6089.5 611268 -6173.5 611432 -6214.7 611432 -6173.8 611473 -6216.2 611595 -6505.9 611677 -6465.6 611800 -6301.3 611882 -6385.7 612086 -6468.6 612127 -6469.4 612209 -6346.3 612291 -6305.8 612373 -6430 612414 -6594.7 612373 -6637.5 612537 -6514.5 612619 -6556.9 612742 -6722.3 612783 -6721.5 612701 -6926.6 612578 -6760.8 612496 -6800.9 612373 -7006 612250 -7087 612085 -7252.3 612126 -7375.6 612085 -7375.9 612126 -7540.1 612044 -7664.1 612085 -7788.7 612208 -7749 612372 -7707.8 612372 -7791.3 612495 -7710.8 612701 -7752.7 612783 -7712.3 612866 -7753.5 612866 -7713 612948 -7754.6 612989 -7919 612948 -7919.4 612989 -7798.2 613236 -7921.8 613236 -8085.6 613154 -8166.9 613030 -8124.5 612907 -8165.7 612907 -8205.7 612783 -8495 612907 -8495.7 612989 -8413.4 612989 -8332.3 613113 -8291.1 613113 -8334.7 613360 -8252.4 613360 -8170.8 613442 -8212.4 613484 -8088.9 613484 -8089.3 613525 -8172.9 613649 -8132.1 613690 -8215.2 613772 -8216.1 613855 -8381.2 613896 -8382 613979 -8423.6 614021 -8382.5 614020 -8382.8 614062 -8424.1 614062 -8425.3 614186 -8385.4 614310 -8344.3 614310 -8345.6 614433 -8388 614558 -8554.1 614682 -8554.5 614724 -8636.9 614724 -8637.7 614807 -8597 614848 -8679.4 614848 -8719.7 614766 -8965.5 614643 -8963.8 614477 -9086.5 614395 -9127.6 614395 -9129.1 614519 -9212.5 614603 -9214.3 614769 -9256.4 614852 -9337.5 614728 -9502.4 614729 -9499.4 614481 -9580.8 614398 -9663.1 614399 -9746.1 614483 -9827.6 614483 -9828.6 614566 -9869.2 614567 -9830.5 614732 -9749.6 614773 -9750.1 614815 -9872.8 614898 -9791.8 614898 -9792.7 614981 -9710.8 614939 -9752.6 615022 -9711.8 615022 -9712.3 615063 -9794.6 615147 -9674 615271 -9715.5 615312 -9717 615437 -9676 615436 -9677.4 615561 -10078 615438 -10279 615481 -10319 615439 -10318 615232 -10236 615107 -10276 615066 -10357 615067 -10358 615233 -10439 615316 -10560 615276 -10560 615235 -10682 615319 -10643 615484 -10724 615568 -10886 615570 -11008 615365 -11130 615408 -11171 615574 -11294 615576 -11498 615374 -11662 615500 -11785 615379 -12073 615386 -12074 615263 -11992 615178 -11993 615096 -12075 615057 -12199 615101 -12199 615060 -12034 615015 -12035 614974 -11870 615011 -11623 614923 -11871 614846 -11871 614805 -11789 614803 -11789 614680 -11707 614636 -11583 614675 -11582 614881 -11541 614962 -11459 614919 -11459 614837 -11336 614752 -11337 614587 -11296 614545 -11420 614341 -11502 614302 -11502 614261 -11338 614133 -11420 614012 -11586 613974 -11751 614143 -11917 614024 -12082 614069 -12164 614154 -12165 614071 -12206 614072 -12207 614031 -12289 614034 -12290 613910 -12373 613953 -12415 613913 -12374 613871 -12415 613831 -12333 613705 -12459 613627 -12501 613463 -12627 613426 -12585 613425 -12585 613383 -12752 613306 -13003 613272 -13335 613364 -13545 613287 -13669 613371 -13791 613618 -13916 613620 -13913 613825 -13786 613986 -13703 613985 -13619 614066 -13659 614148 -13616 614270 -13740 614354 -13696 614517 -13738 614517 -13737 614599 -13569 614679 -13445 614677 -13484 614842 -13359 614881 -13315 615085 -13231 615166 -13314 615167 -13272 615208 -13395 615291 -13561 615334 -13517 615498 -13350 615578 -13390 615701 -13348 615742 -13513 615784 -13639 615703 -13718 615990 -13759 616031 -13675 616113 -13716 616154 -13715 616236 -13632 616235 -13631 616276 -13673 616276 -13672 616317 -13882 616154 -13838 616318 -14006 616237 -14046 616319 -13962 616359 -13961 616441 -14044 616482 -14043 616523 -13918 616564 -14000 616646 -13997 616850 -14037 617014 -14078 617014 -14035 617137 -14033 617301 -14074 617342 -14073 617424 -14114 617424 -14029 617547 -14071 617547 -14069 617669 -14110 617751 -14110 617792 -14068 617792 -14067 617874 -14108 617915 -14066 617997 -13900 617874 -13857 617956 -13940 617997 -13981 618079 -13939 618161 -13980 618243 -13977 618489 -14103 618529 -14313 618488 -14354 618528 -14354 618610 -14269 618774 -14185 618815 -14185 619061 -14059 619266 -13642 619350 -13516 619309 -13475 619392 -13308 619393 -13182 619270 -13062 619312 -13059 619189 -13137 619065 -13136 618983 -13095 618982 -12941 619272 -12824 619354 -12866 619519 -12669 619561 -12669 619602 -12591 619644 -12394 619561 -12394 619519 -12157 619559 -12036 619434 -11878 619516 -11718 619391 -11599 619432 -11434 619098 -11392 618932 -11352 618931 -11311 618848 -10833 618971 -10833 619012 -10793 618970 -10712 618970 -10713 619012 -10592 618970 -10554 619177 -10638 619427 -10640 619593 -10560 619593 -10481 619717 -10482 619800 -10643 619801 -10685 619884 -10688 620092 -10567 620092 -10568 620133 -10691 620300 -10651 620300 -10735 620467 -10695 620508 -10697 620633 -10534 620507 -10453 620549 -10412 620507 -10411 620424 -10169 620505 -10126 620380 -10086 620422 -10004 620380 -9841.6 620420 -9842.1 620462 -9761 620503 -9556.1 620502 -9516.1 620585 -9722.3 620669 -9602.7 620918 -9315.3 620999 -9193.2 621164 -9068.3 621164 -8985.5 621246 -8944.7 621371 -8948.4 621745 -9032.9 621786 -9033.7 621870 -8949.9 621953 -8950.1 622037 -8866.5 622205 -8867.4 622374 -8825.1 622374 -8909.7 622542 -8867.8 622542 -8826.2 622626 -8742.1 622626 -8699.4 622541 -8657.7 622625 -8531.7 622624 -8363.3 622413 -8110.9 622329 -8027.4 622454 -7985 622329 -7943.2 622328 -7817.5 622370 -7692 622453 -7650.3 622536 -7482.8 622619 -7399 622577 -7357.2 622618 -7399.1 622660 -7189.7 622826 -7105.7 622993 -6938 623117 -6895.7 623242 -6853.9 623242 -6853.6 623326 -6811.5 623367 -6810.2 623618 -6599.7 623784 -6557 623909 -6389 623991 -6304.2 624158 -6179 624157 -6221.3 624074" fill="red" stroke="#000" stroke-opacity=".5"/>
</g>
</g>
</svg>
