<?xml version="1.0" encoding="UTF-8"?>
<svg baseProfile="full" version="1.1" viewBox="0 0 3432.9 2477.1" xmlns="http://www.w3.org/2000/svg">
<defs>
<style type="text/css">polyline,line,rect,path,polygon,.polygon{fill:none;stroke:#000;stroke-width:1px;stroke-linejoin:round;}.country {
    fill: grey;
    opacity: 0.40;
    stroke: black;
    stroke-opacity: 0.5;
}
.federal_state {
    fill: red;
    stroke: black;
    stroke-opacity: 0.5;

}</style>
</defs>
<g transform="scale(1 -1) translate(-3241.2 -671316)" fill_rule="evenodd">
<g class="NAME">
<polygon class="federal_state" points="6596.2 670141 6351.1 670088 6354.6 670005 6651.2 669810 6449.1 669718 6463 669386 6504.2 669388 6591.7 669267 6391.2 669134 6351.7 669090 6355.2 669007 6312.3 669047 6278.1 668879 5988 668908 5814.5 669108 5810.9 669191 5771.6 669147 5819.7 668983 5697.8 668936 5694.3 669019 5615.3 668932 5489.9 668968 5443.5 669091 5233.8 669164 5185.7 669328 5104.8 669283 5068.8 669157 4984.6 669194 4946.7 669109 4905.4 669108 4731.8 669307 4771.3 669350 4762.8 669558 4718.1 669639 4510 669670 4463.6 669793 4501.5 669878 4376.1 669913 4369.2 670079 4240.5 670197 4237 670280 4194.2 670319 4185.6 670526 4099.8 670605 3933.5 670638 3471.8 670863 3299.4 671061 3251.5 671224 3372.5 671272 3497.1 671237 3543.3 671116 3625.4 671120 3710.9 671041 3791.3 671087 3834.2 671048 3871.7 671133 3996.9 671098 3883.8 670843 3967.8 670806 3969.5 670764 4091.2 670812 4087.8 670895 4209.6 670943 4426.1 670704 4508.6 670708 4510.3 670667 4672 670758 4756.2 670720 4795.7 670764 4965.9 670647 4969.3 670564 5093 670570 5178.9 670491 5220.1 670493 5257.9 670578 5259.6 670537 5548.1 670550 5632.3 670513 5637.4 670388 5767.9 670228 6015 670239 6054.4 670283 6056.1 670241 6097.3 670243 6174.4 670371 6335.5 670462" fill="red" stroke="#000" stroke-opacity=".5"/>
</g>
</g>
</svg>
