<?xml version="1.0" encoding="UTF-8"?>
<svg baseProfile="full" version="1.1" viewBox="0 0 17819 25150" xmlns="http://www.w3.org/2000/svg">
<defs>
<style type="text/css">polyline,line,rect,path,polygon,.polygon{fill:none;stroke:#000;stroke-width:1px;stroke-linejoin:round;}.country {
    fill: grey;
    opacity: 0.40;
    stroke: black;
    stroke-opacity: 0.5;
}
.federal_state {
    fill: red;
    stroke: black;
    stroke-opacity: 0.5;

}</style>
</defs>
<g transform="scale(1 -1) translate(8831.1 -642787)" fill_rule="evenodd">
<g class="NAME">
<polygon class="federal_state" points="3453.4 642434 3656.7 642400 3736.5 642443 3774.6 642527 3855.9 642529 3858.3 642448 3942.2 642369 4064.5 642373 4267.8 642421 4266.6 642461 4347.5 642505 4389.7 642466 4349.8 642423 4434.1 642344 4395.4 642261 4438.7 642181 4775.6 641906 4738.7 641741 4575.1 641695 4497.4 641529 4414.4 641567 4333.8 641523 4290.7 641603 4249.9 641602 4336 641441 4338.3 641360 4260.1 641234 4097.6 641229 4100 641147 4183.5 641068 4228.7 640906 4313.3 640786 4479.4 640670 4363 640460 4411.5 640175 4451.9 640177 4494.7 640097 4375.5 640009 4417.1 639970 4295.9 639965 4177.3 639877 4095.5 639915 4018.8 639787 3978.5 639785 3903.4 639617 4025.2 639581 4026.5 639540 3989 639455 3868.5 639450 3869.9 639408 3910.1 639410 3914 639286 4076 639253 4243.5 639054 4322.5 639100 4651 638910 4648.3 638992 4688.5 638994 4731.5 638914 5098.6 638768 5337 638905 5371.1 639113 5331 639071 5289.7 639110 5369.9 639235 5287.3 639232 5288 639191 5328.8 639193 5131 639018 5128.5 639101 4958.5 639421 4918 639419 4875.5 639499 4915 639542 4995.2 639586 5077.4 639549 5240 639636 5238.8 639717 5405.3 639802 5577 639764 5574.1 639927 5532 639886 5530.5 639967 5699.7 640051 5744.2 639971 5873.5 639932 5835.1 639728 5923.2 639607 6052.1 639609 5963.8 639729 5960 639893 5916.2 639933 5955.7 640056 6083.7 640059 6128.8 639977 6210.4 640102 6338.1 640105 6342.1 639982 6475.8 639820 6518.4 639820 6524.1 639656 6481.2 639655 6439.5 639573 6529.1 639284 6487.5 639243 6614.6 639161 6617.1 638996 6577 638872 6787.9 638790 6831.9 638666 6790.8 638625 6999.8 638625 7040.8 638667 7084.1 638584 7167.5 638585 7168.4 638543 7376.8 638544 7420.2 638462 7338.7 638379 7340.4 638296 7509 638215 7467.3 638214 7510 638173 7511.8 638091 7471 638049 7514.6 637967 7638.7 638009 7640.6 637926 7808.1 637886 7932 637928 7974.5 637887 7973.6 637928 8060.6 637764 8184.3 637806 8352.3 637724 8396.8 637601 8479.9 637602 8480.8 637560 8564.8 637520 8646.7 637562 8609.3 637396 8487.9 637272 8490 637189 8449.4 637148 8450.4 637106 8534.5 637066 8453.4 636983 8500.1 636777 8376.5 636734 8289.3 636899 8288.3 636940 8329.8 636940 8327.8 637023 8244.7 637022 8242.7 637105 8200.1 637146 8076.3 637104 8077.3 637062 7909.8 637103 7911.6 637020 7870 637020 7871 636979 7954.3 636979 7998.9 636856 8125.8 636774 8250.6 636775 8253.7 636651 8170.4 636650 8214.1 636568 8050.5 636443 8138.8 636238 8055.4 636237 8059.4 636072 8184.4 636073 8311.4 635992 8352 636033 8354 635951 8437.3 635951 8482 635828 8567.2 635746 8527.6 635663 8401.8 635703 8402.8 635662 8487 635622 8488.1 635580 8405.9 635538 8448.6 635498 8408 635456 8240.3 635496 8117.3 635413 7991.1 635453 7948.4 635494 7990.1 635494 7946.3 635577 7821 635576 7781.1 635493 7568.9 635615 7486.1 635574 7317.3 635614 7235.4 635531 7237.4 635449 7196.4 635407 7158.4 635242 7329.2 635119 7247.2 635036 7332.2 634995 7335.2 634872 7460.1 634914 7503.1 634873 7421.2 634790 7253.2 634789 7209.3 634871 7128.3 634747 7042.3 634828 7043.2 634787 6958.2 634828 6917.2 634786 6663.6 634866 6707.3 634784 6710.2 634660 6668.3 634659 6669.2 634618 6753.2 634619 6793.2 634702 6960.2 634745 6797.9 634496 6883.8 634414 6924 634497 7048.1 634581 7132.2 634581 7133.2 634540 7389.3 634377 7349.3 634294 7476.4 634254 7478.5 634171 7189.1 633963 7193.1 633798 7318.4 633840 7198.1 633592 7111.7 633674 7030 633550 6859.4 633631 6694.4 633464 6695.3 633423 6737.4 633423 6739.1 633341 6656.5 633258 6658 633176 6743.9 633094 6702.5 633053 6745.6 633012 6619.7 632969 6534.7 633009 6536.9 632886 6496.1 632803 6623.1 632764 6626.3 632559 6584.7 632517 6627 632518 6586.5 632394 6544.3 632394 6378.7 632186 6463.1 632147 6463.9 632066 6339.1 631941 6297 631981 6214.9 631816 6173.5 631814 6215.3 631734 6215.7 631572 6174.5 631531 6174.8 631449 6257.5 631412 6385.4 631493 6386.4 631452 6518.3 631368 6692.6 631325 6777.6 631366 6775.2 631450 6817.4 631491 6684.2 631656 6682.5 631739 6724.8 631780 6897.5 631779 6896.6 631820 6982.1 631861 7412.9 631859 7458 631777 7500.6 631777 7546.7 631653 7589 631653 7592.8 631529 7682.2 631364 7686 631240 7557.6 631239 7512 631323 7427 631281 7346.4 631154 7436.9 631028 7441.5 630818 7402.1 630692 7531.3 630527 7410.5 630274 7368.6 630273 7371.2 630147 7413.1 630148 7372.9 630064 7378.3 629813 7258.5 629560 7094.2 629431 7014.7 629262 6809.8 629091 6852.8 629050 6812.1 629007 6727.3 629047 6562.1 628960 6522.5 628875 6399.3 628789 6233 628744 6187.3 628868 6107.2 628741 6023.2 628739 5936.7 628820 5852.7 628818 5678.7 629025 5552.8 629022 5513.3 628937 5468.4 629021 5384.3 629019 5345 628934 5303.1 628933 5392.1 628766 5349.9 628765 5355.2 628597 5276 628427 5278.5 628343 5197 628257 5200 628174 5285.6 628134 5299.2 627761 5261.7 627635 5181.1 627550 5056.3 627548 4938.6 627379 4653.5 627290 4540.5 627039 4748.9 626960 4711.1 626876 4506.3 626872 4426.2 626828 4427.9 626787 4266.6 626742 4183.5 626782 4144.5 626739 4098.6 626863 3858.9 626775 3855.3 626858 3812.9 626899 3733.8 626856 3566.7 626977 3572.3 626852 3533.9 626810 3621.8 626645 3581.5 626644 3709.6 626481 3711.4 626439 3590.4 626437 3599.1 626229 3642.8 626147 3804.1 626150 3807.5 626067 3731.9 625941 3651.3 625939 3658.1 625773 3748.4 625525 3716.2 625317 3594.1 625355 3595.7 625314 3515.4 625312 3473.8 625353 3475.4 625311 3000.2 625176 2957.1 625258 2917.2 625258 2870.6 625423 2697.5 625752 2579.8 625708 2415.6 625829 2260.4 625743 2136.2 625865 1900.6 625818 1899.1 625860 1700.3 625938 1623.2 625894 1624.6 625853 1428.8 625806 1474.8 625642 1359.6 625557 1213.1 625263 1172.8 625263 1169.3 625345 1244 625471 1238.3 625594 1118.5 625549 989.44 625668 823.09 625662 784.23 625579 657.55 625616 242.01 625522 122.13 625313 128.06 625068 45.234 625024 -34.944 624858 -33.303 624776 9.3851 624737 217.93 624784 344.36 624747 348.74 624501 391.87 624420 351.5 624337 394.43 624256 478.4 624218 437.89 624134 269.11 624253 228.64 624170 271.04 624130 272.24 624048 230.56 624047 231.09 624006 273.95 623925 275.59 623802 317.27 623803 235.53 623678 277.15 623679 278.27 623597 320.42 623558 322.47 623394 282.39 623270 324.05 623271 367.76 623108 370.35 622903 454.57 622824 330.25 622780 330.76 622739 414.49 622700 415.49 622618 332.82 622575 375.44 622494 540.78 622580 501.24 622415 706.91 622584 707.39 622543 748.89 622544 749.44 622503 666.45 622501 667.4 622419 709.48 622379 627.41 622295 669.5 622255 756.16 621970 879.56 622055 1045.9 622017 1005 621975 1048.1 621853 883.29 621768 843.93 621604 1010.6 621565 1136 621485 1095.2 621443 1178.2 621444 1096.4 621361 1057.8 621156 933.69 621113 977.62 620950 852.83 620948 687.47 620864 688.58 620782 730.22 620783 690.8 620619 816.8 620539 776.86 620415 819.72 620334 737.5 620251 654.1 620250 531.18 620085 533.92 619880 659.16 619882 787.81 619638 790.79 619433 708.3 619351 750.11 619351 750.67 619310 667.11 619309 668.21 619228 878.43 619147 879.63 619065 965.07 618942 799.02 618860 754.2 619064 629.31 619023 502.62 619104 379.33 618939 421.18 618940 421.71 618899 338.53 618857 339.61 618776 -37.952 618812 -80.892 618893 -122.74 618892 -121.76 618811 -331.81 618848 -288.44 618727 -329.88 618686 -328.99 618604 -371.35 618644 -453.89 618521 -452.48 618399 -410.52 618400 -325.13 618279 -492.64 618236 -534.15 618195 -533.21 618113 -659.25 618111 -702.07 618192 -741.48 617948 -907.73 617822 -1031.7 617658 -1115.2 617655 -1157.3 617695 -1158.1 617775 -1241.5 617773 -1240.6 617692 -1323.5 617649 -1449.9 617807 -1366.7 617809 -1409.2 617889 -1326.4 617932 -1201.4 617936 -1202.2 618017 -1160.9 618059 -1202.9 618098 -1205.1 618301 -1247.2 618340 -1248.4 618461 -999.25 618590 -956.22 618470 -997.66 618428 -955.48 618389 -872.21 618431 -789.85 618555 -706.47 618597 -709.12 618841 -750.53 618799 -960.12 618835 -1168.4 618788 -1167.6 618707 -1209.2 618706 -1293.9 618825 -1296 619027 -1254.3 619029 -1254.8 619069 -1421 619023 -1461.4 618900 -1587.1 618977 -1669.8 618933 -1837.5 619049 -1961.2 618963 -1962.1 619044 -2130.7 619240 -2089.6 619283 -2173.2 619320 -2215.7 619399 -2217.2 619521 -2301.4 619599 -2259.8 619601 -2261.8 619764 -2178.8 619767 -2138.2 619850 -2181.3 619970 -2263.9 619926 -2183.4 620133 -2267.1 620171 -2888 619981 -2927.2 619816 -2843.7 619779 -2797.8 619455 -2754 619294 -2712.6 619296 -2752.9 619213 -2794.3 619211 -2834.1 619087 -2876.1 619126 -2957.3 619000 -3205.7 618988 -3373.8 619144 -3417.6 619305 -3838.9 619736 -4128.3 619682 -4213.2 619801 -4257.4 619963 -4383 620039 -4601 620685 -4603.6 620849 -4563.3 620932 -4440.1 621020 -3985.7 621202 -3864.6 621453 -3700.1 621582 -3701.8 621705 -4117.4 621688 -4247.9 622093 -4417 622292 -4418.7 622415 -4338.3 622623 -4423.2 622743 -4589.9 622777 -4675.7 622980 -4554.7 623272 -4556.3 623395 -4642 623597 -4686.5 623843 -4771.5 624004 -5023.6 624242 -5192.3 624483 -5318.2 624602 -5817 624668 -5982.2 624579 -6106.8 624575 -6436.9 624357 -6810.4 624305 -7266.6 624046 -7978 624008 -8062.6 624093 -8105.8 624219 -8108.1 624428 -8276.8 624555 -8446.2 624766 -8698.8 624937 -8700.2 625104 -8616.5 625103 -8492.7 625311 -8241.3 625266 -8242.4 625392 -8284.2 625392 -8201.3 625475 -8243.9 625559 -8160.7 625600 -8161.9 625725 -8078.6 625766 -7994.5 625724 -8036 625683 -7952.3 625682 -7868 625597 -7743.3 625680 -7616.2 625511 -7615.5 625427 -7574.1 625469 -7616.7 625553 -7619.2 625804 -7578.2 625887 -7536.4 625887 -7663.4 626056 -7831.6 626140 -7874.4 626223 -7833 626264 -7876.2 626347 -7668.6 626514 -7711.9 626596 -7461.3 626680 -7419 626638 -7377.6 626680 -7378.6 626763 -7129.2 626847 -7088.5 626931 -6962.7 626848 -7003.9 626806 -6919.8 626723 -6794.5 626682 -6753.8 626766 -6588.9 626893 -6673.4 627017 -6756.5 627016 -6715.4 627058 -6757.9 627141 -6841 627140 -6841.5 627182 -6758.8 627224 -6759.6 627308 -6552.4 627352 -6426.8 627270 -6425.9 627187 -6343.3 627230 -6218.3 627190 -6219.8 627315 -6137.2 627358 -6140.2 627608 -6182.6 627690 -6266 627731 -6227 627939 -6476.8 628019 -6435.7 628061 -6437.6 628228 -6479.5 628269 -6480.9 628394 -6522.5 628393 -6523.4 628476 -6650 628516 -6651.6 628600 -6694.1 628599 -6693.2 628558 -6864.9 628597 -6822 628598 -6826.6 628764 -7041.5 628761 -7088.5 628885 -7173 628842 -7218.7 628924 -7091.4 628968 -7052.8 629093 -7055.8 629176 -7141.8 629175 -7143.4 629216 -6888 629304 -6892.9 629429 -6980.9 629468 -7027.3 629550 -6984.2 629551 -7072 629591 -7077.1 629715 -7120.1 629714 -7125.3 629838 -7041.3 629882 -7086 629922 -7089.6 6.3e5 -7007.6 630090 -7011.4 630173 -6843.6 630260 -6725.3 630471 -6639.1 630474 -6684.7 630514 -6460.2 630394 -6454.8 630311 -6272 630270 -6088.8 630269 -6051.1 630312 -6135.9 630312 -6140 630354 -5937.9 630439 -5980.2 630480 -5985.8 630564 -5876.8 630774 -5849.7 630983 -6080.4 631113 -5952.1 631194 -5968.2 631363 -6119.6 631495 -6128.3 631580 -6172.1 631579 -6217 631660 -6227.9 631827 -6158.7 631877 -6118.8 631959 -6125.3 632043 -6080.4 632082 -5982.6 632036 -5903 632200 -5909.3 632284 -5788.3 632490 -5889.1 632659 -5893.8 632743 -5937.7 632744 -5897.8 632826 -6027.1 632869 -6028.4 632910 -5986.1 632910 -6073.5 632993 -6119.8 633117 -6035.2 633116 -5786.9 633280 -5709.4 633486 -5586.9 633609 -5501.9 633608 -5258.2 633895 -5133.9 633977 -5137.4 634059 -5096.6 634101 -4926.4 634099 -4784.9 633848 -4447 633887 -4445.1 633846 -4361 633846 -4366.5 633970 -4202 634052 -4207.1 634176 -4084.6 634259 -4086.2 634300 -3922.2 634383 -3883.5 634465 -3716.4 634426 -3768.7 634754 -3686.9 634795 -3737 635001 -3652.5 635001 -3654.1 635042 -3611.9 635042 -3451.6 635295 -3248.4 635508 -3124.6 635553 -3211.1 635676 -3257.7 635840 -3340.5 635797 -3383.9 635838 -3221.9 636049 -3397.4 636254 -3235 636465 -3107 636426 -3067.4 636510 -2731.8 636519 -2312.2 636406 -2066.5 636579 -1941 636541 -1858.7 636584 -1860.5 636667 -1985.1 636664 -2031.1 636870 -1909.9 637040 -1623.9 637297 -1629.9 637588 -1506.7 637674 -1676.2 637794 -1767.4 638124 -1810.3 638164 -1729.5 638291 -1814.3 638331 -1816.4 638414 -1943.5 638452 -2026.6 638408 -2027.8 638449 -2109.7 638364 -2487.5 638271 -2609.5 638101 -2781 638138 -2875.4 638385 -3007.3 638465 -2969.1 638591 -2883.3 638593 -2800.6 638678 -2803.8 638761 -2760.8 638762 -2679.8 638889 -2683 638972 -2555.9 639017 -2560.7 639142 -2433.7 639187 -2303.9 639149 -2308.4 639273 -2099.4 639404 -2146.6 639527 -2062.6 639571 -1678.3 639540 -1469.9 639670 -1090.8 639722 -1089.7 639681 -1005.5 639683 -1004.6 639642 -876.73 639562 -670.33 639734 -295.27 639705 -255.07 639789 -257.36 639955 -185.48 639988 -218.72 640164 -426.52 640157 -387.39 640324 -472.82 640405 -432.3 640489 -604.51 640609 -608.12 640733 -525.57 640819 -65.687 641040 -63.666 640999 290.69 641173 293.64 641091 416.67 640971 737.45 640939 778.47 640899 780.54 640817 666.88 640524 706.97 640525 709.58 640401 791.58 640321 912 640325 1070.6 640413 1113.6 640290 1232.9 640335 1308 640545 1387 640589 1589.3 640513 1660.2 640846 1777.8 640933 1897.8 640937 1973 641105 2212.9 641113 2246.8 641321 2206.8 641319 2283 641446 2279.3 641569 2397.9 641615 2395.4 641697 2474 641741 2510.2 641865 2588.7 641909 2626.1 641993 2545 642031 2379.1 642230 2536.1 642318 2617.1 642280 2614.5 642362 3012.1 642418 3165.6 642628 3363.7 642717 3486 642680 3410.5 642514" fill="red" stroke="#000" stroke-opacity=".5"/>
</g>
</g>
</svg>
