<?xml version="1.0" encoding="UTF-8"?>
<svg baseProfile="full" version="1.1" viewBox="0 0 4097.6 3846.7" xmlns="http://www.w3.org/2000/svg">
<defs>
<style type="text/css">polyline,line,rect,path,polygon,.polygon{fill:none;stroke:#000;stroke-width:1px;stroke-linejoin:round;}.country {
    fill: grey;
    opacity: 0.40;
    stroke: black;
    stroke-opacity: 0.5;
}
.federal_state {
    fill: red;
    stroke: black;
    stroke-opacity: 0.5;

}</style>
</defs>
<g transform="scale(1 -1) translate(1847.9 -679006)" fill_rule="evenodd">
<g class="NAME">
<polygon class="federal_state" points="472.8 678659 554.53 678783 809.63 678703 849.89 678785 1099.9 678910 1097.9 678992 1310.1 678912 1313.1 678789 1232.1 678665 1190.1 678665 1188.9 678706 1064.7 678622 1065.7 678582 1107.8 678582 1068.7 678458 1028.5 678376 945.04 678334 1072.7 678294 1117 678212 1201.3 678213 1203.3 678131 1245.5 678131 1376 677968 1294 677885 1506.4 677805 1464.4 677804 1508.6 677723 1301.4 677598 1302.5 677557 1344.7 677557 1348 677434 1306.9 677393 1394.6 677270 1140.8 677268 1139.7 677309 1099.4 677227 1057 677226 1060.1 677103 1017.7 677103 1018.7 677062 1104.6 677021 1106.7 676939 1023.9 676856 1069.5 676734 1153.4 676775 1115 676611 1158.6 676570 1288.3 676489 1373.3 676490 1456 676573 1499.6 676532 1501.7 676450 1545.4 676410 1505 676327 1591.2 676287 1632.6 676328 1637.2 676164 1851.6 676084 1855.5 675961 2071.6 675799 2031.3 675758 2074.7 675717 2157.6 675718 2154.6 675800 2236.8 675801 2200.7 675637 2119.5 675636 2120.9 675595 1993.3 675510 1778.9 675424 1650 675173 1178.8 675207 1049 675330 961.71 675494 789.83 675492 703.25 675574 702.53 675657 615.47 675780 356.49 675943 314.75 675818 358.01 675777 186.74 675734 186.39 675775 101.17 675691 230.51 675610 -26.645 675524 -26.256 675441 -155.02 675398 -155.39 675481 -370.42 675562 -369.95 675479 -625.36 675393 -541.18 675518 -584.19 675559 -499.37 675643 -542.88 675768 -671.98 675891 -925.13 675639 -924.04 675555 -1096.4 675803 -1308.8 675924 -1310.2 676008 -1352.2 676007 -1355.5 676216 -1314.4 676300 -1440.3 676256 -1483 676297 -1441.6 676340 -1569.1 676421 -1571.9 676588 -1487.4 676589 -1573.6 676713 -1574.5 676838 -1531.9 676838 -1532.9 676962 -1830.8 677002 -1748.7 677207 -1791.7 677288 -1708.2 677371 -1709.5 677493 -1625.1 677495 -1626 677576 -1668.7 677616 -1586.1 677781 -1543.9 677782 -1542.5 677659 -1329.1 677538 -1414 677538 -1369.7 677415 -1154.9 677293 -1070.6 677334 -1113.2 677334 -1072 677416 -986.99 677417 -862.98 677623 -736.93 677706 -655.74 677912 -613.23 677912 -615.44 678035 -531.25 678077 -63.269 677998 -64.915 678080 -22.542 678081 -67.419 678203 13.935 678368 480.14 678331 476.49 678495 558.22 678619 473.77 678618 515.06 678660" fill="red" stroke="#000" stroke-opacity=".5"/>
</g>
</g>
</svg>
