<?xml version="1.0" encoding="UTF-8"?>
<svg baseProfile="full" version="1.1" viewBox="0 0 34682 29694" xmlns="http://www.w3.org/2000/svg">
<defs>
<style type="text/css">polyline,line,rect,path,polygon,.polygon{fill:none;stroke:#000;stroke-width:1px;stroke-linejoin:round;}.country {
    fill: grey;
    opacity: 0.40;
    stroke: black;
    stroke-opacity: 0.5;
}
.federal_state {
    fill: red;
    stroke: black;
    stroke-opacity: 0.5;

}</style>
</defs>
<g transform="scale(1 -1) translate(16530 -677132)" fill_rule="evenodd">
<g class="NAME">
<g fill="red" stroke="#000" stroke-opacity=".5" fill_rule="evenodd">
<polygon class="federal_state" points="-14130 673191 -14117 673144 -14143 673107 -14165 673136"/>
<polygon class="federal_state" points="-14806 673465 -14484 673275 -14538 673218 -14887 673207 -15086 673084 -14930 672918 -14864 672913 -14840 672832 -14889 672793 -14914 672834 -14908 672778 -14967 672777 -14960 672882 -15007 672923 -15097 672874 -15088 672799 -15475 673028 -15536 673191 -15511 673274 -15681 673261 -15676 673406 -15642 673429 -15421 673317"/>
<polygon class="federal_state" points="-14388 673777 -14340 673803 -14229 673707 -14352 673649 -14412 673706"/>
<polygon class="federal_state" points="-13872 673826 -13822 673775 -13874 673761 -13850 673699 -13907 673521 -14042 673544 -14119 673670 -14118 673731 -14019 673722 -14036 673757"/>
<polygon class="federal_state" points="-14388 673777 -14424 673691 -14457 673695 -14458 673779 -14378 673869 -14268 673875 -14353 673844"/>
<polygon class="federal_state" points="-12824 674140 -12579 674090 -14178 673919 -14147 673995 -14046 674042"/>
<polygon class="federal_state" points="-11111 674530 -10940 674495 -11052 674405 -11414 674318 -11827 674355 -11929 674275 -12031 674305 -12084 674377 -12116 674267 -12211 674266 -12293 674355 -12236 674434 -11985 674523 -11330 674455"/>
<polygon class="federal_state" points="-5530.6 674500 -5454.4 674435 -5520.6 674411 -5584.2 674306 -5715.9 674336 -5718.4 674431"/>
<polygon class="federal_state" points="-10596 674642 -10395 674582 -10363 674532 -10416 674486 -10639 674482 -10808 674501 -10821 674560"/>
<polygon class="federal_state" points="-9406.7 674870 -9154.4 674838 -9053.2 674765 -9805.5 674724 -9934.9 674495 -10008 674530 -10074 674495 -10113 674548 -10094 674755 -9993.4 674855"/>
<polygon class="federal_state" points="-4789.6 674894 -4768 674857 -4863.8 674812 -4855.7 674886"/>
<polygon class="federal_state" points="-8526.7 675101 -8326.5 675027 -8281.7 675078 -7872.2 675034 -7968.6 674965 -8303.2 674893 -8591.8 674942 -8700.4 674814 -8790.9 674874 -8666.4 675070"/>
<polygon class="federal_state" points="-6530.2 675138 -6461.7 675059 -6488.2 674992 -6391.4 674839 -6450.7 674790 -6448.5 674682 -6539.1 674757 -6548.6 674863 -6675.4 674966 -6572 675027 -6555.9 675132"/>
<polygon class="federal_state" points="-7275.6 675241 -7005.8 675166 -6802.8 675021 -6929.8 675103 -7175.4 675088 -7408.4 675178 -7476.9 675019 -7494.1 675087 -7602.7 675166 -7462.4 675238"/>
<polygon class="federal_state" points="-4101.5 675670 -4083.4 675648 -4149.4 675639 -4131.5 675587 -4215.9 675563 -4274 675607 -4218.6 675665"/>
<path class="polygon federal_state" d="m-2098.3 676281 54.112-154.83 95.024 5.7986-18.347-18.478 40.128-15.619-43.99-33.828 69.469 8.972 50.893-65.119-36.659-30.765 51.222 15.253 58.21-74.395-18.402-27.783 196.87-161.45 259.28-115.22 256.06 14.842 318.1-65.578 621.9 141.63 252.33-52.571 29.237 64.924 211.99 126.88 306.94 108.51-22.248 234.46 309.58-29.927 369.88 54.122 582.53-183.02 467.22-514.69 307.79-725 85.767-119.49 591.62-508.8 46.831-202.9 85.889-119.36 5.7889-204.63 45.906-162.26 87.264-160.71 841.37-538.74 630.73-101.86 2.775-123.93-42.663-0.79273 2.7127-124.4 87.887-122.68-84.51-2.2604 5.1523-167.08 128.54-79.535-40.797-43.063 43.293-40.498 125.24 45.357-39.877-84.455 6.2163-208.71 42.009 1.3574 2.5309-83.432 214.04-118.77 175.74-245-2.2547 83.22 249.58 255.76 130.78-121.42 45.227-123.51-83.638-85.205 43.569-40.498-82.41-126.78 254.15 89.608-1.6198 83.015 216.08-77.695 1.524-83.016 42.921 1.0504 85.216 43.664-1.54 83.016 255.89 89.401-130.43 79.613 84.029 84.993 0.92645-41.421 128.68 3.211 41.949 42.47-43.816 40.286 40.003 125.23 261.16-158.92 88.744-121.93 1.8657-82.798 87.695-80.667 171.8 4.6926 89.553-163.5 131.49-120.82 471.51-28.026 125.43 252.71 419.83 177.86 82.03-80.078 321.04 8.3408 124.18-161 652.32-392.69 362.45-30.116 123.74-119.75 198.4 126.84 493.39-41.505 163.19 39.463 212.09-208.41 44.815-124.13 123.67-2.3387-38.783-81.536 42.472-41.931 211.01-169.43 248.92-47.362 43.654-83.596-1.1729 41.241 122.87 37.883-1.1995 41.368 82.707-2.1926 38.998 81.476 123.09 37.953-84.044 43.656-2.4186 82.651 125.48-44.689 81.643 39.144 37.9 123 82.913-2.0312 45.033-124.69 84.177-42.484 81.831 40.735 208.86-40.891-39.293-82.784 84.361-40.511 47.382-205.86 41.67 0.39759-38.151-124.29 41.611 0.39594 3.3849-123.94 83.155 0.80079 129.22-164.25 174.98-329.61 2.1684-82.867 339.54-286.87 165.9 1.7622 43.774-82.604-41.569-0.34612 1.1-41.496 377.81-119.07 2.2732-82.863-78.802-167.16-83.333-1.2894 85.576-81.701 4.564-165.81 83.437 1.3918 81.1 84.224 166.83 2.8122 213.13-162.22 42.871-40.647 6.9755-248.66 129.67-163.33 212.91-161.73 45.154-123.43 168.85-79.571 205.87 87.028 122.57 85.352-1.1793 41.493 166.43 3.4567 205.76 87.157 341.87-324.22 167.43-37.672 80.812 84.686 83.124 1.8401 86.489-122.42 209.96-78.168 1.1543-41.366-243.53-212.5-39.41-83.663 41.618 0.92701 2.2713-82.733-167.31 37.691-43.84 81.865-122.47-85.446-111.06-499.28 87.648-163.6-206.7-46.005-285.45-213.09-119.14-209.49-166.4-3.5508-203.53-169.89-124.88-2.6272-121.57-126.73-124.92-2.5642-42.847 40.5-2.232 82.73-83.374-1.6308-39.371-83.622-250.29-4.9598-2.2423 82.644-42.855 40.621-83.502-1.5631-2.2213 82.858-208.89-3.9338-211.36 78.964 1.1052-41.365-291.07-87.866-127.1 39.337-4.413 165.93-166.74-43.887-210.78 38.946 1.0408-41.494-292.32-1.4005 0.89632-41.583-41.461 0.16834 4.6061-208.21-80.265-124.32-82.915 0.87144-38.696-124.39-120.78-164.43-290.52 52.161-39.384-80.852-41.172 2.6137-41.167 2.9145-43.004 85.912-244.35-62.377-246.43 64.207-38.67-77.636-202.31-19.009 41.828-43.974 3.5856-120.73-79.951-32.228 5.3626-159.02 41.749-44.403-37.692-74.578 3.1202-174.87 125.77-222.59 1.3805-88.564 81.63-0.99332 42.189-88.95-40.107-43.62 2.0816-132.82 41.563-44.602 2.7961-177.13 244.46 38.458 42.274-88.754-38.752-129.19 82.487-45.868 127.02-266.01 124.23-92.635 2.1651-129.55 125.03-135.42 44.089-175.1 40.814-1.3828 86.35-218.59 125.93 43.407 41.106 85.591 213.63 49.883 5.383-208.39-84.764-44.943-82.466-127.9-85.601-2.7785 46.938-121.68-42.668-1.4051 4.4665-123.16-42.032-0.70516 48.219-163.3 136.03-243.14 353.84-401.8-213.19 35.493-1.4728 41.139-208.02-86.455-40.035-41.368 43.271-40.479-40.12-41.37 3.2315-81.932-41.722-0.31582 6.3658-163.87 88.29-121.92 85.186-40.1 4.919-122.85 215.57-160.55 3.0927-82.062 214.92-159.5 87.7-121.28 125.22 3.0859 44.398-81.179 41.725 0.98229 2.6232-82.201 82.01 43.115 1.3231-41.143-41.667-0.98773 5.2778-164.32-80.532-84.119-83.155-1.9458-80.376-83.959-167.52 37.834-164.15-43.314 1.5304-40.882 125.65-39.397 217.37-283.35 41.379 0.83135 2.7282-82.028-39.826-41.755-82.589-1.4354-38.294-82.542-41.118-0.51312 85.383-80.605 45.623-122.38 166.25-38.208 45.507-122.37-39.86-41.639 45.436-122.12 123.58 2.1917 87.797-162.27-81.057-42.635 1.3961-40.928-123.34-2.185-160.98-84.263-78.812-83.01 1.4894-40.925 40.866 0.59849-80.115-42.116 7.4392-204.67 125.35-80.146 205.41-38.003-38.014-82.431 43.607-81.323-80.13-42.157-35.024-164.23-161.23-43.321-78.15-82.979 42.02-40.342-199.68-84.775-37.465-82.373-83.251 39.784-166.59-42.613 4.8283-122.94 212.49-79.578-27.837-328.16-593.38 34.275-207.13-125.35-1138.7-8.13-292.17-83.516 88.85-163.76-125.14-41.495 2.2919-82.168-40.942-41.341-84.225-0.12272 43.286-41.088-85.455 40.946-125.21-41.295-2.0766 82.046-42.151-0.16985 1.0465-41.108-168.25-0.80556 2.1196-81.409-41.939-1.0387 174.29-247.09 2.1809-83.529 125.27 42.931 1.9823-83.067 127.5-40.735-40.196-83.167 167.78 42.211 86.444-82.492-209.08-84.092-80.912-126.57 44.231-82.672-39.868-84.769 212.32-78.91 88.495-165.22-41.229-42.459 3.2832-125.1-121.59-170.77-83.82-2.9088-81.535-87.144 2.2951-84.079-206.55-94.04 2.3153-84.503 83.447 4.2945 2.2687-84.419-82.179-46.671 6.9926-253.76 42.819-39.98 6.0347-211.51-40.358-44.733 85.602-79.915 2.4985-84.627 83.137 5.0666 1.2221-42.25 210.75-71.168 4.6552-168.92 44.063-81.562 41.645 3.0708 46.299-165.64 83.331 6.3723 43.962-80.782 46.202-164.39-82.04-49.527 43.834-80.446 4.759-169.34 130.03-196.4 126.72-107.17-203.12-78.2 43.915-80.437-285.73-122 2.9286-86.613 41.301 3.1912 44.24-83.249-123.91-8.9375 4.4753-129.75 42.807-41.561 3.0207-86.824 208.58-65.08-76.887-144.79 41.249-35.216-120.7-57.745-215.85 255.41-82.47-1.4187 1.4376-42.586-41.254-0.45001-118.04-169.85-203.81-85.336-84.062 41.154-122.57-42.759-215.27 248.74-250.77 80.997-85.473 82.622-453.16-46.817 45.577-124.43 1.358-41.783-41.316-0.36746 42.737-41.245 2.7835-83.268-122.58-42.748 42.691-41.252 2.7483-83.141-38.507-83.416-121.32-84.079 2.7294-83.185-202.66-125.91-1.3294 41.487-41.368-0.33156-38.62-83.131-41.381-0.32507 5.2878-165.78-123.97-0.78237-243.97-125.81-78.789-124.75-123.97-0.67071-2.5069 82.725-85.246 82.35-81.342-41.848-40.025-41.706 2.6192-82.766-41.349-0.21429 43.825-82.639-40.038-41.703-36.277-165.83-166.48 40.47-80.16-83.153 1.2087-41.491 126.44-82.103-123.93-0.75101-43.802 82.667-162.76-83.78-1.1852 41.492-125.19 40.694-81.359-41.849 2.4404-82.856-38.896-83.009-41.317-0.19217-46.142 165.44-83.767 40.914-36.47-165.72-122.72-42.177-125.18 40.498 3.6923-123.88-38.913-82.886-326.85-126.19-119.36-165.92-42.335-0.2126-5.7548 164.39-42.586-0.80616-133.73 161.95-4.0596 123.24-127.75-2.7021-81.536-124.72-45.106 81.11-127.98-2.5549-39.513-123.51 43.817-39.971 3.8908-163.19 88.343-120.88-128.93-1.7504-88.104 120.69 38.263 204.47-129.25 38.568-44.541 80.725-169.16-84.443 1.5142-81.344 42.062 41.422 2.982-162.6-171.71 37.931-166.51-85.079 1.191-81.009-162.59-87.318-82.209 37.118-80.114-44.633-39.57-42.912 42.574-80.011 40.456 1.9682 170.16-319.83 2.5103-82.439 197.73 174.84-40.748-1.7463-0.78061 40.694 82.614 2.659-80.129-125.12 41.309-38.61 40.117 42.36-34.097-208.63-238.32-136.89-367.26 145.85-42.929 80.492-40.21-2.1561 2.7129-82.651-328.58 190.01-79.001-45.407-167.59 198.51-162.05 33.555-3.9482 123.9-40.18-1.9665-1.3673 41.242 120.52 5.8662 37.501 84.502-1.314 41.284-121.84 35.409 75.101 168.82 40.29 1.849 76.63 127.26 81.863-37.394 118.54 87.792 121.22 5.3818-41.588 39.233 119.16 87.378-42.792 80.425-40.463-1.928-48.533 285.07 116.3 209.37-166.09 116.48-84.654 119.68-45.245 162.04-83.526 78.841-2.3312 81.762 162.48 5.8982 78.113 125.27-2.3227 81.676-86.129 160.57 40.77 1.3243 43.13-80.263 80.641 43.654 82.948-38.008 77.681 165.92 163.56 46.255 36.894 164.81-336.99 275.13-43.323 80.251 38.741 83.142-84.335 79.001 39.867 42.279-42.17 39.481-80.902-43.774 1.1864-40.689-325.56-52.076-83.849 79.003-2.4217 81.846-81.308-2.9557-38.075-83.169-79.795-43.751-161.63-5.6139-84.534 119.81 76.725 125.47-42.979 80.334-199.87-47.937-117.5-86.179-42.727 80.282-157.19-87.733-280.35 30.348 33.373 206 116.84 86.281-43.756 121.13-39.818-1.449-2.5879 81.764 116.83 86.416-83.613 119.59-2.5924 81.848-39.789-1.448 75.584 125.69-122.27 77.206 31.063 247.03 80.341 2.9862 1.5376-40.901 76.982 84.758 35.733 124.25 232.13 213.54-81.073 37.863 37.075 83.32-81.05 37.912-4.7552 122.79 78.968 43.851-49.36 203.53 77.824 84.674 81.362 2.762 38.307 83.424-124.51 37.956-39.489-42.639-245.12-6.9172-330.7 73.911-119.57-86.346-4.9301 124.36 37.883 83.951-42.469 40.283 41.029 1.1712-4.312 124.28 41.025 1.1743-2.7471 82.866-131.42 245.34-207.16 35.712-39.776-42.559-127.66 120.86-4.1315 124.37 41.255 1.1364-1.3957 41.498-125.01 38.015 41.313 1.172 38.458 84.001 82.475 2.2328-86.452 122.13-1.3374 41.243 41.292 1.3055-85.149 80.644-163.77-46.077-1.3142 41.499-82.508-2.2685 1.3072-41.499-82.502-2.2549-78.38-126.53-125.32 38.056-2.6977 82.956-44.04 81.66-41.285-1.1228-1.4002 41.499 41.347 1.1228-2.767 82.871 121.19 86.174-125.21 38.197 38.564 83.955 82.658 2.2189-47.919 206.11-126.6 79.582 38.688 84.078-41.363-1.2061-6.5357 207.33 121.4 86.201-1.2685 41.584-87.89 163.54-166.75 36.871-2.5638 82.873-41.384-1.1059-1.3142 41.5-80.128-85.244-3.7974 124.37 80.03 85.243 82.728 2.1719-3.8363 124.5-86.598 122.07-166.82 36.819-80.17-85.131-168.1 78.446-86.65 122.16-124.14-3.3374-81.549-43.681 2.5968-82.877-42.683 40.375-121.61-86.28-42.654 40.389 34.923 208.37-43.945 81.723 38.831 84.033-45.227 123.35-126.71 79.521-43.954 81.866 82.792 2.114 1.2905-41.376 84.037-39.247 38.882 83.99 42.67-40.387-38.891-83.993 42.695-40.387 122.93 44.785 42.636-40.33-43.893 81.832 40.112 42.504-7.6137 248.76-43.91 81.833 40.142 42.545 43.926-81.745 161.72 128.85-1.2164 41.502-125.44 38.034-127.91 121.07-208.2 35.832-2.5293 83.006-249.55 34.875 37.64 125.47-41.353-1.131-43.916 81.795 124.19 3.3073 74.12 292.46-42.601 40.363 80.327 85.121-2.4628 83.091 203.14 129.85-2.4891 83.005 209.36-77.32-2.459 82.877 203.09 130.23-3.6921 124.38 81.512 43.816-4.9949 166.01 121.62 86.372 38.85 84.175 37.679 125.76-45.043 123.2-81.466-43.841-43.784 81.797 82.684 2.3324-1.2142 41.417-127.74 120.93 36.399 167.17 161.73 129.18-2.4512 83.003 82.669 2.3578-43.818 81.78-125.25 37.982-127.62 120.93-40.144-42.658-250.34 75.975-38.968-84.137 3.6736-124.47-164.15-46.165-35.262-208.46-40.153-42.615-205.46-47.178 42.532-40.367 2.3708-82.796-41.332-1.3065 43.762-81.786-38.921-84.102-42.545 40.413-81.5-43.676 2.4166-83.008-203.15-129.88 42.544-40.437-290.69 33.937-40.215-42.548 2.4131-83.011-166.61 37.24-81.533-43.596 1.2152-41.463-458.55 112.91-327.42-132.52-87.388 163.75-79.236-126.41-42.506 40.527-9.204 331.56 82.714 2.0061-2.343 83.017-84.996 80.884-5.7564 207.16 41.319 1.0641-5.7613 207.29-86.231 122.15 37.929 125.46-42.462 40.195 41.337 1.1866-43.565 81.831-83.94 39.402-1.1655 41.382 41.394 1.0516-42.514 40.33-81.551-43.433-128.71 162.55-652.68-347.73-335.54 157.46-160.97-169.39-82.785-2.0749-80.484-84.749 4.6122-165.46-36.788-166.38-162.12-127.81-208.09 36.524-121.86-85.422-165.42-3.779-85.782 121.93-206.51-4.8763-84.585 80.552-40.234-42.219 47.44-246.44 126.06-79.753 3.2634-123.83-41.435-0.96827 2.2757-82.565-41.363-0.83839 1.0916-41.388 544.97-236.52 43.638-81.889 294.31-159.34 51.658-371.64 87.322-163.83 41.384 0.79783-78.153-167.43 5.6701-207.05 45.995-164.87-37.924-125.12 42.58-40.589 2.3201-82.771-41.385-0.79667-37.958-125.2 42.664-40.593-81.609-43.097-36.675-166.5 41.431 0.91433 2.3037-82.898 127.82-121.65 333.59-76.003-81.675-43.161-158.32-251.87-247.05-46.47-120.48-126.55-122.87-43.959-79.016-125.73 46.389-164.7-40.152-42.15-206.83-3.9341-1.2148 41.388-335.62 159.46-38.851-83.492-41.302-0.75396-168.98 121.23-1.2427 41.432-40.049-42.126-83.877 39.886-37.423-124.77-123.75-2.0321-78.444-125.47-160.43-126.65-77.71-125.06-34.953-165.84-244.9 38.271-197.32-42.69-191.07-125.96-45.76 79.806-270.36 14.58 0.82227-41.644-128.96-9.5018-1.2938 41.269-42.56-2.8683-121.85-130.98-123.69-46.889-77.485-168.59-82.844-2.9446-377.14 153.93 38.575 84.305-83.913 38.99-174.7 285.71 407.67 136.13 157.82 169.73 284.8 4.2369-56.829 461.18 172.69 58.367-1.2104 42.202-44.614-5.2088-2.5417 84.491-255.05 26.247 1.3243-42.205-41.131-1.2841-125.94 80.45-164.01-4.8127-125.81 80.396-87.751 165.58 40.969 1.2442-1.4086 42.081-40.958-1.3715-2.8359 83.908 38.28 85.318 42.369-40.579 38.322 85.409-41.025-1.3765 121.83 46.26-7.9256 251.88-43.761 82.311 41.14 1.6348-2.5955 83.818 39.837 43.547 82.301 3.3704 79.621 87.159-169.74 160.24-3.4641 165.95 122.28 46.92 286.97-27.155-1.0447 41.649-82.131 36.852-166.92 237.82-40.862-1.7381 38.468 165.89-81.61-3.9406 39.661 83.876-42.503 120.99-40.336-42.779-82.255 37.386-41.911 79.953-123.63 76.534-366.6-137.78-205.53 33.395-620.21 347.41-168.32 607.21-123.51-3.6448-248.13 156.15-165.52 36.56 0.04107 40.704-207.26-330.44-41.582-163.74 208.23-117.77 0.19719-81.583-165.93-85.312-39.627-246.46 42.324-81.053-82.833-1.8068-0.491 40.842-122.63-126.08-166.11 37.269-326.84-213.4 0.90552-41.319-285.14-130.69-117.25-210.07-163.11-45.27 1.1999-41.413-82.087-1.868-1.1897 41.413-198.28-253.23-285.46-88.9-159.89-169.27-950.33 67.499-246.9-44.913-80.654-84.239 1.9085-83.297-40.382-42.114-248.63-4.3157-168.6 160.98-46.215 206.05-41.343-1.3347-2.0288 82.88 41.537 1.4139-44.156 123.04 123.51 171.03 39.843 167.41 201.22 351.75-1.5523 283.83-95.256 203.09-141.66 72.004-61.807 206.56-82.491 82.919-87.73 413.88-125.79 39.879-88.594-214.42-174.96-134.94 0.50168-41.662-592.73 206.86-53.238 97.533-606.24 44.027-341.08 227.53-32.801 189.86 26.525 296.33-170.65 316.98 231.38-50.223 86.611 159.63 257.61-26.26-288.95 292.24 63.085 205.89-28.06 150.34-55.401 78.135 132.91 105.57 39.267 83.943 163.29 6.5915 129.02 85.227 492.47-53.682 160.83 44.542 148.74-22.815 290.51-151.31 266.74 72.976 219.86-130.35 208.68-36.974 79.163 123.95 69.884 491.74-6.2849 245.09 40.315 41.801 62.641 1072.1 140.46 239.93-37.262 119.9 817.84 941.62 99.186 197.3 3.6464 79.936 97.521 157.2 54.14 198.34 94.131 77.62-43.526 40.916 10.04 239.58-37.467 241.84 65.148 600.44-46.271 83.146-96.737 45.962-48.618 84.237 0.51711 81.249 252.21 389.51 197.8 27.881-146.62 131.16 101.53 155.38 0.30362 122.18-53.293 127.37 5.0017 214.46-24.138 40.7-22.356-55.677-335.09 62.34-88.804 60.158 130.07 159.99 71.164 180.65 19.43 188.12-42.387 84.513 64.761 72.632 74.441 319.73-402.01 59.399-28.117 59.472-45.944-60.705-1001.7 51.131-72.36 60.712-108.56 222.58-0.44467 117.51 92.527 136.55-23.035 102.68 54.406 230.44-17.134 182.9 104.12 430.02 4.233 154.5 169.47 264.4-95.398 287.11 38.328 54.586 94.135-61.281 45.454-90.912 109.09 83.665 113.92-151.44 42.543 76.163 215.35 62.403-5.1956 83.62 66.809 19.93-96.023-9.8729-84.711 141.37-72.805 32.825-1.8747 68.079-89.371 101.31 8.9876 61.592 152.32 193.92 213.79 158.32 97.239 207.8 99.758 19.076 69.164 118.85 415.29 302.04 480.99 152.4 283.31 27.483 105.5-42.56 656.97-8.1929 360.58-140.44 1081.4 306.93 340.98-15.359 324.69 105.79 775.1 71.133 692.01-87.268 101.92-60.099-75.926-187.57 32.4-46.802 18.637-250.7 103.53-223.98 279.54 24.229-26.338-49.127 87.279-72.215 103.38 38.921-35.927 65.358 25.633-6.5156 28.596-65.266-122.22-75.795 97.434-146.49 96.332 60.637 14.189-40.334-99.72-38.988 49.091-195.34 71.533-167.84 165.91 28.98 6.7726-49.538-32.718 34.389-85.521-76.296 79.387-133.86-7.9547-49.365 62.216-31.634 41.049 48.982 35.857-83.876-84.477 16.43 64.36-164.62-71.253-110.44 32.97-15.836 34.349 104.72 18.094-28.057-113.49-255.27-410.62-124.83-191.08 45.743-26.597-61.508 8.6012-188.69 71.084-208 167.01-215.44 240.84 77.412 113.75-56.962 276.44-361.75 50.275-130.42 331.89-59.166 264.93 263.15 37.783 89.285-6.1098 129.87 81.844 67.214 53.52 194.25 5.0999 537.81-25.322 49.697 26.114 33.756-106.45 41.223-207.12-81.406-253.96 27.349 73.157 648.41 75.18 153.79 148.42 128.31-14.082 61.955 225.17 90.54 176.21-26.415 91.307-65.748 155.62-282.68 156.81-165.21 465.93-195.32 264.96-17.346 77.669 52.028 25.125-96.023 194.5-103.26 47.007-142.46-292.47-211.43 43.816-62.102 232.67 72.667 107.58 116.85 41.901 234.67-342.62 540 22.629 86.411-43.289 127.01-246.12 545.78 3.0779 429.7 116.2 351.6 137.23 237.12-14.13 77.405 126.93 367.05 40.483 30.65-24.82 130.03 37.546 148.15 55.202 52.217-14.268 58.806 40.858 98.673 73.85 117.03 43.892 2.8391 217.78 379.06 475.61 142.95zm-1112.4-7739.6 458.46-231.06 165.73-35.383 84.69-79.903 5.6938-207.12 42.272-40.03 2.3866-82.778 126.96-120.02 4.5518-165.81 124.89-37.086-39.023-84.369 44.641-122.95 207.58-34.597 43.557-81.498 5.6692-207.31-40.115-42.79 170.77-201.85 41.321 1.3332 39 84.193 83.688-38.786 37.757 125.67 81.469 44.132 45.808-164.44 208.63-76.478 44.679-123.07 124.82-37.563 80.219 85.474 2.3661-82.895 122.45 45.3-45.82 164.64 39.967 42.876 2.3981-83.022 170.64-202.35 289.62-32.602 36.566 167.32 42.304-40.226-2.293 83.019 39.997 42.796 202.37 130.76-85.844 122.09-41.154-1.3394-9.2818 332.25 203.36 89.28-293.79 198.71-2.3476 83.148 245.71 49.037-256.14 324.56-162.27-88.179-78.875-127.2-41.228-1.2632-1.1448 41.469-39.994-42.899-247.18-7.8238-128.19 161.93-3.4015 124.54-83.622 38.772-288.55-9.5455-1.1588 41.471-38.961-84.305-41.26-1.443-84.739 80.28-123.77-4.1588-2.2419 82.902-168.46 118.8-40.154-42.88-83.655 38.627-162.87-88.638-1.1387 41.474-82.57-2.9307-213.06 241.37-122.44-45.961 2.2231-83.035-122.35-45.846-1.0924 41.39-83.457 38.339 116.61 253.24-124.61 36.747-38.757-84.451-42.319 39.896-81.008-44.584-84.338 79.646-82.162-3.1646-44.538 122.49-124 36.32-121.63-46.434 45.581-163.91 169.59-200.32z" stroke-linejoin="round" stroke-width="1px" fill_rule="evenodd"/>
<polygon class="federal_state" points="-3293.3 676724 -3169.8 676634 -3184.9 676566 -3367.6 676533 -3338.3 676548 -3370.9 676582 -3345 676626 -3363.1 676660"/>
<polygon class="federal_state" points="-3714.9 676934 -3711.5 676900 -3780.8 676910"/>
</g>
</g>
</g>
</svg>
