<?xml version="1.0" encoding="UTF-8"?>
<svg baseProfile="full" version="1.1" viewBox="0 0 25613 24816" xmlns="http://www.w3.org/2000/svg">
<defs>
<style type="text/css">polyline,line,rect,path,polygon,.polygon{fill:none;stroke:#000;stroke-width:1px;stroke-linejoin:round;}.country {
    fill: grey;
    opacity: 0.40;
    stroke: black;
    stroke-opacity: 0.5;
}
.federal_state {
    fill: red;
    stroke: black;
    stroke-opacity: 0.5;

}</style>
</defs>
<g transform="scale(1 -1) translate(8045.5 -656334)" fill_rule="evenodd">
<g class="NAME">
<polygon class="federal_state" points="11308 656166 11354 656086 11435 656132 11478 656092 11437 656090 11439 656049 11524 656012 11570 655931 11529 655929 11572 655890 11538 655763 11627 655643 11639 655436 11597 655434 11609 655227 11696 655149 11701 655066 11618 655061 11636 654730 11680 654691 11756 654819 11847 654658 12171 654800 12633 654699 12630 654741 12711 654786 12878 654754 12874 654837 12913 654880 13204 654854 13161 654894 13360 655029 13356 655112 13436 655158 13479 655119 13516 655204 13470 655284 13511 655287 13507 655369 13463 655409 13667 655461 13706 655505 13736 655715 13899 655765 13892 655890 13928 655975 14181 655906 14220 655949 14351 655832 14477 655797 14523 655717 14440 655712 14445 655629 14287 655496 14255 655328 14386 655210 14388 655169 14306 655164 14352 655084 14432 655130 14480 655008 14410 654796 14290 654706 14300 654540 14220 654494 14227 654370 14027 654234 14032 654151 13820 654223 13825 654140 13626 654005 13630 653922 13552 653834 13596 653795 13530 653501 13406 653494 13452 653413 13493 653416 13459 653289 13710 653261 13714 653178 13923 653148 14055 653030 14181 652996 14183 652954 14025 652821 13979 652902 13940 652858 13986 652777 14001 652529 13962 652485 14008 652405 13964 652444 13842 652396 13799 652435 13835 652520 13791 652559 13755 652474 13670 652511 13667 652553 13585 652548 13631 652467 13760 652391 13808 652269 13772 652184 13818 652104 13789 651894 13832 651855 13952 651945 13995 651906 13991 651988 14071 652034 14195 652041 14285 651921 14455 651847 14533 651935 14701 651902 14791 651783 14798 651658 14715 651654 14638 651567 14645 651442 14722 651530 14725 651488 14766 651491 14771 651408 14939 651375 15031 651214 15034 651173 14914 651083 14927 650876 14968 650879 14932 650793 15060 650717 15114 650513 15031 650508 14995 650423 15121 650388 15002 650299 15007 650216 14966 650214 14969 650172 15010 650175 15056 650094 15061 650011 15187 649977 15262 650105 15345 650110 15342 650151 15425 650156 15427 650114 15590 650165 15677 650087 15636 650084 15638 650043 15728 649923 15646 649919 15609 649834 15568 649832 15694 649797 15697 649755 15655 649753 15663 649629 15794 649512 15832 649555 16041 649525 16179 649284 16184 649201 16143 649198 16150 649074 16109 649072 16153 649033 16117 648948 16126 648824 16243 648913 16575 648848 16820 648862 16859 648906 16984 648871 16948 648787 16867 648782 16791 648695 16846 648493 16768 648447 16776 648324 16859 648289 16824 648204 16906 648169 16680 647949 16647 647824 16573 647737 16570 647778 16490 647773 16498 647650 16460 647607 16465 647525 16590 647451 16518 647323 16557 647326 16562 647244 16649 647127 16535 647037 16539 646956 16579 646958 16626 646838 16512 646749 16484 646542 16765 646519 16920 646611 16965 646532 16855 646361 16459 646294 16463 646213 16381 646248 16227 646156 16398 645962 16480 645926 16445 645842 16368 645795 16335 645670 16258 645624 16263 645542 16145 645493 16152 645370 16080 645241 16120 645244 16091 645036 15852 645020 15781 644851 15661 644843 15546 644753 15485 644419 15280 644489 15202 644443 15133 644231 15015 644183 14969 644304 14813 644212 14692 644205 14608 644283 14602 644406 14562 644404 14668 644700 14664 644783 14539 644858 14422 644810 14420 644851 14300 644844 14174 644961 14168 645043 14054 644954 13819 644859 13816 644900 13530 644718 13445 644713 13282 644579 13289 644454 13465 644340 13426 644254 13514 644176 13479 644008 13687 644020 13725 643846 13654 643810 13661 643645 13623 643559 13247 643579 13046 643401 12916 643477 12914 643518 12829 643514 12827 643555 12450 643492 12245 643357 11860 643377 11777 643331 11828 643209 11622 643073 11630 642949 11500 642983 11374 642935 11382 642810 11256 642762 11262 642679 11184 642550 11141 642548 11147 642465 11066 642377 10981 642373 10946 642246 11080 642170 11181 641926 11353 641894 11471 642066 11846 642170 11925 642257 11928 642216 12010 642262 12138 642227 12142 642144 12228 642107 12151 641978 12195 641939 12295 641612 12467 641497 12347 641407 12361 641117 12082 640852 11965 640679 12017 640474 12141 640481 12145 640398 12064 640352 11938 640386 11697 640207 11274 640308 10939 640290 10902 640205 10773 640241 10616 640025 10797 639825 10641 639610 10685 639570 10767 639616 10818 639452 10908 639332 10785 639284 10588 639066 10435 638808 10392 638807 10395 638766 10311 638764 10366 638559 10286 638516 10347 638189 10179 638224 10142 638141 9980.7 638053 9983.4 638012 9863.2 637926 9871.7 637803 9709.5 637716 9718.3 637592 9634.3 637590 9631.3 637631 9294.5 637583 9146.3 637830 8976 637827 8936.4 637784 8942.1 637702 8820.1 637617 8584.3 637323 8499.3 637321 8380.1 637195 8308.3 636987 8064.5 636817 7979.9 636816 8029.6 636693 8119.2 636612 8076.8 636611 8079.3 636570 8209.7 636531 8172.1 636447 8216 636448 8222.9 636364 8324.2 636239 8146.4 635739 8047.4 635782 8003.5 635742 8012.3 635658 7966 635658 7918.9 635818 7721.3 635840 7717.8 635881 7564.7 635744 7437.2 635776 7410.4 636107 7228.4 636302 7187 636299 7135.8 636420 7008.3 636453 6871.5 636609 6862.6 636732 6904.1 636736 6851 636897 6931 636944 6922.4 637068 6881 637065 6919.6 637109 6858.6 637394 6814.3 637432 6565.2 637415 6526.4 637371 6440.5 637406 6252.3 637724 5872.5 637781 5861.8 637945 5903.3 637948 5895.3 638072 6006.8 638285 5837.7 638315 5746.6 638433 5619.1 638466 5538.6 638420 5505 638294 5177.4 638189 5180 638148 5265.9 638112 5271.2 638030 5357.1 637994 5362.4 637912 5320.8 637909 5323.5 637868 5373.1 637747 5298 637618 5345 637539 5430.9 637503 5311.5 637412 5397.4 637377 5358.5 637333 5186.6 637404 5183.9 637445 5067.1 637313 5072.5 637231 4953.1 637140 4791.9 637047 4664.4 637079 4839 636967 4797.4 636964 4852.6 636761 4813.8 636717 4819.3 636634 4688.8 636708 4699.8 636544 4660.9 636499 4411 636483 4408.3 636524 4244.4 636471 4210.9 636345 4221.5 636180 4140.9 636133 3924.7 636243 3724.6 636105 3722 636147 3685.6 636061 3729.8 636023 3560.8 636053 3524.3 635968 3402.1 635918 3152.8 635901 3116.3 635816 2991.6 635808 2945.1 635887 2862 635882 2864.5 635841 2695.9 635871 2693.4 635912 2542.5 635653 2625.5 635659 2633.1 635535 2677.1 635497 2679.6 635456 2638.1 635453 2643.1 635370 2562.5 635324 2575 635118 2491.9 635112 2413.8 635024 2328.3 635060 2247.7 635013 2250.2 634972 2206.3 635010 2047.7 634875 1842.8 634820 1713.5 634894 1550.2 634842 1533.3 635131 1491.9 635128 1411.5 635082 1384.6 634831 1301.7 634826 1262.8 634782 1267.6 634699 1141 634732 1067.8 634561 895.09 634675 812.49 634669 782.79 634460 661.19 634411 534.74 634444 486.33 634566 401.28 634602 52.782 634166 -71.068 634159 -149.04 634071 -273.06 634064 -319.08 634145 -481.88 634095 -520.77 634051 -465.36 633804 -625.64 633713 -671.56 633794 -792.95 633746 -788.26 633663 -703.34 633625 -739.93 633540 -611.46 633463 -609.17 633422 -689.2 633376 -638.6 633212 -677.48 633168 -672.76 633085 -835.14 633035 -871.66 632949 -954.12 632945 -951.71 632903 -1296.3 633136 -1391 633341 -1593 633248 -1671.1 633161 -1754.1 633157 -1790.8 633072 -1668.8 633119 -1661.2 632993 -1619.9 632995 -1617.1 632953 -1658.4 632951 -1611.2 632869 -1768.4 632772 -1765.2 632729 -1632.5 632648 -1636 632691 -1595.7 632695 -1584.3 632564 -1460.2 632532 -1500.1 632528 -1484.5 632354 -1525.2 632351 -1556.6 632220 -1455.5 632008 -1325.2 631929 -1357.6 631839 -1486.9 631839 -1489.5 631881 -1953.3 631713 -2087.3 631619 -2175 631835 -2313.1 631999 -2396.1 631957 -2388.8 631832 -2552.7 631705 -2645 631828 -2614.4 632036 -2787.2 632074 -2794.6 632199 -2919.7 632154 -3122.9 631983 -3337.7 632019 -3460.5 631934 -3413.6 631852 -3500.9 631891 -3541.1 631849 -3496.5 631809 -3621.8 631765 -3660 631682 -3789.6 631720 -3915.1 631675 -3834.2 631759 -3876.7 631758 -3844.8 631965 -3929.6 631963 -3933.9 632045 -4101.4 631999 -4103.5 632041 -4145.8 632039 -4105.6 632082 -4147.9 632081 -4150.1 632122 -4109.8 632164 -4156.7 632245 -4326.1 632240 -4408.6 632197 -4364 632157 -4311.3 631953 -4228.6 631996 -4309.3 631912 -4168 631628 -4125.5 631629 -4121.6 631547 -4249.1 631544 -4212.5 631668 -4299.4 631707 -4303.4 631789 -4431.2 631867 -4527.3 632029 -4696.1 632193 -4689.9 632313 -4535 632468 -4532.1 632646 -4441.5 632926 -4453.9 632978 -4668.4 633132 -4753.7 633459 -4858.7 633560 -4974.2 633507 -5215.2 633564 -5253.9 633480 -5297 633477 -5343.9 633545 -5506.1 633562 -5600.1 633728 -5807.4 633908 -5866.4 634103 -5813.2 634236 -5685.4 634284 -5689.5 634367 -5522.9 634506 -5434.2 634463 -5368.8 634576 -5299.2 634559 -5106.7 634828 -5240.5 634929 -5455.8 634918 -5589.2 634994 -5676.8 634998 -5851.2 634892 -5884.6 635065 -5943.4 635141 -5899.7 635143 -5898.1 635102 -5813.2 635148 -5872.7 635239 -5841.6 635303 -6224.1 635867 -6349.9 635979 -6635.3 635972 -6858.1 636058 -6973.4 636412 -7005.1 636410 -7009.9 636530 -6965.8 636533 -6968.8 636617 -7057.1 636610 -7058.6 636652 -7309 636842 -7323 636924 -7220.9 637052 -7050.2 636924 -6855.6 637055 -6826.6 637128 -6903.3 637394 -6596.7 637461 -6521.8 637407 -6484.9 637592 -6404.6 637713 -6502.2 637943 -6447.3 638240 -6619.2 638228 -6707.8 638347 -6749.8 638302 -6750.7 638344 -6922 638373 -6966.5 638535 -6924.9 638581 -7009.1 638615 -7009.5 638657 -6826.3 638837 -6794.3 638892 -6810.3 638930 -7142.4 638986 -7253.4 638933 -7370 639035 -7698 638885 -7725.4 638921 -7663.4 639054 -7664.2 639137 -7745.1 639171 -7745.4 639254 -7853 639416 -7839.2 639489 -7908.9 639613 -7910.7 639696 -7746.3 639669 -7689.8 639733 -7527.3 639745 -7395 639508 -7298 639544 -7226.8 639504 -7247 639590 -7198.2 639600 -7134.2 639713 -7160.6 639822 -7085.8 639842 -7081.1 639922 -6897.2 640162 -6732.6 640178 -6478.4 640450 -6408.7 640457 -6248.6 640680 -6124.3 640692 -6084.8 640779 -5793.5 640803 -5745.4 640903 -5979.8 641037 -5639.5 641232 -5812.3 641301 -5972.1 641223 -6138.2 641062 -6349.8 641059 -6442.6 641195 -6470.2 641603 -6343.9 641616 -6435.5 641832 -6155.3 642109 -6081.2 642290 -5894.9 642480 -5818.8 642609 -5751 642859 -5581.6 642870 -5584.4 642910 -5347.8 643168 -5409.1 643452 -5332.8 643579 -5420.1 643616 -5459.7 643573 -5410.8 644109 -5368.3 644111 -5378.5 644262 -5339.6 644318 -5417.3 644577 -5411.7 644762 -5444.3 644849 -5583.3 645049 -5693 645118 -5844.7 645435 -6028.6 645583 -6080.4 645701 -6296.6 645841 -6266.3 646008 -6192.7 646033 -6131.1 646330 -6081.1 646377 -6096.6 646453 -6213.9 646455 -6645.8 646652 -6676.4 646780 -6672.7 647021 -6560.2 647085 -6648 647147 -6655.6 647205 -6817.9 647300 -7116.9 647327 -7117.7 647369 -7154.4 647369 -7120.3 647495 -7012.3 647578 -6975.1 647536 -6975.9 647578 -6868.9 647661 -6941.9 647703 -6943.3 647787 -6894.9 647815 -6965.6 647975 -6947.3 647997 -7134.3 648165 -7135.2 648207 -7061.3 648206 -7137 648290 -7084.3 648372 -6884.4 648332 -6772.4 648373 -6663.3 648490 -6519.4 648528 -6417.1 648731 -6131.6 648528 -5725.9 648502 -5737.9 648653 -5890.7 648787 -5932.2 648948 -6146 648996 -6069.2 649105 -5787.7 649174 -5639.7 649091 -5495 648935 -5499 648879 -5419 648762 -4895.7 648844 -4786.1 648777 -4750 648558 -4457.7 648594 -4306.6 648392 -4223.8 648437 -4015.6 648269 -4062.4 648384 -4012 648403 -4014 648445 -4057.6 648485 -4061.2 648582 -4139.1 648653 -4150.3 648779 -4115.6 648817 -3906.2 648784 -3904.1 648742 -3862.8 648744 -3858.4 648660 -3697.5 648750 -3650.2 648639 -3579.9 648589 -3431.8 648636 -3075.2 648898 -2972 648902 -2844.5 649031 -2842.1 648989 -2115.7 649310 -2030.7 649271 -2016.1 649188 -1853.3 649070 -1850.8 649028 -1770.7 649073 -1714.6 649159 -1651.6 649162 -1615.2 649247 -1532.7 649250 -1379.8 649466 -1338.5 649468 -1314.6 649761 -1110.7 649812 -1130.7 650145 -1254.5 650139 -1650.7 650538 -1905.7 650651 -2070.7 650644 -2083.2 650851 -2008.1 650979 -2049.4 650977 -2052 651018 -1763.1 651032 -1646.8 651162 -1695.5 651285 -1613 651289 -1585.8 651539 -1007 651527 -847.1 651618 -785.25 651759 -776.05 651938 -586 652090 -572.08 652174 -426.19 652182 -212.74 652312 -121.57 652616 -28.783 652739 158.84 652758 161.24 652716 202.3 652719 443.27 652817 485.36 652903 727.84 652913 767.04 652957 762.83 653040 841.13 653126 1086.7 653178 2038.7 653137 2193.9 653311 2476.8 653407 2668.1 653666 2670.4 653625 2752.4 653629 2750.1 653670 2911.9 653720 3023.3 653933 3304.8 654072 3302.8 654113 3623.6 654335 3790.8 654303 3909.9 654432 3911.5 654391 3994.3 654396 3949.7 654475 3982.5 654723 4146.1 654813 4143.6 654894 3932.2 655006 3969.2 655171 4167.3 655507 4168.4 655467 4334.9 655435 4587.3 655285 4710.7 655292 4895.8 654690 5525.5 654360 5731.9 654332 6094.6 654480 6220.3 654407 6264.4 654328 6347.7 654293 6386.9 654337 6432.7 654217 6395.3 654132 6476.8 654138 6442.9 653971 6483.7 653974 6657.2 653741 6740.3 653706 6742.5 653665 6454.8 653684 6333.9 653634 6341.9 653468 6516 653312 6438.8 653223 6356.6 653217 6318 653173 6322.9 653089 6281.8 653086 6327.8 653005 6342.7 652753 6222.2 652704 6263.1 652706 6227.2 652620 6183.7 652659 6147.8 652573 6152.9 652489 6193.8 652492 6196.4 652450 6155.5 652447 6247.8 652284 6375.7 652207 6539.6 652217 6667.7 652140 6708.8 652142 6706.3 652184 6915.4 652201 7013.7 652045 6842.7 651982 6912.2 651522 6627.6 651510 6474.5 651336 6070.7 651189 6253.2 650908 6338.1 650871 6301.9 650786 6765.9 650648 6838.7 650818 6961.1 650869 7079.3 651003 7121.8 651007 7124.2 650966 7252.9 650979 7250.9 651020 7521.6 651013 7569.5 650935 7757.1 651066 7953.2 651114 8199 651083 8229.4 651249 8303.7 651376 8460.6 651507 8535.6 651635 8659.2 651640 8693.2 651766 8778.2 651729 8817.1 651772 8819.4 651731 8991.7 651614 9033 651616 9069.5 651700 9409.4 651550 9411.8 651509 9618.4 651518 9657.4 651562 9606.5 651725 9682.1 651853 9803.7 651900 9920.7 652030 10166 652083 10318 652339 10398 652385 10063 652452 9931.5 652570 9927 652653 9885.6 652651 9917.7 652818 9998.1 652863 9954.3 652903 9988.8 653029 10030 653031 10026 653114 9981.9 653153 10016 653279 9965.9 653443 9954.5 653650 10028 653819 9986.7 653817 9894.9 653979 9833.1 654349 9534.5 654500 9488.6 654581 8937.2 654802 8935 654844 8976.3 654846 8971.8 654928 9013.2 654930 9006.5 655054 8878.3 655130 8824.1 655375 8863.2 655419 8949.9 655340 9156.3 655351 9245.4 655231 9410.7 655240 9530.2 655328 9739.3 655298 9897.9 655430 9930.1 655597 9920.9 655762 9999.1 655849 10082 655854 10238 656028 10578 655879 11221 656245" fill="red" stroke="#000" stroke-opacity=".5"/>
</g>
</g>
</svg>
