<?xml version="1.0" encoding="UTF-8"?>
<svg baseProfile="full" version="1.1" viewBox="0 0 18540 23535" xmlns="http://www.w3.org/2000/svg">
<defs>
<style type="text/css">polyline,line,rect,path,polygon,.polygon{fill:none;stroke:#000;stroke-width:1px;stroke-linejoin:round;}.country {
    fill: grey;
    opacity: 0.40;
    stroke: black;
    stroke-opacity: 0.5;
}
.federal_state {
    fill: red;
    stroke: black;
    stroke-opacity: 0.5;

}</style>
</defs>
<g transform="scale(1 -1) translate(3078.6 -664361)" fill_rule="evenodd">
<g class="NAME">
<polygon class="federal_state" points="4244.8 663899 4244.7 663816 4327.7 663733 4618.5 663773 4618.3 663524 4659.8 663441 4784.3 663441 5033.4 663564 5240.7 663439 5323.6 663232 5614 663231 5614 663189 5738.4 663147 5738.3 662982 5572.3 662858 5572.3 662776 5696.6 662651 5862.5 662692 6111.2 662485 6318.5 662484 6608.7 662318 6815.9 662359 6815.9 662442 6940.3 662483 6981.6 662441 7230.3 662441 7230.3 662400 7313.1 662441 7313.2 662317 7437.5 662358 7520.3 662316 7603.2 662482 7603.2 662316 7686.1 662192 7603.2 662068 7976.1 662192 8058.8 662357 8100.2 662357 8141.7 662233 8183.2 662233 8224.6 662151 8224.6 662233 8348.9 662151 8349 662027 8390.4 661985 8432.1 661696 8473.6 661614 8515 661613 8515.1 661448 8432.2 661448 8473.7 661407 8432.3 661324 8308 661366 8308.1 661200 8225.2 661201 8225.3 661118 8266.8 661077 8183.9 661077 8183.9 661035 8225.4 660953 8266.9 660953 8266.9 660870 8308.4 660829 8225.5 660705 8184.1 660705 8142.7 660540 8225.7 660581 8184.2 660499 8308.7 660416 8267.3 660333 8308.8 660251 8391.7 660251 8350.3 660168 8391.8 660168 8391.8 660086 8433.4 660044 8392 659921 8392.1 659838 8433.5 659797 8433.6 659714 8392.2 659714 8392.2 659590 8433.8 659591 8226.3 659549 8184.9 659467 7977.4 659549 7977.5 659343 8019 659343 8019.2 659013 8060.8 658972 7894.8 658766 7853.4 658601 7811.9 658559 7811.9 658436 7978 658559 8102.5 658518 8102.6 658436 7978.1 658312 7978.1 658229 8019.7 658229 8102.8 658106 8185.9 658147 8185.9 658106 8268.9 658147 8268.9 658188 8351.9 658147 8393.4 658188 8351.8 658312 8434.8 658353 8393.2 658394 8434.7 658435 8600.9 658353 8601 658188 8684.1 658188 8642.6 658147 8642.6 658106 8684.2 658106 8684.2 658023 8891.8 658106 8974.8 658064 8933.3 658023 8933.5 657941 8975 657899 9099.5 657941 9058.1 657858 9058.3 657735 8975.2 657735 9016.8 657693 9016.9 657611 8933.8 657611 8892.6 657405 8809.5 657405 8851.2 657322 8726.6 657240 8726.7 657199 8851.3 657157 8851.4 657116 8892.9 657158 8934.5 657116 8934.6 656993 8893.1 656993 8851.6 656828 8934.8 656828 8934.9 656745 8810.3 656704 8810.4 656622 8893.6 656498 8976.8 656457 8727.9 656045 8686.5 655880 8644.9 655839 8603.7 655510 8562.2 655427 8562.1 655386 8687 655345 8645.5 655304 8728.7 655304 8728.7 655263 8853.6 655180 8895.2 655098 8812.1 655016 8687.4 655016 8562.6 654933 8562.8 654892 8604.3 654892 8562.9 654645 8521.4 654604 8438.1 654686 8396.6 654480 8355 654480 8479.9 654398 8480 654316 8521.7 654316 8563.3 654192 8730 654028 8771.9 653781 8855.1 653781 8855.2 653740 8980.1 653698 8980.2 653657 9063.4 653657 9105 653616 9105.2 653493 9230.2 653328 9313.6 653287 9355.4 653163 9397.1 653122 9605.2 653122 9646.9 653040 9855.3 652876 9855.4 652834 10022 652835 10022 652917 10105 653040 10230 652999 10272 652794 10313 652752 10605 652670 10647 652588 10647 652465 11188 652466 11146 652548 11188 652589 11354 652589 11395 652754 11437 652795 11562 652796 11603 652713 11770 652714 11812 652632 11978 652550 12145 652550 12145 652468 12270 652468 12270 652304 12354 652263 12561 652264 12769 652347 12769 652264 12811 652223 12812 651976 13061 651977 13062 651936 13145 651895 13269 651937 13269 652060 13560 652021 13561 651897 13519 651856 13686 651857 13645 651651 13936 651652 13978 651611 14144 651653 14186 651530 14103 651530 14145 651448 14062 651406 14104 651324 14436 651285 14436 651367 14644 651368 14685 651451 14893 651370 14894 651205 14770 651163 14728 651204 14728 651081 14938 650671 15022 650589 14981 650506 15022 650466 14981 650424 15023 650301 14982 650218 14940 650218 14982 650136 14941 650095 15024 650054 15024 650013 14983 650013 14983 649930 15150 649808 15192 649644 15068 649643 15109 649602 15110 649520 15026 649602 14985 649560 15027 649396 15069 649355 14114 648733 14072 648774 14072 648938 14030 649020 13947 648979 13946 649061 13780 649060 13780 649019 13821 649019 13780 648978 13697 649019 13739 648854 13697 648895 13572 648854 13614 648772 13531 648730 13447 648853 13406 648853 13364 648770 13197 648811 13156 648893 13197 648893 13197 649017 13155 649016 13114 648934 13030 648934 13031 648893 12989 648975 12947 648975 12947 649057 12988 649098 12946 649139 12738 649179 12738 649097 12697 649056 12447 648973 12364 648767 12281 648767 12281 648808 12197 648808 11989 648931 11739 648931 11614 648684 11614 648602 11406 648437 11323 648410 11364 648519 11323 648560 11323 648519 11156 648519 11114 648437 11073 648437 11073 648519 11031 648519 10989 648396 10781 648314 10740 648232 10489 648314 10364 648150 10323 648149 10364 648273 10197 648232 10072 648314 10072 648273 9988.6 648273 10031 648191 9947.1 648191 9947.4 648027 9405 648068 9405 648027 9321.5 648027 9363.3 647986 9196.5 647945 9030 647740 8738 647740 8737.9 647822 8654.4 647822 8612.8 647740 8654.7 647658 8446.2 647535 8446.4 647453 8363 647413 8321.4 647331 8321.5 647289 8363.3 647289 8363.5 647166 8321.7 647167 8321.8 647125 8447 647084 8405.6 646920 8238.8 646880 8239 646756 8197.4 646716 8030.5 646675 8114.2 646552 8114.5 646347 8281.7 646306 8323.6 646183 8323.6 646224 8365.3 646224 8240.4 646060 8282.4 645978 8240.6 645978 8282.7 645855 8324.4 645855 8241 645814 8241.3 645691 8283.1 645691 8283.2 645609 8325 645610 8366.9 645527 8408.7 645528 8325.4 645405 8367.2 645405 8367.7 645200 8200.9 645159 8201.1 645077 8075.8 645078 8159.9 644873 8118.1 644873 8118.4 644791 8201.9 644791 8243.9 644709 8244.3 644586 8202.7 644505 8244.5 644505 8244.8 644423 8328.2 644423 8412.1 644300 8413 644014 8455 643932 8496.8 643932 8371.9 643809 8414 643727 8288.9 643646 8289.1 643564 8414.3 643605 8539.7 643564 8540.2 643441 8498.4 643441 8498.6 643359 8456.8 643360 8457.7 643114 8708.5 643073 8750.5 642992 8750.7 642951 8625.5 642910 8625.9 642787 8835.2 642665 8835.4 642624 9043.9 642665 9086 642583 9086.3 642501 8961.4 642420 8961.7 642338 8920 642338 8920.8 642134 8837.7 642011 8879.6 641970 9130 642011 9130.4 641929 9172.1 641929 9172.6 641807 9089.8 641644 9048 641644 8965 641521 8923.8 641399 8798.6 641317 8757.6 641154 8799.3 641154 8799.9 641032 8674.7 640950 8674.9 640909 8633 640909 8590.7 641031 8632.6 641031 8632.2 641113 8506.8 641072 8380.3 641317 8255.1 641194 8255.3 641112 8171.3 641194 8045.8 641112 8045.4 641193 7751.6 641274 7751.4 641315 7583.5 641273 7499.5 641191 7331.2 641231 7162.7 641189 7162.7 641271 7204.8 641271 7204.8 641353 7162.7 641394 7078.5 641434 7078.5 641475 6952.2 641433 6868 641474 6910.1 641556 6910.1 641679 6952.2 641679 6657.7 641882 6447.4 641840 6489.5 641881 6447.4 641881 6447.5 641922 6489.6 641963 6447.5 641963 6405.5 642045 6321.4 642003 6321.5 642085 6195.4 642167 6111.3 642084 5985.2 642125 5775 642041 5481.1 642080 5438.9 641998 5354.8 641956 5355 642038 5271.2 642079 5313.2 642161 5271.3 642202 5103.5 642242 5103.6 642283 5019.6 642283 5019.5 642242 4935.7 642282 4936.2 642488 4894.3 642570 4726.8 642651 4685.1 642733 4601.1 642692 4517.4 642732 4391.6 642649 4349.5 642566 4349.7 642649 4224.3 642771 4057 642811 4015.1 642811 3931.2 642687 3847.6 642727 3847.4 642603 3597 642684 3596.9 642601 3430 642599 3388.3 642681 3305 642681 3263.4 642722 3263.5 642928 3221.9 642928 3180.3 643093 3388.9 643219 3347.3 643301 3430.8 643302 3430.9 643343 3305.7 643383 3306.1 643590 3139.2 643630 3139.5 643795 3056.2 643836 2889.3 643793 2847.6 643710 2764.3 643709 2722.7 643792 2764.4 643875 2556.4 643914 2556.4 643997 2598.1 643997 2723.3 644205 2723.3 644164 2806.6 644164 2806.4 644082 2889.9 644123 2973.7 644289 3015.4 644289 3099.3 644414 3057.7 644455 3183.1 644538 3183.5 644662 3225.4 644744 3267 644662 3350.8 644786 3184 644909 3142.5 644991 2975.8 645073 2934.4 645197 3017.8 645197 3018 645279 2809.4 645279 2809.7 645361 2768 645361 2768.1 645444 2726.5 645485 2768.3 645526 2726.7 645526 2726.9 645608 2768.6 645609 2768.9 645732 2602.3 645773 2560.4 645690 2518.8 645732 2519 645814 2435.5 645773 2435.4 645731 2394 645814 2310.6 645813 2269.6 646020 2019.3 645936 1936.2 645977 1935.8 645895 1727.9 645852 1728.1 645976 1603.5 645975 1562.2 646058 1354.7 645973 1354.6 645932 1188.9 645972 1188.8 645930 1023.1 645929 898.96 646011 899.03 646052 816.11 646010 816.18 646051 609.21 646133 526.56 646215 360.84 646213 194.9 646088 -53.633 646085 70.789 646170 70.922 646211 -136.31 646168 -136.09 646251 -218.91 646250 -177.2 646375 -218.64 646375 -218.49 646416 -176.81 646499 -259.57 646540 -218.07 646582 -259.14 646706 -217.42 646790 -176.01 646790 -299.77 646955 -423.9 646996 -423.8 647037 -382.34 647037 -382.08 647121 -464.68 647203 -422.43 647411 -381.02 647411 -381.19 647370 -339.76 647370 -339.6 647412 -422.33 647453 -422.15 647494 -587.69 647535 -587.56 647576 -628.97 647576 -629.17 647534 -711.73 647617 -710.8 647825 -793.36 647908 -751.12 648075 -668.45 648034 -461.28 648034 -419.66 648076 -419.06 648201 -584.58 648242 -501.3 648326 -750.33 648242 -750.12 648283 -791.61 648283 -956.32 648492 -1080.8 648492 -1206 648367 -1247.3 648409 -1246.3 648577 -1495.7 648580 -1578.7 648624 -1578.5 648666 -1703.8 648627 -1662.3 648583 -1913.6 648639 -2040.8 648610 -2164.5 648721 -2289.1 648921 -2289.1 649090 -2330.7 649172 -2247.4 649219 -2289 649384 -2330.7 649466 -2414.2 649462 -2455.9 649629 -2497.6 649627 -2539.4 649710 -2539.3 649879 -2748 649956 -2748.1 6.5e5 -2831.3 6.5e5 -2831.5 650080 -2914.8 650162 -2873.3 650206 -2873.4 650418 -2915.1 650459 -2915.1 650713 -2831.7 650757 -2831.6 650842 -2915.1 650840 -2915.1 650924 -2706 651012 -2706 651096 -2622.1 651181 -2538.2 651182 -2411.9 651349 -2411.7 651474 -2369.3 651516 -2453.2 651683 -2663.3 651768 -2621.1 651852 -2663 651936 -2578.6 652060 -2367.3 652138 -2451.4 652223 -2620.3 652185 -2577.8 652267 -2704.2 652312 -2703.8 652395 -2830.2 652355 -2830.1 652439 -2997.5 652691 -2955.6 652691 -2955.4 652772 -2745 652808 -2745.2 652726 -2618.9 652764 -2534.6 652721 -2576.7 652763 -2492.5 652761 -2450.4 652801 -2450.4 652883 -2324.2 652921 -2408.5 653087 -2114.1 653163 -975.53 653139 -765 653259 -172.76 653208 -135.83 653536 -346.04 653621 -347.46 653744 -179.75 653782 -97.626 653740 -57.888 653821 144.08 653900 103.2 653942 183.62 654023 346 654062 385.57 654225 466.85 654265 425.51 654347 465.8 654428 261.51 654472 138.42 654556 136.66 654761 217.92 654800 177.05 654801 176.7 654842 257.79 654923 421.06 655003 544.42 655001 544.16 655042 626.37 655083 543.11 655247 419.5 655249 377.46 655372 418.47 655412 376.37 655536 211.23 655579 169.02 655702 85.898 655785 127.02 655785 167.59 655866 250.2 655865 291.17 655906 290.72 655988 249.33 655988 39.877 656278 -84.648 656321 -85.044 656361 80.261 656400 246.69 656358 329.37 656439 412.55 656439 495.4 656521 494.68 656685 536.36 656685 536.18 656726 453 656686 452.66 656768 410.92 656768 368.78 656850 243.51 656851 159.2 656974 -51.234 657140 -52.05 657222 -263.11 657388 -264.62 657511 -348.67 657554 -433.55 657678 -435.37 657842 -393.65 657841 -394.61 657923 -353.35 657964 -395.49 658005 -354.32 658045 -143.95 658126 -143.62 658085 68.524 658044 -274.08 658455 -403.34 658702 -447.02 658867 -404.98 658866 -406.03 658989 -363.33 658990 -406.88 659113 -321.22 659113 -235.23 659239 -149.24 659281 -148.84 659490 -363.81 659446 -407.28 659361 -534.39 659321 -614.65 659542 -655.42 659545 -694.64 659721 -815.89 659860 -814.47 659989 -936.1 660086 -1055.7 660355 -1136.9 660403 -1094.6 660531 -1134.4 660621 -1379.9 660590 -1377.8 660767 -1418.1 660812 -1416.5 660945 -1375.2 660988 -1414.9 661078 -1496.5 661081 -1495.4 661170 -1615 661396 -1613.2 661571 -1573.5 661644 -1614 661690 -1615 661849 -1534.1 661879 -1534.4 662000 -1575 662045 -1372.2 662058 -1331.4 662135 -1086.7 662064 -840.71 662119 -800.1 662032 -759.02 662028 -717.93 662024 -676.31 662104 -387.28 662044 -261.96 662205 -219.82 662328 -136.95 662325 -53.246 662447 -52.075 662656 -10.625 662654 -10.368 662696 281.94 662689 282.06 662731 491.71 662686 659.65 662725 659.46 662559 785.44 662516 1078.9 662596 1078.9 662637 1288.1 662553 1497 662551 1496.9 662468 1580.5 662467 1622.2 662425 1622.1 662343 1872.5 662341 1914.2 662423 1997.6 662422 1997.6 662340 2039.3 662298 2164.2 662297 2289.3 662420 2414.2 662419 2622.4 662584 2788.9 662583 2913.9 662789 3205.2 662994 3413.1 663034 3330 663200 3413.4 663572 3496.6 663737 3579.8 663778 3621.4 663695 3787.6 663653 3787.6 663736 3746 663736 3787.7 663818 4037.1 664024 4037.1 664066 4286.4 664147 4369.4 664064" fill="red" stroke="#000" stroke-opacity=".5"/>
</g>
</g>
</svg>
