<?xml version="1.0" encoding="UTF-8"?>
<svg baseProfile="full" version="1.1" viewBox="0 0 22988 18968" xmlns="http://www.w3.org/2000/svg">
<defs>
<style type="text/css">polyline,line,rect,path,polygon,.polygon{fill:none;stroke:#000;stroke-width:1px;stroke-linejoin:round;}.country {
    fill: grey;
    opacity: 0.40;
    stroke: black;
    stroke-opacity: 0.5;
}
.federal_state {
    fill: red;
    stroke: black;
    stroke-opacity: 0.5;

}</style>
</defs>
<g transform="scale(1 -1) translate(7581.1 -696543)" fill_rule="evenodd">
<g class="NAME">
<g fill="red" stroke="#000" stroke-opacity=".5" fill_rule="evenodd">
<polygon class="federal_state" points="-2031.2 685346 -1955.2 685246 -2050.1 685179 -2028.5 685129 -2079.4 685139 -2118.9 685260"/>
<polygon class="federal_state" points="-147.29 685354 -114.57 685307 -220.05 685304"/>
<polygon class="federal_state" points="-2539 685592 -2517.5 685537 -2616.2 685448 -2706.8 685491 -2673.7 685553"/>
<polygon class="federal_state" points="-7057.9 686765 -7037.1 686706 -7063.1 686663 -7178.5 686708"/>
<polygon class="federal_state" points="-7423.4 686817 -7355.6 686745 -7275.7 686756 -7233 686703 -7223.6 686610 -7198.1 686612 -7239 686548 -7184.6 686547 -7253.6 686545 -7270.6 686620"/>
<polygon class="federal_state" points="13534 689681 13567 689666 13502 689674"/>
<polygon class="federal_state" points="-2915.6 689818 -2833 689771 -2916.2 689722 -2951.9 689781"/>
<polygon class="federal_state" points="-1719.8 689812 -1763.3 689744 -1828 689781"/>
<polygon class="federal_state" points="-3393.9 689914 -3405.6 689797 -3348.3 689756 -3320.1 689660 -3360 689635 -3288 689613 -3188.1 689470 -3072.8 689470 -3076.7 689433 -3312.6 689202 -3438.1 689305 -3568.8 689649 -3506.2 689825"/>
<polygon class="federal_state" points="13395 690745 14057 690618 14347 690442 14468 690467 14468 690381 14527 690330 14600 690075 14760 689914 14781 689803 14909 689643 15021 689319 14574 689416 14365 689400 14266 689338 14238 689408 14346 689421 14324 689451 14356 689465 14189 689493 14106 689485 14058 689412 14158 689322 14141 689285 13755 689285 13598 689358 13597 689509 13638 689579 13586 689760 13532 689743 13538 689783 13466 689799 13453 689747 13451 689796 13382 689831 13318 689798 13305 689742 13257 689772 13111 689718 13113 689662 13278 689559 13032 689694 12997 689792 13027 690152 13070 690289 13191 690562 13355 690749"/>
<polygon class="federal_state" points="-3381 690690 -3206 690519 -3289.2 690454 -3297 690365 -3247.6 690238 -3421.1 690131 -3465.3 690474 -3435 690675"/>
<polygon class="federal_state" points="-1238.2 690787 -1055 690737 -1141.5 690639 -1356.9 690738"/>
<polygon class="federal_state" points="-1992.8 690802 -1896 690765 -1925.3 690638 -1900.3 690592 -1962.1 690425 -2001.8 690407 -1980.4 690366 -2031.3 690237 -2125.5 690107 -2442.5 690047 -2660.6 690302 -2677.7 690463 -2637.7 690543 -2425.4 690560 -2338.9 690606 -2298.9 690686 -2147.8 690707"/>
<polygon class="federal_state" points="-2900.5 691058 -2747 690902 -2761.8 690825 -2916.5 690801 -2977 690894 -3173.9 690998 -3144.8 691053 -3012.2 691009"/>
<polygon class="federal_state" points="-3341.9 691116 -3367.6 691036 -3288.7 691020 -3225.5 690822 -3484.5 690787 -3523.7 690830 -3482.9 691003"/>
<polygon class="federal_state" points="-1486.8 691703 -1468.9 691682 -1540.7 691669"/>
<polygon class="federal_state" points="-1723.2 691772 -1680.6 691673 -1745.4 691599 -1810.1 691578 -1874.4 691634 -1849 691720"/>
<polygon class="federal_state" points="-2170.6 691969 -2174.8 691830 -2268.6 691722 -2520.1 691649 -2685 691659 -2915.8 691475 -3040.7 691581 -2979 691689 -2533.8 691757 -2329 691837"/>
<polygon class="federal_state" points="-1853.8 692304 -1793.2 692227 -1872.6 692082 -2055.3 692089 -1872 692230"/>
<polygon class="federal_state" points="-4144.3 692536 -4119.5 692511 -4253 692395 -4261.2 692290 -4166.1 692113 -4121.9 691846 -3990.1 691749 -4005.2 691660 -3966.2 691601 -3872.8 691621 -3851.6 691584 -3966.6 691557 -3935 691474 -3873.8 691498 -3906.7 691427 -4118.8 691389 -4469.6 691856 -4564.6 692045 -4480.4 692218"/>
<polygon class="federal_state" points="-2963.2 693018 -2681.4 692890 -2664.1 692778 -2700.2 692729 -2607.8 692614 -2705.1 692507 -2741.7 692377 -2716.9 692330 -2793.1 692173 -3352 692189 -3533.7 692317 -3851.8 692410 -3887.1 692469 -3863.8 692673 -3726.1 692885 -3392.6 692987 -3235.5 692949"/>
<polygon class="federal_state" points="3673.9 694465 3631.7 694396 3542.7 694374 3698.6 694506"/>
<polygon class="federal_state" points="-3722.4 696373 -3432.2 696250 -3531.8 696229 -3609.5 696285 -3840.1 696306 -3829.7 696272 -3865.4 696250 -3855.7 696145 -3692.4 696125 -3579.8 695994 -3566.2 695920 -3973.2 695710 -4139.7 695384 -4087.4 695266 -4107.8 694975 -4060.8 694660 -3969.3 694529 -3660.4 694381 -3296.7 694375 -3103.6 694445 -2643.6 694467 -2411.3 694574 -2364.7 694620 -2324.7 694765 -2227.4 694735 -1963.3 694779 -1897.9 694688 -1848.4 694696 -1840.4 694647 -1791 694655 -1783 694606 -1733.5 694614 -1725.5 694565 -1527.7 694598 -1543.6 694696 -1494.2 694704 -1502.1 694754 -1205.3 694803 -1197.3 694754 -1098.4 694770 -1081.3 694664 -959.55 694540 -626.17 694673 -316.43 694646 -308.46 694597 -160.04 694622 -152.07 694572 -102.61 694580 -94.631 694531 -45.164 694539 -37.195 694490 171.75 694396 174.26 694353 302.83 694271 918.98 694290 1261.1 694126 1443.5 694127 1450.9 694081 1555.5 694049 1574.3 693946 1623.8 693954 1639.7 693856 1689.2 693864 1705.1 693765 1754.6 693773 1817.2 693530 2033.7 693617 2041.7 693568 2190.1 693592 2222.6 693547 2258 693671 2377.1 693720 2374.9 693774 2455.1 693838 2447.1 693888 2496.6 693896 2490.1 693935 2625.5 693968 2652.8 693862 2700.4 693858 2751.7 693676 2827.2 693605 2759.8 693521 2800 693382 2816.8 693546 2913 693596 2926.7 693683 2986.9 693764 3190.4 693759 3314.1 693942 3754.2 694239 3781.7 694363 3938.6 694365 3846.8 694265 3787.5 694101 3799.1 693996 3875.1 693869 4007.2 693871 4176 693764 4258 693780 4573.8 693622 4892.5 693545 4961.1 693478 5093.1 693501 5206.4 693280 5427.2 693047 5638.8 693007 5666.1 693109 5747.1 693209 5830.3 693136 5803.4 693284 5836.2 693510 6146.1 693322 6289 693065 6310.5 692805 6374 692617 6682.6 692328 6674.7 692130 6623.5 692200 6637.3 692238 6605.1 692234 6643.8 692284 6590.4 692259 6636.3 692306 6582.6 692302 6592.7 692348 6443 692297 6426.1 692222 6390.2 692228 6364.4 692280 6414.1 692309 6401.8 692423 6337 692447 6280.9 692359 6277.9 692313 6321.3 692289 6304 692239 6051.1 692128 6050.2 691927 6001.9 691777 6006.5 691703 6057.1 691679 6025.5 691623 5896.2 691634 5863.1 691698 5845.8 691649 5871.2 691627 5760.7 691570 5551.8 691336 5405.1 691291 5380.4 691253 5420 691245 5330.6 691213 5292 691138 5252.1 691175 5330.4 691237 5201.7 691177 5184.9 691078 5234.2 691165 5266.9 691131 5238.9 691072 5078 691006 5002.3 691029 5048.4 691076 4980.1 691088 4938.3 690961 4971.2 690915 4875 690839 4755.8 690548 4626.2 690556 4659 690519 4613.4 690404 4548.7 690400 4537.1 690480 4501 690489 4184.9 690449 4203.2 690419 4138.3 690424 4099.5 690340 4059.1 690436 4101.8 690483 4058.3 690525 3911.3 690478 3882.9 690434 3922.7 690404 3801.3 690291 3570.8 690317 3531.5 690280 3571.2 690265 3571.6 690212 3741 690183 3673.1 690123 3735.1 690025 3721.7 689901 3775.5 689932 3742.1 690050 3762.6 690189 4042.2 690309 4309 690252 4349.5 690160 4483.5 690075 4631 690089 4596.7 690274 4534.8 690351 4635.2 690379 4666.3 690510 4702.3 690501 4685.2 690414 4771 690464 4752.7 690501 4802.9 690517 4784.1 690591 4816.5 690592 4844 690706 4930 690735 4986.4 690834 5040.4 690829 5026.6 690779 5314 691101 5435.8 691130 5442 691208 5460.3 691180 5663.6 691291 5848 691472 6058.4 691577 6043.3 691636 6103 691729 6043.6 691880 6075.4 691918 6070 692054 6115.5 692138 6294.6 692140 6435.6 692055 6466.6 692146 6515.1 692010 6647.4 692037 6671.5 692102 6662.1 692015 6547.6 691998 6669.9 691969 6651.7 691743 6679.4 691567 6626 691285 6657 691131 6628.8 691093 6647.9 690772 6569.6 690712 6462 690442 6256.1 690238 5605.7 689862 5514.8 689938 5442.8 689931 5475.6 689903 5447.6 689832 5499.6 689703 5546.4 689709 5554.3 689644 5634 689611 5928.8 689668 6057.3 689765 5999.5 689777 7306.4 690056 7776.3 689739 7759.5 689667 7691.4 689644 7582.2 689491 7727.3 689225 7719.8 689026 7741.9 689002 7540.6 688952 7574.6 688863 7503.9 688766 7460.6 688769 7483.4 688698 7447.2 688700 7473.2 688658 7444 688679 7416.6 688585 7512 688494 7527.9 688408 7366.2 688121 7498.3 688225 7490.4 688265 7559.3 688254 7608.7 688329 7702.9 688312 7611.6 688369 7654.8 688382 7628.9 688419 7657 688679 7771.6 688740 7754.7 688882 7850.7 688970 7856.1 689075 7971.8 689269 8302.8 689321 8395.5 689375 8366.1 689409 8287.8 689349 8372.6 689446 8555 689527 9025.7 689424 9592.3 689059 10422 688752 10654 688590 10733 688416 10943 688273 10918 688241 10952 688183 11095 688125 11639 688212 11880 688404 12149 688736 12378 688847 12528 689018 12675 689053 13138 689023 13154 688977 12985 688954 12879 689000 12950 688906 13036 688936 13164 688878 13511 688997 13513 689052 13614 689182 13820 689154 13844 689093 13815 688965 13561 688766 13514 688638 13519 688712 13474 688767 13381 688736 13414 688623 13492 688650 13472 688593 13500 688260 13575 687935 13564 687551 13660 687003 13489 686924 13359 686747 12765 686337 12587 686069 12294 685746 12219 685704 12137 685748 11967 685731 11805 685817 11824 685774 11788 685758 11727 685580 11506 685392 11465 685282 11484 685104 11717 684707 11824 684654 11866 684696 12198 684683 12317 684605 12367 684523 12349 684356 12464 684247 12388 684123 12399 683916 12519 683957 12688 683913 12733 683830 12902 683787 12862 683746 12777 683788 12739 683706 12737 683747 12494 683667 12451 683709 12446 683792 12526 683832 12316 683958 12278 683917 12282 683834 12088 683711 12130 683669 11972 683628 11821 683421 11704 683379 11624 683420 11513 683171 11479 682965 11560 682925 11603 682843 11609 682678 11650 682637 11611 682595 11653 682554 11656 682472 11620 682348 11660 682348 11662 682307 11586 682183 11593 681977 11672 682019 11879 681936 11922 681895 11931 681689 12101 681565 12183 681565 12228 681482 12475 681521 12686 681437 12863 681187 12823 681146 12826 681063 12871 680980 12913 680979 12916 680897 12759 680651 12727 680404 12736 680156 12657 680033 12368 6.8e5 12369 679955 12244 6.8e5 12241 680081 12075 680082 12120 6.8e5 12122 679917 12083 679876 12171 679711 12050 679630 12053 679547 12094 679547 12054 679506 12056 679465 12097 679464 12100 679382 12016 679424 11852 679385 11818 679179 11695 679140 11657 679058 11655 679099 11535 679017 11492 679059 11454 678977 11329 679018 11255 678772 11131 678813 10886 678771 10849 678648 10809 678648 10851 678607 10778 678320 10788 677952 10667 677911 10631 677747 10512 677702 10388 677822 10025 677852 9372.9 678244 9248.6 678405 8927.5 678397 8845.4 678477 8765.1 678475 8763.2 678516 8844.3 678518 8878.1 678683 8795.9 678681 8800.1 678599 8673.2 678637 8713 678679 8494.6 678838 8488.9 678961 8273.4 679038 8266.4 679201 8225.6 679159 8138.9 679198 8178.2 679282 8086.4 679444 8004.9 679360 7919.9 679358 7744.9 679477 7781 679642 7697.7 679599 7650.4 679721 7732 679805 7728.7 679887 7642.3 679926 7640.7 679967 7683.1 679968 7678.2 680091 7720.6 680092 7759.7 680175 7761.4 680134 8015.1 680140 7925.7 680261 7966.2 680303 7961.2 680426 7919 680425 7917.3 680466 8122.7 680594 8077.3 680675 8119.4 680676 7905.8 680753 7986.6 680837 7853.9 680999 7811.7 680998 7808.5 681080 7724.2 681078 7678.8 681159 7550.6 681197 7633.4 681240 7672.4 681323 7709.8 681447 7667.7 681446 7666.1 681487 7789.2 681572 7790.9 681531 7832.9 681532 7912.2 681657 7907.4 681780 7779.8 681818 7778.1 681859 7694.1 681858 7697.2 681776 7449.1 681647 7410 681564 7153.8 681641 7114.6 681558 7072.4 681557 7073.8 681516 7116.1 681517 7075.4 681474 7159.8 681476 7079.8 681351 7085.8 681187 6619.1 681218 6540.1 681052 6586.7 680930 6544.4 680929 6547.2 680847 6078.2 680919 5994.6 680877 5998.5 680753 5956 680752 5877.8 680545 5752.9 680461 5631.8 680253 5546.8 680251 5506.9 680168 5549.4 680169 5465.7 680126 5249.2 680245 5203.2 680367 5288 680369 5073 680487 5069.8 680610 5027.6 680609 4947.4 680443 4990.7 680403 4992.7 680321 4908.4 680319 4911.4 680197 4829.1 680113 4873.2 680032 4794 679826 4461.6 679892 3620.1 680431 3532.8 680591 3486.9 680754 3481.1 680958 3395.1 681078 3348.3 681280 2756.6 681789 2670.8 681909 2362.9 682634 1895.7 683148 1521.5 683257 1520.4 683298 633.78 683307 630.07 683354 337.77 683474 -162.52 683397 -326.79 683511 -614.79 683858 -727.47 684121 -822.08 684235 -807.28 684365 -1025.4 684628 -1105.1 684808 -1079.5 684860 -1181.4 684870 -1064.8 684910 -1039.1 685012 -951.59 685076 -798.68 685113 -496.73 685076 -369.43 684983 -234.76 684989 -118.26 685106 -92.76 685279 -336.2 685617 -473.87 686065 -680.83 686090 -920.71 685964 -942.36 686032 -1036.7 686072 -1138 686211 -1188.2 686459 -1256.9 686549 -1205.3 686855 -1078 687024 -1055.9 687182 -1106.5 687235 -1069.9 687401 -1015.5 687469 -631.69 687493 -399.78 687756 -370.65 687982 -312.73 688080 -359.73 688084 -482.81 687923 -899.37 687590 -913.57 687726 -1018.3 687809 -913.63 687698 -942.72 687630 -921.12 687571 -1000.9 687525 -1044.2 687562 -1018.8 687578 -1036.6 687720 -1152.1 687844 -1412.9 687724 -1669.4 687830 -1785.4 687775 -1890.2 687803 -2024.6 687680 -2046.7 687587 -2173.3 687606 -2266.9 687700 -2310.6 687638 -2583.3 688057 -2579.9 688017 -2608.8 688023 -2526.6 687859 -2652.6 687949 -2469.3 687744 -2649.7 687831 -2735.2 688051 -2682.8 688366 -2569.5 688592 -2472.1 688566 -2458 688498 -2494.2 688480 -2469.2 688439 -2353.8 688389 -2386.1 688436 -2350.1 688414 -2357.1 688461 -2313.8 688451 -2281 688510 -2042.3 688577 -2125.2 688611 -2074.2 688703 -2150.1 688679 -2250.9 688744 -2244.1 688673 -2301.8 688683 -2355.8 688708 -2369.8 688788 -2427.5 688801 -2446 688718 -2557.9 688728 -2582.9 688765 -2538.8 688907 -2357.9 688995 -2376.2 688958 -2249.8 688979 -2137.5 689062 -1989.7 689037 -1791 689120 -1256.9 689195 -867.56 689098 -585.97 689268 -250.39 689694 -88.267 689707 -9.0034 689747 -9.0016 689840 153.05 689867 30.603 689929 81.006 689991 80.994 690056 -62.956 690285 -70.143 690378 -120.51 690396 -235.66 690310 -264.55 690133 -383.38 690053 -469.99 689843 -592.57 689741 -776.35 689701 -1024.9 689726 -1255.1 689835 -1175.4 690020 -1233 690051 -1261.5 690141 -969.59 690317 -828.99 690477 -785.54 690638 -842.66 690867 -709.2 691194 -766.69 691167 -748.66 691213 -795.23 691278 -780.76 691346 -906.53 691272 -1125.5 691272 -1172.3 691217 -1208.2 691248 -1233.1 691316 -1139.8 691328 -1064.1 691442 -1021 691442 -1121.1 691625 -1145.8 691789 -1295.9 691959 -1482 692050 -1603.4 692183 -1599.1 692387 -1645.3 692483 -1852.6 692580 -1863.1 692642 -2013.1 692726 -1891 692836 -1894.1 692932 -1975.7 693087 -1975.4 693171 -2056.8 693347 -2202.8 693453 -2184.8 693487 -2259.2 693620 -2535.8 693968 -2530.4 694296 -2551.3 694386 -2629.4 694457 -3143 694427 -3519.5 694151 -3748.7 694042 -3997.4 694173 -4070.6 694360 -4195.4 694370 -4234.1 694420 -4306.8 694272 -4277.2 694386 -4302 694408 -4313.1 694368 -4391.5 694372 -4402.7 694316 -4427.3 694351 -4481.6 694271 -4475.4 694181 -4285.9 694226 -4464.8 694172 -4443.7 694141 -4494.1 694088 -4536 693832 -4501.3 693730 -4519.9 693650 -4499.4 693563 -4551 693396 -4502.4 693257 -4500.2 693111 -4544 693031 -4516.9 692880 -4637.4 692989 -4562 694439 -4501.9 694741 -4304.2 695296 -3919.2 696192 -3843.4 696334"/>
</g>
</g>
</g>
</svg>
