<?xml version="1.0" encoding="UTF-8"?>
<svg baseProfile="full" version="1.1" viewBox="0 0 7759.5 6037" xmlns="http://www.w3.org/2000/svg">
<defs>
<style type="text/css">polyline,line,rect,path,polygon,.polygon{fill:none;stroke:#000;stroke-width:1px;stroke-linejoin:round;}.country {
    fill: grey;
    opacity: 0.40;
    stroke: black;
    stroke-opacity: 0.5;
}
.federal_state {
    fill: red;
    stroke: black;
    stroke-opacity: 0.5;

}</style>
</defs>
<g transform="scale(1 -1) translate(-2555.3 -615989)" fill_rule="evenodd">
<g class="NAME">
<polygon class="federal_state" points="7496.4 615910 7757.5 615766 7763.3 615684 7849.3 615649 7857.9 615526 7902.3 615488 7979.9 615577 8071.6 615459 8279.7 615475 8315.7 615560 8526.5 615534 8496.1 615367 8537.7 615370 8629.2 615252 8795.6 615264 8803.9 615140 8970.2 615152 9006.4 615237 9089.6 615242 9164.6 615371 9206.2 615374 9175.5 615207 9266.9 615089 9283.2 614842 9493.8 614814 9454.9 614770 9504.5 614649 9465.6 614606 9418.6 614685 9307.3 614472 9348.9 614475 9320.8 614267 9448.1 614233 9453.4 614151 9494.9 614154 9497.5 614113 9383.6 613941 9098.6 613840 9145.3 613761 9109.2 613676 9156 613596 9238.7 613602 9412.4 613490 9417.7 613408 9461.7 613370 9422.9 613326 9466.9 613288 9386.7 613241 9389.2 613200 9513.5 613208 9474.6 613165 9645.4 613093 9894.3 613108 9857.8 613024 9982.6 613031 9948.5 612905 10236 613002 10238 612962 10157 612917 10246 612839 10206 612796 10162 612835 10256 612675 10175 612630 10182 612508 10059 612460 10064 612379 10145 612424 10143 612465 10187 612426 10190 612385 10069 612297 10077 612174 10121 612136 10084 612052 9964 611963 9753.9 611992 9800.2 611913 9766 611788 9685.8 611741 9690.6 611660 9651.9 611616 9605.6 611695 9564.4 611692 9603.2 611736 9520.7 611730 9528.1 611607 9409.6 611517 9453.1 611479 9414.5 611435 9542.8 611362 9468 611234 9473 611152 9775.4 610928 9780.2 610847 9872.2 610689 9960.6 610696 9942.1 610408 9673.8 610384 9441.7 610065 9337.5 610154 9089 610221 8839.3 610163 8747.8 610054 8730 610130 8647.1 610213 8495.8 610181 8458.3 610112 8258.5 610235 8207.7 610335 8057.2 610305 8051.5 610379 8103.5 610435 8010.2 610478 7901.7 610443 7898.7 610332 7954.5 610232 7828.9 610151 7792.1 610044 7724 610010 7635 610071 7630.7 610300 7497.9 610660 7535 610849 7436.3 610897 7384.6 610851 7115.6 611070 6977.8 611014 6809.4 611216 6732.8 611226 6515.9 611080 6253.3 611204 6123.1 611120 6103.1 611087 6202.9 610968 6196.3 610891 6276.9 610726 6159.3 610661 6183.1 610489 6087.2 610421 5718.2 610603 5382.1 610560 5247.8 610692 5196 610836 5323.8 611028 5260.5 611169 5048 611146 4981.8 611530 4815.4 611587 4859.1 611844 4752.7 611850 4736.3 611920 4479.9 612088 4281 612302 4303.5 612431 4205.9 612446 4107.9 612603 4104.6 612679 4138 612697 4266.4 612632 4353 612798 4255.5 612850 4240.2 612999 4101.1 613040 3923.2 613179 3906.6 613288 4024.2 613379 3883.5 613546 3515.8 613747 3393.8 613883 3192.5 613903 3129.7 613989 3061.2 614006 2922.6 613893 2664.5 613899 2674 613824 2572 613881 2654.9 613919 2643 614347 2698 614373 2659.5 614571 2609.1 614555 2602 614612 2687.8 614805 2991.1 614789 2994.2 614747 3074.8 614797 3248.5 614731 3251.7 614690 3329.1 614781 3374.1 614744 3371 614785 3457.9 614752 3509.2 614633 3596.2 614600 3673.7 614690 3715.7 614694 3722 614612 3806 614619 3802.8 614661 3883.7 614709 4012.9 614680 4090.6 614769 4190.6 614571 4281.1 614496 4407.4 614507 4446.3 614551 4397.8 614630 4481.9 614637 4475.5 614719 4598.4 614771 4685.5 614737 4724.3 614781 4717.9 614864 4759.8 614867 4766.2 614785 4972.6 614843 4982 614720 5023.9 614723 5133.6 614939 5339.6 614997 5426.4 614962 5899.8 615372 5947.6 615293 5986.3 615337 6075.9 615262 6147.3 615432 6263.5 615565 6350 615531 6427.5 615619 6716.5 615683 6802.8 615649 6794 615772 6749.4 615810 6788.2 615854 6871.6 615860 6877.4 615779 6922 615741 7080 615877 7082.8 615836 7205 615887 7133.2 615717 7174.8 615720 7249.4 615849 7335.6 615815 7416 615863 7451.9 615948" fill="red" stroke="#000" stroke-opacity=".5"/>
</g>
</g>
</svg>
