<?xml version="1.0" encoding="UTF-8"?>
<svg baseProfile="full" version="1.1" viewBox="0 0 19962 16270" xmlns="http://www.w3.org/2000/svg">
<defs>
<style type="text/css">polyline,line,rect,path,polygon,.polygon{fill:none;stroke:#000;stroke-width:1px;stroke-linejoin:round;}.country {
    fill: grey;
    opacity: 0.40;
    stroke: black;
    stroke-opacity: 0.5;
}
.federal_state {
    fill: red;
    stroke: black;
    stroke-opacity: 0.5;

}</style>
</defs>
<g transform="scale(1 -1) translate(8055.5 -644415)" fill_rule="evenodd">
<g class="NAME">
<polygon class="federal_state" points="-1579 644232 -1246.5 644185 -1247.4 644018 -1206.1 643975 -1080.9 644101 -956.45 644101 -791.71 643892 -750.22 643892 -750.43 643850 -501.37 643934 -584.66 643851 -419.12 643810 -419.71 643685 -461.34 643643 -751.22 643684 -793.46 643517 -710.89 643434 -711.81 643226 -629.24 643143 -629.05 643185 -587.63 643185 -587.76 643143 -422.2 643103 -422.37 643061 -339.64 643020 -339.8 642979 -381.23 642978 -381.06 643020 -422.47 643020 -464.73 642811 -382.12 642729 -382.38 642646 -423.84 642646 -423.94 642604 -299.8 642563 -176.03 642398 -217.44 642398 -259.16 642315 -218.08 642191 -259.59 642149 -176.83 642108 -218.51 642025 -218.66 641983 -177.22 641983 -218.93 641859 -136.1 641859 -136.32 641776 70.928 641819 70.794 641778 -53.637 641694 194.92 641696 360.87 641822 526.6 641823 609.25 641741 816.24 641660 816.17 641619 899.09 641661 899.02 641619 1023.2 641537 1188.9 641539 1189 641580 1354.7 641540 1354.8 641582 1562.3 641666 1603.6 641584 1728.3 641584 1728 641460 1936 641503 1936.4 641586 2019.4 641545 2269.7 641628 2310.8 641422 2394.1 641422 2435.6 641340 2435.7 641381 2519.2 641422 2518.9 641340 2560.5 641299 2602.4 641381 2769 641341 2768.7 641217 2727 641217 2726.8 641134 2768.5 641134 2726.7 641093 2768.3 641052 2768.1 640969 2809.8 640969 2809.6 640887 3018.1 640888 3018 640805 2934.5 640805 2975.9 640681 3142.7 640600 3184.2 640517 3350.9 640394 3267.1 640270 3225.6 640352 3183.6 640270 3183.2 640146 3057.7 640063 3099.3 640022 3015.5 639898 2973.7 639897 2889.9 639732 2806.5 639690 2806.6 639772 2723.3 639772 2723.4 639813 2598.1 639605 2556.5 639605 2556.4 639522 2764.4 639483 2722.7 639400 2764.3 639317 2847.6 639318 2889.3 639401 3056.2 639444 3139.5 639403 3139.2 639238 3306.1 639198 3305.7 638991 3430.9 638951 3430.8 638910 3347.3 638909 3388.9 638827 3180.2 638701 3180.2 638660 3221.8 638619 3221.8 638536 3263.4 638536 3263.3 638330 3388.3 638290 3429.9 638208 3596.8 638209 3596.9 638292 3847.3 638211 3847.5 638335 3931.1 638295 4015 638419 4224.2 638379 4349.6 638257 4349.3 638174 4391.4 638257 4517.3 638340 4601 638300 4684.9 638341 4726.7 638259 4894.2 638178 4936 638096 4935.5 637890 5019.3 637850 5019.4 637891 5103.4 637891 5103.3 637850 5271.1 637810 5313 637769 5270.9 637687 5354.7 637646 5354.6 637564 5438.7 637606 5480.8 637688 5774.8 637649 5984.9 637732 6111 637692 6195.1 637775 6321.2 637693 6321.1 637611 6405.2 637653 6447.2 637571 6489.2 637571 6447.2 637530 6447.1 637489 6489.1 637489 6447.1 637448 6657.4 637490 6951.8 637287 6909.7 637287 6909.7 637164 6867.6 637082 6951.7 637041 7078.1 637083 7078 637042 7162.3 637001 7204.3 636961 7204.3 636879 7162.2 636879 7162.2 636797 7330.7 636839 7499 636799 7583 636881 7750.9 636922 7751 636882 8044.9 636801 8045.2 636719 8170.7 636801 8254.7 636720 8254.5 636801 8379.7 636924 8506.2 636679 8631.6 636720 8631.9 636639 8590.1 636639 8632.4 636516 8799.3 636639 8798.7 636761 8756.9 636761 8798.1 636924 8923.2 637006 8964.5 637129 9047.5 637251 9089.3 637251 9172.2 637414 9171.7 637537 9129.9 637537 9129.6 637618 8879.2 637578 8837.3 637619 8920.4 637741 8919.7 637945 8961.4 637945 8961.1 638027 9086 638108 9085.8 638190 9210.6 638272 9336 638231 9460.8 638312 9586.2 638230 9586.7 638108 9628.5 638067 9712 638026 9836.9 638107 9962.4 637984 10046 638066 10254 638065 10296 638146 10337 638105 10338 637942 10379 637942 10380 637901 10463 637941 10630 637900 10672 637777 10630 637777 10631 637573 10672 637531 10673 637409 10714 637368 10714 637490 10756 637490 10756 637449 10881 637489 10881 637408 10839 637367 10881 637367 10923 637285 10798 637204 10881 637162 11006 637202 11006 637161 11131 637120 11173 637038 11173 637079 11381 637200 11381 637077 11464 637036 11547 636667 11547 636585 11506 636585 11506 636544 11630 636503 11630 636421 11713 636379 11713 636338 11630 636257 11630 636134 11506 636217 11340 636177 11340 636136 11132 636179 11133 636138 11091 636138 11091 636179 11049 636179 10925 636099 10800 636182 10718 636141 10759 636059 10718 636019 10718 636060 10510 636021 10510 635980 10386 635899 10386 635777 10262 635696 10304 635574 10222 635452 10180 635493 10097 635412 10055 635576 10096 635616 10013 635617 9972.1 635536 9764.1 635578 9764.4 635537 9598.8 635416 9599.9 635253 9308.7 635213 9266.6 635254 9266 635335 9224.5 635295 9225.1 635213 9267.2 635173 9141.5 635213 9142.3 635091 9100.5 635091 9099.9 635173 8974.5 635132 8890.4 635172 8849 635091 8933.7 634969 8934.6 634847 9185.9 634888 9187.1 634725 9020.8 634562 8852 634643 8768.3 634520 8768.8 634316 8811.3 634316 8811.4 634235 9022.8 634319 9108.1 634197 8939.1 634073 9024.4 633952 9024.4 633829 9067 633829 9109.6 633748 9280.3 633751 9280.3 633710 9407.7 633753 9450.4 633671 9403.8 633506 9320.2 633462 9232.4 633295 9149.9 633335 9148.4 633252 9064.3 633293 9021.1 633250 9062.8 633210 9061.6 633126 8935.1 633165 8892.3 633081 8806.8 633080 8807.4 633121 8554.6 633199 8595.2 633158 8467.9 632991 8510.3 632992 8508.4 632908 8381.6 632906 8382.7 633030 8340.7 633070 8213.2 633067 8170.9 632984 8212.6 632945 8211.4 632820 8124.5 632528 8250.8 632572 8291.9 632490 8037.6 632444 7994.7 632360 7952.7 632360 7870.6 632523 7701.6 632479 7699 632272 7529.8 632187 7487.5 632187 7488.1 632229 7361.2 632185 7279 632306 7280.5 632389 7364.5 632473 7408.3 632681 7366.4 632722 7324 632680 7156.7 632843 7284 633010 7200.1 633091 6989.6 632963 7072.4 632841 6903.5 632715 6819.6 632754 6734.4 632587 6608.4 632543 6650.4 632463 6606.9 632213 6312.3 632166 6227.9 632040 6269.3 631875 6310.9 631835 6310.6 631753 6393.6 631795 6392.8 631754 6560.6 631756 6519.4 631838 6604.2 631881 6645.8 631839 6643.6 631675 6851.4 631513 6891.5 631389 6724.5 631345 6721.5 631137 6804.3 631098 6803.6 631056 6638.6 631178 6553.6 631050 6387.6 631008 6386 630924 6345 630923 6426.9 630842 6468.9 630885 6634.1 630847 6632.7 630762 6423.8 630634 6299.4 630632 6172.9 630464 5839.6 630335 5923.8 630460 5882.7 630501 5882.3 630460 5799.1 630459 5675.7 630623 5551.1 630662 5508.8 630579 5384.1 630618 5383.8 630577 5342.2 630576 5466.6 630495 5300.2 630534 5216.6 630492 5174.5 630408 5008 630447 4965.9 630364 4757.4 630361 4506.8 630275 4423.4 630274 4340.4 630397 4215.4 630437 4048.1 630352 4047.8 630269 3922.4 630185 3922.6 630227 3797.3 630184 3797.1 630142 3713.6 630100 3714 630266 3672.4 630348 3589 630347 3589 630389 3463.7 630346 3422 630387 3464.2 630595 3422.9 630760 3297.8 630758 3297.7 630717 3172.4 630633 3214.3 630716 3048 630838 2965.1 630962 3007 631045 2965.6 631127 3007.5 631211 2966.5 631458 3091.3 631418 3133.2 631502 3050.3 631666 2717.4 631663 2717.5 631704 2634.5 631744 2551.2 631702 2468.2 631743 2426.5 631701 2467.9 631619 2343.1 631576 2301.7 631617 2301 631369 2134.9 631367 2134.7 631284 2093.2 631243 2051.8 631325 1885.6 631241 1885.7 631282 1761.2 631239 1802 630992 1760.3 630909 1843.2 630868 1925.7 630745 1925.7 630704 1884.1 630703 1883.9 630620 1925.2 630579 1841.6 630372 1924.2 630290 1882.8 630290 1882.5 630207 1965.2 630167 2006 6.3e5 2005.6 629878 1881 629835 1963.1 629671 1880.2 629670 1838 629504 1920.1 629340 1795.3 629256 1835.4 629008 1876.7 628967 1835.2 628967 1794.4 628885 1423.5 629170 1382.8 629129 1383.6 629046 1342.7 629046 1343.8 628923 1221.1 628922 1301.8 629046 1014.7 629126 972.77 629250 931.95 629250 930.87 629373 1135.1 629498 1135.1 629581 970.42 629786 1011.8 629828 888.08 629868 888.07 629786 846.93 629785 805.73 629826 846.86 629826 846.88 629950 805.69 629991 641.13 629990 600.62 629825 314.98 629740 274.12 629740 232.72 629822 273.04 629905 150.43 629904 -13.442 629986 -54.002 629945 -53.522 629862 28.467 629821 -11.887 629739 -93.879 629780 -258.42 629985 -258.94 630067 -423.39 630273 -749.27 630148 -790.77 630272 -872.61 630313 -913.01 630230 -1199.4 630271 -1199.2 630230 -1362 630106 -1485.1 630147 -1485.4 630188 -1566.1 630023 -1648.1 630023 -1729.2 629899 -1976 629941 -1975.3 629858 -2016.5 629858 -2015.3 629735 -1892.3 629776 -1891.4 629693 -1972.3 629528 -2013.5 629528 -1931.7 629445 -1809 629404 -1604.9 629155 -1522.8 629197 -1359.2 629156 -1400.3 629073 -1359.4 628991 -1072.5 628950 -1031.5 628702 -1072.5 628619 -1236.7 628536 -1359.8 628576 -1400.7 628700 -1523.9 628700 -1606.2 628575 -1729.4 628574 -1811.2 628698 -1893.3 628698 -1894.8 628241 -1936.2 628158 -1977.6 628158 -2018.7 628241 -2143 628240 -2225.7 628365 -2392.3 628365 -2392 628489 -2559.4 628365 -2726.8 628406 -2810.4 628573 -2726.3 628697 -2768.3 628698 -2768.2 628781 -2810.1 628823 -2851.9 628823 -2809.9 628906 -2893.7 628906 -2893.7 628947 -2851.7 628947 -2851.6 629031 -2809.7 629031 -2851.4 629114 -2767.7 629155 -2851.2 629322 -2893.1 629322 -2892.9 629447 -2851 629447 -2809 629613 -3101.8 629655 -3185.4 629738 -3143.3 629904 -3310.4 629988 -3394.4 629822 -3436.3 629822 -3436.1 629905 -3603.4 629864 -3603.2 629948 -3561.3 629989 -3602.9 630072 -3728.4 630073 -3811.8 630156 -3852.9 630405 -3978.2 630406 -3978.4 630323 -4062 630282 -4061.9 630323 -4270.6 630366 -4312.4 630325 -4353.7 630491 -4228.1 630574 -4228 630657 -4394.8 630699 -4394.6 630741 -4478 630783 -4394.3 630824 -4477.7 630824 -4602 631074 -4685.2 631116 -4642.7 631324 -4725.9 631366 -4725.6 631449 -4767.2 631449 -4767.4 631408 -4892.3 631450 -4892.4 631409 -5017.3 631451 -5100 631577 -5183.3 631577 -5266.2 631661 -5432.8 631663 -5474.2 631705 -5431.7 631871 -5639.2 631998 -5638.4 632122 -5804.8 632124 -5805.1 632083 -5846.7 632083 -5805.6 631999 -6013.2 632085 -6013.7 632001 -6097.1 632002 -6221 632170 -6178.6 632253 -6303.8 632254 -6388.7 632087 -6556.7 632005 -6599.5 631880 -6810 631714 -6767.6 631798 -6809.5 631798 -6808.6 631924 -6766.7 631923 -6639.1 632173 -6763.9 632342 -6721 632467 -6720 632676 -6807.1 632805 -6723 632930 -6636.9 632969 -6593.6 632885 -6465.2 632882 -6465.6 633006 -6550.6 633173 -6551 633298 -6593.3 633299 -6636.1 633424 -6678.7 633425 -6721.5 633509 -7152.1 633522 -7238.7 633483 -7239 633442 -7411.6 633447 -7455 633408 -7455.5 633325 -7326.8 633156 -7370.1 633116 -7370 633033 -7456.1 632994 -7629.2 633041 -7758.8 633129 -7758.7 633170 -7888.7 633092 -7970.4 633132 -7968.5 633213 -7926.2 633254 -7922.2 633416 -7961.8 633497 -7920.4 633497 -7833.8 633660 -7792.8 633619 -7664.6 633740 -7663.3 633822 -7746.6 633863 -7575.5 634066 -7533.2 634066 -7489.4 634188 -7531.7 634189 -7489 634229 -7486.6 634434 -7612.5 634477 -7569.6 634559 -7568.4 634682 -7484.5 634640 -7357.5 634679 -7399.4 634721 -7356.9 634761 -7440.6 634845 -7439.9 634927 -7355.1 635008 -7354.6 635091 -7396.7 635091 -7396.4 635132 -7227 635295 -7058.6 635209 -6973.6 635331 -6889.4 635247 -6762.4 635492 -6888.9 635453 -6888.4 635618 -6593.5 635818 -6593.4 635900 -6719.3 635944 -6677.1 636026 -6928.7 636196 -6928.6 636237 -7012.6 636239 -7139 636159 -7181.5 636077 -7265.1 636161 -7096.1 636406 -7264.3 636367 -7306.5 636285 -7390.4 636286 -7390.2 636328 -7348.3 636327 -7347.9 636451 -7389.4 636534 -7138 636448 -7095.9 636488 -7012 636445 -7011.8 636487 -6928 636403 -6843.6 636525 -6802 636441 -6634.1 636438 -6549.9 636518 -6591.8 636561 -6717.8 636522 -6717.4 636646 -6801.3 636689 -6717.1 636770 -6884.6 636897 -6842.1 637061 -6800 637102 -6799.8 637184 -6715.6 637265 -6548 637220 -6464 637259 -6255.2 637131 -6213.1 637213 -6087.8 637210 -6046.2 637127 -6088 637128 -5963 637043 -5796 637122 -5754.5 637080 -5587.8 637118 -5629.4 637160 -5546.1 637200 -5546 637241 -5629.1 637284 -5629 637325 -5504.3 637281 -5462.5 637363 -5545.5 637447 -5586.9 637572 -5670.1 637573 -5669.9 637656 -5711.6 637615 -5836.3 637700 -5961.3 637703 -5960.9 637868 -5877.5 637866 -5960.3 638074 -5793.4 638195 -5834.7 638278 -5751.5 638276 -5751.2 638400 -5876 638403 -6000.6 638488 -6041.9 638612 -6125.2 638614 -6125.1 638655 -6083.5 638654 -6083.1 638737 -5916.7 638692 -5916.6 638733 -5791.7 638772 -5750.3 638730 -5750.5 638648 -5667.4 638646 -5667.6 638563 -5709.1 638564 -5709.2 638523 -5626.5 638356 -5501.8 638395 -5542.8 638602 -5459.6 638683 -5542.5 638726 -5542.4 638767 -5500.8 638808 -5500.6 638890 -5334.2 639093 -5334 639176 -5417 639136 -5499.9 639179 -5499.7 639220 -5582.7 639222 -5624 639346 -5789.7 639432 -5914.4 639394 -5997 639560 -5997.2 639519 -6038.5 639561 -6163.6 639523 -6329.9 639568 -6329.6 639650 -6454.9 639612 -6496.2 639695 -6454.3 639736 -6453.9 639818 -6495.4 639860 -6453.7 639860 -6620 639946 -6619.5 640028 -6535.8 640109 -6577 640193 -6785.3 640197 -6785.1 640239 -6868.5 640241 -6909.6 640324 -6951.6 640284 -7160.6 640289 -7118.4 640329 -7159.1 640454 -7367.7 640541 -7324.3 640664 -7322.3 640829 -7447.1 640915 -7404.4 640955 -7486.1 641246 -7442.2 641328 -7357.1 641326 -7233.2 641489 -6903 641606 -6861.8 641688 -6862.1 641811 -6738.1 641768 -6614.3 641806 -6573.3 641971 -6490.7 641928 -6449.1 641761 -6407.8 641760 -6366.6 641842 -6366.8 641925 -6284.3 641965 -6160.3 641921 -6160.2 641879 -5995.2 641958 -5953.7 641874 -5829.8 641872 -5954 641957 -5954 641999 -5871.6 642080 -5706.3 642035 -5665.5 642200 -5624.3 642240 -5665.8 642324 -5624.5 642323 -5624.8 642406 -5583.7 642446 -5501.2 642486 -5418.3 642401 -5418 642319 -5294.1 642316 -5211.9 642438 -4964.6 642557 -4840.6 642555 -4841.3 642721 -4800 642720 -4759.1 642802 -4717.7 642801 -4717.5 642760 -4593.7 642799 -4511.4 642880 -4511.9 642963 -4388.3 643044 -4347.7 643168 -4389.5 643252 -4265.8 643291 -4266.3 643374 -4307.9 643417 -4266.5 643416 -4266.8 643458 -4308.9 643584 -3854.6 643618 -3771.4 643533 -3522.9 643445 -3314.6 643190 -3190.9 643230 -3108 643186 -2901.9 643266 -2779.2 643433 -2737.9 643432 -2738.2 643474 -2655.7 643474 -2447 643212 -2365.1 643217 -2324.7 643267 -2365 643303 -2284.1 643446 -2490.8 643516 -2534 643776 -2409.9 643781 -2451.8 643866 -2493.2 643864 -2493.7 643950 -2204.7 644065 -2246.4 644146 -2123.2 644206 -1913.9 644248 -1662.5 644192 -1704 644236 -1662.2 644277 -1578.8 644275" fill="red" stroke="#000" stroke-opacity=".5"/>
</g>
</g>
</svg>
