<?xml version="1.0" encoding="utf-8"?>
<!-- Generator: Adobe Illustrator 26.0.3, SVG Export Plug-In . SVG Version: 6.00 Build 0)  -->
<svg version="1.1" id="Isolation_Mode" xmlns="http://www.w3.org/2000/svg" xmlns:xlink="http://www.w3.org/1999/xlink" x="0px"
	 y="0px" viewBox="0 0 200 200" enable-background="new 0 0 200 200" xml:space="preserve">
<g>
	<path fill="#1E8346" d="M172.614,101.564c-0.077-0.398-0.007-0.933-0.113-1.327c-0.092-0.344-0.413-0.701-0.578-1.026
		c-0.436-0.859-0.245-1.72-0.58-2.595c-0.494-1.287-1.953-1.293-2.988-1.983c-1.213-0.808,0.242-1.808,0.221-2.862
		c-0.017-0.858-0.765-0.845-1.152-1.527c-0.256-0.451-0.448-0.935-0.579-1.431c-0.127-0.482-0.037-0.779-0.433-1.083
		c-0.415-0.319-0.919-0.546-0.537-1.183c0.273-0.456,0.879-0.783,1.214-1.198c0.258-0.319,0.469-0.772,0.477-1.181
		c0.011-0.496-0.331-1.012-0.176-1.527c0.156-0.52,0.764-0.639,0.826-1.24c0.098-0.941-0.688-0.823-1.072-1.439
		c-0.133-0.213-0.14-0.543-0.097-0.806c0.052-0.317,0.181-0.262,0.294-0.483c0.224-0.436-0.043-0.618-0.08-0.984
		c-0.025-0.252,0.101-0.448,0.158-0.683c0.254-1.032-0.84-1.033-1.584-1.231c-0.194-0.964-0.87-1.68-0.95-2.639
		c-0.034-0.402-0.183-1.083-0.027-1.472c0.16-0.399,0.641-0.563,0.93-0.938c0.335-0.435,0.598-0.714,0.394-1.204
		c-0.03-0.072-0.056-0.138-0.08-0.201c-0.199-0.526-0.178-0.76,0.116-1.338c0.544-1.069-1.329-1.66-1.922-2.245
		c-0.539-0.532-1.267-1.053-1.689-1.677c-0.136-0.202-0.228-0.475-0.408-0.643c-0.236-0.219-0.686-0.244-0.865-0.452
		c-0.441-0.512-0.953-0.93-1.473-1.315c-0.19-0.14-0.376-0.254-0.615-0.295c-0.29-0.051-0.79,0.042-0.912-0.326
		c-0.108-0.328,0.161-1.005,0.244-1.345c0.159-0.656,0.13-1.322,0.13-1.997c0.349-0.106,0.715-0.476,1.05-0.639
		c0.313-0.152,0.693-0.318,0.979-0.559c0.719-0.607,1.437-1.627,1.624-2.541c0.116-0.57,0.028-1.04,0.01-1.613
		c-0.019-0.649,0.084-0.799,0.489-1.306c0.249-0.312,0.51-0.654,0.42-1.105c-0.065-0.324-0.311-0.614-0.388-0.971
		c-0.178-0.825-0.333-1.679-0.501-2.514c-0.09-0.446-0.104-0.897-0.227-1.34c-0.087-0.314-0.137-0.856-0.269-1.085
		c0.022-0.725-0.55-0.971-0.649-1.614c-0.086-0.56,0.051-1.183-0.092-1.74c-0.066-0.26-0.236-0.486-0.302-0.743
		c-0.076-0.3-0.086-0.62-0.174-0.92c-0.091-0.307-0.449-0.585-0.514-0.832c-0.068-0.26,0.136-0.346,0.259-0.608
		c0.409-0.875-0.886-0.943-1.486-0.943c-0.582,0-1.185-0.046-1.764-0.001c-0.674,0.052-0.844,0.23-1.23-0.33
		c-0.178-0.258-0.837-0.579-0.885-0.86c-0.115-0.677,1.261-0.299,1.577-0.539c0.533-0.405,0.269-0.89,1.125-0.909
		c0.571-0.012,1.37,0.636,1.662-0.105c0.428-1.091-0.215-2.214-0.845-3.056c-0.259-0.347-0.613-0.578-0.931-0.867
		c-0.307-0.279-0.531-0.617-0.812-0.918c-0.583-0.627-1.269-1.02-2.035-1.372c-0.715-0.329-0.756-1.26-1.163-1.836
		c-0.198-0.279-0.99-0.719-1.259-0.346c-0.164,0.228,0.265,0.872,0.312,1.092c-0.533,0.017-0.922-0.247-1.393-0.392
		c-0.365-0.113-0.741-0.076-1.12-0.076c-0.589,0-1.353-0.106-1.804,0.388c-0.243,0.267-0.038,1.17-0.193,1.27
		c-0.392,0.252-0.702-1.249-0.889-1.442c-0.366-0.379-0.925-0.457-1.229-0.899c-0.419-0.608-0.221-0.981,0.547-1.006
		c0.282-0.009,0.859,0.099,0.966-0.286c0.086-0.309-0.202-0.496-0.44-0.615c-0.199-0.099-0.537-0.04-0.623-0.322
		c-0.101-0.331,0.488-0.822,0.694-1.061c0.314-0.364,0.656-0.788,1.11-0.973c0.246-0.1,0.799-0.294,1.031-0.248
		c0.372,0.074,0.416,0.371,0.843,0.34c0.292-0.021,0.483-0.216,0.764-0.059c0.566,0.318,0.113,0.553,0.049,0.878
		c-0.098,0.492,0.444,0.687,0.898,0.527c0.006-0.469,0.005-0.533,0.254-0.911c0.241-0.364,0.286-0.577,0.026-0.951
		c-0.194-0.281-0.506-0.651-0.754-0.882c-0.284-0.267-0.807-0.285-1.041-0.543c-0.006-0.76-0.793-1.668-0.304-2.305
		c0.254-0.331,0.699-0.473,0.912-0.82c0.212-0.344,0.199-0.998-0.024-1.307c-0.832-1.154-2.891,0.354-3.837-0.469
		c-0.207-0.18-0.691-0.911-0.687-1.209c0.009-0.552,0.812-0.477,0.971-0.921c0.44-1.218-3.42-0.533-3.436,0.628
		c-0.005,0.347-0.104,0.33,0.191,0.547c0.136-0.093,0.29-0.225,0.395-0.353c0.052-0.063,0.077-0.19,0.154-0.228
		c0.15-0.074,0.22,0.008,0.256,0.152c0.062,0.251-0.166,0.363-0.262,0.553c-0.093,0.183-0.046,0.378-0.084,0.578
		c-0.049,0.256-0.018,0.529-0.066,0.785c-0.045,0.24-0.134,0.26-0.356,0.307c-0.418,0.089-1.117,0.082-1.405,0.427
		c0.117,0.224,0.18,0.51,0.29,0.717c0.165,0.313,0.49,0.114,0.791,0.172c0.437,0.084,0.185,0.474-0.157,0.497
		c-0.525,0.037-1.317,0.215-0.999,0.925c0.165,0.367,0.531,0.552,0.911,0.628c0.31,0.062,0.354,0.054,0.397,0.397
		c0.031,0.243,0.003,0.491,0.029,0.736c-0.45,0.225-1.147,0.413-1.657,0.453c-0.323,0.025-0.488-0.024-0.688-0.289
		c-0.138-0.183-0.344-0.387-0.412-0.6c-0.076-0.238,0.011-0.466-0.124-0.687c-0.095-0.155-0.262-0.299-0.462-0.266
		c-0.293,0.047-0.318,0.396-0.55,0.525c-0.215,0.121-0.5-0.025-0.726,0.039c-0.149,0.043-0.191,0.137-0.289,0.25
		c-0.305-0.165-0.013-0.514-0.163-0.703c-0.124-0.156-0.697-0.165-0.861-0.174c-0.239-0.012-0.48,0.001-0.719,0
		c-0.29-0.001-0.561-0.112-0.848-0.109c-0.265,0.002-0.514,0.067-0.788,0.066c-0.462,0.02-0.85,0.032-1.309-0.088
		c-0.672-0.174-1.317-0.413-1.741-1.035c-0.193,0.357-0.221,0.761-0.354,1.137c-0.092,0.26-0.234,0.512-0.354,0.76
		c-0.219,0.452-0.547,0.854-0.806,1.284c-0.425,0.704-0.82,1.422-1.32,2.075c-0.258,0.337-0.625,0.377-1.01,0.574
		c-0.463,0.238-0.872,0.288-1.178,0.755c-0.318,0.485-0.519,1.03-0.891,1.48c-0.721,0.87-1.784,0.824-2.818,0.884
		c-0.581,0.033-1.137,0.195-1.722,0.204c-0.605,0.01-1.204-0.117-1.81-0.09c-0.642,0.028-1.16,0.509-1.603,0.943
		c-0.246,0.241-0.368,0.452-0.401,0.801c-0.042,0.444-0.179,0.631-0.323,1.036c-0.138,0.386-0.149,0.589-0.566,0.734
		c-0.432,0.15-0.71,0.186-0.872,0.691c-0.124,0.385-0.141,0.783-0.141,1.183c0,0.29,0.115,0.8-0.149,0.988
		c-0.072,0.051-0.382,0.115-0.474,0.087c-0.214-0.064-0.185-0.243-0.301-0.416c-0.173-0.255-0.161-0.137-0.467-0.256
		c-0.215-0.084-0.277-0.34-0.449-0.427c-0.354-0.177-0.778,0.326-1.169,0.318c-0.529-0.011-0.5-0.537-0.337-0.925
		c-0.64-0.67-1.799-1.258-2.753-1.075c-0.747,0.143-1.439,0.459-2.058,0.895c-0.248,0.175-0.596,0.449-0.903,0.492
		c-0.5,0.069-0.171-0.463-0.292-0.798c-0.103-0.285-0.338-0.272-0.627-0.266c-0.253,0.006-0.402,0.05-0.611,0.145
		c-0.209,0.095-0.268,0.205-0.468,0.054c-0.554-0.418-0.223-1.665,0.06-2.154c0.212-0.364,0.443-0.254,0.818-0.291
		c0.436-0.043,0.774-0.282,1.127-0.518c0.454-0.303,0.821-0.658,1.203-1.042c0.398-0.4,0.936-0.674,1.31-1.096
		c0.628-0.709,0.477-1.797,0.332-2.651c-0.076-0.45-0.202-0.96-0.139-1.42c0.053-0.387,0.368-0.528,0.491-0.863
		c0.146-0.039,0.236-0.3,0.174-0.465c-0.09-0.236-0.432-0.082-0.624-0.016c-0.291,0.1-0.697,0.277-1.014,0.251
		c-0.305-0.024-0.55-0.281-0.883-0.227c-1.222,0.199-1.737,1.341-2.785,1.83c-0.394,0.184-0.893,0.323-1.299,0.079
		c-0.422-0.254-0.581-0.778-0.97-1.083c-0.64-0.502-1.49-0.482-2.195-0.817c-0.58-0.275-1.005-1.012-1.655-1.125
		c-0.395-0.069-0.633-0.288-1.089-0.304c-0.362-0.013-0.322,0.116-0.574,0.325c-0.322,0.267-0.58,0.084-0.924,0.201
		c-0.289,0.098-0.454,0.505-0.581,0.745c-0.347-0.583,0.164-1.963-0.461-2.305c-1.032-0.566-2.35,0.022-3.365,0.275
		c-0.204,0.051-1.274,0.368-1.482,0.199c-0.339-0.275,0.858-0.693,1.048-0.794c0.655-0.35,1.601-0.897,1.889-1.631
		c0.181-0.462,0.108-1.094,0.144-1.584c0.027-0.369,0.068-0.742,0.058-1.113c-0.36-0.155-0.841-0.75-1.255-0.73
		c0.224-0.347,0.845-0.231,0.745-0.728c-0.045-0.226-0.418-0.569-0.508-0.825c-0.236-0.671-0.299-1.509-1.045-1.858
		c-0.286,0.397-0.116,0.96-0.69,1.124c-0.67,0.191-0.653-0.57-1.04-0.905c-0.377-0.326-0.913-0.337-1.344-0.529
		c-0.588-0.262-1.157-0.765-1.821-0.798c-0.082-0.249,0.112-0.484,0.088-0.746c-1.002-0.138-1.902,1.968-3.019,1.076
		c-0.35-0.28-0.24-0.493-0.651-0.123c-0.416,0.374-0.548,0.815-1.182,0.784c-1.188-0.058-0.785-1.341-1.73-1.786
		c-0.753-0.355-1.456-0.162-2.26-0.26c-0.701-0.086-0.982-0.771-1.625-0.865c-0.663,0.095-1.271,0.153-1.942,0.13
		c-0.106-0.004-0.406-0.055-0.467-0.037c-0.319,0.092-0.469,0.399-0.845,0.429c-0.231,0.018-0.431-0.038-0.623-0.157
		c-0.303-0.188-0.696-0.829-1.149-0.507c-0.1,0.071-0.089,0.336-0.154,0.438c-0.128,0.202-0.213,0.243-0.442,0.353
		c0.037,0.228,0.202,0.372,0.255,0.583c0.039,0.153-0.018,0.311,0.029,0.463c0.103,0.336,0.46,0.708,0.673,0.984
		c0.352,0.455,0.542,0.704,0.623,1.291c0.063,0.461-0.04,0.726,0.24,1.092c0.215,0.28,0.344,0.353,0.463,0.693
		c0.117,0.334,0.113,0.496,0.397,0.789c0.277,0.285,0.643,0.509,0.902,0.817c0.201,0.238,0.214,0.12,0.195,0.487
		c-0.013,0.274-0.164,0.312-0.06,0.593c0.226-0.017,0.445-0.152,0.664-0.172c0.227,0.663,0.261,1.352,0.774,1.859
		c-0.453,0.299-1.19,0.227-1.592,0.779c-0.359,0.492-0.079,0.684,0.328,0.959c0.534,0.36,0.854,0.509,1.224-0.105
		c0.221-0.368,0.575-1.135,1.074-0.661c0.397,0.378-0.104,0.914-0.392,1.212c-0.191,0.198-0.39,0.26-0.611,0.413
		c-0.311,0.216-0.467,0.507-0.789,0.68c-0.711,0.381-1.624,0.178-2.393,0.375c-0.593,0.152-1.56,0.371-0.662,0.971
		c-0.029,0.831-1.089,0.293-1.038,0.978c0.015,0.199,0.247,0.548,0.31,0.751c0.096,0.306,0.202,0.596,0.425,0.827
		c0.641-0.347,0.825-0.343,1.495-0.211c0.293,0.058,0.612,0.032,0.891-0.076c0.186-0.072,0.415-0.208,0.51,0.053
		c0.022,0.062,0.013,0.112,0.063,0.162c0.335-0.159,0.729-0.202,1.011-0.462c0.265-0.245,0.559-0.605,0.714-0.938
		c0.114,0.459-0.212,1.007-0.458,1.394c-0.199,0.312-0.608,0.461-0.956,0.522c-0.179,0.031-0.319,0.003-0.399,0.157
		c-0.055,0.108-0.108,0.373-0.129,0.494c-0.02,0.117-0.004,0.248-0.004,0.366c0,0.636-0.45,0.909-0.219,1.562
		c0.086,0.244,0.221,0.545,0.41,0.733c0.251,0.248,0.455,0.16,0.74,0.106c0.384-0.073,0.467,0.09,0.632,0.431
		c0.118,0.244,0.118,0.501,0.226,0.734c0.085,0.184,0.288,0.293,0.36,0.49c0.105,0.285,0.111,0.795-0.211,0.922
		c-0.358,0.142-0.93-0.035-1.273-0.115c-0.559-0.129-1.018-0.107-0.913,0.615c0.087,0.594,0.512,0.63,1.06,0.64
		c0.18,0.29,0.094,0.609,0.106,0.91c0.011,0.258,0.1,0.451,0.162,0.691c0.059,0.234,0.053,0.434,0.246,0.588
		c0.238,0.189,0.645,0.243,0.903,0.261c0.659,0.046,1.313,0.156,1.972,0.189c1.218,0.061,1.84,0.095,2.49,0.27
		c0.934,0.252,1.291,0.554,1.394,0.645c0.098,0.087,0.574,0.509,0.799,1.165c0.207,0.603,0.258,0.815,0.258,0.815
		c0.048,0.198,0.074,0.35,0.189,0.52c0.14,0.206,0.321,0.306,0.39,0.346c0.507,0.297,1.042,0.955,1.28,1.395
		c0.379,0.702,0.017,0.872,0.429,1.525c0.29,0.46,0.716,0.767,0.974,0.952c0.319,0.23,0.59,0.363,0.779,0.454
		c0.5,0.243,0.853,0.333,1.32,0.476c0.383,0.118-0.086,0.037,0.584,0.303c-1.498,0.085-1.926-0.182-3.242-0.857
		c-0.357-0.183-0.66-0.366-0.848-0.723c-0.245-0.464-0.339-0.986-0.6-1.446c-0.257-0.454-0.523-0.927-0.87-1.32
		c-0.26-0.295-0.591-0.52-0.85-0.818c-0.614-0.709-0.868-1.529-1.375-2.293c-0.327-0.492-0.864-0.696-1.431-0.71
		c-0.534-0.012-1.172-0.078-1.689,0.074c-0.525,0.154-1.084,0.202-1.6,0.385c-0.574,0.203-1.06,0.448-1.688,0.438
		c-0.532-0.009-1.182,0.017-1.68-0.177c-0.607-0.237-0.865-0.936-1.441-1.138c-0.409-0.144-0.866-0.181-1.116,0.158
		c-0.133,0.18-0.208,0.395-0.337,0.576c-0.218,0.305-0.474,0.567-0.639,0.911c-0.33,0.686-0.216,1.471-0.584,2.156
		c-0.222,0.413-0.305,0.807-0.434,1.062c-0.108,0.213-0.304,0.383-0.202,0.632c0.059,0.145,0.185,0.262,0.232,0.418
		c0.08,0.269,0.03,0.559,0.123,0.828c0.115,0.334,0.377,0.592,0.512,0.92c0.084,0.205,0.181,0.427,0.253,0.636
		c0.106,0.307,0.06,0.637,0.068,0.964c-0.285-0.178-0.314-0.263-0.641-0.323c-0.208-0.038-0.408-0.084-0.601-0.177
		c-0.537-0.258-0.964-0.537-1.302-1.034c-0.352-0.518-0.68-0.483-1.294-0.527c-0.485-0.035-0.644-0.426-1.074-0.622
		c-0.196,0.392,0.047,0.64,0.142,0.985c0.085,0.309-0.1,0.709-0.155,1.011c-0.093,0.504-0.143,0.884,0.323,1.135
		c0.162,0.087,0.482,0.037,0.616,0.171c0.221,0.221,0.105,0.683,0.093,0.96c-0.018,0.418-0.15,1.407-0.556,1.642
		c-0.265,0.154-0.85,0.18-1.04-0.024c-0.23-0.245-0.217-0.648-0.428-0.91c-0.248-0.308-0.71-0.356-1.064-0.492
		c-0.488-0.187-1.079-1.122-0.249-1.231c0.303-0.039,0.529,0.02,0.715-0.263c0.166-0.253,0.173-0.585,0.136-0.868
		c-0.106-0.81-0.421-2.247-1.244-2.595c-0.455-0.193-0.827-0.587-0.933-1.094c-0.099-0.475,0.003-0.562-0.536-0.748
		c-1.633,0.746-3.551,0.084-5.2,0.648c-1.538,0.526-2.882,0.075-4.497,0.212c-0.947,0.081-2.342,0.531-3.126,1.098
		c-0.423,0.306-1.267,1.251-1.2,1.824c0.038,0.326,0.908,0.966,0.711,1.229c-0.269,0.358-1.24-0.144-1.573,0.019
		c0.033,0.321,0.244,0.542,0.126,0.866c-0.128,0.351-0.555,0.645-0.69,1.085c-0.194,0.633-0.3,2.192,0.099,2.737
		c0.29,0.396,1.4,0.439,1.888,0.522c0.765,0.131,2.214,0.004,2.789,0.491c-0.267,0.067-0.717,0.059-0.824,0.365
		c-0.127,0.364,0.057,0.625-0.25,0.95c-0.218,0.231-0.307,0.296-0.311,0.619c-0.003,0.321,0.016,0.646,0.001,0.967
		c-0.006,0.12-0.054,0.254-0.022,0.374c0.031,0.12,0.089,0.106,0.132,0.206c0.109,0.254-0.108,0.334-0.261,0.508
		c-0.173,0.197-0.348,0.376-0.304,0.652c0.039,0.251,0.286,0.5,0.26,0.766c-0.046,0.484-0.033,0.976,0.019,1.46
		c0.034,0.314,0.002,1.029,0.175,1.224c0.032,0.845-0.241,1.101-0.692,1.751c-0.464,0.669-0.75,1.427-1.126,2.139
		c-0.712,1.346-0.692,2.602-0.692,4.126c0,0.362,0.189,1.582-0.127,1.86c-0.151,0.133-0.803,0.004-1.004-0.009
		c-0.742-0.047-1.503-0.09-2.24-0.194c-0.665-0.094-1.863-0.472-2.173,0.394c-0.249,0.696,0.566,1.26,0.968,1.705
		c-0.189,0.066-0.435,0.073-0.602,0.123c-0.19,0.057-0.192,0.249-0.462,0.173c0.003,0.253,0.027,0.502,0.087,0.736
		c0.076,0.295,0.211,0.565,0.448,0.776c0.429,0.383,0.674,0.703,1.266,0.785c0.152,0.021,0.383-0.009,0.518,0.024
		c0.346,0.084,0.634,0.512,0.992,0.441c0.2-0.039,0.397-0.231,0.568-0.335c0.856-0.522,0.751-0.075,1.198,0.694
		c0.318,0.546,0.723,1.061,0.686,1.716c-0.036,0.624-0.551,1.065-0.646,1.66c-0.086,0.538,0.781,1.115,0.518,1.557
		c-0.149,0.25-0.484,0.114-0.696,0.181c-0.445,0.141-0.531,0.521-0.773,0.872c-0.288,0.419-0.448,0.356-0.848,0.584
		c-0.403,0.229-0.533,0.796-0.864,1.122c-0.416,0.409-0.952,0.02-1.406,0.268c-0.325,0.178-0.252,0.581-0.502,0.84
		c-0.227,0.236-0.573,0.279-0.631,0.674c-0.063,0.43,0.359,0.557,0.75,0.714c0.615,0.247,1.905,0.657,1.274,1.501
		c-0.292,0.392-0.578,0.766-0.853,1.175c-0.31,0.46-0.378,0.538-0.857,0.43c-0.768-0.172-1.18,0.001-1.965,0.303
		c-0.48,0.184-1.308,0.486-1.667,0.901c-0.262-0.045-1.272-0.559-1.516-0.452c-0.27,0.118-0.033,0.367,0.066,0.475
		c0.215,0.233,0.284,0.278,0.212,0.661c-0.169-0.088-0.358-0.207-0.507-0.329c-0.175-0.143-0.191-0.211-0.423-0.257
		c-0.242-0.048-0.546,0.007-0.791,0.001c-0.053-0.863-0.879-0.196-1.352-0.532c-0.241-0.172-0.346-0.673-0.677-0.728
		c-0.239-0.039-0.488,0.262-0.578,0.438c0.282,0.193,1,0.625,0.532,1.055c-0.207,0.191-0.539,0.057-0.752-0.026
		c-0.184-0.072-0.343-0.193-0.548-0.218c-0.301-0.037-0.264,0.02-0.472,0.239c-0.293,0.308-0.487,0.401-0.885,0.488
		c-0.285,0.062-0.546,0.104-0.574,0.41c-0.019,0.212,0.117,0.408,0.266,0.548c0.24,0.224,0.427,0.327,0.6,0.606
		c-0.311,0.081-0.742,0.314-0.928,0.57c1.158-0.144,1.194,0.837,1.191,1.682c0.413,0.163,1.265,0.326,1.298,0.862
		c0.022,0.357-0.316,0.667-0.137,1.051c0.205,0.441,0.827,0.997,1.151,1.374c0.183,0.212,0.423,0.351,0.551,0.606
		c0.103,0.204,0.218,0.536,0.206,0.778c-0.024,0.497-0.014,1.107,0.043,1.603c0.043,0.376,0.211,0.615,0.218,0.994
		c0.007,0.445-0.132,1.026-0.508,1.299c-0.262,0.19-0.617,0.203-0.836,0.473c-0.38,0.466-0.647,1.213-0.974,1.732
		c-0.281,0.446-0.433,1.563,0.016,1.935c0.259-0.1,0.629-0.174,0.896-0.126c-0.09,0.313,0.202,0.428,0.015,0.781
		c-0.682,0.208-1.226,0.67-1.79,1.24c-0.213,0.215-0.481,0.302-0.66,0.574c-0.118,0.179-0.227,0.377-0.37,0.539
		c-0.231,0.261-0.611,0.576-0.966,0.6c-0.111,0.355-0.173,0.689-0.082,1.068c0.211-0.035,0.439,0.024,0.656,0.037
		c0.418,0.024,1.077-0.036,1.077,0.428c0,0.258-0.015,0.515-0.02,0.772c0.327,0.222,1.375,0.073,1.215,0.651
		c-0.064,0.23-0.171,0.384-0.178,0.639c-0.013,0.423,0.228,1.185-0.389,1.031c-0.339-0.084-0.412,0.004-0.495,0.355
		c-0.112,0.472-0.219,0.557-0.553,0.88c0.26,0.417,0.778,0.448,0.848,0.992c0.046,0.352-0.071,0.635,0.277,0.831
		c0.31,0.174,0.825,0.024,1.081,0.259c0.151,0.139,0.295,0.62,0.396,0.819c0.141,0.278,0.189,0.505,0.452,0.7
		c0.285,0.211,0.623,0.229,0.922,0.386c0.732,0.384-0.003,1.597-0.389,1.963c-0.237,0.224-0.403,0.369-0.348,0.698
		c0.024,0.141,0.113,0.517,0.225,0.602c0.169,0.129,0.485-0.003,0.701-0.017c0.367-0.026,0.723,0.02,1.053,0.195
		c0.507,0.268,0.456,0.478,0.574,0.985c0.613,0.09,0.248,1.33,0.184,1.664c-0.067,0.352-0.134,0.573,0.132,0.864
		c0.33,0.361,0.758,0.454,0.271,0.835c-0.214,0.168-0.387,0.287-0.68,0.233c-0.285-0.052-0.468-0.315-0.773-0.115
		c-0.412,0.271-0.086,1.113-0.531,1.298c-0.532,0.222-1.158,0.206-1.379,0.878c-0.125,0.381,0.249,0.867,0,1.188
		c-0.249,0.322-0.654,0.276-0.728,0.759c-0.057,0.367-0.146,0.721-0.144,1.092c0.002,0.371-0.13,0.796-0.058,1.16
		c0.068,0.345,0.316,0.758,0.502,1.08c0.19,0.328,0.298,0.674,0.443,1.028c0.056,0.137,0.085,0.283,0.163,0.394
		c0.018,0.026,0.038,0.05,0.063,0.072c0.233,0.203,0.385,0.077,0.496,0.377c0.096,0.258-0.061,0.587,0.147,0.801
		c0.133,0.137,0.442,0.253,0.61,0.369c0.083,0.057,0.207,0.138,0.288,0.178c0.388,0.195,0.32,0.731,0.817,0.917
		c0.182,0.069,0.376,0.002,0.561,0.143c0.127,0.097,0.178,0.268,0.311,0.365c0.356,0.256,1.058,0.036,1.503,0.141
		c0.67,0.158,0.397,0.604-0.182,0.777c0.406,0.559,0.382,0.896,0.304,1.538c-0.059,0.482-0.456,0.756-0.43,1.267
		c0.015,0.284,0.077,0.673-0.29,0.736c-0.247,0.042-0.202-0.099-0.394,0.059c-0.077,0.063-0.104,0.149-0.154,0.231
		c-0.204,0.332-0.387,0.637-0.663,0.921c-0.271,0.279-0.239,0.29-0.197,0.635c0.028,0.236-0.082,0.357-0.111,0.598
		c-0.037,0.301,0.089,0.699,0.115,1.011c0.021,0.267-0.008,0.684,0.252,0.758c0.348,0.099,0.885-0.088,1.271-0.087
		c0.262,0.437,0.817,0.633,1.05,1.103c0.095,0.193,0.095,0.314,0.242,0.463c0.186,0.189,0.36,0.172,0.414,0.449
		c0.059,0.305-0.169,0.621-0.09,0.93c0.103,0.406,0.791,0.818,1.113,1.116c0.111,0.103,0.341,0.263,0.407,0.404
		c0.067,0.144-0.01,0.331,0.065,0.47c0.126,0.232,0.252,0.206,0.264,0.515c0.014,0.381-0.045,0.422,0.323,0.55
		c0.221,0.076,0.339,0.046,0.398,0.273c0.069,0.266-0.282,0.488-0.215,0.708c0.089,0.295,1.016,0.391,1.211,0.479
		c0.6,0.272,1.124,0.047,0.872-0.61c-0.05-0.133-0.289-0.462-0.091-0.652c0.115-0.11,0.412,0.018,0.552,0.033
		c0.304,0.033,0.566-0.155,0.847-0.119c0.206,0.027,0.361,0.189,0.517,0.326c0.378,0.335,0.892,0.321,1.073,0.859
		c0.137,0.407,0.121,0.88,0.372,1.263c0.209-0.102,0.366-0.216,0.479-0.419c0.08-0.144,0.063-0.334,0.262-0.349
		c0.234,0.223,0.375,0.432,0.708,0.518c0.251,0.065,0.605,0.149,0.841,0.069c0.128-0.043,0.22-0.186,0.355-0.214
		c0.373-0.079,0.626,0.297,1.016,0.201c0.332-0.082,0.305-0.279,0.355-0.581c0.316,0.011,0.606,0.129,0.883-0.054
		c0.046-0.192,0.087-0.377,0.124-0.572c0.334-0.064,0.642-0.081,0.962-0.01c0.137,0.03,0.67,0.18,0.815,0.279
		c0.44,0.3,0.122,0.419,0.242,0.823c0.094,0.316,0.691,0.81,1.03,0.95c0.267,0.11,0.65,0.123,0.846,0.352
		c0.066,0.077,0.075,0.225,0.149,0.305c0.167,0.181,0.49,0.251,0.723,0.263c0.143,0.007,0.301-0.036,0.448-0.029
		c0.175,0.008,0.372,0.092,0.538,0.093c0.198,0.001,0.173,0.01,0.354-0.082c0.368-0.188,0.38-0.421,0.806-0.228
		c0.321,0.146,0.563,0.392,0.874,0.541c0.091-0.104,0.191-0.202,0.308-0.279c0.093,0.078,0.196,0.142,0.306,0.19
		c0.119-0.14,0.336-0.404,0.491-0.485c0.2,0.2,0.317,0.51,0.52,0.732c0.239,0.261,0.436,0.315,0.742,0.448
		c0.556,0.242,1.019,0.521,1.615,0.688c0.2,0.056,1.757,0.214,1.785,0.427c0.04,0.297-0.911,0.54-1.042,0.698
		c-0.197,1.303-1.238,3.145-2.25,3.94c-0.625,0.491-0.869,0.543-1.223,1.307c-0.429,0.926-0.904,1.456-1.656,2.113
		c-1.005,0.878-0.479,2.085-1.084,3.244c-0.36,0.691-0.664,1.294-0.624,2.083c0.029,0.576,0.247,0.947,0.097,1.545
		c-0.221,0.88-1.014,0.984-1.37,1.722c-0.373,0.773-0.532,1.846-0.718,2.695c-0.093,0.427-0.484,0.848-0.672,1.252
		c-0.345,0.74,0.06,1.25,0.326,1.967c0.178,0.48,0.442,0.795,0.346,1.349c-0.084,0.484-0.441,0.906-0.582,1.4
		c-0.122,0.429-0.098,0.825-0.076,1.262c0.026,0.539-0.088,0.637-0.367,1.044c-0.462,0.676,0.145,1.111,0.113,1.848
		c-0.58,0.155-0.882,0.878-0.558,1.405c0.411,0.668,1.14,0.764,1.081,1.737c0.223,0.242,0.401,0.405,0.676,0.258
		c0.106-0.056,0.216-0.117,0.319-0.171c0.08-0.043,0.19-0.164,0.264-0.19c0.24-0.084,0.356,0.165,0.32,0.384
		c-0.044,0.263-0.392,0.27-0.421,0.514c-0.025,0.212,0.258,0.446,0.44,0.488c0.243,0.057,0.402-0.081,0.613-0.161
		c0.229-0.088,0.451-0.122,0.684-0.191c0.127-0.038,0.302-0.106,0.388-0.189c0.127-0.123,0.127-0.295,0.267-0.411
		c0.358-0.295,0.872-0.284,1.205-0.013c0.27,0.221,0.556,1.06,1.046,0.746c0.109-0.07,0.097-0.164,0.24-0.221
		c0.196-0.078,0.453-0.043,0.66-0.042c0.486,0.002,0.969-0.047,1.454-0.041c0.025-0.392-0.026-0.474,0.421-0.564
		c0.235-0.047,0.379-0.032,0.58-0.185c0.222-0.168,0.4-0.419,0.642-0.561c0.256-0.151,0.374,0.052,0.622,0.076
		c0.123,0.012,0.236-0.048,0.355-0.056c0.22-0.016,0.289,0.06,0.461,0.195c0.23,0.182,0.374,0.419,0.594,0.607
		c0.48,0.412,1.321,0.269,1.909,0.268c-0.048-0.906,0.51-1.552,1.481-1.349c0.241,0.05,0.49,0.403,0.717,0.262
		c0.217-0.135,0.38-0.84,0.32-1.077c-0.102-0.408-0.396-0.338-0.665-0.174c-0.366,0.224-0.574,0.384-1.023,0.427
		c-0.513,0.049-1.098-0.319-1.345-0.797c-0.226-0.439,0.136-0.502,0.343-0.773c0.238-0.313,0.205-0.66,0.552-0.932
		c0.147-0.115,0.315-0.23,0.494-0.291c0.213-0.072,0.455-0.02,0.63-0.169c0.199-0.171,0.243-0.558,0.577-0.585
		c0.402-0.033,0.603,0.513,0.716,0.79c0.165-0.114,0.282-0.474,0.481-0.501c0.383-0.052,0.406,0.572,0.61,0.739
		c0.099,0.081,0.28,0.003,0.362,0.141c0.074,0.127-0.027,0.401-0.088,0.505c-0.156,0.263-0.834,0.37-0.479,0.752
		c0.196,0.211,0.576,0.137,0.834,0.215c0.221,0.067,0.354,0.147,0.583,0.169c0.186,0.017,0.452,0.06,0.423-0.242
		c-0.03-0.316-0.703-0.282-0.701-0.546c0.002-0.17,0.299-0.39,0.463-0.375c0.27,0.025,0.364,0.427,0.632,0.52
		c0.189,0.065,0.496-0.068,0.614,0.152c0.089,0.167-0.102,0.51-0.031,0.725c0.225,0.675,1.331,0.333,1.757,0.082
		c0.587-0.347,1.294-0.36,1.965-0.247c0.584,0.098,1.281,0.301,1.77,0.658c0.123,0.09,0.186,0.21,0.288,0.312
		c0.164,0.164,0.32,0.216,0.509,0.34c0.108,0.217,0.468,0.251,0.689,0.324c0.462,0.153,0.697,0.375,1.059,0.716
		c0.376,0.354,0.494,0.884,0.907,1.182c1.159,0.838,2.895,0.604,4.27,0.605c0.369,0,0.6,0.043,0.635-0.401
		c0.029-0.368-0.195-0.742,0.293-0.953c0.393-0.169,0.807,0.075,1.087,0.33c0.102,0.093,0.233,0.272,0.38,0.299
		c0.219,0.041,0.292-0.138,0.485-0.166c0.184-0.026,0.232,0.1,0.383,0.16c0.156,0.062,0.341-0.016,0.48,0.012
		c0.394,0.08,0.379,0.551,0.641,0.808c0.139,0.136,0.338,0.217,0.524,0.258c0.294,0.065,0.236,0.034,0.436,0.2
		c0.054,0.045,0.061,0.134,0.118,0.175c0.106,0.078,0.275,0.045,0.388,0.102c0.16,0.079,0.199,0.108,0.266,0.301
		c0.145,0.416-0.187,0.666-0.204,1.072c-0.014,0.326-0.02,0.831,0.338,0.916c0.267,0.063,0.742,0.019,0.926-0.161
		c0.149-0.145,0.131-0.264,0.33-0.286c0.124-0.013,0.408,0.101,0.542,0.131c0.078,0.384-0.041,0.746-0.093,1.091
		c-0.043,0.278,0.013,0.449-0.046,0.743c-0.052,0.257-0.556,0.265-0.069,0.563c0.366,0.223,0.599-0.143,0.841-0.238
		c0.559-0.219,1.017-0.415,1.402-0.931c0.392-0.526,0.426-1.294,1.276-1.128c0.093-0.237-0.007-0.557,0.098-0.788
		c0.089-0.195,0.347-0.257,0.429-0.503c0.108-0.325,0.037-1.048-0.066-1.368c-0.14,0.015-0.285-0.065-0.397-0.067
		c-0.183-0.322-0.043-0.569,0.082-0.865c0.173-0.408-0.296-0.771-0.124-1.169c0.095-0.221,0.709-0.306,0.642,0.091
		c-0.031,0.182-0.124,0.271-0.043,0.449c0.085,0.186,0.266,0.307,0.46,0.362c0.274,0.078,0.808,0.186,1.065,0.071
		c0.199-0.088,0.351-0.414,0.403-0.605c0.371-0.004,0.754,0.016,1.12,0.059c0.203,0.024,0.215-0.009,0.332,0.132
		c0.056,0.068,0.066,0.176,0.13,0.24c0.213,0.216,0.578,0.027,0.867,0.115c0.273,0.084,0.288,0.323,0.4,0.556
		c0.249-0.025,0.361-0.119,0.575-0.185c0.223-0.069,0.481-0.018,0.701-0.108c0.159-0.065,0.262-0.208,0.459-0.158
		c0.135,0.034,0.343,0.231,0.348,0.38c0.005,0.127-0.418,0.447-0.539,0.508c0.009,0.449,0.154,0.342,0.619,0.342
		c0.277,0,0.317-0.003,0.455,0.222c0.15,0.244,0.314,0.477,0.469,0.717c0.099,0.153,0.183,0.251,0.175,0.452
		c-0.007,0.175-0.102,0.395-0.135,0.574c0.69,0.062,1.383,0.1,2.075,0.111c0.484-0.413,1.59-1.056,2.266-0.958
		c0.052,0.305-0.123,0.536-0.152,0.789c0.672,0.105,1.032-0.583,1.717-0.738c0.713-0.16,1.229-0.155,1.036-0.998
		c-0.156-0.681-0.143-0.763,0.669-0.687c0.5,0.046,1.063,0.075,1.507-0.176c0.935-0.528,0.175-1.619,1.322-1.719
		c0.634-0.056,1.285,0.047,1.918-0.012c0.592-0.055,1.03-0.185,1.604,0.132c-0.022-0.124,0.047-0.313,0.012-0.45
		c0.442-0.006,0.911-0.063,1.316-0.187c0.312-0.095,0.648-0.371,0.961-0.394c0.074-0.006,0.132,0.202,0.191,0.213
		c0.191,0.035,0.298,0.047,0.561,0.065c0.405,0.027,0.821-0.001,1.226-0.001c0.334,0,0.846-0.162,0.726,0.29
		c0.889-0.188-0.042-1.759-0.255-2.257c0.615-0.092,0.991-0.439,1.265-1.032c0.061,0.433,0.157,0.865,0.128,1.303
		c0.95,0.426,2.341-0.368,3.124,0.256c0.65,0.517,0.652,1.302,1.76,1.037c0.878-0.21,1.317-1.083,2.423-0.959
		c0.743,0.084,0.682,0.249,1.114,0.838c0.079,0.107,0.248,0.174,0.294,0.316c0.148,0.461-0.163,0.842-0.171,1.358
		c0.162,0.07,0.385,0.114,0.523,0.221c0.219,0.169,0.204,0.308,0.382,0.503c0.307,0.337,0.677,0.76,1.061,1.015
		c0.408,0.272,1.205,0.108,1.372,0.573c0.312-0.258,0.7-0.678,0.705-1.158c0.002-0.146-0.14-0.417-0.155-0.588
		c-0.027-0.298,0.264-0.349,0.019-0.749c0.195-0.128,0.435-0.767,0.553-1.035c0.205-0.466,0.215-0.726,0.015-1.232
		c-0.096-0.245-0.236-0.657-0.45-0.834c-0.406-0.336-0.581-0.102-1.111-0.052c-0.326,0.03-1.057,0.1-1.021-0.414
		c0.013-0.187,0.4-0.445,0.473-0.688c0.221-0.734,0.24-1.446,0.919-2.018c-0.205-0.878-0.112-1.753-0.923-2.4
		c-0.29-0.232-0.79-0.268-1.039-0.624c-0.215-0.307-0.121-0.657-0.24-1.007c-1.126-0.411-1.658-1.498-1.665-2.594
		c0.637,0.036,1.318-0.622,1.516-1.134c0.334-0.864,0.591-0.834,1.602-0.833c0.376-1.204,1.92-2.014,3.105-2.083
		c0.719-0.043,1.288,0.116,1.842-0.317c0.209-0.163,0.369-0.382,0.589-0.544c0.305-0.225,0.709-0.326,1.03-0.535
		c0.757-0.495,0.975-1.209,1.061-2.064c0.097-0.955,0.393-1.865,0.048-2.779c0.464,0.257,0.887-0.412,1.028-0.798
		c0.5,0.283,0.649,0.58,1.162,0.692c0.493,0.108,0.673,0,1.144,0.35c0.418,0.31,0.781,0.842,1.257,0.985
		c0.215-0.33,0.209-1.07,0.405-1.294c0.228-0.263,0.432-0.021,0.699-0.444c0.447-0.71,0.267-1.535,0.187-2.307
		c0.278-0.005,0.607-0.191,0.706-0.46c-0.567-0.468-0.864-0.28-0.513-1.016c0.236-0.497,0.213-0.569,0.093-0.933
		c-0.059-0.179-0.134-0.157-0.184-0.437c-0.033-0.187,0.061-0.414,0.012-0.604c-0.136-0.535-0.433-0.319-0.725-0.679
		c-0.501-0.617,0.085-0.856-0.887-0.948c-0.588-0.055-0.671-0.152-0.995-0.639c-0.488-0.734-1.12-1.813-2.261-1.256
		c0.047,0.177-0.035,0.309-0.027,0.451c-0.459-0.314-1.105-0.327-1.466-0.79c-0.302-0.387-0.215-0.825-0.273-1.285
		c-0.085-0.669-0.906-1.76-1.524-2.084c-0.787-0.414-1.404,0.355-1.891-0.51c-0.209-0.372-0.251-0.69-0.569-0.987
		c-0.361-0.337-0.52-0.391-0.744-0.843c-0.241-0.485-0.415-0.918-0.926-1.172c-0.205-0.724-0.013-0.914-0.685-1.354
		c-0.59-0.387-0.972-0.62-1.697-0.732c-0.004,0.05-0.058,0.163-0.058,0.233c-0.516,0.023-0.969-0.118-1.475-0.113
		c-0.323-1.58-2.235-1.605-2.427-3.198c-0.037-0.304,0.063-0.65-0.003-0.947c-0.117-0.53-0.327-0.479-0.664-0.797
		c-0.341-0.322-0.27-0.431-0.318-0.942c-0.035-0.376-0.05-0.901-0.587-0.804c-0.117-0.497,0.011-1.101-0.365-1.479
		c-0.465-0.467-1.041-0.467-1.385-1.129c-0.083-0.161-0.252-0.518-0.23-0.71c0.044-0.384,0.2-0.319,0.508-0.549
		c0.351-0.262,0.33-0.208,0.449-0.698c0.061-0.252-0.142-0.607,0.253-0.542c0.262-0.757,0.241-0.885,0.697-1.395
		c0.253-0.284,0.587-0.55,0.295-0.871c-0.4-0.439-0.834,0.155-1.018-0.689c-0.004-0.018-0.007-0.035-0.01-0.053
		c-0.066-0.378,0.051-0.643-0.285-0.943c-0.092,0.085-0.246,0.091-0.338,0.217c-0.297-0.301-0.512-0.586-0.926-0.736
		c-0.402-0.146-0.577-0.699-0.91-0.922c-0.325-0.217-0.72-0.104-1.178-0.219c0.121-0.696,0.342-0.631-0.343-1.116
		c-0.271-0.191-0.443-0.194-0.511-0.525c-0.075-0.369,0.283-0.605,0.292-0.934c0.009-0.367-0.279-0.76-0.494-1.049
		c-0.258-0.348-1.212-0.686-1.245-1.119c-0.024-0.316,0.265-0.39,0.35-0.629c0.121-0.341,0.095-0.88,0.006-1.217
		c0.32-0.012,0.667,0.05,0.98,0.072c0.091,0.605,0.16,0.733,0.566,1.116c0.209,0.197,0.784,0.401,0.398,0.769
		c0.132,0.119,0.223,0.241,0.41,0.293c0.013,0.352-0.152,1.238,0.29,1.421c0.678,0.281,0.456-1.138,0.473-1.533
		c0.753,0.147,0.115-1.254,0.978-1.207c0.115-0.256,0.102-0.578,0.155-0.825c0.548,0.166,1.227-0.278,1.403-0.79
		c0.197-0.575-0.06-0.578,0.508-0.885c0.745-0.402,1.892-0.698,2.65-0.257c0.59,0.343,0.639,0.628,0.934-0.186
		c0.191-0.528,0.647-1.101,1.378-1.07c0.834,0.036,1.022,1.36,2.095,0.856c0.685-0.323,0.46-0.936,0.794-1.415
		c0.38-0.546,1.471-0.518,1.71,0.125c0.15-0.234,0.23-0.501,0.305-0.765c0.159,0.074,0.36,0.04,0.522,0.114
		c0.47-0.939,0.607-1.65,1.348-2.442c0.046,0.143,0.189,0.269,0.208,0.452c0.217-0.059,0.434-0.121,0.65-0.187
		c0.041-0.326,0.162-0.5,0.321-0.699c0.351-0.439,0.479-0.162,0.478-0.878c0.399,0.346,0.593,1.064,1.187,1.164
		c0.386,0.064,0.934-0.253,1.075-0.662c0.093-0.27,0.043-0.53,0.105-0.771c0.087-0.341,0.298-0.574,0.196-0.984
		c0.708-0.301,1.062-0.21,1.63-0.759c0.875,0.377,0.536,0.452,1.298,0.041c0.654-0.353,1.217-0.097,1.953-0.03
		c0.967,0.089,0.636-0.719,0.746-1.229c0.124-0.579,0.455-0.207,0.908-0.381c0.416-0.159,0.348-0.571,0.693-0.638
		c0.358-0.069,0.555,0.457,1.06,0.274c0.285-0.103,0.572-0.529,0.871-0.681c0.308-0.157,0.559-0.199,0.867-0.287
		c0.235-0.067,0.437-0.047,0.626-0.234c0.19-0.188,0.047-0.225,0.168-0.406c0.359-0.535,0.417-0.41,1.041-0.682
		c0.117,0.757,1.259,0.32,1.5-0.06c0.628-0.993-0.511-0.938-0.929-1.396c0.106-0.16,0.214-0.332,0.311-0.494
		c-0.327-0.353-0.94,0.065-1.163-0.305c-0.125-0.208,0.068-0.797,0.17-1.007c0.256-0.526,0.327-0.428,0.813-0.306
		c0.419,0.105,0.542,0.33,0.853,0.472c0.405,0.184,0.561,0.044,0.907,0.004c0.15-0.018,0.214-0.185,0.404-0.159
		c0.202,0.028,0.457,0.41,0.709,0.481c0.519,0.147,0.747-0.14,0.867,0.524c0.101,0.554-0.292,1.066-0.228,1.642
		c0.399,0.195,0.853,0.14,1.282,0.091c0.121,0.401-0.197,0.967,0.068,1.311c0.186,0.241,0.765,0.243,0.991,0.457
		c0.242,0.229,0.238,0.556,0.52,0.757c0.618,0.438,1.064-0.124,1.218-0.7c0.07-0.265-0.009-0.612,0.074-0.857
		c0.151-0.443,0.298-0.369,0.637-0.632c0.514-0.398,0.366-0.763,0.548-1.307c0.067-0.203,0.254-0.303,0.331-0.58
		c0.112-0.406,0.111-0.658,0.326-1.042c0.233-0.417,0.577-0.755,0.726-1.225c0.161-0.508,0.081-1.097,0.085-1.621
		C171.873,103.359,172.156,102.535,172.614,101.564z"/>
</g>
</svg>
