<?xml version="1.0" encoding="utf-8"?>
<!-- Generator: Adobe Illustrator 26.0.3, SVG Export Plug-In . SVG Version: 6.00 Build 0)  -->
<svg version="1.1" id="Isolation_Mode" xmlns="http://www.w3.org/2000/svg" xmlns:xlink="http://www.w3.org/1999/xlink" x="0px"
	 y="0px" viewBox="0 0 200 200" style="enable-background:new 0 0 200 200;" xml:space="preserve">
<style type="text/css">
	.st0{fill:#1E8346;}
</style>
<g>
	<path class="st0" d="M14.4,142.2c-1.1-1.3-1.3-3.3-2.6-4.5c0.1-0.7,0.6-1.1,1.2-0.9c1.1,0,0.5,1.2,0.7,1.8c0.4,0,0.9-0.1,1.3,0
		c0.2,0.5,0.2,1-0.1,1.4c0.2,0.9,1,1.7,0.5,2.7C15.1,142.6,14.8,142.3,14.4,142.2z M18.3,151.3c-2,2,1.1,3.5-1.9,4.6
		c-2-1.8-0.7-4.4-0.4-6.6C17.3,148,19.5,149.9,18.3,151.3z M18.7,145.9c-1.2,1.8-2.7-0.5-0.5-1.1C18.7,145.2,18.9,145.5,18.7,145.9z
		 M56.5,165.9c-1.1,0-4.1-0.6-2.3-2.1C54.8,164.6,56.6,164.9,56.5,165.9z M57.9,164.7c-0.2,0.1-0.6,0.3-0.7,0.5
		c-0.9-0.4-1.5-1.5-2.6-1.8c-1.5-0.8-2.5,2-3.6-0.8c-0.3-0.7-0.6-1.9-0.2-2.5c1.1-0.1,1.2,2.3,2.2,1.8c0.9-0.8-0.8-0.4-0.3-1.2
		c0.1-0.2,0.4-0.3,0.3-0.6c-0.4-0.8-1.7-0.1-1.9-1c0-0.4,0.3-0.6,0.4-0.9c-1.1-0.2-3,0.6-3.4-0.8c0.1-0.1,0.2-0.3,0.2-0.5
		c-2.3,0-0.1-1.6,0.7-2c2.4-1,3.9,1.4,5.4,2.8c3,0.8,3.6,4.3,4.5,6.8C58.6,164.7,58.2,164.6,57.9,164.7z M49.9,146
		c0.5,0.4,0.9,0.8-0.1,0.8C49.4,146.7,49.4,146,49.9,146z M51.5,143.6c0-0.1,0.1-0.2,0.1-0.3c0.7-0.1,0.6,0.6,0.8,1
		C52,144.8,51.2,144.2,51.5,143.6z M56.6,151c0-0.1-0.1-0.3,0.2-0.4c0.3,0.7,1.7,1.4,1.3,2.2c-0.2,0.3-0.5,0.4-0.7,0.1
		c-0.3-0.2-0.8-0.2-1-0.4C56.3,152.1,56.9,151.6,56.6,151z M61.9,156.9c-0.3,0.2-0.9,0.5-1.3,0.3c0.3-0.5-0.7-1.1,0.3-1
		C61.2,156.3,62,156.4,61.9,156.9z M62.4,155.7c-1.3-1.2-1.8-1.4-3.4-0.6c-0.4-1.7,3.3-1.5,2.1-3.3c-0.4-0.6-1-2.5-1.8-1.5
		c-1.3,0.3-2.8-0.2-3-1.7c-1.5-0.2-1.6-0.6-2.2-2c-0.6-0.8,0.1-1.8,0-2.7c-0.1-1-0.4-2.1-1.6-1.8c-1.9-0.6-0.7-0.9,0.2-1.8
		c-0.1-1-1.6-0.8-0.4-1.7c-0.5-0.4-1.6-0.1-2.2-0.6c0-0.6-0.5-1.1-0.5-1.6c0.9,0.5,1.3,2,2.5,1.7c-0.4-0.7-0.7-1.6-1.6-1.6
		c-0.3-0.1-0.4-0.3-0.6-0.6c-0.3-0.5-1.2-0.7-1.3-1.3c2.2,0.1,2,0.7,2.1-1.6c0.6-0.2,1.3,0,1.8-0.6c0.6,0.6-0.1,1.8,1,2
		c1.1,0.2,2.3,0.1,3-0.8c2.3-1.4,4.6-3.6,7.2-3.8c1-0.3,0.5,0.6,1,0.9c0.8,0.4,0.5-0.8,0.5-1.3c0.9,0.4,6.8,2.6,5,3.8
		c-0.3,0.2-0.5,0.2-0.5,0.7c0,0.5,1.1,1.1,0.2,1.3c-0.9,0.6-1.3,1.7-1.6,2.7c0.6-0.2,1.7,0.2,1.9-0.6c0.1-0.3-0.4-0.7,0-0.9
		c0.6,0,1.1,0.1,1.6-0.4c0.6-0.4,1.3,0,1.9-0.3c0.9-1-1.2-1.2-1.2-1.9c0.3-0.4,0.9-0.3,1.2,0c0.7,0.3-0.2-1.8-0.2-2.2
		c0.2,0.1,0.3,0.2,0.4,0.4c0.6-0.7-0.2-1.8-0.1-2.6c1.6,1.7,2,4.1,3.2,5.9c0.6,0.9-0.8,1-1.3,1.2c-1.3,0.8,1,2.4,1.5,3.2
		c1.1,1.6,2,3.4,2.8,5.2c-2.7-1.9-2.1,0.3-1.2,2.1c0.8,2.4-0.5,4.8-1,7c-0.7,0.1-0.3,1-0.5,1.5c-0.3,0.3-1.5,0.2-1.3,0.8
		c0.4,0.6-0.2,0.9-0.7,0.9c-0.8-0.1-0.9-2.3-1.9-1c-0.8,0.3-1.7,1.5-2.6,1.1c-0.4-0.4-1-0.5-1.5-0.4c-1.7,0.5-1.7-2-3.2-0.7
		c-0.2,0.1-0.1,0.2-0.3,0.1c-0.7-0.7-1.4-2.3-2.6-1.9C62.9,154.8,62.8,155.6,62.4,155.7z M49.2,136.3c-0.4,0-1.6-0.9-0.6-1.1
		C48.9,135.4,49.4,135.8,49.2,136.3z M58.8,118.3c-0.2,0.1-0.3,0.2-0.5,0.3c-0.1-0.3-0.1-0.6,0-0.9c0.5-0.8,1.5-0.6,1.9,0
		C59.7,117.9,59.2,118.1,58.8,118.3z M65.1,122c0.1-0.3,0-0.8,0.2-1.1c1,0.2,0.6,1.6,0.5,2.3c-0.8,0-1.6-0.2-2.3-0.3
		C63.7,122.3,65.2,123,65.1,122z M69,113c0.1,0.8-0.4,0.9-0.8,0.3C67.7,112.8,68.8,113,69,113z M73.8,115.9c0.4,0.5,0.8,1.5,1.5,0.7
		c0.4,0.9-0.3,1.7-0.8,2.3c-0.4,0.9,0.2,2.1-0.4,2.9c-0.5,0.9-1.6,0.3-2.3,0c-0.5-1.1-0.5-2.4-0.4-3.6c0.3-0.7,1.4-0.8,1.7-1.7
		c0.5-1.3-0.5-2.4-1.6-2.7c-0.3-0.9-0.5-2.2,0.7-2.4c0.3,1,0.2,2.2,1.1,2.9c0.4,0.4,1.3,0.3,1.5,0.8
		C74.8,115.5,73.6,115.3,73.8,115.9z M68.9,160c-0.4,1-0.7,0.4-1.3,0C67.9,159.7,68.7,159.8,68.9,160z M64.7,157.8
		c-0.2,0.4-0.7-0.3-1.1-0.3c-0.4-0.1-0.3-0.6,0.2-0.6C64.1,157.2,64.5,157.5,64.7,157.8z M71.2,166.2c-1.3,0.8-1.9-0.5-2.7,1.4
		c-1.1-0.8-2.2-1.7-2.8-2.9c-1.7-0.9-1.9-2.9-3.1-4.1c0.6-1,1.1,0.5,1.4,0.9c1.4,0.2,2,2.2,3.3,2.7c0.2-0.3,0.4-0.6,0.7-0.6
		c-0.2,1,0.6,1.3,1.4,1.6c-0.1-0.3,0-0.8,0-1.1C70.1,164.5,71.5,165.2,71.2,166.2z M72.6,161.1c-1.1,0.3-1.5-1.4-1.4-2.2
		c0.8-0.8,1.8-1.4,2.5-2.2c0.1,0,0.1-0.1,0.2-0.1c0.7,0.7,0.9,1.5,0.4,2.4c0,1.2,0.9,1.1,1.4,0.2c0.2,0.7-0.4,1-1,1.2
		C74,161.6,73.9,161.2,72.6,161.1z M73.2,163.5c0-0.2-0.1-0.4-0.2-0.6c1.1-0.7,1.2,0.6,0.4,1.1C73.3,163.9,73.2,163.7,73.2,163.5z
		 M82.7,153.2c-0.4,3.6-2.3,6.6-3.5,9.9c-0.2,1.9-1.4,3.6-1.7,5.5c-0.2,1.1-0.3,2.4-1.2,3.1c-1.6,0.5-0.7-2.5-1.3-3.4
		c-0.4-0.6-1.1-0.9-1.5-1.6c1.8,0.6,1.3-0.9,1.9-2c1.1,0,2.1-0.2,0.6-0.9c-0.4,0-0.5-0.3-0.6-0.6c0.8-2.3,3.4-3.2,4.2-5.3
		c1.3-2,1-4.8,2.9-6.6C83.1,151.4,82.8,152.7,82.7,153.2z M107.5,171.1c-0.6,1.3-2.7,0.6-0.3,2.3c-1,0.4,0,2.3-1.3,2.2
		c-0.6,0-1.5-0.1-2-0.5c-0.4-0.4-0.3-0.6-0.9-0.5c-1.2,0.2-2.6,0.2-3.8,0.5c-0.4,0.3-0.2,0.8-0.8,1c-0.6,0.2-1.8,0-1.5,1
		c-2.5-0.2-4-3.3-6.1-4.5c-2.3-1.7-6.7-1-7.5-4.1c0.4-0.4,0.8-0.7,1.3-0.9c0.3,0.7,0.9,0.6,1.4,0.2c2.5-1.1-1.9-2.7-1.5-4.3
		c0.4-1.4,1.6-2,2.8-2.3c1.7-1.4,4.1-0.7,5.3,0.9c1.2,1.1,1.8,2.8,3.6,3.2c0.9,0.1,0.8,0.8,1.4,1.2c0.5,0.2,1.8,0.5,2.2,0.3
		c-0.2-0.7-0.8-0.9,0.1-1.4c1.3,1.1,1.8-1.2,1.9-2.1c0.6,0.7,1.4,1.2,2.2,1.3c0.2,0.3,0,0.9,0.1,1.3c0.3,0.7,1,0.7,1.3,1.4
		c0.2,0.6,0.3,1,0.8,1.3C107.1,169.3,107.6,170.2,107.5,171.1z M88.9,148c0.7,0.2,0.6,1.3,0.8,1.8C88.6,149.7,88.9,148.8,88.9,148z
		 M88.7,151.2c-0.2,0.3-0.4,0.6-0.5,1c-1-0.7-0.4-1.2,0.5-1.5C89.1,150.7,88.8,151.1,88.7,151.2z M94.1,161.2c0.9,0,1.1,0.4,1.2-0.9
		c0.8-0.1,1.7,0.4,1.6,1.3c-1.1-0.8-1.6,1.7-2,0.7C94.7,161.9,94,161.7,94.1,161.2z M97.7,163.5c1.2,0.9,0.1,0.6-0.6,0.8
		c0-0.3,0.2-0.6,0.3-0.9C97.5,163.5,97.6,163.5,97.7,163.5z M97.6,159.7c0.2-0.4,0.8-0.2,1.1-0.5c0.6,0.1,1.3,1,0.5,1.4
		C98.3,162.2,98.3,160.5,97.6,159.7z M115.4,166.9c-3.8,4.4-6,6.4-4.9,12.6c-1.1,0-1.5-0.9-1.4-1.9c-1.8-1.9-0.9-3.3-0.4-5.5
		c-1.6-0.2,0.5-2-1.7-3.2c-1.5-0.8,0-3.1-2.2-3.3c0-0.6,0-1.3-0.5-1.6c0.4-0.8,0.2-2.1-0.9-2.1c1.4-2.2,1-1.2,2.4-0.3
		c1.3-1.5,2-0.4,2.7,0.9c1.3-1.6,1.9-0.4,2.4,0.9c1.2,0.6,3.5-0.4,3.9,1.6C114.9,165.7,115.8,166.2,115.4,166.9z M111.4,162
		c1.2-0.2,2.2-0.9,2.1,0.9C113,163,110.7,162.8,111.4,162z M126.1,160.9c-1,1.8-4.5-1.4-6.2,0.2c-1.6,0.7-1.9,2.9-3.6,3.4
		c-1.4,0.4-2.7-1.8-1.7-2.7c1-0.3,0-0.5,0.1-0.9c0.2-0.2,0.7-0.2,0.9-0.6c0.2-0.3,0.2-0.8,0.7-0.6c0.3,0.4,0.5,0.6,1.1,0.4
		c0.9-0.3,1.8-0.6,1.5-1.8c0-0.8-2.2-1.9-0.5-2.2C119.9,159.2,126.2,155.8,126.1,160.9z M116.3,156.6c0.7-1.3,1.8,1.2,0.4,0.5
		C116.6,157,116.2,156.8,116.3,156.6z M184.3,153.3c0.6-1.2,0.4-2.5,0.3-3.8c0.2-1.4,1.3-2.5,1.2-4c0-0.3,0-0.5,0.3-0.6
		c0.2-0.1,0.4-0.2,0.6,0.1c0.7,1.6,1.8,2.9,3.4,3.5c1.5,0.3,2.3,1.4,3.4,2.3c1.2,0.8,4,1,2.8,3c0.5,1.6,0.3,1.6-0.7,2.8
		c-0.4,2.4-0.6,3.7-3.3,2.2c-1.1,0-1.6-1-2.6-1.4C188.2,156.8,183.6,155.5,184.3,153.3z M131.5,127.2c1.5-0.6,1,1.6,1.1,2.5
		C131.9,130.6,130.6,127.8,131.5,127.2z M129.7,114.8c1.1,0.3,2,1,0.5,1.6c-0.4-0.3-0.5-1-0.9-1.4
		C129.4,114.8,129.6,114.8,129.7,114.8z M106.4,121c0.1-0.1,0.3-0.2,0.3-0.4c0.8,0.5-0.1,2.3-0.7,2.3C105.1,122,105,121.5,106.4,121
		z M98.3,75.4c0.5-0.2,1.2,0.2,1.7,0.1c0.6-0.2,1.2-0.9,1.9-0.8c-0.5,0.8-1.3,1.5-1.8,2.2c-0.5,0.2-1.5,0.3-1.8-0.3
		C98.2,76.3,97.8,75.7,98.3,75.4z M90.9,123.5c0.8,0.7,1,0.1,1.1-0.6c1.1,0.2,1.7-0.5,2.4-1.2c0-0.9,0.3-2-0.3-2.8
		c-0.2-0.3,0.2-0.3,0.4-0.2c0.6,0.7,1.2-0.1,1.7-0.4c2,0.2,2.9-2.5,1.9-3.9c-1.1-1.7-3.4-0.3-4.3-1.7c-0.8-0.6-1.8-0.2-1.8-1.6
		c1.4,1,2.9,1.7,4.7,1.6c1.2,0.3,2.3,0.7,3.5,0.1c1.4,2.6,3.6-0.8,5.4-0.4c0.1,0.8-1,1-1.1,1.7c-0.1,0.7-0.3,2.4-1.1,1.1
		c-0.3-0.3-1.1-0.4-1.1,0.2c-0.6,0.9,0.6,1.6,0.9,2.4c0.4,0.4,0.8,1.7,0.3,2.1c-2.3-0.9-1.2,0.8-2.8,1.6c0.9,0.6,2.2,0.1,2.8-0.6
		c0.6,0,1.7,1.9,1,2.4c-0.7,0.6-2.2-0.1-2.7,0.6c-0.1,0.6,0.4,0.7,0.9,0.7c2.3-0.4,3.2,0.1,2.9,2.5c1.5,1.1,1-2.3,1.6-3
		c-0.1-1.9,0-4.6,2.6-4.5c0-1.1,0.4-2.2-0.4-3.2c-0.3-0.7-1.2-1.5-0.8-2.3c1-0.1,1.7,0.7,2.4,1.2c0.9,0.1,0.7,0.8,0.2,1.3
		c-0.3,0.7,0.5,1.1,0.7,1.7c0,1.6,0.6,3,0.9,4.6c0.2,0.6-0.4,1.4-1,1.3c-1.1-1.3-1.9,1.3-1.9,2.2c-0.1,0.6,0.7,0.9,1,0.5
		c0.3-0.4-0.1-1.1,0.2-1.5c0.9,0.2,0.2,1.9,1,1.7c0.3,0,0.6,0,0.8,0.2c0.3,0.8,0.9,1.1,0.9,0c0-0.4-0.7-0.8-0.3-1.2
		c0.8-0.3,0.7-0.7,0.7-1.4c0.9-0.6-0.4-1.2-0.1-2c0.6-1.8-2.2-3.3-0.9-4.8c-0.3-0.4,0.2-0.6,0.2-0.9c-1-1.2-0.7-5.6-3.2-4.1
		c-0.7,0.6-1.6,1.1-2.5,0.8c-1-1.7,1.4-2.3,2.6-3.1c0.8-0.4,1.7-0.8,2-1.7c0.9-0.9,2.2-1.5,3.2-2.3c1.5-1.6,4.6-2.6,6.2-0.6
		c1,0.5,2.4,0.4,3.4,0.7c1.1,0.6,1.7,1.9,2.8,2.4c0.2,0.7-0.4,1.4-0.9,2c-2.6,2.6-0.9,5.2,0,8c0,1.6,1,3.3,0.4,4.9
		c-0.2,1.7,1,3.3,1.6,4.8c1.2-0.2,1.2,2.1,0.3,2.4c-1.1,0.4-1.9,1.9-3,0.6c-0.7-0.4-0.6-1.3-0.9-1.9c-0.3-0.3-0.4,0.3-0.7,0.4
		c-0.3,0.1-0.6-0.2-0.8-0.3c-0.8-0.4-2.1,0.2-2.7,0.8c0,0.7-1.4,0.9-1.9,1.1c-3.1,2.4-3.7,8.5,1.5,8.2c1.5,0.6,3.4,2.4,2.6,4.1
		c0.5,1,0.4,1.7-0.7,2.3c-0.5,0.4-1.4,0.3-1.5,1.1c-0.9,0.6-2.1-0.3-3.2,0c-1.5,0.6-3.7,2.2-3.7,3.9c0.2,0.5,0,1.4-0.7,1
		c-0.2-0.3,0.2-1.2,0.2-1.6c-1.1-0.5-1.6,0.3-1.8,1.2c-0.4,2.5,3.8-0.7,4.3,2c0.2,1.2-1.3,0.7-1.5,1.4c0.1,1.3,0.5,2.5,0.9,3.7
		c-1.8-0.2-2.3,2.6-4.1,1.1c-0.9-1-2-1.2-3.1-1.3c-1.4-1.7-3.8-2.3-5.5-3.4c1.3,0,2.6,1,3.8,1.2c-0.1-0.7-1.2-2.7-1.8-1.5
		c-0.3-0.8-1.3-1.4-1.1-2.3c1.3,1.1,1.2-1,2.5-0.3c0.4-1.4-1.7-1.3-2.6-1.5c0-0.4,0.1-0.6-0.4-0.6c-0.2-0.1-0.1-0.5-0.1-0.7
		c0.1-0.9,0.7-0.2,1,0.1c0.6-1.5-1.7-1.2-2.2-0.2c0.1,0.6,0.8,0.7,0.6,1.5c-0.8-0.2-1.1-1.2-2-1.3c-1.6-0.1-3.1-0.9-4.5-1.6
		c-1.5,0.8-1.6,1.5-3.3,0.5c-0.1,0.2-0.4,0.5-0.4,0.7c-1.2,0.3-1.3-1.3-1.7-2.1c0.2,0,0.4,0.1,0.6,0.1c0-0.3-0.2-0.3-0.4-0.5
		c-0.4-0.5,0.1-1.4-0.3-1.9c-0.8-0.8-2.3-1-2.8-2.2c0-0.5-0.4-0.7-0.7-1c-0.6-0.9,1.1-0.5,1.5-0.8c0.4-0.3,1-0.4,1.3-0.8
		c0.4-0.6,0-1-0.3-1.5c-0.2-0.6,0.2-1.4,0-2c-1.3-0.5-0.4-2.7-2.1-2.8c-0.1,1-1.7-0.7-0.6-0.7c0.4-0.1,0.9,0,1.1-0.2
		c1.3-1.4-0.3-4-1.7-4.7c-0.9-0.5-2-0.8-3-1c-0.3-0.1-0.2-0.2-0.2-0.4c1.2-0.2,2.4-0.1,3.6-0.1c-0.1-0.4-0.8-0.7-1.1-0.9
		c-0.8-0.4-1-1.6-1.8-1.8c-1-0.2-2.2,0.2-2.8-0.8c1.6-0.4,3.3-0.6,4.6,0.6c1,0.2,1.5-1.1,2.5-1.1c0.2,0,1,0,0.6,0.3
		c-2,0.4,2.1,3.7,1.7,1.6c-0.1-0.6-0.9-0.8-1.1-1.2c0.7,0.2,0.8,0.3,0.9-0.4C90.3,123.3,90.6,123.4,90.9,123.5z M90,117.7
		c-1.3-0.1-2.4-1-3.2-2c-0.7-0.1-0.7-1.3,0.1-0.8C88.1,115.6,88.9,116.9,90,117.7z M81,48.4c1-2.5,4.5-2.1,6.7-2.7
		c0.2-0.5,1.2-0.1,1.5,0.1c0.5,0.4,0.1,1.2,0.3,1.8c-0.8-0.7-2.8-1-3.5,0c0.4,0.6,1,0.8,0.3,1.6c-0.8,0.9-2.4,2.7-3.4,1.1
		C82.6,49.1,79.8,49.9,81,48.4z M8.6,74.2c0.8-7.1,5.5-13,10-18.1c2.1-1.3,4.6,2,6.9,0c1.9-0.8,4.4-3.5,6.4-1.7
		c2.4,0.7,5.2-0.3,7.8-0.3c2.6-1.4,5.3-3.6,6.5-6.3c3.3-3.4,3.8-8.5,7.1-11.7c1-1.2,1.5-3.6,3.1-4.1c9.5,2.6,12.8-9.3,17.9-7.9
		c0.7,1-2.4,2.5-2.9,3.1c-8,8.4,3.6,11.2-0.2,13.5c-0.6,3.1,0.6,6.7,0.6,10c-4.4,3.8-3.9,6.5-5.7,11.6c-1.5-0.5-3.5,0.8-4.4-1
		c-0.7-1-1.6-2-2.8-2.3c-1.3-1.2-2.6-1.8-4-0.3c-1-0.3-2.1-0.9-2.8-1.6c-1.4-1-1.4,2.3-3.1,1.6c-2.4-1.4-2,0.4-3.6,1.2
		c-0.9,0.1-2.2-0.6-2.9,0.1c-1.4,0.3-2.8,0.5-4,1.2c-0.9,0.3-1.4,1.4-2.4,1.2c-2.3-2.3-2.2-3.1-5.1-0.9c0-1.2-1.5-0.3-1.9,0.2
		c-0.9,0.2-1.6,0.4-1.8,1.5c-0.5-0.6-0.5-1.4-0.7-2.1c-0.8-0.9-1.1,0.5-0.5,1c-0.3,0.3-0.7,0-1,0.2c-0.4,0.3,0.4,0.6,0.3,0.9
		c-0.9,0.3-1.4,1.1-2.2,1.4c-1.1-0.5-2.3-0.4-3,0.8c-2.2,3.4,3.3,2.5,4.7,1.4c0.3-1.3,1.3-1.9,2.6-2.4c0.6,1.4-0.2,3-0.7,4.4
		c0-0.6-0.1-1.3-1-1.1c-2.2,1,0.9,3.4,0.1,5c-0.4,1.6-1.3,2.9-2.4,4c-0.1,0.2,0.2,0.5,0,0.7c-0.3,0.7-1.6,0.5-2.2,0.6
		c-0.5,0-0.5,0.6-0.9,0.4c-0.3-0.5-0.8-1.2-1-1.7c0-0.2,0.4-0.3,0.3-0.6c-1-0.3-2.3-1.7-3.2-0.3c0.1-1.9,1.5-0.6,1.4-3.3
		c1.4,0.4,4.5-0.8,1.5-1.4c0-0.9,1.6-2.1,0.5-2.9c-0.2,0.2-0.1,0.9-0.2,1.2c-0.6,0.5-1,1.5-1.8,1.7c-0.3,0-0.6,0-0.8,0.3
		c0.1,1-2.3,1.1-1.4,2.4c1.3,0.6-0.2,1.7-0.1,2.6c1.4,0,0.9,0.4,0.9,1.4c-0.9,0.1-2-1.4-2.5,0.3c0.5-0.1,0.9-0.1,1.3-0.3
		c1.6,1.9,1.3-0.5,3.3,0.3c-0.5,0.7,0,1.2,0.3,1.8c0,0.5,0.1,1.1,0.1,1.6c-0.3,0.6-1.5,0.2-1.6,1c-0.2,0.1-0.3,0.1-0.5,0.1
		c-1.9-5.6-4.3-2.8-5.6-6.1c0-0.9-1.1-4.5-1.8-2.1c0.1,0.7,0.8,1.9,0.1,2.6C8.7,76.2,8.3,75.2,8.6,74.2z M53.2,58.9
		c-0.4,0.4-1.1,0-1.1-0.5C52.5,57.8,54.1,58.3,53.2,58.9z M32.6,67.7c-0.5,0-0.5-0.5-0.8-0.8C31.9,65.7,32.8,67,32.6,67.7z
		 M31.4,70.8c-0.7-0.2-1,0.3-1.3,0.8c-0.3-0.5-0.7-1-1.1-1.4C29.5,69.4,32.3,69.2,31.4,70.8z M20.1,79.6c0,0.3,0,0.6,0,0.9
		c-0.6-0.4-0.8-1.3-1.1-1.9C19.8,78.5,20.4,78.8,20.1,79.6z M18.6,76.4c-0.3,0.7-1.1-0.1-0.7-0.7C18.4,75.4,18.8,75.8,18.6,76.4z
		 M5.3,130.8c3.2-6.8,2.1-14.4,0.3-21.3C5.5,104,6.7,98.6,6,93c1.3-0.1-0.3,3,1.2,1.4c-0.4,1.4,2.2,0,2.2,1.4
		c-0.2,1.8,1,0.3,1.5-0.3c-1.3-0.9-1.3-0.3-1.5-2c-0.5-0.3-1.1-0.5-1.6-1c-1-0.7-0.1-3.1-1.2-2.8c-0.3,0-0.2,0-0.2,0.3
		C6.2,90.9,6.9,93,6,92.7c0.2-5.5-0.9-11.6,2.5-16.3c0.3,0.2,0.3,0.7,0.2,1c-0.9-0.5-0.3,0.6-0.4,1.1c-0.1,0.4-0.4,0.6-0.5,1
		c0,0.8,1.3,0.5,1.1,1.5c0.2,0.9,1.9,0.6,1.6,2c0,0.3-0.1,0.7,0.2,0.8c0.3,0.1,0.3-0.1,0.4-0.3c1.2-2.4,4.1,0.4,5.7,0.9
		c0.6,0,0.9-1.3,1.5-0.3c0.6,0.8,0.9,1.6,0.3,2.5c0.2,0.2,0.7-0.1,0.9,0.2c0,1,1,1.5,2,1.3c2.5-0.1,1-2.7,2-3.8
		c0.2-1.3-1.7-1.7-1.8-3.1c-1.1-0.7,0.5-1,1.1-0.8c0.9-0.4,1-1.6,1.3-2.4c0.3-0.3,0.8-0.6,0.7-1.1c0.4-0.1,0.4,0.3,0.7,0.4
		c0.6,0.2,1-0.7,1.5-0.4c0.2,0.1,0.1,0.3,0.3,0.1c1.4-1.1-0.9-1-1.6-1.1c0.7-1.8,1.5-3,3.2-4c0.3-0.1,0.3,0.2,0.5,0.2
		c0.7,0.2,1.5,0.7,1.5-0.4c1.7,0.2,2.3,0.7,2.5,2.4c0.2,0.8,1.3,1.5,1,2.2c-3.4,1.9-0.5,2.7-2.9,3.6c-1.5,2.1,1,6.5,1,1.5
		c0.3-0.1,0.8,0.2,1.1,0c0.2-0.2,0.6-0.9-0.1-0.7c-0.6-0.1-0.2-0.3,0-0.6c0.2-0.3,0.3-0.9,0.7-1c0.2,0.3-0.2,0.9,0,1.2
		c0.2,0.3,0.4,0,0.6-0.1c0.7-0.2,1.8-0.1,2.5,0.2c1.1,0.8-1.2,1.2-0.4,2.9c-0.3,1.4,3.5,2.3,3,0.7c-0.2-2.1-1.4,0.5-2.2-0.5
		c-0.3-0.9,0.4-1.9,0.8-2.7c0.7-4-0.3-5.6-3.9-2.8c0-0.2-0.2-0.2-0.3-0.4c1.2-1.6,4.1-3.7,0.7-4.5c-0.1-0.4,0.1-0.9-0.1-1.2
		c-0.1-0.3-0.3-0.7-0.2-1c2.7-3.1-1.2-2.6-0.1-4.6c0-0.7,0.5-1,1-1.4c0.5-0.8,0.8-1.6,1.7-2c0.3-1.2,0.8-1.1,1.9-1.3
		c1.5-0.9,6.8-1.1,6,1.5c-1,0.7-0.7,1.5,0.1,2.1c0-2,0.2-1.3,1.5-2.1c0.2-0.5,0.3-1,0.7-1.3c0.5-0.4,0.5-1.2,0.7-1.8
		c1-0.8,2.3-1,3.5-0.6c1.2,0.5,2-1,3-0.3c0.8,0.1,0.9-1,1.7-0.9c3.4,0.6,4.9,6,8.7,4.4c-1.7,2.9-1.2,6.7-0.6,10
		c0,1.3,1.9,2.3,1.2,3.5c-1.2,0-2.5-1.1-3.5,0.1c-0.5-1-1.8-0.8-2.5-0.1c-1.9,0.4-3.2,1.9-5.1,2.5c-0.6,0.9-2.4-0.3-2.9,1
		c1.9,0.2,5.5-0.4,6.5-2.4c0.3,0.1,0.6,0.2,0.9,0.4c0.5-0.5,1.1-0.9,1.6-1.4c0.4,0.4,2,1.9,2.3,1c0.6-1,2.4,0.4,2.9-0.6
		c2.4,5.1-5.2,4.3-2.8,10.2c0.4-0.8,0-1.7,0.3-2.5c0.6-0.2,0.6-1,0.9-1.4c0.5-0.4,1.1-0.8,0.8-1.5c2.2,1,0,3.3,4.2,4.4
		c2.7,1,10.2-3.2,11.1,1.1c0.9,1.1,3.4,2,1.3,3.3c0.1,5-0.8,4.5-3.1,8.2c-0.3,0.7-1,0.9-1.6,1.5c-1,1.5,0.1,7-2.8,2.5
		c1-0.3,1.1-1.4,0.8-2.2c-0.2-0.5-0.6-0.3-1-0.1c-1.1,0-1.6,0.7-1.9,1.7c-1.2,1.3,0.2,2.6-0.2,4c-1.8,1.6-1.2-0.6-2.2-1.5
		c1,0.2,1.3-0.6,1.3-1.4c-0.8,0.1-1.3-0.4-1.9-0.9c-0.8,2.4-2.1,0.9-2.6-0.7c0.8,0,1.5-0.2,2-0.8c0,0.2,0,0.5,0,0.8
		c0.4,0.1,1.2,0.3,1.4-0.3c0.1-0.7-0.8-0.7-0.2-1.4c0.6-0.5,1.7-1.9,0.4-2.1c-0.5,0-0.6-0.4-0.9-0.7c-0.3-0.1-1.1-0.1-1.4,0
		c-0.7,0.2-0.5,1.1-1.1,1.4c-0.8,0.4-0.4,1.3-1.1,1.8c-0.3,0.3-0.5,0.5-0.7,0.9c-0.9,1.1-2.7,2-2.1,3.7c0.9,1.7,0.7,3.8,1.5,5.5
		c-1.1,1.5-0.1,3.3-0.4,5c-0.2,0.7-1.1,0.7-1.5,1.2c-0.7,0.7,0.3,1.9-0.4,2.4c-0.8-0.2-1-0.8-1.2-1.5c-1-1.2-2.2,0-3.4-0.2
		c-2.6-0.8-0.8,0.9-2.1,0.9c-0.5-0.1-2.2-0.5-1.5,0.5c1,1.2,3.1,1.2,4.6,1.4c0.3,1.7-2.4,2.4,0.3,3.4c-1.2,0.8-2.6,0.7-1.3,2.4
		c-1.6,0.1-3.2,0.3-4.6,1.1c-0.6,0.1-1.7-0.3-2.4-0.3c-0.8-1.6-3.2-1.8-4.7-0.9c-0.8,0.6,1,0.6,1.3,0.6c1.3-0.1,1.9,1.3,3,1.9
		c0,1.8,1.8,1.4,3.1,1.2c-0.2,0.5-0.8,0.7-1.2,1c-0.8,0.5-0.7,1.9-1.6,2.2c-0.5,0.2-0.5,0.2-0.6,0.7c0,1-1.3,0.5-1.9,1.1
		c-1.4,1.3-1.7-0.7-2.5-0.1c-0.2,0.3-0.2,0.9,0.1,1c-0.3,0-2.4-0.3-2.2,0.5c1.4,1.3,4-1.2,5.1,1.2c0.5,0.5-1.1,1.8-1.7,1.9
		c-1.2,0.1-0.1,1.2,0,1.8c0.2,0.7-1,1.5,0.2,1.8c0.3,0.4,0.5,0.9,0.6,1.3c-1.1,1,0.6,0.9,0.5,1.8c-0.5,0.8,1.5,1.1,1.3,1.9
		c-0.3,1-0.3,1.4-1.3,1c-1,0.9,0.5,0.5,0.7,1c0.2,0.6-0.6,1-1.1,1.2c-0.8,0.2-0.9-1.1-1.8-0.7c-0.7,0.6-2.8,0.8-2.3,2.1
		c0.9,2-1.2,0.2-1.2,1.5c0.5,0.1,1-0.2,1.3,0.4c0.4,0.6,1.2,1.5,0.7,2.2c-0.7,1.1-2.4,0.5-2.9,1.8c0.2,0.6,1.4,0.4,1.9,0.5
		c0.9,0,1.5-1.8,2.6-1c0.3,0.1,0.5,0.4,0.6,0.7c0.5,1.3,1.9,1.4,3.1,1.6c0.8,0.8,0.1,3.1,1.3,4.1c-0.5-0.1-1.9-0.5-2.1,0
		c0.4,0.7,1.3,0.7,1.4,1.7c0.1,0.5,0.3,1.2-0.4,1.3c-0.3,0.1-0.3-0.2-0.5-0.5c-0.7-0.7-2-0.1-1.9-1.6c-0.2-1.2-2.1-1.8-2.1-0.2
		c-0.2,0.3-0.5,0.2-0.7,0.2c-1,0.6-1.9,1.7-3.1,2.1c-0.2-0.6-0.9-0.5-1.4-0.4c-0.4,0.4,0.2,1.1-0.3,1.5c-1,1-3.4,0.3-3.2-1.3
		c-0.7-2.4-3.9-1.3-5.7-2c-1.3-0.8-2.8-1.2-4.3-1c-0.9,0.4-2-0.7-2.6,0.2c-0.2,0.3-0.4,0.3-0.8,0.3c-1.1,0-1.8-0.7-3.1-0.9
		c2-4.4-1.5-6.1,1.4-10.9c0.3-2.5-1-4.9-1-7.3c0.6-1.9,0-3.6-0.6-5.5c-0.4-0.8-1.6-1.2-1.9-2.1c-1-0.1-2.2,0.3-3.1-0.3
		c-1.3-1.8-2.7-3.5-4.3-5.1c1.9-2.2-2.1-1.8-1.3,0.5c0,1.6,2.1,2.2,1.5,3.8c-1.7-1.4-3.2-3.3-5.4-3.9C4.4,132,5,131.6,5.3,130.8z"/>
</g>
</svg>
