<?xml version="1.0" encoding="utf-8"?>
<!-- Generator: Adobe Illustrator 26.0.3, SVG Export Plug-In . SVG Version: 6.00 Build 0)  -->
<svg version="1.1" id="Isolation_Mode" xmlns="http://www.w3.org/2000/svg" xmlns:xlink="http://www.w3.org/1999/xlink" x="0px"
	 y="0px" viewBox="0 0 200 200" style="enable-background:new 0 0 200 200;" xml:space="preserve">
<style type="text/css">
	.st0{fill:#1E8346;}
</style>
<g>
	<g>
		<path class="st0" d="M70.4,189.2c0,0.1-0.1,0.1-0.1,0.2C71.2,189.8,70.6,187.8,70.4,189.2z"/>
		<path class="st0" d="M71,186c0-0.1,0-0.1,0-0.2C70.2,186.1,71,187.4,71,186z"/>
		<path class="st0" d="M70.7,188.5c0.1,0.1,0.5,0.1,0.4-0.1C71.1,188.3,70.7,188.4,70.7,188.5z"/>
		<path class="st0" d="M70.1,188.3c-0.3,0.2,0.2,0.3,0.3,0.1C70.5,188.3,70.3,188.2,70.1,188.3z"/>
		<path class="st0" d="M69.4,189.7c-0.4,0.1-0.5-0.2-0.8-0.3c-0.2-0.1-0.3,0.3-0.5,0.1c-0.2-0.1-0.2,0.3-0.1,0.3
			c0.1,0.1,0.5,0,0.4,0.1C68.5,190.4,70,190,69.4,189.7z"/>
		<path class="st0" d="M71.2,190.2c-0.2,0-0.1-0.1-0.2-0.2c-0.3-0.3-0.3,0.2-0.7,0.1c-0.8,1.2-0.4,1,0.8,1.4
			C71,191,71.5,190.4,71.2,190.2z"/>
		<path class="st0" d="M71.5,186.1c-0.3-0.4-0.2,0.2-0.1,0.4C71.5,186.4,71.5,186.2,71.5,186.1z"/>
		<path class="st0" d="M68.4,190.4c-0.1,0.1-0.2,0.3,0,0.3C68.6,190.7,68.5,190.4,68.4,190.4z"/>
		<path class="st0" d="M69.9,184.7c0-0.4-0.5-0.1-0.6-0.4c-0.1-0.6-1.1-0.8-0.9-1.5c-0.2-0.4-0.3,0.2-0.5,0.3
			c-0.3,0.3,0.3,0.7,0.5,0.9c0.1-0.1,0-0.3,0.1-0.4c0.3,0.5,0,1.2,0.8,1.5c0.2,0.5,0.6,0.3,0.5-0.2
			C69.7,184.8,69.8,184.8,69.9,184.7z"/>
		<path class="st0" d="M69.4,189.2c0,0-0.1,0-0.1,0C68.6,190.1,70.3,189.5,69.4,189.2z"/>
		<path class="st0" d="M76.4,190.3c0.5-0.5,0.1-0.9-0.4-0.2C75.8,190.7,76.1,190.8,76.4,190.3z"/>
		<path class="st0" d="M77,193.8c-0.1-0.2,0.4-0.5,0-0.5C76.7,193.3,76.7,194.5,77,193.8z"/>
		<path class="st0" d="M75.9,190.4c-0.2,0.1-0.4,0.3-0.3,0.5C75.8,191.1,76,190.6,75.9,190.4z"/>
		<path class="st0" d="M77.6,194.6c-0.3,0-0.3,0.4-0.6,0.4c-0.3,0.4,0.4,0.1,0.5,0C77.4,194.8,77.7,194.7,77.6,194.6z"/>
		<path class="st0" d="M74.3,189.6c-0.4,0-0.7,0.2-1,0.3c-0.4,0.7,1,1.1,0.7,0.2C74,190,75,189.8,74.3,189.6z"/>
		<path class="st0" d="M73.4,190.8c-0.8,0.2,0.6,0.7,0.3,0.1C73.6,190.9,73.5,190.8,73.4,190.8z"/>
		<path class="st0" d="M77.9,193.3c0-0.1-0.2-0.2-0.3-0.2C77.3,193.5,78.1,193.9,77.9,193.3z"/>
		<path class="st0" d="M72.7,190.2c0.8-0.1-0.2-0.8-0.6-0.6c-0.2,0.2-0.4,0.1-0.6,0.4c0,0.4-0.3,1,0.3,1.1c0.2,0,1.4,0.1,0.9-0.1
			c0.5-0.2,0.5-0.7-0.1-0.4C72.6,190.4,72.7,190.3,72.7,190.2z"/>
		<path class="st0" d="M74.3,189.3c0-0.2-0.1-0.3-0.3-0.2C74,189.2,74.2,189.6,74.3,189.3z"/>
		<path class="st0" d="M75.6,190.3c0-0.2-0.5-0.2-0.5,0C75.2,190.6,75.5,190.4,75.6,190.3z"/>
		<path class="st0" d="M64,188.1c0.3-0.1,0.6-0.8,0.2-0.9C64.1,187.5,63.9,187.8,64,188.1z"/>
		<path class="st0" d="M65.6,185.4c-0.6,0.3,0.1,1.4,0,0.3C65.6,185.6,65.9,185.4,65.6,185.4z"/>
		<path class="st0" d="M66.1,193.7c-0.2,0-0.5-0.3-0.6,0c-0.2,0.2-0.8,0-0.5,0.5c0.4,0.5,0.4,0,0.8,0c0.2,0.1,0.2-0.2,0.3-0.3
			C66.2,193.8,66.3,193.7,66.1,193.7z"/>
		<path class="st0" d="M65.3,187.9c0.3,0.9,0.4-0.6-0.1-0.3C65.3,187.7,65.3,187.8,65.3,187.9z"/>
		<path class="st0" d="M63.5,189.4c-0.2,0.2-0.1,0.6,0.2,0.6C63.9,189.8,63.8,189.4,63.5,189.4z"/>
		<path class="st0" d="M68.5,186.9c-0.1,0-0.1,0.1-0.2,0.1C68.4,187.7,69.2,187.5,68.5,186.9z"/>
		<path class="st0" d="M63.4,190.6c0,0-0.1,0-0.2,0.1C63.4,191.5,64,191.2,63.4,190.6z"/>
		<path class="st0" d="M61.6,192.7c-0.3,0.1-0.4-0.1-0.6,0c0,0.3-0.4,0.4-0.4,0.6c0.2,0.1,0.4-0.1,0.5-0.2
			C61.4,193.2,62.3,193,61.6,192.7z"/>
		<path class="st0" d="M65.9,188.3c0.1,0,0.1,0,0.2,0C66.3,187.4,65.3,188.1,65.9,188.3z"/>
		<path class="st0" d="M64.6,188.6c-0.1-0.1-0.1-0.2-0.3-0.2c-0.4,0.3-0.3,0.5-0.3,1c0.1-0.3,0.3-0.1,0.4,0
			C64.8,189.1,65,189,64.6,188.6z"/>
		<path class="st0" d="M69.1,188.8c-0.3,0-0.5,0.4-0.1,0.5C69.2,189.3,69.4,188.8,69.1,188.8z"/>
		<path class="st0" d="M69.4,188.8c0.1-0.2-0.2-0.4-0.3-0.3c0,0-0.1,0.1-0.1,0.1C68.7,188.8,69.3,189,69.4,188.8z"/>
		<path class="st0" d="M69.2,186.3c-0.1,0-0.1-0.1-0.3-0.1c-0.2,0.3,0,0.4,0.2,0.2C69.3,186.9,69.6,186.4,69.2,186.3z"/>
		<path class="st0" d="M68.8,187c0.4,0.6,0.5-0.4,0-0.3C68.8,186.8,68.8,186.9,68.8,187z"/>
		<path class="st0" d="M68.1,185.2c0.1,0.1,0.3,0.1,0.5,0.1c-0.1-0.6-0.6-1.8-1.3-1.7c0.4,0.2,0.5,0.8,0.7,1.2
			C67.8,185,67.9,185.1,68.1,185.2z"/>
		<path class="st0" d="M66.7,185.4c-0.1-0.1-0.3-0.2-0.4-0.2c0.2,0.2,0.1,0.5,0.3,0.8C66.8,185.9,67.1,185.5,66.7,185.4z"/>
		<path class="st0" d="M65.8,186.3c-0.4,0-0.1,0.3,0.1,0.4C66.2,186.5,66.3,186.2,65.8,186.3z"/>
		<path class="st0" d="M66.5,187.2c0,0-0.1,0.1-0.1,0.2C66.7,188.1,67,187.5,66.5,187.2z"/>
		<path class="st0" d="M67.6,186.1c-0.3,0,0.1,0.4,0,0.6C67.9,187.1,67.9,186.2,67.6,186.1z"/>
		<path class="st0" d="M80.8,192.3c-0.3,1,0.5,0.3,0.1-0.1C80.9,192.2,80.8,192.3,80.8,192.3z"/>
		<path class="st0" d="M71,139.9c0,0.2,0,0.3,0.2,0.4c0.2-1.5,0.6,0.6,0.8-0.4c-0.2-0.1-0.1-0.3-0.1-0.5c-0.1,0.1-0.3,0.1-0.4,0
			c-0.1-0.2-0.3,0.1-0.5,0.1C70.9,139.6,71,139.8,71,139.9z"/>
		<path class="st0" d="M71.3,138c-0.1,0-0.4,0.4-0.1,0.4C71.4,138.3,71.6,138,71.3,138z"/>
		<path class="st0" d="M72.1,137.1c0.1,0.1,0.1,0.3,0.1,0.4C72.5,137.6,72.4,137,72.1,137.1z"/>
		<path class="st0" d="M78.6,193.5c0-0.1,0-0.2-0.2-0.3C77.9,193.6,78.9,194.4,78.6,193.5z"/>
		<path class="st0" d="M66.9,140.2c0,0.4,0.5,0.6,0.4,1c0,0.2,0.2,0.3,0.3,0.5c0.2-0.9,0.5,1,1,0.2c-0.1-0.3,0.3-0.4,0.4-0.7
			c0,0.1,0,0.2,0.1,0.2c0.7-0.2,0.5-0.9,0.2-1.3c-0.4-0.2-0.8,0.6-1.2,0.6c-0.9,0.1,0.5-1.1-0.2-1.3c-0.2,0.1-0.2,0.5-0.3,0.6
			C67.2,140.1,66.9,139.7,66.9,140.2z"/>
		<path class="st0" d="M75.3,140c0.1-0.3,0.5-0.8,0-1c0,0.1-0.2,0.2-0.2,0.2c-0.4,0.3-0.3-0.2-0.6-0.2c-0.5,0.1,0,0.6-0.3,0.7
			c-0.2-0.1-0.2-0.5-0.5-0.5c-0.1,0.2-0.2,0.5-0.2,0.7c0.3,0.1,0.4,0,0.7,0c0.2,0.3,1,0.7,0.8,0C75.1,140,75.2,140.1,75.3,140z"/>
		<path class="st0" d="M67.9,146.9c0-0.2-0.3-1.3-0.5-0.7C67.5,146.4,67.6,146.8,67.9,146.9z"/>
		<path class="st0" d="M67.4,144.7c-0.7-0.3,0,0.4-0.2,0.6c-0.3,0.1,0,0.4,0.2,0.3c0.1-0.2,0.1-0.1,0.3-0.1c0-0.2,0.1-0.4-0.1-0.6
			c-0.1-0.1,0.2-0.6-0.1-0.6C67.5,144.5,67.6,144.7,67.4,144.7z"/>
		<path class="st0" d="M66.9,147.4c0.1,0.5,0.9,0.3,0.8-0.2C67.6,147,66.9,147.1,66.9,147.4z"/>
		<path class="st0" d="M61.2,188.2c0,0.1,0.1,0.2,0.1,0.4c-0.1,0-0.1-0.1-0.3,0c-0.3,0.9,0.4,2.1,0.7,0.5
			C61.3,189,61.7,188.1,61.2,188.2z"/>
		<path class="st0" d="M54.6,189.2c0.5,0.4,0,0.3,0,0.7c-0.1,0.7,0.8,1.1,0.7,0.2c0.2,0.3,0.4,0.1,0.6,0c0.4,0.3,0.3,1.5,0.9,1.3
			c0.3,0.2,0.8-0.1,1,0.2c0,0.5,0.5,0.1,0.7,0.3c0.1,0.1,0,0.2,0.1,0.3c0.1,0.1,0.5,0,0.5,0.2c0,1.1,0.6,0.1,0.7,0.6
			c0,0.1-0.3,0.4,0,0.3c0.7-0.1-0.4-1.6,0.4-1.4c0.5-0.1,0.6-1.4,0-1.5c-0.2,0.6-0.3,1.8-1.1,0.9c-0.5,0.9-0.5-0.2-0.4-0.7
			c0-0.4-0.3-0.7-0.2-1.2c0.2,0,0.3,0.3,0.4,0.5c0.1,0.2,0.2,0.1,0.4,0.1c0.3,0.2,0.6,0.5,0.5-0.1c0.2,0,0.6,0.1,0.8-0.1
			c-0.2-0.1-0.5-0.2-0.4-0.6c0,0.1,0.1,0.1,0.2,0.1c0-0.3,0.1-1.3-0.5-0.8c0-0.3,0.2-0.5,0.2-0.8c-0.2,0-0.4-0.1-0.7-0.1
			c-0.3-0.9-0.7,0.3-1-0.4c-0.1,0-0.3,0-0.4,0c0-0.1,0.1-0.3,0-0.4c-0.1,0-0.2,0-0.2,0.1c0-0.1,0-0.3,0-0.4c-0.3,0-0.7,0.1-1,0.3
			c-0.4,0-0.1,0.2-0.1,0.5c-0.2-0.1-0.3,0.2-0.3,0.3c0.1,0.2,0.5,0.1,0.4,0.4c-0.2,0.1-0.2,0.4-0.3,0.5c-0.2,0-0.2,0.2-0.4,0.3
			c-0.1-0.2-0.3-0.5-0.5-0.3c0,0.2,0.2,0.5,0.1,0.7c-0.3-1.1-0.3-0.8-0.9-0.1c-0.1-0.1-0.2-0.1-0.3-0.2
			C54.2,189,54.5,189.1,54.6,189.2z"/>
		<path class="st0" d="M60.9,187.7c0.1-0.1,0.2,0,0.4,0c0.2-0.2,0.1-0.5-0.3-0.4C60.7,187.3,60.4,187.9,60.9,187.7z"/>
		<path class="st0" d="M74.3,138.2c-0.2,0-0.4,0-0.6,0c-0.1,0.3-0.5,0.6-0.4,0.8c0.2,0.1,0.3-0.3,0.5-0.1
			C74.1,139.1,74.6,138.4,74.3,138.2z"/>
		<path class="st0" d="M68.7,139.7c0.9-0.8,0.5-1.4-0.7-1c-0.1,0.2-0.1,0.4,0.2,0.4C68.3,139.7,68.9,139,68.7,139.7z"/>
		<path class="st0" d="M95.8,108.2c-0.4-0.4-0.8,0.2-1.3,0.1c-0.6-0.2-1,0.5-1.2,0.9c0.2,0.5,0.7,1.8,1.3,1c0.1,0.2,0.3,0.3,0.3,0.6
			c1-0.3,1-1.4,0.3-2c0.4-0.2,0.7,0.3,1.1,0.4c0.3,0.2,1.1-0.2,0.5-0.5C96.3,108.6,95.8,109.1,95.8,108.2z"/>
		<path class="st0" d="M61.6,190.2c-0.6,0.4,0.5,0.3,0.1-0.2C61.6,190.1,61.6,190.2,61.6,190.2z"/>
		<path class="st0" d="M76.8,134.4c-0.1-0.3-0.5-0.1-0.3,0.1C76.6,134.6,76.9,134.6,76.8,134.4z"/>
		<path class="st0" d="M61.4,192.4c0.1,0.3,0.4,0.1,0.5-0.1c0,0.2,0,0.4,0.3,0.2c0.2,0.3,0.3,0.2,0.6,0.1
			C63.8,191.8,61.6,191.5,61.4,192.4z"/>
		<path class="st0" d="M69.1,145.7c0-0.1,0-0.3-0.2-0.2C68.7,145.8,69,146.3,69.1,145.7z"/>
		<path class="st0" d="M110.1,187.2c-0.2,0.1-0.1,0.3,0,0.4C110.4,187.6,110.3,187.3,110.1,187.2z"/>
		<path class="st0" d="M106.1,187.8c-0.1-0.1-0.4-0.4-0.5-0.1C105.7,188.1,106.3,188.1,106.1,187.8z"/>
		<path class="st0" d="M111.5,191.5c0.1,0.4,0.1,1.5,0.7,1.3C112.2,192.4,112,191.2,111.5,191.5z"/>
		<path class="st0" d="M105.3,188.3C105.3,188.3,105.3,188.3,105.3,188.3C104.6,188.6,105.7,189.1,105.3,188.3z"/>
		<path class="st0" d="M111.1,185.8c-0.1,0-0.2,0.1-0.3,0.2C111.2,186.8,111.6,186.3,111.1,185.8z"/>
		<path class="st0" d="M84.4,194.7c-0.1-0.5-0.7-0.5-0.1,0C83.5,195.1,85,195,84.4,194.7z"/>
		<path class="st0" d="M103.4,189.5c-0.1-0.2-0.3,0-0.5,0c0,0.6,0.2,0.2,0.6,0.3C103.6,189.6,103.5,189.6,103.4,189.5z"/>
		<path class="st0" d="M88.7,193.1c-0.6,0-0.8,0-1,0.5c0.1,0,0.2-0.2,0.3-0.2c0.2,0-0.1,0.3,0.1,0.3c0.2-0.2,0.3-0.1,0.4,0.1
			c0.1-0.1,0-0.3,0-0.4C88.5,193.4,89,193.4,88.7,193.1z"/>
		<path class="st0" d="M101.7,189.1c-0.1-0.3-0.5-0.5-0.4-0.9c-0.1,0-0.1,0.1-0.2,0.2c-0.4,1.2,0.9,0.6,0.2,1.1c0.1,0,0.3,0.1,0.3,0
			c0,0,0.1,0.1,0.2,0.1C101.8,189.4,101.7,189.3,101.7,189.1z"/>
		<path class="st0" d="M80.3,192.5c0,0.1,0,0.2,0,0.2c0.2-0.1,0.3-0.5,0.3-0.8c-0.1,0-0.4,0-0.3,0.2c0.3,0.1,0,0.2-0.1,0.2
			C80.2,192.4,80.2,192.5,80.3,192.5z"/>
		<path class="st0" d="M69.3,166.5c0,0-0.1,0-0.1,0.1C69.5,167.2,69.9,166.8,69.3,166.5z"/>
		<path class="st0" d="M69,167.2c-0.1,0-0.1,0-0.1,0.1c0.3,0,0.3,0.3,0.5,0.3C69.4,167.4,69.3,167.1,69,167.2z"/>
		<path class="st0" d="M69.7,167.5c0.5,0.1,0.2-0.5-0.1-0.2C69.6,167.4,69.6,167.5,69.7,167.5z"/>
		<path class="st0" d="M66.8,137.5c0.1-0.5-0.6-0.1-0.2,0.1C66.7,137.7,66.8,137.7,66.8,137.5z"/>
		<path class="st0" d="M81,191.3c-0.4-0.6-0.7,0.1-0.8,0.4c0,0.2,0.1,0.1,0.2,0C80.7,191.7,81.1,191.6,81,191.3z"/>
		<path class="st0" d="M63.5,30.4c0.3-0.1,0.8,0.1,0.9-0.3c0.3,0.1,0.4,0.6,0.7,0.8c-0.3,0.4,0,0.6,0.3,0.2c0.4,0.6,0.3,1.2-0.2,1.5
			c0,0.2,0.2,0.5,0.3,0.7c0.3,0,0.5,0.4,0.7,0.1c0.6,0.7,1.3,1.3,1.9,1.9c0.2,0.9,0.3,1,1.2,1c0.3,0.5-0.1,1.5,0.7,1.8
			c1.9-0.1,1.2,2.5,2.6,1.8c0.6,0.1,1.5,1,1.3,1.7c0.2,0.8,0.6,0.4,1,0.7c0.7,0.1,1.7-0.5,1.6,0.6c0.3-0.3,0.9-0.7,0.9,0
			c0.4,0,0.7,0,0.8,0.4c0.1,0,0.3-0.2,0.4-0.3c0.3,0.8,0.9,1,1.6,1.1c0.1,0.5,0.3,0.8,0.7,1.2c0.5-0.1,0.5,0.5,1.1,0.6
			c0.1,0.8,0.5,1.3,0.6,2.1c0,0.3-0.3,1.2,0.2,1.3c0.3,0,0.6-0.6,0.9-0.3c0.6,0.7,0.3,2.1,1.3,2.6c0.4,0.1,0.6,0.5,0.7,0.9
			c0.6,0.5,1,0.6,0.5,1.4c-0.3,0.5-1.1,0.1-1.1,1c-0.1,1.4,0,3,0,4.4c0.6,0.5,0.6,1.5-0.2,1.7c0.5,0.6-0.8,1-0.5,1.6
			c0.3,0.2,0.7,0.7,0.9,0.4c0.4-0.4,0.7,0.1,1.1,0.1c0.3,0,0.5,0,0.6,0.3c-0.7,1.8,1.2,2.8-1.5,3.5c-0.1,0.4,0,0.7,0.2,1
			c-0.4,1.8,1.4,3.5,2.2,5c0.1,1.2,1.5,2.1,0.8,3.4c-0.5-0.4-0.3-0.2-0.5,0.2c-0.5,0.1,0.3,1.1-0.1,1.6c-0.4,0.8,0.6,1.9-0.4,2.6
			c-0.4,0.2-0.3,0.6-0.6,0.8c-0.2,0.1-0.2,0-0.2,0.2c0.1,0.4-0.3,0.6-0.5,0.8c0.1,1.2-0.1,2.5,0.2,3.8c0.3,0.2,0.3,0.8,0.5,1.3
			c0.5,0.2,0.8,0.4,1.3,0.5c0.2,0.2,0.1,0.6,0.2,0.9c-0.1,1,0.7,1.7,0.9,2.5c-0.1,0.4,0.2,0.8,0.3,1.2c0,0.3,0.2,0.6,0.3,0.9
			c-0.3,0.4,0,0.8,0.1,1.2c-0.3,1.4,0.4,1.1,0.8,0c0.2,0.1,0.2,0.3,0.6,0.2c0.2,0.4,1,0.1,1,0.7c0,0.3,0.4,0.2,0.6,0.3
			c0.2,0.2,0.9,0.8,0.4,0.9c-0.2,0.2-0.2,0.4-0.6,0.4c-0.2,0.3,0.6,0.4,0.6,0.1c0-0.1,0-0.3,0.1-0.4c0.1,0.2,0.3,0.2,0.4,0.4
			c0.1,0.2,0,0.5,0.1,0.6c0.6,0.1,0.2-0.9,0.9-0.3c0-0.6,0.3-0.1,0.5-0.3c0.4,0,0.2,0.6,0.6,0.6c0.3,0,0.6,0.1,0.6,0.5
			c0.6-0.1,0.4,0.7,0.8,1c0.7-0.6,1.2,0.7,1.2,1.3c0.3,0,0.7,0.4,0.4,0.6c-0.1,0.2,0.3,0.4,0.3,0.6c-0.1,0-0.2,0.4-0.3,0.4
			c-0.1,0.1-0.4-0.2-0.5-0.1c0,0.3,0.3,0.5,0.3,0.7c-0.5,0,0,0.3-0.2,0.5c-0.1,0.1-0.4-0.2-0.3,0.1c0.3,0.5,0.7,0.4,0.2,0.9
			c0,0.2,0.3,0.2,0.4,0.4c-0.1,0.2,0,0.3,0,0.4c-0.6-0.2-0.1,0.7-0.4,1c-0.4,0.1-0.1,0.5-0.3,0.8c1.6,0.2,1.1,1.7,1.7,2.6
			c1,1.7-1.2-0.2-1.7-0.2c-0.5,0.8,0.4,1.5,1.1,1.7c0.3,0.2-0.3,1.5-0.6,1.3c0-0.7-0.7-1-1.3-1.2c-0.1-0.1,0-0.3-0.2-0.2
			c-0.3,0.3-1.2-0.2-1.1,0.4c-0.9,0.7-1.8-0.3-2.4,1.4c0-0.1,0-0.2,0-0.4c-1.5,0.3-0.3,1.1-0.7,1.9c-1,0.5-1.6,2.1-1.4,3.1
			c-0.2,0.9-1.1,0-0.7,0.8c-0.1,0.2-0.4-0.1-0.3,0.3c-0.2,0.4-0.9,0.5-1.1,1c0.1,0.4-0.4,0.2-0.5,0.5c-0.2,0.7-0.9,1.2-0.9,1.9
			c-0.1,0.3-0.4,0-0.6,0.3c0,1.4-1.5,0.8-0.9,1.4c0.1,0.6-0.7,0.9-0.7,1.5c-0.6-0.1-0.2,0.6,0,0.7c0,1-1.3,0.2-1.7-0.1
			c-0.3,0.6-0.2,1.2-0.2,1.8c-0.2,0.2,0.3,0.5,0.1,0.7c-0.2,0.4-0.4,0.4-0.6,0c-0.2,0.6-0.9,0.4-1.4,0.5c-0.4-0.2-0.7,0.5-0.2,0.2
			c0.3,0-0.1,0.8-0.3,0.4c-0.3-0.2-0.3,0.3-0.4,0.5c-0.2,0.1-0.1,0.2-0.1,0.4c-0.1,0-0.1-0.1-0.2,0c0.2,0.1,0.2,1,0,0.6
			c0-0.2-0.1-0.4-0.3-0.5c0.1-0.4,0-0.7,0-1c-0.2-0.1-0.5,0-0.7-0.1c-0.7,0.1,0.1,0.6,0.4,0.6c0.2,0.5-0.4,0.6-0.6,0.2
			c-0.4,0.2-0.8,0-1,0.5c-0.3,0.2-0.2-0.6-0.5,0.2c-0.2-0.2-0.3,0.1-0.2,0.3c0,0.2-0.2,0.5,0.1,0.6c0.2,0.1,0.1-0.1,0.2-0.2
			c0.3-0.2,0.5,0.2,0.5,0.5c-0.1,0.2,0.6,0.5,0.1,0.5c-0.3,0-0.3,0.5-0.6,0.3c-0.1-0.1,0-0.5-0.2-0.4c-0.1,0.3,0,0.7-0.2,1
			c-0.8-0.2-0.3,1.1-1.2,1.1c0.1,0.3,0.4,0.3,0.6,0.1c0.2,0.5-0.6,0.4-0.4,0.8c0.1,0.1,0.2,0.3,0,0.5c-0.3,0.2-0.1,0.6-0.3,0.7
			c-0.6-0.4-0.1-1.4-0.7-1.8c0,0.5-0.3,0.8-0.3,1.2c0.1,0.2,0.4,0.5,0.1,0.6c-1.8-0.3,0.3,1.6,0.6,2.2c-0.1,0.4-0.2,1.6-0.6,0.7
			c-0.3,0.2-0.3,0.5-0.6,0.8c-0.2,0-0.3,0.2-0.4,0.4c-0.3-0.1-0.5,0.1-0.7,0.2c0-0.1,0-0.3-0.1-0.4c-0.2,0.1-0.4,0.2-0.6,0.3
			c-0.1-0.1,0.1-0.2,0.1-0.3c-0.2,0-0.1-0.1-0.2-0.2c-0.1-0.1-0.2,0.2-0.3,0.2c-0.2,0,0-0.3-0.3-0.4c-0.2,0.2-0.4,0.4-0.8,0.3
			c-0.4,0-0.4,0.9-0.8,0.4c-0.4,0.7-0.9-0.4-1-0.8c-0.6,0.4,0,1.2-0.2,1.6c-0.3,0.5,0.6,1.1,0.1,1.6c0.5-0.2,1.3,1.2,0.4,0.6
			c-0.2-0.1-0.3,0-0.3-0.3c-0.4-0.2-0.4,0.3-0.7,0.3c-0.1,0.1,0.1,0.6-0.2,0.5c-0.3-0.2,0.2-1.1-0.5-1c0.1,0.2,0.2,0.9-0.2,0.6
			c-0.2,0.3,0.2,0.5,0.4,0.6c1.4-0.1-0.2,1.2,0,1.9c-0.1,0.2-0.2,0.1-0.3,0.1c-0.1,0.1,0.1,0.2,0,0.4c-0.4,0.1-0.5-0.5-1-0.2
			c0.1,0.2,0.2,0.3,0,0.5c-0.2,1.4-1.1,0.4-1.1,1.3c0.1,0.7,0.9,0.5,0.1,1.3c-0.5,0.2-0.2,0.9-0.5,1.2c-0.4,0.5,0.4,0.3,0.6,0
			c0.1,0.3,0.4,0.3,0.5,0.4c0.1,0.1-0.2,0.4-0.3,0.5c-0.1,0.2,0,0.5-0.2,0.7c-0.2,0.5,0.2,1,0.3,1.4c-0.5,0.4,0.6,2.3,0.6,1.4
			c-0.1-0.2-0.4-0.2-0.4-0.5c0-0.4,0.5,0.3,0.6,0c0.4-0.3,0.1,0.9,0.3,0.8c0.4-0.8,0.3,0.1,0.2,0.4c-0.1,0-0.2-0.1-0.3-0.1
			c-0.1,0.4,0.5,0.5,0.2,0.9c-0.1,0.2-0.1,1.1,0.1,0.4c0-0.1,0.1-0.2,0.2-0.2c0.2,0.8,0,1.2-0.3,1.9c-0.1-0.1-0.2-0.3-0.3-0.2
			c0.6,1.1-0.8,3.3,0.8,3.5c0.2,0.2,0.2,0.5,0.2,0.8c0.1,0.1,0.2,0.2,0.2,0.4c-0.2,0.5,0.9,1.4-0.1,1.1c-0.2,0.2,0.1,0.3,0.2,0.5
			c0.1,0.1,0.2,0.6,0.4,0.4c0.1,0.1,0.3,0.3,0,0.4c-0.1,0.3-0.1,0.7,0,0.9c0.3,0.2,0.3,0.6,0.6,0.7c0,0.3,0,0.5,0.3,0.7
			c0.4,0.7-1,0-1-0.3c-0.2-0.2-0.6,0-0.3,0.2c0,0.1-0.1,0.3,0,0.3c0.2-0.1,0.1,0.4,0.4,0.5c0.2,0.1,0.5,0,0.6,0.3
			c0,0.7-1.1-0.3-1.2,0.1c0.3,0.3,1.2,0.7,0.9,1.2c-0.1,0.3-1-0.4-0.7,0.2c0.6,0.3,0.1,0.9,0.6,1.1c-0.1,0.2-0.3,0.4-0.1,0.6
			c0,0.1-0.1,0.1-0.1,0.2c-0.1,0-0.2-0.1-0.2-0.1c-0.2,0.2,0.2,0.4,0,0.5c-0.3,0.2,0.4,0.3,0.4,0.5c0.3,0.2,0.2,0.6-0.1,0.4
			c-0.2-0.1-0.3-0.5-0.6-0.5c-0.5,0.2,1.1,1.1-0.3,0.9c-0.3,0.3,0.5,0.7,0.1,0.9c-0.1,0.4,0.4,0.9-0.3,0.9c0.4,0.8-0.6,0.2-0.8,0
			c0.1,1,1.1,1.6,1.1,2.7c-0.5-0.4-1.6-2.5-1-0.4c-0.1,0.4-1.1,0.2-0.6,0.7c-0.5,0.1-0.4,0-0.2,0.5c-0.4,0.2-0.3,0.4,0.2,0.4
			c0.1,1.3,1.2-0.5,0.1-0.2c-0.5-0.6,1.7-1.3,1.4-0.5c-1.1,0.1-0.5,0-0.4,0.8c0.2,0.3,0.3,0.2,0.1,0.6c0.2,0.1,0,0.5-0.2,0.5
			c0,0.2,0.2,0.2,0.1,0.4c-0.1,0.1-0.2,0.2-0.1,0.4c-0.4,0.4,1.2,1.3,0.4,1.1c0.2,0.4,0.4,1.1,1,1.1c0.2,0,0.3,0,0.3,0.2
			c0.1,0.5-0.4,0.6-0.4,0.9c0.2,0.2,0.3,0.1,0.4-0.1c0.5,0.5,0.7-0.9,0.7-1.2c0.1-0.2,0.5-0.1,0.6-0.2c0.2-0.2,0.4-0.6,0.7-0.6
			c0.1,0.5-0.3,0.8-0.2,1.2c-0.1,0.3,0,0.8-0.4,0.8c0-0.2,0.3-0.5,0-0.7c-0.6-0.1-0.9,2-0.1,1.1c0.2,0,0.2-0.1,0.3-0.3
			c0.1-0.1,0.4-0.1,0.3,0.1c0.2,0.5-0.5,0.7-0.2,1c0.2,0,0,0.2,0,0.3c-0.2,0.3,0.4,0.3,0.5,0.5c-0.6,0.5,0.7,0,0.7,0.5
			c0,0.4-0.3,0.5-0.6,0.6c0.2,0.6,0.7,0.4,0.8-0.1c0.7,0,0-0.5,0.4-0.6c-0.3-0.3-2.2-3.6-0.8-2.9c0.3-0.1,0.7,0.9,0.5,1
			c-0.1,0-0.3-0.3-0.5-0.1c-0.1,0.3,0.4,0.9,0.8,0.8c0.6-0.1-0.2-0.4,0-0.5c0.2,0,0.4,0.2,0.6,0.4c-0.1,0.1-0.2,0.3-0.1,0.4
			c0.1-0.3,0.6-0.3,0.3,0c-0.1,0.2,0.3,0.3,0.1,0.4c-0.3,0.1-0.5,0.3-0.1,0.4c0.3,0.5,0.9-0.2,1.3-0.2c0.3,0.2-0.3,0.4,0.1,0.6
			c0.1,0.2-0.3,0.1-0.4,0c-0.4,0-1.2-0.2-1.3,0.2c-0.4,0.6,0.3,0.3,0.3,0.7c-0.3,0.2,0,0.2,0,0.4c0,0,0.1,0,0.1,0
			c0.2-0.2,0.2,0.4,0.2,0.5c0.6,0.5,0.7-0.7,1.3-0.6c0.3-0.1,0.5-0.7,0.5-1c1-0.8-0.1-0.4-0.3-1c0.2-0.1,0.4-0.3,0.3-0.5
			c0,0-0.1,0-0.1,0c0.4-0.4,0.5-0.2,0.5,0.3c0.2,0.2,0.4-0.1,0.6,0c0.2,0.1,0.3-0.1,0.5-0.2c-0.1,0.5-2.1,2.6-0.5,1.9
			c0.8,0.5-0.7,0.6,0.1,0.9c-0.1,0.1-0.5,0.1-0.6,0.1c0.2-1.3-0.6,0.3-0.4,0.7c0.3,0.1,0.9-0.2,1.1,0.2c-0.3,0-0.6,0.1-0.9,0.2
			c-0.2,0.4,1,0.3,0.2,0.8c-0.6-1-1.1,0.6-0.8,1.1c0.2,0.1,0.3-0.1,0.5-0.2c0.3,0.4,0.9-0.5,1.2-0.1c0.1,0.2,0.3,0.4,0.6,0.3
			c-0.2-0.7,0.8,0.4,0.7-0.3c0-0.2,0-0.5,0.1-0.8c0.7-0.3,0.8-1.1,0.5-1.7c0.1-0.2,0.4,0,0.3,0.2c0.1,0.3,0.6,0.7,0.9,0.7
			c0.2-0.1,0.3-0.1,0.5-0.1c-0.2,0.2-0.3,0.5-0.5,0.8c0.2,0.1,0.5,0.2,0.6,0.4c-0.2,0.3-0.6-0.1-0.5,0.4c0.4,0.4,0.1,1-0.4,0.5
			c-0.3-0.1-0.3,0.3-0.6,0.3c-0.5-1.2-0.6-0.3-0.1,0.2c-0.1,0.4,1.1,1,1,0.4c-0.3-0.4,0.1-0.4,0.2-0.1c0.4,0.6,0.6-0.6,0.2-0.8
			c0.1-0.2,0.4-0.3,0.6-0.4c0.2,0,0.8-0.7,0.8-0.3c-0.4,0.4-1.1,0.5-0.9,1.3c0.2,0,0.2-0.2,0.3-0.3c-0.1,0.5,0.6,1.1-0.2,1.1
			c-0.3,0.1-0.3-0.6-0.5-0.1c0.2,0.4-0.3,0.6-0.6,0.7c-1.5,0.7,2.7,0.5,1.9-0.6c0.2-0.3,0.8-0.6,1.2-0.8c0,0.5,1.1,1,1.2,0.4
			c0-0.2,0-0.3,0.2-0.2c0.4,0.4,1.5,0,1.1-0.6c0.6,0.1,0.8-0.4,1.3-0.6c0.1,0,0.5,0.2,0.4-0.1c0.3,0,0.4-0.3,0.7-0.4
			c0.2,0.3,1,0.1,1.2,0.1c0.1-0.7,0.2-0.3,0.6-0.1c0.3-0.1,0.3-0.9,0.6-0.5c0.2,0.2-0.1,0.5,0,0.7c0.2,0,0.4,0,0.6-0.1
			c0,0.2-0.4,0.8,0.1,0.7c0.2-0.2,0.6-0.2,0.8-0.5c0-0.5,0.5-0.3,0.6-0.6c0.1-0.3,0-0.6,0-0.8c0.2-0.2,0.5,0,0.6,0.1
			c0.4,0,0.1-0.4,0-0.5c0.7-0.6,1.8,0.4,2.3-0.8c0.2,0,0.1,0.2,0.1,0.3c0.1,0.2,0.4,0.1,0.6,0.1c-0.2-0.6-0.2-0.5,0.4-0.6
			c0.5,0.1,0.4-0.9,1-0.8c0.4,0.1,0.8-0.5,1,0c0.5,0.9,1.2-0.7,1.2-1.2c0.1,0.3,0.4,0.1,0.4-0.1c0.2,0.3,1.2,2,1.4,1.2
			c0.2-0.4,0.7,0.3,0.9,0c0.1-0.4-0.5-0.8-0.2-1.2c0.7-0.5,0.3,0.6,0.5,1c0.1,0,0.3,0,0.4,0c0.2,0,0-0.4,0.3-0.5
			c0.5,0.1,0.9-1.2,0.5-0.7c-0.2,0.1-0.3-0.3-0.5-0.4v-0.7c0.3-0.1,0.5,0,0.6,0.3c0.3,0.1,0.4,0.3,0.4,0.6c0.4,0.2,0.1-0.2,0.3-0.3
			c0.8,0.2,0-0.6,0.2-0.9c0.4,0.2,0.3,1.3,0.6,1.2c0.1-0.2,0.5-0.8,0.6-0.3c0.1,0.2,0,0.2-0.2,0.2c-0.1,0.2,0.2,0.4,0.4,0.2
			c0.1,0.1,0.3,0,0.4,0.1c0.1,0.1,0.1,0.3,0.3,0.2c0.1-0.4-0.5-0.3-0.7-0.7c-0.1-0.1-0.4-0.4-0.1-0.4c0.5-0.1-0.1-0.7,0.3-1
			c0,0.5,1,0.6,0.6,1.1c-0.4-0.1-0.3,0.4,0.1,0.4c0.1-0.4,0.6-0.3,0.7-0.7c0.4,0.3,0.5-0.5,0.8-0.5c0.8-0.1,2.1-0.3,2.1-1.3
			c0.2,0.2,0.4,0.5,0.6,0.1c0.1,0.1,0.3,0.5,0.4,0.2c0-0.2,0.2-0.7,0.2-0.2c0,0.1,0,0.2,0.1,0.3c0.3-0.2,0.7,0.3,1.2,0.3
			c0.3,0.1,0.3,0.8,0.8,0.6c0.1-0.1-0.2-0.4,0-0.6c0.2-0.1,0.5,0.2,0.6,0.4c0.1,0.1,0.6,0.1,0.4-0.2c0.4-0.1,1.7,0.2,0.8-0.5
			c-0.1-0.2,0.1-0.4,0-0.6c0.1-0.5,0.4-0.3,0.5,0.1c0.3,0.3,0.6-0.1,0.4-0.4c0.3-0.5,2.5-2.5,2.6-3.1l0.4-0.1l0.7-1.1l0.3,0
			c0.2-0.2,1.2-1.3,1.3-1.6l1.1,0.1c0.3-0.8,0.4-1.6,1.1-2.3c0.1-0.8,1-0.7,1.4-1.2c1.5-1.4,3.4-3.1,3.9-5.2c1.4,0,1.9-1.6,2.5-2.6
			c0,0,1.6-1.7,1.6-1.7c0-0.8,1.4-2.3,1.9-2.8l0.3-0.1v-0.4c0.2-0.1,2.8-3.5,2.4-3.7c1-0.3,1.3-1.7,2.4-1.9c0.3-0.2,0-0.2,0.1-0.4
			c0.5-0.6,1-1.4,1.6-1.8c0.2-0.3-0.1-0.8,0.5-0.9c0.4-0.7,0.4-2.1,1.1-2.5c-0.2-2.3,2.8-3.9,0.8-6c-0.2,0-0.3-0.1-0.2-0.3
			c0-0.4-0.5-0.3-0.7-0.7c-0.1-0.4-0.6-0.5-0.8-0.8c0.2-1.6-0.8-2.9-2.3-3.3c-0.1-1.3-2-2.1-3.1-2.4c-1-0.8-2.7-3.1-3.7-4.2
			l-0.1-0.4l-0.7-0.7l2.2-1.1l0.4-1.5c0.9-1,1.9-2.5,1.9-3.9l-0.7-1.2l0.4-0.3l-0.2-0.7l-0.8-0.2l-0.2-0.2v-0.4
			c-0.4-0.4-1.4-1-1.9-1.1l-0.4-0.6l0.1-1.1l-0.3-0.4l0.1-0.5c-0.1-0.1-0.2-0.3-0.3-0.4l0-1.1c0.2-0.2,0.6-0.7,0.9-0.7l0.1-0.5
			c-0.2-0.4-0.7-1.2-0.7-1.6l0.4-0.4l-0.4-0.5l-2.3,0.1l-0.4-0.5l0-0.4c-1.2-2.3-1.1-4.2,1.5-4.9c-0.1-0.3-0.7-0.5-0.3-1
			c1.5-2.4-4.2,0-0.8-3.4L133,101l0.9-1.4c-0.3-0.3-0.9-1-1-1.3l2.1-1.2l1,0.5c-0.1-6.2-3.2-11.6-5.5-17.2l0-0.3l-0.3,0
			c0-0.1,0-0.3,0-0.4c-0.3-0.3-1.5-3.2-2.1-3.3l0.1-0.3c-2.4-3.1,2.3-7,3-9.7c0-0.3,0.4-0.1,0.4-0.3c-0.1-0.4,1.1-0.3,0.3-0.6
			c0.2-0.2,0.2-0.6,0.6-0.7c0.5-1,1.1-1.9,1.8-2.7c0,0,0.6-3.2,0.6-3.2l-2.8-2.6l-2.5-5.5l-5.1-2.5l-1.7-7.1
			c0.9-1.6,2.6-5.1,2.8-6.9c-0.6-0.4-1.9-0.5-2.5-0.4l-0.3-0.5l3.8-3c-1.2-0.7-0.7-2.8-0.7-3.8c0.8-1,3.6-4.2,3.9-5.4
			c-0.2-0.6-1.6-4.2-1.5-4.7c-0.8-0.7-7-2.6-6.1-4.1c-1.6-0.8-3.1-2.9-2.9-4.7c-0.6,0.2-1.3,0.3-1.8,0.8c-0.1-0.6-0.8-0.5-1.2-0.1
			c-0.2,0.3-0.2,0.9-0.7,1c-0.6-0.1-0.7,0.5-1.2,0.7c-0.5,0-0.4,0.4-0.3,0.8c-1.2,0.5-1.5,1.3-2.7,0.4c-0.9,0.6-0.4-0.7-1.1-0.5
			c-0.4,0-0.6,0.6-0.8,0c-0.2-0.3-1.7,0.3-1.8,0.6c0,0.2-0.1,0.5-0.3,0.6c0,1-0.6,1.5-1.4,2c-0.2,1-0.9,2.2-2,2.2
			c-0.2,0.4-0.3,0.8-0.7,1.1c0.8,0.6,0.8,2.4-0.4,2.4c0.4,0.8-0.2,2-0.3,2.9c0.2,0.1,0.1,0.3,0.2,0.4c-0.1,1.2-1,2.9-1,4.4
			c0,0.6,0.6,1.3,0.1,2c0,0.7,0.5,1.5,0.2,2.2c-0.6,0.8-0.5,3.7-2,2.1c-3.3,1.7-2.3,3.4-3.2,6.1c-0.1-0.1-0.5-0.2-0.4,0.1
			c-0.9-0.1-0.7,0.8-0.8,1.3c-0.7-0.2-0.7-1.1-0.9-1.7c-1.1-1.1-3.6-1.7-4.8-2.5v-0.8L89.8,36L89,34.9l-0.8-0.2l-0.7,0.4
			c-0.1,0.6-0.5,1.9-0.8,2.4L85,37.8l-2.1,1.4l-0.9-1.3H80l-2-1.2l-1.3,0.6l-0.2-2.4l-1.1-1.8c0.4-0.5-4.1-7.2-4.4-7.7
			c-0.3-0.1-2.2-0.7-2.6-0.8c-1.5,0.9-2.9,2.3-1.8,4.1l0.5,0.4l-0.4,1.4l-2.5-1.7L62.8,30l0.4,0.3C63.3,30.3,63.4,30.4,63.5,30.4z"
			/>
		<path class="st0" d="M112.2,186.6c-0.1-0.2,0.1-0.5,0-0.7c-0.6,0.1-0.1,0.8-0.1,1.1C112.6,187.3,112.5,186.7,112.2,186.6z"/>
		<path class="st0" d="M67.2,139.4c-0.1,0.1-0.3,0.2-0.1,0.3c0.5,0.1,1.3-2.4,0.5-1.1c0.1,0.2,0,0.3-0.2,0.3
			C67.3,139,67.4,139.3,67.2,139.4z"/>
	</g>
</g>
</svg>
