<?xml version="1.0" encoding="utf-8"?>
<!-- Generator: Adobe Illustrator 26.0.3, SVG Export Plug-In . SVG Version: 6.00 Build 0)  -->
<svg version="1.1" id="Isolation_Mode" xmlns="http://www.w3.org/2000/svg" xmlns:xlink="http://www.w3.org/1999/xlink" x="0px"
	 y="0px" viewBox="0 0 200 200" style="enable-background:new 0 0 200 200;" xml:space="preserve">
<style type="text/css">
	.st0{fill:#1E8346;}
</style>
<g>
	<g>
		<path class="st0" d="M139.6,140.8c-0.2,0.1-0.4,0.2-0.6,0.4c0.3,0,0.7,0,1,0c0-0.1-0.1-0.4-0.3-0.5
			C139.7,140.7,139.6,140.7,139.6,140.8z"/>
		<path class="st0" d="M140.5,45.1c0.8-2.3-2.1-2.1-3.5-2.3c-0.3,0.6-2,0.6-1.2,1.3C137.3,45.6,138.6,46.3,140.5,45.1z"/>
		<path class="st0" d="M137.6,138.7c0.6-2.1,1.3-4.3-0.4-6c-1.4,1.1-2.6,2.2-3.9,3.3c0.2,0.7,0.8,1.3,0.9,2.1c0.5,0.7,1,0.6,0.7,1.7
			c0.4,0.4,0.7,0.3,1-0.1C136.3,139,137.3,139.4,137.6,138.7z"/>
		<path class="st0" d="M133.6,147.2c0.7-0.1,0.4-1.6,0.3-2.1c-1.1-0.1-0.9-1.8-2.1-1.5c-0.3,0.5-0.4,1-0.3,1.5
			c0.5,0.1,0.8,1,1.4,1.2C133.1,146.6,133.1,147.4,133.6,147.2z"/>
		<path class="st0" d="M133,152.5c0,0.3-0.1,0.6-0.2,0.9C133.3,153.4,133.5,152.7,133,152.5z"/>
		<path class="st0" d="M136.8,141.1c0.1,0.4,0.2,0.3,0.3,0C137,141.1,136.9,141.1,136.8,141.1z"/>
		<path class="st0" d="M126.9,58.6c0.1,0.1,0.4,0.1,0.5,0.2c0,0.4,0.1,1.1-0.3,1.3c0.2,0.4-0.1,0.7-0.1,1.1c0.6,0.2,1.4-0.9,1.8-0.1
			c0.1,0.1,0.1,0.1,0.2,0.1c0-0.1,0.1-0.2,0.2-0.2c-0.4,1.3,0.2,1.2,1.3,1.2c0.4-1.5-1.8-0.9-0.2-2.2c-0.1-0.1-0.3-0.1-0.5-0.2
			c0.4-0.4,1-0.6,1.5-0.8c0.2,0.4,0,0.8,0.2,1.2c0,0.4-0.9,0.5-0.2,0.8c1.2,0.2,0.5,1.7,1.9,1.5c-0.1-0.9,0.8-0.2,0-1.1
			c-0.3-0.3,0.1-0.4,0.2-0.7c-0.1-0.4-0.5-0.8-0.1-1.2c0.2-0.3,0.4-0.5,0.7-0.3c0-0.3,0-0.6,0-0.9c-0.2,0.1-0.2,0.3-0.5,0.3
			c-0.2-0.5,0.1-0.6,0.5-0.6c0.4-0.1,0.5-0.7,1-0.6c-0.1-0.4-0.2-0.9-0.2-1.3c-0.3,0.5-0.7,0.5-1.1,0.1c0.3,0.9-1.4,1.3-1.7,2.2
			c-0.2-0.4-0.7-0.5-0.6-1c-0.3-0.7-1.7-0.7-2.5-0.5c-0.1-0.5-0.6-0.4-0.7-0.1c-0.4,0.3-0.8,0.2-1.3,0.3
			C127,57.7,126.8,58.2,126.9,58.6z"/>
		<path class="st0" d="M108.1,74c0.3-0.3,0.6-0.7,0.2-1.1C108,73.2,107.2,74.3,108.1,74z"/>
		<path class="st0" d="M105.9,75.7c0.4,0.7,0.7-0.4,0.8-0.7c-0.1-0.3-0.4-0.4-0.5-0.7C105.6,74.6,105.3,75.3,105.9,75.7z"/>
		<path class="st0" d="M123.7,148.3c0.4,0.4,1.4,0.8,0.9-0.2c-0.3-0.2-0.7-0.2-1-0.5c-0.3-0.2-0.8-1-1.1-0.4
			C122.8,148.4,123.8,147.1,123.7,148.3z"/>
		<path class="st0" d="M103.9,79c-1.3,0.9,1.2,0.8,0.3-1.1C103.6,78.3,104.5,78.7,103.9,79z"/>
		<path class="st0" d="M122,112.4c-0.4-0.3-0.8-0.3-0.8-0.9c-2.4,0.1-2.7,2.9-0.2,3.3c0.7,1.4,1.8,2.2,2.8,3.2
			c0.3,0.5,0.4,1.2,0.9,1.5c0.1-0.7,0.9-1.4,1.1-2.1c-0.3-0.1-0.7,0-1-0.1c0.1-0.6,0.4-1.2-0.2-1.7c-0.3-0.5,0.4-1.1,0.2-1.7
			C123.5,113.9,121.9,114.1,122,112.4z"/>
		<path class="st0" d="M136.9,96.9c0.1-0.1,0.1-0.3,0-0.5c-0.1,0.1-0.4,0.2-0.4,0.4C136.6,96.9,136.8,97,136.9,96.9z"/>
		<path class="st0" d="M133.9,155.2c1.6,0.8,3.3-0.9,1.7-2.2c-0.5-0.4-1-1.5-1.6-1.1c-0.2,0.3,0.5,0.7,0.7,0.6
			c0.3,0.1-0.1,0.5,0.1,0.7c0.7,1,0,2-1.1,1.7C133.6,155,133.7,155.1,133.9,155.2z"/>
		<path class="st0" d="M138.7,96.7c0.1-1-0.1-2.1-1.4-1.5C137.7,96,137.6,97.1,138.7,96.7z"/>
		<path class="st0" d="M135.8,142c0-0.1-0.1-0.3-0.2-0.4c-0.2,0.4-0.8,0.5-0.8,1c0.3,0,0.7,0,1,0C135.8,142.3,135.9,142.1,135.8,142
			z"/>
		<path class="st0" d="M126,68.9c-0.6,0.5-1,1.9-0.4,2.4c0.4-0.5,1.3-1.2,1.3-1.7C126.5,69.3,126.3,69.2,126,68.9z"/>
		<path class="st0" d="M135,125.5c-0.8-0.1-0.9-1.4-1.3,0c-0.9-1.5-1.3-0.5-0.9,0.7c-1.2,0.3,0.8,1,1.3,0.7
			C134.4,126.6,136.5,125.4,135,125.5z"/>
		<path class="st0" d="M127.6,147.5c0.9-0.4,1.4-1.2,2-1.9c-1.1-0.1-1.9,0.4-2.3,1.4C127.3,147.1,127.5,147.5,127.6,147.5z"/>
		<path class="st0" d="M131.3,137.4c1-1.7-0.8-0.3,0.5-2.9c-0.3,0.1-1.1,0.7-1.2,0.1c0-0.1,0-0.4-0.2-0.3c-0.6,0.1-1.2,0.4-1.5,0.9
			c-0.1,0.5-0.1,1-0.8,1.1c-0.4,1.4,0.3,1.5,1.3,2.1C130.1,138.6,130.8,137.8,131.3,137.4z"/>
		<path class="st0" d="M130.4,178.5c-0.4,0.4,0,0.8,0.4,0.6C130.9,178.9,130.7,178.7,130.4,178.5z"/>
		<path class="st0" d="M127.4,137.8c0-0.2,0.3-0.6,0-0.8c-1.2,0.7-1.4,1.6-0.2,2.4C127.2,138.8,127.2,138.3,127.4,137.8z"/>
		<path class="st0" d="M125.8,139c-0.2,0-0.4,0-0.1,0.2C126,139.2,126.4,139,125.8,139z"/>
		<path class="st0" d="M127.4,122.2c0.3,0.3,0.5,0.6,0.9,0.5c-0.1,1,1.3,1.4,2.2,1.1c1.1-1,0.9-2.4-0.6-2.8
			c-0.3-0.1-0.8,0.2-1.1,0.1c-0.4-0.7-1.2-0.4-1.9-0.5c-0.1-0.8-0.8-0.6-1.4-0.4C125.7,121.3,126.7,121.5,127.4,122.2z"/>
		<path class="st0" d="M114.2,87.6c1.2-0.1,0.2,0.8,1.1,0.5c0,0.5-0.6,1-0.3,1.5c0-1.4,2.2-1.8,1.7-0.1c-0.1,0.3-0.4,0.2-0.6,0.3
			c-0.1,0.3,0.3,0.8,0.5,1c0.3-1,0.5-1,1.1-0.2c1.7,0.4,1.5-1.5,0.4-2.1c-0.2-0.3-0.5-0.2-0.7-0.2c-0.6-0.5-0.2-1.4-0.5-2
			c-0.7-0.4-1.4-1-2.1-1.2c-0.2,0.4-0.8,0.7-0.3,1.2C114.7,86.6,113.9,87.1,114.2,87.6z"/>
		<path class="st0" d="M40,93.8c-0.4,0-0.6,0.1-1,0.2c-0.3,0.4-0.7,1-0.6,1.5c0.3-0.2,0.4-0.5,0.6-0.7C39.5,94.6,39.8,94.5,40,93.8z
			"/>
		<path class="st0" d="M40.3,118.5c-1-0.5-1.2-1.5-1.8-2.3c-0.7-0.3-1.4-0.7-2.2-0.9c-1.4,0.2-0.9-1.8-1.9-2.1
			c-2.1,2.1-1.1,2.5,0.1,4.4c0.3,1,1.3,1.3,2,1.9c0.4,0.5,0.8,1.2,1.5,0.8c-0.8-1.1,0.4-2.2,1.6-1.9c0.3,0.2,0.8,0.6,1.1,0.5
			C40.5,118.8,40.4,118.6,40.3,118.5z"/>
		<path class="st0" d="M34.1,98.4c0.3-0.4-0.2-0.3-0.3-0.6c-0.1,0.3-0.5,0.5-0.7,0.7c0.2,1,0.7,1.9,1.1,2.8c0.3-0.6,0.4-1.4,0.6-2.1
			C34.2,99.2,33.8,99,34.1,98.4z"/>
		<path class="st0" d="M39.2,95.6c-0.3,0.2-0.5,0.6-0.2,0.8c0.1,0,0.2-0.2,0.2-0.2c0-0.4,0.5-0.6,0.5-1.1
			C39.6,95.4,39.4,95.5,39.2,95.6z"/>
		<path class="st0" d="M84.7,157.2c-0.5-0.6-1.4-0.9-1.9-1.6c-0.2-0.6-0.2-1.7-1.1-1.1c0,0.5-0.5,0.9-0.6,1.4c0,0.2,0.4,0.5,0.6,0.6
			c0.4,0.6,0.4,1.7-0.6,1.7c0.5,1,0.9,2,1.9,2.5c0.4,0.2,0.7-0.2,1-0.1c0.1,0.1,0.3,0.2,0.5,0.3c0-0.8-0.3-1.7,0.3-2.4
			C86.2,158.8,85.3,157.7,84.7,157.2z"/>
		<path class="st0" d="M57.5,144.7c-0.1,0-0.2-0.1-0.4,0C56.6,146.5,58.1,145.2,57.5,144.7z"/>
		<path class="st0" d="M33.7,108.5c0.8,0.8,1.8,1.2,2.8,1.2c0.2-0.4,0.3-1,0.6-1.4c-1.2-1.2-2.1-2.9-3-4.3c-0.6,1.6-1.5,0.1-1.6-0.8
			c0.3-0.4,0.8-0.6,0.4-1.2c-0.3-0.4-0.1-0.9-0.3-1.3c-0.2-0.2-0.5-0.3-0.5-0.6c0-0.6-0.2-1.2-0.8-1.4C31,99.2,32,101,31.2,101
			c0.2,0.8,0.1,1.3-0.6,1.8c-0.6,0.5-1.2-0.6-1.8-0.8c-0.2,0.6-0.8,1-0.8,1.6c0.4,0.5-0.1,0.8-0.6,0.9c0.3,0.7-0.4,1.5,0.1,2.1
			c0.3,0.1,0.4,0.3,0.5,0.5c0.4,0.2,1.3-0.2,1.2-0.7c0.3-0.8-0.9-2.2,0-2.6c0.6-0.1,0.4,1.6,0.9,2c0.3,0.3,0.9,1.2,0.1,0.8
			c-0.1,0.7,0.4,1.2,0.6,1.9c0.2,0.4,0.8,0.2,1.1,0.3C32.4,108.3,33,107.8,33.7,108.5z"/>
		<path class="st0" d="M36.4,93.8c0.3,0,0.4-0.1,0.4-0.4c-0.1-0.3-0.7,0-0.9-0.1c0,0.3-0.2,0.6-0.3,0.8C35.8,94,36.1,93.9,36.4,93.8
			z"/>
		<path class="st0" d="M82.9,151.7c0.3-0.1,0.3-0.6,0.1-0.8c-0.2,0.2-0.4,0.2-0.6,0.3c0,0.4-0.3,0.7-0.4,1
			C82.3,152.2,82.6,151.9,82.9,151.7z"/>
		<path class="st0" d="M23.6,78.6c-0.3-0.3-0.5-0.5-0.9-0.7c-0.2,0.7,0.5,1.1,1,1.4C24.2,79.2,23.9,78.8,23.6,78.6z"/>
		<path class="st0" d="M35.4,101.7c0-0.3,0-0.5-0.1-0.9c-0.4,0.2-0.8,0.5-1.1,0.7c0.4,0.3,0.2,1,0.6,1.3c0.3,0.1,0.8,0.2,1.1,0
			C35.9,102.3,35.3,102.2,35.4,101.7z"/>
		<path class="st0" d="M35,89.8c0-0.9-0.6-1.2-1.5-0.9c-1.5,2-2.1,4.4-2.1,6.9c0.6-0.4,0.5-1.3,1.3-1.5c0.1,0.2,0,0.5,0.1,0.8
			c0.9,0.2,1.5-0.1,1.8-1c0.2,0,0.6,0.1,0.4-0.2C34.5,92.6,35.4,91.2,35,89.8z"/>
		<path class="st0" d="M97.3,80.9c0.3,0.2,0.3,0.5,0.5,0.8c0.4-0.1,0.7,0.1,1,0.4c1.1,0.2,2.2-2.2,0.3-1.2c-0.2-0.4-0.3-0.9-0.9-0.9
			c-0.7-0.4-1.2-1.1-1.9-1.5C95.8,79.3,96.9,80.2,97.3,80.9z"/>
		<path class="st0" d="M105.8,102.2c-0.1,0.1-0.2,0.3-0.4,0.4c0.4,0,0.8,0,1.2,0c0.2,0.2,0.4,0.5,0.5,0.8c0,0.3-0.4,0.5-0.1,0.8
			c0.1,0.2,0.1,0.2,0.3,0.1c0.3-0.1,0.3-0.9,0.7-0.3c0.2,0.5-0.6,0.8-0.7,1.3c1.4-0.5,2.6,1.3,1.5,2.3c0.6,0.1-0.1,1.2,0.6,1.2
			c0.9-0.1,1.8,0.2,2.1,1.1c0.3,0.3,0.2,0.5-0.2,0.6c0.5,0.6,0.8,1.4,1.5,1.8c0.1-0.3,0.1-0.9,0.3-1.2c0.4-0.2,1.1,0,1.4,0.3
			c0.3,0.4,0.7,1.6,1.3,0.9c1.4-0.8,1.6-2.4,1.2-3.8c-0.1-0.4,0.5-1,0.3-1.4c-1.1,0.7-2.8,0.5-3.9,0.1c-0.3-0.4-0.7,0-1,0.2
			c-0.2-0.4-0.4-0.7-0.5-1.1c-1.4,0.5-2.2-1.7-1.5-2.7c-0.4-0.5-1.1-0.9-1.2-1.6c0.1-0.7,0-1.2-0.6-1.7c0.1-0.1,0.3-0.1,0.4-0.1
			c-0.9-1-0.3-2.4,0.7-3.1c-1-0.7-3.7-2.2-1.7-3.4c-0.8-0.6-2.1-1.2-3.1-0.7c-1,0.9-2.7,0.2-3.8-0.3c-1-0.4-1.8-1-2.2-1.9
			c-0.1-0.1-0.1-0.1-0.3-0.1c-0.8,0.1-1.6,0.1-2.4-0.1c0.3-0.8-0.6-0.8-1.1-1c-0.3,0-0.5-0.2-0.5-0.4c-0.2-0.2-0.5-0.2-0.8-0.3
			c-0.6-0.5-0.9-1.5-1.1-2.2c0-0.7,0.1-1.5-0.9-1.4c-0.1-1.9-0.2-0.7-1.2-1.8c-0.2-0.9-1.7-0.3-2.2,0.2c-0.4,0.6-1.5,0-2.1,0.4
			c-0.3,0.4-0.8,0.6-0.8,1.1c0,0.2,0,0.7-0.3,0.7c-0.9-0.5-0.8,0.4-1.5,0.8c-1.2,0.7-3.5,0.3-3.6,2c0.9-0.1,1.9-0.1,2.8-0.1
			c0.5-0.4,0.7-1-0.2-1c-0.3-0.2-0.1-0.5,0.3-0.4c2.3,0.3,0.6,0.3,1.9,1.2c0.5,0.3,0.9,0.3,1.4-0.1c0.5-0.1,0.9,0.2,1.3,0.5
			c1,0.2,1.4,1.6,2.4,1.7c0.4-0.2,0.6,0,0.7,0.3c0.4,1.1,1.4,1.5,2.2,2.1c0.5,0.9,1.6,1.2,1.6,2.3c0.5,0.4,1.3,0.3,1.9,0.6
			c0.7,0.7,0.7,1.7,0.6,2.6c-0.2,0.4-0.7,0.6-0.2,1.1c0.3,0.4,0.5,1.1,1.2,0.9c0.2-0.1,0.3-0.2,0.5-0.1c0.7,0.1,1.8,0.9,2.4,0.3
			c0.9-0.3,1.8,0.4,2.6,0.3c0.9,0,2.7-1.2,2.4,0.5C105.7,101.6,106.1,101.9,105.8,102.2z"/>
		<path class="st0" d="M90.3,167.5c-0.1-0.3-0.4-0.1-0.6-0.2c-0.2-0.1-0.2-0.4-0.4-0.4C89.1,168.3,91.1,170,90.3,167.5z"/>
		<path class="st0" d="M92.4,80.2c0.3-0.1,0.5,0.3,0.8,0.4c0.1-1.1,2-1.5,0-2c-0.1,0.2-0.1,0.5-0.3,0.7c-0.4,0.4-1.2,0.3-1.1,1.1
			C92,80.2,92.2,80.2,92.4,80.2z"/>
		<path class="st0" d="M107.3,194.1c-2.1-1.1-2.2,1-0.1,1.3C107.2,194.9,107.1,194.5,107.3,194.1z"/>
		<path class="st0" d="M102.1,78.3c-0.3,0.3-0.1,0.8-0.3,1.2c-0.2,0.3-1,0.4-0.4,0.9c1.4-0.6,2.1-2.2,2.5-3.6
			c-0.3,0-0.4,0.1-0.5-0.4c0,0.4-0.6,0.6-0.7,1C102.9,78,102.5,78.1,102.1,78.3z"/>
		<path class="st0" d="M152.7,183.6c0.2,0,0.7-0.7,0.8-0.9c-1-0.2-1.7,0.8-2.1,1.5c-1.2,1.4-3.1,0-4.4,0.7c-0.7,0.4-1.1,1-1.9,0.9
			c-1.1,0-1.4,1.3-2.2,1.7c-3.8-0.1,0.3-5.2-1.6-4.3c0-0.6,0.6-0.5,0.7-1c0.2-0.6-0.9-0.3-1.2-0.4c-1.6-0.4-3.1,0.3-4.6,0.8
			c-0.1,0.6-1.5-0.3-1.9-0.5c-1.7-1.2-4.6-0.1-6.7-0.7c-0.4-0.1-0.4-0.4-0.5-0.7c-0.7-1.6-3-0.6-4.3-1c-1.5,0-3.1-1-4.6,0
			c-1.6,1.3-3.6,1.2-5.5,1.4c-3.5,0.7-2-0.7-2.9-2.9c-0.4,0.3-1.3,0.7-1.6,0.2c-0.3-0.3-0.8-0.2-1.2-0.3c-1.2-0.6-0.6-0.9,0.4-0.6
			c2.5,0.3,1.6-3.2-0.6-2.5c-0.6,0.6-0.6,1.7-1.5,2c-1.6,0.3-3.3-0.2-4.9-0.7c-1-0.7,0.2-3.1-1.2-4c-1.5,1.2-0.1,2.9-0.4,4.5
			c-0.3,0.7-2,0.6-2.3-0.1c-0.2-0.4,0.1-1-0.3-1.4c-0.4,0.6-1,1.2-0.6,1.9c0.2,0.6-0.2,1-0.1,1.6c-0.2,1.1-0.6,2.2-0.8,3.3
			c-0.2,0.3-0.4,0.4-0.2,0.8c0.2,0.4,0.7,0.3,1,0.6c0.3,0.2-0.1,0.6,0.2,0.8c0.7,0.3,1.7,0.1,2.5,0.3c0.5-0.1,0.8-0.7,1.3-0.2
			c0.4,0.3,0.6,0,0.9-0.2c0.8-0.1,1.8-0.1,2.5,0.4c0.4,0.2,0.9,0.1,1.3,0c0.6,0.3,1,1,1.8,0.9c0.4,0.1,0.8-0.2,1.2-0.2
			c0.4,0.2,0.8,0.4,1.3,0.2c0.1,0,0.3-0.2,0.5-0.1c1.2,0.7,2.7-0.1,4,0.3c0.4,0.1,0.7,0.4,1,0.7c0.5,0.5,1,0.1,1.6,0.4
			c0.7,2.4,4.4-0.1,4.8,2.2c0.2,0.4,0.5,1,0.1,1.4c-0.2,0.7-0.1,1.5-0.2,2.3c0.8-0.2,1.7-0.1,2.4-0.5c0.9-0.1,1.8,0.6,2.7,0.4
			c1.7-0.7,3.5-0.6,5.3-0.8c0.7,0,0.9-0.9,1.6-0.9c1.2-0.1,2.2-0.3,3.4,0c2.2-0.3,4.5-1.1,6.7-0.3c1.5-0.3,3.3-1.7,4.8-0.7
			c0.5,0.6,1.5-0.4,1.7,0.5c1.7,0.2,3.5-1.1,4.1-2.8c0.1-0.8-0.1-1.6,0.6-2.2c-0.2,0-0.4-0.1-0.6-0.1
			C152.7,184.9,152.8,184.2,152.7,183.6z"/>
		<path class="st0" d="M95.3,128.4c0.1,0,0.2-0.1,0.2-0.2c-1.4-0.2-2.8,0.6-3.8,1.4c-0.8,0.6,0.5,0.7,0.8,0.3
			c0.3-0.5,0.9-0.3,1.3-0.4C94.3,129.1,94.6,128.6,95.3,128.4z"/>
		<path class="st0" d="M90,128.9c0.2,0.7,0.5,0.5,1,0.2C90.7,128.9,90.3,128.9,90,128.9z"/>
		<path class="st0" d="M93.7,123.5c-1.3,0.8-1.1,0.8,0.3,1C94.1,124.2,93.8,123.9,93.7,123.5z"/>
		<path class="st0" d="M93.5,113.3c-0.4,0.1-0.9,0-1.3,0c0,0.3-0.1,0.6,0,0.9c0.4-0.1,0.6,0.3,1,0.3c0.3-0.3,0.7-0.6,1.1-0.8
			c0.9-0.5,0.1-1.2,0.4-1.8c0-0.4-0.7-0.3-1-0.5c-0.2,0-0.1,0.3-0.1,0.5c-0.2,0.1-0.8-0.2-1,0.1c0.3,0.2,0.6,0.2,0.1,0.5
			C93.7,111.8,94.6,112.4,93.5,113.3z"/>
		<path class="st0" d="M94.4,119.6c0-0.8,1-1.2,0.8-2c-0.7-0.1-2.2-0.3-2.7,0.3c0.2,0.4,0.5,0.6,0.8,0.9
			C92.8,119.7,93.7,120.7,94.4,119.6z"/>
		<path class="st0" d="M167.5,179.4c-0.5,0.4-1.1-0.1-1.5,0.3c0,0.6-1.4,1.2-0.5,1.7c0.9,0.4,1.2-0.9,1.9-1.2
			c0.4-0.3,0.9-0.4,1.2-0.8C168.4,178.9,167.7,179.3,167.5,179.4z"/>
		<path class="st0" d="M185,149.1c1-0.1-0.5,0.8,1.1,0.6c0.3,0.1-0.2,0.5,0.1,0.6c0.9-0.3,0.7-1.7,0.5-2.5c-0.4-0.1-0.9,0.4-1.1-0.1
			C185.1,147.8,183.9,149,185,149.1z"/>
		<path class="st0" d="M171.8,149.6c1.1,0.4,1-0.8,0.5-1.5c-0.2-0.2-0.4,0-0.5,0.1c-0.3,0.1-0.6-0.1-0.9,0.2
			C170.6,149.1,171.1,149.5,171.8,149.6z"/>
		<path class="st0" d="M183.3,157.6c0.6-0.3,0-0.9-0.4-0.5C182.7,157.5,183,157.7,183.3,157.6z"/>
		<path class="st0" d="M172.6,176.8c0.7-1.6-1.1-1.5-1-2.9c0.2-1.2,2-2,1.1-3.5c0-0.4,0.3-0.3,0.5-0.6c0.2-0.8-0.1-1.6,0-2.4
			c-0.9,0.1-0.9,1.1-0.2,1.6c-0.8,0.5-1.5,1.5-1.3,2.6c-0.1,0.7-1,0.7-0.8,1.5c-0.1,0.8-1,0.8-1.2,1.6c-0.3,0.9,1.2,1,0.8,1.9
			c0,0.4,0.3,0.7,0.3,1.1c0,0.5-0.9,0.8-0.3,1.3c0.4,0.4,0.8,0.2,0.9,0.9c1.2,0.1,0-0.9,0.5-1.3c0.4-0.4,1-0.7,1.5-0.6
			C173.8,177.2,172.7,177.4,172.6,176.8z"/>
		<path class="st0" d="M179.8,158.8c0.5-0.2,1.3,0.1,1.8-0.2c-0.8-0.9-0.8-0.8-2-0.6C178.8,158.4,179.1,159.3,179.8,158.8z"/>
		<path class="st0" d="M161.6,155.2c-0.1-0.1-0.2-0.2-0.3-0.3c-0.1,0.1-0.1,0.1-0.1,0.2c0.1,0.2,0.1,0.5,0.4,0.7
			C161.6,155.6,161.9,155.4,161.6,155.2z"/>
		<path class="st0" d="M163.7,130.5c0-0.3,0.1-0.6,0-0.8c-0.5,0-0.9-0.2-1.4-0.1c0,0.6,0.7,0.2,1,0.3
			C163.4,130.1,163.4,130.5,163.7,130.5z"/>
		<path class="st0" d="M162.4,127.7c0.7,0.5,0.2-0.4-0.2-0.5C162.3,127.4,162.2,127.6,162.4,127.7z"/>
		<path class="st0" d="M165.7,135.2c0.3-0.6,0.1-0.6-0.3-1c0.1-0.1,0.2-0.2,0.1-0.3c-1,0-0.2-0.4-0.3-0.9c-1.2-0.5-2.7,0.6-0.8,1
			c0.3,0.1-0.1,0.2-0.1,0.4c-0.3,0.6,0.3,0.5,0.7,0.4c-0.3,0.3,0.1,0.4,0.4,0.5C165.4,135.3,165.6,135.4,165.7,135.2z"/>
		<path class="st0" d="M167.3,125.9c0,0.1,0.1,0.1,0.1,0.2c0.3-0.1,0.5-0.4,0.7-0.6c0-0.2-0.4,0-0.5-0.1c-0.2,0-0.4-0.2-0.6,0
			C167.1,125.6,167.3,125.7,167.3,125.9z"/>
		<path class="st0" d="M166.4,136c-1-0.3-0.3,0.5,0.1,0.8c0.6,0,0.7,0.3,1,0.7c-0.2,0-0.4,0-0.5,0c0.1,1.3-1.4,2.6,1,2.6
			c-0.2-1,0.8-0.6,1.4-0.7c-0.4-1.2,0.3-1.4-1.1-1.9C168.2,136.4,167,136.4,166.4,136z"/>
		<path class="st0" d="M183.3,161c1.6,0.9,1,3,0.4,4.4c0.5,4.5,3.9-0.7,5-2c0.6-1.2,2.8,0.1,2.7-0.9c-0.4-0.8-0.3-1.3-0.1-2.1
			c-0.2-0.7,0.4-0.7,0.9-0.9c0.8-0.9,0.7-2.4,1.4-3.4c1-0.8,1-2,0.9-3.1c-2.4-0.6-5,1.9-7.4,2.7c-0.8,0.6-1.1,1.7-2,2.3
			c-0.4,1.2-1.1,2.1-2.3,2.6C182.9,160.7,183.1,160.8,183.3,161z"/>
		<path class="st0" d="M86.8,131c-0.4-0.5-0.6-0.1-1-0.1c0,0.5,0.7,1.1,1.1,0.6C87,131.3,87.1,131.1,86.8,131z"/>
		<path class="st0" d="M175.3,152c-0.2,0.5-0.4,0-0.7-0.1c-0.1,0.3-0.6,1.4,0,1.4c1.2-0.2,2.3,2.2,3.1,0.4c-1.4,0.2-1.1-1.3-2.1-1.9
			C175.6,151.8,175.4,151.9,175.3,152z"/>
		<path class="st0" d="M12.4,63.7c0.2,0.2,0.1,0.5,0.1,0.7c0.4,0.4,0.6,0.8,0.8,1.2c0.6,0,0.7,0.6,1,1.1c0.6,0.9,1.9,1.2,2.2,2.5
			c0.2,1-0.1,2.7,1.3,2.7c0.4,0.9,2,0.9,2.8,1.6c2.7,1.4,1.3,0.1,0.9-1.7c-0.5,0-1.3,0.6-1.7,0c-0.7-0.5-1.6-0.6-1.7-1.7
			c-0.2-0.9-0.4-1.9-0.3-2.7c0.4,0,0.3-0.2,0.3-0.6c-1.3-0.5-1.3-0.4-1.5-1.7c0-1,2.7-1,2.1-2.4c-0.5-0.4-1.1-0.5-1.4-1
			c-0.5-0.2-1.1,0.4-1.6,0.6C14.7,62,11.7,62.4,12.4,63.7z"/>
		<path class="st0" d="M6.7,61c0.2,0.3,0.7-0.4,0.9-0.5c-0.3-0.1-0.5,0-0.9-0.1C6.7,60.6,6.7,60.8,6.7,61z"/>
		<path class="st0" d="M91.1,119.1c-0.2,0-0.3,0-0.5,0c0,0.2-0.2,0.3-0.3,0.4c0,0.2,0.2,0.4,0.4,0.5C91,119.9,91.6,119.3,91.1,119.1
			z"/>
		<path class="st0" d="M168.9,143.2c-0.6,1-1.5,0.9-2.5,1.1c0,1,0.1,2.1,1.2,2.4c0-0.1,0-0.6-0.1-0.7c0.3-0.4,0.4-0.7,0.2-1.1
			c0.7-0.9,2-0.4,3-0.5c1.2-1.8,3.3-1.7,5.1-2.4c0-0.4-0.2-0.7-0.4-1c-0.5,0.5-1-0.5-1.5-0.6C172.4,141.3,169.7,141,168.9,143.2z"/>
		<path class="st0" d="M102.4,47.6c0,0.2,0.4,0.2,0.5,0.2c0.1-0.1,0.1-0.3,0.1-0.4C102.9,47.6,102.5,47.4,102.4,47.6z"/>
		<path class="st0" d="M124.7,126.6c-0.2-0.6,0.3-2.3-1-1.8c0,0.8,0.2,1.5-0.6,1.9C122.5,128.5,126.2,127.9,124.7,126.6z"/>
		<path class="st0" d="M159.9,117.7c-0.9,0.3-0.8,1.5-0.3,2.2c4.6-2.8,2.5,1.8,6,0.9c0.1-0.3,0.4-0.8,0.7-1c0.6-0.1,1-0.3,1.5-0.7
			c0.4-0.2,1.9,0.3,1.8-0.4c-0.8,0.1-0.8-0.7-0.6-1.3c-0.6,0-1.1-0.3-1.7-0.3c0.6,0.8,0.3,1.3-0.5,0.5c-1,0-1.5-1-2.4-1
			c-0.8,0.1-1.6-0.2-2.3,0.1C161.3,116.9,160.8,117.6,159.9,117.7z"/>
		<path class="st0" d="M20.9,65.6c0.6-0.3,0.7,0.8,1.5,0.7c0.1,0.1,0.1,0.4,0.3,0.4c0.9-0.1,1.8,0.9,0.5,1.2
			c0.8,0.5,0.1,1.2-0.3,1.8c0.8-0.2,4,0.6,1.8,1.1c-0.6,0.3,1.3,0.8,1.1,1.3c-0.3,0-0.8,0-1.1,0.1c0.4,0.9,1.6,1.4,1.2,2.5
			c0.6,1.8,2.5,1.7,4.1,1.7c-0.3,2.1,0.4,1.9,1.8,3.1c0.8,2,3.9,2.5,3.1,5.1c0.2,0.3,0.4,0.9,0.8,1c0.3-0.5,0-1,0.9-0.7
			c0.3,0.1,0.7,0.7,0.9,0.1c-1.2-0.6-2.4-1.2-1-2.4c-0.5-1,0.3-1,0.9-1.5c0.1,0.3,0.2,0.6,0.4,0.8c0.5-0.1,0.4,0.4,0.4,0.7
			c0.5-0.9,1.6-0.5,1.9,0.3c0.7,0.2,2,1.3,2.2,0.1c0.2-0.3,0.3,0,0.4,0.2c0.2-0.2,0.4-0.6,0.6-0.3c0.1,0.1,0.1,0.1,0.2,0.1
			c0.8,0.5,0.9,2,0.8,2.9c-0.3,0.7,1.3,1.4,0.2,1.8c-0.6-0.6-1.3-2.1-1.3-0.3c-0.3,0.7-1,0.2-1.4-0.1c-0.5-0.2,0-0.7-0.3-1.1
			c-0.4,0.3-0.8-0.1-0.8-0.5c-0.9,0.3-1.7,0.9-2.5,0.2c-0.3,0.3-0.6,0.7-1.2,0.5c-0.5,0.2-0.5-0.5-0.8-0.9c-1,0.9,0.4,1.5,0.5,2.5
			c-1.2-0.5-1.1,1-1.3,1.7c0.2,0.3,0.5,0.6,0.8,0.8c0.9,0.4,1.1-1,1.9-0.9c0.5,0,0.5,0.4,0.5,0.8c0.3,0.5,0.3,1,0.3,1.6
			c0.4,0.9,1.4,0.7,1.9,1.3c0,0.6,0.4,1,0.7,1.5c-0.2,0.9,0,1.9,0.2,2.8c0.4-0.2,0.8-0.6,1.2-0.8c-0.1,0.4,0.1,1.1-0.2,1.4
			c0.7,0.7,1.6,2.4,0.6,3c-0.2,0.3,0.5,1.7,0.9,1.6c1.4,0.3,1.8-0.5,2.5-1.5c0.4-0.2,0.9-0.2,1.3-0.5c0-0.7,0.2-1.6-0.3-2.1v-0.8
			c0.6,0.4,1,0.9,1,1.6c0.2,0.8,1.3,1,1.2,2c0.8-0.7,2,1.1,0.9,1.4c0.4,0.5,0.7,0,1.2,0c0.9,0,1.3-1,2.1-1.2c1,0.4,2.1,0.1,3,0.6
			c0.8-0.1,0.8-1.8,1.8-1.4c0.1,0.3,0.4,0.4,0.7,0.4c0.6,0.2,0.7-0.7,1.2-0.7c0.6-0.1,1.2,0,1.6,0.4c0.5-0.2,1.3-0.2,1.5,0.4
			c0.8,0,1.5,0.9,2.3,1.2c0.6-0.9,1.1-0.9,1.9-0.3c0.4-0.2,0.8-0.1,1.3-0.2c0.3-0.2,0.6,0,0.8,0.3c0.6-0.5-0.1-1,0-1.5
			c0.2-0.3,0.6-0.5,0.6-0.9c0.1-0.2,0-0.4,0.3-0.4c0.9,0.2,1.3,1.1,1.9,1.8c0.6,0.5,0.5,0.7,0.4,1.3c0.2,0.5,0.6,1.2,1.3,1.1
			c0.1-0.3,0.3-0.6,0.3-0.8c-0.1-0.2-0.3-0.2-0.2-0.4c0.2-0.4,0.5-1,1-0.7c-0.5-1,0.8-1,1.1-0.2c0.2,0.4-0.1,1,0.3,1.3
			c0.6,0.5,1.5,0.5,2.1,0.9c0.1,0.3-0.4,0.6-0.4,0.9c0.6,0.8,1.7,0.7,2.6,0.4c0.1,0.4,0,0.8,0,1.2c0.4,0.1,0.9,0,1.3,0.1
			c-1.9-1.2,1-0.9,1.6-0.4c0,0.2-0.1,0.4-0.2,0.5c0.7,0.5,1.1-0.2,1.7-0.6c0.2,0.3,0.6,0.3,0.8,0.6c-0.2,0.1-0.2,0.4-0.4,0.5
			c0.6,0.3,1.6-0.1,2.1,0.3c0.2,0.7-0.6,0.3-0.9,0.5c-0.4,0.8,1.3,0.1,0.5,1c-1.1,1-3.2,1.7-4.6,1c-0.2-0.2-0.6-0.4-0.8-0.1
			c-0.7,0.1-1.4,0.4-1.8,1c0.2,0,0.4,0,0.5,0c0,0.8,1.3,0.6,1.7,1.2c0.1,2.2-2.8,1.5-3.8,0.3c-1.7-2-4-3.1-6.4-4.1
			c-1-0.3-2.8,0-3.2-1.2c-1.7,0.1-3.7-0.4-4.5-2c-0.9-0.4-2.2-0.6-2.6-1.8c-0.4,0.1-0.7-0.2-1.1-0.3c-0.7-0.2-1.5-0.1-2.3-0.3
			c-0.6,0.7-1.8,0.8-2.3,1.7c-0.4,0.9-0.7,1.9-1.4,2.7c-1.1,1.2-3.1,0.7-4.2-0.3c-0.7-0.5-1.6,0-2.1-0.7c-0.1,0.9-0.3,1.9-0.3,2.8
			c-0.5,0.8-1.5,1.8-1.1,2.8c-1.4,0.2-2.2,2.8-3.7,1.7c-2.1,3.7,1.4,2.5,3.2,4.4c0.4,0.5,0.5,1.2,0.6,1.8c-0.3,0.5-0.4,1-0.2,1.6
			c2.3-1.7,8.7,5.6,8.4,8.3c0,1.9-1.8,2.5-2.6,3.8c0.1,1.3-0.1,2.8,0.4,3.9c0.3,0.7,1,1.2,1.2,1.9c-0.1,0.6,0.1,0.5,0.6,0.4
			c1.2,0.5-0.3,1.4,0,2.2c0.3,1.8,1.1,2.1,2.7,1.6c0.8,1.6,0.8,3.1,2.5,1.2c0.1-0.2,0.8-0.6,0.5-0.7c-1.3-0.5-0.7-4.6-0.1-5.3
			c0.8-0.7,1.8-0.8,2.8-0.8c3.3-0.7,0,2.6,1.5,3.4c0.7,0.5,0.7-0.2,1.1-0.2c0.5,1,1.5,1.8,2.1,2.7c0.1,0.7,0.3,1.4,0.5,2.1
			c0.2,1,1.7,1.8,0.9,2.8c-0.1,0.4,0.1,0.4,0.4,0.6c0.2,0.2-0.2,0.3-0.2,0.5c-0.1,0.3,0.2,0.5,0.2,0.8c-1,0.6-0.8,0.8-0.4,1.8
			c0.2,0.8,1.4,0.6,1.9,1c0,0.5,0.3,1,0.4,1.5c0.1-1,0.4-2.2,0.1-3.2c-0.3-0.5-0.7-3.5,0.4-2.6c0.5-0.3,0.2-0.8,0-1.1
			c-0.4-0.6,0.5-0.4,0.8-0.4c-1.5-1.3,1.2-1.3,0.5-2.7c0.7-1.3,3.5-1.3,4.7-0.6c0.4,0.6,0.5,1.6,0.7,2.3c-0.3,0.4-0.2,0.7,0.1,1.1
			c0-0.2,0.2-0.5,0.2-0.7c0.8,0.4,1.3,0.9,1,1.9c0.4,0.4,1.1,0.4,1.4,0.9c-0.1,0.7,0.4,1.1,0.8,1.5c0.4,0.4,1-0.4,1.3,0.2
			c0.6,0.4,0.4,1.1,0.6,1.6c0.4,0.2,0.8,0.8,1.3,0.4c1.1-0.1,2,0.2,0.5-0.8c-0.6-0.5-0.5-1.2-0.5-1.9c-0.7-0.5-1.5-0.9-1.9-1.6
			c-0.6-0.9,0-2-0.4-2.9c-0.2-0.5,0.4-0.5,0.6-0.7c0.6,0.5,0.8-0.2,0.7-0.7c0-0.8-0.4-1.5-1-2c-0.1-0.9-0.4-1.8-0.7-2.6
			c-0.6-0.8,0.2-1.8-0.3-2.7c-0.9-0.2-0.3-1.7-1.3-1.8c-0.5,0.3-0.9-0.2-1.2-0.5c0.6-0.7,0.6-1.7,0-2.5c-0.9-1.5-1.4-3.2-2.6-4.4
			c0.3-1-0.3-1.5-0.6-2.4c0-0.6,0.1-1.1-0.1-1.7c0.4-1.3,0.6-1.1,1.7-0.9c-0.1,0.8,0.9,1.1,1.2,1.7c0.3-0.7,1.7-0.1,2.4-0.2
			c0.5,0.1,0.6,0.9,0.9,1.3c0.3,0.2,1-0.1,1.1,0.4c0.3,0.2,1-0.2,1.1,0.2c0.1,0.6,0,1.3-0.5,1.7c-0.2,0.1-0.5,0.3-0.4,0.7
			c0.1,0.3,0.6,0.1,0.8,0.2c0.2,0.1,0.3,0.4,0.5,0.6c0.1,0.3,0.2,0.6,0.4,0.8c0.2,0,0.7,0,0.8-0.1c-0.3-0.5-0.4-1,0.4-1
			c0.4,0.1,1.2-0.2,0.6-0.6c-0.5-0.1-0.2-0.4,0.1-0.6c0.3-0.6,0.8-0.5,1.3-0.4c0.5-0.3,1.1-0.3,1.7-0.4c0.7,0.5,1.2-0.1,2-0.3
			c1.8-0.2,0.2-1.7-0.7-1.9c-0.4-0.1-1.2-0.1-1.3-0.6c0.3-0.4,0.7-0.4,0-0.8c-0.3-0.8,0.4-1.2,0.7-1.8c-0.2-0.1-0.4-0.3-0.6-0.5
			c-3.5,0.2,1.3,2-1.2,2.9c-1.2-0.3-1.7-1.5-2.9-1.9c-1.5-0.3-0.8-2-0.5-3c-0.3-0.3-0.8-0.1-1.1-0.4c-0.6-0.8,0.6-0.8,1-1.2
			c1.1-2.8-5.2-0.6-3.6-3.7c0.9-0.1,1.9,0.1,2.7-0.2c1.5-1.4,3.5-1.4,5.4-1.4c1-0.7,3.4-2.7,4.5-1.4c0.2,0.7-0.9,0.9-0.8,1.6
			c0.6,0.1,1.2,0.2,1.6,0.7c0.4,0.1,0.9-0.1,1.3,0c0.5,1.3,1.4,2.5,2.2,3.6c0.5-0.7,1.3,0,1.8,0.3c0.6,0.6,0.1,2.3,1.5,1.9
			c0,0.4-0.4,1.1,0,1.3c0.7,0.2,1.5,0.7,2.1,0.1c0.5-0.7-0.1-1.7,0.4-2.4c0.4-0.7-0.3-1.1-0.6-1.6c0.2-1,0.1-0.8-0.6-1.4
			c0.2-0.6,0.6-1.1-0.3-1.4c-0.1-0.5,0-1.1,0.1-1.7c0.7-2.1-2.7-2.6,1.5-4.7c-0.5-0.1-0.4-0.4-0.2-0.8c-0.1-0.3-0.7-0.4-0.9-0.8
			c-0.7-0.4-1-1.2-1.6-1.7c-1.1-0.3-2.4-0.3-3.4-1.1c-0.8-0.6-2,0-2.7-0.7c-0.5-0.1-0.4-0.6-0.5-1c-0.5-0.7-1.2-0.8-0.8-1.8
			c-0.5-0.4-0.7-1.2-1.4-1.5c-0.1,1.3-0.7,0.3-1.4,0.4c-0.7,0.1-1.3-0.3-1.9-0.3c-0.3,0.1-0.7,0.3-0.7-0.2c-0.1-0.4,0.4-0.2,0.6-0.3
			c-0.5-0.6-1.1,0.1-1.1-1.2c-0.2,0-0.4,0-0.6,0.1c0.6-0.8,1.9-1.6,0.1-2.2c-0.9,0.3-1.3-0.5-2-0.9c0.2,1.3-1.3,0.9-2.1,1
			c-0.3-0.5-0.5-1-0.7-1.5c0-0.3,0.2-0.7-0.2-0.9c-0.3-1.1-1.2-0.5-2.1-0.7c-0.3-0.1-0.6-0.2-0.9-0.4c-0.5-0.3-1,0.7-1.5,0.1
			c-0.3-0.7-0.9-0.6-1.5-0.5c-0.9-0.1-0.9-1.9-1.9-1.5c-0.6,0.3-1.2-0.2-1.6,0.4c-0.4,0.1-0.8-0.3-1.2-0.4c0.1-0.2,0.3-0.5,0.3-0.6
			c-0.2,0-0.3,0.1-0.5,0.1c1.1-1.1,1.8-2,3.1-0.6c0.7-0.4,1.3,0.1,1.9,0.1c0.4-0.3,1-0.2,1.4-0.3c0.3-1,0.3-1.3,1.4-0.9
			c0.3-0.3,0.7-1,1.2-0.8c0.2,0,0.5,0.2,0.5-0.1c0.2-0.5,0.4-1.2,0.7-1.6c0.1-0.1,1-0.2,0.7-0.5c-0.6-0.3-1.4,0.5-2,0.7
			c-0.6-0.6,0.4-0.7,0.5-1.2c0.1-0.5-0.3-0.7-0.5-1.1c-0.1-0.8-0.6-0.9-1.2-0.6c0.2-0.8-0.1-1.4-0.8-1.8c0,0.2-0.1,0.4-0.1,0.7
			c-0.4,0.2-0.7-0.2-0.6-0.6c-1.6-4.4,1.8-1.6,1.8-4.3c0.1-0.7,1.1-0.5,1.6-0.3c0.4,0.5,0.7,1.1,1.4,0.9c2.2,0,2.5,2.3,3.3,3.8
			c0,0.4-0.1,0.9-0.6,0.6c-0.4,0.1-0.5,0.7-1,0.9c-0.2,0.1-1.2,0.8-0.9,0.1c0.1-1.2-1.1-0.6-1.1,0.3c0,1.2,1.8,0,2.4,0.1
			c0.3,0,0.9,0,0.8-0.4c-0.2-0.3,0.3-0.2,0.4-0.2c4.2-1,1.4-2.4,0.8-4.9c0-0.6-0.8-0.6-1.1-1.2c-0.5-1.7-2.1-2.5-2.7-4
			c-1.2-1.1-3.3-1.7-3.9-3.3c-0.6-1.5-0.7-3.2-1.1-4.7c-1.3-1.3-3-2.5-3.1-4.5c-0.2-0.6-1.2-0.7-1.7-1c-1.7-0.8-0.9-2.6-1.6-3.8
			c-0.5-1,0.3-1.6,0.8-2.3c-0.2-1.4,0.6-2.8,1.3-3.9c0.2-0.5-0.6-0.8-0.7-1.3c-0.1-0.6-0.5-1.1-0.5-1.8c0.5-1.4,1.8,0.5,1.4-1.7
			c1.5,0.3,1.8,0.3,1.9-1.3c0.9,0,2.2-0.4,2.4-1.3c-1-0.2,0.8-0.9,1.2-0.8c1.2,0.4,0,2.3,1.6,2.5c-0.4,1.2-2.4,1.5-3.4,1.2
			c-0.7,1.2,0.4,0.5,0.5,1.3c0,1,1.4,1.3,1.1,2.2c1.1-0.3,2.3,0.3,2.5,1.4c1.8,1.2,4,1.9,6,2.6c0.7,0.9,0.5,2.5,0.2,3.6
			c0.2,1.6,1.8,1.8,1.1,4c1,0.3,1.9-0.7,2.7,0.1c1.5,0.8,3.7,1.6,5.3,1.1c-1.1,0-0.9-1.2-1.7-1.6c-1.5-0.4-3.2-1-4.2-2.2
			c-0.4-1.4-1.4-2.1-2.3-3c-0.9-1.4,0.2-3.9,2-3c1,0.1,1.4,1.2,2.5,1.2c2.6-0.4,3.2,2.1,4.7,3.5c0.3,0.7,0,2.3,1.1,2.2
			c0.2,0.6,0.9,0.6,1.2,1.1c0.1,0.6,0.5,1.2,1.1,1.2c0.2-0.1,0.5-0.1,0.6-0.3c0.1-0.2-0.3-0.2-0.3-0.4c0.2-0.2,0.7-0.1,0.4-0.6
			c0.4-0.4,0.8-0.7,0.4-1.4c-0.2,0-0.3,0-0.5,0c0.6-0.5,0-0.8-0.2-1.3c0.5-1.4-1.1-1.5-1.9-2.1c-0.8-0.5-2.3-0.4-2.7-1.3
			c0-0.7-0.7-0.5-0.9-1c-0.2-0.7-0.5-1.3-0.5-2c0.2-1.1,1.3-1,2.1-0.8c1.5-1.5,3.5-0.7,4.6,0.8c2,1.3,2.8-0.6,4.5,2.4
			c0.3,0.3,0.1,0.7,0.3,1c0.7,0.4,1.2,0.7,1.2,1.6c0.2,0.5,1,0.2,1.4,0.1c1.7-1-0.6-2.4-1.5-3.1c-0.7-0.9-0.5-2.2-2-2.2
			c-0.4-1.9-3.6-0.4-3.9-3.6c-0.9,0.5,0.8,1.9-0.6,2c-2.1,0-4-1.8-3.1-3.9c0.8-0.1,2.3,0.2,1-1c-2,0.4-2.1-2.5-3.7-2.9
			c-0.7-0.3,0.1-1,0.1-1.5c0.2-1.5,1.9-1.9,3.1-2.4c4.1,3.3,5.2,2,9.1-0.6c0.2-0.3,1.2-0.9,0.8-1.3c-0.2-0.1-0.4-0.2-0.3-0.4
			c0.2-0.6,0.9-0.7,1.3-1.1c0.2-0.3,0.3-0.6,0.7-0.8c0.7-0.4,1.6,0,2.4-0.4c0.3-0.1,0.8,0,0.9,0.3c0.2,0.4,0.8,0.5,0.9,1
			c0.2,0.5,0.3,1.7,0.9,0.9c0.6-0.2,1.1,0.2,1.4,0.6c0.2,0.1,0.7-0.1,0.8-0.3c0.6,0.4,1.1,0.6,1.5-0.2c0.9-1.2,2.2-1.6,3.6-1.9
			c0.1-0.1,0.1-0.2,0.1-0.4c0.1-0.5,1-0.5,1.1-1.1c-0.2-0.9,0.9-0.7,1.4-0.7c-1.1-0.4-0.7-1.6,0-2.2c0.2,0.2,0.5,0.2,0.6,0.4
			c-0.6,0.7,0.1,0.9,0.6,1.2c0.4,0.3-0.2,1.1-0.4,1.4c-1.1,0.8,1.5,0.9,1.9,1.2c-0.1-0.1-0.2-0.2-0.2-0.4c1.3,0.4,2.5-0.2,3.3,1.2
			c1.6-0.1,2.5,1.4,4,1.3c1.5-0.3,2.9,0.7,4.5,0.4c1.3,0.1,4.5-0.1,4.8,1.3c-0.6,0.7,1,0.5,0.3,1.8c0,0.7,2.2,0.2,2.1-0.7
			c0-2.1,2.1-0.8,1.6-2.9c0.1,0,0.2,0,0.3,0c0.1-0.2,0.1-0.4,0.1-0.6c0.2,0,0.4,0.2,0.6,0.2c0-0.3,0-0.6,0.2-0.8
			c0.2,0.1,0.3,0.3,0.5,0.5c0.4-0.3,0.2-0.7,0.1-1.1c0.5-0.1,1-0.4,1.4-0.3c-0.1-0.4-0.5-0.6-0.8-0.9c0.5,0,0.8-0.9,1.1-1.2
			c-1.5-0.1-1.4-1.5-0.6-2.4c-0.2,0-0.4-0.1-0.6-0.1c0.7-0.7,0.6-1-0.1-1.7c0.1-0.8,0.7-1.4,0.4-2.3c1.1,0.1,2.6-0.1,2.9-1.3
			c0.7,0,0.8-0.7,1.1-1.2c2,1.3,3.2-0.4,2.1-2.2c-0.4-1.8-0.3-3.6-0.5-5.4c-0.9-0.1-1.8-0.5-2.2-1.3c0.1-0.6-0.2-0.7-0.7-0.6
			c-1,0.2-1.5-0.8-2.3-1.1c-0.6,0-1.2,0.3-1.8,0c-0.5,0-0.6-0.4-0.8-0.7c-0.3-0.2-1.2,0.2-1.3-0.2c-1.6,1.5-2.7,0.5-1.6,3.4
			c1.7-0.4,1.1,0.9,1.2,2.1c1.4-0.2,0.9,1.9-0.1,2c0.6,0.7,2,1.1,0.5,1.7c-0.7,2.1-0.4,2.1-2.8,2c-0.5,0.9-1.3,1-2.2,1
			c-0.4,0.2-0.6,0.5-1,0.4c0-0.8-0.9-0.7-1.3-1.2c-0.4,0.4-0.7,0.9-1.3,0.7c-0.6-0.1-0.9,0.3-1.2,0.7c-0.5,0.1-0.7-0.7-1.2-0.5
			c-0.7,0.3-1.4,0.2-2-0.3c-0.3,0.7-0.2,1.8-1.2,1.1c-0.6-0.1-1.1,0.1-1.5,0.5c-1.2,0.1-4.1,1.7-4.2-0.5c-0.4-0.2-0.7-0.9-1.1-1
			c-0.6-0.1-0.8-0.2-0.9-0.8c-0.7,0.3-0.9,0.2-1.3-0.4c-1-0.7-2.6-0.3-3.5-1.3c-0.5,0.7-1.2,0-1.9,0.2c0.1,0.5-0.2,1.1-0.2,1.6
			c-0.2-0.9-1.4-1.1-1.2-2.2c-0.6,0-1.2-0.1-1.7,0c0-0.1,0-0.2,0-0.4c-0.2,0-0.7,0.1-0.8,0.2c-0.6-0.5-0.6-1.5-1.2-2
			c0-0.7-0.3-1.5-0.7-2.1c-1.9,0.2-0.9,2.2-2.8,0.8c-0.4,0.5-0.8,0.8-1.4,0.3c-0.2,0.2-0.3,0.4-0.6,0.4c-0.2-0.6-0.3-1.1-0.8-1.6
			c-0.5,0.5-1.5,0.8-1.6,1.6c-0.3,0-0.4-0.2-0.6-0.4c-0.3-0.4-1-0.2-1.5-0.3c-1,1.1-0.9,0.6-0.4,2c-0.3,0.7-1,0.4-1.3-0.1
			c-1,1.2-1.4,1-2.1-0.3c-0.1,1.4-1.6,1-2.5,1.5c-0.3,1.4-1.5,0.9-2.5,0.8c-0.7,1.4-2,0.7-3,0c-1.7-0.3-3.1,0.2-4.5,1.1
			c-0.1-1.3-0.7-1.3-1.5-0.4c-0.4,0.7-0.3,1.4-1.2,1.6c-2.9,0.5-6.4-1.6-9.1-0.1c-0.6,1.6,0.7,4.1-1.1,5.2c-0.4-0.2-0.7-0.7-0.9-1.1
			c-1,1.7-1.5,1.5-3.3,1.5c-0.6,0-1.5,0.2-2-0.2c-0.5-0.5-1.2,0.1-1.8,0.2c-0.1-0.2-0.1-0.5-0.1-0.8c-1.7,0.3-2.3-1.7-4,0.6
			c-0.3,0.3-0.5-0.1-0.8-0.3c-0.9-0.9-1.4,0.1-2.2,0.4c-3.1,0.3-1.1,1.9-2.6,3c-2.5,1-0.3,3.7-3.7,2.2c-0.3,1.1-1.2,1.8-2.3,2.2
			C53,32.7,53,32.4,52.7,32c-0.4-1.1-1.7-0.7-2.6-0.8c-0.4,0-0.4,0.1-0.7,0.4c-0.7,0.8-1.7,1.1-2.7,1c-0.7-0.1-1.2-0.7-1.8-0.1
			c-0.5,0-0.9,0.4-1.5,0.2c-0.2,0.8-1.1,1.9-1.6,0.6c-0.4,0.3-0.9,0.6-1.2,1c0,0.3-0.1,0.7-0.4,0.9c0.1,0.2,0.2,0.2,0.4,0.3
			c-0.1,0.9,1.1,1.5,0.5,2.2c1.6-0.8,0.9,2.1,0.8,3c-0.6,0.5-1.3,0.9-1.7,1.6c0,0.6,0,1.6-0.9,1.4c-0.3-0.5-0.7-0.2-1.1-0.2
			c-0.3-0.3-0.7,0-0.7,0.4c-0.3,0.2-0.6,0.7-1.1,0.6c0.5,3-0.6,2.3-1.5,4.5c0.6,1.7-0.5,1.6-0.9,2.9c0.9,0.6-0.3,1,0.1,2
			c-0.8,0-1.5,0.5-2.1,0.8c-0.5-0.2-1-0.4-1.5-0.4c-0.1,0.1-0.2,0.4-0.3,0.5c-2.7-1.2-0.4,2.6-3.8,2.1c0.5,1.7,1.6,2.9,2.3,4.4
			c-0.6,1.7-1.1,1.3-2.3,0.3c-0.1,0.2-0.3,0.2-0.5,0.4c1.2,1.1-0.8,0.7,0.7,2.1c-0.8,0.3-1.1,0.9-1.3,1.6c-0.5-0.1-1-0.5-0.8,0.3
			c0.2,0.8-1.8,0.2-2.3,0c-0.8-0.2-1.6-1.7-2.3-0.8C20.2,65.6,20.6,65.7,20.9,65.6z"/>
		<path class="st0" d="M171.2,140.1c0.7,0.1,0.8,0,0.2-0.5c-0.1-0.2,0.2-0.3,0.1-0.5c-0.2,0.2-0.7,0-1,0.2
			C170.7,139.5,170.9,140,171.2,140.1z"/>
		<path class="st0" d="M110.5,123.6c0.2,1.1,1.6-1,1.8-1.4c1-1,1.1-2.4-0.7-2.4C110.4,120.3,110.5,122.4,110.5,123.6z"/>
		<path class="st0" d="M110.3,111.9c0.5-0.4,0-0.9-0.5-0.9C109.6,111.5,109.5,112.3,110.3,111.9z"/>
		<path class="st0" d="M115.8,133.1c0.3-0.5-0.8-0.3-1.1-0.6c-0.3,0.1-0.5,0.3-0.7,0.6c-0.3,0.5-0.5,1.1-0.6,1.7
			c0.4,0,0.5-0.5,0.9-0.4c0.2,0,0.1,0.2,0.1,0.3c0.3,0.1,0.6,0.2,1,0.2c0.3-0.1,0.8-0.5,0.6-0.8
			C115.6,133.8,115.7,133.5,115.8,133.1z"/>
		<path class="st0" d="M109.9,143.5c0.2-0.2-0.4-0.2-0.5-0.1c0.1,0.2,0.3,0.7,0.5,0.7C109.9,143.9,109.7,143.6,109.9,143.5z"/>
		<path class="st0" d="M114.6,126.9c-0.5-0.5-0.8-1.1-0.8-1.7c-0.5,0.5-1.1,0.9-1.2,1.6c0.4,0.1,0.5,0.5,0.6,0.9
			c0.3,0.9-0.7,1.2-0.3,2.2c0.6-0.2,1-0.9,1.4-1.3c0-0.6,0.1-1.1,0.6-1.4C114.7,127.1,114.6,127,114.6,126.9z"/>
		<path class="st0" d="M117,142.5c-0.2-0.2-0.4-0.2-0.5-0.4c-0.9,0.9-0.8,0.6-0.3,1.8c0.3-0.1,0.6-0.3,0.9-0.4
			C117,143.2,117.1,142.8,117,142.5z"/>
		<path class="st0" d="M118.2,143.8c0,0,0-0.1-0.1-0.1c-1,0.5-0.4,1.1,0.4,0.9C118.9,144.5,118.3,144,118.2,143.8z"/>
		<path class="st0" d="M159.5,128.3c-0.3-0.2-0.6-0.4-1-0.3c0,0-0.1,0-0.1,0c0.3,0.6-0.1,2.8,0.6,2.6c0-0.4-0.2-0.8-0.4-1.2
			c0-0.5,0.4-1,1-0.6C159.7,128.7,159.6,128.5,159.5,128.3z"/>
		<path class="st0" d="M119.7,122.1c0.2,0,0.4,0.1,0.5,0.1c0.1-0.3,0.1-0.6,0.1-0.9c-0.2,0-0.5,0-0.7,0c-0.1,0.3-0.3,0.6-0.6,0.7
			C119.2,122,119.5,122,119.7,122.1z"/>
		<path class="st0" d="M120.3,36c-0.2-0.3-0.3-0.7-0.7-0.8c-0.6,0.2-0.9-0.1-1.4-0.6c-1.3,1.2-3.6,2.9-2.4,5c0.5-0.1,1.1,0,1.6,0
			c0.3,0.4,0.6,0.8,0.8,1.3c0.6-0.5,1.3-0.5,2-0.8C121.2,38.8,121.4,37.1,120.3,36z"/>
		<path class="st0" d="M112.2,147.2c1.8-0.4,5.6-0.1,3.3-2.9c-0.7,1.1-1,0.2-1.9-0.1c-0.1,0.4,0,1.1,0.4,1.2c0.3-0.3,0.7,0,0.8,0.4
			c-0.1,0.8-1.2,0.4-1.7,0.2c-0.1-0.2,0-0.5-0.1-0.7c-0.3-0.2-0.7-0.4-1.1-0.3c0,0.8-0.3,1.6-0.3,2.4
			C111.7,147.3,112,147.2,112.2,147.2z"/>
		<path class="st0" d="M119.2,139.5c0.1,0.4,0.2,0.7,0.6,0.9c2-1.2,0.2-2.9-1.4-3.4c0,0,0,0,0,0.1c0.1,0.4,0.8,0.7,0.4,1.2
			C118.7,138.8,119.3,139,119.2,139.5z"/>
		<path class="st0" d="M143.6,96.4c0,1.3,1.2,2,2.3,2.4c0.5,0.4,0.4,1.1,0.5,1.7c0.7,0.7,0.3,2-0.1,2.8c-0.2,0.1-0.5,0.1-0.7,0.1
			c-0.7-0.1-1.4,0.7-1.4,1.3c0.2,0.6,1.4,0.8,1.8,1.4c0.2,0.5,0.8,1.1,1.4,1.1c0.3-0.8,0.4-1.4,1.4-1.4c1.2-0.6,0-1.4,0.6-2
			c0.4-0.3,1-0.4,0.8-1c-0.6-1.3,0.1-3.1-0.4-4.3c0.1-0.7,0.6-1.5,0.3-2.2c-0.9,0.8-1.3-0.3-2-0.7C147.4,94.9,143.7,95.3,143.6,96.4
			z"/>
		<path class="st0" d="M141.5,154.4c-0.1,0.1-0.2,0.2-0.3,0.3c1,0.4,1.2,1.1,2.3,0.1c-0.5-0.4-0.9-1-1.7-1
			C141.8,154.1,141.6,154.3,141.5,154.4z"/>
		<path class="st0" d="M156.8,148.8c-0.4-0.6-1-0.9-1.7-1.2c-0.1,0.5,0.6,0.7,0.5,1.3c-0.5-0.1-1,0.1-1.3,0.5
			c-0.3,0-0.5-0.4-0.6-0.6c-0.3-0.2-0.6-0.1-1-0.1c-0.4,1.2,0.8,2.6,1.9,2c-0.2-0.3-0.6-0.5-0.2-0.9c0.2-1.2,1.5,0,1.9-1
			c0.2-0.1,0.6,0.5,0.7,0.2C157.1,149,156.9,148.9,156.8,148.8z"/>
		<path class="st0" d="M157.3,137.8c-0.2-0.1-0.3-0.6-0.6-0.4c0,0.2-0.3,0.5-0.3,0.7C156.7,138.3,158.1,138.1,157.3,137.8z"/>
		<path class="st0" d="M107.5,118.1c-0.1,0.7-0.7,1.5-0.4,2.2c0.3-0.7,0.6-1.5,0.7-2.3C107.6,118,107.6,118,107.5,118.1z"/>
		<path class="st0" d="M158.1,121c0-0.1-0.1-0.2-0.1-0.3c-0.1,0.1-0.2,0.1-0.3,0.3c1,1.8-1.2,0.9,0,2.6
			C157.3,122,158.9,122.6,158.1,121z"/>
		<path class="st0" d="M141.8,143.5c-0.2,0-0.1,0.2,0,0.3c0.4,0.1,0.8,0.1,1.2,0.4c0-0.7,0.8-0.5,1.2-0.6c1.1-1.1,2.4-3,4.1-2.8
			c-1.9-2.1-1.3-0.2-2.7,0.5c-1.1,0.5-1.8,0.4-1.9,1.8C143.1,143,142.4,143.1,141.8,143.5z"/>
		<path class="st0" d="M142.7,135.4c0.1,0.3,1.2,0.2,0.7-0.2c-0.3-0.7-0.3-0.5-0.9-0.4C142.5,135,142.6,135.2,142.7,135.4z"/>
		<path class="st0" d="M144.4,79.9c0.4,0.4,1,0.4,1.3,0.9c0.7,0.7,2.3,0.9,3.2,0.5c0.4-0.1,0.5-0.5,0.6-0.9c0.5-0.7,0.8-1.6,1.7-1.9
			c0.6-0.1,2-0.1,2.1,0.7c0,0.5-0.3,1-0.9,0.8c-0.7,0.1-1.4,0.7-1.8,1.3c-0.4,0.2-0.9,0.2-1.3,0.5c0.3,0.6,0.9,1,1.2,1.7
			c0,0.3,0.2,0.3,0.4,0.1c2.2-0.4,4,2.5,6.2,1.4c1-0.2,1.7,0,1.4-1.4c0.3-0.3,1.3,0.5,1.5,0c0.3-1.1-1-1.5-1-2.4
			c-0.2-0.2-0.6-0.6-0.7-0.9c-0.1-0.2,0.2-0.6-0.2-0.7c-0.7,0-0.5-0.8-1-1.2c-0.5-0.6-1.4-0.8-1.9-1.4c-0.5-0.7,0.8-1.4,0.3-2.1
			c-2-0.2-0.3-0.7-1.1-1.3c-1,1-2.9-0.6-3.5,0.8c-0.1,1.9-4.4,2-5.9,1.9c-0.4,0.6-1.3,1.2-0.9,2C143.8,79.1,143.8,79.5,144.4,79.9z"
			/>
		<path class="st0" d="M151.9,97.5c0.3,0.2,0.7,0.3,0.9-0.2c-0.5-0.1-1.1-0.2-1.5-0.5C151.2,97,151.6,97.4,151.9,97.5z"/>
		<path class="st0" d="M151,121.3c-1.8-0.7-4.2,0.9-4.2,2.9c1.3,0.4,2-0.5,2.9-1.1c2.2,0.3,3.7-1.6,4.8-3.2
			C153.1,119.5,152.2,121,151,121.3z"/>
	</g>
</g>
</svg>
