<?xml version="1.0" encoding="utf-8"?>
<!-- Generator: Adobe Illustrator 26.0.3, SVG Export Plug-In . SVG Version: 6.00 Build 0)  -->
<svg version="1.1" id="Layer_1" xmlns="http://www.w3.org/2000/svg" xmlns:xlink="http://www.w3.org/1999/xlink" x="0px" y="0px"
	 viewBox="0 0 200 200" style="enable-background:new 0 0 200 200;" xml:space="preserve">
<style type="text/css">
	.st0{fill:#1E8346;}
</style>
<g id="Isolation_Mode">
</g>
<g id="Ebene_1">
	<g id="ireland">
		<g>
			<g>
				<path class="st0" d="M102.1,176.1c0-0.7-1.4-0.7-1.6-0.4C99.7,177.1,101.7,176.8,102.1,176.1z"/>
			</g>
			<g>
				<path class="st0" d="M63.6,195.3c-0.3,0.1-1.9,1-1.5,1.3C62.7,197.2,65.1,195.8,63.6,195.3z"/>
			</g>
			<g>
				<path class="st0" d="M65.7,194c-0.2,0-0.4,0.1-0.5,0.3C64.1,195.7,66.8,194.7,65.7,194z"/>
			</g>
			<g>
				<path class="st0" d="M63.3,183.7c0.8-1.4-0.7,0-1.1,0.1C61.2,184.5,63.4,184,63.3,183.7z"/>
			</g>
			<g>
				<path class="st0" d="M54.2,185.8c-1.2,0.9-2.8-0.4-3.8,0.5c-0.7,1.5,0.9,0.6,1.6,0.8c0.4,0,1.2-0.2,1.5-0.3
					C53.8,186.6,54.7,185.7,54.2,185.8z"/>
			</g>
			<g>
				<path class="st0" d="M41.5,187.4c-2.2,1.4,0,1.2,0.9,0.3C43.5,186.8,41.6,187.4,41.5,187.4z"/>
			</g>
			<g>
				<path class="st0" d="M37.5,173c0.5-0.4,1.3-0.4,1.6-0.9c0.2-0.3,0.4-0.7,0-0.5c-0.8,0.4-1.2-0.6-1.7-0.1
					c-0.4,0.7-1.1,0.4-1.5,0.8c-0.1,0.3-0.7,1.1-0.4,1C36,172.8,37,173.1,37.5,173z"/>
			</g>
			<g>
				<path class="st0" d="M32.5,162.3c-0.2,0.9-1.1,0.6-1.5,1.2c-0.5,1.2,0.9,0,1.2,0c0.3-0.1,0.7,0,0.8-0.4
					C33.1,162.8,33,161.8,32.5,162.3z"/>
			</g>
			<g>
				<path class="st0" d="M63.7,117c0.3-0.2,0.6-1.1,0.3-1.1c-0.3,0-1.2,0.1-1,0.4S63.5,117.1,63.7,117z"/>
			</g>
			<g>
				<path class="st0" d="M61.8,115.9c0.5-0.4,1.4-1.4,0.5-1.4c-0.5,0.2-1.2,0.4-1.1,0.8C61.3,115.6,61.6,116.1,61.8,115.9z"/>
			</g>
			<g>
				<path class="st0" d="M56.9,111.7c-0.5-0.2-2.3-0.4-2,0.1c0.4,0.2,2.4,0.9,2.6,1.2c0.7,0.9,1.8,1.9,2.9,1.4
					c0.2-0.2,0.7-1.1,0.2-0.9c-0.5,0.2-1.4,0.2-1.3-0.1c0.4-0.6-0.3-1.6-1.1-1.3C57.5,112.6,57.4,112,56.9,111.7z"/>
			</g>
			<g>
				<path class="st0" d="M58.1,107.4c0-0.2-0.2-0.8-0.4-0.5c-0.2,0.3-0.7,0.5-0.2,0.6C57.9,107.6,58.1,107.4,58.1,107.4z"/>
			</g>
			<g>
				<path class="st0" d="M58.6,106.2c0,0.5-0.2,1.4,0.2,1.4c0.4,0.1,1.2,0.4,1.3,0c0.6-0.6,0.3-2.6-0.5-2.2
					C59.1,105.7,58.6,105.7,58.6,106.2z"/>
			</g>
			<g>
				<path class="st0" d="M59.1,104.9c0.4-0.2,0.5-0.2,0.8-0.3c1.9-0.3-1.5-1.1-1.2-0.3C58.8,104.7,58.7,105.1,59.1,104.9z"/>
			</g>
			<g>
				<path class="st0" d="M54.7,104.8c0.1-0.3-0.1-0.7-0.1-0.7c-0.1-0.2-0.9-0.7-0.6-0.2C54.3,104.4,54.7,105.1,54.7,104.8z"/>
			</g>
			<g>
				<path class="st0" d="M43.7,88.4c0.3,0,1.2,0.2,1.3-0.1c0.4-1.1,0.3-1.3-0.7-0.8C43,87.3,42.4,87.9,43.7,88.4z"/>
			</g>
			<g>
				<path class="st0" d="M46.6,84.3c0.7,0.4,1.3-0.4,0.8-0.7C47.1,83.6,46.3,84.3,46.6,84.3z"/>
			</g>
			<g>
				<path class="st0" d="M51.6,78.5c-0.5-1-1.2,0.1-1.7,0.3c-0.3,0.1-0.8,0.3-0.7,0.6C49.6,80.4,53.3,79.7,51.6,78.5z"/>
			</g>
			<g>
				<path class="st0" d="M43.3,70.5c0.4,0.1,1.1,0.2,1.4,0.5c0.3,0.3,0.2,0.6,0.7,0.4c0.8-0.4,1.7,0,2.5-0.3
					c0.4-0.2,0.8-0.4,1.2-0.2c1,0.3-0.6,2.3,0.1,2.6c0.4,0.2,1.6,0.3,1.6,0.6c0,0.7,0.6,1.6,1.2,1.3c0.8-0.3,0.2-1.2,0.5-1.6
					c0.4-0.3,0.7-2.2,0.3-2.2c-0.4,0.2-1.1,0.3-0.9-0.1c0.2-0.4,0.2-1.2,0.5-1.4c0.3-0.2,0.5-0.3,0.3-0.6c-0.2-0.3-0.5-0.8-0.5-0.8
					c-0.6-1.2-1.3,0.6-2.1,0c-1.8-1.7-0.9,0.6-2.1,0.5c-1-0.2-2.2-0.8-2.8-0.4c0,0.3,0.2,0.8-0.2,0.9C44.6,69.9,42.8,70,43.3,70.5z"
					/>
			</g>
			<g>
				<path class="st0" d="M122.1,17.7c0.3,0.5,1.6,0.8,1.5,0.1c-0.4-0.4-0.9-1.2-1.3-0.8C122.1,17.3,121.8,17.5,122.1,17.7z"/>
			</g>
			<g>
				<path class="st0" d="M74.8,59.3c0.5,0.3,1,0.9,1.1,0.7c0.1-0.3,0-0.6-0.3-0.7C75.3,59.1,74.4,59,74.8,59.3z"/>
			</g>
			<g>
				<path class="st0" d="M94.1,22.4c1.1,0.1,1.3-1,0.8-1.7c-0.6-0.5-1.2-1.3-1.5-0.5C93.8,21.6,91.9,21.8,94.1,22.4z"/>
			</g>
			<g>
				<path class="st0" d="M102.4,8.3c1.6,0.8,0.3-0.7,0-0.8C101.4,6.8,101.7,8.2,102.4,8.3z"/>
			</g>
			<g>
				<path class="st0" d="M167.6,119.5c-1.9-1.5-0.3-4-0.5-6.4c-0.2-1.7-1.7-2.5-1.3-4c-0.3-1-2.2-2.9-0.7-4.2
					c0.3-0.3-0.9-0.7-1.4-1.1c-1.2-0.5-2-1.7-2.5-2.8c-0.2-0.5,0.7-0.3,1.1-0.4c0.4-0.1,0.9-0.9,1.4-1.2c0.5-0.3,1.2,0.6,1.6,1.2
					c0.4,0.5,0.7-0.6,0.9-1.1s-1.4-0.5-1.8-0.6c-0.6-0.4-0.1-2.1-0.6-2.8c-0.2-0.9,1.3-1.8,0.8-2.6c-0.1-0.3,0.4-0.7,0.6-1.1
					c0.4-1.2-0.8-3.3-2.2-3.4c-0.7-0.4-1.2-1.7-1.8-2c-0.7-1.1-0.9-3.1-1.3-4.4c-0.1-0.4,0.1-1.8,0.2-2.2c0.2-0.8,0.8-1.2-0.4-1.7
					c-0.4-0.2-0.2-0.8-0.2-1.2c1.2-3.7-4.5,0.7-3.5-6.8c0-0.5,1.4-1.2,0.7-1.9c-0.1-0.4,0.5-0.2,1-0.1c1.5,0.4,3.9,2.4,5.4,0.6
					c1.1-1-0.7-2.1-1.6-2.1c-0.4-0.2-0.6-0.8-0.9-1.4c-0.1-0.5-2-0.7-1.2-1.3c-0.1-0.8-0.6-1.4-1.4-0.3c-0.5,0.6-1.3,0.7-1.5,1.5
					c-0.2,0.2-1.6,0.4-2.1,0.6c-0.9-0.1-0.5-2.2-1.8-0.1c-0.4,0.4-0.9,0.1-1.4,0.1c-0.5-0.1-0.9,0.6-1.6,0.7c-1.5-0.4-2.3-3-1.1-4.4
					c0.4-1.7-1.8-4.2-3.3-2.6c-1.4-0.4-2.5-3.1-3.1-4.4c-0.4-1.3-0.4-2.5-1.6-3.5c-0.4-0.5-0.4-0.7-0.6-1.3
					c-0.1-0.6-2.6-1.6-3.2-1.7c-0.6-0.1-0.9,0.9-1.4,1.6c-1.1,1.7-2,2.7-3.5,3.9c-0.8,0.7,1.5,1.3,1.4,2.1c0.3,1-0.4,2.6-1.8,2.5
					c-0.6,0.2-0.4,0.6-0.4,1c-0.4,0.8-1.2,0.7-0.6,1.9c0.1,1.3-2,2.7-2.9,1.3c-0.3-0.4-0.6-0.1-1-0.1c-0.3,0.1-0.9-0.2-1-0.3
					c0.6-0.6,0.3-1.3-0.4-0.7c0,0.1-0.1,0.1-0.3,0c-1.1,1.1-1.8,1.7-3.3,1.1c-1.3,0-2.1-1.7-2.6-2.6c-0.3-0.4-0.8-0.2-1.1-0.8
					c-0.4-0.6-3.9-0.5-4.5-0.7c-0.6-0.2-0.8-2.7-0.9-3.3c-0.9-1.3-3-1.4-3.2-3.4c-0.2-0.7-0.6-0.4-1.3-0.6c-0.7-0.2-1.8-2.1-2.2-2.7
					c-1.6-2.2-1.7-2.2,0.8-3.1c1.2-0.7,1.5-0.5,1.4-2c0.6-1,1.8-1.2,2.8-0.4c1.3,0.2,3.1-0.9,3.8-2c0.4-0.4,1.7-1.1,2.2-1.4
					c1.2-1.1,0.5-1.5-0.9-1c-0.4,0-1.2-0.6-1.6-0.8c-1.4,0-1.6,0.1-2.5-1.4c-1.2-1.3-0.4-1.2,0.4-2.4c1.5-3.9,2.6,1.7,4.5,0
					c1.8-1.2,2.4-2.2,5-1.3c0.9,0.1,0.3-0.6,0.2-1.3c-0.1-0.6,0.6-2.9,0.6-2.9l0,0c0.5-0.2,1.4-0.8,1.3-0.8l0,0
					c-0.2-0.8,0.6-1.8,0.7-2.2c0.2-0.8,0-2.5,0.7-3l0,0c0.6-0.8,0.2-2.5,0.6-3.5c0.6-1.7,2.6-1.7,3.9-2c-0.5-1,1.6-3.3,2.1-4.2
					c1-0.7,2.8-1.5,3.7-2.5c1-0.9,3.8-0.7,2.8-2.8c-0.3-0.7-1-0.4-1.3-0.4c-0.5,0-1.5-0.9-2.1-0.7c-0.7,0-1.5-1.3-2.5-1.3
					c-0.8-0.6-1-2.5-2.3-2.7c-1.2-0.2-4.1-1.5-4.7-0.8c0.2,0.3,0.1,0.5,0.5,0.7c3.2,1.7-0.9-0.1,1.4,2.2c0.2,0.7,1.8,0.7,2,1.2
					c0.1,0.4,0.4,0.7-0.1,0.7c-0.4,0-1.8-0.1-2-0.4c-0.1-0.5-0.7-1.6-1.3-1.2c-0.5,0.7-1.4,1.5-2.4,1.2c-0.4-0.3-0.3-0.2-0.8-0.1
					c-1.7,0.2-0.8,0.3-0.9,1.3c-2.5,4,2.3,3.9,1.3,7.3c-0.1,0.4-0.3,0.5-0.1,0.8c0.2,0.3,1.3,1.8,0.4,2.3c-1.7,0.9-2.9,2-4.2,3.3
					c-0.9,1.5-1.3,0.9-0.6-0.3c0.4-0.6,0.8-0.9,1.2-1.4c0.8-0.5,1.3-1.5,0.2-1.5c-0.8,0.4-2.1,0.3-0.9-0.6c0.5-0.4,1-0.5,1.2-0.8
					c0.3-0.5,1.7-0.9,1.6-1.7c0.1-1.5-1.3-3.4-2.5-3.8c0.3-1.5,0-6.8-2.2-3.4c0.2,1.5-1.1-0.2-1.4,0.4c-0.2,0.9-2,1.9-0.7,2.6
					c0.5-0.2,1.6,1.3,1.5,0.8c-0.1-0.5-0.3-1.5-0.2-1.7c0.1-0.3,0.8-1,0.7-0.3c-0.1,0.7-0.3,1.1-0.1,1.5c0.6,0.7,1.1,1.8,0.9,2.7
					c-0.9,2.6-1,2.2-0.8-0.1c0-0.9-1.2-2-2.1-2.1c-0.5,0.1-0.8,0.5-1,0.1c-0.2-0.5-0.5-1.2-0.3-1.5c0.5-0.2,0.8-2.1,0.3-1.8
					c-0.3,0.4-0.2,0.8-0.6,0.9c-0.7,0-1.9,0.4-1.3,1.3c1.8,1.1,0.8,1.2,0.5,2.7c0,0.3,0.2,0.9-0.4,0.8c-0.6-0.1-1.2-0.2-0.8-0.4
					c0.4-0.3,1-1.2,0.6-0.9c-0.4,0.2-0.7,0.3-0.7-0.2c0.3-1.9-0.2-0.8-1.2-0.9c-0.7-0.3,0.3-1.2-0.4-1.5c-2.6-1.2-0.8,2.3-2.8,2.4
					c-1.9,0-1.3,1.2-2.1,1.9c-0.4,0-0.9,0-0.6-0.4c0.6-2.6-0.6-0.1-1.6-0.4c-0.6,0-2.3-0.8-2.4-0.2c-0.1,0.6-0.7,1.7-0.6,2
					c0.2,0.3,0.6,0.8,0.4,0.9c-0.2,0.2-0.6,0.1-0.5,0.4c0.2,0.3,0.3,1.3-0.1,1.2c-0.9-0.4-0.4,0.8-1.2,0.9c-0.5,0.1-1.1,0-1.1,0.5
					c0.7,2.6-1.7,0.5-1.2,2c0.4,0.6,0.7,1.4,1.1,1.6c0.4,0.2,0.9,0.7,0.5,0.8c-0.7,0.3-1.4-0.1-1.7,0.5c0,0.3-0.4,0.9,0.3,1.5
					c1.2,1.1,1.1,0.7,1.9,0.1c0.3-0.1,0.2-0.4,0.7,0.1c2.6,2.2-1,0-1.3,1.6c-0.1,1.1,1.6,0.3,1.7,1.1c-0.1,0.4,0.4,0.7-0.5,0.4
					c-0.9-0.3-1.7-0.8-2-0.6s-0.8,0.6-1.1,0.4c-0.2-0.2-0.5-0.5-0.8-0.3c0,0-0.2,0.5-0.8,0.5s-1-0.1-1,0.2c0.5,1.1,2,1.6,2.9,2.4
					c0.3,0.2,1,0.8,0.6,0.9c-1,0.3-1-0.9-2-1c-0.5,0-1.5,0.1-1,0.2c0.5,0.1,0.8,0.2,1.1,0.3c2.3,1.7-0.7,1.2-1.5,0.3
					c-0.3-0.1-2.9-0.6-3.4-0.3c-0.5,0.3-1.2,1.3-1.6,1.5c-0.4,0.2-0.8,0.3-0.8,0.5c0,0.3,0,1.3-0.5,1.3s-1.6-0.1-1.4,0.3
					c1.2,1-0.2,0.9,0.2,1.7c0.4,0.6,2.5,1.2,3,1.7c0.1,0.3-0.1,0.6,0.5,0.6c1.1-0.1,2.1,0.5,2.9,0.3c0.2-0.1,1.6-0.3,1.8-0.4
					c0.3-0.1,0.8-0.4,0.8,0c-0.4,1.6,0.8,0.1,1.2,0c3.3-0.6,0.6,0.9-0.3,1.7c-0.9,1.2-0.3,1.2,0.4,0.6c0.3-0.5,0.7-0.5,1.2-0.9
					c0.8-0.5,2.4-3.2,3.1-2.3c-0.1,0.7-0.8,1.5-0.4,1.5c0.4,0.1,1,0,1.4-0.3c1.2-0.5,4.1-2.4,3.8,0.1c-0.7,1.3-0.9-0.7-1.3,0.1
					c-0.1,0.8-1.1,1.4-1.4,1.9c0,0.3,0.2,1.1-0.3,1.4c-2.9,1.7,0.6,2.7-4.2,3.8c-0.3,0.1-1.3,0.2-1.6,0.4c-0.3,0.2-0.3,0.6-0.6,0.3
					c-0.3-0.4-0.4-0.8-0.7-0.5s-0.6,0.4-0.5,0.6c0.7,0.4-1.1,2.7-1.6,2.7c-1.1-0.4-0.7,0.2-1.3,0.6c-0.3,0.1-0.6,0.1-0.8,0.3
					c-0.2,0.2-0.2,0.5-0.5,0.5c-1.7,0.1-1.6,0.3-0.9,1.6c0.1,0.3,0.2,1.1,0.5,0.8c0.7-0.9,2-0.8,2.9-0.6c0.4,0.2,1.8,1,1.1,0.9
					c-0.8-0.1-1.9-0.7-1.7-0.3c0.1,1.1,1.7,1,2.2,1.4c0.5,2.3,3.3,1,4.4,1.8c-0.4,0.6-2.4,1.4-3.1,1.2c-0.7-1.8-2.5-2.8-4.3-2.3
					c-1.4,1.5-0.3,0.7,0.3,1.4c0.2,0.4,0.2,0.8,0.5,0.9s2,0.9,1.2,0.8c-0.8-0.1-0.8-0.3-1.1,0c-0.3,0.3-0.6,0.8-0.8,0.4
					s-0.2-0.6-0.6-0.8c-1.5-0.1-1.1-2.2-2.2-2.5c-2.4,1.2-1.4-0.2-2.7-0.1c-0.3,0.2-1.3,0.8-1.8,0.8c-1.4,0.1-1.8-1.5-3-1.7
					c-0.5-0.1-3-0.4-3.2,0.2c-0.4,1.4-1.4,3-1.7,4.2c0,0.3-0.9,3-1.1,2.5c0-0.5,0-1.1-0.1-1.4c-0.1-2.4-3.1-0.4-1.3-2.8
					c0.1-0.3-0.3-0.6-0.3-0.9s0.1-1.3-0.1-1.3c-1.4,0.9-0.6-0.7-1.4-1.2c-0.5-0.4-1.8-1.4-2.2-0.8c-1.5,2.5-1.2,0-3.6,0.3
					c-0.9-0.6-1.7-0.1-2.5-0.1c-0.8-0.2-2.2-0.9-3-0.5c-0.2,0.2-0.3,0.5-1,0.2c-1.3-0.8-3.5-2.3-4.6-0.6c-0.2,0.2-1.2,1.1-0.4,1.3
					c1.9,0.4,1.5-0.6,1.9,1.1c0.3,0.3,1.2,1.3,0.7,1.1c-0.8-0.7-2.6-1.3-3.2-0.3c-0.1,0.9,0.1,2-0.9,2.4c-0.5,0.2-1.8,0.1-2-0.2
					s-0.4-1.8,0-1.3c0.7,1.3,1.8,1.4,2.1,0.1c0-0.4,0.3-0.9-0.2-1c-0.5-0.1-1.2,0.1-1.4-0.3c-0.4-0.6-0.7-2.1-1.4-1.6
					c-0.2,0.4-0.3,0.9-0.6,0.9c-0.3,0.1-1,0.2-1.3,0.6c-0.3,0.5-0.1,0.8-0.5,1c-0.4,0.2-0.9,0.7-0.5,0.8c0.4,0.1,1.5,0.2,1.2,0.5
					c-1,0.6-0.6,1.3-0.9,2.2c-0.2,0.8-1.9,3.3-0.6,3.7c2.4,0.5,1.1,0.1,0.8-1c0.1-0.4,0.6-0.4,0.6-0.7S49,62.1,49,62.1
					s-0.5-0.7-0.1-0.8c1.3,0.2,0.3-0.9,0.9-1.1c0.5,0.3,1.2,0,0.9-0.5c-0.3-0.3-0.1-1.4,0.3-1.2c0.3,0.3,0.7,0.8,1,1
					c2.1,1.4-0.1,0.9,0.2,1.6c2.2,1.6-1.7,0.3,1.2,2c1.4,0.8-2.5,0.7-1.9,1.3c0.8,0.5,0.3,1.5,1,1.8c1.7,0.2,1.2-2.1,2.5-2.5
					c0.5,0,1.1-0.5,0.7,0.3c-0.4,0.7-0.3,1-0.5,1.1c-0.3,0.1-0.5,0.2-0.5,0.5c0.4,0.7-0.3,0.7-0.5,1.1c-0.1,0.2-0.5,0.9-0.2,1.4
					c0.4,1,1.1,0.8,1.4,1.5c0,0.4,0.4,1.6,0.5,1.7c0.2,0.2-0.1,0.3,0.2,0.2c1-0.7,1.4,1.8,0.9,2.1c-1,0.2-0.1-1-0.8-1.2
					c-0.5-0.2-0.8-0.6-1.3-0.7c-1.8-0.8-0.9,0.4-1.4,1.3c-0.7,0.6-0.3,1.3-0.5,2.1c-0.2,0.4-0.5,0.5-0.2,0.8c0.3,0.3-0.3,0.8,1,0.4
					c1.3-0.4,2.2-0.4,2.5-0.7c0.7-1,2.1-1.1,3.2-1.1c0.3,0,1.3,0.3,1.6,0.3c0.5,0.1,2.6-0.5,2.3,0.5c-0.3,0.4-0.5,0.5-0.3,0.7
					c1.7,0.6-1.8,1.2-1.1,1.5c0.8,0.5-0.5,0.8,0.1,1.3c5.1,1.8-2.7,1.7-4,2.1c-0.9-1-3.4,0.3-4.3,0.5c-0.3,0.1-0.4,0.2-0.4,0.6
					c0.3,1.3-0.5,1.6-0.5,2.6c0.4,0.7,0.2,1.4,0.5,2.1c1.4,1.2,0.5,2.5-1.1,2.7c-0.8-0.4-1.8-0.7-2.7-0.4c-0.3,0-0.8,0-0.5,0.4
					c3,2.8-1.5,0.6-1.8,1.3c0,0.4,0.3,0.7-0.3,0.7c-0.6-0.1-1.2-0.2-1.5-0.1c-0.4,0.1-1.4,0.7-0.8,0.7c0.6,0.1,1-0.2,1.2,0
					s0,0.4,0.4,0.5c1.4,0.4,0.3,0.9,0.6,1.5c0.8,0.4,0.9,1,1.3,1.6c0.3,0.3,0.8,0.3,0.6,0.6c-0.3,1.5-1.5,0-2.1,0.3
					c-0.5,0.2-2.2,1.7-1.5,2c0.5-0.2,1-0.8,1.2-0.4c0.3,1.5,0.8,0.2,1.5,0.1c1.6-0.6,0.7,2.1,2.6,1.9c0.2,0,0.4-0.4,0.5-0.1
					c0.1,0.3,0,0.4,0.4,0.4c1.1,0.1,1.3-0.8,1.5-1.6c-0.1-0.6,1.9-0.9,1.6-0.6c-1.3,1,0,1.4,0.6,0.6c0.3-0.2,0.7-0.7,0.9-0.4
					c0.5,0.2-0.7,1.2,0,1.2c2.2-0.3-2.1,1.4-2.2,1.4c-0.2,0.1-0.1,0.2-0.3,0.6c-0.5,0.8-0.9,2.3,0.4,1.7c0.2-0.2,0.3-0.6,0.8-0.3
					c1.1,0.9,2.5,1.9,3.5,0.7c0.4-0.5,0.7-2,1.1-2.4c0.7-0.1,1.5-2.2,1.9-0.6c0,0.4-0.2,1-0.5,1.2c-0.3,0.2-1,0.5-0.5,0.6
					c0.7,0.3,1.6,0.5,1.6-0.4c-0.4-1.4,1-0.7,1.1,0.1c-0.1,0.5,0.2,0.8-0.3,0.8c-1.8-0.3-0.4,1.7-0.8,2.5c-0.4,0.6-1,1.5-0.2,1.9
					c1.2,0.5,0.8-1.1,1.2-1.6c0.2-0.2,0.8-0.7,0.7-0.3c-0.2,0.7-0.5,1.8,0.3,2.2c3.8,0.5,8.4-0.2,12.3-0.6c1.5,0,2.5-1.4,4-0.9
					c0.5,0.2,1.7-0.6,1.6,0.3c-0.2,0.5-1,0.5-1.1,0.8c0.2,0.7-1.5,1.2-0.8,1.5c0.9,0.6,1.7,0.2,2.4-0.1c1.3-0.1-1.5,1.4-0.7,2.7
					c0.6,1.5-0.5,1-0.9,0.4c0-0.3-0.2-0.7-0.5-0.8c-0.3-0.1-1.8-0.1-2-0.1c-1.4,0.6,0.5,0.2,0.7,0.4c1.5,1.5-0.2,0.6-0.9,0.5
					c-0.3,0-2.4-0.2-2,0.1c0.5,0.3,0.8,0.5,0.5,0.6c-2.3,2.6-4.2-2.9-5.5,0.1c0,1.3-1,2-1.7,2.7c-0.9,1.7-2,4.4-3,6
					c-2.4,1.2,1.1,1.2,1.9,1.1c2.4-0.5-1.1,2.5-1.5,2.6c-0.3,0.6-0.1,1.9-0.5,2.5c-1,0.8-1.5,1.8-1.6,3.1c0.1,0.7-0.9,1.6-1.5,1.3
					c-0.3-0.3-0.7-0.5-0.9-0.4c-1,0.3-1.4,1.2-1.9,2c-1,1.5-3.1,3-4.5,4.1c-0.4,1.1-3,1.8-3.7,2.2c-1.4,0.6,0.5,1.2,1,0.8
					c0.8-0.5,1.6-0.2,2.6-0.5c1.2-0.5,1.2-0.6,2.2-0.5c0.7-0.2,0.1-1.1,0.7-1.3c1.1-0.4,1.9,0,3-0.6c0.4-0.4,1.2-0.3,0.9-0.7
					c-0.2-0.4-0.5-0.9-0.5-1.2c1.4-1.4,1,1,1.6,1.4c0.3,0.1,1.1,0.2,1.4,0.4c0.3,0.2,2,0.9,2.2,0.8c1-0.6,6.3-2.4,2.7-0.2
					c-1.3,0.7,0.3,1.5,1,1c0.2-0.3,0.5-1.3,1.2-1.3s2.2,0.2,2.5-0.1c0.6-1.1,1.4-2,2.3-2.6c0.2-0.3,1.5-2.2,1.5-2.5
					c0.1-0.3-0.5-0.8-0.2-1.1c0.6-0.4,2.3-1.7,2.6-0.9c-0.2,0.4-0.2,0.8,0,1c0.1,0.4,0.8,1.5,0.5,1.9c-2.4,2.3,1,0.4,1.8,0.5
					c1,0.5,2.5,0.7,3.3,1.2c0,0.3-1.1,0.9-1.3,0.7c-0.3-0.3-0.5-0.3-0.9-0.3c-6.2-0.1-2.7,2.5-5.8,2.2c-1.5,0.5,0.4-1.3-2.4,0.4
					c-1.9,0.2-5.2,2.6-7.2,1.8c-0.2-0.2-0.5-0.6-0.8-0.5c-0.6,0.3-1.8,0-2.2,0.3c-0.3,1.5-1.3,0.4-2.1,0.3c-1.4,0-3.9-0.9-4.6,0.8
					c0,0.6-0.7,2.4-0.1,2.7c0.4,0,0.9,0.2,1,0.4c0,0.3,0.2,0.7-0.2,0.5c-0.9-0.4-2.2-0.4-2.9,0.3c-0.2,0.3-0.5,1-0.9,1.1
					c-0.5,0.1-1.5,0.6-2.1,0.7c-2.6,0-5.2,1-1.1,1.9c0.4,0.1,0.8-0.1,0.8,0.6c0.2,1.8,0.5,3.1-1.3,4c-0.1,1.2,0.2,1.3,1.3,1.1
					c0.7,0.4,2,0,2.5,0.5c0.2,0.4,0.5,1.2,0.1,1.2s-1.3,0.2-1.6,0.2c-0.4-0.1-0.3-0.9-0.6-0.7c-1.4,1.7-5.1,1.3-5.8-0.8
					c0.1-0.7,0.4-1.6-0.3-2.1c-0.4-0.1-1-0.3-0.7,0.2c1.1,1.6-1.3,3.2-2.6,3.3c-0.3,0.2-1.2,0.4-1.1,0c0.2-0.5,1-2.6,0-2.6
					c-1,0.6-1.6,0.4-2.6,0.7c-1.1,0.3-1.1,1.4-1.9,1.9c-1.4,0-1.5,0.3-1.5,1.5c-0.1,0.4,0.3,1.6-0.2,1.5c-2,0,0-2.2-2.4-0.8
					c-0.9,0.2,0.5,0.9,0,1.2c-1.2,0.3-0.7,2.2-0.5,2.9c0.5,0.9,1.3,0.2,1.9,0.1c0.3,0,0.9,0.2,1.1-0.2c0.2-0.3-0.4-0.9,0-0.9
					c0.5,0.2,2.8,1.5,2.8,0.5c-0.3-0.1-1.1-0.6-0.5-0.7s0.6-0.3,0.8,0.1c0.5,1.2,0.7,0,1.3,0.3c0.2,0.2,0.9,0.9,1.2,0.7
					c1.3-0.4,2.9-0.7,4.3-1.2c2.2-1.1,2,1.8,2.8,1.3c0.2-0.5-0.8-1.5-0.3-1.7c1,0.3,2.1-0.7,2.9-0.1c0.2,0.4,0.6,0.8,0.8,0.6
					c0.3-0.2,0.6-0.4,0.8-0.2c0.3,0.2,1.2,0.9,0.6,0.9c-1.1-0.5-2.3,0.9-3.1,0.5c-0.2-0.3-0.7-0.8-0.7-0.4c0.2,0.7-0.6,0.9-0.6,1.3
					c0.1,0.3,0.4,1.3-0.1,1.3c-0.4,0-1,0.1-0.9-0.4c0.1-0.4-0.2-1-0.3-0.5c0.2,2.2-2.7,1.6-4,2.3c-0.5,0.3-1.9,0.9-2.2,1.1
					c-0.3,0.1-0.7,0.6-0.9,0.7c-0.3,0.1-1.7-0.1-1.7,0.3c0.1,0.3,0,1.2-0.4,1.2c-0.4,0-1.3,0.4-0.9,0.6c0.6,0.4,1.9,1.9,1.2,2.4
					c-0.6-0.1-0.9,0.4-1.7,0.6c-0.9,0.5-1.8,0.4-2.2,0.9c-0.7,2.3,0.5,0.9,1.4,1.7c0.4,1.1-1.1,3.8,1,2c1.1-0.4,0.8-0.8,1.3-1.5
					c0.3-0.2,0.7-0.9,1.1-0.9c1.2-0.1,1.6,1.8,1.3,2.6c0.3,0.7-2,0.7-1.2,0.9c0.5-0.3,1.1,0.5,1.7,0.7c0.4,0.2,0.9-0.1,0.9,0.3
					s-0.4,1.1,0,0.9c1-0.5,2-1.1,2.9-1.6c0.4,0,0.8,0.3,1.2,0c0.7-0.9,1.6-1.3,2.6-1.5c0.3-0.2,1.4-0.8,1.4-0.4
					c0,0.4-0.2,0.7,0.2,0.6c0.3-0.1,0.8-0.1,0.8-0.3c-0.2-0.4,0.6-1.3,0.9-0.9c0.4,0.7,0.5-0.1,0.9-0.3c0.3-0.1,3.1-1.5,3.4-1.5
					c0.3,0.3,2.9-0.7,2.3,0.1c-0.6,0.3-2.1,1.4-2.6,1.4c-1.5-0.5-2.2,0.6-3.1,1.5c-2.3,1.4-0.1,1.3-0.5,1.9c-0.5,0.1-2,0-2,0.2
					c0.1,0.4-1.2,1.4-1.4,1.1c0.2-1.6-1.5,0-2.2,0.3c-2.1,1.7-0.5,0.7,0.1,1.4c-0.3,1.3-1.6,1.6-2.9,1.6c-2.3,0.2-0.8,0.5-0.3,1.3
					c0.3,1.1-1.2,1.7-1.9,1.6c-0.2-0.1-0.6-0.3-0.6,0.1c-0.1,0.4-0.9,1.3-0.4,1.3c0.9-0.2,1.3-1.1,2.4-0.8c1.9,1,1.9-0.3,3.1-0.7
					c1.5,1,1.1-1.1,2-1.4c1.4-0.4,2.5-0.3,3.7-0.4c1.6-0.3,3.6-0.9,5.2-1.3c1.1,0,0.5-0.6,1.1-1c0.3-0.1,1.1-0.3,1-0.7
					c-0.4-3.1,0.6-1,1.2,0.1c0.3,0.2,1.1,0.6,1.2,0.4c0.2-0.3,0-0.6,0.4-0.5c0.9,0.2,0.3,1.6,0,2.2c-3.1,1.1-6.7,2.6-9.5,4.4
					c-0.2,0.2-0.3,0.9-0.8,1.1c-0.5,0.2-1.4,0.4-1.4,0.7c-0.4,1.8,6.3-2.5,7.2-2.6c0.1-0.2,2.1-1,1.8-0.3c-0.3,0.3-0.8,0.2-1,0.5
					c-0.2,0.4-0.3,0.8-0.7,0.9s-0.9,0.4-1,0.6c-0.4,1.2-2,2-3.2,2.1c-0.2,0.2-1.1,0.3-1.1,0.6c0,0.3-0.2,0.7-0.5,0.8
					s-1.6,0.4-1.4,0.7c0.2,0.3,0.4,0.2,0.4,0.6c-0.3,0.9,0.4,1.6,1.1,0.8c0.2-0.3,0.5-0.7,0.5-0.4s-0.1,0.7,0.3,0.5
					c0.4-0.7,1.5-0.2,1.7-0.7c-0.2-0.7,0.1-1.3,0.7-1.6c0.4-0.1,0.4-0.2,0.6-0.4c1-1.6,0.5,1.7,1.7,0.8c0.3-0.3,0.5-0.7,0.7-0.7
					s0.6,0.2,0.8-0.1c0.2-0.3,0.6-1.1,0.7-0.8c0.5,0.8,1.1,0.1,1.7-0.1c0.4,0,1.2,0.1,1.1-0.4c-0.4-0.8-0.6-1.5,0.4-0.8
					c0.4,0.3,1.2,0.4,0.9,0.9c-0.3,0.5-0.9,0.7-0.7,1c0.2,0.3,0.3,0.4,0.3,0.6c0,0.6,0.7,0.3,0.9,0.8c0.1,1.4,1.6,0.6,2.4,0.1
					c1.1-2.1,2,1.8,2.7-0.4c0.2-0.4,0.5-0.3,0.7-0.3c0.6-0.2-0.5-2.1,1.1-0.8c0.3,0.2,0.8-0.8,1.4-1.1c0.9-0.4-1.7-1.2-0.4-1.6
					c0.3-0.2,0.9,0.3,1.2,0.6c1.3,0.8,2.6-1.2,3.8,0.4c0.6,0.3,0.3,2.5,1.1,0.3c0.3-0.3,1.2,0.7,1.1-0.8c0-0.4,0.3-0.3,0.6-0.3
					s0.2-0.4,0.2-0.8s1.7,0,2,0.1c0.3,0.1,0.6,0,0.9-0.1c0.4-0.1,0.2,0.4,0.3,0.8c0.1,0.4,0.6-0.1,0.7-0.3c0.4-0.3,1.6,0.7,1.4-0.5
					c0.4-0.8-0.3-2.6,1.2-2.6c0.9-0.1,2.7-0.1,2.9,1c0.2,0.3,0.2,0.5,0.6,0.6c0.5-0.8-1.3-2.6,0.6-3.8c0.4-0.3-0.1-0.4-0.3-0.7
					c-0.3-0.3,0.6-0.1,0.9,0.2c0.3,0.2,0.1,0.5,0.2,0.8c0.1,0.4,0.5-0.1,0.7-0.5c0.2-0.4,0.4-0.2,0.7-0.1c0.3,0.1,0.4-0.3,0.6-0.5
					c0.7-0.3,1.3-0.5,2.1-0.7c0.4-0.1,0.3-0.2,0.4-0.4c0.1-0.2,0.4-0.5,0.7-0.6c0.3-0.2,1-1.8,0.4-2.1c-0.3-0.2,0.4-0.6,0.7-1
					c0.3-0.6-0.4-1.8-0.9-1.8c-0.4-0.2,0-0.3-0.3-1.3c-0.2-0.7-1.7-0.2-2.3-0.2c-0.5,0.1-0.1-0.5,0.2-0.9c0.6-0.4,2.1,0.5,2.7,1
					c0.3,0.4,1.5-0.6,1.8-0.6c0.6,0,1.2,0.2,1.7-0.2c0.3-0.2,0.3,0.6,0.2,0.8c-0.2,0.8-1.5,1.5-2.2,2c-0.7,0.6,0,1.6,0.8,1.4
					c0.7,0,1.3-0.4,1.8,0.3c0.3,0.2,0.8-0.5,1.1-0.9c0.3-0.5,2.7,0.3,2.8-0.4c2.1-0.5-2.3-2.7,4.5-2.9c0.7-0.1-0.4-0.9-0.7-1.4
					c-0.3-0.5,0.3-0.4,0.6-0.4s0.5-1.3,0.8-1.7c0.5-0.6,1.6,0.5,2.3-0.2c3.8,1.8,0.5-1.6,3.7-1.5c4-0.7,1.4-1.8,3.7-3.5
					c0-0.7-2.4,0.1-2.2-1.4c0.2-1,1.1-0.8,1.6,0.1c0.3,0.3,0.6-0.5,0.7-0.8c0.1-0.3,0.7-0.1,1-0.2c1.2-0.6,2.3-1.8,3.8-1.6
					c1.1,0,2.2,0,3.3-0.3c1.3-0.1,3,0.8,3.5-0.9c0.3-0.4,0.7,0.1,0.9,0.2c0.9,0.1-0.7-1.3,1.3-0.9c0.4,0.1-0.1,1.1-0.5,1.5
					c-0.4,0.9,2-0.1,2.5,0.2c0.4,0.1,0.6-0.6,0.7-1c0-0.7,2.1-1.4,0.2-1.5c-0.3-0.1,0.2-1.6,0.2-2.1c-0.1-0.9-1-1.7-0.7-2.6
					c0-0.3,0.1-0.4,0.4-0.2c0.4,1.3,0.6,2.7,2,3.4c0.5,0.7,0.1,2,0.4,2.8c0.1,0.7-2.3,1.2-0.8,1.8c0.3,0.1,1-1.3,1.3-1.6
					c1.3-1,2.4-0.5,2.2-2.7c0-0.4-0.2-0.3-0.5-0.4c-0.5-0.4,0.3-1,1-0.9c0.2,0,0.6-0.7,0.8-1.1c0.5,0-0.3,1.9-0.6,2.2
					c0.1,0.6,1.3-0.2,1.8-0.2c0.4-0.1,2.6,0.6,2.9,0.7c0.6,0.3,1.8,2.2,2.5,0.5c0.2-0.2,0.8-0.3,1.4-0.3c0.8,0,0.5-1.3,1.4-0.7
					c0.4,0.2,0.1,0.2-0.1,0.7c-0.2,0.5,1.3-0.2,1.6-0.3c2.2-0.9-1.5,2,1.5,0.9c0.3-0.1,0.4-0.7,0.4-1.3c0.6-1.4,1.5-1.8-0.4-2.8
					c-0.8-0.8-1-1.7-0.6-2.8c0.1-0.5-0.3,0-0.5,0.3c-0.9,2-1.7-1-1.3-1.8c0-0.3,0.8-0.2,1.3-0.2c1.5,0.9,0.8,0.3,0.7-1.4
					c0.7-2.9,3.5-5.5,4.7-8.2c0.6-1.7-0.9-3.3-0.6-5.3c0.1-1,1.6-3.3,2.1-4c0.4-0.7-0.1-1.4-0.1-1.8c-0.1-1.1,0.7-2.5,1.1-3.5
					c0.8-0.8,1.6-0.9,1.3-2.3C166.8,122.6,169.7,120.6,167.6,119.5z"/>
			</g>
		</g>
	</g>
</g>
</svg>
