<?xml version="1.0" encoding="utf-8"?>
<!-- Generator: Adobe Illustrator 26.0.3, SVG Export Plug-In . SVG Version: 6.00 Build 0)  -->
<svg version="1.1" id="Layer_1" xmlns="http://www.w3.org/2000/svg" xmlns:xlink="http://www.w3.org/1999/xlink" x="0px" y="0px"
	 viewBox="0 0 200 200" style="enable-background:new 0 0 200 200;" xml:space="preserve">
<style type="text/css">
	.st0{fill-rule:evenodd;clip-rule:evenodd;fill:#1E8346;}
</style>
<g id="Isolation_Mode">
</g>
<g id="Icon">
	<g>
		<path class="st0" d="M116.1,35.6c0,0.1,0.1,0.2,0.1,0.3C116.2,35.8,116.1,35.7,116.1,35.6z"/>
		<path class="st0" d="M116.1,36c0.2,0.1,0.4,0.2,0.6,0.3c-0.1,0.4,0.1,0.5-0.3,0.9c-0.1-0.3,0.1-0.6-0.4-0.4
			C116,36.5,116,36.3,116.1,36z"/>
		<path class="st0" d="M107.2,61.4c1.1,0.1,2.8,0.7,3.7,1.2c0,0.4,0.6,2.9,1.3,3.2c1.7,0.8,0.8,5.6,3,7.4c0,0-0.2,0.9-0.1,1
			c0.2,0,0.4,0.1,0.6,0.1c-1.1-3.8,1.2-9.6-2.8-10.9c0-0.3-0.1-0.7-0.1-1c0.2-0.1,0.4-0.2,0.6-0.3c-1.2-1.8-3.8-7.8-1.3-9.8
			c1.4,1,2,0.4,3,0.9c0,0.3,0.1,0.6,0.1,0.9c1-0.2,1.8-1.2,2.5-0.3c0.1,0.1,1.3,1.5,1.2,1.9c1-0.6,3.5,2.5,3.3,4.1
			c0.4,0.8,1.1,0.8,1,1.2c1.4-0.3,3.4-0.7,4.1-1.3c0,0,0.6-3.2,0.6-3.8c0.9-0.1,0.8-0.2,1.5-0.7c0.1-1.3,0.1-1.5-0.3-2.2
			c0.5-0.6,1-1.1,1.5-1.3c0.6,0.5,2-0.4,3-0.6c-0.1,1.6,1.1,2.8,1.3,4.6c0.1,0,0.3-0.1,0.4-0.1c0-0.1-0.1-0.2-0.1-0.3
			c0.1-0.1,0.2-0.3,0.3-0.4c0.8-0.1,1.7-0.2,2.5-0.3c0,0.2,0,0.5,0,0.7c0.7-0.3,0.4-0.2,0.6-0.9c0.2,0,0.4,0,0.6,0
			c0.1,0.4-0.1,0.2,0.4,0.6c0.2-0.4,0.1-0.9,0-1.3c-0.2,0-0.4,0-0.6,0c0.1,0,0.2,0,0.3,0c0.4-0.3,0.9-0.6,1.3-0.9
			c0.1,0.1,0.2,0.3,0.3,0.4c1-0.3,0.6-0.7,1.2-1c0,0.2,0.1,0.6,0.7,0.9c0.1-1.8,0.6-3.8,1.2-5c-0.4-1.3-1.1-2.4-1.6-3.1
			c0.2-2.2-0.6-3.4-0.9-5.6c0.2-0.3,0.5-0.7,0.7-1c0,0.8-0.2,0.6,0.3,1c-0.1-1.2,0.5-1.3,1.3-1.5c-0.1,0.8-0.3,1.1,0.3,1.5
			c0.1-0.7,0.4-0.6,0.7-1.3c0.1,0.1,0.2,0.2,0.3,0.3c0.1,0.5,0.3,0.6,0.6,1.2c0.3,0,0.6,0,0.9,0c0.2-0.4,0.2-0.9,0.3-1.3
			c0,0,0.1,0,0.1,0c0.1,0.1,0.3,0.3,0.4,0.4c0.2-0.8,0.1-1,0.7-1.5c1.4,0.3,2.5,0.4,3.7,0.6c0,0.8,0.6,1.1,0.9,1.8
			c-0.2,0-0.4,0-0.6,0c0.1,1.1-0.1,1.9,0.6,2.7c1-0.2,2.2,0.7,3.7,1c0,1.5,0.4,2,0,3.4c-0.6,0.5-1.5,0.9-1.8,1.8
			c0.1,0.1,0.2,0.2,0.3,0.3c0.3,0,1,0.3,1.5,0.6c0,0.4-0.1,0.9-0.1,1.3c1-0.1,1.4,0,2.2-0.4c0.1,0.7,0.8,1.5,1.2,1.9
			c0.8-0.1,1.9,1.5,2.5,1.8c0.3-1.2-0.1-4,0.9-4.9c1,0.3,2.9-0.1,3.7-0.6c0-1.6,3-4.1,4.4-4.9c2.7,2.1,2,0,5,0.4
			c-0.6,1-6.3,3.4-7.8,4.7c-0.1,0-0.2-0.1-0.3-0.1c0,0.1,0,0.3,0,0.4c1.3,0.3,1.2,1.8,1.8,1.6c-0.1,3-5.9,2.9-4.1,5.6
			c0.9,0,1.1,0,1.6-0.3c-0.2,0.9-0.1,1.8-0.6,2.5c1.3-0.3,2.3,0.3,3.4,0c0.1,0.4,0.2,0.9,0.3,1.3c0.2,0,0.5,0,0.7,0
			c0.2-0.2,0.5-0.4,0.7-0.6c0-0.3-0.1-0.6-0.1-0.9c0.4-0.1,0.8-0.3,1.2-0.4c0.7,0.3,0.9,0.5,1.3,1c-0.1,0.5,0.1,1.5,0.9,1.3
			c0.2,2.4-0.6,2.9-0.7,4.7c-1,1-1.5,0.5-1.3,1.9c-0.4,0-0.8,0-1.2,0c-0.4,1.9-0.9,2.5-1.8,3.8c0.3,0,0.6-0.1,0.9-0.1
			c0.2-0.3,0.4-0.7,0.6-1c0.2,0.1,0.4,0.2,0.6,0.3c-0.3,0.1-1.5,1.1-1.2,1.3c-0.1,0.7,0,0.6,0.3,0.7c0.3,0.3,0.1,0.2,0.6,0.3
			c0.2-0.5,7.3-3.5,8.3-2.8c-0.7,0.9-0.9,2.1-1.3,3.2c0.4,0.1,0.8,0.9,1.3,1.6c-0.7,1.3-1.6,2.8-2.5,3c0.1,0.3,0.2,0.6,0.3,0.9
			c0-0.1,0-0.2,0-0.3c1.6-1.3,1.9-2.4,3.4-3c0.2,1.2,2,1.7,3.1,2.7c0.1-0.1,0.3-0.3,0.4-0.4c0.2,0.6,0.2,0.6,0.9,0.7
			c0.3-0.7,0.8-0.9,1.3-1.3c0.4,0,0.8,0.1,1.2,0.1c0,0.3,0,0.6,0,0.9c-0.5,0.3-0.4,0.1-0.6,0.7c0.4,0,0.8,0.1,1.2,0.1
			c0,1.2,0.1,1.6,0.7,2.1c0,0,0.1,0,0.1,0c0.2-0.8,0.2-0.9,0.9-1.3c0.2,0,0.5,0,0.7,0c-0.1,0.8-0.3,1,0.4,0.9
			c0.2,0.7,0.1,0.5,0.7,0.7c-0.1,0.6-0.2,1.3-0.3,1.9c-0.5,0-0.2-0.1-0.6,0.1c0.3,0.6,0.5,1.7-0.3,2.2c0.4,0.6,0.3,0.6,0.3,1.2
			c-0.4,0.3-0.8,0.6-1.2,0.9c-0.7-0.1-1.5-0.2-2.2-0.3c0,0.2,0,0.4,0,0.6c0.7,0.3,1.5,0.6,2.2,0.9c-0.1,0.2-0.2,0.5-0.3,0.7
			c-1.7,0-4.4,0.6-4.6,2.1c2.8-0.6,5.8-2.2,7.4-0.3c-1.8,3.2-2.5,2-6.2,2.8c0,0.1,0,0.3,0,0.4c1.6-0.1,4,0.6,5.6,0.3
			c-0.6,2.1-1.4,0.9-2.1,2.1c0.5,0,1,0.1,1.5,0.1c-0.2,0.3-0.4,0.7-0.6,1c0.3-0.2,0.7-0.2,1-0.3c-0.2,0.6-0.1,0.3-0.1,1
			c0.4-0.3,0.2,0,0.3-0.4c0.6-0.2,0.8-1.2,1.2-1.9c0.1,0,0.2,0.1,0.3,0.1c0,1.5,0.1,2,0.4,3.4c-0.8,0.3-1.5,1-1.9,1.8
			c0.4,0.2,0.3,0.4,0.3,0.9c-0.4,0.2-0.9,0.4-1.3,0.6c-0.4-0.4-1.4-0.3-1.9-0.1c-0.4-1.6-2.5-3.5-4.1-3.7c-0.1,0.2-0.1,0.4-0.1,0.6
			c0.3,0.1,0.5,0.4,0.6,1c-1.1-0.5-2.4,0.5-4,0.1c0.1,0.2,0.3,0.5,0.4,0.7c6.4-1.3,5.3,3.2,9.2,3.3c-0.1,0.3-0.2,0.7-0.3,1
			c-1.9-0.3-4-0.3-5.9-1.2c0,0.2-0.1,0.4-0.1,0.6c0.1,0,0.2,0,0.3,0c0.1,0.7,3.5,1.1,4.6,2.5c-0.2,0.4-0.1,0.2-0.1,0.6
			c-0.4,0.3-0.9,0.6-1.3,0.9c-0.5-0.7-1-0.4-1.9-0.6c0,0.1,0,0.3,0,0.4c0.2,0,0.4,0,0.6,0c0.4,0.8,1,0.6,1.3,1.2
			c-0.2,0-0.4-0.1-0.6-0.1c-0.5,0.8-2.3,0.6-3.6,0.4c0,0.2,0,0.5,0,0.7c1,0.2,1,1,1.6,1.8c-1.1,1.1-2.3,1.5-4.4,1.8
			c-1.6-1.6-2-2.6-3.4-3.7c-0.1,0.1-0.3,0.3-0.4,0.4c-0.1,1.4,3,4.1,3.8,4.9c-0.1,0.1-0.2,0.2-0.3,0.3c-1.2-0.3-1.9-0.7-3.8-0.6
			c0,0.2,0,0.4,0,0.6c0.9,0.4,1.3,0.3,1.3,1.5c-0.1,0.1-0.2,0.3-0.3,0.4c-1.3,0.1-2.3-0.4-2.8,1c0.5,0.1,0.3,0.9,0.1,1.3
			c0.1,0,0.3,0.1,0.4,0.1c0.5-0.3,0.6-0.3,1.2-0.3c0.3,1.7-0.7,2.7-0.1,4.1c-0.8,0.1-0.6,0.5-0.7,1.3c-0.7,0-1.4,0-2.1,0
			c1-0.1,1-0.2,1.3-0.6c-0.4-0.1-0.4,0-0.7-0.4c-0.3,0.1-1.5,0.4-1,0c-0.6,0.8-1.2,1.7-1.8,2.5c-0.1,0-0.3,0-0.4,0
			c-0.4-0.4-0.9-0.8-1.3-1.2c0.2,0.8,0.6,1.3,0.1,2.1c-1,0.4-1.6,0.9-1.6,2.1c0.7,0,0.8-0.1,1.2,0.4c-0.7,0.1-1.1,0.9-1.2,1.8
			c-1-0.1-2-0.2-3-0.3c1.2,0,1.3-0.1,2.2-0.4c-0.2-0.9-0.8-0.9-1-1.3c-1.2,0.2-2,0.4-2.2,1.3c-0.1-0.1-0.2-0.2-0.3-0.3
			c0.1-0.4,0.2-0.9,0.3-1.3c-0.7,0-1.6,0.1-1.9-0.1c-0.1,0-0.2,0-0.3,0c0.5-1.2,0-2.3-1.2-2.7c0.8,2.8,0.2,3.1-1.3,5.2
			c-2.1,0.3-4.8,0.8-5.3,2.5c0.3,0,0.6,0,0.9,0c-1.8-0.2-3.4,1.8-4.7,1.5c-0.4,1-1.7,2.6-3,3.5c-0.4-0.5-0.4-0.4-0.7,0.3
			c0.5,0,0.2-0.1,0.6,0.1c-0.1,0-0.2,0-0.3,0c-0.7,0.9-1.4,0.6-1.9,1.8c-0.5-0.4-0.2-0.3-0.9-0.3c-0.9,3.8-6.1,5.6-7.7,7.5
			c-0.1-0.1-0.2-0.2-0.3-0.3c0-0.4-0.9-2.2-1.5-2.5c0,0.3-0.1,0.6-0.1,0.9c-0.1,0-0.2-0.1-0.3-0.1c0-0.6-0.4-1.2-1-1.2
			c0-0.5,0.1-1.1,0.1-1.6c-0.2,0-0.4,0-0.6,0c0.1,1.1-0.1,1.9-0.4,2.8c-0.1,0-0.1,0-0.1,0c0-0.4,0-0.8,0-1.2
			c-0.9,0.3-1.3,1.2-1.8,2.1c0-0.6,0-1.2,0-1.8c-0.2,0-1.2-0.1-0.9,0.3c-0.3,0.3-0.3,1.9-0.6,2.7c0.3,0.6,0.7,0.5,1.3,0.7
			c0,0.1-0.1,0.2-0.1,0.3c-5-0.4-6.2,1.8-9.9,2.8c-0.5-1-0.7-0.7-1-0.4c0.2,0.1,0.5,0.3,0.7,0.4c-1,2.8-3.7,9.5-8,9.6
			c0.2-0.9-0.6-2.2-1.5-2.5c0,0.1-0.1,0.3-0.1,0.4c0.4,0.2,0.9,2.5,0.9,2.7c-4-0.7-8.1,4.1-11.5,1.3c-0.6-0.2-2.8,0.6-2.4,0
			c-0.5-0.2-1-0.4-1.5-0.6c-0.1,0.2-0.2,0.4-0.1,0.6c0.3,0.1,0.7,0.2,1,0.3c0,0,0,0.1,0,0.1c-0.2,0-0.5,0.1-0.7,0.1
			c-0.2-0.6-4-2.6-4.7-2.2c0-0.7-0.1-1.5-0.1-2.2c-1.3,0-2.5-0.1-3.4,0.4c-0.2-0.1-2.2-1.7-2.5-1.6c-9.4,0.3-8.2-1-13.9-6.4
			c0.1-0.9,0.4-1.4,0.7-2.2c-0.1,0-0.2,0.1-0.3,0.1c-0.2,0.4-0.8,1.2-1.2,1.5c-0.7-0.7-1.4-1.5-2.1-2.2c0.7-1,1-2.7,0.4-4.4
			c-0.2,0-0.5,0.1-0.7,0.1c0.1,0.9,0.4,2.1,0.3,1.9c-0.1,1.3-1,2-2.2,1.9c0,0-6.4-3.5-6.4-3.5c0.4-0.9-0.3-1.4,0-2.2
			c-0.1,0-0.2,0.1-0.3,0.1c-0.2,0-0.4-0.1-0.6-0.1c-0.3,0.3-0.6,0.6-0.9,0.9c0,0.6,0,0.6,0.6,1c-0.4,0-0.9,0-1.3,0
			c0-0.3,0.1-0.6,0.1-0.9c-1.4,0.2-6,3.1-5.8,2.2c-1,0.3-0.1-0.4-0.3-0.9c-1.2-0.1-4.9,1.4-6.7,1.9c-1.1,0.4-3.2-1.1-5.2-1
			c-0.1,0.3-0.2,0.7-0.3,1c-1.2-0.5-1.2,0-2.2-0.1c0,0.6,0.1,0.3-0.1,0.7c-1.2-0.2-1.7-0.2-3.3,0.3c-0.1-0.3-0.3-0.6-0.4-0.9
			c1.4-0.5,0.3-1.4,0-2.5c0.5-0.3,1.5-1.8,1.6-2.2c-1.1,0-1.8-0.5-1.9-1.5c1-0.6,1-2.9,0.9-3.7c0.2,0,0.5-0.1,0.7-0.1
			c0,0.1,0,0.2,0,0.3c1.9,1.4,1.6,2.9,2.4,4c0.7,0,1.5,0,2.2,0c0.2-0.6,0.2-0.9,0.6-1.3c0.9-0.2,1.6-0.5,2.4-0.9
			c0.8,1.2,4.4-1.6,4.6-1.3c0-0.1,0-0.3,0-0.4c-0.3-0.4-0.7-0.9-1.3-1c0.7-1,1.3-0.2,2.1,0.3c0-0.3-0.1-0.6-0.1-0.9
			c-0.2-0.1-0.4-1.3-1-1.2c0.2-0.3,1.2-0.8,0.7-0.1c1.3,0.1,1.3,0,2.2,0.3c0.1-0.6,0.7-0.7,1.5-1c0-0.1,0-0.3,0-0.4
			c-0.2,0-0.5,0-0.7,0c0.2-0.6,0.1-0.1,0-0.7c0.6,0,0.6,0.4,0.9-0.4c-0.5-0.1-1.1-0.1-1.6-0.1c0.2-0.6,0.2-0.7-0.3-1
			c-0.8-0.2-0.6,0.4-1.2-0.1c2.1-0.8,1.3-4.4,4.9-3.7c0-0.2,0-0.4,0-0.6c-0.7-0.1-0.4,0.3-0.7-0.4c0.1,0,0.2,0.1,0.3,0.1
			c0.5-0.3,1-0.6,1.5-0.9c0,0.2-0.1,0.5-0.1,0.7c1,0,2,0.1,3,0.1c0-0.1,0-0.3,0-0.4c-0.2-0.2,0.5-0.5,0.7-0.4
			c-0.3-0.4-0.5-0.3-0.7-0.4c-0.4,0.3-0.3,0.4-0.9,0.6c0-0.1,0-0.1,0-0.1c0.2-0.2,0.4-0.4,0.6-0.6c0-0.1-0.1-0.1-0.1-0.1
			c-6.9-1.5-6.7,5.9-11.2,3.1c0.1-0.1,0.2-0.2,0.3-0.3c0.3-1.4,1.7-1.3,3.1-2.1c0-0.1,0-0.3,0-0.4c-0.1,0-0.2,0-0.3,0
			c-0.9-1-1.4,0.4-2.4-0.6c1.2-4.1,1.3-3.8,4.4-5.3c0-0.1,0-0.3,0-0.4c-0.6-0.2-0.1,0-0.4-0.4c0.2-0.3,0.5-0.6,0.7-0.9
			c-0.1-0.1-0.2-0.2-0.3-0.3c-0.5,0.2-2.4,0.9-2.2,1.8c-0.3-0.1-0.7-0.3-1-0.4c-0.2,0.9-0.5,0.7-0.9,1.3c-0.4-0.5-0.1-0.2-0.7-0.4
			c0,0.8-0.2,1.6-0.6,2.5c-0.7,0-1.5,0-2.2,0c-0.3-1.5-0.5-3.2-0.7-4.3c-0.7,0.2-1.1,0.7-1.2,1.2c-0.2-0.2-0.4-0.4-0.6-0.6
			c0,0,0.3-4.6,0.4-5.3c-0.6-0.1-0.3,0.1-0.7-0.3c0-0.1,0-0.1,0-0.1c0.4-0.5,0.5-0.5,0.6-0.7c0.4-0.4,0.7-1.4,0.3-1.9
			c-0.5,0-1,0-1.5,0c0.2-1.7-0.8-1.3-1.9-1.8c-0.6,0.4-0.8,0.5-0.9,1.5c-0.5-0.1-0.6-0.2-1.2,0.1c-0.1-0.7-0.2-1.2-0.4-1.5
			c-4.3,1.1-7.6-0.6-12.1-0.9c-0.1,0.3-0.3,0.7-0.4,1c-0.4-0.2-0.6,0.6-0.6,0.6c-1-0.5-1.8-1.1-3.1-0.4c-0.1,2.3-4,4-5.3,1.8
			c-1.1-0.8-1.7-3.5-2.4-4.9c1.9-0.7,2.2-1.2,3.6-2.1c1.1,0.7,2.5,1,3.7,1.6c0.4-0.4,3-2.4,3-2.4c0.5,0,1,0,1.5,0
			c-0.2-0.5,0-0.4-0.3-0.7c0.2-0.1,0.5-0.2,0.7-0.3c0,0.1,0,0.2,0,0.3c0.3,0.4,0.7,0.8,1,1.2c-0.5,0.1,0,0-0.3,0.6
			c0.6,0,1.2-0.1,1.8-0.1c-0.2-1,0-1.6-0.4-2.5c0.2-0.4,0.4-0.8,0.6-1.2c0.6,0.3,0.8,0.3,1.6,0.6c-0.3,0.7-0.7,1.5-1,2.2
			c0.4,0.6,0.7,1.1,1.3,1.5c0-0.6-0.1-1.3-0.1-1.9c0.5,0,1,0,1.5,0c-0.2-0.3-0.5-0.6-0.7-0.9c0.1-0.3,0.3-0.7,0.4-1
			c0.3,0.5,0.8-0.1,1.3-0.1c0.1,0.3,0.3,0.6,0.4,0.9c0.8-0.7,1.6-1,2.7-1.3c0,0,0-0.1,0-0.1c-0.4-0.2-0.5-0.2-1.2-0.1
			c0.6-0.7,1.2-1.4,1.8-2.1c0.1,0,0.3,0,0.4,0c0.2,0.2,0.4,0.4,0.6,0.6c-0.3,0.9,0,1.7,0,2.5c0.8,0.2,0.6,0.3,1.5,0.6
			c-0.3-0.5-0.3-1-0.4-1.5c0.5-0.2,1.1-0.5,1.6-1.3c0.3,0.1,5.1,0.3,5.2,0.3c0.2,1.3,5.9,0.2,7.5,0.9c0-0.1,0-0.3,0-0.4
			c0.4-0.3,0,0,0.3-0.4c-0.3-0.4-0.6-0.9-0.9-1.3c1.5-0.6,2.6-3.7,1.6-5.3c-0.5,0-1,0-1.5,0c-0.5,5.4-9.8,3.9-9.6,1.5
			c-1.3,0.1-1.6,0.6-3.1,0.3c0-0.2,0.1-0.4,0.1-0.6c0.5-0.1,1-0.2,1.5-0.3c-0.5-0.6-0.5-0.8-0.7-1.5c0.8-0.4,2.1-1.7,1.9-2.2
			c0.6,0,0.3,0.1,0.7-0.1c0-0.3-0.1-0.6-0.1-0.9c1.2,0.3,2.6-0.4,3.7-0.6c0.4-2.4,4.3-2.3,4-4.3c0.4,0.2,0.9,0.4,1.3,0.6
			c0.8-0.8,2.7-0.8,2.7-2.4c-0.7,0.1-1.3,0.4-1.9,0.9c-0.5-0.9-1.8-0.7-2.4-0.6c0.3-0.9-0.7-2.3-1.8-2.5c0,0.5,0.1,1,0.1,1.5
			c-0.2-0.1-0.4-0.2-0.6-0.3c0.3-0.3,0-1.5-0.6-2.1c-0.1,0-0.3,0-0.4,0c0.1,2.3-1,2.3-1.2,4.1c-0.5-0.1-0.4,0-1,0.1
			c0-0.9-1.8-1.4-2.5-2.5c0.1,0,0.3-0.1,0.4-0.1c0.2-0.3,2.2-0.7,2.4-0.6c1.2-0.9,1.2-2.4,1.9-3.5c-0.3,0.2-0.5,0.1-0.9,0.3
			C43.3,80,42.4,79,41.4,80c-0.1-0.2-0.3-0.4-0.4-0.6c0.7-0.1,0.6,0,0.7-0.6c0.3-0.3,0.1-0.1,0.3-0.6c-1,0.3-1.1,1-1.8,1.5
			c-0.2-0.5-0.1-0.4-0.4-0.7c0,0.3-0.1,0.7-0.1,1c0.1,0,0.2-0.1,0.3-0.1c-0.3,0.3-0.6,0.7-0.9,1c-0.6-0.2-0.3-0.1-0.4-0.4
			c-0.1,0-0.2,0.1-0.3,0.1c0.2-1.8,0.4-4.3-1-5c0,1.2,0.1,2.5,0.1,3.7c-0.1,0-0.3,0.1-0.4,0.1c-0.1,0-0.3-0.1-0.4-0.1
			c0-0.8,0-1.7,0-2.5c-0.1,0-0.3,0-0.4,0c0.3,1.3,0,2-0.3,3.5c0,0-0.1,0-0.1,0c-1.3-1.3-1-2.3-0.3-4.1c-0.3-0.3-0.1,0-0.1-0.4
			c-1.2,0.2-0.5,0-1.8-0.1c0,0.9,0.2,0.7-0.3,1.2c-0.3-0.4-0.3-0.3-1-0.3c0,0.8-0.3,1.3-1,1.8c-0.1-1.1-0.2-0.7-0.3-1.6
			c-0.2,0-0.4,0-0.6,0c0.4,1.3-0.5,2-1.2,2.8c-1.1-0.3-2.2-0.2-2.1-1.8c-0.9,0.4-1.5,2.1-0.6,3c-0.1,0.3-0.3,0.6-0.4,0.9
			c-2.7-0.6-4.9-0.2-7.2,1c-0.7,0.2-0.9,0-0.7,0.6c-0.8,0.4-0.8,1.1-1.2,1.5c-1.3-0.2-2.8,0.1-4.3,0.1c0-0.6,0-0.9-0.1-1.5
			c0.1,0.1,0.3,0.2,0.4,0.3c0-0.4,0.1-0.8,0.1-1.2c-0.5,0-0.9-0.2-1.5-0.1c-0.1,0.4,0.1,0.1-0.1,0.4c-0.9-2.3-6-2.1-7.4-1
			c-0.3-0.2-0.6-0.5-0.9-0.7c5-2.6,1.6-4.4,4.1-5.6l4.3,3.2c1.4,0,1.9,0.3,2.2,1.6c0.4,0.1,0.8,0.3,1.2,0.4c0.6-0.5,0.2-0.5,1.2-0.7
			c-0.3-0.3-1.4-0.5-1.5-0.4c-1.3-1.2-2.7-3.1-3.7-4.4c0,0,0.1-0.1,0.1-0.1c2.1,0.4,2.6,1,4.7,1.9c0,0,0-0.1,0-0.1
			c-2.4-3.8-5.7-2.6-5.6-8.1c2.2-0.8,7.9,4.3,9.3,5.2c0.1-0.1,0.2-0.2,0.3-0.3c0,1.1,0,2.3,0,3.4c0.4-0.1,0.7,0.1,0.4-0.3
			c0.5-0.3,0.5-0.5,0.4-0.9c0.8,0,0.6-0.1,1.2-0.1c0.4,0.4,0.3,0.5,1,0.6c0.1-0.2,0.2-0.4,0.1-0.6c-0.2-0.1-0.4-0.3-0.6-0.4
			c0.8-0.4,1.7-0.8,2.5-1.2c-0.1-0.1-0.2-0.2-0.3-0.3c-1.2,0.3-4.1,0.5-4.1-1.9c2.3,0,3.8-0.5,5.3,0c0-0.5,0-1.1,0-1.6
			c0.7-0.1,0.8,0.1,0.6-0.4c0-0.1,0.1-0.2,0.1-0.3c-0.1,0-0.2-0.1-0.3-0.1c-4.5,1.6-12.7,1.5-11.4-5.6c0.3-0.1,0.7-0.2,1-0.3
			c1.4,0.9,2.4,1.2,3.3,2.2c0.5-0.1,1.1-0.2,1.6-0.3c0.8,1.2,4.9,1.7,5,1.3c-0.9,0.2-3.8-1.2-3.8-1.6c-0.5-0.1-0.3-0.1-0.7-0.7
			c-3.2,0-5-5-6.1-5.5c0.5-0.6,0.4-1.3,1.3-1.6c1.8,0.7,3.6,1.6,5.5,2.2c-0.2-1-0.6-1.2-1.2-1.5c-0.1,0.1-0.2,0.2-0.3,0.3
			c-0.1-1.2-1.7-2-2.5-3c0,0,0.1-0.1,0.1-0.1c0.8-0.1,1.6-0.2,2.4-0.3c0.7,0.5,1.5,1,2.2,1.5c-1.3-1.9-1.4-1.5-3.4-2.5
			c0.1-0.2,0.2-0.5,0.3-0.7c1-0.2,1.3-0.6,2.2-1.3c3.2,1.4,7.1,2.6,4.9,6.4c0,0,0.1,0,0.1,0c1-0.9,1.1-1.7,2.2-2.1
			c0,0.1-0.1,0.2-0.1,0.3c0.2,0.1,0.5,0.2,0.7,0.3c0.4,2.1-0.4,3.3-1.5,5c1.7-0.8,1.6-2.1,2.5-3c0,0.2,0,0.4,0,0.6
			c0.4,0.3,0,0,0.3,0.4c-0.5,0.3-0.6,0.4-0.6,1.3c0.2,0,0.4-0.1,0.6-0.1c0.2-0.8,0.9-1.3,0.4-2.4c0.1,0,0.3,0.1,0.4,0.1
			c0,1.6-0.8,4.5-2.2,4.9c0,0.2,0,0.5,0,0.7c1.6-0.5,2.5-2.8,2.4-3.8c0.2,0,0.5-0.1,0.7-0.1c-0.2,1.4-0.5,2.9-0.7,4.3
			c0,0,0.1,0,0.1,0c0.4-0.4,0.2-0.2,0.3-0.6c1.5-0.9,0.3-4.2,1.2-6.1c3.5,2.2,3.7,4.6,2.1,9.2c0,0,0.1,0.1,0.1,0.1
			c1.1-2,1.1-4,1.9-6.1c0.1,0,0.3,0.1,0.4,0.1c-0.1,0.7-0.2,1.4,0.6,1.3c0.1,0.2,0.2,0.4,0.3,0.6c0.3,0.1,0.3,0.3,0.6,0.7
			c-0.3,1.1-0.7,2.3-1,3.4c0.1,0,0.2-0.1,0.3-0.1c0,0,0.1,0.1,0.1,0.1c0.8-0.7,1.3-2.2,1.6-3.7c-0.3-0.5-1-2.1-0.6-3
			c-0.5-1.1-1.4-1.2-1.8-2.1c0.7-0.2,0.8-2,1.8-1.8c-0.1-0.2-0.2-0.4-0.3-0.6c-0.9,0.3-0.8,0.3-1.8,0.6c-0.8-0.8-5.3-3.5-6.4-3.4
			c-0.5-0.5-2.2-3.6-1.5-3.3c2.5-2.7,4.9-0.2,7.2,0.7c0-0.1,0.1-0.3,0.1-0.4c-0.2-0.1-0.4-0.3-0.6-0.4c0.6-0.7,2.7-1.1,3.1-1.2
			c-0.1-0.8-0.1-0.3-0.6-0.6c-0.2,0.3-1.4,0.8-2.1,0.3c-0.1,0-0.2,0-0.3,0c0.8-1.1,1.5-0.8,1.3-2.2c-0.1,0-0.3,0-0.4,0
			c-0.5,0.5-1.1,1-1.6,1.5c-2.1,0-1.7-2.7-0.3-3c0-0.1,0-0.3,0-0.4c-0.4,0-0.8,0-1.2,0c-0.6,1-1.1,2.1-2.7,2.4
			c-0.1-0.6,0.1-1.1,0.4-1.6c-0.4,0.2-0.7,0-0.9,0.4c-1.2,3-3.7,1.2-5.8-0.3c0-0.2,0.1-0.4,0.1-0.6c0.2,0,0.4,0,0.6,0
			c0.2,0.4,1,0.4,1.3,0.6c1.1-0.5,0.7-0.7,1-1.8c-1.1-1-2.2-1.4-1.3-2.2c0.6,1,3.3,0.6,2.7-1.3c1.2,0.1,2.7,0.8,3,1.3
			c1,0,0.4,0.3,1,1c0.4-0.1,0.8-0.2,1.2-0.3c0.2-0.4,0.4-0.8,0.6-1.2c0-0.3-0.1-0.6-0.1-0.9c0,0,0.1,0,0.1,0
			c0.9,0.7,1.8,1.5,2.7,2.2c0.1-0.1,0.2-0.3,0.3-0.4c-0.1-0.8-0.4-1.2,0-1.6c0,0.1,0,0.2,0,0.3c0.5,0.4,1.5,2.4,1.2,2.8
			c1.5,0.2,2.3,2.1,2.8,3c-0.5,0.3-0.4,2.3-0.3,2.8c0.5-0.1,1-0.4,1.5-0.6c-0.1,0.8-0.3,0.4,0,0.9c0.4-0.4,0.2-0.2,0.3-0.6
			c0.2-0.2,0.4-0.4,0.6-0.6c0,0.9,0.1,1,0.4,1.3c0.6-0.2,1.2-0.5,1.8-0.7c0.2,0.8,0.4,1.1,0.7,1.6c-0.3,0.3-0.6,0.7-0.9,1
			c0,0,0.1,0,0.1,0c0.1-0.1,0.3-0.3,0.4-0.4c1,0.9,1.9,1.8,3,1.5c0,0.3,0,0.7,0,1c0.2,0,0.5-0.1,0.7-0.1c-0.5,2-0.5,2.4,0,4.6
			c0.8,0.1,0.7-0.1,1.3-0.4c0.1,0.9,0.1,0.7,0,1.6c0.2,0,0.4,0,0.6,0c0-0.1,0-0.3,0-0.4c0.6-0.6,0.2-1.2-0.3-1.8
			c0.8-0.3,0.9-0.2,1.6-0.6c0,0.5-0.1,0.9,0.6,1.2c0,0.2,0,0.4,0,0.6c-0.7-0.1-0.7-0.1-1.2,0.1c0.4,0.5,0.9,0.9,0.9,1.5
			c0.9-0.3,2.6-0.8,3.1,0.3c0.3,0.2,0.2,0.2,0.4,0.7c-2.6-0.3-3.2,0.6-5.2,1c0.3,0.6,0.4,0.9,1.3,0.9c0.4-0.8,1.9-0.7,2.7-0.6
			c0,0.1-0.1,0.2-0.1,0.3c-0.4,0.1-0.8,0.3-1.2,0.4c0.7,0.7,2,0.2,3,0.4c0.1,0.5,0.2,1,0.3,1.5c-0.5,0.3-0.9,0.6-0.6,1.3
			c-0.4-0.1-0.9-0.2-1.3-0.3c0.5,0.6,1.1,0.5,1.6,0.7C58.3,69.1,56.4,69,56,70c0.1,0.1,0.2,0.2,0.3,0.3c0.3,0,0.7-0.1,1-0.1
			c0,0.7,0.2,0.5,0.7,0.6c-0.5,0.8-1,1.7-1.5,2.5c-0.9-0.2-1.9-0.4-2.8-0.6c-0.4-1.4-1.3-3.3-3-3.1c-0.1,0.2-0.2,0.4-0.1,0.6
			c1.2,0.4,2.8,1.9,1.3,2.7c1.9,3.6,2.4,1.4,5.3,3.1c0,0.1,0,0.3,0,0.4c-0.8,0.5-1.6,1.2-1.6,2.5c1.4-0.3,1.4-1.2,2.4-1.9
			c0.3,0.1,0.6,0.2,0.9,0.3c0,3.9-1.8,3.6-2.5,5.9c0,0,0.1,0,0.1,0c0,0,0.1-0.1,0.1-0.1c1.1,0.1,1.4-0.8,2.5-0.9
			c0.3,0.5,0.3,1.6,1.6,1.8c-1.4,2.4,1.5,8.4,1.6,11.7c0.2,0,0.4,0,0.6,0c-0.3-2.1,0-10.9-0.7-12.1c0-0.1,0.1-0.2,0.1-0.3
			c0.3,0,0.6,0,0.9,0c0,1.3,0.6,3.9,2.2,4.4c0-0.1,0.1-0.2,0.1-0.3c-0.9-1.4-0.6-4.1-1.5-5.6c0.5-1.6,1-3.3,1.5-4.9
			c0.7-0.4,1.4-0.9,2.1-1.3c0.9-0.9,0.5-1.7,2.2-2.1c0.4,0.6,0,0,0.6,0.4c-0.1,1.9-0.3,3.7-0.4,5.6c0.8-0.3,0.4-0.3,0.6-0.9
			c0.7,0.2,0.4,0.2,0.9-0.4c-0.1,2.3,0.3,2,0.9,3.4c0.4-0.1,0.8-0.2,1.2-0.3c-0.2-1.2,1-2.1,0-2.7c-0.3-0.6-0.1,0-0.7-0.4
			c0.3-1.1,0.6-1,1.8-1.2c0,0.6,0,1.2,0,1.8c0.1-0.1,0.2-0.2,0.3-0.3c-0.2-0.5,1.5-5.3,1.9-6.8c-0.5-1.2,0-3.8-1.2-4.3
			c0.2-0.7,0.1-1.2,0.4-1.8c-0.8-1.8-1-4.9-2.2-6.5c-0.3-0.4,0.7-1.8,0.1-2.7c0.3-0.1,0.7-0.2,1-0.3c0,0.1-0.1,0.3-0.1,0.4
			c1.2-0.4,2.7-1.2,3.6-1.8c0.4,0.1,0.9,0.2,1.3,0.3c0,2.4,4.6,7.4,3.8,9.5c3.7-0.3,3.1,3.6,4.1,6.4c0.5,0.1,1.1,0.3,1.6,0.4
			c-0.3-0.4-0.1-0.9-0.1-1.3c0.1,0,0.3,0,0.4,0c-0.1,0.9,1,1.4,1.9,1.2c0.9-3.9,1.1-5.8-0.9-8.7c0.6-0.1,0.5,0.1,0.9-0.3
			c-0.2-0.5-0.2-2.9-0.4-4.1c2-1.6,3.6-1.9,5.5-0.7c-0.1-0.4-0.2-0.8-0.4-1.2c0.2,0,0.4,0.1,0.6,0.1c0.1,0.3,0.5,1,1,1
			c-0.7-1.6-0.8-4,1.3-4.9c0-0.1,0-0.2,0-0.3c0.4,0,0.8,0.1,1.2,0.1c0,0.5,0,1,0,1.5c0.8-0.2,0.9-0.7,1.2-1
			c-0.1-0.4-0.1-0.9-0.1-1.3c0.1,0,0.3,0,0.4,0c0.4,0.3,0.3,0.3,1,0.4c-0.2,0.8-0.4,1.7-0.6,2.5c0.8-0.2,1.3-0.8,1.6-1.2
			c0.8,0.3,2,1.8,1.3,2.2c-0.1,0.3-0.6,0.6-0.7,1.3c0.1,0,0.2,0.1,0.3,0.1c0.4-0.4,1.5-0.6,2.1-0.3
			C107.1,57.8,107.2,59.6,107.2,61.4z"/>
		<path class="st0" d="M38.6,39.9c0.1,0.1,0.2,0.2,0.3,0.3C38.7,40.1,38.6,40,38.6,39.9z"/>
		<path class="st0" d="M28.8,42.1c0,0.1-0.1,0.3-0.1,0.4c0.2-0.1,0.4-0.3,0.6-0.4C29.1,42.1,28.9,42.1,28.8,42.1z"/>
		<path class="st0" d="M156.3,48.7c0.1,0,0.2,0,0.3,0C156.5,48.7,156.4,48.7,156.3,48.7z"/>
		<path class="st0" d="M131.1,51.2c0.1,0,0.2,0,0.3,0C131.3,51.2,131.2,51.2,131.1,51.2z"/>
		<path class="st0" d="M141.2,52.3c0.1,0.1,0.2,0.2,0.3,0.3C141.4,52.5,141.3,52.4,141.2,52.3z"/>
		<path class="st0" d="M118.9,52.6c0.1,0.1,0.2,0.2,0.3,0.3c-0.2,0.1-0.4,0.2-0.6,0.3C118.7,53,118.8,52.8,118.9,52.6z"/>
		<path class="st0" d="M137.8,54.2c0.1,0.1,0.2,0.2,0.3,0.3C138,54.4,137.9,54.3,137.8,54.2z"/>
		<path class="st0" d="M138.1,54.2c0.1,0,0.2,0,0.3,0C138.3,54.2,138.2,54.2,138.1,54.2z"/>
		<path class="st0" d="M109.1,59.1c0.1,0,0.2,0,0.3,0C109.3,59.1,109.2,59.1,109.1,59.1z"/>
		<path class="st0" d="M109.4,59.4c0.3,0.3,0.6,0.6,0.9,0.9c-0.1,0.2-0.2,0.4-0.3,0.6c-0.2-0.2-0.5-0.4-0.7-0.6
			C109.3,60,109.4,59.7,109.4,59.4z"/>
		<path class="st0" d="M30.4,61c0.3,0.3,0,0.2,0.4,0.1C30.7,61.1,30.6,61,30.4,61z"/>
		<path class="st0" d="M91.1,61c0.1,0,0.3,0,0.4,0C91.4,61,91.2,61,91.1,61z"/>
		<path class="st0" d="M90.2,61.1c0.3,0,0.6,0,0.9,0c-0.3,0.5-0.5,0.6-0.4,1c-0.4-0.3-0.2,0-0.3-0.4C90,61.4,90.2,61.6,90.2,61.1z"
			/>
		<path class="st0" d="M57.5,61.6c0,0.1,0.1,0.2,0.1,0.3C57.6,61.8,57.5,61.7,57.5,61.6z"/>
		<path class="st0" d="M172.1,69c0,0.1,0.1,0.2,0.1,0.3c-0.1,0-0.2,0-0.3,0C172,69.2,172.1,69.1,172.1,69z"/>
		<path class="st0" d="M20.1,70.3c0.1,0,0.2,0,0.3,0C20.3,70.3,20.2,70.3,20.1,70.3z"/>
		<path class="st0" d="M58.2,70.9c0,0.1,0.1,0.2,0.1,0.3C58.3,71.1,58.3,71,58.2,70.9z"/>
		<path class="st0" d="M22.1,74.6c0.1,0,0.2,0,0.3,0C22.3,74.6,22.2,74.6,22.1,74.6z"/>
		<path class="st0" d="M33.4,77.2c0.8,0.5,0.8,3,1,3.5c0,0.1-0.1,0.2-0.1,0.3c-0.2,0-0.5-0.1-0.7-0.1c0.1-0.9-0.9-1.4-1.5-1.5
			C32.5,78.7,32.9,78,33.4,77.2z"/>
		<path class="st0" d="M47.9,83.2c-0.1,0.1,0,0.2-0.3,0.1C47.7,83.2,47.8,83.2,47.9,83.2z"/>
		<path class="st0" d="M61,89.7c0.1,0.1,0.2,0.2,0.3,0.3C61.2,89.8,61.1,89.8,61,89.7z"/>
		<path class="st0" d="M37.1,93.6c0,0.1,0.1,0.2,0.1,0.3C37.2,93.8,37.1,93.7,37.1,93.6z"/>
		<path class="st0" d="M36.6,93.9c0,0.1,0.1,0.2,0.1,0.3c-0.1,0-0.2,0-0.3,0C36.5,94.1,36.6,94,36.6,93.9z"/>
		<path class="st0" d="M37.2,93.9c0.1,0,0.2,0,0.3,0c-0.3,0.3,0,0.1-0.4,0.3C37.1,94.1,37.2,94,37.2,93.9z"/>
		<path class="st0" d="M36.2,94.2c0.1,0,0.2,0,0.3,0C36.4,94.2,36.3,94.2,36.2,94.2z"/>
		<path class="st0" d="M194.2,95.1c0.1,0.1,0.1,0.3,0.1,0.4c-0.1,0-0.2-0.1-0.3-0.1C194.1,95.3,194.1,95.2,194.2,95.1z"/>
		<path class="st0" d="M35.3,95.3c0,0.1,0.1,0.2,0.1,0.3c-0.1,0-0.2,0-0.3,0C35.2,95.5,35.2,95.4,35.3,95.3z"/>
		<path class="st0" d="M38,95.4c0.1,0,0.3,0,0.4,0C38.3,95.4,38.1,95.4,38,95.4z"/>
		<path class="st0" d="M37.8,96.2c0,0.1,0.1,0.2,0.1,0.3C37.9,96.4,37.9,96.3,37.8,96.2z"/>
		<path class="st0" d="M36.2,97.2c0.1,0,0.2,0,0.3,0C36.4,97.2,36.3,97.2,36.2,97.2z"/>
		<path class="st0" d="M38.1,97.9c0.3,0.4,0.1,0.4,0.7,0.6c0.2-0.4-0.1-0.1,0.3-0.3c0,0.2,0.1,0.4,0.1,0.6c-0.1,0-0.2-0.1-0.3-0.1
			c-0.1,0.1-0.2,0.3-0.3,0.4c-0.3-0.3-0.3-0.2-0.9-0.3C37.8,98.5,38,98.2,38.1,97.9z"/>
		<path class="st0" d="M33.7,98.5c0.1,0,0.2,0,0.3,0C33.9,98.5,33.8,98.5,33.7,98.5z"/>
		<path class="st0" d="M31.9,100.6c0.1,0,0.2,0,0.3,0C31.9,100.7,32.2,100.7,31.9,100.6z"/>
		<path class="st0" d="M23.6,104.1c-0.1,0.1-0.2,0.3-0.3,0.4c0.1,0,0.2-0.1,0.3-0.1c0,0.1,0,0.2,0,0.3c0.1,0,0.2,0,0.3,0
			C23.8,104.2,23.9,104.4,23.6,104.1z"/>
		<path class="st0" d="M188.7,109.7c0,0.1,0.1,0.2,0.1,0.3C188.8,109.9,188.7,109.8,188.7,109.7z"/>
		<path class="st0" d="M34.3,110.8c0,0.1,0.1,0.2,0.1,0.3C34.4,111,34.3,110.9,34.3,110.8z"/>
		<path class="st0" d="M36.9,110.8c0,0.1,0.1,0.2,0.1,0.3C37,111,37,110.9,36.9,110.8z"/>
		<path class="st0" d="M35,110.9c0.1,0,0.3,0,0.4,0c0,0.1,0,0.1,0,0.1C35,111,35.3,111.3,35,110.9z"/>
		<path class="st0" d="M39.9,114.5c0.1,0,0.3,0,0.4,0C39.9,114.7,40.2,114.7,39.9,114.5z"/>
		<path class="st0" d="M39.6,114.8c0.1,0.1,0.3,0.3,0.4,0.4c-0.1,0-0.3,0-0.4,0C39.6,115.1,39.6,114.9,39.6,114.8z"/>
		<path class="st0" d="M181.3,115.5c0,0.1,0.1,0.2,0.1,0.3C181.4,115.7,181.3,115.6,181.3,115.5z"/>
		<path class="st0" d="M182.8,118.2c0.1,0,0.3,0,0.4,0c0,0.2,0,0.4,0,0.6c-0.2,0-0.4-0.1-0.6-0.1
			C182.7,118.5,182.7,118.3,182.8,118.2z"/>
		<path class="st0" d="M45.9,120.1c0,0.1,0,0.3,0,0.4c0.1,0.1,0.3,0.2,0.4,0.3c0-0.2,0-0.5,0-0.7C46.2,120.1,46.1,120.1,45.9,120.1z
			"/>
		<path class="st0" d="M49.9,120.2c0,0.1,0.1,0.2,0.1,0.3C50,120.4,50,120.3,49.9,120.2z"/>
		<path class="st0" d="M42,120.4c0.1,0,0.2,0,0.3,0C42.2,120.4,42.1,120.4,42,120.4z"/>
		<path class="st0" d="M177.6,120.4c0,0.1,0.1,0.2,0.1,0.3C177.7,120.6,177.6,120.5,177.6,120.4z"/>
		<path class="st0" d="M40.9,120.8c0,0.2,0,0.4,0,0.6c-0.1-0.1-0.3-0.2-0.4-0.3C40.6,121,40.8,120.9,40.9,120.8z"/>
		<path class="st0" d="M40.3,121.4c0.1,0,0.2,0,0.3,0C40.5,121.4,40.4,121.4,40.3,121.4z"/>
		<path class="st0" d="M173.9,126.4c0.1,0.1,0.2,0.2,0.3,0.3C174.1,126.6,174,126.5,173.9,126.4z"/>
		<path class="st0" d="M173.5,126.6c0.1,0,0.3,0,0.4,0c-0.1,0.1-0.2,0.2-0.3,0.3C173.6,126.8,173.5,126.7,173.5,126.6z"/>
		<path class="st0" d="M173,126.7c0.1,0.1,0.2,0.2,0.3,0.3C173.2,126.9,173.1,126.8,173,126.7z"/>
		<path class="st0" d="M56,127.3c0.1,0,0.2,0,0.3,0C56.2,127.3,56.1,127.3,56,127.3z"/>
		<path class="st0" d="M51.4,128.7c0,0.1,0.1,0.2,0.1,0.3C51.5,128.9,51.5,128.8,51.4,128.7z"/>
		<path class="st0" d="M163.4,129.1c0.1,0.6-0.2,0.3,0.1,0.6c0.2,0.4-0.1,0.1,0.3,0.3c0-0.3,0-0.6-0.1-0.9
			C163.6,129.1,163.5,129.1,163.4,129.1z"/>
		<path class="st0" d="M45.1,129.7c0.1,0,0.2,0,0.3,0C45.3,129.7,45.2,129.7,45.1,129.7z"/>
		<path class="st0" d="M159.8,131.6c0.3,0.5-0.2,0.4,0.6,0.6c-0.1-0.2-0.3-0.4-0.4-0.6C159.9,131.6,159.9,131.6,159.8,131.6z"/>
		<path class="st0" d="M165.5,132.6c0.1,0,0.3,0,0.4,0C165.8,132.6,165.6,132.6,165.5,132.6z"/>
		<path class="st0" d="M50.4,134.9c0.1,0,0.2,0,0.3,0C50.6,134.9,50.5,134.9,50.4,134.9z"/>
		<path class="st0" d="M49.1,135.2c0,0.1,0.1,0.2,0.1,0.3C49.2,135.4,49.1,135.3,49.1,135.2z"/>
		<path class="st0" d="M48.3,135.3c-0.1,0.1,0.1,0.1-0.1,0.3C48.2,135.5,48.3,135.4,48.3,135.3z"/>
		<path class="st0" d="M50.2,135.6c0.1,0.1,0.2,0.2,0.3,0.3C50.4,135.8,50.3,135.7,50.2,135.6z"/>
		<path class="st0" d="M46.7,135.8c0.3,0.4,0,0.2-0.3,0.4C46.5,136,46.6,135.9,46.7,135.8z"/>
		<path class="st0" d="M151.1,137.2c0.1,0,0.2,0,0.3,0C151.3,137.2,151.2,137.2,151.1,137.2z"/>
		<path class="st0" d="M60.6,144.5c0,0.2,0.1,0.4,0.1,0.6c0.3,0,0.6-0.1,0.9-0.1c-0.2-0.3-0.1-0.5-0.4-0.3
			C61,144.6,60.8,144.5,60.6,144.5z"/>
		<path class="st0" d="M61.8,144.6c0,0.1,0,0.3,0,0.4c0.2-0.1,0.5-0.2,0.7-0.3C62.3,144.7,62,144.7,61.8,144.6z"/>
		<path class="st0" d="M59.4,146.7c0.1,0,0.2,0,0.3,0C59.6,146.7,59.5,146.7,59.4,146.7z"/>
		<path class="st0" d="M57.3,147.1c0.4,0.2,0.2,0,0.4,0.3c-0.6,0.1,0.1,0.3-0.3,0.7c-0.3,0.3,0,0.1-0.4,0.1
			C57.3,148,57.3,147.5,57.3,147.1z"/>
		<path class="st0" d="M134.3,147.1c0.9,0.9,0.4,3.4-0.1,3.7c0-0.1-0.1-0.2-0.1-0.3C134.4,149.3,134.3,148.6,134.3,147.1z"/>
		<path class="st0" d="M132.5,147.4c0.5,1.1,0.4,2.5,0.1,3.3c-0.1-0.1-0.2-0.2-0.3-0.3C132.4,149.4,132.4,148.4,132.5,147.4z"/>
		<path class="st0" d="M135.1,148.2c0.8,0.5,0.5,1.3,0,1.9C135.1,149.4,135.1,148.8,135.1,148.2z"/>
		<path class="st0" d="M51.9,148.8c0.1,0.1,0.2,0.2,0.3,0.3C52.1,149,52,148.9,51.9,148.8z"/>
		<path class="st0" d="M52.3,148.8c0.1,0,0.2,0,0.3,0c-0.1,0.1-0.2,0.2-0.3,0.3C52.3,149,52.3,148.9,52.3,148.8z"/>
		<path class="st0" d="M137.1,149.9c0.1,0.1,0.1,0.2,0.1,0.3C137.2,150.1,137.1,150,137.1,149.9z"/>
		<path class="st0" d="M135.3,150.1c0.1,0.1,0.1,0.2,0.1,0.3C135.4,150.3,135.3,150.2,135.3,150.1z"/>
		<path class="st0" d="M68.9,150.8c0,0.1,0.1,0.2,0.1,0.3C69,151,68.9,150.9,68.9,150.8z"/>
		<path class="st0" d="M91.2,161.5c0.1,0,0.2,0,0.3,0C91.4,161.5,91.3,161.5,91.2,161.5z"/>
		<path class="st0" d="M77,163.7c0,0,0.6,0.7,0.3,0.7c-0.3,0.8-0.4,0.6-0.9,0.9c0-0.1-0.1-0.2-0.1-0.3
			C76.4,164.1,76.2,164.3,77,163.7z"/>
		<path class="st0" d="M76.4,165.7c0.1,0,0.2,0,0.3,0C76.6,165.7,76.5,165.7,76.4,165.7z"/>
	</g>
</g>
</svg>
