<?xml version="1.0" encoding="utf-8"?>
<!-- Generator: Adobe Illustrator 26.0.3, SVG Export Plug-In . SVG Version: 6.00 Build 0)  -->
<svg version="1.1" id="Isolation_Mode" xmlns="http://www.w3.org/2000/svg" xmlns:xlink="http://www.w3.org/1999/xlink" x="0px"
	 y="0px" viewBox="0 0 200 200" enable-background="new 0 0 200 200" xml:space="preserve">
<g>
	<g>
		<path fill="#1E8346" d="M70.674,89.111c0.047-0.147,0.293-0.134,0.391-0.266c0.114-0.155,0.084-0.399,0.085-0.58
			c0.001-0.36,0.176-1.066-0.169-1.314c-0.353,0.185-0.438,0.64-0.629,0.954c-0.078,0.13-0.233,0.337-0.423,0.259
			c-0.14-0.058-0.122-0.275-0.214-0.377c-0.059-0.065-0.172-0.117-0.294-0.149c-0.145-0.037-0.303-0.044-0.402,0
			c-0.128,0.057-0.172,0.178-0.228,0.301c-0.098,0.216-0.162,0.259-0.59,0.358c-0.184-0.308-0.137-0.378-0.525-0.378
			c-0.205,0-0.471-0.036-0.627,0.06c-0.127,0.079-0.395,0.309-0.459,0.444c-0.119,0.253,0.132,0.585,0.252,0.815
			c0.058,0.109,0.096,0.237,0.207,0.301c0.197,0.113,0.598,0.059,0.817,0.028c0.121-0.017,0.248-0.036,0.368-0.061
			c0.12-0.025,0.144-0.072,0.246-0.114c0.255-0.106,0.465,0.174,0.7-0.132c0.067-0.088,0.151-0.157,0.241-0.199
			c0.174-0.082,0.366-0.056,0.491,0.164c0.262,0.461,0.496,0.613,1.043,0.664c0.216,0.02,0.293,0.019,0.219-0.198
			C71.097,89.469,70.866,89.241,70.674,89.111z"/>
		<path fill="#1E8346" d="M69.543,96.631c-0.032-0.022-0.076-0.034-0.122-0.036c-0.076-0.003-0.157,0.021-0.199,0.074
			c-0.078,0.098-0.093,0.274-0.068,0.395c0.029,0.139,0.145,0.215,0.267,0.227c0.134,0.013,0.278-0.051,0.326-0.196
			C69.785,96.977,69.802,96.706,69.543,96.631z"/>
		<path fill="#1E8346" d="M77.235,95.913c-0.036,0.282-0.037,0.463,0.093,0.733c0.096,0.198,0.322,0.568,0.602,0.516
			c0.238-0.044,0.16-0.547,0.074-0.724C77.893,96.206,77.728,95.946,77.235,95.913z"/>
		<path fill="#1E8346" d="M131.752,165.487c0.088,0.048,0.168,0.062,0.225,0.017c0.05-0.039,0.082-0.123,0.083-0.276
			c0.038-0.129,0.076-0.374-0.049-0.454c-0.01-0.006-0.021-0.012-0.035-0.017c-0.17-0.069-0.629-0.073-0.766-0.017
			c-0.187,0.076-0.041,0.283,0.055,0.402C131.392,165.299,131.576,165.391,131.752,165.487z"/>
		<path fill="#1E8346" d="M119.179,126.927c0.312-0.063,0.627-0.178,0.427-0.681c-0.24-0.248-1.029-0.489-1.29-0.208
			c-0.156,0.169-0.25,0.519-0.147,0.725C118.375,127.175,118.857,126.992,119.179,126.927z"/>
		<path fill="#1E8346" d="M43.179,155.558c-0.187,0-0.719-0.067-0.795,0.101c-0.067,0.149,0.088,0.522,0.124,0.674
			c0.067,0.279,0.121,0.572,0.174,0.856c0.064,0.343,0.279,0.837,0.629,0.996c0.503,0.23,0.467-1.036,0.508-1.316
			C43.88,156.463,43.772,155.936,43.179,155.558z"/>
		<path fill="#1E8346" d="M41.751,153.954c-0.106,0.045-0.131,0.152-0.22,0.206c-0.1,0.061-0.208,0.055-0.32,0.075
			c-0.176,0.033-0.534,0.093-0.603,0.249c-0.077,0.174,0.045,0.311,0.137,0.419c0.156,0.183,0.216,0.175,0.278,0.416
			c0.065,0.252,0.231,0.571,0.564,0.433c0.217-0.09,0.221-0.394,0.345-0.8c-0.066-0.121,0.028-0.342,0.019-0.488
			C41.94,154.29,41.862,154.089,41.751,153.954z"/>
		<path fill="#1E8346" d="M62.871,83.114c-0.072-0.004-0.195,0.017-0.217-0.01c-0.137,0.037-0.256,0.122-0.312,0.255
			c-0.051,0.122-0.072,0.244-0.066,0.377c0.007,0.156,0.096,0.237,0.162,0.368c0.023,0.044,0.04,0.121,0.088,0.144
			c0.041,0.02,0.119,0.002,0.16-0.004c0.053-0.007,0.111-0.011,0.163-0.028c0.059-0.02,0.104-0.064,0.156-0.096
			c0.089-0.055,0.144-0.091,0.186-0.19c0.037-0.086,0.078-0.174,0.093-0.267c0.024-0.143-0.019-0.244-0.105-0.357
			C63.101,83.204,63.002,83.121,62.871,83.114z"/>
		<path fill="#1E8346" d="M62.095,129.284c-0.277-0.56-0.199-1.174-0.325-1.759c-0.084-0.387-0.316-0.733-0.453-1.115
			c-0.171-0.48-0.73-0.99-0.532-1.514c0.067-0.178,0.361-0.277,0.382-0.447c0.056-0.452-0.708-0.631-1.004-0.717
			c0.003-0.153-0.021-0.344,0.004-0.497c0.024-0.151,0.033-0.283-0.03-0.424c-0.299-0.052-0.48,0.255-0.692,0.274
			c-0.181,0.016-0.593-0.228-0.793-0.281c0.168-0.167,0.429-0.182,0.606-0.371c0.1-0.106,0.224-0.234,0.31-0.356
			c0.282-0.398,0.245-0.798-0.055-1.129c-0.218-0.241-0.264-0.253-0.564-0.31c-0.162-0.031-0.16,0.056-0.269-0.149
			c-0.038-0.071-0.084-0.229-0.052-0.306c0.133-0.323,0.812-0.302,0.481-0.799c-0.225-0.337-0.503-0.458-0.891-0.479
			c-0.348-0.019-0.365-0.053-0.559,0.23c-0.399-0.277-0.248-0.846-0.769-1.023c-0.152-0.051-0.293-0.089-0.406-0.143
			c-0.107-0.051-0.077-0.068-0.207-0.103c-0.167-0.045-0.543-0.039-0.701,0.029c-0.197-0.189-0.242-0.513-0.435-0.725
			c-0.211-0.232-0.314-0.209-0.623-0.225c-0.412-0.022-0.563-0.127-0.816,0.139c-0.288,0.303-0.425,0.417-0.279,0.838
			c0.121,0.348,0.182,0.43-0.133,0.719c-0.251,0.231-0.568,0.499-0.917,0.438c-0.617-0.109-0.626,0.039-1.094,0.499
			c-0.272,0.268-0.571,0.507-0.823,0.796c-0.159,0.182-0.297,0.408-0.477,0.571c-0.196,0.177-0.312,0.244-0.451,0.482
			c-0.218,0.372-0.408,0.708-0.778,0.952c-0.226,0.149-0.508,0-0.735,0.09c-0.217,0.085-0.284,0.291-0.456,0.429
			c-0.218,0.176-0.515,0.224-0.747,0.39c-0.259,0.185-0.393,0.425-0.555,0.688c-0.469,0.756-0.879,0.698-1.704,0.683
			c-0.746-0.014-1.275-0.437-2.021-0.492c-0.585-0.042-1.481-0.297-1.636-0.983c-0.08-0.352,0.213-1.188-0.481-1.135
			c-0.807,0.062-0.015,1.213,0.067,1.558c0.218,0.908-0.943,1.659-0.874,2.552c0.024,0.315,0.329,0.443,0.481,0.665
			c0.127,0.185,0.186,0.378,0.248,0.602c0.089,0.324,0.191,0.456-0.223,0.632c-0.192,0.081-0.248-0.074-0.379,0.118
			c-0.033,0.048-0.06,0.524-0.012,0.58c0.123,0.141,0.459,0.05,0.604,0.132c0.209,0.119,0.149,0.277,0.433,0.308
			c0.247,0.026,0.612-0.152,0.818-0.26c0.235,0.255,0.151,0.536,0.291,0.817c0.092,0.185,0.307,0.424,0.437,0.593
			c0.399,0.518,0.666,0.816,0.704,1.553c0.021,0.415-0.092,0.762-0.125,1.163c-0.03,0.363-0.055,0.33,0.359,0.51
			c0.229,0.099,0.421,0.122,0.594,0.311c0.254,0.278,0.144,0.57,0.227,0.905c-0.162,0.324-0.39,0.464-0.378,0.869
			c0.009,0.318,0.135,0.585,0.264,0.868c0.284,0.623,0.735,1.506,0.04,2.04c-0.32,0.246-0.618-0.025-0.936,0.264
			c-0.422,0.382-0.28,1.068-0.304,1.584c-0.021,0.435-0.006,0.898,0.436,1.102c0.465,0.215,0.703-0.25,1.131-0.229
			c0.599,0.029,0.784,0.764,0.805,1.242c0.014,0.312,0.025,0.616-0.085,0.908c-0.143,0.379-0.51,0.682-0.526,1.106
			c-0.383-0.199-0.234-0.926-0.582-1.1c-0.001,0.588-0.244,1.117-0.243,1.736c0,0.54,0.158,1.03,0.151,1.561
			c-0.007,0.578-0.288,0.806-0.538,1.28c-0.146,0.278-0.423,0.587-0.426,0.905c-0.004,0.379,0.391,0.438,0.399,0.796
			c0.008,0.399-0.5,0.673-0.602,1.018c-0.156,0.526,0.379,0.847,0.612,1.222c0.278,0.447,0.072,0.578-0.313,0.895
			c-0.431,0.355,0.101,1.161,0.313,1.483c0.104,0.157,0.306,0.32,0.384,0.482c0.096,0.2,0.031,0.445,0.144,0.635
			c0.095,0.158,0.323,0.381,0.444,0.553c0.127,0.181,0.241,0.324,0.453,0.438c0.228,0.122,0.486,0.101,0.602,0.363
			c0.123,0.278,0,0.584,0.154,0.884c0.131,0.254,0.363,0.496,0.483,0.726c0.154,0.293,0.168,0.652,0.234,0.995
			c0.141-0.201,0.582-0.062,0.811-0.288c0.267-0.263,0.497-0.712,1.032-0.386c0.239,0.146,0.354,0.469,0.631,0.636
			c0.381,0.23,0.57,0.296,0.921-0.012c0.283-0.249,0.479-0.681,0.814-0.861c0.424-0.228,0.704-0.191,1.069-0.58
			c0.37-0.395,0.636-0.896,0.624-1.454c-0.012-0.557-0.569-1.03-0.495-1.556c0.023-0.159,0.126-0.234,0.182-0.393
			c0.074-0.207,0.074-0.131,0.034-0.374c-0.085-0.51-0.239-1.024-0.214-1.554c0.358,0.105,0.666,0.758,0.951,1.013
			c0.29,0.26,0.666,0.355,1.003,0.208c0.155-0.068,0.173-0.187,0.337-0.239c0.494-0.155,1.16-0.05,1.531,0.27
			c0.231,0.2,0.37,0.454,0.577,0.671c0.285,0.299,0.58,0.298,0.977,0.402c0.65,0.17,1.593,0.633,2.153,0.048
			c0.495-0.518,0.168-1.043,0.143-1.651c-0.015-0.38,0.082-0.498,0.305-0.755c0.387-0.448,0.527-0.482,0.343-1.05
			c-0.265-0.82,0.269-1.257,0.44-2.048c0.226-1.052,0.058-2.278-0.025-3.334c-0.04-0.506-0.007-0.793,0.203-1.196
			c0.182-0.349,0.208-0.746,0.206-1.146c-0.004-0.773,0.027-1.629,0.246-2.335c0.158-0.511-0.09-1.02-0.058-1.602
			c0.033-0.59,0.315-0.978,0.52-1.504c0.2-0.515-0.447-0.754-0.776-1.129c-0.397-0.452-0.61-0.88-0.65-1.481
			c-0.051-0.768,0.353-1.473,0.825-2.015c0.259-0.297,0.627-0.534,0.847-0.827c0.278-0.371,0.518-0.828,0.76-1.229
			c0.205-0.339,0.375-0.717,0.34-1.131C62.745,129.998,62.331,129.758,62.095,129.284z"/>
		<path fill="#1E8346" d="M66.283,91.68c-0.048,0.138,0.029,0.356-0.08,0.457c-0.094,0.086-0.287,0.037-0.298,0.187
			c-0.006,0.084,0.051,0.151,0.097,0.215c0.066,0.092,0.119,0.115,0.245,0.095c0.26-0.04,0.325-0.201,0.357-0.446
			C66.631,91.989,66.584,91.772,66.283,91.68z"/>
		<path fill="#1E8346" d="M139.199,170.827c-0.447,0.169-1.094,0.38-1.575,0.362c-0.334-0.013-0.401-0.072-0.335-0.431
			c-0.523,0.172-0.674,0.994-1.031,1.371c-0.307,0.326-0.924,0.716-1.393,0.536c-0.252-0.097-0.313-0.313-0.592-0.379
			c-0.381-0.089-0.527,0.039-0.852-0.168c-0.321-0.205-0.381-0.334-0.792-0.289c-0.255,0.028-0.441,0.156-0.652,0.253
			c-0.079,0.037-0.162,0.069-0.253,0.09c-0.367,0.085-0.806-0.024-1.186-0.003c-0.482,0.026-0.613,0.167-0.916,0.53
			c-0.757,0.907-1.992,1.391-3.152,1.611c-1.185,0.224-2.333,0.376-3.537,0.391c-0.613,0.008-1.149,0.057-1.749-0.076
			c-0.64-0.142-1.306-0.394-1.912-0.076c-1.038,0.544-2.388,1.047-3.522,0.477c-0.537-0.27-1.128-0.579-1.572-0.988
			c-0.336-0.31-0.334-0.442-0.337-0.886c-0.709-0.118-1.719,0.37-2.07-0.452c-0.138-0.323-0.108-0.738-0.3-1.022
			c-0.295-0.438-0.849-0.42-1.32-0.416c-0.637,0.006-1.098,0.154-1.713,0.151c-0.693-0.004-0.594,0.338-1.03,0.756
			c-0.351,0.337-0.454,0.144-0.255,0.677c0.08,0.213,0.192,0.425,0.103,0.648c-0.228,0.573-1.444,0.684-1.957,0.839
			c-0.311,0.094-0.271,0.077-0.547-0.063c-0.206-0.103-0.577-0.234-0.732-0.398c-0.393-0.417-0.415-1.155-0.695-1.637
			c-0.4-0.686-0.65-0.148-0.841,0.331c-0.408,1.021-1.069,0.568-1.975,0.743c-0.691,0.133-1.038,0.812-1.108,1.459
			c-0.043,0.389,0.044,0.758-0.082,1.137c-0.085,0.258-0.262,0.387-0.381,0.601c-0.167,0.3-0.088,0.304,0.049,0.638
			c0.22,0.538-0.087,0.704-0.194,1.225c-0.059,0.289,0.04,0.546,0.109,0.838c0.097,0.413,0.019,1.047,0.358,1.351
			c0.36,0.324,0.955,0.284,1.345,0.556c0.457,0.317,0.515,1.057,0.921,1.334c0.364,0.249,0.927,0,1.301-0.069
			c0.484-0.088,0.98-0.023,1.471-0.051c0.653-0.037,1.057-0.028,1.537,0.45c0.489,0.486,0.442,0.786,1.157,0.851
			c0.655,0.06,1.918,0.184,2.413,0.617c0.426,0.373,0.546,1.03,1.002,1.408c0.345,0.286,0.832,0.497,1.127,0.802
			c0.534,0.552,0.842,0.955,1.682,0.944c1.211-0.015,1.702,1.348,2.509,2.076c0.426,0.384,0.74,0.418,1.32,0.419
			c0.36,0.001,0.481-0.013,0.723,0.197c0.211,0.183,0.319,0.489,0.567,0.608c0.557,0.266,1.532,0.058,2.131,0.027
			c0.635-0.033,1.396-0.095,1.991,0.143c1.589,0.635,3.04,2.398,3.537,4.028c0.231,0.758,0.465,1.167,1.32,1.272
			c0.788,0.095,1.158,0.174,1.766,0.682c0.543,0.455,1.029,0.304,1.667,0.455c0.452,0.107,0.821-0.027,1.229-0.088
			c0.147-0.022,0.299-0.034,0.462-0.022c0.493,0.037,0.497,0.326,0.88,0.445c0.432,0.134,0.656-0.035,1.04,0.252h1.171
			c0.007-0.017,0.013-0.033,0.019-0.051c0.205-0.656-0.102-1.311-0.156-1.966c-0.043-0.532,0.162-0.68,0.449-1.11
			c0.32-0.48,0.391-1.331,0.988-1.518c0.411-0.129,0.406-0.029,0.711-0.381c0.148-0.17,0.305-0.346,0.491-0.473
			c0.154-0.104,0.216,0.039,0.343-0.157c0.136-0.21-0.155-0.531-0.234-0.729c-0.117-0.295-0.104-0.63-0.225-0.914
			c-0.247-0.579-0.965-0.836-1.277-1.376c-0.098-0.17-0.275-0.614-0.116-0.799c0.093-0.108,0.452-0.057,0.594-0.091
			c0.234-1.281-1.482-1.013-1.76-2.043c-0.145-0.537-0.017-1.3-0.043-1.872c-0.027-0.593,0.123-0.91,0.455-1.411
			c0.523-0.79,0.894-1.866,1.07-2.804c0.098-0.524,0.135-1.085,0.473-1.524c0.228-0.297,0.51-0.765,0.797-0.987
			c0.441-0.343,0.327-0.967,0.612-1.474c0.331-0.588,0.891-1.049,1.351-1.548c0.732-0.793,1.393-1.645,1.4-2.685
			c0.003-0.415,0.066-0.666,0.339-0.981c0.215-0.248,0.628-0.502,0.683-0.841C142.751,168.577,139.649,170.658,139.199,170.827z"/>
		<path fill="#1E8346" d="M19.35,45.662c0.962,0.072,1.233,0.667,1.104,1.577c-0.127,0.892,0.424,1.159,1.162,1.532
			c0.262,0.132,0.594,0.435,0.891,0.403c0.323-0.035,0.392-0.467,0.694-0.493c0.233-0.02,0.854,0.448,0.948,0.676
			c0.11,0.271-0.122,0.516-0.042,0.819c0.065,0.249,0.222,0.37,0.266,0.666c0.035,0.236-0.111,0.709,0.191,0.828
			c0.282,0.111,0.606,0.266,0.266,0.593c-0.288-0.298-0.844-0.214-1.155-0.003c-0.474,0.321-0.272,0.84-0.464,1.313
			c-0.101,0.249-0.111,0.68-0.258,0.89c-0.215,0.307-0.717,0.197-0.92,0.53c-0.356,0.586,0.313,1.223,0.672,1.587
			c0.136,0.138,0.513,0.361,0.352,0.592c-0.103,0.147-0.57,0.105-0.721,0.054c-0.018,0.298-0.016,0.83,0.095,1.113
			c0.091,0.232,0.311,0.324,0.43,0.558c0.219,0.433,0.284,0.527,0.685,0.874c0.194,0.168,0.379,0.343,0.479,0.585
			c0.063,0.154,0.004,0.309,0.094,0.467c0.257,0.448,0.629,0.154,1.034,0.228c0.565,0.104,1.041,0.21,1.447,0.631
			c0.301,0.311,0.626,0.528,0.952,0.792c0.33,0.268,0.696,0.196,1.067,0.423c0.821,0.502,1.687,0.202,2.525-0.191
			c0.419-0.197,1.05,0.033,1.413-0.175c0.329-0.188,0.202-0.446,0.676-0.387c0.078,0.282-0.116,0.524,0.032,0.818
			c0.189,0.376,0.491,0.489,0.436,0.977c-0.077,0.668-0.726,0.755-0.825,1.374c-0.045,0.28,0.043,0.487-0.154,0.719
			c-0.151,0.178-0.461,0.223-0.646,0.355c-0.429,0.307-0.414,0.798-0.739,1.167c-0.393,0.447-0.35,0.371-0.235,0.965
			c0.049,0.253-0.038,0.935,0.225,1.108c0.132,0.087,0.604,0.021,0.787,0.064c0.894,0.213,1.984-0.261,2.813-0.663
			c0.541-0.262,1.128-0.239,1.69-0.445c0.377-0.138,0.799-0.319,1.175-0.471c0.394-0.16,0.773-0.326,1.034-0.675
			c0.262-0.353,0.502-0.597,0.848-0.879c0.607-0.494,0.003-0.446,0.218-0.995c0.154-0.393,0.823-0.324,0.959-0.739
			c0.051-0.155-0.079-0.427-0.073-0.606c0.007-0.221,0.075-0.367,0.143-0.572c0.107-0.32,0.191-0.724,0.493-0.932
			c0.322-0.221,0.89-0.255,1.26-0.352c0.568-0.15,0.666-0.258,0.788-0.79c0.073-0.316,0.11-0.611,0.113-0.937
			c0.004-0.548,0.312-0.899,0.8-1.167c0.366-0.201,0.742-0.299,1.086-0.542c0.333-0.235,0.642-0.501,0.983-0.725
			c0.58-0.38,1.325-0.851,2.037-0.824c0.638,0.024,1.181,0.249,1.771,0.417c0.505,0.143,1.025,0.205,1.535,0.313
			c0.444,0.094,1.038,0.177,1.426,0.405c0.455,0.268,0.029,0.9,0.606,1.129c0.5,0.199,0.502-0.282,0.731-0.541
			c0.684-0.77,1.934,0.683,2.31,1.215c0.176,0.249,0.071,0.181,0.337,0.313c0.248,0.123,0.589,0.164,0.858,0.264
			c0.651,0.246,0.905,0.581,1.388,1.063c0.458,0.457,1.068,0.7,1.559,1.122c0.567,0.487,1.173,0.888,1.755,1.356
			c0.034-0.721,0.736-1.06,1.212-0.428c0.286,0.379,0.258,0.707,0.762,0.743c0.401,0.029,0.649-0.187,1.022-0.018
			c0.444,0.202,0.877,0.746,1.248,1.076c0.53,0.472,0.848,1.06,1.207,1.655c0.169,0.28,0.308,0.515,0.387,0.84
			c0.049,0.202-0.075,0.603,0.113,0.68c0.277,0.52,0.189,1.206,0.189,1.776c0,0.785,0.018,1.551,0.275,2.302
			c0.1,0.292,0.186,0.538,0.245,0.792c0.052,0.226,0.084,0.458,0.084,0.737c0,0.389-0.059,0.858,0.115,1.221
			c0.263,0.546,0.992,0.574,1.378,1.011c0.44,0.498-0.031,1.051,0.321,1.498c0.174,0.221,0.494,0.295,0.689,0.487
			c0.224,0.221,0.207,0.619,0.445,0.798c0.18,0.655,0.143,1.408,0.11,2.088c-0.047,0.966,0.12,1.997-0.345,2.872
			c-0.191,0.359-0.377,0.803-0.049,1.165c0.235,0.259,0.721,0.363,0.738-0.077c0.303-0.48,1.479-0.229,1.961-0.078
			c0.967,0.302,0.94,0.964,0.833,1.802c-0.042,0.325-0.216,0.869,0.049,1.141c0.288,0.295,1.065,0.453,1.462,0.567
			c0.602,0.173,0.938,0.532,1.477,0.801c0.137,0.464,0.334,0.824,0.723,1.092c0.313,0.215,0.531,0.339,0.712,0.672
			c0.225,0.413,0.293,0.643,0.647,0.931c0.314,0.255,0.45,0.421,0.557,0.816c0.142,0.52,0.22,1.521-0.425,1.574
			c-0.331,0.027-0.617-0.27-0.694,0.167c-0.035,0.195,0.115,0.557,0.153,0.751c0.512,0.016,0.601,0.709,1.036,0.49
			c0.373-0.187,0.348-0.735,0.762-0.864c0.411-0.127,0.97,0.113,1.345,0.251c0.546,0.201,1.085,0.25,1.643,0.395
			c0.716,0.186,1.748,0.665,2.294,1.17c0.69,0.638,1.133,1.385,1.481,2.266c0.246,0.622,0.471,1.449,0.84,2.082
			c0.285,0.487,0.655,0.721,1.209,0.786c0.567,0.067,0.767,0.156,1.171,0.538c0.599,0.568,1.237,1.036,1.895,1.522
			c0.683,0.504,0.947,1.372,1.281,2.124c0.272,0.608,0.486,1.733,1.248,1.912c0.547,0.129,1.731,0.095,1.776,0.942
			c0.576,0.749,1.301,1.432,1.856,2.223c0.317,0.452,0.479,1.303,1.021,1.443c0.306,0.079,0.601-0.038,0.903,0.121
			c0.236,0.125,0.373,0.349,0.636,0.439c0.573,0.197,1.204-0.005,1.78,0.233c1.07,0.441,1.468,1.516,1.912,2.488
			c0.142,0.31,0.388,0.951,0.729,0.962c0.248,0.008,0.653-0.319,0.855-0.445c0.301-0.186,0.638-0.324,0.967-0.494
			c0.26-0.134,0.799-0.235,0.945-0.47c0.311,0.022,0.606-0.053,0.913-0.001c0.432,0.072,0.782,0.305,1.165,0.514
			c0.67,0.367,0.955,0.99,1.774,1.071c0.858,0.086,0.266-0.355,0.788-0.718c0.37-0.257,0.74,0.049,1.144,0.116
			c0.479,0.079,0.825,0.16,1.208,0.428c0.682,0.479,1.337,1.154,1.689,1.914c0.166,0.358,0.344,0.729,0.435,1.114
			c0.089,0.38,0.14,0.712,0.319,1.057c0.258,0.498,0.633,0.948,0.941,1.413c0.326,0.492,0.418,0.933,0.421,1.51
			c0.001,0.266-0.077,0.86,0.272,0.949c0.332,0.084,0.432-0.241,0.479-0.475c0.048-0.241,0.1-0.339,0.357-0.27
			c0.24,0.065,0.495,0.211,0.718,0.323c0.196,0.099,0.331,0.212,0.496,0.038c0.08-0.085,0.055-0.227,0.127-0.311
			c0.051-0.06,0.306-0.029,0.349-0.106c0.138-0.251,0.277-0.256,0.584-0.207c0.568,0.092,0.583,0.437,0.834,0.873
			c0.343,0.596,1.672,0.68,1.787,1.346c0.121,0.698-1.044,0.727-1.407,1.015c-0.341,0.271-1.073,1.169-0.788,1.643
			c0.743-0.019,1.275-0.602,1.966-0.79c0.375-0.102,0.61,0.135,0.997,0.097c0.525-0.051,1.008-0.472,1.475-0.699
			c0.471-0.228,0.959-0.286,1.475-0.28c0.444,0.006,0.645,0.12,0.928,0.451c0.189,0.222,0.39,0.427,0.584,0.641
			c0.082,0.09,0.163,0.182,0.241,0.277c0.46,0.562,0.515,1.315,0.79,1.983c0.109,0.266,0.27,0.523,0.462,0.736
			c0.186,0.207,0.362,0.172,0.366,0.486c0.006,0.362,0.021,0.634-0.18,0.919c-0.151,0.213-0.282,0.293-0.387,0.557
			c-0.209,0.531-0.681,1.051-0.641,1.627c0.982-0.029,1.334,1.024,2.12,1.366c0.484,0.211,0.705-0.314,1.044-0.221
			c0.245,0.067,0.38,0.807,0.581,1.009c0.303,0.304,0.754,0.416,1.059,0.736c0.152,0.16,0.264,0.357,0.351,0.557
			c0.127,0.292,0.057,0.31,0.33,0.407c0.241,0.085,0.33-0.012,0.554,0.158c0.137,0.103,0.207,0.292,0.353,0.379
			c0.348,0.208,0.608,0.134,0.784-0.135c0.178-0.272,0.263-0.509,0.612-0.715c0.274-0.161,0.455-0.167,0.527-0.516
			c0.385-0.013,1.123-0.141,1.474,0.003c0.199,0.082,0.255,0.318,0.412,0.439c0.14,0.108,0.37,0.096,0.466,0.233
			c0.127,0.181,0.042,0.472,0.14,0.674c0.059,0.122,0.182,0.197,0.263,0.299c0.271,0.338,0.419,0.751,0.691,1.115
			c0.303,0.407,0.357,0.533,0.228,1.028c-0.126,0.48,0.005,0.642,0.178,1.079c0.339,0.858,0.202,1.846,0.537,2.725
			c0.117,0.306,0.251,0.648,0.389,0.949c0.153,0.333,0.093,0.799,0.397,0.989c0.376,0.234,0.772,0.75,1.027,1.114
			c0.394,0.562,0.679,1.144,0.893,1.794c0.214,0.65,0.425,1.234,0.454,1.918c0.032,0.748,0.1,1.538,0.253,2.271
			c0.122,0.585,0.263,1.171,0.398,1.757c0.098,0.422,0.132,1.004,0.363,1.377c0.305,0.494,1.105,0.551,1.148,1.233
			c0.035,0.557,0.154,1.057,0,1.589c-0.089,0.306-0.138,0.529-0.346,0.787c-0.268,0.332-0.436,0.75-0.904,0.724
			c-0.542-0.03-1.055-0.164-1.601-0.102c-0.362,0.041-0.598,0.196-0.904,0.37c-0.478,0.271-1.341,0.287-1.558,0.925
			c-0.156,0.457,0.288,0.817,0.555,1.106c0.387,0.42,0.831,0.694,0.853,1.305c0.02,0.537-0.184,1.219-0.542,1.617
			c-0.273,0.303-0.516,0.599-0.707,0.967c-0.203,0.392-0.106,0.87-0.412,1.209c-0.408,0.453-1.303,0.808-1.893,0.971
			c-0.345,0.355-0.509,0.785-0.404,1.285c0.124,0.592,0.616,1.108,0.44,1.749c-0.141,0.516-0.434,0.906-0.263,1.463
			c0.146,0.476,0.487,0.652,0.915,0.82c0.53,0.208,1.024,0.179,1.583,0.157c0.449-0.018,0.927-0.156,1.375-0.107
			c0.552,0.059,1.162,0.417,1.697,0.07c0.14-0.09,0.222-0.23,0.328-0.356c0.121-0.143,0.306-0.184,0.352-0.355
			c0.126-0.466,0.443-0.814,0.524-1.293c0.105-0.616,0.082-1.282,0.419-1.837c0.343-0.564,0.928-0.963,1.306-1.504
			c0.426-0.611,0.605-0.879,1.271-1.186c0.835-0.384,1.714-0.838,2.395-1.457c0.669-0.608,0.622-1.169,0.624-2.022
			c0.001-0.586-0.049-1.186-0.141-1.765c-0.094-0.588-0.361-1.142-0.351-1.741c0.02-1.223,0.914-1.84,1.815-2.425
			c0.494-0.321,0.833-0.825,1.346-1.138c0.657-0.401,1.3-0.518,2.065-0.547c0.533-0.019,0.922,0.225,1.428,0.345
			c0.255,0.061,0.586,0.1,0.848,0.035c0.197-0.049,0.334-0.201,0.549-0.21c0.189-0.166,0.372-0.246,0.609-0.311
			c0.025-0.393,0.174-1.253,0.057-1.602c-0.139-0.415-0.821-0.76-1.007-1.199c-0.273-0.645,0.231-0.985,0.409-1.503
			c0.246-0.718-0.541-1.157-0.508-1.874c0.02-0.459,0.221-0.651,0.442-1.018c0.209-0.346,0.199-0.701,0.326-1.063
			c-0.275-0.083-0.574,0.016-0.82-0.147c-0.215-0.142-0.402-0.508-0.524-0.727c-0.334-0.602-0.577-0.682-1.212-0.918
			c-0.74-0.274-1.425-0.663-2.001-1.224c-0.31-0.302-0.606-0.719-1.039-0.854c-0.478-0.15-1.068,0.027-1.573-0.12
			c-0.774-0.225-1.193-0.702-1.462-1.438c-0.153-0.418-0.373-0.477-0.6-0.809c-0.262-0.385-0.005-0.872,0.207-1.27
			c0.198-0.372,0.447-0.765,0.721-1.085c0.227-0.266,0.611-0.508,0.786-0.819c0.282-0.499,0.122-1.039-0.03-1.547
			c-0.334-1.118,0.519-1.619,1.185-2.37c0.629-0.709,0.983-1.775,1.36-2.646c0.278-0.641,0.71-0.834,1.008-1.481
			c0.367-0.797,0.766-1.193,1.532-1.603c0.756-0.405,1.38-0.598,2.257-0.428c0.715,0.139,1.171,0.118,1.891,0.009
			c0.129-0.019,0.238-0.14,0.358-0.032c0.232,0.208-0.134,0.506-0.262,0.615c-0.219,0.184-0.51,0.278-0.715,0.475
			c-0.129,0.125-0.211,0.318-0.341,0.451c0.451,0.459,1.191,0.695,1.759,0.983c0.594,0.301,1.188,0.806,1.849,0.944
			c0.625,0.131,1.403,0.003,2.045,0.003c0.854,0,1.606,0.014,2.43,0.246c0.587,0.165,1.211,0.312,1.477,0.932
			c0.138,0.322,0.048,0.726,0.164,1.055c0.139,0.397,0.516,0.752,0.863,0.985c0.277,0.186,0.482,0.178,0.571,0.525
			c0.075,0.289-0.087,0.609-0.176,0.87c-0.285,0.833-0.316,1.378,0.285,2.088c0.612,0.723,1.702,1.413,2.584,1.737
			c0.372,0.136,0.697,0.153,1.036,0.362c0.302,0.186,0.659,0.432,1.03,0.424c0.574-0.012,0.453-1.094,0.479-1.575
			c0.037-0.686-0.117-1.545,0.254-2.157c0.119-0.195,0.296-0.344,0.452-0.508c0.197-0.207,0.225-0.343,0.326-0.61
			c0.126-0.336,0.469-0.492,0.561-0.837c0.064-0.241-0.039-0.391-0.109-0.613c-0.076-0.236-0.074-0.493-0.162-0.721
			c-0.11-0.282-0.272-0.521-0.359-0.817c-0.08-0.272-0.119-0.586-0.242-0.844c-0.158-0.33-0.445-0.612-0.713-0.855
			c-0.348-0.316-0.661-0.653-0.991-0.985c-0.331-0.332-0.508-0.666-0.819-1.009c-0.42-0.462-0.967-0.694-1.421-1.095
			c-0.599-0.529-1.003-1.009-1.356-1.721c-0.276-0.557-0.624-1.026-1.142-1.339c-0.617-0.373-1.216-0.632-1.859-0.941
			c-0.385-0.185-0.682-0.469-1.043-0.689c-0.352-0.214-0.752-0.311-1.149-0.437c-1.073-0.34-2.137-0.754-3.122-1.299
			c-0.555-0.307-0.841-0.541-1.207-1.057c-0.257-0.363-0.613-0.74-0.955-1.028c-0.474-0.399-1.074-0.641-1.579-1.003
			c-0.601-0.429-1.18-0.776-1.831-1.126c-0.912-0.489-2.07-0.45-2.952-0.965c-0.349-0.613-1.773-1.074-2.442-1.286
			c-0.591-0.188-1.146-0.379-1.693-0.69c-0.669-0.38-1.182-1.011-1.902-1.304c-0.637-0.26-1.325-0.461-1.964-0.689
			c-0.618-0.22-1.027-0.783-1.637-0.971c-1.239-0.38-2.416-0.685-3.025-1.977c-0.259-0.548-0.652-1.448-0.365-2.045
			c0.313-0.653,1.398-0.743,1.992-1.016c0.055-0.122,0.174-0.211,0.252-0.313c0.094-0.124,0.137-0.266,0.246-0.381
			c0.223-0.234,0.519-0.236,0.772-0.414c0.425-0.299,0.85-1.002,0.847-1.531c-0.004-0.642-0.328-1.68-0.807-2.116
			c-0.464-0.422-1.261-0.31-1.842-0.31c-0.492,0-0.96-0.012-1.439,0.088c-0.339,0.071-0.681,0.152-1.024,0.208
			c-1.36,0.225-2.742,0.087-4.111,0.082c-0.225-0.001-0.34,0.018-0.515,0.099c-0.209,0.097-0.471,0.121-0.7,0.153
			c-0.202,0.028-0.417,0.036-0.624,0.025c-0.264-0.014-0.412-0.117-0.654-0.202c-0.616-0.217-1.367,0.076-2.007-0.004
			c-0.835-0.104-1.622-0.406-2.068-1.131c-0.205-0.333-0.46-0.629-0.822-0.793c-0.294-0.133-0.642-0.093-0.949-0.188
			c-0.301-0.094-0.603-0.162-0.891-0.261c-0.265-0.09-0.519-0.206-0.748-0.393c-0.891-0.727-1.526-1.49-2.434-2.024
			c-0.404-0.238-0.796-0.303-1.093-0.695c-0.168-0.222-0.241-0.488-0.402-0.706c-0.287-0.389-0.666-0.633-0.916-1.064
			c-0.274-0.474-0.554-0.755-1.051-1.054c-0.401-0.241-0.886-0.404-1.245-0.713c-0.381-0.327-0.589-0.741-0.865-1.137
			c-0.372-0.535-0.975-0.873-1.396-1.372c-0.669-0.792-1.267-1.517-1.626-2.506c-0.332-0.916-0.443-1.904-0.765-2.831
			c-0.148-0.424-0.325-0.706-0.422-1.13c-0.076-0.332-0.165-0.675-0.257-1.002c-0.107-0.379-0.233-0.756-0.332-1.138
			c-0.106-0.412-0.069-0.854-0.204-1.258c-0.225-0.677-0.65-1.26-0.862-1.947c-0.179-0.579-0.27-1.182-0.464-1.757
			c-0.16-0.476-0.329-0.959-0.518-1.426c-0.164-0.406-0.545-1.027-0.72-1.439c-0.212-0.497-0.524-0.957-0.615-1.494
			c-0.079-0.469-0.053-0.813-0.381-1.185c-0.193-0.219-0.533-0.635-0.782-0.775c-0.201-0.112-0.569-0.082-0.804-0.157
			c-0.355-0.113-0.687-0.291-1.01-0.477c-0.854-0.492-1.512-1.19-2.354-1.701c-1.222-0.742-2.437-1.711-3.458-2.71
			c-0.36-0.352-0.675-0.9-1.085-1.177c-0.295-0.199-0.7-0.232-1.041-0.312c-1.105-0.259-2.021-1.081-2.796-1.909
			c-0.392-0.419-0.917-0.707-1.281-1.139c-0.294-0.349-0.435-0.816-0.721-1.174c-0.43-0.537-0.923-0.895-1.253-1.521
			c-0.161-0.305-0.215-0.63-0.363-0.934c-0.123-0.254-0.317-0.429-0.435-0.698c-0.186-0.423,0.086-1.579-0.329-1.802
			c-0.037,0.069-0.053-0.056-0.094-0.123c-0.074-0.118-0.156-0.224-0.248-0.328c-0.18-0.204-0.371-0.448-0.436-0.721
			c-0.089-0.376,0.155-0.771,0.154-1.153c-0.002-0.629,0.122-1.245-0.085-1.856c-0.062-0.184-0.121-0.338-0.145-0.528
			c-0.028-0.217,0.036-0.463-0.091-0.646c-0.117-0.17-0.014-0.621,0.004-0.828c0.039-0.446,0.36-0.666,0.483-1.061
			c0.041-0.132,0.059-0.206,0.028-0.347c-0.018-0.078-0.145-0.212-0.123-0.3c0.088-0.357,0.648-0.215,0.849-0.126
			c0.285,0.127,0.298,0.258,0.449,0.517c0.137,0.235,0.27,0.474,0.402,0.198c0.267-0.559-0.407-1.717,0.52-1.733
			c0.178,0.279-0.004,0.798,0.378,0.957c0.021-0.281,0.181-0.531,0.251-0.803c0.077-0.299,0.069-0.52,0.197-0.816
			c0.095-0.219,0.142-0.406,0.325-0.554c0.167-0.136,0.387-0.167,0.476-0.401c-0.17-0.183-0.535-0.326-0.768-0.237
			c-0.243,0.093-0.814,0.648-0.897,0.963c0.027-0.417,0.148-1.051-0.106-1.378c-0.184-0.236-0.247-0.088-0.439,0.127
			c-0.278,0.311-0.604,0.438-1.064,0.372c0.011-0.19-0.029-0.391,0.036-0.586c0.061-0.184,0.301-0.353,0.327-0.537
			c0.044-0.315-0.299-0.272-0.498-0.418c-0.565-0.413-0.364-1.232,0.356-1.176c0.022-0.473-0.154-0.957-0.154-1.434
			c-0.103-0.142-0.151-0.45-0.366-0.46c-0.179-0.009-0.416,0.244-0.545,0.342c-0.365-0.403-0.31-1.088-0.299-1.601
			c0.01-0.459-0.041-1.021,0.031-1.464c0.644-0.027,0.401-1.257,0.449-1.702c0.051-0.478,0.27-0.582,0.707-0.753
			c0.448-0.175,0.665-0.229,0.989-0.59c0.325-0.361,0.79-0.793,1.239-0.979c0.223-0.092,0.442-0.037,0.636,0.094
			c0.383,0.257,0.439,0.519,0.278,0.92c-0.15,0.371-0.463,0.621-0.839,0.725c-0.186,0.051-0.399,0.041-0.569,0.144
			c-0.13,0.078-0.407,0.397-0.253,0.549c0.186,0.184,0.698-0.22,0.872-0.29c0.693-0.279,1.412-0.426,2.074-0.777
			c0.719-0.381,1.623-0.764,2.254-1.333c0.793-0.717,1.92-1.158,2.975-1.311c0.381-0.055,0.819-0.028,1.071-0.354
			c0.203-0.261,0.608-0.623,0.662-0.95c-0.152-0.052-0.293-0.016-0.455,0.026c-0.339,0.088-0.462-0.179-0.411-0.456
			c0.095-0.508,0.511-0.574,0.872-0.722c0.295-0.122,0.501-0.511,0.877-0.281c0.133,0.082,0.103,0.276,0.209,0.342
			c0.217,0.135,0.701,0.025,0.972,0.101c0.284,0.08,0.487,0.291,0.751,0.388c0.249,0.091,0.724,0.012,0.922,0.222
			c0.14,0.149,0.042,0.388,0.229,0.49c0.273,0.149,0.514-0.106,0.741-0.246c0.253-0.156,0.597-0.265,0.811-0.485
			c-0.136-0.42-0.342-0.574-0.002-0.963c0.284-0.325,0.344-0.254,0.671-0.099c0.768,0.364,1.509,1.189,2.006,1.873
			c0.462,0.637-0.157,1.488,0.574,1.792c0.279,0.116,0.67,0.207,0.947,0.005c0.09-0.066,0.112-0.2,0.185-0.265
			c0.19-0.167,0.55-0.259,0.649-0.5c-0.27-0.295-0.654-0.48-0.891-0.811c-0.258-0.36-0.332-0.855-0.609-1.218
			c-0.354-0.466-0.702-0.292-1.135-0.619c-0.424-0.32-0.355-0.651-0.951-0.738c-0.65-0.095-0.917-0.312-0.996-0.979
			c-0.071-0.598,0.193-0.737,0.551-1.157c0.289-0.339,0.547-0.664,0.312-1.119c-0.179-0.346-0.333-0.264-0.665-0.256
			c-0.106,0.267-0.424,0.679-0.774,0.601c-0.311-0.069-0.627-0.93-0.756-1.188c0.403-0.565,0.297-1.041,0.919-1.508
			c0.709-0.531,1.587-0.973,1.442-2.016c-0.306-0.009-0.756,0.028-1.044-0.052c-0.337-0.093-0.312-0.241-0.541-0.441
			c-0.516-0.452-1.242,0.051-1.668-0.327c-0.358-0.317-0.376-1.174-0.102-1.509c0.08-0.098,0.276-0.15,0.334-0.259
			c0.074-0.137-0.005-0.319,0.061-0.442c0.205-0.383,0.475-0.417,0.868-0.593c0.6-0.269,0.776-0.803,1.298-1.166
			c0.323-0.225,0.616-0.075,0.928-0.204c0.279-0.115,0.085-0.053,0.251-0.264c0.384-0.487,0.655-1.343,0.116-1.675
			c-0.467-0.287-1.149-0.229-1.672-0.228c-0.676,0.001-1.186-0.156-1.814-0.305c-0.26-0.061-0.572-0.073-0.853-0.029
			c-0.14,0.023-0.201,0.18-0.369,0.193c-0.226,0.018-0.342-0.104-0.535-0.116c-0.724-0.043-0.903,0.172-1.451-0.344
			c-0.816-0.767-2.084-0.588-3.173-0.682c-0.522-0.045-1.604,0.075-1.878-0.253c-0.194-0.233,0.037-0.322-0.284-0.496
			c-0.182-0.099-0.494-0.027-0.674,0c-0.266,0.039-0.44,0.15-0.701,0.079c-0.136-0.037-0.184-0.174-0.315-0.215
			c-0.398-0.126-0.975,0.037-1.391,0.001c-0.453-0.039-0.555-0.191-0.907-0.367c-0.284-0.142-0.59-0.172-0.87-0.338
			c-0.263-0.155-0.704-0.441-0.919-0.654c-0.368-0.364-0.31-0.756-0.332-1.255c-0.354-0.054-0.689-0.169-1.051-0.16
			c0.171-0.64-0.312-3.042-1.086-1.787c-0.077-0.144-0.177-0.293-0.299-0.403c-0.132-0.119-0.374-0.158-0.487-0.279
			c-0.194-0.208,0.113-0.344,0.109-0.625c-0.008-0.453-0.937-0.949-0.301-1.379c0.229-0.155,0.571-0.086,0.801-0.266
			c0.209-0.163,0.254-0.387,0.252-0.635c0-0.077-0.004-0.144-0.01-0.203h-1.876c-0.537,0.189-1.074,0.358-1.628,0.514
			c-0.602,0.17-1.038,0.559-1.587,0.843c-0.354,0.183-0.737,0.016-1.051,0.276c-0.18,0.149-0.282,0.371-0.552,0.271
			c-0.209-0.078-0.235-0.285-0.452-0.306c-0.162-0.016-0.259,0.077-0.41,0.04c-0.257-0.062-0.322-0.393-0.569-0.443
			C87.34,6.318,87.07,6.548,86.906,6.67c-0.261,0.195-0.322,0.177-0.632,0.097c-0.551-0.846-1.398-0.086-1.868,0.407
			c-0.513-0.449-0.608-0.576-1.232-0.489c-0.329,0.046-0.636,0.122-0.947,0.234c-0.254,0.092-0.9,0.182-1.081,0.346
			c-0.124,0.112-0.079,0.346-0.173,0.47c-0.109,0.143-0.245,0.176-0.333,0.279c-0.239,0.281-0.261,0.531-0.399,0.944
			c-0.279,0.83-0.391,2.142-1.416,2.193c-0.348,0.017-0.767,0.052-1.103,0.025c-0.247-0.02-0.454-0.142-0.679-0.167
			c-0.266-0.029-0.429,0.009-0.677-0.054c-0.127-0.033-0.24-0.177-0.375-0.213c-0.237-0.062-0.525,0.034-0.775-0.012
			c0.057-0.305,0.288-0.537,0.322-0.849c-0.459-0.122-0.703-0.508-1.096-0.756c-0.457,0.372-1.51,0.162-1.734,0.66
			c0.056-0.111,0.059-0.285,0.104-0.402c-0.471,0.115-0.979-0.048-1.277,0.303c-0.167,0.198-0.353,0.774-0.387,1.024
			c-0.031,0.235,0.143,0.543,0.048,0.784c-0.074,0.185-0.328,0.225-0.402,0.414c-0.052,0.133,0.044,0.362,0.012,0.504
			c-0.098,0.436-0.428,0.612-0.117,1.1c0.298,0.467,0.821,0.243,1.137,0.626c0.234,0.283,0.069,0.904-0.041,1.194
			c-0.247,0.655-0.401,0.387-0.926,0.242c-0.484-0.133-0.979-0.108-1.44-0.206c-0.33-0.07-0.642-0.201-0.92-0.501
			c0.125-0.136,0.27-0.428,0.166-0.617c-0.161-0.294-0.19-0.061-0.367-0.075c-0.65-0.054-1.4,0.033-1.726,0.603
			c-0.178,0.31-0.318,0.439-0.537,0.731c-0.275,0.366-0.126,1.074-0.123,1.539c0.003,0.434-0.105,0.869,0.357,1.023
			c0.425,0.141,0.89-0.211,1.046,0.325c0.167,0.575-0.162,0.592-0.422,0.879c-0.419,0.462-0.075,0.929,0.179,1.375
			c0.164,0.288,0.479,0.789,0.242,1.139c-0.165,0.244-0.615,0.257-0.905,0.311c-0.747,0.139-0.309-0.256-0.626-0.73
			c-0.168-0.252-0.422-0.159-0.559-0.464c-0.17-0.381-0.199-0.81-0.319-1.203c-0.126-0.415-0.24-0.401-0.59-0.498
			c-0.635-0.176-0.888-0.172-1.568,0.234c-0.354,0.212-0.529,0.388-0.954,0.389c-0.397,0.001-0.394-0.129-0.55,0.299
			c-0.163,0.449-0.032,0.543-0.482,0.59c-0.286,0.03-0.613,0.004-0.895-0.022c-0.412-0.037-0.729-0.052-0.94-0.428
			c-0.176-0.313-0.185-0.637-0.451-0.884c-0.4-0.372-0.564-0.29-0.54-0.87c0.027-0.636-0.009-1.266,0.01-1.9
			c-0.676,0.074-0.671,0.035-1.185,0.484c-0.108-0.18-0.077-0.435-0.307-0.545c-0.229-0.11-0.618,0.052-0.85,0.101
			c-0.322,0.068-0.237-0.013-0.426,0.235c-0.103,0.135-0.279,0.458-0.305,0.624c-0.064,0.407,0.312,0.783,0.376,1.199
			c0.067,0.436,0.238,0.857,0.196,1.301c-0.045,0.475-0.347,0.857-0.471,1.314c-0.072,0.265-0.082,0.472-0.288,0.667
			c-0.094,0.09-0.251,0.11-0.341,0.211c-0.157,0.175-0.126,0.41-0.214,0.61c-0.101,0.23-0.261,0.376-0.449,0.543
			c-0.295,0.263-1.004,0.533-1.11,0.902c-0.097,0.336,0.268,0.729,0.03,1.054c-0.19,0.261-0.716,0.296-0.979,0.396
			c-0.026,0.287,0.157,0.693,0.043,0.962c-0.059,0.141-0.254,0.164-0.264,0.327c-0.009,0.157,0.119,0.164,0.145,0.235
			c0.07,0.19,0.136,0.593,0.274,0.785c0.197,0.273,0.612,0.273,0.822,0.511c-0.251,0.464-0.902,0.934-1.012,1.453
			c-0.234,0.078-0.361-0.142-0.559-0.215c-0.244-0.09-0.273-0.02-0.527-0.039c-0.573-0.042-0.076-0.188-0.059-0.598
			c0.01-0.259-0.148-0.512-0.262-0.728c-0.117-0.221-0.204-0.837-0.453-0.922c-0.195,0.061-0.186-0.084-0.313-0.21
			c-0.385-0.382-0.551-0.451-1.112-0.515c0.164-0.574,0.804-0.819,0.987-1.386c-0.225-0.27-0.487-0.536-0.739-0.691
			c-0.168-0.103-0.31-0.187-0.489-0.306c-0.127-0.085-0.184-0.165-0.341-0.137c-0.013,0.136-0.037,0.292-0.066,0.413
			c-0.399,0.068-0.62-0.254-0.949-0.414c-0.329-0.16-0.598-0.163-0.755-0.518c-0.101-0.229-0.095-0.415-0.235-0.612
			c-0.216-0.303-0.271-0.476-0.324-0.857c-0.573-0.092-1.161-0.145-1.617-0.547c0.445-0.673-0.263-0.613-0.165-1.243
			c0.041-0.265,0.251-0.454,0.333-0.701c0.093-0.279,0.039-0.607,0.041-0.902c0.002-0.347,0.106-0.803,0.041-1.143
			c-0.072-0.376,0.007-0.292-0.359-0.278c-0.592,0.022-1.078,0.351-1.537,0.678c-0.278,0.198-0.255,0.116-0.21,0.408
			c0.029,0.189,0.283,0.377,0.042,0.622c-0.156,0.159-0.466-0.009-0.629,0.12c-0.089,0.07-0.076,0.346-0.152,0.427
			c-0.179,0.193-0.369,0.146-0.549,0.315c-0.255,0.238-0.213,0.414-0.591,0.485c-0.281,0.053-0.461-0.027-0.72,0.115
			c-0.299,0.164-0.748,0.605-0.6,0.94c0.081,0.183,0.587,0.454,0.744,0.596c0.369,0.336,0.52,0.539,0.289,1
			c-0.18,0.359-0.428,0.701-0.696,0.999c-0.309,0.344-0.279,0.1-0.641,0.246c-0.324,0.13-0.4,0.617-0.452,0.901
			c-0.065,0.358-0.109,0.856-0.341,1.157c-0.19,0.245-0.278,0.223-0.627,0.246c-0.987,0.066-0.931,0.311-1.148,1.21
			c-0.239,0.035-0.445,0.141-0.693,0.151c-0.432,0.017-0.611-0.223-0.968-0.278c-0.119,0.324-0.372,0.242-0.59,0.089
			c-0.351-0.247-0.314-0.628-0.756-0.72c-0.286-0.059-0.617,0.07-0.899,0.003c-0.399-0.093-0.301-0.28-0.621,0.033
			c-0.11,0.107-0.131,0.303-0.307,0.35c-0.082,0.023-0.152-0.151-0.259-0.126c-0.256,0.059-0.299,0.114-0.482,0.331
			c-0.487,0.579-0.805,0.936-1.637,0.763c-0.349-0.073-0.602-0.389-0.938-0.21c-0.217,0.115-0.351,0.39-0.578,0.521
			c-0.425,0.246-0.672,0.01-1.103,0.117c-0.56,0.14-0.665,0.234-1.178-0.216c-0.363-0.317-0.432-0.662-0.843-0.397
			c-0.677,0.436-0.721,1.176-1.598,1.21c-0.241,0.009-0.48,0.207-0.72,0.265c-0.141,0.034-0.245-0.033-0.364,0.055
			c-0.269,0.2-0.438,1.012-0.426,1.306c0.02,0.495,0.279,1.023,0.677,1.314c0.21,0.154,0.63,0.14,0.792,0.3
			c0.177,0.175,0.149,0.406,0.196,0.66c0.458-0.021,1.161-0.074,1.12,0.555c-0.022,0.345-0.234,0.622-0.219,0.997
			c0.014,0.317,0.056,0.788,0.236,1.059c0.166,0.25,0.505,0.344,0.717,0.521c0.537,0.448,1.243,0.525,1.731,1.049
			c0.305,0.328,0.315,0.459,0.234,0.871c-0.053,0.268-0.313,0.515-0.121,0.762c-0.165,0.361-0.616,0.646-0.697,1.036
			c-0.06,0.289,0.095,0.4,0.172,0.664c0.197,0.68-0.432,0.713-0.945,0.86c-0.484,0.139-1.079,0.071-1.467,0.464
			c-0.131,0.132-0.154,0.376-0.278,0.505c-0.168,0.174-0.288,0.055-0.499,0.181c-0.233,0.14-0.135,0.508-0.295,0.636
			c-0.304,0.242-0.885-0.308-1.139-0.419c-0.551-0.239-0.513,0.161-1.044,0.267c-0.398,0.079-0.626-0.016-0.922,0.273
			c-0.298,0.29-0.158,0.502,0.018,0.912C19.354,44.959,19.338,45.284,19.35,45.662z M95.076,40.017
			c0.143-0.117,0.234-0.155,0.246-0.365c0.006-0.121-0.032-0.273,0.163-0.417c0,0.423,0.013,0.838-0.013,1.26
			c-0.008,0.122,0.02,0.298-0.028,0.412c-0.065,0.157-0.303,0.2-0.43,0.145C94.568,40.86,94.802,40.241,95.076,40.017z
			 M94.34,52.955c0.217-0.138,0.501,0.021,0.707-0.118c0.165-0.112,0.114-0.303,0.35-0.485c0.052,0.194,0.187,0.36,0.288,0.53
			c0.077,0.129,0.082,0.238,0.102,0.387c0.04,0.294,0.078,0.632,0.02,0.928c-0.038,0.194-0.226,0.326-0.346,0.472
			c-0.065,0.079-0.08,0.117-0.182,0.127c-0.131,0.013-0.225-0.053-0.317-0.141C94.682,54.39,93.765,53.32,94.34,52.955z
			 M93.517,80.777c0.387-0.101,0.64,0.121,0.973,0.225c0.33,0.247,0.63,0.399,0.551,0.631c-0.046,0.134-0.224,0.097-0.223,0.283
			c0,0.165,0.184,0.286,0.223,0.452c0.156,0.664-0.949,0.517-1.275,0.316c-0.199-0.123-0.284-0.365-0.378-0.567
			c-0.084-0.18-0.224-0.329-0.285-0.523C92.999,81.264,93.173,80.867,93.517,80.777z M90.957,91.825
			c0.123-0.342,0.197-0.729,0.66-0.668c0.641-0.029,0.97,0.146,1.057,0.581c0.058,0.291,0.129,1.212-0.158,1.345
			c-0.489,0.227-1.05-0.109-1.308-0.479C91.011,92.322,90.835,92.16,90.957,91.825z"/>
		<path fill="#1E8346" d="M133.27,165.687c-0.021,0.003-0.053,0.042-0.071,0.053c-0.036,0.023-0.076,0.035-0.115,0.052
			c-0.089,0.039-0.184,0.058-0.273,0.097c-0.09,0.041-0.133,0.089-0.18,0.174c-0.058,0.104-0.138,0.216-0.15,0.337
			c-0.03,0.307,0.339,0.497,0.535,0.674c0.124,0.113,0.242,0.162,0.411,0.157c0-0.059,0.007-0.139-0.044-0.245
			c0.013-0.162-0.105-0.312,0.129-0.321c0.078-0.003,0.224-0.006,0.212-0.136c-0.005-0.05-0.043-0.052-0.082-0.07
			c-0.051-0.025-0.076-0.042-0.11-0.092c-0.085-0.125-0.062-0.256-0.044-0.396C133.504,165.858,133.408,165.67,133.27,165.687z"/>
		<path fill="#1E8346" d="M133.452,167.795c-0.156-0.064-0.213,0.108-0.22,0.238c-0.013,0.276,0.062,0.625,0.367,0.711
			c0.155,0.044,0.294-0.033,0.427-0.1c0.055-0.027,0.081-0.026,0.098-0.083c0.016-0.053,0-0.11-0.022-0.158
			c-0.057-0.122-0.121-0.19-0.237-0.25c-0.047-0.024-0.122-0.041-0.197-0.084C133.611,167.979,133.56,167.839,133.452,167.795z"/>
	</g>
</g>
</svg>
