<?xml version="1.0" encoding="utf-8"?>
<!-- Generator: Adobe Illustrator 26.0.3, SVG Export Plug-In . SVG Version: 6.00 Build 0)  -->
<svg version="1.1" id="Isolation_Mode" xmlns="http://www.w3.org/2000/svg" xmlns:xlink="http://www.w3.org/1999/xlink" x="0px"
	 y="0px" viewBox="0 0 200 200" enable-background="new 0 0 200 200" xml:space="preserve">
<path fill="#1E8346" d="M196.193,94.609c-0.562,0.295-4.411-0.723-4.571-1.477c-0.418,0.36-1.166,1.043-1.41,1.539
	c-0.013-0.391-0.02-0.787,0.011-1.178c-0.771,1.575-2.411,0.9-3.704,0.345c-0.419-0.18-1.67-0.454-1.912-0.726
	c-0.291-0.326-0.221-0.843,0.306-0.612c0.069-0.327,0.041-0.66,0.032-0.993c0.944,0.005,2.105,0.027,2.645-0.946
	c0.389-0.701,0.246-1.798-0.086-2.508c-0.31-0.664-0.244-0.772-0.097-1.472c0.124-0.588-0.147-0.885-0.311-1.412
	c-0.117-0.374-0.482-1.735-0.356-2.08c0.127-0.347,0.705-0.53,1.02-0.596c0.703-0.146,1.51-0.853,2.089-1.272
	c0.677-0.49,0.486-1.128,0.359-1.897c-0.111-0.666-0.162-1.341-0.184-2.02c-0.042-1.292,0.025-2.598,0.007-3.881
	c-0.518,0.264-2.496,0.286-3.114,0.03c-0.687-0.285-0.83-0.758-1.624-0.806c-0.808-0.049-1.564,0.132-2.196-0.382
	c-0.757-0.616-1.026-1.74-1.93-2.181c-0.575-0.281-1.265-0.178-1.813-0.561c-0.517-0.361-0.885-1.048-1.148-1.596
	c-0.263-0.55-0.445-1.218-0.698-1.747c-0.251-0.522-0.669-0.939-0.902-1.483c-0.154-0.36-0.234-0.934-0.484-1.204
	c-0.124-0.135-0.401-0.199-0.547-0.306c-0.314-0.229-0.546-0.544-0.897-0.74c-0.473-0.264-0.937-0.272-1.293-0.693
	c-0.438-0.519-0.87-1.154-1.272-1.706c-0.291-0.4-0.879-0.911-1.071-1.339c-0.115-0.258-0.002-0.29-0.058-0.589
	c-0.199-1.077-0.705-0.928-1.694-0.982c-0.272-0.546-0.496-1.081-1.115-1.309c-0.747-0.276-1.589-0.519-2.382-0.709
	c-1.084-0.26-0.515-0.277-0.636-1.17c-0.065-0.477-0.922-1.521-1.338-1.876c-0.589-0.503-1.544-0.604-2.209-1.04
	c-0.445-0.292-1.382-0.806-1.7-1.255c-0.439-0.622,0.159-1.103,0.044-1.726c-0.072-0.394-0.486-0.57-0.697-0.961
	c-0.154-0.285-0.191-0.57-0.331-0.85c-0.567,0.595-0.512,0.749-1.407,0.798c-0.956,0.052-1.648,0.239-2.217-0.606
	c-0.301-0.446-0.469-1.012-1.201-0.885c-0.561,0.097-0.451,0.577-0.651,0.995c-0.52-0.105-2.273-1.146-2.441-0.142
	c-0.75-0.396-0.774-0.751-1.727-0.563c-0.515,0.101-1.005,0.346-1.493,0.529c-1.282,0.481-1.872-1.696-2.65-2.099
	c-0.659-0.341-2.106,0.219-2.819,0.453c-0.973,0.319-1.319,0.246-2.105-0.454c-0.611-0.545-0.67-1.193-0.829-2.021
	c-0.172-0.895-0.029-2.123-0.658-2.853c-0.3-0.348-0.771-0.457-1.086-0.777c-0.25-0.254-0.391-0.636-0.632-0.904
	c-0.588-0.654-0.849-0.815-0.874-1.764c-0.023-0.869,0.131-1.844-0.158-2.68c-0.36-1.042-1.285-1.576-1.997-2.341
	c0.17-0.869,1.064-2.608-0.803-2.158c-0.329,0.079-0.654,0.33-0.875,0.683c-0.322,0.512-0.035,0.868-0.091,1.417
	c-0.249-0.009-0.514,0.152-0.746,0.12c-0.247-0.034-0.304-0.222-0.52-0.299c-0.68-0.244-1.002-0.026-1.113,0.696
	c-0.63,0.275-1.356,0.023-2.014,0.235c-0.6,0.193-0.386,0.442-0.669,0.938c-0.369,0.646-1.036,0.175-1.704,0.345
	c-0.866,0.22-0.887,1.408-1.128,2.145c-0.13,0.396-0.096,0.463-0.412,0.797c-0.215,0.228-0.33,0.182-0.431,0.475
	c-0.156,0.454,0.067,1.238,0.092,1.711c-0.629,0.29-1.322,0.475-1.983,0.674c-0.901,0.271-1.576,0.787-2.332,1.333
	c-0.55-0.395-1.382-1.296-2.078-1.308c-0.549-0.009-0.655,0.434-1.202,0.508c-0.241-0.618,0.174-1.045-0.323-1.444
	c-0.342-0.275-2.085-0.133-2.444,0.02c0.474,1.034-0.802,0.753-1.406,0.973c-0.75,0.274-1.394,0.956-1.94,1.521
	c-0.488,0.069-1.042,0.232-1.414-0.103c-0.346-0.311-0.22-0.922-0.524-1.224c-0.349-0.346-0.877-0.01-1.258-0.187
	c-0.402-0.187-0.273-0.433-0.402-0.815c-0.185-0.547-0.48-0.44-0.774-0.874c-0.276-0.411-0.159-1.078-0.651-1.285
	c-0.554-0.232-1.659-0.089-2.26-0.116c-0.362-0.017-0.734-0.015-1.093-0.067c-1.246-0.183-2.427-0.32-3.693-0.282
	c-0.02,0.442-0.386,0.555-0.694,0.772c-0.743-0.359-0.49-0.678-0.346-1.281c0.111-0.46,0.139-0.925,0.223-1.395
	c-2.268-0.23-4.484,0.774-6.56,1.524c-0.443,0.159-0.884,0.608-1.37,0.521c-0.191-0.034-0.471-0.366-0.702-0.435
	c-0.385-0.117-0.922-0.088-1.352-0.182c-0.742-0.162-1.288-0.425-1.817-0.969c-0.259-0.266-0.379-0.718-0.658-0.944
	c-0.463-0.375-1.163-0.126-1.766-0.112c-0.356,0.009-0.75-0.07-1.097-0.003c-0.432,0.083-0.275,0.123-0.646,0.354
	c-0.557,0.347-0.89,0.249-1.586,0.226c-0.464-0.016-1.694-0.197-2.095,0.16c0.439,0.924,0.762,1.635-0.074,2.284
	c-0.769,0.597-1.789,1.149-2.686,1.516c-0.077-0.225-0.165-0.858-0.351-1.002c-0.278-0.216-0.683,0.003-1.042-0.228
	c-0.639-0.411-0.448-1.264-0.628-1.948c-0.088-0.333-0.28-0.648-0.352-0.98c-0.066-0.305,0.029-0.627-0.028-0.928
	c-0.05-0.262-0.252-0.468-0.294-0.735c-1.096-0.914-2.399-0.152-2.682,0.778c-0.201,0.663,0.01,0.675-0.716,0.933
	c-0.607,0.216-1.347,0.154-1.979,0.153c-1.101-0.001-2.762-0.335-3.784,0.005c-0.673,0.224-0.685,0.813-1.36,0.774
	c-0.798-0.046-0.724-0.704-1.173-1.115c-1.173-1.071-2.409-0.792-3.769-1.112c-0.84-0.198-1.606-0.602-2.386-0.845
	c-1.163-0.362-2.497-0.194-3.701-0.194c-0.919,0-1.996,0.189-2.823-0.163c-0.564-0.24-0.463-0.346-1.186-0.453
	c-0.767-0.113-1.645-0.576-2.414-0.581c-0.564-0.003-1.199,0.311-1.704,0.532c-0.224,0.098-0.745,0.492-0.985,0.477
	c-0.138-0.009-0.309-0.254-0.43-0.264c-0.731-0.062-1.078,0.028-1.642,0.682c-0.454,0.526-0.469,1.328-1.051,1.692
	c-0.403,0.253-1.054,0.155-1.496,0.323c-0.692,0.263-0.907,0.328-1.585,0.314c-0.333-0.007-0.829-0.135-1.13-0.06
	c-0.544,0.135-0.717,0.614-1.054,1.062c-0.819,1.088-2.135,1.755-3.39,2.114c-0.452,0.129-1.198,0.229-1.667,0.089
	c-0.504-0.15-0.702-0.649-1.137-0.802c-1.277-0.448-1.655,1.164-2.387,1.646c-0.964,0.635-1.504-0.193-2.157,1.045
	c-0.497,0.942-0.691,1.529-1.53,2.136c-1.384,1.002-2.86,1.128-3.932,2.633c-0.545,0.765-0.972,1.208-1.719,1.736
	c-0.544,0.385-0.925,0.688-0.846,1.428c0.09,0.853,0.479,1.165,0,1.997c-0.333,0.58-0.753,1.448-1.176,1.946
	c-0.778-0.233-1.318-0.439-2.175-0.26c-0.623,0.13-2.171,0.283-2.171,0.991c0,1.147,0.186,2.209,0.233,3.33
	c0.057,1.35-0.386,2.57-0.571,3.877c-0.183,1.294-0.073,2.796-0.014,4.095c0.084,1.853,0.485,3.655,0.584,5.489
	c0.043,0.806-0.011,1.879,0.268,2.641c0.114,0.311,0.415,0.537,0.523,0.843c0.156,0.44,0.084,0.936,0.085,1.4
	c0.002,1.458-0.034,2.941-0.084,4.425c-0.06,1.794-0.142,3.587-0.207,5.334c-0.065,1.728-0.495,3.14-0.825,4.802
	c-0.301,1.515-1.13,2.813-1.65,4.324c-0.595,1.73-1.226,3.46-2.41,4.946c0.358,0.502,1.195,0.654,1.815,0.691
	c0.112-0.545,0.285-1.112,0.507-1.617c0.332-0.756,0.949-1.026,1.387-1.686c0.521-0.787,0.252-1.623,0.541-2.509
	c0.202-0.618,0.727-1.149,0.953-1.75c0.516-1.372-0.013-2.996,0.439-4.486c0.513-1.693,0.527-3.626,0.735-5.443
	c0.098-0.852,0.135-1.745,0.191-2.605c0.02-0.303,0.042-0.601,0.07-0.893c0.099-1.018,0.182-2.464-0.151-3.402
	c1.045,0.571,0.778,1.866,0.845,2.855c0.034,0.51,0.112,0.98,0.231,1.439c0.112,0.434,0.26,0.859,0.445,1.3
	c0.551,1.314,0.548,2.801,1.258,4.061c1.832,3.251,0.649,7.216-0.885,10.316c0.509-0.002,1.596-0.014,1.8-0.59
	c0.44,0.409,0.415,1.257,0.645,1.794c0.18,0.419,0.563,0.811,0.647,1.256c0.126,0.67-0.322,0.71-0.588,1.178
	c-0.298,0.523-0.308,1.341-0.297,1.947c0.158,0.012,0.377,0.044,0.532,0.009l3.496-2.622l3.787,5.827
	c1.173,0,2.522-0.888,3.535-0.191c0.712,0.489,1.491,0.836,2.203,1.326c0.668,0.461,0.886,1.04,1.271,1.72
	c0.532,0.94,2.075,0.932,3.014,1.34c1.109,0.481,1.67,1.489,2.929,1.75c1.424,0.295,3.024,0.032,4.467,0.209
	c0.062,0.629,0.021,1.29,0.023,1.925c0.571,0.178,0.68,0.517,1.083,0.795c0.426,0.293,0.884,0.32,1.388,0.38
	c1.001-2.54,5.59-1.467,7.673-1.55c1.445-0.058,2.848,0.597,4.274,0.327c1.239-0.235,2.426-0.772,3.656-1.126
	c0.297,0.519,0.024,1.391,0.028,1.982c0.006,0.883,0.488,1.128,0.889,1.853c0.301,0.544,0.646,2.396,1.56,1.941
	c-0.096-0.412-0.315-1.053,0.357-0.993c0.11,1.367,1.281,0.754,1.817,1.505c0.397,0.557,0.072,1.35,1.048,1.383
	c-0.226,0.323-0.61,0.635-0.761,0.99c0.534,0.182,0.896,0.046,1.291-0.339c0.123,0.224,0.164,0.848,0.406,1.025
	c0.472,0.345,0.595-0.229,1.02-0.147c0.641,0.124,0.63,0.812,0.608,1.318c-0.033,0.725-0.111,1.183,0.39,1.674
	c0.187,0.183,0.367,0.238,0.466,0.479c0.135,0.332-0.017,0.73,0.139,1.086c0.246,0.565,0.696,0.987,0.448,1.684
	c-0.306,0.862-1.262,0.337-1.154,1.664c-0.077,0.055-0.155,0.093-0.232,0.122c-0.265,0.102-0.53,0.103-0.783,0.34
	c-0.283,0.266-0.311,0.588-0.506,0.931c-0.528-0.115-1.073-0.105-1.455,0.336c-0.416,0.481-0.149,1.038-0.256,1.645
	c-0.267,0.22-0.887,0.91-0.856,1.318c0.016,0.208,0.709,1.576,0.863,1.708c-0.172,0.078-0.302,0.249-0.468,0.345
	c0.289,0.636,0.356,1.083-0.066,1.658c-0.368,0.501-1.102,1.396-1.648,1.564c0.278,0.336,0.902,1.072,0.846,1.545
	c-0.039,0.333-0.646,1.322-0.976,1.425c0.781,1.537,0.579,2.97,0.626,4.654c0.011,0.389,0.703,0.459,0.945,0.725
	c0.339,0.373,0.512,0.857,0.723,1.316c0.434,0.946,0.497,2.303,1.098,3.125c0.787-0.851,1.727-1.563,2.182-2.666
	c1.649,0.958,3.229,1.294,5.086,1.509c0.073,0.405-0.219,0.882-0.558,1.103c0.269,0.434,1.608,0.954,2.171,1.102
	c0.099,0.595-0.305,1.223-0.598,1.702c0.266,0.183,1.468,0.929,1.833,0.944c0.561,0.023,1.009-0.687,1.564-0.674
	c0.161,0.374,0.187,0.792,0.391,1.152c0.689-0.111,1.218-0.048,1.889,0.083c0.034,0.341-0.014,1.229,0.311,1.5
	c0.226,0.188,0.759,0.016,1.093,0.033c0.929,0.046,1.798,0.388,2.706,0.571c0.761,0.153,0.639,0.184,0.983,0.796
	c0.565,1.005,1.251,1.584,1.624,2.735c0.29,0.898,1.013,1.137,1.964,1.317c-0.002,2.037,1.594,3.755,1.792,5.783
	c0.101,1.036-0.142,1.487-0.756,2.318c-0.237,0.322-0.767,0.708-0.862,1.09c-0.128,0.513,0.223,1.168,0.488,1.566
	c0.261,0.392,0.884,1.394,1.302,1.548c0.348,0.129,1.015-0.149,1.361,0.057c0.282,0.168,0.737,0.948,0.807,1.213
	c1.053-0.278,2.289-1.314,3.374-1.156c0.519,0.075,1.28,0.478,1.695,0.774c0.673,0.479,0.523,0.81,0.521,1.519
	c0.418-0.304,0.94-0.36,1.346-0.693c-0.328-0.487-0.862-0.799-0.553-1.459c0.352-0.75,1.258-0.719,1.83-1.091
	c0.319,0.304,0.657,0.789,1.172,0.56c0.489-0.218,0.471-1.001,0.776-1.426c0.509,0.504,1.196,0.528,1.481,1.259
	c0.114,0.293-0.014,0.877,0.242,1.125c0.266,0.258,0.924,0.108,1.282,0.079c0.842-0.069,1.646-0.316,2.467-0.482
	c0.583-0.118,0.896-0.197,0.805-0.916c0.987-0.104,1.413-0.043,2.26-0.6c0.827-0.544,1.202-0.41,0.967,0.689
	c0.377,0.04,0.952-0.02,1.31,0.141c0.4,0.179,0.274,0.124,0.493,0.523c0.114,0.208,0.252,0.678,0.448,0.805
	c0.201,0.131,0.493-0.018,0.708,0.092c0.299,0.152,0.204,0.329,0.334,0.511c0.323,0.453,0.317,0.486,1.037,0.602
	c0.612,0.098,1.205,0.238,1.826,0.257c0.312,0.01,1.193,0.159,1.472,0.01c0.169-0.09,0.262-0.441,0.371-0.598
	c0.294-0.421,0.675-0.711,1.067-1.046c0.789-0.674,1.34-1.578,2.053-2.334c0.446-0.473,0.985-0.826,1.43-1.296
	c0.182-0.192,0.311-0.514,0.523-0.667c0.611-0.442,0.97,0.178,1.624,0.019c-0.097-0.819,1.229-0.462,1.364,0.086
	c0.158,0.645-0.401,1.628-0.429,2.306c0.48,0.075,1.293,0.138,1.652-0.205c0.589-0.562,0.544-1.289,1.45-1.524
	c0.698-0.181,1.116,0.014,1.402-0.594c0.164-0.349,0.019-0.753,0.332-1.095c0.194-0.211,0.518-0.262,0.699-0.491
	c-0.54,0.004-0.713-0.487-0.901-0.929c-0.195-0.457-0.273-0.944-0.452-1.409c-0.282-0.736-0.997-1.146-1.291-1.843
	c-0.535-1.263,2.174-1.34,1.481-2.096c0.715-0.31,1.548-0.19,2.274-0.59c0.665-0.366,2.155-1.485,2.939-0.857
	c-0.131,1.733,1.395,1.932,2.728,2.154c0.456-0.977,1.787-1.7,2.406-2.564c0.488-0.681,0.883-0.914,1.462-1.451
	c0.72-0.667,0.509-1.583,0.85-2.402c0.371-0.891,0.831-0.137,1.579-0.027c0.152-0.511-0.082-1.232,0.318-1.626
	c0.731,0.244,1.095,0.772,1.875,0.718c0.566-0.664,1.979-0.706,2.704-1.117c0.516-0.294,0.36-0.487,0.935-0.432
	c0.306,0.03,0.715,0.196,1.018,0.282c0.204-0.42,0.32-0.431,0.601-0.759c0.263-0.308,0.307-0.879,0.812-0.379
	c0.297,0.294,0.067,0.852,0.191,1.202c0.238,0.67,0.942,0.58,1.504,0.665c-0.222,0.768-0.48,0.82,0.103,1.525
	c0.284,0.343,0.682,0.546,0.78,1.023c-0.352,0.142-0.765,0.194-1.109,0.25c0.168,0.289,0.286,0.773,0.223,1.136
	c-0.156,0.91-0.844,0.914-1.473,1.307c0.252,0.805,0.631,1.687,1.544,1.897c1.091,0.252,1.494-0.264,1.991,0.833
	c0.203,0.447,0.239,0.675,0.806,0.381c0.455-0.237,0.845-0.851,1.09-1.268c0.348-0.595,0.32-0.595,1.078-0.591
	c0.753,0.003,1.52-0.056,2.269,0.033c0.303-1.189,0.056-1.968-0.691-2.787c-0.811-0.889,0.142-0.66,0.414-1.494
	c0.17-0.521-0.677-1.349-0.996-1.818c-0.393-0.577-0.804-0.655-1.543-0.555c0.236-1.117,0.385-1.848-0.633-2.661
	c-0.269,0.321-0.64,0.662-1.074,0.725c-0.486,0.07-0.787-0.289-1.259-0.449c-0.542-0.183-1.282-0.046-1.855,0.109
	c-0.275-0.453-0.829-0.821-1.014-1.258c0.32,0.045,0.624-0.03,0.935-0.005c0.155-0.395,0.133-0.836,0.124-1.259
	c-0.008-0.41,1.143-0.149,1.307-0.404c0.187-0.289-0.118-0.918-0.171-1.212c-0.071-0.391-0.011-0.386,0.332-0.612
	c0.3-0.198,0.692-0.303,0.885-0.622c0.219-0.362,0.188-1.033,0.126-1.438c-0.064-0.418-0.422-0.742-0.469-1.108
	c-0.026-0.204,0.06-0.299,0.189-0.449c0.276-0.324,0.594-0.52,0.743-0.943c0.211-0.597,0.615-1.622,0.845-2.247
	c0.128-0.349,0.26-0.59,0.524-0.871c0.629-0.668,1.435-1.195,2.135-1.78c0.333-0.279,0.39-0.186,0.384-0.624
	c-0.007-0.502-0.569-1.123-0.713-1.626c-0.193-0.668-0.122-1.354-0.187-2.058c-0.15-1.608-0.109-3.158-0.103-4.776
	c0.003-0.656,0.06-1.303,0.123-1.947c0.094-0.961,0.201-1.919,0.161-2.899c0.451-0.056,0.897-0.146,1.348-0.198
	c0-0.722-0.186-1.727-0.002-2.432c0.66-0.205,1.334-0.934,1.869-1.401c0.903-0.788,0-1.359,0.402-2.309
	c0.386-0.911,1.581-0.323,2.297-0.585c0.473-0.173,1.019-0.845,1.362-1.198c1.05,0.294,1.923,0.818,2.993,1.048
	c0.076-0.129,0.183-0.237,0.251-0.364c0.13-0.241-0.023-0.574,0.08-0.778c0.202-0.395,0.78-0.414,1.085-0.693
	c0.557-0.51,0.17-0.75,0.978-0.845c0.71-0.083,1.247-0.004,1.855-0.419c0.576-0.393,0.937-0.938,1.109-1.628
	c0.166-0.665,0.085-1.378,0.496-1.986c0.346-0.513,1.092-0.593,1.371-1.127c-0.319-0.487-0.894-0.844-1.23-1.305
	c0.665-0.83,2.055-1.275,2.912-1.946c0.625-0.489,1.626-1.264,1.983,0.02c0.707-0.143,0.849-0.48,1.51-0.078
	c0.285,0.173,0.485,0.392,0.865,0.531c0.446-0.485,0.531-1.423,1.238-1.558c0.723-0.138,0.73,0.529,1.19,0.877
	c0.804-0.596,0.912-0.774,1.903-0.484c0.411,0.12,0.217,0.209,0.649-0.021c0.218-0.116,0.376-0.305,0.615-0.404
	c0.175-0.072,0.391-0.099,0.568-0.144c0.076-0.019,0.322,0.054,0.397,0.017c0.117-0.059,0.18-0.237,0.291-0.296
	c0.292-0.153,0.607-0.174,0.907-0.32c-0.125-0.509-0.559-1.009-0.853-1.452c0.415-0.427,1.058-0.66,1.596-0.89
	c0.099-0.042,0.575-0.121,0.656-0.253c0.108-0.176-0.052-0.93-0.053-1.186c-0.002-0.661,0.078-1.061,0.608-1.473
	c0.558-0.433,1.387-0.502,1.906-0.897C197.109,96.288,196.277,95.364,196.193,94.609z"/>
</svg>
