<?xml version="1.0" encoding="utf-8"?>
<!-- Generator: Adobe Illustrator 26.0.3, SVG Export Plug-In . SVG Version: 6.00 Build 0)  -->
<svg version="1.1" id="Isolation_Mode" xmlns="http://www.w3.org/2000/svg" xmlns:xlink="http://www.w3.org/1999/xlink" x="0px"
	 y="0px" viewBox="0 0 200 200" enable-background="new 0 0 200 200" xml:space="preserve">
<g>
	<path fill="#1E8346" d="M4.713,127.516c0.036-0.36,0.02-0.728,0.076-1.087c0.113-0.724,0.398-1.411,0.522-2.133
		c0.083-0.484,0.178-0.984,0.135-1.478c-0.033-0.376-0.077-0.753-0.101-1.131c-0.029-0.454,0.026-0.781-0.094-1.226
		c-0.059-0.219-0.112-0.453-0.155-0.675c-0.046-0.237,0.098-0.247,0.19-0.45c0.123-0.272,0.111-0.651,0.137-0.945
		c0.031-0.355,0.024-0.639,0.126-0.985c0.096-0.328,0.221-0.646,0.325-0.972c0.047-0.147,0.096-0.295,0.137-0.443
		c0.055-0.199,0.19-0.422,0.208-0.621c0.045-0.502,0.225-1.002,0.33-1.494c0.048-0.226,0.093-0.46,0.131-0.697
		c0.068-0.425,0.114-0.859,0.116-1.274c0.003-0.764,0.203-1.522,0.256-2.286c0.029-0.42,0-0.834-0.034-1.252
		c-0.029-0.359,0.008-0.716,0-1.076c-0.011-0.472-0.091-0.948-0.119-1.422c-0.033-0.554-0.126-1.145,0.264-1.583
		c0.165-0.185,0.347-0.336,0.525-0.507c0.238-0.23,0.546-0.338,0.801-0.543c0.262-0.21,0.487-0.457,0.766-0.649
		c0.354-0.244,0.681-0.506,1.03-0.761c0.505-0.369,1.083-0.621,1.568-1.018c0.205-0.167,0.432-0.333,0.56-0.569
		c0.083-0.153,0.147-0.339,0.198-0.495c0.137-0.419,0.435-0.743,0.736-1.029c0.374-0.354,0.774-0.686,1.072-1.109
		c0.285-0.405,0.71-0.762,0.916-1.219c0.135-0.299,0.269-0.601,0.402-0.901c0.178-0.403,0.412-0.78,0.554-1.199
		c0.13-0.383,0.115-0.806,0.164-1.206c0.036-0.295,0.033-0.587,0.033-0.883c0-0.352-0.057-0.744-0.059-1.094
		c-0.002-0.373,0.017-0.776-0.074-1.14c-0.007-0.027-0.012-0.053-0.018-0.08c-0.492-2.122,0.442-4.316,0.255-6.501
		c-0.088-1.029,0.583-1.759,1.145-2.575c0.668-0.97,1.409-2.038,1.828-3.139c0.219-0.576,0.598-0.941,1.023-1.332
		c0.373-0.343,0.674-0.806,0.876-1.267c0.519-1.19,1.161-2.329,1.687-3.514c0.282-0.635,0.269-1.221,0.409-1.878
		c0.125-0.586,0.649-0.94,1.19-1.186c0.854-0.388,1.711-0.512,2.582-0.864c0.99-0.401,2.085-0.088,3.148-0.222
		c1.595-0.202,2.985-1.205,4.393-1.966c0.697-0.377,1.522-0.672,2.275-0.952c0.994-0.37,1.891-0.861,2.826-1.359
		c1.453-0.774,2.924-1.635,4.331-2.483c0.786-0.474,1.843-1.144,2.787-1.02c0.621,0.081,0.526,0.35,0.374,0.875
		c-0.501,1.733-0.233,3.507,0.274,5.206c0.31,1.04,0.896,2.058,1.568,2.902c0.387,0.486,0.778,0.978,1.27,1.362
		c0.376,0.293,0.773,0.543,1.197,0.755c0.472,0.236,0.674,0.653,1.14,0.925c0.584,0.341,1.205,0.751,1.686,1.227
		c1.009,1,1.43,2.344,2.354,3.386c0.583,0.658,1.395,0.954,2.034,1.543c0.487,0.449,1.094,0.72,1.785,0.904
		c0.191,0.051,0.624,0.073,0.776,0.161c0.403,0.233,0.131,0.554,0.226,0.939c0.067,0.267,0.211,0.41,0.314,0.668
		c0.11,0.277,0.179,0.569,0.334,0.853c0.328,0.602,0.275,1.238,0.51,1.871c0.205,0.553,0.309,1.187,0.026,1.761
		c0.125,0.501,0.374,0.917,0.562,1.392c0.191,0.481,0.32,0.983,0.533,1.456c0.137,0.306,0.308,0.522,0.325,0.862
		c0.021,0.405-0.029,0.807-0.031,1.211c0,0.07,0,0.14,0.004,0.211c0.047,1.022,0.423,1.73,1.086,2.473
		c0.557,0.625,1.228,1.299,1.979,1.67c0.766,0.378,1.728,0.654,2.628,0.653c0.327-0.001,0.799-0.021,1.099,0.125
		c0.199,0.097,0.316,0.33,0.404,0.525c0.255,0.565,0.439,1.227,0.834,1.717c0.198,0.246,0.426,0.433,0.684,0.608
		c0.478,0.324,1.185,0.365,1.749,0.399c0.465,0.028,0.932,0.152,1.396,0.147c0.381-0.004,0.756-0.113,1.142-0.103
		c0.182-0.001,0.351-0.018,0.526-0.074c0.272-0.087,0.546-0.143,0.824-0.215c0.309-0.081,0.643-0.093,0.942-0.209
		c0.206-0.08,0.4-0.188,0.605-0.269c0.42-0.168,0.819-0.393,1.247-0.546c0.278-0.099,0.553-0.248,0.798-0.462
		c0.226-0.198,0.601-0.226,0.847-0.41c0.325-0.242,0.674-0.444,1.001-0.685c0.411-0.302,0.535-0.64,0.653-1.106
		c0.033-0.131,0.066-0.319,0.214-0.359c0.183-0.05,0.192,0.092,0.183,0.221c0.27,0.093,0.462-0.038,0.691,0.194
		c0.121,0.122,0.24,0.236,0.362,0.355c0.134,0.132,0.277,0.259,0.403,0.399c0.099,0.11,0.231,0.338,0.366,0.376
		c-0.054-0.165-0.036-0.35-0.106-0.521c-0.07-0.172-0.211-0.359-0.371-0.461c-0.107-0.068-0.218-0.072-0.308-0.176
		c-0.089-0.103-0.142-0.183-0.242-0.281c-0.176-0.172-0.234-0.419-0.422-0.563c0.3-0.265,0.772-0.228,1.137-0.356
		c0.418-0.147,0.73-0.494,1.144-0.659c0.407-0.162,0.891-0.364,1.209-0.67c0.371-0.357,0.533-0.828,0.949-1.133
		c0.302-0.221,0.548-0.517,0.793-0.812c0.195-0.235,0.391-0.47,0.615-0.665c0.409-0.356,0.873-0.626,1.284-0.98
		c0.525-0.453,1.077-0.941,1.501-1.494c0.406-0.529,0.617-1.198,0.891-1.799c0.113-0.248,0.098-1.045,0.354-1.152
		c0.141-0.564-0.021-1.223-0.044-1.793c-0.029-0.726-0.246-1.425-0.244-2.156c0.001-0.794-0.013-1.573-0.109-2.362
		c-0.065-0.536,0.024-1.104-0.091-1.625c-0.105-0.477-0.041-0.762-0.2-1.252c-0.128-0.394-0.067-0.908-0.067-1.333
		c0-0.485-0.008-0.964-0.049-1.446c-0.034-0.404,0.006-0.81-0.239-1.144c-0.192-0.261-0.174-0.323-0.112-0.625
		c0.075-0.365-0.027-0.828-0.046-1.219c-0.016-0.341,0.045-0.678,0.09-1.012c0.045-0.335,0.126-0.612,0.279-0.913
		c0.124-0.243,0.215-0.496,0.097-0.755c-0.075-0.163-0.194-0.286-0.293-0.431c-0.122-0.18-0.22-0.683-0.061-0.866
		c0.014-0.479,0.038-1.022-0.156-1.465c-0.091-0.207-0.169-0.435-0.328-0.602c-0.08-0.084-0.192-0.133-0.226-0.234
		c-0.074-0.219,0.096-0.591,0.117-0.82c0.024-0.269,0.039-0.541,0.039-0.813c0-0.487,0-0.974,0-1.46
		c0-0.363,0.059-0.736,0.022-1.097c-0.033-0.323-0.179-0.618-0.211-0.945c-0.062-0.63-0.008-1.321,0.051-1.946
		c0.028-0.296,0.167-0.551,0.204-0.827c0.048-0.353,0.009-0.666,0.193-0.998c0.265,0.079,0.585,0.137,0.854,0.179
		c0.119,0.019,0.334-0.02,0.435,0.057c0.132,0.1,0.11,0.284,0.203,0.398c0.275-0.144,1.103-0.419,1.204-0.716
		c0.066-0.192-0.15-0.517-0.178-0.704c-0.045-0.297,0.169-0.434,0.167-0.696c-0.075,0.001-0.149-0.043-0.232-0.019
		c-0.068-0.152,0.313-0.716,0.475-0.801c0.361-0.19,0.91-0.046,1.301-0.247c-0.193-0.368,0.184-0.831,0.536-0.841
		c0.106-0.003,0.142,0.1,0.304,0.065c0.129-0.027,0.246-0.183,0.339-0.263c0.183-0.157,0.402-0.43,0.618-0.528
		c0.398,0.273,0.606,1.123,1.296,0.859c0.277-0.106,0.23-0.393,0.373-0.575c0.162-0.207,0.691-0.214,0.888-0.059
		c0.123,0.097,0.209,0.361,0.307,0.485c0.097-0.17,0.276-0.552,0.428-0.679c0.198-0.165,0.616-0.153,0.861-0.146l0.119-0.917
		l1.687-0.473l0.592,0.976l3.048-1.864l1.391-0.118l0.503-0.325l1.48-2.367h0.769v-0.592h2.249l0.355-0.444l0.326,0.414
		c-0.043,0.286-0.295,0.482-0.249,0.795c0.193,0.037,0.24,0.014,0.286,0.211c0.026,0.11-0.017,0.215,0.026,0.323
		c0.088-0.01,0.153-0.045,0.233-0.082c-0.007,0.186-0.186,0.271-0.232,0.439c-0.044,0.158-0.036,0.471-0.003,0.634
		c0.028,0.138,0.12,0.306,0.25,0.365c0.049,0.022,0.137-0.027,0.181-0.001c0.066,0.038,0.088,0.102,0.146,0.162
		c0.051,0.053,0.112,0.098,0.16,0.152c-0.112-0.002-0.224-0.002-0.335-0.002c0,0.217,0.248,0.551,0.338,0.752
		c0.103,0.015,0.206,0.012,0.311,0.017c-0.03,0.412-0.034,0.405,0.317,0.453c0.128,0.017,0.267,0.066,0.392,0.069
		c0.188,0.004,0.549-0.132,0.265-0.34c0.258-0.137,0.148-0.578,0.148-0.829c0-0.285,0.137-0.647,0.068-0.925
		c-0.071-0.284-0.335-0.581-0.543-0.772c-0.115-0.106-0.275-0.226-0.351-0.365c-0.088-0.159-0.09-0.356-0.136-0.536
		c0.196-0.048,0.38-0.063,0.474-0.234c0.08-0.148,0.021-0.264,0.181-0.364c0.263-0.165,0.442,0.11,0.574,0.301l1.42,2.175
		l1.221-0.022l1.465,1.065l-0.555,0.688l1.132,0.953l0.888-0.198c0.198,0.18,0.073,0.366-0.096,0.471
		c0.159,0.033,0.353,0.026,0.518,0.017c0.049-0.003,0.257-0.056,0.288-0.045c0.192,0.063,0.119,0.343,0.219,0.516
		c0.19-0.013,0.336-0.397,0.447-0.537l0.577,0.666l-0.311,0.621l1.465,0.666l0.289,0.732l0.865,0.222v0.4l0.644,0.022l0.844-0.932
		l1.287,0.821v0.333l0.91,1.722l1.021,0.409l0.399-0.421l0.311,0.843l1.132-0.244l0.799,0.377l0.91-0.644h0.488l0.267,0.644
		l0.333-0.266l0.51,0.111v0.755l-0.799,3.24c0.31,0,0.472-0.074,0.671,0.177c0.117,0.147,0.121,0.189,0.309,0.156
		c0.118-0.021,0.212-0.076,0.343-0.089c0.482-0.045,1.163,0.197,1.518,0.533l0.289,0.976l0.91,0.222l0.755,0.643l-0.666,1.332
		l0.91,0.466v0.621c0.209,0.25,0.958,0.359,0.626,0.776c-0.125,0.158-0.205,0.13-0.047,0.325c0.056,0.07,0.168,0.102,0.216,0.169
		c0.114,0.159,0.078,0.325-0.152,0.283l0.888,1.842c0.124,0.125,0.247,0.233,0.411,0.267c0.163,0.034,0.375,0,0.541-0.002
		c0.006,0.147-0.014,0.3,0.022,0.443c0.22,0.025,0.445-0.126,0.471,0.2c0.135-0.04,0.263-0.194,0.397-0.265l1.398,0.577l1.931-0.111
		l0.777,2.419l0.643,0.399h0.932v-0.533l0.666-0.51l0.288,1.221l0.622,0.222v-0.976l0.865-1.176h0.577v-0.621l1.509-0.222
		l0.178-0.311l-0.178-0.244l0.178-0.333l0.444,0.422l-0.133,0.2l0.555,0.067l-0.399,0.599l0.599,0.022l0.244-0.71l0.288-0.022V68.26
		h0.622l1.088-0.377c-0.039-0.185-0.103-0.455-0.046-0.632c0.058-0.182,0.246-0.306-0.087-0.367l1.265-1.065l0.621-0.022v0.488
		l0.622,0.133l-0.289,0.511l0.133,0.244l0.622-0.022l0.177-0.355l0.444,0.067v0.333l1.065-0.067l0.333,0.4l-0.311,0.644
		c0.18,0,0.314,0.154,0.469,0.245c0.184-0.02,0.741,0.018,0.929,0.146c0.273,0.185,0.439,0.539,0.777,0.652l1.198,0.089l0.799,0.511
		c0.353,0,0.735-0.144,1.089-0.134c0.216,0.006,0.47,0.091,0.663,0.192c0.119,0.062,0.183,0.189,0.264,0.298
		c0.18,0.242,0.222,0.365,0.535,0.316c0.297-0.046,0.31,0.053,0.476,0.257c0.224,0.276,0.533,0.622,0.891,0.706
		c0.105,0.025,0.298,0.022,0.383-0.064c0.066-0.066,0.067-0.183,0.113-0.271c0.101-0.195,0.373-0.304,0.443-0.511
		c0.295,0.153,0.592,0.309,0.884,0.461c0.133,0.07,0.212,0.181,0.382,0.117c0.1-0.038,0.219-0.168,0.322-0.225
		c0.1-0.054,0.213-0.141,0.316-0.181c0.179-0.071,0.31,0.061,0.442,0.178c0.106-0.045,0.126-0.156,0.191-0.24
		c0.087-0.112,0.196-0.159,0.342-0.201c0.242-0.07,0.454-0.08,0.704-0.092c0.277-0.012,0.568-0.019,0.844-0.001
		c0.132,0.009,0.258,0.053,0.391,0.054c-0.007,0.184-0.117,0.341-0.196,0.5c-0.069,0.139-0.07,0.257-0.077,0.4
		c0.236-0.087,0.349,0.185,0.427,0.371c0.115,0.276-0.072,0.402-0.183,0.637c-0.132,0.278-0.045,0.762-0.045,1.064
		c0,0.302-0.038,0.649-0.174,0.924c-0.129,0.011-0.247-0.043-0.374-0.045l-0.466,1.679h0.466l0.621,0.377v0.311l0.999-0.311
		l0.71,0.755l1.221,0.266l0.555,1.265l1.509,0.599l0.821,0.688l-0.111,0.91l0.244,0.333l0.954-0.266
		c0.12,0.366,0.457,0.639,0.73,0.906c0.106,0.103,0.206,0.218,0.32,0.315c0.048,0.04,0.156,0.091,0.188,0.142
		c0.061,0.096,0.001,0.337-0.013,0.468c-0.036,0.336-0.144,0.667-0.124,1.008c0.014,0.234,0.107,0.443,0.15,0.667
		c0.036,0.182,0.061,0.36-0.075,0.512c-0.19,0.212-0.553,0.27-0.578,0.585c-0.021,0.273,0.079,0.559,0.019,0.829
		c-0.06,0.272-0.358,0.311-0.492,0.524c0.016,0.223,0.016,0.506,0.086,0.719c0.042,0.128,0.13,0.215,0.151,0.35
		c0.04,0.264-0.058,0.505-0.147,0.743c-0.088,0.237-0.104,0.493-0.193,0.732c-0.054,0.145-0.131,0.309-0.228,0.454
		c-0.167,0.247-0.397,0.44-0.694,0.394c-0.329-0.051-0.576,0.072-0.868,0.241c-0.187,0.108-0.51,0.318-0.548,0.541
		c-0.048,0.279,0.178,0.183,0.359,0.272c0.192,0.095,0.199,0.334,0.189,0.524c-0.18,0.015-0.327-0.197-0.51-0.13
		c-0.115,0.042-0.076,0.121-0.23,0.088c-0.064-0.013-0.14-0.074-0.194-0.11c-0.035,0.054-0.04,0.356,0.013,0.429
		c0.081,0.111,0.359,0.046,0.492,0.11c0.169,0.081,0.076,0.248,0.178,0.386c0.121,0.163,0.472,0.109,0.666,0.147
		c-0.11,0.037-0.14,0.189-0.207,0.276c-0.072,0.094-0.147,0.153-0.249,0.213c-0.26,0.152-0.295,0.18-0.172,0.504
		c0.074,0.197,0.157,0.328-0.007,0.512c-0.188,0.211-0.576,0.405-0.519,0.744c0.044,0.26,0.004,0.399-0.062,0.654
		c-0.063,0.244-0.191,0.607-0.071,0.853c0.223,0.013,0.449,0.002,0.673,0.002c0.179,0,0.498-0.059,0.65,0.017
		c-0.024,0.319-0.202,0.584-0.339,0.865c-0.164,0.337-0.229,0.685-0.333,1.041c-0.088,0.3-0.164,0.55-0.163,0.867
		c0.002,0.452-0.031,0.992-0.163,1.427c-0.148,0.488-0.44,0.156-0.807,0.036c-0.273-0.089-0.236-0.091-0.377,0.182
		c-0.109,0.211-0.26,0.392-0.369,0.596c-0.222,0.418,0.032,0.971-0.131,1.436c-0.1,0.284-0.289,0.573-0.357,0.866
		c-0.023,0.097-0.062,0.69,0.071,0.772c0.114,0.07,0.52-0.212,0.687-0.233c0.465-0.06,0.554,0.135,0.557-0.401
		c0.339-0.066,0.544,0.058,0.656-0.359c0.116-0.014,0.234,0.04,0.326,0.109c0.161-0.18,0.339-0.268,0.559-0.353
		c0.517-0.198,1.23-0.024,1.634-0.352c0.224-0.182,0.252-0.408,0.551-0.476c0.193-0.044,0.453-0.005,0.651-0.001
		c0.051,0.202-0.012,0.415,0.031,0.612c0.095,0.429,0.4,0.683,0.508,1.11c0.041,0.161,0.099,0.298,0.119,0.474
		c0.026,0.23,0.039,0.438,0.098,0.656c0.092-0.024,0.152-0.13,0.241-0.176c0.058-0.03,0.103-0.024,0.158-0.046
		c0.221-0.084,0.431-0.202,0.654-0.286c0.099-0.037,0.219-0.047,0.301-0.114c0.049-0.04,0.072-0.106,0.117-0.15
		c0.088-0.084,0.184-0.1,0.291-0.141c0.061,0.297,0.125,0.604,0.162,0.902c0.019,0.152,0.01,0.317,0.076,0.456
		c-0.134,0.054-0.235,0.187-0.369,0.256c-0.154,0.079-0.329,0.142-0.49,0.207c0.011,0.199-0.066,0.404-0.1,0.597
		c-0.034,0.195-0.03,0.421-0.011,0.618c-0.268,0.06-0.482,0.001-0.693,0.223c-0.123,0.129-0.285,0.338-0.358,0.504
		c-0.079,0.179-0.033,0.379-0.035,0.573c0.135,0.002,0.288-0.062,0.416-0.017c0,0.285,0.013,0.398,0.185,0.623
		c0.149,0.194,0.29,0.379,0.47,0.542c0.054,0.049,0.134,0.093,0.16,0.166c0.026,0.075-0.045,0.224,0.009,0.287
		c0.067,0.079,0.299-0.005,0.375,0.093c0.073,0.094-0.026,0.233,0.088,0.316c0.219,0.158,0.502-0.108,0.489,0.25
		c-0.008,0.226-0.057,0.441-0.061,0.667c0.132-0.017,0.427-0.094,0.546,0.005c0.07,0.058,0.111,0.262,0.153,0.348
		c0.161,0.333,0.197,0.688,0.213,1.053c0.002,0.057,0.004,0.114,0.006,0.172c0.01,0.328-0.084,0.774,0.009,1.091
		c0.095,0.329,0.365,0.722,0.553,1.017c-0.157,0.263-0.364,0.458-0.096,0.718c0.087,0.084,0.169,0.063,0.239,0.14
		c0.06,0.066,0.053,0.198,0.126,0.264c0.088,0.079,0.306,0.124,0.419,0.137c0.281,0.034,0.587,0.053,0.872,0.058
		c0.213,0.004,0.516,0.006,0.716,0.075c0.136,0.048,0.172,0.127,0.271,0.22c0.071,0.066,0.175,0.107,0.234,0.181
		c0.099,0.125,0.056,0.258,0.01,0.411c-0.031,0.102-0.071,0.205-0.093,0.311c-0.023,0.104,0.02,0.273-0.02,0.367
		c-0.14,0.329-0.728,0.319-0.977,0.432c-0.001,0.217,0.008,0.44-0.041,0.653c-0.037,0.16-0.107,0.282-0.121,0.449
		c-0.014,0.161,0.013,0.187,0.117,0.302c0.033,0.037,0.085,0.129,0.134,0.147c0.151,0.055,0.256-0.139,0.36-0.223
		c0.219-0.175,0.249-0.11,0.338,0.096c0.09,0.208,0.117,0.313,0.086,0.561c-0.04,0.323,0.005,0.419,0.181,0.715
		c0.108,0.182,0.201,0.368,0.301,0.554c0.084,0.155,0.209,0.286,0.274,0.436c0.073,0.169,0.14,0.293,0.309,0.394
		c0.089,0.053,0.191,0.086,0.274,0.158c0.175,0.154,0.183,0.408,0.215,0.626c0.028,0.195-0.232,0.411-0.236,0.6
		c-0.002,0.109,0.071,0.263,0.096,0.375c0.048,0.216,0.072,0.429,0.11,0.646c0.054,0.316-0.229,0.604-0.397,0.867
		c-0.07,0.11-0.253,0.268-0.263,0.399c-0.009,0.108,0.144,0.19,0.229,0.275c0.105,0.104,0.209,0.216,0.303,0.331
		c0.051,0.062,0.173,0.168,0.202,0.237c0.049,0.115-0.014,0.33-0.015,0.458c-0.001,0.188,0.1,0.358,0.118,0.541
		c0.024,0.239,0.076,0.446,0.163,0.672c0.166,0.43,0.322,0.86,0.543,1.264c0.14,0.255,0.255,0.522,0.404,0.771
		c0.095,0.159,0.153,0.196,0.03,0.359c-0.107,0.141-0.196,0.236-0.271,0.397c-0.095,0.204-0.13,0.437-0.212,0.648
		c-0.112,0.285-0.369,0.556-0.554,0.797c-0.091,0.119-0.187,0.255-0.296,0.359c-0.15,0.142-0.126,0.216-0.137,0.443
		c0.19,0.07,0.379,0.175,0.566,0.258c-0.067,0.331-0.499,0.427-0.768,0.508c0.086,0.234,0.279,0.191,0.222,0.481
		c-0.03,0.153-0.129,0.155-0.192,0.269c-0.062,0.111,0.005,0.241-0.075,0.358c-0.072,0.105-0.214,0.211-0.322,0.276
		c-0.133,0.081-0.279,0.147-0.401,0.244c-0.116,0.092-0.164,0.185-0.309,0.215c-0.182,0.037-0.274,0.073-0.44,0.176
		c-0.172,0.106-0.294,0.219-0.451,0.349c-0.08,0.066-0.199,0.109-0.236,0.214c-0.02,0.056,0.017,0.226,0.015,0.282
		c-0.006,0.175-0.022,0.361-0.048,0.535c-0.149-0.007-0.307-0.263-0.447-0.326c-0.171-0.077-0.26-0.06-0.381,0.075
		c-0.26,0.291-0.402,0.531-0.455,0.934c-0.195-0.042-0.359-0.201-0.544-0.271c-0.15-0.056-0.351-0.05-0.509-0.054
		c-0.243-0.006-0.644,0.057-0.843,0.206c-0.002,0.157-0.006,0.424-0.089,0.559c-0.045,0.073-0.128,0.139-0.177,0.205
		c-0.05,0.069-0.087,0.152-0.155,0.209c-0.092,0.078-0.249,0.127-0.34,0.211c-0.066,0.061-0.09,0.137-0.14,0.205
		c0.007,0.222,0.011,0.397,0,0.621c-0.009,0.179-0.099,0.33-0.192,0.49c-0.228,0.393-0.557,0.703-0.802,1.076
		c-0.102-0.031-0.189-0.108-0.285-0.146c-0.132-0.051-0.304-0.116-0.446-0.134c-0.166-0.022-0.172,0.035-0.244,0.193
		c-0.144,0.316-0.187,0.417-0.552,0.43c-0.178,0.006-0.861-0.064-0.884,0.107c-0.014,0.105,0.234,0.359,0.306,0.447
		c0.077,0.093,0.203,0.184,0.239,0.304c0.048,0.158-0.093,0.452-0.215,0.56c-0.089,0.078-0.217,0.068-0.328,0.072
		c-0.013,0.224,0.064,0.457,0.028,0.682c-0.028,0.176-0.18,0.408-0.289,0.552c-0.11,0.145-0.234,0.291-0.42,0.291
		c-0.124,0-0.725-0.274-0.844-0.144l-2.427,2.16l-0.059,0.829l-0.828,1.006l0.532,2.13l-0.71,2.781l-1.361,0.207l-3.314-0.533
		l-1.657-0.562l-0.236-0.474l-0.503,0.681l-1.628,0.74l-1.087-0.385l-1.162-1.894l-0.769-0.148v-0.296l-0.414-0.355l-1.391,0.296
		l-0.236,0.828l-1.421-0.148l-0.266,0.355l-0.532-0.267l-0.333,0.555l-0.688,0.133l-0.71,1.309l-0.71-0.067l-0.422,1.776
		l-0.777,0.643l-0.022,1.088l-1.953,0.732l-0.422,0.888l-1.065-0.222l-0.555-0.777l-1.82-0.311l-0.555,1.132l-0.821,0.333h-0.644
		h-1.198l-0.422-0.533l-0.511,0.022l-0.111-0.355l-0.821-0.577l-1.576-0.266l-0.311,0.377l-0.333-0.267l-0.222-1.021l-0.444-0.511
		l-1.154-0.177l-1.198-1.354l-0.821-1.754v-1.309l-0.621-0.821l-0.555-0.533l-0.377,0.222l-0.422-0.599l-0.888-0.111l-2.042-3.041
		v-0.555l-0.866-0.577l-0.311,0.2l-0.599-0.799l-0.777-0.133l-1.243-0.777l-0.977-0.022l-0.377-0.377l0.289-0.311l-0.177-0.777
		l-0.533-0.222l-0.355-0.91l-1.598-0.355l-0.577-0.71l-1.332-0.4l0.377-0.643l-0.222-0.2l0.155-0.777l-0.555-0.444l0.2-0.643
		l-0.342-0.266l-0.546,0.643l-1.287,0.022l-0.999-0.244l-0.288-0.91l-0.466-0.399l-0.71,0.422l-0.178,0.666l-0.643,0.133
		l-0.643-0.244l-0.022-0.311l-0.533-0.022l-0.355,0.422l-0.422-0.133c-0.02-0.091-0.073-0.23-0.064-0.323
		c-0.336-0.11-0.721-0.077-1.071-0.077c-0.351,0-0.576-0.017-0.814,0.212c-0.186,0.178-0.429,0.338-0.669,0.183
		c-0.118-0.076-0.195-0.204-0.325-0.277c-0.236-0.132-0.323-0.087-0.427-0.334c-0.079-0.188-0.106-0.363-0.315-0.463
		c-0.275-0.131-0.228-0.015-0.312-0.351c-0.054-0.217-0.239-0.477-0.467-0.545c-0.452-0.136-0.601,0.47-0.933,0.646
		c-0.259,0.137-0.873,0.144-1.154,0.11c-0.217-0.026-0.296-0.095-0.444-0.238c-0.242-0.234-0.35-0.249-0.688-0.251
		c-0.16-0.001-0.538,0.05-0.64-0.073c-0.068-0.082-0.009-0.219-0.066-0.307c-0.083-0.132-0.169-0.132-0.327-0.165
		c-0.044-0.312,0.035-0.64-0.027-0.951c-0.042-0.214-0.229-0.311-0.271-0.515c-0.042-0.207,0.128-0.415,0.068-0.627
		c-0.019-0.066-0.106-0.102-0.116-0.134c-0.039-0.132,0.045-0.228,0.024-0.356c-0.014-0.085-0.088-0.134-0.11-0.214
		c-0.024-0.086-0.003-0.204-0.021-0.296c-0.049-0.255-0.186-0.479-0.402-0.626c-0.15-0.101-0.349-0.098-0.485-0.173
		c-0.151-0.083-0.149-0.138-0.157-0.342c-0.005-0.104,0.009-0.201-0.021-0.302l-1.132-0.888l-0.148-2.634
		c-0.19-0.096-0.255-0.837-0.632-0.462c-0.059-0.125-0.038-0.268-0.076-0.397c-0.049-0.165-0.158-0.31-0.229-0.464
		c-0.043-0.094-0.058-0.296-0.134-0.369c-0.065-0.063-0.155-0.016-0.222-0.069c-0.107-0.083-0.132-0.231-0.192-0.343
		c-0.052-0.099-0.201-0.246-0.23-0.349c-0.062-0.224,0.124-0.436,0.207-0.626c0.109-0.25,0.211-0.395,0.019-0.579
		c-0.226-0.216-0.638-0.333-0.941-0.323c-0.254,0.009-0.611,0.366-0.658,0.623c-0.045,0.24,0.168,0.722,0.267,0.948
		c-0.326,0.167-0.714,0.121-1.065,0.209c-0.011-0.089,0.031-0.258-0.019-0.335c-0.047-0.072-0.359-0.152-0.432-0.118
		c-0.142,0.067-0.093,0.237-0.109,0.374c-0.023,0.188-0.009,0.199-0.189,0.349c-0.174,0.144-0.392,0.215-0.561,0.359
		c-0.386-0.222-0.46-0.536-0.818-0.053c-0.38-0.052-0.691-0.182-1.082-0.181c0.125,0.496,0.036,0.776-0.307,1.132
		c-0.263,0.273-0.783,0.144-1.164,0.158c-0.593,0.022-0.507,0.411-0.52,0.897c-0.014,0.539-0.26,0.78-0.654,1.111
		c-0.156,0.131-0.393,0.273-0.507,0.45c-0.111,0.173-0.083,0.357-0.082,0.561c0.001,0.309,0.004,0.605-0.058,0.909
		c-0.066,0.319-0.134,0.336-0.435,0.468c-0.407,0.179-0.865,0.168-1.293,0.284c-0.598,0.163-1.151,0.331-1.49,0.846
		c-0.407-0.01-0.669,0.027-0.921-0.311c-0.26-0.35-0.553-0.742-0.991-0.465c-0.345,0.218-0.621,0.316-0.826-0.098
		c-0.089-0.181-0.109-0.807-0.334-0.857c-0.27-0.06-0.427-0.109-0.697-0.133c-0.144-0.013-0.468-0.148-0.6-0.057
		c-0.246,0.17,0.116,0.671-0.237,0.844c-0.133,0.065-0.352,0.03-0.494,0.045c-0.195,0.02-0.372,0.067-0.557,0.14
		c-0.322,0.127-0.67,0.303-0.977,0.466c-0.308,0.165-0.435,0.879-0.784,0.91c-0.12,0.011-0.247-0.187-0.368-0.227
		c-0.129-0.043-0.329-0.023-0.467-0.014c-0.152,0.01-0.428,0.127-0.566,0.089c-0.163-0.045-0.16-0.254-0.013-0.376
		c-0.162-0.129-0.421-0.111-0.518-0.289c-0.05-0.092,0.022-0.317-0.056-0.4c-0.098-0.105-0.442-0.023-0.605-0.022
		c-0.303,0.002-0.587-0.036-0.867-0.168c-0.048-0.324,0.256-0.625,0.145-0.989c-0.096-0.312-0.474-0.273-0.621-0.534
		c-0.13-0.232,0.025-0.607-0.095-0.813c-0.148-0.254-0.78-0.136-1-0.137c-0.456-0.001-0.909,0.039-1.363,0.046
		c-0.118,0.002-0.34,0.022-0.435-0.036c-0.107-0.065-0.06-0.09-0.132-0.161c-0.091-0.089-0.134-0.134-0.261-0.173
		c-0.317-0.097-0.724-0.03-1.052-0.055c-0.452-0.034-0.931-0.129-1.387-0.109c-0.204,0.284-0.476,0.524-0.689,0.804
		c-0.089,0.117-0.047,0.201-0.216,0.144c-0.073-0.025-0.15-0.156-0.182-0.225c-0.136-0.286-0.102-0.64,0.002-0.925
		c0.136-0.37,0.241-0.708,0.304-1.096c-0.112-0.096-0.292-0.159-0.386-0.231c-0.595,0.051-1.125,0.199-1.704,0.319
		c-0.483,0.1-1.113,0.018-1.567,0.199c-0.531,0.212-0.934,0.696-1.43,0.968c-0.24,0.132-0.449,0.276-0.677,0.42
		c-0.37,0.233-1.02,0.133-1.398-0.091c-0.208-0.123-0.271-0.364-0.444-0.511c-0.238-0.202-0.599-0.094-0.894-0.121
		c-0.208-0.019-0.517-0.062-0.667-0.233c-0.134-0.152-0.113-0.409-0.242-0.573c-0.236-0.301-0.826-0.531-1.202-0.592
		c-0.302-0.049-0.611-0.056-0.915-0.091c-0.261-0.03-0.818-0.232-1.073-0.101c-0.088,0.046-0.138,0.249-0.223,0.321
		c-0.111,0.095-0.181,0.104-0.327,0.124c-0.276,0.039-0.563,0.051-0.841,0.064c-0.386,0.017-0.793,0.023-1.173,0.092
		c-0.298,0.055-0.549,0.139-0.861,0.101c0.031,0.09,0.227,0.244,0.184,0.361c-0.035,0.093-0.153,0.081-0.192,0.163
		c-0.072,0.152,0.05,0.257,0.125,0.385c0.1,0.169,0.157,0.3,0.153,0.499c0.237,0.347-0.955,0.605-1.153,0.72
		c-0.175,0.102-0.338,0.188-0.492,0.313c-0.187,0.151-0.185,0.186-0.149,0.445c-0.186,0.029-0.375,0.024-0.561,0.038
		c-0.097-0.234-0.147-0.417-0.36-0.567c-0.284-0.199-0.522-0.047-0.814-0.132c-0.236-0.068-0.527-0.883-0.627-1.127
		c-0.111-0.271-0.333-0.549-0.416-0.824c-0.083-0.274,0.111-0.253,0.236-0.453c0.14-0.223-0.017-0.597-0.06-0.831
		c-0.055-0.294-0.25-0.517-0.323-0.798c-0.302-0.019-0.458,0.06-0.669-0.151c-0.246-0.247-0.4-0.228-0.78-0.228h-0.089
		c-0.214-0.025-0.157,0.414-0.266,0.551c-0.191,0.241-0.328,0.094-0.312,0.503c0.016,0.43-0.103,0.43-0.508,0.617
		c-0.369,0.171-0.757,0.418-1.155,0.504c-0.203,0.194-0.86,0.034-1.141,0.044c-0.287,0.01-0.563,0.032-0.85,0.006
		c-0.393-0.035-0.747-0.131-1.123-0.237c-0.24-0.068-0.42,0.01-0.632,0.169c-0.271,0.202-0.59,0.917-1.023,0.807
		c-0.21-0.054-0.277-0.341-0.448-0.425c-0.106-0.052-0.272-0.003-0.389-0.049c-0.139-0.054-0.111-0.058-0.21-0.185
		c-0.153-0.196-0.282-0.444-0.456-0.619c-0.206-0.207-0.576-0.286-0.87-0.262c-0.148-0.323-0.101-0.348-0.453-0.297
		c-0.54,0.078-0.859-0.073-1.388-0.163c-0.382-0.064-0.603-0.097-0.921-0.313c-0.367-0.25-0.684-0.028-1.076-0.142
		c-0.141-0.041-0.249-0.178-0.389-0.231c-0.239-0.091-0.317,0.028-0.524,0.156c-0.162,0.1-0.266,0.145-0.458,0.16
		c-0.216,0.017-0.542-0.071-0.738,0.025c-0.154,0.075-0.289,0.342-0.485,0.298c-0.068-0.016-0.339-0.21-0.413-0.261
		c-0.106-0.073-0.173-0.198-0.272-0.277c-0.133-0.106-0.26-0.151-0.427-0.178c-0.265-0.043-0.425-0.069-0.598,0.1
		c-0.098,0.096-0.072,0.136-0.204,0.195c-0.193,0.086-0.452,0.005-0.625,0.147c-0.212,0.173-0.508-0.276-0.662-0.391
		c-0.236-0.176-0.432-0.389-0.591-0.622c-0.356-0.102-0.59-0.085-0.923-0.005c-0.245,0.058-0.351,0.023-0.556-0.114
		c-0.16-0.107-0.339-0.285-0.535-0.323c-0.194-0.038-0.427,0.061-0.622,0.102c-0.114,0.024-0.267,0.03-0.353,0.096
		c-0.09,0.069-0.081,0.156-0.193,0.193c-0.07,0.023-0.166-0.023-0.23-0.014c-0.082,0.011-0.11,0.053-0.192,0.073
		c-0.143,0.033-0.239,0.02-0.385-0.013c-0.123,0.27-0.747-0.305-0.99,0.014c-0.059,0.078-0.035,0.207-0.098,0.277
		c-0.129,0.145-0.369,0.028-0.503,0.132c-0.1,0.078-0.14,0.482-0.182,0.598c-0.086,0.24-0.197,0.479-0.309,0.708
		c-0.044,0.089-0.102,0.278-0.2,0.313c-0.192,0.066-0.305-0.121-0.518,0.024c-0.181,0.123-0.353,0.269-0.541,0.389
		c-0.385,0.246-0.722,0.254-1.168,0.316c-0.304,0.042-0.493,0.016-0.778-0.154c-0.234-0.139-0.385-0.363-0.593-0.09
		c-0.042,0.055-0.031,0.15-0.087,0.196c-0.099,0.082-0.182,0.008-0.311,0.048c-0.213,0.066-0.274,0.305-0.391,0.503
		c-0.247,0.419-0.419,0.565-0.836,0.717c-0.335,0.122-0.43,0.23-0.614,0.507c-0.146,0.221-0.48,0.551-0.748,0.602
		c-0.373,0.072-0.848,0.012-1.225,0.001c-0.225-0.006-0.432-0.01-0.61-0.124c-0.148-0.095-0.221-0.201-0.397-0.255
		c-0.353-0.107-0.83-0.053-1.187-0.002c-0.041,0.118-0.074,0.24-0.185,0.31c-0.162,0.102-0.328-0.077-0.484-0.01
		c-0.112,0.048-0.257,0.582-0.34,0.72c-0.141,0.233-0.301,0.346-0.55,0.451c-0.192,0.081-0.6,0.203-0.622-0.115
		c-0.414,0.062-0.813,0.809-1.02,1.132c-0.142,0.223-0.25,0.382-0.313,0.638c-0.032,0.131-0.032,0.223-0.139,0.323
		c-0.182,0.169-0.539,0.207-0.759,0.259c-0.454,0.107-0.856,0.281-1.281,0.472c-0.283,0.128-0.583,0.246-0.855,0.394
		c-0.213,0.115-0.255,0.21-0.315,0.437c-0.125,0.47-0.484,0.958-0.8,1.319c-0.155,0.177-0.327,0.34-0.469,0.528
		c-0.082,0.109-0.133,0.246-0.241,0.339c-0.228,0.197-0.83,0.161-0.981,0.421c-0.056,0.095-0.018,0.29-0.037,0.399
		c-0.032,0.183-0.101,0.347-0.113,0.534c-0.011,0.18-0.005,0.363,0.054,0.527c0.057,0.155,0.092,0.369,0.153,0.508
		c-0.155,0.194-0.613,0.503-0.303,0.797c-0.318,0.104-0.277,0.341-0.369,0.637c-0.05,0.161-0.091,0.595-0.218,0.697
		c-0.104,0.083-0.39,0.06-0.491-0.005c-0.177-0.112-0.202-0.363-0.378-0.479c-0.29,0.15-0.605,0.109-0.91,0.199
		c-0.307,0.09-0.572,0.279-0.878,0.376c-0.232,0.073-0.476,0.164-0.714,0.199c-0.268,0.04-0.255,0.058-0.347-0.15
		c-0.055-0.124-0.078-0.29-0.102-0.423c-0.056-0.307-0.136-0.599-0.216-0.903c-0.102-0.387-0.161-0.749-0.227-1.141
		c-0.104-0.622-0.367-1.264-0.578-1.864c-0.124-0.353-0.18-0.722-0.332-1.066c-0.233-0.527-0.515-1.013-0.583-1.599
		c-0.007-0.208-0.013-0.47-0.017-0.774c-0.007-0.523,0-0.926,0-1.077c0-0.422-0.005-0.851,0.032-1.273
		c0.033-0.377,0.099-0.825-0.077-1.179c-0.226-0.455-0.221-1.027-0.253-1.539C4.648,128.016,4.688,127.76,4.713,127.516z"/>
</g>
</svg>
