<?xml version="1.0" encoding="utf-8"?>
<!-- Generator: Adobe Illustrator 26.0.3, SVG Export Plug-In . SVG Version: 6.00 Build 0)  -->
<svg version="1.1" id="Isolation_Mode" xmlns="http://www.w3.org/2000/svg" xmlns:xlink="http://www.w3.org/1999/xlink" x="0px"
	 y="0px" viewBox="0 0 200 200" enable-background="new 0 0 200 200" xml:space="preserve">
<g>
	<path fill="#1E8346" d="M171.366,75.444c-0.119-0.288-0.415-0.581-0.373-0.91c0.032-0.245,0.308-0.323,0.349-0.494
		c0.136-0.565-0.209-1.091-0.03-1.664c0.198-0.634,0.148-0.952-0.324-1.686c-0.02,0.144-0.134,0.276-0.158,0.42
		c-0.211-0.269-0.675-0.854-0.981-0.956c-0.024,0.093-0.09,0.186-0.12,0.28c-0.181-0.622-0.724-0.11-1.085-0.41
		c-0.375-0.312-0.172-1.221-0.841-0.492c-0.534-0.422-1.083-1.008-1.637-1.379c-0.462,1.065-1.173-0.146-1.56-0.454
		c-0.297-0.236-0.689-0.414-1.067-0.461c-0.883-0.108-0.931,0.262-1.48-0.573c-0.226-0.344-0.507-1.042-0.901-1.188
		c-0.512-0.19-1.038,0.243-1.526,0.007c-0.467-0.226-0.75-0.86-1.193-1.105c-0.36-0.199-0.873-0.129-1.208-0.387
		c-0.294-0.227-0.336-0.702-0.561-1.023c-0.616,0.343-0.871,0.987-0.657,1.659c-0.401,0.09-1.193,0.287-1.633,0.222
		c-0.397-0.059-0.553-0.296-0.854-0.595c-0.5-0.499-0.653-1.466-1.326-1.637c-0.079-0.256-0.084-0.541-0.174-0.784
		c-0.122,0.065-0.343,0.126-0.464,0.22c-0.024-0.137-0.126-0.223-0.119-0.389c-0.575-0.108-0.638-0.122-0.744-0.685
		c-0.461,0.028-0.737,0-0.929-0.446c-0.169-0.393,0.032-0.758-0.258-1.122c-0.447-0.562-0.963-1.379-1.626-1.656
		c-0.891-0.373-1.523-0.712-2.339-1.242c-0.415-0.269-0.473-0.432-0.633-0.93c-0.107-0.332-0.38-0.67-0.457-0.99
		c-0.177-0.736,0.279-1.131-0.364-1.71c-0.364-0.328-0.378-0.399-0.329-0.877c0.04-0.386-0.15-0.729-0.15-1.119
		c-0.179-0.238-0.252-0.496-0.488-0.7c-0.651,0.528-1.039,1.342-1.67,1.901c-0.358,0.317-0.724,0.406-1.195,0.528
		c-0.264,0.068-0.684,0.232-0.966,0.153c-0.399-0.112-0.625-0.692-0.802-1.014c-0.208-0.38-0.433-0.317-0.842-0.269
		c-0.334,0.039-0.518,0.096-0.804-0.098c-0.19-0.129-0.291-0.327-0.458-0.462c-0.203-0.164-0.526-0.233-0.781-0.301
		c-0.103,0.228-0.252,0.304-0.474,0.382c-0.367,0.129-0.547,0.146-0.776,0.46c-0.244,0.336-0.535,0.615-0.865,0.849
		c-0.31-0.533-0.4-1.012-0.232-1.6c0.052-0.181,0.298-0.674,0.211-0.883c-0.066-0.158-0.306-0.208-0.485-0.281
		c-0.682-0.281-0.625,0.49-1.224,0.549c-0.393,0.039-0.764-0.437-0.994-0.72c-0.443-0.543-0.953-1.137-1.331-1.692
		c-0.255-0.373-0.049-0.419,0.046-0.763c0.055-0.201-0.048-0.477-0.059-0.681c-0.027-0.478-0.296-1.278-0.762-1.513
		c-0.235,0.336-0.992,0.584-1.375,0.655c-0.768,0.142-0.945-0.076-1.395-0.602c-0.24-0.28-0.323-0.532-0.712-0.504
		c-0.359,0.026-0.701,0.079-1.064,0.079c-0.651,0-1.872,0.301-2.087-0.37c-0.152-0.472,0.099-1.133-0.536-1.24
		c-0.92-0.155-1.954,0.388-2.603-0.667c-0.283-0.461-0.123-1.115-0.242-1.617c-0.126-0.534-0.4-1.264-0.695-1.726
		c-0.47-0.734-1.099-0.323-1.816-0.565c-0.714-0.241-0.809-1.19-1.39-1.638c-0.546-0.42-0.926,0.009-1.435,0.106
		c-0.958,0.181-1.267-0.085-1.531-0.854c-0.179-0.523-0.225-1.062-0.492-1.56c-0.211-0.394-0.671-0.86-0.712-1.313
		c0.494-0.479,0.196-1.334,0.507-1.797c0.191-0.283,0.524-0.292,0.401-0.71c-0.069-0.231-0.346-0.515-0.463-0.737
		c-0.295-0.559-0.408-0.373-1.01-0.427c-0.31-0.028-0.491-0.112-0.759-0.253c-0.607-0.32-1.364-0.568-1.798-1.129
		c-0.345-0.446-0.6-0.934-1.027-1.311c-0.715-0.631-0.864-0.597-0.911-1.569c-0.033-0.686-0.282-0.54-0.621-1.098
		c-0.339-0.559-0.128-1.377-0.232-1.999c-1.136-0.118-2.445,0.237-3.345-0.618c-0.501-0.476-0.88-1.197-1.411-1.637
		c-0.688-0.57-0.649,0.079-1.29,0.082c-0.467,0.001-0.609-0.642-0.907-0.905c-0.43-0.378-0.701-0.314-0.916-0.927
		c-0.193-0.55-0.237-0.924-0.89-1.201c-0.595-0.252-1.123,0.102-1.764-0.056c-0.547-0.135-1.026-0.333-1.493-0.661
		c-1.161-0.815-2.252-1.878-3.522-2.508c-0.116-0.058-0.214-0.12-0.297-0.187c-0.751-0.602-0.215-1.533-0.349-2.507
		c-0.074-0.535-0.335-1.084-0.454-1.608c-0.137-0.596-0.086-1.066-0.495-1.546c-0.846-0.993-2.337-0.42-3.522-0.598
		c-0.658-0.099-1.095-0.26-1.574,0.294c-0.326,0.377-0.462,0.803-0.862,1.095c-0.942,0.689-1.934-0.455-3.016-0.086
		C78.538,8.74,78.092,9.376,77.7,9.521c-0.464,0.172-0.872-0.058-1.348,0.265c-0.526,0.358-1.023,1.287-1.263,0.057
		c-0.161-0.823,0.099-1.533-0.268-2.323c-0.22-0.475-0.684-1.364-1.155-1.596c-0.182,0-0.564-0.042-0.728-0.114
		c-0.444-0.196-0.1-0.441-0.293-0.76c-0.26-0.431-1.034-0.387-1.417-0.108c-0.314,0.229-1.019,1.084-1.144,1.442
		c-0.09,0.26,0.023,0.415,0.023,0.652c0,0.374-0.1,0.711-0.152,1.073c-0.567,0.234-1.697,0.202-2.153,0.56
		c-0.123,0.097-0.111,0.332-0.232,0.448c-0.274,0.262-0.439,0.341-0.849,0.372c-0.724,0.053-1.087,0.049-1.395,0.875
		c0.135,0.17,0.598,0.353,0.665,0.54c0.091,0.254-0.235,0.408-0.242,0.669c-0.009,0.362,0.491,0.899,0.716,1.17
		c0.694-0.323,0.316-1.082,0.488-1.682c0.335-0.454,0.871-0.108,1.16,0.225c0.495,0.571,0.045,1.027,0.138,1.674
		c0.02,0.137,0.058,0.233,0.105,0.311c0.114,0.19,0.276,0.273,0.339,0.588c0.08,0.397-0.171,1.381-0.257,1.757
		c0.424,0.199,0.721,0.023,1.129-0.12c0.237-0.084,0.557-0.18,0.946-0.162c0.021,0.314,0.114,0.731,0.229,1.012
		c0.389-0.899,0.715,0.438,0.816,0.548c0.02-0.114,0.139-0.251,0.165-0.371c0.089-0.025,0.293-0.029,0.383-0.004
		c-0.012,0.798,0.925,1.034,1.394,1.526c0.386,0.406,0.582,1.159,0.628,1.702c0.129,1.503,0.207,2.883,0.632,4.345
		c0.138,0.474,0.287,0.742,0.609,1.102c0.392,0.439,0.667,0.563,0.806,1.061c0.082,0.296,0.069,0.643,0.157,0.953
		c0.285,0.997,0.764,1.823,1.209,2.709l-3.191,0.513l-2.336,5.471l-1.425-1.026c0-0.796,0.04-1.523-0.613-2.066
		c-0.57-0.475-1.321-0.506-1.823-1.097c-0.371-0.436-0.578-1.301-0.079-1.769c0.425-0.399,0.7-0.13,0.606-0.912
		c-0.045-0.38-0.156-0.737-0.253-1.101c-0.674-0.044-0.736,0.037-1.147-0.51c-0.191-0.255-0.379-0.498-0.569-0.753
		c-0.383-0.515-0.876-0.911-1.351-1.366c-0.359-0.345-0.346-0.489-0.899-0.225c-0.562,0.269-0.499,0.341-1.117,0.199
		c-0.934-0.216-2.292,0.456-3.189,0.891c-0.857,0.416-0.19,0.703,0.194,1.231c0.264,0.363,0.226,0.634,0.323,1.036l-8.662,4.445
		l-3.362,2.792l1.995,2.28l-3.591,3.02l-1.31,5.414l0.912,11.397h-0.912l-1.767,0.57h-6.496l-1.539,1.083l-0.684,2.28l-0.741,0.513
		l-0.741,2.907v3.875l1.482,3.989l-1.482,0.798c-0.053,0.437,0.314,0.739,0.285,1.208c-0.052,0.828-0.322,0.421-0.794,0.62
		c-0.251,0.106-0.88,0.679-1.031,0.955c-0.148,0.27-0.15,0.7-0.113,1.062c0.046,0.446,0.436,0.668,0.487,1.05
		c0.074,0.557-0.397,0.292-0.702,0.645c-0.474,0.55,0.382,1.593,0.385,2.268c0.001,0.279-0.226,0.605-0.178,0.875
		c0.027,0.152,0.26,0.241,0.309,0.419c0.13,0.47-0.099,1.312,0.535,1.493c0.042,0.456-0.272,1.01-0.457,1.427
		c0.558,0.364,1.168,0.538,1.725,0.92c0.705,0.482,0.265,0.689,0.347,1.422c0.33,0.142,0.791,0.038,1.101,0.215
		c0.394,0.226,0.333,0.692,0.652,1.002c0.324,0.314,0.938,0.338,1.37,0.372c0.171,0.013,0.407,0.039,0.575-0.006
		c0.121-0.032,0.104-0.257,0.2-0.269c1.805-0.225,0.407,2.431,0.135,3.178c-0.852-0.13-0.427,1.977-0.115,2.376
		c0.387,0.495,0.962,0.361,1.269,0.942c0.2,0.378,0.335,1.054,0.396,1.475c-1.548,0.066-2.948,1.302-3.941,2.387
		c0.172,0.256,0.542,0.506,0.661,0.78c0.136,0.314,0.039,0.66,0.156,0.984c0.741,0.101,1.308,0.635,1.357,1.321
		c0.035,0.486-0.261,1.661-0.97,1.467c-0.307-0.084-0.348-0.669-0.547-0.873c-0.306-0.313-0.855-0.314-1.274-0.43
		c-0.582-0.161-0.548-0.236-1.026,0.15c-0.439,0.354-0.816,0.871-1.252,1.249c-0.237,0.206-0.48,0.307-0.687,0.539
		c-0.166,0.187-0.221,0.428-0.451,0.572c-0.5,0.314-1.461,0.441-2.052,0.678c-0.057,1.285-0.045,2.575-0.283,3.812
		c0.654,0.318,0.854,1.038,0.519,1.599c-0.408,0.682-0.617,1.045-0.753,1.833c0.398,0.629,1.024,0.828,1.66,1.175
		c0.394,0.214,0.949,0.355,1.256,0.673c0.335,0.348,0.454,0.898,0.762,1.27c0.591,0.714,0.726,1.596,1.458,2.222
		c0.308,0.264,1.234,1.281,1.612,0.762c0.196-0.269,0.004-0.452-0.153-0.675c-0.309-0.442-0.582-0.824-0.948-1.219
		c-0.675-0.727-0.103-1.286,0.801-1.16c0.814,0.113,1.31,0.888,2.216,0.69c0.629-0.138,1.409-0.471,2.035-0.016
		c0.591,0.43,0.686,1.445,1.624,1.444c0.559,0,1.314-0.324,1.864-0.49c0.776-0.234,1.152-0.917,1.757-1.363
		c0.574-0.423,1.386-0.48,2.043-0.632c0.304,0.386,0.278,0.465,0.329,0.985c0.016,0.164,0.055,0.495,0.136,0.653
		c0.127,0.248,0.381,0.262,0.589,0.411c0.312,0.223,0.356,0.564,0.534,0.881c0.241,0.427,0.874,0.644,1.069,1.115
		c0.179,0.433,0.107,1.44-0.565,1.1c-0.228,0.246,0.438,0.908,0.081,1.328c-0.365-0.143-0.473-0.623-0.819-0.796
		c-0.354-0.177-0.935-0.109-1.321-0.189c-0.711-0.148-1.258-0.281-1.884-0.663c-0.72-0.44-1.501-0.831-2.176-1.247
		c-0.406-0.25-0.98-0.421-1.442-0.466c-0.758-0.074-1.459-0.296-2.227-0.294c-0.32,0-0.87-0.126-1.141,0.065
		c-0.149,0.106-0.396,0.582-0.451,0.751c-0.165,0.506,0.015,0.737,0.379,1.007c0.211,0.157,0.253,0.365,0.405,0.552
		c0.24,0.295,0.61,0.293,0.951,0.424c0.24,0.093,0.381,0.095,0.374,0.368c-0.005,0.198-0.347,0.835-0.506,0.969
		c0.583,0.414,1.079,0.677,1.538,1.22c0.265,0.312,0.427,0.601,0.91,0.571c0.022,0.667,1.68,1.221,1.957,0.683
		c0.131-0.255,0.021-0.485,0.45-0.43c0.233,0.03,0.117,0.021,0.272,0.127c0.14,0.096,0.086,0.246,0.285,0.345
		c0.161,0.081,0.374,0.045,0.548,0.042c-0.009-0.147-0.011-0.368,0.087-0.487c0.105-0.127,0.435-0.071,0.438-0.319
		c0.003-0.228-0.604-0.235-0.689-0.455c-0.129-0.336,0.303-0.485,0.559-0.606c0.82-0.387,2.08-0.188,2.305,0.767
		c0.065,0.274,0.098,0.466,0.271,0.703c0.179,0.245,0.712,0.562,0.757,0.898c0.063,0.457-0.233,0.157-0.503,0.066
		c-0.289-0.097-0.712-0.064-0.63,0.329c0.112,0.532,1.151,1.033,1.504,1.298c-0.004,0.258-0.237,0.607-0.186,0.85
		c0.04,0.194,0.191,0.24,0.307,0.398c0.176,0.24,0.086,0.375,0.099,0.71c0.018,0.471,0.855,1.242,1.27,1.518
		c0.147,0.098,0.166,0.03,0.301,0.161c0.158,0.154,0.219,0.404,0.353,0.578c0.435,0.561,0.975,1.054,1.463,1.565
		c0.27,0.283,1.483,2.241,2.038,1.63c0.211-0.232-0.09-0.8,0.199-1.02c0.335-0.256,0.895,0.267,1.179,0.419
		c0.199-0.368,0.407-0.99,1.012-0.924c0.564,0.062,0.472,0.899,1.069,0.883c0.567-0.015,0.759-0.802,1.325-0.887
		c0.405-0.06,0.749,0.276,1.158,0.3c0.294,0.017,0.632-0.062,0.919,0.005c0.234,0.054,0.232,0.087,0.337,0.208
		c0.187,0.214,0.179,0.354,0.434,0.554c0.499,0.392,0.496,0.704,0.546,1.289c0.042,0.488,0.245,0.889,0.295,1.381
		c0.032,0.315,0.063,0.807,0.036,1.116c0.624,0.439,0.338,1.316,0.93,1.849c0.248,0.224,0.619,0.265,0.83,0.53
		c0.325,0.409,0.141,0.463,0.639,0.647c0.564,0.209,1.144,0.274,1.682,0.627c0.487,0.319,0.882,0.947,1.017,1.598
		c0.055,0.263-0.247,0.765-0.085,0.957c0.189,0.224,0.735-0.055,0.965,0.135c0.467,0.384,0.36,0.929,1.005,1.302
		c0.033-0.112,0.155-0.201,0.192-0.297c0.118,0.122,0.402,0.296,0.474,0.437c0.112,0.222,0.004,0.301,0.029,0.553
		c0.038,0.392,0.029,0.972,0.335,1.268c0.526,0.51,1.533-0.062,2.214,0.05c0.346,0.057,1.039,0.182,1.317,0.377
		c0.262,0.184,0.294,0.388,0.417,0.728c0.232,0.643,0.362,0.691,0.896,1.125c0.778,0.632,1.424,1.352,0.898,2.339
		c-0.226,0.423-0.085,0.282-0.487,0.425c-0.198,0.071-0.593-0.101-0.696,0.218c-0.121,0.372,0.664,0.55,0.873,0.716
		c0.3,0.239,0.486,0.551,0.776,0.767c0.276,0.205,0.528,0.322,0.757,0.604c0.706,0.87,1.931,1.235,2.578,2.141
		c0.803,1.123,0.892,2.165,0.674,3.509c-0.167,1.027-0.114,2.099-0.017,3.14c0.045,0.473,0.214,0.98,0.56,1.33
		c0.451,0.457,0.687,0.359,0.585,1.172c-0.287-0.009-0.572,0.061-0.852,0.128c0.617,0.727,1.096,1.15,1.928,1.593
		c0.053,0.028,0.106,0.056,0.161,0.084c0.398,0.202,0.798,0.399,1.185,0.609c0.26,0.141,0.79,0.782,1.042,0.613
		c0.43-0.29,1.685,1.171,2.267,1.262c0.666,0.104,1.203,0.121,1.848,0.436c0.66,0.323,1.335,0.628,1.992,0.961
		c0.417,0.211,1.086,0.744,1.519,0.797c0.414,0.408,0.918,0.681,1.288,1.171c0.381,0.505,0.638,1.15,1.069,1.616
		c0.473,0.514,1.508,0.835,2.187,0.991c0.232-0.587,0.051-1.452,0.065-2.087c0.004-0.176-0.036-0.401,0.035-0.553
		c0.12-0.258,0.697-0.384,0.57-0.773c-0.062-0.19-0.569-0.275-0.749-0.319c-0.168-0.452-0.042-1.004-0.093-1.474
		c-0.531-0.018-2.638,0.239-1.809-0.888c0.389-0.528,1.254-0.79,1.717-1.306c-0.029-0.819-0.155-0.809-0.741-1.141l0,0
		c-0.021-0.011-0.04-0.023-0.062-0.035c-0.524-0.303-0.604-0.671-0.625-1.247c-0.029-0.8-0.142-1.021,0.712-1.252
		c0.8-0.217,1.805-0.127,2.249-0.894c-1.415-0.691-0.518-1.425-0.49-2.697c0.012-0.535-0.201-0.525-0.439-0.98
		c-0.221-0.423-0.228-1.01-0.317-1.48c-0.104-0.552-0.229-1.123-0.03-1.656c0.165-0.442,0.665-0.764,0.779-1.208
		c0.139-0.544-0.26-1.242-0.315-1.79c-0.084-0.834,0.203-0.544,0.643-1.1c-1.079-0.409-1.294-1.73-2.671-1.465
		c-0.404,0.078-0.606,0.34-0.997,0.093c-0.304-0.191-0.438-0.559-0.741-0.732c-0.157-0.09-0.295-0.049-0.45-0.19
		c-0.137-0.126-0.091-0.347-0.237-0.473c-0.211-0.183-0.575-0.156-0.814-0.36c-0.213-0.183-0.069-0.339-0.384-0.418
		c-0.086-0.021-0.315,0.115-0.429,0.099c-0.167-0.023-0.643-0.2-0.781-0.301c-0.629-0.461-0.923-1.496-1.602-1.905
		c-0.784,0.949-1.729-1.088-2.192-1.57c-0.159-0.165-0.483-0.341-0.608-0.518c-0.15-0.214-0.053-0.502-0.159-0.705
		c-0.179-0.343-0.708-0.583-1.099-0.654c0.032-0.462-0.077-0.83-0.384-1.15c-0.435-0.453-0.568-0.531-0.567-1.157
		c0.001-0.467,0.026-0.695-0.323-1.022c-0.157-0.146-0.481-0.273-0.553-0.468c0.32-0.255,1.248-0.72,0.454-0.957
		c-0.383-0.115-0.619-0.092-0.952-0.374c-0.263-0.222-0.478-0.617-0.818-0.723c0.117,0.524-0.436,0.411-0.647,0.14
		c-0.116-0.149-0.105-0.407-0.272-0.505c-0.169-0.099-0.602-0.003-0.805-0.003c-0.639-0.001-0.949,0.354-1.528,0.46
		c-0.341,0.063-0.648,0.043-0.902-0.195c0-0.142-0.022-0.299-0.002-0.439c0.037-0.25,0.034-0.174,0.198-0.271
		c0.131-0.078,0.502-0.117,0.437-0.348c-0.036-0.128-0.109-0.111-0.22-0.121c-0.262-0.025-0.449,0.2-0.73,0.13
		c-0.223-0.055-0.414-0.312-0.587-0.457c-0.546-0.46,0.274-0.485,0.22-1.043c-0.033-0.348-0.451-0.77,0.079-0.907
		c0.217-0.056,0.401,0.023,0.608-0.08c0.299-0.149,0.552-0.413,0.85-0.58c0.002,0.083,0.063,0.14,0.081,0.221
		c0.351,0.007,1.018-0.151,1.212,0.157c0.081,0.127,0.032,0.314,0.124,0.448c0.156,0.229,0.639,0.25,0.721-0.029
		c0.132-0.453-0.088-1.093,0.35-1.423c0.4,0.087,0.933,0.306,1.266,0.562c0.364,0.278,0.218,0.589,0.329,0.963
		c0.517-0.055,1.076-0.287,1.612-0.394c0.282-0.057,0.626,0.062,0.898-0.015c0.259-0.074,0.435-0.444,0.692-0.494
		c0.191-0.037,0.255,0.04,0.353,0.167c0.117,0.15,0.102,0.152,0.295,0.159c0.094,0.003,0.188,0,0.282,0
		c0.386,0,0.788,0.052,1.156-0.083c0.266-0.097,0.454-0.316,0.696-0.448c0.251-0.137,0.635-0.201,0.768,0.099
		c0.092,0.209-0.043,0.473,0.111,0.658c0.174-0.223,0.298-0.474,0.529-0.654c0.146-0.113,0.286-0.208,0.419-0.349
		c0.124-0.131,0.205-0.31,0.388-0.193c0.203,0.13,0.04,0.336-0.058,0.498c-0.119,0.199-0.151,0.276-0.049,0.478
		c0.081,0.159,0.184,0.288,0.049,0.482c-0.09,0.13-0.24,0.093-0.275,0.252c-0.03,0.136,0.071,0.317,0.096,0.449
		c0.029,0.156-0.029,0.479,0.108,0.547c0.2,0.099,0.359-0.177,0.365-0.33c0.005-0.142-0.066-0.298-0.093-0.436
		c-0.021-0.103-0.081-0.258,0.038-0.341c0.101-0.07,0.301,0.04,0.411-0.019c0.143-0.076,0.293-0.43,0.402-0.562
		c0.169-0.204,0.217-0.262,0.459-0.106c0.293,0.19,0.546,0.331,0.72,0.641c0.009-0.393-0.228-2.475,0.32-2.52
		c0.024,0.052,0.056,0.131,0.096,0.214c0.098,0.206,0.24,0.439,0.41,0.374c0.022-0.009,0.045-0.02,0.068-0.04
		c0.142-0.12,0.056-0.315-0.02-0.479c-0.039-0.083-0.076-0.158-0.078-0.211c-0.027-0.577,0.096-0.558,0.256-0.369
		c0.176,0.207,0.397,0.621,0.514,0.676c0.101,0.048,0.179,0.05,0.243,0.025c0.173-0.066,0.25-0.331,0.413-0.47
		c0.124-0.106,0.335-0.088,0.445-0.195c0.095-0.092,0.027-0.271,0.114-0.341c0.18-0.145,0.365-0.105,0.526-0.324
		c0.062-0.084,0.086-0.219,0.103-0.367c0.024-0.202,0.034-0.427,0.111-0.579c0.163-0.016,0.3,0.024,0.44,0.058
		c0.132,0.032,0.266,0.058,0.426,0.024c0.056-0.012,0.118-0.034,0.183-0.061c0.315-0.133,0.718-0.422,0.979-0.597
		c0.021-0.014,0.042-0.028,0.062-0.04c0.234-0.153,0.464-0.333,0.695-0.509c0.223-0.17,0.446-0.336,0.671-0.468
		c0.411-0.24,0.519-0.217,0.576-0.605c0.006-0.042,0.012-0.089,0.017-0.142c0.043-0.431-0.017-0.81-0.088-1.199l-0.001-0.005
		c-0.026-0.141-0.052-0.282-0.077-0.429c-0.111-0.67,0.224-0.471,0.411-1.027c0.124-0.368-0.165-0.797-0.028-1.146
		c0.081-0.205,0.427-0.437,0.703-0.628c0.09-0.062,0.172-0.12,0.235-0.171c0.144-0.118,0.293-0.214,0.445-0.297
		c0.05-0.028,0.101-0.054,0.152-0.079c0.555-0.273,1.145-0.411,1.704-0.773c0.054-0.034,0.104-0.071,0.153-0.109l0.125,0.208
		l-0.088-0.238c0.58-0.472,0.815-1.176,1.041-1.928c0.045-0.15,0.098-0.289,0.156-0.422c0.036-0.083,0.075-0.163,0.115-0.242
		c0.152-0.303,0.326-0.589,0.494-0.914c0.022-0.043,0.042-0.087,0.061-0.132c0.089-0.209,0.152-0.437,0.245-0.645
		c0.046-0.056,0.086-0.13,0.118-0.219c0.148-0.223,0.37-0.333,0.607-0.422l1.126-1.534l6.043-8.226l0.624-0.416
		c0.293-0.036,0.541-0.132,0.733-0.235c-0.137-0.173-0.269-0.351-0.396-0.532l-0.397-1.587l0.033-0.34l0.138-1.427l0.525-0.703
		l0.274-0.367l0.539-0.722c0.038,0.007,0.077,0.012,0.118,0.013c0.074,0,0.157-0.008,0.223-0.053
		c-0.061-0.05-0.101-0.096-0.144-0.143c-0.011-0.012-0.023-0.023-0.034-0.035l0.813-1.089l0.415-0.556l0.602-0.806l0.149-0.199
		l0.053-0.07c0.382,0,1.338,0.19,1.634,0.01c0.314-0.191,0.205-0.154,0.13-0.307c-0.019-0.039-0.037-0.091-0.044-0.163
		c-0.013-0.132-0.067-0.288-0.092-0.444c-0.023-0.145-0.021-0.289,0.062-0.415c0.085-0.128,0.237-0.201,0.402-0.271
		c0.137-0.058,0.282-0.116,0.404-0.2c0.074-0.051,0.14-0.112,0.19-0.19c0.186-0.289,0.066-0.803,0.356-1.045
		c0.118-0.098,0.691-0.103,0.88-0.191c0.436-0.203,0.72-0.334,0.928-0.313c0,0,0.004,0.001,0.006,0.001l0.027,0.004
		c0.232,0.044,0.369,0.3,0.531,0.894c0.011,0.039,0.021,0.08,0.032,0.122c0.035,0.141,0.073,0.295,0.127,0.442
		c-0.053-0.004-0.106-0.008-0.158-0.013c0.063,0.032,0.127,0.062,0.191,0.093c0.07,0.165,0.164,0.315,0.309,0.415
		c0.268,0.185,0.659,0.051,0.844,0.371c0.005,0.008,0.008,0.015,0.012,0.022c0.237,0.419-0.019,0.195-0.155,0.607
		c-0.033,0.101-0.054,0.193-0.066,0.281c-0.035,0.265,0.013,0.492,0.055,0.814c0.002,0.014,0.004,0.027,0.005,0.041
		c0.098,0.798,0.269,0.921,0.779,1.496c0.395,0.445,1.075,1.375,1.094,2.012c0.001,0.026,0.002,0.054,0.001,0.079
		c-0.113,0.036-0.353,0.011-0.445,0.064c-0.093,0.053-0.248-0.025-0.353,0.021c-0.066,0.029-0.115,0.092-0.16,0.166
		c-0.078,0.127-0.146,0.287-0.274,0.363c-0.017,0.01-0.035,0.019-0.054,0.026c-0.229,0.08-0.542-0.156-0.697-0.012
		c-0.035,0.033-0.05,0.095-0.053,0.173c-0.009,0.233,0.094,0.603,0.109,0.718c0.026,0.207,0.022,0.393-0.002,0.568
		c-0.023,0.171-0.063,0.331-0.112,0.49c-0.114,0.37-0.27,0.731-0.339,1.198c-0.133,0.904,0.564,1.361,1.053,2.071
		c0.306,0.445,0.41,0.712,0.409,1.243c0,0.024-0.001,0.05-0.003,0.076c-0.013,0.205-0.064,0.476-0.076,0.729
		c-0.059,0.073-0.117,0.147-0.172,0.223l0.18,0.038c0.018,0.142,0.062,0.266,0.154,0.348c0.339,0.301,0.975,0.113,1.335,0.415
		c0.012,0.01,0.024,0.018,0.034,0.029c0.235,0.229,0.314,0.647,0.464,0.97c0.031,0.066,0.064,0.13,0.103,0.186
		c0.053,0.075,0.114,0.143,0.178,0.208c-0.002,0.013-0.004,0.026-0.004,0.04c0,0.139,0.113,0.251,0.251,0.251
		c0.031,0,0.059-0.006,0.086-0.016c0.129,0.088,0.264,0.167,0.403,0.241c0.137,0.074,0.276,0.142,0.409,0.21
		c0.506,0.256,1.037,0.605,1.515,0.833c0.333-0.496,0.627-0.509,0.527-1.197c0.139-0.019,0.305,0.019,0.466,0.046
		c0.139,0.023,0.274,0.037,0.381-0.003c0.064-0.024,0.13-0.127,0.203-0.229c0.06-0.084,0.124-0.168,0.196-0.208
		c0.09-0.05,0.186-0.079,0.286-0.099c0.358-0.071,0.755-0.006,1.06-0.228c0.003-0.002,0.005-0.004,0.008-0.007
		c0.32-0.243,0.268-0.841,0.586-0.936c0.281-0.083,0.466,0.125,0.642,0.368c0.179,0.248,0.348,0.532,0.6,0.578
		c0-0.019,0.002-0.037,0.004-0.054c0.036-0.375,0.492-0.456,0.629-0.791c0.091-0.223-0.045-0.617-0.001-0.854
		c0.149-0.796,0.596-0.573,1.239-0.825c0.657-0.258,1.208-1.055,1.891-0.616c0.363,0.233,0.395,0.599,0.854,0.717
		c0.393,0.1,0.939-0.003,1.342-0.003c0.463,0,1.537,0.24,1.866,0.003c0.328-0.237,0.639-1.373,0.731-1.773
		c0.169-0.735,0.009-1.243,0.67-1.539c0.551-0.247,1.179-0.302,1.733-0.553c0.41-0.186,0.294-0.15,0.57-0.485
		c0.229-0.276,0.033-0.331,0.385-0.44c0.489-0.151,0.97,0.365,1.47,0.275c0.348-0.841,1.037-1.985,0.791-2.887
		c-0.137-0.503-0.373-1.165-0.671-1.591c-0.228-0.326-0.47-0.385-0.513-0.872c-0.1-1.136,0.536-1.223,1.107-1.902
		c0.402-0.477,0.504-1.545,0.928-1.859c0.286-0.212,0.628,0.101,0.818-0.223c0.121-0.206,0.066-0.776-0.058-0.915
		c-0.314-0.352-0.793-0.604-1.142-0.912c-0.331-0.292-0.341-0.365-0.519-0.733c-0.298-0.616-0.28-0.455-0.848-0.577
		c-0.326-0.07-0.59,0.011-0.577-0.447c-0.443-0.061-0.943-0.08-1.231-0.406c-0.16-0.182-0.123-0.589-0.348-0.733
		c-0.268-0.174-0.749,0.183-0.863-0.18c-0.1-0.319,0.009-0.807-0.158-1.092c-0.211-0.361-0.128-0.132-0.55-0.274
		c-0.33-0.111-0.501,0.06-0.439-0.405c0.033-0.248,0.437-0.434,0.62-0.633c-0.725-0.614-1.253-1.075-1.021-2.131
		c0.089-0.406,0.514-0.558,0.623-0.896c0.14-0.438-0.224-0.962-0.15-1.416c0.266-0.067,0.669,0.046,0.902-0.094
		c0.193-0.116,0.186-0.63,0.355-0.767c0.181-0.146,0.254,0.007,0.401-0.063c0.235-0.111,1.205-0.746,1.383-0.714
		c0.196,0.035,0.38,0.402,0.598,0.469c0.097,0.03,0.545-0.018,0.645-0.019c0.456-0.004,1.221-0.173,1.64,0.006
		c0.146,0.063,0.142,0.218,0.254,0.349c0.388,0.456,0.399,0.764,1.016,0.922c0.371,0.096,0.706,0.016,1.065,0.157
		c0.378,0.148,0.641,0.481,1.074,0.57c0.18-0.511-0.202-0.87,0.303-1.15c0.51-0.282,0.524-0.007,0.807,0.309
		c0.388,0.432,0.721,0.784,1.205,1.103c0.342,0.226,0.723,0.361,0.868,0.77c0.15-0.212,0.211-0.488,0.074-0.716
		c0.405,0.111,0.977,0.681,1.367,0.656c0.253-0.016,0.208-0.135,0.452-0.216c0.501-0.165,1.152-0.222,1.619-0.479
		c0.104-0.057,0.102-0.256,0.235-0.319c0.203-0.098,0.505,0.078,0.681-0.09c0.228-0.218,0.06-0.855,0.115-1.136
		c1.115,0.284,0.989-1.547,0.925-2.113c-0.063-0.558,0.133-1.233-0.207-1.659c-0.161-0.201-0.67-0.225-0.58-0.606
		c0.076-0.326,0.56-0.219,0.767-0.286c0.59-0.19,0.967-0.677,1.492-0.981c0.212-0.123,0.477-0.135,0.647-0.242
		c0.472-0.299,0.339-0.612,0.513-1.068c0.401,0.151,0.74,0.001,1.07,0.327c0.19,0.187,0.193,0.54,0.445,0.598
		c0.53,0.121,0.729-0.796,1.087-0.988c0.471-0.253,0.91,0.146,1.401,0.156C171.722,77.154,171.689,76.223,171.366,75.444z
		 M54.181,119.555c-0.286-0.025-0.195-0.595-0.291-0.792c-0.086-0.177-0.228-0.278-0.296-0.463
		c-0.065-0.177-0.109-0.403-0.098-0.595c0.027-0.467,0.149-0.738-0.171-1.123c-0.309-0.373-0.737-0.603-1.034-0.984
		c-0.417-0.534-1.3-0.715-1.896-0.971c-0.29-0.125-0.557-0.211-0.864-0.279c-0.193-0.044-0.547-0.037-0.717-0.128
		c-0.102-0.055-0.122-0.152-0.198-0.243c-0.214-0.258-0.548-0.339-0.845-0.46c-0.386-0.158-0.723-0.385-1.159-0.464
		c-0.216-0.04-0.49,0.128-0.611-0.153c0.258-0.256,0.515-0.522,0.792-0.766c0.165-0.145,0.33-0.32,0.544-0.36
		c0.273-0.051,0.367,0.048,0.534-0.191c0.206-0.294,0.142-0.615,0.424-0.858c0.093-0.08,0.443-0.376,0.587-0.348
		c0.299,0.059,0.097,0.656,0.057,0.808c-0.153,0.576-0.182,1.252,0.191,1.748c0.407,0.542,1.237,0.723,1.883,0.598
		c0.87-0.169,1.65-0.73,2.576-0.513c0.443,0.104,0.523,0.436,0.57,0.839c0.046,0.39,0.099,0.923,0.001,1.308
		c-0.063,0.249-0.217,0.52-0.188,0.784c0.017,0.153,0.139,0.277,0.187,0.418c0.072,0.21,0.054,0.483,0.04,0.701
		c-0.014,0.21-0.076,0.39-0.167,0.565c-0.124,0.238-0.178,0.247-0.039,0.47c0.138,0.223,0.235,0.468,0.245,0.733
		C54.246,119.033,54.268,119.368,54.181,119.555z M81.588,132.733c-0.272-0.212-0.572-0.216-0.909-0.237
		c-0.368-0.023-0.472,0.077-0.518,0.403c-0.048,0.345,0.258,0.412,0.383,0.705c0.135,0.319,0.336,0.988-0.056,1.184
		c-0.526,0.264-1.025,0.252-1.204-0.407c-0.093-0.341-0.004-0.991-0.374-1.159c-0.089-0.04-0.375-0.091-0.472-0.044
		c-0.146,0.07-0.096,0.28-0.292,0.247c-0.046-0.237,0.211-0.369,0.084-0.633c-0.07-0.144-0.162-0.148-0.288-0.23
		c-0.149-0.097-0.165-0.171-0.254-0.324c-0.102-0.174-0.273-0.44-0.469-0.493c-0.088-0.024-0.361,0.038-0.452,0.038
		c-0.066,0.153-0.416,0.408-0.558,0.33c-0.223-0.123-0.212-0.459-0.072-0.616c0.147-0.164,0.371-0.225,0.588-0.247
		c0.174-0.017,0.353,0.043,0.489-0.058c0.256-0.19,0.028-0.703,0.47-0.533c0.156,0.06,0.431,0.684,0.561,0.285
		c0.044-0.134,0.011-0.326,0.009-0.467c-0.002-0.156,0.017-0.463-0.047-0.6c-0.08-0.169-0.268-0.103-0.391-0.211
		c-0.12-0.105-0.111-0.33-0.132-0.485c-0.028-0.2-0.058-0.287-0.16-0.387c-0.038-0.037-0.084-0.075-0.146-0.121
		c-0.089-0.068-0.17-0.148-0.215-0.249c-0.016-0.035-0.027-0.073-0.033-0.113c-0.01-0.069-0.002-0.146,0.011-0.226
		c0.028-0.171,0.083-0.355,0.053-0.488c-0.077-0.057-0.154-0.119-0.23-0.187c-0.165-0.032-0.25-0.015-0.365-0.181
		c-0.116-0.168-0.157-0.391-0.253-0.576c-0.005-0.011-0.011-0.021-0.016-0.032c-0.009-0.016-0.018-0.032-0.026-0.049
		c-0.088-0.156-0.206-0.306-0.376-0.207c-0.059,0.034-0.108,0.073-0.148,0.116c-0.116,0.124-0.158,0.283-0.148,0.466
		c0.017,0.326-0.061,0.414-0.393,0.317c-0.282-0.083-0.359-0.313-0.556-0.498c0.212-0.142,0.393-0.005,0.554,0.114
		c0.116,0.087,0.23,0.192,0.291,0.018c0.036-0.103-0.048-0.234-0.021-0.348c0.019-0.079,0.11-0.269,0.168-0.342
		c0.004-0.005,0.009-0.012,0.013-0.016c0.084-0.087,0.27-0.1,0.417-0.065c0.04,0.009,0.078,0.022,0.11,0.038
		c0.142,0.075,0.146,0.229,0.221,0.359c0.194,0.334,0.473,0.562,0.799,0.744c0.303,0.17,0.562,0.27,0.842,0.476
		c0.137,0.101,0.492,0.225,0.483,0.424c-0.027,0.004-0.061,0.004-0.097,0.003c-0.195-0.005-0.497-0.057-0.59,0.056
		c0.099,0.122,0.216,0.238,0.332,0.355c0.105,0.105,0.209,0.21,0.3,0.321c0.219,0.268,0.256,0.478,0.665,0.436
		c0.657-0.068-0.131-0.949-0.118-1.308c0.157-0.029,0.412-0.023,0.558-0.087c0.217-0.097,0.161-0.357,0.153-0.554
		c-0.008-0.195-0.027-0.187-0.183-0.287c-0.076-0.048-0.241-0.148-0.235-0.264c0.005-0.094,0.271-0.397,0.347-0.477
		c0.037,0.135-0.005,0.284,0.031,0.423c0.025,0.097,0.097,0.179,0.134,0.271c0.105,0.259,0.072,0.355,0.355,0.453
		c0.33,0.114,0.403,0.433,0.619,0.689c0.226,0.269,0.384,0.316,0.741,0.298c0.034,0.158,0.007,0.317,0.031,0.475
		c-0.309,0.077-0.323-0.06-0.545-0.159c-0.138-0.062-0.417-0.086-0.569-0.084c-0.337,0.004-0.544,0.293-0.538,0.607
		c0.28,0,0.349-0.181,0.585-0.227c0.21-0.042,0.462,0.083,0.604,0.227c0.196,0.198,0.361,0.49,0.515,0.721
		c0.131,0.196,0.213,0.344,0.197,0.585c-0.013,0.199,0,0.375-0.068,0.554c-0.07,0.181-0.173,0.341-0.061,0.503
		c0.07,0.1,0.175,0.149,0.241,0.262c0.083,0.139,0.1,0.259,0.129,0.407c0.045,0.227,0.111,0.472,0.177,0.695
		C81.983,133.204,81.777,132.88,81.588,132.733z M84.495,129.547c-0.182,0.092-0.407,0.115-0.608,0.151
		c-0.145,0.026-0.437,0.14-0.578,0.1c-0.22-0.063-0.18-0.573-0.191-0.791c-0.032-0.637,0.098-1.273,0.077-2.031
		c0.106-0.145,0.317-0.208,0.456-0.328c0.184-0.158,0.316-0.425,0.554-0.224c0.162,0.136,0.173,0.32,0.272,0.5
		c0.059,0.107,0.16,0.184,0.224,0.285c0.084,0.133,0.102,0.279,0.115,0.445c0.015,0.185-0.006,0.359,0.032,0.542
		c0.034,0.165,0.1,0.318,0.139,0.479C85.084,129.069,84.854,129.365,84.495,129.547z M111.846,113.345l1.074-0.665l-1.91,2.747
		l0.003-0.005C111.352,114.862,111.859,114.024,111.846,113.345z M113.056,112.485l0.215-1.99l1.811-1.207l0.366-0.244
		L113.056,112.485z"/>
	<g>
		<path fill="#1E8346" d="M132.168,194.568c-0.239,0.33-0.423,0.625-0.551,0.881c-0.129,0.257-0.193,0.542-0.193,0.854
			c0,0.386,0.121,0.712,0.365,0.978c0.243,0.266,0.551,0.482,0.923,0.647c0.372,0.165,0.773,0.282,1.205,0.351
			c0.432,0.069,0.84,0.103,1.226,0.103c0.312,0,0.661-0.032,1.047-0.097c0.386-0.064,0.744-0.172,1.074-0.324
			c0.331-0.151,0.609-0.353,0.833-0.606c0.225-0.253,0.337-0.572,0.337-0.957c0-0.331-0.096-0.595-0.289-0.792
			c-0.193-0.198-0.443-0.349-0.751-0.455c-0.308-0.105-0.659-0.174-1.053-0.207c-0.395-0.032-0.79-0.048-1.185-0.048
			c-0.211,0-0.443-0.005-0.696-0.013c-0.253-0.01-0.512-0.028-0.778-0.055c-0.266-0.027-0.53-0.062-0.792-0.103
			C132.63,194.685,132.388,194.632,132.168,194.568z"/>
	</g>
</g>
</svg>
