<?xml version="1.0" encoding="utf-8"?>
<!-- Generator: Adobe Illustrator 26.0.3, SVG Export Plug-In . SVG Version: 6.00 Build 0)  -->
<svg version="1.1" id="Isolation_Mode" xmlns="http://www.w3.org/2000/svg" xmlns:xlink="http://www.w3.org/1999/xlink" x="0px"
	 y="0px" viewBox="0 0 200 200" style="enable-background:new 0 0 200 200;" xml:space="preserve">
<style type="text/css">
	.st0{fill:#1E8346;}
</style>
<g>
	<g>
		<path class="st0" d="M82.4,55.9c0.2-0.4-0.3-0.6-0.5-0.2C80.9,56.8,82.2,57.1,82.4,55.9z"/>
		<path class="st0" d="M81.2,46.9c0.4-0.6-0.1-1-0.1-0.1C81,46.8,81.1,46.9,81.2,46.9z"/>
		<path class="st0" d="M81,57.3c0.1,0.4,0.5-0.1,0.5-0.3C81.3,56.8,80.9,57,81,57.3z"/>
		<path class="st0" d="M82.5,62c0.6-0.1,3.1-0.1,1.5-0.5c-0.7,0-0.7-1.4-1.1-0.4C82.3,60.8,82.5,61.5,82.5,62z"/>
		<path class="st0" d="M91.6,52.8c0.6-2.8-2.2-1.1-2.1,0.9C89.5,54.3,92,53.5,91.6,52.8z"/>
		<path class="st0" d="M89.7,54.6c-0.2,0-0.5,0.1-0.4,0.4C88.9,55.4,90.8,54.8,89.7,54.6z"/>
		<path class="st0" d="M87.8,58c-0.1-0.2-0.5,0.2-0.2,0.3C87.8,58.5,87.9,58.2,87.8,58z"/>
		<path class="st0" d="M89,46.3c0-0.1,0.2-0.3,0-0.3C88.7,46.1,88.6,46.7,89,46.3z"/>
		<path class="st0" d="M84.2,44.8c0.3-0.1,0.3-0.5,0-0.3C83.9,44.6,84.2,44.6,84.2,44.8z"/>
		<path class="st0" d="M81.9,45.7c0.4,0.6,1.3-0.5,0.5-0.8C81.8,44.5,81.6,45.3,81.9,45.7z"/>
		<path class="st0" d="M81.6,47c0,0.4,0.5-0.6,0-0.5C81.4,46.7,81.5,46.8,81.6,47z"/>
		<path class="st0" d="M89.9,46.3c-1.2,0.7,0.7,1.3,0.7,2.1c-1.7-1.7-1.4-0.1-1.2,1.5c-1-1.8-1.4,1.4-2.2,1.7
			c-0.1-0.4,3.2-6,0.8-3.7c-1,1,1.7-3.9-0.3-3.6c-1.3-0.4-2.1,1.7-0.9,2.5c-0.6-0.1-1.5-0.1-1.2,0.7c-0.3,0.9,0.8,0.5,1.1,0.7
			c0.6,1.4,0.1,0-0.5,0.3c-2.1-0.3,0.8,2,0.1,1.9c-0.6-0.8-3.5,1.4-2,1.5c0,1.2-0.9,2-1.7,3.7c-0.1,0.7,0.5,1.1,0.5,0.2
			c0.5-0.4,1.4-0.6,0.9-1.3c0.8-0.3,2.3-1.5,2.1-2.4c1.6,0.3-2.7,3.1-0.6,2.6c0.1,0.4,0.3-0.2,0.5,0.1c0,0.2,0.1,0.3,0.3,0.2
			c0.3,0.1-0.2,0.6,0.4,0.5c0.3-0.1,0.3-1.2,0.7-1.3c0-0.9,0-0.8,0.4-0.3c0.4-0.3-0.3-0.6-0.2-0.9c0.4,0.5,0.6,0.4,0.6-0.3
			c0.3,0.6-0.6,2.2,0.6,1.2c0.4-0.5,0.9-2.7,1.1-2.1c0.6-1,2.4,0.1,2.2-1.2c1.3-2.2,0.2-3.9-1.5-5.2C91.3,47.1,90.9,45.8,89.9,46.3z
			"/>
		<path class="st0" d="M83.8,52.3c-0.1,0-0.2,0.1-0.2,0.2C83.8,52.7,84.2,52.5,83.8,52.3z"/>
		<path class="st0" d="M84.6,55.3c0.1-0.3-0.5,0-0.4,0.2C84.3,55.6,84.5,55.3,84.6,55.3z"/>
		<path class="st0" d="M85.6,45.8c1.2-0.3,0.4-2.2,0.8-2.2c1.9,0.9,3.1-3.4,3.7-4.9c-1.4-1.5-2.1,1.5-2.6,2.3
			C85.8,41.6,84.9,44.4,85.6,45.8z"/>
		<path class="st0" d="M84.5,60.7c-0.2-1.1-1-0.5-0.6,0.3C84.1,61.2,84.7,61.1,84.5,60.7z"/>
		<path class="st0" d="M101.9,30.8c0-0.1,0-0.2-0.1-0.3C101.5,30.6,101.7,30.8,101.9,30.8z"/>
		<path class="st0" d="M93.9,42.7c1.6-0.2,2.2-1.1,1.5,0.8c1.5-0.1,0.8-0.5,0.9-1.2c0.4-0.3,1.5-2.5,2.1-2.1
			c-0.7,1.2,2.1,0.7,2.9,0.1c-0.7-0.2-1-0.6-0.3-1c-0.5-0.6-0.5-1.7,0.7-1.9c-0.2-0.4,0.3-1.3-0.3-1.4c0,0.5-0.5,0.9-0.5,0.1
			c0.4-0.5,1-2-0.1-1.3c-0.4,0.2,0,1.3-0.6,0.8c0.3-0.5,1.1-2.6-0.1-1.9c-0.1,1.3-0.5-0.3-0.8-0.6c-0.3,1.9,0.3,2.3-1.1,0
			c-0.8,0.6,0.9,1.6,0.8,2.4c-0.2,0.4-2.1-2.3-1.9-1.1c1.4,2.3-1.3-0.6-0.5,0.9c0.4,0.9,2.5,0.7,0.4,0.9c0.1,0.5-1-0.2-1.2,0.6
			c-0.3-0.4-1-0.5-1.1,0c-0.8,0.2,1.1,0.5,1.2,0.7c-0.1,0.6-0.8-0.1-1.3,0.5c0.4,0.6,0.9,0.6,1.5,0.3c-0.4,0.5-0.1,1.5-1,0.8
			c-1.5,0.3,0.5,1.5,1.3,0.8C95.8,41.5,93.3,41,93.9,42.7z"/>
		<path class="st0" d="M102,31.9c0,0.1-0.4,0.9,0.2,0.4C102.8,31.8,101.3,31.4,102,31.9z"/>
		<path class="st0" d="M104.6,26.6c0.2,0,0.1-0.3-0.1-0.3C104.4,26.4,104.4,26.6,104.6,26.6z"/>
		<path class="st0" d="M102.4,31.7c0-0.1-0.1-0.5-0.2-0.3C102.1,31.4,102.3,31.7,102.4,31.7z"/>
		<path class="st0" d="M66.1,93.7c0.1-0.1,0.5-0.4,0.2-0.4C66,93.3,65.9,94.1,66.1,93.7z"/>
		<path class="st0" d="M102.6,30.8c0.4,0.4,0.3-0.3,0.2-0.5C102.4,30.4,102.1,30.6,102.6,30.8z"/>
		<path class="st0" d="M104.3,29.1c0.5,0.2,1-0.5,0.4-0.6C104.4,28.2,103.6,29.2,104.3,29.1z"/>
		<path class="st0" d="M92,43C92.1,42.8,91.9,42.8,92,43C91.9,43,92,43,92,43z"/>
		<path class="st0" d="M92.2,42.8c0.1,0,0.2-0.1,0.1-0.2C92.2,42.5,92,42.8,92.2,42.8z"/>
		<path class="st0" d="M91.9,44c0.8-0.1,0.4-0.3,0.5-0.9C92.1,43.2,91.3,43.8,91.9,44z"/>
		<path class="st0" d="M98.2,43c1.1-1.6-1.2-0.8-0.9,0.4C97.2,44.6,97.9,43.2,98.2,43z"/>
		<path class="st0" d="M95.7,46.9c-0.5-2-1.2,0.5-1.7,1.4C94.6,48.4,97.2,47.8,95.7,46.9z"/>
		<path class="st0" d="M93,44.6c0,0.4,0.2,0.1,0.4,0C94.2,44.3,92.6,44,93,44.6z"/>
		<path class="st0" d="M96.2,46.9c4.3,0-1.5-4,0.7-0.9C95.2,44.7,95.8,44.8,96.2,46.9z"/>
		<path class="st0" d="M101.9,33.8c0.4,1.4,4.3,0,4.2-0.6c-0.5-2.3,0.5-0.8,1.6-3.1c-0.5-1.1-2.3-2.8-2.4-1.3c1,1-0.1,1.5,0.4,2.6
			c-1,1,0-2.8-1.1-1.7c-0.1,0.2-0.3,1.3-0.4,0.8c0-1-1.5-0.8-0.9,0.5c0.4,0.2,2.8,0.5,1.1,0.5c-0.7,0.1-1.3,0.1-1.9-0.1
			c0.2,0.7,0.3,1.5,1.2,1.2c-0.6,1.2-0.9,0-2,0.2C101.3,33,101.1,34.3,101.9,33.8z"/>
		<path class="st0" d="M70.8,82c0-0.2,0.2-0.2,0.1-0.4C70.8,81.3,70.2,82.2,70.8,82z"/>
		<path class="st0" d="M71.1,83.1c0-0.1,0-0.5-0.2-0.4C70.9,82.8,70.9,83.4,71.1,83.1z"/>
		<path class="st0" d="M69.8,85.7c-0.2,0.7,0.2,0.6,0.3,0C70.3,85.1,69.9,85.3,69.8,85.7z"/>
		<path class="st0" d="M69.6,85.9C70,85,69,85.4,69.4,86c0.1,0.4-0.3-0.1-0.3,0.2C69.5,87.1,69.5,86.7,69.6,85.9z"/>
		<path class="st0" d="M81.2,47.3c0.1-0.1,0.3-0.3,0.1-0.4C81.2,47.1,80.7,47.4,81.2,47.3z"/>
		<path class="st0" d="M70.3,83.7c0.6,0.2,0.3-1,0-0.1C70.3,83.6,70.3,83.7,70.3,83.7z"/>
		<path class="st0" d="M70.7,82.4c-0.3-0.2-0.5,0.5-0.3,0.7C70.5,83.1,70.8,82.6,70.7,82.4z"/>
		<path class="st0" d="M66.3,97.5c0.3-0.2,0.4-0.6,0.5-0.9C66.7,96.5,65.5,97.9,66.3,97.5z"/>
		<path class="st0" d="M68.6,88.9c0.9,0.7,1.5-1.5,0.3-0.9C68.8,88.2,68.2,88.5,68.6,88.9z"/>
		<path class="st0" d="M73.2,78.1c0.1,0,0.1-0.1,0-0.2C73,77.9,73,78.2,73.2,78.1z"/>
		<path class="st0" d="M69.8,83.1c-0.1,0.1-0.1,0.3,0.1,0.3C70,83.3,69.9,83.1,69.8,83.1z"/>
		<path class="st0" d="M68.8,64.9C68.9,64.9,68.9,64.8,68.8,64.9C68.9,64.4,68.4,64.8,68.8,64.9z"/>
		<path class="st0" d="M69.4,89.9c0.4,0,0.9-0.3,0.6-0.7C69.8,89,69.5,89.7,69.4,89.9z"/>
		<path class="st0" d="M69.2,84.2c0.4,0.3,0.5-0.7,0.1-0.5C69.1,83.8,68.9,84.1,69.2,84.2z"/>
		<path class="st0" d="M70.3,88.8c0.3-0.2,0.5-0.5,0.8-0.7C71.6,87.4,69.1,88.5,70.3,88.8z"/>
		<path class="st0" d="M69.4,63.5c1.1-1.5,1.6-0.9,1-2.6c0.6,1,0.9,0.2,1.1-0.4c0.5-1,0.5,0.9,1.2-0.8c0.9-1.7-0.8-2.7-0.5-0.5
			c-0.1,0.1,0-0.6-0.6-0.2c0,1.1-0.7-0.9-0.9,0.1C70.3,60.2,68.9,62.5,69.4,63.5z"/>
		<path class="st0" d="M75.5,75.4c-0.3,0.1-0.7,0.2-0.3,0.5C75.4,75.9,75.9,75.7,75.5,75.4z"/>
		<path class="st0" d="M80.7,57.8c-0.1,0.1-0.2,0.3,0,0.3C80.8,58,80.9,57.8,80.7,57.8z"/>
		<path class="st0" d="M75.9,75.2c0.6-0.1-0.4-0.7-0.4-0.2C75.5,75.2,75.8,75.2,75.9,75.2z"/>
		<path class="st0" d="M78.3,73.8c-0.1-0.3-0.4-0.1-0.4,0.1c-0.2,1.7-1.2-0.6-1.1,0.9c-0.2,0.4,0.7,1.3,0.9,1.7
			C78,75.6,78,74.8,78.3,73.8z"/>
		<path class="st0" d="M79,49.2c-0.2,0.2,0.1,0.4,0.2,0.1c-0.1,2.3,1.4,0.8,1.7-0.4c0.1,0.4,0.3,0.9,0.5,0.2
			c0.1-0.1,0.3,0.5,0.9-0.1c0-0.8,0.1-0.1,0.5-0.2c0.3-0.4,0.4-0.6,0.2-1c2.6,1.1-2.5,1.7-1,2.7c0.1,1.7,5.3-1.9,2.6-2.6
			c0.2-0.6,1.2-2.6-0.2-1.2c0.7-1.3-0.1-1.5-0.4-2.2c-0.2,0.1,0.3-2.5-1-0.5c0,1,0.3,1.4,0.7,2.1c0.5,1.5-0.8-1.1-0.5,1
			c-0.4-1.2-0.8-1.4-0.7,0c0.2,0.2-0.1,0.6-0.2,0.9c-0.1-1-0.6-0.8-1.1-0.2c-0.2-1.9-0.5-1.5-0.6,0c0,0.1,0.4,0.5-0.1,0.4
			c-0.5-0.1,0.2-1.7-0.4-1.3c-0.7,0.7-0.5,0.7,0.1,1.3C79.6,48.4,78.7,48.8,79,49.2z"/>
		<path class="st0" d="M82.2,51.2c-0.5-0.1-1.1-0.4-1.6-0.4C79.4,52.5,83.9,52.5,82.2,51.2z"/>
		<path class="st0" d="M78.1,56.6c-0.8,1.7,0.6,0.7,1.2,0.6c1.4-0.4,1.5-1.3,1.9-2.6c-0.6,3.5,2.2-0.6,2.8-1.9c-0.6,0-1,0.4-1.3,0.5
			c-0.9-0.5-0.3,0.7-0.7,0.8c-0.5,0.3,0.2-0.8-0.5-0.7c-0.7-0.5-0.1,1.3-0.6,0.6c0.3-1.1-1.3-0.4-0.6,0.1c-0.2,0.7-0.5-0.5-0.8-0.1
			c-0.8-0.1,0.6,1.9-0.7,0.9C78.2,55.5,78.8,56,78.1,56.6z"/>
		<path class="st0" d="M72.6,80.2c-0.2-0.1-0.3,0.2-0.5,0.3C71.4,81.3,74.8,80.1,72.6,80.2z"/>
		<path class="st0" d="M76.1,76.5c0.1-0.1,0.3-0.5,0.1-0.6C76.1,76,75.8,76.6,76.1,76.5z"/>
		<path class="st0" d="M73.5,79.5c0.8-0.5-1.2-0.4-1.1,0.2C73,79.7,72.9,80.2,73.5,79.5z"/>
		<path class="st0" d="M78.6,70.9c0.2-0.2,0.3-0.6,0.5-0.8C79,68.9,77,71.2,78.6,70.9z"/>
		<path class="st0" d="M73.4,58.4c-0.4,0.7-0.2,1.4,0.5,0.7c-0.2-0.3-0.1-1.2,0.3-0.8c0,0.6,0,0.9,0.6,1c0.2-0.4,0.1-1.7,0.4-0.6
			c0.4,0.1,0.7-0.8,0.1-0.6c0.1-0.2,0.4-0.3,0.5-0.6c0.8,0.7,3.8-2.2,1.4-2.5c-0.6,0.6-1.4-0.6-1.7,0.5c0,0.4-0.2,0.4-0.5,0.3
			c-0.2,0.1,0.5,0.6,0.1,0.5c-0.7-1.6-2.1,0.2-0.8,0.5C72.7,56.6,73.7,57.9,73.4,58.4z"/>
		<path class="st0" d="M77.8,58.1c0.1,0.1,0.2-0.2,0-0.2C77.7,57.9,77.6,58.1,77.8,58.1z"/>
		<path class="st0" d="M76.5,74.4c0.4-0.6-0.4,0-0.3,0.4C76.4,75,76.3,74.4,76.5,74.4z"/>
		<path class="st0" d="M76.7,72.3c-0.4-0.3-0.4,0.2-0.7,0.3C76,72.9,76.5,72.3,76.7,72.3z"/>
		<path class="st0" d="M90.9,44.6c0.4,1.4,2.4,1.5,1.8-0.3c-0.2-0.3-0.3,0.3-0.7,0C91.4,43.9,89.7,43.7,90.9,44.6z"/>
		<path class="st0" d="M58.4,185.8c-0.6-0.6-0.6,0.9-0.2,0.7C58.1,186.2,58.7,186,58.4,185.8z"/>
		<path class="st0" d="M182.6,19.3c0.1,0,0.2,0,0.2-0.1C182.7,18.9,182.3,19.1,182.6,19.3z"/>
		<path class="st0" d="M57.6,185.9c-0.2,0.2-0.2,0.3,0.1,0.4C57.7,186.2,57.7,186,57.6,185.9z"/>
		<path class="st0" d="M155.7,16.9c0.1,0,0.1-0.2,0-0.3C155.4,16.6,155.6,16.9,155.7,16.9z"/>
		<path class="st0" d="M57.5,185.7c0-0.2-0.4-0.3-0.5-0.3C56.7,185.8,57.4,186.3,57.5,185.7z"/>
		<path class="st0" d="M23.9,184.1c-0.2-0.5-1.2,0.1-0.7,0.7C23.7,184.7,23.7,184.2,23.9,184.1z"/>
		<path class="st0" d="M54.4,185.3c0-0.9-0.5-0.1-0.2,0.3C54.3,186.1,54.5,185.6,54.4,185.3z"/>
		<path class="st0" d="M139.7,10.2c0.2-0.1,0.4-0.3,0.5-0.5C140.1,9.8,139.5,9.9,139.7,10.2z"/>
		<path class="st0" d="M137.8,7.6c1.5,0.2,0-0.1,0.1,0.7c0.6,0.7,0.8,1.1,1.5,0.2c1.6-0.7-1-0.3-0.5-0.9c0.9-0.4,0.2-0.1-0.1-0.5
			c0.4-0.6-0.3-0.2-0.6-0.4c-0.5,0.1-0.2,0.5-0.1,0.7C138,7.5,137.3,7.3,137.8,7.6z"/>
		<path class="st0" d="M146.3,6.9c0.7,0.3,2.9-0.8,0.9,0.6c0.4,1,2.6,1.5,1.8,0.6c4.8-0.6,3.3-3,2.3-1c-1.3,0.5-0.4-0.3-1.3-0.9
			c0.3-0.4,1.5-0.7,0.8-1.4c-0.2,0.2-1.4,1-0.8,0.3c-1.1,0.5-0.1-0.3-0.5-0.9c-2,0-1.6,0.2-0.5,1.5c0.5,1.1-1.8-1.5-1.6,0.1
			c-0.4,0.1-1.7-0.5-0.8,0.3C146.4,6.3,146.3,6.5,146.3,6.9z"/>
		<path class="st0" d="M136.2,14.9c1.7,4.9,5-2.9,1-1.9c1-1.1-1.4-1.1-1.1,0.2C136.7,13.8,136.1,14.6,136.2,14.9z"/>
		<path class="st0" d="M21.9,179.8c0.4-0.8,0.2-3.2,0.9-1.2c0.6-0.6-0.6-1.3-0.5-1.9c0.1-0.2-1-0.7-0.4,0c-0.2,0.3-0.4-0.7-0.7-0.3
			c0.5,0.7,0,1.2,0.9,1.3C21.8,178.2,21.5,179.1,21.9,179.8z"/>
		<path class="st0" d="M144.5,7.5c0.4,0,0.3-0.5,0.5-0.8C144.3,6.6,144.2,6.6,144.5,7.5z"/>
		<path class="st0" d="M142.5,6.5c1.1,1.1,0.7-0.4,1.1-0.7c0.4-0.2-1.6-0.9-0.4,0C143.2,6.1,141.8,5.6,142.5,6.5z"/>
		<path class="st0" d="M138.4,6.5c0.6,0.2,1.4-0.8,0.5-0.6c-0.3-0.3-0.3,0.1-0.1,0.3C138.5,6.3,137.8,5.7,138.4,6.5z"/>
		<path class="st0" d="M21.4,172.5c0.9-0.7-0.1-1.5,0.3-2.5c-0.3-1.1-0.3,0.5-0.5-0.1c-0.3-0.2-0.4-1.2-0.7-0.9
			c0.3,1.2-0.4,1.1,0.3,1.8C19.9,170.9,21,172.9,21.4,172.5z"/>
		<path class="st0" d="M20,183c-0.1,0-0.1,0.1-0.1,0.2C20.1,183.7,20.4,182.8,20,183z"/>
		<path class="st0" d="M21,168c-1.6-1.6,1.4,2.9,1.1,1c0-0.8-1-0.7,0.1-1C21.1,166.7,20.3,166.5,21,168z"/>
		<path class="st0" d="M135.3,14.4c-1.6,0,0.3,0.7,0.2,1.7c-0.8-1.1-0.6,0.4-1.5-0.3c0,0.2,0.1,2.1-0.2,1.3c0-1.8-0.8-1.8-0.5-0.2
			c-0.1,0.2-0.8-1.4-1.1,0.3c-1.1,0.4-0.3,0.8-0.4,1.3c-1.1-0.6,0.8,2.6,1.3-0.1c-1.3,5,1.8,1.1,3.2-0.7c0.2-0.9-0.6-1.1-0.6-1.8
			C136.1,15.1,135.7,14.9,135.3,14.4z"/>
		<path class="st0" d="M21.5,176c-0.1-0.2-0.3-0.3-0.5-0.1C21,176.2,21.5,176.2,21.5,176z"/>
		<path class="st0" d="M104.8,25.5c0-0.3,0.2-0.5-0.2-0.5C104.5,25.2,104.4,25.6,104.8,25.5z"/>
		<path class="st0" d="M19.8,164.6c0.1,0.3,0.5,1,0.8,0.6C20.3,164.6,20.3,164.5,19.8,164.6z"/>
		<path class="st0" d="M19.8,163c-0.9-0.5,0.1,0.8,0.4,0.8C20.3,163.5,20.1,163.1,19.8,163z"/>
		<path class="st0" d="M20,167.7c-0.7-0.7-0.3,0.3,0,0.7C20.5,168.6,20.1,167.8,20,167.7z"/>
		<path class="st0" d="M22.2,176.2c0.3,0.5,0.1-0.4,0-0.5C22,176,21.8,175.9,22.2,176.2z"/>
		<path class="st0" d="M21.4,174.7c-0.1,0.4,0.6,0.4,0.6,0C21.9,174.5,21.5,174.4,21.4,174.7z"/>
		<path class="st0" d="M21.1,174.6c0,0.1,0,0.2,0.1,0.2C21.5,174.9,21.1,174.2,21.1,174.6z"/>
		<path class="st0" d="M22,173.8c-0.3,1.9,1.5,0.1,0.1-0.6C22,173.4,22.4,174.4,22,173.8z"/>
		<path class="st0" d="M22.8,174.2c0,0.2,0.1,0.5,0.3,0.2C23.9,174.6,23,172.7,22.8,174.2z"/>
		<path class="st0" d="M21.7,172.7c-0.3,0.1-0.1,0.5-0.1,0.7C22,173.6,21.6,172.9,21.7,172.7z"/>
		<path class="st0" d="M22.5,174.9c0.5,0.8-0.2,2.3,1,2.8C24.7,177.3,23.7,175,22.5,174.9z"/>
		<path class="st0" d="M19.8,166.9c-0.1-1-0.4-0.6-0.4,0.2C19.5,167.5,19.9,167.2,19.8,166.9z"/>
		<path class="st0" d="M113.4,26c-0.2-0.1-0.3-0.3-0.4-0.4C112.5,25.7,113.2,26.3,113.4,26z"/>
		<path class="st0" d="M112.5,25.9c-0.5,0.5-3.4,2.8-2,3C111.8,28.9,113.4,26.9,112.5,25.9z"/>
		<path class="st0" d="M109.7,24.5c0,0.1,0,0.6,0.2,0.4C109.9,24.8,109.9,24.4,109.7,24.5z"/>
		<path class="st0" d="M109.8,23.9c0.3,0.3,1.5,0.7,1.2-0.1C110.5,23.1,109.2,22.7,109.8,23.9z"/>
		<path class="st0" d="M111.1,22.1c1.1,0.7,0.2,2.5,1.4,2.8c0.7,0.4,2.5-0.9,1.5-1.1c-0.5,0,0-0.6-0.5-0.6c0,0.4-0.3,0.1-0.3-0.1
			c0-1.3-0.4-0.8-0.8-0.1c-0.3-0.4-0.6-3.1-1.3-1.9C111,21.5,110.2,21.8,111.1,22.1z"/>
		<path class="st0" d="M113.9,23.3c0.4-0.3-0.4-0.9-0.6-0.4C113.5,23,113.8,23.1,113.9,23.3z"/>
		<path class="st0" d="M112.1,21.8c0.2,0.2,0.2-0.4,0.1-0.6C112,21.2,111.8,21.7,112.1,21.8z"/>
		<path class="st0" d="M107.4,22.9c0.1-0.1,0.1-0.5-0.1-0.4C107.1,22.5,107.2,22.9,107.4,22.9z"/>
		<path class="st0" d="M105.6,25.5c-0.8,1.5,2.9-1.4,1.1-1.3c-0.9,1.5,0,0.1-1-0.3C105.9,24.4,104.9,25.3,105.6,25.5z"/>
		<path class="st0" d="M104.8,28.1c0.2,0.1,0.1-0.2,0-0.2C104.5,27.9,104.7,28,104.8,28.1z"/>
		<path class="st0" d="M108.9,24.7c-1.6-1.4-0.4,2.2-1.3,0.6c-0.9,0.3-1.7,0.4-0.9,1.5c-0.4,0.2-1.2-0.4-1,0.7
			c4.4,4.2,2.9,1.6,5.9-1.4c-0.5-1.4-0.8,0.8-0.8-0.2c-0.4-2.5-1,1.3-1.4-0.1C109.2,25.4,109.5,24.1,108.9,24.7z"/>
		<path class="st0" d="M106.4,24.4c0.2-0.3,0.3-0.9-0.2-0.8C106.4,23.9,106.2,24.1,106.4,24.4z"/>
		<path class="st0" d="M107.7,23.3c1.4,2.4,1.8-2.5,0.8-1.8c-1.2-0.1,0.3,0.9-0.3,0.9c-0.4,0.1,0.1,0.6-0.2,0.7
			C108,22.6,107.1,23.2,107.7,23.3z"/>
		<path class="st0" d="M106.5,23.3c0.5,0.1,0.3-0.5,0.3-0.7C106.4,22.2,105.7,23.5,106.5,23.3z"/>
		<path class="st0" d="M114.9,21.2c-0.2,1.2,0.6,0.4,0.6-0.2C114.9,20.4,114.7,19.9,114.9,21.2z"/>
		<path class="st0" d="M116.7,25c0.6-1.1,0.5-0.9,0.3,0.3c1.8,0.1,1.2-1.5,1.7-3.1C117.4,20,114.6,25,116.7,25z"/>
		<path class="st0" d="M124.2,21.1c0.7-0.2,0.9-1.7,0.1-2.2C124.2,19.5,123.9,20.5,124.2,21.1z"/>
		<path class="st0" d="M132.4,10.5c0.2,0.1,0.5,0.1,0.4-0.2C132.6,10.1,131.9,10.3,132.4,10.5z"/>
		<path class="st0" d="M133.6,23.6c0.1,0,0.1-0.2,0.3-0.2C134.1,23,132.8,23.3,133.6,23.6z"/>
		<path class="st0" d="M132.1,12c0-0.3-0.3-0.1-0.2,0.1C131.9,12.3,132.1,12.1,132.1,12z"/>
		<path class="st0" d="M135.1,14c0.2,0,0.1-0.3-0.1-0.2C134.8,13.8,134.9,14,135.1,14z"/>
		<path class="st0" d="M128.5,19.5c-1,1.4,3.4,2.7,3.9,1.7c-0.5-0.7-0.6-1.7-1.3-1.2c-0.2-2.4-0.7,0.4-0.6-0.9
			c0-0.7-0.3,0.1-0.4,0.2c0-0.6-0.3-0.4-0.4,0.1C129.6,18.3,129,20.1,128.5,19.5z"/>
		<path class="st0" d="M134.6,15.5c0.1,0,0.2-0.3,0-0.3C134.5,15.3,134.3,15.6,134.6,15.5z"/>
		<path class="st0" d="M126,14.2c0.8,0.8-0.9,0.7,0.7,1.1c0.1-0.6,0.6-0.6,1.2-0.5c-0.3,0.5-0.5,0.9-0.8,1.4
			c-0.9,1.3,0.5,1.2,0.7-0.2c0,1.1,0.1,0.9,0.8,0.4c-0.1,1.1,0.3,0.2,0.4-0.3c0.4,2.2,1.2-1.7,1.2,0.3c0,0.7,0.5-1.3,0.4-0.2
			c0.2,0.3,1.7,0,0.8-0.8c0.9,0,0.9,0,1.4-0.9c-0.9-0.3,0.5-0.2,0.4-0.8c-0.4-0.7,0-0.4,0.5-0.4c-0.2-0.6,0.6-0.3,0.4-1
			c-0.2-0.7,0.2,0.1,0.4-0.2c0.3-0.5-0.2-1.1,0.5-0.8c0.5-0.1-0.7-1-0.9-1.3c-0.5-0.8,0.1,1.6-0.2,1.2c-0.1,0.8-0.5-0.6-0.7-0.7
			c0.2,1.4-0.6-0.3-0.8,0.6c0.7,2.2,0,0.3-0.3,2.7c-1-0.4,0.1-1.6-1-1.3c0.1-0.5-0.1-0.4-0.3-0.2c0.1-0.6-0.1-0.8-0.6-0.2
			c0.1,1,1,1.5,0.1,2.3c-0.4-0.1,0-0.8-0.9-0.2c-0.3-0.7,0.4-0.5,0.4-1c-0.3-0.3-0.7-0.8-0.9-0.2c0.2,0.9-0.6,0.4-0.6-0.3
			c-0.9,0.1,0.5,1.8-0.4,1.5c-0.6-0.6-0.8-1.2-0.8-0.1C127.2,14.3,125.1,13.4,126,14.2z"/>
		<path class="st0" d="M119.9,25.4c0.1-1-0.4-0.1-0.5,0.4C119.6,26,119.9,25.5,119.9,25.4z"/>
		<path class="st0" d="M118.6,24.1c0,0.7,0.6,0.9,0.8,0.1C119.2,23.4,118.7,22.9,118.6,24.1z"/>
		<path class="st0" d="M117.9,26.5c-0.4-0.8-0.6,0.2-0.2,0.6C117.9,27.1,118,26.7,117.9,26.5z"/>
		<path class="st0" d="M119.6,26.3c-1-2.1-2-0.3-0.8,1C119.5,27.3,120.8,25,119.6,26.3z"/>
		<path class="st0" d="M118.2,27.6c-1.1-0.2-1.8,1.3-1,2.2C118.6,29.4,117.8,28.5,118.2,27.6z"/>
		<path class="st0" d="M122.6,20c0.3-0.3,0-0.8,0-1.2C122.5,19.2,122.1,20,122.6,20z"/>
		<path class="st0" d="M107.5,24.2c0.3,0.1,0.1-0.4,0-0.5C107,23.4,107.3,24.6,107.5,24.2z"/>
		<path class="st0" d="M123.9,25.3c-1.3-0.4,0.4,1.4,0.5,0.5C124.4,25.6,124.1,25.4,123.9,25.3z"/>
		<path class="st0" d="M123.9,27.2c-0.4,0.2,0.6,0.4,0.5,0.1C124.3,27,124.2,26.9,123.9,27.2z"/>
		<path class="st0" d="M122.1,24.2c0.2-0.2-0.1-0.5-0.3-0.5C121.7,24.1,121.8,24.3,122.1,24.2z"/>
		<path class="st0" d="M115.8,31.8c-0.1,0.1,0,0.2,0,0.3C116.1,32.1,116.1,31.8,115.8,31.8z"/>
		<path class="st0" d="M90.9,59.3c-0.2-0.5-0.8-0.1-0.9,0.3C90.5,59.8,90.9,60.1,90.9,59.3z"/>
		<path class="st0" d="M121.6,25.1c-0.2-0.3-0.6,0.3-0.2,0.4C121.6,25.5,121.6,25.2,121.6,25.1z"/>
		<path class="st0" d="M125.1,27.7c-0.1-0.2-0.2-0.7-0.4-0.3C124.9,27.7,125.3,28.5,125.1,27.7z"/>
		<path class="st0" d="M154.6,17.8c-0.3,0.1-0.3,0.3-0.3,0.6C154.5,18.3,154.9,17.7,154.6,17.8z"/>
		<path class="st0" d="M149.9,12.9c-0.2,0.2-0.7,0.5-0.3,0.8C150,13.7,150.4,12.9,149.9,12.9z"/>
		<path class="st0" d="M158.3,11.5c0.1,0,0.2-0.4,0-0.4C158.1,11.1,158,11.6,158.3,11.5z"/>
		<path class="st0" d="M174,29.8c-0.8,1.9,3.8-1.3,1.7-0.5c-1-0.2-0.2,0,0.1-0.5c-0.6-0.2,0.2-0.5-0.4-1C173.8,27.1,175,29,174,29.8
			z"/>
		<path class="st0" d="M85.6,61c0.2,0.1,0.2-0.1,0.1-0.2C85.4,60.7,85.4,60.9,85.6,61z"/>
		<path class="st0" d="M146.4,20.7c-0.1,0.2-0.2,0.4-0.2,0.6C146.1,22.1,147.5,20.4,146.4,20.7z"/>
		<path class="st0" d="M145.5,21.5C145.4,21.6,145.5,21.7,145.5,21.5C145.6,21.5,145.5,21.3,145.5,21.5z"/>
		<path class="st0" d="M145.8,21.8c-0.1,0.1-0.2,0.1-0.1,0.2C145.9,22.1,146.1,21.6,145.8,21.8z"/>
		<path class="st0" d="M144.6,22.1c-0.1,0.2,0.1,0,0.2-0.1C144.8,22,144.6,22.1,144.6,22.1z"/>
		<path class="st0" d="M23.2,146.4c0.2,0,0-0.5-0.3-0.3C22.9,146.2,23.1,146.5,23.2,146.4z"/>
		<path class="st0" d="M21.1,149.2c-1.6,1.7,8.6,0.3,4.3,1.2c0.4,0.7,1.7-0.2,2.4,0.5c1.3-0.6,1.9,0.7,2.9-0.5
			c1.6-0.1,1.7,0.6-0.1,0.3c0.7,1.9-4.2-0.7-2.6,1c0.5,1.1-1-0.7-1.1-0.5c0.1,0.6-0.8,1.9-0.4,0.7c0.7-1.7-1.1-0.7-1.9-0.4
			c0.7-0.9,0.6-0.9-0.6-1.2c-1.1-0.3-1.1,0.4-1.5,1c-2.1,0.8-0.7,0.3-0.1,0.7c-1.2-0.1,0.1,0.7-0.8,0.5c-0.7-0.4-1.7,0.1-0.5,1.2
			c4-0.3,0.5-0.2-0.4,0.6c1-0.7,4.4,0.1,1.8-0.1c-1.5,0.1,1.4,0.4,0.1,0.6c-0.3,0.2-1.1-0.2-0.7,0.4c1.3,0.4,2.2,1.1,3.2,0.1
			c-0.1,1.9-3.6-0.5-4.5,1.3c0.3,0,1.2-0.7,0.9-0.1c-1.8,2.1,1.7,0,2.9,0.6c-1.7-0.1-2.2,1-3.6,1.1c-1.1,0.9,1.5,0.3,1.8,1.5
			c-3.2-0.8,0,0.7,0.7,1.2c1.2-1.1,2.3-1,3.6-1.4c0.9-0.9-0.1,0.3,0.5,0.4c1-0.7,1.9,1.3,2.9,0c-0.4-1.5,0.8-1.6,1.1-3.2
			c0.7-1.6,0.1,1.1-0.5,1.7c-1,1.1,0.9,0.7,1.4,1.1c0.6,1,2.2-2.4,1.6-0.7c1,0.3-2.2,1.4-0.8,1.3c1.4-0.5,3.1-0.7,1.3-2.1
			c0.6-0.5,0.8-0.8,0.3-1.3c0.7,0.6,2.1-2,1.9-0.9c-1.6,1-2,4.4,0.4,3c1.5,0.2-2.7,0.8-1,1.7c-2.2-0.7-4,0.4-1.7,2.1
			c0.1,1.3-0.8-0.3-1.3-0.1c-0.4,0.5-1.1,0.4-0.4-0.1c1.5-0.5-1-3.8-3-1.4c-0.1,0.9-0.8,1.2-0.3,0.1c-0.3-0.4-1.1,1.1-0.7-0.1
			c-0.7-1.2-2.9,0-3.1-0.7c-0.2,0.5-1.4,0.2-0.8,0.6c0.2,0.4-0.3-0.1-0.5,0c-0.7,0.1-0.5,0.8-0.8,1c-0.4-0.5-1.3-0.9-2-1
			c-1.4,0.8-0.2,1.2,0.4,1.4c-0.5,0.2-2.2,0.3-1.6,0.8c0.3-0.3,0.3,1.5,0.6,0.1c0.9,2.2,2.5-0.9,3.5,0.2c-0.8,0.2-1.9,0.5-1.9,1.4
			c1.3,0.2,0.8,1.3,0.9,1.5c-2.1-1.8-4.1-3.5-1.2,0.1c0.2,0.8-2.5-2.3-2.2-0.8c1.6,1.3,2.1,2.4,3.8,0.8c0.6,0,0.4-0.5,0.1-0.8
			c0.8-0.2,1.3-1.7,0.9-0.2c1.5-0.5,0,0.3,0.3,1.4c0.4,1.6-1.4,3.3-2.2,1.2c-0.9-0.9-0.8,0.7-0.3,1.1c-0.8,0.4-1.2,0.5-0.4,0.9
			c1.3,0.2-0.8,0.1-0.2,0.9c0.1,0.2,0.9-0.2,0.5,0.2c-0.9,0.8,0.1-0.1,0.4,0.3c-0.5,0.7,0,0.3,0.2,1c1.1-0.9,1.1-2.6,2-3.2
			c0.6,0.3-1.7,2.3-0.2,2c0.8,0.1-0.6,0.3-0.6,0.7c-0.1,1,0.6-0.1,0.9,0c0,0.4,0,0.9,0,1.3c1.5,0.4-2.6-0.2-1.6,1
			c-1,0.1-0.4,0.4,0,0.5c0.4,1.3,0.9,0.9,0.8-0.2c0.4-0.1,0.2-0.9,0.6-0.7c1.4,1.4,0.9-2.1,1.8-3.1c1.5,1.1,0.4-1.9,2.8-2.1
			c0.5,0.1,1.8-1.6,1.6-0.8c-1.4,2.2,1.7-1.1,1.9-1c-1.1,1.6,0.5,0.8,0.5,1.3c-2.5-0.1-2.9,2.3-3.4,4.4c-1.2,0.1,1.4-3.8-0.1-3.6
			c-0.7,0.9-1.6,1-1.9,2c-0.7,0.6-1.1,1.1-0.5,1.8c0.3,0,0.8-1.3,0.8-0.4c0.1,0.8-2.4,0.7-1.8,2.2c-0.7,0.5-1.5,0.5-1.9,1.4
			c1.2,2.5,1.8-1.3,1.6,1c0.4,0.7,4-2.5,1.6-0.4c-0.2,0.8-4.3,2-1.8,1.7c-0.1,0.7-0.8,0.2-0.8,0.9c-1.9-2.7-0.8,1.4-2.6,1.2
			c1.5-0.3,0.7-4.2,0.4-1.8c0.4,1.1-0.8-0.5-0.9,0.6c-0.5,0.8-1.5,6.1-0.1,5.4c0.3-1.2,0.2-2.3,1.2-1.4c1.1-0.6,0.9-2.9,1,0.1
			c0.2-0.5,0.5-0.9,1-0.9c1.1-0.5-0.1-1.4-0.9-0.8c2.5-3.3-0.1-0.2,2.9-1.1c0.7,0.5-2.3,0.3-1.2,1.4c0.9-0.2,1.6-1.4,2.1-2.6
			c0.1-1.7,0.7-0.1-0.1,0.7c0.8-0.6,3-0.6,0.9-0.1c-1.4,0.4-0.9,1.6-2.2,1.9c-0.8,0.5,0.9,1,0.9,0c0.5,0.9,0.2,0.7-0.5,1
			c0.2,1,1.9-1.2,2.3-0.2c-1.1,0.4-4,1.7-2,2.1c-1.2,0.1-2.7,1.4-0.7,1.4c-0.8,2.4,0.6-0.1,1.8-0.1c5.4-0.9-4.7,0.9-0.4,2.2
			c-1.8,0.4-2.5-2.9-3.3-0.2c0.4-1.2-1.5-2.9-0.6-1c0.5,0.7-0.3,0.5-0.4-0.1c0,0.5,0,1-0.3,1.4c-0.4,3.2,2.5,4.8,4.9,6.3
			c1.3,0.6,1.9,1.9,2,0.1c0.5,1.2,0.6,0.3,1.5,0.2c-2.7,1.8-2.3,2.4,0.4,2.5c0.6-0.6,0.1-0.1,0.3,0.2c1.1-0.9,0.4-0.1,0,0.5
			c0.3,1,0.7-1.1,1.3-0.5c0.5-0.1,1.2,0,1.9,0.4c1-0.3,1.5-0.9,2.6-1c0.6-0.4,0.7-2.8,1.1-0.3c1.2-1,2.8-2,4-3.9
			c0.8-0.1,1-0.8,1.6-1.9c0.5-0.4,1.7-1,0.5-1c1.2-0.5,0-0.1-0.1-0.5c0.6-0.4,1.7,0.2,2.1-0.8c0.7-1.1-0.5-0.2-0.8-0.5
			c0-1,0.9,0.2,0.9-0.7c1,0.1,0.9,0.3,0.3-0.4c3.1,0.4-0.6-3.6,1.1-1.9c0,0.6,0.3,0.1,0.4-0.2c0.2,0.5,0.6,0.4,0.9,0.8
			c-0.5,1.4,1.1,1,0.9,0c0.9,0.5,1.2,0.2,1.4-1c0.6,1.1,0.5-2.1,1-1.6c-0.5,1.4,0.5,1.5,0.2,0c1,0.2-0.1-1.4,0.3-1.9
			c-0.7-0.2-1-0.6-1.4-1.4c-0.7-1.3,1,0.7,0.8-0.4c0.5-1.2-1-1.4-0.8-2.3c1.7,0.1,0.8,2.3,1.5,2.9c2.1-1-1.3-3.5,0.6-4.6
			c1.8-0.7,1,1.1,0.9,2.1c-0.2-1.9-0.8-1.9-0.8,0c0.8,1.7-0.1,3.2,0.4,4.3c-0.2,0.6,0.4,0.5,0.7,0.6c-0.5,0.6-0.2,0.9-0.1,1.4
			c0.1-0.6,0.3,0.1,0.4,0.3c0.5-0.4,0.4,0.3,0.7,0.5c-0.1-1.5,0.5,0,1,0.1c0.9-1.3,0.3,1.1,1.2,0.4c1.3-0.3,0.6,2.5,1.5,2.7
			c2.7-2.4,1.1-8.3,2.5-11.2c-1.5-1.6,1.6-0.8,2.2-1.9c3.4-3.9,1.1-9-0.5-13.4c5.2-0.2,4.6-6.7,0.3-8.1c-1.4-0.5,0.2-7.2,0.2-8.2
			c-1.1-2.8-2.1-7.5-0.5-9.9c-1.3-1.9-1.6-4.8,0-6.6c-1-2.2,1.9-5,2.8-7c2-2.5,5.5-1.3,8-0.5c1-1.6,2.1-6.7-0.5-7.1
			c-4.7-1.3,6.7-7.8,3.8-24.1c3.2,0.1,7.4-1.7,5.3-5.4c1.4-1.2,3.2-5,4-6.6c5.6-4.3-0.3-5.8,0.9-9.9c2.8,0.5,2.8-4.7,3.5-6.4
			c2-1.1,3.4-4.7,5.7-2.1c3.6,3.3,2.7-6.1,2.9-8.3c1.9-1.5,3.2,1.2,5.4,0.4l5.7,2.7c0.7-1.3,3.1-2.4,0.5-3.1c1-2,3.8-6.1,0.5-8.7
			c2.4,0.2,4.3-2.1,6.2,0.1c0.5-2.2-1.8-3,1.3-4.7c3.7,0.4,6.3,7.1,6.8,10.3c1.3-1,2.6,1,4.2,0.5c0.5,1.5,1.5,0.5,2.4,0
			c3.5,0,0.9-5,4.9-1c1.6,1,3.6,1.4,4.3,3.3c-0.2-0.8,0.4-1.4,1.1-1.1c0.4-1.6,0-3.5,1.8-4.5c3.3-0.1,2-4,2-6.5
			c0.8-1.8,0.7-3.8,1.1-5.4c0.6-0.3,0.8-1.4,0.2-1.7c-0.1-1.3,2.1-1.4,2.1-2.8c1.3-1.3,1.4-3.1,3.5-2.6c0.6,0.1,1.4,1.3,2,0.6
			c7.7-6.2,2-0.6,12.5,4.6c3.8,5-5.4,7.8-0.7,11.6c1.2-1.3,1.9-3.2,1.5-4.9c1.1-0.8,2.3-0.3,3-1.8c1-0.6,2.1-0.5,2.2-2
			c-0.2-0.8,0.8-1.8-0.3-2.5c1.4-1.1,2.2,2.6,3.9,2c2.5,1,1.5-5.5,0.1-4.1c-0.5-0.2,0.5-0.6-0.6-0.8c-1.9-0.5-0.7,0.9-1.1,2.1
			c-1.3,1.5,0.1-0.4-0.2-1.3c-0.4-0.9,0.1-1.3-1-1.3c1.6-1.1-1.9-1-0.4,1.2c-0.9,0-0.1,2.4-0.8,0.9c-0.9,0.2,0.8-1.7-1-0.5
			c-0.1,0.7-0.9-0.1-1.4,0.4c-0.5,0.3-0.7,1.2-1.3,1.4c1.4-1.8,3.4-6.7-0.6-3.7c-0.2-1.1,3.3-1.9,0.5-2.5c-1.4-0.7-1.6,0.2-2.1-1.1
			c-0.7-0.2-1.7-0.1-2.3-0.6c1.3-0.2-0.2-0.4-0.7-0.2c-1.1-0.3,0.4-0.6,0.6-1c0-0.4-0.8,0-1-0.1c4.3,0,8.9,4.5,12-1.4
			c1-0.4,3-0.2,3.2-1.1c0.1-0.9,0-3-1.2-2.6c-0.3,0.4-0.8,0.4-0.8-0.1c0.4-0.8-1.3-0.8-0.7-1.5c-0.3-1.2-2.5,0.4-3.3,0.1
			c-1.8-0.4,1.9-0.3,1.4-1.8c-1.9-1.8-1-2.7-3.7-0.1c1.6-2.6-0.8-2-2.3-1c-1.2,1.2,0.7-1.6-0.1-1c0.5-2-3-5-4.4-0.8
			c-1.8,0.6,0.8,2.1-0.6,1.6c0.1,0.9-1.5,2.6-0.1,3.2c0.6,0,0,0.4,0,0.7c0.1,1-0.4,0.2-0.3-0.2c-1.9,0.5-1.8,8.3-1.7,3.3
			c-0.3-1.2,1.6-3.7,0.9-3.7c-0.8,0.4-1-0.2-2,0.5c-3.3,1.3,1.1-1.4,1.7-3.1c0.9-3.3-2.6,1.4-3.9,0.5c1-0.3,4.2-2.7,2.3-2.3
			c-0.2-1-1-0.3-1.6-0.1c-0.3-0.3,0.3-0.4,0.4-0.6c-0.9-0.5-0.1-0.5,0.5-0.4c0.6-0.6,3.1,1.1,2.1-0.7c0.9,0.4,0.6-0.1,1.3-0.6
			c-0.9-0.4,0.9-0.3,0.6-1.8c-0.4-1-1.6-0.5-2.2,0.1c0.2-0.9,0.9-3.7-0.7-1.7c0-0.2,0.1-0.6-0.1-0.7c-1.7,1.7-1.5,0.7-2.4-0.7
			c-2.1,1-0.3,1.3-0.8,3.1C160,7.9,160.5,7,159.6,7c-0.5,0.2-0.7-0.7-1.1-0.2c-0.3,0.1,1.1,1.8,0.4,1.5c-0.9-1.6-1.7,0.6-0.5,1
			c0.5,0.1,0.9,0.1,1.2-0.5c0.1,0.8,0,0.7,0.7,1c-0.3,1-0.1,0.6,0.9,1.3c-1.2,0.3-2.5-1.6-2.3,0.4c0.8,1.3,0,0.5-1,0.6
			c-0.1,0.5-0.3,0.9,0.2,1.2c0,0.1-0.5-0.1-0.2,0.1c-0.7,1.2,0.6,0.5,0.8,1.7c-0.6-0.4-1.5-0.8-1.7,0.1c0.3,0.6-0.1,1.4,0.8,2
			c0.2,0.4-0.7-0.3-0.7,0.3c-0.1,0.3-0.7-0.3-0.9-0.5c-0.7,0.1-0.3,0.7-0.6,1.3c-1.5-0.4-0.1,0.5-1.3,0.9c-1.2,0.2,2.7-6.9-1.3-5.2
			c1.1-1,2.5-1.8,2.5-3.4c-1.1,0,1.2-3.6-1.2-2.1c-2.8,3.5-3.9,7.3-6.6,10.6c-1.1,1.5,0.4,0.7,0.1,1.7c-0.8,1.2-1.2,2.6-2.2,4
			c-1.1-0.3,0.3-1.1-0.1-1.3c-0.7,1-0.4-0.9-0.8,0c0.3,3.2-0.8,0.2-0.5-1.1c-0.1-0.9,2.9-2.8,0.8-2.2c-0.2-0.3,0.3-0.5,0.3-0.7
			c-0.6,0.3,0.2-0.8,0.4-0.9c0.3,0.7,0.8-0.2,0-0.2c1.5-1.9-2.4-0.6,0.4-1.8c-1.6-0.5-0.4,0,0.1-1.4c0.7-1,2.9-3,2.6-3
			c-1.4,0,2.5-2.2,1.1-2.3c0.9-0.6-0.7-0.8-0.6,0.1c-0.9-1.9-1.4,0.8-2.1,0.2c0.6-0.7,1-1.2,0.2-1.9c-1.8-1.4,0.6,2.9-0.9,2.5
			c-0.6,0.4-0.4-3.7-1.7-1c-1.2,0.2,0.3-1,0.2-1.4c-0.7-1.2-0.5,0.5-0.8,0.6c-0.2-0.3-0.9,0.4-0.5-0.3c-0.5-0.4-0.2-1.6-1-0.8
			c0.3-0.4-0.9-1.2-0.8-0.7c0.5,0.4,0.6,0.4,0,0.8c1.2,0.4-0.4-0.1,0.1,0.8c0.7,0.3-0.4,0.3,0.5,0.6c1,0.5-1.2,0.4-0.1,1.7
			c-0.6,1.2-1.4-1.8-1.9-1.2c-0.9,0.8-0.3,2.4,1.2,2.2c0.1,0.2,1.8,2.5,0.6,2.4c-1.8-2.8-2.1-0.2-3.1,1.4c0.9,0.4,2.3,2.9,0.7,1.1
			c-0.9-0.3-2.6-0.7-2.6,0.8c-1.1,0.6-2.6,2.1-1.8,2.7c1.5,0.2-1.8,0.4-1.4,1c2.7-0.2-0.1,0.2-0.5,0.6c0,0.6,0.8,0.2,0.9,0.5
			c-1.6,0.5,1.8,1.3-1,1.6c-1.3,0.9,3.4,1.2,1.5,2.1c-1.7-0.5-0.3-0.1-1.7,0.5c-0.9,0.7,0.2-1.5-1.2-1.7c0.8-2.4-0.4-1.1-1.9-0.6
			c-6.2,1.3,3-0.3,1.7-2.4c-2.3,0.3-4-2.7-3.7,0.9c0.3,0,0.7-0.1,1,0.2c0.8,0.3-2.3,0.8-1.4-1.5c0.6-1.3-0.9-1.6-1-0.2
			c-0.3-0.8,0.4-2-0.9-0.9c0.2-0.2,0.6-0.8,0-0.8c-1.5,1.1-0.7,2-0.5,3.4c-0.3-1.3-1.7-2-1.9-3.3c-0.9,0.6-0.1,4-0.9,1
			c-3,1.5,0,1.7,0.3,2.2c-0.5,0.6,0.3,1.3,0.9,0.9c0.1,1.5,2.4,0.4,2.9-0.4c0,0.9-3.3,2.3-0.5,1.8c0.9-1,0.2,2.7,0.1,1.2
			c-0.5-1.9-1.4,1.6,0.2,2c-2.5,1-2.6-3.5-4.6-2.9c-0.7,0.5-0.7,1.7,0.3,1.8c-0.3,0.6-1.2,0.1-0.5,1.2c-1.2,1.3-0.5,0.2-0.5-0.6
			c-0.5,0-0.8,0.1-0.7,0.7c-0.5,0.3,0.1,1.2-0.4,1.2c-0.9-0.4,0.1-1.5-0.8-1.4c0.8-1.5,1.8-2.5-0.1-0.9c-1,0.7,0,2-1.8,2.3
			c-1.2,1.1-0.1,3.9,1.5,4.9c-4.4-3.1-1.2,0.6-5.7,4.1c0.3-1,1.7-3.5,2-3.4c0.2-1.1-0.3-1.8,0.8-2.6c-1.5-1.9,1.4-4.7-0.5-6.5
			c-1.4,4-0.1-1.4-1.5,2.6c-0.2,1.6-0.6,1.2-0.4-0.1c-0.8,1.2-1.4,2.4-0.8,3.8c2.7,1.7,0.9,0.3-0.6,0.5c0.1,1.3-0.2,3-1.6,3.6
			c1-0.9,2.1-8.6,0.7-7.3c-1.5,0.4-2.9,0.7-3.6,2.2c-0.3-1.6-1.2,2.1-0.3,0.3c0.1-0.2,0.4-0.1,0.3,0.1c-0.6,0.3-0.5,2.7,0.1,2
			c0.9-1.3,2.2,1.7,0.6-0.1c-2.8,2.3,1.9,2.6,2.4,5.8c-1.9,0.1-1.6-0.4-1.2-1.8c-2.2-0.5-2.5-2.2-3.1-4.2c-6.5,1.5,3,4.9,0.2,4.5
			c0.3-0.5-0.5-0.3-0.7-0.3c-1.2-0.1,0.6,1.8-0.5,0.7c-1.2-2.4-0.4,0.2-1.1,1.5c0.6-2.2-1.7-7.4-1.9-3.3c-2.5,2.6,1,4.2-0.5,4.5
			c-1.7-0.4-2.4,0.7-3.2,1.8c-0.4,0.5-0.7,0.7,0,1c-0.1,0.4-0.7,0.5-0.7,1.2c0.7-0.2,2.7-0.5,2.2,0.7c-0.7-0.8-2.7,0-1.5,0.8
			c3.5,2-0.6-0.7-1.8,0.7c-0.7,0.3,1.3,1,1.6,1.3c1.9,0.5-1,0.8-0.9-0.3c-0.5-0.4-2.7,0-1.5,0.9c0.6,0.9-1-0.1-0.8-0.8
			c-4.8,1-1.2,3.1-3.4,2.8c-0.3,0.5,0.3,1.3,0.4,1.6c1.4-0.3,2.3-0.2,2.8-1.3c1.1,2.2,1,1.1,3.5-0.4c-0.6,2.2-0.2,0.7,1.2,1.8
			c2,1.4-2.3-1.1-2,0.2c0,0.5,0.8,0.5,1,1c-3.7-2.1-0.8,1.6-1.4,2.7c-0.5,1.2-0.1-4.2-2-2.6c-1.4,1.1-0.5-0.3-1.7-0.7
			c-1.4-0.5-4.6,1-1.5,1.8c0.7,0.4,1.2,1.9,1.7,2.5c-1.4-0.3-1.4-2.7-2.7-2.5c-1.2-1-1.8,0.4-0.1,0.6c0.5,0.5-0.9,0.2-0.9,0.7
			c0.9,0.4,1.8-0.5,2.5,0.7c-0.1,0.3-0.5-0.1-0.7-0.2c0.3,0.6-0.2,0.2-0.4,0.3c0.1,0.9-0.2-0.2-0.6,0.5c-0.7-0.5,0,1,0.4,0.7
			c0.2-1.2,2.4,0.4,1.9,0.3c0.1,0.5-1.2-0.2-1.3-0.6c-0.6,0.8-1,1.2,0.3,1.5c-0.4,0.5,0.1,1.7-0.6,0.4c-0.5-0.8-0.7,0.2-0.1,0.8
			c0.9,2-0.9-1.7-1.3-1c1,0.9-0.1,2.1,1.5,2.6c0.9,1.7-0.7-0.4-1.4-0.5c-0.4-0.6,0.2-1.7-0.6-2.4c-0.9-0.5,1-2.8-0.5-2.5
			c0.2-0.3,0.3-1.5-0.5-1.3c-0.3,0.3,0.4,1.1-0.6,1c-0.1,0.5,0.7,0.7,0.1,1c-0.3,0.4-2.1,1.5-1.5,0.6c0.7,0.1,0.3-2.6-0.4-0.6
			c-0.1,0.1-0.3,0.2-0.4,0.2c-0.1-1.9-0.7,0.9-1,0.4c-0.2,0.8-0.7,1.1,0.3,1.7c0.1-0.3,0.9-2.4,1.2-1c1.9,1,0.5,0.1-0.5,1.1
			c1,0.1,3.7-0.2,2.1,1.4c-0.2-2-3.1,0.4-4,0.8c0.6-0.5-1.4-0.9-1.8-0.2c-0.5,0.2,0.4,0.9-0.5,0.7c-1.1,1,0.6,0.9,1.3,0.8
			c-0.3,0.5,0,0.5,0.5,0.5c-0.5,0.5-1.9,0-2,0.6c1.2,0.2,0.1,0.4-0.3,0.8c1.1,1.1,2.7-1.1,3.4-1.9c1.1,0,0-1.7,0.6-1.2
			c0.1,0.6,0.5-0.7,0.4,0.3c-0.1,1.1,2.1,1.1,2.5,2.2c-0.2,0.9-1.5-1.6-2.7-0.8c0.2,0.5,2.1,1.3,0.9,0.8c-0.5-0.1,0.2,0.5-0.5,0.1
			c-0.5-0.5-2-0.7-0.9,0.1c-0.5,0-1.1,0.4-0.9,1c1.2,0.1,2.3,0.6,0.4,0.4c-0.5,2.8,3.1,0.1,4,0.5c-1.7,0.2-2.7,2-1.7,2.9
			c-0.3,2.1-0.6-2-1.7-1.7c-1.6,0.9-1,1.3-1-0.5c-2.2,1.1-0.5,0.7-1-0.7c0.7,0.4,1.1,0.7,0.5-0.2c-2.1,0.2-3.6,2.8-0.3,2.1
			c-0.5,0.3-0.9,0.5-1.2,1.1c0.3-1-1.1-1.1-1.4-0.4c0.4,0.9-1.5,1.3-2.1,2c0.4-0.2,0.9-0.3,0.5,0.2c-0.7,1.3,3.2-1.9,2.1,0.5
			c1.2-0.1,0.5-0.7,1-0.9c0.7,0.5,1.5-1.1,1.9-0.3c-1.6,1.9,2.3-0.1,0.6,1.3c0.3,0.5,1.3-1.1,1.4,0c-0.9,0-0.5,0.2,0,0.7
			c0,0.7-0.3,2.2-0.7,0.9c0.8-1.6-3.8-2.1-2.4,0.1c-1.5-0.2,0.5-2.2-0.4-1.7c-1.4,0.2-5.6,0-2,0.8c-2.3-0.2-1.6,1.6-2.4,3.1
			c-0.8,0.6-0.6-1.5-1.1-1.1c-0.2,0.7,0.4,1.2-0.5,1.6c-1.1,0.6,0.6-0.6,0.1-0.7c-0.6,0.1-0.9,0.4-1.4,0.7c1,0.2-0.8,0.3-1.1,0.4
			c-0.7-0.6-0.1,0.8,0.2,1.1c1.1-0.9,0.3,1.1,0.9,0.5c0.2,0.3,1.8,0.5,1.3,0.7c-1.5-0.2-4.4-0.1-1.2,0.6c-1.3-0.5-1.7,1.3-0.3,0.4
			c2.1-0.2,0.1,0.3-0.7,0.5c-0.4-0.1-2.5-1.1-2.1-0.2c0.5,0.5,1.5,0.2,1.9,0.9c-0.4,0.5-3-1-2.1,0.3c1.9-0.4,0,0.1,0.1,0.6
			c-0.8,1.3,1.6,0.4,1.7-0.3c1.6-0.3,1.3,0,0.2,0.4c-1.3,0.3,2,1,0.2,0.9c-1.1-1-2.9,0.9-1.2,0.8c-1.5,1.2-0.9-1.2-2.1-1.1
			c-0.5,0.2-0.4,0.4-0.1,0.8c2.1,0.6-1.6,3,0.4,2.6c0.2,0,0.8,0.6,1.6-0.1c0.7-0.5,0.4,0.2,1,0.4c-1.3,0.1-3.1,0.7-3.1,1.9
			c0.7-0.2,4-2.2,3.4-1.1c1,0.6,3-1.7,3.5-1c-0.4,0.7-1.3,1.2-2,1.7c-0.6,0.2,0.6,1.3-0.3,0.8c-0.7-0.7-1.5,1.4-1.5,0.4
			c1.1-1.6-0.9-2-2.2-0.6c-0.7,0.7-3.3,0.4-2.9,1.9c0.6,0.7,2.1-0.8,2-0.2c-1.4,1.2-0.1,2,0.7,2.1c0.5,2,0.8,2.3-0.5,0.6
			c-1.8-2.4-3.5,0-2.2,1.7c-0.7-0.9-0.5-0.2-1,0.4c0.6,0.7,0.6,1.3,1.4,1.7c-0.9,0.3-1-0.8-1.5-1.3c-1.1-0.3-1.3,2.3-0.9,2.8
			c0.4,0.2,0.3-0.6,0.5,0.3c0.4,0,0.4-1.5,0.6-0.7c0.3,0.6-0.2,0.6-0.1,1c0.8,0.2,0.1,0.5,0.8,0.5c-0.8,0.2-0.7,1.1-1.2,0.1
			c-0.6,0-0.9-1.4-1.3-2c-0.7,0.3-0.1,1.5-0.7,1.9c0.4-0.5,1.6-0.5,0.7,0c-1.5,0.7-0.5,3.5-1.8,3.1c-1.1,1,2.1,0.1,1.5-0.8
			c-0.3-0.4,0.9-0.8,1.3-1c0.1,0.2-0.6,0.8,0.1,0.5c-0.4,0.5-1.3,0.7-1.3,1.5c0.5-0.8,1.5-0.8,0.5-0.1c0.9,0.2,1.2,0.7,0.1,0.8
			c0.6,0.5-0.4,1-0.6,0.5c0.3-1.6-1.5-1-0.9,0.3c-0.5-0.2-0.3,0.2-0.5,0.6c-0.9-0.1,0-0.5-0.3-1.2c-0.7,0.3-1.5,1.3-1.6,2.1
			c0.7-0.2,1.8-1.3,0.6-0.1c-0.4,0.3-0.5,0.6-0.9,0.2c-0.2,0-1,0.6-0.3,0.4c1.7-0.3-0.3,0.9-0.6,0.4c-0.7,0,0,0.9-0.7,0.4
			c-0.5,0-1.6,1.4-0.5,0.8c3.2-0.6,1.5-0.1-0.5,0.4c-0.4,1,1.9,0.6-0.4,1.4c1.6,0.5,3.2-2.8,5.2-3.3c0.7-0.2,3.4,1.6,1.9,0.9
			c-0.8-1.3-5.5,0.3-3.9,1.6c0.3,0.1,1.1-0.2,0.4,0.3c-0.5,0.3-1.7-0.2-1.1,0.6c-0.9-0.3-1.9,1-1.1,1.9c-0.3,0.1-0.6-0.1-0.6,0.5
			c0.8,0.6,1.3,0.4,0.5,1.6c1.5,0-0.1,0.3-0.4,0.6c0.2,0.6-1.9,3-0.7,0.7c1.5-1.3-0.7-0.7-0.5-1.2c-0.1-0.6-1.8-3.1-1.3-1.3
			c0,0.4,0.2,0.8-0.4,0.7c0,0.6-0.1,0.1-0.6,0c-0.5,0.2,0.3,0.1,0.2,0.6c-0.3-0.4-0.7,0.4-0.7-0.2c-1.3,1,1.1,0.1,0.6,1.6
			c-0.5-0.1-2.1-2.1-1.1-0.5c-0.3,0.5-1.2-1.1-1,0c0.3-0.1,0.8,0,0.8,0.4c0.8,0.6-0.4,0.2-0.6,0.1c-0.3,0.2-0.6,0.7-0.2,1
			c-0.3,0.2-0.3,0.2-0.6,0.1c0.1,0.3,0,0.4-0.3,0.3c0.1,0.2-0.3,0.5-0.4,0.1c0,0.4,0.3,0.6,0.7,0.8c0.1,0.8-0.4,0-0.6,0.2
			c-0.1-0.1-0.4-0.1-0.2,0.1c-0.2,0.2-0.6-0.4-0.3,0.2c0.4,0.4-0.7,0.5-0.5,0.8c0.2,0.3,1.5,0,0.4,0.4c-0.5,0.7-1-0.9-1.1,0.2
			c0.2,0.3,0.5,0.5,0.2,0.9c-0.6-0.1-0.1,0.4-0.6,0.8c0.1,0,1.4-0.5,0.8,0c-0.1,0.5,0.8-0.4,0.7,0.1c0,0.6-1.2,0.1-1.5,0.9
			c-0.7-0.4-0.6,0.3-1,0.6c-0.7-0.9-1.1,0.5-1.5,1.1c2.8,0-0.4-0.1,0,1.2c0.1,0.5,2.4-1.3,3.4-1.5c-0.7,0.4-0.2,0.7-0.5,1
			c-2.2,0.3-1,1.5-0.6,2.9c2.2,0.6,4-2.6,6.2-3.3c1.9-3.1-0.8-1.7-2.3-0.6c0.9-0.7,6.1-5.7,4.6-4c-0.8,0.5,0.1,0.7,0.7,0.6
			c1.6,0.7-2.7,1.3-1.9,2.6c1.2,0.5,2.1-3.2,1.5-0.2c-0.5,0.4,0.6,0.2,0.5,0.5c0.6,0.7-0.6,0.8-1,1.3c0.3-0.7-1.1,0.9-1.8,0.5
			c-0.7,0.3-3,2.7-1.6,1.9c1-0.3,1.2-1.1,1,0.3c-1.7,0.5-0.5,0.8,0.1,1.3c0.2,1.2-5.4-1.2-5.2,1.3c1.6,0.3,0.6,1-0.3,0.2
			c-0.3-0.1-1.6,0.9-1,0.1c1.3-0.7-0.9-3.9-1.1-4.1c-1.5,0.3-0.3,1.8-0.9,1c-1.1-0.1-0.6,1.6-1.1,0.2c-0.5,0.3-0.6,1-0.8,0.6
			c-1.5,1.3,1.4,0.2,1.6,0.5c-0.5,0.4-1.6,0.3-2,0.7c0.2,1.3,3.4-0.2,0.8,0.8c-2.8,1.6,0.2-0.5-1.7-1.2c-0.4-0.5-0.4,0.1-0.1,0.3
			c-0.4,0.3-0.6-0.2-0.8,0.4c-0.1-0.8-0.9-0.4-1.4-0.2c-0.1,0.2,0.5,0.7,0.1,0.6c-0.8-0.8-0.8,0-1.4,0.4c-1.3,0.5,0.6,0.4,0.6-0.2
			c0.6,0.7,1.2-0.4,2-0.2c-1.3,0.5-3.1,1-1.3,2.2c0.5,0,2.9-0.3,1.7,0c-3.2-0.1-1.1,1.9-2.6,0.9c-0.5,0.1-1.1-0.3-1.6-0.1
			c0.2,0.2,1,1,0.2,0.7c-1-1.4-0.6,0-0.4,0.7c0.6,0.4,2.4-0.1,0.7,0.5c0.4,0.6,1-0.6,1.5-0.3c-0.3,0.2-1,0.9-0.2,0.4
			c2,0-1,0.4-0.6,0.9c0.7,0.3,2.4,1.9,0.8,1c0-0.3-0.5-0.2-0.5,0.1c-1-0.2-1.8-0.7-1.2-1.8c-0.4-0.2-1.3-0.8-1.2-1.5
			c-0.4-1.1-1.3,0.5-1.4,0.9c0.4,0.2,1.1,0.3,1.6,1c-0.7,2.1,2.8,1.8,2.4,3.6c-4.1-2.3-1.8-5.2-5.5-3.1c1.2-1.9-0.6,0.2-1.4-0.1
			c-0.3-1.4-1.8-1.4-2.5-0.7c-1.7,1.2,0.9,1.3,1.3,2.1c-0.6,0-1-0.5-1.5,0.1c-1.1,2.2,6.6-0.8,3.4,0.4c-3.7,3,4.1-1.7,3.7,1.1
			c-0.9-1-4.3-0.5-3.6,1.1c-1-0.6-1.3,0-0.1,0.6c2.3-0.6,0.9-0.3,0.2,0.7c-0.5-0.1-3.2-3-2.5-0.7c-0.5,0.3-0.4-1.1-0.6-1.3
			c-1.7-0.2-0.2,1.8-1.8,0c-2.3,1.6-0.2,0-2.9,0.6c-1,2.8,1,0.6,2.5,1.4c-1,0.5-3-0.2-3.9,0.6c0.5,0,1.5-0.3,1.6,0.2
			c-0.1,0.6-1.4-0.4-1.7,0.2c1.4,1.1,3.1-1.1,4.6-0.7c1.2,0.3,0.6,2.4,2.4,2.5c0.5-0.6,1.3,0.1,1.5,0.5c-0.4,0.5-0.6-0.7-1.1-0.4
			c-0.3,0.7-0.9-0.3-1.3,0c-0.9,4.3,0.5,1,0.8,2.3c-2.6,0.8-1.2-0.2-1.2-2.1c-0.2-0.7-1-1.2-0.6-2.1c-0.4-0.4-2.1-0.5-1.9,0.3
			c0.1,1.1-0.6-0.8-1,0.2c-0.1,1.5,2.1,2.9,0.7,3.5c-0.2-5.8-5.1-1.8-2.5-1c-2.6-0.8,0.2,1.1,1.2,1.7c-1.3-0.2-1.6,0-2.2-1.1
			c0.3,0.9-1.6,2.7-0.6,0.9c1.1-2.1-2-1.9-1-0.2c-0.6,0-0.2-1.2-0.9-1c-1.7-0.6-1.1,0.8,0.1,1.2c0.2,0.5-0.3,0-0.5,0.2
			c0,0.2-0.3,1.2-0.3,0.5c-0.7-1-1.2-2.6-2.3-2.3c0.1,0.4,0.2,1,0.3,1.2c0.8-0.2,1,1,1.5,1c0.4,0.4-1,0.4-0.6,1.1
			c-0.5-0.3-0.6-0.4-1.1,0C22.2,148.4,19.8,148.7,21.1,149.2z"/>
		<path class="st0" d="M23.4,145.8c0.7,0.1-0.1-0.8-0.2-0.3C23.3,145.7,23.3,145.8,23.4,145.8z"/>
		<path class="st0" d="M24.7,144.1c0.6,0.5,0,0.2-0.2,0.5C25.5,145.1,25.3,143.8,24.7,144.1z"/>
		<path class="st0" d="M22.6,149c0.1-0.2-0.2-0.4-0.3-0.2C22.2,149,22.5,149.2,22.6,149z"/>
		<path class="st0" d="M24,144.6c0.4,0,0.5-0.3,0-0.4C23.7,144,23.9,144.5,24,144.6z"/>
		<path class="st0" d="M24.7,143.8c0-0.1-0.2-0.3-0.4-0.2C24.4,143.6,24.6,143.9,24.7,143.8z"/>
		<path class="st0" d="M70.4,86.4c1,0.2,0.5-1.6,0-0.3C70.4,86.1,70.3,86.3,70.4,86.4z"/>
		<path class="st0" d="M74.3,79.3c0.2-0.1,0.2-0.4-0.1-0.3C74.1,79.1,74.2,79.5,74.3,79.3z"/>
		<path class="st0" d="M83.5,66c-0.2,0-0.5,0.1-0.7,0.3C82.7,66.7,83.8,66.3,83.5,66z"/>
		<path class="st0" d="M83.5,67c0.1,0.1,0.3,0.2,0.4,0.1C83.9,66.8,83.5,66.8,83.5,67z"/>
		<path class="st0" d="M34.7,140.4c0.2,0,0.6,0,0.7-0.1C35.3,139.9,34,140,34.7,140.4z"/>
		<path class="st0" d="M58.3,125.2c0.2-0.4,1.8-0.4,0.8-0.9C58.7,124.3,57.4,125.4,58.3,125.2z"/>
		<path class="st0" d="M74.2,89.5c0.6,0.1,0.9-0.2,1.1-0.7C74.7,88.4,74.1,88.9,74.2,89.5z"/>
		<path class="st0" d="M51.8,122.8c0.1-0.2,0.5-0.1,0.3-0.3C52,122.6,51.3,122.9,51.8,122.8z"/>
		<path class="st0" d="M26.1,183.5c-0.1,0-0.2,0.2-0.1,0.3C26.3,183.9,26.2,183.6,26.1,183.5z"/>
		<path class="st0" d="M20.5,155.5c0.1,0-0.2-0.4-0.2-0.5C20.1,155.1,20.4,155.6,20.5,155.5z"/>
		<path class="st0" d="M21,155.7c0,0.3,0.5,0.3,0.5,0C21.6,155.5,21,155.5,21,155.7z"/>
		<path class="st0" d="M21.7,154.9c-0.1-0.1-0.5-0.4-0.6-0.1C21.1,154.9,21.7,155,21.7,154.9z"/>
		<path class="st0" d="M19.9,153.5c0.4,0,0-0.4,0-0.7C19.6,153,19.7,153.4,19.9,153.5z"/>
		<path class="st0" d="M19.5,154.4c0,0.2,0.4,0,0.4-0.1C20,154,19.6,154.2,19.5,154.4z"/>
		<path class="st0" d="M20.2,157.8c1,0.9,0.7-1.5-0.1-0.4C19.8,157.5,19.9,157.7,20.2,157.8z"/>
		<path class="st0" d="M21.3,150.2c-0.3-0.1-0.6-0.3-0.4,0.2C21.1,150.5,21.7,150.4,21.3,150.2z"/>
		<path class="st0" d="M18.7,162c0.7,0.6,0.2-0.6,0.2-0.9C18.4,161.1,18.6,161.7,18.7,162z"/>
		<path class="st0" d="M21.1,159.6c0-0.1,0-0.1-0.2-0.1C20.8,159.7,21.1,159.9,21.1,159.6z"/>
		<path class="st0" d="M19.9,151c0.2,0.2,1,0,0.6,0.3c-0.7,0.4,0.4,0.8,0.8,0.1c0.5-0.8,0.1-0.1,0.9-0.2
			C22.5,150.3,19.1,150.2,19.9,151z"/>
		<path class="st0" d="M19.1,158.4C19.8,158.5,18.3,157.3,19.1,158.4C19.1,158.4,19.1,158.4,19.1,158.4z"/>
		<path class="st0" d="M19,159.2c0.1,0.1,0,0.4,0.3,0.3C19.4,159.4,19.2,159,19,159.2z"/>
		<path class="st0" d="M19.7,152.1c0,0.5,0.6-0.2,0.2-0.4C19.6,151.3,19.4,151.8,19.7,152.1z"/>
		<path class="st0" d="M19.6,160.9c-0.9-0.6-0.9,0.7,0.2,0.4c0.8,0.2-0.3-0.3,0.2-0.5c0.7,0.9,1-1.3,0.4-1.4
			c0.1,0.2-0.2,1.1-0.2,0.5c0.1-1.2-0.2,0-0.6,0C19.1,160.4,19.9,160.4,19.6,160.9z"/>
		<path class="st0" d="M27.2,183.2c-0.3,0.1-0.9,0.1-0.8,0.5C26.5,184.5,28.2,183.6,27.2,183.2z"/>
		<path class="st0" d="M26.6,184.3c-0.2,0-0.1,0.3,0,0.3C26.8,184.7,26.8,184.4,26.6,184.3z"/>
		<path class="st0" d="M176.1,28.6c0.2-0.2,0.2-0.6-0.3-0.4C176,28.3,175.8,28.6,176.1,28.6z"/>
		<path class="st0" d="M27,184.5c0.2,0,0.4-0.2,0.5-0.4C27.3,184.2,26.9,184.2,27,184.5z"/>
		<path class="st0" d="M25.4,185.5c-0.6-0.4-1.7-0.2-0.7,0.4C24.9,186.1,26,186,25.4,185.5z"/>
		<path class="st0" d="M25.6,184.8c0.2,1.3,1-1.2,0.2-0.2C25.7,184.9,25.6,184.7,25.6,184.8z"/>
		<path class="st0" d="M24.4,145.1c-0.4,0.2-0.5,1.5,0.3,1.3C26.1,146.2,26,144.8,24.4,145.1z"/>
		<path class="st0" d="M25.8,183.9c0.1-0.1,0-0.3-0.1-0.2C25.6,183.8,25.7,184,25.8,183.9z"/>
		<path class="st0" d="M24.8,178c0.2,0.6,0.6-0.1,0.2-0.3C24.9,177.8,25,177.9,24.8,178z"/>
		<path class="st0" d="M26.8,173.6c0.2-0.3,0.6-0.7,0.3-1C26.4,172.5,26.5,173.3,26.8,173.6z"/>
		<path class="st0" d="M25,166c-0.4-0.3-0.8,1.2-1.6,1.7C22.5,169.5,25.9,169.8,25,166z"/>
		<path class="st0" d="M26.3,185c0,0,0,0.1-0.1,0.1C26,186.1,27,184.6,26.3,185z"/>
		<path class="st0" d="M20.4,162.4c0.9,0.2,0.2-0.9-0.2-0.3C20.2,162.2,20.2,162.5,20.4,162.4z"/>
		<path class="st0" d="M20.9,160.1c0,0.2,0,0.6,0.3,0.4C21.4,160.3,20.7,159.6,20.9,160.1z"/>
		<path class="st0" d="M24.4,176.8c0.4,0,0.1-0.7-0.1-0.5C24.2,176.6,24.1,176.9,24.4,176.8z"/>
		<path class="st0" d="M25.5,177.9c0.8-0.6-0.7-1-0.9-0.9C25.3,177.2,25.3,177.5,25.5,177.9z"/>
		<path class="st0" d="M25.9,145.1c0.6,0.1,0,1.2,0.7,0.3c1.4-0.4,0.4-2.7-0.6-1.6C26,144.9,25.3,144.7,25.9,145.1z"/>
		<path class="st0" d="M57,107.9c0.8,0,0.7-0.7,0-0.6C56.7,107.5,56.7,108.2,57,107.9z"/>
		<path class="st0" d="M59.1,113.4c-1.3,1.1,4.1,2.8-0.5-0.9C56.9,113.1,59.9,113.4,59.1,113.4z"/>
		<path class="st0" d="M56,109.2c1.1,1.1,2.4-1.4,2.4,0.6c1.4,0.4,1.5-2.4-0.2-1.4c-0.9,0.6-0.8,0.1,0-0.2
			C60.1,106.5,54.9,109.3,56,109.2z"/>
		<path class="st0" d="M59.8,108.5c0.2-0.4,0.5-0.4,0.9-0.5C60.9,107.5,59.4,108.2,59.8,108.5z"/>
		<path class="st0" d="M64.7,68.6c0.2,0.1,0.4-0.2,0.2-0.4C64.7,68.2,64.5,68.5,64.7,68.6z"/>
		<path class="st0" d="M61.2,106.5c0.2,0.7,1.5-0.5,1.5-0.9C62.3,105.8,61,105.4,61.2,106.5z"/>
		<path class="st0" d="M62.9,98.2c0.9,0.7,0.9-0.5,1.6-0.9c1.1-0.2-0.6-0.6-1.1-0.6C63,96.8,62.2,98.3,62.9,98.2z"/>
		<path class="st0" d="M56.8,114.1c-0.2-0.2-0.2,0.3,0,0.2C57.1,114.3,56.9,114.1,56.8,114.1z"/>
		<path class="st0" d="M50.9,121.4c0.2,0.6,0.8,0.1,0.3-0.4C51,120.9,50.5,121.3,50.9,121.4z"/>
		<path class="st0" d="M51.2,122.8c0,0.2,0.2,0,0.2-0.1C51.3,122.5,51.2,122.6,51.2,122.8z"/>
		<path class="st0" d="M59.3,111.9c-0.8,0.5,0.2,0.5,0.5,1C60.2,113.4,60.3,111.4,59.3,111.9z"/>
		<path class="st0" d="M51.6,121.2c0.5-0.1,0.2-0.5-0.1-0.6C51.2,120.7,51.3,121.1,51.6,121.2z"/>
		<path class="st0" d="M57,113.6c0.1-0.3-0.5-0.1-0.1,0C56.9,113.6,56.9,113.6,57,113.6z"/>
		<path class="st0" d="M64.9,100.3c0.1-0.1,0.2-0.2,0.2-0.3C64.8,99.3,64.5,100.7,64.9,100.3z"/>
		<path class="st0" d="M56.2,114.1c0,0.1-0.2,0-0.2,0C55.6,114.3,56.8,114.6,56.2,114.1z"/>
		<path class="st0" d="M68.4,89.9c-0.1,0.3,0.6,0.3,0.6,0C68.9,89.5,68.1,89.2,68.4,89.9z"/>
		<path class="st0" d="M68,83.7c0.4,0.5,0.5-1.1,0-0.6C67.7,83.3,68,83.4,68,83.7z"/>
		<path class="st0" d="M68,93.4c1.7-0.9,2.4-2.1,0.1-0.8c-0.7,0.2,0.8-1.1-0.2-0.5C66.4,92.9,66.2,94.9,68,93.4z"/>
		<path class="st0" d="M48.1,124.5c0.2-0.1,0.1-0.4-0.1-0.3C47.9,124.4,47.8,124.9,48.1,124.5z"/>
		<path class="st0" d="M67,94.9c0,0,0.3-0.3,0.1-0.3C66.8,94.7,66.6,95.3,67,94.9z"/>
		<path class="st0" d="M67.8,66.6c-0.1-0.8,0.7,0,0.8-0.5C68.7,64.9,67.1,66.6,67.8,66.6z"/>
		<path class="st0" d="M67.5,95.5c0-0.3,0.4-0.5,0.1-0.7C67.4,94.9,67.2,95.9,67.5,95.5z"/>
		<path class="st0" d="M67.3,94.2c0.4-0.4-0.5,0.1-0.5,0.3C67,94.8,67.1,94.3,67.3,94.2z"/>
		<path class="st0" d="M65,100.7c0.4-1-0.3,0.1-0.7,0.4c-0.1,0.4,0.4-0.2,0.3,0.4C65,101.4,64.7,100.9,65,100.7z"/>
		<path class="st0" d="M65.4,92.5c0.3,0.1,0.3-0.5,0-0.3C65.4,92.3,65.4,92.4,65.4,92.5z"/>
		<path class="st0" d="M64.9,98.4c0.2-0.1,0.3-0.4,0.4-0.6C65.1,97.8,64.8,98.1,64.9,98.4z"/>
		<path class="st0" d="M65.5,93c0,0.1-0.1,0.2-0.1,0.2C65.6,93.3,65.9,92.9,65.5,93z"/>
		<path class="st0" d="M67.5,87.1c0.5,0.7,0.4-1-0.1-0.7C67.8,86.7,67.1,87.2,67.5,87.1z"/>
		<path class="st0" d="M66.2,91.1c1.7-0.1-1.2,0.6,0.1,0.9c0.9-0.1,1.2-0.8,1.9-1.1c-0.2-0.3-0.1-0.9-0.5-0.4
			c0.1-0.5,0.6-0.9,0.1-1.5C65.7,90.5,69.3,88.8,66.2,91.1z"/>
		<path class="st0" d="M66,90.4c0.1-0.3,0.4-0.4,0.3-0.7C66.1,89.8,65.6,90.6,66,90.4z"/>
		<path class="st0" d="M65.5,92.8c0.3,0.4,0.7-0.4,0.8-0.6C66,92.2,65.7,92.4,65.5,92.8z"/>
		<path class="st0" d="M40.5,132.9c-0.1,0.5,0.6,0.6,0.8,0.3C41.1,133,40.4,132,40.5,132.9z"/>
		<path class="st0" d="M36,136.4c0.3,0,1.8-0.7,1.4-1c-0.6-0.2,0.2-1.7-0.7-1.3c0.4,0.4-0.2,0.8,0,1.3c-0.2,0-0.5-0.4-0.5-0.5
			C35.7,134.6,35.2,136.2,36,136.4z"/>
		<path class="st0" d="M31.9,138c-0.2,0.2,0.3,0.5,0.7,0.6c-0.3-0.4,0.7-0.8,0.1-1C32.4,138,31.5,137.4,31.9,138z"/>
		<path class="st0" d="M31.2,140c0.4,0.2,2.2-0.5,1.2-0.9C31.6,139.4,30.9,139.1,31.2,140z"/>
		<path class="st0" d="M37.7,134.1c0.4,0.1,1.1-0.2,0.6-0.5C38.1,134.2,37.1,133.6,37.7,134.1z"/>
		<path class="st0" d="M30.8,140.3c0.3-0.1,0-0.4,0-0.6C30.4,139.8,30.2,140.6,30.8,140.3z"/>
		<path class="st0" d="M39.9,131.4c0-0.1-0.5,0.2-0.4,0.2C39.7,131.7,39.9,131.6,39.9,131.4z"/>
		<path class="st0" d="M38.1,130.6c0.5-0.1,0.3,1.1,0.5,0.1c0.7,0.3,0.6,0.9,1.5,0.4C41.8,129.1,37.7,128.5,38.1,130.6z"/>
		<path class="st0" d="M28.8,140.2c0.5,0-0.2-0.7-0.4-0.3C28.6,140,28.7,140.2,28.8,140.2z"/>
		<path class="st0" d="M27.5,141.7c0.3,0.4,0.3-0.7,0-0.5C27.1,141.4,26.9,142.1,27.5,141.7z"/>
		<path class="st0" d="M27.9,140.9c0.8,0.2-0.2-0.7-0.2-0.2C27.8,140.8,27.8,140.9,27.9,140.9z"/>
		<path class="st0" d="M26.7,142.8c0.3,0.1,0.7-0.3,0.1-0.3C26.7,142.5,26.4,142.8,26.7,142.8z"/>
		<path class="st0" d="M48,126.6c0.5,0.3,0.2-0.3,0-0.5C47.9,126.2,47.7,126.5,48,126.6z"/>
		<path class="st0" d="M29.6,139.7c0-0.3-0.5-0.3-0.6-0.1C29.1,139.7,29.6,140,29.6,139.7z"/>
		<path class="st0" d="M29.6,138.9c-0.1,0.9,0.4,0.1,0.2-0.4C29.5,138.5,29.3,138.7,29.6,138.9z"/>
		<path class="st0" d="M28.3,140.4c0.5,0.5,0.1-0.6-0.3-0.5C27.8,140,28.2,140.3,28.3,140.4z"/>
		<path class="st0" d="M39.2,133.7c0.9,0.1,1.6-0.7,0.7-1.2C39.2,132.4,37.7,133.8,39.2,133.7z"/>
		<path class="st0" d="M40.9,128.8c0.4-0.5,0.3,1.6,1.8,0.8c1.2-1.1,4.4-0.7,3.7-2c-0.8-0.5-1.2,0-1.1-1c-0.4,0-1,0.3-0.3,0.4
			c-0.3,0.4-0.4-0.1-0.5-0.2c0.3-0.9-2.4,0.8-1.8,1.1C42.2,128.1,40.5,128.4,40.9,128.8z"/>
		<path class="st0" d="M41.8,127.4c-0.4,0.1,0,0.3,0.1,0.3C42.1,127.6,42,127.4,41.8,127.4z"/>
		<path class="st0" d="M44.7,125c0.2,0.1,0.3-0.3,0.1-0.3C44.6,124.8,44.5,124.9,44.7,125z"/>
		<path class="st0" d="M41.2,126.4c1.9,0.3,5-0.9,2.6-1.8c-0.4-0.1-0.8,0.3-0.3,0.2C45.5,125.2,40.9,125.8,41.2,126.4z"/>
		<path class="st0" d="M47.6,127.7c0.4-0.3-0.1-0.2-0.3,0C47.3,127.9,47.5,127.9,47.6,127.7z"/>
		<path class="st0" d="M38.3,135.7c-0.1,0-0.3,0-0.2,0.2C38.2,136.1,38.7,135.8,38.3,135.7z"/>
		<path class="st0" d="M44.7,125.4c0,0.3,0.3,0.2,0.4,0C45.1,125.3,44.8,125.3,44.7,125.4z"/>
		<path class="st0" d="M45.9,127.1c1.5,0.1-0.3-1.6,0-0.7C46,126.7,45.2,127.2,45.9,127.1z"/>
		<path class="st0" d="M40.1,131.6c0.2,0.1,0.6-0.2,0.4-0.4C40.5,131.2,40,131.5,40.1,131.6z"/>
		<path class="st0" d="M46.3,128.7c0,0-0.1,0-0.1,0.1C46.1,129.2,46.8,128.7,46.3,128.7z"/>
		<path class="st0" d="M40.5,132.2c-0.1-0.1-0.2,0.1-0.1,0.2C40.6,132.5,40.7,132.3,40.5,132.2z"/>
		<path class="st0" d="M41.1,132.7c0.2,1.1,2.4,0.8,1.4-0.3C42.3,131.4,40.3,131.9,41.1,132.7z"/>
		<path class="st0" d="M38.5,134.9c0.7-1.4-1.7-0.4-0.8,0.3C38.1,135.3,38.3,135.3,38.5,134.9z"/>
		<path class="st0" d="M67.1,95.8c0.4-0.9-0.7-0.1-0.6,0.4C66.6,96.2,66.9,95.8,67.1,95.8z"/>
	</g>
</g>
</svg>
