<?xml version="1.0" encoding="utf-8"?>
<!-- Generator: Adobe Illustrator 26.0.3, SVG Export Plug-In . SVG Version: 6.00 Build 0)  -->
<svg version="1.1" id="Isolation_Mode" xmlns="http://www.w3.org/2000/svg" xmlns:xlink="http://www.w3.org/1999/xlink" x="0px"
	 y="0px" viewBox="0 0 200 200" enable-background="new 0 0 200 200" xml:space="preserve">
<g>
	<path fill="#1E8346" d="M193.447,137.655c0.535-0.098,1.059,0.094,1.58-0.026c0.266-0.062,0.987-0.711,0.972-0.965
		c-0.578-0.119-1.086-0.374-1.624-0.605c-0.579-0.249-1.067-0.966-1.415-1.479c-0.235-0.346-0.427-0.906-0.543-1.313
		c-0.094-0.333-0.162-0.246-0.411-0.489c-0.146-0.143-0.174-0.213-0.168-0.42c0.001-0.055,0.077-0.117,0.079-0.19
		c0.002-0.07-0.088-0.128-0.088-0.204c0-0.114,0.142-0.181,0.066-0.316c-0.093-0.168-0.267-0.061-0.331-0.313
		c-0.058-0.227,0.18-0.659,0.055-0.854c-0.153-0.241-0.664-0.037-0.893-0.281c-0.16-0.171-0.373-0.845-0.33-1.076
		c0.074-0.401,0.495-0.43,0.238-0.879c-0.158-0.277-0.422-0.431-0.737-0.488c-0.126-0.15-0.115-0.347-0.286-0.51
		c-0.172-0.164-0.401-0.282-0.612-0.395c-0.389-0.21-0.721-0.356-0.851-0.795c-0.161-0.544-0.066-1.072-0.418-1.583
		c-0.343-0.497-0.63-0.491-1.207-0.444c-0.176-0.643-0.36-1.147-0.082-1.776c0.112-0.252,0.224-0.396,0.441-0.547
		c0.246-0.171,0.29-0.152,0.325-0.423c0.028-0.224-0.035-0.418,0.062-0.634c0.07-0.157,0.214-0.236,0.234-0.408
		c0.025-0.221-0.166-0.271-0.2-0.41c-0.039-0.159,0.107-0.34,0.045-0.529c-0.181,0.025-0.682-0.196-0.786-0.368
		c0.105-0.295,0.852-0.693,0.221-0.947c-0.296-0.12-0.452,0.034-0.617-0.271c-0.146-0.269-0.135-0.778-0.406-0.967
		c-0.196-0.137-0.57,0.003-0.747-0.213c-0.144-0.176-0.031-0.421-0.003-0.619c0.079-0.572-0.248-0.905-0.399-1.41
		c-0.128-0.43-0.148-0.845-0.148-1.293c0-0.208-0.031-0.422,0.066-0.611c0.103-0.202,0.164-0.209,0.176-0.447
		c0.024-0.458,0.025-1.142-0.186-1.544c-0.122-0.232-0.351-0.268-0.196-0.509c0.058-0.09,0.152-0.103,0.247-0.161
		c0.302-0.186,0.63-0.337,0.938-0.518c0.347-0.205,0.665-0.388,0.999-0.604c-0.002-0.587-0.276-0.986-0.57-1.452
		c-0.185-0.294-0.063-0.112,0.09-0.444c0.11-0.239-0.015-0.572,0.023-0.821c0.038-0.247,0.172-0.309,0.293-0.512
		c0.21-0.352-0.147-0.442-0.229-0.833c-0.087-0.408,0.13-0.178,0.292-0.478c0.085-0.159,0.063-0.522-0.11-0.604
		c0.256-0.165,0.786-0.454,0.501-0.813c0.128-0.193,0.436-0.251,0.619-0.394c-0.136-0.141-0.211-0.425-0.306-0.604
		c-0.06-0.112-0.101-0.218-0.133-0.324c-0.054-0.178-0.081-0.355-0.12-0.555c-0.039-0.199-0.226-0.382-0.244-0.567
		c-0.014-0.145,0.132-0.294,0.106-0.456c-0.014-0.088-0.093-0.209-0.152-0.273c-0.277-0.306-0.436-0.287-0.546-0.705
		c-0.067-0.253-0.102-0.356-0.351-0.501c-0.361-0.21-0.485,0.058-0.874,0.09c-0.11-0.281-0.282-0.559-0.44-0.817
		c-0.176-0.287-0.46-0.467-0.54-0.805c0.117-0.129,0.064-0.288-0.086-0.346c-0.138-0.053-0.274,0.086-0.4,0.08
		c-0.139-0.007-0.143-0.085-0.233-0.108c-0.301-0.079-0.582,0.117-0.88,0.089c-0.412-0.039-0.287-0.406-0.47-0.684
		c-0.099,0.023-0.209,0.062-0.285,0.133c-0.13-0.07-0.212-0.188-0.306-0.302c-0.189-0.229-0.204-0.228-0.5-0.252
		c-0.183-0.015-0.353-0.018-0.534-0.06c-0.096-0.023-0.26-0.121-0.361-0.108c-0.085,0.011-0.128,0.115-0.21,0.131
		c-0.328,0.065-1.392-0.154-1.356-0.664l0.027-1.453l-0.565-0.134l3.685-6.025l2.932-3.093c0.511-0.162,0.975-0.345,1.453-0.592
		c0.31-0.16,0.534-0.377,0.885-0.41c0.419-0.039,0.849-0.028,1.27-0.02c0.216,0.004,0.447,0.155,0.643,0.081
		c0.104-0.038,0.13-0.144,0.196-0.215c0.136-0.145,0.301-0.254,0.448-0.389c0.358-0.328,0.654-0.7,1.051-1.008
		c0.469-0.363,1.068-0.6,1.509-0.982c0.157-0.135,0.435-0.427,0.357-0.636l-0.323-7.262c0.308-0.231,0.685-0.277,0.722-0.693
		c0.032-0.345-0.186-0.934-0.324-1.246c-0.37-0.834-0.506-1.66-1.205-2.257c-0.039-0.337,0.1-0.783,0.161-1.114
		c0.087-0.472,0.453-0.82,0.485-1.288c0.026-0.392-0.283-0.903-0.551-1.191c-0.257-0.275-0.316-0.16-0.382-0.595
		c-0.053-0.345-0.175-0.641-0.245-0.978c-0.189-0.007-0.378,0.001-0.567,0.004c-0.852-2.77-1.594-5.59-2.572-8.322
		c-0.473-1.321-0.855-2.653-1.351-3.961c-0.307-0.81-0.464-1.677-0.464-2.567c0-0.39-0.002-0.781,0-1.171
		c0.003-0.64-0.249-0.675-0.896-0.689c-0.007-0.937,0.287-1.851,0.21-2.793c-0.023-0.281-0.038-0.377-0.229-0.559
		c-0.196-0.188-0.223-0.165-0.229-0.468c-0.01-0.572,0.025-1.148-0.002-1.72c-0.021-0.429-0.07-0.682-0.26-1.065
		c-0.165-0.334-0.402-0.649-0.543-0.991c-0.272-0.661,0.709-1.057,0.871-1.622c0.175-0.613-0.28-1.227-0.47-1.769
		c-0.24-0.684-0.06-1.735-0.591-2.215c-0.271-0.244-0.762-0.341-0.995-0.603c-0.242-0.272-0.181-0.753-0.378-1.06
		c-0.192-0.3-0.512-0.55-0.728-0.848c-0.186-0.259-0.368-0.344-0.678-0.421c-0.606-0.15-1.192-0.212-1.826-0.218
		c-0.084-0.212-0.03-0.533-0.138-0.71c-0.201-0.331-1.074-0.471-1.416-0.471v-0.699l-1.156,0.592l-0.915-0.619l0.296-0.833
		l-1.184-0.511l0.296-0.807l-2.905-0.726l-1.372,1.479l-25.768,1.345l-0.834-0.377l-2.662,0.081l-10.41-1.345l-1.103,0.188
		l-16.515-2.609c-0.208,0.1-0.507,0.313-0.619,0.531c-0.122,0.239-0.298,0.638-0.564,1.107c-0.178,0.313-0.294,0.698-0.532,0.969
		c-0.417,0.475-1.015,0.707-1.619,0.771c-0.495,0.052-0.958,0.029-1.411,0.267c-0.442,0.232-0.902,0.482-1.308,0.77
		c-0.283,0.201-0.611,0.386-0.922,0.544c-0.464,0.237-1.099,0.514-1.618,0.551c-0.37,0.027-0.967-0.072-1.179-0.431
		c-0.01-0.017,0-0.004-0.089-0.477c-0.038-0.202-0.081-0.426-0.118-0.722c-0.021-0.166-0.031-0.25-0.02-0.283
		c0.087-0.267,0.557-0.316,1.059-0.414c0.447-0.087,0.876-0.254,1.321-0.353c0.875-0.195,0.875-0.386,2.915-1.261
		c0,0,1.522-0.653,2.249-1.412c0.073-0.076,0.233-0.247,0.192-0.42c-0.019-0.084-0.086-0.167-0.172-0.195
		c-0.171-0.057-0.37,0.117-0.424,0.162c-0.029,0.024-0.989,0.55-2.909,1.603c-1.224,0.671-2.331,0.96-3.063,1.151
		c-0.231,0.06-0.746,0.163-1.769,0.366c-1.754,0.349-2.63,0.549-2.887,0.54c-1.165-0.036-2.381-0.293-3.512-0.54
		c-1.088-0.238-2.03-0.349-2.803-1.184c-0.398-0.43-0.469-0.421-1.133-0.585c-1.02-0.251-2.187-0.367-2.307-1.486
		c-0.115-1.075,0.26-2.231-0.079-3.275c-0.117-0.362-0.36-0.662-0.52-1.002c-0.166-0.351-0.242-0.739-0.283-1.122
		c-0.05-0.477-0.21-0.685-0.49-1.051c-0.261-0.342-0.367-0.489-0.41-0.887c-0.056-0.516-0.223-0.767-0.573-1.08
		c-0.146-0.13-0.32-0.238-0.441-0.394c-0.313-0.403-0.309-1.166-0.113-1.606c0.624-1.408-1.495-2.013-2.529-2.111
		c-1.442-0.137-2.985-0.171-4.418-0.006c-0.841,0.097-1.747,0.259-2.54,0.557c-0.478,0.179-0.953,0.313-1.457,0.391
		c-0.338,0.052-0.751,0.092-1.088,0.142c-0.694,0.102-1.671,0.272-2.324,0.564c-0.352,0.157-0.558,0.284-0.958,0.374
		c-0.936,0.212-1.847,0.45-2.786,0.558c-1.694,0.194-3.184,0.71-4.727,1.368c-0.925,0.395-1.751,0.655-2.55,1.3
		c-0.634,0.512-1.288,0.97-1.903,1.502c-0.719,0.622-1.455,0.973-2.312,1.376c-0.936,0.44-1.843,0.426-2.849,0.574
		c-1.016,0.149-1.845,0.25-2.676,0.865c-0.618,0.458-1.248,0.878-1.857,1.342c-0.524,0.399-0.125,0.168-0.032,0.513
		c0.049,0.181-0.08,0.325-0.233,0.442c-0.358,0.275-1.192-0.117-1.06,0.694c-0.519,0.818-1.645,1.718-1.552,2.746
		c0.046,0.504,0.393,0.81-0.182,1.074c-0.223,0.103-0.601-0.039-0.818,0.093c-0.112,0.068-0.154,0.219-0.217,0.255
		c-0.348,0.2-1.062,0.167-1.157,0.606c-0.117,0.539,0.518,0.825-0.056,1.186c-0.141,0.088-0.351-0.033-0.511,0.065
		c-0.138,0.085-0.222,0.38-0.332,0.436c-0.194,0.099-0.266-0.087-0.471-0.092c-0.624-0.012-1.271-0.067-1.895-0.013
		c-0.186,0.393-1.971,0.272-2.379,0.34c-1.152,0.192-2.146,0.86-3.301,1.16c-0.591,0.154-0.928,0.395-1.467,0.616
		c-0.637,0.262-1.354,0.335-2.007,0.549c-0.647,0.212-1.122,0.449-1.8,0.447c-0.629-0.002-1.172,0.035-1.782,0.209
		c-0.576,0.164-1.104,0.407-1.66,0.592c-0.575,0.191-1.22,0.156-1.788,0.37c-0.669,0.251-1.288,0.713-1.941,1.011
		c-0.521,0.238-1.06,0.365-1.577,0.614c-0.461,0.222-0.818,0.483-1.282,0.647c-0.304,0.107-0.584,0.275-0.875,0.432
		c-0.108,0.197-1.286,0.279-1.53,0.335c-0.593,0.136-1.02,0.432-1.535,0.73c-0.47,0.272-0.923,0.513-1.379,0.809
		c-0.592,0.385-1.273,0.335-1.903,0.625c-0.604,0.278-0.819,0.942-1.419,1.221c-0.499,0.232-1.084,0.304-1.606,0.466
		c-0.863,0.266-2.082,0.258-2.784-0.375c-0.097,0.283-0.506,0.231-0.649,0.475c-0.138,0.236,0.058,0.344,0.16,0.558
		c0.19,0.399,0.05,0.821,0.154,1.228c0.136,0.526,0.672,0.65,1.031,0.986c0.282,0.264,0.489,0.524,0.912,0.473
		c0.347-0.042,0.337-0.298,0.571-0.522c0.219-0.209,0.638-0.21,0.646-0.576c0.005-0.257-0.251-0.45-0.273-0.703
		c-0.06-0.661,0.496-0.582,0.953-0.508c-0.111,1.032,0.734,0.798,1.439,0.965c0.545,0.129,1.148,0.611,1.625,0.227
		c0,0.452-0.035,0.92,0.045,1.365c0.101-0.254,0.403-0.497,0.619-0.653c-0.099,0.422,0.099,0.921,0.103,1.346
		c0.002,0.201-0.057,0.885-0.319,0.95c-0.214,0.053-0.399-0.239-0.636-0.048c-0.152,0.123-0.206,0.508-0.276,0.68
		c-0.114,0.279-0.264,0.553-0.338,0.846c-0.078,0.311-0.07,0.637,0.057,0.93c0.097,0.224,0.21,0.263,0.432,0.359
		c0.363,0.155,0.981,0.38,1.018,0.807c0.032,0.369-0.303,0.545-0.341,0.855c-0.013,0.105,0.056,0.291,0.057,0.416
		c0.003,0.263-0.091,0.558-0.014,0.813c-0.346-0.125-0.519-0.51-0.713-0.795c-0.236-0.346-0.37-0.75-0.554-1.127
		c-0.167-0.343-0.403-0.829-0.781-0.949c-0.477-0.152-1.046-0.184-1.538-0.186c-0.352-0.206-0.621-0.63-0.819-0.976
		c-0.141-0.245-0.343-0.431-0.564-0.606c-0.189-0.149-0.469-0.409-0.69-0.497c-0.048,0.137-0.016,0.322-0.017,0.472
		c-0.001,0.281-0.03,0.559-0.015,0.841c-0.21-0.001-0.413,0.033-0.617-0.016c0.019,0.294,0.219,0.623,0.268,0.926
		c0.068,0.426,0.015,0.888,0.271,1.232c0.259,0.349,0.457,0.434,0.359,0.928c-0.113,0.572-0.372,1.133-0.28,1.738
		c0.041,0.27,0.228,0.526,0.323,0.765C9,54.296,9.013,54.627,9.144,54.836c0.466,0.747,0.456,1.604,0.725,2.443l0-0.002
		c0.079,0.314,0.214,0.633,0.322,0.938c0.113,0.321,0.088,0.669,0.218,0.979c0.215,0.513,0.121,1.049,0.188,1.594
		c0.047,0.383-0.062,1.073,0.306,1.318c0.28,0.186,0.374,0.003,0.42,0.354c0.039,0.293-0.077,0.504-0.174,0.768
		c-0.217,0.592-0.415,0.903-0.972,1.194c-0.303,0.158-0.325,0.383-0.368,0.734c-0.049,0.398,0.115,0.502,0.249,0.87
		c0.244,0.667-0.227,1.295-0.415,1.973c-0.171,0.621-0.109,1.25-0.602,1.719c-0.574,0.546-1.335,0.855-1.887,1.438
		C6.7,71.635,6.232,71.79,5.607,72.031c-0.044,0.763,0.132,1.643,0.246,2.39c0.102,0.668-0.203,1.173-0.498,1.76
		c0.283,0.157,0.593,0.202,0.893,0.305c0.507,0.174,0.673,0.199,0.964,0.549c0.302,0.365,0.344,0.681,0.756,0.948
		c0.399,0.259,0.87,0.208,1.311,0.388c0.31,1.233,1.459,2.391,2.39,3.196c0.256,0.221,0.508,0.463,0.784,0.656
		c0.359,0.251,0.737,0.288,1.122,0.466c0.485,0.223,0.976,0.717,1.2,1.195c0.325,0.695-0.531,1.076-0.433,1.79
		c0.091,0.664,0.741,0.896,0.358,1.548c-0.202,0.343-0.539,0.706-0.79,1.017c-0.209,0.259-0.539,0.313-0.72,0.546
		c-0.184,0.237-0.158,0.981-0.119,1.285c0.045,0.356,0.198,0.723,0.291,1.074c0.119,0.449,0.423,0.801,0.519,1.236
		c0.167,0.749-0.012,0.904,0.713,1.411c0.434,0.303,1.073,0.265,1.433,0.615c0.495,0.482,0.191,0.707,0.005,1.152
		c-0.171,0.407,0,0.831,0.146,1.21c0.121,0.312-0.237,0.704-0.282,1.04c-0.07,0.52,0.146,0.85,0.474,1.218
		c0.367,0.413,0.768,0.587,0.826,1.15c0.062,0.603-0.099,0.911-0.444,1.363c-0.027,0.035-0.052,0.069-0.081,0.106
		c-0.392,0.502-0.444,0.905-0.301,1.572c0.152,0.714-0.025,1.279-0.351,1.941c-0.382,0.774-2.364,1.798-1.607,2.737
		c0.208,0.258,0.774,0.268,0.917,0.524c0.134,0.239-0.033,0.759,0.04,1.019c0.021,0.074,0.181,0.152,0.206,0.287
		c0.036,0.198-0.142,0.234-0.121,0.418c0.029,0.246,0.316,0.461,0.362,0.705l1.264,1.466l0.243,1.829l-0.995,1.291l0.35,1.291
		l4.277,1.802c0.067,0.153,0.147,0.312,0.241,0.44c0.016,0.231-0.066,0.338-0.129,0.535c-0.055,0.175-0.059,0.294-0.059,0.501
		c0,0.2-0.031,0.427,0.058,0.616c0.07,0.147,0.226,0.238,0.266,0.409c0.089,0.38-0.223,0.635-0.05,1.021
		c0.212,0.473,0.454,0.942,0.722,1.386c0.2,0.331,0.541,0.76,0.505,1.133c-0.024,0.244-0.193,0.461-0.293,0.677
		c-0.169,0.368-0.299,0.736-0.389,1.132c-0.287,1.272,0.252,2.767-0.442,3.85c-0.183,0.285-0.229,0.638-0.38,0.939
		c-0.2,0.4-0.392,0.762-0.506,1.194c-0.076,0.287-0.072,0.717-0.2,0.983c-0.069,0.144-0.202,0.161-0.308,0.262
		c-0.133,0.127-0.132,0.145-0.177,0.363c-0.093,0.456-0.18,0.742-0.433,1.127c-0.084,0.127-0.185,0.279-0.287,0.386
		c-0.153,0.16-0.443,0.257-0.565,0.438c-0.08,0.117-0.121,0.451,0.037,0.571c0.178,0.134,0.909-0.049,1.153-0.049
		c0.514,0.006,1.537,0.877,1.996,0.365c0.109-0.122,0.07-0.207,0.041-0.351c-0.021-0.104-0.134-0.219-0.107-0.329
		c0.029-0.113,0.209-0.187,0.253-0.293c0.134-0.331-0.216-0.545-0.326-0.833c0.332-0.231,0.47-0.197,0.535-0.56
		c0.047-0.259,0.051-0.554,0.009-0.814c-0.092-0.574-0.205-0.405-0.602-0.137c-0.235-0.187-0.344-0.203-0.274-0.451
		c0.048-0.171,0.223-0.302,0.351-0.405c0.13-0.104,0.462-0.475,0.612-0.48c0.131-0.004,0.288,0.149,0.428,0.175
		c0.227-0.361,0.706-0.291,0.973-0.016c0.157,0.162,0.106,0.43,0.264,0.571c0.157,0.142,0.421,0.093,0.612,0.085
		c0.219-0.453-0.178-0.921,0.674-0.898c0.095,0.338,0.047,0.807,0.056,1.163c0.246,0.066,0.932-0.348,1.155-0.462
		c0.328,0.4,1.138,0.983,0.852,1.575c-0.087,0.179-0.163,0.198-0.186,0.403c-0.027,0.241,0.036,0.512,0.075,0.748
		c0.057,0.346,0.208,0.713,0.406,1.008c0.241,0.358,0.539,0.435,0.888,0.645c0.413,0.248,0.412,0.391,0.466,0.855
		c0.039,0.331-0.047,0.833,0.07,1.129c0.186,0.473,0.65,0.354,0.824-0.058c0.136-0.322-0.089-0.514,0.394-0.539
		c0.321-0.016,0.844-0.082,1.128,0.048c0.33,0.151,0.358,0.691,0.67,0.828c0.532,0.233,1.092,0.003,1.634,0.15
		c0.52,0.14,0.443,0.441,0.819,0.794c0.342,0.321,1.097,0.461,1.577,0.393c0.557-0.079,0.966-0.519,1.552-0.532
		c0.263,0.77,0.386,1.6,0.492,2.385c0.398-0.114,0.81-0.157,1.197-0.286c0.312-0.104,0.657-0.232,0.994-0.159
		c0.297,0.064,0.191-0.008,0.386,0.236c0.185,0.234,0.284,0.598,0.445,0.861c0.337,0.555,0.201,0.28-0.202,0.709
		c-0.22,0.235-0.216,0.201-0.022,0.44c0.297,0.367,0.265,0.091,0.485,0.052c0.298-0.053,0.153-0.137,0.524,0.158
		c0.388-0.497,0.214-1.359,1.079-1.527c0.81-0.157,1.221,1.063,1.866,1.001c0.054-0.422,0.286-0.798,0.378-1.203
		c0.603-0.01,1.299-0.028,1.883,0.105c0.59,0.135,0.87,0.661,1.211,1.121c0.242,0.326,1.033,1.03,0.796,1.429
		c-0.092,0.155-0.304,0.202-0.411,0.414c-0.088,0.173-0.142,0.375-0.227,0.555c-0.063-0.007-0.136,0.015-0.199,0.008
		c0.408,0.514-0.134,0.952-0.631,1.004c-0.605,0.063-0.622-0.114-0.917,0.483c-0.347,0.704-0.179,0.245-0.722,0.326
		c-0.146,0.669-1.185,1.131-1.218,1.854c0.336,0.137,0.708,0.263,0.991,0.496c0.326,0.268,0.268,0.729,0.549,1.028
		c0.168-0.109,0.065-0.299,0.189-0.428c0.154-0.16,0.608-0.112,0.791-0.077c0.282,0.054,0.303,0.106,0.391,0.319
		c0.174,0.419,0.319,0.937,0.37,1.391c0.374,0.057,0.779,0.075,1.158,0.074c0.389,0.702,0.878,1.4,1.442,1.976
		c0.465,0.474,0.712,0.819,0.81,1.487c0.111,0.761,0.106,1.639,0.643,2.268c0.176,0.206,0.453,0.378,0.699,0.489
		c0.189,0.085,0.382,0.157,0.575,0.234c0.238,0.094,0.406,0.239,0.626,0.36c0.266-0.226,0.659-0.427,0.815-0.765
		c0.113-0.246,0.053-0.245,0.325-0.406c0.214-0.127,0.574-0.235,0.717-0.436c0.114-0.161,0.261-0.637,0.266-0.829
		c0.321-0.195,0.589-0.538,0.946-0.71c0.369,0.755,0.878-0.524,1.057-0.623c0.199-0.11,0.532,0.042,0.747-0.003
		c0.319-0.068,0.454-0.304,0.682-0.512c0.08,0.276,0.151,0.578,0.288,0.83c0.217-0.108,0.484-0.225,0.634-0.419
		c-0.162-0.239-0.607-0.705-0.541-1.007c0.052-0.233,0.323-0.337,0.304-0.623c-0.04-0.62-0.965-0.836-1.38-1.026
		c0.307-1.015-0.421-1.874-1.173-2.426c-0.276-0.202-0.382-0.409-0.235-0.745c0.106-0.242,0.452-0.618,0.694-0.69
		c0.313-0.093,0.85,0.39,1.094,0.574c0.104,0.078,0.107,0.136,0.218,0.176c0.191,0.068,0.356-0.081,0.511-0.094
		c0.2-0.018,0.242-0.012,0.508,0.108c0.268,0.121,0.264,0.251,0.444,0.366c0.228,0.144,0.738,0.065,1.013,0.164
		c0.36,0.13,0.437,0.385,0.731,0.573c0.323,0.208,0.903-0.06,1.156,0.148c0.153,0.127,0.132,0.478,0.222,0.654
		c0.158,0.309,0.475,0.508,0.736,0.72c0.217,0.176,0.296,0.29,0.582,0.319c0.212,0.022,0.968-0.148,1.1,0.03
		c0.081,0.11-0.051,0.516-0.063,0.63c-0.033,0.304-0.04,0.742,0.111,1.017c0.066-0.339,0.792-0.568,1.098-0.52
		c0.391,0.063,0.207,0.328,0.214,0.677c0.292,0.148,0.548,0.228,0.764,0.046c0.179-0.15,0.175-0.285,0.424-0.325
		c0.362-0.058,0.721,0.02,1.088-0.075c0.208-0.053,0.634-0.336,0.845-0.277c0.226,0.063,0.252,0.402,0.539,0.433
		c0.269,0.029,0.65-0.258,0.835-0.405c0.484-0.384,0.405-0.883,0.763-1.312c0.293,0.112,0.715,0.226,0.951,0.453
		c0.234,0.225,0.145,0.556,0.07,0.846c-0.049,0.192-0.193,0.424-0.077,0.621c0.072,0.122,0.234,0.14,0.327,0.241
		c0.205,0.221,0.203,1.004,0.066,1.279c-0.149,0.298-0.389,0.064-0.662,0.176c-0.252,0.104-0.335,0.367-0.526,0.55
		c-0.224,0.215-0.563,0.31-0.86,0.349c-0.258,0.034-0.98-0.049-0.963,0.432c0.006,0.188,0.387,0.543,0.506,0.681
		c0.202,0.235,0.423,0.763,0.674,0.905c0-0.233-0.107-0.622,0.162-0.673c0.276-0.052,0.805,0.497,0.988,0.688
		c0.222,0.231,0.346,0.475,0.48,0.758c0.221,0.468,0.365,1.087,0.724,1.464c0.208,0.218,0.409,0.216,0.661,0.355
		c0.219,0.122,0.198,0.198,0.289,0.462c0.239,0.701,0.473,0.769,1.216,0.713c0.606-0.047,0.593-0.315,0.98-0.653
		c0.182-0.159,0.364-0.112,0.565-0.199c0.141-0.061,0.195-0.194,0.32-0.249c0.244-0.106,0.591,0.259,0.829,0.291
		c-0.011-0.281,0.089-0.752-0.172-0.857c-0.285-0.114-0.52,0.137-0.627-0.27c-0.183-0.701,0.657-0.863,1.149-0.627
		c0.457,0.219,0.677,0.684,0.779,1.153c0.042,0.191,0.081,0.467,0.157,0.643c0.099,0.228,0.155,0.183,0.452,0.26
		c0.051,0.133,0.16,0.257,0.248,0.378c0.147-0.399,0.316-0.545,0.761-0.434c0.344,0.087,0.25,0.191,0.367,0.472
		c0.095,0.228,0.057,0.141,0.395,0.176c0.206,0.021,0.472,0.043,0.634,0.193c0.202,0.186,0.126,0.442,0.259,0.668
		c0.06,0.102,0.168,0.176,0.234,0.276c0.07,0.109,0.098,0.358,0.183,0.436c0.245,0.226,0.751-0.181,0.977-0.301
		c0.072-0.038,0.091-0.119,0.169-0.143c0.198-0.061,0.531-0.005,0.737-0.015c0.257-0.012,0.512,0.013,0.77,0.013
		c0.19,0.38,0.909,0.939,1.329,1.001c0.299,0.044,0.539-0.005,0.607-0.258c0.034-0.127-0.045-0.276,0.01-0.401
		c0.049-0.112,0.213-0.201,0.294-0.293c0.41,0.229,0.328,1.09,0.388,1.501c0.057,0.389,0.239,0.34,0.415,0.597
		c0.09,0.132,0.054,0.298-0.009,0.445c-0.163,0.379-0.471,0.438-0.331,0.891c0.208,0.672,0.642,1.203,0.895,1.84
		c0.233,0.586,0.098,1.257,0.803,1.498c0.317,0.108,0.778,0.05,1.005,0.336c0.218,0.275,0.11,0.632,0.556,0.484
		c0.413-0.137,0.742-0.398,1.058,0.099c0.236,0.369,0.185,0.907,0.268,1.327c0.059,0.3,0.139,0.605,0.164,0.912
		c0.018,0.233-0.012,0.481,0.067,0.706c0.094,0.271,0.507,0.533,0.467,0.816c-0.037,0.267-0.526,0.708-0.079,0.74
		c0.59,0.042,1.718-0.088,2.141,0.421c0.41,0.493-0.125,1.22,0.223,1.744c0.174,0.261,0.251,0.284,0.192,0.59
		c-0.031,0.166-0.185,0.452-0.056,0.612c0.27,0.336,1.074,0.115,1.348-0.066c0.263-0.173,0.37-0.283,0.698-0.148
		c0.207,0.086,0.346,0.332,0.567,0.368c0.161,0.027,0.391-0.085,0.552-0.105c0.226-0.028,0.621,0.038,0.775-0.183
		c0.101-0.145,0.053-0.436,0.104-0.603c0.057-0.186,0.162-0.323,0.294-0.47c0.314-0.35,0.389-0.712,0.398-1.193
		c0.009-0.47,0.093-0.747,0.43-1.105c0.442-0.47,1.414-0.171,1.981-0.245c-0.067-0.301-0.01-0.893,0.254-1.09
		c0.348-0.261,0.852-0.321,1.208-0.581c0.146-0.106,0.485-0.68,0.632-0.635c0.111,0.034,0.156,0.336,0.201,0.414
		c0.072,0.124,0.179,0.255,0.299,0.34c0.249,0.175,0.666,0.267,0.805,0.546c0.163,0.328,0.121,0.84,0.255,1.201
		c0.08,0.216,0.233,0.44,0.277,0.666c0.045,0.232,0.072,0.495,0.141,0.734c0.242,0.852,0.774,0.725,1.485,0.969
		c-0.151,0.334-0.174,0.752-0.175,1.113c0.323,0.079,0.713-0.032,1.008,0.142c0.199,0.117,0.324,0.331,0.512,0.465
		c0.299-0.172,0.376-0.395,0.598-0.641c0.188-0.209,0.596-0.428,0.843-0.116c0.183,0.231,0.083,0.797,0.112,1.069
		c0.031,0.29,0.153,0.483,0.243,0.756c0.081,0.246,0.132,0.545,0.066,0.804c-0.065,0.255-0.422,0.52-0.338,0.806
		c0.049,0.167,0.32,0.194,0.332,0.385c0.014,0.209-0.214,0.218-0.329,0.296c-0.213,0.146-0.279,0.296-0.355,0.542
		c-0.081,0.26-0.248,0.594-0.263,0.861c-0.033,0.56,0.535,0.596,0.938,0.664c0.448,0.076,0.815,0.212,1.185-0.125
		c0.208-0.189,0.365-0.429,0.586-0.605c0.146-0.116,0.111-0.121,0.304-0.152c0.128-0.021,0.289,0.005,0.414,0.017
		c0.271,0.028,0.596,0.088,0.821,0.236c0.185,0.122,0.326,0.329,0.506,0.46c0.414,0.302,0.942,0.632,1.413,0.836
		c-0.017-0.802,0.157-1.408,0.372-2.178c0.158-0.566,0.315-1.218,0.674-1.694c0.099,0.068,0.192,0.143,0.31,0.175
		c0.068-0.443,0.705-0.849,0.952-1.186c0.407,0.028,0.753,0.137,1.178,0.102c0.187-0.015,0.878,0.021,0.994-0.098
		c0.117-0.118,0.033-0.654,0.033-0.807c0-0.262-0.006-0.524,0.002-0.786c0.418-0.011,0.572,0.148,0.908,0.325
		c0.067-0.432,0.668-0.122,0.908-0.295c0.203-0.147,0.027-0.408,0.186-0.554c0.267-0.248,0.946,0.084,1.18,0.226
		c0.246,0.149,0.416,0.25,0.716,0.273c0.223,0.308,0.572,0.541,0.897,0.737c0.253-0.345,0.541-0.989,1.01-1.058
		c0.231,0.249,0.51,0.345,0.799,0.167c0.244-0.15,0.399-0.275,0.698-0.278c0.293-0.002,0.556-0.024,0.695,0.228
		c0.115,0.209,0.108,0.487,0.216,0.702c0.166,0.331,0.433,0.783,0.718,0.962c0.156,0.098,0.38,0.335,0.543,0.376
		c0.187,0.046,0.402-0.146,0.592-0.079c0.426,0.149,0.484,0.892,0.788,1.152c0.384,0.328,1.354,0.211,1.613-0.191
		c0.227-0.353,0.242-0.775,0.52-1.099c0.254-0.296,0.664-0.405,0.946-0.679c0.229-0.223,0.21-0.315,0.081-0.586
		c-0.131-0.278-0.224-0.524-0.273-0.833c0.488-0.212,1.269,0.047,1.643-0.355c0.245,0.261,0.465,0.752,0.788,0.864
		c0.777,0.268,0.616-0.474,0.712-0.866c0.105-0.427,0.754-0.659,1.14-0.793c0.299-0.104,0.476-0.001,0.767,0.137
		c0.372,0.176,0.723,0.485,1.139,0.525c0.372,0.037,0.667,0.042,0.976,0.289c0.174,0.138,0.23,0.25,0.49,0.272
		c0.405,0.035,0.514-0.126,0.828-0.323c0.621,0.469,0.418-0.013,0.866-0.248c0.198-0.104,0.706-0.047,0.951-0.099
		c0.334-0.072,0.588-0.243,0.908-0.348c0.145,0.248,0.204,0.829,0.422,0.992c0.192,0.144,0.699,0.062,0.939,0.093
		c0.216,0.028,0.432,0.057,0.616,0.177c0.487,0.318,0.546,0.986,0.834,1.441c0.114-0.357,0.534-1.039,0.975-0.931
		c0.238,0.058,0.227,0.153,0.355,0.339c0.174,0.253,0.143,0.145,0.483,0.227c0.398,0.096,0.149,0.243,0.396,0.47
		c0.241,0.222,0.927-0.038,1.213,0.197c0.182,0.15,0.131,0.447,0.196,0.656c0.078,0.249,0.213,0.474,0.394,0.661
		c0.174,0.18,0.401,0.326,0.552,0.526c0.144,0.191,0.174,0.373,0.219,0.624c0.041,0.236-0.008,1.064,0.246,1.17
		c0.458,0.191,0.944,0.276,1.401,0.491c0.333,0.157,0.547,0.391,0.834,0.603c0.14,0.103,0.234,0.156,0.399,0.166
		c0.193,0.012,0.595-0.185,0.758-0.069c0.142,0.102,0.049,0.64,0.045,0.808c0.663,0.223,1.61,0.709,2.277,0.369
		c0.237-0.121,0.297-0.249,0.571-0.016c0.199,0.169,0.267,0.528,0.4,0.743c0.158,0.255,0.374,0.363,0.677,0.399
		c0.137,0.017,0.276-0.024,0.41,0.015c0.172,0.049,0.257,0.182,0.401,0.264c0.36,0.209,0.528,0.002,0.898-0.012
		c0.3-0.012,0.42,0.155,0.677,0.225c0.246-0.201,0.272-0.348,0.684-0.239c0.198,0.053,0.506,0.247,0.668,0.381
		c0.259,0.214,0.484,0.532,0.704,0.789c0.238,0.278,0.301,0.425,0.65,0.218c0.15-0.089,0.18-0.236,0.383-0.253
		c0.232-0.019,0.423,0.225,0.641,0.234c0.23,0.009,0.434-0.184,0.687-0.01c0.327,0.224,0.455,0.746,0.948,0.758
		c0.071,0.204,0.076,0.463,0.289,0.506c0.058,0.012,0.239-0.081,0.33-0.08c0.107,0.002,0.192,0.066,0.296,0.046
		c-0.11-0.457-0.255-0.988-0.324-1.464c-0.027-0.189-0.079-0.568-0.03-0.749c0.049-0.178,0.242-0.236,0.443-0.337
		c-0.442-0.174-0.763-0.305-1.158-0.591c-0.212-0.153-0.494-0.218-0.646-0.432c-0.169-0.237-0.075-0.522-0.129-0.785
		c-0.247-0.045-0.541-0.059-0.786-0.083c-0.134-0.249,0.147-0.422,0.019-0.693c-0.225,0.021-0.395,0.675-0.654,0.488
		c-0.057-0.041-0.045-0.199-0.042-0.26c0.027-0.484,0.52-0.679,0.515-1.15c-0.229-0.065-0.578-0.18-0.509-0.47
		c0.037-0.157,0.331-0.472,0.481-0.51v-3.792l-0.78-3.524h-0.673l-0.457-1.049l0.834-0.646l2.367-4.142l0.753-0.323l1.049-1.856
		l1.21-1.022l-0.027-1.156h0.672l1.803-2.851l2.313-2.77l0.054-0.538l1.183-0.941l0.027-0.672l3.47-3.309l2.205-1.452l1.13-1.668
		l0.968-0.323l0.269-1.372l1.883-0.887h3.631l1.372-2.636l0.592-4.169c-0.041-0.094-0.112-0.161-0.212-0.19
		c-0.013-0.332,0.037-0.749-0.093-1.051c-0.091-0.015-0.183-0.023-0.275-0.025c-0.107-0.41,0.157-0.925,0.089-1.346
		c-0.366,0.009-0.695-0.028-1.05-0.14c0.015-0.149-0.01-0.3,0.031-0.445c0.064-0.229,0.256-0.408,0.354-0.621
		c-0.342-0.094-0.676-0.124-0.997-0.292c-0.3-0.157-0.28-0.26-0.296-0.578c-0.013-0.286-0.064-0.662,0.102-0.904
		C192.928,137.883,193.236,137.836,193.447,137.655z"/>
</g>
</svg>
