<?xml version="1.0" encoding="utf-8"?>
<!-- Generator: Adobe Illustrator 26.0.3, SVG Export Plug-In . SVG Version: 6.00 Build 0)  -->
<svg version="1.1" id="Isolation_Mode" xmlns="http://www.w3.org/2000/svg" xmlns:xlink="http://www.w3.org/1999/xlink" x="0px"
	 y="0px" viewBox="0 0 200 200" enable-background="new 0 0 200 200" xml:space="preserve">
<g>
	<path fill="#1E8346" d="M147.821,26.353c-0.175-0.369-0.365-0.398-0.729-0.564c-0.213-0.097-0.32-0.211-0.435-0.41
		c-0.098-0.171-0.15-0.353-0.236-0.529c-0.088-0.18-0.206-0.245-0.365-0.363c-0.365-0.27-0.712-0.526-1.098-0.769
		c-0.218-0.137-0.453-0.249-0.662-0.394c-0.132-0.092-0.256-0.234-0.4-0.302c-0.182-0.085-0.452-0.052-0.66-0.055
		c-0.379-0.004-0.759,0-1.139,0c-0.265,0-0.537,0.002-0.763-0.13c-0.05-0.238-0.315-0.18-0.512-0.121
		c-0.32,0.095-0.271,0.278-0.41,0.525c-0.143,0.255-0.711,0.419-0.988,0.448c-0.548,0.058-1.077-0.489-1.38-0.855
		c-0.133-0.161-0.431-0.336-0.384-0.572c0.038-0.193,0.209-0.203,0.367-0.168c-0.017-0.306-0.096-0.665-0.15-0.981
		c-0.018-0.102-0.012-0.351-0.102-0.423c-0.116-0.094-0.278,0.057-0.334-0.104c-0.05-0.144,0.204-0.581,0.277-0.702
		c0.139-0.231,0.205-0.464,0.205-0.737c0-0.417,0.017-0.652,0.28-0.999c0.125-0.165,0.278-0.319,0.276-0.539
		c-0.003-0.22-0.14-0.416-0.107-0.651c0.036-0.259,0.189-0.553,0.295-0.795c0.069-0.156,0.35-0.485,0.279-0.662
		c-0.053-0.131-0.549-0.284-0.678-0.32c-0.283-0.079-0.585-0.016-0.857-0.093c-0.058-0.227,0.131-0.476,0.216-0.674
		c0.153-0.361,0.328-0.69,0.316-1.093c-0.008-0.273,0.001-0.659-0.161-0.889c-0.216-0.305-0.644-0.409-0.935-0.614
		c-0.205,0.169-0.164,0.474-0.385,0.638c-0.213,0.158-0.596,0.292-0.843,0.396c-0.44,0.184-0.957,0.138-1.425,0.138
		c-0.436,0-0.883,0.033-1.316-0.03c-0.44-0.064-0.697-0.118-0.902-0.52c-0.165-0.325-0.306-0.596-0.359-0.957
		c-0.023-0.159-0.009-0.263-0.136-0.364c-0.277-0.22-0.784-0.254-1.107-0.243c-0.116,0.242-0.092,0.651-0.118,0.917
		c-0.021,0.213,0.009,0.613-0.13,0.764c-0.16,0.173-0.646,0.178-0.874,0.128c-0.191-0.043-0.454-0.114-0.678-0.066
		c-0.154,0.033-0.131,0.113-0.244,0.172c-0.154,0.08-0.479,0.006-0.647-0.004c-0.313-0.019-0.772,0.059-1.063-0.102
		c-0.157-0.087-0.156-0.21-0.158-0.373c-0.002-0.177,0.009-0.352-0.023-0.527c-0.036-0.198-0.026-0.195-0.205-0.222
		c-0.321-0.05-0.509,0.013-0.724,0.223c-0.184,0.18-0.426,0.325-0.588,0.528c-0.469,0.023-0.945,0.096-1.417,0.139
		c-0.386,0.036-0.662,0.128-0.795-0.269c-0.16-0.475-0.211-0.662-0.689-0.881c-0.349-0.16-0.712-0.239-1.074-0.357
		c-0.152,0.151-0.396,0.515-0.607,0.575c-0.136,0.039-0.167-0.046-0.286-0.057c-0.21-0.019-0.312-0.057-0.433,0.161
		c-0.26,0.467-0.13,1.613,0.408,1.875c-0.09,0.465-0.271,0.866-0.52,1.273c-0.076,0.124-0.152,0.404-0.241,0.488
		c-0.237,0.223-0.8,0.32-1.1,0.465c-0.582,0.281-1.22,0.48-1.827,0.713c-0.57,0.219-1.037,0.415-1.668,0.351
		c-0.03-0.151-0.026-0.323-0.096-0.45c-0.359,0.263-0.708,0.363-1.004,0.723c-0.177,0.215-0.408,0.949-0.732,0.954
		c-0.059-0.201-0.123-0.418-0.161-0.627c-0.014-0.079,0.009-0.23-0.032-0.3c-0.055-0.092-0.096-0.045-0.159-0.113
		c-0.281-0.303-0.405-0.743-0.578-1.136c-0.271,0.065-0.674,0.125-0.951,0.08c-0.049-0.31,0.008-0.381-0.319-0.285
		c-0.123,0.036-0.28,0.075-0.325,0.181c-0.061,0.144,0.043,0.363-0.027,0.531c-0.056,0.135-0.164,0.251-0.226,0.386
		c-0.907,0.018-1.824,0.232-2.697,0.448c0.098-0.428,0.093-0.942,0.251-1.346c0.117-0.298,0.61-0.485,0.665-0.735
		c-0.232-0.082-0.534-0.033-0.781-0.033c-0.436,0-0.865-0.028-1.302-0.028c-0.234-0.23-0.653-0.528-0.958-0.701
		c-0.214-0.121-0.462-0.294-0.708-0.217c-0.201,0.064-0.335,0.238-0.555,0.292c-0.267,0.065-0.552,0.002-0.814,0.077
		c-0.287,0.082-0.5,0.353-0.764,0.497c-0.496,0.269-1.132,0.164-1.689,0.194c-0.076,0.357,0.057,0.548-0.248,0.787
		c-0.21,0.165-0.717,0.362-0.967,0.172c-0.216-0.165-0.074-0.967-0.053-1.229c0.047-0.589,0.363-1.255-0.147-1.724
		c-0.314,0.513-0.556,1.131-0.741,1.705c-0.159,0.493-0.298,0.539-0.838,0.536c-0.223-0.001-0.535-0.15-0.728-0.057
		c-0.176,0.085-0.307,0.391-0.428,0.541c-0.276,0.343-0.513,0.825-0.573,1.267c-0.312,0.121-0.755-0.169-1.052,0.001
		c-0.1,0.057-0.157,0.205-0.23,0.292c-0.175,0.207-0.348,0.286-0.613,0.341c-0.593,0.125-1.318,0.137-1.919,0.07
		c-0.395-0.044-0.452-0.132-0.496-0.507c-0.05-0.433,0.031-0.881-0.025-1.31c-0.014-0.11-0.09-0.41-0.198-0.638
		c-0.069-0.145-0.152-0.261-0.242-0.279c-0.191-0.038-0.661,0.431-0.828,0.478c-0.034-0.546-0.293-1.083-0.265-1.632
		c0.024-0.462,0.535-0.835,0.806-1.201c0.313-0.423,0.327-0.846,0.53-1.299c0.001-0.003,0.002-0.005,0.004-0.008
		c0.201-0.447,0.728-0.402,1.036-0.74c0.122-0.134,0.175-0.305,0.339-0.399c0.106-0.061,0.28-0.064,0.402-0.107
		c0.314-0.11,0.612-0.191,0.668-0.514c0.067-0.381-0.136-0.865-0.221-1.227c-0.103-0.437-0.232-0.67-0.587-0.917
		c-0.322-0.224-0.57-0.147-0.963-0.112c-0.279,0.025-0.46,0.156-0.678,0.257c-0.071,0.033-0.145,0.062-0.228,0.084
		c-0.204-0.541-0.126-1.309-0.191-1.879c-0.057-0.491-0.027-0.931-0.403-1.287c-0.209,0.12-0.283,0.384-0.456,0.537
		C89.95,5.383,89.901,5.32,89.632,5.22c-0.372-0.137-0.306-0.043-0.451,0.272c-0.15,0.325-0.203,0.201-0.504,0.254
		c-0.292,0.051-0.401,0.315-0.599,0.476c-0.218,0.177-0.368,0.128-0.619,0.165c-0.349,0.051-0.248,0.116-0.315,0.391
		c-0.056,0.229-0.172,0.407-0.417,0.527c-0.128-0.08-0.535-0.215-0.714-0.17c-0.132,0.034-0.148,0.115-0.259,0.184
		c-0.304,0.189-0.415,0.146-0.858,0.18c-0.22,0.016-0.33,0.041-0.503,0.139c-0.089,0.05-0.055,0.156-0.177,0.169
		c-0.229,0.025-0.241-0.269-0.382-0.348c-0.159-0.09-0.517,0.002-0.693,0.014c-0.298,0.021-0.597,0.041-0.894,0.069
		c-0.287,0.026-0.693,0.012-0.888,0.18c-0.128,0.11-0.132,0.303-0.248,0.415c-0.156,0.152-0.576,0.306-0.787,0.359
		c-0.363,0.092-0.737,0.053-1.111,0.067c-0.2,0.008-0.604-0.037-0.793,0.038c-0.77,0.304-0.681,0.993-0.951,1.599
		c-0.241,0.54-0.73,0.8-1.241,1.069c-0.517,0.272-1.211,0.433-1.243,1.106c-0.037,0.753-0.337,0.867-0.991,1.195
		c-0.487,0.244-0.856,0.447-1.211,0.843c-0.499,0.557-0.77,1.226-1.553,1.35c-0.019,0.244,0.092,0.492,0.053,0.74
		c-0.036,0.23-0.079,0.464-0.091,0.697c-0.018,0.344,0.189,0.477,0.275,0.776c0.106,0.369-0.122,0.793-0.177,1.161
		c-0.119,0.784-0.093,1.479,0.268,2.199c0.154,0.307,0.432,0.622,0.49,0.953c0.049,0.283,0.106,0.39,0.311,0.605
		c0.311,0.325,0.307,0.915,0.428,1.35c0.112,0.403,0.375,0.715,0.353,1.156c-0.017,0.329-0.004,0.595,0.112,0.901
		c0.099,0.259,0.219,0.494,0.253,0.772c0.046,0.374,0.089,0.743,0.141,1.117c0.061,0.441-0.03,0.861-0.023,1.304
		c0.007,0.43,0.219,0.73,0.37,1.114c0.153,0.39,0.155,0.815,0.068,1.231c-0.086,0.416-0.219,0.826-0.24,1.253
		c-0.032,0.648,0.31,1.36,0.683,1.876c0.414,0.573,0.539,1.023,0.538,1.723c0,0.273,0.001,0.526,0.056,0.794
		c0.057,0.275,0.238,0.52,0.277,0.786c0.047,0.314-0.004,0.628,0.027,0.944c0.046,0.461,0.372,0.818,0.418,1.282
		c0.043,0.431,0.104,0.76,0.341,1.14c0.119,0.191,0.288,0.355,0.398,0.55c0.129,0.229,0.18,0.49,0.298,0.724
		c0.575,1.129,0.576,2.418,0.63,3.673c0.012,0.266,0.046,0.517,0.139,0.769c0.146,0.397,0.176,0.646,0.139,1.065
		c-0.043,0.503-0.121,0.962-0.202,1.462c-0.123,0.758-0.128,1.551-0.302,2.301c-0.186,0.8-0.51,1.562-0.775,2.336
		c-0.142,0.414-0.13,0.786-0.191,1.175c-0.024,0.151-0.058,0.304-0.117,0.463c-0.005,0.012-0.008,0.024-0.012,0.036
		c-0.091,0.25-0.163,0.51-0.232,0.769c-0.044,0.167-0.087,0.334-0.132,0.497c-0.002,0.005-0.003,0.011-0.005,0.016
		c-0.153,0.556-0.323,1.126-0.449,1.688c-0.114,0.511-0.26,1.019-0.397,1.528c-0.047,0.177-0.092,0.353-0.136,0.53
		c-0.039,0.163-0.077,0.326-0.11,0.489c-0.014,0.068-0.02,0.132-0.021,0.194c-0.004,0.156,0.026,0.3,0.064,0.452
		c0.012,0.045,0.023,0.09,0.035,0.137c0.081,0.315-0.011,0.436-0.144,0.752c-0.135,0.321-0.062,0.648-0.151,0.976
		c-0.072,0.267-0.271,0.588-0.229,0.872c0.096,0.652-0.121,1.275-0.333,1.871c-0.178,0.499-0.351,1.01-0.505,1.524
		c-0.083,0.276-0.16,0.554-0.229,0.831c-0.013,0.052-0.026,0.103-0.039,0.155c-0.193,0.81-0.325,1.641-0.504,2.453
		c-0.01,0.046-0.021,0.093-0.031,0.138c-0.004,0.02-0.009,0.039-0.013,0.059c-0.054,0.23-0.133,0.449-0.215,0.665
		c-0.01,0.026-0.02,0.052-0.03,0.078c-0.061,0.162-0.123,0.323-0.177,0.489c-0.011,0.036-0.023,0.073-0.034,0.109
		c-0.006,0.021-0.01,0.042-0.014,0.063c-0.061,0.275-0.012,0.586-0.112,0.842c-0.005,0.014-0.009,0.028-0.015,0.042
		c-0.015,0.031-0.027,0.065-0.041,0.097c-0.091,0.206-0.169,0.424-0.242,0.65c-0.014,0.046-0.03,0.092-0.044,0.139
		c-0.032,0.105-0.064,0.21-0.094,0.316c-0.013,0.046-0.027,0.092-0.04,0.139c-0.11,0.382-0.218,0.758-0.353,1.089
		c-0.07,0.172-0.138,0.346-0.205,0.519c-0.021,0.054-0.042,0.108-0.063,0.162c-0.033,0.085-0.067,0.17-0.1,0.256
		c-0.024,0.062-0.049,0.124-0.073,0.186c-0.062,0.155-0.125,0.31-0.192,0.464c-0.133,0.305-0.389,0.678-0.436,1.008
		c-0.018,0.124,0.001,0.23,0.043,0.323c0.023,0.05,0.054,0.095,0.089,0.138c0.098,0.122,0.237,0.223,0.383,0.322
		c0.067,0.046,0.136,0.091,0.202,0.139c0.161,0.115,0.307,0.24,0.386,0.403c0.258,0.535,0.268,1.03,0.159,1.618
		c-0.098,0.526-0.268,1.622-0.677,1.946c0.071,0.916-0.697,1.794-1,2.594c-0.617,1.63-0.888,3.402-1.678,4.976
		c-0.201,0.401-0.447,0.747-0.57,1.184c-0.131,0.467-0.18,0.924-0.346,1.379c-0.009,0.025-0.017,0.05-0.027,0.075
		c-0.03,0.077-0.062,0.152-0.094,0.225c-0.043,0.099-0.088,0.197-0.132,0.293c-0.012,0.026-0.024,0.052-0.036,0.078
		c-0.071,0.156-0.14,0.311-0.201,0.473c-0.017,0.046-0.033,0.093-0.049,0.14c-0.033,0.099-0.064,0.201-0.089,0.309
		c-0.044,0.192-0.082,0.387-0.117,0.582c-0.008,0.046-0.016,0.092-0.025,0.138c-0.037,0.216-0.073,0.433-0.111,0.65
		c-0.008,0.046-0.016,0.092-0.025,0.138c-0.019,0.105-0.039,0.211-0.061,0.316c-0.01,0.046-0.02,0.092-0.03,0.138
		c-0.068,0.307-0.151,0.611-0.266,0.907c-0.12,0.311-0.278,0.59-0.408,0.879c-0.052,0.116-0.1,0.234-0.139,0.356
		c-0.042,0.132-0.073,0.267-0.088,0.412c-0.021,0.211-0.04,0.315,0.027,0.523c0.014,0.043,0.036,0.07,0.061,0.092
		c0.068,0.06,0.154,0.076,0.133,0.245c-0.014,0.116-0.065,0.252-0.133,0.393c-0.032,0.066-0.069,0.134-0.107,0.201
		c-0.027,0.046-0.054,0.093-0.082,0.138c-0.019,0.031-0.037,0.061-0.056,0.091c-0.047,0.075-0.094,0.147-0.139,0.213
		c-0.049,0.074-0.095,0.142-0.133,0.199c-0.365,0.553-0.748,1.056-1.188,1.545c-0.048,0.053-0.095,0.107-0.145,0.16
		c-0.232,0.251-0.462,0.486-0.686,0.721c-0.031,0.032-0.061,0.064-0.092,0.096c-0.188,0.199-0.37,0.4-0.546,0.61
		c-0.099,0.118-0.196,0.241-0.29,0.367c-0.115,0.155-0.227,0.314-0.333,0.486c-0.402,0.653-0.955,1.106-1.466,1.631
		c-0.112,0.116-0.223,0.235-0.329,0.361c-0.011,0.014-0.023,0.027-0.035,0.041c-0.153,0.185-0.308,0.353-0.471,0.507
		c-0.131,0.125-0.269,0.238-0.414,0.339c-0.242,0.169-0.505,0.306-0.81,0.402c-0.362,0.114-0.731,0.243-1.119,0.209
		c-0.189-0.017-0.721-0.283-0.818,0.075c-0.092,0.342,0.776,0.698,0.932,0.925c0.146,0.212,0.175,0.502,0.27,0.735
		c0.113,0.277,0.28,0.482,0.433,0.738c0.289,0.481,0.304,1.012,0.299,1.583c-0.004,0.382-0.072,0.647-0.251,0.988
		c-0.35,0.667-0.495,1.148-0.65,1.865c-0.149,0.692-0.453,1.409-0.838,2.035c-0.133,0.216-0.275,0.422-0.424,0.612
		c-0.029,0.037-0.057,0.073-0.086,0.108c-0.373,0.453-0.371,0.621-0.299,1.088c0.008,0.052,0.017,0.107,0.026,0.168
		c0.013,0.086,0.024,0.172,0.034,0.258c0.027,0.235,0.045,0.468,0.076,0.696c0.039,0.279-0.179,0.428-0.268,0.689
		c-0.196,0.582-0.286,0.833-0.179,1.398c0.002,0.012,0.004,0.023,0.007,0.036c0.027,0.135,0.051,0.264,0.072,0.389
		c0.063,0.367,0.101,0.694,0.106,1.006c0.005,0.305-0.022,0.596-0.088,0.897c-0.076,0.35-0.205,0.715-0.399,1.132
		c-0.299,0.643-0.442,1.357-0.628,2.061c-0.047,0.177-0.097,0.354-0.152,0.528c-0.076,0.241-0.163,0.477-0.269,0.707
		c-0.005,0.012-0.01,0.023-0.016,0.035c-0.061,0.13-0.148,0.25-0.227,0.372c-0.138,0.21-0.255,0.424-0.187,0.697
		c0.133,0.531,0.49,0.508,0.466,1.199c-0.016,0.49-0.119,0.905,0.084,1.273c0.259,0.472,0.735,0.859,1.286,0.827
		c0.48-0.027,0.813-0.408,1.303-0.396c0.069,0.002,0.133,0.012,0.195,0.027c0.479,0.119,0.756,0.603,1.264,0.755
		c0.046,0.014,0.09,0.024,0.131,0.033c0.348,0.072,0.507-0.039,0.737-0.187c0.037-0.023,0.075-0.048,0.117-0.073
		c0.099-0.059,0.193-0.107,0.284-0.15c0.413-0.193,0.769-0.239,1.298-0.295c0.678-0.073,1.407-0.11,2.099-0.251
		c0.176-0.036,0.349-0.081,0.518-0.133c0.065-0.02,0.13-0.038,0.193-0.06c0.141-0.05,0.278-0.114,0.409-0.187
		c0.132-0.073,0.259-0.156,0.378-0.249c0.401-0.314,0.723-0.733,0.92-1.206c0.054-0.129,0.099-0.262,0.133-0.398
		c0.005-0.023,0.013-0.045,0.018-0.068c0.063-0.28,0.053-0.552,0.051-0.819c-0.002-0.142,0-0.282,0.014-0.42
		c0.021-0.198,0.069-0.393,0.182-0.587c0.251-0.431,0.696-0.807,1.018-1.184c0.006-0.007,0.011-0.014,0.017-0.021
		c0.103-0.125,0.173-0.255,0.225-0.389c0.086-0.223,0.123-0.459,0.179-0.713c0.007-0.035,0.016-0.071,0.024-0.107
		c0.025-0.104,0.054-0.202,0.083-0.3c0.032-0.112,0.064-0.223,0.089-0.34c0.041-0.198,0.088-0.617,0.218-0.746
		c0.19,0.295,0.258,0.78,0.166,1.141c-0.024,0.094-0.059,0.18-0.106,0.252c-0.035,0.055-0.064,0.101-0.09,0.144
		c-0.265,0.44-0.052,0.357,0.405,0.606c0.101,0.055,0.174,0.128,0.231,0.21c0.09,0.13,0.143,0.284,0.203,0.44
		c0.027,0.068,0.055,0.136,0.089,0.202c0.202,0.392,0.486,0.405,0.801,0.631c0.42,0.302,0.568,0.967,0.616,1.535
		c0.013,0.151,0.018,0.295,0.021,0.424c-0.024-0.004-0.047-0.008-0.071-0.012c-0.127-0.105-0.299-0.122-0.495-0.082
		c-0.405,0.083-0.908,0.407-1.301,0.672c-0.199,0.133-0.37,0.251-0.487,0.315c-0.01,0.005-0.02,0.011-0.03,0.017
		c-0.585,0.324-1.299,0.859-1.007,1.601c0.143,0,0.293,0.039,0.429-0.001c0.244-0.072,0.434-0.299,0.684-0.36
		c0.228-0.057,0.507-0.014,0.742-0.014c0.267,0,0.409,0.014,0.651,0.112c0.008,0.147,0.021,0.321-0.101,0.434
		c-0.153,0.142-0.467,0.103-0.66,0.095c-0.214-0.009-0.383-0.034-0.53,0.153c-0.143,0.182-0.138,0.406-0.391,0.471
		c-0.235,0.061-0.233,0.028-0.33,0.25c-0.009,0.021-0.017,0.049-0.027,0.076c-0.018,0.047-0.042,0.089-0.096,0.078
		c-0.055-0.011-0.094-0.113-0.126-0.239c-0.049-0.191-0.085-0.437-0.143-0.509c-0.064-0.079-0.25-0.178-0.358-0.147
		c-0.1,0.029-0.108,0.11-0.119,0.193c-0.004,0.028-0.008,0.056-0.016,0.082c-0.047,0.153-0.154,0.21-0.274,0.25
		c-0.12,0.04-0.254,0.063-0.356,0.147c0.113,0.189,0.323,0.28,0.435,0.478c0.032,0.057,0.044,0.122,0.05,0.189
		c0.012,0.145-0.01,0.3,0.06,0.406c0.054,0.083,0.193,0.082,0.271,0.137c0.094,0.065,0.134,0.146,0.16,0.263
		c0.008,0.036,0.014,0.074,0.019,0.111c0.031,0.225,0.017,0.473,0.009,0.694c-0.248-0.096-0.385-0.385-0.492-0.611
		c-0.066-0.14-0.111-0.371-0.191-0.569c-0.075-0.186-0.18-0.343-0.364-0.366c-0.036-0.004-0.073,0.002-0.11,0.012
		c-0.079,0.023-0.158,0.072-0.223,0.111c-0.127,0.075-0.162,0.186-0.274,0.274c-0.141,0.11-0.231,0.056-0.371-0.032
		c-0.186-0.117-0.416-0.186-0.567-0.352c0.153-0.077,0.711-0.077,0.743-0.238c-0.407-0.121-0.694-0.159-0.799-0.584
		c-0.032-0.13-0.032-0.262-0.041-0.394c-0.003-0.045-0.007-0.091-0.015-0.136c-0.009-0.061-0.031-0.114-0.021-0.173
		c-0.098-0.003-0.183,0.021-0.264,0.057c-0.185,0.079-0.343,0.218-0.549,0.251c-0.465,0.074-0.951,0.027-1.421,0.094
		c-0.348,0.05-0.649,0.149-0.868,0.433c-0.011,0.176,0.168,0.417,0.339,0.631c0.1,0.125,0.196,0.242,0.25,0.332
		c0.152,0.252,0.249,0.506,0.352,0.768c0.039,0.098,0.078,0.198,0.122,0.299c0.131,0.303,0.245,0.61,0.349,0.918
		c0.083,0.246,0.16,0.493,0.232,0.742c0.07,0.24,0.138,0.481,0.203,0.724c0.148,0.544,0.232,1.005,0.156,1.584
		c-0.046,0.347-0.01,0.735-0.185,1.043c-0.315,0.553-0.773,0.998-0.817,1.679c-0.013,0.201-0.333,0.526-0.021,0.681
		c0.173,0.086,0.436-0.151,0.557-0.243c0.508-0.384,0.568-0.539,1.227-0.539c0.487,0,0.915-0.05,1.386-0.119
		c0.568-0.084,1.094,0.008,1.571-0.364c0.177-0.138,0.322-0.348,0.526-0.44c0.186-0.083,0.335-0.024,0.524-0.163
		c0.086-0.063,0.15-0.149,0.206-0.241c0.077-0.126,0.142-0.263,0.231-0.378c0.053-0.068,0.114-0.128,0.192-0.172
		c0.224-0.126,0.412-0.129,0.587-0.118c0.231,0.014,0.438,0.053,0.673-0.136c0.063-0.05,0.127-0.117,0.195-0.205
		c0.331-0.43,0.568-0.768,1.173-0.78c0.67-0.014,1.587,0.399,2.025,0.89c0.272,0.304,0.536,0.501,0.974,0.401
		c0.244-0.055,0.531-0.237,0.457-0.541c-0.035-0.145-0.206-0.172-0.302-0.289c-0.099-0.12-0.057-0.157-0.105-0.274
		c-0.005-0.011-0.009-0.022-0.015-0.035c-0.107-0.214-0.204-0.378-0.21-0.556c-0.004-0.12,0.034-0.246,0.138-0.398
		c0.343,0.018,0.435,0.243,0.722,0.158c0.031-0.009,0.063-0.02,0.098-0.037c0.123-0.058,0.231-0.156,0.341-0.25
		c0.071-0.06,0.143-0.118,0.221-0.162c0.062,0.099,0.116,0.211,0.163,0.33c0.067,0.169,0.121,0.353,0.166,0.544
		c0.054,0.225,0.095,0.456,0.13,0.676c0.025,0.159,0.048,0.311,0.069,0.45c0.003,0.019,0.006,0.038,0.009,0.057
		c0.053,0.337,0.113,0.671,0.166,1.003c0.027,0.17,0.031,0.438,0.141,0.585c0.168,0.224,0.612,0.279,0.88,0.533
		c0.409,0.389,0.677,0.984,1.246,1.147c-0.756,0.053-1.447-0.479-2.183-0.562c-0.209-0.023-0.411,0.004-0.611,0.052
		c-0.236,0.056-0.469,0.139-0.706,0.198c-0.13,0.032-0.261,0.058-0.394,0.068c-0.083-0.093-0.133-0.194-0.175-0.298
		c-0.077-0.187-0.134-0.382-0.334-0.54c-0.073-0.058-0.122-0.111-0.181-0.155c-0.046-0.034-0.097-0.062-0.172-0.08
		c0,0,0.002,0.004,0.002,0.006c0.042,0.144,0.128,0.349,0.206,0.571c0.088,0.252,0.164,0.526,0.154,0.764
		c-0.006,0.159-0.051,0.301-0.158,0.408c-0.005,0.005-0.009,0.011-0.014,0.016c-0.013-0.011-0.024-0.023-0.036-0.037
		c-0.102-0.122-0.143-0.348-0.189-0.553c-0.023-0.104-0.048-0.202-0.083-0.279c-0.091-0.203-0.199-0.407-0.318-0.6
		c-0.075-0.121-0.153-0.238-0.237-0.346c-0.109-0.139-0.258-0.291-0.43-0.442c-0.504-0.445-1.211-0.893-1.713-1.051
		c0.039,0.102,0.098,0.2,0.168,0.295c0.301,0.408,0.843,0.766,1.248,1.105c0.093,0.078,0.18,0.155,0.254,0.232
		c0.258,0.268,0.442,0.557,0.594,0.862c0.096,0.192,0.18,0.391,0.262,0.594c0.095,0.234,0.187,0.473,0.294,0.716
		c0.408,0.925,0.601,2.007,0.743,3.013c0.155,1.096,0.086,2.254-0.002,3.349c-0.046,0.57-0.092,1.139-0.142,1.707
		c-0.049,0.563-0.211,1.111-0.266,1.667c-0.02,0.197-0.032,0.431,0.11,0.584c-0.144-0.089-0.246-0.255-0.412-0.28
		c-0.471,1.16-0.685,2.432-1.136,3.601c-0.131,0.339-0.312,0.745-0.573,1.019c-0.279,0.293-0.759,0.361-0.524,0.862
		c0.401,0.856,1.595,0.631,2.147,1.31c0.518,0.637,0.353,1.968,0.351,2.736c-0.002,0.674,0.375,2.483-0.371,2.852
		c-0.049,0.4,0.196,0.719,0.378,1.044c0.253,0.454,0.238,0.539,0.139,1.009c-0.082,0.387,0.02,0.797-0.088,1.174
		c-0.111,0.391-0.36,0.793-0.54,1.16c-0.173,0.353-0.251,0.492-0.184,0.923c0.028,0.18,0.085,0.375,0.102,0.549
		c0.032,0.345-0.04,0.679,0.114,0.999c0.289,0.598,0.669,1.07,0.706,1.763c0.016,0.296,0.027,0.615,0.003,0.91
		c-0.023,0.297-0.441,1.345-0.297,1.446c-0.085,0.261-0.031,0.559-0.087,0.83c-0.072,0.342-0.164,0.691-0.263,1.026
		c-0.137,0.459-0.283,0.77-0.596,1.125c-0.371,0.421-0.211,0.576-0.314,1.073c-0.1,0.483-0.59,0.637-0.851,1.026
		c-0.403,0.601,0.002,1.013,0.035,1.636c0.037,0.709,0.005,1.377-0.39,1.979c-0.31,0.473-0.979,1.074-0.838,1.631
		c0.066,0.259,0.134,0.202,0.111,0.455c-0.015,0.162-0.141,0.366-0.183,0.53c-0.095,0.369-0.193,0.679-0.416,0.998
		c-0.295,0.421-0.912,0.633-0.993,1.142c-0.047,0.299,0.002,0.533-0.143,0.806c-0.099,0.185-0.295,0.329-0.397,0.508
		c-0.128,0.227-0.069,0.321-0.125,0.554c-0.047,0.199-0.215,0.346-0.246,0.562c0.284-0.014,0.566-0.059,0.851-0.045
		c0.125,0.316,0.343,0.835,0.73,0.816c0.339-0.017,0.351-0.403,0.595-0.601c0.128-0.103,0.352-0.117,0.465-0.207
		c0.088-0.071,0.092-0.175,0.169-0.26c0.116-0.127,0.152-0.253,0.318-0.362c0.253-0.166,0.427-0.029,0.805-0.051
		c-0.032-0.134-0.054-0.275-0.056-0.412c0.472-0.116,0.899-0.333,1.391-0.333c0.347,0,0.611,0.115,0.946,0
		c0.503-0.173,0.893-0.398,1.448-0.482c0.297-0.045,0.592-0.081,0.9-0.111c0.186-0.018,0.628,0.04,0.786-0.035
		c0.437-0.208,0.104-0.945,0.67-1.156c0.531-0.198,1.295-0.037,1.857,0.008c0.589,0.047,1.312-0.066,1.795,0.293
		c0.318,0.237,0.849,0.282,1.225,0.407c0.475,0.158,0.958,0.175,1.461,0.15c0.659-0.033,1.304-0.39,1.953-0.278
		c0.264,0.045,0.532,0.139,0.769,0.266c0.256,0.137,0.507,0.459,0.783,0.548c0.441,0.142,0.948-0.032,1.342-0.208
		c0.647-0.288,1.416-0.522,2.137-0.441c0.177,0.02,0.372,0.066,0.576,0.128c0.658,0.201,1.401,0.581,1.877,0.862
		c0.477,0.281,0.798,0.706,1.222,1.041c0.774,0.609,1.631,1.141,2.436,1.703c0.601,0.419,1.27,0.747,1.926,1.057
		c0.21,0.1,0.557,0.188,0.764,0.019c0.297-0.242-0.027-0.41-0.116-0.734c0.295-0.043,0.328-0.392,0.531-0.568
		c0.258-0.223,0.705-0.329,1.033-0.403c0.342-0.077,0.604-0.087,0.861-0.357c0.271-0.285,0.532-0.453,0.918-0.593
		c0.76-0.276,1.364-0.853,2.053-1.268c0.499-0.3,1.007-0.612,1.47-0.964c0.238-0.181,0.309-0.382,0.49-0.598
		c0.196-0.234,0.511-0.409,0.742-0.608c0.439-0.377,0.854-0.396,1.37-0.634c0.547-0.252,0.641-0.719,1.318-0.825
		c1.038-0.162,2.344-0.233,3.276,0.298c0.071-0.183-0.241-0.558-0.334-0.769c-0.139-0.316-0.209-0.691-0.224-1.041
		c-0.019-0.439,0.022-0.67-0.26-1.042c-0.312-0.412-0.184-0.376,0.048-0.859c0.218-0.453,0.161-0.529-0.117-0.918
		c-0.25-0.35-0.431-0.789-0.487-1.211c-0.11-0.841-0.053-1.635,0.112-2.469c-0.187-0.302-0.513-0.465-0.712-0.753
		c0.111-0.086,0.246-0.203,0.378-0.243c-0.276-0.43-0.176-0.939-0.304-1.415c-0.058-0.214-0.229-0.372-0.232-0.621
		c-0.002-0.127,0.129-0.251,0.087-0.382c-0.04-0.123-0.354-0.322-0.441-0.431c-0.048-0.06-0.15-0.146-0.184-0.215
		c-0.083-0.172-0.003-0.449-0.094-0.591c-0.096-0.149-0.314-0.086-0.435-0.198c-0.153-0.141-0.137-0.209-0.169-0.419
		c-0.038-0.255-0.224-0.533-0.237-0.745c0.137,0.001,0.274,0.004,0.411,0.002c-0.134-0.157-0.227-0.36-0.25-0.569
		c0.457-0.124,0.367-0.856,0.522-1.212c0.347,0.033,0.143-0.408,0.289-0.592c0.147-0.185,0.336-0.076,0.445-0.322
		c0.083-0.186,0.004-0.424,0.116-0.619c0.079,0.029,0.178-0.009,0.248,0.009c0.003-0.099,0.072-0.217,0.083-0.313
		c0.064,0.008,0.143-0.03,0.208-0.022c0.079-0.309-0.236-0.578-0.21-0.922c0.023-0.297,0.114-0.733,0.236-1.011
		c0.12-0.273,0.258-0.65,0.395-0.901c0.073-0.133,0.244-0.211,0.299-0.319c0.095-0.187-0.037-0.498,0.161-0.642
		c0.236-0.172,0.483,0.066,0.715-0.239c0.205-0.27,0.185-0.482,0.492-0.699c0.6-0.424,1.109-0.494,1.461-1.192
		c0.376-0.744,0.727-1.193,1.284-1.822c0.048-0.346-0.11-0.624-0.238-0.941c0.672-0.085,0.419-0.606,0.77-1.011
		c0.057,0.016,0.118,0.006,0.169,0.017c0.006-0.325,0.052-0.622,0.096-0.946c0.03-0.215,0.096-0.485,0.055-0.705
		c-0.045-0.243-0.168-0.295-0.295-0.511c0.142-0.113,0.3-0.292,0.48-0.341c0.228-0.062,0.461,0.112,0.689-0.047
		c0.123-0.086,0.122-0.428,0.316-0.521c0.363-0.174,0.744,0.139,0.852,0.461c0.459-0.322,1.278-0.065,1.639-0.424
		c-0.235-0.74-0.216-1.018,0.354-1.562c0.674,0.407,1.262,0.29,1.518,1.122c0.196,0,0.449,0.127,0.53-0.116
		c0.366-0.016,0.735,0.05,1.097,0.034c0.058-0.341-0.189-1.303,0.412-1.266c0.049-0.404-0.202-1.55,0.061-1.805
		c0.126-0.122,0.386-0.026,0.564-0.256c0.098-0.126,0.198-0.336,0.232-0.499c0.053-0.259,0.023-0.585,0.025-0.848
		c0.001-0.105,0.075-0.134,0.052-0.248c-0.024-0.117-0.203-0.197-0.205-0.318c-0.003-0.209,0.341-0.483,0.457-0.665
		c0.299-0.473,0.417-0.802,0.286-1.387c-0.139,0.297-0.183,0.039-0.392,0.132c-0.24,0.106-0.383,0.318-0.586,0.494
		c-0.074-0.117-0.345-0.395-0.48-0.421c-0.155-0.03-0.421,0.114-0.532,0.187c-0.35,0.232-0.121,0.347-0.283,0.638
		c-0.18,0.323-0.691,0.187-0.94,0.294c-0.167,0.072-0.778,0.53-0.957,0.509c-0.213-0.026-0.666-0.815-0.747-1.002
		c-0.298-0.686-0.683-0.973-1.104-1.626c-0.206-0.319-0.078-1.097-0.07-1.415c-0.728,0.113-0.847-0.435-1.096-0.96
		c-0.168-0.352-0.276-0.768-0.471-1.102c-0.164-0.28-0.43-0.407-0.661-0.609c-0.196-0.171-0.321-0.407-0.499-0.591
		c-0.263-0.272-0.585-0.472-0.823-0.773c-0.323-0.406-0.371-0.8-0.388-1.3c-0.612,0.059-0.855-0.542-1.34-0.556
		c0.282-0.388,1.349-0.896,1.049-1.551c-0.004,0-0.007,0.001-0.011,0.001c-0.096,0.01-0.207,0.084-0.301,0.183
		c-0.083,0.049-0.166,0.098-0.25,0.147c-0.016-0.074-0.038-0.146-0.075-0.21c-0.047-0.079-0.091-0.127-0.128-0.186
		c-0.022-0.035-0.041-0.073-0.058-0.125c-0.054-0.17-0.067-0.36-0.064-0.547c0.002-0.095,0.007-0.189,0.014-0.279
		c0.012-0.152,0.079-0.257,0.163-0.349c0.13-0.142,0.302-0.255,0.383-0.465c0.099-0.255,0.028-0.513,0.082-0.774
		c0.052-0.247,0.181-0.55,0.308-0.772c0.187-0.326,0.631-0.375,0.803-0.685c0.125-0.227,0.024-0.649,0.041-0.899
		c0.169-0.083,0.375-0.298,0.409-0.49c-0.216-0.004-0.416-0.023-0.553-0.121c-0.095-0.068-0.159-0.173-0.176-0.338
		c-0.003-0.026-0.004-0.051-0.005-0.077c-0.014-0.268,0.037-0.53,0.101-0.79c0.053-0.22,0.115-0.44,0.152-0.663
		c0.014-0.085,0.025-0.171,0.03-0.258c0.017-0.292,0.085-0.581,0.103-0.875c0.013-0.215-0.023-0.431,0.128-0.594
		c0.363-0.394,1.166-0.48,1.439-0.933c0.015-0.024,0.026-0.051,0.036-0.078c0.05-0.14,0.046-0.31,0.1-0.446
		c0.013-0.034,0.029-0.066,0.051-0.094c0.191-0.244,0.708-0.182,0.949-0.449c0.173-0.192,0.267-0.421,0.445-0.615h0
		c0.215-0.234,0.364-0.442,0.69-0.532c0.23-0.064,0.53-0.016,0.742-0.128c0.059-0.031,0.093-0.063,0.116-0.098
		c0.043-0.065,0.044-0.142,0.075-0.25c0.109-0.368,0.386-0.622,0.656-0.879c0.11-0.104,0.196-0.32,0.295-0.403
		c0.131-0.11,0.339-0.008,0.492-0.08c0.113-0.053,0.161-0.146,0.206-0.257c0.084-0.209,0.006-0.343-0.05-0.568
		c-0.011-0.042-0.025-0.085-0.042-0.128c-0.05-0.128-0.119-0.258-0.165-0.384c-0.018-0.05-0.033-0.1-0.041-0.148
		c-0.024-0.151,0.083-0.311,0.191-0.454c0.05-0.065,0.1-0.128,0.137-0.183c0.08-0.118,0.161-0.239,0.242-0.362
		c0.162-0.249,0.32-0.506,0.456-0.769c0.057-0.11,0.11-0.221,0.158-0.332c0.009-0.021,0.019-0.043,0.028-0.063
		c0.098-0.226,0.211-0.462,0.339-0.689c0.069-0.124,0.143-0.245,0.222-0.36c0.072-0.105,0.147-0.206,0.226-0.299
		c0.26-0.305,0.671-0.507,0.734-0.948c-0.104-0.198-0.37-0.289-0.457-0.467c-0.064-0.131-0.003-0.22,0.065-0.346
		c0.158-0.292,0.197-0.309,0.039-0.588c-0.085-0.149-0.181-0.297-0.275-0.442c-0.148-0.23-0.266-0.526-0.425-0.739
		c-0.176-0.235-0.534-0.316-0.814-0.457c-0.188-0.095-0.367-0.227-0.568-0.29c-0.19-0.059-0.466-0.182-0.668-0.13
		c-0.209,0.054-0.419,0.237-0.608,0.343c-0.39,0.218-0.693,0.221-1.109,0.14c-0.288-0.057-0.745-0.183-0.799-0.52
		c-0.036-0.229,0.173-0.489,0.242-0.7c0.097-0.3,0.083-0.723,0.036-1.035c-0.055-0.36-0.428-0.357-0.74-0.477
		c-0.549-0.211-1.168-0.126-1.655-0.45c-0.017-0.012-0.035-0.023-0.052-0.035c-0.291-0.216-0.47-0.528-0.554-0.867
		c-0.011-0.045-0.021-0.09-0.029-0.136c-0.05-0.294-0.065-0.585-0.081-0.883c-0.009-0.189-0.095-0.395-0.078-0.58
		c0.203-0.138,0.371-0.41,0.462-0.635c-0.505-0.249-0.898-0.812-1.242-1.245c-0.272-0.342-0.561-0.7-0.803-1.064
		c-0.232-0.349-0.103-0.756-0.328-1.104c-0.084-0.129-0.29-0.246-0.301-0.407c-0.009-0.128,0.12-0.326,0.172-0.443
		c0.178-0.394,0.562-0.804,0.465-1.269c-0.038-0.181-0.171-0.335-0.093-0.531c0.093-0.237,0.459-0.504,0.367-0.796
		c-0.085-0.271-0.647-0.451-0.794-0.648c0.009,0.02,0.008,0.038-0.004,0.055c-0.203-0.015-0.411-0.03-0.613-0.053
		c0.005-0.126,0.021-0.274-0.019-0.395c-0.274-0.074-0.298,0.199-0.528,0.157c-0.179-0.032-0.499-0.313-0.636-0.42
		c-0.444-0.348-0.145-0.817-0.093-1.28c-0.332,0.023-0.975,0.098-1.248-0.131c-0.212-0.179-0.314-0.536-0.443-0.774
		c-0.1-0.184-0.207-0.366-0.314-0.547c-0.027-0.046-0.055-0.093-0.082-0.139c-0.012-0.021-0.025-0.043-0.038-0.064
		c-0.081-0.135-0.136-0.208-0.211-0.259c-0.063-0.042-0.139-0.069-0.259-0.099c-0.05-0.013-0.099-0.026-0.147-0.039h0.523v-1.386
		c0-0.576,0.267-1.091,0.683-1.428c0.037,0.029,0.076,0.058,0.12,0.081l0.002,0.001c-0.404,0.311-0.666,0.798-0.666,1.346v1.386
		h0.187v-1.344c0-0.537,0.282-1.008,0.705-1.277c0.053,0.025,0.106,0.046,0.159,0.066c0.18,0.068,0.36,0.106,0.574,0.106
		c0.265-0.001,0.587-0.021,0.887,0c0.086,0.006,0.169,0.016,0.25,0.03c0.039,0.007,0.079,0.015,0.116,0.025
		c0.089,0.023,0.175,0.068,0.263,0.111c0.067,0.033,0.136,0.065,0.206,0.086c0.063,0.019,0.128,0.03,0.196,0.025
		c0.179-0.014,0.297-0.146,0.431-0.245c0.306-0.225,0.662-0.457,1.024-0.585c0.226-0.08,0.468-0.083,0.709-0.07
		c0.047,0.002,0.093,0.005,0.139,0.009c0.025,0.002,0.051,0.004,0.076,0.005c0.407,0.029,0.808,0.091,1.212,0.146
		c0.234,0.032,0.469,0.062,0.705,0.081c0.043,0.003,0.084,0.01,0.126,0.014c0.258,0.031,0.498,0.087,0.755,0.126
		c0.244,0.036,0.318-0.098,0.53-0.187c0.553-0.234,1.056,0.064,1.605,0.108c0.215,0.017,0.608,0.075,0.813-0.003
		c0.183-0.069,0.323-0.226,0.518-0.293c0.149-0.051,0.351-0.024,0.46-0.146c0.059-0.066,0.094-0.183,0.121-0.288
		c0.011-0.043,0.021-0.085,0.031-0.119c0.026-0.093,0.052-0.187,0.08-0.282c0.062-0.214,0.133-0.43,0.233-0.627
		c0.023-0.046,0.048-0.091,0.074-0.135c0.044-0.072,0.109-0.153,0.171-0.24c0.092-0.13,0.177-0.273,0.168-0.42
		c-0.012-0.183-0.141-0.294-0.113-0.482c0.021-0.145,0.131-0.242,0.169-0.38c0.026-0.095,0.007-0.19,0.028-0.285
		c0.035-0.157,0.141-0.302,0.194-0.453c0.055-0.156,0.049-0.252,0.016-0.351c-0.027-0.084-0.074-0.171-0.121-0.298
		c-0.021-0.056-0.033-0.111-0.04-0.165c-0.028-0.207,0.023-0.41,0.053-0.628c0.002-0.016,0.007-0.029,0.009-0.044
		c0.038-0.189,0.138-0.285,0.289-0.365c0.056-0.03,0.119-0.057,0.189-0.088c0.191-0.082,0.396-0.127,0.56-0.261
		c0.177-0.146,0.147-0.255,0.203-0.458c0.112-0.403,0.358-0.545,0.676-0.776c0.252-0.183,0.243-0.303,0.243-0.605
		c0-0.389,0.072-0.719,0.126-1.094c0.036-0.249-0.159-0.408-0.145-0.62c0.01-0.148,0.152-0.21,0.26-0.304
		c0.136-0.119,0.299-0.178,0.278-0.371c-0.031-0.285-0.136-0.508,0.02-0.776c0.107-0.185,0.259-0.304,0.175-0.509
		c-0.1-0.249-0.086-0.171,0.037-0.432c0.082-0.173,0.151-0.34,0.252-0.505c0.084-0.139,0.233-0.283,0.257-0.446
		c-0.368-0.074-0.401-0.148-0.459-0.464c-0.03-0.166,0.058-0.492-0.036-0.625c-0.008-0.012-0.12-0.036-0.116-0.034
		c-0.147-0.112-0.337-0.137-0.456-0.293c0.086-0.085,0.174-0.179,0.216-0.293c-0.209-0.093-0.436-0.125-0.643-0.227
		c-0.216-0.107-0.228-0.299-0.251-0.536c-0.006-0.06-0.01-0.117-0.015-0.172c-0.013-0.151-0.03-0.286-0.096-0.404
		c-0.043-0.079-0.107-0.151-0.206-0.217c-0.139-0.092-0.189-0.111-0.207-0.195c-0.009-0.042-0.011-0.101-0.011-0.193
		c-0.17,0.054-0.423,0.027-0.535-0.102c-0.001-0.001-0.003-0.002-0.004-0.004c-0.069-0.082-0.032-0.137-0.128-0.192
		c-0.12-0.069-0.477-0.011-0.586,0.062c-0.094,0.064-0.14,0.185-0.246,0.236c-0.005-0.101,0-0.201-0.003-0.302
		c-0.192-0.011-0.522-0.233-0.629-0.381c-0.135-0.187-0.087-0.393-0.067-0.605c0.026-0.283,0.024-0.578,0.03-0.863
		c0-0.02,0.002-0.045,0.004-0.073c0.006-0.086,0.015-0.199-0.007-0.258c-0.02-0.052-0.081-0.094-0.121-0.139
		c-0.011-0.012-0.021-0.025-0.028-0.038c-0.08-0.165-0.001-0.291,0.039-0.476c0.027-0.125,0.058-0.255,0.093-0.384
		c0.044-0.158,0.095-0.316,0.159-0.465c0.032-0.075,0.066-0.149,0.105-0.219c0.105-0.192,0.174-0.374,0.368-0.49
		c0.135-0.082,0.335-0.185,0.497-0.172c0.128,0.01,0.259,0.121,0.381,0.162c0.065-0.079,0.081-0.175,0.096-0.271
		c0.016-0.101,0.032-0.202,0.105-0.286c0.032-0.036,0.07-0.062,0.112-0.082c0.145-0.07,0.338-0.06,0.487-0.075
		c0.228-0.022,0.457-0.042,0.685-0.05c0.055-0.002,0.113-0.001,0.172,0.001c0.194,0.007,0.4,0.025,0.58-0.023
		c0.102-0.027,0.189-0.08,0.269-0.146c0.055-0.046,0.108-0.096,0.157-0.152c0.327-0.372,0.296-0.938,0.5-1.368
		c0.059-0.126,0.145-0.25,0.244-0.366c0.098-0.115,0.21-0.221,0.324-0.309c0.029-0.022,0.058-0.044,0.087-0.063
		c0.122-0.083,0.255-0.124,0.394-0.15c0.229-0.044,0.471-0.046,0.694-0.119c0.019,0.01,0.039,0.019,0.058,0.029
		c-0.009-0.013-0.019-0.026-0.028-0.039c0.011-0.004,0.022-0.007,0.032-0.012c0.01-0.211,0.025-0.432,0.038-0.653
		c0.004-0.071,0.009-0.141,0.012-0.211c0.009-0.21,0.053-0.195,0.149-0.335c0.055-0.081,0.116-0.105,0.074-0.187
		c-0.069-0.137-0.272-0.303-0.372-0.425c-0.278-0.339-0.659-0.587-0.943-0.924c-0.156-0.185-0.295-0.407-0.378-0.631
		c-0.099-0.267-0.082-0.527-0.111-0.808c-0.025-0.24-0.039-0.406,0.059-0.618c0.106-0.228,0.248-0.437,0.358-0.663
		c0.14-0.285,0.269-0.574,0.414-0.854c0.05-0.096,0.085-0.251,0.153-0.332c0.101-0.119,0.256-0.102,0.406-0.161
		c-0.076-0.281-0.128-0.577-0.168-0.866c-0.035-0.251-0.036-0.601-0.253-0.774c-0.256-0.205-0.678-0.157-0.964-0.326
		c-0.02-0.206,0.017-0.415-0.005-0.624c-0.021-0.201-0.072-0.469,0.081-0.638c0.09-0.1,0.245-0.107,0.348-0.19
		c0.121-0.099,0.148-0.212,0.203-0.352c0.096-0.242,0.196-0.487,0.3-0.728c0.106-0.245,0.125-0.523,0.278-0.742
		c0.135-0.193,0.229-0.25,0.104-0.469c-0.247-0.434-0.189-0.837-0.235-1.325c-0.027-0.293-0.051-0.68-0.24-0.918
		c-0.211-0.267-0.442-0.485-0.445-0.855c-0.002-0.34,0.102-0.656,0.177-0.983c0.082-0.362,0.29-0.712,0.343-1.075
		c0.09-0.617-0.111-1.134-0.279-1.707c0.251-0.104,0.61,0.048,0.647-0.277c0.023-0.197-0.067-0.474-0.105-0.667
		c-0.025-0.126-0.037-0.34-0.12-0.445c-0.201-0.255-0.623-0.094-0.84-0.324c-0.198-0.21-0.399-0.529-0.459-0.811
		c-0.066-0.309,0.037-0.62-0.018-0.924c-0.052-0.284-0.297-0.489-0.469-0.704c-0.228-0.283-0.404-0.575-0.577-0.893
		c-0.126-0.232-0.251-0.471-0.411-0.679c-0.141-0.184-0.248-0.187-0.422-0.288c-0.271-0.158-0.166-0.888-0.156-1.183
		c0.11-0.009,0.132-0.102,0.222-0.14c0.143-0.059,0.341-0.027,0.486,0.01c0.33,0.083,0.585,0.333,0.927,0.374
		c0.395,0.046,1.2,0.017,1.491-0.309c0.104-0.116,0.028-0.279,0.153-0.379c0.074-0.06,0.204-0.066,0.29-0.121
		c0.075-0.048,0.138-0.118,0.194-0.185c0.222-0.267,0.376-0.649,0.493-0.975c0.056-0.156,0.087-0.294,0.201-0.417
		c0.156-0.167,0.265-0.402,0.419-0.564c-0.102-0.272-0.299-0.496-0.387-0.776c-0.113-0.362,0.053-0.563,0.323-0.797
		c0.314-0.272,0.597-0.596,0.943-0.815c0.408-0.258,0.728-0.491,0.832-0.972c0.067-0.31,0.062-0.644,0.183-0.944
		c0.174-0.43,0.694-0.466,0.959-0.816c0.184-0.242,0.288-0.118,0.575-0.152c0.165-0.02,0.284-0.079,0.427-0.171
		c0.305-0.197,0.215-0.068,0.508,0.089c0.094-0.098,0.252-0.186,0.384-0.228c0.053,0.166,0.182,0.307,0.324,0.396
		c0.253,0.159,0.458,0.002,0.65-0.177c0.157-0.146,0.242-0.325,0.361-0.499c0.184-0.27,0.35-0.254,0.671-0.296
		c0.453-0.059,0.666-0.105,0.813-0.55c0.058-0.177,0.082-0.352,0.231-0.451c0.082-0.055,0.215-0.11,0.307-0.158
		c0.152-0.08,0.334-0.088,0.5-0.12c0.216-0.043,0.292-0.212,0.483-0.26c0.052-0.116-0.025-0.307,0.036-0.438
		c0.094-0.202,0.483-0.176,0.476-0.416c-0.003-0.092-0.123-0.17-0.097-0.291c0.015-0.071,0.095-0.163,0.138-0.219
		c0.215-0.284,0.42-0.278,0.755-0.325c0.396-0.055,0.41-0.199,0.25-0.493c-0.063-0.114-0.216-0.223-0.237-0.351
		c-0.075-0.444,0.52-0.677,0.819-0.868c0.04,0.169-0.038,0.424,0.078,0.577c0.116,0.153,0.4,0.086,0.578,0.06
		c0.181-0.026,0.483-0.067,0.559-0.253c0.06-0.147-0.063-0.358-0.134-0.475c-0.078-0.128-0.295-0.263-0.233-0.437
		c0.045-0.127,0.271-0.199,0.387-0.271c0.319-0.199,0.536-0.405,0.615-0.788c-0.08-0.08-0.271-0.436-0.28-0.552
		c0.187-0.113,0.391-0.251,0.463-0.463c0.041-0.119,0.022-0.256,0.077-0.371c0.138-0.287,0.514-0.336,0.645-0.615
		c0.062-0.132,0.04-0.257,0.153-0.357c0.06-0.053,0.159-0.038,0.187-0.137c0.076-0.264-0.278-0.328,0.105-0.551
		c0.309-0.18,0.49-0.233,0.61-0.612c0.116-0.366,0.171-0.829,0.471-1.1c0.159-0.143,0.521-0.196,0.576-0.422
		C148.072,26.84,147.885,26.486,147.821,26.353z"/>
</g>
</svg>
