<?xml version="1.0" encoding="utf-8"?>
<!-- Generator: Adobe Illustrator 26.0.3, SVG Export Plug-In . SVG Version: 6.00 Build 0)  -->
<svg version="1.1" id="Layer_1" xmlns="http://www.w3.org/2000/svg" xmlns:xlink="http://www.w3.org/1999/xlink" x="0px" y="0px"
	 viewBox="0 0 200 200" enable-background="new 0 0 200 200" xml:space="preserve">
<g>
	<path fill="#1E8346" d="M65.675,171.521l0.284,1.425l1.424,1.21c0,0,0.356,0.998,0.57,1.924c0.214,0.926,0.926,0.783,1.354,0.855
		c0.427,0.071,0.641,0.998,0.427,1.782c-0.213,0.782-0.641,0.569-1.282,0.496c-0.641-0.072-0.783,0.215-0.783,0.787
		c0,0.569,0.855,0.925,0.855,0.925s0.427,0.285,0.356,1.138c-0.071,0.856-0.784,0.286-1.923-0.355
		c-1.14-0.641-0.356,0.569-0.356,0.569l0.285,1.069l1.068,2.138l0.926,2.28l0.641,0.57c0,0-0.214,1.066,0.285,1.282
		c0.499,0.214,0.427,0.499,0.427,0.499s-0.356,0.998-0.784,1.497c-0.427,0.499-0.285,0.854-0.071,1.138
		c0.213,0.284-0.143,0.642-0.427,0.714c-0.285,0.072,0.213,0.568,0.427,0.641c0.213,0.069,1.211,0.285,1.211,0.285
		s1.068,0.284,1.425,0.426c0.356,0.142,0.926,0,1.282-0.285c0.356-0.285,0.57,0.072,0.926-0.285
		c0.356-0.354,1.353-0.215,1.353-0.215s0.356,0.288,0.926-0.142c0.571-0.425,0.784-0.07,0.784-0.07l0.713,0.712l0.783,0.285
		c0.641,0.214,0.641-0.926,0.641-0.926s0.356-0.498,0.783-0.925c0.427-0.427-0.214-1.14-0.214-1.71c0-0.571-0.641-0.783-0.855-1.067
		c-0.214-0.285-0.071-0.713,0-1.355c0.071-0.641,0.428-0.925,0.428-0.925l1.14-1.283l1.068-1.069
		c0.713-0.927,0.713,0.285,0.713,0.285s0.079,0.516,0.677,0.188c0.598-0.327,0.65-0.39,0.341-0.749
		c-0.308-0.362-0.72-1.338-0.103-1.287c0.617,0.053,1.183,0.103,1.492,0c0.309-0.101,0,0.669,1.491-0.155
		c0,0,0.052-0.205,0.823,0.054c0.771,0.255,0.926,0.308,1.44,0.101c0.515-0.205,0.72-0.259,1.131-0.051
		c0.411,0.206,0.617-0.462,0.978-0.05c0.359,0.409,1.182,1.542,1.388,0.872c0.205-0.668,0.257-0.872,0.822-1.234
		c0.566-0.36,0.72-1.798,0.72-1.798s0.257-2.163,0.617-2.418c0.36-0.258,0.257-0.771,0.308-1.389
		c0.052-0.617,0.927-1.13,0.977-1.284c0.05-0.155,0.874-0.979,0.874-0.979s0.462-0.514-0.464-0.617l0.515-0.872
		c0,0,0.052-0.567,0-0.926c-0.051-0.361-0.463-1.289,0.154-1.289c0.617,0,0.669-0.77,0.669-0.77s1.284-0.205,0-0.255
		c-1.285-0.053-0.977-0.618-0.822-1.08c0.154-0.463,0.514-1.646,0.514-1.646l0.205-0.668c0,0,0.669-0.154,0.669-0.517
		c0-0.359,0.308-1.335,0.308-1.335l-0.514-0.825l-0.669-0.409c0,0-0.876-0.875,0.154-0.464c1.029,0.41,0.825-0.361,0.412-0.516
		c-0.412-0.154-0.72-0.822,0-0.513c0.719,0.308,1.131,0.204,0.617-0.413c-0.514-0.617-1.851-1.851-1.851-1.851
		s-0.464-0.513,0.36-0.513c0.823,0,0.052-0.722,0.052-0.722s-0.822-1.848,0.823,0.207c0,0,1.028,1.027,1.028,0.411
		c0-0.618,0.31-1.181,0.051-1.489c-0.258-0.309-0.308-1.184-0.308-1.184l-0.566-1.492l1.029,0.925l0.411-0.925l-0.668-0.976
		l-0.669-0.822c0,0,1.027,0.205,0.513-0.413c-0.513-0.617-1.542-1.234-1.542-1.234s-0.77-0.617,0.721-0.05
		c1.491,0.564,1.645,0,1.645,0s0.463-0.413,0.155-0.771c-0.308-0.362-1.338-1.389-0.515-1.234c0.823,0.154-2.108-0.412-2.108-0.412
		s-0.465,0.359-1.132,0.359c-0.667,0-1.079-0.309-1.079-0.309l1.079-0.668l1.389,0.051l1.44,0.309c0,0,1.081,0.515,1.441,0.307
		c0.359-0.203,0.308-0.925,0.72-0.77c0.41,0.154,1.234,0.154,0.669-0.308c-0.568-0.464-0.308-0.822,0-0.668
		c0.308,0.154,0.977,0.513,1.234,0.359c0.256-0.155,0.205-0.926,0.205-0.926s0.771,0.412,0.822-0.05
		c0.053-0.464-0.102-1.235,0.258-1.132c0.36,0.102,0.977-0.566,0.977-0.566l0.103-1.235c0,0-0.771-1.336-0.155-1.439
		c0.617-0.104,0.31-1.338,0.412-0.722c0.103,0.617,0.72,0.822,0.463,1.131c-0.258,0.309,0,1.802,0,1.802s0.516,0.566,1.079,0.566
		c0.565,0,0.463-1.234,0.463-1.234s0.411-0.926,0.824-1.134c0.411-0.204,0.925-0.564,0.925-0.564s0.669,0.155,0.669-0.053
		c0-0.205,1.285-0.514,0.874-0.873c-0.411-0.362-0.514-0.979-0.926-0.979c-0.41,0-0.721-0.822,0-0.77
		c0.721,0.053,1.492,0.207,1.492,0.207s0.822,0.513,0.822-0.104c0-0.617,0.105-1.284-0.103-1.284c-0.205,0-0.256,0.513-0.616-0.155
		c-0.36-0.67-1.389-0.77-0.926-0.463c0.463,0.309,0.566,1.284,0.155,1.027c-0.411-0.255-0.463-0.255-0.926,0.054
		c-0.463,0.307-2.161,0.567-1.542,0.154c0.616-0.412-0.411-1.234,0.051-1.133c0.463,0.105,1.234,0.67,1.234,0.155
		c0-0.513,0.668-1.079,0.668-1.079l0.977-0.772l0.926-1.18c0,0,0.259-0.928,0.824-1.03c0.566-0.104,0.873-0.565,1.439-0.668
		c0.566-0.104,1.284-0.413,0.308-0.567c-0.977-0.154-1.337-0.617-0.771-0.668c0.567-0.053,1.594,0.668,1.286-0.053
		c-0.308-0.717-1.389-1.542-1.389-1.542l-0.976-2.211l-0.773-0.413l-0.874-0.358l-1.079-0.617c0,0-1.027-0.926,0.771-0.359
		c0,0,0.568-0.104-0.256-0.617c-0.823-0.516-0.002-0.874-1.03-0.925c0,0-0.822,0.255-0.822-0.207c0-0.463-0.925-0.772-0.925-0.772
		s0.154-0.668-0.515-1.08c-0.669-0.409-0.155-1.182-0.772-1.233c-0.617-0.052-1.337,0.103-1.491,0.617
		c-0.154,0.516,0.307,1.75-0.72,0.462c0,0,0.001-0.871,0.257-1.027c0.257-0.154,0.051-0.617-0.771-0.617
		c-0.823,0-0.516,0.513-1.184-0.103c-0.668-0.618-0.874-0.822-0.205-1.284l-0.36-0.979c0,0,0.412-0.617-0.257-1.131
		c-0.669-0.513-0.874-1.029-0.308-1.388c0.565-0.36-0.104-1.543-0.104-1.543l-0.05-0.617c0,0-0.205-0.926,0-0.771
		c0.203,0.154,0.565-0.41,0.101-0.822c-0.461-0.412,0.926-0.155,0.309-0.617c-0.617-0.463-1.388-1.543-0.617-1.389
		c0.771,0.154,0.155-0.72,0.155-0.72s0.001-0.156-0.411-0.722c-0.413-0.565-0.155-1.234-0.155-1.234s1.08-0.307,0.874-0.565
		c-0.207-0.259-0.463-0.875,0.154-0.617c0.617,0.255,0.927-0.156,0.978,0.359c0.05,0.514,0.669,0.257,0.669-0.154
		c0-0.412,0-0.771-0.565-0.771c-0.566,0-0.155-0.976-0.155-0.976l-0.36-0.309c0,0-0.258-0.566,0-1.389l0.36-0.72
		c0,0,0.36-0.051,0.36-0.515c0-0.463,0.206-1.954,0.206-1.954s-0.05-0.514,0.207-0.565s0.771,0,0.309-0.617l-0.618-0.205
		c0,0-0.103-0.874-0.616-0.926c-0.516-0.052-0.31-1.08-0.31-1.08s0.773,0.566,0.669-0.154c-0.104-0.721-0.669-0.67-0.669-0.67
		s-0.512-0.411-0.103-0.565c0.412-0.155,0.515-0.669,0.925,0.05c0.412,0.721,0.927,0.771,0.927,0.771s0.05-0.822,0.564-0.822
		s0.825-0.104,0.825-0.412c0-0.308,0.203-0.514,0.718-0.668c0.515-0.154,0.207-0.823,0.207-0.823l-0.104-0.977
		c0,0,0-0.668-0.411-1.08c-0.41-0.411-0.566-1.747-0.566-1.747s-0.102-1.133,0.464,0.205c0,0-0.206,1.08,0.411,0.977
		c0.617-0.103,0.823,0.207,0.823,0.36c0,0.154,0.668,0.515,0.668,0s-0.462-1.285,0.514-0.874c0.979,0.412,1.184-0.103,1.184-0.103
		s0.308-0.411-0.205-0.617c0,0,0.616-0.616,0.153-0.874c-0.462-0.257-0.925-0.823-0.513-1.029c0.411-0.205,0.976-0.874,0.976-0.874
		s0.874-0.103,0.822-0.772c-0.05-0.668,0.31-1.491,0.31-1.491s0.719-0.617,0.772-0.051c0.051,0.565,0.669,0.515,0.669,0.515
		s0.566,0.822,0.669,0.256c0.102-0.565,0.101-0.669,0.36-1.234c0.258-0.565,0.566-0.565,0.514-0.977
		c-0.051-0.411,0.052-1.439,0.052-1.439s0.154-0.309,0.566,0.154c0.41,0.463,1.183,0.617,0.668-0.567c0,0-0.307-1.697,0.155-0.72
		c0.463,0.978,0.668,0.617,0.668,0.617s0.72,1.029,0.926,0.515c0.206-0.515-0.255-1.029,0.258-1.338
		c0.513-0.309,0.822-0.925,0.822-0.925s0.565,0.514,0.565-0.617c0,0,0.979,0.412,1.029,0c0.051-0.411,0.463-1.644,0.566-1.131
		c0.103,0.513,0.565,0.976,0.565,0.05s0.206-1.336,0.617-1.183c0.412,0.155,0.721-0.05,0.823-0.257
		c0.103-0.206,0.207-0.258,0.361-0.566c0.154-0.308,0.409-0.822,0.513-1.08c0.104-0.257,0.515-2.262,0.515-2.262
		s0.515-1.388,0.926-1.8c0.41-0.412,0.719-1.286,0.719-1.286s0.412,0.103,0.36-0.669c-0.051-0.771,0-1.593,0.154-1.389
		c0.155,0.206,0.514,1.596,0.565,1.029c0.053-0.566,0.876-1.286,0.876-1.286s0.101-0.617-0.413-0.207
		c-0.513,0.412-0.204-0.308-0.667-0.308s-0.824-0.462-0.053-0.514c0.773-0.052,0.308-0.875-0.513-0.823
		c-0.822,0.052-0.978-0.719-0.978-0.719s0.719-0.463,0.36-0.875c-0.36-0.411,0.823-0.926-0.256-0.926
		c-1.08,0-1.749-0.153-1.389-0.822c0,0,0-0.36,0.463,0.051c0.463,0.412,0.669-0.463,0.669-0.463l0.257-0.976
		c0,0,0.36-0.155,0.565-0.515c0.206-0.361,0.669-0.72,0.669-0.72l0.207-0.926c0,0,0.258-0.567,0.154-1.184
		c-0.103-0.617-0.925-1.439-0.925-1.439s-1.235-0.926-0.617-0.875c0.617,0.052,0.976,0.617,0.976,0.617s0.512,0.874,0.926,0.514
		c0.412-0.36-0.463-0.925-0.463-0.925s-1.389-0.772-0.308-1.132c0,0,0.617-0.102,1.131,0.206c0.515,0.309,0.978-0.564,0.978-0.564
		s0.822-0.721,0.359-0.876c-0.462-0.154-2.106-0.77,0.104-0.667c0,0,0.772-0.36,1.079-0.515c0.309-0.154,1.286,0.515,1.08-0.206
		c-0.207-0.72-1.03-1.337-0.515-1.337c0.515,0,0.619-0.669,0.052-0.772c-0.567-0.102-1.441-0.77-0.721-0.565
		c0.721,0.205,0.515-1.337,0.515-1.337s-0.102-1.183,0.617,0c0.719,1.183,0.874,0.514,0.874,0.514s1.03,1.286,0.823,0.617
		c-0.207-0.668-0.36-2.057-0.36-2.057s0.464,0.052,0.67,0.669c0.204,0.617,0.925,0.926,1.233,1.131
		c0.308,0.206,0.565,0.668,0.72,1.028c0.155,0.361,0.36-0.926,0.36-0.926l-0.051-1.028l0.824,0.206c0,0,0.256,0.154,0.617-0.309
		c0.36-0.463,0.822,0.051,1.079,0.051s0.668-0.616,1.027,0.052c0.36,0.669,0.979-0.052,0.979-0.052s0.769,0.257,0.976-0.308
		c0.206-0.565-0.72-1.851-0.72-1.851l-0.36-1.028l-0.411-0.721c0,0,0.258-0.771-0.257-1.028c-0.514-0.257-1.801-0.772-1.801-1.594
		c0-0.822-0.101-0.977-0.255-1.594c-0.155-0.617-0.31-1.286,0.308-1.595c0.617-0.309,0.514-1.131,0.514-1.851
		c0-0.719-0.412-1.851-0.104-2.056c0.309-0.206,0.567-0.823,0.259-1.131c-0.309-0.309-0.876-1.234-0.876-1.234
		s-0.874-0.566-1.028-1.286c-0.154-0.72-0.771-1.543-0.771-1.543s-0.258-1.234-0.207-1.491c0.053-0.257,1.031-0.823,1.031-0.823
		s0-0.462-0.155-0.926c-0.154-0.462-0.308-0.823-0.822-0.771c-0.516,0.052-0.978,0.155-1.133-0.36
		c-0.154-0.514-0.308-0.875-0.102-1.234c0.206-0.36,0.669-0.308,0.36-0.977c-0.308-0.669-0.567-2.674-0.567-2.674
		s-0.463-1.646,0.308-1.697c0.773-0.051,1.287-0.616,0.207-0.719c-1.08-0.103-1.337-1.286-1.337-1.286s-0.308-1.234-0.669-0.719
		c-0.359,0.514-0.72,0.617-0.823-0.103c-0.103-0.72,0.104-1.543-0.513-1.954c-0.617-0.411-0.617-0.874-1.08-1.028
		c-0.462-0.154-0.412-0.617-1.029-0.617c-0.617,0-1.184-0.257-1.388-0.257c-0.206,0-0.668-0.36-1.028-0.103
		c-0.36,0.257-0.616,0.103-0.874-0.308c-0.259-0.411-0.207-1.337-0.876-1.131c-0.668,0.206-1.131,0.103-1.182-0.412
		c-0.052-0.514-0.257-0.977-0.72-0.926c-0.464,0.052-0.772,0-1.184-0.823c-0.412-0.822-0.822-1.131-1.182-1.285
		c-0.36-0.154-0.256,0.051-1.081-0.515c-0.822-0.565-0.05-1.183-0.05-1.183s0.257-0.668-1.183-0.771
		c-1.44-0.103-3.24-0.102-2.418,0.463c0,0,1.131,0.668,1.028,2.417c0,0-0.617,3.086-1.388,3.6c-0.772,0.514-0.36,0.514,0.257,0.617
		c0.617,0.103,1.131,0.617,0.823,0.926c-0.309,0.308-1.03,0.36-0.979,0.926c0.053,0.565,0.669,1.491-0.308,0.926
		c-0.977-0.567-0.978-0.514-1.543-0.617c-0.565-0.103-0.721-0.514-2.005-0.772c-1.286-0.257-1.594-0.669-2.161-0.411
		c-0.565,0.257-1.491,0.463-1.698,0.103c-0.205-0.361-1.027-1.491-1.234-1.234c-0.206,0.257-1.131,0.103-1.131,0.72
		c0,0.617,0.258,2.777,0.258,2.777s0.308,1.595-0.052,2.108c-0.36,0.514-0.513,0.719-0.513,1.285c0,0.566,0.463,0.874-0.051,1.08
		c-0.515,0.206-0.669,0.771-0.669,0.771s-0.412,0.052-0.823-0.462c-0.412-0.514-1.08-0.976-1.235-1.028
		c-0.154-0.052-1.131-0.977-1.542-0.463c-0.412,0.514-0.102,0.874-0.771,1.131c-0.67,0.257-1.133,0.977-1.338,1.235
		c-0.205,0.257-0.515,0.77-0.463,1.285c0.052,0.515-0.411,2.109-0.411,2.109s-0.412,1.903-0.978,2.108
		c-0.565,0.205-1.286,0.257-1.543,0.669c-0.257,0.412-0.872,0.36-0.05,1.183c0.822,0.823,0.822,1.388,0.822,1.388
		s0.207,0.617,0.721,1.903c0.513,1.286-0.051,2.006-0.308,2.108c-0.258,0.103-0.772,1.029-1.132,1.183
		c-0.361,0.155-1.491,2.622-1.491,2.622l-1.286,2.109c0,0-0.412,0.977-0.977,1.234c-0.565,0.257-0.565,0.566-0.514,0.925
		c0.051,0.36,0.103,1.954,0.103,1.954s0.257,0.36-0.052,0.72c-0.308,0.36-1.389,1.08-1.389,1.08s-0.308,0.875-1.337,0.824
		c-1.029-0.052-1.954-0.052-1.954-0.052s-0.926-0.719-0.463,0.669l0.412,2.211c0,0,0.411,1.955,0.102,2.212
		c-0.308,0.257-0.565,1.749-0.565,1.749l-0.154,2.673c0,0,0.205,2.314-0.515,2.675c-0.719,0.36-0.823,1.799-0.823,1.799
		s-0.257,0.617-0.565,0.721c-0.308,0.103-0.771,1.131-1.079,1.646c-0.309,0.515-1.646,2.416-1.749,2.828
		c-0.102,0.411-0.308,1.389-1.08,1.954c-0.772,0.566-0.206,0.514,0.309,0.771c0.514,0.257,0.719,1.029,1.491,1.183
		c0.771,0.155,0.926,0.258,0.926,1.029c0,0.772,0.154,2.827,0.154,2.827s0.052,0.567-0.359,0.824
		c-0.412,0.256-0.875,1.336-0.875,1.336s-0.205-0.257-0.822-0.257c-0.617,0-2.006-0.565-2.418-0.669
		c-0.412-0.102-1.131-0.617-1.8-0.256c-0.669,0.36-1.388,0.205-1.903,0.873c-0.514,0.669-1.748,1.543-1.697,2.006
		c0.052,0.462-1.337,1.234-1.029,1.696c0.309,0.463-0.771,1.132-0.72,1.286c0.051,0.154-0.874,0.72-0.771,1.234
		c0.102,0.515,0.359,1.183-0.052,1.799c-0.411,0.617-0.977,1.544-0.977,1.544s-0.36,0.05-0.308,0.72
		c0.051,0.668,0.514,1.594,0.514,1.594l0.463,1.44c0,0,0.36,0.616,0.103,0.977c-0.257,0.359-1.029,0.823-1.029,1.337
		s0.257,1.954,0.257,1.954s0.257,0.925-0.103,1.388c-0.36,0.463-0.411,0.925-0.103,1.543c0.309,0.617,0.874,1.851,0.874,1.851
		s0.308,1.441,0.257,1.851c-0.051,0.412-0.36,1.441-0.412,1.696c-0.052,0.259-0.411,2.366-0.411,2.366l-0.669,2.572
		c0,0-0.257,0.978,0.103,1.388c0.36,0.412,0.977,1.08,1.131,1.492c0.155,0.412,0.669,0.671,0.977,0.721
		c0.308,0.052,0.721,0.36,1.234,1.389c0.514,1.026,0.822,1.593,0.874,2.16c0.052,0.564-0.154,0.771-0.514,1.234
		c-0.36,0.464-0.874,2.16-0.874,2.16l-1.8-0.103c0,0-1.491,0.155-1.234,0.822c0.257,0.67,0.257,1.542,0.411,1.901
		c0.154,0.362,0.463,1.492,0.617,2.16c0.154,0.67,0.463,1.389,0.874,2.007c0.411,0.617,0.154,1.438,0.154,1.799
		c0,0.36-0.103,0.773-0.617,1.184c-0.514,0.41-0.463,0.822-0.309,1.594c0.155,0.77,0.411,1.593-0.103,2.056
		c-0.514,0.463-1.491,1.543-1.491,1.543s-0.463,0.669-1.235,0.669c-0.771,0-1.285-0.566-1.542,0
		c-0.257,0.565-0.566,0.976-0.103,1.389c0.463,0.41,0.669,0.771-0.154,1.335c-0.823,0.567-1.234,0.617-1.44,1.03
		c-0.206,0.412,0.103,1.955,0.103,1.955s0.874,2.981,0.463,3.393c-0.411,0.411-0.514,0.615-0.617,1.439
		c-0.102,0.822-0.257,1.03-0.36,2.057c-0.102,1.029,0.258,1.029-0.462,1.029c-0.72,0-1.491,0.463-1.183-0.412
		c0.309-0.872-0.257-1.644-0.257-1.644s0.154-1.131-0.669-0.926c-0.822,0.206-0.72-0.207-0.977,0.409
		c-0.257,0.618-0.72,0.825-0.308,1.134c0.412,0.308-0.308,0.617,0,0.925c0.308,0.309,0.514,0.669,0.514,0.874
		c0,0.207,0.309,0.822,0.052,1.03c-0.257,0.204-0.515,1.079-0.206,1.284c0.309,0.207,0.412,0.771,0.412,0.925
		c0,0.155-0.257,1.184-0.257,1.184s0.308,0.513,0.103,0.925c-0.205,0.412-0.412,0.977-0.412,0.977l0.155,0.979
		c0,0,0.514,0.412,0.669-0.155c0.154-0.567,0.462-1.029,0.514-0.67c0.052,0.363,0.257,1.7,0.566,1.133
		c0.308-0.567,0.514-1.287,0.514-1.287l0.617,0.103l-0.257,0.875l-0.308,0.718c0,0-1.955,1.029-1.235,1.029
		c0.721,0,1.337-0.514,1.337-0.514l0.978-0.207c0,0,1.079-0.976,1.079-0.358c0,0.617-0.102,1.492-0.102,1.492
		s-0.207,1.026-0.207,1.181c0,0.154-0.462,0.36-0.36,0.925c0.103,0.567,0.102,0.824-0.257,1.133c-0.36,0.307,0,0.873-0.463,1.131
		c-0.463,0.258-0.617,0.926-0.206,1.131c0.412,0.206,1.389,0.103,0.566,0.565c-0.823,0.462-1.594,0.566-0.772,0.722
		c0.822,0.154,1.594,0.101,1.286,0.409c-0.308,0.308-0.051,0.825,0.103,0.825c0.154,0,0.257,0.255,0.051,0.667
		c-0.205,0.412,0.051,0.671,0.051,1.029c0,0.36-0.257,1.544,0.155,2.006c0.411,0.463,0.154,0.206,0.462-0.516
		c0.308-0.718,0.515-0.874,0.566-0.36c0.051,0.514-0.514,1.181-0.36,1.235c0.154,0.05,0.565,0.771,0.514,0.976
		c-0.051,0.207-0.36,0.929,0,0.979c0.36,0.05,0.515,0.514,0.566,0.977C64.886,170.261,64.817,171.397,65.675,171.521z"/>
	<path fill="#1E8346" d="M62.726,154.37c0,0-0.257-0.668-0.977-0.05c-0.72,0.617-0.668-0.104-1.079,0.359
		c-0.412,0.464-0.926,0.975-0.926,0.975s0.103,0.67,0.462,0.67c0.36,0,0.72-0.311,1.131-0.257c0.412,0.05,1.131-0.051,1.131-0.051
		S62.674,154.833,62.726,154.37z"/>
	<path fill="#1E8346" d="M61.492,157.044c0,0-0.514-0.255-0.822,0.207c-0.309,0.462-0.464,0.717-0.155,0.872
		c0.308,0.155,0.771,0.104,0.925-0.101C61.595,157.815,61.492,157.044,61.492,157.044z"/>
	<path fill="#1E8346" d="M106.85,92.967c0,0-0.721-0.257-0.565,0.566C106.439,94.356,107.003,93.893,106.85,92.967z"/>
	<path fill="#1E8346" d="M109.574,144.855c0,0-0.359-0.257-0.565,0.259C108.803,145.628,109.061,146.039,109.574,144.855z"/>
	<path fill="#1E8346" d="M110.706,143.108c0,0-0.72,0.051-0.72,0.565c0,0.515,0.463,0.462,0.463,0.462
		S110.963,143.159,110.706,143.108z"/>
	<path fill="#1E8346" d="M112.197,136.987l-1.336,0.565c0,0-0.257,0.926,0.308,0.773
		C111.734,138.171,112.915,137.553,112.197,136.987z"/>
	<path fill="#1E8346" d="M96.359,183.012c0,0,0.153,1.956,1.182-1.439l0.206-1.233l0.515-1.852l0.308-2.16
		c0,0,0.72,0.256,0.72-0.875c0-1.131,0.668-0.514,0.72-1.08c0.051-0.564,0.257-2.261,0.257-2.261s-0.001-0.927,0.515-1.596
		c0.514-0.668,0.668-1.336,0.463-1.645c-0.206-0.308,0.103-1.131,0.103-1.131s-0.412-1.027-0.721-0.257l-0.256,1.645
		c0,0-0.462,0.617-0.565,1.234c-0.104,0.617-0.875,2.213-0.875,2.213s0.36,1.335-0.462,1.335c-0.823,0-1.081,1.184-1.081,1.184
		l-0.719,2.52C96.667,177.614,95.741,178.23,96.359,183.012z"/>
	<path fill="#1E8346" d="M109.574,173.602c0,0,0.465-0.101,1.03-0.822c0,0,0.566-0.617,0.155-0.977
		c-0.412-0.361-0.155-0.618,0-0.824c0.155-0.205,0-0.771,0.565-0.925c0.566-0.156,1.182-0.719,1.182-0.719s1.545-0.514,0.876-1.03
		c-0.669-0.513-0.051-1.132,0.463-1.184c0.513-0.05,1.695-0.513,0.822-0.926c-0.874-0.41-1.233-0.668-0.977-1.284
		c0,0,0.257-1.027-0.052-1.543c-0.308-0.513-0.411-1.133,0.309-1.337c0.72-0.206,0.823-0.771,0.823-0.771s0.564-0.669,0.822-0.669
		c0.259,0,0.513-0.307,0.617-0.874c0.103-0.564-0.204-0.719,0.566-0.719c0.772,0,0.874-0.362,0.103-0.463
		c-0.773-0.103-1.389-0.308-1.389,0.205c0,0.513,0.001,1.079-0.565,0.876c-0.566-0.207-0.927-0.876-1.029-0.104
		c-0.103,0.772-0.462,1.079-0.513,0.513c-0.053-0.565-0.207-0.615-0.567-0.513c-0.36,0.104-0.309,1.029-0.874,1.079
		c-0.564,0.051-0.05-0.617-0.719,0.359c-0.669,0.979-1.235,1.956-1.235,1.956s-1.646,2.055-1.184,2.828
		c0.464,0.771,0.465,1.595,0.105,1.955c-0.36,0.359-0.259,1.079,0.203,1.593c0.463,0.517,0.412,0.979,0.412,0.979
		s0.41,0.359,0.206,0.872c-0.206,0.517,0.926-0.05,0.154,0.567C109.111,172.317,108.752,173.756,109.574,173.602z"/>
</g>
</svg>
