<?xml version="1.0" encoding="utf-8"?>
<!-- Generator: Adobe Illustrator 26.0.3, SVG Export Plug-In . SVG Version: 6.00 Build 0)  -->
<svg version="1.1" xmlns="http://www.w3.org/2000/svg" xmlns:xlink="http://www.w3.org/1999/xlink" x="0px" y="0px"
	 viewBox="0 0 200 200" enable-background="new 0 0 200 200" xml:space="preserve">
<g id="Isolation_Mode">
	<path fill="#1E8346" d="M66.736,73.156c0.419-1.055,0.839-2.111,1.258-3.166h1.056l0.974-1.827l3.856-3.856l2.812-4.911
		l2.748-3.897l3.572-0.406l3.491-3.815l1.258-0.772c0.108-0.374,0.185-0.828,0.325-1.194c0.201-0.526,0.543-0.523,1.015-0.674
		l14.125-10.066l3.816-1.827l2.882-1.867l0.284-0.934h0.649c0.249-0.328,0.313-1.02,0.732-1.154c0.444-0.141,0.932,0.283,1.294-0.08
		c0.146-0.147,0.243-0.338,0.398-0.485c0.275-0.26,0.501-0.538,0.823-0.75c0.446-0.293,1.019-0.624,1.569-0.648
		c0.137-0.006,0.282,0.095,0.38,0.093c0.157-0.003,0.291-0.111,0.435-0.235c0.396-0.344,0.516-0.52,1.05-0.587
		c0.2-0.026,0.223,0.029,0.373-0.111c0.219-0.205,0.213-0.535,0.49-0.716c0.263-0.172,0.623-0.166,0.909-0.297
		c0.414-0.19,0.634-0.338,1.096-0.338c0.38,0,0.689,0.023,1.034-0.129c0.914-0.401,1.73-0.916,2.598-1.394
		c0.263-0.145,0.496-0.333,0.794-0.396c0.439-0.095,0.914-0.018,1.359-0.061c0.382-0.037,0.743-0.229,1.122-0.303
		c0.428-0.083,0.929-0.101,1.371-0.061c0.409,0.037,0.718,0.275,1.1,0.334c0.559,0.086,1.27,0.095,1.829,0.01
		c0.513-0.078,0.746-0.497,1.189-0.68c0.297-0.122,0.647-0.08,0.94-0.212c0.361-0.162,0.984-0.414,1.339-0.613
		c0.317-0.178,0.582-0.429,0.877-0.636c0.51-0.357,1.125-0.398,1.573-0.805c0.347-0.315,0.649-0.662,1.057-0.906
		c0.36-0.216,0.739-0.344,1.12-0.503c0.626-0.261,1.163-0.258,1.825-0.216c0.1,0.224,0.746,0.299,0.977,0.359
		c0.325,0.083,0.654,0.093,1.004,0.093l2.313-2.77c0.827,0,0.867-1.242,1.202-1.741c0.244-0.364,0.595-0.561,0.817-0.962
		c0.13-0.236,0.177-0.623,0.44-0.73c0.318-0.13,0.948,0.115,1.303,0.115c0.484,0,0.994-0.048,1.475,0
		c0.512,0.05,0.579,0.591,1.036,0.755c0.154-0.346,0.072-0.575,0.409-0.814c0.37-0.261,0.821-0.4,1.187-0.67
		c0.339-0.249,0.402-0.506,0.843-0.618c0.388-0.098,0.99-0.248,1.373-0.086c0.324,0.137,0.303,0.313,0.601-0.06
		c0.182-0.228,0.391-0.437,0.583-0.659c0.28-0.324,0.555-0.578,0.88-0.855c0.213-0.182,0.522-0.58,0.517-0.876
		c-0.005-0.337-0.474-0.617-0.361-1.004c0.1-0.344,0.692-0.493,0.999-0.503c0.252-0.516,0.488-0.992,0.607-1.538
		c0.065-0.297,0.402-0.765,0.293-1.065c-0.132-0.361-0.553-0.164-0.815-0.326c-0.315-0.195-0.274-0.584-0.265-0.902
		c0.491-0.24,1.356-0.18,1.887-0.097c0.245,0.038,0.342,0.12,0.541,0.246c0.142,0.09,0.211,0.223,0.372,0.099
		c0.154-0.118,0.089-0.46,0.09-0.624c0.003-0.291,0.016-0.481,0.19-0.725c0.322-0.45,0.617-0.122,1.053,0.025
		c0.438,0.148,0.674,0.3,0.956,0.657c0.232,0.295,0.439,0.48,0.815,0.529c0.256,0.034,0.869-0.012,0.686-0.368
		c-0.165-0.321-0.557-0.217-0.473-0.694c0.07-0.392,0.429-0.748,0.799-0.855c0.296-0.086,0.891-0.302,1.05,0.003
		c0.122,0.234-0.044,0.374-0.144,0.563c-0.116,0.219-0.156,0.43-0.123,0.682c0.051,0.391,0.254,0.546,0.632,0.584
		c0.524,0.053,1.04-0.131,1.558-0.152c0.426-0.018,0.859,0.03,1.281-0.023c0.519-0.065,1.026-0.209,1.545-0.281
		c0.402-0.056,0.558,0.059,0.921,0.191c0.333,0.121,0.657,0.137,0.78,0.53c0.131,0.418-0.05,0.868,0.024,1.296
		c0.078,0.452,0.271,0.912,0.414,1.348c0.185,0.564,0.304,1.134,0.462,1.705c0.216,0.775,0.479,1.504,0.483,2.322
		c0.002,0.551-0.041,1.083,0.113,1.614c0.113,0.391,0.34,0.723,0.455,1.112c0.107,0.36,0.089,0.772,0.073,1.145
		c-0.016,0.392-0.048,0.784-0.066,1.177c-0.869,0.117-1.812-0.064-2.67,0.138c-0.461,0.109-0.957,0.258-1.301,0.604
		c-0.297,0.299-0.246,0.627-0.41,0.974c-0.369,0.783-0.248,1.738-0.882,2.339c-0.313,0.296-0.561,0.177-0.945,0.248
		c-0.3,0.055-0.465,0.29-0.632,0.533c-0.537,0.78-0.616,1.544-0.776,2.437c-0.069,0.387-0.228,0.883-0.143,1.28
		c0.085,0.397,0.296,0.852,0.424,1.247c0.258,0.795,0.731,1.542,0.731,2.389l0.579,6.089l1.34,4.14l-1.309,1.705
		c-0.276,0.181-0.682,0.324-0.982,0.488c-0.285,0.156-0.571,0.321-0.841,0.504c-0.321,0.216-0.709,0.485-0.917,0.804l-4.079,0.639
		l1.248,4.475l0.365,8.433l2.283,2.618l-0.152,1.126l-1.4,2.923l-1.888,4.84l2.192,4.871l2.953,4.201l2.131,3.684l2.1,3.501
		l2.74,8.189l1.583,8.98l-2.466,2.801l0.03,0.914l-1.857,1.917h-1.796l-2.192,2.04l-0.274,1.583c-0.581,0.395-0.74,0.758-0.913,1.4
		c-0.053,0.194-0.099,0.613-0.229,0.763c-0.197,0.226-0.632,0.204-0.89,0.266c-0.481,0.115-1.064,0.376-1.383,0.743
		c-0.42,0.484-0.948,0.856-0.817,1.56c0.06,0.325,0.319,0.583,0.397,0.912c0.09,0.376-0.101,0.663-0.092,1.024l-2.314,2.77
		l-2.984,7.367c0,0.295-0.016,0.521,0,0.812c0.018,0.317-0.112,0.637-0.055,0.944c0.089,0.487,0.294,0.908,0.299,1.41
		c0.01,0.913-0.173,1.799-0.442,2.671c-0.148,0.48-0.316,0.791-0.883,0.859c-0.512,0.061-1.015,0.04-1.491,0.282
		c-1.034,0.525-2.05,0.3-3.176,0.359c-0.382,0.02-0.597,0.23-0.952,0.379c-0.299,0.125-0.618,0.146-0.936,0.169
		c-0.608,0.045-0.928,0.26-1.374,0.669l-3.318,3.044c-0.157,0.037-0.226,0.131-0.366,0.194c-0.174,0.078-0.328,0.054-0.417,0.241
		c-0.118,0.247,0.034,0.661-0.049,0.932c-0.059,0.194-0.128,0.172-0.243,0.302c-0.163,0.184-0.269,0.503-0.343,0.739
		c-0.105,0.336-0.2,0.696-0.369,1.01c-0.096,0.178-0.28,0.316-0.389,0.492c-0.141,0.228-0.294,0.428-0.471,0.631
		c-0.288,0.33-0.765,0.677-0.887,1.111c-0.053,0.189-0.04,0.45-0.039,0.646c0.001,0.247,0.127,0.357,0.249,0.567
		c0.221,0.38,0.426,0.771,0.442,1.218c0.015,0.435-0.226,0.885-0.1,1.311c0.127,0.432,0.591,0.688,0.851,1.028
		c0.116,0.152-0.006,0.366,0.01,0.544c0.018,0.215,0.139,0.405,0.186,0.613c0.104,0.456-0.094,1.027-0.114,1.504
		c-0.018,0.415-0.038,0.819,0.044,1.23c0.101,0.504,0.169,0.958,0.139,1.476c-0.06,1.045,0.159,2.08-0.072,3.117
		c-0.044,0.199-0.091,0.394-0.148,0.587c-0.038,0.128-0.14,0.358-0.099,0.492c0.037,0.12,0.2,0.215,0.276,0.312
		c0.088,0.113,0.216,0.335,0.347,0.432c0.414,0.308,1.075-0.279,1.484,0.101c0.235,0.218,0.408,0.511,0.64,0.742
		c0.246,0.245,0.499,0.467,0.696,0.743c-0.299,0.325-0.466,0.67-0.728,1.015c-0.207,0.271-0.463,0.46-0.757,0.629
		c-0.44,0.253-0.805,0.636-1.3,0.777c-0.37,0.106-0.688,0.078-1.001,0.356c-0.346,0.307-0.121,0.692-0.178,1.102
		c-0.046,0.326-0.141,0.643-0.173,0.97c-0.031,0.318-0.023,0.56-0.145,0.865c-0.121,0.304-0.344,0.476-0.49,0.755
		c-0.141,0.269-0.232,0.559-0.278,0.859c-0.047,0.309,0.109,0.633,0.057,0.913c-0.791,0.592-1.226,1.378-1.562,2.272
		c-0.174,0.466-0.625,0.745-0.987,1.052c-0.375,0.318-0.53,0.728-0.759,1.142c-0.676,0.278-0.556,1.039-0.711,1.639
		c-0.231,0.895-0.544,1.725-0.696,2.642c-0.056,0.337-0.319,1.308-0.623,2.446c-0.582,2.18-0.634,2.07-0.731,2.731
		c-0.039,0.267-0.111,0.83-0.35,1.559c-0.107,0.325-0.215,0.585-0.289,0.755c-2.187-0.127-4.382-0.249-6.586-0.366
		c-3.62-0.192-7.219-0.367-10.797-0.528c-1.367,0.338-2.733,0.677-4.099,1.015c-0.65-0.19-1.299-0.379-1.949-0.568
		c-1.042,0.325-2.083,0.649-3.125,0.974c-0.433-0.244-0.866-0.487-1.299-0.731c-0.165,0.281-0.365,0.562-0.609,0.832
		c-1.543,1.705-3.846,1.855-4.688,1.867c-0.372,0.934-0.744,1.867-1.116,2.801c-0.313-0.238-0.764-0.555-1.339-0.873
		c-0.891-0.491-1.337-0.737-1.806-0.771c-1.36-0.1-1.599,1.405-3.267,1.603c-0.707,0.084-0.627-0.19-2.436-0.304
		c-1.223-0.077-1.287,0.046-1.806-0.122c-1.319-0.426-2.065-1.421-2.065-1.421c-0.276-0.368-0.401-0.687-0.807-0.852
		c-0.343-0.139-0.542-0.03-0.944-0.168c-0.379-0.13-0.614-0.368-0.852-0.624c0,0-1.912-2.053-2.72-3.998
		c-0.055-0.133-0.105-0.267-0.122-0.447c-0.058-0.614,0.355-0.825,0.305-1.238c-0.029-0.239-0.177-0.245-1.076-1.055
		c-0.425-0.383-0.684-0.646-0.913-1.035c-0.173-0.295-0.311-0.536-0.224-0.751c0.144-0.354,0.76-0.296,0.812-0.569
		c0.035-0.182-0.233-0.259-0.386-0.548c-0.259-0.491,0.14-0.972,0.223-1.664c0.087-0.72-0.213-1.306-0.406-1.684
		c-0.791-1.549-2.908-2.347-4.059-2.78c-0.275-0.104-0.767-0.276-1.218-0.731c-0.288-0.291-0.347-0.482-0.771-1.279
		c-0.575-1.08-0.87-1.624-1.218-1.827c-0.357-0.208-0.752-0.206-1.542-0.203c-0.857,0.004-1.386,0.006-2.029,0.224
		c-0.53,0.179-1.274,0.911-2.76,2.374c-0.217,0.214-0.489,0.489-0.467,0.832c0.028,0.42,0.47,0.543,0.467,0.954
		c-0.002,0.364-0.35,0.744-0.629,0.731c-0.291-0.014-0.357-0.449-0.609-0.447c-0.351,0.003-0.449,0.844-0.812,0.873
		c-0.277,0.021-0.326-0.46-0.812-0.751c-0.536-0.322-1.31-0.237-1.786,0.101c-0.363,0.258-0.291,0.477-0.67,0.934
		c-0.522,0.629-1.201,0.868-1.563,0.995c-0.337,0.118-1.406,0.494-2.476,0.081c-0.393-0.151-0.491-0.295-2.03-1.745
		c-0.746-0.703-1.119-1.055-1.157-1.076c-1.299-0.723-2.552,0.125-5.398,0.974c-0.127,0.038-0.402,0.119-0.589,0.365
		c-0.2,0.264-0.151,0.521-0.214,0.814c-0.044,0.201-0.151,0.47-0.963,1.195c-0.439,0.392-0.948,0.847-1.603,1.238
		c-1.095,0.654-3.363,1.585-6.697,1.989c-2.975,0.361-4.545,0.551-5.541-0.183c-0.257-0.19-0.893-0.748-1.624-0.629
		c-0.402,0.066-0.542,0.289-1.035,0.305c-0.107,0.003-0.739,0.024-1.137-0.386c-0.333-0.343-0.166-0.642-0.446-1.116
		c-0.19-0.321-0.528-0.509-1.197-0.873c-0.57-0.309-1.003-0.487-1.989-0.893c-0.627-0.258-1.103-0.455-1.279-0.528
		c0.309-0.226,0.673-0.53,1.035-0.933c1.5-1.67,1.903-3.838,2.009-4.444c0.088-0.506,0.118-0.915,0.345-1.563
		c0.304-0.868,0.714-1.459,0.832-1.624c0.839-1.171,1.477-1.122,2.07-1.948c0.346-0.483,0.696-1.291,0.568-2.679l-4.728-16.844
		l-1.056-3.41l-0.122-2.882l0.934-2.841l0.203-1.705l0.771-1.623l2.841-3.004l1.867-2.233c0.825-0.704,1.651-1.407,2.476-2.11
		c0.363-0.88,0.548-1.652,0.65-2.233c0.404-2.307-0.063-4.16-0.325-5.155c-0.255-0.968-0.389-1.477-0.771-2.111
		c-0.419-0.695-0.764-0.922-1.096-1.745c-0.287-0.712-0.133-0.797-0.406-1.258c-0.463-0.782-0.964-0.635-1.38-1.38
		c-0.034-0.06-0.413-0.763-0.244-1.583c0.095-0.456,0.294-0.636,0.406-0.893c0.498-1.141-1.097-2.933-1.502-3.369
		c-1.794-1.934-2.715-1.505-4.749-3.207c-2.082-1.742-3.064-3.821-3.49-4.749c-0.923-2.006-1.153-3.724-1.218-4.302
		c-0.197-1.762,0.154-1.804,0.081-3.897c-0.109-3.164-1.015-6.081-1.055-6.21c-0.174-0.548-0.534-1.609-0.65-3.044
		c-0.12-1.493,0.133-2.051,0.325-2.354c0.256-0.404,0.482-0.484,0.568-0.893c0.137-0.65-0.328-0.97-0.122-1.583
		c0.098-0.293,0.209-0.234,0.446-0.731c0.246-0.515,0.256-0.847,0.365-0.852c0.135-0.007,0.198,0.496,0.366,0.893
		c0.393,0.93,1.385,1.337,2.679,1.867c0.843,0.345,1.585,0.538,2.638,0.812c0.588,0.152,1.028,0.249,1.786,0.487
		c1.326,0.417,1.665,0.651,1.908,0.934c0.387,0.45,0.493,0.977,0.528,1.299c1.109,0.014,2.219,0.028,3.328,0.041
		c0.284-0.704,0.568-1.407,0.852-2.111c0.568,0.027,1.137,0.054,1.705,0.081c1.17-0.994,1.858-1.922,2.273-2.598
		c0.284-0.461,0.497-0.897,1.096-1.827c0.566-0.879,0.708-1.006,0.974-1.461c0.325-0.557,0.718-1.401,0.934-2.598
		c0.658,0.125,1.641,0.296,2.841,0.447c2.385,0.3,4.072,0.325,5.439,0.365c0.316,0.009,5.256,0.164,10.026,0.731
		C63.506,72.592,65.305,72.888,66.736,73.156z"/>
</g>
<g id="Layer_1">
</g>
</svg>
