<?xml version="1.0" encoding="utf-8"?>
<!-- Generator: Adobe Illustrator 26.0.3, SVG Export Plug-In . SVG Version: 6.00 Build 0)  -->
<svg version="1.1" xmlns="http://www.w3.org/2000/svg" xmlns:xlink="http://www.w3.org/1999/xlink" x="0px" y="0px"
	 viewBox="0 0 200 200" enable-background="new 0 0 200 200" xml:space="preserve">
<g id="Isolation_Mode">
	<path fill-rule="evenodd" clip-rule="evenodd" fill="#1E8346" d="M133.832,153.719l2.119-0.177l1.045,11.509l-0.779,4.103
		l-25.9-5.249l-0.444,3.284L95.537,166.5l-14.521-4.099l0.352-5.344l-31.944-3.793l-0.283,3.471l-12.164,2.599l-2.762-2.673
		l3.014-3.546L18.693,137.71l-2.612,3.158l-11.703-6.171l12.556-7.773l3.918,3.061l15.169-15.549l-1.922-2.479l2.583-5.372
		l7.224-5.607l3.918,1.847l2.957-9.755l3.315-11.543l-3.486-1l1.083-6.252l5.295-2.625l2.97,2.998l16.351-16.231l-2.921-1.756
		l3.05-10.61l12.578-1.51l0.853,3.632l8.266-1.373l-0.128-0.876l8.445-2.63l9.607-1.146l0.208,0.895l10.204-2.873l-0.7-2.03
		l-0.334-0.968l24.539-8.369l4.043,21.551l29.245,9.097l-1.016,48.653l-0.343,1.384l1.785,0.683l1.467,0.83l1.301,0.946
		c0,0,2.292,2.457,3.126,3.634c0.834,1.177,1.719,2.284,2.286,3.574c0.567,1.289,1.512,2.582,1.798,5.186
		c0.287,2.604,0.605,4.18,0.385,6.961c-0.22,2.777-0.875,7.004-1.366,8.153c-0.492,1.15-1.304,2.567-2.201,3.74
		c-0.896,1.173-2.631,3.156-3.437,3.861c-0.807,0.705-1.127,0.797-1.634,1.1c-0.51,0.305-1.207,0.686-1.752,0.925
		c-0.526,0.231-1.802,0.643-1.802,0.643l-1.931,0.417l-2.029,0.125l-2.374-0.068l-1.968-0.291l-2.622-0.986l-2.517-1.553
		l-0.503-0.415l-1.268-1.05l-1.124-1.322l-1.551-1.932l-0.787-1.324l-0.501,0.016l-0.268-0.626l-2.505,0.354l-13.001,1.839
		l-6.291,0.89l-7.048,0.934L133.832,153.719L133.832,153.719z"/>
</g>
<g id="Layer_1">
</g>
</svg>
