<?xml version="1.0" encoding="utf-8"?>
<!-- Generator: Adobe Illustrator 26.0.3, SVG Export Plug-In . SVG Version: 6.00 Build 0)  -->
<svg version="1.1" id="Isolation_Mode" xmlns="http://www.w3.org/2000/svg" xmlns:xlink="http://www.w3.org/1999/xlink" x="0px"
	 y="0px" viewBox="0 0 200 200" enable-background="new 0 0 200 200" xml:space="preserve">
<g>
	<path fill="#1E8346" d="M14.958,77.574c0.29,0.763,0.02,1.607,0.314,2.374c0.382,0.995,1.678,2.986,2.58,3.586
		c0.812,0.541,1.854,0.335,2.701,0.766c0.747,0.38,1.669,1.256,2.208,1.899c1.886,2.252-1.401,3.753-2.391,5.643
		c-0.981,1.873,0.079,4.162,0.129,6.176c0.052,2.126,0.434,4.572,1.824,6.238c0.803,0.961,2.248,1.954,3.41,2.387
		c0.755,0.281,1.801,0.177,2.508,0.619c1.439,0.899,0.812,2.53,1.591,4.002c0.52,0.981,1.47,2.196,2.107,3.069
		c0.87,1.192,2.352,1.957,2.271,3.662c-0.063,1.328-1.018,2.293-0.518,3.79c0.383,1.146,1.372,2.045,1.76,3.218
		c0.557,1.685,0.72,3.601,1.208,5.339c0.438,1.558,0.489,1.767,1.906,1.888c0.6,0.051,1.435-0.174,2.005,0.004
		c0.614,0.191,0.989,0.924,1.688,1.032c1.168,0.18,2.16-0.897,3.012-1.462c0.748,1.074,1.075,1.846,2.456,2.32
		c1.884,0.647,3.189,0.151,4.555,1.811c0.462,0.562,0.555,0.995,1.206,1.494c1.521,1.168,3.69,0.537,5.144,1.613
		c1.285,0.951,2.06,2.954,3.234,4.19c2.96,3.12,3.415,7.694,4.932,11.651c0.526,1.372,1.284,2.959,1.51,4.406
		c0.3,1.915-0.009,4.297-0.009,6.203c1.817,2.611,2.983,5.235,4.071,8.222c0.601,1.653,0.821,3.372,1.165,5.098
		c0.225,1.131,0.814,2.83,0.29,3.914c-0.471,0.976-2.014,1.695-2.879,2.335c-0.341,0.252-1.423,0.732-1.563,1.019
		c-0.585,1.198,0.901,3.875,1.263,4.972c0.702,2.126,1.131,4.589,3.842,3.163c1.09-0.573,1.293-2.331,2.281-2.617
		c1.226-0.355,1.636,1.008,2.242,1.576c0.751,0.705,1.557,0.763,2.747,0.83c0.676,0.038,2.504,0.349,3.042-0.135
		c0.738-0.664,0.339-2.084,0.45-2.923c0.28-2.128,1.731-1.822,3.177-3.081c1.709-1.486,0.373-2.29-0.591-3.868
		c-1.056-1.729-0.206-1.66,0.142-3.421c0.319-1.613-0.923-2.714-1.096-4.267c-0.162-1.463-0.299-3.522,0.11-4.916
		c0.136-0.465,0.516-0.77,0.641-1.23c0.205-0.748-0.131-1.253-0.059-2.021c0.146-1.55,1.493-2.12,2.418-3.255
		c1.249-1.53,0.98-1.602,2.955-1.845c0.436-0.053,1.334-0.099,1.755-0.248c0.475-0.169,0.76-0.56,1.205-0.74
		c1.312-0.529,3.214,0.073,4.45-0.529c0.718-0.349,1.114-1.143,1.606-1.848c1.551-2.222,3.261-3.184,5.983-3.586
		c2.369-0.35,3.788,0.231,5.481-1.457c1.446-1.441,2.466-3.262,3.965-4.683c2.727-2.585,5.317-3.045,8.636-1.765
		c2.915,1.123,4.111,4.847,5.387,7.518c0.929,1.944,0.829,4.659,2.586,6.14c1.576,1.329,3.491,0.555,5.056-0.338
		c0.522-0.298,1.593-1.164,2.281-1.107c0.497,0.042,1.066,0.961,1.57,0.575c1.049-0.803-1.247-3.308-1.345-4.078
		c-0.098-0.775,0.523-1.199,0.811-1.899c0.353-0.856,0.195-1.309,0.396-2.204c0.194-0.866,0.746-1.188,1.114-1.952
		c0.542-1.127,0.35-2.507,1.025-3.571c1.361,0.259,1.896-1.415,2.622-2.209c0.199-0.218,0.732-0.1,0.968-0.373
		c0.514-0.593,0.294-1.494,0.736-2.158c2.087-3.135,4.107,1.48,6.165,1.42c0.086-1.248-0.912-2.475-0.871-3.828
		c0.049-1.612,0.824-1.802,2.355-2.132c1.222-0.264,3.289-0.527,4.44,0.154c1.204,0.714,1.198,2.977,1.359,4.325
		c1.486,0.175,1.994-1.195,3.299-1.48c1.43-0.313,2.08-0.119,3.299-1.078l-0.16-0.997c-0.412-0.973-0.558-2.088-0.947-3.082
		c-0.828-2.113-1.723-2.739-3.617-3.953c-1.605-1.03-1.729-1.303-1.127-3.184c0.856-2.672,1.458-2.847,3.961-2.328
		c2.504,0.52,1.254-0.558,3.22-1.795c1.415-0.889,2.09,0.018,2.944-2.184c0.976-2.513-0.625-5.274,0.047-7.875
		c0.591-2.288,3.448-2.93,4.044-5.636c1.815-0.048,2.687-2.55,3.151-4.076c-2.299-1.948,3.271-3.256,3.974-4.041
		c1.176-1.315-0.084-4.674,0.396-6.396c0.222-0.798,0.52-2.351,0.902-3.243c0.602-1.406,1.62-1.402,2.551-2.513
		c0.969-1.157,0.802-1.461,0.125-2.683c-0.504-0.909-2.68-3.273-3.787-3.749c-1.292-0.556-3.919,0.033-5.105,0.485
		c-1.077,0.411-2.704,2.158-3.886,1.814c-0.809-0.235-1.344-1.876-2.221-2.378c-0.862-0.493-2.024-0.202-2.814-0.671
		c-2.696-1.596-0.606-5.862-5.153-4.295c-2.173,0.748-1.709,0.814-3.642,0.012c-1.37-0.568-1.831-1.005-3.47-1.197
		c-2.271-0.265-8.328,0.751-8.77-1.99c-0.137-0.845,0.196-1.857,0.703-2.908c0.869-1.8,2.255-3.714,2.689-5.102
		c0.485-1.552,1.878-6.364,0.521-8.044c-0.088-0.109-0.187-0.205-0.299-0.286c-1.999-1.441-3.728,2.188-5.852-0.046
		c-1.809-1.902-0.353-2.714-3.721-3.281c-0.282-0.047-0.649-0.066-1.064-0.073l0.029-0.021h-3.144
		c-0.654-0.039-1.219-0.127-1.565-0.314c-1.904-1.034-2.81-5.87-2.722-7.771c0.117-2.538,1.575-7.167-1.229-8.408
		c-2.503-1.107-1.456,0.156-2.629,1.152c-0.439,0.373-1.348,1.553-2.367,0.713c-0.677-0.557-0.388-2.117-0.833-2.867
		c-0.379-0.64-1.18-0.845-1.529-1.516c-0.669-1.285-0.862-4.105-1.132-5.61c-0.219-1.22,0.294-3.428-0.823-4.374
		c-0.535-0.453-1.873-0.223-2.555-0.533c-0.913-0.414-1.701-1.355-2.479-1.937c-0.768,3.32-3.609,3.278-5.78,1.521
		c-1.666-1.348-1.351-1.897-3.409-1.828c-1.564,0.052-2.645,0.282-3.761,1.345c-2.224-1.862-4.585-4.093-7.092-5.525
		c-1.756-1.004-3.439-0.82-4.001-2.412c-0.045-0.128,0.232-0.937,0.167-1.259c-0.144-0.714-0.969-1.384-1.339-2.008
		c1.567,0.77,4.049,0.723,5.699,0.322c0.068-2.372-2.44-5.878-4.345-7.093c-1.079-0.69-3.366-1.36-4.504-0.643
		c-0.952,0.6-0.894,1.319-1.987,1.724c-1.806,0.669-4.756-0.72-6.447,0.352c-0.721,0.457-1.242,2.377-2.003,3.185
		c-2.291,2.431-5.268,2.417-8.436,2.472c-0.152,1.395,1.268,2.553,2.094,3.512c0.698,0.809,1.937,1.725,2.293,2.724
		c0.201,0.562-0.116,1.327,0.084,1.933c0.688,2.084,3.42,1.985,3.946,4.589c0.676,3.346-1.377,3.63-3.466,5.82
		c2.379,0.882,1.329,2.303,0.502,3.801c-0.718,1.301-1.083,3.39-2.726,4.178c-0.602-2.165-3.81-1.943-5.117-0.507
		c-0.79,0.869-0.487,2.29-0.831,3.336c-0.418,1.27-1.427,2.455-2.3,3.438c-1.441-0.448-2.67-1.843-4.094-1.013
		c-2.407,1.403-2.32,5.876-1.059,7.853c0.275,0.43,0.933,1.034,1.513,1.649h-3.099l3.622,2.631c-0.687,0.73-1.857,1.46-2.359,1.741
		c-1.104,0.619-2.696,2.076-4.301,3.121c-1.275,0.832-2.558,1.404-3.609,1.087c-0.842-0.253-1.202-0.779-1.676-1.087h-1.241
		l-0.055-0.168c-0.135,0.033-0.281,0.076-0.441,0.135c-0.831,0.306-1.721,0.873-2.586,1.147l-0.047-0.579
		c-0.646,0.37-1.377,0.517-2.09,0.679c-0.872,0.197-1.421,0.544-2.198,0.761c-0.061-1.422-0.685-1.081-1.333-0.413
		c-0.556,0.571-1.128,1.382-1.38,1.538c-0.665,0.411-1.671,0.202-2.35,0.655c-1.034,0.69-0.533,0.773-0.34,2.032
		c0.442,2.884-1.357,6.547-4.211,7.309c-1.635,0.436-2.895,0.314-4.137-0.717c-0.77-0.638-1.489-1.617-2.312-2.011
		c-0.694,0.572-0.888,1.321-1.747,1.429c-0.816,0.103-2.299-0.853-2.805-1.45c-0.839-0.988-0.731-1.757-2.174-1.879
		c-1.346-0.114-2.98,0.803-4.105,1.469c-1.784,1.056-2.666,2.097-2.346,4.239C14.295,76.721,14.688,76.865,14.958,77.574z"/>
</g>
</svg>
