<?xml version="1.0" encoding="utf-8"?>
<svg version="1.0" width="450" height="300" id="svg548" xmlns="http://www.w3.org/2000/svg">
  <rect width="450" height="300" x="0" y="0" id="rect552" style="fill:#bf0a30"/>
  <path d="M 37.49998,148.84088 L 224.22459,275 L 412.49999,148.59512 L 224.22459,24.999999 L 37.49998,148.84088 z" id="path558" style="fill:#002868"/>
  <path d="M 83.99998,149.12834 L 224.41689,244 L 365.99999,148.94353 L 224.41689,56 L 83.99998,149.12834 z" id="path2508" style="fill:#fff"/>
  <path d="M 229.48396,49.981066 L 223.96299,45.981502 L 218.45203,50 L 220.54659,43.508953 L 215.02499,39.505124 L 221.84047,39.493001 L 223.9389,33 L 226.0565,39.483554 L 232.87499,39.474488 L 227.36831,43.49367 L 229.48396,49.981066 z" id="polygon560" style="fill:#fff"/>
  <path d="M 234.96407,190 L 224.99958,197.08113 L 215.02363,190.00635 L 218.8335,201.45872 L 208.86785,208.54737 L 221.18701,208.5442 L 225.00387,220 L 228.80753,208.54568 L 241.13212,208.53711 L 231.16391,201.46111 L 234.96407,190 z" id="path2417" style="fill:#002868"/>
  <path d="M 202.6998,190 L 192.73531,182.91888 L 182.75936,189.99365 L 186.56923,178.54129 L 176.60358,171.45265 L 188.92274,171.4558 L 192.7396,160 L 196.54326,171.45432 L 208.86785,171.46291 L 198.89964,178.5389 L 202.6998,190 z" id="path2421" style="fill:#002868"/>
  <path d="M 215.98107,243.54103 L 211.9815,249.062 L 216,254.57296 L 209.50896,252.4784 L 205.50513,258 L 205.49301,251.18452 L 199,249.0861 L 205.48356,246.96849 L 205.47449,240.15 L 209.49367,245.65668 L 215.98107,243.54103 z" id="path3655" style="fill:#fff"/>
  <path d="M 233.01893,243.54103 L 237.0185,249.062 L 233,254.57296 L 239.49104,252.4784 L 243.49487,258 L 243.50699,251.18452 L 250,249.0861 L 243.51644,246.96849 L 243.52551,240.15 L 239.50633,245.65668 L 233.01893,243.54103 z" id="path3694" style="fill:#fff"/>
  <path d="M 202.6998,190 L 192.73531,182.91888 L 182.75936,189.99365 L 186.56923,178.54129 L 176.60358,171.45265 L 188.92274,171.4558 L 192.7396,160 L 196.54326,171.45432 L 208.86785,171.46291 L 198.89964,178.5389 L 202.6998,190 z" style="fill:#002868" transform="matrix(1, 0, 0, 1, 64.5284194946289, 0)"/>
  <path d="M 202.6998,190 L 192.73531,182.91888 L 182.75936,189.99365 L 186.56923,178.54129 L 176.60358,171.45265 L 188.92274,171.4558 L 192.7396,160 L 196.54326,171.45432 L 208.86785,171.46291 L 198.89964,178.5389 L 202.6998,190 z" style="fill:#002868" transform="matrix(1, 0, 0, 1, 32.2642707824707, -85)"/>
  <path d="M 215.98107,243.54103 L 211.9815,249.062 L 216,254.57296 L 209.50896,252.4784 L 205.50513,258 L 205.49301,251.18452 L 199,249.0861 L 205.48356,246.96849 L 205.47449,240.15 L 209.49367,245.65668 L 215.98107,243.54103 z" style="fill:#fff" transform="matrix(1, 0, 0, 1, 151.47775268554688, -119)"/>
  <path d="M 215.98107,243.54103 L 211.9815,249.062 L 216,254.57296 L 209.50896,252.4784 L 205.50513,258 L 205.49301,251.18452 L 199,249.0861 L 205.48356,246.96849 L 205.47449,240.15 L 209.49367,245.65668 L 215.98107,243.54103 z" style="fill:#fff" transform="matrix(1, 0, 0, 1, 124.4777603149414, -137)"/>
  <path d="M 215.98107,243.54103 L 211.9815,249.062 L 216,254.57296 L 209.50896,252.4784 L 205.50513,258 L 205.49301,251.18452 L 199,249.0861 L 205.48356,246.96849 L 205.47449,240.15 L 209.49367,245.65668 L 215.98107,243.54103 z" style="fill:#fff" transform="matrix(1, 0, 0, 1, 97.4777603149414, -155)"/>
  <path d="M 215.98107,243.54103 L 211.9815,249.062 L 216,254.57296 L 209.50896,252.4784 L 205.50513,258 L 205.49301,251.18452 L 199,249.0861 L 205.48356,246.96849 L 205.47449,240.15 L 209.49367,245.65668 L 215.98107,243.54103 z" style="fill:#fff" transform="matrix(1, 0, 0, 1, 70.4777603149414, -172)"/>
  <path d="M 215.98107,243.54103 L 211.9815,249.062 L 216,254.57296 L 209.50896,252.4784 L 205.50513,258 L 205.49301,251.18452 L 199,249.0861 L 205.48356,246.96849 L 205.47449,240.15 L 209.49367,245.65668 L 215.98107,243.54103 z" style="fill:#fff" transform="matrix(1, 0, 0, 1, 43.477760314941406, -190)"/>
  <path d="M 215.98107,243.54103 L 211.9815,249.062 L 216,254.57296 L 209.50896,252.4784 L 205.50513,258 L 205.49301,251.18452 L 199,249.0861 L 205.48356,246.96849 L 205.47449,240.15 L 209.49367,245.65668 L 215.98107,243.54103 z" style="fill:#fff" transform="matrix(1, 0, 0, 1, -120, -82)"/>
  <path d="M 215.98107,243.54103 L 211.9815,249.062 L 216,254.57296 L 209.50896,252.4784 L 205.50513,258 L 205.49301,251.18452 L 199,249.0861 L 205.48356,246.96849 L 205.47449,240.15 L 209.49367,245.65668 L 215.98107,243.54103 z" style="fill:#fff" transform="matrix(1, 0, 0, 1, -96, -66)"/>
  <path d="M 215.98107,243.54103 L 211.9815,249.062 L 216,254.57296 L 209.50896,252.4784 L 205.50513,258 L 205.49301,251.18452 L 199,249.0861 L 205.48356,246.96849 L 205.47449,240.15 L 209.49367,245.65668 L 215.98107,243.54103 z" style="fill:#fff" transform="matrix(1, 0, 0, 1, -72, -50)"/>
  <path d="M 215.98107,243.54103 L 211.9815,249.062 L 216,254.57296 L 209.50896,252.4784 L 205.50513,258 L 205.49301,251.18452 L 199,249.0861 L 205.48356,246.96849 L 205.47449,240.15 L 209.49367,245.65668 L 215.98107,243.54103 z" style="fill:#fff" transform="matrix(1, 0, 0, 1, -48, -33)"/>
  <path d="M 215.98107,243.54103 L 211.9815,249.062 L 216,254.57296 L 209.50896,252.4784 L 205.50513,258 L 205.49301,251.18452 L 199,249.0861 L 205.48356,246.96849 L 205.47449,240.15 L 209.49367,245.65668 L 215.98107,243.54103 z" style="fill:#fff" transform="matrix(1, 0, 0, 1, -24, -17)"/>
  <path d="M 215.98107,243.54103 L 211.9815,249.062 L 216,254.57296 L 209.50896,252.4784 L 205.50513,258 L 205.49301,251.18452 L 199,249.0861 L 205.48356,246.96849 L 205.47449,240.15 L 209.49367,245.65668 L 215.98107,243.54103 z" style="fill:#fff" transform="matrix(1, 0, 0, 1, -144, -99.07499694824219)"/>
  <path d="M 233.01893,243.54103 L 237.0185,249.062 L 233,254.57296 L 239.49104,252.4784 L 243.49487,258 L 243.50699,251.18452 L 250,249.0861 L 243.51644,246.96849 L 243.52551,240.15 L 239.50633,245.65668 L 233.01893,243.54103 z" style="fill:#fff" transform="matrix(1, 0, 0, 1, -151, -119)"/>
  <path d="M 233.01893,243.54103 L 237.0185,249.062 L 233,254.57296 L 239.49104,252.4784 L 243.49487,258 L 243.50699,251.18452 L 250,249.0861 L 243.51644,246.96849 L 243.52551,240.15 L 239.50633,245.65668 L 233.01893,243.54103 z" style="fill:#fff" transform="matrix(1, 0, 0, 1, -124, -137)"/>
  <path d="M 233.01893,243.54103 L 237.0185,249.062 L 233,254.57296 L 239.49104,252.4784 L 243.49487,258 L 243.50699,251.18452 L 250,249.0861 L 243.51644,246.96849 L 243.52551,240.15 L 239.50633,245.65668 L 233.01893,243.54103 z" style="fill:#fff" transform="matrix(1, 0, 0, 1, -97, -155)"/>
  <path d="M 233.01893,243.54103 L 237.0185,249.062 L 233,254.57296 L 239.49104,252.4784 L 243.49487,258 L 243.50699,251.18452 L 250,249.0861 L 243.51644,246.96849 L 243.52551,240.15 L 239.50633,245.65668 L 233.01893,243.54103 z" style="fill:#fff" transform="matrix(1, 0, 0, 1, -70, -172)"/>
  <path d="M 233.01893,243.54103 L 237.0185,249.062 L 233,254.57296 L 239.49104,252.4784 L 243.49487,258 L 243.50699,251.18452 L 250,249.0861 L 243.51644,246.96849 L 243.52551,240.15 L 239.50633,245.65668 L 233.01893,243.54103 z" style="fill:#fff" transform="matrix(1, 0, 0, 1, -43, -190)"/>
  <path d="M 233.01893,243.54103 L 237.0185,249.062 L 233,254.57296 L 239.49104,252.4784 L 243.49487,258 L 243.50699,251.18452 L 250,249.0861 L 243.51644,246.96849 L 243.52551,240.15 L 239.50633,245.65668 L 233.01893,243.54103 z" style="fill:#fff" transform="matrix(1, 0, 0, 1, 144, -99.07499694824219)"/>
  <path d="M 233.01893,243.54103 L 237.0185,249.062 L 233,254.57296 L 239.49104,252.4784 L 243.49487,258 L 243.50699,251.18452 L 250,249.0861 L 243.51644,246.96849 L 243.52551,240.15 L 239.50633,245.65668 L 233.01893,243.54103 z" style="fill:#fff" transform="matrix(1, 0, 0, 1, 120, -82)"/>
  <path d="M 233.01893,243.54103 L 237.0185,249.062 L 233,254.57296 L 239.49104,252.4784 L 243.49487,258 L 243.50699,251.18452 L 250,249.0861 L 243.51644,246.96849 L 243.52551,240.15 L 239.50633,245.65668 L 233.01893,243.54103 z" style="fill:#fff" transform="matrix(1, 0, 0, 1, 96, -66)"/>
  <path d="M 233.01893,243.54103 L 237.0185,249.062 L 233,254.57296 L 239.49104,252.4784 L 243.49487,258 L 243.50699,251.18452 L 250,249.0861 L 243.51644,246.96849 L 243.52551,240.15 L 239.50633,245.65668 L 233.01893,243.54103 z" style="fill:#fff" transform="matrix(1, 0, 0, 1, 72, -50)"/>
  <path d="M 233.01893,243.54103 L 237.0185,249.062 L 233,254.57296 L 239.49104,252.4784 L 243.49487,258 L 243.50699,251.18452 L 250,249.0861 L 243.51644,246.96849 L 243.52551,240.15 L 239.50633,245.65668 L 233.01893,243.54103 z" style="fill:#fff" transform="matrix(1, 0, 0, 1, 48, -33)"/>
  <path d="M 233.01893,243.54103 L 237.0185,249.062 L 233,254.57296 L 239.49104,252.4784 L 243.49487,258 L 243.50699,251.18452 L 250,249.0861 L 243.51644,246.96849 L 243.52551,240.15 L 239.50633,245.65668 L 233.01893,243.54103 z" style="fill:#fff" transform="matrix(1, 0, 0, 1, 24, -17)"/>
</svg>