<?xml version="1.0" encoding="utf-8"?>
<!-- Generator: Adobe Illustrator 26.0.3, SVG Export Plug-In . SVG Version: 6.00 Build 0)  -->
<svg version="1.1" xmlns="http://www.w3.org/2000/svg" xmlns:xlink="http://www.w3.org/1999/xlink" x="0px" y="0px"
	 viewBox="0 0 200 200" enable-background="new 0 0 200 200" xml:space="preserve">
<g id="Isolation_Mode">
	<path fill="#1E8346" d="M89.814,46.843c0.413,0.359,0.406,0.764,0.845,0.96c0.975,0.435,1.359-0.22,2.005,0.708
		c0.886-0.986,1.698-1.198,2.788-1.869c0.324-0.199,0.667-0.577,0.872-0.694c0.329-0.187,0.679,0.091,0.975-0.178
		c0.39-0.354,0.769-1.48,1.168-1.988c0.666-0.848,1.269-1.658,1.665-2.675c0.482-1.236,1.412-3.403,1.284-4.688
		c-0.049-0.493-0.455-0.925-0.459-1.535c-0.006-0.879,0.374-1.758,0.223-2.707c-0.203-1.279-1.098-1.973-0.773-3.141
		c0.305-1.096,1.04-2.222,1.386-3.402c0.175-0.597,0.216-1.183,0.591-1.661c0.434-0.553,1.247-0.604,1.657-1.071
		c0.734-0.835,0.127-2.573,0.008-3.67c-0.23-2.112-0.713-4.581-1.662-6.406c0.191-0.646,0.576-1.019,0.711-1.66
		c0.113-0.538-0.007-1.22,0.018-1.767c0.87,0.155,2.399,0.186,3.218,0.573c0.161,0.076,0.073,0.557,0.294,0.645
		c0.309,0.124,0.656,0.032,1.017,0.074c0.466,0.053,0.959-0.049,1.389,0.065c0.564,0.628,0.498,1.095,0.908,1.716
		c0.815-0.448,0.828-0.172,1.06,0.634c0.146,0.507,0.18,0.906,0.529,1.346c0.399,0.504,1.673,0.998,1.548,1.745
		c0.955-0.023,2.32,1.177,2.437,2.136c0.116,0.946-0.888,2.339-0.997,3.342c0.765-0.683,0.965-1.288,1.267-2.186
		c1.17,0.068,0.662,1.075,0.745,1.883c0.021,0.204,0.253,0.515,0.207,0.713c-0.074,0.314-0.259,0.17-0.332,0.339
		c-0.178,0.416-0.181,0.092-0.209,0.57c-0.017,0.286,0.157,0.653,0.186,0.949c0.258-0.131,0.456-0.439,0.592-0.622
		c0.268,0.651,0.277,1.683,0.984,2.05c0.845,0.437,1.107-0.362,1.09-1.117c0.604,0.135,1.185,1.463,1.699,1.855
		c-0.006-0.209,0.128-0.442,0.152-0.636c0.127,0.023,0.288-0.028,0.414-0.001c0.184-0.937-0.55-1.672-1.304-1.973
		c-0.43-0.172-1.477-0.38-1.463-0.948c0.288-0.147,0.586-0.036,0.891,0.073c-0.571-0.6-1.52-0.99-1.893-1.706
		c-0.255-0.49-0.17-1.36-0.147-1.898c1.239-0.264,1.36,1.798,2.482,1.85c-0.221-0.383-0.493-0.847-0.603-1.279
		c0.102,0.013,0.231-0.02,0.333-0.013c-0.112-0.218-0.38-0.598-0.452-0.842c0.471-0.129,0.825-0.819,1.264-0.915
		c1.535-0.338,2.296,0.907,3.146-0.977c0.478-1.06,0.335-1.772,1.012-2.482c0.302-0.317,0.786-0.322,1.074-0.866
		c0.395-0.746,0.101-1.529,0.971-1.863c1.269-0.486,1.832,0.929,2.311,1.777c0.748-0.062,1.461-0.143,2.215-0.112
		c-0.887,0.588-1.787,1.718-1.807,2.767c0.252-0.546,0.748-1.246,1.359-1.184c0.383,1.423-1.65,1.607-0.881,2.872
		c0.248,0.408,1.204,0.462,1.341,0.853c0.144,0.409-0.284,0.516-0.335,0.823c-0.1,0.601-0.422,0.937-0.329,1.652
		c1.555,0.295,1.592-0.843,2.599-1.499c0.378-0.246,0.985-0.249,1.446-0.446c0.556-0.238,0.648-0.57,0.907-0.736
		c0.39-0.251,1.072-0.371,1.583-0.667c0.909-0.526,0.245-0.418,0.804-1.211c0.444-0.63,0.202-0.291,0.902-0.634
		c0.583-0.286,1.027-0.223,1.329-0.89c0.356-0.786-0.159-1.877-0.295-2.531c-0.242-1.163-0.043-2.502,0.674-3.604
		c0.382-0.588,0.954-1.421,1.855-1.007c0.486,0.223,0.379,0.847,0.78,1.153c1.123,0.856,2.627-0.622,3.472,0.109
		c0.496,0.429,0.134,1.314,0.333,1.82c0.011,0.027,0.834,1.436,0.83,1.432c0.278,0.293,0.699,0.125,0.981,0.392
		c0.168,0.159,0.174,0.465,0.33,0.599c0.639,0.545,1.293,0.999,2.063,1.373c-0.148,0.732,2.016,2.012,2.746,2.242
		c-0.044,1.017-1.182,1.848-1.63,2.825c-0.416,0.907-0.239,1.848-0.562,2.807c-0.444,1.315-1.436,4.117-2.888,4.01
		c-0.065,1.376,0.083,2.363-0.566,3.525c-0.567,1.016-1.325,1.897-1.942,2.923c-0.807,1.344-1.562,2.738-2.374,4.068
		c-0.187,0.308-0.622,0.841-0.595,1.209c0.043,0.586,0.737,0.812,0.835,1.378c0.375-0.006,0.974-0.166,1.314-0.062
		c0.259,0.079,0.347,0.576,0.681,0.678c1.071,0.326,2.062-0.404,2.909-0.888c0.528-0.302,1.247-0.55,1.745-0.897
		c0.286-0.2,0.621-0.708,0.916-0.839c0.49-0.217,0.959-0.502,1.201,0.324c0.269,0.923-1.575,2.566-2.066,3.297
		c-0.795,1.184-1.846,2.438-3.161,1.368c-0.567,0.428-0.099,0.904-0.382,1.424c-0.282,0.516-0.837,0.706-1.276,1.06
		c-1.171,0.944-0.845,0.952-0.579,2.205c0.262,1.24-0.18,1.651-0.658,2.667c-0.24,0.508-0.718,1.157-0.889,1.533
		c-0.186,0.41-0.113,0.766-0.254,1.217c-0.289,0.917-1.048,1.772-0.928,2.819c0.178,1.553,0.772,0.408,1.67,1.16
		c0.785,0.657,0.304,2.206,1.232,2.991c0.432,0.365,1.057,0.396,1.558,0.821c0.519,0.441,0.831,0.957,1.186,1.53
		c2.474,3.993,6.358-2.076,8.039-3.904c0.892,0.614,1.271,1.82,2.426,2.282c0.702,0.28,1.391,0.275,2.136,0.754
		c0.585,0.376,2.015,1.28,2.171,2.059c0.1,0.5-0.479,1.065-0.388,1.432c0.149,0.604,0.554,0.587,0.943,1.05
		c1.092,1.299,1.588,1.35,2.947,0.188c1.732-1.482,2.126-0.057,3.836,0.71c1.351,0.605,3.23,0.909,4.687,0.547
		c0.947-0.235,1.207-0.801,1.983-1.174c0.721-0.347,1.936-0.276,2.69-0.252c-0.491,0.674-1.084,1.585-1.512,2.353
		c-0.57,1.024-0.486,2.293-1.281,3.07c-0.435,0.426-0.792,0.132-1.004,0.73c-0.157,0.445,0.121,1.147,0.344,1.518
		c0.662,1.103,1.716,1.181,2.845,1.236c0.084,1.883-0.422,3.878-1.018,5.636c1.282-0.273,2.045,0.417,1.991,1.882
		c-0.017,0.473-0.373,0.876-0.366,1.414c0.006,0.405,0.521,1.063,0.353,1.42c-0.463,0.984-2.377,0.274-2.609,2.022
		c-0.191,1.431,1.007,1.573,1.72,2.394c-0.85,1.201-3.419,2.072-4.795,2.461c-0.759,0.215-1.787,0.574-2.58,0.155
		c-0.836-0.441-0.518-0.857-0.879-1.744c-0.923,0.15-0.718,1.214-1.049,1.907c-0.593,1.243-1.252,1.298-2.484,1.723
		c-0.961,0.331-2.404,0.838-3.205,1.516c-0.61,0.516-0.978,1.385-1.54,1.966c-0.88,0.911-0.831,0.434-0.531,1.472
		c0.206,0.716,0.507,1.827,1.066,2.09c0.663,0.312,1.589-0.188,2.041,0.724c0.309,0.623-0.029,1.451-0.389,2.003
		c-0.675,1.033-1.876,1.633-2.712,2.488c-0.408,0.418-0.644,1.027-1.194,1.29c-0.74,0.355-1.646,0-2.432,0.241
		c-1.362,2.328-5.87,2.487-7.001,5.048c0.04-0.272-0.127-0.503-0.137-0.747c-1.881,0.742-2.83,1.237-4.241,2.72
		c-0.952,1.001-2.893,2.458-0.682,3.199c-0.299,1.173,0.742,1.486-0.267,2.54c-0.717,0.749-1.501,0.75-2.133,1.528
		c-0.896,1.102-1.354,2.201-1.665,3.522c-0.284,1.213-1.441,2.089-1.66,3.293c-0.131,0.721,0.328,1.288,0.534,1.836
		c0.217,0.58,0.354,1.135,0.534,1.786c0.36,1.302,1.165,2.894-0.356,3.966c-1.424-0.771-2.466-2.034-4.328-1.66
		c-0.85,0.17-1.136,0.489-1.689,1.179c-0.643,0.803-0.482,1.177-0.848,2.055c-0.259,0.622-0.831,1.106-1.082,1.772
		c-0.245,0.653-0.353,0.874-0.74,1.486c-0.795,1.254-1.706,1.431-2.812,2.4c-1.062,0.931-1.196,2.414-1.832,3.523
		c-0.549,0.957-0.806,2.069-1.344,3.089c-0.391,0.74-1.223,1.502-1.336,2.333c-0.152,1.122,1.161,2.186,0.752,3.186
		c-0.068,0.166-0.788,0.544-0.96,0.792c-0.14,0.202,0.077,0.493-0.092,0.698c-0.345,0.418-0.544,0.204-0.926,0.491
		c-0.676,0.509-1.574,1.802-1.614,2.842c-0.046,1.204-0.954,2.325-1.748,3.217c-0.945,1.063-1.898,1.316-3.001,2.03
		c-0.555,0.359-0.866,0.941-1.465,1.249c-0.451,0.232-0.885,0.336-1.338,0.586c-1.742,0.959-1.619,1.784-1.906,3.581
		c-0.826-0.174-1.277,1.382-1.345,1.966c-0.095,0.819-0.143,1.412-0.307,2.197c-0.052,0.248,0.068,0.55-0.066,0.791
		c-0.136,0.244-0.399,0.236-0.494,0.366c-0.196,0.27-0.264,0.579-0.419,0.963c-0.438,1.087-1.11,0.292-1.776,1.044
		c-0.105-0.175-0.366-0.262-0.47-0.416c-0.332,0.604-0.881,0.376-1.123,0.837c-0.157,0.298,0.008,0.7-0.166,1.016
		c-0.147,0.266-0.383,0.1-0.359,0.53c-0.553-0.018-1.07-0.389-1.502-0.405c-0.78-0.029-0.73,0.326-0.856,0.723
		c-0.204,0.643-0.088,1.17-0.655,1.696c-0.547,0.507-1.552,0.914-2.215,1.264c-0.653,0.345-1.561,0.812-2.165,1.034
		c-0.874,0.321-1.531-0.082-2.199,0.603c-0.522,0.537-0.739,1.534-1.354,1.881c-1.493,0.844-1.194-0.75-1.884-1.034
		c-0.295-0.121-0.722,0.114-1.026,0.008c-0.235-0.083-0.335-0.417-0.61-0.499c-0.454-0.136-1.194,0.164-1.503,0.495
		c-0.441,0.474-0.563,1.481-0.89,2.053c-0.279,0.488-0.69,0.966-1.106,1.344c-0.845,0.767-1.736,0.485-1.742,1.937
		c-0.003,0.809,0.297,2.279-0.336,2.945c-0.586,0.616-1.758,0.223-2.094-0.464c-0.704,1.412-1.819-0.397-2.55-0.631
		c-0.215,0.316-0.539,0.53-0.911,0.585c-0.096-0.33-0.282-0.625-0.575-0.81c-0.936,1.251-1.492-0.389-2.213-0.562
		c-0.011-1.325-0.053-3.437-0.798-4.53c-1.077-1.579-3.417-2.915-5.224-3.202c-0.123-0.886-0.146-1.751-0.569-2.576
		c-0.516-1.006-1.609-1.916-2.027-2.908c-0.292-0.691-0.074-1.57-0.261-2.299c-0.267-1.042-1.226-1.488-1.537-2.375
		c-0.505-1.439,0.503-3.224-0.84-4.469c-0.485-0.451-1.334-0.302-1.8-0.888c-0.369-0.464-0.308-1.017-0.389-1.563
		c-0.103-0.697-0.292-1.407-0.477-2.095c-0.175-0.653-0.934-0.999-0.87-1.661c0.203-2.097-2.38-2.752-2.371-4.742
		c0.004-0.78,0.037-1.3-0.37-1.985c-0.637-1.07-2.214-1.458-2.912-2.524c-0.776-1.185-0.019-1.948,0.544-3.181
		c-1.242-0.658-2.255-1.5-2.571-2.809c-0.392-1.624-0.51-3.002-1.717-4.344c-2.588-2.877-3.83-6.209-4.657-10.047
		c-0.305-1.415-0.475-2.176-1.273-3.447c-0.448-0.713-0.763-1.062-0.604-1.797c0.144-0.667,0.876-1.405,1.097-2.092
		c0.399-1.241,0.553-2.74,0.729-4.029c0.213-1.562,1.027-2.795,1.064-4.397c0.043-1.872-0.924-3.08-0.829-4.898
		c0.05-0.974,0.264-2.016,0.119-3.006c-0.124-0.849-0.57-1.306-0.388-2.181c0.221-1.067,0.814-1.678,0.862-2.887
		c0.033-0.835-0.08-1.635-0.12-2.446c-0.08-1.617,0.17-3.044-0.828-4.394c-1.212-1.639-2.482-1.369-4.285-0.706
		c-1.711,0.629-4.343,0.794-5.792-0.243c-0.236-0.72,0.021-1.234,0.118-1.946c0.125-0.912-0.412-1.45-0.367-2.208
		c0.038-0.638,0.689-1.051,1.138-1.414c0.888-0.72,1.06-0.704,0.892-1.966c-0.125-0.94-0.514-1.799-0.457-2.744
		c0.029-0.488,0.334-1.042,0.335-1.604c0.003-1.302-0.482-2.244-0.474-3.566c0.008-1.302,0.591-2.449,1.42-3.488
		c0.366-0.458,0.961-0.57,1.058-1.252c0.105-0.741-0.674-1.243-0.471-2.116c0.129-0.556,0.696-0.828,0.722-1.408
		c0.029-0.649-0.335-0.75-0.505-1.304c-0.378-1.224-0.533-1.626-1.486-2.605c-0.921-0.947-1.777-0.506-2.968-1.183
		c-0.834-0.475-1.849-2.539-2.632-2.383c0.28-0.928-0.109-1.849-0.562-2.661c-0.488-0.876-0.823-0.773-1.572-1.127
		c-1.521-0.719-2.583-2.712-4.514-3.115c0.027-1.062,0.275-2.617-0.317-3.542c-0.448-0.699-1.976-0.993-1.926-1.997
		c-0.601-0.826-1.125-1.618-1.594-2.568c-2.796,1.744-5.537-1.226-3.628-3.88c0.668-0.929,1.981-0.662,2.526-1.31
		c0.31-0.368,0.083-1.531,0.236-2.021c0.191-0.615,0.658-0.933,0.919-1.486c0.359-0.76,0.213-0.897,0.129-1.717
		c-0.115-1.114-0.788-4.199,0.81-4.37c-0.385-0.877-0.524-1.602-0.465-2.59c0.091-1.524,0.191-1.065,1.364-1.401
		c1.166-0.334,1.392-0.954,2.568-0.596c0.978,0.298,1.311,0.725,1.958,1.586c0.492-0.213,0.837-0.437,1.152-0.743
		c0.197-0.192,0.336-0.766,0.566-0.879c0.697-0.344,0.736,0.121,1.287,0.576c1.087,0.899,1.9,1,3.181,1.364
		c0.855,0.243,1.433,0.838,2.278,0.947c1.041,0.133,1.818-0.664,2.769-0.73c1.735-0.12,1.87,0.827,3.007,1.636
		c0.715,0.509,2.35,0.455,3.226,0.397c-0.134,0.731,0.318,0.958,0.477,1.538c0.189,0.686,0.043,0.826,0.006,1.48
		c-0.093,1.639,0.654,1.138,1.295,2.106c0.267,0.404,0.546,2.352,0.232,2.911c-0.311,0.552-1.268,0.448-1.427,1.097
		c0.01-0.039,0.501,1.38,0.552,1.523c0.451,0.032,0.915,0.023,1.36,0.026c-0.09,0.72-0.322,1.388-0.279,2.09
		c0.038,0.637,0.474,1.494,0.637,2.117c0.152,0.584-0.047,1.579,0.866,1.726c0.782,0.125,1.216-1.018,1.773-1.549
		c1.179,0.491,2.203-0.761,3.166-1.258c0.904-0.466,3.133-0.793,3.202,0.771c0.677,0.13,1.142-0.339,1.539-0.819
		c0.747,0.39,1.34,1.368,2.037,1.775c0.909,0.53,2.28,0.062,3.299,0.234c0.04-0.743,0.429-0.818,0.974-1.067
		c0.436-0.199,1.177-0.061,1.687-0.265c0.281-0.112,0.469-0.498,0.786-0.547c1.345-0.207,2.592,1.004,4.021-0.339
		c0.663-0.623,0.53-1.166,1.58-1.211c0.643-0.027,1.309,0.556,1.842,0.882c0.948,0.583,2.093,1.406,3.127,1.724
		c0.694,0.213,1.244-0.009,1.895-0.242c0.49-0.175,1.964-0.351,2.246-0.575c0.391-0.31,0.728-0.695,0.96-1.176
		c0.308-0.639,0.345-1.233,0.495-1.9C87.527,46.523,88.747,45.915,89.814,46.843z"/>
</g>
<g id="Layer_1">
</g>
</svg>
