<?xml version="1.0" encoding="utf-8"?>
<!-- Generator: Adobe Illustrator 26.0.3, SVG Export Plug-In . SVG Version: 6.00 Build 0)  -->
<svg version="1.1" id="Layer_1" xmlns="http://www.w3.org/2000/svg" xmlns:xlink="http://www.w3.org/1999/xlink" x="0px" y="0px"
	 viewBox="0 0 200 200" enable-background="new 0 0 200 200" xml:space="preserve">
<g>
	<polygon fill="#1E8346" points="55.378,174.706 55.261,174.605 55.261,174.607 55.164,174.607 55.164,174.848 55.378,174.908 	"/>
	<polygon fill="#1E8346" points="56.24,173.739 56.122,173.778 56.22,173.92 56.142,174.222 56.22,174.282 56.142,174.302 
		56.122,174.543 55.791,174.704 55.751,174.846 55.557,174.826 55.36,175.168 55.575,175.047 55.575,175.148 55.809,175.31 
		55.946,175.148 55.977,174.906 56.043,174.945 56.12,174.846 56.198,174.906 56.257,174.744 56.454,174.642 56.357,174.461 
		56.611,174.543 56.651,174.181 56.494,174.161 	"/>
	<polygon fill="#1E8346" points="53.111,174.605 53.091,174.384 52.837,174.202 52.737,174.242 52.698,174.463 52.62,174.463 
		52.62,174.262 52.503,174.222 52.249,174.464 52.269,174.585 52.075,174.605 52.152,174.746 51.955,174.908 51.975,175.148 
		51.798,175.027 51.779,175.287 52.072,175.591 52.523,175.51 52.837,175.228 52.74,175.148 52.897,174.987 52.837,174.826 
		52.994,174.826 	"/>
	<polygon fill="#1E8346" points="53.917,183.739 53.78,183.578 53.975,183.215 53.995,182.912 53.898,182.632 53.604,182.411 
		53.624,182.229 53.467,182.029 53.427,181.768 53.23,181.748 53.19,181.145 53.268,181.004 53.071,180.944 53.111,180.783 
		53.325,180.822 53.385,180.641 53.599,180.54 53.502,180.418 53.188,180.378 53.091,180.217 52.857,180.319 52.797,180.217 
		53.031,180.036 52.874,179.815 52.72,180.082 52.583,179.861 52.172,179.881 52.192,180.204 52.055,180.306 51.467,180.325 
		51.37,180.425 50.999,180.485 50.725,180.705 50.764,180.785 50.647,180.906 50.413,180.827 50.433,180.705 50.276,180.564 
		50.099,180.785 50.04,180.663 49.845,180.703 49.845,180.624 49.728,180.603 49.748,180.462 49.651,180.442 49.671,180.785 
		49.377,181.026 49.317,181.227 49.14,181.147 49.2,181.388 49.123,181.609 49.2,181.77 49.414,181.79 49.375,182.133 
		49.101,182.314 48.866,182.192 48.652,182.314 48.555,182.133 48.398,182.294 48.221,182.234 48.319,182.415 48.221,182.455 
		48.281,182.736 48.164,182.897 48.438,183.158 48.243,183.218 48.204,183.399 48.497,183.62 48.42,184.243 48.263,184.203 
		48.263,184.707 48.714,185.089 48.851,184.786 49.028,184.747 49.242,185.149 49.399,185.25 49.496,185.613 49.81,185.873 
		49.83,186.134 50.104,186.236 50.241,186.256 50.261,186.417 50.535,186.397 50.555,186.598 50.692,186.456 50.809,186.578 
		50.868,186.437 51.319,186.357 51.359,186.638 51.222,186.779 51.496,187 51.633,186.94 51.633,186.779 51.847,186.759 
		51.924,186.638 52.081,186.477 52.276,186.516 52.373,186.335 52.49,186.335 52.587,186.256 52.684,186.134 52.958,185.953 
		53.095,186.013 53.232,185.792 53.507,185.752 53.447,185.65 53.604,185.208 53.507,184.987 53.82,184.886 53.917,184.705 
		53.917,184.583 53.8,184.362 53.86,184.141 54.094,184.141 54.171,183.96 53.995,183.819 	"/>
	<polygon fill="#1E8346" points="54.538,174.709 54.587,174.815 54.284,174.748 54.244,174.989 54.361,175.049 54.518,174.908 
		54.753,174.967 54.635,174.625 	"/>
	<polygon fill="#1E8346" points="176.53,87.475 176.373,87.475 176.236,87.291 175.765,87.13 175.785,87.435 176.137,87.658 
		176.176,87.921 176.43,87.961 176.607,88.122 176.744,88.04 176.725,87.758 	"/>
	<polygon fill="#1E8346" points="194.789,93.736 194.829,93.635 194.652,93.31 194.652,92.926 194.495,92.824 194.555,92.318 
		194.281,92.095 194.261,91.73 194.047,91.284 194.107,90.899 194.321,90.617 194.752,90.758 194.421,90.394 194.48,90.15 
		194.304,89.605 194.421,89.362 194.244,89.422 194.204,89.28 194.067,89.24 193.461,88.491 192.131,87.155 191.897,86.547 
		191.995,86.487 192.131,86.021 191.897,85.981 191.8,85.738 192.074,85.495 192.211,85.495 192.211,85.312 191.957,85.23 
		191.897,85.391 191.74,85.391 191.74,85.208 191.643,85.29 191.526,85.23 191.663,85.109 191.603,85.027 191.486,85.109 
		191.155,85.007 190.841,85.168 190.607,85.086 190.47,84.784 189.982,84.823 189.825,84.642 189.648,84.724 189.1,84.665 
		188.161,84.138 187.593,83.997 187.476,83.856 187.398,83.937 186.773,83.977 186.596,83.774 186.753,83.511 186.623,83.46 
		186.619,83.551 186.501,83.59 186.579,83.387 186.482,83.306 186.365,83.569 186.247,83.608 186.247,83.365 186.248,83.365 
		186.29,83.182 185.958,83.283 185.918,83.546 186.015,83.668 185.801,83.628 185.724,83.71 185.881,83.992 186.155,83.933 
		186.195,84.074 186.078,84.176 185.843,84.136 185.392,84.622 184.942,84.865 183.103,85.25 182.321,85.19 181.793,85.292 
		180.58,85.21 179.387,84.826 178.899,84.421 178.958,84.218 178.861,84.117 178.607,84.176 178.079,83.771 177.727,83.67 
		177.845,83.204 177.453,83.204 177.023,83.467 176.945,83.933 177.14,84.015 177.18,84.359 177.003,84.806 177.648,85.128 
		177.648,85.391 177.354,85.552 177.217,85.776 177.314,86.342 177.118,86.24 176.961,86.381 177.058,86.483 177.155,86.443 
		177.155,86.525 176.999,86.788 177.058,86.969 176.901,87.029 176.921,87.232 177.312,87.373 177.409,87.899 177.644,88.021 
		177.741,88.405 177.878,88.507 177.918,88.851 178.035,88.891 178.035,89.072 178.386,88.931 178.326,89.112 178.404,89.3 
		178.013,89.503 177.953,89.868 177.776,90.171 177.953,90.575 177.933,90.999 177.659,91.203 177.599,91.445 175.995,92.842 
		175.664,92.923 175.39,92.842 175.058,93.045 174.237,93.975 174.53,94.704 174.471,94.886 174.177,95.129 174.117,95.411 
		174.214,95.878 174.097,96.081 174.097,96.404 173.746,97.011 174.097,97.517 174.078,97.881 174.292,97.639 174.546,97.881 
		174.449,98.447 174.919,99.055 176.64,99.844 177.774,100.127 177.871,100.127 177.968,99.945 178.556,100.189 179.064,100.593 
		179.104,101.017 179.398,101.28 179.476,101.645 179.652,101.684 179.926,101.967 181.59,101.664 183.976,101.645 184.484,101.746 
		184.698,101.664 185.05,101.907 185.264,101.786 185.578,101.786 185.598,101.582 186.066,101.017 186.731,100.593 
		186.731,100.451 186.888,100.329 187.416,100.29 188.042,100.087 188.236,99.643 188.353,99.603 188.276,99.481 188.433,99.278 
		188.55,99.419 188.707,99.419 189.9,98.67 190.331,98.549 190.487,98.368 190.761,98.469 191.035,98.246 191.212,98.286 
		191.369,98.104 191.309,97.983 191.641,97.599 192.246,97.437 192.677,96.971 192.814,97.011 192.891,97.172 193.088,97.031 
		193.283,97.031 193.753,96.423 193.87,95.473 194.007,95.414 194.047,95.151 194.341,94.868 194.418,94.444 194.672,94.262 
		194.672,93.94 194.732,93.858 194.946,93.898 194.946,93.756 	"/>
	<polygon fill="#1E8346" points="164.851,158.906 164.851,158.705 165.085,158.544 165.124,158.402 165.047,158.362 
		165.087,158.141 164.97,158.122 164.756,157.114 164.892,157.033 164.698,156.611 164.775,156.348 164.658,156.206 
		164.795,155.944 164.638,155.601 164.678,155.4 164.501,155.038 164.442,154.352 164.265,154.191 164.205,153.849 164.068,153.809 
		164.009,153.426 163.735,153.387 163.949,153.166 164.009,152.883 164.263,152.843 164.323,152.56 164.323,152.399 
		164.108,152.138 163.951,151.635 163.991,151.454 163.914,151.171 163.991,151.069 163.874,151.009 163.68,150.404 
		163.445,150.282 163.505,150.161 163.308,150.141 163.269,149.838 162.975,149.717 162.78,149.918 162.623,149.717 
		162.389,150.079 161.901,150.3 161.176,149.977 160.608,149.898 160.549,149.737 160.431,149.737 160.118,149.454 160.177,148.789 
		160.1,148.466 159.866,148.789 159.943,149.032 159.806,149.374 159.415,149.414 159.044,149.313 158.847,148.749 158.965,148.508 
		158.808,148.406 158.847,148.144 158.69,148.002 158.655,148.409 158.558,148.327 158.481,148.429 158.675,148.672 
		158.558,148.672 158.381,148.935 158.107,148.955 158.087,149.096 158.498,149.721 158.478,149.883 158.165,150.123 
		157.93,150.123 157.833,149.962 157.676,150.002 157.519,149.84 157.148,149.922 157.579,150.466 157.402,150.707 157.325,150.848 
		157.208,151.454 156.229,152.401 155.915,152.583 155.407,152.441 155.31,152.682 155.544,152.742 155.604,152.863 
		155.369,153.265 155.135,153.225 155.095,153.308 155.095,153.933 155.838,153.993 156.169,154.697 156.129,155.119 156.07,155.34 
		156.129,156.489 155.679,156.67 155.425,156.65 155.308,156.792 155.367,157.296 155.21,157.899 155.21,158.725 155.133,158.966 
		154.957,159.088 154.916,159.351 155.054,159.733 154.957,160.84 155.151,161.363 155.054,160.82 155.23,160.879 155.621,161.343 
		155.719,161.323 156.15,161.847 156.169,162.17 155.818,162.15 155.798,162.331 156.012,162.311 156.326,162.574 156.326,162.795 
		156.717,163.177 156.834,163.52 157.049,163.48 157.343,163.641 157.674,163.661 157.674,163.762 157.888,163.783 158.279,164.024 
		158.67,163.922 159.199,163.942 159.727,164.163 160.294,164.222 160.902,164.041 161.116,163.478 161.213,163.478 
		161.273,163.478 161.41,163.376 161.625,163.436 161.859,163.314 161.859,163.153 162.133,163.012 162.27,162.771 162.601,162.751 
		162.796,162.55 162.893,162.651 163.03,162.631 163.304,162.289 163.538,162.309 163.715,162.128 163.715,161.887 163.871,161.887 
		164.166,161.624 164.243,161.502 164.4,161.302 164.654,160.758 164.694,160.698 165.182,160.517 164.968,159.832 165.202,159.671 
			"/>
	<polygon fill="#1E8346" points="24.944,26.035 25.315,25.789 25.826,25.71 26.314,25.789 26.471,25.77 26.959,25.77 27.487,25.586 
		27.781,25.12 27.958,25.14 28.132,25.058 28.367,24.875 28.758,24.793 29.56,24.307 29.736,24.062 30.422,23.737 30.715,23.35 
		31.517,23.025 31.517,22.517 31.692,22.396 31.829,22.111 32.083,22.029 32.103,21.905 32.22,21.684 32.319,21.684 32.377,21.419 
		32.71,21.236 32.73,21.013 33.139,20.584 33.022,20.219 33.179,20.056 32.945,19.974 33.022,19.364 32.885,18.958 32.905,18.692 
		32.611,18.512 32.397,18.754 32.2,18.512 31.869,18.512 31.732,18.388 31.595,18.388 31.595,18.043 31.204,18.286 31.027,18.185 
		31.126,18.083 31.086,17.981 30.812,17.981 30.598,17.798 30.441,17.473 30.225,17.31 30.187,16.945 29.736,16.618 29.619,16.434 
		29.619,16.07 29.325,15.805 29.599,15.48 29.442,15.356 29.482,15.073 29.365,14.788 29.442,14.605 29.111,14.402 28.935,14.055 
		28.426,13.973 28.212,13.75 28.095,13.973 27.43,13.973 26.862,13.852 25.766,13.403 24.807,12.712 24.515,12.652 24.359,12.101 
		24.241,12.02 23.967,12 23.791,12.468 23.556,12.672 23.165,12.855 22.911,12.793 21.738,13.281 21.424,13.507 21.13,13.527 
		20.936,13.629 20.799,13.852 20.328,14.075 19.175,14.075 18.998,14.278 18.667,14.402 18.764,14.625 18.51,14.808 18.45,15.175 
		18.176,15.317 17.102,15.582 16.652,15.48 16.455,15.255 16.455,15.356 16.124,15.601 16.28,15.765 16.163,15.988 16.026,16.05 
		15.987,15.948 15.478,15.785 15.439,16.273 15.224,16.496 14.519,16.538 14.539,17.208 14.343,17.371 14.069,17.595 13.854,17.595 
		13.678,17.879 13.169,18.125 12.798,18.145 12.231,18.001 12.133,18.266 11.762,18.388 11.565,18.348 11.468,18.571 11,18.876 
		10.98,18.977 10.392,19.121 9.827,18.876 9.709,19.019 9.513,18.918 9.199,19.263 9.024,19.243 8.788,19.304 8.379,19.588 
		7.968,19.609 7.595,19.853 7.204,19.853 7.029,20.2 6.676,20.259 6.716,20.688 6.658,20.829 6.207,20.931 6.305,21.419 
		5.659,21.826 5.522,22.314 5.248,22.557 5.365,22.802 5.072,22.983 5.054,23.147 5.268,23.432 5.131,23.514 5.111,23.858 
		5.229,24.265 5.522,24.51 5.62,24.875 5.933,25.281 6.618,25.403 6.696,25.445 6.658,25.547 7.087,25.71 7.224,25.606 
		7.595,25.891 7.889,26.421 8.123,27.701 8.026,28.452 7.889,28.779 8.006,29.104 8.183,29.347 8.554,29.795 8.554,30.14 
		8.731,30.445 8.633,30.75 8.476,30.852 8.3,30.993 8.085,31.298 8.006,31.848 8.085,32.051 8.34,32.255 8.203,32.557 8.594,32.741 
		8.691,32.862 8.711,33.189 8.945,33.492 9.513,33.92 10.218,33.616 10.489,33.311 11.274,33.167 11.391,32.862 11.782,32.761 
		12.056,32.803 12.133,32.701 12.367,32.842 12.33,33.249 12.504,33.229 12.584,33.026 12.878,33.045 12.955,32.862 13.189,32.862 
		13.326,32.964 13.523,32.924 13.66,33.189 13.815,33.167 13.894,33.331 14.051,33.289 14.343,33.472 14.93,33.331 15.381,33.37 
		15.655,33.655 15.869,33.593 15.89,33.777 16.358,33.593 16.475,33.249 17.043,33.127 17.18,32.964 17.668,32.904 17.805,33.026 
		17.885,32.944 17.845,32.782 18.216,32.741 18.296,32.478 18.881,31.99 19.292,31.238 19.506,31.137 19.586,30.77 19.761,30.629 
		19.977,30.202 21.17,29.875 21.267,29.694 21.111,29.632 21.15,29.468 21.464,29.287 21.619,29.002 21.775,29.022 22.147,28.452 
		22.774,27.884 22.852,27.721 23.028,27.438 23.654,27.111 23.713,26.93 23.947,26.806 24.084,26.521 24.339,26.379 24.593,26.035 	
		"/>
	<polygon fill="#1E8346" points="135.55,179.293 135.61,179.495 135.687,179.495 135.727,179.353 135.63,179.191 	"/>
	<polygon fill="#1E8346" points="100.231,58.053 100.054,58.033 99.917,57.75 99.76,57.609 99.447,57.691 99.33,57.306 
		99.095,57.428 98.821,57.326 98.47,57.447 98.256,56.798 98.021,56.778 97.982,56.332 97.708,56.027 97.453,56.047 97.16,55.843 
		96.945,55.823 96.711,55.702 96.574,55.519 96.223,55.558 95.949,55.397 95.772,55.437 95.381,55.315 95.127,55.375 94.95,55.214 
		94.265,55.194 94.051,55.092 93.837,55.174 92.995,55.174 92.506,54.891 92.33,54.911 92.27,54.728 91.839,54.688 91.508,54.951 
		91.214,55.397 90.646,55.417 90.215,55.194 89.785,55.214 88.963,54.705 88.474,53.976 88.357,54.058 88.123,53.957 87.966,53.996 
		87.652,53.813 87.575,53.652 86.97,53.389 86.892,53.572 86.578,53.552 85.874,53.106 85.893,52.984 85.776,52.902 85.306,53.004 
		84.758,52.801 84.855,53.024 84.621,53.086 84.307,53.45 83.348,53.532 83.308,53.634 82.486,53.349 82.193,53.51 81.684,53.894 
		81.353,54.016 80.825,53.652 80.748,53.044 80.493,52.902 80.219,53.004 79.926,52.863 79.828,52.436 79.632,52.111 79.318,52.111 
		79.338,51.908 79.161,51.807 79.084,51.544 78.713,51.179 78.478,51.038 78.204,50.936 77.813,50.854 77.499,50.916 77.382,50.733 
		77.402,50.428 76.932,50.388 76.814,50.287 76.289,50.777 76.249,50.98 76.037,51.062 76.037,51.308 76.035,51.303 76.035,51.058 
		76.033,51.022 76.013,50.976 75.407,51.38 75.31,51.301 75.056,51.38 74.665,51.077 74.291,51.179 74.194,51.058 74.057,51.239 
		73.529,51.301 73.392,51.626 73.218,51.584 72.767,51.95 72.316,51.908 72.082,52.151 71.614,52.111 71.377,52.233 71.574,52.518 
		71.476,52.558 71.26,52.436 70.986,52.821 70.849,53.369 71.006,53.795 71.006,53.998 70.849,54.261 70.928,55.236 71.163,55.439 
		71.554,55.521 71.417,55.945 71.574,56.089 71.828,56.129 72.082,56.371 72.121,56.555 73.569,57.326 73.9,57.629 74.879,57.691 
		75.367,57.995 75.484,58.34 75.661,58.462 75.681,58.643 75.544,58.725 75.739,58.866 75.641,59.05 75.721,59.394 75.622,59.434 
		75.641,59.637 75.818,59.84 76.267,59.922 76.386,60.205 76.346,60.448 76.503,60.631 76.541,60.914 76.581,61.301 76.737,61.341 
		76.894,61.646 77.382,61.846 77.597,62.313 77.636,62.821 77.813,63.327 78.067,63.612 78.087,63.915 77.891,64.078 77.988,64.423 
		77.833,64.483 77.891,64.949 77.988,64.991 78.204,64.646 78.498,64.776 78.657,64.584 79,63.009 79.19,62.536 79.19,61.827 
		79.76,60.408 79.797,58.084 79.605,57.55 79.8,58.088 79.762,60.413 79.192,61.831 79.192,62.54 79.002,63.013 78.66,64.589 
		78.498,64.783 78.596,65.057 78.752,65.117 78.695,64.792 78.949,64.792 79.046,64.69 79.3,64.772 79.515,64.67 79.338,64.65 
		79.475,64.306 79.26,64.204 79.221,64.021 79.397,63.413 79.594,63.311 79.517,62.905 79.634,62.702 79.888,62.662 80.162,62.236 
		80.122,61.851 80.299,61.365 80.456,61.243 80.359,60.939 80.476,60.653 80.613,60.47 81.024,60.43 80.946,60.125 80.986,59.617 
		81.183,59.456 81.163,59.213 81.32,58.97 81.808,58.808 82.259,58.179 82.239,58.018 82.63,57.673 82.807,57.755 83.629,57.693 
		84,57.185 84.351,57.023 84.665,56.698 84.822,56.84 85.29,56.719 85.701,56.8 86.249,56.698 86.894,57.023 87.286,56.862 
		87.462,56.902 87.54,57.043 87.97,56.88 88.284,56.939 88.479,56.959 89.046,56.919 89.183,57.123 89.712,57.467 89.848,57.671 
		90.083,57.71 90.16,57.852 90.668,58.055 91,58.055 91.391,58.258 91.468,58.42 91.625,58.46 91.899,58.318 92.093,58.502 
		92.387,59.109 92.778,59.332 92.641,59.494 92.896,59.635 93.189,59.635 93.249,59.776 93.543,59.796 93.64,59.613 93.837,59.573 
		93.993,59.734 94.248,59.714 94.345,59.816 94.502,59.511 94.816,59.511 94.972,59.551 95.129,59.633 95.226,59.856 95.403,59.918 
		96.146,59.898 96.713,59.714 96.968,59.573 97.045,59.35 97.202,59.35 97.456,59.573 98.024,59.432 98.278,59.613 98.355,59.957 
		98.629,59.816 98.963,59.836 99.374,60.039 99.902,59.675 99.902,59.37 100.37,58.762 100.448,58.336 100.271,58.214 	"/>
	<polygon fill="#1E8346" points="141.048,172.311 140.734,172.311 140.636,172.21 140.753,171.768 140.93,171.868 141.067,171.827 
		141.107,171.686 141.008,171.527 141.087,171.485 140.891,171.346 140.91,171.164 140.753,171.004 140.596,171.023 140.46,171.264 
		140.245,171.205 140.382,170.882 140.245,170.681 140.305,170.46 140.226,170.117 140.322,169.917 140.148,169.956 
		140.108,169.876 140.226,169.653 140.089,169.594 139.951,169.755 139.697,169.735 139.404,170.038 139.443,169.715 
		139.169,169.715 139.306,169.613 139.267,169.494 139.58,169.534 139.717,169.452 139.894,169.554 139.834,169.191 139.64,168.97 
		139.366,168.99 139.032,168.747 138.641,168.849 138.778,168.628 138.778,168.325 138.504,168.286 138.641,168.467 
		138.484,168.427 138.327,168.104 138.27,168.407 138.153,168.407 138.21,168.226 138.035,168.246 137.899,168.084 138.113,167.864 
		137.936,167.742 137.936,167.561 137.819,167.561 137.839,167.34 137.546,167.34 137.605,167.199 137.468,167.179 137.546,166.777 
		137.254,166.595 137.291,166.394 137.194,166.233 136.763,166.233 136.843,165.95 136.743,165.89 136.607,165.749 136.706,165.488 
		136.549,165.427 136.529,165.245 136.372,165.044 136.178,165.126 136.315,164.925 136.021,164.28 136.061,163.655 
		135.981,163.555 135.63,163.595 135.296,163.515 135.062,163.292 134.651,163.354 134.533,163.232 134.28,163.253 134.26,162.972 
		134.103,162.811 134.163,162.649 134.299,162.629 134.357,162.387 134.26,162.287 134.28,162.106 133.985,162.064 133.908,161.681 
		133.751,161.843 133.497,161.783 133.321,161.925 133.478,161.602 133.283,161.401 132.989,161.299 132.775,161.299 
		132.558,161.542 132.108,161.661 132.147,161.219 132.01,161.2 132.03,161.339 131.679,161.361 131.462,161.279 131.308,161.058 
		131.014,161.018 130.877,160.877 130.974,160.815 130.954,160.696 131.111,160.696 131.189,160.334 131.051,160.232 
		130.74,160.272 130.72,159.89 130.917,159.79 130.877,159.728 130.68,159.668 130.523,159.89 130.369,159.609 130.232,159.649 
		130.039,159.547 130.035,159.247 130.132,159.085 129.878,158.964 129.858,158.862 129.704,158.944 129.684,158.822 
		129.487,158.842 129.547,158.338 129.35,158.259 129.313,157.916 129.194,157.877 129.056,157.996 128.959,157.877 
		129.019,157.614 128.842,157.15 128.627,157.07 128.608,156.968 128.334,156.968 128.294,156.506 128.079,156.283 128.04,156.102 
		127.688,156.102 127.375,155.842 127.081,155.941 126.964,155.782 126.847,155.7 126.553,155.539 126.71,155.298 126.319,155.177 
		126.379,154.914 126.299,154.814 126.007,154.874 125.79,154.693 125.165,154.613 125.145,154.693 124.989,154.693 124.94,154.613 
		124.578,154.189 124.324,154.412 124.343,154.249 124.029,154.189 123.895,153.988 123.658,153.988 123.093,153.283 
		122.896,152.819 122.916,152.397 122.759,152.295 122.72,151.893 122.974,150.985 122.739,150.945 122.662,150.724 
		122.799,150.603 123.15,150.662 123.367,150.059 123.19,149.958 123.247,149.757 123.033,149.474 123.053,149.374 122.702,149.193 
		122.682,149.051 122.408,148.89 122.465,148.749 122.311,148.607 122.191,148.607 122.054,148.871 121.82,148.871 121.663,148.769 
		121.763,148.709 121.763,148.506 121.606,148.568 121.586,148.466 121.292,148.486 120.941,148.345 120.804,148.446 
		120.864,148.749 120.687,148.688 120.55,148.871 120.413,148.809 120.353,148.548 119.768,148.446 119.748,148.265 
		119.473,148.367 119.297,148.042 118.925,147.962 118.946,148.183 118.848,148.285 118.906,148.446 118.749,148.406 
		118.515,148.506 118.34,148.365 118.34,148.486 118.201,148.548 118.123,148.446 117.987,148.486 117.947,148.848 118.144,149.132 
		117.773,149.191 117.909,149.332 117.909,149.516 117.675,149.615 117.478,149.394 117.341,149.454 117.439,149.757 
		117.675,149.717 117.929,149.856 117.947,149.998 117.792,150.199 117.83,150.402 117.732,150.543 117.185,150.442 
		116.794,150.965 116.99,151.067 116.95,151.367 117.027,151.449 117.693,151.529 117.792,151.791 117.909,151.791 117.929,151.913 
		118.046,151.873 118.28,152.094 118.261,152.275 117.83,152.456 117.909,152.618 117.889,153.263 118.104,153.725 118.066,153.906 
		118.398,153.847 118.906,154.189 119.18,154.633 119.2,154.914 119.083,155.157 119.123,155.621 119.043,155.76 118.594,156.164 
		118.32,156.244 118.221,156.405 118.144,157.231 118.221,157.472 118.104,157.633 117.986,158.246 117.575,158.763 
		117.518,159.205 117.635,159.587 117.341,159.79 117.068,159.768 117.538,160.554 117.284,160.877 117.381,161.038 
		117.361,161.661 117.773,161.783 117.655,162.185 117.538,162.225 117.538,162.448 117.812,162.61 117.83,162.791 117.478,163.314 
		117.128,163.414 117.087,163.654 117.341,163.677 117.361,163.776 117.205,163.977 117.284,164.28 117.165,164.28 117.047,164.682 
		117.127,165.367 117.027,165.488 117.107,165.709 116.539,166.012 116.619,166.213 116.539,166.434 116.813,166.896 
		116.853,167.258 116.637,167.36 116.382,167.3 116.305,167.481 116.539,167.822 116.462,168.104 116.716,168.144 116.773,168.003 
		116.911,168.003 117.127,168.266 117.538,168.427 117.478,168.708 117.575,168.909 117.85,168.97 118.006,169.353 118.241,169.514 
		118.261,169.896 118.535,170.4 118.809,170.378 118.906,170.097 119.102,170.016 119.259,170.117 119.454,170.519 119.668,170.7 
		120.061,170.76 120.216,171.063 120.353,171.083 120.687,171.405 120.667,171.547 120.784,171.547 120.901,171.728 
		121.018,171.708 121.038,172.009 120.784,172.15 120.843,172.331 121.018,172.391 120.98,172.632 120.744,172.773 120.764,172.875 
		120.57,172.835 120.627,173.175 120.296,173.237 120.216,173.156 120.079,173.377 120.178,173.679 120.47,173.759 120.647,174.061 
		121.078,174.022 121.215,174.101 121.215,174.364 121.626,174.704 121.763,175.188 122.054,175.469 122.271,175.491 
		122.348,175.65 122.445,175.65 122.486,175.952 122.642,175.972 122.622,176.094 123.053,176.193 123.601,176.818 123.776,176.859 
		123.933,177.099 124.109,177.099 124.167,177.24 124.324,177.139 124.423,177.159 124.441,177.3 124.638,177.179 124.814,177.199 
		125.4,177.844 126.045,178.226 126.358,178.368 127.141,178.487 127.2,178.728 127.101,178.849 127.317,179.152 127.552,179.172 
		127.629,178.949 127.846,178.949 127.943,178.849 128.314,178.909 128.511,178.748 128.842,179.05 129.116,178.99 129.704,179.172 
		129.742,179.393 130.115,179.393 130.172,179.232 130.446,179.232 130.583,179.132 130.974,179.212 131.034,179.433 
		131.228,179.353 131.248,179.191 131.385,179.311 131.58,179.172 131.639,179.311 131.854,179.353 132.05,179.251 132.245,179.653 
		132.733,179.653 132.701,179.586 132.737,179.662 132.994,179.481 133.308,179.662 133.465,179.623 133.758,179.744 
		134.013,179.642 134.384,179.722 134.638,179.601 134.832,179.722 134.949,179.601 135.183,179.66 135.203,179.781 
		135.418,179.923 135.321,179.742 135.437,179.439 135.34,179.017 135.477,178.958 135.477,178.816 135.848,178.655 
		136.025,179.057 136.202,179.179 136.162,179.34 136.476,179.119 136.653,179.3 136.77,179.159 137.22,179.099 137.26,179.461 
		137.495,179.481 137.729,178.917 137.631,178.776 137.631,178.272 138.14,177.709 138.199,177.426 138.102,177.205 
		138.179,177.044 138.277,176.903 138.374,176.943 138.568,176.821 138.549,176.699 138.783,176.397 138.743,176.176 
		138.449,176.176 138.252,175.873 138.409,175.893 138.486,176.094 138.604,176.094 139.092,175.791 139.286,175.57 
		139.246,175.409 139.384,175.369 139.364,175.168 139.13,175.228 139.012,175.148 138.758,174.585 138.8,174.567 138.118,174.084 
		136.759,173.842 135.024,173.169 134.133,173.217 133.338,173.507 131.933,173.604 130.621,174.086 130.199,174.375 
		129.949,174.375 129.945,174.364 130.199,174.364 130.621,174.077 131.931,173.595 133.338,173.498 134.134,173.208 
		135.024,173.16 136.759,173.836 138.116,174.077 138.8,174.561 139.246,174.605 139.443,174.302 139.757,174.222 139.951,174.022 
		140.069,173.679 140.305,173.679 140.322,173.6 140.479,173.86 140.617,173.88 140.813,174.101 140.793,173.982 141.107,173.639 
		140.91,173.175 141.125,172.713 140.871,172.793 140.774,172.612 140.5,172.552 141.184,172.493 	"/>
	<polygon fill="#1E8346" points="81.276,179.713 81.099,179.393 81.196,178.971 81.079,178.569 81.099,178.005 80.922,177.705 
		80.825,176.638 80.688,176.576 80.531,175.835 80.531,175.61 80.708,175.491 80.648,175.188 80.785,174.644 80.748,174.464 
		80.474,174.183 80.337,173.076 80.2,172.875 79.866,172.753 80.003,172.391 79.789,171.465 79.632,171.264 79.201,171.083 
		79.064,170.601 78.83,170.239 78.556,170.117 78.262,170.157 78.165,170.058 77.871,170.058 77.754,169.956 77.714,169.594 
		77.305,169.353 76.795,169.333 76.757,169.231 76.209,169.07 75.367,169.132 75.076,169.03 74.919,168.849 74.682,169.05 
		74.408,169.11 74.311,169.291 74.117,169.313 73.666,169.735 73.372,169.815 73.178,169.996 73.001,169.917 73.118,170.259 
		72.698,170.44 71.828,170.822 71.006,170.621 70.948,170.802 70.732,170.963 70.458,171.043 70.283,170.963 70.263,171.304 
		69.97,171.527 69.402,171.647 69.324,171.768 68.973,171.887 68.856,172.271 68.502,172.451 68.425,172.674 67.897,172.855 
		67.78,173.076 67.603,173.096 67.68,173.277 67.192,173.619 67.212,173.801 67.115,173.92 66.821,174.101 66.664,174.081 
		66.624,174.364 66.487,174.464 66.587,174.545 66.604,174.826 66.333,175.047 66.41,175.208 66.333,175.248 66.313,175.591 
		65.805,176.394 65.862,176.516 65.685,176.958 65.725,177.34 65.608,177.561 65.628,177.864 65.394,178.325 65.413,178.487 
		65.568,178.447 65.628,178.608 65.588,179.11 65.685,179.452 65.588,180.497 65.939,181.182 66.958,181.624 67.78,182.329 
		68.072,183.012 68.776,183.434 69.227,183.496 69.892,184.38 70.184,184.459 70.458,184.742 70.674,185.164 70.948,185.224 
		71.183,185.526 71.554,185.566 71.808,185.908 72.376,185.847 72.67,186.008 72.727,186.15 73.9,186.028 73.96,186.129 
		74.117,186.129 74.234,186.068 74.448,186.209 74.682,186.15 75.016,186.229 75.661,186.11 76.112,185.908 76.58,185.889 
		76.991,185.546 77.813,185.144 78.028,185.204 78.047,184.983 78.458,184.561 78.673,184.459 79.026,184.501 79.828,183.816 
		80.394,183.213 80.434,182.932 80.942,182.51 81.099,182.227 81.413,180.88 81.276,180.559 	"/>
	<polygon fill="#1E8346" points="175.085,49.347 175.613,49.833 175.807,50.585 175.788,51.254 175.691,51.701 175.496,52.006 
		174.928,52.37 174.948,52.511 175.125,52.511 175.164,52.673 175.164,52.794 175.007,52.693 175.125,53.017 175.007,53.139 
		175.262,53.159 175.222,53.402 175.887,53.868 176.238,54.456 176.336,54.984 176.433,55.066 176.433,55.41 176.53,55.43 
		176.453,55.653 176.296,55.693 176.276,55.956 176.607,56.097 176.607,56.219 176.393,56.606 176.373,57.032 176.49,57.235 
		176.725,57.337 176.861,57.337 176.999,57.174 177.272,56.668 177.389,56.749 177.683,56.464 178.543,56.566 179.208,56.931 
		179.385,56.871 179.425,56.608 179.268,56.424 179.268,56.182 178.954,55.958 178.503,54.924 178.444,53.687 178.814,53.24 
		179.245,53.139 179.383,52.246 179.559,52.105 179.794,51.619 180.087,51.376 180.264,51.376 180.381,51.214 180.321,50.951 
		180.047,50.627 179.93,49.957 179.813,49.816 179.97,49.308 179.188,48.474 178.857,47.52 178.934,47.297 178.857,47.094 
		178.7,47.012 178.739,46.749 178.622,46.608 178.465,46.588 178.66,46.345 178.777,46.345 178.837,46.102 178.759,46.02 
		178.857,45.837 178.759,45.492 178.642,45.452 178.702,45.311 178.642,45.229 178.408,45.269 178.388,45.187 178.565,45.125 
		178.742,44.882 178.819,44.455 179.153,44.455 179.23,44.557 179.504,44.597 179.621,44.475 179.561,44.354 179.659,43.908 
		179.99,43.603 179.95,43.501 179.904,43.611 179.813,43.623 179.499,43.258 179.285,43.196 179.285,42.851 178.991,42.589 
		178.777,42.021 178.777,41.736 178.366,41.532 178.229,41.309 178.326,41.066 178.6,40.803 178.66,40.235 178.914,40.174 
		179.011,40.032 178.971,39.809 179.089,39.606 178.991,39.363 179.089,39.343 179.148,39.139 178.914,38.956 178.757,38.956 
		178.697,39.057 178.169,38.855 178.13,38.55 177.876,38.51 177.681,38.592 177.564,37.962 177.056,37.617 176.908,37.657 
		176.634,38.123 175.929,38.366 175.812,38.507 175.655,38.488 175.538,38.651 175.167,38.631 174.756,38.388 174.659,38.592 
		174.248,38.876 174.188,39.018 173.309,39.382 172.78,39.382 172.683,39.626 172.352,39.789 172.215,40.419 171.823,40.845 
		171.863,41.616 171.746,41.901 171.823,42.551 171.941,42.774 171.901,43.139 172.058,43.382 172.078,43.645 172.235,43.727 
		171.981,43.989 172.078,44.679 172.254,44.902 172.586,45.065 172.703,44.984 172.82,44.922 172.897,45.043 172.897,45.47 
		172.604,45.733 172.838,46.058 172.564,46.058 172.173,46.707 172.407,47.094 172.484,47.48 172.855,47.723 172.992,48.088 
		172.542,48.249 172.091,49.02 172.208,49.082 172.248,49.325 172.659,49.427 173.364,49.184 173.481,48.961 174.577,49.164 	"/>
	<polygon fill="#1E8346" points="40.081,38.98 39.944,38.737 40.062,38.554 39.865,38.39 39.768,38.004 40.139,37.719 
		40.373,37.679 40.45,37.394 40.373,37.131 39.942,36.888 39.454,36.97 39.257,37.213 38.652,37.131 37.87,36.766 36.97,36.035 
		36.579,35.425 36.559,35.019 36.736,34.714 36.893,34.694 36.599,34.389 36.893,34.248 36.933,34.389 37.09,34.431 37.012,34.146 
		37.149,33.983 37.306,34.104 37.286,33.717 36.992,33.189 36.25,32.681 35.95,32.694 35.833,32.796 35.265,32.796 35.304,32.937 
		35.441,32.917 35.402,33.081 35.265,33.061 35.167,33.244 34.836,33.366 34.836,33.508 34.933,33.508 35.011,33.691 34.365,34.015 
		34.014,33.976 33.349,33.651 33.212,33.264 32.918,33.386 32.898,33.244 33.269,32.858 33.113,32.694 32.839,32.979 32.624,32.939 
		32.33,33.061 32.116,33.629 31.471,33.629 31.177,33.527 31.237,33.75 31.139,33.934 30.572,33.934 30.649,34.137 30.629,34.321 
		31.02,34.504 31.06,34.829 30.903,34.992 30.649,34.91 30.492,35.074 30.492,35.237 30.569,35.176 30.667,35.257 30.804,35.116 
		30.881,35.299 31.078,35.339 31.058,35.217 31.195,35.178 31.235,35.463 30.609,36.112 30.375,36.073 29.944,36.214 29.867,36.418 
		29.085,36.03 28.968,35.847 28.87,35.867 28.831,35.503 28.694,35.299 28.205,35.28 27.834,35.646 27.423,35.483 27.423,35.828 
		26.835,35.542 27.03,36.03 26.659,36.051 26.678,36.192 26.484,36.395 26.621,36.618 26.601,36.862 26.347,37.045 26.073,37.085 
		25.859,36.862 25.781,37.166 25.527,37.127 25.468,37.208 25.448,37.776 25.194,37.898 25.077,38.183 24.862,38.183 24.588,38.346 
		24.608,38.55 24.999,38.753 25.019,38.894 24.822,38.996 24.842,39.137 24.491,39.584 24.471,39.747 25.587,39.524 25.998,39.626 
		26.212,39.911 26.252,40.825 26.546,41.008 26.86,41.435 27.368,41.09 27.388,41.192 27.739,41.415 27.759,41.557 28.17,41.435 
		28.581,41.74 28.992,41.76 29.46,42.206 29.851,42.167 29.968,42.33 30.183,42.494 30.417,42.736 30.748,42.838 31.179,43.101 
		31.316,43.183 31.648,43.386 32.255,43.324 32.352,43.243 32.352,42.878 32.529,42.717 33.625,42.697 33.685,42.434 34.056,42.332 
		34.193,42.191 34.661,42.292 34.975,42.151 35.289,42.171 35.386,42.069 35.991,42.05 36.148,41.908 36.442,41.928 36.482,41.787 
		37.187,41.4 37.187,41.298 37.501,41.177 37.578,41.013 38.027,40.852 38.438,40.974 38.926,40.852 39.377,41.013 39.591,40.79 
		40.079,40.668 40.236,40.403 40.276,39.327 40.453,39.042 40.296,38.94 	"/>
	<polygon fill="#1E8346" points="60.15,54.323 59.916,54.038 59.112,54.462 58.681,54.361 58.564,54.482 58.367,54.991 
		58.622,55.335 58.699,55.64 59.384,55.62 59.697,55.762 60.168,55.7 60.208,55.457 60.502,55.214 60.678,54.626 60.522,54.363 	"/>
	<polygon fill="#1E8346" points="53.659,51.605 53.091,51.077 52.917,51.119 52.78,51.444 53.19,51.93 53.367,52.012 53.367,52.134 
		54.012,52.721 54.306,52.701 54.814,52.964 54.207,51.95 	"/>
	<polygon fill="#1E8346" points="48.411,45.54 48.489,46.332 48.703,46.393 48.899,46.292 49.487,46.292 50.192,46.413 
		50.212,46.311 50.543,46.332 50.68,46.148 51.522,46.289 51.796,46.046 52.304,46.128 52.324,45.967 52.735,45.56 52.852,45.357 
		52.852,45.032 52.656,44.849 51.659,44.869 50.917,45.233 50.486,45.233 50.075,45.07 49.604,44.542 49.487,44.319 49.585,44.135 
		49.428,44.014 49.174,43.426 48.548,43.203 48.471,42.796 48.257,42.491 48.316,42.127 48.219,42.025 47.26,41.74 47.026,41.638 
		46.948,41.475 46.695,41.495 46.284,41.17 46.178,41.197 46.217,41.338 45.923,41.784 45.709,41.866 45.669,42.312 45.455,42.719 
		45.221,42.821 45.592,43.936 46.043,44.14 46.414,44.038 47.53,44.606 47.667,44.829 48.234,45.255 	"/>
</g>
</svg>
