<?xml version="1.0" encoding="utf-8"?>
<!-- Generator: Adobe Illustrator 26.0.3, SVG Export Plug-In . SVG Version: 6.00 Build 0)  -->
<svg version="1.1" id="Isolation_Mode" xmlns="http://www.w3.org/2000/svg" xmlns:xlink="http://www.w3.org/1999/xlink" x="0px"
	 y="0px" viewBox="0 0 200 200" enable-background="new 0 0 200 200" xml:space="preserve">
<g>
	<path fill="#1E8346" d="M194.284,110.632l-87.202,0.153c-0.181-0.21-0.264-0.55-0.521-0.691c-0.291-0.161-0.626-0.171-0.927-0.313
		c-0.353-0.166-0.589-0.221-0.979-0.241c-0.448-0.023-0.53-0.22-0.86-0.434c-0.104,0.099-0.175,0.248-0.233,0.379
		c-0.154,0.012-0.378-0.135-0.482-0.244c-0.122-0.129-0.104-0.35-0.22-0.466c-0.312-0.312-1.11,0.025-1.479,0.121
		c-0.026-0.442-0.242-0.91-0.579-1.204c-0.198-0.173-0.463-0.168-0.635-0.356c-0.124-0.136-0.283-0.438-0.316-0.619
		c-0.13-0.068-0.291-0.175-0.422-0.254c-0.169-0.101-0.346-0.156-0.534-0.216c-0.228-0.073-0.464-0.119-0.683-0.218
		c-0.103-0.047-0.21-0.106-0.319-0.139l-1.051-3.039l0.169-1.644c0.045-0.384-0.546-0.57-0.662-0.908
		c-0.151-0.44,0.116-0.912-0.388-1.164c-0.099,0.084-0.186,0.16-0.256,0.271c-0.068,0.108-0.097,0.264-0.201,0.342
		c-0.249,0.19-0.659,0.14-0.934,0.306c-0.13,0.477-1.049,0.516-1.342,0.956c-0.151,0.226-0.096,0.489-0.002,0.735
		c0.14,0.366,0.271,0.737,0.376,1.126c0.211,0.786,0.545,1.7,0.376,2.537c-0.096,0.476-0.083,0.76,0.037,1.248
		c0.117,0.474,0.267,0.89,0.267,1.386c0,0.277,0.008,0.554,0,0.831c-0.01,0.338-0.12,0.656-0.127,0.996
		c-0.007,0.33,0.042,0.627,0.079,0.95c0.019,0.162,0.017,0.607,0.151,0.705c-0.198,1.003-0.275,2.027-0.94,2.867
		c-0.214,0.27-0.428,0.149-0.721,0.24c-0.363,0.113-0.426,0.592-0.425,0.917c0,0.314,0.164,0.515,0.273,0.804
		c0.156,0.41,0.238,0.838,0.413,1.245c0.156,0.364,0.364,0.697,0.453,1.089c0.064,0.281,0.209,0.692,0.209,0.976
		c0,0.247,0.27,0.403,0.308,0.657c0.025,0.168,0.038,0.332,0.092,0.496c0.147,0.445,0.341,0.862,0.496,1.304
		c0.324,0.917,0.473,1.883,0.605,2.85c0.066,0.481,0.129,0.943,0.152,1.427c0.017,0.364,0.152,0.957-0.157,1.246
		c-0.348,0.325-0.784,0.112-0.925,0.701c-0.088,0.369-0.272,0.743-0.494,1.071c-0.366,0.539-1.056,0.832-1.499,1.309
		c-0.379,0.408-1.014,0.774-1.146,1.322c-0.283,1.179,0.078,2.309-0.624,3.347c-0.582,0.861-1.285,1.621-2.001,2.362
		c-0.383,0.397-0.699,0.369-1.211,0.531c-0.334,0.106-0.439,0.301-0.589,0.594c-0.27,0.532-0.585,1.006-0.89,1.512
		c-0.253,0.422-0.616,0.704-1.119,0.707c-0.021,0.225-0.342,0.663-0.534,0.783c-0.308,0.193-0.656,0.117-0.892,0.457
		c-0.104,0.15-0.13,0.338-0.227,0.489c-0.118,0.183-0.26,0.246-0.429,0.376c-0.405,0.311-0.309,0.856-0.308,1.327
		c0,0.476-0.314,0.952-0.229,1.42c0.075,0.409,0.519,0.564,0.675,0.907c0.105,0.23,0.137,0.38,0.305,0.587
		c0.162,0.201,0.166,0.269,0.216,0.522c0.164,0.837,1.265,1.366,2.014,1.584c0.55,0.16,1.095,0.281,1.672,0.246
		c0.467-0.028,0.779-0.41,1.111-0.719c0.368-0.343,0.742-0.461,1.208-0.598c0.452-0.133,1.019-0.35,1.492-0.274
		c-0.154,0.133-0.438,0.106-0.632,0.184c-0.201,0.081-0.4,0.199-0.572,0.324c-0.302,0.22-0.346,0.419-0.379,0.776
		c-0.294,0.01-0.612-0.068-0.868,0.111c-0.143,0.1-0.277,0.27-0.407,0.388c-0.368,0.337-0.689,0.592-1.198,0.688
		c-0.381,0.073-1.044,0.202-1.37,0.009c-0.192-0.114-0.357-0.325-0.548-0.457c-0.202-0.141-0.403-0.278-0.614-0.406
		c-0.227-0.137-0.544-0.25-0.625-0.528c-0.059-0.203,0.047-0.4-0.069-0.592c-0.356-0.592-0.864-0.184-1.132,0.182
		c-0.319,0.435-0.802,0.756-0.966,1.295c-0.129,0.425-0.485,0.955-0.685,1.339c-0.33,0.632-0.548,1.283-0.721,1.967
		c-0.09,0.358-0.263,0.754-0.411,1.094c-0.067,0.154-0.181,0.473-0.312,0.585c-0.286,0.246-0.739,0.108-1.024,0.469
		c-0.345,0.437-0.304,1.451-0.864,1.691c-0.297,0.127-0.742,0.595-1.059,0.763c-0.441,0.234-0.852,0.51-1.29,0.764
		c-0.816,0.473-1.178,0.988-1.678,1.744c-0.195,0.295-0.543,0.472-0.704,0.782c-0.138,0.265-0.142,0.594-0.126,0.9
		c0.04,0.738,0.147,1.484,0.213,2.221c0.032,0.363,0.127,1.535-0.416,1.608c-0.672,0.09-0.976,0.515-1.213,1.222
		c-0.169,0.506-0.286,1.027-0.855,1.212c-0.417,0.135-0.89,0.005-1.239,0.278c-0.35,0.274-0.439,0.714-0.483,1.128
		c-0.051,0.476-0.296,0.727-0.422,1.18c-0.06,0.215-0.086,0.404-0.212,0.601c-0.094,0.149-0.224,0.203-0.256,0.388
		c-0.05,0.287,0.225,0.565,0.045,0.849c-0.097,0.152-0.354,0.225-0.478,0.365c-0.122,0.138-0.23,0.366-0.295,0.538
		c-0.127,0.334,0.035,0.687-0.281,0.844c-0.188,0.094-0.498,0.08-0.718,0.17c-0.224,0.091-0.419,0.268-0.646,0.347
		c-0.099,0.034-0.13,0.178-0.126,0.307c0.006,0.178,0.001,0.107,0.16,0.243c0.192,0.164,0.456,0.237,0.619,0.433
		c0.35,0.422,0.179,1.186,0.199,1.728c0.273-0.159,0.284-0.225,0.566-0.109c0.181,0.074,0.45,0.336,0.591,0.49
		c0.431,0.47,0.382,1.013,0.637,1.55c0.258-0.005,0.421-0.105,0.693-0.014c0.278,0.092,0.489,0.32,0.757,0.423
		c0.137-0.133,0.053-0.287,0.143-0.413c0.181-0.256,0.672-0.249,0.961-0.292c0.618-0.092,1.218-0.191,1.804-0.411
		c0.496-0.185,0.733-0.374,1.1-0.722c0.287-0.273,0.575-0.263,0.967-0.263c0.23,0,0.453,0.011,0.67,0.037
		c0.246,0.029,0.474-0.011,0.737-0.003c0.372,0.012,0.641,0.245,1.017,0.291c0.421,0.052,0.734,0.058,1.052,0.326
		c0.229,0.193,0.437,0.464,0.624,0.701c0.407,0.517,0.776,1.111,1.142,1.662c0.436,0.657,0.728,1.359,0.777,2.138
		c0.032,0.509,0.045,1.476,0.72,1.574c0.079-0.115,0.107-0.244,0.126-0.383c0.749-0.032,1.177-0.25,1.847-0.575
		c0.29-0.141,0.528-0.347,0.811-0.491c0.194-0.099,0.523-0.073,0.684-0.205c0.16-0.131,0.154-0.416,0.315-0.556
		c0.212-0.185,0.578-0.138,0.817-0.276c0.324-0.188,0.497-0.536,0.663-0.858c0.287-0.56,0.612-1.197,0.742-1.84
		c0.106-0.524,0.372-0.9,0.773-1.266c0.451-0.412,1.055-0.288,1.433-0.693c0.316-0.338,0.494-0.868,0.877-1.135
		c0.289-0.202,0.665-0.288,0.908-0.549c0.111-0.12-0.208-0.206-0.307-0.281c-0.155-0.118-0.333-0.244-0.336-0.463
		c0.148-0.008,0.288,0.13,0.397,0.212c0.184,0.138,0.385,0.146,0.612,0.156c0.085,0.003,0.123-0.011,0.188,0.034
		c0.065,0.045,0.079,0.164,0.147,0.206c0.066,0.041,0.254,0.022,0.333,0c0.121-0.034,0.254-0.115,0.369-0.166
		c-0.1,0.477-0.529,0.402-0.902,0.546c-0.286,0.11-0.561,0.21-0.765,0.451c-0.158,0.186-0.258,0.407-0.431,0.579
		c-0.199,0.197-0.305,0.486-0.521,0.663c-0.212,0.173-0.464,0.342-0.7,0.481c-0.228,0.133-0.433,0.199-0.683,0.274
		c-0.224,0.067-0.476,0.168-0.601,0.379c-0.154,0.26,0.006,0.491-0.095,0.781c-0.103,0.298-0.063,0.605-0.047,0.917
		c0.011,0.214,0.016,0.611,0.207,0.736c0.267,0.174,0.86,0.075,1.176,0.04c0.384-0.043,0.719-0.196,1.034-0.414
		c0.222-0.154,0.366-0.313,0.634-0.331c0.192-0.014,0.385,0.065,0.578,0.078c0.301,0.02,0.607,0.009,0.908,0.03
		c0.349,0.025,0.676,0.131,1.021,0.171c0.257,0.03,0.504,0.008,0.746,0.102c0.713,0.279,1.307,0.732,2.102,0.793
		c0.476,0.037,0.961-0.123,1.399-0.295c0.17-0.067,0.369-0.145,0.528-0.235c0.157-0.088,0.228-0.24,0.368-0.334
		c0.195-0.131,0.469-0.106,0.707-0.105c0.299,0.001,0.465-0.04,0.585-0.362c0.115-0.309,0.119-0.76,0.167-1.092
		c0.268,0.33,0.123,0.945-0.078,1.275c-0.177,0.29-0.366,0.61-0.585,0.871c-0.462,0.55-1.242,0.369-1.866,0.569
		c-0.209,0.067-0.382,0.221-0.577,0.294c-0.16,0.06-0.372,0.013-0.503,0.135c-0.209,0.196,0.066,0.466,0.255,0.631
		c0.465,0.405,0.954-0.08,1.394-0.286c-0.114,0.581-0.98,0.926-1.457,0.669c-0.182-0.097-0.41-0.19-0.573-0.316
		c-0.097-0.075-0.151-0.207-0.244-0.278c-0.239-0.183-0.707-0.141-1.004-0.129c-0.264,0.011-0.695,0.042-0.814,0.32
		c-0.137,0.319,0.265,0.661,0.408,0.922c0.39,0.708,0.106,1.634,0.219,2.425c0.426-0.041,0.859-0.133,1.274-0.23
		c0.598-0.141,1.532-0.387,2.093-0.027c0.277,0.177,0.433,0.411,0.758,0.532c0.326,0.121,0.707,0.119,1.013,0.287
		c0.437,0.241,0.8,0.68,0.818,1.191c0.013,0.369,0.249,0.837,0.368,1.18c0.13,0.374,0.367,0.557,0.744,0.667
		c0.24,0.07,0.495,0.094,0.731,0.165c0.169,0.051,0.295,0.163,0.443,0.254c0.417,0.255,0.727,0.554,1.092,0.883
		c0.239,0.216,0.44,0.327,0.784,0.286c0.19-0.023,0.21-0.151,0.342-0.255c0.192-0.15,0.515-0.15,0.745-0.178
		c0.246-0.03,0.49,0.008,0.736,0.023c0.237,0.014,0.436-0.013,0.622-0.172c0.211-0.18,0.173-0.263,0.002-0.457
		c-0.231-0.262-0.2-0.39-0.009-0.662c0.103-0.147,0.295-0.42,0.223-0.608c-0.039-0.101-0.164-0.154-0.223-0.244
		c-0.098-0.148-0.133-0.359-0.161-0.532c-0.024-0.149-0.037-0.316-0.022-0.467c0.018-0.183,0.039-0.17,0.17-0.246
		c0.402-0.236,0.509-0.782,0.475-1.238l86.863-0.013V110.632z"/>
	<path fill="#1E8346" d="M37.332,8.51c-0.348-1.159-1.406-1.67-2.577-1.504c-0.652,0.093-1.326,0.1-1.971,0.28
		c-0.514,0.143-0.865,0.417-1.422,0.409c-0.479-0.007-1.171,0.035-1.608-0.152c-0.371-0.159-0.593-0.663-1.028-0.616
		c-0.282,0.031-0.477,0.376-0.712,0.514c-0.354,0.209-0.592,0.199-1.005,0.146c-0.431-0.056-1.242,0.007-1.6-0.256
		c-0.376-0.277-0.236-0.746-0.469-1.11c-0.13-0.204-0.389-0.4-0.59-0.519c-0.551,0.213-1.427,0.453-1.74,0.986
		c-0.308,0.522-0.317,1.129-0.7,1.654c-0.313,0.43-0.791,0.675-1.109,1.071c-0.3,0.371-0.2,0.874-0.554,1.232
		c-0.153,0.155-0.338,0.201-0.474,0.406c-0.115,0.173-0.117,0.412-0.254,0.582c-0.271,0.336-0.614,0.213-0.903,0.496
		c-0.284,0.277-0.317,0.845-0.57,1.15c-0.31,0.374-0.458,0.336-0.51,0.873c-0.073,0.764,0,1.573,0,2.341
		c0,1.243-0.163,2.347-0.211,3.553c-0.766,0.1-0.874,1.082-1.384,1.492c-0.337,0.272-0.51,0.276-0.694,0.679
		c-0.102,0.222-0.413,0.845-0.356,1.06c0.087,0.329,0.507,0.569,0.612,0.944c0.139,0.493-0.006,0.839-0.23,1.259
		c-0.517,0.968-1.304,1.086-2.315,0.941c-1.147-0.165-2.35-0.178-3.495-0.215c-0.243-0.008-0.555-0.149-0.746-0.15
		c-0.378-0.002-0.534,0.196-0.868,0.408c-0.754,0.48-1.149,1.145-1.654,1.873c-0.526,0.758-0.585,1.328-0.763,2.213
		c-0.123,0.614-0.501,1.134-0.559,1.747c-0.099,1.052-0.446,2.504,0.307,3.328c0.582,0.637,0.74,1.202,0.876,2.054
		c0.156,0.977,0.467,1.246,1.365,1.442c0.52,0.114,0.947,0.433,1.41,0.69c0.639,0.354,1.144,0.372,1.876,0.38
		c0.928,0.01,1.749,0.068,2.405,0.814c0.51,0.58,1.847,0.336,2.601,0.305c0.959-0.039,1.756,0.212,2.686,0.417
		c0.749,0.164,1.391,0.566,2.039,0.946c0.414,0.243,1.274,0.877,1.676,0.315c0.908-0.082,0.888-1.147,1.106-1.78
		c0.251-0.726,1.149-1.73,1.704-2.28c0.648-0.642,1.176-1.339,1.797-1.969c0.421-0.428,0.604-0.572,0.68-1.181
		c0.076-0.606,0.289-0.973,0.474-1.543c0.348-1.07-0.392-1.825-0.312-2.838c0.431-0.173,1.527-0.121,1.62-0.666
		c0.154-0.908,0.992-1.423,1.16-2.304c0.071-0.371-0.059-0.879,0.2-1.203c0.211-0.265,0.57-0.301,0.777-0.657
		c0.818-1.41,1.202-3.049,2.138-4.44c0.584-0.868,0.992-1.762,1.672-2.584c0.574-0.692,1.002-1.456,1.54-2.162
		c0.467-0.613,1.028-0.989,1.365-1.736c0.401-0.887,0.66-1.838,0.658-2.81c-0.001-0.764-0.016-1.671-0.358-2.378
		C37.989,9.743,37.563,9.282,37.332,8.51z"/>
</g>
</svg>
