<?xml version="1.0" encoding="utf-8"?>
<!-- Generator: Adobe Illustrator 26.0.3, SVG Export Plug-In . SVG Version: 6.00 Build 0)  -->
<svg version="1.1" id="Isolation_Mode" xmlns="http://www.w3.org/2000/svg" xmlns:xlink="http://www.w3.org/1999/xlink" x="0px"
	 y="0px" viewBox="0 0 200 200" enable-background="new 0 0 200 200" xml:space="preserve">
<path fill="#1E8346" d="M6.523,167.908c0.348-0.506,1.135-0.636,1.567-1.085c0.541-0.562,0.681-1.404,1.096-2.047
	c0.234-0.361,0.611-0.861,0.938-1.145c0.403-0.349,1.068-0.294,1.573-0.388c0.853-0.16,1.71-0.335,2.571-0.421
	c1.168-0.116,2.213-0.379,3.347-0.645c0.699-0.164,1.425-0.327,2.131-0.456c0.865-0.159,2.277,0.057,2.975-0.572
	c0.597-0.538,1.398-0.887,2.124-1.237c0.667-0.321,1.361-0.574,2.039-0.868c0.775-0.336,1.392-0.736,2.241-0.822
	c0.899-0.092,1.541-0.639,2.363-0.985c1.049-0.441,1.43-1.15,2.065-2.048c0.611-0.863,1.264-1.703,2.066-2.418
	c0.672-0.599,1.328-1.041,1.833-1.797c0.381-0.571,0.732-1.129,1.351-1.445c0.892-0.455,1.917-0.611,2.806-1.076
	c0.736-0.385,1.398-0.902,2.105-1.336c1.731-1.065,3.154-2.155,4.494-3.684c0.603-0.688,1.119-1.465,1.675-2.192
	c0.593-0.774,1.338-1.262,2.031-1.918c0.655-0.62,0.695-1.555,1.282-2.254c0.651-0.774,0.93-1.661,1.379-2.527
	c0.619-1.192,1.597-2.254,2.514-3.232c0.572-0.609,0.959-1.225,1.422-1.914c0.584-0.869,1.362-1.663,1.643-2.701
	c0.273-1.007,0.651-1.966,0.726-3.015c0.071-1.001,0.271-1.955,0.414-2.936c-0.207-0.41-0.455-0.852-0.769-1.18
	c-0.349-0.366-0.702-0.589-0.94-1.054c-0.233-0.457-0.408-0.651-0.808-1.011c-0.17-0.153-0.293-0.35-0.481-0.494
	c-0.35-0.269-0.986-0.445-1.234-0.791c-0.713-0.993,0.51-2.145,0.688-3.099c0.211-1.135,0.003-2.341,0.115-3.477
	c0.06-0.613-0.247-0.929-0.358-1.471c-0.172-0.842,0.168-1.583,0.264-2.385c0.072-0.601,0.491-1.088,0.359-1.769
	c-0.129-0.666-0.935-1.08-0.674-1.823c0.208-0.593,0.928-1.01,1.203-1.605c0.191-0.413,0.309-0.812,0.554-1.204
	c0.231-0.369,0.532-0.66,0.708-1.062c0.226-0.519,0.309-1.08,0.54-1.594c0.221-0.493,0.547-0.869,0.888-1.289
	c0.388-0.478,0.794-0.977,1.134-1.491c0.341-0.515,0.554-1.095,0.96-1.557c0.68-0.774,1.444-1.436,1.963-2.348
	c0.433-0.761,0.817-1.658,1.038-2.516c0.11-0.427,0.116-0.926-0.012-1.336c-0.226-0.722-0.585-1.105-0.104-1.886
	c0.221-0.36,0.512-0.545,0.413-1.03c-0.087-0.422-0.872-0.969-0.23-1.375c0.868-0.548,1.246-1.662,1.895-2.447
	c0.884-1.069,2.07-1.828,3.046-2.822c0.94-0.959,1.902-1.899,2.805-2.899c0.489-0.541,0.86-1.16,1.329-1.709
	c0.411-0.481,0.46-0.778,0.659-1.335c0.175-0.489,0.754-0.868,1.064-1.289c0.415-0.564,0.861-0.467,1.449-0.784
	c0.241-0.13,0.526-0.192,0.762-0.338c0.437-0.272,0.501-0.788,0.854-1.102c0.471-0.419,1.296-0.633,1.874-0.845
	c0.875-0.321,1.728-0.549,2.567-0.949c0.612-0.292,1.25-0.534,1.875-0.778c0.359-0.14,0.661-0.354,1.018-0.504
	c0.437-0.184,0.886-0.16,1.317-0.301c0.831-0.271,1.485-1.009,2.194-1.475c0.625-0.411,1.365-0.209,2.033-0.428
	c0.431-0.141,0.732-0.432,1.071-0.713c0.48-0.398,1.022-0.569,1.542-0.887c0.543-0.333,1.034-0.743,1.58-1.087
	c0.872-0.55,1.528-1.366,2.408-1.884c0.461-0.272,0.945-0.545,1.383-0.868c0.629-0.463,1.261-0.974,1.851-1.486
	c0.398-0.345,0.712-0.822,1.13-1.122c0.862-0.618,1.257-2.123,1.705-3.031c0.627-1.272,1.4-2.506,2.068-3.768
	c1.879-3.545,3.697-7.022,5.016-10.811c0.424-1.218,0.586-2.485,0.969-3.709c0.459-1.464,1.022-2.992,1.636-4.397
	c0.18-0.412,0.32-0.827,0.402-1.282c0.071-0.399,0.111-0.788,0.24-1.182c0.281-0.857,0.531-1.745,0.841-2.595
	c0.149-0.409,0.283-1.132,0.552-1.476c0.313-0.401,0.911-0.086,1.391-0.064c0.43,0.02,0.664,0.042,0.955-0.234
	c0.173-0.164,0.252-0.449,0.45-0.583c0.612-0.412,1.615,0.185,2.335-0.179c0.436-0.221,0.633-0.648,0.996-0.935
	c0.473-0.375,1.302-0.35,1.904-0.347c0.222,0.148,0.384,0.425,0.53,0.646c0.053,0.081,0.102,0.162,0.16,0.242
	c0.087,0.121,0.052,0.134,0.015,0.272c-0.084,0.315-0.092,0.668-0.08,0.994c0.008,0.24,0.081,0.459,0.091,0.697
	c0.008,0.176,0.01,0.372,0.034,0.547c0.034,0.247,0.215,0.609,0.372,0.798c0.225,0.273,0.599,0.365,0.739,0.722
	c0.056,0.144,0.049,0.308,0.086,0.458c0.036,0.146,0.076,0.263,0.082,0.415c0.006,0.146-0.022,0.302,0,0.446
	c0.02,0.134,0.084,0.201,0.179,0.316c0.123,0.15,0.215,0.348,0.351,0.477c0.173,0.164,0.419,0.079,0.621,0.156
	c0.133,0.051,0.357,0.229,0.444,0.342c0.069,0.092,0.095,0.225,0.16,0.33c0.166,0.265,0.512,0.32,0.685,0.562
	c0.23,0.323,0.276,0.82,0.622,1.05c0.176,0.117,0.422,0.07,0.607,0.167c0.234,0.123,0.323,0.417,0.477,0.614
	c0.189,0.241,0.449,0.452,0.679,0.653c0.199,0.174,0.448,0.431,0.689,0.548c0.283,0.138,0.537,0.14,0.823,0.328
	c0.344,0.227,0.631,0.54,0.949,0.803c0.39,0.322,0.806,0.46,1.278,0.618c0.311,0.105,0.642,0.062,0.947,0.162
	c0.398,0.13,0.681,0.298,1.115,0.313c0.566,0.02,1.157,0.229,1.697,0.407c0.24,0.079,0.451,0.249,0.698,0.297
	c0.205,0.04,0.446,0.008,0.65-0.012c0.276-0.027,0.527-0.051,0.773-0.187c0.333-0.185,0.676-0.382,1.069-0.434
	c0.749-0.099,1.369,0.054,2.07-0.298c0.753-0.379,1.439-0.62,2.287-0.703c0.386-0.038,0.79,0.153,1.098,0.386
	c0.25,0.189,0.387,0.267,0.723,0.231c0.257-0.028,0.702-0.064,0.892-0.273c0.214-0.235,0.225-0.638,0.5-0.884
	c0.277-0.248,0.671-0.296,1.027-0.223c0.491,0.101,0.774,0.496,1.166,0.767c0.384,0.265,0.813,0.553,1.272,0.667
	c0.355,0.088,0.755,0.036,1.119,0.036c0.415,0,0.843,0.055,1.258,0.046c0.216-0.005,0.421-0.031,0.631-0.052
	c0.37-0.038,0.562-0.176,0.882-0.359c0.225-0.129,0.458-0.174,0.721-0.207c0.268-0.034,0.553,0.024,0.76-0.174
	c0.155-0.149,0.223-0.337,0.426-0.449c0.258-0.142,0.575-0.115,0.827-0.262c0.488-0.283,0.699-0.797,0.897-1.295
	c0.09-0.225,0.106-0.477,0.209-0.696c0.126-0.267,0.366-0.465,0.51-0.727c0.416-0.761,0.488,0.526,0.497,0.808
	c0.014,0.425,0.067,0.871,0.262,1.249c0.144,0.278,0.295,0.506,0.352,0.818c0.057,0.309-0.105,0.568-0.065,0.868
	c0.016,0.124,0.087,0.224,0.094,0.362c0.012,0.249-0.125,0.321-0.22,0.536c-0.285,0.644,1.027,1.041,1.454,1.135
	c0.405,0.089,0.638,0.179,1.028,0c0.007-0.094-0.029-0.18-0.106-0.23c1.158,0.369,2.402,1.12,3.635,0.672
	c0.448-0.163,0.976-0.307,1.383-0.55c0.199-0.118,0.374-0.348,0.595-0.421c0.302-0.1,0.691,0.08,0.999,0.121
	c0.043,0.281,0.618,0.469,0.824,0.554c0.431,0.177,0.77,0.295,1.214,0.434c0.068,0.158,0.009,0.463,0.042,0.647
	c0.04,0.223,0.194,0.329,0.338,0.489c0.105,0.117,0.19,0.249,0.292,0.367c0.138,0.16,0.359,0.16,0.538,0.273
	c0.248,0.157,0.465,0.506,0.65,0.729c0.198,0.238,0.414,0.581,0.748,0.561c0.144-0.009,0.292-0.044,0.434-0.076
	c0.123-0.028,0.256-0.094,0.38-0.106c0.113-0.01,0.208,0.017,0.323,0.014c0,0.255-0.031,0.534,0.006,0.785
	c0.036,0.237,0.176,0.239,0.359,0.344c0.171,0.098,0.328,0.279,0.471,0.416c0.136,0.131,0.272,0.194,0.325,0.388
	c0.035,0.128-0.015,0.315,0.064,0.418c0.093,0.122,0.321,0.14,0.454,0.177c0.183,0.05,0.368,0.11,0.514,0.237
	c0.121,0.104,0.196,0.214,0.34,0.292c0.336,0.182,0.671,0.336,0.969,0.581l-0.377,0.183l-1.281,2.162l0.446,0.149l0.927,1.327
	l-0.011,0.286l1.144,0.492l-1.51,1.842l1.121,1.487l-0.092,1.19l1.052,2.574l-0.824,4.393c-0.018,0.28,0.318,0.682,0.412,0.954
	v0.434c0.227,0.482-0.245,0.736-0.533,1.008c-0.228,0.215-0.605,0.479-0.357,0.822c0.167,0.23,0.392,0.345,0.664,0.382
	c0.179,0.024,0.41-0.013,0.576,0.044c0.271,0.093,0.191,0.44,0.286,0.658c0.097,0.221,0.421,0.392,0.601,0.534l0.069,1.514
	l-1.041,2.459l-0.137,2.013l1.327,2.368l1.762,1.762l-0.32,1.693l-0.869,0.24l2.528,4.004l1.807,0.778l3.935,3.317
	c-0.234,0.232-0.462,0.473-0.708,0.708c-0.274,0.262-0.621,0.436-0.912,0.67c-0.329,0.265-0.477,0.455-0.891,0.589
	c-0.296,0.096-0.577,0.162-0.733,0.464c-0.122,0.236-0.131,0.597-0.212,0.844c-0.097,0.292,0.001,0.494,0.047,0.772
	c0.035,0.212-0.031,0.442-0.04,0.653c-0.013,0.295,0.009,0.59-0.097,0.871c-0.067,0.177-0.202,0.299-0.281,0.465
	c-0.221,0.464,0.24,0.402,0.517,0.308c0.503-0.17,1.205,0.404,1.229,0.919c0.025,0.533-0.546,0.597-0.971,0.681
	c-0.486,0.096-1.051,0-1.541-0.034c-0.304-0.021-2.198-0.078-2.191-0.542c-0.544,0.14-1.15,0.227-1.704,0.227l-6.246-1.647
	l-2.528,0.824l-1.956-0.32l-4.073,0.172l-1.178,0.606h-4.77c-0.06,0.166-0.009,0.28-0.119,0.427
	c-0.093,0.126-0.14,0.234-0.095,0.397c-0.065,0.201-0.06,0.396-0.061,0.607c-0.001,0.255,0.12,0.407,0.262,0.613
	c0.237,0.343,0.308,0.702,0.491,1.067c0.155,0.311,0.346,0.642,0.478,0.965c0.073,0.177,0.065,0.322,0.024,0.504
	c-0.03,0.132-0.121,0.252-0.065,0.399c0.123,0.326,0.427,0.426,0.428,0.803h-0.58l-12.454,2.959v4.416
	c-0.266-0.022-0.491,0.194-0.654,0.377c-0.269,0.301-0.219-0.015-0.542,0.038c-0.297,0.049-0.3,0.482-0.364,0.722
	c-0.135,0.508-0.193,0.611,0.379,0.725c0.009,0.37-0.531,0.45-0.514,0.76c0.01,0.186,0.31,0.347,0.417,0.521
	c0.139,0.229,0.117,0.249-0.049,0.493c-0.23,0.339-0.212,0.665-0.301,1.048c-0.017-0.233,0.571-0.01,0.689-0.24
	c0.05-0.098-0.023-0.242,0.08-0.314c0.105-0.073,0.293,0.121,0.403,0.11c-0.002-0.22,0.121-0.658,0.381-0.306
	c0.135,0.183,0.017,0.505,0.075,0.716c0.055,0.202,0.356,0.506,0.515,0.234c0.078-0.133,0.005-0.484,0.016-0.637
	c0.18,0.345,0.24,0.766,0.407,1.106c0.059,0.12,0.163,0.179,0.248,0.281c0.112,0.133,0.144,0.311,0.26,0.432
	c0.148-0.163,0.297-0.338,0.454-0.49c0.015,0.209,0.156,0.373,0.195,0.583c0.035,0.192,0.011,0.407,0.009,0.603
	c-0.002,0.201,0.015,0.431-0.045,0.622c-0.046,0.146-0.126,0.149-0.197,0.267c-0.071,0.119-0.065,0.251-0.123,0.384
	c-0.191-0.043-0.366,0.314-0.428,0.467c-0.1,0.248-0.071,0.338-0.319,0.487c-0.315,0.189-0.586,0.381-0.652,0.786
	c-0.025,0.153,0.053,0.365-0.001,0.509c-0.057,0.154-0.25,0.208-0.104,0.391c0.1,0.126,0.302,0.11,0.427,0.239
	c0.119,0.122,0.127,0.19,0.136,0.36c0.024,0.444-0.122,0.559-0.297,0.943l-5.194,1.807l-2.654,0.183l-2.586,0.961l-4.438,4.37
	l-5.239,2.791l-5.056,4.118l-0.641,1.029v0.961l-3.615,5.102c-0.12,0.133-0.526,0.043-0.702,0.022
	c-0.259-0.032-0.391-0.095-0.59-0.251c-0.218-0.171-0.6-0.467-0.865-0.444c-0.254,0.022-0.547,0.25-0.749,0.379
	c0.058-0.316,0.046-0.645,0.128-0.953c0.089-0.336,0.138-0.471-0.215-0.666c-0.46-0.254-1.193-0.054-1.676,0.071
	c-0.702,0.183-1.397,0.14-2.067,0.432c-0.596,0.259-1.363,0.097-1.967-0.1c-0.354-0.115-0.641-0.19-1.02-0.163
	c-0.336,0.024-0.556,0.248-0.886,0.298c-0.499,0.075-0.997,0.011-1.501,0.045c-0.788,0.051-1.675,0.013-2.326,0.503
	c-0.246,0.185-0.417,0.402-0.74,0.413c-0.286,0.01-0.621-0.093-0.908-0.092c-0.643,0.001-1.399,0.03-1.777,0.571
	c-0.135,0.193-0.272,0.411-0.524,0.409c-0.342-0.003-0.735-0.122-1.075-0.174c-0.377-0.058-0.932-0.029-1.2-0.352
	c-0.083-0.1-0.064-0.159-0.166-0.203c-0.069-0.029-0.243-0.001-0.314,0.001c-0.375,0.012-0.751,0.036-1.126,0.064
	c-0.276,0.02-0.626,0.075-0.885,0.007c-0.275-0.073-0.153-0.156-0.373-0.38c-0.265,0.142-0.613,0.198-0.894,0.309
	c-0.372,0.148-0.765,0.253-1.142,0.409c-0.206,0.085-0.432,0.182-0.592,0.347c-0.158,0.163-0.263,0.38-0.413,0.544
	c-0.311,0.341-0.717,0.624-1.155,0.725c-0.384,0.089-0.789,0.151-1.178,0.24c-0.213,0.049-0.425,0.101-0.64,0.144
	c-0.161,0.032-0.526-0.003-0.641,0.108c-0.406-0.001-0.828-0.099-1.234-0.031c-0.265,0.045-0.218,0.273-0.231,0.503
	c-0.026,0.494-0.411,0.719-0.846,0.855c-0.28,0.088-0.579,0.07-0.854,0.162c-0.247,0.082-0.431,0.292-0.647,0.431
	c-0.233,0.151-0.595,0.303-0.721,0.568c-0.061,0.128-0.001,0.385-0.148,0.457c-0.223,0.108-0.546-0.139-0.788,0
	c-0.179,0.104-0.33,0.321-0.473,0.474c-0.32,0.343-0.598,0.708-1.011,0.943c-0.265,0.151-0.553,0.252-0.812,0.411
	c-0.299,0.184-0.524,0.481-0.804,0.694c-0.308,0.235-0.595,0.439-0.942,0.618c-0.199,0.103-0.288,0.291-0.411,0.495
	c-0.058,0.097-0.227,0.031-0.308,0.01c-0.124-0.032-0.212-0.048-0.34-0.048l-1.571,1.373l-2.059,2.029l-3.31,1.571v18.227H6.186
	L6.523,167.908z"/>
</svg>
