<?xml version="1.0" encoding="utf-8"?>
<!-- Generator: Adobe Illustrator 26.0.3, SVG Export Plug-In . SVG Version: 6.00 Build 0)  -->
<svg version="1.1" id="Isolation_Mode" xmlns="http://www.w3.org/2000/svg" xmlns:xlink="http://www.w3.org/1999/xlink" x="0px"
	 y="0px" viewBox="0 0 200 200" enable-background="new 0 0 200 200" xml:space="preserve">
<path fill="#1E8346" d="M193.381,61.105c0.075-0.373,0.308-0.715,0.367-1.087c0.029-0.185-0.006-0.399-0.023-0.584
	c-0.014-0.144,0.044-0.467-0.032-0.58l-1.303-1.076l0.906-0.906c0-0.404-0.099-0.806-0.085-1.208
	c0.005-0.146,0.015-0.288,0.107-0.402c0.108-0.136,0.307-0.231,0.403-0.374c0.092-0.137-0.015-0.225-0.043-0.369
	c-0.029-0.154,0.029-0.231,0.135-0.33c0.103-0.095,0.159-0.1,0.131-0.245c-0.021-0.109-0.096-0.22-0.151-0.313
	c-0.115-0.193-0.32-0.517-0.298-0.752c0.127-0.17,0.283-0.277,0.456-0.402c-0.09-0.222-0.366-0.425-0.238-0.66
	c0.104-0.192,0.253-0.376,0.391-0.545c0.098-0.12,0.233-0.229,0.185-0.391c-0.056-0.187-0.276-0.327-0.369-0.494
	c-0.191,0.029-0.295,0.205-0.481,0.156c-0.343-0.09-0.229-0.446-0.42-0.671c-0.146-0.173-0.548-0.071-0.661-0.244
	c-0.083-0.127,0.069-0.167,0.082-0.266c0.014-0.107-0.117-0.21-0.183-0.284c-0.215-0.239-0.413-0.497-0.606-0.754
	c-0.098-0.13-0.212-0.29-0.359-0.371c-0.102-0.056-0.194-0.052-0.312-0.065c-0.431-0.047-0.855-0.102-1.267-0.225
	c-0.261-0.077-0.638-0.132-0.883,0.005c-0.094,0.053-0.184,0.15-0.296,0.158c-0.201,0.014-0.366-0.19-0.546-0.246
	c-0.263-0.082-0.52,0.079-0.797,0.079l-0.604-0.755l0.245-0.33l-0.236-0.642l0.378-0.953l-1.789-8.608l-6.994-9.967l-4.587-0.156
	c0,0.135-0.002,0.264-0.019,0.397c-0.121,0.011-0.295-0.02-0.41,0.013c-0.124,0.035-0.159,0.154-0.226,0.268
	c-0.116,0.199-0.213,0.402-0.319,0.607c-0.041,0.078-0.313,0.321-0.315,0.386c-0.004,0.131,0.187,0.146,0.126,0.326
	c-0.042,0.125-0.111,0.15-0.221,0.168c-0.101,0.017-0.138-0.041-0.186,0.076c-0.056,0.137,0.072,0.262-0.072,0.389
	c-0.098,0.085-0.259,0.042-0.348,0.127c-0.097,0.093-0.008,0.263-0.076,0.36c-0.112,0.158-0.27-0.178-0.399-0.196
	c-0.198-0.028-0.244,0.336-0.458,0.251c-0.158-0.063-0.057-0.253-0.105-0.373c-0.097-0.243-0.261,0.016-0.344,0.14
	c-0.167,0.252-0.144,0.007-0.348-0.008c-0.08,0.323-0.389,0.351-0.527,0.07c-0.042-0.087-0.036-0.193-0.073-0.285
	c-0.188-0.017-0.191,0.284-0.26,0.395c-0.03-0.072-0.085-0.129-0.149-0.172c-0.136,0.068-0.255,0.077-0.374,0.18
	c-0.067,0.058-0.133,0.177-0.222,0.196c-0.11,0.024-0.217-0.108-0.32-0.117c-0.156-0.013-0.167,0.063-0.231,0.182
	c-0.046,0.086-0.093,0.182-0.172,0.243c-0.13,0.102-0.5,0.09-0.673,0.058c-0.15-0.028-0.23-0.186-0.369-0.2
	c-0.045,0.113-0.073,0.235-0.124,0.344c-0.093-0.105-0.133-0.189-0.275-0.061c-0.201,0.182-0.039,0.357-0.03,0.55
	c-0.142-0.109-0.236-0.025-0.364,0.069c-0.097,0.072-0.249,0.143-0.23,0.291c0.012,0.091,0.16,0.164,0.162,0.256
	c0.003,0.148-0.17,0.096-0.262,0.124c-0.184,0.055-0.151,0.214-0.154,0.368c-0.16-0.072-0.322-0.161-0.505-0.143
	c-0.112,0.313-0.12,0.793-0.465,0.962c-0.059,0.029-0.121,0.017-0.18,0.044c-0.079,0.035-0.112,0.147-0.177,0.176
	c-0.085,0.038-0.261-0.041-0.344-0.078c-0.07,0.18,0.103,0.495-0.139,0.609c-0.255,0.12-0.414-0.16-0.539-0.312
	c-0.101,0.069-0.162,0.184-0.256,0.265c-0.083,0.072-0.066,0.091-0.198,0.089c-0.158-0.003-0.39-0.035-0.537-0.085
	c-0.049,0.229-0.07,0.514-0.151,0.732c-0.057,0.155-0.33,0.304-0.34,0.454c-0.011,0.15,0.185,0.211,0.151,0.386
	c-0.035,0.18-0.212,0.478-0.333,0.606c-0.048-0.092-0.141-0.26-0.273-0.228c-0.18,0.043-0.273,0.577-0.316,0.727
	c-0.075,0.254-0.142,0.534-0.295,0.755c-0.209,0.301-0.359,0.153-0.627,0.014c-0.2-0.104-0.354-0.257-0.577-0.293
	c-0.214-0.034-0.473-0.022-0.688,0.018c-0.102,0.019-0.133,0.056-0.221,0.106c-0.163,0.093-0.135,0.06-0.25-0.017
	c-0.102-0.068-0.217-0.132-0.307-0.217c-0.065-0.061-0.109-0.152-0.193-0.183c-0.025,0.074,0.025,0.255-0.015,0.302
	c-0.043,0.051-0.179,0-0.242-0.012c-0.281-0.054-0.235-0.199-0.218-0.462c-0.155-0.018-0.34,0.037-0.499,0.043
	c-0.064-0.109-0.239-0.249-0.347-0.299c-0.093,0.103-0.259,0.087-0.367,0.169c-0.052,0.039-0.092,0.113-0.139,0.159
	c-0.091,0.09-0.198,0.144-0.295,0.224c0.008-0.295-0.092-0.336-0.354-0.44c-0.394-0.157-0.827-0.144-1.222-0.271
	c-0.511-0.164-0.881-0.542-1.32-0.826c-0.206-0.133-0.38-0.278-0.528-0.47c-0.059-0.076-0.11-0.162-0.184-0.218
	c-0.165-0.126-0.574-0.148-0.638-0.392c-0.151-0.097-0.392-0.076-0.567-0.106c-0.282-0.048-0.562-0.111-0.842-0.167
	c-0.302-0.061-0.588-0.184-0.89-0.247c-0.314-0.066-0.674-0.061-0.969-0.201c-0.153-0.073-0.252-0.22-0.395-0.307
	c-0.258-0.156-0.563-0.262-0.838-0.384c-0.315-0.14-0.654-0.117-0.974-0.226c-0.309-0.105-0.568-0.306-0.895-0.306l-12.544,0.316
	l-2.803,1.104l-4.219,0.297l-2.888,1.416l-1.741,1.897l-0.92,0.58l-0.58,0.991l-2.209,2.478l-10.675-0.453l-4.856-1.472
	c-0.246-0.184-0.418-0.61-0.58-0.871c-0.212-0.342-0.45-0.741-0.794-0.956c-0.325-0.204-0.771-0.44-1.161-0.439
	c-0.392,0.002-0.779,0.255-1.174,0.255l-2.69-2.591l-2.591-1.458c-0.478-0.116-0.893-0.274-1.404-0.283
	c-0.913-0.016-1.806-0.099-2.73-0.099l-5.833,3.497c-0.57,0-1.129,0.055-1.702,0.029c-0.228-0.01-0.455-0.017-0.677-0.074
	c-0.282-0.071-0.567-0.196-0.864-0.196l-1.444,1.741l-0.991,0.227H74.85l-1.996-2.308l-1.76-2.818l-4.191-4.323l-2.322-1.151
	l-2.001,0.415l-7.948-2.964l-1.685-0.882l-2.761,0.906c-0.198,0.26-0.415,0.515-0.626,0.765c-0.139,0.165-0.322,0.408-0.525,0.496
	c-0.098,0.043-0.23,0.034-0.337,0.058c-0.156,0.034-0.277,0.099-0.422,0.155c-0.313,0.12-0.726-0.037-1.045-0.108
	c-0.389-0.087-0.787-0.12-1.184-0.12c-0.419,0-0.756,0.084-1.159,0.174c-0.258,0.058-0.626,0.206-0.891,0.161
	c-0.174-0.029-0.347-0.179-0.521-0.179l-0.58-0.637l-6.329,1.671l-3.492,3.185h-1.519l-0.085,5.456l-0.566,2.397l-2.557,3.851
	l-4.333,3.435c0,0.89,0.01,1.789,0.061,2.676c0.03,0.524,0.102,1.022,0.076,1.55c-0.023,0.46-0.248,0.967-0.306,1.419
	c-0.031,0.243-0.225,0.446-0.244,0.695c-0.021,0.257,0.148,0.525,0.28,0.734c0.134,0.213,0.435,0.411,0.509,0.648
	c0.054,0.171,0.028,0.498,0.001,0.673c-0.054,0.359-0.373,0.626-0.638,0.85c-0.155,0.131-0.22,0.139-0.267,0.311
	c-0.058,0.21,0.002,0.521,0.021,0.736c0.016,0.173-0.002,0.471,0.103,0.613c0.101,0.137,0.308,0.165,0.447,0.25
	c0.28,0.171,0.366,0.632,0.299,0.942c-0.062,0.287-0.324,0.494-0.536,0.68c-0.277,0.244-0.332,0.192-0.749,0.192l-0.661,1.491
	l-0.835,4.974c0.143,0.053,0.315,0.226,0.446,0.315c0.188,0.129,0.364,0.272,0.549,0.407c0.112,0.082,0.219,0.177,0.322,0.272
	c0.109,0.101,0.217,0.189,0.298,0.309c0.121,0.181,0.352,0.32,0.525,0.444c0.189,0.135,0.364,0.291,0.557,0.419
	c0.184,0.122,0.496,0.227,0.616,0.422c0.077,0.127,0.048,0.372,0.054,0.519c0.01,0.233,0.033,0.467,0.032,0.701
	c-0.001,0.144-0.016,0.26,0.091,0.357c0.106,0.097,0.268,0.094,0.375,0.191c0.127,0.116,0.185,0.32,0.236,0.481
	c0.125,0.39,0.053,0.852,0.009,1.251c-0.041,0.376-0.126,0.746-0.158,1.122c-0.024,0.29,0.024,0.591,0.165,0.846
	c0.126,0.227,0.216,0.496,0.375,0.705c0.135,0.178,0.72,0.377,0.72,0.597c0,0.438,0.01,0.875,0.057,1.31
	c0.036,0.338,0.088,0.747-0.013,1.074c-0.198,0.642-0.419,1.269-0.656,1.896c-0.02,0.054-0.056,0.216-0.099,0.251
	c-0.077,0.064-0.082,0.011-0.168-0.039c-0.206-0.121-0.429-0.221-0.638-0.343c-0.247-0.144-0.486-0.282-0.763-0.366
	c-0.155-0.047-0.194,0.028-0.321,0.149c-0.238,0.226-0.632,0.521-0.697,0.868c-0.036,0.193-0.138,0.375-0.177,0.571
	c-0.039,0.193-0.083,0.371-0.147,0.558c-0.099,0.285-0.32,0.586-0.21,0.892c0.049,0.138,0.143,0.263,0.206,0.395
	c0.067,0.139,0.124,0.306,0.236,0.418c0.135,0.135,0.349,0.218,0.525,0.286c0.094,0.036,0.252,0.062,0.329,0.134
	c0.172,0.161-0.057,0.846-0.167,1.041c-0.153,0.27-0.581,0.365-0.679,0.662c-0.093,0.28-0.005,0.694-0.014,0.991
	c-0.013,0.427-0.107,0.909-0.465,1.176c-0.167,0.125-0.24,0.184-0.267,0.386c-0.029,0.218,0,0.271-0.19,0.377
	c-0.179,0.101-0.288,0.239-0.447,0.363c-0.168,0.131-0.277,0.072-0.468,0.019c-0.154-0.042-0.35-0.146-0.513-0.11
	c-0.165,0.035-0.341,0.182-0.49,0.265c-0.41,0.227-0.884,0.406-1.262,0.684c-0.296,0.217-0.404,0.442-0.386,0.802
	c0.014,0.28,0.118,0.408,0.327,0.58c0.178,0.147,0.238,0.223,0.111,0.419c-0.143,0.222-0.436,0.513-0.707,0.574
	c-0.118-0.067-0.296-0.056-0.419-0.01c-0.189,0.071-0.285,0.32-0.388,0.491c-0.305,0.504-0.587,1.015-0.843,1.544
	c-0.112,0.231-0.165,0.382-0.418,0.41c-0.212,0.024-0.314,0.074-0.404,0.263c-0.134,0.282-0.227,0.543-0.205,0.861
	c0.022,0.319,0.123,0.645,0.199,0.956c0.102,0.419,0.226,0.814,0.226,1.248c-0.205,0.229-0.387,0.41-0.521,0.695
	c-0.152,0.324-0.253,0.668-0.295,1.02c-0.033,0.277-0.036,0.559-0.091,0.834c-0.025,0.123-0.012,0.356-0.093,0.452
	c-0.074,0.088-0.228,0.078-0.331,0.095c-0.171,0.028-0.339,0.069-0.51,0.095c-0.297,0.045-0.589,0.121-0.885,0.168
	c-0.314,0.05-0.615,0.082-0.914,0.195c-0.303,0.115-0.59,0.112-0.908,0.096c-0.262-0.014-0.525-0.04-0.788-0.054
	c-0.143-0.007-0.457-0.063-0.567,0.057c-0.014,0.194,0.056,0.389,0.079,0.581c0.039,0.337,0.039,0.718-0.096,1.031
	c-0.11,0.256-0.29,0.431-0.142,0.693c0.058,0.103,0.083,0.106,0.075,0.224c-0.007,0.118-0.065,0.226-0.096,0.335
	c-0.068,0.239,0.064,0.263,0.145,0.46c0.064,0.153,0.029,0.311-0.083,0.425c-0.118,0.12-0.398,0.244-0.446,0.407
	c-0.045,0.149,0.097,0.218,0.167,0.327c0.104,0.161,0.165,0.374,0.075,0.547c-0.038,0.074-0.128,0.157-0.131,0.237
	c-0.006,0.183,0.035,0.162,0.173,0.238c-0.087,0.28-0.355,0.434-0.341,0.738c0.066,0.008,0.126,0.043,0.194,0.046
	c0.15,0.347,0.054,0.875,0.072,1.252c0.014,0.285-0.054,0.741,0.256,0.869l-0.382,1.189l-0.467,0.085l-0.326,1.826l0.977,1.727
	l-1.175,4.304c-0.171,0.528,0.06,1.108,0.29,1.587c0.146,0.304,0.369,0.596,0.39,0.943c0.021,0.356,0.001,0.73-0.057,1.08
	c-0.046,0.28-0.085,0.562-0.085,0.846c0,0.338,0.085,0.624,0.148,0.952c0.062,0.326,0.246,0.659,0.529,0.829
	c0.286,0.172,0.312,0.431,0.512,0.658l0.014,0.991l-0.75,0.099l0.297,3.771c0.063,0.246,0.158,0.439,0.095,0.699
	c-0.051,0.212-0.258,0.372-0.373,0.554c-0.204,0.322,0.187,0.545,0.146,0.859c-0.016,0.127-0.096,0.184-0.182,0.267
	c-0.101,0.097-0.177,0.179-0.242,0.303c-0.113,0.216-0.221,0.543-0.181,0.793c0.028,0.17,0.211,0.343,0.312,0.479v1.504v0.582
	c0.045,0.096,0.123,0.174,0.216,0.234c0.117,0.075,0.359,0.112,0.439,0.226c0.091,0.131,0.037,0.554,0.01,0.703
	c-0.038,0.218-0.138,0.44-0.245,0.628c-0.07,0.123-0.144,0.244-0.217,0.365c-0.067,0.111-0.181,0.224-0.226,0.345
	c-0.137,0.372,0.392,0.804,0.106,1.159c-0.097,0.121-0.24,0.243-0.356,0.347c-0.175,0.156-0.236,0.243-0.125,0.453
	c0.087,0.162,0.189,0.248,0.117,0.437c-0.049,0.128-0.182,0.248-0.183,0.38c-0.003,0.435-0.057,0.872,0.041,1.3
	c0.591,0.02,1.183-0.217,1.776-0.247c0.933-0.047,1.865-0.127,2.799-0.17c1.037-0.047,2.073-0.071,3.112-0.071
	c0.638,0,1.273,0.038,1.91,0.038c0.328,0,0.709,0.082,1.029,0.02c0.257-0.05,0.473-0.236,0.727-0.302
	c0.452-0.118,0.995-0.039,1.461-0.039c0.911,0,2.034-0.018,2.955-0.038c1.104-0.024,2.186-0.24,3.302-0.189
	c0.625,0.028,1.264,0.117,1.882,0.226c0.576,0.102,1.065,0.373,1.666,0.447c0.915,0.112,1.823,0.004,2.713,0.272
	c0.757,0.229,1.484,0.525,2.174,0.922c0.719,0.414,1.381,0.739,2.002,1.304c0.32,0.291,0.672,0.551,1.007,0.826
	c0.401,0.328,1.048,0.603,1.357,1.015c0.892,1.187,2.221,2.008,3.076,3.203c0.428,0.597,0.542,1.602,1.141,2.054
	c0.192,0.145,0.269,0.126,0.361-0.082c0.095-0.215,0.172-0.273,0.41-0.37c0.032,0.15-0.14,0.385-0.181,0.54
	c-0.047,0.179-0.064,0.389-0.042,0.582c0.044,0.392,0.384,0.913,0.603,1.251c0.168,0.259,0.476,0.624,0.771,0.755
	c0.244,0.109,0.408-0.079,0.609-0.181c0.277-0.139,0.622-0.111,0.923-0.135c0.179-0.014,0.409-0.058,0.586-0.015
	c0.153,0.037,0.124,0.092,0.229,0.18c0.188,0.158,0.819,0.262,1.048,0.121c0.077,0.227-0.356,0.372-0.507,0.377
	c-0.295,0.009-0.662-0.115-0.953-0.168c-0.248-0.045-0.479-0.11-0.732-0.062c-0.206,0.039-0.516,0.174-0.708,0.247
	c-0.202,0.076-0.347,0.31-0.452,0.493c-0.083,0.145-0.102,0.119-0.03,0.279c0.071,0.157,0.179,0.341,0.282,0.479
	c0.294,0.395,0.673,0.701,1.084,0.959c0.443,0.279,0.94,0.562,1.46,0.661c0.188,0.036,0.388,0.017,0.579,0.036
	c0.162,0.016,0.355,0.051,0.513,0c-0.036-0.036-0.017-0.123,0.035-0.161c0.067-0.049,0.214,0.038,0.287,0.041
	c0.164,0.008,0.407-0.08,0.498-0.233c0.102-0.171,0.13-0.413,0.186-0.601c0.077-0.262,0.263-0.436,0.399-0.668
	c-0.008,0.347-0.221,1.024,0.051,1.315c0.106,0.114,0.51,0.196,0.5,0.426c-0.009,0.205-0.278,0.048-0.39,0.075
	c-0.153,0.036-0.133,0.2-0.231,0.277c-0.081,0.064-0.229,0.043-0.322,0.052c-0.153,0.016-0.299,0.03-0.454,0.024
	c-0.314-0.012-0.624-0.028-0.939-0.027c-0.19,0.001-0.378,0.014-0.569,0.014c-0.128,0-0.385-0.056-0.47,0.075
	c-0.06,0.092-0.049,0.387-0.035,0.497c0.018,0.143,0.08,0.275,0.094,0.42c0.013,0.129-0.036,0.309,0.033,0.424
	c0.163,0.274,0.111,0.752,0.127,1.062c0.02,0.382,0.199,0.599,0.389,0.906c0.159,0.259,0.267,0.567,0.376,0.848
	c0.168,0.436,0.413,0.864,0.553,1.299c0.172,0.537,0.312,1.109,0.409,1.66c0.093,0.532,0.424,1.144,0.68,1.627
	c0.45,0.85,0.991,1.663,1.51,2.469c0.157,0.243,0.324,0.575,0.528,0.775c0.236,0.231,0.58,0.319,0.838,0.512
	c0.272,0.203,0.544,0.539,0.767,0.814c0.242,0.299,0.495,0.522,0.778,0.778c0.759,0.688,1.615,1.216,2.518,1.675
	c0.037,0.019,0.052,0.049,0.092,0.043c0.025-0.004,0.07-0.047,0.084-0.066c0.026-0.038,0.027-0.088,0.04-0.132
	c0.011-0.037,0.032-0.152,0.06-0.178c0.056-0.053,0.081,0.07,0.085,0.12c0.01,0.115-0.004,0.219,0.024,0.332
	c0.021,0.084,0.058,0.197,0.104,0.273c0.062,0.101,0.202,0.089,0.308,0.11c0.152,0.031,0.312,0.082,0.455,0.141
	c0.194,0.08,0.403,0.106,0.618,0.102c-0.126-0.171-0.093-0.405-0.148-0.599c-0.028-0.098-0.1-0.165-0.146-0.252
	c-0.058-0.109-0.059-0.226-0.056-0.345c0.062,0.038,0.12,0.113,0.189,0.133c0.078-0.114,0.043-0.329,0.073-0.463
	c0.03-0.132,0.112-0.207,0.209-0.298c0.074-0.069,0.373-0.327,0.482-0.301c0.094,0.022,0.054,0.122,0.012,0.171
	c-0.116,0.134-0.604,0.219-0.56,0.469c0.016,0.094,0.156,0.125,0.223,0.173c0.113,0.081,0.065,0.177,0.013,0.29
	c-0.098,0.216-0.187,0.394-0.188,0.636c-0.001,0.173-0.005,0.347,0.001,0.52c0.411-0.011,0.824,0.028,1.235,0.028
	c0.226,0,0.948,0.135,0.978-0.234c0.007-0.092-0.044-0.135-0.093-0.204c-0.082-0.118-0.09-0.227-0.083-0.371
	c0.011-0.217,0.103-0.399,0.165-0.603c0.041-0.133,0.1-0.265,0.127-0.402c0.03-0.15-0.055-0.274-0.046-0.416
	c0.07,0.044,0.22,0.206,0.316,0.172c0.173-0.062-0.042-0.514,0.129-0.596c0.133,0.132,0.084,0.415,0.084,0.583
	c0,0.048-0.042,0.239-0.006,0.29c0.046,0.066,0.117,0.002,0.175-0.034c0.054-0.033,0.207-0.223,0.265-0.216
	c0.07,0.008,0.063,0.107,0.049,0.159c-0.042,0.156-0.207,0.374-0.311,0.496c-0.092,0.108-0.141,0.239-0.229,0.348
	c-0.107,0.133-0.223,0.209-0.292,0.374c-0.051,0.124-0.034,0.238-0.039,0.37c0.385,0.041,0.776,0.037,1.163,0.039
	c0.4,0.001,0.77,0.007,1.155-0.113c0.116-0.036,0.237-0.075,0.346-0.13c0.117-0.059,0.174-0.141,0.258-0.233
	c0.036-0.039,0.027-0.063,0.08-0.052c0.042,0.008,0.118,0.114,0.15,0.142c0.051,0.044,0.11,0.1,0.18,0.112
	c0.24,0.044,0.484-0.087,0.729-0.102c0.339-0.021,0.682-0.016,1.02-0.049c0.144-0.014,0.293-0.031,0.318-0.202
	c0.016-0.11-0.064-0.195-0.047-0.306c0.016-0.11,0.144-0.154,0.152-0.266c0.077,0.094,0.086,0.22,0.181,0.303
	c0.089,0.079,0.203,0.115,0.287,0.202c0.109,0.112,0.28,0.436,0.467,0.331c0.079-0.045,0.107-0.146,0.17-0.206
	c0.055-0.052,0.125-0.086,0.197-0.105c0.121-0.031,0.264-0.052,0.388-0.073c0.038-0.114-0.055-0.298-0.086-0.407
	c-0.043-0.157-0.062-0.313-0.099-0.47c-0.02-0.084-0.044-0.176-0.09-0.25c-0.049-0.079-0.13-0.131-0.166-0.219
	c-0.078-0.191-0.117-0.464-0.109-0.671c0.19,0.052,0.203,0.357,0.37,0.428c0.05-0.182-0.014-0.414,0.01-0.607
	c0.017-0.14,0.086-0.242,0.124-0.371c0.032,0.129,0.007,0.293,0.007,0.428c0,0.169,0.029,0.232,0.145,0.345
	c0.033,0.032,0.105,0.078,0.108,0.131c0.004,0.059-0.06,0.088-0.081,0.138c-0.062,0.148,0.018,0.408,0.029,0.565
	c0.016,0.226-0.002,0.454,0.106,0.662c0.101,0.194,0.376,0.154,0.569,0.159c0.389,0.01,0.762,0.009,1.149-0.027
	c0.203-0.019,0.481,0.047,0.621-0.125c-0.066-0.069-0.162-0.132-0.217-0.21c-0.071-0.1-0.133-0.182-0.221-0.266
	c-0.179-0.17-0.218-0.369-0.254-0.608c-0.063-0.411-0.18-0.779-0.358-1.148c-0.15-0.309-0.28-0.879-0.028-1.176
	c0.136-0.16,0.315-0.312,0.311-0.537c-0.001-0.043,0.012-0.114,0.018-0.161c0.225,0.326-0.028,0.674-0.056,1.007
	c-0.007,0.083-0.013,0.163-0.014,0.247c-0.001,0.079-0.017,0.181,0,0.257c0.024,0.104,0.093,0.167,0.142,0.262
	c0.171,0.334,0.222,0.776,0.325,1.138c0.076,0.265,0.158,0.559,0.419,0.695c0.392,0.204,0.92,0.166,1.344,0.214
	c0.341,0.039,0.625,0.13,0.816-0.2c0.079-0.136,0.044-0.23-0.025-0.375c-0.133-0.282-0.247-0.57-0.361-0.862
	c-0.07-0.179-0.137-0.36-0.202-0.541c-0.05-0.139-0.16-0.319-0.179-0.466c-0.029-0.222,0.213-0.434,0.255-0.654
	c0.053-0.28,0.066-0.641,0.025-0.926c-0.019-0.129-0.097-0.218-0.141-0.334c-0.039-0.103-0.028-0.221-0.044-0.33
	c0.103,0.289,0.282,0.553,0.387,0.836c0.091,0.246,0.077,0.418,0.251,0.637c-0.149-0.008-0.293-0.023-0.313,0.147
	c-0.011,0.092,0.034,0.211,0.045,0.305c0.02,0.18,0.022,0.362,0.056,0.541c0.054,0.291,0.193,0.554,0.28,0.835
	c0.061,0.197,0.129,0.353,0.259,0.513c0.125-0.09,0.268-0.09,0.412-0.13c0.127-0.036,0.23-0.118,0.352-0.16
	c0.421-0.145,1.119,0.043,1.292-0.485c0.076-0.232,0.034-0.513,0.053-0.757c0.027-0.337,0.042-0.674,0.043-1.015
	c0-0.162-0.025-0.275-0.096-0.419c-0.05-0.101-0.14-0.208-0.142-0.324c0.271,0.158,0.413,0.524,0.607,0.765
	c0.104,0.13,0.206,0.252,0.331,0.364c0.114,0.103,0.436,0.262,0.452,0.433c0.015,0.167-0.436,0.288-0.546,0.41
	c-0.207,0.229-0.353,0.506-0.525,0.758c-0.176,0.259-0.373,0.504-0.546,0.766c-0.174,0.264-0.021,0.347,0.235,0.479
	c0.491,0.253,1.129,0.295,1.624,0.036c0.223-0.116,0.414-0.257,0.651-0.346c0.113-0.042,0.252-0.058,0.352-0.125
	c-0.086-0.134-0.193-0.178-0.15-0.359c0.057-0.242,0.222-0.462,0.274-0.704c0.044,0.173-0.022,0.402,0.085,0.552
	c0.206,0.288,0.905,0.254,1.216,0.277c0.546,0.041,0.998-0.143,1.528-0.212c0.366-0.047,0.752,0.03,1.114-0.034
	c0.025-0.225-0.038-0.387-0.065-0.609c0.172,0.14,0.261,0.27,0.519,0.241c0.193-0.022,0.364-0.173,0.52-0.279
	c0.196-0.135,0.408-0.165,0.635-0.22c1.091-0.261,2.212-0.232,3.326-0.345c0.96-0.098,1.924-0.169,2.896-0.184
	c0.746-0.012,1.527-0.048,2.265,0.062c0.092,0.013,0.652,0.115,0.731,0.03c0.04-0.044,0-0.212-0.001-0.28
	c-0.004-0.267,0.142-0.46,0.25-0.698c0.102,0.086,0.259-0.081,0.336-0.164c0.162-0.174,0.099-0.191-0.03-0.387
	c-0.281-0.426,0.024-1.07,0.012-1.548c-0.008-0.321-0.069-0.478-0.351-0.63c-0.222-0.12-0.452-0.24-0.65-0.399
	c-0.249-0.201-0.628-0.438-0.344-0.725c0.187-0.189,0.27-0.169,0.151-0.427c-0.08-0.173-0.306-0.506-0.26-0.697
	c0.064-0.268,0.268-0.001,0.431-0.007c0,0.291,0.16,0.624,0.306,0.868c0.095,0.16,0.048,0.12,0.203,0.186
	c0.124,0.053,0.15,0.024,0.254,0.148c0.247,0.292,0.403,0.565,0.721,0.773c0.071,0.046,0.158,0.156,0.244,0.16
	c0.07,0.004,0.219-0.16,0.26-0.152c0.181,0.031-0.239,0.48-0.082,0.696c0.22,0.303,0.579,0.211,0.899,0.225
	c0.532,0.023-0.068,0.557,0.488,0.551c0.252-0.003,0.496-0.209,0.621-0.415c0.236-0.386,0.174-1.053,0.596-1.302
	c0.449-0.264,1.378-0.211,0.787-0.924c0.167-0.259,0.579-0.461,0.687-0.737c0.137-0.352-0.113-0.619,0.259-0.881
	c0.108-0.076,0.378-0.143,0.434-0.266c0.077-0.169-0.126-0.142-0.112-0.297c0.011-0.128,0.215-0.186,0.299-0.243
	c0.121-0.082,0.226-0.184,0.312-0.3c-0.096-0.463,0.55-0.673,0.756-1.015c0.161-0.267,0.263-0.572,0.4-0.851
	c0.113-0.23,0.229-0.438,0.241-0.699c0.014-0.309,0.006-0.674-0.038-0.981c-0.017-0.119-0.051-0.231-0.038-0.356
	c0.022-0.209,0.139-0.368,0.227-0.555c0.174-0.369,0.225-0.674,0.226-1.077c0.001-0.383-0.008-0.599,0.173-0.945
	c0.117-0.226,0.234-0.477,0.393-0.677c0.135-0.17,0.313-0.297,0.43-0.475c0.28-0.427,0.27-0.828-0.033-1.242
	c-0.189-0.259-0.41-0.477-0.67-0.68c-0.277-0.216-0.495-0.335-0.436-0.733c0.303,0.015,0.3-0.222,0.386-0.447
	c0.092-0.239,0.303-0.417,0.343-0.678c0.073-0.471-0.324-0.159-0.539-0.35c-0.071-0.063-0.114-0.353-0.085-0.441
	c0.033-0.102,0.27-0.205,0.378-0.292c0.174-0.142,0.367-0.221,0.551-0.344c0.222-0.148,0.153-0.261,0.166-0.528l3.813-3.096
	c-0.002-0.31,0.302-0.673,0.526-0.854c0.067-0.054,0.165-0.118,0.234-0.164c0.235-0.154,0.513-0.128,0.763-0.229
	c0.203-0.082,0.268-0.177,0.396-0.373c0.242-0.372,0.378-0.803,0.635-1.169c0.128-0.183,0.201-0.309,0.26-0.534
	c0.043-0.165,0.015-0.406,0.091-0.55c0.18,0.079,0.346,0.144,0.552,0.175c0.234,0.035,0.612,0.077,0.789,0.221
	c0.152-0.276,0.217-0.697,0.266-1.007c0.052-0.328,0.225-0.632,0.244-0.965c0.255-0.034,0.477,0.014,0.722,0.051
	c0.219,0.034,0.281-0.026,0.455-0.149c0.33-0.236,0.901-0.544,0.901-1.019c0.492,0.077,0.99,0.074,1.492,0.127
	c0.361,0.039,0.4-0.973,0.425-1.14c0.038-0.253,0.151-0.519,0.228-0.766c0.075-0.239,0.132-0.639,0.393-0.727
	c0.018-0.236,0.03-0.467,0.03-0.704c0-0.172-0.046-0.421,0.01-0.585c0.008-0.024,0.043-0.044,0.056-0.067
	c0.038-0.069,0.067-0.184,0.112-0.244c0.086-0.115,0.265-0.082,0.419-0.055c0.236,0.042,0.454,0.133,0.694,0.169
	c0.051,0.008,0.126,0.025,0.182,0.042l4.516-4.035c0.325,0.209,0.308,0.517,0.324,0.878c0.012,0.252-0.04,0.498,0.087,0.723
	c0.068,0.119,0.141,0.244,0.225,0.353c0.112,0.145,0.277,0.254,0.382,0.396l3.808-0.467c-0.009-0.011,0.242,0.242,0.275,0.289
	c0.154-0.077,0.245-0.195,0.375-0.299c0.127-0.102,0.259-0.163,0.367-0.29c0.201-0.237,0.234-0.552,0.283-0.848
	c0.081-0.485,0.054-0.983,0.12-1.471c0.034-0.251,0.05-0.498,0.07-0.75c0.015-0.175,0.036-0.455,0.193-0.567
	c0.095,0.082,0.236,0.316,0.279,0.436c0.076,0.212-0.011,0.477,0.005,0.699c0.02,0.268,0.138,0.375,0.324,0.554
	c0.111,0.107,0.138,0.147,0.291,0.154c0.172,0.007,0.347,0,0.518,0l1.459,1.472c0.193,0,0.384-0.124,0.575-0.059
	c0.115,0.039,0.262,0.142,0.363,0.212c0.207,0.144,0.215,0.232,0.194,0.486c-0.015,0.185-0.104,0.351-0.141,0.535
	c-0.031,0.158-0.125,0.39-0.081,0.553c0.042,0.158,0.202,0.298,0.295,0.42c0.247,0.324,0.526,0.578,0.831,0.844
	c0.024-0.021,0.063-0.019,0.082-0.032c0.163,0.239,0.093,0.554,0.253,0.786c0.078,0.113,0.209,0.234,0.306,0.332
	c0.165,0.169,0.275,0.101,0.473,0.035c0.344-0.112,0.643-0.222,1.01-0.234c0.21-0.007,0.533-0.063,0.7,0.029
	c0.105,0.058,0.285,0.262,0.307,0.368c0.081,0.386,0.028,0.753,0.028,1.152c0,0.337-0.056,0.662-0.071,0.995
	c-0.015,0.333,0.163,0.288,0.392,0.462c0.096-0.042,0.217-0.114,0.244-0.222c0.155,0.201,0.14,0.243,0.398,0.319
	c0.107,0.031,0.319,0.109,0.42,0.051c0.136-0.079,0.137-0.344,0.204-0.495c0.269,0.04,0.595,0.257,0.878,0.199
	c0.178-0.037,0.317-0.267,0.521-0.212c0.174,0.047,0.247,0.274,0.37,0.39c0.118,0.112,0.444,0.185,0.579,0.091
	c0.128-0.088,0.033-0.252,0.175-0.326c0.085-0.044,0.38-0.036,0.479-0.056c0.091-0.018,0.169-0.038,0.251-0.083
	c0.115-0.063,0.324-0.165,0.342-0.292c0.035-0.233-0.262-0.431-0.245-0.685c0.257-0.082,0.552-0.033,0.818-0.086
	c0.195-0.039,0.495-0.036,0.648-0.167c0.161-0.137,0.27-0.453,0.397-0.633c0.146-0.208,0.203-0.291,0.167-0.545
	c-0.039-0.281,0.018-0.344,0.221-0.523c0.09-0.079,0.312-0.247,0.313-0.374c0-0.127-0.097-0.125-0.146-0.206
	s-0.043-0.308-0.011-0.401c0.046-0.134,0.33-0.297,0.186-0.451c-0.159-0.171-0.52-0.442-0.533-0.684
	c-0.008-0.15,0.189-0.34,0.255-0.472c0.032-0.065,0.064-0.155,0.109-0.209c0.063-0.077,0.162-0.094,0.255-0.122
	c0.157-0.049,0.21-0.049,0.264-0.204c0.027-0.077,0.059-0.154,0.072-0.233c0.017-0.102,0.006-0.206,0.018-0.307
	c0.014-0.106,0.016-0.171,0.114-0.226c0.104-0.058,0.229-0.09,0.337-0.141c0.174-0.082,0.314-0.21,0.452-0.342
	c0.116-0.11,0.245-0.206,0.371-0.306c0.107-0.085,0.199-0.2,0.312-0.276c0.129-0.086,0.324-0.084,0.474-0.094
	c0.175-0.011,0.344-0.017,0.518-0.018c0.046-0.138,0.407-0.457,0.544-0.412c0.058,0.019,0.12,0.118,0.189,0.117
	c0.097,0,0.124-0.185,0.153-0.27c0.131-0.041,0.234,0.11,0.373,0.092c0.163-0.021,0.183-0.214,0.26-0.33
	c-0.003-0.448-0.195-0.875-0.217-1.329c-0.008-0.171-0.051-0.349-0.029-0.521c0.017-0.133,0.111-0.302,0.181-0.413
	c-0.118-0.021-0.322-0.029-0.42-0.106c-0.092-0.073-0.129-0.319-0.064-0.412c0.05-0.073,0.138-0.138,0.194-0.211
	c0.058-0.076,0.115-0.152,0.165-0.234c0.099-0.164,0.188-0.293,0.18-0.492c-0.01-0.263,0.103-0.484,0.291-0.66
	c0.091-0.085,0.18-0.155,0.278-0.229c0.063-0.048,0.12-0.108,0.137-0.187c0.06-0.275-0.092-0.585-0.023-0.856
	c0.035-0.135,0.187-0.177,0.296-0.238c0.187-0.104,0.372-0.193,0.57-0.274c0.169-0.07,0.328-0.172,0.475-0.279
	c0.101-0.073,0.158-0.083,0.155-0.214c-0.003-0.14-0.022-0.285-0.047-0.423c-0.088-0.495-0.304-1.188-0.292-1.69
	c0.004-0.181,0.013-0.176,0.155-0.26c0.122-0.072,0.178-0.135,0.265-0.279c0.167-0.277,0.301-0.572,0.429-0.867
	c0.121-0.278,0.231-0.581,0.428-0.816c0.236-0.28,0.478-0.551,0.707-0.837c0.239-0.299,0.49-0.58,0.701-0.905
	c0.164-0.252,0.502-0.521,0.562-0.806c0.099-0.471-0.106-1.06-0.147-1.535c-0.016-0.178-0.085-0.506-0.02-0.678
	c0.075-0.197,0.313-0.344,0.413-0.531c0.159-0.3,0.328-0.426,0.359-0.77c0.032-0.368,0.023-0.738,0.039-1.112
	c0.022-0.498,0.055-0.987,0.055-1.489c0-0.256-0.017-0.509-0.019-0.763c-0.001-0.221,0.1-0.414,0.209-0.605
	c0.25,0.087,0.895,0.573,1.133,0.209c0.094-0.144-0.093-0.23-0.059-0.358c0.033-0.125,0.679-0.313,0.815-0.399
	c0.332-0.21,0.865-0.485,1.037-0.862c0.22-0.483-0.204-0.849-0.211-1.298c0.152-0.082,0.304-0.116,0.464-0.17
	c0.086-0.029,0.202-0.122,0.286-0.135c0.142-0.02,0.306,0.106,0.422,0.182c0.067,0.043,0.14-0.009,0.215,0.02
	c0.097,0.037,0.178,0.108,0.271,0.15c0.158,0.072,0.306,0.167,0.464,0.231c0.126,0.051,0.316,0.104,0.455,0.08
	c0.266-0.046,0.028-0.231,0.067-0.386c0.137-0.539,0.941-0.213,1.254-0.566c0.101-0.114,0.149-0.248,0.182-0.397
	c0.031-0.139,0.003-0.289,0.039-0.423c0.03-0.111,0.113-0.175,0.178-0.263c0.075-0.103,0.095-0.239,0.163-0.338
	c0.152-0.22,0.407,0.139,0.618,0.07c0.097-0.032,0.17-0.154,0.23-0.234c0.118-0.16,0.232-0.33,0.32-0.508
	c0.087-0.177,0.23-0.51,0.102-0.699c-0.056-0.082-0.164-0.124-0.198-0.222c-0.035-0.103,0.029-0.193,0.08-0.274
	c0.093-0.146,0.176-0.3,0.165-0.479c-0.015-0.233-0.143-0.41-0.056-0.657c0.097-0.274,0.279-0.488,0.458-0.705
	c0.094-0.113,0.202-0.217,0.296-0.332c0.093-0.114,0.125-0.25,0.169-0.391c0.104-0.333,0.2-0.666,0.307-0.999
	c0.055-0.17,0.149-0.328,0.077-0.494c-0.073-0.167-0.175-0.238-0.17-0.438l0.618-2.751c-0.066-0.103-0.162-0.323-0.293-0.353
	c-0.145-0.034-0.146,0.049-0.249,0.119c-0.244,0.167-0.444-0.151-0.598-0.343c0.068,0.003,0.146,0.021,0.218,0.041
	c0.032-0.146-0.045-0.373,0.068-0.485c0.051-0.05,0.29-0.01,0.367-0.025c0.112-0.021,0.222-0.077,0.327-0.119
	c0.234-0.095,0.437-0.156,0.607-0.353c0.143-0.166,0.203-0.381,0.328-0.558c0.383-0.542,1.158-0.646,1.764-0.906
	c0.577-0.248,1.232-0.373,1.823-0.566l0.812-3.379l0.668-0.812l-0.914-0.547l-0.075-0.793c0.129,0,0.383-0.261,0.49-0.354
	c0.141-0.122,0.154-0.254,0.152-0.444c-0.003-0.226,0.012-0.349-0.204-0.455c-0.242-0.119-0.303-0.178-0.269-0.488
	c0.036-0.321,0.272-0.119,0.483-0.327c0.21-0.206,0.189-0.541,0.335-0.784c0.167-0.277,0.496-0.244,0.785-0.26
	c0.161-0.009,0.541,0.073,0.684-0.011c0.151-0.089,0.047-0.264-0.007-0.413c0.237,0.039,0.449,0.164,0.644,0.294
	c0.036-0.212-0.164-0.361-0.148-0.535c0.014-0.15,0.088-0.092,0.177-0.131c0.276-0.121,0.428-0.114,0.559-0.406
	c0.16-0.355,0.299-0.721,0.484-1.065c0.075-0.14,0.189-0.255,0.247-0.402c0.078-0.195,0.035-0.42,0.154-0.602
	c-0.019-0.136,0.082-0.265,0.075-0.407c-0.007-0.148-0.071-0.238-0.114-0.372c-0.105-0.325-0.105-0.667-0.164-1
	c-0.035-0.197-0.094-0.354-0.015-0.545c0.064-0.156,0.167-0.303,0.24-0.458c0.11-0.234,0.145-0.279,0.401-0.358
	c0.182-0.056,0.367-0.049,0.485-0.219c-0.164-0.202-0.345-0.203-0.38-0.471c-0.036-0.275,0.036-0.588,0.058-0.863
	c0.025-0.305-0.036-0.654,0.04-0.95c0.056-0.217,0.206-0.253,0.388-0.362c0.279-0.166,0.39-0.336,0.532-0.615
	c0.068-0.133,0.162-0.261,0.21-0.404c0.019-0.057,0.054-0.14,0.037-0.201c-0.021-0.076-0.118-0.086-0.137-0.143
	c-0.069-0.213,0.241-0.462,0.358-0.619c0.083-0.111,0.16-0.279,0.268-0.365c0.116-0.093,0.301-0.088,0.412-0.183
	c0.212-0.182,0.055-0.621,0.061-0.887c0.007-0.296,0.031-0.618,0.17-0.886c0.088-0.17,0.178-0.325,0.354-0.415
	c0.207-0.106,0.704-0.037,0.835-0.245c0.062-0.098,0-0.256,0.018-0.364c0.026-0.162,0.074-0.189,0.186-0.287
	c0.28-0.246,0.632-0.365,0.834-0.689l0.68-1.19l0.887-2.02l3.36,1.057l0.906-0.944l0.962-0.415l3.134-2.265L193.381,61.105z"/>
</svg>
