<?xml version="1.0" encoding="utf-8"?>
<!-- Generator: Adobe Illustrator 26.0.3, SVG Export Plug-In . SVG Version: 6.00 Build 0)  -->
<svg version="1.1" xmlns="http://www.w3.org/2000/svg" xmlns:xlink="http://www.w3.org/1999/xlink" x="0px" y="0px"
	 viewBox="0 0 200 200" enable-background="new 0 0 200 200" xml:space="preserve">
<g id="Isolation_Mode">
</g>
<g id="Layer_1">
	<path fill-rule="evenodd" clip-rule="evenodd" fill="#1E8346" d="M120.166,111.336c-0.493,2.506-0.493,2.506-2.37,2.207
		c-0.612,0.836-1.166,1.582-1.707,2.337c-0.563,0.786-0.513,1.519,0.148,2.251c0.785,0.871,0.71,1.089-0.434,1.501
		c0.158,0.82,0.327,1.671-0.924,1.608c0.052,1.005,0.087,1.902,0.15,2.796c0.045,0.649,0.084,1.176,0.796,1.667
		c0.737,0.506-0.033,1.176-0.547,1.405c-0.661,0.295-1.033,0.539-0.898,1.355c0.035,0.211-0.494,0.63-0.839,0.768
		c-1.112,0.45-1.739,1.186-2.088,2.368c-0.156,0.531-0.97,0.874-1.498,1.286c-0.409,0.318-1.152,0.562,0.085,1.1
		c-0.436,0.132-0.658,0.276-0.85,0.245c-0.75-0.126-1.046,0.116-1.13,0.913c-0.082,0.795-0.435,1.229-1.496,1.394
		c-1.334,0.206-2.647,0.973-3.813,1.738c-1.185,0.777-1.39,2.258-1.978,3.373c-0.446,0.409-0.866,0.815-1.31,1.19
		c-0.194,0.163-0.435,0.276-0.665,0.389c-0.409,0.201-0.827,0.386-1.241,0.578c0.181,0.352,0.357,0.707,0.544,1.056
		c0.09,0.168,0.203,0.326,0.335,0.536c-0.713,0.427-1.276,1.162-2.198,0.436c-0.151-0.119-0.582-0.09-0.722,0.042
		c-0.144,0.136-0.151,0.492-0.111,0.733c0.118,0.722,0.289,1.436,0.472,2.308c-0.959-0.06-1.74-0.108-2.727-0.169
		c0.309,0.611,0.474,0.938,0.743,1.468c-0.958-0.058-2.15-1.067-2.377,0.542c-0.065,0.462,0.316,0.986,0.586,1.745
		c-0.88,0.47-1.955,1.175-3.127,1.631c-1.025,0.399-1.758,0.779-1.095,2.143c-0.743-0.046-1.29-0.139-1.827-0.093
		c-0.358,0.032-0.854,0.174-1.002,0.432c-0.133,0.231,0.069,0.715,0.229,1.035c0.156,0.308,0.393,0.659,0.686,0.801
		c1.12,0.54,1.177,1.349,0.998,2.476c-0.243,1.525-1.122,2.278-2.678,1.91c-1.143-0.27-2.239-0.552-2.656,1.079
		c-0.052,0.203-0.765,0.237-1.172,0.35c-0.61,0.17-1.525-0.222-1.631,0.884c-0.002,0.016-0.066,0.042-0.096,0.036
		c-1.845-0.328-2.095,1.515-3.13,2.29c-0.364,0.272-0.775,0.482-1.246,0.772c0.108,0.258,0.249,0.598,0.475,1.142
		c-0.799-0.173-1.474-0.283-2.127-0.468c-1.651-0.47-2.063-0.21-2.286,1.511c-0.804,0.533-1.825-1.678-2.625,0.637
		c-0.382-0.803-0.7-1.269-0.828-1.782c-0.234-0.937-0.685-1.274-1.679-0.655c-0.015-1.222-0.769-1.321-1.539-1.128
		c-0.773,0.195-1.811,0.162-1.792,1.451c0.004,0.294-0.311,0.605-0.508,0.888c-0.552,0.788-0.752,1.51-0.621,2.593
		c0.173,1.444,0.187,3.272-0.795,4.355c-0.656,0.723-1.384,1.287-1.544,2.272c-0.132,0.812-0.119,1.647-0.181,2.65
		c-1.177-0.498-2.171-1.108-2.973-0.085c-0.633-1.337-1.248-2.638-1.883-3.979c-0.882,0.327-1.644,0.61-2.377,0.881
		c0.56,0.339,1.005,0.857,0.565,1.817c-0.132,0.29,0.306,0.842,0.477,1.26c-0.258,0.354-0.512,0.726-0.789,1.082
		c-0.465,0.595-0.806,1.271-1.844,1.011c-1.07-0.268-2.596,0.664-2.967,1.618c-1.404-0.674-1.778-1.755-1.317-3.191
		c0.569-1.774,0.377-3.393-0.891-4.85c-0.195-0.224-0.227-0.769-0.092-1.047c0.108-0.222,0.603-0.401,0.896-0.361
		c1.017,0.134,1.188-0.206,1.068-1.193c-0.083-0.687,0.421-1.424,0.48-2.154c0.098-1.214-0.001-2.442,0.914-3.447
		c0.131-0.144,0.013-0.52,0-0.787c-0.023-0.496,0.139-1.147-0.114-1.462c-1.332-1.66,0.613-3.511-0.421-5.213
		c-0.574-0.944-1.109-1.553-2.234-1.113c-0.772,0.302-1.224,0.068-1.675-0.597c-0.506-0.743-1.073-1.594-2.435-0.703
		c0.183-0.529,0.221-0.937,0.351-0.97c1.554-0.381,1.181-1.682,1.199-2.67c0.018-0.974-0.597-1.618-1.605-1.955
		c-0.577-0.193-1.036-0.738-1.771-1.292c0.656-0.265,1.031-0.417,1.55-0.629c-0.829-1.036-1.641-2.05-2.452-3.064
		c-0.121,0.04-0.241,0.08-0.362,0.119c0.222-0.814,0.444-1.627,0.665-2.442c0.041-0.151,0.129-0.317,0.102-0.456
		c-0.306-1.556-0.493-3.154-0.992-4.648c-0.433-1.299-1.221-2.48-1.862-3.707c-0.324-0.618-0.813-1.202-0.204-1.928
		c0.079-0.094,0.092-0.377,0.02-0.442c-0.928-0.834-0.236-1.717-0.15-2.603c0.067-0.689-0.14-1.402-0.17-2.105
		c-0.031-0.704,0.009-1.41,0.013-2.115c0.001-0.225,0.056-0.486-0.037-0.668c-0.567-1.099-0.327-2.112,0.137-3.186
		c0.189-0.438,0.194-1.155-0.046-1.541c-1.094-1.762-0.66-1.965,0.118-3.63c0.345-0.738,0.77-1.469,0.942-2.251
		c0.289-1.315,0.69-2.527,1.8-3.368c0.298-0.225,0.717-0.515,1.024-0.46c0.978,0.178,1.338-0.324,1.65-1.111
		c0.902-2.275,1.891-4.516,2.767-6.8c0.248-0.644,0.297-1.392,0.314-2.095c0.041-1.709,0.831-2.908,2.463-3.34
		c1.609-0.425,3.044-0.951,3.96-2.539c0.224-0.389,1.306-0.495,1.938-0.391c1.267,0.209,1.922-0.272,2.347-1.398
		c0.581-1.535,1.579-2.581,3.311-2.898c0.431-0.079,0.888-0.742,1.087-1.236c0.769-1.905,1.755-2.509,3.673-1.821
		c1.504,0.54,2.693,0.362,4.11-0.455c1.398-0.804,2.483-1.71,3.533-2.947c1.27-1.497,3.026-2.598,4.631-3.788
		c1.882-1.395,3.976-2.567,4.519-4.881c1.734-0.299,3.337-0.706,4.958-0.797c0.756-0.043,1.551,0.515,2.319,0.825
		c0.656,0.265,1.314,0.634,1.46-0.013c0.965-0.285,1.66-0.395,2.265-0.689c1.551-0.754,3.085-0.883,4.692-0.204
		c2.29,0.967,4.578,1.943,6.9,2.829c0.771,0.294,1.32,0.693,1.216,1.505c-0.259,2.029,1.17,3.111,2.333,4.334
		c0.218,0.229,0.728,0.357,1.047,0.285c1.221-0.278,2.04,0.659,3.062,0.959c0.469,0.138,0.786,0.797,1.188,1.237
		c-0.731,0.503-1.261,0.862-1.786,1.232c-1.235,0.87-1.178,2.688,0.18,3.361c0.409,0.203,1.027-0.018,1.82-0.058
		c0.924,0.677,0.943,0.777,0.091,1.919c-0.486,0.652-1.063,1.431-0.457,2.138c0.69,0.804,1.645,1.391,2.541,1.988
		c0.087,0.058,0.641-0.428,0.848-0.747c0.265-0.407,0.398-0.9,0.704-1.634c0.425,0.728,0.924,1.191,0.925,1.655
		c0.005,1.809-0.036,3.634-0.286,5.421c-0.133,0.953-0.011,1.667,0.723,2.187c0.837,0.594,1.278,1.209,1.212,2.348
		C117.147,108.978,118.805,110.889,120.166,111.336z M169.822,14.2c0.102-0.54,0.311-1.061,0.51-1.709
		c-0.727-0.118-1.244-0.144-1.722-0.294c-0.586-0.184-1.231-0.36-1.688-0.737c-0.96-0.794-1.812-1.715-2.837-2.708
		c-0.152,0.519-0.236,0.891-0.369,1.244c-0.297,0.788-1.35,1.345-1.887,0.879c-0.784-0.683-1.405-0.481-1.984,0.01
		c-1.218-0.639-2.112-1.658-3.586-1.682c-0.71-0.011-1.571-0.276-2.083-0.738c-0.794-0.714-1.276-0.483-1.721,0.122
		c-0.469-0.171-0.839-0.306-1.209-0.441c-0.053,0.423-0.042,0.868-0.177,1.263c-0.144,0.422-0.426,0.797-0.794,1.452
		c0,0.006,0.023,0.363,0.031,0.481c-1.056-0.001-1.997-0.021-2.938,0.002c-1.041,0.026-2.068,0.047-2.924-1.263
		c-0.482,0.675-0.961,1.156-1.205,1.735c-0.296,0.703-0.393,1.489-0.512,1.976c0.103,1.056,0.397,1.966,0.216,2.769
		c-0.203,0.903-0.156,1.561,0.399,2.304c0.793,1.06,0.652,1.45-0.52,2.065c-1.001,0.525-2.086,2.652-1.474,3.179
		c1.046,0.9,0.778,2.089,1.098,3.137c0.277,0.907,0.021,1.703-0.791,2.297c-0.307,0.225-0.772,0.594-0.744,0.853
		c0.137,1.318-0.447,2.004-1.668,2.285c-0.746,0.171-1.483,0.482-2.231,0.508c-0.72,0.024-1.449-0.24-2.279-0.398
		c-0.516-1.272-1.383-2.088-2.459-1.831c-0.669,0.159-1.389,0.713-1.772,1.296c-0.429,0.652-0.102,1.432,0.661,1.773
		c1.218,0.546,1.56,1.302,0.84,2.484c-0.109,0.179-0.117,0.48-0.058,0.693c0.53,1.921,1.086,3.836,1.661,5.845
		c-1.09,1.229-1.133,2.495-0.039,3.582c0.601,0.596,1.158,0.624,1.446-0.208c0.302-0.872,0.934-1.317,1.694-1.116
		c0.678,0.179,1.31,0.725,1.838,1.237c0.808,0.783,1.454,1.736,2.286,2.489c0.298,0.27,1.071,0.383,1.393,0.186
		c0.995-0.608,1.337,0.108,1.629,0.714c0.508,1.052,0.888,2.165,1.341,3.304c0.248-0.179,0.378-0.227,0.433-0.32
		c0.666-1.144,1.781-1.043,2.824-0.936c1.185,0.12,0.409,1.27,0.822,1.83c0.099,0.134-0.012,0.41,0.068,0.576
		c0.14,0.288,0.345,0.754,0.536,0.761c0.317,0.012,0.834-0.207,0.934-0.46c0.366-0.926,0.594-1.907,0.875-2.867
		c-0.169,0.035-0.337,0.072-0.506,0.108c-0.417-0.587-0.833-1.172-1.134-1.596c1.051-1.022,1.895-1.902,2.802-2.711
		c1.014-0.902,1.834-0.847,2.792,0.128c0.5,0.51,1.014,1.05,1.68,0.346c0.579-0.613,0.456-1.272-0.134-1.891
		c-0.207-0.217-0.425-0.66-0.337-0.876c0.212-0.513,0.605-0.952,0.987-1.514c0.197,0.072,0.52,0.188,0.843,0.304
		c0.062-0.067,0.124-0.134,0.185-0.201c-0.223-0.36-0.447-0.719-0.609-0.981c0.662-1.843,1.549-3.622,0.178-5.403
		c-0.587-0.762-0.931-1.437-0.529-2.351c0.18-0.411,0.378-0.815,0.568-1.222c0.336,0.233,0.673,0.466,1.283,0.888
		c-0.392-1.717,0.805-2.142,1.832-2.72c0.149-0.083,0.282-0.307,0.307-0.483c0.145-1.018,0.898-1.166,1.671-1.069
		c0.715,0.09,1.404,0.387,2.246,0.634c0.736-0.655,1.508-1.601,2.499-2.152c1.056-0.586,0.745-1.452,0.635-2.134
		c-0.072-0.45-0.835-0.789-1.317-1.203c-0.035,0.035-0.26,0.262-0.737,0.741c0.231-1.088,0.39-1.836,0.555-2.616
		c-0.774-0.048-1.353-0.146-1.922-0.107c-1.238,0.086-2.049-0.403-2.255-1.55c-0.173-0.963-0.352-1.606-1.282-0.474
		c-0.113,0.138-0.468,0.192-0.662,0.131c-1.023-0.324-1.722,0.153-2.399,0.829c-0.165,0.165-0.508,0.153-0.77,0.223
		c0.07-0.265,0.066-0.589,0.223-0.786c0.648-0.819,1.453-1.531,1.997-2.41c0.829-1.339,1.671-1.71,3.233-1.479
		c0.709,0.105,1.521-0.152,2.22-0.417c0.605-0.229,0.568-0.644-0.021-1.013c-0.275-0.173-0.657-0.542-0.626-0.775
		c0.145-1.102,1.579-1.562,2.433-0.839c0.39,0.33,0.771,0.69,1.211,0.937c0.227,0.126,0.674,0.149,0.843,0.006
		c0.178-0.15,0.18-0.55,0.193-0.845C169.879,14.922,169.758,14.545,169.822,14.2z M44.544,193.189
		c1.479-0.39,0.919,0.813,1.144,1.292c0.752,0.047,1.404,0.087,2.273,0.141c0.374-0.666,0.962-1.344,1.124-2.11
		c0.155-0.734-0.133-1.562-0.226-2.347C47.674,191.184,45.115,190.513,44.544,193.189z M126.818,65.198
		c0.057-1.313-0.893-2.783-1.808-2.825c-0.919-0.043-1.731,0.717-1.787,1.672c-0.06,1.03,1.229,2.437,2.291,2.474
		C126.409,66.549,126.783,66.019,126.818,65.198z M126.248,73.706c-0.937-0.048-1.548,0.561-1.647,1.64
		c-0.127,1.383,0.381,2.027,1.807,2.135c1.047,0.384,1.337-0.294,1.415-1.264C127.935,74.814,127.282,73.758,126.248,73.706z
		 M154.044,5.858c-0.202-0.054-0.562-0.189-0.583-0.149c-0.267,0.518-0.485,1.062-0.715,1.599c0.222,0.081,0.444,0.163,0.667,0.244
		C153.622,6.988,153.834,6.423,154.044,5.858z"/>
</g>
</svg>
