<?xml version="1.0" encoding="utf-8"?>
<!-- Generator: Adobe Illustrator 26.0.3, SVG Export Plug-In . SVG Version: 6.00 Build 0)  -->
<svg version="1.1" id="Isolation_Mode" xmlns="http://www.w3.org/2000/svg" xmlns:xlink="http://www.w3.org/1999/xlink" x="0px"
	 y="0px" viewBox="0 0 200 200" enable-background="new 0 0 200 200" xml:space="preserve">
<path fill="#1E8346" d="M116.145,29.385l-7.116-3.848L71.175,6.383l-11.377,5.502l2.234,12.784v5.461l0.889,0.703l2.565,5.813
	c-0.003,0.307-0.057,0.416-0.198,0.693c-0.161,0.316-0.442,0.288-0.689,0.519c-0.205,0.192-0.216,0.57-0.071,0.828
	c0.167,0.295,0.593,0.453,0.891,0.607c0.265,0.137,0.425,0.24,0.439,0.539c0.014,0.301,0.13,0.466,0.33,0.688
	c0.147,0.163,0.25,0.301,0.295,0.517c0.072,0.343,0.092,0.678,0.425,0.887c0.24,0.15,0.592,0.102,0.834,0.266
	c0.167,0.112,0.399,0.517,0.452,0.704l2.875,1.179l-2.772,5.006l-1.8,13.797l-0.703,24.202l-5.812,5.399l-3.848,3.185l-3.248,3.403
	l-5.988,8.253c-0.1,0.295-0.211,0.588-0.338,0.882c-0.1,0.232-0.379,0.617-0.376,0.866c0.005,0.51,0.192,1,0.125,1.522
	c-0.017,0.127-0.065,0.284-0.165,0.365c-0.128,0.105-0.244,0.053-0.376,0.103c-0.131,0.049-0.181,0.145-0.272,0.24
	c-0.098,0.103-0.196,0.204-0.311,0.29c-0.076,0.057-0.249,0.108-0.288,0.206c-0.086,0.216,0.142,0.217,0.188,0.335
	c0.041,0.108-0.004,0.388-0.018,0.505c-0.028,0.252-0.098,0.253-0.285,0.39c-0.23,0.168-0.349,0.249-0.647,0.286
	c-0.35,0.042-0.526,0.066-0.826,0.207c-0.339,0.159-0.751,0.221-0.787,0.643c-0.029,0.342,0.02,0.707,0.068,1.042
	c0.052,0.361,0.223,0.642,0.329,0.983c0.171,0.545,0.142,1.142,0.369,1.666c0.067,0.156,0.086,0.318,0.185,0.461
	c0.032,0.046,0.231,0.302,0.3,0.263c0.149-0.083-0.169-0.44,0.03-0.539c0.038,0.035,0.085,0.065,0.137,0.062
	c0.06-0.146,0.119-0.215,0.287-0.237c0.252-0.033,0.597,0.144,0.769,0.328c0.135,0.145,0.28,0.316,0.378,0.49
	c0.114,0.2,0.071,0.349,0.055,0.562c-0.012,0.157,0.038,0.31-0.132,0.383c-0.178,0.076-0.453,0.025-0.64,0.027
	c-0.152,0.002-0.405-0.035-0.535,0.067c-0.119,0.093-0.165,0.352-0.198,0.491c-0.05,0.21,0.121,0.365,0.19,0.553
	c0.072,0.196,0.037,0.354-0.019,0.544l0.274,1.375l5.125,7.307h3.113c0-0.088,0.001-0.176,0-0.265
	c-0.22,0.003-0.517,0.056-0.544-0.229c-0.011-0.117,0.043-0.282,0.159-0.33c0.113-0.046,0.252-0.015,0.38-0.074
	c0.125-0.057,0.248-0.133,0.359-0.216c0.112-0.084,0.228-0.198,0.317-0.301c0.044-0.052,0.103-0.188,0.182-0.202
	c0.084-0.015,0.177,0.108,0.263,0.116c0.099,0.009,0.175-0.048,0.249-0.1c0.158-0.111,0.336-0.33,0.526-0.367
	c0.344-0.067,0.483,0.341,0.773,0.415c0.195,0.05,0.3-0.12,0.492-0.135c0.184-0.014,0.186,0.001,0.305,0.126
	c0.252,0.263,0.418,0.644,0.571,0.978c0.053,0.115,0.081,0.256,0.139,0.364c0.074,0.137,0.287,0.159,0.331,0.273
	c0.096,0.25-0.284,0.209-0.393,0.279c-0.123,0.079-0.171,0.251-0.253,0.367c-0.075,0.106-0.187,0.19-0.245,0.307
	c-0.104,0.211,0.005,0.488-0.151,0.688c-0.232-0.092-0.336-0.2-0.49-0.38c-0.133-0.156-0.096,0.032-0.241,0.106
	c-0.191,0.097-0.721-0.315-0.82,0.022c0.084,0.079,0.17,0.214,0.162,0.336c-0.011,0.175-0.156,0.188-0.227,0.306
	c-0.173,0.291,0.208,0.285,0.311,0.507c0.11,0.237-0.136,0.567-0.021,0.766c0.058,0.1,0.253,0.071,0.317,0.137
	c0.085,0.089,0.062,0.244,0.124,0.343c0.099-0.11,0.193-0.224,0.307-0.323c-0.047,0.592,0.668,0.503,1.085,0.517
	c0.044,0.246-0.127,0.512-0.079,0.726c0.106,0.002,0.217-0.004,0.315-0.045c0.059-0.025,0.1-0.131,0.168-0.119
	c0.085,0.015,0.159,0.285,0.242,0.35c0.229,0.181,0.565-0.033,0.685,0.265c0.108,0.267,0.044,0.624,0.094,0.905
	c0.043,0.246,0.092,0.486,0.131,0.728c0.072,0.449,0.523,0.673,0.622,1.118c0.097,0.436-0.058,0.94-0.095,1.369
	c-0.015,0.167-0.017,0.353,0.01,0.517c0.035,0.209,0.052,0.386-0.046,0.596c-0.029,0.063-0.104,0.165-0.077,0.239
	c0.031,0.087,0.289,0.178,0.374,0.231c0.164,0.101,0.276,0.206,0.4,0.348c0.097,0.111,0.095,0.146,0.239,0.068
	c0.159-0.086,0.29-0.346,0.492-0.138c0.044,0.046,0.073,0.173,0.094,0.232c0.061,0.162,0.177,0.314,0.221,0.477
	c-0.031,0.05-0.094,0.149-0.107,0.218c-0.046,0.24,0.221,0.215,0.36,0.349c0.255,0.246-0.173,0.239-0.229,0.413
	c-0.037,0.113,0.08,0.162,0.103,0.255c0.023,0.094-0.027,0.135-0.063,0.207c-0.104,0.203-0.155,0.697,0.013,0.878
	c0.085-0.014,0.134-0.112,0.211-0.117c0.134-0.009,0.1,0.068,0.157,0.138c0.107,0.132,0.21,0.302,0.262,0.469
	c0.117,0.37-0.303,0.238-0.327,0.543c-0.014,0.181,0.144,0.225-0.047,0.329c-0.159,0.087-0.208,0.013-0.174,0.233
	c0.051,0.331,0.14,0.977,0.345,1.253c0.123,0.165,0.362,0.325,0.434,0.52c0.067,0.18,0.017,0.449-0.07,0.613
	c-0.098,0.186-0.275,0.305-0.392,0.476c-0.162,0.236-0.192,0.389-0.208,0.667c-0.007,0.128-0.013,0.283-0.044,0.407
	c-0.02,0.081-0.09,0.165-0.078,0.251c0.029,0.209,0.209,0.229,0.094,0.469c-0.065,0.135-0.177,0.221-0.201,0.371
	c-0.034,0.215,0.09,0.475,0.165,0.669c0.162,0.424,0.316,0.854,0.549,1.235c0.163,0.267,0.043,0.646-0.221,0.809
	c-0.146,0.09-0.427,0.062-0.515,0.185c-0.141,0.195,0.025,0.435,0.161,0.56c0.157,0.145,0.322,0.326,0.365,0.541
	c0.044,0.217,0.004,0.451-0.08,0.652c-0.075,0.179-0.202,0.335-0.182,0.536c0.014,0.149,0.111,0.255,0.19,0.377
	c0.118,0.182,0.222,0.391,0.314,0.587c0.093,0.198,0.136,0.407,0.225,0.609c0.085,0.194,0.234,0.394,0.209,0.606
	c-0.024,0.203-0.179,0.359-0.2,0.572c-0.02,0.202,0.012,0.374,0.116,0.548c0.157,0.263,0.473,0.266,0.69,0.461
	c0.213,0.193,0.34,0.467,0.491,0.7c0.057,0.088,0.15,0.142,0.196,0.232c0.064,0.122,0.049,0.272,0.068,0.404
	c0.042,0.295,0.229,0.537,0.392,0.774c0.291,0.132,0.434,0.178,0.614,0.453c0.136,0.207,0.326,0.348,0.48,0.539
	c0.136,0.169,0.203,0.38,0.313,0.564c0.132,0.221,0.298,0.428,0.484,0.607c0.083,0.079,0.174,0.204,0.271,0.267
	c0.114,0.074,0.183,0.029,0.309,0.055c0.169,0.035,0.321,0.179,0.459,0.269c0.219,0.142,0.431,0.29,0.645,0.441
	c0.154,0.109,0.525,0.308,0.595,0.454c-0.355,0.205-0.852,0.211-1.241,0.323c-0.456,0.131-1.002,0.043-1.427,0.276
	c-0.205,0.113-0.247,0.12-0.471,0.021c-0.184-0.081-0.336-0.2-0.508-0.3c-0.442-0.257-0.945-0.189-1.444-0.189l-1.283-0.02
	l-0.579,0.393l-1.324-0.434l-1.593,0.621l-3.558-0.766l-3.144,0.021c-0.242,0.488-0.416,0.974-0.62,1.476
	c-0.236,0.582-0.643,0.935-1.147,1.308c-0.316,0.234-0.845,0.731-0.8,1.179c0.027,0.267,0.327,0.302,0.535,0.421
	c0.197,0.113,0.325,0.294,0.462,0.477c0.113,0.151,0.223,0.569,0.395,0.661c0.167,0.09,0.252-0.031,0.43,0.111
	c0.217,0.173,0.392,0.446,0.593,0.646c0.108,0.107,0.23,0.198,0.324,0.318c0.102,0.131,0.171,0.296,0.263,0.435
	c0.161,0.243,0.198,0.167,0.463,0.206c0.379,0.056,0.363,0.384,0.586,0.626c0.071,0.077,0.275,0.136,0.315,0.223
	c0.037,0.083-0.045,0.215-0.066,0.291c-0.081,0.287-0.174,0.592-0.222,0.888l1.241,0.807l0.331,0.703l4.117,2.793
	c0.169,0.029,0.523-0.05,0.62,0.102c0.088,0.138-0.081,0.31-0.025,0.431c0.102,0.217,0.706,0.148,0.881,0.427
	c0.078,0.124,0.029,0.38,0.037,0.527c0.408,0.004,1.231-0.054,1.445,0.395l1.469,2.647l1.655,3.517c0,0.283-0.03,0.571,0.066,0.838
	c0.049,0.138,0.166,0.243,0.208,0.382c0.044,0.145,0.033,0.302,0.073,0.45c0.098,0.365,0.403,0.527,0.544,0.853
	c0.122,0.283,0.046,0.547,0.291,0.79c0.321,0.318,0.759,0.572,1.197,0.679c-0.02,0-0.059,0.019-0.079,0.021
	c-0.086,0.399,0.029,0.792-0.122,1.173c-0.12,0.302-0.197,0.666-0.419,0.915c-0.208,0.233-0.854,0.51-0.224,0.666
	c0.401,0.099,0.968,0.076,1.379,0.033c0.184-0.02,0.374-0.119,0.577-0.078c0.214,0.043,0.23,0.192,0.375,0.356
	c0.151,0.169,0.426,0.281,0.625,0.398c0.217,0.127,0.345,0.06,0.555-0.03c0.345-0.147,0.691-0.3,1.068-0.31
	c0.341-0.009,0.574,0.031,0.839-0.21c0.127-0.116,0.266-0.224,0.384-0.348c0.124-0.131,0.185-0.364,0.317-0.474
	c0.146-0.121,0.386-0.143,0.564-0.204c0.167-0.058,0.322-0.142,0.486-0.207c0.241-0.096,0.352-0.064,0.567,0.027
	c0.208,0.088,0.274,0.087,0.448-0.026c0.202-0.131,0.345-0.349,0.561-0.457c0.196-0.098,0.402-0.072,0.615-0.085
	c0.275-0.017,0.745-0.314,0.831-0.597c0.045-0.147-0.069-0.407-0.091-0.558c-0.032-0.226,0.015-0.334,0.112-0.541
	c0.151-0.009,0.257,0.11,0.372,0.19c0.275-0.169,0.347-0.53,0.576-0.745c0.158-0.149,0.665-0.463,0.763-0.25
	c0.157,0.342-0.197,0.855,0.132,1.16c0.165,0.152,0.609,0.088,0.739,0.265c0.193,0.262-0.09,0.726,0.129,1.022
	c0.069,0.094,0.211,0.224,0.313,0.264c0.145,0.056,0.293-0.015,0.433,0.06c0.273,0.144,0.538,0.501,0.683,0.769
	c0.071,0.132,0.078,0.279,0.207,0.348c0.102,0.054,0.328,0.035,0.431-0.013c0.111-0.052,0.265-0.246,0.321-0.351
	c0.076-0.142,0.04-0.369,0.147-0.494c0.157-0.183,0.12,0.011,0.307,0.001c0.147-0.008,0.218-0.23,0.299-0.344
	c0.266,0.101,0.419,0.106,0.701,0.083c0.163-0.014,0.145,0.025,0.233-0.083c0.156-0.188-0.03-0.249,0.29-0.227
	c0.266,0.018,0.263-0.169,0.393-0.269c0.154-0.119,0.304,0.094,0.446,0.165c0.163,0.081,0.411,0.114,0.506-0.065
	c0.124-0.233-0.107-0.503,0.346-0.451c0.02-0.239,0.158-0.745,0.52-0.503c0.129-0.131,0.136-0.291,0.269-0.403
	c0.063-0.053,0.133-0.039,0.19-0.098c0.056-0.057,0.04-0.148,0.101-0.197c0.06-0.048,0.106-0.011,0.163-0.037
	c0.127-0.057,0.194-0.161,0.304-0.227c0.177-0.106,0.542-0.213,0.683-0.007c0.114-0.118,0.103-0.213,0.22-0.283
	c0.02-0.012,0.069,0.049,0.109,0.031c0.064-0.027,0.131-0.167,0.172-0.217c0.048-0.059,0.088-0.119,0.143-0.173
	c0.237,0.084,0.378,0.241,0.582,0.364c0.122-0.114,0.29-0.947,0.583-0.587c0.064-0.045,0.154-0.181,0.228-0.201
	c0.09-0.024,0.218,0.1,0.311,0.099c0.115-0.001,0.203-0.055,0.29-0.146c0.124-0.128,0.162-0.271,0.205-0.436l3.062,0.31l1.179-0.662
	l6.278-0.326c0.169-0.199,0.473-0.191,0.512-0.461c0.026-0.177-0.012-0.367,0-0.546c0.012-0.192,0.122-0.34,0.209-0.511
	c0.109-0.214,0.169-0.376,0.411-0.453c0.566-0.178,1.116-0.31,1.541-0.749c0.165-0.171,0.237-0.287,0.262-0.52
	c0.007-0.069-0.008-0.211,0.042-0.253c0.028-0.023,0.206-0.026,0.254-0.044c0.26-0.099,0.537-0.328,0.571-0.617
	c0.033-0.284-0.004-0.427,0.248-0.626c0.145-0.115,0.308-0.206,0.449-0.325c0.001-0.264-0.051-0.442,0.251-0.466
	c0.113-0.009,0.296,0.044,0.367-0.039c0.043-0.051,0.035-0.265,0.044-0.331c0.036-0.265,0.158-0.494,0.316-0.704
	c0.078-0.105,0.162-0.22,0.262-0.305c0.123-0.104,0.341-0.139,0.423-0.272c-0.105-0.11-0.241-0.128-0.356-0.213
	c-0.094-0.07-0.186-0.198-0.27-0.285c-0.197-0.203-0.384-0.426-0.615-0.592c-0.268-0.193-0.574-0.267-0.875-0.384
	c-0.303-0.118-0.606-0.153-0.347-0.488c-0.32-0.063-0.475-0.014-0.442-0.401c0.015-0.176,0.084-0.289,0.235-0.392
	c0.217-0.147,0.511-0.115,0.732-0.259c0.236-0.154,0.377-0.411,0.632-0.563c0.512-0.307,1.022-0.224,1.591-0.312
	c0.162-0.025,0.28-0.137,0.428-0.186c0.29-0.095,0.649-0.02,0.926,0.094c0.296,0.122,0.562,0.202,0.891,0.155
	c0.197-0.029,0.309-0.174,0.511-0.171c0.104,0.002,0.278,0.009,0.377,0.019c0.14,0.015,0.246,0.138,0.388,0.171
	c0.159,0.036,0.344-0.085,0.49-0.125c0.622-0.168,1.253,0,1.879-0.063c0.686-0.069,1.188-0.565,1.919-0.457
	c0.306,0.045,0.426,0.018,0.708-0.14c0.43-0.241,0.795-0.3,1.303-0.31c0.009-0.233-0.063-0.425,0.242-0.486
	c0.189-0.038,0.388,0.103,0.519,0.237c0.174-0.227,0.131-0.326,0.372-0.263c0.213,0.056,0.322,0.188,0.571,0.138
	c0.292-0.058,0.368-0.301,0.674-0.097c0.098,0.065,0.165,0.172,0.272,0.22c0.162,0.073,0.425,0.039,0.602,0.039
	c0.303,0,0.454-0.032,0.698-0.207c0.142-0.102,0.211-0.137,0.387-0.145c0.072-0.004,0.263,0.037,0.323,0.001
	c0.145-0.088,0.171-0.411,0.229-0.564c0.093-0.245,0.13-0.132,0.347-0.202c0.111-0.036,0.241-0.085,0.35-0.104
	c-0.063-0.157-0.202-0.282-0.248-0.451c-0.051-0.187-0.012-0.229,0.117-0.315c0.085-0.057,0.115-0.021,0.202-0.113
	c0.068-0.071,0.083-0.174,0.142-0.24c0.142-0.16,0.294-0.184,0.469-0.113c0.239,0.097,0.802,0.479,0.969,0.084
	c0.07-0.165-0.098-0.522,0.017-0.658c0.104-0.124,0.627-0.048,0.8-0.075c0.284-0.045,0.322-0.206,0.47-0.442
	c0.102-0.162,0.364-0.421,0.556-0.221c0.163-0.125,0.122-0.304,0.311-0.415c0.165-0.098,0.189-0.057,0.293-0.256
	c0.036-0.07,0.069-0.22,0.136-0.261c0.192-0.119,0.202,0.061,0.341-0.187c0.068-0.121,0.103-0.301,0.283-0.238
	c0.118-0.188,0.158-0.778,0.473-0.707c0.056-0.121,0.136-0.317,0.113-0.459c-0.023-0.143-0.162-0.215-0.171-0.361
	c-0.022-0.349,0.522-0.624,0.64-0.942c0.271,0.002,0.21,0.161,0.498,0.046c0.273-0.11,0.495-0.199,0.553-0.521
	c0.037-0.206-0.04-0.351,0.185-0.481c0.219-0.127,0.433-0.092,0.574-0.354c0.101-0.187,0.063-0.384,0.19-0.573
	c0.044-0.065,0.105-0.071,0.131-0.147c0.027-0.077-0.038-0.207-0.002-0.276c0.102-0.198,0.333-0.095,0.471-0.037
	c0.296,0.124,0.607,0.262,0.911,0.367c0.123-0.132,0.204-0.307,0.325-0.434c0.171-0.179,0.258-0.219,0.362-0.466
	c0.074-0.175,0.181-0.238,0.287-0.391c0.121-0.176,0.112-0.374,0.108-0.581c-0.005-0.264,0.161-0.352,0.332-0.542
	c0.221-0.246,0.46-0.396,0.686-0.631c0.179,0.087,0.242,0.186,0.458,0.16c0.145-0.018,0.246-0.093,0.39-0.144
	c0.153-0.054,0.438-0.035,0.568-0.119c0.156-0.101,0.045-0.158,0.038-0.252c-0.006-0.086-0.076-0.058,0.001-0.169
	c0.079-0.115,0.36-0.147,0.482-0.186c0.239-0.076,0.38-0.175,0.375-0.454c-0.003-0.219-0.135-0.406-0.081-0.628
	c0.057-0.234,0.444-0.353,0.432-0.543c-0.226-0.012-0.224-0.178-0.286-0.356c-0.048-0.141-0.014-0.11-0.102-0.242
	c-0.042-0.063-0.097-0.104-0.139-0.173c-0.165-0.274-0.15-0.368-0.051-0.655c0.086-0.251,0.061-0.507,0.061-0.769
	c0-0.191-0.058-0.371,0.121-0.441c0.192-0.075,0.274,0.068,0.413-0.188c0.207-0.381,0.094-1.048,0.083-1.479
	c0.127-0.052,0.226-0.056,0.322-0.134c0.128-0.103,0.113-0.272,0.209-0.369c0.115-0.115,0.182-0.058,0.315-0.085
	c0.037-0.008,0.085,0.044,0.122,0.028c0.069-0.029,0.062-0.109,0.11-0.143c0.089-0.064,0.146-0.05,0.231-0.091
	c0.118-0.056,0.11-0.134,0.219-0.209c0.122-0.084,0.368-0.039,0.523-0.038c0.097,0.001,0.189,0.012,0.272-0.025
	c0.168-0.074,0.233-0.361,0.405-0.412c0.272-0.08,0.25,0.396,0.559,0.285c0.129-0.047,0.233-0.294,0.377-0.306
	c0.23-0.018,0.371,0.344,0.575,0.413c0.218,0.074,0.391-0.115,0.571-0.251c0.181-0.138,0.144-0.157,0.421-0.104
	c0.081,0.016,0.159,0.034,0.232,0.069c0.076,0.036,0.663-0.316,0.817-0.341c0.384-0.065,0.639-0.212,0.987-0.393
	c0.264-0.138,0.686-0.382,0.995-0.321c0.146,0.029,0.275,0.173,0.417,0.202c0.26,0.054,0.229-0.2,0.438-0.244
	c0.24-0.051,0.737,0.29,0.948,0.404c0.206,0.112,0.371,0.161,0.573,0.011c0.226,0.135,0.184,0.335,0.48,0.353
	c0.193,0.012,0.39-0.006,0.584-0.001c0.19,0.004,0.496,0.091,0.64-0.041c0.144-0.131,0.187-0.467,0.258-0.644
	c0.31-0.767,0.59-1.562,0.881-2.336c0.107-0.284,0.132-0.666,0.091-0.976c-0.032-0.248-0.187-0.255-0.432-0.281
	c-0.063-0.384-0.075-0.77-0.088-1.157c-0.325-0.038-0.657,0.061-0.979,0.101c-0.293,0.036-0.603,0.019-0.891,0.084
	c-0.056-0.15-0.047-0.358-0.051-0.521c-0.013-0.499-0.859-0.46-1.172-0.713c-0.356-0.288-0.436-0.795-0.753-1.128
	c-0.187-0.197-0.35-0.298-0.389-0.59c-0.058-0.44,0.005-0.945,0.064-1.378c0.06-0.444,0.274-0.887,0.413-1.312
	c0.165-0.506,0.296-0.981,0.347-1.51c0.008-0.084,0.088-0.33,0.043-0.404c-0.055-0.09-0.27-0.036-0.373-0.04
	c-0.269-0.009-0.549-0.052-0.813,0.044c-0.296,0.108-0.394,0.281-0.764,0.213c0.006-0.184-0.031-0.415,0.025-0.588
	c0.182-0.569,0.326-0.828,0.088-1.368c-0.109-0.246-0.275-0.516-0.347-0.772c-0.046-0.166-0.016-0.36-0.071-0.526
	c-0.052-0.157-0.19-0.238-0.238-0.387c-0.075-0.233,0.091-0.328-0.084-0.538c-0.14-0.168-0.339-0.385-0.526-0.5
	c0.011-0.202,0.234-0.541,0.406-0.667c0.16-0.117,0.292-0.033,0.398-0.173c0.134-0.177,0.039-0.466,0.144-0.667
	c0.103-0.199,0.237-0.353,0.312-0.565c-0.094-0.153-0.431-0.22-0.582-0.316c-0.214-0.136-0.406-0.268-0.649-0.357
	c-0.242-0.088-0.491-0.165-0.732-0.257c-0.396-0.151-0.666-0.451-1.012-0.686c-0.21,0.13-0.215,0.446-0.327,0.645
	c-0.103,0.182-0.335,0.362-0.532,0.441c-0.276,0.111-0.625,0.18-0.919,0.235c-0.407,0.076-0.877,0.188-1.289,0.144
	c-0.041-0.197-0.179-0.394-0.325-0.528c-0.173-0.158-0.493-0.248-0.608-0.44c-0.114-0.19,0.044-0.421-0.058-0.609
	c-0.104-0.191-0.566-0.307-0.469-0.588c0.266,0.023,0.386-0.783,0.457-0.975c0.164-0.44,0.348-1.219,0.961-1.213
	c-0.043-0.179-0.25-0.313-0.142-0.491c0.048-0.078,0.18-0.111,0.263-0.126c0.29-0.056,0.282,0.01,0.402-0.288
	c0.072-0.178,0.127-0.428,0.3-0.536c0.204-0.126,0.498-0.125,0.729-0.182c0.053-0.279,0.43-0.127,0.642-0.224
	c0.093-0.223,0.221-0.545,0.357-0.745c0.165-0.244,0.43-0.296,0.647-0.46c0.216-0.163,0.4-0.373,0.551-0.595
	c0.108-0.159,0.24-0.268,0.184-0.466c-0.057-0.199-0.302-0.346-0.425-0.505c-0.261-0.335-0.374-0.628-0.393-1.044
	c-0.008-0.185,0.059-0.519-0.014-0.691c-0.071-0.167-0.369-0.37-0.501-0.499c-0.241-0.233-0.686-0.673-0.661-1.016
	c0.012-0.163,0.266-0.3,0.219-0.473c-0.065-0.239-0.586-0.232-0.693-0.478c-0.188-0.43,1.158-1.132,1.403-1.39
	c0.191-0.201,0.138-0.469,0.3-0.678c0.154-0.198,0.534-0.165,0.787-0.165c0.072-0.177,0.068-0.43,0.227-0.56
	c0.129-0.106,0.277-0.101,0.428-0.163c0.219-0.09,0.28-0.297,0.523-0.333c0.177-0.026,0.388,0.014,0.553-0.065
	c0.263-0.127,0.411-0.474,0.627-0.628c0.165-0.118,0.3,0.049,0.471-0.028c0.123-0.055,0.13-0.265,0.154-0.378
	c0.024-0.118,0.119-0.282,0.132-0.391c0.021-0.179-0.093-0.128-0.18-0.275c-0.123-0.21,0.027-0.293-0.221-0.406
	c-0.255-0.117-0.497-0.046-0.731-0.223c-0.109-0.082-0.374-0.269-0.435-0.377c-0.089-0.155,0.006-0.186,0.119-0.287
	c0.155-0.14,0.223-0.247,0.325-0.431c-0.132-0.168-0.237-0.21-0.269-0.435c-0.02-0.134,0.002-0.274-0.005-0.409
	c-0.01-0.209-0.017-0.423-0.041-0.63c-0.036-0.319-0.549-0.246-0.62-0.529c-0.044-0.176,0.168-0.587,0.243-0.748
	c0.082-0.177,0.05-0.126,0.241-0.193c0.25-0.087,0.496-0.204,0.743-0.306c0.425-0.175,0.88-0.354,1.322-0.475
	c0.359-0.098,0.732-0.147,1.091-0.211c0.024-0.452-0.178-1.036-0.29-1.471c-0.063-0.242-0.091-0.432,0.046-0.65
	c0.23-0.366,0.566-0.151,0.922-0.283c-0.141-0.511-0.092-1.032,0.311-1.374c0.235-0.199,0.5-0.369,0.735-0.572
	c0.087-0.075,0.16-0.188,0.27-0.234c0.139-0.058,0.319,0.02,0.447-0.056c0.23-0.137,0.228-0.501,0.287-0.727
	c0.067-0.256,0.113-0.341,0.325-0.542c0.261-0.248,0.294-0.303,0.163-0.636c-0.025-0.064-0.151-0.13-0.159-0.205
	c-0.019-0.181,0.245-0.327,0.283-0.5c0.068-0.309,0.089-0.753-0.084-1.025c-0.176-0.275-0.505-0.437-0.692-0.705
	c-0.139-0.198-0.276-0.725-0.156-0.969c0.083-0.168,0.451-0.284,0.629-0.458c0.159-0.156,0.329-0.295,0.501-0.444
	c0.327-0.283,0.547-0.777,0.895-1.016c0.57-0.391,1.134-0.059,1.675,0.117c0.472,0.154,1.159,0.154,1.656,0.126
	c0.533-0.03,0.934-0.604,1.45-0.753c1.798-0.519,3.746,0.049,5.42,0.689V54.353L116.145,29.385z"/>
</svg>
