<?xml version="1.0" encoding="utf-8"?>
<!-- Generator: Adobe Illustrator 26.0.3, SVG Export Plug-In . SVG Version: 6.00 Build 0)  -->
<svg version="1.1" id="Isolation_Mode" xmlns="http://www.w3.org/2000/svg" xmlns:xlink="http://www.w3.org/1999/xlink" x="0px"
	 y="0px" viewBox="0 0 200 200" enable-background="new 0 0 200 200" xml:space="preserve">
<path fill="#1E8346" d="M140.538,185.803c-0.068-0.13-0.208-0.209-0.242-0.358c-0.029-0.123,0.031-0.216,0.018-0.329
	c-0.025-0.21-0.107-0.389-0.234-0.572c-0.095-0.137-0.297-0.266-0.304-0.452c-0.004-0.127,0.114-0.259,0.132-0.389
	c0.032-0.236-0.018-0.538-0.051-0.773c-0.032-0.229-0.142-0.339-0.202-0.547c-0.048-0.164-0.014-0.349-0.075-0.519
	c-0.073-0.201-0.226-0.344-0.178-0.575c0.031-0.147,0.141-0.23,0.128-0.393c-0.013-0.161-0.127-0.247-0.217-0.361
	c-0.117-0.148-0.178-0.295-0.287-0.449c-0.103-0.145-0.103-0.096-0.236-0.201c-0.513-0.404-0.762-0.955-1.201-1.405
	c-0.245-0.251-0.69-0.26-0.77-0.606c-0.085-0.377,0.269-0.658,0.203-0.993c-0.051-0.264-0.277-0.282-0.466-0.422
	c-0.227-0.169-0.298-0.393-0.591-0.469c-0.138-0.036-0.315,0.014-0.434-0.056c-0.11-0.064-0.182-0.201-0.261-0.293
	c-0.13-0.151-0.246-0.297-0.368-0.442c-0.224-0.267-0.502-0.561-0.79-0.778c-0.347-0.261-0.51-0.535-0.709-0.896
	c-0.083-0.152-0.218-0.275-0.178-0.475c0.04-0.201,0.268-0.301,0.34-0.504c-0.377-0.242-0.801-0.505-1.062-0.877
	c-0.225-0.321-0.189-0.468,0.052-0.719c0.227-0.236,0.095-0.444,0.233-0.705c0.138-0.26,0.437-0.319,0.682-0.435
	c0.229-0.108,0.444-0.2,0.44-0.446c-0.003-0.158-0.081-0.315-0.078-0.484c0.007-0.447,0.01-0.686-0.234-1.066
	c-0.164-0.256-0.607-0.595-0.443-0.904c0.146-0.275,0.621-0.475,0.312-0.772c-0.169-0.162-0.181-0.041-0.217-0.296
	c-0.014-0.102-0.004-0.225,0-0.329c0.015-0.345,0.086-0.693,0.101-1.039c0.016-0.346,0.076-0.904-0.121-1.201
	c-0.132-0.2-0.468-0.263-0.731-0.267c-0.003-0.576-0.09-1.111-0.405-1.603c-0.162-0.253-0.456-0.5-0.456-0.809
	c0-0.7,0.708-0.565,1.221-0.625c0.373-0.043,1.55,0.068,1.478-0.608l0.051-16.399l0.481-6.15l-0.557-0.886l0.177-6.378
	c-0.127-0.274-0.225-0.511-0.354-0.785l0.27-14.855c-0.354-0.666-0.352-1.467-0.448-2.182c-0.106-0.784-0.594-1.405,0.07-2.065
	c0.364-0.362,0.128-0.464-0.058-0.827c-0.186-0.362-0.009-0.782,0.115-1.138c0.192-0.553,0.199-1.08,0.176-1.658
	c-0.024-0.599,0.13-1.006,0.412-1.513c0.242-0.434,0.342-0.853,0-1.275c-0.247-0.304-0.673-0.532-0.638-0.984l0.228-13.261
	c-0.026-0.467-0.229-0.704-0.355-1.134c-0.114-0.392-0.051-0.865-0.051-1.277c0-0.855,0.082-1.701,0.101-2.55
	c0.011-0.493-0.112-0.781-0.28-1.23c-0.14-0.376-0.217-0.77-0.375-1.14c-0.133-0.311-0.254-0.674-0.483-0.933
	c-0.151-0.171-0.364-0.294-0.531-0.445c-0.354-0.32-0.346-0.734-0.532-1.142c-0.198-0.433-0.577-0.532-0.975-0.748
	c-0.466-0.253-0.963-0.614-1.279-1.041c-0.414-0.561-0.869-1.19-1.268-1.764c-0.286-0.411-0.553-0.794-0.871-1.18
	c-0.232-0.28-0.436-0.535-0.618-0.846c-0.398-0.678-0.679-1.203-0.71-2.008c-0.035-0.889-0.057-1.771-0.102-2.658
	c-0.02-0.404,0.008-0.873-0.104-1.262c-0.1-0.346-0.304-0.643-0.503-0.936c-0.221,0.115-0.671,0.48-0.887,0.294
	c-0.293-0.253-0.371-1.038-0.538-1.395c-0.133-0.284-0.371-0.718-0.347-1.039c0.037-0.488,0.562-0.873,0.66-1.327
	c0.079-0.369,0.233-0.883,0.251-1.276c0.022-0.483,0.092-1.027,0.027-1.507c-0.059-0.436-0.178-0.825-0.177-1.291
	c0.001-0.626,0.002-1.242,0.051-1.862c0.056-0.714,0.101-1.414,0.101-2.138l-0.186-7.229l-9.482-5.568l-11.945-8.663l0.38-5.795
	c0.189-0.502,0.507-0.915,0.661-1.446c0.127-0.439,0.065-0.931,0.046-1.386c-0.035-0.815-0.286-1.568-0.276-2.391
	c0.007-0.602-0.039-1.247,0.076-1.838l2.784-3.113c0.264-0.474,0.089-1.235,0.151-1.76c0.038-0.32,0.241-0.532,0.353-0.825
	c0.124-0.326-0.014-0.653-0.101-0.979c-0.183-0.69,0.134-1.19,0.405-1.82c0.273-0.637,0.433-1.231,0.609-1.905H98.69l-6.057,2.531
	c0.028-0.379,0.339-0.835,0.471-1.198c0.072-0.197,0.149-0.348,0.096-0.573c-0.085-0.361-0.331-0.347-0.648-0.492
	c0.067-0.179,0.322-0.475,0.233-0.622l-23.511-4.91c-0.074,0.346-0.197,0.84-0.033,1.188c0.166,0.352,0.648,0.508,0.998,0.602
	c0.53,0.142,1.055,0.24,1.619,0.21c0.424-0.022,0.506-0.216,0.687-0.557c0.063-0.119,0.126-0.328,0.211-0.415
	c0.193-0.199,0.682-0.039,0.913,0.053c0.168,0.598,0.816,0.907,1.148,1.411c0.303,0.46,0.516,1.064,0.64,1.592
	c0.121,0.515,0.093,1.103-0.112,1.597c-0.244,0.584-0.917,0.697-1.271,1.239c-0.253,0.387-0.024,0.795-0.125,1.21
	c-0.108,0.441-0.477,0.753-0.518,1.215c-0.075,0.844,0.242,2.131-0.342,2.832c-0.441,0.53-1.358,1.016-1.446,1.745
	c-0.087,0.725,0.146,1.369-0.39,1.906c-0.585,0.586,0.214,1.517,0.459,2.158c0.143,0.374,0.179,0.802,0.534,1.048
	c0.285,0.199,0.653,0.266,0.98,0.334c0.467,0.096,0.918,0.261,1.361,0.408c0.289,0.096,0.84,0.125,1.079,0.288
	c0.445,0.304,0.315,1.122,0.637,1.536c0.357,0.459,1.148,0.526,1.695,0.672c0.327,0.087,0.526,0.098,0.781,0.303
	c0.198,0.159,0.406,0.326,0.526,0.542c0.185,0.334,0.419,0.641,0.541,1.012c0.141,0.43,0.027,1.013,0.313,1.368
	c0.182,0.225,0.4,0.185,0.389,0.517c-0.007,0.203-0.147,0.181-0.04,0.385c0.128,0.243,0.527,0.263,0.681,0.496
	c0.088,0.133,0.103,0.381,0.111,0.535c0.168,0.086,0.353,0.135,0.552,0.103c0.063-0.358-0.084-1.077,0.602-0.946
	c0.374,0.071,0.548,0.63,0.872,0.782c0.502,0.234,1.017-0.101,1.493-0.204c0.155,0.37,0.265,0.565,0.187,0.948
	c-0.117,0.583,0.03,0.479,0.508,0.764c0.528,0.315,1.281,1.529,0.816,2.049c0.324,0.09,0.804,0.02,1.163,0.02
	c0.23,0,0.772-0.108,0.958,0.032c0.363,0.272-0.235,0.732-0.467,0.895c0.129,0.378,0.405,0.447,0.069,0.829
	c-0.345,0.391-0.431,0.523-0.479,1.045c-0.081,0.885-0.615,1.875-0.408,2.733c0.095,0.393,0.439,0.689,0.441,1.111
	c0.003,0.452-0.431,0.666-0.537,1.064c-0.32,1.205,2.249,0.478,2.391,1.664c0.042,0.349-0.028,0.888-0.135,1.225
	c-0.121,0.383-0.238,0.337-0.582,0.252c-0.184-0.045-0.876-0.334-1.056-0.258c-0.212,0.09-0.151,0.532-0.15,0.739
	c0.002,0.713,0.153,0.975,0.599,1.492c0.357,0.413,0.374,1.001-0.09,1.359c-0.167,0.129-0.472,0.145-0.572,0.345
	c-0.056,0.111-0.004,0.376-0.004,0.497c0,0.518,0,1.036,0,1.554c0,0.478,0.014,0.875-0.178,1.309
	c-0.157,0.355-0.477,0.812-0.505,1.204c-0.014,0.192-0.142,0.435-0.202,0.62c-0.098,0.302-0.18,0.6-0.259,0.903
	c-0.073,0.281-0.167,0.557-0.197,0.845c-0.044,0.414,0.041,0.507,0.38,0.681c0.613,0.313,0.443,0.65,0.595,1.265
	c0.111,0.451,0.475,0.487,0.722,0.796c0.246,0.308,0.293,0.902,0.606,1.166c-0.245,0.483-0.375,0.91-0.404,1.444
	c-0.022,0.398-0.407,0.716-0.805,0.795c-0.281,0.055-0.617-0.071-0.906-0.083c-0.275-0.012-0.586-0.025-0.858,0.019
	c-0.339,0.055-0.58,0.315-0.915,0.314c-0.28-0.001-0.782-0.25-1.033-0.138c-0.348,0.155-0.337,1.331-0.168,1.649
	c0.156,0.295,0.437,0.382,0.75,0.364c0.29-0.017,0.65-0.179,0.931-0.084c0.116,0.039,0.414,0.228,0.429,0.338
	c0.038,0.283-0.605,0.616-0.754,0.739c-0.317,0.262-0.516,0.597-0.978,0.516c-0.243-0.042-0.694-0.329-0.915-0.175
	c-0.152,0.106-0.101,0.419-0.074,0.568c0.092,0.502,0.518,0.736,0.836,1.093c0.576,0.647,1.561,0.048,2.214-0.26
	c0.353-0.166,0.683-0.245,0.968-0.522c0.283-0.274,0.231-0.426,0.266-0.782c0.024-0.245,0.042-0.34,0.261-0.456
	c0.399-0.211,0.7,0.082,1.07,0.126c0.774,0.094,1.607-0.433,2.351-0.203c0.312,0.097,0.569,0.321,0.875,0.428
	c0.284,0.099,0.628,0.118,0.857,0.336c0.337,0.321,0.069,0.703,0.26,1.055c0.196,0.363,0.731,0.371,1.079,0.461
	c0.681,0.176,1.319,0.727,1.22,1.457c-0.044,0.328-0.141,0.634-0.255,0.946c-0.128,0.349-0.37,0.754-0.353,1.126
	c0.013,0.278,0.215,0.552,0.227,0.819c0.017,0.405-0.314,0.427-0.583,0.612c-0.279,0.191-0.417,0.583-0.607,0.853
	c-0.185,0.264-0.501,0.562-0.529,0.897c-0.058,0.713,0.944,0.999,0.884,1.684c-0.044,0.506-0.473,1.201-0.809,1.55
	c-0.409,0.424-1.152,0.663-1.048,1.332c0.048,0.307,0.189,0.626,0.136,0.946c-0.047,0.282-0.138,0.229-0.331,0.387
	c-0.335,0.274-0.664,1.114-0.683,1.518c-0.021,0.439,0.169,0.814,0.272,1.23c0.108,0.431,0.261,0.782,0.45,1.183
	c0.165,0.35,0.327,0.68,0.596,0.963c0.18,0.19,0.317,0.706,0.554,0.795c0.045,0.194,0.218,0.259,0.231,0.47
	c0.01,0.162-0.102,0.305-0.128,0.461c-0.056,0.338,0.152,0.568,0.322,0.837c0.281,0.443,0.456,1.188-0.026,1.615
	c-0.193,0.171-0.442,0.166-0.607,0.415c-0.171,0.256-0.032,0.364,0.002,0.619c0.048,0.37-0.281,0.812-0.565,0.986
	c-0.184,0.113-0.449,0.304-0.67,0.193c-0.197-0.098-0.191-0.368-0.363-0.474c-0.292-0.181-0.703,0.109-0.779,0.383
	c-0.093,0.336-0.152,0.655-0.619,0.506c-0.265-0.085-0.429-0.308-0.708-0.364c-0.273-0.055-0.634-0.047-0.776,0.257
	c-0.233,0.497,0.431,0.629,0.454,1.067c-0.351,0.097-0.614,0.089-0.508,0.5c0.082,0.32,0.266,0.644,0.434,0.926
	c0.228,0.384,0.514,0.708,0.792,1.054c0.21,0.262,0.31,0.831,0.553,1.027c0.057,0.284,0.246,0.529,0.408,0.764
	c0.261,0.377,0.486,0.774,0.738,1.155c0.162,0.245,0.364,0.484,0.662,0.565c0.27,0.074,0.585-0.027,0.7,0.292
	c0.071,0.197,0.01,0.386,0.163,0.567c0.126,0.149,0.468,0.33,0.652,0.358c0.297,0.045,0.38-0.104,0.63,0.08
	c0.257,0.189,0.533,0.34,0.794,0.522c0.352,0.245,0.335,0.674,0.683,0.898c0.464,0.299,1.081,0.341,1.58,0.545
	c0.306,0.125,0.692,0.537,0.918,0.793c0.289,0.329,0.206,0.669,0.223,1.077c0.019,0.459,0.029,1.092,0.409,1.42
	c0.324,0.279,0.808,0.281,1.159,0.514c0.305,0.202,0.476,0.584,0.596,0.92c0.136,0.381,0.044,0.975,0.296,1.234
	c0.263,0.269,0.561,0.184,0.552,0.586c-0.009,0.386-0.102,0.762-0.101,1.15c0.001,0.289,0.035,0.544-0.278,0.632
	c-0.265,0.075-0.57,0.007-0.829,0.08c-0.513,0.143-0.702,0.786-1.192,0.913c-0.291,0.076-0.738-0.018-0.971,0.195
	c-0.184,0.166-0.301,0.432-0.451,0.659c-0.289,0.439-0.498,0.693-0.985,0.913c-0.318,0.144-0.564,0.403-0.193,0.695
	c0.329,0.259,0.601,0.144,0.621,0.642c0.012,0.289,0.005,0.848-0.138,1.102c-0.124,0.22-0.407,0.127-0.519,0.308
	c-0.103,0.166,0.002,0.696-0.007,0.894c-0.005,0.103,0.013,0.28-0.015,0.377c-0.046,0.155-0.176,0.167-0.246,0.275
	c-0.137,0.211-0.054,0.497,0.007,0.766c0.123,0.537,0.392,1.052,0.483,1.589c0.088,0.519,0.158,1.097,0.156,1.625
	c-0.001,0.518,0.023,0.95,0.23,1.428c0.197,0.456,0.247,0.859,0.307,1.35c0.126,1.02,0.213,2.11,0.222,3.144
	c0.004,0.478-0.45,0.882-0.088,1.324c0.108,0.131,0.274,0.218,0.321,0.374c0.032,0.107,0.001,0.316-0.005,0.428
	c-0.017,0.338-0.063,0.343-0.31,0.513c-0.374,0.257-0.363,0.546-0.248,0.955c0.105,0.371,0.552,0.808,0.494,1.2
	c-0.337,0.071-0.701-0.006-1.041,0.043c-0.336,0.049-0.234,0.298-0.263,0.601c-0.043,0.457-0.149,0.899-0.2,1.358
	c-0.035,0.318,0.077,0.916-0.155,1.128c-0.271,0.246-0.803,0.351-1.137,0.479c-0.403,0.155-0.854,0.41-1.216,0.633
	c0,0.83,0.051,1.644,0.051,2.468c0,0.165-0.025,0.363,0.02,0.519c0.055,0.194,0.24,0.347,0.323,0.539
	c0.048,0.109,0.076,0.159,0.062,0.29c-0.022,0.215-0.103,0.162-0.251,0.337c-0.132,0.157-0.155,0.352-0.129,0.559
	c0.047,0.361,0.266,0.161,0.467,0.408c0.284,0.348-0.051,0.917,0.145,1.308c0.088,0.176,0.302,0.32,0.437,0.468
	c0.111,0.122,0.326,0.412,0.497,0.471c0.266,0.091,0.637-0.268,0.895-0.37c0.349-0.139,0.778-0.329,1.154-0.348
	c0.23-0.011,0.13,0.046,0.276,0.27c0.118,0.181,0.2,0.152,0.393,0.245c0.158,0.076,0.183-0.013,0.231,0.27
	c0.04,0.236,0.006,0.488,0.028,0.727c0.03,0.339,0.104,0.659,0.199,0.985c0.078,0.266,0.252,0.513,0.317,0.776
	c0.142,0.577-0.411,0.787-0.61,1.262c-0.129,0.307-0.08,0.7-0.121,1.029c-0.039,0.316-0.049,0.624-0.062,0.941
	c-0.012,0.317,0.023,0.71-0.109,1.006c-0.07,0.158-0.157,0.359-0.267,0.487c-0.046,0.054-0.085,0.105-0.124,0.166
	c-0.051,0.079-0.126,0.152-0.128,0.245c-0.008,0.357-0.071,0.622-0.304,0.887c-0.311,0.352-0.41,0.572-0.513,1.012
	c-0.111,0.474-0.183,0.791,0.172,1.147c0.129,0.13,0.321,0.244,0.311,0.466c-0.01,0.218-0.25,0.484-0.324,0.69
	c-0.228,0.632,0.229,1.27-0.051,1.865c-0.26,0.554-0.609,1.048-1.242,1.165c-0.292,0.055-0.687-0.01-0.95,0.148
	c-0.199,0.119-0.444,0.495-0.405,0.733c0.04,0.24,0.256,0.47,0.338,0.698c0.164,0.459,0.32,0.546,0.72,0.771
	c0.416,0.234,0.161,0.708,0.046,1.09c-0.057,0.191-0.09,0.366-0.236,0.519c-0.127,0.132-0.492,0.191-0.576,0.322
	c-0.037,0.058-0.006,0.303-0.022,0.38c-0.022,0.11-0.078,0.216-0.096,0.337c-0.044,0.294-0.044,0.583-0.062,0.88
	c0.436-0.127,1.009-0.122,1.161,0.42c0.06,0.033,0.288,0.255,0.337,0.324c0.105,0.147,0.015,0.225-0.097,0.333
	c-0.238,0.23-0.181,0.561-0.063,0.862c0.178,0.458,0.711,0.662,1.124,0.861c0.352,0.17,0.708,0.2,1.08,0.299
	c0.219,0.058,0.407,0.164,0.62,0.225c0.015,0.195-0.061,0.371-0.066,0.558c-0.009,0.303,0.155,0.611,0.168,0.921
	c0.005,0.126,0.017,0.271,0.003,0.397c-0.024,0.211-0.18,0.361-0.232,0.561c-0.036,0.138-0.031,0.274-0.082,0.413
	c-0.05,0.136-0.136,0.272-0.168,0.415c-0.074,0.333,0.084,0.644,0.263,0.915c0.088,0.134,0.177,0.265,0.259,0.404
	c0.129,0.22,0.218,0.369,0.513,0.291c0.116-0.031,0.294-0.271,0.446-0.192c0.105,0.055,0.144,0.348,0.193,0.445
	c0.212,0.426,0.676,0.475,1.102,0.455c0.269-0.012,0.596-0.124,0.862-0.049c0.179,0.05,0.407,0.214,0.459,0.38
	c0.069,0.221,0.009,0.663-0.089,0.849c-0.278,0.149-0.565,0.356-0.806,0.554c-0.308,0.253-0.391,0.467-0.267,0.875
	c0.095,0.314,0.132,0.628,0.355,0.891c0.265,0.312,0.716,0.481,0.785,0.927c0.04,0.257-0.059,0.543,0.035,0.791
	c0.101,0.269,0.381,0.312,0.621,0.417c0.6,0.099,0.718,0.51,0.897,1.02c0.099,0.284,0.38,0.299,0.676,0.335
	c0.296,0.036,0.601,0.083,0.882,0.189c0.367,0.137,0.648,0.412,0.945,0.656c0.218,0.178,0.417,0.347,0.594,0.566
	c0.271,0.334,0.381,0.929,0.8,1.133h4.133c-0.016,0.403,0.001,0.823,0,1.227c-0.001,0.462,0.364,0.82,0.51,1.252
	c0.089,0.265,0.209,0.527,0.385,0.75c0.136,0.171,0.227,0.196,0.428,0.247c0.197,0.05,0.302,0.142,0.446,0.287
	c0.112,0.111,0.196,0.218,0.291,0.339c0.117,0.15,0.297,0.226,0.396,0.393c0.263,0.448,0.454,1.045,0.454,1.562h4.176v2.392
	c0.068-0.004,0.148,0.001,0.219,0.004c0.777-0.319,1.526-0.689,2.308-1.008c1.198-0.489,2.487-0.852,3.65-1.431
	c0.241-0.12,0.464-0.313,0.698-0.424c0.355-0.169,0.81-0.177,1.191-0.261c0.515-0.113,0.951-0.194,1.478-0.215
	c1.101-0.042,1.983-0.459,3.032-0.685c0.575-0.124,1.067-0.429,1.646-0.54c0.466-0.089,1.048,0.043,1.458-0.211
	c0.142-0.088,0.366-0.271,0.467-0.405c0.439-0.586,1.245-0.607,1.906-0.607c0.693,0,1.291-0.098,1.95-0.292
	c0.443-0.131,0.873-0.19,1.265-0.439c0.352-0.223,0.344-0.043,0.704-0.081C140.68,186.303,140.658,186.034,140.538,185.803z"/>
</svg>
