<?xml version="1.0" encoding="UTF-8"?>
<svg baseProfile="full" version="1.1" viewBox="0 0 25588 17757" xmlns="http://www.w3.org/2000/svg">
<defs>
<style type="text/css">polyline,line,rect,path,polygon,.polygon{fill:none;stroke:#000;stroke-width:1px;stroke-linejoin:round;}.country {
    fill: grey;
    opacity: 0.40;
    stroke: black;
    stroke-opacity: 0.5;
}
.federal_state {
    fill: red;
    stroke: black;
    stroke-opacity: 0.5;

}</style>
</defs>
<g transform="scale(1 -1) translate(9402.5 -690992)" fill_rule="evenodd">
<g class="NAME">
<g fill="red" stroke="#000" stroke-opacity=".5" fill_rule="evenodd">
<polygon class="federal_state" points="14950 680193 14981 680138 14895 680087 14842 680122 14863 680172"/>
<polygon class="federal_state" points="-3755.3 682557 -3759.3 682508 -3788.2 682542"/>
<polygon class="federal_state" points="12638 683694 12676 683642 12612 683603 12632 683527 12566 683556 12553 683608"/>
<polygon class="federal_state" points="-3303.3 683540 -3281.5 683521 -3303.9 683456 -3365.7 683457"/>
<polygon class="federal_state" points="-3118.4 683959 -3174.1 683792 -3175.4 683610 -3197.2 683613 -3192.1 683830"/>
<polygon class="federal_state" points="11560 684726 11599 684619 11688 684547 11586 684594"/>
<polygon class="federal_state" points="11528 684732 11546 684714 11510 684713"/>
<polygon class="federal_state" points="8922.7 685324 8960 685269 8814.7 685281"/>
<polygon class="federal_state" points="11566 685645 11579 685596 11544 685549 11534 685638"/>
<polygon class="federal_state" points="12532 686140 12562 686110 12423 686026"/>
<polygon class="federal_state" points="7311.9 686721 7356.5 686647 7303 686597 7229.2 686689"/>
<polygon class="federal_state" points="10033 686973 10049 686887 9945.7 686835 9919.1 686726 9893.3 686747 9877.8 686796 9962.9 686873 9947.6 686915"/>
<polygon class="federal_state" points="3432.5 687211 3483.5 687152 3443.9 687133 3448.2 687031 3411 687179"/>
<polygon class="federal_state" points="3435.4 687294 3418 687217 3392.1 687288"/>
<polygon class="federal_state" points="3809.8 687430 3803.1 687368 3766.9 687383"/>
<polygon class="federal_state" points="7905.8 687723 7927.8 687699 7899.6 687664 7834.6 687666"/>
<polygon class="federal_state" points="4773.4 687798 4788.4 687745 4749.2 687702 4655.3 687704 4701.3 687794"/>
<polygon class="federal_state" points="7251.6 688022 7288.3 687982 7245 687988"/>
<polygon class="federal_state" points="6806.9 688346 6873.4 688239 6734.4 688134 6557.6 688147 6342.9 688027 6273.6 688088 6337.8 688141 6392.6 688089 6491.9 688199 6708.3 688193"/>
<polygon class="federal_state" points="3368.3 688577 3436.8 688556 3412.6 688429 3554.3 688263 4251 688120 5192 688099 5969.8 688164 5945.7 688080 5978.8 688025 6027.8 688143 6226.1 688133 6244.8 688087 6086.1 688091 5987.4 687923 5685.9 687808 5522.5 687899 5331.4 687890 5210.4 687747 5119.2 687845 4946.6 687796 4798.4 687820 4743.5 687899 4729.9 687819 4506 687854 4423.5 687806 4376.2 687849 4404.5 687908 4487.3 687922 4494.1 687965 4461.6 687968 4354.1 687899 4362 687821 4329.3 687846 4337.4 687753 4308.7 687737 4232.7 687764 4199.4 687860 4134.8 687819 4133.9 687921 4008.4 687843 3969.3 687778 4009.4 687722 3915.5 687743 3746.4 687680 3757.9 687603 3884.7 687545 3852.9 687458 3812.7 687520 3585.3 687524 3391.4 687387 3410.1 687303 3221.4 687438 2831.8 687398 2695.5 687249 2739.6 687113 2719.1 686924 2530.8 686995 2505.7 686957 2585.6 686887 2582.6 686781 2485.9 686620 2388.2 686635 2345 686588 2334.5 686514 2378.4 686419 2494.9 686289 2459.2 686200 2369 686140 2714.1 685932 3e3 685949 2934.5 686011 2724.2 686053 2662 686173 2664.9 686297 2722.2 686405 2830.2 686489 3119 686571 3118.4 686658 3067.1 686766 3077.3 686856 3423.9 686907 3481.3 686957 3501.9 687103 3595.2 687184 3471.8 687254 3601.2 687332 3593.4 687413 3659 687333 3785.2 687349 3738.9 687272 3732.5 687176 3848.1 687167 3901.6 687245 3890.2 687319 4027.2 687336 4350.2 687543 4353.4 687589 4284.5 687629 4269 687737 4453.1 687723 4586 687783 4644.6 687697 4471.9 687646 4454.6 687572 4505.9 687489 4427.2 687417 4406.5 687315 4460.6 687321 4431.3 687371 4520.4 687480 4544.2 687635 4645.2 687636 4635.8 687496 4680.6 687348 4774.7 687325 4821.2 687368 4831 687470 4901 687335 4987.7 687330 5032.4 687534 5110.9 687613 5102.2 687427 5222.2 687348 5267.3 687188 5269 687045 5315.1 687114 5524.5 687126 5624.2 687244 5710.5 687276 5742.4 687320 5751.1 687496 5822 687593 5828.1 687683 6003.2 687818 6190.2 687855 6214.6 687923 6426.8 687960 6482.9 688075 6615.8 688108 6718 688023 6715.6 687939 6637.3 687867 6658.7 687635 6820.2 687449 7018.5 687465 7107.5 687311 6995.6 687072 7079.4 686791 7148.4 686768 7237.5 686621 7189.6 686447 7201.7 686367 7377.6 686227 7511.6 686223 7589.6 686326 7681.4 686244 7671.3 686201 7544.5 686202 7462.5 686126 7449.1 686058 7574.8 686125 7584.6 686190 7718.3 686205 7759.5 686119 7927.8 686020 7896 685970 7929.4 685924 8204.6 685932 8386.9 685867 8461.3 685760 8519.8 685532 8665.6 685300 8789.6 685265 8608.9 685033 8730.7 685119 8803.7 685096 8989.8 685229 9150.8 685158 9108.6 685278 9244 685216 9289.5 685117 9024.3 684948 9033.5 684846 9152.3 684898 9219.2 685008 9188.6 684899 9320.9 684821 9388.6 684708 9419 684638 9403.5 684508 9533.7 684362 9531.7 684281 9744.2 684205 9820.1 684226 9653.1 684565 9734.8 684653 10638 684856 11076 685219 11224 685136 11073 685064 11082 684965 11333 684830 11433 684865 11453 684813 11420 684806 11520 684741 11474 684699 11490 684641 11555 684655 11623 684530 11818 684473 11823 684396 11735 684276 11755 684209 11719 684038 11619 683992 11642 683943 11677 683981 11691 683870 11427 683641 11522 683628 11533 683486 11779 683269 11873 683281 12033 683155 12170 682936 12155 682809 12338 682795 12366 682725 12443 682708 12459 682631 12573 682480 12493 682338 12394 682336 12255 682230 12184 682135 12137 681967 11991 681963 12002 681840 12331 681981 12448 681966 12507 682067 12634 682098 12701 682319 12730 682329 12685 682637 12640 682686 12623 682793 12436 682968 12498 683229 12741 683288 12888 683243 12882 683054 12948 683025 12799 682894 12855 682831 12816 682792 12825 682623 12868 682618 12867 682686 12937 682796 12883 682878 13016 682940 13017 682906 13290 682942 13232 682919 13284 682895 13212 682868 13210 682797 13351 682709 13409 682723 13408 682775 13356 682811 13425 683076 13421 683329 13380 683362 13377 683467 13301 683561 13133 683479 13079 683817 12888 684013 12923 684063 12761 684003 12508 684058 12554 684007 12500 683820 12543 683870 12604 683739 12558 683716 12451 683475 12238 683417 12211 683327 12148 683378 12145 683486 12215 683587 12237 683732 12281 683700 12308 683784 12282 683817 12265 683764 12168 683873 11924 683737 11853 683664 11805 683530 11594 683530 11554 683662 11610 683778 11672 683752 11667 683807 11724 683865 11703 683951 11767 684014 11810 684188 11790 684253 11831 684223 11811 684312 11855 684428 11808 684544 11725 684551 11649 684657 11602 684647 11592 684789 11528 684843 11537 684806 11486 684814 11424 685085 11527 685211 11815 685265 11774 685310 11833 685299 11891 684995 11999 684756 12236 684465 12643 684186 12878 684127 13188 683966 13448 683670 14050 683125 14330 682796 14588 682625 14475 682490 14362 682456 14519 682322 14561 682196 14583 681904 14396 681979 13900 681917 13727 681971 13590 681917 13406 681959 13265 681880 13100 681665 12783 681604 12629 681634 12495 681556 12264 681581 12152 681671 12017 681655 11986 681737 12034 681736 12042 681829 11883 681747 11955 681678 11938 681613 11985 681617 11946 681591 11968 681567 12165 681594 12295 681510 12336 681345 12521 681145 12626 681188 12658 681096 12735 681095 13002 680818 13309 680740 13444 680642 13594 680646 13862 680487 14014 680461 14272 680531 14355 680450 14442 680477 14727 680755 14890 680692 14980 680522 15057 680518 14963 680481 14870 680296 14657 680171 14627 680093 14824 6.8e5 15010 680068 15035 679867 15084 679873 15096 679773 15002 679712 15008 679662 15146 679629 15140 679343 15306 679179 15381 679182 15344 679098 15348 678896 15298 678890 15338 678542 15288 678536 15300 678437 15250 678431 15261 678331 15367 678293 15415 678197 15371 678114 15493 677869 15577 677870 15659 677748 15696 677420 15775 677422 15774 677052 15854 676766 15974 676522 15973 676317 15930 676275 16051 676193 16091 675989 16011 676030 16009 675990 15883 675945 15881 675823 15755 675862 15755 675821 15671 675821 15670 675779 15459 675777 15458 675655 15371 675572 15370 675490 15115 675366 15153 675200 15068 675159 14771 675118 14688 675200 14605 675200 14603 675159 14478 675241 14309 675242 14181 675161 14012 675162 14014 675285 14101 675449 14275 675654 14488 675817 14575 675981 14703 676063 14878 676391 14923 676556 14927 676802 14886 676884 14930 676966 14889 677048 14847 677049 14806 677131 14677 676969 14509 676968 14218 677175 14174 677134 14092 677176 14004 677012 14002 676930 13663 676809 13622 676850 13583 677015 13331 677018 13290 677059 12914 677022 12912 676979 12745 676897 12663 676939 12624 677022 12706 677062 12666 677145 12751 677227 12711 677310 12464 677476 12508 677599 12425 677599 12428 677764 12469 677765 12470 677805 12265 677931 12058 677932 12100 678013 11938 678220 11941 678385 11858 678386 11770 678056 11808 677892 11890 677850 11971 677725 12013 677766 12136 677724 11967 677519 11800 677437 11802 677478 11636 677479 11596 677562 11347 677522 11347 677480 10971 677153 11010 677112 10969 677071 10887 677113 10845 677030 10886 677031 10885 676946 10804 676947 10885 676866 10799 676701 10677 676743 10676 676700 10594 676701 10593 676660 10552 676701 10305 676579 10304 676497 10345 676498 10342 676331 10258 676167 10135 676209 10092 676044 10175 676044 10174 675920 10132 675921 10131 675839 10171 675672 10047 675673 10006 675755 10047 675632 9963.7 675510 10003 675466 9878.7 675343 9713.9 675345 9714.9 675427 9592.1 675429 9550.4 675347 9631.7 675305 9631.3 675262 9548.6 675263 9507.1 675140 9423.2 675058 9380.5 674852 9255.9 674812 9257 674895 9215.5 674894 9095.3 675185 8971.5 675145 8684 675189 8516.8 675066 8517.5 675026 8350.7 674944 8350.1 674819 8307.3 674654 8265.8 674613 8306.5 674571 8223.8 674531 8223.4 674489 8059 674532 7897.5 674864 7897.1 674823 7815.2 674865 7691.2 674825 7608.5 674784 7566.5 674702 7484.5 674744 7401.7 674704 7399.2 674455 7357.6 674415 7275.6 674457 7274.8 674374 7191.6 674292 6985.2 674253 6901.6 674130 6818.7 674089 6859.1 674006 6568.9 673843 6487.4 673927 6488.2 674010 6323 673970 6572.3 674174 6532 674257 6284.3 674219 6325.1 674177 6324.3 674094 6242.3 674136 6243.1 674219 6119.5 674220 6036.2 674139 5953.7 674139 5952.9 674057 5911.6 674057 5911.3 674016 5747.7 674142 5707.8 674266 5500.8 674186 5459.6 674186 5460 674228 5252.6 674106 5128.9 674107 5129.8 674190 4965.3 674233 5048.7 674315 5092.2 674522 4844.4 674483 4844.9 674525 4515.5 674570 4474.7 674612 4475.7 674695 4517.8 674777 4559.1 674776 4477.1 674819 4477.6 674860 4230.2 674864 4229.7 674822 4063.8 674741 3571.3 674955 3364.5 674916 3363.6 674833 3281.6 674876 3281.1 674835 2991.7 674797 2910.7 674923 2912.2 675047 2789.4 675132 2665.7 675133 2709 675298 2668.7 675382 2421.6 675427 2094 675639 1763.2 675602 1764.3 675685 1600.7 675812 1561.5 675979 1313.2 675941 1270.8 675859 1312 675858 1270.2 675817 1145.7 675778 1065.2 675945 1066.4 676028 941.3 675947 940.13 675864 775.42 675908 774.35 675825 568.23 675870 571.53 676119 364.77 676122 402.79 675873 152.5 675711 192.18 675586 189.41 675378 64.743 675339 22.208 675256 -142.7 675301 -228.28 675095 -312.19 675013 -311.61 675055 -683.76 675103 -685.41 674978 -852.84 674857 -853.99 674774 -1309.4 674823 -1269.1 674740 -1186.1 674738 -1063.4 674611 -1106 674529 -1479.2 674536 -1688.3 674416 -1771.3 674417 -1769 674583 -1852.1 674585 -1892.4 674668 -1974.9 674711 -2224 674716 -2266.1 674675 -2431.7 674720 -2727.1 674394 -2893.3 674397 -2977.6 674316 -2895 674273 -2937.7 674191 -2897.3 674107 -2940 674025 -2856.8 674024 -2898.9 673983 -2817.6 673857 -2859.1 673858 -2986.1 673694 -2946.2 673569 -3073.2 673406 -3281.8 673369 -3322.3 673452 -3488.7 673456 -3487.5 673539 -3528.6 673581 -3945.3 673548 -3944.8 673590 -4028 673592 -4030.8 673384 -3990.4 673301 -4115.8 673262 -4239.5 673347 -4406.7 673310 -4572.9 673355 -4573.4 673313 -4864 673403 -4863.4 673445 -5110.8 673658 -5277.6 673662 -5362.2 673581 -5445.6 673583 -5443.3 673749 -5525.4 673835 -5442 673832 -5356.3 673996 -5355.1 674079 -5727.7 674214 -5727.1 674255 -5685.5 674254 -5725.8 674338 -5891.6 674343 -6219 674644 -6217.7 674727 -6378.7 675064 -6501 675233 -6584.1 675236 -6582.3 675360 -6623.9 675361 -6580.6 675484 -6622.2 675485 -6661 675693 -6743.6 675737 -6700.8 675818 -6907.8 675868 -6991.3 675831 -7073.7 675877 -7113.4 676003 -7196.2 676008 -7239.2 675887 -7322.5 675851 -7446 675901 -7447 675819 -7364.9 675772 -7489.4 675739 -7531.8 675659 -7614.4 675665 -7614.9 675623 -7739.3 675591 -7739.8 675549 -7780 675635 -8026.7 675692 -8230.5 675871 -8271.2 675914 -8229 675994 -8352.5 676002 -8392.1 676127 -8595.3 676345 -8760 676312 -9251.3 676374 -9333.9 676296 -9290.9 676458 -9168 676494 -9163.2 676862 -9078 677146 -9118.2 677188 -9077.5 677186 -9035.2 677308 -8789.5 677339 -8667 677293 -8582.5 677536 -8459.7 677489 -8417.8 677570 -8377.1 677526 -8253.1 677603 -8253.4 677561 -8211.6 677642 -8087.7 677676 -8044.7 677880 -7879.4 677912 -7797.3 677866 -7796.6 677949 -7837.8 677951 -7837.5 677993 -7795.9 678031 -7837.1 678034 -7836.5 678116 -7712 678192 -7793.3 678361 -7751.8 678400 -7751.2 678483 -7791.9 678568 -7626.7 678559 -7627.3 678476 -7503.5 678428 -7503.2 678469 -7212.8 678494 -7129 678613 -7127.5 678861 -7084.7 679107 -6917.2 679345 -6917 679428 -6958.6 679430 -7e3 679516 -6999.7 679598 -6958 679637 -7124.2 679895 -7331.7 679988 -7579.9 679959 -7621.2 680044 -7703.7 680048 -7868.2 680179 -7868 680385 -7909 680428 -8112.5 680519 -8193.5 680481 -8192 680687 -8110.8 680808 -8110.5 680849 -8150.7 680850 -8109.7 680973 -8109.1 681055 -8148.9 681098 -8108.5 681138 -8148.2 681180 -8146.9 681345 -8186 681429 -8265.2 681473 -8223.1 681677 -8101.4 681921 -8023.3 681877 -7904.4 681914 -7745 682114 -7585.6 682149 -7625.7 682192 -7426.2 682307 -7427 682390 -7387.2 682430 -7182.8 682295 -7263.9 682258 -7263.1 682175 -7222 682131 -6975.4 682201 -6975.2 682160 -6934 682240 -6850.6 682194 -6809.2 682233 -6975.8 682284 -7017.7 682369 -7184.1 682419 -7305.9 682384 -7308.6 682592 -7227 682670 -7254.6 682741 -6990.7 682832 -6684.5 683078 -6291.7 683289 -5977.4 683369 -5592 683314 -5380 683380 -5282.8 683286 -5287.4 683203 -5241.1 683109 -5150.8 683034 -5038.2 682999 -4917.3 683059 -4862.9 683031 -4889.8 682904 -4952 682883 -4983.4 682670 -4955.4 682559 -4904.4 682555 -4923 682521 -4868.9 682465 -4683.2 682423 -4488.5 682557 -4417.7 682717 -4362.8 682732 -4276.4 682617 -4287.7 682580 -4171.9 682471 -4025.6 682513 -3905.6 682472 -3921.4 682317 -3692.5 682195 -3718.9 682093 -3583.9 682079 -3656 682191 -3461 682391 -3406.4 682378 -3434.9 682468 -3397.5 682594 -3418.2 682755 -3388.5 682835 -3432.1 682848 -3414.3 682795 -3469.1 682780 -3439.4 682848 -3497.6 682861 -3579 682713 -3651.6 682748 -3641.2 683156 -3751.4 683039 -3753.7 682755 -3928 682840 -3971.2 682908 -4026.4 682841 -3866.2 682814 -4015.8 682806 -4098 682986 -4104.2 683110 -4078.3 683163 -3639.1 683425 -3325.8 683441 -3300.6 683407 -3323.7 683228 -3349.6 683175 -3367.5 683219 -3418.8 683173 -3409.3 682981 -3493.7 682898 -3406.5 682857 -3366.1 682906 -3344.7 682832 -3319 682863 -3336.7 682937 -3281.4 683023 -3335.4 683113 -3206.4 683329 -3049.3 683417 -3074.3 683483 -3161.8 683465 -3150.4 683542 -3081 683566 -3048.8 683482 -2968.9 683463 -2800.9 683546 -2709 683700 -2740.6 683889 -2470.7 684026 -2448.1 684177 -2530.9 684326 -2592.7 684324 -2614.7 684290 -2596.8 684249 -2728 684188 -2775.9 684071 -2955.1 683918 -2995.9 683788 -3061.8 683730 -3072.4 683776 -3032.1 683819 -3045.4 684005 -3100.3 683949 -3107.4 683984 -2902.1 684245 -2687.4 684290 -2505 684413 -2074.2 684884 -1558.8 684897 -1250.6 684794 -956.55 684790 67.097 685157 277.49 685136 571.21 685213 633.09 685065 600.68 684867 658.71 684889 673.34 684821 669.58 684907 698.61 684910 738.7 684802 709.51 684904 760.31 684914 814.86 684846 792.93 684938 869.2 684908 854.61 684942 927.16 684957 890.84 684973 890.68 685053 930.51 685093 712.79 685130 658.48 685056 622.03 685189 712.76 685155 835.92 685241 1276.6 685879 1995.5 686305 2208 686495 2647.8 687385 2934.7 687680 3034.5 687866 3218.2 688415 3307.2 688558"/>
<polygon class="federal_state" points="7672.3 688740 7759.2 688710 7778.3 688646 7943.8 688655 7955.1 688627 7908.5 688611 7937.4 688608 7953.7 688500 7879.1 688440 7954.4 688460 7797.3 688377 7787.4 688324 7775.7 688374 7868.4 688431 7706.4 688422 7682.8 688326 7564.2 688308 7543.8 688237 7271.2 688155 7283.8 688267 7444.2 688597 7536.3 688694"/>
<polygon class="federal_state" points="8415 689272 8433.7 689236 8401.1 689247"/>
<polygon class="federal_state" points="7270.3 689349 7282.1 689284 7228.8 689240 7224 689317"/>
<polygon class="federal_state" points="7343 689968 7411.7 689938 7428.2 689809 7487.7 689683 7434.6 689636 7440.3 689726 7407.1 689781 7416.7 689629 7384.4 689629 7401.3 689691 7331.7 689776 7363.6 689805 7362.5 689876 7278.6 689729 7181.6 689728 7229.8 689636 7173.6 689554 7222.2 689434 7229.2 689215 7151.6 689118 7072.8 689098 7078.3 688975 7024 688995 7053.3 688962 7007 688930 6994.5 688803 6955.1 688793 6967.6 688444 6897.4 688319 6870.2 688452 6888.2 688690 7100.1 689423 7122.4 689609 7119.9 689770 7094.3 689800 7232 689948"/>
<polygon class="federal_state" points="9216.8 690887 9275.9 690801 9236 690646 9176.4 690577 8955.7 690495 8883.6 690330 8920.6 690089 8977.2 689948 9186.9 689698 9458.1 689611 9507.9 689640 9485.6 689677 9644.3 689646 10561 689808 10739 689704 10865 689565 10842 689472 10884 689340 10804 689097 10414 688834 10342 688687 10203 688591 10178 688427 10261 688113 10452 687799 10544 687730 10868 687762 11071 687538 11201 687275 11319 687167 11490 687118 11297 687030 11262 686847 11211 686845 11173 686761 11160 686572 11237 686354 11130 686302 11088 686379 10978 686438 10970 686475 11006 686491 11120 686432 11080 686595 11016 686532 10867 686550 10789 686505 10718 686599 10785 686681 10960 686753 10980 686815 11063 686823 11041 686848 11087 686880 11086 686938 10850 686970 10481 686813 10488 686856 10692 686914 10909 687058 10942 687192 10715 687174 10633 687119 10667 687080 10549 687012 10571 686985 10496 686974 10423 687133 10277 687216 10216 687203 10093 687061 9795.3 687107 9792.5 687067 9756.1 687081 9614.2 686952 9520.5 686937 9461.3 687007 9436.9 686960 9473.4 686946 9467 686905 9520.7 686928 9540.4 686851 9248.1 686644 9195.3 686569 9186.9 686445 9085.2 686282 9024.7 686229 9062.2 686347 9032.7 686374 8939.5 686329 8926 686276 8810.5 686258 8856.8 686111 8821.2 686079 8862.3 686015 8926 686091 8860.3 686117 8862.7 686179 8898.5 686201 8984 686086 9090.1 686214 9144.5 686212 9240.8 686103 9280.7 685918 9088.9 685723 9022 685811 8621.8 685899 8532.7 686015 8409 686047 8440.7 686094 8613 685983 8650.2 686122 8623.1 686218 8691.1 686259 8696.6 686352 8536.3 686210 8606.8 686122 8389.2 686136 8274.5 686072 7978.3 686237 7926.9 686283 7933 686351 7904.7 686310 7920 686264 7815.3 686247 7787.4 686398 7840.5 686467 7774.1 686543 7689 686439 7587.4 686456 7418.7 686376 7419.8 686534 7515.9 686625 7680.2 686535 7711.9 686588 7612.6 686685 7434.5 686738 7385.9 686843 7250.8 686924 7252.4 687054 7327 687364 7781 687421 7930.5 687334 8038.4 687361 8033.4 687441 8198.3 687509 8034.8 687565 7985.3 687712 8037.8 687806 7918 687850 7860.9 688026 7520.1 687921 7465.7 687942 7460.9 688010 7539 688085 7582.6 688284 7737.2 688305 7734.6 688249 7781.9 688219 7815.5 688362 8024 688390 8030.3 688446 7979.7 688454 8126.7 688494 8218.8 688582 8150.6 688569 8138.2 688655 8027.2 688619 7954.7 688652 7962 688850 7990.6 688863 7967.8 688930 7778.6 688844 7576.1 688899 7555.7 688828 7505 688845 7485.7 688925 7535.1 688982 7506.5 689195 7440.5 689271 7376.1 689248 7400.2 689320 7601.7 689308 7999 689413 8121.6 689391 8379.7 689235 8336.2 689057 8452.9 688973 8484.9 688992 8458.9 689035 8494.1 689079 8432.1 689124 8458.5 689255 8394.7 689399 8751.6 689724 8849 689707 8863.9 689677 8804.4 689595 8765.1 689396 8657.8 689363 8773.5 689329 8761.9 689375 8818 689447 8910.8 689483 8927.8 689347 9022.8 689271 9156.7 689048 9112.7 688908 9155.3 688761 9343.9 688690 9404.7 688537 9586 688652 9762.9 688631 9720.5 688760 9808.6 689019 9759.8 689116 9791.1 689167 9718.2 689382 9616.5 689429 9361.7 689405 9221.3 689594 9026.3 689640 8945.5 689731 8942.4 689892 8852.1 690100 8773.5 690083 8715.2 689940 8583.7 689863 8629.2 689740 8266.5 689529 8041.2 689464 8121.5 689805 8281.7 690080 8322 690232 8282.4 690442 8157.3 690412 7924.3 690198 7952.8 690006 8001 689917 7944.4 689867 7942.3 689777 7856.4 689763 7733.3 689604 7658.3 689581 7659.1 689531 7599 689471 7509.4 689458 7501.1 689522 7542.8 689610 7742.1 689724 7896.3 689947 7930.1 690071 7871.3 690360 8064.5 690590 8298.5 690739"/>
</g>
</g>
</g>
</svg>
