<?xml version="1.0" encoding="utf-8"?>
<!-- Generator: Adobe Illustrator 26.0.3, SVG Export Plug-In . SVG Version: 6.00 Build 0)  -->
<svg version="1.1" xmlns="http://www.w3.org/2000/svg" xmlns:xlink="http://www.w3.org/1999/xlink" x="0px" y="0px"
	 viewBox="0 0 200 200" enable-background="new 0 0 200 200" xml:space="preserve">
<g id="Isolation_Mode">
	<g>
		<path fill="#1E8346" d="M158.084,134.294c-0.29-0.008-0.671,0.027-0.925-0.135c-0.115-0.074-0.197-0.197-0.316-0.268
			c-0.134-0.08-0.319-0.105-0.472-0.101c-0.286,0.007-0.323,0.168-0.452,0.374c-0.078,0.124-0.241,0.277-0.531,0.259
			c-0.061-0.077-0.047-0.325-0.061-0.433c-0.023-0.166-0.052-0.327-0.042-0.496c0.02-0.351,0.242-0.526,0.586-0.528
			c0.151-0.001,0.297-0.021,0.408,0.1c0.092,0.101,0.111,0.187,0.251,0.248c0.101,0.044,0.198,0.089,0.302,0.131
			c0.067,0.027,0.141,0.04,0.201,0.08c0.076,0.05,0.112,0.14,0.199,0.178c0.163,0.072,0.282-0.123,0.448-0.132
			C157.991,133.552,158.151,134.051,158.084,134.294z M157.962,128.019c-0.164,0.092-0.455,0.126-0.579,0.277
			c-0.102,0.123-0.079,0.366-0.114,0.511c-0.077,0.319-0.274,0.515-0.568,0.653c-0.244,0.114-0.53,0.068-0.76,0.182
			c-0.143,0.07-0.367,0.304-0.414,0.45c-0.122,0.383,0.341,1.301-0.465,1.023c-0.17-0.058-0.267-0.147-0.396-0.268
			c-0.241-0.227-0.496-0.336-0.816-0.41c-0.378-0.088-0.839-0.242-0.851-0.719c-0.007-0.26,0.196-0.451,0.116-0.704
			c-0.065-0.202-0.196-0.327,0.076-0.433c0.143-0.056,0.335,0.013,0.483-0.017c0.105-0.021,0.194-0.094,0.367-0.174
			c-0.073-0.19-0.1-0.616,0.011-0.8c0.114-0.188,0.386-0.222,0.583-0.243c0.2-0.022,0.232-0.042,0.382-0.155
			c0.295-0.223,0.645-0.377,0.977-0.54c0.169-0.082,0.379-0.147,0.531-0.263c0.269-0.204,0.355-0.342,0.729-0.358
			c0.356-0.015,0.564,0.146,0.875,0.306c0.277,0.143,0.347,0.209,0.424,0.518C158.664,127.299,158.376,127.786,157.962,128.019z
			 M189.421,109.48c0.067-0.154,0.103-0.227,0.137-0.399c0.069-0.351,0.348-0.306,0.812-0.201c0.224,0,0.591,0.073,0.802-0.001
			c0.105-0.037,0.16-0.163,0.265-0.194c0.166-0.049,0.415,0.005,0.582,0.021c0.22,0.021,0.465,0.067,0.677,0.073
			c0.355,0.009,0.478-0.442,0.712-0.654c0.107,0.103,0.143,0.291,0.188,0.428c0.022,0.065,0.053,0.229,0.107,0.266
			c0.208,0.147,0.432-0.063,0.571-0.169c0.089,0.123,0.214,0.207,0.302,0.327c0.079,0.108,0.084,0.263,0.166,0.365
			c0.082,0.102,0.245,0.185,0.352,0.272c0.146,0.119,0.341,0.064,0.437,0.216c0.088,0.139,0.05,0.282,0.161,0.427
			c0.292,0.383,0.297,0.831,0.397,1.291c0.049,0.224,0.118,0.313,0.236,0.5c0.247,0.393-0.02,0.737-0.175,1.123
			c-0.411,0.011-0.941-0.162-1.311-0.344c-0.266-0.131-0.528-0.291-0.787-0.436c-0.237-0.133-0.602-0.268-0.802-0.438
			c-0.344-0.291-0.443-0.594-0.925-0.722c-0.514-0.136-1.052-0.089-1.578-0.089c-0.283,0-0.599,0.041-0.877,0
			c-0.092-0.013-0.139,0.037-0.2-0.046c-0.057-0.078,0.036-0.274,0.066-0.357c0.074-0.205,0.198-0.427,0.05-0.635
			c-0.088-0.122-0.349-0.141-0.419-0.255C189.313,109.762,189.392,109.546,189.421,109.48z M182.994,113.739
			c0.374,0.292,0.804,0.872,1.346,0.595c0.124,0.202,0.075,0.596,0.075,0.839c-0.001,0.399,0.019,0.803-0.004,1.201
			c-0.377,0.028-0.62,0.398-0.823,0.674c-0.365,0.498-0.576,1.093-1.035,1.532c-0.406,0.389-0.672,0.971-0.716,1.536
			c-0.02,0.256,0.057,0.542-0.023,0.788c-0.125,0.381-0.539,0.495-0.858,0.661c-0.25,0.131-0.264,0.257-0.437,0.468
			c-0.246,0.3-0.562,0.081-0.851,0.285c-0.303,0.215-0.395,1.076-0.866,0.936c-0.217-0.065-0.471-0.443-0.582-0.62
			c-0.197-0.316-0.287-0.7-0.609-0.91c-0.397-0.259-1.137-0.186-1.584-0.219c-0.446-0.033-0.837-0.021-1.206-0.28
			c-0.323-0.227-0.421-0.556-0.619-0.88c-0.242-0.394-0.352-0.669-0.174-1.126c0.068-0.175,0.228-0.362,0.259-0.543
			c0.058-0.344-0.271-0.559-0.56-0.648c-0.429-0.132-0.839-0.06-1.225,0.152c-0.272,0.15-0.857,0.467-0.958,0.771
			c-0.068,0.207,0.086,0.655-0.101,0.829c-0.197,0.182-0.685-0.098-0.776-0.27c-0.177-0.333,0.184-0.733-0.156-1.018
			c-0.261-0.219-0.697-0.073-1.026-0.204c-0.839-0.333-0.905-1.233-0.077-1.648c0.548-0.274,1.183-0.145,1.668-0.613
			c0.227-0.219,0.373-0.485,0.626-0.685c0.274-0.215,0.513-0.42,0.737-0.69c0.714-0.859,1.754-1.581,2.712-2.144
			c0.256-0.15,0.514-0.23,0.781-0.348c0.281-0.124,0.469-0.329,0.719-0.5c0.283-0.193,0.521-0.332,0.863-0.288
			c0.266,0.034,0.522,0.166,0.758-0.014c0.134-0.103,0.128-0.243,0.312-0.3c0.152-0.048,0.323,0.007,0.479,0.009
			c0.486,0.005,0.709-0.297,1.111-0.486c0.238-0.112,0.741-0.267,0.791,0.085c0.078,0.551-1.025,0.445-1.335,0.605
			c-0.363,0.188-0.611,0.868-0.162,1.062c0.442,0.192,1.065-0.336,1.36-0.595c0.181,0.683-0.424,0.719-0.95,1.235
			c-0.032,0.702,0.429,1.294,1.122,1.368c0.349,0.038,0.751,0.117,1.101,0.077c0.222-0.026,0.519-0.115,0.672-0.289
			C182.879,114.008,182.866,113.836,182.994,113.739z M5.102,54.711c0.061-0.536,0.208-1.084,0.116-1.606
			c-0.05-0.282-0.016-0.46,0.125-0.705c0.119-0.206,0.185-0.481,0.325-0.664c0.206-0.268,0.659-0.278,0.868-0.497
			c0.276-0.288,0.003-0.472-0.154-0.658c-0.174-0.207-0.228-0.686,0.033-0.849c0.288-0.179,0.963-0.038,1.277-0.021
			c0.352,0.019,0.748,0.1,1.034-0.145c0.126-0.108,0.178-0.243,0.256-0.38c0.162-0.282,0.163-0.246,0.446-0.225
			c0.344,0.026,0.411-0.048,0.294-0.402c-0.077-0.232-0.397-0.371-0.36-0.603c0.056-0.357,0.362-0.185,0.573-0.207
			c0.299-0.032,0.274-0.226,0.366-0.452c0.119-0.291,0.152-0.124,0.46-0.142c0.188-0.011,0.386-0.108,0.521-0.226
			c0.068-0.06,0.081-0.18,0.183-0.214c0.374-0.122,0.756,0.732,1.111,0.802c0.474,0.093,0.874-0.171,1.331-0.155
			c0.371,0.012,0.718-0.111,1.084-0.133c0.185-0.011,0.268-0.001,0.434-0.084c0.406-0.204,0.738-0.566,1.127-0.805
			c0.247-0.152,0.575-0.332,0.884-0.202c0.173,0.073,0.242,0.235,0.406,0.344c0.234,0.156,0.44,0.192,0.551-0.09
			c0.114-0.289-0.02-0.391,0.301-0.554c0.198-0.101,0.295-0.139,0.505-0.038c0.186,0.089,0.44,0.258,0.599,0.391
			c0.149,0.125,0.185,0.353,0.375,0.427c0.224-0.801,0.155-1.795-0.096-2.586c-0.346-0.028-0.75,0.371-1.099,0.185
			c-0.173-0.092-0.27-0.398-0.276-0.568c-0.012-0.358,0.005-0.986,0.362-1.158c0.485-0.235,0.933-0.124,1.258-0.605
			c0.327-0.485,0.931-0.73,1.417-1.05c0.225-0.148,0.395-0.265,0.49-0.528c0.076-0.21,0.053-0.609,0.232-0.773
			c0.277-0.256,0.794,0.048,1.129-0.122c0.32-0.163,0.505-0.502,0.729-0.754c0.288-0.324,0.458-0.206,0.842-0.108
			c0.062,0.394-0.125,0.763-0.083,1.154c0.132,0.002,0.432-0.032,0.533-0.128c0.12-0.113,0.065-0.325,0.153-0.45
			c0.195-0.274,0.707-0.355,1.003-0.429c0.271-0.069,0.523-0.191,0.771-0.099c0.402,0.149,0.746,0.665,1,0.98
			c0.124,0.154,0.393,0.362,0.601,0.23c0.156-0.098,0.101-0.355,0.205-0.484c0.393-0.491,2.121,0.081,2.12,0.742
			c0.305,0.027,0.438,0.129,0.592,0.372c0.214,0.339,0.473,0.568,0.775,0.839c0.433,0.39,0.918,0.719,1.445,0.969
			c0.751,0.357,1.596,0.196,2.401,0.168c1.022-0.035,2.039-0.1,3.062-0.059c0.866,0.034,1.728,0.006,2.59,0.11
			c0.582,0.069,1.198,0.092,1.785,0.078c0.684-0.017,1.39-0.005,2.072-0.057c0.304-0.023,0.676-0.055,0.96-0.166
			c0.243-0.095,0.3-0.227,0.473-0.387c0.431-0.397,1.007,0.206,1.393,0.405c0.347,0.179,0.879,0.232,1.235,0.071
			c0.181-0.082,0.312-0.193,0.523-0.225c0.279-0.042,0.573,0.011,0.851-0.045c0.495-0.099,0.534-0.63,0.932-0.899
			c0.148-0.1,0.313-0.072,0.471-0.142c0.104-0.046,0.157-0.125,0.249-0.195c0.164-0.125,0.107-0.115,0.294-0.076
			c0.162,0.034,0.362,0.129,0.53,0.179c0.558,0.167,0.549,0.973,1.098,1.2c0.333,0.138,0.668,0.127,0.996,0.303
			c0.326,0.175,0.581,0.189,0.952,0.219c0.626,0.05,1.194-0.11,1.827-0.11c0.563-0.013,0.87,0.254,1.391,0.353
			c0.6,0.115,1.132,0.215,1.584,0.649c0.278,0.267,0.551,0.354,0.938,0.39c0.254,0.023,0.505,0.015,0.752,0.075
			c0.319,0.078,0.588,0.189,0.92,0.215c1.013,0.081,2.004,0.192,2.979,0.435c0.759,0.189,1.505,0.523,2.283,0.632
			c0.433,0.06,0.819,0.183,1.246,0.263c0.891,0.166,1.92,0.028,2.817-0.016c0.896-0.044,1.77-0.062,2.663-0.14
			c0.413-0.036,0.816-0.072,1.194-0.251c0.25-0.118,0.466-0.351,0.747-0.358c0.312-0.008,0.398,0.092,0.676-0.03
			c0.308-0.135,0.579-0.312,0.846-0.515c0.464-0.352,0.966-0.058,1.485-0.282c0.18-0.078,0.919-0.573,0.809,0.025
			c-0.039,0.213-0.074,0.413-0.038,0.628c0.281-0.042,0.392-0.204,0.619-0.332c0.456-0.257,1.007-0.275,1.478-0.495
			c0.262-0.122,0.506-0.29,0.762-0.426c0.32-0.171,0.378-0.084,0.675,0.127c0.17,0.12,0.382,0.138,0.561,0.248
			c0.117,0.071,0.144,0.143,0.236,0.236c0.162,0.163,0.356,0.279,0.571,0.359c0.221,0.081,0.306,0.03,0.324,0.253
			c0.013,0.162-0.096,0.279-0.162,0.408c0.296,0.275,0.837,0.249,1.215,0.26c0.505,0.015,1.264-0.065,1.738,0.182
			c0.227,0.118,0.201,0.293,0.342,0.478c0.143,0.188,0.268,0.144,0.481,0.226c0.148,0.057,0.216,0.15,0.38,0.166
			c0.289,0.027,0.698-0.044,0.977-0.114c0.316-0.079,0.721-0.241,0.973-0.451c0.253-0.21,0.66-0.421,0.832-0.707
			c0.221-0.371,0.234-0.545,0.751-0.465c0.342,0.053,0.582,0.251,0.947,0.221c0.32-0.027,0.623-0.197,0.955-0.125
			c0.301,0.066,0.477,0.343,0.644,0.579c0.2,0.281,0.324,0.296,0.592,0.126c0.192-0.122,0.211-0.199,0.44-0.054
			c0.221,0.14,0.235,0.282,0.538,0.299c0.185,0.01,0.296-0.003,0.456,0.078c0.135,0.068,0.201,0.149,0.351,0.185
			c0.399,0.096,0.566,0.179,0.878,0.47c0.203,0.189,0.373,0.287,0.639,0.374c0.521,0.17,0.937,0.617,1.464,0.749
			c0.274,0.069,1.232-0.021,1.474-0.181c0.153-0.101,0.24-0.031,0.375,0.041c0.035,0.018,0.024,0.121,0.084,0.162
			c0.164,0.113,0.428,0.055,0.602,0.009c0.521-0.138,1.023-0.324,1.553-0.445c0.352-0.081,0.73-0.106,1.091-0.129
			c0.237-0.015,0.576,0.035,0.748-0.146c0.071-0.075,0.048-0.225,0.112-0.312c0.089-0.121,0.285-0.205,0.409-0.281
			c0.38-0.233,0.838-0.347,1.287-0.316c0.042,0.344,0.124,0.506,0.388,0.722c0.127,0.104,0.251,0.089,0.29,0.277
			c0.041,0.198-0.099,0.384-0.021,0.608c0.287,0.051,0.52-0.215,0.805-0.243c0.3-0.029,0.62-0.053,0.727,0.234
			c0.093,0.25-0.005,0.559,0.179,0.766c0.118,0.133,0.497,0.249,0.634,0.086c0.159-0.189-0.047-0.462,0.266-0.622
			c0.209-0.107,0.669-0.048,0.889-0.006c0.254,0.048,0.387,0.226,0.622,0.328c0.211,0.092,0.61,0.026,0.768,0.151
			c0.337,0.266,0.221,1.274,0.032,1.571c-0.133,0.209-0.283,0.3-0.342,0.55c-0.06,0.255-0.011,0.531-0.151,0.763
			c-0.271,0.451-0.808,0.519-0.319,1.039c0.222,0.236,0.987,0.623,1.315,0.445c0.292-0.159,0.111-0.678,0.185-0.942
			c0.044-0.159,0.197-0.451,0.339-0.556c0.219-0.161,0.495-0.036,0.723-0.182c-0.05,0.366-0.663,0.626-0.543,0.995
			c0.05,0.152,0.465,0.468,0.606,0.456c0.105-0.009,0.143-0.126,0.241-0.154c0.15-0.044,0.339,0.027,0.474,0.077
			c0.428,0.16,0.717,0.547,1.107,0.778c0.004-0.05,0.045-0.098,0.045-0.155c0.463-0.022,0.409,0.209,0.731,0.412
			c0.267,0.169,0.678,0.067,0.97,0.158c0.174,0.054,0.289,0.18,0.418,0.293c0.121,0.107,0.282,0.336,0.408,0.406
			c0.39,0.218,0.789-0.241,1.17-0.12c0.245,0.078,0.468,0.172,0.73,0.17c0.257-0.002,0.366-0.079,0.588-0.172
			c0.406-0.17,0.502,0.266,0.614,0.589c0.092,0.264-0.051,0.692,0.143,0.866c0.195,0.175,0.417,0.041,0.621,0.109
			c0.182,0.061,0.298,0.283,0.444,0.4c0.176,0.141,0.328,0.205,0.427,0.422c0.073,0.16,0.041,0.345,0.123,0.498
			c0.074,0.139,0.249,0.161,0.322,0.281c0.051,0.084,0.003,0.25,0.042,0.353c0.244-0.035,0.58-0.079,0.703-0.326
			c0.065-0.13,0.018-0.315,0.074-0.442c0.175-0.4,0.967,0.19,1.287,0.228c0.559,0.067,0.995-0.011,1.348-0.428
			c0.102-0.121,0.277-0.323,0.438-0.346c0.178-0.025,0.332,0.11,0.504,0.109c0.246,0.17,0.319,0.418,0.517,0.622
			c0.271,0.279,0.638,0.27,0.978,0.449c0.96,0.505,1.191,2.277,2.457,1.354c-0.023,0.174,0.096,0.288,0.114,0.42
			c0.26-0.015,0.318-0.221,0.542-0.283c0.298-0.082,0.577,0.005,0.893-0.114c0.298-0.112,0.492-0.436,0.846-0.461
			c0.401-0.03,0.807,0.276,1.181,0.388c-0.022,0.16,0.096,0.304,0.094,0.457c0.654,0.069,0.555-0.293,1.075-0.477
			c0.564-0.2,0.488,0.217,0.952,0.442c0.75,0.364,1.796-0.191,2.522-0.164c0.346,0.013,0.978,0.616,1.222,0.185
			c0.307-0.541-0.504-0.968-0.157-1.542c-0.442-0.173-0.128-0.411-0.1-0.698c0.037-0.39-0.199-1.092,0.556-1.049
			c0.189,0.011,0.337,0.251,0.506,0.343c0.294,0.16,0.821,0.318,1.152,0.395c0.736,0.171,0.852,0.173,1.325,0.78
			c0.261-0.148,0.496-0.334,0.773-0.446c0.094,0.148,0.188,0.311,0.27,0.469c0.42-0.116,1.275-0.199,1.621,0.123
			c0.255,0.239,0.254,0.692,0.444,0.987c0.385,0.595,0.477,0.193,1.007-0.004c0.445-0.165,0.902,0.008,1.361,0.03
			c0.647,0.031,0.783,0.217,1.182,0.72c0.265,0.333,0.416,0.803,0.574,1.193c0.149,0.369,0.177,0.705,0.215,1.1
			c0.049,0.506-0.188,0.681-0.233,1.132c-0.032,0.326,0.165,0.462,0.321,0.744c0.148,0.268-0.025,0.315,0.264,0.512
			c0.168,0.115,0.459,0.135,0.657,0.119c0.361-0.029,0.326-0.204,0.53-0.264c0.151-0.044,0.367,0.003,0.51-0.057
			c0.074-0.031,0.05-0.229,0.09-0.242c0.164-0.054,0.385-0.002,0.556-0.056c0.258-0.081,0.457-0.03,0.407-0.411
			c0.329,0.057,0.424-0.097,0.653-0.263c0.05-0.036,0.451-0.445,0.48-0.444c0.396,0.004,0.184,0.54,0.436,0.756
			c0.246,0.212,0.688,0.055,0.998,0.165c0.255,0.091,0.442,0.347,0.692,0.452c0.47,0.197,0.723,0.054,0.855,0.582
			c0.08,0.317-0.026,0.501,0.152,0.811c0.358,0.623,1.049,0.721,1.624,0.361c0.355-0.222,0.632-0.653,0.792-1.034
			c0.419-0.067,0.887,0.155,1.266-0.011c0.364-0.16,0.609-0.388,1.025-0.273c0.384,0.107,0.717,0.364,1.076,0.524
			c0.195,0.087,0.745,0.109,0.884,0.247c0.212,0.211,0.138,0.596,0.408,0.826c0.257,0.22,0.547,0.287,0.88,0.182
			c0.412-0.129,0.589-0.338,1.088-0.252c0.304,0.052,0.61,0.175,0.911,0.251c-0.107-0.34-0.43-0.655-0.223-0.991
			c0.163-0.264,0.619-0.547,0.938-0.578c0.321-0.032,0.618,0.277,0.932,0.115c0.342-0.177,0.324-0.724,0.714-0.875
			c0.393-0.151,0.797,0.21,1.165,0.242c0.453,0.04,0.251-0.306,0.578-0.456c0.262-0.121,1.002,0.056,1.18,0.236
			c0.226,0.228,0.209,0.568,0.622,0.608c0.115-0.265,0.453-0.305,0.712-0.311c0.431-0.01,0.724,0.029,0.581,0.502
			c-0.095,0.313-0.39,0.52-0.318,0.881c0.064,0.319,0.279,0.28,0.562,0.37c0.397,0.125,0.781,0.266,1.189,0.358
			c0.239,0.054,0.414,0.053,0.465,0.302c0.081,0.393-0.415,0.468-0.493,0.81c-0.095,0.413,0.058,0.621-0.483,0.751
			c-0.131,0.032-0.318,0.034-0.454,0.025c-0.296-0.02-0.282-0.117-0.473-0.306c-0.15-0.148-0.158-0.16-0.35-0.044
			c-0.21,0.127-0.369,0.358-0.479,0.567c-0.222,0.423-0.3,0.922-0.076,1.372c0.138,0.277,0.43,0.405,0.642,0.625
			c0.161,0.167,0.278,0.413,0.362,0.62c0.1,0.248,0.231,0.285,0.202,0.534c-0.021,0.179-0.103,0.328-0.101,0.515
			c0.004,0.403,0.246,0.718,0.333,1.091c0.089,0.38,0.049,0.78-0.082,1.153c-0.154,0.441-0.434,0.844-0.783,1.129
			c-0.287,0.234-0.638,0.242-0.952,0.413c-0.287,0.157-0.285,0.347-0.346,0.669c-0.065,0.344-0.101,0.335-0.476,0.395
			c-0.284,0.045-0.461,0.1-0.687,0.297c-0.268,0.234-0.461,0.535-0.701,0.781c-0.086,0.089-0.155,0.177-0.29,0.213
			c-0.271,0.073-0.575-0.015-0.858,0.064c-0.388,0.108-0.587,0.266-0.832,0.563c-0.259,0.314-0.592,0.429-0.896,0.68
			c-0.386,0.318-0.717,0.552-1.206,0.682c-0.299,0.079-0.561,0.073-0.845,0.218c-0.214,0.109-0.581,0.32-0.734,0.476
			c-0.178,0.182-0.442,0.255-0.659,0.379c-0.232,0.134-0.452,0.293-0.681,0.433c-0.348,0.212-0.616,0.541-0.952,0.785
			c-0.519,0.376-1.504,0.279-1.759,0.922c-0.197,0.497-0.48,0.947-0.855,1.338c-0.22,0.229-0.427,0.457-0.601,0.722
			c-0.12,0.182-0.24,0.4-0.415,0.526c-0.444,0.319-0.95,0.553-1.502,0.521c-0.969-0.055-1.92,0.583-2.828,0.816
			c-0.504,0.13-0.968,0.329-1.496,0.387c-0.466,0.051-0.915,0.138-1.376,0.208c-0.502,0.076-1.001,0.076-1.496,0.201
			c-0.334,0.084-0.448,0.285-0.678,0.506c-0.465,0.446-0.907,0.368-1.498,0.415c-0.286,0.022-0.632,0.019-0.907,0.088
			c-0.296,0.074-0.589,0.305-0.831,0.486c-0.21,0.157-0.331,0.462-0.597,0.55c-0.136,0.045-0.219-0.019-0.319-0.034
			c-0.517-0.078-1.084,0.122-1.585,0.239c-0.496,0.115-0.881,0.318-1.172,0.732c-0.249,0.353-0.535,0.676-0.773,1.031
			c-0.13,0.194-0.409,0.428-0.454,0.659c-0.523,0.368-0.83,1.188-1.198,1.724c-0.277,0.403-0.735,0.843-0.541,1.376
			c0.355-0.043,0.505-0.254,0.78-0.435c0.196,0.508,1.173,0.965,1.013,1.471c-0.219,0.694-1.438,0.945-2.032,1.18
			c-0.779,0.308-1.576,0.506-2.219,1.077c-0.568,0.504-0.681,1.29-1.146,1.884c-0.256,0.326-0.523,0.545-0.671,0.944
			c-0.166,0.449-0.241,0.839-0.465,1.268c-0.322,0.617-0.797,1.12-1.14,1.717c-0.368,0.64-0.5,1.02-1.132,1.464
			c-0.409,0.288-0.875,0.567-1.149,1.014c-0.258,0.421-0.219,0.921-0.431,1.346c-0.242,0.486-0.604,0.56-1.116,0.56
			c-0.121,1.112-0.628,1.974-1.321,2.803c-0.256,0.307-0.614,0.49-0.889,0.776c-0.316,0.328-0.433,0.782-0.701,1.151
			c-0.253,0.349-0.531,0.679-0.716,1.073c-0.174,0.369-0.187,0.761-0.322,1.129c-0.086,0.232-0.281,0.415-0.371,0.646
			c-0.117,0.296-0.033,0.627-0.2,0.903c-0.298,0.492-0.641,0.6-0.7,1.243c-0.054,0.574,0.005,1.213,0.038,1.789
			c0.061,1.051,0.626,2.066,1.038,3.019c0.302,0.7,0.23,1.612,0.473,2.366c0.258,0.803,0.647,1.394,1.054,2.129
			c0.239,0.431,0.481,0.787,0.777,1.179c0.322,0.428,0.483,0.545,0.961,0.814c0.521,0.294,0.685,0.473,1.27,0.569
			c0.285,0.047,1.427,0.231,1.35,0.64c-0.027,0.14-0.418,0.242-0.4,0.449c0.017,0.198,0.398,0.331,0.536,0.377
			c0.537,0.178,0.809,0.042,0.968,0.652c-0.289,0.171-0.675,0.162-0.977,0.327c-0.126,0.068-0.224,0.177-0.341,0.252
			c-0.176,0.113-0.305,0.171-0.504,0.281c-0.448,0.247-0.792,0.757-1.257,1.052c-0.344,0.218-0.911,0.265-1.183,0.519
			c-0.275,0.257-0.094,0.659-0.355,0.94c-0.281,0.303-0.917,0.181-1.287,0.335c-0.328,0.138-0.64,0.346-0.975,0.482
			c-0.712,0.29-1.243,0.857-1.968,1.107c-0.716,0.246-0.434,0.824-0.917,1.276c-0.21,0.196-0.612,0.222-0.775,0.459
			c-0.2,0.29-0.076,0.963-0.076,1.301c0,0.324,0.103,1.117-0.18,1.382c-0.344,0.322-1.19-0.265-1.544,0.009
			c-0.269,0.208-0.141,0.63-0.178,0.936c-0.044,0.367-0.146,0.736-0.187,1.109c-0.028,0.26-0.016,0.543-0.022,0.819
			c-0.004,0.183-0.017,0.363-0.055,0.531c-0.093,0.406-0.123,0.217-0.416,0.489c-0.2,0.187-0.178,0.405-0.316,0.631
			c-0.112,0.182-0.273,0.295-0.392,0.486c-0.279,0.448-0.552,0.999-0.763,1.483c-0.198,0.455-0.297,0.91-0.537,1.338
			c-0.149,0.265-0.516,0.713-0.4,1.062c0.097,0.295,0.599,0.461,0.85,0.618c0.193,0.121,0.282,0.219,0.505,0.271
			c0.268,0.062,0.575-0.062,0.82,0.027c-0.152,0.559-0.267,0.557-0.819,0.64c-0.444,0.067-0.688,0.492-1.123,0.561
			c-0.32,0.051-0.386,0.284-0.581,0.366c-0.257,0.108-0.702,0.078-0.983-0.055c-0.307-0.145-0.211-0.312-0.435-0.479
			c-0.206-0.154-0.394-0.008-0.601,0.011c-0.303,0.028-0.649-0.052-0.934,0.101c-0.261,0.14-0.203,0.345-0.371,0.477
			c-0.367,0.289-0.722-0.234-1.094-0.307c-0.796-0.156-1.675,0.197-2.357,0.554c-0.336,0.175-0.806,0.395-1.076,0.664
			c-0.308,0.306-0.24,0.66-0.443,1.006c-0.192,0.329-0.58,0.244-0.959,0.377c-0.39,0.137-0.752,0.415-1.09,0.646
			c-0.354,0.242-0.671,0.502-0.938,0.843c-0.366,0.467-0.841,0.821-1.234,1.269c-0.581,0.66-0.84,1.463-0.949,2.316
			c-0.042,0.327-0.128,0.663-0.216,0.978c-0.087,0.315-0.224,0.391-0.427,0.673c-0.203,0.281-0.34,0.61-0.318,0.978
			c0.013,0.219,0.227,0.609,0.111,0.777c-0.155,0.225-0.576,0.075-0.79,0.252c-0.172,0.142-0.18,0.416-0.321,0.579
			c-0.165,0.189-0.383,0.192-0.472,0.466c-0.071,0.22,0.023,0.387-0.104,0.622c-0.11,0.203-0.209,0.203-0.354,0.353
			c-0.212,0.218-0.149,0.205-0.234,0.476c-0.12,0.379-0.035,0.205-0.38,0.364c-0.198,0.091-0.272,0.223-0.446,0.35
			c-0.328,0.241-0.937,0.369-1.283,0.069c-0.14-0.121-0.23-0.34-0.334-0.489c-0.202-0.29-0.445-0.512-0.702-0.742
			c-0.375-0.335-0.703-0.662-1.222-0.389c-0.228,0.12-0.317,0.31-0.582,0.352c-0.184,0.029-0.42-0.066-0.577-0.108
			c-0.489-0.13-0.836-0.191-1.309,0.041c-0.735,0.359-0.744,1.217-1.247,1.768c-0.32,0.35-0.69,0.411-1.163,0.389
			c-0.585-0.027-1.535,0.116-2.066-0.136c-0.505-0.241-0.621-0.695-1.241-0.685c-0.503,0.008-1.002-0.03-1.51-0.03
			c-1.162,0-2.645-0.154-3.724,0.318c-0.54,0.236-0.919,0.469-1.537,0.494c-0.341,0.013-0.779,0.048-1.106-0.102
			c-0.281-0.128-0.272-0.196-0.6-0.212c-0.163-0.008-0.323,0.046-0.455-0.055c-0.126-0.096-0.109-0.4-0.248-0.479
			c-0.415-0.239-0.866,0.175-1.216,0.304c-0.25,0.092-0.587,0.137-0.856,0.066c-0.282-0.074-0.299-0.256-0.508-0.367
			c-0.319-0.17-0.747-0.08-1.094-0.045c-0.663,0.065-1.191,0.511-1.879,0.339c-0.266-0.066-0.519-0.303-0.801-0.303
			c-0.325-0.001-0.547,0.288-0.809,0.382c-0.732,0.262-1.965,0.116-2.722,0.124c-0.533,0.005-1.028,0.077-1.562,0.077
			c-0.351,0.275-0.677,0.63-0.884,1.028c-0.187,0.36-0.115,0.688-0.399,0.933c-0.289,0.249-0.709,0.176-0.983,0.361
			c-0.32,0.217-0.387,0.664-0.527,0.984c-0.126,0.286-0.089,0.338-0.41,0.446c-0.297,0.1-0.691,0.163-0.998,0.194
			c-0.987,0.103-2.047-0.495-2.994-0.274c-0.467,0.109-0.791,0.549-1.27,0.708c-0.52,0.173-1.046,0.077-1.485,0.445
			c-0.34,0.286-0.659,0.492-1.01,0.737c-0.431,0.301-0.469,0.641-0.681,1.091c-0.267,0.57-0.74,0.991-1.022,1.56
			c-0.177,0.357-0.26,0.733-0.333,1.125c-0.067,0.359,0.003,0.676-0.414,0.629c-0.326-0.037-0.717-0.602-0.86,0.01
			c-0.059,0.252,0.156,0.468,0.045,0.751c-0.19,0.485-0.615,0.722-1.058,0.911c-0.259,0.111-0.48,0.248-0.732,0.347
			c-0.213,0.084-0.707,0.332-0.904,0.273c-0.203-0.061-0.489-0.448-0.7-0.565c-0.287-0.16-0.601-0.504-0.942-0.48
			c-0.421-0.29-0.779,0.003-1.175-0.217c-0.361-0.201-0.805-0.884-1.055-1.209c-0.428-0.555-0.678-0.383-1.375-0.392
			c-0.513-0.006-0.704,0.012-0.957-0.424c-0.246-0.424-0.447-0.861-0.731-1.263c-0.189-0.267-0.486-0.431-0.636-0.709
			c-0.143-0.265-0.02-0.487-0.105-0.74c-0.155-0.461-0.794-0.618-1.074-1.022c-0.254-0.367-0.791-1.349-0.641-1.807
			c0.16-0.49,1.159-0.411,0.818-1.015c-0.265-0.468-0.906-0.386-1.344-0.482c-0.567-0.125-1.076-0.401-1.307-0.929
			c-0.19-0.436-0.281-0.88-0.281-1.359c0-0.178-0.073-0.614,0.032-0.761c0.093-0.128,0.551-0.206,0.7-0.237
			c-0.673-1.014-0.815-2.246-1.714-3.171c-0.888-0.914-1.908-1.544-3.038-2.102c-0.625-0.308-1.189-0.518-1.834-0.732
			c-0.615-0.204-1.049-0.633-1.581-0.949c-0.445-0.264-1.076-0.25-1.574-0.31c-0.496-0.06-0.992-0.086-1.491-0.085
			c-1.133,0.001-2.136-0.116-3.113,0.503c-0.1-0.172-0.073-0.376-0.117-0.564c-0.049-0.208-0.171-0.334-0.259-0.529
			c-0.14-0.313-0.038-0.705-0.118-1.111c-0.079-0.4,0.046-0.889-0.129-1.266c-0.107-0.229-0.247-0.242-0.266-0.529
			c-0.016-0.243,0.091-0.447,0.077-0.709c-0.037-0.707-0.436-0.818-0.776-1.325c-0.312-0.466-0.131-1.204,0.089-1.704
			c0.228-0.519,0.592-0.905,0.795-1.452c0.252-0.681,0.477-1.157,1.012-1.637c0.52-0.468,0.861-0.877,1.222-1.479
			c0.404-0.674,0.261-1.481,0.49-2.195c0.63-0.011,1.219-0.025,1.847-0.117c-0.022-0.166-0.059-0.394,0.006-0.559
			c0.031-0.08,0.086-0.145,0.179-0.181c0.152-0.059,0.252,0.06,0.362,0.181c0.067,0.073,0.138,0.146,0.226,0.181
			c0.272,0.109,0.602,0.135,0.832-0.095c0.027-0.028,0.049-0.057,0.069-0.087c0.206-0.315,0.015-0.758,0.104-1.105
			c0.046-0.18,0.222-0.345,0.325-0.501c0.123-0.188,0.224-0.39,0.342-0.581c-0.285-0.124-0.436-0.197-0.201-0.489
			c0.145-0.18,0.448-0.454,0.4-0.712c-0.514-0.135-0.816,0.101-1.18,0.411c-0.127,0.108-0.303,0.22-0.467,0.257
			c-0.233,0.052-0.309-0.005-0.514,0.133c-0.325-0.232-0.499-0.693-0.591-1.061c-0.069-0.275-0.231-0.389-0.413-0.599
			c-0.222-0.256-0.387-0.574-0.638-0.803c-0.368-0.337-0.283-0.974-0.587-1.391c-0.15-0.206-0.317-0.487-0.542-0.611
			c-0.268-0.147-0.597-0.089-0.871-0.238c0.044-0.246,0.467-0.426,0.666-0.615c-0.146-0.076-0.368-0.047-0.553-0.047
			c-0.086-0.464,0.4-1.04,0.633-1.413c0.254-0.407,0.463-0.834,0.688-1.257c-0.529,0.036-0.531-1.237-0.402-1.584
			c0.176-0.477,0.91-0.877,1.317-1.156c0.273-0.188,0.506-0.452,0.773-0.629c0.195-0.129,0.391-0.111,0.579-0.225
			c0.648-0.393,0.479-0.801,0.485-1.403c0.005-0.487,0.418-0.976,0.7-1.341c0.22-0.284,0.388-0.628,0.633-0.89
			c-0.134-0.374-0.15-0.883-0.355-1.274c-0.282-0.536-0.937-0.338-1.419-0.271c-0.619,0.087-0.91,0.058-0.894-0.612
			c0.009-0.37,0.106-0.356-0.193-0.568c-0.239-0.17-0.542-0.279-0.795-0.407c-0.422-0.213-0.8-0.555-0.58-1.083
			c0.246-0.591,0.476-0.335-0.276-0.811c-0.237-0.15-0.435-0.37-0.575-0.607c-0.176-0.298-0.31-0.626-0.25-0.985
			c0.057-0.345,0.328-0.602,0.428-0.939c0.258-0.873-0.965-0.502-1.203-1.106c-0.163-0.413,0.157-0.465-0.349-0.675
			c-0.356-0.148-0.51-0.243-0.778-0.53c-0.438-0.467-0.888-1.028-0.954-1.688c0.795-0.038,1.616-0.076,2.374,0.153
			c0.4,0.12,0.535,0.145,0.926-0.043c0.73-0.35,1.531-0.167,2.325-0.124c0.564,0.031,1.139,0.163,1.514-0.289
			c0.423-0.51,0.717-1.382,0.709-2.048c-0.005-0.472-0.146-0.553,0.267-0.874c0.257-0.199,0.635-0.349,0.775-0.649
			c0.116-0.249,0.038-0.628,0.077-0.9c0.038-0.262,0.199-0.433,0.263-0.688c0.064-0.253,0.022-0.543,0.074-0.804
			c0.074-0.362,0.033-0.429-0.143-0.78c-0.163-0.323-0.4-1.073-0.715-1.239c-0.296-0.156-0.727,0.098-0.976-0.159
			c-0.227-0.234-0.231-0.667-0.28-0.958c-0.154-0.902,0.119-0.993,0.899-1.316c-0.024-0.073,0.008-0.157-0.009-0.226
			c0.359-0.089,1.049-0.134,1.328-0.332c-0.161-0.823,0.722-0.666,1.059-1.108c0.159-0.209,0.162-0.39,0.085-0.557h-0.068v-0.118
			c-0.238-0.346-0.762-0.64-0.818-1.017c-0.116-0.787,0.468-0.89,0.78-1.484c0.432-0.821-0.115-0.987-0.783-1.26
			c0.005-0.453,0.536-0.948,0.66-1.413c0.1-0.373,0.078-0.633-0.08-0.983c-0.42-0.927-0.542-1.797-0.498-2.83
			c0.169-0.061,0.352-0.044,0.532-0.042c0.137-0.453-0.376-0.465-0.547-0.742c-0.127-0.205-0.172-0.637-0.183-0.883
			c-0.36-0.387-0.881-0.797-0.925-1.373c-0.039-0.509,0.211-0.363,0.569-0.327c0.396,0.04,0.755-0.175,1.122-0.122
			c0.174-0.359,0.458-0.686,0.608-1.061c0.161-0.406-0.105-0.642,0.251-1.023c0.183-0.196,0.396-0.409,0.547-0.633
			c0.121-0.182,0.412-0.798,0.601-0.927c0.143-0.007,0.248-0.152,0.385-0.2c0.217-0.075,0.463-0.016,0.685-0.017
			c0.361-0.002,0.296-0.132,0.58-0.356c0.249-0.197,0.443-0.13,0.676,0.064c0.106-0.162,0.103-0.432,0.226-0.574
			c0.11-0.128,0.272-0.141,0.387-0.273c0.148-0.171,0.194-0.454,0.354-0.628c0.182-0.199,0.413-0.239,0.523-0.463
			c0.099-0.204,0.063-0.358,0.34-0.365c0.155-0.004,0.27,0.13,0.407,0.067c0.187-0.085,0.137-0.32,0.156-0.473
			c0.033-0.269,0.065-0.284,0.246-0.482c0.191-0.209,0.191-0.451,0.3-0.715c0.2-0.484,0.562-0.849,0.876-1.26
			c0.091-0.119,0.475-0.446,0.502-0.561c0.026-0.11-0.166-0.329-0.225-0.419c-0.293-0.452-0.64-0.781-1.079-1.094
			c-0.579-0.413-1.178-0.639-1.882-0.752c-0.513-0.082-0.523,0.198-0.93,0.425c-0.233,0.129-0.351,0.062-0.53-0.099
			c-0.286-0.258-0.363-0.507-0.442-0.877c-0.062-0.293-0.152-0.589-0.113-0.894c0.036-0.274,0.183-0.537,0.267-0.801
			c0.104-0.327,0.521-0.989,0.305-1.34c-0.19-0.309-0.683-0.042-0.72-0.424c-0.009-0.095,0.012-0.189,0.043-0.284
			c0.094-0.286,0.283-0.569,0.019-0.835c-0.342-0.344-0.54,0.012-0.848,0.134c-0.339,0.134-0.732,0.092-1.089,0.157
			c-0.483,0.088-0.579,0.126-0.726-0.263c-0.086-0.229-0.325-0.721-0.65-0.59c-0.282,0.113-0.248,0.562-0.26,0.789
			c-0.428-0.018-0.801,0.102-1.227,0.052c-0.384-0.045-0.63-0.391-1.057-0.422c-0.276,0.413-1.037,0.225-1.367,0.026
			c-0.418-0.252-1.11-0.823-1.324-0.042c-0.078,0.286-0.035,0.616-0.115,0.914c-0.008,0.028-0.015,0.055-0.023,0.081
			c-0.129,0.414-0.336,0.598-0.766,0.742c-0.305,0.102-0.527,0.198-0.798,0.369c-0.217,0.137-0.429,0.253-0.681,0.301
			c-0.116,0.023-0.385-0.013-0.49,0.042c-0.047,0.025-0.039,0.085-0.077,0.11c-0.142,0.093-0.34,0.461-0.559,0.343
			c-0.048-0.026-0.169-0.295-0.22-0.359c-0.112-0.142-0.233-0.288-0.352-0.421c-0.145-0.162-0.374-0.326-0.61-0.17
			c-0.232,0.154-0.225,0.519-0.558,0.597c-0.305,0.071-0.714-0.022-1.011-0.06c0.091-0.214,0.45-0.605,0.4-0.843
			c-0.328-0.006-0.722,0.045-1.024-0.08c-0.25-0.103-0.411-0.55-0.668-0.463c-0.217,0.074-0.419,0.167-0.648,0.226
			c-0.308,0.079-0.729,0.086-1.021,0.235c-0.198,0.101-0.191,0.136-0.323,0.316c-0.064,0.088-0.076,0.181-0.201,0.204
			c-0.408,0.077-0.385-0.677-0.403-1.09h-0.318c-0.073,0.188-0.089,0.437-0.247,0.55c-0.15,0.107-0.243,0.042-0.408,0.055
			c-0.427,0.033-0.384,0.319-0.546,0.681c-0.158,0.354-0.334,0.524-0.708,0.597c-0.387,0.076-0.81,0.033-1.203,0.032
			c-0.416-0.002-0.421,0.016-0.419-0.397c0.002-0.43,0.132-0.747-0.343-0.788c-0.367-0.032-0.466-0.174-0.409-0.587
			c0.006-0.046,0.018-0.094,0.032-0.142c0.179-0.612,0.949-1.354,1.434-1.646c0.329-0.198,0.431-0.239,0.395-0.636
			c-0.02-0.227-0.096-0.529-0.271-0.696c-0.308-0.293-0.71,0.081-1.017-0.185c-0.298-0.259-0.215-0.981-0.333-1.336
			c-0.168,0.092-0.338,0.165-0.518,0.251c-0.212,0.102-0.358,0.326-0.563,0.447c-0.15,0.089-0.31,0.118-0.447,0.243
			c-0.148,0.135-0.144,0.21-0.34,0.262c-0.225,0.06-0.519-0.01-0.753,0.019c-0.515,0.063-0.981,0.11-1.505,0.111
			c-0.411,0.001-0.357,0.048-0.615,0.305c-0.168,0.167-0.192,0.199-0.459,0.225c-0.278,0.027-0.565,0.02-0.81,0.181
			c-0.109,0.071-0.173,0.186-0.267,0.274c-0.162,0.151-0.373,0.225-0.53,0.377c-0.344,0.337-0.413,0.854-0.708,1.206
			c-0.221,0.263-0.532,0.42-0.821,0.597c-0.048,0.03-0.096,0.06-0.143,0.091c-0.38,0.256-0.534,0.681-0.88,0.954
			c-0.251-0.166-0.295-0.634-0.349-0.91c-0.009-0.045-0.015-0.09-0.022-0.135c-0.088-0.564-0.045-1.118-0.042-1.687
			c0.004-0.742-0.098-1.605,0.106-2.325c0.408,0.011,0.541-0.281,0.648-0.592c0.123-0.36,0.396-0.62,0.69-0.881
			c0.222-0.198,0.425-0.43,0.651-0.618c0.249-0.206,0.949-0.299,0.834-0.745c-0.223,0.143-0.581,0.098-0.84,0.17
			c-0.359,0.101-0.68,0.15-1.056,0.136c-0.303-0.011-0.462-0.053-0.528-0.367c-0.047-0.222-0.004-0.478,0.159-0.642
			c0.097,0.064,0.197,0.129,0.292,0.181c0.113-0.234-0.054-0.556,0.205-0.723c0.257-0.166,0.593,0.031,0.863-0.171
			c0.357-0.268,0.235-0.828,0.66-1.124c0.344-0.24,0.754-0.363,0.413-0.842c-0.468,0.291-0.806,0.787-1.303,1.046
			c-0.312,0.162-1.077,0.168-1.331-0.078c-0.277-0.268,0.039-0.742-0.364-0.936c-0.358-0.173-0.754,0.034-0.656-0.525
			c0.58,0.108,0.651-0.185,1.106-0.414c-0.003,0.199-0.139,0.645,0.091,0.778c0.106,0.062,0.319-0.035,0.444-0.052
			c-0.053-0.313-0.106-0.636-0.128-0.95c-0.023-0.32-0.115-1.02,0.086-1.277c0.231-0.295,1.081-0.546,0.566-1.054
			c-0.206-0.203-0.392-0.068-0.628-0.171c-0.198-0.085-0.145-0.255-0.309-0.338c-0.19,0.366-0.445,0.445-0.785,0.622
			c-0.409,0.212-0.542,0.708-0.9,0.986c-0.193,0.15-0.32,0.222-0.428,0.444c-0.08,0.164-0.101,0.403-0.254,0.531
			c-0.225,0.187-0.416,0.134-0.414-0.141c0.002-0.257,0.254-0.389,0.203-0.658c-0.722-0.065-0.647-0.624-0.377-1.111
			c0.335-0.604,0.682-1.12,0.717-1.806c0.024-0.475,0.519-0.502,0.79-0.767c0.199-0.196,0.265-0.424,0.488-0.603
			c0.192-0.153,0.477-0.298,0.296-0.576c-0.104,0.098-0.109,0.251-0.204,0.357c-0.099,0.111-0.258,0.145-0.39,0.192
			c-0.155,0.054-0.284,0.158-0.435,0.209c-0.172,0.058-0.321-0.028-0.497-0.025c-0.204,0.003-0.453,0.079-0.59,0.236
			c-0.113,0.131-0.119,0.361-0.256,0.474c-0.129,0.106-0.504,0.192-0.518-0.061c-0.486,0.101-0.418-0.907-0.32-1.165
			c0.101-0.266,0.226-0.405,0.086-0.682c-0.16-0.313-0.402-0.377-0.367-0.767c0.031-0.342,0.065-0.405-0.22-0.616
			c-0.28-0.206-0.245-0.07-0.539-0.09c-0.261-0.017-0.382-0.365-0.651-0.186c-0.247,0.164-0.166,0.67-0.362,0.905
			C4.982,55.279,5.048,55.179,5.102,54.711z"/>
	</g>
</g>
<g id="Layer_1">
</g>
</svg>
