<?xml version="1.0" encoding="utf-8"?>
<!-- Generator: Adobe Illustrator 26.0.3, SVG Export Plug-In . SVG Version: 6.00 Build 0)  -->
<svg version="1.1" id="Isolation_Mode" xmlns="http://www.w3.org/2000/svg" xmlns:xlink="http://www.w3.org/1999/xlink" x="0px"
	 y="0px" viewBox="0 0 200 200" enable-background="new 0 0 200 200" xml:space="preserve">
<path fill="#1E8346" d="M152.344,42.468c0.655,0.097,2.272,0.824,2.677,1.402c0.295,0.422,0.202,1.054,0.637,1.339
	c0.382,0,0.765,0,1.147,0c0.34,0.191,0.68,0.382,1.02,0.574c0.054,1.579,0.476,2.32,1.402,2.932c0.11,0.881,0.924,1.918,1.402,2.55
	c0.728,0.027,1.126,0.504,1.594,0.446c0.919-0.114,1.052-0.719,1.721-1.02c0.992-0.447,1.439,0.062,1.849-0.956
	c1.196,0.107,2.377-0.564,3.123-0.382c0.451,0.11,1.027,0.491,1.594,0.574c0.435-0.402,0.895-1.302,1.275-1.593
	c1.07-0.822,2.952-0.22,3.633,0.51c-0.245,0.559-0.706,0.91-0.319,1.594c0.425-0.043,0.85-0.085,1.275-0.128
	c0.106,0.106,0.213,0.213,0.319,0.319c-0.043,0.489-0.085,0.977-0.127,1.466c0.095,0.371,1.552,2.793,1.785,2.868
	c0.191-0.085,0.383-0.17,0.574-0.255c0.361,0.085,0.723,0.17,1.084,0.255c0.843,0.147,1.023-0.367,1.785-0.127
	c0.394,1.055,0.958,1.532,1.912,2.04c-0.016,0.94,0.304,0.941,0.574,1.466c0.337,0.657,0.125,1.754,0.701,2.167
	c1.554,1.113,3.236-1.379,4.526-0.701c1.046,0.385,2.803,2.129,2.932,3.378c0.101,0.982-1.131,1.584-0.637,2.486
	c0.297,0.17,0.595,0.34,0.892,0.51c-0.036,0.756-0.473,0.891-0.701,1.402c-0.021,0.234-0.043,0.467-0.064,0.701
	c-0.29,0.689-1.634,0.999-2.295,1.339c-0.008,0.601,0.132,0.939,0.319,1.339c-0.499,0.897-1.238,0.451-2.04,1.02
	c-0.395,0.28-0.271,0.686-0.51,1.147c-0.432,0.832-2.306,1.756-3.761,1.466c-1.053-0.21-1.44-1.3-2.805-1.084
	c-0.242,0.589-0.279,1.791-0.829,2.103c-0.784,0.684-1.636-0.149-2.358,0c-0.51,0.34-1.02,0.68-1.53,1.02
	c-0.042,0.255-0.085,0.51-0.127,0.765c-0.23,0.346-0.791,0.54-0.956,0.956c-0.021,0.404-0.042,0.807-0.064,1.211
	c-0.255,0.234-0.51,0.467-0.765,0.701c-0.156,0.402,0.16,0.932-0.064,1.339c-0.373,0.678-1.25,0.554-1.912,0.956
	c-0.308,0.187-2.666,2.481-2.805,2.805c-0.451,1.051,1.135,3.822,0.064,5.354c-0.359,0.514-1.64,0.556-2.167,0.893
	c-0.287,1.273-1.221,1.746-1.466,2.55c0.043,0.34,0.085,0.68,0.128,1.02c-0.255,0.382-0.51,0.765-0.765,1.147
	c-0.277,0.711,0.435,1.392,0.127,2.167c-0.246,0.566-0.908,0.691-1.147,1.211c-0.283,0.616,0.049,1.208-0.382,1.721
	c-0.021,0.043-0.043,0.085-0.064,0.127c-0.021,0.021-0.042,0.043-0.064,0.064c-0.021,0.021-0.043,0.043-0.064,0.064
	c-0.021,0.021-0.042,0.042-0.064,0.064c-0.021,0.021-0.043,0.043-0.064,0.064c-1.166,0.878-2.703,1.685-3.123,3.251
	c0.361,0.255,0.722,0.51,1.084,0.765c-0.072,0.698-0.496,0.764-0.638,1.211c0.021,0.319,0.043,0.637,0.064,0.956
	c-0.225,0.766-1.302,1.271-1.976,1.657c0.119,0.72,0.716,1.309,0.255,2.231c-0.34,0.68-1.217,0.577-1.785,1.02
	c-0.664,0.518-0.574,1.469-0.892,2.359c-0.178,0.499-0.512,0.709-0.191,1.275c0.388,0.076,0.616,0.265,0.829,0.51
	c-0.008,1.016-0.698,1.546-1.147,2.167c-0.382,0.021-0.765,0.042-1.147,0.064c0.12,1.371-0.648,1.98-1.466,2.741
	c-0.706-0.031-1.18-0.366-1.721-0.127c-0.106,0.476-0.461,0.88-0.51,1.211c-0.064,0.428,0.371,0.747,0.191,1.275
	c-0.277,0.816-1.491,1.664-1.339,2.741c0.021,0.042,0.043,0.085,0.064,0.127c0.407,0.863,1.478,1.638,0.637,2.932
	c-0.67,0.174-1.717,0.263-2.231,0.637c-0.17,0.489-0.34,0.977-0.51,1.466c0.013,0.284,0.323,0.62,0.191,1.084
	c-0.149,0.191-0.298,0.382-0.446,0.574c-0.132,0.406,0.175,0.749-0.064,1.084c-0.343,0.68-1.246,0.371-1.721,0.637
	c-0.281,0.823-0.802,1.395-1.53,1.785c-0.613-0.218-0.851-0.643-1.147-0.765c-0.471-0.193-0.812,0.323-1.339,0.127
	c-0.255-0.234-0.51-0.467-0.765-0.701c-0.542-0.141-0.576,0.75-1.211,0.637c-0.361-0.255-0.723-0.51-1.084-0.765
	c-1.21-0.386-2.35,0.853-2.741,1.402c0.034,0.956,0.269,1.33-0.127,1.976c-0.234,0.043-0.468,0.085-0.701,0.127
	c0.035,0.993-0.621,1.838-1.466,2.04c-0.191-0.043-0.382-0.085-0.574-0.127c-0.475,0.112-0.354,0.636-1.147,0.637
	c-0.723-0.906-1.888-1.659-3.251-1.912c-0.042,0.043-0.085,0.085-0.127,0.128c-0.159,2.493-2.898,0.419-4.207,0.701
	c-0.297,0.191-0.595,0.382-0.892,0.574c-0.34,0.042-0.68,0.085-1.02,0.127c-0.11,0.497-0.226,0.927-0.765,1.02
	c-0.51-0.446-1.02-0.892-1.53-1.339c-0.531,0.062-1.148,0.45-1.53,0.191c-0.308-0.164-0.47-0.523-0.701-0.765
	c-0.127,0-0.255,0-0.382,0c-0.34,0.319-0.68,0.637-1.02,0.956c-0.987-0.025-1.376-0.603-1.912-1.084
	c-2.04,0.336-3.941,0.167-4.908,1.721c-0.212,0-0.425,0-0.637,0c-0.741-0.96-2.062-1.874-3.442-2.167
	c-0.876-0.186-1.888,0.75-2.996,0.319c-0.234,0.276-0.467,0.553-0.701,0.829c-0.31,0.202-0.535,0.116-0.765,0.382
	c0.292,1.506,0.311,0.778-0.701,1.53c-0.106,0.276-0.212,0.552-0.319,0.829c-0.296,0.495-0.849,0.319-1.339,0.638
	c-0.423,0.275-0.361,0.994-0.892,1.211c-0.783,0.32-1.857-0.049-2.55,0.446c-0.385,0.275-0.189,1.112-0.446,1.53
	c-0.706,0.129-3.624,0.158-4.143,0c-0.218-0.542-0.443-1.031-0.829-1.402c-0.212,0.021-0.425,0.043-0.637,0.064
	c-0.404,0.744-0.322,1.741-0.701,2.422c-0.926-0.068-1.121-0.372-1.785,0.127c0,0.021,0,0.043,0,0.064
	c0.106,0.319,0.212,0.637,0.319,0.956c-0.87,0.448-1.981-0.314-2.805-0.127c-1.093,0.549-2.307,1.281-3.251,1.976
	c-1.122-0.189-2.211-0.928-3.123-1.402c-1.183,0.724-0.399,0.82-0.956,1.657c-1.018,1.531-2.03,3.19-4.08,3.697
	c-0.175-0.211-0.274-0.266-0.574-0.191c-0.158,0.892-1.094,1.28-1.657,1.785c-0.276-0.021-0.552-0.043-0.829-0.064
	c-0.486-0.278-0.421-0.64-1.211-0.701c-1.442,1.197-3.244-0.544-4.526-0.765c-0.471-0.081-1.634-0.216-1.976-0.064
	c-0.447,0.199-0.683,0.841-1.466,0.701c-0.806-0.143-1.664-0.833-2.295-1.084c-0.233-0.092-2.084,0.075-2.677,0
	c-0.319,0.297-0.637,0.595-0.956,0.892c-0.106-0.021-0.212-0.043-0.319-0.064c-0.091-0.738-0.618-1.129-0.956-1.657
	c-1.235,0.106-2.476-1.017-3.57-1.275c-0.267-0.063-0.649,0.062-1.02-0.064c-0.461-1.544-0.77-3.367-2.167-4.079
	c-0.425-0.021-0.85-0.043-1.275-0.064c-0.592-0.185-1.86-0.775-2.422-0.574c-0.088,0.94-0.864,0.552-1.53,0.574
	c-0.452-0.717-0.852-0.403-1.339-1.02c0.108-0.348,0.269-0.355,0.382-0.701c-0.085-0.064-0.17-0.127-0.255-0.191
	c-0.35,0.198-0.575,0.451-1.084,0.319c-0.023-0.507-0.216-1.035-0.383-1.402c-0.375-0.056-0.774-0.105-1.02-0.255
	c0-0.021,0-0.043,0-0.064c-0.003-0.41,0.058-0.536,0.191-0.765c-0.361-0.47-0.379-0.961-0.956-1.275
	c0.021-0.212,0.043-0.425,0.064-0.637c-0.443,0.035-0.555,0.108-0.829,0c-0.021-0.064-0.043-0.127-0.064-0.191
	c0.207-0.345,0.396-0.421,0.446-0.956c-0.259-0.158-0.611,0.03-0.829-0.255c-0.391-0.538,0.099-1.101,0-1.593
	c-0.21-0.39-0.501-0.484-0.701-0.956c-1.413,0.007-1.768-0.877-2.741-1.402c-1.621-0.875-3.421-1.425-4.398-2.932
	c-0.293-0.451-0.532-1.32-0.51-1.976c0.043-0.212,0.085-0.425,0.127-0.637c-0.196-0.769-1.504-1.286-2.04-1.785
	c-0.404,0.085-0.807,0.17-1.211,0.255c-0.438-0.799-0.97-0.602-1.339-1.084c-0.629-0.821-0.603-1.858-1.402-2.486
	c-1.016-0.798-2.552-0.881-3.315-1.912c-0.311-0.421-0.114-1.392-0.382-1.849c-0.297-0.191-0.595-0.382-0.893-0.574
	c-0.043-0.213-0.085-0.425-0.127-0.637c-0.534-1-1.659-1.75-2.486-2.486c-0.01-0.412,0.041-0.695,0.127-0.956
	c0.297-0.149,0.595-0.297,0.892-0.446c0-0.212,0-0.425,0-0.637c-1.771-0.648-2.6-2.322-2.805-4.334
	c0.473-0.348,0.916-1.027,1.02-1.721c-0.985-0.544-1.29-1.212-2.741-1.402c-0.924-0.121-1.828,0.861-2.805,0.51
	c-0.191-0.149-0.383-0.297-0.574-0.446c0.454-0.933,1.805-1.82,2.103-2.422c0.166-0.335-0.083-0.368,0.191-0.574
	c0.627-0.243,1.179-0.048,1.466-0.638c0.042-0.255,0.085-0.51,0.127-0.765c0.213-0.042,0.425-0.085,0.638-0.127
	c-0.019-0.52,0.379-1.33,0.765-1.657c0.368,0.092,0.275,0.28,0.51,0.382c0.425-0.043,0.85-0.085,1.275-0.127
	c1.518,0.245,2.1,0.516,3.633,0.637c0.021-0.021,0.043-0.043,0.064-0.064c0-0.085,0-0.17,0-0.255c-0.213-0.17-0.425-0.34-0.637-0.51
	c-0.293,0.116-0.435,0.13-0.701,0c-0.06-0.441-0.012-0.481,0.191-0.765c0.506-0.081,1.171-0.202,1.466-0.51c0-0.064,0-0.127,0-0.191
	c-0.403-0.203-0.639-0.385-0.956-0.637c-0.021-0.276-0.043-0.552-0.064-0.829c0.154-0.46,1.197-1.208,1.594-1.466
	c-0.039-0.368-0.104-0.359-0.255-0.574c-0.021,0-0.043,0-0.064,0c-0.404,0.106-0.807,0.212-1.211,0.319
	c-0.323-0.117-0.366-0.225-0.51-0.51c0.198-0.472,0.313-0.775,0.191-1.275c-0.635-0.191-0.902-0.383-0.956-1.147
	c0.511-0.663,0.391-0.884,0.765-1.721c0.63-0.166,0.842-0.48,1.147-0.956c-0.008-1.28-0.561-1.991-1.02-2.741
	c-0.189-0.649,0.301-0.809,0.383-1.339c0.078-0.509-0.356-0.88-0.128-1.402c0.375-0.857,1.141-0.126,1.53,0.191
	c1.289-0.348,4.233-0.886,4.398-2.486c-0.159-0.348-0.299-0.708-0.255-1.084c0.332-0.328,0.897-0.416,1.339-0.637
	c0.076-0.34,0.258-0.557,0.191-0.829c-0.173-0.554-0.782-0.726-0.956-1.211c0.021-0.276,0.042-0.552,0.064-0.829
	c-0.111-0.688-0.373-1.095-0.701-1.53c-0.455-0.002-0.851,0.255-1.275,0.191c-0.616-0.297-1.233-0.595-1.849-0.892
	c-0.297,0.021-0.595,0.043-0.893,0.064c-0.595-0.34-1.19-0.68-1.785-1.02c0.01-0.602,0.355-1.127,0.701-1.402
	c0.276,0.064,0.552,0.127,0.829,0.191c0.552-0.382,1.105-0.765,1.657-1.147c-0.179-0.804,0.214-0.917,0.574-1.466
	c0.622,0.075,1.248-0.143,1.849-0.064c0.199,0.026,2.399,1.033,2.613,1.211c0.554,0.458,0.34,1.496,1.02,1.849
	c0.425,0.085,0.85,0.17,1.275,0.255c0.595-0.309,1.04-0.922,1.466-1.402c0.064,0,0.127,0,0.191,0
	c0.064,0.064,0.128,0.127,0.191,0.191c-0.013,0.513,0.073,0.739,0.255,1.02c1.265,0.015,2.388-0.28,3.315-0.574
	c0.552-0.043,1.105-0.085,1.657-0.127c-0.085-0.319-0.17-0.638-0.255-0.956c0.042-0.552,0.085-1.105,0.127-1.657
	c-0.127-0.17-0.255-0.34-0.382-0.51c-0.203-0.899,0.58-1.101,0.064-1.976c-0.319-0.234-0.637-0.467-0.956-0.701
	c-0.007-0.423,0.05-0.539,0.191-0.765c0.847,0.009,1.368-0.235,1.849-0.574c0.014-0.628,0.334-0.786,0.383-1.147
	c0.032-0.233-0.188-0.588-0.191-1.02c0.17-0.149,0.34-0.297,0.51-0.446c-0.106-0.276-0.213-0.552-0.319-0.829
	c1.304-0.997,2.396-2.568,4.526-1.849c0.106,0.255,0.212,0.51,0.319,0.765c0.659,0.085,1.317,0.17,1.976,0.255
	c0.489,0.27,0.624,1.019,0.956,1.466c0.297,0.234,0.595,0.468,0.892,0.701c0.477,0.724,0.729,1.404,1.211,2.167
	c0.454,0.718,1.173,0.631,1.912,1.084c0.382,0.574,0.765,1.147,1.147,1.721c0.319-0.064,0.638-0.127,0.956-0.191
	c0.735,0.432,1.073,1.224,1.721,1.721c0.783,0.6,1.88,1.32,2.805,1.721c0.503,0.218,1.256-0.055,1.721-0.127
	c0.425,0.064,0.85,0.127,1.275,0.191c1.735-0.074,2.934-0.842,5.099-0.446c0.847,0.155,1.879,0.478,2.55,0.638
	c0.552,0.021,1.105,0.042,1.657,0.064c0.659,0.127,1.317,0.255,1.976,0.382c1.284-0.221,2.601-0.974,3.697-1.147
	c0.467,0.127,0.935,0.255,1.402,0.382c0.739,0.067,1.072-0.656,2.04-0.446c0.666,0.144,1.478,0.625,2.358,0.382
	c1.266-0.349,1.479-1.807,2.295-2.295c0.807-0.043,1.615-0.085,2.422-0.127c0-0.021,0-0.043,0-0.064
	c-0.555-0.562-1.654-1.251-2.04-1.912c-0.228-0.743-0.17-4.177,0-4.589c0.537-0.151,0.995-0.373,1.402-0.638
	c0.028-1.977,1.497-2.282,3.187-2.422c0.276,0.042,0.552,0.085,0.829,0.127c0.508-0.123,1.05-0.617,1.594-0.765
	c0.361,0.085,0.722,0.17,1.084,0.255c0.552-0.127,1.105-0.255,1.657-0.382c1.108-0.206,2.752,1.053,3.57,0.127
	c0.489-0.276,0.977-0.552,1.466-0.829c1.424,0.043,2.847,0.085,4.271,0.127c0.234-0.234,0.468-0.468,0.701-0.701
	c0.483-1.374,0.142-3.548,1.339-4.143c0.361-0.021,0.722-0.043,1.084-0.064c1.332-0.386,2.116-1.714,3.251,0.382
	c0.868-0.191,2.125-0.327,2.55,0.574c-0.021,0.425-0.043,0.85-0.064,1.275c0.042,0.021,0.085,0.043,0.127,0.064
	c1.534-0.35,2.333-0.123,2.996,1.084c1.076-0.082,1.475-1.046,2.167-1.53c0.445-0.311,0.98-0.009,1.594-0.255
	c0.191-0.255,0.382-0.51,0.574-0.765c0.492-0.371,1.379-0.465,1.594-1.084c0.294-0.847-0.178-0.722,0.446-1.594
	c1.569,0.082,1.421,0.139,2.422-0.765c0.569,0.064,0.784,0.381,1.02,0.765c0.149-0.021,0.297-0.043,0.446-0.064
	c2.286-1.047,2.249-4.523,3.378-6.757c0.595-0.701,1.19-1.402,1.785-2.103c0.162-0.607-0.138-1.459,0-2.04
	c0.812-0.399,1.752-0.173,2.805-0.51c0.845-0.271,1.567-0.767,2.613-1.02c0.659,0,1.317,0,1.976,0
	c0.396-0.102,0.78-0.521,1.402-0.382c0.62,0.138,0.774,0.815,1.275,0.956c0.401,0.113,0.846-0.137,1.275-0.064
	c0.276,0.404,0.553,0.807,0.829,1.211c2.448-0.085,2.83-0.031,4.526,1.084c0.471-0.159,0.588-0.589,0.956-0.829
	c0.574-0.17,1.147-0.34,1.721-0.51c0.864-0.194,1.28,0.429,1.912,0.319c0.021-0.483,0.114-1.018,0.446-1.211
	c0.685-0.58,2.119-0.361,2.932-0.829C152.174,42.766,152.259,42.617,152.344,42.468z"/>
</svg>
