<?xml version="1.0" encoding="utf-8"?>
<!-- Generator: Adobe Illustrator 26.0.3, SVG Export Plug-In . SVG Version: 6.00 Build 0)  -->
<svg version="1.1" xmlns="http://www.w3.org/2000/svg" xmlns:xlink="http://www.w3.org/1999/xlink" x="0px" y="0px"
	 viewBox="0 0 200 200" enable-background="new 0 0 200 200" xml:space="preserve">
<g id="Layer_1">
	<g id="Layer_1_00000098929087308412571940000004538787532203942811_">
	</g>
</g>
<g id="Isolation_Mode">
	<g>
		<path fill="#1E8346" d="M155.971,30.864c-0.076-0.294-0.344-0.537-0.458-0.831c-0.094-0.243-0.252-0.653-0.486-0.793
			c-0.478-0.001-0.671-0.008-1.042-0.26c-0.345-0.235-0.504-0.187-0.849-0.02c-0.326,0.157-0.743,0.155-1.036,0.361
			c-0.263,0.185-0.58,0.535-0.779,0.796c-0.494,0.647-0.558,1.469-0.597,2.253c-0.04,0.824-0.183,1.65-0.502,2.414
			c-0.13,0.311-0.304,0.401-0.56,0.601c-0.285,0.221-0.354,0.538-0.601,0.778c-0.482,0.469-1.083,0.473-1.65,0.755
			c-0.649,0.322-1.361,0.791-1.613,1.481c-0.087,0.239-0.167,0.644-0.419,0.785c-0.324,0.182-0.818-0.131-1.059-0.317
			c-0.507-0.39-1.199-0.552-1.834-0.255c-0.452,0.212-0.823,0.622-1.119,1.012c-0.255,0.334-0.448,0.44-0.874,0.358
			c-0.2-0.039-0.321-0.147-0.514-0.213c-0.194-0.066-0.408-0.004-0.604-0.036c-0.352-0.057-0.611-0.297-0.939-0.433
			c-0.379-0.157-0.75-0.221-1.149-0.32c-0.605-0.151-1.166-0.389-1.781-0.511c-0.321-0.064-0.677-0.113-0.984-0.204
			c-0.873-0.259-1.529-0.681-2.471-0.681c-0.718,0-1.411,0.037-2.107-0.145c-0.131-0.757,0.34-1.285,0.791-1.8
			c0.28-0.32,0.538-0.426,0.671-0.876c0.143-0.487-0.061-0.829-0.075-1.308c-0.012-0.42,0.252-0.435,0.448-0.761
			c0.168-0.28,0.261-0.623,0.427-0.915c0.134-0.235,0.213-0.492,0.398-0.679c0.18-0.183,0.46-0.25,0.665-0.402
			c0.206-0.153,0.378-0.367,0.487-0.6c0.112-0.24,0.093-0.492,0.183-0.745c0.27-0.766,1.534-0.8,1.374-1.808
			c-0.05-0.316-0.325-0.561-0.482-0.834c-0.212-0.366-0.488-0.698-0.774-1.007c-0.583-0.632-1.309-0.663-1.983-1.153
			c-0.16,0-0.483,0.063-0.622,0.004c-0.145-0.061-0.185-0.226-0.305-0.311c-0.299-0.212-0.845-0.268-1.197-0.406
			c-0.465-0.183-0.952-0.401-1.379-0.657c-0.612-0.367-0.988-0.989-1.596-1.338c-1.008-0.576-1.932-1.255-2.913-1.891
			c-0.445-0.288-0.929-0.682-1.434-0.837c-0.59-0.181-1.229-0.091-1.842-0.271c-1.632-0.48-3.087-1.03-4.014-2.51
			c-0.273-0.435-0.47-0.872-0.942-1.093c-0.874-0.41-1.548-0.888-2.277-1.498c-0.53-0.443-0.896-0.854-1.308-1.404
			c-0.232-0.311-0.623-0.63-0.708-0.996c-0.371-0.319-0.352-0.666-0.512-1.082c-0.15-0.391-0.448-0.393-0.768-0.605
			c-0.435-0.287-0.687-0.746-1.037-1.107c-0.306-0.316-0.713-0.569-0.967-0.932c-0.211-0.303-0.104-0.318-0.538-0.301
			c-0.534,0.021-1.07,0.046-1.611,0.046c-0.548,0-1.339-0.114-1.855,0.075c-0.354,0.13-0.394,0.579-0.744,0.781
			c-0.135-0.206-0.554-0.686-0.831-0.701c-0.385-0.021-0.768,0.627-0.902,0.924c-0.21,0.464-0.42,0.81-0.754,1.187
			c-0.447,0.506-0.265,0.953-0.473,1.515c-0.105,0.285-0.347,0.599-0.638,0.408c-0.22-0.145-0.245-0.614-0.346-0.828
			c-0.189-0.402-0.666-0.68-0.936-1.091c-0.3-0.457-0.276-0.862-0.779-1.077C97.573,8.44,97.35,8.231,97.1,8.115
			c-0.305-0.141-0.751-0.098-1.082-0.082c-0.574,0.028-1.176,0.015-1.745,0.115c-0.601,0.106-1.25,0.367-1.755-0.074
			c-0.642-0.562-1.221-1.09-1.892-1.64c-0.5,0.561-0.848,1.545-1.337,2.077c-0.468,0.508-1.398,0.345-1.864,0.971
			c-0.213,0.287-0.222,0.687-0.517,0.924c-0.237,0.19-0.555,0.137-0.719,0.425c-0.185,0.324-0.089,0.501-0.383,0.801
			c-0.173,0.177-0.227,0.518-0.51,0.502c-0.245,0.356,0.344,0.792,0.574,0.979c0.329,0.268,0.494,0.197,0.347,0.612
			c-0.085,0.238-0.193,0.468-0.264,0.712c-0.371,1.261-0.566,2.557-1.138,3.758c-0.19,0.398-0.341,0.921-0.642,1.249
			c-0.226,0.246-0.595,0.362-0.88,0.532c-0.497,0.297-1.021,0.621-1.478,0.975c-0.383,0.297-0.962,0.642-1.429,0.781
			c-0.506,0.15-0.937,0.365-1.282,0.766c-0.172,0.2-0.321,0.465-0.535,0.624c-0.28,0.208-0.416,0.254-0.528,0.626
			c-0.089,0.293-0.057,0.584,0.168,0.806c0.34,0.337,1.736,0.608,1.282,1.312c-0.317,0.491-1.073,0.524-1.144,1.131
			c-0.079,0.68-0.09,1.583,0.171,2.209c0.228,0.543,0.623,1.098,0.746,1.677c0.091,0.426,0.111,0.981,0.054,1.412
			c-0.064,0.489-0.441,0.562-0.617,0.938c-0.149,0.319,0.064,0.75,0.191,1.033c0.118,0.26,0.176,0.764,0.404,0.943
			c0.735,0.577,0.963,1.503-0.029,1.977c-0.316,0.151-0.681,0.289-1.02,0.339c-0.498,0.073-0.634,0.271-0.747,0.756
			c-0.107,0.464-0.173,0.913-0.38,1.355c-0.139,0.296-0.327,0.562-0.447,0.867c-0.127,0.325-0.232,0.699-0.295,1.038
			c-0.06,0.327-0.052,0.628-0.283,0.891c-0.223,0.254-0.443,0.451-0.627,0.743c-0.135,0.214-0.265,0.402-0.44,0.584
			c-0.377,0.392-0.543,0.805-0.835,1.264c-0.323,0.509-0.62,0.923-0.772,1.512c-0.087,0.335,0.058,0.555,0.106,0.882
			c0.055,0.369-0.015,0.683-0.084,1.041c-0.054,0.281-0.035,0.635-0.035,0.925c-0.234,0.211-0.592,0.293-0.806,0.557
			c-0.176,0.217-0.214,0.476-0.227,0.745c-0.024,0.499,0.004,0.927,0.197,1.38c0.116,0.272,0.311,0.574,0.381,0.857
			c0.072,0.289-0.035,0.665-0.059,0.954c-0.032,0.384-0.175,1.015,0.037,1.343c0.224,0.346,0.567,0.327,0.456,0.797
			c-0.098,0.416-0.328,0.719-0.679,0.958c-0.324,0.221-0.63,0.266-0.855,0.61c-0.187,0.285-0.273,0.547-0.362,0.867
			c-0.146,0.524-0.033,1.154-0.008,1.703c0.021,0.459-0.154,0.822-0.549,1.032c-0.545,0.289-0.457,0.459-0.482,1.047
			c-0.046,1.031-0.537,2.246,0.309,3.084c0.351,0.348,0.967,0.779,0.807,1.303c-0.116,0.379-0.365,0.641-0.084,1
			c0.14,0.18,0.358,0.293,0.497,0.488c0.117,0.164,0.171,0.343,0.254,0.516c0.19,0.397,0.165,0.751,0.287,1.152
			c0.189,0.623,0.815,1.031,0.86,1.68c0.031,0.454,0.248,0.855,0.251,1.324c0.002,0.244-0.021,0.648,0.316,0.724
			c0.283,0.064,0.203-0.218,0.404-0.31c0.211-0.097,0.384,0.114,0.456,0.271c0.256,0.553-0.002,0.908-0.215,1.389
			c-0.431,0.973,0.297,2.276,0.294,3.272c-0.001,0.239,0.062,0.593-0.128,0.777c-0.174,0.168-0.493,0.081-0.671,0.231
			c-0.223,0.189-0.109,0.574-0.121,0.833c-0.013,0.283-0.073,0.537-0.168,0.803c-0.192,0.533-0.524,1.014-0.727,1.547
			c-0.227,0.599-0.247,1.271-0.359,1.897c-0.101,0.566-0.2,1.069-0.065,1.643c0.103,0.437,0.34,0.832,0.44,1.265
			c0.163,0.705,0.048,1.551,0.041,2.276c-0.006,0.554-0.327,0.866-0.753,1.088c-0.417,0.217-0.174,0.467-0.389,0.826
			c-0.086,0.143-0.296,0.328-0.435,0.402c-0.305,0.164-0.734,0.227-0.883,0.62c-0.117,0.309,0.071,0.674-0.027,0.999
			c-0.115,0.01-0.379-0.087-0.465-0.031c-0.13,0.085-0.061,0.465-0.061,0.612c0,0.37-0.007,0.725,0.051,1.085
			c0.052,0.326,0.149,0.651,0.145,0.983c-0.007,0.491-0.186,0.796-0.321,1.242c-0.134,0.442,0.211,0.526,0.361,0.89
			c0.146,0.356,0.005,0.503-0.123,0.82c-0.141,0.348-0.045,0.531,0.139,0.866c0.269,0.487,0.733,0.963,0.838,1.515
			c0.046,0.24-0.1,1.492,0.222,1.476c0.311,0.482,0.638,0.897,0.475,1.536c-0.132,0.518-0.766,0.689-1.154,0.969
			c-0.319,0.23-0.806,0.435-0.913,0.85c-0.118,0.459,0.023,0.941,0.139,1.38c0.123,0.467-0.051,0.76-0.229,1.182
			c-0.157,0.372,0.059,0.701-0.071,1.06c-0.166,0.459-0.63,0.345-0.922,0.606c-0.303,0.272-0.219,0.472,0.027,0.731
			c0.242,0.254,0.515,0.472,0.471,0.859c-0.033,0.292-0.111,0.778-0.28,1.012c-0.323,0.124-0.835,0.41-0.812,0.813
			c0.436,0.153,1.437,0.329,0.994,1.025c-0.118,0.185-0.307,0.286-0.393,0.507c-0.078,0.202-0.1,0.424-0.184,0.628
			c-0.131,0.318-0.445,0.516-0.36,0.872c0.088,0.368,0.29,0.656,0.324,1.056c0.047,0.543,0.183,1.057,0.258,1.595
			c0.06,0.431-0.005,0.875,0.061,1.305c0.055,0.354,0.08,0.751,0.187,1.101c0.094,0.308,0.307,0.533,0.461,0.804
			c0.125,0.22,0.225,0.447,0.336,0.675c0.091,0.188,0.148,0.642,0.3,0.754c0.034,0.594-0.643,0.774-1.087,0.955
			c-0.804,0.328-0.33,0.688-0.252,1.332c0.054,0.443-0.291,0.826-0.218,1.233c0.036,0.205,0.178,0.394,0.226,0.605
			c0.046,0.205,0.05,0.408,0.048,0.618c-0.003,0.292-0.159,0.528-0.17,0.806c-0.009,0.239,0.122,0.325,0.248,0.507
			c0.169,0.243-0.009,0.663,0.326,0.726c0.331,0.063,0.447-0.4,0.706-0.191c0.178,0.143,0.255,0.585,0.198,0.79
			c-0.14,0.501-0.442,1.09-0.136,1.604c0.363,0.61,0.895,1.125,0.893,1.854c-0.002,0.68-0.036,1.374,0.049,2.048
			c0.044,0.353,0.028,0.837,0.452,0.898c0.236,0.034,0.497-0.071,0.734-0.085c0.38-0.022,0.768,0.002,1.148,0.002
			c0.281,0,0.786-0.12,0.773,0.274c-0.009,0.262-0.313,0.592-0.364,0.882c-0.155,0.884-0.823,0.827-1.587,0.881
			c-0.375,0.027-0.741,0.05-1.114,0.112c-0.152,0.025-0.809,0.156-0.452,0.529c0.144,0.15,0.205,0.322,0.377,0.432
			c0.219,0.141,0.543,0.174,0.795,0.207c0.476,0.064,0.717-0.067,0.899,0.427c0.125,0.339,0.16,0.439,0.438,0.658
			c0.21,0.165,0.351,0.354,0.26,0.642c-0.084,0.268-0.397,0.307-0.494,0.561c-0.084,0.221,0.077,0.5-0.096,0.694
			c-0.144,0.161-0.39,0.09-0.56,0.179c-0.182,0.094-0.323,0.331-0.375,0.525c-0.103,0.387,0.085,0.77,0.263,1.088
			c0.289,0.517,1.181,0.282,0.852,1.039c-0.245,0.565-0.61,0.353-1.02,0.613c-0.4,0.254,0.099,0.633,0.254,0.895
			c0.232,0.394,0.411,0.803,0.501,1.247c0.098,0.486,0.238,0.928-0.028,1.403c-0.111,0.198-0.306,0.263-0.442,0.434
			c-0.18,0.226-0.163,0.542-0.146,0.814c0.043,0.668,0.716,0.94,0.114,1.554c-0.464,0.474-1.124,1.03-1.378,1.662
			c-0.116,0.289-0.085,0.639-0.151,0.943c-0.072,0.327-0.065,0.63-0.091,0.963c-0.024,0.306-0.263,0.604-0.118,0.865
			c0.077,0.139,0.379,0.612,0.508,0.681c0.04,0.398,0.145,0.851,0.424,1.152c0.191,0.205,0.394,0.333,0.331,0.663
			c-0.058,0.303-0.235,0.318-0.447,0.486c-0.215,0.171-0.431,0.506-0.517,0.768c-0.164,0.496,0.267,0.795,0.155,1.291
			c-0.096,0.427-2.086,1.883-1.396,2.309c-0.419,0-0.927-0.066-1.328,0.039c-0.628,0.166-0.541,0.441-0.541,1.005
			c0,0.419-0.066,0.891,0.068,1.295c0.115,0.35,0.209,0.681,0.3,1.038c0.093,0.367,0.292,0.714,0.327,1.091
			c0.031,0.334-0.016,0.673-0.025,1.005c-0.018,0.618,0.039,1.189,0.334,1.738c0.161,0.3,0.544,0.929,0.81,1.131
			c0.101,0.498,0.543,1.366,1.169,1.101c0.475-0.201,0.669-0.763,1.154-0.961c0.405-0.166,1.211-0.491,1.571-0.093
			c0.347,0.383,0.216,1.239,0.259,1.695c0.054,0.565,0.196,1.138,0.145,1.709c-0.046,0.517-0.226,0.972-0.131,1.499
			c0.158,0.875,0.927,1.257,1.503,1.864c0.293,0.308,0.35,0.473,0.768,0.447c0.482-0.03,1.196-0.034,1.681-0.09
			c0.589-0.068,1.156-0.193,1.752-0.25c0.684-0.065,1.364-0.222,2.046-0.274c0.826-0.064,1.453,0.518,2.251,0.524
			c0.799,0.006,1.535,0.05,2.269,0.383c0.557,0.253,1.032,0.165,1.612,0.259c0.392,0.063,0.859,0.213,1.26,0.223
			c0.261-0.309-0.366-0.723-0.539-0.906c-0.387-0.41-0.674-0.854-0.98-1.324c-0.319-0.49-0.637-0.958-0.937-1.458
			c-0.214-0.358-0.789-0.162-1.196-0.224c0.365-0.392,0.905-0.309,1.14-0.886c-0.241-0.313-0.424-0.8-0.475-1.194
			c-0.088-0.678-0.381-1.256-0.424-1.942c-0.072-1.157-0.188-2.292,0.657-3.185c0.328-0.347,0.667-0.732,1.138-0.879
			c0.344-0.108,0.633-0.085,0.52-0.469c-0.078-0.265-0.38-0.58-0.566-0.773c-0.154-0.159-0.506-0.313-0.486-0.569
			c0.219-0.025,0.362-0.293,0.497-0.444c0.248,0.216,0.372,0.606,0.665,0.854c0.261,0.221,0.763,0.479,1.12,0.42
			c0.242-0.523,0.801-1.206,1.037-1.781c0.158-0.384,0.126-0.899,0.14-1.31c0.018-0.51,0.264-1.006,0.22-1.51
			c-0.145,0.083-0.309,0.265-0.48,0.258c-0.012-0.508,0.27-1.211,0.51-1.648c0.339-0.62,0.904-1.063,1.249-1.675
			c0.191-0.339,0.378-0.753,0.679-1.011c0.189-0.162,0.4-0.17,0.611-0.274c0.228-0.112,0.307-0.338,0.501-0.478
			c0.211-0.151,0.507-0.086,0.713-0.208c0.221-0.13,0.458-0.61,0.599-0.823c0.347-0.523,0.784-0.779,1.25-1.158
			c0.311-0.254,0.452-0.656,0.705-0.964c0.299-0.364,0.078-0.523,0.111-0.954c0.046-0.606,0.363-1.096,0.363-1.724
			c-0.186-0.21-0.089-0.955-0.151-1.236c-0.061-0.274-0.163-0.705-0.373-0.917c-0.301-0.302-0.767-0.089-1.144-0.056
			c-0.655,0.057-1.387-0.152-1.979-0.413c-0.767-0.339-1.162-0.987-1.8-1.479c-0.648-0.499-1.223-0.973-1.586-1.72
			c-0.324-0.666-0.726-1.335-0.608-2.093c0.1-0.642,0.387-1.191,0.539-1.794c0.113-0.45,0.102-0.917,0.218-1.363
			c0.18-0.696,0.862-1.058,1.384-1.455c0.208-0.158,0.354-0.383,0.583-0.519c0.233-0.139,0.48-0.17,0.731-0.241
			c0.334-0.094,0.454-0.156,0.559-0.497c-0.314-0.284,0.437-0.659,0.613-0.753c0.222-0.118,0.373-0.218,0.624-0.199
			c0.185,0.014,0.347,0.115,0.529,0.135c0.104,0.011,0.201-0.037,0.305-0.02c0.445,0.071,0.694,0.416,1.209,0.304
			c0.183-0.04,0.491-0.198,0.631-0.325c0.179-0.163,0.14-0.164,0.058-0.338c-0.166-0.352-0.606-0.549-0.678-0.93
			c-0.105-0.56,0.47-0.816,0.863-1.051c0.338-0.203,0.777-0.182,0.813-0.594c0.013-0.151-0.035-0.223,0.019-0.386
			c0.064-0.193,0.196-0.327,0.231-0.531c0.062-0.358-0.207-0.619-0.165-0.947c0.043-0.344,0.332-0.571,0.334-0.939
			c0.002-0.371-0.288-0.429-0.487-0.72c-0.198-0.29-0.198-0.632-0.239-0.963c-0.064-0.521-0.095-0.907,0.212-1.398
			c0.37-0.595,0.804-1.26,1.344-1.715c0.527-0.444,1.197-0.688,1.821-0.962c0.473-0.208,0.816-0.22,0.502-0.698
			c-0.233-0.07-0.517-0.043-0.767-0.08c-0.176-0.027-0.305-0.057-0.447-0.165c-0.169-0.129-0.256-0.456-0.418-0.557
			c-0.143-0.088-0.622,0.04-0.71-0.165c-0.093-0.215,0.194-0.293,0.35-0.36c0.555-0.243,0.773-0.898,1.468-0.833
			c0.637,0.059,1.446,0.169,1.168,0.966c-0.141,0.405-0.202,0.518,0.094,0.843c0.092,0.102,0.175,0.245,0.301,0.314
			c0.47,0.255,1.156-0.097,1.573-0.314c0.32-0.167,0.784-0.351,0.969-0.669c0.168-0.289,0.24-0.797,0.194-1.122
			c-0.045-0.318-0.148-0.642-0.202-0.958c-0.037-0.212-0.115-0.457-0.195-0.651c-0.266-0.646-0.868-0.858-1.507-0.651
			c-0.282,0.091-0.394,0.337-0.643,0.465c-0.202,0.105-0.498,0.059-0.73,0.121c0.116,0.218,0.87,0.505,0.542,0.807
			c-0.186,0.171-0.886,0.065-1.112,0.074c-0.196,0.008-0.706,0.138-0.702-0.109c0.005-0.215,0.539-0.47,0.313-0.715
			c-0.124-0.135-0.473-0.034-0.638-0.036c-0.755-0.005-1.602-0.765-1.932-1.437c-0.2-0.407,0.033-0.775,0.149-1.185
			c0.107-0.381,0.193-0.881,0.121-1.28c-0.085-0.466-0.379-0.629-0.616-0.975c-0.258-0.376-0.19-0.977-0.244-1.411
			c-0.058-0.467-0.062-0.853,0.237-1.232c0.526-0.668,1.668-0.501,2.351-0.206c0.262,0.113,0.572,0.233,0.795,0.409
			c0.157,0.123,0.274,0.307,0.432,0.428c0.403,0.306,1.034,0.069,1.382,0.359c0.239,0.2,0.184,0.469,0.503,0.603
			c0.431,0.18,0.956,0.015,1.405-0.038c1.133-0.134,2.293-0.502,3.369-0.868c0.851-0.289,2.023-1.241,2.131-2.204
			c-0.193-0.2-0.069-0.525-0.113-0.772c-0.044-0.248-0.189-0.392-0.321-0.608c-0.161-0.264-0.288-0.402-0.21-0.698
			c0.058-0.222,0.211-0.403,0.323-0.599c0.258-0.45,0.046-1.024,0.414-1.432c0.105-0.117,0.226-0.177,0.352-0.25
			c0.19-0.112,0.162-0.023,0.231-0.239c0.168-0.532,0.112-1.245,0.132-1.794c0.013-0.351-0.02-0.683-0.049-1.028
			c-0.016-0.187,0.038-0.408-0.005-0.589c-0.104-0.434-0.753-0.541-0.917-1.005c-0.093-0.264,0.049-0.595,0.068-0.852
			c0.019-0.256-0.114-0.278-0.201-0.488c-0.203-0.491,0.807-0.278,1.077-0.123c0.363,0.208,0.686,0.492,1.06,0.681
			c0.515,0.26,0.977,0.295,1.556,0.309c0.492,0.012,0.985,0,1.477,0c0.365,0,0.73,0.003,1.096,0c0.218-0.002,0.434-0.003,0.644,0
			c0.214-0.213,0.747-0.222,1.041-0.272c0.417-0.071,0.831-0.174,1.247-0.246c0.597-0.105,1.255-0.188,1.825-0.403
			c0.736-0.277,1.465-0.135,2.239-0.201c0.79-0.067,1.589-0.152,2.324-0.469c0.596-0.258,1.24-0.274,1.845-0.503
			c0.543-0.206,1.122-0.451,1.631-0.726c0.475-0.256,0.92-0.576,1.398-0.834c0.447-0.241,0.833-0.531,0.996-1.022
			c0.149-0.451,0.239-0.742,0.575-1.099c0.276-0.291,0.531-0.57,0.79-0.873c0.231-0.27,0.43-0.554,0.694-0.791
			c0.3-0.269,0.556-0.479,0.757-0.823c0.32-0.547,0.599-1.117,0.922-1.666c0.301-0.512,0.395-1.13,0.607-1.68
			c0.171-0.445,0.146-0.949,0.167-1.418c0.02-0.45-0.168-1.044,0.083-1.429c-0.749,0.046-1.519-0.506-1.961-1.061
			c-0.606-0.763-1.145-1.735-0.587-2.67c0.258-0.433,0.607-0.801,0.862-1.239c0.265-0.453,0.345-0.832-0.017-1.169
			c-0.211-0.196-0.368-0.48-0.556-0.706c-0.287-0.344-0.583-0.52-0.938-0.777c-0.322-0.233-0.526-0.56-0.812-0.825
			c-0.276-0.256-0.688-0.37-1.039-0.483c-0.549-0.178-0.854-0.116-1.203-0.614c-0.217-0.309-0.473-0.621-0.725-0.903
			c-0.244-0.272-0.49-0.53-0.559-0.902c-0.025-0.137,0.003-0.238-0.054-0.371c-0.051-0.118-0.182-0.214-0.222-0.34
			c-0.108-0.347-0.057-0.737-0.176-1.092c-0.069-0.203-0.152-0.411-0.237-0.609c-0.21-0.489-0.249-0.815,0.16-1.195
			c0.468-0.096,0.237-1.047,0.169-1.389c-0.208-1.05,0.2-2.618,1.345-2.973c0.25-0.077,0.87-0.224,0.859-0.604
			c-0.007-0.254-0.42-0.521-0.42-0.81c0-0.636-0.095-1.223-0.14-1.848c-0.043-0.603,0.085-1.014,0.227-1.583
			c0.036-0.143,0.055-0.297,0.081-0.443c0.032-0.179,0.123-0.304,0.163-0.464c0.102-0.403-0.336-0.905,0.067-1.215
			c0.275-0.212,0.467-0.22,0.635-0.586c0.125-0.272,0.185-0.541,0.195-0.837c0.023-0.73,0.047-1.356,0.223-2.07
			c0.098-0.398,0.239-0.758,0.314-1.163c0.06-0.329,0.062-0.654,0.106-0.984c0.066-0.487,0.238-0.968,0.391-1.425
			c0.141-0.424,0.292-0.607,0.641-0.908c0.272-0.235,0.407-0.538,0.712-0.736c0.291-0.19,0.628-0.309,0.929-0.469
			c0.171-0.091,0.272-0.238,0.451-0.28c0.837-0.902,1.517-1.881,2.029-3.006c0.246-0.541,0.678-1.094,1.17-1.43
			c0.213-0.145,0.503-0.184,0.639-0.418c0.094-0.163,0.039-0.291,0.068-0.463c0.101-0.611,0.472-0.579,0.966-0.711
			c0.494-0.132,0.562-0.425,0.791-0.835c0.233-0.416,0.4-0.905,0.744-1.241c0.3-0.293,0.785-0.601,1.138-0.835
			c0.279-0.185,0.56-0.476,0.888-0.541c0.316-0.062,0.457-0.12,0.749-0.203c-0.001-0.15,0.033-0.33-0.027-0.465
			c-0.09-0.199-0.388-0.247-0.396-0.483c0.221-0.103,0.523,0.055,0.748-0.04c0.16-0.067,0.263-0.274,0.4-0.378
			c0.227-0.172,0.498-0.133,0.724-0.264c0.182-0.105,0.305-0.291,0.503-0.393c0.21-0.107,0.445-0.138,0.627-0.273
			c0.209-0.155,0.306-0.378,0.435-0.591c0.161-0.265,0.373-0.329,0.584-0.525c0.181-0.167,0.278-0.421,0.452-0.6
			c0.899-0.927,2.387-0.855,3.506-1.383c0.715-0.337,1.305-0.801,1.883-1.329c0.341-0.312,0.727-0.723,0.8-1.2
			c0.036-0.237-0.007-0.498,0.004-0.737c0.018-0.385,0-0.864,0.221-1.196c0.182-0.275,0.423-0.439,0.476-0.802
			c0.079-0.549-0.048-1.133-0.059-1.676C155.657,31.929,156.119,31.436,155.971,30.864z"/>
		<path fill="#1E8346" d="M98.943,194.785c-0.341,0.025-0.763,0.086-1.102,0.034c-0.282-0.043-0.439-0.203-0.689-0.352
			c-0.625-0.37-1.316-0.765-1.726-1.38c-0.169-0.253-0.345-0.658-0.591-0.851c-0.29-0.227-0.738-0.152-1.052-0.374
			c-0.531-0.376-0.988-0.859-1.539-1.216c-0.345-0.223-0.688-0.408-1.008-0.664c-0.467-0.374-1.186-0.577-1.572-1.025
			c-0.266-0.31-0.103-0.715-0.182-1.087c-0.181-0.04-0.121-0.214-0.216-0.342c-0.099-0.133-0.231-0.236-0.328-0.369
			c-0.114-0.156-0.186-0.303-0.083-0.5c0.123-0.237,0.218-0.112,0.419-0.169c0.201-0.058,0.208-0.087,0.131-0.322
			c-0.062-0.188-0.171-0.402-0.256-0.583c-0.214-0.456-0.46-0.808-0.772-1.173c-0.269-0.316-0.384-0.831-0.727-1.107l1.154,13.691
			c0.272,0,0.445-0.268,0.682-0.377c0.328-0.151,0.713-0.097,1.065-0.097c0.858,0,1.726-0.097,2.582-0.057
			c0.468,0.022,0.961,0.086,1.426,0.14c0.365,0.042,0.552,0.218,0.879,0.31c0.568,0.159,1.337,0.058,1.91,0.026
			c0.384-0.022,0.5,0.02,0.748-0.25c0.295-0.322,0.346-0.422,0.735-0.278c0.454,0.169,1.057-0.248,1.318-0.64
			c0.083-0.124,0.434-0.611,0.416-0.757C100.501,194.513,99.229,194.765,98.943,194.785z"/>
		<path fill="#1E8346" d="M125.854,176.59c-0.335-0.15-0.972-0.085-1.188,0.265c-0.091,0.149-0.026,0.117,0.038,0.257
			c0.099,0.213,0.073,0.324,0.1,0.542c-0.258,0.122-0.994-0.228-0.99-0.514c0.006-0.372,0.602-0.216,0.65-0.62
			c0.052-0.447-0.366-0.407-0.647-0.325c-0.412,0.12-0.612,0.076-0.966-0.139c-0.066-0.041-0.282-0.186-0.365-0.106
			c-0.063,0.06,0.012,0.261,0.006,0.331c-0.024,0.256-0.199,0.267-0.423,0.341c-0.882,0.291,0.28,0.324,0.045,0.726
			c-0.123,0.21-0.352,0.079-0.232,0.394c0.085,0.224,0.162,0.412,0.181,0.652c-0.133,0.175-0.146,0.188-0.17,0.188
			c-0.145-0.129-0.345-0.35-0.549-0.356c-0.217-0.006-0.29,0.209-0.421,0.334c-0.161,0.154-0.364,0.142-0.541,0.252
			c-0.213,0.132-0.449,0.481-0.578,0.697c-0.175,0.292-0.046,0.662-0.348,0.873c-0.201,0.14-0.407,0.468-0.077,0.584
			c0.15,0.053,0.323,0.011,0.406,0.18c0.065,0.131,0.007,0.284,0.098,0.429c0.193,0.304,0.474,0.394,0.524-0.037
			c0.018-0.152-0.004-0.3-0.08-0.428c-0.061-0.103-0.186-0.156-0.156-0.281c0.234-0.031,0.46,0.226,0.687,0.268
			c0.115,0.021,0.552,0.08,0.643,0.024c0.317-0.195-0.238-0.624-0.264-0.857c0.258,0.113,0.38,0.136,0.655,0.105
			c0.114-0.013,0.254-0.024,0.36,0.011c0.124,0.042,0.214,0.179,0.348,0.221c0.071,0.022,0.195,0.054,0.267,0.026
			c0.095-0.037,0.099-0.156,0.188-0.202c0.178-0.091,0.318,0.133,0.493,0.13c0.112-0.002,0.286-0.11,0.247-0.244
			c-0.02-0.066-0.135-0.105-0.193-0.132c-0.107-0.051-0.127-0.033-0.2-0.125c-0.12-0.153-0.089-0.226-0.316-0.279
			c-0.145-0.034-0.893-0.192-0.619-0.515c0.112-0.132,0.567-0.122,0.72-0.101c0.238,0.033,0.267,0.173,0.448,0.273
			c0.16,0.089,0.252,0.024,0.388-0.049c0.206-0.111,0.405-0.203,0.617-0.299c0.135-0.061,0.318-0.149,0.399-0.275
			c0.123-0.191,0.004-0.165,0.263-0.243c0.226-0.069,0.93-0.109,0.784-0.513c-0.091-0.254-0.727-0.163-0.659-0.505
			c0.248-0.044,0.885,0.15,0.913-0.223C126.361,177.081,126.056,176.681,125.854,176.59z"/>
		<path fill="#1E8346" d="M120.493,177.576c0.143-0.118,0.163-0.32,0.288-0.451c0.133-0.14,0.285-0.18,0.249-0.397
			c-0.034-0.208-0.288-0.488-0.521-0.34c-0.215,0.136,0.013,0.473-0.287,0.555c-0.314,0.086-0.554-0.077-0.818-0.189
			c-0.117-0.05-0.257-0.068-0.377-0.114c-0.134-0.051-0.311-0.195-0.442-0.2c-0.354,0.385-0.424,0.467-0.762,0.465
			c-0.34-0.002-0.463-0.12-0.698-0.358c-0.159-0.16-0.596-0.537-0.852-0.421c-0.374,0.169,0.105,0.446,0.221,0.551
			c0.282,0.258,0.485,0.536,0.822,0.744c0.234,0.145,0.651,0.331,0.473,0.697c-0.066,0.135-0.185,0.136-0.292,0.235
			c-0.119,0.109-0.164,0.281-0.308,0.365c-0.065-0.053-0.118-0.117-0.19-0.162c-0.038,0.128-0.138,0.198-0.21,0.304
			c-0.088,0.128-0.083,0.202-0.101,0.346c-0.023,0.186-0.06,0.379-0.259,0.453c-0.238,0.089-0.417-0.044-0.633-0.078
			c-0.242-0.038-0.25,0.111-0.324,0.303c-0.131-0.053-0.281-0.056-0.411-0.005c0.001,0.483,0.625,0.344,0.806,0.736
			c0.078,0.168,0.059,0.495,0.332,0.513c0.161,0.011,0.155-0.064,0.192-0.247c0.019-0.095-0.001-0.214,0.073-0.282
			c0.099-0.091,0.415-0.017,0.548-0.072c0.174-0.071,0.257-0.224,0.346-0.38c0.092-0.162,0.203-0.414,0.41-0.437
			c0.098-0.011,0.191,0.067,0.299,0.055c0.071-0.008,0.12-0.056,0.187-0.068c0.179-0.032,0.279,0.021,0.418-0.122
			c0.183-0.19,0.319-0.49,0.487-0.704c0.242-0.308,0.527-0.615,0.787-0.913C120.108,177.776,120.316,177.724,120.493,177.576z"/>
		<path fill="#1E8346" d="M114.753,178.449c-0.24-0.116-0.282-0.134-0.352,0.167c-0.048,0.206-0.071,0.53,0.189,0.629
			c0.363,0.137,0.434-0.116,0.511-0.377C115.157,178.681,115.333,178.279,114.753,178.449z"/>
	</g>
</g>
</svg>
