<?xml version="1.0" encoding="utf-8"?>
<!-- Generator: Adobe Illustrator 26.0.3, SVG Export Plug-In . SVG Version: 6.00 Build 0)  -->
<svg version="1.1" xmlns="http://www.w3.org/2000/svg" xmlns:xlink="http://www.w3.org/1999/xlink" x="0px" y="0px"
	 viewBox="0 0 200 200" enable-background="new 0 0 200 200" xml:space="preserve">
<g id="Layer_1">
	<g id="Layer_1_00000061442898653323928190000005571608892069918396_">
		<g id="Layer_1_00000098929087308412571940000004538787532203942811_">
		</g>
	</g>
</g>
<g id="Isolation_Mode">
	<path fill="#1E8346" d="M112.953,29.562c0.618-0.45,0.867-1.273,1.371-1.88c0.419-0.504,0.769-0.716,1.357-0.998
		c0.401-0.192,0.733-0.524,0.964-0.903c0.242-0.397,0.524-0.699,0.801-1.068c0.182-0.242,0.272-0.515,0.468-0.75
		c0.365-0.437,0.666-0.408,1.148-0.636c0.34,0.042,0.828-0.513,0.928-0.787c0.216-0.596,0.239-2.244-0.169-2.794
		c-0.218-0.295-0.695-0.57-1.05-0.631c-0.468-0.08-0.954,0.195-1.414-0.065c-0.594-0.336-0.937-1.547-1.215-2.152
		c-0.506-1.102-0.88-2.177-1.228-3.335c-0.309-1.029-0.284-1.89-0.381-2.935c-0.04-0.435-0.149-0.71-0.39-1.052
		c-0.064-0.09-0.223-0.128-0.257-0.208c-0.108-0.245-0.003-0.663-0.068-0.939c-0.091-0.39-0.244-0.79-0.497-1.098
		c-0.291-0.354-0.714-0.636-1.076-0.259c-0.182,0.189-0.303,0.769-0.394,1.016c-0.193,0.524-0.454,0.822-0.84,1.238
		c-0.439,0.472-0.753,1.005-1.106,1.542c-0.471,0.718-0.869,1.338-1.462,1.96c-0.981,1.028-0.616,2.789-1.787,3.701
		c-0.362,0.282-1.091,0.468-1.527,0.613c-0.763,0.253-0.938-0.143-1.657-0.3c-0.537-0.117-1.21-0.098-1.793-0.078
		c-0.736,0.025-1.067,0.226-1.668,0.563c-0.452,0.253-0.707,0.198-1.187-0.14c-0.746-0.526-0.729-0.351-1.663-0.328
		c0.058-0.335-0.246-0.513-0.406-0.768c-0.457-0.732-0.344-1.073-1.228-0.696c-0.514,0.22-1.042,0.413-1.55,0.649
		c-0.305,0.141-0.656,0.428-1.018,0.404c-0.441-0.029-0.764-0.589-1.278-0.463c-0.264,0.065-0.426,0.268-0.59,0.472
		c-0.276,0.343-0.277,0.315-0.096,0.66c0.126,0.24,0.417,0.369,0.489,0.622c0.065,0.231-0.104,0.625-0.148,0.852
		c-0.764,0.031-1.532-0.093-2.292-0.032c-0.534,0.043-1.222,0.421-1.745,0.325c-0.272-0.05-0.359-0.228-0.583-0.348
		c-1.591-0.856-2.218,1.043-3.614,1.245c-0.391,0.057-0.724,0.034-1.059,0.249c-0.154,0.099-0.223,0.28-0.397,0.375
		c-0.491,0.269-0.806-0.293-1.316,0.03c-0.288,0.182-0.295,0.445-0.493,0.676c-0.191,0.223-0.384,0.322-0.663,0.446
		c-0.481,0.214-0.633,0.09-1.179,0.092c0.077,0.059,0.081,0.099,0.013,0.121c-1.365-0.411-2.352-0.874-3.429-1.823
		c-0.296-0.26-0.564-0.446-0.698-0.823c-0.174-0.489-0.049-1.076-0.205-1.585c-0.111-0.36-0.267-0.935-0.462-1.254
		c-0.114-0.187-0.348-0.236-0.475-0.459c-0.24-0.422-0.064-1.025-0.049-1.486c0.018-0.549,0.025-0.967,0.313-1.45
		c0.205-0.344,0.278-0.309,0.303-0.735c0.014-0.243-0.097-0.487-0.061-0.738c0.037-0.255,0.123-0.441,0.25-0.66
		c0.197-0.341,1.209-1.102,1.173-1.456c-0.02-0.202-0.478-0.482-0.581-0.693c-0.225-0.46,0.001-0.762-0.037-1.242
		c-0.034-0.423-0.123-0.527-0.522-0.7c-0.395-0.171-1.343-0.038-1.631-0.362c-0.241-0.27,0.002-0.458,0.167-0.725
		c0.267-0.434,0.504-0.806,0.382-1.339c-0.094-0.414-0.442-0.86-0.784-1.11c-0.495-0.362-0.62-0.075-1.117,0.016
		c-0.938,0.172-1.33-0.054-1.223,0.972c0.072,0.691-0.197,0.888-0.776,1.139c-0.393,0.171-0.295,0.138-0.518,0.459
		c-0.203,0.292-0.516,0.706-0.882,0.809c-0.381,0.107-0.771,0.078-1.152,0.229c-0.414,0.164-0.586,0.567-0.933,0.748
		c-0.227,0.118-0.585,0.135-0.857,0.254c-0.283,0.123-0.46,0.177-0.757,0.221c-0.196,0.029-0.397,0.015-0.583,0.101
		c-0.161,0.074-0.281,0.314-0.456,0.348c-0.279,0.053-0.572-0.186-0.859-0.24c-0.525-0.098-0.93,0.007-1.176,0.496
		c-0.122-0.039-0.3-0.01-0.423-0.042c-0.241,0.441-0.23,0.99-0.448,1.454c-0.302,0.013-0.521,0.291-0.781,0.443
		c-0.313-0.21-0.495-0.575-0.772-0.782c-0.235-0.176-0.347-0.133-0.479-0.332c-0.201-0.303,0.054-0.484-0.491-0.499
		c-0.483-0.013-0.405,0.171-0.722,0.465c-0.217-0.266-0.517-0.508-0.842-0.632c-0.451,0.345-0.158,0.349-0.736,0.349
		c-0.294,0-0.57,0.037-0.828,0.192c-0.234-0.279-0.43-0.736-0.759-0.91c-0.401-0.212-0.97-0.05-1.416-0.17
		c-0.561-0.151-0.884-0.823-1.434-0.754c-0.702,0.088-0.111,0.775,0.172,1.153c0.445,0.594,0.975,1.08,1.527,1.572
		c0.436,0.389,0.772,0.674,0.786,1.267c0.012,0.556-0.244,1.161-0.002,1.689c0.141,0.308,0.493,0.474,0.683,0.751
		c0.338,0.495,0.274,1.002,0.282,1.55c0.009,0.647,0.218,0.748,0.836,0.755c0.468,0.005,0.945,0.013,1.413-0.004
		c0.485-0.018,0.778-0.202,0.97,0.192c0.115,0.235,0.131,0.882,0.077,1.12c-0.887,0.053-1.532,0.631-2.427,0.759
		c-0.462,0.065-0.798,0.058-1.217,0.285c-0.019,0.478,0.093,1.125-0.216,1.542c-0.259,0.349-0.83,0.783-1.162,1.08
		c-0.325-0.347-0.327-0.364-0.71-0.226c-0.367,0.133-0.696,0.563-1.03,0.772c-0.327-0.494-0.762-0.077-1.072,0.21
		c-0.345,0.32-0.691,0.48-0.843,0.868c-0.084,0.214,0.056,0.481-0.22,0.635c-0.144,0.08-0.404-0.077-0.546-0.011
		c-0.476,0.222-0.416,1.022-1.074,1.14c-0.164-0.37,0.273-0.662,0.2-1.035c-0.089-0.461-0.439-0.379-0.823-0.375
		c-0.452,0.004-0.999-0.039-1.385,0.249c-0.293,0.219-0.367,0.573-0.737,0.695c-0.764,0.252-1.101-0.101-1.579-0.589
		c-0.758-0.774-0.874-1.34-1.95-1.341c-0.731-0.001-1.163,0.016-1.151-0.788c0.009-0.593,0.157-1.215,0.004-1.81
		c-0.159-0.619-0.658-0.825-0.972-1.338c-0.18-0.295-0.177-0.75-0.53-0.857c-0.63-0.192-0.704,0.799-1.301,0.802
		c-0.199,0.001-0.388-0.194-0.572-0.105c-0.269,0.13-0.252,0.773-0.522,0.963c-0.159-0.154-1.068-1.047-1.269-1.008
		c-0.538,0.105,0.097,1.219,0.148,1.418h-7.656v3.1c1.55,0,3.67-0.124,3.283,2.029c-0.312,0.004-0.623,0.057-0.941,0.032
		c-0.219-0.438-0.625-0.406-0.991-0.242c-0.141,0.063-0.183,0.249-0.355,0.283c-0.122,0.025-0.317-0.162-0.487-0.132
		c-0.246,0.044-0.401,0.277-0.676,0.331c-0.271,0.052-0.594-0.007-0.868,0.004c-0.002,1.025-0.2,2.071-0.095,3.101
		c0.099,0.976,1.046,1.086,1.742,1.679c0.633,0.539,0.344,1.416,0.879,2.037c0.308,0.358,0.49,0.41,0.518,0.871
		c0.027,0.437-0.036,0.973-0.036,1.421L25.858,47.53c-0.072,0.17-0.138,0.341-0.194,0.517c-0.419,0.013-0.961,0.083-1.274-0.202
		c-0.21-0.19-0.191-0.453-0.46-0.612c-0.296-0.175-0.505-0.071-0.802-0.077c-0.368-0.007-0.642-0.02-0.978,0.134
		c-0.566,0.261-0.8,0.802-1.438,0.939c-0.589,0.126-1.036,0.149-1.609,0.391c-0.616,0.261-1,0.25-1.632,0.223
		c-0.62-0.027-0.653,0.269-1.099,0.663c-0.581,0.512-0.997,0.329-1.678,0.56c-0.341,0.116-0.538,0.416-0.852,0.602
		c-0.311,0.184-0.635,0.243-0.959,0.414c-1.272,0.673-0.407,1.97-0.694,3.056c-0.263,0.996-2.092,1.062-1.973,2.363
		c0.048,0.517,0.934,1.227,0.629,1.702c-0.113,0.176-0.59,0.309-0.777,0.409c-0.408,0.218-0.757,0.473-1.146,0.722
		c-0.717,0.458-1.221,0.863-1.055,1.774c0.11,0.6,0.361,0.987-0.317,1.244c-0.145,0.055-0.368-0.048-0.474,0.071
		c-0.123,0.139,0.033,0.664,0.099,0.788c0.206,0.391,0.833,0.592,0.974,0.974c0.127,0.347-0.266,0.649-0.143,0.949
		c0.077,0.186,0.388,0.274,0.519,0.431C8.687,65.76,8.776,66,8.833,66.253c0.124,0.556,0.162,0.541,0.642,0.885
		c0.545,0.391,0.151,0.475,0.365,0.99c0.152,0.364,0.84,0.524,1.192,0.792c0.462,0.351,0.855,1.138,0.654,1.734
		c-0.184,0.548-0.993,0.599-1.097,1.152c1.063,0.385,4.151-0.603,4.089,1.183c-0.07,2.033,1.79,1.849,3.244,1.915
		c1.037,0.047,1.595-0.301,2.479-0.752c0.823-0.419,1.582-1.103,2.412-1.459c0.448,0.498,0.025,0.907-0.248,1.288
		c-0.219,0.307-0.232,0.546-0.231,1.013c0.002,1.238-0.288,2.881,0.291,4.031c0.395,0.785,1.66,0.893,2.338,0.562
		c1.432-0.698,3.116-0.236,4.664-0.108c0.67,0.055,1.148,0.043,1.674,0.35c0.365,0.213,0.591,0.221,0.985,0.107
		c1.184-0.341,1.719-1.749,2.872-1.782c0.34-0.01,0.824,0.144,1.129-0.059c0.547-0.364,0.711-1.229,1.327-1.601
		c0.517-0.313,1.146-0.238,1.656-0.556c0.498-0.311,0.934-0.754,1.447-1.067c0.543-0.331,1.01-0.223,1.608-0.332
		c0.625-0.113,1.157-0.523,1.781-0.612c0.587-0.084,1.126,0.101,1.713-0.003c0.575-0.102,0.64-0.25,1.073-0.639
		c1.188,0.443,0.897,2.476,0.573,3.377c-0.154,0.43-0.216,0.964-0.106,1.432c0.109,0.467,0.424,0.791,0.308,1.292
		c-0.095,0.406-0.224,0.627-0.202,1.096c0.026,0.528,0.1,1.067,0.188,1.585c0.099,0.58,0.329,0.714,0.65,1.142
		c0.228,0.304,0.248,0.709,0.501,0.983c0.217,0.234,0.53,0.293,0.823,0.419c0.285,0.123,0.619,0.325,0.892,0.492
		c0.263,0.161,0.658,0.35,0.82,0.612c0.099,0.159,0.074,0.392,0.176,0.563c0.265,0.445,0.677,0.457,1.163,0.517
		c0.401,0.05,0.851,0.104,1.251,0.002c0.229-0.058,0.4-0.266,0.584-0.325c0.309-0.098,0.751,0.03,1.068,0.178
		c0.759,0.353,0.933,1.032,1.87,0.944c0.4-0.037,0.313-0.109,0.628,0.138c0.193,0.151,0.369,0.416,0.517,0.609
		c0.235,0.307,0.334,0.67,0.705,0.798c0.404,0.139,0.652-0.05,1.034,0.203c0.267,0.177,0.407,0.449,0.735,0.544
		c0.317,0.091,0.685-0.052,1.008,0.008c0.928,0.175,0.57,1.675,1.687,1.927c0.559,0.126,1.284-0.02,1.826-0.118
		c0.55-0.1,1.292-0.071,1.861-0.071c0.788,0.668,1.544,0.925,2.434,1.372c0.619,0.311,0.681,0.492,0.668,1.101
		c-0.022,1.004-0.082,1.149,0.372,2.039c0.443,0.87,0.37,1.848,0.321,2.855c-0.405,0.098-0.888,0.104-1.329,0.11
		c0.309,0.909,0.986,1.641,1.305,2.521c0.302,0.835-0.018,2.628,0.639,3.253c0.343,0.327,1.093,0.174,1.506,0.21
		c0.959,0.083,1.906,0.241,2.873,0.282c0.927,0.039,1.869,0.005,2.798-0.004c0.832-0.008,1.501-0.228,1.185,0.842
		c-0.194,0.657-0.471,0.994-0.363,1.765c0.143,1.03,1.039,2.809,2.018,3.174c0.361,0.134,0.5-0.074,0.811,0.208
		c0.152,0.138,0.213,0.432,0.285,0.613c0.273,0.694,0.308,1.428,0.826,1.994c0.827,0.905-0.115,1.288-0.511,2.155
		c-0.22,0.481-0.247,1.043-0.265,1.562c-0.022,0.599-0.136,1.03-0.408,1.574c-0.308,0.616-0.578,1.25-0.883,1.869
		c-0.247,0.499-0.514,0.967-0.612,1.521c-0.102,0.574-0.334,1.198-0.137,1.746c0.371,1.035,1.082,2.055,1.127,3.171
		c0.557,0.716,0.401,1.197,0.159,1.933c-0.251,0.76-0.229,1.457-0.229,2.254c0,0.551-0.104,1.229,0.06,1.757
		c0.271,0.871,0.614,0.381,1.287,0.621c0.442,0.158,0.598,0.527,1.138,0.627c0.598,0.111,1.241-0.053,1.844,0.063
		c0.595,0.115,0.932,0.323,1.515,0.155c0.596-0.172,0.81-0.561,1.309-0.98c0.433,0.367,0.897,0.77,1.441,0.97
		c0.434,0.16,0.978,0.03,1.383,0.265c0.889,0.515,0.915,2.263,1.018,3.174c0.055,0.492,0.273,1.008,0.279,1.488
		c0.006,0.446-0.206,0.854-0.142,1.345c0.07,0.54,0.232,0.888,0.421,1.372c0.128,0.328,0.127,0.973,0.562,1.136
		c0.636,0.239,2.071-0.296,2.732-0.483c0.972-0.275,1.476-0.317,2.045,0.578c0.883,1.387-0.109,2.947-0.321,4.356
		c-0.103,0.681,0.072,1.467-0.101,2.129c-0.193,0.739-0.545,1.009-0.548,1.83c0.472,0.445,1.442-0.093,1.893-0.334
		c0.218-0.116,0.148-0.149,0.385-0.093c0.199,0.047,0.508,0.318,0.695,0.429c0.402,0.237,0.322,0.428,0.356,0.918
		c0.037,0.534,0.028,1.116,0.279,1.601c0.17,0.328,0.615,0.588,0.69,0.916c0.169,0.732-0.612,1.381-0.599,2.078
		c0.006,0.327,0.279,1.039,0.575,1.178c0.136,0.783-1.609,1.594-2.147,1.922c-0.418,0.254-0.852,0.544-1.246,0.819
		c-0.251,0.176-0.446,0.462-0.72,0.612c-0.266,0.145-0.467,0.101-0.753,0.174c-0.651,0.167-0.848,0.843-1.317,1.279
		c-0.185,0.173-0.311,0.327-0.552,0.413c-0.306,0.111-0.731-0.026-1.042,0.173c-0.362,0.231-0.465,0.819-0.807,1.072
		c-0.417,0.308-0.889,0.316-1.302,0.728c0.164,0.261,0.272,0.622,0.165,0.91c-0.21-0.177-0.461-0.356-0.747-0.299
		c0.003,0.197-0.029,0.376-0.149,0.527c-0.118-0.042-0.255,0.014-0.37-0.013c-0.081,0.488-0.125,0.864-0.526,1.175
		c-0.488,0.379-0.812,0.453-1.019,1.087c-0.067,0.207-0.067,0.545-0.16,0.727c-0.228,0.447-0.491,0.229-0.949,0.367
		c-0.597,0.179-0.644,0.67-0.846,1.199c-0.314,0.819-1.046,1.469-1.602,2.137c-0.359,0.43-0.884,0.618-1.112,1.154
		c-0.115,0.272-0.094,0.522-0.296,0.748c-0.185,0.208-0.892,0.367-0.957,0.629c-0.098,0.399,0.636,0.48,0.891,0.499
		c0.378,0.029,0.735,0,0.981-0.268c0.181-0.197,0.18-0.557,0.451-0.698c0.515-0.27,1.862,0.193,2.17,0.646
		c0.257,0.379,0.135,0.601,0.491,0.932c0.29,0.27,0.59,0.545,0.87,0.834c0.485,0.501,0.858,1.113,1.321,1.616
		c0.288,0.311,0.727,1.047,1.189,1.024c0.186-0.181,0.398-0.341,0.595-0.518c0.335-0.303,0.485-0.421,0.821-0.129
		c0.394,0.342,0.609,0.629,0.81,1.103c0.158,0.374,0.33,0.873,0.635,1.156c0.487,0.453,0.672-0.035,1.081-0.202
		c0.094,0.529,0.325,0.874,0.845,1.016c0.446,0.122,0.992,0.292,1.448,0.364c-0.094,1.011,0.718,1.348,1.409,1.931
		c0.483,0.407,1.178,0.753,1.702,1.121c0.625,0.439,0.725,0.709,0.869,1.445c0.164,0.833,1.068,1.287,1.769,1.67
		c0.466,0.255,0.778,0.153,1.138-0.185c0.223-0.209,0.686-0.548,0.834-0.804c0.131-0.227,0.028-0.524,0.134-0.783
		c0.102-0.248,0.343-0.508,0.567-0.629c0.072,0.212,0.024,0.476,0.065,0.703c0.052,0.287,0.216,0.445,0.331,0.692
		c0.206,0.441,0.095,0.896-0.144,1.278c-0.219,0.349-0.362,0.923-0.694,1.174c-0.449,0.339-1.011-0.354-1.528-0.287
		c-0.152,0.283-0.072,0.619-0.237,0.915c-0.14,0.252-0.378,0.385-0.612,0.533c-0.43,0.273-0.715,0.576-0.654,1.134
		c0.028,0.261,0.185,0.537,0.158,0.802c-0.031,0.314-0.235,0.279-0.362,0.518c-0.205,0.384,0.168,0.958,0.503,1.13
		c0.442-0.177,0.784-0.841,1.1-1.192c0.396-0.441,0.863-0.688,1.31-1.086c0.829-0.738,1.119-1.818,1.512-2.807
		c0.207-0.52,0.458-0.997,0.683-1.505c0.286-0.646,0.511-1.556,0.984-2.078c0.373-0.413,1.027-0.766,1.475-1.127
		c0.604-0.487,1.225-0.914,1.798-1.448c1.009-0.942,1.966-1.687,2.734-2.853c0.733-1.113,1.718-2.109,2.309-3.295
		c0.339-0.681,0.588-1.366,0.821-2.086c0.222-0.685,0.609-1.407,0.741-2.106c0.214-1.136,1.278-1.984,1.853-3.002
		c0.898-1.594,2.196-2.354,3.653-3.336c0.532-0.359,0.767-1.179,0.919-1.809c0.206-0.852,0.481-1.737,0.48-2.611
		c0-0.313-0.068-0.745,0.007-1.046c0.067-0.268,0.258-0.497,0.323-0.768c0.214-0.902-0.045-1.801-0.339-2.643
		c-0.297-0.848-0.573-1.389-0.141-2.216c0.29-0.554,0.547-1.044,0.482-1.683c-0.094-0.93-0.583-2.641,0.654-3.056
		c0.506-0.767-0.459-0.421-0.702-0.713c-0.208-0.249,0.586-0.694,0.796-0.837c0.612,1.107,1.232-0.318,1.689-0.879
		c1.005-1.234,2.35-2.224,3.523-3.313c1.354-1.258,2.954-2.086,4.461-3.127c0.619-0.428,1.05-0.719,1.816-0.846
		c0.363-0.06,0.852-0.254,1.207-0.216c0.622,0.066,0.906,0.514,1.594,0.485c0.011-0.383-0.005-1.032,0.314-1.316
		c0.374-0.334,1.074-0.369,1.493-0.649c0.368-0.246,0.956-0.493,1.138-0.937c0.076-0.185-0.012-0.382,0.054-0.558
		c0.116-0.304,0.575-0.672,0.846-0.806c0.708-0.349,1.034,0.209,1.715,0.267c0.697,0.059,0.891-0.585,1.405-0.649
		c0.296-0.037,0.573,0.338,0.836,0.438c0.815,0.308,2.148,0.141,2.98,0.064c0.842-0.079,1.729-0.237,2.566-0.368
		c0.543-0.085,1.01-0.361,1.542-0.52c0.017,0.156,0.031,0.313,0.042,0.469c0.568,0.266,0.944-0.511,0.983-0.964
		c0.064-0.734,0.252-1.099,0.811-1.65c1.235-1.217,2.758-1.579,4.299-2.231c0.083-0.748-0.567-1.29-0.557-2.063
		c0.008-0.685,0.118-1.281,0.376-1.912c0.208-0.507,0.124-0.781,0.318-1.235c0.249-0.582,0.985-0.688,1.418-1.071
		c1.603-1.418,1.049-4.226,3.025-5.365c0.303-0.175,0.527-0.236,0.689-0.57c0.224-0.463,0.144-1.156,0.14-1.654
		c-0.008-1.043-0.446-2.13-0.242-3.166c0.135-0.684,0.562-1.346,0.869-1.963c0.275-0.554,0.457-1.076,0.949-1.466
		c0.329-0.261,0.833-0.4,1.01-0.819c0.148-0.352,0.017-0.882-0.001-1.251c-0.042-0.878-0.228-1.85-0.024-2.725
		c0.211-0.906,0.564-1.755,0.732-2.676c0.114-0.624,0.207-1.172,0.437-1.753c0.203-0.515,0.172-0.561-0.02-1.106
		c-0.147-0.418,0.009-1.077-0.085-1.54c-0.164-0.814-0.079-1.648-0.282-2.455c-0.101-0.401-0.295-0.828-0.34-1.241
		c-0.072-0.672,0.32-1.38,0.547-1.988c0.165-0.44,0.365-0.935,0.388-1.414c0.031-0.63-0.358-1.147-0.185-1.741
		c0.128-0.44,0.27-0.675,0.238-1.127c-0.037-0.537,0.052-0.821,0.378-1.276c0.158-0.22,0.451-0.355,0.471-0.628
		c0.027-0.36-0.382-0.657-0.334-1.049c0.177-1.446,1.053,0.136,1.236,0.521c0.228,0.48,0.307,0.563,0.658,0.031
		c0.392-0.595,0.614-1.1,1.114-1.631c0.755-0.803,1.585-1.685,2.15-2.634c0.282-0.474,0.391-1.028,0.634-1.52
		c0.268-0.542,0.599-1.072,0.89-1.601c0.399-0.726,0.803-1.504,1.334-2.144c0.766-0.924,1.961-1.333,2.837-2.117
		c0.688-0.616,1.261-1.113,1.854-1.787c0.82-0.932,1.473-2.016,2.193-3.02c0.684-0.955,1.698-1.751,2.192-2.818
		c0.269-0.583,0.19-1.292,0.575-1.825c0.269-0.373,0.535-0.595,0.631-1.061c0.075-0.361,0.043-0.728,0.111-1.088
		c0.098-0.52,0.273-0.97,0.277-1.507c0.004-0.472-0.034-0.938-0.069-1.407c-0.041-0.544-0.036-1.087-0.036-1.634
		c0-0.775-0.549-1.713-0.678-2.489c-0.201-1.204-0.477-2.345-0.781-3.521c-0.271-1.05-0.745-2.622-1.732-3.24
		c-0.642-0.402-1.604-0.545-2.351-0.544c-0.756,0.002-1.754-0.085-2.49,0.141c-0.615,0.189-1.035-0.108-1.539-0.431
		c-0.628-0.403-1.446-0.099-1.913-0.653c-0.257-0.304-0.496-0.607-0.87-0.766c-0.422-0.179-0.723-0.113-1.083-0.419
		c-0.492-0.418-0.811-0.981-1.221-1.468c-0.448-0.532-0.958-0.951-1.477-1.407c-0.196-0.172-0.337-0.345-0.528-0.518
		c-0.443-0.401-0.975-0.683-1.443-1.051c-1.522-1.198-3.084-2.252-4.783-3.196c-0.74-0.411-1.737-0.666-2.576-0.696
		c-1.193-0.042-2.459-0.012-3.64,0.128c-0.957,0.114-2.006,0.304-2.967,0.113c-0.574-0.114-0.973-0.495-1.556-0.55
		c-0.821-0.076-1.618-0.058-2.415-0.316c-1.129-0.366-2.136-1.102-3.237-1.524c-0.314-0.12-0.891-0.27-1.212-0.139
		c-0.262,0.106-0.264,0.345-0.652,0.316c-0.299-0.023-0.386-0.161-0.599-0.359c-0.34,0.296-0.65,0.701-0.954,1.031
		c-0.426,0.465-0.855,0.654-1.469,0.833c-0.104-0.399,0.422-0.407,0.521-0.696c0.091-0.263-0.077-0.486-0.267-0.566
		c-0.614-0.257-1.323,0.085-1.463,0.705c-0.066,0.294,0.003,0.934-0.316,1.116c-0.23,0.13-0.548-0.143-0.582-0.383
		c-0.042-0.3,0.3-0.638,0.441-0.9c0.318-0.595,0.693-1.275,0.602-1.978c-0.072-0.553-0.503-1.085-0.901-1.446
		c-0.279-0.252-0.461-0.354-0.478-0.738c-0.025-0.561,0.119-0.607-0.527-0.904c-0.307-0.141-0.786-0.383-1.107-0.217
		c-0.265,0.138-0.733,0.694-0.901,0.955c-0.256-0.211-0.341-0.518-0.543-0.763c-0.138-0.169-0.351-0.312-0.515-0.456
		c-0.629-0.553-1.544-1.144-2.351-1.395c-0.655-0.204-1.34-0.026-1.963-0.31c-0.723-0.328-1.573-1.071-2.413-0.996
		c-0.61,0.054-0.989-0.727-1.597-0.803c-0.496-0.061-0.768,0.285-1.222,0.312c-0.417,0.025-0.795-0.376-1.216-0.44
		c-0.804-0.123-1.341,0.583-1.971,1.021c-0.286,0.198-0.53,0.336-0.697,0.659c-0.221,0.426-0.167,0.875-0.492,1.271
		c-0.5,0.609-1.575,1.171-1.824,1.928c-0.398-0.157-0.314-0.291-0.634,0.068c-0.24,0.269-0.546,0.461-0.792,0.721
		c-0.395,0.419-0.524,1.025-0.793,1.52c-0.293,0.538-0.556,0.968-0.703,1.558c-0.042,0.167-0.092,0.426-0.262,0.489
		c-0.169,0.063-0.442-0.096-0.485-0.295c-0.038-0.177,0.204-0.382,0.279-0.503c0.276-0.441,0.33-0.922,0.498-1.408
		c0.18-0.521,0.593-1.036,0.532-1.616c-0.203-0.033-0.439,0.118-0.639,0.171c-0.301,0.079-0.609,0.127-0.909,0.216
		c-0.241,0.072-0.469,0.199-0.721,0.22c-0.359,0.029-0.653-0.201-1.011-0.193c-0.643,0.013-1.423,0.482-2.06,0.354
		c-0.603-0.121,0.037-0.301,0.313-0.421c0.42-0.183,0.702-0.429,1.172-0.46c0.602-0.039,1.2,0.047,1.797,0.072
		c0.796,0.033,1.477-0.292,2.189-0.606c0.582-0.256,1.544-0.561,1.988-1.032c0.353-0.374,0.21-0.926,0.488-1.321
		c0.311-0.442,0.93-0.47,1.199-0.959c0.401-0.729,1.091-2.138,0.741-2.988c-0.082-0.198-0.509-0.159-0.701-0.158
		c-0.504,0.001-1.017,0.023-1.518-0.037c-0.732-0.088-1.642-0.666-2.361-0.175c-0.839,0.573-2.423,0.1-3.314-0.311
		c-0.354-0.163-0.897-0.532-1.305-0.47c-0.339,0.052-0.431,0.328-0.666,0.566c-0.498,0.504-1.172,0.641-1.315,1.43
		c-0.116,0.636,0.116,1.607-0.399,2.129c-0.389,0.394-1.262,0.235-1.537-0.106c-0.364-0.451,0.013-1.227-0.46-1.53
		c-0.301-0.193-0.863-0.075-1.167-0.193L112.953,29.562z"/>
</g>
</svg>
