<?xml version="1.0" encoding="utf-8"?>
<!-- Generator: Adobe Illustrator 26.0.3, SVG Export Plug-In . SVG Version: 6.00 Build 0)  -->
<svg version="1.1" xmlns="http://www.w3.org/2000/svg" xmlns:xlink="http://www.w3.org/1999/xlink" x="0px" y="0px"
	 viewBox="0 0 200 200" enable-background="new 0 0 200 200" xml:space="preserve">
<g id="Layer_1">
	<g id="Layer_1_00000147937870657440012780000016131799753701383612_">
	</g>
</g>
<g id="c">
	<g>
		<polygon fill-rule="evenodd" clip-rule="evenodd" fill="#1E8346" points="181.485,91.589 181.483,91.594 181.486,91.59 		"/>
		<path fill-rule="evenodd" clip-rule="evenodd" fill="#1E8346" d="M181.385,84.358c-0.368-0.213-0.111-0.767-0.454-1.014
			c-0.314-0.226-0.749-0.36-0.811-0.794c-0.049-0.338-0.246-0.527-0.44-0.764c-0.753-0.922-1.296-1.961-1.577-3.123
			c-0.092-0.381-0.245-0.842,0.008-1.141c0.38-0.449,0.357-1.215,1.115-1.382c0.218-0.048,0.241-0.367,0.095-0.567
			c-0.116-0.16-0.306-0.143-0.426,0.018c-0.265,0.354-0.512,0.169-0.796,0.023c-0.585-0.301-1.011-0.773-1.485-1.209
			c-0.34-0.313-0.424-0.661-0.255-0.952c0.282-0.484,0.111-0.772-0.223-1.081c-0.636-0.588-0.884-1.311-0.864-2.182
			c0.014-0.609-0.09-1.222-0.208-1.831c-0.137-0.708-0.333-1.402-0.423-2.127c-0.066-0.532-0.213-1.19-0.589-1.6
			c-0.496-0.542-0.947-1.126-1.495-1.633c-0.834-0.774-1.822-1.281-2.762-1.876c-0.37-0.233-0.811-0.183-1.209-0.311
			c-0.226-0.073-0.476,0.05-0.537,0.296c-0.207,0.838-0.851,1.503-0.89,2.42c-0.02,0.475-0.018,0.95-0.028,1.424
			c-0.046,2.293-0.217,4.581,0.173,6.874c0.284,1.669-0.401,3.126-1.421,4.423c-0.331,0.422-0.974,0.401-1.289,0.864
			c-0.015,0.022-0.121,0.018-0.144-0.009c-0.257-0.302-0.458-0.013-0.665,0.068c-0.772,0.301-1.279,0.964-1.928,1.435
			c-0.341,0.248-0.669,0.529-1.117,0.529c-0.477,0-0.953-0.038-1.439-0.033c0.45-0.241,0.925-0.341,1.422-0.315
			c0.353,0.018,0.651-0.06,0.908-0.328c0.805-0.837,1.786-1.416,2.835-1.891c0.025-0.012,0.049-0.028,0.072-0.044
			c1.139-0.763,1.724-1.813,1.626-3.199c-0.051-0.728-0.167-1.45-0.355-2.155c-0.133-0.496-0.197-0.987-0.089-1.493
			c0.146-0.684,0.003-1.34-0.219-1.98c-0.092-0.265-0.226-0.521-0.231-0.804c-0.015-0.922-0.459-1.684-0.992-2.363
			c-0.458-0.585-0.686-1.202-0.741-1.918c-0.028-0.363-0.141-0.727-0.116-1.084c0.047-0.672-0.115-1.29-0.427-1.855
			c-0.315-0.57-1.056-0.787-1.275-1.48c-0.045-0.142-0.387-0.182-0.584-0.285c-1.276-0.666-2.535-1.348-3.626-2.32
			c-0.299-0.267-0.568-0.578-0.899-0.812c-0.134-0.095-0.248-0.221-0.44-0.203c-0.519,0.046-0.55,0.049-0.643-0.345
			c-0.131-0.556-0.442-0.837-1.013-0.94c-0.479-0.086-0.893-0.274-1.097-0.85c-0.174-0.49-0.601-0.859-1.175-0.99
			c-0.58-0.132-1.011,0.07-1.428,0.457c-0.447,0.416-0.992,0.492-1.571,0.288c-0.618-0.218-0.615-0.217-0.89,0.336
			c-0.138,0.279-0.279,0.568-0.276,0.876c0.008,0.971-0.564,1.746-0.883,2.599c-0.188,0.503-0.625,0.913-0.951,1.365
			c0.091-0.366,0.253-0.681,0.44-0.981c0.524-0.839,0.91-1.73,1.036-2.719c0.076-0.595,0.268-1.137,0.599-1.643
			c0.175-0.267,0.382-0.425,0.688-0.37c0.592,0.108,0.917-0.212,1.235-0.646c0.531-0.725,0.526-0.944-0.169-1.513
			c-0.171-0.14-0.482-0.299-0.359-0.505c0.359-0.601-0.195-0.748-0.448-1.038c-0.243-0.279-0.742-0.342-0.714-0.854
			c0.002-0.031-0.081-0.098-0.119-0.095c-0.351,0.034-0.579-0.121-0.759-0.416c-0.101-0.167-0.319-0.15-0.457-0.073
			c-0.348,0.195-0.714,0.291-1.106,0.349c-0.267,0.04-0.466,0.194-0.31,0.531c0.219,0.475-0.138,0.791-0.342,1.144
			c-0.175,0.302-0.435,0.411-0.784,0.326c-0.187-0.046-0.321,0.093-0.436,0.207c-0.445,0.44-0.982,0.257-1.486,0.213
			c-0.269-0.024-0.479-0.206-0.568-0.561c0.323,0.104,0.509,0.391,0.817,0.286c0.591-0.202,1.181-0.408,1.88-0.651
			c-0.527-0.307-0.896-0.596-1.227-0.93c-0.667-0.673-0.871-1.699-1.71-2.245c-0.045-0.029-0.006-0.168-0.039-0.24
			c-0.044-0.097-0.107-0.242-0.184-0.258c-0.484-0.1-0.725-0.553-1.129-0.753c-0.484-0.24-0.862-0.58-1.206-0.996
			c-0.335-0.405-0.694-0.906-1.15-1.072c-1.405-0.513-2.196-1.989-3.714-2.282c-0.051-0.01-0.098-0.055-0.139-0.092
			c-0.593-0.554-1.207-1.081-1.736-1.708c-0.801-0.95-1.704-1.755-3.108-1.456c-0.076,0.016-0.106-0.025-0.047-0.094
			c0.614,0.199,0.757-0.441,1.211-0.645c-0.778-0.551-1.428-1.103-1.722-1.962c-0.037-0.109-0.09-0.22-0.212-0.237
			c-0.62-0.082-0.99-0.611-1.526-0.845c-1.039-0.453-1.578-1.527-2.544-2.076c-0.034-0.786-0.526-1.294-1.065-1.78
			c-0.051-0.046-0.029-0.165-0.063-0.24c-0.225-0.486-0.65-0.828-0.933-1.273c-0.639,0.045-1.018-0.518-1.577-0.678
			c-0.273-0.078-0.766-0.088-0.559-0.668c0.037-0.103-0.188-0.334-0.331-0.461c-0.354-0.314-0.708-0.617-1.003-0.997
			c-0.138-0.179-0.358-0.351-0.648-0.327c-0.23,0.019-1.041-0.179-1.179-0.279c-1.271-0.92-2.658-1.653-3.999-2.458
			c-0.54-0.324-1.117-0.638-1.674-0.618c-0.358,0.218,0.082,0.427-0.133,0.613c-0.304-0.153-0.545-0.362-0.665-0.649
			c-0.256-0.613-0.734-0.698-1.308-0.637c-0.445,0.048-0.909,0.162-1.335,0.004c-0.841-0.311-1.635-0.747-2.341-1.287
			c-0.327-0.25-0.785-0.346-0.995-0.721c-0.349-0.623-0.958-0.804-1.56-1.024c-0.627-0.228-1.241-0.491-1.871-0.711
			c-1.219-0.426-2.356-1.035-3.528-1.567c-0.492-0.224-0.927-0.141-1.359,0.109c-0.313,0.182-0.289,0.324,0.009,0.544
			c0.219,0.162,0.664,0.071,0.633,0.527c0.002,0.003,0.004,0.005,0.006,0.009c0.028-0.007,0.054-0.006,0.082-0.009
			c-0.025-0.002-0.051,0.001-0.081,0.01c0,0,0-0.001-0.001-0.001c-0.002,0-0.004,0-0.006,0.001c0-0.004-0.001-0.006,0-0.009
			c-0.237-0.373-0.569-0.263-0.888-0.158c-0.484,0.16-0.984,0.317-1.468,0.096c-0.925-0.42-1.941-0.504-2.891-0.832
			c-0.84-0.29-1.692-0.515-2.619-0.389c-0.799,0.108-1.654,0.223-2.417-0.053c-1.309-0.474-2.674-0.851-3.824-1.693
			c-1.578-1.156-3.438-1.726-5.22-2.43c-1.594-0.63-3.111-1.372-4.568-2.261c-1.074-0.655-2.16-1.291-3.264-1.895
			c-0.636-0.348-1.343-0.493-2.074-0.486c0.304,0.227,0.636,0.367,0.952,0.538c0.277,0.15,0.625,0.217,0.75,0.569
			c0.008-0.003,0.016-0.003,0.024-0.006c0.003,0.008,0.008,0.014,0.011,0.022c0.251,0.013,0.433,0.138,0.567,0.389
			c-0.312,0.023-0.467-0.142-0.567-0.389c-0.01,0-0.019-0.004-0.03-0.004c-0.001-0.004-0.004-0.008-0.005-0.012
			c-0.241,0.073-0.399-0.11-0.59-0.198c-1.14-0.52-2.24-1.164-3.582-0.989c-0.533,0.069-1.05-0.075-1.54-0.326
			c-0.503-0.258-1.051-0.382-1.619-0.408c-0.352-0.016-0.589,0.097-0.66,0.484c-0.055,0.301-0.116,0.621-0.396,0.811
			c-0.277,0.188-0.388,0.469-0.481,0.766c-0.182,0.579-0.212,1.24-0.88,1.551c-0.082,0.038-0.113,0.187-0.167,0.285
			c-0.462,0.83-0.43,1.773-0.568,2.67c-0.111,0.725-0.187,1.484,0.096,2.211c0.037,0.095,0.023,0.235-0.021,0.33
			c-0.291,0.63-0.276,1.306-0.341,1.974c-0.063,0.649-0.321,1.201-1.043,1.363c-0.27,0.06-0.378,0.209-0.507,0.465
			c-0.264,0.525-0.525,1.074-0.987,1.476c-0.167,0.055-0.333,0.111-0.5,0.166c-0.425,0.47-0.883,0.903-1.193,1.477
			c-0.281,0.52-0.596,1.005-1.222,1.266c-0.382,0.159-0.759,0.67-0.698,1.076c0.079,0.523-0.12,0.864-0.398,1.17
			c-0.459,0.505-0.925,1.066-1.509,1.377c-0.636,0.339-0.94,0.848-1.192,1.428c-0.122,0.281-0.266,0.463-0.545,0.583
			c-0.422,0.181-0.732,0.622-1.271,0.531c-0.625-0.106-0.654,0.606-1.07,0.789c-0.026,0.011-0.049,0.03-0.076,0.036
			c-1.092,0.235-1.78,0.97-2.334,1.876c-0.131,0.215-0.288,0.412-0.493,0.569c-0.388,0.298-0.657,0.677-0.805,1.151
			c-0.065,0.21-0.198,0.399-0.299,0.597c-0.493,0.967-1.344,1.737-1.577,2.851c-0.019,0.091-0.136,0.188-0.231,0.231
			c-0.615,0.281-0.922,0.746-0.948,1.425c-0.006,0.144-0.138,0.315-0.259,0.418c-0.539,0.456-1.042,0.972-1.814,1.042
			c-0.338,0.031-0.502,0.32-0.402,0.606c0.259,0.739-0.053,1.405-0.389,1.947c-0.473,0.763-0.863,1.474-0.654,2.396
			c0.021,0.094-0.052,0.214-0.093,0.317c-0.064,0.162-0.08,0.311-0.009,0.484c0.175,0.431,0.182,0.903,0.027,1.314
			c-0.142,0.378-0.148,0.92-0.541,1.087c-0.423,0.179-0.303,0.782-0.836,0.843c-0.261,0.029-0.422,0.35-0.532,0.611
			c-0.11,0.262,0.104,0.399,0.244,0.571c0.062,0.077,0.044,0.215,0.084,0.316c0.2,0.505,0.049,1.023,0.064,1.535
			c0.024,0.8,0.271,1.606-0.077,2.394c-0.021,0.047-0.033,0.132-0.007,0.159c0.419,0.438,0.194,1.011,0.326,1.504
			c0.164,0.616,0.13,1.143-0.496,1.532c0.272,0.17,0.508,0.208,0.557,0.564c0.074,0.539,0.315,0.676,0.81,0.567
			c0.557-0.123,0.979,0.066,1.363,0.43l-0.024-0.016c0.386,0.425,0.319,0.849,0,1.274l-0.027,0.028
			c-0.196,0.461-0.412,0.909-0.128,1.427c0.124,0.226-0.028,0.413-0.22,0.568c-0.425,0.341-0.486,0.703-0.247,1.171
			c-0.016,0.225,0.044,0.471,0.186,0.752c0.035-0.089,0.087-0.151,0.143-0.205c0.354,0.582,0.645,1.183,0.472,1.947
			c-0.092,0.408-0.296,0.766-0.394,1.174c-0.1,0.415-0.174,0.838-0.636,1.202c-0.447,0.352-0.722,1.057-0.281,1.821
			c0.411,0.714,0.639,1.599,0.511,2.417c-0.121,0.771-0.295,1.492,0.066,2.227c0.056,0.114,0.023,0.214-0.001,0.323
			c-0.117,0.558-0.172,1.134-0.395,1.663c-0.112,0.266-0.146,0.503,0.098,0.673c0.244,0.17,0.424-0.041,0.568-0.202
			c0.283-0.316,0.551-0.452,0.911-0.097c0.082,0.081,0.274,0.038,0.4,0.09c0.394,0.163,0.815,0.752,0.692,1.149
			c-0.242,0.778-0.036,1.628-0.429,2.369c-0.066,0.125-0.175,0.285-0.052,0.378c0.366,0.279,0.224,0.798,0.566,1.092
			c0.231,0.198,0.244,0.486,0.118,0.775c-0.372,0.848-0.435,1.767-0.597,2.663c-0.095,0.524,0.196,0.917,0.402,1.338
			c0.155,0.318,0.475,0.225,0.747,0.25c0.233,0.021,0.388,0.183,0.573,0.311c0.472,0.325,0.833,0.815,1.462,0.918
			c0.533,0.087,0.803,0.634,0.489,1.055c-0.226,0.303-0.347,0.686-0.701,0.917c-0.38,0.249-0.546,0.607-0.311,1.088
			c0.139,0.283,0.126,0.634-0.102,0.876c-0.292,0.311-0.283,0.713-0.42,1.07c-0.155,0.405-0.177,0.706,0.396,0.73
			c0.198,0.008,0.289,0.253,0.442,0.364c0.387,0.281,0.562,0.77,0.963,1.008c0.336,0.199,0.439,0.317,0.337,0.767
			c-0.117,0.52,0.409,1.057,0.199,1.652c0.746,0.338,0.564,1.154,0.872,1.72c0.171,0.314,0.598,0.453,0.637,0.748
			c0.062,0.467,0.362,0.456,0.662,0.531c0.471,0.117,0.849,0.474,0.904,0.872c0.076,0.549,0.398,0.98,0.504,1.5
			c0.092,0.451,0.428,0.681,0.871,0.599c0.454-0.084,0.825,0.112,1.209,0.251c0.588,0.212,0.69,0.573,0.365,1.122
			c-0.057,0.096-0.143,0.174-0.204,0.267c-0.207,0.317-0.158,0.628,0.015,0.946c0.171,0.314,0.455,0.289,0.732,0.263
			c0.192-0.018,0.383-0.073,0.571-0.123c1.373-0.368,2.581,0.293,3.034,1.613c0.251,0.731,0.818,1.325,0.953,2.116
			c0.012,0.07,0.094,0.143,0.162,0.188c0.775,0.513,0.869,1.146,0.411,1.939c-0.226,0.392-0.062,0.818,0.323,1.062
			c0.284,0.18,0.572,0.353,0.869,0.511c0.412,0.219,0.679,0.509,0.537,1.009c-0.097,0.34,0.096,0.436,0.364,0.519
			c0.486,0.151,0.561,0.12,0.85-0.441c0.274-0.531,0.835-0.624,1.226-0.19c0.284,0.316,0.485,0.69,0.583,1.104
			c0.046,0.194,0.071,0.375,0.233,0.52c0.154,0.138,0.467,0.167,0.401,0.471c-0.053,0.243-0.117,0.5-0.246,0.707
			c-0.175,0.28-0.413,0.519-0.698,0.704c-0.297,0.194-0.607,0.619-0.468,0.808c0.46,0.624-0.393,1.442,0.357,1.971
			c0.025,0.018-0.013,0.164-0.055,0.229c-0.432,0.689-0.364,1.449-0.332,2.207c0.014,0.333-0.045,0.614-0.246,0.931
			c-0.278,0.439-0.609,0.982-0.121,1.525c0.185,0.206,0.132,0.39,0.015,0.607c-0.178,0.333-0.442,0.537-0.753,0.752
			c-0.68,0.468-1.381,0.973-1.284,1.969c0.017,0.174-0.001,0.34-0.175,0.437c-0.237,0.133-0.229,0.355-0.222,0.581
			c0.014,0.477-0.348,0.948-0.009,1.436c0.083,0.119,0.043,0.308-0.081,0.38c-0.449,0.263-0.338,0.723-0.404,1.154
			c-0.562,0.01-1.117,0.154-1.598-0.369c-0.231,0.626-1.091,0.613-1.11,1.353c-0.001,0.034-0.077,0.086-0.126,0.097
			c-0.625,0.138-0.862,0.779-1.378,1.059c-0.144,0.078-0.223,0.221-0.281,0.395c-0.241,0.725-0.961,1.126-1.269,1.814
			c-0.024,0.053-0.156,0.099-0.225,0.085c-0.468-0.095-0.552,0.244-0.66,0.562c-0.153,0.45-0.419,0.898-0.431,1.352
			c-0.015,0.615-0.967,1.109-0.23,1.803c0.011,0.01-0.049,0.094-0.072,0.145c-0.128,0.282-0.034,0.486,0.222,0.634
			c0.284,0.164,0.367-0.071,0.528-0.229c0.375-0.369,0.691-0.285,0.827,0.244c0.143,0.558,0.346,1.138,0.004,1.703
			c-0.145,0.24-0.163,0.478-0.011,0.712c0.181,0.281,0.097,0.397-0.188,0.574c-0.617,0.382-0.556,0.573-0.191,1.196
			c0.356,0.607,0.936,1.239,0.369,2.042c-0.089,0.126-0.034,0.267-0.005,0.405c0.12,0.572,0.324,1.076,1.098,1.236
			c-0.48,0.2-0.877,0.317-0.674,0.874c0.07,0.192-0.245,0.442,0.004,0.693c0.073,0.074-0.02,0.204-0.075,0.306
			c-0.152,0.281-0.547,0.211-0.684,0.442c-0.173,0.293,0.317,0.519,0.171,0.854c-0.078,0.179-0.123,0.373-0.203,0.551
			c-0.296,0.658-0.207,1.252,0.299,1.765c0.103,0.104,0.191,0.181,0.188,0.34c-0.012,0.656-0.283,1.013-0.948,1.257
			c-0.231,0.084-0.427,0.121-0.296,0.518c0.114,0.347,0.384,0.894,0.195,1.095c-0.415,0.44-0.332,0.974-0.528,1.439
			c-0.084,0.198-0.168,0.51-0.385,0.519c-0.48,0.018-0.223,0.599-0.609,0.685c-0.376,0.083-0.579,0.419-0.782,0.72
			c-0.079,0.116-0.126,0.271-0.273,0.301c-1.08,0.222-0.955,1.209-1.167,1.931c-0.146,0.498-0.32,1.194-0.744,1.487
			c-0.379,0.262-0.656,0.615-0.942,0.952c-0.285,0.336-0.474,0.753-0.705,1.134c0.336,0.575-0.183,0.957-0.321,1.425
			c-0.111,0.375-0.244,0.745-0.331,1.125c-0.067,0.29-0.146,0.527-0.467,0.631c-0.28,0.09-0.381,0.315-0.311,0.603
			c0.227,0.937-0.241,1.607-0.877,2.187c-0.29,0.265-0.634,0.458-0.593,0.934c0.013,0.146-0.124,0.246-0.268,0.285
			c-0.316,0.085-0.453,0.292-0.456,0.614c-0.002,0.149-0.099,0.293-0.226,0.333c-0.398,0.125-0.531,0.474-0.725,0.777
			c-0.489,0.762-1.184,1.292-2.088,1.078c-1.041-0.246-1.619,0.27-2.185,0.956c-0.018,0.022-0.034,0.045-0.052,0.066
			c-0.867,1.039-1.321,2.191-0.966,3.561c0.028,0.111,0.055,0.216-0.027,0.313c-0.15,0.176-1.068,0.253-1.249,0.065
			c-0.37-0.383-0.876-0.479-1.328-0.682c-0.694-0.312-1.317-0.05-1.886,0.34c-0.434,0.297-0.418,0.608-0.021,0.946
			c0.219,0.188,0.439,0.188,0.702,0.091c0.506-0.187,1.03-0.258,1.572-0.191c0.674,0.084,0.85,0.318,0.729,1.006
			c-0.096,0.542-0.011,0.743,0.506,0.982c0.215,0.099,0.405,0.182,0.481,0.454c-0.43,0.288-1.033,0.163-1.52,0.606
			c0.55,0.338,1.054,0.652,1.565,0.953c0.061,0.036,0.172,0.019,0.247-0.008c0.517-0.189,0.684,0.135,0.704,0.536
			c0.019,0.371,0.162,0.479,0.511,0.484c0.352,0.005,0.59,0.186,0.536,0.587c-0.03,0.222,0.119,0.293,0.27,0.37
			c0.631,0.321,1.233,0.626,1.97,0.174c0.474-0.291,0.642-0.166,0.825,0.426c0.063,0.204,0.169,0.252,0.358,0.261
			c0.789,0.039,1.488-0.39,2.268-0.426c0.177-0.008,0.336-0.34,0.569-0.097c0.223,0.233-0.043,0.395-0.117,0.583
			c-0.02,0.052-0.042,0.104-0.065,0.155c-0.322,0.699-0.146,1.032,0.609,1.105c0.412,0.04,0.577,0.161,0.32,0.577
			c-0.145,0.234,0.023,0.361,0.246,0.409c0.194,0.041,0.43,0.093,0.574-0.029c0.402-0.34,0.773-0.157,1.167-0.016
			c0.422,0.15,0.857,0.265,1.28,0.413c0.375,0.132,0.721,0.114,1.023-0.156c0.375-0.336,0.767-0.255,1.117-0.009
			c0.334,0.235,0.57,0.191,0.902-0.026c0.573-0.375,1.092-0.866,1.83-1.039c0.092,0.562,0.318,1.027,0.599,1.49
			c0.267,0.441,0.773,0.615,1.017,1.09c0.083,0.162,0.553,0.487,0.882,0.253c0.584-0.416,1.029-0.232,1.473,0.197
			c0.081,0.078,0.19,0.115,0.377,0.057c-0.138-0.32-0.13-0.625,0.254-0.795c0.248-0.11,0.194-0.647,0.654-0.469
			c0.223-0.308-0.134-0.597-0.029-0.906c0.045-0.131,0.021-0.292,0.084-0.41c0.307-0.572,0.689-1.096,1.11-1.59
			c0.041-0.048,0.191-0.076,0.225-0.044c0.425,0.396,1.003,0.313,1.496,0.494c0.774,0.284,0.79,0.271,1.19-0.494
			c0.118-0.225,0.259-0.35,0.508-0.478c0.434-0.223,0.938-0.19,1.322-0.417c0.37-0.218,0.733-0.363,1.143-0.444
			c0.452-0.089,0.868-0.649,0.7-1.068c-0.274-0.685-0.021-1.302,0.06-2.054c0.366,0.304,0.723,0.14,1.072,0.141
			c0,0.238-0.036,0.434,0.009,0.61c0.06,0.233,0.283,0.322,0.459,0.176c0.316-0.262,0.665-0.477,0.974-0.729
			c0.145-0.118,0.047-0.567,0.129-0.862c0.037-0.131,0.016-0.279,0.012-0.419c-0.008-0.314,0.149-0.532,0.451-0.433
			c0.441,0.146,0.869-0.128,1.353,0.136c0.483,0.263,1.043-0.204,1.575-0.325c0.171-0.039,0.128-0.216,0.081-0.354
			c-0.076-0.218-0.236-0.287-0.457-0.287c-0.161,0-0.372,0.008-0.392-0.215c-0.017-0.192,0.153-0.27,0.311-0.345
			c0.274-0.13,0.691-0.11,0.795-0.418c0.281-0.825,1.059-1.018,1.688-1.355c0.293-0.157,0.721-0.435,1.106-0.175
			c0.326,0.22,0.67,0.087,1.029,0.089c-0.097,0.256-0.295,0.251-0.422,0.345c-0.073,0.053-0.13,0.108-0.108,0.199
			c0.03,0.123,0.162,0.232,0.239,0.181c0.51-0.341,0.642,0.171,0.917,0.375c0.248,0.184,0.242,0.35,0.016,0.532
			c-0.232,0.187-0.693,0.223-0.416,0.726c0.066,0.121-0.113,0.151-0.227,0.125c-0.156-0.035-0.335-0.152-0.436,0.062
			c-0.087,0.184,0.081,0.311,0.169,0.446c0.256,0.392,0.505,0.476,0.902,0.255c0.171-0.095,0.307-0.263,0.523-0.177
			c0.271,0.107,0.519,0.116,0.805,0.014c0.242-0.086,0.376,0.089,0.485,0.331c0.223,0.497,0.597,0.556,0.968,0.179
			c0.082-0.083,0.184-0.213,0.253-0.159c0.236,0.184,0.511,0.293,0.75,0.454c0.103,0.07-0.045,0.307-0.109,0.462
			c-0.041,0.1-0.054,0.211-0.111,0.442c0.895-0.275,1.719,0.599,2.58-0.087c0.129-0.103,0.35,0.042,0.446,0.152
			c0.408,0.468,0.841,0.773,1.518,0.595c0.227-0.059,0.452,0.162,0.659,0.318c0.472,0.356,1.008,0.49,1.55,0.169
			c0.422-0.25,0.803,0.127,1.223,0.008c0.594-0.169,1.206-0.25,1.817-0.016c0.118,0.045,0.279,0.007,0.413-0.025
			c0.197-0.046,0.375-0.156,0.449-0.348c0.093-0.24-0.112-0.341-0.266-0.46c-0.109-0.084-0.223-0.17-0.307-0.277
			c-0.074-0.093-0.066-0.22,0.032-0.3c0.057-0.047,0.179-0.099,0.217-0.072c0.605,0.433,1.134,0.238,1.675-0.144
			c0.105-0.074,0.325,0.031,0.491,0.026c0.356-0.012,0.696-0.12,0.82-0.479c0.184-0.536,0.607-0.732,1.085-0.806
			c0.805-0.124,1.162-0.622,1.209-1.367c0.026-0.423,0.254-0.524,0.597-0.531c0.331-0.007,0.691-0.071,0.859,0.345
			c0.074,0.185,0.23,0.255,0.409,0.193c0.457-0.157,0.494,0.139,0.58,0.466c0.156,0.594,0.493,1.11,1.086,1.305
			c0.926,0.306,1.625,1.051,2.664,1.183c0.789,0.1,0.957,1.078,0.37,1.646c-0.16,0.154-0.346,0.295-0.543,0.394
			c-0.371,0.185-0.567,0.5-0.793,0.831c-0.366,0.536-0.427,1.225-0.905,1.697c-0.109,0.108-0.235,0.271-0.071,0.439
			c0.139,0.144,0.297,0.1,0.464,0.03c0.452-0.19,0.682-0.633,1.048-0.928c0.498-0.4,0.466-0.496,0.957-0.12
			c0.357,0.274,0.696,0.267,0.985,0.011c0.333-0.294,0.697-0.337,1.094-0.313c0.286,0.017,0.544-0.064,0.818-0.125
			c1.436-0.32,2.868-0.616,4.37-0.425c0.649,0.082,1.037,0.364,1.303,0.886c0.337,0.659,0.873,0.96,1.585,1.095
			c0.709,0.134,1.432,0.299,2.085,0.59c0.382,0.171,0.678,0.305,1.089,0.158c0.285-0.102,0.601-0.139,0.906-0.161
			c0.627-0.045,1.101-0.244,1.087-1.043c0.508,0.191,0.99,0.002,1.439,0.204c0.114,0.052,0.261,0.004,0.289-0.098
			c0.203-0.749,1.018-1.229,0.921-2.108c-0.012-0.11,0.023-0.295,0.111-0.284c0.53,0.07,0.347-0.417,0.522-0.615
			c0.193-0.219,0.223-0.608,0.615-0.633c0.23-0.015,0.436-0.061,0.584-0.272c0.183-0.261-0.225-0.445-0.076-0.689
			c0.241-0.159,0.701,0.119,0.752-0.188c0.094-0.569,0.475-0.498,0.847-0.581c0.709-0.158,1.417-0.338,1.917-0.94
			c0.104-0.125,0.242-0.247,0.39-0.305c0.882-0.35,1.655-0.936,2.584-1.184c0.182-0.048,0.393-0.085,0.477-0.303
			c0.353-0.906,1.199-1.018,1.978-1.155c0.83-0.146,1.201-0.446,1.269-1.263c0.011-0.137-0.08-0.328-0.016-0.409
			c0.43-0.542,0.632-1.175,0.832-1.821c0.139-0.447,0.613-0.31,0.939-0.409c0.684-0.207,0.712-0.251,0.293-0.793
			c-0.291-0.377-0.237-0.596,0.198-0.728c0.157-0.048,0.336-0.078,0.494-0.051c0.377,0.063,0.542-0.134,0.717-0.427
			c0.405-0.678,0.928-1.253,1.606-1.682c0.538-0.34,0.559-0.507,0.235-1.064c-0.084-0.144-0.162-0.297-0.213-0.455
			c-0.159-0.498,0.121-0.853,0.673-0.856c0.081-0.001,0.201,0.045,0.211-0.048c0.053-0.495,0.545-0.788,0.575-1.288
			c0.042-0.686-0.317-1.101-0.968-1.354c0.317-0.43,0.389-0.809-0.141-1.122c-0.286-0.169-0.135-0.443-0.058-0.682
			c0.101-0.311,0.324-0.509,0.629-0.402c0.417,0.147,0.589-0.055,0.682-0.379c0.312-1.082,1.074-1.95,1.412-3.018
			c0.069-0.218,0.235-0.379,0.392-0.54c0.598-0.613,0.71-1.462,0.806-2.213c0.064-0.503,0.113-1,0.354-1.412
			c0.821-1.404,1.404-2.928,2.26-4.317c0.392-0.637,0.78-1.056,1.573-0.88c0.187,0.041,0.347-0.061,0.419-0.217
			c0.14-0.303,0.483-0.478,0.53-0.838c-0.73-0.181-0.766-0.297-0.663-1.043c0.047-0.341,0.028-0.625,0.417-0.778
			c0.121-0.048,0.148-0.298,0.257-0.42c0.536-0.596,0.28-1.494,0.812-2.087c-0.152-0.566,0.267-0.876,0.502-1.306
			c0.428-0.783,0.806-1.596,1.285-2.353c0.169-0.267,0.101-0.478-0.109-0.669c-0.145-0.132-0.299-0.253-0.452-0.375
			c-0.36-0.288-0.43-0.632-0.212-1.039c0.076-0.142,0.237-0.251,0.179-0.446c-0.036-0.107-0.131-0.087-0.209-0.095
			c-0.247-0.027-0.456-0.107-0.418-0.405c0.034-0.267,0.201-0.364,0.479-0.336c0.172,0.017,0.387,0.055,0.507-0.162
			c-0.156-0.177-0.39-0.296-0.204-0.604c0.155-0.258,0.243-0.559,0.339-0.849c0.033-0.098,0.009-0.286,0.129-0.254
			c0.401,0.109,0.656-0.266,1.035-0.254c0.531,0.017,0.584-0.032,0.422-0.603c-0.207-0.728,0.245-1.288,0.399-1.918
			c0.086-0.351,0.523-0.448,0.816-0.647c0.268-0.182,0.691-0.236,0.703-0.708c0.003-0.129,0.175-0.178,0.336-0.17
			c0.48,0.023,0.716,0.351,0.772,0.74c0.053,0.37,0.198,0.266,0.374,0.162c0.174-0.102,0.259-0.277,0.332-0.468
			c0.37-0.977,0.962-1.812,1.676-2.566c0.134-0.141,0.335-0.256,0.297-0.478c-0.09-0.533,0.225-0.899,0.507-1.271
			c0.927-1.224,1.744-2.522,2.389-3.909c0.386-0.829,1.147-1.444,1.305-2.392c0.024-0.146,0.181-0.201,0.281-0.296
			c0.466-0.447,1.091-0.817,0.848-1.635c-0.037-0.124,0.022-0.208,0.139-0.262c0.183-0.085,0.305-0.233,0.428-0.391
			c0.194-0.249,0.349-0.5,0.342-0.831c-0.01-0.457,0.547-0.202,0.702-0.592c0.298-0.749,0.782-1.422,1.133-2.153
			c0.444-0.924,1.012-1.733,1.817-2.377c0.306-0.245,0.691-0.675,0.556-0.952c-0.347-0.714,0.207-1.294,0.118-1.942
			c-0.022-0.16,0.001-0.352,0.135-0.472c0.385-0.344,0.446-0.843,0.532-1.287c0.065-0.335,0.26-0.453,0.472-0.605
			c0.109-0.078,0.327-0.093,0.355-0.181c0.133-0.42,0.45-0.352,0.756-0.335c0.084,0.005,0.167,0.029,0.251,0.03
			c0.984,0.006,1.376-0.565,1.05-1.485c-0.147-0.416-0.351-0.838-0.215-1.3c0.068-0.231,0.112-0.443,0.5-0.376
			c0.602,0.104,0.786-0.066,0.849-0.675c0.024-0.231,0.156-0.176,0.266-0.205c0.568-0.146,1.057-0.342,1.292-0.981
			c0.135-0.367,0.411-0.745,0.729-0.966c0.392-0.273,0.565-0.795,1.044-0.92c0.32-0.083,0.495-0.23,0.538-0.548
			c0.024-0.176,0.099-0.322,0.265-0.403c0.823-0.401,1.137-1.199,1.513-1.946c0.297-0.592,0.411-1.211,0.265-1.873
			c-0.053-0.242-0.064-0.5-0.054-0.749c0.016-0.382,0.521-0.193,0.603-0.47c0.075-0.25-0.227-0.523,0.137-0.793
			c0.755-0.56,1.368-1.315,2.303-1.622c0.272-0.089,0.552-0.231,0.684-0.467c0.242-0.433,0.676-0.543,1.052-0.574
			c0.724-0.059,1.14-0.524,1.607-0.955c0.107-0.099,0.201-0.218,0.186-0.362c-0.058-0.521,0.255-0.935,0.384-1.402
			c-0.139,0.104-0.204,0.297-0.412,0.348c-0.071-0.407,0.082-0.785,0.094-1.173c0.053-1.718,0.541-3.327,1.222-4.888
			c0-0.112,0-0.224,0-0.337C182.087,85.121,181.873,84.639,181.385,84.358z M37.581,67.711c-0.072-0.568,0.147-0.839,0.644-1.106
			C37.988,67.011,37.815,67.308,37.581,67.711z M38.305,65.43c-0.063-0.08-0.133-0.155-0.184-0.242
			c-0.012-0.021,0.038-0.079,0.06-0.12c0.077,0.067,0.181,0.112,0.193,0.232C38.352,65.343,38.329,65.386,38.305,65.43z
			 M97.307,15.892c0.189-0.021,0.347,0.038,0.462,0.241C97.558,16.176,97.482,15.908,97.307,15.892z M141.266,48.962
			c0.007,0.196-0.083,0.355-0.223,0.506c-0.018-0.235-0.019-0.451,0.119-0.645C141.306,48.79,141.263,48.906,141.266,48.962z"/>
		<path fill-rule="evenodd" clip-rule="evenodd" fill="#1E8346" d="M166.244,71.71c0.122,0.874,0.273,1.745,0.172,2.813
			c0.39-1.12,0.441-2.078,0.169-3.04c-0.141-0.498-0.324-0.977-0.222-1.513c0.031-0.163-0.05-0.326-0.312-0.361
			c-0.176,0.55-0.374,1.092,0.065,1.626C166.232,71.376,166.221,71.546,166.244,71.71z"/>
		<path fill-rule="evenodd" clip-rule="evenodd" fill="#1E8346" d="M181.486,95.099c-0.001-0.004-0.001-0.008-0.002-0.012
			c0,0.003,0,0.007,0,0.01C181.485,95.097,181.486,95.099,181.486,95.099z"/>
		<path fill-rule="evenodd" clip-rule="evenodd" fill="#1E8346" d="M181.484,95.086c-0.038-0.71,0.136-1.372,0.407-2.023
			c0.242-0.581,0.221-0.589,0.001-1.138C181.373,92.947,181.242,93.992,181.484,95.086z"/>
		<path fill-rule="evenodd" clip-rule="evenodd" fill="#1E8346" d="M36.776,64.326c-0.372,0.309,0.061,0.661-0.086,0.969
			C37.044,65.004,36.909,64.675,36.776,64.326z"/>
		<path fill-rule="evenodd" clip-rule="evenodd" fill="#1E8346" d="M176.913,72.742c0.161,0.007,0.231-0.13,0.304-0.233
			c0.032-0.07,0.012-0.134-0.056-0.135c-0.142-0.002-0.28,0.037-0.338,0.19C176.792,72.647,176.814,72.737,176.913,72.742z"/>
		<path fill-rule="evenodd" clip-rule="evenodd" fill="#1E8346" d="M153.775,49.715c0.083,0.015,0.15-0.029,0.171-0.122
			c-0.039-0.143-0.155-0.116-0.255-0.107c-0.051,0.005-0.14,0.036-0.141,0.059C153.544,49.696,153.676,49.698,153.775,49.715z"/>
		<path fill-rule="evenodd" clip-rule="evenodd" fill="#1E8346" d="M132.686,29.071c0.088,0.033,0.148-0.027,0.146-0.117
			c-0.003-0.089-0.067-0.132-0.156-0.135c-0.074,0.009-0.173,0.018-0.152,0.112C132.536,28.988,132.621,29.046,132.686,29.071z"/>
	</g>
</g>
</svg>
