<?xml version="1.0" encoding="utf-8"?>
<!-- Generator: Adobe Illustrator 26.0.3, SVG Export Plug-In . SVG Version: 6.00 Build 0)  -->
<svg version="1.1" xmlns="http://www.w3.org/2000/svg" xmlns:xlink="http://www.w3.org/1999/xlink" x="0px" y="0px"
	 viewBox="0 0 200 200" enable-background="new 0 0 200 200" xml:space="preserve">
<g id="Layer_1">
	<g id="Layer_1_00000061442898653323928190000005571608892069918396_">
		<g id="Layer_1_00000098929087308412571940000004538787532203942811_">
		</g>
	</g>
</g>
<g id="Isolation_Mode">
	<g>
		<path fill="#1E8346" d="M164.95,175.459c-0.07-0.11-0.212-0.191-0.298-0.284c-0.109-0.119-0.204-0.255-0.309-0.38
			c-0.226-0.269-0.38-0.581-0.708-0.748c-0.501-0.255-1.081-0.347-1.622-0.169c-0.505,0.166-0.831,0.48-1.391,0.485
			c-0.409,0.003-0.652-0.12-0.752-0.533c-0.103-0.427-0.209-0.794-0.467-1.155c-0.405-0.568-0.933-0.893-1.433-1.353
			c-0.383-0.352-0.974-1.26-0.973-1.794c-0.239,0.053-0.175-0.094-0.243-0.239c-0.032-0.068-0.012-0.13-0.063-0.203
			c-0.116-0.168-0.419-0.197-0.585-0.275c0.255-0.184,0.536-0.3,0.525-0.655c-0.009-0.308-0.248-0.719-0.498-0.891
			c-0.276-0.19-0.781-0.283-0.982-0.555c-0.22-0.297-0.138-0.77-0.189-1.114c-0.137-0.926-1.292-0.992-1.342-1.91
			c-0.009-0.164,0.084-0.374,0.049-0.526c-0.034-0.143-0.172-0.24-0.265-0.361c-0.184-0.242-0.513-0.596-0.393-0.902
			c0.057-0.145,0.369-0.388,0.141-0.58c-0.074-0.062-0.429,0.165-0.558,0.118c-0.098-0.037-0.083-0.078-0.165-0.12
			c-0.132-0.068-0.44-0.091-0.537-0.216c-0.08-0.104-0.019-0.408-0.047-0.537c-0.025-0.112,0.107-0.481,0.074-0.559
			c-0.05-0.121-0.244-0.125-0.34-0.234c-0.079-0.09-0.102-0.165-0.185-0.235c-0.1-0.084-0.192-0.1-0.265-0.205
			c-0.112-0.161-0.039-0.306-0.111-0.476c-0.077-0.183-0.232-0.2-0.217-0.434c0.013-0.203,0.137-0.397,0.158-0.601
			c0.049-0.478-0.401-0.575-0.708-0.311c-0.159-0.249-0.226-0.447-0.17-0.721c0.051-0.255,0.105-0.349-0.081-0.585
			c-0.317-0.403-0.812-0.734-1.046-1.197c-0.137-0.271,0.018-0.356,0.098-0.622c0.052-0.172,0.095-0.114-0.001-0.237
			c-0.041-0.054-0.231-0.128-0.305-0.157c-0.248-0.098-0.509,0.177-0.686-0.136c-0.176-0.31,0.057-0.458,0.212-0.641
			c0.209-0.248,0.128-0.499-0.176-0.458c-0.17,0.023-0.282,0.165-0.429,0.224c-0.151,0.061-0.329,0.056-0.485,0.102
			c-0.063-0.379-0.436-0.531-0.755-0.631c-0.083-0.026-0.199-0.03-0.271-0.073c0.163-0.228,0.406-0.32,0.293-0.615
			c-0.121-0.315-0.443-0.534-0.648-0.781c-0.273-0.329,0.048-0.399,0.373-0.486c0.298-0.079,0.492-0.179,0.565-0.506
			c0.037-0.165,0.064-0.693-0.175-0.747c-0.175-0.039-0.427,0.258-0.593,0.31c-0.275,0.086-0.177-0.032-0.127-0.3
			c0.059-0.311-0.026-0.353-0.315-0.47c0.071-0.194,0.231-0.198,0.341-0.329c0.114-0.136,0.106-0.329,0.093-0.496
			c-0.068-0.047-0.361-0.308-0.338-0.39c0.054-0.197,0.609,0.007,0.74-0.103c0.183-0.153-0.175-0.575-0.226-0.759
			c-0.081-0.292-0.168-0.532-0.287-0.782c-0.379-0.148-1.207-0.209-0.986-0.73c0.159-0.375,0.531-0.714,0.052-1.057
			c-0.187,0.275-0.588,0.657-0.92,0.404c-0.38-0.289,0.141-0.473,0.123-0.777c-0.024-0.386-0.736-0.17-0.651-0.718
			c0.051-0.331,0.318-0.613,0.432-0.922c0.106-0.287-0.057-0.504,0.047-0.757c0.045-0.109,0.144-0.14,0.1-0.28
			c-0.044-0.141-0.23-0.211-0.295-0.349c-0.173-0.366,0.188-0.469,0.24-0.777c0.028-0.17-0.045-0.457-0.044-0.646
			c0-0.266,0.024-0.388-0.158-0.58c-0.225-0.236-0.154-0.175-0.207-0.486c-0.024-0.144-0.066-0.258-0.187-0.367
			c-0.335-0.303-0.347,0.086-0.64,0.258c-0.326,0.191-0.768,0.134-1.13,0.103c-0.296-0.025-0.64,0.018-0.911-0.118
			c-0.183-0.091-0.297-0.288-0.466-0.378c-0.078,0.198-0.057,0.428-0.134,0.634c-0.11,0.294-0.296,0.308-0.601,0.367
			c-0.23,0.044-0.479,0.1-0.712,0.122c-0.319,0.031-0.329,0.037-0.406-0.211c-0.045-0.146-0.089-0.433-0.232-0.498
			c-0.16-0.073-0.596,0.067-0.743,0.107c-0.359,0.096-0.625,0.346-1.018,0.309c-0.204-0.019-0.253-0.06-0.43-0.17
			c-0.295-0.183-0.32-0.045-0.639-0.047c-0.298-0.001-0.577-0.125-0.86-0.183c-0.438-0.089-0.632-0.079-0.919-0.445
			c-0.122-0.156-0.494-0.509-0.464-0.712c0.011-0.072,0.156-0.211,0.189-0.285c0.059-0.128,0.065-0.186,0.074-0.328
			c0.014-0.244,0.03-0.508,0.024-0.747c-0.004-0.19,0.083-0.237,0.191-0.362c0.183-0.212,0.095-0.074,0.137-0.282
			c0.013-0.061-0.033-0.111-0.013-0.182c0.026-0.092,0.158-0.181,0.207-0.267c0.101-0.179,0.096-0.238,0.066-0.455
			c-0.053-0.387-0.12-0.454-0.472-0.656c-0.421-0.241-0.758-0.374-0.991-0.804c-0.225-0.414-0.389-1.12-0.887-1.195
			c-0.342-0.052-0.554-0.101-0.864-0.278c-0.24-0.137-0.419-0.213-0.667-0.304c-0.206-0.075-0.345-0.167-0.445-0.383
			c-0.079-0.172-0.123-0.487-0.393-0.487v-2.119c0.006,0.022-0.058-0.055-0.045-0.036c-0.081-0.141-0.235-0.235-0.321-0.371
			c-0.091-0.147-0.083-0.312-0.12-0.482c-0.091-0.415-0.435-0.664-0.702-0.998c-0.311-0.387-0.592-0.809-0.865-1.219
			c-0.215-0.322-0.429-0.976-0.84-1.122c-0.276-0.098-0.545,0.013-0.813-0.168c-0.12-0.08-0.217-0.187-0.302-0.304
			c-0.055-0.077-0.086-0.2-0.152-0.265c-0.037-0.036-0.12-0.043-0.142-0.065c-0.052-0.053-0.119-0.195-0.161-0.228
			c-0.242-0.192-0.476-0.105-0.629-0.452c-0.112-0.252-0.171-0.471-0.157-0.752c0.03-0.586,0.07-1.213,0.22-1.776
			c-0.158-0.245-0.393-0.496-0.468-0.776c-0.079-0.295-0.309-0.35-0.476-0.621c-0.237-0.386-0.092-1.037,0.143-1.394
			c0.243-0.37,0.691-0.602,0.858-1.034c0.079-0.203,0.051-0.43,0.124-0.635c0.077-0.216,0.161-0.192,0.353-0.28
			c0.215-0.098,0.55-0.439,0.582-0.703v-0.996c0.255-0.24,0.797-0.268,0.949-0.58c0.172-0.353-0.305-0.946-0.294-1.322
			c0.009-0.316,0.058-0.762,0.217-1.043c0.17-0.3,0.452-0.484,0.705-0.711c0.254-0.227,0.389-0.489,0.535-0.791
			c0.134-0.277,0.391-0.595,0.457-0.895c0.071-0.323-0.117-0.653-0.063-0.978c0.049-0.294,0.275-0.549,0.427-0.793
			c0.174-0.28,0.304-0.593,0.514-0.846c0.176-0.212,0.44-0.364,0.561-0.618c0.134-0.286-0.214-0.409-0.366-0.609
			c-0.222-0.293-0.042-0.352,0.125-0.554c0.235-0.286-0.119-0.462-0.296-0.665c-0.155-0.178-0.276-0.389-0.362-0.601v-0.972
			c0.043-0.293-0.925-0.405-1.117-0.624c-0.09-0.102-0.241-0.48-0.293-0.615c-0.059-0.153-0.082-0.371-0.03-0.534
			c0.145-0.453,0.763-0.728,1.072-1.061c0.299-0.322,0.488-0.706,0.758-1.055c0.412-0.534,0.608-0.714,1.18-0.571
			c0.369,0.093,0.789,0.127,1.166,0.024c0.662-0.181,0.48-0.563,0.717-1.04c0.143-0.288,0.471-0.474,0.746-0.616
			c0.273-0.142,0.758-0.512,1.053-0.586c0.315-0.079,0.798,0.305,1.13,0.443c0.65,0.27,1.16-0.243,1.798-0.405
			c0.244-0.062,0.632-0.145,0.878-0.081c0.328,0.086,0.533,0.431,0.869,0.545c0.399,0.135,0.86,0.077,1.277,0.077
			c0.575,0,0.751-0.035,1.229-0.351c0.443-0.293,0.962-0.268,1.381-0.543c0.202-0.132,0.349-0.459,0.667-0.386
			c0.279,0.064,0.373,0.439,0.678,0.525c0.48-0.344,0.151-0.705-0.178-0.994c-0.59-0.518-0.438-0.991-0.073-1.656
			c0.308-0.56,0.139-1.485,0.744-1.696c0.526-0.183,0.746-0.064,1.024,0.389c0.146,0.239,0.36,0.469,0.478,0.705
			c0.995-0.358,1.314-1.077,0.797-1.994c-0.208-0.369-0.488-0.716-0.745-1.052c-0.202-0.264-0.451-0.316-0.664-0.555
			c-0.286,0.34-0.415,0.362-0.3,0.846c0.039,0.164,0.207,0.315,0.058,0.464c-0.107,0.108-0.603-0.103-0.679-0.144
			c-0.543-0.294-0.422-0.898-0.421-1.449c0.002-0.951,0.021-0.972-1.035-0.815c-0.395-0.87,0.928-1.414,1.438-1.862
			c0.291-0.255,0.391-0.475,0.367-0.877c-0.016-0.266-0.28-0.634-0.15-0.873c0.186-0.345,0.267-0.708,0.519-0.993
			c0.278-0.315,0.671-0.475,0.953-0.79c0.526-0.59,0.873-1.35,1.171-2.078c0.154-0.374,0.224-0.718,0.237-1.123
			c0.013-0.421,0.126-0.974,0.073-1.378c-0.049-0.375-0.381-0.659-0.439-1.056c-0.098-0.667,0.216-1.551,0.418-2.168
			c0.268-0.817,0.738-1.511,0.75-2.392c0.008-0.629,0.024-1.623-0.256-2.2c-0.244-0.502-0.426-1.081-0.471-1.64
			c-0.042-0.521-0.063-0.907-0.294-1.391c-0.181-0.379-0.286-0.851-0.561-1.186c-0.324-0.394-0.746-0.716-1.082-1.107
			c-0.663-0.771-1.218-1.458-2.053-2.061c-0.542-0.391-0.906-0.552-1.544-0.81c-0.488-0.197-0.986-0.457-1.417-0.762
			c-0.595-0.421-1.23-0.827-1.924-0.482c-0.437,0.217-0.669,0.517-0.64,1.02c0.042,0.754-0.347,1.377-0.424,2.113
			c0.031-0.449,0.087-0.899,0.059-1.349c-0.03-0.487-0.271-0.927-0.458-1.38c-0.218-0.53-0.369-1.089-0.598-1.61
			c-0.266-0.607-0.688-1.163-1.058-1.71c-0.525-0.777-1.245-1.245-1.991-1.789c-0.71-0.517-1.327-1.143-1.992-1.72
			c-0.764-0.664-1.543-1.256-2.268-1.97c-0.668-0.657-1.454-1.149-2.149-1.772c-1.575-1.411-2.872-2.992-5.193-2.881
			c-0.501-0.177-0.799-0.084-1.054,0.385c-0.155,0.285-0.228,0.645-0.553,0.803c-0.068-0.267,0.041-0.613-0.07-0.861
			c-0.093-0.208-0.409-0.383-0.552-0.563c-0.579-0.729-0.983-0.988-1.857-1.28c-1.106-0.369-1.989-0.095-3.092,0.165
			c-0.869,0.205-1.083,0.63-1.72,1.174c-0.159,0.136-0.421,0.194-0.556,0.356c-0.158,0.189-0.244,0.574-0.343,0.803
			c-0.29,0.667-0.583,1.395-0.99,1.997c-0.189,0.28-0.464,0.508-0.646,0.792c-0.226,0.351-0.176,0.68-0.229,1.068
			c-0.109,0.796-0.357,1.559-0.365,2.371c-0.008,0.728,0.051,1.492-0.037,2.202c-0.099,0.801-0.36,1.535-0.364,2.36
			c-0.003,0.605,0.064,1.157,0.402,1.676c0.403,0.62,0.673,1.14,0.426,1.908c-0.385,1.199,0.161,2.47-0.275,3.642
			c-0.324,0.871-0.007,1.768-0.007,2.688c-0.668,0.086-0.41-1.133-0.336-1.414c0.178-0.682-0.016-1.342,0.245-2.026
			c0.288-0.753,0.02-1.525-0.015-2.294c-0.035-0.768,0.026-1.37-0.274-2.089c-0.178-0.427-0.267-0.835-0.404-1.271
			c-0.077-0.246-0.221-0.923-0.409-1.077c-0.461-0.378-1.231,0.218-1.587,0.511c-0.341,0.281-0.611,0.664-0.829,1.05
			c-0.224,0.397-0.215,0.812-0.348,1.238c-0.128,0.408-0.33,0.85-0.676,1.109c-0.373,0.279-0.887,0.288-1.301,0.509
			c-0.495,0.264-1.029,0.678-1.424,1.079c-0.497,0.504-0.682,1.278-1.117,1.836c-0.306,0.393-0.458,0.802-0.641,1.257
			c-0.216,0.536,0.039,1.297-0.396,1.727c-0.161-0.037-0.176,0.062-0.335,0.103c-0.37,0.094-0.971-0.088-1.305,0.088
			c-0.341,0.18-0.337,0.676-0.746,0.842c-0.182,0.074-0.522,0.019-0.657,0.122c-0.181,0.137-0.113,0.527-0.168,0.728
			c-0.122,0.448-0.825,0.768-1.26,0.705c-0.283-0.041-0.422-0.328-0.722-0.389c-0.362-0.074-0.77-0.017-1.121-0.142
			c-0.586-0.209-0.284-0.889-0.805-1.082c-0.107-0.04-0.22-0.034-0.309-0.1c-0.156-0.114-0.238-0.31-0.431-0.412
			c-0.172-0.092-0.49-0.194-0.696-0.16c-0.524,0.086-0.657,0.675-0.98,0.974c-0.199,0.184-0.405,0.254-0.596,0.463
			c-0.242,0.266-0.438,0.483-0.463,0.862C89.615,71.013,90,71.871,89.3,71.978c0.111-0.302,0.261-0.353,0.144-0.639
			c-0.07-0.171-0.275-0.327-0.305-0.507c-0.057-0.339,0.41-0.902,0.621-1.119c0.199-0.205,0.428-0.401,0.597-0.632
			c0.261-0.355,0.369-0.63,0.811-0.8c0.311-0.12,0.632-0.206,0.965-0.222c0.391-0.019,0.577,0.224,0.847,0.48
			c0.283,0.268,0.571,0.215,0.871,0.416c0.243,0.163,0.317,0.525,0.577,0.659c0.21,0.108,1.041,0.074,1.3-0.01
			c0.161-0.053,0.211-0.13,0.344-0.231c0.237-0.18,0.541-0.273,0.799-0.42c0.348-0.198,0.62-0.328,0.839-0.643
			c0.212-0.305,0.509-0.419,0.853-0.549c0.28-0.106,0.646,0,0.907-0.136c0.231-0.12,0.434-0.476,0.475-0.731
			c0.054-0.343-0.102-0.755,0.091-1.062c0.089-0.142,0.247-0.236,0.355-0.361c0.163-0.189,0.296-0.411,0.436-0.617
			c0.263-0.39,0.465-0.794,0.558-1.26c0.114-0.573,0.291-0.852,0.776-1.195c0.229-0.162,0.494-0.369,0.677-0.599
			c0.227-0.284,0.551-0.345,0.881-0.462c0.203-0.072,0.366-0.218,0.566-0.298c0.216-0.087,0.461-0.062,0.682-0.115
			c0.416-0.1,0.646-0.337,0.649-0.786c0.001-0.14-0.035-0.338,0.008-0.472c0.034-0.104,0.13-0.164,0.192-0.247
			c0.177-0.238,0.333-0.488,0.497-0.734c0.125-0.189,0.499-0.624,0.16-0.778c-0.202-0.091-0.621,0.008-0.85,0.008
			c-0.317,0-0.741,0.076-1.034-0.047c-0.231-0.096-0.543-0.293-0.722-0.462c-0.256-0.242-0.419-0.557-0.692-0.784
			c-0.461-0.384-1.002-0.681-1.175-1.3c0.024-0.13-0.12-0.382-0.262-0.474c-0.087-0.056-0.189-0.062-0.284-0.093
			c-0.137-0.045-0.325-0.072-0.447-0.146c-0.178-0.108-0.329-0.356-0.466-0.511c-0.315-0.356-0.621-0.564-1.041-0.775
			c-0.157-0.079-0.324-0.158-0.472-0.254c-0.189-0.122-0.24-0.271-0.373-0.438c0.01-0.049,0.026-0.13,0.035-0.181
			c0.011-0.003,0.029,0.02,0.038,0.026c0.185,0.135,0.294,0.351,0.47,0.5c0.225,0.192,0.578,0.327,0.86,0.42
			c0.077,0.025,0.15,0.051,0.208,0.108c0.053,0.052,0.077,0.122,0.132,0.171c0.044,0.039,0.114,0.07,0.164,0.102
			c0.129,0.081,0.234,0.146,0.327,0.269c0.087,0.113,0.14,0.213,0.203,0.339c0.079,0.16,0.235,0.165,0.392,0.222
			c0.11,0.04,0.234,0.064,0.336,0.117c0.117,0.061,0.151,0.138,0.205,0.256c0.084,0.186,0.19,0.376,0.31,0.544
			c0.137,0.191,0.296,0.356,0.471,0.512c0.205,0.183,0.401,0.382,0.594,0.575c0.12,0.119,0.294,0.194,0.426,0.302
			c0.129,0.105,0.285,0.125,0.438,0.188c0.144,0.059,0.277,0.133,0.384,0.246c0.09,0.096,0.181,0.264,0.292,0.33
			c0.125,0.075,0.348-0.019,0.481-0.038c0.116-0.016,0.235-0.022,0.352-0.024c0.194-0.003,0.371-0.014,0.565,0.017
			c0.099,0.015,0.186,0.106,0.279,0.065c0.851-0.37,1.498-0.5,1.859-1.421c0.186-0.475,0.073-1.135,0.073-1.651
			c0-0.62,0.087-1.18,0.148-1.786c0.064-0.642-0.158-1.213-0.019-1.864c0.11-0.513,0.216-0.991,0.236-1.518
			c0.025-0.64,0.012-1.293,0.081-1.93c0.054-0.501,0.344-0.897,0.458-1.382c0.094-0.397,0.065-0.817,0.18-1.204
			c0.112-0.377,0.298-0.763,0.483-1.112c0.174-0.328,0.314-0.705,0.526-1.002c0.239-0.335,0.68-0.513,0.945-0.839
			c0.39-0.105,0.464-0.774,0.654-1.058c0.333-0.499,0.352-0.519,0.322-1.126c-0.043-0.888-0.287-1.615-0.492-2.477
			c-0.133-0.555,0.009-1.017,0.187-1.541c0.188-0.552,0.204-1.068,0.204-1.647c0-0.433,0.075-1.001-0.118-1.408
			c-0.151-0.319-0.515-0.602-0.732-0.879c-1.081-1.379-2.127-2.759-3.135-4.199c-0.511-0.73-0.846-1.783-1.468-2.449
			c-0.221-0.236-0.76-0.408-1.116-0.484c-0.354-0.076-0.755,0.092-1.058,0.023c-0.365-0.083-0.469-0.389-0.646-0.731
			c-0.353-0.681-0.608-1.576-1.228-2.046c-0.7-0.53-1.284-0.991-1.883-1.654c-0.806-0.892-1.575-1.633-2.475-2.445
			c-0.715-0.645-1.458-1.474-2.039-2.249c-0.424-0.565-0.603-1.226-1.215-1.626c-1.194-0.781-2.607-1.302-3.717-2.209
			c-1.708-1.396-4.123-1.912-5.678-3.508c-0.105-0.108-0.277-0.219-0.411-0.304c-0.261-0.165-0.746-0.445-1.004-0.497
			c-1.642-0.576-3.071-1.615-4.511-2.559c-0.49-0.321-1.073-0.628-1.636-0.792c-0.28-0.082-1.109-0.302-1.357-0.016
			c0.1,0.261,0.348,0.327,0.553,0.496c0.22,0.181,0.563,0.539,0.583,0.832c-0.289-0.015-0.546,0.026-0.843-0.044
			c-0.237-0.056-0.457-0.158-0.671-0.269c-0.145-0.075-0.268-0.182-0.415-0.255c-0.172-0.085-0.384-0.12-0.568-0.182
			c0.073,0.153,0.227,0.298,0.331,0.439c0.095,0.13,0.128,0.326,0.279,0.394c0.332,0.149,0.588,0.536,0.701,0.876
			c0.093,0.279,0.162,0.994,0.027,1.244c-0.11,0.203-0.37,0.339-0.488,0.559c-0.077,0.144-0.116,0.355-0.268,0.454
			c-0.228,0.15-0.617,0.09-0.873,0.098c-0.315,0.009-0.643,0.017-0.955,0.047c-0.266,0.026-0.589,0.052-0.83,0.177
			c-0.207,0.107-0.204,0.225-0.329,0.402c-0.172,0.242-0.427,0.25-0.676,0.4c-0.273,0.165-0.451,0.452-0.358,0.778
			c0.058,0.202,0.36,0.47,0.272,0.685c-0.058,0.139-0.338,0.184-0.429,0.321c-0.283,0.425-0.115,1.046-0.326,1.502
			c-0.152,0.329-0.517,0.631-0.869,0.744c-0.627,0.202-1.309-0.073-1.922,0.228c-0.345,0.169-0.519,0.571-0.744,0.871
			c-0.214,0.284-0.458,0.512-0.795,0.648c-0.37,0.148-0.775,0.11-1.13,0.322c-0.287,0.172-0.433,0.401-0.593,0.683
			c-0.2,0.353-0.336,0.564-0.666,0.797c-0.268,0.189-0.573,0.331-0.829,0.534c-0.262,0.208-0.472,0.482-0.742,0.68
			c-0.147,0.109-0.309,0.209-0.46,0.314c-0.251,0.175-0.49,0.414-0.747,0.568c-0.126-0.103-0.219-0.357-0.379-0.375
			c-0.154-0.017-0.365,0.2-0.473,0.281c-0.405,0.307-0.702,0.137-1.089-0.137c-0.465-0.328-0.618-0.063-1.104,0.003
			c-0.165,0.022-0.335-0.016-0.5,0.01c-0.249,0.041-0.438,0.185-0.699,0.209c-0.129,0.138-0.295,0.252-0.375,0.431
			c-0.068,0.151-0.059,0.337-0.133,0.486c-0.162,0.326-0.335,0.729-0.578,1.007c-0.135,0.155-0.336,0.309-0.431,0.491
			c-0.127,0.242-0.008,0.324,0.14,0.522c0.14,0.187,0.144,0.182,0.051,0.381c-0.126,0.269-0.216,0.502-0.281,0.805
			c-0.049,0.23-0.076,0.661-0.279,0.811c-0.313,0.232-0.561,0.004-0.757,0.448c-0.165,0.374-0.25,0.692-0.508,1.032
			c-0.092,0.121-0.209,0.35-0.343,0.431c-0.146,0.088-0.354,0.044-0.515,0.069c-0.596,0.094-0.979,0.509-0.972,1.094
			c0.006,0.414,0.19,0.733,0.398,1.088c0.21,0.358,0.498,0.472,0.864,0.649c0.432,0.208,0.47,0.407,0.598,0.859
			c0.124,0.44,0.58,0.636,0.772,1.053c0.194,0.421,0.457,0.942,0.535,1.4c0.025,0.149,0.061,0.333,0.007,0.466
			c-0.053,0.129-0.128,0.243-0.136,0.4c-0.302,0.053-0.385,0.275-0.503,0.51c-0.124,0.246-0.333,0.455-0.441,0.719
			c-0.258,0.626,0.451,1.114,0.833,1.491c0.187,0.185,0.299,0.412,0.5,0.591c0.205,0.182,0.386,0.377,0.57,0.575
			c0.212,0.228,0.485,1.027,0.817,0.678c0.283-0.298,0.284-0.831,0.588-1.118c0.401-0.378,1.218-0.852,1.763-0.644
			c0.335,0.128,0.485,0.431,0.834,0.56c0.335,0.123,0.218,0.039,0.425-0.04c0.287-0.108,0.639-0.136,0.892,0.03
			c0.189,0.124,0.308,0.343,0.502,0.462c0.359,0.219,0.786,0.228,1.021,0.62c0.258,0.429,0.298,1.078,0.195,1.56
			c-0.096,0.451-0.411,0.864-0.617,1.269c-0.164,0.323-0.367,0.414-0.685,0.536c-0.337,0.13-0.579,0.312-0.639,0.696
			c-0.056,0.357,0.139,1.225-0.242,1.438c-0.393,0.219-0.616-0.295-0.918-0.405c-0.453-0.165-0.989,0.237-1.235,0.567
			c-0.262,0.351-0.513,0.67-0.891,0.905c-0.26,0.162-0.498,0.194-0.785,0.277c-0.365,0.106-0.524,0.365-0.847,0.532
			c-0.19,0.099-0.762-0.063-0.797,0.168c-0.158,0.128-0.321,0.264-0.518,0.329c-0.539,0.18-1.195,0.022-1.67,0.428
			c-0.552,0.471-0.724,1.854-1.598,1.766c-0.468-0.047-0.918-0.196-1.323-0.429c-0.262-0.151-0.688-0.452-0.976-0.438
			c-0.133,0.007-0.367,0.104-0.503,0.141c-0.569,0.155-0.941,0.028-1.405-0.305c-0.173-0.125-0.428-0.417-0.664-0.342
			c-0.216,0.069-0.25,0.358-0.262,0.541c-0.023,0.347,0.086,0.584-0.148,0.85c-0.121,0.137-0.229,0.267-0.331,0.419
			c-0.15,0.224-0.349,0.604-0.629,0.681c-0.375,0.104-0.976-0.152-1.318-0.264c-0.439-0.144-0.925-0.23-1.367-0.049
			c-0.194,0.079-0.882,0.571-1.097,0.445c-0.273-0.161-0.49-0.388-0.749-0.574c-0.27,0.2-0.282,0.134-0.288,0.501
			c-0.005,0.263-0.031,0.85-0.264,1.013c-0.176,0.122-0.428,0.086-0.603,0.249c-0.245,0.228-0.139,0.52-0.184,0.811
			c-0.04,0.259-0.11,0.241-0.262,0.387c-0.207,0.2-0.07,0.551-0.298,0.746c-0.145,0.123-0.331,0.012-0.467,0.143
			c-0.113,0.109-0.14,0.438-0.084,0.571c0.031,0.074,0.117,0.107,0.141,0.178c0.013,0.038-0.024,0.115-0.024,0.146
			c0.003,0.19,0.011,0.376,0.04,0.565c0.054-0.244,0.408-0.147,0.584-0.091c0.143,0.047,0.374,0.184,0.44,0.326
			c0.058,0.124,0.035,0.269,0.057,0.416c0.051,0.338-0.231,0.665-0.013,0.988c0.285,0.422,0.75,0.556,0.814,1.138
			c0.032,0.293-0.145,0.353-0.215,0.62c-0.038,0.146,0.009,0.309-0.025,0.459c-0.043,0.19-0.132,0.342-0.149,0.54
			c-0.019,0.234-0.006,0.379-0.114,0.599c-0.093,0.189-0.319,0.409-0.27,0.631c0.041,0.185,0.345,0.419,0.452,0.559
			c0.144,0.19,0.29,0.306,0.475,0.45c0.337,0.262,0.673,0.615,0.451,1.046c-0.099,0.192-0.371,0.47-0.355,0.69
			c0.014,0.187,0.233,0.283,0.309,0.432c0.271,0.53-0.463,0.761-0.847,0.648c-0.241-0.071-0.361-0.264-0.525,0.012
			c-0.153,0.257-0.071,0.6-0.112,0.88c-0.054,0.368-0.356,1.2-0.829,0.946c-0.1-0.054-0.205-0.277-0.334-0.283
			c-0.178-0.009-0.212,0.298-0.303,0.44c-0.288,0-0.601-0.022-0.837,0.182c-0.19,0.165-0.262,0.443-0.4,0.648
			c-0.163,0.243-0.375,0.377-0.574,0.581c-0.194,0.198-0.265,0.421-0.32,0.681c-0.053,0.253-0.135,0.53-0.316,0.722
			c-0.187,0.198-0.439,0.324-0.63,0.517c-0.143,0.144-0.264,0.313-0.438,0.423c-0.225,0.142-0.492,0.151-0.749,0.151l4.155,4.884
			l13.582,15.308c0.049-0.577,0.542-0.686,0.994-0.729c0.319-0.03,0.777-0.102,1.088-0.001c0.137,0.044,0.235,0.142,0.337,0.243
			c0.193,0.191,0.31,0.283,0.648,0.27c0.161-0.006,0.338-0.107,0.468-0.01c0.133,0.1,0.142,0.251,0.304,0.344
			c0.291,0.168,0.849,0.302,1.178,0.233c0.198-0.041,0.287-0.159,0.436-0.246c0.319-0.186,0.4,0.101,0.728,0.134
			c0.359,0.037,0.898-0.36,1.135,0.016c0.122,0.193,0.037,0.291,0.309,0.329c0.318,0.044,0.587-0.136,0.759-0.378
			c0.137-0.191,0.25-0.41,0.495-0.449c0.026-0.004,0.091,0.085,0.163,0.072c0.123-0.022,0.193-0.173,0.336-0.173
			c0.282,0,0.289,0.314,0.481,0.396c0.185,0.079,0.584-0.024,0.792-0.027c0.186-0.002,0.411,0.04,0.581-0.016
			c0.02-0.162,0.087-0.466,0.24-0.551c0.113-0.062,0.294-0.017,0.425-0.069c0.227-0.09,0.287-0.314,0.496-0.43
			c0.152-0.085,0.336-0.04,0.485-0.121c0.396-0.218,0.55-0.715,1.085-0.561c0.344,0.099,0.497,0.594,0.567,0.923
			c0.62,0.37,1.311-0.06,1.906,0.386c0.267,0.2,0.312,0.512,0.354,0.835c0.05,0.38,0.133,0.733,0.209,1.108
			c0.261,0.083,0.667,0.147,0.867,0.366c0.193,0.21,0.279,0.534,0.51,0.717c0.029-0.027,0.084-0.037,0.115-0.064
			c0.28,0.24,0.517,0.37,0.848,0.521c0.184,0.084,0.575,0.166,0.717,0.31c0.252,0.256,0.07,1.148-0.035,1.446
			c-0.088,0.246-0.274,0.445-0.318,0.706c-0.041,0.248,0.002,0.551,0.002,0.803c0,0.28,0.051,0.613,0.001,0.887
			c-0.046,0.252-0.209,0.455-0.268,0.703c-0.055,0.228-0.138,0.431-0.181,0.659c-0.034,0.182-0.033,0.353-0.056,0.535
			c-0.039,0.321-0.308,0.571-0.409,0.874c-0.05,0.151,0.025,0.347-0.037,0.485c-0.044,0.098-0.195,0.126-0.245,0.226
			c-0.168,0.328,0.344,0.309,0.344,0.538c0,0.337,0.028,0.676-0.068,0.997c-0.039,0.129-0.11,0.233-0.165,0.356
			c-0.103,0.232,0.008,0.295,0.067,0.538c0.118,0.481-0.594,0.66-0.865,0.96c-0.352,0.391-0.249,0.776-0.317,1.251
			c-0.033,0.237-0.191,0.415-0.401,0.541c-0.104,0.063-0.219,0.098-0.339,0.123c-0.292,0.062-0.628-0.101-0.861,0.14
			c0.045,0.073,0.254,0.231,0.238,0.327c-0.026,0.149-0.389,0.126-0.495,0.143c-0.014,0.093,0.004,0.191,0.047,0.274
			c-0.126-0.05-0.29-0.195-0.42-0.091c-0.056,0.419-0.121,1.066,0.031,1.469c0.083,0.219,0.103,0.264,0.313,0.336
			c0.179,0.061,0.303,0.142,0.494,0.145c0.191,0.002,0.527-0.054,0.609-0.259c0.096-0.237-0.143-0.344,0.137-0.473
			c0.34-0.157,0.191,0.102,0.387,0.283c0.149,0.137,0.652-0.033,0.483,0.386c0.186,0.14,0.457,0.16,0.644,0.286
			c0.333,0.057,0.619-0.033,0.939,0.081c0.258,0.092,0.548,0.147,0.791,0.269c0.057-0.171,0.035-0.488,0.19-0.582
			c0.138-0.084,0.394-0.019,0.542,0.015c0.31,0.072,0.618,0.107,0.541,0.473c0.092,0.038,0.317,0.079,0.379,0.159
			c0.03,0.039,0.015,0.183,0.031,0.225c0.042,0.109,0.064,0.155,0.205,0.172c0.022-0.238,0.079-0.352,0.337-0.366
			c0.179-0.009,0.323,0.029,0.46-0.112c0.089,0.159,0.098,0.369,0.214,0.513c0.134,0.166,0.285,0.146,0.51,0.148
			c0.241,0.003,0.354,0.008,0.566,0.12c0.137,0.073,0.245,0.103,0.419,0.119c0.14-0.214,0.028-0.461,0.331-0.364
			c0.208,0.066,0.077,0.146,0.206,0.253c0.156,0.13,0.347,0.229,0.492,0.373c0.082,0.081,0.137,0.181,0.222,0.26
			c0.221,0.207,0.506,0.106,0.745,0.25c0.263,0.158,0.26,0.406,0.408,0.648c0.242,0.396,0.894,0.407,1.323,0.379
			c-0.012,0.268-0.308,0.264-0.416,0.45c-0.083,0.143,0.078,0.249,0.075,0.387c-0.005,0.21-0.282,0.344-0.397,0.48
			c-0.086,0.101-0.102,0.207-0.135,0.328c-0.11,0.408-0.633,0.39-0.803,0.754c-0.172,0.37,0.076,0.464,0.381,0.485
			c0.094,0.32-0.105,0.535-0.345,0.692c-0.237,0.155-0.231,0.349-0.219,0.62c0.013,0.283,0.19,0.523,0.219,0.807
			c0.02,0.198,0.125,0.303,0.273,0.468c0.251,0.28,0.746,0.454,1.1,0.552c0.326,0.091,0.656,0.177,0.98,0.274
			c0.091,0.027,0.432,0.084,0.49,0.161c0.107,0.141-0.171,0.451-0.246,0.581c-0.13,0.226-0.242,0.471-0.36,0.704
			c-0.108,0.214-0.203,0.389-0.016,0.577c0.171,0.172,0.507,0.208,0.657,0.367c0.11,0.116,0.087,0.336,0.235,0.445
			c0.108,0.079,0.256,0.029,0.296,0.193c0.051,0.209-0.223,0.233-0.157,0.444c0.095,0.006,0.19,0.001,0.285,0.003
			c0.052,0.11,0.001,0.233,0.08,0.328c0.143,0.173,0.333,0.043,0.49,0.01c0.244,0.265-0.018,0.478-0.141,0.692
			c0.109,0.158,0.305,0.242,0.485,0.158c0.129-0.059,0.157-0.182,0.305-0.205c0.257-0.04,0.61,0.197,0.746,0.396
			c0.198,0.293-0.021,0.725-0.418,0.735c-0.124,0.076-0.246,0.156-0.366,0.238c-0.185,0.126-0.265,0.286-0.419,0.444
			c-0.136,0.138-0.275,0.068-0.409,0.173c-0.19,0.147-0.097,0.591-0.082,0.792c0.018,0.237,0.044,0.441,0.127,0.663
			c0.081,0.214,0.141,0.329-0.034,0.517c-0.07,0.075-0.249,0.121-0.295,0.177c-0.076,0.092-0.055,0.303-0.112,0.422
			c-0.111,0.001-0.302-0.034-0.402,0.021c-0.109,0.06-0.106,0.205-0.193,0.284c-0.124,0.112-0.34,0.063-0.492,0.079
			c-0.314,0.032-0.596,0.073-0.769,0.355c-0.086,0.14-0.133,0.292-0.103,0.457c0.035,0.194,0.211,0.309,0.256,0.492
			c-0.387,0.267,0.153,0.415,0.09,0.668c-0.03,0.12-0.537,0.236-0.638,0.273c-0.535,0.196-0.65,0.755-1.106,1.035
			c-0.188,0.116-0.431,0.083-0.609,0.219c-0.23,0.176-0.305,0.455-0.48,0.668c-0.29,0.354-0.736,0.105-1.104,0.278
			c-0.23,0.107-0.377,0.308-0.536,0.496c-0.21,0.248-0.571,0.376-0.832,0.577c-0.082,0.253-0.342,0.483-0.037,0.679
			c0.127,0.081,0.298,0.133,0.407,0.231c0.177,0.161,0.068,0.375,0.184,0.545c0.112,0.163,0.42,0.283,0.582,0.382
			c0.224,0.136,0.466,0.158,0.294,0.456c-0.121,0.21-0.366,0.204-0.469,0.352c-0.055,0.079-0.012,0.161-0.034,0.245
			c-0.026,0.101-0.113,0.22-0.169,0.31c-0.109,0.177-0.345,0.435-0.267,0.669c0.072,0.221,0.419,0.228,0.619,0.214
			c0.017,0.266-0.057,0.594-0.005,0.849c0.04,0.199,0.118,0.395,0.151,0.605c0.012,0.077,0.095,0.322,0.052,0.394
			c-0.067,0.115-0.271,0.006-0.392,0.065c-0.295,0.143-0.136,0.694-0.328,0.945c-0.156,0.204-0.348,0.373-0.462,0.609
			c-0.075,0.157-0.128,0.326-0.202,0.483c-0.266,0.048-0.364,0.149-0.464,0.387c-0.14,0.334-0.075,0.361,0.096,0.657
			c0.117,0.205,0.116,0.408-0.125,0.448c-0.282,0.046-0.526-0.001-0.743,0.24c0,0.41,0.027,0.774,0.128,1.165
			c0.027,0.105,0.078,0.284,0.036,0.392c-0.046,0.118-0.181,0.154-0.312,0.198c-0.031,0.162,0.07,0.325,0.036,0.475
			c-0.026,0.114-0.169,0.206-0.225,0.31c-0.103,0.186-0.186,0.288-0.349,0.445c-0.177,0.171-0.422,0.283-0.496,0.518
			c-0.081,0.259-0.031,0.558-0.04,0.829c-0.005,0.147-0.018,0.296-0.055,0.439c-0.029,0.114-0.123,0.236-0.129,0.355
			c-0.019,0.361,0.636,0.685,0.55,1.035c-0.041,0.165-0.355,0.301-0.439,0.484c-0.068,0.15-0.091,0.298-0.193,0.433
			c-0.129,0.168-0.309,0.295-0.431,0.471c-0.082,0.117-0.128,0.2-0.092,0.352c0.036,0.151,0.227,0.276,0.187,0.447
			c-0.027,0.117-0.193,0.188-0.243,0.289c-0.055,0.111,0.091,0.289,0.081,0.402c-0.048,0.505-0.092,1.011-0.133,1.516
			c0,0-0.004,0.003-0.008,0.015c-0.058,0.63-0.09,1.26-0.123,1.897c-0.019,0.355-0.11,0.904,0.013,1.251
			c0.103,0.293,0.357,0.549,0.502,0.823c0.098,0.186,0.108,0.31,0.067,0.501c-0.024,0.116-0.084,0.235-0.032,0.359
			c0.126,0.299,0.526,0.429,0.201,0.745c-0.27,0.263-0.014,0.402,0.284,0.518c0.179,0.07,0.4,0.063,0.531,0.218
			c0.145,0.17,0.053,0.338,0.017,0.533c-0.043,0.236,0.006,0.355,0.15,0.553c0.131,0.18,0.218,0.371,0.294,0.587
			c0.05,0.141,0.029,0.334,0.098,0.463c0.085,0.162,0.452,0.244,0.429,0.437c-0.035,0.296-0.091,0.571-0.14,0.863
			c-0.027,0.161-0.049,0.325,0.056,0.455c0.091,0.113,0.186,0.189,0.128,0.343c-0.05,0.133-0.154,0.29-0.226,0.417
			c-0.094,0.164-0.117,0.3-0.109,0.494c0.01,0.272,0.249,0.733,0.553,0.754c0.158,0.011,0.312-0.112,0.458-0.091
			c0.137,0.02,0.201,0.2,0.246,0.334c0.08,0.24,0.228,0.433,0.344,0.652c0.131-0.033,0.258-0.08,0.381-0.127
			c0.047-0.018,0.077-0.049,0.135-0.041c0.118,0.017,0.314,0.227,0.388,0.325c0.167,0.224,0.239,0.442,0.483,0.596
			c0.284,0.18,0.631-0.009,0.945-0.043c0.141-0.015,0.295,0.003,0.431,0.043c0.227,0.065,0.369,0.284,0.581,0.382
			c0,0.64-0.267,1.165-0.267,1.799c0,0.391-0.108,0.647-0.22,0.996c-0.128,0.399,0.175,0.648,0.303,0.995
			c0.127,0.348,0.19,0.742,0.033,1.088c-0.082,0.181-0.344,0.355-0.394,0.513c-0.039,0.121,0.122,0.482,0.174,0.622
			c0.069,0.186,0.368,0.509,0.324,0.719c-0.029,0.138-0.216,0.211-0.268,0.362c-0.173,0.502,0.075,1.116-0.066,1.634
			c-0.177,0.65-0.674,1.107-0.372,1.827c0.081,0.193,0.134,0.315,0.146,0.519c0.005,0.092-0.036,0.286,0.023,0.363
			c0.177,0.231,0.662,0.005,0.792-0.168c0.314,0.048,0.681,0.072,0.852,0.317c0.043,0.063,0.053,0.159,0.101,0.226
			c0.431-0.11,0.071-0.628,0.319-0.754c0.32-0.163,0.336,0.512,0.341,0.636c0.009,0.268,0.009,0.604-0.205,0.786
			c-0.117,0.099-0.272,0.113-0.384,0.228c-0.1,0.103-0.124,0.227-0.211,0.34c0.008,0.27-0.168,0.428-0.194,0.68
			c-0.044,0.431,0.321,0.182,0.501,0.448c0.076,0.113,0.03,0.292,0.142,0.391c0.132,0.119,0.407,0.068,0.575,0.06
			c0.363-0.018,0.434-0.061,0.585,0.287c0.361,0.032,0.65-0.197,0.99-0.294c0.424-0.122,0.538-0.006,0.923,0.129
			c0.392,0.137,0.374,0.322,0.574,0.69c0.119,0.218,0.376,1.062,0.697,0.721c0.256,0.052,0.196,0.456,0.234,0.646
			c0.072,0.364,0.301,0.568,0.617,0.743c0.287,0.159,0.547,0.017,0.749,0.276c0.218,0.279,0.349,0.529,0.364,0.871
			c0.012,0.275,0.04,0.62,0.361,0.706c0.134,0.036,0.348-0.065,0.465,0.042c0.072,0.066,0.087,0.284,0.122,0.375
			c0.078,0.199,0.236,0.281,0.339,0.456c0.048,0.081-0.003,0.163,0.081,0.228c0.273,0.214,0.71-0.176,0.979-0.077
			c0.334,0.124,0.566,0.416,0.496,0.787c-0.038,0.203-0.369,0.867,0.164,0.727c0.189-0.379,0.721,0.147,0.784,0.391
			c0.22,0.853,0.629,1.383,1.335,1.714c0.27,0.126,0.592,0.085,0.902,0.084c0.409-0.001,0.49,0.152,0.785,0.382
			c0.594,0.465,1.239,0.26,1.924,0.4c0.215,0.044,0.317,0.193,0.499,0.288c0.191,0.099,0.334,0.044,0.52,0.093
			c0.255,0.067,0.24,0.149,0.542,0.149c0.366-0.001,1.024-0.128,1.362,0.033c-0.007,0.129,0.031,0.49,0.143,0.573
			c0.196,0.144,0.282-0.163,0.303-0.312c0.362-0.02,1.221-0.163,1.537,0.127c0.019,0.232-0.24,0.313-0.368,0.473
			c0.163,0.25,0.555,0.335,0.767,0.574c0.053,0.06,0.245,0.204,0.245,0.281c0.001,0.116-0.208,0.165-0.281,0.244
			c-0.146,0.154-0.109,0.298-0.155,0.492c0.358,0.109,0.758,0.054,0.981,0.398c0.088,0.137,0.119,0.297,0.181,0.444
			c0.123,0.292,0.491,0.749,0.822,0.354c0.094,0.09,0.027,0.253,0.109,0.328c0.074,0.068,0.366,0.023,0.461,0
			c0.266-0.061,0.31-0.219,0.472-0.392c0.279-0.298,0.298,0.13,0.588,0.042c0.163-0.049,0.176-0.321,0.335-0.395
			c0.079-0.037,0.146,0,0.218-0.021c0.354-0.104,0.789-0.483,0.833-0.906c0.027-0.256-0.076-0.481,0.002-0.752
			c0.064-0.222,0.203-0.52,0.391-0.663c0.406-0.309,0.558-0.023,0.934,0.141c0.336,0.147,0.688-0.022,1.02-0.019
			c0.355,0.003,0.602,0.387,0.932,0.493c0.222,0.071,0.193,0.03,0.341-0.18c0.147-0.209,0.333-0.389,0.513-0.579
			c0.388,0.129,0.594,0.461,0.845,0.752c0.208,0.242,0.173,0.163,0.364-0.001c0.19-0.163,0.398-0.288,0.581-0.468
			c0.375-0.37,0.701-0.743,0.715-1.295c0.011-0.444-0.331-0.852-0.569-1.21c-0.28-0.422-0.638-1.015-0.454-1.544
			c0.185-0.533,0.874-0.676,1.355-0.681c0.618-0.005,1.056,0.043,1.584-0.325c0.32-0.223,0.591-0.562,0.469-0.963
			c-0.063-0.207-0.35-0.601-0.214-0.821c0.143-0.231,0.546-0.096,0.748-0.199c0.202-0.103,0.327-0.407,0.429-0.589
			c0.156-0.279,0.302-0.558,0.49-0.819c0.314,0.178,0.42,0.645,0.681,0.897c0.167,0.162,0.62-0.06,0.85,0.018
			c0.314,0.107,0.597,0.264,0.944,0.299c0.508,0.051,1.712-0.297,2.016,0.145c0.074,0.108,0.117,0.298,0.17,0.419
			c0.076,0.177,0.116,0.5,0.205,0.645c0.174,0.283,0.801,0.199,1.105,0.199c0.857,0,1.987,0.316,2.468-0.57
			c0.294-0.542,0.408-0.977,0.437-1.596c0.015-0.326,0.068-0.644,0.067-0.973c0-0.285-0.062-0.653,0.096-0.895
			c0.123,0.126,0.308,0.182,0.474,0.226c0.264,0.071,0.614,0.214,0.875,0.248c0.417,0.054,0.947-0.439,1.351-0.583
			c0.456-0.162,1.04-0.06,1.421-0.331c0.487-0.347,0.858-0.848,1.457-1.04c0.546-0.174,1.097,0.043,1.628,0.156
			c0.333,0.071,0.562,0.261,0.874,0.35c0.305,0.088,0.67,0.047,0.984,0.05c0.657,0.005,1.291-0.019,1.941-0.051
			c0.156-0.007,0.442,0.012,0.585-0.059c0.174-0.085,0.31-0.342,0.42-0.501c0.405-0.587,0.537-1.313,0.918-1.911
			c0.226-0.355,0.47-0.682,0.748-1c0.202-0.231,0.266-0.401,0.395-0.656c0.163-0.323,0.18-0.72,0.389-1.028
			c0.298-0.439,0.759-0.683,1.233-0.891c0.44-0.193,0.61-0.515,0.878-0.911c0.43-0.634,1.254-0.899,1.945-0.572
			c0.466,0.22,0.714,1.271,1.384,0.825c0.151-0.1,0.294-0.319,0.452-0.437c0.121-0.092,0.258-0.182,0.399-0.242
			c0.361-0.154,0.643-0.215,0.961-0.461c0.365-0.282,0.694-0.54,1.156-0.633c0.207-0.042,0.402-0.055,0.615-0.049
			c0.418,0.012,0.508,0.422,0.634,0.778c0.212,0.597,0.215,0.984,0.813,1.331c0.481,0.28,1.021,0.636,1.597,0.645
			c0.276,0.004,0.199-0.067,0.408-0.226c0.194-0.147,0.592-0.263,0.826-0.313c0.617-0.133,0.581,0.487,1.013,0.77
			c0.306,0.2,0.696,0.014,1.008,0.174c0.104,0.053,0.133,0.144,0.263,0.17c0.128,0.026,0.248-0.08,0.382-0.045
			c0.107,0.028,0.21,0.153,0.306,0.212c0.14,0.086,0.33,0.125,0.452,0.233c0.163,0.142,0.233,0.376,0.306,0.578
			c0.57-0.107,0.969-0.868,1.244-1.296c0.136-0.212,0.242-0.399,0.474-0.512c0.401-0.196,0.802,0.024,1.202,0.139
			c0.293,0.084,0.514,0.177,0.736-0.024c0.225-0.204,0.293-0.482,0.602-0.61c0.218-0.09,0.836-0.154,1.037-0.024
			c0.214,0.138,0.306,0.602,0.455,0.816c0.355-0.07,0.697-0.365,1.054-0.462c0.314-0.086,0.744-0.22,0.996-0.439
			C164.931,176.076,165.101,175.697,164.95,175.459z"/>
		<path fill="#1E8346" d="M111.855,43.359c-0.164,0.178-0.524,0.541-0.422,0.807c0.178,0.111,0.274,0.184,0.412,0.096
			c0.144-0.093,0.262-0.264,0.362-0.4c0.284-0.383,0.647-0.696,0.996-1.017c0.312-0.287,0.69-0.5,0.98-0.807
			c0.13-0.138,0.24-0.168,0.16-0.346c-0.056-0.123-0.142-0.194-0.246-0.272c-0.12-0.089-0.262-0.149-0.384-0.234
			c-0.16-0.112-0.254-0.295-0.425-0.391c-0.28,0.28-0.23,0.613-0.374,0.955c-0.148,0.349-0.468,0.595-0.616,0.949
			C112.183,42.967,112.053,43.145,111.855,43.359z"/>
		<path fill="#1E8346" d="M113.612,42.99c-0.162,0.1-0.343,0.186-0.489,0.307c-0.272,0.226-0.52,0.552-0.523,0.915
			c-0.278,0.093-0.259,0.378-0.168,0.532c0.335-0.066,0.628-0.312,0.939-0.456c0.252-0.116,0.439-0.356,0.672-0.476
			c0.127-0.065,0.303-0.068,0.439-0.122c0.175-0.07,0.354-0.142,0.513-0.243c0.192-0.123,0.536-0.399,0.432-0.671
			c-0.105-0.275-0.93-0.355-1.168-0.243C114.019,42.647,113.838,42.851,113.612,42.99z"/>
		<path fill="#1E8346" d="M110.598,44.801c0.121-0.191,0.294-0.528,0.451-0.681c0.028-0.216,0.253-0.38,0.384-0.537
			c0.123-0.146,0.207-0.307,0.288-0.478c-0.427-0.085-0.668-0.006-0.856,0.362c-0.122,0.24-0.262,0.458-0.368,0.707
			c-0.081,0.188-0.11,0.367-0.226,0.533c-0.128,0.184-0.237,0.379-0.321,0.589c0.058-0.091,0.207-0.109,0.304-0.161
			C110.41,45.048,110.502,44.953,110.598,44.801z"/>
		<path fill="#1E8346" d="M109.95,45.295c-0.01,0.016-0.018,0.033-0.022,0.053C109.935,45.33,109.943,45.313,109.95,45.295z"/>
		<path fill="#1E8346" d="M111.875,45.267c0.06-0.098,0.215-0.269,0.217-0.393c0.004-0.249-0.659-0.547-0.827-0.371
			c-0.275,0.441-0.654,0.89-0.755,1.412c-0.045,0.231-0.094,0.473-0.236,0.669c-0.085,0.117-0.204,0.201-0.253,0.342
			c-0.052,0.148-0.038,0.309-0.058,0.467c-0.032,0.249-0.053,0.496-0.076,0.745c-0.021,0.219,0.028,0.314,0.062,0.516
			c0.175-0.291,0.388-0.544,0.526-0.854c0.124-0.28,0.242-0.538,0.407-0.797c0.252-0.397,0.478-0.81,0.696-1.226
			C111.668,45.602,111.772,45.436,111.875,45.267z"/>
		<path fill="#1E8346" d="M111.165,47.347c-0.111,0.181-0.251,0.341-0.36,0.523c-0.095,0.159-0.333,0.466-0.325,0.658
			c0.292-0.064,0.491-0.452,0.633-0.687c0.091-0.15,0.447-0.64,0.319-0.849C111.304,47.061,111.238,47.229,111.165,47.347z"/>
		<path fill="#1E8346" d="M110.089,46.494c0.196-0.119,0.302-0.588,0.084-0.823C110.162,45.71,109.776,46.683,110.089,46.494z"/>
		<path fill="#1E8346" d="M109.655,47.969c0.008-0.228,0.218-0.326,0.181-0.578c-0.02-0.136-0.069-0.317-0.185-0.475
			C109.652,47.263,109.626,47.625,109.655,47.969z"/>
	</g>
</g>
<g id="c">
</g>
</svg>
