<?xml version="1.0" encoding="utf-8"?>
<!-- Generator: Adobe Illustrator 26.0.3, SVG Export Plug-In . SVG Version: 6.00 Build 0)  -->
<svg version="1.1" xmlns="http://www.w3.org/2000/svg" xmlns:xlink="http://www.w3.org/1999/xlink" x="0px" y="0px"
	 viewBox="0 0 200 200" enable-background="new 0 0 200 200" xml:space="preserve">
<g id="Layer_1">
	<g id="Layer_1_00000061442898653323928190000005571608892069918396_">
		<g id="Layer_1_00000098929087308412571940000004538787532203942811_">
		</g>
	</g>
</g>
<g id="Isolation_Mode">
	<path fill="#1E8346" d="M162.084,133.324c0.269-0.247,0.296-0.496,0.296-0.853l-9.433-16.28l-1.834,0.282l-0.233-0.437
		l-1.718-0.146l-1.252,0.728h-0.553l-0.495,0.495l-1.601,0.32l-1.397-0.349v-0.32l-0.815-0.728l-1.019,0.582v-12.374
		c0.159-0.145,0.329-0.219,0.513-0.318c0.259-0.14,0.291-0.319,0.303-0.643c0.019-0.506-0.426-0.708-0.524-1.178
		c-0.103-0.492,0.308-0.751,0.609-1.041c0.163-0.158,0.139-0.038,0.234-0.252c0.062-0.14,0.15-0.482,0.071-0.617
		c-0.525,0.021-0.91,0.169-1.26,0.572c-0.188,0.216-0.279,0.473-0.495,0.675c-0.204,0.191-0.482,0.11-0.662,0.256
		c-0.132,0.107-0.023,0.272-0.134,0.378c-0.061,0.058-0.24,0.017-0.325,0.075c-0.083,0.056-0.087,0.186-0.163,0.232
		c-0.167,0.102-0.412,0.055-0.584,0.168c-0.213,0.14-0.279,0.496-0.451,0.687c-0.221,0.245-0.617,0.3-0.815,0.546
		c-0.151,0.187-0.163,0.426-0.382,0.581c-0.349,0.248-0.824,0.102-1.198,0.268c-0.295,0.131-0.446,0.43-0.589,0.697
		c-0.108,0.203-0.183,0.429-0.379,0.519c-0.079,0.036-0.201-0.025-0.289,0.015c-0.086,0.039-0.081,0.18-0.181,0.209
		c-0.2,0.057-0.322-0.131-0.498-0.143c-0.212-0.015-0.404,0.266-0.603,0.266h-8.123c-0.001-0.313-0.076-0.65,0.041-0.929
		c0.115-0.275,0.195-0.302,0.121-0.588c-0.045-0.174-0.094-0.434-0.212-0.552c-0.163-0.162-0.544-0.199-0.744-0.34
		c-0.302-0.214-0.221-0.285-0.196-0.695c0.016-0.258,0.108-0.641-0.029-0.882c-0.073-0.129-0.188-0.087-0.261-0.25
		c-0.086-0.19,0.112-0.487-0.066-0.627c-0.122-0.096-0.332-0.02-0.468-0.091c-0.187-0.097-0.252-0.33-0.441-0.427
		c-0.261-0.135-0.666-0.056-0.939-0.041c-0.331,0.018-0.542,0.059-0.802-0.078c-0.241-0.127-0.38-0.243-0.669-0.313
		c-0.164-0.04-0.565-0.023-0.698-0.101c-0.116-0.068-0.182-0.315-0.344-0.315h-4.988c0.06-0.399,0.218-0.425,0.466-0.665
		c0.247-0.239,0.238-0.537,0.41-0.789c0.076-0.113,0.327-0.326,0.455-0.382c0.091-0.04,0.318-0.024,0.38-0.063
		c0.24-0.148,0.2-0.371,0.364-0.542c0.263-0.277,0.413-0.163,0.448-0.624c0.026-0.344,0.033-0.827-0.039-1.158
		c-0.093-0.431-0.544-0.933-1.041-0.946c-0.185-0.516-0.464-1.173-0.745-1.663c-0.251-0.439-0.171-0.702-0.778-0.757
		c-0.495-0.044-0.581-0.03-0.89-0.377c-0.148-0.167-0.255-0.371-0.504-0.354c-0.012-0.511,0.09-1.044,0.073-1.534
		c-0.316-0.096-0.462-0.084-0.698-0.241c-0.151-0.101-0.371-0.225-0.542-0.346c-0.202-0.142-0.543-0.356-0.691-0.545
		c-0.241-0.31-0.029-0.471-0.123-0.851c-0.079-0.322-0.295-0.312-0.471-0.575c-0.16-0.24-0.14-0.575-0.206-0.859
		c-0.074-0.317-0.098-0.949-0.31-1.203c-0.113-0.134-0.446-0.321-0.591-0.415c-0.318-0.207-0.546-0.188-0.751-0.53
		c-0.105-0.175-0.3-0.533-0.061-0.73c0.187-0.154,0.415,0.082,0.646-0.076c0.219-0.149,0.275-0.447,0.191-0.726
		c-0.173-0.568-1.107-0.556-1.592-0.865c-0.481-0.306-0.779-0.895-1.104-1.331c-0.426-0.573-0.016-0.402,0.02-1.032
		c0.013-0.228-0.118-0.419-0.122-0.625c-0.006-0.266,0.137-0.406,0.163-0.661c0.163,0.088,0.341,0.36,0.55,0.351
		c0.232-0.01,0.122-0.134,0.26-0.206c0.263-0.138,0.556-0.07,0.872-0.169c0.829-0.26,0.399-1.155,0.146-1.658
		c-0.093-0.186-0.197-0.464-0.231-0.685c-0.045-0.295,0.067-0.483,0.105-0.771c0.043-0.319-0.092-0.601-0.078-0.902
		c0.015-0.323,0.257-0.63,0.412-0.907c0.265-0.472,0.588-1.118,1.063-1.382c0.218-0.121,0.517-0.18,0.712-0.311
		c0.317-0.213,0.394-0.463,0.8-0.611c0.457-0.166,0.74-0.198,1.134-0.484c0.378-0.274,0.636-0.189,1.088-0.222
		c0.449-0.032,0.467-0.075,0.728-0.351c0.169-0.178,0.244-0.245,0.447-0.369c0.179-0.11,0.237-0.049,0.353-0.255
		c0.431-0.763-0.066-1.308-0.279-2.002c-0.08-0.262-0.079-0.424-0.278-0.608c-0.103-0.096-0.324-0.12-0.403-0.223
		c-0.126-0.165-0.049-0.411-0.081-0.621c-0.071-0.464-0.245-0.918-0.023-1.358c0.137-0.272,0.317-0.385,0.381-0.733
		c0.046-0.248,0.059-0.44,0.173-0.672c0.226-0.46,0.646-0.858,1.012-1.195c0.206-0.191,0.495-0.368,0.679-0.594
		c0.184-0.226,0.125-0.389,0.228-0.651c0.061-0.156,0.188-0.222,0.236-0.423c0.047-0.195-0.088-0.402,0.04-0.545
		c-0.269-0.603-0.069-1.336,0.266-1.866c0.286-0.453,0.615-0.837,0.781-1.358c0.133-0.417,0.062-0.902,0.235-1.296
		c0.212-0.484,0.512-0.359,0.89-0.569c0.28-0.156,0.281-0.338,0.623-0.39c0.18-0.027,0.423,0.107,0.587,0.015
		c0.18-0.101,0.192-0.365,0.323-0.506c0.158-0.171,0.499-0.413,0.702-0.537c0.34-0.209,0.708-0.274,1.022-0.556
		c0.269-0.241,0.421-0.574,0.685-0.822c0.528-0.495,1.115-0.252,1.707-0.552c0.231-0.117,0.447-0.312,0.662-0.446
		c0.08-0.05,0.2-0.069,0.288-0.123c0.083-0.052,0.104-0.195,0.196-0.257c0.269-0.182,0.533-0.204,0.796-0.442
		c0.033-0.029,0.116,0.033,0.15,0c0.06-0.058,0.081-0.204,0.138-0.249c0.298-0.232,0.437-0.299,0.651-0.627
		c0.315-0.482,0.669-0.677,1.247-0.742c0.39-0.044,1.726-0.12,1.834,0.254c0.229,0.002,0.306-0.13,0.469-0.226
		c0.18-0.107,0.41-0.129,0.598-0.23c0.145-0.078,0.208-0.268,0.336-0.313c0.115-0.04,0.345,0.032,0.467,0.039
		c0.513,0.027,1.848,0.157,1.873-0.608c0.317-0.072,0.63,0.078,0.942,0.106c0.314,0.028,0.481-0.087,0.734-0.137
		c0.241-0.049,0.59,0.104,0.832,0.027c0.167-0.053,0.259-0.213,0.382-0.328c0.342,0.521,0.612,0.09,0.844-0.217
		c0.094-0.124,0.299-0.245,0.366-0.356c0.085-0.141,0.064-0.305,0.151-0.429c0.084-0.119,0.268-0.326,0.347-0.426
		c0.186-0.237,0.407-0.479,0.833-0.465c0.635,0.02,0.56,0.383,0.886-0.276c0.274,0.105,0.313,0.34,0.591,0.393
		c0.443,0.084,0.483-0.216,0.706-0.479c0.199,0.112,0.267,0.349,0.442,0.476c0.042-0.079,0.448-0.428,0.522-0.457
		c0.407-0.157,0.683,0.221,1.051,0.323c0.45,0.126,0.44-0.071,0.564,0.421c0.098,0.388,0.141,0.667,0.424,0.915
		c0.101,0.088,0.306,0.216,0.421,0.304c0.198,0.15,0.078,0.308,0.348,0.171c0.208-0.105,0.18-0.371,0.432-0.473
		c0.719-0.292,0.619,0.642,1.05,0.854c0.398-0.224,0.725-0.92,0.504-1.381c-0.066-0.137-0.223-0.179-0.313-0.31
		c-0.161-0.235-0.099-0.408-0.151-0.66c-0.121-0.597-0.621-0.855-1.035-1.257c-0.248-0.241-0.422-0.482-0.594-0.796
		c-0.13-0.235-0.241-0.429-0.467-0.558c-0.213-0.122-0.324-0.043-0.516-0.256c-0.412-0.458-0.153-0.762-0.855-0.692
		c-0.602,0.06-1.007,0.417-1.548,0.632c-0.212-0.511-0.709-0.255-1.092-0.431c-0.162-0.075-0.219-0.289-0.388-0.364
		c-0.149-0.066-0.523,0.095-0.689,0.095l6.832-10.714c-0.133-0.297-0.068-1.055-0.306-1.212c-0.125,0.155-0.218,0.367-0.443,0.365
		c-0.276-0.003-0.16-0.188-0.321-0.316c-0.196-0.156-0.466-0.178-0.577-0.492c-0.052-0.148,0.067-0.554-0.076-0.665
		c-0.263-0.204-0.454,0.257-0.684,0.296c-0.869,0.145-0.042-0.601-0.095-0.788c-0.357-0.049-0.697,0.078-1.052,0.072
		c-0.541-0.009-0.267-0.137-0.572-0.328c-0.284-0.178-0.64-0.163-0.886-0.511c-0.189,0.06-0.229,0.256-0.189,0.448
		c-0.19,0.037-0.572-0.002-0.724-0.147c-0.181-0.174-0.014-0.484-0.399-0.539c-0.02-0.251,0.06-0.473-0.136-0.658
		c-0.14-0.133-0.334-0.037-0.488-0.116c-0.148-0.076-0.164-0.23-0.298-0.31c-0.212-0.126-0.467-0.041-0.668-0.147
		c-0.232-0.124-0.167-0.305-0.353-0.421c-0.234-0.147-0.432,0.134-0.667,0.084c-0.225-0.048-0.475-0.535-0.748-0.3
		c0.012,0.223,0.046,0.46-0.067,0.656c-0.334-0.041-1.035-0.128-1.285,0.112c-0.017,0.016-0.038,0.271-0.061,0.31
		c-0.04,0.071-0.289,0.35-0.37,0.381c-0.101,0.039-0.661-0.04-0.773-0.045c-0.223-0.009-0.365-0.072-0.542,0.004
		c-0.241,0.103-0.296,0.289-0.594,0.344c-0.327,0.061-0.568,0.038-0.709-0.25c-0.153-0.313-0.011-0.708-0.43-0.9
		c-0.156-0.072-0.355,0.041-0.512-0.045c-0.099-0.054-0.124-0.194-0.212-0.258c-0.238-0.175-0.459-0.144-0.774-0.258
		c-0.211-0.076-0.374-0.301-0.575-0.316c-0.164-0.012-0.482,0.174-0.633,0.243c0.031-0.263,0.061-0.576-0.011-0.832
		c-0.254,0.148-0.472,0.343-0.718,0.503c-0.034-0.088-0.111-0.143-0.146-0.217c-0.196,0.323-0.284,0.724-0.482,1.055
		c-0.177,0.297-0.299,0.2-0.538,0.425c-0.212,0.199-0.102,0.607-0.571,0.668c-0.532,0.069-0.698-0.434-1.287-0.084
		c-0.396,0.235-0.362,0.658-0.697,0.945c-0.011-0.046-0.059-0.113-0.074-0.172c-0.269,0.073-0.419,0.054-0.675,0.078
		c-0.319,0.029-0.365,0.177-0.609,0.28c-0.469,0.197-1.039,0.038-1.337-0.278c-0.194-0.206-0.076-0.186-0.317-0.272
		c-0.156-0.055-0.391-0.03-0.564-0.073c-0.442-0.109-1.042-0.585-1.48-0.393c-0.067,0.029-0.198,0.24-0.316,0.301
		c-0.233,0.121-0.509,0.067-0.759,0.103c-0.558,0.081-1.329,0.301-1.869,0.017c-0.168-0.088-0.163-0.2-0.274-0.307
		c-0.148-0.141-0.291-0.189-0.456-0.312c-0.386-0.285-0.396-0.505-0.85-0.084c-0.229-0.129-0.208-0.473-0.545-0.42
		c-0.021-0.476-0.353-0.799-0.353-1.318c0.493-0.132,0.325,0.048,0.509-0.391c0.104-0.249,0.329-0.42,0.419-0.656
		c-0.093,0.017-0.185-0.047-0.263-0.046c-0.023-0.189,0.046-0.359-0.019-0.531c-0.069-0.184-0.214-0.224-0.239-0.44
		c-0.03-0.261,0.225-0.594,0.18-0.829c-0.05-0.257-0.175-0.119-0.313-0.308c-0.193-0.265-0.157-0.516-0.39-0.797
		c-0.116-0.141-0.247-0.468-0.38-0.504c-0.054,0.79-0.814-0.025-0.978,0.732c-0.266-0.119-0.453-0.436-0.739-0.498
		c-0.33-0.071-0.536,0.233-0.811,0.035c-0.112-0.08-0.289-0.361-0.448-0.486c-0.295-0.23-0.412-0.335-0.329-0.692
		c0.075-0.319,0.432-0.46,0.513-0.729c0.05-0.165-0.065-0.482-0.126-0.654c-0.104-0.293-0.409-1.135-0.697-1.13
		c0.039-0.336-0.101-0.537-0.081-0.887c-0.4-0.055-0.266-0.361-0.404-0.633c-0.325,0.077-0.51-0.11-0.776-0.186
		c-0.4-0.115-0.476-0.154-0.724-0.478c-0.344,0.428-0.566,0.565-1.054,0.175c-0.33-0.265-0.252-0.771-0.498-0.996
		c-0.193-0.177-0.494,0.096-0.589-0.246c-0.546,0.706-0.635-0.749-0.734-0.933c-0.376,0.699-1.198-0.038-1.712-0.128
		c-0.443-0.078-0.667-0.085-0.828-0.524c-0.073-0.199-0.287-0.646-0.161-0.83c0.28,0.082,0.479-0.144,0.436-0.426
		c-0.023-0.155-0.305-0.075-0.286-0.386c-0.173,0.02-0.647-0.252-0.785-0.345c-0.442-0.298-0.205-0.426,0.009-0.788
		c-0.355-0.366,0.017-0.298-0.036-0.612c-0.026-0.15-0.362-0.71-0.455-0.773c-0.053,0.038-0.132,0.052-0.179,0.085
		c-0.116-0.276-0.071-0.472-0.326-0.666c-0.168-0.129-0.343-0.086-0.506-0.159c-0.433-0.196-1.151-0.846-1.368-1.244
		c-0.162,0.229-0.679,0.113-0.794-0.156c-0.045,0.043-0.182,0.073-0.228,0.121c-0.168-0.389-0.114-0.969-0.39-1.307
		C98.87,4.07,98.421,3.995,98.25,4.511c-0.231-0.037-0.619-0.24-0.744,0c-0.361-0.206-0.315-0.642-0.573-0.867
		c-0.128-0.111-0.272-0.029-0.429-0.1c-0.202-0.09-0.262-0.282-0.411-0.4c-0.371-0.293-0.842-0.565-1.295-0.467
		c-0.415,0.091-0.354,0.271-0.583,0.61c-0.302,0.447-0.69,0.358-1.175,0.417c-0.283,0.034-0.562,0.113-0.865,0.04
		c-0.572-0.139-1.134-0.378-1.772-0.168c0.011,0.169,0.003,0.339,0.012,0.507c0.33-0.011,0.661-0.13,0.895,0.085
		c0.144,0.132,0.252,0.457,0.343,0.637c0.192,0.378,0.303,0.814,0.543,1.161c0.204,0.296,0.532,0.533,0.836,0.723
		c0.096,0.06,0.243,0.047,0.324,0.129c0.043,0.044-0.024,0.143,0.024,0.196c0.094,0.103,0.135,0.155,0.252,0.255
		c0.149,0.128,0.353,0.181,0.497,0.3c0.226,0.187,0.162,0.11,0.203,0.407c0.019,0.141,0.045,0.44,0,0.573
		c-0.049,0.147-0.22,0.217-0.256,0.299c-0.174,0.397-0.037,1.293,0.101,1.741c0.08,0.259,0.171,0.496,0.23,0.769
		c0.067,0.304,0.362,0.609,0.351,0.918l-1.242,0.039l-0.854-0.505l-1.786,6.599l-0.272-0.194l-4.62,5.861l-6.454,4.969
		l-12.218,4.115l-1.203,0.777l-0.66,1.087c-0.251,0.108-0.696,0.444-0.621,0.776c-0.242,0.24-0.31,0.575-0.582,0.79
		c-0.38,0.3-0.485,0.322-0.352,0.811c0.176,0.649,0.165,0.773-0.47,1.04c-0.212-0.287-0.42-1.555-1.107-1.288
		c-0.245,0.095-0.209,0.567-0.245,0.791c-0.052,0.337-0.155,0.588-0.273,0.909c-0.145,0.393-0.31,0.95-0.385,1.37
		c-0.074,0.418,0.033,0.755-0.208,1.161c-0.096,0.162-0.226,0.288-0.3,0.464c-0.119,0.282-0.059,0.629-0.188,0.921
		c-0.223,0.504-0.927,0.361-0.898,0.969c0.012,0.243,0.186,0.459,0.138,0.697c-0.029,0.145-0.188,0.199-0.247,0.34
		c-0.102,0.243-0.075,0.526-0.21,0.774c-0.072,0.131-0.161,0.198-0.225,0.339c-0.159,0.349-0.88,2.088,0.079,1.912
		c-0.151,0.474-0.362,0.75-0.358,1.273c0.003,0.372-0.133,0.664-0.478,0.859c-0.558,0.316-1.35-0.089-1.765,0.559
		c-0.356,0.555-0.432,1.039-0.426,1.659c0.001,0.115,0.06,0.447-0.003,0.548c-0.116,0.186-0.212,0.068-0.377,0.144
		c-0.269,0.124-0.283,0.16-0.394,0.484c-0.068,0.196-0.11,0.605-0.312,0.686c-0.18,0.072-0.546-0.3-0.699-0.315
		c-0.553-0.054-1.255,0.005-1.784-0.134c-0.513-0.134-0.497-0.687-1.099-0.755c-0.065-0.166-0.071-0.346-0.071-0.524
		c-0.619-0.005-0.785-1.037-0.953-1.498c-0.168-0.461-0.319-0.79-0.324-1.28c-0.004-0.498,0.049-0.386-0.314-0.507
		c-0.205-0.068-0.342,0.016-0.545-0.1c-0.203-0.115-0.298-0.356-0.476-0.498c-0.342-0.273-0.47-0.257-0.966-0.103
		c-0.278,0.086-0.758,0.442-1.027,0.401c-0.22-0.033-0.479-0.394-0.634-0.544c-0.226-0.218-0.358-0.438-0.633-0.515
		c-0.309-0.085-0.563,0.031-0.84-0.186c-0.518-0.406-1.108-1.433-1.831-0.793c-0.235,0.208-0.297,0.624-0.51,0.865
		c-0.184,0.208-0.385,0.166-0.566,0.316c-0.349,0.29-0.154,0.613-0.733,0.607c-0.337-0.003-0.6-0.177-0.9-0.302
		c-0.023-0.578-0.032-0.781,0.29-1.225c0.287-0.395,0.877-0.762,1.03-1.223c-0.089-0.022-0.161-0.056-0.246-0.087
		c-0.241-0.088-0.077,0.042-0.307,0.043c-0.236,0.001-0.502,0.006-0.743,0.032c-0.154-0.51-0.696-2.135,0.175-2.28
		c0.505-0.084,1.184,0.573,1.682,0.114c0.077-0.071,0.03-0.241,0.107-0.311c0.094-0.086,0.255-0.061,0.366-0.123
		c0.217-0.124,0.646-0.449,0.792-0.64c-0.188-0.233-0.141-0.48-0.2-0.759c-0.045-0.21-0.136-0.296-0.191-0.483
		c-0.159-0.538-0.085-1.215-0.22-1.776c-0.074-0.307-0.194-0.636-0.249-0.938c-0.069-0.379,0.036-0.567,0.112-0.935
		c-0.794-0.458-1.521,0.536-2.226,0.763c-0.545,0.175-0.706,0.307-1.046,0.72c-0.361,0.438-0.6,0.835-1.11,1.072
		c-0.454,0.211-1.062,0.331-1.39,0.726c-0.345,0.415-0.49,0.947-0.884,1.351c-0.371,0.381-0.826,0.644-1.145,1.082
		c-0.165,0.227-0.282,0.496-0.466,0.71c-0.193,0.225-0.479,0.368-0.664,0.597c-0.426,0.528-0.986,0.964-1.41,1.488
		c-0.276,0.342-0.389,0.647-0.407,1.08c-0.02,0.453-0.104,0.45-0.306,0.806c-0.243,0.427-0.011,1.021-0.004,1.505
		c0.007,0.511-0.413,0.951-0.291,1.383c0.137,0.488,0.678,0.932,0.974,1.334c0.299,0.407,0.729,0.883,1.026,1.29
		c0.156,0.213,0.506,0.577,0.467,0.865c-0.053,0.396-0.519,0.362-0.764,0.542c-0.306,0.224-0.59,1.074-0.434,1.423
		c0.141,0.317,0.566,0.604,0.829,0.82c0.445,0.366,0.842,0.661,1.231,1.095c0.724,0.808,1.269,1.432,1.352,2.637
		c0.035,0.503,0.087,1.241-0.346,1.578c-0.397,0.309-0.901,0.136-1.325-0.012c-0.212-0.074-0.483-0.263-0.688-0.172
		c-0.132,0.059-0.486,0.568-0.559,0.705c-0.197,0.368-0.159,1.063-0.026,1.449c0.174,0.506,0.633,0.915,1.07,1.187
		c0.772,0.482,1.543,0.927,2.254,1.5c1.185,0.957,2.654,1.253,3.919,2.088c1.082,0.715,2.253,1.31,3.324,1.986
		c0.398,0.251,0.903,0.567,1.225,0.93c0.307,0.347,0.38,0.821,0.591,1.215c0.272,0.507,0.843,1.072,1.269,1.475
		c0.265,0.251,0.584,0.416,0.859,0.651c0.3,0.256,0.548,0.614,0.658,0.979c0.172,0.57,0.681,0.907,0.87,1.455
		c0.189,0.551,0.018,1.12,0.137,1.673c0.124,0.581,0.623,1.192,0.986,1.65c0.112,0.141,0.739,0.973,0.16,0.892
		c0.158,0.386,0.527,0.693,0.74,1.065c0.11,0.193,0.173,0.408,0.29,0.603c0.341,0.569,0.971,1.203,1.493,1.621
		c0.351,0.282,0.734,0.388,1.049,0.725c0.358,0.381,0.774,0.697,1.127,1.084c0.355,0.39,0.438,0.666,0.629,1.12
		c0.134,0.32,0.498,0.602,0.475,0.975c-0.017,0.272-0.29,0.322-0.271,0.532c0.019,0.214,0.798,0.676,0.945,0.855
		c0.354,0.429,0.936,1.018,0.998,1.58c0.057,0.515-0.28,0.86,0.055,1.325c0.33,0.458,0.697,0.804,0.916,1.357
		c0.177,0.445,0.096,1.002,0.31,1.4c0.176,0.327,0.528,0.356,0.744,0.662c-0.227,0.345-0.72,0.323-0.622,0.848
		c0.423,0.152,0.636,0.024,0.811,0.376c0.122,0.244,0.115,0.617,0.387,0.794c0.357,0.233,0.42,0.609,0.642,0.93
		c0.2,0.289,0.424,0.437,0.515,0.796c0.165,0.65,0.016,1.366,0.425,1.914c0.311,0.416,0.749,0.864,1.019,1.304
		c0.28,0.458-0.028,1.076,0.116,1.606c0.083,0.307,0.178,0.586,0.338,0.852c0.161,0.267,0.344,0.397,0.355,0.722
		c0.016,0.442-0.068,0.627,0.259,1.037c0.302,0.379,0.394,0.723,0.62,1.127c0.174,0.311,0.448,0.599,0.66,0.901
		c0.265,0.377,0.385,0.659,0.536,1.096c0.126,0.368,0.395,0.674,0.611,0.99c0.141,0.208,0.217,0.521,0.41,0.733
		c0.224,0.246,0.554,0.307,0.786,0.538c0.248,0.246,0.193,0.437,0.247,0.764c0.055,0.335,0.224,0.637,0.416,0.913
		c0.396,0.569,0.492,0.907,0.635,1.558c0.107,0.491,0.431,0.89,0.574,1.365c0.107,0.354,0.142,0.641-0.127,0.845
		c-0.145,0.11-0.228-0.07-0.342,0.121c-0.043,0.072-0.018,0.435,0.001,0.529c0.119,0.582,1.163,1.087,1.715,1.282
		c0.381,0.135,0.755,0.197,1.08,0.455c0.235,0.187,0.389,0.614,0.66,0.757c0.419,0.794,1.089,1.237,1.087,2.223
		c-0.001,0.517,0.373,0.967,0.611,1.436c0.138,0.272,0,0.564,0.08,0.883c0.05,0.2,0.017,0.461,0.037,0.669
		c0.043,0.444,0.079,0.589,0.435,0.825c0.285,0.188,0.602,0.312,0.701,0.676c0.092,0.338-0.071,0.496,0.268,0.706
		c0.298,0.185,0.663,0.261,0.972,0.525c0.529,0.453,1.171,0.914,1.283,1.647c0.047,0.307-0.087,0.676,0.017,0.971
		c0.105,0.296,0.425,0.412,0.644,0.62c0.476,0.456,0.378,1.039,0.695,1.581c0.261,0.447,0.715,0.616,1.072,0.982
		c0.554,0.567-0.032,1.967,0.599,2.483c0.035,0.331,0.308,0.432,0.545,0.611c0.259,0.198,0.459,0.441,0.676,0.687
		c0.607,0.689,0.895,1.526,1.379,2.292c0.53,0.84,0.757,1.774,0.593,2.79c-0.07,0.432-0.337,0.689-0.491,1.088
		c-0.104,0.27-0.058,0.784-0.345,0.919c-0.185-0.204-0.394-0.674-0.742-0.484c-0.198,0.108-0.353,0.732-0.417,0.948
		c-0.051,0.173-0.168,0.634,0.161,0.623c0.237-0.009,0.234-0.328,0.387-0.429c0.264,0.333,0.403,0.42,0.428,0.845
		c0.019,0.314,0.012,0.621,0.04,0.933c0.039,0.434-0.027,0.955,0.19,1.333c0.259-0.044,0.311-0.267,0.203-0.472
		c0.326,0.337,0.531,0.746,0.818,1.118c0.121,0.157,0.462,0.362,0.496,0.569c0.037,0.231-0.17,0.21-0.108,0.44
		c0.062,0.234,0.583,0.382,0.759,0.522c0.323,0.256,0.523,0.734,0.863,0.962c0.064,0.415,0.258,0.645,0.42,1.007
		c0.115,0.26,0.016,0.527,0.092,0.78c0.08,0.266,0.31,0.395,0.526,0.542c0.438,0.3,0.852,0.622,1.31,0.892
		c0.684,0.403,1.7,0.743,2.206,1.375c0.162,0.202,0.186,0.471,0.325,0.671c0.2,0.286,0.524,0.503,0.753,0.77
		c0.259,0.303,0.303,0.645,0.499,0.949c0.179,0.278,0.408,0.283,0.692,0.387c0.315,0.115,0.812,0.269,0.86,0.647
		c0.025,0.198-0.16,0.324-0.075,0.521c0.148,0.34,0.607,0.256,0.737,0.608c0.035,0.096-0.107,0.179-0.055,0.302
		c0.028,0.067,0.139,0.078,0.184,0.129c0.095,0.109,0.292,0.258,0.413,0.35c0.577,0.434,1.27,0.769,1.9,1.124
		c0.629,0.355,1.21,0.766,1.83,1.137c0.636,0.381,1.401,0.555,2.02,0.979c0.479,0.329,0.886,0.721,1.339,1.078
		c0.432,0.341,1.003,0.434,1.526,0.592c0.319,0.096,0.667,0.04,0.984,0.132c0.564,0.165,1.018,0.642,1.399,1.059
		c0.329,0.361,0.659,0.753,1.052,1.04c0.336,0.244,0.758,0.379,1.15,0.571c0.365,0.178,0.646,0.388,0.967,0.633
		c0.277,0.21,0.587,0.361,0.869,0.59c0.711-0.001,1.537,0.242,2.185,0.523c0.237,0.103,0.411,0.257,0.639,0.35
		c0.368,0.149,0.753,0.089,0.927,0.469c0.152,0.332,0.014,0.361,0.41,0.404c0.227,0.025,0.491,0.015,0.712,0.091
		c0.571,0.197,0.896,0.781,1.49,0.946c0.483,0.134,1.024,0.076,1.433,0.397c0.349,0.274,0.65,0.584,1.043,0.822
		c0.901,0.546,2.06,0.725,3.067,0.96c0.62,0.145,1.034,0.358,1.501,0.774c0.321,0.287,0.447,0.556,0.682,0.903
		c0.148,0.218,0.364,0.26,0.567,0.418c0.28,0.218,0.545,0.463,0.82,0.682c0.229,0.182,0.419,0.486,0.658,0.638
		c0.181,0.115,0.408,0.049,0.608,0.097c0.497,0.12,0.892,0.662,1.244,1.012c0.172,0.171,0.321,0.401,0.528,0.529
		c0.252,0.157,0.574,0.172,0.866,0.218c0.441,0.07,0.87,0.164,1.295,0.328c0.232,0.089,0.482,0.392,0.721,0.414
		c0.854,0.077,1.646,0.836,2.023,1.536c0.226,0.42,0.372,0.693,0.393,1.175c0.017,0.419,0.01,0.84,0.028,1.259
		c0.032,0.75,0.572,0.991,1.127,1.414c0.524,0.399,0.919,0.818,1.495,1.146c0.518,0.294,1,0.32,1.482,0.741
		c0.476,0.416,0.827,0.941,1.374,1.295c0.465,0.301,0.905,0.519,1.27,0.951c0.141,0.167,0.215,0.296,0.394,0.414
		c0.361,0.238,0.761,0.265,1.112,0.542c0.38,0.301,0.731,0.645,1.123,0.94c0.3,0.226,0.488,0.531,0.901,0.493l0.553-0.32h1.834
		l0.844-0.524h0.931l1.281-1.194l0.932-1.805c0-0.415,0.008-0.713-0.211-1.077c-0.109-0.181-0.272-0.316-0.284-0.532
		c-0.01-0.178,0.073-0.359,0.059-0.552c-0.01-0.129-0.012-0.329-0.077-0.437c-0.106-0.174-0.189-0.103-0.214-0.349
		c-0.034-0.335,0.254-0.528,0.262-0.867l1.397,0.146l1.922-1.602v-1.514l-0.99-0.874h-0.641l0.874-1.455l0.931-0.582
		c0.336-0.207,0.787,0.02,0.816-0.582c0.008-0.179-0.15-0.372-0.001-0.555c0.072-0.089,0.359-0.055,0.458-0.085l1.435-2.009
		c0.057-0.183,0.051-0.438,0.139-0.607c0.117-0.224,0.463-0.317,0.707-0.403c0.209-0.074,1.051-0.265,1.163-0.517
		c0.089-0.202-0.152-0.307-0.233-0.473c-0.104-0.213-0.018-0.388-0.022-0.602c-0.006-0.326-0.079-0.223-0.3-0.41
		c-0.157-0.133-0.38-0.436-0.297-0.653c0.115-0.301,0.552-0.387,0.66-0.733c0.058-0.187,0.034-0.516-0.025-0.701
		c-0.072-0.221-0.327-0.407-0.238-0.665c0.451,0.053,0.887,0.105,0.951-0.478c0.072-0.653-0.334-0.055-0.641-0.112
		c-0.132-0.025-0.232-0.186-0.383-0.162c-0.125,0.02-0.065,0.088-0.158,0.126c-0.172,0.069-0.245,0.136-0.333,0.233
		c-0.141,0.155,0.003,0.182-0.263,0.248c-0.158,0.04-0.344,0.022-0.508,0.029c-0.379,0.015-0.733-0.015-0.923,0.346
		c-0.118-0.092-0.165-0.236-0.31-0.325c-0.153-0.094-0.289-0.074-0.465-0.107c-0.486-0.09-0.529-0.286-0.529-0.758
		c-0.597,0.147-0.721-0.264-0.528-0.785c0.097-0.262,0.181-0.384,0.179-0.678c-0.003-0.477-0.05-0.529-0.513-0.654
		c-0.394-0.107-0.764-0.198-1.172-0.227c-0.367-0.027-0.855,0.115-0.969-0.357c-0.052-0.217,0.114-0.225-0.148-0.327
		c-0.258-0.101-0.505,0.012-0.736-0.231c-0.217-0.228-0.128-1.356-0.709-0.846c-0.675,0.593,0.672,0.696,0.369,1.178
		c-0.041,0.065-0.343,0.115-0.424,0.099c-0.179-0.034-0.175-0.112-0.31-0.248c-0.306-0.31-1.006-0.373-1.179-0.741
		c-0.049-0.104-0.018-0.295-0.061-0.416c-0.04-0.112-0.115-0.196-0.169-0.299c-0.13-0.246-0.21-0.448,0.13-0.59
		c0.304-0.128,0.45-0.022,0.654-0.336c0.2-0.306,0.152-0.517,0.208-0.851c0.405,0.404,0.853,1.591,1.623,1.403
		c-0.039-0.222-0.108-0.458-0.234-0.616c-0.07-0.089-0.197-0.103-0.258-0.209c-0.07-0.122-0.033-0.309-0.089-0.44
		c-0.228-0.529-1.621-1.966-0.977-2.466c0.196-0.152,0.852,0.099,0.917-0.212c0.042-0.204-0.313-0.206-0.203-0.43
		c0.162-0.333,0.557,0.102,0.743,0.086c0.223-0.019,0.208-0.273,0.475-0.212c0.053-0.22-0.338-0.456-0.011-0.637
		c0.267-0.147,0.547,0.241,0.682,0.397c0.208,0.24,0.165,0.47,0.321,0.702c0.17,0.253,0.324,0.157,0.605,0.188
		c0.658,0.072,0.721,0.606,1.17,1.001c0.149,0.131,0.272,0.109,0.439,0.202c0.218,0.122,0.081,0.098,0.203,0.267
		c0.116,0.161,0.166,0.266,0.421,0.302c0.257,0.036,0.296-0.02,0.388-0.261c0.096-0.253,0.157-0.471,0.319-0.701
		c0.134,0.099,0.201,0.271,0.386,0.29c0.175-0.53-0.329-1.13,0.231-1.536c0.228-0.165,0.29-0.085,0.405-0.368
		c0.034-0.083,0.032-0.238,0.111-0.307c0.068-0.059,0.17,0.015,0.243-0.032c0.487-0.314,0.053-0.59-0.252-0.822
		c-0.386-0.294-0.764-0.491-1.072-0.903c-0.245-0.327-0.256-0.739-0.512-1.007c-0.483-0.506-0.1-1.01-0.203-1.648
		c-0.125-0.772,0.352-0.965,1.046-1.128c0.036-0.265-0.197-0.604-0.09-0.864c0.045-0.108,0.171-0.157,0.237-0.261
		c0.063-0.101,0.064-0.237,0.111-0.344c0.107-0.248,0.238-0.242,0.443-0.43c0.194-0.178,0.19-0.478,0.354-0.648
		c0.111-0.115,0.342-0.088,0.457-0.234c0.09-0.115,0.059-0.211,0.12-0.331c0.156-0.306,0.44-0.271,0.701-0.441
		c0.569-0.372,0.067-0.778,0.21-1.239c0.042-0.134,0.096-0.184,0.108-0.322c0.007-0.083-0.068-0.112-0.06-0.19
		c0.017-0.168,0.141-0.245,0.147-0.421h1.456c-0.2-0.249-0.208-0.564,0.062-0.67c-0.253-0.272-0.356-0.875-0.623-1.054
		c-0.164-0.11-0.313-0.034-0.481-0.17c-0.112-0.091-0.242-0.297-0.284-0.441c-0.054-0.186,0.043-0.387,0.01-0.546
		c-0.035-0.164-0.246-0.278-0.135-0.499c0.059-0.117,0.26-0.199,0.338-0.346c0.083-0.156,0.1-0.344,0.211-0.466
		c-0.142-0.224-0.412-0.249-0.576-0.414c0.197-0.257-0.32-0.284-0.467-0.408c-0.091-0.076-0.454-0.452-0.467-0.561
		c-0.065-0.588,0.891-0.24,0.785-0.771c0.525-0.03,0.408-0.556,0.524-0.959c0.357,0.072,0.255-0.578,0.345-0.769
		c0.053-0.113,0.18-0.156,0.228-0.274c0.049-0.119-0.013-0.289,0.006-0.416c0.037-0.254,0.175-0.404,0.203-0.67
		c0.029-0.274,0.186-0.557,0.235-0.843c0.077-0.445-0.423-0.946-0.25-1.366c0.032-0.077,0.132-0.096,0.163-0.267
		c0.03-0.164,0.046-0.489-0.002-0.65c-0.073-0.246-0.2-0.181-0.203-0.498c-0.003-0.222,0.034-0.428,0.023-0.65
		c-0.008-0.161-0.084-0.42-0.003-0.566c0.049-0.088,0.172-0.09,0.23-0.166c0.064-0.084,0.066-0.184,0.115-0.278
		c0.029-0.055,0.007-0.147,0.048-0.195c0.038-0.045,0.145,0.005,0.165-0.023c0.043-0.056,0.092-0.101,0.122-0.173
		c0.097-0.235-0.053-0.421,0.232-0.582c0.153-0.086,0.296-0.027,0.437-0.192c0.035-0.041,0.293-0.373,0.294-0.392
		c0.008-0.168-0.235-0.261-0.265-0.422C161.432,133.671,161.867,133.525,162.084,133.324z"/>
</g>
</svg>
