<?xml version="1.0" encoding="utf-8"?>
<!-- Generator: Adobe Illustrator 26.0.3, SVG Export Plug-In . SVG Version: 6.00 Build 0)  -->
<svg version="1.1" xmlns="http://www.w3.org/2000/svg" xmlns:xlink="http://www.w3.org/1999/xlink" x="0px" y="0px"
	 viewBox="0 0 200 200" enable-background="new 0 0 200 200" xml:space="preserve">
<g id="Layer_1">
	<g id="Layer_1_00000061442898653323928190000005571608892069918396_">
		<g id="Layer_1_00000098929087308412571940000004538787532203942811_">
		</g>
	</g>
</g>
<g id="Isolation_Mode">
	<g>
		<path fill="#1E8346" d="M188.789,119.369c-0.097-0.377-0.247-0.549-0.518-0.784c-0.471-0.408-0.479-0.341-0.557-0.99
			c-0.043-0.361-0.059-0.87-0.182-1.2c-0.112-0.3-0.247-0.344-0.252-0.705c-0.006-0.369,0.07-0.544,0.278-0.833
			c0.195-0.271,0.892-0.811,0.825-1.178c-0.047-0.256-0.335-0.329-0.466-0.534c-0.151-0.238-0.162-0.603-0.242-0.87
			c-0.328-0.077-0.612,0.035-0.896-0.152c-0.21-0.139-0.331-0.437-0.502-0.605c-0.254-0.25-0.525-0.393-0.685-0.74
			c-0.116-0.251-0.109-0.546-0.263-0.809c-0.352-0.044-0.718-0.008-1.073-0.006c0.004-0.412-0.675-0.715-1.011-0.795
			c-0.201-0.048-0.375,0.036-0.536-0.068c-0.055-0.036-0.088-0.241-0.148-0.305c-0.133-0.144-0.317-0.207-0.475-0.318
			c-0.364,0.311-0.287,0.13-0.581-0.031c-0.241-0.131-0.521-0.233-0.778-0.342c-0.339-0.144-0.167-0.262-0.523-0.07
			c-0.177,0.095-0.355,0.367-0.503,0.506c0.264,0.501-0.508,0.564-0.831,0.59c-0.285,0.022-0.55-0.112-0.764-0.125
			c-0.233-0.015-0.402,0.09-0.622,0.232c-0.276,0.177-0.527,0.166-0.804,0.332c-0.208,0.125-0.212,0.27-0.49,0.308
			c-0.175,0.024-0.349-0.102-0.508-0.072c-0.398,0.075-0.832,0.52-0.902,0.888c-0.091,0.483-0.127,0.727-0.778,0.73
			c-0.452,0.002-0.837-0.199-1.286,0.035c-0.32,0.167-0.582,0.495-0.981,0.486c-0.084-0.352-0.345-0.109-0.603-0.204
			c-0.215-0.08-0.242-0.124-0.332-0.368c-0.273,0.074-0.376,0.329-0.608,0.458c-0.213,0.119-0.376,0.104-0.62,0.102
			c-0.331-0.003-0.38-0.002-0.639,0.134c-0.206,0.108-0.091,0.354-0.503,0.32c-0.232-0.019-0.337-0.201-0.553-0.321
			c-0.277-0.154-0.607-0.147-0.885-0.287c-0.583-0.293-0.893-0.497-1.27,0.234c-0.248-0.099-0.362-0.398-0.607-0.497
			c-0.236-0.095-0.605,0.105-0.805-0.076c-0.117-0.106-0.152-0.381-0.246-0.519c-0.193-0.281-0.372-0.343-0.436-0.685
			c-0.096-0.514,0.217-0.995,0.194-1.491c-0.023-0.497-0.618-0.64-0.195-1.149c0.337-0.405-0.034-0.769-0.081-1.179
			c-0.028-0.245,0.159-0.436,0.151-0.627c-0.011-0.297-0.052-0.127-0.245-0.282c-0.257-0.207-0.198-0.069-0.259-0.467
			c-0.029-0.191-0.137-0.297-0.176-0.443c-0.109-0.409,0.111-0.921-0.565-0.868c-0.161-0.413-0.321-0.208-0.557-0.317
			c-0.389-0.181-0.329-0.628-0.19-1.005c0.182-0.494,0.125-0.388-0.09-0.844c-0.117-0.248-0.142-0.609-0.247-0.895
			c-0.067-0.183-0.312-0.713-0.229-0.874c0.029-0.055,0.274-0.089,0.34-0.162c0.134-0.149,0.08-0.353,0.149-0.51
			c0.204-0.464,0.657-0.77,0.699-1.309c0.035-0.44-0.262-0.518-0.474-0.822c-0.527-0.753-1.062-1.376-0.003-2.054
			c-0.079-0.337-0.351-0.422-0.276-0.859c0.053-0.308,0.372-0.529,0.273-0.843c-0.025-0.08-0.204-0.204-0.255-0.294
			c-0.099-0.174-0.057-0.371-0.199-0.519c-0.24-0.249-0.617-0.243-0.844-0.04c-0.244-0.398-0.015-0.874-0.22-1.246
			c-0.185-0.335-0.454-0.376-0.479-0.822c-0.009-0.157,0.096-0.391,0.029-0.545c-0.075-0.174-0.34-0.183-0.419-0.376
			c-0.121-0.295,0.205-0.843,0.183-1.194c0.164-0.265-0.312-1.128-0.432-1.42c-0.263-0.641-0.24-1.249-0.238-1.95
			c0.002-0.703,0.418-1.088,0.736-1.687c0.366-0.69,0.273-1.558,0.249-2.325c-0.022-0.691-0.808-1.256-1.366-1.633
			c-0.258-0.174-0.371-0.318-0.507-0.584c-0.176-0.344-0.189-0.273-0.462-0.495c-0.36-0.292-0.491-0.747-0.54-1.2
			c-0.049-0.461,0.123-0.625,0.247-1.016c0.103-0.326-0.066-1.048-0.269-1.329c-0.224-0.31-0.51-0.081-0.786-0.315
			c-0.154-0.131-0.154-0.352-0.258-0.515c-0.127-0.199-0.314-0.307-0.476-0.471c-0.383-0.39-0.474-0.965-1.024-1.139
			c-0.36-0.113-0.937-0.238-1.307-0.207c-0.522,0.043-1.102-0.046-1.547,0.024c-0.259,0.041-0.466,0.103-0.774,0.075
			c-0.322-0.029-0.879-0.19-1.137,0.012c-0.499-0.363-0.966,0.015-1.529-0.027c-0.307-0.023-0.505-0.162-0.79-0.237
			c-0.26-0.069-0.705,0.051-0.901-0.207c-0.132-0.173,0.004-0.384-0.143-0.549c-0.194-0.219-0.681-0.141-0.939-0.236
			c-0.645-0.237-1.105-0.622-1.49-1.172c-0.339-0.483-0.256-1.005-0.527-1.514c-0.361-0.681-0.636-0.908-1.419-0.81
			c-0.345,0.043-0.459,0.232-0.74,0.349c-0.312,0.129-0.539,0.043-0.813,0.327c-0.188,0.195-0.162,0.271-0.216,0.519
			c-0.077,0.353-0.183,0.514-0.368,0.811c-0.148,0.236-0.154,0.486-0.292,0.69c-0.207,0.304-0.67,0.305-0.888,0.536
			c-0.202,0.215-0.12,0.369-0.407,0.539c-0.244,0.145-0.367-0.021-0.345,0.404c-0.496-0.069-0.557-0.194-0.817-0.518
			c-0.222-0.277-0.013-0.3-0.34-0.146c-0.411,0.194-0.365,0.649-0.925,0.489c-0.224-0.064-0.446-0.459-0.549,0.012
			c-0.014,0.066-0.273-0.047-0.278,0.019c-0.413-0.021-0.365-0.429-0.65,0.064c-0.132,0.229-0.167,0.609-0.392,0.77
			c-0.852,0.608-1.03-1.116-1.648-1.009c-0.035,0.465-1.199,0.009-1.454-0.143c-0.582-0.345-1.195-0.425-1.915-0.372
			c-0.633,0.047-1.333,0.291-1.964,0.13c-0.599-0.153-1.538-0.778-1.627,0.217c-0.665,0.065-1.302-0.532-1.908-0.266
			c-0.295,0.13-0.218,0.217-0.584,0.195c-0.246-0.015-0.466-0.038-0.674-0.187c-0.159-0.113-0.24-0.346-0.416-0.464
			c-0.238-0.16-0.358-0.11-0.632-0.173c-0.21-0.048-0.334-0.154-0.534-0.234c-0.393-0.158-1.129-0.099-1.606-0.281
			c-0.089-0.339-0.465-0.039-0.673-0.019c-0.268,0.026-0.69-0.074-0.846-0.298c-0.061-0.089-0.089-0.291-0.119-0.394
			c-0.053-0.182-0.084-0.211-0.189-0.358c-0.207-0.286-0.075-0.477-0.127-0.798c-0.42-0.073-0.962,0.419-1.387,0.138
			c-0.177-0.117-0.195-0.313-0.475-0.27c-0.247,0.037-0.314,0.288-0.474,0.457c-0.189-0.225-0.456-0.173-0.407,0.136
			c0.031,0.203,0.169,0.418-0.115,0.479c-0.248,0.053-0.439-0.136-0.628-0.197c-0.34-0.111-0.593,0.102-0.65,0.412
			c-0.183-0.084-0.308-0.079-0.395-0.256c-0.058-0.118,0.007-0.152-0.103-0.25c-0.154-0.136-0.352,0.011-0.55,0.088
			c-0.3,0.118-0.4,0.145-0.698,0.027c-0.179-0.071-0.304-0.127-0.49-0.139c-0.121-0.008-0.256,0.023-0.368-0.018
			c-0.262-0.094-0.063-0.256-0.177-0.457c-0.026-0.045-0.105-0.08-0.14-0.133c-0.042-0.063-0.026-0.153-0.067-0.211
			c-0.15-0.216-0.57-0.15-0.814-0.077c-0.121,0.036-0.114,0.119-0.276,0.068c-0.073-0.023-0.146-0.053-0.177-0.134
			c-0.109-0.289,0.258-0.398-0.022-0.665c-0.185-0.177-0.262-0.391-0.074-0.636c0.155-0.202,0.455-0.235,0.602-0.419
			c0.122-0.152,0.045-0.406,0.068-0.607c0.054-0.47,0.678-0.833,0.686-1.305c-0.06-0.067-0.153-0.36-0.169-0.464
			c-0.042-0.269,0.137-0.275,0.344-0.344c0.281-0.093,0.381-0.219,0.146-0.394c-0.254-0.188-0.525-0.413-0.815-0.552
			c-0.038-0.15,0.062-0.139,0.159-0.197c0.213-0.128,0.365-0.25,0.517-0.463c0.141-0.197,0.529-0.829,0.372-1.073
			c-0.076-0.119-0.348-0.1-0.454-0.18c-0.083-0.064-0.173-0.202-0.208-0.304c-0.095-0.275-0.038-0.549,0.226-0.686
			c0.305-0.158,1.048-0.342,0.922-0.837c-0.048-0.189-0.235-0.221-0.387-0.321c-0.147-0.097-0.282-0.231-0.385-0.373
			c-0.196-0.274-0.376-0.607-0.211-0.939c0.13-0.26,0.558-0.446,0.374-0.759c-0.19-0.323-0.645-0.317-0.909-0.546
			c-0.214-0.186-0.154-0.439-0.154-0.717c0-0.139-0.041-0.426,0.023-0.548c0.039-0.074,0.174-0.139,0.245-0.186
			c0.239-0.161,0.56-0.318,0.561-0.623c0-0.236-0.056-0.5,0.036-0.718c0.129-0.303,0.305-0.59,0.433-0.899
			c0.102-0.248,0.208-0.569,0.398-0.768c0.195-0.204,0.46-0.233,0.621-0.491c0.11-0.176,0.134-0.372,0.089-0.569
			c-0.06-0.26-0.109-0.262-0.34-0.261c-0.417,0.001-0.792-0.234-1-0.597c-0.207-0.361,0.189-0.59,0.471-0.734
			c0.2-0.102,0.407-0.241,0.548-0.419c0.13-0.163,0.136-0.337,0.197-0.533c0.054-0.174,0.127-0.304,0.124-0.489
			c-0.003-0.175-0.026-0.354-0.039-0.528c-0.011-0.147,0.001-0.317-0.025-0.462c-0.024-0.133-0.112-0.239-0.092-0.385
			c0.041-0.31,0.353-0.546,0.291-0.873c-0.044-0.232-0.264-0.388-0.313-0.618c-0.145-0.677,0.334-1.172,0.734-1.679
			c0.095-0.12,0.226-0.266,0.212-0.428c-0.015-0.153-0.154-0.243-0.131-0.413c0.029-0.208,0.234-0.392-0.084-0.499
			c-0.204,0.139-0.45,0.445-0.717,0.243c-0.165-0.125-0.198-0.43-0.311-0.599c-0.162-0.246-0.345-0.294-0.618-0.35
			c-0.231-0.048-0.435-0.028-0.425-0.313c0.016-0.506,0.726-0.692,1.103-0.837c0.184-0.071,0.34-0.05,0.421-0.254
			c0.073-0.18,0.02-0.418-0.077-0.591c-0.158-0.285-0.65-0.647-0.969-0.648c-0.34-0.001-0.797,0.348-1.131,0.203
			c-0.35-0.153,0.001-0.565,0.118-0.755c0.203-0.328,0.447-0.616,0.866-0.548c0.248,0.04,0.564,0.256,0.807,0.104
			c0.275-0.172,0.064-0.571-0.015-0.798c-0.441-0.24-0.539-0.465-0.562-0.94c-0.462-0.232-0.684-0.094-0.901,0.253
			c-0.188,0.301-0.338,0.425-0.703,0.426c-0.691,0.003-0.074-1.111-0.102-1.455c-0.53-0.176-0.936-0.427-0.651-1.031
			c0.122-0.257,0.285-0.393,0.184-0.676c-0.097-0.271-0.269-0.5-0.336-0.784c-0.134-0.564,0.023-0.941,0.272-1.436
			c0.085-0.169,0.217-0.418,0.213-0.618c-0.003-0.164-0.102-0.25-0.214-0.373c-0.155-0.171-0.303-0.4-0.495-0.534
			c-0.146-0.101-0.358-0.103-0.531-0.152c-0.238-0.066-0.375-0.174-0.551-0.344c-0.37-0.358-0.453-0.828-0.473-1.344
			c-0.02-0.504,0.193-0.914,0.177-1.401c-0.007-0.234-0.425-0.233-0.583-0.198c-0.139,0.031-0.161,0.092-0.262,0.171
			c-0.067,0.052-0.302,0.236-0.376,0.236c-0.202,0.002-0.297-0.548-0.331-0.718c-0.032-0.161-0.093-0.332,0.013-0.472
			c0.115-0.151,0.382-0.2,0.54-0.289c0.307-0.174,0.324-0.481-0.026-0.563c-0.189-0.044-0.618,0.009-0.65-0.334
			c-0.038-0.402,0.463-0.584,0.589-0.954c0.07-0.206-0.009-0.334-0.103-0.511c-0.099-0.187-0.088-0.425-0.22-0.588
			c-0.024-0.03-0.102-0.018-0.143-0.084c-0.033-0.052-0.047-0.195-0.059-0.259c-0.015-0.081-0.039-0.16-0.02-0.243
			c0.017-0.075,0.087-0.121,0.101-0.176c0.07-0.286-0.245-0.256-0.361-0.453c-0.185-0.316,0.087-0.787-0.019-1.127
			c-0.097-0.311-0.488-0.221-0.637-0.472c-0.082-0.138,0.006-0.329,0.089-0.477c0.101-0.18,0.172-0.298,0.119-0.517
			c-0.051-0.208-0.128-0.346-0.105-0.583c0.019-0.2,0.038-0.369,0.039-0.576l0.769-0.769l-1.616-1.281L85.644,3.039L66.031,3.178
			L52.252,6.903l-24.049,4.021l-4.061,10.329l-7.372,10.96l0.079,11.571L8.728,70.889c0.181,0.135,0.307,0.262,0.315,0.501
			c0.008,0.221-0.062,0.463-0.032,0.675c0.021-0.018,0.058-0.028,0.081-0.044c0.15,0.106,0.076,0.257,0.157,0.386
			c0.056,0.089,0.155,0.126,0.252,0.162c0.227,0.084,0.631-0.041,0.704,0.263c0.053,0.224-0.096,0.214,0.172,0.401
			c0.102,0.071,0.133,0.102,0.262,0.097c0.078-0.003,0.166-0.088,0.242-0.051c0.167,0.081,0.064,0.343,0.131,0.463
			c0.043,0.077,0.145,0.084,0.182,0.175c0.027,0.067-0.004,0.183,0.015,0.261c0.115,0.006,0.261,0.031,0.365-0.009
			c0.097-0.037,0.119-0.137,0.232-0.156c0.236-0.04,0.38,0.219,0.521,0.375c0.17,0.188,0.325,0.361,0.526,0.512
			c0.228,0.17,0.525,0.279,0.717,0.507c0.197,0.234,0.209,0.557,0.561,0.668c0.227,0.072,0.388-0.136,0.609-0.079
			c0.261,0.067,0.304,0.399,0.532,0.552c0.318,0.213,0.677,0.163,0.907,0.53c0.055,0.087,0.127,0.114,0.178,0.196
			c0.056,0.09,0.054,0.215,0.099,0.307c0.122,0.251,0.293,0.145,0.493,0.279c0.169,0.113,0.183,0.289,0.2,0.482
			c0.033,0.382-0.211,0.502-0.345,0.83c-0.137,0.333,0.147,0.422,0.408,0.526c0.129,0.051,0.195-0.003,0.268,0.147
			c0.07,0.143,0.02,0.256,0.116,0.382c0.114,0.15,0.223,0.151,0.259,0.353c0.027,0.152-0.013,0.32,0.046,0.47
			c0.065,0.168,0.21,0.274,0.313,0.411c0.096,0.127,0.134,0.297,0.248,0.422c0.183,0.199,0.282,0.294,0.398,0.557
			c0.085,0.195,0.158,0.388,0.256,0.578c0.158,0.305,0.386,0.563,0.558,0.86c0.139,0.005,0.278,0.006,0.417,0.015
			c0.07,0.185,0.133,0.402,0.103,0.602c0.266-0.064,0.792-0.306,0.791,0.188c0,0.112-0.107,0.224-0.096,0.34
			c0.013,0.144,0.159,0.341,0.296,0.162c0.066,0.064,0.09,0.198,0.142,0.288c0.12,0.209,0.316,0.292,0.537,0.382
			c-0.016,0.042,0.004,0.093-0.004,0.134c0.129,0.057,0.371,0.164,0.353,0.336c-0.016,0.155-0.227,0.247-0.28,0.392
			c-0.051,0.137-0.07,0.253,0.039,0.347c0.141,0.122,0.532,0.02,0.358,0.324c-0.159,0.277,0.056,0.614,0.024,0.925
			c-0.017,0.171-0.003,0.183,0.098,0.278c0.089,0.083,0.111-0.002,0.175,0.162c0.022,0.057,0.003,0.121,0.03,0.182
			c0.05,0.115,0.194,0.315,0.27,0.426c0.097,0.142,0.196,0.104,0.315,0.176c0.128,0.077,0.12,0.214,0.238,0.291
			c0.136,0.089,0.566,0.124,0.722,0.124c-0.009,0.125-0.125,0.202-0.082,0.333c0.266,0.013,0.619-0.014,0.844,0.154
			c0.088,0.065,0.105,0.165,0.179,0.235c0.108,0.101,0.117,0.057,0.251,0.086c0.253,0.054,0.345,0.236,0.454,0.477
			c0.093,0.206,0.23,0.306,0.354,0.486c0.266,0.386,0.222,0.715,0.758,0.812c0.308,0.056,0.749,0.057,0.946,0.341
			c0.095,0.136,0.058,0.3,0.126,0.449c0.079,0.172,0.183,0.312,0.251,0.499c0.121,0.334,0.207,0.465,0.513,0.661
			c0.339,0.217,0.376,0.664,0.736,0.829c0.358,0.164,0.517,0.027,0.85-0.108c0.266-0.108,0.335,0.063,0.582,0.15
			c-0.029,0.436,0.391,0.27,0.691,0.413c0.331,0.157,0.228,0.374,0.303,0.654c0.028,0.104,0.162,0.348,0.247,0.416
			c0.174,0.14,0.391,0.047,0.569,0.098c0.363,0.105-0.246,0.443,0.159,0.703c0.164,0.105,0.091,0.292,0.163,0.457
			c0.052,0.12,0.129,0.272,0.207,0.39c0.266,0.402,0.73,0.086,1.125,0.269c0.216,0.1,0.373,0.284,0.57,0.421
			c0.261,0.182,0.51,0.049,0.791,0.138c0.113,0.035,0.207,0.17,0.332,0.177c0.128,0.007,0.261-0.181,0.377-0.115
			c0.118,0.067,0.031,0.216,0.127,0.311c0.105,0.103,0.474,0.089,0.606,0.104c0.051,0.119,0.109,0.279,0.227,0.35
			c0.121,0.072,0.295-0.021,0.399,0.045c0.105,0.066,0.112,0.265,0.151,0.36c0.07,0.17,0.175,0.337,0.285,0.482
			c0.352,0.46,1.34,0.919,1.911,0.67c0.264,0.314,0.259,0.538,0.662,0.672c0.303,0.102,0.704,0.259,0.938,0.474
			c0.246,0.226,0.308,0.413,0.27,0.711c-0.018,0.14,0.03,0.187,0.065,0.312c0.036,0.13,0.001,0.247-0.001,0.38
			c-0.007,0.429,0.22,0.661,0.515,0.948c0.166,0.162,0.421,0.378,0.533,0.575c0.07,0.123,0.054,0.288,0.109,0.416
			c0.085,0.196,0.318,0.261,0.406,0.441c0.079,0.162,0.004,0.364,0.031,0.532c0.028,0.172,0.135,0.362,0.272,0.474
			c0.164,0.134,0.587,0.199,0.75,0.02c0.015,0.055,0.069,0.108,0.089,0.162c0.189-0.017,0.962-0.236,1.134-0.025
			c0.047,0.058,0.004,0.135,0.032,0.198c0.052,0.119,0.17,0.177,0.25,0.257c0.276,0.273,0.632,0.326,0.864,0.631
			c0.209,0.274,0.433,0.296,0.779,0.332c0.198,0.02,0.385,0.07,0.579,0.082c0.294,0.019,0.602-0.038,0.902-0.039
			c0.072,0,0.184-0.017,0.247,0.013c0.076,0.036,0.118,0.163,0.194,0.2c0.097,0.047,0.212,0.021,0.307,0.061
			c0.067,0.028,0.116,0.084,0.18,0.121c0.292,0.171,0.617,0.081,0.912,0.22c0.343,0.161,0.673,0.11,1.054,0.171
			c0.407,0.065,0.462,0.176,0.62,0.509c0.115,0.242,0.294,0.425,0.518,0.568c0.38,0.244,0.881,0.504,1.344,0.321
			c0.221-0.087,0.329-0.266,0.601-0.255c0.225,0.009,0.505,0.103,0.71,0.187c0.29,0.119,0.634,0.398,0.87,0.615
			c0.233,0.215,0.314,0.631,0.571,0.765c0.261,0.136,0.42,0.027,0.664,0.034c0.336,0.009,0.478,0.177,0.742,0.337
			c0.238,0.144,0.529,0.118,0.804,0.135c0.397,0.024,0.796,0.075,1.194,0.079c0.648,0.007,1.285-0.138,1.916-0.253
			c0.328-0.06,0.544-0.192,0.83-0.377c0.333-0.216,0.502-0.276,0.91-0.276l12.399,7.766c0.22,0.204,0.148,0.567,0.31,0.827
			c0.301,0.481,0.774,0.731,1.29,0.91c0.503,0.175,0.721,0.624,0.845,1.119c0.052,0.209,0.076,0.457,0.266,0.593
			c0.163,0.117,0.379,0.125,0.533,0.261c0.251,0.221,0.337,0.405,0.67,0.516c0.283,0.094,0.448,0.149,0.666,0.34
			c0.326,0.285,0.611,0.437,1.041,0.544c0.387,0.097,0.599,0.224,0.883,0.505c0.294,0.29,0.58,0.572,0.849,0.884
			c0.369,0.427,0.642,0.457,1.207,0.564c0.219,0.042,0.519,0.065,0.716,0.174c0.07,0.039,0.131,0.126,0.198,0.176
			c0.144,0.109,0.283,0.139,0.453,0.193c0.339,0.106,0.66,0.14,0.947,0.353c0.249,0.186,0.414,0.239,0.695,0.357
			c0.183,0.077,0.358,0.216,0.483,0.371c0.127,0.157,0.201,0.394,0.364,0.521c0.258,0.199,0.592,0.101,0.877,0.171
			c0.225,0.055,0.25,0.256,0.398,0.423c0.168,0.189,0.362,0.336,0.603,0.408c0.265,0.081,0.535,0.096,0.802,0.147
			c0.318,0.06,0.567,0.144,0.89,0.148c0.256,0.003,0.294,0.298,0.394,0.489c0.074,0.142,0.164,0.185,0.319,0.223
			c0.074,0.018,0.265,0.009,0.32,0.046c0.055,0.038,0.034,0.092,0.071,0.143c0.119,0.163,0.011,0.153,0.246,0.181
			c0.184,0.022,0.374,0.035,0.559,0.041c0.326,0.011,0.63-0.026,0.944-0.059c0.532-0.058,0.833,0.066,1.231,0.376
			c0.153,0.12,0.214,0.16,0.418,0.137c0.239-0.027,0.202-0.019,0.394,0.117c0.192,0.136,0.309,0.135,0.518,0.188
			c0.185,0.048,0.267,0.183,0.391,0.317c0.314,0.34,0.654,0.312,0.681,0.857c0.005,0.093-0.033,0.243,0.029,0.326
			c0.091,0.121,0.262-0.023,0.387,0.045c0.165,0.09,0.191,0.413,0.326,0.553c0.18,0.187,0.46,0.238,0.655,0.399
			c0.343,0.283,0.543,0.756,0.792,1.114c0.194-0.262,0.034-0.562,0.297-0.793c0.153-0.134,0.301-0.233,0.448-0.378
			c0.223-0.221,0.954-0.906,1.307-0.739c0.159,0.075,0.228,0.366,0.379,0.474c0.285,0.205,0.739,0.2,1.054,0.37
			c0.157,0.085,0.3,0.224,0.386,0.383c0.088,0.164,0.068,0.396,0.188,0.542c0.315,0.383,0.935-0.116,1.216,0.236
			c0.141,0.176,0.038,0.353,0.25,0.446c0.34,0.151,0.714-0.035,1.052-0.022c0.341,0.014,0.34,0.119,0.396,0.401
			c0.053,0.27,0.103,0.457,0.393,0.525c0.317,0.074,0.711,0.013,1.039,0.029c0.4,0.019,0.571,0.197,0.931,0.325
			c0.28,0.099,0.656-0.178,0.938,0.004c0.217,0.14,0.22,0.456,0.269,0.678c0.118,0.525,0.323,0.666,0.793,0.862
			c0.18,0.075,0.338,0.105,0.481,0.229c0.203,0.177,0.281,0.462,0.476,0.643c0.016-0.02,0.024-0.044,0.025-0.07
			c0.017,0.232-0.263,0.728-0.2,0.899c0.048,0.129,0.338,0.185,0.431,0.324c0.137,0.204,0.147,0.426,0.338,0.634
			c0.201,0.216,0.366,0.366,0.446,0.644c0.201,0.699,0.566,1.074,1.08,1.607c0.502,0.52,1.37,0.789,1.706,1.466
			c0.194,0.39,0.148,0.814,0.171,1.24c0.02,0.372-0.126,0.573-0.226,0.912c-0.11,0.371,0.217,0.86,0.067,1.17
			c-0.147,0.304-0.469,0.057-0.609,0.368c-0.117,0.259-0.136,0.804-0.406,0.973c-0.441,0.274-0.501-0.872-1.055-0.555
			c-0.372,0.212-0.024,1.035-0.135,1.395c-0.093,0.301-0.208,0.224-0.425,0.074c-0.305-0.212-0.59-0.428-1.002-0.271
			c-0.48,0.183-0.894,1.299-0.342,1.459c0.257,0.075,0.541-0.091,0.501,0.318c-0.023,0.239-0.449,0.642-0.66,0.759
			c-0.319,0.178-0.9-0.113-1.169,0.073c-0.528,0.363,0.468,1.099,0.523,1.454c0.026,0.166-0.313,0.684-0.468,0.777
			c-0.199,0.12-0.596-0.044-0.786,0.079c-0.12,0.077-0.245,0.46-0.224,0.622c0.037,0.28,0.345,0.341,0.444,0.575
			c0.18,0.427-0.421,0.405-0.649,0.608c-0.322,0.286-0.349,0.811-0.092,1.123c0.233,0.284,0.883,0.726,0.243,0.977
			c-0.213,0.084-0.478,0.062-0.69,0.001c-0.404-0.115-0.438-0.274-0.526,0.158c-0.156,0.768-0.688,1.265-1.387,1.613
			c-0.291,0.145-0.65,0.372-0.957,0.448c-0.325,0.08-0.868-0.151-1.142,0.023c-0.211,0.134-0.395,0.694-0.503,0.915
			c-0.148,0.302-0.224,0.609-0.352,0.915c-0.212-0.002-0.66-0.349-0.661,0.034c-0.001,0.306,0.633,0.6,0.821,0.791
			c0.659,0.671-0.69,0.907-0.996,1.397c-0.299,0.478,0.149,0.893,0.121,1.402c-0.032,0.582-0.681,0.667-1.027,1.031
			c-0.522,0.547-0.172,1.418,0.435,1.798c0.016,0.036,0.028,0.116-0.009,0.174c-0.21,0.01-1.061-0.037-1.022,0.358
			c0.018,0.179,0.383,0.287,0.441,0.495c0.058,0.21-0.071,0.396-0.091,0.592c-0.054,0.528,0.389,0.795,0.386,1.292
			c-0.002,0.295-0.032,0.583-0.06,0.873c-0.01,0.105-0.046,0.238-0.03,0.343c0.021,0.142,0.184,0.285,0.179,0.428
			c-0.01,0.25-0.503,0.334-0.741,0.23c-0.251-0.111-0.413-0.361-0.694-0.078c-0.319,0.32,0.037,0.677,0.075,1.012
			c0.028,0.25-0.029,0.511-0.002,0.761c0.021,0.196,0.142,0.301,0.181,0.465c0.042,0.177,0.043,0.327-0.121,0.442
			c-0.206,0.146-0.355-0.073-0.519-0.046c-0.428,0.07,0.029,0.613-0.058,0.875c-0.142,0.43-0.652,0.324-0.998,0.359
			c-0.282,0.028-0.753,0.135-0.527,0.537c0.15,0.267,0.518,0.131,0.686,0.407c0.106,0.174,0.102,0.481-0.122,0.559
			c-0.162,0.057-0.533-0.093-0.732-0.084c-0.401,0.018-0.352,0.144-0.544,0.46c-0.117,0.192-0.387,0.499-0.588,0.611
			c-0.247,0.138-0.583,0.047-0.858,0.124c-0.409,0.114-0.603,0.301-0.647,0.711c-0.019,0.178-0.066,0.608,0.118,0.696
			c0.046,0.2,0.166,0.354,0.174,0.557c-0.192,0.037-0.335,0.077-0.53,0.035c-0.241-0.053-0.239-0.191-0.406,0.058
			c-0.214,0.319,0.068,0.569,0.018,0.884c-0.159-0.002-0.753-0.045-0.883,0.031c-0.241,0.141-0.104,0.826-0.116,1.091
			c-0.023,0.497-0.023,0.751-0.591,0.747c-0.546-0.004-1.339-0.188-1.585,0.457c-0.108,0.286-0.092,0.812-0.014,1.107
			c0.189,0.711,0.921,0.582,1.375,1.013c0.465,0.442-0.173,0.81-0.132,1.323c0.023,0.285,0.029,0.195,0.323,0.244
			c0.183,0.03,0.428,0.18,0.597,0.173c0.151-0.006,0.409-0.163,0.553-0.223c0.269-0.111,0.525-0.218,0.808-0.316
			c0.671-0.233,1.257-0.079,1.916,0.077c0.532,0.126,1.162,0.089,1.623-0.184c0.156-0.093,0.297-0.258,0.479-0.324
			c0.311-0.114,0.669-0.07,0.993-0.069c0.773,0.001,1.667-0.062,2.405,0.197c0.423,0.148,0.725,0.39,1.146,0.235
			c0.388-0.144,0.729-0.176,1.166-0.196c0.838-0.038,1.649,0.085,2.482,0.104c0.564,0.012,1.503,0.072,1.881,0.582
			c0.104,0.14,0.099,0.365,0.253,0.498c0.219,0.189,0.618,0.174,0.886,0.206c0.777,0.091,1.819-0.112,2.418,0.444
			c0.358,0.332,0.825,0.378,1.273,0.557c0.362,0.145,0.69,0.203,1.079,0.219c0.467,0.019,1.005-0.046,1.429,0.13
			c0.232,0.096,0.439,0.26,0.681,0.334c0.218,0.067,0.456,0.062,0.679,0.116c0.592,0.145,1.121,0.243,1.742,0.273
			c0.559,0.027,0.865-0.032,1.339,0.293c0.209,0.144,0.492,0.238,0.694,0.358c0.276,0.164,0.561,0.173,0.875,0.205
			c0.491,0.05,0.858,0.404,1.357,0.476c0.62,0.089,1.372,0.283,1.964,0.055c0.435-0.167,0.922-0.542,1.366-0.56
			c0.384-0.016,0.644,0.003,1.002-0.149c0.374-0.159,0.476-0.371,0.784-0.588c0.518-0.364,1.165-0.006,1.727-0.228
			c0.302-0.119,0.478-0.311,0.813-0.338c0.434-0.035,0.785-0.067,1.193-0.241c0.788-0.336,1.816-0.155,2.67-0.174
			c0.538-0.012,1.146-0.194,1.66-0.36c0.582-0.188,1.06-0.729,1.661-0.848c0.493-0.097,1.08-0.014,1.553,0.099
			c0.281,0.067,0.38,0.128,0.652,0.271c0.154,0.08,0.391,0.203,0.49,0.04c0.436-0.208,1.069-0.186,1.39-0.597
			c0.139-0.177,0.103-0.375,0.217-0.542c0.104-0.151,0.295-0.161,0.425-0.271c0.132-0.112,0.153-0.227,0.321-0.305
			c0.058-0.027,0.148,0.009,0.215-0.018c0.139-0.056,0.175-0.158,0.283-0.23c0.185-0.123,0.378-0.135,0.366-0.395
			c-0.009-0.18-0.211-0.319-0.247-0.49c-0.114-0.544,0.74-0.535,0.933-0.966c-0.25-0.091-0.312-0.483-0.126-0.702
			c0.065-0.076,0.2-0.19,0.285-0.083c0.083,0.104-0.042,0.211-0.055,0.312c-0.018,0.135-0.052,0.206,0.006,0.348
			c0.091,0.224,0.169,0.078,0.127,0.404c-0.049,0.386-0.205,0.623-0.479,0.909c0.25,0.27,0.424,0.052,0.694,0.14
			c0.126,0.042,0.23,0.209,0.307,0.316c0.212,0.297,0.41,0.638,0.786,0.308c0.226,0.336,0.391,0.708,0.872,0.624
			c0.384-0.067,0.335-0.434,0.591-0.657c0.02,0.135,0.172,0.558,0.135,0.694c-0.049,0.182-0.288,0.229-0.312,0.412
			c-0.064,0.485,0.733,0.637,1.031,0.643c0.676,0.014,1.416-0.346,1.582-1.067c0.282,0.033,0.215,0.2,0.218,0.409
			c0.006,0.332,0.058,0.26,0.312,0.492c0.292,0.266,0.391,0.771,0.685,1.083c0.133,0.141,0.319,0.306,0.47,0.419
			c0.12,0.09,0.287,0.106,0.331,0.251c0.027,0.09-0.105,0.213-0.069,0.308c0.087,0.232,0.48,0.166,0.655,0.285
			c0.317,0.216,0.444,0.525,0.913,0.48c0.282-0.026,0.453-0.038,0.628-0.264c0.219-0.283,0.372-0.611,0.605-0.883
			c0.179-0.209,0.375-0.436,0.628-0.553c0.255-0.119,0.532-0.184,0.784-0.313c0.519-0.265,0.841-0.573,0.735-1.211
			c-0.041-0.248-0.23-0.454-0.238-0.71c-0.007-0.266,0.232-0.354,0.309-0.593c0.069-0.213,0.036-0.458-0.124-0.622
			c-0.169-0.172-0.313-0.104-0.522-0.114c-0.23-0.011-0.25-0.172-0.387-0.374c-0.087-0.127-0.281-0.363-0.141-0.51
			c0.03-0.032,0.145-0.02,0.186-0.039c0.133-0.061,0.21-0.137,0.294-0.258c0.198-0.284,0.334-0.46,0.718-0.446
			c0.206,0.007,0.308,0.086,0.471-0.09c0.309-0.335,0.074-0.563-0.046-0.879c-0.156-0.414,0.191-0.522,0.539-0.518
			c0.353,0.004,0.633,0.204,0.972,0.288c0.205,0.05,0.561,0.098,0.742-0.052c0.184-0.153,0.18-0.495,0.225-0.709
			c0.106-0.504,0.101-0.953,0.389-1.394c0.242-0.37,0.612-0.877,1.033-1.065c0.381-0.171,0.913-0.093,1.322-0.183
			c0.412-0.091,0.758-0.295,1.157-0.443c0.229-0.085,0.566-0.093,0.792,0.015c0.204,0.098,0.34,0.323,0.506,0.446
			c0.343,0.254,1.073-0.132,1.421-0.293c0.181-0.084,0.385-0.177,0.379-0.402c-0.009-0.329-0.343-0.594-0.358-0.958
			c-0.011-0.268-0.041-0.64,0.111-0.877c0.137-0.214,0.46-0.268,0.696-0.344c0.453-0.144,0.589-0.448,0.866-0.801
			c0.266-0.34,0.576-0.37,0.983-0.427c0.597-0.085,1.533,0.048,1.682-0.763c-0.221-0.349-0.23-1.444-0.013-1.799
			c0.369-0.604,2.289-1.096,2.673-0.398c0.323-0.3,0.702-1.059,0.713-1.51c0.014-0.629-0.551-1.295-0.217-1.893
			c0.253-0.451,0.794-0.831,1.168-1.181c0.333-0.311,0.958-0.716,0.999-1.213c0.024-0.285-0.087-0.665-0.089-0.947
			c-0.002-0.349,0.13-0.513,0.308-0.809c0.272-0.453,0.848-0.996,0.598-1.541c-0.147-0.32-0.501-0.483-0.28-0.845
			c0.153-0.25,0.483-0.415,0.675-0.647c0.15-0.183,0.375-0.484,0.32-0.739c-0.076-0.351-0.579-0.483-0.762-0.775
			c-0.305-0.485,0.005-0.767,0.142-1.24c0.162-0.555,0.005-1.015-0.142-1.534c-0.271-0.261-0.532-1.279-0.267-1.603
			c0.321-0.393,1.733,0.269,1.366-0.762c-0.166-0.466-0.502-0.654-0.242-1.191c0.193-0.4,0.407-0.805,0.557-1.23
			c0.183-0.518,0.101-0.685-0.268-1.091c-0.36-0.397-0.489-0.86-0.613-1.386c-0.089-0.377-0.153-0.733-0.282-1.099
			c-0.087-0.247-0.219-0.612-0.018-0.852c0.335-0.4,0.954,0.143,1.216-0.159c0.001-1.19,0.13-2.412,0-3.607
			c-0.066-0.607-0.733-1.032-0.341-1.614c0.177-0.264,0.327-0.419,0.194-0.698c-0.047-0.098-0.166-0.135-0.202-0.249
			c-0.065-0.205,0.061-0.466,0.208-0.605c0.27-0.255,0.555-0.207,0.791-0.552c0.264-0.385,0.005-0.681,0.414-0.989
			c0.038,0.069,0.14,0.135,0.198,0.195c0.632-0.358,0.62-1.253,0.719-1.877c0.051-0.32,0.218-0.547,0.265-0.888
			c0.014-0.102,0.128-0.273,0.05-0.388c-0.113-0.168-0.355-0.029-0.503-0.143c0.141-0.394,0.829,0.111,0.972-0.381
			c-0.115-0.06-0.238-0.103-0.343-0.179c0.239-0.147,0.647-0.33,0.477-0.708c-0.069,0-0.084-0.097-0.094-0.172
			c-0.159-0.039-0.121-0.213-0.269-0.274c-0.095-0.039-0.162,0.072-0.268,0.056c-0.102-0.015-0.133-0.094-0.213-0.114
			c-0.122-0.031-0.299-0.047-0.401-0.105c-0.082-0.047-0.168-0.017-0.263-0.057c-0.258-0.107-0.358-0.04-0.588,0.024
			c-0.085-0.193,0.048-0.182-0.151-0.305c-0.296-0.183-0.63-0.195-0.798-0.029c-0.284,0.279-0.166,0.381-0.442,0.145
			c0.074-0.131,0.296-0.26,0.157-0.412c0.117,0.006,0.953,0.087,0.787-0.198c0.237,0.27,0.527,0.018,0.814,0.079
			c0.369,0.078,0.511,0.521,1.018,0.303c0.009-0.241-0.264-0.474-0.323-0.708c0.144,0.089,0.33,0.185,0.501,0.118
			c0.008-0.156,0.044-0.319-0.095-0.417c0.142-0.153,0.604-0.144,0.597-0.404c-0.003-0.129-0.165-0.158-0.204-0.257
			c-0.036-0.093-0.003-0.284,0.012-0.376c0.03-0.183,0.156-0.231,0.224-0.417c0.074-0.199-0.051-0.518-0.083-0.708
			c-0.179,0.049-0.341-0.031-0.27-0.207c0.029-0.072,0.285-0.157,0.351-0.259c0.054-0.084,0.095-0.279,0.103-0.376
			c0.042-0.504-0.525-0.291-0.884-0.261c-0.477,0.04-0.738-0.346-1.08-0.585c-0.224-0.157-0.665-0.207-0.922-0.125
			c-0.177,0.057-0.531,0.493-0.707,0.311c0.099-0.039,0.371-0.18,0.422-0.273c0.06-0.108-0.051-0.37,0.092-0.416
			c0.117-0.038,0.237,0.178,0.365,0.174c0.071-0.003,0.038-0.143,0.114-0.146c0.152-0.006,0.119,0.041,0.246,0.123
			c0.216,0.141,0.378,0.305,0.638,0.407c0.154,0.061,0.398,0.178,0.567,0.111c0.127-0.051,0.188-0.29,0.28-0.309
			c0.191-0.04,0.515,0.181,0.751,0.177c0.215-0.003,0.747,0.013,0.725-0.299c-0.035-0.485,0.239-0.851,0.192-1.297
			c-0.014-0.136-0.062-0.257-0.046-0.405c0.011-0.104,0.104-0.234,0.084-0.34c-0.037-0.189-0.166-0.145-0.318-0.287
			c0.12-0.015,0.174-0.123,0.247-0.157c0.067-0.031,0.306-0.051,0.34-0.077c0.198-0.149,0.158-0.399,0.24-0.586
			c0.133-0.306,0.457-0.508,0.38-0.931c-0.205-0.053-0.39-0.238-0.604-0.092c-0.061-0.43,1.032-0.032,1.233-0.562
			c0.091-0.241-0.153-0.54-0.139-0.797c0.005-0.1,0.07-0.213,0.082-0.319c0.013-0.118-0.107-0.098-0.08-0.232
			c0.023-0.115,0.139-0.207,0.167-0.341c0.026-0.124,0.014-0.302,0.02-0.431c0.014-0.273,0.024-0.402-0.17-0.594
			c-0.157-0.155-0.246-0.104-0.328-0.34c-0.088-0.251,0.038-0.405-0.284-0.547c0.252,0.02,0.583-0.057,0.438-0.391
			c0.219-0.065,0.236-0.163,0.299-0.351c0.078-0.231,0.091-0.32,0.208-0.51c0.169-0.275,0.303-0.681,0.294-1.021
			c0.268,0.018,0.367-0.11,0.496-0.333c0.2-0.345,0.538-0.572,0.656-0.986C189.109,120.336,188.902,119.808,188.789,119.369z"/>
		<path fill="#1E8346" d="M137.425,193.322c-0.311-0.002-0.653,0.047-0.944-0.018c-0.108-0.024-0.243-0.002-0.369,0
			c-0.282,0.003-0.608,0.08-0.872,0.171c-0.189,0.065-0.409,0.152-0.573,0.268c-0.063,0.044-0.032,0.095-0.123,0.118
			c-0.014,0.003-0.127-0.046-0.141-0.048c-0.106-0.017-0.271-0.028-0.371,0c-0.398,0.114-0.516,0.642-0.186,0.924
			c0.197,0.168,0.472,0.281,0.686,0.434c0.136,0.097,0.243,0.182,0.402,0.238c0.093,0.033,0.205,0.039,0.268,0.105
			c0.067-0.049,0.123-0.108,0.227-0.242c-0.078-0.119-0.053-0.397,0-0.533c0.086-0.225,0.299-0.355,0.507-0.458
			c0.257-0.127,0.478-0.212,0.741-0.314c0.311-0.122,0.688-0.191,1.012-0.222c0.164-0.016,0.681-0.065,0.415-0.326
			C137.989,193.304,137.585,193.323,137.425,193.322z"/>
	</g>
</g>
<g id="c">
</g>
</svg>
