<?xml version="1.0" encoding="utf-8"?>
<!-- Generator: Adobe Illustrator 26.0.3, SVG Export Plug-In . SVG Version: 6.00 Build 0)  -->
<svg version="1.1" xmlns="http://www.w3.org/2000/svg" xmlns:xlink="http://www.w3.org/1999/xlink" x="0px" y="0px"
	 viewBox="0 0 200 200" enable-background="new 0 0 200 200" xml:space="preserve">
<g id="Layer_1">
	<g id="Layer_1_00000061442898653323928190000005571608892069918396_">
		<g id="Layer_1_00000098929087308412571940000004538787532203942811_">
		</g>
	</g>
</g>
<g id="Isolation_Mode">
	<path fill="#1E8346" d="M189.716,18.968c0.006,0.211-0.175,0.443-0.214,0.667c-0.034,0.195-0.011,0.387-0.031,0.58
		c-0.094,0.905-0.318,1.751-0.274,2.688c0.028,0.585,0.157,1.167,0.212,1.751c0.035,0.373,0.005,0.76,0.005,1.135
		c0,0.324,0.058,0.542-0.137,0.796c-0.169,0.22-0.253,0.57-0.53,0.698c-0.311,0.145-0.617,0.393-0.867,0.622
		c-0.228,0.208-0.385,0.466-0.606,0.681c-0.296,0.29-0.713,0.519-0.97,0.855c-0.287,0.376-0.491,0.83-0.794,1.212
		c-0.38,0.479-0.839,0.891-1.132,1.433c-0.233,0.433-0.379,0.905-0.611,1.346c-0.32,0.608-0.68,0.749-1.227,1.144
		c-0.686,0.494-1.016,1.323-1.655,1.844c-0.34,0.277-0.725,0.592-1.095,0.821c-0.549,0.34-1.173,0.26-1.676,0.705
		c-0.709,0.626-1.285,1.431-1.74,2.29c-0.37,0.699-0.257,1.478-0.781,2.068c-0.396,0.447-0.809,0.679-1.12,1.214
		c-0.146,0.251-0.374,0.421-0.521,0.651c-0.221,0.345-0.183,0.875-0.4,1.247c-0.436,0.748-1.462,0.808-1.954,1.375
		c-0.268,0.309-0.183,0.823-0.214,1.197c-0.054,0.645-0.43,0.92-0.658,1.483c-0.251,0.616-0.206,1.408-0.205,2.06
		c0.001,0.304,0.012,0.598-0.039,0.898c-0.071,0.419-0.27,1.283-0.561,1.551c-0.564,0.521-1.349,0.129-1.017,1.112
		c0.142,0.421,0.321,0.751,0.372,1.197c0.123,1.08,0.083,2.983,0.083,4.149c0,0.575-0.072,1.156,0.148,1.66
		c0.226,0.518,0.667,0.658,0.932,1.166c0.235,0.451,0.174,0.97,0.166,1.49c-0.01,0.588-0.456,1.271-0.411,1.705
		c0.049,0.475,0.928,1.231,1.084,1.745c0.153,0.506,0.236,1.704-0.017,2.208c-0.24,0.479-0.727,0.559-0.908,1.127
		c-0.143,0.445-0.019,0.879,0.003,1.345c0.025,0.526-0.063,1.072,0.039,1.587c0.083,0.418,0.321,0.717,0.293,1.154
		c-0.048,0.732,0.018,1.409-0.185,2.108c-0.097,0.333-0.133,0.756-0.079,1.107c0.059,0.389,0.178,0.536,0.551,0.465
		c0.446-0.085,0.862-0.209,1.259,0.108c0.45,0.36,0.728,0.972,0.642,1.546c-0.091,0.61-0.269,1.123-0.216,1.769
		c0.027,0.329,0.157,0.516,0.321,0.806c0.269,0.476,0.143,0.975,0.083,1.513c-0.045,0.411-0.26,0.653-0.389,1.007
		c-0.122,0.333-0.053,0.773,0.074,1.095c0.205,0.519,0.46,0.845,1.055,0.75c0.434-0.069,0.85-0.279,1.252,0.019
		c0.097,0.621,0.777,0.724,0.78,1.318c0.002,0.352-0.332,0.493-0.481,0.775c-0.145,0.275-0.167,0.407-0.268,0.785
		c-0.162,0.601-0.559,1.092-0.733,1.669c-0.287,0.953,0.264,1.162,0.797,1.667c0.536,0.508,0.862,0.93,1.502,1.3
		c0.766,0.444,1.086,0.862,1.381,1.732c0.152,0.447,0.107,0.973,0.286,1.388c0.152,0.354,0.468,0.592,0.637,0.932
		c0.331,0.668,0.308,1.358,0.902,1.92c0.508,0.48,1.29,0.583,1.622,1.265c0.417,0.857-0.222,1.646,0.82,1.983
		c0.424,0.137,0.922-0.019,1.359,0.139c0.568,0.206,1.046,0.702,1.459,1.116c0.796,0.796,1.578,1.955,1.754,3.096
		c0.166,1.07,0.037,2.357,1.408,2.665c0.441,0.099,0.782-0.144,1.167-0.093c0.712,0.095,0.64,0.373,1.116,0.988
		c0.288,0.372,1,0.85,1.012,1.38c0.013,0.624-0.82,0.986-1.075,1.456c-0.199,0.367-0.196,0.521-0.227,0.963
		c-0.067,0.953-0.277,1.874-0.342,2.82c-0.048,0.699,0.366,1.264,0.351,1.907c-0.015,0.642-0.832,1.466-1.256,1.924
		c-0.316,0.341-0.877,0.641-1.08,0.986c-0.225,0.38-0.313,1.257-0.338,1.696c-0.055,0.957,0.697,2.545-1.007,2.382
		c-0.69-0.066-1.511-0.712-1.722,0.494c-0.622,0.632-1.374,0.799-1.257,1.899c-0.569,0.091-0.451,0.63-0.836,0.908
		c-0.26,0.188-0.726-0.004-1.012,0.309c-0.206,0.226-0.218,1.089-0.316,1.428c-0.099,0.346-0.406,0.706-0.475,0.954
		c-0.018,0.067-0.223,0.046-0.245,0.137c-0.041,0.173,0.154,0.263,0.139,0.386c0.012-0.1,0.134,0.8,0.022,0.653
		c0.32,0.415,0.396,0.162,0.908,0.21c0.83,0.078,0.828,0.102,0.748,0.894c-0.047,0.474-0.176,0.914-0.175,1.416
		c-1.449,0.177-0.018,1.864,0.094,2.573c0.066,0.422-0.146,0.646-0.151,0.94c-0.013,0.646,0.478,0.788,0.486,1.35
		c0.003,0.244-0.372,1.21-0.465,1.506c-0.083,0.264-0.367,0.363-0.459,0.619c-0.148,0.409-0.067,0.977-0.077,1.413
		c-0.013,0.589,0.593,2.848-0.49,2.768c-0.049,1.06-0.358,1.882-0.816,2.859c-0.556,1.184-1.798,1.714-2.286,2.999
		c-0.257,0.677-0.419,1.402-0.869,2.001c-0.299,0.399-1.025,0.793-1.211,1.217c-0.114,0.26,0.013,0.571-0.053,0.853
		c-0.059,0.253-0.326,0.631-0.435,0.888c-0.354,0.837-0.664,1.582-0.975,2.332c-0.438,1.056-1.074,1.42-1.809,2.274
		c-0.561,0.651-0.762,1.981-1.452,2.466c-0.547,0.383-1.715,0.253-2.384,0.253c-0.399,0.397-1.217,1.119-1.489,1.693
		c-0.359,0.758-0.223,1.715-0.265,2.534c-0.557,0.014-1.015-0.032-1.517,0.153c-0.555,0.205-0.47,0.401-1.192,0.433
		c-1.553,0.068-3.077-0.032-4.585-0.23c-0.571-0.075-1.445-0.115-1.601-0.682c-0.019-0.069,0.294-0.294,0.277-0.48
		c-0.022-0.239-0.1-0.364-0.184-0.581c-0.214-0.557-0.536-0.506-0.34-1.17c0.223-0.757,1.216-0.709,1.263-1.257
		c-0.266-0.182-0.5-0.393-0.672-0.661c0.314-0.272,0.404-0.66,0.341-1.077c-0.737-0.2-1.649-0.663-2.291-0.707
		c-0.622-0.043-0.888,0.472-1.341-0.289c-0.289,1.135-0.307,1.396-1.433,1.835c-0.47,0.183-0.679,0.385-1.34,0.403
		c-0.406,0.011-0.937,0.068-1.329-0.058c-1.106-0.355-0.381-1.082-0.97-1.811c-0.282-0.348-0.676-0.252-1.007-0.452
		c-0.232-0.141-0.258-0.381-0.442-0.542c-0.583-0.509-1.276-1.066-1.714-1.765c-0.155-0.248-0.666-1.113-0.674-1.352
		c-0.042-1.28,1.403-0.664,1.54-1.688c0.101-0.755-0.888-1.102-1.524-0.761c-0.05,0.746-0.63,0.795-1.228,1
		c-0.846,0.289-1.03,0.584-1.644,1.138c-0.726,0.655-1.826,0.957-2.178,1.948c-0.358,0.039-0.631-0.319-0.894-0.268
		c-0.292,0.057-0.386,0.609-0.762,0.559c-0.838-0.109-0.222-1.296-0.267-1.758c-0.452-0.052-1.263-0.124-1.34-0.655
		c-0.364,0.228-1.11,0.404-1.458,0.669c-0.581,0.442-0.192,0.687-0.2,1.302c-0.257-0.013-0.41,0.144-0.647,0.195
		c0.38,0.983-0.282,1.364-1.067,0.656c-0.367,0.478-0.755,1.759-1.664,1.074c-0.201-0.152-0.169-0.621-0.429-0.857
		c-0.473-0.428-1.076-0.245-1.671-0.34c-0.039-0.131-0.106-0.198-0.149-0.308c-0.411,0.616-0.834,0.256-1.279,0.663
		c-0.252,0.229-0.091,0.78-0.304,1.012c-0.512,0.555-1.012-0.04-0.581,0.944c0.379,0.866,0.421,0.921-0.309,1.718
		c-0.359,0.392-0.801,1.025-1.552,0.57c-0.537-0.325-0.058-0.807-0.417-1.309c-0.569,0.585-1.641,0.226-2.265-0.016
		c-0.396,1.237-1.292,0.168-1.842,0.085c-0.367-0.056-1.27,0.48-1.701,0.551c-0.415,0.068-1.022,0.21-1.442,0.169
		c-0.352-0.035-0.659-0.261-1.015-0.286c-0.752-0.053-1.522,0.545-2.262,0.661c-0.652,0.102-1.364-0.075-1.998,0.059
		c-0.452,0.095-0.714,0.383-1.188,0.483c-0.977,0.205-2.151-0.617-2.514-1.381c-0.121-0.255,0.057-0.527-0.163-0.783
		c-0.323-0.377-0.857-0.29-1.284-0.314c-1.001-0.057-1.458,0.034-2.269-0.597c-1.314-1.022-5.04-3.969-6.372-1.364
		c-0.236,0.461,0.03,0.955-0.198,1.414c-0.227,0.455-0.693,0.352-0.743,0.851c-0.044,0.443,0.454,0.624,0.555,0.937
		c0.321,1.002-0.485,1.407-1.102,2.07c-0.344,0.37-1.041,1.32-0.291,1.589c0.772,0.277-0.682,0.953-1.142,0.735
		c-0.511-0.243-1.005-1.603-1.763-1.412c-0.587,0.148-0.641,1.936-0.826,2.445c-0.217,0.598-1.422,1.716-1.002,2.436
		c0.473,0.81,1.762,0.701,2.499,0.774c0.489,0.049,1.386,0.18,1.666,0.677c0.269,0.477-0.169,0.587-0.205,1.134
		c-0.054,0.816,0.78,1.36,1.518,1.591c1.252,0.391,1.747,0.363,1.909,1.876c0.074,0.692-0.252,1.463,0.357,1.858
		c0.147,0.095,0.298-0.411,0.753-0.013c0.334,0.291,0.153,0.701,0.367,1.005c0.52,0.739,0.786,0.665,0.925,1.559
		c0.144,0.929,0.243,1.547-0.909,1.511c-0.129,1.133,0.665,2.583,1.12,3.61c0.592,1.334-0.884,1.685-1.949,2.458
		c-0.664,0.482-1.437,0.915-2.282,0.917c-0.629,0.001-0.512-0.151-1.009-0.341c-0.593-0.227-0.907-0.321-1.588-0.331
		c-1.667-0.025-2.365-0.213-3.832-1.092c-0.912-0.546-2.148-1.791-3.302-1.262c-0.605,0.277-0.612,1.102-1.291,1.17
		c-1.019,0.102-2.169-1.16-2.927-1.646c-0.698-0.447-1.313-0.738-2.148-0.74c-0.772-0.001-1.041,0.578-1.654,0.595
		c-0.701,0.02-1.041-0.723-1.539-1.017c-0.824-0.487-1.521-0.123-2.356-0.321c-0.622-0.147-1.196-0.673-1.625-1.165
		c-1.009-1.155-0.617-1.696-2.325-2.075c-1.505-0.333-2.2-0.512-3.573,0.206c-0.976,0.51-0.86,0.267-1.295-0.562
		c-0.576-1.096-1.616-1.607-2.263-2.615c-0.277-0.432-0.238-1.104-0.759-1.258c-0.503-0.811-1.586-1.696-2.116-2.53
		c-0.636-1-0.958-1.73-0.954-2.992c0.001-0.257,0.066-0.626,0.006-0.877c-0.194-0.799-0.158-0.4-0.782-0.734
		c-0.855-0.457-1.805-0.776-1.883-1.827c-0.08-1.084,0.126-1.354-0.649-2.371c-0.66-0.867-1.268-1.219-1.554-2.299
		c-0.123-0.464-0.153-0.643-0.364-0.993c-0.204-0.338-0.762-0.651-0.873-1.028c-0.206-0.697,0.591-0.966,0.444-1.92
		c-0.522,0.078-1.783,0.196-2.143-0.323c-0.062-0.09-0.046-1.073-0.067-1.234c-0.047-0.356-0.062-0.889-0.17-1.23
		c-0.655-0.05-1.336-0.122-2.009-0.155c0.041-0.4,0.323-0.689,0.518-1.041c0.399-0.717,0.196-0.44,0.234-1.068
		c0.096-1.56-0.102-1.626-1.755-1.504c0.002-0.312,0.004-0.624,0.009-0.937c0.016-1.255-1.295-1.947-1.727-2.989
		c-0.207-0.499,0.062-3.115-1.428-2.08c-0.379-0.746,0.09-1.267,0.112-1.996c-0.327-0.09-0.917-0.17-1.273-0.06
		c-0.11,0.034-0.152,0.362-0.219,0.365c-0.596,0.027-0.485-0.478-0.988-0.718c-0.582-0.277-0.946,0.289-1.122-0.527
		c-0.032-0.145,0.268-0.542,0.257-0.791c-0.029-0.699-1.178-1.405-0.628-2.115c0.145-0.187,0.885-0.287,1.128-0.505
		c0.452-0.404,0.568-0.786,0.481-1.445c-0.714-0.095-1.377,0.264-2.132,0.235c-0.062-0.369,0.121-0.663,0.136-0.985
		c0.012-0.251-0.199-0.489-0.15-0.706c0.107-0.47,1.118-1.055,0.354-1.459c1.508,0.347-0.489-3.075-0.879-3.448
		c-0.874-0.836-0.41-0.362-0.347-1.672c0.033-0.687-0.578-1.07-0.874-0.193c-0.408,0.021-0.874,0.056-1.251-0.062
		c-0.136-0.761,0.625-0.999,0.915-1.585c-0.551,0.041-1.43,0.005-1.238-0.751c0.18-0.707,0.488-1.429,0.415-2.198
		c-0.026-0.273-0.11-0.71-0.164-0.908c-0.087-0.321-0.375-0.734-0.424-1.041c-0.163-1.021,0.815-1.631,0.505-2.739
		c-0.156-0.56-0.617-2.15-1.165-2.381c-0.483,0.661-1.805,0.849-2.537,0.893c-0.505,0.03-1.119,0.204-1.626-0.072
		c-0.357-0.194-0.394-0.649-0.873-0.743c0.461,1.352-1.777,2.464-2.89,1.701c-0.43-0.295,0.022-0.643-0.757-0.879
		c-0.852-0.258-1.546,0.544-2.37,0.571c-0.446,0.015-0.74-0.257-1.118-0.355c-0.613-0.158-1.033,0.042-1.715,0.022
		c-1.254-0.036-2.578-0.97-3.127-2.101c-0.479-0.985,0.175-2.092,0.545-3.086c0.267-0.717,0.607-1.871,0.107-2.555
		c-0.676-0.927-1.609-1.276-2.12-2.322c-0.258-0.529-0.732-1.385-1.196-1.715c-0.335-0.238-1.131-0.35-1.563-0.565
		c-1.246-0.621-2.356-1.107-2.328-2.597c0.015-0.784,0.128-1.701-0.129-2.443c-0.235-0.68-0.688-1.35-0.964-2.023
		c-0.451-1.096-1.396-1.804-2.06-2.755c-0.594-0.85-0.677-2.606-1.768-2.861c-0.468-0.109-0.803,0.016-1.265-0.174
		c-0.507-0.208-0.622-0.524-0.995-0.887c-0.249-0.244-0.509-0.429-0.762-0.638c-0.156-0.129-0.146-0.26-0.326-0.373
		c-0.201-0.125-0.451-0.002-0.67-0.138c-0.421-0.263-0.418-0.874-0.343-1.391c0.109-0.749,0.309-1.41,0.366-2.183
		c0.047-0.633,0.093-0.878-0.36-1.375c-0.534-0.585-0.5-0.692-0.697-1.413c-0.084-0.307-0.265-0.507-0.32-0.842
		c-0.143-0.873,0.357-1.595,0.627-2.377c0.124-0.359,0.138-0.736,0.322-1.081c0.191-0.359,0.471-0.552,0.645-0.944
		c0.145-0.326,0.084-0.718,0.283-1.003c0.238-0.342,0.765-0.444,1.043-0.768c0.593-0.69,0.295-1.421,0.5-2.199
		c0.097-0.024,0.214-0.034,0.317-0.016c0.38,0.064,0.804-0.631,1.039-0.946c0.387-0.519,0.145-0.98-0.057-1.527
		c-0.483-1.309-0.004-2.304,0.789-3.326c0.468-0.604,1.076-1.059,1.465-1.728c0.503-0.866,0.803-1.907,1.016-2.874
		c0.377-1.712,2.165-2.884,2.282-4.695c0.033-0.511-0.121-0.395-0.298-0.839c-0.127-0.319,0.012-0.664-0.073-0.99
		c-0.116-0.439-0.558-0.82-0.828-1.213c-0.415-0.607-0.357-1.065-0.357-1.779c0-0.749-0.027-1.086-0.6-1.375
		c-0.94-0.474-1.505-0.165-1.83-1.311c-0.246-0.868,0.64-1.278,1.117-1.942c0.571-0.794,0.887-1.735,1.57-2.452
		c0.557-0.584,1.276-0.945,2.07-1.011c0.632-0.052,1.257,0.238,1.889,0.113c0.986-0.196,0.832-0.686,1.271-1.443
		c0.332-0.573,0.883-0.912,1.426-1.254c0.539-0.34,1.341-1.13,2.01-1.206c0.834-0.094,1.677,0.628,2.526,0.678
		c1.043,0.06,1.794-0.719,2.802-0.867c1.201-0.176,1.632,0.522,2.674,0.808c0.517,0.142,1.181,0.061,1.719,0.06
		c0.692-0.001,1.704,0.198,2.357-0.002c0.44-0.135,0.443-0.374,0.758-0.667c0.525-0.488,0.888-0.324,1.522-0.451
		c0.556-0.112,0.268-0.187,0.682-0.414c0.216-0.118,0.236-0.168,0.498-0.208c0.679-0.105,0.814,0.495,1.44,0.563
		c0.352,0.038,0.442,0.055,0.616-0.262c0.315-0.57-0.131-0.835-0.514-1.107c-0.556-0.395-0.842-0.647-0.986-1.346
		c-0.172-0.835,0.062-1.072,0.498-1.764c0.57-0.903,0.053-2.433,1.25-2.876c1.649-0.61,1.569,1.823,3.037,1.758
		c0.834-0.037,2.003-1.427,1.444-2.248c-0.619-0.909-0.989-2.014-1.782-2.86c-0.433-0.462-1.465-1.444-1.968-0.812
		c-0.485,0.609,0.406,1.142,0.41,1.789c-0.629,0.593-1.471-0.142-1.644-0.783c-0.23-0.849,0.167-1.438,0.357-2.233
		c0.375-1.565-1.281-1.935-2.395-1.006c-0.287-1.762,2.313-2.548,3.168-3.605c0.386-0.478,0.245-1.219,0.244-1.863
		c-0.002-1.056,0.104-1.611,0.772-2.411c0.552-0.661,1.999-0.408,2.529-1.002c1.26-1.413,1.044-3.158,1.617-4.757
		c0.209-0.583,0.455-1.269,0.627-1.856c0.18-0.609,0.015-1.683,0.015-2.314c0-1.066-0.073-2.133,0.166-3.166
		c0.11-0.478,0.043-0.979,0.159-1.454c0.094-0.386,0.261-0.696,0.464-1.024c0.575-0.935-0.006-2.116,1.057-2.797
		c0.796-0.51,0.814-1.034,1.175-1.895c0.368-0.879,1.087-0.64,1.835-0.868c0.219,0.082,0.699-0.43,0.936-0.55
		c0.441-0.221,0.926-0.358,1.364-0.601c1.773-0.985,3.943-0.381,5.82-0.009c2.476,0.49,4.959-0.186,7.448,0.039
		c1.885,0.17,3.573,1.399,5.4,1.801c0.754,0.166,1.54,0.04,2.296,0.174c0.462,0.082,0.932,0.215,1.381,0.351
		c1.588,0.481,3.339,1.066,5.024,0.994c1.212-0.052,2.437,0.485,3.577,0.922c0.733,0.281,1.47,0.472,2.237,0.658
		c0.801,0.195,1.683,0.291,2.451,0.574c0.92,0.339,1.757,0.734,2.732,0.915c0.83,0.155,1.665,0.21,2.502,0.33
		c0.631,0.091,1.155,0.095,1.658,0.501c0.94,0.759,1.723,1.185,2.953,1.339c0.765,0.095,1.487,0.066,2.21,0.36
		c0.441,0.18,0.954,0.602,1.419,0.609c-0.211-0.991-1.052-1.859-0.903-2.918c0.252-0.034,0.559-0.002,0.806-0.026
		c-0.662-0.835-1.939,0.064-2.311-1.306c-0.534-1.959,1.754-3.805,3.115-4.755c2.028-1.415,4.663-0.464,6.922-0.602
		c0.549-0.033,1.05-0.212,1.555-0.422c0.59-0.246,1.021-0.313,1.675-0.327c1.52-0.033,3.003,0.175,4.498,0.246
		c1.328,0.063,2.936,0.256,4.243,0.372c1.537,0.136,3.126,0.119,4.594,0.672c1.34,0.505,2.456,1.558,3.839,1.965
		c0.533,0.157,1.054,0.339,1.605,0.394c0.52,0.052,1.036-0.127,1.563-0.211c0.577-0.091,2.735-0.389,3.283,0.034
		c-0.481-0.299-1.519-0.775-1.226-1.436c0.256-0.576,1.729-1.21,2.317-1.451c0.565-0.233,1.197-0.248,1.798-0.296
		c1.128-0.092,2.253-0.126,3.384-0.126c1.455,0.001,2.895,0.326,4.351,0.415c3.596,0.219,7.498-0.585,10.976,0.344
		c3.231,0.863,6.565,0.852,9.731,1.833c3.973,1.231,8.218,1.091,12.201,2.385c2.073,0.674,4.247,1.662,6.139,2.575
		c0.259,0.125,0.757,0.413,1.028,0.572c0.388,0.228,0.715,0.391,1.029,0.694c0.405,0.391,0.689,0.743,0.765,1.297
		c0.038,0.278-0.172,0.479-0.233,0.738c-0.065,0.273-0.07,0.523-0.187,0.789c-0.184,0.422-0.454,0.799-0.697,1.189
		c-0.123,0.195-0.268,0.376-0.383,0.577C189.809,18.625,189.906,18.811,189.716,18.968z"/>
</g>
</svg>
