<?xml version="1.0" encoding="utf-8"?>
<!-- Generator: Adobe Illustrator 26.0.3, SVG Export Plug-In . SVG Version: 6.00 Build 0)  -->
<svg version="1.1" id="Layer_1" xmlns="http://www.w3.org/2000/svg" xmlns:xlink="http://www.w3.org/1999/xlink" x="0px" y="0px"
	 viewBox="0 0 200 200" style="enable-background:new 0 0 200 200;" xml:space="preserve">
<style type="text/css">
	.st0{fill:#1E8346;}
</style>
<g id="Layer_1_00000026851191361263121570000002654193200274295480_">
	<g id="Layer_1_00000061442898653323928190000005571608892069918396_">
		<g id="Layer_1_00000098929087308412571940000004538787532203942811_">
		</g>
	</g>
</g>
<g id="Isolation_Mode">
	<g>
		<path class="st0" d="M196.4,75.1c-1.9-2-2.8-4.3-6-3.9c-0.2,0-3.1-0.2-1.9,0.4c-1.2,1.3-2.7,1.3-4.1,0.4c-1.3-0.3-2.9-0.3-4.2-0.3
			c-0.1,0.1-0.2,0.1-0.3,0.2c0.1-1.3,4.5-0.7,5.5-1c0.2,0.1,0.5-0.3,0.2-0.5c-0.4,0-0.9,0-1.2-0.2c-1-0.3,0.4-0.7,0.2-1.3
			c-0.4,0.1-0.7,0.4-1,0.5c0.5-0.4,1.1-0.8,0.1-1.1c0.2-0.7-0.6-0.2-0.7,0.1c-0.2-0.4,0.6-0.6,0.6-0.9c-0.4-0.1-1.4,0.3-1.6-0.2
			c-0.2-0.6,0.9-0.3,1.1-0.6c0.3-0.7-0.7-0.4-0.9-0.5c-0.3-0.3-0.4-0.6-0.9-0.7c0.2-0.4,0.9,0.1,1.1-0.3c0.4-0.5-0.3-0.4-0.6-0.4
			c0-0.1,0.1-0.2,0.2-0.3c-0.4-0.3-0.3-0.9-0.2-1.3c-0.6-0.1-1.2,0-1.9,0.1c0.7-1.1,2.8-1.1,3-2.5c-1-3.6-6.1-2.6-8-5.5
			c-0.5-0.7-1-1.5-1.9-1.6c-0.5,0-0.6-0.1-0.9-0.4c-0.8-0.8-2.5-1.1-1,0.4c-0.2,0-0.4,0.2-0.5,0.3c-0.7,0.1-2.5-1.3-2.8-0.1
			c-1.5-1.2-2.9-3.1-5-3c-0.3,0.3-0.5,0.1-0.6,0.6c0,0.3,0,0.3-0.2,0.4c-0.5,0.5-1.4-0.4-1.5,0.4c0,0.4,0.3,0.8,0,1.2
			c-0.3-0.4-0.6-0.8-1-1.1c0.7-0.7,0.4-1.7-0.5-1.9c-0.5-1-0.5-2.7-2-2.5c-0.7,0.1-0.2,0.8-0.3,1.3c-0.6-0.8-0.6-1.3-0.8-2.3
			c1-0.6,0.3-1.2-0.4-1.6c-0.4-0.9-2.2-2.6-1.5-0.4c-1.4-3.8,5.6-1,7.2-1.7c1-2.6,5.8,0,6.6-2.8c-4.1,0.3-8.6,1.3-12.5-0.5
			c-1.1,0.3-2.3,1-3.6,1c-0.6-0.1-1.1-0.4-1.8-0.2c-0.7-0.1-1.3-0.1-1.8,0.4c-1.9,0.1-3.8,0.4-5.7,0.7c-0.9,0-2-0.4-2.7-0.9
			c-0.6,0.9-1.9,1.2-3,1c-0.5-0.3-1-0.5-1.6-0.1c-0.5,0.3-0.9,0-1.5,0c-0.2,0-0.4,0.1-0.4-0.2c-1.3-0.2,0.1,1.7,0,2.3
			c1.5-2.6,6.1-0.4,8.3,0.1c-1.8,0.7-4.5,0.9-6.4,0.3c-0.5-0.4-1.2-0.5-1.4,0.2c-0.6,1-2.1,0.1-2.5,1.4c-0.8,1.8-2.8,1.4-4.3,2.1
			c-1.1,2.9-3.9,1.4-6.3,2.1c-1-0.9-2.3-0.2-3.4-0.2c-2.9-2.5-9.7-2.2-10.6-6.9c0.9-0.2,0.5-0.8-0.3-0.7c-0.8-0.1-1.7-1.2-2.5-0.9
			c-0.5,0.7-1.1,0.7-1.8,0.4c-7.7-0.7-15,2.4-22.6,2.4c-1.1-0.2-2.4-0.1-3.1-1.2c-1-1.2-3.1-4.2-0.4-4.5c-0.8-1.3-1.4-2.9-2.1-4.3
			c-0.2-0.8-0.7-0.3-1.2-0.7c-0.6-0.7-1.2-1.5-2.3-1.5c-0.5-0.6-0.9-0.9-1.7-0.9c-1-0.9-2-1.4-3.4-1.2c-1.6-0.1-3.2-1.2-4.7-1.2
			c-0.7,0.9-1.6,0.3-2.6,0.3c-0.7,0.1-1.5,0.4-2.2,0.5c-0.6-1.1-1.3-2.3-1.9-3.4c-1-2.1-0.3-6.1-3.1-6.9c-1.1-0.4-1.7,0.5-2.5,1
			c-0.3,0.1-0.7-0.1-0.9,0.3c0.2,1.1-1.1,1.6-1.2,2.7c0.1,1.4,2.1,2.1,1.1,3.7c-0.2,1.6,3.2-0.4,4.1,0c1.6-0.6,2.5,0.3,2.5,1.9
			c0,1.5-1.2,1.8-1.9,0.5c-0.3-0.1-0.6,0-0.7-0.4c-0.4,0.1-0.8,0-1.3,0.1c-0.3,0.2,0,0.5-0.2,0.8c-0.2,0.3-0.8,0-0.9,0.3
			c-0.3-0.4-0.7-0.3-0.7,0.2c-0.2,0.8-0.7,0.8-1.5,1c-0.8,0.2-1.5,0.6-2.3,1c-0.7,0.2-1.6-0.3-1.8,0.6c-0.8,0.6-2.1,0-3,0.5
			c-1.1,0-1.9,0.3-2.7,1.1c-2.4,1.6-5.1,2.6-8,2.5c0.2,0.3,0.6,0.4,0.7,0.8c0.1,0.4-0.1,0.8,0.1,1.3c0,0.7-0.4,0.3-0.7,0.2
			c-0.3-0.1-0.9,0-1.2,0.2c1.2,1.3-0.3,3.7,1.5,4.6c0,1.8,1,4,2.6,4.8c0.5,0.5,0.6,1.3,0.7,1.9c0.2,0.6,1,1,1.4,1.4
			c0.8,0.7,0.7,1.9,1.3,2.7c0,1.2-0.8,2.2-0.8,3.4c0.5,0.7,0.1,1.5,0.5,2.3c-0.3,1.2-2.1,1.3-2.6,2.5c-1.3,1.8-4.2,2.1-6.3,2
			c0-0.1,0.1-0.2,0.1-0.2c-1.6-0.5-0.6-1.2-1-2.3c-0.8-0.4-1,0-0.3-0.9c0.8,0.1,0.5-1.6-0.2-1.5c-0.5-0.2-0.5-0.6-1-0.7
			c-0.3-0.3-0.5-0.6-0.9-0.8c-0.9-0.8-0.9-2-1.9-2.8c-1.5-1.2-1.1-2.6,0.1-3.9c0.5-0.7,0.3-1.6,1-2.1c1.5-0.7,2.2-1.9,2.4-3.5
			c3.2-1.7,2.1-2.4,3.1-5.2c0.1-1.7-2.4-2.3-1.9-4.2c0.4,0,0.9,0,1.3,0c0-0.7-0.6-0.8-1-1.3c-2.2-0.8-3.3-3.3-3.8-5.5
			c-1.6-3.8,6.1-3,8.3-4.6c0.4-0.5,0.9-0.9,0.9-1.6c-0.5,0.1-0.9-0.1-0.8,0.5L22.1,27l-4,7.4c-5.5-0.1-1.8,1.1-4.6,3.4
			c-0.2,0.3-0.7,0.4-1,0.5C12,38.6,12.4,39.6,12,40c-0.7,0.2-0.9,0.9-1,1.5c-0.1,0.6-0.7,0.9-1,1.3c-0.1,0.6-0.2,1.1-0.7,1.5
			c-0.5,0.3-0.5,0.8-0.3,1.3c-0.5,1-0.4,2.1-0.4,3.2c0.1,0.5,0,1-0.4,1.2c-0.2,0.8-0.4,1.6-0.7,2.3c-0.1,0.4,0.1,0.6,0.4,0.9
			c0.1,1-1,1.9-1.3,2.8c-0.3,0.6,0.1,1.5-0.8,1.5c-0.6,0.3-0.6,1.1-1.3,1.2c0.3,0.7-0.2,1.1-0.7,1.4c-0.2,0.3-0.2,0.8-0.4,1.1
			C1.5,63.5,3,63.6,5,63c0.3-0.5,0.8-0.5,1.3-0.5c-0.1-0.1-0.1-0.3-0.1-0.5c0.5,0.1,0.7-0.3,1.1-0.5c0.1,0.3,0,0.4-0.1,0.7
			c-0.3,0.8,1.1,0.9,0.2,1.5C8,64.3,8.7,65,9,63.8c0.5-0.1,1.5-0.1,1.6,0.6c0,0,1.7,7.1,1.7,7.1l3.7,3.6l0,1.6
			c0.3,0.6,0.5,1.1,0.3,1.7c0.2,0.6,0.6,1,0.1,1.6c-0.9-0.9-0.8,0.7-1.7,0.9c0.6,1.6,0.3,3.3,0,4.9c0.4,0.5,0.3,1.1,0.2,1.7
			c0,1.5,1.7,2,3,1.6c1.4-0.3,1.2,1.3,1.4,2.1c1,2.2,2.2,3.6,4.8,3c-0.2-0.7,0.7-0.4,1.1-0.4c0.5,0.3,1,0.7,1.5,0.2
			c0.7-0.4,0.6,0.7,1.4,0.3c0.9-0.2,1.6,0.3,2.5,0c1.2,0.3,2.7-0.4,3.8,0.1c0.3,0.9,1.5,0.5,2,0.1c0.8-0.2,1.3-0.8,2.2-0.8
			c0.9-1,1.6-0.6,2.6,0c0.9-0.3,1.3,0.1,1.8,0.8c0.4,0.2,0.9-0.1,1.2,0.3c0.1,0.1,0.1,0.2,0.3,0.3c0.8,0,1.4,0.8,2.3,0.4
			c0.1-0.6,1.4-0.4,1.8-0.4l9.8,12.5c1.1-0.7,1.5,0.4,2.4,0.6c1.1-0.5,1.9-2.5,3.3-1.9c1,0.1,2.6-0.8,3.1,0.5
			c0.3,0.8,1.3-0.4,1.9,0.3c0.7-0.1,1.4-0.5,2.1-0.2c0.8-0.7,2.1-0.6,3.1-0.2c1.3-0.3,2.8-1.5,4.2-0.7c1.6,0.2,2.2-2.5,4.1-1.1
			c7.3,0,2.3,1.5,4.6,4.1c0.1,0.3,0,0.6-0.3,0.7c-1.3,0.7-2.7,1.9-2.7,3.6c1.8,6-3.6,3.3-3.1,6.8c0.5,0.6-0.3,1.1-0.2,1.7
			c0.3,0.5,0.9,0.9,0.7,1.7c-0.8,1.6,0.2,3.5-0.5,5.3c-0.3,0.9-0.4,1.8,0.7,2c0.2,0.3-0.3,0.9,0.3,1.2c0.1,0.2-0.1,0.2-0.1,0.4
			c0.2,0.4,0.4,0.6-0.1,0.9c-0.5,1.7,1.2,2.8,1.2,4.6c0.6,1.1,0.7,4.6,2.7,3.5c0.7-0.4,0.3,1,0.8,1.2c0.5,0.3,0.1,1,0.4,1.4
			c0.5,1,0.9,1.9,1.7,2.7c0.3,0.9-1.2,1.1-0.8,2.2c-0.2,0-0.6,0.1-0.8,0.1l-6,5.5v1.2c0.9-1.6,2.1,0.3,3.2-0.5
			c0.8,0.5,1.1,1.5,1.1,2.5c0.3-0.1,0.4-0.4,0.6-0.4c0.5,0.7,1.1,1.1,1.8,1.5c0.7,0.5,0.8,1.2,1.3,1.8c0.4,0.5,1.1,0.6,1.4,1.3
			c0.1,0.6-0.4,1.1-0.1,1.7c0.2,0.7,0.6,1.7,1.4,1.7c0,0.3,0.1,0.6,0.2,0.9c-0.1,0.8-0.6,1.3,0.3,2c0.6,2.5,2.3,4.6,2.4,7.1
			c0,0.5,0.1,0.4,0.5,0.7c1.1,0.6-0.3,1,0.1,1.9c0.1,0.2,0.1,0.6,0.4,0.5l7.6,6.8c0.7,0.1,1.3-0.5,2-0.4c0.4,0.7,1.2,0.3,1.4-0.3
			c0.1-0.7,1.4,0.1,1.7-0.6c0.1-0.2,0.1-0.6,0.3-0.8c0.4-0.1,0.6-0.2,0.6-0.7c0.8,0,1.8-0.2,2.2-1c0.3,0,0.5,0,0.8-0.1
			c0,0.1,0.1,0.2,0.1,0.3c0.1,0,0.2-0.1,0.3-0.2c0.1,0,0.2,0.1,0.2,0.2c0.9-0.8,2.4,1.3,2,2.3c-0.5,0.6-1.3,1.4-1.1,2.2
			c0.6,1.1,2.1-0.3,2.3-1c0.3-0.1,0.4-0.3,0.4-0.7c-0.3-0.6,0.6-0.8,0.8-1.3c0.2-0.4,0.1-0.7,0.7-0.7c0.3,0,0.3,0.2,0.7,0.2
			c0.2,0,0.4-0.2,0.4,0.2c0.5-0.2,1.6-1.3,0.8-1.6c-0.2-0.9,0.4-1.7,1.4-2c0.2,1.5,1.6,0.3,1.6-0.7c0.5,0,0.7-0.6,1.1-0.6
			c0,0.1,0,0.1,0.1,0.2c0.4-0.3,0.7-0.8,1.1-1c0.4,1.5,1.2,1.3,1.9,0.2c0.4-0.2,1-0.2,1.3-0.5c0.2-0.5,0.3-0.9,0.8-1.2
			c0.3-0.7,0.9-0.6,1.4-1c0.2-0.2,0.8-1,1.1-0.6c0.4,1-1.6,1.4,0.3,2.1c0.7-0.7,0-1.9,1.6-1.8c0.3-1.3,1.5-0.8,2-1.7
			c0.5-0.6-0.1-1.9,0.3-2.4c-0.4-2.4,1.3-2.8,3.4-2.6c0-0.6,1,0.3,1.3-0.3c0.3-0.6,0.7-0.5,1.2-0.3c0.4,0,0.3-0.2,0.3-0.5
			c0.2-0.9,1.3-1.7,2-0.8c0.3-0.1,0.4-0.5,0.7-0.5c0.2,0,0.2,0.2,0.5,0c0.4-0.4,0.4-0.9,0.7-1.3c0.3-0.8-0.5-1.2-0.1-1.8
			c0.5-0.6-0.4-0.8-0.6-1.3c0.1,0.3-0.2,0.6-0.3,0.8c-0.4-0.5-1-0.4-1.5-0.4c-0.3-0.2-0.8-0.5-1.1-0.2c-0.5-0.1-1-0.2-1.5,0
			c-0.3,0-0.8-0.5-1.1-0.6c-0.7-0.2-1.3,0.4-2,0.2c-0.4-0.4-0.8,0-1.2-0.2c-0.3-0.2-0.4-1.1-0.2-1.4c0.2-0.3,1-0.5,0.9-1.1
			c-0.5-0.6,0.1-1.1-0.2-1.8c-0.3-0.8-1-1.3-1.3-2.2c-0.2-0.2-0.3-0.6-0.5-0.8c-0.4-0.2-0.5,0.2-0.5-0.3c0-0.3,0-0.5-0.1-0.7
			c-0.9-0.7-0.7-1.7-0.6-2.8c0-0.8-0.4-1.5-0.6-2.2c0.5-1.4,2.1-2.3,0.1-3.6c-1-2-3.9-1.3-4.5-3.5c-0.9-1-1.7-1.9-2.2-3.2
			c-0.4-0.6-1.5-0.6-1.5-1.4c-0.3-1.7,1.8-0.7,2.4,0c0.4,0.5,0.3,1.1,1,1.4c1.1,0.3,2.2-0.6,3.4-0.5c1-0.1,1.8,0.8,2.8,0.2
			c1.5,0.6,1.3,2.9,2.7,3.8c0.5-1.3,2.2-1.3,3.3-0.7c0.3,0.2,1,0.6,1.2,0.1c-1.9-1.4,0.8-2,0.9,0.3c0.2,0.3,0.1,0.1,0.4,0.2
			c0.3,0.2,0.6,0.9,1,0.6c0-0.8,1.1-0.1,1.2-0.8c-1-1.9,0.6-0.6,1.4-1.1c0.3-0.2,0.4,0.1,0.6,0.2c0.2,0.1,0.6-0.1,0.8,0
			c0.4,0.2,0.1,0.3,0.1,0.7c-0.4,1.4,0.7,1.4,1.6,1.7c0.3,0.3,0.7,0.6,0.6,1.1c0.1,0.6,0.7,1.2,1.2,1.6c0.5,0.2,0.6-0.5,0.8-0.8
			c1.1-0.8,0.9-1.3,2.3-0.5c0.6-0.8,0.7-1.6,0-2.2c0-1.1-0.8-1,0.4-2c-0.9-0.8,0.7-1.4,1.4-1.1c0.6,0.4,1.3,0.7,1.7-0.1
			c-0.8-0.7,0-1.1,0.8-1c0.3-0.1,0.2-0.5,0.5-0.6c1.5,0.2,3,1.2,4.5,1.3c0.1-0.4,0.3-0.4,0.6-0.4c0.3-0.2,0.1-0.6,0.5-0.7
			c0.7-0.1,1.4-0.4,1.7,0.5c0.4-0.5,1-0.8,1.7-0.6c0-0.7,0.7-1.1,1.1-1.4c0.4,0.4,0.7,0.1,1.2,0.2c0.5,0.2,0.6,0.2,1.1,0
			c1.7-0.2,0.1-2.4,1.8-2.6c0.9-0.1,1.7,0.2,2.4-0.4c-0.6-0.4-0.8-1,0.2-1c0.4,0.1,0.7,0.3,1,0c0.5,0,0.6,0.8,1.1,0.5
			c0.7-0.5,1.8-0.2,2.5-0.6c0.2-0.2-0.1-0.6,0.3-0.7c-0.4-1.8-0.3-1.6,1.4-1.9c0.7-0.8,2-0.7,2.5-1.7c0.1-0.9,1.2-1.6,0.7-2.6
			c-0.6-0.6-0.6-1.5-0.8-2.2c-0.2-0.4-0.7-0.1-0.9-0.4c0,0-9.6-10.8-9.6-10.8c1.3,0.2,1.8-3.4,2.7-2.3c0.6-0.2,0.2-0.8,0.6-1.1
			c1.8-0.3-0.8-1.9,0.3-3.2c0.2-0.6-0.2-0.4-0.4-0.8c0-0.5-0.1-0.8-0.6-1.1c-0.1-0.2,0-1.1,0.1-1.3c0.5-0.2,0.8-0.7,0.9-1.2
			c0.1,0.2,0.2,0.4,0.4,0.5c0.7-0.6,1.5-1,2.5-0.7c1,0.2,1.2-0.3,0.3-0.8c0.8-0.8,1.9,0.3,2.8,0.3c0.8-0.1,0.9-1.2,1.7-1.3
			c0.6-0.2,1.3-0.2,1.7-0.6c0.7-1.3,1.4-0.3,2.1-0.8c0.1-0.5-0.7-0.4,0.2-0.9c2.4-1.3-2.3-4.3-2.8-1.6c-0.7-1-2-1.6-1-2.9
			c0.5-1.6-1.9-1.8-1.4-3.4c0.9,0.1,1.8-1.7,1.7-2.5c-0.6-2,2.6-0.9,3.7-1.7c0.6-0.4,0.8-1.1,1.4-1.5c0.8-0.2,1.1-0.8,1.8-1.2
			c0.9-0.3,1.4-0.1,1.6-1.3c0.1-0.6,0-0.9,0.6-1.3C196.3,76.8,198.3,76.6,196.4,75.1z"/>
		<path class="st0" d="M132,37.3c0.7,0.1,1.7,0.4,2.3-0.2c0.9,0.2,1.2,1.5,2.1,1.4c0.4-0.1,0.7-0.8,1.2-0.4c0.1,0.3,0.4,0.2,0.7,0.2
			c-0.1-1.1,2-0.8,1.3-2.1c-0.6-0.6-0.3-1.5-1.1-1.8c-1-0.3-2.2,1.2-2.2,2.2c-0.9,1.1-1.4-0.2-2.3-0.3
			C133.9,33.9,128.8,36.9,132,37.3z"/>
		<path class="st0" d="M136.9,39.4c-0.4,0.7,0.5,0.5,0.8,0.9C139,40.8,137.4,38.5,136.9,39.4z"/>
		<path class="st0" d="M133.9,39c-1.2,0.7,0.7,0.7,0.5,0.1C134.2,39,134,39.1,133.9,39z"/>
		<path class="st0" d="M117,37.8c0.6,0.3,1.5,0.6,2.2,0.3c0.6-0.4-0.2-1-0.6-0.9c-0.8-0.7-1.6-0.3-2.2,0.3
			C116.4,37.8,116.8,37.7,117,37.8z"/>
		<path class="st0" d="M127.6,24.4c1.2,1,1.5-1.2,0.3-1C127.6,23.6,127.2,24.1,127.6,24.4z"/>
		<path class="st0" d="M105.5,25.1c0.2,0.2,0.5,0.1,0.7,0C107.9,24.1,103.9,24.2,105.5,25.1z"/>
		<path class="st0" d="M99,25.5c0.5,0,0.6-1.5,0-0.9C99.2,24.9,98.1,25.5,99,25.5z"/>
		<path class="st0" d="M161.1,51.7c0.3-0.4,1.1-0.7,1-1.2C161.4,49.7,160.9,51.1,161.1,51.7z"/>
		<path class="st0" d="M182.2,63.6c-0.4,0.8,0.6,0,0.7-0.3c0.3-0.2,0.7-0.4,0.4-0.8C182.7,62.6,182,62.9,182.2,63.6z"/>
	</g>
</g>
</svg>
