<?xml version="1.0" encoding="utf-8"?>
<!-- Generator: Adobe Illustrator 26.0.3, SVG Export Plug-In . SVG Version: 6.00 Build 0)  -->
<svg version="1.1" xmlns="http://www.w3.org/2000/svg" xmlns:xlink="http://www.w3.org/1999/xlink" x="0px" y="0px"
	 viewBox="0 0 200 200" enable-background="new 0 0 200 200" xml:space="preserve">
<g id="Layer_1">
	<g id="Layer_1_00000107551159852787612550000017757744099325915571_">
		<g id="Layer_1_00000128480095285341338950000008464522443776971395_">
		</g>
	</g>
</g>
<g id="Isolation_Mode_00000063621668281934077600000006196874878142535819_">
	<g>
		<path fill="#1E8346" d="M192,187.674c-0.141-0.137-0.329-0.312-0.427-0.477c-0.173-0.292-0.258-0.654-0.386-0.971
			c-0.201-0.496-0.501-0.801-0.854-1.183c-0.408-0.441-0.782-0.975-1.08-1.494c-0.227-0.395-0.347-0.708-0.347-1.171
			c0-0.291-0.035-0.589-0.032-0.875c-0.128-0.07-0.164-0.712-0.221-0.887c-0.117-0.36-0.362-0.563-0.53-0.883
			c-0.09-0.173-0.067-0.372-0.094-0.559c-0.028-0.186-0.127-0.297-0.192-0.463c-0.193-0.487-0.157-1.296-0.077-1.797
			c0.054-0.333,0.306-0.532,0.353-0.888c0.058-0.445,0.109-1.18-0.037-1.603c-0.279-0.811,0.404-1.905-0.238-2.645
			c-0.309-0.355-0.592-0.567-0.738-1.027c-0.255-0.805-0.312-1.52-0.182-2.358c0.101-0.654,0.352-1.34,0.584-1.961
			c0.156-0.417,0.39-0.783,0.575-1.178c0.151-0.324,0.348-0.635,0.35-0.995c-0.603-0.009-1.193-0.123-1.794-0.123
			c-0.688,0-1.396,0.039-2.07-0.1c-1.339-0.276-2.593-0.915-3.647-1.772c-0.613-0.498-1.306-0.988-1.835-1.573
			c-0.112-0.124-0.222-0.34-0.316-0.479c-0.094-0.139-0.215-0.266-0.305-0.404c-0.209-0.324-0.416-0.702-0.55-1.053
			c-0.206-0.54-0.509-1.014-0.599-1.603c-0.109-0.705-0.076-1.466-0.096-2.178c-0.016-0.589-0.048-1.176-0.048-1.765
			c0-0.394,0.067-0.866-0.024-1.249c-0.195-0.815,0.461-1.565,0.718-2.345c0.093-0.282,0.208-0.603,0.024-0.866
			c-0.226-0.324-0.717-0.365-1.07-0.401c-0.767-0.08-1.396-0.05-2.09-0.43c-0.259-0.142-0.636-0.342-0.916-0.425
			c-0.347-0.103-0.654-0.322-0.949-0.529c-0.565-0.395-0.902-1.037-1.45-1.466c-0.551-0.432-0.912-0.863-1.069-1.557
			c-0.179-0.792-0.521-1.71-0.956-2.4c-0.29-0.459-0.669-0.706-1.115-0.992c-0.405-0.26-0.677-0.716-1.008-1.053
			c-0.855-0.869-1.055-2.24-1.4-3.433c-0.244-0.844-0.635-1.689-0.782-2.547c-0.089-0.518-0.034-1.037-0.081-1.557
			c-0.039-0.43-0.104-0.864-0.178-1.291c-0.03-0.176-0.014-0.332-0.024-0.512c-0.018-0.308-0.196-0.477-0.382-0.726
			c-0.348-0.465,0.029-1.12-0.169-1.632c-0.246-0.636-0.62-1.306-0.854-1.933c-0.229-0.617-0.187-1.128-0.225-1.784
			c-0.039-0.658-0.189-1.298-0.189-1.954c0-0.481-0.016-0.948-0.16-1.411c-0.098-0.314-0.2-0.596-0.174-0.933
			c0.071-0.944-0.57-1.854-0.648-2.786c-0.056-0.672-0.086-1.442-0.331-2.072c-0.168-0.433-0.532-0.769-0.673-1.219
			c-0.096-0.308-0.068-0.666-0.215-0.956c-0.192-0.378-0.38-1.024-0.526-1.428c-0.127-0.347-0.328-0.664-0.461-1.007
			c-0.129-0.33-0.2-0.684-0.294-1.025c-0.23-0.831-0.471-1.674-0.685-2.513c-0.14-0.548-0.274-1.11-0.379-1.667
			c-0.101-0.54-0.081-1.099-0.148-1.644c-0.096-0.778-0.02-1.581,0.125-2.355c0.053-0.281-0.062-1.677,0.071-1.712
			c-0.04-0.643,0.376-1.307,0.498-1.937c0.112-0.576,0.324-1.404,0.293-1.983c-1.46-0.023-2.49,0.96-3.871,1.097
			c-1.126,0.111-2.437-0.772-3.018-1.64c-0.429-0.642-1.054-0.729-1.568-1.229c-0.436-0.423-0.528-1.112-0.849-1.625
			c-0.4-0.638-1.103-1.01-1.898-0.811c-0.687,0.172-1.011,0.846-1.584,1.202c-0.652,0.406-0.939,1.11-1.602,1.52
			c-0.589,0.365-1.007,0.865-1.63,1.196c-0.249,0.132-1.487,0.934-1.446,0.296c0.013-0.211,0.288-0.188,0.35-0.391
			c0.136-0.447-0.32-0.497-0.653-0.628c-0.509-0.201-1.486-0.376-1.719,0.396c-0.232,0.771,0.918,1.276,0.184,2.118
			c-0.307,0.352-0.727,0.585-1.031,0.959c-0.245,0.302-0.343,0.492-0.755,0.551c-0.328,0.047-0.673-0.12-1.013-0.043
			c-0.447,0.102-0.869,0.449-1.294,0.616c-0.943,0.371-2.994,0.266-3.868-0.224c-1.234-0.693,0.133-1.989,0.221-2.897
			c0.049-0.509-0.227-0.619-0.381-1.072c-0.228-0.666,0.237-1.017,0.743-1.36c0.596-0.405,1.918-0.798,1.812-1.727
			c-0.465-0.137-1.41,0.427-1.854,0.617c-0.305,0.13-0.595,0.332-0.907,0.441c-0.444,0.155-0.96,0.138-1.423,0.241
			c-0.204,0.045-0.592,0.289-0.784,0.234c-0.331-0.096-0.047-0.183-0.267-0.384c-0.626-0.573-1.442,0.239-2.048,0.439
			c-0.96,0.318-2.342-0.337-3.037,0.359c-0.363,0.363-0.97,0.865-1.421,1.067c-0.33,0.148-1.796,0.038-2.078-0.165
			c-0.373-0.269-0.377-1.469-0.347-1.914c0.244-0.016,1.006-0.059,1.192-0.265c0.271-0.3-0.103-0.869-0.041-1.193
			c0.096-0.5,1.092-0.968,1.566-1.306c0.383-0.274,0.379-0.345,0.775-0.029c0.197,0.157,0.477,0.553,0.756,0.578
			c0.639,0.057,1.187-1.359,0.77-1.86c0.367,0.001,0.695-0.018,0.948-0.273c0.312-0.314,0.525-0.846,0.824-1.2
			c0.516-0.61,1.265-1.166,1.65-1.83c0.251-0.433,0.268-0.957,0.486-1.386c0.202-0.395,0.66-0.806,0.971-1.132
			c0.399-0.417,0.923-0.682,1.371-1.048c0.603-0.494,1.066-0.995,1.548-1.608c0.854-1.085,1.695-2.01,2.988-2.632
			c0.802-0.386,1.471-0.904,2.181-1.429c0.506-0.374,1.095-0.628,1.578-1.033c0.341-0.287,0.621-0.656,0.979-0.918
			c0.909-0.665,2.154-0.987,3.171-1.446c0.716-0.323,1.269-0.906,1.857-1.39c0.544-0.447,1.182-0.634,1.866-0.758
			c1.602-0.291,3.547-0.242,5.169-0.059c0.846,0.095,1.695,0.172,2.538,0.295c1.119,0.164,2.027,0.583,3.061,1.005
			c0.886,0.362,1.785,0.746,2.603,1.214c0.832,0.476,1.793,0.946,2.578,1.476c1.103,0.746,1.6,2.01,2.396,2.997
			c-0.459-0.594,0.522-1.95,0.872-2.471c0.567-0.842,1.386-1.624,0.852-2.698c-0.591-1.19-1.654-2.068-2.393-3.159
			c-0.319-0.47-0.827-1.025-1.048-1.549c-0.217-0.515-0.026-1.136-0.25-1.645c-0.127-0.289-0.392-0.428-0.557-0.677
			c-0.204-0.306-0.254-0.685-0.347-1.027c-0.189-0.7-0.73-1.2-0.763-1.944c-0.024-0.54-0.272-1.346-0.562-1.77
			c-0.276-0.402-0.587-0.868-0.677-1.348c-0.116-0.622-0.213-1.34-0.564-1.886c-0.171-0.265-0.448-0.449-0.553-0.77
			c-0.161-0.495-0.26-1.157-0.26-1.69c0-0.529,0.018-1.061-0.007-1.589c-0.037-0.768-0.339-0.896-0.909-1.362
			c-0.433-0.354-0.724-0.283-1.23-0.454c-0.459-0.155-0.423-0.637-0.645-1.029c-0.452-0.801-1.51-0.815-2.087-1.503
			c-0.384-0.459-0.598-1.116-0.859-1.651c-0.322-0.658-0.624-1.383-0.738-2.105c-0.152-0.957-0.451-1.954-1.053-2.682
			c-0.224-0.272-0.356-0.752-0.518-1.068c-0.218-0.424-0.395-0.907-0.568-1.358c-0.663-1.731-0.827-3.572-0.556-5.399
			c0.091-0.616,0.26-1.175,0.431-1.774c0.082-0.291,0.248-0.789,0.127-1.118c-0.504-1.381-1.062-2.71-1.274-4.174
			c-0.188-1.3,0.432-2.534,0.35-3.863c-0.052-0.843-1.031-0.89-1.699-1.014c-0.715-0.133-1.725-0.124-2.354-0.526
			c-0.255-0.163-0.425-0.441-0.573-0.695c-0.087-0.149-0.085-0.211-0.231-0.31c-0.21-0.143-0.515-0.035-0.694-0.232l-21.101-9.394
			c-0.235-0.088-0.439-0.235-0.669-0.316c-0.269-0.094-0.569-0.115-0.839-0.211c-0.453-0.161-0.882-0.478-1.267-0.765H87.406
			c-0.327,0.511-0.869,0.745-1.4,0.956c-0.551,0.219-1.308,0.07-1.758,0.528l-5.024,3.732l-5.646,1.77l-3.924,1.627l-1.77,1.34
			l-3.158,3.445l-3.015,6.364l-2.823,9.282L54.105,50.21l-2.536,3.397l-0.766,6.795l-2.584,4.737l-1.77,2.009l-1.34,3.302
			l-2.296,4.115l-1.388,1.499l-0.064,2.169l-3.636,7.72l-4.912,6.252l-2.998,2.998l-1.786,3.828l-3.7,4.402l-6.954,10.016
			l-7.91,7.017L7,123.942l89.769,11.451l3.19,3.796l1.659,4.019l2.895,3.604l2.081,4.187l2.273,2.751l1.236,8.788l-0.574,3.158
			l0.223,5.104l0.989,3.413l3.269,2.887l1.364,3.708l5.447,5.909l-0.478,2.026L192,187.674z"/>
		<path fill="#1E8346" d="M185.505,86.192c-0.376-0.457-0.639-0.889-0.898-1.413c-0.216-0.437-0.488-0.52-0.941-0.67
			c-0.399-0.132-0.779-0.308-1.167-0.46c-0.37-0.145-0.762-0.168-1.142-0.263c-0.761-0.19-0.939-0.759-0.912-1.502
			c-0.556-0.038-0.804,0.521-1.318,0.551c-0.67,0.04-1.396-0.083-1.888,0.484c-0.448,0.516-0.647,1.219-0.867,1.853
			c-0.114,0.327-0.146,0.664-0.221,1c-0.068,0.304-0.19,0.684-0.156,0.992c-0.079,0.17-0.059,0.235-0.049,0.284
			c0.178-0.005,0.369-0.027,0.547-0.054c0.333-0.049,0.575-0.256,0.881-0.323c0.773-0.17,1.508,0.401,2.279,0.303
			c0.258-0.033,0.473-0.179,0.73-0.21c0.333-0.04,0.609,0.034,0.915,0.143c0.498,0.178,1.357,0.099,1.683,0.554
			c0.168,0.235,0.274,0.322,0.536,0.474c0.299,0.173,0.554,0.285,0.674,0.629c0.101,0.291,0.112,0.482,0.338,0.712
			c0.156,0.158,0.362,0.434,0.539,0.552c0.341,0.228,0.918,0.207,1.3,0.345c0.366,0.132,0.598,0.355,0.895,0.584
			c0.364,0.281,1.191,0.242,1.654,0.213c0.14-0.539,0.297-0.985,0.194-1.556c-0.1-0.551-0.347-0.574-0.795-0.906
			c-0.411-0.305-0.766-0.676-1.191-0.961C186.535,87.153,185.959,86.745,185.505,86.192z"/>
		<path fill="#1E8346" d="M152.035,27.254c0.393-0.083,0.501-0.53,0.85-0.697c0.452-0.216,1.104-0.111,1.59-0.153
			c1.076-0.092,1.949-0.802,2.596-1.617c0.368-0.463,0.857-0.811,1.383-1.078c0.621-0.316,1.291-0.671,1.945-0.904
			c0.952-0.339,1.885-0.743,2.849-1.048c0.321-0.102,1.534-0.184,1.433-0.75c-0.066-0.369-0.581-0.329-0.856-0.366
			c-0.508-0.068-1.019-0.105-1.53-0.164c-0.772-0.089-1.524-0.338-2.301-0.39c-0.457-0.031-0.914,0.074-1.37,0.073
			c-0.711-0.002-1.491-0.089-2.186,0.1c-0.346,0.094-0.644,0.328-0.933,0.523c-0.28,0.19-0.591,0.329-0.881,0.502
			c-0.397,0.237-0.585,0.491-0.85,0.857c-0.184,0.253-0.376,0.507-0.553,0.767c-0.152,0.224-0.251,0.488-0.413,0.702
			c-0.305,0.401-0.765,0.628-1.109,0.982c-0.302,0.311-0.462,0.684-0.586,1.07C151.092,26.339,151.167,27.439,152.035,27.254z"/>
		<path fill="#1E8346" d="M154.779,32.007c0.286,0.213,1.137,0.015,1.495,0.069c0.256,0.038,0.485,0.143,0.727,0.225
			c0.502,0.171,0.578,0.156,0.871,0.587c0.14,0.205,0.254,0.419,0.371,0.642c0.165,0.313,0.191,0.382,0.576,0.342
			c0.536-0.054,0.951-0.016,1.461,0.16c0.649,0.224,1.04-0.13,1.505-0.59c0.741-0.733,1.572-1.763,1.721-2.836
			c0.025-0.18,0.096-0.464-0.062-0.588c-0.238-0.185-0.721-0.156-1.017-0.226c-0.35-0.083-0.571-0.437-0.82-0.694
			c-0.234-0.241-0.58-0.485-0.745-0.775c-0.144-0.253-0.081-0.574-0.174-0.84c-0.112-0.319-0.366-0.297-0.66-0.404
			c-0.565-0.206-0.522-1.123-1.353-1.032c-0.083,0.152-0.276,0.252-0.412,0.377c-0.191,0.175-0.389,0.355-0.557,0.551
			c-0.385,0.448-0.565,1.07-1.016,1.463c-0.477,0.416-1.187,0.454-1.787,0.509c-0.288,0.026-0.928-0.004-1.074,0.28
			c-0.186,0.362,0.259,1.065,0.397,1.39c0.091,0.215,0.166,0.444,0.245,0.664C154.541,31.478,154.594,31.87,154.779,32.007z"/>
		<path fill="#1E8346" d="M162.844,24.229c-0.446,0.106-0.889,0.23-1.328,0.338c-0.4,0.098-0.896,0.198-1.208,0.474
			c-0.333,0.293-0.311,0.683-0.232,1.074c0.039,0.197,0.202,0.346,0.401,0.361c0.251,0.019,0.523-0.016,0.705,0.125
			c0.401,0.308,0.182,0.938,0.309,1.337c0.139,0.438,0.588,0.77,0.927,1.04c0.453,0.361,1.127,0.211,1.583,0.606
			c0.687,0.594,0.025,1.455-0.189,2.104c-0.059,0.177-0.22,0.864,0.025,0.968c0.18,0.077,0.254-0.201,0.376-0.277
			c0.196-0.123,0.441,0.015,0.598,0.16c0.218,0.2,0.201,0.33-0.047,0.47c-0.283,0.161-0.305,0.172-0.317,0.522
			c-0.009,0.266,0.008,0.541,0.276,0.645c0.333,0.13,0.838-0.196,1.126-0.336c0.313-0.152,0.608-0.258,0.926-0.39
			c0.33-0.138,0.28-0.474,0.27-0.815c-0.023-0.789-0.402-1.932,0.494-2.355c0.568-0.268,0.966-0.068,1.316,0.407
			c0.343,0.466,0.631,0.955,0.368,1.517c-0.099,0.212-0.259,0.393-0.334,0.616c-0.06,0.179-0.052,0.384-0.119,0.563
			c-0.199,0.534-0.45,0.667-1.075,0.783c-0.154,0.028-0.304,0.081-0.434,0.168c-0.46,0.308-0.031,0.544-0.041,0.86
			c-0.012,0.367-0.4,0.328-0.529,0.619c-0.077,0.172,0.018,0.478,0.024,0.666c0.009,0.254-0.007,0.508,0.001,0.762
			c-0.193-0.225-0.384-0.266-0.524-0.545c-0.113-0.225-0.207-0.443-0.251-0.691c-0.04-0.227-0.006-0.565-0.121-0.768
			c-0.317-0.561-0.66,0.011-0.816,0.343c-0.059,0.127-0.031,0.192-0.158,0.277c-0.163,0.11-0.582,0.009-0.77-0.001
			c-0.392-0.021-0.779-0.076-1.169-0.118c-0.072,0.176,0.364,0.663,0.479,0.81c0.242,0.311,0.606,0.274,0.982,0.265
			c0.226,0.246,0.539,0.154,0.831,0.263c0.288,0.108,0.847,0.387,0.851,0.711c0.004,0.274-0.245,0.631-0.287,0.922
			c-0.063,0.436-0.109,0.818,0.239,1.109c0.183,0.153,0.307,0.249,0.592,0.17c0.255-0.07,0.357-0.341,0.643-0.287
			c-0.034,0.565-0.021,1.022-0.247,1.546c-0.204,0.473-0.451,0.363-0.937,0.33c-0.136-0.457-0.102-0.827-0.465-1.203
			c-0.185-0.192-0.417-0.324-0.515-0.565c-0.102-0.251-0.034-0.532-0.091-0.795c-0.062-0.283-0.277-0.512-0.439-0.743
			c-0.227-0.322-0.228-0.469-0.632-0.487c-0.324-0.014-0.441-0.011-0.716-0.192c-0.235-0.154-0.455-0.406-0.704-0.527
			c-0.23-0.112-0.155-0.101-0.398,0.051c-0.209,0.13-0.403,0.279-0.614,0.406c-0.359,0.216-1,0.283-1.141,0.713
			c0.258,0.058,0.551,0.13,0.821,0.179c0.022,0.995,1.143,0.236,1.754,0.396c0.356,0.093,0.384,0.548,0.475,0.856
			c0.074,0.254,0.161,0.451-0.013,0.668c-0.125,0.156-0.681,0.479-0.895,0.452c-0.289-0.036-0.439-0.507-0.665-0.677
			c-0.254-0.191-0.1-0.168-0.412-0.059c-0.094,0.033-0.367,0.187-0.491,0.163c-0.243-0.048-0.451-0.453-0.637-0.61
			c-0.286-0.243-0.513-0.17-0.854,0.031c-0.304,0.179-0.558,0.21-0.902,0.289c-0.687,0.157-1.117,0.165-1.403,0.862
			c-0.15,0.367-0.257,0.536,0.096,0.796c0.23,0.169,0.666,0.434,0.949,0.354c0.052-0.015,0.02-0.013,0.261-0.132
			c0.298-0.146,0.446-0.219,0.578-0.241c0.22-0.037,0.362,0.051,0.606,0.141c0.478,0.177,0.886,0.19,1.445,0.207
			c0.477,0.015,0.716,0.023,0.963-0.033c0.231-0.052,0.503-0.15,0.811-0.042c0.083,0.029,0.16,0.057,0.2,0.13
			c0.121,0.218-0.157,0.717-0.53,0.867c-0.371,0.15-0.508-0.179-1.378-0.349c-0.824-0.16-1.068,0.063-1.57-0.199
			c-0.095-0.05-0.27-0.154-0.498-0.133c-0.214,0.02-0.29,0.133-0.49,0.236c-0.52,0.266-0.878-0.049-1.078,0.181
			c-0.137,0.157-0.08,0.697-0.142,0.918c-0.113,0.405-0.331,0.453-0.651,0.709c-0.472,0.377-0.794,1.292-0.791,2.019
			c0.002,0.481-0.05,1.178,0.287,1.56c0.233,0.264,0.768,0.364,1.108,0.44c0.446,0.1,0.863,0.132,1.3,0.309
			c0.585,0.236,1.492,0.366,1.492,1.033c0,0.605-0.196,1.251,0.342,1.634c0.235,0.166,0.601,0.196,0.774,0.43
			c0.164,0.221,0.096,0.62,0.096,0.889c0,0.351-0.061,0.754-0.002,1.099c0.056,0.329,0.259,0.58,0.4,0.874
			c0.17,0.355,0.103,0.762,0.221,1.133c0.151,0.476,0.388,0.62,0.783,0.893c0.384,0.266,0.634,0.638,0.893,1.021
			c0.237,0.351,0.632,0.606,0.894,0.926c0,0.842,0.069,1.626,0.161,2.449c0.05,0.446,0.081,0.886,0.183,1.321
			c0.107,0.458,0.343,0.562,0.709,0.832c0.429,0.316,0.459,0.558,0.478,1.083c0.021,0.605,0.119,1.103,0.39,1.636
			c0.608,1.194,1.002,2.567,2.241,3.277c0.626,0.358,1.442,0.416,2.152,0.439c0.302,0.01,0.693,0.055,0.982-0.022
			c0.278-0.075,0.587-0.214,0.838-0.36c0.307-0.178,0.661-0.293,0.954-0.501c0.421-0.298,0.802-0.725,1.135-1.116
			c0.773-0.907,1.656-1.671,2.504-2.512c0.39-0.388,0.713-0.828,1.074-1.235c0.527-0.593,1.266-0.976,1.788-1.567
			c0.534-0.605,0.994-1.264,1.501-1.879c0.454-0.551,0.943-1.055,1.281-1.687c0.352-0.66,0.738-1.318,1.151-1.943
			c0.248-0.375,0.654-1.153,0.766-1.627c0.101-0.427,0.29-0.817,0.455-1.224c0.145-0.358,0.205-0.747,0.333-1.11
			c0.138-0.39,0.38-0.737,0.488-1.143c0.131-0.495,0.157-1.002,0.233-1.503c0.115-0.751-0.071-1.4-0.242-2.115
			c-0.138-0.574-0.057-1.172-0.114-1.753c-0.08-0.82-0.658-1.466-1.323-1.92c-0.648-0.443-1.44-0.624-2.061-1.094
			c-0.361-0.273-0.79-0.668-0.927-1.13c-0.099-0.333-0.376-0.659-0.566-0.95c-0.234-0.359-0.37-0.751-0.565-1.125
			c-0.458-0.874-0.895-1.784-1.243-2.71c-0.378-1.007-0.778-2.052-1.51-2.855c-0.739-0.812-1.705-1.367-2.481-2.144
			c-0.678-0.679-1.291-1.444-1.89-2.188c-0.205-0.254-0.393-0.522-0.618-0.756c-0.208-0.217-0.533-0.393-0.696-0.647
			c-0.343-0.536-0.883-1.017-1.353-1.442c-0.422-0.382-0.819-0.801-1.256-1.172c-0.518-0.439-1.208-0.672-1.807-0.951
			c-0.443-0.207-0.898-0.388-1.367-0.527C165.178,24.264,163.977,23.96,162.844,24.229z"/>
		<path fill="#1E8346" d="M156.69,43.847c0.242-0.347,0.302-0.974,0.27-1.402c-0.037-0.485-0.601-0.806-1.036-0.893
			c-0.532-0.107-1.124-0.035-1.666-0.035c-0.185,0-0.404,0.032-0.58-0.03c-0.159-0.056-0.279-0.203-0.45-0.065
			c0.732,1.109,1.411,2.504,1.821,3.745C155.602,44.99,156.358,44.323,156.69,43.847z"/>
		<path fill="#1E8346" d="M152.92,39.255c-0.578,0.302,0.112,0.9,0.38,1.129c0.24,0.205,0.429,0.56,0.72,0.698
			c0.181,0.086,0.401,0.062,0.603,0.081c0.42,0.038,1.311,0.197,1.649-0.138c0.207-0.205,0.329-0.627,0.527-0.872
			c0.213-0.265,0.409-0.447,0.748-0.517c0.316-0.065,1.1-0.062,1.263-0.38c0.084-0.165,0.049-0.849-0.023-1.023
			c-0.128-0.309-0.457-0.334-0.742-0.383c-0.358-0.062-0.622-0.113-0.894-0.366c-0.265-0.245-0.388-0.456-0.749-0.496
			c-0.457-0.051-0.931-0.005-1.387-0.048c-0.708-0.067-1.316,0.048-1.795-0.551c-0.341-0.427-0.503-0.979-0.846-1.388
			c-0.544-0.65-0.438,0.193-0.901,0.201c0.213,0.449,0.403,0.596,0.474,0.84c0.103,0.353,0.027,0.725,0.087,1.083
			c0.122,0.731,0.696,1.082,1.199,1.538c0.166,0.15,0.368,0.314,0.157,0.505C153.265,39.282,153.065,39.18,152.92,39.255z"/>
		<path fill="#1E8346" d="M136.617,91.219c-0.06,0.043-0.123,0.156-0.173,0.215c-0.081,0.093-0.167,0.176-0.252,0.265
			c-0.114,0.119-0.218,0.241-0.327,0.363c-0.192,0.215-0.55,0.424-0.672,0.684c-0.143,0.02-0.066,0.281,0.067,0.393
			c0.13,0.11,0.459-0.007,0.612-0.049c0.248-0.069,0.468-0.235,0.674-0.386c0.238-0.174,0.581-0.461,0.661-0.76
			C137.272,91.7,136.914,91.005,136.617,91.219z"/>
	</g>
</g>
</svg>
