<?xml version="1.0" encoding="utf-8"?>
<!-- Generator: Adobe Illustrator 26.0.3, SVG Export Plug-In . SVG Version: 6.00 Build 0)  -->
<svg version="1.1" id="Layer_1" xmlns="http://www.w3.org/2000/svg" xmlns:xlink="http://www.w3.org/1999/xlink" x="0px" y="0px"
	 viewBox="0 0 200 200" enable-background="new 0 0 200 200" xml:space="preserve">
<g id="Layer_1_00000005268687430563112580000000108022699592311717_">
	<g id="Layer_1_00000107551159852787612550000017757744099325915571_">
		<g id="Layer_1_00000128480095285341338950000008464522443776971395_">
		</g>
	</g>
</g>
<g id="Isolation_Mode_00000063621668281934077600000006196874878142535819_">
	<path fill="#1E8346" d="M178.844,165.385c0.182-0.514-0.129-0.973-0.428-1.362c-0.452-0.11-0.79-0.551-1.185-0.747
		c0.115-0.601-0.207-0.745-0.152-1.194c-0.535-0.356-1.255-0.132-1.759-0.67c0.059-0.292,0.174-0.486-0.105-0.724
		c-0.079-0.302,0.106-0.862-0.394-0.61c-0.632-0.842-1.878,0.4-2.254-0.793c-0.484-0.269-0.337-0.744-0.539-1.16
		c-0.463-0.367-0.327-1.231-1.046-1.392c-0.592,0.22-0.605-0.008-0.911-0.439c-0.231-0.208,0.011-0.554,0.041-0.804
		c0.253-0.961-1.56-0.375-1.202-1.398c0.566-0.525-0.062-1.034,0.114-1.517c0.731-0.628,1.776-0.692,2.562-1.308
		c0.235-0.158,0.589-0.033,0.853-0.032c0.468-0.193,0.856-0.874,1.085-1.34c-0.2-0.711,0.723-1.014,0.469-1.603
		c-0.116-0.168-0.378-0.38-0.281-0.61c0.194-0.206,0.515-0.442,0.165-0.712c-0.332,0.061-0.636,0.259-1.038,0.188
		c0.129,0.503-0.404,0.143-0.603,0.13c-1.112,0.776-1.903-0.881-2.205-1.725c-1.44,0.702-3.102-0.544-2.396-2.063
		c-0.008-0.751-0.939-1.02-1.416-1.434c-0.733,0.574-1.545-0.181-2.365,0.16c0.376-1.631-2.04-1.368-1.996-2.782
		c0.143-0.704-0.048-1.068,0.218-1.832c-0.146-0.382-0.719-0.643-1.091-0.533c-0.357,0.479-0.24,1.677-1.132,1.522
		c-0.029,0.583-0.757,1.759-0.975,0.694c-0.254,0.223-0.632,0.54-0.916,0.064c-0.105-0.176,0.077-0.518-0.284-0.491
		c-0.024-0.1-0.035-0.202-0.034-0.306c-0.371,0.002-0.097-0.546-0.23-0.733c-0.197-0.276-0.641-0.36-0.27-0.733
		c0.807-0.274,0.264-1.444-0.412-0.918c0.017-0.916-0.863-0.073-0.977-0.904c-1.135-0.774-0.462-7.011-0.63-8.154
		c-0.521,0.426-1.092,0.667-1.741,0.267c-0.143-0.175-0.314-0.325-0.523-0.18c-0.399-0.017-0.188-0.701-0.51-0.93
		c-0.317-0.278-0.184-0.528-0.071-0.855c-0.055-0.731-1.065-0.879-1.147-1.552c-0.016-0.423-1.436-1.424-0.537-1.644
		c0.022-0.311-0.306-0.405-0.436-0.701c-0.106-0.445,0.029-1.12-0.666-0.857c0.038,2.272-2.039,0.067-2.87-0.525
		c-0.419-0.868-1.953-0.909-2.008-2.005c-1.836-1.61-3.608-5.854-6.081-5.697c-0.237-0.637-0.129-1.39-0.709-1.832
		c-0.811,0.015-0.846-0.962-0.72-1.569c-0.004-0.467-0.442-0.639-0.785-0.869c-1.37-0.551-0.12-1.702-0.112-2.571
		c-0.083-0.314-0.161-0.132-0.382-0.263c-0.152-0.092-0.171-0.373-0.366-0.407c-0.323,0.151-0.528,0.145-0.576-0.266
		c-0.214-0.411-0.038-0.998-0.383-1.318c-0.569,0.015-0.518-0.179-0.607-0.668c-0.137-0.206-0.147-0.128-0.372-0.136
		c-0.511-0.046-0.057-0.738-0.209-1.05c0.036-0.733-0.618-0.525-1.048-0.824c-0.795-0.551-0.878,0.677-0.998,1.182
		c-0.312,0.019-0.4-0.081-0.484-0.324c-0.234,0.106-0.46,0.047-0.52-0.204c-0.141-0.186-0.509-0.144-0.514-0.435
		c-0.554-0.06-0.301-0.813-0.25-1.189c0.06-0.757-0.4-0.242-0.557,0.093c-0.284-0.647-0.983,0.21-1.134-0.935
		c-1.077-0.969-1.28-0.396-1.118-2.037c-0.162-0.239-0.487-0.138-0.708-0.178c-0.449-0.226-0.894-0.863-1.072-1.321
		c0.212-0.984,0.112-2.061,0.724-2.87c-0.234-0.96,0.59-0.481,1.055-0.663c0.258-0.411,0.085-1.126-0.493-1.016
		c-0.131-0.069-0.034-0.311-0.133-0.397c-0.091-0.08-0.28-0.021-0.384-0.116c-0.193-0.287,0.173-0.756-0.407-0.746
		c0,0.077,0.004,0.154,0,0.231c-0.467-0.002-0.942-0.051-1.397-0.158c0.144-0.664-0.634-0.097-0.877-0.765
		c-0.262,0.246-0.426,0.027-0.71,0.023c-1.313,0.428-0.572-1.49-2.192-0.879c-0.477,0.288-0.882-0.164-1.412-0.076
		c-0.422-0.148-0.617-0.433-1.112-0.325c-0.413-0.075-0.494-0.445-0.798-0.686c-0.149-0.219-0.276-0.159-0.544-0.172
		c-0.48,0-0.571-0.513-0.984-0.669c-0.2-0.435-0.447-0.477-0.925-0.508c-0.804-0.156-0.89-1.276-1.299-1.881
		c-0.49,0.002-0.617-0.655-1.125-0.534c-0.586,1.146-1.613-0.572-1.831-1.201c-0.488-0.377-1.22-0.432-1.715-0.782
		c-0.083-1.312-2.921,0.531-1.831-1.3c0.043-0.274-0.338-0.18-0.491-0.324c-0.263-0.638-0.628-0.878-1.318-0.785
		c-0.439-0.356-0.964-0.341-1.341-0.831c-0.502-0.41-0.966,0.333-1.49,0.182c-0.362-0.217-0.841-0.351-0.953-0.811
		c-0.17-0.742-0.596,0.264-0.993-0.856c-0.228-0.03-0.561,0.337-0.61-0.142c0.055-0.596,1.055-0.37,1.385-0.823
		c0.302-0.565,0.393-1.275,1.224-1.11c0.496-0.276,0.785-0.642,1.382-0.355c0.097-0.307-0.037-0.708,0.021-1.009
		c0.258-0.099,0.444-0.21,0.49-0.515c0.188-0.21,0.761-0.183,0.563-0.648c-1.008-0.687,0.767-1.301-0.761-1.342
		c-0.969-0.352-0.918-0.994-1.096-1.796c-0.078-0.093-0.365-0.366-0.276-0.489c0.258-0.042,0.345-0.121,0.414-0.388
		c0.668,0.411,2.103,1.553,2.494,0.285c0.242-0.532,0.924-0.125,1.347-0.401c0.778-0.173,1.846-0.138,2.074,0.765
		c0.476-0.53,1.289-0.823,1.972-0.816c0.178,0.171,0.025,0.504,0.149,0.699c0.309,0.003,0.337,0.153,0.524,0.378
		c0.2,0.107,0.556,0.078,0.765,0.04c0.146,0.592,0.562,0.836,1.143,0.726c0.453,0.37,0.662-0.068,1.069-0.257
		c0.393-0.206,0.799,0.373,1.099,0.056c0.018-0.498,0.239-0.842,0.476-1.271c-0.027-0.389,0.144-0.692,0.407-0.975
		c0.273-0.802,1.295-0.286,1.626-0.799c0.115-0.341,0.549-0.566,0.882-0.413c0.827,0.31,0.338-0.661,0.644-1.035
		c0.279-0.667-0.908-0.742-1.389-0.748c-0.004-1.532,1.835-1.634,2.504-2.534c-0.028-0.228-0.305-0.296,0.099-0.447
		c0.671,0.147,1.881,0.307,1.659-0.812c-0.188-0.298-0.652-0.68-0.265-1.042c0.309-0.055,0.859-0.325,0.183-0.351
		c-0.732-0.436-1.269-0.884-0.551-1.607c0.033-0.398-0.447-0.329-0.716-0.41c-0.811-0.457-1.747-1.204-2.757-0.765
		c-0.701,0.86-1.416,0.511-2.392,0.022c0.683-0.376-0.492-1.94,0.836-1.718c0.337-0.889-0.077-1.452-0.988-1.362
		c-0.373-0.362-0.797-0.626-0.825-1.171c-0.367-0.309-0.875,0.066-1.272,0.112c-0.45-0.076-0.713-0.147-1.134,0.124
		c-0.834,0.128-1.431-0.566-2.22-0.674c-0.689-0.336-0.246-0.707-0.19-1.128c0.49-0.137,1.292-0.144,1.433-0.818
		c0.218-0.777,1.257,0.386,1.855-0.04c-0.13-0.545,0.276-0.548,0.647-0.608c-0.108-1.098,1.225-1.466,1.285-2.532
		c-0.045-0.537-0.958-0.202-1.343-0.405c-0.377-0.118-0.596-0.452-0.944-0.64c-0.704,0.103-1.072-0.609-0.808-1.24
		c-1.024-0.233-1.796-0.141-2.114-1.277c-1.486,0.452-0.702-2.312-2.208-2.001c-1.282,0.95-0.426-0.645-1.385-0.63
		c-0.809-0.598-1.617,0.061-2.208-0.87c-1.191,0.307-0.993,2-2.146,1.656c-0.816-0.351-1.193,0.558-1.996,0.504
		c-0.564-0.097-0.788,0.549-1.249,0.578c-0.355-0.017-1.061-0.187-0.954,0.396c0.03,0.403-0.43,0.556-0.535,0.897
		c0.006,0.41,0.448,1.264-0.251,1.362c-0.605,0.145-0.9,0.027-0.669,0.715c0.595,1.133-1.418,1.494-1.313,0.241
		c-0.995,0.084-1.228-1.351-2.31-1.174c-1.303,0.479-1.318-0.97-1.736-1.64c-0.279-0.073-0.687,0.024-0.622,0.397
		c-0.477,0.479-1.336,0.539-1.767-0.05c-0.631,0.511-1.114-0.467-1.568-0.633c-0.584,0.554-1.267-0.186-1.798-0.258
		c-0.753,0.006-1.076-0.828-1.761-1.059c-0.278-0.169-0.213-0.241-0.253-0.548c-0.306-0.779-0.856-1.382-1.173-2.171
		c-0.084-1.02-0.962-0.977-1.665-1.193c-0.114-1.215-1.19-1.975-1.351-3.194c-0.115-0.717-0.994-1.057-1.628-0.776
		c-0.129,0.057-0.467,0.297-0.548,0.015c0.258-0.763,1.194-1.31,2.007-1.214c0.057-0.701-0.237-2.167,0.438-2.656
		c0.128-0.151,0.58-0.576,0.268-0.79c-0.373-0.257-0.626,0.558-0.986,0.401c-0.47-0.589,0.573-1.017,0.668-1.558
		c0.639-0.994,2.068-1.361,1.653-2.813c-0.681-0.091-0.085-0.829-0.362-1.237c-0.564-0.207-0.694-0.38-1.034-0.813
		c-0.437-0.185-0.757,0.44-1.204,0.289c-1.138-0.456,0.534-2.815-0.82-3.041c-0.763,0.277-0.206,1.352-0.249,1.956
		c0.169,0.669-0.489,0.973-0.836,1.426c-0.433,0.7-1.194,1.086-2.022,0.827c-1.364-1.264,0.169-3.891-1.478-4.974
		c0.99-1.47-3.52-1.851-2.181-3.137c0.088-0.505-0.359-0.731-0.686-0.97c-0.669-0.309-0.858-1.077-1.422-1.491
		c-0.535-0.011-0.55-0.383-0.865-0.709c-0.706-0.082-0.631-0.364-0.825-0.913c-0.214-0.208-0.521,0.006-0.793-0.093
		c-0.421-0.229,0.027-0.923-0.745-0.748c-0.517-0.139-0.352-0.929-0.848-1.206c-0.216-0.172-0.409-0.228-0.494-0.512
		c-0.203-1.588-2.406-4.482-3.918-2.7c-0.211,0.011-0.67,0.082-0.863-0.021c-0.111-0.188-0.238-0.308-0.482-0.236
		c-0.369,0-0.89,0.227-0.388,0.541c0.099,0.545-0.361,0.943-0.882,0.722c-0.943-0.258-0.773-1.375-1.29-1.978
		c-0.387-0.433-1.272-0.892-1.762-0.291c-0.246,0.396-0.831,0.084-0.99,0.519c0.02,0.229-0.072,0.251-0.293,0.287
		c-0.42,0.318,0.466,0.194-0.108,0.862c0.323,0.878,0.353,0.603-0.253,1.289c0.127,0.614-0.401,0.928-0.428,1.492
		c-0.193,0.733-0.823,0.322-1.275,0.197c-1.739,0.854,0.98,2.173,0.752,3.381c-1.885,0.068,1.521,2.679,0.287,2.908
		c-0.203,1.163,0.671,0.832,1.083,1.539c0.723-0.738,0.661,0.219,0.637,0.763c0.391,0.329,0.721,0.548,0.83,1.081
		c0.324,0.331,1.071,0.272,0.716,0.89c-0.256,0.339-0.255,0.702-0.258,1.106c-0.732,0.23-0.226,0.916,0.086,1.291
		c0.001,0.243-0.094,0.842,0.04,1.024c0.273,0.132,0.536,0.187,0.445,0.57c1.777,0.444,0.187,1.349-0.83,1.209
		c0.202,0.366,0.115,0.708,0.262,1.09c0.441,0.368,0.006,0.639-0.296,0.898c-0.518,0.522,0.707,1.641-0.14,1.923
		c-0.002,1.018-0.672,2.021,0.562,2.656c0.838-0.546,0.553,1.171,1.541,0.804c0.101,0.266,0.046,0.607,0.047,0.89
		c-0.474,0.211-2.321-0.598-1.194,0.293c0.211,0.956-0.786,1.513-1.62,1.134c-0.342-0.281-0.361-0.976-0.822-1.21
		c-0.645-0.505-1.564,1.465-1.841,0.37c1.109-1.671,0.102-0.685-0.825-1.536c-1.223-0.189-2.033,0.994-3.282,0.672
		c-0.995,0.332-2.429,1.857-3.034,0.191c-0.869-0.178,0.127-1.308-0.057-1.844c-0.683-0.642,0.45-0.93,0.604-1.489
		c-0.452-0.153-0.662-0.492-0.971-0.823c-0.194-0.147-0.57-0.126-0.689-0.362c-0.064-0.329,0.222-0.631,0.027-0.973
		c0.189-0.516,0.817-0.764,0.371-1.372c0.114-0.344,0.431-0.92-0.213-0.878c-1.691-0.233-0.252,0.463-0.994,0.994
		c-0.376,0.304-0.605,0.863-1.003,1.114c-0.774,0.07-1.201,0.525-1.6,1.184c-0.382,0.883-1.339,0.504-1.98,0.942
		c-0.223,0.264-0.414,0.562-0.79,0.524c-1.067,1.195-1.796,1.38-3.312,0.717c-0.574,2.215-1.13,4.968-2.891,6.507
		c-1.319,0.034-0.714,0.263-1.173,1.081c-1.424,2.647,0.123,2.749,2.29,1.841c-0.753,2.571-3.798,1.441-5.702,1.589
		c-0.467,0.177-0.515,0.833-0.978,1.022c-0.364,0.148-0.727,0.074-1.079,0.34c-1.908,1.906-2.922,4.519-3.171,7.149
		c0.172,0.813-0.523,1.29-0.8,1.948c0.274,0.798-0.33,2.337,0.964,2.381c1.69,0.298,0.302-0.72,0.968-1.168
		c0.636-0.125,1.141-0.419,1.029-1.138c1.182-2.04,2.859-0.951,3.265,1.01c0.463,0.998,1.256,1.652,1.893,2.52
		c0.555,0.135,0.477,1.182,1.111,0.965c0.264-0.15,0.331-0.531,0.686-0.505c0.662,0.11,0.085,0.97,0.061,1.381
		c-0.208,1.751-0.956,3.369-1.168,5.087c-0.213,0.416-0.657,0.486-1.042,0.655c-0.42,0.247-0.153,0.644-0.305,1.042
		c-0.066,0.416-0.549,0.356-0.643,0.715c-0.257,0.574,0.157,1.008,0.605,1.342c0.127,0.235-0.084,0.393-0.131,0.622
		c0.052,0.444,0.192,0.814,0.242,1.262c0.498,0.375,0.991,0.785,0.853,1.503c-0.067,0.41,0.194,0.628,0.488,0.82
		c0.686-0.346,0.973,0.666,1.576,0.459c0.411-0.193,0.413-0.666,0.506-1.023c0.997-0.577,2.645,0.529,3.32,1.254
		c1.272-0.359,1.783-2.357,2.703-3.108c0.803,0.094,1.751,0.593,2.51,0.045c0.823-0.066,1.311,0.972,2.087,1.114
		c0.427,0.311,1.072-0.402,1.528,0.127c0.205-0.134,0.167-0.48,0.297-0.672c0.67-0.099,1.088,0.293,1.628,0.622
		c-0.192,0.452-0.204,0.58,0.003,1.003c-0.352,0.426-0.472,0.779-0.367,1.358c-0.379,0.018-0.743-0.131-1.124-0.131
		c-0.272,0.274-0.233,0.552,0.019,0.803c0.135,0.33-0.346,0.695-0.497,0.941c-0.065,0.238,0.045,0.604,0.139,0.822
		c0.295,0.315,1.172,0.204,0.818,0.958c-0.282,0.545,0.241,1.193,0.381,1.744c0.034,0.799-0.208,1.566,0.02,2.395l2.121,1.758
		c-0.387,1.7-1.66,0.382-1.262,2.442c-0.481,0.088-0.477,0.38-0.705,0.706c-0.099,0.072-0.277,0.012-0.268,0.176v1.796
		c0.58,0.753-1.076,1.813-0.188,2.384c0.18,0.093,0.664,0.307,0.431,0.544c-0.251,0.379-0.344,0.938-0.701,1.23
		c-0.843,0.156-1.019,0.613-1.037,1.422c-0.232,0.261-0.698,0.217-0.88,0.611c-0.207,0.337-0.809,0.148-0.855,0.612
		c0.139,0.657-0.52,0.94-0.824,1.42c-0.244,0.436,0.375,0.636,0.519,0.982c0.014,0.298,0.128,0.457,0.439,0.465
		c0.561,0.053,0.779,0.626,1.318,0.703c0.478,0.089,0.323,0.36,0.022,0.642c-0.361,0.209-0.4,0.529-0.231,0.881
		c0.015,0.243-0.241,0.276-0.136,0.541c0.067,0.169,0.224,0.294,0.288,0.461c0.034,0.406,0.508-0.017,0.574,0.422
		c0.047,0.732-0.631,1.416-0.467,2.132c0.071,0.651,0.592,1.45-0.13,1.926c-0.599-0.411-0.881,1.013-0.914,1.483
		c-0.073,0.508-0.809,0.835-1.237,1.023c-1.453,0.272,0.045,1.33-0.769,1.93c-1.081,0.166,0.178,1.082-0.793,1.313
		c-0.192,0.314,0.185,0.532,0.372,0.71c0.11,0.301,0.05,0.708,0.017,1.038c-0.286,0.475-0.284,0.965-0.328,1.509
		c-0.254,0.52-0.532,1.025,0.241,1.159c0.668,0.192,1.122,0.67,1.439,1.241c0.192,0.1,0.625-0.047,0.603,0.302
		c0.204,0.39,0.805,0.195,1.104,0.49c0.267,0.145,0.231-0.23,0.35-0.406c0.126-0.187,0.323-0.203,0.236-0.457
		c-0.039-0.113-0.101-0.115,0.019-0.207c0.733-0.163,1.373-0.555,1.527-1.328c0.269-0.553,0.864-0.838,1.123-1.382
		c0.245-0.326,0.726-0.25,0.97-0.612c0.196-0.415,0.735-0.713,1.02-0.24c0.262-0.571,0.936-1.582,1.666-1.559
		c0.12,0.411,0.436,0.615,0.466-0.011c0.241-0.375,0.784-0.425,0.947-0.904c0.178-0.335,0.078-0.799,0.325-1.093
		c0.281-0.315,0.877-0.252,0.957-0.755c0.372-0.563,1.334-0.614,1.97-0.598c1.016-0.057,0.679-2.517,1.342-3.207
		c0.682-0.971,1.584,0.483,2.447,0.343c0.754-0.156,1.137-1.02,1.573-1.551c0.656-0.522,1.497-0.812,1.608-1.759
		c0.366-0.988,1.575-0.44,2.347-0.405c0.474,0.105,0.573,0.983,0.872,1.33c1.624,1.796,3.866,2.849,6.001,3.873
		c0.882,0.003,2.598-0.326,2.771,0.875c-0.02,0.63-0.586,1.233-0.441,1.893c0.341,0.394,1.064,0.12,1.362,0.692
		c0.552,0.567,1.301-0.147,0.53-0.592c-0.012-0.504,0.308-0.929,0.846-0.869c0.91-0.062,1.159-1.094,1.919-1.426
		c0.831-0.642,1.818-0.725,2.73-1.189c1.096-0.271,1.578,1.501,2.53-0.342c0.575-0.58,0.081-1.258,0.173-1.945
		c0.022-0.888,1.217-0.998,1.606-1.644c-0.237-1.897,1.052-2.034,2.543-2.562c1.662-0.856-2.319-0.536,0.661-2.737
		c1.088-0.347,2.265-0.95,3.236-0.082c0.837,0.079,1.636-0.172,2.343,0.397c0.778-0.056,1.378,0.169,1.84,0.817
		c0.872,0.981,2.183,0.391,3.267,0.594c1.46,1.475,0.828,1.265,2.58,0.016c0.801-0.687,2.184,2.519,2.597,2.791
		c0,0,0.784,1.968,0.784,1.968c1.195,1.264,3.187,3.98,3.65,5.694l1.624,0.765l2.155,3.549c1.627,1.596,4.732,1.876,5.681,3.997
		c0.2,0.862,1.18,1.215,1.464,2.016c0.463,0.925-0.058,2.001,0.237,2.915c0.172,2.715-1.944,4.947-1.448,7.659
		c0.122,0.438,0.491,0.83,0.437,1.314c-0.347,0.516-0.461,1.039-0.183,1.644c0.835,1.719-0.931,3.328-0.242,5.065
		c0.332,0.866,1.156,1.239,1.975,1.473c0.673,0.629,0.942,1.658,1.431,2.434c0.713,0.645,1.508,1.147,2.062,1.987
		c1.036,1.174,0.101,3.933,2.235,4.011c1.137,0.99,6.795,1.033,6.462,1.952c-0.097,0.205-0.344,0.149-0.527,0.149
		c-0.732-0.144-0.676,0.73-0.914,1.197c-0.189,0.894,0.502,1.941,0.883,2.716c0.509,0.213,0.682,0.597,0.909,1.053
		c0.329,0.296,0.923-0.001,1.274-0.094c1.333,0.18,2.777,1.479,2.804,2.896c0.04,0.97-0.588,1.766-0.842,2.605
		c0.095,0.568,0.179,1.319-0.026,1.861c-0.45,0.606-1.383,0.626-2.055,0.747c-0.456,0.292-0.77,1.137-0.13,1.433
		c0.518,0.212,1.348-0.204,1.812,0.121c0.628,0.829,0.144,1.063-0.633,1.346c-1.099,0.883-2.362,2.909-0.67,3.723
		c0,0.121,0.002,0.242-0.002,0.363h0.805c0,0.414-0.092,0.79,0.399,0.843c-0.187,0.897,0.873,0.409,1.194,1.03
		c-0.432,0.172-1.028,0.211-1.002,0.825c-0.454-0.489-0.65-0.342-0.57,0.274c0.2,0.284,0.648,0.663,0.455,1.078
		c-0.754,0.201-0.684,0.096-0.303,0.814c-0.133,0.253-0.578,0.489-0.876,0.392c-0.232,0.364,0.065,0.591,0.05,0.951
		c-0.064,0.245-0.131,0.382,0.061,0.588c0.427,0.238,0.689,0.635-0.039,0.506c-0.093,0.455,0.221,0.875-0.163,1.208
		c-0.085,0.411,0.338,0.829,0.508,1.2c-0.247,0.447,0.006,0.956-0.241,1.436c-0.359,0.313-0.366,0.864-0.909,0.893
		c-0.118,0.659-0.648,1.614-1.245,1.888c-0.431-0.533-0.559,0.196-0.769,0.502c-0.152,0.15-0.464,0.02-0.662,0.127
		c-0.253,0.137-0.199,0.148-0.432-0.019c-0.445-0.367-0.517,0.432-0.875,0.543c-0.176,0.084-0.156,0.075-0.242,0.283
		c-1.071-0.539-0.401,0.627-1.52,0.24v1.419c1.2,0.423,0.996,2.408,2.369,2.437c0.297,0.547,0.908,1.494,1.677,1.364
		c-0.045-0.093,0.058-0.169,0.039-0.273c1.276,0.469,2.084-0.584,3.161-1.025c0.237,0.054,0.429,0.538,0.65,0.331
		c0.005-0.144,0.242-0.144,0.342-0.106c0.145,0.18,0.098,0.558,0.452,0.367c0.385,0.036,0.075,0.753,0.552,0.748
		c0.042-0.344,0.265-0.43,0.602-0.358c0.176,0.274,0.574,0.661,0.827,0.26c0.267-0.227,0.421,0.091,0.651,0.191
		c0.233,0.101,0.6-0.05,0.761,0.193c0,0.456-0.033,1.245,0.408,1.508c0.055-0.361-0.115-0.864,0.065-1.185
		c0.653-0.061,0.361,1.808,1.235,1.682c-0.122-0.614-0.405-1.102-0.658-1.746c0.619,0.545,0.748,1.133,1.07,1.68
		c0.54,0.197,1.242-0.196,1.175,0.817c-0.674-0.632-0.919,0.383-0.132,0.366c0.434-0.154,0.628,0.139,0.963,0.324
		c1.684-0.142,2.979,1.265,2.515-1.434c0.796-0.069,1.271-0.94,1.773-1.452c-0.985-0.708-1.888-1.403-1.544-2.769
		c-2.085-0.182-1.349-1.367-1.99-2.602c-0.578-0.226-0.551-0.836-0.397-1.337c0.335,0.61,1.12,0.417,1.6,0.583
		c0.222-1.099,0.417-0.51,1.069-0.382c0.521-0.699,0.853,0.742,1.426-0.092c1.067-0.251,1.009-1.572,0.99-2.424
		c0.065-0.245,0.23-0.041,0.324,0.055c0.225,0.122,0.553-0.055,0.655,0.268c0.391,0.945,1.449-0.172,2.189,0.098
		c0.541,0.107,0.43-0.564,0.903-0.617c0.191-0.207-0.367-0.47-0.073-0.716c0.244-0.289,0.572,0.371,0.822,0.061
		c0.147-0.421-0.631-0.683,0.073-1.06c1.012-1.29,2.036,0.139,1.832,1.294c0.193,0.038,0.443-0.024,0.646-0.011
		c0.347,0.37,0.397,0.942,0.809,1.266c0.346-0.01,0.515,0.026,0.737,0.297c0.397-0.022,0.95,0.593,1.131-0.059
		c0.025,0,0.052-0.001,0.077,0.001c0.421,0.368,0.305,1.093,0.915,1.293c0.257,0.598,0.429,1.292,1.217,1.306
		c0.306,0.077,0.154,0.127,0.24,0.353c0.13,0.239,0.44-0.16,0.571-0.27c0.185-0.137,0.494-0.058,0.514-0.35
		c0.544,0.066,1.038,0.345,1.605,0.276c0.127-0.381-0.127-0.92,0.435-0.848c0.283-0.742,1.241-1.106,0.941-1.976
		c1.345,0.192,0.614,2.109,2.307,0.493c0.572,0.311,1.155-0.762,1.226-1.291c0.207-0.275,0.632,0.222,0.909-0.178
		c0.367,0.018,0.049-0.914,0.215-1.086c0.657-0.118,0.558-1.268,1.592-1.007c0.603,0.106,0.525,0.999,1.122,1.004
		c1.42,0.484,1.254,0.553,1.326-0.967c0.612-0.318-0.152-0.957,0.866-0.88c0.346-0.212,0.448-0.708,0.534-1.069
		c0.408-0.302,0.916-0.919,0.065-1.084c-0.025-0.265,0.335-0.364,0.367-0.576c-0.103-0.383-1.108-0.751-0.451-1.132
		c3.856-2.494-0.706-1.466-1.033-3.996c-0.195-1.108,1.678-1.321,2.296-0.83c0.166-0.152,0.264-0.377,0.54-0.385
		c0.713-0.464-0.741-1.18,0.872-1.577l0.014-1.783C179.138,166.63,178.254,165.85,178.844,165.385z"/>
</g>
</svg>
