<?xml version="1.0" encoding="utf-8"?>
<!-- Generator: Adobe Illustrator 26.0.3, SVG Export Plug-In . SVG Version: 6.00 Build 0)  -->
<svg version="1.1" id="Layer_1" xmlns="http://www.w3.org/2000/svg" xmlns:xlink="http://www.w3.org/1999/xlink" x="0px" y="0px"
	 viewBox="0 0 200 200" enable-background="new 0 0 200 200" xml:space="preserve">
<g id="Layer_1_00000055698912915478177840000012736911705920494464_">
	<g id="Layer_1_00000107551159852787612550000017757744099325915571_">
		<g id="Layer_1_00000128480095285341338950000008464522443776971395_">
		</g>
	</g>
</g>
<g id="Isolation_Mode_00000063621668281934077600000006196874878142535819_">
	<g>
		<path fill="#1E8346" d="M141.983,77.439c-0.024-0.303-0.153-0.492-0.392-0.658c-0.104-1.085-0.084-0.984-0.992-0.357
			c-0.518,0.439-1.417,0.169-1.823,0.855c-0.496,0.925-1.296,1.599-2.344,1.85c-0.298,0.188-0.526-0.217-0.858-0.077
			c-0.124,0.02-0.104,0.031-0.197-0.109c-0.679-1.629-1.594,0.624-2.433-0.184c-0.171-0.163-0.516-0.318-0.486,0.062
			c-0.574-0.062-0.682-1.138-0.137-1.405c0.72-0.549-0.592-1.111-0.939-0.444c-0.857-0.655-1.172-1.715-0.566-2.723
			c0.346-0.474-0.408-0.732-0.233-1.19c-0.293-0.004-0.59-0.144-0.859-0.039c-0.04,0.899-1.246-0.839-1.455,0.112
			c-0.254,0.231-0.32-0.09-0.334-0.277c-0.09-0.097-0.323-0.099-0.311-0.285c-0.396,0.323-0.835-0.452-1.067,0.053
			c-0.334,0.101-0.391-0.586-0.707-0.388c-0.224,0.473-0.747,0.111-1.049,0.402c-0.531-0.145-1.45-0.163-1.748-0.698
			c0.546-0.11-0.008-0.132,0.101-0.337c0.104-0.142,0.293-0.233,0.409-0.371c0.224-0.298,0.126-0.69,0.39-0.968
			c0.182-0.269-0.325-0.572,0.083-0.738c0.266-0.305,1.29-0.7,0.852-1.135c-0.133-0.178,0.007-0.246,0.11-0.395
			c0.344-0.642-0.413-1.234-0.549-1.833c0.184-0.403,0.706-0.163,0.78-0.627c0.012-0.206,0.083-0.39,0.304-0.446
			c0.849-0.545-0.722-1.42,1.117-0.692c0.609-0.165-0.552-1.079-0.272-1.634c0.007-0.292-0.527-0.146-0.709-0.211
			c-0.39-0.116-0.903-0.811-1.183-0.258c-0.127,0.092-0.37,0.011-0.459,0.105c-0.086,0.09,0.017,0.139-0.134,0.131
			c-0.257-0.013-0.446-0.227-0.693-0.274c-0.44-0.153-0.716,0.438-1.105,0.026c-0.15-0.117-0.191-0.191-0.148-0.378
			c-0.098-0.45-1.168-0.151-1.516-0.423c-0.257-0.475,1.309-1.454-0.037-1.579c0.179-0.236,0.422-0.519,0.318-0.851
			c-0.261-0.113-0.279-0.458-0.468-0.617c-0.28,0-0.492-0.085-0.551-0.404c-0.197-0.415,0.994-0.643,0.588-1.045
			c-0.253-0.134-0.402-0.422-0.478-0.715c0.24-1.338-1.871-0.374-1.12-1.68c-0.198-0.278-0.18-0.567-0.023-0.842
			c-0.169-0.1-0.287-0.255-0.088-0.439c0.498,0.332,0.569-0.378,0.844-0.541c0.492-0.207,1.328-0.659,0.866-1.276
			c-0.393,0.5-1.051,0.115-1.551,0.303c-0.227,0.307-0.575,0.153-0.864,0.297c-0.151,0.141-0.347,0.088-0.405-0.112
			c-0.094-0.29-0.423-0.233-0.663-0.221c-0.553-0.039-1.032,0.133-1.536,0.31c-0.707-0.233-1.434-0.124-2.138,0.074
			c-0.614,0.427-1.92,0.334-2.09,1.112c-0.991,0.061-1.473,1.033-2.334,1.42c-0.072-0.617-0.697-0.673-1.12-0.926
			c0.142-0.223,0.358-0.43,0.554-0.606c0.322,0.004,0.44-0.156,0.471-0.455c0.688-0.633,1.265-0.936,0.829-1.906
			c1.011-0.918-0.725-0.454-0.561-1.164c0.826-0.249-0.036-0.72-0.008-1.252c-0.401,0.027-0.825,0.157-1.217,0.166
			c-0.214-0.679,0.92-2.418,0.095-3.154c0.418-0.399,1.119-0.604,1.502-1.03c1.064,0.385,0.953-0.363,0.196-0.81
			c0.013-0.555-0.047-1.169-0.036-1.722c0.811-0.04,0.622-2.124,1.343-1.895c0.196,0.365,0.667,0.744,0.952,0.219
			c0.309-0.773,1.089-0.464,1.257-1.406c0.395-0.178,0.73-0.479,0.484-0.98c-0.694-0.717,0.637-0.634,0.281-1.581
			c0.623-0.169,0.924,0.225,1.148,0.735c0.291-0.101,0.322-0.433,0.67-0.425c0.32-0.102,0.146-0.321,0.259-0.577
			c0.684-0.492,0.564-1.41,1.189-1.952c0.246-0.206,0.355,0.05,0.56,0.195c0.596,0.42,1.039-0.128,1.038-0.732
			c0.055-0.581-0.367-0.846-0.797-1.082c-0.083-0.503-0.608-1.098-0.267-1.564c0.424,0.01,0.778-0.186,0.761,0.407
			c0.616-0.121,0.786-1.071,0.467-1.547c-0.093-0.009-0.186,0.001-0.275,0.025c-0.27-0.695,0.662-1.157,0.57-1.881
			c-0.145-0.974,0.649-1.937,0.206-2.826c-0.348-0.473,0.053-1.167-0.292-1.632c0.04-0.261,0.226-0.457,0.141-0.758
			c0-0.295-0.159-0.674-0.092-0.956c0.189-0.196,0.255-0.353,0.202-0.642c-0.631-0.007-0.667-0.957-0.645-1.427
			c0.264-0.286,0.366-0.511,0.296-0.909c0.294-0.416,0.076-0.821-0.24-1.171c-0.086-0.347,0.021-0.617-0.085-0.971
			c-0.024-0.418,0.339-0.758-0.166-1.047c-0.444,0.426-1.016-0.032-1.037-0.576c-0.361,0.409-0.76-0.151-1.134-0.281
			c0.109,0.81-0.322,1.966-1.278,1.442c0.34-0.917-1.115-1.552-0.591-2.208c-0.419-0.276-0.136-0.777-0.489-1.075
			c-0.188-0.118-0.247-0.107-0.087-0.31c0.273-0.312,0.119-0.837-0.308-0.894c-0.481-0.616,0.382-1.476-0.187-2.107
			c-0.264-0.143-0.36-0.585-0.622-0.586c-0.138,0.002-0.261,0.111-0.409,0.007c-0.168-0.116-0.183-0.364-0.166-0.539
			c0.03-0.315-0.084-0.274-0.343-0.437c-0.312-0.22-0.332-0.538-0.713-0.719c-0.268-0.181-0.216-0.125-0.397,0.102
			c-0.36,0.451-0.832-0.414-1.102-0.581c-0.029-0.628-0.099-1.189-0.742-1.475c-0.171,0.048-0.475,0.147-0.65,0.15
			c-0.094-0.828-0.384,0.29-0.725,0.274c0.35,0.71-0.613,1.195,0.03,1.827c-0.154,0.138-0.318,0.144-0.355,0.358
			c-0.028,0.165,0.057,0.265-0.131,0.23c-0.369-0.333-0.591-0.297-0.477,0.232c-0.566-0.034-0.693,0.208-0.513,0.717
			c-0.205,0.437-0.617,0.751-0.384,1.302c0.89-0.104,0.532,0.802,0.543,1.318c-0.187,0.193,0.122,0.343,0.029,0.551
			c-0.224,0.46-0.593-0.239-0.854-0.258c-0.78,0.373-1.39,1.23-1.951,1.811c-0.52-0.199-0.692,0.257-0.847,0.672
			c-0.319,0.32-1.176,0.443-0.911,1.098c0.17,0.078,0.126,0.208,0.136,0.363c0.106,0.183,0.287,0.363,0.112,0.587
			c-0.292,0.416,0.227,0.749,0.404,1.088c0.257,1.138,2.08,1.814,1.656,3.173c-0.13-0.021-0.322-0.208-0.46-0.125
			c-0.093,0.055-0.06,0.161-0.197,0.071c-0.174-0.219-0.403-0.407-0.665-0.53c-0.207-0.113-1.295-0.331-1.286-0.606
			c0.075-0.177,0.32-0.356,0.166-0.6c-0.638-0.254-0.788-1.475-1.734-1.102c-0.321,0.107-0.948-0.346-0.978,0.225
			c-0.182,0.279-0.623,0.197-0.715,0.596c-0.688-0.309-1.335-0.015-2.057-0.048c-0.784,0.343-1.778,0.624-2.563,1.186
			c-0.528,0.533-0.756,1.47-1.561,1.662c-0.32,0.064-0.558-0.013-0.778,0.271c-0.31,0.42-0.317,1.576-1.089,0.975
			c-0.459,0.633-0.417,1.122-1.247,0.718c-0.386,0.439-0.594,1.179-1.09,1.505c-0.559,0.137-1.237,0.599-1.758,0.231
			c-0.601,0.115-0.757,0.909-1.08,1.277c-0.09,0.34-0.344,0.656-0.499,0.975c0.143,0.269,0.3,0.613,0.537,0.818
			c0.129,0.597-0.298,1.318,0.105,1.874c-0.224,0.307-0.291,1.043,0.196,1.168c0.71,0.943-1.734,1.511-1.276,2.577
			c0.241,0.424,0.424,1.038-0.136,1.282c-0.737,0.201-0.688,1.041-1.197,1.426c0.058,0.07,0.112,0.159,0.137,0.246
			c-0.092,0.13-0.332,0.013-0.451,0.066c-0.318,0.182-0.226,0.784-0.724,0.708c-1.271,0.181-1.484,1.796-1.84,2.841
			c0.024,0.709,1.493,0.404,1.542,1.173c0.185,0.677-0.352,1.132-0.376,1.728c0.095,0.429-0.392,0.701-0.554,1.061
			c-0.299,0.388,0.095,1.655-0.748,1.243c-0.425,0.173-0.169,0.708-0.294,1.054c-0.155,0.329-0.601,0.351-0.724,0.675
			c-0.144,0.239-0.179,0.695-0.489,0.734c0.054,0.237,0.069,0.499-0.083,0.717c-0.166,0.146-0.376,0.222-0.135,0.423
			c-0.116,0.173-0.264,0.383-0.477,0.389c-0.117,0.558-0.257,1.298-0.629,1.776c-0.198,0.735-0.159,2.082-0.889,2.466
			c-0.325,0.446-0.16,1.669-0.715,0.448c-0.653-0.037-1.113-0.727-1.869-0.672c-0.528,0.318-1.154,0.172-1.208-0.515h-1.478
			c0.017,0.474-0.285,0.463-0.578,0.206c-0.683,1.207-0.998-0.962-1.646-1.011c-0.717-0.68-0.628,1.644,0.141,1.527
			c0.061,0.633-0.234,2.095,0.405,2.481c-0.353,0.765-0.056,1.715-0.42,2.492c-0.059,0.294,0.248,0.656-0.033,0.908
			c-0.16,0.131-0.246-0.006-0.223,0.269c0.235,0.694,0.022,1.422,0.164,2.04c-0.233,0.249-0.357,0.546-0.369,0.886
			c-1.085,1.196-1.025-0.399-1.811-0.023c-0.746,0.427,0.316,1.127,0.061,1.438c-0.336,0.032-0.647,0.985-0.542,1.228
			c0.107,0.359-0.125,0.673-0.086,1.028c0.046,0.403,0.539,0.765,0.371,1.186c-0.149,0.227-0.279,0.437-0.039,0.629
			c-0.08,0.509,0.277,0.652,0.612,0.928c-0.01,0.507,0.331,1.698-0.258,1.861c-0.354,0.016-0.066,0.229-0.022,0.438
			c-0.069,0.638-0.516-0.257-0.862-0.02c-0.71-0.084-0.004,0.788-0.24,0.992c-0.804-0.129-0.249,0.843-0.481,1.284
			c-0.272,0-0.3-0.266-0.398-0.462c-0.259,0.061-0.419,0.575-0.448,0.815c-0.181-0.364-0.289-0.773-0.412-1.161
			c-0.488-0.225-0.949-0.775-1.545-0.905c-0.178,0.352,0.033,1.068-0.26,1.276c-0.236-0.021-0.337,0.213-0.446,0.383
			c-0.17,2.261-0.225,4.787,0.573,7.072c-0.281,0.067-0.485,0.337-0.802,0.375c-0.326-0.329-0.352-2.071-0.932-1.034
			c-0.938,0.15-0.636-1.41-1.32-1.137c-0.222,0.322-0.382,0.581-0.792,0.401c-0.141,0.263-0.029,0.669-0.354,0.826
			c-0.506,0.139-0.277,0.57-0.182,0.926c0.053,0.312-0.363,0.409-0.381,0.697c-0.019,0.521,0.446,0.814,0.741,1.155
			c0.182,1.199,0.704,2.23,1.146,3.393c0.067,0.58,0.74,0.763,1.078,1.195c0.785,1.343,1.706,1.996,2.134,3.609
			c0.1-0.709-0.041-0.984,0.342-1.731c0.024,0.11,0.065,0.2,0.137,0.282c-0.058,0.549-0.127,1.23,0.588,1.282
			c-1.21,0.76-0.287,1.345,0.625,1.654c0.154-0.652,0.578-1.08,0.962-1.644c0.292-0.373,0.033-0.883,0.33-1.231
			c-0.054,0.213-0.018,0.548,0.281,0.434c-0.51,0.686-1.347,3.287,0.309,1.578c-0.198,0.604-0.545,0.859-1.15,0.741
			c0.308,0.961,0.914,1.904,1.475,2.773c-0.047-0.54-0.517-1.176,0.045-1.599c0.297,0.596,0.671,1.252,0.769,1.916
			c0.034,0.051,0.199,0.041,0.247,0.019c-0.134-0.81-1.425-1.806-0.421-2.589c-0.244,0.744,1.17,0.519,1.341,0.012
			c0.247,0.107,0.08,0.353,0.186,0.52c0.213,0.147,0.208-0.157,0.249-0.266c0.26,0.235,0.217,1.169,0.757,0.85
			c-0.096,0.3,0.26,0.315,0.389,0.123c0.044,0.1,0.145,0.127,0.241,0.134c0.236,0.047-0.007,0.397,0.169,0.491
			c0.344,0.143,0.524,0.007,0.605-0.324c0.314-0.087,0.868-0.019,0.987,0.329c-0.628-0.633-1.865,2.627-0.826,1.44
			c-0.005,0.282,0.41,0.277,0.587,0.232c0.037-0.134-0.005-0.354,0.197-0.377c0.071,0.001,0.266,0.06,0.129,0.141
			c-0.572,0.7,0.315,0.807,0.767,0.368c-0.002,0.248-0.091,0.625-0.415,0.501c-0.627,0.342-0.176,0.349,0.124,0.663
			c0.276,0.521,0.95,0.726,1.374,1.082c-0.133,0.239-0.312,0.359-0.524,0.105c-0.084-0.359-0.589-0.631-0.943-0.56
			c0.782,1.067-0.717-0.536-1.097-0.407c-0.092,0.222-0.089,0.458-0.135,0.69c-0.068,0.201-0.445,0.026-0.496,0.284
			c0.326,0.072,0.588,0.261,0.856,0.463c0.248,0.055,0.631,0.076,0.513,0.431c0.037,1.064,1.384,1.875,1.343,0.27
			c0.254,0.15,0.002,0.42,0.111,0.622c0.2,0.075,0.369-0.387,0.579-0.443c0.041,0.112,0.06,0.241,0.097,0.361
			c-0.342,0.024-0.467,0.29-0.69,0.507c-0.278,0.161-0.701,0.243-1.027,0.169c-0.439-0.099-0.436-0.601-0.841-0.73
			c-0.583-0.026-0.491-0.592-0.694-0.981c-1.29-0.536-1.687,0.079-0.928,1.258c0.499,0.334,0.584,1.015,1.02,1.353
			c0.435,0.288,0.226,0.933,0.442,1.294c0.78,0.543,1.768,0.862,2.42,1.571c0.229,0.202,0.135-0.381,0.261-0.493
			c0.498-0.711,0.028-1.695-0.069-2.499c0.533,0.597,0.487-0.324,0.744-0.577c-0.038-0.536-0.077-1.099,0.455-1.416
			c-0.436,0.597-0.208,1.337-0.315,2.033c-0.021,0.273-0.232,0.907,0.236,0.815c0.026,0.236-0.267,0.309-0.442,0.314
			c0.335,0.645,0.023,1.295,0.181,1.917c0.403,0.364,1.347,0.166,1.285,0.916c-0.04,0.356-0.173,0.164-0.27,0.27
			c0.183,0.411,0.697,0.686,0.901,1.133c0.166,0.329,0.085,0.716,0.156,1.066c0.212,0.51,0.857,0.766,0.788,1.387
			c0.56,0.003,0.735,0.356,0.383,0.845c-0.112,0.096-0.273-0.025-0.392-0.061c-0.279-0.135-0.365,0.393-0.091,0.446
			c0.643-0.005,1.109,0.316,1.081,1.018c0.001,0.414,0.489,0.659,0.312,1.141c-0.101,0.581-0.674,0.308-0.108,1.078
			c0.41,0.4-0.099,1.041,0.242,1.467c0.344,0.202,0.491,0.497,0.457,0.895c0.116,0.358,0.527,0.625,0.344,1.061
			c-0.139-0.194-0.273,0.031-0.348,0.161c-0.059,0.205,0.172,0.325,0.155,0.521c-0.198,0.588,0.683,2.35-0.366,2.124
			c-0.075,0.143-0.002,0.323-0.134,0.442c-0.187,0.331,0.351,0.389,0.315,0.642c-0.328,0.196-0.435,0.361-0.743,0.022
			c-0.348,0.247,0.685,0.508-0.002,1.074c-0.211,0.498,0.241,1.543-0.442,1.678c-0.162,0.011-0.282,0.008-0.316,0.197
			c-0.114,0.349,0.303,0.597,0.203,0.917c-0.16,0.295-0.42,0.536-0.404,0.895c0.08,0.366-0.03,0.661-0.165,0.973
			c0.18,0.261-0.063,0.804-0.414,0.74c-0.167-0.317-0.577-0.049-0.249,0.193c0.1,0.238-0.078,0.521,0.009,0.78
			c-0.461,0.631-0.254,1.376-0.434,2.062c0.126,0.648-0.482,1.364-0.092,1.949c0.135,0.154,0.2,0.878,0.435,0.51
			c0.1-0.158,0.283-0.187,0.427-0.097c0.227,0.025,0.359-0.319,0.4-0.49c0.676-0.495,1.214-1.017,1.66-1.742
			c1.407-0.096,1.4-2.115,1.403-3.169c0.077,0.139,0.217,0.254,0.309,0.38c-0.181,0.345,0.122,0.864,0.025,1.223
			c-0.034,0.283-0.362,0.537-0.346,0.81c-0.24,0.319,0.143,0.52,0.189,0.812c-0.024,0.899-0.499,1.639-1.13,2.247
			c-0.312,0.837,1.384-0.18,1.425-0.624c0.078,0.649-0.847,0.831-1.043,1.219c0.446,0.927,1.055,0.709,1.406-0.147
			c1.381-0.936,0.427-1.378,0.965-2.523c0.366-0.294,0.937-0.24,1.228-0.682c-0.125,0.585-0.602,0.592-1.021,0.756
			c-0.34,0.521-0.115,0.985-0.048,1.534c0.123,0.034,0.201-0.065,0.312-0.051c-0.164,0.287-0.58,0.275-0.697,0.644
			c-0.068,0.084-0.047,0.33-0.192,0.295c-0.291,0.234-0.711,0.864-0.649,1.237c0.153,0.059,0.561,0.305,0.601,0.024
			c0.119-0.927,0.386-0.096,0.675-0.384c0.129,0.304-0.477,0.208-0.371,0.501c0.069,0.43,1.33,0.688,1.349,0.104
			c0.014-0.024,0.021-0.052,0.027-0.079c0.729,0.074,0.775-2.036,0.542-2.572c0.063-0.668,0.841-0.966,1.164-1.506
			c-0.042,0.245-0.374,0.497-0.295,0.746c0.131-0.119,0.309-0.241,0.442-0.365c0.051,0.163,0.031,0.374,0.006,0.54
			c-1.433,0.175-0.501,1.956-0.658,2.903c0.081,0.417,0.908,0.588,0.991,0.1c-0.006-0.258-0.124-0.485,0.057-0.698
			c0.406,0.582,1.313-1.369,1.146-1.774c0.691,0.627-0.629,1.61-0.676,2.361c-0.141,1.011,0.642,1.267,1.46,0.847
			c0.817-0.388,1.156-1.393,1.96-1.873c0.607-0.758,0.549-1.425,0.959-2.148c0.568,0.157,0.996-0.544,1.511-0.702
			c0.711,0.01,1.947-0.653,1.572-1.505c0.216,0.197,0.457,0.358,0.717,0.477c0.399-0.582,1.864-0.337,1.71-1.387
			c-1.12-0.682-0.572-2.235-1.485-3.096c0.548-0.092,1.154-0.538,1.378-1.061c0.237,0.845-1.175,0.856-0.657,1.607
			c0.16,0.534,0.42,1.027,0.536,1.564c0.383,0.16,0.643,0.465,0.933,0.739c1.579,0.164,2.71-0.901,3.442-2.155
			c-0.083-0.631-0.028-1.248,0.481-1.691c-0.127,0.435,0.183,0.585,0.475,0.738c0.396-0.877,0.614-2.164,0.022-3.063
			c-0.151-0.607,0.084-1.249,0.205-1.804c-0.399-0.476-0.033-0.756,0.092-1.228c0.157,0.318,0.036,1.599,0.641,1.147
			c0.034,0.304-0.155,0.543,0.125,0.785c0.204,0.089-0.106,0.616,0.254,0.278c0.002,0.158,0.03,0.285,0.18,0.361
			c0.065,0.35,0.116,0.926,0.543,0.395c0.219,0.434-0.444,1.246,0.237,1.367c-0.113-0.9,0.703-2.621,1.312-1.232
			c-0.415,0.124-0.469-0.799-0.916,0.122c-0.018,0.622-0.009,1.464,0.427,1.971c0.677,0.443,0.383,1.012,0.449,1.64
			c0.058,0.493,0.717,0.493,0.817,0.908c0.033,0.364,0.06,0.703,0.232,1.037c0.167,0.428,0.625-0.021,0.836-0.168
			c0.522,0.007,1.074,0.186,1.608,0.171c0.389,0.186,0.064,0.766,0.057,1.099c-0.058,0.662,0.41,1.204,0.244,1.888
			c-0.119,0.721-0.993,1.121-0.605,1.906c0.129,1.022,1.582,1.352,1.296,2.467c-0.25,0.909,0.643,1.984,0.205,2.909
			c0.101,0.249,0.6,0.349,0.408,0.706c-0.624,0.329-0.52,1.152-0.317,1.715c0.229,0.339,0.598,0.585,0.567,1.04
			c-0.397,0.863,0.23,1.487-0.112,2.297c-0.072,0.37,0.253,0.612,0.315,0.952c-0.158,0.805,0.524,1.151,0.671,0.2
			c0.16,0.228,0.387,0.353,0.447-0.01c0.034,0.211,0.157,0.413,0.208,0.626c-1.38-0.464-0.501,1.463-0.229,2.093
			c0.375,0.694,0.098,1.605,0.667,2.18c0.173,0.23,0.243,0.605,0.591,0.631c0.159,0.017,0.224,0.049,0.173,0.219
			c-0.104,0.183-0.038,0.427,0.04,0.606c-0.545,0.734-0.361,1.631,0.008,2.396c0.017,0.279-0.004,0.556-0.251,0.72
			c-0.167,0.354,0.166,0.929,0.379,1.191c0.33-0.078,0.379,0.322,0.158,0.495c0.115,0.326-0.269,0.681,0.406,0.777
			c-0.413-0.635,0.424-1.057,0.01-1.658c-0.22-0.578,0.159-1.063,0.37-1.561c0.06-0.433-0.108-0.877-0.15-1.281
			c0.657,0.713,0.422,2.05,0.368,2.86c0.142,0.029,0.364,0.153,0.439,0.283c0.264,0.54,0.933,0.663,0.787,1.365
			c0.277,0.205,0.544,0.528,0.472,0.905c0.216,0.722,0.577,1.433,0.716,2.186c-0.042,0.229-0.037,0.578,0.286,0.524
			c0.038-0.047,0.094-0.083,0.123-0.138c0.043,0.303,0.34,0.326,0.433,0.585c0.009,0.517,0.151,1.065,0.123,1.519
			c-0.222,0.545,0.483,0.819,0.496,1.35c0.018,0.142,0.068,0.405-0.114,0.45c-0.339-0.023-0.302,0.306,0.005,0.326
			c-0.369,0.482,0.391,0.082,0.273,0.559c-0.099,0.257-0.051,0.523-0.152,0.744c-0.012,0.282-0.461,0.507-0.287,0.776
			c0.139,0.174,0.667-0.019,0.669,0.251c-0.428,0.218-1.133,0.277-0.629,0.974c0.075,0.105,0.089,0.172-0.059,0.19
			c-1.181,0.014-0.753,0.572,0.139,0.818c-0.663-0.125-1.222,0.592-0.552,1.02c0.335,0.172,0.605-0.412,0.986-0.325
			c-0.185,0.094-0.317,0.257-0.162,0.463c0.06-0.013,0.116-0.037,0.175-0.055c-0.441,0.334,0.405,0.36,0.232,0.602
			c-0.465-0.199-0.762-0.358-0.787,0.379c0.11,0.735,0.806,0.194,1.149,0.254c-0.214,0.285-0.763,0.104-0.226,0.654
			c-0.036-0.002-0.073,0.021-0.102,0.026c0.048,0.149,0.204,0.232,0.27,0.347c-0.416,0.129-0.882-0.458-1.238-0.202
			c0.123,0.184,0.366,0.159,0.514,0.278c-0.483-0.005-0.766-0.462-1.249-0.464c-0.205-0.118-0.758-1.5-0.938-0.857
			c0.109,0.505,0.292,1.003,0.28,1.521c0.019,0.346,0.168,0.59,0.537,0.597c0.233-0.032,0.17-0.148-0.024-0.147
			c0.525-0.374,0.351-0.324,0.419,0.135c0.364,0,0.732,0.028,1.09,0c0.016,0.347-0.421,0.251-0.612,0.339
			c0.407,0.42-0.552,0.961,0.325,1.211c0.503,0.448,0.572,0.359,0.745-0.217c0.291-0.348,0.758-0.532,0.936-0.966
			c-0.242,0.904-0.319,0.76,0.504,1.24c-0.189-0.017-0.713-0.024-0.433,0.266c-1.088-0.122-0.995,0.738-0.966,1.51
			c0.467,0.019,0.162,0.487,0.516,0.708c-0.456-0.302-1.037,0.299-0.539,0.63c0.169,0.363-0.005,0.867,0.331,1.144
			c-0.199,0.394,0.088,0.839-0.345,1.074c-0.157,0.142-0.122,0.124-0.272,0.083c-0.363-0.101-0.214,0.713,0.113,0.498
			c0.078,0.308,0.384,0.481-0.153,0.526c-0.085-0.05-0.205-0.234-0.309-0.072c-0.116,0.218,0.301,0.186,0.328,0.402
			c-0.059,0.308,0.385,0.317,0.291,0.569c-0.111,0.236-0.48,0.138-0.5,0.427c-0.149-0.233-0.307-0.22-0.427,0.03
			c-0.111,0.1-0.423,0.139-0.405,0.299c0.284,0.289,0.021,1.581-0.49,1.17c0.052,0.207-0.078,0.352-0.234,0.198
			c-0.495-0.065-0.475,0.867-0.206,1.139c0.072,0.953,0.174,1.523,0.502,2.421c-0.111,0.589-0.24,1.071-0.378,1.631
			c0.451,0.5-0.054,1.477,0.515,1.971c0.656-0.393,0.779-1.747,1.187-2.03c0.551-0.736,0.565-1.798,1.263-2.502
			c0.063-0.273-0.044-0.483,0.225-0.726c-0.349-0.18-0.054-0.567-0.298-0.758c-0.41-0.221-0.248-0.678,0.049-0.958
			c0.234-0.188,0.359-0.557,0.581-0.727c0.19-0.083,0.299,0.089,0.436-0.119c0.062-0.269,0.114-0.306,0.393-0.189
			c0.817,0.021,0.234-1.32,0.753-1.488c0.527,0.482,0.562-0.396,0.984-0.563c0.754-0.595,1.118-1.348,1.51-2.215
			c0.545-0.312,0.101-0.486,0.373-0.778c0.485-0.306,0.71-0.627,0.642-1.177c0.249-0.141,0.59-0.421,0.711-0.729
			c0.125-0.34-0.184-0.657,0.185-0.891c0.267-0.169,0.202,0.096,0.427,0.086c0.4-0.345,0.731-0.873,1.007-1.341
			c0.258-0.366,0.095-0.64-0.254-0.863c-0.455-0.352-0.269-0.952-0.263-1.424c-0.908-0.187-0.587-0.931-0.21-1.496
			c-0.234-0.028-0.611,0.01-0.837,0.091c-0.038-0.349,0.398-0.651-0.059-0.92c0.05-0.444,0.086-0.643-0.306-0.937
			c-0.223-0.285,0.041-0.574-0.031-0.866c-0.14-0.252-0.47-0.364-0.174-0.666c0.183-1.252,0.271-0.928-0.795-1.48
			c-0.535-0.122-0.278-0.984-0.872-0.784c-0.29-0.312-0.095-0.831-0.4-1.082c-0.26-0.178-0.104-0.518-0.236-0.772
			c-0.152-0.293,0.134-0.273,0.194-0.532c0.008-0.458-0.568-0.692-0.857-0.968c0.011-0.204,0.328-0.284,0.318-0.525
			c-0.03-0.243-0.334-0.569-0.042-0.788c0.31-0.15,0.846,0.251,0.604-0.387c0.137-0.165,0.149-0.307-0.011-0.488
			c-0.299-0.649,0.244-1.391,0.013-2.047c-0.034-0.504-0.45-0.849-0.293-1.408c0.146-0.725-0.614-1.126-0.65-1.806
			c-0.011-0.218,0.161-0.438-0.056-0.575c-0.317-0.209-0.642-0.472-0.764-0.84c-0.296-1.509-2.231-1.667-3-2.876
			c-0.374-0.217-1.056-0.21-0.995-0.805c-0.144-0.308-0.478-0.466-0.512-0.862c-0.279-0.317-0.122-1.04-0.723-0.866
			c-0.273-1.17-1.699-1.787-2.008-2.963c0.188-0.327-0.278-0.491-0.06-0.8c-0.281-0.45-0.251-0.725-0.112-1.217
			c-0.103-0.335-0.538-0.548-0.292-0.933c0.217-0.305,0.047-0.594-0.053-0.901c0.402,0.016,0.73,0.045,0.93-0.382
			c0.027-0.155,0.013-0.469,0.263-0.304c0.252,0.092,0.605,0.53,0.846,0.379c0.336-0.463-0.445-0.41-0.105-0.731
			c0.256-0.339,0.63-0.384,0.971-0.566c0.259,0.051,0.372,0.399,0.575,0.551c0.47-0.932,0.115-2.086-0.102-3.059
			c-0.173-0.815,0.702-1.552,0.436-2.319c-0.23-0.392,0.299-0.769-0.058-1.133c-0.363-0.197-0.329-0.751,0.103-0.779
			c0.116,0.769,0.367,0.18,0.661-0.133c0.035-1.079,1.374,0.349,1.745-0.44c-0.208-0.76,0.535-1.136,0.681-1.827
			c-0.166-0.342-0.297-1.36-0.908-0.837c-0.245,0.419-0.686,0.518-0.98,0.831c-0.537,1.169-0.636-0.061-0.571-0.64
			c-0.487-0.246-0.068-0.63-0.24-0.994c-0.19-0.25-0.497-0.44-0.691-0.661c0.197-0.448,0.072-0.892-0.515-0.846
			c0.085-0.422-0.194-0.651-0.427-0.906c-0.046-0.409,0.966-0.656,0.524-0.978c-0.349-0.135-0.01-0.39-0.024-0.608
			c-0.235-0.228-0.168-0.468-0.196-0.747c-0.13-0.118-0.295-0.203-0.389-0.366c-0.134-0.175-0.297-0.408-0.494-0.513
			c-0.358-0.075-0.691,0.264-0.912-0.252c0.054-0.403-0.275-0.612-0.457-0.922c-0.108-0.109-0.246-0.184-0.248-0.365
			c-0.216-0.425-0.826-0.671-1.114-1.088c-0.172-0.191,0.065-0.484-0.07-0.657c-0.473-0.054-0.594-0.335-0.722-0.775
			c-0.165-0.451-0.66-0.428-0.984-0.627c-0.145-0.422-0.39-0.729-0.784-0.935c-0.672-0.879-2.163-2.366-1.141-3.376
			c0.298-0.575-0.216-0.817-0.451-1.102c0,0,0-0.911,0-0.911c-0.312-0.056-0.811-0.673-0.483-0.966
			c0.232-0.385-0.258-0.741-0.608-0.795c-0.657,1.757-0.993-0.255-1.345-0.917c-0.234-0.235-0.142-0.621-0.462-0.787
			c-0.43-0.149-0.22-0.508-0.11-0.778c-0.031,0.246,0.094,0.476,0.373,0.348c0.191,0.31,0.334,0.862,0.781,0.499
			c0.339,0.396,0.466,0.182,0.626-0.179c0.231-0.056,0.572,0.044,0.704-0.222c0.324-0.56,1.616,0.214,1.345-0.837
			c-0.22-1.614-0.007-2.263-0.907-3.092c0.353-0.263,0.79-0.398,0.65-0.962c0.277,0.075,0.26-0.133,0.366-0.287
			c0.629-0.162,0.736-1.055,0.509-1.584c-0.107-0.198-0.641-0.366-0.28-0.588c0.742-0.066-0.412-0.936,0.045-1.322
			c0.242-0.278,0.607-0.504,0.748-0.859c-0.97-1.079,0.84-0.539,0.939-1.408c0.357,0.245,0.676-0.249,0.472-0.567
			c-0.161-0.529,0.233-1.783,0.601-0.711c0.676-0.463,1.133,0.677,1.623,0.884c0.406,0.084,0.833,0.077,1.158-0.192
			c0.289,0.014,0.569,0.142,0.829-0.113c0.341-0.328,0.622,0.192,0.888,0.385c0.087-0.576,0.623-0.326,0.937-0.758
			c0.327-0.424,0.726,0.127,1.059-0.129c0.252-0.435,0.557-0.573,0.944-0.159c0.329,0.171,0.714,0.074,0.975,0.394
			c-0.105-0.733,0.689-1.098,0.399-1.91c0.189-0.07,0.063-0.363,0.079-0.516c0.248-0.311,0.028-0.783,0.313-1.136
			c1.133-0.768,2.307,0.112,3.572,0.035c0.269-0.083,0.443-0.346,0.551-0.591c0.198-0.04,0.537-0.363,0.459-0.604
			c-0.165-0.166-0.396-0.287-0.348-0.587c-0.123-0.204,0.028-0.565-0.285-0.706c-0.46-0.214-0.271-0.843,0.163-0.378
			c0.455,0.302,0.902,0.498,1.436,0.379c0.203,0.17,0.596,0.265,0.734-0.048c1.045,0.23,0.799-0.557,1.354-1.1
			c0.612-0.202,0.782-0.194,1.104,0.381c0.311,0.132,0.624,0.151,0.852,0.417c0.614-0.453,0.452-1.427,0.778-2.076
			c-0.026-1.125,1.173-1.853,1.887-2.538c0.906,0.072,2.117,0.42,2.569-0.687c-1.861,0.562-0.962-0.115-0.828-1.257
			c1.225-0.379,1.374-1.807,1.614-2.904c0.079-0.152,0.316,0.068,0.466,0.048c0.708,0.096,1.192-0.767,1.943-0.8
			c0.564-0.478,1.866-1.039,1.631-1.888C141.736,77.775,142.172,77.732,141.983,77.439z"/>
		<path fill="#1E8346" d="M112.359,193.529c-0.05-0.043-0.08-0.068-0.18-0.067c-0.245,0.146-0.084,0.477,0.136,0.538
			C112.539,193.928,112.63,193.626,112.359,193.529z"/>
		<path fill="#1E8346" d="M114.482,191.338c-0.688,0.283-1.056,0.836-1.367,1.506c0.272,0.12,0.003,0.483,0.233,0.525
			c0.064-0.554,0.508-0.715,0.99-0.942c-0.029-0.521,0.366-0.452,0.478-0.867C114.692,191.504,114.608,191.369,114.482,191.338z"/>
		<path fill="#1E8346" d="M114.133,190.242c-0.033-0.048-0.112-0.146-0.218-0.17c-0.401,0.301-0.269,0.69-0.019,1.057
			C114.129,190.942,114.226,190.522,114.133,190.242z"/>
		<path fill="#1E8346" d="M114.861,190.847c-0.04-0.017-0.077-0.038-0.115-0.055c-0.008,0.007-0.019,0.018-0.046,0.052
			c0.089,0.065,0.06,0.174,0.133,0.253C114.958,191.14,115.06,190.853,114.861,190.847z"/>
		<path fill="#1E8346" d="M111.008,187.496c0.1,0.173,0.084,0.356,0.073,0.556C111.469,188.299,111.524,187.23,111.008,187.496z"/>
		<path fill="#1E8346" d="M114.07,186.902c-0.149,0.015-0.405,0.344-0.132,0.305C114.131,187.223,114.435,186.82,114.07,186.902z"/>
		<path fill="#1E8346" d="M112.105,186.528c-0.131-0.105-0.368,0.062-0.537,0.038C111.648,186.834,111.969,186.607,112.105,186.528z
			"/>
		<path fill="#1E8346" d="M114.404,185.462c-0.009,0.097-0.235,0.179-0.099,0.253C114.47,185.88,114.487,185.54,114.404,185.462z"/>
		<path fill="#1E8346" d="M113.285,183.214c0.278-0.308,0.305,0.048,0.407,0.233c0.284-0.047,0.363,0.379,0.601,0.495
			c0.208,0.325-0.485,1.638,0.296,1.31c0.228-0.113,0.054-0.378,0.177-0.557c0.2-0.237,0.027-0.302-0.155-0.437
			c-0.064-0.192,0.054-0.445-0.191-0.54c-0.196-0.496-0.686-1.793-1.173-0.732c-0.079,0.182-0.287,0.231-0.405,0.366
			C112.959,183.637,113.138,183.309,113.285,183.214z"/>
		<path fill="#1E8346" d="M111.49,183.044c-0.388-0.212-0.737,0.442-0.383,0.626C111.341,183.653,111.605,183.218,111.49,183.044z"
			/>
		<path fill="#1E8346" d="M112.81,183.711c-0.077-0.228-0.261-0.168-0.434-0.13c-0.13,0.161,0.055,0.122,0.146,0.18
			C112.639,183.792,112.937,183.955,112.81,183.711z"/>
		<path fill="#1E8346" d="M117.264,183.669c-0.122-0.121-0.522-0.318-0.587-0.065c0.048,0.25,0.158,0.433,0.064,0.651
			C116.939,184.73,117.495,183.983,117.264,183.669z"/>
		<path fill="#1E8346" d="M114.958,181.955c-0.091,0.094-0.254,0.318,0.002,0.309C115.085,182.252,115.093,181.98,114.958,181.955z"
			/>
		<path fill="#1E8346" d="M116.342,182.252c-0.321,0.001-0.231,0.493-0.129,0.372C116.184,182.458,116.429,182.424,116.342,182.252z
			"/>
		<path fill="#1E8346" d="M116.471,182.488c0.042,0.138,0.275,0.383,0.366,0.169c0.108-0.092,0.273,0.162,0.29-0.101
			c0.133-0.272,0.02-0.54-0.068-0.802c-0.012-0.088,0.035-0.392-0.128-0.267C117.014,181.889,116.487,182.136,116.471,182.488z"/>
		<path fill="#1E8346" d="M117.8,181.827c-0.022-0.021-0.039-0.053-0.086-0.019C117.557,182.259,118.047,182.25,117.8,181.827z"/>
		<path fill="#1E8346" d="M116.992,179.295c-0.014,0.02-0.024,0.041-0.037,0.082c0.106,0.087,0.124,0.252,0.207,0.349
			C117.286,179.594,117.166,179.319,116.992,179.295z"/>
		<path fill="#1E8346" d="M114.529,179.584c0.567-0.684-0.74-0.196-0.399,0.211C114.271,179.788,114.417,179.672,114.529,179.584z"
			/>
		<path fill="#1E8346" d="M114.274,180.226c0.009,0.292,0.328,0.009,0.465-0.029c0.092-0.127-0.536-0.351-0.59-0.2
			C114.234,180.052,114.265,180.132,114.274,180.226z"/>
		<path fill="#1E8346" d="M113.125,178.589c0.047,0.429,0.338,0.007,0.11-0.156C113.201,178.491,113.147,178.524,113.125,178.589z"
			/>
		<path fill="#1E8346" d="M113.757,178.027c0.168-0.019,0.192-0.203,0.293-0.293c0.791,0.527,0.747-0.998,0.606-1.489
			c0.139-0.164,0.147-0.333,0.171-0.549c0.096-0.123,0.242-0.26,0.197-0.44c-0.205-0.16-0.15-0.918-0.514-0.553
			c-0.122,0.625-0.184,1.346-0.542,1.883C113.828,177.034,113.871,177.517,113.757,178.027z"/>
		<path fill="#1E8346" d="M112.739,175.489c0.232-0.27-0.567-0.469-0.186-0.774c0.207-0.035,0.309-0.509,0.03-0.244
			c-0.133,0.216-0.349,0.025-0.442,0.221c0.057,0.172,0.01,0.302-0.028,0.473c0.008,0.116,0.161,0.179,0.063,0.307
			c-0.225,0.219,0.043,0.344,0.234,0.444C112.66,175.965,112.393,175.537,112.739,175.489z"/>
		<path fill="#1E8346" d="M114.455,174.462c0.076,0.193,0.549-0.161,0.196-0.479c-0.033-0.125,0.154-0.192,0.103-0.329
			c-0.148-0.185-0.253-0.286-0.404-0.059c0.044,0.159-0.107,0.553,0.113,0.557C114.622,174.143,114.513,174.382,114.455,174.462z"/>
		<path fill="#1E8346" d="M115.932,174.376c0.186-0.17,0.253-0.394-0.086-0.283C115.861,174.168,115.794,174.428,115.932,174.376z"
			/>
		<path fill="#1E8346" d="M116.468,176.89c0.236,0.049,0.268,0.341,0.441,0.458c0.066-0.222,0.029-0.475,0.068-0.698
			c0.162-0.153,0.323-0.24,0.114-0.461c0.081-0.879,0.422-1.946-0.889-1.506c-0.155,0.191-0.74-0.111-0.656,0.233
			c0.133,0.075-0.102,0.218-0.075,0.346c-0.018,0.13,0.215,0.098,0.225,0.217c-0.106,0.197-0.344,0.403-0.043,0.579
			C115.859,176.403,115.962,176.898,116.468,176.89z"/>
		<path fill="#1E8346" d="M116.664,178.463c0.194-0.133,0.419-0.597,0.061-0.54C116.713,178.077,116.43,178.4,116.664,178.463z"/>
		<path fill="#1E8346" d="M106.875,174.635c-0.008-0.015-0.029-0.051-0.064-0.052C106.421,174.687,107.171,175.132,106.875,174.635z
			"/>
		<path fill="#1E8346" d="M107.361,174.577c-0.063-0.089-0.201-0.12-0.292-0.054C107.014,174.844,107.668,174.923,107.361,174.577z"
			/>
		<path fill="#1E8346" d="M108.957,173.774c-0.359-0.032-0.452,0.251-0.213,0.494C108.799,174.216,109.001,173.843,108.957,173.774z
			"/>
		<path fill="#1E8346" d="M112.071,173.125c-0.063-0.167-0.335-0.221-0.37-0.035C111.759,173.167,112.143,173.284,112.071,173.125z"
			/>
		<path fill="#1E8346" d="M114.432,172.916c-0.012-0.006-0.027,0-0.063-0.018c-0.248-0.02-0.114,0.485,0.016,0.34
			C114.331,173.107,114.505,173.025,114.432,172.916z"/>
		<path fill="#1E8346" d="M108.85,172.182c-0.198-0.01-0.138,0.316,0.035,0.235c0.038-0.119,0.188-0.164,0.19-0.3
			C109.015,172.121,108.917,172.163,108.85,172.182z"/>
		<path fill="#1E8346" d="M115.904,170.589c-0.276-0.279,0.003,0.467,0.024,0.253C116.023,170.762,115.998,170.661,115.904,170.589z
			"/>
		<path fill="#1E8346" d="M113.337,170.848c-0.248-0.38,0.168-1.13-0.619-1.013c0.01,0.352-0.483,0.618-0.202,0.976
			C112.734,171.104,113.435,171.498,113.337,170.848z"/>
		<path fill="#1E8346" d="M113.046,168.732c-0.425-0.433-0.52,0.415-0.817,0.493c-0.401-0.285-0.383-0.587-0.78-0.073
			c-0.014,0.168,0.21-0.018,0.252,0.06c0.028,0.136-0.109,0.277-0.025,0.404c0.187,0.166,0.407,0.62,0.479,0.144
			c0.264-0.131,0.441-0.437,0.739-0.505c0.12,0.056,0.29,0.238,0.412,0.074C113.119,169.157,112.993,168.99,113.046,168.732z"/>
		<path fill="#1E8346" d="M115.724,169.93c0.051-0.211-0.051-0.507-0.243-0.23c0.082,0.152,0.112,0.334,0.203,0.481
			C115.682,170.098,115.723,170.014,115.724,169.93z"/>
		<path fill="#1E8346" d="M116.592,169.047c-0.087-0.04-0.127-0.201-0.243-0.126c-0.278,0.311-0.543,0.773,0.106,0.553
			C116.466,169.334,116.742,169.142,116.592,169.047z"/>
		<path fill="#1E8346" d="M116.869,167.984c0.001-0.12-0.047-0.245-0.217-0.237c-0.11,0.289-0.144,0.592-0.236,0.884
			c0.049,0.235,0.411,0.632,0.588,0.299C116.92,168.623,116.748,168.353,116.869,167.984z"/>
		<path fill="#1E8346" d="M114.167,167.438c0.053,0.658-0.021,0.555,0.561,0.305C114.785,167.436,114.407,167.139,114.167,167.438z"
			/>
		<path fill="#1E8346" d="M110.662,166.974c-0.085-0.16-0.228-0.013-0.302,0.083c0.115,0.063,0.111,0.334,0.237,0.304
			C110.714,167.216,110.891,167.148,110.662,166.974z"/>
		<path fill="#1E8346" d="M110.783,165.048c-0.156-0.282-0.11-0.343-0.392-0.151C110.373,165.141,110.976,165.476,110.783,165.048z"
			/>
		<path fill="#1E8346" d="M114.98,162.21c-0.388-0.364-0.31-0.983-0.662-1.338c-0.079,0.875,0.211,1.764,0.485,2.619
			C114.826,163.013,114.814,162.606,114.98,162.21z"/>
		<path fill="#1E8346" d="M115.888,168.989c0.327-0.619,0.886-1.427,0.488-2.14c-0.152,0.167-0.226,0.4-0.382,0.563
			c-0.261-0.052-0.449-0.497-0.269-0.67c0.112-0.075,0.154-0.064,0.082-0.204c-0.158-0.515-1.273-0.405-0.975,0.307
			c0.138,0.667,0.351,1.344,0.195,2.045C114.63,169.942,115.543,169.664,115.888,168.989z"/>
		<path fill="#1E8346" d="M111.153,155.204c0.169-0.052,0.271-0.572-0.017-0.567C111.143,154.823,111.106,155.027,111.153,155.204z"
			/>
		<path fill="#1E8346" d="M110.123,151.5c-0.062,0.016-0.105,0.043-0.173,0.05c0.008,0.127-0.005,0.259,0.028,0.384
			C110.09,151.906,110.384,151.418,110.123,151.5z"/>
		<path fill="#1E8346" d="M113.901,155.638c0.144-0.243,0.287-0.733,0.19-0.997C113.92,154.894,113.577,155.372,113.901,155.638z"/>
		<path fill="#1E8346" d="M107.9,130.403c0.308-0.265,0.042-0.544,0.169-0.846c0.55-0.769-0.216-0.78-0.843-0.836
			c-0.673,0.281-0.641,0.521-0.272,1.094c0.11,0.22,0.012,0.419-0.083,0.613c0.028,0.643,0.625,1.104,0.771,1.693
			C107.956,131.572,107.852,130.972,107.9,130.403z"/>
		<path fill="#1E8346" d="M108.242,130.565c-0.391,0.262-0.254,0.843-0.149,1.205C108.38,131.482,108.217,130.965,108.242,130.565z"
			/>
		<path fill="#1E8346" d="M102.141,121.666c-0.015-0.02-0.044-0.078-0.111-0.076C101.866,121.933,102.293,122.039,102.141,121.666z"
			/>
		<path fill="#1E8346" d="M84.095,136.186c-0.149,0.067-0.33,0.279-0.114,0.386C84.156,136.58,84.354,136.253,84.095,136.186z"/>
		<path fill="#1E8346" d="M79.784,133.144c0.403-0.371,0.972-1.707,0.398-1.883c-0.807,0.657-1.17,1.933-2.194,2.304
			c-0.416,0.29,0,1.107,0.13,1.538c0.207-0.141,0.134-0.418,0.21-0.607c0.263-0.195,0.399-0.468,0.633-0.679
			C79.385,133.749,79.666,133.577,79.784,133.144z"/>
		<path fill="#1E8346" d="M73.984,105.797c-0.03-0.406-0.595-0.105-0.34,0.192C73.746,106.365,74.218,106.088,73.984,105.797z"/>
		<path fill="#1E8346" d="M72.143,107.48c-0.062,0.103-0.248,0.345,0.038,0.293C72.256,107.702,72.313,107.473,72.143,107.48z"/>
		<path fill="#1E8346" d="M71.747,105.847c0.015-0.251,0.037-0.544-0.02-0.791c-0.42,0.275-0.837-0.036-1.186-0.268
			c-0.286-0.084-0.48,0.237-0.738,0.297c-0.193,0.045-0.4-0.049-0.52,0.199C69.87,106.533,72.072,108.661,71.747,105.847z"/>
		<path fill="#1E8346" d="M70.842,100.419c0.241,0.479,0.517-0.563,0.003-0.137C70.85,100.333,70.823,100.37,70.842,100.419z"/>
		<path fill="#1E8346" d="M69.665,96.743c-0.209,0.151,0.099,0.293,0.191,0.4c-0.019-0.262,0.174-0.278,0.295-0.433
			C70.271,96.24,69.731,96.421,69.665,96.743z"/>
		<path fill="#1E8346" d="M69.366,97.007c0.222-0.064-0.581-0.878-0.747-0.456C68.795,96.773,69.049,97.113,69.366,97.007z"/>
		<path fill="#1E8346" d="M69.729,94.764c-0.505,0.262-0.671-0.204-1.1-0.374c-0.317,0.243-0.053,0.519,0.129,0.743
			c-0.06,0.471,0.299,1.46,0.883,1.139c-0.158-0.298-0.367-0.681-0.159-1.03C69.781,95.306,69.772,94.97,69.729,94.764z"/>
		<path fill="#1E8346" d="M64.917,94.679c-0.287-0.315-0.463-2.032-0.972-1.418c0.126,0.635,0.579,1.187,0.908,1.685
			c-0.111,0.135,0,0.387,0.156,0.453C65.105,95.205,64.99,94.892,64.917,94.679z"/>
	</g>
</g>
</svg>
