<?xml version="1.0" encoding="utf-8"?>
<!-- Generator: Adobe Illustrator 26.0.3, SVG Export Plug-In . SVG Version: 6.00 Build 0)  -->
<svg version="1.1" xmlns="http://www.w3.org/2000/svg" xmlns:xlink="http://www.w3.org/1999/xlink" x="0px" y="0px"
	 viewBox="0 0 200 200" enable-background="new 0 0 200 200" xml:space="preserve">
<g id="Layer_1">
	<g id="Layer_1_00000110432935161414762060000003017208584760007313_">
		<g id="Layer_1_00000061442898653323928190000005571608892069918396_">
			<g id="Layer_1_00000098929087308412571940000004538787532203942811_">
			</g>
		</g>
	</g>
</g>
<g id="Ñëîé_1">
	<g>
		<path fill="#1E8346" d="M77.68,131.875c-0.003,0.087,0.303,0.281,0.37,0.335c0.087-0.396,0.398-0.347,0.729-0.393
			c0.505-0.071,0.609-0.123,0.987-0.471c-0.471-0.025-0.942-0.051-1.413-0.076C77.811,131.241,77.884,131.357,77.68,131.875z"/>
		<path fill="#1E8346" d="M77.737,153.968c-0.027-0.085-0.113-0.167-0.164-0.242c-0.447,0.353-0.519,0.311-0.36,0.847
			c0.151,0.509,0.282,0.857,0.222,1.378c-0.025,0.219,0.067,0.21,0.257,0.325c0.108,0.066,0.285-0.283,0.348-0.368
			c0.357-0.479,0.444-0.648,1.008-0.814C78.71,154.366,78.475,154.306,77.737,153.968z"/>
		<path fill="#1E8346" d="M76.62,151.581c-0.091-0.056-0.227-0.069-0.33-0.1c-0.002,0.224-0.133,0.998,0.039,1.128
			c0.114,0.087,0.402,0.222,0.423,0.37c0.048,0.336,0.034,0.298,0.374,0.261c0.359-0.039,0.374-0.554,0.28-0.846
			C77.224,151.831,77.167,151.822,76.62,151.581z"/>
		<path fill="#1E8346" d="M77.569,158.369c0.091,0.107,0.377,0.333,0.397,0.466c0.021,0.133-0.251,0.37-0.143,0.48
			c0.079,0.081,0.352,0.453,0.451,0.394c0.131-0.078,0.49-0.207,0.541-0.352c0.22-0.629,0.204-0.652-0.147-1.221
			C78.432,157.753,77.928,158.206,77.569,158.369z"/>
		<path fill="#1E8346" d="M77.35,128.508c-0.22,0.369-0.347,0.462-0.215,0.868c0.103,0.316,0.706,0.118,0.904,0.055
			c0.253-0.081,0.513-0.284,0.272-0.541C77.973,128.528,77.85,128.547,77.35,128.508z"/>
		<path fill="#1E8346" d="M80.062,131.095c0.211,0.028,0.421,0.055,0.632,0.083c-0.073-0.303-0.146-0.605-0.219-0.908
			C80.337,130.545,80.2,130.82,80.062,131.095z"/>
		<path fill="#1E8346" d="M78.254,136.019c-0.08-0.121-0.16-0.242-0.24-0.363c-0.418,0.516-0.364,0.457,0.084,0.947
			c0.435,0.475,0.59,0.338,1.237,0.238C79.012,136.195,78.964,136.18,78.254,136.019z"/>
		<path fill="#1E8346" d="M79.62,164.325c0.347-0.209,0.693-0.419,1.04-0.628c-0.296-0.011-0.591-0.023-0.887-0.034
			C79.522,163.654,79.628,164.114,79.62,164.325z"/>
		<path fill="#1E8346" d="M78.201,128.091c0.127,0.155,0.255,0.309,0.382,0.464c0.05-0.12,0.233-0.372,0.115-0.455
			C78.487,127.95,78.351,127.771,78.201,128.091z"/>
		<path fill="#1E8346" d="M83.572,163.798c-0.156-0.014-0.465,0.022-0.588-0.077c-0.143-0.115-0.366-0.386-0.541-0.434
			c-0.78-0.215-0.193,0.618-0.029,0.852c0.32,0.455,0.521,0.513,1.05,0.72c0.383,0.15,0.771,0.664,1.082,0.938
			C84.308,165.032,83.997,164.482,83.572,163.798z"/>
		<path fill="#1E8346" d="M78.238,133.086c0.387,0.35,0.452,0.364,0.973,0.37c0.657,0.008,0.572-0.005,0.661-0.657
			C79.295,132.83,78.8,132.944,78.238,133.086z"/>
		<path fill="#1E8346" d="M82.31,157.931c-0.023-0.486-0.046-0.972-0.069-1.459c-0.016-0.338-0.417-0.65-0.49-0.991
			c-0.193-0.906-0.134-2.076-1.291-2.12c-0.632-0.024-0.818-0.068-1.319,0.298c-0.245,0.179-0.031,0.938,0.152,1.128
			c0.506,0.526-0.109,0.496,0.033,1.065c0.168,0.674,0.523,0.296,0.843-0.093c-0.146,0.934-0.785,1.022-1.633,1.128
			c0.425,0.832,0.816,1.568,1.045,2.471c0.047,0.186,0.684,0.838,0.813,0.764c0.464-0.269,0.47-0.505,0.631-1.021
			c0.161,0.493,0.261,0.931,0.335,1.444c0.098,0.684,0.777,0.22,1.07,0.025c0.124-0.083,0.164-1.104,0.103-1.263
			C82.388,158.932,81.898,158.252,82.31,157.931z"/>
		<path fill="#1E8346" d="M82.369,164.855c-0.352,0.069-0.449-0.007-0.385,0.352c0.045,0.254,0.03,0.637,0.201,0.84
			c0.507,0.604,0.65,0.978,1.431,1.036c0.256,0.019,0.347-0.263,0.49-0.46c0.077-0.105-0.372-0.619-0.443-0.722
			C83.28,165.345,82.971,165.184,82.369,164.855z"/>
		<path fill="#1E8346" d="M79.827,136.457c0.165-0.169,0.33-0.337,0.495-0.506c-0.297-0.001-0.594-0.002-0.89-0.004
			C79.564,136.118,79.696,136.287,79.827,136.457z"/>
		<path fill="#1E8346" d="M76.883,136.109c0.007,0.575-0.093,0.629,0.484,0.686C77.305,136.365,77.412,136.007,76.883,136.109z"/>
		<path fill="#1E8346" d="M77.063,129.762c0.153,0.449,0.15,0.662,0.085,1.134c0.415-0.137,0.783-0.213,1.216-0.271
			c-0.099-0.191-0.239-0.683-0.413-0.797C77.778,129.714,77.277,129.778,77.063,129.762z"/>
		<path fill="#1E8346" d="M75.558,125.582c-0.115,0.113-0.231,0.226-0.346,0.338c0.157,0.149,0.338,0.456,0.56,0.389
			c0.332-0.1,0.664-0.199,0.996-0.299C76.296,125.659,76.146,125.605,75.558,125.582z"/>
		<path fill="#1E8346" d="M77.923,126.592c0.08,0.077,0.42,0.487,0.507,0.441c0.288-0.154,0.576-0.308,0.864-0.461
			C78.877,126.466,78.117,126.025,77.923,126.592z"/>
		<path fill="#1E8346" d="M74.31,131.17c-0.071,0.312-0.222,0.467,0.083,0.601c0.137,0.06,0.852,0.461,0.926,0.343
			c0.311-0.497,0.252-0.456-0.151-0.876C75.037,131.098,74.503,131.177,74.31,131.17z"/>
		<path fill="#1E8346" d="M75.82,130.833c0.404,0.404,0.419,0.262,0.894-0.037c-0.148-0.145-0.296-0.291-0.444-0.436
			C76.12,130.517,75.97,130.675,75.82,130.833z"/>
		<path fill="#1E8346" d="M79.937,126.845c-0.153,0.111-0.306,0.221-0.459,0.332c0.425,0.347,0.552,0.398,0.602,0.938
			c0.396-0.181,0.596-0.142,0.55-0.583C80.57,126.953,80.494,127.018,79.937,126.845z"/>
		<path fill="#1E8346" d="M79.792,130.71c0.013-0.349,0.027-0.697,0.04-1.046c-0.289,0.087-0.579,0.173-0.868,0.26
			C79.24,130.186,79.516,130.448,79.792,130.71z"/>
		<path fill="#1E8346" d="M79,135.665c0.02-0.25,0.039-0.499,0.059-0.749c-0.244,0.01-0.488,0.021-0.732,0.031
			C78.551,135.187,78.775,135.426,79,135.665z"/>
		<path fill="#1E8346" d="M80.262,150.803c-0.025-0.728,0.083-0.822-0.585-1.111c-0.47-0.204-0.285-0.915-0.302-1.391
			c-0.428,0.211-0.706,0.35-1.177,0.386c-0.37,0.028-0.835,0.334-0.461,0.646c0.687,0.574,1.087,1.238,1.584,1.986
			c0.037-0.106,0.159-0.182,0.202-0.287c0.133,0.113,0.266,0.226,0.399,0.338c-0.102,0.076-0.569,0.334-0.545,0.452
			c0.025,0.121,0.121,0.873,0.214,0.867c0.614-0.039,1.129-0.011,1.74,0.07c-0.113-0.389-0.226-0.778-0.339-1.167
			C80.892,151.246,80.525,151.039,80.262,150.803z"/>
		<path fill="#1E8346" d="M77.237,149.595c-0.256-0.077-0.956-0.426-1.01,0.098c-0.032,0.306-0.103,1.163,0.125,1.379
			c0.122,0.116,0.58,0.129,0.746,0.166c0.253,0.056,0.438,0.27,0.638,0.43c0.086,0.069-0.077,0.307-0.041,0.446
			c0.084,0.329,0.169,0.658,0.253,0.987c0.049,0.192,0.279,0.257,0.441,0.356c0.347,0.21,0.307,0.111,0.54-0.215
			c0.229-0.32,0.127-0.895-0.075-1.19C78.302,151.241,77.77,150.418,77.237,149.595z"/>
		<path fill="#1E8346" d="M81.107,164.527c0.073,0.283,0.146,0.566,0.219,0.849c0.473-0.352,0.247-1.001,0.024-1.418
			C81.268,164.148,81.188,164.337,81.107,164.527z"/>
		<path fill="#1E8346" d="M88.114,181.166c-0.131,0.086-0.262,0.172-0.393,0.258c0.309,0.095,0.618,0.189,0.927,0.284
			C88.595,181.66,88.09,181.184,88.114,181.166z"/>
		<path fill="#1E8346" d="M86.739,170.902c-0.078-0.172-0.325-0.974-0.498-0.973c-0.524,0.003-0.323,0.52-0.335,0.985
			c-0.016,0.618,1.204,1.358,1.77,1.221C87.437,171.635,87.117,171.31,86.739,170.902z"/>
		<path fill="#1E8346" d="M96.563,182.899c-0.161,0.039-0.787,0.299-0.915,0.224c-0.072-0.042-0.137-0.33-0.17-0.409
			c-0.05-0.121-0.302-0.174-0.415-0.225c-0.63-0.283-1.007-0.912-1.723-0.906c-0.604,0.005-1.241,0.422-1.76,0.063
			c-0.357-0.247-0.319-0.414-0.772-0.395c-0.477,0.02-0.637,0.213-0.585,0.687c0.027,0.253,0.655,0.321,0.817,0.501
			c0.193,0.214,0.104,0.676,0.416,0.755c0.306,0.078,0.604,0.085,0.811,0.327c0.163,0.191,0.508,0.79,0.756,0.837
			c0.707,0.136,1.372-0.148,1.979,0.228c0.147,0.091,0.135,0.585,0.326,0.778c0.384,0.388,0.426,0.282,0.946,0.101
			c-0.298-0.518-0.097-0.492,0.357-0.856c0.332-0.266-0.04-0.588-0.264-0.757c0.418-0.152,0.641-0.136,1.085-0.087
			C97.195,183.203,97.131,183.138,96.563,182.899z"/>
		<path fill="#1E8346" d="M86.849,172.539c-0.096,0.03-0.191,0.123-0.276,0.179c0.28,0.278,0.558,0.775,1.011,0.61
			C87.439,172.707,87.462,172.696,86.849,172.539z"/>
		<path fill="#1E8346" d="M93.828,184.888c0.436,0.274,0.474,0.479,0.919,0.137C94.31,184.612,94.347,184.574,93.828,184.888z"/>
		<path fill="#1E8346" d="M92.173,180.677c-0.282-0.202-0.637-0.386-0.873-0.64c-0.379-0.408-0.518-0.36-1.083-0.382
			c-0.729-0.028-1.355-0.647-2.129-0.711c-0.803-0.066-1.26-0.818-1.745-1.38c-0.313-0.363-0.49-0.382-0.727-0.037
			c-0.145,0.211,0.126,0.821,0.248,1.054c0.204,0.389,0.253,0.751,0.693,0.825c0.405,0.068,0.697,0.139,1.07,0.303
			c0.37,0.162,0.684,0.232,0.911,0.564c0.217,0.318,0.536,0.577,0.97,0.36c0.593-0.298,1.519,0.327,2.124,0.576
			c0.188,0.077,0.828,0.188,0.982,0.083C93.027,181.012,92.454,180.67,92.173,180.677z"/>
		<path fill="#1E8346" d="M84.606,172.951c0.001,0.204,0.085,0.602,0.002,0.784c-0.117,0.256-0.493,0.23-0.213,0.572
			c0.476-0.208,0.509-0.366,0.739-0.839C85.374,172.976,85.041,172.833,84.606,172.951z"/>
		<path fill="#1E8346" d="M85.268,171.461c0.137,0.413,0.509,1.045,1.047,0.914C86.1,171.804,85.813,171.744,85.268,171.461z"/>
		<path fill="#1E8346" d="M86.354,173.426c0.201,0.34,0.378,0.59,0.649,0.875c0.035,0.037,0.876,1.007,0.926,0.463
			c0.059-0.649-0.047-0.624-0.569-1.026C87.05,173.499,86.63,172.896,86.354,173.426z"/>
		<path fill="#1E8346" d="M87.661,175.482c-0.543-0.127-0.741-0.097-1.276,0.069c0.395,0.385,0.824,0.003,1.167,0.248
			c0.125,0.089,0.118,0.418,0.28,0.556c0.197,0.168,0.367,0.286,0.595,0.41c0.127,0.069,0.358-0.377,0.436-0.483
			c0.147-0.201,0.02-0.365-0.053-0.599C88.651,175.17,88.147,175.433,87.661,175.482z"/>
		<path fill="#1E8346" d="M117.05,194.988c0.498,0.356,0.544,0.117,0.997-0.263C117.941,194.72,116.999,194.809,117.05,194.988z"/>
		<path fill="#1E8346" d="M97.332,185.271c-0.416,0.404-0.528,0.465-0.534,1.041c0.655-0.171,0.771-0.454,1.199-0.955
			C97.76,185.252,97.578,185.109,97.332,185.271z"/>
		<path fill="#1E8346" d="M118.505,193.17c0.267,0.539,0.141,0.53-0.266,0.975c-0.259,0.283,0.772,0.508,0.876,0.519
			c0.03-0.342,0.062-0.637,0.006-0.974C119.052,193.281,118.892,193.315,118.505,193.17z"/>
		<path fill="#1E8346" d="M112.123,187.455c-0.611-0.002-0.772-0.257-1.308-0.526c-0.468-0.236-1.019-0.427-1.519-0.585
			c-1.067-0.337-2.131-0.672-3.184-1.047c-0.162,0.298,0.024,0.447,0.197,0.675c-0.485,0.329-0.777,0.067-1.295-0.152
			c-0.571-0.24-1.107-0.491-1.654-0.783c-0.327-0.175-0.102,0.339-0.04,0.416c0.16,0.197,0.369,0.262,0.599,0.372
			c0.388,0.186,1.475,0.44,1.489,0.977c-0.203-0.008-0.554-0.096-0.734,0.043c0.013-0.01-0.201,0.741-0.406,0.329
			c-0.177-0.356-0.833-1.156-1.246-0.864c-0.284,0.201,0.068,0.422-0.089,0.626c-0.064,0.082-0.49,0.07-0.62,0.074
			c-0.523,0.017-1.243-0.111-1.698,0.205c0.421,0.408,0.267,0.536-0.259,0.42c-0.393-0.087-0.735,0.029-1.13,0.107
			c0.054,0.195,0.038,0.442,0.249,0.485c0.282,0.057,0.596,0.169,0.885,0.169c0.177,0,0.673,0.094,0.776-0.056
			c0.176-0.257,0.313-0.529,0.639-0.378c0.546,0.253,0.935,0.774,1.526,0.564c0.226-0.08,0.309,0.348,0.303,0.5
			c-0.013,0.342,0.243,0.379,0.526,0.55c-0.293,0.12-1.359,0.631-0.961,1.077c0.289,0.323,0.317,0.426,0.746,0.431
			c0.275,0.004,0.597,0.104,0.795,0.302c0.144,0.144,0.464,0.609,0.671,0.617c0.209,0.008,0.854-0.038,0.444-0.342
			c-0.52-0.385-1.164-0.553-1.322-1.2c0.279-0.072,0.719,0.335,0.889,0.232c0.283-0.172,0.564-0.272,0.624-0.635
			c-0.434-0.105-0.68-0.206-1.052-0.456c0.873-0.273,2.232-1.03,3.122-0.787c0.812,0.221,1.625,0.443,2.437,0.664
			c0.56,0.153,1.08,0.228,0.949-0.526c0.338,0.013,0.675,0.026,1.013,0.039C112.364,188.48,112.244,187.968,112.123,187.455z"/>
		<path fill="#1E8346" d="M104.422,183.419c-0.199-0.257-0.401-0.37-0.284-0.683c0.073-0.195-0.311-0.596-0.42-0.764
			c-0.147-0.227-0.14-0.554-0.184-0.816c-0.04-0.241-0.336-0.322-0.536-0.443c-0.104,0.526-0.219,0.935-0.437,1.423
			c-0.088,0.198,0.074,0.354,0.173,0.54c0.184,0.346,0.085,0.363-0.141,0.692c-0.649,0.945,1.448,1.168,1.833,1.594
			c0.111-0.118,0.223-0.235,0.334-0.353c-0.31-0.23-0.619-0.459-0.929-0.689C104.028,183.752,104.225,183.586,104.422,183.419z"/>
		<path fill="#1E8346" d="M84.623,170.853c-0.385-0.411-0.532-0.432-0.79,0.11c-0.151,0.316,0.244,0.83,0.307,1.141
			c0.071,0.355,0.898,0.081,0.902-0.153C85.053,171.344,85.053,171.276,84.623,170.853z"/>
		<path fill="#1E8346" d="M118.496,189.658c-0.886-0.254-1.707-0.269-2.628-0.23c-0.482,0.021-0.909-0.023-1.39-0.083
			c-0.542-0.068-0.797,0.039-1.322,0.23c-0.386,0.14-0.761,0.195-1.168,0.263c-0.384,0.064-0.971,0.286-1.357,0.214
			c-0.962-0.178-1.851-0.248-2.766,0.128c0.297,0.274,0.353,0.468,0.733,0.32c0.388-0.151,0.589,0.051,0.96,0.236
			c-0.668,0.202-1.314,0.4-1.958,0.667c-0.429,0.178,0.287,0.629,0.381,0.696c0.347,0.249,0.541-0.08,0.868-0.315
			c-0.102,0.2-0.205,0.4-0.307,0.6c0.163,0.061,0.467,0.107,0.594,0.223c0.188,0.17,0.06,0.465,0.357,0.36
			c0.561-0.199,0.781,0.013,1.324,0.27c0.356,0.169,0.801-0.147,0.603-0.572c-0.059-0.127-0.489-0.277-0.616-0.349
			c-0.069-0.039,0.035-0.392,0.114-0.397c0.761-0.045,0.837-0.184,1.09,0.538c0.133,0.38,0.592,0.613,0.938,0.461
			c1.168-0.512,1.34,0.903,2.34,0.911c0.023-0.59,0.082-0.673-0.358-1.05c-0.416-0.356-0.714-0.516-1.226-0.72
			c0.111-0.075,0.186-0.202,0.295-0.281c-0.419-0.344-0.768-0.397-1.301-0.523c-0.182-0.043-0.275,0.096-0.432-0.023
			c-0.234-0.177-0.468-0.354-0.701-0.53c0.347-0.036,0.701-0.098,1.05-0.108c0.583-0.017,0.632-0.089,1.092-0.496
			c0.712-0.63,1.157,0.775,1.461,1.194c0.086,0.119,0.884,0.062,1.042,0.022c0.36-0.09,0.637-0.587,1.011-0.414
			c0.282,0.13,0.617,0.694,0.833,0.575c0.379-0.21,0.675-0.412,1.005-0.692C118.648,190.381,118.603,190.224,118.496,189.658z"/>
		<path fill="#1E8346" d="M101.256,190.457c0.576,0.523,0.513,0.542,1.081,0.011C101.891,190.101,101.791,190.25,101.256,190.457z"
			/>
		<path fill="#1E8346" d="M101.943,184.557c-0.405,0.055-0.515,0.129-0.828,0.393c-0.334-0.484-0.402-0.536-0.962-0.696
			c-0.28-0.08-0.561-0.16-0.841-0.241c-0.19-0.054-0.251,0.203-0.425,0.211c-0.269,0.013-0.539,0.025-0.808,0.038
			c-0.371,0.017-0.359-0.029-0.36,0.35c0,0.175,0.371,0.226,0.483,0.341c0.159,0.163,0.26,0.457,0.374,0.657
			c0.445-0.381,0.542-0.311,1.127-0.212c0.613,0.104,0.277,0.669,0.914,0.158c0.368,0.548,0.805,0.73,1.378,0.367
			c0.316-0.2-0.182-0.359-0.04-0.595C102.178,184.956,102.45,184.767,101.943,184.557z"/>
		<path fill="#1E8346" d="M101.294,189.454c0.132,0.176,0.241,0.272,0.45,0.274c0.371,0.004,0.322-0.003,0.375-0.374
			c0.022-0.155-0.41-0.282-0.54-0.349C101.485,188.958,101.342,189.361,101.294,189.454z"/>
		<path fill="#1E8346" d="M79.636,121.45c-0.468-0.464-0.928-0.739-0.995-1.401c0.575-0.012,0.841,0.173,1.349,0.455
			c0.16-0.512-0.973-1.067-1.291-1.291c0.321,0.1,0.641,0.201,0.962,0.301c0.035-0.616-0.139-1.045-0.09-1.635
			c0.026-0.314,0.089-0.475-0.088-0.727c-0.149-0.212-0.388-0.754-0.627-0.859c-0.47-0.206-1.19-0.571-1.731-0.402
			c-0.137,0.043-0.579,0.388-0.643,0.514c-0.212,0.42,0.157,0.508,0.241,0.837c0.053,0.211-0.042,0.594-0.219,0.71
			c-0.351,0.229-0.392,0.294-0.534,0.691c-0.081,0.225,0.033,0.551,0.211,0.718c0.275,0.259,0.324,0.608,0.44,0.965
			c0.194,0.598,0.107,1.319,0.127,1.942c0.024,0.727-0.094,0.956-0.455,1.609c0.376,0.163,0.786,0.446,1.202,0.425
			c0.473-0.024,1.251,0.177,1.291-0.36c0.045-0.601-0.126-0.791,0.229-1.307c0.281-0.408,0.817,0.427,1.147-0.005
			c-0.306-0.283-0.613-0.566-0.919-0.849C79.374,121.671,79.505,121.561,79.636,121.45z"/>
		<path fill="#1E8346" d="M82.674,170.168c0.075,0.198,0.19,0.385,0.371,0.501c-0.379,0.284-0.687,0.496-0.51,0.976
			c0.185,0.501,0.549,0.589,1.043,0.697c-0.14-0.215-0.28-0.43-0.42-0.644c0.408-0.256,0.639-0.49,0.517-1.044
			C83.537,170.03,83.178,170.135,82.674,170.168z"/>
		<path fill="#1E8346" d="M79.742,133.636c-0.259,0.126-0.518,0.252-0.777,0.377c0.425,0.336,0.485,0.441,0.635,0.967
			c0.119,0.415,0.533,0.694,0.84,0.329c0.395-0.47,0.286-0.783,0.263-1.404C80.687,133.48,80.112,133.651,79.742,133.636z"/>
		<path fill="#1E8346" d="M81.289,128.969c0.276,0.553,0.49,0.405,1.096,0.388C81.989,129.047,81.758,128.636,81.289,128.969z"/>
		<path fill="#1E8346" d="M83.512,129.833c-0.673-0.141-1.558-0.308-1.859,0.461c-0.165,0.422-0.346,0.701-0.253,1.141
			c0.086,0.407,0.083,0.808,0.096,1.224c0.39-0.347,0.561-0.683,1.098-0.479c0.444,0.168,0.851,0.384,1.119-0.146
			c0.128-0.253,0.712-0.807,0.553-0.979C83.859,130.615,83.675,130.403,83.512,129.833z"/>
		<path fill="#1E8346" d="M80.639,118.557c0.246,0.202,0.492,0.404,0.738,0.606c0.249-0.316,0.414-0.343,0.118-0.632
			C81.19,118.231,81.035,118.411,80.639,118.557z"/>
		<path fill="#1E8346" d="M81.536,127.515c0.439-0.358,0.507-0.388,0.529-0.95c-0.224,0.125-0.448,0.251-0.672,0.376
			C81.163,127.069,81.431,127.317,81.536,127.515z"/>
		<path fill="#1E8346" d="M82.604,167.426c-0.479-0.432-0.514-0.541-1.146-0.42c0.224,0.367,0.493,0.555,0.272,0.938
			c-0.221,0.384-0.373,0.596-0.708,0.88c0.498,0.357,0.779,0.223,1.394,0.139c0.225-0.031,0.445-0.041,0.672-0.051
			c0.136-0.006,0.272-0.012,0.409-0.019c0.107-0.005,0.067-0.225,0.143-0.246c0.15-0.042,0.673,0.104,0.693-0.071
			c0.04-0.368,0.065-0.354-0.233-0.551C83.53,167.649,83.279,167.403,82.604,167.426z"/>
		<path fill="#1E8346" d="M106.952,172.076c-0.485-0.58-1.295-0.385-2.03-0.413c-1.149-0.044-2.298-0.088-3.446-0.132
			c-0.654-0.025-1.28,0.071-1.931,0.147c-0.53,0.062-1.06,0.124-1.59,0.185c-0.359,0.042-0.563-0.285-0.891-0.389
			c-0.474-0.149-1.999,0.101-2.179-0.383c-0.345-0.93-0.652-1.834-0.913-2.791c-0.103-0.379-0.52-0.611-0.806-0.866
			c-0.266-0.237-0.202-0.553-0.232-0.906c-0.075-0.898-0.126-1.741-0.091-2.64c-0.848-0.003-1.869,0.111-2.518,0.732
			c-0.506,0.484-0.55,0.597-1.24,0.557c-0.437-0.025-0.451-0.345-0.644-0.731c-0.463-0.926-1.132-1.902-1.446-2.889
			c-0.296-0.929-0.136-1.667,0.046-2.585c0.192-0.966,0.204-1.98,0.834-2.748c0.638-0.778,1.359-1.397,2.115-2.063
			c0.224-0.197,0.259-0.865,0.331-1.143c0.102-0.397,0.268-0.777,0.199-1.183c-0.181-1.063-0.37-2.038-0.7-3.062
			c-0.224-0.695-0.003-1.943,0.526-2.456c0.284-0.276,0.757-0.491,0.593-0.885c-0.229-0.552-0.459-1.104-0.688-1.657
			c-0.065-0.157,0.054-0.899,0.176-1.004c0.344-0.296,0.849-0.493,0.73-0.96c-0.265-1.042-0.433-2.001-0.552-3.071
			c-0.05-0.451-0.101-0.693-0.3-1.098c-0.202-0.413-0.474-0.924-0.194-1.396c0.192-0.323,0.838-0.618,1.145-0.844
			c0.217-0.16-0.001-0.973-0.127-1.198c-0.181-0.323-0.415-1.053-0.719-1.264c-0.463-0.321-0.927-0.642-1.39-0.963
			c-0.292-0.203-0.933-0.053-1.189,0.141c-0.102,0.077-0.381-0.289-0.465-0.37c-0.188-0.181,0.064-0.425,0.173-0.635
			c0.151-0.291,0.931-0.093,1.226-0.08c0.596,0.027,0.749,0.116,1.161-0.291c0.4-0.395,0.68-0.519,0.665-1.074
			c-0.011-0.38-0.169-1.06-0.731-0.733c-0.569,0.331-0.687,0.289-1.334,0.152c-0.156-0.033-0.275-1.303-0.309-1.487
			c-0.16-0.867-0.83-1.569-0.843-2.454c-0.007-0.492,0.01-0.943,0.063-1.432c0.086-0.788,0.054-0.686-0.697-0.95
			c-0.643-0.226-0.619-0.239-0.819-0.899c-0.13-0.428-0.163-0.724-0.174-1.171c-0.015-0.638-0.03-1.277-0.045-1.915
			c-0.014-0.612,0.056-0.551,0.619-0.863c0.679-0.375,0.923-1.696,0.097-2.116c-0.584-0.297-0.671-0.266-0.772-0.89
			c-0.075-0.459-0.211-0.946-0.222-1.411c-0.02-0.907-0.152-1.878-0.032-2.778c0.081-0.606,0.162-1.211,0.243-1.817
			c0.05-0.371,0.228-0.831,0.027-1.162c-0.202-0.332-0.642-0.804-0.681-1.195c-0.027-0.27-0.268-1.154-0.091-1.354
			c0.552-0.622,1.578-1.365,1.708-2.207c0.088-0.572,0.177-1.145,0.265-1.717c0.05-0.321,0.844-0.461,1.126-0.573
			c0.129-0.051,0.779-0.646,0.747-0.711c-0.173-0.341-0.347-0.682-0.52-1.023c-0.58-1.142-1.16-2.283-1.741-3.425
			c-0.362-0.712,0.168-1.405,0.197-2.174c0.041-1.085,0.068-2.169,0.097-3.254c0.018-0.69,0.548-1.691,1.064-2.142
			c0.155-0.135,1.033-0.73,1.013-0.911c-0.044-0.389,0.023-1.119-0.175-1.451c-0.271-0.452-0.541-0.904-0.812-1.356
			c-0.311-0.52-0.784-0.274-0.321-0.848c0.183-0.227,0.817-0.767,0.78-1.068c-0.042-0.344-0.325-1.227-0.174-1.53
			c0.237-0.477,0.473-0.954,0.71-1.432c0.158-0.318,0.907-0.168,0.95-0.444c0.152-0.982,0.286-1.815,0.204-2.799
			c-0.052-0.624-0.104-1.247-0.156-1.871c-0.039-0.465-0.42-0.474-0.638-0.856c-0.429-0.753-0.182-1.853-0.597-2.646
			c-0.421-0.804-1.156-1.648-1.463-2.481c-0.187-0.506-0.125-0.749-0.457-1.196c-0.353-0.476-0.446-0.67-0.553-1.246
			c-0.069-0.37-0.31-0.969-0.241-1.342c0.067-0.366,0.051-1.222,0.277-1.505c0.238-0.297,1.03-0.169,1.256-0.473
			c0.2-0.269,0.071-1.279,0.09-1.618c0.027-0.488,0.251-0.624,0.593-0.992c0.311-0.335,0.214-0.937,0.247-1.378
			c0.039-0.523,0.002-0.631-0.252-1.096c-0.223-0.408-0.45-0.699-0.455-1.158c-0.007-0.62-0.015-1.239-0.022-1.859
			c-0.006-0.543,0.381-0.422,0.62-0.858c0.175-0.319,0.14-0.961,0.191-1.317c0.08-0.549,0.159-1.098,0.239-1.646
			c0.041-0.281,0.654-0.757,0.847-0.978c0.263-0.301,0.41-0.834,0.582-1.191c0.23-0.477,0.461-0.954,0.691-1.432
			c0.173-0.358,0.767-0.692,1.066-0.952c0.292-0.253,0.697-0.283,1.011-0.495c0.189-0.128,0.353-0.354,0.513-0.516
			c0.264-0.265,0.072-0.295-0.175-0.559c-0.24-0.256,0.076-0.904-0.082-1.22c-0.086-0.172-0.163-0.458-0.314-0.581
			c-0.201-0.164-0.516-0.278-0.44-0.547c0.185-0.655,0.31-0.706,0.888-1.075c0.2-0.127,0.233-0.967,0.084-1.154
			c-0.209-0.261-0.807-0.763-0.855-1.09c-0.054-0.367-0.338-1.136-0.126-1.451c0.394-0.586,0.524-0.657,0.343-1.329
			c-0.072-0.267-0.978-0.755-0.921-0.907c0.085-0.225,0.211-0.927,0.432-1.024c0.4-0.175,0.8-0.35,1.199-0.525
			c1.192-0.522,2.383-1.043,3.575-1.565c0.761-0.333,0.698-0.782,0.937-1.602c0.305-1.042,0.609-2.085,0.914-3.127
			c0.029-0.101-0.439-1.076-0.537-1.122c-0.129-0.061-0.521,0.067-0.667,0.086c-0.184,0.024-0.221,0.431-0.375,0.515
			c-0.086,0.047-1.196-0.014-1.21-0.051c-0.091-0.251-0.183-0.503-0.274-0.754c-0.437-1.203-0.875-2.406-1.312-3.609
			c-0.401-1.103-0.802-2.207-1.203-3.31c-0.262-0.72-0.945-1.142-1.501-1.656c-0.27-0.25-0.596-0.486-0.812-0.787
			c-0.385-0.534-0.607-0.59-0.298-1.15c0.289-0.524,0.578-1.048,0.867-1.572c0.185-0.336-0.336-0.706-0.173-1.041
			c0.223-0.459,0.549-0.852,0.432-1.356c-0.113-0.487-0.524-0.676-0.912-0.986c-0.617-0.493-1.687-1.159-1.794-2.023
			c-0.064-0.52-0.101-1.028-0.262-1.526C88.76,6.739,88.924,6.43,88.978,6.24c0.071-0.252-0.002-0.504-0.036-0.763
			c-0.043-0.332-0.532-0.62-0.782-0.84c-0.58-0.511-0.565-0.602-0.608-1.381c-0.013-0.239-0.569-0.268-0.781-0.321
			c-0.145-0.036-0.499,0.604-0.576,0.772c-0.204,0.444-0.331,0.475,0.018,0.805c0.415,0.392,0.555,0.361,0.29,0.867
			c-0.18,0.344-0.435,0.415-0.783,0.598c-0.287,0.151-0.612-0.119-0.822-0.002c-0.682,0.38-1.335,0.681-2.062,0.967
			c0.767,0.721,0.164,1.546,0.29,2.436c0.148,1.046,0.35,2.075,0.552,3.113c0.178,0.915,0.264,1.718-0.056,2.615
			c-0.126,0.354-0.615,0.529-0.549,0.884c0.089,0.476,0.137,0.985,0.282,1.448c0.151,0.479,0.285,0.968,0.454,1.442
			c0.131,0.368,0.536,0.927,0.521,1.313c-0.039,1.027,0.047,1.919-0.457,2.827c-0.192,0.345-0.091,0.798-0.084,1.186
			c0.011,0.597,0.022,1.194,0.032,1.792c0.01,0.546,0.06,0.702-0.418,0.94c-0.306,0.152-0.876,0.31-0.868,0.673
			c0.01,0.452-0.126,1.164,0.125,1.552c0.195,0.3,0.158,0.278,0.467,0.091c0.35-0.212,0.326-0.146,0.631,0.13
			c-0.263,0.208-0.553,0.308-0.563,0.649c-0.018,0.602-0.037,1.205-0.055,1.807c-0.029,0.946-0.181,1.862,0.135,2.756
			c0.337,0.954,0.545,1.801,0.352,2.816c-0.1,0.524-0.258,0.735-0.58,1.172c-0.351,0.477-0.306,0.798-0.329,1.401
			c-0.013,0.341,0.514,0.965,0.68,1.264c0.187,0.338-0.106,0.699-0.137,1.066c-0.048,0.566-0.096,1.133-0.145,1.699
			c-0.034,0.402-0.513,0.672-0.526,1.022c-0.018,0.468-0.091,0.916,0.058,1.362c0.179,0.534,0.081,0.786-0.252,1.212
			c-0.402,0.515-0.448,0.677-0.511,1.333c-0.043,0.445-0.534,0.69-0.465,1.118c0.1,0.623,0.265,1.114-0.045,1.698
			c-0.334,0.627-0.74,1.168-0.767,1.881c-0.021,0.544,0.702,0.9,0.754,1.428c0.079,0.8,0.15,1.133,0.584,1.806
			c-0.499,0.293-0.649,0.38-0.891,0.896c-0.094,0.201-0.223,0.305-0.083,0.48c0.063,0.079,0.519,0.573,0.463,0.63
			c-0.376,0.381-0.59,0.63-1.092,0.802c-0.316,0.108-0.261,0.918-0.205,1.241c0.172,0.99,0.267,1.802,0.626,2.749
			c0.155,0.407,0.419,0.87,0.494,1.301c0.04,0.228,0.074,1.211-0.083,1.362c-0.357,0.346-0.528,0.578-0.331,1.115
			c0.156,0.426,0.599,0.861,0.86,1.236c0.167,0.241,0.021,1.049,0.023,1.349c0.003,0.437-0.335,0.82-0.316,1.268
			c0.019,0.439,0.239,0.771,0.129,1.208c-0.113,0.453-0.413,0.836-0.17,1.256c0.283,0.489,1.518,1.596,1.042,2.237
			c-0.351,0.472-0.544,0.633-1.067,0.906c-0.223,0.116-0.676,0.957-0.686,1.215c-0.012,0.31,0.086,0.369,0.29,0.606
			c0.089,0.104-0.127,0.475-0.171,0.591c-0.146,0.39-0.669,0.706-0.683,1.068c-0.019,0.503-0.089,0.986-0.161,1.485
			c-0.064,0.447-0.446,0.694-0.424,1.158c0.023,0.478-0.204,0.722-0.268,1.189c-0.019,0.137,0,0.502-0.108,0.599
			c-0.125,0.112-0.507,0.341-0.489,0.515c0.033,0.304,0.071,0.418,0.234,0.676c0.155,0.246,0.002,0.295-0.179,0.519
			c-0.367,0.455-0.316,0.834-0.355,1.422c-0.039,0.591-0.134,0.701-0.617,0.978c-0.197,0.113-0.131,0.304-0.139,0.526
			c-0.012,0.325-0.108,0.447-0.286,0.728c-0.259,0.407-0.019,0.878,0.129,1.265c0.2,0.523-0.042,0.919-0.348,1.293
			c-0.337,0.411-0.703,0.223-1.068-0.051c-0.419-0.315-0.872,0.043-0.891,0.504c-0.025,0.601,0.122,1.256,0.114,1.873
			c-0.007,0.549,0.567,1.054,0.969,1.385c0.529,0.436,0.711,0.789,0.577,1.509c-0.03,0.159-0.23,0.712-0.148,0.851
			c0.182,0.307,0.364,0.614,0.546,0.922c0.325,0.549,0.67,1.061,0.876,1.664c0.09,0.264,0.343,0.423,0.545,0.611
			c0.137,0.128-0.002,0.847-0.01,1.033c-0.025,0.662-0.256,1.304-0.419,1.945c-0.049,0.194-0.418,0.345-0.388,0.465
			c0.112,0.449,0.098,0.578-0.056,1.015c-0.519-0.497-0.839-0.023-1.039,0.427c-0.247,0.558,0.28,1.025,0.655,1.333
			c0.131,0.108-0.413,1.375-0.481,1.581c-0.065,0.199,0.042,0.463,0.078,0.664c0.046,0.256-0.233,0.412-0.405,0.59
			c0.477,0.409,0.531,0.589,0.103,1.123c-0.113,0.141,0.537,0.983,0.636,1.135c0.284,0.438,0.542,1.013,0.912,1.383
			c0.38,0.38,0.488,0.904,0.974,1.114c0.7,0.302,0.9,0.405,1.635,0.262c0.195-0.038,0.529-0.001,0.55-0.222
			c0.031-0.326,0.062-0.652,0.093-0.978c0.046-0.484,0.962-0.233,1.16-0.001c0.107,0.126,0.387,0.602,0.548,0.513
			c0.26-0.145,0.494-0.151,0.791-0.184c-0.173,0.218-0.329,0.484-0.552,0.654c-0.222,0.169-0.774,0.437-0.896,0.684
			c-0.217,0.442,0.098,0.571,0.415,0.712c0.36,0.16,0.45,0.038,0.802-0.146c0.074,0.635,0.091,1.262,0.111,1.901
			c0.007,0.231,0.41,0.4,0.398,0.584c-0.03,0.459-0.585-0.134-0.642-0.265c-0.121-0.281-0.166-0.594-0.453-0.72
			c-0.285-0.125-0.501-0.157-0.594,0.253c-0.079,0.351,0.146,0.478,0.383,0.65c0.363,0.263,0.466,0.332,0.612,0.752
			c-0.415,0.109-0.977,0.175-0.963,0.683c0.021,0.785,0.147,0.852,0.724,1.394c-0.352,0.342-1.255,1.061-0.468,1.463
			c-0.173,0.158-0.738,0.506-0.791,0.723c-0.102,0.418,0.462,0.634,0.715,0.792c0.445,0.278,0.266,0.35,0.064,0.826
			c-0.13,0.307-0.056,0.725-0.213,1.016c-0.214,0.396-0.545,0.434-0.593,0.91c-0.026,0.263,0.273,0.583,0.543,0.603
			c0.514,0.038,0.676,0.009,1.038,0.362c0.143,0.14,0.293,0.817,0.318,0.822c0.522,0.102,0.674,0.076,0.96,0.514
			c0.194,0.297,0.006,0.831-0.032,1.169c-0.082,0.729-0.836,1.148-1.421,1.446c-0.129,0.066-0.296,0.193-0.439,0.224
			c-0.116,0.025-0.42-0.09-0.508-0.019c-0.18,0.143-0.12,0.797-0.044,1.007c0.188,0.521,0.306,0.575-0.063,0.982
			c-0.249,0.274,0.078,0.642,0.32,0.746c-0.529,0.54-0.751,0.886-1.049,1.584c-0.12,0.281-0.146,0.457-0.169,0.767
			c-0.036,0.497-0.019,0.455,0.433,0.668c-0.299,0.576-0.29,1.105-0.342,1.755c-0.026,0.323-0.296,0.325-0.584,0.451
			c-0.154,0.067-0.195,0.63-0.235,0.796c-0.226-0.357-0.371-0.395-0.085-0.712c0.189-0.21,0.203-0.49,0.268-0.763
			c0.143-0.596-0.015-1.159,0.224-1.702c-0.512-0.217-0.987,0.029-1.506,0.165c-0.243,0.063-1.05,0.825-1.344,0.423
			c-0.279-0.38,0.887-0.6,1.108-0.739c0.35-0.22,0.515-1.116,0.149-1.374c-0.34-0.239-0.828,0.151-1.237,0.151
			c-0.638,0-1.219,0.053-1.824-0.149c-0.6-0.2-0.819,0.336-0.603,0.787c0.078,0.163,0.194,0.622,0.386,0.648
			c0.36,0.048,0.313,0.336,0.4,0.671c-0.12,0.015-0.513-0.003-0.56,0.11c-0.075,0.178-0.166,0.621-0.331,0.723
			c-0.175,0.108-0.443,0.209-0.583,0.359c-0.162,0.173-0.177,0.489-0.345,0.656c-0.288,0.287-1.121,0.249-1.186,0.694
			c-0.096,0.663,0.344,0.894,0.793,1.384c0.273,0.297,0.744,0.641,1.115,0.303c0.592-0.54,0.146-0.774-0.429-0.946
			c-0.517-0.155,0.082-0.92,0.218-1.148c0.199-0.333,1.094,0.198,1.365-0.332c0.111,0.67,0.064,0.873,0.626,1.239
			c0.384,0.251,1.099,0.428,1.47,0.09c0.643-0.586,0.728,0.255,1.207,0.497c0.599,0.303,1.009,0.501,1.452,0.996
			c-0.303,0.043-0.441,0.004-0.599,0.267c-0.18,0.301,0.042,0.411,0.246,0.678c-0.169,0.105-1.073,0.65-0.891,0.912
			c0.13,0.187,1.026,1.003,1.038,0.982c-0.216,0.353-0.866-0.16-1.058-0.434c-0.357-0.509-0.93,0.295-0.631,0.562
			c0.196,0.176,0.392,0.351,0.588,0.527c0.154,0.138,0.137,0.461,0.292,0.586c0.173,0.139,1.045,0.269,1.256,0.18
			c0.472-0.198,0.947-0.624,1.337-0.238c0.427,0.422,0.907,0.13,1.415-0.051c-0.104,0.157-0.209,0.315-0.313,0.472
			c-0.093,0.141,0.236,0.274,0.047,0.378c-0.265,0.145-0.902-0.013-1.047,0.162c-0.375,0.451-0.345-0.108-0.782-0.221
			c-0.305-0.079-0.932,0.187-1.246,0.25c-0.289,0.058-0.452,0.545-0.368,0.791c0.125,0.368,0.558,0.512,0.88,0.713
			c0.342,0.214-0.069,0.628,0.459,0.771c0.502,0.136,0.627,0.046,1.105-0.173c-0.126,0.486-0.297,0.581-0.693,0.9
			c-0.321,0.258,0.142,0.648-0.006,0.895c-0.06,0.1-0.17,0.405-0.293,0.408c-0.103,0.002-0.419-0.051-0.437,0.063
			c-0.07,0.439-0.025,0.683,0.072,1.12c0.095,0.428,0.19,0.857,0.284,1.285c0.086,0.388,0.47,0.426,0.437,0.873
			c-0.069,0.924,0.293,1.353,1.123,1.703c0.026-0.69,0.029-1.269,0.248-1.919c0.121-0.36,0.72-1.903,1.13-0.903
			c-0.433-0.018-0.416,0.021-0.547,0.4c-0.138,0.401-0.277,0.803-0.415,1.204c-0.258,0.747,0.739,0.94,1.246,0.934
			c-0.434,0.549-2.254,0.17-1.944,1.313c0.077,0.284-0.208,0.953-0.221,1.298c-0.01,0.267-0.187,0.287-0.415,0.421
			c-0.185,0.109-0.3,0.486-0.402,0.672c-0.388,0.704,1.114,1.398,1.631,1.517c0.422,0.098,1.014,0.118,1.365,0.383
			c0.106,0.08,0.548,0.315,0.497,0.45c-0.109,0.289-0.151,0.387-0.501,0.327c0.139,0.468,0.244,0.785,0.527,1.178
			c0.242-0.232,0.484-0.463,0.726-0.695c-0.02,0.21-0.028,1.03-0.303,1.107c-0.628,0.177-0.771,0.307-1.2,0.807
			c0.289,0.185,0.414,0.276,0.751,0.289c0.611,0.023,0.046,0.205,0.321,0.53c0.136,0.16,0.471,0.731,0.68,0.724
			c0.416-0.013,0.536-0.169,0.857-0.441c-0.088,0.624-0.062,0.926,0.117,1.532c-0.559,0.039-1.011-0.684-1.335,0.034
			c-0.153,0.339,0.56,1.024,0.899,1.142c0.185,0.064,0.233,0.564,0.286,0.743c0.067,0.227,0.245,0.434,0.403,0.609
			c0.472,0.522,0.676,0.675,1.343,0.603c-0.099-0.289-0.396-0.787-0.372-1.087c0.013-0.157,0.198-0.301,0.208-0.458
			c0.012-0.175-0.144-0.448-0.199-0.618c0.258,0.179,0.685,0.338,0.737,0.66c0.081,0.502,0.255,0.719,0.561,1.133
			c0.108-0.24,0.19-0.56,0.347-0.77c0.196-0.262,0.562-0.303,0.555-0.658c-0.014-0.646-1.043-0.616-1.584-0.712
			c-0.045-0.008-0.052-0.286-0.017-0.324c0.041-0.045,0.431,0.016,0.494,0.019c0.325,0.012,0.635,0.15,0.943,0.246
			c0.374,0.116,0.567,0.127,0.788,0.441c0.111,0.158,0.724,0.095,0.92,0.109c-0.2-0.691-0.285-0.72-0.93-1.053
			c-0.423-0.219-1.102-0.149-1.573-0.194c-0.138-0.013-0.19-0.34-0.085-0.374c0.25-0.081,0.376-0.162,0.615-0.071
			c0.485,0.185,0.982,0.342,1.434,0.598c0.539,0.306,1.058,0.407,1.176,1.025c0.049,0.255,0.185,0.489-0.01,0.674
			c-0.195,0.184-0.465,0.332-0.49,0.606c-0.055,0.6,0.214,0.974,0.478,1.516c0.25,0.514-0.416,0.818-0.725,1.013
			c0.222-0.572,0.404-0.795,0.172-1.352c-0.277-0.664-0.408-0.919-0.958-1.374c-0.233,0.302-0.563,0.685-0.454,1.116
			c0.042,0.166,0.359,0.337,0.361,0.505c0.002,0.15-0.289,0.462-0.371,0.594c-0.271-0.325-0.325-0.537-0.425-0.954
			c-0.075-0.311-0.79,0.113-0.902,0.18c-0.371,0.223-0.695,0.145-1.129,0.128c-0.319-0.012-0.657,0.162-0.96,0.256
			c0.444,0.328,0.737,0.398,0.752,0.948c0.015,0.547,0.16,0.685,0.359,1.18c0.046,0.115,0.168,0.424,0.096,0.528
			c-0.169,0.245-0.291,0.3-0.16,0.569c0.075,0.154,0.417,0.149,0.577,0.183c0.116,0.024,0.335-0.479,0.4-0.588
			c0.143,0.09,1.013,0.401,1.048,0.477c0.166,0.36-0.499,0.325-0.671,0.452c-0.253,0.186-0.904,0.487-0.445,0.871
			c0.23,0.193,0.798-0.012,1.069,0.14c0.38,0.215,0.76,0.429,1.139,0.644c0.301,0.17,0.682-0.407,0.813-0.571
			c0.152-0.19-0.367-0.677-0.271-0.91c0.224-0.544,0.2-0.634-0.002-1.19c-0.343,0.215-0.59,0.116-0.972,0.049
			c0.175-0.187,0.387-0.302,0.604-0.432c0.294-0.176-0.023-0.472,0.327-0.631c0.313-0.142,0.587,0.052,0.904,0.165
			c0.31,0.11,0.39,0.015,0.687-0.139c0.113,0.339,0.106,0.409,0.426,0.549c0.31,0.136,0.215-0.286,0.511-0.339
			c0.286-0.052,0.601-0.176,0.88-0.08c0.316,0.109,0.548,0.211,0.877,0.191c0.304-0.019,0.58-0.037,0.882-0.002
			c0.042,0.005,0.873,0.209,0.47,0.365c-0.499,0.193-0.829,0.927-1.378,0.495c-0.469-0.369-0.771-0.479-1.284-0.095
			c-0.397,0.297-1.017,1.024-1.57,0.905c-0.418-0.089-0.452,0.038-0.77,0.331c-0.22,0.203,0.104,0.407-0.022,0.618
			c-0.324,0.545-0.817,0.88-0.156,1.315c-0.145,0.151-0.487,0.404-0.345,0.668c0.087,0.163,0.893,0.312,1.075,0.375
			c0.379,0.132,0.976,1.061,1.376,0.869c0.302-0.144,0.12-0.613,0.065-0.815c-0.066-0.242,0.264-0.593,0.487-0.711
			c0.272-0.144,0.698,0.053,0.669-0.42c-0.011-0.18-0.526-0.581-0.655-0.725c0.387-0.058,0.966-0.023,1.283-0.262
			c0.482-0.362,0.793-0.679,1.171-1.149c0.127-0.157,0.203-0.276,0.379-0.367c0.123-0.064,0.246-0.127,0.369-0.191
			c0.106-0.055,0.094,0.156,0.176,0.189c0.201,0.081,0.384,0.277,0.593,0.33c0.268,0.067,0.499-0.134,0.596,0.21
			c-0.531,0.181-0.796,0.315-1.067,0.846c-0.101,0.197-0.086,0.412-0.261,0.558c-0.185,0.154-0.572,0.36-0.687,0.571
			c-0.206,0.377,0.036,0.989,0.183,1.336c0.14,0.329-0.988,0.68-1.157,0.74c-0.058-0.431,0.247-0.304,0.42-0.567
			c0.107-0.163,0.037-0.668,0.048-0.865c0.013-0.244-0.24-0.317-0.423-0.204c-0.318,0.197-0.318,0.325-0.423,0.691
			c-0.455-0.259-0.803-0.096-1.12,0.236c-0.152,0.158,0.506,0.844,0.669,1c0.317,0.302,0.692,0.829,1.082,1.03
			c0.407,0.21,0.964,0.079,1.375,0.307c0.206,0.114,0.457,0.322,0.685,0.38c0.179,0.046,0.416-0.075,0.583,0.014
			c0.114,0.06,0.461,0.328,0.562,0.238c0.207-0.183,0.367-0.324,0.514-0.555c0.378-0.595,0.427-0.613,0.216-1.27
			c-0.057-0.179-0.194-0.429-0.199-0.619c-0.005-0.215,0.163-0.426,0.145-0.644c-0.077-0.917,0.342-1.809,0.275-2.724
			c-0.04-0.546-0.207-0.763-0.06-1.31c0.083-0.309,0.908-0.384,1.136-0.613c0.32-0.321,0.654-0.802,1.038-1.041
			c0.445-0.277,0.97-0.197,1.461-0.178c0.532,0.02,0.373-0.788,0.358-1.058c-0.027-0.501,0.493-0.676,0.924-0.759
			c0.626-0.121,0.717-0.032,1.276,0.293c0.093,0.054,0.354,0.277,0.462,0.225c0.212-0.103,0.434-0.305,0.658-0.18
			c-0.344-0.307-0.689-0.615-1.033-0.922C107.763,172.119,107.31,172.138,106.952,172.076z"/>
		<path fill="#1E8346" d="M110.119,179.388c0.279-0.416-0.3-1.751-0.405-2.199c-0.2-0.854-0.401-1.707-0.601-2.561
			c-0.394,0.133-0.788,0.266-1.182,0.399c-0.482,0.163-0.299,0.399-0.742-0.014c-0.182-0.17-0.66-0.598-0.951-0.473
			c-0.418,0.178-0.33,0.767-0.251,1.073c0.085,0.331-0.052,0.643-0.307,0.849c-0.054,0.044-0.889,0.771-0.848,0.794
			c-0.334-0.191-0.661-0.423-1.029-0.539c-0.507-0.161-0.583,0.175-0.913,0.569c0.492,0.37,0.582,0.391,1.196,0.333
			c-0.147,0.565-0.258,0.668-0.71,1.049c-0.293,0.247,0.04,0.721,0.053,1.13c0.024,0.747,0.893,2.038,1.678,1.275
			c0.693-0.674,1.486-1.043,2.449-0.977c0.302,0.021,0.604,0.513,0.409,0.789c-0.41,0.581-0.481,0.791-1.164,0.945
			c-0.309,0.07-0.291,0.1-0.421,0.399c-0.063,0.144-0.349,0.192-0.485,0.246c-0.399,0.16-1.1,0.215-0.925,0.776
			c0.179,0.574,1.291,1.671,1.944,1.631c0.861-0.053,1.718,0.283,2.438,0.762c0.922,0.613,1.603,1.095,2.667,1.372
			c-0.303-1.291-0.606-2.582-0.909-3.873c-0.205-0.871-0.409-1.742-0.614-2.614C110.433,180.254,110.408,179.5,110.119,179.388z"/>
		<path fill="#1E8346" d="M80.481,161.348c-0.15-0.074-0.587-0.354-0.625,0.011c-0.043,0.41-0.115,0.499-0.392,0.812
			c0.219,0.164,0.475,0.28,0.566,0.543c0.081,0.233,0.203,0.718,0.578,0.463c0.441-0.3,0.468-0.289,0.464-0.824
			c-0.002-0.314,0.232-0.571,0.39-0.837C81.134,161.46,80.807,161.404,80.481,161.348z"/>
	</g>
</g>
</svg>
