<?xml version="1.0" encoding="utf-8"?>
<!-- Generator: Adobe Illustrator 26.0.3, SVG Export Plug-In . SVG Version: 6.00 Build 0)  -->
<svg version="1.1" id="Layer_1" xmlns="http://www.w3.org/2000/svg" xmlns:xlink="http://www.w3.org/1999/xlink" x="0px" y="0px"
	 viewBox="0 0 200 200" enable-background="new 0 0 200 200" xml:space="preserve">
<g id="Layer_1_00000146468054004539081690000003093288900162485669_">
	<g id="Layer_1_00000061442898653323928190000005571608892069918396_">
		<g id="Layer_1_00000098929087308412571940000004538787532203942811_">
		</g>
	</g>
</g>
<g id="Isolation_Mode">
	<g>
		<path fill="#1E8346" d="M163.9,89l0.5,0.4l4.9-17.5c0.6-0.5,1.3,0.6,1.4,1.1c0.1,0.2,0.4,0.1,0.6,0.3c0.6,0.7,1.3-0.6,2.3-0.3
			c0.3,0,1.4,0.5,1-0.3c-2.1-0.9-0.1-1.2-0.8-2.6c-0.2-0.3-1-0.5-0.7-1c0.2-0.2,0.4-0.3,0.3-0.6c-0.4-0.6-0.7-0.4-0.3-1.3
			c-0.1-0.4-0.7-0.7-0.6-1.2c1.6-1.1-0.7-0.6,0.4-1.8c0.1-0.3,0.5,0,0.6-0.2c0.1-0.4,0.6-0.7,0.1-1c-0.4-0.5,0.4-1,0.1-1.6
			c-0.5-0.1-0.3-0.4-0.5-0.7c-0.2-0.1-0.2,0.1-0.3,0.2c-0.4,0.1-0.2-0.4-0.2-0.6c-0.1-0.2-0.3-0.2-0.4-0.2c-1.2,0.3-0.7-1.1-1.3-1.6
			c-0.2,0.2-0.3,0.5-0.5,0.6c-0.2-0.3-0.3-0.8-0.7-0.8c-0.3,0-0.3-0.1-0.4-0.3c-0.1-0.2-0.1-0.6-0.3-0.6c-0.5,0-0.5-0.6-1-0.8
			c-0.4-0.4-0.2-1.2-0.7-1.6c-0.4-1.6-1.2-4-3.3-3.7c-0.2,0.3-0.7,0.4-0.7,0c0-0.6,0-1.4,0.1-1.9c0.5,0,0.9,0.6,1.4,0.5
			c0.3-0.4,1.1-0.8,1.4-0.1c1,0.5,3.3,2,4,0.6c0.5,0.8,2.2,0.1,2.6-0.6c-0.3,0.1-0.6,0.1-0.7-0.3c-0.2-0.3-0.5-0.2-0.8-0.3
			c-0.6-0.2-1.1-0.5-1.8-0.2c-0.8,0.1-1.5-0.6-2-1.2c-0.3-0.2-0.7-0.1-1-0.2c-0.7-0.6-1-0.7-1.9-0.5c-0.5-0.1-0.7-0.4-0.4-0.8
			c0.1-0.6-0.7-0.3-1-0.5c-0.2-0.2-0.4-1.1-0.9-0.6c-0.1,0.2-0.3,0.2-0.5,0.1c-0.7-0.1-1.3,0.1-2-0.1c-0.3,0-0.8,0.1-1,0
			c-0.2-0.2-0.4-0.4-0.6-0.3c-0.7-0.2-0.6-1.2-1.2-1.6c-0.1-0.2-0.3-0.8-0.5-0.8c-1.1,1-0.3-0.4-1.1-0.2c0.7-1.6-2-1.2-1.4-2.3
			c-0.3-0.2-0.4-0.5-0.8-0.5c-0.2,0-0.7,0.1-0.6-0.3c0.1-0.2,0.4-0.1,0.4-0.4c-0.2-0.2-0.2-0.6-0.4-0.8c-0.3,0-0.6-0.1-0.8-0.3
			c-0.3-0.2-0.3-0.2-0.5-0.5c-0.5-0.7-1.3,0-1.7,0.3c-0.5-0.6-0.3-1.7-1.1-2c-0.4-0.1-0.7,0.7-1.2,0.4c-0.2-0.2-0.4-0.3-0.7-0.1
			c-0.5-0.3-0.4-0.9-1.2-0.7c0-1.5-0.7-0.3-1.2-0.8c-0.3,0-0.9,0.6-0.8,0.9c0,0.2,0,0.3-0.1,0.4c-0.4,0.2-0.5-0.1-0.8-0.3
			c-0.4-0.1-0.8,0.5-1.3,0.3v3.9c-0.2,0.1-0.1,0.2-0.3,0c-0.1-0.4-0.5-0.3-0.7-0.1c-0.3,0.2-0.8,0.1-1.2,0.2
			c-0.6,0.2-0.9-0.5-1.3-0.4c-0.3,0.1-0.6,0.2-0.8,0.4c-0.3,0.3-0.1,0.5-0.6,0.5c-0.7-0.4-0.8-1.6-1.7-0.7c-0.1-0.1-0.1-0.3-0.1-0.5
			c-0.6,0-1.1-0.7-1.5-0.2c-0.3,0-0.2-0.4-0.6-0.3c-0.3,0-1.1,0.4-0.5,0.6c0.1,0.7-0.9,0.1-1.2,0c-0.4-0.1-0.5,0.3-0.9,0.1
			c-0.5-0.1-0.2,0.1-0.5,0.3c-4.6,0.4-0.4-1.4-4.4-1.3c-0.6,0-2.9,0.7-2.2-0.5c-0.1-0.5-0.7-0.7-0.7-1.3c-0.3-0.6-0.6-0.8-1.2-0.6
			c-0.3-0.1-0.4-0.3-0.7-0.2c-0.8,0.9-2,0.4-2.9,0.9c-0.7-0.4-1.3-0.9-2.1-1c-0.5-0.2-0.8,0.4-1.2-0.1c-1-0.9-2.2-1.2-3.4-0.3
			c-0.1-0.5,0.2-0.8,0.2-1.3c-0.2-0.4-0.2-0.8,0.1-1.2c-0.7-1.2,1.2-2.4,0.8-3.8c-0.2-1.4-1.5-0.1-2.3-0.5c-0.9-0.6-1.6-1.3-2.7-1.4
			c-0.1-0.1,0-0.4-0.2-0.5c-0.2-0.3-0.6-0.1-0.7-0.5c-0.1-0.3,0.2-0.8,0.5-1c1.4-1.4-1.6-2-2.6-1.9c-0.6,0.1-1,0.6-1.4,1
			c-1.6,0.7-3.5,0-4.7-1c-1-1-2.7-1.1-3.5-2.3c-0.7-0.2-1.3,0.3-2-0.3c-0.2-0.2-0.2-0.1-0.1-0.4c0.1-0.6-0.2-1.2-0.7-1.4
			c-3.4-2.1-0.5-1.4-1-2.6c-0.5-0.3-0.9-0.7-1-1.2c0.1-0.4,0.1-0.7-0.4-0.8c0-0.3-0.4-0.7-0.7-0.4c-0.3,0.1-0.6,0-0.9,0.1
			c-0.1,0.2-0.3,0.3-0.6,0.3c0.2,1-0.9-0.2-1.1,0.4c0,0.2,0.3,0.2,0.3,0.5c-1.3,0.2,0.1-1.3-0.7-1.2c-0.4,0.3-0.7,0.1-1-0.2
			c-0.4,0.2-0.6-0.2-1-0.1c0-0.6-0.6-0.6-0.8-1c-0.2-0.7-1.4-0.4-2-0.6c-0.5-0.2-1.1-0.4-1-1c0-0.4-0.2-0.5-0.6-0.8
			c-1.2-0.7-1.8-1.6-2.8-2c-0.6-0.4-0.6-1.4-1.5-1.4c1.5,2-0.8,1-1.5,1.8c0.2,0.5-0.3,1-0.1,1.5c0.1,0.2,0.3,0.3,0.3,0.6
			c-0.4-0.1-0.3,0.6-0.3,0.9c0.8-0.1,0.6,0.4-0.1,0.3c-0.3,0.1-0.6,0.4-0.9,0.1c-0.7-0.5,0,0.6-0.6,0.6c-1,0.4-1.3-1-2.1-1.2
			c-1.4,0.7-1,1.2,0.4,1.5c-0.1,0.4,0,0.9-0.1,1.3c-0.4-0.5-0.9-1.3-1.7-1.4c0.4,0.4,0.2,0.6-0.1,1c-0.1-0.6-0.6-0.3-0.6,0.2
			c-1.2,3.1-5.1,2.7-7.8,2.9c-2.5-0.4-4.4,2.5-7,2.2c-0.4,0.8-0.4-0.2-1,0c-0.8,0.8-2,0.5-2.8,1.2c-0.4,0.6-0.9,1.1-1.5,1.5
			c-0.5,0.5-0.9,0.8-1.6,0.7c-1.1-0.1-2,1-3.1,1.3c-0.7,0.3-1.6-0.5-2.1,0.3c-0.7,0.7-1.2,1.5-1,2.5c-0.3,0.9-0.4,2.1,0.9,2.1
			c0.5,0.7,1.3,1.1,1.3,2c0.2,1.5-1.6,2.5-0.7,3.9c2.8,1.5,0.3,3.3,2.7,4.6c-2.4,2-1.1-0.5-1.4-1.9c-1.6-2.5-1.5,0.5-1.2,1.7
			c0.7,5.3-3.2,9.2-6.9,12.3c-0.6,0.3-1.2-0.4-1.6,0.1c-0.2,1-1.2,1.3-1.3,2.4c-2.8,5.1-4.6-1.3-0.9,8.6c-3,0.9-2.4,12-6.3,9.4
			c-0.6,0.5-1.5,0.7-2.1,0.1c-2.1,0.3-3.2,0.9-4.3,2.8c-1.8,1.5,0.1,4.4,1.4,5.7c0.8,1,1.9,1.4,2.2,2.7c0.7,0.6,0,1-0.2,1.6
			c0.1,0.7,0.1,1.4-0.2,2.1c-0.6,0.5-1.4,0.9-1.4,1.8c-0.3,0.9-1,1.7-0.4,2.7c0,0,0,0,0.1,0c0.3,2.2,3.9,7.3,2.3,9.1
			c-0.6,0.6,0.1,1.4,0.2,2.1c0.1,0.8-0.4,1.9-0.9,2.5c-0.3,0.5-0.8,0.7-1.3,0.7c-1.3,1.2-2.7,2.7-4.2,0.7c-1.5-0.5-0.1,0.7,0,1.2
			c0.5,0.6,1.2,1.2,1.8,1.8c0.2,0.2,0.3,1.2,0.6,1.2c0.3,0,0.3-0.5,0.7-0.3c0.9,0.9,1.9,1.7,3.3,1.8c3.6,0.6,5.4,4.3,8.1,6.4
			c0.4,0.5,0.7,0.5,1.3,0.6c1.3,0.3,2.3,1.7,3.3,2.6c0.5,0.8,1.4-0.2,1.3-0.9c-0.2-0.8-0.4-1.5,0.4-2c0.7-1.3,2.4-1.7,3.3-2.9
			c1.8-1.6,1.4-4.8,3.8-5.6c0-0.2,0.2-0.4,0.2-0.6c0.3,0.3,0.5,0,0.8-0.1c0.4,0.2,0.5,0,0.5-0.4c0.2,0.5,0,0.8-0.5,0.8
			c-0.2,0.1-0.2,0.5-0.4,0.6c-0.4,0.9-1.6,0.3-1.7,1.3c-0.2,0.3-0.2,0.7,0,1c-0.4,0.4-0.7,1.2-0.6,1.9c0.6,0.4,1.1-0.9,1.6-0.4
			c0.3,0.2,0.4,0.7,0.8,0.8c0.4,0,0.2-0.4,0.3-0.7c0.1-0.5,0.6-0.4,1-0.5c-0.2,0.3-0.5,0.1-0.7,0.3c-0.2,0.5-0.2,1.4-1,0.8
			c-0.3-0.3-0.5-0.6-1-0.2c-0.7,0.8-0.3,1.7-1.6,1.8c-0.1,0.5-0.6,1.2,0.2,1.4c1,0.3,2.1,1.5,3.2,0.9c0.4-0.7-0.6-1.4,0.6-1.7
			c1.6-2.2,2.2-6,1.6-8.7c-1-0.9-0.7-1.9-0.4-3c0.2-0.6,0.2,0.7,0.5,0.8c1.4,1.2,0.3,4,0.6,5.8c0.3,0.7,1.2,1.1,1,2.1
			c0.6,2.5,2.7,0,1.7,4.4c-0.6,0.8-2,0.4-1.6,1.8c-0.2,0.8-0.2,1.8-0.5,2.4c-0.3,0.3-0.2,0.4-0.3,0.9c0,0.8-0.6,1.4-1,2
			c-0.2,1.4,0.6,3.1-0.2,4.4c-0.2,0.5-0.6,0.7-0.7,0c-0.3,0-0.2,0.4-0.2,0.6c0.1,0.4-0.3,0.8-0.3,1.2c0,0.3,0.1,0.9-0.1,1.2
			c-1,0.2-1.4,1-2.3,1.4c-0.4,2-1,3.7-1.8,5.5c-0.6,0.9-1.9,0.3-2.8,0.6c-0.5,0.4-1,0.5-1.6,0.3c-1.5,1.6,0.8,1.3,0.4,2.9
			c-0.8,1.4,0.6,1,0.4,2c-0.2,0.3,0.1,0.5,0.3,0.8c0.1,0.4-0.3,0.7-0.4,1.1c-0.1,0.4,0.3,0.6,0.4,0.9c0.1,0.3-0.2,0.7-0.2,1.1
			c0,0.6,0.8,0.9,0.8,1.5c0,0.5,0.4,0.9,0.3,1.4c0.5,0.7,1,1.4-0.3,1.6c-0.7,0.3-1.2,0.8-2,1c-1.2,2.1-1.9,1.6-3.7,0.8
			c-0.2,0.1-0.4,0-0.6-0.1c-0.4,0-0.5,0.3-1.2,0.3c-0.7,0.7-2.2,3.7-0.3,3.7c0.1,0.7,0,1.6,0.2,2.2c0.3-0.2,0.7-0.1,0.8,0.2
			c0.4,0.3,0.7-0.4,1.1-0.4c0.5,0.7,1,0.5,1.8,0.2l-1.6,1.7v0.4c-0.8,0.4-1.5,1-1.8,1.9c-0.2,0.5-0.9,0.8-0.4,1.3
			c-0.1,0.5-0.3,1.3,0.2,1.7c0.2,0.2,0.4,0.1,0.7,0.1c0.3,0.1,0.4,0.6,0.7,0.6c1,0,1.6-0.6,2.2-1.3c1.3-1.2,2.7-2.4,3.8-3.7
			c0.3,0,0.5-0.2,0.8-0.4c0.5,0.1,0.9,0.2,1.4,0.1c1,0.4,1.6,1.5,2.5,2.2c0.6,0,1.1,0.8,1.7,0.5c0.3-0.1,0.4-0.3,0.7-0.1
			c1.6,0.5,1.7,2.2,3.1,2.7c2.3,0.2,5-3.2,6.2,0.3c0.2,0.5,0.7,0.7,1.2,0.9c0.4-0.2,0.8-0.5,1.1,0.1c0.6,1-0.5,2,0.4,3
			c0.7,1.4,1.2,5,2.8,5.3c0.5,0.3,0.4,0.7,0.6,1.1c0.2,0.4,0.9,0.6,1.3,0.7c0.2,0.5,0.4,1.7,1.1,1.7c1.4,0,2.9-0.5,4.2,0.4
			c0.3,0.1,0.6,0,0.8-0.2c0.3-0.1,0.3,0.3,0.3,0.5c2.2,1.7,1.7-0.9,2.6-2.3c0.5-0.5,1.5-0.1,2.2-0.5c0.8-0.6-1-0.6,0.2-1.9
			c0.1-0.5-0.4-0.6-0.6-1c0.2-0.7,1.2-0.9,1-1.9c0.3-0.7,1.1-1.3,1.7-1.8c0.4-0.4,1.1-0.1,1.5-0.5c0.5-0.4,1.4,0.1,1.9-0.3
			c0.2-0.5,0.5-0.7,0.9-0.8c0.4-0.8-0.4-1.8,0.5-2.4c0.6-0.4,0.1-1.1,0.5-1.6c0.2-0.2,0.5-0.3,0.5-0.5c0.2-0.9-1.3,0.1-1-0.8
			c0.3-0.4-0.1-0.7-0.2-1.1c-0.2-1.3,1.4-1.9,1.3-3.1c-0.3-0.7,0.3-1,0.6-1.6c0.2-0.8,0-1.8,0.5-2.4c0.2-0.2,0.7-0.6,0.6-1
			c-0.1-0.3-0.5-0.2-0.7-0.4c-0.1-0.6-0.3-1.9,0.6-2.1c0.8,0,1.8-0.2,1.5-1.2c0.1-0.4,0.4-0.5,0.2-0.8c-0.4-0.5,0.2-1.2,0.4-1.6
			c0.1-0.4,0.2-0.3,0.5-0.5c0.8-0.5,1.3-1.8,1-2.6c-0.1-0.2-0.3-1.1,0-1.2c0.5,0.2,0.4-0.3,0.6-0.7c-0.3-0.3-0.3-0.5,0.1-0.7
			c-0.8-1.6,1.1-3.2,1-4.9c0.1-2.8,0.8-1.6,2.9-1.5c-0.1,0.7,0.3,1.2,0.4,1.9c0,0.3,0,1,0.5,1c0.3-0.1,0.4-0.5,0.7-0.4
			c1.3-0.5,1.1-1.1,0.8-2.3c-0.4-0.3-0.9-0.7-0.8-1.3c1.7-0.6,1.9-3.2,3.3-3.8c0.5-0.7,0.8-1,1.5-1.4c0.4-1.3,1.5-2.1,2.1-3.1
			l3.2-1.9l32.8-11.1l16.2-12.8C151.1,105,163.9,89,163.9,89z"/>
		<path fill="#1E8346" d="M70.5,11.2c0,0.3,0.4,0.9,0.7,0.5c0.1-0.5,0.5-0.3,0.8-0.1c0.6,0.2,0.3-0.5,0.6-0.6c0.4-0.9,0.2-2.2-0.4-3
			c-0.4,0.6-0.7,1.4-1.4,1.7C70.1,9.9,69.6,11,70.5,11.2z"/>
		<path fill="#1E8346" d="M47.4,114.1c-0.2-1.5-1.5-1.2-0.7,0.3c0,0.4,0,0.9,0.3,1.3c0.1,0.1,0.2,0.8,0.4,0.5
			C48,115.8,47.4,114.8,47.4,114.1z"/>
		<path fill="#1E8346" d="M47.4,119.1c0.1,0.7,0.7,0,1.1,0c1.3,0.1,0.9-2.2,0.4-2.9C47.5,115.6,47.3,118.2,47.4,119.1z"/>
		<path fill="#1E8346" d="M45.9,115.2c0.2,1.3-2.2,4.8,0.3,4.5c0.4-0.2,0.2-0.9,0.2-1.2c0.6-1.3,0.7-2.8-0.3-4
			C46,114.6,45.9,115,45.9,115.2z"/>
		<path fill="#1E8346" d="M34.3,129.2c0.1,0.8,1.3,0.7,1.9,1c0.6,0.1,0.9-0.4,1.4-0.6c0.9,0.1,2.1-1.5,1.3-2.1
			c-0.5-0.3-0.3-0.9-0.4-1.3c-0.2-0.4-0.9-0.8-0.5-1.3c0.3-0.3,1.1-0.1,1.3,0.1c0,0.2-0.4,0.3-0.4,0.5c-0.1,0.7,1,1,1.6,1
			c0.6-0.8,1.1-1.8,1.8-2.6c0.4-0.6,1.3-0.1,1.7-0.6c0.3-0.2,0.7-1.1,0.4-1.4c-0.5-0.5-1.4-0.4-1.8-1c-1.2-1.3-2.8-0.6-4.3,0
			c-0.6,0-1.1,0.6-1.6,0.7c-0.5,0-0.9,0.1-1,0.6C34.4,124.4,35,126.9,34.3,129.2z"/>
		<path fill="#1E8346" d="M39,125.3c0.1-0.4-1-0.6-1,0c0.1,0.2,0.7,0.9,0.7,0.4C38.6,125.5,38.9,125.5,39,125.3z"/>
		<path fill="#1E8346" d="M41.5,136.5c-0.3-2.7-0.9-1.1-1.4,0.4c-0.6,0.5-1.2,1-1.7,1.5c-0.7-0.2-1.3,0.1-1.9,0.1
			c-0.2,0-0.4-0.1-0.6,0c-0.3,0.2,0,0.4,0.2,0.6c0.2,0.3,0.2,0.9,0.7,0.8c0.4,0.1,0.6,0.5,1,0.6c0.7-0.1,1.5-0.1,2.3-0.2
			c0.4-0.7,0.9-1.6,0.9-2.4C40.8,137.4,41.2,137,41.5,136.5z"/>
		<path fill="#1E8346" d="M35.6,140.5c0.2,0.1,2.1,0.4,1.4-0.1c-0.2-0.3-0.6,0.2-0.7-0.2c-0.2-0.8-1.7-3.2-1.4-0.9
			C35.1,139.7,35.6,139.8,35.6,140.5z"/>
		<path fill="#1E8346" d="M33.9,138.9c-1.8,1.2,2.1,2.1,1.3,1c-0.6-0.6-1.3,0-0.8-1.6C34.2,138.2,33.9,138.8,33.9,138.9z"/>
		<path fill="#1E8346" d="M159.6,148c-0.7-0.4-0.9,0.2-0.6,0.9c0,0.5,0.1,0.9,0.7,0.9C160.6,150,160.2,148.2,159.6,148z"/>
		<path fill="#1E8346" d="M164.4,154.7c0.9,1.2,1.7,1.8,3,0.6c0.4-0.6-0.6-0.9-0.9-1.4C165.8,153.3,164.9,153.9,164.4,154.7z"/>
		<path fill="#1E8346" d="M177.7,154.5c-0.4,0.1,0.1,0.4,0.1,0.6C178.6,155.2,178.5,154.2,177.7,154.5z"/>
		<path fill="#1E8346" d="M158.2,179.1c-0.8-0.8-1.3-1.8-1.9-2.7c-0.4-0.2-0.8,0.4-1.1,0.2c-0.2-0.1-0.1-0.5-0.2-0.7
			c-0.1-0.2-0.2,0-0.2-0.3c1.6-2.5-0.6-4.4-2.7-5.5c-0.9-1-1.4-2.4-2.4-3.3c0.1-2,0.2-4.1-1.8-5.3c-0.8-0.5-0.5-1.5-1.1-2.1
			c-0.3,0-0.5-0.2-0.5-0.5c-1,0.6-2,0.8-3.1,1.2c-0.8,0.3-0.7,1.7-1.6,1.8c-2.1,0-0.7,3,1.6,1.1c2.2-0.5,1,2.4,1.7,3.6
			c0.2,0.3,0.4,0.6,0.2,1c0,0.5,0.4,1,0.6,1.4c0.2,1.1,1,1.3,2,1.6c0.3,0.6,0.4,0.6,0.9,0.8c0.5,0.5,0.2,1.4,0.4,2
			c0.6,1.3,2.2,2.1,3.2,3.1c0.1,0.7-1.1,0.7-1.4,1c-0.3,0.3-0.1,0.4-0.6,0.5c-0.9,0.2-1.8,0-2.6,0.5c-1.5-0.2-1.6,1.4-2.8,1.8
			c-1.5,1.3-3.7,2.9-1.1,4.3c0.3,2.2,2.9,0.8,4.4,1.4c2.1,1.2,3.2-0.1,5.1-0.6c0.7-0.2,0.9-1,1.6-0.9c0.3,0,0.8,0.2,1.2,0.1
			c0.5-0.4,1-0.9,1.6-1c0.3-0.8,0.1-2.2,0.8-2.9C159.2,180,159.3,179.7,158.2,179.1z"/>
		<path fill="#1E8346" d="M145,173c1.4-2.4-1-5.9-3.5-3.8c-1.1-0.1-2.5-0.4-2.4,0.8C139.1,173.9,141.8,175.1,145,173z"/>
		<path fill="#1E8346" d="M162.3,166.9c-1.1-0.4-2.3-0.6-3.6-1.2c-0.4,1.1-1.3,1.9-1.9,2.8c0.1,0.3,0.2,0.1,0.4,0.2
			c0.4,0.3,0.4,0.9,0.7,1.1c0.4,0.3,1.1,0.1,1.5,0.4c1,0.6,2.1,0.2,3.2,0.6C165.1,170.9,164.2,167.3,162.3,166.9z"/>
		<path fill="#1E8346" d="M172.2,174.9c-0.5-0.6-0.7-1.7-1.8-1.2c-0.4,0-0.8,0-1.2,0c-0.5,0-0.4,0.5-0.8,0.6c-2.3-1.1-5,1.6-3.6,4
			c0.3,0.6,0.8,0.5,1.3,0.8c0.9,0.5,1.6,1.4,2.7,1c0.3-0.1,0.7,0,1-0.1c0.2-0.6,0.9-0.2,1.3-0.4
			C172.2,178.7,174.3,175.5,172.2,174.9z"/>
		<path fill="#1E8346" d="M170.3,173.1c0.2,0.8,1.3,0.1,0.7-0.4C170.7,171.3,169.9,172.2,170.3,173.1z"/>
		<path fill="#1E8346" d="M161.5,175.9c-0.7,0.2,0,0.6,0.2,0.8C162.5,177,162.1,176,161.5,175.9z"/>
		<path fill="#1E8346" d="M175.8,180.7c-0.3,0-0.6,0-0.9,0c-0.3,0.7,0.6,0.8,1,1C176.5,181.7,176.2,180.8,175.8,180.7z"/>
		<path fill="#1E8346" d="M168.3,191.1c-0.3-0.2-0.7-0.2-0.9-0.5c-0.4-0.5-0.9,0.4-1.6,0.2c0.2,0.8-0.7,1.7-0.2,2.4
			c0.4,0.1,0.9,0.1,1.3,0.4C167.9,193.6,168.7,191.9,168.3,191.1z"/>
		<path fill="#1E8346" d="M184.9,193.5c-0.5-0.2-1.5-0.4-1.8,0.2c-0.2,0.9,1.9,1.2,2.3,1C185.4,194.2,185.5,193.6,184.9,193.5z"/>
		<path fill="#1E8346" d="M194.3,178.9c-0.6-0.6-1.7-0.4-2.5-0.6c-0.6,0.7-1.8,0.6-2.3,1.3c-0.2,0.5-0.2,1.1-0.8,1.3
			c-0.7,0.1-1,0-1.2,0.8c-0.6,0.6-1.8,0.6-2.2,1.4c-0.1,0.4,0.3,0.4,0.7,0.5c0.6,0.1,1.1,0.5,1.7,0.6c1.5,0,2.9-0.5,3.5-1.9
			c0.3-0.5,0.3-1.2,1.1-1.1C193,180.7,194,179.7,194.3,178.9z"/>
	</g>
	<line opacity="0.35" fill="none" stroke="#1A234B" stroke-miterlimit="10" x1="92.9" y1="179" x2="167.7" y2="113.3"/>
</g>
</svg>
