<?xml version="1.0" encoding="utf-8"?>
<!-- Generator: Adobe Illustrator 26.0.3, SVG Export Plug-In . SVG Version: 6.00 Build 0)  -->
<svg version="1.1" id="Layer_1" xmlns="http://www.w3.org/2000/svg" xmlns:xlink="http://www.w3.org/1999/xlink" x="0px" y="0px"
	 viewBox="0 0 200 200" style="enable-background:new 0 0 200 200;" xml:space="preserve">
<style type="text/css">
	.st0{fill:#1E8346;}
</style>
<g id="Isolation_Mode">
</g>
<g id="Layer_1_00000067958902404616224410000001897967550931065475_">
	<g>
		<g>
			<path class="st0" d="M133,179c0-0.2-0.8-0.4-0.8-0.5c-0.1-0.3-0.5-0.6-0.4-1c0.1-0.1,0.7-0.3,0.6-0.6c-0.1-0.6-0.7-0.8-0.5-1.4
				c-0.1-0.5,0.3-1.3-0.6-0.7c-0.6,0.2-0.8,0.2-1.3,0.7c-0.8,0.3-1.5,0.2-2-0.6c-0.3-0.2-0.5,0-0.8-0.3c-0.4-0.4-0.8-1.3-1.4-0.8
				c-0.2,0.2-0.2,0.3-0.6,0.5c-0.5,0.3-2.3,1.1-1.8,0c0.3-0.4,0.7-0.2,1.1-0.3c0.8-0.6,1.4-1,1.5-1.9c0.4-0.8,1.3-0.5,1.8-0.5
				c1-0.4,0.4-3.2,1.5-1.6c0.2,1,2.1,2,1.5,0.2c-0.2-0.6,0.7-0.8,0.2-1.4c-0.4-0.2-0.4,0,0.1-0.3c0.5-0.3,0.2-0.4,0.6-0.8
				c0.6-0.7-0.3-0.8-0.6-0.6c-0.4,0.4-1,1-1.4,0.2c-0.8-0.5-2,0-2.4-1.1c-0.4-0.3-1.1-0.2-1.3,0.1c-0.1,0.3-0.3,1.3-0.6,1.5
				c-0.3,0.5-0.9-0.4-1.2,0.2c0,0.5-0.3,0.4-0.8,0.4c-0.8,0.1-1.5,0.2-0.9-0.9c-0.6-0.6-1.4,0.2-2.2,0.4c-0.8,0.1-0.5,0.1-0.9,0.6
				c-0.1,0.1-0.6,0.6-0.7,0.6c-0.9-0.1-0.2-1.1-0.2-1.7c0.3-0.3,0.7-0.9,0.8-1.5c-0.1-0.6,0.7-0.4,1.2-0.7c0.6-0.1,2.1-0.2,2.4-0.7
				c-0.8-0.1-1.3,0.5-2.1,0.2c-0.3,0.1-0.6,0.4-1,0.3c-0.5-0.2-0.4-0.6-0.8-0.7c-1.3-0.2-1.8,0.4-3.1-0.5c-1.2-1.3,3.3-1.4,3.9-2
				c0.5-0.5,1.2-1.1,1.8-1.5c1.8-0.6-0.8-2.3-1.4-0.9c-0.4,0.9-0.6,1.5-1.7,1c-0.4,0.1-0.4,0.5-0.5,0.7c-0.4,0.5-2.2,0.4-2.5,0.7
				c0.2,1.2-1.1,2-1.3,0.4c-0.3-0.3-0.7-0.8-0.6-1.4c0.3-0.7,1.4-0.7,1.3-1.3c0.5-0.4,0.6-1.5,0.4-2.1c-0.7-0.6-1.4,0.2-1.3,0.9
				c0,0.9-0.7,1-1.4,1.4c-0.3,0.4-0.6,0.4-0.9,0.7c-0.1,0.4-0.4,0.8-0.3,0.9c0.4,0.1,0.7,0.4,0.6,0.8c0.1,0.5,0.1,0.7,0,1.3
				c0,0.3,0.1,0.4-0.3,0.7c-1,0.3-1.1-1.3-1.7-0.1c-0.5,0.3-0.6,0-0.2-0.3c0.4-0.2,0.5-0.4,0.2-0.6c-0.5-0.1-0.4,0.4-0.7,0.6
				c-0.7,0.6-1.9,0.6-1.4-0.6c0.4-0.2,0.1-0.6,0.3-1.2c0-0.6,0-1.3-0.5-1.1c-0.6,0-0.8,0.5-1.1,0.7c-0.3,0-0.6,0.2-0.8,0.3
				c-0.3-0.1-0.2-0.6-0.2-0.7c-0.7-0.6,0-1.5,0.7-1.9c0.6-0.4,0.8-1.3,0.6-1.8c0-0.2,1.1,0.4,1.6,0.2c0.5-0.1,0.6-1.1,0.2-1.3
				c-0.4,0-1,0-1.3-0.4c-3.4-1.3-2-1.4-2.8-4.3c-4.1,0-1.2-3.7-4.5-2.6c-0.8,0.1-1.1,0.1-1.7,0.5c-0.2,0-0.3,0-1.3-0.1
				c-0.4-0.1-0.4-0.1-0.5-0.1c-0.7-0.5-0.7-1-1.8-1.1c-1.1-0.2-0.8-0.1-1.4,0.4c-0.3,0.3-1.8,0.6-2.1,0.8c-1.6,0.9,0,1.2-0.6,1.9
				c-0.6,0.7-1.7,1.3-1.9,2.1c-0.1,0.2,0,0.7-0.1,0.9c-0.1,0.3-0.9,0.5-0.8,0.6c-0.1,1.1-0.5,2.5-1.2,3.4c0.6,0.8,1.9-0.5,2.6-0.2
				c0,0.2,0,0.4,0.1,0.6c-0.8,1.1,0.9,2.2,1.1,3.4c-0.3,0-1.7-0.2-1.8-0.4c-0.2-0.2-0.3-0.5-0.7-0.6c-0.6,0.5-2.3,0.4-2.8,0.3
				c-0.8-1.2-0.7-1.7-2.3-1.3c-1.3-0.6,0,0.7-1.1,0.4c-0.9-0.5-2.1,0-2.8,0.6c-0.3,0.1-0.7,0.2-0.8,0.5c0,0.2,0.3,0.8,0.2,0.8
				c-0.1,0.4-0.7,0.9-0.9,1.3c-0.9,1.2-0.4,0.8-0.5,1.7c0,0.3-0.6,0.6-0.6,1c0.4,1.2,1.7,0,2.2-0.2c0.5-0.1,1-0.2,1.5-0.4
				c0.4-0.2,1.3,0,1.9-0.1c0.5-0.2,0.5-0.5,0.8-0.6c0.8,0,1.2,0.8,1.2,1.5c-0.1,0.2-0.3,0.3-0.5,0.7c-0.3,0.4-0.5,0.9-0.7,1.3
				c-0.3,0.5,0.1,1.4-0.9,1.3c-0.6,0.2-1.4-0.5-2-0.4c-0.6,0.2-0.5,1-0.7,1.4c0.1,0.3,0.6,0.4,0.6,0.6c-0.3,0.4-0.6,0.3-0.1,1
				c0.4,0.5,0.1,0.9,0.4,1.3c0.5,0.1,0.7-0.8,1.2-0.9c1,0.2,0.5,0.9,0.2,1.7c-0.1,0.5,0.1,0.6-0.1,0.9c-0.7,0.4-0.7,0.6-1,1.4
				c-0.5,0.2-0.9,1.9-1.1,1.9c-0.7-0.2-0.6-0.3-0.6,2c0.7,6.1,2.9,6,8.2,6c1.1-0.4,0.9,1.3,1.9,1.2c0.4,0.1,0.8-0.4,1.1,0.1
				c0.1,0.3,0.4,0.3,0.7,0.3c0.5-0.1,1.3,0.3,1,0.8c0.8,0.5,1.9,0.1,2.5-0.6c0.9,0.3,0.4,1.2,0.2,1.7c-0.2,1.6,2.6,0.3,3.2,0
				c0.7,0,1.5,0.3,2.3,0c0.2-0.1,0.2-0.3,0.1-0.4c-0.5-1.3,1.1-0.7,1.7-1c0.5-0.5,0.9,0.5,1.5,0.4c1.2-0.3,1.9,1,2.9,1.4
				c0.3,0,0.3-0.2,0.1-0.4c0.2-1,0.7-2.6,1.5-3.4c1.6,0,4.1-0.3,2.1,1.8c1.8,1.5-2.9,0.3-1,2.4c1.7,3.2,2.7-3,3.7,0.1
				c0,2.6,1.6,1.4,3.3,1.4c1.1,0.1,1-1.3,1.7-1.7c0.5-0.1,0.6,0.4,0.7,0.8c0.5,0.7,1.5-0.2,1-0.8c-0.4-0.7-2.4-2.6-0.5-2.4
				c0.9,1.2,1.4-0.2,1.1-1.1c-0.8-1.1-2.5-1.5-2.6-3.1c-0.4-0.6,0.1-1.2-0.7-1.8c1.1-2.8,5.4,1.2,7.3,1.7c0.8,0.2,3,0.1,3.8,0.1
				c1-0.4,1.4,0.7,1.9-0.3c-0.1-0.2,1.5,0.3,1.1-0.4c-1.3-0.2-0.6-0.8,0-1.4c0.8,0.1,1.4,0.1,1.1-0.9c0.2-0.5,0.7-0.5,1,0
				c0.3,0.3,0.7,0.1,0.8-0.2c0-0.3-0.3-0.6-0.4-0.8C132.3,180,133.1,179.6,133,179z"/>
			<g>
				<path class="st0" d="M110.9,155c-0.2,0.1-0.5,0.8-0.3,0.9C111.2,156.1,111.3,155.1,110.9,155z"/>
			</g>
			<g>
				<path class="st0" d="M111.7,154.4c0.3,0,1-0.7,1.5-0.6c0.7-0.1,2.7-0.9,1.5-1.8c-0.6-0.3-2.2,0.6-2.3-0.7c0,0-0.1-0.1-0.2-0.2
					c-0.9,0-0.5,1.1-0.7,1.8C111,153.3,111,154.2,111.7,154.4z"/>
			</g>
			<g>
				<path class="st0" d="M125.5,165.4c-1.9-1.9-0.7,1-0.5,1.5c0.5,0.2,0.5-0.5,0.6-0.8C125.8,166,125.6,165.7,125.5,165.4z"/>
			</g>
			<g>
				<path class="st0" d="M130.6,166.4c-0.8-0.2-1.5,0.8-0.7,1.1C130.2,167.4,131.8,166.3,130.6,166.4z"/>
			</g>
			<g>
				<path class="st0" d="M133.9,173.9c-0.4-0.5-1.1,0.4-0.5,0.7c0.3,0.2,1.5,0,0.8,0.6c0.2,0.8,0.5-1.2,1.6,0.4
					c0.5,0.1,1-0.5,0.5-0.9C135.5,174.6,134.2,174.7,133.9,173.9z"/>
			</g>
			<g>
				<path class="st0" d="M134.3,178.7c-0.7,0.1-0.4,1.2,0.3,0.7C134.7,179.2,134.5,178.7,134.3,178.7z"/>
			</g>
			<g>
				<path class="st0" d="M78.1,171c-0.5-0.1-1.6-0.6-2,0.1c-0.9,0.5-0.1,1.1,0.6,0.8c0.6,0,0.8,0.6,1.3,0.7
					C79,172.6,78.3,171.5,78.1,171z"/>
			</g>
			<g>
				<path class="st0" d="M82,159.5c-0.5-0.6-2.3-0.4-1.5,0.6c0.1,0,0.1-0.4,0.3-0.6c0.5-0.3,1.1,0.2,0.7,0.6l0,0
					C81.1,160.7,82.8,160,82,159.5z"/>
			</g>
			<g>
				<path class="st0" d="M79.2,174.1c-0.3,0-0.8-0.7-0.9-0.3c0.3,0.4,0.6,0.4,0.8,1C79.6,175.7,79.4,174.4,79.2,174.1z"/>
			</g>
			<g>
				<path class="st0" d="M88.4,35.8c0.3-1.2,0.6-2.4,0.8-3.5c-0.1-0.6-0.4-2.4-0.4-3.3c-0.1-0.8-0.4-2.2-0.5-2.9
					c-0.1-1.3,0.1-1.3-0.5-2.3c-0.2-0.6-0.4-0.7-0.8-1.1c-0.3-0.6-1-1.5-1.3-2.1c-0.4-1.5-0.2-2.3-1.2-3.4c-0.9-1.1-1.8-2.1-2.9-3
					c-0.1-0.1-0.9-0.4-1.1-0.6c0-1.4,1.6-2.1,2.6-2.9c0.1-0.5,0.8-1.7,1.3-2.1c0.8-0.4,1.7,0.2,1.4,1.1c-0.4,0.9,0.6,1.8,0.7,2.7
					c-0.1,0.2-0.3,0.1-0.6,0.4c-0.2,0.4-0.7,1.2-0.9,1.4c0,1,0.7,2.4,1.3,3c-0.2,0.6-1.3-0.2-1-0.6c-0.2-0.7-0.6-1.3-0.8-1.9
					c-0.7-0.9-2.3-2.4-0.5-2.5c1.9,0.1,1.7-0.6,0.1-1.5c-0.4,0-0.6,0.4-0.8,0.7c-0.5,0.6-1,0.6-1.3,1.3c-0.2,0.9,0.5,2.6,1.4,3
					c0-0.6,1-0.5,1.1,0.1c-0.1,0.4-0.3,0.4,0.1,0.8c0.4,0.9,1.7,2.6,2.1,3.3c0.1,0.5,0.1,0.8,0.4,1.3c0.3,1.4,2.1,1.3,1.8,3
					c-0.3,0.5-0.3,0.7,0,1.5c0.1,2,0.8,3.9,0.8,6c-0.5,4-1.2,5,3.4,3.4c2.4-1.5-0.7-4.5,1-6.5c0.7-1.1,1.4-1.9,2-3
					c0.3-0.2,0.4-1,0.1-1.1c-0.5,0-0.9,0.2-1-0.5c-0.6-0.6-1.9-1.8-1.3-2.8c1-0.7,0.5-1.5,0.6-2.5c1.1-0.8,0.2-1.2,0-2
					c-1.3,0.5-0.6,0-1.4-1.1c-0.7-0.4-1.8-1.7-2.2-2.2c-1.1,0.7-0.8,0.8-1.9-0.1c-0.7-0.2-1.5-0.1-1.9,0.3c-1-0.3-0.2-0.7,0.2-1.1
					c0.1-0.7-1.3-2.1-0.9-3c-0.1-1.1,1-1.2,1.6-1.5c0.4-0.4,0.9-0.2,1.3-0.1c0.2-0.3,0.5-0.5,0.8-0.7C90,6.7,90.7,6,90.5,5.6
					c-0.3-0.1-0.3,0.1-0.4,0.3c-0.2,0.1-0.4,0.4-0.7,0.6c-0.9,0.1-2-0.6-0.5-1.2C90,4.4,91.3,5.2,92,6.2c0.8,0.4,1.2,1.2,1.6,2
					c0.3,0.6,0.8,0.9,1.3,1.3c0.3,0.3,0.7,1.2,1.2,1.7c0.9,0.8,0.8,1-0.3,1.3c-0.7,0.3-1.3,1.3-1.8,0.3c-0.3-0.5,0-0.6,0.4-0.9
					c0.3-0.9,0.1-1.3-0.2-2.1c-1.2-2.8,0.1,1.9-2.7,0.5c-2.3-1,0.8-2.7,0.3-4c-0.3-0.2-0.5-0.8-0.8-0.3l0,0c-0.4,0.6-0.7,1.3-0.4,2
					c-0.2,0.5-0.3,0.6-0.2,1.3c-0.1,0.9,0.7,1,0.6,1.9c0.1,1.5,0.3,3.1,1.7,3.6c0.6,0.7,0.7,0.5,1.4,0.7c0.3,0.2,0.4,0.2,0.9,0.3
					c0.7,0.1,0.9,0.1,1.3,0.1c0.5,0.1,0.7,0.3,1.3,0.2c0.6,0,0.7-0.3,0.9-0.7c0.6-0.1,1.5,0,1.5-1c0.2-0.6,0.3-0.6,0.3-0.8
					c-0.1-0.3-0.4-0.6-0.6-1.1c-0.1,0.1-0.2,0.3,0,0.5c0.8,1-0.6,0.3-0.8,0.7c-0.4,0.4-0.7,0.4-1.3,0.8c-0.3,0.2-0.7,0.6-1,0.6
					c-0.1-0.3,0.5-0.5,0.7-0.6c0.2-0.5,0.9-0.9,0.6-1.7c-1.5-1.2,0.8-1.9,1.7-1c0.1,0.4,0.5,0.9,1,1.2c0.2,0.1,0.5-0.2,0.5-0.4
					c0.7-0.4,2.3-0.5,2.7,0.5c0.8,1,1.7,2,2.5,2.8c0.3,1.5,2,2.9,3,4c1.7,1.4,2.4,1.6,3.6,3.3c1.4,1.3,2.7,2.5,3.5,4.8
					c0.6,1.4,1.3,3.1,1.4,4.7c0.3,0.6,0.5,1,0.3,1.7c-0.1,0.7,0.4,0.9,0.6,1.9c0.1,0.5,0.2,2.3,0.3,2.9c0,0.7-0.6,2.2-0.9,2.8
					c-0.3,0.5-0.8,0.9-0.7,1.6c0.2,0.7,0.6,1,0.3,1.8c0.1,0.7,0.4,0.7,0,1.5c-0.1,0.4-0.5,1.1-0.4,1.4c0.1,0.3,0.7,0.7,0.7,1.1
					c-0.5,1.7-0.3,1.7,0.8,2.8c-0.1,0.7-2-1.4-2.2-1.4c-0.7-0.5-1.9-0.6-2.4-0.7c-1.9-1-2.6,0.3-2.9,1.9c-0.5,0.7-1.2,0.3-1.1-0.8
					c0.2-2.5-2.4-4.8-4.5-5.7c-1.4-0.5-1.8,0.2-2.8-0.8c-1-0.9-1.9-1.6-3.2-2.1c-1.5-1.1-3-2.8-5.2-2.3c-2.4-0.1-2.8,1.2-5.1,2.3
					c-0.9,0.4-0.8,0.7-1.4,1c-0.8-0.1-1-1.1-1-1.5c0.2-1.6,1-3.3,1.5-4.7C88.1,36.7,88.2,36.4,88.4,35.8z"/>
			</g>
		</g>
	</g>
</g>
</svg>
