<?xml version="1.0" encoding="utf-8"?>
<!-- Generator: Adobe Illustrator 26.0.3, SVG Export Plug-In . SVG Version: 6.00 Build 0)  -->
<svg version="1.1" id="Layer_1" xmlns="http://www.w3.org/2000/svg" xmlns:xlink="http://www.w3.org/1999/xlink" x="0px" y="0px"
	 viewBox="0 0 200 200" style="enable-background:new 0 0 200 200;" xml:space="preserve">
<style type="text/css">
	.st0{fill:#1E8346;}
</style>
<g id="Isolation_Mode">
	<g>
		<path class="st0" d="M39.5,91.2c0.1-0.3,0.5-0.6,0.7-0.2c0.4-0.4-0.9-0.6-0.7-1c0.6-0.1,0.9-0.7,1.4-0.8c0.2-0.1,0.1-0.4,0.3-0.5
			c0.4,0,0.2,0.4,0.4,0.5c0.3,0.4,0.5,0,0.9,0c0,0,0,0,0,0c0.6-0.4,0.9-0.4,1.1-1.1c0.2-0.2,0.6-0.5,0.6-0.8c0,0,0.1,0,0.1,0
			c-0.2-0.1-0.3-0.6-0.5-0.4c-0.1,0-0.1-0.1-0.2-0.1c-0.1-0.1-0.4,0.2-0.4,0c-0.1-0.3,0.3-0.1,0.4-0.2c-0.1-0.8,0.5,0.4,0.8-0.1
			c0-0.3,0.1-0.4,0.3-0.2c0.4-0.1,0.5-0.7,0.9-0.7c0.9,0.2,1.6-0.4,2.4-0.6c0.7,0.1,0.6-1.5,0.4-2c0,0.1-0.1,0.2-0.1,0.3
			c-0.6-0.4-0.7-1.1-0.6-1.9c0-0.4-0.8-0.9-0.2-1.2c0.2-0.1,0.2-0.3,0.2-0.4c0.1-0.3,0.4-0.5,0-0.7c0,0.3,0,0.8-0.4,0.8
			c0.1-0.4,0.3-1,0.1-1.4c0,0.1,0,0.2-0.1,0.2c-0.1-1-0.4-1.9-1.3-2.5c-0.7-0.4-0.9-1.2-1.5-1.7c-0.3-0.6-0.8-1-1.1-1.6
			c-0.2-0.3-0.2-0.9-0.7-1c-0.4-0.5-0.3-1.2-0.6-1.7c-0.4-0.5-0.1-1.1,0-1.6c-0.7-0.4-0.8-0.3-0.8,0.5c0.1,0.1,0.1,0.3-0.1,0.2
			c-0.2-0.2-0.2-0.5-0.2-0.7c-0.8-0.4,0.1-1.3,0-2c0-0.2,0.2-0.3,0.3-0.3c0.4-0.2-0.2-0.6-0.2-0.9c-0.1-0.1-0.4-0.2-0.5,0
			c-0.1,0.3-0.4-0.1-0.6-0.2c0.5-0.2-0.2-0.4,0.2-0.7c0.5-0.8-0.3-1.5-0.8-2c-0.2,0.2-0.3-0.2-0.4,0.1c-0.2,0.1-0.5-0.5-0.6-0.1
			c0,0.2,0.2,0.1,0.2,0.1c0.1,0.1,0,0.2,0.1,0.2c0,0,0.2,0,0.2,0.1c-0.5,0.1-1.1,0.5-1.6,0.4c-0.2-0.2-0.6,0.1-0.7-0.2
			c0-0.1,0-0.2-0.1-0.3c-0.7-0.4-1.6-0.2-2.4-0.4c0.5-0.5,1.3,0.3,1.9-0.2c-0.5-0.5-1.9-1-2.2-0.2c0,1.4,1.3,2.5,1.4,3.8
			c0.5,0.4,0.4,0.9,0.2,1.4c0,0.2,0.3,0.3,0.2,0.5c-0.5,0.4-0.1,0.6-0.2,1.2c-0.5,0.6-1,0.8-0.4,1.5c0.3,0.6-0.9,3-1.6,2.5
			c-0.4,0.1-0.3,0.6-0.3,0.9c-0.1,0.2-0.5,0.3-0.5,0.6c-1.6,0.8,1,0.8,1.2,1.5c-0.5-0.4-1.2-0.2-1.6-0.5c-0.9-0.4-0.6,0.5-0.6,1
			c-0.2-0.1-0.3-0.2-0.3,0.1c0,0.2-0.3,0.2-0.3,0.4c0,0,0,0,0,0c0.3,0.3,0.6,1,1,0.7c0.3,0,0.1,0.3,0.1,0.5c0.2,0.2,0.2,0.3,0.2,0.6
			c0,0.2,0.1,0.3,0.1,0.4c0.6,0-0.4-0.5,0.6-0.7c0.4-0.3-0.3-0.5-0.1-0.8c0.1-0.4-0.4-0.3-0.4-0.6c0.2-0.5-0.4-0.6-0.6-1
			c0.3,0.1,0.6,0.5,0.7,0.7c0,0.2,0,0.4,0.2,0.3c0.2-0.2,0.2,0.1,0.3,0.2c1,0.4,0.5,0,0.5,1c0.2-0.1,0.3-0.2,0.5-0.3
			c0,0.3-0.3,0.6-0.6,0.7c0,0.2,0.1,0.4-0.1,0.4c-0.1,0.1,0.3,0.2,0.2,0.1c0-0.1,0.1-0.3,0.2-0.1c0,0.2-0.3,0.4-0.2,0.7
			c-0.4,0.1-1.1-0.5-1.2,0.2c-0.1,0.4,1,0.6,0.2,0.9c-0.3-0.3-0.4,0.4-0.4-0.1c0-0.3-0.1-0.6-0.1-1c-0.2-0.1-0.1-0.3,0-0.5
			c0-0.2-0.1-0.4,0-0.7c-0.3,0,0-0.5-0.3-0.4c-0.5,0-0.4-0.5-0.8-0.6c-0.2,0.3-0.6-0.2-0.8,0.2c-0.1,0.4,0.3,0.6,0.1,1
			c-0.4-0.3-0.6-0.8-0.7-1.2c-0.2,0.3-0.6,0.4-0.4,0.8c0.6,0.1,0.7,0.6,0,0.3c-0.4,0,0,0.4-0.1,0.6c-0.6,0.5-1.1,1.1-1.9,1.3
			c-0.4,0.6,0.9,1,1.2,1.4c0.8,1,0.6-0.4,0.7-0.9c0.4,0.4,0,1.3,0.2,1.8c1.5,0.7,2.6,2.1,4.1,2.7c0.3,0.2,0.4,0.2,0.7,0.1
			c0.2,0.8,0.8-0.4,1.1-0.5c0.7-0.4,1.3-0.8,1.6-1.6c-0.1,0.3-0.1,0.6,0,0.9c-0.2,0.4-0.6,0.5-0.8,0.8c-1.7,1.1-0.7,2.1,0.7,2.7
			c0.2-0.2,0.2-0.4,0.3-0.6c0,0.8,0.8,1.3,1.1,2c0.3,0.7,0.4,1.5,1,2.1C39.4,91.3,39.4,91.3,39.5,91.2z M28.5,80.9
			c-0.3,0.4-0.5-0.2,0-0.2C28.5,80.8,28.5,80.8,28.5,80.9z M29.3,79.9c-0.2-0.1-0.1-0.4,0.1-0.4C29.4,79.6,29.5,80,29.3,79.9z
			 M30.5,77.6c-0.1-0.1,0.1-0.1,0.1-0.2c0.4,0.3,0.3,0.9,0.9,0.7c0.3,0.1,0.3,1.6-0.1,0.9c-0.2,0.2-0.7-0.1-0.4-0.3
			c0.3,0.1,0.6-0.2,0.5-0.5C30.8,78.4,30.9,77.8,30.5,77.6z M29.8,79.5c0-0.3-0.3-0.2,0-0.5c0.2,0.5,0.5-0.3,0.6,0.2
			c0.1,0.3,0.4,0.4,0.7,0.6c0.1,0.1,0,0.1-0.1,0.1c-0.2,0-0.1,0.4-0.3,0.5c0.1-0.2-0.1-0.3,0-0.5c-0.1-0.1-0.3,0-0.3-0.2
			c-0.3-0.2-0.3,0.3-0.5,0.4c0-0.1,0-0.3,0-0.4c0.1-0.1,0.1-0.2,0-0.2C30,79.5,29.9,79.6,29.8,79.5z M30.4,80.7
			c-0.2-0.3-0.2,0.4-0.4,0.4c-0.1-0.2,0.2-0.3,0.1-0.5c-0.4-0.1,0-0.3,0.2-0.3c0.1-0.1,0.1-0.3,0.3-0.2
			C30.8,80.2,30.7,80.8,30.4,80.7z M32.2,81.6c-0.1,0.4-0.4-0.2-0.4-0.3c-0.2-0.2,0.1-0.5-0.1-0.7c-0.1,0.2-0.2,0.4-0.2,0.6
			c0-0.1-0.1-0.2-0.2-0.3c-0.2,0.1-0.7,1-0.7,0.4C30.7,81,31,81,31,80.7c0.1-0.3,0.2-0.1,0.4-0.2c0.2-0.5,0.7-0.6,0.5-1.3
			c0.4,0.2,0.4,1,0.2,1.3c-0.2,0.1,0.1,0.3,0,0.5C31.9,81.7,32.4,80.8,32.2,81.6z M35.3,76.5c0.3-0.1,0.3,0.3,0.3,0.5
			c0.1,0.1,0.2,0.1,0.1,0.2c0,0.1,0.1,0.3-0.1,0.3c-0.1-0.2-0.1-0.4-0.3-0.2c-0.1-0.1-0.4,0-0.3-0.2C35.1,76.9,35.4,77,35.3,76.5z
			 M34.7,75.4c0.1,0.2,0.9,0.9,0.2,0.5c-0.3-0.1-0.5-0.1-0.5-0.5C34.6,75.3,34.6,75.3,34.7,75.4z M33.7,75.1c-0.2,0-0.7-0.2-0.3-0.3
			c0,0.1,0.2,0.1,0.3,0C34.1,74.7,34.2,75.3,33.7,75.1z M34.1,76.7c-0.2,0-0.8-0.2-0.2-0.2c0.2,0,0.1-0.4,0.1-0.5
			C34.4,76,34.6,76.9,34.1,76.7z M33.5,82.9c-0.3,0,0,0.7-0.3,0.5c0.1-1-0.2-0.1-0.6,0.1c0.1-0.2,0.1-0.5,0.3-0.6
			c0.1-0.1-0.2-0.2-0.1-0.3c0.4,0,0.3-0.2,0.6,0C33.5,82.3,33.6,82.8,33.5,82.9z M36.2,82.9c-0.1,0.1-0.1,0.5-0.4,0.5
			c-0.1-0.2,0.2-0.9-0.2-0.8c-0.3-0.2-0.2,0.1-0.3,0.2c-0.3-0.1-0.1,0.1-0.1,0.3c-0.1,0.3-0.5,0.4-0.6,0.7c0-0.3-0.4,0-0.1-0.4
			c0-0.1-0.1-0.1-0.2-0.2c0.1-0.1,0.1-0.2-0.1-0.2c-0.1-0.3,0.5-0.1,0.4-0.4c-0.1-0.1-0.4-0.1-0.4,0c-0.2,0.2-0.4,0.1-0.3-0.2
			c-0.1,0-0.3,0-0.2-0.1c0.1-0.1-0.1-0.1-0.2-0.2c0-0.1-0.1-0.1-0.2-0.1c-0.1-0.1-0.4-0.3-0.1-0.5c0.2,0,0.1,0.2,0.2,0.2
			c0.3,0.2,0.4,0,0.3-0.3c-0.1-0.2-0.8-0.8-0.6-0.2c-0.1,0-0.2-0.2-0.2,0c-0.1,0,0,0.2,0.1,0.2c0.1,0.3,0.2,0.6,0.3,0.9
			c-0.3,0-0.7,0-0.5-0.4c-0.1-0.6-0.1-1,0.2-1.4c0-0.4-0.2-1,0.4-0.8c0.1,0,0.2,0,0.3-0.1c-0.1-0.5,0.3-0.2,0.2,0.1
			c0.2,0,0.4-0.4,0.4,0.1c0.1,0.1,0.2,0,0.3-0.1c0.2-0.1,0.2,0.1,0.1,0.2c0,0.1,0,0.3,0.2,0.2c0.1,0.1,0.5,0.7,0.1,0.5
			c-0.2-0.1,0,0.5-0.2,0.5c-0.2-0.2-0.1-0.8-0.6-0.6c-0.2,0.1-0.2-0.2-0.2-0.3c-0.1-0.3-0.5-0.2-0.4,0.1c-0.2,0.5,0.3,0.8,0.3,1.3
			c-0.1,0.4,0.2,0.4,0.4,0.6c0,0,0.2,0.2,0.2,0c0.1-0.7,0.2,0.2,0.4,0.3c0,0.1-0.2,0.2-0.1,0.3c0.4-0.2,0.4-0.7,0.7-1
			c0-0.2-0.3-0.2-0.2-0.5c0.3-0.3-0.3-1,0.3-1.2c0,0.3,0.1,0.6,0.3,0.8c0.1,0.1-0.1,0.1-0.1,0.2c0.1,0.3,0.3,0.2,0.1,0.7
			c0,0.1-0.1,0.2-0.2,0.2c-0.2,0.1,0,0.3,0.1,0.1c0.1,0.1,0,0.3,0.1,0.4C36.2,82.6,36.3,82.8,36.2,82.9z M41.1,82.2
			c-0.2-0.1,0.2-0.3,0.3-0.4C41.4,82,41.3,82.3,41.1,82.2z M45.7,83.9c-0.1,0.2-0.2-0.1-0.3-0.1c-0.2,0-0.6,0.1-0.4-0.3
			c0.1,0,0.3,0.1,0.4,0C45.5,83.6,45.8,83.8,45.7,83.9z M42.7,77.5c0.5-0.5,1.2,0.4,1.6,0c0.1,0,0.1,0.1,0.2,0
			c0.2,0,0.3-0.6,0.5-0.6c0.1,0.1-0.1,0.2-0.1,0.3c0,0,0.1,0,0.1,0c-0.1,0.1-0.3,0.1-0.3,0.3c0.4,0.2,0.6-0.2,0.9-0.3
			c0.2-0.1-0.1-0.3,0-0.3c0.2,0.1,0.5,0,0.7,0c-0.5,0.3-0.4,0.4-0.9,0.8c-0.2,0.3-0.8-0.1-0.8,0.3c0.1,0.3,0.1,0.4-0.2,0.4
			c-0.4,0.2-0.3-0.1-0.2-0.3c0-0.5-0.8-0.5-1.2-0.5c-0.3,0.1-0.7,0.4-0.9,0.1C42.3,77.5,42.6,77.6,42.7,77.5z M39.2,72
			c1.4,0.6,0.8-0.2,1.4-0.9c0,0.4-0.3,0.8-0.1,1.2c0.2-0.2,0.3,0,0.4,0.2c0.5-0.1,0.9-0.4,1.2-0.9c0.1-0.2,0.4,0,0.1,0.1
			c-0.2,0-0.1,0.2-0.2,0.3c-0.8,1.2-2.2,0.4-3.2-0.1C38.9,71.9,39,71.9,39.2,72z M40.9,79.8c0.3-0.2,0.3,0.5,0.1,0.5
			c-0.1-0.1,0-0.2,0-0.2C41.1,80,40.9,79.9,40.9,79.8z M40.2,77c-0.4-0.1-0.7,0.1-1,0.1c0-0.2,0.4-0.2,0.4-0.4
			C39.8,76.8,40.6,76.9,40.2,77z M37.3,76.8c0.1,0,0.1,0,0.2,0c0.2,0.3-0.3,0.8-0.3,0.3c-0.1-0.4-0.6-0.1-0.8-0.4
			C36.7,76.6,37,76.7,37.3,76.8z M37.6,80.7c0,0.2-0.3,0.3-0.4,0.2C37.1,80.8,37.5,80.7,37.6,80.7z M36.3,73.1
			c0.2-0.2,0.1-0.1,0-0.3c0,0,0.1-0.1,0.1,0c0.3,0.1,0.3-0.1,0.5-0.3c0.3,0.5-0.4,0.5-0.7,0.7C36.3,73.2,36.3,73.2,36.3,73.1z
			 M36.7,83.5c-0.2,0-0.4,0.5-0.4,0.2c0.1-0.1,0.4-0.3,0.3-0.5c-0.3-0.1-0.1-0.2,0.1-0.3C36.7,83.2,36.6,83.3,36.7,83.5z M37.6,82.1
			c-0.2,0.1-0.2-0.1-0.4-0.2c-0.2,0-0.3-0.1-0.4-0.2c0,0-0.1,0.1-0.1,0.1c0-0.4-0.3-1.7,0.4-1.2c-0.1,0.4-0.1,0.8,0.3,0.8
			C37.5,81.6,37.7,82.1,37.6,82.1z M37.6,72.6c-0.2,0-0.1-0.3,0-0.3C37.8,72.3,37.8,72.6,37.6,72.6z M37.8,81.6
			c-0.2-0.2,0.1-0.3,0.2-0.3c0.1-0.1-0.2-0.2-0.1-0.3c0.4-0.2,1.7,0.3,1,0.5c-0.2,0.1-0.4,0-0.5-0.1C38.1,81.4,37.9,81.8,37.8,81.6z
			 M38.7,86.1c0-0.1-0.1-0.3-0.1-0.4c-0.3,0.1,0-0.6-0.3-0.3c0,0-0.2,0.2-0.3,0.1c-0.1-0.3,0.3-0.4,0.3-0.6c-0.1-0.2-0.1-0.5,0-0.7
			c0-0.2-0.1-0.4,0.1-0.6c0.1-0.3-0.5-0.2-0.5-0.4c0-0.3,0.6-0.2,0.7,0c0.2,0.1,0.5,0.1,0.4,0.4c-0.3,0.4-0.4,1.2,0.1,1.4
			c-0.1,0.3-0.7,1.1,0.1,0.6C39.1,85.8,39,86.1,38.7,86.1z M39.4,82.2c-0.2-0.1-0.3,0.4-0.5,0.3c-0.1-0.2-0.3-0.1-0.4,0
			c-0.2,0-0.2-0.1-0.4-0.1c0.2-0.2,0.5,0.1,0.7-0.1c0.1-0.1,0-0.3,0.2-0.4c0.1,0.3,0.5,0.2,0.4-0.1c-0.1-0.1-0.1-0.2,0.1-0.2
			c0.6,0,0.8-0.8,1.4-0.7c0.3,0.1,0.7,0,1,0.1C41.5,81.2,41,81,40.6,81c-0.6,0.3-1,0.9-1,1.5C39.5,82.5,39.5,82.2,39.4,82.2z"/>
		<path class="st0" d="M48.4,89c0.4,0,0.7-0.1,1,0c0.2-0.9-0.6-1.9-0.7-2.8c-0.7-0.2-0.5,0.9-1,1c-0.2-0.1-0.4-0.1-0.5,0.1
			c-0.2,0.1-0.6,0-0.7,0.2c-0.1,0.2,0.3,0.2,0.4,0.3c0.2,0.4-0.8,0.5-1,0.9c-0.2,0.1-0.2,0.3,0,0.4c0.2,0.1,0.5-0.3,0.7-0.2
			c-0.1,0.3-0.6,0.2-0.5,0.6c0.4-0.2,0.5,0.2,0.8,0.2C47.5,89.6,47.7,88.9,48.4,89z"/>
		<path class="st0" d="M46.1,88c-0.1,0.2-0.5,0.1-0.4,0.4c-0.1,0.1-0.1,0.1-0.1,0.2C45.8,88.5,46.3,88.2,46.1,88z"/>
		<path class="st0" d="M44.2,89.6c0.5-0.1,1.1-0.5,1-1.1C44.4,88.5,42.9,88.7,44.2,89.6z"/>
		<path class="st0" d="M43.4,89.4c0.1-0.1,0.3-0.3,0-0.4C43.1,89.1,42.9,89.5,43.4,89.4z"/>
		<path class="st0" d="M42.6,89.6c0.7-0.1-0.3-0.6-0.4-0.2C42.4,89.6,42.6,89.5,42.6,89.6z"/>
		<path class="st0" d="M42.5,90.3c0.3-0.3,0.9-0.2,1.3-0.4c-0.1-0.1-0.3,0-0.4,0c0,0,0-0.1,0.1-0.1c-0.3-0.1-0.5,0.3-0.8,0.3
			C42.7,90.1,42.4,90.3,42.5,90.3z"/>
		<path class="st0" d="M45.5,90.9c0.6,0.9,1.3-0.5,2.1-0.5c-0.3-0.1-0.5,0-0.7,0.1c-0.3,0-0.9-0.1-0.9,0.4
			C45.8,91.1,45.6,90.7,45.5,90.9z"/>
		<path class="st0" d="M40.8,93.2c0.4-0.5,1.1-0.2,1.4-0.6c-0.2-0.2-0.6-0.5-0.2-0.7c0.1,0,0.2,0,0.2-0.2c0-0.3,0.5-0.2,0.5-0.5
			c-0.4-0.1-0.8-0.5-1.2-0.1c-0.3,0.3-0.6,0.9-1.1,0.9c-0.2,0-0.6-0.1-0.5-0.4c0.3-0.5,1-0.4,1.3-0.9c-0.1-0.6-1,0.4-1.4,0.3
			c0,0.3-0.2,0.4-0.4,0.6c-0.1-0.1-0.2-0.2-0.2-0.3c-0.4-0.2-0.1,0.4,0.1,0.4C39.8,92.5,40.5,92.8,40.8,93.2z"/>
		<path class="st0" d="M42.9,94.4c0.5-0.3,1.1-0.4,1.7-0.7c0.2-0.3-0.3-0.6,0-0.8c0.7-0.2,0.2-0.8-0.3-0.7c0-0.4,0.6-0.3,0.8-0.4
			c0.4,0.8,1.8-0.3,0.7-0.5c-0.3-0.1-0.5,0-0.8,0c-0.2-0.2-0.5-0.1-0.7,0.1c0,0,0-0.1,0-0.1c-0.1,0-0.1,0-0.2,0
			c0-0.1,0.1-0.2,0.1-0.3c-0.5-0.1-0.9,0.7-1,1.2c0.3-0.2,0.7-0.4,1-0.6c0.1,0.3,0,0.5-0.3,0.5c-0.2,0.2-0.1,0.6-0.1,0.9
			c0,0.5-0.6,0.1-0.9,0.2c-0.1,0.1-0.1,0.4-0.3,0.4c-0.1-0.1-0.1-0.3,0.1-0.3c0-0.2-0.6-0.1-0.7,0c0,0.1,0,0.3-0.1,0.4
			c-0.3,0.3-0.8-0.6-0.9-0.1c-0.1,0.2-0.2,0.4,0.1,0.5c0.2,0.3,0.4,0.5,0.6,0.8C42.1,95,42.3,94.3,42.9,94.4z"/>
		<path class="st0" d="M45.4,99.1c0.1,0.4,0.6,0.4,0.8,0.1c-0.3-0.2,0.3-0.4,0.2-0.6c-0.6-0.4-0.4-0.8,0.3-0.6
			c0.1,0.3,0.5-0.1,0.7-0.1c1.2,0.6,1,0.1,1.3-0.9c0.1-0.5,0.3-1.2,0.8-1.5c0.3-0.2,0.4-0.2,0.2-0.5c0.1,0,0.2-0.1,0.1-0.2
			c-0.4,0.1-0.7-0.4-1.1-0.2c0.4,0.9-0.6,1.8-1.4,0.8c0.4-0.4,1.1-0.4,1.1-1.1c0-0.3,0.4-0.3,0.7-0.2c0,0.1,0,0.1,0,0.1
			c0.5,0,0.9-0.2,1,0.4c0.4,0.3,0.4-0.9,0.4-1.1c0.3-0.5,0.5-1,0.7-1.4c-1.1,0-1.1-1.3-1.5-2c-0.7,0.2-1.3,0.5-1.8,1
			c-0.3,0.1-0.5-0.1-0.8,0.1c-0.4,0.3-0.3,0.9-0.9,0.9c-0.3,0-0.6,0.3-0.8,0.6c-0.1,0.2,0,0.7-0.4,0.6c-0.4,0.2,0.1,0.4,0,0.7
			c0,0.2-0.2,0.2-0.2,0.4c0,0.3-0.3,0.3-0.5,0.5c-0.2,0.9-0.9,0.6-1.4,0.2c-0.3,0.8,0.8,1.2,0.7,2c-0.3,0.1-0.6-0.2-0.8-0.3
			c-0.4-0.1-0.2,0.3,0.1,0.4c0.4,0.4,0.8,0.6,1.4,0.4c0.5,0.2,0.2,0.6,0.2,0.9C44.7,98.7,45.2,98.8,45.4,99.1z"/>
		<path class="st0" d="M54.3,101.5c-0.1-1.9-0.8-3.7-0.9-5.5c-0.4-0.8-1.1-1.6-1.2-2.5c0-0.3,0-0.6-0.3-0.7c-0.8,0.4-0.8,1.2-1,1.9
			c-0.3,0.8-1.1,1.1-1.3,2C49,97.9,49,99,47.3,98.5c-0.2,0.3-0.3,0.7-0.7,0.9c-0.1,0.5-0.5,0.5-0.8,0.2c-0.2-0.1-0.5,0.1-0.7,0.2
			c0,0.3,0.4,0.5,0.7,0.6c0.2,0.4-0.7,0.8,0.1,1c-0.8,0.6-0.2,0.8,0.6,0.9c-0.1,0.1-0.5,0-0.3,0.2c0.2,0,0.4,0,0.5-0.1
			c0.2,0.3-0.1,0.2-0.2,0.3c-0.9,0.5,1.1,0.3,0.1,0.7c-0.5-0.2-1,0-0.5,0.5c0.2,0.2,0.1,0.2-0.1,0.4c0.3,0.3,1.5,0,1.9-0.1
			c0.2-0.3,1-0.4,1.1,0c0.3,0,0.5-0.1,0.7-0.1c-0.4,0.4-1.3,0.4-1.8,0.3c-0.3,0.1-0.5,0.4-0.8,0.3c-1-0.2,0.3,0.9,0.1,1.3
			c-0.3-0.1-0.7-0.3-0.7,0.2c-0.4,0.3-0.1,0.7,0.2,1c0.2,0.2,0.7,0.5,0.9,0.4c0.2-0.2,0.4-0.3,0.7-0.2c0.8,0.1,1.7,0.3,2.2,0.9
			c0.2-0.1,0.1-0.6,0.4-0.7c0.1,0.1,0.2,0.1,0.3,0c-0.4,0.8,0.6,1.2,0.3,0.3c0.1-0.4,0.4-0.1,0.4,0.2c0.2,0.1,0.6,0.1,0.8,0
			C54.3,106.5,54.8,103.6,54.3,101.5z"/>
		<path class="st0" d="M48.8,108.6c-0.1-0.1-0.1-0.1-0.1-0.3c-0.1,0.2-0.3,0.5-0.2,0.7c0,0.2-0.4,0-0.4,0c-0.3,0.1-0.2,0.5,0.1,0.2
			c-0.2,0.6,0.3,0.6,0.5,0.1c0.1-0.1,0.1,0.1,0.3,0C49,109.2,48.9,108.8,48.8,108.6z"/>
		<path class="st0" d="M45.7,106.9c-0.2-0.2-0.7-0.2-0.4,0.2C45.4,107.3,46.1,107,45.7,106.9z"/>
		<path class="st0" d="M46,107.3c-0.2,0.1,0,0.4,0.2,0.4C46.3,107.7,46.1,107.4,46,107.3z"/>
		<path class="st0" d="M45.9,106.3c0.5-0.2-0.2-0.5-0.3-0.2C45.6,106.3,45.7,106.5,45.9,106.3z"/>
		<path class="st0" d="M46.5,105.9c0.1-0.3-0.3-0.2-0.4-0.4c-0.4-0.1-0.6,0.4-0.1,0.3c0.1,0,0.2,0,0.3,0.1
			C46.3,106.1,46.4,106.1,46.5,105.9z"/>
		<path class="st0" d="M46.5,105.5c0.3-0.1,0-0.2-0.2-0.2C46.1,105.4,46.4,105.6,46.5,105.5z"/>
		<path class="st0" d="M61.5,66.7c-1-0.7-2.6-1.8-3.8-0.8c-0.8-0.9-1.7,0.3-2.6,0.4c-0.6-0.2-0.7,0.5-1,0.9c0-0.1,0-0.1-0.1-0.2
			c-0.5,0.1-1,0.1-0.7,0.8c0.2,0.5,1.1,0.2,1.5,0.3c0.3,0.3,0.6,0,0.9,0.1c0,1.1,2.1-0.4,1.8,0.5c0.6,0.4,1-0.6,1.6-0.6
			c0.3-0.4,1,0,1.4-0.4C61,67.6,62.1,67.2,61.5,66.7z M57.1,66.8c-0.1,0.3-0.6,0.5-0.6,0.2c-0.6-0.3,0-0.5,0.4-0.7
			C57.1,66.4,57.1,66.6,57.1,66.8z"/>
		<path class="st0" d="M56.9,66.3c-0.5,0.2-1,0.4-0.4,0.7c0.1,0.1,0,0.2,0.2,0.2C57,67.2,57.3,66.5,56.9,66.3z"/>
		<path class="st0" d="M5.7,42.8c-0.5-1-2.6,0.8-1.8,1.7c0.3,0.5,1.4,1,1.7,0.3c-0.3-0.3-2-0.7-0.6-1.4c-0.2,0.4,0.2,0.6,0.6,0.7
			C6.5,44.2,5.8,43.2,5.7,42.8z"/>
		<path class="st0" d="M31.2,18.5c3.6-0.7,7.1-1.4,10.7-1.9c1,0.6,4.4,1.4,2.9-0.7c-0.3-0.9-0.1-1.9-0.6-2.8
			c-1.1,1.6-2.4,1.4-4.2,1.3c-0.9,0.1-1.1,1-2.1,0.8c-0.7-0.4-1.2-0.8-1.9-0.1c-0.9,0.4-1.4-0.6-2.2-0.2c-2,1.4-4,0.3-6-0.1
			c-0.1-1-0.3-0.6-1-0.4c-1.1-0.1-0.5-3-1.7-2.7c-0.9,0.6-0.4,2.4-1.7,2.8c1.9,0.2,1.8,0.2,0.8,1.7c-0.2,0.8-0.4,1.2-0.8,1.9
			c-0.6-1.2-1,0-1.3,0.6c-0.3,0.3-0.8,0.3-1.2,0.5c-0.4,0.2-0.4,0.8-1,0.6c-0.6-0.2-1-1.1-1.4-1.5c-0.7-0.4-1.1-0.3-1.3-1.2
			c-0.9-0.2-3.5-3.1-4-1.4c2,0.6,2.6,2.7,4.2,3.7c1.8,0.7,3,2.9,5.2,2.3C25,19.9,28.3,19.4,31.2,18.5z"/>
		<path class="st0" d="M35.6,8c0.2-0.4,0.1-0.9,0.4-1.2c0.3-0.4,0.7-0.4,0.7-1c-0.8-0.2-2.1,0.9-2.2,1.7C34.7,7.9,35.1,7.2,35.6,8z"
			/>
		<path class="st0" d="M44.4,9.7c2.2-1.2,4.4-0.3,6.7,0.3c0.7,0.2,1.7,1.1,2.3,0.3c0.3-0.1,0.7-0.1,0.5-0.6C53,9,51.2,9.5,50.1,9
			c-2.1-0.6-4.7-1-6.5,0.5C43.7,9.9,44.2,9.7,44.4,9.7z"/>
		<path class="st0" d="M45,10.1c-0.5-0.3-1,0.3-0.3,0.5C45.2,10.8,45.5,10.5,45,10.1z"/>
		<path class="st0" d="M49.8,10.5c0.4-0.1-0.1-0.6-0.4-0.4C49,10.2,49.6,10.7,49.8,10.5z"/>
		<path class="st0" d="M69.7,27.4c-0.9-1.5,1.2-1.1-0.3-2.3c-0.5-4.8,1.4-3.5-3.6-6.2c-0.7-0.9-1.6-0.6-2.5-0.4
			c-0.5-0.6-1.3-1.3-1.5-2c0.3-0.1,0.6-0.1,0.9-0.2c-3-1.9-5-5.2-8-7.2c-0.2-0.1-0.6-0.5-0.6,0c0,1.2,1.7,0.7,2,1.8
			c0.3,0.5,0.7,0.9,1.1,1.3c0.6,1.1,0,2.6,1,3.6c1,0.4,2.8-1,2.2,0.9c-0.1,0.3,0.1,0.4,0.2,0.7c0.1,0.2-0.1,0.4-0.1,0.7
			c0.1,0.6,1.1,1.3,1.4,0.4c0.5,0.2,0.2,0.7,0.5,0.9c1.3,0.2,2.7,0.1,4,0.8c0.1,1-0.2,1.9-0.6,2.8c-0.8-1-1.5,1.5-0.3,1
			c0.2,0.5,0.1,1,0.3,1.4c-0.4,0-0.7-0.5-0.8-0.8c-0.9-0.1-0.8,0.8-0.7,1.3c-1.7-1.3-1.3,0.2-0.2,0.9c0.1,0.5-0.7,0.7-0.9,1
			c0.5,0.6,1.6,1.2,1,2.2c-0.4,0.4-1.5,0.8-1.3,1.6c0.3,0,0.5,0,0.6-0.3c0.2,0.7-0.2,1.4,0.6,1.7c-1.2,0.6-2,2-3.3,2.5
			c-0.7,0.2-0.6,1.4-1.3,1.6c-0.7,0.1-1.3,0.6-0.2,0.8c0.3,0.3,0.7,0.4,1,0c0.7,0.2,2.2,0.4,2,1.4c0,0.2-0.3,0.7-0.2,0.9
			c1,0,1.8,3.4,2.7,1.5c1-4.3-1.2-11.3,3.7-13.4c0.9,1.5,1.6,0.5,2.2-0.7C70.3,27.3,69.9,27.3,69.7,27.4z"/>
		<path class="st0" d="M71,21.3c-0.2,0.8-1.2,2.8,0.1,3.1c-0.3-1.5,0.8-2.8,0.6-4.2C71.1,20.5,71,20.7,71,21.3z"/>
		<path class="st0" d="M66.5,16.9c0.2,0.2,1.3,0.4,0.9-0.5c-0.4-0.4-1.2-0.6-1.6-1C65.3,15.8,66.2,16.7,66.5,16.9z"/>
		<path class="st0" d="M93.9,62.9c-1.5-0.3-2.5-1.4-3.4-2.6c-0.9-1-1.9-2.6-3.4-2.4c-1.1,0.1-1.7-0.7-2.7-0.9
			c-1.1-0.9-2-1.8-3.3-2.4c-0.2-0.6-0.5-0.7-1.1-0.6c-0.6-0.3-0.3-1.2-1.1-1.3c-0.8,1.8-1.1-0.3-0.2-1c0.9-1.1-2.1-1.7-1.2,0
			c0.1,0.7-0.4,1.2-0.5,1.9c0,0.3,0,0.5-0.2,0.7c-0.6,0.3-0.8,1.3-0.7,1.9c1.1-0.9,1.7-1.8,3.3-0.8c0.8,0.1,1.6-0.4,2,0.6
			c1.2,0.3,1.9,1.3,2.9,2c1.3,0.9,2.9,0.7,4.1,1.5c1.5,1.6,3.1,3.3,4.5,5c1.1,0.8,0.4,2.5,0.4,3.6c-0.4,0.8-1.6,1-1.5,2
			c0,0.7-0.1,2.1,0.9,1.3c0.4,0.6,0.1,1.8-0.8,1.2c-0.2,1.3-0.7,2.1-1.9,0.9c-2.1-1.7-3.2-0.5-0.8,1c1.9,1.2,3.1,2.6,3.5,4.8
			c0.3,0.7,2.3,1.3,1.8,0.1c-0.9-1.3-1.4-3.3-0.7-4.7c0.5-1.1,0.7-2.6,0.2-3.7c-0.4-0.5,0.2-1.2,0.4-1.7c0.5-1.5,0-3.2,0.2-4.7
			C95.3,64,94.7,63.2,93.9,62.9z"/>
		<path class="st0" d="M75.3,56.6c-0.7,0.5-1.1,1.5-1.2,2.4C74.5,58.5,76.3,57.1,75.3,56.6z"/>
		<path class="st0" d="M119.6,95c-0.7-2-0.6-4.1-2.8-5.3c-0.7-1.7-1.8-3.2-3.2-4.4c-0.9-0.9-0.9-2.2-1.7-3.2
			c-0.6-0.7-1.2-0.8-1.3-1.9c0.1-1-0.8-1.2-1.6-1.3c-1-0.4-4.2-2-2.6,0.4c1.8,0.5,1.7,2.7,3,3.2c2.5,0.7,3.5,5.7,5.5,7.6
			c2.7,1,2,3.5-0.6,3.9c-0.5,0.1-2,0.1-1.8,0.9c0.5,1.2,2.1,0.9,2.7,0C116.8,95.6,118,94.1,119.6,95z"/>
		<path class="st0" d="M143.3,97c-0.1-0.9-1.3-1.1-1.6-0.2c-0.3,0.2-0.9,0.5-0.9,0.9c-0.1,1,0.1,1.7-0.5,2.3
			c-0.5,0.3-0.9,1.1-0.3,1.5c0.4,0.2,0.9-0.5,1.3-0.3c0.2,0.1,0.3,0.2,0.6,0.2C143.6,101.1,144,98.3,143.3,97z"/>
		<path class="st0" d="M133.7,109.4c-0.6-0.9-2.2-0.6-3,0c-0.6,0-2,0.3-2,1.1c1.5,0.2,3.2,0.7,4.7,0.3
			C133.7,110.5,133.3,109.9,133.7,109.4z"/>
		<path class="st0" d="M108.2,116.7c-1.5,0.1-2.3-1.2-3.3-2c-0.6-1-1.9-1.2-2.5-2.2c-1.1-1.4-2.3-2.4-3.7-3.6
			c-1,0.4-1.3,1.7-1.3,2.5c0,1.8,2.3,0.4,2.9,1.8c2.4,0.6,3.9,3.3,6.4,4.1C107.6,118,110,117.6,108.2,116.7z"/>
		<path class="st0" d="M109.1,116.7c0.1,1.3,1.6,0.8,2.4,1.3c0.3,0.1,0.9,0.4,1.2,0.2C111.7,117.4,110.4,116.9,109.1,116.7z"/>
		<path class="st0" d="M185.2,182.2c-1.3,0.1-1.6,1.2-1.4,2.3c-2.4,1.7-1.8,3.6-5.2,4c-2.4,0.4-4-2.2-6.2-2.1
			c-0.5,1.7-1.1,1.2-2.5,1.4c-0.4,0.6-0.3,1.9-1.1,2.4c-0.6-0.2-1.1,0.5-1.7,0.5c-1-0.5-1.1,0.1-0.8,1c0.5,1.9-3.1,1-0.7,3
			c0,0-0.2,0.2-0.3,0.2c0,0.7,0.5,1.6,1.2,1.7c0.9-0.1,1.3-1.1,2.4-0.6c2.1,0.1,4.1-0.4,6.2-0.6c0.5-0.2,0.8-0.7,1.4-0.3
			c0.5,0.4,0.8,0.1,1.2-0.2c0.4-0.1,0.7,0.2,1,0.2c2.2-0.6,3.2-0.7,3.7-3.2c0.1-1.2,1.5-1.5,1.9-2.6c1.5-1.5,1-3.3,1.1-5.1
			C185.6,183.5,186.5,182,185.2,182.2z M176.1,193.3c-1.6,1.1-3.7,0.8-5.6,1.1c-0.4,0.2-0.8,0.8-1.1,0.2c-0.3-0.7-3.2,0.2-1.7-1.1
			c-0.1-0.7,0-0.6,0.5-0.9c1.4,0.3,1.9-2.8,3.4-1.7c1.8,0.3,3.1-1.9,4.4,0.3c0.1,0.3-0.1,0.5-0.2,0.7
			C175.7,192.4,176.6,192.7,176.1,193.3z"/>
		<path class="st0" d="M186.9,177.3c-0.9-0.1-1.4-1.9-2-0.3c-0.4,0.3-1.1,0.2-1.4,0.7c0,0.7,0.6,1.7,1,2.2c0.5-0.6,1.2-0.6,1.9-0.7
			C187.1,178.7,188.6,177.8,186.9,177.3z"/>
		<path class="st0" d="M192.3,151.5c-0.9-0.5-1.9-0.6-2.7-1.3c-0.6-0.1-1.4,0.2-1.8-0.4c-0.1-0.4-0.5-0.4-0.8-0.3
			c0,0.2,0.2,0.4,0.3,0.6c-1.2,0.4-2.2-0.7-3.3-1c-1,0-1.7-0.3-2.6-0.6c0.3,1.4-2.3,2.2-0.4,2.8c1.3-0.2,1.8,0.8,2.9,0.9
			c0.7-0.4,1.4-0.8,2.2-0.6c2.3-0.3,4.2,1.3,6.1,2.2C193.6,153.5,194.3,151.4,192.3,151.5z"/>
		<path class="st0" d="M170.8,143.3c3.1,1.3-0.4-1.5-1.1-0.2C170,143.2,170.4,143.3,170.8,143.3z"/>
		<path class="st0" d="M168.2,143.3c-0.3,0.2-0.7,0.4-0.7,0.9C167.7,144.7,168.3,143.7,168.2,143.3z"/>
		<path class="st0" d="M147.4,158.6c-0.5-0.1-0.8,0.5-0.2,0.6C147.5,159.2,147.8,158.8,147.4,158.6z"/>
		<path class="st0" d="M160.9,144.8c0.2-1.2-0.1-2.4-0.5-3.5c-0.3,0-1.3,0-1.4-0.4c0.1-0.9,2.8-0.7,1.9-2c-1.5-0.2-1.4,1.5-3.4,0.3
			c-0.2,0.8-0.2,1.4-1.2,1.7c-0.6-0.4-0.9-0.4-1.1-0.2c-0.5,0.6,0.5,0.6,0.5,1c0.1,0.7-1.9,1.2-0.5,2.1c0.3-0.1,0.5-0.2,0.8-0.4
			c0.3,1.1,1,1.4,2,0.9c1.9,0.1,2.2,2.8,0.5,3.5c-1.1,0.2-1.9,0.8-2.4,1.8c-0.6,0.7-1.8,1-1.8,2.1c-0.2,0.4-0.4,0.4-0.8,0.6
			c-1.4,0.4-1.7,2.1-2.6,2.9c-0.8,0.6-3.8,0.8-2.5,2.6c1.7-1.5,2.5,0.4,3.5-2.7c2.2-2.3,5.4-3.2,7-6.2c0.6-0.5,1.1-1.2,1.7-1.8
			C161.4,146.5,161.3,145.7,160.9,144.8z"/>
		<path class="st0" d="M165.9,128.3c0-1-4.4-0.6-3.8,0.1C163,128.8,165.2,129,165.9,128.3z"/>
		<path class="st0" d="M147.8,141.7c-0.7,0.4-0.9,1.6-1.8,1.9c-0.7,0.5-1.2,2.4-0.2,1.6C146.1,144.6,148.7,142.1,147.8,141.7z"/>
		<path class="st0" d="M146.8,138.5c1,0.4,0.7,1.4,1.2,2c1.4-0.4-0.1-2.1-0.4-2.8c1.9-0.4,1,3.4,2.7,3c0.6-0.2,1-0.8,1.7-0.5
			c-0.1,0.4-0.5,0.6-0.1,1c1.4-0.5,1.6-0.3,2.1-1.8c0.4-0.2,0.9-0.6,0.8-1.1c-1.1,0.1-2.2,0.1-3.1-0.6c-1.5,1.3-1.4,0-2.3-0.6
			c-0.9,0-1.7-0.7-2.6-0.6C145.8,136.7,146.2,138.1,146.8,138.5z"/>
		<path class="st0" d="M132.5,132c-0.4-0.9-1.3-1.4-1.7-2.2c-0.1-0.5,0.1-0.8-0.4-1.1c-1.8-1-5.2-1.4-4.8-4.2
			c0.4-2.8-1.3-4.6-2.7-6.8c-0.8-1.9-0.5-4.4-2.8-5.4c-0.9-0.7-0.6-2.2-1.6-2.8c-0.7-0.2-0.6,0.7-0.3,1c0.5,0.5,0.7,0.8,0.4,1.5
			c-0.3,0.4,0,1.3,0.4,0.6c1.5,1.6,1.8,3.8,2.9,5.6c0.2,0.2,0.5,0.3,0.7,0.4c0.6,0.3,0.1,0.7,0.5,1.1c0.2,0.2,0.5,0.3,0.6,0.5
			c0.3,0.6,0.5,1.5,0.4,2.2c-0.2,0.6-0.8,1.1-0.4,1.7c-0.5,1.7,1.8,1.3,2.1,4c1.4,1.7,4.4,0.6,4.7,3.5c-0.5,1.4,0.2,2.4,1.2,3.2
			c0,0.6,0.3,1.5,0.9,0.6C133.1,134.4,132.5,133.1,132.5,132z"/>
		<path class="st0" d="M129,130.1c-0.1,0.4,0.4,2,1,1.6C130.4,131.3,129.6,130.2,129,130.1z"/>
		<path class="st0" d="M124.5,127.2c-0.2-0.3-0.7-0.3-0.8-0.7c-0.2,0-0.4,0-0.5,0C123.1,127.7,125.8,128.1,124.5,127.2z"/>
		<path class="st0" d="M122.7,125.2c0-0.3-1.1-1.1-1.1-0.4c0.2,0.5,0.9,1.5,1.5,1C122.9,125.6,122.7,125.5,122.7,125.2z"/>
		<path class="st0" d="M122.8,123.6c0-0.2,0-0.7-0.4-0.9c-0.1,0.2-0.2,0.4-0.3,0.6C122.3,123.4,122.7,124.1,122.8,123.6z"/>
		<path class="st0" d="M121.5,123.1c-0.6,0.3-0.2,0.8,0.3,0.9C122,123.9,121.8,123.4,121.5,123.1z"/>
		<path class="st0" d="M107.1,157.8c-0.2,0.2-0.4,1,0.1,0.9C107.5,158.6,107.5,158,107.1,157.8z"/>
		<path class="st0" d="M106.4,156.3c-0.7-0.1-0.6,1-0.1,1C106.7,157.3,106.8,156.3,106.4,156.3z"/>
		<path class="st0" d="M105.9,154.8c-0.5,0.6-0.1,1.7,0.2,0.4C106.1,155,106.1,155,105.9,154.8z"/>
		<path class="st0" d="M105.3,153.4c-0.4-0.1-0.4,0.4-0.1,0.5C105.5,154.1,105.6,153.6,105.3,153.4z"/>
		<path class="st0" d="M104.1,151.3c0,0.3,0.3,1.8,0.5,0.8C104.6,151.8,104.6,151.2,104.1,151.3z"/>
		<path class="st0" d="M103.8,149.6c-0.1,0.2-0.3,0.3-0.3,0.6C103.8,150.2,104.3,149.5,103.8,149.6z"/>
		<path class="st0" d="M156.4,140.1c1-0.6,0.1-1-0.3-0.1C156.2,140.1,156.3,140.1,156.4,140.1z"/>
		<path class="st0" d="M155.3,139.9c0.3,0.2,0.4-0.1,0.1-0.3C155.2,139.5,155.1,139.8,155.3,139.9z"/>
		<path class="st0" d="M154.3,142C153.3,143.2,154.8,143,154.3,142C154.3,142,154.3,142,154.3,142z"/>
		<path class="st0" d="M124.9,104.8c0.1-0.2,0-0.3-0.2-0.4C123.7,103.7,124.3,105.8,124.9,104.8z"/>
		<path class="st0" d="M89.7,99.6c-0.7-0.6-1.5-3.5-2.3-3.1C87,98,92.2,103.2,89.7,99.6z"/>
		<path class="st0" d="M84.8,92c-0.4-0.3-0.8-0.9-1.4-0.9c-0.3,0.8,0.8,1.5,1.4,2C85.5,93.2,85.3,92.2,84.8,92z"/>
		<path class="st0" d="M85.8,93.3c-0.9-0.1,0.4,1.4,0.5,0.6C86.4,93.7,86,93.4,85.8,93.3z"/>
		<path class="st0" d="M84.8,94.1c-0.8-0.2-0.4,0.7,0.1,0.7C85.2,94.6,85.3,94.2,84.8,94.1z"/>
		<path class="st0" d="M86.7,94.7c-0.2,0.2,0.1,0.5,0.4,0.5C87.5,95,87,94.3,86.7,94.7z"/>
		<path class="st0" d="M100,81.5c0.3,0.4,0.6,0.3,1,0.2c0.3,0,0.8,0,1-0.3c-0.6-0.2-1.7-0.1-2.1-0.9C99.1,80.3,99.6,81.3,100,81.5z"
			/>
		<path class="st0" d="M103.9,82c0.9-0.2-0.4-0.9-0.7-0.4C103.1,82.1,103.6,82,103.9,82z"/>
		<path class="st0" d="M80.5,87.3c-1.2,0,0.9,1.4,0.7,0.5C81.1,87.6,80.7,87.6,80.5,87.3z"/>
		<path class="st0" d="M76.3,83.4c-0.2,0.4,0.1,0.8,0.3,1.2C77.3,84.5,76.9,83.5,76.3,83.4z"/>
		<path class="st0" d="M75.8,81.8c-0.4,0.2-0.4,0.8,0.1,0.9C76.4,82.7,76.4,81.8,75.8,81.8z"/>
		<path class="st0" d="M75.1,78.6c-0.4,0.2-0.6,1.9,0,1.5c0.1-0.5,0.1-1.1,0.2-1.6C75.3,78.6,75.3,78.6,75.1,78.6z"/>
		<path class="st0" d="M75.1,73c-0.3,0.2-0.5,1.1,0.1,0.9C75.5,73.8,75.7,73.1,75.1,73z"/>
		<path class="st0" d="M65.9,65c-0.6,0-1,0.5-1.5,0.7c-0.4,0.1-1.1-0.1-0.6,0.5c0.4,0.3,0.8-0.2,1.2-0.4c0.5-0.3,1.4-0.1,1.6-0.8
			C66.4,65.1,66.2,65,65.9,65z"/>
		<path class="st0" d="M75.2,52.2c-0.8-0.4-2.4,0.3-2.2,1.4c0.4-0.3,0.5-0.8,1.1-1C74.3,52.6,75.4,52.7,75.2,52.2z"/>
		<path class="st0" d="M77,51.5c0-0.3-0.8-0.2-0.9,0C76,52,77,51.8,77,51.5z"/>
		<path class="st0" d="M37,58.3c0.4-0.2-0.4-1.1-0.6-0.6C36.3,58,36.7,58.5,37,58.3z"/>
		<path class="st0" d="M36.4,60.5c0.1,0.6,0.8-0.3,0.2-0.3C36.5,60.3,36.4,60.3,36.4,60.5z"/>
		<path class="st0" d="M37.7,59c0.2-0.4-0.7-0.4-0.7-0.1C37.2,59.2,37.6,59.3,37.7,59z"/>
		<path class="st0" d="M37.2,59.9c0.8-0.1-0.4-0.7-0.2-0.2C37,59.8,37.1,59.9,37.2,59.9z"/>
		<path class="st0" d="M46.9,56.5c0.6-0.3,2.4-1,1.6-1.8c-0.3,0.5-0.7,1-1.3,1.1C46.7,55.8,46.1,56.5,46.9,56.5z"/>
		<path class="st0" d="M46.4,54.8c-0.4,0.5-0.9,0.7-1.4,0.8C44.8,56.8,46.9,55.5,46.4,54.8z"/>
		<path class="st0" d="M48.9,52.3c-0.9,2,1.3,0.5,0.3-0.5C49.1,51.9,49,52.1,48.9,52.3z"/>
		<path class="st0" d="M48.4,47.5c-0.7,0,0.3,1.7,0.6,0.9C49.3,48.2,48.9,47.3,48.4,47.5z"/>
		<path class="st0" d="M46.6,46c-0.1-1.2-1.1-2.2-1.8-3.1c-0.4,0.3,0,0.7,0.2,1c0.2,0.5,0.1,1,0.4,1.4C45.6,45.5,46.4,46.7,46.6,46z
			"/>
		<path class="st0" d="M54.6,34.7c0.4,0.8,1.1-0.6,0.4-0.6C54.8,34.3,54.5,34.4,54.6,34.7z"/>
		<path class="st0" d="M53.8,27.2c-0.1,0.1-0.2,0.3-0.1,0.5c0.5,0.3,0.5,0.9,0.6,1.4C55.5,28.9,54.8,27.1,53.8,27.2z"/>
		<path class="st0" d="M62.1,24.5c-1.3,1.8,1.6-0.1,0.2-0.3C62.2,24.3,62.1,24.4,62.1,24.5z"/>
		<path class="st0" d="M63.1,24.1c0.1,0.6,1.3,0.1,0.5-0.3C63.4,23.8,63.1,23.9,63.1,24.1z"/>
		<path class="st0" d="M61.5,26.5c0,0.1,0,0.1,0.1,0.3c0.3,0.2,0.3,0.6,0.4,0.9C62.6,27.5,62.1,26.4,61.5,26.5z"/>
		<path class="st0" d="M63,22.2c-0.3,0.1-0.3,0.5-0.6,0.6c-0.3,0.1-0.1,0.4,0,0.5c0.3,0.5,0.9-0.1,0.9-0.5
			C63.1,22.6,63.4,22.3,63,22.2z"/>
		<path class="st0" d="M65.2,21.4c0.1-0.2,0.3-0.5-0.1-0.7C64.1,20.7,64.5,22.6,65.2,21.4z"/>
		<path class="st0" d="M58.4,18.4c0.3-0.9-1.2-0.3-0.4,0.1C58.2,18.5,58.3,18.5,58.4,18.4z"/>
		<path class="st0" d="M59.8,21c0.2,0,0.2-0.2,0.1-0.4c-0.1,0.1-0.3,0.2-0.4,0.3C59.6,20.9,59.7,21,59.8,21z"/>
		<path class="st0" d="M61.2,20.9c0.1,0.4,0.6,0.3,0.5-0.2C61.6,20.7,61.2,20.6,61.2,20.9z"/>
		<path class="st0" d="M61,13.8c0.4,0.1,0.3-0.6,0.2-0.9C60.7,12.1,60.4,13.7,61,13.8z"/>
		<path class="st0" d="M62,14.5c0.3,0.1,0.3-0.3,0.1-0.5c-0.1,0-0.2,0-0.4,0C61.7,14.1,61.8,14.4,62,14.5z"/>
		<path class="st0" d="M63.8,15.5c0.2,0,0.2-0.1,0.3-0.3C63.6,14.4,63,15.4,63.8,15.5z"/>
		<path class="st0" d="M59.6,11.5c1.2,0.4-0.7-1.3-0.4-0.3C59.2,11.4,59.4,11.5,59.6,11.5z"/>
		<path class="st0" d="M56.8,9.5c0.2,0,0.2-0.2,0.2-0.4C56.2,8.5,56,9.5,56.8,9.5z"/>
		<path class="st0" d="M41,4.2c0.2,0,0.3-0.1,0.4-0.2C41.3,3.4,40,4,41,4.2z"/>
		<path class="st0" d="M39,3.2c0.1,0.1,0.2,0.1,0.4,0.1c0-0.1,0-0.3,0-0.5C39.1,2,38.3,2.8,39,3.2z"/>
		<path class="st0" d="M33.8,14.4c0.4-0.2-0.2-0.6-0.4-0.8C32.7,13.6,33.2,14.8,33.8,14.4z"/>
		<path class="st0" d="M28.8,14.3c0.3,0,0.5-0.8,0-0.8C28.4,13.5,28.4,14.3,28.8,14.3z"/>
		<path class="st0" d="M27.9,13.5c0.3,0,0.8-0.8,0.3-0.7C28,13.1,27.3,13.4,27.9,13.5z"/>
		<path class="st0" d="M27.1,13.3c0.2,0.1,0.4-0.3,0.3-0.5C27,12.7,26.7,13.1,27.1,13.3z"/>
		<path class="st0" d="M24.7,8.6c0.1-0.1,0.1-0.2,0.2-0.3C24.4,7.5,24.2,8.7,24.7,8.6z"/>
	</g>
</g>
<g id="Í_xBC__xB2_ã_1">
</g>
</svg>
