<?xml version="1.0" encoding="utf-8"?>
<!-- Generator: Adobe Illustrator 26.0.3, SVG Export Plug-In . SVG Version: 6.00 Build 0)  -->
<svg version="1.1" id="Layer_1" xmlns="http://www.w3.org/2000/svg" xmlns:xlink="http://www.w3.org/1999/xlink" x="0px" y="0px"
	 viewBox="0 0 200 200" style="enable-background:new 0 0 200 200;" xml:space="preserve">
<style type="text/css">
	.st0{fill:#1E8346;}
</style>
<g id="Layer_1_00000139276385465202358360000008617397288540171662_">
	<g id="Layer_1_00000061442898653323928190000005571608892069918396_">
		<g id="Layer_1_00000098929087308412571940000004538787532203942811_">
		</g>
	</g>
</g>
<g id="Isolation_Mode">
	<g>
		<path class="st0" d="M197.1,120.8c-1.6-2.9-3.3,0-4.9-1.6c-0.3-0.3-0.7-0.6-1.2-0.4c-0.5,0-0.4-0.8-0.8-0.9
			c-0.7-0.9-1.4-2.2-2.7-2.5c-0.3-0.5-1.1-0.5-1.1-1.2c-0.1-0.3,0.4-0.5,0-0.8c-0.7-0.3-1.7,0.2-2.4-0.3c-0.3-0.5-0.8-0.6-1.3-0.4
			c0-0.8-0.8-0.7-1.4-0.7c-0.3,0.1-0.9-0.1-0.9,0.3c-0.2,0.1-0.2-0.3-0.4-0.2c-0.2,0.3-0.4,0-0.5-0.2c-1.2-0.1-2.2-0.6-3.5-0.5
			c-0.9-0.2-1.8-0.6-2.8-0.4c-0.3-0.2-0.4-1-0.9-1c-0.1,0.1-0.1,0.3-0.3,0.4c-0.4-0.1-0.8,0.1-0.4,0.5c-0.2,0.1-0.4,0.4-0.6,0.5
			c0.1-0.4-0.3-1.6-0.7-0.8c-0.2,0.1-0.4-0.1-0.5,0.1c-0.1,0.3-0.3,0.6-0.6,0.6c-0.2,0.1,0,0.5-0.3,0.6c-1.5-0.1-1.5-0.9-1.1-2.1
			c0.5-0.9,1.9-0.1,2.5-0.8c0.4-0.1,0.3,0.5,0.6,0.6c0.5,0.7,0.9,0.6,0.7-0.3c-0.5,0-0.5-1-1.2-0.9c-1.1,0.1,0-0.4,0.3-0.8
			c0-0.6,0.7-0.8,0.7-1.4c0-1-0.7-1.8-1.7-1.5c0-1.5-1.4-0.9-2.3-1c-0.4-0.2-1.1,0-1.4,0.3c0,0.6-0.1,0-0.3-0.1
			c-0.2,0-0.5-0.1-0.6,0.2c-0.2,0.2-0.5,0.1-0.4,0.5c-0.2-0.2-0.7-0.4-1-0.2c-0.1,0.1,0.1,0.4-0.1,0.3c-0.3-0.4-1.1-0.6-1.7-0.6
			c0,0.1,0.1,0.3-0.1,0.3c-0.4-0.1,0-0.7-0.2-0.9c-0.1-0.7-1-0.8-1.4-1.2c-1.5-0.6-2.9-1.7-4.7-1.5c-0.4,0.5-0.2,0.6-0.8,0.3
			c-0.1,0-0.3,0.1-0.4,0c0-0.1-0.3-0.3-0.2,0c-0.1,0-0.3-0.1-0.4-0.2c-0.2-0.2-0.5-0.1-0.6-0.3c-0.2-0.2-0.5,0-0.7-0.2
			c0.8-1.2-2.1-0.9-2.6-1.4c-0.2-0.3-0.4,0-0.5,0.2c-0.2,0.3-0.9,1.2-1.2,1.2c-0.2,0-0.3-0.2-0.2-0.3c0.3-0.1,0.1-0.2,0-0.4
			c-0.1-0.4,0.8-0.2,1-0.2c0.2-0.1,0.4-0.6,0.2-0.7c-0.2,0.2-0.2-0.5-0.3-0.6c-1.6,0.1-2.1-1.6-3.3-2.2c-0.6,0-0.7-0.7-1-1.1
			c-0.2,0.1-0.3,0-0.4-0.2c-0.2,0.4-0.3,0.7-0.6,1c0.1,0.3-0.1,0.5-0.2,0.7c0.5,0.1,0.7,0.5,0.7,1c-0.7,0-1.4,0-2.1,0.1
			c0.3-0.2-0.2-0.5-0.4-0.3c-0.6,0-0.5-0.7-0.8-1c0.2,0,0.3,0,0.3-0.2c0.1-0.1,0.7-0.2,0.9-0.2c0-0.2-0.4-0.4-0.6-0.5
			c-0.2,0.1-0.3,0.1-0.5,0.1c-0.5-0.1-1.1-0.4-1.5-0.7c-0.1-0.3,0.1-0.7-0.4-0.9c-1.9,0.1-0.3-0.9-2-1.2c-0.3-0.2-0.1-1-0.6-0.8
			c-1.1-0.7-2.4-0.6-3.7-0.8c-0.4-0.4-0.4-1.1-0.6-1.6c-0.8,0.3-1.1-0.2-1.5-0.9c-0.2-0.5,1-0.2,0.7-0.6c-1.5-0.6-1.4-0.4-1.9,1
			c-0.4-0.4-0.7-1.3-1.3-1.3c-0.4-1.1-1.2-2.2-2.4-2.6c-0.6-0.3-0.8-1.4-1.5-1c0,1.2-1.2-0.5-1.5-0.2c0.2,0.2-0.3,0.2-0.4,0.1
			c-0.1-0.2-0.3-0.3-0.5-0.4c-0.2-0.5-0.8-0.7-1.1-1.2c-0.5-0.2-1.1-0.2-1.6-0.3c-0.4-0.2-0.6-0.9-1-1c-0.6-0.1-1.7-0.4-1.9-1.1
			c-0.4,0.1-0.5-0.2-0.7-0.4c-0.1,0-0.5-0.1-0.5,0.2c0.2,0.4,0.2,0.8,0.2,1.3c-0.1,0-0.4,0.1-0.4-0.1c-0.9,0.2-0.5-0.8-0.6-1.2
			c-0.2-0.3-0.4-0.1-0.7-0.1c-0.5,0-1.1-0.2-1.6-0.2c-0.1-0.1,0-0.2-0.2-0.2c-0.3,0.1-0.2,0.3-0.6,0.2c-0.5-0.1-1,0-1.5-0.2
			c-0.2-0.1-0.2,0-0.3,0.1c-0.2,0.1-0.4,0.1-0.6,0.2c-0.4,0.2-1.2-0.6-1.2,0c-0.4,0.5-1.1-0.3-1.6,0c-0.1,0.1-0.2,0.2-0.4,0.2
			c-0.6-0.7-2.2-0.3-2.2-1.5c-0.6,0-0.7-0.4-0.9-0.8c-0.3-0.2-0.5-0.5-0.7-0.7c-0.1-0.7-0.7,0-1-0.2c-0.2-0.4-0.2-0.7-0.6-1
			c-0.4-0.4-0.5-0.9-0.9-1.1c-0.2-0.6-0.5-2.5-1.4-2c-0.1,0.1-0.2,0.3-0.3,0.2c-0.6-0.6-1.5-1-2.4-1.1c-0.6-0.1,0.1-1.1-0.2-1.4
			c-0.4-0.3-0.3,0.7-0.8,0.3c-0.4-0.4-1.4,0.1-1.5-0.7c-0.1-0.3-0.4-0.4-0.1-0.7c0.1-0.6-0.7,0-0.9-0.1c-0.4-0.3-0.9,0.1-1.3-0.1
			c-0.2-0.3-0.9-0.7-1-0.1c0,0.2,0.2,0.1,0,0.2c-0.4,0.2-0.8,0.3-1.1,0.5c-0.6,0.4-1.7-0.2-1.9-0.7c0.2-0.5,1,0,1.3-0.3
			c0,0,0.1-0.2,0.1-0.2c0-0.1,0-0.1,0-0.2c0.6-0.5-0.3-0.7-0.6-0.2c-0.3,0.2-0.6,0-1,0.2c-0.1,0-0.4-0.1-0.3,0.1
			c0.1,0.2,0.3,0.6-0.1,0.6c-0.3,0.2-0.7,0.1-0.9-0.1c-0.4,0.1-0.5-0.2-0.7-0.5c-0.2-0.3-0.7-0.3-1.1-0.2c-0.4-0.2-0.4-0.9-0.7-1
			c-0.3,0-0.3-0.3-0.5-0.5c-0.2-0.1-0.5-0.2-0.3-0.5c1.5-1.3-1.1-1.6,0.1-0.6c-0.4,0.1-0.4,0.6-0.7,0.7c-0.4,0.4-1.2,0-1.7-0.1
			c-0.6,0.1-1.2,0.3-1.9,0.2c-0.8-0.1-1.4,1.1-2.2,0.3c-0.5-0.6,0.7-0.8,0.7-1.2c-0.4,0.1-0.6,0.4-1,0.3c0,0.3-1,0.7-1.2,0.4
			c-0.2-0.2-0.3,0.1-0.4,0.3c-0.3,0.3-0.6,0.5-0.6,0.9c-0.6-0.1-1.2-0.2-1.5-0.7c-0.3-0.5-0.4-1.1-1.1-1.1c-0.5-0.6,2.2-1.4,2.6-1.4
			c-0.8-1.3-2.5,1.4-3.8,1.1c-0.6,0.1-1.1,0.6-1.8,0.6c-0.9,0.2-1.4,1.4-2.4,1c2.8-2.9-4-1.8-5.4-2.2c-1,0.1-1.9-0.3-2.8-0.6
			c-2.3,0.4-5.1-0.2-7.1,1.3c-0.5,0.6-1.5,0.5-2,1.1c-1.1,0.8-2.7,0.3-3.8,1c-0.4-0.4-1.2,0-1.8-0.1c-0.7,0.2-2.1-0.5-2.1,0.6
			c0.1-0.1,1-0.3,0.7,0.1c-0.4,0-0.7,0.7-0.9,0.2c-0.1,0.1-0.2,0.2-0.3,0.1c-0.1-0.3-0.3-0.6,0.3-0.4c0.4-0.2-0.3-0.7-0.6-0.3
			c-0.8,0.2-1.7,0-2.4,0.4c-0.4,0.4,0.3,0.7,0,1c-0.2,0.2-0.8,0.2-0.6-0.3c0.9-2.2-2.6,0.1-3,0.7c-0.1,0.3-0.5,0.3-0.5,0.6
			c0,0.1,0,0.3-0.2,0.3C31,70,30.8,69,30.2,69.6c0,0.1,0,0.2,0.2,0.2c0,0.5-0.6,0.9-1.1,0.7c-0.2-0.1-0.4-0.2-0.5,0
			c-0.2,0.8-1,0.4-1.5,0.6c-0.2,0.1-0.1,0.2,0.1,0.3c0.1,0.1-0.2,0.3-0.3,0.3c-0.3,0.1-0.5-0.1-0.7-0.1c-0.2-0.2-0.5-0.2-0.5,0.1
			c-0.1,0.3-0.5,0.2-0.7,0.3c-0.2,0.2-0.5,0.2-0.7,0.4c-0.5,0.3-1.5-0.1-1.6,0.8c-0.9-1-1.6,1.6-2.2,0.2c-0.1-0.2-0.2-0.5-0.5-0.3
			c-0.5,0.4,0.4,0.3,0.3,0.7c-0.2,1.2-0.7,0.2-1.2,0.9c0.3,0.2-0.3,0.7-0.4,0.3c-0.4,0.3-0.1,0.9-0.5,1c-0.5-0.4-0.8,0-1.4,0
			c0.6,0.9-0.8,1.6-1.5,1.8c0.4,0.5-0.5,0.8-0.8,1.3c-0.3,0.5-0.6,0.8-1,1.2c-0.3,0.4,0.1,1-0.3,1.4c0,0.5-0.2,0.9-0.3,1.3
			c0.3,0.3,0.5,0.8,0.3,1.2c0,0,0,0.1,0.1,0.1c0.1,0,0.3-0.1,0.4-0.1c0.1,0.4,0.8,0,0.8,0.6c0,0.2-0.2,0.5,0.1,0.5
			c0.6,0,0.2,0.7,0.5,1c0.2,0.2,0.5,0.1,0.6-0.2c0,0.4-0.1,0.5-0.5,0.5C15,86.8,15,87.3,14.6,87c-0.3-0.1-0.2-0.4-0.3-0.6
			c-0.6-0.5-1.1,0.3-1.6,0.5c-0.4-0.2-0.8-0.2-0.7-0.8c-1.6,0.6-3.2,1.5-4.8,2.2c-0.6,0.1-1.1,0.9-1.1-0.2c-0.8-0.1-0.2,0.5-0.2,0.8
			c-0.3,0.1-1.1,0.5-1.4,0.2c-0.1-0.7-0.6-0.3-0.7,0.2C3.4,90,4.3,90.4,5,90.4c0.6,0,1.1,0.6,1.6,0.3c1.2-1.6,3.6-2.5,5.6-2
			c1.1,0.6-0.1,1.5-0.5,2.1c-0.9,3.2,4.3-2.1,5.6-2c1.1-1.1,3.9,1.3,3.5-1.2c0-0.3,0.6-0.5,0.6-0.9c-0.3-0.2-1-0.6-0.3-0.9
			c0.1,0.1,0.2,0.3,0.3,0.4c-0.5-3.4,2.1-2.1,4.1-2.3c0.2-0.3,0.4-0.3,0.8-0.2c0.2,0,0.1-0.1,0.2-0.2c0.3-0.2,0.4,0.2,0.3,0.4
			c0.8,0.2,1.6-2.2,1.9-0.9c-0.1,0.4,0.5,0.5,0.8,0.6c0.2,0,0.3,0,0.4,0.2c0.4-0.2,0.9-0.2,1.3-0.4c0.4-0.3,1.1-0.1,1.4-0.8
			c0.2-0.3,0.5-0.4,0.3-0.8c0.2-0.3,0.7-0.4,0.6-1c0.2-0.1,0.3-0.1,0.1-0.3c0.5-0.5,0.9,0.3,1.5,0.2c1.3-0.4,1.7-2.1,2-3.2
			c0.5-0.6,2-0.1,2.2-1c0.9,0.2,1-0.7,1.7-0.9c0.7-0.2,1.4-0.5,1.4-1.4c0.3-0.2,0-0.3,0.1-0.5c0.5-0.7,1.6-0.2,2.2,0.1
			c0.5,0.1,1.3-0.5,1.7,0.2c1.2-0.4,2.5-0.1,3.8-0.1c1.4-0.4,2.8-0.2,4.1,0.3c1.7,0.3,3.8-0.9,5.5,0c1.2,0.4,2.1,1.3,3,1.9
			c-0.1,0.9-0.3,1.9-1.4,2c-0.8,0-1.4,0.7-2.3,0.5c-1,0-6.3-0.7-5.1,1.2c1.4-0.6,0.2,0.7,1.3,0.7c0.8-0.1,1,0.9,1.7,1
			c0.9,0.3,2.3,0.2,2.2,1.5c0.3,0,0.4,0.3,0.6,0.5c0.3,0,0.8-0.3,0.9,0.2c0.2,0,0.3-0.1,0.2-0.3c0.2-0.3,0.7-0.1,1-0.1
			c0.2-0.1,0.5-0.2,0.7,0.1c0.3,0.2,0.3-0.2,0.1-0.3c0.4-0.2,0.4,0.2,0.7,0.3c0.2,0,0.6-0.1,0.8,0.1c0.1,0.1,0,0.3,0.3,0.1
			c0.4-0.5,1.4-0.8,1.3,0.1c0.4-0.5,0.9-0.2,1.4-0.3c0.6,0.2,0.3,1,0.5,1.4c0.2,0.1,0.3,0.4,0.4,0.6c0.4,0.1,0.9-0.1,1.3-0.2
			c0.1,0,0.5,0.3,0.4,0c0,0,0-0.2,0-0.1c-0.1-0.2-0.3-0.4,0-0.6c0,0,0,0.1,0,0.1c0.3,0,0.3-0.2,0.6-0.1c0.2,0.1,0.3,0.4,0.6,0.3
			c-0.2-0.8,0.3-1.7-0.1-2.5c-0.2-0.3-0.6-0.6,0-0.7c2,0.4,0.6,3.9,2.9,4.1c2.1,1,4.3,0,6.4,0.3c1.2,0.5,2.2-0.6,3.3,0
			c0.4,0.4,1.3,0.1,1.7,0.5c0.1,0.8,1.2,1,1.5,1.8c0.8,1.1,2.1,1.7,3.3,2c0.6,0.2,1.6,0.1,1.8,0.8c0.1,0.3,0.2,1.1,0.7,0.8
			c-0.1,0-0.2-0.1-0.2-0.2c0.7,0,1.4,0.4,2.1,0c-0.2,0.3,0.1,0.3,0.3,0.5c0.1,0.2-0.3,0.4-0.2,0.6c0.7-0.2,1.3,1.3,1.1-0.4
			c0.6,0.2,1.4-0.2,1.7,0.6c0.2,0.3,0.5,0,0.6-0.1c0.6-0.3,1.7,0.2,1.7,0.9c0.5-0.1,0.9,0,1.2,0.4c0.7-0.7,0.8-0.2,1.3,0.3
			c0.5,0.4,1.2,0.1,1.8,0c0.3,0.1,0.6,0.5,0.9,0.6c1.3,0.5,3,0.8,4-0.2c1-0.4,2.3-0.3,3.3-0.1c-0.5-1,4.2-0.7,3.3-0.1
			c-0.8-0.3-1.4,0.6-1.1,1.3c1.1-2,3.2,0.8,3.6,2.1c0.4,0.7,0.3,1.7,0.7,2.4c0.1,0.2,0.5,0.2,0.2,0.5c-0.3-0.1-0.1,0.3,0,0.4
			c0,0.5,0,0.9,0.3,1.3c0.2,1,0,2.3,0.9,3c0.8,0.7,1.6,1.3,2.4,1.9c0.3,0.3,0.8,0.2,1,0.6c0.2,0.3,0.2,0.7,0.4,1
			c0.9-0.5,1.4,0.9,1.8,1.5c0.3,0.4,1,0.2,1.2,0.8c0.5,0.4,1.1,0.3,1.7,0.3c0.6,0.1,1,0.1,1.4-0.4c1-0.3,1.8,0.7,2.8,0.6
			c1.4-0.1,2.9-0.3,4.3,0.3c0.3,0.1,0.7,0.2,0.8-0.1c2.2-0.7,2.1-1.3,3.7,0.6c0.1-0.6,1,0.2,0.9,0.5c-0.3,0.3-1.1,1.2-0.6,1.5
			c1.1,0.2,2.3,0.4,2.9,1.5c0,0.5-0.6,0.8-0.6,1.2c0.1,0.4-0.1,0.7-0.2,1c-0.7,0.1-0.5,0.8-1,1.1c-0.4,0.3-0.8,0.5-1-0.1
			c-0.6,0-0.2,0.6-0.4,0.9c-1.5,0.5-3,1-4,2.4c-0.3,0.4-0.8,0.7-1.3,0.8c-0.5-0.2-0.8-0.4-0.7,0.4c-0.9,0.8-1,2.3-2.2,2.7
			c-0.4,0.5-1,1.7,0.1,1.6c0.5,0.4,1,0.1,1.5-0.1c0.6-0.2,6.2,0.2,5.1-0.8c0.2-0.8,1-0.2,1.5-0.3c2.5,0.3,5,0.7,7.3-0.6
			c3.2-0.4,6.3-0.4,9.4-0.5c1.4-1.1,3.3-0.2,4.9,0.1c1.8-0.1,3.6-0.3,5.3,0.2c0.4-0.2,0.6-0.2,0.8,0.2c0.4,0.1,0.7,0.3,1,0.7
			c1.1,0.7,2.6,0.1,3.8,0.1c1.1,0.7,2.4,0.1,3.6-0.1c-0.1-0.7,0.5-1.5,1.3-1.4c0.1,0,0.3,0,0.2-0.2c-0.5-0.3-0.8-0.9,0-0.9
			c0.1,0.1,0.1,0.2,0.2,0.3c0.3-1.1,1.2-1.1,0.7,0.1c-0.1,0.3-0.6,0.3-0.7,0.7h0.9v1.4c0.9-0.1,2-0.2,2.3-1.2
			c0.3-0.4,0.9-0.2,1.2-0.6c0.4-0.1,0.6-0.2,0.6-0.6c0.2-0.3,1-0.2,1.4-0.2c1.8-0.4,3.6-0.1,5.5-0.4c0.9,0,1.8-0.6,2.7-0.4
			c0.4,0.1,1,0.5,1.4,0.1c0.2-0.2,0.3-0.6,0.3-0.9C195.8,122.3,197.8,122.1,197.1,120.8z"/>
		<path class="st0" d="M46.7,94.7c-0.6,0.2-0.4-0.6-0.3-0.9c-0.8,0.2-0.9-0.7-0.6-1.2c0.3-0.1,0.4-0.5,0.2-0.7
			c-0.4-0.1-0.2-0.6-0.5-0.6c-0.5,0-0.7-0.5-1.2-0.5c-0.1-0.2-0.1-0.3-0.3-0.4c0.1-0.3,0.7-1,0-1.1c-0.3,0-0.5-0.2-0.7-0.3
			c-0.2,0.1-0.3,0.1-0.5,0c-0.8-0.6-1.8-0.6-2.8-0.7c-0.3-0.2-1.2-0.5-1.2,0c2.4-0.4-2.7,1.9-1.7,3.1c0.7,0.5,0.7,1.4,1.3,1.7
			c0.2,0.6,0.4,1.3,1,1.5c-0.2,0-0.2,0.4-0.3,0.5c-0.2,0.3-0.9-0.3-0.6,0.4c-0.3,0.5-1.4,0.1-1.9,0c-0.3-0.6-0.9-1-1.5-1.4
			c0.2,0.4,0.6,0.7,0.4,1.2c0.3,0.1,0.4,0.4,0.4,0.7c0.4,0.2,1,0.1,0.9,0.8c0.6,0.6,1.1,0.3,1.9,0.5c0.8,0.1,1.5,0.5,2.4,0.3
			c2.1-0.4,4.1-1.3,5.9-2.3C46.8,95.2,46.8,95,46.7,94.7z"/>
		<path class="st0" d="M75.5,62.8c-0.3,0.3,0,0.6,0.3,0.2c0.5-0.2,1,0.4,1.5,0.4c1,0.1-0.7-0.3-0.5-0.7c0-0.1-0.2,0.1-0.3,0.1
			c-0.3,0-0.3-0.3-0.4-0.5c-0.2-0.2-0.4,0.1-0.5,0.1c-0.1,0-0.3,0-0.3,0.2C75.3,62.7,75.5,62.7,75.5,62.8z"/>
		<path class="st0" d="M78,63.7c0.2,0.2,0.4,0.1,0.6,0.2c0.2,0.2,0.5,0.2,0.6-0.1c0.1,0,0.6,0.2,0.4-0.1
			C79.4,63.7,76.8,63.3,78,63.7z"/>
		<path class="st0" d="M80,64c0.3,0,0.6,0.3,0.8,0c0.1,0,0.2,0.2,0.4,0.1c0.1,0,0.3-0.1,0.3,0.1c0.5,0.2,1.2,0,1.7,0.4
			c0.2,0,0.3-0.2,0.6-0.1c0.2-0.1,0.1-0.2,0.1-0.3c-0.1-0.2,0-0.4-0.1-0.5c-0.4-0.1-0.1,0.3-0.3,0.5c-0.4,0.3-0.8-0.4-1.3-0.4
			c-0.3,0-0.6-0.1-0.6-0.4c-0.4-0.2-0.7,0.2-1.1,0.2C80.2,63.4,79.3,63.9,80,64z"/>
		<path class="st0" d="M77.1,64.8c-0.3-0.4-0.5-0.1-0.7,0.1c-0.2,0-0.5,0-0.5,0.3c-0.2,0.3,0.4,0,0.5,0c0.4-0.1,0.7,0.1,1,0.1
			c0.3,0.1,0.6,0.1,0.5-0.3C77.6,64.7,77.3,64.8,77.1,64.8z"/>
		<path class="st0" d="M90.8,66.9c0.1,0.2,0.2-0.1,0.4,0c0.3-0.2-0.1-0.8-0.4-0.6C90.7,66.5,90.7,66.6,90.8,66.9z"/>
		<path class="st0" d="M88.3,66.1c0.1,0.1,0.2,0,0.3,0.2c0.1,0,0.1-0.2,0.2-0.1c0.1,0.1,0,0.2,0.1,0.3c0.1,0,0.2-0.1,0.3-0.1
			c0.1,0.1-0.2,0.4,0.2,0.3c0.3-0.1,0.6-0.3,0.5-0.6c0.1-0.1,0-0.2-0.1-0.1c-0.3,0.2-0.9-0.2-1-0.6C88.4,65.1,88.1,65.9,88.3,66.1z"
			/>
		<path class="st0" d="M91.4,67.2c0-0.1,0.1-0.2,0-0.3C91.2,66.9,91.2,67.4,91.4,67.2z"/>
		<path class="st0" d="M100.7,73.2c0.4,0.2,0.9,0.3,1.1,0.6c0.7-0.3,1,0.2,1.5,0.7c0.6,0.2,0.5,0.3,0.9,0.7c0.7,0.1-0.8-1.3-1-1.2
			c-0.7-0.7-1.7-0.9-2.5-1.6C100.5,72.6,100.6,72.9,100.7,73.2z"/>
		<path class="st0" d="M110.8,76.7c-0.3,0.3-0.5,0-0.7-0.2c-0.2-0.4,0.2-0.9,0.3-1.3c0.1-0.2-0.1-0.2-0.2-0.1
			c-0.3,0.7-0.5,2.2,0.6,2.1c0-0.2,0.1-0.2,0.3-0.1c0.9,0.3,2.1,1.2,2.9,0.5c0.1-0.4-0.7,0-0.9-0.1c-0.1-0.5-0.4,0-0.8-0.1
			c-0.3-0.2-0.5-0.8-0.7-0.2C111.3,77.1,111.1,76.6,110.8,76.7z"/>
		<path class="st0" d="M108.4,74.5c0.5,0.2,1.2-0.2,1.7-0.1c0,1,1.5-0.5,0.1-0.4c-0.4,0-0.8,0.2-1.2,0.1c-0.2-0.1-0.3-0.3-0.5-0.2
			C108.3,74.1,108.8,74.3,108.4,74.5z"/>
		<path class="st0" d="M105.7,75.8c0.2,0,0.5,0,0.6-0.2c0.5,0,0.8-0.3,1.1-0.5c0.3,0.1,0.3,0.1,0.5-0.1c0.1,0,0.3,0.1,0.4,0
			c-0.4-0.6-0.8-0.1-1.3-0.1c-0.3,0.2-0.2,0.4-0.8,0.3c0,0.1-0.1,0.3-0.1,0.3C105.9,75.6,105.1,75.5,105.7,75.8z"/>
		<path class="st0" d="M106.4,74.8c-0.2,0.5,0.6-0.1,0.5-0.3C106.7,74.5,106.5,74.6,106.4,74.8C106.3,74.7,106.4,74.7,106.4,74.8z"
			/>
		<path class="st0" d="M115.5,77.1c-0.2,0.6,3.1,0.8,1.6,0.9c-0.1,0.6,1-0.1,0.6,0.7c0.6-0.4,1.4,0.1,2.1-0.2c0.3-0.3,0.6-0.2,1,0
			c0.2,0,1.2-0.3,0.6,0.1c0.2,0.4,0.6,0.2,0.9,0c0.6-0.2,0.1,0.7-0.2,0.7c0.3,0.3,1.1,0.5,1.4,1c0.2,0.3,0.3,0.8,0.7,1
			c0.5,0.1,0.9-0.2,1.4,0.1c0.5-0.3,1-0.1,1.2,0.4c0.1,0.2,0.3,0.6,0.3,0.8c-0.2,0.4-1.1,0.7-0.2,1.2c0.5-0.3,0.6,0.6,0.8,0.8
			c0.4,0.1,1,0.1,1.3,0.5c-0.1,0.7,0,1.5,0.8,1.7c0.4,0.4,0.7,0.3,1-0.1c0.1-0.1,0.1-0.3,0.4-0.1c0.3,0.3-0.4,0.7,0.1,1
			c0.6,0.4,1.8,0.1,1.8,1.1c0.6,0.5,1.8-0.6,1.1-1.2c0.1-0.4,0.8-0.3,0.5-0.9c-0.1-1-0.9-0.6-1.5-0.5c-0.3-0.7-0.6,0-1-0.4
			c-0.2-0.3-0.3-0.5-0.6-0.5c-1.3,0,0.1-0.9-0.6-1.1c-0.4-0.1-0.8-0.1-0.8-0.6c1-0.4-0.5-0.5,0.1-0.9c-0.2-0.1-0.3,0.1-0.5,0.1
			c-0.2,0.1-0.4,0-0.2-0.2c0.7-0.4,0.5-0.6-0.1-0.9c-0.1,0.1-0.1,0.2-0.1,0.3c-0.1,0-0.2,0-0.2-0.1c-0.1,0.2,0.1,0.3,0.2,0.5
			c-0.5,0.1-1.3-2.2-1.4-0.7c-1.2,0-0.9-1.7-1.6-2.3c-0.4-0.3-1.4-0.4-0.9-1.1c0.2,0.1,0.2,0.3,0.3,0.4c0.9,0.5-0.1-0.8-0.4-0.8
			c-0.1,0.4-0.3,0.6-0.7,0.5c-0.4-0.1-0.9,0.3-0.2,0.4c-0.1,0.1-0.1,0.2-0.1,0.3c-0.7-0.1-1.2-0.5-1.5-1c-0.1-0.3-1.5-0.8-0.7-0.9
			c-0.4-0.7-1.5-0.7-2.1-0.2c-0.6,0.1-1.4,0.2-2,0c-0.6-0.5-1.3-0.6-2-0.6c0-0.1-0.2-0.2-0.3-0.2C115.2,76.6,116,76.6,115.5,77.1z"
			/>
		<path class="st0" d="M115.6,75.3c0,0.1,0.1,0.2,0.2,0.2c0.2,0-0.2,0.3,0.1,0.3c0.2,0,0.6,0.5,0.6,0.1c-0.3-0.4-0.5-0.8-1-0.7
			C115.4,75.3,115.6,75.3,115.6,75.3z"/>
		<path class="st0" d="M130.5,81.3c0.6,0.8,0.5,2.6,2.1,2.5c-0.9-0.6-1.5-1.6-1.8-2.7C130.4,80.6,129.9,81.1,130.5,81.3z"/>
		<path class="st0" d="M129.9,81.1c0.2-0.4-0.4-0.7-0.6-1.1C128.9,80.2,129.6,81.2,129.9,81.1z"/>
		<path class="st0" d="M138.8,92.2c-0.1,0.6,0.3,0.6,0.6,0.8c0.2,0.2,0.1,0.3,0.1,0.5c0,0.4,0.6,0.5,0.8,0.8c0,0-0.1,0.1-0.1,0.1
			c0.3,0,0.4,0.3,0.7,0.3c0.4-0.4,0.9,0.1,1.2,0.3c0.4,0.2,0.8,0.5,1.2,0.6c0.2-0.4,0.8-0.7,0.7-1.1c-0.2-0.3-0.9-0.1-0.7-0.5
			c0-0.1,0.2-0.2,0.1-0.3c-0.5,0-0.8-0.5-1.2-0.6C140.9,93.6,139.8,90.3,138.8,92.2z"/>
		<path class="st0" d="M134.7,88.7c0.1,0.2-0.1,0.3-0.2,0.3c0,0.2,0.2,0.4,0.2,0.6c0.3,0,0.3-0.6,0.7-0.4c0.1,0,0.3,0.6,0.5,0.5
			c0.7,2.1,0.8,0.2,1.2,0.9c0.1,0.4,0.4,0.3,0.7,0.4c0.4,0.5,0.5,1,1.2,0.5c-1.2-0.9-2.2-1.9-3.2-3c-0.3,0.1-0.3,0.2-0.5,0.2
			c-0.1-0.2-0.1-0.4-0.2-0.6C134.8,88.2,134.6,88.5,134.7,88.7z"/>
		<path class="st0" d="M132.9,89c-0.1,0-0.2-0.1-0.3-0.1C131.8,89.1,133.5,89.6,132.9,89z"/>
		<path class="st0" d="M128,113c-0.2-0.6-0.5,0.4-0.5,0.6c0.1,0.1,0.2,0.2,0.2,0.4C128.3,114.7,128.1,113.3,128,113z"/>
		<path class="st0" d="M47.4,75.3c0-0.3,0-1.1-0.5-0.8c0.6,0.7,0,1.3,0.2,2C47.3,76.2,47.6,75.8,47.4,75.3z"/>
		<path class="st0" d="M44.4,75c0.3,0.2,0-0.7-0.2-0.3C44.2,74.7,44.3,74.9,44.4,75z"/>
		<path class="st0" d="M44,75.8c-0.1,0.7,0.8-0.5,0.1-0.3C44.2,75.6,44.1,75.7,44,75.8z"/>
		<path class="st0" d="M70.8,85c-0.3-0.3,0,0.5-0.2,0.6c-0.3,0.5-0.9,0.6-1.4,0.6c-0.3,0.2,0.7,0.1,0.8,0.1
			C70.6,86.1,71,85.6,70.8,85z"/>
		<path class="st0" d="M68.7,86.4c-0.3,0.1-0.4-0.2-0.5-0.4c-0.2,0.1-0.3,0.3-0.3,0.4c0.2,0,0.4,0.3,0.6,0.2
			C68.7,86.6,69.2,86.3,68.7,86.4z"/>
		<path class="st0" d="M64.3,86c0.3-0.1,0.1,0.3,0.3,0.3c0.2-0.3-0.4-0.8-0.7-0.7c-0.2,0.1,0,0.3,0,0.4C63.5,86.1,64.1,86.1,64.3,86
			z"/>
		<path class="st0" d="M63.4,84.8c0.1-0.3,0.5-1.3-0.2-1c0,0.1,0.2,0.2,0.2,0.3C63.3,84.2,63,85,63.4,84.8z"/>
		<path class="st0" d="M63.5,85.2c0-0.2-0.6-0.3-0.2,0c-0.1,0.1-0.2,0.5,0.1,0.4C63.6,85.4,63.9,85.5,63.5,85.2z"/>
		<path class="st0" d="M67.3,93c-0.1,0.1-0.3,0.3-0.4,0.2c-0.2,0.2-0.3,0.4-0.5,0.6c-0.2,0.2-0.4,0.2-0.6,0.1
			c-0.2,0.2-0.6,0.2-0.6,0.5c-0.1,0-0.2-0.2-0.4-0.1c-0.3,0.1-0.7-0.5-1-0.2c0,0.3,0.5,0.1,0.5,0.4c-0.3,0.4,0.4,0.4,0.7,0.3
			C65.5,94.8,68.8,92.3,67.3,93z"/>
		<path class="st0" d="M56.8,93.8c-0.1,0-0.4-0.1-0.3,0c0.1,0.1,0.5,0.1,0.3,0.3c-0.5,0.2-1.1,0.4-1.5,0.8c-0.2-0.1-0.4,0.2-0.6,0.4
			c-0.1,0.3,0.2,0,0.3,0c0.2,0.1,0.2-0.1,0.4-0.2c0.3,0.1,0.4-0.1,0.6-0.3C56.4,94.7,57.8,94.2,56.8,93.8z"/>
		<path class="st0" d="M59.3,93.5c-0.6,0.1-0.9,0.6-1.4,0.7c-0.3-0.1-0.1-0.3-0.4-0.4c-0.2,0.5,0.7,1.3,0.9,0.5
			c0.3-0.5,1-0.4,1.2-0.9C59.5,93.4,59.4,93.5,59.3,93.5z"/>
		<path class="st0" d="M54.8,94.8c0-0.2,0.8-0.1,0.5-0.4C55.1,94.3,54.1,94.8,54.8,94.8z"/>
		<path class="st0" d="M29,87.8c-0.4,0-0.9-0.1-1.2-0.3c-0.3-0.1-0.2,0.5,0.1,0.3C28,87.8,29.5,88,29,87.8z"/>
		<path class="st0" d="M32,87.9c-0.5-0.1-0.7,0-1.1,0.2c-0.1,0-0.4-0.1-0.3,0.1c0.3,0.2,0.6,0,0.9-0.1C31.6,88,32.2,88.2,32,87.9z"
			/>
		<path class="st0" d="M35.4,91.5c0.1-0.4-0.2-0.7-0.4-1C34.8,90.8,35.1,91.3,35.4,91.5z"/>
		<path class="st0" d="M42.6,86.1c0.1,0.2,0.2-0.2,0.3-0.3c-0.1-0.1-0.5,0-0.7,0c0,0.1,0.3,0.1,0.4,0.1C42.6,85.9,42.6,86,42.6,86.1
			z"/>
		<path class="st0" d="M48.7,95.2c-0.1,0-0.2,0-0.3,0c0,0,0,0,0,0C47.7,95,49.1,96,49,95.4C48.9,95.3,48.8,95.2,48.7,95.2z"/>
		<path class="st0" d="M51.5,95c-0.2-0.4-0.5,0.2-0.8,0c-0.3,0.1-0.4,0.5,0,0.2C50.9,95.4,52.1,95.3,51.5,95z"/>
		<path class="st0" d="M50.1,95.2c-0.2,0-0.3,0.2-0.5,0.2c0.1,0.1,0.4,0.2,0.4,0C50.1,95.4,50.3,95.2,50.1,95.2z"/>
		<path class="st0" d="M48.6,93c0.2,0.3,0.4,0,0.1-0.2c-0.3-0.2-0.5-0.1-0.7-0.4c-0.9-0.1-0.6,0.3,0,0.3
			C48.1,92.9,48.4,92.9,48.6,93z"/>
		<path class="st0" d="M48.4,93.6c0.1-0.1,0.3-0.2,0.3-0.4c-0.2-0.1-0.1,0.2-0.4,0.2C48.1,93.6,48.3,93.9,48.4,93.6z"/>
		<path class="st0" d="M47.2,92.4c-0.1,0-0.1-0.1-0.1-0.1c-0.3,0-0.4-0.1-0.4-0.3c-0.1,0-0.3,0.1-0.4,0.2c0,0.3,0.4,0.1,0,0.5
			c0.2,0.1,0.4-0.1,0.6-0.1C47,92.6,47.2,92.6,47.2,92.4z"/>
		<path class="st0" d="M52.8,94.8c-0.1,0.2-0.1,0.1-0.3,0.3c-0.2,0-0.5-0.2-0.7-0.1c0.2,0.1,0.6,0.3,0.9,0.1
			C52.7,95.1,53.1,95,52.8,94.8z"/>
		<path class="st0" d="M121.9,114.6c-0.4-0.3-0.8-0.3-0.4-0.8c-0.1-0.3-0.5-0.6,0-0.7c0-0.1-0.3,0-0.2-0.2c0.1-0.1-0.1-0.2-0.2-0.2
			c0.2-0.1,0.3-0.2,0.2-0.4c-0.3-0.2-0.2,0.1-0.3,0.2c-0.1,0-0.1,0-0.2,0c-0.1,0.3,0.3,0.5,0.2,0.9c0.2,0.2,0.1,0.4,0,0.6
			c0,0.2,0.2,0.5,0.3,0.6c0.2,0.1,0.7,0.2,0.6,0.6c-0.3-0.2-0.6-0.2-0.8-0.5c-0.3-0.4-0.5-0.6-0.9-0.9c-0.2-0.4-0.6,0-0.9-0.2
			c-0.1-0.2-0.2-0.2-0.4-0.1c-0.3,0.1-0.6-0.2-0.9-0.1c0.5,0.3,1.9,0.5,2.7,1.1c0.1,0.2,0.2,0.2,0.3,0.3c0.1,0.1,0,0.2,0.1,0.3
			c0.4,0.1,0.7,0.3,1,0.4C122.2,115.1,122.2,114.8,121.9,114.6z"/>
		<path class="st0" d="M117.6,112.8c-0.1,0-0.4,0.1-0.4-0.1c-0.4-0.1-0.8,0.2-1.1-0.1c-0.2-0.1-0.3,0.2-0.6,0.1
			c-0.3-0.1-0.2,0-0.1,0.2c0.7-0.1,1.4,0.1,2.1,0.2c0.1-0.1,0.3,0,0.3-0.1C117.8,112.8,117.7,112.7,117.6,112.8z"/>
		<path class="st0" d="M119,111.7c-0.1,0.1-1.1,0-0.7,0.2c0.3,0,0.5,0.1,0.8,0c0.4,0.1,0.2-0.3,0.6-0.3c0.5,0,1-0.2,1.5-0.4
			c0.2,0,0,0.2,0,0.2c-0.1,0.1,0,0.5,0.1,0.2c0.4-0.8,0.1-0.8-0.6-0.4c-0.3,0-0.5,0-0.8,0.2c-0.2-0.2-0.3-0.2-0.5-0.2
			c-0.3-0.1-0.1-0.7-0.5-0.8c-0.2,0.2,0.3,0.5,0.2,0.8C119.3,111.6,119.5,111.7,119,111.7z"/>
		<path class="st0" d="M116,110.8c-0.5-0.1,0,0.2,0.2,0.1c0.2,0.1,0,0.4,0.3,0.5c0.2,0.1,0.1-0.2,0-0.3c0.1-0.2,0.3-0.4,0-0.6
			C116.4,110.5,116.3,110.9,116,110.8z"/>
		<path class="st0" d="M116.7,109.6c0.2,0.5,0.4-0.6-0.1-0.4C116.1,109.4,116.8,109.3,116.7,109.6z"/>
		<path class="st0" d="M114.4,111.3c-0.2-0.2-0.4,0.3-0.6,0.1c0-0.1-0.4-0.4-0.5-0.3c0.1,0.4,0.6,0.4,0.8,0.7
			C114.4,112.1,114.7,111.5,114.4,111.3z"/>
		<path class="st0" d="M115.1,111.7c-0.1,0.2-0.3,0.3-0.6,0.3c-0.1,0.2,0,0.6,0.2,0.5c0.1,0-0.1-0.2,0-0.3
			C114.8,112,115.4,111.9,115.1,111.7z"/>
		<path class="st0" d="M110.7,108.9c0.1-0.3-0.2-0.2-0.4-0.2c-0.4,0-0.7-0.3-1-0.6c-1-0.4-1.6-1.3-2.4-2c-0.8-0.6-1.3,0.2-0.3,0.6
			c0.1,0,0.3,0,0.3,0c-0.1-0.9,0.7,0.4,0.9,0.6c1.2,1.3-0.4-0.1-0.7-0.5c0.1,0.5,0.7,1,1.1,1.3c0.2-0.1,0.5,0.3,0.5,0
			c0-0.1-0.2-0.1-0.2-0.2c0.2,0,0.7,0.2,0.5,0.4c-0.1,0-0.2-0.1-0.2,0.1c0.2,0.2,0.4,0.1,0.3,0.4
			C109.6,108.9,111.1,109.9,110.7,108.9z"/>
		<path class="st0" d="M104.9,104.7c-0.2-0.6-0.8-0.4-1.1-0.9c-1-0.1-0.5,0.1-0.1,0.5c0.1,0.3,0.6,0,0.7,0.2
			c0.1,0.3,0.6,0.7,0.8,0.6C105.2,105,105.1,104.8,104.9,104.7z"/>
		<path class="st0" d="M102.7,103.8c-0.1,0-0.3,0-0.4-0.1c-0.4,0-0.3,0.3,0,0.5C102.6,104.4,103.5,104.2,102.7,103.8z"/>
		<path class="st0" d="M112.7,110.1c-0.1-0.1-0.3-0.1-0.4-0.1c0,0.4-0.5,0.4-0.7,0.2c-0.1,0-0.2-0.1-0.1,0.1c0.2,0.2,1,0.5,1.1,0.1
			C112.5,110.3,112.9,110.2,112.7,110.1z"/>
		<path class="st0" d="M111.5,109.6c0.1,0,0.1,0.2,0.2,0.2c0.3-0.3-0.4-0.5-0.4-0.2c-0.1,0.1-0.5,0.7,0,0.5
			C111.2,109.9,111.2,109.6,111.5,109.6z"/>
		<path class="st0" d="M112.9,110.5c-0.3-0.3-0.2,0.4,0,0.3C113,110.7,113,110.5,112.9,110.5z"/>
		<path class="st0" d="M113.3,110.6c-0.2,0-0.4,0.2-0.2,0.4C113.2,110.9,113.4,110.7,113.3,110.6z"/>
		<path class="st0" d="M124.4,110.6c-0.2,0-0.5,0.4-0.1,0.3C124.4,110.8,124.9,110.6,124.4,110.6z"/>
		<path class="st0" d="M123.9,110.8c0.1-0.2-0.4-0.1-0.2,0C123.7,110.9,124.1,110.9,123.9,110.8z"/>
		<path class="st0" d="M73.9,63.6c0.1-0.3,1-0.7,0.5-1c-0.2,0.2-0.2,0.6-0.5,0.8C73.7,63.5,73.7,63.8,73.9,63.6z"/>
	</g>
</g>
</svg>
