<?xml version="1.0" encoding="utf-8"?>
<!-- Generator: Adobe Illustrator 26.0.3, SVG Export Plug-In . SVG Version: 6.00 Build 0)  -->
<svg version="1.1" xmlns="http://www.w3.org/2000/svg" xmlns:xlink="http://www.w3.org/1999/xlink" x="0px" y="0px"
	 viewBox="0 0 200 200" enable-background="new 0 0 200 200" xml:space="preserve">
<g id="Layer_1">
	<g id="Layer_1_00000061442898653323928190000005571608892069918396_">
		<g id="Layer_1_00000098929087308412571940000004538787532203942811_">
		</g>
	</g>
</g>
<g id="Isolation_Mode">
	<g>
		<path fill="#1E8346" d="M191.913,117.082c0.072-0.163,0.181-0.305,0.255-0.468c0.069-0.151,0.096-0.278,0.121-0.442
			c0.028-0.183,0.12-0.263,0.203-0.419c0.092-0.171,0.068-0.367,0.068-0.554c0-0.173,0.022-0.364,0-0.535
			c-0.042-0.327-0.343-0.533-0.415-0.85c-0.021-0.094-0.012-0.194-0.032-0.285c-0.021-0.1-0.077-0.166-0.133-0.252
			c-0.137-0.211-0.274-0.417-0.399-0.636c-0.097-0.17-0.233-0.477-0.438-0.471c-0.269,0.007-0.379,0.204-0.466,0.41
			c-0.117,0.275-0.353,0.368-0.643,0.402c-0.369,0.043-0.78,0.047-1.15,0.011c-0.31-0.031-0.568-0.2-0.864-0.282
			c-0.272-0.076-0.54,0.018-0.812,0.041c-0.301-0.003-0.552-0.282-0.826-0.38c-0.261-0.093-0.749-0.058-0.895-0.288
			c-0.13-0.206-0.303-0.268-0.558-0.298c-0.322-0.037-0.797-0.119-1.091,0.052c-0.152,0.089-0.251,0.249-0.403,0.334
			c-0.159,0.089-0.423,0.06-0.594,0.065c-0.22,0.006-0.44,0.019-0.659,0.036c-0.367,0.029-0.702,0.056-1.019,0.256
			c-0.264,0.168-0.456,0.41-0.756,0.533c-0.202,0.083-0.426,0.154-0.631,0.202c-0.306,0.072-0.629,0.106-0.939,0.177
			c-0.463,0.106-0.936,0.284-1.407,0.331c-0.466,0.046-0.936,0.08-1.403,0.1c-0.288,0.012-0.579,0.027-0.867,0.03
			c-0.204,0.002-0.35-0.008-0.507,0.135c-0.113,0.104-0.185,0.254-0.326,0.325c-0.242,0.123-0.614,0.068-0.879,0.068
			c-0.109,0-0.223-0.008-0.332,0.002c-0.171,0.015-0.311,0.102-0.47,0.156c-0.347,0.118-0.557,0.352-0.872,0.531
			c-0.428,0.244-0.94,0.449-1.289,0.799c-0.234,0.235-0.366,0.535-0.407,0.867c-0.018,0.145-0.004,0.26-0.055,0.399
			c-0.058,0.155-0.127,0.303-0.182,0.459c-0.099,0.28-0.061,0.547-0.129,0.825c-0.061,0.245-0.209,0.467-0.195,0.73
			c0.022,0.387-0.041,0.739-0.041,1.128c0,0.306-0.024,0.605-0.038,0.911c-0.012,0.253-0.047,0.508,0.031,0.752
			c0.073,0.228,0.227,0.431,0.292,0.665c0.071,0.253-0.088,0.271-0.232,0.447c-0.075,0.091-0.091,0.187-0.138,0.292
			c-0.067,0.151-0.219,0.237-0.332,0.35c-0.2,0.198-0.441,0.442-0.59,0.682c-0.09,0.146-0.205,0.315-0.227,0.484
			c-0.032,0.245,0.013,0.499-0.023,0.747c-0.034,0.239-0.126,0.462-0.139,0.705c-0.009,0.173-0.02,0.347-0.041,0.52
			c-0.027,0.22-0.328,0.431-0.483,0.562c-0.256,0.215-0.513,0.439-0.77,0.659c-0.335,0.286-0.709,0.641-1.093,0.852
			c-0.155,0.085-0.268,0.15-0.376,0.289c-0.081,0.105-0.154,0.192-0.271,0.262c-0.281,0.167-0.583,0.257-0.856,0.411
			c-0.008-0.017-0.03-0.033-0.037-0.053c-0.097,0.012-0.358,0.167-0.394,0.271c-0.039,0.117,0.151,0.174,0.231,0.26
			c0.119,0.126,0.222,0.252,0.407,0.286c0.226,0.042,0.494,0.011,0.526,0.33c0.016,0.158-0.114,0.228-0.209,0.338
			c-0.045,0.053-0.123,0.119-0.151,0.185c-0.042,0.098,0.015,0.179,0.014,0.276c-0.003,0.35-0.494,0.44-0.756,0.559
			c-0.293,0.133-0.588,0.268-0.886,0.385c-0.121,0.047-0.291,0.11-0.423,0.1c-0.128-0.01-0.154-0.096-0.258-0.174
			c-0.13-0.097-0.288-0.158-0.446-0.19c-0.168-0.034-0.423,0.022-0.575-0.06c-0.153-0.083-0.24-0.237-0.416-0.312
			c-0.1-0.042-0.276-0.048-0.301-0.18c0.119-0.013,0.224,0.019,0.339,0.025c0.021-0.168-0.051-0.235-0.149-0.359
			c-0.09-0.114-0.131-0.273-0.235-0.372c-0.128-0.121-0.306-0.105-0.47-0.094c-0.231,0.017-0.454,0.106-0.683,0.145
			c-0.369,0.063-0.77,0.039-1.14,0.017c-0.261-0.015-0.544-0.078-0.789,0.036c-0.129,0.06-0.246,0.149-0.376,0.207
			c-0.164,0.074-0.419,0.03-0.596,0.064c-0.156,0.031-0.389,0.055-0.513,0.167c-0.152,0.137-0.221,0.352-0.368,0.5
			c-0.16,0.163-0.361,0.356-0.549,0.488c-0.249,0.175-0.607,0.135-0.901,0.134c-0.48-0.001-0.961,0.041-1.44,0.054
			c-0.248,0.006-0.495,0.014-0.743,0.014c-0.234,0-0.492-0.053-0.714,0.027c-0.158,0.057-0.301,0.16-0.46,0.215
			c-0.138,0.047-0.228,0.066-0.337,0.155c-0.142,0.115-0.26,0.17-0.457,0.213c-0.204,0.045-0.369,0.024-0.536,0.167
			c-0.08,0.068-0.115,0.172-0.202,0.224c-0.176,0.106-0.48,0.12-0.678,0.074c0.027-0.071,0.146-0.184,0.092-0.255
			c-0.079-0.104-0.248,0.033-0.308,0.088c-0.334,0.312-0.865,0.289-1.266,0.488c-0.215,0.106-0.39,0.081-0.636,0.095
			c-0.333,0.018-0.666,0.145-1.005,0.187c-0.301,0.037-0.656,0.111-0.96,0.06c-0.122-0.02-0.344-0.037-0.438-0.126
			c-0.09-0.085-0.069-0.237-0.083-0.354c-0.04-0.345-0.247-0.491-0.478-0.72c-0.207-0.204-0.371-0.499-0.435-0.784
			c-0.032-0.142-0.046-0.309-0.189-0.391c-0.132-0.076-0.354-0.101-0.5-0.122c-0.231-0.033-0.509,0.016-0.722-0.055
			c-0.158-0.052-0.31-0.184-0.425-0.297c-0.055-0.054-0.134-0.192-0.19-0.257c-0.04-0.045-0.084-0.081-0.132-0.119
			c-0.081-0.063-0.163-0.154-0.258-0.193c-0.468-0.192-1.015-0.129-1.51-0.151c-0.947-0.044-1.87-0.132-2.657-0.704
			c-0.221-0.161-0.446-0.315-0.645-0.502c-0.11-0.103-0.144-0.157-0.152-0.309c-0.008-0.144-0.059-0.386-0.012-0.523
			c0.012-0.009,0.024-0.01,0.036-0.002c-0.086-0.088-0.119-0.238-0.226-0.304c-0.186-0.116-0.454,0.019-0.645-0.087
			c-0.184-0.103-0.126-0.277-0.138-0.455c-0.025-0.356-0.297-0.346-0.516-0.552c-0.012-0.097-0.049-0.264-0.122-0.332
			c-0.065-0.06-0.198-0.081-0.278-0.122c-0.285-0.147-0.234-0.318-0.288-0.603c-0.056-0.297-0.195-0.558-0.301-0.839
			c-0.082-0.218-0.22-0.431-0.258-0.657c-0.032-0.192-0.019-0.391-0.061-0.582c-0.045-0.207-0.101-0.424-0.155-0.63
			c-0.076-0.284-0.216-0.474-0.407-0.692c-0.116-0.132-0.329-0.264-0.431-0.402c-0.135-0.183-0.275-0.343-0.423-0.514
			c-0.181-0.208-0.331-0.461-0.51-0.671c-0.172-0.2-0.349-0.393-0.508-0.605c-0.185-0.246-0.33-0.544-0.545-0.762
			c-0.163-0.165-0.427-0.281-0.548-0.472c-0.152-0.241-0.227-0.473-0.446-0.677c-0.107-0.1-0.22-0.174-0.345-0.247
			c-0.149-0.086-0.189-0.17-0.255-0.325c-0.407-0.961-0.952-1.872-1.422-2.804c-0.065-0.128-0.073-0.354-0.108-0.492
			c-0.056-0.218-0.225-0.391-0.276-0.612c-0.039-0.164-0.049-0.341-0.035-0.514c0.018-0.233,0.163-0.433,0.257-0.645
			c0.175-0.397,0.49-0.958,0.328-1.394c-0.079-0.212-0.291-0.335-0.458-0.48c-0.19-0.164-0.368-0.345-0.552-0.515
			c-0.178-0.165-0.429-0.301-0.577-0.495c-0.14-0.184-0.187-0.454-0.363-0.625c-0.083,0.289,0.044,0.555,0.199,0.788
			c0.097,0.146,0.234,0.247,0.329,0.392c0.089,0.134,0.139,0.286,0.229,0.418c0.161,0.237,0.363,0.471,0.586,0.648
			c0.069,0.055,0.231,0.137,0.266,0.211c0.055,0.114-0.081,0.296-0.133,0.401c-0.06-0.004-0.13-0.021-0.192-0.009
			c-0.091,0.017-0.189,0.133-0.282,0.12c-0.118-0.017-0.319-0.245-0.429-0.317c-0.245-0.161-0.334-0.249-0.462-0.521
			c-0.109-0.231-0.231-0.493-0.299-0.739c-0.045-0.163-0.024-0.356-0.032-0.525c-0.009-0.201-0.048-0.393-0.079-0.591
			c-0.017-0.105-0.023-0.209-0.036-0.314c-0.015-0.126-0.082-0.23-0.105-0.347c-0.018-0.093,0.015-0.188-0.012-0.281
			c-0.035-0.121-0.126-0.224-0.162-0.347c-0.061-0.211-0.184-0.359-0.218-0.589c-0.052-0.358-0.085-0.728-0.147-1.083
			c-0.058-0.334-0.228-0.618-0.317-0.938c-0.055-0.198-0.021-0.432-0.023-0.637c-0.002-0.234-0.125-0.434-0.163-0.665
			c-0.087-0.526,0.603-0.849,0.596-1.37c-0.008-0.617,0.149-1.218,0.149-1.837c0-0.719,0.018-1.42,0.055-2.132
			c0.018-0.365-0.008-0.717-0.056-1.072c-0.039-0.287-0.151-0.7-0.055-0.982c0.09-0.263,0.254-0.308,0.232-0.613
			c-0.018-0.257-0.146-0.455-0.191-0.708c-0.075-0.421-0.112-0.907-0.094-1.338c0.017-0.409,0.186-0.745,0.217-1.139
			c0.021-0.259,0.094-0.803-0.163-0.934c-0.059,0.119-0.093,0.276-0.073,0.413c-0.409,0.072-0.418-0.754-0.387-0.973
			c0.026-0.183,0.121-0.466,0.38-0.322c0.1,0.055,0.116,0.283,0.214,0.365c0.223-0.429,0.165-1.008,0.165-1.475
			c0-0.411,0.006-0.615,0.184-0.955c0.155-0.296,0.328-0.508,0.146-0.827c-0.148-0.261-0.394-0.314-0.357-0.642
			c0.024-0.218-0.093-0.646-0.044-0.839c0.068,0.033,0.141,0.005,0.205,0.021c0.01-0.162,0.001-0.267-0.079-0.403
			c-0.037-0.063-0.165-0.006-0.189-0.099c-0.016-0.063,0.097-0.154,0.12-0.225c0.1-0.302,0.136-0.618,0.579-0.565
			c-0.014,0.139,0.003,0.22,0.098,0.296c0.075,0.06,0.305,0.068,0.409,0.049c0.239-0.045,0.219-0.09,0.29-0.291
			c0.123-0.35,0.158-0.459,0.589-0.302c0.201,0.361-0.096,0.944-0.326,1.227c-0.156,0.192-0.197,0.38-0.311,0.598
			c-0.119,0.227-0.177,0.457-0.258,0.692c-0.088,0.259-0.203,0.579-0.094,0.857c0.17-0.082,0.229-0.324,0.271-0.489
			c0.052-0.204,0.11-0.395,0.185-0.592c0.172-0.449,0.392-0.87,0.572-1.316c0.355-0.877,0.832-1.68,1.062-2.604
			c-0.075-0.064-0.185-0.031-0.275-0.05c-0.047-0.342,0.248-0.333,0.392-0.545c0.069-0.102,0.098-0.202,0.108-0.325
			c0.007-0.09-0.024-0.197,0.019-0.278c0.059-0.112,0.205-0.1,0.274-0.21c0.053-0.085,0.033-0.199,0.033-0.299
			c0-0.149,0.022-0.584-0.144-0.65c-0.094-0.038-0.301,0.071-0.392,0.096c-0.134,0.037-0.265,0.08-0.396,0.13
			c-0.311,0.121-0.558,0.284-0.497,0.654c-0.43,0.003-0.836-0.214-1.074-0.559c-0.049-0.071-0.079-0.159-0.132-0.227
			c-0.072-0.093-0.174-0.126-0.263-0.197c-0.121-0.096-0.204-0.273-0.355-0.317c-0.179-0.052-0.446-0.001-0.634,0
			c-0.161,0.001-0.199-0.03-0.327-0.119c-0.423-0.294-0.893,0.197-1.358,0.133c-0.193-0.027-0.259-0.226-0.432-0.29
			c-0.176-0.065-0.349,0.103-0.539,0.1l-1.531-1.07c-0.127,0.001-0.246,0.052-0.372,0.027c-0.176-0.036-0.35-0.181-0.514-0.244
			c-0.043-0.016-0.138-0.045-0.181-0.041c-0.069,0.007-0.09,0.067-0.149,0.084c-0.134,0.037-0.197-0.071-0.274-0.173
			c-0.186-0.249-0.456-0.702-0.796-0.709c-0.138-0.003-0.465,0.161-0.559,0.055c-0.06-0.068,0.002-0.202-0.108-0.229
			c-0.105-0.026-0.152,0.107-0.243,0.135c-0.157-0.227-0.336-0.107-0.579-0.166c-0.158-0.039-0.319-0.184-0.345-0.341
			c-0.041-0.25,0.08-0.44-0.185-0.571c-0.093-0.046-0.1-0.017-0.165-0.1c-0.069-0.088-0.023-0.115-0.143-0.192
			c-0.136-0.087-0.383-0.198-0.401-0.378c-0.009-0.09,0.052-0.185,0.056-0.281c0.007-0.161,0.006-0.327-0.013-0.487
			c-0.018-0.147-0.049-0.359-0.228-0.354c-0.144,0.004-0.406,0.272-0.511,0.011c-0.06-0.148,0.207-0.425,0.208-0.609
			c0.001-0.155-0.102-0.214-0.207-0.318c-0.112-0.111-0.171-0.207-0.225-0.36c-0.033-0.095-0.038-0.223-0.082-0.31
			c-0.03-0.06-0.097-0.116-0.127-0.178c-0.073-0.146-0.089-0.286-0.089-0.447l0.007-1.05l-0.518-0.427l0.305-1.178
			c-0.051-0.073-0.128-0.106-0.162-0.197c-0.064-0.169-0.062-0.311-0.169-0.469c-0.094-0.14-0.235-0.31-0.385-0.391
			c-0.159-0.086-0.38-0.038-0.539-0.117c-0.263-0.132-0.417-0.494-0.612-0.7c-0.12-0.127-0.223-0.146-0.371-0.228
			c-0.131-0.072-0.188-0.209-0.229-0.344c-0.038-0.128-0.262-1.069-0.429-1.038c-0.312-0.105-0.428-0.445-0.587-0.699
			c-0.054-0.086-0.117-0.164-0.167-0.252c-0.05-0.086-0.089-0.196-0.172-0.256c-0.173-0.124-0.392-0.139-0.556-0.287
			c-0.28-0.253-0.611-0.567-0.723-0.941c-0.075-0.249-0.167-0.486-0.254-0.732c-0.023-0.065-0.097-0.175-0.1-0.244
			c-0.005-0.111,0.132-0.134,0.091-0.256c-0.038-0.115-0.198-0.137-0.289-0.196c-0.11-0.071-0.148-0.169-0.2-0.283
			c-0.123-0.269-0.126-0.609-0.498-0.639c-0.146-0.157-0.088-0.462-0.12-0.66c-0.054-0.34-0.224-0.634-0.46-0.88
			c-0.129-0.134-0.265-0.22-0.317-0.404c-0.051-0.18-0.049-0.364-0.066-0.549c-0.037-0.404-0.213-0.676-0.516-0.943
			c-0.142-0.125-0.227-0.215-0.297-0.396c-0.054-0.141-0.124-0.297-0.145-0.447c-0.146-0.158-0.358-0.335-0.545-0.437
			c-0.245-0.135-0.587-0.165-0.731-0.423c-0.077-0.137-0.124-0.29-0.197-0.43c-0.08-0.155-0.122-0.087-0.28-0.07
			c-0.159,0.016-0.24-0.09-0.376-0.161c-0.089-0.046-0.12-0.058-0.178-0.141c-0.06-0.085-0.092-0.13-0.185-0.177
			c-0.134-0.068-0.22-0.126-0.241-0.289c-0.026-0.197-0.014-0.348-0.111-0.533c-0.079,0.1-0.147,0.216-0.253,0.295
			c-0.011-0.118,0.009-0.245,0.009-0.364c-0.098-0.047-0.219-0.088-0.325-0.104c-0.081-0.146-0.119-0.292-0.145-0.459
			c-0.014-0.087-0.05-0.263-0.117-0.326c-0.04-0.037-0.042-0.02-0.094,0.007c-0.05,0.026-0.109,0.047-0.147,0.091
			c-0.044-0.078-0.053-0.173-0.085-0.255c-0.11,0.021-0.228,0.083-0.334,0.122c-0.062,0.024-0.134,0.077-0.204,0.067
			c-0.008-0.117,0.001-0.234-0.009-0.35c-0.066-0.007-0.184,0.064-0.242,0.1c-0.078,0.049-0.134,0.124-0.205,0.18
			c-0.185,0.146-0.368,0.079-0.586,0.037c-0.16-0.031-0.312-0.034-0.462-0.101c-0.067-0.03-0.118-0.073-0.178-0.109
			c-0.093-0.055-0.123,0.014-0.212,0.048c-0.132,0.051-0.357,0.069-0.481-0.009c-0.13-0.081-0.299-0.226-0.459-0.183
			c-0.157,0.042-0.281,0.161-0.448,0.184c-0.163,0.022-0.226-0.033-0.35-0.115c-0.06-0.039-0.124-0.088-0.191-0.114
			c-0.139-0.053-0.288-0.07-0.426-0.124c-0.196-0.077-0.415-0.149-0.595-0.257c-0.099,0.105-0.157,0.292-0.226,0.419
			c-0.062,0.113-0.14,0.328-0.286,0.358c-0.097,0.02-0.192-0.044-0.288-0.064c-0.1-0.021-0.197-0.021-0.3-0.021
			c-0.133,0-0.245,0.045-0.293,0.184c-0.045-0.024-0.157-0.136-0.215-0.136c-0.065,0.001-0.111,0.083-0.154,0.122
			c-0.164,0.15-0.303,0.1-0.506,0.104c-0.062,0.194-0.144,0.357-0.239,0.537c-0.166,0.314-0.362,0.607-0.518,0.925
			c-0.153,0.312-0.085,0.691-0.14,1.029c-0.008,0.05,0.004,0.196-0.027,0.237c-0.027,0.036-0.142,0.051-0.186,0.078
			c-0.182,0.108-0.169,0.291-0.231,0.465c-0.038,0.106-0.031,0.156,0.026,0.254c0.076,0.131,0.135,0.172-0.012,0.283
			c-0.13,0.098-0.455,0.441-0.625,0.296c-0.066,0.033-0.078,0.136-0.08,0.203c-0.006,0.227-0.266,0.305-0.433,0.437
			c-0.215,0.17-0.137,0.389-0.219,0.618c-0.144,0.008-0.285,0.016-0.43,0.024c-0.166,0.008-0.393,0.045-0.559,0.008
			c-0.106-0.024-0.105-0.111-0.166-0.206c-0.051-0.08-0.147-0.208-0.251-0.22c-0.138-0.016-0.214,0.118-0.359,0.051
			c-0.154-0.072-0.288-0.253-0.422-0.358c-0.153-0.121-0.294-0.258-0.434-0.394c-0.064-0.062-0.111-0.109-0.191-0.132
			c-0.102-0.03-0.225-0.024-0.331-0.043c-0.189-0.035-0.448-0.022-0.606-0.151c-0.078-0.064-0.232-0.499-0.364-0.354
			c-0.042-0.135-0.043-0.219-0.165-0.275c-0.146-0.067-0.323-0.099-0.481-0.103c-0.215-0.005-0.385,0.013-0.586-0.061
			c-0.136-0.05-0.247-0.154-0.353-0.253c-0.096-0.089-0.229-0.146-0.359-0.189c-0.106-0.035-0.23-0.054-0.314-0.134
			c-0.197-0.186-0.282-0.484-0.457-0.691c-0.133-0.157-0.346-0.182-0.528-0.259c-0.182-0.078-0.357-0.144-0.507-0.273
			c-0.294-0.251-0.589-0.498-0.878-0.752c-0.151-0.134-0.162-0.249-0.177-0.442c-0.019-0.253-0.153-0.423-0.264-0.644
			c-0.07-0.045-0.115-0.18-0.157-0.252c-0.078-0.136-0.163-0.277-0.255-0.406c-0.096-0.136-0.144-0.175-0.157-0.346
			c-0.016-0.201-0.018-0.404-0.047-0.603c-0.065-0.441-0.089-0.884-0.154-1.323c-0.059-0.401-0.307-0.597-0.541-0.9
			c-0.101-0.131-0.237-0.28-0.309-0.428c-0.059-0.12-0.172-0.36-0.158-0.497c-0.131-0.143-0.155-0.468-0.22-0.649
			c-0.111-0.307-0.345-0.531-0.595-0.733c-0.252-0.203-0.508-0.401-0.739-0.629c-0.276-0.271-0.56-0.353-0.919-0.465
			c-0.17-0.053-0.362-0.117-0.524-0.194c-0.065-0.032-0.199-0.088-0.237-0.146c-0.056-0.086-0.026-0.197-0.102-0.282
			c-0.083-0.093-0.206-0.16-0.296-0.251c-0.187-0.191-0.443-0.299-0.619-0.494c-0.203-0.226-0.246-0.557-0.483-0.759
			c-0.317-0.27-0.743-0.394-1.017-0.726c-0.1-0.12-0.218-0.243-0.296-0.376c-0.032-0.054-0.055-0.115-0.089-0.168l-0.525-0.538
			l-1.504-0.772l-1.111-1.91c-0.1-0.02-0.143-0.135-0.235-0.173c-0.099-0.04-0.211-0.035-0.306-0.075
			c-0.111-0.047-0.159-0.098-0.176-0.213H59.344v3.295H41.453l-23.169-8.554v-0.874l0.564-0.726L3.862,35.389
			c0.025,0.363,0.2,0.677,0.273,1.031c0.077,0.371,0.286,0.973,0.561,1.235c0.281,0.267,0.573,0.375,0.609,0.805
			c0.03,0.372,0.194,0.717,0.24,1.071c0.147,0.01,0.329-0.051,0.469-0.02c0.257,0.057,0.212,0.268,0.271,0.466
			c0.104,0.349,0.499,0.372,0.786,0.517c0.035,0.224-0.202,0.588-0.343,0.756c-0.128,0.153-0.242,0.136-0.159,0.377
			c0.045,0.132,0.14,0.225,0.159,0.371c0.025,0.178-0.068,0.357-0.053,0.53c0.025,0.278,0.343,0.385,0.53,0.589
			c0.332,0.36,0.642,0.732,0.923,1.131c0.157,0.224,0.318,0.368,0.45,0.609c0.108,0.197,0.303,0.427,0.35,0.645
			c0.091,0.417-0.073,0.949-0.153,1.358c0.228,0.05,0.387-0.058,0.527,0.152c0.087,0.129,0.158,0.241,0.261,0.359
			c0.123,0.141,0.243,0.281,0.403,0.383c0.168,0.108,0.364,0.116,0.543,0.185c0.019,0.219,0.075,0.428,0.086,0.647
			c0.011,0.209-0.011,0.42,0,0.631c0.014,0.267,0.014,0.515,0.011,0.775c-0.002,0.154-0.005,0.31,0,0.464
			c0.008,0.231,0.066,0.326,0.312,0.374c0.349,0.067,0.603,0.051,0.855,0.329c0.149,0.165,0.278,0.333,0.282,0.554
			c0.007,0.426,0.032,1.012,0.054,1.447c0.013,0.244-0.067,0.484-0.062,0.719c0.006,0.251,0.256,0.388,0.432,0.536
			c0.216,0.181,0.267,0.338,0.305,0.628c0.02,0.156-0.041,0.417,0.014,0.566c0.11,0.299,0.605,0.405,0.795,0.654
			c0.141,0.184,0.168,0.247,0.406,0.3c0.197,0.044,0.323,0.097,0.483,0.239c0.188,0.167,0.382,0.329,0.632,0.389
			c0.184,0.044,0.309,0.021,0.426,0.194c0.129,0.191,0.132,0.358,0.328,0.519c0.217,0.179,0.391,0.135,0.65,0.161
			c0.543,0.054,0.871,0.353,1.239,0.732c0.177,0.183,0.283,0.439,0.489,0.585c0.209,0.149,0.455,0.248,0.548,0.497
			c0.033,0.089,0.018,0.182,0.089,0.258c0.113,0.121,0.321,0.108,0.467,0.187c0.309,0.166,0.089,0.36,0.236,0.587
			c0.256,0.396,0.764,0.632,1.032,0.982c0.165,0.216,0.182,0.446,0.284,0.688c0.131,0.314,0.313,0.529,0.622,0.659
			c0.108,0.045,0.165,0.096,0.243,0.174c0.156,0.158,0.298,0.169,0.518,0.206c0.133,0.022,0.154,0.006,0.188,0.126
			c0.042,0.151-0.07,0.353-0.016,0.496c0.054,0.144,0.258,0.162,0.367,0.244c0.087,0.064,0.087,0.061,0.095,0.177
			c0.016,0.229,0.09,0.551-0.02,0.764c-0.045,0.088-0.132,0.142-0.171,0.237c-0.048,0.119-0.055,0.246-0.105,0.369
			c-0.083,0.206-0.114,0.364,0.15,0.363c0.034,0.162,0.04,0.43-0.058,0.568c-0.215,0.301-0.334,0.591-0.541,0.894
			c-0.188,0.275-0.521,0.52-0.582,0.867c0.247,0.026,0.646-0.376,0.705,0.054c0.038,0.277-0.107,0.567,0.047,0.827
			c0.067,0.113,0.1,0.154,0.139,0.282c0.05,0.162,0.14,0.233,0.306,0.163c0.14-0.06,0.198-0.167,0.361-0.186
			c0.169-0.02,0.38-0.02,0.533,0.053c0.153,0.072,0.168,0.138,0.106,0.296c-0.087,0.222-0.202,0.357-0.44,0.367
			c-0.233,0.01-0.456,0.015-0.598,0.241c-0.112,0.177-0.135,0.288,0.008,0.425c0.157,0.15,0.303,0.258,0.496,0.365
			c0.146,0.08,0.287,0.112,0.262,0.307c-0.059,0.444-0.695-0.091-0.82-0.212c-0.137-0.133-0.26-0.319-0.284-0.513
			c-0.046-0.363,0.05-0.642-0.319-0.879c-0.308-0.198-0.652-0.227-0.704-0.653c-0.027-0.223,0-0.466-0.009-0.69
			c-0.17,0.03-0.368,0.198-0.516,0.286c-0.177,0.104-0.364,0.239-0.562,0.297c-0.421,0.124-0.829,0.074-1.249-0.02
			c-0.215-0.048-0.418-0.129-0.63-0.182c-0.235-0.059-0.486-0.032-0.723-0.082c-0.177-0.037-0.346-0.104-0.53-0.094
			c-0.167,0.009-0.23,0.044-0.371-0.071c-0.155,0.16-0.02,0.474,0.037,0.654c0.058,0.18,0.15,0.212,0.322,0.276
			c0.185,0.069,0.253,0.203,0.41,0.306c0.109,0.072,0.152,0.012,0.273-0.061c0.066,0.306,0.078,0.31,0.373,0.38
			c0.261,0.062,0.393,0.43,0.518,0.65c0.156,0.273,0.467,0.315,0.748,0.423c0.317,0.121,0.642,0.341,0.797,0.652
			c0.151,0.301,0.041,0.613,0.041,0.947c0,0.219,0.012,0.234,0.217,0.33c0.136,0.064,0.26,0.126,0.382,0.21
			c0.112,0.077,0.216,0.182,0.337,0.243c0.162,0.082,0.301,0.021,0.47,0c0.213-0.027,0.42,0.073,0.604,0.175
			c0.168,0.094,0.388,0.202,0.515,0.343c0.132,0.146,0.181,0.358,0.319,0.497c0.114,0.116,0.154,0.052,0.294,0.003
			c0.272-0.095,0.59,0.063,0.802,0.213c0.166,0.117,0.284,0.162,0.406,0.346c0.111,0.168,0.16,0.387,0.245,0.567
			c0.116,0.249,0.264,0.371,0.471,0.542c0.142,0.118,0.294,0.34,0.504,0.297c0.183-0.038,0.445-0.256,0.591-0.367
			c0.256-0.194,0.322-0.506,0.666-0.311c0.163,0.093,0.484,0.374,0.695,0.305c0.137-0.044,0.164-0.487,0.162-0.643
			c0.143-0.001,0.184-0.021,0.245-0.163c0.087-0.203-0.007-0.185-0.113-0.324c-0.199-0.26-0.116-0.84-0.087-1.145
			c0.012-0.135,0.021-0.279,0.01-0.416c-0.008-0.104-0.109-0.344,0.002-0.426c0.23-0.171,0.257,0.305,0.265,0.41
			c0.024,0.305,0.012,0.502,0.245,0.732c0.205,0.203,0.378,0.105,0.633,0.165c0.099,0.024,0.188,0.11,0.192,0.235
			c0.006,0.146-0.107,0.187-0.211,0.266c-0.242,0.183-0.439,0.389-0.55,0.662c-0.04,0.096-0.285,0.332-0.278,0.412
			c0.004,0.058,0.123,0.141,0.156,0.186c0.064,0.087,0.12,0.177,0.195,0.256c0.136,0.142,0.265,0.223,0.302,0.429
			c0.021,0.117,0.014,0.231,0.049,0.344c0.055-0.007,0.109-0.007,0.15,0.028c-0.019,0.153,0.409,0.521,0.556,0.594
			c0.169,0.084,0.3,0.08,0.443,0.214c0.117,0.11,0.227,0.238,0.338,0.354c0.088,0.091,0.175,0.191,0.263,0.28
			c0.115,0.116,0.265,0.161,0.382,0.263c0.109,0.095,0.122,0.257,0.211,0.364c0.112,0.133,0.26,0.08,0.413,0.111
			c0.293,0.059,0.673,0.608,1.008,0.405c0.141,0.109,0.318,0.043,0.464,0.167c0.071,0.06,0.132,0.125,0.192,0.196
			c0.151,0.18,0.236,0.331,0.291,0.557c0.05,0.205,0.099,0.333,0.275,0.452c0.167,0.114,0.268,0.222,0.365,0.402
			c0.197,0.363,0.35,0.778,0.474,1.169c0.078,0.246,0.196,0.478,0.274,0.725c0.061,0.193,0.097,0.423,0.186,0.602
			c0.122,0.247-0.012,0.571,0.014,0.842c0.011,0.114,0.013,0.25,0.012,0.363c-0.002,0.152-0.079,0.199-0.155,0.319
			c-0.174,0.274,0.033,0.478,0.048,0.76c0.004,0.078-0.043,0.309-0.124,0.355c-0.119,0.067-0.15-0.062-0.267,0.056
			c-0.257,0.26-0.236,0.794-0.322,1.126c-0.066,0.256-0.055,0.549-0.167,0.788c-0.126,0.269-0.28,0.517-0.393,0.795
			c-0.044,0.109-0.136,0.3-0.082,0.421c0.055,0.123,0.155,0.042,0.285-0.007c0.104-0.039,0.262-0.08,0.321-0.181
			c0.086-0.146-0.059-0.321-0.017-0.48c0.03-0.114,0.231-0.311,0.332-0.182c0.129,0.164-0.082,0.34-0.177,0.435
			c0.243,0.145,0.444,0.311,0.644,0.512c0.216,0.218,0.502,0.177,0.791,0.208c0.316,0.034,0.578,0.486,0.669,0.77
			c0.043,0.136,0.062,0.358,0.163,0.466c0.101,0.109,0.294,0.071,0.429,0.057c0.169-0.017,0.237-0.085,0.389-0.146
			c0.16-0.065,0.122,0.037,0.236,0.173c0.115,0.137,0.158,0.32,0.228,0.484c0.08,0.187,0.066,0.356,0.302,0.401
			c0.138,0.026,0.268-0.038,0.361,0.068c0.055,0.063,0.069,0.166,0.109,0.24c0.076,0.14,0.199,0.264,0.321,0.367
			c0.204,0.17,0.461,0.217,0.693,0.334c0.176,0.089,0.336,0.203,0.495,0.318c0.183,0.131,0.36,0.273,0.553,0.389
			c0.186,0.112,0.405,0.136,0.578,0.268c0.218,0.165,0.381,0.394,0.568,0.594c0.263,0.28,0.516,0.563,0.804,0.819
			c0.238,0.212,0.544,0.44,0.73,0.693c0.087,0.119,0.106,0.258,0.22,0.37c0.104,0.102,0.228,0.189,0.347,0.274
			c0.166,0.118,0.303,0.254,0.455,0.384c0.177,0.153,0.407,0.2,0.616,0.298c0.198,0.093,0.448,0.196,0.618,0.331
			c0.111,0.088,0.194,0.217,0.294,0.317c0.198,0.199,0.418,0.4,0.42,0.706c0.001,0.191,0.103,0.215,0.231,0.361
			c0.134,0.152,0.199,0.272,0.229,0.466c0.071,0.445,0.08,0.931,0.195,1.367c0.102,0.388,0.321,0.748,0.573,1.057
			c0.18,0.22,0.435,0.444,0.727,0.461c0.186,0.011,0.379-0.137,0.529-0.246c0.077-0.057,0.153-0.156,0.223-0.225
			c0.148-0.146,0.299-0.188,0.465-0.299c0.247-0.164,0.412-0.448,0.661-0.598c0.24-0.144,0.506-0.164,0.703-0.38
			c0.387-0.424,0.569-0.853,0.611-1.421c0.017-0.226,0.062-0.541,0.013-0.764c-0.053-0.238-0.319-0.333-0.403-0.547
			c-0.122-0.31-0.208-0.4-0.532-0.532c-0.218-0.089-0.697-0.139-0.819-0.366c-0.12-0.221,0-0.608-0.047-0.85
			c-0.064-0.327-0.476-0.617-0.705-0.844c-0.22-0.218,0.244-0.682,0.072-0.932c-0.201-0.292-0.809,0.267-1.047-0.029
			c-0.121-0.15-0.133-0.426-0.227-0.6c-0.125-0.232-0.335-0.403-0.541-0.565c-0.26-0.204-0.509-0.411-0.755-0.63
			c-0.109-0.097-0.183-0.179-0.332-0.184c-0.108-0.004-0.395,0.028-0.46,0.14c-0.072,0.124,0.148,0.426,0.203,0.535
			c0.068,0.135,0.13,0.264,0.109,0.42c-0.058,0.429-0.439,0.293-0.737,0.469c-0.074-0.148-0.021-0.332-0.126-0.461
			c-0.112-0.137-0.313-0.141-0.471-0.142c-0.201-0.001-0.42,0.001-0.578-0.152c-0.137-0.132-0.195-0.391-0.278-0.561
			c-0.097-0.199-0.212-0.393-0.255-0.613c-0.043-0.223-0.05-0.418-0.142-0.63c-0.162-0.377-0.137-0.756-0.137-1.16
			c0.2-0.08,0.226-0.448,0.299-0.635c0.067-0.17,0.19-0.332,0.143-0.529c-0.059-0.244-0.28-0.459-0.413-0.666
			c-0.177-0.275-0.266-0.597-0.51-0.821c-0.297-0.273-0.564-0.537-0.703-0.926c-0.143-0.398-0.236-0.808-0.384-1.206
			c-0.077-0.206-0.162-0.41-0.213-0.622c-0.034-0.142-0.049-0.315-0.107-0.447c-0.107-0.242-0.521-0.479-0.739-0.597
			c-0.361-0.195-0.312-0.509-0.454-0.847c-0.063-0.149-0.154-0.253-0.292-0.336c-0.085-0.051-0.228-0.091-0.258-0.199
			c-0.049-0.182-0.062-0.391-0.081-0.577c-0.02-0.202-0.028-0.401-0.028-0.607c0-0.207,0.043-0.395,0.071-0.597
			c0.015-0.109,0.044-0.23,0.012-0.338c-0.036-0.119-0.147-0.209-0.205-0.319c-0.123-0.232-0.159-0.487-0.204-0.741
			c-0.014-0.081-0.037-0.163-0.041-0.248c-0.005-0.107,0.051-0.262,0.014-0.364c-0.044-0.122-0.22-0.241-0.328-0.301
			c-0.174-0.096-0.193-0.16-0.126-0.365c0.087-0.269,0.3-0.599-0.126-0.654c-0.149-0.019-0.263-0.032-0.401-0.11
			c-0.353-0.201-0.186-0.38-0.089-0.674c0.131-0.399-0.2-0.5-0.488-0.676c-0.196-0.119-0.368-0.308-0.524-0.485
			c-0.13-0.146-0.203-0.447-0.394-0.477c-0.336-0.052-0.318,0.236-0.246,0.464c0.08,0.253,0.086,0.563,0.246,0.786
			c0.199,0.279,0.533,0.44,0.663,0.768c-0.125,0.104-0.271,0.188-0.406,0.279c-0.114-0.162-0.199-0.328-0.337-0.467
			c-0.098-0.1-0.21-0.184-0.308-0.283c-0.207-0.209-0.114-0.653-0.116-0.924c-0.003-0.526-0.559-0.632-0.796-1.026
			c-0.251-0.417,0.015-0.733,0.311-0.998c-0.211-0.124-0.461-0.181-0.678-0.302c-0.167-0.094-0.342-0.152-0.517-0.227
			c-0.159-0.068-0.442-0.158-0.459-0.371c-0.007-0.089,0.075-0.143,0.096-0.225c0.037-0.139-0.038-0.194-0.083-0.331
			c-0.085-0.261-0.304-0.399-0.46-0.612c-0.18-0.246-0.296-0.478-0.326-0.782c-0.03-0.293-0.087-0.431-0.353-0.564
			c-0.241-0.122-0.417-0.294-0.68-0.387c-0.293-0.103-0.707-0.222-0.901-0.462c-0.215-0.266-0.409-0.446-0.41-0.798
			c0-0.145-0.024-0.172-0.122-0.273c-0.128-0.132-0.171-0.243-0.176-0.43c-0.005-0.175,0.015-0.354-0.009-0.528
			c-0.028-0.195-0.099-0.393-0.152-0.581c-0.058-0.205-0.1-0.378-0.08-0.594c0.013-0.139,0.073-0.262,0.035-0.4
			c-0.038-0.142-0.159-0.263-0.258-0.368c-0.147-0.157-0.2-0.241-0.2-0.454c0-0.264,0.135-0.547-0.035-0.794
			c-0.17-0.248-0.726-0.026-0.991-0.239c-0.112-0.09-0.189-0.237-0.281-0.35c-0.102-0.125-0.227-0.232-0.291-0.383
			c-0.066-0.154-0.084-0.32-0.125-0.479c-0.049-0.193-0.153-0.361-0.2-0.553c-0.088-0.355-0.099-0.935-0.609-0.813
			c-0.135,0.032-0.255,0.145-0.357,0.07c-0.094-0.068-0.18-0.285-0.205-0.394c-0.06-0.266,0.001-0.416-0.331-0.519
			c-0.28-0.087-0.238,0.014-0.322,0.22c-0.059,0.146-0.17,0.232-0.317,0.136c-0.174-0.114-0.14-0.377-0.121-0.56
			c0.024-0.236,0.072-0.498-0.028-0.722c-0.102-0.227-0.351-0.395-0.427-0.632c-0.088-0.27,0.057-0.595-0.152-0.831
			c-0.097-0.11-0.219-0.174-0.31-0.295c-0.066-0.088-0.119-0.2-0.165-0.286c-0.058-0.109-0.192-0.294-0.303-0.361
			c-0.11-0.067-0.249-0.079-0.361-0.14c-0.194-0.106-0.377-0.327-0.541-0.478c-0.21-0.193-0.399-0.403-0.599-0.604
			c-0.163-0.164-0.332-0.414-0.524-0.538c-0.211-0.137-0.502-0.194-0.644-0.41c-0.141-0.214-0.164-0.287-0.454-0.287
			c-0.21,0-0.51,0.068-0.628-0.148c-0.122-0.222-0.069-0.504-0.216-0.72c-0.073-0.107-0.169-0.202-0.268-0.281
			c-0.168-0.133-0.276-0.3-0.42-0.458c-0.255-0.282-0.602-0.413-0.705-0.805c-0.061-0.231-0.088-0.43-0.15-0.654
			c-0.021-0.075-0.03-0.134-0.026-0.215c0.009-0.206,0.025-0.412,0.081-0.61c0.11-0.387,0.167-0.909,0.083-1.308
			c-0.049-0.234-0.21-0.418-0.286-0.641c-0.086-0.253-0.097-0.539-0.121-0.803c-0.045-0.51-0.031-1.017-0.15-1.513
			c-0.068-0.283-0.169-0.431-0.42-0.605c-0.163-0.113-0.23-0.26-0.352-0.41c-0.142-0.174-0.184-0.488-0.204-0.696
			c-0.03-0.298,0.015-0.605-0.009-0.904c-0.031-0.387-0.037-0.763,0.007-1.149c0.034-0.302,0.026-0.596,0.144-0.884
			c0.106-0.259,0.25-0.489,0.374-0.736c0.128-0.257-0.026-0.369-0.069-0.622c-0.026-0.15-0.075-0.285-0.107-0.428
			c-0.018-0.082,0.002-0.173-0.012-0.255c-0.019-0.111-0.087-0.176-0.138-0.275c0.133-0.096,0.426,0.219,0.556,0.287
			c0.18,0.095,0.358,0.191,0.546,0.274c0.29,0.129,0.574,0.236,0.851,0.388c0.247,0.135,0.376,0.317,0.567,0.516
			c0.19,0.199,0.417,0.307,0.631,0.471c0.233,0.179,0.38,0.35,0.657,0.461c0.284,0.115,0.561,0.155,0.866,0.172
			c0.253,0.015,0.45,0.038,0.615-0.16c0.155-0.186,0.149-0.328,0.159-0.567c0.015-0.368,0.392-0.06,0.566,0.031
			c0.262,0.136,0.56,0.195,0.835,0.298c0.386,0.145,0.676,0.375,0.769,0.794c0.024,0.111,0.029,0.254,0.025,0.367
			c-0.005,0.125-0.06,0.169-0.087,0.275c-0.047,0.181,0.177,0.318,0.325,0.38c0.457,0.193,0.978,0.311,1.469,0.326
			c0.198,0.006,0.542,0.111,0.551-0.18c0.294,0.057,0.508,0.834,0.872,0.445c0.409,0.392,0.551,0.947,0.414,1.508
			c-0.046,0.189-0.098,0.104-0.243,0.197c-0.125,0.08-0.16,0.26-0.17,0.397c-0.02,0.262-0.067,0.524-0.068,0.785
			c-0.001,0.256,0.077,0.384,0.157,0.622c0.049,0.147,0.021,0.421,0.09,0.56c0.177,0.358,0.361,0.722,0.642,1.008
			c0.155,0.158,0.315,0.317,0.446,0.496c0.093,0.127,0.18,0.268,0.244,0.409c0.082,0.179,0.116,0.355,0.224,0.522
			c0.215,0.333,0.435,0.702,0.53,1.085c0.133,0.538-0.03,1.108,0.055,1.655c0.033,0.215,0.091,0.263,0.283,0.357
			c0.059,0.029,0.135,0.051,0.185,0.096c0.035,0.032,0.04,0.106,0.073,0.142c0.048,0.342,0.288,0.616,0.418,0.922
			c0.149,0.35,0.391,0.685,0.632,0.981c0.272,0.335,0.743,0.716,0.574,1.197c-0.053,0.149-0.157,0.369-0.059,0.528
			c0.082,0.132,0.343,0.149,0.483,0.171c0.155,0.025,0.363,0.03,0.497,0.123c0.134,0.092,0.161,0.249,0.174,0.396
			c0.018,0.201-0.116,0.34,0.002,0.541c0.098,0.167,0.212,0.197,0.229,0.416c0.028,0.377-0.151,0.907,0.277,1.095
			c0.173,0.076,0.304,0.112,0.4,0.29c0.098,0.181,0.152,0.367,0.33,0.489c0.262,0.179,0.701,0.156,0.592,0.576
			c-0.134,0.515,0.281,0.729,0.636,1.023c0.139,0.115,0.312,0.236,0.41,0.391c0.11,0.173,0.185,0.395,0.26,0.585
			c0.053,0.135,0.066,0.252,0.193,0.325c0.135,0.078,0.305,0.093,0.447,0.161c0.185,0.088,0.363,0.189,0.546,0.282
			c0.113,0.057,0.278,0.107,0.352,0.215c0.143,0.209,0.17,0.493,0.308,0.71c0.083,0.131,0.244,0.42,0.404,0.453
			c0.091,0.168,0.232,0.313,0.346,0.466c0.12,0.162,0.233,0.324,0.384,0.46c0.14,0.128,0.295,0.265,0.45,0.374
			c0.114,0.081,0.239,0.124,0.363,0.183c0.071,0.033,0.12,0.086,0.173,0.142c0.035,0.036,0.077,0.104,0.124,0.124
			c0.125,0.052,0.226-0.095,0.344-0.092c0.207,0.004,0.129,0.393,0.288,0.49c0.092,0.056,0.451,0.016,0.475-0.105
			c0.011-0.053-0.021-0.091,0.013-0.14c0.034-0.051,0.096-0.056,0.146-0.079c0.116-0.053,0.165-0.127,0.3-0.081
			c0.148,0.051,0.266,0.155,0.406,0.222c0.147,0.071,0.327,0.159,0.488,0.188c0.123,0.022,0.212,0.044,0.327,0.09
			c0.146,0.058,0.235,0.093,0.136,0.223c-0.102,0.135-0.149,0.154-0.136,0.335c0.014,0.188,0.095,0.195,0.215,0.319
			c0.091,0.094,0.11,0.343,0.051,0.464c-0.064,0.13-0.271,0.137-0.309,0.295c-0.029,0.125,0.09,0.196,0.111,0.314
			c0.059,0.335-0.094,0.716,0.065,1.036c0.123,0.248,0.58,0.214,0.608,0.511c0.022,0.226-0.153,0.529,0.079,0.683
			c0.102,0.068,0.21,0.083,0.304,0.167c0.103,0.093,0.192,0.195,0.297,0.285c0.196,0.168,0.342,0.327,0.596,0.407
			c0.258,0.081,0.522,0.077,0.779,0.169c0.196,0.071,0.321,0.154,0.536,0.156c0.382-0.173,0.506-0.023,0.772,0.199
			c0.22,0.183,0.25,0.346,0.283,0.636c0.047,0.419,0.022,0.953,0.243,1.327c0.224,0.38,0.57,0.525,0.943,0.733
			c0.064,0.036,0.197,0.153,0.262,0.148c0.058-0.004,0.107-0.103,0.164-0.123c0.209-0.073,0.473,0.069,0.692,0.044
			c-0.111-0.236,0.046-0.495,0.323-0.421c0.257,0.069,0.299,0.369,0.443,0.554c0.29,0.37,0.557,0.787,0.847,1.197
			c0.164,0.232,0.221,0.55,0.399,0.782c0.13,0.169,0.284,0.293,0.386,0.48c0.046,0.084,0.233,0.498,0.007,0.467
			c-0.114-0.016-0.164-0.217-0.183-0.296c-0.021-0.09-0.014-0.228-0.131-0.241c-0.129-0.015-0.216,0.266-0.263,0.364
			c-0.12,0.251-0.169,0.512-0.3,0.762c0.019-0.237,0.041-0.464,0.044-0.704c-0.161,0.362-0.446,0.709-0.657,1.054
			c-0.165,0.272-0.354,0.744-0.36,1.072c-0.003,0.132,0.038,0.271,0.044,0.405c0.006,0.138,0.024,0.364,0.111,0.477
			c0.121,0.158,0.401,0.163,0.567,0.26c0.177,0.103,0.22,0.209,0.294,0.391c0.133,0.33,0.438,0.239,0.732,0.324
			c0.195,0.056,0.196,0.192,0.216,0.371c0.026,0.241,0.048,0.232,0.278,0.316c0.097,0.036,0.239,0.089,0.189,0.214
			c-0.035,0.089-0.18,0.127-0.262,0.13c-0.015,0.137,0.208,0.306,0.296,0.379c0.173-0.188,0.319-0.23,0.575-0.198
			c0.141,0.018,0.381,0.13,0.375-0.079c-0.003-0.112-0.109-0.171-0.029-0.297c0.241,0.018,0.559,0.188,0.746,0.342
			c0.015-0.007,0.028-0.006,0.04,0.005c0.009,0.127-0.051,0.241,0.001,0.362c0.03,0.07,0.09,0.115,0.119,0.189
			c0.035,0.089,0.019,0.179,0.108,0.235c0.089,0.057,0.223,0.015,0.321,0.06c-0.026,0.213-0.002,0.243,0.19,0.328
			c0.146,0.065,0.285,0.147,0.437,0.194c0.31,0.095,0.581,0.326,0.864,0.483c0.068,0.038,0.149,0.067,0.207,0.123
			c0.027,0.026,0.072,0.138,0.099,0.147c0.126,0.045,0.108-0.083,0.107-0.153c-0.005-0.218-0.181-0.32-0.225-0.52
			c0.109-0.001,0.235,0.032,0.353,0.036c0.151,0.005,0.166,0.025,0.245,0.155c0.21,0.345,0.4,0.701,0.778,0.877
			c0.258,0.121,0.84,0.298,0.881,0.62c0.013,0.1,0.048,0.401,0.106,0.461c0.052,0.054,0.161,0.007,0.211,0.046
			c0.068,0.053,0.052,0.137,0.063,0.219c0.03,0.214,0.043,0.197,0.206,0.291c0.125,0.073,0.097,0.155,0.055,0.309
			c-0.061,0.226-0.159,0.219,0.053,0.368c0.09,0.063,0.14,0.11,0.094,0.255c-0.053,0.165-0.196,0.234-0.34,0.304
			c-0.152,0.074-0.257,0.049-0.215,0.234c0.043,0.195,0.109,0.19,0.29,0.231c0.199,0.045,0.418,0.151,0.59,0.259
			c0.199,0.125,0.303,0.266,0.461,0.429c0.165,0.169,0.348,0.259,0.56,0.349c0.208,0.088,0.482,0.373,0.637,0.099
			c0.079-0.14,0.119-0.205,0.298-0.117c0.15,0.074,0.24,0.294,0.311,0.443c0.105,0.218,0.21,0.531-0.129,0.546
			c-0.118,0.005-0.221,0.004-0.322-0.064c-0.107-0.073-0.172-0.176-0.313-0.196c0.131,0.084,0.213,0.212,0.327,0.312
			c0.103,0.089,0.233,0.16,0.346,0.236c0.277,0.186,0.496,0.426,0.752,0.637c0.107,0.088,0.22,0.152,0.34,0.219
			c0.167,0.093,0.281,0.218,0.43,0.331c0.17,0.129,0.413,0.418,0.597,0.181c-0.024,0.36,0.125,0.443,0.419,0.607
			c0.121,0.068,0.241,0.134,0.35,0.217c0.085,0.064,0.164,0.196,0.258,0.23c0.258,0.354,0.519,0.726,0.768,1.097
			c0.178,0.266,0.329,0.519,0.462,0.811c0.088,0.193,0.182,0.39,0.334,0.54c0.321,0.318,0.65,0.608,0.929,0.966
			c0.228,0.291,0.524,0.525,0.705,0.85c0.13,0.234,0.257,0.476,0.374,0.717c0.121,0.248,0.324,0.366,0.525,0.545
			c0.384,0.341,0.727,0.713,1.077,1.084c0.17,0.181,0.334,0.354,0.488,0.552c0.119,0.154,0.271,0.422,0.42,0.545
			c0.199,0.164,0.438,0.271,0.64,0.434c0.206,0.166,0.397,0.369,0.566,0.573c0.342,0.415,0.518,0.898,0.687,1.401
			c0.145,0.431,0.287,0.832,0.363,1.281c0.109,0.649,0.221,1.302,0.142,1.96c-0.015,0.122,0.12,0.292,0.175,0.39
			c0.106,0.186,0.255,0.329,0.375,0.502c0.154,0.223,0.236,0.48,0.352,0.721c0.122,0.254,0.156,0.571,0.317,0.8
			c0.175,0.248,0.577,0.386,0.84,0.537c0.131,0.076,0.258,0.159,0.391,0.232c0.074,0.041,0.226,0.073,0.279,0.129
			c0.194,0.209-0.037,0.652-0.143,0.845c-0.147,0.265,0.029,0.402,0.015,0.67c-0.015,0.307-0.028,0.614-0.028,0.923
			c0,0.182,0.042,0.4-0.134,0.496c-0.103,0.056-0.231,0.055-0.331,0.119c-0.074,0.047-0.059,0.16-0.118,0.22
			c-0.136,0.137-0.238,0.285-0.354,0.437c-0.076,0.1-0.167,0.186-0.23,0.297c-0.045,0.079-0.062,0.175-0.109,0.252
			c-0.103,0.166-0.683,0.446-0.471,0.714c0.111,0.14,0.414,0.152,0.569,0.132c0.137-0.017,0.277-0.089,0.414-0.06
			c0.277,0.059,0.651,0.407,0.7,0.68c0.037,0.205-0.05,0.344-0.21,0.46c-0.084,0.061-0.182,0.105-0.268,0.165
			c-0.091,0.065-0.096,0.139-0.161,0.204c-0.078,0.078-0.193,0.046-0.306,0.066c-0.127,0.023-0.226,0.091-0.35,0.107
			c-0.246,0.03-0.524-0.045-0.748,0.067c-0.165,0.083-0.313,0.219-0.451,0.338c-0.155,0.134-0.25,0.112-0.185,0.325
			c0.103,0.342,0.33,0.547,0.52,0.829c0.197,0.292,0.192,0.564,0.271,0.892c0.093,0.384,0.292,0.782,0.515,1.107
			c0.335,0.489,0.634,1.045,1.07,1.438c0.237,0.214,0.421,0.504,0.643,0.738c0.206,0.217,0.474,0.375,0.653,0.613
			c0.133,0.175,0.257,0.402,0.357,0.6c0.107,0.214,0.012,0.418,0.222,0.569c0.197,0.141,0.456,0.235,0.603,0.433
			c0.195,0.265,0.364-0.23,0.526-0.013c0.068,0.09,0.007,0.172,0.042,0.264c0.052,0.136,0.204,0.077,0.347,0.125
			c0.13,0.044,0.158,0.135,0.252,0.221c0.082,0.076,0.19,0.109,0.294,0.145c0.229,0.079,0.496,0.095,0.708,0.219
			c0.239,0.14,0.417,0.211,0.701,0.23c0.324,0.021,0.505-0.036,0.617,0.279c0.053,0.151,0.063,0.248,0.21,0.332
			c0.128,0.073,0.275,0.135,0.416,0.179c0.142,0.045,0.755,0.193,0.762,0.363c0.495,0.079,0.852,0.543,1.31,0.722
			c0.274,0.107,0.464,0.279,0.661,0.5c0.164,0.185,0.382,0.321,0.514,0.531c-0.014-0.004-0.029-0.006-0.044-0.007
			c0.047,0.127,0.082,0.263,0.149,0.378c0.092,0.157,0.283,0.202,0.431,0.301c0.249,0.165,0.371,0.465,0.486,0.733
			c0.096,0.224,0.138,0.464,0.285,0.661c0.12,0.159,0.282,0.262,0.458,0.349c0.296,0.147,0.596,0.194,0.907,0.291
			c0.223,0.07,0.438,0.161,0.657,0.244c0.406,0.155,0.836,0.203,1.244,0.361c0.432,0.168,0.806,0.516,1.285,0.502
			c0.254,0.237,0.712,0.272,1.045,0.3c0.362,0.029,0.738,0.112,1.072,0.255c0.333,0.142,0.707,0.193,1.03,0.353
			c0.221,0.109,0.34,0.223,0.604,0.151c0.141-0.039,0.224-0.098,0.302-0.214c0.036-0.055,0.064-0.134,0.117-0.171
			c0.165-0.117,0.438-0.007,0.606,0.051c0.213,0.074,0.454,0.118,0.65,0.23c0.158,0.091,0.295,0.224,0.439,0.335
			c0.379,0.291,0.773,0.563,0.995,1c0.061,0.119,0.095,0.266,0.178,0.372c0.078,0.1,0.233,0.177,0.342,0.237
			c0.149,0.083,0.331,0.073,0.49,0.146c0.118,0.054,0.219,0.152,0.319,0.232c0.097,0.078,0.163,0.128,0.216,0.244
			c0.049,0.107,0.071,0.187,0.17,0.254c0.169,0.115,0.351,0.078,0.535,0.126c0.16,0.041,0.22,0.238,0.399,0.217
			c0.018,0.018,0.036,0.036,0.054,0.054c0.462,0.463,0.462,0.471,0.774,0.894c0.202,0.274,0.949,0.509,1.305,0.597
			c0.385,0.096,0.736,0.3,1.124,0.372c0.519,0.096,0.983,0.162,1.465,0.42c0.479,0.257,0.946,0.48,1.45,0.69
			c0.21,0.088,0.441,0.19,0.66,0.257c0.287,0.089,0.651,0.019,0.92,0.144c0.119,0.056,0.176,0.179,0.281,0.243
			c0.141,0.086,0.29,0.058,0.42,0.133c0.202,0.117,0.232,0.334,0.373,0.504c0.394,0.476,0.835,0.646,1.451,0.678
			c0.44,0.023,0.857,0.159,1.291,0.189c0.176,0.012,0.342-0.016,0.512,0.043c0.117,0.041,0.211,0.15,0.327,0.177
			c0.194,0.047,0.441-0.021,0.643-0.005c0.347,0.027,0.567,0.199,0.861,0.366c0.362,0.206,0.965,0.176,1.398,0.176
			c0.445,0.355,0.779,0.821,1.201,1.201c0.504,0.453,1.176,0.584,1.83,0.692c0.208,0.034,0.452,0.027,0.648,0.152
			c0.136,0.088,0.235,0.225,0.385,0.311c0.519,0.3,1.073,0.626,1.605,0.892c0.455,0.228,0.972,0.555,1.489,0.573
			c0.437,0.015,0.87-0.077,1.306-0.029c0.411,0.046,0.855,0.072,1.256,0.161c0.571,0.127,0.768,0.629,1.22,0.905
			c0.196,0.12,0.471,0.141,0.688,0.232c0.178,0.075,0.324,0.178,0.516,0.217c0.439,0.089,0.779,0.065,1.195,0.242
			c0.381,0.163,0.707,0.03,1.096-0.038c0.445-0.078,0.875-0.011,1.322-0.013c0.405-0.001,0.411-0.096,0.659-0.368
			c0.27-0.297,0.655-0.525,1.046-0.579c0.452-0.063,0.858-0.204,1.294-0.332c0.345-0.101,0.591-0.325,0.906-0.475
			c0.326-0.155,0.678-0.008,1.008-0.119c0.233-0.078,0.43-0.302,0.618-0.449c0.188-0.147,0.329-0.325,0.5-0.488
			c0.223-0.213,0.435-0.207,0.713-0.291c0.214-0.065,0.456-0.038,0.678-0.064c0.205-0.024,0.41-0.04,0.615-0.059
			c0.292-0.028,0.571-0.142,0.856-0.207c-0.117-0.094-0.266-0.08-0.414-0.07c-0.255,0.017-0.492,0.036-0.746,0.022
			c-0.233-0.012-0.546,0.092-0.394-0.217c0.06-0.121,0.106-0.278,0.209-0.371c0.044-0.04,0.172-0.115,0.237-0.12
			c0.031-0.002,0.058,0.046,0.094,0.041c0.264-0.039,0.238-0.437,0.458-0.558c0.084-0.046,0.184-0.035,0.273-0.027
			c0.149,0.014,0.189,0.051,0.259,0.179c0.066,0.121,0.226,0.277,0.219,0.413c-0.006,0.126-0.098,0.243-0.096,0.383
			c0.195-0.099,0.305-0.268,0.479-0.392c0.169-0.12,0.638-0.318,0.738-0.006c0.087,0.271-0.257,0.475-0.444,0.552
			c-0.077,0.032-0.264,0.086-0.26,0.195c0.004,0.13,0.121,0.093,0.209,0.114c0.239,0.058,0.434,0.134,0.686,0.159
			c0.455,0.047,0.861,0.196,1.302,0.302c0.435,0.104,0.827,0.125,1.219,0.347c0.234,0.132,0.578,0.485,0.861,0.4
			c-0.081-0.113-0.016-0.272-0.095-0.399c-0.082-0.132-0.143-0.137-0.286-0.168c-0.339-0.074-0.626-0.266-0.973-0.316
			c-0.445-0.064-0.842-0.205-1.274-0.332c-0.192-0.056-0.416-0.076-0.601-0.149c-0.186-0.074-0.272,0.002-0.464-0.034
			c0.063-0.012,0.101-0.072,0.147-0.103c0.088-0.061,0.089-0.096,0.184-0.141c0.131-0.061,0.233-0.109,0.375-0.048
			c0.181,0.077,0.459,0.337,0.663,0.21c0.101-0.063,0.172-0.242,0.292-0.255c0.068-0.007,0.193,0.198,0.238,0.245
			c0.11,0.114,0.228,0.219,0.386,0.252c0.234,0.048,0.599,0.061,0.763-0.126c0.08,0.1,0.074,0.194,0.121,0.298
			c0.052,0.114,0.19,0.198,0.293,0.263c0.214,0.136,0.477,0.208,0.717,0.291c0.191,0.066,0.424,0.089,0.539,0.282
			c0.077,0.129,0.017,0.314-0.073,0.431c0.168,0.136,0.342,0.288,0.529,0.401c0.488,0.296,1.012,0.516,1.444,0.893
			c0.279,0.243,0.684,0.374,0.873,0.696c0.173,0.295,0.585,0.537,0.854,0.732c0.543,0.393,1.008,0.838,1.467,1.324
			c0.225,0.238,0.459,0.465,0.666,0.719c0.27,0.332,0.616,0.607,0.884,0.948c0.184,0.233,0.345,0.492,0.532,0.71
			c0.292,0.34,0.624,0.615,0.959,0.914c0.31,0.276,0.579,0.584,0.863,0.883c0.244,0.256,0.504,0.498,0.751,0.749
			c0.157,0.16,0.263,0.362,0.422,0.52c0.086-0.185,0.195-0.359,0.305-0.53c0.083-0.129,0.248-0.307,0.282-0.459
			c0.039-0.175-0.067-0.394-0.101-0.56c-0.047-0.232-0.085-0.467-0.141-0.695c0.076-0.051,0.173-0.084,0.222-0.154l0.028-0.765
			l0.513-0.434l-0.908-1.273l2.977-5.219h7.982v-1.134c0.237-0.227,0.376-0.552,0.379-0.878c0.002-0.204-0.171-0.213-0.336-0.236
			c-0.121-0.017-0.213-0.01-0.272-0.117c-0.041-0.075-0.008-0.168-0.09-0.224c-0.104-0.071-0.336-0.026-0.462-0.035
			c-0.108-0.008-0.345-0.013-0.416-0.083c0.028-0.019,0.056-0.062,0.089-0.076c-0.057-0.161-0.128-0.132-0.087-0.308
			c0.043-0.186,0.001-0.159-0.112-0.292c-0.066-0.078-0.085-0.192-0.137-0.282c-0.068-0.119-0.162-0.224-0.251-0.329
			c-0.163-0.192-0.301-0.414-0.49-0.584c-0.239-0.216-0.621-0.371-0.91-0.498c-0.168-0.074-0.346-0.134-0.502-0.24
			c-0.158-0.108-0.336-0.277-0.509-0.356l-0.976-1.124l-0.027-0.345l-0.522,0.068l-0.548-0.589h2.783v-3.671h11.426v-0.799
			l0.732-0.379l1.084,0.65l0.935-1.111l0.095-0.745l0.637-0.461l0.583-1.449c0.193-0.155,0.605-0.176,0.843-0.176
			c0.255,0,0.408-0.008,0.552-0.234c0.152-0.238,0.36-0.438,0.499-0.691c0.143-0.259,0.24-0.548,0.395-0.802
			c0.131-0.215,0.283-0.456,0.459-0.635c0.259,0.211,0.245,0.639,0.276,0.939c0.022,0.218,0.036,0.473-0.028,0.683
			c-0.054,0.177-0.127,0.348-0.182,0.524c-0.046,0.145-0.165,0.326-0.107,0.485c0.047,0.13,0.312,0.198,0.45,0.251
			c0.208,0.08,0.522,0.166,0.662,0.366c0.105,0.15,0.055,0.445,0.055,0.623c0,0.201-0.002,0.404-0.001,0.604
			c0.245-0.019,0.327-0.201,0.338-0.421c0.012-0.224,0.027-0.424,0.075-0.646c0.059-0.268,0.21-0.428,0.309-0.667
			c0.091-0.22,0.046-0.574,0.07-0.816c0.027-0.28,0.118-0.525,0.2-0.793c0.066-0.215,0.265-0.272,0.307-0.483
			c0.039-0.191,0-0.297,0.095-0.476c0.065-0.122,0.116-0.243,0.163-0.372c0.048-0.132,0.178-0.313,0.19-0.448
			c0.022-0.244,0.038-0.374,0.145-0.572c0.112-0.208,0.194-0.425,0.248-0.654c0.049-0.21,0.081-0.388,0.19-0.576
			c0.072-0.126,0.281-0.38,0.219-0.528c-0.138-0.001-0.354-0.028-0.463,0.079c-0.093,0.092-0.089,0.222-0.202,0.304
			c-0.101,0.073-0.393,0.18-0.515,0.11c-0.131-0.075-0.063-0.292-0.007-0.399c0.038-0.073,0.089-0.132,0.108-0.214
			c0.018-0.079-0.008-0.173,0.026-0.249c0.045-0.1,0.168-0.16,0.244-0.232c0.047-0.045,0.088-0.121,0.154-0.144
			c0.214-0.076,0.073,0.181,0.198,0.195c0.023,0.002,0.269-0.212,0.302-0.236c0.081-0.058,0.133-0.118,0.196-0.195
			c0.159-0.193,0.208-0.347,0.213-0.601c0.004-0.205,0.067-0.418-0.144-0.511c-0.172,0.173-0.292,0.487-0.563,0.483
			c-0.233-0.004-0.659-0.074-0.729,0.246c-0.142-0.082-0.084-0.245-0.189-0.344c-0.075-0.07-0.224-0.081-0.276-0.183
			c-0.062-0.122,0.021-0.386,0.129-0.47c0.148-0.116,0.366-0.017,0.499-0.193c0.109-0.145,0.077-0.412,0.213-0.542
			c0.136-0.13,0.391-0.143,0.552-0.223c0.17-0.084,0.125-0.209,0.143-0.366c0.019-0.165,0.089-0.346,0.15-0.498
			c0.087-0.215,0.05-0.422-0.054-0.648c-0.05-0.107-0.142-0.17-0.203-0.264c-0.105-0.163,0.033-0.185,0.146-0.29
			c0.226-0.21,0.211-0.571,0.412-0.803c0.237-0.274,0.388-0.585,0.58-0.896c0.132-0.214,0.306-0.365,0.477-0.543
			c0.147-0.153,0.28-0.434,0.457-0.539c0.276-0.164,0.479-0.345,0.687-0.585c0.24-0.277,0.518-0.52,0.748-0.806
			C191.789,117.439,191.837,117.258,191.913,117.082z"/>
		<path fill="#1E8346" d="M27.036,57.788c-0.147-0.163-0.262-0.339-0.417-0.494c-0.098-0.098-0.167-0.211-0.302-0.266
			c-0.069-0.028-0.191-0.036-0.252,0.055c-0.056,0.11-0.096,0.289-0.114,0.414c-0.016,0.112-0.028,0.228-0.052,0.338
			c-0.015,0.069-0.057,0.166-0.036,0.237c0.009,0.034,0.047,0.068,0.068,0.094c0.054,0.068,0.106,0.139,0.162,0.206
			c0.12,0.145,0.261,0.283,0.392,0.418c0.14,0.144,0.31,0.263,0.426,0.426c0.067,0.094,0.137,0.187,0.204,0.282
			c0.056,0.079,0.115,0.18,0.188,0.243c0.148,0.127,0.33,0.209,0.479,0.342c0.111,0.099,0.138,0.174,0.187,0.307
			c0.047,0.127,0.177,0.201,0.276,0.286c0.094,0.082,0.197,0.158,0.3,0.228c0.097,0.066,0.217,0.106,0.31,0.17
			c0.074-0.03,0.035-0.25,0.035-0.316c0-0.146-0.048-0.229-0.172-0.302c-0.369-0.214-0.246-0.694-0.313-1.046
			c-0.023-0.119-0.058-0.233-0.097-0.346c-0.037-0.107-0.042-0.121-0.167-0.138c-0.16-0.021-0.31-0.023-0.468-0.058
			c-0.102-0.023-0.291-0.005-0.367-0.099c-0.087-0.107-0.006-0.292,0.021-0.405C27.375,58.157,27.163,57.93,27.036,57.788z"/>
		<path fill="#1E8346" d="M34.286,61.6c0.022-0.083,0.046-0.165,0.069-0.247c0.077-0.277,0.19-0.643-0.017-0.888
			c-0.087-0.103-0.205-0.18-0.229-0.32c-0.013-0.076-0.001-0.15-0.022-0.221c-0.005-0.018-0.023-0.033-0.03-0.049
			c-0.041-0.102,0.012-0.241-0.033-0.344c-0.046-0.106-0.208-0.153-0.346-0.152c-0.143,0.057-0.29,0.16-0.44,0.19
			c-0.066,0.013-0.129,0.004-0.191,0.03c-0.075,0.032-0.12,0.082-0.162,0.146c-0.113,0.173-0.164,0.382-0.214,0.581
			c-0.03,0.117-0.033,0.246-0.05,0.366c-0.018,0.128-0.042,0.257-0.007,0.383c0.034,0.122,0.072,0.264,0.024,0.389
			c-0.047,0.121-0.138,0.231-0.216,0.333c-0.062,0.081-0.061,0.128,0.016,0.218c0.057,0.068,0.134,0.121,0.198,0.182
			c0.052,0.05,0.111,0.119,0.174,0.156c0.127,0.075,0.301-0.021,0.431,0.044c0.057,0.029,0.09,0.103,0.127,0.152
			c0.058,0.074,0.09,0.106,0.185,0.122c0.161,0.027,0.56,0.098,0.632-0.113c0.027-0.08,0.007-0.206,0.007-0.29
			c0-0.118-0.015-0.246,0.001-0.362C34.208,61.803,34.258,61.7,34.286,61.6z"/>
		<path fill="#1E8346" d="M32.174,62.861c-0.066,0.021-0.19,0.179-0.17,0.257c0.014,0.057,0.17,0.137,0.224,0.148
			c0.102,0.022,0.152-0.078,0.149-0.168C32.373,62.994,32.302,62.899,32.174,62.861z"/>
		<path fill="#1E8346" d="M30.73,63.472c-0.064-0.005-0.147,0.024-0.203-0.008c-0.218,0.097,0.036,0.174,0.115,0.206
			c0.058,0.023,0.12,0.029,0.176,0.061c0.067,0.037,0.14,0.111,0.22,0.112c0.029-0.096-0.099-0.195-0.153-0.257
			C30.839,63.53,30.811,63.479,30.73,63.472z"/>
		<path fill="#1E8346" d="M18.361,40.997c-0.035,0.083,0.045,0.21,0.088,0.284c0.033,0.056,0.08,0.101,0.126,0.147
			c0.065,0.065,0.165,0.078,0.254,0.081c0.059,0.002,0.116-0.018,0.174-0.021c0.048-0.002,0.095-0.002,0.143-0.007
			c0.021-0.002,0.062,0.004,0.077-0.013c0.07-0.077-0.233-0.198-0.258-0.212c-0.101-0.053-0.144-0.186-0.184-0.284
			c-0.027-0.065-0.087-0.105-0.148-0.137c-0.052-0.028-0.102-0.062-0.175-0.099c-0.003,0.046,0.011,0.088-0.009,0.129
			C18.424,40.915,18.382,40.947,18.361,40.997z"/>
		<path fill="#1E8346" d="M15.911,65.837c-0.016-0.039-0.034-0.083-0.047-0.124c-0.012-0.036-0.017-0.142-0.041-0.17
			c-0.048-0.058-0.235-0.021-0.297-0.042c0,0.251,0,0.501,0,0.752c0,0.168,0.024,0.303-0.091,0.434
			c-0.205,0.233-0.472,0.452-0.587,0.743c0.171,0.014,0.356-0.063,0.513,0.018c0.138,0.071,0.168,0.219,0.214,0.356
			c0.135-0.036,0.396-0.101,0.46-0.237c0.049-0.103,0.028-0.238,0.068-0.349c0.045-0.125,0.106-0.199,0.102-0.338
			c-0.004-0.131-0.06-0.244-0.098-0.369C16.041,66.287,16.003,66.053,15.911,65.837z"/>
		<path fill="#1E8346" d="M41.032,82.613c0.06-0.058,0.079-0.135,0.106-0.213c0.017-0.051,0.036-0.097,0.059-0.145
			c0.018-0.037,0.027-0.085,0.048-0.12c0.048-0.079,0.094-0.024,0.166-0.018c0.184,0.018,0.128-0.257,0.078-0.356
			c-0.102-0.2-0.404-0.136-0.596-0.015c0,0.274,0.039,0.573-0.163,0.788c-0.125,0.133-0.144,0.318-0.066,0.48
			c0.043,0.088,0.073,0.184,0.112,0.273c-0.009-0.191,0.025-0.438,0.156-0.585C40.964,82.668,40.999,82.644,41.032,82.613z"/>
		<path fill="#1E8346" d="M44.199,88.483c-0.139-0.067-0.253-0.173-0.463-0.196c0.005,0.115,0.004,0.226,0.048,0.334
			c0.046,0.113,0.11,0.227,0.17,0.333c0.062,0.108,0.141,0.217,0.226,0.306c0.088,0.092,0.166,0.191,0.248,0.287
			c0.065,0.077,0.133,0.185,0.22,0.237c0.054-0.194,0.023-0.361,0.002-0.553c-0.016-0.149-0.023-0.291-0.086-0.43
			C44.492,88.639,44.355,88.559,44.199,88.483z"/>
		<path fill="#1E8346" d="M35.099,91.556c-0.066-0.094-0.186-0.221-0.308-0.197c0.066,0.084,0.128,0.183,0.181,0.276
			c0.027,0.048,0.056,0.092,0.083,0.14c0.028,0.051,0.04,0.103,0.065,0.153c0.019,0.038,0.048,0.07,0.078,0.101
			c0.03,0.031,0.043,0.035,0.087,0.034c0.043-0.001,0.097-0.01,0.095-0.065c-0.002-0.06-0.063-0.135-0.091-0.184
			C35.237,91.72,35.161,91.643,35.099,91.556z"/>
		<path fill="#1E8346" d="M37.501,93.069c-0.038-0.104-0.094-0.202-0.149-0.297c-0.056-0.098-0.105-0.174-0.199-0.24
			c-0.075-0.052-0.161-0.084-0.238-0.13c-0.05-0.029-0.092-0.067-0.14-0.098c-0.065-0.042-0.135-0.05-0.211-0.055
			c-0.149-0.007-0.298-0.012-0.447-0.007c-0.061,0.002-0.121,0.007-0.181,0.013c-0.047,0.004-0.107-0.003-0.151,0.018
			c-0.041,0.02-0.024,0.056,0.02,0.06c0.065,0.072,0.163,0.101,0.247,0.144c0.136,0.071,0.239,0.188,0.369,0.265
			c0.266,0.156,0.506,0.363,0.733,0.568c0.09,0.081,0.19,0.175,0.305,0.22c0.127,0.05,0.146-0.084,0.12-0.182
			C37.554,93.257,37.534,93.158,37.501,93.069z"/>
		<path fill="#1E8346" d="M45.872,92.354c0.004,0.088,0.063,0.179,0.088,0.265c0.012,0.042,0.024,0.079,0.054,0.111
			c0.048,0.053,0.13,0.105,0.201,0.071c0.091-0.042,0.086-0.145,0.094-0.228c0.007-0.077,0.028-0.203-0.048-0.255
			C46.159,92.251,45.992,92.325,45.872,92.354z"/>
		<path fill="#1E8346" d="M48.915,93.725c-0.1-0.185-0.113-0.432-0.307-0.548c-0.011,0.04-0.025,0.081-0.023,0.127
			c0.007,0.071,0.032,0.146,0.047,0.217c0.02,0.103,0.043,0.207,0.067,0.309c0.027,0.117,0.021,0.239,0.059,0.352
			c0.032,0.094,0.074,0.185,0.112,0.277c0.036,0.086,0.07,0.188,0.134,0.258c0.119,0.131,0.442,0.092,0.381-0.132
			c-0.04-0.146-0.134-0.301-0.209-0.432C49.091,94.008,48.995,93.873,48.915,93.725z"/>
		<path fill="#1E8346" d="M35.085,73.33c0.061,0.064,0.102,0.149,0.142,0.227c0.016,0.031,0.034,0.061,0.049,0.092
			c0.009,0.018,0.019,0.058,0.036,0.069c0.021,0.013,0.062-0.023,0.079-0.043c0.033-0.037,0.057-0.095,0.064-0.144
			c0.016-0.107-0.083-0.122-0.155-0.16C35.259,73.35,35.122,73.256,35.085,73.33z"/>
		<path fill="#1E8346" d="M55.439,86.048c-0.055-0.022-0.116-0.022-0.174-0.036c-0.044-0.01-0.084-0.03-0.129-0.034
			c-0.062-0.005-0.128,0.005-0.156,0.041c0.125,0.06,0.248,0.114,0.368,0.18c0.078,0.043,0.15,0.095,0.227,0.137
			C55.661,86.284,55.499,86.072,55.439,86.048z"/>
		<path fill="#1E8346" d="M60.21,89.065c-0.057-0.078-0.143-0.124-0.204-0.196c-0.048-0.056-0.132-0.17-0.215-0.179
			c0,0.018-0.004,0.036-0.013,0.051c0.105,0.151,0.164,0.317,0.212,0.492c0.03,0.11,0.009,0.231,0.047,0.337
			c0.037,0.104,0.072,0.206,0.087,0.317c0.012,0.092,0.008,0.18,0.048,0.265c0.092-0.097,0.142-0.248,0.147-0.379
			c0.003-0.073,0.008-0.146,0.011-0.219c0.003-0.08,0.016-0.176,0.001-0.254C60.315,89.219,60.258,89.131,60.21,89.065z"/>
		<path fill="#1E8346" d="M59.745,89.239c-0.052-0.05-0.17-0.13-0.265-0.085c0.046,0.08,0.091,0.16,0.135,0.241
			c-0.002-0.004-0.004-0.008-0.006-0.011c0.024,0.031,0.033,0.075,0.046,0.111c0.026,0.071,0.057,0.142,0.09,0.209
			c0.059,0.118,0.109,0.267,0.201,0.365c0.067-0.151,0.017-0.339-0.026-0.489C59.885,89.46,59.837,89.328,59.745,89.239z"/>
		<path fill="#1E8346" d="M69.841,111.792c-0.036-0.027-0.074-0.066-0.089-0.11c-0.025-0.074-0.03-0.155-0.1-0.208
			c-0.036-0.027-0.064-0.011-0.106-0.007c-0.06,0.005-0.11,0.014-0.167,0.031c-0.063,0.019-0.125,0.021-0.19,0.025
			c-0.036,0.002-0.179-0.013-0.155,0.029c0.025,0.073,0.107,0.146,0.158,0.202c0.032,0.035,0.055,0.068,0.08,0.108
			c0.022,0.036,0.042,0.073,0.068,0.106c0.086,0.112,0.194,0.247,0.35,0.231c0.081-0.008,0.186-0.036,0.246-0.094
			c0.055-0.053,0.095-0.128,0.043-0.192C69.937,111.865,69.891,111.829,69.841,111.792z"/>
		<path fill="#1E8346" d="M70.422,112.715c-0.084-0.041-0.164-0.091-0.264-0.068c-0.032,0.007-0.07,0.044-0.066,0.082
			c-0.035,0.033-0.104,0.078-0.039,0.101c0.105,0.037,0.218,0.059,0.315,0.117c0.067,0.04,0.134,0.077,0.203,0.113
			c0.025,0.013,0.087,0.061,0.12,0.041c0.069-0.041-0.016-0.174-0.05-0.206C70.574,112.829,70.507,112.756,70.422,112.715z"/>
		<path fill="#1E8346" d="M192.783,118.864c-0.046-0.016-0.197,0.038-0.26,0.042c-0.131,0.008-0.263,0.007-0.394,0.015
			c-0.128,0.008-0.327,0.059-0.455,0.173c-0.017,0.085-0.125,0.097-0.168,0.167c-0.034,0.056-0.01,0.117-0.025,0.178
			c-0.028,0.118-0.163,0.173-0.229,0.275c-0.144,0.225-0.237,0.402-0.087,0.656c0.053,0.09,0.129,0.235,0.207,0.307
			c0.121,0.111,0.327-0.066,0.415-0.176c0.168-0.211,0.263-0.466,0.428-0.678c0.14-0.179,0.321-0.303,0.463-0.484
			C192.748,119.251,192.957,118.924,192.783,118.864z"/>
		<path fill="#1E8346" d="M161.357,131.602c0.103-0.005,0.207-0.011,0.31-0.011c0.193,0,0.501,0.037,0.63-0.132
			c0.066-0.087,0.15-0.214,0.177-0.321c0.027-0.104,0.026-0.244-0.108-0.228c-0.172,0.02-0.355,0.127-0.488,0.235
			c-0.108,0.087-0.233,0.121-0.367,0.151c-0.133,0.03-0.293,0.088-0.347,0.223C161.173,131.633,161.289,131.605,161.357,131.602z"/>
		<path fill="#1E8346" d="M43.305,84.636c0.015,0.054,0.056,0.124,0.095,0.166c0.071,0.076,0.133-0.014,0.132-0.094
			c0-0.036-0.022-0.069-0.03-0.103c-0.01-0.042-0.006-0.087-0.008-0.13c-0.002-0.031,0.004-0.108-0.022-0.131
			c-0.043-0.036-0.134,0.019-0.178,0.029C43.312,84.46,43.28,84.549,43.305,84.636z"/>
	</g>
</g>
</svg>
