<?xml version="1.0" encoding="utf-8"?>
<!-- Generator: Adobe Illustrator 26.0.3, SVG Export Plug-In . SVG Version: 6.00 Build 0)  -->
<svg version="1.1" xmlns="http://www.w3.org/2000/svg" xmlns:xlink="http://www.w3.org/1999/xlink" x="0px" y="0px"
	 viewBox="0 0 200 200" enable-background="new 0 0 200 200" xml:space="preserve">
<g id="Isolation_Mode">
	<g>
		<path fill="#1E8346" d="M138.188,81.149c-0.604-0.17-1.268,0.157-1.841-0.031c-0.314-0.104-0.561-0.378-0.929-0.446
			c-0.302-0.056-1.009-0.121-1.27-0.022c-0.251,0.094-0.42,0.42-0.649,0.573c-0.269,0.18-0.444,0.202-0.78,0.23
			c-0.508,0.043-0.905-0.127-1.401-0.192c-0.548-0.072-1.145-0.005-1.701-0.005c-0.811,0-1.856,0.229-2.571-0.196
			c-1.056-0.628-2.76-1.164-3.96-0.675c-0.414,0.169-0.792,0.313-1.238,0.389c-0.229,0.039-0.557,0.052-0.765,0.183
			c-0.431,0.272-0.346,0.902-0.893,1.055c-0.647,0.181-1.304-0.326-1.915-0.061c-0.217,0.094-0.33,0.192-0.569,0.223
			c-0.285,0.036-0.591-0.007-0.879,0.006c-0.525,0.024-1.125,0.018-1.623,0.181c-0.383,0.126-0.729,0.33-1.114,0.456
			c-0.617,0.201-1.096,0.502-1.774,0.505c-0.569-0.003-1.287-0.143-1.854-0.181c-0.827-0.056-2.103-0.192-2.798,0.303
			c-0.356,0.254-0.659,0.586-1.014,0.833c-0.36,0.251-0.655,0.261-1.081,0.297c-0.648,0.055-1.145,0.355-1.716,0.649
			c-0.265,0.136-0.581,0.256-0.808,0.454c-0.201,0.177-0.312,0.414-0.535,0.577c-0.594,0.434-1.355,0.049-2.04,0.181
			c-0.352,0.068-0.571,0.21-0.936,0.192c-0.413-0.021-0.833-0.038-1.242-0.094c-0.18-0.025-0.335-0.122-0.535-0.031
			c-0.156,0.071-0.232,0.275-0.391,0.359c-0.305,0.162-0.867,0.079-1.227,0.07c-0.641-0.016-1.321-0.125-1.954-0.048
			c-0.469,0.057-0.855,0.266-1.351,0.244c-0.961-0.044-1.879-0.25-2.813-0.402c-0.914-0.148-1.857-0.052-2.774-0.057
			c-0.63-0.003-1.23-0.241-1.861-0.298c-0.793-0.072-1.737-0.047-2.443-0.456c-0.28-0.162-0.448-0.29-0.764-0.393
			c-0.215-0.07-0.38-0.069-0.473-0.33c-0.726-0.512-1.962-0.902-2.868-0.618c-0.404,0.126-0.469,0.365-0.44,0.756
			c0.044,0.576,0.018,0.836-0.442,1.236c-0.336,0.292-0.794,0.668-1.212,0.827c-0.489,0.186-1.303,0.105-1.602,0.591
			c-0.091,0.148-0.069,0.364-0.177,0.501c-0.123,0.156-0.307,0.184-0.503,0.27c-0.391,0.171-0.833,0.251-1.222-0.015
			c-0.319-0.219-0.568-0.689-1.078-0.433c-0.33,0.165-0.301,0.67-0.522,0.955c-0.25,0.324-0.735,0.493-0.959,0.789
			c-0.172,0.228-0.066,0.498-0.095,0.769c-0.03,0.276-0.13,0.572-0.395,0.707c-0.267,0.137-1.301,0.103-1.502-0.104
			c-0.156-0.161-0.01-0.372-0.072-0.556c-0.081-0.241-0.221-0.21-0.183-0.462c0.034-0.224,0.224-0.324,0.213-0.573
			c-0.016-0.355-0.177-0.334-0.476-0.193c-0.257,0.122-0.473,0.264-0.607,0.522c-0.1,0.191-0.079,0.426-0.208,0.603
			c-0.396,0.539-1.13,0.192-1.375-0.287c-0.246-0.481,0.083-0.932-0.705-0.988c-0.178-0.012-0.661,0.019-0.81,0.166
			c-0.132,0.13-0.079,0.287-0.052,0.48c0.068,0.484,0.238,0.831-0.024,1.29c-0.335,0.589-0.953,0.725-1.589,0.722
			c-0.466-0.002-0.485-0.097-0.825-0.288c-0.207-0.116-0.359-0.118-0.574-0.033c-0.282,0.111-0.245,0.233-0.624,0.133
			c-0.315-0.084-0.58-0.277-0.887-0.375c-0.516-0.165-0.72,0.116-1.119,0.396c-0.736,0.517-1.481,0.694-2.363,0.397
			c-0.499,0.087-1.042,0.324-1.333,0.765c-0.594-0.059-1.003-0.795-1.525-0.787c-0.904,0.014-1.546,1.163-2.352,1.392
			c-0.406,0.115-1.006-0.269-1.429-0.34c-0.578-0.097-1.264,0.078-1.888,0.042c-0.277-0.016-1.505-0.207-1.87-0.031
			c-0.317,0.153-0.648,0.755-0.945,0.989c-0.476,0.376-1.038,0.737-1.586,0.968c-0.308,0.13-0.58,0.217-0.788,0.48
			c-0.196,0.248-0.272,0.504-0.53,0.721c-0.74,0.62-1.902,1.073-2.834,1.311c-0.478,0.123-0.693,0.159-0.669,0.676
			c0.024,0.526,0.252,0.628,0.557,0.925c0.635,0.616-0.494,0.694-0.368,1.411c0.099,0.566,0.853,0.811,1.136,1.32
			c0.39,0.701,0.796,0.814,1.462,0.341c0.588-0.418,0.749-0.451,1.536-0.164c0.446,0.163,0.403,0.305,0.514,0.71
			c0.069,0.252,0.222,0.922,0.38,1.06c0.256-0.34,0.791-0.379,1.094-0.689c0.49-0.503-0.524-0.718,0.168-1.24
			c0.689-0.52,1.846-0.7,2.681-0.544c0.461,0.086,0.888,0.345,1.336,0.466c0.498,0.134,1.08,0.035,1.593,0.118
			c0.89,0.145,1.562,0.515,2.471,0.448c0.465-0.034,0.968-0.201,1.42,0.007c0.224,0.103,0.797,0.432,0.919,0.628
			c0.184,0.296,0,0.917,0.079,1.272c0.065,0.291,0.324,0.955,0.639,1.021c0.395,0.081,0.5-0.329,0.986-0.104
			c0.338,0.156,0.636,0.433,0.917,0.674c0.329,0.282,0.67,0.54,1.02,0.788c0.206,0.147,0.52,0.626,0.73,0.664
			c-0.009-0.002,0.244-0.17,0.321-0.182c0.174-0.027,0.407-0.034,0.513,0.12c0.223,0.326-0.295,0.238-0.309,0.754
			c-0.013,0.462-0.052,1.134,0.388,1.429c0.509,0.341,1.097,0.122,1.364,0.843c0.178,0.482,0.192,0.896,0.467,1.36
			c0.25,0.422,0.534,0.82,0.766,1.255c0.191,0.358,0.451,0.719,0.55,1.119c0.095,0.384,0.084,0.775,0.204,1.158
			c0.228,0.725,0.763,1.448,0.854,2.175c0.146,1.165,0.922,2.16,0.691,3.354c-0.116,0.604-0.139,1.196-0.298,1.798
			c-0.158,0.596-0.347,0.758-0.745,1.204c-0.377,0.423-0.174,1.029-0.173,1.616c0.001,0.302-0.111,1.285,0.131,1.367
			c0.364,0.604-0.114,1.449-0.438,1.932c-0.489,0.731-0.411,1.545-0.791,2.271c-0.201,0.384-0.482,0.603-0.608,1.041
			c-0.136,0.469-0.067,0.94-0.131,1.421c-0.078,0.586-0.505,1.085-0.704,1.644c-0.152,0.426-0.352,0.741-0.564,1.131
			c-0.184,0.338-0.33,0.703,0.098,0.754c0.222,0.027,0.168-0.236,0.394-0.101c0.186,0.112,0.208,0.353,0.112,0.534
			c-0.329-0.004-0.728-0.448-0.741,0.225c-0.008,0.411,0.403,0.977,0.577,1.322c0.278,0.552,0.139,0.989,0.176,1.583
			c0.013,0.211,0.026,0.682,0.15,0.869c0.089,0.134,0.3,0.179,0.405,0.327c-0.585,0.105-0.067,0.396,0.066,0.585
			c0.119,0.169,0.134,0.442,0.425,0.473c0.087,0.309,0.696,0.91,0.962,1.097c0.367,0.257,0.918,0.197,1.147,0.574
			c0.3,0.496,0.195,1.248,0.395,1.786c0.232,0.623,0.516,0.967,0.514,1.671c-0.001,0.366,0.067,0.763-0.087,1.099
			c-0.134,0.293-0.488,0.448-0.572,0.773c-0.069,0.268,0.078,0.545,0.013,0.825c-0.074,0.318-0.239,0.359-0.088,0.698
			c0.265,0.597,1.304,1.314,0.989,2.099c-0.177,0.444-0.992,0.742-1.361,0.993c-0.28,0.19-0.315,0.111-0.416,0.43
			c-0.108,0.341,0.081,0.676,0.135,1.001c0.112,0.678-0.136,0.976-0.571,1.48c-0.407,0.472-0.744,0.985-1.243,1.362
			c-0.92,0.694-2.287,0.65-3.175,1.314c-0.408,0.306-0.875,0.519-1.316,0.772c-0.514,0.295-0.928,0.749-1.44,1.039
			c-1.09,0.616-2.642,0.24-3.836,0.173c-0.783-0.044-1.666-0.02-2.336-0.488c-0.407-0.284-0.804-0.524-1.244-0.767
			c-0.398-0.22-0.813-0.522-1.259-0.632c-0.517-0.127-1.062-0.01-1.562-0.22c-0.457-0.192-0.866-0.484-1.385-0.355
			c-0.322,0.08-0.556,0.1-0.892,0.136c-0.658,0.071-1.502,0.414-1.561,1.131c-0.034,0.413-0.005,0.864,0.159,1.241
			c0.145,0.334,0.422,0.628,0.494,0.989c0.12,0.605-0.202,1.277-0.637,1.673c-0.522,0.474-1.18,0.786-1.775,1.145
			c-0.694,0.418-1.369,0.88-2.075,1.273c-0.645,0.359-1.295,0.583-2.038,0.602c-0.493,0.012-0.93-0.172-1.392,0.046
			c-0.352,0.165-0.801,0.423-0.774,0.847c0.027,0.42,0.322,0.786,0.297,1.239c-0.036,0.663-0.711,0.749-1.191,1.033
			c-0.416,0.246-0.749,0.537-1.217,0.673c-0.273,0.079-0.554,0.124-0.831,0.198c-0.303,0.082-0.612,0.163-0.911,0.251
			c-0.49,0.144-1.284,0.334-1.758,0.468c-1.552,0.442-3.165,0.169-4.747,0.386c-0.394,0.054-0.952-0.016-1.313,0.142
			c-0.336,0.147-0.485,0.5-0.84,0.619c-0.382,0.128-0.536,0.082-0.774,0.392c-0.239,0.311-0.45,0.672-0.848,0.806
			c-0.511,0.171-1.553,0.018-2.116,0.018c-0.149,0-0.3-0.001-0.448,0.001c-0.011,0.502,0.119,1.05,0.009,1.545
			c-0.101,0.454-0.44,1.046-0.666,1.453c-1.018,1.832-3.265,2.371-5.189,2.414c-0.43,0.01-0.894,0.045-1.313,0.138
			c-0.345,0.076-0.533,0.341-0.849,0.466c-0.758,0.3-1.912,0.327-2.714,0.319c-0.106,0.502-0.055,1-0.367,1.442
			c-0.282,0.399-0.704,0.637-1.105,0.883c-0.887,0.546-1.387,1.477-1.751,2.427c-0.378,0.985,1.34,1.15,2.078,1.178
			c1.588,0.062,2.995-0.229,4.291-1.206c0.617-0.465,1.182-0.971,1.887-1.313c0.675-0.328,1.484-0.088,2.126-0.524
			c0.239-0.162,0.43-0.422,0.661-0.595c0.271-0.202,0.572-0.241,0.875-0.376c0.356-0.16,0.657-0.412,0.986-0.61
			c0.312-0.187,0.647-0.321,0.973-0.492c1.016-0.534,2.623-1.016,3.711-0.534c0.769,0.341,1.521,0.751,2.095,1.355
			c0.539,0.018,1.034-0.285,1.452-0.583c0.629-0.448,1.33-0.773,2.1-0.868c0.412-0.051,0.845-0.028,1.254,0.047
			c0.747,0.138,1.288-0.043,2.029-0.269c0.529-0.161,1.093-0.251,1.652-0.157c0.532,0.089,1.008,0.358,1.564,0.39
			c0.577,0.033,1.358-0.243,1.852,0.056c0.492,0.297,0.577,0.332,1.212,0.361c1.111,0.052,1.805,0.422,2.599,1.198
			c0.472,0.461,0.913,0.943,1.348,1.442c0.39,0.448,0.585,0.506,1.201,0.418c0.305-0.043,0.743-0.158,1.044-0.067
			c0.249,0.076,0.384,0.382,0.618,0.495c0.235,0.113,0.715,0.133,0.937,0.022c0.157-0.079,0.245-0.278,0.378-0.396
			c0.229-0.203,0.508-0.299,0.786-0.417c0.451-0.192,0.903-0.491,1.375-0.622c0.303-0.084,0.392,0.072,0.673,0.149
			c0.427,0.117,0.922-0.27,1.304-0.431c0.504-0.214,1.022-0.396,1.57-0.408c1.253-0.029,2.578,0.28,3.811,0
			c0.331-0.075,0.643-0.171,0.984-0.2c0.412-0.035,1.257-0.169,1.623,0.004c0.127,0.278,0.592,0.453,0.848,0.602
			c0.504,0.295,0.327,0.023,0.727-0.244c0.336-0.224,1.45-0.202,1.805-0.088c0.153,0.049,0.253,0.192,0.4,0.272
			c0.245,0.133,0.485,0.14,0.759,0.148c0.908,0.025,1.82-0.034,2.729-0.033c0.393,0,0.789,0.013,1.172-0.089
			c0.337-0.089,0.569-0.288,0.901-0.37c0.87-0.216,1.627,0.067,2.496,0.067c1.196,0.001,2.302-0.48,3.491-0.554
			c0.56-0.035,1.071,0.11,1.613,0.224c0.4,0.084,0.848,0.096,1.23,0.203c0.259,0.073,0.456,0.267,0.701,0.365
			c0.379,0.151,0.578-0.127,0.944-0.108c0.541,0.028,1.604-0.033,2.195-0.033c0.479,0,0.906-0.091,1.37-0.181
			c0.736-0.143,1.545,0.043,2.259-0.113c0.553-0.121,0.748-0.703,1.417-0.749c0.601-0.041,1.235-0.006,1.774-0.215
			c0.853-0.33,1.641-0.618,2.583-0.612c1.052,0.007,2.254-0.246,3.292-0.033c0.254,0.052,0.336,0.215,0.563,0.314
			c0.364,0.159,0.903,0.073,1.281,0.054c0.641-0.031,1.047,0.257,1.598,0.546c0.659,0.345,1.512,0.315,2.237,0.391
			c0.54,0.057,1.074,0.127,1.619,0.14c0.363,0.009,0.815,0.076,1.154-0.03c0.123-0.038,0.175-0.176,0.347-0.201
			c0.461-0.069,0.909-0.201,1.349-0.106c0.285,0.062,0.584,0.09,0.871,0.138c0.588,0.098,1.145,0.101,1.736,0.074
			c0.481-0.023,0.85-0.012,1.297-0.22c0.605-0.281,1.202-0.549,1.822-0.788c0.692-0.267,1.481-0.417,2.142-0.743
			c0.481-0.237,0.744-0.786,1.276-0.946c0.409-0.124,0.858-0.054,1.265-0.163c0.328-0.088,0.437-0.28,0.646-0.539
			c0.622-0.77,1.394-0.72,2.199-1.115c0.843-0.414,1.86-0.18,2.708-0.549c0.89-0.387,1.121-1.218,1.587-1.998
			c0.64-1.072,1.789-1.648,2.927-2.223c0.849-0.429,3.469-1.766,3.916-0.277c0.218,0.726,0.262,1.42,1.224,1.474
			c0.049-0.931-0.4-1.81-0.583-2.711c-0.136-0.667-0.288-1.34-0.35-2.022c-0.042-0.451-0.032-0.89-0.112-1.341
			c-0.061-0.344-0.273-0.723-0.263-1.069c0.007-0.245,0.004-0.605,0.026-0.855c0.028-0.329,0.011-0.67,0.008-1.001
			c-0.009-0.809-0.033-1.622-0.033-2.435c0-1.039-0.067-2.103,0.09-3.132c0.148-0.966,0.274-1.921,0.385-2.895
			c0.141-1.224,0.373-2.384,0.377-3.625c0.002-0.699-0.148-1.1,0.205-1.705c0.37-0.635,0.589-1.383,0.894-2.049
			c0.08-0.175,0.179-0.696,0.341-0.781c0.25-0.133,0.813,0.208,1.112,0.141c0.549-0.123,1.29-1.423,0.416-1.544
			c-0.627-0.087-1.143,0.455-1.735,0.298c-0.455-0.121-0.853-0.59-1.169-0.92c-0.3-0.314-0.532-0.86-0.729-1.254
			c-0.348-0.697-0.734-1.376-1.069-2.077c-0.652-1.366-1.559-2.823-1.851-4.309c-0.184-0.937-0.261-1.889-0.618-2.781
			c-0.353-0.88-0.491-1.749-0.704-2.651c-0.076-0.323-0.238-0.634-0.343-0.947c-0.127-0.376-0.149-0.715-0.198-1.107
			c-0.07-0.555-0.124-1.048-0.163-1.605c-0.057-0.821-0.216-1.641-0.28-2.462c-0.077-0.987-0.236-1.976-0.246-2.966
			c-0.003-0.267-0.017-0.616,0.242-0.79c0.347-0.233,0.975,0.004,1.373-0.115c0.435-0.13,0.564-0.649,0.914-0.905
			c0.375-0.273,0.909-0.166,1.336-0.083c0.355-0.549,0.07-0.915-0.093-1.441c-0.221-0.715-0.491-1.328-0.532-2.101
			c-0.056-1.055-0.189-2.078-0.189-3.138c0-1.199-0.351-2.26-0.505-3.429c-0.146-1.104-0.292-2.209-0.642-3.269
			c-0.281-0.857-0.648-1.712-0.807-2.601c-0.112-0.627-0.328-1.293-0.309-1.931c0.012-0.411-0.022-0.928-0.04-1.339
			c-0.025-0.569-0.084-1.145-0.107-1.717c-0.015-0.367-0.003-0.734,0.274-1.026c0.083-0.087,0.286-0.123,0.403-0.265
			c0.138-0.168,0.246-0.352,0.306-0.573c0.111-0.41,0.123-0.632,0.47-0.933c0.19-0.165,0.376-0.299,0.618-0.379
			c0.54-0.177,0.993,0.125,1.515,0.164c0.446,0.033,1.1-0.011,1.44-0.32c0.452-0.411,0.509-1.119,0.791-1.646
			c0.187-0.349,0.33-0.209,0.627-0.413c0.239-0.164,0.318-0.498,0.397-0.761c0.257-0.859,0.943-1.349,1.378-2.111
			c0.327-0.032,0.648-0.495,0.886-0.721c0.286-0.272,0.431-0.665,0.716-0.929c0.369-0.343,0.812-0.563,1.188-0.894
			c0.375-0.329,0.697-0.643,0.91-1.101c0.242-0.52,0.303-0.97,0.303-1.54c0-0.548-0.009-0.927,0.243-1.421
			c0.253-0.498,0.376-1.314,0.86-1.643c0.165-0.112,0.327-0.124,0.509-0.149c0.571-0.08,0.78-0.17,1.097-0.627
			c0.158-0.228,0.287-0.356,0.556-0.485c0.279-0.133,0.74-0.092,0.938-0.341c0.237-0.296-0.037-0.562-0.179-0.821
			c-0.21-0.385-0.156-0.51,0.043-0.91c0.127-0.255,0.354-0.415,0.479-0.61C138.8,81.404,138.539,81.247,138.188,81.149z"/>
		<path fill="#1E8346" d="M41.195,104.852c0.1-0.132,0.091-0.27,0.171-0.423c0.046-0.089,0.238-0.294,0.251-0.338
			c0.116-0.403-0.188-0.408-0.578-0.385c-0.381,0.022-1.682-0.121-1.62,0.504c0.353,0.133,0.611,0.134,0.869,0.179
			C40.738,104.468,40.816,104.687,41.195,104.852z"/>
		<path fill="#1E8346" d="M31.146,98.983c0.2,0.142,0.367,0.332,0.549,0.5c0.186,0.171,0.567,0.3,0.67,0.516
			c0.144,0.296-0.046,1.185-0.166,1.456c0.308-0.179,0.409-0.382,0.544-0.484c0.088-0.067,0.396-0.139,0.428-0.178
			c0.17-0.21,0.122-0.716-0.052-0.896c-0.032-0.032-0.284-0.081-0.348-0.114c-0.19-0.099-0.397-0.214-0.576-0.33
			c-0.266-0.174-0.366-0.392-0.564-0.6c-0.154-0.162-0.555-0.515-0.795-0.254C30.638,98.815,30.977,98.863,31.146,98.983z"/>
		<path fill="#1E8346" d="M34.918,101.721c0.208-0.022,0.34,0.09,0.352,0.301c0.33,0.06,0.39-0.123,0.748,0.001
			c0.281,0.097,0.424,0.316,0.741,0.183c0.016-0.343-0.328-0.56-0.36-0.919c0.192,0.1,0.409-0.028,0.573,0.042
			c0.09,0.038,0.132,0.232,0.255,0.267c0.38,0.111,0.615-0.077,0.526-0.51c-0.139-0.674-0.79-1.064,0.259-1.125
			c-0.073-0.227-0.27-0.78-0.433-0.991c-0.25,0.045-0.444,0.196-0.672,0.256c-0.242,0.064-0.549,0.045-0.798,0.08
			c-0.484,0.069-0.696,0.253-0.934,0.678c-0.236,0.422-0.468,1.259-0.919,1.471c-0.065,0.189-0.094,0.338-0.128,0.482
			C34.401,101.959,34.739,101.928,34.918,101.721z"/>
		<path fill="#1E8346" d="M26.301,103.173c0.446,0.057,0.84-0.302,1.283-0.276c0.389,0.022,0.851,0.49,1.247,0.31
			c0.603-0.273-0.654-0.86-1.025-0.84c-0.098-0.262-0.402-0.685-0.157-0.958c0.105-0.116,0.807-0.281,0.962-0.264
			c0.387,0.041,1.957,1.51,1.933,0.637c-0.015-0.504-0.801-0.846-1.153-1.081c-0.507-0.339-0.914-0.826-1.433-1.126
			c-0.683,0.281-0.826,0.358-0.917,0.686c-0.061,0.22-0.016,0.444-0.076,0.661c-0.032,0.114-0.175,0.239-0.18,0.359
			c-0.012,0.352,0.214,0.513,0.113,0.927C26.788,102.653,26.402,102.792,26.301,103.173z"/>
		<path fill="#1E8346" d="M192.633,19.252c0.199-0.047,0.424-0.406,0.208-0.576c-0.172-0.135-0.466,0.119-0.539,0.25
			c-0.176-0.148-0.283-0.485-0.328-0.695c-0.331-0.388-0.602,0.404-0.526,0.664c0.066,0.226,0.133,0.344,0.165,0.583
			c0.023,0.176,0.012,0.364,0.171,0.485c0.114,0.086,0.34,0.098,0.492,0.075c0.168-0.025,0.447-0.055,0.618-0.101
			C193.452,19.788,192.748,19.523,192.633,19.252z"/>
		<path fill="#1E8346" d="M189.688,11.775c0.083-0.052,0.158-0.081,0.138-0.188c-0.016-0.086-0.07-0.13-0.138-0.099
			c-0.068,0.032-0.095,0.131-0.155,0.171c-0.056,0.037-0.129,0.048-0.194,0.054c-0.176,0.017-0.182-0.074-0.307-0.142
			c-0.2-0.222-0.244,0.329-0.141,0.428C189.116,12.213,189.5,11.894,189.688,11.775z"/>
		<path fill="#1E8346" d="M189.999,16.18c-0.065-0.269-0.47-0.585-0.584-0.88c-0.139-0.36-0.039-0.459-0.315-0.771
			c-0.532-0.601-0.898-0.552-0.809-1.497c-0.523,0.445-0.64,0.566-1.368,0.611c-0.492,0.03-1.046,0.151-1.453,0.521
			c-0.597,0.542-0.119,0.523,0.087,1.047c0.186,0.477,0.106,0.724-0.296,1.134c-0.804,0.82-2.243,0.407-2.855-0.413
			c-0.3-0.403-0.217-0.504-0.793-0.588c-1.031-0.151-1.142,0.391-1.867,0.748c-0.529,0.261-1.739-0.23-2.127,0.044
			c-0.239,0.168-0.339,0.567-0.575,0.768c-0.298,0.255-0.769,0.421-1.104,0.67c-0.478,0.356-0.514,0.512-0.731,0.986
			c-0.607,1.323-1.204,0.212-2.331,0.273c-1.476,0.08-2.394,1.362-3.65,1.693c-1.118,0.295-2.181,0.013-2.777,1.036
			c-0.366,0.628-0.639,1.168-1.247,1.585c-0.262,0.18-0.649,0.276-0.877,0.484c-0.28,0.256-0.21,0.573-0.417,0.859
			c-0.352,0.487-1.07,0.779-1.677,0.889c-1.328,0.241-2.392,1.152-3.201,2.122c-0.765,0.917-1.667,1.352-2.689,1.953
			c-0.411,0.242-0.267-0.129-0.457,0.357c-0.102,0.262-0.003,0.55-0.119,0.817c-0.207,0.471-0.706,0.896-0.951,1.363
			c-0.172,0.328-0.171,0.485-0.52,0.613c-0.268,0.098-0.656-0.136-0.875,0.071c-0.262,0.248-0.095,1.2-0.095,1.566
			c-0.202,0.237-0.494,0.325-0.795,0.351c-0.286,0.024-0.911,0.054-0.973,0.424c0.18,0.19,0.541,0.148,0.61,0.421
			c0.051,0.202-0.09,0.417-0.251,0.52c-0.479,0.307-1.104,0.131-1.625,0.146c0.027,0.253,0.329,0.398,0.411,0.62
			c0.127,0.346-0.228,0.297-0.46,0.274c-0.462-0.046-1.197,0.235-1.606-0.016c-0.322-0.198-0.251-0.967-0.888-0.672
			c-0.649,0.3,0.081,1.44-0.001,1.931c-0.074,0.442-0.439,0.71-0.523,1.14c-0.053,0.272,0.094,0.714,0.151,0.973
			c0.555-0.03,1.04-0.444,1.581-0.57c0.855-0.2,1.05,0.146,1.813,0.384c0.497,0.155,1.097-0.044,1.564,0.107
			c0.561,0.182,0.492,0.665,0.958,0.954c0.242,0.151,0.71,0.15,1.016,0.108c0.928-0.13,0.669-0.213,0.864-0.93
			c0.388-1.425,0.51,0.546,1.259,0.24c0.162-0.644-0.141-1.444,0.204-2.041c0.24-0.415,1.061-0.962,1.467-1.156
			c0.594-0.284,1.007-0.288,1.41-0.835c0.485-0.657,0.76-1.153,1.419-1.709c0.374,0.196,0.57,0.42,0.804,0.703
			c0.523,0.633,0.645,0.805,1.559,0.805c1.284,0,2.341-0.489,3.059-1.504c0.227-0.321,0.551-0.908,0.923-1.077
			c0.398-0.18,0.697,0.076,1.085,0.092c0.583,0.024,1.084-0.296,1.654-0.274c0.704,0.027,0.757,0.476,1.366,0.808
			c0.319-0.486,0.782-0.113,1.232-0.141c0.63-0.04,1.069-0.388,1.509-0.789c0.784-0.715,1.522-1.515,2.232-2.283
			c0.237-0.257,0.396-0.793,0.655-0.992c0.499-0.382,1.195-0.117,1.77-0.282c1-0.287,2.021-0.741,0.586-1.45
			c0.176-0.568,0.869-0.639,1.247-1.034c0.385-0.401,0.394-0.809,1.041-0.965c1.404-0.339,2.791,0.185,4.163-0.359
			c0.066-0.582-0.994-1.827-0.094-2.303c0.879-0.466,0.872,1.631,1.746,1.398c0.308-0.082,1.367-1.764,1.528-2.126
			c0.34-0.762-0.367-0.849-0.302-1.383c0.066-0.547,1.127-1.02,0.341-1.641c-0.637-0.504-1.223,0.227-0.881-0.925
			C188.422,18.281,190.273,17.307,189.999,16.18z"/>
	</g>
</g>
<g id="Í_xBC__xB2_ã_1">
</g>
</svg>
