<?xml version="1.0" encoding="utf-8"?>
<!-- Generator: Adobe Illustrator 26.0.3, SVG Export Plug-In . SVG Version: 6.00 Build 0)  -->
<svg version="1.1" xmlns="http://www.w3.org/2000/svg" xmlns:xlink="http://www.w3.org/1999/xlink" x="0px" y="0px"
	 viewBox="0 0 200 200" enable-background="new 0 0 200 200" xml:space="preserve">
<g id="Isolation_Mode">
</g>
<g id="Í_xBC__xB2_ã_1">
	<path fill="#1E8346" d="M122.452,6.951c0.393-0.002,0.985-0.065,1.202,0.127c0.118,0.104,0.12,0.35,0.253,0.443
		c0.148,0.042,0.295,0.084,0.443,0.127c0.125,0.109,0.167,0.354,0.316,0.443c0.105,0.021,0.211,0.042,0.316,0.063
		c0.199,0.133,0.281,0.466,0.506,0.569c0.32,0.147,0.886,0.028,1.202,0c0.748-0.065,1.648,0.013,2.341,0.063
		c0.114,0.184,0.346,0.321,0.443,0.506c0.265,0.507,0.267,1.131,0.949,1.202c0.105,0.052,0.164,0.015,0.38,0
		c0.128-0.228,0.275-0.388,0.443-0.569c0.148,0,0.295,0,0.443,0c0.274,0.279,0.706,0.456,0.759,0.949
		c0.16,0.265,0.062,2.819,0.063,3.29c0,0.253,0,0.506,0,0.759c0.11,0.308,0.466,0.485,0.569,0.886c0,0.548,0,1.097,0,1.645
		c0.103,0.341,0.469,0.449,0.569,0.823c0,0.527,0,1.054,0,1.582c0.103,0.341,0.465,0.451,0.569,0.822
		c0.171,0.612-0.231,1.389,0.063,1.961c0.114,0.222,0.455,0.405,0.569,0.696c0.285,0.727,0.447,1.666,0.633,2.404
		c0,0.274,0,0.548,0,0.822c0.047,0.156,0.227,0.21,0.253,0.253c0.021,0.19,0.042,0.38,0.063,0.569
		c0.289,1.004,0.414,1.656-0.38,2.278c0,0.801,0,1.603,0,2.404c0.368,0.232,0.841,0.681,0.696,1.392
		c-0.025,0.126-0.121,0.472-0.063,0.696c0.053,0.205,0.319,0.605,0.253,0.886c-0.09,0.388-0.327,0.449-0.316,1.139
		c0.008,0.496,0.616,1.82,0.38,2.341c-0.046,0.101-0.265,0.138-0.316,0.253c-0.021,0.232-0.042,0.464-0.063,0.696
		c-0.085,0.265-0.385,0.301-0.506,0.506c-0.107,0.181-0.084,0.351-0.19,0.506c0,0.021,0,0.042,0,0.063
		c-0.086,0.093-0.303,0.088-0.38,0.19c-0.132,0.177-0.073,0.446-0.253,0.569c-0.14,0.096-0.305,0.041-0.38,0.19
		c-0.122,0.245,0.019,0.502-0.127,0.696c-0.107,0.142-0.426,0.144-0.506,0.316c0,0.59,0,1.181,0,1.771
		c0.184,0.206,0.349,0.402,0.38,0.759c-0.287,0.185-1.493,1.596-1.518,1.961c-0.19,0.333,0.146,1.013,0,1.518
		c-0.114,0.394-0.46,0.352-0.569,0.569c0,0.148,0,0.295,0,0.443c-0.102,0.329-0.339,0.432-0.633,0.569
		c-0.096,0.92,0.327,1.007,0.38,1.708c-0.268,0.252-0.211,0.435-0.38,0.822c-0.098,0.224-0.475,0.239-0.569,0.443
		c0,0.464,0,0.928,0,1.392c-0.256,0.345-0.368,2.288-0.506,2.847c-0.021,0.232-0.042,0.464-0.063,0.696
		c-0.161,0.255-0.475,0.404-0.569,0.759c-0.192,0.725,0.209,1.347-0.316,1.708c-0.185,0.136-0.614,0.059-0.823,0.19
		c-0.097,0.118-0.124,0.359-0.253,0.443c-0.165,0.107-0.338,0.033-0.443,0.19c-0.082,0.123-0.025,0.287-0.127,0.38
		c-0.19,0.063-0.38,0.127-0.569,0.19c-0.105,0.148-0.211,0.295-0.316,0.443c-0.19,0.021-0.38,0.042-0.569,0.063
		c-0.105,0.169-0.211,0.338-0.316,0.506c-0.503,0.367-1.19,0.68-1.518,1.202c-0.137,0.217-0.004,0.497-0.127,0.759
		c-0.113,0.241-0.369,0.213-0.443,0.569c0.307,0.143,0.876,0.109,1.012,0.443c0.147,0.196,0.152,0.676,0,0.886
		c-0.066,0.195-0.061,0.185-0.253,0.253c-0.148,0.106-0.737,0.105-0.886,0c-0.391-0.15-0.268-0.507-0.759-0.569
		c-0.614,0.349-1.127-0.793-1.455-1.012c-0.517-0.346-1.078,0.133-1.772-0.127c-0.339-0.126-0.595-0.91-0.569-1.202
		c0.366-0.136,0.229-0.79-0.063-0.633c-0.271,0.094-0.516,0.435-0.696,0.633c-0.866-0.002-0.468-0.286-0.886-0.506
		c-0.274-0.042-0.548-0.084-0.823-0.127c-0.262-0.122-0.21-0.361-0.569-0.443c-0.141,0.113-0.304,0.126-0.569,0.126
		c-0.066-0.114-0.247-0.691-0.316-0.759c-0.169-0.063-0.337-0.126-0.506-0.19c-0.141-0.168-0.036-0.27-0.253-0.379
		c-0.107-0.072-0.31-0.067-0.506-0.063c-0.198,0.226-0.374,0.529-0.759,0.569c-0.369,0.241-1.533,0.152-1.898,0.063
		c-0.193-0.307-0.401-0.607-0.443-1.076c0.225-0.151,0.493-0.965,0.38-1.202c-0.117-0.414-0.48-0.455-0.633-0.759
		c-0.042-0.232-0.084-0.464-0.127-0.696c-0.148,0-0.295,0-0.443,0c-0.185,0.169-1.331,0.439-1.455,0.379
		c-0.364-0.146-0.191-0.321-0.38-0.633c-0.084-0.139-0.336-0.138-0.443-0.253c0-0.021,0-0.042,0-0.063
		c-0.078-0.116-0.044-0.242-0.127-0.38c-0.122-0.205-0.481-0.264-0.569-0.506c-0.175-0.481,0.135-0.756-0.316-0.949
		c-0.083-0.046-0.238,0.034-0.443,0.063c-0.085-0.129-0.239-0.2-0.316-0.316c-0.091-0.137-0.034-0.295-0.127-0.443
		c-0.135-0.216-0.472-0.214-0.569-0.506c-0.092-0.275,0.103-0.697-0.063-0.886c-0.084-0.021-0.169-0.042-0.253-0.063
		c-0.13-0.101-0.135-0.333-0.253-0.443c-0.169-0.063-0.337-0.127-0.506-0.19c-0.122-0.119-0.1-0.35-0.253-0.443
		c-0.684-0.414-1.013-0.583-1.012-1.708c-0.178-0.096-0.314-0.129-0.633-0.127c-0.224,0.138-0.714-0.059-0.949-0.127
		c-0.046-0.236-0.093-0.851-0.316-0.949c-0.228-0.135-0.648,0.037-0.949-0.063c-0.307-0.102-1.178-1.334-1.202-1.708
		c-0.195-0.312-0.045-1.47,0.127-1.708c0.109-0.151,0.37-0.174,0.443-0.38c0-0.316,0-0.633,0-0.949
		c-0.042-0.422-0.084-0.844-0.127-1.265c-0.134-0.269-0.411-0.358-0.506-0.759c-0.129-0.543-0.026-2.164,0.127-2.531
		c0.089-0.214,0.37-0.367,0.443-0.569c0.042-0.422,0.084-0.844,0.127-1.265c0.275-0.41,1.317-0.041,1.582-0.443
		c0.183-0.307-0.029-0.85,0.127-1.202c0.148-0.127,0.295-0.253,0.443-0.38c0.042-0.19,0.084-0.38,0.127-0.569
		c0.108-0.236,0.397-0.389,0.569-0.569c0.334,0.014,1.007,0.115,1.139-0.19c0.191-0.383-0.298-1.024,0-1.455
		c0.16-0.415,0.529-0.259,0.569-0.823c0.2-0.315,0.07-2.066,0.063-2.594c0.274-0.172,0.659-0.74,0.886-0.823
		c0.503-0.183,0.969,0.184,1.202-0.253c0.295-0.368-0.023-0.726-0.063-1.139c0.293-0.213,0.248-0.719,0.569-0.886
		c0.344-0.196,0.561,0.144,0.822,0.127c0.105-0.007,1.748-0.905,1.772-0.949c0.348-0.567-0.154-2.705,0-3.417
		c0.069-0.319,0.093-0.77,0.253-1.012c0.088-0.133,0.321-0.212,0.38-0.38c0.114-0.326,0.05-1.384,0.063-1.708
		c0.148-0.084,0.295-0.169,0.443-0.253c0.136-0.178,0.083-0.495,0.253-0.633c0.155-0.126,0.382-0.101,0.506-0.253
		c0.082-0.1,0.081-0.248,0.19-0.316c0.272-0.17,0.994-0.091,1.265-0.19c0.215-0.496,0.457-0.806,0.822-1.139
		c0-0.443,0-0.886,0-1.329c-0.042-0.134-0.226-0.145-0.19-0.38c0.022-0.139,0.203-0.372,0.253-0.506
		c0.341-0.911,0.568-1.829,1.012-2.594c0.042-0.232,0.084-0.464,0.127-0.696c0.169-0.127,0.338-0.253,0.506-0.38
		c0.042-0.19,0.084-0.38,0.127-0.569c0.063-0.085,0.246-0.052,0.316-0.127c0.148-0.156,0.074-0.437,0.19-0.633
		c0.19-0.127,0.38-0.253,0.569-0.38c0.087-0.137,0.019-0.335,0.127-0.443c0.127-0.042,0.253-0.084,0.38-0.127
		c0.084-0.148,0.169-0.295,0.253-0.443c0.228-0.162,0.785,0.036,1.012-0.126c0.223-0.159,0.176-0.472,0.506-0.569
		c0.548,0,1.097,0,1.645,0c0.402-0.964,0.585-0.23,1.329-0.633c0.127-0.148,0.253-0.295,0.38-0.443
		C122.127,7.003,122.346,7.022,122.452,6.951z"/>
	<path fill="#1E8346" d="M129.918,58.767c0.051,0.065,0.023,0.017,0.063,0.127c-0.021,0-0.042,0-0.063,0
		C129.918,58.852,129.918,58.81,129.918,58.767z"/>
	<path fill="#1E8346" d="M129.854,58.894c0.088,0.119,0.085,0.387,0,0.506C129.854,59.231,129.854,59.063,129.854,58.894z"/>
	<path fill="#1E8346" d="M114.986,84.961c0.253,0.021,0.506,0.042,0.759,0.063c0.105,0.127,0.211,0.253,0.316,0.38
		c0.014,0.525,0.194,1.303-0.127,1.645c-0.118,0.125-0.306,0.067-0.38,0.253c-0.109,0.276,0.014,0.541-0.127,0.759
		c-0.092,0.143-0.539,0.566-0.696,0.633c-0.204,0.087-0.345,0.017-0.506,0.126c-0.238,0.162-0.378,0.541-0.569,0.759
		c0.051,0.254-0.037,0.765,0.063,1.076c0.131,0.408,0.962,0.784,0.506,1.392c-0.148,0.105-0.295,0.211-0.443,0.316
		c-0.042,0.126-0.084,0.253-0.127,0.379c-0.148,0.042-0.295,0.084-0.443,0.127c-0.118,0.084-0.042,0.188-0.127,0.316
		c-0.169,0.127-0.337,0.253-0.506,0.38c-0.201,0.4-0.036,0.656-0.38,0.886c-0.209,0.14-0.522,0.059-0.759,0.19
		c-0.016,0.009-0.779,0.651-0.823,0.696c-0.265,0.277-0.175,0.722-0.569,0.886c-0.333,0.303-1.066,0.043-1.455,0
		c-0.105,0.19-0.211,0.38-0.316,0.569c-0.126,0.094-0.289,0.066-0.38,0.19c-0.093,0.126-0.068,0.351-0.19,0.443
		c-0.232,0.063-0.464,0.127-0.696,0.19c-0.207,0.127-0.33,0.457-0.822,0.316c-0.227-0.065-0.393-0.309-0.633-0.379
		c-0.338-0.021-0.675-0.042-1.012-0.063c-0.206-0.078-0.267-0.395-0.443-0.506c-0.274-0.063-0.548-0.126-0.823-0.19
		c-0.155-0.103-0.179-0.371-0.38-0.443c-0.443,0-0.886,0-1.329,0c-1.009,0-2.127,0.009-3.037-0.063
		c-0.063-0.084-0.127-0.169-0.19-0.253c-0.188-0.231-0.133-0.764-0.063-1.076c0.327-0.154,0.481-0.514,0.759-0.633
		c0.45-0.192,1.088,0.097,1.392-0.126c0.184-0.215,0.137-0.457,0.443-0.569c0.395-0.247,0.768,0.023,1.139,0.063
		c0.933,0.1,2.451,0.124,2.91,0c0.412-0.111,1.036,0.114,1.265,0c0.349-0.137,0.164-0.394,0.38-0.633
		c0.066-0.073,0.247-0.056,0.316-0.127c0.117-0.118,0.119-0.342,0.253-0.443c0.095-0.072,0.243-0.037,0.316-0.126
		c0.093-0.115,0.062-0.304,0.19-0.38c0.212-0.124,0.73,0.09,0.949-0.063c0.042-0.126,0.084-0.253,0.127-0.379
		c0.201-0.241,0.498-0.091,0.633-0.443c0.117-0.169,0.042-0.45,0-0.633c-0.127,0-0.253,0-0.38,0
		c-0.173,0.214-0.361,0.327-0.569,0.506c-0.594-0.118-0.953-0.598-1.329-0.949c-0.005-0.29,0.02-0.55,0.063-0.759
		c0.43-0.214,0.464-0.572,0.759-0.759c0.422-0.042,0.844-0.084,1.265-0.126c0.208-0.073,0.425-0.371,0.633-0.443
		c0.59-0.042,1.181-0.084,1.772-0.126c0.208-0.119,0.086-0.788,0.696-1.012c0.205-0.162,0.636-0.136,1.012-0.127
		C113.68,85.979,114.468,85.552,114.986,84.961z"/>
	<path fill="#1E8346" d="M107.014,99.006c0.341-0.005,0.696,0.012,0.949,0.063c0.218,0.358,0.436,0.473,0.443,1.076
		c-0.111,0.068-0.229,0.159-0.316,0.253c-0.642,0.028-1.259,0.045-1.455-0.379c-0.106-0.153-0.041-0.438,0.063-0.569
		C106.767,99.235,106.89,99.156,107.014,99.006z"/>
	<path fill="#1E8346" d="M133.081,99.576c0.341-0.006,0.696,0.012,0.949,0.063c0.318,0.555,0.761,0.513,0.759,1.329
		c-0.357,0.237-0.9,0.871-1.202,1.202c-0.386,0.028-0.848,0.142-1.139-0.063c-0.185-0.06-0.222-0.112-0.316-0.253
		c-0.262-0.322-0.113-1.24,0.127-1.582c0.098-0.14,0.3-0.09,0.443-0.19C132.828,99.913,132.955,99.745,133.081,99.576z"/>
	<path fill="#1E8346" d="M106.065,100.715c0.544-0.023,0.918,0.088,1.076,0.443c0.165,0.186,0.06,0.376,0.127,0.696
		c0.078,0.378-0.079,0.724-0.063,1.076c0.02,0.448,0.187,0.994,0,1.455c-0.82,0.368-3.621,0.199-4.619,0.127
		c-0.12-0.205-0.184-0.276-0.19-0.633c0.509-0.319,0.992-1.025,1.455-1.329c0.149-0.098,0.344-0.032,0.506-0.127
		c0.152-0.089,0.131-0.331,0.253-0.443c0.169-0.042,0.337-0.084,0.506-0.126c0.125-0.086,0.097-0.256,0.19-0.38
		c0.092-0.123,0.254-0.095,0.38-0.19C105.829,101.176,105.95,100.853,106.065,100.715z"/>
	<path fill="#1E8346" d="M129.854,100.904c0.551-0.021,1.184,0.196,1.329,0.569c0.226,0.258,0.115,1.66,0.127,2.088
		c0.22,0.112,0.619,0.193,0.886,0.253c0.261,0.428,0.326,0.705,0.19,1.265c-0.282,0.153-0.385,0.465-0.569,0.569
		c-0.317,0.18-0.632-0.044-0.886-0.063c-0.505-0.039-0.963,0.198-1.455,0c-0.294-0.518-0.251-1.85-0.253-2.594
		c-0.41-0.225-0.53-0.396-0.506-1.076c0.101-0.101,0.142-0.291,0.253-0.379C129.258,101.308,129.64,101.207,129.854,100.904z"/>
	<path fill="#1E8346" d="M101.067,103.751c0.297-0.001,0.44,0.046,0.633,0.127c0.187,0.366,0.319,0.524,0.316,1.139
		c-0.44,0.288-0.503,0.635-1.265,0.633c-0.105-0.172-0.608-0.733-0.633-0.823C100.028,104.5,100.888,103.923,101.067,103.751z"/>
	<path fill="#1E8346" d="M120.111,114.76c0.19,0.021,0.38,0.042,0.569,0.063c0.149,0.265,0.416,0.351,0.569,0.569
		c0.063,0.169,0.127,0.338,0.19,0.506c0.063,0,0.127,0,0.19,0c0.198-0.449,0.643-1.001,1.265-1.012
		c0.398,0.833,1.223,1.769,0.696,3.1c-0.327,0.149-0.58,0.463-0.886,0.569c-0.659,0.23-1.184,0.05-1.392,0.696
		c-0.288,0.894,0.496,1.067,0.633,1.518c0.222,0.733-0.238,1.178-0.316,1.582c0.368,0.232,0.37,0.808,0.253,1.329
		c-0.457,0.199-0.708,0.423-1.012,0.759c-0.232,0.009-0.561,0.028-0.696-0.063c-0.28-0.099-0.241-0.32-0.443-0.443
		c-0.127-0.021-0.253-0.042-0.38-0.063c-0.366-0.216-0.577-0.721-0.759-1.139c-0.399-0.04-1.066-0.049-1.455-0.126
		c-0.021-0.063-0.042-0.127-0.063-0.19c-0.592-0.766,0.296-1.12,0.443-1.392c0.021-0.148,0.042-0.295,0.063-0.443
		c0.073-0.128,0.281-0.15,0.38-0.253c0.166-0.175,0.148-0.523,0.316-0.696c0.276-0.284,0.447-0.137,0.506-0.696
		c-0.073-0.104-0.047-0.332-0.127-0.443c-0.221-0.308-0.467-0.064-0.506-0.696c-0.513-0.852,0.987-1.124,1.139-1.455
		c0.109-0.182-0.025-0.513,0.063-0.759C119.456,115.293,119.903,114.981,120.111,114.76z"/>
	<path fill="#1E8346" d="M124.54,115.393c0.351-0.002,0.504,0.065,0.759,0.127c0.045,0.129,0.063,0.296,0.063,0.506
		c-0.092,0.054-0.181,0.115-0.253,0.19c-0.579,0.032-0.937-0.012-0.949-0.569C124.274,115.578,124.437,115.483,124.54,115.393z"/>
	<path fill="#1E8346" d="M125.236,117.924c0.127,0,0.253,0,0.38,0c0.077,0.144,0.104,0.142,0.127,0.379c-0.042,0-0.084,0-0.127,0
		c-0.162,0.111-0.392,0.041-0.569,0c0-0.084,0-0.169,0-0.253C125.125,118.009,125.177,117.981,125.236,117.924z"/>
	<path fill="#1E8346" d="M118.086,126.465c0.305-0.01,0.591,0,0.759,0.127c0.457,0.161,0.631,0.829,0.886,1.012
		c0.146,0.106,0.363,0.026,0.443,0.19c0,0.084,0,0.169,0,0.253c0.086,0.129,0.038,0.437-0.063,0.569
		c-0.102,0.297-0.308,0.319-0.506,0.506c-0.587,0.006-0.876,0.028-1.329-0.063c-0.363-0.735-0.981-0.354-1.202-0.949
		c-0.178-0.217-0.129-0.656-0.063-0.949c0.269-0.166,0.549-0.404,0.759-0.633C117.93,126.524,118.005,126.52,118.086,126.465z"/>
	<path fill="#1E8346" d="M114.354,133.488c0.295,0.021,0.59,0.042,0.886,0.063c0.068,0.111,0.159,0.229,0.253,0.316
		c-0.021,0.359-0.042,0.717-0.063,1.076c-0.084,0.063-0.169,0.127-0.253,0.19c-0.684,0.571-1.295-0.307-1.265-1.012
		c0.052-0.079,0.01-0.192,0.063-0.316C114.046,133.634,114.224,133.6,114.354,133.488z"/>
	<path fill="#1E8346" d="M95.689,142.915c0.359-0.006,0.743,0.008,1.012,0.063c0.15,0.264,0.268,0.565,0.316,0.949
		c-0.146,0.163-0.33,0.517-0.506,0.633c-0.457,0.301-1.189-0.157-1.202-0.633c-0.126-0.193,0.009-0.534,0.063-0.759
		C95.484,143.099,95.602,143.009,95.689,142.915z"/>
	<path fill="#1E8346" d="M88.667,149.305c0.363-0.012,0.908-0.029,1.139,0.126c0.313,0.128,0.475,0.723,0.759,0.633
		c0.701-0.24,0.3-0.701,1.392-0.696c0.174,0.274,0.482,0.697,0.569,1.013c0.215,0.777-0.445,1.165-0.506,1.835
		c0.732,0.802,1.511,1.022,1.139,2.594c-0.355,0.158-0.981,0.133-1.519,0.126c-0.205,0.369-0.597,0.589-0.696,0.823
		c-0.277,0.43-0.017,1.594,0,2.088c0.194,0.109,0.348,0.24,0.506,0.38c0.02,0.324,0.02,0.372,0,0.696
		c-0.243,0.157-0.41,0.509-0.633,0.633c-0.384,0.213-1.147-0.017-1.582,0.063c-0.042,0.271-0.08,0.536-0.316,0.633
		c-0.275,0.172-0.623-0.037-0.886-0.063c-0.822,0-1.645,0-2.468,0c-0.217-0.357-0.654-1.164-1.012-1.329
		c-0.211-0.021-0.422-0.042-0.633-0.063c-0.256-0.159-0.471-0.55-0.696-0.759c0.003-0.396,0.113-0.518,0.19-0.822
		c0.795-0.375,2.142-0.211,2.974-0.19c0.125,0.205,0.288,0.395,0.443,0.569c0.111-0.04,0.061-0.012,0.127-0.063
		c0.171-0.141,0.112-0.334,0.253-0.506c0.169-0.063,0.337-0.126,0.506-0.19c0.459-0.324,0.724-0.948,1.139-1.329
		c0.009-0.418,0.192-1.093-0.063-1.392c-0.122-0.142-0.363-0.117-0.443-0.316c-0.192-0.478-0.122-1.194-0.127-1.772
		c-0.194-0.119-0.33-0.231-0.38-0.506c0.658-0.57,0.324-1.229,0.506-2.088c0.042,0,0.084,0,0.127,0
		C88.525,149.388,88.618,149.348,88.667,149.305z"/>
	<path fill="#1E8346" d="M75.633,169.235c0.447-0.012,0.851,0.008,1.139,0.127c0.081,0.184,0.075,0.477,0.19,0.696
		c0.063,0.12,0.312,0.147,0.38,0.253c0.042,0.19,0.084,0.38,0.127,0.569c0.301,0.458,0.556,0.059,0.569,1.012
		c-0.063,0.19-0.127,0.38-0.19,0.569c-0.132,0.059-0.583,0.172-0.696,0.253c-0.082,0.059-0.145,0.27-0.253,0.316
		c-0.23,0.098-0.468,0.053-0.633,0.126c-0.021,0.232-0.042,0.464-0.063,0.696c-0.148,0.106-0.295,0.211-0.443,0.316
		c-0.154,0.215-0.066,0.442-0.316,0.569c-0.193,0.164-0.672,0.161-0.886,0c-0.239-0.083-0.841-0.715-0.886-1.012
		c0.189-0.163,0.386-0.338,0.569-0.506c-0.021-0.274-0.042-0.548-0.063-0.823c-0.082-0.202-0.333-0.227-0.443-0.38
		c-0.209-0.291-0.201-1.358,0-1.645c0.286-0.794,0.803-0.232,1.392-0.569c0-0.021,0-0.042,0-0.063
		C75.285,169.609,75.44,169.402,75.633,169.235z"/>
	<path fill="#1E8346" d="M82.719,170.5c0.274,0,0.548,0,0.823,0c0.263,0.37,0.603,1.574-0.063,1.835
		c-0.199,0.152-0.728,0.138-1.012,0.19c0,0.063,0,0.126,0,0.19c0.681,0.468,0.693,1.688-0.506,1.645
		c-0.149-0.106-0.404-0.074-0.569-0.19c-0.32-0.225-0.142-0.928-0.063-1.265c0.524-0.213,0.982-0.19,0.949-1.012
		C82.502,171.54,82.458,170.915,82.719,170.5z"/>
	<path fill="#1E8346" d="M65.447,176.257c0.19,0.021,0.38,0.042,0.569,0.063c0.213,0.322,0.265,0.594,0.253,1.202
		c-0.096,0.12-0.113,0.227-0.127,0.443c0.127,0.105,0.253,0.211,0.38,0.316c0.38-0.021,0.759-0.042,1.139-0.063
		c0.224,0.329,0.745,0.452,0.886,0.823c0.264,0.479-0.169,0.832,0.633,0.823c0.224-0.143,0.643,0.026,0.949-0.063
		c0.198-0.058,0.2-0.176,0.316-0.316c0.297-0.36,0.887-0.23,1.329-0.126c0.105,0.126,0.211,0.253,0.316,0.379
		c0.009,0.464,0.031,0.772,0,1.202c-0.127,0.105-0.253,0.211-0.38,0.316c-0.193,0.068-0.495,0.018-0.633,0.063
		c-0.085,0.262-0.036,0.74-0.19,0.949c-0.078,0.106-0.278,0.103-0.38,0.19c-0.144,0.123-0.152,0.398-0.316,0.506
		c-0.19,0.042-0.38,0.084-0.569,0.126c-0.159,0.069-0.384,0.377-0.506,0.506c-0.583,0.006-1.288,0.033-1.771-0.063
		c-0.164-0.316-0.13-0.898-0.316-1.012c-0.136-0.091-0.462-0.071-0.696-0.063c-0.016,0.032-0.823,1.139-0.823,1.139
		c-0.093,0.072-0.245,0.037-0.316,0.126c-0.096,0.119-0.067,0.357-0.19,0.443c-0.127,0.088-0.274,0.033-0.38,0.127
		c-0.106,0.148-0.211,0.295-0.316,0.443c-0.253,0.021-0.506,0.042-0.759,0.063c-0.29-0.086-0.302-0.365-0.506-0.506
		c-0.176-0.122-0.462-0.07-0.569-0.253c-0.09-0.154,0.021-0.359-0.127-0.443c-0.548,0-1.097,0-1.645,0
		c-0.068-0.048-0.06-0.038-0.19-0.063c-0.22-0.328-0.326-0.455-0.316-1.076c0.207-0.123,0.564-0.25,0.759-0.38
		c0.117-0.078,0.145-0.3,0.253-0.379c0.776-0.567,1.361,0.333,1.329-1.455c-0.146-0.075-0.394-0.089-0.569-0.19
		c-0.234-0.135-0.431-0.566-0.633-0.759c-0.006-0.377,0.005-0.79,0.063-1.076c0.593-0.166,0.985-0.547,1.518-0.696
		c0.378-0.106,0.909,0.07,1.202-0.127c0.119-0.08,0.042-0.193,0.127-0.316c0.124-0.18,0.395-0.119,0.569-0.253
		c0.163-0.126,0.107-0.331,0.316-0.443C65.194,176.34,65.384,176.303,65.447,176.257z"/>
	<path fill="#1E8346" d="M73.419,181.635c0.656-0.002,0.833,0.229,1.202,0.443c0.295,0.042,0.591,0.084,0.886,0.127
		c0.183,0.312,0.373,0.707,0.633,0.949c-0.04,0.111-0.012,0.062-0.063,0.127c-0.14,0.356-0.42,0.223-0.759,0.379
		c-0.183,0.084-0.222,0.344-0.38,0.443c-0.239,0.151-0.876,0.194-1.202,0.063c-0.186-0.074-0.225-0.342-0.38-0.443
		c-0.308-0.201-0.671-0.01-0.823-0.38C71.962,182.532,73.081,182.005,73.419,181.635z"/>
	<path fill="#1E8346" d="M80.378,189.733c0.464,0.021,0.928,0.042,1.392,0.063c0.233,0.323,0.64,0.669,0.696,1.139
		c-0.305,0.204-0.513,0.619-0.759,0.886c-0.35,0.01-1.036,0.088-1.265-0.063c-0.284-0.095-0.21-0.256-0.38-0.443
		c-0.169-0.105-0.337-0.211-0.506-0.316c-0.235-0.379,0.374-1.04,0.633-1.139C80.237,189.817,80.33,189.777,80.378,189.733z"/>
</g>
</svg>
