<?xml version="1.0" encoding="utf-8"?>
<!-- Generator: Adobe Illustrator 26.0.3, SVG Export Plug-In . SVG Version: 6.00 Build 0)  -->
<svg version="1.1" id="Isolation_Mode" xmlns="http://www.w3.org/2000/svg" xmlns:xlink="http://www.w3.org/1999/xlink" x="0px"
	 y="0px" viewBox="0 0 200 200" enable-background="new 0 0 200 200" xml:space="preserve">
<g>
	<path fill="#1E8346" d="M-0.434,65.975c0.031-0.396,0.383-0.724,0.723-0.851c0.698-0.259,1.426,0.302,1.831,0.614
		c0.31,0.239,1.053,0.811,0.916,1.229c-0.163,0.496-1.54,0.687-2.506,0.189C0.38,67.079-0.485,66.633-0.434,65.975z"/>
	<path fill="#1E8346" d="M21.445,35.356c0.441-1.03,1.834-1.195,2.12-1.229c0.12-0.014,1.394-0.145,2.41,0.662
		c0.625,0.497,0.459,0.798,1.398,1.937c0.701,0.85,0.887,0.796,1.157,1.323c0.101,0.198,0.696,1.42,0.096,2.41
		c-0.66,1.089-2.422,1.333-3.373,0.756c-0.796-0.483-0.41-1.167-1.398-2.221c-0.912-0.973-1.62-0.794-2.169-1.748
		C21.593,37.084,21.084,36.2,21.445,35.356z"/>
	<path fill="#1E8346" d="M76.624,35.333c0.299-0.902,1.336-1.228,1.638-1.323c1.14-0.358,2.137,0.046,3.422,0.567
		c1.233,0.5,2.335,0.947,2.458,1.796c0.071,0.494-0.193,1.099-0.602,1.252c-0.385,0.144-0.608-0.222-1.205-0.307
		c-0.925-0.132-1.227,0.627-2.385,0.851c-0.223,0.043-1.396,0.243-2.337-0.449C76.955,37.235,76.32,36.25,76.624,35.333z"/>
	<path fill="#1E8346" d="M101.436,39.869c0.029-0.584,0.451-0.987,0.687-1.205c0.174-0.161,0.859-0.757,2.114-0.886
		c1.304-0.134,1.424,0.419,2.837,0.408c1.16-0.01,1.257-0.384,2.602-0.372c0.676,0.006,1.826,0.016,2.06,0.585
		c0.159,0.387-0.153,0.913-0.47,1.187c-0.436,0.376-1.024,0.398-1.789,0.425c-0.761,0.028-0.882-0.094-1.211,0.053
		c-0.476,0.213-0.838,0.744-0.867,1.276c-0.039,0.698,0.502,1.272,0.723,1.506c0.308,0.327,0.479,0.355,0.506,0.549
		c0.06,0.435-0.69,1.093-1.464,1.223c-1.025,0.172-1.194-0.733-3.921-2.392c-0.273-0.166-1.278-0.77-1.681-1.719
		C101.484,40.321,101.424,40.112,101.436,39.869z"/>
	<path fill="#1E8346" d="M96.141,43.98c0.134-0.552,1.041-0.805,1.663-0.815c0.782-0.012,0.913,0.364,2.078,0.567
		c0.868,0.151,1.284,0.028,1.337,0.195c0.087,0.271-0.914,0.883-1.879,1.187c-0.634,0.2-1.808,0.57-2.62-0.035
		C96.416,44.852,96.04,44.398,96.141,43.98z"/>
	<path fill="#1E8346" d="M114.743,39.16c0.064-0.305,0.877-0.385,1.301-0.378c0.542,0.009,1.57,0.182,1.735,0.732
		c0.125,0.418-0.392,0.574-0.506,1.441c-0.076,0.58,0.1,0.931-0.121,1.087c-0.174,0.123-0.5,0.056-0.675-0.118
		c-0.261-0.26-0.036-0.614-0.121-1.063C116.169,39.852,114.653,39.588,114.743,39.16z"/>
	<path fill="#1E8346" d="M89.563,60.53c0.115-0.526,1.037-0.972,1.663-0.744c0.534,0.194,0.421,0.722,1.193,2.197
		c0.596,1.139,1,1.47,0.831,1.949c-0.139,0.394-0.619,0.76-1.048,0.709c-0.71-0.084-0.597-1.229-1.879-2.871
		C89.823,61.13,89.484,60.892,89.563,60.53z"/>
	<path fill="#1E8346" d="M82.732,77.646c-0.462,0.638,0.192,1.73,0.578,2.374c0.196,0.327,0.531,0.707,1.193,1.453
		c1.2,1.353,1.592,1.651,2.096,1.843c0.157,0.06,0.994,0.378,1.265,0.071c0.248-0.282-0.107-0.947-0.325-1.347
		c-0.828-1.514-1.596-1.447-2.386-2.729c-0.675-1.095-0.551-1.852-1.193-2.056C83.531,77.121,82.981,77.303,82.732,77.646z"/>
	<path fill="#1E8346" d="M94.768,81.899c0.269-0.284,1.345,0.085,1.373,0.496c0.02,0.287-0.464,0.735-0.94,0.602
		C94.677,82.852,94.565,82.114,94.768,81.899z"/>
	<path fill="#1E8346" d="M106.261,75.662c1.701,0.093,2.885,0.061,3.711,0c0.348-0.026,0.915-0.077,1.59,0.142
		c0.852,0.276,0.823,0.639,1.349,0.756c1.124,0.249,1.736-1.304,3.807-1.748c0.597-0.128,1.047-0.224,1.494,0
		c0.965,0.484,0.47,1.735,1.446,2.835c0.967,1.089,2.075,0.564,2.988,1.701c0.295,0.368,0.426,1.022,0.675,2.315
		c0.644,3.344,0.247,4.157,0.048,4.489c-0.173,0.29-0.464,0.777-1.012,0.945c-1.076,0.33-2.603-0.739-3.181-2.032
		c-0.628-1.406,0.278-2.151-0.434-3.26c-0.745-1.161-2.419-1.403-2.843-1.465c-1.387-0.201-1.588,0.359-2.65,0.095
		c-1.468-0.365-1.35-1.5-2.988-2.126c-1.287-0.492-1.897,0.002-2.795-0.614C106.704,77.17,106.4,76.302,106.261,75.662z"/>
	<path fill="#1E8346" d="M113.942,93.718c-0.001-0.219,0.399-0.553,0.759-0.407c0.37,0.149,0.399,0.683,0.235,0.833
		C114.713,94.347,113.943,94.021,113.942,93.718z"/>
	<path fill="#1E8346" d="M125.815,95.118c-0.195,0.37,0.016,0.816,0.199,1.169c0.714,1.381,1.428,2.213,1.879,2.853
		c1.298,1.84,0.769,2.585,2.078,3.757c0.391,0.35,1.154,1.033,1.916,0.815c0.577-0.165,1.037-0.815,1.048-1.435
		c0.005-0.28-0.08-0.674-1.789-2.498c-0.901-0.962-1.349-1.356-1.265-1.878c0.073-0.457,0.478-0.541,0.488-1.01
		c0.011-0.517-0.466-1.101-1.03-1.258c-0.7-0.195-1.14,0.376-1.608,0.106c-0.429-0.247-0.236-0.827-0.669-1.045
		C126.675,94.497,126.028,94.714,125.815,95.118z"/>
	<path fill="#1E8346" d="M143.927,102.641c-0.308,0.036-0.498,0.359-0.482,0.638c0.017,0.304,0.281,0.614,0.602,0.591
		c0.325-0.023,0.545-0.375,0.506-0.685C144.516,102.891,144.245,102.604,143.927,102.641z"/>
	<path fill="#1E8346" d="M145.137,104.527c-0.32,0.052-0.536,0.374-0.506,0.685c0.026,0.275,0.244,0.532,0.53,0.567
		c0.355,0.043,0.705-0.268,0.699-0.638C145.853,104.773,145.496,104.468,145.137,104.527z"/>
	<path fill="#1E8346" d="M136.044,108.738c0.041-0.697,0.551-1.401,1.181-1.748c0.89-0.492,1.393,0.074,2.554-0.284
		c1.33-0.409,1.321-1.351,2.386-1.512c1.102-0.166,2.481,0.637,2.602,1.512c0.08,0.576-0.43,0.855-2.048,2.552
		c-1.842,1.933-1.826,2.249-2.458,2.41C138.547,112.105,135.944,110.414,136.044,108.738z"/>
	<path fill="#1E8346" d="M127.55,139.15c-0.229,0.132-0.22,0.516-0.217,0.656c0.019,0.769,0.775,1.588,1.355,1.453
		c0.324-0.075,0.572-0.442,0.596-0.78C129.345,139.635,128.004,138.888,127.55,139.15z"/>
	<path fill="#1E8346" d="M137.887,155.86c-0.472,0.198-0.534,0.931-0.542,1.028c-0.085,1.007,0.797,2.181,1.735,2.091
		c0.535-0.051,1.051-0.511,1.157-1.028C140.468,156.814,138.689,155.523,137.887,155.86z"/>
	<path fill="#1E8346" d="M144.77,140.321c0.015-0.368,0.368-0.704,0.775-0.71c0.382-0.006,0.751,0.278,0.763,0.548
		c0.019,0.438-0.892,0.94-1.309,0.673C144.822,140.719,144.763,140.486,144.77,140.321z"/>
	<path fill="#1E8346" d="M153.971,137.644c0.26-0.004,0.672-0.009,1.012-0.248c0.583-0.409,0.286-1.032,0.759-1.843
		c0.568-0.973,1.447-0.852,1.554-1.488c0.098-0.582-0.614-0.829-1.409-1.949c-0.983-1.384-0.491-1.845-1.373-2.871
		c-0.747-0.868-2.04-1.63-3.108-1.311c-0.208,0.062-0.621,0.185-0.723,0.496c-0.232,0.708,1.523,1.246,1.771,2.658
		c0.147,0.84-0.426,0.918-0.434,2.339c-0.004,0.711,0.14,0.59,0.289,2.02c0.121,1.159,0.056,1.529,0.398,1.843
		C153.104,137.656,153.729,137.648,153.971,137.644z"/>
	<path fill="#1E8346" d="M191.367,131.844c-0.188-0.788,0.688-1.678,1.518-2.008c0.988-0.393,2.067-0.053,2.675,0.402
		c0.314,0.235,0.256,0.316,0.554,0.496c0.826,0.497,1.458-0.013,2.12,0.354c0.706,0.391,0.793,1.418,0.819,1.725
		c0.073,0.856-0.234,2-0.747,2.079c-0.593,0.091-0.731-1.353-2.072-1.866c-0.593-0.227-1.244-0.204-2.313-0.165
		c-0.799,0.029-1.237,0.129-1.759-0.142C192.046,132.658,191.492,132.37,191.367,131.844z"/>
	<path fill="#1E8346" d="M180.114,111.738c-0.586,0.561-0.249,1.628-0.193,1.796c0.34,1.013,1.272,1.496,1.759,1.748
		c0.491,0.255,2.03,1.052,2.819,0.354c0.436-0.386,0.606-1.196,0.289-1.701c-0.495-0.788-1.743-0.138-2.747-1.063
		c-0.643-0.593-0.684-1.368-1.253-1.418C180.442,111.425,180.167,111.688,180.114,111.738z"/>
	<path fill="#1E8346" d="M188.162,114.763c0.218-0.955,1.204-0.985,1.59-1.985c0.326-0.844-0.131-1.461,0.193-1.654
		c0.346-0.206,1.231,0.284,1.638,1.016c0.498,0.895-0.055,1.549,0.41,1.961c0.402,0.357,0.952-0.012,2.626,0.213
		c0.768,0.103,0.881,0.211,0.916,0.307c0.146,0.408-0.945,1.131-1.59,1.559c-1.008,0.669-1.512,1.003-2.145,1.11
		c-1.291,0.219-3.016-0.267-3.518-1.441C188.235,115.738,188.042,115.288,188.162,114.763z"/>
	<path fill="#1E8346" d="M180.825,92.885c-0.108,0.056-0.57,0.296-0.831,0.744c-0.434,0.746-0.056,1.627,0.036,1.843
		c0.491,1.146,1.89,2.126,2.747,1.736c0.296-0.135,0.572-0.453,0.614-0.815c0.087-0.738-0.883-0.908-1.373-2.126
		c-0.319-0.792-0.201-1.445-0.578-1.559C181.267,92.656,181.093,92.746,180.825,92.885z"/>
	<path fill="#1E8346" d="M175.078,84.84c-0.032-0.152-0.287-1.483,0.614-2.197c0.922-0.73,2.241-0.17,2.386-0.106
		c0.943,0.417,0.792,1.007,1.735,1.737c1.493,1.155,3.016,0.564,3.397,1.453c0.218,0.507-0.271,0.715-0.434,1.949
		c-0.201,1.529,0.403,2.327-0.036,2.693c-0.414,0.346-1.309-0.067-1.626-0.213c-1.396-0.643-1.278-1.564-2.675-2.481
		c-0.982-0.645-1.325-0.376-2.205-1.134C175.832,86.194,175.253,85.682,175.078,84.84z"/>
	<path fill="#1E8346" d="M159.717,77.965c0.135-0.448,0.852-0.733,1.41-0.638c0.372,0.064,0.598,0.283,1.12,0.886
		c1.094,1.262,1.641,1.902,1.626,2.303c-0.033,0.939-1.06,1.885-1.663,1.737c-0.481-0.118-0.331-0.844-1.048-2.091
		C160.39,78.818,159.553,78.51,159.717,77.965z"/>
	<path fill="#1E8346" d="M158.019,71.197c0.25-0.444,0.909-0.401,2.638-0.496c2.701-0.149,2.835-0.35,3.578-0.106
		c1.301,0.427,2.441,1.555,2.241,2.091c-0.176,0.47-1.23,0.07-3.036,0.673c-1.505,0.503-1.598,1.057-2.53,1.028
		c-1.172-0.036-2.151-0.946-2.602-1.772C158.1,72.233,157.773,71.634,158.019,71.197z"/>
	<path fill="#1E8346" d="M144.188,63.187c-0.559,0.431-0.37,1.564-0.048,2.244c0.525,1.11,1.654,1.549,2.41,1.843
		c1.531,0.595,3.463,0.732,3.638,0.26c0.104-0.281-0.512-0.514-1.687-1.725c-1.279-1.318-1.348-1.867-2.313-2.363
		C145.924,63.312,144.785,62.727,144.188,63.187z"/>
	<path fill="#1E8346" d="M152.766,61.793c-0.301,0.156-0.434,0.572-0.361,0.898c0.132,0.594,0.959,0.977,1.398,0.709
		c0.271-0.166,0.354-0.558,0.289-0.851C153.965,61.981,153.225,61.556,152.766,61.793z"/>
	<path fill="#1E8346" d="M177.127,58.269c-0.234-0.246-0.67-0.257-0.963-0.096c-0.533,0.292-0.67,1.195-0.29,1.54
		c0.235,0.214,0.635,0.184,0.897,0.04C177.282,59.472,177.483,58.643,177.127,58.269z"/>
	<path fill="#1E8346" d="M161.007,56.596c-1.006,0.348-1.481,1.289-1.59,1.512c-0.184,0.378-0.633,1.298-0.217,2.244
		c0.258,0.586,0.978,1.481,1.783,1.276c0.702-0.179,1.127-1.108,0.94-1.678c-0.116-0.353-0.401-0.364-0.434-0.661
		c-0.058-0.528,0.819-0.7,0.988-1.441c0.11-0.484-0.109-1.091-0.53-1.299C161.616,56.385,161.252,56.511,161.007,56.596z"/>
	<path fill="#1E8346" d="M163.32,23.59c-0.58,0.177-0.859,0.957-0.771,1.559c0.105,0.726,0.785,1.492,1.494,1.37
		c0.656-0.113,1.06-0.938,0.964-1.607C164.89,24.098,164.01,23.38,163.32,23.59z"/>
	<path fill="#1E8346" d="M157.585,40.507c-0.373,0.255-0.263,1.191,0.145,1.795c0.535,0.793,1.7,1.19,2.072,0.851
		c0.309-0.282,0.045-1.05-0.193-1.465C159.122,40.839,158.02,40.209,157.585,40.507z"/>
	<path fill="#1E8346" d="M153.971,41.924c-0.352,0.274-0.17,1.151,0.193,1.701c0.419,0.635,1.297,1.17,1.735,0.898
		c0.38-0.236,0.35-1.031,0.096-1.559C155.578,42.096,154.387,41.6,153.971,41.924z"/>
</g>
</svg>
