<?xml version="1.0" encoding="utf-8"?>
<!-- Generator: Adobe Illustrator 26.0.3, SVG Export Plug-In . SVG Version: 6.00 Build 0)  -->
<svg version="1.1" id="Isolation_Mode" xmlns="http://www.w3.org/2000/svg" xmlns:xlink="http://www.w3.org/1999/xlink" x="0px"
	 y="0px" viewBox="0 0 200 200" style="enable-background:new 0 0 200 200;" xml:space="preserve">
<style type="text/css">
	.st0{fill:#1E8346;}
</style>
<g>
	<path class="st0" d="M4.1,63.9c0.3-0.9,1.7-0.7,2-0.1C6,64.6,4,64.7,4.1,63.9z"/>
	<path class="st0" d="M4.9,64.8c0-0.1,0.5-0.3,0.6-0.2C5.6,64.9,5,65.1,4.9,64.8z"/>
	<path class="st0" d="M7,59c0.9-0.7-0.6-0.6,0.6-1c-0.3-0.9,0-0.3,0.4-0.9c0.2-0.1,0.4,0.4,0.9,0.7c0.4,0.2,0.6,0,1,0.2
		c0.6,0.4,0.7,1.2,0,1.2c0,0.4-0.2,0-0.4,0c-0.2,0.1-0.2,0.3-0.5,0.2c-0.4,0.5-0.5,0.1-1.1,0c-0.3,0.1-0.3-0.1-0.4-0.3
		C7.4,58.9,7.1,59.1,7,59z"/>
	<path class="st0" d="M10.5,57.4c0-0.2,0.5-0.5,0.6-0.4C11.4,57.4,10.6,57.9,10.5,57.4z"/>
	<path class="st0" d="M9.4,59.6c0-0.4,0.7-0.2,0.7,0.1C10,59.8,9.4,59.8,9.4,59.6z"/>
	<path class="st0" d="M12.5,54.5c-0.1-0.3,0.7-0.6,0.8-0.4C13.3,54.2,12.8,54.6,12.5,54.5z"/>
	<path class="st0" d="M13.7,54.2c-0.5,0-0.6,1.1-0.1,1.4c0,0.2-0.2,0.3-0.2,0.5c0,0.2,0.2,0.2,0.2,0.4c0,0.2-0.5,0.3-0.5,0.6
		c0,0.5,0.6,0.2,0.6,0c0,0,0,0.2,0.1,0.3c0.5,0.2,0.1-1.2,1.3-0.9c0,0-0.5-0.1-0.6-0.5c0-0.3-0.1-0.3-0.3-0.3
		c-0.1-0.1,0.1-0.4,0-0.6C13.1,55.1,13.5,54.8,13.7,54.2z"/>
	<path class="st0" d="M14.8,55.3c-0.1-0.1,0.2-0.4,0.3-0.4C15.4,55.1,14.9,55.5,14.8,55.3z"/>
	<path class="st0" d="M13.9,51.9c-0.3,0.2,0.3,0.7,0.5,0.4C14.5,52.2,14.1,51.9,13.9,51.9z"/>
	<path class="st0" d="M19.2,51.7c0.2-0.1,0.6-0.8,0.7-0.9c0.2,0,0.7,0.1,1-0.1c0.4-0.1,0.6,0.4,1.2,0.7c0.8,0.2,2.4,0.7,1.9,1.8
		c0.1,0.2,0.5,0.1,1.1,0.3c0.7,0.2,1,0.7,1.4,0.6c0.4-0.2,0.5,0.1,0.7,0.4c0.4,0.4,0.8,0,1.3,0.4c0.4,0.3,0.5,0.8,1,0.7
		c0.6,0,0.8,0.9,1.6,1.3c0.6,0.2,0.3,0.6,0.4,1.5c0,0.5,0.1,0.8,0.3,1c0.5,0.4,0.8,0.5,0.4,0.9c0.3,0,0.7,0.1,1,0.6
		c0.3,0.2,0.5,0.1,0.9,0.3c0,0,1.6,1.8,1.6,1.4c0.3-0.1,0.4,0.2,0.5,0.4c1,0.4,1.9-1.4,2.6-0.5c0.2,0.2,0.1,1,0.2,1.6
		c-0.1,0.1-0.4-0.3-0.7-0.2c-0.3,0.2-0.6,0.7-1.1,0.7c-0.4,0.9-0.4-0.2-1.1-0.3c-0.8,0.6-1.9-0.1-1-0.8c-2.6,1.3-1.8-0.9-3.7,0
		c-0.3-0.1-0.2-0.8-0.5-1c-0.4-0.2-0.9,0.5-1.2,0.3c-0.3-0.2-0.2-0.7,0-1c-0.7-0.3-1-0.3-2.1-1.2c-0.8-0.6-1.4-1.5-2-2.3
		c-0.1-0.9-0.8-0.9-1.3-1.5c0-1.5-3.7-1.4-3.2-2.7C18,52.7,20.3,52.9,19.2,51.7z"/>
	<path class="st0" d="M21.1,69.2c-0.2-0.8,0.2-0.8,0.8-1.3c0.9-1.7,1.7,0.3,2.2,1.1c0.3,0.4,1.2,0.4,1.4,0.6c1.3,1-0.4,1.5-0.7,2.6
		c-0.1,0.7,0.3,1.2,0,1.5c-0.3,0.3-0.4,0.1-0.6-0.2c-1.1,0.1-0.3-0.1-0.4-0.8c-0.3-0.1-1.3-0.2-0.9-0.9c0.7-0.5-0.5-0.9-0.4-1.6
		c-0.2-0.2-0.6,0.1-0.8-0.1C21.5,69.8,21.4,69.4,21.1,69.2z"/>
	<path class="st0" d="M21.2,71.7c-0.2-0.7,0.9-0.8,0.8-0.1C22,72,21.4,72,21.2,71.7z"/>
	<path class="st0" d="M21.3,73.8c0.7-0.6,1,0.1,1.1,1c0.2,0.5,0.4,0.5,0.4,0.8c-0.3,0.8,0.7,1.8-0.3,2.1c-0.1-0.2-0.5-1.2-0.8-1.5
		C21.4,75.5,21.7,74.3,21.3,73.8z"/>
	<path class="st0" d="M21.2,79.6c-0.2-0.2,0.3-1.1,0.5-1C22.5,78.8,21.8,80.1,21.2,79.6z"/>
	<path class="st0" d="M25.7,75.6c-0.3-0.8,0.9-0.7,1.1,0.1C26.9,76.7,25.8,76.5,25.7,75.6z"/>
	<path class="st0" d="M38,64.2c0.2-0.5,0.5-0.1,0.9,0c0.7-0.3,2.2,0.2,0.9,0.8c-0.5,0.1-0.9,0-0.6-0.3C39.2,64.7,38,64.7,38,64.2z"
		/>
	<path class="st0" d="M41.6,64.6c0.4-1,2.1-0.1,1.7,0.7C43,66,41.5,65.4,41.6,64.6z"/>
	<path class="st0" d="M44.1,65.7c-0.1-0.4,0.5-0.3,0.4,0C44.4,65.8,44.1,65.8,44.1,65.7z"/>
	<path class="st0" d="M45.7,64.7c0.2-0.3,0.9,0.3,0.7,0.5C46.3,65.4,45.6,64.9,45.7,64.7z"/>
	<path class="st0" d="M28.4,74.3c0-2.6,4.1-3.3,4.5-0.5c0.2,1-0.3,2.5-1,3.1c-0.5-0.2-1.1-0.6-1.8-0.5
		C29.4,76.1,28.6,75.2,28.4,74.3z"/>
	<path class="st0" d="M29.9,77.8c0.7-0.7,1.5,0.5,1.3,1c0.1,0.4,1.1,0.9,0.7,1.4c-0.4,0.1-0.8-0.7-0.9-1
		C30.7,78.9,29.6,78.6,29.9,77.8z"/>
	<path class="st0" d="M31.2,77.7c0-0.5,0.9-0.8,1.2-0.3c0.3,0.2-0.1,1.3,0.4,1.4c0.2-0.1,0-0.7,0.3-1c2,0.5,2.1-3.1,3.3-3.5
		c0.7,0.2,0.9-0.2,1.2-0.5c0.3,0.2,0.6,0.6,1.2,0.6c0.4,0.2,0.3,0.7,0.6,0.8c0.5,0,0.3,0.2,0.2,0.6c0,0.4,0.4,0.5,0.4,0.8
		c-0.5,0.8,0,0.7,0.3,1.3c-0.5,0.9,0.1,0.1,0.7,0.5c0.5-0.3,1.2-0.6,1.6,0.1c0.1,0.3-0.2,0.6,0,0.8c0.1,0.2,0.4,0.1,0.7,0.4
		c0.3,0.3,0,0.7,0.3,1c0.3,0.4,0.6,0.2,0.7,0.5c0.1,0.8-0.3,1,0.5,1.4c0,0.3-0.8,0.8-0.5,1.3c-0.4,0.1-1.8-0.2-1.9-0.2
		c-0.3-0.2-0.3-0.6-0.6-0.7c-1.1,0.3-2-0.1-2.2-1.2c-0.4-0.2-0.8-0.7-0.4-1c0.3,0,1.1,0.7,0.9-0.1c-1.4-0.2-0.5-1.7-1.7-2.1
		c-0.8,0.7-0.6,0.3-1.5,0.2c-0.6,0.7-0.9,0.3-1.6,0.4c-2,2.5-1.1-0.1-2.3,0.7c-0.1-0.6,0.1-0.7-0.8-0.6C32,79.1,31.2,78,31.2,77.7z"
		/>
	<path class="st0" d="M35.5,79.7c0.1,0.2,2.4-1.2,1.6,0.2C36.9,79.9,35.5,79.6,35.5,79.7z"/>
	<path class="st0" d="M37.6,79.3c-0.2,0.1-0.1,0.7,0.1,0.7C38.2,80.1,38,79.2,37.6,79.3z"/>
	<path class="st0" d="M32.8,84.3c-0.2-0.8,0.7-1.3,1.4-1.4c0-0.5,0.2-0.5,0.7-0.9c0.5-1.2,1.9-0.1,1.6,0.8c-0.2,0.4-0.4,0.8-0.4,1.3
		c-0.1,0.1-0.4-0.2-0.6-0.1c-0.5,1.7-0.7,1.7,0.8,2.6c-0.7,1-1.7-0.5-1.9-1C34.2,85.2,32.9,84.7,32.8,84.3z"/>
	<path class="st0" d="M37.3,87c0.2-0.6,1.2-0.1,1.5-0.6c0.2-0.1,0.5,0.2,1.7,1.1c0.5,0.4,0.5,0.6-0.1,0.5c-0.6,0-1.2-0.2-1.5-0.7
		C38.4,87.1,37.6,87.7,37.3,87z"/>
	<path class="st0" d="M42.7,84.2c-0.1,0.4,0.7,0.5,0.8,0.3C43.5,84.3,42.8,84.1,42.7,84.2z"/>
	<path class="st0" d="M44.2,85.8c0.1-0.3,0.5-0.5,0.2-0.9c0-0.3,0.5-0.3,0.8-0.6c0.4-0.4,0.2-0.9,0.5-0.9c0.3-0.1,0.7,0.7,1,0.6
		c0.3-0.8,1.4-1,1.8-0.1c0.1,0.5-0.7,0.9-1,1.1c0.6,0.4,0.7,0.3,0.3,1.4c-0.1,0.6-0.2,0.7-0.6,0.6c-0.1,0.5,0,1-0.8,0.6
		C46,87.3,45.1,87.2,45,87C45.2,86.4,44.4,86.2,44.2,85.8z"/>
	<path class="st0" d="M48.6,87.1c-0.3,0.6,0.6,2.7,1.1,1.2c0.7-0.3,0.3-0.4,0.1-1.2c0-0.6,0.2-1-0.3-0.8
		C49.1,86.6,49.3,87.3,48.6,87.1z"/>
	<path class="st0" d="M51,87.3c0.5-0.4,0.8,0.4,0.3,0.5C51.1,87.8,50.9,87.5,51,87.3z"/>
	<path class="st0" d="M48.5,63.6c-0.1,0.2,0,0.6,0.2,0.7C49.1,64.3,49,63.5,48.5,63.6z"/>
	<path class="st0" d="M49.7,64c0-0.1,0.5-0.2,0.5,0C50.4,64.4,49.7,64.3,49.7,64z"/>
	<path class="st0" d="M49.7,64.7c0-0.4,0.2-0.1,0.5-0.1c0.3-0.3,1.5-0.8,0.6,0.2C50.5,65,50.7,64.9,51,65c0.3,0.4,0.9,0.6,1.3,0.9
		c0.4-0.4,0.3,0.1,0.7,0.3c0.2,0.1,0.3-0.2,0.7-0.2c1.4,0.4-0.3,1.6-0.9,0.8c-0.5-0.6-1-0.7-1.6-0.9C50.9,65.5,49.8,65,49.7,64.7z"
		/>
	<path class="st0" d="M51.6,67.1c0.4-0.3,0.6,0,1,0.1c1.1,0.4,1.3,0.1,2-0.6c1.3-0.4,0.9,1.2,2,0.1c0.4,0.2,1.3,1.2,2,0.5
		c0.3-0.3,2,2.6,2.1,2.4c0.8,0.2,1.3,0.3,2,0.9c1.1,0.4-0.3,0.7,0.6,1.1c0.8,0,1.3,0.1,1.1,1c0.1,0.1,0.2,0,0.5,0.1
		c0.4,0.1,0.5,0.5,0.7,0.4c0.5-0.6,0.5,0.2,1.2,0.2c0.3,0.3,0.6,0.4,1,0.5c0.1,0.1,0.1,0.3,0.2,0.3c0.2,0,0.5,0,0.6,0.1
		c0.3-0.1,0.4-0.5,0.7-0.1c0.7-0.5,0.8,0.4,1.9,1c0.9,0.4,1.4,0.4,1.5,1.2c0.5,0.5,1.4,0.5,1.9,1.4c0.9,0.5,2.5,1.5,3.3,2.4
		c0,0.9-1.6,1-2,0.7c-0.3,0.3,1.9,1.3,2,1.6c0.1,0.3-0.2,0.4-0.1,0.7c0.1,0.4,0.7,0.4,0.7,0.6c-0.9,0.6-2-0.6-2.4-1.3
		c-0.3-0.2-0.6-0.1-0.7-0.3c0-0.3-0.2-0.4-0.4-0.4c0.8-0.3-0.1-0.2-0.4-0.6c-0.3,0-0.3-0.1-0.4-0.4c-0.1-0.2-0.6-0.2-1-0.2
		c-1.1,0-2.2-1.4-2.9-1.6c-0.9-0.1-1.1-0.1-1.8-0.9c-0.4-0.5-1-0.6-1.6-0.6c-0.6-0.1-0.6-0.6-1.3-1.1c-1.1-0.4-1.6-0.7-2.5-1.5
		c-0.6-0.2-0.9-0.6-1.3-1c-0.6-0.2-1-0.2-1.2-0.9c-0.4-0.7-1-0.4-1.6-1.1c-0.5-1-0.5-1.2-1.6-1.1c-1.8-0.8-0.6-2.7-2.5-3.3
		c-1.1-0.2,0.2,0.5,0.2,0.8c-0.4,0.3-0.8-0.2-1.3-0.4c-0.8-0.2-0.8-0.4-0.4,0.3c-0.4,0.4-0.9-0.3-1.1-0.5
		C51.9,67.5,51.4,67.5,51.6,67.1z"/>
	<path class="st0" d="M57.8,66.1c0.1-0.4,0.7-0.1,0.4,0.2C58.1,66.4,57.8,66.3,57.8,66.1z"/>
	<path class="st0" d="M58.5,66.5c0.1-0.1,0.6,0.2,0.5,0.4C58.9,67.2,58.3,66.7,58.5,66.5z"/>
	<path class="st0" d="M72.2,81.9c0-0.4,1.1-1,1.5-0.9c0.4,0.2,0.1,0.9,0.6,1.3c0.2,0.1,0.3,0.5,0.2,0.6c1.2,0,0,1.4-0.6,0.6
		C73.8,82.5,72.2,83.1,72.2,81.9z"/>
	<path class="st0" d="M79.4,134.5c0.8-2.3,6.1,2.5,7,2.7c1.4,0.2,1.9,0.3,2.6,1.4c0.6,0.4,1,0.2,1.6,0.7c0.9,0.6,0.1,1.4-0.6,0.7
		c-0.4,0-0.5,1-0.8,0.9c-0.3-0.3-0.4-0.8-1.2-0.7c-1,0-1-0.9-1.2-1.6c-0.5-0.6-1.7-0.2-1.8-0.5c0.6-0.9-0.3-1.3-1-0.5
		c-0.3,0.2-0.5-0.1-1.5-0.2c-0.4,0-0.7-0.2-0.7-0.5c-0.9,0-0.5-0.1-0.6-0.7C80.5,136.8,79.2,135.8,79.4,134.5z"/>
	<path class="st0" d="M75.7,130.4c0.1-0.4,1.7,0.2,1.5,0.8C77.2,131.3,75.5,130.4,75.7,130.4z"/>
	<path class="st0" d="M73.2,100.1c0.8,0.1-0.1-0.4,0-1c0.4-0.4,0.4-0.6,0.1-1.1c-0.4-1.3,1.3-2.2,1.8-2.1c2.8-0.1,2.4,3.6,5,3.2
		c1.1-1.3,1.1,0.6,2.9-0.5c0.4,0,0.4,0.2,0.9,0.2c0.8-0.1,1.2-0.4,1.9,0c0.8-0.2,0.8-0.5,1.4,0.3c0.7,0.4,1.2,1.1,1.6,1.6
		c0.9,0.2,2.2,0.5,2.5,1.6c-0.1,1.5,0.8,0.7,1.4,1.8c0.4,0.1,0.7-0.2,0.8,0.3c0.4,0.4,0.6,0.5,0.5,1.1c1.6,1.2-0.9,1.5-2.1,1.6
		c-0.5,0.2-0.6,0.6-1,0.6c-0.4-0.1-0.7-0.6-1.3-0.3c-0.4,0-0.5-0.4-0.9-0.6c-0.6-0.2-0.9,0.3-1.4,0.1c-1.4-1.9-1.3-1.5-3.9-1.4
		c-2.4,0.6-3.4-0.6-5.1-0.6c-1,0.7-0.9,0-1.9-0.7c-1-0.4-1.2-0.3-1.1-1.2c-0.4-0.4-1.2-0.2-0.7-0.9
		C74.8,102.1,73.1,100.4,73.2,100.1z"/>
	<path class="st0" d="M101.5,114.4c0.4-5.6,4.9-0.3,7.7,1.5c1.2,0.5,0.8-0.5,1.9,0.7c0.3,0,0.4-0.4,0.7-0.3c0.2,0,0.3,0.2,0.5,0.2
		c0.7-0.7,0.7,0.5,1.4,0.8c0.4,0.1,0.6-0.7,1.2-0.7c0.6,0,1.4,0.8,1.5,1.6c-0.1,0.5,0.1,0.8,0.6,1c0.2,1.1-0.1,0.9,1.1,1.5
		c0.8,0.7,0.4,1.4-0.2,1.8c0.2,0.5,1.7,0.1,1.8,0.2c0.5,1-0.8,0.4-1.5,0.7c-0.9-0.4-0.8-0.7-2-0.2c-1.2,0.2-1.6-0.6-2.3-0.8
		c-0.4-0.1-0.5,0.2-0.9,0.1c-0.6-0.1-0.6-0.5-1.2-0.5c-0.5,0-0.7,0.3-1,0.1c-0.3-0.1-0.2-0.4-0.4-0.6c-0.3-0.2-0.7,0.1-0.8,0
		c-0.1-0.9,0.2-0.6-0.7-0.5c-0.1-0.1-0.6-0.4-0.7-0.4c0.2-0.4,0.5-0.3-0.1-0.7c-0.2-0.2,0-0.5-0.2-0.6c-1.1,0.7-0.5,0.1-1.2-0.7
		c-0.9-0.1-1.7,0-1.3-1.3c0.6-0.7,0-0.4-0.4-0.6c1.3-1.3-0.6-0.5,0-1.8c-0.3-0.3-1.5,0.1-1.7-0.6c-0.2-0.1-0.4,0.2-0.4,0.3
		C102.7,115,101.8,115,101.5,114.4z"/>
	<path class="st0" d="M108.8,112.6c-0.3,0.3-0.1,0.7,0.2,0.7c0,0.3-0.1,0.8,0.4,0.6C110.3,113.5,109.4,112.2,108.8,112.6z"/>
	<path class="st0" d="M113.1,112.6c-0.6,0.2,0,0.7,0.3,1.2C113.6,113.7,113.5,112.6,113.1,112.6z"/>
	<path class="st0" d="M121.3,122.7c-0.4,0-0.4,0.8,0,0.8C121.7,123.5,121.7,122.7,121.3,122.7z"/>
	<path class="st0" d="M113.1,103.9c-0.6,0.5-0.3,3.1,0.7,2.5c0.2-0.2-0.2-0.6-0.2-1.2C113.8,104.4,114.1,103.7,113.1,103.9z"/>
	<path class="st0" d="M100.6,98.4c0.2,0.6,0.1,1.1,0.9,1.4c0.5,0.5,0.3,0.8,0.8,1.3c0.4,0.4,0.6,0.2,1.1,0.7
		c0.3,0.3,0.2,0.4,0.7,1.1c0.4,0.6,0.5,0.6,0.6,0.6c0.2-0.1,0.2-0.8,0.4-0.8c0.3,0.2,2.1,3.2,1.7,0.6c-0.3-0.5-0.4-1.1-0.3-1.7
		c-0.2-0.7-1-0.7-1.2-1.5c0.3-1-2.3-2.5-2.4-2.9c0,0.9,1.5,2,0.8,2.8c-0.5-0.4-1.9-2.9-2.5-3c-0.3-0.2-0.8-0.6-0.3-0.7
		c0.6,0.2,1.1,1,0.7-0.3c-0.6-0.6-0.8-0.3-0.1-0.8c0-0.5-1.5-1-0.6-1.5c-1.6-0.8,0.4-1.3-1.4-2c0.5-0.2,0.9-0.1,0.1-0.8
		c-0.6-0.6-0.6-1.1-0.9-1.1c-0.4,0.1-0.8,0.5-0.9-0.1c0.3-0.6-0.5-1.2-0.9-0.5c-0.3,0.1-0.8-0.4-0.9-1c-0.1-0.3-0.1-0.9,0.5-0.8
		c0.1-0.2-0.3-0.6-0.2-0.9c0.5-0.1,1.4-0.6,0.9-1.3c-0.4-0.1-0.6-0.4-0.8-0.8c-0.3-0.4-0.6-0.2-0.8-0.6c-0.2-0.3,0-0.5-0.1-0.8
		c-0.2-0.4-0.6-0.2-1-0.6c-0.3-0.4,0-0.6-0.4-1.1c-0.3-0.4-0.6-0.3-1-0.8c-0.2-0.5-0.9-0.9-1.3-0.6c0,0.1,0.3,0.3,0.4,0.7
		c0.4,1.2-1.8-1-2.5-0.3c-0.4,1.4,3.2,2.5,2.7,3.7c-1.2,0.5-1.3,1.2-0.8,2.4c-0.2,1.2,0.1,1.4,0.9,2.4c0.4,0.8-0.2,1.1,0.2,2.1
		c0.5,0.8,0.7,1.3,0.9,2.1c0.5,0.4,0.9,0.5,0.8,1.3c0.4,0.6,1.3,0.6,1.7,0.8c0.3,0.6,0.1,0.9,0.9,1c0.2,0.6,0.3,0.7,1,0.9
		c0.3,0.6,0.8,0.5,1.3,0.7C99.8,98,100,98.4,100.6,98.4z"/>
	<path class="st0" d="M93.1,79.6c0.3-0.6,1.4,0.3,0.9,0.7C93.9,80.3,93.3,79.6,93.1,79.6z"/>
	<path class="st0" d="M90.6,72.5c0.4-0.5,1,0.4,0.6,0.6C91,73.2,90.5,72.7,90.6,72.5z"/>
	<path class="st0" d="M76.6,93.7c0.1-1.1,1.4-0.5,0.9,0.3C77.2,94.4,76.6,94.1,76.6,93.7z"/>
	<path class="st0" d="M85,94c0.1-0.3,0.4-0.3,0.5-0.6c0.2-0.3,0.1-0.7,0.1-0.7c0.1,0,0.1,0.3,0.4,0.6c0.4,0.4,1,0.2,1.1,0.5
		c0,1-1.5,0.8-2,0.6c-0.1,0.8-1.4,0.6-0.6,0C84.8,94.3,84.9,94.4,85,94z"/>
	<path class="st0" d="M84.5,93.7c0.9-0.3,1.3-0.8,0.3-1.5c-0.5-0.8-0.3-0.6-0.8-0.1c-0.6-0.5-0.3-0.7-1.1-0.1
		c-0.5-0.6-0.2-0.2-0.5,0.2c-0.3-0.1-0.3-0.1-0.4,0.2c-0.1,0.1-0.3-0.2-0.4-0.1c-0.1,0.2,0.3,1.1,0.5,1.1
		C83,92.4,83.4,93.7,84.5,93.7z"/>
	<path class="st0" d="M81.2,91.7c0.2-0.5,0.5-0.5,0-0.8c0.2-0.6,0.7,0.1,1,0.3c0.1,0.4-0.2,0.2-0.4,0.2
		C81.5,91.5,81.4,92.5,81.2,91.7z"/>
	<path class="st0" d="M80.2,89.5c-0.2,0.3,0.5,0.7,0.6,0.5C80.9,89.7,80.5,89.4,80.2,89.5z"/>
	<path class="st0" d="M66,93.6c-0.1,0,1-1.1,1-1.3c0,0.2,0.4,0.7,0.2,0.9C67.1,93.7,66.3,94,66,93.6z"/>
	<path class="st0" d="M65.2,93.9c0.2-0.3,0.8,0.2,0.6,0.4C65.7,94.4,65.2,94.1,65.2,93.9z"/>
	<path class="st0" d="M67.3,93.8c-0.1-0.1,0.1-0.5,0.3-0.5C67.8,93.4,67.5,93.9,67.3,93.8z"/>
	<path class="st0" d="M64.1,93.1c-0.3-0.5,0-0.2,0.3-0.4c0.1-0.5,0.2-0.8,0.7-0.5c0,0-0.7-0.6-0.2-0.8c0.2,0,0.5,0.5,0.7,0.2
		c0.2,0,0.1,0.6,0.3,0.7c0,0.1,0.6-0.3,0.8-0.2c0,0.1-0.9,1.3-1,1.3c-0.5-0.2-0.6,0-0.9,0.3C64.6,92.7,64.3,93.8,64.1,93.1z"/>
	<path class="st0" d="M63.8,91.6c-0.1,0.1,0,0.6,0.1,0.6C64.3,92.2,64.2,91.4,63.8,91.6z"/>
	<path class="st0" d="M191.7,137.1c0.3-0.4,0.5-0.2,0.9-0.1c0.5,0,0.9-0.3,1.3,0.2c-0.7,0.9,0.5,0.8,0.8,1.3c-0.2,0.6-1,0.1-1.4,0.1
		C192,139.3,191.8,137.8,191.7,137.1z"/>
	<path class="st0" d="M194.1,137.5c0.1-0.6,0.7-0.8,0.6-0.1C194.5,137.9,194,138,194.1,137.5z"/>
	<path class="st0" d="M186.7,131c0-0.9,1.6-0.9,1.4,0.1c-0.1,0.1-0.1,0.3,0,0.5c0,1-1.9,0.1-0.6-0.1c0,0-0.2-0.1-0.2-0.2
		c0.1-0.1,0.1-0.3-0.1-0.4C187.2,131.1,186.7,131.7,186.7,131z"/>
	<path class="st0" d="M175.4,123.4c-0.3-0.4,0.3-1.5,0.7-1.3c0.2,0.2,0.1,0.9,0.5,0.4c0.2-0.5,0.2-1.9,1.2-1.5
		c0.6-0.5,0.9-0.1,1.6-0.1c0.5-0.3,0.7-0.4,1.3,0c0.6,0.3,1,0.1,1.1,0.3c0,0.4-2.6,2.9-2.2,1.2c-0.1-0.1-0.5,0.4-0.7,0.3
		c-0.1-0.5-0.3-0.5-0.6,0c0.1,0.7-0.3,0.6-0.7,1c-0.2,0.2,0,0.5-0.2,0.6c-0.6,0.3-0.4-0.7-0.5-0.8
		C176.5,123.9,175.5,124.3,175.4,123.4z"/>
	<path class="st0" d="M175.8,121.4c-0.2-0.5,0.5-0.9,0.6-0.3C176.4,121.4,175.9,121.7,175.8,121.4z"/>
	<path class="st0" d="M179.8,123.6c-0.1-0.3,0.6-0.7,0.9-0.4C180.9,123.4,180.1,124.1,179.8,123.6z"/>
	<path class="st0" d="M176,116.3c-0.1-0.2,0.1-0.5,0.3-0.5C176.7,115.9,176.5,116.8,176,116.3z"/>
	<path class="st0" d="M184.4,113.4c0,0,0,0.1-0.1,0.7c0,0.3,0,0.3,0,0.4C184.6,114.5,184.6,113.4,184.4,113.4z"/>
	<path class="st0" d="M184.3,115c-0.1-0.5,0.8-1.1,1-0.5C185.4,114.9,184.4,115.6,184.3,115z"/>
</g>
</svg>
