<?xml version="1.0" encoding="utf-8"?>
<!-- Generator: Adobe Illustrator 26.0.3, SVG Export Plug-In . SVG Version: 6.00 Build 0)  -->
<svg version="1.1" id="Isolation_Mode" xmlns="http://www.w3.org/2000/svg" xmlns:xlink="http://www.w3.org/1999/xlink" x="0px"
	 y="0px" viewBox="0 0 200 200" enable-background="new 0 0 200 200" xml:space="preserve">
<g>
	<path fill="#1E8346" d="M4.323,60.241c0.044-0.048,0.197,0.088,0.354,0.044c0.27-0.076,0.333-0.626,0.354-0.774
		c0.151-1.072,1.118-2.546,1.99-2.653c0.579-0.071,0.668,0.513,1.459,0.531c0.867,0.019,1.023-0.678,1.769-0.575
		c0.55,0.076,0.654,0.48,1.614,0.73c0.303,0.079,0.418,0.071,0.619,0.111c1.1,0.215,1.307,1.154,2.499,2.034
		c0.547,0.404,1.637,1.209,2.609,0.929c0.351-0.101,0.729-0.356,1.481-0.442c0.292-0.033,0.393-0.013,0.619-0.088
		c0.589-0.197,0.669-0.591,1.039-0.619c0.397-0.03,0.469,0.413,0.907,0.508c0.728,0.159,1.07-0.945,1.88-0.951
		c0.762-0.006,0.824,0.969,2.167,1.459c0.302,0.11,1.017,0.36,1.614,0.022c0.254-0.144,0.595-0.455,0.553-0.752
		c-0.036-0.256-0.327-0.285-0.354-0.553c-0.027-0.272,0.244-0.545,0.487-0.663c0.215-0.105,0.409-0.088,0.509-0.088
		c0.951-0.002,1.364-1.541,2.233-1.548c0.48-0.004,0.409,0.466,1.128,0.597c0.488,0.089,0.742-0.087,1.71-0.015
		c0.285,0.021,0.254,0.036,0.354,0.029c0.69-0.044,0.735-0.654,1.474-0.943c0.555-0.218,0.952-0.039,1.386-0.354
		c0.06-0.044,0.161-0.126,0.324-0.177c0.296-0.093,0.39,0.043,0.649-0.03c0.286-0.08,0.28-0.277,0.59-0.354
		c0.206-0.051,0.227,0.032,0.442,0c0.396-0.058,0.433-0.354,0.825-0.472c0.314-0.094,0.391,0.065,0.737,0
		c0.4-0.075,0.589-0.342,0.796-0.501c0.554-0.426,1.119,0.008,2.535,0.059c0.661,0.024,1.723,0.062,2.771-0.472
		c0.372-0.189,0.433-0.293,1.15-0.678c0.832-0.446,1.248-0.67,1.533-0.678c0.824-0.024,0.963,0.671,2.211,0.855
		c0.16,0.024,0.941,0.139,1.15-0.206c0.078-0.129,0.013-0.22,0.088-0.324c0.188-0.262,0.779,0.053,1.622,0.118
		c1.108,0.086,1.644-0.339,2.123,0.059c0.247,0.206,0.249,0.44,0.413,0.442c0.191,0.003,0.347-0.316,0.825-1.474
		c0.398-0.964,0.462-1.157,0.708-1.297c0.324-0.185,0.468,0.007,1.15-0.088c0.638-0.089,0.763-0.292,1.445-0.472
		c0.05-0.013,0.707-0.182,1.474-0.147c1.409,0.063,1.812,0.75,2.417,0.472c0.621-0.285,0.35-1.079,0.973-1.386
		c0.873-0.429,2.471,0.606,2.712,0.766c0.407,0.272,0.795,0.616,1.327,0.56c0.314-0.033,0.376-0.174,0.678-0.177
		c0.411-0.004,0.537,0.253,1.238,0.708c0.803,0.52,1.1,0.482,1.415,0.943c0.161,0.235,0.115,0.291,0.295,0.678
		c0.291,0.626,0.619,0.927,1.032,1.415c0.12,0.142,0.012,0.022,1.179,1.68c1.421,2.019,1.336,1.85,1.386,1.946
		c0.117,0.226,0.249,0.512,0.56,0.766c0.387,0.317,0.691,0.292,1.002,0.442c0.672,0.324,0.497,1.037,1.091,2.123
		c0.661,1.209,1.379,1.239,2.093,2.476c0.428,0.742,0.649,1.297,0.649,1.297c0.16,0.402,0.133,0.429,0.236,0.59
		c0.398,0.626,0.966,0.493,1.238,0.973c0.263,0.464-0.183,0.738,0.059,1.238c0.187,0.386,0.5,0.322,1.504,1.061
		c0.45,0.332,0.657,0.544,0.619,0.737c-0.039,0.198-0.3,0.203-0.354,0.383c-0.098,0.33,0.694,0.606,1.209,1.268
		c0.685,0.881,0.083,1.421,0.796,2.712c0.395,0.715,0.754,0.865,0.737,1.386c-0.021,0.651-0.593,0.796-0.531,1.297
		c0.087,0.698,1.24,0.753,1.386,1.592c0.063,0.363-0.131,0.48,0,0.884c0.117,0.36,0.316,0.405,0.59,0.855
		c0.286,0.47,0.15,0.553,0.383,0.943c0.404,0.675,0.934,0.632,1.032,1.061c0.037,0.162,0.028,0.458-0.678,1.209
		c-0.723,0.768-1.116,0.885-1.828,1.474c-0.666,0.552-1.834,1.519-1.68,2.447c0.054,0.327,0.217,0.317,0.56,1.091
		c0.315,0.709,0.472,1.064,0.413,1.327c-0.235,1.035-2.848,0.869-3.066,1.887c-0.098,0.457,0.392,0.656,0.265,1.238
		c-0.154,0.706-0.963,0.814-0.973,1.327c-0.008,0.417,0.523,0.472,1.032,1.12c0.864,1.1,0.621,2.576,0.56,2.889
		c-0.101,0.519-0.188,0.972-0.56,1.327c-0.281,0.268-0.566,0.328-0.855,0.737c-0.264,0.373-0.128,0.465-0.324,0.649
		c-0.411,0.383-0.979-0.048-1.946,0.295c-0.267,0.095-0.29,0.151-0.442,0.147c-0.543-0.014-0.609-0.745-1.209-0.973
		c-0.53-0.202-0.736,0.271-1.71,0.206c-0.264-0.018-0.974-0.065-1.209-0.501c-0.152-0.283,0.048-0.444,0-0.825
		c-0.107-0.847-1.196-0.843-1.621-1.828c-0.271-0.626,0.073-0.85-0.295-1.562c-0.099-0.192-0.415-0.803-0.973-0.914
		c-0.432-0.086-0.565,0.218-1.002,0.147c-0.568-0.092-0.593-0.646-1.12-0.826c-0.622-0.212-1.553,0.23-1.946,0.884
		c-0.44,0.734,0.032,1.343-0.501,1.946c-0.309,0.35-0.739,0.452-0.943,0.501c-0.559,0.133-1.032,0.004-1.562-0.147
		c-0.964-0.275-1.288-0.631-1.71-0.442c-0.281,0.126-0.205,0.313-0.501,0.472c-0.564,0.302-0.973-0.309-1.739-0.118
		c-0.55,0.137-0.607,0.518-1.179,0.531c-0.273,0.006-0.426-0.077-0.649,0.03c-0.292,0.14-0.231,0.381-0.472,0.56
		c-0.426,0.316-0.932-0.207-1.592,0.059c-0.388,0.157-0.301,0.373-0.678,0.531c-0.581,0.243-0.923-0.217-1.71-0.206
		c-0.796,0.01-0.742,0.484-1.739,0.649c-0.92,0.151-1.209-0.211-1.916,0.088c-0.577,0.244-0.543,0.553-0.943,0.59
		c-0.635,0.059-0.848-0.705-1.798-0.973c-0.576-0.163-1.077-0.045-1.268,0c-1.065,0.251-1.001,0.954-2.064,1.356
		c-0.154,0.058-1.594,0.584-2.594,0c-0.164-0.096-0.345-0.238-0.59-0.206c-0.42,0.055-0.48,0.554-0.884,0.855
		c-0.601,0.448-1.532,0.138-2.211-0.088c-0.619-0.206-1.529-0.509-1.887-1.297c-0.25-0.55,0.017-0.791-0.236-1.415
		c-0.24-0.593-0.696-0.91-1.268-1.297c-1.503-1.018-2.214-0.716-2.653-1.445c-0.422-0.7,0.161-1.101-0.236-1.916
		c-0.545-1.12-1.9-0.889-2.211-1.828c-0.247-0.747,0.551-1.075,0.501-2.152c-0.054-1.151-1.023-1.998-1.739-2.624
		c-1.189-1.039-1.541-0.688-2.742-1.739c-1.139-0.998-0.701-1.207-1.946-2.3c-0.535-0.47-1.273-1.008-1.327-1.828
		c-0.015-0.229,0.039-0.248,0-0.442c-0.147-0.736-1.076-1.252-1.828-1.445c-0.74-0.19-1.058-0.003-1.297-0.295
		c-0.312-0.38,0.091-0.862-0.236-1.327c-0.3-0.426-0.799-0.248-1.032-0.649c-0.261-0.449,0.268-0.843,0.088-1.268
		c-0.317-0.75-2.181-0.021-3.272-1.091c-0.454-0.445-0.28-0.718-0.855-1.209c-0.687-0.586-1.111-0.348-1.68-0.855
		c-0.503-0.447-0.289-0.736-0.914-1.946c-0.496-0.96-0.769-1.489-1.356-1.739c-0.624-0.266-0.988,0.046-1.533-0.354
		c-0.37-0.271-0.359-0.529-0.796-0.767c-0.401-0.218-0.584-0.096-0.943-0.236c-0.596-0.232-0.493-0.726-1.179-1.533
		c-0.3-0.353-0.927-1.09-1.887-1.327c-0.382-0.094-0.577-0.05-0.737-0.236c-0.339-0.394,0.246-0.921,0.059-1.68
		c-0.078-0.316-0.198-0.301-1.533-1.857C4.699,60.865,4.243,60.33,4.323,60.241z"/>
	<path fill="#1E8346" d="M93.739,104.342c-0.127-0.227,0.078-0.678,0.431-0.763c0.311-0.075,0.669,0.15,0.697,0.387
		c0.033,0.283-0.408,0.585-0.774,0.553C94.044,104.514,93.825,104.494,93.739,104.342z"/>
	<path fill="#1E8346" d="M98.7,107.411c0.056-0.126,0.291-0.191,0.759-0.317c0.441-0.118,0.661-0.178,0.796-0.162
		c0.508,0.059,1.061,0.568,1.098,1.172c0.031,0.497-0.3,0.852-0.626,1.201c-0.133,0.143-0.187,0.166-0.228,0.177
		c-0.122,0.032-0.358,0.015-1.231-1.069C98.677,107.681,98.65,107.522,98.7,107.411z"/>
	<path fill="#1E8346" d="M106.144,113.794c-0.107-0.197-0.032-0.4,0-0.575c0.158-0.871-0.728-1.202-0.752-2.211
		c-0.019-0.805,0.526-1.406,0.575-1.459c0.22-0.236,0.334-0.232,0.708-0.531c0.518-0.413,0.682-0.724,1.017-1.105
		c0.726-0.826,1.03-0.591,1.769-1.327c0.944-0.941,0.666-1.544,1.371-1.901c0.582-0.295,0.923,0.039,2.344,0.177
		c1.155,0.112,1.149-0.088,2.919-0.088c2.084,0,2.227,0.277,3.051,0.088c1.488-0.34,1.944-2.288,2.786-2.078
		c0.268,0.067,0.395,0.285,0.685,0.232c0.397-0.072,0.443-0.531,0.918-0.708c0.32-0.119,0.374,0.061,0.785,0
		c0.691-0.102,0.765-0.644,1.526-0.851c0.447-0.122,0.466,0.053,0.929-0.066c0.767-0.199,0.77-0.695,1.327-0.851
		c0.894-0.251,1.475,0.867,2.377,0.586c0.446-0.139,0.348-0.427,0.929-0.641c0.568-0.21,0.671,0.063,1.592-0.099
		c0.48-0.084,0.761-0.213,1.05-0.044c0.213,0.124,0.193,0.271,0.387,0.332c0.341,0.108,0.569-0.295,0.973-0.243
		c0.284,0.036,0.293,0.25,0.553,0.365c0.747,0.329,1.6-1.029,2.421-0.741c0.31,0.109,0.316,0.348,0.895,0.597
		c0.312,0.134,0.341,0.078,0.685,0.199c0.587,0.207,0.959,0.533,1.437,0.951c0.444,0.388,0.49,0.523,0.508,0.597
		c0.095,0.383-0.171,0.688-0.033,0.829c0.117,0.12,0.332-0.079,0.641-0.044c0.481,0.054,0.508,0.595,1.172,1.128
		c0.082,0.065,0.478,0.25,1.271,0.619c0.472,0.22,0.717,0.324,1.017,0.254c0.076-0.017,0.432-0.1,0.486-0.321
		c0.095-0.385-0.858-0.677-0.84-1.271c0.007-0.248,0.182-0.5,0.321-0.497c0.238,0.005,0.299,0.763,0.862,1.459
		c0.2,0.247,0.386,0.391,0.575,0.376c0.105-0.008,0.174-0.063,0.254-0.022c0.144,0.073,0.065,0.324,0.188,0.398
		c0.133,0.08,0.461-0.071,0.553-0.31c0.132-0.343-0.28-0.717-0.199-0.796c0.095-0.093,0.575,0.516,1.481,0.918
		c0.52,0.23,0.844,0.244,1.006,0.564c0.124,0.245,0.015,0.396,0.181,0.708c0.044,0.083,0.239,0.449,0.568,0.509
		c0.351,0.064,0.497-0.286,0.921-0.302c0.285-0.011,0.494,0.137,0.803,0.361c0.648,0.471,0.572,0.718,1.12,1.179
		c0.651,0.547,1.119,0.503,1.246,0.951c0.103,0.365-0.135,0.65,0,0.759c0.175,0.141,0.523-0.378,1.128-0.442
		c0.78-0.083,1.08,0.685,1.931,0.568c0.335-0.046,0.247-0.16,0.678-0.243c0.595-0.115,0.822,0.089,1.673,0.044
		c0.357-0.019,0.383-0.058,0.553-0.022c0.411,0.088,0.607,0.393,0.929,0.752c0.528,0.59,1.052,1.176,1.614,1.15
		c0.412-0.019,0.43-0.347,0.973-0.442c0.716-0.125,1.323,0.334,1.349,0.354c0.669,0.521,0.505,1.253,0.884,1.327
		c0.421,0.081,0.649-0.814,1.835-1.349c0.141-0.064,0.321-0.143,0.575-0.199c1-0.219,1.841,0.223,2.3,0.464
		c0.391,0.206,0.588,0.312,0.663,0.509c0.198,0.518-0.439,1.09-0.221,1.371c0.047,0.06,0.092,0.056,0.663,0.111
		c0.735,0.071,0.824,0.093,0.973,0.022c0.324-0.155,0.379-0.493,0.486-0.464c0.201,0.053,0.004,1.228,0.31,1.327
		c0.084,0.027,0.146-0.047,0.221,0c0.155,0.097-0.03,0.455,0.133,0.619c0.151,0.152,0.43-0.033,0.553,0.111
		c0.108,0.127-0.068,0.317-0.022,0.619c0.034,0.224,0.183,0.463,0.376,0.575c0.476,0.275,1.016-0.346,1.437-0.088
		c0.284,0.173,0.159,0.528,0.486,0.708c0.333,0.183,0.715-0.044,0.774,0.066c0.063,0.117-0.329,0.44-0.575,0.641
		c-1.126,0.92-1.689,1.38-1.835,1.481c-0.526,0.364-0.835,0.543-1.282,0.973c-0.322,0.309-0.633,0.613-0.553,0.796
		c0.088,0.201,0.59,0.117,1.393,0.088c1.705-0.061,1.597,0.239,2.211,0.066c1.177-0.331,1.442-1.398,2.521-1.459
		c0.119-0.007,0.541-0.031,0.686,0.199c0.113,0.179-0.052,0.339,0.022,0.531c0.179,0.462,1.401,0.238,1.504,0.575
		c0.083,0.274-0.669,0.602-0.575,0.973c0.048,0.19,0.291,0.282,0.42,0.332c0.391,0.149,0.66,0.013,1.083-0.022
		c0.625-0.052,1.119,0.155,1.437,0.287c0.562,0.235,0.518,0.418,1.172,0.84c1.1,0.71,1.843,0.59,1.99,1.105
		c0.108,0.379-0.255,0.583-0.111,0.973c0.151,0.409,0.688,0.561,1.128,0.685c0.588,0.167,0.818,0.098,1.946,0.199
		c1.112,0.099,1.343,0.206,1.459,0.398c0.172,0.282-0.064,0.485,0.066,0.907c0.153,0.492,0.579,0.556,1.061,1.017
		c0.667,0.637,0.845,1.463,0.907,1.747c0.06,0.277,0.252,1.231-0.199,2.167c-0.261,0.54-0.402,0.383-0.951,1.26
		c-0.404,0.647-0.712,1.154-0.619,1.747c0.048,0.309,0.179,0.469,0.088,0.575c-0.154,0.181-0.661-0.131-1.415-0.354
		c-0.619-0.182-1.253-0.21-2.521-0.265c-1.365-0.059-1.132,0.062-1.658-0.022c-1.373-0.22-1.798-0.861-2.697-0.641
		c-0.466,0.114-0.379,0.293-0.951,0.442c-0.556,0.145-0.687-0.011-1.946-0.044c-0.817-0.021-0.957,0.039-1.349-0.088
		c-0.464-0.151-0.542-0.326-0.862-0.332c-0.51-0.01-0.732,0.425-1.216,0.708c-0.539,0.315-0.907,0.152-2.322,0.066
		c-1.668-0.102-1.528,0.102-3.162-0.022c-0.553-0.042-1.345-0.124-2.277-0.332c-0.854-0.19-1.281-0.285-1.592-0.508
		c-0.313-0.225-0.539-0.502-0.818-0.442c-0.244,0.053-0.213,0.296-0.486,0.464c-0.46,0.283-0.894-0.189-1.548,0.022
		c-0.386,0.125-0.291,0.309-0.708,0.486c-0.551,0.235-0.822-0.043-1.747,0c-0.646,0.03-0.56,0.167-1.26,0.199
		c-0.644,0.03-1.117,0.051-1.57-0.221c-0.351-0.211-0.406-0.427-0.818-0.553c-0.307-0.094-0.397-0.011-0.685-0.111
		c-0.442-0.154-0.407-0.412-0.774-0.597c-0.628-0.318-1.205,0.201-1.592-0.155c-0.212-0.195-0.151-0.455-0.309-0.486
		c-0.259-0.051-0.386,0.651-0.907,0.774c-0.367,0.087-0.685-0.172-0.84,0c-0.085,0.094-0.015,0.2-0.088,0.332
		c-0.13,0.235-0.523,0.212-0.796,0.243c-0.885,0.101-0.987,0.826-1.879,1.017c-0.368,0.079-0.487-0.016-1.128-0.088
		c-1.959-0.223-2.803,0.439-3.228-0.044c-0.345-0.392,0.157-0.89-0.155-1.835c-0.067-0.202-0.179-0.45-1.039-1.371
		c-1.25-1.339-1.888-2.008-2.499-2.034c-0.569-0.024-0.743,0.296-1.481,0.199c-0.559-0.073-0.616-0.277-1.15-0.42
		c-1.218-0.326-2.32,0.364-2.432,0.133c-0.065-0.134,0.335-0.295,0.332-0.619c-0.006-0.493-0.936-0.543-1.194-1.238
		c-0.216-0.583,0.221-1.128,0-1.282c-0.148-0.104-0.368,0.126-0.907,0.332c-0.141,0.054-1.346,0.513-1.791,0.066
		c-0.263-0.264-0.081-0.664-0.287-0.752c-0.254-0.108-0.547,0.496-1.305,0.774c-0.371,0.136-0.549,0.082-0.907,0.133
		c-0.827,0.116-1.134,0.582-1.946,1.105c-0.106,0.068-1.874,1.178-3.847,0.973c-0.345-0.036-0.628-0.068-0.951-0.243
		c-0.544-0.295-0.589-0.666-1.415-1.548c-0.372-0.397-0.564-0.597-0.84-0.708c-0.504-0.201-0.724,0.019-1.15-0.199
		c-0.54-0.276-0.734-0.91-0.774-1.039c-0.175-0.57,0.075-0.715-0.111-1.194c-0.19-0.492-0.502-0.466-0.862-1.017
		c-0.346-0.529-0.126-0.656-0.442-1.349c-0.394-0.864-0.787-0.777-1.128-1.636c-0.204-0.514-0.138-0.732-0.398-0.951
		c-0.325-0.273-0.924-0.351-1.26-0.088c-0.342,0.267-0.15,0.68-0.531,1.614c-0.052,0.128-0.32,0.785-0.486,0.752
		c-0.214-0.043,0.146-1.147-0.464-1.835c-0.396-0.446-1.05-0.548-1.083-0.553c-0.468-0.067-0.574,0.116-0.774,0
		c-0.46-0.267,0.06-1.265-0.508-2.3c-0.139-0.253-0.318-0.579-0.663-0.685c-0.485-0.149-0.765,0.299-1.304,0.111
		c-0.219-0.076-0.495-0.262-0.691-0.524c-0.062-0.083-0.072-0.115-0.105-0.161c-0.265-0.372-0.985-0.231-1.57-0.243
		c-0.266-0.005-1.629-0.066-2.277-0.884c-0.351-0.444-0.282-0.843-0.752-1.105C106.56,114.029,106.277,114.04,106.144,113.794z"/>
	<path fill="#1E8346" d="M194.122,138.381c-0.014-0.281,0.559-0.566,0.752-0.42c0.169,0.128,0.144,0.661-0.155,0.774
		C194.47,138.829,194.133,138.59,194.122,138.381z"/>
</g>
</svg>
